<?xml version="1.0" encoding="utf-8" standalone="no"?>
<!DOCTYPE svg PUBLIC "-//W3C//DTD SVG 1.1//EN"
  "http://www.w3.org/Graphics/SVG/1.1/DTD/svg11.dtd">
<!-- Created with matplotlib (http://matplotlib.org/) -->
<svg height="325pt" version="1.1" viewBox="0 0 411 325" width="411pt" xmlns="http://www.w3.org/2000/svg" xmlns:xlink="http://www.w3.org/1999/xlink">
 <defs>
  <style type="text/css">
*{stroke-linecap:butt;stroke-linejoin:round;}
  </style>
 </defs>
 <g id="figure_1">
  <g id="patch_1">
   <path d="M 0 325.986375 
L 411.60125 325.986375 
L 411.60125 0 
L 0 0 
z
" style="fill:#ffffff;"/>
  </g>
  <g id="axes_1">
   <g id="patch_2">
    <path d="M 43.78125 288.430125 
L 400.90125 288.430125 
L 400.90125 22.318125 
L 43.78125 22.318125 
z
" style="fill:#ffffff;"/>
   </g>
   <g id="matplotlib.axis_1">
    <g id="xtick_1">
     <g id="line2d_1">
      <defs>
       <path d="M 0 0 
L 0 3.5 
" id="m6b585224d0" style="stroke:#000000;stroke-width:0.8;"/>
      </defs>
      <g>
       <use style="stroke:#000000;stroke-width:0.8;" x="59.506705" xlink:href="#m6b585224d0" y="288.430125"/>
      </g>
     </g>
     <g id="text_1">
      <!-- 0 -->
      <defs>
       <path d="M 31.78125 66.40625 
Q 24.171875 66.40625 20.328125 58.90625 
Q 16.5 51.421875 16.5 36.375 
Q 16.5 21.390625 20.328125 13.890625 
Q 24.171875 6.390625 31.78125 6.390625 
Q 39.453125 6.390625 43.28125 13.890625 
Q 47.125 21.390625 47.125 36.375 
Q 47.125 51.421875 43.28125 58.90625 
Q 39.453125 66.40625 31.78125 66.40625 
z
M 31.78125 74.21875 
Q 44.046875 74.21875 50.515625 64.515625 
Q 56.984375 54.828125 56.984375 36.375 
Q 56.984375 17.96875 50.515625 8.265625 
Q 44.046875 -1.421875 31.78125 -1.421875 
Q 19.53125 -1.421875 13.0625 8.265625 
Q 6.59375 17.96875 6.59375 36.375 
Q 6.59375 54.828125 13.0625 64.515625 
Q 19.53125 74.21875 31.78125 74.21875 
z
" id="DejaVuSans-30"/>
      </defs>
      <g transform="translate(56.325455 303.028562)scale(0.1 -0.1)">
       <use xlink:href="#DejaVuSans-30"/>
      </g>
     </g>
    </g>
    <g id="xtick_2">
     <g id="line2d_2">
      <g>
       <use style="stroke:#000000;stroke-width:0.8;" x="110.233977" xlink:href="#m6b585224d0" y="288.430125"/>
      </g>
     </g>
     <g id="text_2">
      <!-- 100 -->
      <defs>
       <path d="M 12.40625 8.296875 
L 28.515625 8.296875 
L 28.515625 63.921875 
L 10.984375 60.40625 
L 10.984375 69.390625 
L 28.421875 72.90625 
L 38.28125 72.90625 
L 38.28125 8.296875 
L 54.390625 8.296875 
L 54.390625 0 
L 12.40625 0 
z
" id="DejaVuSans-31"/>
      </defs>
      <g transform="translate(100.690227 303.028562)scale(0.1 -0.1)">
       <use xlink:href="#DejaVuSans-31"/>
       <use x="63.623047" xlink:href="#DejaVuSans-30"/>
       <use x="127.246094" xlink:href="#DejaVuSans-30"/>
      </g>
     </g>
    </g>
    <g id="xtick_3">
     <g id="line2d_3">
      <g>
       <use style="stroke:#000000;stroke-width:0.8;" x="160.96125" xlink:href="#m6b585224d0" y="288.430125"/>
      </g>
     </g>
     <g id="text_3">
      <!-- 200 -->
      <defs>
       <path d="M 19.1875 8.296875 
L 53.609375 8.296875 
L 53.609375 0 
L 7.328125 0 
L 7.328125 8.296875 
Q 12.9375 14.109375 22.625 23.890625 
Q 32.328125 33.6875 34.8125 36.53125 
Q 39.546875 41.84375 41.421875 45.53125 
Q 43.3125 49.21875 43.3125 52.78125 
Q 43.3125 58.59375 39.234375 62.25 
Q 35.15625 65.921875 28.609375 65.921875 
Q 23.96875 65.921875 18.8125 64.3125 
Q 13.671875 62.703125 7.8125 59.421875 
L 7.8125 69.390625 
Q 13.765625 71.78125 18.9375 73 
Q 24.125 74.21875 28.421875 74.21875 
Q 39.75 74.21875 46.484375 68.546875 
Q 53.21875 62.890625 53.21875 53.421875 
Q 53.21875 48.921875 51.53125 44.890625 
Q 49.859375 40.875 45.40625 35.40625 
Q 44.1875 33.984375 37.640625 27.21875 
Q 31.109375 20.453125 19.1875 8.296875 
z
" id="DejaVuSans-32"/>
      </defs>
      <g transform="translate(151.4175 303.028562)scale(0.1 -0.1)">
       <use xlink:href="#DejaVuSans-32"/>
       <use x="63.623047" xlink:href="#DejaVuSans-30"/>
       <use x="127.246094" xlink:href="#DejaVuSans-30"/>
      </g>
     </g>
    </g>
    <g id="xtick_4">
     <g id="line2d_4">
      <g>
       <use style="stroke:#000000;stroke-width:0.8;" x="211.688523" xlink:href="#m6b585224d0" y="288.430125"/>
      </g>
     </g>
     <g id="text_4">
      <!-- 300 -->
      <defs>
       <path d="M 40.578125 39.3125 
Q 47.65625 37.796875 51.625 33 
Q 55.609375 28.21875 55.609375 21.1875 
Q 55.609375 10.40625 48.1875 4.484375 
Q 40.765625 -1.421875 27.09375 -1.421875 
Q 22.515625 -1.421875 17.65625 -0.515625 
Q 12.796875 0.390625 7.625 2.203125 
L 7.625 11.71875 
Q 11.71875 9.328125 16.59375 8.109375 
Q 21.484375 6.890625 26.8125 6.890625 
Q 36.078125 6.890625 40.9375 10.546875 
Q 45.796875 14.203125 45.796875 21.1875 
Q 45.796875 27.640625 41.28125 31.265625 
Q 36.765625 34.90625 28.71875 34.90625 
L 20.21875 34.90625 
L 20.21875 43.015625 
L 29.109375 43.015625 
Q 36.375 43.015625 40.234375 45.921875 
Q 44.09375 48.828125 44.09375 54.296875 
Q 44.09375 59.90625 40.109375 62.90625 
Q 36.140625 65.921875 28.71875 65.921875 
Q 24.65625 65.921875 20.015625 65.03125 
Q 15.375 64.15625 9.8125 62.3125 
L 9.8125 71.09375 
Q 15.4375 72.65625 20.34375 73.4375 
Q 25.25 74.21875 29.59375 74.21875 
Q 40.828125 74.21875 47.359375 69.109375 
Q 53.90625 64.015625 53.90625 55.328125 
Q 53.90625 49.265625 50.4375 45.09375 
Q 46.96875 40.921875 40.578125 39.3125 
z
" id="DejaVuSans-33"/>
      </defs>
      <g transform="translate(202.144773 303.028562)scale(0.1 -0.1)">
       <use xlink:href="#DejaVuSans-33"/>
       <use x="63.623047" xlink:href="#DejaVuSans-30"/>
       <use x="127.246094" xlink:href="#DejaVuSans-30"/>
      </g>
     </g>
    </g>
    <g id="xtick_5">
     <g id="line2d_5">
      <g>
       <use style="stroke:#000000;stroke-width:0.8;" x="262.415795" xlink:href="#m6b585224d0" y="288.430125"/>
      </g>
     </g>
     <g id="text_5">
      <!-- 400 -->
      <defs>
       <path d="M 37.796875 64.3125 
L 12.890625 25.390625 
L 37.796875 25.390625 
z
M 35.203125 72.90625 
L 47.609375 72.90625 
L 47.609375 25.390625 
L 58.015625 25.390625 
L 58.015625 17.1875 
L 47.609375 17.1875 
L 47.609375 0 
L 37.796875 0 
L 37.796875 17.1875 
L 4.890625 17.1875 
L 4.890625 26.703125 
z
" id="DejaVuSans-34"/>
      </defs>
      <g transform="translate(252.872045 303.028562)scale(0.1 -0.1)">
       <use xlink:href="#DejaVuSans-34"/>
       <use x="63.623047" xlink:href="#DejaVuSans-30"/>
       <use x="127.246094" xlink:href="#DejaVuSans-30"/>
      </g>
     </g>
    </g>
    <g id="xtick_6">
     <g id="line2d_6">
      <g>
       <use style="stroke:#000000;stroke-width:0.8;" x="313.143068" xlink:href="#m6b585224d0" y="288.430125"/>
      </g>
     </g>
     <g id="text_6">
      <!-- 500 -->
      <defs>
       <path d="M 10.796875 72.90625 
L 49.515625 72.90625 
L 49.515625 64.59375 
L 19.828125 64.59375 
L 19.828125 46.734375 
Q 21.96875 47.46875 24.109375 47.828125 
Q 26.265625 48.1875 28.421875 48.1875 
Q 40.625 48.1875 47.75 41.5 
Q 54.890625 34.8125 54.890625 23.390625 
Q 54.890625 11.625 47.5625 5.09375 
Q 40.234375 -1.421875 26.90625 -1.421875 
Q 22.3125 -1.421875 17.546875 -0.640625 
Q 12.796875 0.140625 7.71875 1.703125 
L 7.71875 11.625 
Q 12.109375 9.234375 16.796875 8.0625 
Q 21.484375 6.890625 26.703125 6.890625 
Q 35.15625 6.890625 40.078125 11.328125 
Q 45.015625 15.765625 45.015625 23.390625 
Q 45.015625 31 40.078125 35.4375 
Q 35.15625 39.890625 26.703125 39.890625 
Q 22.75 39.890625 18.8125 39.015625 
Q 14.890625 38.140625 10.796875 36.28125 
z
" id="DejaVuSans-35"/>
      </defs>
      <g transform="translate(303.599318 303.028562)scale(0.1 -0.1)">
       <use xlink:href="#DejaVuSans-35"/>
       <use x="63.623047" xlink:href="#DejaVuSans-30"/>
       <use x="127.246094" xlink:href="#DejaVuSans-30"/>
      </g>
     </g>
    </g>
    <g id="xtick_7">
     <g id="line2d_7">
      <g>
       <use style="stroke:#000000;stroke-width:0.8;" x="363.870341" xlink:href="#m6b585224d0" y="288.430125"/>
      </g>
     </g>
     <g id="text_7">
      <!-- 600 -->
      <defs>
       <path d="M 33.015625 40.375 
Q 26.375 40.375 22.484375 35.828125 
Q 18.609375 31.296875 18.609375 23.390625 
Q 18.609375 15.53125 22.484375 10.953125 
Q 26.375 6.390625 33.015625 6.390625 
Q 39.65625 6.390625 43.53125 10.953125 
Q 47.40625 15.53125 47.40625 23.390625 
Q 47.40625 31.296875 43.53125 35.828125 
Q 39.65625 40.375 33.015625 40.375 
z
M 52.59375 71.296875 
L 52.59375 62.3125 
Q 48.875 64.0625 45.09375 64.984375 
Q 41.3125 65.921875 37.59375 65.921875 
Q 27.828125 65.921875 22.671875 59.328125 
Q 17.53125 52.734375 16.796875 39.40625 
Q 19.671875 43.65625 24.015625 45.921875 
Q 28.375 48.1875 33.59375 48.1875 
Q 44.578125 48.1875 50.953125 41.515625 
Q 57.328125 34.859375 57.328125 23.390625 
Q 57.328125 12.15625 50.6875 5.359375 
Q 44.046875 -1.421875 33.015625 -1.421875 
Q 20.359375 -1.421875 13.671875 8.265625 
Q 6.984375 17.96875 6.984375 36.375 
Q 6.984375 53.65625 15.1875 63.9375 
Q 23.390625 74.21875 37.203125 74.21875 
Q 40.921875 74.21875 44.703125 73.484375 
Q 48.484375 72.75 52.59375 71.296875 
z
" id="DejaVuSans-36"/>
      </defs>
      <g transform="translate(354.326591 303.028562)scale(0.1 -0.1)">
       <use xlink:href="#DejaVuSans-36"/>
       <use x="63.623047" xlink:href="#DejaVuSans-30"/>
       <use x="127.246094" xlink:href="#DejaVuSans-30"/>
      </g>
     </g>
    </g>
    <g id="text_8">
     <!-- episodes -->
     <defs>
      <path d="M 56.203125 29.59375 
L 56.203125 25.203125 
L 14.890625 25.203125 
Q 15.484375 15.921875 20.484375 11.0625 
Q 25.484375 6.203125 34.421875 6.203125 
Q 39.59375 6.203125 44.453125 7.46875 
Q 49.3125 8.734375 54.109375 11.28125 
L 54.109375 2.78125 
Q 49.265625 0.734375 44.1875 -0.34375 
Q 39.109375 -1.421875 33.890625 -1.421875 
Q 20.796875 -1.421875 13.15625 6.1875 
Q 5.515625 13.8125 5.515625 26.8125 
Q 5.515625 40.234375 12.765625 48.109375 
Q 20.015625 56 32.328125 56 
Q 43.359375 56 49.78125 48.890625 
Q 56.203125 41.796875 56.203125 29.59375 
z
M 47.21875 32.234375 
Q 47.125 39.59375 43.09375 43.984375 
Q 39.0625 48.390625 32.421875 48.390625 
Q 24.90625 48.390625 20.390625 44.140625 
Q 15.875 39.890625 15.1875 32.171875 
z
" id="DejaVuSans-65"/>
      <path d="M 18.109375 8.203125 
L 18.109375 -20.796875 
L 9.078125 -20.796875 
L 9.078125 54.6875 
L 18.109375 54.6875 
L 18.109375 46.390625 
Q 20.953125 51.265625 25.265625 53.625 
Q 29.59375 56 35.59375 56 
Q 45.5625 56 51.78125 48.09375 
Q 58.015625 40.1875 58.015625 27.296875 
Q 58.015625 14.40625 51.78125 6.484375 
Q 45.5625 -1.421875 35.59375 -1.421875 
Q 29.59375 -1.421875 25.265625 0.953125 
Q 20.953125 3.328125 18.109375 8.203125 
z
M 48.6875 27.296875 
Q 48.6875 37.203125 44.609375 42.84375 
Q 40.53125 48.484375 33.40625 48.484375 
Q 26.265625 48.484375 22.1875 42.84375 
Q 18.109375 37.203125 18.109375 27.296875 
Q 18.109375 17.390625 22.1875 11.75 
Q 26.265625 6.109375 33.40625 6.109375 
Q 40.53125 6.109375 44.609375 11.75 
Q 48.6875 17.390625 48.6875 27.296875 
z
" id="DejaVuSans-70"/>
      <path d="M 9.421875 54.6875 
L 18.40625 54.6875 
L 18.40625 0 
L 9.421875 0 
z
M 9.421875 75.984375 
L 18.40625 75.984375 
L 18.40625 64.59375 
L 9.421875 64.59375 
z
" id="DejaVuSans-69"/>
      <path d="M 44.28125 53.078125 
L 44.28125 44.578125 
Q 40.484375 46.53125 36.375 47.5 
Q 32.28125 48.484375 27.875 48.484375 
Q 21.1875 48.484375 17.84375 46.4375 
Q 14.5 44.390625 14.5 40.28125 
Q 14.5 37.15625 16.890625 35.375 
Q 19.28125 33.59375 26.515625 31.984375 
L 29.59375 31.296875 
Q 39.15625 29.25 43.1875 25.515625 
Q 47.21875 21.78125 47.21875 15.09375 
Q 47.21875 7.46875 41.1875 3.015625 
Q 35.15625 -1.421875 24.609375 -1.421875 
Q 20.21875 -1.421875 15.453125 -0.5625 
Q 10.6875 0.296875 5.421875 2 
L 5.421875 11.28125 
Q 10.40625 8.6875 15.234375 7.390625 
Q 20.0625 6.109375 24.8125 6.109375 
Q 31.15625 6.109375 34.5625 8.28125 
Q 37.984375 10.453125 37.984375 14.40625 
Q 37.984375 18.0625 35.515625 20.015625 
Q 33.0625 21.96875 24.703125 23.78125 
L 21.578125 24.515625 
Q 13.234375 26.265625 9.515625 29.90625 
Q 5.8125 33.546875 5.8125 39.890625 
Q 5.8125 47.609375 11.28125 51.796875 
Q 16.75 56 26.8125 56 
Q 31.78125 56 36.171875 55.265625 
Q 40.578125 54.546875 44.28125 53.078125 
z
" id="DejaVuSans-73"/>
      <path d="M 30.609375 48.390625 
Q 23.390625 48.390625 19.1875 42.75 
Q 14.984375 37.109375 14.984375 27.296875 
Q 14.984375 17.484375 19.15625 11.84375 
Q 23.34375 6.203125 30.609375 6.203125 
Q 37.796875 6.203125 41.984375 11.859375 
Q 46.1875 17.53125 46.1875 27.296875 
Q 46.1875 37.015625 41.984375 42.703125 
Q 37.796875 48.390625 30.609375 48.390625 
z
M 30.609375 56 
Q 42.328125 56 49.015625 48.375 
Q 55.71875 40.765625 55.71875 27.296875 
Q 55.71875 13.875 49.015625 6.21875 
Q 42.328125 -1.421875 30.609375 -1.421875 
Q 18.84375 -1.421875 12.171875 6.21875 
Q 5.515625 13.875 5.515625 27.296875 
Q 5.515625 40.765625 12.171875 48.375 
Q 18.84375 56 30.609375 56 
z
" id="DejaVuSans-6f"/>
      <path d="M 45.40625 46.390625 
L 45.40625 75.984375 
L 54.390625 75.984375 
L 54.390625 0 
L 45.40625 0 
L 45.40625 8.203125 
Q 42.578125 3.328125 38.25 0.953125 
Q 33.9375 -1.421875 27.875 -1.421875 
Q 17.96875 -1.421875 11.734375 6.484375 
Q 5.515625 14.40625 5.515625 27.296875 
Q 5.515625 40.1875 11.734375 48.09375 
Q 17.96875 56 27.875 56 
Q 33.9375 56 38.25 53.625 
Q 42.578125 51.265625 45.40625 46.390625 
z
M 14.796875 27.296875 
Q 14.796875 17.390625 18.875 11.75 
Q 22.953125 6.109375 30.078125 6.109375 
Q 37.203125 6.109375 41.296875 11.75 
Q 45.40625 17.390625 45.40625 27.296875 
Q 45.40625 37.203125 41.296875 42.84375 
Q 37.203125 48.484375 30.078125 48.484375 
Q 22.953125 48.484375 18.875 42.84375 
Q 14.796875 37.203125 14.796875 27.296875 
z
" id="DejaVuSans-64"/>
     </defs>
     <g transform="translate(200.181875 316.706687)scale(0.1 -0.1)">
      <use xlink:href="#DejaVuSans-65"/>
      <use x="61.523438" xlink:href="#DejaVuSans-70"/>
      <use x="125" xlink:href="#DejaVuSans-69"/>
      <use x="152.783203" xlink:href="#DejaVuSans-73"/>
      <use x="204.882812" xlink:href="#DejaVuSans-6f"/>
      <use x="266.064453" xlink:href="#DejaVuSans-64"/>
      <use x="329.541016" xlink:href="#DejaVuSans-65"/>
      <use x="391.064453" xlink:href="#DejaVuSans-73"/>
     </g>
    </g>
   </g>
   <g id="matplotlib.axis_2">
    <g id="ytick_1">
     <g id="line2d_8">
      <defs>
       <path d="M 0 0 
L -3.5 0 
" id="mc4f328f7e9" style="stroke:#000000;stroke-width:0.8;"/>
      </defs>
      <g>
       <use style="stroke:#000000;stroke-width:0.8;" x="43.78125" xlink:href="#mc4f328f7e9" y="258.592132"/>
      </g>
     </g>
     <g id="text_9">
      <!-- 0.8 -->
      <defs>
       <path d="M 10.6875 12.40625 
L 21 12.40625 
L 21 0 
L 10.6875 0 
z
" id="DejaVuSans-2e"/>
       <path d="M 31.78125 34.625 
Q 24.75 34.625 20.71875 30.859375 
Q 16.703125 27.09375 16.703125 20.515625 
Q 16.703125 13.921875 20.71875 10.15625 
Q 24.75 6.390625 31.78125 6.390625 
Q 38.8125 6.390625 42.859375 10.171875 
Q 46.921875 13.96875 46.921875 20.515625 
Q 46.921875 27.09375 42.890625 30.859375 
Q 38.875 34.625 31.78125 34.625 
z
M 21.921875 38.8125 
Q 15.578125 40.375 12.03125 44.71875 
Q 8.5 49.078125 8.5 55.328125 
Q 8.5 64.0625 14.71875 69.140625 
Q 20.953125 74.21875 31.78125 74.21875 
Q 42.671875 74.21875 48.875 69.140625 
Q 55.078125 64.0625 55.078125 55.328125 
Q 55.078125 49.078125 51.53125 44.71875 
Q 48 40.375 41.703125 38.8125 
Q 48.828125 37.15625 52.796875 32.3125 
Q 56.78125 27.484375 56.78125 20.515625 
Q 56.78125 9.90625 50.3125 4.234375 
Q 43.84375 -1.421875 31.78125 -1.421875 
Q 19.734375 -1.421875 13.25 4.234375 
Q 6.78125 9.90625 6.78125 20.515625 
Q 6.78125 27.484375 10.78125 32.3125 
Q 14.796875 37.15625 21.921875 38.8125 
z
M 18.3125 54.390625 
Q 18.3125 48.734375 21.84375 45.5625 
Q 25.390625 42.390625 31.78125 42.390625 
Q 38.140625 42.390625 41.71875 45.5625 
Q 45.3125 48.734375 45.3125 54.390625 
Q 45.3125 60.0625 41.71875 63.234375 
Q 38.140625 66.40625 31.78125 66.40625 
Q 25.390625 66.40625 21.84375 63.234375 
Q 18.3125 60.0625 18.3125 54.390625 
z
" id="DejaVuSans-38"/>
      </defs>
      <g transform="translate(20.878125 262.391351)scale(0.1 -0.1)">
       <use xlink:href="#DejaVuSans-30"/>
       <use x="63.623047" xlink:href="#DejaVuSans-2e"/>
       <use x="95.410156" xlink:href="#DejaVuSans-38"/>
      </g>
     </g>
    </g>
    <g id="ytick_2">
     <g id="line2d_9">
      <g>
       <use style="stroke:#000000;stroke-width:0.8;" x="43.78125" xlink:href="#mc4f328f7e9" y="225.081481"/>
      </g>
     </g>
     <g id="text_10">
      <!-- 1.0 -->
      <g transform="translate(20.878125 228.8807)scale(0.1 -0.1)">
       <use xlink:href="#DejaVuSans-31"/>
       <use x="63.623047" xlink:href="#DejaVuSans-2e"/>
       <use x="95.410156" xlink:href="#DejaVuSans-30"/>
      </g>
     </g>
    </g>
    <g id="ytick_3">
     <g id="line2d_10">
      <g>
       <use style="stroke:#000000;stroke-width:0.8;" x="43.78125" xlink:href="#mc4f328f7e9" y="191.57083"/>
      </g>
     </g>
     <g id="text_11">
      <!-- 1.2 -->
      <g transform="translate(20.878125 195.370049)scale(0.1 -0.1)">
       <use xlink:href="#DejaVuSans-31"/>
       <use x="63.623047" xlink:href="#DejaVuSans-2e"/>
       <use x="95.410156" xlink:href="#DejaVuSans-32"/>
      </g>
     </g>
    </g>
    <g id="ytick_4">
     <g id="line2d_11">
      <g>
       <use style="stroke:#000000;stroke-width:0.8;" x="43.78125" xlink:href="#mc4f328f7e9" y="158.060179"/>
      </g>
     </g>
     <g id="text_12">
      <!-- 1.4 -->
      <g transform="translate(20.878125 161.859398)scale(0.1 -0.1)">
       <use xlink:href="#DejaVuSans-31"/>
       <use x="63.623047" xlink:href="#DejaVuSans-2e"/>
       <use x="95.410156" xlink:href="#DejaVuSans-34"/>
      </g>
     </g>
    </g>
    <g id="ytick_5">
     <g id="line2d_12">
      <g>
       <use style="stroke:#000000;stroke-width:0.8;" x="43.78125" xlink:href="#mc4f328f7e9" y="124.549528"/>
      </g>
     </g>
     <g id="text_13">
      <!-- 1.6 -->
      <g transform="translate(20.878125 128.348747)scale(0.1 -0.1)">
       <use xlink:href="#DejaVuSans-31"/>
       <use x="63.623047" xlink:href="#DejaVuSans-2e"/>
       <use x="95.410156" xlink:href="#DejaVuSans-36"/>
      </g>
     </g>
    </g>
    <g id="ytick_6">
     <g id="line2d_13">
      <g>
       <use style="stroke:#000000;stroke-width:0.8;" x="43.78125" xlink:href="#mc4f328f7e9" y="91.038877"/>
      </g>
     </g>
     <g id="text_14">
      <!-- 1.8 -->
      <g transform="translate(20.878125 94.838096)scale(0.1 -0.1)">
       <use xlink:href="#DejaVuSans-31"/>
       <use x="63.623047" xlink:href="#DejaVuSans-2e"/>
       <use x="95.410156" xlink:href="#DejaVuSans-38"/>
      </g>
     </g>
    </g>
    <g id="ytick_7">
     <g id="line2d_14">
      <g>
       <use style="stroke:#000000;stroke-width:0.8;" x="43.78125" xlink:href="#mc4f328f7e9" y="57.528227"/>
      </g>
     </g>
     <g id="text_15">
      <!-- 2.0 -->
      <g transform="translate(20.878125 61.327445)scale(0.1 -0.1)">
       <use xlink:href="#DejaVuSans-32"/>
       <use x="63.623047" xlink:href="#DejaVuSans-2e"/>
       <use x="95.410156" xlink:href="#DejaVuSans-30"/>
      </g>
     </g>
    </g>
    <g id="ytick_8">
     <g id="line2d_15">
      <g>
       <use style="stroke:#000000;stroke-width:0.8;" x="43.78125" xlink:href="#mc4f328f7e9" y="24.017576"/>
      </g>
     </g>
     <g id="text_16">
      <!-- 2.2 -->
      <g transform="translate(20.878125 27.816794)scale(0.1 -0.1)">
       <use xlink:href="#DejaVuSans-32"/>
       <use x="63.623047" xlink:href="#DejaVuSans-2e"/>
       <use x="95.410156" xlink:href="#DejaVuSans-32"/>
      </g>
     </g>
    </g>
    <g id="text_17">
     <!-- average maxQ -->
     <defs>
      <path d="M 34.28125 27.484375 
Q 23.390625 27.484375 19.1875 25 
Q 14.984375 22.515625 14.984375 16.5 
Q 14.984375 11.71875 18.140625 8.90625 
Q 21.296875 6.109375 26.703125 6.109375 
Q 34.1875 6.109375 38.703125 11.40625 
Q 43.21875 16.703125 43.21875 25.484375 
L 43.21875 27.484375 
z
M 52.203125 31.203125 
L 52.203125 0 
L 43.21875 0 
L 43.21875 8.296875 
Q 40.140625 3.328125 35.546875 0.953125 
Q 30.953125 -1.421875 24.3125 -1.421875 
Q 15.921875 -1.421875 10.953125 3.296875 
Q 6 8.015625 6 15.921875 
Q 6 25.140625 12.171875 29.828125 
Q 18.359375 34.515625 30.609375 34.515625 
L 43.21875 34.515625 
L 43.21875 35.40625 
Q 43.21875 41.609375 39.140625 45 
Q 35.0625 48.390625 27.6875 48.390625 
Q 23 48.390625 18.546875 47.265625 
Q 14.109375 46.140625 10.015625 43.890625 
L 10.015625 52.203125 
Q 14.9375 54.109375 19.578125 55.046875 
Q 24.21875 56 28.609375 56 
Q 40.484375 56 46.34375 49.84375 
Q 52.203125 43.703125 52.203125 31.203125 
z
" id="DejaVuSans-61"/>
      <path d="M 2.984375 54.6875 
L 12.5 54.6875 
L 29.59375 8.796875 
L 46.6875 54.6875 
L 56.203125 54.6875 
L 35.6875 0 
L 23.484375 0 
z
" id="DejaVuSans-76"/>
      <path d="M 41.109375 46.296875 
Q 39.59375 47.171875 37.8125 47.578125 
Q 36.03125 48 33.890625 48 
Q 26.265625 48 22.1875 43.046875 
Q 18.109375 38.09375 18.109375 28.8125 
L 18.109375 0 
L 9.078125 0 
L 9.078125 54.6875 
L 18.109375 54.6875 
L 18.109375 46.1875 
Q 20.953125 51.171875 25.484375 53.578125 
Q 30.03125 56 36.53125 56 
Q 37.453125 56 38.578125 55.875 
Q 39.703125 55.765625 41.0625 55.515625 
z
" id="DejaVuSans-72"/>
      <path d="M 45.40625 27.984375 
Q 45.40625 37.75 41.375 43.109375 
Q 37.359375 48.484375 30.078125 48.484375 
Q 22.859375 48.484375 18.828125 43.109375 
Q 14.796875 37.75 14.796875 27.984375 
Q 14.796875 18.265625 18.828125 12.890625 
Q 22.859375 7.515625 30.078125 7.515625 
Q 37.359375 7.515625 41.375 12.890625 
Q 45.40625 18.265625 45.40625 27.984375 
z
M 54.390625 6.78125 
Q 54.390625 -7.171875 48.1875 -13.984375 
Q 42 -20.796875 29.203125 -20.796875 
Q 24.46875 -20.796875 20.265625 -20.09375 
Q 16.0625 -19.390625 12.109375 -17.921875 
L 12.109375 -9.1875 
Q 16.0625 -11.328125 19.921875 -12.34375 
Q 23.78125 -13.375 27.78125 -13.375 
Q 36.625 -13.375 41.015625 -8.765625 
Q 45.40625 -4.15625 45.40625 5.171875 
L 45.40625 9.625 
Q 42.625 4.78125 38.28125 2.390625 
Q 33.9375 0 27.875 0 
Q 17.828125 0 11.671875 7.65625 
Q 5.515625 15.328125 5.515625 27.984375 
Q 5.515625 40.671875 11.671875 48.328125 
Q 17.828125 56 27.875 56 
Q 33.9375 56 38.28125 53.609375 
Q 42.625 51.21875 45.40625 46.390625 
L 45.40625 54.6875 
L 54.390625 54.6875 
z
" id="DejaVuSans-67"/>
      <path id="DejaVuSans-20"/>
      <path d="M 52 44.1875 
Q 55.375 50.25 60.0625 53.125 
Q 64.75 56 71.09375 56 
Q 79.640625 56 84.28125 50.015625 
Q 88.921875 44.046875 88.921875 33.015625 
L 88.921875 0 
L 79.890625 0 
L 79.890625 32.71875 
Q 79.890625 40.578125 77.09375 44.375 
Q 74.3125 48.1875 68.609375 48.1875 
Q 61.625 48.1875 57.5625 43.546875 
Q 53.515625 38.921875 53.515625 30.90625 
L 53.515625 0 
L 44.484375 0 
L 44.484375 32.71875 
Q 44.484375 40.625 41.703125 44.40625 
Q 38.921875 48.1875 33.109375 48.1875 
Q 26.21875 48.1875 22.15625 43.53125 
Q 18.109375 38.875 18.109375 30.90625 
L 18.109375 0 
L 9.078125 0 
L 9.078125 54.6875 
L 18.109375 54.6875 
L 18.109375 46.1875 
Q 21.1875 51.21875 25.484375 53.609375 
Q 29.78125 56 35.6875 56 
Q 41.65625 56 45.828125 52.96875 
Q 50 49.953125 52 44.1875 
z
" id="DejaVuSans-6d"/>
      <path d="M 54.890625 54.6875 
L 35.109375 28.078125 
L 55.90625 0 
L 45.3125 0 
L 29.390625 21.484375 
L 13.484375 0 
L 2.875 0 
L 24.125 28.609375 
L 4.6875 54.6875 
L 15.28125 54.6875 
L 29.78125 35.203125 
L 44.28125 54.6875 
z
" id="DejaVuSans-78"/>
      <path d="M 39.40625 66.21875 
Q 28.65625 66.21875 22.328125 58.203125 
Q 16.015625 50.203125 16.015625 36.375 
Q 16.015625 22.609375 22.328125 14.59375 
Q 28.65625 6.59375 39.40625 6.59375 
Q 50.140625 6.59375 56.421875 14.59375 
Q 62.703125 22.609375 62.703125 36.375 
Q 62.703125 50.203125 56.421875 58.203125 
Q 50.140625 66.21875 39.40625 66.21875 
z
M 53.21875 1.3125 
L 66.21875 -12.890625 
L 54.296875 -12.890625 
L 43.5 -1.21875 
Q 41.890625 -1.3125 41.03125 -1.359375 
Q 40.1875 -1.421875 39.40625 -1.421875 
Q 24.03125 -1.421875 14.8125 8.859375 
Q 5.609375 19.140625 5.609375 36.375 
Q 5.609375 53.65625 14.8125 63.9375 
Q 24.03125 74.21875 39.40625 74.21875 
Q 54.734375 74.21875 63.90625 63.9375 
Q 73.09375 53.65625 73.09375 36.375 
Q 73.09375 23.6875 67.984375 14.640625 
Q 62.890625 5.609375 53.21875 1.3125 
z
" id="DejaVuSans-51"/>
     </defs>
     <g transform="translate(14.798438 192.263187)rotate(-90)scale(0.1 -0.1)">
      <use xlink:href="#DejaVuSans-61"/>
      <use x="61.279297" xlink:href="#DejaVuSans-76"/>
      <use x="120.458984" xlink:href="#DejaVuSans-65"/>
      <use x="181.982422" xlink:href="#DejaVuSans-72"/>
      <use x="223.095703" xlink:href="#DejaVuSans-61"/>
      <use x="284.375" xlink:href="#DejaVuSans-67"/>
      <use x="347.851562" xlink:href="#DejaVuSans-65"/>
      <use x="409.375" xlink:href="#DejaVuSans-20"/>
      <use x="441.162109" xlink:href="#DejaVuSans-6d"/>
      <use x="538.574219" xlink:href="#DejaVuSans-61"/>
      <use x="599.853516" xlink:href="#DejaVuSans-78"/>
      <use x="659.033203" xlink:href="#DejaVuSans-51"/>
     </g>
    </g>
   </g>
   <g id="line2d_16">
    <path clip-path="url(#pb4631e5a60)" d="M 60.013977 96.189646 
L 60.52125 122.760382 
L 61.028523 164.259555 
L 61.535795 107.125159 
L 62.043068 117.481637 
L 62.550341 106.156634 
L 63.057614 170.173667 
L 63.564886 122.324449 
L 64.072159 110.968301 
L 64.579432 95.734799 
L 65.086705 146.523679 
L 65.593977 154.816686 
L 66.10125 145.433858 
L 67.115795 179.741649 
L 67.623068 130.034614 
L 68.130341 138.016431 
L 69.144886 107.054269 
L 69.652159 164.159846 
L 70.159432 136.308991 
L 70.666705 89.856505 
L 71.173977 143.669374 
L 71.68125 133.547654 
L 72.188523 115.124353 
L 72.695795 144.58389 
L 73.203068 165.929093 
L 73.710341 87.311791 
L 74.217614 204.251643 
L 74.724886 185.241212 
L 75.232159 127.887685 
L 75.739432 121.861149 
L 76.246705 183.361773 
L 76.753977 104.445877 
L 77.26125 120.782315 
L 77.768523 178.344991 
L 78.275795 160.677362 
L 78.783068 132.765348 
L 79.290341 276.334125 
L 79.797614 144.933848 
L 80.304886 183.703178 
L 80.812159 103.720607 
L 81.319432 119.479569 
L 81.826705 127.303106 
L 82.333977 103.221709 
L 82.84125 118.117685 
L 83.348523 160.45896 
L 83.855795 112.097193 
L 84.363068 133.087848 
L 84.870341 140.991537 
L 85.377614 111.155644 
L 85.884886 121.833038 
L 86.392159 101.854819 
L 86.899432 150.994948 
L 87.406705 115.488068 
L 87.913977 92.319338 
L 88.42125 90.349399 
L 88.928523 174.718153 
L 89.435795 139.697262 
L 89.943068 124.24585 
L 90.450341 129.839797 
L 91.464886 228.722468 
L 91.972159 142.657967 
L 92.479432 143.623529 
L 92.986705 164.475607 
L 94.00125 96.39748 
L 94.508523 93.236062 
L 95.015795 101.021241 
L 95.523068 131.076457 
L 96.030341 95.40718 
L 96.537614 124.29248 
L 97.044886 100.750538 
L 97.552159 83.039441 
L 98.059432 178.192775 
L 98.566705 95.309879 
L 99.073977 139.019989 
L 99.58125 124.736444 
L 100.088523 77.418109 
L 100.595795 78.011985 
L 101.103068 87.461236 
L 101.610341 84.924999 
L 102.117614 84.694712 
L 102.624886 132.548521 
L 103.132159 87.34618 
L 103.639432 103.137737 
L 104.146705 152.830101 
L 104.653977 97.186938 
L 105.16125 86.220298 
L 105.668523 82.458512 
L 106.175795 104.123949 
L 106.683068 130.805751 
L 107.190341 92.469582 
L 107.697614 80.820554 
L 108.204886 86.581038 
L 108.712159 61.610556 
L 109.219432 63.542718 
L 109.726705 109.675165 
L 110.233977 132.976061 
L 110.74125 79.272233 
L 111.248523 80.672079 
L 111.755795 65.940498 
L 112.263068 106.113952 
L 112.770341 71.288471 
L 113.277614 69.710185 
L 113.784886 72.355064 
L 114.292159 122.064192 
L 114.799432 82.489484 
L 115.813977 100.592478 
L 116.32125 61.722569 
L 116.828523 81.89217 
L 117.335795 76.671219 
L 117.843068 95.467394 
L 118.350341 102.086319 
L 118.857614 113.526183 
L 119.364886 102.629179 
L 119.872159 98.8128 
L 120.379432 93.207995 
L 120.886705 69.288621 
L 121.393977 105.797695 
L 123.423068 71.339693 
L 123.930341 65.551841 
L 124.437614 62.277124 
L 124.944886 110.987349 
L 125.452159 76.595439 
L 125.959432 62.377623 
L 126.466705 76.43599 
L 126.973977 78.330303 
L 127.48125 112.332346 
L 127.988523 68.501835 
L 128.495795 77.258047 
L 129.003068 76.401366 
L 129.510341 87.998364 
L 130.017614 114.015577 
L 130.524886 59.734461 
L 131.032159 74.911079 
L 131.539432 54.727472 
L 132.046705 116.941803 
L 132.553977 106.706303 
L 133.06125 64.929365 
L 133.568523 64.684204 
L 134.075795 130.197995 
L 134.583068 71.334253 
L 135.090341 121.508595 
L 135.597614 65.741558 
L 136.104886 45.593029 
L 136.612159 121.666944 
L 137.119432 96.728447 
L 137.626705 79.123207 
L 138.133977 56.757779 
L 138.64125 79.376052 
L 139.148523 75.77502 
L 139.655795 114.561638 
L 140.163068 69.63816 
L 140.670341 79.440911 
L 141.177614 143.879991 
L 141.684886 68.420186 
L 142.192159 91.75449 
L 142.699432 98.16357 
L 143.206705 60.112358 
L 143.713977 78.346585 
L 144.22125 67.09361 
L 144.728523 60.444143 
L 145.235795 58.588513 
L 145.743068 95.265702 
L 146.250341 55.344909 
L 146.757614 61.697056 
L 147.264886 72.01429 
L 147.772159 71.999767 
L 148.786705 45.119371 
L 149.293977 66.947747 
L 149.80125 60.403354 
L 150.308523 67.584869 
L 150.815795 42.3939 
L 151.323068 53.941297 
L 151.830341 88.796424 
L 152.337614 45.624099 
L 152.844886 36.128855 
L 153.352159 48.662812 
L 153.859432 51.250926 
L 154.366705 77.033129 
L 154.873977 42.885731 
L 155.38125 63.5339 
L 155.888523 50.493978 
L 156.395795 65.373365 
L 156.903068 67.999611 
L 157.410341 42.74053 
L 157.917614 34.414125 
L 158.424886 101.714518 
L 158.932159 61.343043 
L 159.439432 44.39253 
L 159.946705 100.678664 
L 160.453977 47.045956 
L 160.96125 86.993253 
L 161.468523 76.162164 
L 161.975795 95.384276 
L 162.483068 47.540752 
L 162.990341 42.068679 
L 163.497614 96.308953 
L 164.004886 35.974315 
L 164.512159 57.672742 
L 165.019432 87.650918 
L 165.526705 53.42998 
L 166.033977 48.121718 
L 166.54125 71.795652 
L 167.048523 66.548947 
L 167.555795 54.249269 
L 168.063068 63.02026 
L 168.570341 55.449642 
L 169.077614 56.670554 
L 169.584886 52.130231 
L 170.092159 36.729083 
L 170.599432 45.528528 
L 171.106705 96.009833 
L 171.613977 100.236962 
L 172.12125 58.08651 
L 172.628523 45.835318 
L 173.135795 93.775222 
L 174.150341 71.204513 
L 174.657614 70.750104 
L 175.164886 68.011563 
L 175.672159 83.027383 
L 176.179432 57.95511 
L 176.686705 76.269521 
L 177.193977 81.172595 
L 177.70125 45.729839 
L 178.208523 58.807069 
L 178.715795 45.526709 
L 179.223068 62.252054 
L 179.730341 37.76381 
L 180.237614 130.516069 
L 180.744886 60.096661 
L 181.252159 109.745085 
L 181.759432 41.159469 
L 182.266705 105.092623 
L 182.773977 55.51581 
L 183.28125 76.938161 
L 183.788523 48.069304 
L 184.803068 72.144912 
L 185.310341 46.452697 
L 185.817614 46.153825 
L 186.324886 72.298732 
L 186.832159 64.432981 
L 187.339432 82.591329 
L 187.846705 59.011563 
L 188.353977 90.521438 
L 188.86125 80.769836 
L 189.368523 57.660065 
L 189.875795 91.68706 
L 190.383068 104.160082 
L 190.890341 48.405203 
L 191.397614 61.888271 
L 191.904886 56.17928 
L 192.412159 60.526953 
L 192.919432 70.038938 
L 193.426705 55.755813 
L 193.933977 53.835522 
L 194.44125 92.726785 
L 194.948523 54.194263 
L 195.455795 67.668854 
L 195.963068 66.016826 
L 196.470341 69.488116 
L 196.977614 57.396631 
L 197.484886 61.545457 
L 197.992159 53.956066 
L 199.006705 64.865858 
L 199.513977 55.422322 
L 200.02125 60.816904 
L 200.528523 81.555209 
L 201.035795 65.19413 
L 201.543068 63.127805 
L 202.050341 54.254269 
L 202.557614 68.926678 
L 203.064886 59.459488 
L 203.572159 58.67978 
L 204.079432 106.092908 
L 204.586705 74.768027 
L 205.093977 78.646236 
L 205.60125 66.202405 
L 206.108523 108.198212 
L 206.615795 68.094902 
L 207.123068 80.660964 
L 207.630341 53.921593 
L 208.137614 54.888502 
L 208.644886 85.295107 
L 209.152159 81.863062 
L 209.659432 80.525036 
L 210.166705 92.034702 
L 210.673977 75.445748 
L 211.18125 99.676378 
L 211.688523 65.209693 
L 212.195795 116.846617 
L 212.703068 65.029731 
L 213.210341 69.347317 
L 213.717614 91.697934 
L 214.224886 72.580252 
L 214.732159 76.65261 
L 215.239432 79.741634 
L 215.746705 65.342989 
L 216.253977 80.399011 
L 216.76125 67.588957 
L 217.268523 75.194328 
L 217.775795 89.609088 
L 218.283068 72.729103 
L 218.790341 74.699687 
L 219.297614 69.680873 
L 219.804886 74.145975 
L 220.312159 62.090236 
L 220.819432 70.869123 
L 221.326705 85.177082 
L 221.833977 70.714871 
L 222.34125 83.547759 
L 222.848523 73.03724 
L 223.355795 80.370969 
L 223.863068 84.605739 
L 224.370341 75.937752 
L 224.877614 78.329729 
L 225.384886 66.611695 
L 225.892159 71.676905 
L 226.399432 81.339186 
L 226.906705 73.57437 
L 227.413977 76.957189 
L 227.92125 77.147398 
L 228.935795 69.183709 
L 229.443068 60.620572 
L 229.950341 78.918326 
L 230.457614 76.507809 
L 230.964886 75.115705 
L 231.472159 80.921203 
L 231.979432 80.174103 
L 232.486705 82.437536 
L 232.993977 78.122988 
L 233.50125 111.563822 
L 234.008523 78.362748 
L 234.515795 89.784316 
L 235.023068 68.085143 
L 235.530341 78.985701 
L 236.037614 77.425724 
L 236.544886 67.327145 
L 237.052159 82.358719 
L 237.559432 69.210812 
L 238.573977 75.561367 
L 239.08125 106.89565 
L 239.588523 91.950544 
L 240.095795 85.959568 
L 240.603068 95.709119 
L 241.110341 84.768424 
L 241.617614 89.112814 
L 242.124886 78.077411 
L 242.632159 70.170595 
L 243.139432 87.605109 
L 243.646705 79.939551 
L 244.153977 77.853477 
L 244.66125 83.298534 
L 245.168523 92.215374 
L 245.675795 76.326143 
L 246.183068 95.884663 
L 246.690341 73.793874 
L 247.197614 82.323332 
L 247.704886 81.98788 
L 248.212159 133.379388 
L 248.719432 84.135494 
L 249.226705 78.047391 
L 249.733977 93.18353 
L 250.24125 88.432819 
L 250.748523 86.177828 
L 251.255795 85.99667 
L 251.763068 98.479527 
L 252.270341 82.98567 
L 252.777614 94.882296 
L 253.284886 92.521864 
L 253.792159 105.078516 
L 254.299432 97.176065 
L 254.806705 75.297197 
L 255.82125 88.021074 
L 256.328523 86.938375 
L 256.835795 83.243751 
L 257.343068 177.146696 
L 257.850341 96.878818 
L 258.357614 118.524739 
L 258.864886 79.573842 
L 259.372159 88.889856 
L 259.879432 110.270786 
L 260.386705 158.72599 
L 260.893977 92.810016 
L 261.40125 100.335124 
L 261.908523 98.325669 
L 262.415795 87.780944 
L 262.923068 82.284427 
L 263.430341 87.952181 
L 263.937614 87.898107 
L 264.444886 74.522781 
L 264.952159 105.126785 
L 265.459432 107.902988 
L 265.966705 108.417545 
L 266.473977 90.783258 
L 266.98125 98.943752 
L 267.488523 113.486645 
L 267.995795 88.548609 
L 268.503068 97.0531 
L 269.010341 156.074877 
L 269.517614 90.205322 
L 270.024886 103.575311 
L 270.532159 92.251169 
L 271.039432 217.35935 
L 271.546705 110.899578 
L 272.053977 88.1588 
L 272.56125 88.230753 
L 273.068523 106.307729 
L 273.575795 97.80627 
L 274.083068 87.292272 
L 274.590341 88.251103 
L 275.097614 112.193958 
L 275.604886 79.23912 
L 276.112159 89.79944 
L 276.619432 117.507395 
L 277.126705 185.655782 
L 277.633977 90.636741 
L 278.14125 85.223008 
L 278.648523 114.803583 
L 279.155795 99.266525 
L 279.663068 115.330358 
L 280.170341 115.388524 
L 280.677614 107.234034 
L 281.184886 244.963667 
L 281.692159 95.969503 
L 282.199432 95.584675 
L 282.706705 95.895657 
L 283.213977 92.631865 
L 283.72125 131.3894 
L 284.228523 125.778481 
L 284.735795 113.535777 
L 285.243068 113.852985 
L 285.750341 123.797971 
L 286.257614 96.851211 
L 286.764886 128.931687 
L 287.272159 93.598178 
L 287.779432 107.249304 
L 288.286705 106.695004 
L 288.793977 112.186145 
L 289.30125 90.420824 
L 289.808523 96.714864 
L 290.315795 96.343375 
L 290.823068 115.986445 
L 291.330341 108.793977 
L 291.837614 90.524924 
L 292.344886 218.025977 
L 292.852159 96.719602 
L 293.359432 88.588738 
L 293.866705 100.560644 
L 294.373977 109.119324 
L 294.88125 115.446543 
L 295.388523 117.58107 
L 295.895795 90.402509 
L 296.403068 118.622306 
L 296.910341 231.899656 
L 297.417614 96.734492 
L 297.924886 102.496183 
L 298.432159 100.834512 
L 298.939432 103.317307 
L 299.446705 233.151094 
L 299.953977 101.75915 
L 300.46125 121.864023 
L 300.968523 102.084127 
L 301.983068 96.250417 
L 302.490341 105.934737 
L 302.997614 238.803776 
L 303.504886 109.804744 
L 304.012159 116.78718 
L 304.519432 97.413468 
L 305.026705 104.046336 
L 305.533977 101.944903 
L 306.04125 101.512152 
L 306.548523 101.790701 
L 307.055795 107.030353 
L 307.563068 136.741309 
L 308.577614 100.470627 
L 309.084886 126.873151 
L 309.592159 128.362215 
L 310.099432 112.147652 
L 310.606705 102.291449 
L 311.113977 143.111213 
L 311.62125 98.407462 
L 312.128523 102.323909 
L 312.635795 100.659929 
L 313.143068 124.139165 
L 313.650341 118.747597 
L 314.157614 102.000595 
L 314.664886 111.040339 
L 315.172159 100.511694 
L 315.679432 105.172314 
L 316.186705 120.836622 
L 316.693977 107.016789 
L 317.20125 149.067234 
L 317.708523 118.542733 
L 318.723068 91.591716 
L 319.230341 106.216865 
L 319.737614 161.653706 
L 320.244886 97.864201 
L 320.752159 112.791023 
L 321.259432 110.193746 
L 321.766705 112.691632 
L 322.273977 103.243584 
L 322.78125 109.736669 
L 323.288523 97.876118 
L 323.795795 119.599333 
L 324.303068 106.412386 
L 324.810341 105.725697 
L 325.317614 112.511972 
L 325.824886 101.612603 
L 326.332159 105.92507 
L 326.839432 105.378879 
L 327.346705 107.3466 
L 327.853977 114.526991 
L 328.36125 119.088925 
L 328.868523 104.561985 
L 329.375795 111.582292 
L 329.883068 120.259833 
L 330.390341 100.370483 
L 330.897614 105.129519 
L 331.404886 139.761783 
L 331.912159 107.936165 
L 332.419432 170.112794 
L 332.926705 100.640294 
L 333.433977 108.677197 
L 333.94125 107.882731 
L 334.448523 122.573413 
L 334.955795 108.69585 
L 335.463068 140.707406 
L 335.970341 108.298008 
L 336.477614 96.951366 
L 337.492159 132.891129 
L 338.506705 108.071919 
L 339.013977 109.127671 
L 339.52125 136.831625 
L 340.028523 111.898038 
L 340.535795 121.846682 
L 341.043068 162.340857 
L 341.550341 107.220376 
L 342.057614 103.94472 
L 342.564886 113.941773 
L 343.072159 117.494292 
L 343.579432 98.888331 
L 344.086705 114.63667 
L 344.593977 116.946831 
L 345.10125 128.611386 
L 345.608523 122.720237 
L 346.115795 123.714916 
L 346.623068 115.154338 
L 347.130341 115.179469 
L 347.637614 115.684236 
L 348.144886 118.096373 
L 348.652159 112.7501 
L 349.159432 204.64086 
L 349.666705 103.759228 
L 350.173977 121.665681 
L 350.68125 122.133748 
L 351.188523 104.928049 
L 351.695795 102.970022 
L 352.203068 126.019296 
L 352.710341 134.928723 
L 353.217614 113.596491 
L 353.724886 107.270051 
L 354.232159 130.354149 
L 354.739432 106.395186 
L 355.246705 121.064265 
L 355.753977 110.407041 
L 356.768523 122.023223 
L 357.275795 111.970338 
L 357.783068 119.557404 
L 358.290341 108.51891 
L 358.797614 129.174521 
L 359.304886 104.029061 
L 359.812159 110.596078 
L 360.319432 126.60027 
L 360.826705 114.67765 
L 361.333977 196.439364 
L 361.84125 107.880571 
L 362.348523 186.834559 
L 362.855795 111.815836 
L 363.363068 125.072944 
L 363.870341 117.882018 
L 364.377614 112.791511 
L 364.884886 112.280076 
L 365.392159 113.696817 
L 365.899432 127.152024 
L 366.406705 222.167067 
L 366.913977 133.189557 
L 367.42125 119.660152 
L 367.928523 124.511458 
L 368.435795 113.504006 
L 368.943068 117.569382 
L 369.450341 113.635475 
L 369.957614 130.365434 
L 370.464886 118.158914 
L 370.972159 127.790183 
L 371.479432 119.211285 
L 371.986705 127.665634 
L 372.493977 112.986395 
L 373.00125 132.502432 
L 373.508523 119.56247 
L 374.015795 118.202929 
L 374.523068 122.904227 
L 375.030341 107.977163 
L 375.537614 151.830829 
L 376.044886 128.024547 
L 376.552159 118.039719 
L 377.059432 112.197037 
L 377.566705 123.426328 
L 378.073977 120.972894 
L 378.58125 120.753943 
L 379.088523 114.248657 
L 379.595795 115.207834 
L 380.103068 116.944396 
L 380.610341 124.962717 
L 381.117614 121.756916 
L 381.624886 169.197784 
L 382.132159 119.980997 
L 382.639432 131.063343 
L 383.146705 120.457492 
L 384.16125 125.530547 
L 384.668523 125.486476 
L 384.668523 125.486476 
" style="fill:none;stroke:#1f77b4;stroke-linecap:square;stroke-width:0.5;"/>
   </g>
   <g id="patch_3">
    <path d="M 43.78125 288.430125 
L 43.78125 22.318125 
" style="fill:none;stroke:#000000;stroke-linecap:square;stroke-linejoin:miter;stroke-width:0.8;"/>
   </g>
   <g id="patch_4">
    <path d="M 400.90125 288.430125 
L 400.90125 22.318125 
" style="fill:none;stroke:#000000;stroke-linecap:square;stroke-linejoin:miter;stroke-width:0.8;"/>
   </g>
   <g id="patch_5">
    <path d="M 43.78125 288.430125 
L 400.90125 288.430125 
" style="fill:none;stroke:#000000;stroke-linecap:square;stroke-linejoin:miter;stroke-width:0.8;"/>
   </g>
   <g id="patch_6">
    <path d="M 43.78125 22.318125 
L 400.90125 22.318125 
" style="fill:none;stroke:#000000;stroke-linecap:square;stroke-linejoin:miter;stroke-width:0.8;"/>
   </g>
   <g id="text_18">
    <!-- Average maxQ per episode, joint3 -->
    <defs>
     <path d="M 34.1875 63.1875 
L 20.796875 26.90625 
L 47.609375 26.90625 
z
M 28.609375 72.90625 
L 39.796875 72.90625 
L 67.578125 0 
L 57.328125 0 
L 50.6875 18.703125 
L 17.828125 18.703125 
L 11.1875 0 
L 0.78125 0 
z
" id="DejaVuSans-41"/>
     <path d="M 11.71875 12.40625 
L 22.015625 12.40625 
L 22.015625 4 
L 14.015625 -11.625 
L 7.71875 -11.625 
L 11.71875 4 
z
" id="DejaVuSans-2c"/>
     <path d="M 9.421875 54.6875 
L 18.40625 54.6875 
L 18.40625 -0.984375 
Q 18.40625 -11.421875 14.421875 -16.109375 
Q 10.453125 -20.796875 1.609375 -20.796875 
L -1.8125 -20.796875 
L -1.8125 -13.1875 
L 0.59375 -13.1875 
Q 5.71875 -13.1875 7.5625 -10.8125 
Q 9.421875 -8.453125 9.421875 -0.984375 
z
M 9.421875 75.984375 
L 18.40625 75.984375 
L 18.40625 64.59375 
L 9.421875 64.59375 
z
" id="DejaVuSans-6a"/>
     <path d="M 54.890625 33.015625 
L 54.890625 0 
L 45.90625 0 
L 45.90625 32.71875 
Q 45.90625 40.484375 42.875 44.328125 
Q 39.84375 48.1875 33.796875 48.1875 
Q 26.515625 48.1875 22.3125 43.546875 
Q 18.109375 38.921875 18.109375 30.90625 
L 18.109375 0 
L 9.078125 0 
L 9.078125 54.6875 
L 18.109375 54.6875 
L 18.109375 46.1875 
Q 21.34375 51.125 25.703125 53.5625 
Q 30.078125 56 35.796875 56 
Q 45.21875 56 50.046875 50.171875 
Q 54.890625 44.34375 54.890625 33.015625 
z
" id="DejaVuSans-6e"/>
     <path d="M 18.3125 70.21875 
L 18.3125 54.6875 
L 36.8125 54.6875 
L 36.8125 47.703125 
L 18.3125 47.703125 
L 18.3125 18.015625 
Q 18.3125 11.328125 20.140625 9.421875 
Q 21.96875 7.515625 27.59375 7.515625 
L 36.8125 7.515625 
L 36.8125 0 
L 27.59375 0 
Q 17.1875 0 13.234375 3.875 
Q 9.28125 7.765625 9.28125 18.015625 
L 9.28125 47.703125 
L 2.6875 47.703125 
L 2.6875 54.6875 
L 9.28125 54.6875 
L 9.28125 70.21875 
z
" id="DejaVuSans-74"/>
    </defs>
    <g transform="translate(119.61375 16.318125)scale(0.12 -0.12)">
     <use xlink:href="#DejaVuSans-41"/>
     <use x="68.330078" xlink:href="#DejaVuSans-76"/>
     <use x="127.509766" xlink:href="#DejaVuSans-65"/>
     <use x="189.033203" xlink:href="#DejaVuSans-72"/>
     <use x="230.146484" xlink:href="#DejaVuSans-61"/>
     <use x="291.425781" xlink:href="#DejaVuSans-67"/>
     <use x="354.902344" xlink:href="#DejaVuSans-65"/>
     <use x="416.425781" xlink:href="#DejaVuSans-20"/>
     <use x="448.212891" xlink:href="#DejaVuSans-6d"/>
     <use x="545.625" xlink:href="#DejaVuSans-61"/>
     <use x="606.904297" xlink:href="#DejaVuSans-78"/>
     <use x="666.083984" xlink:href="#DejaVuSans-51"/>
     <use x="744.794922" xlink:href="#DejaVuSans-20"/>
     <use x="776.582031" xlink:href="#DejaVuSans-70"/>
     <use x="840.058594" xlink:href="#DejaVuSans-65"/>
     <use x="901.582031" xlink:href="#DejaVuSans-72"/>
     <use x="942.695312" xlink:href="#DejaVuSans-20"/>
     <use x="974.482422" xlink:href="#DejaVuSans-65"/>
     <use x="1036.005859" xlink:href="#DejaVuSans-70"/>
     <use x="1099.482422" xlink:href="#DejaVuSans-69"/>
     <use x="1127.265625" xlink:href="#DejaVuSans-73"/>
     <use x="1179.365234" xlink:href="#DejaVuSans-6f"/>
     <use x="1240.546875" xlink:href="#DejaVuSans-64"/>
     <use x="1304.023438" xlink:href="#DejaVuSans-65"/>
     <use x="1365.546875" xlink:href="#DejaVuSans-2c"/>
     <use x="1397.333984" xlink:href="#DejaVuSans-20"/>
     <use x="1429.121094" xlink:href="#DejaVuSans-6a"/>
     <use x="1456.904297" xlink:href="#DejaVuSans-6f"/>
     <use x="1518.085938" xlink:href="#DejaVuSans-69"/>
     <use x="1545.869141" xlink:href="#DejaVuSans-6e"/>
     <use x="1609.248047" xlink:href="#DejaVuSans-74"/>
     <use x="1648.457031" xlink:href="#DejaVuSans-33"/>
    </g>
   </g>
  </g>
 </g>
 <defs>
  <clipPath id="pb4631e5a60">
   <rect height="266.112" width="357.12" x="43.78125" y="22.318125"/>
  </clipPath>
 </defs>
</svg>
