<?xml version="1.0" encoding="utf-8" standalone="no"?>
<!DOCTYPE svg PUBLIC "-//W3C//DTD SVG 1.1//EN"
  "http://www.w3.org/Graphics/SVG/1.1/DTD/svg11.dtd">
<!-- Created with matplotlib (http://matplotlib.org/) -->
<svg height="325pt" version="1.1" viewBox="0 0 411 325" width="411pt" xmlns="http://www.w3.org/2000/svg" xmlns:xlink="http://www.w3.org/1999/xlink">
 <defs>
  <style type="text/css">
*{stroke-linecap:butt;stroke-linejoin:round;}
  </style>
 </defs>
 <g id="figure_1">
  <g id="patch_1">
   <path d="M 0 325.986375 
L 411.60125 325.986375 
L 411.60125 0 
L 0 0 
z
" style="fill:#ffffff;"/>
  </g>
  <g id="axes_1">
   <g id="patch_2">
    <path d="M 43.78125 288.430125 
L 400.90125 288.430125 
L 400.90125 22.318125 
L 43.78125 22.318125 
z
" style="fill:#ffffff;"/>
   </g>
   <g id="matplotlib.axis_1">
    <g id="xtick_1">
     <g id="line2d_1">
      <defs>
       <path d="M 0 0 
L 0 3.5 
" id="m2b69b52185" style="stroke:#000000;stroke-width:0.8;"/>
      </defs>
      <g>
       <use style="stroke:#000000;stroke-width:0.8;" x="59.506705" xlink:href="#m2b69b52185" y="288.430125"/>
      </g>
     </g>
     <g id="text_1">
      <!-- 0 -->
      <defs>
       <path d="M 31.78125 66.40625 
Q 24.171875 66.40625 20.328125 58.90625 
Q 16.5 51.421875 16.5 36.375 
Q 16.5 21.390625 20.328125 13.890625 
Q 24.171875 6.390625 31.78125 6.390625 
Q 39.453125 6.390625 43.28125 13.890625 
Q 47.125 21.390625 47.125 36.375 
Q 47.125 51.421875 43.28125 58.90625 
Q 39.453125 66.40625 31.78125 66.40625 
z
M 31.78125 74.21875 
Q 44.046875 74.21875 50.515625 64.515625 
Q 56.984375 54.828125 56.984375 36.375 
Q 56.984375 17.96875 50.515625 8.265625 
Q 44.046875 -1.421875 31.78125 -1.421875 
Q 19.53125 -1.421875 13.0625 8.265625 
Q 6.59375 17.96875 6.59375 36.375 
Q 6.59375 54.828125 13.0625 64.515625 
Q 19.53125 74.21875 31.78125 74.21875 
z
" id="DejaVuSans-30"/>
      </defs>
      <g transform="translate(56.325455 303.028562)scale(0.1 -0.1)">
       <use xlink:href="#DejaVuSans-30"/>
      </g>
     </g>
    </g>
    <g id="xtick_2">
     <g id="line2d_2">
      <g>
       <use style="stroke:#000000;stroke-width:0.8;" x="110.233977" xlink:href="#m2b69b52185" y="288.430125"/>
      </g>
     </g>
     <g id="text_2">
      <!-- 100 -->
      <defs>
       <path d="M 12.40625 8.296875 
L 28.515625 8.296875 
L 28.515625 63.921875 
L 10.984375 60.40625 
L 10.984375 69.390625 
L 28.421875 72.90625 
L 38.28125 72.90625 
L 38.28125 8.296875 
L 54.390625 8.296875 
L 54.390625 0 
L 12.40625 0 
z
" id="DejaVuSans-31"/>
      </defs>
      <g transform="translate(100.690227 303.028562)scale(0.1 -0.1)">
       <use xlink:href="#DejaVuSans-31"/>
       <use x="63.623047" xlink:href="#DejaVuSans-30"/>
       <use x="127.246094" xlink:href="#DejaVuSans-30"/>
      </g>
     </g>
    </g>
    <g id="xtick_3">
     <g id="line2d_3">
      <g>
       <use style="stroke:#000000;stroke-width:0.8;" x="160.96125" xlink:href="#m2b69b52185" y="288.430125"/>
      </g>
     </g>
     <g id="text_3">
      <!-- 200 -->
      <defs>
       <path d="M 19.1875 8.296875 
L 53.609375 8.296875 
L 53.609375 0 
L 7.328125 0 
L 7.328125 8.296875 
Q 12.9375 14.109375 22.625 23.890625 
Q 32.328125 33.6875 34.8125 36.53125 
Q 39.546875 41.84375 41.421875 45.53125 
Q 43.3125 49.21875 43.3125 52.78125 
Q 43.3125 58.59375 39.234375 62.25 
Q 35.15625 65.921875 28.609375 65.921875 
Q 23.96875 65.921875 18.8125 64.3125 
Q 13.671875 62.703125 7.8125 59.421875 
L 7.8125 69.390625 
Q 13.765625 71.78125 18.9375 73 
Q 24.125 74.21875 28.421875 74.21875 
Q 39.75 74.21875 46.484375 68.546875 
Q 53.21875 62.890625 53.21875 53.421875 
Q 53.21875 48.921875 51.53125 44.890625 
Q 49.859375 40.875 45.40625 35.40625 
Q 44.1875 33.984375 37.640625 27.21875 
Q 31.109375 20.453125 19.1875 8.296875 
z
" id="DejaVuSans-32"/>
      </defs>
      <g transform="translate(151.4175 303.028562)scale(0.1 -0.1)">
       <use xlink:href="#DejaVuSans-32"/>
       <use x="63.623047" xlink:href="#DejaVuSans-30"/>
       <use x="127.246094" xlink:href="#DejaVuSans-30"/>
      </g>
     </g>
    </g>
    <g id="xtick_4">
     <g id="line2d_4">
      <g>
       <use style="stroke:#000000;stroke-width:0.8;" x="211.688523" xlink:href="#m2b69b52185" y="288.430125"/>
      </g>
     </g>
     <g id="text_4">
      <!-- 300 -->
      <defs>
       <path d="M 40.578125 39.3125 
Q 47.65625 37.796875 51.625 33 
Q 55.609375 28.21875 55.609375 21.1875 
Q 55.609375 10.40625 48.1875 4.484375 
Q 40.765625 -1.421875 27.09375 -1.421875 
Q 22.515625 -1.421875 17.65625 -0.515625 
Q 12.796875 0.390625 7.625 2.203125 
L 7.625 11.71875 
Q 11.71875 9.328125 16.59375 8.109375 
Q 21.484375 6.890625 26.8125 6.890625 
Q 36.078125 6.890625 40.9375 10.546875 
Q 45.796875 14.203125 45.796875 21.1875 
Q 45.796875 27.640625 41.28125 31.265625 
Q 36.765625 34.90625 28.71875 34.90625 
L 20.21875 34.90625 
L 20.21875 43.015625 
L 29.109375 43.015625 
Q 36.375 43.015625 40.234375 45.921875 
Q 44.09375 48.828125 44.09375 54.296875 
Q 44.09375 59.90625 40.109375 62.90625 
Q 36.140625 65.921875 28.71875 65.921875 
Q 24.65625 65.921875 20.015625 65.03125 
Q 15.375 64.15625 9.8125 62.3125 
L 9.8125 71.09375 
Q 15.4375 72.65625 20.34375 73.4375 
Q 25.25 74.21875 29.59375 74.21875 
Q 40.828125 74.21875 47.359375 69.109375 
Q 53.90625 64.015625 53.90625 55.328125 
Q 53.90625 49.265625 50.4375 45.09375 
Q 46.96875 40.921875 40.578125 39.3125 
z
" id="DejaVuSans-33"/>
      </defs>
      <g transform="translate(202.144773 303.028562)scale(0.1 -0.1)">
       <use xlink:href="#DejaVuSans-33"/>
       <use x="63.623047" xlink:href="#DejaVuSans-30"/>
       <use x="127.246094" xlink:href="#DejaVuSans-30"/>
      </g>
     </g>
    </g>
    <g id="xtick_5">
     <g id="line2d_5">
      <g>
       <use style="stroke:#000000;stroke-width:0.8;" x="262.415795" xlink:href="#m2b69b52185" y="288.430125"/>
      </g>
     </g>
     <g id="text_5">
      <!-- 400 -->
      <defs>
       <path d="M 37.796875 64.3125 
L 12.890625 25.390625 
L 37.796875 25.390625 
z
M 35.203125 72.90625 
L 47.609375 72.90625 
L 47.609375 25.390625 
L 58.015625 25.390625 
L 58.015625 17.1875 
L 47.609375 17.1875 
L 47.609375 0 
L 37.796875 0 
L 37.796875 17.1875 
L 4.890625 17.1875 
L 4.890625 26.703125 
z
" id="DejaVuSans-34"/>
      </defs>
      <g transform="translate(252.872045 303.028562)scale(0.1 -0.1)">
       <use xlink:href="#DejaVuSans-34"/>
       <use x="63.623047" xlink:href="#DejaVuSans-30"/>
       <use x="127.246094" xlink:href="#DejaVuSans-30"/>
      </g>
     </g>
    </g>
    <g id="xtick_6">
     <g id="line2d_6">
      <g>
       <use style="stroke:#000000;stroke-width:0.8;" x="313.143068" xlink:href="#m2b69b52185" y="288.430125"/>
      </g>
     </g>
     <g id="text_6">
      <!-- 500 -->
      <defs>
       <path d="M 10.796875 72.90625 
L 49.515625 72.90625 
L 49.515625 64.59375 
L 19.828125 64.59375 
L 19.828125 46.734375 
Q 21.96875 47.46875 24.109375 47.828125 
Q 26.265625 48.1875 28.421875 48.1875 
Q 40.625 48.1875 47.75 41.5 
Q 54.890625 34.8125 54.890625 23.390625 
Q 54.890625 11.625 47.5625 5.09375 
Q 40.234375 -1.421875 26.90625 -1.421875 
Q 22.3125 -1.421875 17.546875 -0.640625 
Q 12.796875 0.140625 7.71875 1.703125 
L 7.71875 11.625 
Q 12.109375 9.234375 16.796875 8.0625 
Q 21.484375 6.890625 26.703125 6.890625 
Q 35.15625 6.890625 40.078125 11.328125 
Q 45.015625 15.765625 45.015625 23.390625 
Q 45.015625 31 40.078125 35.4375 
Q 35.15625 39.890625 26.703125 39.890625 
Q 22.75 39.890625 18.8125 39.015625 
Q 14.890625 38.140625 10.796875 36.28125 
z
" id="DejaVuSans-35"/>
      </defs>
      <g transform="translate(303.599318 303.028562)scale(0.1 -0.1)">
       <use xlink:href="#DejaVuSans-35"/>
       <use x="63.623047" xlink:href="#DejaVuSans-30"/>
       <use x="127.246094" xlink:href="#DejaVuSans-30"/>
      </g>
     </g>
    </g>
    <g id="xtick_7">
     <g id="line2d_7">
      <g>
       <use style="stroke:#000000;stroke-width:0.8;" x="363.870341" xlink:href="#m2b69b52185" y="288.430125"/>
      </g>
     </g>
     <g id="text_7">
      <!-- 600 -->
      <defs>
       <path d="M 33.015625 40.375 
Q 26.375 40.375 22.484375 35.828125 
Q 18.609375 31.296875 18.609375 23.390625 
Q 18.609375 15.53125 22.484375 10.953125 
Q 26.375 6.390625 33.015625 6.390625 
Q 39.65625 6.390625 43.53125 10.953125 
Q 47.40625 15.53125 47.40625 23.390625 
Q 47.40625 31.296875 43.53125 35.828125 
Q 39.65625 40.375 33.015625 40.375 
z
M 52.59375 71.296875 
L 52.59375 62.3125 
Q 48.875 64.0625 45.09375 64.984375 
Q 41.3125 65.921875 37.59375 65.921875 
Q 27.828125 65.921875 22.671875 59.328125 
Q 17.53125 52.734375 16.796875 39.40625 
Q 19.671875 43.65625 24.015625 45.921875 
Q 28.375 48.1875 33.59375 48.1875 
Q 44.578125 48.1875 50.953125 41.515625 
Q 57.328125 34.859375 57.328125 23.390625 
Q 57.328125 12.15625 50.6875 5.359375 
Q 44.046875 -1.421875 33.015625 -1.421875 
Q 20.359375 -1.421875 13.671875 8.265625 
Q 6.984375 17.96875 6.984375 36.375 
Q 6.984375 53.65625 15.1875 63.9375 
Q 23.390625 74.21875 37.203125 74.21875 
Q 40.921875 74.21875 44.703125 73.484375 
Q 48.484375 72.75 52.59375 71.296875 
z
" id="DejaVuSans-36"/>
      </defs>
      <g transform="translate(354.326591 303.028562)scale(0.1 -0.1)">
       <use xlink:href="#DejaVuSans-36"/>
       <use x="63.623047" xlink:href="#DejaVuSans-30"/>
       <use x="127.246094" xlink:href="#DejaVuSans-30"/>
      </g>
     </g>
    </g>
    <g id="text_8">
     <!-- episodes -->
     <defs>
      <path d="M 56.203125 29.59375 
L 56.203125 25.203125 
L 14.890625 25.203125 
Q 15.484375 15.921875 20.484375 11.0625 
Q 25.484375 6.203125 34.421875 6.203125 
Q 39.59375 6.203125 44.453125 7.46875 
Q 49.3125 8.734375 54.109375 11.28125 
L 54.109375 2.78125 
Q 49.265625 0.734375 44.1875 -0.34375 
Q 39.109375 -1.421875 33.890625 -1.421875 
Q 20.796875 -1.421875 13.15625 6.1875 
Q 5.515625 13.8125 5.515625 26.8125 
Q 5.515625 40.234375 12.765625 48.109375 
Q 20.015625 56 32.328125 56 
Q 43.359375 56 49.78125 48.890625 
Q 56.203125 41.796875 56.203125 29.59375 
z
M 47.21875 32.234375 
Q 47.125 39.59375 43.09375 43.984375 
Q 39.0625 48.390625 32.421875 48.390625 
Q 24.90625 48.390625 20.390625 44.140625 
Q 15.875 39.890625 15.1875 32.171875 
z
" id="DejaVuSans-65"/>
      <path d="M 18.109375 8.203125 
L 18.109375 -20.796875 
L 9.078125 -20.796875 
L 9.078125 54.6875 
L 18.109375 54.6875 
L 18.109375 46.390625 
Q 20.953125 51.265625 25.265625 53.625 
Q 29.59375 56 35.59375 56 
Q 45.5625 56 51.78125 48.09375 
Q 58.015625 40.1875 58.015625 27.296875 
Q 58.015625 14.40625 51.78125 6.484375 
Q 45.5625 -1.421875 35.59375 -1.421875 
Q 29.59375 -1.421875 25.265625 0.953125 
Q 20.953125 3.328125 18.109375 8.203125 
z
M 48.6875 27.296875 
Q 48.6875 37.203125 44.609375 42.84375 
Q 40.53125 48.484375 33.40625 48.484375 
Q 26.265625 48.484375 22.1875 42.84375 
Q 18.109375 37.203125 18.109375 27.296875 
Q 18.109375 17.390625 22.1875 11.75 
Q 26.265625 6.109375 33.40625 6.109375 
Q 40.53125 6.109375 44.609375 11.75 
Q 48.6875 17.390625 48.6875 27.296875 
z
" id="DejaVuSans-70"/>
      <path d="M 9.421875 54.6875 
L 18.40625 54.6875 
L 18.40625 0 
L 9.421875 0 
z
M 9.421875 75.984375 
L 18.40625 75.984375 
L 18.40625 64.59375 
L 9.421875 64.59375 
z
" id="DejaVuSans-69"/>
      <path d="M 44.28125 53.078125 
L 44.28125 44.578125 
Q 40.484375 46.53125 36.375 47.5 
Q 32.28125 48.484375 27.875 48.484375 
Q 21.1875 48.484375 17.84375 46.4375 
Q 14.5 44.390625 14.5 40.28125 
Q 14.5 37.15625 16.890625 35.375 
Q 19.28125 33.59375 26.515625 31.984375 
L 29.59375 31.296875 
Q 39.15625 29.25 43.1875 25.515625 
Q 47.21875 21.78125 47.21875 15.09375 
Q 47.21875 7.46875 41.1875 3.015625 
Q 35.15625 -1.421875 24.609375 -1.421875 
Q 20.21875 -1.421875 15.453125 -0.5625 
Q 10.6875 0.296875 5.421875 2 
L 5.421875 11.28125 
Q 10.40625 8.6875 15.234375 7.390625 
Q 20.0625 6.109375 24.8125 6.109375 
Q 31.15625 6.109375 34.5625 8.28125 
Q 37.984375 10.453125 37.984375 14.40625 
Q 37.984375 18.0625 35.515625 20.015625 
Q 33.0625 21.96875 24.703125 23.78125 
L 21.578125 24.515625 
Q 13.234375 26.265625 9.515625 29.90625 
Q 5.8125 33.546875 5.8125 39.890625 
Q 5.8125 47.609375 11.28125 51.796875 
Q 16.75 56 26.8125 56 
Q 31.78125 56 36.171875 55.265625 
Q 40.578125 54.546875 44.28125 53.078125 
z
" id="DejaVuSans-73"/>
      <path d="M 30.609375 48.390625 
Q 23.390625 48.390625 19.1875 42.75 
Q 14.984375 37.109375 14.984375 27.296875 
Q 14.984375 17.484375 19.15625 11.84375 
Q 23.34375 6.203125 30.609375 6.203125 
Q 37.796875 6.203125 41.984375 11.859375 
Q 46.1875 17.53125 46.1875 27.296875 
Q 46.1875 37.015625 41.984375 42.703125 
Q 37.796875 48.390625 30.609375 48.390625 
z
M 30.609375 56 
Q 42.328125 56 49.015625 48.375 
Q 55.71875 40.765625 55.71875 27.296875 
Q 55.71875 13.875 49.015625 6.21875 
Q 42.328125 -1.421875 30.609375 -1.421875 
Q 18.84375 -1.421875 12.171875 6.21875 
Q 5.515625 13.875 5.515625 27.296875 
Q 5.515625 40.765625 12.171875 48.375 
Q 18.84375 56 30.609375 56 
z
" id="DejaVuSans-6f"/>
      <path d="M 45.40625 46.390625 
L 45.40625 75.984375 
L 54.390625 75.984375 
L 54.390625 0 
L 45.40625 0 
L 45.40625 8.203125 
Q 42.578125 3.328125 38.25 0.953125 
Q 33.9375 -1.421875 27.875 -1.421875 
Q 17.96875 -1.421875 11.734375 6.484375 
Q 5.515625 14.40625 5.515625 27.296875 
Q 5.515625 40.1875 11.734375 48.09375 
Q 17.96875 56 27.875 56 
Q 33.9375 56 38.25 53.625 
Q 42.578125 51.265625 45.40625 46.390625 
z
M 14.796875 27.296875 
Q 14.796875 17.390625 18.875 11.75 
Q 22.953125 6.109375 30.078125 6.109375 
Q 37.203125 6.109375 41.296875 11.75 
Q 45.40625 17.390625 45.40625 27.296875 
Q 45.40625 37.203125 41.296875 42.84375 
Q 37.203125 48.484375 30.078125 48.484375 
Q 22.953125 48.484375 18.875 42.84375 
Q 14.796875 37.203125 14.796875 27.296875 
z
" id="DejaVuSans-64"/>
     </defs>
     <g transform="translate(200.181875 316.706687)scale(0.1 -0.1)">
      <use xlink:href="#DejaVuSans-65"/>
      <use x="61.523438" xlink:href="#DejaVuSans-70"/>
      <use x="125" xlink:href="#DejaVuSans-69"/>
      <use x="152.783203" xlink:href="#DejaVuSans-73"/>
      <use x="204.882812" xlink:href="#DejaVuSans-6f"/>
      <use x="266.064453" xlink:href="#DejaVuSans-64"/>
      <use x="329.541016" xlink:href="#DejaVuSans-65"/>
      <use x="391.064453" xlink:href="#DejaVuSans-73"/>
     </g>
    </g>
   </g>
   <g id="matplotlib.axis_2">
    <g id="ytick_1">
     <g id="line2d_8">
      <defs>
       <path d="M 0 0 
L -3.5 0 
" id="m2a361e3158" style="stroke:#000000;stroke-width:0.8;"/>
      </defs>
      <g>
       <use style="stroke:#000000;stroke-width:0.8;" x="43.78125" xlink:href="#m2a361e3158" y="277.844967"/>
      </g>
     </g>
     <g id="text_9">
      <!-- 1.2 -->
      <defs>
       <path d="M 10.6875 12.40625 
L 21 12.40625 
L 21 0 
L 10.6875 0 
z
" id="DejaVuSans-2e"/>
      </defs>
      <g transform="translate(20.878125 281.644186)scale(0.1 -0.1)">
       <use xlink:href="#DejaVuSans-31"/>
       <use x="63.623047" xlink:href="#DejaVuSans-2e"/>
       <use x="95.410156" xlink:href="#DejaVuSans-32"/>
      </g>
     </g>
    </g>
    <g id="ytick_2">
     <g id="line2d_9">
      <g>
       <use style="stroke:#000000;stroke-width:0.8;" x="43.78125" xlink:href="#m2a361e3158" y="221.596597"/>
      </g>
     </g>
     <g id="text_10">
      <!-- 1.4 -->
      <g transform="translate(20.878125 225.395815)scale(0.1 -0.1)">
       <use xlink:href="#DejaVuSans-31"/>
       <use x="63.623047" xlink:href="#DejaVuSans-2e"/>
       <use x="95.410156" xlink:href="#DejaVuSans-34"/>
      </g>
     </g>
    </g>
    <g id="ytick_3">
     <g id="line2d_10">
      <g>
       <use style="stroke:#000000;stroke-width:0.8;" x="43.78125" xlink:href="#m2a361e3158" y="165.348226"/>
      </g>
     </g>
     <g id="text_11">
      <!-- 1.6 -->
      <g transform="translate(20.878125 169.147445)scale(0.1 -0.1)">
       <use xlink:href="#DejaVuSans-31"/>
       <use x="63.623047" xlink:href="#DejaVuSans-2e"/>
       <use x="95.410156" xlink:href="#DejaVuSans-36"/>
      </g>
     </g>
    </g>
    <g id="ytick_4">
     <g id="line2d_11">
      <g>
       <use style="stroke:#000000;stroke-width:0.8;" x="43.78125" xlink:href="#m2a361e3158" y="109.099856"/>
      </g>
     </g>
     <g id="text_12">
      <!-- 1.8 -->
      <defs>
       <path d="M 31.78125 34.625 
Q 24.75 34.625 20.71875 30.859375 
Q 16.703125 27.09375 16.703125 20.515625 
Q 16.703125 13.921875 20.71875 10.15625 
Q 24.75 6.390625 31.78125 6.390625 
Q 38.8125 6.390625 42.859375 10.171875 
Q 46.921875 13.96875 46.921875 20.515625 
Q 46.921875 27.09375 42.890625 30.859375 
Q 38.875 34.625 31.78125 34.625 
z
M 21.921875 38.8125 
Q 15.578125 40.375 12.03125 44.71875 
Q 8.5 49.078125 8.5 55.328125 
Q 8.5 64.0625 14.71875 69.140625 
Q 20.953125 74.21875 31.78125 74.21875 
Q 42.671875 74.21875 48.875 69.140625 
Q 55.078125 64.0625 55.078125 55.328125 
Q 55.078125 49.078125 51.53125 44.71875 
Q 48 40.375 41.703125 38.8125 
Q 48.828125 37.15625 52.796875 32.3125 
Q 56.78125 27.484375 56.78125 20.515625 
Q 56.78125 9.90625 50.3125 4.234375 
Q 43.84375 -1.421875 31.78125 -1.421875 
Q 19.734375 -1.421875 13.25 4.234375 
Q 6.78125 9.90625 6.78125 20.515625 
Q 6.78125 27.484375 10.78125 32.3125 
Q 14.796875 37.15625 21.921875 38.8125 
z
M 18.3125 54.390625 
Q 18.3125 48.734375 21.84375 45.5625 
Q 25.390625 42.390625 31.78125 42.390625 
Q 38.140625 42.390625 41.71875 45.5625 
Q 45.3125 48.734375 45.3125 54.390625 
Q 45.3125 60.0625 41.71875 63.234375 
Q 38.140625 66.40625 31.78125 66.40625 
Q 25.390625 66.40625 21.84375 63.234375 
Q 18.3125 60.0625 18.3125 54.390625 
z
" id="DejaVuSans-38"/>
      </defs>
      <g transform="translate(20.878125 112.899075)scale(0.1 -0.1)">
       <use xlink:href="#DejaVuSans-31"/>
       <use x="63.623047" xlink:href="#DejaVuSans-2e"/>
       <use x="95.410156" xlink:href="#DejaVuSans-38"/>
      </g>
     </g>
    </g>
    <g id="ytick_5">
     <g id="line2d_12">
      <g>
       <use style="stroke:#000000;stroke-width:0.8;" x="43.78125" xlink:href="#m2a361e3158" y="52.851486"/>
      </g>
     </g>
     <g id="text_13">
      <!-- 2.0 -->
      <g transform="translate(20.878125 56.650704)scale(0.1 -0.1)">
       <use xlink:href="#DejaVuSans-32"/>
       <use x="63.623047" xlink:href="#DejaVuSans-2e"/>
       <use x="95.410156" xlink:href="#DejaVuSans-30"/>
      </g>
     </g>
    </g>
    <g id="text_14">
     <!-- average maxQ -->
     <defs>
      <path d="M 34.28125 27.484375 
Q 23.390625 27.484375 19.1875 25 
Q 14.984375 22.515625 14.984375 16.5 
Q 14.984375 11.71875 18.140625 8.90625 
Q 21.296875 6.109375 26.703125 6.109375 
Q 34.1875 6.109375 38.703125 11.40625 
Q 43.21875 16.703125 43.21875 25.484375 
L 43.21875 27.484375 
z
M 52.203125 31.203125 
L 52.203125 0 
L 43.21875 0 
L 43.21875 8.296875 
Q 40.140625 3.328125 35.546875 0.953125 
Q 30.953125 -1.421875 24.3125 -1.421875 
Q 15.921875 -1.421875 10.953125 3.296875 
Q 6 8.015625 6 15.921875 
Q 6 25.140625 12.171875 29.828125 
Q 18.359375 34.515625 30.609375 34.515625 
L 43.21875 34.515625 
L 43.21875 35.40625 
Q 43.21875 41.609375 39.140625 45 
Q 35.0625 48.390625 27.6875 48.390625 
Q 23 48.390625 18.546875 47.265625 
Q 14.109375 46.140625 10.015625 43.890625 
L 10.015625 52.203125 
Q 14.9375 54.109375 19.578125 55.046875 
Q 24.21875 56 28.609375 56 
Q 40.484375 56 46.34375 49.84375 
Q 52.203125 43.703125 52.203125 31.203125 
z
" id="DejaVuSans-61"/>
      <path d="M 2.984375 54.6875 
L 12.5 54.6875 
L 29.59375 8.796875 
L 46.6875 54.6875 
L 56.203125 54.6875 
L 35.6875 0 
L 23.484375 0 
z
" id="DejaVuSans-76"/>
      <path d="M 41.109375 46.296875 
Q 39.59375 47.171875 37.8125 47.578125 
Q 36.03125 48 33.890625 48 
Q 26.265625 48 22.1875 43.046875 
Q 18.109375 38.09375 18.109375 28.8125 
L 18.109375 0 
L 9.078125 0 
L 9.078125 54.6875 
L 18.109375 54.6875 
L 18.109375 46.1875 
Q 20.953125 51.171875 25.484375 53.578125 
Q 30.03125 56 36.53125 56 
Q 37.453125 56 38.578125 55.875 
Q 39.703125 55.765625 41.0625 55.515625 
z
" id="DejaVuSans-72"/>
      <path d="M 45.40625 27.984375 
Q 45.40625 37.75 41.375 43.109375 
Q 37.359375 48.484375 30.078125 48.484375 
Q 22.859375 48.484375 18.828125 43.109375 
Q 14.796875 37.75 14.796875 27.984375 
Q 14.796875 18.265625 18.828125 12.890625 
Q 22.859375 7.515625 30.078125 7.515625 
Q 37.359375 7.515625 41.375 12.890625 
Q 45.40625 18.265625 45.40625 27.984375 
z
M 54.390625 6.78125 
Q 54.390625 -7.171875 48.1875 -13.984375 
Q 42 -20.796875 29.203125 -20.796875 
Q 24.46875 -20.796875 20.265625 -20.09375 
Q 16.0625 -19.390625 12.109375 -17.921875 
L 12.109375 -9.1875 
Q 16.0625 -11.328125 19.921875 -12.34375 
Q 23.78125 -13.375 27.78125 -13.375 
Q 36.625 -13.375 41.015625 -8.765625 
Q 45.40625 -4.15625 45.40625 5.171875 
L 45.40625 9.625 
Q 42.625 4.78125 38.28125 2.390625 
Q 33.9375 0 27.875 0 
Q 17.828125 0 11.671875 7.65625 
Q 5.515625 15.328125 5.515625 27.984375 
Q 5.515625 40.671875 11.671875 48.328125 
Q 17.828125 56 27.875 56 
Q 33.9375 56 38.28125 53.609375 
Q 42.625 51.21875 45.40625 46.390625 
L 45.40625 54.6875 
L 54.390625 54.6875 
z
" id="DejaVuSans-67"/>
      <path id="DejaVuSans-20"/>
      <path d="M 52 44.1875 
Q 55.375 50.25 60.0625 53.125 
Q 64.75 56 71.09375 56 
Q 79.640625 56 84.28125 50.015625 
Q 88.921875 44.046875 88.921875 33.015625 
L 88.921875 0 
L 79.890625 0 
L 79.890625 32.71875 
Q 79.890625 40.578125 77.09375 44.375 
Q 74.3125 48.1875 68.609375 48.1875 
Q 61.625 48.1875 57.5625 43.546875 
Q 53.515625 38.921875 53.515625 30.90625 
L 53.515625 0 
L 44.484375 0 
L 44.484375 32.71875 
Q 44.484375 40.625 41.703125 44.40625 
Q 38.921875 48.1875 33.109375 48.1875 
Q 26.21875 48.1875 22.15625 43.53125 
Q 18.109375 38.875 18.109375 30.90625 
L 18.109375 0 
L 9.078125 0 
L 9.078125 54.6875 
L 18.109375 54.6875 
L 18.109375 46.1875 
Q 21.1875 51.21875 25.484375 53.609375 
Q 29.78125 56 35.6875 56 
Q 41.65625 56 45.828125 52.96875 
Q 50 49.953125 52 44.1875 
z
" id="DejaVuSans-6d"/>
      <path d="M 54.890625 54.6875 
L 35.109375 28.078125 
L 55.90625 0 
L 45.3125 0 
L 29.390625 21.484375 
L 13.484375 0 
L 2.875 0 
L 24.125 28.609375 
L 4.6875 54.6875 
L 15.28125 54.6875 
L 29.78125 35.203125 
L 44.28125 54.6875 
z
" id="DejaVuSans-78"/>
      <path d="M 39.40625 66.21875 
Q 28.65625 66.21875 22.328125 58.203125 
Q 16.015625 50.203125 16.015625 36.375 
Q 16.015625 22.609375 22.328125 14.59375 
Q 28.65625 6.59375 39.40625 6.59375 
Q 50.140625 6.59375 56.421875 14.59375 
Q 62.703125 22.609375 62.703125 36.375 
Q 62.703125 50.203125 56.421875 58.203125 
Q 50.140625 66.21875 39.40625 66.21875 
z
M 53.21875 1.3125 
L 66.21875 -12.890625 
L 54.296875 -12.890625 
L 43.5 -1.21875 
Q 41.890625 -1.3125 41.03125 -1.359375 
Q 40.1875 -1.421875 39.40625 -1.421875 
Q 24.03125 -1.421875 14.8125 8.859375 
Q 5.609375 19.140625 5.609375 36.375 
Q 5.609375 53.65625 14.8125 63.9375 
Q 24.03125 74.21875 39.40625 74.21875 
Q 54.734375 74.21875 63.90625 63.9375 
Q 73.09375 53.65625 73.09375 36.375 
Q 73.09375 23.6875 67.984375 14.640625 
Q 62.890625 5.609375 53.21875 1.3125 
z
" id="DejaVuSans-51"/>
     </defs>
     <g transform="translate(14.798438 192.263187)rotate(-90)scale(0.1 -0.1)">
      <use xlink:href="#DejaVuSans-61"/>
      <use x="61.279297" xlink:href="#DejaVuSans-76"/>
      <use x="120.458984" xlink:href="#DejaVuSans-65"/>
      <use x="181.982422" xlink:href="#DejaVuSans-72"/>
      <use x="223.095703" xlink:href="#DejaVuSans-61"/>
      <use x="284.375" xlink:href="#DejaVuSans-67"/>
      <use x="347.851562" xlink:href="#DejaVuSans-65"/>
      <use x="409.375" xlink:href="#DejaVuSans-20"/>
      <use x="441.162109" xlink:href="#DejaVuSans-6d"/>
      <use x="538.574219" xlink:href="#DejaVuSans-61"/>
      <use x="599.853516" xlink:href="#DejaVuSans-78"/>
      <use x="659.033203" xlink:href="#DejaVuSans-51"/>
     </g>
    </g>
   </g>
   <g id="line2d_13">
    <path clip-path="url(#pbac7065848)" d="M 60.013977 193.867062 
L 60.52125 192.272948 
L 61.028523 230.588472 
L 61.535795 169.817424 
L 62.043068 176.697735 
L 62.550341 174.862456 
L 63.057614 173.762458 
L 63.564886 207.770974 
L 64.072159 174.093225 
L 64.579432 227.333835 
L 65.086705 186.277023 
L 65.593977 180.260018 
L 66.10125 176.499916 
L 66.608523 174.576664 
L 67.115795 182.450084 
L 67.623068 177.914049 
L 68.130341 265.491969 
L 68.637614 170.640299 
L 69.144886 175.187979 
L 69.652159 174.136678 
L 70.159432 185.947486 
L 70.666705 255.023461 
L 71.173977 187.607316 
L 71.68125 181.95763 
L 72.188523 182.445916 
L 73.203068 227.899091 
L 73.710341 172.116588 
L 74.217614 250.296907 
L 75.232159 169.375082 
L 75.739432 175.798934 
L 76.246705 215.646137 
L 76.753977 176.466474 
L 77.26125 174.782811 
L 77.768523 198.706699 
L 78.275795 179.813132 
L 78.783068 180.749356 
L 79.290341 195.975228 
L 79.797614 246.066307 
L 80.304886 276.334125 
L 80.812159 171.049172 
L 81.319432 173.474707 
L 81.826705 246.865323 
L 82.333977 174.469037 
L 82.84125 187.15851 
L 83.348523 182.418127 
L 83.855795 174.221337 
L 84.363068 221.369659 
L 84.870341 181.754274 
L 85.377614 194.391486 
L 85.884886 176.12984 
L 86.392159 185.151167 
L 86.899432 175.765024 
L 87.406705 205.876362 
L 87.913977 186.466286 
L 88.42125 171.745489 
L 88.928523 171.567515 
L 89.435795 224.720208 
L 89.943068 171.304229 
L 90.450341 190.769894 
L 90.957614 195.568998 
L 91.464886 176.517449 
L 91.972159 170.140209 
L 92.479432 178.141564 
L 92.986705 168.566119 
L 93.493977 175.693225 
L 94.00125 158.864405 
L 94.508523 177.914831 
L 95.015795 160.339413 
L 95.523068 206.891326 
L 96.030341 182.937039 
L 96.537614 178.737819 
L 97.044886 148.999221 
L 97.552159 172.772292 
L 98.059432 159.938586 
L 98.566705 159.022051 
L 99.073977 139.409483 
L 99.58125 146.04771 
L 100.088523 140.36239 
L 100.595795 182.673518 
L 101.103068 138.42398 
L 101.610341 157.452483 
L 102.117614 128.650944 
L 102.624886 132.142683 
L 103.132159 145.87265 
L 103.639432 165.85176 
L 104.146705 174.976847 
L 105.668523 127.044478 
L 106.175795 133.956135 
L 106.683068 147.707051 
L 107.190341 246.191035 
L 107.697614 135.491865 
L 108.204886 147.556407 
L 108.712159 133.656642 
L 109.219432 124.536867 
L 109.726705 126.784648 
L 110.233977 208.0332 
L 110.74125 131.833006 
L 111.248523 153.118941 
L 111.755795 123.441543 
L 112.263068 119.990892 
L 113.277614 153.937996 
L 113.784886 136.846658 
L 114.292159 142.731236 
L 114.799432 111.850859 
L 115.306705 137.020337 
L 115.813977 110.39339 
L 116.32125 169.441121 
L 116.828523 132.328814 
L 117.335795 123.427427 
L 117.843068 131.375261 
L 118.350341 135.669444 
L 118.857614 123.854139 
L 119.364886 120.373086 
L 119.872159 120.750321 
L 120.379432 145.692849 
L 120.886705 146.779517 
L 121.393977 104.876167 
L 121.90125 139.411655 
L 122.408523 158.615219 
L 122.915795 144.702806 
L 123.423068 202.81361 
L 123.930341 150.341703 
L 124.437614 180.286388 
L 124.944886 109.260952 
L 125.452159 149.404982 
L 126.466705 115.015171 
L 126.973977 83.335232 
L 127.48125 182.877489 
L 127.988523 96.569707 
L 128.495795 175.86317 
L 129.003068 91.530836 
L 129.510341 190.139437 
L 130.017614 196.166183 
L 130.524886 95.70747 
L 131.032159 137.787261 
L 131.539432 156.19455 
L 132.046705 161.288858 
L 133.06125 86.993225 
L 133.568523 81.321587 
L 134.075795 156.627392 
L 134.583068 70.685446 
L 135.090341 84.389169 
L 135.597614 81.769886 
L 136.104886 76.90174 
L 136.612159 87.063651 
L 137.119432 86.097731 
L 137.626705 190.205526 
L 138.133977 67.311243 
L 138.64125 208.85078 
L 139.148523 115.401184 
L 139.655795 67.749126 
L 140.163068 87.402456 
L 140.670341 90.410355 
L 141.177614 77.026401 
L 141.684886 98.319277 
L 142.192159 87.443631 
L 142.699432 138.138432 
L 143.206705 108.186475 
L 143.713977 97.109323 
L 144.22125 95.013547 
L 144.728523 87.326114 
L 145.235795 87.076013 
L 145.743068 83.323692 
L 146.250341 97.863034 
L 146.757614 158.495892 
L 147.772159 87.655331 
L 148.279432 194.840543 
L 148.786705 178.25445 
L 149.293977 88.19889 
L 149.80125 112.915139 
L 150.308523 51.392734 
L 150.815795 67.78932 
L 151.323068 72.433675 
L 151.830341 83.488062 
L 152.337614 140.4093 
L 152.844886 58.026557 
L 153.352159 49.31798 
L 153.859432 66.115659 
L 154.366705 75.531153 
L 154.873977 66.780199 
L 155.38125 91.43463 
L 155.888523 59.64514 
L 156.395795 72.670589 
L 156.903068 139.469661 
L 157.410341 101.063737 
L 157.917614 155.620626 
L 158.424886 60.787772 
L 158.932159 46.771108 
L 159.439432 102.483197 
L 159.946705 82.158175 
L 160.453977 74.246483 
L 160.96125 42.973741 
L 161.468523 90.531375 
L 161.975795 95.292105 
L 162.483068 42.144132 
L 162.990341 62.40815 
L 163.497614 75.774289 
L 164.004886 55.067259 
L 164.512159 60.425733 
L 165.019432 51.696154 
L 165.526705 87.22813 
L 166.033977 62.3474 
L 166.54125 107.516424 
L 167.048523 76.387134 
L 167.555795 61.704084 
L 168.063068 59.018993 
L 168.570341 44.779567 
L 169.077614 52.350817 
L 169.584886 68.439601 
L 170.092159 41.909595 
L 170.599432 56.908592 
L 171.106705 62.458087 
L 171.613977 122.629837 
L 172.12125 63.887762 
L 172.628523 67.877754 
L 173.135795 48.319504 
L 173.643068 54.778043 
L 174.150341 42.180086 
L 175.164886 94.915851 
L 175.672159 91.166886 
L 176.179432 82.181694 
L 176.686705 50.853014 
L 177.193977 48.920237 
L 177.70125 111.998864 
L 178.208523 116.874996 
L 178.715795 51.714239 
L 179.223068 47.967451 
L 179.730341 55.873013 
L 180.237614 38.706946 
L 180.744886 84.421764 
L 181.252159 50.543468 
L 181.759432 112.765747 
L 182.266705 114.398586 
L 182.773977 64.363909 
L 183.28125 58.632266 
L 183.788523 64.247355 
L 184.295795 34.414125 
L 184.803068 72.00126 
L 185.310341 40.08018 
L 185.817614 54.304193 
L 186.324886 45.76086 
L 186.832159 48.683041 
L 187.339432 81.064037 
L 187.846705 41.433934 
L 188.353977 78.756227 
L 188.86125 53.938252 
L 189.368523 41.568885 
L 189.875795 43.170611 
L 190.383068 58.379448 
L 190.890341 53.169095 
L 191.397614 54.780162 
L 191.904886 86.874227 
L 192.412159 45.345075 
L 192.919432 79.16361 
L 193.426705 50.952276 
L 193.933977 87.736808 
L 194.44125 63.888161 
L 194.948523 96.927497 
L 195.455795 44.530118 
L 195.963068 95.844196 
L 196.470341 94.074652 
L 196.977614 55.087929 
L 197.484886 61.878742 
L 197.992159 50.617272 
L 198.499432 52.039484 
L 199.006705 85.078612 
L 199.513977 50.693833 
L 200.02125 48.095283 
L 200.528523 50.717193 
L 201.035795 69.709099 
L 201.543068 52.082247 
L 202.050341 46.307177 
L 202.557614 69.233636 
L 203.064886 106.304735 
L 203.572159 53.660831 
L 204.079432 77.995336 
L 204.586705 63.986657 
L 205.093977 73.260935 
L 205.60125 86.779781 
L 206.108523 65.104203 
L 206.615795 86.598052 
L 207.123068 51.722237 
L 207.630341 53.771498 
L 208.137614 60.216075 
L 208.644886 61.718604 
L 209.152159 58.327162 
L 209.659432 105.244957 
L 210.166705 52.50168 
L 210.673977 66.410569 
L 211.18125 50.139675 
L 211.688523 49.777163 
L 212.195795 73.738487 
L 212.703068 61.781227 
L 213.210341 62.705437 
L 213.717614 50.013876 
L 214.224886 77.301298 
L 214.732159 98.471958 
L 215.239432 65.207701 
L 215.746705 66.321058 
L 216.253977 89.938085 
L 216.76125 72.598845 
L 217.268523 94.297037 
L 217.775795 66.776025 
L 218.283068 89.686019 
L 218.790341 73.7116 
L 219.297614 42.908833 
L 219.804886 73.312048 
L 220.312159 57.420828 
L 220.819432 59.676296 
L 221.326705 49.495605 
L 221.833977 61.960329 
L 222.34125 51.982924 
L 222.848523 67.303317 
L 223.355795 74.164208 
L 223.863068 44.010607 
L 224.370341 68.484182 
L 224.877614 65.183726 
L 225.384886 56.269416 
L 225.892159 61.141008 
L 226.399432 52.113507 
L 226.906705 82.975204 
L 227.413977 56.933696 
L 227.92125 57.503701 
L 228.428523 97.69026 
L 229.443068 61.90805 
L 229.950341 56.629146 
L 230.457614 73.904799 
L 230.964886 72.20192 
L 231.472159 85.260812 
L 231.979432 57.374245 
L 232.486705 55.794132 
L 232.993977 55.38099 
L 233.50125 65.655893 
L 234.008523 55.670828 
L 234.515795 77.140525 
L 235.023068 62.240523 
L 235.530341 59.122339 
L 236.037614 65.250184 
L 236.544886 67.146221 
L 237.052159 109.395099 
L 237.559432 57.938314 
L 238.066705 68.663746 
L 238.573977 91.915209 
L 239.588523 65.536795 
L 240.095795 115.688082 
L 240.603068 71.420532 
L 241.110341 63.774866 
L 241.617614 73.351543 
L 242.124886 71.79973 
L 242.632159 67.539132 
L 243.139432 85.745022 
L 243.646705 74.371526 
L 244.153977 102.120464 
L 244.66125 73.43275 
L 245.168523 68.411368 
L 246.183068 74.511195 
L 246.690341 75.120797 
L 247.197614 67.63543 
L 247.704886 64.886803 
L 248.212159 79.472764 
L 248.719432 84.263169 
L 249.226705 92.589077 
L 249.733977 74.145165 
L 250.24125 71.691399 
L 250.748523 70.817048 
L 251.255795 85.351516 
L 251.763068 73.23538 
L 252.270341 83.919207 
L 252.777614 72.763719 
L 253.284886 76.384152 
L 253.792159 88.189319 
L 254.299432 86.754493 
L 254.806705 78.658038 
L 255.313977 103.700652 
L 255.82125 83.423446 
L 256.328523 77.722501 
L 256.835795 78.58965 
L 257.343068 87.856713 
L 257.850341 94.170438 
L 258.357614 115.559834 
L 258.864886 82.404458 
L 259.372159 96.075443 
L 259.879432 87.884436 
L 260.386705 81.818879 
L 260.893977 81.097168 
L 261.40125 85.927876 
L 261.908523 78.418983 
L 262.415795 106.584395 
L 262.923068 86.071053 
L 263.430341 79.727145 
L 263.937614 82.080249 
L 264.444886 90.018721 
L 264.952159 91.739487 
L 265.459432 85.153027 
L 265.966705 92.605236 
L 266.473977 95.450959 
L 266.98125 106.136824 
L 267.488523 93.70464 
L 267.995795 93.293999 
L 268.503068 90.482302 
L 269.010341 89.002503 
L 269.517614 88.202716 
L 270.024886 89.276216 
L 270.532159 121.886608 
L 271.039432 93.77226 
L 271.546705 91.634056 
L 272.053977 94.766709 
L 272.56125 120.876208 
L 273.068523 95.412144 
L 273.575795 97.966421 
L 274.083068 93.204931 
L 274.590341 97.712382 
L 275.097614 98.403943 
L 275.604886 108.440465 
L 276.112159 98.996526 
L 276.619432 97.446782 
L 277.126705 93.361156 
L 277.633977 93.427079 
L 278.14125 92.637026 
L 278.648523 97.124717 
L 279.155795 100.116325 
L 279.663068 100.455367 
L 280.170341 97.095652 
L 280.677614 114.680709 
L 281.184886 98.016216 
L 281.692159 102.119422 
L 282.199432 103.784982 
L 282.706705 100.742555 
L 283.213977 104.282768 
L 283.72125 96.150656 
L 284.228523 106.58968 
L 284.735795 108.282964 
L 285.243068 106.023985 
L 285.750341 100.318157 
L 286.257614 110.563699 
L 286.764886 92.699869 
L 287.779432 122.566064 
L 288.286705 106.065825 
L 288.793977 106.726484 
L 289.30125 106.532929 
L 289.808523 99.966901 
L 290.315795 97.450158 
L 290.823068 111.35596 
L 291.330341 105.248286 
L 291.837614 121.835968 
L 292.344886 109.887173 
L 292.852159 119.413339 
L 293.359432 110.898517 
L 293.866705 108.576143 
L 294.373977 109.56432 
L 294.88125 107.972514 
L 295.388523 105.389038 
L 295.895795 105.111798 
L 296.403068 118.452394 
L 296.910341 111.924554 
L 297.417614 124.401593 
L 297.924886 106.864918 
L 298.939432 114.711183 
L 299.953977 105.595948 
L 300.46125 119.773137 
L 300.968523 126.699702 
L 301.475795 120.852387 
L 301.983068 133.642647 
L 302.490341 111.017074 
L 302.997614 113.571345 
L 303.504886 111.186298 
L 304.012159 136.78919 
L 304.519432 124.943314 
L 305.026705 122.148765 
L 305.533977 115.156915 
L 306.548523 134.499924 
L 307.055795 144.866409 
L 307.563068 117.628907 
L 308.070341 120.454448 
L 308.577614 128.747437 
L 309.084886 117.143077 
L 309.592159 121.684655 
L 310.099432 143.565044 
L 310.606705 124.80637 
L 311.113977 143.945046 
L 311.62125 125.507983 
L 312.128523 135.191254 
L 312.635795 124.026629 
L 313.143068 118.651539 
L 313.650341 129.551044 
L 314.157614 124.581049 
L 314.664886 116.309139 
L 315.679432 137.511492 
L 316.186705 128.73827 
L 316.693977 149.883991 
L 317.20125 120.918315 
L 317.708523 148.790425 
L 318.215795 127.010172 
L 318.723068 129.603351 
L 319.230341 154.464244 
L 319.737614 151.82763 
L 320.752159 114.19993 
L 321.259432 140.518651 
L 321.766705 127.267072 
L 322.273977 135.107993 
L 322.78125 135.399502 
L 323.288523 134.403268 
L 323.795795 141.718981 
L 324.303068 133.706435 
L 324.810341 129.221437 
L 325.317614 134.895347 
L 325.824886 135.501068 
L 326.332159 129.0147 
L 326.839432 139.983853 
L 327.346705 134.907495 
L 327.853977 140.177322 
L 328.36125 148.219733 
L 329.375795 133.739012 
L 329.883068 143.781402 
L 330.390341 127.778939 
L 331.404886 147.277549 
L 331.912159 142.753103 
L 332.419432 129.439266 
L 332.926705 133.041319 
L 333.433977 140.885318 
L 333.94125 137.510884 
L 334.448523 130.349361 
L 334.955795 133.167896 
L 335.463068 154.019885 
L 335.970341 153.102519 
L 336.984886 125.541608 
L 337.492159 150.572961 
L 337.999432 149.046869 
L 338.506705 135.591436 
L 339.013977 132.821607 
L 339.52125 133.663077 
L 340.028523 145.810119 
L 340.535795 155.225287 
L 341.550341 134.847841 
L 342.057614 140.946168 
L 342.564886 141.105407 
L 343.072159 137.152492 
L 344.086705 149.182495 
L 344.593977 143.320642 
L 345.10125 154.052742 
L 345.608523 132.500852 
L 346.115795 133.919219 
L 346.623068 143.975458 
L 347.130341 140.14972 
L 347.637614 154.369143 
L 348.652159 131.789058 
L 349.159432 148.337078 
L 349.666705 148.913147 
L 350.173977 134.870767 
L 350.68125 142.687895 
L 351.188523 148.200621 
L 351.695795 143.067607 
L 352.203068 143.862357 
L 352.710341 140.275076 
L 353.217614 151.339994 
L 354.232159 138.990582 
L 354.739432 143.058756 
L 355.246705 160.001549 
L 355.753977 147.149356 
L 356.768523 156.06076 
L 357.275795 157.683005 
L 357.783068 138.881891 
L 358.290341 192.333009 
L 358.797614 142.63524 
L 359.304886 145.075318 
L 359.812159 186.279937 
L 360.319432 155.894145 
L 360.826705 143.837224 
L 361.333977 213.116663 
L 361.84125 161.523637 
L 362.348523 147.598681 
L 362.855795 146.948552 
L 363.363068 161.567953 
L 363.870341 142.200182 
L 364.377614 149.540643 
L 364.884886 155.192811 
L 365.392159 133.642803 
L 365.899432 150.389536 
L 366.406705 147.965711 
L 366.913977 146.975696 
L 367.42125 159.638914 
L 367.928523 152.317561 
L 368.435795 156.635025 
L 368.943068 155.412693 
L 369.450341 153.296881 
L 369.957614 145.367026 
L 370.464886 167.798214 
L 370.972159 149.760018 
L 371.479432 148.440515 
L 371.986705 157.269846 
L 372.493977 160.891127 
L 373.00125 144.894411 
L 373.508523 148.485908 
L 374.015795 160.759968 
L 374.523068 151.841026 
L 375.030341 166.345634 
L 375.537614 173.905325 
L 376.044886 144.690917 
L 376.552159 160.60706 
L 377.059432 149.748357 
L 377.566705 153.579126 
L 378.073977 145.339502 
L 378.58125 145.236643 
L 379.088523 165.914025 
L 379.595795 155.137353 
L 380.103068 160.814412 
L 380.610341 146.612626 
L 381.624886 157.085353 
L 382.132159 149.321353 
L 382.639432 151.471235 
L 383.653977 160.754979 
L 384.16125 147.894019 
L 384.668523 157.968521 
L 384.668523 157.968521 
" style="fill:none;stroke:#1f77b4;stroke-linecap:square;stroke-width:0.5;"/>
   </g>
   <g id="patch_3">
    <path d="M 43.78125 288.430125 
L 43.78125 22.318125 
" style="fill:none;stroke:#000000;stroke-linecap:square;stroke-linejoin:miter;stroke-width:0.8;"/>
   </g>
   <g id="patch_4">
    <path d="M 400.90125 288.430125 
L 400.90125 22.318125 
" style="fill:none;stroke:#000000;stroke-linecap:square;stroke-linejoin:miter;stroke-width:0.8;"/>
   </g>
   <g id="patch_5">
    <path d="M 43.78125 288.430125 
L 400.90125 288.430125 
" style="fill:none;stroke:#000000;stroke-linecap:square;stroke-linejoin:miter;stroke-width:0.8;"/>
   </g>
   <g id="patch_6">
    <path d="M 43.78125 22.318125 
L 400.90125 22.318125 
" style="fill:none;stroke:#000000;stroke-linecap:square;stroke-linejoin:miter;stroke-width:0.8;"/>
   </g>
   <g id="text_15">
    <!-- Average maxQ per episode, joint2 -->
    <defs>
     <path d="M 34.1875 63.1875 
L 20.796875 26.90625 
L 47.609375 26.90625 
z
M 28.609375 72.90625 
L 39.796875 72.90625 
L 67.578125 0 
L 57.328125 0 
L 50.6875 18.703125 
L 17.828125 18.703125 
L 11.1875 0 
L 0.78125 0 
z
" id="DejaVuSans-41"/>
     <path d="M 11.71875 12.40625 
L 22.015625 12.40625 
L 22.015625 4 
L 14.015625 -11.625 
L 7.71875 -11.625 
L 11.71875 4 
z
" id="DejaVuSans-2c"/>
     <path d="M 9.421875 54.6875 
L 18.40625 54.6875 
L 18.40625 -0.984375 
Q 18.40625 -11.421875 14.421875 -16.109375 
Q 10.453125 -20.796875 1.609375 -20.796875 
L -1.8125 -20.796875 
L -1.8125 -13.1875 
L 0.59375 -13.1875 
Q 5.71875 -13.1875 7.5625 -10.8125 
Q 9.421875 -8.453125 9.421875 -0.984375 
z
M 9.421875 75.984375 
L 18.40625 75.984375 
L 18.40625 64.59375 
L 9.421875 64.59375 
z
" id="DejaVuSans-6a"/>
     <path d="M 54.890625 33.015625 
L 54.890625 0 
L 45.90625 0 
L 45.90625 32.71875 
Q 45.90625 40.484375 42.875 44.328125 
Q 39.84375 48.1875 33.796875 48.1875 
Q 26.515625 48.1875 22.3125 43.546875 
Q 18.109375 38.921875 18.109375 30.90625 
L 18.109375 0 
L 9.078125 0 
L 9.078125 54.6875 
L 18.109375 54.6875 
L 18.109375 46.1875 
Q 21.34375 51.125 25.703125 53.5625 
Q 30.078125 56 35.796875 56 
Q 45.21875 56 50.046875 50.171875 
Q 54.890625 44.34375 54.890625 33.015625 
z
" id="DejaVuSans-6e"/>
     <path d="M 18.3125 70.21875 
L 18.3125 54.6875 
L 36.8125 54.6875 
L 36.8125 47.703125 
L 18.3125 47.703125 
L 18.3125 18.015625 
Q 18.3125 11.328125 20.140625 9.421875 
Q 21.96875 7.515625 27.59375 7.515625 
L 36.8125 7.515625 
L 36.8125 0 
L 27.59375 0 
Q 17.1875 0 13.234375 3.875 
Q 9.28125 7.765625 9.28125 18.015625 
L 9.28125 47.703125 
L 2.6875 47.703125 
L 2.6875 54.6875 
L 9.28125 54.6875 
L 9.28125 70.21875 
z
" id="DejaVuSans-74"/>
    </defs>
    <g transform="translate(119.61375 16.318125)scale(0.12 -0.12)">
     <use xlink:href="#DejaVuSans-41"/>
     <use x="68.330078" xlink:href="#DejaVuSans-76"/>
     <use x="127.509766" xlink:href="#DejaVuSans-65"/>
     <use x="189.033203" xlink:href="#DejaVuSans-72"/>
     <use x="230.146484" xlink:href="#DejaVuSans-61"/>
     <use x="291.425781" xlink:href="#DejaVuSans-67"/>
     <use x="354.902344" xlink:href="#DejaVuSans-65"/>
     <use x="416.425781" xlink:href="#DejaVuSans-20"/>
     <use x="448.212891" xlink:href="#DejaVuSans-6d"/>
     <use x="545.625" xlink:href="#DejaVuSans-61"/>
     <use x="606.904297" xlink:href="#DejaVuSans-78"/>
     <use x="666.083984" xlink:href="#DejaVuSans-51"/>
     <use x="744.794922" xlink:href="#DejaVuSans-20"/>
     <use x="776.582031" xlink:href="#DejaVuSans-70"/>
     <use x="840.058594" xlink:href="#DejaVuSans-65"/>
     <use x="901.582031" xlink:href="#DejaVuSans-72"/>
     <use x="942.695312" xlink:href="#DejaVuSans-20"/>
     <use x="974.482422" xlink:href="#DejaVuSans-65"/>
     <use x="1036.005859" xlink:href="#DejaVuSans-70"/>
     <use x="1099.482422" xlink:href="#DejaVuSans-69"/>
     <use x="1127.265625" xlink:href="#DejaVuSans-73"/>
     <use x="1179.365234" xlink:href="#DejaVuSans-6f"/>
     <use x="1240.546875" xlink:href="#DejaVuSans-64"/>
     <use x="1304.023438" xlink:href="#DejaVuSans-65"/>
     <use x="1365.546875" xlink:href="#DejaVuSans-2c"/>
     <use x="1397.333984" xlink:href="#DejaVuSans-20"/>
     <use x="1429.121094" xlink:href="#DejaVuSans-6a"/>
     <use x="1456.904297" xlink:href="#DejaVuSans-6f"/>
     <use x="1518.085938" xlink:href="#DejaVuSans-69"/>
     <use x="1545.869141" xlink:href="#DejaVuSans-6e"/>
     <use x="1609.248047" xlink:href="#DejaVuSans-74"/>
     <use x="1648.457031" xlink:href="#DejaVuSans-32"/>
    </g>
   </g>
  </g>
 </g>
 <defs>
  <clipPath id="pbac7065848">
   <rect height="266.112" width="357.12" x="43.78125" y="22.318125"/>
  </clipPath>
 </defs>
</svg>
