<?xml version="1.0" encoding="utf-8" standalone="no"?>
<!DOCTYPE svg PUBLIC "-//W3C//DTD SVG 1.1//EN"
  "http://www.w3.org/Graphics/SVG/1.1/DTD/svg11.dtd">
<!-- Created with matplotlib (http://matplotlib.org/) -->
<svg height="325pt" version="1.1" viewBox="0 0 411 325" width="411pt" xmlns="http://www.w3.org/2000/svg" xmlns:xlink="http://www.w3.org/1999/xlink">
 <defs>
  <style type="text/css">
*{stroke-linecap:butt;stroke-linejoin:round;}
  </style>
 </defs>
 <g id="figure_1">
  <g id="patch_1">
   <path d="M 0 325.986375 
L 411.60125 325.986375 
L 411.60125 0 
L 0 0 
z
" style="fill:#ffffff;"/>
  </g>
  <g id="axes_1">
   <g id="patch_2">
    <path d="M 43.78125 288.430125 
L 400.90125 288.430125 
L 400.90125 22.318125 
L 43.78125 22.318125 
z
" style="fill:#ffffff;"/>
   </g>
   <g id="matplotlib.axis_1">
    <g id="xtick_1">
     <g id="line2d_1">
      <defs>
       <path d="M 0 0 
L 0 3.5 
" id="m1f9b24c8d8" style="stroke:#000000;stroke-width:0.8;"/>
      </defs>
      <g>
       <use style="stroke:#000000;stroke-width:0.8;" x="59.506705" xlink:href="#m1f9b24c8d8" y="288.430125"/>
      </g>
     </g>
     <g id="text_1">
      <!-- 0 -->
      <defs>
       <path d="M 31.78125 66.40625 
Q 24.171875 66.40625 20.328125 58.90625 
Q 16.5 51.421875 16.5 36.375 
Q 16.5 21.390625 20.328125 13.890625 
Q 24.171875 6.390625 31.78125 6.390625 
Q 39.453125 6.390625 43.28125 13.890625 
Q 47.125 21.390625 47.125 36.375 
Q 47.125 51.421875 43.28125 58.90625 
Q 39.453125 66.40625 31.78125 66.40625 
z
M 31.78125 74.21875 
Q 44.046875 74.21875 50.515625 64.515625 
Q 56.984375 54.828125 56.984375 36.375 
Q 56.984375 17.96875 50.515625 8.265625 
Q 44.046875 -1.421875 31.78125 -1.421875 
Q 19.53125 -1.421875 13.0625 8.265625 
Q 6.59375 17.96875 6.59375 36.375 
Q 6.59375 54.828125 13.0625 64.515625 
Q 19.53125 74.21875 31.78125 74.21875 
z
" id="DejaVuSans-30"/>
      </defs>
      <g transform="translate(56.325455 303.028562)scale(0.1 -0.1)">
       <use xlink:href="#DejaVuSans-30"/>
      </g>
     </g>
    </g>
    <g id="xtick_2">
     <g id="line2d_2">
      <g>
       <use style="stroke:#000000;stroke-width:0.8;" x="110.233977" xlink:href="#m1f9b24c8d8" y="288.430125"/>
      </g>
     </g>
     <g id="text_2">
      <!-- 100 -->
      <defs>
       <path d="M 12.40625 8.296875 
L 28.515625 8.296875 
L 28.515625 63.921875 
L 10.984375 60.40625 
L 10.984375 69.390625 
L 28.421875 72.90625 
L 38.28125 72.90625 
L 38.28125 8.296875 
L 54.390625 8.296875 
L 54.390625 0 
L 12.40625 0 
z
" id="DejaVuSans-31"/>
      </defs>
      <g transform="translate(100.690227 303.028562)scale(0.1 -0.1)">
       <use xlink:href="#DejaVuSans-31"/>
       <use x="63.623047" xlink:href="#DejaVuSans-30"/>
       <use x="127.246094" xlink:href="#DejaVuSans-30"/>
      </g>
     </g>
    </g>
    <g id="xtick_3">
     <g id="line2d_3">
      <g>
       <use style="stroke:#000000;stroke-width:0.8;" x="160.96125" xlink:href="#m1f9b24c8d8" y="288.430125"/>
      </g>
     </g>
     <g id="text_3">
      <!-- 200 -->
      <defs>
       <path d="M 19.1875 8.296875 
L 53.609375 8.296875 
L 53.609375 0 
L 7.328125 0 
L 7.328125 8.296875 
Q 12.9375 14.109375 22.625 23.890625 
Q 32.328125 33.6875 34.8125 36.53125 
Q 39.546875 41.84375 41.421875 45.53125 
Q 43.3125 49.21875 43.3125 52.78125 
Q 43.3125 58.59375 39.234375 62.25 
Q 35.15625 65.921875 28.609375 65.921875 
Q 23.96875 65.921875 18.8125 64.3125 
Q 13.671875 62.703125 7.8125 59.421875 
L 7.8125 69.390625 
Q 13.765625 71.78125 18.9375 73 
Q 24.125 74.21875 28.421875 74.21875 
Q 39.75 74.21875 46.484375 68.546875 
Q 53.21875 62.890625 53.21875 53.421875 
Q 53.21875 48.921875 51.53125 44.890625 
Q 49.859375 40.875 45.40625 35.40625 
Q 44.1875 33.984375 37.640625 27.21875 
Q 31.109375 20.453125 19.1875 8.296875 
z
" id="DejaVuSans-32"/>
      </defs>
      <g transform="translate(151.4175 303.028562)scale(0.1 -0.1)">
       <use xlink:href="#DejaVuSans-32"/>
       <use x="63.623047" xlink:href="#DejaVuSans-30"/>
       <use x="127.246094" xlink:href="#DejaVuSans-30"/>
      </g>
     </g>
    </g>
    <g id="xtick_4">
     <g id="line2d_4">
      <g>
       <use style="stroke:#000000;stroke-width:0.8;" x="211.688523" xlink:href="#m1f9b24c8d8" y="288.430125"/>
      </g>
     </g>
     <g id="text_4">
      <!-- 300 -->
      <defs>
       <path d="M 40.578125 39.3125 
Q 47.65625 37.796875 51.625 33 
Q 55.609375 28.21875 55.609375 21.1875 
Q 55.609375 10.40625 48.1875 4.484375 
Q 40.765625 -1.421875 27.09375 -1.421875 
Q 22.515625 -1.421875 17.65625 -0.515625 
Q 12.796875 0.390625 7.625 2.203125 
L 7.625 11.71875 
Q 11.71875 9.328125 16.59375 8.109375 
Q 21.484375 6.890625 26.8125 6.890625 
Q 36.078125 6.890625 40.9375 10.546875 
Q 45.796875 14.203125 45.796875 21.1875 
Q 45.796875 27.640625 41.28125 31.265625 
Q 36.765625 34.90625 28.71875 34.90625 
L 20.21875 34.90625 
L 20.21875 43.015625 
L 29.109375 43.015625 
Q 36.375 43.015625 40.234375 45.921875 
Q 44.09375 48.828125 44.09375 54.296875 
Q 44.09375 59.90625 40.109375 62.90625 
Q 36.140625 65.921875 28.71875 65.921875 
Q 24.65625 65.921875 20.015625 65.03125 
Q 15.375 64.15625 9.8125 62.3125 
L 9.8125 71.09375 
Q 15.4375 72.65625 20.34375 73.4375 
Q 25.25 74.21875 29.59375 74.21875 
Q 40.828125 74.21875 47.359375 69.109375 
Q 53.90625 64.015625 53.90625 55.328125 
Q 53.90625 49.265625 50.4375 45.09375 
Q 46.96875 40.921875 40.578125 39.3125 
z
" id="DejaVuSans-33"/>
      </defs>
      <g transform="translate(202.144773 303.028562)scale(0.1 -0.1)">
       <use xlink:href="#DejaVuSans-33"/>
       <use x="63.623047" xlink:href="#DejaVuSans-30"/>
       <use x="127.246094" xlink:href="#DejaVuSans-30"/>
      </g>
     </g>
    </g>
    <g id="xtick_5">
     <g id="line2d_5">
      <g>
       <use style="stroke:#000000;stroke-width:0.8;" x="262.415795" xlink:href="#m1f9b24c8d8" y="288.430125"/>
      </g>
     </g>
     <g id="text_5">
      <!-- 400 -->
      <defs>
       <path d="M 37.796875 64.3125 
L 12.890625 25.390625 
L 37.796875 25.390625 
z
M 35.203125 72.90625 
L 47.609375 72.90625 
L 47.609375 25.390625 
L 58.015625 25.390625 
L 58.015625 17.1875 
L 47.609375 17.1875 
L 47.609375 0 
L 37.796875 0 
L 37.796875 17.1875 
L 4.890625 17.1875 
L 4.890625 26.703125 
z
" id="DejaVuSans-34"/>
      </defs>
      <g transform="translate(252.872045 303.028562)scale(0.1 -0.1)">
       <use xlink:href="#DejaVuSans-34"/>
       <use x="63.623047" xlink:href="#DejaVuSans-30"/>
       <use x="127.246094" xlink:href="#DejaVuSans-30"/>
      </g>
     </g>
    </g>
    <g id="xtick_6">
     <g id="line2d_6">
      <g>
       <use style="stroke:#000000;stroke-width:0.8;" x="313.143068" xlink:href="#m1f9b24c8d8" y="288.430125"/>
      </g>
     </g>
     <g id="text_6">
      <!-- 500 -->
      <defs>
       <path d="M 10.796875 72.90625 
L 49.515625 72.90625 
L 49.515625 64.59375 
L 19.828125 64.59375 
L 19.828125 46.734375 
Q 21.96875 47.46875 24.109375 47.828125 
Q 26.265625 48.1875 28.421875 48.1875 
Q 40.625 48.1875 47.75 41.5 
Q 54.890625 34.8125 54.890625 23.390625 
Q 54.890625 11.625 47.5625 5.09375 
Q 40.234375 -1.421875 26.90625 -1.421875 
Q 22.3125 -1.421875 17.546875 -0.640625 
Q 12.796875 0.140625 7.71875 1.703125 
L 7.71875 11.625 
Q 12.109375 9.234375 16.796875 8.0625 
Q 21.484375 6.890625 26.703125 6.890625 
Q 35.15625 6.890625 40.078125 11.328125 
Q 45.015625 15.765625 45.015625 23.390625 
Q 45.015625 31 40.078125 35.4375 
Q 35.15625 39.890625 26.703125 39.890625 
Q 22.75 39.890625 18.8125 39.015625 
Q 14.890625 38.140625 10.796875 36.28125 
z
" id="DejaVuSans-35"/>
      </defs>
      <g transform="translate(303.599318 303.028562)scale(0.1 -0.1)">
       <use xlink:href="#DejaVuSans-35"/>
       <use x="63.623047" xlink:href="#DejaVuSans-30"/>
       <use x="127.246094" xlink:href="#DejaVuSans-30"/>
      </g>
     </g>
    </g>
    <g id="xtick_7">
     <g id="line2d_7">
      <g>
       <use style="stroke:#000000;stroke-width:0.8;" x="363.870341" xlink:href="#m1f9b24c8d8" y="288.430125"/>
      </g>
     </g>
     <g id="text_7">
      <!-- 600 -->
      <defs>
       <path d="M 33.015625 40.375 
Q 26.375 40.375 22.484375 35.828125 
Q 18.609375 31.296875 18.609375 23.390625 
Q 18.609375 15.53125 22.484375 10.953125 
Q 26.375 6.390625 33.015625 6.390625 
Q 39.65625 6.390625 43.53125 10.953125 
Q 47.40625 15.53125 47.40625 23.390625 
Q 47.40625 31.296875 43.53125 35.828125 
Q 39.65625 40.375 33.015625 40.375 
z
M 52.59375 71.296875 
L 52.59375 62.3125 
Q 48.875 64.0625 45.09375 64.984375 
Q 41.3125 65.921875 37.59375 65.921875 
Q 27.828125 65.921875 22.671875 59.328125 
Q 17.53125 52.734375 16.796875 39.40625 
Q 19.671875 43.65625 24.015625 45.921875 
Q 28.375 48.1875 33.59375 48.1875 
Q 44.578125 48.1875 50.953125 41.515625 
Q 57.328125 34.859375 57.328125 23.390625 
Q 57.328125 12.15625 50.6875 5.359375 
Q 44.046875 -1.421875 33.015625 -1.421875 
Q 20.359375 -1.421875 13.671875 8.265625 
Q 6.984375 17.96875 6.984375 36.375 
Q 6.984375 53.65625 15.1875 63.9375 
Q 23.390625 74.21875 37.203125 74.21875 
Q 40.921875 74.21875 44.703125 73.484375 
Q 48.484375 72.75 52.59375 71.296875 
z
" id="DejaVuSans-36"/>
      </defs>
      <g transform="translate(354.326591 303.028562)scale(0.1 -0.1)">
       <use xlink:href="#DejaVuSans-36"/>
       <use x="63.623047" xlink:href="#DejaVuSans-30"/>
       <use x="127.246094" xlink:href="#DejaVuSans-30"/>
      </g>
     </g>
    </g>
    <g id="text_8">
     <!-- episodes -->
     <defs>
      <path d="M 56.203125 29.59375 
L 56.203125 25.203125 
L 14.890625 25.203125 
Q 15.484375 15.921875 20.484375 11.0625 
Q 25.484375 6.203125 34.421875 6.203125 
Q 39.59375 6.203125 44.453125 7.46875 
Q 49.3125 8.734375 54.109375 11.28125 
L 54.109375 2.78125 
Q 49.265625 0.734375 44.1875 -0.34375 
Q 39.109375 -1.421875 33.890625 -1.421875 
Q 20.796875 -1.421875 13.15625 6.1875 
Q 5.515625 13.8125 5.515625 26.8125 
Q 5.515625 40.234375 12.765625 48.109375 
Q 20.015625 56 32.328125 56 
Q 43.359375 56 49.78125 48.890625 
Q 56.203125 41.796875 56.203125 29.59375 
z
M 47.21875 32.234375 
Q 47.125 39.59375 43.09375 43.984375 
Q 39.0625 48.390625 32.421875 48.390625 
Q 24.90625 48.390625 20.390625 44.140625 
Q 15.875 39.890625 15.1875 32.171875 
z
" id="DejaVuSans-65"/>
      <path d="M 18.109375 8.203125 
L 18.109375 -20.796875 
L 9.078125 -20.796875 
L 9.078125 54.6875 
L 18.109375 54.6875 
L 18.109375 46.390625 
Q 20.953125 51.265625 25.265625 53.625 
Q 29.59375 56 35.59375 56 
Q 45.5625 56 51.78125 48.09375 
Q 58.015625 40.1875 58.015625 27.296875 
Q 58.015625 14.40625 51.78125 6.484375 
Q 45.5625 -1.421875 35.59375 -1.421875 
Q 29.59375 -1.421875 25.265625 0.953125 
Q 20.953125 3.328125 18.109375 8.203125 
z
M 48.6875 27.296875 
Q 48.6875 37.203125 44.609375 42.84375 
Q 40.53125 48.484375 33.40625 48.484375 
Q 26.265625 48.484375 22.1875 42.84375 
Q 18.109375 37.203125 18.109375 27.296875 
Q 18.109375 17.390625 22.1875 11.75 
Q 26.265625 6.109375 33.40625 6.109375 
Q 40.53125 6.109375 44.609375 11.75 
Q 48.6875 17.390625 48.6875 27.296875 
z
" id="DejaVuSans-70"/>
      <path d="M 9.421875 54.6875 
L 18.40625 54.6875 
L 18.40625 0 
L 9.421875 0 
z
M 9.421875 75.984375 
L 18.40625 75.984375 
L 18.40625 64.59375 
L 9.421875 64.59375 
z
" id="DejaVuSans-69"/>
      <path d="M 44.28125 53.078125 
L 44.28125 44.578125 
Q 40.484375 46.53125 36.375 47.5 
Q 32.28125 48.484375 27.875 48.484375 
Q 21.1875 48.484375 17.84375 46.4375 
Q 14.5 44.390625 14.5 40.28125 
Q 14.5 37.15625 16.890625 35.375 
Q 19.28125 33.59375 26.515625 31.984375 
L 29.59375 31.296875 
Q 39.15625 29.25 43.1875 25.515625 
Q 47.21875 21.78125 47.21875 15.09375 
Q 47.21875 7.46875 41.1875 3.015625 
Q 35.15625 -1.421875 24.609375 -1.421875 
Q 20.21875 -1.421875 15.453125 -0.5625 
Q 10.6875 0.296875 5.421875 2 
L 5.421875 11.28125 
Q 10.40625 8.6875 15.234375 7.390625 
Q 20.0625 6.109375 24.8125 6.109375 
Q 31.15625 6.109375 34.5625 8.28125 
Q 37.984375 10.453125 37.984375 14.40625 
Q 37.984375 18.0625 35.515625 20.015625 
Q 33.0625 21.96875 24.703125 23.78125 
L 21.578125 24.515625 
Q 13.234375 26.265625 9.515625 29.90625 
Q 5.8125 33.546875 5.8125 39.890625 
Q 5.8125 47.609375 11.28125 51.796875 
Q 16.75 56 26.8125 56 
Q 31.78125 56 36.171875 55.265625 
Q 40.578125 54.546875 44.28125 53.078125 
z
" id="DejaVuSans-73"/>
      <path d="M 30.609375 48.390625 
Q 23.390625 48.390625 19.1875 42.75 
Q 14.984375 37.109375 14.984375 27.296875 
Q 14.984375 17.484375 19.15625 11.84375 
Q 23.34375 6.203125 30.609375 6.203125 
Q 37.796875 6.203125 41.984375 11.859375 
Q 46.1875 17.53125 46.1875 27.296875 
Q 46.1875 37.015625 41.984375 42.703125 
Q 37.796875 48.390625 30.609375 48.390625 
z
M 30.609375 56 
Q 42.328125 56 49.015625 48.375 
Q 55.71875 40.765625 55.71875 27.296875 
Q 55.71875 13.875 49.015625 6.21875 
Q 42.328125 -1.421875 30.609375 -1.421875 
Q 18.84375 -1.421875 12.171875 6.21875 
Q 5.515625 13.875 5.515625 27.296875 
Q 5.515625 40.765625 12.171875 48.375 
Q 18.84375 56 30.609375 56 
z
" id="DejaVuSans-6f"/>
      <path d="M 45.40625 46.390625 
L 45.40625 75.984375 
L 54.390625 75.984375 
L 54.390625 0 
L 45.40625 0 
L 45.40625 8.203125 
Q 42.578125 3.328125 38.25 0.953125 
Q 33.9375 -1.421875 27.875 -1.421875 
Q 17.96875 -1.421875 11.734375 6.484375 
Q 5.515625 14.40625 5.515625 27.296875 
Q 5.515625 40.1875 11.734375 48.09375 
Q 17.96875 56 27.875 56 
Q 33.9375 56 38.25 53.625 
Q 42.578125 51.265625 45.40625 46.390625 
z
M 14.796875 27.296875 
Q 14.796875 17.390625 18.875 11.75 
Q 22.953125 6.109375 30.078125 6.109375 
Q 37.203125 6.109375 41.296875 11.75 
Q 45.40625 17.390625 45.40625 27.296875 
Q 45.40625 37.203125 41.296875 42.84375 
Q 37.203125 48.484375 30.078125 48.484375 
Q 22.953125 48.484375 18.875 42.84375 
Q 14.796875 37.203125 14.796875 27.296875 
z
" id="DejaVuSans-64"/>
     </defs>
     <g transform="translate(200.181875 316.706687)scale(0.1 -0.1)">
      <use xlink:href="#DejaVuSans-65"/>
      <use x="61.523438" xlink:href="#DejaVuSans-70"/>
      <use x="125" xlink:href="#DejaVuSans-69"/>
      <use x="152.783203" xlink:href="#DejaVuSans-73"/>
      <use x="204.882812" xlink:href="#DejaVuSans-6f"/>
      <use x="266.064453" xlink:href="#DejaVuSans-64"/>
      <use x="329.541016" xlink:href="#DejaVuSans-65"/>
      <use x="391.064453" xlink:href="#DejaVuSans-73"/>
     </g>
    </g>
   </g>
   <g id="matplotlib.axis_2">
    <g id="ytick_1">
     <g id="line2d_8">
      <defs>
       <path d="M 0 0 
L -3.5 0 
" id="m19c729627c" style="stroke:#000000;stroke-width:0.8;"/>
      </defs>
      <g>
       <use style="stroke:#000000;stroke-width:0.8;" x="43.78125" xlink:href="#m19c729627c" y="272.676217"/>
      </g>
     </g>
     <g id="text_9">
      <!-- 0.2 -->
      <defs>
       <path d="M 10.6875 12.40625 
L 21 12.40625 
L 21 0 
L 10.6875 0 
z
" id="DejaVuSans-2e"/>
      </defs>
      <g transform="translate(20.878125 276.475436)scale(0.1 -0.1)">
       <use xlink:href="#DejaVuSans-30"/>
       <use x="63.623047" xlink:href="#DejaVuSans-2e"/>
       <use x="95.410156" xlink:href="#DejaVuSans-32"/>
      </g>
     </g>
    </g>
    <g id="ytick_2">
     <g id="line2d_9">
      <g>
       <use style="stroke:#000000;stroke-width:0.8;" x="43.78125" xlink:href="#m19c729627c" y="242.924753"/>
      </g>
     </g>
     <g id="text_10">
      <!-- 0.4 -->
      <g transform="translate(20.878125 246.723972)scale(0.1 -0.1)">
       <use xlink:href="#DejaVuSans-30"/>
       <use x="63.623047" xlink:href="#DejaVuSans-2e"/>
       <use x="95.410156" xlink:href="#DejaVuSans-34"/>
      </g>
     </g>
    </g>
    <g id="ytick_3">
     <g id="line2d_10">
      <g>
       <use style="stroke:#000000;stroke-width:0.8;" x="43.78125" xlink:href="#m19c729627c" y="213.173289"/>
      </g>
     </g>
     <g id="text_11">
      <!-- 0.6 -->
      <g transform="translate(20.878125 216.972508)scale(0.1 -0.1)">
       <use xlink:href="#DejaVuSans-30"/>
       <use x="63.623047" xlink:href="#DejaVuSans-2e"/>
       <use x="95.410156" xlink:href="#DejaVuSans-36"/>
      </g>
     </g>
    </g>
    <g id="ytick_4">
     <g id="line2d_11">
      <g>
       <use style="stroke:#000000;stroke-width:0.8;" x="43.78125" xlink:href="#m19c729627c" y="183.421825"/>
      </g>
     </g>
     <g id="text_12">
      <!-- 0.8 -->
      <defs>
       <path d="M 31.78125 34.625 
Q 24.75 34.625 20.71875 30.859375 
Q 16.703125 27.09375 16.703125 20.515625 
Q 16.703125 13.921875 20.71875 10.15625 
Q 24.75 6.390625 31.78125 6.390625 
Q 38.8125 6.390625 42.859375 10.171875 
Q 46.921875 13.96875 46.921875 20.515625 
Q 46.921875 27.09375 42.890625 30.859375 
Q 38.875 34.625 31.78125 34.625 
z
M 21.921875 38.8125 
Q 15.578125 40.375 12.03125 44.71875 
Q 8.5 49.078125 8.5 55.328125 
Q 8.5 64.0625 14.71875 69.140625 
Q 20.953125 74.21875 31.78125 74.21875 
Q 42.671875 74.21875 48.875 69.140625 
Q 55.078125 64.0625 55.078125 55.328125 
Q 55.078125 49.078125 51.53125 44.71875 
Q 48 40.375 41.703125 38.8125 
Q 48.828125 37.15625 52.796875 32.3125 
Q 56.78125 27.484375 56.78125 20.515625 
Q 56.78125 9.90625 50.3125 4.234375 
Q 43.84375 -1.421875 31.78125 -1.421875 
Q 19.734375 -1.421875 13.25 4.234375 
Q 6.78125 9.90625 6.78125 20.515625 
Q 6.78125 27.484375 10.78125 32.3125 
Q 14.796875 37.15625 21.921875 38.8125 
z
M 18.3125 54.390625 
Q 18.3125 48.734375 21.84375 45.5625 
Q 25.390625 42.390625 31.78125 42.390625 
Q 38.140625 42.390625 41.71875 45.5625 
Q 45.3125 48.734375 45.3125 54.390625 
Q 45.3125 60.0625 41.71875 63.234375 
Q 38.140625 66.40625 31.78125 66.40625 
Q 25.390625 66.40625 21.84375 63.234375 
Q 18.3125 60.0625 18.3125 54.390625 
z
" id="DejaVuSans-38"/>
      </defs>
      <g transform="translate(20.878125 187.221044)scale(0.1 -0.1)">
       <use xlink:href="#DejaVuSans-30"/>
       <use x="63.623047" xlink:href="#DejaVuSans-2e"/>
       <use x="95.410156" xlink:href="#DejaVuSans-38"/>
      </g>
     </g>
    </g>
    <g id="ytick_5">
     <g id="line2d_12">
      <g>
       <use style="stroke:#000000;stroke-width:0.8;" x="43.78125" xlink:href="#m19c729627c" y="153.670361"/>
      </g>
     </g>
     <g id="text_13">
      <!-- 1.0 -->
      <g transform="translate(20.878125 157.46958)scale(0.1 -0.1)">
       <use xlink:href="#DejaVuSans-31"/>
       <use x="63.623047" xlink:href="#DejaVuSans-2e"/>
       <use x="95.410156" xlink:href="#DejaVuSans-30"/>
      </g>
     </g>
    </g>
    <g id="ytick_6">
     <g id="line2d_13">
      <g>
       <use style="stroke:#000000;stroke-width:0.8;" x="43.78125" xlink:href="#m19c729627c" y="123.918897"/>
      </g>
     </g>
     <g id="text_14">
      <!-- 1.2 -->
      <g transform="translate(20.878125 127.718116)scale(0.1 -0.1)">
       <use xlink:href="#DejaVuSans-31"/>
       <use x="63.623047" xlink:href="#DejaVuSans-2e"/>
       <use x="95.410156" xlink:href="#DejaVuSans-32"/>
      </g>
     </g>
    </g>
    <g id="ytick_7">
     <g id="line2d_14">
      <g>
       <use style="stroke:#000000;stroke-width:0.8;" x="43.78125" xlink:href="#m19c729627c" y="94.167433"/>
      </g>
     </g>
     <g id="text_15">
      <!-- 1.4 -->
      <g transform="translate(20.878125 97.966652)scale(0.1 -0.1)">
       <use xlink:href="#DejaVuSans-31"/>
       <use x="63.623047" xlink:href="#DejaVuSans-2e"/>
       <use x="95.410156" xlink:href="#DejaVuSans-34"/>
      </g>
     </g>
    </g>
    <g id="ytick_8">
     <g id="line2d_15">
      <g>
       <use style="stroke:#000000;stroke-width:0.8;" x="43.78125" xlink:href="#m19c729627c" y="64.415969"/>
      </g>
     </g>
     <g id="text_16">
      <!-- 1.6 -->
      <g transform="translate(20.878125 68.215188)scale(0.1 -0.1)">
       <use xlink:href="#DejaVuSans-31"/>
       <use x="63.623047" xlink:href="#DejaVuSans-2e"/>
       <use x="95.410156" xlink:href="#DejaVuSans-36"/>
      </g>
     </g>
    </g>
    <g id="ytick_9">
     <g id="line2d_16">
      <g>
       <use style="stroke:#000000;stroke-width:0.8;" x="43.78125" xlink:href="#m19c729627c" y="34.664505"/>
      </g>
     </g>
     <g id="text_17">
      <!-- 1.8 -->
      <g transform="translate(20.878125 38.463724)scale(0.1 -0.1)">
       <use xlink:href="#DejaVuSans-31"/>
       <use x="63.623047" xlink:href="#DejaVuSans-2e"/>
       <use x="95.410156" xlink:href="#DejaVuSans-38"/>
      </g>
     </g>
    </g>
    <g id="text_18">
     <!-- average maxQ -->
     <defs>
      <path d="M 34.28125 27.484375 
Q 23.390625 27.484375 19.1875 25 
Q 14.984375 22.515625 14.984375 16.5 
Q 14.984375 11.71875 18.140625 8.90625 
Q 21.296875 6.109375 26.703125 6.109375 
Q 34.1875 6.109375 38.703125 11.40625 
Q 43.21875 16.703125 43.21875 25.484375 
L 43.21875 27.484375 
z
M 52.203125 31.203125 
L 52.203125 0 
L 43.21875 0 
L 43.21875 8.296875 
Q 40.140625 3.328125 35.546875 0.953125 
Q 30.953125 -1.421875 24.3125 -1.421875 
Q 15.921875 -1.421875 10.953125 3.296875 
Q 6 8.015625 6 15.921875 
Q 6 25.140625 12.171875 29.828125 
Q 18.359375 34.515625 30.609375 34.515625 
L 43.21875 34.515625 
L 43.21875 35.40625 
Q 43.21875 41.609375 39.140625 45 
Q 35.0625 48.390625 27.6875 48.390625 
Q 23 48.390625 18.546875 47.265625 
Q 14.109375 46.140625 10.015625 43.890625 
L 10.015625 52.203125 
Q 14.9375 54.109375 19.578125 55.046875 
Q 24.21875 56 28.609375 56 
Q 40.484375 56 46.34375 49.84375 
Q 52.203125 43.703125 52.203125 31.203125 
z
" id="DejaVuSans-61"/>
      <path d="M 2.984375 54.6875 
L 12.5 54.6875 
L 29.59375 8.796875 
L 46.6875 54.6875 
L 56.203125 54.6875 
L 35.6875 0 
L 23.484375 0 
z
" id="DejaVuSans-76"/>
      <path d="M 41.109375 46.296875 
Q 39.59375 47.171875 37.8125 47.578125 
Q 36.03125 48 33.890625 48 
Q 26.265625 48 22.1875 43.046875 
Q 18.109375 38.09375 18.109375 28.8125 
L 18.109375 0 
L 9.078125 0 
L 9.078125 54.6875 
L 18.109375 54.6875 
L 18.109375 46.1875 
Q 20.953125 51.171875 25.484375 53.578125 
Q 30.03125 56 36.53125 56 
Q 37.453125 56 38.578125 55.875 
Q 39.703125 55.765625 41.0625 55.515625 
z
" id="DejaVuSans-72"/>
      <path d="M 45.40625 27.984375 
Q 45.40625 37.75 41.375 43.109375 
Q 37.359375 48.484375 30.078125 48.484375 
Q 22.859375 48.484375 18.828125 43.109375 
Q 14.796875 37.75 14.796875 27.984375 
Q 14.796875 18.265625 18.828125 12.890625 
Q 22.859375 7.515625 30.078125 7.515625 
Q 37.359375 7.515625 41.375 12.890625 
Q 45.40625 18.265625 45.40625 27.984375 
z
M 54.390625 6.78125 
Q 54.390625 -7.171875 48.1875 -13.984375 
Q 42 -20.796875 29.203125 -20.796875 
Q 24.46875 -20.796875 20.265625 -20.09375 
Q 16.0625 -19.390625 12.109375 -17.921875 
L 12.109375 -9.1875 
Q 16.0625 -11.328125 19.921875 -12.34375 
Q 23.78125 -13.375 27.78125 -13.375 
Q 36.625 -13.375 41.015625 -8.765625 
Q 45.40625 -4.15625 45.40625 5.171875 
L 45.40625 9.625 
Q 42.625 4.78125 38.28125 2.390625 
Q 33.9375 0 27.875 0 
Q 17.828125 0 11.671875 7.65625 
Q 5.515625 15.328125 5.515625 27.984375 
Q 5.515625 40.671875 11.671875 48.328125 
Q 17.828125 56 27.875 56 
Q 33.9375 56 38.28125 53.609375 
Q 42.625 51.21875 45.40625 46.390625 
L 45.40625 54.6875 
L 54.390625 54.6875 
z
" id="DejaVuSans-67"/>
      <path id="DejaVuSans-20"/>
      <path d="M 52 44.1875 
Q 55.375 50.25 60.0625 53.125 
Q 64.75 56 71.09375 56 
Q 79.640625 56 84.28125 50.015625 
Q 88.921875 44.046875 88.921875 33.015625 
L 88.921875 0 
L 79.890625 0 
L 79.890625 32.71875 
Q 79.890625 40.578125 77.09375 44.375 
Q 74.3125 48.1875 68.609375 48.1875 
Q 61.625 48.1875 57.5625 43.546875 
Q 53.515625 38.921875 53.515625 30.90625 
L 53.515625 0 
L 44.484375 0 
L 44.484375 32.71875 
Q 44.484375 40.625 41.703125 44.40625 
Q 38.921875 48.1875 33.109375 48.1875 
Q 26.21875 48.1875 22.15625 43.53125 
Q 18.109375 38.875 18.109375 30.90625 
L 18.109375 0 
L 9.078125 0 
L 9.078125 54.6875 
L 18.109375 54.6875 
L 18.109375 46.1875 
Q 21.1875 51.21875 25.484375 53.609375 
Q 29.78125 56 35.6875 56 
Q 41.65625 56 45.828125 52.96875 
Q 50 49.953125 52 44.1875 
z
" id="DejaVuSans-6d"/>
      <path d="M 54.890625 54.6875 
L 35.109375 28.078125 
L 55.90625 0 
L 45.3125 0 
L 29.390625 21.484375 
L 13.484375 0 
L 2.875 0 
L 24.125 28.609375 
L 4.6875 54.6875 
L 15.28125 54.6875 
L 29.78125 35.203125 
L 44.28125 54.6875 
z
" id="DejaVuSans-78"/>
      <path d="M 39.40625 66.21875 
Q 28.65625 66.21875 22.328125 58.203125 
Q 16.015625 50.203125 16.015625 36.375 
Q 16.015625 22.609375 22.328125 14.59375 
Q 28.65625 6.59375 39.40625 6.59375 
Q 50.140625 6.59375 56.421875 14.59375 
Q 62.703125 22.609375 62.703125 36.375 
Q 62.703125 50.203125 56.421875 58.203125 
Q 50.140625 66.21875 39.40625 66.21875 
z
M 53.21875 1.3125 
L 66.21875 -12.890625 
L 54.296875 -12.890625 
L 43.5 -1.21875 
Q 41.890625 -1.3125 41.03125 -1.359375 
Q 40.1875 -1.421875 39.40625 -1.421875 
Q 24.03125 -1.421875 14.8125 8.859375 
Q 5.609375 19.140625 5.609375 36.375 
Q 5.609375 53.65625 14.8125 63.9375 
Q 24.03125 74.21875 39.40625 74.21875 
Q 54.734375 74.21875 63.90625 63.9375 
Q 73.09375 53.65625 73.09375 36.375 
Q 73.09375 23.6875 67.984375 14.640625 
Q 62.890625 5.609375 53.21875 1.3125 
z
" id="DejaVuSans-51"/>
     </defs>
     <g transform="translate(14.798438 192.263187)rotate(-90)scale(0.1 -0.1)">
      <use xlink:href="#DejaVuSans-61"/>
      <use x="61.279297" xlink:href="#DejaVuSans-76"/>
      <use x="120.458984" xlink:href="#DejaVuSans-65"/>
      <use x="181.982422" xlink:href="#DejaVuSans-72"/>
      <use x="223.095703" xlink:href="#DejaVuSans-61"/>
      <use x="284.375" xlink:href="#DejaVuSans-67"/>
      <use x="347.851562" xlink:href="#DejaVuSans-65"/>
      <use x="409.375" xlink:href="#DejaVuSans-20"/>
      <use x="441.162109" xlink:href="#DejaVuSans-6d"/>
      <use x="538.574219" xlink:href="#DejaVuSans-61"/>
      <use x="599.853516" xlink:href="#DejaVuSans-78"/>
      <use x="659.033203" xlink:href="#DejaVuSans-51"/>
     </g>
    </g>
   </g>
   <g id="line2d_17">
    <path clip-path="url(#p19d391f019)" d="M 60.013977 182.37908 
L 60.52125 182.894965 
L 61.028523 189.908698 
L 61.535795 179.116207 
L 62.043068 181.267311 
L 62.550341 180.496894 
L 63.057614 182.668121 
L 63.564886 186.430371 
L 64.072159 183.636865 
L 64.579432 187.611599 
L 65.086705 182.909236 
L 65.593977 180.586128 
L 66.10125 181.669666 
L 66.608523 181.895428 
L 67.115795 180.486194 
L 67.623068 181.877445 
L 68.130341 193.434239 
L 68.637614 179.235741 
L 69.144886 181.237369 
L 69.652159 182.399872 
L 70.159432 184.839928 
L 70.666705 191.789926 
L 71.173977 186.939084 
L 71.68125 183.500496 
L 72.188523 183.901895 
L 72.695795 183.521204 
L 73.203068 183.357973 
L 73.710341 179.422326 
L 74.217614 193.678247 
L 74.724886 187.733636 
L 75.232159 179.989224 
L 75.739432 181.506689 
L 76.246705 188.022029 
L 76.753977 180.258605 
L 77.26125 180.175876 
L 77.768523 182.457841 
L 78.275795 182.100553 
L 78.783068 181.149353 
L 79.290341 181.279167 
L 79.797614 190.315628 
L 80.304886 194.811759 
L 80.812159 179.467074 
L 81.319432 181.179047 
L 81.826705 188.801857 
L 82.333977 180.394819 
L 82.84125 182.09526 
L 83.348523 182.74758 
L 83.855795 180.870065 
L 84.363068 185.111953 
L 84.870341 181.531427 
L 85.377614 182.958006 
L 85.884886 181.364648 
L 86.392159 183.484814 
L 86.899432 180.967006 
L 87.406705 187.024589 
L 87.913977 187.797117 
L 88.42125 180.181344 
L 88.928523 179.075288 
L 89.435795 190.352722 
L 89.943068 179.757085 
L 90.450341 182.256316 
L 90.957614 182.578386 
L 91.464886 179.978592 
L 91.972159 179.334545 
L 92.479432 180.957769 
L 92.986705 176.558536 
L 93.493977 276.334125 
L 94.00125 222.972373 
L 94.508523 262.277838 
L 95.015795 248.392255 
L 95.523068 252.064983 
L 96.030341 247.728117 
L 96.537614 245.743093 
L 97.044886 243.029511 
L 97.552159 242.723248 
L 98.059432 237.763222 
L 98.566705 234.982647 
L 99.073977 233.077014 
L 99.58125 231.793083 
L 100.088523 228.276872 
L 100.595795 232.173554 
L 101.103068 224.394213 
L 101.610341 225.349628 
L 102.624886 219.208615 
L 103.132159 220.840165 
L 103.639432 220.578095 
L 104.146705 219.345823 
L 104.653977 217.622973 
L 105.16125 212.521315 
L 105.668523 210.254038 
L 106.175795 209.08623 
L 106.683068 210.045014 
L 107.190341 225.309175 
L 107.697614 204.853988 
L 108.204886 206.535941 
L 108.712159 203.132713 
L 109.219432 198.126785 
L 109.726705 195.987957 
L 110.233977 210.607925 
L 110.74125 196.268306 
L 111.248523 198.646722 
L 111.755795 191.715887 
L 112.263068 191.050231 
L 112.770341 192.26956 
L 113.277614 192.064334 
L 113.784886 190.693073 
L 114.292159 190.650112 
L 114.799432 182.667869 
L 115.306705 184.918216 
L 115.813977 179.640571 
L 116.32125 192.303528 
L 116.828523 179.306041 
L 117.843068 178.234254 
L 118.350341 180.534176 
L 118.857614 177.1139 
L 119.364886 174.763247 
L 119.872159 173.568845 
L 120.379432 177.612129 
L 120.886705 178.293449 
L 121.393977 166.186162 
L 121.90125 176.466883 
L 122.408523 175.776891 
L 122.915795 173.719811 
L 123.423068 188.554019 
L 123.930341 173.393507 
L 124.437614 180.688605 
L 124.944886 161.48496 
L 125.452159 168.123288 
L 126.466705 160.719914 
L 126.973977 149.362213 
L 127.48125 177.056162 
L 127.988523 152.591774 
L 128.495795 174.496604 
L 129.003068 149.374795 
L 129.510341 175.856555 
L 130.017614 177.158206 
L 130.524886 147.886387 
L 131.032159 159.208037 
L 131.539432 164.913592 
L 132.046705 165.820223 
L 133.06125 141.853327 
L 133.568523 139.169456 
L 134.075795 162.06004 
L 134.583068 133.921984 
L 135.090341 138.067376 
L 135.597614 135.618927 
L 136.104886 134.579089 
L 136.612159 136.543873 
L 137.119432 136.796712 
L 137.626705 167.580793 
L 138.133977 128.196317 
L 138.64125 172.607648 
L 139.148523 143.848537 
L 139.655795 126.421858 
L 140.163068 132.448182 
L 140.670341 134.073858 
L 141.177614 127.652148 
L 141.684886 135.581612 
L 142.192159 130.66398 
L 142.699432 146.163474 
L 143.206705 136.856406 
L 143.713977 132.403118 
L 144.22125 131.623637 
L 144.728523 128.473613 
L 145.235795 128.312038 
L 145.743068 126.517149 
L 146.250341 130.828137 
L 146.757614 151.402787 
L 147.264886 135.214935 
L 147.772159 126.872722 
L 148.279432 163.567789 
L 148.786705 156.515118 
L 149.293977 125.468529 
L 149.80125 134.502292 
L 150.308523 109.449048 
L 150.815795 115.351433 
L 151.323068 116.011655 
L 151.830341 121.579471 
L 152.337614 139.830979 
L 152.844886 110.347639 
L 153.352159 105.668503 
L 153.859432 112.182741 
L 154.366705 115.005878 
L 154.873977 112.159636 
L 155.38125 120.392584 
L 155.888523 107.061536 
L 156.395795 112.748316 
L 156.903068 140.022901 
L 157.410341 122.99691 
L 157.917614 142.162076 
L 158.424886 106.667015 
L 158.932159 99.700833 
L 159.439432 122.508454 
L 159.946705 113.458692 
L 160.453977 110.772927 
L 160.96125 95.849812 
L 161.468523 115.540824 
L 161.975795 116.885129 
L 162.483068 95.606226 
L 162.990341 103.969357 
L 163.497614 107.295781 
L 164.004886 99.6072 
L 164.512159 101.147584 
L 165.019432 97.456129 
L 165.526705 111.192195 
L 166.033977 101.044841 
L 166.54125 118.414009 
L 167.048523 105.797502 
L 167.555795 99.341112 
L 168.063068 99.034628 
L 168.570341 90.903233 
L 169.077614 94.346375 
L 169.584886 99.677999 
L 170.092159 89.022921 
L 170.599432 96.408832 
L 171.106705 96.944231 
L 171.613977 122.817744 
L 172.12125 97.741523 
L 172.628523 98.090012 
L 173.135795 89.572729 
L 173.643068 90.935221 
L 174.150341 87.30307 
L 174.657614 96.452163 
L 175.164886 108.313876 
L 175.672159 104.850252 
L 176.179432 102.495453 
L 176.686705 88.572304 
L 177.193977 86.51029 
L 177.70125 115.535039 
L 178.208523 115.333067 
L 178.715795 87.250835 
L 179.223068 85.958726 
L 179.730341 89.088447 
L 180.237614 81.083358 
L 180.744886 100.379902 
L 181.252159 84.616901 
L 181.759432 116.442488 
L 182.266705 113.917095 
L 182.773977 91.852679 
L 183.28125 89.349452 
L 183.788523 90.784871 
L 184.295795 77.148846 
L 184.803068 94.457098 
L 185.310341 78.875329 
L 185.817614 84.4089 
L 186.324886 79.930598 
L 186.832159 80.888965 
L 187.339432 96.305765 
L 187.846705 77.481282 
L 188.353977 94.449049 
L 189.368523 76.676782 
L 189.875795 78.474549 
L 190.383068 84.414812 
L 190.890341 80.979235 
L 191.397614 84.412746 
L 191.904886 94.758718 
L 192.412159 76.676507 
L 192.919432 91.894022 
L 193.426705 79.130841 
L 193.933977 93.876347 
L 194.44125 81.721449 
L 194.948523 98.732981 
L 195.455795 73.199924 
L 195.963068 95.945874 
L 196.470341 98.761435 
L 196.977614 76.999531 
L 197.484886 80.621483 
L 197.992159 75.051191 
L 198.499432 76.679513 
L 199.006705 88.010292 
L 199.513977 76.945638 
L 200.02125 74.010134 
L 200.528523 72.768263 
L 201.035795 81.959621 
L 201.543068 72.197969 
L 202.050341 72.935186 
L 202.557614 81.441953 
L 203.064886 95.960737 
L 203.572159 74.266134 
L 204.079432 84.245828 
L 204.586705 77.412696 
L 205.093977 79.980413 
L 205.60125 87.504093 
L 206.108523 76.5975 
L 206.615795 85.739415 
L 207.123068 71.054281 
L 207.630341 68.839077 
L 208.137614 73.742057 
L 208.644886 75.759586 
L 209.152159 73.068245 
L 209.659432 91.723644 
L 210.166705 66.951494 
L 210.673977 77.260552 
L 211.18125 68.443671 
L 211.688523 68.270078 
L 212.195795 78.196437 
L 212.703068 73.788522 
L 213.210341 72.617695 
L 213.717614 63.636904 
L 214.224886 78.512979 
L 214.732159 87.114026 
L 215.239432 69.147623 
L 215.746705 71.527758 
L 216.253977 82.255611 
L 216.76125 75.983669 
L 217.268523 85.087475 
L 217.775795 68.589561 
L 218.283068 79.73024 
L 218.790341 73.899611 
L 219.297614 59.417228 
L 219.804886 70.753602 
L 220.312159 66.902708 
L 220.819432 64.401025 
L 221.326705 59.692431 
L 221.833977 66.140475 
L 222.34125 60.644832 
L 222.848523 67.415662 
L 223.355795 71.15379 
L 223.863068 56.461029 
L 224.370341 66.161917 
L 224.877614 65.98469 
L 225.384886 61.285475 
L 225.892159 63.71154 
L 226.399432 59.560951 
L 226.906705 74.593886 
L 227.413977 59.752682 
L 227.92125 60.129156 
L 228.428523 78.349539 
L 229.443068 61.717176 
L 229.950341 58.135828 
L 230.457614 68.012338 
L 230.964886 63.351805 
L 231.472159 69.806776 
L 231.979432 57.127405 
L 232.486705 56.263514 
L 232.993977 54.955783 
L 233.50125 58.019228 
L 234.008523 55.313416 
L 234.515795 67.025108 
L 235.023068 55.396581 
L 235.530341 54.494008 
L 236.037614 59.897002 
L 236.544886 58.460074 
L 237.052159 75.247132 
L 237.559432 52.567797 
L 238.066705 56.435704 
L 238.573977 68.078965 
L 239.08125 62.024812 
L 239.588523 54.130593 
L 240.095795 74.872449 
L 240.603068 58.745872 
L 241.110341 52.573033 
L 241.617614 58.317542 
L 242.632159 51.953591 
L 243.139432 62.085592 
L 243.646705 55.64314 
L 244.153977 68.301829 
L 244.66125 59.207325 
L 245.168523 52.682741 
L 245.675795 54.135317 
L 246.183068 53.959756 
L 246.690341 54.945361 
L 247.197614 47.117817 
L 247.704886 49.49472 
L 248.212159 57.996667 
L 248.719432 58.555577 
L 249.226705 61.410952 
L 249.733977 47.287089 
L 250.24125 52.058759 
L 250.748523 48.961366 
L 251.255795 56.47215 
L 251.763068 49.798669 
L 252.270341 51.887309 
L 252.777614 53.292003 
L 253.284886 49.904006 
L 253.792159 56.958274 
L 254.299432 52.990292 
L 254.806705 50.725384 
L 255.313977 64.822337 
L 255.82125 53.155757 
L 256.328523 49.239272 
L 256.835795 50.078686 
L 257.343068 56.455541 
L 257.850341 60.052047 
L 258.357614 68.223229 
L 258.864886 52.255811 
L 259.372159 63.137379 
L 259.879432 50.737271 
L 260.386705 48.975653 
L 260.893977 48.126704 
L 261.40125 46.629858 
L 261.908523 43.723751 
L 262.415795 60.349077 
L 262.923068 46.776859 
L 263.430341 43.847996 
L 263.937614 48.77102 
L 264.444886 55.52691 
L 264.952159 55.537117 
L 265.459432 52.846161 
L 265.966705 51.729206 
L 266.473977 58.231061 
L 266.98125 62.767874 
L 267.488523 48.277004 
L 267.995795 46.544001 
L 268.503068 47.420718 
L 269.517614 48.305108 
L 270.024886 48.029218 
L 270.532159 67.819924 
L 271.039432 49.675049 
L 271.546705 47.83159 
L 272.053977 49.545196 
L 272.56125 60.377251 
L 273.068523 48.441203 
L 273.575795 49.676409 
L 274.083068 46.367412 
L 274.590341 47.237636 
L 275.097614 49.933287 
L 275.604886 51.408273 
L 276.112159 47.487214 
L 276.619432 46.792517 
L 277.126705 44.460183 
L 277.633977 47.551472 
L 278.14125 42.428374 
L 278.648523 46.347086 
L 279.155795 47.757585 
L 279.663068 56.644939 
L 280.170341 47.229841 
L 280.677614 51.723027 
L 281.184886 48.767872 
L 281.692159 49.541741 
L 282.199432 48.92225 
L 282.706705 52.900947 
L 283.213977 50.129429 
L 283.72125 42.623192 
L 284.228523 49.29081 
L 284.735795 50.709332 
L 285.243068 48.192123 
L 285.750341 43.565211 
L 286.257614 50.660259 
L 286.764886 41.613361 
L 287.272159 46.854917 
L 287.779432 56.863928 
L 288.286705 47.836418 
L 288.793977 47.387496 
L 289.30125 46.679826 
L 289.808523 41.240188 
L 290.315795 38.476991 
L 290.823068 47.666086 
L 291.837614 55.369167 
L 292.852159 49.217705 
L 293.359432 47.865273 
L 293.866705 44.247055 
L 294.373977 48.550441 
L 294.88125 44.377019 
L 295.388523 44.269953 
L 295.895795 42.004734 
L 296.403068 53.895002 
L 296.910341 48.533457 
L 297.417614 57.436307 
L 297.924886 43.976699 
L 298.432159 38.404782 
L 298.939432 44.62733 
L 299.446705 45.673965 
L 299.953977 41.75971 
L 300.46125 51.186098 
L 300.968523 52.779711 
L 301.475795 46.402239 
L 301.983068 59.375997 
L 302.490341 37.931066 
L 302.997614 39.074652 
L 303.504886 44.823406 
L 304.012159 63.942508 
L 304.519432 48.339463 
L 305.533977 49.662881 
L 306.04125 46.313999 
L 306.548523 45.294831 
L 307.055795 63.868353 
L 307.563068 45.781641 
L 308.070341 50.968456 
L 308.577614 39.265679 
L 309.084886 45.463155 
L 309.592159 46.886856 
L 310.099432 41.436345 
L 310.606705 52.533419 
L 311.113977 59.224415 
L 311.62125 41.727163 
L 312.128523 50.248333 
L 312.635795 48.532244 
L 313.143068 40.286542 
L 313.650341 45.211025 
L 314.157614 48.789629 
L 314.664886 34.490434 
L 315.679432 52.296808 
L 316.186705 48.745461 
L 316.693977 65.147911 
L 317.20125 42.36063 
L 317.708523 61.668747 
L 318.215795 41.368516 
L 318.723068 48.304148 
L 319.230341 62.825807 
L 319.737614 62.034106 
L 320.244886 45.732865 
L 320.752159 39.217255 
L 321.259432 47.456772 
L 321.766705 41.014032 
L 322.78125 51.319878 
L 323.288523 52.518516 
L 323.795795 43.054623 
L 324.303068 54.267279 
L 324.810341 46.192467 
L 325.317614 52.449221 
L 325.824886 51.840145 
L 326.332159 50.43157 
L 326.839432 46.295674 
L 327.346705 54.741384 
L 327.853977 60.062831 
L 328.36125 61.138379 
L 328.868523 54.852283 
L 329.375795 52.829736 
L 329.883068 55.25919 
L 330.390341 48.495266 
L 330.897614 52.98403 
L 331.404886 49.907475 
L 331.912159 55.587942 
L 332.419432 46.971153 
L 332.926705 45.125148 
L 333.433977 55.828154 
L 333.94125 56.633239 
L 334.448523 46.477702 
L 334.955795 47.214146 
L 335.463068 60.10156 
L 335.970341 64.975526 
L 336.477614 59.409865 
L 336.984886 44.419178 
L 337.492159 59.920712 
L 337.999432 51.551333 
L 338.506705 48.439668 
L 339.013977 44.21093 
L 339.52125 45.801585 
L 340.535795 59.459582 
L 341.043068 49.060769 
L 341.550341 46.559037 
L 342.057614 53.072431 
L 342.564886 51.21134 
L 343.072159 55.285436 
L 343.579432 52.00868 
L 344.086705 52.69691 
L 344.593977 55.806711 
L 345.10125 53.722855 
L 345.608523 43.034799 
L 346.115795 42.364361 
L 346.623068 50.830875 
L 347.130341 44.90624 
L 347.637614 56.011962 
L 348.652159 41.885035 
L 349.159432 56.10217 
L 349.666705 49.888238 
L 350.173977 45.318309 
L 350.68125 46.130537 
L 351.188523 50.005671 
L 351.695795 52.822065 
L 352.203068 45.146046 
L 352.710341 44.096277 
L 353.217614 54.342262 
L 353.724886 49.041989 
L 354.232159 46.208715 
L 354.739432 47.94464 
L 355.246705 51.588465 
L 355.753977 48.979125 
L 356.26125 45.291308 
L 356.768523 63.731659 
L 357.275795 59.887234 
L 357.783068 43.669762 
L 358.290341 54.480941 
L 358.797614 44.466466 
L 359.304886 48.345641 
L 359.812159 56.146503 
L 360.319432 49.635137 
L 360.826705 47.825899 
L 361.333977 62.219944 
L 361.84125 63.191818 
L 362.348523 56.225302 
L 362.855795 43.551605 
L 363.363068 66.986453 
L 363.870341 50.819272 
L 364.377614 56.333219 
L 364.884886 57.819934 
L 365.392159 34.414125 
L 365.899432 46.359899 
L 366.406705 45.012553 
L 366.913977 49.338789 
L 367.42125 51.702649 
L 367.928523 55.774682 
L 368.943068 59.470214 
L 369.450341 55.806209 
L 369.957614 48.958416 
L 370.464886 63.612055 
L 370.972159 53.977187 
L 371.479432 51.216284 
L 371.986705 54.225338 
L 372.493977 58.829076 
L 373.00125 48.12283 
L 373.508523 47.505625 
L 374.015795 55.623855 
L 375.030341 42.815022 
L 375.537614 45.008408 
L 376.044886 46.47926 
L 376.552159 58.706675 
L 377.059432 47.899232 
L 377.566705 45.45485 
L 378.073977 45.96965 
L 378.58125 44.204101 
L 379.088523 59.065593 
L 379.595795 52.573567 
L 380.103068 60.729376 
L 380.610341 42.489066 
L 381.117614 48.551692 
L 381.624886 51.718782 
L 382.132159 52.550443 
L 382.639432 45.531625 
L 383.146705 46.667149 
L 383.653977 50.509902 
L 384.16125 47.12954 
L 384.668523 50.167581 
L 384.668523 50.167581 
" style="fill:none;stroke:#1f77b4;stroke-linecap:square;stroke-width:0.5;"/>
   </g>
   <g id="patch_3">
    <path d="M 43.78125 288.430125 
L 43.78125 22.318125 
" style="fill:none;stroke:#000000;stroke-linecap:square;stroke-linejoin:miter;stroke-width:0.8;"/>
   </g>
   <g id="patch_4">
    <path d="M 400.90125 288.430125 
L 400.90125 22.318125 
" style="fill:none;stroke:#000000;stroke-linecap:square;stroke-linejoin:miter;stroke-width:0.8;"/>
   </g>
   <g id="patch_5">
    <path d="M 43.78125 288.430125 
L 400.90125 288.430125 
" style="fill:none;stroke:#000000;stroke-linecap:square;stroke-linejoin:miter;stroke-width:0.8;"/>
   </g>
   <g id="patch_6">
    <path d="M 43.78125 22.318125 
L 400.90125 22.318125 
" style="fill:none;stroke:#000000;stroke-linecap:square;stroke-linejoin:miter;stroke-width:0.8;"/>
   </g>
   <g id="text_19">
    <!-- Average maxQ per episode, joint3 -->
    <defs>
     <path d="M 34.1875 63.1875 
L 20.796875 26.90625 
L 47.609375 26.90625 
z
M 28.609375 72.90625 
L 39.796875 72.90625 
L 67.578125 0 
L 57.328125 0 
L 50.6875 18.703125 
L 17.828125 18.703125 
L 11.1875 0 
L 0.78125 0 
z
" id="DejaVuSans-41"/>
     <path d="M 11.71875 12.40625 
L 22.015625 12.40625 
L 22.015625 4 
L 14.015625 -11.625 
L 7.71875 -11.625 
L 11.71875 4 
z
" id="DejaVuSans-2c"/>
     <path d="M 9.421875 54.6875 
L 18.40625 54.6875 
L 18.40625 -0.984375 
Q 18.40625 -11.421875 14.421875 -16.109375 
Q 10.453125 -20.796875 1.609375 -20.796875 
L -1.8125 -20.796875 
L -1.8125 -13.1875 
L 0.59375 -13.1875 
Q 5.71875 -13.1875 7.5625 -10.8125 
Q 9.421875 -8.453125 9.421875 -0.984375 
z
M 9.421875 75.984375 
L 18.40625 75.984375 
L 18.40625 64.59375 
L 9.421875 64.59375 
z
" id="DejaVuSans-6a"/>
     <path d="M 54.890625 33.015625 
L 54.890625 0 
L 45.90625 0 
L 45.90625 32.71875 
Q 45.90625 40.484375 42.875 44.328125 
Q 39.84375 48.1875 33.796875 48.1875 
Q 26.515625 48.1875 22.3125 43.546875 
Q 18.109375 38.921875 18.109375 30.90625 
L 18.109375 0 
L 9.078125 0 
L 9.078125 54.6875 
L 18.109375 54.6875 
L 18.109375 46.1875 
Q 21.34375 51.125 25.703125 53.5625 
Q 30.078125 56 35.796875 56 
Q 45.21875 56 50.046875 50.171875 
Q 54.890625 44.34375 54.890625 33.015625 
z
" id="DejaVuSans-6e"/>
     <path d="M 18.3125 70.21875 
L 18.3125 54.6875 
L 36.8125 54.6875 
L 36.8125 47.703125 
L 18.3125 47.703125 
L 18.3125 18.015625 
Q 18.3125 11.328125 20.140625 9.421875 
Q 21.96875 7.515625 27.59375 7.515625 
L 36.8125 7.515625 
L 36.8125 0 
L 27.59375 0 
Q 17.1875 0 13.234375 3.875 
Q 9.28125 7.765625 9.28125 18.015625 
L 9.28125 47.703125 
L 2.6875 47.703125 
L 2.6875 54.6875 
L 9.28125 54.6875 
L 9.28125 70.21875 
z
" id="DejaVuSans-74"/>
    </defs>
    <g transform="translate(119.61375 16.318125)scale(0.12 -0.12)">
     <use xlink:href="#DejaVuSans-41"/>
     <use x="68.330078" xlink:href="#DejaVuSans-76"/>
     <use x="127.509766" xlink:href="#DejaVuSans-65"/>
     <use x="189.033203" xlink:href="#DejaVuSans-72"/>
     <use x="230.146484" xlink:href="#DejaVuSans-61"/>
     <use x="291.425781" xlink:href="#DejaVuSans-67"/>
     <use x="354.902344" xlink:href="#DejaVuSans-65"/>
     <use x="416.425781" xlink:href="#DejaVuSans-20"/>
     <use x="448.212891" xlink:href="#DejaVuSans-6d"/>
     <use x="545.625" xlink:href="#DejaVuSans-61"/>
     <use x="606.904297" xlink:href="#DejaVuSans-78"/>
     <use x="666.083984" xlink:href="#DejaVuSans-51"/>
     <use x="744.794922" xlink:href="#DejaVuSans-20"/>
     <use x="776.582031" xlink:href="#DejaVuSans-70"/>
     <use x="840.058594" xlink:href="#DejaVuSans-65"/>
     <use x="901.582031" xlink:href="#DejaVuSans-72"/>
     <use x="942.695312" xlink:href="#DejaVuSans-20"/>
     <use x="974.482422" xlink:href="#DejaVuSans-65"/>
     <use x="1036.005859" xlink:href="#DejaVuSans-70"/>
     <use x="1099.482422" xlink:href="#DejaVuSans-69"/>
     <use x="1127.265625" xlink:href="#DejaVuSans-73"/>
     <use x="1179.365234" xlink:href="#DejaVuSans-6f"/>
     <use x="1240.546875" xlink:href="#DejaVuSans-64"/>
     <use x="1304.023438" xlink:href="#DejaVuSans-65"/>
     <use x="1365.546875" xlink:href="#DejaVuSans-2c"/>
     <use x="1397.333984" xlink:href="#DejaVuSans-20"/>
     <use x="1429.121094" xlink:href="#DejaVuSans-6a"/>
     <use x="1456.904297" xlink:href="#DejaVuSans-6f"/>
     <use x="1518.085938" xlink:href="#DejaVuSans-69"/>
     <use x="1545.869141" xlink:href="#DejaVuSans-6e"/>
     <use x="1609.248047" xlink:href="#DejaVuSans-74"/>
     <use x="1648.457031" xlink:href="#DejaVuSans-33"/>
    </g>
   </g>
  </g>
 </g>
 <defs>
  <clipPath id="p19d391f019">
   <rect height="266.112" width="357.12" x="43.78125" y="22.318125"/>
  </clipPath>
 </defs>
</svg>
