<?xml version="1.0" encoding="utf-8" standalone="no"?>
<!DOCTYPE svg PUBLIC "-//W3C//DTD SVG 1.1//EN"
  "http://www.w3.org/Graphics/SVG/1.1/DTD/svg11.dtd">
<!-- Created with matplotlib (http://matplotlib.org/) -->
<svg height="325pt" version="1.1" viewBox="0 0 417 325" width="417pt" xmlns="http://www.w3.org/2000/svg" xmlns:xlink="http://www.w3.org/1999/xlink">
 <defs>
  <style type="text/css">
*{stroke-linecap:butt;stroke-linejoin:round;}
  </style>
 </defs>
 <g id="figure_1">
  <g id="patch_1">
   <path d="M 0 325.986375 
L 417.96375 325.986375 
L 417.96375 0 
L 0 0 
z
" style="fill:#ffffff;"/>
  </g>
  <g id="axes_1">
   <g id="patch_2">
    <path d="M 50.14375 288.430125 
L 407.26375 288.430125 
L 407.26375 22.318125 
L 50.14375 22.318125 
z
" style="fill:#ffffff;"/>
   </g>
   <g id="matplotlib.axis_1">
    <g id="xtick_1">
     <g id="line2d_1">
      <defs>
       <path d="M 0 0 
L 0 3.5 
" id="mdf53d7badf" style="stroke:#000000;stroke-width:0.8;"/>
      </defs>
      <g>
       <use style="stroke:#000000;stroke-width:0.8;" x="65.869205" xlink:href="#mdf53d7badf" y="288.430125"/>
      </g>
     </g>
     <g id="text_1">
      <!-- 0 -->
      <defs>
       <path d="M 31.78125 66.40625 
Q 24.171875 66.40625 20.328125 58.90625 
Q 16.5 51.421875 16.5 36.375 
Q 16.5 21.390625 20.328125 13.890625 
Q 24.171875 6.390625 31.78125 6.390625 
Q 39.453125 6.390625 43.28125 13.890625 
Q 47.125 21.390625 47.125 36.375 
Q 47.125 51.421875 43.28125 58.90625 
Q 39.453125 66.40625 31.78125 66.40625 
z
M 31.78125 74.21875 
Q 44.046875 74.21875 50.515625 64.515625 
Q 56.984375 54.828125 56.984375 36.375 
Q 56.984375 17.96875 50.515625 8.265625 
Q 44.046875 -1.421875 31.78125 -1.421875 
Q 19.53125 -1.421875 13.0625 8.265625 
Q 6.59375 17.96875 6.59375 36.375 
Q 6.59375 54.828125 13.0625 64.515625 
Q 19.53125 74.21875 31.78125 74.21875 
z
" id="DejaVuSans-30"/>
      </defs>
      <g transform="translate(62.687955 303.028562)scale(0.1 -0.1)">
       <use xlink:href="#DejaVuSans-30"/>
      </g>
     </g>
    </g>
    <g id="xtick_2">
     <g id="line2d_2">
      <g>
       <use style="stroke:#000000;stroke-width:0.8;" x="116.596477" xlink:href="#mdf53d7badf" y="288.430125"/>
      </g>
     </g>
     <g id="text_2">
      <!-- 100 -->
      <defs>
       <path d="M 12.40625 8.296875 
L 28.515625 8.296875 
L 28.515625 63.921875 
L 10.984375 60.40625 
L 10.984375 69.390625 
L 28.421875 72.90625 
L 38.28125 72.90625 
L 38.28125 8.296875 
L 54.390625 8.296875 
L 54.390625 0 
L 12.40625 0 
z
" id="DejaVuSans-31"/>
      </defs>
      <g transform="translate(107.052727 303.028562)scale(0.1 -0.1)">
       <use xlink:href="#DejaVuSans-31"/>
       <use x="63.623047" xlink:href="#DejaVuSans-30"/>
       <use x="127.246094" xlink:href="#DejaVuSans-30"/>
      </g>
     </g>
    </g>
    <g id="xtick_3">
     <g id="line2d_3">
      <g>
       <use style="stroke:#000000;stroke-width:0.8;" x="167.32375" xlink:href="#mdf53d7badf" y="288.430125"/>
      </g>
     </g>
     <g id="text_3">
      <!-- 200 -->
      <defs>
       <path d="M 19.1875 8.296875 
L 53.609375 8.296875 
L 53.609375 0 
L 7.328125 0 
L 7.328125 8.296875 
Q 12.9375 14.109375 22.625 23.890625 
Q 32.328125 33.6875 34.8125 36.53125 
Q 39.546875 41.84375 41.421875 45.53125 
Q 43.3125 49.21875 43.3125 52.78125 
Q 43.3125 58.59375 39.234375 62.25 
Q 35.15625 65.921875 28.609375 65.921875 
Q 23.96875 65.921875 18.8125 64.3125 
Q 13.671875 62.703125 7.8125 59.421875 
L 7.8125 69.390625 
Q 13.765625 71.78125 18.9375 73 
Q 24.125 74.21875 28.421875 74.21875 
Q 39.75 74.21875 46.484375 68.546875 
Q 53.21875 62.890625 53.21875 53.421875 
Q 53.21875 48.921875 51.53125 44.890625 
Q 49.859375 40.875 45.40625 35.40625 
Q 44.1875 33.984375 37.640625 27.21875 
Q 31.109375 20.453125 19.1875 8.296875 
z
" id="DejaVuSans-32"/>
      </defs>
      <g transform="translate(157.78 303.028562)scale(0.1 -0.1)">
       <use xlink:href="#DejaVuSans-32"/>
       <use x="63.623047" xlink:href="#DejaVuSans-30"/>
       <use x="127.246094" xlink:href="#DejaVuSans-30"/>
      </g>
     </g>
    </g>
    <g id="xtick_4">
     <g id="line2d_4">
      <g>
       <use style="stroke:#000000;stroke-width:0.8;" x="218.051023" xlink:href="#mdf53d7badf" y="288.430125"/>
      </g>
     </g>
     <g id="text_4">
      <!-- 300 -->
      <defs>
       <path d="M 40.578125 39.3125 
Q 47.65625 37.796875 51.625 33 
Q 55.609375 28.21875 55.609375 21.1875 
Q 55.609375 10.40625 48.1875 4.484375 
Q 40.765625 -1.421875 27.09375 -1.421875 
Q 22.515625 -1.421875 17.65625 -0.515625 
Q 12.796875 0.390625 7.625 2.203125 
L 7.625 11.71875 
Q 11.71875 9.328125 16.59375 8.109375 
Q 21.484375 6.890625 26.8125 6.890625 
Q 36.078125 6.890625 40.9375 10.546875 
Q 45.796875 14.203125 45.796875 21.1875 
Q 45.796875 27.640625 41.28125 31.265625 
Q 36.765625 34.90625 28.71875 34.90625 
L 20.21875 34.90625 
L 20.21875 43.015625 
L 29.109375 43.015625 
Q 36.375 43.015625 40.234375 45.921875 
Q 44.09375 48.828125 44.09375 54.296875 
Q 44.09375 59.90625 40.109375 62.90625 
Q 36.140625 65.921875 28.71875 65.921875 
Q 24.65625 65.921875 20.015625 65.03125 
Q 15.375 64.15625 9.8125 62.3125 
L 9.8125 71.09375 
Q 15.4375 72.65625 20.34375 73.4375 
Q 25.25 74.21875 29.59375 74.21875 
Q 40.828125 74.21875 47.359375 69.109375 
Q 53.90625 64.015625 53.90625 55.328125 
Q 53.90625 49.265625 50.4375 45.09375 
Q 46.96875 40.921875 40.578125 39.3125 
z
" id="DejaVuSans-33"/>
      </defs>
      <g transform="translate(208.507273 303.028562)scale(0.1 -0.1)">
       <use xlink:href="#DejaVuSans-33"/>
       <use x="63.623047" xlink:href="#DejaVuSans-30"/>
       <use x="127.246094" xlink:href="#DejaVuSans-30"/>
      </g>
     </g>
    </g>
    <g id="xtick_5">
     <g id="line2d_5">
      <g>
       <use style="stroke:#000000;stroke-width:0.8;" x="268.778295" xlink:href="#mdf53d7badf" y="288.430125"/>
      </g>
     </g>
     <g id="text_5">
      <!-- 400 -->
      <defs>
       <path d="M 37.796875 64.3125 
L 12.890625 25.390625 
L 37.796875 25.390625 
z
M 35.203125 72.90625 
L 47.609375 72.90625 
L 47.609375 25.390625 
L 58.015625 25.390625 
L 58.015625 17.1875 
L 47.609375 17.1875 
L 47.609375 0 
L 37.796875 0 
L 37.796875 17.1875 
L 4.890625 17.1875 
L 4.890625 26.703125 
z
" id="DejaVuSans-34"/>
      </defs>
      <g transform="translate(259.234545 303.028562)scale(0.1 -0.1)">
       <use xlink:href="#DejaVuSans-34"/>
       <use x="63.623047" xlink:href="#DejaVuSans-30"/>
       <use x="127.246094" xlink:href="#DejaVuSans-30"/>
      </g>
     </g>
    </g>
    <g id="xtick_6">
     <g id="line2d_6">
      <g>
       <use style="stroke:#000000;stroke-width:0.8;" x="319.505568" xlink:href="#mdf53d7badf" y="288.430125"/>
      </g>
     </g>
     <g id="text_6">
      <!-- 500 -->
      <defs>
       <path d="M 10.796875 72.90625 
L 49.515625 72.90625 
L 49.515625 64.59375 
L 19.828125 64.59375 
L 19.828125 46.734375 
Q 21.96875 47.46875 24.109375 47.828125 
Q 26.265625 48.1875 28.421875 48.1875 
Q 40.625 48.1875 47.75 41.5 
Q 54.890625 34.8125 54.890625 23.390625 
Q 54.890625 11.625 47.5625 5.09375 
Q 40.234375 -1.421875 26.90625 -1.421875 
Q 22.3125 -1.421875 17.546875 -0.640625 
Q 12.796875 0.140625 7.71875 1.703125 
L 7.71875 11.625 
Q 12.109375 9.234375 16.796875 8.0625 
Q 21.484375 6.890625 26.703125 6.890625 
Q 35.15625 6.890625 40.078125 11.328125 
Q 45.015625 15.765625 45.015625 23.390625 
Q 45.015625 31 40.078125 35.4375 
Q 35.15625 39.890625 26.703125 39.890625 
Q 22.75 39.890625 18.8125 39.015625 
Q 14.890625 38.140625 10.796875 36.28125 
z
" id="DejaVuSans-35"/>
      </defs>
      <g transform="translate(309.961818 303.028562)scale(0.1 -0.1)">
       <use xlink:href="#DejaVuSans-35"/>
       <use x="63.623047" xlink:href="#DejaVuSans-30"/>
       <use x="127.246094" xlink:href="#DejaVuSans-30"/>
      </g>
     </g>
    </g>
    <g id="xtick_7">
     <g id="line2d_7">
      <g>
       <use style="stroke:#000000;stroke-width:0.8;" x="370.232841" xlink:href="#mdf53d7badf" y="288.430125"/>
      </g>
     </g>
     <g id="text_7">
      <!-- 600 -->
      <defs>
       <path d="M 33.015625 40.375 
Q 26.375 40.375 22.484375 35.828125 
Q 18.609375 31.296875 18.609375 23.390625 
Q 18.609375 15.53125 22.484375 10.953125 
Q 26.375 6.390625 33.015625 6.390625 
Q 39.65625 6.390625 43.53125 10.953125 
Q 47.40625 15.53125 47.40625 23.390625 
Q 47.40625 31.296875 43.53125 35.828125 
Q 39.65625 40.375 33.015625 40.375 
z
M 52.59375 71.296875 
L 52.59375 62.3125 
Q 48.875 64.0625 45.09375 64.984375 
Q 41.3125 65.921875 37.59375 65.921875 
Q 27.828125 65.921875 22.671875 59.328125 
Q 17.53125 52.734375 16.796875 39.40625 
Q 19.671875 43.65625 24.015625 45.921875 
Q 28.375 48.1875 33.59375 48.1875 
Q 44.578125 48.1875 50.953125 41.515625 
Q 57.328125 34.859375 57.328125 23.390625 
Q 57.328125 12.15625 50.6875 5.359375 
Q 44.046875 -1.421875 33.015625 -1.421875 
Q 20.359375 -1.421875 13.671875 8.265625 
Q 6.984375 17.96875 6.984375 36.375 
Q 6.984375 53.65625 15.1875 63.9375 
Q 23.390625 74.21875 37.203125 74.21875 
Q 40.921875 74.21875 44.703125 73.484375 
Q 48.484375 72.75 52.59375 71.296875 
z
" id="DejaVuSans-36"/>
      </defs>
      <g transform="translate(360.689091 303.028562)scale(0.1 -0.1)">
       <use xlink:href="#DejaVuSans-36"/>
       <use x="63.623047" xlink:href="#DejaVuSans-30"/>
       <use x="127.246094" xlink:href="#DejaVuSans-30"/>
      </g>
     </g>
    </g>
    <g id="text_8">
     <!-- episodes -->
     <defs>
      <path d="M 56.203125 29.59375 
L 56.203125 25.203125 
L 14.890625 25.203125 
Q 15.484375 15.921875 20.484375 11.0625 
Q 25.484375 6.203125 34.421875 6.203125 
Q 39.59375 6.203125 44.453125 7.46875 
Q 49.3125 8.734375 54.109375 11.28125 
L 54.109375 2.78125 
Q 49.265625 0.734375 44.1875 -0.34375 
Q 39.109375 -1.421875 33.890625 -1.421875 
Q 20.796875 -1.421875 13.15625 6.1875 
Q 5.515625 13.8125 5.515625 26.8125 
Q 5.515625 40.234375 12.765625 48.109375 
Q 20.015625 56 32.328125 56 
Q 43.359375 56 49.78125 48.890625 
Q 56.203125 41.796875 56.203125 29.59375 
z
M 47.21875 32.234375 
Q 47.125 39.59375 43.09375 43.984375 
Q 39.0625 48.390625 32.421875 48.390625 
Q 24.90625 48.390625 20.390625 44.140625 
Q 15.875 39.890625 15.1875 32.171875 
z
" id="DejaVuSans-65"/>
      <path d="M 18.109375 8.203125 
L 18.109375 -20.796875 
L 9.078125 -20.796875 
L 9.078125 54.6875 
L 18.109375 54.6875 
L 18.109375 46.390625 
Q 20.953125 51.265625 25.265625 53.625 
Q 29.59375 56 35.59375 56 
Q 45.5625 56 51.78125 48.09375 
Q 58.015625 40.1875 58.015625 27.296875 
Q 58.015625 14.40625 51.78125 6.484375 
Q 45.5625 -1.421875 35.59375 -1.421875 
Q 29.59375 -1.421875 25.265625 0.953125 
Q 20.953125 3.328125 18.109375 8.203125 
z
M 48.6875 27.296875 
Q 48.6875 37.203125 44.609375 42.84375 
Q 40.53125 48.484375 33.40625 48.484375 
Q 26.265625 48.484375 22.1875 42.84375 
Q 18.109375 37.203125 18.109375 27.296875 
Q 18.109375 17.390625 22.1875 11.75 
Q 26.265625 6.109375 33.40625 6.109375 
Q 40.53125 6.109375 44.609375 11.75 
Q 48.6875 17.390625 48.6875 27.296875 
z
" id="DejaVuSans-70"/>
      <path d="M 9.421875 54.6875 
L 18.40625 54.6875 
L 18.40625 0 
L 9.421875 0 
z
M 9.421875 75.984375 
L 18.40625 75.984375 
L 18.40625 64.59375 
L 9.421875 64.59375 
z
" id="DejaVuSans-69"/>
      <path d="M 44.28125 53.078125 
L 44.28125 44.578125 
Q 40.484375 46.53125 36.375 47.5 
Q 32.28125 48.484375 27.875 48.484375 
Q 21.1875 48.484375 17.84375 46.4375 
Q 14.5 44.390625 14.5 40.28125 
Q 14.5 37.15625 16.890625 35.375 
Q 19.28125 33.59375 26.515625 31.984375 
L 29.59375 31.296875 
Q 39.15625 29.25 43.1875 25.515625 
Q 47.21875 21.78125 47.21875 15.09375 
Q 47.21875 7.46875 41.1875 3.015625 
Q 35.15625 -1.421875 24.609375 -1.421875 
Q 20.21875 -1.421875 15.453125 -0.5625 
Q 10.6875 0.296875 5.421875 2 
L 5.421875 11.28125 
Q 10.40625 8.6875 15.234375 7.390625 
Q 20.0625 6.109375 24.8125 6.109375 
Q 31.15625 6.109375 34.5625 8.28125 
Q 37.984375 10.453125 37.984375 14.40625 
Q 37.984375 18.0625 35.515625 20.015625 
Q 33.0625 21.96875 24.703125 23.78125 
L 21.578125 24.515625 
Q 13.234375 26.265625 9.515625 29.90625 
Q 5.8125 33.546875 5.8125 39.890625 
Q 5.8125 47.609375 11.28125 51.796875 
Q 16.75 56 26.8125 56 
Q 31.78125 56 36.171875 55.265625 
Q 40.578125 54.546875 44.28125 53.078125 
z
" id="DejaVuSans-73"/>
      <path d="M 30.609375 48.390625 
Q 23.390625 48.390625 19.1875 42.75 
Q 14.984375 37.109375 14.984375 27.296875 
Q 14.984375 17.484375 19.15625 11.84375 
Q 23.34375 6.203125 30.609375 6.203125 
Q 37.796875 6.203125 41.984375 11.859375 
Q 46.1875 17.53125 46.1875 27.296875 
Q 46.1875 37.015625 41.984375 42.703125 
Q 37.796875 48.390625 30.609375 48.390625 
z
M 30.609375 56 
Q 42.328125 56 49.015625 48.375 
Q 55.71875 40.765625 55.71875 27.296875 
Q 55.71875 13.875 49.015625 6.21875 
Q 42.328125 -1.421875 30.609375 -1.421875 
Q 18.84375 -1.421875 12.171875 6.21875 
Q 5.515625 13.875 5.515625 27.296875 
Q 5.515625 40.765625 12.171875 48.375 
Q 18.84375 56 30.609375 56 
z
" id="DejaVuSans-6f"/>
      <path d="M 45.40625 46.390625 
L 45.40625 75.984375 
L 54.390625 75.984375 
L 54.390625 0 
L 45.40625 0 
L 45.40625 8.203125 
Q 42.578125 3.328125 38.25 0.953125 
Q 33.9375 -1.421875 27.875 -1.421875 
Q 17.96875 -1.421875 11.734375 6.484375 
Q 5.515625 14.40625 5.515625 27.296875 
Q 5.515625 40.1875 11.734375 48.09375 
Q 17.96875 56 27.875 56 
Q 33.9375 56 38.25 53.625 
Q 42.578125 51.265625 45.40625 46.390625 
z
M 14.796875 27.296875 
Q 14.796875 17.390625 18.875 11.75 
Q 22.953125 6.109375 30.078125 6.109375 
Q 37.203125 6.109375 41.296875 11.75 
Q 45.40625 17.390625 45.40625 27.296875 
Q 45.40625 37.203125 41.296875 42.84375 
Q 37.203125 48.484375 30.078125 48.484375 
Q 22.953125 48.484375 18.875 42.84375 
Q 14.796875 37.203125 14.796875 27.296875 
z
" id="DejaVuSans-64"/>
     </defs>
     <g transform="translate(206.544375 316.706687)scale(0.1 -0.1)">
      <use xlink:href="#DejaVuSans-65"/>
      <use x="61.523438" xlink:href="#DejaVuSans-70"/>
      <use x="125" xlink:href="#DejaVuSans-69"/>
      <use x="152.783203" xlink:href="#DejaVuSans-73"/>
      <use x="204.882812" xlink:href="#DejaVuSans-6f"/>
      <use x="266.064453" xlink:href="#DejaVuSans-64"/>
      <use x="329.541016" xlink:href="#DejaVuSans-65"/>
      <use x="391.064453" xlink:href="#DejaVuSans-73"/>
     </g>
    </g>
   </g>
   <g id="matplotlib.axis_2">
    <g id="ytick_1">
     <g id="line2d_8">
      <defs>
       <path d="M 0 0 
L -3.5 0 
" id="m4419d640ed" style="stroke:#000000;stroke-width:0.8;"/>
      </defs>
      <g>
       <use style="stroke:#000000;stroke-width:0.8;" x="50.14375" xlink:href="#m4419d640ed" y="275.211503"/>
      </g>
     </g>
     <g id="text_9">
      <!-- 2.15 -->
      <defs>
       <path d="M 10.6875 12.40625 
L 21 12.40625 
L 21 0 
L 10.6875 0 
z
" id="DejaVuSans-2e"/>
      </defs>
      <g transform="translate(20.878125 279.010722)scale(0.1 -0.1)">
       <use xlink:href="#DejaVuSans-32"/>
       <use x="63.623047" xlink:href="#DejaVuSans-2e"/>
       <use x="95.410156" xlink:href="#DejaVuSans-31"/>
       <use x="159.033203" xlink:href="#DejaVuSans-35"/>
      </g>
     </g>
    </g>
    <g id="ytick_2">
     <g id="line2d_9">
      <g>
       <use style="stroke:#000000;stroke-width:0.8;" x="50.14375" xlink:href="#m4419d640ed" y="243.443381"/>
      </g>
     </g>
     <g id="text_10">
      <!-- 2.20 -->
      <g transform="translate(20.878125 247.2426)scale(0.1 -0.1)">
       <use xlink:href="#DejaVuSans-32"/>
       <use x="63.623047" xlink:href="#DejaVuSans-2e"/>
       <use x="95.410156" xlink:href="#DejaVuSans-32"/>
       <use x="159.033203" xlink:href="#DejaVuSans-30"/>
      </g>
     </g>
    </g>
    <g id="ytick_3">
     <g id="line2d_10">
      <g>
       <use style="stroke:#000000;stroke-width:0.8;" x="50.14375" xlink:href="#m4419d640ed" y="211.67526"/>
      </g>
     </g>
     <g id="text_11">
      <!-- 2.25 -->
      <g transform="translate(20.878125 215.474479)scale(0.1 -0.1)">
       <use xlink:href="#DejaVuSans-32"/>
       <use x="63.623047" xlink:href="#DejaVuSans-2e"/>
       <use x="95.410156" xlink:href="#DejaVuSans-32"/>
       <use x="159.033203" xlink:href="#DejaVuSans-35"/>
      </g>
     </g>
    </g>
    <g id="ytick_4">
     <g id="line2d_11">
      <g>
       <use style="stroke:#000000;stroke-width:0.8;" x="50.14375" xlink:href="#m4419d640ed" y="179.907138"/>
      </g>
     </g>
     <g id="text_12">
      <!-- 2.30 -->
      <g transform="translate(20.878125 183.706357)scale(0.1 -0.1)">
       <use xlink:href="#DejaVuSans-32"/>
       <use x="63.623047" xlink:href="#DejaVuSans-2e"/>
       <use x="95.410156" xlink:href="#DejaVuSans-33"/>
       <use x="159.033203" xlink:href="#DejaVuSans-30"/>
      </g>
     </g>
    </g>
    <g id="ytick_5">
     <g id="line2d_12">
      <g>
       <use style="stroke:#000000;stroke-width:0.8;" x="50.14375" xlink:href="#m4419d640ed" y="148.139017"/>
      </g>
     </g>
     <g id="text_13">
      <!-- 2.35 -->
      <g transform="translate(20.878125 151.938236)scale(0.1 -0.1)">
       <use xlink:href="#DejaVuSans-32"/>
       <use x="63.623047" xlink:href="#DejaVuSans-2e"/>
       <use x="95.410156" xlink:href="#DejaVuSans-33"/>
       <use x="159.033203" xlink:href="#DejaVuSans-35"/>
      </g>
     </g>
    </g>
    <g id="ytick_6">
     <g id="line2d_13">
      <g>
       <use style="stroke:#000000;stroke-width:0.8;" x="50.14375" xlink:href="#m4419d640ed" y="116.370895"/>
      </g>
     </g>
     <g id="text_14">
      <!-- 2.40 -->
      <g transform="translate(20.878125 120.170114)scale(0.1 -0.1)">
       <use xlink:href="#DejaVuSans-32"/>
       <use x="63.623047" xlink:href="#DejaVuSans-2e"/>
       <use x="95.410156" xlink:href="#DejaVuSans-34"/>
       <use x="159.033203" xlink:href="#DejaVuSans-30"/>
      </g>
     </g>
    </g>
    <g id="ytick_7">
     <g id="line2d_14">
      <g>
       <use style="stroke:#000000;stroke-width:0.8;" x="50.14375" xlink:href="#m4419d640ed" y="84.602774"/>
      </g>
     </g>
     <g id="text_15">
      <!-- 2.45 -->
      <g transform="translate(20.878125 88.401992)scale(0.1 -0.1)">
       <use xlink:href="#DejaVuSans-32"/>
       <use x="63.623047" xlink:href="#DejaVuSans-2e"/>
       <use x="95.410156" xlink:href="#DejaVuSans-34"/>
       <use x="159.033203" xlink:href="#DejaVuSans-35"/>
      </g>
     </g>
    </g>
    <g id="ytick_8">
     <g id="line2d_15">
      <g>
       <use style="stroke:#000000;stroke-width:0.8;" x="50.14375" xlink:href="#m4419d640ed" y="52.834652"/>
      </g>
     </g>
     <g id="text_16">
      <!-- 2.50 -->
      <g transform="translate(20.878125 56.633871)scale(0.1 -0.1)">
       <use xlink:href="#DejaVuSans-32"/>
       <use x="63.623047" xlink:href="#DejaVuSans-2e"/>
       <use x="95.410156" xlink:href="#DejaVuSans-35"/>
       <use x="159.033203" xlink:href="#DejaVuSans-30"/>
      </g>
     </g>
    </g>
    <g id="text_17">
     <!-- undisc. return -->
     <defs>
      <path d="M 8.5 21.578125 
L 8.5 54.6875 
L 17.484375 54.6875 
L 17.484375 21.921875 
Q 17.484375 14.15625 20.5 10.265625 
Q 23.53125 6.390625 29.59375 6.390625 
Q 36.859375 6.390625 41.078125 11.03125 
Q 45.3125 15.671875 45.3125 23.6875 
L 45.3125 54.6875 
L 54.296875 54.6875 
L 54.296875 0 
L 45.3125 0 
L 45.3125 8.40625 
Q 42.046875 3.421875 37.71875 1 
Q 33.40625 -1.421875 27.6875 -1.421875 
Q 18.265625 -1.421875 13.375 4.4375 
Q 8.5 10.296875 8.5 21.578125 
z
M 31.109375 56 
z
" id="DejaVuSans-75"/>
      <path d="M 54.890625 33.015625 
L 54.890625 0 
L 45.90625 0 
L 45.90625 32.71875 
Q 45.90625 40.484375 42.875 44.328125 
Q 39.84375 48.1875 33.796875 48.1875 
Q 26.515625 48.1875 22.3125 43.546875 
Q 18.109375 38.921875 18.109375 30.90625 
L 18.109375 0 
L 9.078125 0 
L 9.078125 54.6875 
L 18.109375 54.6875 
L 18.109375 46.1875 
Q 21.34375 51.125 25.703125 53.5625 
Q 30.078125 56 35.796875 56 
Q 45.21875 56 50.046875 50.171875 
Q 54.890625 44.34375 54.890625 33.015625 
z
" id="DejaVuSans-6e"/>
      <path d="M 48.78125 52.59375 
L 48.78125 44.1875 
Q 44.96875 46.296875 41.140625 47.34375 
Q 37.3125 48.390625 33.40625 48.390625 
Q 24.65625 48.390625 19.8125 42.84375 
Q 14.984375 37.3125 14.984375 27.296875 
Q 14.984375 17.28125 19.8125 11.734375 
Q 24.65625 6.203125 33.40625 6.203125 
Q 37.3125 6.203125 41.140625 7.25 
Q 44.96875 8.296875 48.78125 10.40625 
L 48.78125 2.09375 
Q 45.015625 0.34375 40.984375 -0.53125 
Q 36.96875 -1.421875 32.421875 -1.421875 
Q 20.0625 -1.421875 12.78125 6.34375 
Q 5.515625 14.109375 5.515625 27.296875 
Q 5.515625 40.671875 12.859375 48.328125 
Q 20.21875 56 33.015625 56 
Q 37.15625 56 41.109375 55.140625 
Q 45.0625 54.296875 48.78125 52.59375 
z
" id="DejaVuSans-63"/>
      <path id="DejaVuSans-20"/>
      <path d="M 41.109375 46.296875 
Q 39.59375 47.171875 37.8125 47.578125 
Q 36.03125 48 33.890625 48 
Q 26.265625 48 22.1875 43.046875 
Q 18.109375 38.09375 18.109375 28.8125 
L 18.109375 0 
L 9.078125 0 
L 9.078125 54.6875 
L 18.109375 54.6875 
L 18.109375 46.1875 
Q 20.953125 51.171875 25.484375 53.578125 
Q 30.03125 56 36.53125 56 
Q 37.453125 56 38.578125 55.875 
Q 39.703125 55.765625 41.0625 55.515625 
z
" id="DejaVuSans-72"/>
      <path d="M 18.3125 70.21875 
L 18.3125 54.6875 
L 36.8125 54.6875 
L 36.8125 47.703125 
L 18.3125 47.703125 
L 18.3125 18.015625 
Q 18.3125 11.328125 20.140625 9.421875 
Q 21.96875 7.515625 27.59375 7.515625 
L 36.8125 7.515625 
L 36.8125 0 
L 27.59375 0 
Q 17.1875 0 13.234375 3.875 
Q 9.28125 7.765625 9.28125 18.015625 
L 9.28125 47.703125 
L 2.6875 47.703125 
L 2.6875 54.6875 
L 9.28125 54.6875 
L 9.28125 70.21875 
z
" id="DejaVuSans-74"/>
     </defs>
     <g transform="translate(14.798438 190.28975)rotate(-90)scale(0.1 -0.1)">
      <use xlink:href="#DejaVuSans-75"/>
      <use x="63.378906" xlink:href="#DejaVuSans-6e"/>
      <use x="126.757812" xlink:href="#DejaVuSans-64"/>
      <use x="190.234375" xlink:href="#DejaVuSans-69"/>
      <use x="218.017578" xlink:href="#DejaVuSans-73"/>
      <use x="270.117188" xlink:href="#DejaVuSans-63"/>
      <use x="325.097656" xlink:href="#DejaVuSans-2e"/>
      <use x="356.884766" xlink:href="#DejaVuSans-20"/>
      <use x="388.671875" xlink:href="#DejaVuSans-72"/>
      <use x="429.753906" xlink:href="#DejaVuSans-65"/>
      <use x="491.277344" xlink:href="#DejaVuSans-74"/>
      <use x="530.486328" xlink:href="#DejaVuSans-75"/>
      <use x="593.865234" xlink:href="#DejaVuSans-72"/>
      <use x="634.962891" xlink:href="#DejaVuSans-6e"/>
     </g>
    </g>
   </g>
   <g id="line2d_16">
    <path clip-path="url(#p0551895deb)" d="M 66.376477 185.011487 
L 66.88375 172.849169 
L 67.391023 160.788308 
L 67.898295 202.281626 
L 68.405568 227.213818 
L 68.912841 185.780159 
L 69.420114 179.078377 
L 69.927386 153.662188 
L 70.434659 178.947181 
L 70.941932 231.053658 
L 71.449205 155.462084 
L 71.956477 193.367164 
L 72.46375 191.2345 
L 72.971023 183.299665 
L 73.478295 183.381324 
L 73.985568 234.279545 
L 74.492841 235.998515 
L 75.000114 205.700678 
L 75.507386 186.361309 
L 77.029205 164.370789 
L 77.536477 212.830046 
L 78.04375 227.893807 
L 78.551023 227.82032 
L 79.058295 183.561601 
L 79.565568 276.334125 
L 80.072841 204.338042 
L 80.580114 108.963681 
L 81.087386 194.791804 
L 81.594659 203.828381 
L 82.101932 226.272738 
L 82.609205 211.806694 
L 83.116477 192.910258 
L 83.62375 199.922755 
L 84.131023 240.934118 
L 84.638295 225.715798 
L 85.145568 180.897693 
L 85.652841 244.617686 
L 86.160114 170.635268 
L 86.667386 155.979822 
L 87.174659 201.981245 
L 87.681932 215.180936 
L 88.189205 204.301984 
L 88.696477 210.737363 
L 89.20375 162.145549 
L 89.711023 164.883494 
L 90.218295 210.249421 
L 90.725568 185.400463 
L 91.232841 190.137147 
L 91.740114 242.085731 
L 92.247386 222.545751 
L 92.754659 192.934573 
L 93.261932 206.957545 
L 93.769205 143.219153 
L 94.276477 182.553486 
L 94.78375 210.965972 
L 95.291023 203.287713 
L 95.798295 124.137605 
L 96.305568 214.771193 
L 97.320114 182.894461 
L 97.827386 197.398865 
L 98.334659 204.927288 
L 98.841932 198.352151 
L 99.349205 199.277903 
L 99.856477 193.986756 
L 100.36375 198.403186 
L 100.871023 198.358689 
L 101.378295 205.528043 
L 101.885568 236.293173 
L 102.392841 176.128077 
L 102.900114 181.539589 
L 103.407386 181.36667 
L 103.914659 193.594747 
L 104.421932 185.435696 
L 104.929205 188.335254 
L 105.436477 188.185338 
L 105.94375 194.009794 
L 106.451023 203.012468 
L 106.958295 122.059084 
L 107.465568 200.461271 
L 107.972841 188.936922 
L 108.480114 205.965954 
L 108.987386 204.235878 
L 110.001932 133.196695 
L 110.509205 152.412364 
L 111.016477 189.12576 
L 111.52375 195.139071 
L 112.031023 197.632795 
L 112.538295 214.658648 
L 113.045568 156.536809 
L 113.552841 34.414125 
L 114.060114 189.734972 
L 114.567386 167.688362 
L 115.074659 184.293048 
L 115.581932 209.031591 
L 116.089205 192.655287 
L 116.596477 119.091553 
L 117.10375 181.860268 
L 117.611023 170.027201 
L 118.118295 191.819949 
L 118.625568 204.063619 
L 119.132841 193.018032 
L 119.640114 176.766147 
L 120.147386 167.415092 
L 120.654659 168.925252 
L 121.161932 209.790438 
L 121.669205 171.977529 
L 122.176477 207.302432 
L 122.68375 138.899445 
L 123.191023 192.903063 
L 123.698295 203.398947 
L 124.205568 177.77437 
L 124.712841 189.976866 
L 125.220114 191.273027 
L 126.234659 194.956485 
L 126.741932 146.616224 
L 127.249205 149.301113 
L 127.756477 207.909744 
L 128.26375 194.898442 
L 129.278295 157.281121 
L 129.785568 92.122013 
L 130.292841 158.93492 
L 130.800114 143.928743 
L 131.307386 203.852469 
L 131.814659 170.893539 
L 132.321932 179.755062 
L 132.829205 185.922248 
L 133.336477 212.397971 
L 133.84375 127.950751 
L 134.351023 206.94142 
L 134.858295 137.436128 
L 135.365568 207.398876 
L 135.872841 117.057819 
L 136.380114 111.679792 
L 136.887386 216.318988 
L 137.394659 169.039614 
L 137.901932 150.014696 
L 138.409205 161.624298 
L 138.916477 182.822804 
L 139.42375 213.296107 
L 139.931023 209.978519 
L 140.438295 155.647443 
L 140.945568 217.765849 
L 141.452841 206.576669 
L 141.960114 203.050362 
L 142.467386 215.387377 
L 142.974659 213.509791 
L 143.481932 207.009723 
L 143.989205 162.068219 
L 144.496477 220.594611 
L 145.00375 115.95084 
L 145.511023 191.67126 
L 146.018295 212.035594 
L 146.525568 205.491394 
L 147.032841 196.998732 
L 147.540114 206.189071 
L 148.047386 191.203276 
L 148.554659 210.235414 
L 149.061932 171.535917 
L 150.076477 207.105519 
L 150.58375 199.797596 
L 151.091023 200.284588 
L 151.598295 196.800396 
L 152.105568 210.997755 
L 152.612841 190.77269 
L 153.120114 156.172357 
L 153.627386 184.49611 
L 154.134659 195.805244 
L 154.641932 130.95339 
L 155.149205 147.891556 
L 155.656477 190.08382 
L 156.16375 188.239369 
L 156.671023 210.105034 
L 157.178295 209.258843 
L 158.192841 196.784027 
L 158.700114 170.15226 
L 159.207386 202.647127 
L 159.714659 207.54417 
L 160.221932 209.26274 
L 160.729205 205.757699 
L 161.236477 204.549783 
L 161.74375 193.619917 
L 162.251023 211.905269 
L 162.758295 199.050708 
L 163.265568 165.951897 
L 163.772841 190.224351 
L 164.280114 162.733903 
L 164.787386 205.386706 
L 165.294659 207.23851 
L 165.801932 177.409963 
L 166.309205 192.139981 
L 166.816477 200.524627 
L 167.32375 211.312039 
L 167.831023 192.717816 
L 168.338295 189.515864 
L 168.845568 204.043517 
L 169.352841 203.045185 
L 169.860114 201.415989 
L 170.367386 202.202544 
L 170.874659 201.16429 
L 171.381932 207.838178 
L 171.889205 197.125276 
L 172.396477 200.586474 
L 172.90375 191.881708 
L 173.918295 207.107877 
L 174.425568 200.437158 
L 174.932841 211.145831 
L 175.440114 204.253106 
L 175.947386 209.228997 
L 176.454659 212.994543 
L 176.961932 202.635971 
L 177.469205 202.978156 
L 177.976477 170.555619 
L 178.48375 195.037081 
L 178.991023 205.687928 
L 179.498295 205.996491 
L 180.005568 213.352472 
L 180.512841 206.054701 
L 181.020114 210.530156 
L 181.527386 183.384072 
L 182.034659 195.629715 
L 182.541932 196.337659 
L 183.556477 211.928572 
L 184.06375 177.540295 
L 184.571023 197.16718 
L 185.078295 210.900111 
L 185.585568 202.856072 
L 186.092841 208.01412 
L 186.600114 206.409479 
L 187.107386 197.76008 
L 187.614659 210.902827 
L 188.121932 168.907648 
L 189.136477 195.884382 
L 189.64375 198.331936 
L 190.151023 200.17452 
L 190.658295 207.566627 
L 191.165568 190.222276 
L 191.672841 206.028116 
L 192.180114 211.639465 
L 193.194659 206.971341 
L 193.701932 192.176956 
L 194.209205 206.117305 
L 194.716477 202.188111 
L 195.22375 196.070802 
L 195.731023 206.732973 
L 196.238295 198.838589 
L 197.252841 210.834362 
L 197.760114 194.156948 
L 198.267386 197.295796 
L 198.774659 206.573866 
L 199.281932 194.056852 
L 199.789205 201.253871 
L 200.296477 199.634789 
L 200.80375 207.912513 
L 201.311023 192.666363 
L 201.818295 205.504474 
L 202.325568 201.83271 
L 202.832841 181.588722 
L 203.340114 212.357807 
L 203.847386 201.922742 
L 204.354659 215.443359 
L 205.369205 192.230407 
L 205.876477 194.364056 
L 206.891023 212.349417 
L 207.398295 204.071616 
L 207.905568 219.25252 
L 208.412841 199.941388 
L 208.920114 201.855333 
L 209.427386 195.944913 
L 209.934659 201.502268 
L 210.441932 202.381979 
L 211.456477 210.193899 
L 211.96375 199.617171 
L 212.471023 210.552429 
L 212.978295 207.993639 
L 213.485568 203.023625 
L 213.992841 212.127955 
L 214.500114 209.499023 
L 215.007386 200.013394 
L 215.514659 204.413563 
L 216.021932 200.781765 
L 216.529205 209.73818 
L 217.036477 193.079108 
L 217.54375 196.602373 
L 218.051023 201.284171 
L 218.558295 197.570323 
L 219.065568 194.823126 
L 219.572841 196.972656 
L 220.080114 214.632288 
L 220.587386 195.708434 
L 221.094659 194.628779 
L 221.601932 212.603632 
L 222.109205 201.914692 
L 222.616477 199.411839 
L 223.12375 190.089733 
L 223.631023 194.110136 
L 224.138295 207.65673 
L 224.645568 209.607004 
L 225.152841 200.494131 
L 225.660114 202.555458 
L 226.167386 203.125446 
L 226.674659 196.22373 
L 227.181932 207.489667 
L 227.689205 206.649075 
L 228.70375 206.77008 
L 229.211023 204.865327 
L 229.718295 198.266444 
L 230.225568 207.32557 
L 230.732841 212.053878 
L 231.240114 199.485235 
L 231.747386 200.594954 
L 232.254659 202.328351 
L 232.761932 201.900418 
L 233.269205 190.092709 
L 233.776477 203.440351 
L 234.28375 201.899464 
L 234.791023 193.61251 
L 235.298295 205.567235 
L 235.805568 196.670857 
L 236.312841 202.840081 
L 236.820114 198.834607 
L 237.327386 208.805257 
L 237.834659 208.57463 
L 238.341932 205.152265 
L 238.849205 202.982702 
L 239.356477 208.639908 
L 239.86375 210.1207 
L 240.878295 192.402583 
L 241.385568 203.304917 
L 241.892841 208.910001 
L 242.400114 198.321624 
L 242.907386 204.518138 
L 243.414659 199.27837 
L 243.921932 212.335592 
L 244.429205 210.452573 
L 244.936477 204.911018 
L 245.44375 202.821529 
L 245.951023 205.631524 
L 246.458295 204.60217 
L 246.965568 200.78243 
L 247.472841 213.728927 
L 247.980114 205.070943 
L 248.487386 203.233663 
L 248.994659 205.274955 
L 249.501932 206.396443 
L 250.009205 209.472696 
L 250.516477 205.950362 
L 251.02375 195.44278 
L 251.531023 202.522031 
L 252.038295 207.936095 
L 252.545568 208.884524 
L 253.052841 208.910162 
L 253.560114 220.732667 
L 254.067386 201.092709 
L 254.574659 199.946155 
L 255.589205 208.996917 
L 256.096477 218.556891 
L 256.60375 203.49081 
L 257.111023 207.662577 
L 257.618295 206.977694 
L 258.125568 206.777114 
L 258.632841 212.150869 
L 259.140114 199.028326 
L 259.647386 203.286537 
L 260.154659 202.556016 
L 260.661932 211.016489 
L 261.169205 208.486159 
L 261.676477 205.037423 
L 262.18375 199.457548 
L 262.691023 207.546227 
L 263.198295 205.008711 
L 263.705568 198.903895 
L 264.212841 196.547838 
L 264.720114 197.899515 
L 265.227386 199.883455 
L 265.734659 189.176068 
L 266.241932 212.751856 
L 266.749205 207.380854 
L 267.256477 206.751251 
L 267.76375 217.332224 
L 268.778295 205.795642 
L 269.285568 205.085331 
L 269.792841 213.971542 
L 270.300114 201.456944 
L 270.807386 197.384559 
L 271.314659 196.722403 
L 271.821932 194.13743 
L 272.329205 206.865717 
L 272.836477 189.94202 
L 273.34375 190.209254 
L 273.851023 209.964765 
L 274.358295 212.968827 
L 274.865568 204.791749 
L 275.372841 204.863222 
L 275.880114 201.526494 
L 276.387386 203.640878 
L 276.894659 185.77811 
L 277.401932 207.642554 
L 277.909205 209.362097 
L 278.92375 197.220192 
L 279.431023 204.494904 
L 279.938295 205.840141 
L 280.445568 200.800348 
L 280.952841 209.840291 
L 281.460114 200.394645 
L 281.967386 209.160285 
L 282.474659 207.799895 
L 282.981932 205.91138 
L 283.489205 205.419439 
L 283.996477 202.837448 
L 284.50375 217.480292 
L 285.011023 209.570605 
L 285.518295 214.842459 
L 286.025568 191.841497 
L 286.532841 204.034206 
L 287.040114 210.525013 
L 287.547386 199.827346 
L 288.054659 205.728514 
L 289.069205 196.165075 
L 289.576477 201.495843 
L 290.08375 209.431583 
L 290.591023 204.814482 
L 291.098295 204.052895 
L 291.605568 206.150511 
L 292.112841 213.989753 
L 292.620114 206.730812 
L 293.127386 205.452024 
L 293.634659 210.00779 
L 294.141932 205.117055 
L 294.649205 206.710772 
L 295.156477 202.452332 
L 295.66375 207.37125 
L 296.171023 209.948198 
L 296.678295 214.439467 
L 297.185568 209.589327 
L 297.692841 192.836775 
L 298.200114 200.544952 
L 298.707386 196.19187 
L 299.214659 208.820145 
L 299.721932 208.253122 
L 300.229205 212.489056 
L 300.736477 199.16009 
L 301.24375 210.781875 
L 301.751023 203.423713 
L 302.258295 206.925454 
L 302.765568 196.62701 
L 303.272841 202.176749 
L 303.780114 191.644392 
L 304.794659 228.117481 
L 305.301932 207.230805 
L 305.809205 197.300014 
L 306.316477 201.947379 
L 306.82375 199.394185 
L 307.838295 208.607514 
L 308.345568 194.21666 
L 308.852841 217.358582 
L 309.360114 217.033276 
L 310.374659 186.569991 
L 310.881932 201.665849 
L 311.389205 202.368117 
L 311.896477 195.744684 
L 312.40375 213.749008 
L 312.911023 219.322764 
L 313.418295 185.50162 
L 313.925568 203.82064 
L 314.432841 194.223288 
L 314.940114 231.973163 
L 315.447386 202.435549 
L 315.954659 202.665489 
L 316.461932 241.483607 
L 316.969205 194.668689 
L 317.476477 197.992589 
L 317.98375 226.922924 
L 318.491023 207.682323 
L 318.998295 199.555745 
L 319.505568 213.563649 
L 320.012841 218.398241 
L 320.520114 201.327576 
L 321.027386 227.41411 
L 322.041932 201.434757 
L 322.549205 201.454955 
L 323.056477 188.655762 
L 323.56375 209.168813 
L 324.071023 194.548672 
L 324.578295 221.439952 
L 325.085568 206.273888 
L 325.592841 196.309704 
L 326.100114 196.956166 
L 326.607386 220.08094 
L 327.114659 208.404135 
L 327.621932 222.620987 
L 328.129205 213.152855 
L 328.636477 209.83501 
L 329.14375 202.380721 
L 329.651023 196.593704 
L 330.158295 229.6956 
L 330.665568 194.432206 
L 331.172841 209.960083 
L 331.680114 198.730942 
L 332.187386 199.902599 
L 332.694659 199.371709 
L 333.201932 220.919319 
L 333.709205 197.364791 
L 334.216477 185.59572 
L 334.72375 190.538677 
L 335.231023 198.456544 
L 335.738295 195.143466 
L 336.245568 203.224248 
L 336.752841 199.102827 
L 337.260114 196.55771 
L 337.767386 221.167273 
L 338.274659 200.903449 
L 338.781932 200.945196 
L 339.289205 209.884184 
L 339.796477 195.408914 
L 340.30375 188.168185 
L 340.811023 203.935956 
L 341.318295 201.258047 
L 341.825568 192.431688 
L 342.332841 186.005668 
L 342.840114 190.239219 
L 343.347386 199.675311 
L 343.854659 191.815051 
L 344.361932 202.158076 
L 344.869205 202.234438 
L 345.376477 208.450456 
L 345.88375 203.245087 
L 346.391023 203.103724 
L 346.898295 201.186908 
L 347.405568 206.180003 
L 347.912841 205.650632 
L 348.420114 198.923149 
L 348.927386 199.761184 
L 349.434659 194.337324 
L 350.449205 206.56163 
L 350.956477 198.048343 
L 351.46375 212.750748 
L 351.971023 211.772462 
L 352.478295 213.774468 
L 352.985568 200.876591 
L 353.492841 215.633235 
L 354.000114 195.04128 
L 354.507386 209.555787 
L 355.014659 209.333783 
L 355.521932 195.659598 
L 356.029205 216.872169 
L 356.536477 204.672231 
L 357.04375 209.144998 
L 357.551023 209.765687 
L 358.058295 197.35062 
L 358.565568 210.758775 
L 359.072841 210.640321 
L 359.580114 202.204345 
L 360.087386 206.501992 
L 360.594659 203.839341 
L 361.101932 205.633867 
L 361.609205 216.166625 
L 362.116477 215.639084 
L 362.62375 223.104542 
L 363.131023 189.154511 
L 363.638295 197.94654 
L 364.145568 210.187725 
L 364.652841 245.79511 
L 365.160114 217.354339 
L 365.667386 205.336786 
L 366.174659 234.20543 
L 367.189205 204.801609 
L 367.696477 248.906612 
L 368.20375 189.00821 
L 368.711023 195.12018 
L 369.218295 223.619201 
L 369.725568 189.731954 
L 370.232841 197.243899 
L 371.247386 190.872666 
L 371.754659 227.112213 
L 372.261932 206.253845 
L 372.769205 215.662204 
L 373.276477 206.910945 
L 373.78375 214.806361 
L 374.291023 194.593634 
L 374.798295 196.261504 
L 375.305568 194.213623 
L 375.812841 198.517974 
L 376.320114 201.694501 
L 376.827386 190.414786 
L 377.334659 197.182348 
L 377.841932 201.424532 
L 378.349205 204.672671 
L 378.856477 195.77914 
L 379.36375 201.402364 
L 379.871023 209.639174 
L 380.378295 202.340105 
L 380.885568 208.223734 
L 381.392841 241.320283 
L 381.900114 239.564806 
L 382.407386 205.339461 
L 382.914659 195.413574 
L 383.421932 206.572197 
L 383.929205 213.079597 
L 384.436477 205.779259 
L 384.94375 204.662418 
L 385.451023 197.243454 
L 385.958295 202.842554 
L 386.465568 188.386436 
L 386.972841 221.565471 
L 387.480114 207.006132 
L 387.987386 209.40552 
L 388.494659 196.98801 
L 389.001932 214.806914 
L 389.509205 207.697305 
L 390.016477 212.555858 
L 390.52375 199.988629 
L 391.031023 208.093299 
L 391.031023 208.093299 
" style="fill:none;stroke:#1f77b4;stroke-linecap:square;stroke-width:0.5;"/>
   </g>
   <g id="patch_3">
    <path d="M 50.14375 288.430125 
L 50.14375 22.318125 
" style="fill:none;stroke:#000000;stroke-linecap:square;stroke-linejoin:miter;stroke-width:0.8;"/>
   </g>
   <g id="patch_4">
    <path d="M 407.26375 288.430125 
L 407.26375 22.318125 
" style="fill:none;stroke:#000000;stroke-linecap:square;stroke-linejoin:miter;stroke-width:0.8;"/>
   </g>
   <g id="patch_5">
    <path d="M 50.14375 288.430125 
L 407.26375 288.430125 
" style="fill:none;stroke:#000000;stroke-linecap:square;stroke-linejoin:miter;stroke-width:0.8;"/>
   </g>
   <g id="patch_6">
    <path d="M 50.14375 22.318125 
L 407.26375 22.318125 
" style="fill:none;stroke:#000000;stroke-linecap:square;stroke-linejoin:miter;stroke-width:0.8;"/>
   </g>
   <g id="text_18">
    <!-- Undiscounted return obtained -->
    <defs>
     <path d="M 8.6875 72.90625 
L 18.609375 72.90625 
L 18.609375 28.609375 
Q 18.609375 16.890625 22.84375 11.734375 
Q 27.09375 6.59375 36.625 6.59375 
Q 46.09375 6.59375 50.34375 11.734375 
Q 54.59375 16.890625 54.59375 28.609375 
L 54.59375 72.90625 
L 64.5 72.90625 
L 64.5 27.390625 
Q 64.5 13.140625 57.4375 5.859375 
Q 50.390625 -1.421875 36.625 -1.421875 
Q 22.796875 -1.421875 15.734375 5.859375 
Q 8.6875 13.140625 8.6875 27.390625 
z
" id="DejaVuSans-55"/>
     <path d="M 48.6875 27.296875 
Q 48.6875 37.203125 44.609375 42.84375 
Q 40.53125 48.484375 33.40625 48.484375 
Q 26.265625 48.484375 22.1875 42.84375 
Q 18.109375 37.203125 18.109375 27.296875 
Q 18.109375 17.390625 22.1875 11.75 
Q 26.265625 6.109375 33.40625 6.109375 
Q 40.53125 6.109375 44.609375 11.75 
Q 48.6875 17.390625 48.6875 27.296875 
z
M 18.109375 46.390625 
Q 20.953125 51.265625 25.265625 53.625 
Q 29.59375 56 35.59375 56 
Q 45.5625 56 51.78125 48.09375 
Q 58.015625 40.1875 58.015625 27.296875 
Q 58.015625 14.40625 51.78125 6.484375 
Q 45.5625 -1.421875 35.59375 -1.421875 
Q 29.59375 -1.421875 25.265625 0.953125 
Q 20.953125 3.328125 18.109375 8.203125 
L 18.109375 0 
L 9.078125 0 
L 9.078125 75.984375 
L 18.109375 75.984375 
z
" id="DejaVuSans-62"/>
     <path d="M 34.28125 27.484375 
Q 23.390625 27.484375 19.1875 25 
Q 14.984375 22.515625 14.984375 16.5 
Q 14.984375 11.71875 18.140625 8.90625 
Q 21.296875 6.109375 26.703125 6.109375 
Q 34.1875 6.109375 38.703125 11.40625 
Q 43.21875 16.703125 43.21875 25.484375 
L 43.21875 27.484375 
z
M 52.203125 31.203125 
L 52.203125 0 
L 43.21875 0 
L 43.21875 8.296875 
Q 40.140625 3.328125 35.546875 0.953125 
Q 30.953125 -1.421875 24.3125 -1.421875 
Q 15.921875 -1.421875 10.953125 3.296875 
Q 6 8.015625 6 15.921875 
Q 6 25.140625 12.171875 29.828125 
Q 18.359375 34.515625 30.609375 34.515625 
L 43.21875 34.515625 
L 43.21875 35.40625 
Q 43.21875 41.609375 39.140625 45 
Q 35.0625 48.390625 27.6875 48.390625 
Q 23 48.390625 18.546875 47.265625 
Q 14.109375 46.140625 10.015625 43.890625 
L 10.015625 52.203125 
Q 14.9375 54.109375 19.578125 55.046875 
Q 24.21875 56 28.609375 56 
Q 40.484375 56 46.34375 49.84375 
Q 52.203125 43.703125 52.203125 31.203125 
z
" id="DejaVuSans-61"/>
    </defs>
    <g transform="translate(138.607188 16.318125)scale(0.12 -0.12)">
     <use xlink:href="#DejaVuSans-55"/>
     <use x="73.193359" xlink:href="#DejaVuSans-6e"/>
     <use x="136.572266" xlink:href="#DejaVuSans-64"/>
     <use x="200.048828" xlink:href="#DejaVuSans-69"/>
     <use x="227.832031" xlink:href="#DejaVuSans-73"/>
     <use x="279.931641" xlink:href="#DejaVuSans-63"/>
     <use x="334.912109" xlink:href="#DejaVuSans-6f"/>
     <use x="396.09375" xlink:href="#DejaVuSans-75"/>
     <use x="459.472656" xlink:href="#DejaVuSans-6e"/>
     <use x="522.851562" xlink:href="#DejaVuSans-74"/>
     <use x="562.060547" xlink:href="#DejaVuSans-65"/>
     <use x="623.583984" xlink:href="#DejaVuSans-64"/>
     <use x="687.060547" xlink:href="#DejaVuSans-20"/>
     <use x="718.847656" xlink:href="#DejaVuSans-72"/>
     <use x="759.929688" xlink:href="#DejaVuSans-65"/>
     <use x="821.453125" xlink:href="#DejaVuSans-74"/>
     <use x="860.662109" xlink:href="#DejaVuSans-75"/>
     <use x="924.041016" xlink:href="#DejaVuSans-72"/>
     <use x="965.138672" xlink:href="#DejaVuSans-6e"/>
     <use x="1028.517578" xlink:href="#DejaVuSans-20"/>
     <use x="1060.304688" xlink:href="#DejaVuSans-6f"/>
     <use x="1121.486328" xlink:href="#DejaVuSans-62"/>
     <use x="1184.962891" xlink:href="#DejaVuSans-74"/>
     <use x="1224.171875" xlink:href="#DejaVuSans-61"/>
     <use x="1285.451172" xlink:href="#DejaVuSans-69"/>
     <use x="1313.234375" xlink:href="#DejaVuSans-6e"/>
     <use x="1376.613281" xlink:href="#DejaVuSans-65"/>
     <use x="1438.136719" xlink:href="#DejaVuSans-64"/>
    </g>
   </g>
  </g>
 </g>
 <defs>
  <clipPath id="p0551895deb">
   <rect height="266.112" width="357.12" x="50.14375" y="22.318125"/>
  </clipPath>
 </defs>
</svg>
