<?xml version="1.0" encoding="utf-8" standalone="no"?>
<!DOCTYPE svg PUBLIC "-//W3C//DTD SVG 1.1//EN"
  "http://www.w3.org/Graphics/SVG/1.1/DTD/svg11.dtd">
<!-- Created with matplotlib (http://matplotlib.org/) -->
<svg height="408pt" version="1.1" viewBox="0 0 511 408" width="511pt" xmlns="http://www.w3.org/2000/svg" xmlns:xlink="http://www.w3.org/1999/xlink">
 <defs>
  <style type="text/css">
*{stroke-linecap:butt;stroke-linejoin:round;stroke-miterlimit:100000;}
  </style>
 </defs>
 <g id="figure_1">
  <g id="patch_1">
   <path d="M 0 408.16925 
L 511.95375 408.16925 
L 511.95375 0 
L 0 0 
z
" style="fill:#ffffff;"/>
  </g>
  <g id="axes_1">
   <g id="patch_2">
    <path d="M 43.08375 368.74175 
L 489.48375 368.74175 
L 489.48375 23.14175 
L 43.08375 23.14175 
z
" style="fill:#ffffff;"/>
   </g>
   <g id="line2d_1">
    <path clip-path="url(#pede7ab37c6)" d="M 43.53015 366.775586 
L 43.97655 366.979917 
L 44.42295 366.586306 
L 44.86935 366.868376 
L 46.20855 366.703836 
L 46.65495 366.873868 
L 47.54775 366.68777 
L 47.99415 366.849605 
L 48.88695 366.802698 
L 49.77975 366.650248 
L 50.22615 366.90537 
L 50.67255 366.6927 
L 51.56535 366.943353 
L 52.01175 366.625862 
L 53.35095 366.843063 
L 53.79735 366.701868 
L 54.24375 366.876498 
L 54.69015 366.744397 
L 55.13655 367.066762 
L 55.58295 366.777025 
L 56.02935 366.682314 
L 56.92215 366.850867 
L 57.81495 366.768794 
L 58.26135 366.885376 
L 58.70775 366.746498 
L 60.49335 366.733618 
L 60.93975 366.474009 
L 61.38615 366.670521 
L 61.83255 366.687009 
L 62.27895 366.913467 
L 62.72535 366.584506 
L 63.17175 366.770687 
L 63.61815 366.82137 
L 64.06455 366.470687 
L 64.51095 366.669089 
L 64.95735 366.58291 
L 65.40375 366.637372 
L 65.85015 366.849296 
L 66.29655 360.834281 
L 66.74295 357.112316 
L 68.08215 342.110649 
L 68.52855 339.286945 
L 68.97495 331.928115 
L 69.42135 328.65813 
L 70.31415 319.054489 
L 70.76055 318.942223 
L 71.20695 311.14114 
L 71.65335 311.857918 
L 72.09975 305.789716 
L 72.54615 302.694467 
L 72.99255 306.889131 
L 73.43895 288.400612 
L 73.88535 286.982174 
L 74.33175 277.104215 
L 74.77815 279.162282 
L 75.22455 279.770711 
L 75.67095 276.743426 
L 76.11735 280.538695 
L 76.56375 258.8771 
L 77.01015 282.139032 
L 77.45655 262.302116 
L 77.90295 258.74434 
L 78.34935 246.842217 
L 78.79575 273.351464 
L 79.24215 261.147592 
L 79.68855 254.964918 
L 80.13495 259.828709 
L 80.58135 257.461458 
L 81.02775 247.99769 
L 81.47415 245.766253 
L 81.92055 241.138514 
L 82.36695 226.615316 
L 82.81335 254.102525 
L 83.25975 231.093137 
L 83.70615 229.635597 
L 84.15255 223.209672 
L 84.59895 242.343656 
L 85.04535 215.793606 
L 85.49175 219.172203 
L 85.93815 227.812744 
L 86.38455 210.981176 
L 87.27735 215.800678 
L 87.72375 211.332641 
L 88.17015 222.987779 
L 88.61655 214.611476 
L 89.06295 219.601296 
L 89.95575 197.237415 
L 90.40215 200.306539 
L 90.84855 208.09513 
L 91.29495 204.814262 
L 91.74135 200.546705 
L 92.18775 193.472077 
L 93.08055 174.642783 
L 93.52695 206.630747 
L 93.97335 207.851649 
L 94.41975 207.916393 
L 94.86615 177.320617 
L 95.31255 185.427333 
L 95.75895 172.147273 
L 96.65175 212.59677 
L 97.09815 196.535555 
L 97.54455 193.347261 
L 98.43735 177.758563 
L 98.88375 186.326111 
L 99.33015 191.503476 
L 99.77655 162.646257 
L 100.22295 177.333211 
L 100.66935 155.501399 
L 101.11575 184.544417 
L 101.56215 159.843494 
L 102.00855 175.516923 
L 102.45495 205.639021 
L 102.90135 161.49929 
L 103.34775 211.219407 
L 103.79415 182.428812 
L 104.24055 165.186325 
L 104.68695 183.261632 
L 105.13335 165.665317 
L 106.02615 152.077703 
L 106.47255 176.306298 
L 106.91895 162.96057 
L 107.36535 165.464612 
L 107.81175 187.036407 
L 108.25815 146.93465 
L 108.70455 159.700906 
L 109.15095 167.175086 
L 109.59735 181.94644 
L 110.04375 155.863335 
L 110.49015 163.103188 
L 110.93655 184.83335 
L 111.38295 185.297811 
L 111.82935 205.536622 
L 112.27575 168.038405 
L 112.72215 190.472747 
L 113.16855 176.851658 
L 113.61495 145.366517 
L 114.06135 185.450763 
L 114.50775 142.766446 
L 114.95415 141.793871 
L 115.40055 189.327671 
L 115.84695 161.835966 
L 116.29335 152.47666 
L 116.73975 180.3315 
L 117.18615 159.528376 
L 117.63255 156.174853 
L 118.07895 159.810037 
L 118.52535 154.269306 
L 118.97175 143.186832 
L 119.41815 189.266014 
L 119.86455 155.839864 
L 120.31095 149.295484 
L 121.20375 179.718771 
L 121.65015 176.809787 
L 122.09655 160.865318 
L 122.54295 164.407953 
L 122.98935 143.016612 
L 123.43575 177.490911 
L 123.88215 146.227539 
L 124.32855 148.944411 
L 124.77495 153.539416 
L 125.22135 143.076342 
L 125.66775 179.360063 
L 126.11415 144.867333 
L 126.56055 157.940616 
L 127.00695 145.793485 
L 127.45335 165.965079 
L 127.89975 194.457395 
L 128.34615 148.755577 
L 128.79255 151.320588 
L 129.23895 137.042391 
L 129.68535 140.90351 
L 130.13175 157.098467 
L 130.57815 157.715227 
L 131.02455 157.885324 
L 131.47095 146.886138 
L 131.91735 146.301049 
L 132.36375 161.161868 
L 132.81015 155.69451 
L 133.25655 129.519382 
L 133.70295 200.79574 
L 134.14935 130.582865 
L 134.59575 172.703688 
L 135.04215 176.756871 
L 135.48855 174.006463 
L 135.93495 126.986955 
L 136.38135 178.381243 
L 136.82775 138.738572 
L 137.27415 165.234499 
L 137.72055 138.698132 
L 138.16695 160.933251 
L 138.61335 128.467642 
L 139.05975 145.879878 
L 139.50615 143.955503 
L 139.95255 112.746671 
L 140.39895 210.061516 
L 140.84535 191.15845 
L 141.29175 153.64344 
L 141.73815 167.552809 
L 142.18455 127.616554 
L 142.63095 121.20061 
L 143.07735 184.470069 
L 143.52375 149.153902 
L 143.97015 184.400747 
L 144.41655 164.710378 
L 144.86295 169.966592 
L 145.30935 129.89532 
L 145.75575 148.089121 
L 146.20215 151.437017 
L 146.64855 152.077676 
L 147.09495 159.499752 
L 147.54135 149.580396 
L 147.98775 182.768234 
L 148.43415 166.509405 
L 148.88055 139.662875 
L 149.32695 146.298413 
L 149.77335 101.077276 
L 150.21975 169.33808 
L 150.66615 171.418449 
L 151.11255 123.304483 
L 151.55895 90.420133 
L 152.00535 193.177577 
L 152.45175 167.496166 
L 152.89815 154.300299 
L 153.34455 131.238499 
L 153.79095 157.870178 
L 154.23735 173.919802 
L 154.68375 145.611446 
L 155.13015 166.678792 
L 155.57655 135.270091 
L 156.02295 148.766947 
L 156.46935 150.677446 
L 156.91575 188.806149 
L 157.80855 147.054726 
L 158.25495 185.007661 
L 158.70135 169.661573 
L 159.14775 167.803342 
L 159.59415 131.610692 
L 160.04055 166.841523 
L 160.48695 143.562199 
L 160.93335 177.169315 
L 161.37975 117.235945 
L 161.82615 175.662286 
L 162.27255 171.415253 
L 162.71895 138.944999 
L 163.16535 172.249501 
L 163.61175 161.73144 
L 164.05815 128.54896 
L 164.50455 146.285566 
L 164.95095 203.825719 
L 165.39735 139.661354 
L 165.84375 109.489003 
L 166.29015 117.985866 
L 166.73655 141.430869 
L 167.18295 138.26021 
L 167.62935 208.346703 
L 168.52215 127.052026 
L 168.96855 126.271277 
L 169.41495 139.40577 
L 170.30775 186.731245 
L 170.75415 146.009764 
L 171.20055 121.160968 
L 171.64695 159.311307 
L 172.09335 137.569237 
L 172.53975 172.837073 
L 172.98615 178.424734 
L 173.43255 134.570727 
L 173.87895 167.315855 
L 174.32535 127.905456 
L 174.77175 168.243074 
L 175.21815 144.754397 
L 175.66455 166.90796 
L 176.11095 138.736047 
L 176.55735 134.47222 
L 177.00375 127.006167 
L 177.45015 141.273619 
L 177.89655 122.560028 
L 178.34295 152.02091 
L 178.78935 163.075827 
L 179.23575 161.295557 
L 179.68215 156.061956 
L 180.12855 139.598552 
L 180.57495 201.191137 
L 181.02135 123.097814 
L 181.46775 119.09962 
L 181.91415 119.384999 
L 182.36055 113.562409 
L 182.80695 120.128979 
L 183.25335 120.798632 
L 183.69975 107.36012 
L 184.14615 118.176193 
L 184.59255 148.33658 
L 185.03895 129.09656 
L 185.48535 92.642625 
L 185.93175 138.990723 
L 186.37815 123.96596 
L 186.82455 117.577161 
L 187.27095 144.372912 
L 187.71735 151.259976 
L 188.16375 172.551452 
L 188.61015 130.114547 
L 189.50295 141.449049 
L 189.94935 139.534774 
L 190.39575 118.441312 
L 190.84215 119.69265 
L 191.28855 123.772828 
L 191.73495 111.998534 
L 192.18135 116.719313 
L 192.62775 127.117142 
L 193.07415 117.272577 
L 193.52055 86.560252 
L 193.96695 132.229912 
L 194.41335 113.030737 
L 194.85975 144.68457 
L 195.30615 111.696084 
L 195.75255 113.164439 
L 196.19895 90.589024 
L 196.64535 91.851886 
L 197.09175 147.229243 
L 197.53815 106.664663 
L 197.98455 176.241352 
L 198.43095 104.487958 
L 198.87735 140.805239 
L 199.32375 148.96778 
L 199.77015 148.250052 
L 200.21655 91.013636 
L 200.66295 98.061647 
L 201.10935 98.903724 
L 201.55575 80.491638 
L 202.00215 119.56652 
L 202.44855 101.514954 
L 202.89495 110.30062 
L 203.34135 107.670732 
L 203.78775 92.316815 
L 204.23415 106.33405 
L 204.68055 89.496557 
L 205.12695 99.106535 
L 205.57335 183.129571 
L 206.01975 134.486762 
L 206.46615 99.278487 
L 206.91255 99.583262 
L 207.35895 150.954716 
L 207.80535 158.382294 
L 208.25175 101.266036 
L 208.69815 103.032417 
L 209.14455 157.66865 
L 209.59095 154.464369 
L 210.03735 138.132933 
L 210.48375 97.637327 
L 210.93015 127.581164 
L 211.37655 142.299869 
L 211.82295 103.053055 
L 212.26935 93.56269 
L 212.71575 108.254929 
L 213.16215 141.477997 
L 213.60855 115.606595 
L 214.05495 97.851397 
L 214.50135 128.513201 
L 214.94775 91.91119 
L 215.84055 181.842343 
L 216.28695 122.603094 
L 216.73335 90.219101 
L 217.17975 84.952997 
L 217.62615 85.707582 
L 218.51895 127.045566 
L 218.96535 86.931387 
L 219.41175 160.148946 
L 219.85815 110.567708 
L 220.30455 139.742383 
L 220.75095 130.090784 
L 221.19735 94.051511 
L 221.64375 124.04332 
L 222.09015 130.190025 
L 222.53655 151.400564 
L 222.98295 114.214379 
L 223.42935 128.235362 
L 223.87575 129.136109 
L 224.32215 88.919193 
L 224.76855 103.577673 
L 225.21495 103.083887 
L 225.66135 110.735319 
L 226.10775 127.893027 
L 226.55415 117.555576 
L 227.44695 151.491766 
L 227.89335 105.975551 
L 228.33975 165.20663 
L 228.78615 93.704502 
L 229.23255 185.075784 
L 229.67895 88.630241 
L 230.12535 88.438212 
L 230.57175 76.238611 
L 231.01815 105.02545 
L 231.46455 99.765456 
L 231.91095 114.409898 
L 232.35735 156.265263 
L 232.80375 98.613116 
L 233.25015 115.037536 
L 233.69655 121.737508 
L 234.14295 87.274055 
L 234.58935 119.432617 
L 235.03575 106.305815 
L 235.48215 103.465556 
L 235.92855 122.681928 
L 236.37495 82.194566 
L 236.82135 136.37617 
L 237.26775 106.735615 
L 237.71415 136.924553 
L 238.16055 138.799235 
L 238.60695 107.10707 
L 239.05335 143.820891 
L 239.49975 95.597083 
L 239.94615 103.689497 
L 240.39255 128.472779 
L 240.83895 102.997126 
L 241.28535 159.473844 
L 241.73175 103.587616 
L 242.17815 150.513747 
L 242.62455 109.674744 
L 243.07095 120.927768 
L 243.51735 110.293764 
L 243.96375 129.108521 
L 244.41015 121.046681 
L 244.85655 110.299493 
L 245.30295 79.11738 
L 245.74935 82.812597 
L 246.19575 98.193 
L 246.64215 156.888066 
L 247.08855 92.60379 
L 247.53495 134.719867 
L 248.42775 95.667067 
L 248.87415 130.258733 
L 249.32055 111.249737 
L 249.76695 152.667575 
L 250.21335 80.875067 
L 250.65975 116.964862 
L 251.10615 72.904576 
L 251.55255 94.247424 
L 251.99895 90.678201 
L 252.44535 118.383475 
L 252.89175 98.944231 
L 253.33815 101.143961 
L 253.78455 70.195152 
L 254.23095 109.619944 
L 254.67735 99.711779 
L 255.12375 104.202915 
L 255.57015 102.014582 
L 256.01655 146.272286 
L 256.46295 113.655643 
L 256.90935 139.543881 
L 257.35575 108.568705 
L 257.80215 105.878419 
L 258.24855 119.68324 
L 258.69495 144.202015 
L 259.14135 122.995157 
L 259.58775 142.387322 
L 260.03415 87.948226 
L 260.48055 95.034835 
L 260.92695 86.150802 
L 261.37335 72.470836 
L 261.81975 86.900316 
L 262.26615 136.454826 
L 262.71255 120.50405 
L 263.15895 108.745708 
L 263.60535 62.156408 
L 264.49815 126.120667 
L 264.94455 104.554744 
L 265.39095 104.268412 
L 265.83735 130.956567 
L 266.28375 72.614155 
L 266.73015 102.708806 
L 267.17655 65.922978 
L 267.62295 129.263881 
L 268.51575 99.94211 
L 268.96215 184.223896 
L 269.40855 131.53088 
L 269.85495 58.06629 
L 270.30135 123.775013 
L 270.74775 69.255121 
L 271.19415 101.776126 
L 271.64055 68.089186 
L 272.08695 223.07299 
L 272.53335 65.132777 
L 272.97975 280.369156 
L 273.42615 119.583608 
L 273.87255 104.388869 
L 274.31895 78.180191 
L 274.76535 138.550398 
L 275.21175 87.751355 
L 275.65815 95.224332 
L 276.10455 98.657882 
L 276.55095 79.765102 
L 277.44375 97.250779 
L 277.89015 134.273596 
L 278.33655 106.94712 
L 278.78295 117.247624 
L 279.22935 183.064425 
L 279.67575 61.233818 
L 280.12215 120.21815 
L 280.56855 71.870583 
L 281.01495 140.490887 
L 281.46135 57.878717 
L 281.90775 91.553532 
L 282.35415 103.900366 
L 282.80055 61.668265 
L 283.24695 98.37669 
L 283.69335 94.565327 
L 284.13975 52.370556 
L 284.58615 79.521502 
L 285.03255 56.584597 
L 285.47895 121.947514 
L 285.92535 52.239186 
L 286.37175 76.760984 
L 286.81815 117.92673 
L 287.26455 76.417581 
L 287.71095 103.150614 
L 288.15735 73.321736 
L 288.60375 99.886864 
L 289.05015 56.954102 
L 289.49655 163.134168 
L 289.94295 81.827308 
L 290.38935 74.854322 
L 290.83575 83.192406 
L 291.28215 72.809208 
L 291.72855 81.036756 
L 292.17495 97.670149 
L 292.62135 143.219227 
L 293.06775 96.15465 
L 293.51415 70.772788 
L 293.96055 214.974819 
L 294.40695 118.063001 
L 294.85335 128.811531 
L 295.29975 199.999062 
L 295.74615 63.411555 
L 296.19255 79.951182 
L 296.63895 89.906135 
L 297.08535 63.780016 
L 297.53175 88.996405 
L 297.97815 99.973882 
L 298.42455 101.179744 
L 298.87095 60.902154 
L 299.31735 87.124348 
L 299.76375 87.096423 
L 300.21015 59.138332 
L 300.65655 233.254614 
L 301.10295 78.442231 
L 301.54935 88.927765 
L 301.99575 203.963036 
L 302.44215 72.183565 
L 302.88855 99.965117 
L 303.33495 65.167384 
L 303.78135 57.615257 
L 304.22775 114.622104 
L 304.67415 67.398168 
L 305.12055 55.277775 
L 305.56695 79.929339 
L 306.01335 47.863957 
L 306.45975 64.978566 
L 306.90615 102.645477 
L 307.35255 60.235746 
L 307.79895 163.060833 
L 308.24535 55.577671 
L 308.69175 54.396444 
L 309.13815 86.193963 
L 309.58455 62.429125 
L 310.03095 100.37042 
L 310.47735 73.570943 
L 310.92375 100.758657 
L 311.37015 79.760443 
L 311.81655 64.035597 
L 312.26295 205.764377 
L 312.70935 84.666014 
L 313.15575 100.322537 
L 313.60215 137.299743 
L 314.04855 95.070572 
L 314.49495 97.547694 
L 314.94135 110.585345 
L 315.38775 57.749473 
L 315.83415 62.268259 
L 316.28055 97.330475 
L 317.17335 65.872884 
L 317.61975 101.470019 
L 318.06615 64.857889 
L 318.51255 69.782673 
L 318.95895 134.449925 
L 319.40535 80.684886 
L 320.29815 76.324994 
L 320.74455 181.883285 
L 321.19095 53.914535 
L 321.63735 65.363708 
L 322.08375 61.963023 
L 322.53015 88.623722 
L 322.97655 73.387915 
L 323.42295 82.234007 
L 323.86935 76.297597 
L 324.31575 49.429715 
L 324.76215 62.237123 
L 325.20855 116.446085 
L 325.65495 75.616211 
L 326.10135 114.143163 
L 326.54775 84.506812 
L 326.99415 88.297337 
L 327.44055 45.988609 
L 327.88695 239.471453 
L 328.33335 80.132648 
L 328.77975 79.00684 
L 329.22615 95.22172 
L 329.67255 50.984888 
L 330.11895 78.286086 
L 330.56535 51.750903 
L 331.01175 94.954256 
L 331.45815 50.710566 
L 331.90455 104.175005 
L 332.35095 44.358658 
L 332.79735 205.826964 
L 333.24375 72.899879 
L 334.13655 46.451358 
L 334.58295 75.505021 
L 335.02935 57.837725 
L 335.47575 57.305168 
L 335.92215 78.283004 
L 336.36855 57.029346 
L 336.81495 95.394815 
L 337.26135 82.984625 
L 337.70775 55.865201 
L 338.15415 50.773794 
L 339.04695 82.612363 
L 339.49335 59.88768 
L 339.93975 74.823869 
L 340.38615 112.850361 
L 340.83255 66.168896 
L 341.27895 53.071302 
L 341.72535 109.010565 
L 342.17175 58.758895 
L 342.61815 106.618279 
L 343.06455 49.604239 
L 343.51095 66.977289 
L 343.95735 47.28858 
L 344.40375 60.822681 
L 344.85015 46.126137 
L 345.29655 90.409411 
L 345.74295 59.6813 
L 346.18935 67.315793 
L 346.63575 64.224978 
L 347.08215 96.063855 
L 347.52855 73.786244 
L 347.97495 73.588046 
L 348.42135 59.408549 
L 348.86775 148.675992 
L 349.31415 115.589389 
L 349.76055 66.211219 
L 350.65335 90.609125 
L 351.09975 82.248491 
L 351.54615 49.070465 
L 351.99255 56.219225 
L 352.43895 115.853533 
L 352.88535 47.495536 
L 353.33175 110.123256 
L 353.77815 49.354185 
L 354.22455 123.656361 
L 354.67095 79.911019 
L 355.11735 105.644306 
L 355.56375 94.883061 
L 356.01015 48.697563 
L 356.45655 127.672528 
L 356.90295 48.658749 
L 357.34935 69.437561 
L 357.79575 69.880531 
L 358.24215 52.739898 
L 358.68855 83.802555 
L 359.13495 57.532565 
L 359.58135 51.900163 
L 360.02775 97.689527 
L 360.47415 48.073947 
L 360.92055 181.625329 
L 361.36695 86.01426 
L 361.81335 51.367337 
L 362.25975 124.993412 
L 362.70615 66.668764 
L 363.15255 60.900437 
L 363.59895 52.623625 
L 364.04535 74.36062 
L 364.49175 78.832196 
L 364.93815 65.651232 
L 365.38455 142.313897 
L 365.83095 80.740768 
L 366.27735 42.628588 
L 366.72375 75.472011 
L 367.17015 95.228179 
L 367.61655 47.943275 
L 368.06295 55.00226 
L 368.50935 48.423454 
L 368.95575 80.58516 
L 369.84855 57.878932 
L 370.29495 79.424122 
L 370.74135 58.98879 
L 371.18775 94.296429 
L 371.63415 60.619071 
L 372.08055 189.220867 
L 372.52695 58.162318 
L 372.97335 55.094814 
L 373.41975 58.421394 
L 373.86615 59.817935 
L 374.31255 109.264951 
L 374.75895 115.15063 
L 375.20535 57.077094 
L 375.65175 87.703067 
L 376.09815 89.156614 
L 376.54455 53.926825 
L 376.99095 51.565463 
L 377.43735 79.395152 
L 377.88375 51.171836 
L 378.33015 98.123123 
L 379.66935 52.189408 
L 380.11575 58.686926 
L 380.56215 46.357814 
L 381.00855 81.813093 
L 381.45495 60.052283 
L 381.90135 56.655542 
L 382.34775 82.943331 
L 382.79415 40.693895 
L 383.24055 87.512028 
L 384.13335 64.390445 
L 384.57975 77.794887 
L 385.02615 57.867942 
L 385.47255 78.076225 
L 385.91895 74.334192 
L 386.36535 65.835715 
L 387.25815 105.76512 
L 387.70455 77.553868 
L 388.15095 80.498688 
L 388.59735 64.402598 
L 389.04375 100.758728 
L 389.49015 86.830781 
L 389.93655 86.291022 
L 390.38295 59.671975 
L 390.82935 57.04572 
L 391.72215 78.116491 
L 392.16855 65.865594 
L 392.61495 59.931745 
L 393.06135 160.762683 
L 393.95415 65.23468 
L 394.40055 74.914538 
L 394.84695 101.350499 
L 395.29335 54.761931 
L 395.73975 105.943816 
L 396.18615 69.315543 
L 396.63255 74.517212 
L 397.07895 68.100091 
L 397.52535 66.24185 
L 397.97175 57.380443 
L 398.41815 91.827017 
L 398.86455 91.055765 
L 399.31095 102.523964 
L 399.75735 56.979678 
L 400.20375 73.406544 
L 400.65015 94.689285 
L 401.09655 47.991159 
L 401.54295 85.345157 
L 401.98935 102.6193 
L 402.43575 72.241838 
L 402.88215 110.111582 
L 403.32855 54.213275 
L 403.77495 79.2503 
L 404.22135 84.270735 
L 404.66775 131.84036 
L 405.11415 91.877124 
L 405.56055 91.286278 
L 406.00695 63.888508 
L 406.89975 98.66901 
L 407.34615 91.159636 
L 407.79255 70.593776 
L 408.23895 73.364194 
L 408.68535 51.570446 
L 409.13175 97.700141 
L 409.57815 78.72699 
L 410.02455 71.111264 
L 410.47095 94.442999 
L 410.91735 62.439405 
L 411.36375 60.833402 
L 411.81015 59.786092 
L 412.25655 74.394861 
L 412.70295 79.923699 
L 413.14935 162.428137 
L 413.59575 95.597057 
L 414.04215 63.632271 
L 414.48855 134.690678 
L 414.93495 65.486446 
L 415.38135 70.637471 
L 415.82775 169.152714 
L 416.27415 98.586904 
L 416.72055 125.138801 
L 417.16695 76.400492 
L 417.61335 193.934108 
L 418.05975 58.863964 
L 418.50615 73.211673 
L 418.95255 150.083274 
L 419.39895 93.885897 
L 419.84535 253.314119 
L 420.29175 191.979914 
L 420.73815 75.483588 
L 421.18455 148.285796 
L 421.63095 66.811572 
L 422.07735 128.123688 
L 422.52375 61.139711 
L 422.97015 163.72894 
L 423.41655 52.001349 
L 424.30935 173.140405 
L 424.75575 145.151605 
L 425.20215 85.176736 
L 425.64855 113.486203 
L 426.09495 232.879626 
L 426.54135 181.739326 
L 426.98775 59.769838 
L 427.43415 87.635659 
L 427.88055 188.263587 
L 428.32695 77.154783 
L 428.77335 89.65618 
L 429.21975 58.643529 
L 429.66615 67.178071 
L 430.11255 63.109413 
L 430.55895 176.830543 
L 431.00535 102.674114 
L 431.45175 71.029834 
L 431.89815 66.033748 
L 432.34455 104.188257 
L 432.79095 72.874094 
L 433.23735 78.914219 
L 433.68375 66.990004 
L 434.13015 90.307266 
L 434.57655 57.452879 
L 435.02295 76.21594 
L 435.46935 69.461442 
L 435.91575 80.143967 
L 436.36215 85.822382 
L 436.80855 54.625152 
L 437.25495 114.517295 
L 437.70135 66.4234 
L 438.14775 70.295761 
L 438.59415 135.310735 
L 439.04055 64.526988 
L 439.48695 78.934533 
L 439.93335 66.277772 
L 440.37975 79.977993 
L 440.82615 56.494261 
L 441.27255 60.312649 
L 441.71895 67.97585 
L 442.16535 60.557398 
L 442.61175 57.950243 
L 443.05815 84.798367 
L 443.50455 56.097143 
L 444.39735 137.698365 
L 444.84375 81.340299 
L 445.29015 76.547195 
L 445.73655 55.374994 
L 446.18295 52.009374 
L 446.62935 68.650148 
L 447.07575 51.130319 
L 447.52215 45.751707 
L 447.96855 48.491747 
L 448.41495 111.86044 
L 448.86135 60.880931 
L 449.30775 81.289102 
L 449.75415 83.406155 
L 450.20055 47.857847 
L 450.64695 63.690936 
L 451.09335 59.872993 
L 451.53975 66.971574 
L 451.98615 52.685986 
L 452.43255 48.322055 
L 452.87895 118.754321 
L 453.32535 82.823255 
L 453.77175 56.206819 
L 454.21815 47.475754 
L 455.11095 68.619728 
L 455.55735 57.446776 
L 456.00375 69.190881 
L 456.45015 93.30606 
L 456.89655 55.566117 
L 457.34295 130.150182 
L 457.78935 56.997861 
L 458.23575 54.612908 
L 458.68215 68.251426 
L 459.12855 60.497794 
L 459.57495 129.774409 
L 460.02135 48.445698 
L 460.46775 75.208204 
L 460.91415 56.25185 
L 461.36055 50.836246 
L 461.80695 59.450375 
L 462.25335 52.670305 
L 462.69975 64.466497 
L 463.14615 68.561372 
L 463.59255 84.408657 
L 464.03895 81.944138 
L 464.48535 119.716632 
L 464.93175 50.366408 
L 465.37815 130.279118 
L 465.82455 48.575893 
L 466.27095 49.192746 
L 466.71735 48.73855 
L 467.16375 53.811331 
L 467.61015 43.001301 
L 468.05655 50.559087 
L 468.50295 54.407032 
L 468.94935 46.186757 
L 469.39575 65.604136 
L 469.84215 41.431594 
L 470.28855 108.566755 
L 470.73495 94.504119 
L 471.18135 47.565414 
L 471.62775 56.583431 
L 472.07415 111.406642 
L 472.52055 65.297058 
L 472.96695 41.546267 
L 473.41335 54.877462 
L 474.30615 110.949964 
L 474.75255 42.581081 
L 475.19895 48.616004 
L 475.64535 52.38467 
L 476.09175 49.404713 
L 476.53815 58.161802 
L 476.98455 43.504115 
L 477.43095 51.350442 
L 477.87735 46.278294 
L 478.32375 38.311835 
L 478.77015 44.917317 
L 479.21655 48.973933 
L 479.66295 123.035777 
L 480.10935 51.182828 
L 480.55575 154.488426 
L 481.00215 47.840435 
L 481.44855 157.069269 
L 481.89495 64.309611 
L 482.34135 45.805217 
L 482.78775 54.665388 
L 483.23415 47.802685 
L 483.68055 53.531154 
L 484.12695 55.719601 
L 484.57335 65.416739 
L 485.01975 47.5978 
L 485.46615 78.603702 
L 485.91255 57.708828 
L 486.80535 49.574084 
L 487.69815 54.299878 
L 488.14455 52.740243 
L 488.59095 160.933741 
L 489.03735 57.482275 
L 489.48375 160.252212 
L 489.48375 160.252212 
" style="fill:none;stroke:#0000ff;stroke-linecap:square;stroke-width:0.5;"/>
   </g>
   <g id="patch_3">
    <path d="M 489.48375 368.74175 
L 489.48375 23.14175 
" style="fill:none;stroke:#000000;stroke-linecap:square;stroke-linejoin:miter;"/>
   </g>
   <g id="patch_4">
    <path d="M 43.08375 368.74175 
L 43.08375 23.14175 
" style="fill:none;stroke:#000000;stroke-linecap:square;stroke-linejoin:miter;"/>
   </g>
   <g id="patch_5">
    <path d="M 43.08375 368.74175 
L 489.48375 368.74175 
" style="fill:none;stroke:#000000;stroke-linecap:square;stroke-linejoin:miter;"/>
   </g>
   <g id="patch_6">
    <path d="M 43.08375 23.14175 
L 489.48375 23.14175 
" style="fill:none;stroke:#000000;stroke-linecap:square;stroke-linejoin:miter;"/>
   </g>
   <g id="matplotlib.axis_1">
    <g id="xtick_1">
     <g id="line2d_2">
      <defs>
       <path d="M 0 0 
L 0 -4 
" id="mdf8239eca8" style="stroke:#000000;stroke-width:0.5;"/>
      </defs>
      <g>
       <use style="stroke:#000000;stroke-width:0.5;" x="43.08375" xlink:href="#mdf8239eca8" y="368.74175"/>
      </g>
     </g>
     <g id="line2d_3">
      <defs>
       <path d="M 0 0 
L 0 4 
" id="m7972bbccd2" style="stroke:#000000;stroke-width:0.5;"/>
      </defs>
      <g>
       <use style="stroke:#000000;stroke-width:0.5;" x="43.08375" xlink:href="#m7972bbccd2" y="23.14175"/>
      </g>
     </g>
     <g id="text_1">
      <!-- 0 -->
      <defs>
       <path d="M 31.78125 66.40625 
Q 24.171875 66.40625 20.328125 58.90625 
Q 16.5 51.421875 16.5 36.375 
Q 16.5 21.390625 20.328125 13.890625 
Q 24.171875 6.390625 31.78125 6.390625 
Q 39.453125 6.390625 43.28125 13.890625 
Q 47.125 21.390625 47.125 36.375 
Q 47.125 51.421875 43.28125 58.90625 
Q 39.453125 66.40625 31.78125 66.40625 
M 31.78125 74.21875 
Q 44.046875 74.21875 50.515625 64.515625 
Q 56.984375 54.828125 56.984375 36.375 
Q 56.984375 17.96875 50.515625 8.265625 
Q 44.046875 -1.421875 31.78125 -1.421875 
Q 19.53125 -1.421875 13.0625 8.265625 
Q 6.59375 17.96875 6.59375 36.375 
Q 6.59375 54.828125 13.0625 64.515625 
Q 19.53125 74.21875 31.78125 74.21875 
" id="BitstreamVeraSans-Roman-30"/>
      </defs>
      <g transform="translate(39.26625 381.859875)scale(0.12 -0.12)">
       <use xlink:href="#BitstreamVeraSans-Roman-30"/>
      </g>
     </g>
    </g>
    <g id="xtick_2">
     <g id="line2d_4">
      <g>
       <use style="stroke:#000000;stroke-width:0.5;" x="132.36375" xlink:href="#mdf8239eca8" y="368.74175"/>
      </g>
     </g>
     <g id="line2d_5">
      <g>
       <use style="stroke:#000000;stroke-width:0.5;" x="132.36375" xlink:href="#m7972bbccd2" y="23.14175"/>
      </g>
     </g>
     <g id="text_2">
      <!-- 200 -->
      <defs>
       <path d="M 19.1875 8.296875 
L 53.609375 8.296875 
L 53.609375 0 
L 7.328125 0 
L 7.328125 8.296875 
Q 12.9375 14.109375 22.625 23.890625 
Q 32.328125 33.6875 34.8125 36.53125 
Q 39.546875 41.84375 41.421875 45.53125 
Q 43.3125 49.21875 43.3125 52.78125 
Q 43.3125 58.59375 39.234375 62.25 
Q 35.15625 65.921875 28.609375 65.921875 
Q 23.96875 65.921875 18.8125 64.3125 
Q 13.671875 62.703125 7.8125 59.421875 
L 7.8125 69.390625 
Q 13.765625 71.78125 18.9375 73 
Q 24.125 74.21875 28.421875 74.21875 
Q 39.75 74.21875 46.484375 68.546875 
Q 53.21875 62.890625 53.21875 53.421875 
Q 53.21875 48.921875 51.53125 44.890625 
Q 49.859375 40.875 45.40625 35.40625 
Q 44.1875 33.984375 37.640625 27.21875 
Q 31.109375 20.453125 19.1875 8.296875 
" id="BitstreamVeraSans-Roman-32"/>
      </defs>
      <g transform="translate(120.91125 381.859875)scale(0.12 -0.12)">
       <use xlink:href="#BitstreamVeraSans-Roman-32"/>
       <use x="63.623046875" xlink:href="#BitstreamVeraSans-Roman-30"/>
       <use x="127.24609375" xlink:href="#BitstreamVeraSans-Roman-30"/>
      </g>
     </g>
    </g>
    <g id="xtick_3">
     <g id="line2d_6">
      <g>
       <use style="stroke:#000000;stroke-width:0.5;" x="221.64375" xlink:href="#mdf8239eca8" y="368.74175"/>
      </g>
     </g>
     <g id="line2d_7">
      <g>
       <use style="stroke:#000000;stroke-width:0.5;" x="221.64375" xlink:href="#m7972bbccd2" y="23.14175"/>
      </g>
     </g>
     <g id="text_3">
      <!-- 400 -->
      <defs>
       <path d="M 37.796875 64.3125 
L 12.890625 25.390625 
L 37.796875 25.390625 
z
M 35.203125 72.90625 
L 47.609375 72.90625 
L 47.609375 25.390625 
L 58.015625 25.390625 
L 58.015625 17.1875 
L 47.609375 17.1875 
L 47.609375 0 
L 37.796875 0 
L 37.796875 17.1875 
L 4.890625 17.1875 
L 4.890625 26.703125 
z
" id="BitstreamVeraSans-Roman-34"/>
      </defs>
      <g transform="translate(210.19125 381.859875)scale(0.12 -0.12)">
       <use xlink:href="#BitstreamVeraSans-Roman-34"/>
       <use x="63.623046875" xlink:href="#BitstreamVeraSans-Roman-30"/>
       <use x="127.24609375" xlink:href="#BitstreamVeraSans-Roman-30"/>
      </g>
     </g>
    </g>
    <g id="xtick_4">
     <g id="line2d_8">
      <g>
       <use style="stroke:#000000;stroke-width:0.5;" x="310.92375" xlink:href="#mdf8239eca8" y="368.74175"/>
      </g>
     </g>
     <g id="line2d_9">
      <g>
       <use style="stroke:#000000;stroke-width:0.5;" x="310.92375" xlink:href="#m7972bbccd2" y="23.14175"/>
      </g>
     </g>
     <g id="text_4">
      <!-- 600 -->
      <defs>
       <path d="M 33.015625 40.375 
Q 26.375 40.375 22.484375 35.828125 
Q 18.609375 31.296875 18.609375 23.390625 
Q 18.609375 15.53125 22.484375 10.953125 
Q 26.375 6.390625 33.015625 6.390625 
Q 39.65625 6.390625 43.53125 10.953125 
Q 47.40625 15.53125 47.40625 23.390625 
Q 47.40625 31.296875 43.53125 35.828125 
Q 39.65625 40.375 33.015625 40.375 
M 52.59375 71.296875 
L 52.59375 62.3125 
Q 48.875 64.0625 45.09375 64.984375 
Q 41.3125 65.921875 37.59375 65.921875 
Q 27.828125 65.921875 22.671875 59.328125 
Q 17.53125 52.734375 16.796875 39.40625 
Q 19.671875 43.65625 24.015625 45.921875 
Q 28.375 48.1875 33.59375 48.1875 
Q 44.578125 48.1875 50.953125 41.515625 
Q 57.328125 34.859375 57.328125 23.390625 
Q 57.328125 12.15625 50.6875 5.359375 
Q 44.046875 -1.421875 33.015625 -1.421875 
Q 20.359375 -1.421875 13.671875 8.265625 
Q 6.984375 17.96875 6.984375 36.375 
Q 6.984375 53.65625 15.1875 63.9375 
Q 23.390625 74.21875 37.203125 74.21875 
Q 40.921875 74.21875 44.703125 73.484375 
Q 48.484375 72.75 52.59375 71.296875 
" id="BitstreamVeraSans-Roman-36"/>
      </defs>
      <g transform="translate(299.47125 381.859875)scale(0.12 -0.12)">
       <use xlink:href="#BitstreamVeraSans-Roman-36"/>
       <use x="63.623046875" xlink:href="#BitstreamVeraSans-Roman-30"/>
       <use x="127.24609375" xlink:href="#BitstreamVeraSans-Roman-30"/>
      </g>
     </g>
    </g>
    <g id="xtick_5">
     <g id="line2d_10">
      <g>
       <use style="stroke:#000000;stroke-width:0.5;" x="400.20375" xlink:href="#mdf8239eca8" y="368.74175"/>
      </g>
     </g>
     <g id="line2d_11">
      <g>
       <use style="stroke:#000000;stroke-width:0.5;" x="400.20375" xlink:href="#m7972bbccd2" y="23.14175"/>
      </g>
     </g>
     <g id="text_5">
      <!-- 800 -->
      <defs>
       <path d="M 31.78125 34.625 
Q 24.75 34.625 20.71875 30.859375 
Q 16.703125 27.09375 16.703125 20.515625 
Q 16.703125 13.921875 20.71875 10.15625 
Q 24.75 6.390625 31.78125 6.390625 
Q 38.8125 6.390625 42.859375 10.171875 
Q 46.921875 13.96875 46.921875 20.515625 
Q 46.921875 27.09375 42.890625 30.859375 
Q 38.875 34.625 31.78125 34.625 
M 21.921875 38.8125 
Q 15.578125 40.375 12.03125 44.71875 
Q 8.5 49.078125 8.5 55.328125 
Q 8.5 64.0625 14.71875 69.140625 
Q 20.953125 74.21875 31.78125 74.21875 
Q 42.671875 74.21875 48.875 69.140625 
Q 55.078125 64.0625 55.078125 55.328125 
Q 55.078125 49.078125 51.53125 44.71875 
Q 48 40.375 41.703125 38.8125 
Q 48.828125 37.15625 52.796875 32.3125 
Q 56.78125 27.484375 56.78125 20.515625 
Q 56.78125 9.90625 50.3125 4.234375 
Q 43.84375 -1.421875 31.78125 -1.421875 
Q 19.734375 -1.421875 13.25 4.234375 
Q 6.78125 9.90625 6.78125 20.515625 
Q 6.78125 27.484375 10.78125 32.3125 
Q 14.796875 37.15625 21.921875 38.8125 
M 18.3125 54.390625 
Q 18.3125 48.734375 21.84375 45.5625 
Q 25.390625 42.390625 31.78125 42.390625 
Q 38.140625 42.390625 41.71875 45.5625 
Q 45.3125 48.734375 45.3125 54.390625 
Q 45.3125 60.0625 41.71875 63.234375 
Q 38.140625 66.40625 31.78125 66.40625 
Q 25.390625 66.40625 21.84375 63.234375 
Q 18.3125 60.0625 18.3125 54.390625 
" id="BitstreamVeraSans-Roman-38"/>
      </defs>
      <g transform="translate(388.75125 381.859875)scale(0.12 -0.12)">
       <use xlink:href="#BitstreamVeraSans-Roman-38"/>
       <use x="63.623046875" xlink:href="#BitstreamVeraSans-Roman-30"/>
       <use x="127.24609375" xlink:href="#BitstreamVeraSans-Roman-30"/>
      </g>
     </g>
    </g>
    <g id="xtick_6">
     <g id="line2d_12">
      <g>
       <use style="stroke:#000000;stroke-width:0.5;" x="489.48375" xlink:href="#mdf8239eca8" y="368.74175"/>
      </g>
     </g>
     <g id="line2d_13">
      <g>
       <use style="stroke:#000000;stroke-width:0.5;" x="489.48375" xlink:href="#m7972bbccd2" y="23.14175"/>
      </g>
     </g>
     <g id="text_6">
      <!-- 1000 -->
      <defs>
       <path d="M 12.40625 8.296875 
L 28.515625 8.296875 
L 28.515625 63.921875 
L 10.984375 60.40625 
L 10.984375 69.390625 
L 28.421875 72.90625 
L 38.28125 72.90625 
L 38.28125 8.296875 
L 54.390625 8.296875 
L 54.390625 0 
L 12.40625 0 
z
" id="BitstreamVeraSans-Roman-31"/>
      </defs>
      <g transform="translate(474.21375 381.859875)scale(0.12 -0.12)">
       <use xlink:href="#BitstreamVeraSans-Roman-31"/>
       <use x="63.623046875" xlink:href="#BitstreamVeraSans-Roman-30"/>
       <use x="127.24609375" xlink:href="#BitstreamVeraSans-Roman-30"/>
       <use x="190.869140625" xlink:href="#BitstreamVeraSans-Roman-30"/>
      </g>
     </g>
    </g>
    <g id="text_7">
     <!-- episodes -->
     <defs>
      <path d="M 45.40625 46.390625 
L 45.40625 75.984375 
L 54.390625 75.984375 
L 54.390625 0 
L 45.40625 0 
L 45.40625 8.203125 
Q 42.578125 3.328125 38.25 0.953125 
Q 33.9375 -1.421875 27.875 -1.421875 
Q 17.96875 -1.421875 11.734375 6.484375 
Q 5.515625 14.40625 5.515625 27.296875 
Q 5.515625 40.1875 11.734375 48.09375 
Q 17.96875 56 27.875 56 
Q 33.9375 56 38.25 53.625 
Q 42.578125 51.265625 45.40625 46.390625 
M 14.796875 27.296875 
Q 14.796875 17.390625 18.875 11.75 
Q 22.953125 6.109375 30.078125 6.109375 
Q 37.203125 6.109375 41.296875 11.75 
Q 45.40625 17.390625 45.40625 27.296875 
Q 45.40625 37.203125 41.296875 42.84375 
Q 37.203125 48.484375 30.078125 48.484375 
Q 22.953125 48.484375 18.875 42.84375 
Q 14.796875 37.203125 14.796875 27.296875 
" id="BitstreamVeraSans-Roman-64"/>
      <path d="M 30.609375 48.390625 
Q 23.390625 48.390625 19.1875 42.75 
Q 14.984375 37.109375 14.984375 27.296875 
Q 14.984375 17.484375 19.15625 11.84375 
Q 23.34375 6.203125 30.609375 6.203125 
Q 37.796875 6.203125 41.984375 11.859375 
Q 46.1875 17.53125 46.1875 27.296875 
Q 46.1875 37.015625 41.984375 42.703125 
Q 37.796875 48.390625 30.609375 48.390625 
M 30.609375 56 
Q 42.328125 56 49.015625 48.375 
Q 55.71875 40.765625 55.71875 27.296875 
Q 55.71875 13.875 49.015625 6.21875 
Q 42.328125 -1.421875 30.609375 -1.421875 
Q 18.84375 -1.421875 12.171875 6.21875 
Q 5.515625 13.875 5.515625 27.296875 
Q 5.515625 40.765625 12.171875 48.375 
Q 18.84375 56 30.609375 56 
" id="BitstreamVeraSans-Roman-6f"/>
      <path d="M 9.421875 54.6875 
L 18.40625 54.6875 
L 18.40625 0 
L 9.421875 0 
z
M 9.421875 75.984375 
L 18.40625 75.984375 
L 18.40625 64.59375 
L 9.421875 64.59375 
z
" id="BitstreamVeraSans-Roman-69"/>
      <path d="M 18.109375 8.203125 
L 18.109375 -20.796875 
L 9.078125 -20.796875 
L 9.078125 54.6875 
L 18.109375 54.6875 
L 18.109375 46.390625 
Q 20.953125 51.265625 25.265625 53.625 
Q 29.59375 56 35.59375 56 
Q 45.5625 56 51.78125 48.09375 
Q 58.015625 40.1875 58.015625 27.296875 
Q 58.015625 14.40625 51.78125 6.484375 
Q 45.5625 -1.421875 35.59375 -1.421875 
Q 29.59375 -1.421875 25.265625 0.953125 
Q 20.953125 3.328125 18.109375 8.203125 
M 48.6875 27.296875 
Q 48.6875 37.203125 44.609375 42.84375 
Q 40.53125 48.484375 33.40625 48.484375 
Q 26.265625 48.484375 22.1875 42.84375 
Q 18.109375 37.203125 18.109375 27.296875 
Q 18.109375 17.390625 22.1875 11.75 
Q 26.265625 6.109375 33.40625 6.109375 
Q 40.53125 6.109375 44.609375 11.75 
Q 48.6875 17.390625 48.6875 27.296875 
" id="BitstreamVeraSans-Roman-70"/>
      <path d="M 44.28125 53.078125 
L 44.28125 44.578125 
Q 40.484375 46.53125 36.375 47.5 
Q 32.28125 48.484375 27.875 48.484375 
Q 21.1875 48.484375 17.84375 46.4375 
Q 14.5 44.390625 14.5 40.28125 
Q 14.5 37.15625 16.890625 35.375 
Q 19.28125 33.59375 26.515625 31.984375 
L 29.59375 31.296875 
Q 39.15625 29.25 43.1875 25.515625 
Q 47.21875 21.78125 47.21875 15.09375 
Q 47.21875 7.46875 41.1875 3.015625 
Q 35.15625 -1.421875 24.609375 -1.421875 
Q 20.21875 -1.421875 15.453125 -0.5625 
Q 10.6875 0.296875 5.421875 2 
L 5.421875 11.28125 
Q 10.40625 8.6875 15.234375 7.390625 
Q 20.0625 6.109375 24.8125 6.109375 
Q 31.15625 6.109375 34.5625 8.28125 
Q 37.984375 10.453125 37.984375 14.40625 
Q 37.984375 18.0625 35.515625 20.015625 
Q 33.0625 21.96875 24.703125 23.78125 
L 21.578125 24.515625 
Q 13.234375 26.265625 9.515625 29.90625 
Q 5.8125 33.546875 5.8125 39.890625 
Q 5.8125 47.609375 11.28125 51.796875 
Q 16.75 56 26.8125 56 
Q 31.78125 56 36.171875 55.265625 
Q 40.578125 54.546875 44.28125 53.078125 
" id="BitstreamVeraSans-Roman-73"/>
      <path d="M 56.203125 29.59375 
L 56.203125 25.203125 
L 14.890625 25.203125 
Q 15.484375 15.921875 20.484375 11.0625 
Q 25.484375 6.203125 34.421875 6.203125 
Q 39.59375 6.203125 44.453125 7.46875 
Q 49.3125 8.734375 54.109375 11.28125 
L 54.109375 2.78125 
Q 49.265625 0.734375 44.1875 -0.34375 
Q 39.109375 -1.421875 33.890625 -1.421875 
Q 20.796875 -1.421875 13.15625 6.1875 
Q 5.515625 13.8125 5.515625 26.8125 
Q 5.515625 40.234375 12.765625 48.109375 
Q 20.015625 56 32.328125 56 
Q 43.359375 56 49.78125 48.890625 
Q 56.203125 41.796875 56.203125 29.59375 
M 47.21875 32.234375 
Q 47.125 39.59375 43.09375 43.984375 
Q 39.0625 48.390625 32.421875 48.390625 
Q 24.90625 48.390625 20.390625 44.140625 
Q 15.875 39.890625 15.1875 32.171875 
z
" id="BitstreamVeraSans-Roman-65"/>
     </defs>
     <g transform="translate(239.6925 398.473625)scale(0.12 -0.12)">
      <use xlink:href="#BitstreamVeraSans-Roman-65"/>
      <use x="61.5234375" xlink:href="#BitstreamVeraSans-Roman-70"/>
      <use x="125.0" xlink:href="#BitstreamVeraSans-Roman-69"/>
      <use x="152.783203125" xlink:href="#BitstreamVeraSans-Roman-73"/>
      <use x="204.8828125" xlink:href="#BitstreamVeraSans-Roman-6f"/>
      <use x="266.064453125" xlink:href="#BitstreamVeraSans-Roman-64"/>
      <use x="329.541015625" xlink:href="#BitstreamVeraSans-Roman-65"/>
      <use x="391.064453125" xlink:href="#BitstreamVeraSans-Roman-73"/>
     </g>
    </g>
   </g>
   <g id="matplotlib.axis_2">
    <g id="ytick_1">
     <g id="line2d_14">
      <defs>
       <path d="M 0 0 
L 4 0 
" id="me51df9f6c3" style="stroke:#000000;stroke-width:0.5;"/>
      </defs>
      <g>
       <use style="stroke:#000000;stroke-width:0.5;" x="43.08375" xlink:href="#me51df9f6c3" y="368.74175"/>
      </g>
     </g>
     <g id="line2d_15">
      <defs>
       <path d="M 0 0 
L -4 0 
" id="ma3dac8aca7" style="stroke:#000000;stroke-width:0.5;"/>
      </defs>
      <g>
       <use style="stroke:#000000;stroke-width:0.5;" x="489.48375" xlink:href="#ma3dac8aca7" y="368.74175"/>
      </g>
     </g>
     <g id="text_8">
      <!-- 0 -->
      <g transform="translate(31.44875 372.053)scale(0.12 -0.12)">
       <use xlink:href="#BitstreamVeraSans-Roman-30"/>
      </g>
     </g>
    </g>
    <g id="ytick_2">
     <g id="line2d_16">
      <g>
       <use style="stroke:#000000;stroke-width:0.5;" x="43.08375" xlink:href="#me51df9f6c3" y="299.62175"/>
      </g>
     </g>
     <g id="line2d_17">
      <g>
       <use style="stroke:#000000;stroke-width:0.5;" x="489.48375" xlink:href="#ma3dac8aca7" y="299.62175"/>
      </g>
     </g>
     <g id="text_9">
      <!-- 2 -->
      <g transform="translate(31.44875 302.933)scale(0.12 -0.12)">
       <use xlink:href="#BitstreamVeraSans-Roman-32"/>
      </g>
     </g>
    </g>
    <g id="ytick_3">
     <g id="line2d_18">
      <g>
       <use style="stroke:#000000;stroke-width:0.5;" x="43.08375" xlink:href="#me51df9f6c3" y="230.50175"/>
      </g>
     </g>
     <g id="line2d_19">
      <g>
       <use style="stroke:#000000;stroke-width:0.5;" x="489.48375" xlink:href="#ma3dac8aca7" y="230.50175"/>
      </g>
     </g>
     <g id="text_10">
      <!-- 4 -->
      <g transform="translate(31.44875 233.813)scale(0.12 -0.12)">
       <use xlink:href="#BitstreamVeraSans-Roman-34"/>
      </g>
     </g>
    </g>
    <g id="ytick_4">
     <g id="line2d_20">
      <g>
       <use style="stroke:#000000;stroke-width:0.5;" x="43.08375" xlink:href="#me51df9f6c3" y="161.38175"/>
      </g>
     </g>
     <g id="line2d_21">
      <g>
       <use style="stroke:#000000;stroke-width:0.5;" x="489.48375" xlink:href="#ma3dac8aca7" y="161.38175"/>
      </g>
     </g>
     <g id="text_11">
      <!-- 6 -->
      <g transform="translate(31.44875 164.693)scale(0.12 -0.12)">
       <use xlink:href="#BitstreamVeraSans-Roman-36"/>
      </g>
     </g>
    </g>
    <g id="ytick_5">
     <g id="line2d_22">
      <g>
       <use style="stroke:#000000;stroke-width:0.5;" x="43.08375" xlink:href="#me51df9f6c3" y="92.26175"/>
      </g>
     </g>
     <g id="line2d_23">
      <g>
       <use style="stroke:#000000;stroke-width:0.5;" x="489.48375" xlink:href="#ma3dac8aca7" y="92.26175"/>
      </g>
     </g>
     <g id="text_12">
      <!-- 8 -->
      <g transform="translate(31.44875 95.573)scale(0.12 -0.12)">
       <use xlink:href="#BitstreamVeraSans-Roman-38"/>
      </g>
     </g>
    </g>
    <g id="ytick_6">
     <g id="line2d_24">
      <g>
       <use style="stroke:#000000;stroke-width:0.5;" x="43.08375" xlink:href="#me51df9f6c3" y="23.14175"/>
      </g>
     </g>
     <g id="line2d_25">
      <g>
       <use style="stroke:#000000;stroke-width:0.5;" x="489.48375" xlink:href="#ma3dac8aca7" y="23.14175"/>
      </g>
     </g>
     <g id="text_13">
      <!-- 10 -->
      <g transform="translate(23.81375 26.453)scale(0.12 -0.12)">
       <use xlink:href="#BitstreamVeraSans-Roman-31"/>
       <use x="63.623046875" xlink:href="#BitstreamVeraSans-Roman-30"/>
      </g>
     </g>
    </g>
    <g id="text_14">
     <!-- average maxQ -->
     <defs>
      <path d="M 2.984375 54.6875 
L 12.5 54.6875 
L 29.59375 8.796875 
L 46.6875 54.6875 
L 56.203125 54.6875 
L 35.6875 0 
L 23.484375 0 
z
" id="BitstreamVeraSans-Roman-76"/>
      <path d="M 34.28125 27.484375 
Q 23.390625 27.484375 19.1875 25 
Q 14.984375 22.515625 14.984375 16.5 
Q 14.984375 11.71875 18.140625 8.90625 
Q 21.296875 6.109375 26.703125 6.109375 
Q 34.1875 6.109375 38.703125 11.40625 
Q 43.21875 16.703125 43.21875 25.484375 
L 43.21875 27.484375 
z
M 52.203125 31.203125 
L 52.203125 0 
L 43.21875 0 
L 43.21875 8.296875 
Q 40.140625 3.328125 35.546875 0.953125 
Q 30.953125 -1.421875 24.3125 -1.421875 
Q 15.921875 -1.421875 10.953125 3.296875 
Q 6 8.015625 6 15.921875 
Q 6 25.140625 12.171875 29.828125 
Q 18.359375 34.515625 30.609375 34.515625 
L 43.21875 34.515625 
L 43.21875 35.40625 
Q 43.21875 41.609375 39.140625 45 
Q 35.0625 48.390625 27.6875 48.390625 
Q 23 48.390625 18.546875 47.265625 
Q 14.109375 46.140625 10.015625 43.890625 
L 10.015625 52.203125 
Q 14.9375 54.109375 19.578125 55.046875 
Q 24.21875 56 28.609375 56 
Q 40.484375 56 46.34375 49.84375 
Q 52.203125 43.703125 52.203125 31.203125 
" id="BitstreamVeraSans-Roman-61"/>
      <path d="M 52 44.1875 
Q 55.375 50.25 60.0625 53.125 
Q 64.75 56 71.09375 56 
Q 79.640625 56 84.28125 50.015625 
Q 88.921875 44.046875 88.921875 33.015625 
L 88.921875 0 
L 79.890625 0 
L 79.890625 32.71875 
Q 79.890625 40.578125 77.09375 44.375 
Q 74.3125 48.1875 68.609375 48.1875 
Q 61.625 48.1875 57.5625 43.546875 
Q 53.515625 38.921875 53.515625 30.90625 
L 53.515625 0 
L 44.484375 0 
L 44.484375 32.71875 
Q 44.484375 40.625 41.703125 44.40625 
Q 38.921875 48.1875 33.109375 48.1875 
Q 26.21875 48.1875 22.15625 43.53125 
Q 18.109375 38.875 18.109375 30.90625 
L 18.109375 0 
L 9.078125 0 
L 9.078125 54.6875 
L 18.109375 54.6875 
L 18.109375 46.1875 
Q 21.1875 51.21875 25.484375 53.609375 
Q 29.78125 56 35.6875 56 
Q 41.65625 56 45.828125 52.96875 
Q 50 49.953125 52 44.1875 
" id="BitstreamVeraSans-Roman-6d"/>
      <path d="M 39.40625 66.21875 
Q 28.65625 66.21875 22.328125 58.203125 
Q 16.015625 50.203125 16.015625 36.375 
Q 16.015625 22.609375 22.328125 14.59375 
Q 28.65625 6.59375 39.40625 6.59375 
Q 50.140625 6.59375 56.421875 14.59375 
Q 62.703125 22.609375 62.703125 36.375 
Q 62.703125 50.203125 56.421875 58.203125 
Q 50.140625 66.21875 39.40625 66.21875 
M 53.21875 1.3125 
L 66.21875 -12.890625 
L 54.296875 -12.890625 
L 43.5 -1.21875 
Q 41.890625 -1.3125 41.03125 -1.359375 
Q 40.1875 -1.421875 39.40625 -1.421875 
Q 24.03125 -1.421875 14.8125 8.859375 
Q 5.609375 19.140625 5.609375 36.375 
Q 5.609375 53.65625 14.8125 63.9375 
Q 24.03125 74.21875 39.40625 74.21875 
Q 54.734375 74.21875 63.90625 63.9375 
Q 73.09375 53.65625 73.09375 36.375 
Q 73.09375 23.6875 67.984375 14.640625 
Q 62.890625 5.609375 53.21875 1.3125 
" id="BitstreamVeraSans-Roman-51"/>
      <path id="BitstreamVeraSans-Roman-20"/>
      <path d="M 54.890625 54.6875 
L 35.109375 28.078125 
L 55.90625 0 
L 45.3125 0 
L 29.390625 21.484375 
L 13.484375 0 
L 2.875 0 
L 24.125 28.609375 
L 4.6875 54.6875 
L 15.28125 54.6875 
L 29.78125 35.203125 
L 44.28125 54.6875 
z
" id="BitstreamVeraSans-Roman-78"/>
      <path d="M 45.40625 27.984375 
Q 45.40625 37.75 41.375 43.109375 
Q 37.359375 48.484375 30.078125 48.484375 
Q 22.859375 48.484375 18.828125 43.109375 
Q 14.796875 37.75 14.796875 27.984375 
Q 14.796875 18.265625 18.828125 12.890625 
Q 22.859375 7.515625 30.078125 7.515625 
Q 37.359375 7.515625 41.375 12.890625 
Q 45.40625 18.265625 45.40625 27.984375 
M 54.390625 6.78125 
Q 54.390625 -7.171875 48.1875 -13.984375 
Q 42 -20.796875 29.203125 -20.796875 
Q 24.46875 -20.796875 20.265625 -20.09375 
Q 16.0625 -19.390625 12.109375 -17.921875 
L 12.109375 -9.1875 
Q 16.0625 -11.328125 19.921875 -12.34375 
Q 23.78125 -13.375 27.78125 -13.375 
Q 36.625 -13.375 41.015625 -8.765625 
Q 45.40625 -4.15625 45.40625 5.171875 
L 45.40625 9.625 
Q 42.625 4.78125 38.28125 2.390625 
Q 33.9375 0 27.875 0 
Q 17.828125 0 11.671875 7.65625 
Q 5.515625 15.328125 5.515625 27.984375 
Q 5.515625 40.671875 11.671875 48.328125 
Q 17.828125 56 27.875 56 
Q 33.9375 56 38.28125 53.609375 
Q 42.625 51.21875 45.40625 46.390625 
L 45.40625 54.6875 
L 54.390625 54.6875 
z
" id="BitstreamVeraSans-Roman-67"/>
      <path d="M 41.109375 46.296875 
Q 39.59375 47.171875 37.8125 47.578125 
Q 36.03125 48 33.890625 48 
Q 26.265625 48 22.1875 43.046875 
Q 18.109375 38.09375 18.109375 28.8125 
L 18.109375 0 
L 9.078125 0 
L 9.078125 54.6875 
L 18.109375 54.6875 
L 18.109375 46.1875 
Q 20.953125 51.171875 25.484375 53.578125 
Q 30.03125 56 36.53125 56 
Q 37.453125 56 38.578125 55.875 
Q 39.703125 55.765625 41.0625 55.515625 
z
" id="BitstreamVeraSans-Roman-72"/>
     </defs>
     <g transform="translate(16.318125 240.208625)rotate(-90.0)scale(0.12 -0.12)">
      <use xlink:href="#BitstreamVeraSans-Roman-61"/>
      <use x="61.279296875" xlink:href="#BitstreamVeraSans-Roman-76"/>
      <use x="120.458984375" xlink:href="#BitstreamVeraSans-Roman-65"/>
      <use x="181.982421875" xlink:href="#BitstreamVeraSans-Roman-72"/>
      <use x="223.095703125" xlink:href="#BitstreamVeraSans-Roman-61"/>
      <use x="284.375" xlink:href="#BitstreamVeraSans-Roman-67"/>
      <use x="347.8515625" xlink:href="#BitstreamVeraSans-Roman-65"/>
      <use x="409.375" xlink:href="#BitstreamVeraSans-Roman-20"/>
      <use x="441.162109375" xlink:href="#BitstreamVeraSans-Roman-6d"/>
      <use x="538.57421875" xlink:href="#BitstreamVeraSans-Roman-61"/>
      <use x="599.853515625" xlink:href="#BitstreamVeraSans-Roman-78"/>
      <use x="659.033203125" xlink:href="#BitstreamVeraSans-Roman-51"/>
     </g>
    </g>
   </g>
   <g id="text_15">
    <!-- Average maxQ per episode, joint5 -->
    <defs>
     <path d="M 10.796875 72.90625 
L 49.515625 72.90625 
L 49.515625 64.59375 
L 19.828125 64.59375 
L 19.828125 46.734375 
Q 21.96875 47.46875 24.109375 47.828125 
Q 26.265625 48.1875 28.421875 48.1875 
Q 40.625 48.1875 47.75 41.5 
Q 54.890625 34.8125 54.890625 23.390625 
Q 54.890625 11.625 47.5625 5.09375 
Q 40.234375 -1.421875 26.90625 -1.421875 
Q 22.3125 -1.421875 17.546875 -0.640625 
Q 12.796875 0.140625 7.71875 1.703125 
L 7.71875 11.625 
Q 12.109375 9.234375 16.796875 8.0625 
Q 21.484375 6.890625 26.703125 6.890625 
Q 35.15625 6.890625 40.078125 11.328125 
Q 45.015625 15.765625 45.015625 23.390625 
Q 45.015625 31 40.078125 35.4375 
Q 35.15625 39.890625 26.703125 39.890625 
Q 22.75 39.890625 18.8125 39.015625 
Q 14.890625 38.140625 10.796875 36.28125 
z
" id="BitstreamVeraSans-Roman-35"/>
     <path d="M 54.890625 33.015625 
L 54.890625 0 
L 45.90625 0 
L 45.90625 32.71875 
Q 45.90625 40.484375 42.875 44.328125 
Q 39.84375 48.1875 33.796875 48.1875 
Q 26.515625 48.1875 22.3125 43.546875 
Q 18.109375 38.921875 18.109375 30.90625 
L 18.109375 0 
L 9.078125 0 
L 9.078125 54.6875 
L 18.109375 54.6875 
L 18.109375 46.1875 
Q 21.34375 51.125 25.703125 53.5625 
Q 30.078125 56 35.796875 56 
Q 45.21875 56 50.046875 50.171875 
Q 54.890625 44.34375 54.890625 33.015625 
" id="BitstreamVeraSans-Roman-6e"/>
     <path d="M 18.3125 70.21875 
L 18.3125 54.6875 
L 36.8125 54.6875 
L 36.8125 47.703125 
L 18.3125 47.703125 
L 18.3125 18.015625 
Q 18.3125 11.328125 20.140625 9.421875 
Q 21.96875 7.515625 27.59375 7.515625 
L 36.8125 7.515625 
L 36.8125 0 
L 27.59375 0 
Q 17.1875 0 13.234375 3.875 
Q 9.28125 7.765625 9.28125 18.015625 
L 9.28125 47.703125 
L 2.6875 47.703125 
L 2.6875 54.6875 
L 9.28125 54.6875 
L 9.28125 70.21875 
z
" id="BitstreamVeraSans-Roman-74"/>
     <path d="M 11.71875 12.40625 
L 22.015625 12.40625 
L 22.015625 4 
L 14.015625 -11.625 
L 7.71875 -11.625 
L 11.71875 4 
z
" id="BitstreamVeraSans-Roman-2c"/>
     <path d="M 9.421875 54.6875 
L 18.40625 54.6875 
L 18.40625 -0.984375 
Q 18.40625 -11.421875 14.421875 -16.109375 
Q 10.453125 -20.796875 1.609375 -20.796875 
L -1.8125 -20.796875 
L -1.8125 -13.1875 
L 0.59375 -13.1875 
Q 5.71875 -13.1875 7.5625 -10.8125 
Q 9.421875 -8.453125 9.421875 -0.984375 
z
M 9.421875 75.984375 
L 18.40625 75.984375 
L 18.40625 64.59375 
L 9.421875 64.59375 
z
" id="BitstreamVeraSans-Roman-6a"/>
     <path d="M 34.1875 63.1875 
L 20.796875 26.90625 
L 47.609375 26.90625 
z
M 28.609375 72.90625 
L 39.796875 72.90625 
L 67.578125 0 
L 57.328125 0 
L 50.6875 18.703125 
L 17.828125 18.703125 
L 11.1875 0 
L 0.78125 0 
z
" id="BitstreamVeraSans-Roman-41"/>
    </defs>
    <g transform="translate(143.01075 18.14175)scale(0.144 -0.144)">
     <use xlink:href="#BitstreamVeraSans-Roman-41"/>
     <use x="68.330078125" xlink:href="#BitstreamVeraSans-Roman-76"/>
     <use x="127.509765625" xlink:href="#BitstreamVeraSans-Roman-65"/>
     <use x="189.033203125" xlink:href="#BitstreamVeraSans-Roman-72"/>
     <use x="230.146484375" xlink:href="#BitstreamVeraSans-Roman-61"/>
     <use x="291.42578125" xlink:href="#BitstreamVeraSans-Roman-67"/>
     <use x="354.90234375" xlink:href="#BitstreamVeraSans-Roman-65"/>
     <use x="416.42578125" xlink:href="#BitstreamVeraSans-Roman-20"/>
     <use x="448.212890625" xlink:href="#BitstreamVeraSans-Roman-6d"/>
     <use x="545.625" xlink:href="#BitstreamVeraSans-Roman-61"/>
     <use x="606.904296875" xlink:href="#BitstreamVeraSans-Roman-78"/>
     <use x="666.083984375" xlink:href="#BitstreamVeraSans-Roman-51"/>
     <use x="744.794921875" xlink:href="#BitstreamVeraSans-Roman-20"/>
     <use x="776.58203125" xlink:href="#BitstreamVeraSans-Roman-70"/>
     <use x="840.05859375" xlink:href="#BitstreamVeraSans-Roman-65"/>
     <use x="901.58203125" xlink:href="#BitstreamVeraSans-Roman-72"/>
     <use x="942.6953125" xlink:href="#BitstreamVeraSans-Roman-20"/>
     <use x="974.482421875" xlink:href="#BitstreamVeraSans-Roman-65"/>
     <use x="1036.005859375" xlink:href="#BitstreamVeraSans-Roman-70"/>
     <use x="1099.482421875" xlink:href="#BitstreamVeraSans-Roman-69"/>
     <use x="1127.265625" xlink:href="#BitstreamVeraSans-Roman-73"/>
     <use x="1179.365234375" xlink:href="#BitstreamVeraSans-Roman-6f"/>
     <use x="1240.546875" xlink:href="#BitstreamVeraSans-Roman-64"/>
     <use x="1304.0234375" xlink:href="#BitstreamVeraSans-Roman-65"/>
     <use x="1365.546875" xlink:href="#BitstreamVeraSans-Roman-2c"/>
     <use x="1397.333984375" xlink:href="#BitstreamVeraSans-Roman-20"/>
     <use x="1429.12109375" xlink:href="#BitstreamVeraSans-Roman-6a"/>
     <use x="1456.904296875" xlink:href="#BitstreamVeraSans-Roman-6f"/>
     <use x="1518.0859375" xlink:href="#BitstreamVeraSans-Roman-69"/>
     <use x="1545.869140625" xlink:href="#BitstreamVeraSans-Roman-6e"/>
     <use x="1609.248046875" xlink:href="#BitstreamVeraSans-Roman-74"/>
     <use x="1648.45703125" xlink:href="#BitstreamVeraSans-Roman-35"/>
    </g>
   </g>
  </g>
 </g>
 <defs>
  <clipPath id="pede7ab37c6">
   <rect height="345.6" width="446.4" x="43.08375" y="23.14175"/>
  </clipPath>
 </defs>
</svg>
