<?xml version="1.0" encoding="utf-8" standalone="no"?>
<!DOCTYPE svg PUBLIC "-//W3C//DTD SVG 1.1//EN"
  "http://www.w3.org/Graphics/SVG/1.1/DTD/svg11.dtd">
<!-- Created with matplotlib (http://matplotlib.org/) -->
<svg height="325pt" version="1.1" viewBox="0 0 411 325" width="411pt" xmlns="http://www.w3.org/2000/svg" xmlns:xlink="http://www.w3.org/1999/xlink">
 <defs>
  <style type="text/css">
*{stroke-linecap:butt;stroke-linejoin:round;}
  </style>
 </defs>
 <g id="figure_1">
  <g id="patch_1">
   <path d="M 0 325.986375 
L 411.160767 325.986375 
L 411.160767 0 
L 0 0 
z
" style="fill:#ffffff;"/>
  </g>
  <g id="axes_1">
   <g id="patch_2">
    <path d="M 40.603125 288.430125 
L 397.723125 288.430125 
L 397.723125 22.318125 
L 40.603125 22.318125 
z
" style="fill:#ffffff;"/>
   </g>
   <g id="matplotlib.axis_1">
    <g id="xtick_1">
     <g id="line2d_1">
      <defs>
       <path d="M 0 0 
L 0 3.5 
" id="m3720508aba" style="stroke:#000000;stroke-width:0.8;"/>
      </defs>
      <g>
       <use style="stroke:#000000;stroke-width:0.8;" x="56.835852" xlink:href="#m3720508aba" y="288.430125"/>
      </g>
     </g>
     <g id="text_1">
      <!-- 0 -->
      <defs>
       <path d="M 31.78125 66.40625 
Q 24.171875 66.40625 20.328125 58.90625 
Q 16.5 51.421875 16.5 36.375 
Q 16.5 21.390625 20.328125 13.890625 
Q 24.171875 6.390625 31.78125 6.390625 
Q 39.453125 6.390625 43.28125 13.890625 
Q 47.125 21.390625 47.125 36.375 
Q 47.125 51.421875 43.28125 58.90625 
Q 39.453125 66.40625 31.78125 66.40625 
z
M 31.78125 74.21875 
Q 44.046875 74.21875 50.515625 64.515625 
Q 56.984375 54.828125 56.984375 36.375 
Q 56.984375 17.96875 50.515625 8.265625 
Q 44.046875 -1.421875 31.78125 -1.421875 
Q 19.53125 -1.421875 13.0625 8.265625 
Q 6.59375 17.96875 6.59375 36.375 
Q 6.59375 54.828125 13.0625 64.515625 
Q 19.53125 74.21875 31.78125 74.21875 
z
" id="DejaVuSans-30"/>
      </defs>
      <g transform="translate(53.654602 303.028562)scale(0.1 -0.1)">
       <use xlink:href="#DejaVuSans-30"/>
      </g>
     </g>
    </g>
    <g id="xtick_2">
     <g id="line2d_2">
      <g>
       <use style="stroke:#000000;stroke-width:0.8;" x="104.607269" xlink:href="#m3720508aba" y="288.430125"/>
      </g>
     </g>
     <g id="text_2">
      <!-- 250 -->
      <defs>
       <path d="M 19.1875 8.296875 
L 53.609375 8.296875 
L 53.609375 0 
L 7.328125 0 
L 7.328125 8.296875 
Q 12.9375 14.109375 22.625 23.890625 
Q 32.328125 33.6875 34.8125 36.53125 
Q 39.546875 41.84375 41.421875 45.53125 
Q 43.3125 49.21875 43.3125 52.78125 
Q 43.3125 58.59375 39.234375 62.25 
Q 35.15625 65.921875 28.609375 65.921875 
Q 23.96875 65.921875 18.8125 64.3125 
Q 13.671875 62.703125 7.8125 59.421875 
L 7.8125 69.390625 
Q 13.765625 71.78125 18.9375 73 
Q 24.125 74.21875 28.421875 74.21875 
Q 39.75 74.21875 46.484375 68.546875 
Q 53.21875 62.890625 53.21875 53.421875 
Q 53.21875 48.921875 51.53125 44.890625 
Q 49.859375 40.875 45.40625 35.40625 
Q 44.1875 33.984375 37.640625 27.21875 
Q 31.109375 20.453125 19.1875 8.296875 
z
" id="DejaVuSans-32"/>
       <path d="M 10.796875 72.90625 
L 49.515625 72.90625 
L 49.515625 64.59375 
L 19.828125 64.59375 
L 19.828125 46.734375 
Q 21.96875 47.46875 24.109375 47.828125 
Q 26.265625 48.1875 28.421875 48.1875 
Q 40.625 48.1875 47.75 41.5 
Q 54.890625 34.8125 54.890625 23.390625 
Q 54.890625 11.625 47.5625 5.09375 
Q 40.234375 -1.421875 26.90625 -1.421875 
Q 22.3125 -1.421875 17.546875 -0.640625 
Q 12.796875 0.140625 7.71875 1.703125 
L 7.71875 11.625 
Q 12.109375 9.234375 16.796875 8.0625 
Q 21.484375 6.890625 26.703125 6.890625 
Q 35.15625 6.890625 40.078125 11.328125 
Q 45.015625 15.765625 45.015625 23.390625 
Q 45.015625 31 40.078125 35.4375 
Q 35.15625 39.890625 26.703125 39.890625 
Q 22.75 39.890625 18.8125 39.015625 
Q 14.890625 38.140625 10.796875 36.28125 
z
" id="DejaVuSans-35"/>
      </defs>
      <g transform="translate(95.063519 303.028562)scale(0.1 -0.1)">
       <use xlink:href="#DejaVuSans-32"/>
       <use x="63.623047" xlink:href="#DejaVuSans-35"/>
       <use x="127.246094" xlink:href="#DejaVuSans-30"/>
      </g>
     </g>
    </g>
    <g id="xtick_3">
     <g id="line2d_3">
      <g>
       <use style="stroke:#000000;stroke-width:0.8;" x="152.378685" xlink:href="#m3720508aba" y="288.430125"/>
      </g>
     </g>
     <g id="text_3">
      <!-- 500 -->
      <g transform="translate(142.834935 303.028562)scale(0.1 -0.1)">
       <use xlink:href="#DejaVuSans-35"/>
       <use x="63.623047" xlink:href="#DejaVuSans-30"/>
       <use x="127.246094" xlink:href="#DejaVuSans-30"/>
      </g>
     </g>
    </g>
    <g id="xtick_4">
     <g id="line2d_4">
      <g>
       <use style="stroke:#000000;stroke-width:0.8;" x="200.150101" xlink:href="#m3720508aba" y="288.430125"/>
      </g>
     </g>
     <g id="text_4">
      <!-- 750 -->
      <defs>
       <path d="M 8.203125 72.90625 
L 55.078125 72.90625 
L 55.078125 68.703125 
L 28.609375 0 
L 18.3125 0 
L 43.21875 64.59375 
L 8.203125 64.59375 
z
" id="DejaVuSans-37"/>
      </defs>
      <g transform="translate(190.606351 303.028562)scale(0.1 -0.1)">
       <use xlink:href="#DejaVuSans-37"/>
       <use x="63.623047" xlink:href="#DejaVuSans-35"/>
       <use x="127.246094" xlink:href="#DejaVuSans-30"/>
      </g>
     </g>
    </g>
    <g id="xtick_5">
     <g id="line2d_5">
      <g>
       <use style="stroke:#000000;stroke-width:0.8;" x="247.921518" xlink:href="#m3720508aba" y="288.430125"/>
      </g>
     </g>
     <g id="text_5">
      <!-- 1000 -->
      <defs>
       <path d="M 12.40625 8.296875 
L 28.515625 8.296875 
L 28.515625 63.921875 
L 10.984375 60.40625 
L 10.984375 69.390625 
L 28.421875 72.90625 
L 38.28125 72.90625 
L 38.28125 8.296875 
L 54.390625 8.296875 
L 54.390625 0 
L 12.40625 0 
z
" id="DejaVuSans-31"/>
      </defs>
      <g transform="translate(235.196518 303.028562)scale(0.1 -0.1)">
       <use xlink:href="#DejaVuSans-31"/>
       <use x="63.623047" xlink:href="#DejaVuSans-30"/>
       <use x="127.246094" xlink:href="#DejaVuSans-30"/>
       <use x="190.869141" xlink:href="#DejaVuSans-30"/>
      </g>
     </g>
    </g>
    <g id="xtick_6">
     <g id="line2d_6">
      <g>
       <use style="stroke:#000000;stroke-width:0.8;" x="295.692934" xlink:href="#m3720508aba" y="288.430125"/>
      </g>
     </g>
     <g id="text_6">
      <!-- 1250 -->
      <g transform="translate(282.967934 303.028562)scale(0.1 -0.1)">
       <use xlink:href="#DejaVuSans-31"/>
       <use x="63.623047" xlink:href="#DejaVuSans-32"/>
       <use x="127.246094" xlink:href="#DejaVuSans-35"/>
       <use x="190.869141" xlink:href="#DejaVuSans-30"/>
      </g>
     </g>
    </g>
    <g id="xtick_7">
     <g id="line2d_7">
      <g>
       <use style="stroke:#000000;stroke-width:0.8;" x="343.46435" xlink:href="#m3720508aba" y="288.430125"/>
      </g>
     </g>
     <g id="text_7">
      <!-- 1500 -->
      <g transform="translate(330.73935 303.028562)scale(0.1 -0.1)">
       <use xlink:href="#DejaVuSans-31"/>
       <use x="63.623047" xlink:href="#DejaVuSans-35"/>
       <use x="127.246094" xlink:href="#DejaVuSans-30"/>
       <use x="190.869141" xlink:href="#DejaVuSans-30"/>
      </g>
     </g>
    </g>
    <g id="xtick_8">
     <g id="line2d_8">
      <g>
       <use style="stroke:#000000;stroke-width:0.8;" x="391.235767" xlink:href="#m3720508aba" y="288.430125"/>
      </g>
     </g>
     <g id="text_8">
      <!-- 1750 -->
      <g transform="translate(378.510767 303.028562)scale(0.1 -0.1)">
       <use xlink:href="#DejaVuSans-31"/>
       <use x="63.623047" xlink:href="#DejaVuSans-37"/>
       <use x="127.246094" xlink:href="#DejaVuSans-35"/>
       <use x="190.869141" xlink:href="#DejaVuSans-30"/>
      </g>
     </g>
    </g>
    <g id="text_9">
     <!-- episode -->
     <defs>
      <path d="M 56.203125 29.59375 
L 56.203125 25.203125 
L 14.890625 25.203125 
Q 15.484375 15.921875 20.484375 11.0625 
Q 25.484375 6.203125 34.421875 6.203125 
Q 39.59375 6.203125 44.453125 7.46875 
Q 49.3125 8.734375 54.109375 11.28125 
L 54.109375 2.78125 
Q 49.265625 0.734375 44.1875 -0.34375 
Q 39.109375 -1.421875 33.890625 -1.421875 
Q 20.796875 -1.421875 13.15625 6.1875 
Q 5.515625 13.8125 5.515625 26.8125 
Q 5.515625 40.234375 12.765625 48.109375 
Q 20.015625 56 32.328125 56 
Q 43.359375 56 49.78125 48.890625 
Q 56.203125 41.796875 56.203125 29.59375 
z
M 47.21875 32.234375 
Q 47.125 39.59375 43.09375 43.984375 
Q 39.0625 48.390625 32.421875 48.390625 
Q 24.90625 48.390625 20.390625 44.140625 
Q 15.875 39.890625 15.1875 32.171875 
z
" id="DejaVuSans-65"/>
      <path d="M 18.109375 8.203125 
L 18.109375 -20.796875 
L 9.078125 -20.796875 
L 9.078125 54.6875 
L 18.109375 54.6875 
L 18.109375 46.390625 
Q 20.953125 51.265625 25.265625 53.625 
Q 29.59375 56 35.59375 56 
Q 45.5625 56 51.78125 48.09375 
Q 58.015625 40.1875 58.015625 27.296875 
Q 58.015625 14.40625 51.78125 6.484375 
Q 45.5625 -1.421875 35.59375 -1.421875 
Q 29.59375 -1.421875 25.265625 0.953125 
Q 20.953125 3.328125 18.109375 8.203125 
z
M 48.6875 27.296875 
Q 48.6875 37.203125 44.609375 42.84375 
Q 40.53125 48.484375 33.40625 48.484375 
Q 26.265625 48.484375 22.1875 42.84375 
Q 18.109375 37.203125 18.109375 27.296875 
Q 18.109375 17.390625 22.1875 11.75 
Q 26.265625 6.109375 33.40625 6.109375 
Q 40.53125 6.109375 44.609375 11.75 
Q 48.6875 17.390625 48.6875 27.296875 
z
" id="DejaVuSans-70"/>
      <path d="M 9.421875 54.6875 
L 18.40625 54.6875 
L 18.40625 0 
L 9.421875 0 
z
M 9.421875 75.984375 
L 18.40625 75.984375 
L 18.40625 64.59375 
L 9.421875 64.59375 
z
" id="DejaVuSans-69"/>
      <path d="M 44.28125 53.078125 
L 44.28125 44.578125 
Q 40.484375 46.53125 36.375 47.5 
Q 32.28125 48.484375 27.875 48.484375 
Q 21.1875 48.484375 17.84375 46.4375 
Q 14.5 44.390625 14.5 40.28125 
Q 14.5 37.15625 16.890625 35.375 
Q 19.28125 33.59375 26.515625 31.984375 
L 29.59375 31.296875 
Q 39.15625 29.25 43.1875 25.515625 
Q 47.21875 21.78125 47.21875 15.09375 
Q 47.21875 7.46875 41.1875 3.015625 
Q 35.15625 -1.421875 24.609375 -1.421875 
Q 20.21875 -1.421875 15.453125 -0.5625 
Q 10.6875 0.296875 5.421875 2 
L 5.421875 11.28125 
Q 10.40625 8.6875 15.234375 7.390625 
Q 20.0625 6.109375 24.8125 6.109375 
Q 31.15625 6.109375 34.5625 8.28125 
Q 37.984375 10.453125 37.984375 14.40625 
Q 37.984375 18.0625 35.515625 20.015625 
Q 33.0625 21.96875 24.703125 23.78125 
L 21.578125 24.515625 
Q 13.234375 26.265625 9.515625 29.90625 
Q 5.8125 33.546875 5.8125 39.890625 
Q 5.8125 47.609375 11.28125 51.796875 
Q 16.75 56 26.8125 56 
Q 31.78125 56 36.171875 55.265625 
Q 40.578125 54.546875 44.28125 53.078125 
z
" id="DejaVuSans-73"/>
      <path d="M 30.609375 48.390625 
Q 23.390625 48.390625 19.1875 42.75 
Q 14.984375 37.109375 14.984375 27.296875 
Q 14.984375 17.484375 19.15625 11.84375 
Q 23.34375 6.203125 30.609375 6.203125 
Q 37.796875 6.203125 41.984375 11.859375 
Q 46.1875 17.53125 46.1875 27.296875 
Q 46.1875 37.015625 41.984375 42.703125 
Q 37.796875 48.390625 30.609375 48.390625 
z
M 30.609375 56 
Q 42.328125 56 49.015625 48.375 
Q 55.71875 40.765625 55.71875 27.296875 
Q 55.71875 13.875 49.015625 6.21875 
Q 42.328125 -1.421875 30.609375 -1.421875 
Q 18.84375 -1.421875 12.171875 6.21875 
Q 5.515625 13.875 5.515625 27.296875 
Q 5.515625 40.765625 12.171875 48.375 
Q 18.84375 56 30.609375 56 
z
" id="DejaVuSans-6f"/>
      <path d="M 45.40625 46.390625 
L 45.40625 75.984375 
L 54.390625 75.984375 
L 54.390625 0 
L 45.40625 0 
L 45.40625 8.203125 
Q 42.578125 3.328125 38.25 0.953125 
Q 33.9375 -1.421875 27.875 -1.421875 
Q 17.96875 -1.421875 11.734375 6.484375 
Q 5.515625 14.40625 5.515625 27.296875 
Q 5.515625 40.1875 11.734375 48.09375 
Q 17.96875 56 27.875 56 
Q 33.9375 56 38.25 53.625 
Q 42.578125 51.265625 45.40625 46.390625 
z
M 14.796875 27.296875 
Q 14.796875 17.390625 18.875 11.75 
Q 22.953125 6.109375 30.078125 6.109375 
Q 37.203125 6.109375 41.296875 11.75 
Q 45.40625 17.390625 45.40625 27.296875 
Q 45.40625 37.203125 41.296875 42.84375 
Q 37.203125 48.484375 30.078125 48.484375 
Q 22.953125 48.484375 18.875 42.84375 
Q 14.796875 37.203125 14.796875 27.296875 
z
" id="DejaVuSans-64"/>
     </defs>
     <g transform="translate(199.608438 316.706687)scale(0.1 -0.1)">
      <use xlink:href="#DejaVuSans-65"/>
      <use x="61.523438" xlink:href="#DejaVuSans-70"/>
      <use x="125" xlink:href="#DejaVuSans-69"/>
      <use x="152.783203" xlink:href="#DejaVuSans-73"/>
      <use x="204.882812" xlink:href="#DejaVuSans-6f"/>
      <use x="266.064453" xlink:href="#DejaVuSans-64"/>
      <use x="329.541016" xlink:href="#DejaVuSans-65"/>
     </g>
    </g>
   </g>
   <g id="matplotlib.axis_2">
    <g id="ytick_1">
     <g id="line2d_9">
      <defs>
       <path d="M 0 0 
L -3.5 0 
" id="mb11ad87364" style="stroke:#000000;stroke-width:0.8;"/>
      </defs>
      <g>
       <use style="stroke:#000000;stroke-width:0.8;" x="40.603125" xlink:href="#mb11ad87364" y="283.181381"/>
      </g>
     </g>
     <g id="text_10">
      <!-- 0 -->
      <g transform="translate(27.240625 286.980599)scale(0.1 -0.1)">
       <use xlink:href="#DejaVuSans-30"/>
      </g>
     </g>
    </g>
    <g id="ytick_2">
     <g id="line2d_10">
      <g>
       <use style="stroke:#000000;stroke-width:0.8;" x="40.603125" xlink:href="#mb11ad87364" y="249.481218"/>
      </g>
     </g>
     <g id="text_11">
      <!-- 2 -->
      <g transform="translate(27.240625 253.280436)scale(0.1 -0.1)">
       <use xlink:href="#DejaVuSans-32"/>
      </g>
     </g>
    </g>
    <g id="ytick_3">
     <g id="line2d_11">
      <g>
       <use style="stroke:#000000;stroke-width:0.8;" x="40.603125" xlink:href="#mb11ad87364" y="215.781055"/>
      </g>
     </g>
     <g id="text_12">
      <!-- 4 -->
      <defs>
       <path d="M 37.796875 64.3125 
L 12.890625 25.390625 
L 37.796875 25.390625 
z
M 35.203125 72.90625 
L 47.609375 72.90625 
L 47.609375 25.390625 
L 58.015625 25.390625 
L 58.015625 17.1875 
L 47.609375 17.1875 
L 47.609375 0 
L 37.796875 0 
L 37.796875 17.1875 
L 4.890625 17.1875 
L 4.890625 26.703125 
z
" id="DejaVuSans-34"/>
      </defs>
      <g transform="translate(27.240625 219.580273)scale(0.1 -0.1)">
       <use xlink:href="#DejaVuSans-34"/>
      </g>
     </g>
    </g>
    <g id="ytick_4">
     <g id="line2d_12">
      <g>
       <use style="stroke:#000000;stroke-width:0.8;" x="40.603125" xlink:href="#mb11ad87364" y="182.080892"/>
      </g>
     </g>
     <g id="text_13">
      <!-- 6 -->
      <defs>
       <path d="M 33.015625 40.375 
Q 26.375 40.375 22.484375 35.828125 
Q 18.609375 31.296875 18.609375 23.390625 
Q 18.609375 15.53125 22.484375 10.953125 
Q 26.375 6.390625 33.015625 6.390625 
Q 39.65625 6.390625 43.53125 10.953125 
Q 47.40625 15.53125 47.40625 23.390625 
Q 47.40625 31.296875 43.53125 35.828125 
Q 39.65625 40.375 33.015625 40.375 
z
M 52.59375 71.296875 
L 52.59375 62.3125 
Q 48.875 64.0625 45.09375 64.984375 
Q 41.3125 65.921875 37.59375 65.921875 
Q 27.828125 65.921875 22.671875 59.328125 
Q 17.53125 52.734375 16.796875 39.40625 
Q 19.671875 43.65625 24.015625 45.921875 
Q 28.375 48.1875 33.59375 48.1875 
Q 44.578125 48.1875 50.953125 41.515625 
Q 57.328125 34.859375 57.328125 23.390625 
Q 57.328125 12.15625 50.6875 5.359375 
Q 44.046875 -1.421875 33.015625 -1.421875 
Q 20.359375 -1.421875 13.671875 8.265625 
Q 6.984375 17.96875 6.984375 36.375 
Q 6.984375 53.65625 15.1875 63.9375 
Q 23.390625 74.21875 37.203125 74.21875 
Q 40.921875 74.21875 44.703125 73.484375 
Q 48.484375 72.75 52.59375 71.296875 
z
" id="DejaVuSans-36"/>
      </defs>
      <g transform="translate(27.240625 185.88011)scale(0.1 -0.1)">
       <use xlink:href="#DejaVuSans-36"/>
      </g>
     </g>
    </g>
    <g id="ytick_5">
     <g id="line2d_13">
      <g>
       <use style="stroke:#000000;stroke-width:0.8;" x="40.603125" xlink:href="#mb11ad87364" y="148.380729"/>
      </g>
     </g>
     <g id="text_14">
      <!-- 8 -->
      <defs>
       <path d="M 31.78125 34.625 
Q 24.75 34.625 20.71875 30.859375 
Q 16.703125 27.09375 16.703125 20.515625 
Q 16.703125 13.921875 20.71875 10.15625 
Q 24.75 6.390625 31.78125 6.390625 
Q 38.8125 6.390625 42.859375 10.171875 
Q 46.921875 13.96875 46.921875 20.515625 
Q 46.921875 27.09375 42.890625 30.859375 
Q 38.875 34.625 31.78125 34.625 
z
M 21.921875 38.8125 
Q 15.578125 40.375 12.03125 44.71875 
Q 8.5 49.078125 8.5 55.328125 
Q 8.5 64.0625 14.71875 69.140625 
Q 20.953125 74.21875 31.78125 74.21875 
Q 42.671875 74.21875 48.875 69.140625 
Q 55.078125 64.0625 55.078125 55.328125 
Q 55.078125 49.078125 51.53125 44.71875 
Q 48 40.375 41.703125 38.8125 
Q 48.828125 37.15625 52.796875 32.3125 
Q 56.78125 27.484375 56.78125 20.515625 
Q 56.78125 9.90625 50.3125 4.234375 
Q 43.84375 -1.421875 31.78125 -1.421875 
Q 19.734375 -1.421875 13.25 4.234375 
Q 6.78125 9.90625 6.78125 20.515625 
Q 6.78125 27.484375 10.78125 32.3125 
Q 14.796875 37.15625 21.921875 38.8125 
z
M 18.3125 54.390625 
Q 18.3125 48.734375 21.84375 45.5625 
Q 25.390625 42.390625 31.78125 42.390625 
Q 38.140625 42.390625 41.71875 45.5625 
Q 45.3125 48.734375 45.3125 54.390625 
Q 45.3125 60.0625 41.71875 63.234375 
Q 38.140625 66.40625 31.78125 66.40625 
Q 25.390625 66.40625 21.84375 63.234375 
Q 18.3125 60.0625 18.3125 54.390625 
z
" id="DejaVuSans-38"/>
      </defs>
      <g transform="translate(27.240625 152.179947)scale(0.1 -0.1)">
       <use xlink:href="#DejaVuSans-38"/>
      </g>
     </g>
    </g>
    <g id="ytick_6">
     <g id="line2d_14">
      <g>
       <use style="stroke:#000000;stroke-width:0.8;" x="40.603125" xlink:href="#mb11ad87364" y="114.680565"/>
      </g>
     </g>
     <g id="text_15">
      <!-- 10 -->
      <g transform="translate(20.878125 118.479784)scale(0.1 -0.1)">
       <use xlink:href="#DejaVuSans-31"/>
       <use x="63.623047" xlink:href="#DejaVuSans-30"/>
      </g>
     </g>
    </g>
    <g id="ytick_7">
     <g id="line2d_15">
      <g>
       <use style="stroke:#000000;stroke-width:0.8;" x="40.603125" xlink:href="#mb11ad87364" y="80.980402"/>
      </g>
     </g>
     <g id="text_16">
      <!-- 12 -->
      <g transform="translate(20.878125 84.779621)scale(0.1 -0.1)">
       <use xlink:href="#DejaVuSans-31"/>
       <use x="63.623047" xlink:href="#DejaVuSans-32"/>
      </g>
     </g>
    </g>
    <g id="ytick_8">
     <g id="line2d_16">
      <g>
       <use style="stroke:#000000;stroke-width:0.8;" x="40.603125" xlink:href="#mb11ad87364" y="47.280239"/>
      </g>
     </g>
     <g id="text_17">
      <!-- 14 -->
      <g transform="translate(20.878125 51.079458)scale(0.1 -0.1)">
       <use xlink:href="#DejaVuSans-31"/>
       <use x="63.623047" xlink:href="#DejaVuSans-34"/>
      </g>
     </g>
    </g>
    <g id="text_18">
     <!-- undisc. return -->
     <defs>
      <path d="M 8.5 21.578125 
L 8.5 54.6875 
L 17.484375 54.6875 
L 17.484375 21.921875 
Q 17.484375 14.15625 20.5 10.265625 
Q 23.53125 6.390625 29.59375 6.390625 
Q 36.859375 6.390625 41.078125 11.03125 
Q 45.3125 15.671875 45.3125 23.6875 
L 45.3125 54.6875 
L 54.296875 54.6875 
L 54.296875 0 
L 45.3125 0 
L 45.3125 8.40625 
Q 42.046875 3.421875 37.71875 1 
Q 33.40625 -1.421875 27.6875 -1.421875 
Q 18.265625 -1.421875 13.375 4.4375 
Q 8.5 10.296875 8.5 21.578125 
z
M 31.109375 56 
z
" id="DejaVuSans-75"/>
      <path d="M 54.890625 33.015625 
L 54.890625 0 
L 45.90625 0 
L 45.90625 32.71875 
Q 45.90625 40.484375 42.875 44.328125 
Q 39.84375 48.1875 33.796875 48.1875 
Q 26.515625 48.1875 22.3125 43.546875 
Q 18.109375 38.921875 18.109375 30.90625 
L 18.109375 0 
L 9.078125 0 
L 9.078125 54.6875 
L 18.109375 54.6875 
L 18.109375 46.1875 
Q 21.34375 51.125 25.703125 53.5625 
Q 30.078125 56 35.796875 56 
Q 45.21875 56 50.046875 50.171875 
Q 54.890625 44.34375 54.890625 33.015625 
z
" id="DejaVuSans-6e"/>
      <path d="M 48.78125 52.59375 
L 48.78125 44.1875 
Q 44.96875 46.296875 41.140625 47.34375 
Q 37.3125 48.390625 33.40625 48.390625 
Q 24.65625 48.390625 19.8125 42.84375 
Q 14.984375 37.3125 14.984375 27.296875 
Q 14.984375 17.28125 19.8125 11.734375 
Q 24.65625 6.203125 33.40625 6.203125 
Q 37.3125 6.203125 41.140625 7.25 
Q 44.96875 8.296875 48.78125 10.40625 
L 48.78125 2.09375 
Q 45.015625 0.34375 40.984375 -0.53125 
Q 36.96875 -1.421875 32.421875 -1.421875 
Q 20.0625 -1.421875 12.78125 6.34375 
Q 5.515625 14.109375 5.515625 27.296875 
Q 5.515625 40.671875 12.859375 48.328125 
Q 20.21875 56 33.015625 56 
Q 37.15625 56 41.109375 55.140625 
Q 45.0625 54.296875 48.78125 52.59375 
z
" id="DejaVuSans-63"/>
      <path d="M 10.6875 12.40625 
L 21 12.40625 
L 21 0 
L 10.6875 0 
z
" id="DejaVuSans-2e"/>
      <path id="DejaVuSans-20"/>
      <path d="M 41.109375 46.296875 
Q 39.59375 47.171875 37.8125 47.578125 
Q 36.03125 48 33.890625 48 
Q 26.265625 48 22.1875 43.046875 
Q 18.109375 38.09375 18.109375 28.8125 
L 18.109375 0 
L 9.078125 0 
L 9.078125 54.6875 
L 18.109375 54.6875 
L 18.109375 46.1875 
Q 20.953125 51.171875 25.484375 53.578125 
Q 30.03125 56 36.53125 56 
Q 37.453125 56 38.578125 55.875 
Q 39.703125 55.765625 41.0625 55.515625 
z
" id="DejaVuSans-72"/>
      <path d="M 18.3125 70.21875 
L 18.3125 54.6875 
L 36.8125 54.6875 
L 36.8125 47.703125 
L 18.3125 47.703125 
L 18.3125 18.015625 
Q 18.3125 11.328125 20.140625 9.421875 
Q 21.96875 7.515625 27.59375 7.515625 
L 36.8125 7.515625 
L 36.8125 0 
L 27.59375 0 
Q 17.1875 0 13.234375 3.875 
Q 9.28125 7.765625 9.28125 18.015625 
L 9.28125 47.703125 
L 2.6875 47.703125 
L 2.6875 54.6875 
L 9.28125 54.6875 
L 9.28125 70.21875 
z
" id="DejaVuSans-74"/>
     </defs>
     <g transform="translate(14.798438 190.28975)rotate(-90)scale(0.1 -0.1)">
      <use xlink:href="#DejaVuSans-75"/>
      <use x="63.378906" xlink:href="#DejaVuSans-6e"/>
      <use x="126.757812" xlink:href="#DejaVuSans-64"/>
      <use x="190.234375" xlink:href="#DejaVuSans-69"/>
      <use x="218.017578" xlink:href="#DejaVuSans-73"/>
      <use x="270.117188" xlink:href="#DejaVuSans-63"/>
      <use x="325.097656" xlink:href="#DejaVuSans-2e"/>
      <use x="356.884766" xlink:href="#DejaVuSans-20"/>
      <use x="388.671875" xlink:href="#DejaVuSans-72"/>
      <use x="429.753906" xlink:href="#DejaVuSans-65"/>
      <use x="491.277344" xlink:href="#DejaVuSans-74"/>
      <use x="530.486328" xlink:href="#DejaVuSans-75"/>
      <use x="593.865234" xlink:href="#DejaVuSans-72"/>
      <use x="634.962891" xlink:href="#DejaVuSans-6e"/>
     </g>
    </g>
   </g>
   <g id="line2d_17">
    <path clip-path="url(#p9e71c54c09)" d="M 56.835852 264.946456 
L 57.026938 273.100841 
L 57.218024 167.581769 
L 57.409109 246.46127 
L 57.600195 246.754932 
L 57.791281 255.78916 
L 58.173452 247.68173 
L 58.364538 250.296524 
L 58.555623 258.490411 
L 58.746709 176.059171 
L 58.937795 235.979748 
L 59.12888 252.391295 
L 59.319966 197.281038 
L 59.702137 258.673895 
L 59.893223 212.182685 
L 60.084309 259.762828 
L 60.275394 261.617934 
L 60.46648 273.716953 
L 60.657566 267.451457 
L 60.848651 238.243694 
L 61.039737 261.198108 
L 61.230823 239.61682 
L 61.421908 269.446656 
L 61.612994 193.374777 
L 61.80408 260.277786 
L 61.995165 238.595051 
L 62.186251 266.774506 
L 62.568422 234.515648 
L 62.759508 238.213864 
L 62.950594 253.108354 
L 63.141679 250.600652 
L 63.332765 246.148716 
L 63.523851 274.461318 
L 63.714936 263.583296 
L 63.906022 266.464736 
L 64.097108 179.431479 
L 64.288193 268.109415 
L 64.479279 257.923386 
L 65.052536 160.535859 
L 65.434707 261.363251 
L 65.625793 268.897858 
L 65.816879 249.209798 
L 66.007964 261.277791 
L 66.19905 228.538817 
L 66.390136 216.798133 
L 66.581221 233.085835 
L 66.772307 261.557588 
L 66.963393 263.820917 
L 67.154478 255.060547 
L 67.345564 239.899043 
L 67.53665 204.014037 
L 67.918821 262.380982 
L 68.109907 209.838805 
L 68.492078 274.920697 
L 68.874249 248.377834 
L 69.065335 214.849465 
L 69.256421 256.819208 
L 69.447506 222.592834 
L 69.638592 261.04585 
L 69.829678 270.78567 
L 70.020763 226.624397 
L 70.211849 268.832288 
L 70.402935 259.955229 
L 70.59402 156.240221 
L 70.976192 255.270553 
L 71.167277 172.63656 
L 71.358363 263.948727 
L 71.549449 263.61492 
L 71.740534 222.524375 
L 71.93162 269.069156 
L 72.504877 142.159833 
L 72.695962 244.310434 
L 72.887048 249.376478 
L 73.078134 242.167547 
L 73.269219 123.745895 
L 73.460305 265.483982 
L 73.651391 158.078739 
L 73.842476 275.849896 
L 74.033562 259.841093 
L 74.224648 269.733542 
L 74.415733 255.673917 
L 74.606819 270.306189 
L 74.797905 198.391199 
L 74.98899 216.861673 
L 75.180076 197.613454 
L 75.562247 239.050313 
L 75.753333 243.25207 
L 75.944419 268.442301 
L 76.32659 202.201761 
L 76.517676 141.526508 
L 76.708761 249.861966 
L 76.899847 183.725291 
L 77.090933 253.242749 
L 77.473104 256.325501 
L 77.66419 267.044686 
L 77.855275 204.320091 
L 78.046361 237.860486 
L 78.237447 217.977381 
L 78.428532 211.090518 
L 78.619618 244.452093 
L 78.810704 34.414125 
L 79.001789 239.944146 
L 79.192875 86.820294 
L 79.383961 254.734234 
L 79.575046 213.883328 
L 79.766132 211.47053 
L 79.957218 211.656467 
L 80.148303 270.031607 
L 80.339389 250.470101 
L 80.530475 123.128221 
L 80.72156 157.005574 
L 80.912646 229.781572 
L 81.103732 239.043983 
L 81.294817 142.18829 
L 81.485903 113.860194 
L 81.676989 246.677835 
L 81.868074 250.679083 
L 82.05916 202.181704 
L 82.250246 204.96511 
L 82.632417 242.98596 
L 82.823503 163.53721 
L 83.014588 234.835286 
L 83.205674 104.778511 
L 83.39676 205.505535 
L 83.587845 133.360276 
L 83.778931 214.110292 
L 83.970017 178.53764 
L 84.352188 250.637081 
L 84.543274 165.853333 
L 84.734359 213.951527 
L 84.925445 228.948139 
L 85.116531 188.683202 
L 85.307616 265.451191 
L 85.498702 103.862239 
L 85.689788 236.572384 
L 85.880873 133.819328 
L 86.071959 249.637154 
L 86.263045 223.789647 
L 86.45413 164.934179 
L 86.836302 235.458328 
L 87.027387 225.967292 
L 87.218473 185.051667 
L 87.409559 195.521269 
L 87.600644 243.192786 
L 87.79173 227.336794 
L 87.982816 220.924771 
L 88.173901 155.265436 
L 88.364987 232.515252 
L 88.556073 221.186988 
L 88.747158 251.227949 
L 88.938244 166.895284 
L 89.12933 221.948746 
L 89.320415 244.472781 
L 89.511501 246.606466 
L 89.702587 236.300777 
L 90.084758 150.638693 
L 90.466929 238.769134 
L 90.658015 242.119293 
L 90.849101 185.476125 
L 91.040186 167.410269 
L 91.231272 261.970215 
L 91.422358 216.277019 
L 91.613443 208.418341 
L 91.804529 215.006841 
L 91.995615 227.234698 
L 92.1867 255.915763 
L 92.377786 195.353681 
L 92.568872 231.732546 
L 92.759957 228.880489 
L 92.951043 196.26359 
L 93.142129 246.081373 
L 93.333214 210.29408 
L 93.5243 146.386761 
L 93.715386 219.092993 
L 94.097557 226.388718 
L 94.288643 244.33872 
L 94.479728 171.253839 
L 94.8619 196.453593 
L 95.052985 176.23711 
L 95.244071 194.689712 
L 95.435157 249.004679 
L 95.817328 219.594281 
L 96.008414 104.958617 
L 96.199499 209.316202 
L 96.390585 238.653382 
L 96.581671 236.145471 
L 96.772756 222.89846 
L 96.963842 150.881296 
L 97.154928 265.438097 
L 97.346013 233.889262 
L 97.537099 141.731873 
L 97.728185 213.28699 
L 97.91927 224.264545 
L 98.110356 244.510541 
L 98.301442 239.710367 
L 98.492527 194.725508 
L 98.683613 180.717873 
L 98.874699 215.674218 
L 99.065784 215.21029 
L 99.25687 238.577751 
L 99.447956 182.872368 
L 99.639041 228.035837 
L 99.830127 234.924964 
L 100.021213 193.483593 
L 100.212298 254.887061 
L 100.403384 52.247058 
L 100.59447 196.223449 
L 100.785555 110.430575 
L 100.976641 225.105715 
L 101.167727 122.007044 
L 101.358812 267.365552 
L 101.549898 198.530844 
L 101.932069 246.524884 
L 102.314241 258.809765 
L 102.505326 234.871045 
L 102.696412 249.506469 
L 102.887498 235.817255 
L 103.078583 187.940934 
L 103.269669 242.11582 
L 103.460755 253.488174 
L 103.65184 198.103416 
L 103.842926 207.285507 
L 104.034012 211.085003 
L 104.225097 247.262945 
L 104.416183 234.423273 
L 104.607269 247.980064 
L 104.798354 273.994517 
L 104.98944 265.61436 
L 105.180526 171.59709 
L 105.371611 199.490523 
L 105.562697 262.503191 
L 105.753783 226.389542 
L 105.944868 221.625922 
L 106.135954 199.492649 
L 106.32704 212.590576 
L 106.518125 158.887383 
L 106.709211 155.762266 
L 106.900297 223.279388 
L 107.091382 232.940035 
L 107.282468 182.029141 
L 107.473554 247.186184 
L 107.664639 242.769209 
L 107.855725 228.40917 
L 108.046811 247.199312 
L 108.237896 194.555897 
L 108.428982 236.352343 
L 108.620068 220.724092 
L 108.811153 253.366836 
L 109.002239 252.466466 
L 109.38441 165.855414 
L 109.575496 264.825942 
L 109.766582 247.188647 
L 109.957667 260.832862 
L 110.148753 196.557506 
L 110.339839 215.900265 
L 110.530924 217.562077 
L 110.72201 238.681376 
L 110.913096 78.748073 
L 111.104181 259.171122 
L 111.295267 259.559264 
L 111.486353 184.071072 
L 111.677438 201.320202 
L 111.868524 266.41278 
L 112.05961 248.67165 
L 112.250695 213.395693 
L 112.441781 252.007442 
L 112.823952 207.97416 
L 113.015038 142.738008 
L 113.206124 246.398838 
L 113.397209 243.740887 
L 113.588295 246.057892 
L 113.779381 230.430981 
L 113.970466 252.749529 
L 114.161552 260.715999 
L 114.352638 224.008919 
L 114.543723 151.113686 
L 114.925895 264.234578 
L 115.11698 253.298673 
L 115.308066 220.762545 
L 115.499152 214.700301 
L 115.690237 175.195254 
L 115.881323 158.715922 
L 116.072409 248.700803 
L 116.263494 237.795232 
L 116.45458 236.550969 
L 116.645666 263.644777 
L 116.836751 228.716245 
L 117.027837 136.869383 
L 117.218923 231.35075 
L 117.410008 221.404543 
L 117.601094 197.026909 
L 117.79218 219.895168 
L 117.983265 178.760531 
L 118.747608 270.674546 
L 118.938694 261.116213 
L 119.129779 202.692477 
L 119.320865 211.540332 
L 119.511951 245.990459 
L 119.703036 214.470578 
L 119.894122 258.461937 
L 120.085208 255.187467 
L 120.276293 274.624467 
L 120.467379 272.197902 
L 120.84955 237.846249 
L 121.040636 246.223974 
L 121.231722 196.692494 
L 121.422807 215.54954 
L 121.613893 208.107413 
L 121.804978 222.873274 
L 121.996064 204.223246 
L 122.18715 247.130565 
L 122.378235 263.2664 
L 122.569321 230.197484 
L 122.760407 254.149922 
L 122.951492 231.103224 
L 123.142578 173.558299 
L 123.333664 179.533842 
L 123.524749 256.272535 
L 123.906921 230.73265 
L 124.098006 268.89697 
L 124.289092 246.812806 
L 124.480178 267.279778 
L 124.671263 216.113042 
L 125.053435 269.82575 
L 125.24452 267.905801 
L 125.435606 169.451452 
L 125.626692 265.629269 
L 125.817777 257.548185 
L 126.008863 266.239566 
L 126.199949 238.330734 
L 126.391034 250.986835 
L 126.773206 228.470433 
L 127.155377 256.85934 
L 127.346463 225.085282 
L 127.537548 259.813816 
L 127.728634 223.633733 
L 127.91972 260.145329 
L 128.110805 230.194544 
L 128.301891 252.352085 
L 128.492977 232.381923 
L 128.684062 244.328413 
L 128.875148 242.482709 
L 129.066234 228.938285 
L 129.257319 265.957456 
L 129.448405 248.594875 
L 129.639491 209.007645 
L 129.830576 130.744046 
L 130.021662 217.5543 
L 130.403833 269.339518 
L 130.786005 260.617627 
L 130.97709 221.189376 
L 131.168176 253.464535 
L 131.359262 215.143997 
L 131.550347 242.733043 
L 131.741433 215.999819 
L 132.123604 266.115086 
L 132.31469 244.045954 
L 132.505776 260.971069 
L 132.696861 252.830551 
L 132.887947 236.010498 
L 133.270118 248.362506 
L 133.461204 243.880727 
L 133.65229 269.419648 
L 134.034461 214.095639 
L 134.225547 214.677013 
L 134.416632 234.956862 
L 134.607718 240.461209 
L 134.798804 222.995418 
L 135.180975 246.516583 
L 135.563146 228.050021 
L 135.754232 227.536421 
L 135.945318 257.869774 
L 136.136403 227.507099 
L 136.327489 220.987782 
L 136.518575 260.389855 
L 136.900746 205.554206 
L 137.091832 213.703052 
L 137.282917 245.946881 
L 137.474003 248.221821 
L 137.665089 258.352556 
L 137.856174 246.143444 
L 138.238346 248.817522 
L 138.429431 274.987577 
L 138.620517 261.973648 
L 138.811603 198.216727 
L 139.002688 265.403217 
L 139.193774 187.564084 
L 139.38486 234.72418 
L 139.575945 231.947014 
L 139.767031 255.41894 
L 139.958117 249.229827 
L 140.149202 273.502053 
L 140.340288 223.701377 
L 140.531374 266.497254 
L 140.722459 167.50654 
L 140.913545 248.424298 
L 141.104631 245.013973 
L 141.295716 230.809032 
L 141.486802 241.192833 
L 141.677888 226.802752 
L 141.868973 247.478877 
L 142.060059 223.789707 
L 142.251145 235.831128 
L 142.44223 263.103035 
L 142.633316 254.101788 
L 142.824402 257.412381 
L 143.015487 265.662658 
L 143.206573 258.827684 
L 143.397659 271.781862 
L 143.588744 240.171363 
L 143.77983 265.613859 
L 143.970916 183.38445 
L 144.353087 247.14563 
L 144.544173 248.485579 
L 144.735258 229.022116 
L 144.926344 183.30443 
L 145.11743 201.115945 
L 145.499601 249.019538 
L 145.690687 255.590684 
L 145.881772 250.058252 
L 146.072858 215.976845 
L 146.263944 265.756535 
L 146.455029 257.379315 
L 146.646115 180.417548 
L 147.028286 257.660467 
L 147.219372 255.95562 
L 147.410458 260.829 
L 147.601543 244.772579 
L 147.792629 256.737645 
L 147.983715 155.411737 
L 148.1748 248.149233 
L 148.365886 231.991996 
L 148.556972 242.819176 
L 148.748057 262.634287 
L 148.939143 224.96823 
L 149.130229 226.694177 
L 149.321314 237.761491 
L 149.5124 203.745853 
L 149.703486 211.699784 
L 149.894571 248.921278 
L 150.085657 225.411396 
L 150.276743 258.397779 
L 150.467828 253.286104 
L 150.85 195.906346 
L 151.232171 274.254306 
L 151.423257 271.267281 
L 151.805428 218.902613 
L 151.996514 211.068953 
L 152.187599 245.345698 
L 152.378685 227.161705 
L 152.569771 195.784807 
L 152.951942 260.645068 
L 153.143028 212.654488 
L 153.334113 265.604288 
L 153.716285 219.451253 
L 153.90737 236.577474 
L 154.098456 223.131005 
L 154.671713 261.811906 
L 154.862799 235.075172 
L 155.053884 234.616686 
L 155.436056 177.751089 
L 155.627141 239.835238 
L 155.818227 254.469201 
L 156.009313 248.495316 
L 156.391484 222.060439 
L 156.58257 263.135148 
L 156.773655 183.668543 
L 156.964741 224.398868 
L 157.155827 205.307268 
L 157.537998 242.734103 
L 157.729084 220.460483 
L 157.920169 243.220891 
L 158.111255 239.546719 
L 158.302341 228.383922 
L 158.493426 260.061343 
L 158.684512 234.087605 
L 158.875598 256.737691 
L 159.066683 220.94819 
L 159.257769 213.528268 
L 159.448855 247.121257 
L 159.63994 192.346701 
L 159.831026 218.716908 
L 160.022112 220.397631 
L 160.404283 253.421075 
L 160.595369 213.775801 
L 160.786454 229.544055 
L 160.97754 231.027712 
L 161.168626 226.236555 
L 161.359711 227.481835 
L 161.550797 223.826917 
L 161.741883 254.876108 
L 162.124054 240.092233 
L 162.31514 262.052654 
L 162.506225 218.336302 
L 162.697311 224.118369 
L 162.888397 255.070455 
L 163.079482 203.893683 
L 163.270568 243.110592 
L 163.461654 241.338691 
L 163.652739 233.690986 
L 163.843825 266.287086 
L 164.225996 209.526966 
L 164.417082 214.608369 
L 164.608168 182.552784 
L 164.799253 253.362513 
L 164.990339 271.578812 
L 165.181425 231.621446 
L 165.37251 226.325756 
L 165.563596 228.334963 
L 165.754682 269.531344 
L 165.945767 225.180244 
L 166.327939 215.197665 
L 166.519024 267.815992 
L 166.71011 173.402855 
L 166.901196 224.953383 
L 167.092281 196.131443 
L 167.283367 220.787269 
L 167.474453 259.984175 
L 167.856624 268.719057 
L 168.04771 222.964018 
L 168.238795 219.768069 
L 168.429881 192.927158 
L 168.620967 235.422571 
L 168.812052 243.331079 
L 169.003138 242.009098 
L 169.385309 235.413043 
L 169.576395 267.507427 
L 169.767481 241.756348 
L 169.958566 250.848078 
L 170.149652 247.25869 
L 170.340737 220.055144 
L 170.531823 233.904252 
L 170.722909 217.941119 
L 170.913994 263.329847 
L 171.10508 209.064073 
L 171.487251 273.588635 
L 171.678337 196.926934 
L 171.869423 230.453709 
L 172.060508 226.974861 
L 172.251594 226.147447 
L 172.44268 205.862913 
L 172.824851 218.580308 
L 173.015937 217.352172 
L 173.207022 252.187205 
L 173.589194 205.929373 
L 173.780279 220.137005 
L 173.971365 259.663797 
L 174.353536 229.159355 
L 174.544622 223.585365 
L 174.735708 199.476862 
L 174.926793 221.317383 
L 175.117879 259.511147 
L 175.308965 270.958446 
L 175.50005 239.549055 
L 175.691136 229.134275 
L 175.882222 226.960755 
L 176.073307 231.982131 
L 176.264393 197.517516 
L 176.455479 194.650489 
L 176.646564 194.291178 
L 176.83765 236.786999 
L 177.028736 237.500824 
L 177.219821 210.917898 
L 177.410907 262.176665 
L 177.601993 228.072567 
L 177.984164 255.429098 
L 178.17525 184.52092 
L 178.366335 260.021739 
L 178.557421 233.750838 
L 178.748507 227.917823 
L 178.939592 239.984112 
L 179.130678 199.719806 
L 179.512849 264.778565 
L 179.703935 220.895544 
L 179.895021 222.602754 
L 180.086106 186.273591 
L 180.277192 237.335383 
L 180.468278 243.596679 
L 180.659363 186.903151 
L 180.850449 186.884392 
L 181.041535 200.578642 
L 181.23262 236.833644 
L 181.423706 220.399425 
L 181.614792 259.532362 
L 181.805877 264.744953 
L 181.996963 242.20992 
L 182.188049 247.153066 
L 182.379134 264.930521 
L 182.761306 215.254228 
L 182.952391 234.242333 
L 183.143477 199.341543 
L 183.334563 250.578547 
L 183.525648 224.515397 
L 183.716734 214.528315 
L 183.90782 250.345249 
L 184.098905 203.697576 
L 184.289991 239.798497 
L 184.481077 226.932036 
L 184.672162 197.712388 
L 184.863248 229.52689 
L 185.054334 220.896352 
L 185.245419 220.605101 
L 185.436505 275.306486 
L 185.627591 194.782646 
L 185.818676 229.779529 
L 186.009762 219.227517 
L 186.200848 198.288911 
L 186.391933 228.156481 
L 186.583019 204.643795 
L 186.774105 247.900259 
L 187.347362 209.108154 
L 187.538447 235.701867 
L 187.729533 209.451337 
L 187.920619 232.409192 
L 188.111704 228.568554 
L 188.30279 231.817895 
L 188.493876 202.229218 
L 188.684961 239.047365 
L 188.876047 239.399705 
L 189.067133 221.320976 
L 189.258218 221.075647 
L 189.449304 242.266804 
L 189.64039 199.161328 
L 189.831475 217.525227 
L 190.022561 217.233955 
L 190.213647 239.74978 
L 190.404732 247.399024 
L 190.595818 209.433057 
L 190.786904 233.788758 
L 190.977989 220.346171 
L 191.169075 235.439975 
L 191.360161 226.267147 
L 191.551246 226.875514 
L 191.742332 225.649406 
L 191.933418 268.759858 
L 192.315589 214.864584 
L 192.69776 222.322593 
L 193.079932 276.334125 
L 193.271017 224.603509 
L 193.462103 204.313688 
L 193.653189 213.480456 
L 193.844274 269.540676 
L 194.226446 210.92478 
L 194.608617 236.145071 
L 194.799703 224.791081 
L 194.990788 230.438137 
L 195.37296 232.96319 
L 195.564045 245.216138 
L 195.946217 201.668259 
L 196.137302 216.104829 
L 196.519474 199.838934 
L 196.710559 215.380471 
L 196.901645 220.951832 
L 197.092731 199.773369 
L 197.283816 232.011724 
L 197.474902 234.478006 
L 197.665988 212.641551 
L 198.048159 234.856222 
L 198.43033 243.050013 
L 198.621416 239.303053 
L 198.812502 226.417753 
L 199.003587 166.610179 
L 199.194673 214.021353 
L 199.385759 223.067715 
L 199.576844 255.483217 
L 199.76793 208.953032 
L 199.959016 233.42499 
L 200.150101 228.742387 
L 200.341187 218.467502 
L 200.532273 223.272511 
L 200.723358 219.355784 
L 200.914444 246.268471 
L 201.10553 243.768968 
L 201.296615 213.453746 
L 201.487701 218.662505 
L 201.678787 242.41838 
L 201.869872 239.067703 
L 202.060958 272.772833 
L 202.252044 264.318242 
L 202.443129 232.351845 
L 202.634215 271.175141 
L 202.825301 187.571438 
L 203.016386 245.222968 
L 203.207472 218.738037 
L 203.398558 230.564854 
L 203.589643 189.915751 
L 203.780729 243.108304 
L 203.971815 199.339968 
L 204.1629 201.83282 
L 204.736157 256.896989 
L 204.927243 230.227655 
L 205.118329 256.934692 
L 205.309414 212.526964 
L 205.882671 241.456135 
L 206.073757 266.507096 
L 206.264843 230.925126 
L 206.455928 220.842508 
L 206.647014 201.429371 
L 206.8381 238.877521 
L 207.029185 188.363991 
L 207.411357 238.998574 
L 207.602442 215.583792 
L 207.984614 248.824226 
L 208.557871 198.350808 
L 208.748956 214.497354 
L 208.940042 247.023825 
L 209.131128 253.410865 
L 209.322213 239.566767 
L 209.513299 206.082436 
L 209.704385 209.546037 
L 209.89547 250.405689 
L 210.086556 237.963139 
L 210.277642 242.680709 
L 210.468727 221.926447 
L 210.659813 188.616538 
L 211.041984 267.925107 
L 211.23307 228.094094 
L 211.424156 230.071195 
L 211.615241 236.144367 
L 211.806327 235.663114 
L 211.997413 233.863555 
L 212.188498 228.060005 
L 212.379584 272.175268 
L 212.57067 240.157929 
L 212.761755 230.64901 
L 212.952841 258.431273 
L 213.335012 212.489572 
L 213.526098 266.821706 
L 213.717184 217.643312 
L 213.908269 238.876446 
L 214.099355 210.081021 
L 214.290441 213.281682 
L 214.481526 248.821136 
L 214.672612 238.159343 
L 214.863698 260.777242 
L 215.054783 209.705341 
L 215.245869 218.087655 
L 215.62804 248.335829 
L 216.010212 246.285585 
L 216.201297 223.597767 
L 216.392383 242.967854 
L 216.774554 226.614203 
L 216.96564 240.343299 
L 217.156726 233.188453 
L 217.347811 240.798847 
L 217.538897 222.990062 
L 217.729983 192.738134 
L 217.921068 212.019404 
L 218.112154 209.256968 
L 218.30324 243.838957 
L 218.494325 235.827956 
L 218.685411 208.116736 
L 218.876497 235.86529 
L 219.067582 221.927578 
L 219.258668 236.365347 
L 219.449753 204.738018 
L 219.640839 215.681005 
L 219.831925 239.167203 
L 220.02301 213.327238 
L 220.214096 243.108521 
L 220.405182 240.080375 
L 220.596267 259.264247 
L 220.787353 222.737803 
L 220.978439 208.89192 
L 221.169524 233.794757 
L 221.36061 193.511548 
L 221.742781 244.379069 
L 221.933867 192.522165 
L 222.124953 234.100837 
L 222.316038 232.583541 
L 222.507124 224.159068 
L 222.69821 208.056566 
L 222.889295 203.587824 
L 223.080381 233.901127 
L 223.462552 193.168011 
L 223.653638 244.104172 
L 223.844724 252.826556 
L 224.035809 201.496254 
L 224.226895 238.585815 
L 224.417981 228.626124 
L 224.609066 234.311201 
L 224.800152 225.815752 
L 224.991238 232.554413 
L 225.182323 204.335719 
L 225.373409 206.300064 
L 225.564495 272.917761 
L 225.75558 157.551815 
L 225.946666 227.381701 
L 226.137752 224.531777 
L 226.328837 227.904805 
L 226.519923 249.143701 
L 226.711009 225.955033 
L 226.902094 242.95755 
L 227.09318 194.619319 
L 227.284266 217.978065 
L 227.475351 212.276228 
L 227.666437 255.822503 
L 227.857523 186.32483 
L 228.239694 243.745796 
L 228.43078 252.878067 
L 228.621865 244.035096 
L 228.812951 191.041289 
L 229.195122 266.514255 
L 229.386208 222.282368 
L 229.577294 251.745754 
L 229.768379 224.637313 
L 229.959465 232.708575 
L 230.150551 222.209856 
L 230.341636 229.158392 
L 230.532722 266.786286 
L 230.723808 247.825234 
L 230.914893 243.376032 
L 231.105979 246.622411 
L 231.297065 268.122721 
L 231.48815 217.54788 
L 231.679236 247.871199 
L 231.870322 233.987351 
L 232.252493 259.641786 
L 232.443579 245.015687 
L 232.634664 241.0042 
L 232.82575 233.289378 
L 233.016836 250.366099 
L 233.207921 238.819723 
L 233.399007 191.642819 
L 233.781178 273.256626 
L 233.972264 214.2882 
L 234.16335 249.637355 
L 234.354435 239.271036 
L 234.545521 210.709332 
L 234.736607 249.827017 
L 234.927692 239.337405 
L 235.118778 209.337205 
L 235.309864 233.583472 
L 235.500949 227.779279 
L 235.692035 254.257459 
L 235.883121 240.588621 
L 236.265292 271.378853 
L 236.456378 254.885386 
L 236.647463 250.715506 
L 236.838549 230.436624 
L 237.029635 248.956668 
L 237.22072 206.823313 
L 237.411806 232.878272 
L 237.602892 197.749656 
L 237.793977 227.764934 
L 237.985063 236.570687 
L 238.176149 231.804292 
L 238.367234 250.94154 
L 238.55832 248.62921 
L 238.749406 218.27014 
L 238.940491 246.282035 
L 239.322663 241.194448 
L 239.513748 246.867721 
L 239.704834 232.860103 
L 239.89592 233.538954 
L 240.087005 250.706285 
L 240.278091 237.699456 
L 240.469177 243.321538 
L 240.660262 239.678122 
L 240.851348 239.1721 
L 241.042434 217.066667 
L 241.233519 247.293157 
L 241.424605 205.662967 
L 241.615691 241.561208 
L 241.806776 255.276389 
L 241.997862 135.641504 
L 242.188948 197.511228 
L 242.380033 185.536762 
L 242.571119 246.94299 
L 242.762205 240.079335 
L 242.95329 244.142664 
L 243.144376 218.707985 
L 243.335462 255.947127 
L 243.526547 240.880026 
L 243.717633 250.909409 
L 243.908719 220.244288 
L 244.099804 244.539694 
L 244.29089 233.787063 
L 244.481976 273.195335 
L 244.673061 260.165594 
L 244.864147 179.215203 
L 245.055233 254.340516 
L 245.437404 211.754305 
L 245.62849 238.535756 
L 245.819575 235.34911 
L 246.201747 219.133806 
L 246.392832 214.884951 
L 246.583918 242.988254 
L 246.775004 141.365289 
L 246.966089 223.725281 
L 247.157175 178.623657 
L 247.348261 247.673431 
L 247.539346 258.955127 
L 247.730432 218.324803 
L 247.921518 236.24576 
L 248.112603 194.846615 
L 248.303689 230.094666 
L 248.494775 243.25679 
L 248.68586 211.033023 
L 248.876946 244.505 
L 249.068032 107.137369 
L 249.450203 250.858399 
L 250.02346 208.759288 
L 250.214546 237.799921 
L 250.405631 245.834077 
L 250.596717 180.324338 
L 250.787803 239.648392 
L 250.978888 197.064944 
L 251.169974 233.467821 
L 251.36106 238.156783 
L 251.743231 254.51239 
L 251.934317 194.642909 
L 252.316488 241.127834 
L 252.507574 260.688558 
L 252.698659 254.276216 
L 252.889745 219.370502 
L 253.080831 216.031263 
L 253.271916 226.891829 
L 253.463002 226.19822 
L 253.654088 133.134083 
L 253.845173 253.45065 
L 254.036259 127.518972 
L 254.227345 214.137191 
L 254.41843 239.564331 
L 254.609516 217.035579 
L 254.800602 259.512046 
L 254.991687 222.856663 
L 255.182773 240.105505 
L 255.373859 232.478953 
L 255.564944 258.451657 
L 255.947116 229.856812 
L 256.138201 252.711878 
L 256.329287 251.839242 
L 256.520373 227.029664 
L 256.711458 169.59963 
L 256.902544 215.724746 
L 257.09363 232.308844 
L 257.284715 183.738571 
L 257.475801 242.814029 
L 257.666887 198.633137 
L 258.049058 254.873719 
L 258.240144 119.055486 
L 258.431229 200.160569 
L 259.004486 245.411444 
L 259.195572 202.642961 
L 259.386658 225.931814 
L 259.577743 130.702914 
L 259.768829 239.695046 
L 259.959915 245.064587 
L 260.342086 230.998842 
L 260.533172 201.909012 
L 260.724257 249.600863 
L 260.915343 235.642191 
L 261.106429 203.161891 
L 261.297514 239.226301 
L 261.4886 235.7517 
L 261.679686 240.4211 
L 261.870771 255.288425 
L 262.061857 233.890813 
L 262.252943 242.812649 
L 262.444028 212.311009 
L 262.635114 213.260354 
L 262.8262 185.007985 
L 263.017285 220.164098 
L 263.208371 192.622831 
L 263.590542 241.596291 
L 263.781628 228.305518 
L 264.163799 251.2081 
L 264.354885 247.590616 
L 264.545971 229.979028 
L 264.737056 232.750599 
L 264.928142 134.761501 
L 265.119228 197.404593 
L 265.310313 201.43411 
L 265.501399 211.260525 
L 265.692485 256.329738 
L 265.88357 224.058293 
L 266.074656 100.541834 
L 266.265742 236.623426 
L 266.456827 231.614669 
L 266.647913 218.699095 
L 266.838999 219.427371 
L 267.030084 175.774762 
L 267.22117 269.68227 
L 267.412256 243.441058 
L 267.603341 160.457631 
L 267.794427 238.704545 
L 267.985513 234.582652 
L 268.176598 207.346239 
L 268.367684 152.723846 
L 268.558769 191.395021 
L 268.749855 142.849493 
L 268.940941 223.716202 
L 269.132026 129.101795 
L 269.323112 249.730503 
L 269.514198 249.088548 
L 269.705283 229.169764 
L 269.896369 231.533588 
L 270.27854 252.896667 
L 270.660712 165.562434 
L 270.851797 175.202971 
L 271.042883 146.375151 
L 271.233969 229.162687 
L 271.425054 180.834068 
L 271.61614 211.444465 
L 271.807226 107.821835 
L 271.998311 213.824292 
L 272.189397 253.443129 
L 272.380483 197.966446 
L 272.571568 189.290619 
L 272.762654 230.606945 
L 272.95374 217.72189 
L 273.144825 152.833979 
L 273.335911 224.504957 
L 273.526997 226.903423 
L 273.718082 114.266542 
L 273.909168 199.31861 
L 274.100254 212.638316 
L 274.291339 205.535512 
L 274.482425 168.792111 
L 274.673511 241.254513 
L 274.864596 146.548451 
L 275.055682 210.433338 
L 275.246768 234.533738 
L 275.437853 120.860362 
L 275.628939 229.953018 
L 276.01111 102.57768 
L 276.584367 247.170882 
L 276.775453 234.924656 
L 276.966539 237.528821 
L 277.157624 204.154595 
L 277.34871 247.58578 
L 277.539796 167.856304 
L 277.730881 142.162631 
L 278.113053 206.427085 
L 278.304138 203.767297 
L 278.495224 238.29278 
L 278.68631 240.515929 
L 278.877395 203.609576 
L 279.068481 122.940635 
L 279.259567 139.798064 
L 279.450652 238.547096 
L 279.641738 177.334551 
L 279.832824 232.904676 
L 280.023909 195.247276 
L 280.214995 130.39291 
L 280.406081 234.934119 
L 280.788252 142.792275 
L 280.979338 238.539651 
L 281.170423 198.215139 
L 281.361509 114.991316 
L 281.552595 134.837081 
L 281.74368 247.568558 
L 281.934766 236.114524 
L 282.125852 214.324766 
L 282.316937 221.21354 
L 282.508023 153.32752 
L 282.699109 238.988075 
L 282.890194 205.845137 
L 283.08128 234.565099 
L 283.272366 244.341328 
L 283.463451 228.594028 
L 283.654537 134.964182 
L 284.036708 243.785376 
L 284.227794 213.018165 
L 284.41888 209.744689 
L 284.609965 212.237307 
L 284.801051 171.577991 
L 284.992137 192.74203 
L 285.183222 241.376931 
L 285.374308 146.982905 
L 285.565394 243.927994 
L 285.756479 229.823081 
L 285.947565 249.70924 
L 286.138651 242.188025 
L 286.329736 239.906678 
L 286.520822 129.781885 
L 286.711908 110.852276 
L 286.902993 258.176084 
L 287.094079 223.501167 
L 287.285165 245.951017 
L 287.47625 179.605307 
L 287.667336 247.082396 
L 288.049507 135.464481 
L 288.240593 147.267476 
L 288.431679 241.054474 
L 288.622764 242.671325 
L 288.81385 245.748697 
L 289.004936 170.134761 
L 289.196021 223.200869 
L 289.387107 105.802571 
L 289.578193 229.199493 
L 289.769278 243.224774 
L 289.960364 228.438824 
L 290.15145 239.771341 
L 290.342535 177.126117 
L 290.533621 219.702281 
L 290.724707 231.163164 
L 290.915792 210.727294 
L 291.106878 226.989644 
L 291.297964 226.126025 
L 291.489049 243.354423 
L 291.871221 250.901431 
L 292.062306 230.030383 
L 292.253392 229.469784 
L 292.444478 247.720604 
L 292.635563 196.969032 
L 292.826649 253.355653 
L 293.017735 200.287362 
L 293.20882 203.025928 
L 293.399906 185.287699 
L 293.590992 232.050928 
L 293.782077 229.739128 
L 293.973163 183.312025 
L 294.164249 208.580904 
L 294.355334 196.250015 
L 294.54642 207.829751 
L 294.737506 136.415417 
L 294.928591 258.365234 
L 295.119677 234.465211 
L 295.310763 125.186819 
L 295.692934 218.583935 
L 295.88402 127.951927 
L 296.075105 251.722962 
L 296.266191 108.537053 
L 296.457277 239.394181 
L 296.648362 222.142813 
L 296.839448 194.274436 
L 297.030534 238.650623 
L 297.221619 231.315312 
L 297.412705 134.496143 
L 297.603791 125.227702 
L 297.794876 225.0811 
L 297.985962 145.340366 
L 298.177048 214.721142 
L 298.368133 214.35101 
L 298.559219 159.486835 
L 298.750305 212.174603 
L 298.94139 123.333526 
L 299.132476 137.893225 
L 299.323562 221.823968 
L 299.514647 193.226459 
L 299.705733 197.982589 
L 299.896819 226.109144 
L 300.087904 231.468357 
L 300.27899 97.73606 
L 300.470076 171.638529 
L 300.661161 186.494432 
L 301.043333 249.375382 
L 301.234418 235.484701 
L 301.425504 197.351604 
L 301.61659 253.607748 
L 301.807675 125.355634 
L 301.998761 208.547958 
L 302.189847 198.653924 
L 302.380932 213.832479 
L 302.572018 100.676692 
L 302.763104 226.045604 
L 302.954189 147.126385 
L 303.145275 168.49376 
L 303.336361 232.093217 
L 303.527446 131.226382 
L 303.718532 207.027813 
L 303.909618 227.873178 
L 304.100703 206.252641 
L 304.291789 234.280092 
L 304.482875 124.3963 
L 304.67396 233.492851 
L 304.865046 233.477238 
L 305.056132 212.319308 
L 305.247217 169.797931 
L 305.438303 228.056857 
L 305.629389 145.5433 
L 306.01156 190.784665 
L 306.202646 238.284737 
L 306.393731 209.376436 
L 306.584817 219.323233 
L 306.775903 152.378488 
L 306.966988 152.106509 
L 307.34916 238.315895 
L 307.540245 232.819629 
L 307.731331 215.933823 
L 307.922417 124.514699 
L 308.304588 249.327489 
L 308.495674 217.501609 
L 308.686759 116.385541 
L 308.877845 201.950041 
L 309.068931 173.812214 
L 309.260016 110.510158 
L 309.451102 204.400802 
L 309.642188 161.969257 
L 309.833273 214.16853 
L 310.024359 210.956706 
L 310.215445 226.172018 
L 310.40653 225.265658 
L 310.597616 232.640708 
L 311.361959 170.494199 
L 311.553044 238.59694 
L 311.74413 167.786133 
L 312.126301 222.430606 
L 312.317387 194.142078 
L 312.508473 145.583582 
L 312.699558 146.193622 
L 313.08173 236.192248 
L 313.272815 215.752945 
L 313.463901 153.417525 
L 313.654987 205.746521 
L 313.846072 183.969432 
L 314.037158 229.540489 
L 314.228244 215.683289 
L 314.419329 220.82354 
L 314.610415 165.110337 
L 314.801501 209.284766 
L 314.992586 197.461002 
L 315.183672 234.328778 
L 315.374758 139.387857 
L 315.565843 246.121402 
L 315.756929 224.566529 
L 316.1391 241.051003 
L 316.330186 209.573623 
L 316.521272 224.703163 
L 316.712357 140.638254 
L 316.903443 228.119973 
L 317.285614 211.996241 
L 317.4767 244.455608 
L 317.667785 128.621516 
L 317.858871 195.432333 
L 318.241042 227.291979 
L 318.432128 135.085163 
L 318.623214 239.338916 
L 318.814299 212.60109 
L 319.005385 225.0675 
L 319.196471 165.697794 
L 319.387556 242.428472 
L 319.578642 209.241465 
L 319.769728 233.344715 
L 319.960813 183.187206 
L 320.151899 174.626515 
L 320.342985 228.706756 
L 320.53407 237.496711 
L 320.725156 175.137054 
L 320.916242 172.856592 
L 321.107327 131.553821 
L 321.298413 225.703547 
L 321.489499 211.209037 
L 321.680584 172.728483 
L 321.87167 175.157445 
L 322.253841 239.605838 
L 322.444927 162.402249 
L 322.636013 222.161679 
L 322.827098 228.906936 
L 323.018184 142.839494 
L 323.20927 220.687456 
L 323.400355 225.873831 
L 323.591441 218.998708 
L 323.782527 168.464444 
L 323.973612 231.800616 
L 324.164698 227.868595 
L 324.355784 230.238779 
L 324.546869 218.197726 
L 324.737955 227.494986 
L 324.929041 245.320414 
L 325.120126 221.344734 
L 325.311212 238.800169 
L 325.502298 272.341501 
L 325.693383 231.628945 
L 325.884469 219.120161 
L 326.26664 233.721952 
L 326.457726 154.907154 
L 326.839897 252.085363 
L 327.030983 186.085331 
L 327.222069 224.785536 
L 327.413154 233.61646 
L 327.60424 221.973737 
L 327.986411 179.324984 
L 328.177497 218.650305 
L 328.368583 170.232076 
L 328.559668 185.273153 
L 328.750754 142.879978 
L 328.94184 219.200135 
L 329.132925 190.196105 
L 329.324011 195.613878 
L 329.515097 233.852938 
L 329.706182 180.847258 
L 329.897268 235.557955 
L 330.088354 206.319709 
L 330.279439 220.538613 
L 330.470525 222.523315 
L 330.661611 232.178169 
L 330.852696 185.568548 
L 331.043782 221.047134 
L 331.234868 235.353945 
L 331.425953 226.794648 
L 331.808125 233.614226 
L 331.99921 274.188604 
L 332.190296 229.93209 
L 332.572467 240.148951 
L 332.763553 234.847552 
L 332.954639 235.129321 
L 333.33681 218.722195 
L 333.527896 200.260676 
L 333.718981 225.979377 
L 333.910067 219.558362 
L 334.101153 182.649531 
L 334.292238 233.767071 
L 334.483324 229.240169 
L 334.865495 242.336466 
L 335.056581 235.01389 
L 335.247667 167.482065 
L 335.438752 235.345466 
L 335.629838 226.965755 
L 335.820924 171.51418 
L 336.203095 231.817158 
L 336.394181 230.184493 
L 336.776352 239.886474 
L 337.158523 194.988704 
L 337.540695 252.750028 
L 337.73178 259.109306 
L 337.922866 232.338393 
L 338.305037 228.607983 
L 338.496123 222.744858 
L 338.687209 210.99794 
L 338.878294 237.597424 
L 339.06938 239.366413 
L 339.260466 236.004893 
L 339.451551 166.038423 
L 339.642637 235.534316 
L 339.833723 230.22275 
L 340.024808 230.614583 
L 340.215894 236.718999 
L 340.40698 233.494092 
L 340.598065 218.788518 
L 340.789151 212.706694 
L 340.980237 235.11081 
L 341.171322 237.443492 
L 341.362408 215.675621 
L 341.553494 219.524061 
L 341.744579 220.745432 
L 341.935665 238.06817 
L 342.126751 231.146517 
L 342.317836 245.222406 
L 342.508922 241.261023 
L 343.082179 214.977996 
L 343.273265 196.971565 
L 343.46435 234.874769 
L 343.655436 248.606656 
L 343.846522 211.386167 
L 344.037607 236.450064 
L 344.228693 229.617599 
L 344.419779 231.108053 
L 344.610864 235.078282 
L 344.80195 232.1915 
L 344.993036 237.338592 
L 345.184121 222.832641 
L 345.375207 225.105006 
L 345.757378 235.566069 
L 345.948464 224.302436 
L 346.13955 237.473867 
L 346.330635 213.169521 
L 346.521721 228.62814 
L 346.903892 229.546793 
L 347.094978 229.078304 
L 347.286064 232.130243 
L 347.477149 221.734056 
L 347.668235 232.649021 
L 347.859321 214.239983 
L 348.050406 234.353735 
L 348.241492 229.43804 
L 348.432578 231.7045 
L 348.623663 239.108797 
L 349.005835 233.031229 
L 349.19692 204.387819 
L 349.388006 221.866286 
L 349.579092 211.953915 
L 349.770177 229.754349 
L 349.961263 230.43774 
L 350.152349 227.422338 
L 350.343434 236.732088 
L 350.53452 218.852412 
L 350.725606 223.892816 
L 350.916691 239.207501 
L 351.107777 214.183866 
L 351.298863 244.456379 
L 351.489948 228.189824 
L 351.681034 235.417303 
L 351.87212 238.103486 
L 352.063205 211.884696 
L 352.254291 241.314906 
L 352.445377 241.984045 
L 352.636462 237.486674 
L 352.827548 159.186778 
L 353.018634 242.679958 
L 353.209719 235.447219 
L 353.400805 240.507949 
L 353.591891 217.708013 
L 353.782976 232.554911 
L 353.974062 231.766293 
L 354.165148 236.816518 
L 354.356233 222.103622 
L 354.547319 237.485987 
L 354.738405 225.927323 
L 354.92949 234.001175 
L 355.311662 237.581081 
L 355.693833 216.157878 
L 355.884919 221.418398 
L 356.076004 241.00867 
L 356.26709 223.61708 
L 356.458176 225.319638 
L 356.649261 233.852749 
L 356.840347 224.886045 
L 357.031433 224.410871 
L 357.222518 226.994956 
L 357.413604 214.093433 
L 357.60469 236.083185 
L 357.986861 231.709266 
L 358.177947 237.80844 
L 358.369032 232.617587 
L 358.560118 238.047127 
L 358.751204 248.240164 
L 358.942289 234.038914 
L 359.133375 232.442154 
L 359.324461 226.247352 
L 359.515546 230.03295 
L 359.897718 245.249955 
L 360.088803 222.629699 
L 360.279889 224.195901 
L 360.470975 220.038445 
L 360.853146 234.094489 
L 361.044232 218.829806 
L 361.235317 237.930693 
L 361.426403 236.213725 
L 361.617489 236.158972 
L 361.808574 234.783874 
L 361.99966 242.001305 
L 362.190746 238.288548 
L 362.381831 229.435563 
L 362.572917 242.554818 
L 362.764003 222.833337 
L 362.955088 233.590128 
L 363.146174 208.791866 
L 363.33726 234.124392 
L 363.528345 237.955703 
L 363.719431 229.807797 
L 364.101602 224.224186 
L 364.292688 237.739048 
L 364.483774 226.116877 
L 365.057031 235.706198 
L 365.248116 229.27359 
L 365.439202 228.361718 
L 365.630288 220.403593 
L 365.821373 233.514089 
L 366.012459 224.767133 
L 366.203544 242.08601 
L 366.39463 226.038394 
L 366.585716 232.434773 
L 366.967887 214.221794 
L 367.158973 239.168797 
L 367.350058 238.410901 
L 367.541144 245.936513 
L 367.73223 231.54599 
L 367.923315 227.841191 
L 368.114401 236.133019 
L 368.305487 230.280216 
L 368.496572 232.386057 
L 368.687658 242.825496 
L 368.878744 230.903654 
L 369.069829 241.105818 
L 369.260915 224.485165 
L 369.452001 240.107518 
L 369.643086 240.10125 
L 370.025258 227.669042 
L 370.216343 230.068064 
L 370.407429 227.996969 
L 370.598515 237.418859 
L 370.7896 236.134683 
L 370.980686 222.307685 
L 371.171772 231.09832 
L 371.362857 224.246764 
L 371.553943 237.404163 
L 371.745029 232.424026 
L 371.936114 234.736335 
L 372.1272 227.131849 
L 372.318286 238.96553 
L 372.509371 231.544886 
L 372.700457 229.071525 
L 373.082628 246.579171 
L 373.273714 232.180495 
L 373.4648 228.278303 
L 373.655885 240.823973 
L 373.846971 237.57447 
L 374.038057 226.926521 
L 374.229142 230.704893 
L 374.420228 228.419397 
L 374.611314 235.330864 
L 374.993485 229.217454 
L 375.184571 227.725325 
L 375.375656 258.271136 
L 375.566742 228.48981 
L 375.757828 231.367664 
L 375.948913 205.308584 
L 376.139999 232.514209 
L 376.331085 233.090265 
L 376.52217 227.871719 
L 376.713256 234.313154 
L 376.904342 225.571332 
L 377.095427 236.182685 
L 377.286513 226.527267 
L 377.477599 227.656208 
L 377.668684 234.565657 
L 377.85977 219.263015 
L 378.241941 239.852125 
L 378.433027 229.777334 
L 378.624113 240.991051 
L 378.815198 225.741558 
L 379.19737 242.052925 
L 379.388455 225.929296 
L 379.579541 230.337323 
L 379.770627 251.418636 
L 379.961712 233.941554 
L 380.152798 233.253484 
L 380.343884 235.868563 
L 380.534969 231.255328 
L 380.726055 210.45563 
L 381.108226 257.562497 
L 381.299312 226.617238 
L 381.490398 229.629489 
L 381.490398 229.629489 
" style="fill:none;stroke:#1f77b4;stroke-linecap:square;stroke-width:0.5;"/>
   </g>
   <g id="patch_3">
    <path d="M 40.603125 288.430125 
L 40.603125 22.318125 
" style="fill:none;stroke:#000000;stroke-linecap:square;stroke-linejoin:miter;stroke-width:0.8;"/>
   </g>
   <g id="patch_4">
    <path d="M 397.723125 288.430125 
L 397.723125 22.318125 
" style="fill:none;stroke:#000000;stroke-linecap:square;stroke-linejoin:miter;stroke-width:0.8;"/>
   </g>
   <g id="patch_5">
    <path d="M 40.603125 288.430125 
L 397.723125 288.430125 
" style="fill:none;stroke:#000000;stroke-linecap:square;stroke-linejoin:miter;stroke-width:0.8;"/>
   </g>
   <g id="patch_6">
    <path d="M 40.603125 22.318125 
L 397.723125 22.318125 
" style="fill:none;stroke:#000000;stroke-linecap:square;stroke-linejoin:miter;stroke-width:0.8;"/>
   </g>
   <g id="text_19">
    <!-- Undiscounted return obtained -->
    <defs>
     <path d="M 8.6875 72.90625 
L 18.609375 72.90625 
L 18.609375 28.609375 
Q 18.609375 16.890625 22.84375 11.734375 
Q 27.09375 6.59375 36.625 6.59375 
Q 46.09375 6.59375 50.34375 11.734375 
Q 54.59375 16.890625 54.59375 28.609375 
L 54.59375 72.90625 
L 64.5 72.90625 
L 64.5 27.390625 
Q 64.5 13.140625 57.4375 5.859375 
Q 50.390625 -1.421875 36.625 -1.421875 
Q 22.796875 -1.421875 15.734375 5.859375 
Q 8.6875 13.140625 8.6875 27.390625 
z
" id="DejaVuSans-55"/>
     <path d="M 48.6875 27.296875 
Q 48.6875 37.203125 44.609375 42.84375 
Q 40.53125 48.484375 33.40625 48.484375 
Q 26.265625 48.484375 22.1875 42.84375 
Q 18.109375 37.203125 18.109375 27.296875 
Q 18.109375 17.390625 22.1875 11.75 
Q 26.265625 6.109375 33.40625 6.109375 
Q 40.53125 6.109375 44.609375 11.75 
Q 48.6875 17.390625 48.6875 27.296875 
z
M 18.109375 46.390625 
Q 20.953125 51.265625 25.265625 53.625 
Q 29.59375 56 35.59375 56 
Q 45.5625 56 51.78125 48.09375 
Q 58.015625 40.1875 58.015625 27.296875 
Q 58.015625 14.40625 51.78125 6.484375 
Q 45.5625 -1.421875 35.59375 -1.421875 
Q 29.59375 -1.421875 25.265625 0.953125 
Q 20.953125 3.328125 18.109375 8.203125 
L 18.109375 0 
L 9.078125 0 
L 9.078125 75.984375 
L 18.109375 75.984375 
z
" id="DejaVuSans-62"/>
     <path d="M 34.28125 27.484375 
Q 23.390625 27.484375 19.1875 25 
Q 14.984375 22.515625 14.984375 16.5 
Q 14.984375 11.71875 18.140625 8.90625 
Q 21.296875 6.109375 26.703125 6.109375 
Q 34.1875 6.109375 38.703125 11.40625 
Q 43.21875 16.703125 43.21875 25.484375 
L 43.21875 27.484375 
z
M 52.203125 31.203125 
L 52.203125 0 
L 43.21875 0 
L 43.21875 8.296875 
Q 40.140625 3.328125 35.546875 0.953125 
Q 30.953125 -1.421875 24.3125 -1.421875 
Q 15.921875 -1.421875 10.953125 3.296875 
Q 6 8.015625 6 15.921875 
Q 6 25.140625 12.171875 29.828125 
Q 18.359375 34.515625 30.609375 34.515625 
L 43.21875 34.515625 
L 43.21875 35.40625 
Q 43.21875 41.609375 39.140625 45 
Q 35.0625 48.390625 27.6875 48.390625 
Q 23 48.390625 18.546875 47.265625 
Q 14.109375 46.140625 10.015625 43.890625 
L 10.015625 52.203125 
Q 14.9375 54.109375 19.578125 55.046875 
Q 24.21875 56 28.609375 56 
Q 40.484375 56 46.34375 49.84375 
Q 52.203125 43.703125 52.203125 31.203125 
z
" id="DejaVuSans-61"/>
    </defs>
    <g transform="translate(129.066563 16.318125)scale(0.12 -0.12)">
     <use xlink:href="#DejaVuSans-55"/>
     <use x="73.193359" xlink:href="#DejaVuSans-6e"/>
     <use x="136.572266" xlink:href="#DejaVuSans-64"/>
     <use x="200.048828" xlink:href="#DejaVuSans-69"/>
     <use x="227.832031" xlink:href="#DejaVuSans-73"/>
     <use x="279.931641" xlink:href="#DejaVuSans-63"/>
     <use x="334.912109" xlink:href="#DejaVuSans-6f"/>
     <use x="396.09375" xlink:href="#DejaVuSans-75"/>
     <use x="459.472656" xlink:href="#DejaVuSans-6e"/>
     <use x="522.851562" xlink:href="#DejaVuSans-74"/>
     <use x="562.060547" xlink:href="#DejaVuSans-65"/>
     <use x="623.583984" xlink:href="#DejaVuSans-64"/>
     <use x="687.060547" xlink:href="#DejaVuSans-20"/>
     <use x="718.847656" xlink:href="#DejaVuSans-72"/>
     <use x="759.929688" xlink:href="#DejaVuSans-65"/>
     <use x="821.453125" xlink:href="#DejaVuSans-74"/>
     <use x="860.662109" xlink:href="#DejaVuSans-75"/>
     <use x="924.041016" xlink:href="#DejaVuSans-72"/>
     <use x="965.138672" xlink:href="#DejaVuSans-6e"/>
     <use x="1028.517578" xlink:href="#DejaVuSans-20"/>
     <use x="1060.304688" xlink:href="#DejaVuSans-6f"/>
     <use x="1121.486328" xlink:href="#DejaVuSans-62"/>
     <use x="1184.962891" xlink:href="#DejaVuSans-74"/>
     <use x="1224.171875" xlink:href="#DejaVuSans-61"/>
     <use x="1285.451172" xlink:href="#DejaVuSans-69"/>
     <use x="1313.234375" xlink:href="#DejaVuSans-6e"/>
     <use x="1376.613281" xlink:href="#DejaVuSans-65"/>
     <use x="1438.136719" xlink:href="#DejaVuSans-64"/>
    </g>
   </g>
  </g>
 </g>
 <defs>
  <clipPath id="p9e71c54c09">
   <rect height="266.112" width="357.12" x="40.603125" y="22.318125"/>
  </clipPath>
 </defs>
</svg>
