<?xml version="1.0" encoding="utf-8" standalone="no"?>
<!DOCTYPE svg PUBLIC "-//W3C//DTD SVG 1.1//EN"
  "http://www.w3.org/Graphics/SVG/1.1/DTD/svg11.dtd">
<!-- Created with matplotlib (http://matplotlib.org/) -->
<svg height="408pt" version="1.1" viewBox="0 0 525 408" width="525pt" xmlns="http://www.w3.org/2000/svg" xmlns:xlink="http://www.w3.org/1999/xlink">
 <defs>
  <style type="text/css">
*{stroke-linecap:butt;stroke-linejoin:round;stroke-miterlimit:100000;}
  </style>
 </defs>
 <g id="figure_1">
  <g id="patch_1">
   <path d="M 0 408.16925 
L 525.823125 408.16925 
L 525.823125 0 
L 0 0 
z
" style="fill:#ffffff;"/>
  </g>
  <g id="axes_1">
   <g id="patch_2">
    <path d="M 56.953125 368.74175 
L 503.353125 368.74175 
L 503.353125 23.14175 
L 56.953125 23.14175 
z
" style="fill:#ffffff;"/>
   </g>
   <g id="line2d_1">
    <path clip-path="url(#pfe48fbdf56)" d="M 57.325125 310.327341 
L 57.697125 303.335142 
L 58.441125 308.646822 
L 58.813125 313.090159 
L 59.185125 311.687773 
L 59.929125 310.663419 
L 60.301125 310.004104 
L 60.673125 301.478634 
L 61.045125 307.821333 
L 61.417125 321.044259 
L 61.789125 309.288564 
L 62.161125 311.68562 
L 62.533125 319.798687 
L 62.905125 307.044931 
L 63.277125 311.409357 
L 63.649125 312.04436 
L 64.021125 306.591834 
L 64.393125 311.495847 
L 64.765125 308.981327 
L 65.137125 313.592173 
L 65.509125 309.953809 
L 65.881125 308.924255 
L 66.253125 310.198231 
L 66.625125 308.93901 
L 66.997125 312.441791 
L 67.741125 310.183514 
L 68.113125 321.960019 
L 68.485125 296.024209 
L 68.857125 308.683595 
L 69.229125 310.846946 
L 69.601125 309.356105 
L 69.973125 310.627628 
L 70.345125 300.184012 
L 70.717125 314.201366 
L 71.089125 310.287813 
L 71.461125 309.15411 
L 71.833125 309.357041 
L 72.205125 311.972013 
L 72.577125 307.78731 
L 72.949125 308.125213 
L 73.321125 305.132354 
L 73.693125 307.567145 
L 74.065125 297.542505 
L 74.437125 308.858476 
L 74.809125 323.896857 
L 75.181125 311.423286 
L 75.553125 308.022534 
L 75.925125 308.652316 
L 76.297125 316.033725 
L 76.669125 306.039737 
L 77.041125 316.079831 
L 77.413125 311.32103 
L 77.785125 316.242065 
L 78.157125 316.17792 
L 78.529125 309.679389 
L 78.901125 307.703374 
L 79.273125 311.973406 
L 79.645125 310.886153 
L 80.389125 306.001666 
L 80.761125 309.329124 
L 81.133125 311.241095 
L 81.505125 312.39777 
L 81.877125 309.019445 
L 82.249125 327.226688 
L 83.365125 305.060149 
L 83.737125 314.361877 
L 84.109125 308.718863 
L 84.481125 310.117989 
L 84.853125 317.453378 
L 85.225125 305.858615 
L 85.597125 307.622796 
L 85.969125 312.356883 
L 86.341125 313.846266 
L 86.713125 311.638131 
L 87.085125 312.267188 
L 87.457125 306.713366 
L 87.829125 314.273757 
L 88.201125 307.64055 
L 88.573125 305.973052 
L 88.945125 301.072253 
L 89.317125 312.48532 
L 89.689125 314.222443 
L 90.061125 302.386093 
L 90.433125 310.446062 
L 90.805125 308.847199 
L 91.177125 310.136193 
L 91.549125 310.338584 
L 91.921125 309.433179 
L 92.293125 322.946711 
L 92.665125 313.858921 
L 93.409125 304.894164 
L 93.781125 312.89659 
L 94.153125 312.193593 
L 94.525125 309.03094 
L 95.269125 313.464863 
L 95.641125 306.64864 
L 96.013125 305.238594 
L 96.385125 310.453708 
L 96.757125 309.889815 
L 97.129125 304.687963 
L 97.501125 313.154987 
L 97.873125 312.558031 
L 98.245125 290.660738 
L 98.617125 305.558815 
L 98.989125 303.949711 
L 99.361125 309.533989 
L 99.733125 311.387705 
L 100.105125 314.629415 
L 100.477125 320.257641 
L 101.221125 298.756486 
L 101.593125 300.875255 
L 101.965125 307.949847 
L 102.337125 311.344738 
L 102.709125 304.607321 
L 103.453125 313.680265 
L 103.825125 306.448686 
L 104.197125 302.36326 
L 104.569125 304.056108 
L 104.941125 312.747359 
L 105.313125 307.090884 
L 105.685125 304.837699 
L 106.429125 307.613171 
L 106.801125 313.52698 
L 107.173125 306.570171 
L 107.545125 308.760985 
L 107.917125 310.021176 
L 108.289125 317.545831 
L 108.661125 317.695031 
L 109.033125 307.576405 
L 109.405125 312.977662 
L 109.777125 311.819926 
L 110.149125 307.570864 
L 110.521125 311.640859 
L 110.893125 317.601898 
L 111.265125 310.032345 
L 111.637125 306.292042 
L 112.009125 289.921841 
L 112.381125 313.597642 
L 112.753125 302.024014 
L 113.125125 309.542875 
L 113.497125 310.861199 
L 113.869125 303.617033 
L 114.241125 301.927241 
L 114.985125 316.868237 
L 115.357125 308.606873 
L 115.729125 312.437881 
L 116.101125 308.023011 
L 116.473125 307.080133 
L 116.845125 311.248436 
L 117.217125 303.54511 
L 117.589125 302.705283 
L 117.961125 301.220461 
L 118.333125 313.482852 
L 118.705125 308.284637 
L 119.077125 304.720678 
L 119.449125 307.038038 
L 119.821125 308.597846 
L 120.193125 308.295864 
L 120.565125 312.949541 
L 120.937125 306.018431 
L 121.309125 310.214106 
L 121.681125 310.706328 
L 122.053125 305.037747 
L 122.425125 302.859455 
L 122.797125 312.00518 
L 123.169125 300.317126 
L 123.913125 307.392927 
L 124.285125 305.216101 
L 124.657125 304.607929 
L 125.029125 292.562465 
L 125.401125 290.544158 
L 125.773125 303.944404 
L 126.145125 303.441604 
L 126.517125 307.125796 
L 126.889125 304.44956 
L 127.261125 305.25527 
L 127.633125 302.633714 
L 128.005125 300.869339 
L 128.749125 305.986866 
L 129.121125 298.454596 
L 129.493125 312.771893 
L 129.865125 301.845402 
L 130.237125 294.875692 
L 130.981125 302.657043 
L 131.353125 294.560733 
L 131.725125 295.959093 
L 132.097125 300.928931 
L 132.469125 303.178622 
L 132.841125 300.351838 
L 133.213125 284.377331 
L 133.585125 295.345584 
L 133.957125 294.6305 
L 134.329125 287.189888 
L 134.701125 292.840181 
L 135.073125 301.806711 
L 135.445125 286.725229 
L 135.817125 293.713444 
L 136.189125 284.302728 
L 136.561125 294.901289 
L 136.933125 284.482949 
L 137.305125 286.690589 
L 137.677125 284.793655 
L 138.049125 296.339926 
L 138.421125 291.186533 
L 138.793125 289.877968 
L 139.537125 302.522721 
L 139.909125 285.658335 
L 140.281125 279.046408 
L 140.653125 296.909036 
L 141.025125 298.977423 
L 141.397125 276.668788 
L 141.769125 279.351594 
L 142.141125 283.40461 
L 142.513125 290.719684 
L 142.885125 287.20134 
L 143.257125 279.819531 
L 143.629125 274.846235 
L 144.373125 301.025491 
L 144.745125 280.251943 
L 145.117125 285.380311 
L 145.489125 280.55581 
L 145.861125 273.047923 
L 146.233125 297.522745 
L 146.605125 286.822191 
L 147.349125 297.885048 
L 147.721125 277.737747 
L 148.093125 297.881391 
L 148.465125 277.678112 
L 148.837125 283.457192 
L 149.209125 279.713929 
L 149.581125 292.35088 
L 149.953125 281.839428 
L 150.325125 284.946591 
L 150.697125 269.580357 
L 151.441125 292.009932 
L 151.813125 273.175809 
L 152.185125 287.112032 
L 152.557125 279.492492 
L 152.929125 285.673882 
L 153.301125 275.70601 
L 153.673125 293.878475 
L 154.045125 278.192014 
L 154.417125 278.350075 
L 154.789125 282.756512 
L 155.161125 282.423575 
L 155.533125 277.383929 
L 155.905125 267.86155 
L 156.277125 275.971867 
L 156.649125 273.127623 
L 157.021125 279.105236 
L 157.393125 277.196642 
L 157.765125 290.037019 
L 158.137125 273.341507 
L 158.509125 279.213738 
L 158.881125 272.641982 
L 159.253125 276.531826 
L 159.625125 270.176712 
L 159.997125 273.811542 
L 160.369125 279.610795 
L 160.741125 290.212708 
L 161.113125 268.765288 
L 161.485125 259.298663 
L 161.857125 280.446324 
L 162.229125 271.813501 
L 162.601125 281.128539 
L 162.973125 272.181777 
L 163.345125 286.776791 
L 163.717125 267.441672 
L 164.089125 267.181745 
L 164.461125 262.068993 
L 164.833125 269.305 
L 165.205125 286.065559 
L 165.949125 264.220219 
L 166.321125 270.660045 
L 166.693125 272.55797 
L 167.065125 266.38099 
L 167.437125 266.595273 
L 167.809125 273.918829 
L 168.181125 269.130465 
L 168.553125 272.942497 
L 168.925125 274.90218 
L 169.297125 260.012325 
L 170.041125 275.360491 
L 170.785125 268.944302 
L 171.157125 256.734847 
L 171.529125 262.943565 
L 171.901125 266.77822 
L 172.273125 262.205895 
L 172.645125 272.559228 
L 173.017125 263.002019 
L 173.389125 261.024532 
L 173.761125 266.780977 
L 174.133125 261.721427 
L 174.505125 272.781444 
L 174.877125 268.139391 
L 175.249125 261.068941 
L 175.621125 262.038433 
L 175.993125 276.779581 
L 176.365125 265.71151 
L 176.737125 269.123111 
L 177.109125 260.763561 
L 177.481125 260.291054 
L 177.853125 265.003477 
L 178.225125 267.763803 
L 178.597125 259.98566 
L 178.969125 258.91449 
L 179.341125 259.118363 
L 179.713125 259.544376 
L 180.085125 270.199377 
L 180.457125 265.234354 
L 180.829125 262.946118 
L 181.201125 268.619523 
L 181.573125 257.848037 
L 181.945125 261.37594 
L 182.317125 261.478459 
L 182.689125 260.766855 
L 183.061125 254.534859 
L 183.433125 264.935924 
L 183.805125 286.313002 
L 184.177125 266.25581 
L 184.549125 256.889604 
L 184.921125 269.971881 
L 185.293125 250.947284 
L 185.665125 260.653059 
L 186.037125 258.339865 
L 186.409125 256.775469 
L 186.781125 274.811547 
L 187.153125 272.983901 
L 187.897125 256.3376 
L 188.269125 268.649025 
L 188.641125 260.20892 
L 189.013125 254.701121 
L 189.385125 262.766709 
L 189.757125 253.367274 
L 190.129125 259.739198 
L 190.501125 259.917279 
L 190.873125 264.053795 
L 191.245125 253.23045 
L 191.617125 257.553343 
L 191.989125 271.135654 
L 192.361125 265.288485 
L 192.733125 265.4122 
L 193.105125 250.671121 
L 193.477125 260.152461 
L 193.849125 253.645708 
L 194.221125 264.120212 
L 194.593125 261.507234 
L 194.965125 257.576774 
L 195.337125 256.349734 
L 195.709125 253.339774 
L 196.081125 260.597144 
L 196.453125 251.281842 
L 197.197125 259.439035 
L 197.569125 257.964567 
L 197.941125 252.410761 
L 198.313125 257.119324 
L 199.057125 254.582623 
L 199.429125 263.081221 
L 199.801125 254.791551 
L 200.173125 258.707122 
L 200.545125 257.83341 
L 200.917125 257.926326 
L 201.289125 252.057019 
L 201.661125 262.071958 
L 202.033125 250.18088 
L 202.405125 255.535076 
L 202.777125 257.114246 
L 203.149125 250.924327 
L 203.521125 262.35379 
L 203.893125 257.42131 
L 204.265125 265.208948 
L 204.637125 263.764812 
L 205.009125 272.800083 
L 205.381125 262.19098 
L 205.753125 265.960033 
L 206.497125 253.746096 
L 206.869125 275.087367 
L 207.241125 257.265277 
L 207.613125 254.871235 
L 207.985125 258.062171 
L 208.357125 258.295535 
L 208.729125 259.09123 
L 209.101125 253.413506 
L 209.473125 250.352507 
L 209.845125 252.84778 
L 210.217125 251.459824 
L 210.589125 251.847766 
L 210.961125 256.589762 
L 211.333125 263.914027 
L 211.705125 264.009462 
L 212.077125 247.567301 
L 212.449125 262.033525 
L 212.821125 267.563954 
L 213.193125 248.413975 
L 213.565125 252.171975 
L 213.937125 257.94166 
L 214.309125 259.708961 
L 214.681125 250.464474 
L 215.053125 249.920357 
L 215.425125 261.807722 
L 215.797125 256.666833 
L 216.169125 257.681867 
L 216.541125 261.163335 
L 216.913125 257.864324 
L 217.285125 271.692901 
L 217.657125 250.386158 
L 218.029125 255.851027 
L 218.401125 252.174314 
L 218.773125 251.994057 
L 219.145125 253.826809 
L 219.517125 260.750468 
L 219.889125 255.858941 
L 220.261125 259.891096 
L 220.633125 277.779147 
L 221.005125 259.528151 
L 221.377125 249.700518 
L 221.749125 259.443892 
L 222.121125 249.694102 
L 222.493125 268.046194 
L 222.865125 273.918464 
L 223.237125 274.866352 
L 223.609125 251.386095 
L 223.981125 251.057977 
L 224.353125 254.992569 
L 225.097125 251.051951 
L 225.469125 261.016764 
L 225.841125 259.132606 
L 226.585125 250.727179 
L 226.957125 268.000403 
L 227.329125 250.324224 
L 228.073125 266.236709 
L 228.445125 252.019463 
L 228.817125 254.590341 
L 229.189125 275.985495 
L 229.561125 246.94543 
L 229.933125 249.25301 
L 230.305125 248.48956 
L 230.677125 260.465362 
L 231.049125 253.377702 
L 231.421125 249.830083 
L 231.793125 261.674943 
L 232.165125 243.915471 
L 232.537125 276.857602 
L 232.909125 246.432656 
L 233.281125 256.482569 
L 233.653125 243.467843 
L 234.025125 257.302526 
L 234.397125 254.610099 
L 234.769125 258.55171 
L 235.141125 264.362343 
L 235.513125 248.701296 
L 235.885125 248.169851 
L 236.257125 271.863305 
L 236.629125 253.771068 
L 237.001125 256.636984 
L 237.373125 243.2545 
L 237.745125 250.35424 
L 238.117125 241.310172 
L 238.489125 250.048841 
L 238.861125 239.157189 
L 239.233125 232.253381 
L 239.977125 248.742618 
L 240.349125 236.636079 
L 240.721125 252.371179 
L 241.465125 239.484786 
L 241.837125 251.870095 
L 242.209125 253.727362 
L 242.581125 233.188102 
L 242.953125 233.563111 
L 243.325125 252.870645 
L 243.697125 242.448351 
L 244.069125 242.630189 
L 244.441125 265.593409 
L 245.185125 227.406312 
L 245.557125 247.738591 
L 245.929125 248.125299 
L 246.301125 227.128642 
L 247.045125 254.262097 
L 247.417125 242.827671 
L 248.161125 234.634858 
L 248.533125 237.925144 
L 248.905125 234.66358 
L 249.277125 220.69595 
L 249.649125 218.062763 
L 250.021125 222.844588 
L 250.393125 220.224997 
L 250.765125 233.610834 
L 251.137125 232.588966 
L 251.509125 234.960549 
L 251.881125 234.375811 
L 252.253125 228.305739 
L 252.625125 231.31795 
L 253.369125 221.459779 
L 253.741125 234.211533 
L 254.857125 217.201217 
L 255.229125 226.030364 
L 255.601125 230.698603 
L 255.973125 233.10134 
L 256.345125 224.58125 
L 256.717125 233.622756 
L 257.089125 214.6848 
L 257.461125 228.566837 
L 257.833125 217.930793 
L 258.577125 233.270914 
L 258.949125 209.019615 
L 259.321125 208.191918 
L 259.693125 195.097151 
L 260.065125 198.144475 
L 260.437125 226.225208 
L 260.809125 213.57692 
L 261.181125 195.376366 
L 261.553125 196.578209 
L 261.925125 212.711598 
L 262.297125 189.504324 
L 262.669125 206.998857 
L 263.041125 196.36511 
L 263.413125 201.910953 
L 263.785125 190.071616 
L 264.157125 204.611533 
L 264.529125 195.792327 
L 264.901125 206.058201 
L 265.273125 206.522284 
L 265.645125 182.507045 
L 266.017125 184.876328 
L 266.389125 201.776804 
L 266.761125 263.175131 
L 267.133125 183.493442 
L 267.505125 175.448141 
L 267.877125 191.629478 
L 268.249125 186.877404 
L 268.993125 172.117757 
L 269.365125 170.501947 
L 269.737125 177.37922 
L 270.109125 194.158794 
L 270.481125 183.851833 
L 270.853125 187.605018 
L 271.597125 164.818229 
L 271.969125 180.559968 
L 272.341125 177.722677 
L 272.713125 177.438237 
L 273.085125 164.989658 
L 273.457125 187.054105 
L 273.829125 184.618733 
L 274.201125 161.531355 
L 274.573125 169.638565 
L 274.945125 169.597605 
L 275.317125 167.482807 
L 275.689125 162.0242 
L 276.061125 174.526238 
L 276.433125 182.920159 
L 276.805125 161.633712 
L 277.177125 168.810003 
L 277.549125 161.225025 
L 277.921125 186.76956 
L 278.293125 165.461434 
L 278.665125 201.959419 
L 279.037125 158.699098 
L 279.409125 161.805891 
L 279.781125 158.537811 
L 280.153125 159.963465 
L 280.525125 158.400226 
L 280.897125 152.959459 
L 281.269125 179.249298 
L 281.641125 168.639916 
L 282.013125 190.1488 
L 282.385125 155.869673 
L 282.757125 145.527221 
L 283.129125 160.350741 
L 283.501125 151.631808 
L 283.873125 153.444018 
L 284.245125 154.156481 
L 284.617125 153.601233 
L 284.989125 168.370475 
L 285.361125 157.571457 
L 285.733125 165.774028 
L 286.105125 158.827329 
L 286.477125 148.982607 
L 286.849125 144.922532 
L 287.221125 155.2808 
L 287.593125 141.163812 
L 287.965125 155.717061 
L 288.337125 135.485836 
L 288.709125 140.439155 
L 289.081125 136.928145 
L 289.453125 147.346205 
L 289.825125 129.704132 
L 290.197125 126.099207 
L 290.569125 141.666129 
L 290.941125 135.094916 
L 291.313125 142.480356 
L 291.685125 132.834791 
L 292.057125 119.511083 
L 292.429125 125.767423 
L 292.801125 129.662314 
L 293.545125 151.620718 
L 293.917125 137.627414 
L 294.289125 128.738277 
L 294.661125 136.876996 
L 295.405125 127.276276 
L 295.777125 132.375079 
L 296.149125 157.819456 
L 296.521125 144.311583 
L 296.893125 124.448925 
L 297.265125 128.251221 
L 297.637125 102.754572 
L 298.009125 123.333315 
L 298.381125 118.49263 
L 298.753125 127.626863 
L 299.125125 126.19293 
L 299.497125 116.849422 
L 299.869125 111.990953 
L 300.241125 98.189264 
L 300.613125 105.679594 
L 300.985125 136.651546 
L 301.357125 127.640293 
L 301.729125 107.619371 
L 302.101125 132.854888 
L 302.473125 119.856836 
L 302.845125 97.526049 
L 303.217125 126.001778 
L 303.589125 106.378559 
L 303.961125 97.72958 
L 304.705125 152.111296 
L 305.077125 115.622031 
L 305.449125 119.328821 
L 305.821125 107.221694 
L 306.193125 101.153498 
L 306.565125 115.08173 
L 307.309125 85.207667 
L 307.681125 128.482355 
L 308.053125 117.378931 
L 308.425125 117.441189 
L 308.797125 87.867822 
L 309.169125 124.407046 
L 309.541125 95.206846 
L 309.913125 78.209073 
L 310.285125 85.043147 
L 310.657125 130.11697 
L 311.029125 83.257278 
L 311.401125 109.041358 
L 311.773125 78.850561 
L 312.145125 87.470546 
L 312.517125 88.192106 
L 312.889125 88.570657 
L 313.261125 122.43456 
L 313.633125 80.013238 
L 314.005125 77.733964 
L 314.377125 84.386486 
L 314.749125 93.323384 
L 315.121125 110.92071 
L 315.493125 74.769984 
L 316.237125 98.50386 
L 316.609125 99.644647 
L 316.981125 94.809638 
L 317.725125 103.322617 
L 318.097125 62.189148 
L 318.469125 86.072237 
L 318.841125 97.139783 
L 319.213125 99.614102 
L 319.957125 108.552448 
L 320.329125 123.555707 
L 320.701125 123.649416 
L 321.073125 86.585083 
L 321.817125 77.89427 
L 322.189125 90.790029 
L 322.561125 87.615997 
L 322.933125 89.296085 
L 323.677125 124.069263 
L 324.049125 74.35541 
L 324.421125 100.35062 
L 324.793125 159.622814 
L 325.165125 74.075961 
L 325.537125 139.282577 
L 325.909125 82.955926 
L 326.281125 104.826388 
L 326.653125 79.322275 
L 327.025125 76.522577 
L 327.397125 90.356632 
L 327.769125 91.703693 
L 328.141125 102.755789 
L 328.513125 125.467665 
L 328.885125 106.545878 
L 329.629125 91.443168 
L 330.001125 106.642155 
L 330.373125 92.876337 
L 330.745125 106.181855 
L 331.117125 135.55314 
L 331.489125 90.005944 
L 331.861125 107.762341 
L 332.233125 85.873889 
L 332.977125 70.263125 
L 333.349125 75.390751 
L 333.721125 116.874634 
L 334.093125 104.504594 
L 334.465125 137.658564 
L 335.209125 84.502673 
L 335.581125 100.559852 
L 335.953125 101.58413 
L 336.325125 93.767033 
L 336.697125 120.078716 
L 337.069125 71.880858 
L 337.441125 100.368033 
L 337.813125 102.343375 
L 338.185125 79.622598 
L 338.557125 79.859194 
L 338.929125 122.937682 
L 339.301125 95.477496 
L 339.673125 88.622764 
L 340.045125 116.051472 
L 340.417125 76.197731 
L 340.789125 110.586511 
L 341.161125 89.187074 
L 341.905125 134.844401 
L 342.649125 72.25574 
L 343.021125 75.664648 
L 343.393125 75.538252 
L 343.765125 94.769486 
L 344.137125 80.582035 
L 344.881125 74.248848 
L 345.253125 82.376322 
L 345.625125 99.083643 
L 345.997125 135.263958 
L 346.369125 80.713041 
L 346.741125 92.608034 
L 347.113125 80.610139 
L 347.485125 107.635539 
L 347.857125 77.662905 
L 348.229125 111.987235 
L 348.601125 76.328756 
L 348.973125 124.526482 
L 349.345125 108.399036 
L 349.717125 79.78256 
L 350.089125 147.586377 
L 350.461125 82.91934 
L 350.833125 152.051294 
L 351.205125 94.994858 
L 351.577125 140.806247 
L 351.949125 166.260078 
L 352.321125 129.709984 
L 352.693125 124.805486 
L 353.065125 102.993489 
L 353.437125 91.623291 
L 353.809125 93.346005 
L 354.553125 120.479294 
L 354.925125 142.045814 
L 355.297125 82.534836 
L 355.669125 142.661807 
L 356.041125 146.741969 
L 356.413125 81.302386 
L 356.785125 145.210764 
L 357.529125 116.71548 
L 357.901125 108.556952 
L 358.273125 120.51243 
L 358.645125 139.108066 
L 359.017125 94.094457 
L 359.389125 100.710789 
L 359.761125 101.924457 
L 360.133125 106.548708 
L 360.505125 145.389389 
L 360.877125 85.347362 
L 361.249125 149.505652 
L 361.621125 132.200833 
L 361.993125 130.150279 
L 362.365125 91.731394 
L 362.737125 133.192923 
L 363.109125 85.981056 
L 363.481125 86.142406 
L 363.853125 93.630163 
L 364.225125 109.895127 
L 364.597125 82.438823 
L 364.969125 87.032168 
L 365.341125 86.346492 
L 365.713125 91.80678 
L 366.085125 101.599439 
L 366.457125 85.114572 
L 366.829125 82.428854 
L 367.201125 82.077927 
L 367.573125 108.700982 
L 367.945125 104.011953 
L 368.317125 95.372009 
L 368.689125 89.796775 
L 369.061125 123.142461 
L 369.433125 111.865817 
L 369.805125 125.900631 
L 370.177125 98.018827 
L 370.549125 86.370086 
L 370.921125 94.093902 
L 371.293125 122.628808 
L 371.665125 122.045726 
L 372.037125 81.556029 
L 372.409125 84.014362 
L 372.781125 88.611135 
L 373.153125 91.261728 
L 373.525125 132.155721 
L 373.897125 85.931683 
L 374.269125 99.806652 
L 374.641125 84.880843 
L 375.013125 105.12666 
L 375.385125 82.761676 
L 375.757125 117.142616 
L 376.129125 103.395338 
L 376.501125 83.758844 
L 376.873125 94.793809 
L 377.245125 121.266983 
L 377.617125 82.387114 
L 377.989125 124.135957 
L 378.361125 78.055395 
L 378.733125 84.353579 
L 379.105125 125.446473 
L 379.477125 90.519794 
L 379.849125 98.538111 
L 380.221125 92.981736 
L 380.593125 109.693441 
L 380.965125 93.487423 
L 381.337125 119.079699 
L 381.709125 97.949279 
L 382.081125 85.476972 
L 382.453125 77.94898 
L 382.825125 102.905933 
L 383.197125 81.821446 
L 383.569125 72.980959 
L 383.941125 103.598885 
L 384.313125 112.461749 
L 384.685125 105.703003 
L 385.057125 87.071612 
L 385.429125 84.418959 
L 385.801125 71.790977 
L 386.545125 72.033079 
L 386.917125 60.128994 
L 387.289125 69.212938 
L 387.661125 61.39702 
L 388.033125 91.601773 
L 388.405125 95.609197 
L 388.777125 73.986093 
L 389.149125 92.194437 
L 389.521125 84.841736 
L 390.265125 110.879351 
L 390.637125 76.349214 
L 391.009125 76.163831 
L 391.381125 105.018503 
L 391.753125 89.907563 
L 392.125125 80.824309 
L 392.497125 94.807984 
L 392.869125 97.389316 
L 393.241125 114.98269 
L 393.613125 103.230187 
L 393.985125 105.406982 
L 394.357125 70.551041 
L 394.729125 86.045188 
L 395.101125 95.22084 
L 395.473125 89.834185 
L 395.845125 63.566432 
L 396.217125 112.519365 
L 396.589125 79.708692 
L 396.961125 63.94234 
L 397.333125 87.031436 
L 397.705125 69.320294 
L 398.077125 97.917859 
L 398.449125 61.770035 
L 398.821125 73.791638 
L 399.193125 71.357209 
L 399.565125 83.169206 
L 399.937125 115.020472 
L 400.309125 77.750922 
L 400.681125 88.532777 
L 401.053125 70.059943 
L 401.425125 81.985304 
L 401.797125 73.550149 
L 402.169125 110.226231 
L 402.541125 59.905383 
L 403.285125 82.438145 
L 403.657125 73.684438 
L 404.029125 67.593644 
L 404.401125 73.187065 
L 404.773125 67.52648 
L 405.145125 84.643589 
L 405.517125 79.715854 
L 405.889125 64.087057 
L 406.261125 73.048084 
L 406.633125 90.998094 
L 407.005125 75.221527 
L 407.377125 99.654694 
L 407.749125 83.11658 
L 408.121125 73.527983 
L 408.493125 82.314496 
L 408.865125 102.430065 
L 409.237125 82.415963 
L 409.609125 72.139315 
L 409.981125 85.692913 
L 410.353125 71.118001 
L 410.725125 51.902089 
L 411.097125 83.3428 
L 411.469125 58.420675 
L 411.841125 105.431529 
L 412.213125 94.330498 
L 412.585125 77.817581 
L 412.957125 87.174877 
L 413.329125 47.727652 
L 413.701125 109.616877 
L 414.073125 70.732615 
L 414.445125 83.764072 
L 414.817125 56.630714 
L 415.189125 49.027868 
L 415.561125 60.521054 
L 415.933125 63.743677 
L 416.305125 59.897101 
L 416.677125 63.3706 
L 417.049125 89.129907 
L 417.421125 73.026689 
L 417.793125 109.470655 
L 418.165125 71.082289 
L 418.537125 80.217914 
L 418.909125 71.269542 
L 419.281125 58.124037 
L 419.653125 79.921922 
L 420.025125 60.373159 
L 420.397125 80.322708 
L 420.769125 59.734826 
L 421.141125 49.503247 
L 421.513125 72.721372 
L 421.885125 61.710178 
L 422.257125 70.810978 
L 422.629125 71.55785 
L 423.001125 45.236868 
L 423.373125 58.979119 
L 423.745125 82.657898 
L 424.117125 55.615851 
L 424.489125 64.728723 
L 424.861125 69.953247 
L 425.233125 95.097843 
L 425.605125 73.011581 
L 425.977125 66.786281 
L 426.349125 82.325672 
L 426.721125 60.798982 
L 427.093125 59.28345 
L 427.465125 61.654223 
L 427.837125 85.572114 
L 428.209125 98.994331 
L 428.953125 50.838514 
L 429.325125 68.829986 
L 429.697125 72.241039 
L 430.069125 83.746444 
L 430.441125 64.641452 
L 430.813125 83.000389 
L 431.185125 83.63794 
L 431.557125 64.09355 
L 431.929125 89.593741 
L 432.301125 50.987892 
L 432.673125 66.809393 
L 433.417125 54.934388 
L 433.789125 76.630437 
L 434.161125 41.13339 
L 434.533125 55.508709 
L 434.905125 61.968855 
L 435.277125 43.991084 
L 435.649125 57.749197 
L 436.021125 61.247157 
L 436.393125 48.543119 
L 436.765125 49.055022 
L 437.137125 71.35633 
L 437.509125 43.6969 
L 437.881125 73.34349 
L 438.253125 51.11814 
L 438.997125 42.772336 
L 439.369125 47.619258 
L 439.741125 58.344954 
L 440.485125 37.934992 
L 440.857125 44.074567 
L 441.229125 52.731377 
L 441.601125 44.575491 
L 441.973125 79.932066 
L 442.345125 51.258006 
L 442.717125 54.241731 
L 443.089125 41.92466 
L 443.461125 79.913644 
L 443.833125 73.401281 
L 444.205125 35.747526 
L 444.577125 57.742786 
L 444.949125 40.682459 
L 445.321125 42.833394 
L 445.693125 66.367491 
L 446.065125 43.696886 
L 446.437125 72.709327 
L 446.809125 49.806996 
L 447.181125 42.575521 
L 447.553125 57.567037 
L 447.925125 54.221736 
L 448.297125 52.521348 
L 448.669125 49.856937 
L 449.041125 55.944103 
L 449.413125 53.23221 
L 449.785125 36.904003 
L 450.157125 72.374564 
L 450.529125 55.113553 
L 450.901125 46.513889 
L 451.273125 64.300843 
L 451.645125 40.213026 
L 452.017125 70.749559 
L 452.389125 51.560013 
L 453.133125 38.296809 
L 453.505125 70.322295 
L 453.877125 68.207432 
L 454.249125 58.790124 
L 454.621125 42.93982 
L 454.993125 33.923447 
L 455.365125 32.359008 
L 455.737125 39.838177 
L 456.109125 87.814995 
L 456.481125 73.963602 
L 456.853125 47.717292 
L 457.225125 57.746005 
L 457.597125 62.001328 
L 457.969125 49.069487 
L 458.341125 53.241134 
L 458.713125 70.845119 
L 459.085125 64.693588 
L 459.457125 76.95592 
L 459.829125 47.801598 
L 460.201125 39.177167 
L 460.573125 44.630776 
L 460.945125 39.156038 
L 461.317125 44.145708 
L 461.689125 72.992292 
L 462.061125 33.734638 
L 462.433125 46.875186 
L 462.805125 48.700599 
L 463.177125 64.705884 
L 463.549125 54.678826 
L 463.921125 51.18989 
L 464.293125 43.487231 
L 464.665125 60.247319 
L 465.037125 50.507237 
L 465.409125 29.829109 
L 465.781125 53.55515 
L 466.153125 49.460404 
L 466.525125 67.02357 
L 466.897125 55.861258 
L 467.269125 53.153471 
L 467.641125 41.021478 
L 468.013125 62.685571 
L 468.385125 60.984421 
L 468.757125 33.495282 
L 469.129125 42.987824 
L 469.501125 79.145795 
L 469.873125 60.108244 
L 469.873125 60.108244 
" style="fill:none;stroke:#0000ff;stroke-linecap:square;stroke-width:0.5;"/>
   </g>
   <g id="patch_3">
    <path d="M 56.953125 368.74175 
L 56.953125 23.14175 
" style="fill:none;stroke:#000000;stroke-linecap:square;stroke-linejoin:miter;"/>
   </g>
   <g id="patch_4">
    <path d="M 503.353125 368.74175 
L 503.353125 23.14175 
" style="fill:none;stroke:#000000;stroke-linecap:square;stroke-linejoin:miter;"/>
   </g>
   <g id="patch_5">
    <path d="M 56.953125 368.74175 
L 503.353125 368.74175 
" style="fill:none;stroke:#000000;stroke-linecap:square;stroke-linejoin:miter;"/>
   </g>
   <g id="patch_6">
    <path d="M 56.953125 23.14175 
L 503.353125 23.14175 
" style="fill:none;stroke:#000000;stroke-linecap:square;stroke-linejoin:miter;"/>
   </g>
   <g id="matplotlib.axis_1">
    <g id="xtick_1">
     <g id="line2d_2">
      <defs>
       <path d="M 0 0 
L 0 -4 
" id="mc560eac3e4" style="stroke:#000000;stroke-width:0.5;"/>
      </defs>
      <g>
       <use style="stroke:#000000;stroke-width:0.5;" x="56.953125" xlink:href="#mc560eac3e4" y="368.74175"/>
      </g>
     </g>
     <g id="line2d_3">
      <defs>
       <path d="M 0 0 
L 0 4 
" id="md9006ebba7" style="stroke:#000000;stroke-width:0.5;"/>
      </defs>
      <g>
       <use style="stroke:#000000;stroke-width:0.5;" x="56.953125" xlink:href="#md9006ebba7" y="23.14175"/>
      </g>
     </g>
     <g id="text_1">
      <!-- 0 -->
      <defs>
       <path d="M 31.78125 66.40625 
Q 24.171875 66.40625 20.328125 58.90625 
Q 16.5 51.421875 16.5 36.375 
Q 16.5 21.390625 20.328125 13.890625 
Q 24.171875 6.390625 31.78125 6.390625 
Q 39.453125 6.390625 43.28125 13.890625 
Q 47.125 21.390625 47.125 36.375 
Q 47.125 51.421875 43.28125 58.90625 
Q 39.453125 66.40625 31.78125 66.40625 
M 31.78125 74.21875 
Q 44.046875 74.21875 50.515625 64.515625 
Q 56.984375 54.828125 56.984375 36.375 
Q 56.984375 17.96875 50.515625 8.265625 
Q 44.046875 -1.421875 31.78125 -1.421875 
Q 19.53125 -1.421875 13.0625 8.265625 
Q 6.59375 17.96875 6.59375 36.375 
Q 6.59375 54.828125 13.0625 64.515625 
Q 19.53125 74.21875 31.78125 74.21875 
" id="BitstreamVeraSans-Roman-30"/>
      </defs>
      <g transform="translate(53.135625 381.859875)scale(0.12 -0.12)">
       <use xlink:href="#BitstreamVeraSans-Roman-30"/>
      </g>
     </g>
    </g>
    <g id="xtick_2">
     <g id="line2d_4">
      <g>
       <use style="stroke:#000000;stroke-width:0.5;" x="131.353125" xlink:href="#mc560eac3e4" y="368.74175"/>
      </g>
     </g>
     <g id="line2d_5">
      <g>
       <use style="stroke:#000000;stroke-width:0.5;" x="131.353125" xlink:href="#md9006ebba7" y="23.14175"/>
      </g>
     </g>
     <g id="text_2">
      <!-- 200 -->
      <defs>
       <path d="M 19.1875 8.296875 
L 53.609375 8.296875 
L 53.609375 0 
L 7.328125 0 
L 7.328125 8.296875 
Q 12.9375 14.109375 22.625 23.890625 
Q 32.328125 33.6875 34.8125 36.53125 
Q 39.546875 41.84375 41.421875 45.53125 
Q 43.3125 49.21875 43.3125 52.78125 
Q 43.3125 58.59375 39.234375 62.25 
Q 35.15625 65.921875 28.609375 65.921875 
Q 23.96875 65.921875 18.8125 64.3125 
Q 13.671875 62.703125 7.8125 59.421875 
L 7.8125 69.390625 
Q 13.765625 71.78125 18.9375 73 
Q 24.125 74.21875 28.421875 74.21875 
Q 39.75 74.21875 46.484375 68.546875 
Q 53.21875 62.890625 53.21875 53.421875 
Q 53.21875 48.921875 51.53125 44.890625 
Q 49.859375 40.875 45.40625 35.40625 
Q 44.1875 33.984375 37.640625 27.21875 
Q 31.109375 20.453125 19.1875 8.296875 
" id="BitstreamVeraSans-Roman-32"/>
      </defs>
      <g transform="translate(119.900625 381.859875)scale(0.12 -0.12)">
       <use xlink:href="#BitstreamVeraSans-Roman-32"/>
       <use x="63.623046875" xlink:href="#BitstreamVeraSans-Roman-30"/>
       <use x="127.24609375" xlink:href="#BitstreamVeraSans-Roman-30"/>
      </g>
     </g>
    </g>
    <g id="xtick_3">
     <g id="line2d_6">
      <g>
       <use style="stroke:#000000;stroke-width:0.5;" x="205.753125" xlink:href="#mc560eac3e4" y="368.74175"/>
      </g>
     </g>
     <g id="line2d_7">
      <g>
       <use style="stroke:#000000;stroke-width:0.5;" x="205.753125" xlink:href="#md9006ebba7" y="23.14175"/>
      </g>
     </g>
     <g id="text_3">
      <!-- 400 -->
      <defs>
       <path d="M 37.796875 64.3125 
L 12.890625 25.390625 
L 37.796875 25.390625 
z
M 35.203125 72.90625 
L 47.609375 72.90625 
L 47.609375 25.390625 
L 58.015625 25.390625 
L 58.015625 17.1875 
L 47.609375 17.1875 
L 47.609375 0 
L 37.796875 0 
L 37.796875 17.1875 
L 4.890625 17.1875 
L 4.890625 26.703125 
z
" id="BitstreamVeraSans-Roman-34"/>
      </defs>
      <g transform="translate(194.300625 381.859875)scale(0.12 -0.12)">
       <use xlink:href="#BitstreamVeraSans-Roman-34"/>
       <use x="63.623046875" xlink:href="#BitstreamVeraSans-Roman-30"/>
       <use x="127.24609375" xlink:href="#BitstreamVeraSans-Roman-30"/>
      </g>
     </g>
    </g>
    <g id="xtick_4">
     <g id="line2d_8">
      <g>
       <use style="stroke:#000000;stroke-width:0.5;" x="280.153125" xlink:href="#mc560eac3e4" y="368.74175"/>
      </g>
     </g>
     <g id="line2d_9">
      <g>
       <use style="stroke:#000000;stroke-width:0.5;" x="280.153125" xlink:href="#md9006ebba7" y="23.14175"/>
      </g>
     </g>
     <g id="text_4">
      <!-- 600 -->
      <defs>
       <path d="M 33.015625 40.375 
Q 26.375 40.375 22.484375 35.828125 
Q 18.609375 31.296875 18.609375 23.390625 
Q 18.609375 15.53125 22.484375 10.953125 
Q 26.375 6.390625 33.015625 6.390625 
Q 39.65625 6.390625 43.53125 10.953125 
Q 47.40625 15.53125 47.40625 23.390625 
Q 47.40625 31.296875 43.53125 35.828125 
Q 39.65625 40.375 33.015625 40.375 
M 52.59375 71.296875 
L 52.59375 62.3125 
Q 48.875 64.0625 45.09375 64.984375 
Q 41.3125 65.921875 37.59375 65.921875 
Q 27.828125 65.921875 22.671875 59.328125 
Q 17.53125 52.734375 16.796875 39.40625 
Q 19.671875 43.65625 24.015625 45.921875 
Q 28.375 48.1875 33.59375 48.1875 
Q 44.578125 48.1875 50.953125 41.515625 
Q 57.328125 34.859375 57.328125 23.390625 
Q 57.328125 12.15625 50.6875 5.359375 
Q 44.046875 -1.421875 33.015625 -1.421875 
Q 20.359375 -1.421875 13.671875 8.265625 
Q 6.984375 17.96875 6.984375 36.375 
Q 6.984375 53.65625 15.1875 63.9375 
Q 23.390625 74.21875 37.203125 74.21875 
Q 40.921875 74.21875 44.703125 73.484375 
Q 48.484375 72.75 52.59375 71.296875 
" id="BitstreamVeraSans-Roman-36"/>
      </defs>
      <g transform="translate(268.700625 381.859875)scale(0.12 -0.12)">
       <use xlink:href="#BitstreamVeraSans-Roman-36"/>
       <use x="63.623046875" xlink:href="#BitstreamVeraSans-Roman-30"/>
       <use x="127.24609375" xlink:href="#BitstreamVeraSans-Roman-30"/>
      </g>
     </g>
    </g>
    <g id="xtick_5">
     <g id="line2d_10">
      <g>
       <use style="stroke:#000000;stroke-width:0.5;" x="354.553125" xlink:href="#mc560eac3e4" y="368.74175"/>
      </g>
     </g>
     <g id="line2d_11">
      <g>
       <use style="stroke:#000000;stroke-width:0.5;" x="354.553125" xlink:href="#md9006ebba7" y="23.14175"/>
      </g>
     </g>
     <g id="text_5">
      <!-- 800 -->
      <defs>
       <path d="M 31.78125 34.625 
Q 24.75 34.625 20.71875 30.859375 
Q 16.703125 27.09375 16.703125 20.515625 
Q 16.703125 13.921875 20.71875 10.15625 
Q 24.75 6.390625 31.78125 6.390625 
Q 38.8125 6.390625 42.859375 10.171875 
Q 46.921875 13.96875 46.921875 20.515625 
Q 46.921875 27.09375 42.890625 30.859375 
Q 38.875 34.625 31.78125 34.625 
M 21.921875 38.8125 
Q 15.578125 40.375 12.03125 44.71875 
Q 8.5 49.078125 8.5 55.328125 
Q 8.5 64.0625 14.71875 69.140625 
Q 20.953125 74.21875 31.78125 74.21875 
Q 42.671875 74.21875 48.875 69.140625 
Q 55.078125 64.0625 55.078125 55.328125 
Q 55.078125 49.078125 51.53125 44.71875 
Q 48 40.375 41.703125 38.8125 
Q 48.828125 37.15625 52.796875 32.3125 
Q 56.78125 27.484375 56.78125 20.515625 
Q 56.78125 9.90625 50.3125 4.234375 
Q 43.84375 -1.421875 31.78125 -1.421875 
Q 19.734375 -1.421875 13.25 4.234375 
Q 6.78125 9.90625 6.78125 20.515625 
Q 6.78125 27.484375 10.78125 32.3125 
Q 14.796875 37.15625 21.921875 38.8125 
M 18.3125 54.390625 
Q 18.3125 48.734375 21.84375 45.5625 
Q 25.390625 42.390625 31.78125 42.390625 
Q 38.140625 42.390625 41.71875 45.5625 
Q 45.3125 48.734375 45.3125 54.390625 
Q 45.3125 60.0625 41.71875 63.234375 
Q 38.140625 66.40625 31.78125 66.40625 
Q 25.390625 66.40625 21.84375 63.234375 
Q 18.3125 60.0625 18.3125 54.390625 
" id="BitstreamVeraSans-Roman-38"/>
      </defs>
      <g transform="translate(343.100625 381.859875)scale(0.12 -0.12)">
       <use xlink:href="#BitstreamVeraSans-Roman-38"/>
       <use x="63.623046875" xlink:href="#BitstreamVeraSans-Roman-30"/>
       <use x="127.24609375" xlink:href="#BitstreamVeraSans-Roman-30"/>
      </g>
     </g>
    </g>
    <g id="xtick_6">
     <g id="line2d_12">
      <g>
       <use style="stroke:#000000;stroke-width:0.5;" x="428.953125" xlink:href="#mc560eac3e4" y="368.74175"/>
      </g>
     </g>
     <g id="line2d_13">
      <g>
       <use style="stroke:#000000;stroke-width:0.5;" x="428.953125" xlink:href="#md9006ebba7" y="23.14175"/>
      </g>
     </g>
     <g id="text_6">
      <!-- 1000 -->
      <defs>
       <path d="M 12.40625 8.296875 
L 28.515625 8.296875 
L 28.515625 63.921875 
L 10.984375 60.40625 
L 10.984375 69.390625 
L 28.421875 72.90625 
L 38.28125 72.90625 
L 38.28125 8.296875 
L 54.390625 8.296875 
L 54.390625 0 
L 12.40625 0 
z
" id="BitstreamVeraSans-Roman-31"/>
      </defs>
      <g transform="translate(413.683125 381.859875)scale(0.12 -0.12)">
       <use xlink:href="#BitstreamVeraSans-Roman-31"/>
       <use x="63.623046875" xlink:href="#BitstreamVeraSans-Roman-30"/>
       <use x="127.24609375" xlink:href="#BitstreamVeraSans-Roman-30"/>
       <use x="190.869140625" xlink:href="#BitstreamVeraSans-Roman-30"/>
      </g>
     </g>
    </g>
    <g id="xtick_7">
     <g id="line2d_14">
      <g>
       <use style="stroke:#000000;stroke-width:0.5;" x="503.353125" xlink:href="#mc560eac3e4" y="368.74175"/>
      </g>
     </g>
     <g id="line2d_15">
      <g>
       <use style="stroke:#000000;stroke-width:0.5;" x="503.353125" xlink:href="#md9006ebba7" y="23.14175"/>
      </g>
     </g>
     <g id="text_7">
      <!-- 1200 -->
      <g transform="translate(488.083125 381.859875)scale(0.12 -0.12)">
       <use xlink:href="#BitstreamVeraSans-Roman-31"/>
       <use x="63.623046875" xlink:href="#BitstreamVeraSans-Roman-32"/>
       <use x="127.24609375" xlink:href="#BitstreamVeraSans-Roman-30"/>
       <use x="190.869140625" xlink:href="#BitstreamVeraSans-Roman-30"/>
      </g>
     </g>
    </g>
    <g id="text_8">
     <!-- episodes -->
     <defs>
      <path d="M 9.421875 54.6875 
L 18.40625 54.6875 
L 18.40625 0 
L 9.421875 0 
z
M 9.421875 75.984375 
L 18.40625 75.984375 
L 18.40625 64.59375 
L 9.421875 64.59375 
z
" id="BitstreamVeraSans-Roman-69"/>
      <path d="M 44.28125 53.078125 
L 44.28125 44.578125 
Q 40.484375 46.53125 36.375 47.5 
Q 32.28125 48.484375 27.875 48.484375 
Q 21.1875 48.484375 17.84375 46.4375 
Q 14.5 44.390625 14.5 40.28125 
Q 14.5 37.15625 16.890625 35.375 
Q 19.28125 33.59375 26.515625 31.984375 
L 29.59375 31.296875 
Q 39.15625 29.25 43.1875 25.515625 
Q 47.21875 21.78125 47.21875 15.09375 
Q 47.21875 7.46875 41.1875 3.015625 
Q 35.15625 -1.421875 24.609375 -1.421875 
Q 20.21875 -1.421875 15.453125 -0.5625 
Q 10.6875 0.296875 5.421875 2 
L 5.421875 11.28125 
Q 10.40625 8.6875 15.234375 7.390625 
Q 20.0625 6.109375 24.8125 6.109375 
Q 31.15625 6.109375 34.5625 8.28125 
Q 37.984375 10.453125 37.984375 14.40625 
Q 37.984375 18.0625 35.515625 20.015625 
Q 33.0625 21.96875 24.703125 23.78125 
L 21.578125 24.515625 
Q 13.234375 26.265625 9.515625 29.90625 
Q 5.8125 33.546875 5.8125 39.890625 
Q 5.8125 47.609375 11.28125 51.796875 
Q 16.75 56 26.8125 56 
Q 31.78125 56 36.171875 55.265625 
Q 40.578125 54.546875 44.28125 53.078125 
" id="BitstreamVeraSans-Roman-73"/>
      <path d="M 18.109375 8.203125 
L 18.109375 -20.796875 
L 9.078125 -20.796875 
L 9.078125 54.6875 
L 18.109375 54.6875 
L 18.109375 46.390625 
Q 20.953125 51.265625 25.265625 53.625 
Q 29.59375 56 35.59375 56 
Q 45.5625 56 51.78125 48.09375 
Q 58.015625 40.1875 58.015625 27.296875 
Q 58.015625 14.40625 51.78125 6.484375 
Q 45.5625 -1.421875 35.59375 -1.421875 
Q 29.59375 -1.421875 25.265625 0.953125 
Q 20.953125 3.328125 18.109375 8.203125 
M 48.6875 27.296875 
Q 48.6875 37.203125 44.609375 42.84375 
Q 40.53125 48.484375 33.40625 48.484375 
Q 26.265625 48.484375 22.1875 42.84375 
Q 18.109375 37.203125 18.109375 27.296875 
Q 18.109375 17.390625 22.1875 11.75 
Q 26.265625 6.109375 33.40625 6.109375 
Q 40.53125 6.109375 44.609375 11.75 
Q 48.6875 17.390625 48.6875 27.296875 
" id="BitstreamVeraSans-Roman-70"/>
      <path d="M 30.609375 48.390625 
Q 23.390625 48.390625 19.1875 42.75 
Q 14.984375 37.109375 14.984375 27.296875 
Q 14.984375 17.484375 19.15625 11.84375 
Q 23.34375 6.203125 30.609375 6.203125 
Q 37.796875 6.203125 41.984375 11.859375 
Q 46.1875 17.53125 46.1875 27.296875 
Q 46.1875 37.015625 41.984375 42.703125 
Q 37.796875 48.390625 30.609375 48.390625 
M 30.609375 56 
Q 42.328125 56 49.015625 48.375 
Q 55.71875 40.765625 55.71875 27.296875 
Q 55.71875 13.875 49.015625 6.21875 
Q 42.328125 -1.421875 30.609375 -1.421875 
Q 18.84375 -1.421875 12.171875 6.21875 
Q 5.515625 13.875 5.515625 27.296875 
Q 5.515625 40.765625 12.171875 48.375 
Q 18.84375 56 30.609375 56 
" id="BitstreamVeraSans-Roman-6f"/>
      <path d="M 56.203125 29.59375 
L 56.203125 25.203125 
L 14.890625 25.203125 
Q 15.484375 15.921875 20.484375 11.0625 
Q 25.484375 6.203125 34.421875 6.203125 
Q 39.59375 6.203125 44.453125 7.46875 
Q 49.3125 8.734375 54.109375 11.28125 
L 54.109375 2.78125 
Q 49.265625 0.734375 44.1875 -0.34375 
Q 39.109375 -1.421875 33.890625 -1.421875 
Q 20.796875 -1.421875 13.15625 6.1875 
Q 5.515625 13.8125 5.515625 26.8125 
Q 5.515625 40.234375 12.765625 48.109375 
Q 20.015625 56 32.328125 56 
Q 43.359375 56 49.78125 48.890625 
Q 56.203125 41.796875 56.203125 29.59375 
M 47.21875 32.234375 
Q 47.125 39.59375 43.09375 43.984375 
Q 39.0625 48.390625 32.421875 48.390625 
Q 24.90625 48.390625 20.390625 44.140625 
Q 15.875 39.890625 15.1875 32.171875 
z
" id="BitstreamVeraSans-Roman-65"/>
      <path d="M 45.40625 46.390625 
L 45.40625 75.984375 
L 54.390625 75.984375 
L 54.390625 0 
L 45.40625 0 
L 45.40625 8.203125 
Q 42.578125 3.328125 38.25 0.953125 
Q 33.9375 -1.421875 27.875 -1.421875 
Q 17.96875 -1.421875 11.734375 6.484375 
Q 5.515625 14.40625 5.515625 27.296875 
Q 5.515625 40.1875 11.734375 48.09375 
Q 17.96875 56 27.875 56 
Q 33.9375 56 38.25 53.625 
Q 42.578125 51.265625 45.40625 46.390625 
M 14.796875 27.296875 
Q 14.796875 17.390625 18.875 11.75 
Q 22.953125 6.109375 30.078125 6.109375 
Q 37.203125 6.109375 41.296875 11.75 
Q 45.40625 17.390625 45.40625 27.296875 
Q 45.40625 37.203125 41.296875 42.84375 
Q 37.203125 48.484375 30.078125 48.484375 
Q 22.953125 48.484375 18.875 42.84375 
Q 14.796875 37.203125 14.796875 27.296875 
" id="BitstreamVeraSans-Roman-64"/>
     </defs>
     <g transform="translate(253.561875 398.473625)scale(0.12 -0.12)">
      <use xlink:href="#BitstreamVeraSans-Roman-65"/>
      <use x="61.5234375" xlink:href="#BitstreamVeraSans-Roman-70"/>
      <use x="125.0" xlink:href="#BitstreamVeraSans-Roman-69"/>
      <use x="152.783203125" xlink:href="#BitstreamVeraSans-Roman-73"/>
      <use x="204.8828125" xlink:href="#BitstreamVeraSans-Roman-6f"/>
      <use x="266.064453125" xlink:href="#BitstreamVeraSans-Roman-64"/>
      <use x="329.541015625" xlink:href="#BitstreamVeraSans-Roman-65"/>
      <use x="391.064453125" xlink:href="#BitstreamVeraSans-Roman-73"/>
     </g>
    </g>
   </g>
   <g id="matplotlib.axis_2">
    <g id="ytick_1">
     <g id="line2d_16">
      <defs>
       <path d="M 0 0 
L 4 0 
" id="md05a023f31" style="stroke:#000000;stroke-width:0.5;"/>
      </defs>
      <g>
       <use style="stroke:#000000;stroke-width:0.5;" x="56.953125" xlink:href="#md05a023f31" y="368.74175"/>
      </g>
     </g>
     <g id="line2d_17">
      <defs>
       <path d="M 0 0 
L -4 0 
" id="mf84760e669" style="stroke:#000000;stroke-width:0.5;"/>
      </defs>
      <g>
       <use style="stroke:#000000;stroke-width:0.5;" x="503.353125" xlink:href="#mf84760e669" y="368.74175"/>
      </g>
     </g>
     <g id="text_9">
      <!-- −0.2 -->
      <defs>
       <path d="M 10.59375 35.5 
L 73.1875 35.5 
L 73.1875 27.203125 
L 10.59375 27.203125 
z
" id="BitstreamVeraSans-Roman-2212"/>
       <path d="M 10.6875 12.40625 
L 21 12.40625 
L 21 0 
L 10.6875 0 
z
" id="BitstreamVeraSans-Roman-2e"/>
      </defs>
      <g transform="translate(23.81375 372.053)scale(0.12 -0.12)">
       <use xlink:href="#BitstreamVeraSans-Roman-2212"/>
       <use x="83.7890625" xlink:href="#BitstreamVeraSans-Roman-30"/>
       <use x="147.412109375" xlink:href="#BitstreamVeraSans-Roman-2e"/>
       <use x="179.19921875" xlink:href="#BitstreamVeraSans-Roman-32"/>
      </g>
     </g>
    </g>
    <g id="ytick_2">
     <g id="line2d_18">
      <g>
       <use style="stroke:#000000;stroke-width:0.5;" x="56.953125" xlink:href="#md05a023f31" y="325.54175"/>
      </g>
     </g>
     <g id="line2d_19">
      <g>
       <use style="stroke:#000000;stroke-width:0.5;" x="503.353125" xlink:href="#mf84760e669" y="325.54175"/>
      </g>
     </g>
     <g id="text_10">
      <!-- 0.0 -->
      <g transform="translate(33.869375 328.853)scale(0.12 -0.12)">
       <use xlink:href="#BitstreamVeraSans-Roman-30"/>
       <use x="63.623046875" xlink:href="#BitstreamVeraSans-Roman-2e"/>
       <use x="95.41015625" xlink:href="#BitstreamVeraSans-Roman-30"/>
      </g>
     </g>
    </g>
    <g id="ytick_3">
     <g id="line2d_20">
      <g>
       <use style="stroke:#000000;stroke-width:0.5;" x="56.953125" xlink:href="#md05a023f31" y="282.34175"/>
      </g>
     </g>
     <g id="line2d_21">
      <g>
       <use style="stroke:#000000;stroke-width:0.5;" x="503.353125" xlink:href="#mf84760e669" y="282.34175"/>
      </g>
     </g>
     <g id="text_11">
      <!-- 0.2 -->
      <g transform="translate(33.869375 285.653)scale(0.12 -0.12)">
       <use xlink:href="#BitstreamVeraSans-Roman-30"/>
       <use x="63.623046875" xlink:href="#BitstreamVeraSans-Roman-2e"/>
       <use x="95.41015625" xlink:href="#BitstreamVeraSans-Roman-32"/>
      </g>
     </g>
    </g>
    <g id="ytick_4">
     <g id="line2d_22">
      <g>
       <use style="stroke:#000000;stroke-width:0.5;" x="56.953125" xlink:href="#md05a023f31" y="239.14175"/>
      </g>
     </g>
     <g id="line2d_23">
      <g>
       <use style="stroke:#000000;stroke-width:0.5;" x="503.353125" xlink:href="#mf84760e669" y="239.14175"/>
      </g>
     </g>
     <g id="text_12">
      <!-- 0.4 -->
      <g transform="translate(33.869375 242.453)scale(0.12 -0.12)">
       <use xlink:href="#BitstreamVeraSans-Roman-30"/>
       <use x="63.623046875" xlink:href="#BitstreamVeraSans-Roman-2e"/>
       <use x="95.41015625" xlink:href="#BitstreamVeraSans-Roman-34"/>
      </g>
     </g>
    </g>
    <g id="ytick_5">
     <g id="line2d_24">
      <g>
       <use style="stroke:#000000;stroke-width:0.5;" x="56.953125" xlink:href="#md05a023f31" y="195.94175"/>
      </g>
     </g>
     <g id="line2d_25">
      <g>
       <use style="stroke:#000000;stroke-width:0.5;" x="503.353125" xlink:href="#mf84760e669" y="195.94175"/>
      </g>
     </g>
     <g id="text_13">
      <!-- 0.6 -->
      <g transform="translate(33.869375 199.253)scale(0.12 -0.12)">
       <use xlink:href="#BitstreamVeraSans-Roman-30"/>
       <use x="63.623046875" xlink:href="#BitstreamVeraSans-Roman-2e"/>
       <use x="95.41015625" xlink:href="#BitstreamVeraSans-Roman-36"/>
      </g>
     </g>
    </g>
    <g id="ytick_6">
     <g id="line2d_26">
      <g>
       <use style="stroke:#000000;stroke-width:0.5;" x="56.953125" xlink:href="#md05a023f31" y="152.74175"/>
      </g>
     </g>
     <g id="line2d_27">
      <g>
       <use style="stroke:#000000;stroke-width:0.5;" x="503.353125" xlink:href="#mf84760e669" y="152.74175"/>
      </g>
     </g>
     <g id="text_14">
      <!-- 0.8 -->
      <g transform="translate(33.869375 156.053)scale(0.12 -0.12)">
       <use xlink:href="#BitstreamVeraSans-Roman-30"/>
       <use x="63.623046875" xlink:href="#BitstreamVeraSans-Roman-2e"/>
       <use x="95.41015625" xlink:href="#BitstreamVeraSans-Roman-38"/>
      </g>
     </g>
    </g>
    <g id="ytick_7">
     <g id="line2d_28">
      <g>
       <use style="stroke:#000000;stroke-width:0.5;" x="56.953125" xlink:href="#md05a023f31" y="109.54175"/>
      </g>
     </g>
     <g id="line2d_29">
      <g>
       <use style="stroke:#000000;stroke-width:0.5;" x="503.353125" xlink:href="#mf84760e669" y="109.54175"/>
      </g>
     </g>
     <g id="text_15">
      <!-- 1.0 -->
      <g transform="translate(33.869375 112.853)scale(0.12 -0.12)">
       <use xlink:href="#BitstreamVeraSans-Roman-31"/>
       <use x="63.623046875" xlink:href="#BitstreamVeraSans-Roman-2e"/>
       <use x="95.41015625" xlink:href="#BitstreamVeraSans-Roman-30"/>
      </g>
     </g>
    </g>
    <g id="ytick_8">
     <g id="line2d_30">
      <g>
       <use style="stroke:#000000;stroke-width:0.5;" x="56.953125" xlink:href="#md05a023f31" y="66.34175"/>
      </g>
     </g>
     <g id="line2d_31">
      <g>
       <use style="stroke:#000000;stroke-width:0.5;" x="503.353125" xlink:href="#mf84760e669" y="66.34175"/>
      </g>
     </g>
     <g id="text_16">
      <!-- 1.2 -->
      <g transform="translate(33.869375 69.653)scale(0.12 -0.12)">
       <use xlink:href="#BitstreamVeraSans-Roman-31"/>
       <use x="63.623046875" xlink:href="#BitstreamVeraSans-Roman-2e"/>
       <use x="95.41015625" xlink:href="#BitstreamVeraSans-Roman-32"/>
      </g>
     </g>
    </g>
    <g id="ytick_9">
     <g id="line2d_32">
      <g>
       <use style="stroke:#000000;stroke-width:0.5;" x="56.953125" xlink:href="#md05a023f31" y="23.14175"/>
      </g>
     </g>
     <g id="line2d_33">
      <g>
       <use style="stroke:#000000;stroke-width:0.5;" x="503.353125" xlink:href="#mf84760e669" y="23.14175"/>
      </g>
     </g>
     <g id="text_17">
      <!-- 1.4 -->
      <g transform="translate(33.869375 26.453)scale(0.12 -0.12)">
       <use xlink:href="#BitstreamVeraSans-Roman-31"/>
       <use x="63.623046875" xlink:href="#BitstreamVeraSans-Roman-2e"/>
       <use x="95.41015625" xlink:href="#BitstreamVeraSans-Roman-34"/>
      </g>
     </g>
    </g>
    <g id="text_18">
     <!-- average maxQ -->
     <defs>
      <path d="M 52 44.1875 
Q 55.375 50.25 60.0625 53.125 
Q 64.75 56 71.09375 56 
Q 79.640625 56 84.28125 50.015625 
Q 88.921875 44.046875 88.921875 33.015625 
L 88.921875 0 
L 79.890625 0 
L 79.890625 32.71875 
Q 79.890625 40.578125 77.09375 44.375 
Q 74.3125 48.1875 68.609375 48.1875 
Q 61.625 48.1875 57.5625 43.546875 
Q 53.515625 38.921875 53.515625 30.90625 
L 53.515625 0 
L 44.484375 0 
L 44.484375 32.71875 
Q 44.484375 40.625 41.703125 44.40625 
Q 38.921875 48.1875 33.109375 48.1875 
Q 26.21875 48.1875 22.15625 43.53125 
Q 18.109375 38.875 18.109375 30.90625 
L 18.109375 0 
L 9.078125 0 
L 9.078125 54.6875 
L 18.109375 54.6875 
L 18.109375 46.1875 
Q 21.1875 51.21875 25.484375 53.609375 
Q 29.78125 56 35.6875 56 
Q 41.65625 56 45.828125 52.96875 
Q 50 49.953125 52 44.1875 
" id="BitstreamVeraSans-Roman-6d"/>
      <path d="M 39.40625 66.21875 
Q 28.65625 66.21875 22.328125 58.203125 
Q 16.015625 50.203125 16.015625 36.375 
Q 16.015625 22.609375 22.328125 14.59375 
Q 28.65625 6.59375 39.40625 6.59375 
Q 50.140625 6.59375 56.421875 14.59375 
Q 62.703125 22.609375 62.703125 36.375 
Q 62.703125 50.203125 56.421875 58.203125 
Q 50.140625 66.21875 39.40625 66.21875 
M 53.21875 1.3125 
L 66.21875 -12.890625 
L 54.296875 -12.890625 
L 43.5 -1.21875 
Q 41.890625 -1.3125 41.03125 -1.359375 
Q 40.1875 -1.421875 39.40625 -1.421875 
Q 24.03125 -1.421875 14.8125 8.859375 
Q 5.609375 19.140625 5.609375 36.375 
Q 5.609375 53.65625 14.8125 63.9375 
Q 24.03125 74.21875 39.40625 74.21875 
Q 54.734375 74.21875 63.90625 63.9375 
Q 73.09375 53.65625 73.09375 36.375 
Q 73.09375 23.6875 67.984375 14.640625 
Q 62.890625 5.609375 53.21875 1.3125 
" id="BitstreamVeraSans-Roman-51"/>
      <path d="M 2.984375 54.6875 
L 12.5 54.6875 
L 29.59375 8.796875 
L 46.6875 54.6875 
L 56.203125 54.6875 
L 35.6875 0 
L 23.484375 0 
z
" id="BitstreamVeraSans-Roman-76"/>
      <path d="M 45.40625 27.984375 
Q 45.40625 37.75 41.375 43.109375 
Q 37.359375 48.484375 30.078125 48.484375 
Q 22.859375 48.484375 18.828125 43.109375 
Q 14.796875 37.75 14.796875 27.984375 
Q 14.796875 18.265625 18.828125 12.890625 
Q 22.859375 7.515625 30.078125 7.515625 
Q 37.359375 7.515625 41.375 12.890625 
Q 45.40625 18.265625 45.40625 27.984375 
M 54.390625 6.78125 
Q 54.390625 -7.171875 48.1875 -13.984375 
Q 42 -20.796875 29.203125 -20.796875 
Q 24.46875 -20.796875 20.265625 -20.09375 
Q 16.0625 -19.390625 12.109375 -17.921875 
L 12.109375 -9.1875 
Q 16.0625 -11.328125 19.921875 -12.34375 
Q 23.78125 -13.375 27.78125 -13.375 
Q 36.625 -13.375 41.015625 -8.765625 
Q 45.40625 -4.15625 45.40625 5.171875 
L 45.40625 9.625 
Q 42.625 4.78125 38.28125 2.390625 
Q 33.9375 0 27.875 0 
Q 17.828125 0 11.671875 7.65625 
Q 5.515625 15.328125 5.515625 27.984375 
Q 5.515625 40.671875 11.671875 48.328125 
Q 17.828125 56 27.875 56 
Q 33.9375 56 38.28125 53.609375 
Q 42.625 51.21875 45.40625 46.390625 
L 45.40625 54.6875 
L 54.390625 54.6875 
z
" id="BitstreamVeraSans-Roman-67"/>
      <path d="M 54.890625 54.6875 
L 35.109375 28.078125 
L 55.90625 0 
L 45.3125 0 
L 29.390625 21.484375 
L 13.484375 0 
L 2.875 0 
L 24.125 28.609375 
L 4.6875 54.6875 
L 15.28125 54.6875 
L 29.78125 35.203125 
L 44.28125 54.6875 
z
" id="BitstreamVeraSans-Roman-78"/>
      <path d="M 41.109375 46.296875 
Q 39.59375 47.171875 37.8125 47.578125 
Q 36.03125 48 33.890625 48 
Q 26.265625 48 22.1875 43.046875 
Q 18.109375 38.09375 18.109375 28.8125 
L 18.109375 0 
L 9.078125 0 
L 9.078125 54.6875 
L 18.109375 54.6875 
L 18.109375 46.1875 
Q 20.953125 51.171875 25.484375 53.578125 
Q 30.03125 56 36.53125 56 
Q 37.453125 56 38.578125 55.875 
Q 39.703125 55.765625 41.0625 55.515625 
z
" id="BitstreamVeraSans-Roman-72"/>
      <path d="M 34.28125 27.484375 
Q 23.390625 27.484375 19.1875 25 
Q 14.984375 22.515625 14.984375 16.5 
Q 14.984375 11.71875 18.140625 8.90625 
Q 21.296875 6.109375 26.703125 6.109375 
Q 34.1875 6.109375 38.703125 11.40625 
Q 43.21875 16.703125 43.21875 25.484375 
L 43.21875 27.484375 
z
M 52.203125 31.203125 
L 52.203125 0 
L 43.21875 0 
L 43.21875 8.296875 
Q 40.140625 3.328125 35.546875 0.953125 
Q 30.953125 -1.421875 24.3125 -1.421875 
Q 15.921875 -1.421875 10.953125 3.296875 
Q 6 8.015625 6 15.921875 
Q 6 25.140625 12.171875 29.828125 
Q 18.359375 34.515625 30.609375 34.515625 
L 43.21875 34.515625 
L 43.21875 35.40625 
Q 43.21875 41.609375 39.140625 45 
Q 35.0625 48.390625 27.6875 48.390625 
Q 23 48.390625 18.546875 47.265625 
Q 14.109375 46.140625 10.015625 43.890625 
L 10.015625 52.203125 
Q 14.9375 54.109375 19.578125 55.046875 
Q 24.21875 56 28.609375 56 
Q 40.484375 56 46.34375 49.84375 
Q 52.203125 43.703125 52.203125 31.203125 
" id="BitstreamVeraSans-Roman-61"/>
      <path id="BitstreamVeraSans-Roman-20"/>
     </defs>
     <g transform="translate(16.318125 240.208625)rotate(-90.0)scale(0.12 -0.12)">
      <use xlink:href="#BitstreamVeraSans-Roman-61"/>
      <use x="61.279296875" xlink:href="#BitstreamVeraSans-Roman-76"/>
      <use x="120.458984375" xlink:href="#BitstreamVeraSans-Roman-65"/>
      <use x="181.982421875" xlink:href="#BitstreamVeraSans-Roman-72"/>
      <use x="223.095703125" xlink:href="#BitstreamVeraSans-Roman-61"/>
      <use x="284.375" xlink:href="#BitstreamVeraSans-Roman-67"/>
      <use x="347.8515625" xlink:href="#BitstreamVeraSans-Roman-65"/>
      <use x="409.375" xlink:href="#BitstreamVeraSans-Roman-20"/>
      <use x="441.162109375" xlink:href="#BitstreamVeraSans-Roman-6d"/>
      <use x="538.57421875" xlink:href="#BitstreamVeraSans-Roman-61"/>
      <use x="599.853515625" xlink:href="#BitstreamVeraSans-Roman-78"/>
      <use x="659.033203125" xlink:href="#BitstreamVeraSans-Roman-51"/>
     </g>
    </g>
   </g>
   <g id="text_19">
    <!-- Average maxQ per episode, joint6 -->
    <defs>
     <path d="M 11.71875 12.40625 
L 22.015625 12.40625 
L 22.015625 4 
L 14.015625 -11.625 
L 7.71875 -11.625 
L 11.71875 4 
z
" id="BitstreamVeraSans-Roman-2c"/>
     <path d="M 34.1875 63.1875 
L 20.796875 26.90625 
L 47.609375 26.90625 
z
M 28.609375 72.90625 
L 39.796875 72.90625 
L 67.578125 0 
L 57.328125 0 
L 50.6875 18.703125 
L 17.828125 18.703125 
L 11.1875 0 
L 0.78125 0 
z
" id="BitstreamVeraSans-Roman-41"/>
     <path d="M 54.890625 33.015625 
L 54.890625 0 
L 45.90625 0 
L 45.90625 32.71875 
Q 45.90625 40.484375 42.875 44.328125 
Q 39.84375 48.1875 33.796875 48.1875 
Q 26.515625 48.1875 22.3125 43.546875 
Q 18.109375 38.921875 18.109375 30.90625 
L 18.109375 0 
L 9.078125 0 
L 9.078125 54.6875 
L 18.109375 54.6875 
L 18.109375 46.1875 
Q 21.34375 51.125 25.703125 53.5625 
Q 30.078125 56 35.796875 56 
Q 45.21875 56 50.046875 50.171875 
Q 54.890625 44.34375 54.890625 33.015625 
" id="BitstreamVeraSans-Roman-6e"/>
     <path d="M 9.421875 54.6875 
L 18.40625 54.6875 
L 18.40625 -0.984375 
Q 18.40625 -11.421875 14.421875 -16.109375 
Q 10.453125 -20.796875 1.609375 -20.796875 
L -1.8125 -20.796875 
L -1.8125 -13.1875 
L 0.59375 -13.1875 
Q 5.71875 -13.1875 7.5625 -10.8125 
Q 9.421875 -8.453125 9.421875 -0.984375 
z
M 9.421875 75.984375 
L 18.40625 75.984375 
L 18.40625 64.59375 
L 9.421875 64.59375 
z
" id="BitstreamVeraSans-Roman-6a"/>
     <path d="M 18.3125 70.21875 
L 18.3125 54.6875 
L 36.8125 54.6875 
L 36.8125 47.703125 
L 18.3125 47.703125 
L 18.3125 18.015625 
Q 18.3125 11.328125 20.140625 9.421875 
Q 21.96875 7.515625 27.59375 7.515625 
L 36.8125 7.515625 
L 36.8125 0 
L 27.59375 0 
Q 17.1875 0 13.234375 3.875 
Q 9.28125 7.765625 9.28125 18.015625 
L 9.28125 47.703125 
L 2.6875 47.703125 
L 2.6875 54.6875 
L 9.28125 54.6875 
L 9.28125 70.21875 
z
" id="BitstreamVeraSans-Roman-74"/>
    </defs>
    <g transform="translate(156.880125 18.14175)scale(0.144 -0.144)">
     <use xlink:href="#BitstreamVeraSans-Roman-41"/>
     <use x="68.330078125" xlink:href="#BitstreamVeraSans-Roman-76"/>
     <use x="127.509765625" xlink:href="#BitstreamVeraSans-Roman-65"/>
     <use x="189.033203125" xlink:href="#BitstreamVeraSans-Roman-72"/>
     <use x="230.146484375" xlink:href="#BitstreamVeraSans-Roman-61"/>
     <use x="291.42578125" xlink:href="#BitstreamVeraSans-Roman-67"/>
     <use x="354.90234375" xlink:href="#BitstreamVeraSans-Roman-65"/>
     <use x="416.42578125" xlink:href="#BitstreamVeraSans-Roman-20"/>
     <use x="448.212890625" xlink:href="#BitstreamVeraSans-Roman-6d"/>
     <use x="545.625" xlink:href="#BitstreamVeraSans-Roman-61"/>
     <use x="606.904296875" xlink:href="#BitstreamVeraSans-Roman-78"/>
     <use x="666.083984375" xlink:href="#BitstreamVeraSans-Roman-51"/>
     <use x="744.794921875" xlink:href="#BitstreamVeraSans-Roman-20"/>
     <use x="776.58203125" xlink:href="#BitstreamVeraSans-Roman-70"/>
     <use x="840.05859375" xlink:href="#BitstreamVeraSans-Roman-65"/>
     <use x="901.58203125" xlink:href="#BitstreamVeraSans-Roman-72"/>
     <use x="942.6953125" xlink:href="#BitstreamVeraSans-Roman-20"/>
     <use x="974.482421875" xlink:href="#BitstreamVeraSans-Roman-65"/>
     <use x="1036.005859375" xlink:href="#BitstreamVeraSans-Roman-70"/>
     <use x="1099.482421875" xlink:href="#BitstreamVeraSans-Roman-69"/>
     <use x="1127.265625" xlink:href="#BitstreamVeraSans-Roman-73"/>
     <use x="1179.365234375" xlink:href="#BitstreamVeraSans-Roman-6f"/>
     <use x="1240.546875" xlink:href="#BitstreamVeraSans-Roman-64"/>
     <use x="1304.0234375" xlink:href="#BitstreamVeraSans-Roman-65"/>
     <use x="1365.546875" xlink:href="#BitstreamVeraSans-Roman-2c"/>
     <use x="1397.333984375" xlink:href="#BitstreamVeraSans-Roman-20"/>
     <use x="1429.12109375" xlink:href="#BitstreamVeraSans-Roman-6a"/>
     <use x="1456.904296875" xlink:href="#BitstreamVeraSans-Roman-6f"/>
     <use x="1518.0859375" xlink:href="#BitstreamVeraSans-Roman-69"/>
     <use x="1545.869140625" xlink:href="#BitstreamVeraSans-Roman-6e"/>
     <use x="1609.248046875" xlink:href="#BitstreamVeraSans-Roman-74"/>
     <use x="1648.45703125" xlink:href="#BitstreamVeraSans-Roman-36"/>
    </g>
   </g>
  </g>
 </g>
 <defs>
  <clipPath id="pfe48fbdf56">
   <rect height="345.6" width="446.4" x="56.953125" y="23.14175"/>
  </clipPath>
 </defs>
</svg>
