<?xml version="1.0" encoding="utf-8" standalone="no"?>
<!DOCTYPE svg PUBLIC "-//W3C//DTD SVG 1.1//EN"
  "http://www.w3.org/Graphics/SVG/1.1/DTD/svg11.dtd">
<!-- Created with matplotlib (http://matplotlib.org/) -->
<svg height="325pt" version="1.1" viewBox="0 0 421 325" width="421pt" xmlns="http://www.w3.org/2000/svg" xmlns:xlink="http://www.w3.org/1999/xlink">
 <defs>
  <style type="text/css">
*{stroke-linecap:butt;stroke-linejoin:round;}
  </style>
 </defs>
 <g id="figure_1">
  <g id="patch_1">
   <path d="M 0 325.986375 
L 421.112951 325.986375 
L 421.112951 0 
L 0 0 
z
" style="fill:#ffffff;"/>
  </g>
  <g id="axes_1">
   <g id="patch_2">
    <path d="M 43.78125 288.430125 
L 400.90125 288.430125 
L 400.90125 22.318125 
L 43.78125 22.318125 
z
" style="fill:#ffffff;"/>
   </g>
   <g id="matplotlib.axis_1">
    <g id="xtick_1">
     <g id="line2d_1">
      <defs>
       <path d="M 0 0 
L 0 3.5 
" id="m2698ae8753" style="stroke:#000000;stroke-width:0.8;"/>
      </defs>
      <g>
       <use style="stroke:#000000;stroke-width:0.8;" x="59.877453" xlink:href="#m2698ae8753" y="288.430125"/>
      </g>
     </g>
     <g id="text_1">
      <!-- 0 -->
      <defs>
       <path d="M 31.78125 66.40625 
Q 24.171875 66.40625 20.328125 58.90625 
Q 16.5 51.421875 16.5 36.375 
Q 16.5 21.390625 20.328125 13.890625 
Q 24.171875 6.390625 31.78125 6.390625 
Q 39.453125 6.390625 43.28125 13.890625 
Q 47.125 21.390625 47.125 36.375 
Q 47.125 51.421875 43.28125 58.90625 
Q 39.453125 66.40625 31.78125 66.40625 
z
M 31.78125 74.21875 
Q 44.046875 74.21875 50.515625 64.515625 
Q 56.984375 54.828125 56.984375 36.375 
Q 56.984375 17.96875 50.515625 8.265625 
Q 44.046875 -1.421875 31.78125 -1.421875 
Q 19.53125 -1.421875 13.0625 8.265625 
Q 6.59375 17.96875 6.59375 36.375 
Q 6.59375 54.828125 13.0625 64.515625 
Q 19.53125 74.21875 31.78125 74.21875 
z
" id="DejaVuSans-30"/>
      </defs>
      <g transform="translate(56.696203 303.028562)scale(0.1 -0.1)">
       <use xlink:href="#DejaVuSans-30"/>
      </g>
     </g>
    </g>
    <g id="xtick_2">
     <g id="line2d_2">
      <g>
       <use style="stroke:#000000;stroke-width:0.8;" x="128.139553" xlink:href="#m2698ae8753" y="288.430125"/>
      </g>
     </g>
     <g id="text_2">
      <!-- 500 -->
      <defs>
       <path d="M 10.796875 72.90625 
L 49.515625 72.90625 
L 49.515625 64.59375 
L 19.828125 64.59375 
L 19.828125 46.734375 
Q 21.96875 47.46875 24.109375 47.828125 
Q 26.265625 48.1875 28.421875 48.1875 
Q 40.625 48.1875 47.75 41.5 
Q 54.890625 34.8125 54.890625 23.390625 
Q 54.890625 11.625 47.5625 5.09375 
Q 40.234375 -1.421875 26.90625 -1.421875 
Q 22.3125 -1.421875 17.546875 -0.640625 
Q 12.796875 0.140625 7.71875 1.703125 
L 7.71875 11.625 
Q 12.109375 9.234375 16.796875 8.0625 
Q 21.484375 6.890625 26.703125 6.890625 
Q 35.15625 6.890625 40.078125 11.328125 
Q 45.015625 15.765625 45.015625 23.390625 
Q 45.015625 31 40.078125 35.4375 
Q 35.15625 39.890625 26.703125 39.890625 
Q 22.75 39.890625 18.8125 39.015625 
Q 14.890625 38.140625 10.796875 36.28125 
z
" id="DejaVuSans-35"/>
      </defs>
      <g transform="translate(118.595803 303.028562)scale(0.1 -0.1)">
       <use xlink:href="#DejaVuSans-35"/>
       <use x="63.623047" xlink:href="#DejaVuSans-30"/>
       <use x="127.246094" xlink:href="#DejaVuSans-30"/>
      </g>
     </g>
    </g>
    <g id="xtick_3">
     <g id="line2d_3">
      <g>
       <use style="stroke:#000000;stroke-width:0.8;" x="196.401652" xlink:href="#m2698ae8753" y="288.430125"/>
      </g>
     </g>
     <g id="text_3">
      <!-- 1000 -->
      <defs>
       <path d="M 12.40625 8.296875 
L 28.515625 8.296875 
L 28.515625 63.921875 
L 10.984375 60.40625 
L 10.984375 69.390625 
L 28.421875 72.90625 
L 38.28125 72.90625 
L 38.28125 8.296875 
L 54.390625 8.296875 
L 54.390625 0 
L 12.40625 0 
z
" id="DejaVuSans-31"/>
      </defs>
      <g transform="translate(183.676652 303.028562)scale(0.1 -0.1)">
       <use xlink:href="#DejaVuSans-31"/>
       <use x="63.623047" xlink:href="#DejaVuSans-30"/>
       <use x="127.246094" xlink:href="#DejaVuSans-30"/>
       <use x="190.869141" xlink:href="#DejaVuSans-30"/>
      </g>
     </g>
    </g>
    <g id="xtick_4">
     <g id="line2d_4">
      <g>
       <use style="stroke:#000000;stroke-width:0.8;" x="264.663752" xlink:href="#m2698ae8753" y="288.430125"/>
      </g>
     </g>
     <g id="text_4">
      <!-- 1500 -->
      <g transform="translate(251.938752 303.028562)scale(0.1 -0.1)">
       <use xlink:href="#DejaVuSans-31"/>
       <use x="63.623047" xlink:href="#DejaVuSans-35"/>
       <use x="127.246094" xlink:href="#DejaVuSans-30"/>
       <use x="190.869141" xlink:href="#DejaVuSans-30"/>
      </g>
     </g>
    </g>
    <g id="xtick_5">
     <g id="line2d_5">
      <g>
       <use style="stroke:#000000;stroke-width:0.8;" x="332.925851" xlink:href="#m2698ae8753" y="288.430125"/>
      </g>
     </g>
     <g id="text_5">
      <!-- 2000 -->
      <defs>
       <path d="M 19.1875 8.296875 
L 53.609375 8.296875 
L 53.609375 0 
L 7.328125 0 
L 7.328125 8.296875 
Q 12.9375 14.109375 22.625 23.890625 
Q 32.328125 33.6875 34.8125 36.53125 
Q 39.546875 41.84375 41.421875 45.53125 
Q 43.3125 49.21875 43.3125 52.78125 
Q 43.3125 58.59375 39.234375 62.25 
Q 35.15625 65.921875 28.609375 65.921875 
Q 23.96875 65.921875 18.8125 64.3125 
Q 13.671875 62.703125 7.8125 59.421875 
L 7.8125 69.390625 
Q 13.765625 71.78125 18.9375 73 
Q 24.125 74.21875 28.421875 74.21875 
Q 39.75 74.21875 46.484375 68.546875 
Q 53.21875 62.890625 53.21875 53.421875 
Q 53.21875 48.921875 51.53125 44.890625 
Q 49.859375 40.875 45.40625 35.40625 
Q 44.1875 33.984375 37.640625 27.21875 
Q 31.109375 20.453125 19.1875 8.296875 
z
" id="DejaVuSans-32"/>
      </defs>
      <g transform="translate(320.200851 303.028562)scale(0.1 -0.1)">
       <use xlink:href="#DejaVuSans-32"/>
       <use x="63.623047" xlink:href="#DejaVuSans-30"/>
       <use x="127.246094" xlink:href="#DejaVuSans-30"/>
       <use x="190.869141" xlink:href="#DejaVuSans-30"/>
      </g>
     </g>
    </g>
    <g id="xtick_6">
     <g id="line2d_6">
      <g>
       <use style="stroke:#000000;stroke-width:0.8;" x="401.187951" xlink:href="#m2698ae8753" y="288.430125"/>
      </g>
     </g>
     <g id="text_6">
      <!-- 2500 -->
      <g transform="translate(388.462951 303.028562)scale(0.1 -0.1)">
       <use xlink:href="#DejaVuSans-32"/>
       <use x="63.623047" xlink:href="#DejaVuSans-35"/>
       <use x="127.246094" xlink:href="#DejaVuSans-30"/>
       <use x="190.869141" xlink:href="#DejaVuSans-30"/>
      </g>
     </g>
    </g>
    <g id="text_7">
     <!-- episodes -->
     <defs>
      <path d="M 56.203125 29.59375 
L 56.203125 25.203125 
L 14.890625 25.203125 
Q 15.484375 15.921875 20.484375 11.0625 
Q 25.484375 6.203125 34.421875 6.203125 
Q 39.59375 6.203125 44.453125 7.46875 
Q 49.3125 8.734375 54.109375 11.28125 
L 54.109375 2.78125 
Q 49.265625 0.734375 44.1875 -0.34375 
Q 39.109375 -1.421875 33.890625 -1.421875 
Q 20.796875 -1.421875 13.15625 6.1875 
Q 5.515625 13.8125 5.515625 26.8125 
Q 5.515625 40.234375 12.765625 48.109375 
Q 20.015625 56 32.328125 56 
Q 43.359375 56 49.78125 48.890625 
Q 56.203125 41.796875 56.203125 29.59375 
z
M 47.21875 32.234375 
Q 47.125 39.59375 43.09375 43.984375 
Q 39.0625 48.390625 32.421875 48.390625 
Q 24.90625 48.390625 20.390625 44.140625 
Q 15.875 39.890625 15.1875 32.171875 
z
" id="DejaVuSans-65"/>
      <path d="M 18.109375 8.203125 
L 18.109375 -20.796875 
L 9.078125 -20.796875 
L 9.078125 54.6875 
L 18.109375 54.6875 
L 18.109375 46.390625 
Q 20.953125 51.265625 25.265625 53.625 
Q 29.59375 56 35.59375 56 
Q 45.5625 56 51.78125 48.09375 
Q 58.015625 40.1875 58.015625 27.296875 
Q 58.015625 14.40625 51.78125 6.484375 
Q 45.5625 -1.421875 35.59375 -1.421875 
Q 29.59375 -1.421875 25.265625 0.953125 
Q 20.953125 3.328125 18.109375 8.203125 
z
M 48.6875 27.296875 
Q 48.6875 37.203125 44.609375 42.84375 
Q 40.53125 48.484375 33.40625 48.484375 
Q 26.265625 48.484375 22.1875 42.84375 
Q 18.109375 37.203125 18.109375 27.296875 
Q 18.109375 17.390625 22.1875 11.75 
Q 26.265625 6.109375 33.40625 6.109375 
Q 40.53125 6.109375 44.609375 11.75 
Q 48.6875 17.390625 48.6875 27.296875 
z
" id="DejaVuSans-70"/>
      <path d="M 9.421875 54.6875 
L 18.40625 54.6875 
L 18.40625 0 
L 9.421875 0 
z
M 9.421875 75.984375 
L 18.40625 75.984375 
L 18.40625 64.59375 
L 9.421875 64.59375 
z
" id="DejaVuSans-69"/>
      <path d="M 44.28125 53.078125 
L 44.28125 44.578125 
Q 40.484375 46.53125 36.375 47.5 
Q 32.28125 48.484375 27.875 48.484375 
Q 21.1875 48.484375 17.84375 46.4375 
Q 14.5 44.390625 14.5 40.28125 
Q 14.5 37.15625 16.890625 35.375 
Q 19.28125 33.59375 26.515625 31.984375 
L 29.59375 31.296875 
Q 39.15625 29.25 43.1875 25.515625 
Q 47.21875 21.78125 47.21875 15.09375 
Q 47.21875 7.46875 41.1875 3.015625 
Q 35.15625 -1.421875 24.609375 -1.421875 
Q 20.21875 -1.421875 15.453125 -0.5625 
Q 10.6875 0.296875 5.421875 2 
L 5.421875 11.28125 
Q 10.40625 8.6875 15.234375 7.390625 
Q 20.0625 6.109375 24.8125 6.109375 
Q 31.15625 6.109375 34.5625 8.28125 
Q 37.984375 10.453125 37.984375 14.40625 
Q 37.984375 18.0625 35.515625 20.015625 
Q 33.0625 21.96875 24.703125 23.78125 
L 21.578125 24.515625 
Q 13.234375 26.265625 9.515625 29.90625 
Q 5.8125 33.546875 5.8125 39.890625 
Q 5.8125 47.609375 11.28125 51.796875 
Q 16.75 56 26.8125 56 
Q 31.78125 56 36.171875 55.265625 
Q 40.578125 54.546875 44.28125 53.078125 
z
" id="DejaVuSans-73"/>
      <path d="M 30.609375 48.390625 
Q 23.390625 48.390625 19.1875 42.75 
Q 14.984375 37.109375 14.984375 27.296875 
Q 14.984375 17.484375 19.15625 11.84375 
Q 23.34375 6.203125 30.609375 6.203125 
Q 37.796875 6.203125 41.984375 11.859375 
Q 46.1875 17.53125 46.1875 27.296875 
Q 46.1875 37.015625 41.984375 42.703125 
Q 37.796875 48.390625 30.609375 48.390625 
z
M 30.609375 56 
Q 42.328125 56 49.015625 48.375 
Q 55.71875 40.765625 55.71875 27.296875 
Q 55.71875 13.875 49.015625 6.21875 
Q 42.328125 -1.421875 30.609375 -1.421875 
Q 18.84375 -1.421875 12.171875 6.21875 
Q 5.515625 13.875 5.515625 27.296875 
Q 5.515625 40.765625 12.171875 48.375 
Q 18.84375 56 30.609375 56 
z
" id="DejaVuSans-6f"/>
      <path d="M 45.40625 46.390625 
L 45.40625 75.984375 
L 54.390625 75.984375 
L 54.390625 0 
L 45.40625 0 
L 45.40625 8.203125 
Q 42.578125 3.328125 38.25 0.953125 
Q 33.9375 -1.421875 27.875 -1.421875 
Q 17.96875 -1.421875 11.734375 6.484375 
Q 5.515625 14.40625 5.515625 27.296875 
Q 5.515625 40.1875 11.734375 48.09375 
Q 17.96875 56 27.875 56 
Q 33.9375 56 38.25 53.625 
Q 42.578125 51.265625 45.40625 46.390625 
z
M 14.796875 27.296875 
Q 14.796875 17.390625 18.875 11.75 
Q 22.953125 6.109375 30.078125 6.109375 
Q 37.203125 6.109375 41.296875 11.75 
Q 45.40625 17.390625 45.40625 27.296875 
Q 45.40625 37.203125 41.296875 42.84375 
Q 37.203125 48.484375 30.078125 48.484375 
Q 22.953125 48.484375 18.875 42.84375 
Q 14.796875 37.203125 14.796875 27.296875 
z
" id="DejaVuSans-64"/>
     </defs>
     <g transform="translate(200.181875 316.706687)scale(0.1 -0.1)">
      <use xlink:href="#DejaVuSans-65"/>
      <use x="61.523438" xlink:href="#DejaVuSans-70"/>
      <use x="125" xlink:href="#DejaVuSans-69"/>
      <use x="152.783203" xlink:href="#DejaVuSans-73"/>
      <use x="204.882812" xlink:href="#DejaVuSans-6f"/>
      <use x="266.064453" xlink:href="#DejaVuSans-64"/>
      <use x="329.541016" xlink:href="#DejaVuSans-65"/>
      <use x="391.064453" xlink:href="#DejaVuSans-73"/>
     </g>
    </g>
   </g>
   <g id="matplotlib.axis_2">
    <g id="ytick_1">
     <g id="line2d_7">
      <defs>
       <path d="M 0 0 
L -3.5 0 
" id="mf839ef859c" style="stroke:#000000;stroke-width:0.8;"/>
      </defs>
      <g>
       <use style="stroke:#000000;stroke-width:0.8;" x="43.78125" xlink:href="#mf839ef859c" y="263.838096"/>
      </g>
     </g>
     <g id="text_8">
      <!-- 1.2 -->
      <defs>
       <path d="M 10.6875 12.40625 
L 21 12.40625 
L 21 0 
L 10.6875 0 
z
" id="DejaVuSans-2e"/>
      </defs>
      <g transform="translate(20.878125 267.637315)scale(0.1 -0.1)">
       <use xlink:href="#DejaVuSans-31"/>
       <use x="63.623047" xlink:href="#DejaVuSans-2e"/>
       <use x="95.410156" xlink:href="#DejaVuSans-32"/>
      </g>
     </g>
    </g>
    <g id="ytick_2">
     <g id="line2d_8">
      <g>
       <use style="stroke:#000000;stroke-width:0.8;" x="43.78125" xlink:href="#mf839ef859c" y="206.865132"/>
      </g>
     </g>
     <g id="text_9">
      <!-- 1.4 -->
      <defs>
       <path d="M 37.796875 64.3125 
L 12.890625 25.390625 
L 37.796875 25.390625 
z
M 35.203125 72.90625 
L 47.609375 72.90625 
L 47.609375 25.390625 
L 58.015625 25.390625 
L 58.015625 17.1875 
L 47.609375 17.1875 
L 47.609375 0 
L 37.796875 0 
L 37.796875 17.1875 
L 4.890625 17.1875 
L 4.890625 26.703125 
z
" id="DejaVuSans-34"/>
      </defs>
      <g transform="translate(20.878125 210.664351)scale(0.1 -0.1)">
       <use xlink:href="#DejaVuSans-31"/>
       <use x="63.623047" xlink:href="#DejaVuSans-2e"/>
       <use x="95.410156" xlink:href="#DejaVuSans-34"/>
      </g>
     </g>
    </g>
    <g id="ytick_3">
     <g id="line2d_9">
      <g>
       <use style="stroke:#000000;stroke-width:0.8;" x="43.78125" xlink:href="#mf839ef859c" y="149.892168"/>
      </g>
     </g>
     <g id="text_10">
      <!-- 1.6 -->
      <defs>
       <path d="M 33.015625 40.375 
Q 26.375 40.375 22.484375 35.828125 
Q 18.609375 31.296875 18.609375 23.390625 
Q 18.609375 15.53125 22.484375 10.953125 
Q 26.375 6.390625 33.015625 6.390625 
Q 39.65625 6.390625 43.53125 10.953125 
Q 47.40625 15.53125 47.40625 23.390625 
Q 47.40625 31.296875 43.53125 35.828125 
Q 39.65625 40.375 33.015625 40.375 
z
M 52.59375 71.296875 
L 52.59375 62.3125 
Q 48.875 64.0625 45.09375 64.984375 
Q 41.3125 65.921875 37.59375 65.921875 
Q 27.828125 65.921875 22.671875 59.328125 
Q 17.53125 52.734375 16.796875 39.40625 
Q 19.671875 43.65625 24.015625 45.921875 
Q 28.375 48.1875 33.59375 48.1875 
Q 44.578125 48.1875 50.953125 41.515625 
Q 57.328125 34.859375 57.328125 23.390625 
Q 57.328125 12.15625 50.6875 5.359375 
Q 44.046875 -1.421875 33.015625 -1.421875 
Q 20.359375 -1.421875 13.671875 8.265625 
Q 6.984375 17.96875 6.984375 36.375 
Q 6.984375 53.65625 15.1875 63.9375 
Q 23.390625 74.21875 37.203125 74.21875 
Q 40.921875 74.21875 44.703125 73.484375 
Q 48.484375 72.75 52.59375 71.296875 
z
" id="DejaVuSans-36"/>
      </defs>
      <g transform="translate(20.878125 153.691387)scale(0.1 -0.1)">
       <use xlink:href="#DejaVuSans-31"/>
       <use x="63.623047" xlink:href="#DejaVuSans-2e"/>
       <use x="95.410156" xlink:href="#DejaVuSans-36"/>
      </g>
     </g>
    </g>
    <g id="ytick_4">
     <g id="line2d_10">
      <g>
       <use style="stroke:#000000;stroke-width:0.8;" x="43.78125" xlink:href="#mf839ef859c" y="92.919205"/>
      </g>
     </g>
     <g id="text_11">
      <!-- 1.8 -->
      <defs>
       <path d="M 31.78125 34.625 
Q 24.75 34.625 20.71875 30.859375 
Q 16.703125 27.09375 16.703125 20.515625 
Q 16.703125 13.921875 20.71875 10.15625 
Q 24.75 6.390625 31.78125 6.390625 
Q 38.8125 6.390625 42.859375 10.171875 
Q 46.921875 13.96875 46.921875 20.515625 
Q 46.921875 27.09375 42.890625 30.859375 
Q 38.875 34.625 31.78125 34.625 
z
M 21.921875 38.8125 
Q 15.578125 40.375 12.03125 44.71875 
Q 8.5 49.078125 8.5 55.328125 
Q 8.5 64.0625 14.71875 69.140625 
Q 20.953125 74.21875 31.78125 74.21875 
Q 42.671875 74.21875 48.875 69.140625 
Q 55.078125 64.0625 55.078125 55.328125 
Q 55.078125 49.078125 51.53125 44.71875 
Q 48 40.375 41.703125 38.8125 
Q 48.828125 37.15625 52.796875 32.3125 
Q 56.78125 27.484375 56.78125 20.515625 
Q 56.78125 9.90625 50.3125 4.234375 
Q 43.84375 -1.421875 31.78125 -1.421875 
Q 19.734375 -1.421875 13.25 4.234375 
Q 6.78125 9.90625 6.78125 20.515625 
Q 6.78125 27.484375 10.78125 32.3125 
Q 14.796875 37.15625 21.921875 38.8125 
z
M 18.3125 54.390625 
Q 18.3125 48.734375 21.84375 45.5625 
Q 25.390625 42.390625 31.78125 42.390625 
Q 38.140625 42.390625 41.71875 45.5625 
Q 45.3125 48.734375 45.3125 54.390625 
Q 45.3125 60.0625 41.71875 63.234375 
Q 38.140625 66.40625 31.78125 66.40625 
Q 25.390625 66.40625 21.84375 63.234375 
Q 18.3125 60.0625 18.3125 54.390625 
z
" id="DejaVuSans-38"/>
      </defs>
      <g transform="translate(20.878125 96.718423)scale(0.1 -0.1)">
       <use xlink:href="#DejaVuSans-31"/>
       <use x="63.623047" xlink:href="#DejaVuSans-2e"/>
       <use x="95.410156" xlink:href="#DejaVuSans-38"/>
      </g>
     </g>
    </g>
    <g id="ytick_5">
     <g id="line2d_11">
      <g>
       <use style="stroke:#000000;stroke-width:0.8;" x="43.78125" xlink:href="#mf839ef859c" y="35.946241"/>
      </g>
     </g>
     <g id="text_12">
      <!-- 2.0 -->
      <g transform="translate(20.878125 39.745459)scale(0.1 -0.1)">
       <use xlink:href="#DejaVuSans-32"/>
       <use x="63.623047" xlink:href="#DejaVuSans-2e"/>
       <use x="95.410156" xlink:href="#DejaVuSans-30"/>
      </g>
     </g>
    </g>
    <g id="text_13">
     <!-- undisc. return -->
     <defs>
      <path d="M 8.5 21.578125 
L 8.5 54.6875 
L 17.484375 54.6875 
L 17.484375 21.921875 
Q 17.484375 14.15625 20.5 10.265625 
Q 23.53125 6.390625 29.59375 6.390625 
Q 36.859375 6.390625 41.078125 11.03125 
Q 45.3125 15.671875 45.3125 23.6875 
L 45.3125 54.6875 
L 54.296875 54.6875 
L 54.296875 0 
L 45.3125 0 
L 45.3125 8.40625 
Q 42.046875 3.421875 37.71875 1 
Q 33.40625 -1.421875 27.6875 -1.421875 
Q 18.265625 -1.421875 13.375 4.4375 
Q 8.5 10.296875 8.5 21.578125 
z
M 31.109375 56 
z
" id="DejaVuSans-75"/>
      <path d="M 54.890625 33.015625 
L 54.890625 0 
L 45.90625 0 
L 45.90625 32.71875 
Q 45.90625 40.484375 42.875 44.328125 
Q 39.84375 48.1875 33.796875 48.1875 
Q 26.515625 48.1875 22.3125 43.546875 
Q 18.109375 38.921875 18.109375 30.90625 
L 18.109375 0 
L 9.078125 0 
L 9.078125 54.6875 
L 18.109375 54.6875 
L 18.109375 46.1875 
Q 21.34375 51.125 25.703125 53.5625 
Q 30.078125 56 35.796875 56 
Q 45.21875 56 50.046875 50.171875 
Q 54.890625 44.34375 54.890625 33.015625 
z
" id="DejaVuSans-6e"/>
      <path d="M 48.78125 52.59375 
L 48.78125 44.1875 
Q 44.96875 46.296875 41.140625 47.34375 
Q 37.3125 48.390625 33.40625 48.390625 
Q 24.65625 48.390625 19.8125 42.84375 
Q 14.984375 37.3125 14.984375 27.296875 
Q 14.984375 17.28125 19.8125 11.734375 
Q 24.65625 6.203125 33.40625 6.203125 
Q 37.3125 6.203125 41.140625 7.25 
Q 44.96875 8.296875 48.78125 10.40625 
L 48.78125 2.09375 
Q 45.015625 0.34375 40.984375 -0.53125 
Q 36.96875 -1.421875 32.421875 -1.421875 
Q 20.0625 -1.421875 12.78125 6.34375 
Q 5.515625 14.109375 5.515625 27.296875 
Q 5.515625 40.671875 12.859375 48.328125 
Q 20.21875 56 33.015625 56 
Q 37.15625 56 41.109375 55.140625 
Q 45.0625 54.296875 48.78125 52.59375 
z
" id="DejaVuSans-63"/>
      <path id="DejaVuSans-20"/>
      <path d="M 41.109375 46.296875 
Q 39.59375 47.171875 37.8125 47.578125 
Q 36.03125 48 33.890625 48 
Q 26.265625 48 22.1875 43.046875 
Q 18.109375 38.09375 18.109375 28.8125 
L 18.109375 0 
L 9.078125 0 
L 9.078125 54.6875 
L 18.109375 54.6875 
L 18.109375 46.1875 
Q 20.953125 51.171875 25.484375 53.578125 
Q 30.03125 56 36.53125 56 
Q 37.453125 56 38.578125 55.875 
Q 39.703125 55.765625 41.0625 55.515625 
z
" id="DejaVuSans-72"/>
      <path d="M 18.3125 70.21875 
L 18.3125 54.6875 
L 36.8125 54.6875 
L 36.8125 47.703125 
L 18.3125 47.703125 
L 18.3125 18.015625 
Q 18.3125 11.328125 20.140625 9.421875 
Q 21.96875 7.515625 27.59375 7.515625 
L 36.8125 7.515625 
L 36.8125 0 
L 27.59375 0 
Q 17.1875 0 13.234375 3.875 
Q 9.28125 7.765625 9.28125 18.015625 
L 9.28125 47.703125 
L 2.6875 47.703125 
L 2.6875 54.6875 
L 9.28125 54.6875 
L 9.28125 70.21875 
z
" id="DejaVuSans-74"/>
     </defs>
     <g transform="translate(14.798438 190.28975)rotate(-90)scale(0.1 -0.1)">
      <use xlink:href="#DejaVuSans-75"/>
      <use x="63.378906" xlink:href="#DejaVuSans-6e"/>
      <use x="126.757812" xlink:href="#DejaVuSans-64"/>
      <use x="190.234375" xlink:href="#DejaVuSans-69"/>
      <use x="218.017578" xlink:href="#DejaVuSans-73"/>
      <use x="270.117188" xlink:href="#DejaVuSans-63"/>
      <use x="325.097656" xlink:href="#DejaVuSans-2e"/>
      <use x="356.884766" xlink:href="#DejaVuSans-20"/>
      <use x="388.671875" xlink:href="#DejaVuSans-72"/>
      <use x="429.753906" xlink:href="#DejaVuSans-65"/>
      <use x="491.277344" xlink:href="#DejaVuSans-74"/>
      <use x="530.486328" xlink:href="#DejaVuSans-75"/>
      <use x="593.865234" xlink:href="#DejaVuSans-72"/>
      <use x="634.962891" xlink:href="#DejaVuSans-6e"/>
     </g>
    </g>
   </g>
   <g id="line2d_12">
    <path clip-path="url(#p4e3ca07e70)" d="M 60.013977 198.483318 
L 60.150501 188.349438 
L 60.287026 148.970732 
L 60.42355 228.613434 
L 60.696598 109.995745 
L 60.833122 129.147316 
L 60.969647 109.495233 
L 61.106171 173.496584 
L 61.242695 133.911302 
L 61.379219 236.188589 
L 61.515743 181.907244 
L 61.652268 235.850549 
L 61.925316 206.746026 
L 62.06184 215.290284 
L 62.198364 194.845865 
L 62.334889 147.828827 
L 62.607937 209.421428 
L 62.744461 198.571138 
L 62.880985 221.671763 
L 63.01751 122.074429 
L 63.290558 218.297215 
L 63.427082 46.340347 
L 63.563606 230.22063 
L 63.700131 230.302878 
L 63.836655 240.939029 
L 63.973179 75.988489 
L 64.109703 69.483552 
L 64.382752 209.168078 
L 64.519276 164.790644 
L 64.6558 34.414125 
L 64.792324 181.944777 
L 64.928848 192.272799 
L 65.338421 132.413351 
L 65.474945 89.837348 
L 65.611469 195.922394 
L 65.747994 125.404703 
L 65.884518 129.081887 
L 66.021042 220.843952 
L 66.157566 92.487662 
L 66.29409 222.140941 
L 66.430615 178.147653 
L 66.567139 223.345331 
L 66.703663 152.907172 
L 66.840187 258.408743 
L 67.113236 256.763202 
L 67.24976 276.334125 
L 67.522808 255.648251 
L 67.659332 269.93688 
L 67.795857 258.332102 
L 67.932381 264.548918 
L 68.068905 253.073274 
L 68.341953 264.442583 
L 68.615002 257.117106 
L 68.88805 261.577208 
L 69.024574 261.891281 
L 69.161099 268.233892 
L 69.297623 258.005417 
L 69.434147 258.947898 
L 69.570671 267.24001 
L 69.84372 250.683789 
L 70.116768 272.156745 
L 70.253292 252.917045 
L 70.526341 264.241375 
L 70.662865 262.014379 
L 70.799389 255.605114 
L 71.072437 265.620098 
L 71.208962 255.819387 
L 71.345486 263.679422 
L 71.48201 259.780506 
L 71.618534 259.741013 
L 71.755058 258.799694 
L 72.164631 263.577455 
L 72.301155 261.571264 
L 72.437679 256.860511 
L 72.574204 257.774889 
L 72.710728 272.184965 
L 72.983776 249.353714 
L 73.1203 256.349826 
L 73.256825 255.981716 
L 73.393349 258.530337 
L 73.529873 266.91618 
L 73.666397 260.475453 
L 73.939446 265.072981 
L 74.212494 255.204989 
L 74.349018 262.887358 
L 74.485542 258.130966 
L 74.622067 264.814608 
L 74.758591 251.138518 
L 75.031639 272.932236 
L 75.168163 266.040294 
L 75.304688 240.940484 
L 75.577736 255.406265 
L 75.71426 257.238471 
L 75.850784 255.597503 
L 76.123833 269.113333 
L 76.260357 247.022096 
L 76.396881 264.999195 
L 76.533405 249.584806 
L 76.66993 260.885146 
L 76.806454 253.460065 
L 76.942978 258.354232 
L 77.079502 252.172492 
L 77.216026 257.781253 
L 77.352551 257.742944 
L 77.762123 263.786954 
L 77.898647 258.774298 
L 78.035172 261.625908 
L 78.171696 246.424754 
L 78.30822 263.849464 
L 78.444744 259.248488 
L 78.581268 259.93406 
L 78.717793 264.53215 
L 78.854317 255.447849 
L 78.990841 261.869828 
L 79.127365 257.13882 
L 79.263889 238.635455 
L 79.400414 236.723122 
L 79.536938 259.396698 
L 79.673462 261.51465 
L 79.809986 255.45541 
L 79.94651 255.760383 
L 80.083035 259.729038 
L 80.219559 251.453524 
L 80.356083 262.66412 
L 80.492607 262.283142 
L 80.629131 242.097071 
L 80.90218 267.194695 
L 81.038704 258.446193 
L 81.175228 263.101995 
L 81.311752 263.52487 
L 81.448277 269.307144 
L 81.584801 255.169663 
L 81.721325 259.798792 
L 81.857849 270.91108 
L 81.994373 251.846469 
L 82.130898 261.090211 
L 82.267422 259.136908 
L 82.403946 250.280392 
L 82.676994 269.721621 
L 82.813519 263.611907 
L 82.950043 249.534443 
L 83.086567 257.872993 
L 83.223091 250.803804 
L 83.359615 265.573658 
L 83.49614 259.68953 
L 83.632664 263.369422 
L 83.905712 255.430928 
L 84.178761 268.352442 
L 84.451809 258.621033 
L 84.588333 267.33387 
L 84.724857 252.281411 
L 84.861382 263.498057 
L 84.997906 263.096339 
L 85.13443 247.403934 
L 85.407478 263.773966 
L 85.544003 258.432423 
L 85.680527 265.942692 
L 85.817051 256.949741 
L 85.953575 269.282785 
L 86.090099 267.416484 
L 86.226623 253.946316 
L 86.363148 257.831065 
L 86.499672 249.526848 
L 86.77272 265.278807 
L 86.909244 255.568678 
L 87.045769 258.897965 
L 87.182293 259.156318 
L 87.318817 269.678298 
L 87.455341 250.317976 
L 87.591865 255.526648 
L 87.72839 252.052403 
L 88.001438 264.703143 
L 88.137962 259.657227 
L 88.274486 262.230922 
L 88.411011 249.778125 
L 88.547535 267.030497 
L 88.820583 255.677927 
L 88.957107 261.732052 
L 89.093632 261.498962 
L 89.230156 250.67889 
L 89.36668 265.684849 
L 89.639728 256.197758 
L 89.912777 257.415466 
L 90.049301 252.165151 
L 90.322349 268.382924 
L 90.595398 253.820227 
L 90.731922 267.377783 
L 90.868446 267.903284 
L 91.00497 259.557495 
L 91.278019 269.442074 
L 91.414543 259.390655 
L 91.551067 260.409039 
L 91.824116 255.054402 
L 91.96064 265.317213 
L 92.097164 266.449373 
L 92.233688 266.264672 
L 92.370212 268.990361 
L 92.643261 259.866844 
L 92.916309 262.354865 
L 93.189358 248.769707 
L 93.325882 255.497047 
L 93.462406 252.180621 
L 93.59893 258.606389 
L 93.735454 255.42619 
L 93.871979 261.376697 
L 94.008503 252.228065 
L 94.145027 256.363586 
L 94.281551 255.387755 
L 94.418075 257.366428 
L 94.5546 256.021666 
L 94.827648 263.214808 
L 95.100696 257.478245 
L 95.237221 259.930781 
L 95.373745 259.655297 
L 95.510269 257.375151 
L 95.646793 266.050334 
L 95.783317 260.832881 
L 95.919842 247.584198 
L 96.19289 263.786327 
L 96.329414 258.274296 
L 96.465938 261.986901 
L 96.602463 258.736397 
L 96.738987 259.198483 
L 96.875511 267.070688 
L 97.012035 260.99507 
L 97.148559 264.394427 
L 97.285084 259.690217 
L 97.558132 261.749288 
L 97.694656 258.549755 
L 97.83118 250.106246 
L 97.967705 268.539194 
L 98.104229 250.628496 
L 98.377277 259.444226 
L 98.513801 258.202288 
L 98.650326 258.714622 
L 98.78685 259.778834 
L 98.923374 266.356291 
L 99.196422 260.040647 
L 99.332947 260.738775 
L 99.469471 259.06335 
L 99.605995 261.026379 
L 99.742519 259.139122 
L 99.879043 259.525017 
L 100.015568 253.794046 
L 100.152092 261.304686 
L 100.288616 257.496588 
L 100.42514 258.911927 
L 100.561664 257.379329 
L 100.698189 259.651064 
L 100.834713 259.476393 
L 100.971237 260.123738 
L 101.107761 262.093115 
L 101.244285 250.993087 
L 101.38081 260.514885 
L 101.517334 261.444245 
L 101.653858 270.520455 
L 101.790382 260.957528 
L 101.926906 264.90968 
L 102.063431 259.721204 
L 102.199955 266.299787 
L 102.473003 256.097164 
L 102.882576 264.862232 
L 103.0191 258.908027 
L 103.155624 261.232776 
L 103.428673 258.993971 
L 103.701721 259.562806 
L 103.838245 258.658425 
L 103.974769 258.565414 
L 104.111294 257.848206 
L 104.247818 254.895542 
L 104.384342 260.427938 
L 104.520866 258.783722 
L 104.65739 261.369124 
L 104.793915 259.630209 
L 104.930439 260.440427 
L 105.066963 263.426417 
L 105.203487 257.822095 
L 105.340011 262.415258 
L 105.476536 256.71915 
L 105.61306 260.278617 
L 105.749584 259.350478 
L 105.886108 261.378342 
L 106.022632 259.625798 
L 106.159157 268.449951 
L 106.432205 256.990645 
L 106.568729 256.389309 
L 106.705253 250.787943 
L 106.841778 259.556078 
L 106.978302 257.285819 
L 107.387874 260.212685 
L 107.524399 256.855501 
L 107.660923 264.799381 
L 107.933971 260.421158 
L 108.070495 258.016904 
L 108.20702 259.608113 
L 108.343544 252.210239 
L 108.480068 259.363094 
L 108.753116 261.401766 
L 108.889641 258.124345 
L 109.026165 260.010425 
L 109.162689 252.348548 
L 109.299213 259.266467 
L 109.435737 260.097736 
L 109.572262 264.999102 
L 109.708786 261.041754 
L 109.84531 252.44254 
L 109.981834 264.338661 
L 110.118358 260.533317 
L 110.254883 261.73626 
L 110.527931 258.929663 
L 110.800979 260.462697 
L 110.937504 257.34743 
L 111.074028 259.746492 
L 111.210552 258.371008 
L 111.4836 265.08154 
L 111.620125 256.850262 
L 111.893173 260.015098 
L 112.166221 257.80408 
L 112.302746 258.363063 
L 112.575794 258.12723 
L 112.712318 253.571523 
L 112.848842 259.703483 
L 112.985367 260.038712 
L 113.121891 259.177546 
L 113.258415 260.168567 
L 113.394939 259.559856 
L 113.531463 257.410669 
L 113.804512 261.463198 
L 113.941036 257.401168 
L 114.07756 259.766182 
L 114.214084 260.054802 
L 114.350609 260.06809 
L 114.487133 258.30392 
L 114.623657 259.336697 
L 114.760181 255.1695 
L 114.896705 256.623643 
L 115.03323 259.742813 
L 115.169754 257.412759 
L 115.442802 260.861346 
L 115.579326 260.793267 
L 116.125423 257.694452 
L 116.398472 260.00256 
L 116.534996 258.949406 
L 116.67152 259.012552 
L 116.808044 251.981661 
L 116.944568 261.734815 
L 117.217617 259.173602 
L 117.354141 260.322691 
L 117.490665 257.385041 
L 117.627189 262.696836 
L 117.763713 258.912253 
L 117.900238 262.535202 
L 118.173286 256.962364 
L 118.30981 259.110483 
L 118.446334 259.420412 
L 118.582859 258.634839 
L 118.719383 257.13921 
L 118.855907 262.113696 
L 119.128955 259.968392 
L 119.26548 259.806164 
L 119.402004 260.284073 
L 119.675052 256.220451 
L 119.948101 259.890312 
L 120.084625 259.798121 
L 120.221149 255.799935 
L 120.357673 247.692374 
L 120.494197 261.594199 
L 120.630722 259.186893 
L 120.767246 259.474513 
L 120.90377 260.191928 
L 121.040294 257.602716 
L 121.176818 257.987296 
L 121.313343 260.501664 
L 121.449867 260.274716 
L 121.722915 259.349229 
L 121.859439 259.529495 
L 122.132488 257.969735 
L 122.269012 270.920669 
L 122.405536 260.42489 
L 122.54206 259.508396 
L 122.678585 259.972375 
L 122.815109 258.811506 
L 122.951633 260.023641 
L 123.088157 259.51828 
L 123.224681 257.600042 
L 123.361206 261.415913 
L 123.49773 258.910262 
L 123.634254 260.386476 
L 123.907302 259.522242 
L 124.043827 258.742407 
L 124.180351 259.040432 
L 124.316875 260.123518 
L 124.453399 258.270334 
L 124.589923 260.362176 
L 124.726448 267.305801 
L 124.862972 258.429506 
L 125.13602 260.62684 
L 125.272544 261.397168 
L 125.409069 259.892579 
L 125.545593 259.96516 
L 125.682117 258.60024 
L 125.818641 259.652424 
L 125.955165 258.457545 
L 126.09169 259.376734 
L 126.228214 259.027336 
L 126.364738 258.121787 
L 126.501262 259.929341 
L 126.637786 259.551407 
L 126.774311 258.436153 
L 126.910835 260.497715 
L 127.047359 259.845765 
L 127.183883 259.840083 
L 127.320407 260.432134 
L 127.456932 262.298936 
L 128.003028 258.650888 
L 128.139553 261.12662 
L 128.276077 260.00422 
L 128.412601 262.238182 
L 128.549125 260.59873 
L 128.685649 260.610724 
L 128.822174 259.629868 
L 128.958698 265.072913 
L 129.231746 259.733275 
L 129.36827 258.954133 
L 129.504795 260.639449 
L 129.641319 258.434011 
L 129.777843 258.725574 
L 129.914367 261.150166 
L 130.050891 260.875918 
L 130.187416 263.417648 
L 130.32394 259.875881 
L 130.460464 259.395994 
L 130.596988 257.745658 
L 130.733512 259.967243 
L 131.006561 257.805513 
L 131.143085 258.887248 
L 131.279609 258.846265 
L 131.416133 259.304461 
L 131.552658 257.251481 
L 131.689182 258.189497 
L 131.825706 262.591922 
L 131.96223 257.977172 
L 132.235279 259.313453 
L 132.371803 259.401729 
L 132.508327 259.974254 
L 132.644851 259.568025 
L 132.781375 261.710444 
L 132.9179 262.053183 
L 133.054424 259.794301 
L 133.190948 261.06573 
L 133.327472 260.196832 
L 133.463996 257.926615 
L 133.600521 259.879276 
L 133.737045 259.846056 
L 133.873569 262.511408 
L 134.146617 259.038606 
L 134.283142 260.611711 
L 134.419666 260.603716 
L 134.55619 259.614839 
L 134.692714 259.952153 
L 134.829238 260.742041 
L 134.965763 259.910761 
L 135.102287 263.28472 
L 135.238811 260.41038 
L 135.375335 260.230597 
L 135.511859 259.288317 
L 135.648384 260.653 
L 135.784908 259.473516 
L 135.921432 259.431868 
L 136.19448 260.559792 
L 136.331005 258.512848 
L 136.467529 259.772259 
L 136.740577 259.255933 
L 136.877101 259.980848 
L 137.013626 259.95107 
L 137.286674 258.458181 
L 137.423198 258.761965 
L 137.696247 260.301291 
L 137.832771 258.463889 
L 138.105819 259.206652 
L 138.242343 258.668268 
L 138.378868 260.446076 
L 138.515392 260.455902 
L 138.651916 260.337338 
L 138.78844 259.212141 
L 138.924964 261.274635 
L 139.061489 260.925474 
L 139.198013 259.819525 
L 139.334537 261.488612 
L 139.471061 260.63055 
L 139.607585 258.480415 
L 139.74411 259.840468 
L 139.880634 258.679176 
L 140.017158 260.236483 
L 140.153682 258.965415 
L 140.290206 259.226502 
L 140.426731 258.116631 
L 140.563255 258.344187 
L 140.699779 261.533175 
L 140.836303 259.603722 
L 140.972827 259.48953 
L 141.109352 260.621558 
L 141.245876 259.737004 
L 141.3824 260.204157 
L 141.518924 259.579202 
L 141.655448 261.491512 
L 141.791973 259.974541 
L 141.928497 262.800305 
L 142.065021 258.493708 
L 142.338069 261.546829 
L 142.474594 259.611696 
L 142.747642 259.467624 
L 143.02069 260.551865 
L 143.293739 259.300954 
L 143.430263 259.570931 
L 143.566787 258.916754 
L 143.703311 261.571373 
L 143.839836 260.892612 
L 144.112884 257.670164 
L 144.249408 258.816923 
L 144.385932 257.874604 
L 144.522457 260.307235 
L 144.658981 260.173863 
L 144.795505 259.021317 
L 144.932029 259.592212 
L 145.068553 258.040698 
L 145.205078 261.525918 
L 145.478126 259.70561 
L 145.61465 262.107968 
L 145.887699 259.187553 
L 146.024223 261.476405 
L 146.160747 260.031441 
L 146.297271 261.181341 
L 146.433795 259.212482 
L 146.57032 261.613072 
L 146.706844 259.071752 
L 146.843368 260.631251 
L 146.979892 259.151622 
L 147.116416 260.218662 
L 147.25294 258.413001 
L 147.389465 259.168734 
L 147.525989 258.224943 
L 147.662513 259.69441 
L 147.799037 258.669535 
L 147.935561 258.949302 
L 148.072086 260.820984 
L 148.20861 260.101129 
L 148.345134 260.377118 
L 148.481658 259.877847 
L 148.618182 261.009273 
L 148.754707 260.185177 
L 148.891231 261.771337 
L 149.027755 262.027909 
L 149.164279 257.882853 
L 149.300803 259.232846 
L 149.437328 261.844564 
L 149.573852 259.728886 
L 149.710376 260.680866 
L 149.8469 259.195867 
L 149.983424 259.681084 
L 150.119949 259.573889 
L 150.256473 259.212805 
L 150.392997 261.264912 
L 150.529521 260.444546 
L 150.666045 258.920863 
L 150.80257 258.736207 
L 150.939094 259.596445 
L 151.212142 258.418438 
L 151.348666 261.89902 
L 151.485191 259.466231 
L 151.758239 261.711802 
L 152.031287 259.443349 
L 152.167812 258.3483 
L 152.304336 259.296976 
L 152.44086 259.323681 
L 152.577384 260.874038 
L 152.713908 259.264326 
L 152.986957 261.789942 
L 153.123481 259.072663 
L 153.260005 258.721738 
L 153.396529 258.961727 
L 153.533054 259.724882 
L 153.669578 259.684495 
L 153.806102 258.490873 
L 153.942626 258.924151 
L 154.07915 260.402089 
L 154.215675 257.772443 
L 154.352199 258.445025 
L 154.488723 258.422467 
L 154.625247 258.711954 
L 154.761771 258.581992 
L 154.898296 260.496791 
L 155.03482 259.381222 
L 155.171344 262.549251 
L 155.307868 258.902206 
L 155.444392 258.85251 
L 155.580917 262.305342 
L 155.853965 258.980921 
L 155.990489 262.023807 
L 156.127013 259.657781 
L 156.400062 261.446072 
L 156.536586 259.236238 
L 156.67311 261.107573 
L 156.809634 259.843073 
L 156.946159 261.844873 
L 157.082683 259.618948 
L 157.355731 259.288538 
L 157.492255 257.338901 
L 157.62878 258.321211 
L 157.765304 256.995289 
L 157.901828 259.010212 
L 158.038352 257.784069 
L 158.174876 258.150369 
L 158.447925 259.45142 
L 158.584449 259.942568 
L 158.857497 258.922665 
L 158.994022 257.036176 
L 159.130546 260.348123 
L 159.26707 259.796546 
L 159.403594 260.199317 
L 159.540118 259.500442 
L 159.676643 259.541117 
L 159.813167 259.699794 
L 160.086215 258.966933 
L 160.222739 258.584667 
L 160.359264 260.239545 
L 160.495788 258.941675 
L 160.768836 260.230102 
L 160.90536 259.807122 
L 161.041885 258.952415 
L 161.178409 260.745205 
L 161.314933 260.639886 
L 161.587981 258.827678 
L 161.724506 260.212081 
L 161.86103 259.422502 
L 161.997554 257.066804 
L 162.270602 259.630049 
L 162.407127 259.487766 
L 162.543651 258.721975 
L 162.680175 261.598787 
L 162.816699 261.478108 
L 163.089748 258.109106 
L 163.226272 261.1254 
L 163.362796 261.491386 
L 163.49932 259.902115 
L 163.635844 260.944346 
L 163.772369 258.581595 
L 163.908893 258.521493 
L 164.045417 259.903464 
L 164.181941 259.024064 
L 164.318465 260.177193 
L 164.45499 259.97492 
L 164.591514 260.714282 
L 164.728038 259.494201 
L 164.864562 259.803175 
L 165.001086 259.728388 
L 165.137611 258.777004 
L 165.274135 264.362258 
L 165.410659 259.995347 
L 165.547183 260.975385 
L 165.683707 260.606082 
L 165.820232 259.016501 
L 165.956756 259.041674 
L 166.09328 260.86885 
L 166.229804 258.49111 
L 166.366328 259.303692 
L 166.639377 258.538508 
L 166.775901 260.670944 
L 166.912425 259.759562 
L 167.048949 260.099593 
L 167.185474 259.622949 
L 167.321998 260.133653 
L 167.458522 257.997619 
L 167.595046 260.732235 
L 167.73157 260.772939 
L 167.868095 259.222359 
L 168.004619 260.184581 
L 168.141143 261.96451 
L 168.277667 259.265888 
L 168.414191 261.049479 
L 168.550716 259.488807 
L 168.68724 259.488577 
L 168.823764 258.933182 
L 168.960288 258.859729 
L 169.096812 258.184075 
L 169.233337 260.677423 
L 169.369861 259.663448 
L 169.506385 260.576433 
L 169.642909 259.992465 
L 169.779433 261.217197 
L 169.915958 259.188842 
L 170.189006 260.982972 
L 170.32553 259.045574 
L 170.462054 259.25311 
L 170.598579 259.163502 
L 170.735103 260.347957 
L 171.008151 259.093177 
L 171.144675 257.02554 
L 171.417724 258.844078 
L 171.554248 259.465596 
L 171.690772 259.516271 
L 171.827296 258.327964 
L 171.963821 261.076876 
L 172.100345 258.215639 
L 172.236869 259.37783 
L 172.373393 258.8423 
L 172.509917 260.260081 
L 172.646442 259.548226 
L 172.782966 262.04778 
L 172.91949 260.302283 
L 173.056014 260.665681 
L 173.192538 260.247859 
L 173.329063 260.425141 
L 173.465587 261.381956 
L 173.602111 259.513664 
L 173.738635 259.95771 
L 173.875159 259.125423 
L 174.011684 260.169963 
L 174.148208 260.226686 
L 174.284732 258.185473 
L 174.55778 261.071831 
L 174.694305 259.720706 
L 174.830829 260.331625 
L 175.103877 259.940269 
L 175.240401 258.386221 
L 175.376926 261.94039 
L 175.51345 259.349732 
L 175.649974 261.082341 
L 175.786498 260.722202 
L 175.923022 259.393558 
L 176.059547 259.7599 
L 176.196071 259.469844 
L 176.469119 260.968739 
L 176.605643 258.689293 
L 177.015216 261.886099 
L 177.15174 258.942003 
L 177.288264 261.7222 
L 177.424788 260.727543 
L 177.561313 258.746785 
L 177.697837 259.816551 
L 177.834361 259.000551 
L 178.107409 259.990371 
L 178.243934 257.963629 
L 178.380458 260.858839 
L 178.516982 260.845429 
L 178.653506 263.137525 
L 178.79003 258.674155 
L 178.926555 259.237099 
L 179.063079 259.057749 
L 179.199603 258.591901 
L 179.472651 258.81422 
L 179.609176 256.633304 
L 179.7457 257.584488 
L 180.018748 260.412374 
L 180.155272 259.373683 
L 180.291797 259.462896 
L 180.428321 259.231239 
L 180.564845 259.733677 
L 180.701369 259.463682 
L 180.974418 258.1823 
L 181.520514 260.423134 
L 181.793563 258.440758 
L 182.066611 261.674281 
L 182.33966 259.157521 
L 182.476184 259.612169 
L 182.612708 258.110473 
L 182.885756 260.231683 
L 183.158805 258.435344 
L 183.295329 258.777044 
L 183.431853 257.780089 
L 183.568377 259.057629 
L 183.704902 259.091515 
L 183.841426 260.227266 
L 184.114474 258.748053 
L 184.250998 258.892731 
L 184.387523 258.859557 
L 184.524047 258.583503 
L 184.660571 258.737931 
L 184.933619 260.881939 
L 185.206668 259.875276 
L 185.343192 262.086088 
L 185.479716 259.660763 
L 185.61624 261.066102 
L 185.752765 258.871383 
L 185.889289 260.128889 
L 186.025813 258.812987 
L 186.162337 259.49468 
L 186.298861 258.886116 
L 186.57191 261.057409 
L 186.708434 260.068964 
L 186.844958 260.178231 
L 186.981482 261.568144 
L 187.118007 260.351244 
L 187.254531 260.638405 
L 187.391055 261.687842 
L 187.664103 259.679442 
L 187.800628 258.935102 
L 187.937152 259.046448 
L 188.073676 261.703043 
L 188.2102 261.617475 
L 188.346724 262.606375 
L 188.483249 259.519442 
L 188.619773 259.596547 
L 188.756297 260.673399 
L 188.892821 259.657404 
L 189.16587 260.328654 
L 189.302394 261.257319 
L 189.438918 258.017887 
L 189.575442 258.269017 
L 189.848491 258.169113 
L 189.985015 257.988677 
L 190.121539 258.931712 
L 190.258063 261.060112 
L 190.394587 258.981799 
L 190.667636 259.332285 
L 190.80416 259.263907 
L 190.940684 263.244913 
L 191.213733 260.543167 
L 191.350257 260.287089 
L 191.623305 258.545668 
L 191.759829 262.124381 
L 191.896354 258.538773 
L 192.032878 260.622689 
L 192.169402 260.184121 
L 192.305926 259.189864 
L 192.44245 260.715584 
L 192.715499 258.679535 
L 192.852023 259.207076 
L 192.988547 260.569381 
L 193.125071 259.316772 
L 193.261596 255.391525 
L 193.39812 261.275107 
L 193.534644 259.537328 
L 193.807692 261.170854 
L 193.944217 264.50461 
L 194.217265 258.039162 
L 194.353789 259.869074 
L 194.626838 257.1556 
L 194.899886 260.53058 
L 195.03641 260.150406 
L 195.172934 259.435787 
L 195.309459 259.939161 
L 195.445983 259.443396 
L 195.582507 257.200089 
L 195.719031 258.800363 
L 195.855555 258.839757 
L 195.99208 257.928237 
L 196.128604 259.438302 
L 196.265128 257.705319 
L 196.538176 260.462918 
L 196.674701 259.449401 
L 196.947749 260.828184 
L 197.220797 259.882054 
L 197.357322 259.87064 
L 197.493846 258.298849 
L 197.766894 260.058009 
L 197.903418 259.437112 
L 198.039943 261.252592 
L 198.312991 258.459604 
L 198.449515 258.850162 
L 198.586039 257.986298 
L 198.859088 261.127464 
L 198.995612 259.491901 
L 199.132136 259.818796 
L 199.405185 258.42986 
L 199.541709 257.471807 
L 199.814757 260.693055 
L 200.087806 259.13632 
L 200.22433 259.701646 
L 200.497378 262.437049 
L 200.770427 259.992086 
L 200.906951 259.239297 
L 201.043475 259.254095 
L 201.179999 258.372649 
L 201.316523 258.283306 
L 201.453048 258.871515 
L 201.589572 260.510893 
L 201.86262 258.647129 
L 201.999144 260.833565 
L 202.135669 258.955298 
L 202.272193 260.791019 
L 202.408717 259.542818 
L 202.545241 259.886102 
L 202.681765 257.948493 
L 202.81829 257.939994 
L 203.091338 259.231802 
L 203.227862 258.215247 
L 203.364386 258.712724 
L 203.500911 259.726925 
L 203.637435 259.748367 
L 203.773959 259.109835 
L 203.910483 261.472172 
L 204.047007 259.276751 
L 204.183532 259.258777 
L 204.320056 261.452433 
L 204.45658 258.939061 
L 204.593104 259.61377 
L 204.729628 259.060382 
L 204.866153 260.006197 
L 205.002677 263.427745 
L 205.412249 257.57846 
L 205.548774 260.933367 
L 205.685298 260.305599 
L 205.821822 261.674639 
L 205.958346 258.790159 
L 206.231395 260.499879 
L 206.367919 258.004321 
L 206.504443 261.258873 
L 206.640967 258.395382 
L 207.05054 259.368137 
L 207.187064 259.970834 
L 207.323588 261.892635 
L 207.460112 259.572444 
L 207.596636 260.881214 
L 207.733161 259.246238 
L 207.869685 260.629525 
L 208.142733 258.699868 
L 208.279257 259.158462 
L 208.415782 258.296378 
L 208.552306 258.672651 
L 208.68883 261.981823 
L 208.825354 260.623171 
L 208.961878 260.555487 
L 209.234927 258.141893 
L 209.371451 259.301589 
L 209.644499 258.893517 
L 209.781024 262.74776 
L 210.054072 257.830228 
L 210.190596 258.063381 
L 210.32712 259.732349 
L 210.463645 259.089884 
L 210.600169 260.243665 
L 210.736693 258.621543 
L 211.009741 260.120039 
L 211.146266 260.479741 
L 211.28279 258.824076 
L 211.555838 260.787457 
L 211.828887 259.274906 
L 211.965411 262.770488 
L 212.238459 258.862496 
L 212.374983 260.057687 
L 212.511508 259.515609 
L 212.648032 260.580297 
L 212.784556 259.626429 
L 213.057604 262.943301 
L 213.194129 260.835996 
L 213.330653 261.974817 
L 213.603701 259.499949 
L 213.740225 259.534635 
L 214.013274 263.202225 
L 214.149798 259.455161 
L 214.286322 261.952659 
L 214.559371 258.042482 
L 214.832419 260.885623 
L 214.968943 259.910777 
L 215.105467 260.125249 
L 215.241992 260.827615 
L 215.378516 260.352098 
L 215.51504 260.905592 
L 215.651564 258.473793 
L 215.788088 258.872779 
L 215.924613 260.971774 
L 216.061137 260.929392 
L 216.334185 257.760688 
L 216.743758 261.785025 
L 216.880282 258.794467 
L 217.15333 258.72533 
L 217.289855 261.488778 
L 217.562903 259.618038 
L 217.699427 259.756393 
L 217.972476 260.474853 
L 218.109 259.673455 
L 218.245524 258.187527 
L 218.518572 260.385619 
L 218.655097 257.543751 
L 218.928145 260.307358 
L 219.064669 260.689847 
L 219.337718 260.654875 
L 219.474242 260.530179 
L 219.610766 259.851804 
L 219.883814 260.748775 
L 220.020339 260.698694 
L 220.156863 260.466325 
L 220.429911 257.122626 
L 220.566435 262.216299 
L 220.70296 260.323003 
L 220.839484 260.564054 
L 220.976008 260.329316 
L 221.112532 257.56399 
L 221.385581 260.252576 
L 221.522105 259.508427 
L 221.658629 259.881605 
L 221.795153 259.808043 
L 221.931677 260.342994 
L 222.068202 258.70207 
L 222.34125 260.248485 
L 222.477774 258.654289 
L 222.614298 260.737619 
L 222.750823 259.188284 
L 222.887347 261.303018 
L 223.023871 258.587031 
L 223.160395 258.611399 
L 223.433444 258.817976 
L 223.569968 259.766681 
L 223.706492 258.951937 
L 223.843016 260.660402 
L 224.116065 258.399901 
L 224.252589 260.922632 
L 224.525637 256.75805 
L 224.662161 259.002465 
L 224.798686 258.932307 
L 225.071734 258.178372 
L 225.208258 261.97644 
L 225.344782 259.336497 
L 225.481307 259.327955 
L 225.617831 260.678753 
L 225.754355 259.747969 
L 225.890879 259.793143 
L 226.027403 258.895463 
L 226.163928 259.55806 
L 226.300452 258.856307 
L 226.5735 259.398213 
L 226.710024 259.429488 
L 226.846549 259.038445 
L 226.983073 259.445186 
L 227.119597 256.918432 
L 227.256121 261.032207 
L 227.52917 258.606793 
L 227.665694 258.976605 
L 227.802218 258.864537 
L 228.211791 260.646264 
L 228.348315 258.632299 
L 228.484839 259.463484 
L 228.621363 258.131141 
L 228.757887 260.637693 
L 228.894412 260.494556 
L 229.030936 258.120661 
L 229.303984 261.717957 
L 229.440508 258.452117 
L 229.577033 258.924262 
L 229.713557 258.507089 
L 229.850081 255.806531 
L 230.123129 258.598964 
L 230.396178 258.306174 
L 230.532702 262.52534 
L 230.669226 260.109302 
L 230.80575 260.655245 
L 231.078799 259.740423 
L 231.215323 259.741521 
L 231.351847 257.495489 
L 231.488371 261.338678 
L 231.624896 261.435595 
L 231.897944 259.447449 
L 232.034468 259.028091 
L 232.170992 262.165358 
L 232.307517 259.257175 
L 232.580565 260.98796 
L 232.717089 259.199709 
L 232.990138 264.116774 
L 233.126662 260.395361 
L 233.263186 260.557072 
L 233.39971 259.29861 
L 233.536234 261.773202 
L 233.672759 258.89206 
L 233.809283 260.02174 
L 233.945807 259.189105 
L 234.082331 262.484419 
L 234.218855 260.504435 
L 234.35538 260.617199 
L 234.491904 257.938911 
L 234.628428 260.896532 
L 234.764952 259.483367 
L 234.901476 259.296317 
L 235.038001 259.392272 
L 235.174525 260.777655 
L 235.311049 260.262603 
L 235.447573 258.637599 
L 235.584097 259.403142 
L 235.857146 262.192184 
L 235.99367 259.02791 
L 236.130194 259.039556 
L 236.266718 258.363599 
L 236.403243 260.819548 
L 236.539767 258.98558 
L 236.676291 260.07485 
L 236.812815 259.440408 
L 236.949339 260.026266 
L 237.085864 259.074093 
L 237.222388 260.550153 
L 237.358912 260.761728 
L 237.495436 260.61903 
L 237.63196 260.042207 
L 237.768484 257.950035 
L 238.041533 261.492775 
L 238.178057 260.006333 
L 238.314581 263.966733 
L 238.451105 261.964808 
L 238.58763 257.569089 
L 238.860678 261.160643 
L 238.997202 260.795574 
L 239.133726 261.988049 
L 239.270251 258.476562 
L 239.406775 260.384994 
L 239.543299 258.593842 
L 239.679823 258.312662 
L 239.816347 261.948366 
L 239.952872 258.469088 
L 240.089396 260.154275 
L 240.22592 258.874411 
L 240.362444 260.56592 
L 240.498968 260.323391 
L 240.635493 260.628486 
L 240.772017 260.552312 
L 240.908541 260.235244 
L 241.045065 257.904542 
L 241.181589 258.74858 
L 241.318114 258.435431 
L 241.591162 258.848542 
L 241.86421 260.920456 
L 242.000735 259.32121 
L 242.137259 261.753376 
L 242.273783 259.4031 
L 242.410307 259.822189 
L 242.546831 259.599306 
L 242.683356 261.572143 
L 242.81988 261.189082 
L 242.956404 259.683348 
L 243.092928 259.982199 
L 243.229452 258.318359 
L 243.365977 260.711719 
L 243.502501 259.012771 
L 243.639025 258.910676 
L 243.775549 259.971266 
L 243.912073 258.825348 
L 244.048598 262.307027 
L 244.321646 259.37285 
L 244.45817 262.777864 
L 244.594694 259.408071 
L 244.731219 260.681235 
L 244.867743 264.338255 
L 245.004267 261.440315 
L 245.140791 262.68689 
L 245.41384 261.33536 
L 245.550364 260.849253 
L 245.686888 261.253833 
L 245.823412 259.161573 
L 245.959936 261.54772 
L 246.096461 258.406684 
L 246.232985 265.396315 
L 246.369509 263.527026 
L 246.506033 257.860442 
L 246.642557 259.823204 
L 246.779082 258.205871 
L 246.915606 261.308053 
L 247.05213 258.600536 
L 247.188654 258.82985 
L 247.325178 258.563614 
L 247.461703 261.412498 
L 247.734751 258.873248 
L 247.871275 259.544747 
L 248.007799 259.569274 
L 248.144324 260.742555 
L 248.280848 259.250695 
L 248.417372 259.035343 
L 248.553896 259.370543 
L 248.69042 261.165959 
L 248.963469 259.936467 
L 249.099993 259.386618 
L 249.373041 259.902408 
L 249.509566 258.759544 
L 249.64609 259.715097 
L 249.919138 256.76814 
L 250.055662 260.094119 
L 250.192187 260.447359 
L 250.328711 260.330021 
L 250.601759 257.973151 
L 250.738283 261.048316 
L 251.011332 260.063826 
L 251.147856 262.720654 
L 251.28438 261.071112 
L 251.420904 255.870808 
L 251.557429 258.747693 
L 251.693953 258.369902 
L 251.830477 258.902011 
L 251.967001 258.604057 
L 252.103525 259.862526 
L 252.376574 256.728 
L 252.513098 260.827681 
L 252.786146 258.179071 
L 252.922671 259.107703 
L 253.059195 264.317547 
L 253.195719 257.0477 
L 253.332243 260.258233 
L 253.468767 258.364081 
L 253.87834 261.358914 
L 254.014864 259.087754 
L 254.151388 258.943654 
L 254.424437 259.945821 
L 254.560961 259.653391 
L 254.697485 258.78376 
L 254.970534 260.344912 
L 255.107058 259.061432 
L 255.243582 261.89298 
L 255.380106 258.878307 
L 255.51663 260.527323 
L 255.653155 258.153399 
L 255.789679 259.224491 
L 255.926203 258.488224 
L 256.062727 259.041759 
L 256.199251 260.128387 
L 256.4723 256.637764 
L 256.608824 257.655799 
L 256.745348 259.563893 
L 256.881872 257.052321 
L 257.018397 258.465749 
L 257.154921 257.735605 
L 257.427969 260.891743 
L 257.564493 258.045541 
L 257.701018 259.028568 
L 257.837542 257.690294 
L 257.974066 257.822661 
L 258.11059 259.405644 
L 258.247114 258.636404 
L 258.383639 260.91138 
L 258.520163 258.658511 
L 258.656687 261.132445 
L 258.793211 257.703576 
L 259.06626 260.912793 
L 259.202784 260.485229 
L 259.339308 259.332448 
L 259.612356 260.406927 
L 259.885405 258.058128 
L 260.021929 264.758402 
L 260.294977 258.26114 
L 260.431502 258.370826 
L 260.568026 262.815502 
L 260.70455 260.378865 
L 260.841074 261.181165 
L 260.977598 260.427078 
L 261.114123 258.713736 
L 261.250647 259.393781 
L 261.387171 257.779109 
L 261.523695 259.649561 
L 261.660219 259.482917 
L 261.933268 260.222492 
L 262.069792 261.443192 
L 262.206316 260.254744 
L 262.34284 257.939034 
L 262.479365 259.588728 
L 262.752413 256.858956 
L 262.888937 259.333077 
L 263.025461 258.008807 
L 263.161986 258.840119 
L 263.29851 258.298757 
L 263.435034 259.267655 
L 263.571558 257.672257 
L 263.708082 259.902706 
L 263.844607 258.140233 
L 264.117655 260.14988 
L 264.254179 257.427641 
L 264.390703 259.280899 
L 264.527228 256.985998 
L 264.800276 261.279032 
L 264.9368 259.706501 
L 265.073324 256.825227 
L 265.209849 258.3267 
L 265.346373 257.717374 
L 265.482897 259.380211 
L 265.619421 258.89622 
L 265.755945 257.909076 
L 266.302042 261.152119 
L 266.438566 258.256083 
L 266.575091 259.244122 
L 266.711615 258.4749 
L 266.848139 264.149566 
L 266.984663 259.342916 
L 267.121187 259.33408 
L 267.257712 259.757063 
L 267.394236 258.921389 
L 267.667284 261.040982 
L 267.940332 259.043624 
L 268.076857 261.008595 
L 268.213381 259.094311 
L 268.349905 260.772763 
L 268.622953 258.972359 
L 268.759478 264.290765 
L 269.032526 259.876544 
L 269.442099 258.451987 
L 269.578623 260.499056 
L 269.851671 257.712513 
L 270.12472 261.10541 
L 270.261244 260.806665 
L 270.397768 258.226932 
L 270.670816 262.21971 
L 270.807341 257.020995 
L 271.080389 258.041007 
L 271.216913 260.447866 
L 271.353437 260.658128 
L 271.489962 259.944426 
L 271.626486 260.301804 
L 271.76301 261.708402 
L 271.899534 258.705407 
L 272.036058 262.859315 
L 272.172583 259.756339 
L 272.309107 260.937101 
L 272.445631 257.608936 
L 272.582155 260.74728 
L 272.718679 259.874381 
L 272.855204 260.75265 
L 273.128252 259.24279 
L 273.264776 259.200265 
L 273.4013 262.340304 
L 273.674349 257.462321 
L 273.947397 261.169135 
L 274.220446 258.444586 
L 274.35697 259.954326 
L 274.493494 259.962091 
L 274.766542 257.159176 
L 274.903067 259.635638 
L 275.039591 259.530129 
L 275.312639 260.046717 
L 275.449163 260.798522 
L 275.585688 262.220807 
L 275.858736 258.524782 
L 275.99526 260.088332 
L 276.131784 260.051582 
L 276.268309 258.7295 
L 276.404833 259.868999 
L 276.541357 259.245145 
L 276.814405 261.519432 
L 277.087454 258.524347 
L 277.223978 258.939315 
L 277.360502 261.012514 
L 277.497026 260.596538 
L 277.633551 259.566407 
L 277.770075 259.772067 
L 277.906599 260.322684 
L 278.043123 261.467463 
L 278.316172 259.513787 
L 278.452696 260.853261 
L 278.58922 260.265248 
L 278.862268 258.360402 
L 278.998793 260.499562 
L 279.135317 257.395722 
L 279.271841 260.145488 
L 279.408365 259.357576 
L 279.544889 259.70105 
L 279.681414 259.148832 
L 279.817938 261.30839 
L 279.954462 258.557879 
L 280.090986 259.063184 
L 280.22751 261.282262 
L 280.500559 259.144076 
L 280.773607 262.589578 
L 280.910131 258.311011 
L 281.18318 262.216611 
L 281.319704 259.868265 
L 281.456228 260.5687 
L 281.729277 258.173722 
L 281.865801 260.046316 
L 282.138849 259.274278 
L 282.275373 260.684414 
L 282.411898 258.816892 
L 282.548422 258.865757 
L 282.684946 260.793488 
L 282.82147 259.582043 
L 282.957994 261.074049 
L 283.094519 258.984815 
L 283.367567 260.28724 
L 283.504091 257.426909 
L 283.640615 257.894948 
L 283.913664 259.814985 
L 284.050188 258.375443 
L 284.186712 259.140969 
L 284.323236 261.231378 
L 284.459761 258.755982 
L 284.596285 258.353682 
L 284.732809 258.80999 
L 284.869333 259.73016 
L 285.142382 256.930034 
L 285.278906 258.704615 
L 285.41543 263.624452 
L 285.551954 258.879108 
L 285.688478 261.020323 
L 285.825003 259.880678 
L 286.098051 257.051799 
L 286.234575 259.858294 
L 286.371099 259.432281 
L 286.507624 261.357669 
L 286.644148 261.606069 
L 286.780672 260.410744 
L 286.917196 257.400925 
L 287.326769 259.115276 
L 287.463293 258.795405 
L 287.599817 259.535366 
L 287.736341 258.951961 
L 287.872866 258.8613 
L 288.00939 258.009151 
L 288.145914 258.352016 
L 288.282438 258.153397 
L 288.418962 259.462896 
L 288.692011 256.0319 
L 288.828535 260.14237 
L 288.965059 259.016232 
L 289.101583 259.94183 
L 289.238108 258.680676 
L 289.374632 260.448848 
L 289.511156 259.118028 
L 289.64768 259.51392 
L 289.784204 261.354366 
L 290.057253 258.823939 
L 290.193777 259.548546 
L 290.466825 261.479902 
L 290.60335 261.27484 
L 290.739874 258.875181 
L 290.876398 261.536756 
L 291.012922 261.169641 
L 291.149446 258.804343 
L 291.285971 261.847237 
L 291.422495 260.471041 
L 291.559019 262.161379 
L 291.695543 259.757309 
L 291.832067 259.454249 
L 292.105116 260.137727 
L 292.24164 259.554567 
L 292.378164 256.895689 
L 292.514688 260.63399 
L 292.651213 259.553594 
L 292.787737 260.305793 
L 292.924261 257.692264 
L 293.060785 260.447537 
L 293.197309 258.943863 
L 293.333834 261.023902 
L 293.470358 259.206173 
L 293.606882 259.007002 
L 293.743406 258.539969 
L 293.87993 260.248195 
L 294.152979 257.768817 
L 294.289503 258.325459 
L 294.426027 258.022211 
L 294.699076 259.685229 
L 294.8356 258.639642 
L 294.972124 259.645269 
L 295.108648 259.004964 
L 295.245172 260.01855 
L 295.381697 259.466184 
L 295.518221 259.902425 
L 295.654745 257.985308 
L 295.791269 259.381709 
L 295.927793 258.588157 
L 296.337366 260.335704 
L 296.47389 259.979777 
L 296.746939 258.553434 
L 297.019987 259.454506 
L 297.156511 258.022511 
L 297.42956 261.12755 
L 297.566084 258.901055 
L 297.702608 259.639713 
L 297.839132 259.016849 
L 297.975656 258.927099 
L 298.11218 257.928542 
L 298.248705 259.964966 
L 298.385229 257.674933 
L 298.521753 257.281439 
L 298.658277 261.665959 
L 298.794801 260.126436 
L 298.931326 261.94587 
L 299.477422 259.480876 
L 299.613947 259.66207 
L 299.750471 262.512666 
L 299.886995 260.735831 
L 300.023519 256.948214 
L 300.296568 261.614172 
L 300.433092 260.173842 
L 300.569616 260.066935 
L 300.70614 259.680414 
L 300.842664 260.354234 
L 301.115713 258.733197 
L 301.252237 258.966091 
L 301.388761 260.864908 
L 301.525285 259.893578 
L 301.66181 257.915309 
L 301.934858 259.762928 
L 302.071382 260.647649 
L 302.344431 256.841046 
L 302.480955 259.434537 
L 302.617479 259.534558 
L 302.754003 260.034005 
L 303.027052 259.164724 
L 303.163576 257.97658 
L 303.573148 261.419791 
L 303.709673 260.637905 
L 303.846197 261.354716 
L 304.255769 257.827305 
L 304.392294 260.781901 
L 304.528818 259.971766 
L 304.665342 260.797313 
L 304.801866 259.963811 
L 304.93839 260.875951 
L 305.074915 259.31515 
L 305.211439 261.30177 
L 305.347963 260.578112 
L 305.484487 260.753373 
L 305.621011 259.050734 
L 305.757536 259.625501 
L 305.89406 261.510393 
L 306.030584 259.891219 
L 306.167108 259.821816 
L 306.303632 258.203791 
L 306.440157 259.955773 
L 306.576681 260.185847 
L 306.713205 259.948854 
L 306.849729 259.111101 
L 306.986253 261.82472 
L 307.122778 259.165476 
L 307.259302 260.602034 
L 307.395826 257.367555 
L 307.668874 258.523982 
L 307.805399 256.054921 
L 307.941923 255.890513 
L 308.078447 259.073979 
L 308.351495 259.798354 
L 308.48802 259.030964 
L 308.761068 260.319499 
L 308.897592 260.528035 
L 309.170641 259.679434 
L 309.307165 256.816156 
L 309.443689 259.220963 
L 309.580213 259.148747 
L 309.853262 260.808273 
L 310.12631 258.839574 
L 310.262834 258.025954 
L 310.535883 259.88691 
L 310.672407 259.617932 
L 310.808931 257.104355 
L 310.945455 260.889372 
L 311.218504 259.884497 
L 311.355028 259.786143 
L 311.491552 258.359582 
L 311.628076 258.939544 
L 311.901125 260.954908 
L 312.037649 259.032763 
L 312.174173 260.58459 
L 312.310697 259.714259 
L 312.447221 257.450745 
L 312.72027 260.79172 
L 312.993318 257.842927 
L 313.129842 262.560165 
L 313.402891 258.897718 
L 313.539415 259.584059 
L 313.675939 257.851141 
L 313.812463 260.640974 
L 313.948988 260.128775 
L 314.222036 258.487766 
L 314.35856 259.518237 
L 314.495084 258.436385 
L 314.631609 260.216366 
L 314.768133 259.643444 
L 314.904657 259.633568 
L 315.041181 259.234628 
L 315.177705 260.641194 
L 315.31423 259.283114 
L 315.723802 261.224345 
L 315.996851 257.774105 
L 316.269899 261.682823 
L 316.542947 258.341596 
L 316.679472 257.78529 
L 316.815996 260.597494 
L 316.95252 260.447272 
L 317.089044 259.510166 
L 317.362093 260.109226 
L 317.635141 259.144769 
L 317.771665 260.94119 
L 317.908189 258.285782 
L 318.044714 260.299657 
L 318.181238 259.424947 
L 318.317762 259.504356 
L 318.454286 259.11152 
L 318.59081 259.116099 
L 318.727335 260.09433 
L 318.863859 259.193356 
L 319.000383 259.437899 
L 319.136907 259.285672 
L 319.273431 260.673717 
L 319.409956 258.386957 
L 319.819528 260.292604 
L 319.956052 258.696855 
L 320.092577 259.615301 
L 320.365625 258.63586 
L 320.502149 257.744564 
L 320.638673 260.364895 
L 320.775198 258.546105 
L 320.911722 259.105359 
L 321.048246 258.926145 
L 321.18477 258.33491 
L 321.321294 259.89448 
L 321.457819 259.513409 
L 321.594343 261.658018 
L 321.730867 259.706723 
L 322.003915 260.153088 
L 322.14044 259.033491 
L 322.276964 259.976407 
L 322.550012 258.923953 
L 322.686536 259.816604 
L 322.959585 259.480963 
L 323.096109 259.395809 
L 323.232633 257.934211 
L 323.369157 258.446644 
L 323.505682 260.667071 
L 323.642206 260.089025 
L 323.77873 258.94647 
L 323.915254 259.807149 
L 324.051778 259.01925 
L 324.324827 260.29829 
L 324.461351 257.963344 
L 324.597875 259.674098 
L 324.734399 258.365536 
L 324.870924 260.324001 
L 325.007448 258.664454 
L 325.280496 260.354693 
L 325.41702 261.663437 
L 325.963117 257.150008 
L 326.099641 258.257012 
L 326.236166 261.49847 
L 326.37269 260.259706 
L 326.509214 260.341985 
L 326.645738 256.97844 
L 326.782262 261.056213 
L 326.918787 260.712 
L 327.055311 258.584714 
L 327.191835 258.793257 
L 327.328359 260.366234 
L 327.464883 258.740339 
L 327.601408 260.237234 
L 327.737932 260.346088 
L 327.874456 262.255221 
L 328.01098 260.993005 
L 328.147504 261.803559 
L 328.284028 260.709911 
L 328.420553 257.926417 
L 328.557077 259.396668 
L 328.830125 259.023358 
L 329.103174 260.006464 
L 329.239698 257.57288 
L 329.512746 261.924 
L 329.64927 257.20766 
L 329.922319 261.384345 
L 330.195367 258.051263 
L 330.331891 260.514381 
L 330.468416 260.45527 
L 330.60494 258.67969 
L 330.741464 260.051943 
L 330.877988 256.343508 
L 331.014512 260.430532 
L 331.151037 258.204722 
L 331.287561 258.827164 
L 331.424085 258.844283 
L 331.833658 261.383446 
L 331.970182 259.337909 
L 332.106706 259.442841 
L 332.24323 258.467129 
L 332.379754 260.256262 
L 332.516279 260.529105 
L 332.652803 260.328602 
L 332.925851 258.933549 
L 333.062375 257.862786 
L 333.335424 261.1413 
L 333.471948 260.639586 
L 333.608472 259.709727 
L 333.744996 259.687137 
L 333.881521 260.419878 
L 334.018045 258.053453 
L 334.291093 260.493633 
L 334.564142 258.372541 
L 334.700666 258.587906 
L 334.83719 259.011723 
L 334.973714 258.097312 
L 335.110238 258.317295 
L 335.246763 261.725235 
L 335.383287 257.57973 
L 335.656335 259.95299 
L 335.792859 259.380518 
L 335.929384 256.344973 
L 336.065908 258.378081 
L 336.202432 258.108375 
L 336.338956 258.200993 
L 336.47548 261.192669 
L 336.612005 258.437155 
L 336.748529 259.134486 
L 336.885053 258.247881 
L 337.021577 259.760618 
L 337.158101 259.724538 
L 337.294626 260.70592 
L 337.43115 259.565754 
L 337.567674 259.931954 
L 337.704198 259.160266 
L 337.977247 260.621432 
L 338.113771 259.81395 
L 338.250295 260.971616 
L 338.386819 260.368633 
L 338.523343 260.64166 
L 338.659868 260.439413 
L 338.932916 257.839272 
L 339.06944 258.339312 
L 339.342489 261.146068 
L 339.479013 259.379352 
L 339.752061 260.508548 
L 339.888585 259.175913 
L 340.02511 260.653555 
L 340.298158 260.727922 
L 340.434682 257.055162 
L 340.571206 261.080408 
L 340.707731 258.857826 
L 340.844255 259.706991 
L 340.980779 262.458362 
L 341.117303 260.733013 
L 341.253827 261.407322 
L 341.390352 259.054986 
L 341.526876 260.825376 
L 341.6634 260.943729 
L 341.936448 260.157423 
L 342.072973 260.693887 
L 342.346021 260.377436 
L 342.482545 258.182201 
L 342.619069 260.74843 
L 342.755594 259.416287 
L 342.892118 260.708374 
L 343.028642 260.793494 
L 343.165166 261.692305 
L 343.30169 258.695347 
L 343.438215 258.733031 
L 343.711263 260.173665 
L 343.847787 258.928357 
L 344.25736 260.265615 
L 344.393884 259.880849 
L 344.666932 257.551995 
L 345.076505 260.417803 
L 345.213029 258.407575 
L 345.349553 259.920703 
L 345.486078 259.397469 
L 345.622602 259.440887 
L 345.759126 259.897541 
L 345.89565 259.7942 
L 346.032174 257.83213 
L 346.168699 261.917708 
L 346.305223 258.978933 
L 346.441747 260.526729 
L 346.714795 260.525943 
L 346.85132 261.72779 
L 346.987844 259.633685 
L 347.124368 261.931334 
L 347.397416 257.971746 
L 347.533941 260.185276 
L 347.670465 256.759595 
L 347.943513 260.441116 
L 348.080037 259.776218 
L 348.216562 258.212103 
L 348.353086 260.329125 
L 348.48961 258.846266 
L 348.762658 261.464338 
L 348.899183 261.208101 
L 349.035707 260.511348 
L 349.172231 257.963366 
L 349.308755 261.778666 
L 349.445279 260.445599 
L 349.581804 261.700209 
L 349.991376 258.984452 
L 350.1279 260.323663 
L 350.264425 259.832493 
L 350.400949 261.378733 
L 350.537473 260.013217 
L 350.673997 260.611108 
L 350.810521 260.124517 
L 350.947046 260.253588 
L 351.08357 259.836969 
L 351.220094 262.255917 
L 351.356618 261.682444 
L 351.629667 259.721117 
L 352.039239 261.420719 
L 352.312288 258.389663 
L 352.448812 261.710669 
L 352.585336 259.683491 
L 352.72186 261.207465 
L 352.994909 260.1388 
L 353.131433 261.749748 
L 353.267957 259.118618 
L 353.404481 260.244984 
L 353.541005 259.397089 
L 353.814054 259.960983 
L 353.950578 261.595483 
L 354.087102 258.876785 
L 354.223626 259.683247 
L 354.360151 261.511786 
L 354.496675 258.748469 
L 354.633199 261.348418 
L 354.769723 261.017304 
L 354.906247 261.911831 
L 355.042772 258.609766 
L 355.179296 261.338906 
L 355.31582 261.64453 
L 355.452344 260.064919 
L 355.588868 261.618239 
L 355.725393 258.165462 
L 355.861917 260.175615 
L 356.134965 259.872947 
L 356.271489 257.639167 
L 356.408014 259.139785 
L 356.544538 259.075154 
L 356.681062 259.53634 
L 356.817586 261.152902 
L 356.95411 258.095518 
L 357.227159 260.27208 
L 357.500207 260.608154 
L 357.636731 258.063465 
L 357.773256 260.282486 
L 357.90978 260.187082 
L 358.046304 258.486708 
L 358.182828 260.402419 
L 358.319352 258.722975 
L 358.455877 261.110956 
L 358.592401 261.149466 
L 358.728925 260.162753 
L 358.865449 260.300345 
L 359.001973 259.352509 
L 359.138497 259.705211 
L 359.275022 261.119942 
L 359.54807 260.522865 
L 359.821118 258.973392 
L 359.957643 261.230146 
L 360.094167 258.672775 
L 360.230691 258.339898 
L 360.640264 259.736104 
L 360.776788 258.807525 
L 360.913312 261.235924 
L 361.049836 256.116586 
L 361.18636 261.456109 
L 361.322885 261.550541 
L 361.459409 262.302549 
L 361.595933 260.894698 
L 361.732457 263.349562 
L 361.868981 260.214931 
L 362.005506 261.064988 
L 362.14203 263.214754 
L 362.278554 260.242184 
L 362.415078 259.958182 
L 362.551602 260.543378 
L 362.688127 259.808949 
L 362.824651 260.068016 
L 362.961175 258.100836 
L 363.234223 260.49597 
L 363.370748 260.744259 
L 363.507272 261.819329 
L 363.78032 258.848023 
L 363.916844 258.85835 
L 364.053369 261.368391 
L 364.189893 258.485115 
L 364.462941 261.965338 
L 364.599465 260.924209 
L 364.73599 256.88124 
L 364.872514 261.3477 
L 365.009038 259.495845 
L 365.282086 259.117325 
L 365.418611 261.352847 
L 365.691659 258.789575 
L 366.101232 261.854852 
L 366.237756 259.971754 
L 366.37428 263.975287 
L 366.647328 259.819071 
L 366.783853 261.748417 
L 366.920377 259.345953 
L 367.056901 260.557517 
L 367.193425 256.788353 
L 367.466474 261.005292 
L 367.602998 259.611573 
L 367.739522 259.88024 
L 367.876046 259.652699 
L 368.01257 258.322745 
L 368.285619 261.641786 
L 368.422143 261.214761 
L 368.558667 259.793477 
L 368.695191 260.998239 
L 368.831716 257.318564 
L 368.96824 260.2393 
L 369.104764 257.918805 
L 369.377812 260.790187 
L 369.514337 260.76738 
L 369.650861 261.263266 
L 369.787385 258.208925 
L 369.923909 259.721073 
L 370.060433 259.82565 
L 370.196958 262.202258 
L 370.60653 258.319433 
L 370.743054 260.675857 
L 370.879579 259.111009 
L 371.016103 260.772904 
L 371.152627 257.578703 
L 371.289151 258.837414 
L 371.425675 258.899592 
L 371.5622 261.375461 
L 371.698724 259.463131 
L 371.835248 261.392152 
L 371.971772 259.244442 
L 372.108296 260.648038 
L 372.244821 259.205555 
L 372.517869 260.785102 
L 372.654393 258.293582 
L 372.790917 258.152279 
L 372.927442 260.362169 
L 373.063966 260.440295 
L 373.20049 261.367232 
L 373.337014 260.086464 
L 373.473538 262.199504 
L 373.746587 258.654496 
L 373.883111 261.162544 
L 374.019635 257.604662 
L 374.429208 262.917176 
L 374.565732 262.63701 
L 374.975305 257.227546 
L 375.111829 257.93634 
L 375.248353 260.185422 
L 375.521401 258.175293 
L 375.657926 257.795216 
L 375.930974 261.37465 
L 376.340547 257.609904 
L 376.750119 261.894319 
L 377.159692 257.213784 
L 377.43274 260.025812 
L 377.569264 258.95486 
L 377.705789 260.395401 
L 377.978837 258.062826 
L 378.115361 256.980883 
L 378.251885 258.735965 
L 378.38841 258.735231 
L 378.661458 260.789448 
L 378.797982 259.694557 
L 378.934506 261.419591 
L 379.071031 260.844547 
L 379.207555 257.802995 
L 379.344079 258.872328 
L 379.480603 258.446703 
L 379.617127 259.931993 
L 379.753652 259.408132 
L 379.890176 260.661178 
L 380.0267 260.422383 
L 380.163224 258.429153 
L 380.299748 262.113487 
L 380.572797 258.483076 
L 380.709321 260.321448 
L 380.845845 258.514127 
L 380.982369 259.216495 
L 381.118894 260.698728 
L 381.255418 260.598733 
L 381.391942 260.183062 
L 381.528466 260.594519 
L 381.66499 259.835676 
L 381.801515 260.160849 
L 381.938039 258.229875 
L 382.074563 259.48105 
L 382.211087 258.900032 
L 382.347611 260.754138 
L 382.484136 258.499954 
L 382.62066 260.517659 
L 382.757184 260.398024 
L 382.893708 261.006576 
L 383.030232 259.854666 
L 383.166757 262.085107 
L 383.303281 260.406365 
L 383.439805 260.432654 
L 383.712853 259.81536 
L 383.849378 258.228152 
L 383.985902 261.080306 
L 384.122426 258.771728 
L 384.25895 260.220636 
L 384.395474 260.437841 
L 384.531999 258.9952 
L 384.668523 259.494658 
L 384.668523 259.494658 
" style="fill:none;stroke:#1f77b4;stroke-linecap:square;stroke-width:0.5;"/>
   </g>
   <g id="patch_3">
    <path d="M 43.78125 288.430125 
L 43.78125 22.318125 
" style="fill:none;stroke:#000000;stroke-linecap:square;stroke-linejoin:miter;stroke-width:0.8;"/>
   </g>
   <g id="patch_4">
    <path d="M 400.90125 288.430125 
L 400.90125 22.318125 
" style="fill:none;stroke:#000000;stroke-linecap:square;stroke-linejoin:miter;stroke-width:0.8;"/>
   </g>
   <g id="patch_5">
    <path d="M 43.78125 288.430125 
L 400.90125 288.430125 
" style="fill:none;stroke:#000000;stroke-linecap:square;stroke-linejoin:miter;stroke-width:0.8;"/>
   </g>
   <g id="patch_6">
    <path d="M 43.78125 22.318125 
L 400.90125 22.318125 
" style="fill:none;stroke:#000000;stroke-linecap:square;stroke-linejoin:miter;stroke-width:0.8;"/>
   </g>
   <g id="text_14">
    <!-- Undiscounted return obtained -->
    <defs>
     <path d="M 8.6875 72.90625 
L 18.609375 72.90625 
L 18.609375 28.609375 
Q 18.609375 16.890625 22.84375 11.734375 
Q 27.09375 6.59375 36.625 6.59375 
Q 46.09375 6.59375 50.34375 11.734375 
Q 54.59375 16.890625 54.59375 28.609375 
L 54.59375 72.90625 
L 64.5 72.90625 
L 64.5 27.390625 
Q 64.5 13.140625 57.4375 5.859375 
Q 50.390625 -1.421875 36.625 -1.421875 
Q 22.796875 -1.421875 15.734375 5.859375 
Q 8.6875 13.140625 8.6875 27.390625 
z
" id="DejaVuSans-55"/>
     <path d="M 48.6875 27.296875 
Q 48.6875 37.203125 44.609375 42.84375 
Q 40.53125 48.484375 33.40625 48.484375 
Q 26.265625 48.484375 22.1875 42.84375 
Q 18.109375 37.203125 18.109375 27.296875 
Q 18.109375 17.390625 22.1875 11.75 
Q 26.265625 6.109375 33.40625 6.109375 
Q 40.53125 6.109375 44.609375 11.75 
Q 48.6875 17.390625 48.6875 27.296875 
z
M 18.109375 46.390625 
Q 20.953125 51.265625 25.265625 53.625 
Q 29.59375 56 35.59375 56 
Q 45.5625 56 51.78125 48.09375 
Q 58.015625 40.1875 58.015625 27.296875 
Q 58.015625 14.40625 51.78125 6.484375 
Q 45.5625 -1.421875 35.59375 -1.421875 
Q 29.59375 -1.421875 25.265625 0.953125 
Q 20.953125 3.328125 18.109375 8.203125 
L 18.109375 0 
L 9.078125 0 
L 9.078125 75.984375 
L 18.109375 75.984375 
z
" id="DejaVuSans-62"/>
     <path d="M 34.28125 27.484375 
Q 23.390625 27.484375 19.1875 25 
Q 14.984375 22.515625 14.984375 16.5 
Q 14.984375 11.71875 18.140625 8.90625 
Q 21.296875 6.109375 26.703125 6.109375 
Q 34.1875 6.109375 38.703125 11.40625 
Q 43.21875 16.703125 43.21875 25.484375 
L 43.21875 27.484375 
z
M 52.203125 31.203125 
L 52.203125 0 
L 43.21875 0 
L 43.21875 8.296875 
Q 40.140625 3.328125 35.546875 0.953125 
Q 30.953125 -1.421875 24.3125 -1.421875 
Q 15.921875 -1.421875 10.953125 3.296875 
Q 6 8.015625 6 15.921875 
Q 6 25.140625 12.171875 29.828125 
Q 18.359375 34.515625 30.609375 34.515625 
L 43.21875 34.515625 
L 43.21875 35.40625 
Q 43.21875 41.609375 39.140625 45 
Q 35.0625 48.390625 27.6875 48.390625 
Q 23 48.390625 18.546875 47.265625 
Q 14.109375 46.140625 10.015625 43.890625 
L 10.015625 52.203125 
Q 14.9375 54.109375 19.578125 55.046875 
Q 24.21875 56 28.609375 56 
Q 40.484375 56 46.34375 49.84375 
Q 52.203125 43.703125 52.203125 31.203125 
z
" id="DejaVuSans-61"/>
    </defs>
    <g transform="translate(132.244687 16.318125)scale(0.12 -0.12)">
     <use xlink:href="#DejaVuSans-55"/>
     <use x="73.193359" xlink:href="#DejaVuSans-6e"/>
     <use x="136.572266" xlink:href="#DejaVuSans-64"/>
     <use x="200.048828" xlink:href="#DejaVuSans-69"/>
     <use x="227.832031" xlink:href="#DejaVuSans-73"/>
     <use x="279.931641" xlink:href="#DejaVuSans-63"/>
     <use x="334.912109" xlink:href="#DejaVuSans-6f"/>
     <use x="396.09375" xlink:href="#DejaVuSans-75"/>
     <use x="459.472656" xlink:href="#DejaVuSans-6e"/>
     <use x="522.851562" xlink:href="#DejaVuSans-74"/>
     <use x="562.060547" xlink:href="#DejaVuSans-65"/>
     <use x="623.583984" xlink:href="#DejaVuSans-64"/>
     <use x="687.060547" xlink:href="#DejaVuSans-20"/>
     <use x="718.847656" xlink:href="#DejaVuSans-72"/>
     <use x="759.929688" xlink:href="#DejaVuSans-65"/>
     <use x="821.453125" xlink:href="#DejaVuSans-74"/>
     <use x="860.662109" xlink:href="#DejaVuSans-75"/>
     <use x="924.041016" xlink:href="#DejaVuSans-72"/>
     <use x="965.138672" xlink:href="#DejaVuSans-6e"/>
     <use x="1028.517578" xlink:href="#DejaVuSans-20"/>
     <use x="1060.304688" xlink:href="#DejaVuSans-6f"/>
     <use x="1121.486328" xlink:href="#DejaVuSans-62"/>
     <use x="1184.962891" xlink:href="#DejaVuSans-74"/>
     <use x="1224.171875" xlink:href="#DejaVuSans-61"/>
     <use x="1285.451172" xlink:href="#DejaVuSans-69"/>
     <use x="1313.234375" xlink:href="#DejaVuSans-6e"/>
     <use x="1376.613281" xlink:href="#DejaVuSans-65"/>
     <use x="1438.136719" xlink:href="#DejaVuSans-64"/>
    </g>
   </g>
  </g>
 </g>
 <defs>
  <clipPath id="p4e3ca07e70">
   <rect height="266.112" width="357.12" x="43.78125" y="22.318125"/>
  </clipPath>
 </defs>
</svg>
