<?xml version="1.0" encoding="utf-8" standalone="no"?>
<!DOCTYPE svg PUBLIC "-//W3C//DTD SVG 1.1//EN"
  "http://www.w3.org/Graphics/SVG/1.1/DTD/svg11.dtd">
<!-- Created with matplotlib (http://matplotlib.org/) -->
<svg height="408pt" version="1.1" viewBox="0 0 511 408" width="511pt" xmlns="http://www.w3.org/2000/svg" xmlns:xlink="http://www.w3.org/1999/xlink">
 <defs>
  <style type="text/css">
*{stroke-linecap:butt;stroke-linejoin:round;stroke-miterlimit:100000;}
  </style>
 </defs>
 <g id="figure_1">
  <g id="patch_1">
   <path d="M 0 408.16925 
L 511.95 408.16925 
L 511.95 0 
L 0 0 
z
" style="fill:#ffffff;"/>
  </g>
  <g id="axes_1">
   <g id="patch_2">
    <path d="M 46.8975 368.74175 
L 493.2975 368.74175 
L 493.2975 23.14175 
L 46.8975 23.14175 
z
" style="fill:#ffffff;"/>
   </g>
   <g id="line2d_1">
    <path clip-path="url(#p6fe7503be7)" d="M 47.3935 247.298558 
L 47.8895 266.059422 
L 48.3855 215.780871 
L 48.8815 234.906369 
L 49.3775 268.71038 
L 49.8735 274.652141 
L 50.3695 194.659592 
L 50.8655 203.877745 
L 51.3615 260.839163 
L 51.8575 272.532747 
L 52.3535 293.690909 
L 52.8495 190.6839 
L 53.3455 246.207674 
L 53.8415 183.394595 
L 54.8335 248.789878 
L 55.3295 208.457628 
L 55.8255 254.761055 
L 56.3215 140.050435 
L 57.3135 248.871884 
L 57.8095 158.296063 
L 58.3055 160.169535 
L 58.8015 255.359105 
L 59.2975 150.312748 
L 59.7935 226.962462 
L 60.2895 221.472094 
L 60.7855 297.567852 
L 61.2815 183.308176 
L 61.7775 275.492836 
L 62.2735 270.908716 
L 62.7695 257.388255 
L 63.2655 257.351032 
L 63.7615 270.202309 
L 64.2575 242.153081 
L 64.7535 293.87771 
L 65.2495 252.771067 
L 65.7455 164.637635 
L 66.2415 100.840902 
L 66.7375 207.676674 
L 67.2335 157.062145 
L 67.7295 242.473688 
L 68.2255 159.875144 
L 68.7215 183.471801 
L 69.2175 285.661928 
L 69.7135 127.069031 
L 70.7055 291.136917 
L 71.2015 276.412131 
L 71.6975 189.347463 
L 72.1935 228.333991 
L 72.6895 247.296395 
L 73.1855 165.744336 
L 73.6815 184.356317 
L 74.1775 230.916961 
L 74.6735 202.727729 
L 75.1695 255.811483 
L 75.6655 214.956855 
L 76.1615 163.062397 
L 76.6575 241.541465 
L 77.1535 274.957555 
L 77.6495 272.97569 
L 78.1455 211.108089 
L 78.6415 207.783712 
L 79.1375 223.70831 
L 79.6335 321.086295 
L 80.1295 226.967846 
L 80.6255 170.721911 
L 81.1215 171.12362 
L 81.6175 143.672805 
L 82.1135 180.1825 
L 82.6095 274.217717 
L 83.1055 165.660589 
L 83.6015 138.29616 
L 84.0975 193.521836 
L 84.5935 161.980776 
L 85.0895 168.350547 
L 85.5855 263.605044 
L 86.0815 244.893682 
L 86.5775 272.267589 
L 87.0735 274.715581 
L 87.5695 176.748529 
L 88.5615 247.83521 
L 89.5535 135.555288 
L 90.0495 180.357696 
L 90.5455 325.554492 
L 91.0415 165.661824 
L 91.5375 216.818458 
L 92.0335 184.745148 
L 92.5295 255.818638 
L 93.0255 196.118684 
L 93.5215 233.067814 
L 94.0175 238.28851 
L 94.5135 195.736207 
L 95.0095 193.866173 
L 95.5055 262.767682 
L 96.0015 218.190042 
L 96.4975 324.878499 
L 96.9935 252.121849 
L 97.4895 231.795829 
L 97.9855 206.448534 
L 98.4815 258.96649 
L 98.9775 184.551068 
L 99.4735 188.281051 
L 99.9695 206.982174 
L 100.4655 193.387269 
L 100.9615 165.99426 
L 101.4575 166.697559 
L 101.9535 233.707886 
L 102.4495 251.288014 
L 102.9455 216.976581 
L 103.4415 255.409909 
L 103.9375 319.189904 
L 104.4335 95.531737 
L 104.9295 241.534292 
L 105.4255 244.954586 
L 105.9215 159.421716 
L 106.4175 217.448389 
L 106.9135 244.946367 
L 107.4095 235.147423 
L 107.9055 221.342143 
L 108.4015 234.70997 
L 108.8975 147.200981 
L 109.3935 185.458031 
L 109.8895 213.467644 
L 110.3855 215.681759 
L 110.8815 165.892537 
L 111.3775 284.120039 
L 112.3695 205.578398 
L 112.8655 188.251381 
L 113.3615 203.374556 
L 113.8575 289.267902 
L 114.3535 308.226005 
L 114.8495 236.154052 
L 115.8415 205.233906 
L 116.3375 257.189704 
L 117.3295 226.483429 
L 117.8255 259.138485 
L 118.3215 209.348485 
L 118.8175 237.978678 
L 119.3135 273.552698 
L 119.8095 286.994183 
L 120.3055 277.224289 
L 120.8015 199.275915 
L 121.2975 281.960589 
L 121.7935 178.680666 
L 122.2895 257.245052 
L 122.7855 221.280113 
L 123.2815 175.122631 
L 123.7775 202.036158 
L 124.2735 244.931759 
L 124.7695 203.330856 
L 125.2655 201.655803 
L 125.7615 224.840422 
L 126.2575 259.073225 
L 126.7535 154.231491 
L 127.2495 222.945326 
L 127.7455 169.42569 
L 128.2415 240.539585 
L 128.7375 183.035761 
L 129.2335 236.764902 
L 129.7295 223.774542 
L 130.2255 118.335134 
L 130.7215 227.079761 
L 131.2175 232.408945 
L 132.2095 155.460946 
L 132.7055 189.048784 
L 133.2015 155.430516 
L 133.6975 234.89761 
L 134.1935 190.42135 
L 134.6895 229.794964 
L 135.1855 145.514442 
L 135.6815 175.798556 
L 136.1775 161.930604 
L 136.6735 187.708051 
L 137.1695 172.375792 
L 137.6655 195.407269 
L 138.1615 200.734177 
L 138.6575 212.740784 
L 139.1535 291.323725 
L 139.6495 234.574764 
L 140.1455 202.152706 
L 140.6415 271.51251 
L 141.1375 211.483586 
L 141.6335 114.139452 
L 142.1295 241.36572 
L 142.6255 149.159538 
L 143.1215 148.636006 
L 143.6175 131.378246 
L 144.1135 237.601628 
L 144.6095 193.551937 
L 145.1055 270.184682 
L 145.6015 301.537806 
L 146.0975 137.107353 
L 146.5935 190.852281 
L 147.0895 205.270367 
L 147.5855 225.426962 
L 148.0815 212.162413 
L 148.5775 160.434496 
L 149.0735 216.514008 
L 149.5695 236.590052 
L 150.0655 243.664116 
L 150.5615 202.653328 
L 151.0575 86.831797 
L 151.5535 193.773421 
L 152.0495 251.434252 
L 153.0415 120.464141 
L 153.5375 136.915524 
L 154.0335 89.651352 
L 154.5295 247.421008 
L 155.0255 219.262954 
L 155.5215 308.392647 
L 156.0175 264.561743 
L 156.5135 140.765408 
L 157.0095 245.763872 
L 157.5055 245.816435 
L 158.0015 269.414083 
L 158.4975 201.73574 
L 158.9935 111.13336 
L 159.4895 279.412845 
L 160.4815 183.371423 
L 160.9775 280.897501 
L 161.4735 194.379195 
L 161.9695 159.557185 
L 162.9615 197.038706 
L 163.4575 284.790561 
L 163.9535 256.068397 
L 164.4495 172.318255 
L 164.9455 211.842075 
L 165.4415 177.317647 
L 165.9375 210.896052 
L 166.4335 167.568589 
L 166.9295 295.228934 
L 167.4255 160.907195 
L 167.9215 145.628701 
L 168.4175 242.714461 
L 168.9135 271.949239 
L 169.4095 249.729959 
L 170.4015 156.553157 
L 170.8975 148.739836 
L 171.3935 207.577917 
L 171.8895 238.585789 
L 172.3855 110.699153 
L 172.8815 268.737512 
L 173.3775 122.466114 
L 173.8735 221.905365 
L 174.3695 233.606933 
L 174.8655 97.931457 
L 175.3615 272.973233 
L 175.8575 198.660892 
L 176.3535 97.389713 
L 176.8495 95.20727 
L 177.3455 125.93292 
L 177.8415 87.566437 
L 178.3375 150.501541 
L 178.8335 112.026364 
L 179.3295 138.554999 
L 179.8255 144.797006 
L 180.3215 117.798063 
L 180.8175 147.388855 
L 181.3135 228.46445 
L 181.8095 68.401127 
L 182.3055 76.656247 
L 182.8015 104.569352 
L 183.2975 88.922837 
L 183.7935 123.948926 
L 184.2895 69.149529 
L 184.7855 118.985016 
L 185.2815 89.423578 
L 185.7775 171.209445 
L 186.2735 92.64857 
L 186.7695 231.881318 
L 187.2655 75.850532 
L 187.7615 59.288131 
L 188.2575 206.51628 
L 188.7535 96.873807 
L 189.2495 73.825953 
L 189.7455 151.343045 
L 190.2415 126.871598 
L 190.7375 56.092343 
L 191.7295 175.302475 
L 192.2255 76.666507 
L 192.7215 49.832444 
L 193.2175 124.39301 
L 193.7135 80.409666 
L 194.2095 51.817456 
L 194.7055 92.750069 
L 195.2015 85.274764 
L 195.6975 58.924795 
L 196.1935 105.010832 
L 196.6895 48.769468 
L 197.1855 71.145964 
L 197.6815 77.050067 
L 198.1775 77.42315 
L 198.6735 91.010753 
L 199.1695 88.187232 
L 199.6655 41.756164 
L 200.1615 50.927623 
L 200.6575 95.128067 
L 201.1535 120.476493 
L 202.1455 46.692916 
L 202.6415 110.113366 
L 203.1375 144.508514 
L 203.6335 77.401002 
L 204.1295 121.879237 
L 204.6255 57.160558 
L 205.1215 60.970913 
L 205.6175 67.330467 
L 206.1135 40.22592 
L 206.6095 61.093103 
L 207.1055 108.513014 
L 207.6015 60.796917 
L 208.0975 46.00165 
L 208.5935 43.210469 
L 209.0895 90.562821 
L 209.5855 162.682255 
L 210.0815 66.925878 
L 210.5775 64.947847 
L 211.0735 65.111291 
L 211.5695 53.443926 
L 212.0655 61.974103 
L 212.5615 44.98315 
L 213.0575 92.452528 
L 213.5535 51.361333 
L 214.0495 167.716921 
L 214.5455 51.183773 
L 215.0415 129.743641 
L 215.5375 41.820306 
L 216.0335 136.362974 
L 216.5295 57.02014 
L 217.0255 168.082906 
L 217.5215 76.058318 
L 218.0175 274.781056 
L 218.5135 40.446516 
L 219.0095 63.372959 
L 219.5055 70.901396 
L 220.0015 41.662702 
L 220.4975 50.120544 
L 220.9935 40.947571 
L 221.9855 82.043344 
L 222.4815 68.224055 
L 222.9775 65.978067 
L 223.4735 61.577367 
L 223.9695 65.45177 
L 224.4655 238.289403 
L 224.9615 41.113011 
L 225.4575 48.101044 
L 225.9535 64.94443 
L 226.4495 48.641037 
L 226.9455 77.600366 
L 227.4415 37.932995 
L 227.9375 44.46736 
L 228.4335 107.676595 
L 228.9295 77.707125 
L 229.4255 37.485039 
L 229.9215 43.210279 
L 230.4175 40.737067 
L 230.9135 71.377231 
L 231.4095 55.427008 
L 231.9055 161.388339 
L 232.4015 65.304743 
L 232.8975 55.084217 
L 233.3935 73.939635 
L 234.3855 43.415619 
L 234.8815 51.846586 
L 235.3775 135.29453 
L 235.8735 37.036995 
L 236.3695 46.937949 
L 236.8655 60.132264 
L 237.3615 49.79925 
L 237.8575 47.525573 
L 238.3535 42.796118 
L 238.8495 133.088976 
L 239.3455 55.211965 
L 239.8415 47.990225 
L 240.3375 54.104891 
L 240.8335 96.356653 
L 241.3295 106.750061 
L 241.8255 140.867276 
L 242.3215 58.720787 
L 242.8175 36.636864 
L 243.8095 54.599668 
L 244.3055 45.733001 
L 244.8015 79.527929 
L 245.2975 95.471734 
L 245.7935 79.77088 
L 246.2895 38.138044 
L 246.7855 38.740429 
L 247.2815 37.337408 
L 247.7775 50.706835 
L 248.2735 74.282239 
L 248.7695 36.953992 
L 249.2655 78.032506 
L 249.7615 80.265935 
L 250.2575 42.932035 
L 250.7535 84.967039 
L 251.2495 36.922202 
L 251.7455 72.311832 
L 252.2415 64.21724 
L 252.7375 40.439555 
L 253.2335 285.612973 
L 253.7295 123.233693 
L 254.2255 79.207109 
L 254.7215 73.719179 
L 255.2175 135.952236 
L 255.7135 41.037393 
L 256.2095 38.189251 
L 257.2015 200.671718 
L 257.6975 41.311518 
L 258.6895 128.080327 
L 259.1855 42.385064 
L 259.6815 35.937451 
L 260.1775 80.892875 
L 260.6735 36.863164 
L 261.1695 35.731878 
L 261.6655 71.432822 
L 262.1615 36.377139 
L 262.6575 61.469154 
L 263.1535 72.722249 
L 263.6495 37.508266 
L 264.1455 69.23001 
L 264.6415 61.337953 
L 265.1375 103.482431 
L 265.6335 35.885125 
L 266.1295 41.510511 
L 266.6255 38.974268 
L 267.1215 55.733087 
L 267.6175 40.98012 
L 268.1135 118.144375 
L 268.6095 67.570686 
L 269.1055 78.371661 
L 269.6015 145.963377 
L 270.0975 123.013841 
L 270.5935 91.232301 
L 271.0895 71.175301 
L 271.5855 76.950681 
L 272.0815 105.029608 
L 272.5775 100.549857 
L 273.0735 53.35171 
L 273.5695 45.21315 
L 274.0655 39.939038 
L 274.5615 45.631441 
L 275.0575 39.06996 
L 275.5535 41.088947 
L 276.0495 109.387158 
L 276.5455 117.846713 
L 277.0415 121.914718 
L 278.0335 61.711416 
L 278.5295 31.325047 
L 279.0255 116.417621 
L 279.5215 81.136149 
L 280.0175 68.387514 
L 280.5135 50.973162 
L 281.0095 38.836316 
L 281.5055 67.368535 
L 282.0015 141.475866 
L 282.4975 40.723881 
L 282.9935 93.874959 
L 283.4895 244.50092 
L 283.9855 45.51145 
L 284.4815 49.44562 
L 284.9775 63.935807 
L 285.4735 67.518535 
L 285.9695 76.232115 
L 286.4655 71.350117 
L 286.9615 52.148304 
L 287.4575 67.301732 
L 287.9535 36.116871 
L 288.4495 102.868783 
L 288.9455 42.142482 
L 289.4415 49.465792 
L 289.9375 50.210668 
L 290.4335 175.829438 
L 290.9295 44.027442 
L 291.4255 146.05768 
L 291.9215 43.807644 
L 292.4175 37.354615 
L 292.9135 76.24531 
L 293.4095 85.791698 
L 293.9055 48.8968 
L 294.4015 108.861955 
L 294.8975 66.067704 
L 295.3935 88.159119 
L 295.8895 84.445408 
L 296.3855 75.345438 
L 296.8815 36.237952 
L 297.3775 35.288926 
L 297.8735 115.006891 
L 298.3695 39.237533 
L 298.8655 38.339934 
L 299.3615 68.375595 
L 299.8575 41.111529 
L 300.3535 81.213316 
L 300.8495 41.510505 
L 301.3455 97.110707 
L 301.8415 44.701141 
L 302.3375 69.718423 
L 302.8335 35.804231 
L 303.3295 60.890356 
L 303.8255 202.881327 
L 304.3215 53.882944 
L 304.8175 108.782029 
L 305.3135 47.730085 
L 305.8095 51.31881 
L 306.8015 34.04838 
L 307.2975 42.590299 
L 307.7935 118.168749 
L 308.2895 73.647916 
L 308.7855 49.176625 
L 309.2815 79.578241 
L 309.7775 50.623958 
L 310.2735 34.363088 
L 310.7695 108.658773 
L 311.2655 49.795117 
L 311.7615 34.891645 
L 312.2575 104.29289 
L 312.7535 43.398534 
L 313.2495 106.093774 
L 313.7455 51.20919 
L 314.2415 50.155367 
L 314.7375 176.015294 
L 315.2335 34.626069 
L 315.7295 36.413453 
L 316.2255 76.034498 
L 316.7215 41.949531 
L 317.2175 45.45095 
L 317.7135 59.267094 
L 318.2095 42.917667 
L 318.7055 35.761668 
L 319.2015 35.414951 
L 319.6975 88.982984 
L 320.1935 121.369308 
L 320.6895 82.839722 
L 321.1855 77.930565 
L 321.6815 96.436197 
L 322.1775 34.589292 
L 322.6735 37.756145 
L 323.1695 53.243918 
L 323.6655 130.597497 
L 324.1615 99.573078 
L 324.6575 123.342018 
L 325.1535 91.498594 
L 325.6495 87.461847 
L 326.1455 69.867688 
L 326.6415 110.33422 
L 327.1375 42.056965 
L 327.6335 62.408253 
L 328.1295 120.706165 
L 328.6255 54.190309 
L 329.1215 75.183988 
L 329.6175 40.081554 
L 330.1135 38.089058 
L 330.6095 33.849449 
L 331.1055 34.368177 
L 331.6015 54.334949 
L 332.0975 104.341006 
L 332.5935 33.556317 
L 333.0895 38.749607 
L 333.5855 136.435275 
L 334.0815 72.479721 
L 334.5775 81.592006 
L 335.0735 63.364117 
L 335.5695 57.052531 
L 336.0655 65.468036 
L 336.5615 80.461869 
L 337.0575 71.404706 
L 337.5535 50.666468 
L 338.0495 72.798665 
L 338.5455 113.142497 
L 339.0415 44.871026 
L 339.5375 42.369658 
L 340.0335 64.245371 
L 340.5295 40.201478 
L 341.0255 77.495175 
L 341.5215 51.849168 
L 342.0175 45.797187 
L 342.5135 61.784119 
L 343.0095 51.644567 
L 343.5055 93.258905 
L 344.0015 34.975707 
L 344.4975 66.675936 
L 344.9935 65.632264 
L 345.4895 90.833792 
L 345.9855 39.514453 
L 346.4815 67.661748 
L 346.9775 43.258537 
L 347.4735 135.30562 
L 347.9695 37.850746 
L 348.4655 103.6989 
L 348.9615 75.709962 
L 349.4575 87.489328 
L 350.4495 37.262798 
L 350.9455 51.148998 
L 351.4415 119.218373 
L 351.9375 38.426053 
L 352.9295 74.599975 
L 353.4255 123.48775 
L 353.9215 68.34113 
L 354.4175 33.538152 
L 354.9135 103.069228 
L 355.4095 44.361178 
L 355.9055 42.207348 
L 356.4015 51.042719 
L 356.8975 74.863251 
L 357.3935 33.997564 
L 357.8895 96.201201 
L 358.8815 42.511328 
L 359.3775 34.057071 
L 359.8735 50.0275 
L 360.3695 36.961903 
L 360.8655 37.996442 
L 361.3615 36.492907 
L 361.8575 100.406218 
L 362.3535 58.353322 
L 362.8495 109.295929 
L 364.3375 51.703983 
L 364.8335 95.885695 
L 365.3295 39.093488 
L 365.8255 34.578636 
L 366.3215 75.464866 
L 366.8175 46.208625 
L 367.3135 120.321287 
L 367.8095 34.363469 
L 368.3055 53.592562 
L 368.8015 43.108093 
L 369.2975 73.258318 
L 369.7935 41.557182 
L 370.2895 210.62226 
L 370.7855 102.820676 
L 371.2815 35.116065 
L 371.7775 34.49454 
L 372.2735 41.704983 
L 372.7695 35.027179 
L 373.2655 76.081194 
L 373.7615 64.012991 
L 374.2575 42.46838 
L 374.7535 41.397589 
L 375.2495 54.43954 
L 375.7455 70.854843 
L 376.2415 153.578191 
L 376.7375 54.838466 
L 377.2335 111.574836 
L 377.7295 98.373276 
L 378.2255 50.712408 
L 378.7215 85.020115 
L 380.7055 34.990584 
L 381.2015 35.217711 
L 381.6975 112.812238 
L 382.1935 49.803067 
L 382.6895 40.184438 
L 383.1855 40.47902 
L 383.6815 60.311753 
L 384.1775 35.941653 
L 384.6735 35.181618 
L 385.1695 51.872928 
L 385.6655 97.031966 
L 386.1615 49.263307 
L 386.6575 82.73257 
L 387.1535 35.901348 
L 387.6495 54.366919 
L 388.1455 62.300398 
L 388.6415 34.93723 
L 389.1375 92.70019 
L 389.6335 34.448591 
L 390.1295 33.179469 
L 390.6255 82.678348 
L 391.1215 35.387556 
L 391.6175 41.759753 
L 392.1135 43.485696 
L 392.6095 35.84793 
L 393.1055 37.083545 
L 393.6015 46.111029 
L 394.0975 42.269534 
L 394.5935 32.32246 
L 395.0895 34.167988 
L 395.5855 49.039437 
L 396.0815 34.967738 
L 396.5775 42.343241 
L 397.0735 70.792227 
L 397.5695 55.25491 
L 398.0655 50.612907 
L 398.5615 78.386004 
L 399.0575 29.906859 
L 399.5535 49.559586 
L 400.0495 40.584264 
L 400.5455 41.374915 
L 401.0415 34.347868 
L 401.5375 49.870577 
L 402.0335 71.606993 
L 402.5295 33.807019 
L 403.0255 52.546449 
L 403.5215 110.909828 
L 404.5135 51.028148 
L 405.0095 35.099793 
L 405.5055 41.256405 
L 406.0015 41.79666 
L 406.4975 85.581639 
L 406.9935 37.830106 
L 407.4895 50.952335 
L 407.9855 50.916774 
L 408.4815 35.48925 
L 408.9775 42.339772 
L 409.4735 58.969328 
L 409.9695 39.38391 
L 410.4655 38.759666 
L 410.9615 83.627995 
L 411.4575 36.121387 
L 411.9535 33.835451 
L 412.4495 72.186706 
L 412.9455 42.217931 
L 413.4415 41.850147 
L 413.9375 34.137483 
L 414.4335 35.021383 
L 415.4255 72.216822 
L 415.9215 34.140458 
L 416.4175 42.07667 
L 416.9135 48.204382 
L 417.4095 30.757882 
L 417.9055 73.262177 
L 418.4015 34.703322 
L 418.8975 49.6971 
L 419.3935 95.305587 
L 419.8895 39.714584 
L 420.3855 50.821949 
L 420.8815 34.313099 
L 421.3775 34.41711 
L 421.8735 144.945209 
L 422.3695 53.024262 
L 422.8655 30.318252 
L 423.3615 34.027059 
L 423.8575 84.624382 
L 424.3535 35.750393 
L 424.8495 29.573499 
L 425.3455 92.736241 
L 425.8415 34.893305 
L 426.3375 59.021161 
L 426.8335 34.490915 
L 427.3295 41.94697 
L 427.8255 88.030144 
L 428.3215 40.11943 
L 428.8175 42.250579 
L 429.3135 71.427901 
L 429.8095 109.308501 
L 430.3055 67.794912 
L 430.8015 46.253235 
L 431.2975 42.956974 
L 431.7935 67.062616 
L 432.2895 71.932338 
L 432.7855 36.205226 
L 433.2815 41.260108 
L 433.7775 51.78603 
L 434.2735 42.638481 
L 434.7695 41.694788 
L 435.2655 38.198361 
L 435.7615 54.294537 
L 436.2575 40.041406 
L 436.7535 89.684136 
L 437.2495 33.608711 
L 437.7455 38.35888 
L 438.2415 38.540886 
L 438.7375 33.683744 
L 439.7295 68.149603 
L 440.2255 64.897238 
L 440.7215 39.792194 
L 441.2175 31.411973 
L 442.2095 68.498692 
L 442.7055 111.134587 
L 443.2015 45.791748 
L 443.6975 114.830656 
L 444.1935 34.244889 
L 444.6895 47.877321 
L 445.1855 75.791491 
L 445.6815 34.753371 
L 446.1775 33.84744 
L 446.6735 33.835142 
L 447.1695 34.11022 
L 447.6655 34.172059 
L 448.1615 62.051095 
L 448.6575 43.644646 
L 449.1535 178.467025 
L 449.6495 56.09359 
L 450.1455 35.002398 
L 450.6415 46.058505 
L 451.1375 66.425874 
L 452.1295 34.230989 
L 452.6255 49.961097 
L 453.1215 83.863501 
L 453.6175 38.454341 
L 454.1135 48.5141 
L 454.6095 62.776867 
L 455.1055 63.771222 
L 455.6015 50.884078 
L 456.0975 33.988674 
L 456.5935 45.484085 
L 457.0895 38.162464 
L 457.5855 67.385683 
L 458.0815 86.273723 
L 458.5775 72.268938 
L 458.5775 72.268938 
" style="fill:none;stroke:#0000ff;stroke-linecap:square;stroke-width:0.5;"/>
   </g>
   <g id="patch_3">
    <path d="M 46.8975 368.74175 
L 493.2975 368.74175 
" style="fill:none;stroke:#000000;stroke-linecap:square;stroke-linejoin:miter;"/>
   </g>
   <g id="patch_4">
    <path d="M 493.2975 368.74175 
L 493.2975 23.14175 
" style="fill:none;stroke:#000000;stroke-linecap:square;stroke-linejoin:miter;"/>
   </g>
   <g id="patch_5">
    <path d="M 46.8975 368.74175 
L 46.8975 23.14175 
" style="fill:none;stroke:#000000;stroke-linecap:square;stroke-linejoin:miter;"/>
   </g>
   <g id="patch_6">
    <path d="M 46.8975 23.14175 
L 493.2975 23.14175 
" style="fill:none;stroke:#000000;stroke-linecap:square;stroke-linejoin:miter;"/>
   </g>
   <g id="matplotlib.axis_1">
    <g id="xtick_1">
     <g id="line2d_2">
      <defs>
       <path d="M 0 0 
L 0 -4 
" id="m107faf04c9" style="stroke:#000000;stroke-width:0.5;"/>
      </defs>
      <g>
       <use style="stroke:#000000;stroke-width:0.5;" x="46.8975" xlink:href="#m107faf04c9" y="368.74175"/>
      </g>
     </g>
     <g id="line2d_3">
      <defs>
       <path d="M 0 0 
L 0 4 
" id="me6e7a570b3" style="stroke:#000000;stroke-width:0.5;"/>
      </defs>
      <g>
       <use style="stroke:#000000;stroke-width:0.5;" x="46.8975" xlink:href="#me6e7a570b3" y="23.14175"/>
      </g>
     </g>
     <g id="text_1">
      <!-- 0 -->
      <defs>
       <path d="M 31.78125 66.40625 
Q 24.171875 66.40625 20.328125 58.90625 
Q 16.5 51.421875 16.5 36.375 
Q 16.5 21.390625 20.328125 13.890625 
Q 24.171875 6.390625 31.78125 6.390625 
Q 39.453125 6.390625 43.28125 13.890625 
Q 47.125 21.390625 47.125 36.375 
Q 47.125 51.421875 43.28125 58.90625 
Q 39.453125 66.40625 31.78125 66.40625 
M 31.78125 74.21875 
Q 44.046875 74.21875 50.515625 64.515625 
Q 56.984375 54.828125 56.984375 36.375 
Q 56.984375 17.96875 50.515625 8.265625 
Q 44.046875 -1.421875 31.78125 -1.421875 
Q 19.53125 -1.421875 13.0625 8.265625 
Q 6.59375 17.96875 6.59375 36.375 
Q 6.59375 54.828125 13.0625 64.515625 
Q 19.53125 74.21875 31.78125 74.21875 
" id="BitstreamVeraSans-Roman-30"/>
      </defs>
      <g transform="translate(43.08 381.859875)scale(0.12 -0.12)">
       <use xlink:href="#BitstreamVeraSans-Roman-30"/>
      </g>
     </g>
    </g>
    <g id="xtick_2">
     <g id="line2d_4">
      <g>
       <use style="stroke:#000000;stroke-width:0.5;" x="96.4975" xlink:href="#m107faf04c9" y="368.74175"/>
      </g>
     </g>
     <g id="line2d_5">
      <g>
       <use style="stroke:#000000;stroke-width:0.5;" x="96.4975" xlink:href="#me6e7a570b3" y="23.14175"/>
      </g>
     </g>
     <g id="text_2">
      <!-- 100 -->
      <defs>
       <path d="M 12.40625 8.296875 
L 28.515625 8.296875 
L 28.515625 63.921875 
L 10.984375 60.40625 
L 10.984375 69.390625 
L 28.421875 72.90625 
L 38.28125 72.90625 
L 38.28125 8.296875 
L 54.390625 8.296875 
L 54.390625 0 
L 12.40625 0 
z
" id="BitstreamVeraSans-Roman-31"/>
      </defs>
      <g transform="translate(85.045 381.859875)scale(0.12 -0.12)">
       <use xlink:href="#BitstreamVeraSans-Roman-31"/>
       <use x="63.623046875" xlink:href="#BitstreamVeraSans-Roman-30"/>
       <use x="127.24609375" xlink:href="#BitstreamVeraSans-Roman-30"/>
      </g>
     </g>
    </g>
    <g id="xtick_3">
     <g id="line2d_6">
      <g>
       <use style="stroke:#000000;stroke-width:0.5;" x="146.0975" xlink:href="#m107faf04c9" y="368.74175"/>
      </g>
     </g>
     <g id="line2d_7">
      <g>
       <use style="stroke:#000000;stroke-width:0.5;" x="146.0975" xlink:href="#me6e7a570b3" y="23.14175"/>
      </g>
     </g>
     <g id="text_3">
      <!-- 200 -->
      <defs>
       <path d="M 19.1875 8.296875 
L 53.609375 8.296875 
L 53.609375 0 
L 7.328125 0 
L 7.328125 8.296875 
Q 12.9375 14.109375 22.625 23.890625 
Q 32.328125 33.6875 34.8125 36.53125 
Q 39.546875 41.84375 41.421875 45.53125 
Q 43.3125 49.21875 43.3125 52.78125 
Q 43.3125 58.59375 39.234375 62.25 
Q 35.15625 65.921875 28.609375 65.921875 
Q 23.96875 65.921875 18.8125 64.3125 
Q 13.671875 62.703125 7.8125 59.421875 
L 7.8125 69.390625 
Q 13.765625 71.78125 18.9375 73 
Q 24.125 74.21875 28.421875 74.21875 
Q 39.75 74.21875 46.484375 68.546875 
Q 53.21875 62.890625 53.21875 53.421875 
Q 53.21875 48.921875 51.53125 44.890625 
Q 49.859375 40.875 45.40625 35.40625 
Q 44.1875 33.984375 37.640625 27.21875 
Q 31.109375 20.453125 19.1875 8.296875 
" id="BitstreamVeraSans-Roman-32"/>
      </defs>
      <g transform="translate(134.645 381.859875)scale(0.12 -0.12)">
       <use xlink:href="#BitstreamVeraSans-Roman-32"/>
       <use x="63.623046875" xlink:href="#BitstreamVeraSans-Roman-30"/>
       <use x="127.24609375" xlink:href="#BitstreamVeraSans-Roman-30"/>
      </g>
     </g>
    </g>
    <g id="xtick_4">
     <g id="line2d_8">
      <g>
       <use style="stroke:#000000;stroke-width:0.5;" x="195.6975" xlink:href="#m107faf04c9" y="368.74175"/>
      </g>
     </g>
     <g id="line2d_9">
      <g>
       <use style="stroke:#000000;stroke-width:0.5;" x="195.6975" xlink:href="#me6e7a570b3" y="23.14175"/>
      </g>
     </g>
     <g id="text_4">
      <!-- 300 -->
      <defs>
       <path d="M 40.578125 39.3125 
Q 47.65625 37.796875 51.625 33 
Q 55.609375 28.21875 55.609375 21.1875 
Q 55.609375 10.40625 48.1875 4.484375 
Q 40.765625 -1.421875 27.09375 -1.421875 
Q 22.515625 -1.421875 17.65625 -0.515625 
Q 12.796875 0.390625 7.625 2.203125 
L 7.625 11.71875 
Q 11.71875 9.328125 16.59375 8.109375 
Q 21.484375 6.890625 26.8125 6.890625 
Q 36.078125 6.890625 40.9375 10.546875 
Q 45.796875 14.203125 45.796875 21.1875 
Q 45.796875 27.640625 41.28125 31.265625 
Q 36.765625 34.90625 28.71875 34.90625 
L 20.21875 34.90625 
L 20.21875 43.015625 
L 29.109375 43.015625 
Q 36.375 43.015625 40.234375 45.921875 
Q 44.09375 48.828125 44.09375 54.296875 
Q 44.09375 59.90625 40.109375 62.90625 
Q 36.140625 65.921875 28.71875 65.921875 
Q 24.65625 65.921875 20.015625 65.03125 
Q 15.375 64.15625 9.8125 62.3125 
L 9.8125 71.09375 
Q 15.4375 72.65625 20.34375 73.4375 
Q 25.25 74.21875 29.59375 74.21875 
Q 40.828125 74.21875 47.359375 69.109375 
Q 53.90625 64.015625 53.90625 55.328125 
Q 53.90625 49.265625 50.4375 45.09375 
Q 46.96875 40.921875 40.578125 39.3125 
" id="BitstreamVeraSans-Roman-33"/>
      </defs>
      <g transform="translate(184.245 381.859875)scale(0.12 -0.12)">
       <use xlink:href="#BitstreamVeraSans-Roman-33"/>
       <use x="63.623046875" xlink:href="#BitstreamVeraSans-Roman-30"/>
       <use x="127.24609375" xlink:href="#BitstreamVeraSans-Roman-30"/>
      </g>
     </g>
    </g>
    <g id="xtick_5">
     <g id="line2d_10">
      <g>
       <use style="stroke:#000000;stroke-width:0.5;" x="245.2975" xlink:href="#m107faf04c9" y="368.74175"/>
      </g>
     </g>
     <g id="line2d_11">
      <g>
       <use style="stroke:#000000;stroke-width:0.5;" x="245.2975" xlink:href="#me6e7a570b3" y="23.14175"/>
      </g>
     </g>
     <g id="text_5">
      <!-- 400 -->
      <defs>
       <path d="M 37.796875 64.3125 
L 12.890625 25.390625 
L 37.796875 25.390625 
z
M 35.203125 72.90625 
L 47.609375 72.90625 
L 47.609375 25.390625 
L 58.015625 25.390625 
L 58.015625 17.1875 
L 47.609375 17.1875 
L 47.609375 0 
L 37.796875 0 
L 37.796875 17.1875 
L 4.890625 17.1875 
L 4.890625 26.703125 
z
" id="BitstreamVeraSans-Roman-34"/>
      </defs>
      <g transform="translate(233.845 381.859875)scale(0.12 -0.12)">
       <use xlink:href="#BitstreamVeraSans-Roman-34"/>
       <use x="63.623046875" xlink:href="#BitstreamVeraSans-Roman-30"/>
       <use x="127.24609375" xlink:href="#BitstreamVeraSans-Roman-30"/>
      </g>
     </g>
    </g>
    <g id="xtick_6">
     <g id="line2d_12">
      <g>
       <use style="stroke:#000000;stroke-width:0.5;" x="294.8975" xlink:href="#m107faf04c9" y="368.74175"/>
      </g>
     </g>
     <g id="line2d_13">
      <g>
       <use style="stroke:#000000;stroke-width:0.5;" x="294.8975" xlink:href="#me6e7a570b3" y="23.14175"/>
      </g>
     </g>
     <g id="text_6">
      <!-- 500 -->
      <defs>
       <path d="M 10.796875 72.90625 
L 49.515625 72.90625 
L 49.515625 64.59375 
L 19.828125 64.59375 
L 19.828125 46.734375 
Q 21.96875 47.46875 24.109375 47.828125 
Q 26.265625 48.1875 28.421875 48.1875 
Q 40.625 48.1875 47.75 41.5 
Q 54.890625 34.8125 54.890625 23.390625 
Q 54.890625 11.625 47.5625 5.09375 
Q 40.234375 -1.421875 26.90625 -1.421875 
Q 22.3125 -1.421875 17.546875 -0.640625 
Q 12.796875 0.140625 7.71875 1.703125 
L 7.71875 11.625 
Q 12.109375 9.234375 16.796875 8.0625 
Q 21.484375 6.890625 26.703125 6.890625 
Q 35.15625 6.890625 40.078125 11.328125 
Q 45.015625 15.765625 45.015625 23.390625 
Q 45.015625 31 40.078125 35.4375 
Q 35.15625 39.890625 26.703125 39.890625 
Q 22.75 39.890625 18.8125 39.015625 
Q 14.890625 38.140625 10.796875 36.28125 
z
" id="BitstreamVeraSans-Roman-35"/>
      </defs>
      <g transform="translate(283.445 381.859875)scale(0.12 -0.12)">
       <use xlink:href="#BitstreamVeraSans-Roman-35"/>
       <use x="63.623046875" xlink:href="#BitstreamVeraSans-Roman-30"/>
       <use x="127.24609375" xlink:href="#BitstreamVeraSans-Roman-30"/>
      </g>
     </g>
    </g>
    <g id="xtick_7">
     <g id="line2d_14">
      <g>
       <use style="stroke:#000000;stroke-width:0.5;" x="344.4975" xlink:href="#m107faf04c9" y="368.74175"/>
      </g>
     </g>
     <g id="line2d_15">
      <g>
       <use style="stroke:#000000;stroke-width:0.5;" x="344.4975" xlink:href="#me6e7a570b3" y="23.14175"/>
      </g>
     </g>
     <g id="text_7">
      <!-- 600 -->
      <defs>
       <path d="M 33.015625 40.375 
Q 26.375 40.375 22.484375 35.828125 
Q 18.609375 31.296875 18.609375 23.390625 
Q 18.609375 15.53125 22.484375 10.953125 
Q 26.375 6.390625 33.015625 6.390625 
Q 39.65625 6.390625 43.53125 10.953125 
Q 47.40625 15.53125 47.40625 23.390625 
Q 47.40625 31.296875 43.53125 35.828125 
Q 39.65625 40.375 33.015625 40.375 
M 52.59375 71.296875 
L 52.59375 62.3125 
Q 48.875 64.0625 45.09375 64.984375 
Q 41.3125 65.921875 37.59375 65.921875 
Q 27.828125 65.921875 22.671875 59.328125 
Q 17.53125 52.734375 16.796875 39.40625 
Q 19.671875 43.65625 24.015625 45.921875 
Q 28.375 48.1875 33.59375 48.1875 
Q 44.578125 48.1875 50.953125 41.515625 
Q 57.328125 34.859375 57.328125 23.390625 
Q 57.328125 12.15625 50.6875 5.359375 
Q 44.046875 -1.421875 33.015625 -1.421875 
Q 20.359375 -1.421875 13.671875 8.265625 
Q 6.984375 17.96875 6.984375 36.375 
Q 6.984375 53.65625 15.1875 63.9375 
Q 23.390625 74.21875 37.203125 74.21875 
Q 40.921875 74.21875 44.703125 73.484375 
Q 48.484375 72.75 52.59375 71.296875 
" id="BitstreamVeraSans-Roman-36"/>
      </defs>
      <g transform="translate(333.045 381.859875)scale(0.12 -0.12)">
       <use xlink:href="#BitstreamVeraSans-Roman-36"/>
       <use x="63.623046875" xlink:href="#BitstreamVeraSans-Roman-30"/>
       <use x="127.24609375" xlink:href="#BitstreamVeraSans-Roman-30"/>
      </g>
     </g>
    </g>
    <g id="xtick_8">
     <g id="line2d_16">
      <g>
       <use style="stroke:#000000;stroke-width:0.5;" x="394.0975" xlink:href="#m107faf04c9" y="368.74175"/>
      </g>
     </g>
     <g id="line2d_17">
      <g>
       <use style="stroke:#000000;stroke-width:0.5;" x="394.0975" xlink:href="#me6e7a570b3" y="23.14175"/>
      </g>
     </g>
     <g id="text_8">
      <!-- 700 -->
      <defs>
       <path d="M 8.203125 72.90625 
L 55.078125 72.90625 
L 55.078125 68.703125 
L 28.609375 0 
L 18.3125 0 
L 43.21875 64.59375 
L 8.203125 64.59375 
z
" id="BitstreamVeraSans-Roman-37"/>
      </defs>
      <g transform="translate(382.645 381.859875)scale(0.12 -0.12)">
       <use xlink:href="#BitstreamVeraSans-Roman-37"/>
       <use x="63.623046875" xlink:href="#BitstreamVeraSans-Roman-30"/>
       <use x="127.24609375" xlink:href="#BitstreamVeraSans-Roman-30"/>
      </g>
     </g>
    </g>
    <g id="xtick_9">
     <g id="line2d_18">
      <g>
       <use style="stroke:#000000;stroke-width:0.5;" x="443.6975" xlink:href="#m107faf04c9" y="368.74175"/>
      </g>
     </g>
     <g id="line2d_19">
      <g>
       <use style="stroke:#000000;stroke-width:0.5;" x="443.6975" xlink:href="#me6e7a570b3" y="23.14175"/>
      </g>
     </g>
     <g id="text_9">
      <!-- 800 -->
      <defs>
       <path d="M 31.78125 34.625 
Q 24.75 34.625 20.71875 30.859375 
Q 16.703125 27.09375 16.703125 20.515625 
Q 16.703125 13.921875 20.71875 10.15625 
Q 24.75 6.390625 31.78125 6.390625 
Q 38.8125 6.390625 42.859375 10.171875 
Q 46.921875 13.96875 46.921875 20.515625 
Q 46.921875 27.09375 42.890625 30.859375 
Q 38.875 34.625 31.78125 34.625 
M 21.921875 38.8125 
Q 15.578125 40.375 12.03125 44.71875 
Q 8.5 49.078125 8.5 55.328125 
Q 8.5 64.0625 14.71875 69.140625 
Q 20.953125 74.21875 31.78125 74.21875 
Q 42.671875 74.21875 48.875 69.140625 
Q 55.078125 64.0625 55.078125 55.328125 
Q 55.078125 49.078125 51.53125 44.71875 
Q 48 40.375 41.703125 38.8125 
Q 48.828125 37.15625 52.796875 32.3125 
Q 56.78125 27.484375 56.78125 20.515625 
Q 56.78125 9.90625 50.3125 4.234375 
Q 43.84375 -1.421875 31.78125 -1.421875 
Q 19.734375 -1.421875 13.25 4.234375 
Q 6.78125 9.90625 6.78125 20.515625 
Q 6.78125 27.484375 10.78125 32.3125 
Q 14.796875 37.15625 21.921875 38.8125 
M 18.3125 54.390625 
Q 18.3125 48.734375 21.84375 45.5625 
Q 25.390625 42.390625 31.78125 42.390625 
Q 38.140625 42.390625 41.71875 45.5625 
Q 45.3125 48.734375 45.3125 54.390625 
Q 45.3125 60.0625 41.71875 63.234375 
Q 38.140625 66.40625 31.78125 66.40625 
Q 25.390625 66.40625 21.84375 63.234375 
Q 18.3125 60.0625 18.3125 54.390625 
" id="BitstreamVeraSans-Roman-38"/>
      </defs>
      <g transform="translate(432.245 381.859875)scale(0.12 -0.12)">
       <use xlink:href="#BitstreamVeraSans-Roman-38"/>
       <use x="63.623046875" xlink:href="#BitstreamVeraSans-Roman-30"/>
       <use x="127.24609375" xlink:href="#BitstreamVeraSans-Roman-30"/>
      </g>
     </g>
    </g>
    <g id="xtick_10">
     <g id="line2d_20">
      <g>
       <use style="stroke:#000000;stroke-width:0.5;" x="493.2975" xlink:href="#m107faf04c9" y="368.74175"/>
      </g>
     </g>
     <g id="line2d_21">
      <g>
       <use style="stroke:#000000;stroke-width:0.5;" x="493.2975" xlink:href="#me6e7a570b3" y="23.14175"/>
      </g>
     </g>
     <g id="text_10">
      <!-- 900 -->
      <defs>
       <path d="M 10.984375 1.515625 
L 10.984375 10.5 
Q 14.703125 8.734375 18.5 7.8125 
Q 22.3125 6.890625 25.984375 6.890625 
Q 35.75 6.890625 40.890625 13.453125 
Q 46.046875 20.015625 46.78125 33.40625 
Q 43.953125 29.203125 39.59375 26.953125 
Q 35.25 24.703125 29.984375 24.703125 
Q 19.046875 24.703125 12.671875 31.3125 
Q 6.296875 37.9375 6.296875 49.421875 
Q 6.296875 60.640625 12.9375 67.421875 
Q 19.578125 74.21875 30.609375 74.21875 
Q 43.265625 74.21875 49.921875 64.515625 
Q 56.59375 54.828125 56.59375 36.375 
Q 56.59375 19.140625 48.40625 8.859375 
Q 40.234375 -1.421875 26.421875 -1.421875 
Q 22.703125 -1.421875 18.890625 -0.6875 
Q 15.09375 0.046875 10.984375 1.515625 
M 30.609375 32.421875 
Q 37.25 32.421875 41.125 36.953125 
Q 45.015625 41.5 45.015625 49.421875 
Q 45.015625 57.28125 41.125 61.84375 
Q 37.25 66.40625 30.609375 66.40625 
Q 23.96875 66.40625 20.09375 61.84375 
Q 16.21875 57.28125 16.21875 49.421875 
Q 16.21875 41.5 20.09375 36.953125 
Q 23.96875 32.421875 30.609375 32.421875 
" id="BitstreamVeraSans-Roman-39"/>
      </defs>
      <g transform="translate(481.845 381.859875)scale(0.12 -0.12)">
       <use xlink:href="#BitstreamVeraSans-Roman-39"/>
       <use x="63.623046875" xlink:href="#BitstreamVeraSans-Roman-30"/>
       <use x="127.24609375" xlink:href="#BitstreamVeraSans-Roman-30"/>
      </g>
     </g>
    </g>
    <g id="text_11">
     <!-- episodes -->
     <defs>
      <path d="M 45.40625 46.390625 
L 45.40625 75.984375 
L 54.390625 75.984375 
L 54.390625 0 
L 45.40625 0 
L 45.40625 8.203125 
Q 42.578125 3.328125 38.25 0.953125 
Q 33.9375 -1.421875 27.875 -1.421875 
Q 17.96875 -1.421875 11.734375 6.484375 
Q 5.515625 14.40625 5.515625 27.296875 
Q 5.515625 40.1875 11.734375 48.09375 
Q 17.96875 56 27.875 56 
Q 33.9375 56 38.25 53.625 
Q 42.578125 51.265625 45.40625 46.390625 
M 14.796875 27.296875 
Q 14.796875 17.390625 18.875 11.75 
Q 22.953125 6.109375 30.078125 6.109375 
Q 37.203125 6.109375 41.296875 11.75 
Q 45.40625 17.390625 45.40625 27.296875 
Q 45.40625 37.203125 41.296875 42.84375 
Q 37.203125 48.484375 30.078125 48.484375 
Q 22.953125 48.484375 18.875 42.84375 
Q 14.796875 37.203125 14.796875 27.296875 
" id="BitstreamVeraSans-Roman-64"/>
      <path d="M 56.203125 29.59375 
L 56.203125 25.203125 
L 14.890625 25.203125 
Q 15.484375 15.921875 20.484375 11.0625 
Q 25.484375 6.203125 34.421875 6.203125 
Q 39.59375 6.203125 44.453125 7.46875 
Q 49.3125 8.734375 54.109375 11.28125 
L 54.109375 2.78125 
Q 49.265625 0.734375 44.1875 -0.34375 
Q 39.109375 -1.421875 33.890625 -1.421875 
Q 20.796875 -1.421875 13.15625 6.1875 
Q 5.515625 13.8125 5.515625 26.8125 
Q 5.515625 40.234375 12.765625 48.109375 
Q 20.015625 56 32.328125 56 
Q 43.359375 56 49.78125 48.890625 
Q 56.203125 41.796875 56.203125 29.59375 
M 47.21875 32.234375 
Q 47.125 39.59375 43.09375 43.984375 
Q 39.0625 48.390625 32.421875 48.390625 
Q 24.90625 48.390625 20.390625 44.140625 
Q 15.875 39.890625 15.1875 32.171875 
z
" id="BitstreamVeraSans-Roman-65"/>
      <path d="M 18.109375 8.203125 
L 18.109375 -20.796875 
L 9.078125 -20.796875 
L 9.078125 54.6875 
L 18.109375 54.6875 
L 18.109375 46.390625 
Q 20.953125 51.265625 25.265625 53.625 
Q 29.59375 56 35.59375 56 
Q 45.5625 56 51.78125 48.09375 
Q 58.015625 40.1875 58.015625 27.296875 
Q 58.015625 14.40625 51.78125 6.484375 
Q 45.5625 -1.421875 35.59375 -1.421875 
Q 29.59375 -1.421875 25.265625 0.953125 
Q 20.953125 3.328125 18.109375 8.203125 
M 48.6875 27.296875 
Q 48.6875 37.203125 44.609375 42.84375 
Q 40.53125 48.484375 33.40625 48.484375 
Q 26.265625 48.484375 22.1875 42.84375 
Q 18.109375 37.203125 18.109375 27.296875 
Q 18.109375 17.390625 22.1875 11.75 
Q 26.265625 6.109375 33.40625 6.109375 
Q 40.53125 6.109375 44.609375 11.75 
Q 48.6875 17.390625 48.6875 27.296875 
" id="BitstreamVeraSans-Roman-70"/>
      <path d="M 30.609375 48.390625 
Q 23.390625 48.390625 19.1875 42.75 
Q 14.984375 37.109375 14.984375 27.296875 
Q 14.984375 17.484375 19.15625 11.84375 
Q 23.34375 6.203125 30.609375 6.203125 
Q 37.796875 6.203125 41.984375 11.859375 
Q 46.1875 17.53125 46.1875 27.296875 
Q 46.1875 37.015625 41.984375 42.703125 
Q 37.796875 48.390625 30.609375 48.390625 
M 30.609375 56 
Q 42.328125 56 49.015625 48.375 
Q 55.71875 40.765625 55.71875 27.296875 
Q 55.71875 13.875 49.015625 6.21875 
Q 42.328125 -1.421875 30.609375 -1.421875 
Q 18.84375 -1.421875 12.171875 6.21875 
Q 5.515625 13.875 5.515625 27.296875 
Q 5.515625 40.765625 12.171875 48.375 
Q 18.84375 56 30.609375 56 
" id="BitstreamVeraSans-Roman-6f"/>
      <path d="M 44.28125 53.078125 
L 44.28125 44.578125 
Q 40.484375 46.53125 36.375 47.5 
Q 32.28125 48.484375 27.875 48.484375 
Q 21.1875 48.484375 17.84375 46.4375 
Q 14.5 44.390625 14.5 40.28125 
Q 14.5 37.15625 16.890625 35.375 
Q 19.28125 33.59375 26.515625 31.984375 
L 29.59375 31.296875 
Q 39.15625 29.25 43.1875 25.515625 
Q 47.21875 21.78125 47.21875 15.09375 
Q 47.21875 7.46875 41.1875 3.015625 
Q 35.15625 -1.421875 24.609375 -1.421875 
Q 20.21875 -1.421875 15.453125 -0.5625 
Q 10.6875 0.296875 5.421875 2 
L 5.421875 11.28125 
Q 10.40625 8.6875 15.234375 7.390625 
Q 20.0625 6.109375 24.8125 6.109375 
Q 31.15625 6.109375 34.5625 8.28125 
Q 37.984375 10.453125 37.984375 14.40625 
Q 37.984375 18.0625 35.515625 20.015625 
Q 33.0625 21.96875 24.703125 23.78125 
L 21.578125 24.515625 
Q 13.234375 26.265625 9.515625 29.90625 
Q 5.8125 33.546875 5.8125 39.890625 
Q 5.8125 47.609375 11.28125 51.796875 
Q 16.75 56 26.8125 56 
Q 31.78125 56 36.171875 55.265625 
Q 40.578125 54.546875 44.28125 53.078125 
" id="BitstreamVeraSans-Roman-73"/>
      <path d="M 9.421875 54.6875 
L 18.40625 54.6875 
L 18.40625 0 
L 9.421875 0 
z
M 9.421875 75.984375 
L 18.40625 75.984375 
L 18.40625 64.59375 
L 9.421875 64.59375 
z
" id="BitstreamVeraSans-Roman-69"/>
     </defs>
     <g transform="translate(243.50625 398.473625)scale(0.12 -0.12)">
      <use xlink:href="#BitstreamVeraSans-Roman-65"/>
      <use x="61.5234375" xlink:href="#BitstreamVeraSans-Roman-70"/>
      <use x="125.0" xlink:href="#BitstreamVeraSans-Roman-69"/>
      <use x="152.783203125" xlink:href="#BitstreamVeraSans-Roman-73"/>
      <use x="204.8828125" xlink:href="#BitstreamVeraSans-Roman-6f"/>
      <use x="266.064453125" xlink:href="#BitstreamVeraSans-Roman-64"/>
      <use x="329.541015625" xlink:href="#BitstreamVeraSans-Roman-65"/>
      <use x="391.064453125" xlink:href="#BitstreamVeraSans-Roman-73"/>
     </g>
    </g>
   </g>
   <g id="matplotlib.axis_2">
    <g id="ytick_1">
     <g id="line2d_22">
      <defs>
       <path d="M 0 0 
L 4 0 
" id="m5e78f4447b" style="stroke:#000000;stroke-width:0.5;"/>
      </defs>
      <g>
       <use style="stroke:#000000;stroke-width:0.5;" x="46.8975" xlink:href="#m5e78f4447b" y="368.74175"/>
      </g>
     </g>
     <g id="line2d_23">
      <defs>
       <path d="M 0 0 
L -4 0 
" id="m784c081959" style="stroke:#000000;stroke-width:0.5;"/>
      </defs>
      <g>
       <use style="stroke:#000000;stroke-width:0.5;" x="493.2975" xlink:href="#m784c081959" y="368.74175"/>
      </g>
     </g>
     <g id="text_12">
      <!-- 0.1 -->
      <defs>
       <path d="M 10.6875 12.40625 
L 21 12.40625 
L 21 0 
L 10.6875 0 
z
" id="BitstreamVeraSans-Roman-2e"/>
      </defs>
      <g transform="translate(23.81375 372.053)scale(0.12 -0.12)">
       <use xlink:href="#BitstreamVeraSans-Roman-30"/>
       <use x="63.623046875" xlink:href="#BitstreamVeraSans-Roman-2e"/>
       <use x="95.41015625" xlink:href="#BitstreamVeraSans-Roman-31"/>
      </g>
     </g>
    </g>
    <g id="ytick_2">
     <g id="line2d_24">
      <g>
       <use style="stroke:#000000;stroke-width:0.5;" x="46.8975" xlink:href="#m5e78f4447b" y="319.370321429"/>
      </g>
     </g>
     <g id="line2d_25">
      <g>
       <use style="stroke:#000000;stroke-width:0.5;" x="493.2975" xlink:href="#m784c081959" y="319.370321429"/>
      </g>
     </g>
     <g id="text_13">
      <!-- 0.2 -->
      <g transform="translate(23.81375 322.681571429)scale(0.12 -0.12)">
       <use xlink:href="#BitstreamVeraSans-Roman-30"/>
       <use x="63.623046875" xlink:href="#BitstreamVeraSans-Roman-2e"/>
       <use x="95.41015625" xlink:href="#BitstreamVeraSans-Roman-32"/>
      </g>
     </g>
    </g>
    <g id="ytick_3">
     <g id="line2d_26">
      <g>
       <use style="stroke:#000000;stroke-width:0.5;" x="46.8975" xlink:href="#m5e78f4447b" y="269.998892857"/>
      </g>
     </g>
     <g id="line2d_27">
      <g>
       <use style="stroke:#000000;stroke-width:0.5;" x="493.2975" xlink:href="#m784c081959" y="269.998892857"/>
      </g>
     </g>
     <g id="text_14">
      <!-- 0.3 -->
      <g transform="translate(23.81375 273.310142857)scale(0.12 -0.12)">
       <use xlink:href="#BitstreamVeraSans-Roman-30"/>
       <use x="63.623046875" xlink:href="#BitstreamVeraSans-Roman-2e"/>
       <use x="95.41015625" xlink:href="#BitstreamVeraSans-Roman-33"/>
      </g>
     </g>
    </g>
    <g id="ytick_4">
     <g id="line2d_28">
      <g>
       <use style="stroke:#000000;stroke-width:0.5;" x="46.8975" xlink:href="#m5e78f4447b" y="220.627464286"/>
      </g>
     </g>
     <g id="line2d_29">
      <g>
       <use style="stroke:#000000;stroke-width:0.5;" x="493.2975" xlink:href="#m784c081959" y="220.627464286"/>
      </g>
     </g>
     <g id="text_15">
      <!-- 0.4 -->
      <g transform="translate(23.81375 223.938714286)scale(0.12 -0.12)">
       <use xlink:href="#BitstreamVeraSans-Roman-30"/>
       <use x="63.623046875" xlink:href="#BitstreamVeraSans-Roman-2e"/>
       <use x="95.41015625" xlink:href="#BitstreamVeraSans-Roman-34"/>
      </g>
     </g>
    </g>
    <g id="ytick_5">
     <g id="line2d_30">
      <g>
       <use style="stroke:#000000;stroke-width:0.5;" x="46.8975" xlink:href="#m5e78f4447b" y="171.256035714"/>
      </g>
     </g>
     <g id="line2d_31">
      <g>
       <use style="stroke:#000000;stroke-width:0.5;" x="493.2975" xlink:href="#m784c081959" y="171.256035714"/>
      </g>
     </g>
     <g id="text_16">
      <!-- 0.5 -->
      <g transform="translate(23.81375 174.567285714)scale(0.12 -0.12)">
       <use xlink:href="#BitstreamVeraSans-Roman-30"/>
       <use x="63.623046875" xlink:href="#BitstreamVeraSans-Roman-2e"/>
       <use x="95.41015625" xlink:href="#BitstreamVeraSans-Roman-35"/>
      </g>
     </g>
    </g>
    <g id="ytick_6">
     <g id="line2d_32">
      <g>
       <use style="stroke:#000000;stroke-width:0.5;" x="46.8975" xlink:href="#m5e78f4447b" y="121.884607143"/>
      </g>
     </g>
     <g id="line2d_33">
      <g>
       <use style="stroke:#000000;stroke-width:0.5;" x="493.2975" xlink:href="#m784c081959" y="121.884607143"/>
      </g>
     </g>
     <g id="text_17">
      <!-- 0.6 -->
      <g transform="translate(23.81375 125.195857143)scale(0.12 -0.12)">
       <use xlink:href="#BitstreamVeraSans-Roman-30"/>
       <use x="63.623046875" xlink:href="#BitstreamVeraSans-Roman-2e"/>
       <use x="95.41015625" xlink:href="#BitstreamVeraSans-Roman-36"/>
      </g>
     </g>
    </g>
    <g id="ytick_7">
     <g id="line2d_34">
      <g>
       <use style="stroke:#000000;stroke-width:0.5;" x="46.8975" xlink:href="#m5e78f4447b" y="72.5131785714"/>
      </g>
     </g>
     <g id="line2d_35">
      <g>
       <use style="stroke:#000000;stroke-width:0.5;" x="493.2975" xlink:href="#m784c081959" y="72.5131785714"/>
      </g>
     </g>
     <g id="text_18">
      <!-- 0.7 -->
      <g transform="translate(23.81375 75.8244285714)scale(0.12 -0.12)">
       <use xlink:href="#BitstreamVeraSans-Roman-30"/>
       <use x="63.623046875" xlink:href="#BitstreamVeraSans-Roman-2e"/>
       <use x="95.41015625" xlink:href="#BitstreamVeraSans-Roman-37"/>
      </g>
     </g>
    </g>
    <g id="ytick_8">
     <g id="line2d_36">
      <g>
       <use style="stroke:#000000;stroke-width:0.5;" x="46.8975" xlink:href="#m5e78f4447b" y="23.14175"/>
      </g>
     </g>
     <g id="line2d_37">
      <g>
       <use style="stroke:#000000;stroke-width:0.5;" x="493.2975" xlink:href="#m784c081959" y="23.14175"/>
      </g>
     </g>
     <g id="text_19">
      <!-- 0.8 -->
      <g transform="translate(23.81375 26.453)scale(0.12 -0.12)">
       <use xlink:href="#BitstreamVeraSans-Roman-30"/>
       <use x="63.623046875" xlink:href="#BitstreamVeraSans-Roman-2e"/>
       <use x="95.41015625" xlink:href="#BitstreamVeraSans-Roman-38"/>
      </g>
     </g>
    </g>
    <g id="text_20">
     <!-- undisc. return -->
     <defs>
      <path d="M 54.890625 33.015625 
L 54.890625 0 
L 45.90625 0 
L 45.90625 32.71875 
Q 45.90625 40.484375 42.875 44.328125 
Q 39.84375 48.1875 33.796875 48.1875 
Q 26.515625 48.1875 22.3125 43.546875 
Q 18.109375 38.921875 18.109375 30.90625 
L 18.109375 0 
L 9.078125 0 
L 9.078125 54.6875 
L 18.109375 54.6875 
L 18.109375 46.1875 
Q 21.34375 51.125 25.703125 53.5625 
Q 30.078125 56 35.796875 56 
Q 45.21875 56 50.046875 50.171875 
Q 54.890625 44.34375 54.890625 33.015625 
" id="BitstreamVeraSans-Roman-6e"/>
      <path d="M 18.3125 70.21875 
L 18.3125 54.6875 
L 36.8125 54.6875 
L 36.8125 47.703125 
L 18.3125 47.703125 
L 18.3125 18.015625 
Q 18.3125 11.328125 20.140625 9.421875 
Q 21.96875 7.515625 27.59375 7.515625 
L 36.8125 7.515625 
L 36.8125 0 
L 27.59375 0 
Q 17.1875 0 13.234375 3.875 
Q 9.28125 7.765625 9.28125 18.015625 
L 9.28125 47.703125 
L 2.6875 47.703125 
L 2.6875 54.6875 
L 9.28125 54.6875 
L 9.28125 70.21875 
z
" id="BitstreamVeraSans-Roman-74"/>
      <path d="M 48.78125 52.59375 
L 48.78125 44.1875 
Q 44.96875 46.296875 41.140625 47.34375 
Q 37.3125 48.390625 33.40625 48.390625 
Q 24.65625 48.390625 19.8125 42.84375 
Q 14.984375 37.3125 14.984375 27.296875 
Q 14.984375 17.28125 19.8125 11.734375 
Q 24.65625 6.203125 33.40625 6.203125 
Q 37.3125 6.203125 41.140625 7.25 
Q 44.96875 8.296875 48.78125 10.40625 
L 48.78125 2.09375 
Q 45.015625 0.34375 40.984375 -0.53125 
Q 36.96875 -1.421875 32.421875 -1.421875 
Q 20.0625 -1.421875 12.78125 6.34375 
Q 5.515625 14.109375 5.515625 27.296875 
Q 5.515625 40.671875 12.859375 48.328125 
Q 20.21875 56 33.015625 56 
Q 37.15625 56 41.109375 55.140625 
Q 45.0625 54.296875 48.78125 52.59375 
" id="BitstreamVeraSans-Roman-63"/>
      <path id="BitstreamVeraSans-Roman-20"/>
      <path d="M 8.5 21.578125 
L 8.5 54.6875 
L 17.484375 54.6875 
L 17.484375 21.921875 
Q 17.484375 14.15625 20.5 10.265625 
Q 23.53125 6.390625 29.59375 6.390625 
Q 36.859375 6.390625 41.078125 11.03125 
Q 45.3125 15.671875 45.3125 23.6875 
L 45.3125 54.6875 
L 54.296875 54.6875 
L 54.296875 0 
L 45.3125 0 
L 45.3125 8.40625 
Q 42.046875 3.421875 37.71875 1 
Q 33.40625 -1.421875 27.6875 -1.421875 
Q 18.265625 -1.421875 13.375 4.4375 
Q 8.5 10.296875 8.5 21.578125 
" id="BitstreamVeraSans-Roman-75"/>
      <path d="M 41.109375 46.296875 
Q 39.59375 47.171875 37.8125 47.578125 
Q 36.03125 48 33.890625 48 
Q 26.265625 48 22.1875 43.046875 
Q 18.109375 38.09375 18.109375 28.8125 
L 18.109375 0 
L 9.078125 0 
L 9.078125 54.6875 
L 18.109375 54.6875 
L 18.109375 46.1875 
Q 20.953125 51.171875 25.484375 53.578125 
Q 30.03125 56 36.53125 56 
Q 37.453125 56 38.578125 55.875 
Q 39.703125 55.765625 41.0625 55.515625 
z
" id="BitstreamVeraSans-Roman-72"/>
     </defs>
     <g transform="translate(16.318125 237.8405)rotate(-90.0)scale(0.12 -0.12)">
      <use xlink:href="#BitstreamVeraSans-Roman-75"/>
      <use x="63.37890625" xlink:href="#BitstreamVeraSans-Roman-6e"/>
      <use x="126.7578125" xlink:href="#BitstreamVeraSans-Roman-64"/>
      <use x="190.234375" xlink:href="#BitstreamVeraSans-Roman-69"/>
      <use x="218.017578125" xlink:href="#BitstreamVeraSans-Roman-73"/>
      <use x="270.1171875" xlink:href="#BitstreamVeraSans-Roman-63"/>
      <use x="325.09765625" xlink:href="#BitstreamVeraSans-Roman-2e"/>
      <use x="356.884765625" xlink:href="#BitstreamVeraSans-Roman-20"/>
      <use x="388.671875" xlink:href="#BitstreamVeraSans-Roman-72"/>
      <use x="429.75390625" xlink:href="#BitstreamVeraSans-Roman-65"/>
      <use x="491.27734375" xlink:href="#BitstreamVeraSans-Roman-74"/>
      <use x="530.486328125" xlink:href="#BitstreamVeraSans-Roman-75"/>
      <use x="593.865234375" xlink:href="#BitstreamVeraSans-Roman-72"/>
      <use x="634.962890625" xlink:href="#BitstreamVeraSans-Roman-6e"/>
     </g>
    </g>
   </g>
   <g id="text_21">
    <!-- Undiscounted return obtained -->
    <defs>
     <path d="M 8.6875 72.90625 
L 18.609375 72.90625 
L 18.609375 28.609375 
Q 18.609375 16.890625 22.84375 11.734375 
Q 27.09375 6.59375 36.625 6.59375 
Q 46.09375 6.59375 50.34375 11.734375 
Q 54.59375 16.890625 54.59375 28.609375 
L 54.59375 72.90625 
L 64.5 72.90625 
L 64.5 27.390625 
Q 64.5 13.140625 57.4375 5.859375 
Q 50.390625 -1.421875 36.625 -1.421875 
Q 22.796875 -1.421875 15.734375 5.859375 
Q 8.6875 13.140625 8.6875 27.390625 
z
" id="BitstreamVeraSans-Roman-55"/>
     <path d="M 34.28125 27.484375 
Q 23.390625 27.484375 19.1875 25 
Q 14.984375 22.515625 14.984375 16.5 
Q 14.984375 11.71875 18.140625 8.90625 
Q 21.296875 6.109375 26.703125 6.109375 
Q 34.1875 6.109375 38.703125 11.40625 
Q 43.21875 16.703125 43.21875 25.484375 
L 43.21875 27.484375 
z
M 52.203125 31.203125 
L 52.203125 0 
L 43.21875 0 
L 43.21875 8.296875 
Q 40.140625 3.328125 35.546875 0.953125 
Q 30.953125 -1.421875 24.3125 -1.421875 
Q 15.921875 -1.421875 10.953125 3.296875 
Q 6 8.015625 6 15.921875 
Q 6 25.140625 12.171875 29.828125 
Q 18.359375 34.515625 30.609375 34.515625 
L 43.21875 34.515625 
L 43.21875 35.40625 
Q 43.21875 41.609375 39.140625 45 
Q 35.0625 48.390625 27.6875 48.390625 
Q 23 48.390625 18.546875 47.265625 
Q 14.109375 46.140625 10.015625 43.890625 
L 10.015625 52.203125 
Q 14.9375 54.109375 19.578125 55.046875 
Q 24.21875 56 28.609375 56 
Q 40.484375 56 46.34375 49.84375 
Q 52.203125 43.703125 52.203125 31.203125 
" id="BitstreamVeraSans-Roman-61"/>
     <path d="M 48.6875 27.296875 
Q 48.6875 37.203125 44.609375 42.84375 
Q 40.53125 48.484375 33.40625 48.484375 
Q 26.265625 48.484375 22.1875 42.84375 
Q 18.109375 37.203125 18.109375 27.296875 
Q 18.109375 17.390625 22.1875 11.75 
Q 26.265625 6.109375 33.40625 6.109375 
Q 40.53125 6.109375 44.609375 11.75 
Q 48.6875 17.390625 48.6875 27.296875 
M 18.109375 46.390625 
Q 20.953125 51.265625 25.265625 53.625 
Q 29.59375 56 35.59375 56 
Q 45.5625 56 51.78125 48.09375 
Q 58.015625 40.1875 58.015625 27.296875 
Q 58.015625 14.40625 51.78125 6.484375 
Q 45.5625 -1.421875 35.59375 -1.421875 
Q 29.59375 -1.421875 25.265625 0.953125 
Q 20.953125 3.328125 18.109375 8.203125 
L 18.109375 0 
L 9.078125 0 
L 9.078125 75.984375 
L 18.109375 75.984375 
z
" id="BitstreamVeraSans-Roman-62"/>
    </defs>
    <g transform="translate(161.981625 18.14175)scale(0.144 -0.144)">
     <use xlink:href="#BitstreamVeraSans-Roman-55"/>
     <use x="73.193359375" xlink:href="#BitstreamVeraSans-Roman-6e"/>
     <use x="136.572265625" xlink:href="#BitstreamVeraSans-Roman-64"/>
     <use x="200.048828125" xlink:href="#BitstreamVeraSans-Roman-69"/>
     <use x="227.83203125" xlink:href="#BitstreamVeraSans-Roman-73"/>
     <use x="279.931640625" xlink:href="#BitstreamVeraSans-Roman-63"/>
     <use x="334.912109375" xlink:href="#BitstreamVeraSans-Roman-6f"/>
     <use x="396.09375" xlink:href="#BitstreamVeraSans-Roman-75"/>
     <use x="459.47265625" xlink:href="#BitstreamVeraSans-Roman-6e"/>
     <use x="522.8515625" xlink:href="#BitstreamVeraSans-Roman-74"/>
     <use x="562.060546875" xlink:href="#BitstreamVeraSans-Roman-65"/>
     <use x="623.583984375" xlink:href="#BitstreamVeraSans-Roman-64"/>
     <use x="687.060546875" xlink:href="#BitstreamVeraSans-Roman-20"/>
     <use x="718.84765625" xlink:href="#BitstreamVeraSans-Roman-72"/>
     <use x="759.9296875" xlink:href="#BitstreamVeraSans-Roman-65"/>
     <use x="821.453125" xlink:href="#BitstreamVeraSans-Roman-74"/>
     <use x="860.662109375" xlink:href="#BitstreamVeraSans-Roman-75"/>
     <use x="924.041015625" xlink:href="#BitstreamVeraSans-Roman-72"/>
     <use x="965.138671875" xlink:href="#BitstreamVeraSans-Roman-6e"/>
     <use x="1028.517578125" xlink:href="#BitstreamVeraSans-Roman-20"/>
     <use x="1060.3046875" xlink:href="#BitstreamVeraSans-Roman-6f"/>
     <use x="1121.486328125" xlink:href="#BitstreamVeraSans-Roman-62"/>
     <use x="1184.962890625" xlink:href="#BitstreamVeraSans-Roman-74"/>
     <use x="1224.171875" xlink:href="#BitstreamVeraSans-Roman-61"/>
     <use x="1285.451171875" xlink:href="#BitstreamVeraSans-Roman-69"/>
     <use x="1313.234375" xlink:href="#BitstreamVeraSans-Roman-6e"/>
     <use x="1376.61328125" xlink:href="#BitstreamVeraSans-Roman-65"/>
     <use x="1438.13671875" xlink:href="#BitstreamVeraSans-Roman-64"/>
    </g>
   </g>
  </g>
 </g>
 <defs>
  <clipPath id="p6fe7503be7">
   <rect height="345.6" width="446.4" x="46.8975" y="23.14175"/>
  </clipPath>
 </defs>
</svg>
