<?xml version="1.0" encoding="utf-8" standalone="no"?>
<!DOCTYPE svg PUBLIC "-//W3C//DTD SVG 1.1//EN"
  "http://www.w3.org/Graphics/SVG/1.1/DTD/svg11.dtd">
<!-- Created with matplotlib (http://matplotlib.org/) -->
<svg height="325pt" version="1.1" viewBox="0 0 411 325" width="411pt" xmlns="http://www.w3.org/2000/svg" xmlns:xlink="http://www.w3.org/1999/xlink">
 <defs>
  <style type="text/css">
*{stroke-linecap:butt;stroke-linejoin:round;}
  </style>
 </defs>
 <g id="figure_1">
  <g id="patch_1">
   <path d="M 0 325.986375 
L 411.60125 325.986375 
L 411.60125 0 
L 0 0 
z
" style="fill:#ffffff;"/>
  </g>
  <g id="axes_1">
   <g id="patch_2">
    <path d="M 43.78125 288.430125 
L 400.90125 288.430125 
L 400.90125 22.318125 
L 43.78125 22.318125 
z
" style="fill:#ffffff;"/>
   </g>
   <g id="matplotlib.axis_1">
    <g id="xtick_1">
     <g id="line2d_1">
      <defs>
       <path d="M 0 0 
L 0 3.5 
" id="m5b1135a005" style="stroke:#000000;stroke-width:0.8;"/>
      </defs>
      <g>
       <use style="stroke:#000000;stroke-width:0.8;" x="60.013977" xlink:href="#m5b1135a005" y="288.430125"/>
      </g>
     </g>
     <g id="text_1">
      <!-- 0 -->
      <defs>
       <path d="M 31.78125 66.40625 
Q 24.171875 66.40625 20.328125 58.90625 
Q 16.5 51.421875 16.5 36.375 
Q 16.5 21.390625 20.328125 13.890625 
Q 24.171875 6.390625 31.78125 6.390625 
Q 39.453125 6.390625 43.28125 13.890625 
Q 47.125 21.390625 47.125 36.375 
Q 47.125 51.421875 43.28125 58.90625 
Q 39.453125 66.40625 31.78125 66.40625 
z
M 31.78125 74.21875 
Q 44.046875 74.21875 50.515625 64.515625 
Q 56.984375 54.828125 56.984375 36.375 
Q 56.984375 17.96875 50.515625 8.265625 
Q 44.046875 -1.421875 31.78125 -1.421875 
Q 19.53125 -1.421875 13.0625 8.265625 
Q 6.59375 17.96875 6.59375 36.375 
Q 6.59375 54.828125 13.0625 64.515625 
Q 19.53125 74.21875 31.78125 74.21875 
z
" id="DejaVuSans-30"/>
      </defs>
      <g transform="translate(56.832727 303.028562)scale(0.1 -0.1)">
       <use xlink:href="#DejaVuSans-30"/>
      </g>
     </g>
    </g>
    <g id="xtick_2">
     <g id="line2d_2">
      <g>
       <use style="stroke:#000000;stroke-width:0.8;" x="119.095787" xlink:href="#m5b1135a005" y="288.430125"/>
      </g>
     </g>
     <g id="text_2">
      <!-- 200 -->
      <defs>
       <path d="M 19.1875 8.296875 
L 53.609375 8.296875 
L 53.609375 0 
L 7.328125 0 
L 7.328125 8.296875 
Q 12.9375 14.109375 22.625 23.890625 
Q 32.328125 33.6875 34.8125 36.53125 
Q 39.546875 41.84375 41.421875 45.53125 
Q 43.3125 49.21875 43.3125 52.78125 
Q 43.3125 58.59375 39.234375 62.25 
Q 35.15625 65.921875 28.609375 65.921875 
Q 23.96875 65.921875 18.8125 64.3125 
Q 13.671875 62.703125 7.8125 59.421875 
L 7.8125 69.390625 
Q 13.765625 71.78125 18.9375 73 
Q 24.125 74.21875 28.421875 74.21875 
Q 39.75 74.21875 46.484375 68.546875 
Q 53.21875 62.890625 53.21875 53.421875 
Q 53.21875 48.921875 51.53125 44.890625 
Q 49.859375 40.875 45.40625 35.40625 
Q 44.1875 33.984375 37.640625 27.21875 
Q 31.109375 20.453125 19.1875 8.296875 
z
" id="DejaVuSans-32"/>
      </defs>
      <g transform="translate(109.552037 303.028562)scale(0.1 -0.1)">
       <use xlink:href="#DejaVuSans-32"/>
       <use x="63.623047" xlink:href="#DejaVuSans-30"/>
       <use x="127.246094" xlink:href="#DejaVuSans-30"/>
      </g>
     </g>
    </g>
    <g id="xtick_3">
     <g id="line2d_3">
      <g>
       <use style="stroke:#000000;stroke-width:0.8;" x="178.177597" xlink:href="#m5b1135a005" y="288.430125"/>
      </g>
     </g>
     <g id="text_3">
      <!-- 400 -->
      <defs>
       <path d="M 37.796875 64.3125 
L 12.890625 25.390625 
L 37.796875 25.390625 
z
M 35.203125 72.90625 
L 47.609375 72.90625 
L 47.609375 25.390625 
L 58.015625 25.390625 
L 58.015625 17.1875 
L 47.609375 17.1875 
L 47.609375 0 
L 37.796875 0 
L 37.796875 17.1875 
L 4.890625 17.1875 
L 4.890625 26.703125 
z
" id="DejaVuSans-34"/>
      </defs>
      <g transform="translate(168.633847 303.028562)scale(0.1 -0.1)">
       <use xlink:href="#DejaVuSans-34"/>
       <use x="63.623047" xlink:href="#DejaVuSans-30"/>
       <use x="127.246094" xlink:href="#DejaVuSans-30"/>
      </g>
     </g>
    </g>
    <g id="xtick_4">
     <g id="line2d_4">
      <g>
       <use style="stroke:#000000;stroke-width:0.8;" x="237.259407" xlink:href="#m5b1135a005" y="288.430125"/>
      </g>
     </g>
     <g id="text_4">
      <!-- 600 -->
      <defs>
       <path d="M 33.015625 40.375 
Q 26.375 40.375 22.484375 35.828125 
Q 18.609375 31.296875 18.609375 23.390625 
Q 18.609375 15.53125 22.484375 10.953125 
Q 26.375 6.390625 33.015625 6.390625 
Q 39.65625 6.390625 43.53125 10.953125 
Q 47.40625 15.53125 47.40625 23.390625 
Q 47.40625 31.296875 43.53125 35.828125 
Q 39.65625 40.375 33.015625 40.375 
z
M 52.59375 71.296875 
L 52.59375 62.3125 
Q 48.875 64.0625 45.09375 64.984375 
Q 41.3125 65.921875 37.59375 65.921875 
Q 27.828125 65.921875 22.671875 59.328125 
Q 17.53125 52.734375 16.796875 39.40625 
Q 19.671875 43.65625 24.015625 45.921875 
Q 28.375 48.1875 33.59375 48.1875 
Q 44.578125 48.1875 50.953125 41.515625 
Q 57.328125 34.859375 57.328125 23.390625 
Q 57.328125 12.15625 50.6875 5.359375 
Q 44.046875 -1.421875 33.015625 -1.421875 
Q 20.359375 -1.421875 13.671875 8.265625 
Q 6.984375 17.96875 6.984375 36.375 
Q 6.984375 53.65625 15.1875 63.9375 
Q 23.390625 74.21875 37.203125 74.21875 
Q 40.921875 74.21875 44.703125 73.484375 
Q 48.484375 72.75 52.59375 71.296875 
z
" id="DejaVuSans-36"/>
      </defs>
      <g transform="translate(227.715657 303.028562)scale(0.1 -0.1)">
       <use xlink:href="#DejaVuSans-36"/>
       <use x="63.623047" xlink:href="#DejaVuSans-30"/>
       <use x="127.246094" xlink:href="#DejaVuSans-30"/>
      </g>
     </g>
    </g>
    <g id="xtick_5">
     <g id="line2d_5">
      <g>
       <use style="stroke:#000000;stroke-width:0.8;" x="296.341217" xlink:href="#m5b1135a005" y="288.430125"/>
      </g>
     </g>
     <g id="text_5">
      <!-- 800 -->
      <defs>
       <path d="M 31.78125 34.625 
Q 24.75 34.625 20.71875 30.859375 
Q 16.703125 27.09375 16.703125 20.515625 
Q 16.703125 13.921875 20.71875 10.15625 
Q 24.75 6.390625 31.78125 6.390625 
Q 38.8125 6.390625 42.859375 10.171875 
Q 46.921875 13.96875 46.921875 20.515625 
Q 46.921875 27.09375 42.890625 30.859375 
Q 38.875 34.625 31.78125 34.625 
z
M 21.921875 38.8125 
Q 15.578125 40.375 12.03125 44.71875 
Q 8.5 49.078125 8.5 55.328125 
Q 8.5 64.0625 14.71875 69.140625 
Q 20.953125 74.21875 31.78125 74.21875 
Q 42.671875 74.21875 48.875 69.140625 
Q 55.078125 64.0625 55.078125 55.328125 
Q 55.078125 49.078125 51.53125 44.71875 
Q 48 40.375 41.703125 38.8125 
Q 48.828125 37.15625 52.796875 32.3125 
Q 56.78125 27.484375 56.78125 20.515625 
Q 56.78125 9.90625 50.3125 4.234375 
Q 43.84375 -1.421875 31.78125 -1.421875 
Q 19.734375 -1.421875 13.25 4.234375 
Q 6.78125 9.90625 6.78125 20.515625 
Q 6.78125 27.484375 10.78125 32.3125 
Q 14.796875 37.15625 21.921875 38.8125 
z
M 18.3125 54.390625 
Q 18.3125 48.734375 21.84375 45.5625 
Q 25.390625 42.390625 31.78125 42.390625 
Q 38.140625 42.390625 41.71875 45.5625 
Q 45.3125 48.734375 45.3125 54.390625 
Q 45.3125 60.0625 41.71875 63.234375 
Q 38.140625 66.40625 31.78125 66.40625 
Q 25.390625 66.40625 21.84375 63.234375 
Q 18.3125 60.0625 18.3125 54.390625 
z
" id="DejaVuSans-38"/>
      </defs>
      <g transform="translate(286.797467 303.028562)scale(0.1 -0.1)">
       <use xlink:href="#DejaVuSans-38"/>
       <use x="63.623047" xlink:href="#DejaVuSans-30"/>
       <use x="127.246094" xlink:href="#DejaVuSans-30"/>
      </g>
     </g>
    </g>
    <g id="xtick_6">
     <g id="line2d_6">
      <g>
       <use style="stroke:#000000;stroke-width:0.8;" x="355.423027" xlink:href="#m5b1135a005" y="288.430125"/>
      </g>
     </g>
     <g id="text_6">
      <!-- 1000 -->
      <defs>
       <path d="M 12.40625 8.296875 
L 28.515625 8.296875 
L 28.515625 63.921875 
L 10.984375 60.40625 
L 10.984375 69.390625 
L 28.421875 72.90625 
L 38.28125 72.90625 
L 38.28125 8.296875 
L 54.390625 8.296875 
L 54.390625 0 
L 12.40625 0 
z
" id="DejaVuSans-31"/>
      </defs>
      <g transform="translate(342.698027 303.028562)scale(0.1 -0.1)">
       <use xlink:href="#DejaVuSans-31"/>
       <use x="63.623047" xlink:href="#DejaVuSans-30"/>
       <use x="127.246094" xlink:href="#DejaVuSans-30"/>
       <use x="190.869141" xlink:href="#DejaVuSans-30"/>
      </g>
     </g>
    </g>
    <g id="text_7">
     <!-- episode -->
     <defs>
      <path d="M 56.203125 29.59375 
L 56.203125 25.203125 
L 14.890625 25.203125 
Q 15.484375 15.921875 20.484375 11.0625 
Q 25.484375 6.203125 34.421875 6.203125 
Q 39.59375 6.203125 44.453125 7.46875 
Q 49.3125 8.734375 54.109375 11.28125 
L 54.109375 2.78125 
Q 49.265625 0.734375 44.1875 -0.34375 
Q 39.109375 -1.421875 33.890625 -1.421875 
Q 20.796875 -1.421875 13.15625 6.1875 
Q 5.515625 13.8125 5.515625 26.8125 
Q 5.515625 40.234375 12.765625 48.109375 
Q 20.015625 56 32.328125 56 
Q 43.359375 56 49.78125 48.890625 
Q 56.203125 41.796875 56.203125 29.59375 
z
M 47.21875 32.234375 
Q 47.125 39.59375 43.09375 43.984375 
Q 39.0625 48.390625 32.421875 48.390625 
Q 24.90625 48.390625 20.390625 44.140625 
Q 15.875 39.890625 15.1875 32.171875 
z
" id="DejaVuSans-65"/>
      <path d="M 18.109375 8.203125 
L 18.109375 -20.796875 
L 9.078125 -20.796875 
L 9.078125 54.6875 
L 18.109375 54.6875 
L 18.109375 46.390625 
Q 20.953125 51.265625 25.265625 53.625 
Q 29.59375 56 35.59375 56 
Q 45.5625 56 51.78125 48.09375 
Q 58.015625 40.1875 58.015625 27.296875 
Q 58.015625 14.40625 51.78125 6.484375 
Q 45.5625 -1.421875 35.59375 -1.421875 
Q 29.59375 -1.421875 25.265625 0.953125 
Q 20.953125 3.328125 18.109375 8.203125 
z
M 48.6875 27.296875 
Q 48.6875 37.203125 44.609375 42.84375 
Q 40.53125 48.484375 33.40625 48.484375 
Q 26.265625 48.484375 22.1875 42.84375 
Q 18.109375 37.203125 18.109375 27.296875 
Q 18.109375 17.390625 22.1875 11.75 
Q 26.265625 6.109375 33.40625 6.109375 
Q 40.53125 6.109375 44.609375 11.75 
Q 48.6875 17.390625 48.6875 27.296875 
z
" id="DejaVuSans-70"/>
      <path d="M 9.421875 54.6875 
L 18.40625 54.6875 
L 18.40625 0 
L 9.421875 0 
z
M 9.421875 75.984375 
L 18.40625 75.984375 
L 18.40625 64.59375 
L 9.421875 64.59375 
z
" id="DejaVuSans-69"/>
      <path d="M 44.28125 53.078125 
L 44.28125 44.578125 
Q 40.484375 46.53125 36.375 47.5 
Q 32.28125 48.484375 27.875 48.484375 
Q 21.1875 48.484375 17.84375 46.4375 
Q 14.5 44.390625 14.5 40.28125 
Q 14.5 37.15625 16.890625 35.375 
Q 19.28125 33.59375 26.515625 31.984375 
L 29.59375 31.296875 
Q 39.15625 29.25 43.1875 25.515625 
Q 47.21875 21.78125 47.21875 15.09375 
Q 47.21875 7.46875 41.1875 3.015625 
Q 35.15625 -1.421875 24.609375 -1.421875 
Q 20.21875 -1.421875 15.453125 -0.5625 
Q 10.6875 0.296875 5.421875 2 
L 5.421875 11.28125 
Q 10.40625 8.6875 15.234375 7.390625 
Q 20.0625 6.109375 24.8125 6.109375 
Q 31.15625 6.109375 34.5625 8.28125 
Q 37.984375 10.453125 37.984375 14.40625 
Q 37.984375 18.0625 35.515625 20.015625 
Q 33.0625 21.96875 24.703125 23.78125 
L 21.578125 24.515625 
Q 13.234375 26.265625 9.515625 29.90625 
Q 5.8125 33.546875 5.8125 39.890625 
Q 5.8125 47.609375 11.28125 51.796875 
Q 16.75 56 26.8125 56 
Q 31.78125 56 36.171875 55.265625 
Q 40.578125 54.546875 44.28125 53.078125 
z
" id="DejaVuSans-73"/>
      <path d="M 30.609375 48.390625 
Q 23.390625 48.390625 19.1875 42.75 
Q 14.984375 37.109375 14.984375 27.296875 
Q 14.984375 17.484375 19.15625 11.84375 
Q 23.34375 6.203125 30.609375 6.203125 
Q 37.796875 6.203125 41.984375 11.859375 
Q 46.1875 17.53125 46.1875 27.296875 
Q 46.1875 37.015625 41.984375 42.703125 
Q 37.796875 48.390625 30.609375 48.390625 
z
M 30.609375 56 
Q 42.328125 56 49.015625 48.375 
Q 55.71875 40.765625 55.71875 27.296875 
Q 55.71875 13.875 49.015625 6.21875 
Q 42.328125 -1.421875 30.609375 -1.421875 
Q 18.84375 -1.421875 12.171875 6.21875 
Q 5.515625 13.875 5.515625 27.296875 
Q 5.515625 40.765625 12.171875 48.375 
Q 18.84375 56 30.609375 56 
z
" id="DejaVuSans-6f"/>
      <path d="M 45.40625 46.390625 
L 45.40625 75.984375 
L 54.390625 75.984375 
L 54.390625 0 
L 45.40625 0 
L 45.40625 8.203125 
Q 42.578125 3.328125 38.25 0.953125 
Q 33.9375 -1.421875 27.875 -1.421875 
Q 17.96875 -1.421875 11.734375 6.484375 
Q 5.515625 14.40625 5.515625 27.296875 
Q 5.515625 40.1875 11.734375 48.09375 
Q 17.96875 56 27.875 56 
Q 33.9375 56 38.25 53.625 
Q 42.578125 51.265625 45.40625 46.390625 
z
M 14.796875 27.296875 
Q 14.796875 17.390625 18.875 11.75 
Q 22.953125 6.109375 30.078125 6.109375 
Q 37.203125 6.109375 41.296875 11.75 
Q 45.40625 17.390625 45.40625 27.296875 
Q 45.40625 37.203125 41.296875 42.84375 
Q 37.203125 48.484375 30.078125 48.484375 
Q 22.953125 48.484375 18.875 42.84375 
Q 14.796875 37.203125 14.796875 27.296875 
z
" id="DejaVuSans-64"/>
     </defs>
     <g transform="translate(202.786563 316.706687)scale(0.1 -0.1)">
      <use xlink:href="#DejaVuSans-65"/>
      <use x="61.523438" xlink:href="#DejaVuSans-70"/>
      <use x="125" xlink:href="#DejaVuSans-69"/>
      <use x="152.783203" xlink:href="#DejaVuSans-73"/>
      <use x="204.882812" xlink:href="#DejaVuSans-6f"/>
      <use x="266.064453" xlink:href="#DejaVuSans-64"/>
      <use x="329.541016" xlink:href="#DejaVuSans-65"/>
     </g>
    </g>
   </g>
   <g id="matplotlib.axis_2">
    <g id="ytick_1">
     <g id="line2d_7">
      <defs>
       <path d="M 0 0 
L -3.5 0 
" id="mf1ce0733ed" style="stroke:#000000;stroke-width:0.8;"/>
      </defs>
      <g>
       <use style="stroke:#000000;stroke-width:0.8;" x="43.78125" xlink:href="#mf1ce0733ed" y="276.334125"/>
      </g>
     </g>
     <g id="text_8">
      <!-- 0.0 -->
      <defs>
       <path d="M 10.6875 12.40625 
L 21 12.40625 
L 21 0 
L 10.6875 0 
z
" id="DejaVuSans-2e"/>
      </defs>
      <g transform="translate(20.878125 280.133344)scale(0.1 -0.1)">
       <use xlink:href="#DejaVuSans-30"/>
       <use x="63.623047" xlink:href="#DejaVuSans-2e"/>
       <use x="95.410156" xlink:href="#DejaVuSans-30"/>
      </g>
     </g>
    </g>
    <g id="ytick_2">
     <g id="line2d_8">
      <g>
       <use style="stroke:#000000;stroke-width:0.8;" x="43.78125" xlink:href="#mf1ce0733ed" y="219.878609"/>
      </g>
     </g>
     <g id="text_9">
      <!-- 0.1 -->
      <g transform="translate(20.878125 223.677828)scale(0.1 -0.1)">
       <use xlink:href="#DejaVuSans-30"/>
       <use x="63.623047" xlink:href="#DejaVuSans-2e"/>
       <use x="95.410156" xlink:href="#DejaVuSans-31"/>
      </g>
     </g>
    </g>
    <g id="ytick_3">
     <g id="line2d_9">
      <g>
       <use style="stroke:#000000;stroke-width:0.8;" x="43.78125" xlink:href="#mf1ce0733ed" y="163.423094"/>
      </g>
     </g>
     <g id="text_10">
      <!-- 0.2 -->
      <g transform="translate(20.878125 167.222313)scale(0.1 -0.1)">
       <use xlink:href="#DejaVuSans-30"/>
       <use x="63.623047" xlink:href="#DejaVuSans-2e"/>
       <use x="95.410156" xlink:href="#DejaVuSans-32"/>
      </g>
     </g>
    </g>
    <g id="ytick_4">
     <g id="line2d_10">
      <g>
       <use style="stroke:#000000;stroke-width:0.8;" x="43.78125" xlink:href="#mf1ce0733ed" y="106.967578"/>
      </g>
     </g>
     <g id="text_11">
      <!-- 0.3 -->
      <defs>
       <path d="M 40.578125 39.3125 
Q 47.65625 37.796875 51.625 33 
Q 55.609375 28.21875 55.609375 21.1875 
Q 55.609375 10.40625 48.1875 4.484375 
Q 40.765625 -1.421875 27.09375 -1.421875 
Q 22.515625 -1.421875 17.65625 -0.515625 
Q 12.796875 0.390625 7.625 2.203125 
L 7.625 11.71875 
Q 11.71875 9.328125 16.59375 8.109375 
Q 21.484375 6.890625 26.8125 6.890625 
Q 36.078125 6.890625 40.9375 10.546875 
Q 45.796875 14.203125 45.796875 21.1875 
Q 45.796875 27.640625 41.28125 31.265625 
Q 36.765625 34.90625 28.71875 34.90625 
L 20.21875 34.90625 
L 20.21875 43.015625 
L 29.109375 43.015625 
Q 36.375 43.015625 40.234375 45.921875 
Q 44.09375 48.828125 44.09375 54.296875 
Q 44.09375 59.90625 40.109375 62.90625 
Q 36.140625 65.921875 28.71875 65.921875 
Q 24.65625 65.921875 20.015625 65.03125 
Q 15.375 64.15625 9.8125 62.3125 
L 9.8125 71.09375 
Q 15.4375 72.65625 20.34375 73.4375 
Q 25.25 74.21875 29.59375 74.21875 
Q 40.828125 74.21875 47.359375 69.109375 
Q 53.90625 64.015625 53.90625 55.328125 
Q 53.90625 49.265625 50.4375 45.09375 
Q 46.96875 40.921875 40.578125 39.3125 
z
" id="DejaVuSans-33"/>
      </defs>
      <g transform="translate(20.878125 110.766797)scale(0.1 -0.1)">
       <use xlink:href="#DejaVuSans-30"/>
       <use x="63.623047" xlink:href="#DejaVuSans-2e"/>
       <use x="95.410156" xlink:href="#DejaVuSans-33"/>
      </g>
     </g>
    </g>
    <g id="ytick_5">
     <g id="line2d_11">
      <g>
       <use style="stroke:#000000;stroke-width:0.8;" x="43.78125" xlink:href="#mf1ce0733ed" y="50.512063"/>
      </g>
     </g>
     <g id="text_12">
      <!-- 0.4 -->
      <g transform="translate(20.878125 54.311281)scale(0.1 -0.1)">
       <use xlink:href="#DejaVuSans-30"/>
       <use x="63.623047" xlink:href="#DejaVuSans-2e"/>
       <use x="95.410156" xlink:href="#DejaVuSans-34"/>
      </g>
     </g>
    </g>
    <g id="text_13">
     <!-- average maxQ -->
     <defs>
      <path d="M 34.28125 27.484375 
Q 23.390625 27.484375 19.1875 25 
Q 14.984375 22.515625 14.984375 16.5 
Q 14.984375 11.71875 18.140625 8.90625 
Q 21.296875 6.109375 26.703125 6.109375 
Q 34.1875 6.109375 38.703125 11.40625 
Q 43.21875 16.703125 43.21875 25.484375 
L 43.21875 27.484375 
z
M 52.203125 31.203125 
L 52.203125 0 
L 43.21875 0 
L 43.21875 8.296875 
Q 40.140625 3.328125 35.546875 0.953125 
Q 30.953125 -1.421875 24.3125 -1.421875 
Q 15.921875 -1.421875 10.953125 3.296875 
Q 6 8.015625 6 15.921875 
Q 6 25.140625 12.171875 29.828125 
Q 18.359375 34.515625 30.609375 34.515625 
L 43.21875 34.515625 
L 43.21875 35.40625 
Q 43.21875 41.609375 39.140625 45 
Q 35.0625 48.390625 27.6875 48.390625 
Q 23 48.390625 18.546875 47.265625 
Q 14.109375 46.140625 10.015625 43.890625 
L 10.015625 52.203125 
Q 14.9375 54.109375 19.578125 55.046875 
Q 24.21875 56 28.609375 56 
Q 40.484375 56 46.34375 49.84375 
Q 52.203125 43.703125 52.203125 31.203125 
z
" id="DejaVuSans-61"/>
      <path d="M 2.984375 54.6875 
L 12.5 54.6875 
L 29.59375 8.796875 
L 46.6875 54.6875 
L 56.203125 54.6875 
L 35.6875 0 
L 23.484375 0 
z
" id="DejaVuSans-76"/>
      <path d="M 41.109375 46.296875 
Q 39.59375 47.171875 37.8125 47.578125 
Q 36.03125 48 33.890625 48 
Q 26.265625 48 22.1875 43.046875 
Q 18.109375 38.09375 18.109375 28.8125 
L 18.109375 0 
L 9.078125 0 
L 9.078125 54.6875 
L 18.109375 54.6875 
L 18.109375 46.1875 
Q 20.953125 51.171875 25.484375 53.578125 
Q 30.03125 56 36.53125 56 
Q 37.453125 56 38.578125 55.875 
Q 39.703125 55.765625 41.0625 55.515625 
z
" id="DejaVuSans-72"/>
      <path d="M 45.40625 27.984375 
Q 45.40625 37.75 41.375 43.109375 
Q 37.359375 48.484375 30.078125 48.484375 
Q 22.859375 48.484375 18.828125 43.109375 
Q 14.796875 37.75 14.796875 27.984375 
Q 14.796875 18.265625 18.828125 12.890625 
Q 22.859375 7.515625 30.078125 7.515625 
Q 37.359375 7.515625 41.375 12.890625 
Q 45.40625 18.265625 45.40625 27.984375 
z
M 54.390625 6.78125 
Q 54.390625 -7.171875 48.1875 -13.984375 
Q 42 -20.796875 29.203125 -20.796875 
Q 24.46875 -20.796875 20.265625 -20.09375 
Q 16.0625 -19.390625 12.109375 -17.921875 
L 12.109375 -9.1875 
Q 16.0625 -11.328125 19.921875 -12.34375 
Q 23.78125 -13.375 27.78125 -13.375 
Q 36.625 -13.375 41.015625 -8.765625 
Q 45.40625 -4.15625 45.40625 5.171875 
L 45.40625 9.625 
Q 42.625 4.78125 38.28125 2.390625 
Q 33.9375 0 27.875 0 
Q 17.828125 0 11.671875 7.65625 
Q 5.515625 15.328125 5.515625 27.984375 
Q 5.515625 40.671875 11.671875 48.328125 
Q 17.828125 56 27.875 56 
Q 33.9375 56 38.28125 53.609375 
Q 42.625 51.21875 45.40625 46.390625 
L 45.40625 54.6875 
L 54.390625 54.6875 
z
" id="DejaVuSans-67"/>
      <path id="DejaVuSans-20"/>
      <path d="M 52 44.1875 
Q 55.375 50.25 60.0625 53.125 
Q 64.75 56 71.09375 56 
Q 79.640625 56 84.28125 50.015625 
Q 88.921875 44.046875 88.921875 33.015625 
L 88.921875 0 
L 79.890625 0 
L 79.890625 32.71875 
Q 79.890625 40.578125 77.09375 44.375 
Q 74.3125 48.1875 68.609375 48.1875 
Q 61.625 48.1875 57.5625 43.546875 
Q 53.515625 38.921875 53.515625 30.90625 
L 53.515625 0 
L 44.484375 0 
L 44.484375 32.71875 
Q 44.484375 40.625 41.703125 44.40625 
Q 38.921875 48.1875 33.109375 48.1875 
Q 26.21875 48.1875 22.15625 43.53125 
Q 18.109375 38.875 18.109375 30.90625 
L 18.109375 0 
L 9.078125 0 
L 9.078125 54.6875 
L 18.109375 54.6875 
L 18.109375 46.1875 
Q 21.1875 51.21875 25.484375 53.609375 
Q 29.78125 56 35.6875 56 
Q 41.65625 56 45.828125 52.96875 
Q 50 49.953125 52 44.1875 
z
" id="DejaVuSans-6d"/>
      <path d="M 54.890625 54.6875 
L 35.109375 28.078125 
L 55.90625 0 
L 45.3125 0 
L 29.390625 21.484375 
L 13.484375 0 
L 2.875 0 
L 24.125 28.609375 
L 4.6875 54.6875 
L 15.28125 54.6875 
L 29.78125 35.203125 
L 44.28125 54.6875 
z
" id="DejaVuSans-78"/>
      <path d="M 39.40625 66.21875 
Q 28.65625 66.21875 22.328125 58.203125 
Q 16.015625 50.203125 16.015625 36.375 
Q 16.015625 22.609375 22.328125 14.59375 
Q 28.65625 6.59375 39.40625 6.59375 
Q 50.140625 6.59375 56.421875 14.59375 
Q 62.703125 22.609375 62.703125 36.375 
Q 62.703125 50.203125 56.421875 58.203125 
Q 50.140625 66.21875 39.40625 66.21875 
z
M 53.21875 1.3125 
L 66.21875 -12.890625 
L 54.296875 -12.890625 
L 43.5 -1.21875 
Q 41.890625 -1.3125 41.03125 -1.359375 
Q 40.1875 -1.421875 39.40625 -1.421875 
Q 24.03125 -1.421875 14.8125 8.859375 
Q 5.609375 19.140625 5.609375 36.375 
Q 5.609375 53.65625 14.8125 63.9375 
Q 24.03125 74.21875 39.40625 74.21875 
Q 54.734375 74.21875 63.90625 63.9375 
Q 73.09375 53.65625 73.09375 36.375 
Q 73.09375 23.6875 67.984375 14.640625 
Q 62.890625 5.609375 53.21875 1.3125 
z
" id="DejaVuSans-51"/>
     </defs>
     <g transform="translate(14.798438 192.263187)rotate(-90)scale(0.1 -0.1)">
      <use xlink:href="#DejaVuSans-61"/>
      <use x="61.279297" xlink:href="#DejaVuSans-76"/>
      <use x="120.458984" xlink:href="#DejaVuSans-65"/>
      <use x="181.982422" xlink:href="#DejaVuSans-72"/>
      <use x="223.095703" xlink:href="#DejaVuSans-61"/>
      <use x="284.375" xlink:href="#DejaVuSans-67"/>
      <use x="347.851562" xlink:href="#DejaVuSans-65"/>
      <use x="409.375" xlink:href="#DejaVuSans-20"/>
      <use x="441.162109" xlink:href="#DejaVuSans-6d"/>
      <use x="538.574219" xlink:href="#DejaVuSans-61"/>
      <use x="599.853516" xlink:href="#DejaVuSans-78"/>
      <use x="659.033203" xlink:href="#DejaVuSans-51"/>
     </g>
    </g>
   </g>
   <g id="line2d_12">
    <path clip-path="url(#p5e1d7db2f5)" d="M 60.013977 177.362731 
L 60.309386 177.121473 
L 60.604795 176.334826 
L 60.900204 181.772527 
L 61.195613 168.823233 
L 61.491023 186.309268 
L 61.786432 177.699324 
L 62.081841 178.416279 
L 62.37725 175.651942 
L 62.672659 178.304406 
L 62.968068 182.696297 
L 63.263477 181.644762 
L 63.558886 173.366251 
L 63.854295 179.849997 
L 64.149704 180.386999 
L 64.445113 178.729618 
L 64.740522 175.639414 
L 65.035931 182.200336 
L 65.33134 183.036581 
L 65.626749 176.921882 
L 65.922158 178.051814 
L 66.217567 181.952289 
L 66.512976 174.145331 
L 66.808385 181.82507 
L 67.103794 176.66441 
L 67.399204 184.892609 
L 67.990022 176.342758 
L 68.285431 182.991786 
L 68.876249 173.464756 
L 69.171658 179.976354 
L 69.467067 179.970835 
L 69.762476 179.713388 
L 70.057885 171.483319 
L 70.353294 175.059512 
L 70.648703 182.390363 
L 70.944112 181.512783 
L 71.239521 182.071204 
L 71.53493 182.141167 
L 71.830339 175.763868 
L 72.125748 174.564175 
L 72.421157 185.843601 
L 72.716566 176.976988 
L 73.011975 176.766699 
L 73.307385 179.885687 
L 73.602794 172.825331 
L 73.898203 173.895586 
L 74.193612 172.025832 
L 74.489021 181.438495 
L 74.78443 179.881691 
L 75.079839 171.754874 
L 75.375248 176.854748 
L 75.670657 176.017072 
L 75.966066 186.935339 
L 76.261475 180.159305 
L 76.556884 176.634004 
L 76.852293 176.076961 
L 77.147702 177.14965 
L 77.443111 171.488362 
L 77.73852 176.286756 
L 78.033929 176.601515 
L 78.329338 179.170608 
L 78.624747 179.278384 
L 79.215565 173.348223 
L 79.510975 175.084237 
L 79.806384 191.245601 
L 80.101793 172.667998 
L 80.397202 178.379155 
L 80.692611 179.404249 
L 80.98802 174.88592 
L 81.283429 186.205611 
L 81.578838 179.526689 
L 81.874247 178.804183 
L 82.169656 186.586707 
L 82.465065 183.070827 
L 82.760474 175.059022 
L 83.055883 173.279084 
L 83.351292 182.973422 
L 83.646701 179.967269 
L 83.94211 178.936688 
L 84.237519 176.371292 
L 84.532928 175.575423 
L 85.123746 182.960626 
L 85.419156 181.345076 
L 85.714565 173.136848 
L 86.009974 175.531509 
L 86.305383 180.752282 
L 86.600792 183.233512 
L 86.896201 182.070062 
L 87.19161 177.583351 
L 87.487019 178.229135 
L 87.782428 166.647655 
L 88.077837 184.152566 
L 88.373246 179.143028 
L 88.668655 180.302927 
L 88.964064 170.666982 
L 89.259473 175.843852 
L 89.554882 276.334125 
L 89.850291 175.924658 
L 90.1457 180.659592 
L 90.441109 182.733449 
L 90.736518 179.440089 
L 91.031927 184.070269 
L 91.327337 172.127942 
L 91.918155 183.827296 
L 92.213564 184.32428 
L 92.508973 176.016712 
L 92.804382 182.058502 
L 93.099791 171.596845 
L 93.3952 181.496048 
L 93.690609 174.672 
L 93.986018 171.02845 
L 94.281427 187.691739 
L 94.872245 171.724854 
L 95.463063 188.489048 
L 95.758472 171.904397 
L 96.053881 181.708551 
L 96.34929 182.014191 
L 96.644699 186.459275 
L 96.940108 178.000539 
L 97.235518 175.641068 
L 97.530927 179.651664 
L 97.826336 179.879668 
L 98.121745 185.513593 
L 98.417154 173.485863 
L 98.712563 179.409402 
L 99.007972 181.40257 
L 99.303381 179.608585 
L 99.59879 184.717035 
L 99.894199 181.279071 
L 100.189608 182.613176 
L 100.485017 176.082413 
L 100.780426 174.27423 
L 101.075835 193.27045 
L 101.371244 179.50068 
L 101.666653 184.025868 
L 101.962062 172.431934 
L 102.257471 179.966892 
L 102.55288 174.93319 
L 102.848289 182.661942 
L 103.143699 168.879653 
L 103.439108 175.248775 
L 103.734517 176.648392 
L 104.325335 183.417545 
L 104.916153 169.257515 
L 105.211562 175.913685 
L 105.506971 177.396908 
L 105.80238 174.507071 
L 106.097789 176.041716 
L 106.393198 178.284517 
L 106.688607 173.418605 
L 106.984016 180.939737 
L 107.279425 172.824494 
L 107.574834 176.097792 
L 107.870243 181.154104 
L 108.165652 174.614303 
L 108.461061 177.013174 
L 108.75647 186.16129 
L 109.051879 174.880462 
L 109.347289 186.952273 
L 109.938107 177.177309 
L 110.233516 183.184266 
L 110.528925 183.160396 
L 110.824334 188.158456 
L 111.119743 174.813205 
L 111.415152 170.07469 
L 111.710561 181.85769 
L 112.00597 175.832044 
L 112.301379 179.475126 
L 112.596788 176.148412 
L 112.892197 174.556897 
L 113.187606 174.202253 
L 113.483015 172.823191 
L 114.369242 186.523265 
L 114.664651 173.576483 
L 114.96006 178.146709 
L 115.25547 171.481624 
L 115.550879 180.002807 
L 115.846288 176.653043 
L 116.141697 183.154038 
L 116.437106 179.336242 
L 116.732515 178.705844 
L 117.027924 187.439627 
L 117.323333 170.610498 
L 117.618742 180.18157 
L 117.914151 176.580768 
L 118.20956 181.037176 
L 118.800378 174.6213 
L 119.095787 276.334125 
L 119.391196 178.123036 
L 119.982014 188.545811 
L 121.163651 171.294065 
L 121.45906 185.78868 
L 121.754469 182.344714 
L 122.049878 186.044785 
L 122.345287 177.099172 
L 122.640696 181.959828 
L 122.936105 174.128503 
L 123.231514 183.686755 
L 123.526923 176.077192 
L 123.822332 178.774033 
L 124.117741 174.02518 
L 124.41315 175.894637 
L 124.708559 180.002496 
L 125.003968 182.103611 
L 125.299377 174.115585 
L 125.594786 177.112651 
L 125.890195 186.658346 
L 126.185604 177.677152 
L 126.481013 178.568971 
L 126.776422 181.466832 
L 127.071832 181.446347 
L 127.367241 175.876195 
L 127.66265 184.625834 
L 127.958059 171.510258 
L 128.253468 177.393251 
L 128.548877 177.585161 
L 128.844286 180.557749 
L 129.139695 187.441168 
L 129.435104 185.03144 
L 129.730513 174.286381 
L 130.025922 172.016449 
L 130.321331 177.980445 
L 130.61674 180.215995 
L 130.912149 175.385323 
L 131.207558 179.813968 
L 131.502967 175.566857 
L 131.798376 181.163232 
L 132.093785 178.833181 
L 132.389194 175.123651 
L 132.684603 174.350381 
L 132.980013 178.75599 
L 133.275422 179.880742 
L 133.570831 175.63671 
L 133.86624 173.575319 
L 134.161649 184.761725 
L 134.457058 175.703228 
L 134.752467 173.06241 
L 135.047876 174.389919 
L 135.343285 177.814039 
L 135.638694 171.741249 
L 135.934103 179.238261 
L 136.229512 171.954733 
L 136.524921 178.596639 
L 136.82033 182.444956 
L 137.115739 171.671008 
L 137.411148 178.902991 
L 137.706557 179.905091 
L 138.001966 176.491197 
L 138.297375 182.320768 
L 138.592784 183.690785 
L 138.888194 182.142159 
L 139.183603 182.060058 
L 139.774421 179.414927 
L 140.06983 186.832776 
L 140.365239 183.443419 
L 140.956057 189.551903 
L 141.251466 195.371959 
L 141.546875 197.731322 
L 141.842284 197.30828 
L 142.137693 197.554603 
L 142.433102 201.009407 
L 142.728511 201.644497 
L 143.02392 203.386103 
L 143.614738 200.41453 
L 143.910147 205.017963 
L 144.205556 204.080566 
L 144.500965 206.613944 
L 144.796374 207.202878 
L 145.091784 202.229282 
L 145.387193 200.449215 
L 145.682602 202.206224 
L 145.978011 205.166196 
L 146.568829 200.512462 
L 146.864238 203.458461 
L 147.159647 203.704341 
L 147.455056 203.801562 
L 147.750465 204.256091 
L 148.045874 200.953979 
L 148.341283 204.338133 
L 148.636692 276.334125 
L 148.932101 199.884533 
L 149.22751 198.442196 
L 149.522919 205.419124 
L 149.818328 197.501062 
L 150.113737 197.71635 
L 150.409146 199.834802 
L 150.999965 198.212326 
L 151.295374 194.91074 
L 151.590783 194.437626 
L 151.886192 203.671869 
L 152.181601 196.715539 
L 152.47701 195.371532 
L 152.772419 196.258534 
L 153.067828 196.225845 
L 153.363237 195.77232 
L 153.658646 196.32916 
L 153.954055 195.010303 
L 154.249464 191.161012 
L 154.544873 196.656472 
L 154.840282 199.459986 
L 155.135691 196.273205 
L 155.4311 191.768863 
L 155.726509 195.728953 
L 156.021918 192.809979 
L 156.317327 197.311507 
L 156.612736 190.793393 
L 156.908146 197.644651 
L 157.203555 190.728833 
L 157.794373 200.151667 
L 158.089782 190.72915 
L 158.385191 199.282864 
L 158.6806 198.008724 
L 158.976009 191.183929 
L 159.271418 192.811295 
L 159.566827 192.355517 
L 159.862236 187.867116 
L 160.453054 193.192032 
L 160.748463 188.519366 
L 161.043872 187.987068 
L 161.339281 195.484512 
L 161.63469 191.107953 
L 161.930099 195.500291 
L 162.225508 194.044048 
L 162.520917 188.558208 
L 162.816327 189.698049 
L 163.111736 188.184796 
L 163.407145 191.683056 
L 163.702554 185.327031 
L 163.997963 190.422837 
L 164.588781 186.714251 
L 164.88419 192.979773 
L 165.179599 192.551552 
L 165.475008 186.915648 
L 165.770417 187.78805 
L 166.065826 189.377439 
L 166.361235 186.357763 
L 166.656644 192.36723 
L 166.952053 193.142235 
L 167.247462 185.41066 
L 167.542871 187.082943 
L 168.133689 187.671449 
L 168.429098 187.245378 
L 168.724508 186.51581 
L 169.019917 192.209192 
L 169.315326 190.086578 
L 169.906144 183.46107 
L 170.201553 183.153188 
L 170.496962 189.757273 
L 170.792371 184.779655 
L 171.08778 186.269736 
L 171.383189 184.565991 
L 171.678598 187.475475 
L 171.974007 183.464347 
L 172.269416 189.760024 
L 172.564825 178.76377 
L 173.155643 187.94131 
L 173.451052 181.302757 
L 174.04187 181.492767 
L 174.337279 180.425744 
L 174.632688 181.365469 
L 174.928098 184.610647 
L 175.223507 180.459059 
L 175.518916 188.045124 
L 175.814325 178.955591 
L 176.109734 182.640211 
L 176.700552 186.295434 
L 176.995961 179.396756 
L 177.29137 182.40624 
L 177.586779 181.235229 
L 177.882188 180.678156 
L 178.177597 276.334125 
L 178.473006 179.501669 
L 178.768415 182.030029 
L 179.063824 187.272669 
L 179.359233 184.1668 
L 179.654642 175.717896 
L 179.950051 178.812941 
L 180.24546 178.639815 
L 180.540869 176.706439 
L 180.836279 185.842273 
L 181.427097 176.718326 
L 181.722506 185.69889 
L 182.017915 186.543492 
L 182.313324 176.590155 
L 182.608733 176.86289 
L 182.904142 184.181153 
L 183.199551 178.58833 
L 183.49496 182.309041 
L 183.790369 182.908784 
L 184.085778 178.498853 
L 184.381187 176.911581 
L 184.676596 176.468688 
L 184.972005 177.718606 
L 185.267414 180.443213 
L 185.562823 178.594358 
L 185.858232 172.048988 
L 186.153641 173.671464 
L 186.44905 179.096294 
L 187.039869 173.043052 
L 187.335278 173.351952 
L 187.630687 170.775709 
L 188.221505 172.614237 
L 188.516914 178.397911 
L 188.812323 178.273203 
L 189.107732 173.324111 
L 189.403141 174.591856 
L 189.69855 174.440781 
L 189.993959 172.030562 
L 190.289368 181.117335 
L 190.880186 172.533785 
L 191.175595 169.779622 
L 191.471004 176.076095 
L 191.766413 172.460803 
L 192.061822 172.986268 
L 192.357231 178.087671 
L 192.652641 171.88793 
L 192.94805 169.850734 
L 193.243459 166.532986 
L 193.538868 175.401594 
L 193.834277 170.572697 
L 194.129686 173.792914 
L 194.425095 173.193361 
L 194.720504 174.259389 
L 195.015913 169.388966 
L 195.311322 175.358548 
L 195.606731 170.382719 
L 195.90214 171.507146 
L 196.197549 176.089072 
L 196.492958 166.995087 
L 196.788367 169.144636 
L 197.083776 169.228868 
L 197.379185 167.278434 
L 197.674594 169.450775 
L 197.970003 167.83601 
L 198.265412 167.130793 
L 198.560822 165.839385 
L 198.856231 167.345702 
L 199.15164 164.071467 
L 199.447049 168.137698 
L 199.742458 168.336313 
L 200.037867 165.727878 
L 200.333276 167.614748 
L 200.628685 171.258224 
L 200.924094 166.802927 
L 201.219503 167.127741 
L 201.514912 166.878078 
L 201.810321 168.085655 
L 202.10573 162.779434 
L 202.401139 167.55108 
L 202.696548 167.339154 
L 203.582775 163.92361 
L 203.878184 163.727889 
L 204.173593 163.150112 
L 204.469003 167.874312 
L 204.764412 167.458882 
L 205.059821 170.28786 
L 205.35523 163.281122 
L 205.650639 160.893613 
L 205.946048 163.674624 
L 206.241457 167.623935 
L 206.536866 164.120963 
L 206.832275 164.258032 
L 207.127684 163.691187 
L 207.423093 162.755024 
L 207.718502 276.334125 
L 208.013911 161.851207 
L 208.30932 162.405389 
L 208.604729 163.799497 
L 208.900138 163.59828 
L 209.195547 159.307623 
L 209.786365 160.26533 
L 210.081774 159.766486 
L 210.377183 160.923724 
L 210.672593 160.437688 
L 210.968002 159.260691 
L 211.263411 160.034439 
L 211.55882 162.531543 
L 211.854229 159.497314 
L 212.149638 162.722867 
L 212.445047 158.233029 
L 212.740456 161.308805 
L 213.035865 159.937434 
L 213.331274 156.325808 
L 213.626683 157.888749 
L 213.922092 161.260016 
L 214.217501 158.674155 
L 214.51291 157.798671 
L 215.103728 160.170615 
L 215.399137 163.415955 
L 215.694546 157.295196 
L 215.989955 158.152573 
L 216.285364 157.580908 
L 216.580774 159.072485 
L 216.876183 156.220944 
L 217.171592 157.695175 
L 217.467001 157.800818 
L 217.76241 155.41676 
L 218.353228 154.751404 
L 218.648637 162.53504 
L 218.944046 151.634027 
L 219.239455 157.559235 
L 219.534864 155.865765 
L 219.830273 161.687085 
L 220.125682 158.673496 
L 220.421091 160.14936 
L 220.7165 153.528591 
L 221.011909 154.791284 
L 221.307318 154.168916 
L 221.602727 153.035155 
L 221.898136 154.814615 
L 222.193545 154.208998 
L 222.488955 156.300148 
L 222.784364 159.403446 
L 223.079773 155.035713 
L 223.375182 152.858258 
L 223.670591 154.819495 
L 223.966 163.070459 
L 224.261409 152.44954 
L 224.556818 154.013394 
L 224.852227 152.684142 
L 225.147636 150.604376 
L 225.443045 151.249618 
L 225.738454 150.992448 
L 226.033863 166.666221 
L 226.329272 151.147926 
L 226.624681 151.477196 
L 226.92009 148.481502 
L 227.215499 148.464812 
L 227.510908 150.36822 
L 227.806317 149.896442 
L 228.101726 150.682289 
L 228.397136 157.999566 
L 228.692545 147.677043 
L 228.987954 149.674724 
L 229.283363 150.18314 
L 229.578772 147.29222 
L 229.874181 149.024731 
L 230.16959 155.669037 
L 230.464999 146.269381 
L 230.760408 147.101624 
L 231.055817 149.254729 
L 231.351226 144.843293 
L 231.646635 147.141503 
L 231.942044 146.336636 
L 232.237453 149.085408 
L 232.532862 146.376361 
L 232.828271 145.285888 
L 233.12368 149.100883 
L 233.419089 145.634679 
L 233.714498 144.787452 
L 234.009907 145.761025 
L 234.305317 144.714979 
L 234.600726 146.196767 
L 234.896135 143.828737 
L 235.191544 147.951788 
L 235.486953 143.869395 
L 235.782362 144.853761 
L 236.077771 140.943658 
L 236.37318 143.64656 
L 236.668589 143.241637 
L 236.963998 141.191144 
L 237.259407 276.334125 
L 237.554816 149.256575 
L 237.850225 141.238847 
L 238.145634 142.41514 
L 238.441043 141.489462 
L 238.736452 147.851985 
L 239.031861 144.24184 
L 239.32727 138.56633 
L 239.622679 145.674646 
L 239.918088 140.308529 
L 240.213497 141.300217 
L 240.508907 136.968126 
L 240.804316 139.732058 
L 241.099725 139.384518 
L 241.395134 141.086 
L 241.690543 138.200389 
L 241.985952 142.992477 
L 242.281361 140.973901 
L 242.57677 145.947921 
L 242.872179 143.927162 
L 243.167588 137.501161 
L 243.462997 138.518063 
L 243.758406 137.944131 
L 244.053815 139.878409 
L 244.349224 137.393349 
L 244.644633 136.715128 
L 244.940042 137.741695 
L 245.235451 137.526989 
L 245.53086 134.214046 
L 245.826269 136.825212 
L 246.121678 137.135808 
L 246.712497 134.743812 
L 247.007906 137.02872 
L 247.303315 137.763375 
L 247.598724 137.955967 
L 247.894133 138.897376 
L 248.189542 154.994455 
L 248.484951 134.298348 
L 248.78036 134.943499 
L 249.075769 134.076577 
L 249.371178 134.574515 
L 249.666587 134.378271 
L 249.961996 141.977891 
L 250.257405 143.527553 
L 250.552814 134.85697 
L 251.143632 132.084276 
L 251.439041 133.521819 
L 251.73445 133.005199 
L 252.029859 134.859913 
L 252.325269 154.324735 
L 252.620678 133.871594 
L 252.916087 137.293153 
L 253.211496 132.193038 
L 253.506905 131.531614 
L 253.802314 144.074416 
L 254.097723 128.296891 
L 254.393132 130.964825 
L 254.688541 128.684036 
L 255.279359 132.520406 
L 255.574768 132.186892 
L 255.870177 131.353016 
L 256.165586 128.839954 
L 256.460995 133.982738 
L 256.756404 129.53789 
L 257.051813 129.879824 
L 257.642631 126.833774 
L 257.93804 128.69665 
L 258.23345 128.885313 
L 258.528859 129.567069 
L 258.824268 126.952467 
L 259.119677 127.361203 
L 259.415086 128.964627 
L 259.710495 128.41433 
L 260.005904 129.248949 
L 260.301313 127.603749 
L 260.596722 129.156821 
L 260.892131 124.686408 
L 261.18754 127.694088 
L 261.482949 124.072895 
L 261.778358 123.116674 
L 262.073767 129.404298 
L 262.369176 123.679609 
L 262.664585 130.991375 
L 262.959994 125.501929 
L 263.255403 133.696816 
L 263.550812 124.098348 
L 263.846221 126.729328 
L 264.141631 124.41925 
L 264.43704 128.267056 
L 264.732449 122.752577 
L 265.027858 124.110989 
L 265.323267 120.707425 
L 265.618676 122.554054 
L 265.914085 127.059394 
L 266.209494 127.498677 
L 266.504903 124.751032 
L 266.800312 276.334125 
L 267.095721 126.027772 
L 267.39113 122.028189 
L 267.686539 121.595953 
L 267.981948 125.474962 
L 268.277357 134.676003 
L 268.572766 123.773139 
L 268.868175 135.325864 
L 269.754402 120.091236 
L 270.049812 121.91613 
L 270.345221 120.388765 
L 270.64063 123.463312 
L 270.936039 120.165295 
L 271.231448 120.763768 
L 271.526857 120.313422 
L 271.822266 120.41208 
L 272.117675 117.24427 
L 272.413084 133.915561 
L 272.708493 119.367555 
L 273.003902 128.01778 
L 273.299311 118.295637 
L 273.59472 118.197382 
L 274.185538 121.932593 
L 274.480947 127.45573 
L 274.776356 114.25826 
L 275.071765 130.66021 
L 275.367174 119.916215 
L 275.662583 117.862454 
L 275.957992 121.347959 
L 276.253402 116.710607 
L 276.548811 115.759733 
L 276.84422 116.258222 
L 277.139629 116.208303 
L 277.435038 116.890396 
L 277.730447 114.081702 
L 278.025856 115.090977 
L 278.321265 113.261487 
L 278.616674 115.925317 
L 278.912083 116.551944 
L 279.207492 113.079054 
L 279.502901 121.025288 
L 279.79831 115.408934 
L 280.093719 117.220906 
L 280.389128 111.821209 
L 280.684537 110.466099 
L 280.979946 115.843958 
L 281.275355 112.933653 
L 281.570764 118.224943 
L 281.866173 121.176369 
L 282.161583 111.850486 
L 282.456992 116.694026 
L 282.752401 117.062167 
L 283.04781 117.624469 
L 283.638628 112.901538 
L 283.934037 115.209553 
L 284.229446 108.912448 
L 284.524855 109.159331 
L 284.820264 111.356252 
L 285.115673 109.056159 
L 285.411082 113.32504 
L 285.706491 114.956946 
L 286.0019 109.64361 
L 286.297309 110.392608 
L 286.592718 111.451749 
L 286.888127 107.655818 
L 287.183536 108.31157 
L 287.478945 125.288973 
L 287.774354 108.060969 
L 288.069764 110.871949 
L 288.365173 105.117291 
L 288.660582 114.913171 
L 288.955991 106.083512 
L 289.2514 105.129713 
L 289.546809 108.949698 
L 289.842218 105.487383 
L 290.433036 103.503595 
L 290.728445 110.582038 
L 291.023854 105.41537 
L 291.614672 110.389975 
L 291.910081 103.332677 
L 292.20549 110.273181 
L 292.796308 105.876143 
L 293.091717 106.059466 
L 293.387126 101.625775 
L 293.977945 109.037014 
L 294.273354 101.205396 
L 294.864172 106.904088 
L 295.159581 106.677869 
L 295.45499 101.048301 
L 295.750399 100.314374 
L 296.045808 102.598928 
L 296.341217 276.334125 
L 296.636626 100.941508 
L 296.932035 98.580782 
L 297.522853 102.575397 
L 297.818262 101.179988 
L 298.113671 108.253686 
L 298.40908 100.819219 
L 298.704489 105.567293 
L 298.999898 100.562137 
L 299.295307 99.678563 
L 299.590716 101.433091 
L 299.886126 119.211724 
L 300.181535 102.9369 
L 300.476944 100.530485 
L 300.772353 94.706894 
L 301.067762 101.350993 
L 301.363171 102.395061 
L 301.65858 100.819191 
L 301.953989 101.296319 
L 302.249398 103.534979 
L 302.840216 98.334466 
L 303.135625 99.267427 
L 303.431034 119.266581 
L 303.726443 99.399099 
L 304.021852 95.683164 
L 304.317261 97.110348 
L 304.61267 95.707835 
L 304.908079 111.867931 
L 305.203488 114.254264 
L 305.498897 96.205206 
L 305.794306 100.950846 
L 306.089716 99.606723 
L 306.385125 99.785466 
L 306.680534 100.359653 
L 306.975943 98.960971 
L 307.271352 95.821112 
L 307.566761 99.38245 
L 307.86217 95.071428 
L 308.157579 100.358176 
L 308.452988 93.015459 
L 308.748397 93.487467 
L 309.043806 102.071424 
L 309.339215 98.889941 
L 309.634624 94.041995 
L 309.930033 114.524707 
L 310.225442 97.359419 
L 310.520851 90.410091 
L 310.81626 89.097443 
L 311.111669 92.889906 
L 311.407078 94.744804 
L 311.702487 91.722134 
L 311.997897 90.419167 
L 312.588715 93.782444 
L 312.884124 92.925462 
L 313.179533 95.400049 
L 313.474942 94.224433 
L 313.770351 92.364847 
L 314.06576 91.39864 
L 314.361169 93.238375 
L 314.656578 88.202144 
L 315.247396 98.095117 
L 315.542805 95.589898 
L 315.838214 89.199122 
L 316.133623 90.088108 
L 316.429032 93.887379 
L 316.724441 90.88607 
L 317.01985 92.108321 
L 317.315259 90.927728 
L 317.610668 86.150751 
L 317.906078 94.392884 
L 318.201487 90.368513 
L 318.792305 90.20455 
L 319.087714 87.37734 
L 319.383123 108.478353 
L 319.678532 111.470304 
L 319.973941 84.632277 
L 320.26935 91.302864 
L 320.564759 85.01688 
L 321.155577 81.612343 
L 321.450986 84.305184 
L 321.746395 85.800647 
L 322.041804 88.234319 
L 322.337213 84.595388 
L 322.632622 84.280703 
L 322.928031 84.826598 
L 323.22344 83.317955 
L 323.518849 78.432443 
L 324.109668 93.097958 
L 324.405077 94.058466 
L 324.700486 84.410854 
L 324.995895 79.376733 
L 325.586713 83.505181 
L 325.882122 276.334125 
L 326.177531 82.898669 
L 326.47294 91.30431 
L 326.768349 84.703992 
L 327.063758 86.773871 
L 327.359167 89.917019 
L 327.654576 88.509939 
L 327.949985 80.319733 
L 328.540803 79.208641 
L 328.836212 78.619517 
L 329.131621 88.263103 
L 329.42703 79.971952 
L 329.72244 85.039887 
L 330.017849 82.084601 
L 330.313258 82.704923 
L 330.608667 77.697513 
L 330.904076 77.730642 
L 331.199485 79.942112 
L 331.494894 74.588511 
L 331.790303 78.500161 
L 332.085712 86.458471 
L 332.381121 101.691347 
L 332.67653 99.828971 
L 332.971939 78.304506 
L 333.267348 79.110135 
L 333.562757 82.411737 
L 333.858166 78.503361 
L 334.153575 80.241744 
L 334.744393 78.622459 
L 335.039802 86.08428 
L 335.335211 85.121952 
L 335.630621 80.280646 
L 335.92603 80.116591 
L 336.221439 79.447924 
L 336.516848 98.147308 
L 336.812257 76.080153 
L 337.107666 75.650412 
L 337.403075 81.410359 
L 337.698484 95.561878 
L 337.993893 78.122239 
L 338.289302 80.162322 
L 338.584711 75.294175 
L 338.88012 86.318501 
L 339.175529 86.369877 
L 339.470938 72.240834 
L 339.766347 72.587534 
L 340.061756 71.000977 
L 340.357165 79.13918 
L 340.652574 69.136338 
L 340.947983 67.695471 
L 341.834211 79.893357 
L 342.12962 72.843681 
L 342.425029 68.728297 
L 342.720438 67.923961 
L 343.015847 68.898983 
L 343.311256 76.107421 
L 343.606665 78.546069 
L 343.902074 75.708074 
L 344.197483 95.949005 
L 344.492892 71.554946 
L 344.788301 74.236823 
L 345.08371 68.662745 
L 345.379119 67.639276 
L 345.674528 73.711887 
L 345.969937 68.983186 
L 346.265346 67.312814 
L 346.560755 62.2311 
L 346.856164 71.312354 
L 347.151573 69.897718 
L 347.446982 75.128282 
L 348.33321 64.725314 
L 348.924028 70.966947 
L 349.219437 74.838189 
L 349.514846 72.794521 
L 349.810255 77.337491 
L 350.105664 75.768689 
L 350.401073 68.188295 
L 350.696482 68.202277 
L 350.991891 71.864858 
L 351.2873 70.571145 
L 351.582709 66.030186 
L 351.878118 64.422191 
L 352.173527 69.881876 
L 352.468936 93.982126 
L 352.764345 80.491271 
L 353.059754 61.731964 
L 353.355163 70.132906 
L 353.650573 70.146742 
L 353.945982 67.597137 
L 354.241391 63.177979 
L 354.5368 68.685279 
L 354.832209 71.942164 
L 355.127618 67.494112 
L 355.423027 276.334125 
L 355.718436 71.129591 
L 356.013845 63.137406 
L 356.309254 59.132543 
L 356.604663 61.360734 
L 356.900072 87.199903 
L 357.195481 60.681978 
L 357.49089 61.300632 
L 357.786299 68.215302 
L 358.081708 61.194202 
L 358.377117 59.83407 
L 358.672526 60.12083 
L 358.967935 62.942089 
L 359.263344 73.054454 
L 359.558754 71.68765 
L 360.444981 57.093712 
L 360.74039 64.169281 
L 361.035799 56.441596 
L 361.626617 53.762293 
L 361.922026 65.727071 
L 362.217435 58.352415 
L 362.512844 55.556738 
L 362.808253 61.932006 
L 363.103662 61.650286 
L 363.399071 66.191707 
L 363.69448 58.834521 
L 363.989889 55.618058 
L 364.285298 57.887807 
L 364.580707 62.018872 
L 364.876116 53.505588 
L 365.171525 56.038682 
L 365.466935 56.608494 
L 365.762344 56.913521 
L 366.057753 86.803013 
L 366.353162 63.6571 
L 366.648571 55.256328 
L 366.94398 54.587945 
L 367.239389 54.792411 
L 367.534798 50.650985 
L 367.830207 87.318039 
L 368.125616 50.706333 
L 368.421025 48.497356 
L 368.716434 57.592565 
L 369.011843 48.350406 
L 369.307252 49.019962 
L 369.602661 45.393013 
L 370.193479 50.723368 
L 370.488888 63.547631 
L 370.784297 54.050671 
L 371.375115 69.823892 
L 371.670525 63.263249 
L 371.965934 51.802062 
L 372.261343 67.441928 
L 372.556752 73.545056 
L 373.14757 45.554023 
L 373.442979 63.040504 
L 373.738388 44.643461 
L 374.033797 51.303806 
L 374.329206 44.691308 
L 374.624615 52.233001 
L 374.920024 54.611771 
L 375.215433 41.678888 
L 375.510842 45.170595 
L 375.806251 63.355995 
L 376.10166 60.680106 
L 376.397069 44.787148 
L 376.692478 46.998073 
L 376.987887 47.8984 
L 377.283296 55.240495 
L 377.578706 69.428729 
L 377.874115 52.730083 
L 378.169524 57.156182 
L 378.464933 58.586894 
L 378.760342 47.836009 
L 379.055751 47.877253 
L 379.35116 51.74946 
L 379.646569 36.25166 
L 379.941978 51.463308 
L 380.237387 42.304944 
L 380.532796 37.877164 
L 380.828205 45.895229 
L 381.123614 45.203155 
L 381.419023 53.433778 
L 381.714432 40.310642 
L 382.009841 51.561244 
L 382.30525 57.022691 
L 382.600659 49.375657 
L 382.896068 38.805959 
L 383.191477 49.284318 
L 383.486887 35.557697 
L 383.782296 45.348511 
L 384.077705 41.86407 
L 384.373114 34.414125 
L 384.668523 78.096248 
L 384.668523 78.096248 
" style="fill:none;stroke:#1f77b4;stroke-linecap:square;stroke-width:0.5;"/>
   </g>
   <g id="patch_3">
    <path d="M 43.78125 288.430125 
L 43.78125 22.318125 
" style="fill:none;stroke:#000000;stroke-linecap:square;stroke-linejoin:miter;stroke-width:0.8;"/>
   </g>
   <g id="patch_4">
    <path d="M 400.90125 288.430125 
L 400.90125 22.318125 
" style="fill:none;stroke:#000000;stroke-linecap:square;stroke-linejoin:miter;stroke-width:0.8;"/>
   </g>
   <g id="patch_5">
    <path d="M 43.78125 288.430125 
L 400.90125 288.430125 
" style="fill:none;stroke:#000000;stroke-linecap:square;stroke-linejoin:miter;stroke-width:0.8;"/>
   </g>
   <g id="patch_6">
    <path d="M 43.78125 22.318125 
L 400.90125 22.318125 
" style="fill:none;stroke:#000000;stroke-linecap:square;stroke-linejoin:miter;stroke-width:0.8;"/>
   </g>
   <g id="text_14">
    <!-- Average maxQ per episode, joint 4 -->
    <defs>
     <path d="M 34.1875 63.1875 
L 20.796875 26.90625 
L 47.609375 26.90625 
z
M 28.609375 72.90625 
L 39.796875 72.90625 
L 67.578125 0 
L 57.328125 0 
L 50.6875 18.703125 
L 17.828125 18.703125 
L 11.1875 0 
L 0.78125 0 
z
" id="DejaVuSans-41"/>
     <path d="M 11.71875 12.40625 
L 22.015625 12.40625 
L 22.015625 4 
L 14.015625 -11.625 
L 7.71875 -11.625 
L 11.71875 4 
z
" id="DejaVuSans-2c"/>
     <path d="M 9.421875 54.6875 
L 18.40625 54.6875 
L 18.40625 -0.984375 
Q 18.40625 -11.421875 14.421875 -16.109375 
Q 10.453125 -20.796875 1.609375 -20.796875 
L -1.8125 -20.796875 
L -1.8125 -13.1875 
L 0.59375 -13.1875 
Q 5.71875 -13.1875 7.5625 -10.8125 
Q 9.421875 -8.453125 9.421875 -0.984375 
z
M 9.421875 75.984375 
L 18.40625 75.984375 
L 18.40625 64.59375 
L 9.421875 64.59375 
z
" id="DejaVuSans-6a"/>
     <path d="M 54.890625 33.015625 
L 54.890625 0 
L 45.90625 0 
L 45.90625 32.71875 
Q 45.90625 40.484375 42.875 44.328125 
Q 39.84375 48.1875 33.796875 48.1875 
Q 26.515625 48.1875 22.3125 43.546875 
Q 18.109375 38.921875 18.109375 30.90625 
L 18.109375 0 
L 9.078125 0 
L 9.078125 54.6875 
L 18.109375 54.6875 
L 18.109375 46.1875 
Q 21.34375 51.125 25.703125 53.5625 
Q 30.078125 56 35.796875 56 
Q 45.21875 56 50.046875 50.171875 
Q 54.890625 44.34375 54.890625 33.015625 
z
" id="DejaVuSans-6e"/>
     <path d="M 18.3125 70.21875 
L 18.3125 54.6875 
L 36.8125 54.6875 
L 36.8125 47.703125 
L 18.3125 47.703125 
L 18.3125 18.015625 
Q 18.3125 11.328125 20.140625 9.421875 
Q 21.96875 7.515625 27.59375 7.515625 
L 36.8125 7.515625 
L 36.8125 0 
L 27.59375 0 
Q 17.1875 0 13.234375 3.875 
Q 9.28125 7.765625 9.28125 18.015625 
L 9.28125 47.703125 
L 2.6875 47.703125 
L 2.6875 54.6875 
L 9.28125 54.6875 
L 9.28125 70.21875 
z
" id="DejaVuSans-74"/>
    </defs>
    <g transform="translate(117.706875 16.318125)scale(0.12 -0.12)">
     <use xlink:href="#DejaVuSans-41"/>
     <use x="68.330078" xlink:href="#DejaVuSans-76"/>
     <use x="127.509766" xlink:href="#DejaVuSans-65"/>
     <use x="189.033203" xlink:href="#DejaVuSans-72"/>
     <use x="230.146484" xlink:href="#DejaVuSans-61"/>
     <use x="291.425781" xlink:href="#DejaVuSans-67"/>
     <use x="354.902344" xlink:href="#DejaVuSans-65"/>
     <use x="416.425781" xlink:href="#DejaVuSans-20"/>
     <use x="448.212891" xlink:href="#DejaVuSans-6d"/>
     <use x="545.625" xlink:href="#DejaVuSans-61"/>
     <use x="606.904297" xlink:href="#DejaVuSans-78"/>
     <use x="666.083984" xlink:href="#DejaVuSans-51"/>
     <use x="744.794922" xlink:href="#DejaVuSans-20"/>
     <use x="776.582031" xlink:href="#DejaVuSans-70"/>
     <use x="840.058594" xlink:href="#DejaVuSans-65"/>
     <use x="901.582031" xlink:href="#DejaVuSans-72"/>
     <use x="942.695312" xlink:href="#DejaVuSans-20"/>
     <use x="974.482422" xlink:href="#DejaVuSans-65"/>
     <use x="1036.005859" xlink:href="#DejaVuSans-70"/>
     <use x="1099.482422" xlink:href="#DejaVuSans-69"/>
     <use x="1127.265625" xlink:href="#DejaVuSans-73"/>
     <use x="1179.365234" xlink:href="#DejaVuSans-6f"/>
     <use x="1240.546875" xlink:href="#DejaVuSans-64"/>
     <use x="1304.023438" xlink:href="#DejaVuSans-65"/>
     <use x="1365.546875" xlink:href="#DejaVuSans-2c"/>
     <use x="1397.333984" xlink:href="#DejaVuSans-20"/>
     <use x="1429.121094" xlink:href="#DejaVuSans-6a"/>
     <use x="1456.904297" xlink:href="#DejaVuSans-6f"/>
     <use x="1518.085938" xlink:href="#DejaVuSans-69"/>
     <use x="1545.869141" xlink:href="#DejaVuSans-6e"/>
     <use x="1609.248047" xlink:href="#DejaVuSans-74"/>
     <use x="1648.457031" xlink:href="#DejaVuSans-20"/>
     <use x="1680.244141" xlink:href="#DejaVuSans-34"/>
    </g>
   </g>
  </g>
 </g>
 <defs>
  <clipPath id="p5e1d7db2f5">
   <rect height="266.112" width="357.12" x="43.78125" y="22.318125"/>
  </clipPath>
 </defs>
</svg>
