<?xml version="1.0" encoding="utf-8" standalone="no"?>
<!DOCTYPE svg PUBLIC "-//W3C//DTD SVG 1.1//EN"
  "http://www.w3.org/Graphics/SVG/1.1/DTD/svg11.dtd">
<!-- Created with matplotlib (http://matplotlib.org/) -->
<svg height="408pt" version="1.1" viewBox="0 0 504 408" width="504pt" xmlns="http://www.w3.org/2000/svg" xmlns:xlink="http://www.w3.org/1999/xlink">
 <defs>
  <style type="text/css">
*{stroke-linecap:butt;stroke-linejoin:round;stroke-miterlimit:100000;}
  </style>
 </defs>
 <g id="figure_1">
  <g id="patch_1">
   <path d="M 0 408.16925 
L 504.31875 408.16925 
L 504.31875 0 
L 0 0 
z
" style="fill:#ffffff;"/>
  </g>
  <g id="axes_1">
   <g id="patch_2">
    <path d="M 35.44875 368.74175 
L 481.84875 368.74175 
L 481.84875 23.14175 
L 35.44875 23.14175 
z
" style="fill:#ffffff;"/>
   </g>
   <g id="line2d_1">
    <path clip-path="url(#p86111df515)" d="M 35.67195 356.163528 
L 35.89515 356.581812 
L 36.11835 356.080302 
L 36.56475 355.678651 
L 36.78795 355.920702 
L 37.23435 356.023143 
L 37.45755 356.409031 
L 37.68075 355.663272 
L 38.12715 356.309277 
L 38.35035 356.019705 
L 38.57355 356.533806 
L 38.79675 356.560135 
L 39.01995 356.027122 
L 39.24315 355.89457 
L 39.68955 356.623839 
L 39.91275 356.33451 
L 40.13595 356.229484 
L 40.35915 355.656239 
L 40.80555 356.655129 
L 41.02875 355.615693 
L 41.25195 356.449556 
L 41.47515 355.931184 
L 41.92155 356.196988 
L 42.14475 356.822928 
L 42.36795 355.864192 
L 42.59115 355.519634 
L 42.81435 356.165735 
L 43.03755 356.351885 
L 43.26075 355.893649 
L 43.70715 356.145763 
L 43.93035 355.498423 
L 44.15355 356.294329 
L 44.37675 356.140549 
L 44.59995 355.712341 
L 44.82315 355.86828 
L 45.04635 356.601824 
L 45.26955 355.567475 
L 45.49275 356.234626 
L 45.71595 356.406909 
L 45.93915 355.737759 
L 46.38555 356.705188 
L 46.60875 356.285975 
L 46.83195 356.378744 
L 47.05515 355.985134 
L 47.27835 356.10046 
L 47.50155 355.81396 
L 47.72475 356.78371 
L 47.94795 356.227985 
L 48.17115 356.1162 
L 48.39435 356.344826 
L 48.84075 355.858425 
L 49.06395 356.555895 
L 49.28715 355.927022 
L 49.51035 355.915668 
L 49.73355 355.707051 
L 50.40315 356.557328 
L 50.62635 355.823629 
L 50.84955 356.318149 
L 51.07275 356.39165 
L 51.29595 355.995521 
L 51.51915 356.148756 
L 51.74235 355.523891 
L 51.96555 355.266361 
L 52.18875 356.009389 
L 52.41195 356.109413 
L 52.85835 355.998084 
L 53.08155 356.38062 
L 53.30475 355.683296 
L 53.52795 355.824043 
L 53.75115 356.48714 
L 53.97435 356.02363 
L 54.19755 356.216675 
L 54.64395 355.891225 
L 54.86715 356.744196 
L 55.09035 356.749686 
L 55.31355 356.229042 
L 55.75995 356.166384 
L 55.98315 355.982458 
L 56.42955 356.515639 
L 56.65275 355.813428 
L 57.09915 356.133721 
L 57.32235 356.537468 
L 57.54555 356.564619 
L 57.76875 355.665579 
L 57.99195 355.735345 
L 58.21515 356.148658 
L 58.43835 356.852217 
L 58.66155 355.801486 
L 58.88475 355.832618 
L 59.10795 355.613933 
L 59.33115 356.459232 
L 59.55435 355.496289 
L 59.77755 356.87656 
L 60.00075 356.580066 
L 60.22395 356.538895 
L 60.44715 355.727 
L 60.67035 355.981733 
L 60.89355 355.79207 
L 61.11675 356.338062 
L 61.33995 355.386314 
L 61.78635 356.599341 
L 62.00955 355.374834 
L 62.23275 356.490934 
L 62.45595 355.934032 
L 62.67915 356.493744 
L 62.90235 356.584345 
L 63.12555 356.020346 
L 63.34875 356.334375 
L 63.57195 356.000595 
L 63.79515 356.753713 
L 64.01835 356.219909 
L 64.24155 356.200695 
L 64.46475 355.58392 
L 64.68795 356.063588 
L 65.13435 356.199334 
L 65.35755 356.040754 
L 65.58075 356.435004 
L 65.80395 355.831816 
L 66.02715 355.552346 
L 66.47355 356.474888 
L 66.69675 356.531721 
L 66.91995 356.037785 
L 67.14315 356.396932 
L 67.36635 356.269188 
L 67.58955 357.169908 
L 67.81275 355.631901 
L 68.03595 356.435388 
L 68.25915 356.032357 
L 68.48235 356.282382 
L 68.70555 355.957706 
L 68.92875 356.147867 
L 69.15195 355.900362 
L 69.59835 355.995595 
L 69.82155 356.885602 
L 70.04475 356.514119 
L 70.26795 355.856735 
L 70.49115 356.508662 
L 70.71435 355.877992 
L 71.16075 355.638372 
L 71.60715 356.132126 
L 71.83035 355.924027 
L 72.27675 356.500628 
L 72.72315 356.032407 
L 72.94635 356.551887 
L 73.16955 355.391651 
L 73.39275 356.072587 
L 73.61595 356.04258 
L 73.83915 356.142827 
L 74.06235 355.933857 
L 74.50875 355.912361 
L 74.73195 355.331763 
L 74.95515 356.461266 
L 75.40155 356.331086 
L 75.62475 356.459084 
L 75.84795 355.54485 
L 76.07115 356.31122 
L 76.29435 355.833302 
L 76.51755 356.044065 
L 76.74075 356.684485 
L 76.96395 356.044078 
L 77.41035 356.527312 
L 77.63355 355.724848 
L 78.07995 357.003674 
L 78.30315 355.674883 
L 78.74955 356.643736 
L 78.97275 356.137083 
L 79.19595 356.596052 
L 79.41915 356.009397 
L 80.08875 355.948494 
L 80.31195 355.654311 
L 80.53515 356.223 
L 80.75835 356.033263 
L 80.98155 356.27763 
L 81.20475 355.928839 
L 81.42795 356.519601 
L 81.65115 355.375511 
L 81.87435 356.1967 
L 82.32075 356.362581 
L 82.54395 356.648793 
L 82.76715 356.435036 
L 82.99035 355.54847 
L 83.21355 356.396879 
L 83.43675 355.71691 
L 83.88315 355.895295 
L 84.10635 355.990985 
L 84.32955 356.426102 
L 84.55275 356.196795 
L 84.77595 355.247649 
L 84.99915 356.383962 
L 85.22235 356.320235 
L 85.44555 355.800816 
L 85.66875 356.132801 
L 85.89195 356.096121 
L 86.11515 355.798767 
L 86.33835 355.86515 
L 86.56155 356.445034 
L 86.78475 356.67541 
L 87.23115 355.714889 
L 87.45435 356.215201 
L 87.90075 355.617095 
L 88.12395 356.088928 
L 88.34715 355.772878 
L 88.79355 356.324624 
L 89.01675 355.654667 
L 89.23995 356.170891 
L 89.46315 355.699512 
L 89.68635 355.985357 
L 89.90955 356.586434 
L 90.13275 356.338631 
L 90.35595 356.357942 
L 91.02555 355.621529 
L 91.24875 356.242717 
L 91.47195 355.963532 
L 91.69515 359.877583 
L 91.91835 354.463221 
L 92.14155 358.03397 
L 92.58795 343.382235 
L 92.81115 343.610614 
L 93.03435 319.994041 
L 93.25755 329.074231 
L 93.48075 331.598534 
L 93.70395 338.294712 
L 93.92715 322.705164 
L 94.15035 329.371 
L 94.37355 311.495818 
L 94.59675 318.087945 
L 94.81995 279.422449 
L 95.04315 311.440104 
L 95.26635 299.476621 
L 95.48955 272.249622 
L 95.71275 297.653348 
L 95.93595 301.65843 
L 96.38235 268.313985 
L 96.60555 299.987158 
L 96.82875 286.687829 
L 97.05195 287.701597 
L 97.27515 247.00247 
L 97.49835 307.859208 
L 97.72155 270.474974 
L 97.94475 284.387082 
L 98.16795 251.914657 
L 98.39115 249.01117 
L 98.61435 295.083676 
L 98.83755 258.762833 
L 99.06075 260.452012 
L 99.28395 195.730123 
L 99.50715 232.374843 
L 99.73035 290.733246 
L 99.95355 259.026137 
L 100.17675 277.792066 
L 100.39995 240.602659 
L 100.62315 305.202188 
L 100.84635 279.426121 
L 101.06955 271.489353 
L 101.51595 290.427391 
L 101.73915 231.400789 
L 101.96235 278.081675 
L 102.18555 263.863702 
L 102.40875 275.196311 
L 102.63195 249.266572 
L 102.85515 269.320465 
L 103.07835 257.856398 
L 103.52475 296.90083 
L 103.74795 256.321131 
L 103.97115 252.182391 
L 104.41755 216.113125 
L 104.64075 244.58182 
L 105.08715 198.224368 
L 105.31035 231.943715 
L 105.53355 219.699722 
L 105.97995 243.850682 
L 106.20315 239.042673 
L 106.42635 285.495533 
L 106.64955 304.927399 
L 106.87275 296.925633 
L 107.09595 281.263156 
L 107.31915 211.582295 
L 107.54235 243.104037 
L 107.76555 244.358956 
L 107.98875 252.105285 
L 108.21195 290.166458 
L 108.65835 229.081306 
L 108.88155 232.649762 
L 109.10475 306.499229 
L 109.32795 255.917035 
L 109.55115 284.022934 
L 109.77435 249.460532 
L 109.99755 295.995995 
L 110.22075 245.847152 
L 110.44395 293.436416 
L 110.66715 239.023445 
L 110.89035 228.132605 
L 111.11355 281.05145 
L 111.33675 241.013888 
L 111.55995 280.502194 
L 111.78315 208.812765 
L 112.00635 263.711813 
L 112.22955 263.87754 
L 112.67595 300.854418 
L 112.89915 214.868677 
L 113.12235 297.07244 
L 113.34555 272.738599 
L 113.56875 314.179156 
L 113.79195 254.668517 
L 114.01515 264.024733 
L 114.23835 317.739775 
L 114.46155 210.598059 
L 115.13115 278.211096 
L 115.80075 221.152204 
L 116.02395 219.378646 
L 116.24715 269.396429 
L 116.47035 239.632393 
L 116.69355 252.647695 
L 117.13995 239.662815 
L 117.36315 249.134613 
L 117.58635 287.040113 
L 117.80955 271.957666 
L 118.03275 215.873789 
L 118.25595 230.765834 
L 118.47915 272.031019 
L 118.70235 234.110673 
L 118.92555 267.587296 
L 119.37195 261.47955 
L 119.59515 219.754244 
L 119.81835 212.470564 
L 120.04155 229.616181 
L 120.26475 280.212416 
L 120.48795 214.710298 
L 120.71115 221.994636 
L 120.93435 209.765261 
L 121.15755 286.232978 
L 121.38075 224.731059 
L 121.60395 311.989841 
L 121.82715 180.343066 
L 122.05035 192.689468 
L 122.27355 215.725369 
L 122.49675 257.814007 
L 122.94315 212.670887 
L 123.16635 313.388889 
L 123.38955 217.801652 
L 123.61275 224.143619 
L 123.83595 247.947126 
L 124.05915 193.199476 
L 124.28235 243.184876 
L 124.50555 208.556973 
L 124.72875 277.417385 
L 124.95195 191.061143 
L 125.17515 191.378918 
L 125.39835 172.658556 
L 125.62155 233.434681 
L 125.84475 175.464564 
L 126.06795 239.510275 
L 126.51435 217.153375 
L 126.73755 212.253796 
L 126.96075 201.258934 
L 127.18395 197.900793 
L 127.40715 228.532185 
L 127.63035 288.70356 
L 127.85355 230.15338 
L 128.29995 252.342791 
L 128.52315 291.329043 
L 128.74635 181.832055 
L 128.96955 169.386673 
L 129.19275 174.310934 
L 129.41595 167.056057 
L 129.63915 191.401293 
L 130.08555 199.870102 
L 130.30875 212.264268 
L 130.53195 202.931496 
L 130.75515 277.252733 
L 130.97835 196.442782 
L 131.42475 279.372738 
L 131.64795 204.04811 
L 131.87115 178.896084 
L 132.09435 185.602836 
L 132.31755 229.799882 
L 132.54075 198.632546 
L 132.76395 207.665004 
L 132.98715 177.030566 
L 133.21035 196.585345 
L 133.43355 186.181103 
L 133.87995 239.092089 
L 134.10315 180.122099 
L 134.32635 188.759657 
L 134.54955 216.941723 
L 134.77275 200.481935 
L 134.99595 197.387691 
L 135.21915 212.88808 
L 135.44235 188.980183 
L 135.66555 189.700572 
L 135.88875 191.570582 
L 136.11195 180.256791 
L 136.33515 193.926833 
L 136.55835 199.049452 
L 136.78155 191.682747 
L 137.00475 209.696998 
L 137.22795 208.480667 
L 137.45115 225.121884 
L 137.67435 198.524575 
L 137.89755 203.29535 
L 138.12075 225.350281 
L 138.34395 204.683534 
L 138.56715 242.375824 
L 138.79035 316.183284 
L 139.01355 315.436504 
L 139.23675 301.054121 
L 139.45995 195.400188 
L 139.68315 286.762728 
L 139.90635 257.979425 
L 140.12955 306.287689 
L 140.35275 309.378167 
L 140.57595 288.796555 
L 140.79915 289.649231 
L 141.02235 287.323998 
L 141.24555 318.263238 
L 141.46875 281.77631 
L 141.69195 300.857776 
L 141.91515 295.423823 
L 142.13835 285.069616 
L 142.36155 267.698903 
L 142.58475 280.223277 
L 142.80795 281.677247 
L 143.03115 298.292708 
L 143.25435 277.884359 
L 143.47755 272.960161 
L 143.70075 294.390832 
L 143.92395 294.48449 
L 144.14715 302.768489 
L 144.37035 294.564963 
L 144.59355 265.299613 
L 144.81675 307.377031 
L 145.03995 266.866273 
L 145.48635 250.468931 
L 145.70955 225.041735 
L 145.93275 294.878749 
L 146.15595 299.84721 
L 146.37915 301.776331 
L 146.60235 269.737054 
L 147.04875 239.503433 
L 147.49515 305.305209 
L 147.71835 238.251029 
L 147.94155 307.183426 
L 148.16475 278.577917 
L 148.38795 227.727697 
L 148.61115 276.326367 
L 148.83435 209.471195 
L 149.05755 230.957574 
L 149.28075 314.861594 
L 149.50395 216.833972 
L 149.72715 207.80589 
L 149.95035 277.03052 
L 150.17355 268.173448 
L 150.39675 305.325528 
L 150.61995 290.426305 
L 150.84315 253.677064 
L 151.06635 279.283689 
L 151.28955 244.091511 
L 151.51275 265.535338 
L 151.95915 219.388165 
L 152.18235 261.342862 
L 152.40555 253.936593 
L 152.62875 234.90359 
L 152.85195 251.088759 
L 153.07515 281.335513 
L 153.29835 222.693506 
L 153.52155 272.509155 
L 153.74475 265.879933 
L 153.96795 204.489469 
L 154.19115 190.923981 
L 154.41435 249.672474 
L 154.63755 230.469915 
L 154.86075 241.460777 
L 155.08395 183.68171 
L 155.30715 272.732787 
L 155.53035 218.782719 
L 155.75355 215.877607 
L 155.97675 265.995962 
L 156.19995 219.568288 
L 156.42315 240.119463 
L 156.64635 217.361063 
L 156.86955 273.653233 
L 157.09275 217.322598 
L 157.31595 290.40493 
L 157.53915 275.939704 
L 157.76235 279.237645 
L 157.98555 278.194195 
L 158.20875 217.757613 
L 158.43195 223.893833 
L 158.65515 218.61816 
L 158.87835 231.919735 
L 159.10155 263.674241 
L 159.32475 225.716345 
L 159.54795 270.109133 
L 159.77115 232.21128 
L 159.99435 216.589459 
L 160.21755 258.66378 
L 160.44075 220.122146 
L 160.66395 248.954227 
L 160.88715 250.683828 
L 161.11035 203.332967 
L 161.33355 246.973498 
L 161.55675 254.866297 
L 161.77995 242.409583 
L 162.00315 240.447287 
L 162.22635 233.659603 
L 162.44955 240.566931 
L 162.67275 238.300907 
L 162.89595 270.953008 
L 163.11915 234.259465 
L 163.34235 270.151681 
L 163.56555 226.306177 
L 163.78875 264.509813 
L 164.01195 225.102057 
L 164.45835 273.673596 
L 164.68155 240.08468 
L 164.90475 240.741508 
L 165.12795 258.992399 
L 165.35115 231.530091 
L 165.57435 281.818501 
L 165.79755 224.307899 
L 166.24395 250.951245 
L 166.46715 247.883297 
L 166.69035 263.255808 
L 166.91355 259.302803 
L 167.13675 243.221719 
L 167.35995 284.398572 
L 167.58315 241.627437 
L 167.80635 272.170205 
L 168.25275 248.221844 
L 168.47595 271.774305 
L 168.69915 279.301876 
L 168.92235 279.407214 
L 169.14555 234.50616 
L 169.36875 259.093552 
L 169.59195 245.918349 
L 169.81515 245.399335 
L 170.03835 253.00985 
L 170.26155 271.256433 
L 170.48475 266.237408 
L 170.70795 241.634233 
L 170.93115 255.377015 
L 171.15435 238.761896 
L 171.60075 287.550048 
L 171.82395 279.598607 
L 172.04715 250.072321 
L 172.27035 279.318174 
L 172.49355 262.790907 
L 172.71675 263.815518 
L 172.93995 270.561155 
L 173.16315 272.742655 
L 173.38635 254.388512 
L 173.60955 256.991252 
L 173.83275 284.930889 
L 174.05595 264.550941 
L 174.27915 254.66972 
L 174.50235 274.19728 
L 174.72555 268.065284 
L 174.94875 279.120202 
L 175.17195 241.005454 
L 175.61835 280.913291 
L 175.84155 245.060868 
L 176.06475 271.84509 
L 176.28795 284.697112 
L 176.51115 252.565837 
L 176.73435 279.02424 
L 176.95755 274.932956 
L 177.18075 277.461183 
L 177.40395 295.415214 
L 177.62715 265.732197 
L 177.85035 263.95113 
L 178.07355 282.991188 
L 178.29675 270.310586 
L 178.51995 266.277939 
L 178.74315 257.626893 
L 178.96635 277.174678 
L 179.18955 266.426398 
L 179.41275 289.229213 
L 179.63595 257.674614 
L 179.85915 282.814701 
L 180.08235 261.504795 
L 180.30555 265.510849 
L 180.97515 245.826464 
L 181.19835 279.520864 
L 181.42155 255.327036 
L 181.64475 260.20612 
L 182.09115 256.823623 
L 182.31435 267.228505 
L 182.53755 252.517406 
L 182.76075 248.252555 
L 182.98395 270.229484 
L 183.20715 277.987043 
L 183.43035 248.300582 
L 183.65355 270.731249 
L 183.87675 258.270566 
L 184.09995 239.543601 
L 184.32315 265.305699 
L 184.54635 247.766729 
L 184.76955 265.846962 
L 184.99275 261.928778 
L 185.21595 274.342492 
L 185.43915 276.76928 
L 185.66235 242.053724 
L 186.10875 262.807319 
L 186.33195 264.128882 
L 186.55515 285.328677 
L 186.77835 268.700703 
L 187.00155 283.01435 
L 187.22475 256.02651 
L 187.44795 265.35185 
L 187.67115 265.72199 
L 187.89435 244.378808 
L 188.34075 274.654567 
L 188.56395 275.959662 
L 188.78715 289.567212 
L 189.01035 253.827182 
L 189.23355 278.207388 
L 189.45675 290.128486 
L 189.67995 255.034929 
L 189.90315 252.902943 
L 190.12635 295.623134 
L 190.34955 289.744683 
L 190.57275 264.421838 
L 190.79595 263.332918 
L 191.24235 281.602228 
L 191.46555 269.930302 
L 191.68875 280.45272 
L 191.91195 281.566574 
L 192.13515 248.333765 
L 192.35835 277.543454 
L 192.58155 286.275636 
L 192.80475 283.502944 
L 193.02795 248.949879 
L 193.25115 281.897275 
L 193.47435 266.619633 
L 193.69755 278.250619 
L 193.92075 283.63859 
L 194.14395 261.886664 
L 194.36715 283.625011 
L 194.59035 290.621739 
L 194.81355 281.948746 
L 195.03675 281.561851 
L 195.25995 273.658695 
L 195.48315 281.790753 
L 195.70635 244.983903 
L 196.15275 292.921085 
L 196.37595 287.436328 
L 196.59915 289.640221 
L 196.82235 283.700144 
L 197.04555 253.824111 
L 197.49195 291.879577 
L 197.71515 285.944037 
L 197.93835 290.432493 
L 198.16155 289.368633 
L 198.38475 255.968377 
L 198.60795 275.41176 
L 198.83115 267.144552 
L 199.05435 240.041613 
L 199.27755 290.056198 
L 199.50075 263.518874 
L 199.72395 297.91549 
L 199.94715 284.678514 
L 200.17035 285.684945 
L 200.39355 295.650339 
L 200.61675 283.260172 
L 200.83995 252.117504 
L 201.06315 285.532647 
L 201.28635 288.7645 
L 201.50955 294.079159 
L 201.73275 233.941094 
L 201.95595 296.406063 
L 202.17915 279.453309 
L 202.40235 289.777415 
L 202.62555 272.130654 
L 202.84875 277.210706 
L 203.07195 304.301039 
L 203.29515 302.190766 
L 203.51835 276.917961 
L 203.74155 298.330907 
L 204.18795 279.007539 
L 204.41115 275.679582 
L 204.63435 263.509259 
L 204.85755 271.862252 
L 205.08075 311.676622 
L 205.30395 288.856835 
L 205.52715 293.508021 
L 205.75035 308.825486 
L 205.97355 294.855893 
L 206.19675 301.507876 
L 206.41995 274.227619 
L 206.64315 280.58475 
L 206.86635 278.014978 
L 207.08955 289.34113 
L 207.31275 293.294153 
L 207.53595 280.619508 
L 207.98235 293.690303 
L 208.20555 268.787395 
L 208.42875 299.071858 
L 208.65195 297.531821 
L 208.87515 289.843133 
L 209.09835 270.86626 
L 209.32155 303.144809 
L 209.54475 255.733558 
L 209.99115 294.323065 
L 210.21435 290.37528 
L 210.43755 305.19807 
L 210.88395 287.668287 
L 211.10715 287.530708 
L 211.33035 286.692618 
L 211.55355 294.962743 
L 211.77675 285.005766 
L 211.99995 287.554544 
L 212.22315 262.480555 
L 212.66955 305.144849 
L 212.89275 285.625856 
L 213.11595 276.963793 
L 213.33915 280.533539 
L 213.56235 293.250179 
L 213.78555 282.167643 
L 214.23195 299.299277 
L 214.45515 277.716952 
L 214.67835 280.270939 
L 214.90155 309.017311 
L 215.12475 298.779139 
L 215.34795 272.301881 
L 215.57115 287.986478 
L 215.79435 273.798425 
L 216.24075 294.049519 
L 216.46395 291.244206 
L 216.68715 293.189264 
L 216.91035 304.582974 
L 217.13355 300.585665 
L 217.35675 278.905003 
L 217.80315 294.211542 
L 218.02635 287.672816 
L 218.24955 288.638417 
L 218.47275 278.189198 
L 218.69595 298.705621 
L 218.91915 301.782747 
L 219.14235 279.793578 
L 219.36555 289.358997 
L 219.58875 281.433801 
L 220.03515 290.656047 
L 220.25835 300.531598 
L 220.48155 294.836938 
L 220.70475 277.399369 
L 220.92795 279.638187 
L 221.59755 295.465793 
L 221.82075 281.860138 
L 222.04395 301.049604 
L 222.26715 270.244222 
L 222.49035 295.284578 
L 222.71355 266.426682 
L 222.93675 308.515852 
L 223.15995 295.796406 
L 223.60635 300.723161 
L 224.05275 268.609418 
L 224.27595 278.159126 
L 224.49915 254.030203 
L 224.72235 308.250588 
L 224.94555 284.746898 
L 225.16875 275.977365 
L 225.39195 295.713185 
L 225.61515 284.142032 
L 225.83835 293.778545 
L 226.06155 279.644525 
L 226.28475 292.124085 
L 226.50795 261.724741 
L 226.73115 298.910935 
L 226.95435 270.105315 
L 227.17755 286.800106 
L 227.40075 265.117527 
L 227.62395 295.512523 
L 228.07035 274.54585 
L 228.29355 291.280895 
L 228.51675 250.673504 
L 228.73995 287.815379 
L 228.96315 281.370221 
L 229.18635 296.908598 
L 229.40955 269.881671 
L 229.85595 304.497691 
L 230.07915 296.897804 
L 230.30235 268.78194 
L 230.52555 286.084231 
L 230.74875 239.855869 
L 230.97195 238.571574 
L 231.19515 245.729449 
L 231.64155 284.222332 
L 231.86475 288.104666 
L 232.08795 250.093252 
L 232.31115 292.617365 
L 232.53435 257.63375 
L 232.75755 275.488292 
L 232.98075 229.186174 
L 233.20395 257.904465 
L 233.42715 311.227815 
L 233.65035 284.313847 
L 233.87355 243.772366 
L 234.09675 251.890238 
L 234.31995 304.792915 
L 234.76635 267.091938 
L 234.98955 296.728616 
L 235.21275 286.161024 
L 235.43595 264.727271 
L 235.65915 305.482313 
L 235.88235 293.003498 
L 236.10555 258.532631 
L 236.32875 245.066536 
L 236.55195 304.572921 
L 236.77515 290.481475 
L 236.99835 284.86629 
L 237.22155 303.392851 
L 237.66795 215.153068 
L 237.89115 313.345136 
L 238.11435 307.533121 
L 238.33755 255.211106 
L 238.56075 246.125399 
L 238.78395 248.570844 
L 239.00715 276.033398 
L 239.23035 284.270866 
L 239.45355 306.969352 
L 239.67675 267.264348 
L 239.89995 315.836287 
L 240.12315 305.203476 
L 240.34635 302.401046 
L 240.56955 240.67437 
L 240.79275 282.89213 
L 241.01595 290.327876 
L 241.23915 290.949048 
L 241.46235 298.476807 
L 241.90875 290.678208 
L 242.13195 289.186706 
L 242.35515 269.366145 
L 242.57835 291.606705 
L 242.80155 290.872385 
L 243.02475 299.423473 
L 243.24795 247.896629 
L 243.47115 230.855047 
L 243.69435 257.31142 
L 243.91755 298.075268 
L 244.14075 300.748973 
L 244.36395 237.999067 
L 244.58715 302.60535 
L 244.81035 269.539976 
L 245.03355 301.008861 
L 245.25675 216.306896 
L 245.47995 288.201025 
L 245.70315 277.888069 
L 245.92635 275.517729 
L 246.14955 282.165726 
L 246.37275 259.648512 
L 246.59595 291.986893 
L 246.81915 277.309826 
L 247.04235 240.671859 
L 247.26555 279.288569 
L 247.48875 293.65635 
L 247.71195 277.219576 
L 247.93515 301.403203 
L 248.15835 273.18473 
L 248.38155 281.390411 
L 248.60475 284.932909 
L 248.82795 295.125061 
L 249.05115 282.772028 
L 249.27435 298.323713 
L 249.49755 297.832073 
L 249.72075 296.681569 
L 249.94395 296.183926 
L 250.16715 287.581852 
L 250.61355 307.122528 
L 250.83675 304.561903 
L 251.05995 258.949322 
L 251.28315 301.845761 
L 251.72955 274.94463 
L 251.95275 309.118985 
L 252.17595 284.804888 
L 252.39915 305.469096 
L 252.84555 298.483241 
L 253.06875 282.556682 
L 253.29195 307.412957 
L 253.51515 253.863788 
L 253.73835 311.961484 
L 253.96155 269.387903 
L 254.18475 300.367738 
L 254.40795 247.529029 
L 254.85435 289.869691 
L 255.07755 305.495281 
L 255.30075 254.541427 
L 255.52395 265.408331 
L 255.74715 235.358685 
L 255.97035 260.178496 
L 256.19355 251.379164 
L 256.41675 292.23715 
L 256.63995 253.071899 
L 256.86315 309.383962 
L 257.08635 234.054946 
L 257.30955 272.75074 
L 257.53275 285.46376 
L 257.75595 254.207249 
L 257.97915 255.618087 
L 258.20235 290.657072 
L 258.42555 263.772925 
L 258.64875 270.026451 
L 258.87195 285.286295 
L 259.09515 242.606727 
L 259.31835 252.88548 
L 259.54155 241.908418 
L 259.76475 265.322535 
L 259.98795 234.916417 
L 260.43435 269.291006 
L 260.65755 225.232135 
L 261.10395 261.67499 
L 261.32715 232.400495 
L 261.55035 257.325582 
L 261.77355 222.513809 
L 261.99675 261.352971 
L 262.21995 226.631582 
L 262.44315 220.946073 
L 262.66635 226.128784 
L 263.11275 278.181835 
L 263.33595 249.606371 
L 263.55915 191.35061 
L 263.78235 262.134175 
L 264.00555 164.067917 
L 264.22875 264.407202 
L 264.45195 238.632921 
L 264.67515 227.181694 
L 264.89835 226.766429 
L 265.12155 242.071565 
L 265.34475 229.460441 
L 265.79115 170.884155 
L 266.23755 254.993803 
L 266.68395 196.44422 
L 267.13035 214.10324 
L 267.35355 158.014771 
L 267.57675 185.194614 
L 267.79995 187.293726 
L 268.02315 218.290563 
L 268.24635 186.06387 
L 268.46955 195.665964 
L 268.69275 232.317683 
L 269.13915 189.014779 
L 269.36235 168.006437 
L 269.58555 239.230611 
L 270.03195 160.476955 
L 270.25515 154.657935 
L 270.47835 210.060815 
L 270.92475 156.015963 
L 271.14795 153.548996 
L 271.37115 184.707456 
L 271.59435 185.739952 
L 271.81755 130.694246 
L 272.26395 190.978526 
L 272.48715 186.107948 
L 272.93355 222.080519 
L 273.15675 164.027609 
L 273.37995 214.201916 
L 273.60315 196.179756 
L 273.82635 202.83369 
L 274.04955 171.326119 
L 274.27275 199.037659 
L 274.49595 172.810391 
L 274.71915 161.711691 
L 274.94235 200.575347 
L 275.16555 203.047151 
L 275.38875 179.783384 
L 275.61195 172.812367 
L 275.83515 258.086523 
L 276.05835 169.164041 
L 276.28155 170.30835 
L 276.50475 159.91181 
L 276.72795 180.404633 
L 277.62075 202.71737 
L 277.84395 205.283722 
L 278.06715 226.043092 
L 278.29035 218.819753 
L 278.51355 154.123863 
L 278.73675 214.58362 
L 278.95995 227.731639 
L 279.18315 170.833572 
L 279.62955 211.139258 
L 279.85275 179.561963 
L 280.07595 199.446919 
L 280.29915 241.98739 
L 280.52235 182.623179 
L 280.74555 184.471085 
L 281.19195 195.815743 
L 281.41515 211.070023 
L 281.63835 197.167678 
L 281.86155 202.341974 
L 282.08475 260.631862 
L 282.53115 158.636919 
L 282.75435 211.921894 
L 282.97755 219.735344 
L 283.20075 178.040869 
L 283.42395 174.709123 
L 283.64715 186.447834 
L 283.87035 219.590138 
L 284.09355 226.160609 
L 284.31675 222.308141 
L 284.53995 195.481822 
L 284.76315 231.695879 
L 284.98635 226.327091 
L 285.20955 228.750347 
L 285.43275 188.965653 
L 285.65595 172.752895 
L 285.87915 171.132253 
L 286.10235 235.547966 
L 286.32555 199.074916 
L 286.54875 187.005795 
L 286.77195 195.1816 
L 286.99515 172.573108 
L 287.21835 191.053603 
L 287.44155 181.375885 
L 287.66475 204.972673 
L 287.88795 205.952445 
L 288.11115 209.83801 
L 288.55755 167.225029 
L 288.78075 196.830309 
L 289.00395 202.076099 
L 289.22715 165.073285 
L 289.45035 215.246249 
L 289.67355 165.16707 
L 289.89675 211.451258 
L 290.34315 158.171964 
L 290.56635 202.969894 
L 290.78955 189.738272 
L 291.01275 194.55397 
L 291.23595 208.021351 
L 291.45915 196.503495 
L 291.68235 195.408986 
L 291.90555 229.675158 
L 292.12875 203.254432 
L 292.35195 195.4954 
L 292.57515 210.996209 
L 292.79835 168.620067 
L 293.02155 198.437415 
L 293.24475 206.545448 
L 293.46795 169.249821 
L 293.69115 173.897313 
L 293.91435 205.532751 
L 294.13755 196.435749 
L 294.36075 220.692816 
L 294.58395 201.093061 
L 294.80715 215.135243 
L 295.03035 202.742118 
L 295.25355 214.34992 
L 295.47675 174.131428 
L 295.92315 187.372959 
L 296.14635 203.642234 
L 296.36955 179.466212 
L 296.59275 206.46555 
L 297.03915 167.965775 
L 297.26235 182.078345 
L 297.48555 223.991063 
L 297.70875 228.159711 
L 297.93195 224.824583 
L 298.15515 180.638273 
L 298.60155 217.76291 
L 298.82475 225.158561 
L 299.04795 199.990798 
L 299.27115 205.0642 
L 299.49435 181.822632 
L 299.71755 170.951281 
L 299.94075 191.052973 
L 300.16395 171.923203 
L 300.38715 222.562557 
L 300.61035 176.090107 
L 300.83355 191.241994 
L 301.05675 257.840285 
L 301.27995 219.358136 
L 301.50315 216.222329 
L 301.94955 182.699854 
L 302.17275 191.347121 
L 302.39595 185.741353 
L 302.61915 194.526802 
L 302.84235 161.185033 
L 303.06555 195.716641 
L 303.28875 191.890822 
L 303.51195 193.016153 
L 303.73515 250.376534 
L 303.95835 186.619309 
L 304.18155 168.4532 
L 304.40475 218.462252 
L 304.62795 202.961489 
L 304.85115 170.475167 
L 305.07435 208.389212 
L 305.29755 211.774338 
L 305.52075 165.178236 
L 305.96715 181.488369 
L 306.19035 160.799734 
L 306.41355 164.207344 
L 306.63675 195.260515 
L 306.85995 189.020329 
L 307.08315 219.495239 
L 307.30635 159.628799 
L 307.52955 200.786623 
L 307.75275 186.626501 
L 307.97595 186.329852 
L 308.19915 199.762439 
L 308.42235 152.82412 
L 308.64555 193.561018 
L 308.86875 181.824152 
L 309.09195 204.044161 
L 309.31515 188.474346 
L 309.53835 188.606074 
L 309.76155 217.112878 
L 310.20795 137.254594 
L 310.43115 190.064534 
L 310.65435 186.299358 
L 310.87755 179.982404 
L 311.10075 184.862596 
L 311.32395 181.951327 
L 311.54715 199.747132 
L 311.77035 188.321056 
L 311.99355 229.1008 
L 312.21675 124.764987 
L 312.43995 144.74345 
L 312.66315 142.970414 
L 312.88635 244.003933 
L 313.10955 185.337415 
L 313.33275 180.674257 
L 313.55595 150.981007 
L 313.77915 163.764103 
L 314.00235 191.480052 
L 314.22555 193.490912 
L 314.44875 158.108777 
L 314.67195 172.434083 
L 314.89515 211.257568 
L 315.34155 167.926303 
L 315.56475 190.767739 
L 315.78795 240.660302 
L 316.01115 159.914221 
L 316.23435 164.032876 
L 316.45755 171.091514 
L 316.68075 202.253872 
L 316.90395 157.880018 
L 317.12715 144.884139 
L 317.35035 199.923094 
L 317.57355 164.973837 
L 317.79675 176.618533 
L 318.01995 176.601073 
L 318.24315 189.802464 
L 318.46635 138.688091 
L 318.68955 121.571182 
L 318.91275 144.002697 
L 319.13595 191.107618 
L 319.35915 162.614543 
L 319.58235 155.633324 
L 319.80555 158.052644 
L 320.02875 118.939761 
L 320.25195 198.096693 
L 320.47515 183.458888 
L 320.69835 137.094641 
L 320.92155 181.878938 
L 321.14475 133.339636 
L 321.36795 203.065274 
L 321.59115 159.831918 
L 321.81435 160.41982 
L 322.03755 168.597881 
L 322.26075 164.316743 
L 322.48395 152.201203 
L 322.70715 180.789584 
L 322.93035 150.446773 
L 323.15355 220.064597 
L 323.37675 148.491239 
L 323.59995 162.727308 
L 323.82315 137.807847 
L 324.04635 137.069605 
L 324.26955 190.330256 
L 324.49275 148.681027 
L 324.93915 162.879796 
L 325.16235 171.27754 
L 325.38555 136.849705 
L 325.83195 173.560114 
L 326.05515 169.889943 
L 326.27835 192.709566 
L 326.50155 139.79388 
L 326.72475 155.140535 
L 326.94795 140.995649 
L 327.17115 157.202514 
L 327.39435 164.7206 
L 327.61755 155.462986 
L 327.84075 163.005844 
L 328.06395 154.923458 
L 328.51035 181.433193 
L 328.73355 173.539054 
L 328.95675 232.987628 
L 329.17995 160.257857 
L 329.40315 181.291123 
L 329.62635 164.879141 
L 329.84955 165.11261 
L 330.07275 132.980748 
L 330.29595 174.023614 
L 330.74235 135.445108 
L 331.18875 168.761457 
L 331.41195 159.444777 
L 331.63515 126.508196 
L 331.85835 167.59098 
L 332.08155 141.523787 
L 332.30475 244.500694 
L 332.52795 104.259378 
L 332.75115 153.310218 
L 332.97435 161.905019 
L 333.19755 150.742323 
L 333.42075 154.884545 
L 333.64395 169.329766 
L 333.86715 165.733559 
L 334.09035 168.714992 
L 334.31355 193.246891 
L 334.53675 151.305724 
L 334.75995 150.751508 
L 334.98315 128.368715 
L 335.20635 170.668969 
L 335.42955 168.764886 
L 335.65275 212.447819 
L 335.87595 220.633702 
L 336.09915 200.435963 
L 336.32235 165.617704 
L 336.54555 156.209199 
L 336.76875 160.426972 
L 336.99195 161.35107 
L 337.21515 113.644065 
L 337.43835 157.823109 
L 337.66155 174.944249 
L 338.10795 132.38028 
L 338.33115 122.661114 
L 338.55435 136.4245 
L 338.77755 125.195859 
L 339.00075 186.859225 
L 339.22395 200.681855 
L 339.44715 201.405168 
L 339.89355 163.34546 
L 340.11675 95.364455 
L 340.33995 178.633279 
L 340.56315 171.890977 
L 340.78635 146.20419 
L 341.00955 158.082129 
L 341.23275 161.662222 
L 341.45595 200.221026 
L 341.67915 162.600309 
L 341.90235 168.054195 
L 342.12555 176.798459 
L 342.57195 107.856865 
L 343.01835 228.620749 
L 343.24155 232.567673 
L 343.46475 167.77989 
L 343.91115 119.714012 
L 344.35755 192.868306 
L 344.58075 142.111074 
L 345.02715 186.960719 
L 345.47355 167.584676 
L 345.69675 196.240478 
L 346.14315 195.058734 
L 346.36635 169.95947 
L 346.58955 220.714005 
L 346.81275 199.917596 
L 347.03595 150.670987 
L 347.25915 132.29312 
L 347.48235 200.825148 
L 347.70555 171.216566 
L 347.92875 221.57142 
L 348.15195 103.392519 
L 348.37515 200.218595 
L 348.59835 95.812817 
L 349.26795 189.396262 
L 349.49115 168.362266 
L 349.71435 182.582143 
L 349.93755 166.029156 
L 350.16075 172.277636 
L 350.38395 186.275505 
L 350.60715 161.252274 
L 350.83035 199.126263 
L 351.05355 140.190979 
L 351.27675 197.304984 
L 351.49995 224.302285 
L 351.72315 152.48036 
L 351.94635 123.627387 
L 352.16955 163.298645 
L 352.39275 149.246598 
L 352.61595 214.133809 
L 352.83915 149.013213 
L 353.06235 209.997038 
L 353.28555 166.418465 
L 353.50875 222.522471 
L 353.73195 199.232422 
L 353.95515 195.31966 
L 354.17835 216.739956 
L 354.40155 99.317902 
L 354.62475 184.982441 
L 354.84795 190.226937 
L 355.07115 115.080761 
L 355.29435 150.047011 
L 355.51755 137.904723 
L 355.74075 100.166076 
L 355.96395 145.455203 
L 356.18715 110.144255 
L 356.41035 104.677708 
L 356.63355 125.950678 
L 356.85675 161.529171 
L 357.07995 108.001879 
L 357.52635 163.819382 
L 357.74955 157.08909 
L 357.97275 159.22885 
L 358.19595 186.62343 
L 358.41915 116.678825 
L 358.64235 130.410187 
L 358.86555 115.446572 
L 359.08875 108.952111 
L 359.31195 146.715894 
L 359.53515 146.944523 
L 359.75835 161.17209 
L 359.98155 125.837126 
L 360.20475 159.095976 
L 360.42795 128.578075 
L 360.65115 128.708281 
L 360.87435 177.281613 
L 361.09755 191.234866 
L 361.32075 129.045967 
L 361.54395 254.667227 
L 361.76715 122.18992 
L 361.99035 133.794171 
L 362.21355 111.397845 
L 362.43675 172.741975 
L 362.65995 105.356396 
L 363.10635 143.438013 
L 363.32955 129.473192 
L 363.55275 158.876951 
L 363.77595 117.053225 
L 363.99915 99.461839 
L 364.22235 126.559953 
L 364.44555 122.102438 
L 364.66875 146.553449 
L 364.89195 107.355159 
L 365.11515 92.655469 
L 365.33835 117.192801 
L 365.78475 94.996455 
L 366.00795 146.467141 
L 366.23115 156.596263 
L 366.45435 263.167635 
L 366.67755 113.067091 
L 366.90075 183.443064 
L 367.12395 205.202495 
L 367.34715 101.96164 
L 367.57035 181.136112 
L 367.79355 109.078941 
L 368.01675 86.210679 
L 368.23995 164.608316 
L 368.46315 103.246534 
L 368.68635 229.945316 
L 368.90955 98.559874 
L 369.57915 215.217214 
L 369.80235 106.430138 
L 370.02555 136.686279 
L 370.24875 189.585529 
L 370.47195 173.527475 
L 370.69515 112.437375 
L 370.91835 135.375518 
L 371.14155 99.573336 
L 371.36475 219.042851 
L 371.81115 102.541197 
L 372.03435 160.475738 
L 372.25755 123.887773 
L 372.48075 184.744411 
L 372.70395 136.117998 
L 372.92715 163.290706 
L 373.37355 100.337409 
L 373.59675 113.497756 
L 373.81995 96.481709 
L 374.04315 167.356263 
L 374.26635 97.454187 
L 374.48955 176.237257 
L 374.71275 100.261469 
L 374.93595 192.851262 
L 375.15915 192.640603 
L 375.38235 172.11867 
L 375.60555 129.380826 
L 375.82875 231.095419 
L 376.05195 107.636699 
L 376.27515 112.332481 
L 376.49835 78.643279 
L 376.72155 156.675055 
L 376.94475 81.335106 
L 377.16795 83.026652 
L 377.39115 131.302109 
L 377.61435 106.776772 
L 377.83755 236.994424 
L 378.06075 81.482657 
L 378.28395 80.335292 
L 378.50715 87.962542 
L 378.73035 144.543531 
L 378.95355 139.26228 
L 379.17675 162.021085 
L 379.39995 80.237483 
L 379.62315 80.29041 
L 379.84635 138.839415 
L 380.06955 154.282956 
L 380.29275 91.112186 
L 380.51595 232.255404 
L 380.73915 74.270259 
L 380.96235 174.47297 
L 381.18555 198.162807 
L 381.40875 82.937592 
L 381.63195 131.996125 
L 381.85515 81.408096 
L 382.07835 96.981273 
L 382.30155 148.395682 
L 382.52475 133.404672 
L 382.74795 155.852114 
L 382.97115 154.811612 
L 383.19435 136.550782 
L 383.41755 75.705317 
L 383.64075 90.334188 
L 383.86395 168.623758 
L 384.08715 112.512144 
L 384.31035 135.032627 
L 384.53355 109.808242 
L 384.75675 134.08172 
L 384.97995 145.535159 
L 385.20315 84.584278 
L 385.42635 168.359036 
L 385.64955 157.221724 
L 385.87275 77.624177 
L 386.09595 239.61977 
L 386.31915 87.00941 
L 386.54235 155.340376 
L 386.76555 116.865844 
L 386.98875 169.66388 
L 387.65835 73.263084 
L 388.10475 175.823208 
L 388.55115 138.276819 
L 388.77435 123.269748 
L 388.99755 73.152042 
L 389.22075 82.191174 
L 389.44395 109.357823 
L 389.66715 191.322762 
L 389.89035 164.264623 
L 390.11355 93.849435 
L 390.33675 91.267276 
L 390.55995 116.164386 
L 390.78315 209.283021 
L 391.00635 82.360874 
L 391.22955 75.892522 
L 391.45275 115.243287 
L 391.67595 175.101793 
L 391.89915 80.450904 
L 392.12235 124.176989 
L 392.79195 75.22626 
L 393.23835 105.736052 
L 393.46155 81.041562 
L 393.68475 102.207479 
L 393.90795 98.668945 
L 394.13115 79.207788 
L 394.35435 146.180084 
L 394.57755 78.79411 
L 394.80075 152.389425 
L 395.02395 83.171776 
L 395.24715 86.506332 
L 395.47035 105.063339 
L 395.69355 76.967119 
L 395.91675 92.048299 
L 396.13995 89.601882 
L 396.36315 95.407943 
L 396.58635 136.478384 
L 396.80955 86.609561 
L 397.03275 86.891591 
L 397.25595 97.053039 
L 397.47915 134.178591 
L 397.70235 104.426928 
L 397.92555 172.559824 
L 398.37195 98.327456 
L 398.59515 85.692664 
L 398.81835 87.403907 
L 399.04155 151.015622 
L 399.26475 77.591355 
L 399.48795 78.511559 
L 399.71115 77.111869 
L 399.93435 138.451134 
L 400.38075 91.339542 
L 400.60395 92.196156 
L 400.82715 77.160809 
L 401.05035 99.584335 
L 401.27355 97.374802 
L 401.49675 90.94902 
L 401.71995 107.339507 
L 401.94315 107.236853 
L 402.38955 145.942063 
L 402.61275 176.023773 
L 402.83595 93.209455 
L 403.05915 97.321651 
L 403.28235 105.714448 
L 403.72875 81.161938 
L 403.95195 94.640925 
L 404.17515 96.382625 
L 404.62155 125.351412 
L 404.84475 86.660848 
L 405.06795 91.444345 
L 405.29115 100.564701 
L 405.51435 103.838217 
L 405.73755 86.546966 
L 405.96075 105.485705 
L 406.18395 71.614405 
L 406.63035 105.173819 
L 406.85355 100.294746 
L 407.07675 106.288113 
L 407.29995 212.84029 
L 407.52315 197.842533 
L 407.74635 110.365151 
L 407.96955 132.223185 
L 408.19275 83.717762 
L 408.41595 70.661501 
L 408.86235 155.28792 
L 409.08555 97.317318 
L 409.30875 81.115308 
L 409.97835 160.525434 
L 410.20155 95.170011 
L 410.42475 74.088091 
L 410.64795 77.735768 
L 410.87115 103.716387 
L 411.31755 105.364341 
L 411.54075 207.59958 
L 411.76395 124.951372 
L 411.98715 87.118919 
L 412.21035 128.361127 
L 412.43355 134.641273 
L 412.65675 76.686782 
L 413.10315 114.600937 
L 413.32635 82.598412 
L 413.54955 109.012545 
L 413.77275 88.956308 
L 413.99595 88.549624 
L 414.21915 102.357933 
L 414.66555 85.699331 
L 414.88875 126.264217 
L 415.11195 101.187602 
L 415.33515 179.657069 
L 415.55835 87.849727 
L 415.78155 239.107954 
L 416.00475 103.754476 
L 416.22795 98.671871 
L 416.45115 99.723455 
L 416.67435 97.888299 
L 416.89755 84.6481 
L 417.12075 108.528659 
L 417.34395 116.836316 
L 417.56715 73.650283 
L 417.79035 118.755508 
L 418.01355 119.776011 
L 418.23675 119.649955 
L 418.45995 122.446923 
L 418.68315 177.001217 
L 418.90635 102.4054 
L 419.12955 91.540994 
L 419.35275 121.167466 
L 419.57595 95.252725 
L 419.79915 118.113561 
L 420.02235 102.144918 
L 420.24555 170.906767 
L 420.46875 108.099495 
L 420.69195 105.603651 
L 420.91515 215.708758 
L 421.13835 85.853828 
L 421.36155 106.147695 
L 421.58475 107.428845 
L 421.80795 130.698608 
L 422.03115 185.252462 
L 422.25435 128.263818 
L 422.47755 133.949086 
L 422.70075 97.545314 
L 422.92395 82.687019 
L 423.14715 81.312265 
L 423.37035 129.252289 
L 423.59355 80.632588 
L 423.81675 124.134742 
L 424.03995 82.280331 
L 424.26315 82.145416 
L 424.48635 109.893156 
L 424.70955 86.214604 
L 424.93275 85.415357 
L 425.15595 159.296557 
L 425.37915 130.655587 
L 425.60235 82.867026 
L 425.82555 125.111755 
L 426.04875 120.19292 
L 426.27195 86.817486 
L 426.49515 101.296473 
L 426.94155 79.489047 
L 427.16475 91.375904 
L 427.38795 82.206707 
L 427.61115 88.94564 
L 427.83435 83.95027 
L 428.05755 75.408297 
L 428.28075 90.71374 
L 428.50395 219.159106 
L 428.72715 132.388379 
L 428.95035 188.357022 
L 429.17355 84.808905 
L 429.39675 93.068312 
L 429.61995 77.042933 
L 429.84315 103.314253 
L 430.06635 88.843455 
L 430.28955 91.923569 
L 430.95915 120.884059 
L 431.18235 85.040118 
L 431.40555 122.597079 
L 431.62875 94.478682 
L 431.85195 85.904021 
L 432.07515 85.799022 
L 432.29835 109.037984 
L 432.52155 83.359335 
L 432.74475 88.493968 
L 432.96795 84.426484 
L 433.19115 91.414466 
L 433.41435 84.018354 
L 433.63755 103.090969 
L 433.86075 96.70084 
L 434.08395 82.273255 
L 434.30715 95.88178 
L 434.53035 120.74902 
L 434.75355 79.351549 
L 434.97675 116.983541 
L 435.19995 92.600686 
L 435.42315 103.286323 
L 435.64635 78.249056 
L 435.86955 138.646843 
L 436.09275 84.504634 
L 436.31595 125.167161 
L 436.53915 94.682492 
L 436.76235 201.370017 
L 436.98555 101.559234 
L 437.20875 172.596441 
L 437.43195 75.966123 
L 437.87835 102.885865 
L 438.10155 98.085099 
L 438.32475 97.587575 
L 438.77115 143.006748 
L 438.99435 83.988565 
L 439.21755 123.580869 
L 439.44075 94.38735 
L 439.66395 150.869805 
L 439.88715 94.613754 
L 440.11035 111.288862 
L 440.33355 95.275864 
L 440.55675 106.938093 
L 440.77995 101.94075 
L 441.00315 83.744945 
L 441.22635 76.075969 
L 441.44955 106.449213 
L 441.67275 111.432371 
L 441.89595 83.846419 
L 442.11915 123.147683 
L 442.34235 97.290476 
L 442.56555 87.695871 
L 442.78875 151.675969 
L 443.01195 89.262918 
L 443.23515 175.83608 
L 443.45835 89.967643 
L 443.68155 107.988506 
L 443.90475 79.173521 
L 444.12795 80.196944 
L 444.35115 83.656778 
L 444.57435 79.508383 
L 444.79755 80.244088 
L 445.02075 105.320276 
L 445.24395 169.571949 
L 445.46715 80.530656 
L 445.69035 101.881751 
L 445.91355 81.227213 
L 446.13675 94.736126 
L 446.58315 79.232842 
L 446.80635 137.844588 
L 447.25275 89.674751 
L 447.47595 114.411948 
L 447.69915 108.758234 
L 447.92235 134.244353 
L 448.36875 93.998429 
L 448.59195 79.583912 
L 448.81515 104.065907 
L 449.03835 71.885858 
L 449.26155 111.787209 
L 449.48475 86.395797 
L 449.70795 126.089887 
L 449.93115 95.145955 
L 450.15435 111.743012 
L 450.37755 80.61897 
L 450.60075 170.682701 
L 450.82395 80.827963 
L 451.04715 101.757411 
L 451.27035 94.34874 
L 451.49355 81.089479 
L 451.71675 82.627471 
L 451.93995 97.170623 
L 452.16315 81.325883 
L 452.38635 140.66721 
L 452.60955 86.978142 
L 452.83275 94.243793 
L 453.05595 90.323099 
L 453.27915 260.58943 
L 453.50235 135.47399 
L 453.72555 89.350754 
L 453.94875 101.818327 
L 454.39515 70.119703 
L 454.61835 77.364425 
L 454.84155 122.553292 
L 455.06475 205.74421 
L 455.28795 69.049844 
L 455.51115 77.656871 
L 455.95755 107.229941 
L 456.18075 106.525025 
L 456.40395 74.812073 
L 456.62715 82.738246 
L 456.85035 68.948169 
L 457.07355 102.891273 
L 457.29675 98.322242 
L 457.74315 73.914242 
L 458.18955 103.811803 
L 458.41275 116.224022 
L 458.63595 150.068095 
L 458.85915 229.688285 
L 459.08235 88.243697 
L 459.30555 110.282409 
L 459.52875 156.05613 
L 459.75195 75.822307 
L 459.97515 87.383554 
L 460.19835 72.334531 
L 460.42155 95.72226 
L 460.64475 75.132795 
L 460.86795 90.688024 
L 461.09115 87.529592 
L 461.31435 81.138783 
L 461.53755 69.310593 
L 461.76075 107.583601 
L 462.20715 79.811563 
L 462.43035 69.657046 
L 462.65355 93.588189 
L 462.87675 98.238235 
L 463.09995 118.091741 
L 463.54635 69.00034 
L 463.76955 135.762096 
L 463.99275 88.530403 
L 464.21595 72.702878 
L 464.43915 108.754667 
L 464.66235 120.55301 
L 464.88555 84.890949 
L 465.10875 149.362547 
L 465.33195 99.254502 
L 465.55515 90.938632 
L 465.77835 127.834308 
L 466.00155 84.332576 
L 466.22475 72.802948 
L 466.44795 86.208035 
L 466.67115 124.842528 
L 466.89435 102.154787 
L 467.11755 93.943633 
L 467.34075 138.069304 
L 467.56395 71.433989 
L 467.78715 77.809944 
L 468.01035 122.487425 
L 468.23355 94.843382 
L 468.45675 96.882463 
L 468.67995 90.650185 
L 468.90315 144.409717 
L 469.12635 82.064234 
L 469.34955 121.901774 
L 469.57275 83.963824 
L 469.79595 83.3389 
L 470.01915 70.734202 
L 470.46555 180.94371 
L 470.91195 77.085641 
L 471.13515 72.921588 
L 471.35835 93.027028 
L 471.58155 90.248569 
L 472.02795 72.236009 
L 472.25115 101.605275 
L 472.47435 83.992107 
L 472.69755 77.122611 
L 472.92075 146.627692 
L 473.14395 74.189323 
L 473.36715 80.599047 
L 473.59035 101.502534 
L 473.81355 70.321813 
L 474.03675 84.828675 
L 474.25995 85.489133 
L 474.48315 79.67083 
L 474.70635 165.693047 
L 474.92955 92.318121 
L 475.15275 97.156757 
L 475.59915 83.691926 
L 475.82235 111.015686 
L 476.04555 195.531887 
L 476.26875 75.931563 
L 476.49195 116.753022 
L 476.71515 66.10733 
L 476.93835 195.792765 
L 477.16155 63.248407 
L 477.38475 108.099747 
L 477.60795 105.103658 
L 477.83115 72.398186 
L 478.05435 100.812269 
L 478.27755 155.844877 
L 478.50075 81.617696 
L 478.72395 104.172225 
L 478.94715 67.192479 
L 479.39355 110.028687 
L 479.61675 76.2023 
L 479.83995 190.625251 
L 480.28635 78.85886 
L 480.50955 94.410341 
L 480.73275 77.74732 
L 480.95595 81.576568 
L 481.17915 107.384135 
L 481.40235 177.281172 
L 481.62555 86.480315 
L 481.84875 76.454585 
L 481.84875 76.454585 
" style="fill:none;stroke:#0000ff;stroke-linecap:square;stroke-width:0.5;"/>
   </g>
   <g id="patch_3">
    <path d="M 35.44875 23.14175 
L 481.84875 23.14175 
" style="fill:none;stroke:#000000;stroke-linecap:square;stroke-linejoin:miter;"/>
   </g>
   <g id="patch_4">
    <path d="M 35.44875 368.74175 
L 35.44875 23.14175 
" style="fill:none;stroke:#000000;stroke-linecap:square;stroke-linejoin:miter;"/>
   </g>
   <g id="patch_5">
    <path d="M 481.84875 368.74175 
L 481.84875 23.14175 
" style="fill:none;stroke:#000000;stroke-linecap:square;stroke-linejoin:miter;"/>
   </g>
   <g id="patch_6">
    <path d="M 35.44875 368.74175 
L 481.84875 368.74175 
" style="fill:none;stroke:#000000;stroke-linecap:square;stroke-linejoin:miter;"/>
   </g>
   <g id="matplotlib.axis_1">
    <g id="xtick_1">
     <g id="line2d_2">
      <defs>
       <path d="M 0 0 
L 0 -4 
" id="m7137be29af" style="stroke:#000000;stroke-width:0.5;"/>
      </defs>
      <g>
       <use style="stroke:#000000;stroke-width:0.5;" x="35.44875" xlink:href="#m7137be29af" y="368.74175"/>
      </g>
     </g>
     <g id="line2d_3">
      <defs>
       <path d="M 0 0 
L 0 4 
" id="m01c1f463e3" style="stroke:#000000;stroke-width:0.5;"/>
      </defs>
      <g>
       <use style="stroke:#000000;stroke-width:0.5;" x="35.44875" xlink:href="#m01c1f463e3" y="23.14175"/>
      </g>
     </g>
     <g id="text_1">
      <!-- 0 -->
      <defs>
       <path d="M 31.78125 66.40625 
Q 24.171875 66.40625 20.328125 58.90625 
Q 16.5 51.421875 16.5 36.375 
Q 16.5 21.390625 20.328125 13.890625 
Q 24.171875 6.390625 31.78125 6.390625 
Q 39.453125 6.390625 43.28125 13.890625 
Q 47.125 21.390625 47.125 36.375 
Q 47.125 51.421875 43.28125 58.90625 
Q 39.453125 66.40625 31.78125 66.40625 
M 31.78125 74.21875 
Q 44.046875 74.21875 50.515625 64.515625 
Q 56.984375 54.828125 56.984375 36.375 
Q 56.984375 17.96875 50.515625 8.265625 
Q 44.046875 -1.421875 31.78125 -1.421875 
Q 19.53125 -1.421875 13.0625 8.265625 
Q 6.59375 17.96875 6.59375 36.375 
Q 6.59375 54.828125 13.0625 64.515625 
Q 19.53125 74.21875 31.78125 74.21875 
" id="BitstreamVeraSans-Roman-30"/>
      </defs>
      <g transform="translate(31.63125 381.859875)scale(0.12 -0.12)">
       <use xlink:href="#BitstreamVeraSans-Roman-30"/>
      </g>
     </g>
    </g>
    <g id="xtick_2">
     <g id="line2d_4">
      <g>
       <use style="stroke:#000000;stroke-width:0.5;" x="147.04875" xlink:href="#m7137be29af" y="368.74175"/>
      </g>
     </g>
     <g id="line2d_5">
      <g>
       <use style="stroke:#000000;stroke-width:0.5;" x="147.04875" xlink:href="#m01c1f463e3" y="23.14175"/>
      </g>
     </g>
     <g id="text_2">
      <!-- 500 -->
      <defs>
       <path d="M 10.796875 72.90625 
L 49.515625 72.90625 
L 49.515625 64.59375 
L 19.828125 64.59375 
L 19.828125 46.734375 
Q 21.96875 47.46875 24.109375 47.828125 
Q 26.265625 48.1875 28.421875 48.1875 
Q 40.625 48.1875 47.75 41.5 
Q 54.890625 34.8125 54.890625 23.390625 
Q 54.890625 11.625 47.5625 5.09375 
Q 40.234375 -1.421875 26.90625 -1.421875 
Q 22.3125 -1.421875 17.546875 -0.640625 
Q 12.796875 0.140625 7.71875 1.703125 
L 7.71875 11.625 
Q 12.109375 9.234375 16.796875 8.0625 
Q 21.484375 6.890625 26.703125 6.890625 
Q 35.15625 6.890625 40.078125 11.328125 
Q 45.015625 15.765625 45.015625 23.390625 
Q 45.015625 31 40.078125 35.4375 
Q 35.15625 39.890625 26.703125 39.890625 
Q 22.75 39.890625 18.8125 39.015625 
Q 14.890625 38.140625 10.796875 36.28125 
z
" id="BitstreamVeraSans-Roman-35"/>
      </defs>
      <g transform="translate(135.59625 381.859875)scale(0.12 -0.12)">
       <use xlink:href="#BitstreamVeraSans-Roman-35"/>
       <use x="63.623046875" xlink:href="#BitstreamVeraSans-Roman-30"/>
       <use x="127.24609375" xlink:href="#BitstreamVeraSans-Roman-30"/>
      </g>
     </g>
    </g>
    <g id="xtick_3">
     <g id="line2d_6">
      <g>
       <use style="stroke:#000000;stroke-width:0.5;" x="258.64875" xlink:href="#m7137be29af" y="368.74175"/>
      </g>
     </g>
     <g id="line2d_7">
      <g>
       <use style="stroke:#000000;stroke-width:0.5;" x="258.64875" xlink:href="#m01c1f463e3" y="23.14175"/>
      </g>
     </g>
     <g id="text_3">
      <!-- 1000 -->
      <defs>
       <path d="M 12.40625 8.296875 
L 28.515625 8.296875 
L 28.515625 63.921875 
L 10.984375 60.40625 
L 10.984375 69.390625 
L 28.421875 72.90625 
L 38.28125 72.90625 
L 38.28125 8.296875 
L 54.390625 8.296875 
L 54.390625 0 
L 12.40625 0 
z
" id="BitstreamVeraSans-Roman-31"/>
      </defs>
      <g transform="translate(243.37875 381.859875)scale(0.12 -0.12)">
       <use xlink:href="#BitstreamVeraSans-Roman-31"/>
       <use x="63.623046875" xlink:href="#BitstreamVeraSans-Roman-30"/>
       <use x="127.24609375" xlink:href="#BitstreamVeraSans-Roman-30"/>
       <use x="190.869140625" xlink:href="#BitstreamVeraSans-Roman-30"/>
      </g>
     </g>
    </g>
    <g id="xtick_4">
     <g id="line2d_8">
      <g>
       <use style="stroke:#000000;stroke-width:0.5;" x="370.24875" xlink:href="#m7137be29af" y="368.74175"/>
      </g>
     </g>
     <g id="line2d_9">
      <g>
       <use style="stroke:#000000;stroke-width:0.5;" x="370.24875" xlink:href="#m01c1f463e3" y="23.14175"/>
      </g>
     </g>
     <g id="text_4">
      <!-- 1500 -->
      <g transform="translate(354.97875 381.859875)scale(0.12 -0.12)">
       <use xlink:href="#BitstreamVeraSans-Roman-31"/>
       <use x="63.623046875" xlink:href="#BitstreamVeraSans-Roman-35"/>
       <use x="127.24609375" xlink:href="#BitstreamVeraSans-Roman-30"/>
       <use x="190.869140625" xlink:href="#BitstreamVeraSans-Roman-30"/>
      </g>
     </g>
    </g>
    <g id="xtick_5">
     <g id="line2d_10">
      <g>
       <use style="stroke:#000000;stroke-width:0.5;" x="481.84875" xlink:href="#m7137be29af" y="368.74175"/>
      </g>
     </g>
     <g id="line2d_11">
      <g>
       <use style="stroke:#000000;stroke-width:0.5;" x="481.84875" xlink:href="#m01c1f463e3" y="23.14175"/>
      </g>
     </g>
     <g id="text_5">
      <!-- 2000 -->
      <defs>
       <path d="M 19.1875 8.296875 
L 53.609375 8.296875 
L 53.609375 0 
L 7.328125 0 
L 7.328125 8.296875 
Q 12.9375 14.109375 22.625 23.890625 
Q 32.328125 33.6875 34.8125 36.53125 
Q 39.546875 41.84375 41.421875 45.53125 
Q 43.3125 49.21875 43.3125 52.78125 
Q 43.3125 58.59375 39.234375 62.25 
Q 35.15625 65.921875 28.609375 65.921875 
Q 23.96875 65.921875 18.8125 64.3125 
Q 13.671875 62.703125 7.8125 59.421875 
L 7.8125 69.390625 
Q 13.765625 71.78125 18.9375 73 
Q 24.125 74.21875 28.421875 74.21875 
Q 39.75 74.21875 46.484375 68.546875 
Q 53.21875 62.890625 53.21875 53.421875 
Q 53.21875 48.921875 51.53125 44.890625 
Q 49.859375 40.875 45.40625 35.40625 
Q 44.1875 33.984375 37.640625 27.21875 
Q 31.109375 20.453125 19.1875 8.296875 
" id="BitstreamVeraSans-Roman-32"/>
      </defs>
      <g transform="translate(466.57875 381.859875)scale(0.12 -0.12)">
       <use xlink:href="#BitstreamVeraSans-Roman-32"/>
       <use x="63.623046875" xlink:href="#BitstreamVeraSans-Roman-30"/>
       <use x="127.24609375" xlink:href="#BitstreamVeraSans-Roman-30"/>
       <use x="190.869140625" xlink:href="#BitstreamVeraSans-Roman-30"/>
      </g>
     </g>
    </g>
    <g id="text_6">
     <!-- episode -->
     <defs>
      <path d="M 45.40625 46.390625 
L 45.40625 75.984375 
L 54.390625 75.984375 
L 54.390625 0 
L 45.40625 0 
L 45.40625 8.203125 
Q 42.578125 3.328125 38.25 0.953125 
Q 33.9375 -1.421875 27.875 -1.421875 
Q 17.96875 -1.421875 11.734375 6.484375 
Q 5.515625 14.40625 5.515625 27.296875 
Q 5.515625 40.1875 11.734375 48.09375 
Q 17.96875 56 27.875 56 
Q 33.9375 56 38.25 53.625 
Q 42.578125 51.265625 45.40625 46.390625 
M 14.796875 27.296875 
Q 14.796875 17.390625 18.875 11.75 
Q 22.953125 6.109375 30.078125 6.109375 
Q 37.203125 6.109375 41.296875 11.75 
Q 45.40625 17.390625 45.40625 27.296875 
Q 45.40625 37.203125 41.296875 42.84375 
Q 37.203125 48.484375 30.078125 48.484375 
Q 22.953125 48.484375 18.875 42.84375 
Q 14.796875 37.203125 14.796875 27.296875 
" id="BitstreamVeraSans-Roman-64"/>
      <path d="M 44.28125 53.078125 
L 44.28125 44.578125 
Q 40.484375 46.53125 36.375 47.5 
Q 32.28125 48.484375 27.875 48.484375 
Q 21.1875 48.484375 17.84375 46.4375 
Q 14.5 44.390625 14.5 40.28125 
Q 14.5 37.15625 16.890625 35.375 
Q 19.28125 33.59375 26.515625 31.984375 
L 29.59375 31.296875 
Q 39.15625 29.25 43.1875 25.515625 
Q 47.21875 21.78125 47.21875 15.09375 
Q 47.21875 7.46875 41.1875 3.015625 
Q 35.15625 -1.421875 24.609375 -1.421875 
Q 20.21875 -1.421875 15.453125 -0.5625 
Q 10.6875 0.296875 5.421875 2 
L 5.421875 11.28125 
Q 10.40625 8.6875 15.234375 7.390625 
Q 20.0625 6.109375 24.8125 6.109375 
Q 31.15625 6.109375 34.5625 8.28125 
Q 37.984375 10.453125 37.984375 14.40625 
Q 37.984375 18.0625 35.515625 20.015625 
Q 33.0625 21.96875 24.703125 23.78125 
L 21.578125 24.515625 
Q 13.234375 26.265625 9.515625 29.90625 
Q 5.8125 33.546875 5.8125 39.890625 
Q 5.8125 47.609375 11.28125 51.796875 
Q 16.75 56 26.8125 56 
Q 31.78125 56 36.171875 55.265625 
Q 40.578125 54.546875 44.28125 53.078125 
" id="BitstreamVeraSans-Roman-73"/>
      <path d="M 56.203125 29.59375 
L 56.203125 25.203125 
L 14.890625 25.203125 
Q 15.484375 15.921875 20.484375 11.0625 
Q 25.484375 6.203125 34.421875 6.203125 
Q 39.59375 6.203125 44.453125 7.46875 
Q 49.3125 8.734375 54.109375 11.28125 
L 54.109375 2.78125 
Q 49.265625 0.734375 44.1875 -0.34375 
Q 39.109375 -1.421875 33.890625 -1.421875 
Q 20.796875 -1.421875 13.15625 6.1875 
Q 5.515625 13.8125 5.515625 26.8125 
Q 5.515625 40.234375 12.765625 48.109375 
Q 20.015625 56 32.328125 56 
Q 43.359375 56 49.78125 48.890625 
Q 56.203125 41.796875 56.203125 29.59375 
M 47.21875 32.234375 
Q 47.125 39.59375 43.09375 43.984375 
Q 39.0625 48.390625 32.421875 48.390625 
Q 24.90625 48.390625 20.390625 44.140625 
Q 15.875 39.890625 15.1875 32.171875 
z
" id="BitstreamVeraSans-Roman-65"/>
      <path d="M 18.109375 8.203125 
L 18.109375 -20.796875 
L 9.078125 -20.796875 
L 9.078125 54.6875 
L 18.109375 54.6875 
L 18.109375 46.390625 
Q 20.953125 51.265625 25.265625 53.625 
Q 29.59375 56 35.59375 56 
Q 45.5625 56 51.78125 48.09375 
Q 58.015625 40.1875 58.015625 27.296875 
Q 58.015625 14.40625 51.78125 6.484375 
Q 45.5625 -1.421875 35.59375 -1.421875 
Q 29.59375 -1.421875 25.265625 0.953125 
Q 20.953125 3.328125 18.109375 8.203125 
M 48.6875 27.296875 
Q 48.6875 37.203125 44.609375 42.84375 
Q 40.53125 48.484375 33.40625 48.484375 
Q 26.265625 48.484375 22.1875 42.84375 
Q 18.109375 37.203125 18.109375 27.296875 
Q 18.109375 17.390625 22.1875 11.75 
Q 26.265625 6.109375 33.40625 6.109375 
Q 40.53125 6.109375 44.609375 11.75 
Q 48.6875 17.390625 48.6875 27.296875 
" id="BitstreamVeraSans-Roman-70"/>
      <path d="M 30.609375 48.390625 
Q 23.390625 48.390625 19.1875 42.75 
Q 14.984375 37.109375 14.984375 27.296875 
Q 14.984375 17.484375 19.15625 11.84375 
Q 23.34375 6.203125 30.609375 6.203125 
Q 37.796875 6.203125 41.984375 11.859375 
Q 46.1875 17.53125 46.1875 27.296875 
Q 46.1875 37.015625 41.984375 42.703125 
Q 37.796875 48.390625 30.609375 48.390625 
M 30.609375 56 
Q 42.328125 56 49.015625 48.375 
Q 55.71875 40.765625 55.71875 27.296875 
Q 55.71875 13.875 49.015625 6.21875 
Q 42.328125 -1.421875 30.609375 -1.421875 
Q 18.84375 -1.421875 12.171875 6.21875 
Q 5.515625 13.875 5.515625 27.296875 
Q 5.515625 40.765625 12.171875 48.375 
Q 18.84375 56 30.609375 56 
" id="BitstreamVeraSans-Roman-6f"/>
      <path d="M 9.421875 54.6875 
L 18.40625 54.6875 
L 18.40625 0 
L 9.421875 0 
z
M 9.421875 75.984375 
L 18.40625 75.984375 
L 18.40625 64.59375 
L 9.421875 64.59375 
z
" id="BitstreamVeraSans-Roman-69"/>
     </defs>
     <g transform="translate(235.183125 398.473625)scale(0.12 -0.12)">
      <use xlink:href="#BitstreamVeraSans-Roman-65"/>
      <use x="61.5234375" xlink:href="#BitstreamVeraSans-Roman-70"/>
      <use x="125.0" xlink:href="#BitstreamVeraSans-Roman-69"/>
      <use x="152.783203125" xlink:href="#BitstreamVeraSans-Roman-73"/>
      <use x="204.8828125" xlink:href="#BitstreamVeraSans-Roman-6f"/>
      <use x="266.064453125" xlink:href="#BitstreamVeraSans-Roman-64"/>
      <use x="329.541015625" xlink:href="#BitstreamVeraSans-Roman-65"/>
     </g>
    </g>
   </g>
   <g id="matplotlib.axis_2">
    <g id="ytick_1">
     <g id="line2d_12">
      <defs>
       <path d="M 0 0 
L 4 0 
" id="mb5118721d2" style="stroke:#000000;stroke-width:0.5;"/>
      </defs>
      <g>
       <use style="stroke:#000000;stroke-width:0.5;" x="35.44875" xlink:href="#mb5118721d2" y="368.74175"/>
      </g>
     </g>
     <g id="line2d_13">
      <defs>
       <path d="M 0 0 
L -4 0 
" id="m407c460e95" style="stroke:#000000;stroke-width:0.5;"/>
      </defs>
      <g>
       <use style="stroke:#000000;stroke-width:0.5;" x="481.84875" xlink:href="#m407c460e95" y="368.74175"/>
      </g>
     </g>
     <g id="text_7">
      <!-- 0 -->
      <g transform="translate(23.81375 372.053)scale(0.12 -0.12)">
       <use xlink:href="#BitstreamVeraSans-Roman-30"/>
      </g>
     </g>
    </g>
    <g id="ytick_2">
     <g id="line2d_14">
      <g>
       <use style="stroke:#000000;stroke-width:0.5;" x="35.44875" xlink:href="#mb5118721d2" y="311.14175"/>
      </g>
     </g>
     <g id="line2d_15">
      <g>
       <use style="stroke:#000000;stroke-width:0.5;" x="481.84875" xlink:href="#m407c460e95" y="311.14175"/>
      </g>
     </g>
     <g id="text_8">
      <!-- 1 -->
      <g transform="translate(23.81375 314.453)scale(0.12 -0.12)">
       <use xlink:href="#BitstreamVeraSans-Roman-31"/>
      </g>
     </g>
    </g>
    <g id="ytick_3">
     <g id="line2d_16">
      <g>
       <use style="stroke:#000000;stroke-width:0.5;" x="35.44875" xlink:href="#mb5118721d2" y="253.54175"/>
      </g>
     </g>
     <g id="line2d_17">
      <g>
       <use style="stroke:#000000;stroke-width:0.5;" x="481.84875" xlink:href="#m407c460e95" y="253.54175"/>
      </g>
     </g>
     <g id="text_9">
      <!-- 2 -->
      <g transform="translate(23.81375 256.853)scale(0.12 -0.12)">
       <use xlink:href="#BitstreamVeraSans-Roman-32"/>
      </g>
     </g>
    </g>
    <g id="ytick_4">
     <g id="line2d_18">
      <g>
       <use style="stroke:#000000;stroke-width:0.5;" x="35.44875" xlink:href="#mb5118721d2" y="195.94175"/>
      </g>
     </g>
     <g id="line2d_19">
      <g>
       <use style="stroke:#000000;stroke-width:0.5;" x="481.84875" xlink:href="#m407c460e95" y="195.94175"/>
      </g>
     </g>
     <g id="text_10">
      <!-- 3 -->
      <defs>
       <path d="M 40.578125 39.3125 
Q 47.65625 37.796875 51.625 33 
Q 55.609375 28.21875 55.609375 21.1875 
Q 55.609375 10.40625 48.1875 4.484375 
Q 40.765625 -1.421875 27.09375 -1.421875 
Q 22.515625 -1.421875 17.65625 -0.515625 
Q 12.796875 0.390625 7.625 2.203125 
L 7.625 11.71875 
Q 11.71875 9.328125 16.59375 8.109375 
Q 21.484375 6.890625 26.8125 6.890625 
Q 36.078125 6.890625 40.9375 10.546875 
Q 45.796875 14.203125 45.796875 21.1875 
Q 45.796875 27.640625 41.28125 31.265625 
Q 36.765625 34.90625 28.71875 34.90625 
L 20.21875 34.90625 
L 20.21875 43.015625 
L 29.109375 43.015625 
Q 36.375 43.015625 40.234375 45.921875 
Q 44.09375 48.828125 44.09375 54.296875 
Q 44.09375 59.90625 40.109375 62.90625 
Q 36.140625 65.921875 28.71875 65.921875 
Q 24.65625 65.921875 20.015625 65.03125 
Q 15.375 64.15625 9.8125 62.3125 
L 9.8125 71.09375 
Q 15.4375 72.65625 20.34375 73.4375 
Q 25.25 74.21875 29.59375 74.21875 
Q 40.828125 74.21875 47.359375 69.109375 
Q 53.90625 64.015625 53.90625 55.328125 
Q 53.90625 49.265625 50.4375 45.09375 
Q 46.96875 40.921875 40.578125 39.3125 
" id="BitstreamVeraSans-Roman-33"/>
      </defs>
      <g transform="translate(23.81375 199.253)scale(0.12 -0.12)">
       <use xlink:href="#BitstreamVeraSans-Roman-33"/>
      </g>
     </g>
    </g>
    <g id="ytick_5">
     <g id="line2d_20">
      <g>
       <use style="stroke:#000000;stroke-width:0.5;" x="35.44875" xlink:href="#mb5118721d2" y="138.34175"/>
      </g>
     </g>
     <g id="line2d_21">
      <g>
       <use style="stroke:#000000;stroke-width:0.5;" x="481.84875" xlink:href="#m407c460e95" y="138.34175"/>
      </g>
     </g>
     <g id="text_11">
      <!-- 4 -->
      <defs>
       <path d="M 37.796875 64.3125 
L 12.890625 25.390625 
L 37.796875 25.390625 
z
M 35.203125 72.90625 
L 47.609375 72.90625 
L 47.609375 25.390625 
L 58.015625 25.390625 
L 58.015625 17.1875 
L 47.609375 17.1875 
L 47.609375 0 
L 37.796875 0 
L 37.796875 17.1875 
L 4.890625 17.1875 
L 4.890625 26.703125 
z
" id="BitstreamVeraSans-Roman-34"/>
      </defs>
      <g transform="translate(23.81375 141.653)scale(0.12 -0.12)">
       <use xlink:href="#BitstreamVeraSans-Roman-34"/>
      </g>
     </g>
    </g>
    <g id="ytick_6">
     <g id="line2d_22">
      <g>
       <use style="stroke:#000000;stroke-width:0.5;" x="35.44875" xlink:href="#mb5118721d2" y="80.74175"/>
      </g>
     </g>
     <g id="line2d_23">
      <g>
       <use style="stroke:#000000;stroke-width:0.5;" x="481.84875" xlink:href="#m407c460e95" y="80.74175"/>
      </g>
     </g>
     <g id="text_12">
      <!-- 5 -->
      <g transform="translate(23.81375 84.053)scale(0.12 -0.12)">
       <use xlink:href="#BitstreamVeraSans-Roman-35"/>
      </g>
     </g>
    </g>
    <g id="ytick_7">
     <g id="line2d_24">
      <g>
       <use style="stroke:#000000;stroke-width:0.5;" x="35.44875" xlink:href="#mb5118721d2" y="23.14175"/>
      </g>
     </g>
     <g id="line2d_25">
      <g>
       <use style="stroke:#000000;stroke-width:0.5;" x="481.84875" xlink:href="#m407c460e95" y="23.14175"/>
      </g>
     </g>
     <g id="text_13">
      <!-- 6 -->
      <defs>
       <path d="M 33.015625 40.375 
Q 26.375 40.375 22.484375 35.828125 
Q 18.609375 31.296875 18.609375 23.390625 
Q 18.609375 15.53125 22.484375 10.953125 
Q 26.375 6.390625 33.015625 6.390625 
Q 39.65625 6.390625 43.53125 10.953125 
Q 47.40625 15.53125 47.40625 23.390625 
Q 47.40625 31.296875 43.53125 35.828125 
Q 39.65625 40.375 33.015625 40.375 
M 52.59375 71.296875 
L 52.59375 62.3125 
Q 48.875 64.0625 45.09375 64.984375 
Q 41.3125 65.921875 37.59375 65.921875 
Q 27.828125 65.921875 22.671875 59.328125 
Q 17.53125 52.734375 16.796875 39.40625 
Q 19.671875 43.65625 24.015625 45.921875 
Q 28.375 48.1875 33.59375 48.1875 
Q 44.578125 48.1875 50.953125 41.515625 
Q 57.328125 34.859375 57.328125 23.390625 
Q 57.328125 12.15625 50.6875 5.359375 
Q 44.046875 -1.421875 33.015625 -1.421875 
Q 20.359375 -1.421875 13.671875 8.265625 
Q 6.984375 17.96875 6.984375 36.375 
Q 6.984375 53.65625 15.1875 63.9375 
Q 23.390625 74.21875 37.203125 74.21875 
Q 40.921875 74.21875 44.703125 73.484375 
Q 48.484375 72.75 52.59375 71.296875 
" id="BitstreamVeraSans-Roman-36"/>
      </defs>
      <g transform="translate(23.81375 26.453)scale(0.12 -0.12)">
       <use xlink:href="#BitstreamVeraSans-Roman-36"/>
      </g>
     </g>
    </g>
    <g id="text_14">
     <!-- average maxQ -->
     <defs>
      <path d="M 2.984375 54.6875 
L 12.5 54.6875 
L 29.59375 8.796875 
L 46.6875 54.6875 
L 56.203125 54.6875 
L 35.6875 0 
L 23.484375 0 
z
" id="BitstreamVeraSans-Roman-76"/>
      <path d="M 54.890625 54.6875 
L 35.109375 28.078125 
L 55.90625 0 
L 45.3125 0 
L 29.390625 21.484375 
L 13.484375 0 
L 2.875 0 
L 24.125 28.609375 
L 4.6875 54.6875 
L 15.28125 54.6875 
L 29.78125 35.203125 
L 44.28125 54.6875 
z
" id="BitstreamVeraSans-Roman-78"/>
      <path d="M 39.40625 66.21875 
Q 28.65625 66.21875 22.328125 58.203125 
Q 16.015625 50.203125 16.015625 36.375 
Q 16.015625 22.609375 22.328125 14.59375 
Q 28.65625 6.59375 39.40625 6.59375 
Q 50.140625 6.59375 56.421875 14.59375 
Q 62.703125 22.609375 62.703125 36.375 
Q 62.703125 50.203125 56.421875 58.203125 
Q 50.140625 66.21875 39.40625 66.21875 
M 53.21875 1.3125 
L 66.21875 -12.890625 
L 54.296875 -12.890625 
L 43.5 -1.21875 
Q 41.890625 -1.3125 41.03125 -1.359375 
Q 40.1875 -1.421875 39.40625 -1.421875 
Q 24.03125 -1.421875 14.8125 8.859375 
Q 5.609375 19.140625 5.609375 36.375 
Q 5.609375 53.65625 14.8125 63.9375 
Q 24.03125 74.21875 39.40625 74.21875 
Q 54.734375 74.21875 63.90625 63.9375 
Q 73.09375 53.65625 73.09375 36.375 
Q 73.09375 23.6875 67.984375 14.640625 
Q 62.890625 5.609375 53.21875 1.3125 
" id="BitstreamVeraSans-Roman-51"/>
      <path d="M 45.40625 27.984375 
Q 45.40625 37.75 41.375 43.109375 
Q 37.359375 48.484375 30.078125 48.484375 
Q 22.859375 48.484375 18.828125 43.109375 
Q 14.796875 37.75 14.796875 27.984375 
Q 14.796875 18.265625 18.828125 12.890625 
Q 22.859375 7.515625 30.078125 7.515625 
Q 37.359375 7.515625 41.375 12.890625 
Q 45.40625 18.265625 45.40625 27.984375 
M 54.390625 6.78125 
Q 54.390625 -7.171875 48.1875 -13.984375 
Q 42 -20.796875 29.203125 -20.796875 
Q 24.46875 -20.796875 20.265625 -20.09375 
Q 16.0625 -19.390625 12.109375 -17.921875 
L 12.109375 -9.1875 
Q 16.0625 -11.328125 19.921875 -12.34375 
Q 23.78125 -13.375 27.78125 -13.375 
Q 36.625 -13.375 41.015625 -8.765625 
Q 45.40625 -4.15625 45.40625 5.171875 
L 45.40625 9.625 
Q 42.625 4.78125 38.28125 2.390625 
Q 33.9375 0 27.875 0 
Q 17.828125 0 11.671875 7.65625 
Q 5.515625 15.328125 5.515625 27.984375 
Q 5.515625 40.671875 11.671875 48.328125 
Q 17.828125 56 27.875 56 
Q 33.9375 56 38.28125 53.609375 
Q 42.625 51.21875 45.40625 46.390625 
L 45.40625 54.6875 
L 54.390625 54.6875 
z
" id="BitstreamVeraSans-Roman-67"/>
      <path id="BitstreamVeraSans-Roman-20"/>
      <path d="M 41.109375 46.296875 
Q 39.59375 47.171875 37.8125 47.578125 
Q 36.03125 48 33.890625 48 
Q 26.265625 48 22.1875 43.046875 
Q 18.109375 38.09375 18.109375 28.8125 
L 18.109375 0 
L 9.078125 0 
L 9.078125 54.6875 
L 18.109375 54.6875 
L 18.109375 46.1875 
Q 20.953125 51.171875 25.484375 53.578125 
Q 30.03125 56 36.53125 56 
Q 37.453125 56 38.578125 55.875 
Q 39.703125 55.765625 41.0625 55.515625 
z
" id="BitstreamVeraSans-Roman-72"/>
      <path d="M 34.28125 27.484375 
Q 23.390625 27.484375 19.1875 25 
Q 14.984375 22.515625 14.984375 16.5 
Q 14.984375 11.71875 18.140625 8.90625 
Q 21.296875 6.109375 26.703125 6.109375 
Q 34.1875 6.109375 38.703125 11.40625 
Q 43.21875 16.703125 43.21875 25.484375 
L 43.21875 27.484375 
z
M 52.203125 31.203125 
L 52.203125 0 
L 43.21875 0 
L 43.21875 8.296875 
Q 40.140625 3.328125 35.546875 0.953125 
Q 30.953125 -1.421875 24.3125 -1.421875 
Q 15.921875 -1.421875 10.953125 3.296875 
Q 6 8.015625 6 15.921875 
Q 6 25.140625 12.171875 29.828125 
Q 18.359375 34.515625 30.609375 34.515625 
L 43.21875 34.515625 
L 43.21875 35.40625 
Q 43.21875 41.609375 39.140625 45 
Q 35.0625 48.390625 27.6875 48.390625 
Q 23 48.390625 18.546875 47.265625 
Q 14.109375 46.140625 10.015625 43.890625 
L 10.015625 52.203125 
Q 14.9375 54.109375 19.578125 55.046875 
Q 24.21875 56 28.609375 56 
Q 40.484375 56 46.34375 49.84375 
Q 52.203125 43.703125 52.203125 31.203125 
" id="BitstreamVeraSans-Roman-61"/>
      <path d="M 52 44.1875 
Q 55.375 50.25 60.0625 53.125 
Q 64.75 56 71.09375 56 
Q 79.640625 56 84.28125 50.015625 
Q 88.921875 44.046875 88.921875 33.015625 
L 88.921875 0 
L 79.890625 0 
L 79.890625 32.71875 
Q 79.890625 40.578125 77.09375 44.375 
Q 74.3125 48.1875 68.609375 48.1875 
Q 61.625 48.1875 57.5625 43.546875 
Q 53.515625 38.921875 53.515625 30.90625 
L 53.515625 0 
L 44.484375 0 
L 44.484375 32.71875 
Q 44.484375 40.625 41.703125 44.40625 
Q 38.921875 48.1875 33.109375 48.1875 
Q 26.21875 48.1875 22.15625 43.53125 
Q 18.109375 38.875 18.109375 30.90625 
L 18.109375 0 
L 9.078125 0 
L 9.078125 54.6875 
L 18.109375 54.6875 
L 18.109375 46.1875 
Q 21.1875 51.21875 25.484375 53.609375 
Q 29.78125 56 35.6875 56 
Q 41.65625 56 45.828125 52.96875 
Q 50 49.953125 52 44.1875 
" id="BitstreamVeraSans-Roman-6d"/>
     </defs>
     <g transform="translate(16.318125 240.208625)rotate(-90.0)scale(0.12 -0.12)">
      <use xlink:href="#BitstreamVeraSans-Roman-61"/>
      <use x="61.279296875" xlink:href="#BitstreamVeraSans-Roman-76"/>
      <use x="120.458984375" xlink:href="#BitstreamVeraSans-Roman-65"/>
      <use x="181.982421875" xlink:href="#BitstreamVeraSans-Roman-72"/>
      <use x="223.095703125" xlink:href="#BitstreamVeraSans-Roman-61"/>
      <use x="284.375" xlink:href="#BitstreamVeraSans-Roman-67"/>
      <use x="347.8515625" xlink:href="#BitstreamVeraSans-Roman-65"/>
      <use x="409.375" xlink:href="#BitstreamVeraSans-Roman-20"/>
      <use x="441.162109375" xlink:href="#BitstreamVeraSans-Roman-6d"/>
      <use x="538.57421875" xlink:href="#BitstreamVeraSans-Roman-61"/>
      <use x="599.853515625" xlink:href="#BitstreamVeraSans-Roman-78"/>
      <use x="659.033203125" xlink:href="#BitstreamVeraSans-Roman-51"/>
     </g>
    </g>
   </g>
   <g id="text_15">
    <!-- Average maxQ per episode, joint1 -->
    <defs>
     <path d="M 9.421875 54.6875 
L 18.40625 54.6875 
L 18.40625 -0.984375 
Q 18.40625 -11.421875 14.421875 -16.109375 
Q 10.453125 -20.796875 1.609375 -20.796875 
L -1.8125 -20.796875 
L -1.8125 -13.1875 
L 0.59375 -13.1875 
Q 5.71875 -13.1875 7.5625 -10.8125 
Q 9.421875 -8.453125 9.421875 -0.984375 
z
M 9.421875 75.984375 
L 18.40625 75.984375 
L 18.40625 64.59375 
L 9.421875 64.59375 
z
" id="BitstreamVeraSans-Roman-6a"/>
     <path d="M 54.890625 33.015625 
L 54.890625 0 
L 45.90625 0 
L 45.90625 32.71875 
Q 45.90625 40.484375 42.875 44.328125 
Q 39.84375 48.1875 33.796875 48.1875 
Q 26.515625 48.1875 22.3125 43.546875 
Q 18.109375 38.921875 18.109375 30.90625 
L 18.109375 0 
L 9.078125 0 
L 9.078125 54.6875 
L 18.109375 54.6875 
L 18.109375 46.1875 
Q 21.34375 51.125 25.703125 53.5625 
Q 30.078125 56 35.796875 56 
Q 45.21875 56 50.046875 50.171875 
Q 54.890625 44.34375 54.890625 33.015625 
" id="BitstreamVeraSans-Roman-6e"/>
     <path d="M 34.1875 63.1875 
L 20.796875 26.90625 
L 47.609375 26.90625 
z
M 28.609375 72.90625 
L 39.796875 72.90625 
L 67.578125 0 
L 57.328125 0 
L 50.6875 18.703125 
L 17.828125 18.703125 
L 11.1875 0 
L 0.78125 0 
z
" id="BitstreamVeraSans-Roman-41"/>
     <path d="M 11.71875 12.40625 
L 22.015625 12.40625 
L 22.015625 4 
L 14.015625 -11.625 
L 7.71875 -11.625 
L 11.71875 4 
z
" id="BitstreamVeraSans-Roman-2c"/>
     <path d="M 18.3125 70.21875 
L 18.3125 54.6875 
L 36.8125 54.6875 
L 36.8125 47.703125 
L 18.3125 47.703125 
L 18.3125 18.015625 
Q 18.3125 11.328125 20.140625 9.421875 
Q 21.96875 7.515625 27.59375 7.515625 
L 36.8125 7.515625 
L 36.8125 0 
L 27.59375 0 
Q 17.1875 0 13.234375 3.875 
Q 9.28125 7.765625 9.28125 18.015625 
L 9.28125 47.703125 
L 2.6875 47.703125 
L 2.6875 54.6875 
L 9.28125 54.6875 
L 9.28125 70.21875 
z
" id="BitstreamVeraSans-Roman-74"/>
    </defs>
    <g transform="translate(135.37575 18.14175)scale(0.144 -0.144)">
     <use xlink:href="#BitstreamVeraSans-Roman-41"/>
     <use x="68.330078125" xlink:href="#BitstreamVeraSans-Roman-76"/>
     <use x="127.509765625" xlink:href="#BitstreamVeraSans-Roman-65"/>
     <use x="189.033203125" xlink:href="#BitstreamVeraSans-Roman-72"/>
     <use x="230.146484375" xlink:href="#BitstreamVeraSans-Roman-61"/>
     <use x="291.42578125" xlink:href="#BitstreamVeraSans-Roman-67"/>
     <use x="354.90234375" xlink:href="#BitstreamVeraSans-Roman-65"/>
     <use x="416.42578125" xlink:href="#BitstreamVeraSans-Roman-20"/>
     <use x="448.212890625" xlink:href="#BitstreamVeraSans-Roman-6d"/>
     <use x="545.625" xlink:href="#BitstreamVeraSans-Roman-61"/>
     <use x="606.904296875" xlink:href="#BitstreamVeraSans-Roman-78"/>
     <use x="666.083984375" xlink:href="#BitstreamVeraSans-Roman-51"/>
     <use x="744.794921875" xlink:href="#BitstreamVeraSans-Roman-20"/>
     <use x="776.58203125" xlink:href="#BitstreamVeraSans-Roman-70"/>
     <use x="840.05859375" xlink:href="#BitstreamVeraSans-Roman-65"/>
     <use x="901.58203125" xlink:href="#BitstreamVeraSans-Roman-72"/>
     <use x="942.6953125" xlink:href="#BitstreamVeraSans-Roman-20"/>
     <use x="974.482421875" xlink:href="#BitstreamVeraSans-Roman-65"/>
     <use x="1036.005859375" xlink:href="#BitstreamVeraSans-Roman-70"/>
     <use x="1099.482421875" xlink:href="#BitstreamVeraSans-Roman-69"/>
     <use x="1127.265625" xlink:href="#BitstreamVeraSans-Roman-73"/>
     <use x="1179.365234375" xlink:href="#BitstreamVeraSans-Roman-6f"/>
     <use x="1240.546875" xlink:href="#BitstreamVeraSans-Roman-64"/>
     <use x="1304.0234375" xlink:href="#BitstreamVeraSans-Roman-65"/>
     <use x="1365.546875" xlink:href="#BitstreamVeraSans-Roman-2c"/>
     <use x="1397.333984375" xlink:href="#BitstreamVeraSans-Roman-20"/>
     <use x="1429.12109375" xlink:href="#BitstreamVeraSans-Roman-6a"/>
     <use x="1456.904296875" xlink:href="#BitstreamVeraSans-Roman-6f"/>
     <use x="1518.0859375" xlink:href="#BitstreamVeraSans-Roman-69"/>
     <use x="1545.869140625" xlink:href="#BitstreamVeraSans-Roman-6e"/>
     <use x="1609.248046875" xlink:href="#BitstreamVeraSans-Roman-74"/>
     <use x="1648.45703125" xlink:href="#BitstreamVeraSans-Roman-31"/>
    </g>
   </g>
  </g>
 </g>
 <defs>
  <clipPath id="p86111df515">
   <rect height="345.6" width="446.4" x="35.44875" y="23.14175"/>
  </clipPath>
 </defs>
</svg>
