<?xml version="1.0" encoding="utf-8" standalone="no"?>
<!DOCTYPE svg PUBLIC "-//W3C//DTD SVG 1.1//EN"
  "http://www.w3.org/Graphics/SVG/1.1/DTD/svg11.dtd">
<!-- Created with matplotlib (http://matplotlib.org/) -->
<svg height="408pt" version="1.1" viewBox="0 0 513 408" width="513pt" xmlns="http://www.w3.org/2000/svg" xmlns:xlink="http://www.w3.org/1999/xlink">
 <defs>
  <style type="text/css">
*{stroke-linecap:butt;stroke-linejoin:round;stroke-miterlimit:100000;}
  </style>
 </defs>
 <g id="figure_1">
  <g id="patch_1">
   <path d="M 0 408.16925 
L 513.856875 408.16925 
L 513.856875 0 
L 0 0 
z
" style="fill:#ffffff;"/>
  </g>
  <g id="axes_1">
   <g id="patch_2">
    <path d="M 46.8975 368.74175 
L 493.2975 368.74175 
L 493.2975 23.14175 
L 46.8975 23.14175 
z
" style="fill:#ffffff;"/>
   </g>
   <g id="PathCollection_1">
    <defs>
     <path d="M 0 2.236068 
C 0.593012 2.236068 1.161816 2.000462 1.581139 1.581139 
C 2.000462 1.161816 2.236068 0.593012 2.236068 0 
C 2.236068 -0.593012 2.000462 -1.161816 1.581139 -1.581139 
C 1.161816 -2.000462 0.593012 -2.236068 0 -2.236068 
C -0.593012 -2.236068 -1.161816 -2.000462 -1.581139 -1.581139 
C -2.000462 -1.161816 -2.236068 -0.593012 -2.236068 0 
C -2.236068 0.593012 -2.000462 1.161816 -1.581139 1.581139 
C -1.161816 2.000462 -0.593012 2.236068 0 2.236068 
z
" id="m4274bb22aa" style="stroke:#000000;"/>
    </defs>
    <g clip-path="url(#pd2154f8949)">
     <use style="fill:#0000ff;stroke:#000000;" x="435.359658486" xlink:href="#m4274bb22aa" y="126.067149344"/>
     <use style="fill:#0000ff;stroke:#000000;" x="443.702898481" xlink:href="#m4274bb22aa" y="136.988956334"/>
     <use style="fill:#0000ff;stroke:#000000;" x="443.742422509" xlink:href="#m4274bb22aa" y="131.983381208"/>
     <use style="fill:#0000ff;stroke:#000000;" x="428.906325762" xlink:href="#m4274bb22aa" y="125.947461147"/>
     <use style="fill:#0000ff;stroke:#000000;" x="394.296922437" xlink:href="#m4274bb22aa" y="126.165555455"/>
     <use style="fill:#0000ff;stroke:#000000;" x="369.641551458" xlink:href="#m4274bb22aa" y="124.898094169"/>
     <use style="fill:#0000ff;stroke:#000000;" x="369.631294031" xlink:href="#m4274bb22aa" y="122.890374093"/>
     <use style="fill:#0000ff;stroke:#000000;" x="369.55525733" xlink:href="#m4274bb22aa" y="124.261797433"/>
     <use style="fill:#0000ff;stroke:#000000;" x="369.540012348" xlink:href="#m4274bb22aa" y="126.035320382"/>
     <use style="fill:#0000ff;stroke:#000000;" x="384.318893359" xlink:href="#m4274bb22aa" y="129.019097238"/>
     <use style="fill:#0000ff;stroke:#000000;" x="394.175527208" xlink:href="#m4274bb22aa" y="132.933070801"/>
     <use style="fill:#0000ff;stroke:#000000;" x="354.784375229" xlink:href="#m4274bb22aa" y="126.937643206"/>
     <use style="fill:#0000ff;stroke:#000000;" x="315.335631094" xlink:href="#m4274bb22aa" y="118.740602539"/>
     <use style="fill:#0000ff;stroke:#000000;" x="300.490594388" xlink:href="#m4274bb22aa" y="122.939530064"/>
     <use style="fill:#0000ff;stroke:#000000;" x="310.391081087" xlink:href="#m4274bb22aa" y="117.852452079"/>
     <use style="fill:#0000ff;stroke:#000000;" x="265.932289985" xlink:href="#m4274bb22aa" y="108.069848842"/>
     <use style="fill:#0000ff;stroke:#000000;" x="226.460301958" xlink:href="#m4274bb22aa" y="105.096665946"/>
     <use style="fill:#0000ff;stroke:#000000;" x="201.75486721" xlink:href="#m4274bb22aa" y="108.589941616"/>
     <use style="fill:#0000ff;stroke:#000000;" x="201.728706068" xlink:href="#m4274bb22aa" y="119.586753836"/>
     <use style="fill:#0000ff;stroke:#000000;" x="216.422422209" xlink:href="#m4274bb22aa" y="123.627478237"/>
     <use style="fill:#0000ff;stroke:#000000;" x="231.131477438" xlink:href="#m4274bb22aa" y="123.078899484"/>
     <use style="fill:#0000ff;stroke:#000000;" x="206.37691997" xlink:href="#m4274bb22aa" y="123.543950753"/>
     <use style="fill:#0000ff;stroke:#000000;" x="221.067436547" xlink:href="#m4274bb22aa" y="108.856673968"/>
     <use style="fill:#0000ff;stroke:#000000;" x="255.607108195" xlink:href="#m4274bb22aa" y="107.571508998"/>
     <use style="fill:#0000ff;stroke:#000000;" x="265.423653386" xlink:href="#m4274bb22aa" y="112.040982701"/>
     <use style="fill:#0000ff;stroke:#000000;" x="250.444893719" xlink:href="#m4274bb22aa" y="115.062521136"/>
     <use style="fill:#0000ff;stroke:#000000;" x="275.080973208" xlink:href="#m4274bb22aa" y="103.728208915"/>
     <use style="fill:#0000ff;stroke:#000000;" x="274.966729946" xlink:href="#m4274bb22aa" y="105.948938198"/>
     <use style="fill:#0000ff;stroke:#000000;" x="260.104566161" xlink:href="#m4274bb22aa" y="106.007840611"/>
     <use style="fill:#0000ff;stroke:#000000;" x="215.65650301" xlink:href="#m4274bb22aa" y="106.470584752"/>
     <use style="fill:#0000ff;stroke:#000000;" x="195.928649064" xlink:href="#m4274bb22aa" y="122.458234724"/>
     <use style="fill:#0000ff;stroke:#000000;" x="210.80681067" xlink:href="#m4274bb22aa" y="126.286091169"/>
     <use style="fill:#0000ff;stroke:#000000;" x="176.402085346" xlink:href="#m4274bb22aa" y="123.331365304"/>
     <use style="fill:#0000ff;stroke:#000000;" x="191.35016684" xlink:href="#m4274bb22aa" y="122.763576172"/>
     <use style="fill:#0000ff;stroke:#000000;" x="235.872761016" xlink:href="#m4274bb22aa" y="125.734593192"/>
     <use style="fill:#0000ff;stroke:#000000;" x="275.508585549" xlink:href="#m4274bb22aa" y="128.417925363"/>
     <use style="fill:#0000ff;stroke:#000000;" x="300.315935826" xlink:href="#m4274bb22aa" y="131.285827846"/>
     <use style="fill:#0000ff;stroke:#000000;" x="285.715007046" xlink:href="#m4274bb22aa" y="125.764444615"/>
     <use style="fill:#0000ff;stroke:#000000;" x="241.492230853" xlink:href="#m4274bb22aa" y="121.064870117"/>
     <use style="fill:#0000ff;stroke:#000000;" x="216.865561847" xlink:href="#m4274bb22aa" y="122.000858189"/>
     <use style="fill:#0000ff;stroke:#000000;" x="231.735159913" xlink:href="#m4274bb22aa" y="124.648170898"/>
     <use style="fill:#0000ff;stroke:#000000;" x="256.58109317" xlink:href="#m4274bb22aa" y="123.592871303"/>
     <use style="fill:#0000ff;stroke:#000000;" x="256.725826397" xlink:href="#m4274bb22aa" y="123.580205636"/>
     <use style="fill:#0000ff;stroke:#000000;" x="256.818237338" xlink:href="#m4274bb22aa" y="125.439421945"/>
     <use style="fill:#0000ff;stroke:#000000;" x="256.942173398" xlink:href="#m4274bb22aa" y="123.470216797"/>
     <use style="fill:#0000ff;stroke:#000000;" x="257.127089386" xlink:href="#m4274bb22aa" y="123.861251604"/>
     <use style="fill:#0000ff;stroke:#000000;" x="257.216018449" xlink:href="#m4274bb22aa" y="125.635763323"/>
     <use style="fill:#0000ff;stroke:#000000;" x="242.556180045" xlink:href="#m4274bb22aa" y="120.68598305"/>
     <use style="fill:#0000ff;stroke:#000000;" x="217.914548371" xlink:href="#m4274bb22aa" y="123.688311105"/>
     <use style="fill:#0000ff;stroke:#000000;" x="232.702557551" xlink:href="#m4274bb22aa" y="122.570766113"/>
     <use style="fill:#0000ff;stroke:#000000;" x="257.463043624" xlink:href="#m4274bb22aa" y="127.598376674"/>
     <use style="fill:#0000ff;stroke:#000000;" x="242.813180332" xlink:href="#m4274bb22aa" y="122.392693429"/>
     <use style="fill:#0000ff;stroke:#000000;" x="233.048110482" xlink:href="#m4274bb22aa" y="122.338640695"/>
     <use style="fill:#0000ff;stroke:#000000;" x="257.808408344" xlink:href="#m4274bb22aa" y="124.96636635"/>
     <use style="fill:#0000ff;stroke:#000000;" x="257.95332978" xlink:href="#m4274bb22aa" y="123.267424874"/>
     <use style="fill:#0000ff;stroke:#000000;" x="272.822269113" xlink:href="#m4274bb22aa" y="128.10071868"/>
     <use style="fill:#0000ff;stroke:#000000;" x="307.523612856" xlink:href="#m4274bb22aa" y="123.22264774"/>
     <use style="fill:#0000ff;stroke:#000000;" x="322.406197389" xlink:href="#m4274bb22aa" y="120.220366769"/>
     <use style="fill:#0000ff;stroke:#000000;" x="371.933850977" xlink:href="#m4274bb22aa" y="100.60661642"/>
     <use style="fill:#0000ff;stroke:#000000;" x="386.96944996" xlink:href="#m4274bb22aa" y="105.209008998"/>
     <use style="fill:#0000ff;stroke:#000000;" x="372.254089708" xlink:href="#m4274bb22aa" y="110.539418457"/>
     <use style="fill:#0000ff;stroke:#000000;" x="387.293923409" xlink:href="#m4274bb22aa" y="110.452924665"/>
     <use style="fill:#0000ff;stroke:#000000;" x="343.071711846" xlink:href="#m4274bb22aa" y="121.416212891"/>
     <use style="fill:#0000ff;stroke:#000000;" x="323.459889154" xlink:href="#m4274bb22aa" y="132.211316127"/>
     <use style="fill:#0000ff;stroke:#000000;" x="338.397901431" xlink:href="#m4274bb22aa" y="133.849613072"/>
     <use style="fill:#0000ff;stroke:#000000;" x="318.797277213" xlink:href="#m4274bb22aa" y="121.783988072"/>
     <use style="fill:#0000ff;stroke:#000000;" x="338.832665739" xlink:href="#m4274bb22aa" y="108.089765485"/>
     <use style="fill:#0000ff;stroke:#000000;" x="289.828517312" xlink:href="#m4274bb22aa" y="105.559457171"/>
     <use style="fill:#0000ff;stroke:#000000;" x="280.051025624" xlink:href="#m4274bb22aa" y="109.81950007"/>
     <use style="fill:#0000ff;stroke:#000000;" x="324.649185977" xlink:href="#m4274bb22aa" y="99.276250558"/>
     <use style="fill:#0000ff;stroke:#000000;" x="334.806014229" xlink:href="#m4274bb22aa" y="90.5592583705"/>
     <use style="fill:#0000ff;stroke:#000000;" x="305.448601386" xlink:href="#m4274bb22aa" y="82.6289500558"/>
     <use style="fill:#0000ff;stroke:#000000;" x="290.978478317" xlink:href="#m4274bb22aa" y="80.1605575474"/>
     <use style="fill:#0000ff;stroke:#000000;" x="246.876532725" xlink:href="#m4274bb22aa" y="83.1223931362"/>
     <use style="fill:#0000ff;stroke:#000000;" x="212.609859185" xlink:href="#m4274bb22aa" y="82.9680509208"/>
     <use style="fill:#0000ff;stroke:#000000;" x="198.15385184" xlink:href="#m4274bb22aa" y="79.971702567"/>
     <use style="fill:#0000ff;stroke:#000000;" x="158.964366509" xlink:href="#m4274bb22aa" y="73.8596001674"/>
     <use style="fill:#0000ff;stroke:#000000;" x="124.73006503" xlink:href="#m4274bb22aa" y="65.2236870815"/>
     <use style="fill:#0000ff;stroke:#000000;" x="125.032329739" xlink:href="#m4274bb22aa" y="61.0054079241"/>
     <use style="fill:#0000ff;stroke:#000000;" x="125.370730703" xlink:href="#m4274bb22aa" y="60.8294069475"/>
     <use style="fill:#0000ff;stroke:#000000;" x="125.628672038" xlink:href="#m4274bb22aa" y="59.0833341239"/>
     <use style="fill:#0000ff;stroke:#000000;" x="111.206636536" xlink:href="#m4274bb22aa" y="56.2793720703"/>
     <use style="fill:#0000ff;stroke:#000000;" x="91.6554173535" xlink:href="#m4274bb22aa" y="59.7462805525"/>
     <use style="fill:#0000ff;stroke:#000000;" x="106.661091002" xlink:href="#m4274bb22aa" y="60.1034617746"/>
     <use style="fill:#0000ff;stroke:#000000;" x="136.639501609" xlink:href="#m4274bb22aa" y="61.6374670759"/>
     <use style="fill:#0000ff;stroke:#000000;" x="122.19121086" xlink:href="#m4274bb22aa" y="62.1886354632"/>
     <use style="fill:#0000ff;stroke:#000000;" x="107.565814824" xlink:href="#m4274bb22aa" y="60.8918406808"/>
     <use style="fill:#0000ff;stroke:#000000;" x="147.286239598" xlink:href="#m4274bb22aa" y="67.1165686384"/>
     <use style="fill:#0000ff;stroke:#000000;" x="186.986431834" xlink:href="#m4274bb22aa" y="68.4595059989"/>
     <use style="fill:#0000ff;stroke:#000000;" x="202.205723444" xlink:href="#m4274bb22aa" y="60.5012296317"/>
     <use style="fill:#0000ff;stroke:#000000;" x="192.455239842" xlink:href="#m4274bb22aa" y="57.1259471261"/>
     <use style="fill:#0000ff;stroke:#000000;" x="232.165971819" xlink:href="#m4274bb22aa" y="55.0642214007"/>
     <use style="fill:#0000ff;stroke:#000000;" x="242.446924339" xlink:href="#m4274bb22aa" y="51.8560880301"/>
     <use style="fill:#0000ff;stroke:#000000;" x="198.349025255" xlink:href="#m4274bb22aa" y="55.9415895647"/>
     <use style="fill:#0000ff;stroke:#000000;" x="178.778232268" xlink:href="#m4274bb22aa" y="54.390351423"/>
     <use style="fill:#0000ff;stroke:#000000;" x="164.339728421" xlink:href="#m4274bb22aa" y="48.6098164062"/>
     <use style="fill:#0000ff;stroke:#000000;" x="154.604301591" xlink:href="#m4274bb22aa" y="45.633055106"/>
     <use style="fill:#0000ff;stroke:#000000;" x="179.620846903" xlink:href="#m4274bb22aa" y="43.6229337333"/>
     <use style="fill:#0000ff;stroke:#000000;" x="179.91040746" xlink:href="#m4274bb22aa" y="41.0795359933"/>
     <use style="fill:#0000ff;stroke:#000000;" x="180.204202735" xlink:href="#m4274bb22aa" y="65.2387540458"/>
     <use style="fill:#0000ff;stroke:#000000;" x="195.227003462" xlink:href="#m4274bb22aa" y="83.8565780552"/>
     <use style="fill:#0000ff;stroke:#000000;" x="234.724964422" xlink:href="#m4274bb22aa" y="70.9696622489"/>
     <use style="fill:#0000ff;stroke:#000000;" x="245.148297548" xlink:href="#m4274bb22aa" y="73.2916697824"/>
     <use style="fill:#0000ff;stroke:#000000;" x="228.379099412" xlink:href="#m4274bb22aa" y="70.0736487165"/>
     <use style="fill:#0000ff;stroke:#000000;" x="251.08668865" xlink:href="#m4274bb22aa" y="54.6159792132"/>
     <use style="fill:#0000ff;stroke:#000000;" x="251.413232405" xlink:href="#m4274bb22aa" y="56.9245206473"/>
     <use style="fill:#0000ff;stroke:#000000;" x="251.638989889" xlink:href="#m4274bb22aa" y="59.0241021205"/>
     <use style="fill:#0000ff;stroke:#000000;" x="238.170989139" xlink:href="#m4274bb22aa" y="59.9562763672"/>
     <use style="fill:#0000ff;stroke:#000000;" x="194.074783941" xlink:href="#m4274bb22aa" y="69.3090944475"/>
     <use style="fill:#0000ff;stroke:#000000;" x="178.90339169" xlink:href="#m4274bb22aa" y="76.9886790597"/>
     <use style="fill:#0000ff;stroke:#000000;" x="189.395139026" xlink:href="#m4274bb22aa" y="81.2012139369"/>
     <use style="fill:#0000ff;stroke:#000000;" x="169.841755433" xlink:href="#m4274bb22aa" y="84.9469554269"/>
     <use style="fill:#0000ff;stroke:#000000;" x="169.981124684" xlink:href="#m4274bb22aa" y="85.0303416574"/>
     <use style="fill:#0000ff;stroke:#000000;" x="155.98585458" xlink:href="#m4274bb22aa" y="90.3688966936"/>
     <use style="fill:#0000ff;stroke:#000000;" x="132.659620199" xlink:href="#m4274bb22aa" y="98.1458044782"/>
     <use style="fill:#0000ff;stroke:#000000;" x="119.636358869" xlink:href="#m4274bb22aa" y="105.465524065"/>
     <use style="fill:#0000ff;stroke:#000000;" x="97.1414465444" xlink:href="#m4274bb22aa" y="95.3870904018"/>
     <use style="fill:#0000ff;stroke:#000000;" x="112.122464728" xlink:href="#m4274bb22aa" y="76.3073697684"/>
     <use style="fill:#0000ff;stroke:#000000;" x="156.781981429" xlink:href="#m4274bb22aa" y="54.6686194196"/>
     <use style="fill:#0000ff;stroke:#000000;" x="201.461542459" xlink:href="#m4274bb22aa" y="50.969585519"/>
     <use style="fill:#0000ff;stroke:#000000;" x="211.686596712" xlink:href="#m4274bb22aa" y="50.2398736049"/>
     <use style="fill:#0000ff;stroke:#000000;" x="172.481019455" xlink:href="#m4274bb22aa" y="40.5497438616"/>
     <use style="fill:#0000ff;stroke:#000000;" x="147.999648303" xlink:href="#m4274bb22aa" y="43.1039709821"/>
     <use style="fill:#0000ff;stroke:#000000;" x="148.25156693" xlink:href="#m4274bb22aa" y="44.7368532366"/>
     <use style="fill:#0000ff;stroke:#000000;" x="163.224115678" xlink:href="#m4274bb22aa" y="45.2544034598"/>
     <use style="fill:#0000ff;stroke:#000000;" x="202.936917962" xlink:href="#m4274bb22aa" y="46.2284827009"/>
     <use style="fill:#0000ff;stroke:#000000;" x="242.645485528" xlink:href="#m4274bb22aa" y="49.4322843192"/>
     <use style="fill:#0000ff;stroke:#000000;" x="287.319023849" xlink:href="#m4274bb22aa" y="59.2676219308"/>
     <use style="fill:#0000ff;stroke:#000000;" x="297.573721122" xlink:href="#m4274bb22aa" y="53.9884401507"/>
     <use style="fill:#0000ff;stroke:#000000;" x="258.380189283" xlink:href="#m4274bb22aa" y="48.8878960658"/>
     <use style="fill:#0000ff;stroke:#000000;" x="243.722327081" xlink:href="#m4274bb22aa" y="50.0924998605"/>
     <use style="fill:#0000ff;stroke:#000000;" x="283.439364081" xlink:href="#m4274bb22aa" y="54.7080760324"/>
     <use style="fill:#0000ff;stroke:#000000;" x="323.159412436" xlink:href="#m4274bb22aa" y="64.2834143415"/>
     <use style="fill:#0000ff;stroke:#000000;" x="353.12022544" xlink:href="#m4274bb22aa" y="80.890175293"/>
     <use style="fill:#0000ff;stroke:#000000;" x="338.694237536" xlink:href="#m4274bb22aa" y="64.7327865513"/>
     <use style="fill:#0000ff;stroke:#000000;" x="304.419000457" xlink:href="#m4274bb22aa" y="66.9418860212"/>
     <use style="fill:#0000ff;stroke:#000000;" x="304.747426308" xlink:href="#m4274bb22aa" y="70.8079748884"/>
     <use style="fill:#0000ff;stroke:#000000;" x="319.779825728" xlink:href="#m4274bb22aa" y="86.4873641881"/>
     <use style="fill:#0000ff;stroke:#000000;" x="334.993847467" xlink:href="#m4274bb22aa" y="101.518450265"/>
     <use style="fill:#0000ff;stroke:#000000;" x="285.961561696" xlink:href="#m4274bb22aa" y="92.0683560965"/>
     <use style="fill:#0000ff;stroke:#000000;" x="266.407707579" xlink:href="#m4274bb22aa" y="81.3410541992"/>
     <use style="fill:#0000ff;stroke:#000000;" x="291.551953142" xlink:href="#m4274bb22aa" y="78.8088154297"/>
     <use style="fill:#0000ff;stroke:#000000;" x="252.333577628" xlink:href="#m4274bb22aa" y="99.4835154855"/>
     <use style="fill:#0000ff;stroke:#000000;" x="242.57537743" xlink:href="#m4274bb22aa" y="100.726587123"/>
     <use style="fill:#0000ff;stroke:#000000;" x="272.509935187" xlink:href="#m4274bb22aa" y="75.0690536412"/>
     <use style="fill:#0000ff;stroke:#000000;" x="287.534712116" xlink:href="#m4274bb22aa" y="76.9468682338"/>
     <use style="fill:#0000ff;stroke:#000000;" x="312.527825324" xlink:href="#m4274bb22aa" y="93.708395159"/>
     <use style="fill:#0000ff;stroke:#000000;" x="298.044527579" xlink:href="#m4274bb22aa" y="79.8309206194"/>
     <use style="fill:#0000ff;stroke:#000000;" x="258.858524126" xlink:href="#m4274bb22aa" y="69.6266307199"/>
     <use style="fill:#0000ff;stroke:#000000;" x="219.642971757" xlink:href="#m4274bb22aa" y="69.5908466797"/>
     <use style="fill:#0000ff;stroke:#000000;" x="200.085071132" xlink:href="#m4274bb22aa" y="62.7247368862"/>
     <use style="fill:#0000ff;stroke:#000000;" x="185.604031903" xlink:href="#m4274bb22aa" y="54.4470408761"/>
     <use style="fill:#0000ff;stroke:#000000;" x="175.865970138" xlink:href="#m4274bb22aa" y="53.0582434431"/>
     <use style="fill:#0000ff;stroke:#000000;" x="191.086202796" xlink:href="#m4274bb22aa" y="57.1427091239"/>
     <use style="fill:#0000ff;stroke:#000000;" x="176.443773785" xlink:href="#m4274bb22aa" y="69.9373868583"/>
     <use style="fill:#0000ff;stroke:#000000;" x="186.679650093" xlink:href="#m4274bb22aa" y="60.8201784319"/>
     <use style="fill:#0000ff;stroke:#000000;" x="172.051242703" xlink:href="#m4274bb22aa" y="54.4586236049"/>
     <use style="fill:#0000ff;stroke:#000000;" x="197.03946246" xlink:href="#m4274bb22aa" y="49.8496392299"/>
     <use style="fill:#0000ff;stroke:#000000;" x="212.027444401" xlink:href="#m4274bb22aa" y="54.1573784877"/>
     <use style="fill:#0000ff;stroke:#000000;" x="237.020463505" xlink:href="#m4274bb22aa" y="54.7942402344"/>
     <use style="fill:#0000ff;stroke:#000000;" x="222.551281484" xlink:href="#m4274bb22aa" y="50.9599803292"/>
     <use style="fill:#0000ff;stroke:#000000;" x="217.709023425" xlink:href="#m4274bb22aa" y="57.9401282087"/>
     <use style="fill:#0000ff;stroke:#000000;" x="257.440834884" xlink:href="#m4274bb22aa" y="72.4268260324"/>
     <use style="fill:#0000ff;stroke:#000000;" x="297.164741537" xlink:href="#m4274bb22aa" y="111.399600865"/>
     <use style="fill:#0000ff;stroke:#000000;" x="327.109933139" xlink:href="#m4274bb22aa" y="151.704860352"/>
     <use style="fill:#0000ff;stroke:#000000;" x="327.346700888" xlink:href="#m4274bb22aa" y="161.388822056"/>
     <use style="fill:#0000ff;stroke:#000000;" x="342.366960785" xlink:href="#m4274bb22aa" y="177.323172642"/>
     <use style="fill:#0000ff;stroke:#000000;" x="352.579499095" xlink:href="#m4274bb22aa" y="167.40411921"/>
     <use style="fill:#0000ff;stroke:#000000;" x="323.193948908" xlink:href="#m4274bb22aa" y="145.571005022"/>
     <use style="fill:#0000ff;stroke:#000000;" x="308.788758171" xlink:href="#m4274bb22aa" y="130.751892299"/>
     <use style="fill:#0000ff;stroke:#000000;" x="269.565865625" xlink:href="#m4274bb22aa" y="138.544008301"/>
     <use style="fill:#0000ff;stroke:#000000;" x="240.190949284" xlink:href="#m4274bb22aa" y="140.513872628"/>
     <use style="fill:#0000ff;stroke:#000000;" x="225.69635896" xlink:href="#m4274bb22aa" y="133.842126674"/>
     <use style="fill:#0000ff;stroke:#000000;" x="215.973165758" xlink:href="#m4274bb22aa" y="134.011065011"/>
     <use style="fill:#0000ff;stroke:#000000;" x="255.675051881" xlink:href="#m4274bb22aa" y="120.352155622"/>
     <use style="fill:#0000ff;stroke:#000000;" x="280.641909843" xlink:href="#m4274bb22aa" y="100.317095285"/>
     <use style="fill:#0000ff;stroke:#000000;" x="295.645983709" xlink:href="#m4274bb22aa" y="118.347543108"/>
     <use style="fill:#0000ff;stroke:#000000;" x="335.360291669" xlink:href="#m4274bb22aa" y="158.631285086"/>
     <use style="fill:#0000ff;stroke:#000000;" x="384.998330221" xlink:href="#m4274bb22aa" y="215.0897899"/>
     <use style="fill:#0000ff;stroke:#000000;" x="395.218679232" xlink:href="#m4274bb22aa" y="200.488536063"/>
     <use style="fill:#0000ff;stroke:#000000;" x="365.832282102" xlink:href="#m4274bb22aa" y="164.872445452"/>
     <use style="fill:#0000ff;stroke:#000000;" x="351.379944846" xlink:href="#m4274bb22aa" y="136.86201716"/>
     <use style="fill:#0000ff;stroke:#000000;" x="312.150464962" xlink:href="#m4274bb22aa" y="110.826349958"/>
     <use style="fill:#0000ff;stroke:#000000;" x="297.512458879" xlink:href="#m4274bb22aa" y="98.1910524554"/>
     <use style="fill:#0000ff;stroke:#000000;" x="342.182797636" xlink:href="#m4274bb22aa" y="132.934530413"/>
     <use style="fill:#0000ff;stroke:#000000;" x="352.425920015" xlink:href="#m4274bb22aa" y="142.087805385"/>
     <use style="fill:#0000ff;stroke:#000000;" x="323.041593191" xlink:href="#m4274bb22aa" y="143.116784877"/>
     <use style="fill:#0000ff;stroke:#000000;" x="323.315626452" xlink:href="#m4274bb22aa" y="136.554086077"/>
     <use style="fill:#0000ff;stroke:#000000;" x="323.611303823" xlink:href="#m4274bb22aa" y="126.143708357"/>
     <use style="fill:#0000ff;stroke:#000000;" x="338.62591743" xlink:href="#m4274bb22aa" y="133.502837472"/>
     <use style="fill:#0000ff;stroke:#000000;" x="353.819706631" xlink:href="#m4274bb22aa" y="113.645520229"/>
     <use style="fill:#0000ff;stroke:#000000;" x="334.25681845" xlink:href="#m4274bb22aa" y="109.12980978"/>
     <use style="fill:#0000ff;stroke:#000000;" x="378.917934933" xlink:href="#m4274bb22aa" y="150.792273158"/>
     <use style="fill:#0000ff;stroke:#000000;" x="394.107112997" xlink:href="#m4274bb22aa" y="150.010862723"/>
     <use style="fill:#0000ff;stroke:#000000;" x="345.059205825" xlink:href="#m4274bb22aa" y="111.332034947"/>
     <use style="fill:#0000ff;stroke:#000000;" x="315.676008259" xlink:href="#m4274bb22aa" y="89.619597726"/>
     <use style="fill:#0000ff;stroke:#000000;" x="330.672553739" xlink:href="#m4274bb22aa" y="115.500922712"/>
     <use style="fill:#0000ff;stroke:#000000;" x="370.368793573" xlink:href="#m4274bb22aa" y="169.441219866"/>
     <use style="fill:#0000ff;stroke:#000000;" x="410.056563972" xlink:href="#m4274bb22aa" y="245.119709333"/>
     <use style="fill:#0000ff;stroke:#000000;" x="449.766825424" xlink:href="#m4274bb22aa" y="323.710878418"/>
    </g>
   </g>
   <g id="patch_3">
    <path d="M 493.2975 368.74175 
L 493.2975 23.14175 
" style="fill:none;stroke:#000000;stroke-linecap:square;stroke-linejoin:miter;"/>
   </g>
   <g id="patch_4">
    <path d="M 46.8975 368.74175 
L 46.8975 23.14175 
" style="fill:none;stroke:#000000;stroke-linecap:square;stroke-linejoin:miter;"/>
   </g>
   <g id="patch_5">
    <path d="M 46.8975 368.74175 
L 493.2975 368.74175 
" style="fill:none;stroke:#000000;stroke-linecap:square;stroke-linejoin:miter;"/>
   </g>
   <g id="patch_6">
    <path d="M 46.8975 23.14175 
L 493.2975 23.14175 
" style="fill:none;stroke:#000000;stroke-linecap:square;stroke-linejoin:miter;"/>
   </g>
   <g id="matplotlib.axis_1">
    <g id="xtick_1">
     <g id="line2d_1">
      <defs>
       <path d="M 0 0 
L 0 -4 
" id="m2a6bfbac1b" style="stroke:#000000;stroke-width:0.5;"/>
      </defs>
      <g>
       <use style="stroke:#000000;stroke-width:0.5;" x="46.8975" xlink:href="#m2a6bfbac1b" y="368.74175"/>
      </g>
     </g>
     <g id="line2d_2">
      <defs>
       <path d="M 0 0 
L 0 4 
" id="mc14bec3eb2" style="stroke:#000000;stroke-width:0.5;"/>
      </defs>
      <g>
       <use style="stroke:#000000;stroke-width:0.5;" x="46.8975" xlink:href="#mc14bec3eb2" y="23.14175"/>
      </g>
     </g>
     <g id="text_1">
      <!-- 0.34 -->
      <defs>
       <path d="M 37.796875 64.3125 
L 12.890625 25.390625 
L 37.796875 25.390625 
z
M 35.203125 72.90625 
L 47.609375 72.90625 
L 47.609375 25.390625 
L 58.015625 25.390625 
L 58.015625 17.1875 
L 47.609375 17.1875 
L 47.609375 0 
L 37.796875 0 
L 37.796875 17.1875 
L 4.890625 17.1875 
L 4.890625 26.703125 
z
" id="BitstreamVeraSans-Roman-34"/>
       <path d="M 10.6875 12.40625 
L 21 12.40625 
L 21 0 
L 10.6875 0 
z
" id="BitstreamVeraSans-Roman-2e"/>
       <path d="M 31.78125 66.40625 
Q 24.171875 66.40625 20.328125 58.90625 
Q 16.5 51.421875 16.5 36.375 
Q 16.5 21.390625 20.328125 13.890625 
Q 24.171875 6.390625 31.78125 6.390625 
Q 39.453125 6.390625 43.28125 13.890625 
Q 47.125 21.390625 47.125 36.375 
Q 47.125 51.421875 43.28125 58.90625 
Q 39.453125 66.40625 31.78125 66.40625 
M 31.78125 74.21875 
Q 44.046875 74.21875 50.515625 64.515625 
Q 56.984375 54.828125 56.984375 36.375 
Q 56.984375 17.96875 50.515625 8.265625 
Q 44.046875 -1.421875 31.78125 -1.421875 
Q 19.53125 -1.421875 13.0625 8.265625 
Q 6.59375 17.96875 6.59375 36.375 
Q 6.59375 54.828125 13.0625 64.515625 
Q 19.53125 74.21875 31.78125 74.21875 
" id="BitstreamVeraSans-Roman-30"/>
       <path d="M 40.578125 39.3125 
Q 47.65625 37.796875 51.625 33 
Q 55.609375 28.21875 55.609375 21.1875 
Q 55.609375 10.40625 48.1875 4.484375 
Q 40.765625 -1.421875 27.09375 -1.421875 
Q 22.515625 -1.421875 17.65625 -0.515625 
Q 12.796875 0.390625 7.625 2.203125 
L 7.625 11.71875 
Q 11.71875 9.328125 16.59375 8.109375 
Q 21.484375 6.890625 26.8125 6.890625 
Q 36.078125 6.890625 40.9375 10.546875 
Q 45.796875 14.203125 45.796875 21.1875 
Q 45.796875 27.640625 41.28125 31.265625 
Q 36.765625 34.90625 28.71875 34.90625 
L 20.21875 34.90625 
L 20.21875 43.015625 
L 29.109375 43.015625 
Q 36.375 43.015625 40.234375 45.921875 
Q 44.09375 48.828125 44.09375 54.296875 
Q 44.09375 59.90625 40.109375 62.90625 
Q 36.140625 65.921875 28.71875 65.921875 
Q 24.65625 65.921875 20.015625 65.03125 
Q 15.375 64.15625 9.8125 62.3125 
L 9.8125 71.09375 
Q 15.4375 72.65625 20.34375 73.4375 
Q 25.25 74.21875 29.59375 74.21875 
Q 40.828125 74.21875 47.359375 69.109375 
Q 53.90625 64.015625 53.90625 55.328125 
Q 53.90625 49.265625 50.4375 45.09375 
Q 46.96875 40.921875 40.578125 39.3125 
" id="BitstreamVeraSans-Roman-33"/>
      </defs>
      <g transform="translate(33.538125 381.859875)scale(0.12 -0.12)">
       <use xlink:href="#BitstreamVeraSans-Roman-30"/>
       <use x="63.623046875" xlink:href="#BitstreamVeraSans-Roman-2e"/>
       <use x="95.41015625" xlink:href="#BitstreamVeraSans-Roman-33"/>
       <use x="159.033203125" xlink:href="#BitstreamVeraSans-Roman-34"/>
      </g>
     </g>
    </g>
    <g id="xtick_2">
     <g id="line2d_3">
      <g>
       <use style="stroke:#000000;stroke-width:0.5;" x="96.4975" xlink:href="#m2a6bfbac1b" y="368.74175"/>
      </g>
     </g>
     <g id="line2d_4">
      <g>
       <use style="stroke:#000000;stroke-width:0.5;" x="96.4975" xlink:href="#mc14bec3eb2" y="23.14175"/>
      </g>
     </g>
     <g id="text_2">
      <!-- 0.36 -->
      <defs>
       <path d="M 33.015625 40.375 
Q 26.375 40.375 22.484375 35.828125 
Q 18.609375 31.296875 18.609375 23.390625 
Q 18.609375 15.53125 22.484375 10.953125 
Q 26.375 6.390625 33.015625 6.390625 
Q 39.65625 6.390625 43.53125 10.953125 
Q 47.40625 15.53125 47.40625 23.390625 
Q 47.40625 31.296875 43.53125 35.828125 
Q 39.65625 40.375 33.015625 40.375 
M 52.59375 71.296875 
L 52.59375 62.3125 
Q 48.875 64.0625 45.09375 64.984375 
Q 41.3125 65.921875 37.59375 65.921875 
Q 27.828125 65.921875 22.671875 59.328125 
Q 17.53125 52.734375 16.796875 39.40625 
Q 19.671875 43.65625 24.015625 45.921875 
Q 28.375 48.1875 33.59375 48.1875 
Q 44.578125 48.1875 50.953125 41.515625 
Q 57.328125 34.859375 57.328125 23.390625 
Q 57.328125 12.15625 50.6875 5.359375 
Q 44.046875 -1.421875 33.015625 -1.421875 
Q 20.359375 -1.421875 13.671875 8.265625 
Q 6.984375 17.96875 6.984375 36.375 
Q 6.984375 53.65625 15.1875 63.9375 
Q 23.390625 74.21875 37.203125 74.21875 
Q 40.921875 74.21875 44.703125 73.484375 
Q 48.484375 72.75 52.59375 71.296875 
" id="BitstreamVeraSans-Roman-36"/>
      </defs>
      <g transform="translate(83.138125 381.859875)scale(0.12 -0.12)">
       <use xlink:href="#BitstreamVeraSans-Roman-30"/>
       <use x="63.623046875" xlink:href="#BitstreamVeraSans-Roman-2e"/>
       <use x="95.41015625" xlink:href="#BitstreamVeraSans-Roman-33"/>
       <use x="159.033203125" xlink:href="#BitstreamVeraSans-Roman-36"/>
      </g>
     </g>
    </g>
    <g id="xtick_3">
     <g id="line2d_5">
      <g>
       <use style="stroke:#000000;stroke-width:0.5;" x="146.0975" xlink:href="#m2a6bfbac1b" y="368.74175"/>
      </g>
     </g>
     <g id="line2d_6">
      <g>
       <use style="stroke:#000000;stroke-width:0.5;" x="146.0975" xlink:href="#mc14bec3eb2" y="23.14175"/>
      </g>
     </g>
     <g id="text_3">
      <!-- 0.38 -->
      <defs>
       <path d="M 31.78125 34.625 
Q 24.75 34.625 20.71875 30.859375 
Q 16.703125 27.09375 16.703125 20.515625 
Q 16.703125 13.921875 20.71875 10.15625 
Q 24.75 6.390625 31.78125 6.390625 
Q 38.8125 6.390625 42.859375 10.171875 
Q 46.921875 13.96875 46.921875 20.515625 
Q 46.921875 27.09375 42.890625 30.859375 
Q 38.875 34.625 31.78125 34.625 
M 21.921875 38.8125 
Q 15.578125 40.375 12.03125 44.71875 
Q 8.5 49.078125 8.5 55.328125 
Q 8.5 64.0625 14.71875 69.140625 
Q 20.953125 74.21875 31.78125 74.21875 
Q 42.671875 74.21875 48.875 69.140625 
Q 55.078125 64.0625 55.078125 55.328125 
Q 55.078125 49.078125 51.53125 44.71875 
Q 48 40.375 41.703125 38.8125 
Q 48.828125 37.15625 52.796875 32.3125 
Q 56.78125 27.484375 56.78125 20.515625 
Q 56.78125 9.90625 50.3125 4.234375 
Q 43.84375 -1.421875 31.78125 -1.421875 
Q 19.734375 -1.421875 13.25 4.234375 
Q 6.78125 9.90625 6.78125 20.515625 
Q 6.78125 27.484375 10.78125 32.3125 
Q 14.796875 37.15625 21.921875 38.8125 
M 18.3125 54.390625 
Q 18.3125 48.734375 21.84375 45.5625 
Q 25.390625 42.390625 31.78125 42.390625 
Q 38.140625 42.390625 41.71875 45.5625 
Q 45.3125 48.734375 45.3125 54.390625 
Q 45.3125 60.0625 41.71875 63.234375 
Q 38.140625 66.40625 31.78125 66.40625 
Q 25.390625 66.40625 21.84375 63.234375 
Q 18.3125 60.0625 18.3125 54.390625 
" id="BitstreamVeraSans-Roman-38"/>
      </defs>
      <g transform="translate(132.738125 381.859875)scale(0.12 -0.12)">
       <use xlink:href="#BitstreamVeraSans-Roman-30"/>
       <use x="63.623046875" xlink:href="#BitstreamVeraSans-Roman-2e"/>
       <use x="95.41015625" xlink:href="#BitstreamVeraSans-Roman-33"/>
       <use x="159.033203125" xlink:href="#BitstreamVeraSans-Roman-38"/>
      </g>
     </g>
    </g>
    <g id="xtick_4">
     <g id="line2d_7">
      <g>
       <use style="stroke:#000000;stroke-width:0.5;" x="195.6975" xlink:href="#m2a6bfbac1b" y="368.74175"/>
      </g>
     </g>
     <g id="line2d_8">
      <g>
       <use style="stroke:#000000;stroke-width:0.5;" x="195.6975" xlink:href="#mc14bec3eb2" y="23.14175"/>
      </g>
     </g>
     <g id="text_4">
      <!-- 0.40 -->
      <g transform="translate(182.338125 381.859875)scale(0.12 -0.12)">
       <use xlink:href="#BitstreamVeraSans-Roman-30"/>
       <use x="63.623046875" xlink:href="#BitstreamVeraSans-Roman-2e"/>
       <use x="95.41015625" xlink:href="#BitstreamVeraSans-Roman-34"/>
       <use x="159.033203125" xlink:href="#BitstreamVeraSans-Roman-30"/>
      </g>
     </g>
    </g>
    <g id="xtick_5">
     <g id="line2d_9">
      <g>
       <use style="stroke:#000000;stroke-width:0.5;" x="245.2975" xlink:href="#m2a6bfbac1b" y="368.74175"/>
      </g>
     </g>
     <g id="line2d_10">
      <g>
       <use style="stroke:#000000;stroke-width:0.5;" x="245.2975" xlink:href="#mc14bec3eb2" y="23.14175"/>
      </g>
     </g>
     <g id="text_5">
      <!-- 0.42 -->
      <defs>
       <path d="M 19.1875 8.296875 
L 53.609375 8.296875 
L 53.609375 0 
L 7.328125 0 
L 7.328125 8.296875 
Q 12.9375 14.109375 22.625 23.890625 
Q 32.328125 33.6875 34.8125 36.53125 
Q 39.546875 41.84375 41.421875 45.53125 
Q 43.3125 49.21875 43.3125 52.78125 
Q 43.3125 58.59375 39.234375 62.25 
Q 35.15625 65.921875 28.609375 65.921875 
Q 23.96875 65.921875 18.8125 64.3125 
Q 13.671875 62.703125 7.8125 59.421875 
L 7.8125 69.390625 
Q 13.765625 71.78125 18.9375 73 
Q 24.125 74.21875 28.421875 74.21875 
Q 39.75 74.21875 46.484375 68.546875 
Q 53.21875 62.890625 53.21875 53.421875 
Q 53.21875 48.921875 51.53125 44.890625 
Q 49.859375 40.875 45.40625 35.40625 
Q 44.1875 33.984375 37.640625 27.21875 
Q 31.109375 20.453125 19.1875 8.296875 
" id="BitstreamVeraSans-Roman-32"/>
      </defs>
      <g transform="translate(231.938125 381.859875)scale(0.12 -0.12)">
       <use xlink:href="#BitstreamVeraSans-Roman-30"/>
       <use x="63.623046875" xlink:href="#BitstreamVeraSans-Roman-2e"/>
       <use x="95.41015625" xlink:href="#BitstreamVeraSans-Roman-34"/>
       <use x="159.033203125" xlink:href="#BitstreamVeraSans-Roman-32"/>
      </g>
     </g>
    </g>
    <g id="xtick_6">
     <g id="line2d_11">
      <g>
       <use style="stroke:#000000;stroke-width:0.5;" x="294.8975" xlink:href="#m2a6bfbac1b" y="368.74175"/>
      </g>
     </g>
     <g id="line2d_12">
      <g>
       <use style="stroke:#000000;stroke-width:0.5;" x="294.8975" xlink:href="#mc14bec3eb2" y="23.14175"/>
      </g>
     </g>
     <g id="text_6">
      <!-- 0.44 -->
      <g transform="translate(281.538125 381.859875)scale(0.12 -0.12)">
       <use xlink:href="#BitstreamVeraSans-Roman-30"/>
       <use x="63.623046875" xlink:href="#BitstreamVeraSans-Roman-2e"/>
       <use x="95.41015625" xlink:href="#BitstreamVeraSans-Roman-34"/>
       <use x="159.033203125" xlink:href="#BitstreamVeraSans-Roman-34"/>
      </g>
     </g>
    </g>
    <g id="xtick_7">
     <g id="line2d_13">
      <g>
       <use style="stroke:#000000;stroke-width:0.5;" x="344.4975" xlink:href="#m2a6bfbac1b" y="368.74175"/>
      </g>
     </g>
     <g id="line2d_14">
      <g>
       <use style="stroke:#000000;stroke-width:0.5;" x="344.4975" xlink:href="#mc14bec3eb2" y="23.14175"/>
      </g>
     </g>
     <g id="text_7">
      <!-- 0.46 -->
      <g transform="translate(331.138125 381.859875)scale(0.12 -0.12)">
       <use xlink:href="#BitstreamVeraSans-Roman-30"/>
       <use x="63.623046875" xlink:href="#BitstreamVeraSans-Roman-2e"/>
       <use x="95.41015625" xlink:href="#BitstreamVeraSans-Roman-34"/>
       <use x="159.033203125" xlink:href="#BitstreamVeraSans-Roman-36"/>
      </g>
     </g>
    </g>
    <g id="xtick_8">
     <g id="line2d_15">
      <g>
       <use style="stroke:#000000;stroke-width:0.5;" x="394.0975" xlink:href="#m2a6bfbac1b" y="368.74175"/>
      </g>
     </g>
     <g id="line2d_16">
      <g>
       <use style="stroke:#000000;stroke-width:0.5;" x="394.0975" xlink:href="#mc14bec3eb2" y="23.14175"/>
      </g>
     </g>
     <g id="text_8">
      <!-- 0.48 -->
      <g transform="translate(380.738125 381.859875)scale(0.12 -0.12)">
       <use xlink:href="#BitstreamVeraSans-Roman-30"/>
       <use x="63.623046875" xlink:href="#BitstreamVeraSans-Roman-2e"/>
       <use x="95.41015625" xlink:href="#BitstreamVeraSans-Roman-34"/>
       <use x="159.033203125" xlink:href="#BitstreamVeraSans-Roman-38"/>
      </g>
     </g>
    </g>
    <g id="xtick_9">
     <g id="line2d_17">
      <g>
       <use style="stroke:#000000;stroke-width:0.5;" x="443.6975" xlink:href="#m2a6bfbac1b" y="368.74175"/>
      </g>
     </g>
     <g id="line2d_18">
      <g>
       <use style="stroke:#000000;stroke-width:0.5;" x="443.6975" xlink:href="#mc14bec3eb2" y="23.14175"/>
      </g>
     </g>
     <g id="text_9">
      <!-- 0.50 -->
      <defs>
       <path d="M 10.796875 72.90625 
L 49.515625 72.90625 
L 49.515625 64.59375 
L 19.828125 64.59375 
L 19.828125 46.734375 
Q 21.96875 47.46875 24.109375 47.828125 
Q 26.265625 48.1875 28.421875 48.1875 
Q 40.625 48.1875 47.75 41.5 
Q 54.890625 34.8125 54.890625 23.390625 
Q 54.890625 11.625 47.5625 5.09375 
Q 40.234375 -1.421875 26.90625 -1.421875 
Q 22.3125 -1.421875 17.546875 -0.640625 
Q 12.796875 0.140625 7.71875 1.703125 
L 7.71875 11.625 
Q 12.109375 9.234375 16.796875 8.0625 
Q 21.484375 6.890625 26.703125 6.890625 
Q 35.15625 6.890625 40.078125 11.328125 
Q 45.015625 15.765625 45.015625 23.390625 
Q 45.015625 31 40.078125 35.4375 
Q 35.15625 39.890625 26.703125 39.890625 
Q 22.75 39.890625 18.8125 39.015625 
Q 14.890625 38.140625 10.796875 36.28125 
z
" id="BitstreamVeraSans-Roman-35"/>
      </defs>
      <g transform="translate(430.338125 381.859875)scale(0.12 -0.12)">
       <use xlink:href="#BitstreamVeraSans-Roman-30"/>
       <use x="63.623046875" xlink:href="#BitstreamVeraSans-Roman-2e"/>
       <use x="95.41015625" xlink:href="#BitstreamVeraSans-Roman-35"/>
       <use x="159.033203125" xlink:href="#BitstreamVeraSans-Roman-30"/>
      </g>
     </g>
    </g>
    <g id="xtick_10">
     <g id="line2d_19">
      <g>
       <use style="stroke:#000000;stroke-width:0.5;" x="493.2975" xlink:href="#m2a6bfbac1b" y="368.74175"/>
      </g>
     </g>
     <g id="line2d_20">
      <g>
       <use style="stroke:#000000;stroke-width:0.5;" x="493.2975" xlink:href="#mc14bec3eb2" y="23.14175"/>
      </g>
     </g>
     <g id="text_10">
      <!-- 0.52 -->
      <g transform="translate(479.938125 381.859875)scale(0.12 -0.12)">
       <use xlink:href="#BitstreamVeraSans-Roman-30"/>
       <use x="63.623046875" xlink:href="#BitstreamVeraSans-Roman-2e"/>
       <use x="95.41015625" xlink:href="#BitstreamVeraSans-Roman-35"/>
       <use x="159.033203125" xlink:href="#BitstreamVeraSans-Roman-32"/>
      </g>
     </g>
    </g>
    <g id="text_11">
     <!-- normalized angle -->
     <defs>
      <path d="M 45.40625 46.390625 
L 45.40625 75.984375 
L 54.390625 75.984375 
L 54.390625 0 
L 45.40625 0 
L 45.40625 8.203125 
Q 42.578125 3.328125 38.25 0.953125 
Q 33.9375 -1.421875 27.875 -1.421875 
Q 17.96875 -1.421875 11.734375 6.484375 
Q 5.515625 14.40625 5.515625 27.296875 
Q 5.515625 40.1875 11.734375 48.09375 
Q 17.96875 56 27.875 56 
Q 33.9375 56 38.25 53.625 
Q 42.578125 51.265625 45.40625 46.390625 
M 14.796875 27.296875 
Q 14.796875 17.390625 18.875 11.75 
Q 22.953125 6.109375 30.078125 6.109375 
Q 37.203125 6.109375 41.296875 11.75 
Q 45.40625 17.390625 45.40625 27.296875 
Q 45.40625 37.203125 41.296875 42.84375 
Q 37.203125 48.484375 30.078125 48.484375 
Q 22.953125 48.484375 18.875 42.84375 
Q 14.796875 37.203125 14.796875 27.296875 
" id="BitstreamVeraSans-Roman-64"/>
      <path id="BitstreamVeraSans-Roman-20"/>
      <path d="M 52 44.1875 
Q 55.375 50.25 60.0625 53.125 
Q 64.75 56 71.09375 56 
Q 79.640625 56 84.28125 50.015625 
Q 88.921875 44.046875 88.921875 33.015625 
L 88.921875 0 
L 79.890625 0 
L 79.890625 32.71875 
Q 79.890625 40.578125 77.09375 44.375 
Q 74.3125 48.1875 68.609375 48.1875 
Q 61.625 48.1875 57.5625 43.546875 
Q 53.515625 38.921875 53.515625 30.90625 
L 53.515625 0 
L 44.484375 0 
L 44.484375 32.71875 
Q 44.484375 40.625 41.703125 44.40625 
Q 38.921875 48.1875 33.109375 48.1875 
Q 26.21875 48.1875 22.15625 43.53125 
Q 18.109375 38.875 18.109375 30.90625 
L 18.109375 0 
L 9.078125 0 
L 9.078125 54.6875 
L 18.109375 54.6875 
L 18.109375 46.1875 
Q 21.1875 51.21875 25.484375 53.609375 
Q 29.78125 56 35.6875 56 
Q 41.65625 56 45.828125 52.96875 
Q 50 49.953125 52 44.1875 
" id="BitstreamVeraSans-Roman-6d"/>
      <path d="M 56.203125 29.59375 
L 56.203125 25.203125 
L 14.890625 25.203125 
Q 15.484375 15.921875 20.484375 11.0625 
Q 25.484375 6.203125 34.421875 6.203125 
Q 39.59375 6.203125 44.453125 7.46875 
Q 49.3125 8.734375 54.109375 11.28125 
L 54.109375 2.78125 
Q 49.265625 0.734375 44.1875 -0.34375 
Q 39.109375 -1.421875 33.890625 -1.421875 
Q 20.796875 -1.421875 13.15625 6.1875 
Q 5.515625 13.8125 5.515625 26.8125 
Q 5.515625 40.234375 12.765625 48.109375 
Q 20.015625 56 32.328125 56 
Q 43.359375 56 49.78125 48.890625 
Q 56.203125 41.796875 56.203125 29.59375 
M 47.21875 32.234375 
Q 47.125 39.59375 43.09375 43.984375 
Q 39.0625 48.390625 32.421875 48.390625 
Q 24.90625 48.390625 20.390625 44.140625 
Q 15.875 39.890625 15.1875 32.171875 
z
" id="BitstreamVeraSans-Roman-65"/>
      <path d="M 5.515625 54.6875 
L 48.1875 54.6875 
L 48.1875 46.484375 
L 14.40625 7.171875 
L 48.1875 7.171875 
L 48.1875 0 
L 4.296875 0 
L 4.296875 8.203125 
L 38.09375 47.515625 
L 5.515625 47.515625 
z
" id="BitstreamVeraSans-Roman-7a"/>
      <path d="M 45.40625 27.984375 
Q 45.40625 37.75 41.375 43.109375 
Q 37.359375 48.484375 30.078125 48.484375 
Q 22.859375 48.484375 18.828125 43.109375 
Q 14.796875 37.75 14.796875 27.984375 
Q 14.796875 18.265625 18.828125 12.890625 
Q 22.859375 7.515625 30.078125 7.515625 
Q 37.359375 7.515625 41.375 12.890625 
Q 45.40625 18.265625 45.40625 27.984375 
M 54.390625 6.78125 
Q 54.390625 -7.171875 48.1875 -13.984375 
Q 42 -20.796875 29.203125 -20.796875 
Q 24.46875 -20.796875 20.265625 -20.09375 
Q 16.0625 -19.390625 12.109375 -17.921875 
L 12.109375 -9.1875 
Q 16.0625 -11.328125 19.921875 -12.34375 
Q 23.78125 -13.375 27.78125 -13.375 
Q 36.625 -13.375 41.015625 -8.765625 
Q 45.40625 -4.15625 45.40625 5.171875 
L 45.40625 9.625 
Q 42.625 4.78125 38.28125 2.390625 
Q 33.9375 0 27.875 0 
Q 17.828125 0 11.671875 7.65625 
Q 5.515625 15.328125 5.515625 27.984375 
Q 5.515625 40.671875 11.671875 48.328125 
Q 17.828125 56 27.875 56 
Q 33.9375 56 38.28125 53.609375 
Q 42.625 51.21875 45.40625 46.390625 
L 45.40625 54.6875 
L 54.390625 54.6875 
z
" id="BitstreamVeraSans-Roman-67"/>
      <path d="M 34.28125 27.484375 
Q 23.390625 27.484375 19.1875 25 
Q 14.984375 22.515625 14.984375 16.5 
Q 14.984375 11.71875 18.140625 8.90625 
Q 21.296875 6.109375 26.703125 6.109375 
Q 34.1875 6.109375 38.703125 11.40625 
Q 43.21875 16.703125 43.21875 25.484375 
L 43.21875 27.484375 
z
M 52.203125 31.203125 
L 52.203125 0 
L 43.21875 0 
L 43.21875 8.296875 
Q 40.140625 3.328125 35.546875 0.953125 
Q 30.953125 -1.421875 24.3125 -1.421875 
Q 15.921875 -1.421875 10.953125 3.296875 
Q 6 8.015625 6 15.921875 
Q 6 25.140625 12.171875 29.828125 
Q 18.359375 34.515625 30.609375 34.515625 
L 43.21875 34.515625 
L 43.21875 35.40625 
Q 43.21875 41.609375 39.140625 45 
Q 35.0625 48.390625 27.6875 48.390625 
Q 23 48.390625 18.546875 47.265625 
Q 14.109375 46.140625 10.015625 43.890625 
L 10.015625 52.203125 
Q 14.9375 54.109375 19.578125 55.046875 
Q 24.21875 56 28.609375 56 
Q 40.484375 56 46.34375 49.84375 
Q 52.203125 43.703125 52.203125 31.203125 
" id="BitstreamVeraSans-Roman-61"/>
      <path d="M 54.890625 33.015625 
L 54.890625 0 
L 45.90625 0 
L 45.90625 32.71875 
Q 45.90625 40.484375 42.875 44.328125 
Q 39.84375 48.1875 33.796875 48.1875 
Q 26.515625 48.1875 22.3125 43.546875 
Q 18.109375 38.921875 18.109375 30.90625 
L 18.109375 0 
L 9.078125 0 
L 9.078125 54.6875 
L 18.109375 54.6875 
L 18.109375 46.1875 
Q 21.34375 51.125 25.703125 53.5625 
Q 30.078125 56 35.796875 56 
Q 45.21875 56 50.046875 50.171875 
Q 54.890625 44.34375 54.890625 33.015625 
" id="BitstreamVeraSans-Roman-6e"/>
      <path d="M 30.609375 48.390625 
Q 23.390625 48.390625 19.1875 42.75 
Q 14.984375 37.109375 14.984375 27.296875 
Q 14.984375 17.484375 19.15625 11.84375 
Q 23.34375 6.203125 30.609375 6.203125 
Q 37.796875 6.203125 41.984375 11.859375 
Q 46.1875 17.53125 46.1875 27.296875 
Q 46.1875 37.015625 41.984375 42.703125 
Q 37.796875 48.390625 30.609375 48.390625 
M 30.609375 56 
Q 42.328125 56 49.015625 48.375 
Q 55.71875 40.765625 55.71875 27.296875 
Q 55.71875 13.875 49.015625 6.21875 
Q 42.328125 -1.421875 30.609375 -1.421875 
Q 18.84375 -1.421875 12.171875 6.21875 
Q 5.515625 13.875 5.515625 27.296875 
Q 5.515625 40.765625 12.171875 48.375 
Q 18.84375 56 30.609375 56 
" id="BitstreamVeraSans-Roman-6f"/>
      <path d="M 9.421875 75.984375 
L 18.40625 75.984375 
L 18.40625 0 
L 9.421875 0 
z
" id="BitstreamVeraSans-Roman-6c"/>
      <path d="M 9.421875 54.6875 
L 18.40625 54.6875 
L 18.40625 0 
L 9.421875 0 
z
M 9.421875 75.984375 
L 18.40625 75.984375 
L 18.40625 64.59375 
L 9.421875 64.59375 
z
" id="BitstreamVeraSans-Roman-69"/>
      <path d="M 41.109375 46.296875 
Q 39.59375 47.171875 37.8125 47.578125 
Q 36.03125 48 33.890625 48 
Q 26.265625 48 22.1875 43.046875 
Q 18.109375 38.09375 18.109375 28.8125 
L 18.109375 0 
L 9.078125 0 
L 9.078125 54.6875 
L 18.109375 54.6875 
L 18.109375 46.1875 
Q 20.953125 51.171875 25.484375 53.578125 
Q 30.03125 56 36.53125 56 
Q 37.453125 56 38.578125 55.875 
Q 39.703125 55.765625 41.0625 55.515625 
z
" id="BitstreamVeraSans-Roman-72"/>
     </defs>
     <g transform="translate(218.0990625 398.473625)scale(0.12 -0.12)">
      <use xlink:href="#BitstreamVeraSans-Roman-6e"/>
      <use x="63.37890625" xlink:href="#BitstreamVeraSans-Roman-6f"/>
      <use x="124.560546875" xlink:href="#BitstreamVeraSans-Roman-72"/>
      <use x="165.658203125" xlink:href="#BitstreamVeraSans-Roman-6d"/>
      <use x="263.0703125" xlink:href="#BitstreamVeraSans-Roman-61"/>
      <use x="324.349609375" xlink:href="#BitstreamVeraSans-Roman-6c"/>
      <use x="352.1328125" xlink:href="#BitstreamVeraSans-Roman-69"/>
      <use x="379.916015625" xlink:href="#BitstreamVeraSans-Roman-7a"/>
      <use x="432.40625" xlink:href="#BitstreamVeraSans-Roman-65"/>
      <use x="493.9296875" xlink:href="#BitstreamVeraSans-Roman-64"/>
      <use x="557.40625" xlink:href="#BitstreamVeraSans-Roman-20"/>
      <use x="589.193359375" xlink:href="#BitstreamVeraSans-Roman-61"/>
      <use x="650.47265625" xlink:href="#BitstreamVeraSans-Roman-6e"/>
      <use x="713.8515625" xlink:href="#BitstreamVeraSans-Roman-67"/>
      <use x="777.328125" xlink:href="#BitstreamVeraSans-Roman-6c"/>
      <use x="805.111328125" xlink:href="#BitstreamVeraSans-Roman-65"/>
     </g>
    </g>
   </g>
   <g id="matplotlib.axis_2">
    <g id="ytick_1">
     <g id="line2d_21">
      <defs>
       <path d="M 0 0 
L 4 0 
" id="mddcfedb7cb" style="stroke:#000000;stroke-width:0.5;"/>
      </defs>
      <g>
       <use style="stroke:#000000;stroke-width:0.5;" x="46.8975" xlink:href="#mddcfedb7cb" y="368.74175"/>
      </g>
     </g>
     <g id="line2d_22">
      <defs>
       <path d="M 0 0 
L -4 0 
" id="m849f65e1fb" style="stroke:#000000;stroke-width:0.5;"/>
      </defs>
      <g>
       <use style="stroke:#000000;stroke-width:0.5;" x="493.2975" xlink:href="#m849f65e1fb" y="368.74175"/>
      </g>
     </g>
     <g id="text_12">
      <!-- 5.0 -->
      <g transform="translate(23.81375 372.053)scale(0.12 -0.12)">
       <use xlink:href="#BitstreamVeraSans-Roman-35"/>
       <use x="63.623046875" xlink:href="#BitstreamVeraSans-Roman-2e"/>
       <use x="95.41015625" xlink:href="#BitstreamVeraSans-Roman-30"/>
      </g>
     </g>
    </g>
    <g id="ytick_2">
     <g id="line2d_23">
      <g>
       <use style="stroke:#000000;stroke-width:0.5;" x="46.8975" xlink:href="#mddcfedb7cb" y="319.370321429"/>
      </g>
     </g>
     <g id="line2d_24">
      <g>
       <use style="stroke:#000000;stroke-width:0.5;" x="493.2975" xlink:href="#m849f65e1fb" y="319.370321429"/>
      </g>
     </g>
     <g id="text_13">
      <!-- 5.5 -->
      <g transform="translate(23.81375 322.681571429)scale(0.12 -0.12)">
       <use xlink:href="#BitstreamVeraSans-Roman-35"/>
       <use x="63.623046875" xlink:href="#BitstreamVeraSans-Roman-2e"/>
       <use x="95.41015625" xlink:href="#BitstreamVeraSans-Roman-35"/>
      </g>
     </g>
    </g>
    <g id="ytick_3">
     <g id="line2d_25">
      <g>
       <use style="stroke:#000000;stroke-width:0.5;" x="46.8975" xlink:href="#mddcfedb7cb" y="269.998892857"/>
      </g>
     </g>
     <g id="line2d_26">
      <g>
       <use style="stroke:#000000;stroke-width:0.5;" x="493.2975" xlink:href="#m849f65e1fb" y="269.998892857"/>
      </g>
     </g>
     <g id="text_14">
      <!-- 6.0 -->
      <g transform="translate(23.81375 273.310142857)scale(0.12 -0.12)">
       <use xlink:href="#BitstreamVeraSans-Roman-36"/>
       <use x="63.623046875" xlink:href="#BitstreamVeraSans-Roman-2e"/>
       <use x="95.41015625" xlink:href="#BitstreamVeraSans-Roman-30"/>
      </g>
     </g>
    </g>
    <g id="ytick_4">
     <g id="line2d_27">
      <g>
       <use style="stroke:#000000;stroke-width:0.5;" x="46.8975" xlink:href="#mddcfedb7cb" y="220.627464286"/>
      </g>
     </g>
     <g id="line2d_28">
      <g>
       <use style="stroke:#000000;stroke-width:0.5;" x="493.2975" xlink:href="#m849f65e1fb" y="220.627464286"/>
      </g>
     </g>
     <g id="text_15">
      <!-- 6.5 -->
      <g transform="translate(23.81375 223.938714286)scale(0.12 -0.12)">
       <use xlink:href="#BitstreamVeraSans-Roman-36"/>
       <use x="63.623046875" xlink:href="#BitstreamVeraSans-Roman-2e"/>
       <use x="95.41015625" xlink:href="#BitstreamVeraSans-Roman-35"/>
      </g>
     </g>
    </g>
    <g id="ytick_5">
     <g id="line2d_29">
      <g>
       <use style="stroke:#000000;stroke-width:0.5;" x="46.8975" xlink:href="#mddcfedb7cb" y="171.256035714"/>
      </g>
     </g>
     <g id="line2d_30">
      <g>
       <use style="stroke:#000000;stroke-width:0.5;" x="493.2975" xlink:href="#m849f65e1fb" y="171.256035714"/>
      </g>
     </g>
     <g id="text_16">
      <!-- 7.0 -->
      <defs>
       <path d="M 8.203125 72.90625 
L 55.078125 72.90625 
L 55.078125 68.703125 
L 28.609375 0 
L 18.3125 0 
L 43.21875 64.59375 
L 8.203125 64.59375 
z
" id="BitstreamVeraSans-Roman-37"/>
      </defs>
      <g transform="translate(23.81375 174.567285714)scale(0.12 -0.12)">
       <use xlink:href="#BitstreamVeraSans-Roman-37"/>
       <use x="63.623046875" xlink:href="#BitstreamVeraSans-Roman-2e"/>
       <use x="95.41015625" xlink:href="#BitstreamVeraSans-Roman-30"/>
      </g>
     </g>
    </g>
    <g id="ytick_6">
     <g id="line2d_31">
      <g>
       <use style="stroke:#000000;stroke-width:0.5;" x="46.8975" xlink:href="#mddcfedb7cb" y="121.884607143"/>
      </g>
     </g>
     <g id="line2d_32">
      <g>
       <use style="stroke:#000000;stroke-width:0.5;" x="493.2975" xlink:href="#m849f65e1fb" y="121.884607143"/>
      </g>
     </g>
     <g id="text_17">
      <!-- 7.5 -->
      <g transform="translate(23.81375 125.195857143)scale(0.12 -0.12)">
       <use xlink:href="#BitstreamVeraSans-Roman-37"/>
       <use x="63.623046875" xlink:href="#BitstreamVeraSans-Roman-2e"/>
       <use x="95.41015625" xlink:href="#BitstreamVeraSans-Roman-35"/>
      </g>
     </g>
    </g>
    <g id="ytick_7">
     <g id="line2d_33">
      <g>
       <use style="stroke:#000000;stroke-width:0.5;" x="46.8975" xlink:href="#mddcfedb7cb" y="72.5131785714"/>
      </g>
     </g>
     <g id="line2d_34">
      <g>
       <use style="stroke:#000000;stroke-width:0.5;" x="493.2975" xlink:href="#m849f65e1fb" y="72.5131785714"/>
      </g>
     </g>
     <g id="text_18">
      <!-- 8.0 -->
      <g transform="translate(23.81375 75.8244285714)scale(0.12 -0.12)">
       <use xlink:href="#BitstreamVeraSans-Roman-38"/>
       <use x="63.623046875" xlink:href="#BitstreamVeraSans-Roman-2e"/>
       <use x="95.41015625" xlink:href="#BitstreamVeraSans-Roman-30"/>
      </g>
     </g>
    </g>
    <g id="ytick_8">
     <g id="line2d_35">
      <g>
       <use style="stroke:#000000;stroke-width:0.5;" x="46.8975" xlink:href="#mddcfedb7cb" y="23.14175"/>
      </g>
     </g>
     <g id="line2d_36">
      <g>
       <use style="stroke:#000000;stroke-width:0.5;" x="493.2975" xlink:href="#m849f65e1fb" y="23.14175"/>
      </g>
     </g>
     <g id="text_19">
      <!-- 8.5 -->
      <g transform="translate(23.81375 26.453)scale(0.12 -0.12)">
       <use xlink:href="#BitstreamVeraSans-Roman-38"/>
       <use x="63.623046875" xlink:href="#BitstreamVeraSans-Roman-2e"/>
       <use x="95.41015625" xlink:href="#BitstreamVeraSans-Roman-35"/>
      </g>
     </g>
    </g>
    <g id="text_20">
     <!-- max Q-value -->
     <defs>
      <path d="M 2.984375 54.6875 
L 12.5 54.6875 
L 29.59375 8.796875 
L 46.6875 54.6875 
L 56.203125 54.6875 
L 35.6875 0 
L 23.484375 0 
z
" id="BitstreamVeraSans-Roman-76"/>
      <path d="M 4.890625 31.390625 
L 31.203125 31.390625 
L 31.203125 23.390625 
L 4.890625 23.390625 
z
" id="BitstreamVeraSans-Roman-2d"/>
      <path d="M 39.40625 66.21875 
Q 28.65625 66.21875 22.328125 58.203125 
Q 16.015625 50.203125 16.015625 36.375 
Q 16.015625 22.609375 22.328125 14.59375 
Q 28.65625 6.59375 39.40625 6.59375 
Q 50.140625 6.59375 56.421875 14.59375 
Q 62.703125 22.609375 62.703125 36.375 
Q 62.703125 50.203125 56.421875 58.203125 
Q 50.140625 66.21875 39.40625 66.21875 
M 53.21875 1.3125 
L 66.21875 -12.890625 
L 54.296875 -12.890625 
L 43.5 -1.21875 
Q 41.890625 -1.3125 41.03125 -1.359375 
Q 40.1875 -1.421875 39.40625 -1.421875 
Q 24.03125 -1.421875 14.8125 8.859375 
Q 5.609375 19.140625 5.609375 36.375 
Q 5.609375 53.65625 14.8125 63.9375 
Q 24.03125 74.21875 39.40625 74.21875 
Q 54.734375 74.21875 63.90625 63.9375 
Q 73.09375 53.65625 73.09375 36.375 
Q 73.09375 23.6875 67.984375 14.640625 
Q 62.890625 5.609375 53.21875 1.3125 
" id="BitstreamVeraSans-Roman-51"/>
      <path d="M 8.5 21.578125 
L 8.5 54.6875 
L 17.484375 54.6875 
L 17.484375 21.921875 
Q 17.484375 14.15625 20.5 10.265625 
Q 23.53125 6.390625 29.59375 6.390625 
Q 36.859375 6.390625 41.078125 11.03125 
Q 45.3125 15.671875 45.3125 23.6875 
L 45.3125 54.6875 
L 54.296875 54.6875 
L 54.296875 0 
L 45.3125 0 
L 45.3125 8.40625 
Q 42.046875 3.421875 37.71875 1 
Q 33.40625 -1.421875 27.6875 -1.421875 
Q 18.265625 -1.421875 13.375 4.4375 
Q 8.5 10.296875 8.5 21.578125 
" id="BitstreamVeraSans-Roman-75"/>
      <path d="M 54.890625 54.6875 
L 35.109375 28.078125 
L 55.90625 0 
L 45.3125 0 
L 29.390625 21.484375 
L 13.484375 0 
L 2.875 0 
L 24.125 28.609375 
L 4.6875 54.6875 
L 15.28125 54.6875 
L 29.78125 35.203125 
L 44.28125 54.6875 
z
" id="BitstreamVeraSans-Roman-78"/>
     </defs>
     <g transform="translate(16.318125 234.1983125)rotate(-90.0)scale(0.12 -0.12)">
      <use xlink:href="#BitstreamVeraSans-Roman-6d"/>
      <use x="97.412109375" xlink:href="#BitstreamVeraSans-Roman-61"/>
      <use x="158.69140625" xlink:href="#BitstreamVeraSans-Roman-78"/>
      <use x="217.87109375" xlink:href="#BitstreamVeraSans-Roman-20"/>
      <use x="249.658203125" xlink:href="#BitstreamVeraSans-Roman-51"/>
      <use x="328.400390625" xlink:href="#BitstreamVeraSans-Roman-2d"/>
      <use x="364.453125" xlink:href="#BitstreamVeraSans-Roman-76"/>
      <use x="423.6328125" xlink:href="#BitstreamVeraSans-Roman-61"/>
      <use x="484.912109375" xlink:href="#BitstreamVeraSans-Roman-6c"/>
      <use x="512.6953125" xlink:href="#BitstreamVeraSans-Roman-75"/>
      <use x="576.07421875" xlink:href="#BitstreamVeraSans-Roman-65"/>
     </g>
    </g>
   </g>
   <g id="text_21">
    <!-- Max Q-values for angles observed, joint1 -->
    <defs>
     <path d="M 9.8125 72.90625 
L 24.515625 72.90625 
L 43.109375 23.296875 
L 61.8125 72.90625 
L 76.515625 72.90625 
L 76.515625 0 
L 66.890625 0 
L 66.890625 64.015625 
L 48.09375 14.015625 
L 38.1875 14.015625 
L 19.390625 64.015625 
L 19.390625 0 
L 9.8125 0 
z
" id="BitstreamVeraSans-Roman-4d"/>
     <path d="M 12.40625 8.296875 
L 28.515625 8.296875 
L 28.515625 63.921875 
L 10.984375 60.40625 
L 10.984375 69.390625 
L 28.421875 72.90625 
L 38.28125 72.90625 
L 38.28125 8.296875 
L 54.390625 8.296875 
L 54.390625 0 
L 12.40625 0 
z
" id="BitstreamVeraSans-Roman-31"/>
     <path d="M 48.6875 27.296875 
Q 48.6875 37.203125 44.609375 42.84375 
Q 40.53125 48.484375 33.40625 48.484375 
Q 26.265625 48.484375 22.1875 42.84375 
Q 18.109375 37.203125 18.109375 27.296875 
Q 18.109375 17.390625 22.1875 11.75 
Q 26.265625 6.109375 33.40625 6.109375 
Q 40.53125 6.109375 44.609375 11.75 
Q 48.6875 17.390625 48.6875 27.296875 
M 18.109375 46.390625 
Q 20.953125 51.265625 25.265625 53.625 
Q 29.59375 56 35.59375 56 
Q 45.5625 56 51.78125 48.09375 
Q 58.015625 40.1875 58.015625 27.296875 
Q 58.015625 14.40625 51.78125 6.484375 
Q 45.5625 -1.421875 35.59375 -1.421875 
Q 29.59375 -1.421875 25.265625 0.953125 
Q 20.953125 3.328125 18.109375 8.203125 
L 18.109375 0 
L 9.078125 0 
L 9.078125 75.984375 
L 18.109375 75.984375 
z
" id="BitstreamVeraSans-Roman-62"/>
     <path d="M 18.3125 70.21875 
L 18.3125 54.6875 
L 36.8125 54.6875 
L 36.8125 47.703125 
L 18.3125 47.703125 
L 18.3125 18.015625 
Q 18.3125 11.328125 20.140625 9.421875 
Q 21.96875 7.515625 27.59375 7.515625 
L 36.8125 7.515625 
L 36.8125 0 
L 27.59375 0 
Q 17.1875 0 13.234375 3.875 
Q 9.28125 7.765625 9.28125 18.015625 
L 9.28125 47.703125 
L 2.6875 47.703125 
L 2.6875 54.6875 
L 9.28125 54.6875 
L 9.28125 70.21875 
z
" id="BitstreamVeraSans-Roman-74"/>
     <path d="M 37.109375 75.984375 
L 37.109375 68.5 
L 28.515625 68.5 
Q 23.6875 68.5 21.796875 66.546875 
Q 19.921875 64.59375 19.921875 59.515625 
L 19.921875 54.6875 
L 34.71875 54.6875 
L 34.71875 47.703125 
L 19.921875 47.703125 
L 19.921875 0 
L 10.890625 0 
L 10.890625 47.703125 
L 2.296875 47.703125 
L 2.296875 54.6875 
L 10.890625 54.6875 
L 10.890625 58.5 
Q 10.890625 67.625 15.140625 71.796875 
Q 19.390625 75.984375 28.609375 75.984375 
z
" id="BitstreamVeraSans-Roman-66"/>
     <path d="M 11.71875 12.40625 
L 22.015625 12.40625 
L 22.015625 4 
L 14.015625 -11.625 
L 7.71875 -11.625 
L 11.71875 4 
z
" id="BitstreamVeraSans-Roman-2c"/>
     <path d="M 9.421875 54.6875 
L 18.40625 54.6875 
L 18.40625 -0.984375 
Q 18.40625 -11.421875 14.421875 -16.109375 
Q 10.453125 -20.796875 1.609375 -20.796875 
L -1.8125 -20.796875 
L -1.8125 -13.1875 
L 0.59375 -13.1875 
Q 5.71875 -13.1875 7.5625 -10.8125 
Q 9.421875 -8.453125 9.421875 -0.984375 
z
M 9.421875 75.984375 
L 18.40625 75.984375 
L 18.40625 64.59375 
L 9.421875 64.59375 
z
" id="BitstreamVeraSans-Roman-6a"/>
     <path d="M 44.28125 53.078125 
L 44.28125 44.578125 
Q 40.484375 46.53125 36.375 47.5 
Q 32.28125 48.484375 27.875 48.484375 
Q 21.1875 48.484375 17.84375 46.4375 
Q 14.5 44.390625 14.5 40.28125 
Q 14.5 37.15625 16.890625 35.375 
Q 19.28125 33.59375 26.515625 31.984375 
L 29.59375 31.296875 
Q 39.15625 29.25 43.1875 25.515625 
Q 47.21875 21.78125 47.21875 15.09375 
Q 47.21875 7.46875 41.1875 3.015625 
Q 35.15625 -1.421875 24.609375 -1.421875 
Q 20.21875 -1.421875 15.453125 -0.5625 
Q 10.6875 0.296875 5.421875 2 
L 5.421875 11.28125 
Q 10.40625 8.6875 15.234375 7.390625 
Q 20.0625 6.109375 24.8125 6.109375 
Q 31.15625 6.109375 34.5625 8.28125 
Q 37.984375 10.453125 37.984375 14.40625 
Q 37.984375 18.0625 35.515625 20.015625 
Q 33.0625 21.96875 24.703125 23.78125 
L 21.578125 24.515625 
Q 13.234375 26.265625 9.515625 29.90625 
Q 5.8125 33.546875 5.8125 39.890625 
Q 5.8125 47.609375 11.28125 51.796875 
Q 16.75 56 26.8125 56 
Q 31.78125 56 36.171875 55.265625 
Q 40.578125 54.546875 44.28125 53.078125 
" id="BitstreamVeraSans-Roman-73"/>
    </defs>
    <g transform="translate(122.41875 18.14175)scale(0.144 -0.144)">
     <use xlink:href="#BitstreamVeraSans-Roman-4d"/>
     <use x="86.279296875" xlink:href="#BitstreamVeraSans-Roman-61"/>
     <use x="147.55859375" xlink:href="#BitstreamVeraSans-Roman-78"/>
     <use x="206.73828125" xlink:href="#BitstreamVeraSans-Roman-20"/>
     <use x="238.525390625" xlink:href="#BitstreamVeraSans-Roman-51"/>
     <use x="317.267578125" xlink:href="#BitstreamVeraSans-Roman-2d"/>
     <use x="353.3203125" xlink:href="#BitstreamVeraSans-Roman-76"/>
     <use x="412.5" xlink:href="#BitstreamVeraSans-Roman-61"/>
     <use x="473.779296875" xlink:href="#BitstreamVeraSans-Roman-6c"/>
     <use x="501.5625" xlink:href="#BitstreamVeraSans-Roman-75"/>
     <use x="564.94140625" xlink:href="#BitstreamVeraSans-Roman-65"/>
     <use x="626.46484375" xlink:href="#BitstreamVeraSans-Roman-73"/>
     <use x="678.564453125" xlink:href="#BitstreamVeraSans-Roman-20"/>
     <use x="710.3515625" xlink:href="#BitstreamVeraSans-Roman-66"/>
     <use x="745.556640625" xlink:href="#BitstreamVeraSans-Roman-6f"/>
     <use x="806.73828125" xlink:href="#BitstreamVeraSans-Roman-72"/>
     <use x="847.8515625" xlink:href="#BitstreamVeraSans-Roman-20"/>
     <use x="879.638671875" xlink:href="#BitstreamVeraSans-Roman-61"/>
     <use x="940.91796875" xlink:href="#BitstreamVeraSans-Roman-6e"/>
     <use x="1004.296875" xlink:href="#BitstreamVeraSans-Roman-67"/>
     <use x="1067.7734375" xlink:href="#BitstreamVeraSans-Roman-6c"/>
     <use x="1095.556640625" xlink:href="#BitstreamVeraSans-Roman-65"/>
     <use x="1157.080078125" xlink:href="#BitstreamVeraSans-Roman-73"/>
     <use x="1209.1796875" xlink:href="#BitstreamVeraSans-Roman-20"/>
     <use x="1240.966796875" xlink:href="#BitstreamVeraSans-Roman-6f"/>
     <use x="1302.1484375" xlink:href="#BitstreamVeraSans-Roman-62"/>
     <use x="1365.625" xlink:href="#BitstreamVeraSans-Roman-73"/>
     <use x="1417.724609375" xlink:href="#BitstreamVeraSans-Roman-65"/>
     <use x="1479.248046875" xlink:href="#BitstreamVeraSans-Roman-72"/>
     <use x="1520.361328125" xlink:href="#BitstreamVeraSans-Roman-76"/>
     <use x="1579.541015625" xlink:href="#BitstreamVeraSans-Roman-65"/>
     <use x="1641.064453125" xlink:href="#BitstreamVeraSans-Roman-64"/>
     <use x="1704.541015625" xlink:href="#BitstreamVeraSans-Roman-2c"/>
     <use x="1736.328125" xlink:href="#BitstreamVeraSans-Roman-20"/>
     <use x="1768.115234375" xlink:href="#BitstreamVeraSans-Roman-6a"/>
     <use x="1795.8984375" xlink:href="#BitstreamVeraSans-Roman-6f"/>
     <use x="1857.080078125" xlink:href="#BitstreamVeraSans-Roman-69"/>
     <use x="1884.86328125" xlink:href="#BitstreamVeraSans-Roman-6e"/>
     <use x="1948.2421875" xlink:href="#BitstreamVeraSans-Roman-74"/>
     <use x="1987.451171875" xlink:href="#BitstreamVeraSans-Roman-31"/>
    </g>
   </g>
  </g>
 </g>
 <defs>
  <clipPath id="pd2154f8949">
   <rect height="345.6" width="446.4" x="46.8975" y="23.14175"/>
  </clipPath>
 </defs>
</svg>
