<?xml version="1.0" encoding="utf-8" standalone="no"?>
<!DOCTYPE svg PUBLIC "-//W3C//DTD SVG 1.1//EN"
  "http://www.w3.org/Graphics/SVG/1.1/DTD/svg11.dtd">
<!-- Created with matplotlib (http://matplotlib.org/) -->
<svg height="408pt" version="1.1" viewBox="0 0 511 408" width="511pt" xmlns="http://www.w3.org/2000/svg" xmlns:xlink="http://www.w3.org/1999/xlink">
 <defs>
  <style type="text/css">
*{stroke-linecap:butt;stroke-linejoin:round;stroke-miterlimit:100000;}
  </style>
 </defs>
 <g id="figure_1">
  <g id="patch_1">
   <path d="M 0 408.16925 
L 511.95 408.16925 
L 511.95 0 
L 0 0 
z
" style="fill:#ffffff;"/>
  </g>
  <g id="axes_1">
   <g id="patch_2">
    <path d="M 46.8975 368.74175 
L 493.2975 368.74175 
L 493.2975 23.14175 
L 46.8975 23.14175 
z
" style="fill:#ffffff;"/>
   </g>
   <g id="line2d_1">
    <path clip-path="url(#p438e77f2ce)" d="M 47.6415 188.280725 
L 48.3855 177.697411 
L 49.1295 173.203636 
L 49.8735 207.730622 
L 50.6175 184.621857 
L 51.3615 180.801068 
L 52.1055 203.124238 
L 52.8495 128.103054 
L 53.5935 189.722199 
L 54.3375 183.799586 
L 55.0815 207.667192 
L 55.8255 196.280633 
L 56.5695 166.675849 
L 57.3135 167.010927 
L 58.0575 176.884174 
L 58.8015 179.861321 
L 59.5455 224.537514 
L 60.2895 185.613737 
L 61.0335 183.975619 
L 61.7775 167.591059 
L 62.5215 208.568774 
L 63.2655 177.3084 
L 64.0095 196.661185 
L 64.7535 198.066634 
L 65.4975 199.010238 
L 66.2415 187.178001 
L 66.9855 163.621755 
L 67.7295 163.801072 
L 68.4735 196.364519 
L 69.2175 204.253317 
L 69.9615 181.308491 
L 70.7055 191.120702 
L 71.4495 190.983752 
L 72.1935 216.043477 
L 72.9375 171.418634 
L 73.6815 205.372364 
L 74.4255 176.789635 
L 75.1695 214.886388 
L 75.9135 184.779779 
L 76.6575 159.650909 
L 77.4015 183.904541 
L 78.1455 220.010099 
L 78.8895 195.614836 
L 79.6335 179.447306 
L 80.3775 175.204037 
L 81.1215 198.747652 
L 81.8655 179.872738 
L 82.6095 173.973564 
L 83.3535 220.352534 
L 84.8415 180.654351 
L 85.5855 189.074632 
L 86.3295 140.905212 
L 87.0735 206.079795 
L 87.8175 197.267968 
L 88.5615 186.275756 
L 89.3055 202.488209 
L 90.0495 204.467177 
L 90.7935 204.958073 
L 91.5375 212.425394 
L 92.2815 129.947235 
L 93.0255 204.435756 
L 93.7695 178.919129 
L 94.5135 202.074341 
L 95.2575 248.125623 
L 96.0015 174.102452 
L 96.7455 193.288586 
L 97.4895 172.22248 
L 98.2335 211.417763 
L 98.9775 158.967889 
L 99.7215 140.323411 
L 100.4655 158.931118 
L 101.2095 182.02187 
L 101.9535 137.98885 
L 102.6975 184.270032 
L 103.4415 209.137835 
L 104.1855 175.671289 
L 105.6735 195.286702 
L 106.4175 190.188771 
L 107.1615 202.541746 
L 107.9055 170.514825 
L 108.6495 192.213314 
L 109.3935 198.278783 
L 110.1375 148.001816 
L 110.8815 214.275715 
L 111.6255 217.864234 
L 112.3695 215.43548 
L 113.1135 169.042193 
L 113.8575 193.344829 
L 114.6015 149.182996 
L 115.3455 221.369079 
L 116.0895 218.789793 
L 116.8335 187.856226 
L 117.5775 205.202887 
L 118.3215 175.265604 
L 119.0655 183.609875 
L 119.8095 185.039492 
L 120.5535 216.659041 
L 121.2975 213.494961 
L 122.0415 218.986831 
L 122.7855 210.890563 
L 123.5295 148.529143 
L 124.2735 209.859404 
L 125.0175 171.720803 
L 125.7615 207.059142 
L 126.5055 196.574008 
L 127.2495 212.970549 
L 127.9935 169.470445 
L 128.7375 232.141743 
L 129.4815 212.669563 
L 130.2255 145.281548 
L 130.9695 201.470485 
L 131.7135 201.141736 
L 132.4575 169.435307 
L 133.9455 215.421078 
L 134.6895 202.839215 
L 135.4335 179.708941 
L 136.1775 196.599696 
L 136.9215 175.560487 
L 137.6655 198.629514 
L 138.4095 189.588254 
L 139.1535 184.832652 
L 139.8975 218.373218 
L 140.6415 170.248924 
L 141.3855 217.865623 
L 142.1295 192.080123 
L 142.8735 188.946377 
L 143.6175 221.761491 
L 144.3615 209.817855 
L 145.1055 180.04067 
L 145.8495 198.391286 
L 146.5935 177.253611 
L 147.3375 159.502799 
L 148.0815 200.478332 
L 148.8255 177.640026 
L 149.5695 205.950497 
L 150.3135 202.670581 
L 151.0575 178.168254 
L 152.5455 192.436596 
L 153.2895 180.461365 
L 154.0335 185.073733 
L 154.7775 165.091778 
L 155.5215 171.140266 
L 156.2655 156.434666 
L 157.0095 189.563277 
L 157.7535 182.4221 
L 158.4975 186.520001 
L 159.2415 184.069409 
L 159.9855 182.251741 
L 160.7295 152.343843 
L 161.4735 222.950808 
L 162.2175 216.93986 
L 162.9615 205.990785 
L 163.7055 230.759725 
L 164.4495 248.902145 
L 165.1935 206.449204 
L 166.6815 151.723426 
L 167.4255 204.948938 
L 168.1695 148.576213 
L 168.9135 208.368731 
L 169.6575 187.576575 
L 170.4015 151.846537 
L 171.1455 190.021606 
L 171.8895 187.489597 
L 172.6335 177.809639 
L 173.3775 141.202003 
L 174.1215 173.698108 
L 174.8655 158.354025 
L 175.6095 180.57372 
L 176.3535 212.909264 
L 177.0975 188.135398 
L 177.8415 204.818436 
L 178.5855 178.752487 
L 179.3295 137.99908 
L 180.0735 201.114967 
L 180.8175 143.507006 
L 181.5615 160.228836 
L 182.3055 226.359398 
L 183.0495 165.549781 
L 183.7935 137.739869 
L 184.5375 178.170017 
L 185.2815 195.654986 
L 186.0255 208.429933 
L 187.5135 172.879134 
L 188.2575 211.487781 
L 189.0015 130.580906 
L 189.7455 172.357239 
L 190.4895 188.980803 
L 191.2335 175.490526 
L 191.9775 159.274006 
L 192.7215 176.964727 
L 193.4655 184.551343 
L 194.2095 243.460586 
L 194.9535 198.162205 
L 195.6975 192.101871 
L 196.4415 194.585678 
L 197.1855 221.781315 
L 197.9295 132.921762 
L 198.6735 217.372987 
L 199.4175 228.631539 
L 200.1615 215.502424 
L 200.9055 185.560258 
L 201.6495 207.249498 
L 202.3935 176.205375 
L 203.1375 163.231741 
L 203.8815 152.586777 
L 204.6255 186.291545 
L 205.3695 202.098954 
L 206.1135 203.051982 
L 206.8575 218.476593 
L 207.6015 168.768477 
L 208.3455 183.994378 
L 209.0895 221.812341 
L 209.8335 184.539096 
L 210.5775 192.106794 
L 211.3215 214.803213 
L 212.0655 205.274472 
L 212.8095 206.458673 
L 213.5535 173.822437 
L 214.2975 177.93741 
L 215.0415 183.205825 
L 215.7855 203.456871 
L 216.5295 198.594577 
L 217.2735 215.744806 
L 218.0175 186.196957 
L 218.7615 214.034609 
L 219.5055 168.170882 
L 220.2495 208.200842 
L 220.9935 176.050595 
L 221.7375 171.044495 
L 222.4815 193.675423 
L 223.2255 169.49543 
L 223.9695 199.305276 
L 224.7135 167.798835 
L 225.4575 206.951115 
L 226.2015 197.821907 
L 226.9455 170.897959 
L 227.6895 185.08303 
L 228.4335 215.352209 
L 229.1775 196.402135 
L 229.9215 213.134965 
L 230.6655 211.278666 
L 231.4095 198.111107 
L 232.1535 196.072287 
L 232.8975 193.086158 
L 233.6415 167.534136 
L 234.3855 178.386527 
L 235.1295 149.947247 
L 235.8735 179.158272 
L 236.6175 141.058721 
L 237.3615 155.841135 
L 238.1055 219.230664 
L 238.8495 241.63452 
L 239.5935 148.345461 
L 240.3375 196.135559 
L 241.0815 154.90422 
L 241.8255 189.07087 
L 242.5695 196.120064 
L 243.3135 164.090557 
L 244.0575 179.888989 
L 244.8015 235.304423 
L 245.5455 228.681596 
L 247.0335 166.241896 
L 247.7775 147.936805 
L 248.5215 163.944289 
L 249.2655 190.116434 
L 250.0095 164.579249 
L 250.7535 187.133066 
L 251.4975 188.86648 
L 252.2415 181.274118 
L 252.9855 187.076685 
L 253.7295 249.392148 
L 254.4735 165.118308 
L 255.2175 200.294572 
L 255.9615 186.198596 
L 256.7055 188.451047 
L 257.4495 182.818221 
L 258.1935 198.5411 
L 258.9375 183.289439 
L 259.6815 186.271817 
L 260.4255 185.065633 
L 261.1695 168.683955 
L 261.9135 250.215555 
L 262.6575 191.375002 
L 263.4015 193.512082 
L 264.1455 261.908266 
L 264.8895 200.392985 
L 265.6335 211.024599 
L 266.3775 195.503622 
L 267.1215 197.787071 
L 267.8655 183.727259 
L 268.6095 228.61675 
L 269.3535 188.738622 
L 270.0975 196.297781 
L 270.8415 196.508245 
L 271.5855 211.730268 
L 273.0735 188.503925 
L 273.8175 194.92432 
L 274.5615 190.603629 
L 275.3055 195.774719 
L 276.0495 217.356786 
L 276.7935 272.825361 
L 277.5375 191.900643 
L 278.2815 204.464439 
L 279.0255 188.048153 
L 279.7695 282.943025 
L 280.5135 253.865847 
L 281.2575 218.292251 
L 282.0015 216.945717 
L 282.7455 185.34623 
L 283.4895 175.504647 
L 284.2335 220.141916 
L 284.9775 197.200583 
L 285.7215 213.396601 
L 286.4655 181.271292 
L 287.2095 212.071007 
L 287.9535 258.064663 
L 288.6975 195.445627 
L 289.4415 184.444436 
L 290.1855 256.647348 
L 290.9295 174.078503 
L 291.6735 189.900743 
L 292.4175 173.712836 
L 293.1615 191.318549 
L 293.9055 192.678426 
L 294.6495 280.688438 
L 295.3935 222.010907 
L 296.1375 210.46997 
L 296.8815 196.367899 
L 297.6255 190.405992 
L 298.3695 211.164556 
L 299.1135 224.631831 
L 299.8575 200.313696 
L 300.6015 188.576742 
L 301.3455 207.282745 
L 302.0895 183.116979 
L 302.8335 213.45333 
L 303.5775 198.00458 
L 304.3215 221.223218 
L 305.0655 185.978102 
L 305.8095 189.685839 
L 306.5535 192.122145 
L 307.2975 177.579556 
L 308.0415 207.29118 
L 308.7855 231.732569 
L 309.5295 226.192296 
L 310.2735 201.594709 
L 311.0175 249.198249 
L 311.7615 239.364162 
L 312.5055 303.673276 
L 313.2495 247.891416 
L 313.9935 220.433886 
L 314.7375 164.685667 
L 315.4815 193.674203 
L 316.2255 213.205041 
L 316.9695 189.401077 
L 318.4575 223.724362 
L 319.2015 176.350825 
L 319.9455 183.125441 
L 320.6895 183.001214 
L 321.4335 195.14885 
L 322.1775 168.122049 
L 322.9215 191.336365 
L 323.6655 209.397546 
L 324.4095 185.666614 
L 325.1535 175.951216 
L 325.8975 157.635581 
L 326.6415 211.284827 
L 327.3855 173.247788 
L 328.1295 186.061017 
L 328.8735 172.760722 
L 329.6175 224.632456 
L 330.3615 290.264467 
L 331.8495 179.410693 
L 332.5935 285.259307 
L 333.3375 182.391506 
L 334.0815 170.53749 
L 334.8255 224.567845 
L 335.5695 243.377025 
L 336.3135 179.323863 
L 337.0575 232.548155 
L 337.8015 226.751135 
L 339.2895 169.068835 
L 340.0335 187.039267 
L 340.7775 208.967561 
L 341.5215 224.729401 
L 342.2655 216.203929 
L 343.0095 184.988526 
L 343.7535 242.916893 
L 344.4975 219.629044 
L 345.2415 209.748454 
L 345.9855 183.838672 
L 347.4735 227.704086 
L 348.2175 171.643956 
L 348.9615 230.375912 
L 349.7055 264.033609 
L 350.4495 153.669161 
L 351.1935 266.978001 
L 351.9375 241.280812 
L 352.6815 226.533547 
L 353.4255 262.180459 
L 354.1695 212.564481 
L 354.9135 321.448971 
L 355.6575 134.369507 
L 356.4015 205.05764 
L 357.1455 235.44676 
L 357.8895 148.692477 
L 358.6335 179.180373 
L 359.3775 121.99895 
L 360.1215 272.813744 
L 360.8655 163.917636 
L 361.6095 239.677231 
L 362.3535 204.765594 
L 363.0975 210.728294 
L 363.8415 149.387877 
L 364.5855 150.795204 
L 365.3295 212.89494 
L 366.0735 208.417716 
L 366.8175 275.188811 
L 367.5615 212.859503 
L 368.3055 194.362839 
L 369.0495 155.214553 
L 369.7935 258.854441 
L 370.5375 183.852275 
L 371.2815 221.245201 
L 372.0255 180.028694 
L 372.7695 300.248556 
L 373.5135 180.131635 
L 374.2575 172.594449 
L 375.0015 219.036023 
L 375.7455 170.246 
L 376.4895 103.236979 
L 377.2335 128.703672 
L 377.9775 283.806071 
L 379.4655 148.241888 
L 380.2095 165.905598 
L 380.9535 138.416513 
L 381.6975 180.155091 
L 382.4415 282.013351 
L 383.1855 157.087039 
L 383.9295 138.160808 
L 384.6735 214.995829 
L 385.4175 240.78862 
L 386.1615 120.107672 
L 386.9055 144.539707 
L 387.6495 158.914396 
L 388.3935 149.074671 
L 389.1375 150.154081 
L 389.8815 96.761566 
L 390.6255 198.637255 
L 391.3695 134.389385 
L 392.1135 153.947041 
L 392.8575 199.434927 
L 393.6015 279.258224 
L 394.3455 121.816128 
L 395.0895 202.536824 
L 395.8335 193.765314 
L 396.5775 165.297479 
L 397.3215 118.396465 
L 398.0655 104.790721 
L 399.5535 150.112197 
L 400.2975 258.957326 
L 401.0415 163.217308 
L 401.7855 233.836976 
L 402.5295 115.875209 
L 403.2735 119.749894 
L 404.0175 121.548881 
L 404.7615 239.279338 
L 405.5055 113.352212 
L 406.2495 138.267658 
L 407.7375 255.046928 
L 408.4815 91.805714 
L 409.2255 131.40728 
L 409.9695 152.245009 
L 410.7135 119.975613 
L 411.4575 182.473031 
L 412.2015 139.537644 
L 412.9455 113.766271 
L 413.6895 148.466562 
L 414.4335 146.09452 
L 415.1775 252.363731 
L 415.9215 111.736603 
L 416.6655 113.296329 
L 417.4095 124.039568 
L 418.1535 161.732085 
L 418.8975 106.488051 
L 419.6415 100.674121 
L 420.3855 85.638249 
L 421.1295 110.334663 
L 422.6175 127.532312 
L 423.3615 132.923555 
L 424.1055 117.2732 
L 424.8495 175.172475 
L 426.3375 155.053881 
L 427.0815 116.653809 
L 427.8255 204.104787 
L 428.5695 195.220413 
L 429.3135 159.182673 
L 430.0575 172.888538 
L 430.8015 82.920456 
L 431.5455 141.923321 
L 432.2895 108.3296 
L 433.0335 222.459353 
L 433.7775 131.170369 
L 434.5215 97.639852 
L 435.2655 95.148172 
L 436.0095 96.865831 
L 436.7535 132.707831 
L 437.4975 175.463145 
L 438.2415 94.459422 
L 438.9855 85.210534 
L 439.7295 178.814314 
L 440.4735 83.697494 
L 441.2175 278.305403 
L 441.9615 98.891745 
L 442.7055 146.357033 
L 443.4495 84.856609 
L 444.1935 103.132681 
L 444.9375 80.350649 
L 445.6815 93.116827 
L 446.4255 146.382113 
L 447.1695 118.929337 
L 447.9135 166.495997 
L 448.6575 96.953569 
L 449.4015 85.473882 
L 450.1455 165.007874 
L 450.8895 89.313319 
L 451.6335 102.695124 
L 452.3775 113.863493 
L 453.1215 205.807354 
L 453.8655 126.984424 
L 454.6095 117.389357 
L 455.3535 196.131699 
L 456.0975 152.920258 
L 456.8415 81.164618 
L 457.5855 162.870757 
L 458.3295 218.646306 
L 459.0735 96.705733 
L 459.8175 93.309159 
L 460.5615 102.099107 
L 461.3055 122.501426 
L 462.0495 97.620096 
L 462.7935 152.595524 
L 463.5375 90.753103 
L 464.2815 208.082611 
L 465.0255 104.605936 
L 465.7695 129.965506 
L 466.5135 95.723807 
L 467.2575 110.45369 
L 468.0015 212.584694 
L 469.4895 80.243984 
L 470.2335 184.794293 
L 470.9775 199.386697 
L 471.7215 195.793448 
L 472.4655 173.135668 
L 473.2095 72.69711 
L 473.9535 179.108308 
L 474.6975 135.459852 
L 475.4415 118.328559 
L 476.1855 252.381124 
L 476.9295 93.837518 
L 477.6735 148.981075 
L 478.4175 168.779145 
L 479.1615 81.772799 
L 479.9055 112.303917 
L 480.6495 78.41585 
L 481.3935 92.177812 
L 482.1375 117.729608 
L 482.8815 99.259885 
L 483.6255 156.613884 
L 484.3695 102.721516 
L 485.1135 127.374175 
L 485.8575 216.994845 
L 486.6015 79.105325 
L 487.3455 75.721091 
L 488.0895 82.847572 
L 488.8335 206.261189 
L 489.5775 178.469828 
L 490.3215 105.002737 
L 491.0655 70.779794 
L 491.8095 81.562969 
L 492.5535 250.361646 
L 493.2975 173.497284 
L 493.2975 173.497284 
" style="fill:none;stroke:#0000ff;stroke-linecap:square;stroke-width:0.5;"/>
   </g>
   <g id="patch_3">
    <path d="M 46.8975 23.14175 
L 493.2975 23.14175 
" style="fill:none;stroke:#000000;stroke-linecap:square;stroke-linejoin:miter;"/>
   </g>
   <g id="patch_4">
    <path d="M 46.8975 368.74175 
L 493.2975 368.74175 
" style="fill:none;stroke:#000000;stroke-linecap:square;stroke-linejoin:miter;"/>
   </g>
   <g id="patch_5">
    <path d="M 46.8975 368.74175 
L 46.8975 23.14175 
" style="fill:none;stroke:#000000;stroke-linecap:square;stroke-linejoin:miter;"/>
   </g>
   <g id="patch_6">
    <path d="M 493.2975 368.74175 
L 493.2975 23.14175 
" style="fill:none;stroke:#000000;stroke-linecap:square;stroke-linejoin:miter;"/>
   </g>
   <g id="matplotlib.axis_1">
    <g id="xtick_1">
     <g id="line2d_2">
      <defs>
       <path d="M 0 0 
L 0 -4 
" id="m35ecf2a1c4" style="stroke:#000000;stroke-width:0.5;"/>
      </defs>
      <g>
       <use style="stroke:#000000;stroke-width:0.5;" x="46.8975" xlink:href="#m35ecf2a1c4" y="368.74175"/>
      </g>
     </g>
     <g id="line2d_3">
      <defs>
       <path d="M 0 0 
L 0 4 
" id="m9a83f8a604" style="stroke:#000000;stroke-width:0.5;"/>
      </defs>
      <g>
       <use style="stroke:#000000;stroke-width:0.5;" x="46.8975" xlink:href="#m9a83f8a604" y="23.14175"/>
      </g>
     </g>
     <g id="text_1">
      <!-- 0 -->
      <defs>
       <path d="M 31.78125 66.40625 
Q 24.171875 66.40625 20.328125 58.90625 
Q 16.5 51.421875 16.5 36.375 
Q 16.5 21.390625 20.328125 13.890625 
Q 24.171875 6.390625 31.78125 6.390625 
Q 39.453125 6.390625 43.28125 13.890625 
Q 47.125 21.390625 47.125 36.375 
Q 47.125 51.421875 43.28125 58.90625 
Q 39.453125 66.40625 31.78125 66.40625 
M 31.78125 74.21875 
Q 44.046875 74.21875 50.515625 64.515625 
Q 56.984375 54.828125 56.984375 36.375 
Q 56.984375 17.96875 50.515625 8.265625 
Q 44.046875 -1.421875 31.78125 -1.421875 
Q 19.53125 -1.421875 13.0625 8.265625 
Q 6.59375 17.96875 6.59375 36.375 
Q 6.59375 54.828125 13.0625 64.515625 
Q 19.53125 74.21875 31.78125 74.21875 
" id="BitstreamVeraSans-Roman-30"/>
      </defs>
      <g transform="translate(43.08 381.859875)scale(0.12 -0.12)">
       <use xlink:href="#BitstreamVeraSans-Roman-30"/>
      </g>
     </g>
    </g>
    <g id="xtick_2">
     <g id="line2d_4">
      <g>
       <use style="stroke:#000000;stroke-width:0.5;" x="121.2975" xlink:href="#m35ecf2a1c4" y="368.74175"/>
      </g>
     </g>
     <g id="line2d_5">
      <g>
       <use style="stroke:#000000;stroke-width:0.5;" x="121.2975" xlink:href="#m9a83f8a604" y="23.14175"/>
      </g>
     </g>
     <g id="text_2">
      <!-- 100 -->
      <defs>
       <path d="M 12.40625 8.296875 
L 28.515625 8.296875 
L 28.515625 63.921875 
L 10.984375 60.40625 
L 10.984375 69.390625 
L 28.421875 72.90625 
L 38.28125 72.90625 
L 38.28125 8.296875 
L 54.390625 8.296875 
L 54.390625 0 
L 12.40625 0 
z
" id="BitstreamVeraSans-Roman-31"/>
      </defs>
      <g transform="translate(109.845 381.859875)scale(0.12 -0.12)">
       <use xlink:href="#BitstreamVeraSans-Roman-31"/>
       <use x="63.623046875" xlink:href="#BitstreamVeraSans-Roman-30"/>
       <use x="127.24609375" xlink:href="#BitstreamVeraSans-Roman-30"/>
      </g>
     </g>
    </g>
    <g id="xtick_3">
     <g id="line2d_6">
      <g>
       <use style="stroke:#000000;stroke-width:0.5;" x="195.6975" xlink:href="#m35ecf2a1c4" y="368.74175"/>
      </g>
     </g>
     <g id="line2d_7">
      <g>
       <use style="stroke:#000000;stroke-width:0.5;" x="195.6975" xlink:href="#m9a83f8a604" y="23.14175"/>
      </g>
     </g>
     <g id="text_3">
      <!-- 200 -->
      <defs>
       <path d="M 19.1875 8.296875 
L 53.609375 8.296875 
L 53.609375 0 
L 7.328125 0 
L 7.328125 8.296875 
Q 12.9375 14.109375 22.625 23.890625 
Q 32.328125 33.6875 34.8125 36.53125 
Q 39.546875 41.84375 41.421875 45.53125 
Q 43.3125 49.21875 43.3125 52.78125 
Q 43.3125 58.59375 39.234375 62.25 
Q 35.15625 65.921875 28.609375 65.921875 
Q 23.96875 65.921875 18.8125 64.3125 
Q 13.671875 62.703125 7.8125 59.421875 
L 7.8125 69.390625 
Q 13.765625 71.78125 18.9375 73 
Q 24.125 74.21875 28.421875 74.21875 
Q 39.75 74.21875 46.484375 68.546875 
Q 53.21875 62.890625 53.21875 53.421875 
Q 53.21875 48.921875 51.53125 44.890625 
Q 49.859375 40.875 45.40625 35.40625 
Q 44.1875 33.984375 37.640625 27.21875 
Q 31.109375 20.453125 19.1875 8.296875 
" id="BitstreamVeraSans-Roman-32"/>
      </defs>
      <g transform="translate(184.245 381.859875)scale(0.12 -0.12)">
       <use xlink:href="#BitstreamVeraSans-Roman-32"/>
       <use x="63.623046875" xlink:href="#BitstreamVeraSans-Roman-30"/>
       <use x="127.24609375" xlink:href="#BitstreamVeraSans-Roman-30"/>
      </g>
     </g>
    </g>
    <g id="xtick_4">
     <g id="line2d_8">
      <g>
       <use style="stroke:#000000;stroke-width:0.5;" x="270.0975" xlink:href="#m35ecf2a1c4" y="368.74175"/>
      </g>
     </g>
     <g id="line2d_9">
      <g>
       <use style="stroke:#000000;stroke-width:0.5;" x="270.0975" xlink:href="#m9a83f8a604" y="23.14175"/>
      </g>
     </g>
     <g id="text_4">
      <!-- 300 -->
      <defs>
       <path d="M 40.578125 39.3125 
Q 47.65625 37.796875 51.625 33 
Q 55.609375 28.21875 55.609375 21.1875 
Q 55.609375 10.40625 48.1875 4.484375 
Q 40.765625 -1.421875 27.09375 -1.421875 
Q 22.515625 -1.421875 17.65625 -0.515625 
Q 12.796875 0.390625 7.625 2.203125 
L 7.625 11.71875 
Q 11.71875 9.328125 16.59375 8.109375 
Q 21.484375 6.890625 26.8125 6.890625 
Q 36.078125 6.890625 40.9375 10.546875 
Q 45.796875 14.203125 45.796875 21.1875 
Q 45.796875 27.640625 41.28125 31.265625 
Q 36.765625 34.90625 28.71875 34.90625 
L 20.21875 34.90625 
L 20.21875 43.015625 
L 29.109375 43.015625 
Q 36.375 43.015625 40.234375 45.921875 
Q 44.09375 48.828125 44.09375 54.296875 
Q 44.09375 59.90625 40.109375 62.90625 
Q 36.140625 65.921875 28.71875 65.921875 
Q 24.65625 65.921875 20.015625 65.03125 
Q 15.375 64.15625 9.8125 62.3125 
L 9.8125 71.09375 
Q 15.4375 72.65625 20.34375 73.4375 
Q 25.25 74.21875 29.59375 74.21875 
Q 40.828125 74.21875 47.359375 69.109375 
Q 53.90625 64.015625 53.90625 55.328125 
Q 53.90625 49.265625 50.4375 45.09375 
Q 46.96875 40.921875 40.578125 39.3125 
" id="BitstreamVeraSans-Roman-33"/>
      </defs>
      <g transform="translate(258.645 381.859875)scale(0.12 -0.12)">
       <use xlink:href="#BitstreamVeraSans-Roman-33"/>
       <use x="63.623046875" xlink:href="#BitstreamVeraSans-Roman-30"/>
       <use x="127.24609375" xlink:href="#BitstreamVeraSans-Roman-30"/>
      </g>
     </g>
    </g>
    <g id="xtick_5">
     <g id="line2d_10">
      <g>
       <use style="stroke:#000000;stroke-width:0.5;" x="344.4975" xlink:href="#m35ecf2a1c4" y="368.74175"/>
      </g>
     </g>
     <g id="line2d_11">
      <g>
       <use style="stroke:#000000;stroke-width:0.5;" x="344.4975" xlink:href="#m9a83f8a604" y="23.14175"/>
      </g>
     </g>
     <g id="text_5">
      <!-- 400 -->
      <defs>
       <path d="M 37.796875 64.3125 
L 12.890625 25.390625 
L 37.796875 25.390625 
z
M 35.203125 72.90625 
L 47.609375 72.90625 
L 47.609375 25.390625 
L 58.015625 25.390625 
L 58.015625 17.1875 
L 47.609375 17.1875 
L 47.609375 0 
L 37.796875 0 
L 37.796875 17.1875 
L 4.890625 17.1875 
L 4.890625 26.703125 
z
" id="BitstreamVeraSans-Roman-34"/>
      </defs>
      <g transform="translate(333.045 381.859875)scale(0.12 -0.12)">
       <use xlink:href="#BitstreamVeraSans-Roman-34"/>
       <use x="63.623046875" xlink:href="#BitstreamVeraSans-Roman-30"/>
       <use x="127.24609375" xlink:href="#BitstreamVeraSans-Roman-30"/>
      </g>
     </g>
    </g>
    <g id="xtick_6">
     <g id="line2d_12">
      <g>
       <use style="stroke:#000000;stroke-width:0.5;" x="418.8975" xlink:href="#m35ecf2a1c4" y="368.74175"/>
      </g>
     </g>
     <g id="line2d_13">
      <g>
       <use style="stroke:#000000;stroke-width:0.5;" x="418.8975" xlink:href="#m9a83f8a604" y="23.14175"/>
      </g>
     </g>
     <g id="text_6">
      <!-- 500 -->
      <defs>
       <path d="M 10.796875 72.90625 
L 49.515625 72.90625 
L 49.515625 64.59375 
L 19.828125 64.59375 
L 19.828125 46.734375 
Q 21.96875 47.46875 24.109375 47.828125 
Q 26.265625 48.1875 28.421875 48.1875 
Q 40.625 48.1875 47.75 41.5 
Q 54.890625 34.8125 54.890625 23.390625 
Q 54.890625 11.625 47.5625 5.09375 
Q 40.234375 -1.421875 26.90625 -1.421875 
Q 22.3125 -1.421875 17.546875 -0.640625 
Q 12.796875 0.140625 7.71875 1.703125 
L 7.71875 11.625 
Q 12.109375 9.234375 16.796875 8.0625 
Q 21.484375 6.890625 26.703125 6.890625 
Q 35.15625 6.890625 40.078125 11.328125 
Q 45.015625 15.765625 45.015625 23.390625 
Q 45.015625 31 40.078125 35.4375 
Q 35.15625 39.890625 26.703125 39.890625 
Q 22.75 39.890625 18.8125 39.015625 
Q 14.890625 38.140625 10.796875 36.28125 
z
" id="BitstreamVeraSans-Roman-35"/>
      </defs>
      <g transform="translate(407.445 381.859875)scale(0.12 -0.12)">
       <use xlink:href="#BitstreamVeraSans-Roman-35"/>
       <use x="63.623046875" xlink:href="#BitstreamVeraSans-Roman-30"/>
       <use x="127.24609375" xlink:href="#BitstreamVeraSans-Roman-30"/>
      </g>
     </g>
    </g>
    <g id="xtick_7">
     <g id="line2d_14">
      <g>
       <use style="stroke:#000000;stroke-width:0.5;" x="493.2975" xlink:href="#m35ecf2a1c4" y="368.74175"/>
      </g>
     </g>
     <g id="line2d_15">
      <g>
       <use style="stroke:#000000;stroke-width:0.5;" x="493.2975" xlink:href="#m9a83f8a604" y="23.14175"/>
      </g>
     </g>
     <g id="text_7">
      <!-- 600 -->
      <defs>
       <path d="M 33.015625 40.375 
Q 26.375 40.375 22.484375 35.828125 
Q 18.609375 31.296875 18.609375 23.390625 
Q 18.609375 15.53125 22.484375 10.953125 
Q 26.375 6.390625 33.015625 6.390625 
Q 39.65625 6.390625 43.53125 10.953125 
Q 47.40625 15.53125 47.40625 23.390625 
Q 47.40625 31.296875 43.53125 35.828125 
Q 39.65625 40.375 33.015625 40.375 
M 52.59375 71.296875 
L 52.59375 62.3125 
Q 48.875 64.0625 45.09375 64.984375 
Q 41.3125 65.921875 37.59375 65.921875 
Q 27.828125 65.921875 22.671875 59.328125 
Q 17.53125 52.734375 16.796875 39.40625 
Q 19.671875 43.65625 24.015625 45.921875 
Q 28.375 48.1875 33.59375 48.1875 
Q 44.578125 48.1875 50.953125 41.515625 
Q 57.328125 34.859375 57.328125 23.390625 
Q 57.328125 12.15625 50.6875 5.359375 
Q 44.046875 -1.421875 33.015625 -1.421875 
Q 20.359375 -1.421875 13.671875 8.265625 
Q 6.984375 17.96875 6.984375 36.375 
Q 6.984375 53.65625 15.1875 63.9375 
Q 23.390625 74.21875 37.203125 74.21875 
Q 40.921875 74.21875 44.703125 73.484375 
Q 48.484375 72.75 52.59375 71.296875 
" id="BitstreamVeraSans-Roman-36"/>
      </defs>
      <g transform="translate(481.845 381.859875)scale(0.12 -0.12)">
       <use xlink:href="#BitstreamVeraSans-Roman-36"/>
       <use x="63.623046875" xlink:href="#BitstreamVeraSans-Roman-30"/>
       <use x="127.24609375" xlink:href="#BitstreamVeraSans-Roman-30"/>
      </g>
     </g>
    </g>
    <g id="text_8">
     <!-- episodes -->
     <defs>
      <path d="M 18.109375 8.203125 
L 18.109375 -20.796875 
L 9.078125 -20.796875 
L 9.078125 54.6875 
L 18.109375 54.6875 
L 18.109375 46.390625 
Q 20.953125 51.265625 25.265625 53.625 
Q 29.59375 56 35.59375 56 
Q 45.5625 56 51.78125 48.09375 
Q 58.015625 40.1875 58.015625 27.296875 
Q 58.015625 14.40625 51.78125 6.484375 
Q 45.5625 -1.421875 35.59375 -1.421875 
Q 29.59375 -1.421875 25.265625 0.953125 
Q 20.953125 3.328125 18.109375 8.203125 
M 48.6875 27.296875 
Q 48.6875 37.203125 44.609375 42.84375 
Q 40.53125 48.484375 33.40625 48.484375 
Q 26.265625 48.484375 22.1875 42.84375 
Q 18.109375 37.203125 18.109375 27.296875 
Q 18.109375 17.390625 22.1875 11.75 
Q 26.265625 6.109375 33.40625 6.109375 
Q 40.53125 6.109375 44.609375 11.75 
Q 48.6875 17.390625 48.6875 27.296875 
" id="BitstreamVeraSans-Roman-70"/>
      <path d="M 56.203125 29.59375 
L 56.203125 25.203125 
L 14.890625 25.203125 
Q 15.484375 15.921875 20.484375 11.0625 
Q 25.484375 6.203125 34.421875 6.203125 
Q 39.59375 6.203125 44.453125 7.46875 
Q 49.3125 8.734375 54.109375 11.28125 
L 54.109375 2.78125 
Q 49.265625 0.734375 44.1875 -0.34375 
Q 39.109375 -1.421875 33.890625 -1.421875 
Q 20.796875 -1.421875 13.15625 6.1875 
Q 5.515625 13.8125 5.515625 26.8125 
Q 5.515625 40.234375 12.765625 48.109375 
Q 20.015625 56 32.328125 56 
Q 43.359375 56 49.78125 48.890625 
Q 56.203125 41.796875 56.203125 29.59375 
M 47.21875 32.234375 
Q 47.125 39.59375 43.09375 43.984375 
Q 39.0625 48.390625 32.421875 48.390625 
Q 24.90625 48.390625 20.390625 44.140625 
Q 15.875 39.890625 15.1875 32.171875 
z
" id="BitstreamVeraSans-Roman-65"/>
      <path d="M 44.28125 53.078125 
L 44.28125 44.578125 
Q 40.484375 46.53125 36.375 47.5 
Q 32.28125 48.484375 27.875 48.484375 
Q 21.1875 48.484375 17.84375 46.4375 
Q 14.5 44.390625 14.5 40.28125 
Q 14.5 37.15625 16.890625 35.375 
Q 19.28125 33.59375 26.515625 31.984375 
L 29.59375 31.296875 
Q 39.15625 29.25 43.1875 25.515625 
Q 47.21875 21.78125 47.21875 15.09375 
Q 47.21875 7.46875 41.1875 3.015625 
Q 35.15625 -1.421875 24.609375 -1.421875 
Q 20.21875 -1.421875 15.453125 -0.5625 
Q 10.6875 0.296875 5.421875 2 
L 5.421875 11.28125 
Q 10.40625 8.6875 15.234375 7.390625 
Q 20.0625 6.109375 24.8125 6.109375 
Q 31.15625 6.109375 34.5625 8.28125 
Q 37.984375 10.453125 37.984375 14.40625 
Q 37.984375 18.0625 35.515625 20.015625 
Q 33.0625 21.96875 24.703125 23.78125 
L 21.578125 24.515625 
Q 13.234375 26.265625 9.515625 29.90625 
Q 5.8125 33.546875 5.8125 39.890625 
Q 5.8125 47.609375 11.28125 51.796875 
Q 16.75 56 26.8125 56 
Q 31.78125 56 36.171875 55.265625 
Q 40.578125 54.546875 44.28125 53.078125 
" id="BitstreamVeraSans-Roman-73"/>
      <path d="M 9.421875 54.6875 
L 18.40625 54.6875 
L 18.40625 0 
L 9.421875 0 
z
M 9.421875 75.984375 
L 18.40625 75.984375 
L 18.40625 64.59375 
L 9.421875 64.59375 
z
" id="BitstreamVeraSans-Roman-69"/>
      <path d="M 30.609375 48.390625 
Q 23.390625 48.390625 19.1875 42.75 
Q 14.984375 37.109375 14.984375 27.296875 
Q 14.984375 17.484375 19.15625 11.84375 
Q 23.34375 6.203125 30.609375 6.203125 
Q 37.796875 6.203125 41.984375 11.859375 
Q 46.1875 17.53125 46.1875 27.296875 
Q 46.1875 37.015625 41.984375 42.703125 
Q 37.796875 48.390625 30.609375 48.390625 
M 30.609375 56 
Q 42.328125 56 49.015625 48.375 
Q 55.71875 40.765625 55.71875 27.296875 
Q 55.71875 13.875 49.015625 6.21875 
Q 42.328125 -1.421875 30.609375 -1.421875 
Q 18.84375 -1.421875 12.171875 6.21875 
Q 5.515625 13.875 5.515625 27.296875 
Q 5.515625 40.765625 12.171875 48.375 
Q 18.84375 56 30.609375 56 
" id="BitstreamVeraSans-Roman-6f"/>
      <path d="M 45.40625 46.390625 
L 45.40625 75.984375 
L 54.390625 75.984375 
L 54.390625 0 
L 45.40625 0 
L 45.40625 8.203125 
Q 42.578125 3.328125 38.25 0.953125 
Q 33.9375 -1.421875 27.875 -1.421875 
Q 17.96875 -1.421875 11.734375 6.484375 
Q 5.515625 14.40625 5.515625 27.296875 
Q 5.515625 40.1875 11.734375 48.09375 
Q 17.96875 56 27.875 56 
Q 33.9375 56 38.25 53.625 
Q 42.578125 51.265625 45.40625 46.390625 
M 14.796875 27.296875 
Q 14.796875 17.390625 18.875 11.75 
Q 22.953125 6.109375 30.078125 6.109375 
Q 37.203125 6.109375 41.296875 11.75 
Q 45.40625 17.390625 45.40625 27.296875 
Q 45.40625 37.203125 41.296875 42.84375 
Q 37.203125 48.484375 30.078125 48.484375 
Q 22.953125 48.484375 18.875 42.84375 
Q 14.796875 37.203125 14.796875 27.296875 
" id="BitstreamVeraSans-Roman-64"/>
     </defs>
     <g transform="translate(243.50625 398.473625)scale(0.12 -0.12)">
      <use xlink:href="#BitstreamVeraSans-Roman-65"/>
      <use x="61.5234375" xlink:href="#BitstreamVeraSans-Roman-70"/>
      <use x="125.0" xlink:href="#BitstreamVeraSans-Roman-69"/>
      <use x="152.783203125" xlink:href="#BitstreamVeraSans-Roman-73"/>
      <use x="204.8828125" xlink:href="#BitstreamVeraSans-Roman-6f"/>
      <use x="266.064453125" xlink:href="#BitstreamVeraSans-Roman-64"/>
      <use x="329.541015625" xlink:href="#BitstreamVeraSans-Roman-65"/>
      <use x="391.064453125" xlink:href="#BitstreamVeraSans-Roman-73"/>
     </g>
    </g>
   </g>
   <g id="matplotlib.axis_2">
    <g id="ytick_1">
     <g id="line2d_16">
      <defs>
       <path d="M 0 0 
L 4 0 
" id="m8a2124daa0" style="stroke:#000000;stroke-width:0.5;"/>
      </defs>
      <g>
       <use style="stroke:#000000;stroke-width:0.5;" x="46.8975" xlink:href="#m8a2124daa0" y="368.74175"/>
      </g>
     </g>
     <g id="line2d_17">
      <defs>
       <path d="M 0 0 
L -4 0 
" id="m04949401b2" style="stroke:#000000;stroke-width:0.5;"/>
      </defs>
      <g>
       <use style="stroke:#000000;stroke-width:0.5;" x="493.2975" xlink:href="#m04949401b2" y="368.74175"/>
      </g>
     </g>
     <g id="text_9">
      <!-- 0.5 -->
      <defs>
       <path d="M 10.6875 12.40625 
L 21 12.40625 
L 21 0 
L 10.6875 0 
z
" id="BitstreamVeraSans-Roman-2e"/>
      </defs>
      <g transform="translate(23.81375 372.053)scale(0.12 -0.12)">
       <use xlink:href="#BitstreamVeraSans-Roman-30"/>
       <use x="63.623046875" xlink:href="#BitstreamVeraSans-Roman-2e"/>
       <use x="95.41015625" xlink:href="#BitstreamVeraSans-Roman-35"/>
      </g>
     </g>
    </g>
    <g id="ytick_2">
     <g id="line2d_18">
      <g>
       <use style="stroke:#000000;stroke-width:0.5;" x="46.8975" xlink:href="#m8a2124daa0" y="319.370321429"/>
      </g>
     </g>
     <g id="line2d_19">
      <g>
       <use style="stroke:#000000;stroke-width:0.5;" x="493.2975" xlink:href="#m04949401b2" y="319.370321429"/>
      </g>
     </g>
     <g id="text_10">
      <!-- 1.0 -->
      <g transform="translate(23.81375 322.681571429)scale(0.12 -0.12)">
       <use xlink:href="#BitstreamVeraSans-Roman-31"/>
       <use x="63.623046875" xlink:href="#BitstreamVeraSans-Roman-2e"/>
       <use x="95.41015625" xlink:href="#BitstreamVeraSans-Roman-30"/>
      </g>
     </g>
    </g>
    <g id="ytick_3">
     <g id="line2d_20">
      <g>
       <use style="stroke:#000000;stroke-width:0.5;" x="46.8975" xlink:href="#m8a2124daa0" y="269.998892857"/>
      </g>
     </g>
     <g id="line2d_21">
      <g>
       <use style="stroke:#000000;stroke-width:0.5;" x="493.2975" xlink:href="#m04949401b2" y="269.998892857"/>
      </g>
     </g>
     <g id="text_11">
      <!-- 1.5 -->
      <g transform="translate(23.81375 273.310142857)scale(0.12 -0.12)">
       <use xlink:href="#BitstreamVeraSans-Roman-31"/>
       <use x="63.623046875" xlink:href="#BitstreamVeraSans-Roman-2e"/>
       <use x="95.41015625" xlink:href="#BitstreamVeraSans-Roman-35"/>
      </g>
     </g>
    </g>
    <g id="ytick_4">
     <g id="line2d_22">
      <g>
       <use style="stroke:#000000;stroke-width:0.5;" x="46.8975" xlink:href="#m8a2124daa0" y="220.627464286"/>
      </g>
     </g>
     <g id="line2d_23">
      <g>
       <use style="stroke:#000000;stroke-width:0.5;" x="493.2975" xlink:href="#m04949401b2" y="220.627464286"/>
      </g>
     </g>
     <g id="text_12">
      <!-- 2.0 -->
      <g transform="translate(23.81375 223.938714286)scale(0.12 -0.12)">
       <use xlink:href="#BitstreamVeraSans-Roman-32"/>
       <use x="63.623046875" xlink:href="#BitstreamVeraSans-Roman-2e"/>
       <use x="95.41015625" xlink:href="#BitstreamVeraSans-Roman-30"/>
      </g>
     </g>
    </g>
    <g id="ytick_5">
     <g id="line2d_24">
      <g>
       <use style="stroke:#000000;stroke-width:0.5;" x="46.8975" xlink:href="#m8a2124daa0" y="171.256035714"/>
      </g>
     </g>
     <g id="line2d_25">
      <g>
       <use style="stroke:#000000;stroke-width:0.5;" x="493.2975" xlink:href="#m04949401b2" y="171.256035714"/>
      </g>
     </g>
     <g id="text_13">
      <!-- 2.5 -->
      <g transform="translate(23.81375 174.567285714)scale(0.12 -0.12)">
       <use xlink:href="#BitstreamVeraSans-Roman-32"/>
       <use x="63.623046875" xlink:href="#BitstreamVeraSans-Roman-2e"/>
       <use x="95.41015625" xlink:href="#BitstreamVeraSans-Roman-35"/>
      </g>
     </g>
    </g>
    <g id="ytick_6">
     <g id="line2d_26">
      <g>
       <use style="stroke:#000000;stroke-width:0.5;" x="46.8975" xlink:href="#m8a2124daa0" y="121.884607143"/>
      </g>
     </g>
     <g id="line2d_27">
      <g>
       <use style="stroke:#000000;stroke-width:0.5;" x="493.2975" xlink:href="#m04949401b2" y="121.884607143"/>
      </g>
     </g>
     <g id="text_14">
      <!-- 3.0 -->
      <g transform="translate(23.81375 125.195857143)scale(0.12 -0.12)">
       <use xlink:href="#BitstreamVeraSans-Roman-33"/>
       <use x="63.623046875" xlink:href="#BitstreamVeraSans-Roman-2e"/>
       <use x="95.41015625" xlink:href="#BitstreamVeraSans-Roman-30"/>
      </g>
     </g>
    </g>
    <g id="ytick_7">
     <g id="line2d_28">
      <g>
       <use style="stroke:#000000;stroke-width:0.5;" x="46.8975" xlink:href="#m8a2124daa0" y="72.5131785714"/>
      </g>
     </g>
     <g id="line2d_29">
      <g>
       <use style="stroke:#000000;stroke-width:0.5;" x="493.2975" xlink:href="#m04949401b2" y="72.5131785714"/>
      </g>
     </g>
     <g id="text_15">
      <!-- 3.5 -->
      <g transform="translate(23.81375 75.8244285714)scale(0.12 -0.12)">
       <use xlink:href="#BitstreamVeraSans-Roman-33"/>
       <use x="63.623046875" xlink:href="#BitstreamVeraSans-Roman-2e"/>
       <use x="95.41015625" xlink:href="#BitstreamVeraSans-Roman-35"/>
      </g>
     </g>
    </g>
    <g id="ytick_8">
     <g id="line2d_30">
      <g>
       <use style="stroke:#000000;stroke-width:0.5;" x="46.8975" xlink:href="#m8a2124daa0" y="23.14175"/>
      </g>
     </g>
     <g id="line2d_31">
      <g>
       <use style="stroke:#000000;stroke-width:0.5;" x="493.2975" xlink:href="#m04949401b2" y="23.14175"/>
      </g>
     </g>
     <g id="text_16">
      <!-- 4.0 -->
      <g transform="translate(23.81375 26.453)scale(0.12 -0.12)">
       <use xlink:href="#BitstreamVeraSans-Roman-34"/>
       <use x="63.623046875" xlink:href="#BitstreamVeraSans-Roman-2e"/>
       <use x="95.41015625" xlink:href="#BitstreamVeraSans-Roman-30"/>
      </g>
     </g>
    </g>
    <g id="text_17">
     <!-- average maxQ -->
     <defs>
      <path id="BitstreamVeraSans-Roman-20"/>
      <path d="M 39.40625 66.21875 
Q 28.65625 66.21875 22.328125 58.203125 
Q 16.015625 50.203125 16.015625 36.375 
Q 16.015625 22.609375 22.328125 14.59375 
Q 28.65625 6.59375 39.40625 6.59375 
Q 50.140625 6.59375 56.421875 14.59375 
Q 62.703125 22.609375 62.703125 36.375 
Q 62.703125 50.203125 56.421875 58.203125 
Q 50.140625 66.21875 39.40625 66.21875 
M 53.21875 1.3125 
L 66.21875 -12.890625 
L 54.296875 -12.890625 
L 43.5 -1.21875 
Q 41.890625 -1.3125 41.03125 -1.359375 
Q 40.1875 -1.421875 39.40625 -1.421875 
Q 24.03125 -1.421875 14.8125 8.859375 
Q 5.609375 19.140625 5.609375 36.375 
Q 5.609375 53.65625 14.8125 63.9375 
Q 24.03125 74.21875 39.40625 74.21875 
Q 54.734375 74.21875 63.90625 63.9375 
Q 73.09375 53.65625 73.09375 36.375 
Q 73.09375 23.6875 67.984375 14.640625 
Q 62.890625 5.609375 53.21875 1.3125 
" id="BitstreamVeraSans-Roman-51"/>
      <path d="M 54.890625 54.6875 
L 35.109375 28.078125 
L 55.90625 0 
L 45.3125 0 
L 29.390625 21.484375 
L 13.484375 0 
L 2.875 0 
L 24.125 28.609375 
L 4.6875 54.6875 
L 15.28125 54.6875 
L 29.78125 35.203125 
L 44.28125 54.6875 
z
" id="BitstreamVeraSans-Roman-78"/>
      <path d="M 52 44.1875 
Q 55.375 50.25 60.0625 53.125 
Q 64.75 56 71.09375 56 
Q 79.640625 56 84.28125 50.015625 
Q 88.921875 44.046875 88.921875 33.015625 
L 88.921875 0 
L 79.890625 0 
L 79.890625 32.71875 
Q 79.890625 40.578125 77.09375 44.375 
Q 74.3125 48.1875 68.609375 48.1875 
Q 61.625 48.1875 57.5625 43.546875 
Q 53.515625 38.921875 53.515625 30.90625 
L 53.515625 0 
L 44.484375 0 
L 44.484375 32.71875 
Q 44.484375 40.625 41.703125 44.40625 
Q 38.921875 48.1875 33.109375 48.1875 
Q 26.21875 48.1875 22.15625 43.53125 
Q 18.109375 38.875 18.109375 30.90625 
L 18.109375 0 
L 9.078125 0 
L 9.078125 54.6875 
L 18.109375 54.6875 
L 18.109375 46.1875 
Q 21.1875 51.21875 25.484375 53.609375 
Q 29.78125 56 35.6875 56 
Q 41.65625 56 45.828125 52.96875 
Q 50 49.953125 52 44.1875 
" id="BitstreamVeraSans-Roman-6d"/>
      <path d="M 41.109375 46.296875 
Q 39.59375 47.171875 37.8125 47.578125 
Q 36.03125 48 33.890625 48 
Q 26.265625 48 22.1875 43.046875 
Q 18.109375 38.09375 18.109375 28.8125 
L 18.109375 0 
L 9.078125 0 
L 9.078125 54.6875 
L 18.109375 54.6875 
L 18.109375 46.1875 
Q 20.953125 51.171875 25.484375 53.578125 
Q 30.03125 56 36.53125 56 
Q 37.453125 56 38.578125 55.875 
Q 39.703125 55.765625 41.0625 55.515625 
z
" id="BitstreamVeraSans-Roman-72"/>
      <path d="M 34.28125 27.484375 
Q 23.390625 27.484375 19.1875 25 
Q 14.984375 22.515625 14.984375 16.5 
Q 14.984375 11.71875 18.140625 8.90625 
Q 21.296875 6.109375 26.703125 6.109375 
Q 34.1875 6.109375 38.703125 11.40625 
Q 43.21875 16.703125 43.21875 25.484375 
L 43.21875 27.484375 
z
M 52.203125 31.203125 
L 52.203125 0 
L 43.21875 0 
L 43.21875 8.296875 
Q 40.140625 3.328125 35.546875 0.953125 
Q 30.953125 -1.421875 24.3125 -1.421875 
Q 15.921875 -1.421875 10.953125 3.296875 
Q 6 8.015625 6 15.921875 
Q 6 25.140625 12.171875 29.828125 
Q 18.359375 34.515625 30.609375 34.515625 
L 43.21875 34.515625 
L 43.21875 35.40625 
Q 43.21875 41.609375 39.140625 45 
Q 35.0625 48.390625 27.6875 48.390625 
Q 23 48.390625 18.546875 47.265625 
Q 14.109375 46.140625 10.015625 43.890625 
L 10.015625 52.203125 
Q 14.9375 54.109375 19.578125 55.046875 
Q 24.21875 56 28.609375 56 
Q 40.484375 56 46.34375 49.84375 
Q 52.203125 43.703125 52.203125 31.203125 
" id="BitstreamVeraSans-Roman-61"/>
      <path d="M 45.40625 27.984375 
Q 45.40625 37.75 41.375 43.109375 
Q 37.359375 48.484375 30.078125 48.484375 
Q 22.859375 48.484375 18.828125 43.109375 
Q 14.796875 37.75 14.796875 27.984375 
Q 14.796875 18.265625 18.828125 12.890625 
Q 22.859375 7.515625 30.078125 7.515625 
Q 37.359375 7.515625 41.375 12.890625 
Q 45.40625 18.265625 45.40625 27.984375 
M 54.390625 6.78125 
Q 54.390625 -7.171875 48.1875 -13.984375 
Q 42 -20.796875 29.203125 -20.796875 
Q 24.46875 -20.796875 20.265625 -20.09375 
Q 16.0625 -19.390625 12.109375 -17.921875 
L 12.109375 -9.1875 
Q 16.0625 -11.328125 19.921875 -12.34375 
Q 23.78125 -13.375 27.78125 -13.375 
Q 36.625 -13.375 41.015625 -8.765625 
Q 45.40625 -4.15625 45.40625 5.171875 
L 45.40625 9.625 
Q 42.625 4.78125 38.28125 2.390625 
Q 33.9375 0 27.875 0 
Q 17.828125 0 11.671875 7.65625 
Q 5.515625 15.328125 5.515625 27.984375 
Q 5.515625 40.671875 11.671875 48.328125 
Q 17.828125 56 27.875 56 
Q 33.9375 56 38.28125 53.609375 
Q 42.625 51.21875 45.40625 46.390625 
L 45.40625 54.6875 
L 54.390625 54.6875 
z
" id="BitstreamVeraSans-Roman-67"/>
      <path d="M 2.984375 54.6875 
L 12.5 54.6875 
L 29.59375 8.796875 
L 46.6875 54.6875 
L 56.203125 54.6875 
L 35.6875 0 
L 23.484375 0 
z
" id="BitstreamVeraSans-Roman-76"/>
     </defs>
     <g transform="translate(16.318125 240.208625)rotate(-90.0)scale(0.12 -0.12)">
      <use xlink:href="#BitstreamVeraSans-Roman-61"/>
      <use x="61.279296875" xlink:href="#BitstreamVeraSans-Roman-76"/>
      <use x="120.458984375" xlink:href="#BitstreamVeraSans-Roman-65"/>
      <use x="181.982421875" xlink:href="#BitstreamVeraSans-Roman-72"/>
      <use x="223.095703125" xlink:href="#BitstreamVeraSans-Roman-61"/>
      <use x="284.375" xlink:href="#BitstreamVeraSans-Roman-67"/>
      <use x="347.8515625" xlink:href="#BitstreamVeraSans-Roman-65"/>
      <use x="409.375" xlink:href="#BitstreamVeraSans-Roman-20"/>
      <use x="441.162109375" xlink:href="#BitstreamVeraSans-Roman-6d"/>
      <use x="538.57421875" xlink:href="#BitstreamVeraSans-Roman-61"/>
      <use x="599.853515625" xlink:href="#BitstreamVeraSans-Roman-78"/>
      <use x="659.033203125" xlink:href="#BitstreamVeraSans-Roman-51"/>
     </g>
    </g>
   </g>
   <g id="text_18">
    <!-- Average maxQ per episode, joint3 -->
    <defs>
     <path d="M 54.890625 33.015625 
L 54.890625 0 
L 45.90625 0 
L 45.90625 32.71875 
Q 45.90625 40.484375 42.875 44.328125 
Q 39.84375 48.1875 33.796875 48.1875 
Q 26.515625 48.1875 22.3125 43.546875 
Q 18.109375 38.921875 18.109375 30.90625 
L 18.109375 0 
L 9.078125 0 
L 9.078125 54.6875 
L 18.109375 54.6875 
L 18.109375 46.1875 
Q 21.34375 51.125 25.703125 53.5625 
Q 30.078125 56 35.796875 56 
Q 45.21875 56 50.046875 50.171875 
Q 54.890625 44.34375 54.890625 33.015625 
" id="BitstreamVeraSans-Roman-6e"/>
     <path d="M 34.1875 63.1875 
L 20.796875 26.90625 
L 47.609375 26.90625 
z
M 28.609375 72.90625 
L 39.796875 72.90625 
L 67.578125 0 
L 57.328125 0 
L 50.6875 18.703125 
L 17.828125 18.703125 
L 11.1875 0 
L 0.78125 0 
z
" id="BitstreamVeraSans-Roman-41"/>
     <path d="M 11.71875 12.40625 
L 22.015625 12.40625 
L 22.015625 4 
L 14.015625 -11.625 
L 7.71875 -11.625 
L 11.71875 4 
z
" id="BitstreamVeraSans-Roman-2c"/>
     <path d="M 18.3125 70.21875 
L 18.3125 54.6875 
L 36.8125 54.6875 
L 36.8125 47.703125 
L 18.3125 47.703125 
L 18.3125 18.015625 
Q 18.3125 11.328125 20.140625 9.421875 
Q 21.96875 7.515625 27.59375 7.515625 
L 36.8125 7.515625 
L 36.8125 0 
L 27.59375 0 
Q 17.1875 0 13.234375 3.875 
Q 9.28125 7.765625 9.28125 18.015625 
L 9.28125 47.703125 
L 2.6875 47.703125 
L 2.6875 54.6875 
L 9.28125 54.6875 
L 9.28125 70.21875 
z
" id="BitstreamVeraSans-Roman-74"/>
     <path d="M 9.421875 54.6875 
L 18.40625 54.6875 
L 18.40625 -0.984375 
Q 18.40625 -11.421875 14.421875 -16.109375 
Q 10.453125 -20.796875 1.609375 -20.796875 
L -1.8125 -20.796875 
L -1.8125 -13.1875 
L 0.59375 -13.1875 
Q 5.71875 -13.1875 7.5625 -10.8125 
Q 9.421875 -8.453125 9.421875 -0.984375 
z
M 9.421875 75.984375 
L 18.40625 75.984375 
L 18.40625 64.59375 
L 9.421875 64.59375 
z
" id="BitstreamVeraSans-Roman-6a"/>
    </defs>
    <g transform="translate(146.8245 18.14175)scale(0.144 -0.144)">
     <use xlink:href="#BitstreamVeraSans-Roman-41"/>
     <use x="68.330078125" xlink:href="#BitstreamVeraSans-Roman-76"/>
     <use x="127.509765625" xlink:href="#BitstreamVeraSans-Roman-65"/>
     <use x="189.033203125" xlink:href="#BitstreamVeraSans-Roman-72"/>
     <use x="230.146484375" xlink:href="#BitstreamVeraSans-Roman-61"/>
     <use x="291.42578125" xlink:href="#BitstreamVeraSans-Roman-67"/>
     <use x="354.90234375" xlink:href="#BitstreamVeraSans-Roman-65"/>
     <use x="416.42578125" xlink:href="#BitstreamVeraSans-Roman-20"/>
     <use x="448.212890625" xlink:href="#BitstreamVeraSans-Roman-6d"/>
     <use x="545.625" xlink:href="#BitstreamVeraSans-Roman-61"/>
     <use x="606.904296875" xlink:href="#BitstreamVeraSans-Roman-78"/>
     <use x="666.083984375" xlink:href="#BitstreamVeraSans-Roman-51"/>
     <use x="744.794921875" xlink:href="#BitstreamVeraSans-Roman-20"/>
     <use x="776.58203125" xlink:href="#BitstreamVeraSans-Roman-70"/>
     <use x="840.05859375" xlink:href="#BitstreamVeraSans-Roman-65"/>
     <use x="901.58203125" xlink:href="#BitstreamVeraSans-Roman-72"/>
     <use x="942.6953125" xlink:href="#BitstreamVeraSans-Roman-20"/>
     <use x="974.482421875" xlink:href="#BitstreamVeraSans-Roman-65"/>
     <use x="1036.005859375" xlink:href="#BitstreamVeraSans-Roman-70"/>
     <use x="1099.482421875" xlink:href="#BitstreamVeraSans-Roman-69"/>
     <use x="1127.265625" xlink:href="#BitstreamVeraSans-Roman-73"/>
     <use x="1179.365234375" xlink:href="#BitstreamVeraSans-Roman-6f"/>
     <use x="1240.546875" xlink:href="#BitstreamVeraSans-Roman-64"/>
     <use x="1304.0234375" xlink:href="#BitstreamVeraSans-Roman-65"/>
     <use x="1365.546875" xlink:href="#BitstreamVeraSans-Roman-2c"/>
     <use x="1397.333984375" xlink:href="#BitstreamVeraSans-Roman-20"/>
     <use x="1429.12109375" xlink:href="#BitstreamVeraSans-Roman-6a"/>
     <use x="1456.904296875" xlink:href="#BitstreamVeraSans-Roman-6f"/>
     <use x="1518.0859375" xlink:href="#BitstreamVeraSans-Roman-69"/>
     <use x="1545.869140625" xlink:href="#BitstreamVeraSans-Roman-6e"/>
     <use x="1609.248046875" xlink:href="#BitstreamVeraSans-Roman-74"/>
     <use x="1648.45703125" xlink:href="#BitstreamVeraSans-Roman-33"/>
    </g>
   </g>
  </g>
 </g>
 <defs>
  <clipPath id="p438e77f2ce">
   <rect height="345.6" width="446.4" x="46.8975" y="23.14175"/>
  </clipPath>
 </defs>
</svg>
