<?xml version="1.0" encoding="utf-8" standalone="no"?>
<!DOCTYPE svg PUBLIC "-//W3C//DTD SVG 1.1//EN"
  "http://www.w3.org/Graphics/SVG/1.1/DTD/svg11.dtd">
<!-- Created with matplotlib (http://matplotlib.org/) -->
<svg height="408pt" version="1.1" viewBox="0 0 515 408" width="515pt" xmlns="http://www.w3.org/2000/svg" xmlns:xlink="http://www.w3.org/1999/xlink">
 <defs>
  <style type="text/css">
*{stroke-linecap:butt;stroke-linejoin:round;stroke-miterlimit:100000;}
  </style>
 </defs>
 <g id="figure_1">
  <g id="patch_1">
   <path d="M 0 408.16925 
L 515.7675 408.16925 
L 515.7675 0 
L 0 0 
z
" style="fill:#ffffff;"/>
  </g>
  <g id="axes_1">
   <g id="patch_2">
    <path d="M 46.8975 368.74175 
L 493.2975 368.74175 
L 493.2975 23.14175 
L 46.8975 23.14175 
z
" style="fill:#ffffff;"/>
   </g>
   <g id="line2d_1">
    <path clip-path="url(#p10fd12af21)" d="M 47.1207 292.549658 
L 47.3439 300.0474 
L 47.5671 291.775866 
L 47.7903 298.302351 
L 48.0135 295.74077 
L 48.2367 298.498167 
L 48.4599 294.04947 
L 48.6831 297.835276 
L 48.9063 292.463616 
L 49.1295 294.137557 
L 49.3527 297.34387 
L 49.5759 296.72963 
L 49.7991 298.682622 
L 50.0223 295.676117 
L 50.2455 298.03992 
L 50.4687 291.25659 
L 50.6919 298.698695 
L 50.9151 297.307846 
L 51.1383 292.041333 
L 51.3615 297.795594 
L 51.5847 296.922427 
L 51.8079 294.438186 
L 52.0311 295.322107 
L 52.2543 291.833291 
L 52.7007 296.649452 
L 52.9239 295.539317 
L 53.1471 289.91307 
L 53.3703 299.685225 
L 53.5935 294.666344 
L 53.8167 292.603846 
L 54.0399 292.623593 
L 54.2631 294.67119 
L 54.4863 291.3383 
L 54.7095 294.812505 
L 54.9327 293.532297 
L 55.1559 298.825146 
L 55.3791 294.515605 
L 55.6023 296.460551 
L 55.8255 296.824411 
L 56.0487 296.576416 
L 56.2719 298.81152 
L 56.4951 296.77326 
L 56.7183 292.126575 
L 56.9415 294.957458 
L 57.1647 295.036845 
L 57.3879 296.281536 
L 57.6111 294.808546 
L 58.0575 297.636942 
L 58.2807 291.921412 
L 58.5039 296.945362 
L 58.7271 292.058179 
L 58.9503 296.684584 
L 59.1735 294.397304 
L 59.3967 297.412528 
L 59.6199 293.585154 
L 59.8431 292.643089 
L 60.0663 298.857562 
L 60.2895 296.535661 
L 60.5127 299.173994 
L 60.7359 296.794851 
L 60.9591 296.368357 
L 61.1823 294.888212 
L 61.4055 295.222342 
L 61.6287 294.225404 
L 61.8519 297.020071 
L 62.0751 297.195903 
L 62.2983 292.581112 
L 62.5215 290.591886 
L 62.9679 299.602311 
L 63.1911 293.566637 
L 63.4143 295.884012 
L 63.6375 293.344225 
L 63.8607 295.083266 
L 64.0839 299.114469 
L 64.3071 293.767438 
L 64.7535 290.815523 
L 64.9767 297.082363 
L 65.1999 295.225967 
L 65.4231 295.416747 
L 65.6463 292.908927 
L 65.8695 297.446316 
L 66.0927 296.534598 
L 66.3159 292.753736 
L 66.5391 294.194161 
L 66.7623 293.085211 
L 66.9855 296.928273 
L 67.2087 293.171896 
L 67.4319 298.605185 
L 67.8783 293.048153 
L 68.1015 291.452622 
L 68.3247 298.819887 
L 68.5479 298.231113 
L 68.7711 294.320561 
L 68.9943 294.73635 
L 69.2175 368.74175 
L 69.4407 293.463219 
L 69.6639 296.720367 
L 69.8871 296.810243 
L 70.1103 291.970887 
L 70.3335 291.915639 
L 70.5567 293.247809 
L 70.7799 296.186208 
L 71.2263 293.058344 
L 71.4495 290.845378 
L 71.6727 295.621914 
L 71.8959 289.978682 
L 72.1191 291.007015 
L 72.3423 293.162041 
L 72.5655 298.295929 
L 72.7887 293.171846 
L 73.0119 297.893552 
L 73.2351 298.918702 
L 73.4583 291.679347 
L 73.6815 295.549646 
L 73.9047 293.434543 
L 74.1279 293.295264 
L 74.3511 298.157644 
L 74.5743 297.226581 
L 74.7975 290.802394 
L 75.2439 296.500542 
L 75.4671 295.983412 
L 75.6903 291.919023 
L 75.9135 295.991971 
L 76.1367 289.790399 
L 76.3599 295.368252 
L 76.5831 294.440879 
L 76.8063 295.993277 
L 77.0295 294.520903 
L 77.2527 299.269614 
L 77.4759 293.233801 
L 77.6991 294.777899 
L 77.9223 297.186649 
L 78.1455 294.747941 
L 78.3687 290.015822 
L 78.5919 297.022848 
L 78.8151 294.701439 
L 79.0383 294.458476 
L 79.2615 297.34744 
L 79.4847 296.050744 
L 79.7079 296.039966 
L 79.9311 292.853767 
L 80.1543 294.597994 
L 80.3775 293.338164 
L 80.6007 295.207439 
L 80.8239 290.428905 
L 81.0471 294.039842 
L 81.2703 292.28437 
L 81.4935 294.785994 
L 81.7167 295.02623 
L 81.9399 291.660436 
L 82.1631 295.947899 
L 82.6095 292.21577 
L 82.8327 292.346748 
L 83.0559 296.955828 
L 83.2791 292.414474 
L 83.7255 294.100339 
L 83.9487 290.934032 
L 84.1719 291.054433 
L 84.3951 294.439373 
L 84.6183 294.509219 
L 84.8415 291.97111 
L 85.0647 296.16648 
L 85.2879 293.326431 
L 85.5111 296.574125 
L 85.7343 295.505997 
L 85.9575 290.167677 
L 86.1807 297.122355 
L 86.4039 291.70445 
L 86.6271 297.140581 
L 87.0735 293.748512 
L 87.2967 297.713692 
L 87.9663 295.685629 
L 88.1895 298.570251 
L 88.4127 293.457738 
L 88.6359 293.427129 
L 88.8591 290.499552 
L 89.3055 296.865227 
L 89.5287 292.435123 
L 89.7519 297.996825 
L 90.1983 294.935181 
L 90.4215 294.171243 
L 90.6447 292.598183 
L 90.8679 299.326773 
L 91.3143 294.924304 
L 91.5375 368.74175 
L 91.7607 290.89433 
L 91.9839 296.37958 
L 92.2071 296.916628 
L 92.4303 293.260554 
L 92.6535 296.991959 
L 92.8767 297.105446 
L 93.0999 294.874143 
L 93.3231 296.204493 
L 93.5463 291.483498 
L 93.7695 299.211414 
L 93.9927 297.882541 
L 94.2159 297.657467 
L 94.4391 292.081063 
L 94.6623 293.41257 
L 94.8855 298.143091 
L 95.1087 293.308528 
L 95.3319 294.441053 
L 95.5551 298.185558 
L 95.7783 292.852229 
L 96.2247 297.915355 
L 96.4479 294.311378 
L 96.6711 294.723357 
L 96.8943 293.593057 
L 97.1175 289.846826 
L 97.3407 289.651496 
L 97.5639 300.072017 
L 97.7871 294.401309 
L 98.0103 292.234465 
L 98.2335 292.723803 
L 98.4567 295.621036 
L 98.6799 292.991606 
L 99.1263 298.807725 
L 99.3495 297.671575 
L 99.7959 289.939601 
L 100.0191 298.538883 
L 100.4655 290.835017 
L 100.6887 296.990277 
L 100.9119 297.049383 
L 101.1351 293.3844 
L 101.3583 294.879792 
L 101.5815 293.08971 
L 101.8047 294.846574 
L 102.0279 292.579875 
L 102.2511 296.499462 
L 102.4743 292.437971 
L 102.6975 298.217964 
L 102.9207 295.164273 
L 103.3671 298.264948 
L 103.5903 292.881539 
L 103.8135 293.331782 
L 104.0367 323.041004 
L 104.2599 327.733443 
L 104.4831 322.149286 
L 104.9295 334.736964 
L 105.1527 332.054842 
L 105.3759 331.040861 
L 105.5991 336.950176 
L 105.8223 331.027156 
L 106.0455 330.628141 
L 106.2687 336.743464 
L 106.4919 333.3337 
L 106.7151 333.610149 
L 106.9383 334.754035 
L 107.1615 332.668466 
L 107.3847 334.264033 
L 107.6079 340.036845 
L 107.8311 333.871106 
L 108.0543 337.157582 
L 108.2775 333.285151 
L 108.5007 332.100072 
L 108.9471 334.246776 
L 109.1703 332.786658 
L 109.3935 332.093349 
L 109.6167 335.08142 
L 109.8399 332.508955 
L 110.0631 332.386527 
L 110.2863 333.760655 
L 110.5095 333.883768 
L 110.7327 333.251717 
L 110.9559 334.300708 
L 111.1791 332.699549 
L 111.4023 333.383306 
L 111.6255 332.697092 
L 111.8487 332.813444 
L 112.0719 334.7824 
L 112.2951 332.433332 
L 112.5183 332.777397 
L 112.7415 333.803284 
L 113.1879 330.658347 
L 113.4111 331.603102 
L 113.6343 331.378177 
L 113.8575 368.74175 
L 114.0807 332.623397 
L 114.3039 332.166156 
L 114.5271 332.504953 
L 114.7503 332.277537 
L 114.9735 334.068581 
L 115.1967 329.147069 
L 115.4199 331.637109 
L 115.8663 331.351879 
L 116.0895 332.835893 
L 116.3127 331.856168 
L 116.5359 332.679826 
L 116.7591 329.984467 
L 116.9823 330.701871 
L 117.2055 330.827758 
L 117.4287 331.527189 
L 117.6519 333.053645 
L 117.8751 331.529493 
L 118.0983 331.03981 
L 118.3215 330.034825 
L 118.5447 330.755124 
L 118.7679 330.970842 
L 118.9911 330.400179 
L 119.4375 330.100112 
L 119.6607 330.512323 
L 119.8839 328.753408 
L 120.1071 329.383948 
L 120.3303 328.210646 
L 120.7767 331.302876 
L 120.9999 329.647585 
L 121.2231 329.583951 
L 121.4463 328.810001 
L 121.8927 328.67499 
L 122.1159 330.850134 
L 122.3391 327.641606 
L 122.5623 329.140659 
L 122.7855 328.824239 
L 123.0087 326.457316 
L 123.2319 328.001924 
L 123.4551 330.414459 
L 123.6783 327.577235 
L 123.9015 328.727754 
L 124.1247 326.915651 
L 124.3479 327.198647 
L 124.5711 328.08289 
L 124.7943 325.759387 
L 125.0175 327.800451 
L 125.2407 326.433618 
L 125.4639 326.255442 
L 125.6871 327.779366 
L 125.9103 325.553098 
L 126.1335 327.196721 
L 126.3567 326.748568 
L 126.5799 328.162719 
L 126.8031 325.084907 
L 127.0263 327.457887 
L 127.2495 320.084835 
L 127.4727 325.659385 
L 127.6959 323.133024 
L 127.9191 326.76132 
L 128.1423 322.977268 
L 128.3655 328.005533 
L 128.5887 322.795229 
L 128.8119 328.214936 
L 129.0351 326.815041 
L 129.2583 322.217723 
L 129.7047 327.120468 
L 129.9279 327.226513 
L 130.1511 320.827521 
L 130.3743 325.003024 
L 130.5975 322.258539 
L 130.8207 325.649896 
L 131.0439 322.687962 
L 131.2671 318.103051 
L 131.4903 326.322803 
L 131.7135 324.323205 
L 131.9367 326.229815 
L 132.1599 324.029601 
L 132.3831 324.553586 
L 132.6063 318.119909 
L 132.8295 320.718533 
L 133.0527 325.818554 
L 133.2759 317.945208 
L 133.4991 324.865313 
L 133.7223 325.788181 
L 133.9455 323.602122 
L 134.1687 324.867356 
L 134.3919 321.225339 
L 134.6151 319.952056 
L 134.8383 314.195459 
L 135.0615 319.009388 
L 135.2847 317.853995 
L 135.5079 323.238889 
L 135.7311 319.85074 
L 135.9543 322.717114 
L 136.1775 368.74175 
L 136.4007 325.994636 
L 136.6239 323.065658 
L 136.8471 322.440467 
L 137.0703 319.589834 
L 137.2935 328.031705 
L 137.5167 317.181279 
L 137.7399 316.4561 
L 137.9631 317.731983 
L 138.1863 316.460654 
L 138.4095 317.999484 
L 138.6327 315.724135 
L 138.8559 319.232638 
L 139.0791 312.819715 
L 139.3023 309.874845 
L 139.7487 318.238214 
L 140.1951 311.970464 
L 140.4183 317.486372 
L 140.6415 314.686637 
L 140.8647 318.781169 
L 141.0879 317.863467 
L 141.3111 318.508541 
L 141.5343 313.782448 
L 141.7575 311.509802 
L 141.9807 315.478285 
L 142.2039 313.814397 
L 142.6503 319.445196 
L 142.8735 314.890157 
L 143.0967 322.13548 
L 143.3199 313.106535 
L 143.5431 317.023408 
L 143.7663 311.455441 
L 143.9895 314.810261 
L 144.2127 312.219046 
L 144.4359 314.418036 
L 144.6591 311.979128 
L 144.8823 317.027229 
L 145.1055 319.461412 
L 145.3287 310.529876 
L 145.5519 312.583663 
L 145.7751 308.916717 
L 145.9983 310.006367 
L 146.2215 312.805546 
L 146.4447 306.756889 
L 146.6679 310.729515 
L 146.8911 311.361301 
L 147.1143 316.684654 
L 147.3375 313.65556 
L 147.5607 305.978268 
L 147.7839 313.640557 
L 148.0071 303.747729 
L 148.2303 327.093616 
L 148.4535 313.554705 
L 148.6767 307.819862 
L 149.1231 304.497783 
L 149.3463 302.216481 
L 149.5695 312.67257 
L 149.7927 305.975386 
L 150.0159 313.730159 
L 150.2391 311.627859 
L 150.4623 306.649875 
L 150.6855 311.974187 
L 151.1319 305.551985 
L 151.3551 313.739174 
L 151.8015 302.185164 
L 152.0247 304.012833 
L 152.2479 306.959185 
L 152.4711 307.064605 
L 152.6943 308.30165 
L 152.9175 303.148064 
L 153.1407 311.590002 
L 153.3639 304.128293 
L 153.5871 312.175934 
L 153.8103 307.34529 
L 154.0335 305.223732 
L 154.2567 304.644504 
L 154.4799 304.408601 
L 154.7031 311.148029 
L 154.9263 305.955547 
L 155.1495 297.787816 
L 155.3727 302.57316 
L 155.5959 309.805521 
L 155.8191 301.41189 
L 156.0423 302.757103 
L 156.2655 318.03526 
L 156.4887 307.969361 
L 156.7119 306.546344 
L 157.1583 301.387497 
L 157.3815 304.670694 
L 157.6047 298.098277 
L 158.2743 315.84105 
L 158.4975 368.74175 
L 158.7207 302.974424 
L 158.9439 303.617108 
L 159.6135 302.112595 
L 160.0599 295.411109 
L 160.2831 304.374452 
L 160.7295 296.446549 
L 160.9527 303.213066 
L 161.1759 305.580584 
L 161.3991 300.885666 
L 161.6223 298.915727 
L 161.8455 299.114033 
L 162.0687 291.917211 
L 162.2919 306.83526 
L 162.5151 292.843063 
L 162.7383 311.7325 
L 162.9615 297.779949 
L 163.1847 291.211321 
L 163.6311 301.08374 
L 163.8543 297.732029 
L 164.0775 288.957389 
L 164.3007 297.44109 
L 164.5239 293.560736 
L 164.7471 297.925198 
L 164.9703 291.30705 
L 165.1935 294.228083 
L 165.4167 292.518469 
L 165.6399 311.124615 
L 165.8631 302.462566 
L 166.3095 300.293663 
L 166.5327 300.539764 
L 166.7559 291.930218 
L 166.9791 295.393661 
L 167.2023 296.071652 
L 167.4255 290.26937 
L 167.6487 292.669702 
L 167.8719 292.682058 
L 168.0951 305.165449 
L 168.3183 294.325136 
L 168.5415 298.616157 
L 168.7647 299.753786 
L 168.9879 295.139437 
L 169.2111 303.499532 
L 169.4343 289.340249 
L 169.6575 297.766597 
L 169.8807 284.220889 
L 170.1039 288.731056 
L 170.3271 288.706152 
L 170.7735 298.096694 
L 170.9967 289.84876 
L 171.2199 299.34027 
L 171.4431 296.651244 
L 171.6663 286.763982 
L 171.8895 288.30665 
L 172.1127 286.735138 
L 172.3359 290.232629 
L 172.5591 290.907827 
L 172.7823 304.375659 
L 173.0055 296.793984 
L 173.2287 301.429761 
L 173.4519 290.535356 
L 173.6751 290.343435 
L 173.8983 297.438194 
L 174.1215 283.165667 
L 174.3447 291.477948 
L 174.5679 317.582639 
L 174.7911 288.765934 
L 175.0143 282.577999 
L 175.2375 282.606445 
L 175.4607 289.103525 
L 175.6839 286.312833 
L 175.9071 288.150346 
L 176.1303 296.414788 
L 176.3535 294.070555 
L 177.0231 283.532629 
L 177.2463 284.183764 
L 177.4695 305.27288 
L 177.6927 304.616579 
L 177.9159 284.276206 
L 178.1391 290.954724 
L 178.3623 288.830067 
L 178.5855 291.592076 
L 178.8087 286.628232 
L 179.0319 285.070365 
L 179.2551 287.732988 
L 179.4783 282.391505 
L 179.7015 293.746864 
L 179.9247 292.987336 
L 180.1479 278.391526 
L 180.3711 280.995698 
L 180.5943 301.235389 
L 180.8175 368.74175 
L 181.0407 291.692174 
L 181.2639 289.738904 
L 181.4871 288.958051 
L 181.7103 286.576172 
L 181.9335 277.858563 
L 182.1567 285.618514 
L 182.3799 287.33031 
L 182.6031 277.516271 
L 183.0495 288.736559 
L 183.2727 275.314786 
L 183.4959 282.413869 
L 183.7191 281.281793 
L 183.9423 291.598417 
L 184.1655 282.489068 
L 184.3887 289.662997 
L 184.6119 276.373186 
L 184.8351 279.403249 
L 185.0583 287.803909 
L 185.2815 283.922747 
L 185.5047 273.678489 
L 185.7279 291.218786 
L 185.9511 279.438432 
L 186.1743 290.951826 
L 186.3975 278.846992 
L 186.6207 279.883166 
L 187.0671 272.407357 
L 187.2903 279.98274 
L 187.5135 270.832409 
L 187.7367 274.416686 
L 188.1831 271.991332 
L 188.4063 278.464218 
L 188.6295 270.729929 
L 188.8527 288.291151 
L 189.2991 278.769092 
L 189.5223 285.593902 
L 189.7455 274.038209 
L 189.9687 270.616136 
L 190.1919 286.40869 
L 190.4151 270.555081 
L 190.6383 289.317147 
L 191.0847 273.085996 
L 191.3079 294.137645 
L 191.5311 284.181943 
L 191.7543 285.520656 
L 191.9775 277.474987 
L 192.2007 282.255344 
L 192.4239 278.810448 
L 192.6471 282.615007 
L 192.8703 265.39294 
L 193.0935 285.862428 
L 193.3167 273.481944 
L 193.5399 290.618067 
L 193.7631 276.264509 
L 193.9863 279.399416 
L 194.4327 270.477556 
L 194.6559 275.542302 
L 194.8791 276.108135 
L 195.1023 272.393087 
L 195.3255 277.801023 
L 195.5487 279.403829 
L 195.7719 262.260143 
L 195.9951 279.565575 
L 196.2183 265.860655 
L 196.6647 277.710587 
L 196.8879 268.160844 
L 197.1111 273.511359 
L 197.3343 264.388116 
L 197.5575 278.308949 
L 197.7807 271.315289 
L 198.0039 272.859884 
L 198.2271 277.025721 
L 198.4503 271.921557 
L 198.8967 279.89989 
L 199.1199 270.883736 
L 199.3431 278.294081 
L 199.5663 276.454954 
L 199.7895 267.390684 
L 200.2359 264.517205 
L 200.4591 269.258286 
L 200.6823 276.382216 
L 200.9055 263.817843 
L 201.1287 261.319377 
L 201.3519 265.494108 
L 201.5751 262.253821 
L 201.7983 261.319372 
L 202.2447 265.792409 
L 202.4679 273.346185 
L 202.6911 267.066739 
L 202.9143 283.249719 
L 203.1375 368.74175 
L 203.3607 277.356938 
L 203.5839 263.450202 
L 203.8071 257.579276 
L 204.0303 275.192968 
L 204.2535 268.063629 
L 204.4767 275.065928 
L 204.6999 266.187484 
L 204.9231 278.490111 
L 205.1463 266.175113 
L 205.3695 262.35413 
L 205.8159 287.940695 
L 206.0391 274.097556 
L 206.2623 272.385739 
L 206.4855 264.266519 
L 206.7087 270.869132 
L 206.9319 267.925268 
L 207.1551 261.279775 
L 207.3783 265.011437 
L 207.6015 272.800333 
L 207.8247 275.590033 
L 208.0479 260.473566 
L 208.2711 272.439236 
L 208.4943 272.725571 
L 208.7175 253.741336 
L 208.9407 263.59179 
L 209.1639 261.754349 
L 209.3871 254.602911 
L 209.6103 258.136819 
L 209.8335 284.665164 
L 210.0567 256.201301 
L 210.2799 250.565766 
L 210.5031 265.2594 
L 210.7263 257.636757 
L 210.9495 270.606268 
L 211.1727 256.023212 
L 211.3959 277.847951 
L 211.6191 257.94056 
L 211.8423 262.265924 
L 212.0655 254.843141 
L 212.2887 262.276043 
L 212.5119 265.328476 
L 212.7351 261.747019 
L 212.9583 268.654953 
L 213.1815 255.062036 
L 213.4047 269.675995 
L 213.6279 295.692261 
L 213.8511 262.342056 
L 214.0743 252.308072 
L 214.2975 270.244086 
L 214.5207 251.874704 
L 214.7439 253.558695 
L 214.9671 269.163736 
L 215.1903 253.923888 
L 215.4135 258.568054 
L 215.6367 252.139649 
L 215.8599 262.220646 
L 216.0831 252.572362 
L 216.3063 257.064492 
L 216.5295 256.333234 
L 216.7527 250.258676 
L 216.9759 254.69773 
L 217.1991 254.727837 
L 217.4223 266.747094 
L 217.6455 251.043942 
L 217.8687 256.962909 
L 218.3151 243.654196 
L 218.5383 271.984134 
L 218.7615 248.553686 
L 218.9847 250.859845 
L 219.4311 262.722987 
L 219.6543 281.962523 
L 219.8775 250.787086 
L 220.1007 261.493067 
L 220.3239 255.082844 
L 220.5471 276.912667 
L 220.7703 250.858787 
L 220.9935 243.841149 
L 221.2167 259.464028 
L 221.4399 252.349568 
L 221.6631 264.603932 
L 221.8863 248.575233 
L 222.1095 269.797162 
L 222.3327 252.039141 
L 222.5559 253.871436 
L 223.0023 244.58558 
L 223.2255 260.468113 
L 223.4487 246.664428 
L 223.6719 265.396955 
L 223.8951 239.596364 
L 224.1183 250.579177 
L 224.3415 248.038396 
L 224.5647 265.707998 
L 224.7879 261.299873 
L 225.0111 244.899172 
L 225.2343 261.283143 
L 225.4575 368.74175 
L 225.6807 249.75813 
L 225.9039 246.494382 
L 226.1271 249.883713 
L 226.3503 238.335405 
L 226.7967 253.220698 
L 227.0199 253.061639 
L 227.2431 254.539437 
L 227.4663 246.865483 
L 227.6895 247.308414 
L 227.9127 271.772395 
L 228.3591 249.907729 
L 228.5823 267.583028 
L 228.8055 244.046107 
L 229.2519 250.57614 
L 229.4751 262.59721 
L 229.9215 239.266988 
L 230.1447 252.24713 
L 230.3679 286.993848 
L 230.5911 266.013814 
L 230.8143 261.211405 
L 231.0375 242.147821 
L 231.2607 247.992151 
L 231.7071 242.139056 
L 231.9303 238.914959 
L 232.1535 246.01038 
L 232.3767 240.027189 
L 232.5999 255.000174 
L 232.8231 251.650622 
L 233.0463 250.724015 
L 233.2695 253.97788 
L 233.4927 241.953042 
L 233.7159 237.571343 
L 233.9391 250.083137 
L 234.1623 251.378447 
L 234.3855 236.856552 
L 234.8319 245.307284 
L 235.0551 246.485264 
L 235.2783 243.21155 
L 235.5015 243.110343 
L 235.7247 251.544214 
L 235.9479 249.813769 
L 236.1711 252.386748 
L 236.3943 240.81203 
L 236.6175 238.319084 
L 236.8407 252.616227 
L 237.0639 238.392953 
L 237.5103 232.854303 
L 237.7335 241.744146 
L 237.9567 237.739706 
L 238.1799 236.844358 
L 238.4031 258.397029 
L 238.6263 237.289823 
L 238.8495 252.123467 
L 239.0727 231.744798 
L 239.2959 236.080967 
L 239.5191 250.518861 
L 239.7423 232.602369 
L 239.9655 230.740736 
L 240.1887 247.6414 
L 240.4119 241.218824 
L 240.8583 277.484734 
L 241.0815 241.121598 
L 241.3047 228.391308 
L 241.5279 235.037423 
L 241.7511 234.027038 
L 242.1975 247.149749 
L 242.4207 233.643713 
L 242.6439 242.119356 
L 242.8671 230.772182 
L 243.0903 248.561837 
L 243.3135 244.170987 
L 243.5367 225.003182 
L 243.7599 230.246933 
L 243.9831 229.319622 
L 244.2063 245.903787 
L 244.4295 253.646631 
L 244.6527 249.049341 
L 244.8759 239.182373 
L 245.0991 246.328182 
L 245.3223 225.512705 
L 245.5455 251.099619 
L 245.7687 235.511466 
L 245.9919 282.973379 
L 246.2151 234.76981 
L 246.4383 242.72856 
L 246.6615 246.418128 
L 246.8847 231.92658 
L 247.1079 240.032469 
L 247.3311 243.445863 
L 247.5543 239.645306 
L 247.7775 368.74175 
L 248.0007 240.938081 
L 248.2239 232.456442 
L 248.4471 232.221205 
L 248.6703 268.138733 
L 248.8935 226.445769 
L 249.1167 233.129647 
L 249.3399 257.626718 
L 249.5631 219.660786 
L 249.7863 223.534341 
L 250.0095 249.473929 
L 250.2327 223.834739 
L 250.4559 223.824695 
L 250.6791 252.567917 
L 250.9023 230.236078 
L 251.1255 226.627743 
L 251.3487 232.997712 
L 251.5719 243.531289 
L 251.7951 224.908404 
L 252.0183 230.921802 
L 252.2415 251.21084 
L 252.4647 232.122418 
L 252.6879 268.113704 
L 252.9111 231.924715 
L 253.1343 232.719743 
L 253.3575 218.040325 
L 253.5807 245.239031 
L 253.8039 242.941472 
L 254.0271 228.253518 
L 254.2503 226.519297 
L 254.4735 231.159013 
L 254.6967 220.550002 
L 254.9199 221.362139 
L 255.1431 233.868017 
L 255.5895 227.765583 
L 255.8127 250.569264 
L 256.0359 233.68707 
L 256.2591 226.953664 
L 256.4823 229.998091 
L 256.7055 236.08347 
L 256.9287 226.419939 
L 257.1519 231.419369 
L 257.3751 233.431543 
L 257.5983 223.397661 
L 257.8215 229.051318 
L 258.0447 221.565937 
L 258.2679 219.564167 
L 258.4911 227.241651 
L 258.7143 226.108049 
L 258.9375 223.682946 
L 259.1607 227.267838 
L 259.3839 220.989871 
L 259.8303 243.954161 
L 260.0535 221.612526 
L 260.2767 221.592362 
L 260.4999 228.329463 
L 260.7231 218.627762 
L 260.9463 219.50816 
L 261.1695 232.695998 
L 261.3927 232.695919 
L 261.6159 227.105157 
L 261.8391 217.792602 
L 262.0623 277.475494 
L 262.2855 248.78414 
L 262.5087 247.714599 
L 262.7319 228.951265 
L 262.9551 237.315948 
L 263.1783 264.11324 
L 263.4015 226.974538 
L 263.8479 219.736786 
L 264.0711 228.844767 
L 264.2943 222.509491 
L 264.5175 220.317115 
L 264.7407 222.5356 
L 264.9639 250.748138 
L 265.1871 233.80407 
L 265.4103 225.457781 
L 265.6335 233.142024 
L 265.8567 217.406001 
L 266.0799 247.413706 
L 266.3031 223.167247 
L 266.5263 244.489621 
L 266.7495 215.110807 
L 266.9727 224.166295 
L 267.1959 220.000606 
L 267.4191 246.909229 
L 267.6423 220.696741 
L 267.8655 218.046122 
L 268.0887 220.092787 
L 268.3119 225.70694 
L 268.5351 222.205241 
L 268.7583 223.024057 
L 268.9815 215.210239 
L 269.2047 220.675967 
L 269.4279 220.89697 
L 269.6511 218.135146 
L 269.8743 229.495174 
L 270.0975 368.74175 
L 270.3207 219.94403 
L 270.5439 232.597974 
L 270.7671 233.661243 
L 270.9903 220.748816 
L 271.4367 213.566827 
L 271.6599 235.16788 
L 271.8831 224.437229 
L 272.1063 257.546851 
L 272.3295 220.776105 
L 272.5527 223.866283 
L 272.7759 219.45041 
L 272.9991 239.78916 
L 273.2223 219.935393 
L 273.4455 221.007275 
L 273.6687 214.101283 
L 273.8919 214.772702 
L 274.1151 229.766274 
L 274.3383 230.959064 
L 274.7847 222.73915 
L 275.0079 228.504088 
L 275.2311 216.625961 
L 275.4543 259.386475 
L 275.6775 212.674758 
L 275.9007 214.474062 
L 276.3471 206.693331 
L 276.7935 233.514085 
L 277.0167 225.493779 
L 277.2399 213.110477 
L 277.4631 235.933748 
L 277.9095 218.063322 
L 278.1327 220.405761 
L 278.3559 219.449172 
L 278.5791 216.494324 
L 278.8023 207.705454 
L 279.0255 213.905523 
L 279.2487 207.680989 
L 279.4719 211.327371 
L 279.6951 222.562296 
L 279.9183 218.302775 
L 280.1415 220.36791 
L 280.3647 220.196381 
L 280.5879 205.797303 
L 280.8111 218.47016 
L 281.0343 210.062923 
L 281.2575 229.934949 
L 281.4807 204.459514 
L 281.7039 213.693926 
L 281.9271 215.663574 
L 282.1503 213.882322 
L 282.3735 215.965318 
L 282.5967 211.33242 
L 282.8199 218.643561 
L 283.0431 204.512258 
L 283.2663 206.831207 
L 283.4895 212.593238 
L 283.7127 214.293368 
L 283.9359 201.577363 
L 284.1591 215.652642 
L 284.3823 204.298167 
L 284.6055 237.626749 
L 284.8287 212.965253 
L 285.2751 201.480617 
L 285.4983 231.835233 
L 285.7215 205.608816 
L 285.9447 205.318372 
L 286.1679 203.74348 
L 286.3911 199.677564 
L 286.8375 223.781818 
L 287.0607 212.442488 
L 287.2839 231.401757 
L 287.5071 210.997722 
L 287.7303 209.904759 
L 287.9535 203.626594 
L 288.1767 200.814745 
L 288.3999 231.54012 
L 288.6231 200.739467 
L 288.8463 211.965555 
L 289.0695 198.443848 
L 289.2927 216.12647 
L 289.5159 200.880897 
L 289.7391 202.492179 
L 289.9623 201.554276 
L 290.1855 210.868016 
L 290.4087 229.874083 
L 291.0783 203.790397 
L 291.3015 211.25695 
L 291.7479 196.243647 
L 292.1943 207.218682 
L 292.4175 368.74175 
L 292.6407 208.748315 
L 292.8639 197.655842 
L 293.0871 227.907106 
L 293.3103 225.563948 
L 293.5335 209.713947 
L 293.7567 222.596803 
L 293.9799 245.398401 
L 294.2031 194.702633 
L 294.4263 196.793615 
L 294.6495 204.846588 
L 294.8727 203.9525 
L 295.0959 200.070603 
L 295.3191 198.762273 
L 295.5423 196.293615 
L 295.9887 223.489533 
L 296.2119 199.379508 
L 296.6583 193.371217 
L 297.1047 232.341267 
L 297.3279 195.670334 
L 297.5511 193.805558 
L 297.7743 199.748523 
L 297.9975 194.456603 
L 298.4439 215.999666 
L 298.6671 197.778739 
L 298.8903 196.551313 
L 299.1135 216.447348 
L 299.3367 216.712549 
L 299.5599 199.877631 
L 300.0063 209.815075 
L 300.2295 209.913659 
L 300.4527 215.533723 
L 300.6759 196.744302 
L 300.8991 191.565806 
L 301.1223 203.527959 
L 301.3455 187.608619 
L 301.5687 193.637363 
L 301.7919 204.469396 
L 302.2383 191.513271 
L 302.4615 202.825304 
L 302.6847 198.481651 
L 302.9079 199.090743 
L 303.1311 215.367168 
L 303.3543 210.902038 
L 303.5775 199.302434 
L 303.8007 224.498614 
L 304.0239 199.66456 
L 304.2471 217.326431 
L 304.4703 210.500139 
L 304.9167 189.211809 
L 305.3631 202.23976 
L 305.5863 190.358781 
L 305.8095 195.264545 
L 306.0327 215.364057 
L 306.2559 213.636691 
L 306.4791 208.904939 
L 306.7023 188.775974 
L 307.1487 201.815736 
L 307.3719 193.526276 
L 307.5951 190.150863 
L 307.8183 192.02505 
L 308.0415 201.661336 
L 308.2647 229.07975 
L 308.4879 191.563656 
L 308.7111 209.798508 
L 308.9343 192.617525 
L 309.1575 193.086061 
L 309.6039 201.735386 
L 309.8271 191.294521 
L 310.0503 196.036582 
L 310.2735 194.677538 
L 310.4967 190.571991 
L 310.7199 190.438104 
L 310.9431 195.892674 
L 311.1663 186.176674 
L 311.3895 185.152379 
L 311.6127 176.634277 
L 311.8359 190.220553 
L 312.0591 186.86209 
L 312.2823 223.391799 
L 312.5055 194.856597 
L 312.7287 189.204923 
L 312.9519 186.378065 
L 313.1751 191.20453 
L 313.3983 211.493949 
L 313.8447 192.536974 
L 314.0679 193.249931 
L 314.2911 181.301204 
L 314.5143 183.187904 
L 314.7375 368.74175 
L 314.9607 178.966803 
L 315.4071 188.244442 
L 315.6303 211.662317 
L 315.8535 212.566202 
L 316.0767 225.852446 
L 316.2999 199.085775 
L 316.5231 197.607292 
L 316.7463 225.295145 
L 316.9695 180.576934 
L 317.1927 185.465981 
L 317.4159 178.020551 
L 317.8623 205.573069 
L 318.0855 197.492078 
L 318.5319 208.467065 
L 318.7551 183.825967 
L 318.9783 206.810678 
L 319.2015 193.963728 
L 319.4247 190.254981 
L 319.6479 183.859605 
L 319.8711 183.206914 
L 320.0943 189.599243 
L 320.3175 182.14346 
L 320.7639 209.904798 
L 320.9871 180.694936 
L 321.2103 189.100473 
L 321.4335 191.553829 
L 321.6567 190.89869 
L 321.8799 180.216599 
L 322.1031 191.969066 
L 322.3263 191.837567 
L 322.5495 182.165422 
L 322.7727 182.441548 
L 322.9959 212.296815 
L 323.2191 184.827916 
L 323.4423 182.729509 
L 323.6655 184.578364 
L 323.8887 185.186503 
L 324.3351 173.218355 
L 324.5583 198.361499 
L 324.7815 179.142991 
L 325.0047 192.771587 
L 325.2279 193.231278 
L 325.6743 179.829648 
L 325.8975 178.627551 
L 326.1207 178.747065 
L 326.3439 172.09455 
L 326.5671 191.102772 
L 326.7903 181.462593 
L 327.0135 184.269721 
L 327.2367 172.846961 
L 327.4599 170.005388 
L 327.6831 179.287031 
L 327.9063 174.702653 
L 328.1295 182.369386 
L 328.5759 173.423308 
L 328.7991 187.299437 
L 329.0223 176.652908 
L 329.2455 181.713831 
L 329.4687 182.113668 
L 329.6919 209.220759 
L 329.9151 208.750805 
L 330.1383 175.519402 
L 330.3615 193.287766 
L 330.5847 188.072703 
L 330.8079 186.45205 
L 331.0311 174.82192 
L 331.4775 188.570033 
L 331.7007 191.156726 
L 331.9239 173.795459 
L 332.1471 171.759132 
L 332.3703 171.545689 
L 332.8167 178.296502 
L 333.0399 177.127735 
L 333.2631 191.462634 
L 333.4863 176.556507 
L 333.7095 169.990066 
L 333.9327 202.785705 
L 334.1559 182.954889 
L 334.3791 205.689359 
L 334.6023 203.014254 
L 334.8255 170.407552 
L 335.0487 196.432641 
L 335.2719 177.77853 
L 335.4951 180.799055 
L 335.7183 178.664896 
L 335.9415 178.888383 
L 336.1647 171.78802 
L 336.3879 174.456138 
L 336.6111 202.028852 
L 336.8343 189.946335 
L 337.0575 368.74175 
L 337.2807 186.083744 
L 337.5039 193.137489 
L 337.9503 170.999106 
L 338.1735 170.168406 
L 338.3967 182.095423 
L 338.6199 176.605794 
L 338.8431 176.72097 
L 339.0663 190.928853 
L 339.2895 177.244974 
L 339.5127 207.088833 
L 339.7359 170.411778 
L 339.9591 169.849802 
L 340.1823 180.101834 
L 340.4055 175.704649 
L 340.6287 173.747623 
L 340.8519 184.26541 
L 341.0751 159.610574 
L 341.2983 186.485864 
L 341.5215 178.367145 
L 341.7447 176.449313 
L 341.9679 184.833688 
L 342.4143 162.79393 
L 342.6375 200.933369 
L 342.8607 214.201493 
L 343.0839 170.821611 
L 343.3071 175.541756 
L 343.5303 167.417249 
L 343.7535 177.167866 
L 344.4231 167.457949 
L 344.6463 173.014385 
L 344.8695 174.993488 
L 345.0927 174.945574 
L 345.3159 169.089373 
L 345.5391 184.523679 
L 345.7623 171.875403 
L 345.9855 185.250049 
L 346.4319 168.612782 
L 346.6551 184.369388 
L 346.8783 191.342003 
L 347.1015 190.094908 
L 347.3247 168.393151 
L 347.7711 178.698134 
L 347.9943 173.576079 
L 348.2175 191.607918 
L 348.4407 172.285153 
L 348.6639 172.553339 
L 348.8871 192.759564 
L 349.1103 178.334934 
L 349.3335 177.535771 
L 349.5567 175.752117 
L 349.7799 186.652396 
L 350.2263 156.105897 
L 350.6727 172.142419 
L 350.8959 173.563326 
L 351.1191 177.898511 
L 351.3423 185.373571 
L 351.5655 173.204659 
L 351.7887 171.634765 
L 352.0119 165.905613 
L 352.2351 166.166401 
L 352.4583 162.523001 
L 352.6815 174.731965 
L 352.9047 177.681001 
L 353.1279 188.382156 
L 353.3511 169.146173 
L 353.5743 163.713966 
L 353.7975 161.025515 
L 354.0207 161.388787 
L 354.2439 165.04987 
L 354.4671 164.118705 
L 354.6903 159.91846 
L 355.1367 163.26385 
L 355.3599 187.003277 
L 355.5831 162.866464 
L 355.8063 183.808296 
L 356.2527 164.171492 
L 356.4759 178.880816 
L 356.6991 157.30519 
L 356.9223 161.825375 
L 357.1455 162.00134 
L 357.3687 175.788814 
L 357.5919 178.571574 
L 358.0383 162.507982 
L 358.2615 186.793718 
L 358.4847 153.703728 
L 358.7079 174.811436 
L 358.9311 160.768739 
L 359.1543 170.902958 
L 359.3775 368.74175 
L 359.6007 161.265997 
L 359.8239 164.882106 
L 360.0471 172.611884 
L 360.2703 197.05397 
L 360.4935 162.289038 
L 360.7167 168.208983 
L 360.9399 187.954902 
L 361.1631 179.725332 
L 361.3863 164.618252 
L 361.8327 160.451733 
L 362.0559 167.048244 
L 362.2791 188.201173 
L 362.5023 167.533616 
L 362.7255 174.593705 
L 362.9487 165.399355 
L 363.1719 167.113409 
L 363.6183 144.630426 
L 363.8415 187.389561 
L 364.2879 158.559085 
L 364.5111 163.202168 
L 364.7343 179.361795 
L 365.1807 156.912238 
L 365.4039 172.133146 
L 365.6271 160.840425 
L 365.8503 158.491897 
L 366.0735 167.305535 
L 366.2967 187.662038 
L 366.5199 169.076312 
L 366.7431 175.050189 
L 366.9663 172.264242 
L 367.1895 165.754636 
L 367.4127 155.665003 
L 367.6359 176.661619 
L 367.8591 175.375194 
L 368.0823 170.256283 
L 368.3055 168.367288 
L 368.5287 167.692959 
L 368.7519 196.990755 
L 369.1983 154.946122 
L 369.4215 155.409931 
L 369.6447 158.33864 
L 370.0911 149.653709 
L 370.3143 173.093594 
L 370.5375 151.411829 
L 370.7607 154.446147 
L 370.9839 164.002029 
L 371.2071 155.111804 
L 371.4303 153.209021 
L 371.6535 157.484772 
L 371.8767 154.025504 
L 372.0999 147.395507 
L 372.3231 177.204827 
L 372.5463 152.865676 
L 372.7695 153.83348 
L 372.9927 139.47122 
L 373.2159 150.759024 
L 373.4391 142.806685 
L 373.6623 179.877853 
L 373.8855 161.928857 
L 374.1087 188.700217 
L 374.3319 162.698353 
L 374.5551 160.344707 
L 375.2247 148.382521 
L 375.4479 159.323872 
L 375.6711 154.075573 
L 375.8943 159.058077 
L 376.1175 149.25532 
L 376.3407 151.82992 
L 376.5639 170.697563 
L 376.7871 152.191324 
L 377.0103 153.686025 
L 377.2335 158.736669 
L 377.4567 152.419634 
L 377.6799 154.394672 
L 377.9031 143.706784 
L 378.1263 150.900185 
L 378.3495 147.838261 
L 378.5727 149.485475 
L 378.7959 165.483018 
L 379.0191 157.695521 
L 379.2423 183.547107 
L 379.4655 153.711428 
L 379.6887 157.026443 
L 379.9119 165.866172 
L 380.1351 147.360432 
L 380.3583 147.306125 
L 380.5815 186.843683 
L 380.8047 185.818093 
L 381.0279 166.742449 
L 381.2511 173.404025 
L 381.4743 160.212489 
L 381.6975 368.74175 
L 381.9207 144.047848 
L 382.1439 158.825496 
L 382.3671 150.717458 
L 382.5903 160.535604 
L 382.8135 155.989834 
L 383.0367 163.247027 
L 383.4831 146.599199 
L 383.7063 152.25762 
L 383.9295 149.240374 
L 384.1527 159.967118 
L 384.3759 140.433789 
L 384.8223 155.806394 
L 385.0455 148.21751 
L 385.2687 149.548139 
L 385.4919 162.479048 
L 385.7151 141.560448 
L 385.9383 137.055541 
L 386.3847 145.690627 
L 386.6079 160.293915 
L 386.8311 162.139257 
L 387.0543 160.28869 
L 387.2775 148.997108 
L 387.5007 148.246605 
L 387.7239 153.585806 
L 387.9471 145.941145 
L 388.1703 165.530621 
L 388.3935 139.382971 
L 388.6167 155.305548 
L 388.8399 141.918204 
L 389.0631 154.927273 
L 389.2863 143.472755 
L 389.5095 162.025043 
L 389.7327 141.541875 
L 389.9559 134.057527 
L 390.1791 143.179695 
L 390.4023 133.859154 
L 390.6255 145.584061 
L 390.8487 146.210909 
L 391.0719 142.94218 
L 391.2951 153.723364 
L 391.5183 135.368564 
L 391.7415 155.20991 
L 391.9647 138.876889 
L 392.1879 150.950067 
L 392.4111 141.940428 
L 392.6343 139.599178 
L 392.8575 134.85972 
L 393.0807 147.536039 
L 393.3039 145.387641 
L 393.5271 135.339118 
L 393.7503 183.505051 
L 393.9735 159.411035 
L 394.1967 186.51861 
L 394.4199 143.642998 
L 394.6431 145.685992 
L 394.8663 129.238407 
L 395.5359 146.74602 
L 395.7591 140.967494 
L 395.9823 142.224707 
L 396.2055 138.843015 
L 396.4287 145.321497 
L 396.6519 137.130742 
L 396.8751 152.13591 
L 397.0983 143.087924 
L 397.3215 154.92043 
L 397.5447 141.05795 
L 397.7679 149.016675 
L 397.9911 141.009513 
L 398.2143 142.921974 
L 398.4375 132.364232 
L 398.6607 135.831438 
L 398.8839 150.665692 
L 399.3303 130.270155 
L 399.7767 149.983041 
L 399.9999 158.610015 
L 400.2231 159.573173 
L 400.4463 179.82715 
L 400.6695 143.262527 
L 400.8927 145.208328 
L 401.3391 129.173193 
L 401.5623 130.854996 
L 402.0087 152.592126 
L 402.4551 133.741095 
L 402.6783 137.004993 
L 402.9015 130.056579 
L 403.1247 154.009396 
L 403.3479 135.406809 
L 403.5711 133.424775 
L 403.7943 137.758616 
L 404.0175 368.74175 
L 404.2407 128.247097 
L 404.6871 143.145269 
L 404.9103 130.720458 
L 405.3567 125.446722 
L 405.5799 148.812907 
L 406.0263 132.016926 
L 406.2495 121.573189 
L 406.4727 129.280401 
L 406.6959 142.057717 
L 406.9191 129.581453 
L 407.1423 124.85128 
L 407.3655 135.864965 
L 407.5887 137.91869 
L 407.8119 135.277255 
L 408.0351 125.688401 
L 408.2583 132.095085 
L 408.4815 126.081788 
L 408.7047 151.170837 
L 408.9279 138.372508 
L 409.1511 134.439054 
L 409.3743 137.027982 
L 409.5975 129.920709 
L 409.8207 129.438229 
L 410.0439 179.479102 
L 410.2671 140.601549 
L 410.4903 146.005681 
L 410.7135 133.663623 
L 410.9367 158.124944 
L 411.1599 125.703471 
L 411.3831 129.792774 
L 411.6063 141.768505 
L 411.8295 135.319604 
L 412.0527 125.386784 
L 412.2759 128.3395 
L 412.4991 134.431504 
L 412.7223 132.169497 
L 412.9455 119.447295 
L 413.1687 123.898858 
L 413.3919 125.509033 
L 413.6151 144.032247 
L 413.8383 123.709848 
L 414.0615 129.725296 
L 414.2847 149.191032 
L 414.5079 128.100803 
L 414.7311 149.9217 
L 414.9543 144.5624 
L 415.1775 130.300939 
L 415.4007 137.072756 
L 415.6239 138.621384 
L 415.8471 144.524775 
L 416.5167 116.918357 
L 416.7399 129.492479 
L 416.9631 122.824073 
L 417.1863 127.271032 
L 417.4095 122.364958 
L 417.6327 145.004345 
L 417.8559 131.161406 
L 418.0791 131.254782 
L 418.3023 119.675642 
L 418.5255 120.072269 
L 418.7487 132.77415 
L 418.9719 121.041501 
L 419.1951 127.200381 
L 419.4183 124.658658 
L 419.6415 128.207287 
L 419.8647 152.047534 
L 420.0879 155.994022 
L 420.3111 119.78539 
L 420.5343 125.60473 
L 420.7575 115.833439 
L 420.9807 116.707602 
L 421.2039 116.25166 
L 421.4271 119.352605 
L 421.6503 130.966765 
L 421.8735 133.663938 
L 422.0967 120.209844 
L 422.3199 124.728106 
L 422.5431 119.144313 
L 422.7663 136.618956 
L 423.2127 123.447401 
L 423.4359 118.241778 
L 423.6591 121.814061 
L 423.8823 118.40755 
L 424.1055 139.636292 
L 424.3287 127.981432 
L 424.5519 127.761096 
L 424.7751 118.821836 
L 424.9983 134.594512 
L 425.2215 109.54986 
L 425.4447 110.318311 
L 425.6679 121.823761 
L 425.8911 154.138379 
L 426.1143 136.230751 
L 426.3375 368.74175 
L 426.5607 120.595565 
L 426.7839 126.206882 
L 427.0071 122.617632 
L 427.2303 121.790784 
L 427.4535 132.16813 
L 427.6767 135.290387 
L 427.8999 122.496451 
L 428.1231 122.099529 
L 428.3463 116.315413 
L 428.5695 128.471977 
L 428.7927 109.276151 
L 429.0159 125.125169 
L 429.2391 112.408337 
L 429.4623 115.337224 
L 429.6855 138.447241 
L 430.1319 120.124247 
L 430.3551 120.202094 
L 430.5783 117.83086 
L 430.8015 122.424103 
L 431.0247 115.137999 
L 431.2479 130.321392 
L 431.4711 128.343396 
L 431.6943 116.984094 
L 431.9175 133.539917 
L 432.1407 137.7742 
L 432.3639 121.582642 
L 432.5871 141.372524 
L 432.8103 122.193928 
L 433.0335 114.237646 
L 433.2567 124.078647 
L 433.4799 114.791679 
L 433.7031 110.239088 
L 433.9263 112.701894 
L 434.1495 121.389785 
L 434.3727 113.051646 
L 434.5959 128.384027 
L 434.8191 127.496071 
L 435.0423 108.441964 
L 435.2655 116.05135 
L 435.4887 113.023071 
L 435.9351 130.101222 
L 436.1583 116.787819 
L 436.3815 112.910052 
L 437.0511 123.196901 
L 437.2743 130.242077 
L 437.4975 129.714997 
L 437.7207 141.931177 
L 437.9439 118.929559 
L 438.1671 121.914333 
L 438.3903 105.293789 
L 439.0599 139.409037 
L 439.2831 135.236313 
L 439.5063 108.38234 
L 439.7295 130.927202 
L 439.9527 121.867625 
L 440.1759 133.607318 
L 440.3991 112.531421 
L 440.6223 131.245726 
L 440.8455 130.503108 
L 441.0687 106.555008 
L 441.2919 111.559618 
L 441.5151 108.520638 
L 441.7383 99.46073 
L 441.9615 120.98095 
L 442.4079 100.11972 
L 442.8543 116.58541 
L 443.0775 141.820222 
L 443.3007 133.631456 
L 443.7471 107.985963 
L 443.9703 118.8784 
L 444.1935 159.849559 
L 444.4167 109.169853 
L 444.6399 121.086149 
L 444.8631 115.548736 
L 445.0863 114.246378 
L 445.3095 114.530607 
L 445.5327 111.853386 
L 445.7559 93.963914 
L 446.2023 116.947277 
L 446.4255 110.475186 
L 446.6487 108.102481 
L 446.8719 115.824485 
L 447.0951 98.203155 
L 447.3183 136.304327 
L 447.5415 98.143702 
L 447.7647 117.052103 
L 447.9879 123.500871 
L 448.2111 109.009853 
L 448.4343 104.874775 
L 448.6575 368.74175 
L 448.8807 115.965462 
L 449.1039 116.94154 
L 449.3271 112.204278 
L 449.5503 120.360723 
L 449.7735 103.982753 
L 449.9967 100.502855 
L 450.2199 106.592776 
L 450.6663 105.227957 
L 450.8895 107.757877 
L 451.1127 95.288956 
L 451.3359 95.813459 
L 451.5591 104.881155 
L 451.7823 103.357487 
L 452.0055 94.521929 
L 452.4519 109.388744 
L 452.6751 114.700795 
L 452.8983 98.13858 
L 453.1215 115.150163 
L 453.3447 116.319619 
L 453.5679 89.399989 
L 453.7911 96.514207 
L 454.0143 113.760893 
L 454.2375 109.71818 
L 454.4607 128.623492 
L 454.9071 102.312714 
L 455.1303 110.012461 
L 455.3535 105.333432 
L 455.7999 116.085712 
L 456.0231 98.773947 
L 456.4695 103.108774 
L 456.6927 114.386818 
L 456.9159 102.25074 
L 457.1391 114.240837 
L 457.3623 115.753477 
L 457.5855 113.756435 
L 457.8087 123.904755 
L 458.0319 124.775774 
L 458.2551 146.498337 
L 458.4783 137.79745 
L 458.7015 144.329431 
L 458.9247 112.932127 
L 459.1479 139.655385 
L 459.3711 101.583713 
L 459.5943 120.399398 
L 459.8175 104.474271 
L 460.0407 103.198654 
L 460.2639 113.14707 
L 460.4871 137.4742 
L 460.7103 93.981535 
L 460.9335 90.778589 
L 461.1567 97.091952 
L 461.3799 98.908355 
L 461.6031 105.59405 
L 461.8263 92.830101 
L 462.0495 98.788196 
L 462.4959 114.880316 
L 462.7191 101.541769 
L 462.9423 112.117919 
L 463.1655 97.175832 
L 463.6119 116.928017 
L 463.8351 101.706991 
L 464.2815 98.558089 
L 464.5047 107.040116 
L 464.7279 95.045647 
L 464.9511 99.626565 
L 465.1743 106.521954 
L 465.3975 98.152885 
L 465.6207 96.745017 
L 465.8439 103.627131 
L 466.0671 115.562536 
L 466.2903 106.833079 
L 466.5135 105.990274 
L 466.7367 93.906558 
L 466.9599 93.825025 
L 467.1831 103.078384 
L 467.4063 90.553928 
L 467.6295 104.127418 
L 467.8527 92.653454 
L 468.0759 88.139377 
L 468.2991 91.640323 
L 468.7455 102.838719 
L 469.1919 97.792622 
L 469.4151 92.698914 
L 469.6383 105.268565 
L 469.8615 106.623244 
L 470.0847 101.437454 
L 470.3079 91.984905 
L 470.5311 109.617848 
L 470.7543 95.529712 
L 470.9775 368.74175 
L 471.2007 96.399052 
L 471.4239 86.667603 
L 471.6471 109.28481 
L 471.8703 88.559488 
L 472.0935 93.738433 
L 472.3167 91.981408 
L 472.5399 107.7039 
L 472.7631 86.347507 
L 472.9863 117.018437 
L 473.2095 106.876782 
L 473.4327 86.529471 
L 473.6559 100.844735 
L 473.8791 96.108432 
L 474.1023 80.946421 
L 474.3255 108.597523 
L 474.5487 89.751913 
L 474.7719 106.146736 
L 475.2183 86.655407 
L 475.4415 102.586572 
L 475.6647 100.221077 
L 475.8879 92.427124 
L 476.1111 105.004786 
L 476.3343 74.838816 
L 476.5575 82.097932 
L 476.7807 121.243747 
L 477.0039 80.087555 
L 477.2271 80.971376 
L 477.4503 92.064163 
L 477.8967 101.36947 
L 478.1199 97.621791 
L 478.3431 102.960004 
L 478.5663 82.720854 
L 478.7895 86.948215 
L 479.0127 110.444639 
L 479.2359 94.285775 
L 479.4591 93.801654 
L 479.6823 106.5985 
L 479.9055 93.682776 
L 480.1287 100.563056 
L 480.3519 115.849416 
L 480.7983 94.434411 
L 481.0215 96.238719 
L 481.2447 82.174466 
L 481.6911 78.713478 
L 482.1375 97.839464 
L 482.5839 75.985229 
L 482.8071 100.411092 
L 483.0303 99.11343 
L 483.2535 67.672893 
L 483.4767 95.100401 
L 483.6999 84.064913 
L 483.9231 87.431749 
L 484.1463 73.222621 
L 484.3695 100.179193 
L 484.5927 75.948784 
L 484.8159 67.139347 
L 485.0391 74.69332 
L 485.2623 90.801256 
L 485.4855 84.808069 
L 485.7087 90.093195 
L 485.9319 77.431228 
L 486.1551 99.349579 
L 486.3783 88.096555 
L 486.6015 102.096059 
L 486.8247 94.784952 
L 487.0479 94.06126 
L 487.2711 94.243227 
L 487.4943 109.633373 
L 487.7175 71.807632 
L 488.1639 112.547071 
L 488.3871 71.258028 
L 488.6103 79.875851 
L 488.8335 103.501937 
L 489.0567 92.353477 
L 489.2799 70.077528 
L 489.5031 75.087386 
L 489.9495 113.527917 
L 490.6191 77.762308 
L 490.8423 84.731276 
L 491.0655 78.550893 
L 491.2887 98.29428 
L 491.5119 98.944494 
L 491.9583 79.694634 
L 492.1815 74.035257 
L 492.6279 96.088161 
L 492.8511 77.683358 
L 493.0743 102.619728 
L 493.2975 368.74175 
L 493.2975 368.74175 
" style="fill:none;stroke:#0000ff;stroke-linecap:square;stroke-width:0.5;"/>
   </g>
   <g id="patch_3">
    <path d="M 46.8975 23.14175 
L 493.2975 23.14175 
" style="fill:none;stroke:#000000;stroke-linecap:square;stroke-linejoin:miter;"/>
   </g>
   <g id="patch_4">
    <path d="M 46.8975 368.74175 
L 46.8975 23.14175 
" style="fill:none;stroke:#000000;stroke-linecap:square;stroke-linejoin:miter;"/>
   </g>
   <g id="patch_5">
    <path d="M 46.8975 368.74175 
L 493.2975 368.74175 
" style="fill:none;stroke:#000000;stroke-linecap:square;stroke-linejoin:miter;"/>
   </g>
   <g id="patch_6">
    <path d="M 493.2975 368.74175 
L 493.2975 23.14175 
" style="fill:none;stroke:#000000;stroke-linecap:square;stroke-linejoin:miter;"/>
   </g>
   <g id="matplotlib.axis_1">
    <g id="xtick_1">
     <g id="line2d_2">
      <defs>
       <path d="M 0 0 
L 0 -4 
" id="mc2e2c587bf" style="stroke:#000000;stroke-width:0.5;"/>
      </defs>
      <g>
       <use style="stroke:#000000;stroke-width:0.5;" x="46.8975" xlink:href="#mc2e2c587bf" y="368.74175"/>
      </g>
     </g>
     <g id="line2d_3">
      <defs>
       <path d="M 0 0 
L 0 4 
" id="m87efba187e" style="stroke:#000000;stroke-width:0.5;"/>
      </defs>
      <g>
       <use style="stroke:#000000;stroke-width:0.5;" x="46.8975" xlink:href="#m87efba187e" y="23.14175"/>
      </g>
     </g>
     <g id="text_1">
      <!-- 0 -->
      <defs>
       <path d="M 31.78125 66.40625 
Q 24.171875 66.40625 20.328125 58.90625 
Q 16.5 51.421875 16.5 36.375 
Q 16.5 21.390625 20.328125 13.890625 
Q 24.171875 6.390625 31.78125 6.390625 
Q 39.453125 6.390625 43.28125 13.890625 
Q 47.125 21.390625 47.125 36.375 
Q 47.125 51.421875 43.28125 58.90625 
Q 39.453125 66.40625 31.78125 66.40625 
M 31.78125 74.21875 
Q 44.046875 74.21875 50.515625 64.515625 
Q 56.984375 54.828125 56.984375 36.375 
Q 56.984375 17.96875 50.515625 8.265625 
Q 44.046875 -1.421875 31.78125 -1.421875 
Q 19.53125 -1.421875 13.0625 8.265625 
Q 6.59375 17.96875 6.59375 36.375 
Q 6.59375 54.828125 13.0625 64.515625 
Q 19.53125 74.21875 31.78125 74.21875 
" id="BitstreamVeraSans-Roman-30"/>
      </defs>
      <g transform="translate(43.08 381.859875)scale(0.12 -0.12)">
       <use xlink:href="#BitstreamVeraSans-Roman-30"/>
      </g>
     </g>
    </g>
    <g id="xtick_2">
     <g id="line2d_4">
      <g>
       <use style="stroke:#000000;stroke-width:0.5;" x="158.4975" xlink:href="#mc2e2c587bf" y="368.74175"/>
      </g>
     </g>
     <g id="line2d_5">
      <g>
       <use style="stroke:#000000;stroke-width:0.5;" x="158.4975" xlink:href="#m87efba187e" y="23.14175"/>
      </g>
     </g>
     <g id="text_2">
      <!-- 500 -->
      <defs>
       <path d="M 10.796875 72.90625 
L 49.515625 72.90625 
L 49.515625 64.59375 
L 19.828125 64.59375 
L 19.828125 46.734375 
Q 21.96875 47.46875 24.109375 47.828125 
Q 26.265625 48.1875 28.421875 48.1875 
Q 40.625 48.1875 47.75 41.5 
Q 54.890625 34.8125 54.890625 23.390625 
Q 54.890625 11.625 47.5625 5.09375 
Q 40.234375 -1.421875 26.90625 -1.421875 
Q 22.3125 -1.421875 17.546875 -0.640625 
Q 12.796875 0.140625 7.71875 1.703125 
L 7.71875 11.625 
Q 12.109375 9.234375 16.796875 8.0625 
Q 21.484375 6.890625 26.703125 6.890625 
Q 35.15625 6.890625 40.078125 11.328125 
Q 45.015625 15.765625 45.015625 23.390625 
Q 45.015625 31 40.078125 35.4375 
Q 35.15625 39.890625 26.703125 39.890625 
Q 22.75 39.890625 18.8125 39.015625 
Q 14.890625 38.140625 10.796875 36.28125 
z
" id="BitstreamVeraSans-Roman-35"/>
      </defs>
      <g transform="translate(147.045 381.859875)scale(0.12 -0.12)">
       <use xlink:href="#BitstreamVeraSans-Roman-35"/>
       <use x="63.623046875" xlink:href="#BitstreamVeraSans-Roman-30"/>
       <use x="127.24609375" xlink:href="#BitstreamVeraSans-Roman-30"/>
      </g>
     </g>
    </g>
    <g id="xtick_3">
     <g id="line2d_6">
      <g>
       <use style="stroke:#000000;stroke-width:0.5;" x="270.0975" xlink:href="#mc2e2c587bf" y="368.74175"/>
      </g>
     </g>
     <g id="line2d_7">
      <g>
       <use style="stroke:#000000;stroke-width:0.5;" x="270.0975" xlink:href="#m87efba187e" y="23.14175"/>
      </g>
     </g>
     <g id="text_3">
      <!-- 1000 -->
      <defs>
       <path d="M 12.40625 8.296875 
L 28.515625 8.296875 
L 28.515625 63.921875 
L 10.984375 60.40625 
L 10.984375 69.390625 
L 28.421875 72.90625 
L 38.28125 72.90625 
L 38.28125 8.296875 
L 54.390625 8.296875 
L 54.390625 0 
L 12.40625 0 
z
" id="BitstreamVeraSans-Roman-31"/>
      </defs>
      <g transform="translate(254.8275 381.859875)scale(0.12 -0.12)">
       <use xlink:href="#BitstreamVeraSans-Roman-31"/>
       <use x="63.623046875" xlink:href="#BitstreamVeraSans-Roman-30"/>
       <use x="127.24609375" xlink:href="#BitstreamVeraSans-Roman-30"/>
       <use x="190.869140625" xlink:href="#BitstreamVeraSans-Roman-30"/>
      </g>
     </g>
    </g>
    <g id="xtick_4">
     <g id="line2d_8">
      <g>
       <use style="stroke:#000000;stroke-width:0.5;" x="381.6975" xlink:href="#mc2e2c587bf" y="368.74175"/>
      </g>
     </g>
     <g id="line2d_9">
      <g>
       <use style="stroke:#000000;stroke-width:0.5;" x="381.6975" xlink:href="#m87efba187e" y="23.14175"/>
      </g>
     </g>
     <g id="text_4">
      <!-- 1500 -->
      <g transform="translate(366.4275 381.859875)scale(0.12 -0.12)">
       <use xlink:href="#BitstreamVeraSans-Roman-31"/>
       <use x="63.623046875" xlink:href="#BitstreamVeraSans-Roman-35"/>
       <use x="127.24609375" xlink:href="#BitstreamVeraSans-Roman-30"/>
       <use x="190.869140625" xlink:href="#BitstreamVeraSans-Roman-30"/>
      </g>
     </g>
    </g>
    <g id="xtick_5">
     <g id="line2d_10">
      <g>
       <use style="stroke:#000000;stroke-width:0.5;" x="493.2975" xlink:href="#mc2e2c587bf" y="368.74175"/>
      </g>
     </g>
     <g id="line2d_11">
      <g>
       <use style="stroke:#000000;stroke-width:0.5;" x="493.2975" xlink:href="#m87efba187e" y="23.14175"/>
      </g>
     </g>
     <g id="text_5">
      <!-- 2000 -->
      <defs>
       <path d="M 19.1875 8.296875 
L 53.609375 8.296875 
L 53.609375 0 
L 7.328125 0 
L 7.328125 8.296875 
Q 12.9375 14.109375 22.625 23.890625 
Q 32.328125 33.6875 34.8125 36.53125 
Q 39.546875 41.84375 41.421875 45.53125 
Q 43.3125 49.21875 43.3125 52.78125 
Q 43.3125 58.59375 39.234375 62.25 
Q 35.15625 65.921875 28.609375 65.921875 
Q 23.96875 65.921875 18.8125 64.3125 
Q 13.671875 62.703125 7.8125 59.421875 
L 7.8125 69.390625 
Q 13.765625 71.78125 18.9375 73 
Q 24.125 74.21875 28.421875 74.21875 
Q 39.75 74.21875 46.484375 68.546875 
Q 53.21875 62.890625 53.21875 53.421875 
Q 53.21875 48.921875 51.53125 44.890625 
Q 49.859375 40.875 45.40625 35.40625 
Q 44.1875 33.984375 37.640625 27.21875 
Q 31.109375 20.453125 19.1875 8.296875 
" id="BitstreamVeraSans-Roman-32"/>
      </defs>
      <g transform="translate(478.0275 381.859875)scale(0.12 -0.12)">
       <use xlink:href="#BitstreamVeraSans-Roman-32"/>
       <use x="63.623046875" xlink:href="#BitstreamVeraSans-Roman-30"/>
       <use x="127.24609375" xlink:href="#BitstreamVeraSans-Roman-30"/>
       <use x="190.869140625" xlink:href="#BitstreamVeraSans-Roman-30"/>
      </g>
     </g>
    </g>
    <g id="text_6">
     <!-- episode -->
     <defs>
      <path d="M 45.40625 46.390625 
L 45.40625 75.984375 
L 54.390625 75.984375 
L 54.390625 0 
L 45.40625 0 
L 45.40625 8.203125 
Q 42.578125 3.328125 38.25 0.953125 
Q 33.9375 -1.421875 27.875 -1.421875 
Q 17.96875 -1.421875 11.734375 6.484375 
Q 5.515625 14.40625 5.515625 27.296875 
Q 5.515625 40.1875 11.734375 48.09375 
Q 17.96875 56 27.875 56 
Q 33.9375 56 38.25 53.625 
Q 42.578125 51.265625 45.40625 46.390625 
M 14.796875 27.296875 
Q 14.796875 17.390625 18.875 11.75 
Q 22.953125 6.109375 30.078125 6.109375 
Q 37.203125 6.109375 41.296875 11.75 
Q 45.40625 17.390625 45.40625 27.296875 
Q 45.40625 37.203125 41.296875 42.84375 
Q 37.203125 48.484375 30.078125 48.484375 
Q 22.953125 48.484375 18.875 42.84375 
Q 14.796875 37.203125 14.796875 27.296875 
" id="BitstreamVeraSans-Roman-64"/>
      <path d="M 56.203125 29.59375 
L 56.203125 25.203125 
L 14.890625 25.203125 
Q 15.484375 15.921875 20.484375 11.0625 
Q 25.484375 6.203125 34.421875 6.203125 
Q 39.59375 6.203125 44.453125 7.46875 
Q 49.3125 8.734375 54.109375 11.28125 
L 54.109375 2.78125 
Q 49.265625 0.734375 44.1875 -0.34375 
Q 39.109375 -1.421875 33.890625 -1.421875 
Q 20.796875 -1.421875 13.15625 6.1875 
Q 5.515625 13.8125 5.515625 26.8125 
Q 5.515625 40.234375 12.765625 48.109375 
Q 20.015625 56 32.328125 56 
Q 43.359375 56 49.78125 48.890625 
Q 56.203125 41.796875 56.203125 29.59375 
M 47.21875 32.234375 
Q 47.125 39.59375 43.09375 43.984375 
Q 39.0625 48.390625 32.421875 48.390625 
Q 24.90625 48.390625 20.390625 44.140625 
Q 15.875 39.890625 15.1875 32.171875 
z
" id="BitstreamVeraSans-Roman-65"/>
      <path d="M 9.421875 54.6875 
L 18.40625 54.6875 
L 18.40625 0 
L 9.421875 0 
z
M 9.421875 75.984375 
L 18.40625 75.984375 
L 18.40625 64.59375 
L 9.421875 64.59375 
z
" id="BitstreamVeraSans-Roman-69"/>
      <path d="M 30.609375 48.390625 
Q 23.390625 48.390625 19.1875 42.75 
Q 14.984375 37.109375 14.984375 27.296875 
Q 14.984375 17.484375 19.15625 11.84375 
Q 23.34375 6.203125 30.609375 6.203125 
Q 37.796875 6.203125 41.984375 11.859375 
Q 46.1875 17.53125 46.1875 27.296875 
Q 46.1875 37.015625 41.984375 42.703125 
Q 37.796875 48.390625 30.609375 48.390625 
M 30.609375 56 
Q 42.328125 56 49.015625 48.375 
Q 55.71875 40.765625 55.71875 27.296875 
Q 55.71875 13.875 49.015625 6.21875 
Q 42.328125 -1.421875 30.609375 -1.421875 
Q 18.84375 -1.421875 12.171875 6.21875 
Q 5.515625 13.875 5.515625 27.296875 
Q 5.515625 40.765625 12.171875 48.375 
Q 18.84375 56 30.609375 56 
" id="BitstreamVeraSans-Roman-6f"/>
      <path d="M 18.109375 8.203125 
L 18.109375 -20.796875 
L 9.078125 -20.796875 
L 9.078125 54.6875 
L 18.109375 54.6875 
L 18.109375 46.390625 
Q 20.953125 51.265625 25.265625 53.625 
Q 29.59375 56 35.59375 56 
Q 45.5625 56 51.78125 48.09375 
Q 58.015625 40.1875 58.015625 27.296875 
Q 58.015625 14.40625 51.78125 6.484375 
Q 45.5625 -1.421875 35.59375 -1.421875 
Q 29.59375 -1.421875 25.265625 0.953125 
Q 20.953125 3.328125 18.109375 8.203125 
M 48.6875 27.296875 
Q 48.6875 37.203125 44.609375 42.84375 
Q 40.53125 48.484375 33.40625 48.484375 
Q 26.265625 48.484375 22.1875 42.84375 
Q 18.109375 37.203125 18.109375 27.296875 
Q 18.109375 17.390625 22.1875 11.75 
Q 26.265625 6.109375 33.40625 6.109375 
Q 40.53125 6.109375 44.609375 11.75 
Q 48.6875 17.390625 48.6875 27.296875 
" id="BitstreamVeraSans-Roman-70"/>
      <path d="M 44.28125 53.078125 
L 44.28125 44.578125 
Q 40.484375 46.53125 36.375 47.5 
Q 32.28125 48.484375 27.875 48.484375 
Q 21.1875 48.484375 17.84375 46.4375 
Q 14.5 44.390625 14.5 40.28125 
Q 14.5 37.15625 16.890625 35.375 
Q 19.28125 33.59375 26.515625 31.984375 
L 29.59375 31.296875 
Q 39.15625 29.25 43.1875 25.515625 
Q 47.21875 21.78125 47.21875 15.09375 
Q 47.21875 7.46875 41.1875 3.015625 
Q 35.15625 -1.421875 24.609375 -1.421875 
Q 20.21875 -1.421875 15.453125 -0.5625 
Q 10.6875 0.296875 5.421875 2 
L 5.421875 11.28125 
Q 10.40625 8.6875 15.234375 7.390625 
Q 20.0625 6.109375 24.8125 6.109375 
Q 31.15625 6.109375 34.5625 8.28125 
Q 37.984375 10.453125 37.984375 14.40625 
Q 37.984375 18.0625 35.515625 20.015625 
Q 33.0625 21.96875 24.703125 23.78125 
L 21.578125 24.515625 
Q 13.234375 26.265625 9.515625 29.90625 
Q 5.8125 33.546875 5.8125 39.890625 
Q 5.8125 47.609375 11.28125 51.796875 
Q 16.75 56 26.8125 56 
Q 31.78125 56 36.171875 55.265625 
Q 40.578125 54.546875 44.28125 53.078125 
" id="BitstreamVeraSans-Roman-73"/>
     </defs>
     <g transform="translate(246.631875 398.473625)scale(0.12 -0.12)">
      <use xlink:href="#BitstreamVeraSans-Roman-65"/>
      <use x="61.5234375" xlink:href="#BitstreamVeraSans-Roman-70"/>
      <use x="125.0" xlink:href="#BitstreamVeraSans-Roman-69"/>
      <use x="152.783203125" xlink:href="#BitstreamVeraSans-Roman-73"/>
      <use x="204.8828125" xlink:href="#BitstreamVeraSans-Roman-6f"/>
      <use x="266.064453125" xlink:href="#BitstreamVeraSans-Roman-64"/>
      <use x="329.541015625" xlink:href="#BitstreamVeraSans-Roman-65"/>
     </g>
    </g>
   </g>
   <g id="matplotlib.axis_2">
    <g id="ytick_1">
     <g id="line2d_12">
      <defs>
       <path d="M 0 0 
L 4 0 
" id="mda91f62aec" style="stroke:#000000;stroke-width:0.5;"/>
      </defs>
      <g>
       <use style="stroke:#000000;stroke-width:0.5;" x="46.8975" xlink:href="#mda91f62aec" y="368.74175"/>
      </g>
     </g>
     <g id="line2d_13">
      <defs>
       <path d="M 0 0 
L -4 0 
" id="m4692b20e64" style="stroke:#000000;stroke-width:0.5;"/>
      </defs>
      <g>
       <use style="stroke:#000000;stroke-width:0.5;" x="493.2975" xlink:href="#m4692b20e64" y="368.74175"/>
      </g>
     </g>
     <g id="text_7">
      <!-- 0.0 -->
      <defs>
       <path d="M 10.6875 12.40625 
L 21 12.40625 
L 21 0 
L 10.6875 0 
z
" id="BitstreamVeraSans-Roman-2e"/>
      </defs>
      <g transform="translate(23.81375 372.053)scale(0.12 -0.12)">
       <use xlink:href="#BitstreamVeraSans-Roman-30"/>
       <use x="63.623046875" xlink:href="#BitstreamVeraSans-Roman-2e"/>
       <use x="95.41015625" xlink:href="#BitstreamVeraSans-Roman-30"/>
      </g>
     </g>
    </g>
    <g id="ytick_2">
     <g id="line2d_14">
      <g>
       <use style="stroke:#000000;stroke-width:0.5;" x="46.8975" xlink:href="#mda91f62aec" y="311.14175"/>
      </g>
     </g>
     <g id="line2d_15">
      <g>
       <use style="stroke:#000000;stroke-width:0.5;" x="493.2975" xlink:href="#m4692b20e64" y="311.14175"/>
      </g>
     </g>
     <g id="text_8">
      <!-- 0.2 -->
      <g transform="translate(23.81375 314.453)scale(0.12 -0.12)">
       <use xlink:href="#BitstreamVeraSans-Roman-30"/>
       <use x="63.623046875" xlink:href="#BitstreamVeraSans-Roman-2e"/>
       <use x="95.41015625" xlink:href="#BitstreamVeraSans-Roman-32"/>
      </g>
     </g>
    </g>
    <g id="ytick_3">
     <g id="line2d_16">
      <g>
       <use style="stroke:#000000;stroke-width:0.5;" x="46.8975" xlink:href="#mda91f62aec" y="253.54175"/>
      </g>
     </g>
     <g id="line2d_17">
      <g>
       <use style="stroke:#000000;stroke-width:0.5;" x="493.2975" xlink:href="#m4692b20e64" y="253.54175"/>
      </g>
     </g>
     <g id="text_9">
      <!-- 0.4 -->
      <defs>
       <path d="M 37.796875 64.3125 
L 12.890625 25.390625 
L 37.796875 25.390625 
z
M 35.203125 72.90625 
L 47.609375 72.90625 
L 47.609375 25.390625 
L 58.015625 25.390625 
L 58.015625 17.1875 
L 47.609375 17.1875 
L 47.609375 0 
L 37.796875 0 
L 37.796875 17.1875 
L 4.890625 17.1875 
L 4.890625 26.703125 
z
" id="BitstreamVeraSans-Roman-34"/>
      </defs>
      <g transform="translate(23.81375 256.853)scale(0.12 -0.12)">
       <use xlink:href="#BitstreamVeraSans-Roman-30"/>
       <use x="63.623046875" xlink:href="#BitstreamVeraSans-Roman-2e"/>
       <use x="95.41015625" xlink:href="#BitstreamVeraSans-Roman-34"/>
      </g>
     </g>
    </g>
    <g id="ytick_4">
     <g id="line2d_18">
      <g>
       <use style="stroke:#000000;stroke-width:0.5;" x="46.8975" xlink:href="#mda91f62aec" y="195.94175"/>
      </g>
     </g>
     <g id="line2d_19">
      <g>
       <use style="stroke:#000000;stroke-width:0.5;" x="493.2975" xlink:href="#m4692b20e64" y="195.94175"/>
      </g>
     </g>
     <g id="text_10">
      <!-- 0.6 -->
      <defs>
       <path d="M 33.015625 40.375 
Q 26.375 40.375 22.484375 35.828125 
Q 18.609375 31.296875 18.609375 23.390625 
Q 18.609375 15.53125 22.484375 10.953125 
Q 26.375 6.390625 33.015625 6.390625 
Q 39.65625 6.390625 43.53125 10.953125 
Q 47.40625 15.53125 47.40625 23.390625 
Q 47.40625 31.296875 43.53125 35.828125 
Q 39.65625 40.375 33.015625 40.375 
M 52.59375 71.296875 
L 52.59375 62.3125 
Q 48.875 64.0625 45.09375 64.984375 
Q 41.3125 65.921875 37.59375 65.921875 
Q 27.828125 65.921875 22.671875 59.328125 
Q 17.53125 52.734375 16.796875 39.40625 
Q 19.671875 43.65625 24.015625 45.921875 
Q 28.375 48.1875 33.59375 48.1875 
Q 44.578125 48.1875 50.953125 41.515625 
Q 57.328125 34.859375 57.328125 23.390625 
Q 57.328125 12.15625 50.6875 5.359375 
Q 44.046875 -1.421875 33.015625 -1.421875 
Q 20.359375 -1.421875 13.671875 8.265625 
Q 6.984375 17.96875 6.984375 36.375 
Q 6.984375 53.65625 15.1875 63.9375 
Q 23.390625 74.21875 37.203125 74.21875 
Q 40.921875 74.21875 44.703125 73.484375 
Q 48.484375 72.75 52.59375 71.296875 
" id="BitstreamVeraSans-Roman-36"/>
      </defs>
      <g transform="translate(23.81375 199.253)scale(0.12 -0.12)">
       <use xlink:href="#BitstreamVeraSans-Roman-30"/>
       <use x="63.623046875" xlink:href="#BitstreamVeraSans-Roman-2e"/>
       <use x="95.41015625" xlink:href="#BitstreamVeraSans-Roman-36"/>
      </g>
     </g>
    </g>
    <g id="ytick_5">
     <g id="line2d_20">
      <g>
       <use style="stroke:#000000;stroke-width:0.5;" x="46.8975" xlink:href="#mda91f62aec" y="138.34175"/>
      </g>
     </g>
     <g id="line2d_21">
      <g>
       <use style="stroke:#000000;stroke-width:0.5;" x="493.2975" xlink:href="#m4692b20e64" y="138.34175"/>
      </g>
     </g>
     <g id="text_11">
      <!-- 0.8 -->
      <defs>
       <path d="M 31.78125 34.625 
Q 24.75 34.625 20.71875 30.859375 
Q 16.703125 27.09375 16.703125 20.515625 
Q 16.703125 13.921875 20.71875 10.15625 
Q 24.75 6.390625 31.78125 6.390625 
Q 38.8125 6.390625 42.859375 10.171875 
Q 46.921875 13.96875 46.921875 20.515625 
Q 46.921875 27.09375 42.890625 30.859375 
Q 38.875 34.625 31.78125 34.625 
M 21.921875 38.8125 
Q 15.578125 40.375 12.03125 44.71875 
Q 8.5 49.078125 8.5 55.328125 
Q 8.5 64.0625 14.71875 69.140625 
Q 20.953125 74.21875 31.78125 74.21875 
Q 42.671875 74.21875 48.875 69.140625 
Q 55.078125 64.0625 55.078125 55.328125 
Q 55.078125 49.078125 51.53125 44.71875 
Q 48 40.375 41.703125 38.8125 
Q 48.828125 37.15625 52.796875 32.3125 
Q 56.78125 27.484375 56.78125 20.515625 
Q 56.78125 9.90625 50.3125 4.234375 
Q 43.84375 -1.421875 31.78125 -1.421875 
Q 19.734375 -1.421875 13.25 4.234375 
Q 6.78125 9.90625 6.78125 20.515625 
Q 6.78125 27.484375 10.78125 32.3125 
Q 14.796875 37.15625 21.921875 38.8125 
M 18.3125 54.390625 
Q 18.3125 48.734375 21.84375 45.5625 
Q 25.390625 42.390625 31.78125 42.390625 
Q 38.140625 42.390625 41.71875 45.5625 
Q 45.3125 48.734375 45.3125 54.390625 
Q 45.3125 60.0625 41.71875 63.234375 
Q 38.140625 66.40625 31.78125 66.40625 
Q 25.390625 66.40625 21.84375 63.234375 
Q 18.3125 60.0625 18.3125 54.390625 
" id="BitstreamVeraSans-Roman-38"/>
      </defs>
      <g transform="translate(23.81375 141.653)scale(0.12 -0.12)">
       <use xlink:href="#BitstreamVeraSans-Roman-30"/>
       <use x="63.623046875" xlink:href="#BitstreamVeraSans-Roman-2e"/>
       <use x="95.41015625" xlink:href="#BitstreamVeraSans-Roman-38"/>
      </g>
     </g>
    </g>
    <g id="ytick_6">
     <g id="line2d_22">
      <g>
       <use style="stroke:#000000;stroke-width:0.5;" x="46.8975" xlink:href="#mda91f62aec" y="80.74175"/>
      </g>
     </g>
     <g id="line2d_23">
      <g>
       <use style="stroke:#000000;stroke-width:0.5;" x="493.2975" xlink:href="#m4692b20e64" y="80.74175"/>
      </g>
     </g>
     <g id="text_12">
      <!-- 1.0 -->
      <g transform="translate(23.81375 84.053)scale(0.12 -0.12)">
       <use xlink:href="#BitstreamVeraSans-Roman-31"/>
       <use x="63.623046875" xlink:href="#BitstreamVeraSans-Roman-2e"/>
       <use x="95.41015625" xlink:href="#BitstreamVeraSans-Roman-30"/>
      </g>
     </g>
    </g>
    <g id="ytick_7">
     <g id="line2d_24">
      <g>
       <use style="stroke:#000000;stroke-width:0.5;" x="46.8975" xlink:href="#mda91f62aec" y="23.14175"/>
      </g>
     </g>
     <g id="line2d_25">
      <g>
       <use style="stroke:#000000;stroke-width:0.5;" x="493.2975" xlink:href="#m4692b20e64" y="23.14175"/>
      </g>
     </g>
     <g id="text_13">
      <!-- 1.2 -->
      <g transform="translate(23.81375 26.453)scale(0.12 -0.12)">
       <use xlink:href="#BitstreamVeraSans-Roman-31"/>
       <use x="63.623046875" xlink:href="#BitstreamVeraSans-Roman-2e"/>
       <use x="95.41015625" xlink:href="#BitstreamVeraSans-Roman-32"/>
      </g>
     </g>
    </g>
    <g id="text_14">
     <!-- average maxQ -->
     <defs>
      <path d="M 2.984375 54.6875 
L 12.5 54.6875 
L 29.59375 8.796875 
L 46.6875 54.6875 
L 56.203125 54.6875 
L 35.6875 0 
L 23.484375 0 
z
" id="BitstreamVeraSans-Roman-76"/>
      <path id="BitstreamVeraSans-Roman-20"/>
      <path d="M 52 44.1875 
Q 55.375 50.25 60.0625 53.125 
Q 64.75 56 71.09375 56 
Q 79.640625 56 84.28125 50.015625 
Q 88.921875 44.046875 88.921875 33.015625 
L 88.921875 0 
L 79.890625 0 
L 79.890625 32.71875 
Q 79.890625 40.578125 77.09375 44.375 
Q 74.3125 48.1875 68.609375 48.1875 
Q 61.625 48.1875 57.5625 43.546875 
Q 53.515625 38.921875 53.515625 30.90625 
L 53.515625 0 
L 44.484375 0 
L 44.484375 32.71875 
Q 44.484375 40.625 41.703125 44.40625 
Q 38.921875 48.1875 33.109375 48.1875 
Q 26.21875 48.1875 22.15625 43.53125 
Q 18.109375 38.875 18.109375 30.90625 
L 18.109375 0 
L 9.078125 0 
L 9.078125 54.6875 
L 18.109375 54.6875 
L 18.109375 46.1875 
Q 21.1875 51.21875 25.484375 53.609375 
Q 29.78125 56 35.6875 56 
Q 41.65625 56 45.828125 52.96875 
Q 50 49.953125 52 44.1875 
" id="BitstreamVeraSans-Roman-6d"/>
      <path d="M 54.890625 54.6875 
L 35.109375 28.078125 
L 55.90625 0 
L 45.3125 0 
L 29.390625 21.484375 
L 13.484375 0 
L 2.875 0 
L 24.125 28.609375 
L 4.6875 54.6875 
L 15.28125 54.6875 
L 29.78125 35.203125 
L 44.28125 54.6875 
z
" id="BitstreamVeraSans-Roman-78"/>
      <path d="M 41.109375 46.296875 
Q 39.59375 47.171875 37.8125 47.578125 
Q 36.03125 48 33.890625 48 
Q 26.265625 48 22.1875 43.046875 
Q 18.109375 38.09375 18.109375 28.8125 
L 18.109375 0 
L 9.078125 0 
L 9.078125 54.6875 
L 18.109375 54.6875 
L 18.109375 46.1875 
Q 20.953125 51.171875 25.484375 53.578125 
Q 30.03125 56 36.53125 56 
Q 37.453125 56 38.578125 55.875 
Q 39.703125 55.765625 41.0625 55.515625 
z
" id="BitstreamVeraSans-Roman-72"/>
      <path d="M 34.28125 27.484375 
Q 23.390625 27.484375 19.1875 25 
Q 14.984375 22.515625 14.984375 16.5 
Q 14.984375 11.71875 18.140625 8.90625 
Q 21.296875 6.109375 26.703125 6.109375 
Q 34.1875 6.109375 38.703125 11.40625 
Q 43.21875 16.703125 43.21875 25.484375 
L 43.21875 27.484375 
z
M 52.203125 31.203125 
L 52.203125 0 
L 43.21875 0 
L 43.21875 8.296875 
Q 40.140625 3.328125 35.546875 0.953125 
Q 30.953125 -1.421875 24.3125 -1.421875 
Q 15.921875 -1.421875 10.953125 3.296875 
Q 6 8.015625 6 15.921875 
Q 6 25.140625 12.171875 29.828125 
Q 18.359375 34.515625 30.609375 34.515625 
L 43.21875 34.515625 
L 43.21875 35.40625 
Q 43.21875 41.609375 39.140625 45 
Q 35.0625 48.390625 27.6875 48.390625 
Q 23 48.390625 18.546875 47.265625 
Q 14.109375 46.140625 10.015625 43.890625 
L 10.015625 52.203125 
Q 14.9375 54.109375 19.578125 55.046875 
Q 24.21875 56 28.609375 56 
Q 40.484375 56 46.34375 49.84375 
Q 52.203125 43.703125 52.203125 31.203125 
" id="BitstreamVeraSans-Roman-61"/>
      <path d="M 39.40625 66.21875 
Q 28.65625 66.21875 22.328125 58.203125 
Q 16.015625 50.203125 16.015625 36.375 
Q 16.015625 22.609375 22.328125 14.59375 
Q 28.65625 6.59375 39.40625 6.59375 
Q 50.140625 6.59375 56.421875 14.59375 
Q 62.703125 22.609375 62.703125 36.375 
Q 62.703125 50.203125 56.421875 58.203125 
Q 50.140625 66.21875 39.40625 66.21875 
M 53.21875 1.3125 
L 66.21875 -12.890625 
L 54.296875 -12.890625 
L 43.5 -1.21875 
Q 41.890625 -1.3125 41.03125 -1.359375 
Q 40.1875 -1.421875 39.40625 -1.421875 
Q 24.03125 -1.421875 14.8125 8.859375 
Q 5.609375 19.140625 5.609375 36.375 
Q 5.609375 53.65625 14.8125 63.9375 
Q 24.03125 74.21875 39.40625 74.21875 
Q 54.734375 74.21875 63.90625 63.9375 
Q 73.09375 53.65625 73.09375 36.375 
Q 73.09375 23.6875 67.984375 14.640625 
Q 62.890625 5.609375 53.21875 1.3125 
" id="BitstreamVeraSans-Roman-51"/>
      <path d="M 45.40625 27.984375 
Q 45.40625 37.75 41.375 43.109375 
Q 37.359375 48.484375 30.078125 48.484375 
Q 22.859375 48.484375 18.828125 43.109375 
Q 14.796875 37.75 14.796875 27.984375 
Q 14.796875 18.265625 18.828125 12.890625 
Q 22.859375 7.515625 30.078125 7.515625 
Q 37.359375 7.515625 41.375 12.890625 
Q 45.40625 18.265625 45.40625 27.984375 
M 54.390625 6.78125 
Q 54.390625 -7.171875 48.1875 -13.984375 
Q 42 -20.796875 29.203125 -20.796875 
Q 24.46875 -20.796875 20.265625 -20.09375 
Q 16.0625 -19.390625 12.109375 -17.921875 
L 12.109375 -9.1875 
Q 16.0625 -11.328125 19.921875 -12.34375 
Q 23.78125 -13.375 27.78125 -13.375 
Q 36.625 -13.375 41.015625 -8.765625 
Q 45.40625 -4.15625 45.40625 5.171875 
L 45.40625 9.625 
Q 42.625 4.78125 38.28125 2.390625 
Q 33.9375 0 27.875 0 
Q 17.828125 0 11.671875 7.65625 
Q 5.515625 15.328125 5.515625 27.984375 
Q 5.515625 40.671875 11.671875 48.328125 
Q 17.828125 56 27.875 56 
Q 33.9375 56 38.28125 53.609375 
Q 42.625 51.21875 45.40625 46.390625 
L 45.40625 54.6875 
L 54.390625 54.6875 
z
" id="BitstreamVeraSans-Roman-67"/>
     </defs>
     <g transform="translate(16.318125 240.208625)rotate(-90.0)scale(0.12 -0.12)">
      <use xlink:href="#BitstreamVeraSans-Roman-61"/>
      <use x="61.279296875" xlink:href="#BitstreamVeraSans-Roman-76"/>
      <use x="120.458984375" xlink:href="#BitstreamVeraSans-Roman-65"/>
      <use x="181.982421875" xlink:href="#BitstreamVeraSans-Roman-72"/>
      <use x="223.095703125" xlink:href="#BitstreamVeraSans-Roman-61"/>
      <use x="284.375" xlink:href="#BitstreamVeraSans-Roman-67"/>
      <use x="347.8515625" xlink:href="#BitstreamVeraSans-Roman-65"/>
      <use x="409.375" xlink:href="#BitstreamVeraSans-Roman-20"/>
      <use x="441.162109375" xlink:href="#BitstreamVeraSans-Roman-6d"/>
      <use x="538.57421875" xlink:href="#BitstreamVeraSans-Roman-61"/>
      <use x="599.853515625" xlink:href="#BitstreamVeraSans-Roman-78"/>
      <use x="659.033203125" xlink:href="#BitstreamVeraSans-Roman-51"/>
     </g>
    </g>
   </g>
   <g id="text_15">
    <!-- Average maxQ per episode, joint3 -->
    <defs>
     <path d="M 40.578125 39.3125 
Q 47.65625 37.796875 51.625 33 
Q 55.609375 28.21875 55.609375 21.1875 
Q 55.609375 10.40625 48.1875 4.484375 
Q 40.765625 -1.421875 27.09375 -1.421875 
Q 22.515625 -1.421875 17.65625 -0.515625 
Q 12.796875 0.390625 7.625 2.203125 
L 7.625 11.71875 
Q 11.71875 9.328125 16.59375 8.109375 
Q 21.484375 6.890625 26.8125 6.890625 
Q 36.078125 6.890625 40.9375 10.546875 
Q 45.796875 14.203125 45.796875 21.1875 
Q 45.796875 27.640625 41.28125 31.265625 
Q 36.765625 34.90625 28.71875 34.90625 
L 20.21875 34.90625 
L 20.21875 43.015625 
L 29.109375 43.015625 
Q 36.375 43.015625 40.234375 45.921875 
Q 44.09375 48.828125 44.09375 54.296875 
Q 44.09375 59.90625 40.109375 62.90625 
Q 36.140625 65.921875 28.71875 65.921875 
Q 24.65625 65.921875 20.015625 65.03125 
Q 15.375 64.15625 9.8125 62.3125 
L 9.8125 71.09375 
Q 15.4375 72.65625 20.34375 73.4375 
Q 25.25 74.21875 29.59375 74.21875 
Q 40.828125 74.21875 47.359375 69.109375 
Q 53.90625 64.015625 53.90625 55.328125 
Q 53.90625 49.265625 50.4375 45.09375 
Q 46.96875 40.921875 40.578125 39.3125 
" id="BitstreamVeraSans-Roman-33"/>
     <path d="M 9.421875 54.6875 
L 18.40625 54.6875 
L 18.40625 -0.984375 
Q 18.40625 -11.421875 14.421875 -16.109375 
Q 10.453125 -20.796875 1.609375 -20.796875 
L -1.8125 -20.796875 
L -1.8125 -13.1875 
L 0.59375 -13.1875 
Q 5.71875 -13.1875 7.5625 -10.8125 
Q 9.421875 -8.453125 9.421875 -0.984375 
z
M 9.421875 75.984375 
L 18.40625 75.984375 
L 18.40625 64.59375 
L 9.421875 64.59375 
z
" id="BitstreamVeraSans-Roman-6a"/>
     <path d="M 18.3125 70.21875 
L 18.3125 54.6875 
L 36.8125 54.6875 
L 36.8125 47.703125 
L 18.3125 47.703125 
L 18.3125 18.015625 
Q 18.3125 11.328125 20.140625 9.421875 
Q 21.96875 7.515625 27.59375 7.515625 
L 36.8125 7.515625 
L 36.8125 0 
L 27.59375 0 
Q 17.1875 0 13.234375 3.875 
Q 9.28125 7.765625 9.28125 18.015625 
L 9.28125 47.703125 
L 2.6875 47.703125 
L 2.6875 54.6875 
L 9.28125 54.6875 
L 9.28125 70.21875 
z
" id="BitstreamVeraSans-Roman-74"/>
     <path d="M 11.71875 12.40625 
L 22.015625 12.40625 
L 22.015625 4 
L 14.015625 -11.625 
L 7.71875 -11.625 
L 11.71875 4 
z
" id="BitstreamVeraSans-Roman-2c"/>
     <path d="M 54.890625 33.015625 
L 54.890625 0 
L 45.90625 0 
L 45.90625 32.71875 
Q 45.90625 40.484375 42.875 44.328125 
Q 39.84375 48.1875 33.796875 48.1875 
Q 26.515625 48.1875 22.3125 43.546875 
Q 18.109375 38.921875 18.109375 30.90625 
L 18.109375 0 
L 9.078125 0 
L 9.078125 54.6875 
L 18.109375 54.6875 
L 18.109375 46.1875 
Q 21.34375 51.125 25.703125 53.5625 
Q 30.078125 56 35.796875 56 
Q 45.21875 56 50.046875 50.171875 
Q 54.890625 44.34375 54.890625 33.015625 
" id="BitstreamVeraSans-Roman-6e"/>
     <path d="M 34.1875 63.1875 
L 20.796875 26.90625 
L 47.609375 26.90625 
z
M 28.609375 72.90625 
L 39.796875 72.90625 
L 67.578125 0 
L 57.328125 0 
L 50.6875 18.703125 
L 17.828125 18.703125 
L 11.1875 0 
L 0.78125 0 
z
" id="BitstreamVeraSans-Roman-41"/>
    </defs>
    <g transform="translate(146.8245 18.14175)scale(0.144 -0.144)">
     <use xlink:href="#BitstreamVeraSans-Roman-41"/>
     <use x="68.330078125" xlink:href="#BitstreamVeraSans-Roman-76"/>
     <use x="127.509765625" xlink:href="#BitstreamVeraSans-Roman-65"/>
     <use x="189.033203125" xlink:href="#BitstreamVeraSans-Roman-72"/>
     <use x="230.146484375" xlink:href="#BitstreamVeraSans-Roman-61"/>
     <use x="291.42578125" xlink:href="#BitstreamVeraSans-Roman-67"/>
     <use x="354.90234375" xlink:href="#BitstreamVeraSans-Roman-65"/>
     <use x="416.42578125" xlink:href="#BitstreamVeraSans-Roman-20"/>
     <use x="448.212890625" xlink:href="#BitstreamVeraSans-Roman-6d"/>
     <use x="545.625" xlink:href="#BitstreamVeraSans-Roman-61"/>
     <use x="606.904296875" xlink:href="#BitstreamVeraSans-Roman-78"/>
     <use x="666.083984375" xlink:href="#BitstreamVeraSans-Roman-51"/>
     <use x="744.794921875" xlink:href="#BitstreamVeraSans-Roman-20"/>
     <use x="776.58203125" xlink:href="#BitstreamVeraSans-Roman-70"/>
     <use x="840.05859375" xlink:href="#BitstreamVeraSans-Roman-65"/>
     <use x="901.58203125" xlink:href="#BitstreamVeraSans-Roman-72"/>
     <use x="942.6953125" xlink:href="#BitstreamVeraSans-Roman-20"/>
     <use x="974.482421875" xlink:href="#BitstreamVeraSans-Roman-65"/>
     <use x="1036.005859375" xlink:href="#BitstreamVeraSans-Roman-70"/>
     <use x="1099.482421875" xlink:href="#BitstreamVeraSans-Roman-69"/>
     <use x="1127.265625" xlink:href="#BitstreamVeraSans-Roman-73"/>
     <use x="1179.365234375" xlink:href="#BitstreamVeraSans-Roman-6f"/>
     <use x="1240.546875" xlink:href="#BitstreamVeraSans-Roman-64"/>
     <use x="1304.0234375" xlink:href="#BitstreamVeraSans-Roman-65"/>
     <use x="1365.546875" xlink:href="#BitstreamVeraSans-Roman-2c"/>
     <use x="1397.333984375" xlink:href="#BitstreamVeraSans-Roman-20"/>
     <use x="1429.12109375" xlink:href="#BitstreamVeraSans-Roman-6a"/>
     <use x="1456.904296875" xlink:href="#BitstreamVeraSans-Roman-6f"/>
     <use x="1518.0859375" xlink:href="#BitstreamVeraSans-Roman-69"/>
     <use x="1545.869140625" xlink:href="#BitstreamVeraSans-Roman-6e"/>
     <use x="1609.248046875" xlink:href="#BitstreamVeraSans-Roman-74"/>
     <use x="1648.45703125" xlink:href="#BitstreamVeraSans-Roman-33"/>
    </g>
   </g>
  </g>
 </g>
 <defs>
  <clipPath id="p10fd12af21">
   <rect height="345.6" width="446.4" x="46.8975" y="23.14175"/>
  </clipPath>
 </defs>
</svg>
