<?xml version="1.0" encoding="utf-8" standalone="no"?>
<!DOCTYPE svg PUBLIC "-//W3C//DTD SVG 1.1//EN"
  "http://www.w3.org/Graphics/SVG/1.1/DTD/svg11.dtd">
<!-- Created with matplotlib (http://matplotlib.org/) -->
<svg height="408pt" version="1.1" viewBox="0 0 511 408" width="511pt" xmlns="http://www.w3.org/2000/svg" xmlns:xlink="http://www.w3.org/1999/xlink">
 <defs>
  <style type="text/css">
*{stroke-linecap:butt;stroke-linejoin:round;stroke-miterlimit:100000;}
  </style>
 </defs>
 <g id="figure_1">
  <g id="patch_1">
   <path d="M 0 408.16925 
L 511.95 408.16925 
L 511.95 0 
L 0 0 
z
" style="fill:#ffffff;"/>
  </g>
  <g id="axes_1">
   <g id="patch_2">
    <path d="M 46.8975 368.74175 
L 493.2975 368.74175 
L 493.2975 23.14175 
L 46.8975 23.14175 
z
" style="fill:#ffffff;"/>
   </g>
   <g id="line2d_1">
    <path clip-path="url(#p28821aab5d)" d="M 47.535214 111.215906 
L 48.172929 83.862873 
L 48.810643 141.567649 
L 49.448357 156.472337 
L 50.086071 103.308601 
L 50.723786 138.959627 
L 51.3615 138.062228 
L 51.999214 134.257959 
L 52.636929 159.115535 
L 53.274643 113.053758 
L 53.912357 119.229595 
L 54.550071 150.801699 
L 55.187786 163.313689 
L 55.8255 127.916843 
L 56.463214 109.970271 
L 57.100929 124.676775 
L 57.738643 129.395337 
L 58.376357 155.778621 
L 59.014071 88.504829 
L 59.651786 167.122975 
L 60.2895 124.094837 
L 60.927214 103.69984 
L 61.564929 113.449161 
L 62.202643 148.00506 
L 62.840357 118.027294 
L 63.478071 148.55293 
L 64.115786 142.897943 
L 65.391214 112.737057 
L 66.666643 152.830638 
L 67.942071 112.048809 
L 68.579786 101.101114 
L 69.2175 147.343857 
L 69.855214 169.893725 
L 70.492929 121.131541 
L 71.130643 116.788033 
L 71.768357 139.980813 
L 72.406071 137.290716 
L 73.043786 156.107892 
L 74.319214 111.964052 
L 74.956929 145.394781 
L 75.594643 134.387435 
L 76.232357 142.779567 
L 76.870071 123.862662 
L 77.507786 114.579575 
L 78.1455 109.777235 
L 78.783214 141.344913 
L 79.420929 85.030537 
L 80.058643 134.344195 
L 80.696357 145.814982 
L 81.334071 76.322151 
L 82.6095 140.201032 
L 83.247214 114.021388 
L 83.884929 143.482246 
L 85.160357 116.750614 
L 85.798071 169.148337 
L 86.435786 101.910696 
L 87.0735 124.248766 
L 87.711214 139.029311 
L 88.348929 92.270055 
L 88.986643 82.37667 
L 89.624357 148.26611 
L 90.262071 135.834492 
L 90.899786 153.703909 
L 91.5375 128.555294 
L 92.175214 149.445508 
L 92.812929 128.068603 
L 93.450643 159.057391 
L 94.088357 117.895594 
L 94.726071 62.529318 
L 95.363786 116.660928 
L 96.0015 145.08171 
L 96.639214 139.976567 
L 97.276929 97.812623 
L 97.914643 154.367006 
L 98.552357 145.803812 
L 99.190071 119.263103 
L 99.827786 99.007838 
L 101.103214 155.143698 
L 101.740929 137.251397 
L 102.378643 149.110158 
L 103.016357 135.519154 
L 103.654071 129.041791 
L 104.291786 108.62886 
L 104.9295 151.43812 
L 105.567214 67.215189 
L 106.204929 160.141569 
L 106.842643 100.303428 
L 107.480357 147.21288 
L 108.118071 137.923639 
L 108.755786 115.179405 
L 109.3935 155.105499 
L 110.031214 118.039593 
L 110.668929 137.908252 
L 111.306643 86.716235 
L 111.944357 112.218021 
L 112.582071 152.26739 
L 113.219786 145.266885 
L 113.8575 129.118925 
L 114.495214 106.785448 
L 115.132929 155.823456 
L 115.770643 152.234248 
L 116.408357 104.923268 
L 117.046071 138.6536 
L 117.683786 128.880723 
L 118.3215 138.264664 
L 118.959214 151.726956 
L 119.596929 51.996391 
L 120.234643 96.226131 
L 120.872357 124.270994 
L 121.510071 139.218845 
L 122.147786 94.050197 
L 122.7855 149.793658 
L 123.423214 140.294669 
L 124.060929 66.931452 
L 124.698643 90.48543 
L 125.336357 131.108342 
L 125.974071 161.498459 
L 126.611786 69.604775 
L 127.2495 104.642525 
L 127.887214 93.448615 
L 128.524929 128.291699 
L 129.162643 134.137696 
L 129.800357 90.65236 
L 130.438071 62.449849 
L 131.075786 141.656609 
L 131.7135 137.943009 
L 132.351214 111.292974 
L 132.988929 110.146767 
L 133.626643 151.973992 
L 134.264357 68.351829 
L 134.902071 149.653777 
L 135.539786 127.174292 
L 136.1775 74.504604 
L 136.815214 159.439152 
L 137.452929 131.936392 
L 138.090643 90.981614 
L 138.728357 106.95769 
L 139.366071 119.941909 
L 140.003786 147.529844 
L 140.6415 143.26473 
L 141.279214 159.843007 
L 141.916929 135.463353 
L 142.554643 87.014211 
L 143.192357 101.077029 
L 143.830071 141.986713 
L 144.467786 95.77935 
L 145.1055 142.658338 
L 145.743214 134.922843 
L 146.380929 142.159319 
L 147.018643 94.520281 
L 147.656357 80.621825 
L 148.294071 111.770593 
L 148.931786 102.806711 
L 149.5695 110.852518 
L 150.207214 156.196167 
L 150.844929 74.914035 
L 151.482643 88.026831 
L 152.120357 104.621426 
L 152.758071 140.59289 
L 153.395786 121.652842 
L 154.0335 146.734698 
L 154.671214 110.908716 
L 155.308929 122.190908 
L 155.946643 129.730752 
L 156.584357 95.500199 
L 157.222071 105.959374 
L 157.859786 156.298365 
L 158.4975 136.195838 
L 159.135214 72.496303 
L 159.772929 107.057218 
L 160.410643 134.288677 
L 161.048357 103.317165 
L 161.686071 163.322496 
L 162.323786 153.345662 
L 162.9615 110.359347 
L 163.599214 138.091783 
L 164.236929 74.424836 
L 164.874643 152.301512 
L 165.512357 147.750775 
L 166.150071 123.977352 
L 166.787786 157.394317 
L 167.4255 138.59508 
L 168.063214 147.570764 
L 168.700929 130.896657 
L 169.338643 144.054919 
L 169.976357 133.266607 
L 170.614071 141.932235 
L 171.251786 116.699153 
L 171.8895 139.751116 
L 172.527214 86.08165 
L 173.164929 151.030324 
L 173.802643 153.588532 
L 174.440357 121.698247 
L 175.078071 139.514901 
L 175.715786 150.204025 
L 176.3535 140.343023 
L 176.991214 62.697412 
L 177.628929 105.277957 
L 178.266643 118.984544 
L 178.904357 143.862992 
L 179.542071 151.344053 
L 180.179786 145.044942 
L 180.8175 136.11904 
L 181.455214 144.10452 
L 182.092929 142.705014 
L 182.730643 136.51911 
L 183.368357 149.841791 
L 184.006071 149.767851 
L 184.643786 127.188821 
L 185.2815 156.301877 
L 185.919214 143.22895 
L 186.556929 118.09593 
L 187.194643 145.843727 
L 187.832357 156.848215 
L 188.470071 143.09084 
L 189.107786 55.369126 
L 189.7455 82.543587 
L 190.383214 144.424979 
L 191.020929 112.59226 
L 191.658643 87.940942 
L 192.296357 134.949204 
L 192.934071 84.399793 
L 193.571786 98.791899 
L 194.2095 142.773585 
L 194.847214 103.141288 
L 195.484929 158.634815 
L 196.122643 137.594629 
L 196.760357 137.564862 
L 197.398071 98.862699 
L 198.035786 77.594752 
L 198.6735 146.984811 
L 199.311214 104.628734 
L 199.948929 149.64781 
L 200.586643 102.803638 
L 201.224357 107.415995 
L 202.499786 159.807415 
L 203.1375 75.279281 
L 203.775214 93.185512 
L 205.050643 142.250626 
L 205.688357 154.839892 
L 206.326071 141.816738 
L 206.963786 186.516473 
L 207.6015 267.196805 
L 208.239214 303.968584 
L 208.876929 323.614165 
L 210.152357 305.263006 
L 210.790071 298.347496 
L 211.427786 297.437803 
L 212.0655 303.780339 
L 212.703214 298.267557 
L 213.340929 296.909581 
L 213.978643 290.937716 
L 214.616357 294.541703 
L 215.254071 295.317949 
L 215.891786 290.371544 
L 216.5295 290.150354 
L 217.167214 291.873716 
L 217.804929 292.687027 
L 218.442643 288.81734 
L 219.080357 290.498625 
L 219.718071 286.364693 
L 220.355786 290.633968 
L 220.9935 286.255952 
L 221.631214 285.442044 
L 222.268929 288.170165 
L 222.906643 289.186709 
L 223.544357 287.429983 
L 224.182071 286.289183 
L 224.819786 282.237887 
L 225.4575 286.91145 
L 226.095214 288.774421 
L 226.732929 280.750622 
L 227.370643 284.357635 
L 228.008357 287.083859 
L 228.646071 283.213516 
L 229.283786 282.812867 
L 229.9215 282.609565 
L 230.559214 281.639509 
L 231.196929 282.172814 
L 231.834643 281.224993 
L 232.472357 281.857675 
L 233.110071 282.76121 
L 233.747786 284.565418 
L 234.3855 281.721212 
L 235.023214 281.711873 
L 235.660929 284.552776 
L 236.298643 281.924963 
L 236.936357 273.609381 
L 237.574071 274.600446 
L 238.211786 287.132331 
L 238.8495 282.264113 
L 239.487214 281.905082 
L 240.124929 279.153359 
L 240.762643 279.248164 
L 241.400357 277.658378 
L 242.038071 282.10131 
L 242.675786 282.588788 
L 243.3135 280.418815 
L 243.951214 284.675646 
L 244.588929 272.883185 
L 245.226643 272.43218 
L 245.864357 278.45119 
L 246.502071 274.738526 
L 247.139786 284.183468 
L 248.415214 279.098616 
L 249.052929 278.885042 
L 249.690643 273.248798 
L 250.328357 283.871909 
L 250.966071 273.007341 
L 251.603786 281.481613 
L 252.2415 283.2909 
L 252.879214 280.154739 
L 253.516929 276.39395 
L 254.154643 278.710615 
L 254.792357 271.896975 
L 255.430071 276.983546 
L 256.067786 273.153327 
L 256.7055 275.745316 
L 257.343214 277.484482 
L 257.980929 281.408119 
L 258.618643 281.686126 
L 259.256357 278.479027 
L 259.894071 273.345998 
L 260.531786 282.070671 
L 261.1695 277.393478 
L 261.807214 269.251741 
L 262.444929 278.595527 
L 263.082643 280.710648 
L 263.720357 270.213919 
L 264.358071 278.97181 
L 264.995786 279.1682 
L 265.6335 270.202572 
L 266.271214 273.931991 
L 266.908929 266.669614 
L 267.546643 276.986514 
L 268.184357 273.667554 
L 268.822071 278.490475 
L 269.459786 277.433518 
L 270.0975 284.061428 
L 270.735214 273.59498 
L 271.372929 274.810722 
L 272.010643 271.772548 
L 272.648357 278.586025 
L 273.286071 278.661252 
L 273.923786 276.372648 
L 274.5615 274.756156 
L 275.199214 272.240534 
L 275.836929 277.486851 
L 276.474643 279.716333 
L 277.112357 278.376923 
L 277.750071 277.617989 
L 278.387786 276.324258 
L 279.0255 271.635871 
L 279.663214 279.339455 
L 280.300929 266.019715 
L 280.938643 274.771075 
L 281.576357 275.910414 
L 282.214071 273.790788 
L 282.851786 276.235742 
L 283.4895 271.294614 
L 284.127214 271.423849 
L 284.764929 265.978795 
L 285.402643 272.623555 
L 286.040357 269.262554 
L 286.678071 263.888994 
L 287.315786 272.330436 
L 287.9535 270.372751 
L 288.591214 271.006929 
L 289.228929 266.24804 
L 289.866643 268.472581 
L 290.504357 268.25336 
L 291.142071 280.785592 
L 291.779786 270.69837 
L 292.4175 266.772217 
L 293.055214 269.367864 
L 293.692929 265.038459 
L 294.330643 262.363567 
L 294.968357 273.807371 
L 295.606071 264.592113 
L 296.243786 260.274903 
L 296.8815 269.854521 
L 297.519214 272.827644 
L 298.156929 271.212777 
L 298.794643 268.96806 
L 299.432357 268.610409 
L 300.070071 267.240413 
L 300.707786 274.476275 
L 301.3455 270.563603 
L 301.983214 269.89826 
L 302.620929 264.411849 
L 303.258643 267.749563 
L 303.896357 268.935786 
L 304.534071 269.727552 
L 305.171786 257.740886 
L 305.8095 257.293206 
L 306.447214 278.682881 
L 307.084929 258.446498 
L 307.722643 271.652926 
L 308.360357 267.267711 
L 308.998071 266.229351 
L 309.635786 265.642367 
L 310.2735 266.308678 
L 310.911214 264.227192 
L 311.548929 260.30531 
L 312.186643 260.927501 
L 312.824357 270.774227 
L 313.462071 265.486208 
L 314.099786 261.711604 
L 314.7375 265.198543 
L 315.375214 264.495779 
L 316.012929 260.084356 
L 316.650643 259.084701 
L 317.288357 267.850378 
L 317.926071 260.189395 
L 318.563786 264.504987 
L 319.2015 260.830182 
L 319.839214 264.945195 
L 320.476929 263.056098 
L 321.114643 254.548788 
L 321.752357 267.568616 
L 322.390071 267.309128 
L 323.027786 260.899039 
L 323.6655 264.534786 
L 324.303214 261.795649 
L 324.940929 260.434086 
L 325.578643 262.513262 
L 326.216357 260.875655 
L 326.854071 239.943129 
L 327.491786 258.062349 
L 328.1295 259.661155 
L 329.404929 269.283068 
L 330.042643 254.499576 
L 330.680357 261.388995 
L 331.318071 262.857758 
L 331.955786 256.230128 
L 332.5935 268.213851 
L 333.231214 261.624359 
L 333.868929 266.17167 
L 334.506643 248.286436 
L 335.144357 255.136712 
L 335.782071 245.248022 
L 337.0575 269.385166 
L 337.695214 222.690137 
L 338.332929 239.795856 
L 338.970643 265.300102 
L 339.608357 247.337277 
L 340.246071 269.840127 
L 340.883786 260.058011 
L 341.5215 258.350041 
L 342.159214 262.052056 
L 343.434643 243.171672 
L 344.072357 243.311932 
L 344.710071 259.344324 
L 345.347786 256.862107 
L 345.9855 261.727644 
L 346.623214 232.666123 
L 347.260929 263.487307 
L 347.898643 234.529424 
L 348.536357 220.210637 
L 349.174071 222.541892 
L 349.811786 258.097578 
L 350.4495 253.96393 
L 351.087214 251.181104 
L 351.724929 221.907365 
L 352.362643 237.787365 
L 353.000357 258.024175 
L 353.638071 233.929172 
L 354.275786 243.593607 
L 354.9135 217.137568 
L 355.551214 250.68195 
L 356.188929 252.10308 
L 356.826643 239.242851 
L 357.464357 229.437374 
L 358.102071 258.087401 
L 358.739786 234.374784 
L 359.3775 255.466219 
L 360.015214 242.013559 
L 360.652929 232.855585 
L 361.290643 212.709491 
L 361.928357 256.691326 
L 362.566071 205.045239 
L 363.203786 260.254576 
L 363.8415 203.198588 
L 364.479214 252.793799 
L 365.116929 212.728495 
L 365.754643 254.55163 
L 366.392357 260.5903 
L 367.030071 252.518864 
L 367.667786 264.934257 
L 368.3055 253.430892 
L 368.943214 210.417627 
L 369.580929 225.497434 
L 370.218643 207.797458 
L 370.856357 246.794842 
L 371.494071 255.255968 
L 372.131786 250.787977 
L 372.7695 251.858379 
L 373.407214 251.309583 
L 374.044929 196.405147 
L 374.682643 249.423561 
L 375.320357 245.138126 
L 375.958071 243.592919 
L 376.595786 221.081932 
L 377.2335 254.072409 
L 377.871214 207.571237 
L 379.784357 253.261756 
L 380.422071 238.922766 
L 381.059786 240.41067 
L 381.6975 242.66148 
L 382.335214 251.726263 
L 382.972929 243.782656 
L 383.610643 233.803869 
L 384.248357 236.931169 
L 384.886071 246.168992 
L 385.523786 239.403076 
L 386.1615 251.246314 
L 386.799214 198.26906 
L 387.436929 245.467757 
L 388.074643 238.627216 
L 388.712357 199.289023 
L 389.350071 252.345998 
L 389.987786 195.817239 
L 390.6255 229.536153 
L 391.263214 249.649054 
L 391.900929 252.223257 
L 392.538643 190.554984 
L 393.176357 252.458501 
L 393.814071 233.39325 
L 394.451786 241.709243 
L 395.0895 244.671054 
L 395.727214 209.971953 
L 396.364929 241.360191 
L 397.002643 186.955645 
L 397.640357 223.490589 
L 398.278071 245.084588 
L 398.915786 243.918308 
L 399.5535 183.418478 
L 400.191214 234.920084 
L 400.828929 245.557928 
L 401.466643 222.768985 
L 402.104357 224.593151 
L 402.742071 235.809076 
L 403.379786 226.14438 
L 404.0175 237.960484 
L 404.655214 202.950923 
L 405.292929 209.801055 
L 405.930643 242.523277 
L 406.568357 204.782355 
L 407.206071 234.715823 
L 407.843786 221.144738 
L 408.4815 259.050535 
L 409.119214 231.398317 
L 409.756929 196.494527 
L 410.394643 212.683564 
L 411.032357 185.380159 
L 411.670071 201.99964 
L 412.307786 240.185645 
L 412.9455 222.43815 
L 413.583214 248.987671 
L 414.220929 166.153089 
L 414.858643 243.413099 
L 415.496357 200.894753 
L 416.134071 193.032063 
L 416.771786 179.900904 
L 417.4095 169.447008 
L 418.047214 231.929859 
L 418.684929 203.603112 
L 419.322643 197.839745 
L 419.960357 159.883221 
L 420.598071 189.463806 
L 421.235786 199.317088 
L 421.8735 224.069862 
L 422.511214 229.88066 
L 423.148929 165.662522 
L 423.786643 183.547035 
L 424.424357 165.145232 
L 425.062071 175.848476 
L 425.699786 164.716552 
L 426.3375 171.171131 
L 426.975214 235.709687 
L 427.612929 165.447171 
L 428.250643 238.425791 
L 428.888357 167.603202 
L 429.526071 164.251672 
L 430.163786 159.704628 
L 430.8015 218.421738 
L 431.439214 203.016814 
L 432.076929 181.412227 
L 432.714643 202.983413 
L 433.352357 163.716172 
L 433.990071 171.953624 
L 434.627786 168.898638 
L 435.2655 206.169521 
L 435.903214 215.081215 
L 436.540929 161.022781 
L 437.178643 164.798118 
L 437.816357 170.423521 
L 438.454071 194.166827 
L 439.091786 234.550642 
L 439.7295 158.196366 
L 440.367214 149.761223 
L 441.642643 194.52586 
L 442.280357 223.877569 
L 442.918071 173.725482 
L 443.555786 160.916948 
L 444.1935 176.961717 
L 444.831214 162.011231 
L 445.468929 142.329412 
L 446.106643 160.212954 
L 446.744357 170.318624 
L 447.382071 226.652667 
L 448.019786 157.662198 
L 448.6575 152.040625 
L 449.295214 157.780372 
L 449.932929 156.917611 
L 450.570643 157.872639 
L 451.208357 152.412596 
L 451.846071 218.012952 
L 452.483786 166.36137 
L 453.1215 149.769318 
L 453.759214 164.186239 
L 454.396929 145.63038 
L 455.034643 155.364145 
L 455.672357 159.773853 
L 456.310071 150.244056 
L 456.947786 234.624788 
L 457.5855 152.540768 
L 458.223214 157.604154 
L 458.860929 150.1421 
L 459.498643 145.029849 
L 460.136357 151.526271 
L 460.774071 225.66335 
L 461.411786 156.31949 
L 462.0495 143.887033 
L 462.687214 159.579422 
L 463.324929 131.412224 
L 463.962643 158.00624 
L 464.600357 145.926312 
L 465.238071 131.627426 
L 465.875786 133.88929 
L 466.5135 164.330486 
L 467.151214 131.274787 
L 467.788929 142.471293 
L 468.426643 131.146248 
L 469.064357 145.842743 
L 469.702071 207.523633 
L 470.339786 157.815005 
L 470.9775 170.425561 
L 471.615214 132.87832 
L 471.615214 132.87832 
" style="fill:none;stroke:#0000ff;stroke-linecap:square;stroke-width:0.5;"/>
   </g>
   <g id="patch_3">
    <path d="M 46.8975 368.74175 
L 493.2975 368.74175 
" style="fill:none;stroke:#000000;stroke-linecap:square;stroke-linejoin:miter;"/>
   </g>
   <g id="patch_4">
    <path d="M 46.8975 23.14175 
L 493.2975 23.14175 
" style="fill:none;stroke:#000000;stroke-linecap:square;stroke-linejoin:miter;"/>
   </g>
   <g id="patch_5">
    <path d="M 493.2975 368.74175 
L 493.2975 23.14175 
" style="fill:none;stroke:#000000;stroke-linecap:square;stroke-linejoin:miter;"/>
   </g>
   <g id="patch_6">
    <path d="M 46.8975 368.74175 
L 46.8975 23.14175 
" style="fill:none;stroke:#000000;stroke-linecap:square;stroke-linejoin:miter;"/>
   </g>
   <g id="matplotlib.axis_1">
    <g id="xtick_1">
     <g id="line2d_2">
      <defs>
       <path d="M 0 0 
L 0 -4 
" id="m9bb8d66cfb" style="stroke:#000000;stroke-width:0.5;"/>
      </defs>
      <g>
       <use style="stroke:#000000;stroke-width:0.5;" x="46.8975" xlink:href="#m9bb8d66cfb" y="368.74175"/>
      </g>
     </g>
     <g id="line2d_3">
      <defs>
       <path d="M 0 0 
L 0 4 
" id="m9a3ef74b82" style="stroke:#000000;stroke-width:0.5;"/>
      </defs>
      <g>
       <use style="stroke:#000000;stroke-width:0.5;" x="46.8975" xlink:href="#m9a3ef74b82" y="23.14175"/>
      </g>
     </g>
     <g id="text_1">
      <!-- 0 -->
      <defs>
       <path d="M 31.78125 66.40625 
Q 24.171875 66.40625 20.328125 58.90625 
Q 16.5 51.421875 16.5 36.375 
Q 16.5 21.390625 20.328125 13.890625 
Q 24.171875 6.390625 31.78125 6.390625 
Q 39.453125 6.390625 43.28125 13.890625 
Q 47.125 21.390625 47.125 36.375 
Q 47.125 51.421875 43.28125 58.90625 
Q 39.453125 66.40625 31.78125 66.40625 
M 31.78125 74.21875 
Q 44.046875 74.21875 50.515625 64.515625 
Q 56.984375 54.828125 56.984375 36.375 
Q 56.984375 17.96875 50.515625 8.265625 
Q 44.046875 -1.421875 31.78125 -1.421875 
Q 19.53125 -1.421875 13.0625 8.265625 
Q 6.59375 17.96875 6.59375 36.375 
Q 6.59375 54.828125 13.0625 64.515625 
Q 19.53125 74.21875 31.78125 74.21875 
" id="BitstreamVeraSans-Roman-30"/>
      </defs>
      <g transform="translate(43.08 381.859875)scale(0.12 -0.12)">
       <use xlink:href="#BitstreamVeraSans-Roman-30"/>
      </g>
     </g>
    </g>
    <g id="xtick_2">
     <g id="line2d_4">
      <g>
       <use style="stroke:#000000;stroke-width:0.5;" x="110.668928571" xlink:href="#m9bb8d66cfb" y="368.74175"/>
      </g>
     </g>
     <g id="line2d_5">
      <g>
       <use style="stroke:#000000;stroke-width:0.5;" x="110.668928571" xlink:href="#m9a3ef74b82" y="23.14175"/>
      </g>
     </g>
     <g id="text_2">
      <!-- 100 -->
      <defs>
       <path d="M 12.40625 8.296875 
L 28.515625 8.296875 
L 28.515625 63.921875 
L 10.984375 60.40625 
L 10.984375 69.390625 
L 28.421875 72.90625 
L 38.28125 72.90625 
L 38.28125 8.296875 
L 54.390625 8.296875 
L 54.390625 0 
L 12.40625 0 
z
" id="BitstreamVeraSans-Roman-31"/>
      </defs>
      <g transform="translate(99.2164285714 381.859875)scale(0.12 -0.12)">
       <use xlink:href="#BitstreamVeraSans-Roman-31"/>
       <use x="63.623046875" xlink:href="#BitstreamVeraSans-Roman-30"/>
       <use x="127.24609375" xlink:href="#BitstreamVeraSans-Roman-30"/>
      </g>
     </g>
    </g>
    <g id="xtick_3">
     <g id="line2d_6">
      <g>
       <use style="stroke:#000000;stroke-width:0.5;" x="174.440357143" xlink:href="#m9bb8d66cfb" y="368.74175"/>
      </g>
     </g>
     <g id="line2d_7">
      <g>
       <use style="stroke:#000000;stroke-width:0.5;" x="174.440357143" xlink:href="#m9a3ef74b82" y="23.14175"/>
      </g>
     </g>
     <g id="text_3">
      <!-- 200 -->
      <defs>
       <path d="M 19.1875 8.296875 
L 53.609375 8.296875 
L 53.609375 0 
L 7.328125 0 
L 7.328125 8.296875 
Q 12.9375 14.109375 22.625 23.890625 
Q 32.328125 33.6875 34.8125 36.53125 
Q 39.546875 41.84375 41.421875 45.53125 
Q 43.3125 49.21875 43.3125 52.78125 
Q 43.3125 58.59375 39.234375 62.25 
Q 35.15625 65.921875 28.609375 65.921875 
Q 23.96875 65.921875 18.8125 64.3125 
Q 13.671875 62.703125 7.8125 59.421875 
L 7.8125 69.390625 
Q 13.765625 71.78125 18.9375 73 
Q 24.125 74.21875 28.421875 74.21875 
Q 39.75 74.21875 46.484375 68.546875 
Q 53.21875 62.890625 53.21875 53.421875 
Q 53.21875 48.921875 51.53125 44.890625 
Q 49.859375 40.875 45.40625 35.40625 
Q 44.1875 33.984375 37.640625 27.21875 
Q 31.109375 20.453125 19.1875 8.296875 
" id="BitstreamVeraSans-Roman-32"/>
      </defs>
      <g transform="translate(162.987857143 381.859875)scale(0.12 -0.12)">
       <use xlink:href="#BitstreamVeraSans-Roman-32"/>
       <use x="63.623046875" xlink:href="#BitstreamVeraSans-Roman-30"/>
       <use x="127.24609375" xlink:href="#BitstreamVeraSans-Roman-30"/>
      </g>
     </g>
    </g>
    <g id="xtick_4">
     <g id="line2d_8">
      <g>
       <use style="stroke:#000000;stroke-width:0.5;" x="238.211785714" xlink:href="#m9bb8d66cfb" y="368.74175"/>
      </g>
     </g>
     <g id="line2d_9">
      <g>
       <use style="stroke:#000000;stroke-width:0.5;" x="238.211785714" xlink:href="#m9a3ef74b82" y="23.14175"/>
      </g>
     </g>
     <g id="text_4">
      <!-- 300 -->
      <defs>
       <path d="M 40.578125 39.3125 
Q 47.65625 37.796875 51.625 33 
Q 55.609375 28.21875 55.609375 21.1875 
Q 55.609375 10.40625 48.1875 4.484375 
Q 40.765625 -1.421875 27.09375 -1.421875 
Q 22.515625 -1.421875 17.65625 -0.515625 
Q 12.796875 0.390625 7.625 2.203125 
L 7.625 11.71875 
Q 11.71875 9.328125 16.59375 8.109375 
Q 21.484375 6.890625 26.8125 6.890625 
Q 36.078125 6.890625 40.9375 10.546875 
Q 45.796875 14.203125 45.796875 21.1875 
Q 45.796875 27.640625 41.28125 31.265625 
Q 36.765625 34.90625 28.71875 34.90625 
L 20.21875 34.90625 
L 20.21875 43.015625 
L 29.109375 43.015625 
Q 36.375 43.015625 40.234375 45.921875 
Q 44.09375 48.828125 44.09375 54.296875 
Q 44.09375 59.90625 40.109375 62.90625 
Q 36.140625 65.921875 28.71875 65.921875 
Q 24.65625 65.921875 20.015625 65.03125 
Q 15.375 64.15625 9.8125 62.3125 
L 9.8125 71.09375 
Q 15.4375 72.65625 20.34375 73.4375 
Q 25.25 74.21875 29.59375 74.21875 
Q 40.828125 74.21875 47.359375 69.109375 
Q 53.90625 64.015625 53.90625 55.328125 
Q 53.90625 49.265625 50.4375 45.09375 
Q 46.96875 40.921875 40.578125 39.3125 
" id="BitstreamVeraSans-Roman-33"/>
      </defs>
      <g transform="translate(226.759285714 381.859875)scale(0.12 -0.12)">
       <use xlink:href="#BitstreamVeraSans-Roman-33"/>
       <use x="63.623046875" xlink:href="#BitstreamVeraSans-Roman-30"/>
       <use x="127.24609375" xlink:href="#BitstreamVeraSans-Roman-30"/>
      </g>
     </g>
    </g>
    <g id="xtick_5">
     <g id="line2d_10">
      <g>
       <use style="stroke:#000000;stroke-width:0.5;" x="301.983214286" xlink:href="#m9bb8d66cfb" y="368.74175"/>
      </g>
     </g>
     <g id="line2d_11">
      <g>
       <use style="stroke:#000000;stroke-width:0.5;" x="301.983214286" xlink:href="#m9a3ef74b82" y="23.14175"/>
      </g>
     </g>
     <g id="text_5">
      <!-- 400 -->
      <defs>
       <path d="M 37.796875 64.3125 
L 12.890625 25.390625 
L 37.796875 25.390625 
z
M 35.203125 72.90625 
L 47.609375 72.90625 
L 47.609375 25.390625 
L 58.015625 25.390625 
L 58.015625 17.1875 
L 47.609375 17.1875 
L 47.609375 0 
L 37.796875 0 
L 37.796875 17.1875 
L 4.890625 17.1875 
L 4.890625 26.703125 
z
" id="BitstreamVeraSans-Roman-34"/>
      </defs>
      <g transform="translate(290.530714286 381.859875)scale(0.12 -0.12)">
       <use xlink:href="#BitstreamVeraSans-Roman-34"/>
       <use x="63.623046875" xlink:href="#BitstreamVeraSans-Roman-30"/>
       <use x="127.24609375" xlink:href="#BitstreamVeraSans-Roman-30"/>
      </g>
     </g>
    </g>
    <g id="xtick_6">
     <g id="line2d_12">
      <g>
       <use style="stroke:#000000;stroke-width:0.5;" x="365.754642857" xlink:href="#m9bb8d66cfb" y="368.74175"/>
      </g>
     </g>
     <g id="line2d_13">
      <g>
       <use style="stroke:#000000;stroke-width:0.5;" x="365.754642857" xlink:href="#m9a3ef74b82" y="23.14175"/>
      </g>
     </g>
     <g id="text_6">
      <!-- 500 -->
      <defs>
       <path d="M 10.796875 72.90625 
L 49.515625 72.90625 
L 49.515625 64.59375 
L 19.828125 64.59375 
L 19.828125 46.734375 
Q 21.96875 47.46875 24.109375 47.828125 
Q 26.265625 48.1875 28.421875 48.1875 
Q 40.625 48.1875 47.75 41.5 
Q 54.890625 34.8125 54.890625 23.390625 
Q 54.890625 11.625 47.5625 5.09375 
Q 40.234375 -1.421875 26.90625 -1.421875 
Q 22.3125 -1.421875 17.546875 -0.640625 
Q 12.796875 0.140625 7.71875 1.703125 
L 7.71875 11.625 
Q 12.109375 9.234375 16.796875 8.0625 
Q 21.484375 6.890625 26.703125 6.890625 
Q 35.15625 6.890625 40.078125 11.328125 
Q 45.015625 15.765625 45.015625 23.390625 
Q 45.015625 31 40.078125 35.4375 
Q 35.15625 39.890625 26.703125 39.890625 
Q 22.75 39.890625 18.8125 39.015625 
Q 14.890625 38.140625 10.796875 36.28125 
z
" id="BitstreamVeraSans-Roman-35"/>
      </defs>
      <g transform="translate(354.302142857 381.859875)scale(0.12 -0.12)">
       <use xlink:href="#BitstreamVeraSans-Roman-35"/>
       <use x="63.623046875" xlink:href="#BitstreamVeraSans-Roman-30"/>
       <use x="127.24609375" xlink:href="#BitstreamVeraSans-Roman-30"/>
      </g>
     </g>
    </g>
    <g id="xtick_7">
     <g id="line2d_14">
      <g>
       <use style="stroke:#000000;stroke-width:0.5;" x="429.526071429" xlink:href="#m9bb8d66cfb" y="368.74175"/>
      </g>
     </g>
     <g id="line2d_15">
      <g>
       <use style="stroke:#000000;stroke-width:0.5;" x="429.526071429" xlink:href="#m9a3ef74b82" y="23.14175"/>
      </g>
     </g>
     <g id="text_7">
      <!-- 600 -->
      <defs>
       <path d="M 33.015625 40.375 
Q 26.375 40.375 22.484375 35.828125 
Q 18.609375 31.296875 18.609375 23.390625 
Q 18.609375 15.53125 22.484375 10.953125 
Q 26.375 6.390625 33.015625 6.390625 
Q 39.65625 6.390625 43.53125 10.953125 
Q 47.40625 15.53125 47.40625 23.390625 
Q 47.40625 31.296875 43.53125 35.828125 
Q 39.65625 40.375 33.015625 40.375 
M 52.59375 71.296875 
L 52.59375 62.3125 
Q 48.875 64.0625 45.09375 64.984375 
Q 41.3125 65.921875 37.59375 65.921875 
Q 27.828125 65.921875 22.671875 59.328125 
Q 17.53125 52.734375 16.796875 39.40625 
Q 19.671875 43.65625 24.015625 45.921875 
Q 28.375 48.1875 33.59375 48.1875 
Q 44.578125 48.1875 50.953125 41.515625 
Q 57.328125 34.859375 57.328125 23.390625 
Q 57.328125 12.15625 50.6875 5.359375 
Q 44.046875 -1.421875 33.015625 -1.421875 
Q 20.359375 -1.421875 13.671875 8.265625 
Q 6.984375 17.96875 6.984375 36.375 
Q 6.984375 53.65625 15.1875 63.9375 
Q 23.390625 74.21875 37.203125 74.21875 
Q 40.921875 74.21875 44.703125 73.484375 
Q 48.484375 72.75 52.59375 71.296875 
" id="BitstreamVeraSans-Roman-36"/>
      </defs>
      <g transform="translate(418.073571429 381.859875)scale(0.12 -0.12)">
       <use xlink:href="#BitstreamVeraSans-Roman-36"/>
       <use x="63.623046875" xlink:href="#BitstreamVeraSans-Roman-30"/>
       <use x="127.24609375" xlink:href="#BitstreamVeraSans-Roman-30"/>
      </g>
     </g>
    </g>
    <g id="xtick_8">
     <g id="line2d_16">
      <g>
       <use style="stroke:#000000;stroke-width:0.5;" x="493.2975" xlink:href="#m9bb8d66cfb" y="368.74175"/>
      </g>
     </g>
     <g id="line2d_17">
      <g>
       <use style="stroke:#000000;stroke-width:0.5;" x="493.2975" xlink:href="#m9a3ef74b82" y="23.14175"/>
      </g>
     </g>
     <g id="text_8">
      <!-- 700 -->
      <defs>
       <path d="M 8.203125 72.90625 
L 55.078125 72.90625 
L 55.078125 68.703125 
L 28.609375 0 
L 18.3125 0 
L 43.21875 64.59375 
L 8.203125 64.59375 
z
" id="BitstreamVeraSans-Roman-37"/>
      </defs>
      <g transform="translate(481.845 381.859875)scale(0.12 -0.12)">
       <use xlink:href="#BitstreamVeraSans-Roman-37"/>
       <use x="63.623046875" xlink:href="#BitstreamVeraSans-Roman-30"/>
       <use x="127.24609375" xlink:href="#BitstreamVeraSans-Roman-30"/>
      </g>
     </g>
    </g>
    <g id="text_9">
     <!-- episode -->
     <defs>
      <path d="M 56.203125 29.59375 
L 56.203125 25.203125 
L 14.890625 25.203125 
Q 15.484375 15.921875 20.484375 11.0625 
Q 25.484375 6.203125 34.421875 6.203125 
Q 39.59375 6.203125 44.453125 7.46875 
Q 49.3125 8.734375 54.109375 11.28125 
L 54.109375 2.78125 
Q 49.265625 0.734375 44.1875 -0.34375 
Q 39.109375 -1.421875 33.890625 -1.421875 
Q 20.796875 -1.421875 13.15625 6.1875 
Q 5.515625 13.8125 5.515625 26.8125 
Q 5.515625 40.234375 12.765625 48.109375 
Q 20.015625 56 32.328125 56 
Q 43.359375 56 49.78125 48.890625 
Q 56.203125 41.796875 56.203125 29.59375 
M 47.21875 32.234375 
Q 47.125 39.59375 43.09375 43.984375 
Q 39.0625 48.390625 32.421875 48.390625 
Q 24.90625 48.390625 20.390625 44.140625 
Q 15.875 39.890625 15.1875 32.171875 
z
" id="BitstreamVeraSans-Roman-65"/>
      <path d="M 45.40625 46.390625 
L 45.40625 75.984375 
L 54.390625 75.984375 
L 54.390625 0 
L 45.40625 0 
L 45.40625 8.203125 
Q 42.578125 3.328125 38.25 0.953125 
Q 33.9375 -1.421875 27.875 -1.421875 
Q 17.96875 -1.421875 11.734375 6.484375 
Q 5.515625 14.40625 5.515625 27.296875 
Q 5.515625 40.1875 11.734375 48.09375 
Q 17.96875 56 27.875 56 
Q 33.9375 56 38.25 53.625 
Q 42.578125 51.265625 45.40625 46.390625 
M 14.796875 27.296875 
Q 14.796875 17.390625 18.875 11.75 
Q 22.953125 6.109375 30.078125 6.109375 
Q 37.203125 6.109375 41.296875 11.75 
Q 45.40625 17.390625 45.40625 27.296875 
Q 45.40625 37.203125 41.296875 42.84375 
Q 37.203125 48.484375 30.078125 48.484375 
Q 22.953125 48.484375 18.875 42.84375 
Q 14.796875 37.203125 14.796875 27.296875 
" id="BitstreamVeraSans-Roman-64"/>
      <path d="M 9.421875 54.6875 
L 18.40625 54.6875 
L 18.40625 0 
L 9.421875 0 
z
M 9.421875 75.984375 
L 18.40625 75.984375 
L 18.40625 64.59375 
L 9.421875 64.59375 
z
" id="BitstreamVeraSans-Roman-69"/>
      <path d="M 44.28125 53.078125 
L 44.28125 44.578125 
Q 40.484375 46.53125 36.375 47.5 
Q 32.28125 48.484375 27.875 48.484375 
Q 21.1875 48.484375 17.84375 46.4375 
Q 14.5 44.390625 14.5 40.28125 
Q 14.5 37.15625 16.890625 35.375 
Q 19.28125 33.59375 26.515625 31.984375 
L 29.59375 31.296875 
Q 39.15625 29.25 43.1875 25.515625 
Q 47.21875 21.78125 47.21875 15.09375 
Q 47.21875 7.46875 41.1875 3.015625 
Q 35.15625 -1.421875 24.609375 -1.421875 
Q 20.21875 -1.421875 15.453125 -0.5625 
Q 10.6875 0.296875 5.421875 2 
L 5.421875 11.28125 
Q 10.40625 8.6875 15.234375 7.390625 
Q 20.0625 6.109375 24.8125 6.109375 
Q 31.15625 6.109375 34.5625 8.28125 
Q 37.984375 10.453125 37.984375 14.40625 
Q 37.984375 18.0625 35.515625 20.015625 
Q 33.0625 21.96875 24.703125 23.78125 
L 21.578125 24.515625 
Q 13.234375 26.265625 9.515625 29.90625 
Q 5.8125 33.546875 5.8125 39.890625 
Q 5.8125 47.609375 11.28125 51.796875 
Q 16.75 56 26.8125 56 
Q 31.78125 56 36.171875 55.265625 
Q 40.578125 54.546875 44.28125 53.078125 
" id="BitstreamVeraSans-Roman-73"/>
      <path d="M 18.109375 8.203125 
L 18.109375 -20.796875 
L 9.078125 -20.796875 
L 9.078125 54.6875 
L 18.109375 54.6875 
L 18.109375 46.390625 
Q 20.953125 51.265625 25.265625 53.625 
Q 29.59375 56 35.59375 56 
Q 45.5625 56 51.78125 48.09375 
Q 58.015625 40.1875 58.015625 27.296875 
Q 58.015625 14.40625 51.78125 6.484375 
Q 45.5625 -1.421875 35.59375 -1.421875 
Q 29.59375 -1.421875 25.265625 0.953125 
Q 20.953125 3.328125 18.109375 8.203125 
M 48.6875 27.296875 
Q 48.6875 37.203125 44.609375 42.84375 
Q 40.53125 48.484375 33.40625 48.484375 
Q 26.265625 48.484375 22.1875 42.84375 
Q 18.109375 37.203125 18.109375 27.296875 
Q 18.109375 17.390625 22.1875 11.75 
Q 26.265625 6.109375 33.40625 6.109375 
Q 40.53125 6.109375 44.609375 11.75 
Q 48.6875 17.390625 48.6875 27.296875 
" id="BitstreamVeraSans-Roman-70"/>
      <path d="M 30.609375 48.390625 
Q 23.390625 48.390625 19.1875 42.75 
Q 14.984375 37.109375 14.984375 27.296875 
Q 14.984375 17.484375 19.15625 11.84375 
Q 23.34375 6.203125 30.609375 6.203125 
Q 37.796875 6.203125 41.984375 11.859375 
Q 46.1875 17.53125 46.1875 27.296875 
Q 46.1875 37.015625 41.984375 42.703125 
Q 37.796875 48.390625 30.609375 48.390625 
M 30.609375 56 
Q 42.328125 56 49.015625 48.375 
Q 55.71875 40.765625 55.71875 27.296875 
Q 55.71875 13.875 49.015625 6.21875 
Q 42.328125 -1.421875 30.609375 -1.421875 
Q 18.84375 -1.421875 12.171875 6.21875 
Q 5.515625 13.875 5.515625 27.296875 
Q 5.515625 40.765625 12.171875 48.375 
Q 18.84375 56 30.609375 56 
" id="BitstreamVeraSans-Roman-6f"/>
     </defs>
     <g transform="translate(246.631875 398.473625)scale(0.12 -0.12)">
      <use xlink:href="#BitstreamVeraSans-Roman-65"/>
      <use x="61.5234375" xlink:href="#BitstreamVeraSans-Roman-70"/>
      <use x="125.0" xlink:href="#BitstreamVeraSans-Roman-69"/>
      <use x="152.783203125" xlink:href="#BitstreamVeraSans-Roman-73"/>
      <use x="204.8828125" xlink:href="#BitstreamVeraSans-Roman-6f"/>
      <use x="266.064453125" xlink:href="#BitstreamVeraSans-Roman-64"/>
      <use x="329.541015625" xlink:href="#BitstreamVeraSans-Roman-65"/>
     </g>
    </g>
   </g>
   <g id="matplotlib.axis_2">
    <g id="ytick_1">
     <g id="line2d_18">
      <defs>
       <path d="M 0 0 
L 4 0 
" id="m0c1f046c78" style="stroke:#000000;stroke-width:0.5;"/>
      </defs>
      <g>
       <use style="stroke:#000000;stroke-width:0.5;" x="46.8975" xlink:href="#m0c1f046c78" y="368.74175"/>
      </g>
     </g>
     <g id="line2d_19">
      <defs>
       <path d="M 0 0 
L -4 0 
" id="m71dcbd3bbb" style="stroke:#000000;stroke-width:0.5;"/>
      </defs>
      <g>
       <use style="stroke:#000000;stroke-width:0.5;" x="493.2975" xlink:href="#m71dcbd3bbb" y="368.74175"/>
      </g>
     </g>
     <g id="text_10">
      <!-- 0.0 -->
      <defs>
       <path d="M 10.6875 12.40625 
L 21 12.40625 
L 21 0 
L 10.6875 0 
z
" id="BitstreamVeraSans-Roman-2e"/>
      </defs>
      <g transform="translate(23.81375 372.053)scale(0.12 -0.12)">
       <use xlink:href="#BitstreamVeraSans-Roman-30"/>
       <use x="63.623046875" xlink:href="#BitstreamVeraSans-Roman-2e"/>
       <use x="95.41015625" xlink:href="#BitstreamVeraSans-Roman-30"/>
      </g>
     </g>
    </g>
    <g id="ytick_2">
     <g id="line2d_20">
      <g>
       <use style="stroke:#000000;stroke-width:0.5;" x="46.8975" xlink:href="#m0c1f046c78" y="319.370321429"/>
      </g>
     </g>
     <g id="line2d_21">
      <g>
       <use style="stroke:#000000;stroke-width:0.5;" x="493.2975" xlink:href="#m71dcbd3bbb" y="319.370321429"/>
      </g>
     </g>
     <g id="text_11">
      <!-- 0.2 -->
      <g transform="translate(23.81375 322.681571429)scale(0.12 -0.12)">
       <use xlink:href="#BitstreamVeraSans-Roman-30"/>
       <use x="63.623046875" xlink:href="#BitstreamVeraSans-Roman-2e"/>
       <use x="95.41015625" xlink:href="#BitstreamVeraSans-Roman-32"/>
      </g>
     </g>
    </g>
    <g id="ytick_3">
     <g id="line2d_22">
      <g>
       <use style="stroke:#000000;stroke-width:0.5;" x="46.8975" xlink:href="#m0c1f046c78" y="269.998892857"/>
      </g>
     </g>
     <g id="line2d_23">
      <g>
       <use style="stroke:#000000;stroke-width:0.5;" x="493.2975" xlink:href="#m71dcbd3bbb" y="269.998892857"/>
      </g>
     </g>
     <g id="text_12">
      <!-- 0.4 -->
      <g transform="translate(23.81375 273.310142857)scale(0.12 -0.12)">
       <use xlink:href="#BitstreamVeraSans-Roman-30"/>
       <use x="63.623046875" xlink:href="#BitstreamVeraSans-Roman-2e"/>
       <use x="95.41015625" xlink:href="#BitstreamVeraSans-Roman-34"/>
      </g>
     </g>
    </g>
    <g id="ytick_4">
     <g id="line2d_24">
      <g>
       <use style="stroke:#000000;stroke-width:0.5;" x="46.8975" xlink:href="#m0c1f046c78" y="220.627464286"/>
      </g>
     </g>
     <g id="line2d_25">
      <g>
       <use style="stroke:#000000;stroke-width:0.5;" x="493.2975" xlink:href="#m71dcbd3bbb" y="220.627464286"/>
      </g>
     </g>
     <g id="text_13">
      <!-- 0.6 -->
      <g transform="translate(23.81375 223.938714286)scale(0.12 -0.12)">
       <use xlink:href="#BitstreamVeraSans-Roman-30"/>
       <use x="63.623046875" xlink:href="#BitstreamVeraSans-Roman-2e"/>
       <use x="95.41015625" xlink:href="#BitstreamVeraSans-Roman-36"/>
      </g>
     </g>
    </g>
    <g id="ytick_5">
     <g id="line2d_26">
      <g>
       <use style="stroke:#000000;stroke-width:0.5;" x="46.8975" xlink:href="#m0c1f046c78" y="171.256035714"/>
      </g>
     </g>
     <g id="line2d_27">
      <g>
       <use style="stroke:#000000;stroke-width:0.5;" x="493.2975" xlink:href="#m71dcbd3bbb" y="171.256035714"/>
      </g>
     </g>
     <g id="text_14">
      <!-- 0.8 -->
      <defs>
       <path d="M 31.78125 34.625 
Q 24.75 34.625 20.71875 30.859375 
Q 16.703125 27.09375 16.703125 20.515625 
Q 16.703125 13.921875 20.71875 10.15625 
Q 24.75 6.390625 31.78125 6.390625 
Q 38.8125 6.390625 42.859375 10.171875 
Q 46.921875 13.96875 46.921875 20.515625 
Q 46.921875 27.09375 42.890625 30.859375 
Q 38.875 34.625 31.78125 34.625 
M 21.921875 38.8125 
Q 15.578125 40.375 12.03125 44.71875 
Q 8.5 49.078125 8.5 55.328125 
Q 8.5 64.0625 14.71875 69.140625 
Q 20.953125 74.21875 31.78125 74.21875 
Q 42.671875 74.21875 48.875 69.140625 
Q 55.078125 64.0625 55.078125 55.328125 
Q 55.078125 49.078125 51.53125 44.71875 
Q 48 40.375 41.703125 38.8125 
Q 48.828125 37.15625 52.796875 32.3125 
Q 56.78125 27.484375 56.78125 20.515625 
Q 56.78125 9.90625 50.3125 4.234375 
Q 43.84375 -1.421875 31.78125 -1.421875 
Q 19.734375 -1.421875 13.25 4.234375 
Q 6.78125 9.90625 6.78125 20.515625 
Q 6.78125 27.484375 10.78125 32.3125 
Q 14.796875 37.15625 21.921875 38.8125 
M 18.3125 54.390625 
Q 18.3125 48.734375 21.84375 45.5625 
Q 25.390625 42.390625 31.78125 42.390625 
Q 38.140625 42.390625 41.71875 45.5625 
Q 45.3125 48.734375 45.3125 54.390625 
Q 45.3125 60.0625 41.71875 63.234375 
Q 38.140625 66.40625 31.78125 66.40625 
Q 25.390625 66.40625 21.84375 63.234375 
Q 18.3125 60.0625 18.3125 54.390625 
" id="BitstreamVeraSans-Roman-38"/>
      </defs>
      <g transform="translate(23.81375 174.567285714)scale(0.12 -0.12)">
       <use xlink:href="#BitstreamVeraSans-Roman-30"/>
       <use x="63.623046875" xlink:href="#BitstreamVeraSans-Roman-2e"/>
       <use x="95.41015625" xlink:href="#BitstreamVeraSans-Roman-38"/>
      </g>
     </g>
    </g>
    <g id="ytick_6">
     <g id="line2d_28">
      <g>
       <use style="stroke:#000000;stroke-width:0.5;" x="46.8975" xlink:href="#m0c1f046c78" y="121.884607143"/>
      </g>
     </g>
     <g id="line2d_29">
      <g>
       <use style="stroke:#000000;stroke-width:0.5;" x="493.2975" xlink:href="#m71dcbd3bbb" y="121.884607143"/>
      </g>
     </g>
     <g id="text_15">
      <!-- 1.0 -->
      <g transform="translate(23.81375 125.195857143)scale(0.12 -0.12)">
       <use xlink:href="#BitstreamVeraSans-Roman-31"/>
       <use x="63.623046875" xlink:href="#BitstreamVeraSans-Roman-2e"/>
       <use x="95.41015625" xlink:href="#BitstreamVeraSans-Roman-30"/>
      </g>
     </g>
    </g>
    <g id="ytick_7">
     <g id="line2d_30">
      <g>
       <use style="stroke:#000000;stroke-width:0.5;" x="46.8975" xlink:href="#m0c1f046c78" y="72.5131785714"/>
      </g>
     </g>
     <g id="line2d_31">
      <g>
       <use style="stroke:#000000;stroke-width:0.5;" x="493.2975" xlink:href="#m71dcbd3bbb" y="72.5131785714"/>
      </g>
     </g>
     <g id="text_16">
      <!-- 1.2 -->
      <g transform="translate(23.81375 75.8244285714)scale(0.12 -0.12)">
       <use xlink:href="#BitstreamVeraSans-Roman-31"/>
       <use x="63.623046875" xlink:href="#BitstreamVeraSans-Roman-2e"/>
       <use x="95.41015625" xlink:href="#BitstreamVeraSans-Roman-32"/>
      </g>
     </g>
    </g>
    <g id="ytick_8">
     <g id="line2d_32">
      <g>
       <use style="stroke:#000000;stroke-width:0.5;" x="46.8975" xlink:href="#m0c1f046c78" y="23.14175"/>
      </g>
     </g>
     <g id="line2d_33">
      <g>
       <use style="stroke:#000000;stroke-width:0.5;" x="493.2975" xlink:href="#m71dcbd3bbb" y="23.14175"/>
      </g>
     </g>
     <g id="text_17">
      <!-- 1.4 -->
      <g transform="translate(23.81375 26.453)scale(0.12 -0.12)">
       <use xlink:href="#BitstreamVeraSans-Roman-31"/>
       <use x="63.623046875" xlink:href="#BitstreamVeraSans-Roman-2e"/>
       <use x="95.41015625" xlink:href="#BitstreamVeraSans-Roman-34"/>
      </g>
     </g>
    </g>
    <g id="text_18">
     <!-- average maxQ -->
     <defs>
      <path d="M 2.984375 54.6875 
L 12.5 54.6875 
L 29.59375 8.796875 
L 46.6875 54.6875 
L 56.203125 54.6875 
L 35.6875 0 
L 23.484375 0 
z
" id="BitstreamVeraSans-Roman-76"/>
      <path id="BitstreamVeraSans-Roman-20"/>
      <path d="M 39.40625 66.21875 
Q 28.65625 66.21875 22.328125 58.203125 
Q 16.015625 50.203125 16.015625 36.375 
Q 16.015625 22.609375 22.328125 14.59375 
Q 28.65625 6.59375 39.40625 6.59375 
Q 50.140625 6.59375 56.421875 14.59375 
Q 62.703125 22.609375 62.703125 36.375 
Q 62.703125 50.203125 56.421875 58.203125 
Q 50.140625 66.21875 39.40625 66.21875 
M 53.21875 1.3125 
L 66.21875 -12.890625 
L 54.296875 -12.890625 
L 43.5 -1.21875 
Q 41.890625 -1.3125 41.03125 -1.359375 
Q 40.1875 -1.421875 39.40625 -1.421875 
Q 24.03125 -1.421875 14.8125 8.859375 
Q 5.609375 19.140625 5.609375 36.375 
Q 5.609375 53.65625 14.8125 63.9375 
Q 24.03125 74.21875 39.40625 74.21875 
Q 54.734375 74.21875 63.90625 63.9375 
Q 73.09375 53.65625 73.09375 36.375 
Q 73.09375 23.6875 67.984375 14.640625 
Q 62.890625 5.609375 53.21875 1.3125 
" id="BitstreamVeraSans-Roman-51"/>
      <path d="M 54.890625 54.6875 
L 35.109375 28.078125 
L 55.90625 0 
L 45.3125 0 
L 29.390625 21.484375 
L 13.484375 0 
L 2.875 0 
L 24.125 28.609375 
L 4.6875 54.6875 
L 15.28125 54.6875 
L 29.78125 35.203125 
L 44.28125 54.6875 
z
" id="BitstreamVeraSans-Roman-78"/>
      <path d="M 45.40625 27.984375 
Q 45.40625 37.75 41.375 43.109375 
Q 37.359375 48.484375 30.078125 48.484375 
Q 22.859375 48.484375 18.828125 43.109375 
Q 14.796875 37.75 14.796875 27.984375 
Q 14.796875 18.265625 18.828125 12.890625 
Q 22.859375 7.515625 30.078125 7.515625 
Q 37.359375 7.515625 41.375 12.890625 
Q 45.40625 18.265625 45.40625 27.984375 
M 54.390625 6.78125 
Q 54.390625 -7.171875 48.1875 -13.984375 
Q 42 -20.796875 29.203125 -20.796875 
Q 24.46875 -20.796875 20.265625 -20.09375 
Q 16.0625 -19.390625 12.109375 -17.921875 
L 12.109375 -9.1875 
Q 16.0625 -11.328125 19.921875 -12.34375 
Q 23.78125 -13.375 27.78125 -13.375 
Q 36.625 -13.375 41.015625 -8.765625 
Q 45.40625 -4.15625 45.40625 5.171875 
L 45.40625 9.625 
Q 42.625 4.78125 38.28125 2.390625 
Q 33.9375 0 27.875 0 
Q 17.828125 0 11.671875 7.65625 
Q 5.515625 15.328125 5.515625 27.984375 
Q 5.515625 40.671875 11.671875 48.328125 
Q 17.828125 56 27.875 56 
Q 33.9375 56 38.28125 53.609375 
Q 42.625 51.21875 45.40625 46.390625 
L 45.40625 54.6875 
L 54.390625 54.6875 
z
" id="BitstreamVeraSans-Roman-67"/>
      <path d="M 34.28125 27.484375 
Q 23.390625 27.484375 19.1875 25 
Q 14.984375 22.515625 14.984375 16.5 
Q 14.984375 11.71875 18.140625 8.90625 
Q 21.296875 6.109375 26.703125 6.109375 
Q 34.1875 6.109375 38.703125 11.40625 
Q 43.21875 16.703125 43.21875 25.484375 
L 43.21875 27.484375 
z
M 52.203125 31.203125 
L 52.203125 0 
L 43.21875 0 
L 43.21875 8.296875 
Q 40.140625 3.328125 35.546875 0.953125 
Q 30.953125 -1.421875 24.3125 -1.421875 
Q 15.921875 -1.421875 10.953125 3.296875 
Q 6 8.015625 6 15.921875 
Q 6 25.140625 12.171875 29.828125 
Q 18.359375 34.515625 30.609375 34.515625 
L 43.21875 34.515625 
L 43.21875 35.40625 
Q 43.21875 41.609375 39.140625 45 
Q 35.0625 48.390625 27.6875 48.390625 
Q 23 48.390625 18.546875 47.265625 
Q 14.109375 46.140625 10.015625 43.890625 
L 10.015625 52.203125 
Q 14.9375 54.109375 19.578125 55.046875 
Q 24.21875 56 28.609375 56 
Q 40.484375 56 46.34375 49.84375 
Q 52.203125 43.703125 52.203125 31.203125 
" id="BitstreamVeraSans-Roman-61"/>
      <path d="M 52 44.1875 
Q 55.375 50.25 60.0625 53.125 
Q 64.75 56 71.09375 56 
Q 79.640625 56 84.28125 50.015625 
Q 88.921875 44.046875 88.921875 33.015625 
L 88.921875 0 
L 79.890625 0 
L 79.890625 32.71875 
Q 79.890625 40.578125 77.09375 44.375 
Q 74.3125 48.1875 68.609375 48.1875 
Q 61.625 48.1875 57.5625 43.546875 
Q 53.515625 38.921875 53.515625 30.90625 
L 53.515625 0 
L 44.484375 0 
L 44.484375 32.71875 
Q 44.484375 40.625 41.703125 44.40625 
Q 38.921875 48.1875 33.109375 48.1875 
Q 26.21875 48.1875 22.15625 43.53125 
Q 18.109375 38.875 18.109375 30.90625 
L 18.109375 0 
L 9.078125 0 
L 9.078125 54.6875 
L 18.109375 54.6875 
L 18.109375 46.1875 
Q 21.1875 51.21875 25.484375 53.609375 
Q 29.78125 56 35.6875 56 
Q 41.65625 56 45.828125 52.96875 
Q 50 49.953125 52 44.1875 
" id="BitstreamVeraSans-Roman-6d"/>
      <path d="M 41.109375 46.296875 
Q 39.59375 47.171875 37.8125 47.578125 
Q 36.03125 48 33.890625 48 
Q 26.265625 48 22.1875 43.046875 
Q 18.109375 38.09375 18.109375 28.8125 
L 18.109375 0 
L 9.078125 0 
L 9.078125 54.6875 
L 18.109375 54.6875 
L 18.109375 46.1875 
Q 20.953125 51.171875 25.484375 53.578125 
Q 30.03125 56 36.53125 56 
Q 37.453125 56 38.578125 55.875 
Q 39.703125 55.765625 41.0625 55.515625 
z
" id="BitstreamVeraSans-Roman-72"/>
     </defs>
     <g transform="translate(16.318125 240.208625)rotate(-90.0)scale(0.12 -0.12)">
      <use xlink:href="#BitstreamVeraSans-Roman-61"/>
      <use x="61.279296875" xlink:href="#BitstreamVeraSans-Roman-76"/>
      <use x="120.458984375" xlink:href="#BitstreamVeraSans-Roman-65"/>
      <use x="181.982421875" xlink:href="#BitstreamVeraSans-Roman-72"/>
      <use x="223.095703125" xlink:href="#BitstreamVeraSans-Roman-61"/>
      <use x="284.375" xlink:href="#BitstreamVeraSans-Roman-67"/>
      <use x="347.8515625" xlink:href="#BitstreamVeraSans-Roman-65"/>
      <use x="409.375" xlink:href="#BitstreamVeraSans-Roman-20"/>
      <use x="441.162109375" xlink:href="#BitstreamVeraSans-Roman-6d"/>
      <use x="538.57421875" xlink:href="#BitstreamVeraSans-Roman-61"/>
      <use x="599.853515625" xlink:href="#BitstreamVeraSans-Roman-78"/>
      <use x="659.033203125" xlink:href="#BitstreamVeraSans-Roman-51"/>
     </g>
    </g>
   </g>
   <g id="text_19">
    <!-- Average maxQ per episode, joint1 -->
    <defs>
     <path d="M 54.890625 33.015625 
L 54.890625 0 
L 45.90625 0 
L 45.90625 32.71875 
Q 45.90625 40.484375 42.875 44.328125 
Q 39.84375 48.1875 33.796875 48.1875 
Q 26.515625 48.1875 22.3125 43.546875 
Q 18.109375 38.921875 18.109375 30.90625 
L 18.109375 0 
L 9.078125 0 
L 9.078125 54.6875 
L 18.109375 54.6875 
L 18.109375 46.1875 
Q 21.34375 51.125 25.703125 53.5625 
Q 30.078125 56 35.796875 56 
Q 45.21875 56 50.046875 50.171875 
Q 54.890625 44.34375 54.890625 33.015625 
" id="BitstreamVeraSans-Roman-6e"/>
     <path d="M 11.71875 12.40625 
L 22.015625 12.40625 
L 22.015625 4 
L 14.015625 -11.625 
L 7.71875 -11.625 
L 11.71875 4 
z
" id="BitstreamVeraSans-Roman-2c"/>
     <path d="M 9.421875 54.6875 
L 18.40625 54.6875 
L 18.40625 -0.984375 
Q 18.40625 -11.421875 14.421875 -16.109375 
Q 10.453125 -20.796875 1.609375 -20.796875 
L -1.8125 -20.796875 
L -1.8125 -13.1875 
L 0.59375 -13.1875 
Q 5.71875 -13.1875 7.5625 -10.8125 
Q 9.421875 -8.453125 9.421875 -0.984375 
z
M 9.421875 75.984375 
L 18.40625 75.984375 
L 18.40625 64.59375 
L 9.421875 64.59375 
z
" id="BitstreamVeraSans-Roman-6a"/>
     <path d="M 18.3125 70.21875 
L 18.3125 54.6875 
L 36.8125 54.6875 
L 36.8125 47.703125 
L 18.3125 47.703125 
L 18.3125 18.015625 
Q 18.3125 11.328125 20.140625 9.421875 
Q 21.96875 7.515625 27.59375 7.515625 
L 36.8125 7.515625 
L 36.8125 0 
L 27.59375 0 
Q 17.1875 0 13.234375 3.875 
Q 9.28125 7.765625 9.28125 18.015625 
L 9.28125 47.703125 
L 2.6875 47.703125 
L 2.6875 54.6875 
L 9.28125 54.6875 
L 9.28125 70.21875 
z
" id="BitstreamVeraSans-Roman-74"/>
     <path d="M 34.1875 63.1875 
L 20.796875 26.90625 
L 47.609375 26.90625 
z
M 28.609375 72.90625 
L 39.796875 72.90625 
L 67.578125 0 
L 57.328125 0 
L 50.6875 18.703125 
L 17.828125 18.703125 
L 11.1875 0 
L 0.78125 0 
z
" id="BitstreamVeraSans-Roman-41"/>
    </defs>
    <g transform="translate(146.8245 18.14175)scale(0.144 -0.144)">
     <use xlink:href="#BitstreamVeraSans-Roman-41"/>
     <use x="68.330078125" xlink:href="#BitstreamVeraSans-Roman-76"/>
     <use x="127.509765625" xlink:href="#BitstreamVeraSans-Roman-65"/>
     <use x="189.033203125" xlink:href="#BitstreamVeraSans-Roman-72"/>
     <use x="230.146484375" xlink:href="#BitstreamVeraSans-Roman-61"/>
     <use x="291.42578125" xlink:href="#BitstreamVeraSans-Roman-67"/>
     <use x="354.90234375" xlink:href="#BitstreamVeraSans-Roman-65"/>
     <use x="416.42578125" xlink:href="#BitstreamVeraSans-Roman-20"/>
     <use x="448.212890625" xlink:href="#BitstreamVeraSans-Roman-6d"/>
     <use x="545.625" xlink:href="#BitstreamVeraSans-Roman-61"/>
     <use x="606.904296875" xlink:href="#BitstreamVeraSans-Roman-78"/>
     <use x="666.083984375" xlink:href="#BitstreamVeraSans-Roman-51"/>
     <use x="744.794921875" xlink:href="#BitstreamVeraSans-Roman-20"/>
     <use x="776.58203125" xlink:href="#BitstreamVeraSans-Roman-70"/>
     <use x="840.05859375" xlink:href="#BitstreamVeraSans-Roman-65"/>
     <use x="901.58203125" xlink:href="#BitstreamVeraSans-Roman-72"/>
     <use x="942.6953125" xlink:href="#BitstreamVeraSans-Roman-20"/>
     <use x="974.482421875" xlink:href="#BitstreamVeraSans-Roman-65"/>
     <use x="1036.005859375" xlink:href="#BitstreamVeraSans-Roman-70"/>
     <use x="1099.482421875" xlink:href="#BitstreamVeraSans-Roman-69"/>
     <use x="1127.265625" xlink:href="#BitstreamVeraSans-Roman-73"/>
     <use x="1179.365234375" xlink:href="#BitstreamVeraSans-Roman-6f"/>
     <use x="1240.546875" xlink:href="#BitstreamVeraSans-Roman-64"/>
     <use x="1304.0234375" xlink:href="#BitstreamVeraSans-Roman-65"/>
     <use x="1365.546875" xlink:href="#BitstreamVeraSans-Roman-2c"/>
     <use x="1397.333984375" xlink:href="#BitstreamVeraSans-Roman-20"/>
     <use x="1429.12109375" xlink:href="#BitstreamVeraSans-Roman-6a"/>
     <use x="1456.904296875" xlink:href="#BitstreamVeraSans-Roman-6f"/>
     <use x="1518.0859375" xlink:href="#BitstreamVeraSans-Roman-69"/>
     <use x="1545.869140625" xlink:href="#BitstreamVeraSans-Roman-6e"/>
     <use x="1609.248046875" xlink:href="#BitstreamVeraSans-Roman-74"/>
     <use x="1648.45703125" xlink:href="#BitstreamVeraSans-Roman-31"/>
    </g>
   </g>
  </g>
 </g>
 <defs>
  <clipPath id="p28821aab5d">
   <rect height="345.6" width="446.4" x="46.8975" y="23.14175"/>
  </clipPath>
 </defs>
</svg>
