<?xml version="1.0" encoding="utf-8" standalone="no"?>
<!DOCTYPE svg PUBLIC "-//W3C//DTD SVG 1.1//EN"
  "http://www.w3.org/Graphics/SVG/1.1/DTD/svg11.dtd">
<!-- Created with matplotlib (http://matplotlib.org/) -->
<svg height="408pt" version="1.1" viewBox="0 0 522 408" width="522pt" xmlns="http://www.w3.org/2000/svg" xmlns:xlink="http://www.w3.org/1999/xlink">
 <defs>
  <style type="text/css">
*{stroke-linecap:butt;stroke-linejoin:round;stroke-miterlimit:100000;}
  </style>
 </defs>
 <g id="figure_1">
  <g id="patch_1">
   <path d="M 0 408.16925 
L 522.005625 408.16925 
L 522.005625 0 
L 0 0 
z
" style="fill:#ffffff;"/>
  </g>
  <g id="axes_1">
   <g id="patch_2">
    <path d="M 56.953125 368.74175 
L 503.353125 368.74175 
L 503.353125 23.14175 
L 56.953125 23.14175 
z
" style="fill:#ffffff;"/>
   </g>
   <g id="line2d_1">
    <path clip-path="url(#p9ff25f51e6)" d="M 56.953125 68.516717 
L 57.511125 63.85435 
L 58.069125 45.989191 
L 58.627125 54.251798 
L 59.185125 68.037179 
L 59.743125 65.619204 
L 60.301125 54.939911 
L 60.859125 54.038949 
L 61.417125 69.359174 
L 61.975125 62.683339 
L 62.533125 72.618704 
L 63.091125 71.931836 
L 63.649125 65.456425 
L 64.765125 82.47851 
L 65.323125 64.29965 
L 65.881125 77.357662 
L 66.439125 62.243991 
L 66.997125 72.969726 
L 67.555125 55.305294 
L 68.113125 57.730166 
L 68.671125 71.093941 
L 69.229125 61.902595 
L 69.787125 73.526753 
L 70.345125 59.137343 
L 71.461125 73.087245 
L 72.019125 70.048463 
L 72.577125 72.306525 
L 73.135125 60.849835 
L 73.693125 57.691559 
L 74.809125 63.897899 
L 75.367125 61.005343 
L 75.925125 71.290196 
L 76.483125 74.070147 
L 77.041125 73.073693 
L 77.599125 57.531971 
L 78.157125 74.509746 
L 78.715125 59.672968 
L 79.273125 65.737092 
L 79.831125 63.456796 
L 80.389125 57.335472 
L 80.947125 57.635961 
L 81.505125 62.326149 
L 82.063125 78.542444 
L 82.621125 56.330952 
L 83.179125 63.020939 
L 83.737125 66.032351 
L 84.295125 55.851986 
L 84.853125 71.983763 
L 85.411125 68.10373 
L 85.969125 69.121343 
L 86.527125 56.811561 
L 87.085125 72.763898 
L 87.643125 56.747067 
L 88.201125 72.280965 
L 88.759125 58.331511 
L 89.317125 71.635314 
L 89.875125 54.160599 
L 90.433125 51.660376 
L 90.991125 66.882536 
L 91.549125 53.56277 
L 92.107125 56.307111 
L 92.665125 60.980936 
L 93.223125 74.015657 
L 93.781125 60.096634 
L 94.339125 57.493645 
L 94.897125 66.201145 
L 95.455125 67.422935 
L 96.013125 71.720028 
L 96.571125 70.313447 
L 97.129125 74.594512 
L 97.687125 61.799568 
L 98.245125 74.579909 
L 98.803125 56.906419 
L 99.361125 55.878643 
L 99.919125 69.397494 
L 100.477125 67.247764 
L 101.035125 72.59333 
L 101.593125 52.567719 
L 102.151125 59.633419 
L 102.709125 64.162116 
L 103.267125 63.31867 
L 103.825125 62.98855 
L 104.383125 66.29012 
L 104.941125 58.622199 
L 105.499125 76.493822 
L 106.057125 76.52496 
L 106.615125 64.461585 
L 107.173125 68.885626 
L 108.289125 58.929807 
L 108.847125 55.569035 
L 109.405125 69.207294 
L 109.963125 71.8714 
L 110.521125 73.335388 
L 111.079125 63.35976 
L 111.637125 60.154023 
L 112.195125 61.566398 
L 112.753125 57.801023 
L 113.311125 75.445207 
L 113.869125 69.816517 
L 114.427125 43.354564 
L 114.985125 70.639917 
L 115.543125 63.310544 
L 116.101125 82.324783 
L 116.659125 79.480495 
L 117.217125 71.589401 
L 117.775125 70.945232 
L 118.333125 75.443625 
L 118.891125 49.664167 
L 119.449125 70.023013 
L 120.007125 70.10105 
L 121.681125 57.858293 
L 122.239125 64.884472 
L 122.797125 58.713655 
L 123.355125 58.32215 
L 123.913125 68.708281 
L 124.471125 68.113147 
L 125.029125 72.926829 
L 125.587125 61.405552 
L 126.145125 74.447775 
L 126.703125 71.244294 
L 127.261125 63.66541 
L 127.819125 77.178109 
L 128.377125 73.181041 
L 128.935125 80.290846 
L 129.493125 73.522339 
L 130.051125 82.830753 
L 130.609125 62.548035 
L 131.167125 72.14642 
L 131.725125 65.633888 
L 132.283125 64.093493 
L 132.841125 68.93945 
L 133.399125 76.481609 
L 133.957125 69.64594 
L 134.515125 71.017599 
L 135.073125 77.046956 
L 135.631125 67.145376 
L 136.189125 75.665483 
L 136.747125 73.03142 
L 137.305125 77.360953 
L 137.863125 71.416368 
L 138.421125 78.877184 
L 138.979125 67.03324 
L 139.537125 76.547766 
L 140.095125 74.134709 
L 140.653125 68.691563 
L 141.211125 76.357319 
L 141.769125 75.525653 
L 142.327125 68.944485 
L 142.885125 72.759149 
L 143.443125 66.803801 
L 144.001125 70.380879 
L 144.559125 76.47483 
L 145.117125 66.273645 
L 145.675125 70.992776 
L 146.233125 76.960048 
L 146.791125 72.745352 
L 147.907125 73.116327 
L 148.465125 66.830817 
L 149.023125 79.525993 
L 149.581125 64.371195 
L 150.697125 81.354025 
L 151.255125 70.553671 
L 151.813125 78.23616 
L 152.371125 73.06273 
L 152.929125 75.794052 
L 153.487125 71.746965 
L 154.045125 70.072917 
L 154.603125 73.158439 
L 155.161125 78.416569 
L 155.719125 73.285397 
L 156.277125 74.045646 
L 156.835125 70.976691 
L 157.393125 83.901266 
L 157.951125 75.063808 
L 158.509125 78.074223 
L 159.067125 78.039169 
L 159.625125 80.6374 
L 160.183125 75.621686 
L 160.741125 82.223373 
L 161.299125 77.563279 
L 161.857125 78.186092 
L 162.415125 73.615023 
L 162.973125 77.385574 
L 163.531125 79.612249 
L 164.089125 75.344472 
L 164.647125 77.417754 
L 165.205125 77.641309 
L 165.763125 75.148285 
L 166.321125 78.754606 
L 166.879125 78.56971 
L 167.437125 83.445022 
L 167.995125 85.251582 
L 168.553125 78.469888 
L 169.111125 77.086287 
L 169.669125 77.054142 
L 170.227125 82.34296 
L 170.785125 74.993879 
L 171.343125 72.461168 
L 171.901125 78.140371 
L 172.459125 82.399826 
L 173.017125 82.77958 
L 174.133125 73.309874 
L 174.691125 71.594791 
L 175.249125 79.912268 
L 175.807125 73.171524 
L 176.365125 84.111051 
L 176.923125 79.711815 
L 177.481125 79.562958 
L 178.039125 80.088525 
L 178.597125 79.542455 
L 179.155125 80.237287 
L 179.713125 81.763556 
L 180.271125 83.848156 
L 180.829125 81.07926 
L 181.387125 82.263273 
L 181.945125 81.254705 
L 182.503125 84.037141 
L 183.061125 82.366522 
L 183.619125 84.413723 
L 184.177125 79.837077 
L 184.735125 79.798107 
L 185.293125 85.161793 
L 185.851125 85.197397 
L 186.409125 83.000941 
L 186.967125 89.12037 
L 187.525125 82.482538 
L 188.083125 86.049499 
L 188.641125 86.967134 
L 189.757125 89.881632 
L 190.315125 86.982703 
L 190.873125 88.715063 
L 191.431125 88.03753 
L 191.989125 85.565917 
L 192.547125 90.25694 
L 193.105125 85.969974 
L 193.663125 87.5701 
L 194.221125 86.459318 
L 194.779125 92.033413 
L 195.337125 89.164708 
L 195.895125 88.239352 
L 196.453125 91.334389 
L 197.011125 88.971728 
L 197.569125 89.522269 
L 198.127125 87.661933 
L 199.243125 92.469638 
L 199.801125 89.693894 
L 200.359125 90.587771 
L 201.475125 94.556554 
L 202.591125 92.595391 
L 203.149125 95.169552 
L 203.707125 92.832601 
L 204.823125 92.86719 
L 205.381125 92.713058 
L 205.939125 94.773608 
L 206.497125 93.247227 
L 207.055125 95.574437 
L 207.613125 96.511438 
L 208.171125 98.511026 
L 208.729125 96.204067 
L 209.287125 97.13479 
L 209.845125 93.360462 
L 210.403125 97.248418 
L 210.961125 98.780395 
L 211.519125 99.161004 
L 212.077125 96.398091 
L 212.635125 103.69936 
L 213.193125 98.498119 
L 213.751125 98.153857 
L 214.867125 102.014967 
L 215.425125 98.164947 
L 215.983125 100.564485 
L 216.541125 100.44914 
L 217.099125 100.934454 
L 217.657125 103.402904 
L 218.215125 103.448291 
L 218.773125 103.904343 
L 219.331125 104.753212 
L 219.889125 103.255435 
L 220.447125 100.228492 
L 221.005125 100.881825 
L 221.563125 106.522943 
L 222.121125 103.912111 
L 222.679125 106.026925 
L 223.237125 105.609466 
L 223.795125 107.994692 
L 224.353125 103.974791 
L 224.911125 102.017046 
L 225.469125 105.405677 
L 226.027125 104.780265 
L 226.585125 106.539416 
L 227.143125 102.225531 
L 227.701125 107.930801 
L 228.259125 106.013513 
L 228.817125 108.646481 
L 229.375125 110.439156 
L 229.933125 105.697813 
L 230.491125 110.706389 
L 231.049125 111.263944 
L 231.607125 112.308487 
L 232.165125 108.508023 
L 232.723125 111.187546 
L 233.281125 110.702727 
L 233.839125 111.886197 
L 234.397125 111.830314 
L 234.955125 111.902056 
L 236.071125 114.989471 
L 236.629125 112.491455 
L 237.187125 115.848659 
L 237.745125 112.631795 
L 238.303125 113.461329 
L 238.861125 115.124208 
L 239.419125 109.283204 
L 239.977125 116.937892 
L 240.535125 115.970376 
L 241.093125 117.045959 
L 241.651125 112.84558 
L 242.209125 117.68715 
L 242.767125 116.970817 
L 243.325125 118.996732 
L 243.883125 120.199487 
L 244.441125 117.758786 
L 244.999125 116.947015 
L 245.557125 118.62506 
L 246.115125 120.88046 
L 246.673125 121.138249 
L 247.231125 122.530175 
L 247.789125 119.988022 
L 248.347125 119.042324 
L 248.905125 125.089074 
L 249.463125 123.148717 
L 250.021125 122.373363 
L 250.579125 124.014553 
L 251.137125 124.045631 
L 251.695125 122.229151 
L 252.253125 122.625657 
L 252.811125 125.125933 
L 253.369125 124.628977 
L 253.927125 125.050202 
L 254.485125 125.99538 
L 255.043125 123.097528 
L 256.159125 128.941495 
L 257.275125 122.982395 
L 257.833125 129.535117 
L 258.391125 128.162114 
L 258.949125 128.918991 
L 259.507125 130.374565 
L 260.065125 129.533915 
L 260.623125 130.815113 
L 261.181125 133.733959 
L 261.739125 130.860571 
L 262.297125 130.057028 
L 262.855125 134.856418 
L 263.413125 131.512901 
L 264.529125 136.866131 
L 265.087125 133.374671 
L 265.645125 133.925054 
L 266.203125 132.226061 
L 266.761125 136.746564 
L 267.319125 134.345042 
L 267.877125 137.26534 
L 268.435125 137.813548 
L 268.993125 135.441203 
L 269.551125 140.580186 
L 270.109125 137.201858 
L 270.667125 138.527281 
L 271.225125 136.684884 
L 271.783125 137.083427 
L 272.341125 138.116543 
L 272.899125 143.368186 
L 273.457125 138.481996 
L 274.015125 138.15815 
L 275.131125 139.865239 
L 275.689125 138.692879 
L 276.247125 143.722539 
L 276.805125 145.153523 
L 277.363125 139.87744 
L 277.921125 146.02486 
L 278.479125 143.900581 
L 279.037125 145.332778 
L 279.595125 145.583717 
L 280.153125 146.015706 
L 280.711125 147.468942 
L 281.269125 147.874602 
L 281.827125 145.097334 
L 282.385125 146.711513 
L 282.943125 150.171591 
L 283.501125 150.281705 
L 284.059125 143.914452 
L 284.617125 150.311025 
L 285.175125 149.639963 
L 286.291125 155.086264 
L 286.849125 152.249592 
L 287.407125 143.118187 
L 287.965125 151.421791 
L 288.523125 149.365485 
L 289.081125 149.733266 
L 289.639125 152.485153 
L 290.197125 153.76067 
L 290.755125 151.646765 
L 291.313125 157.898312 
L 291.871125 155.145362 
L 292.429125 155.453072 
L 292.987125 154.038102 
L 293.545125 160.537073 
L 294.103125 156.104628 
L 295.219125 157.734714 
L 296.335125 156.861672 
L 296.893125 161.034354 
L 297.451125 162.839435 
L 298.009125 159.25526 
L 298.567125 157.158949 
L 299.125125 161.459676 
L 299.683125 163.920994 
L 300.241125 163.694314 
L 300.799125 161.420819 
L 301.915125 159.872834 
L 302.473125 161.916284 
L 303.031125 165.102839 
L 303.589125 166.88515 
L 304.147125 166.949667 
L 304.705125 168.323109 
L 305.263125 163.060142 
L 305.821125 167.662333 
L 306.379125 168.541423 
L 306.937125 165.619748 
L 307.495125 173.26144 
L 308.053125 169.366323 
L 308.611125 168.625995 
L 309.169125 167.034623 
L 309.727125 172.107753 
L 310.285125 170.752453 
L 310.843125 172.178616 
L 311.401125 171.209834 
L 311.959125 176.414273 
L 312.517125 170.307257 
L 313.075125 173.933943 
L 313.633125 173.656044 
L 314.191125 175.242275 
L 314.749125 171.192171 
L 315.307125 176.717685 
L 315.865125 170.875079 
L 316.423125 175.411014 
L 316.981125 172.884147 
L 317.539125 180.751118 
L 318.655125 176.878877 
L 319.213125 178.202136 
L 319.771125 180.107585 
L 320.329125 181.072622 
L 320.887125 176.402708 
L 321.445125 180.970889 
L 322.003125 179.781341 
L 322.561125 183.985329 
L 323.119125 184.806624 
L 323.677125 184.444472 
L 324.793125 180.024931 
L 325.351125 188.781198 
L 325.909125 185.759726 
L 326.467125 185.603028 
L 327.025125 190.532921 
L 328.141125 187.881273 
L 328.699125 185.816696 
L 329.257125 186.526951 
L 329.815125 186.467183 
L 330.373125 189.900407 
L 330.931125 188.657742 
L 331.489125 189.428666 
L 332.047125 196.142181 
L 332.605125 190.985909 
L 333.163125 190.194125 
L 333.721125 195.719815 
L 334.279125 188.323165 
L 334.837125 183.002915 
L 335.953125 195.212464 
L 336.511125 193.381203 
L 337.069125 200.979609 
L 338.185125 194.186312 
L 338.743125 198.136224 
L 339.301125 203.051335 
L 339.859125 193.525462 
L 340.417125 194.722202 
L 340.975125 200.199444 
L 341.533125 197.22399 
L 342.091125 205.598219 
L 342.649125 194.712433 
L 343.207125 204.984221 
L 343.765125 202.592461 
L 344.323125 195.127266 
L 345.439125 206.377656 
L 345.997125 201.293229 
L 346.555125 200.374512 
L 347.113125 197.300401 
L 347.671125 205.129072 
L 348.229125 203.543889 
L 348.787125 209.744827 
L 349.345125 206.025639 
L 349.903125 207.484861 
L 350.461125 199.160739 
L 351.019125 208.597877 
L 351.577125 201.628795 
L 352.693125 213.010006 
L 353.251125 209.968562 
L 353.809125 209.80366 
L 354.925125 209.98209 
L 356.041125 213.430454 
L 356.599125 212.847707 
L 357.157125 209.674834 
L 357.715125 209.655759 
L 358.273125 215.812806 
L 358.831125 214.932935 
L 359.389125 212.727415 
L 359.947125 209.990536 
L 360.505125 223.265692 
L 361.063125 221.092524 
L 361.621125 217.732328 
L 362.179125 223.576942 
L 362.737125 217.062659 
L 363.295125 220.948583 
L 363.853125 207.406364 
L 364.411125 220.276488 
L 364.969125 227.25581 
L 365.527125 221.986214 
L 366.085125 222.784109 
L 366.643125 226.646841 
L 367.201125 215.587898 
L 367.759125 221.982141 
L 368.317125 226.68734 
L 368.875125 225.220218 
L 369.433125 220.460456 
L 369.991125 223.426433 
L 370.549125 222.85901 
L 371.107125 222.683189 
L 371.665125 232.784607 
L 372.223125 235.371192 
L 373.339125 227.182216 
L 373.897125 229.319263 
L 374.455125 232.797595 
L 375.013125 225.094621 
L 375.571125 233.156817 
L 376.129125 230.296907 
L 376.687125 233.544322 
L 377.803125 226.545734 
L 378.361125 235.453788 
L 378.919125 233.72296 
L 379.477125 241.913284 
L 380.035125 231.856727 
L 380.593125 236.748388 
L 381.151125 231.118695 
L 381.709125 239.535674 
L 382.267125 231.544759 
L 382.825125 235.591395 
L 383.383125 233.504363 
L 383.941125 237.474826 
L 384.499125 231.811514 
L 385.057125 236.277413 
L 385.615125 234.267308 
L 386.173125 242.008104 
L 386.731125 227.251282 
L 387.289125 245.778504 
L 387.847125 239.663276 
L 388.405125 250.902858 
L 388.963125 247.73234 
L 389.521125 243.466376 
L 390.079125 241.718223 
L 390.637125 245.865298 
L 391.195125 251.271115 
L 391.753125 249.098828 
L 392.311125 249.967966 
L 392.869125 250.271261 
L 393.427125 243.101374 
L 393.985125 252.344664 
L 394.543125 249.514426 
L 395.101125 248.628558 
L 395.659125 251.287166 
L 396.217125 239.6366 
L 397.891125 246.878972 
L 398.449125 251.309182 
L 399.007125 253.252683 
L 399.565125 245.268739 
L 400.123125 245.138907 
L 400.681125 248.264613 
L 401.239125 254.223154 
L 401.797125 257.195534 
L 402.355125 250.53403 
L 402.913125 251.224564 
L 403.471125 254.999143 
L 404.029125 255.467188 
L 404.587125 256.422563 
L 405.145125 254.487422 
L 405.703125 255.651992 
L 406.261125 252.088355 
L 407.935125 263.914034 
L 408.493125 270.735938 
L 409.051125 268.167131 
L 409.609125 268.223076 
L 410.167125 260.608479 
L 410.725125 262.765043 
L 411.283125 268.283431 
L 411.841125 267.018088 
L 412.399125 262.93117 
L 412.957125 262.382613 
L 413.515125 265.108122 
L 414.073125 269.678579 
L 414.631125 267.532154 
L 415.189125 268.578937 
L 415.747125 270.037465 
L 416.305125 273.545356 
L 416.863125 271.105121 
L 417.421125 271.470638 
L 417.979125 267.314323 
L 418.537125 271.581157 
L 419.095125 269.649272 
L 419.653125 271.899285 
L 420.211125 264.064686 
L 420.769125 273.626656 
L 421.327125 270.771389 
L 421.885125 270.863266 
L 422.443125 265.87437 
L 423.001125 270.366578 
L 423.559125 269.450216 
L 424.117125 268.272034 
L 424.675125 271.454605 
L 425.233125 269.897817 
L 425.791125 276.161789 
L 426.349125 273.55878 
L 426.907125 274.472039 
L 427.465125 275.02437 
L 428.023125 268.372415 
L 428.581125 275.086935 
L 429.139125 266.082667 
L 429.697125 271.790491 
L 430.255125 283.05824 
L 430.813125 276.449277 
L 431.371125 277.866516 
L 431.929125 276.108573 
L 432.487125 276.872586 
L 433.045125 286.24138 
L 433.603125 285.340751 
L 434.161125 289.529488 
L 434.719125 282.054854 
L 435.277125 277.803046 
L 435.835125 278.679186 
L 436.393125 274.099799 
L 436.951125 279.04272 
L 437.509125 278.684613 
L 438.625125 292.631122 
L 439.183125 286.941266 
L 439.741125 283.889867 
L 440.299125 281.765729 
L 440.857125 274.200342 
L 441.415125 281.886668 
L 441.973125 281.498891 
L 442.531125 289.999515 
L 443.089125 290.081943 
L 443.647125 283.669705 
L 444.205125 292.600599 
L 444.763125 295.723855 
L 445.321125 282.559009 
L 445.879125 292.205085 
L 446.437125 291.233486 
L 446.995125 285.742711 
L 447.553125 283.117597 
L 448.111125 292.44849 
L 448.669125 292.595729 
L 449.227125 289.617205 
L 449.785125 289.595191 
L 450.343125 285.396336 
L 450.901125 296.150264 
L 451.459125 291.510325 
L 452.017125 288.447584 
L 452.575125 290.147164 
L 453.133125 294.581367 
L 453.691125 302.241079 
L 454.249125 302.946099 
L 454.807125 296.869438 
L 455.365125 300.918515 
L 455.923125 289.654813 
L 456.481125 296.943695 
L 457.039125 299.242899 
L 457.597125 295.152498 
L 458.155125 293.673268 
L 458.713125 293.511069 
L 459.271125 298.876085 
L 459.829125 289.059354 
L 460.387125 292.633161 
L 460.945125 304.28958 
L 461.503125 307.487806 
L 462.061125 301.758132 
L 462.619125 290.189944 
L 463.177125 294.285114 
L 463.735125 295.899834 
L 464.293125 309.917559 
L 464.851125 300.072644 
L 465.409125 303.148759 
L 465.967125 304.76453 
L 466.525125 299.400225 
L 467.083125 299.140039 
L 467.641125 307.181748 
L 468.199125 291.992332 
L 468.757125 301.23797 
L 469.315125 303.616154 
L 469.873125 301.688554 
L 470.431125 291.61362 
L 470.989125 294.335136 
L 471.547125 301.013141 
L 472.105125 310.150184 
L 472.663125 308.545129 
L 473.221125 304.925685 
L 473.779125 308.541389 
L 474.337125 305.668043 
L 474.895125 299.141028 
L 475.453125 312.524901 
L 476.011125 309.200122 
L 476.569125 308.726821 
L 477.127125 305.997638 
L 477.685125 310.406738 
L 478.243125 301.533236 
L 478.801125 298.977554 
L 479.359125 300.693343 
L 479.917125 309.120879 
L 480.475125 309.826822 
L 481.033125 319.771215 
L 481.591125 306.881865 
L 482.149125 307.146754 
L 482.707125 314.206235 
L 483.265125 315.95548 
L 483.823125 305.193463 
L 484.381125 309.653389 
L 484.939125 302.788207 
L 485.497125 310.20638 
L 486.055125 312.620306 
L 486.613125 313.114819 
L 487.171125 304.523414 
L 487.729125 314.56161 
L 488.287125 300.421462 
L 488.845125 305.198378 
L 489.403125 319.614267 
L 489.961125 313.287198 
L 490.519125 313.276931 
L 491.077125 317.226526 
L 491.635125 311.79931 
L 492.193125 317.874665 
L 492.751125 306.979503 
L 493.309125 314.521574 
L 493.867125 314.422738 
L 494.425125 321.917327 
L 494.983125 316.910454 
L 495.541125 322.48968 
L 496.099125 320.803028 
L 496.657125 310.483888 
L 497.215125 316.055416 
L 497.773125 314.986363 
L 498.331125 321.453146 
L 498.889125 310.907795 
L 499.447125 315.124971 
L 500.005125 324.195817 
L 500.563125 313.509481 
L 501.121125 320.498584 
L 501.679125 314.616995 
L 502.237125 321.71799 
L 502.795125 326.178665 
L 502.795125 326.178665 
" style="fill:none;stroke:#0000ff;stroke-linecap:square;stroke-width:0.5;"/>
   </g>
   <g id="patch_3">
    <path d="M 56.953125 368.74175 
L 56.953125 23.14175 
" style="fill:none;stroke:#000000;stroke-linecap:square;stroke-linejoin:miter;"/>
   </g>
   <g id="patch_4">
    <path d="M 56.953125 368.74175 
L 503.353125 368.74175 
" style="fill:none;stroke:#000000;stroke-linecap:square;stroke-linejoin:miter;"/>
   </g>
   <g id="patch_5">
    <path d="M 503.353125 368.74175 
L 503.353125 23.14175 
" style="fill:none;stroke:#000000;stroke-linecap:square;stroke-linejoin:miter;"/>
   </g>
   <g id="patch_6">
    <path d="M 56.953125 23.14175 
L 503.353125 23.14175 
" style="fill:none;stroke:#000000;stroke-linecap:square;stroke-linejoin:miter;"/>
   </g>
   <g id="matplotlib.axis_1">
    <g id="xtick_1">
     <g id="line2d_2">
      <defs>
       <path d="M 0 0 
L 0 -4 
" id="me795dc025a" style="stroke:#000000;stroke-width:0.5;"/>
      </defs>
      <g>
       <use style="stroke:#000000;stroke-width:0.5;" x="56.953125" xlink:href="#me795dc025a" y="368.74175"/>
      </g>
     </g>
     <g id="line2d_3">
      <defs>
       <path d="M 0 0 
L 0 4 
" id="m6754a70924" style="stroke:#000000;stroke-width:0.5;"/>
      </defs>
      <g>
       <use style="stroke:#000000;stroke-width:0.5;" x="56.953125" xlink:href="#m6754a70924" y="23.14175"/>
      </g>
     </g>
     <g id="text_1">
      <!-- 0 -->
      <defs>
       <path d="M 31.78125 66.40625 
Q 24.171875 66.40625 20.328125 58.90625 
Q 16.5 51.421875 16.5 36.375 
Q 16.5 21.390625 20.328125 13.890625 
Q 24.171875 6.390625 31.78125 6.390625 
Q 39.453125 6.390625 43.28125 13.890625 
Q 47.125 21.390625 47.125 36.375 
Q 47.125 51.421875 43.28125 58.90625 
Q 39.453125 66.40625 31.78125 66.40625 
M 31.78125 74.21875 
Q 44.046875 74.21875 50.515625 64.515625 
Q 56.984375 54.828125 56.984375 36.375 
Q 56.984375 17.96875 50.515625 8.265625 
Q 44.046875 -1.421875 31.78125 -1.421875 
Q 19.53125 -1.421875 13.0625 8.265625 
Q 6.59375 17.96875 6.59375 36.375 
Q 6.59375 54.828125 13.0625 64.515625 
Q 19.53125 74.21875 31.78125 74.21875 
" id="BitstreamVeraSans-Roman-30"/>
      </defs>
      <g transform="translate(53.135625 381.859875)scale(0.12 -0.12)">
       <use xlink:href="#BitstreamVeraSans-Roman-30"/>
      </g>
     </g>
    </g>
    <g id="xtick_2">
     <g id="line2d_4">
      <g>
       <use style="stroke:#000000;stroke-width:0.5;" x="112.753125" xlink:href="#me795dc025a" y="368.74175"/>
      </g>
     </g>
     <g id="line2d_5">
      <g>
       <use style="stroke:#000000;stroke-width:0.5;" x="112.753125" xlink:href="#m6754a70924" y="23.14175"/>
      </g>
     </g>
     <g id="text_2">
      <!-- 100 -->
      <defs>
       <path d="M 12.40625 8.296875 
L 28.515625 8.296875 
L 28.515625 63.921875 
L 10.984375 60.40625 
L 10.984375 69.390625 
L 28.421875 72.90625 
L 38.28125 72.90625 
L 38.28125 8.296875 
L 54.390625 8.296875 
L 54.390625 0 
L 12.40625 0 
z
" id="BitstreamVeraSans-Roman-31"/>
      </defs>
      <g transform="translate(101.300625 381.859875)scale(0.12 -0.12)">
       <use xlink:href="#BitstreamVeraSans-Roman-31"/>
       <use x="63.623046875" xlink:href="#BitstreamVeraSans-Roman-30"/>
       <use x="127.24609375" xlink:href="#BitstreamVeraSans-Roman-30"/>
      </g>
     </g>
    </g>
    <g id="xtick_3">
     <g id="line2d_6">
      <g>
       <use style="stroke:#000000;stroke-width:0.5;" x="168.553125" xlink:href="#me795dc025a" y="368.74175"/>
      </g>
     </g>
     <g id="line2d_7">
      <g>
       <use style="stroke:#000000;stroke-width:0.5;" x="168.553125" xlink:href="#m6754a70924" y="23.14175"/>
      </g>
     </g>
     <g id="text_3">
      <!-- 200 -->
      <defs>
       <path d="M 19.1875 8.296875 
L 53.609375 8.296875 
L 53.609375 0 
L 7.328125 0 
L 7.328125 8.296875 
Q 12.9375 14.109375 22.625 23.890625 
Q 32.328125 33.6875 34.8125 36.53125 
Q 39.546875 41.84375 41.421875 45.53125 
Q 43.3125 49.21875 43.3125 52.78125 
Q 43.3125 58.59375 39.234375 62.25 
Q 35.15625 65.921875 28.609375 65.921875 
Q 23.96875 65.921875 18.8125 64.3125 
Q 13.671875 62.703125 7.8125 59.421875 
L 7.8125 69.390625 
Q 13.765625 71.78125 18.9375 73 
Q 24.125 74.21875 28.421875 74.21875 
Q 39.75 74.21875 46.484375 68.546875 
Q 53.21875 62.890625 53.21875 53.421875 
Q 53.21875 48.921875 51.53125 44.890625 
Q 49.859375 40.875 45.40625 35.40625 
Q 44.1875 33.984375 37.640625 27.21875 
Q 31.109375 20.453125 19.1875 8.296875 
" id="BitstreamVeraSans-Roman-32"/>
      </defs>
      <g transform="translate(157.100625 381.859875)scale(0.12 -0.12)">
       <use xlink:href="#BitstreamVeraSans-Roman-32"/>
       <use x="63.623046875" xlink:href="#BitstreamVeraSans-Roman-30"/>
       <use x="127.24609375" xlink:href="#BitstreamVeraSans-Roman-30"/>
      </g>
     </g>
    </g>
    <g id="xtick_4">
     <g id="line2d_8">
      <g>
       <use style="stroke:#000000;stroke-width:0.5;" x="224.353125" xlink:href="#me795dc025a" y="368.74175"/>
      </g>
     </g>
     <g id="line2d_9">
      <g>
       <use style="stroke:#000000;stroke-width:0.5;" x="224.353125" xlink:href="#m6754a70924" y="23.14175"/>
      </g>
     </g>
     <g id="text_4">
      <!-- 300 -->
      <defs>
       <path d="M 40.578125 39.3125 
Q 47.65625 37.796875 51.625 33 
Q 55.609375 28.21875 55.609375 21.1875 
Q 55.609375 10.40625 48.1875 4.484375 
Q 40.765625 -1.421875 27.09375 -1.421875 
Q 22.515625 -1.421875 17.65625 -0.515625 
Q 12.796875 0.390625 7.625 2.203125 
L 7.625 11.71875 
Q 11.71875 9.328125 16.59375 8.109375 
Q 21.484375 6.890625 26.8125 6.890625 
Q 36.078125 6.890625 40.9375 10.546875 
Q 45.796875 14.203125 45.796875 21.1875 
Q 45.796875 27.640625 41.28125 31.265625 
Q 36.765625 34.90625 28.71875 34.90625 
L 20.21875 34.90625 
L 20.21875 43.015625 
L 29.109375 43.015625 
Q 36.375 43.015625 40.234375 45.921875 
Q 44.09375 48.828125 44.09375 54.296875 
Q 44.09375 59.90625 40.109375 62.90625 
Q 36.140625 65.921875 28.71875 65.921875 
Q 24.65625 65.921875 20.015625 65.03125 
Q 15.375 64.15625 9.8125 62.3125 
L 9.8125 71.09375 
Q 15.4375 72.65625 20.34375 73.4375 
Q 25.25 74.21875 29.59375 74.21875 
Q 40.828125 74.21875 47.359375 69.109375 
Q 53.90625 64.015625 53.90625 55.328125 
Q 53.90625 49.265625 50.4375 45.09375 
Q 46.96875 40.921875 40.578125 39.3125 
" id="BitstreamVeraSans-Roman-33"/>
      </defs>
      <g transform="translate(212.900625 381.859875)scale(0.12 -0.12)">
       <use xlink:href="#BitstreamVeraSans-Roman-33"/>
       <use x="63.623046875" xlink:href="#BitstreamVeraSans-Roman-30"/>
       <use x="127.24609375" xlink:href="#BitstreamVeraSans-Roman-30"/>
      </g>
     </g>
    </g>
    <g id="xtick_5">
     <g id="line2d_10">
      <g>
       <use style="stroke:#000000;stroke-width:0.5;" x="280.153125" xlink:href="#me795dc025a" y="368.74175"/>
      </g>
     </g>
     <g id="line2d_11">
      <g>
       <use style="stroke:#000000;stroke-width:0.5;" x="280.153125" xlink:href="#m6754a70924" y="23.14175"/>
      </g>
     </g>
     <g id="text_5">
      <!-- 400 -->
      <defs>
       <path d="M 37.796875 64.3125 
L 12.890625 25.390625 
L 37.796875 25.390625 
z
M 35.203125 72.90625 
L 47.609375 72.90625 
L 47.609375 25.390625 
L 58.015625 25.390625 
L 58.015625 17.1875 
L 47.609375 17.1875 
L 47.609375 0 
L 37.796875 0 
L 37.796875 17.1875 
L 4.890625 17.1875 
L 4.890625 26.703125 
z
" id="BitstreamVeraSans-Roman-34"/>
      </defs>
      <g transform="translate(268.700625 381.859875)scale(0.12 -0.12)">
       <use xlink:href="#BitstreamVeraSans-Roman-34"/>
       <use x="63.623046875" xlink:href="#BitstreamVeraSans-Roman-30"/>
       <use x="127.24609375" xlink:href="#BitstreamVeraSans-Roman-30"/>
      </g>
     </g>
    </g>
    <g id="xtick_6">
     <g id="line2d_12">
      <g>
       <use style="stroke:#000000;stroke-width:0.5;" x="335.953125" xlink:href="#me795dc025a" y="368.74175"/>
      </g>
     </g>
     <g id="line2d_13">
      <g>
       <use style="stroke:#000000;stroke-width:0.5;" x="335.953125" xlink:href="#m6754a70924" y="23.14175"/>
      </g>
     </g>
     <g id="text_6">
      <!-- 500 -->
      <defs>
       <path d="M 10.796875 72.90625 
L 49.515625 72.90625 
L 49.515625 64.59375 
L 19.828125 64.59375 
L 19.828125 46.734375 
Q 21.96875 47.46875 24.109375 47.828125 
Q 26.265625 48.1875 28.421875 48.1875 
Q 40.625 48.1875 47.75 41.5 
Q 54.890625 34.8125 54.890625 23.390625 
Q 54.890625 11.625 47.5625 5.09375 
Q 40.234375 -1.421875 26.90625 -1.421875 
Q 22.3125 -1.421875 17.546875 -0.640625 
Q 12.796875 0.140625 7.71875 1.703125 
L 7.71875 11.625 
Q 12.109375 9.234375 16.796875 8.0625 
Q 21.484375 6.890625 26.703125 6.890625 
Q 35.15625 6.890625 40.078125 11.328125 
Q 45.015625 15.765625 45.015625 23.390625 
Q 45.015625 31 40.078125 35.4375 
Q 35.15625 39.890625 26.703125 39.890625 
Q 22.75 39.890625 18.8125 39.015625 
Q 14.890625 38.140625 10.796875 36.28125 
z
" id="BitstreamVeraSans-Roman-35"/>
      </defs>
      <g transform="translate(324.500625 381.859875)scale(0.12 -0.12)">
       <use xlink:href="#BitstreamVeraSans-Roman-35"/>
       <use x="63.623046875" xlink:href="#BitstreamVeraSans-Roman-30"/>
       <use x="127.24609375" xlink:href="#BitstreamVeraSans-Roman-30"/>
      </g>
     </g>
    </g>
    <g id="xtick_7">
     <g id="line2d_14">
      <g>
       <use style="stroke:#000000;stroke-width:0.5;" x="391.753125" xlink:href="#me795dc025a" y="368.74175"/>
      </g>
     </g>
     <g id="line2d_15">
      <g>
       <use style="stroke:#000000;stroke-width:0.5;" x="391.753125" xlink:href="#m6754a70924" y="23.14175"/>
      </g>
     </g>
     <g id="text_7">
      <!-- 600 -->
      <defs>
       <path d="M 33.015625 40.375 
Q 26.375 40.375 22.484375 35.828125 
Q 18.609375 31.296875 18.609375 23.390625 
Q 18.609375 15.53125 22.484375 10.953125 
Q 26.375 6.390625 33.015625 6.390625 
Q 39.65625 6.390625 43.53125 10.953125 
Q 47.40625 15.53125 47.40625 23.390625 
Q 47.40625 31.296875 43.53125 35.828125 
Q 39.65625 40.375 33.015625 40.375 
M 52.59375 71.296875 
L 52.59375 62.3125 
Q 48.875 64.0625 45.09375 64.984375 
Q 41.3125 65.921875 37.59375 65.921875 
Q 27.828125 65.921875 22.671875 59.328125 
Q 17.53125 52.734375 16.796875 39.40625 
Q 19.671875 43.65625 24.015625 45.921875 
Q 28.375 48.1875 33.59375 48.1875 
Q 44.578125 48.1875 50.953125 41.515625 
Q 57.328125 34.859375 57.328125 23.390625 
Q 57.328125 12.15625 50.6875 5.359375 
Q 44.046875 -1.421875 33.015625 -1.421875 
Q 20.359375 -1.421875 13.671875 8.265625 
Q 6.984375 17.96875 6.984375 36.375 
Q 6.984375 53.65625 15.1875 63.9375 
Q 23.390625 74.21875 37.203125 74.21875 
Q 40.921875 74.21875 44.703125 73.484375 
Q 48.484375 72.75 52.59375 71.296875 
" id="BitstreamVeraSans-Roman-36"/>
      </defs>
      <g transform="translate(380.300625 381.859875)scale(0.12 -0.12)">
       <use xlink:href="#BitstreamVeraSans-Roman-36"/>
       <use x="63.623046875" xlink:href="#BitstreamVeraSans-Roman-30"/>
       <use x="127.24609375" xlink:href="#BitstreamVeraSans-Roman-30"/>
      </g>
     </g>
    </g>
    <g id="xtick_8">
     <g id="line2d_16">
      <g>
       <use style="stroke:#000000;stroke-width:0.5;" x="447.553125" xlink:href="#me795dc025a" y="368.74175"/>
      </g>
     </g>
     <g id="line2d_17">
      <g>
       <use style="stroke:#000000;stroke-width:0.5;" x="447.553125" xlink:href="#m6754a70924" y="23.14175"/>
      </g>
     </g>
     <g id="text_8">
      <!-- 700 -->
      <defs>
       <path d="M 8.203125 72.90625 
L 55.078125 72.90625 
L 55.078125 68.703125 
L 28.609375 0 
L 18.3125 0 
L 43.21875 64.59375 
L 8.203125 64.59375 
z
" id="BitstreamVeraSans-Roman-37"/>
      </defs>
      <g transform="translate(436.100625 381.859875)scale(0.12 -0.12)">
       <use xlink:href="#BitstreamVeraSans-Roman-37"/>
       <use x="63.623046875" xlink:href="#BitstreamVeraSans-Roman-30"/>
       <use x="127.24609375" xlink:href="#BitstreamVeraSans-Roman-30"/>
      </g>
     </g>
    </g>
    <g id="xtick_9">
     <g id="line2d_18">
      <g>
       <use style="stroke:#000000;stroke-width:0.5;" x="503.353125" xlink:href="#me795dc025a" y="368.74175"/>
      </g>
     </g>
     <g id="line2d_19">
      <g>
       <use style="stroke:#000000;stroke-width:0.5;" x="503.353125" xlink:href="#m6754a70924" y="23.14175"/>
      </g>
     </g>
     <g id="text_9">
      <!-- 800 -->
      <defs>
       <path d="M 31.78125 34.625 
Q 24.75 34.625 20.71875 30.859375 
Q 16.703125 27.09375 16.703125 20.515625 
Q 16.703125 13.921875 20.71875 10.15625 
Q 24.75 6.390625 31.78125 6.390625 
Q 38.8125 6.390625 42.859375 10.171875 
Q 46.921875 13.96875 46.921875 20.515625 
Q 46.921875 27.09375 42.890625 30.859375 
Q 38.875 34.625 31.78125 34.625 
M 21.921875 38.8125 
Q 15.578125 40.375 12.03125 44.71875 
Q 8.5 49.078125 8.5 55.328125 
Q 8.5 64.0625 14.71875 69.140625 
Q 20.953125 74.21875 31.78125 74.21875 
Q 42.671875 74.21875 48.875 69.140625 
Q 55.078125 64.0625 55.078125 55.328125 
Q 55.078125 49.078125 51.53125 44.71875 
Q 48 40.375 41.703125 38.8125 
Q 48.828125 37.15625 52.796875 32.3125 
Q 56.78125 27.484375 56.78125 20.515625 
Q 56.78125 9.90625 50.3125 4.234375 
Q 43.84375 -1.421875 31.78125 -1.421875 
Q 19.734375 -1.421875 13.25 4.234375 
Q 6.78125 9.90625 6.78125 20.515625 
Q 6.78125 27.484375 10.78125 32.3125 
Q 14.796875 37.15625 21.921875 38.8125 
M 18.3125 54.390625 
Q 18.3125 48.734375 21.84375 45.5625 
Q 25.390625 42.390625 31.78125 42.390625 
Q 38.140625 42.390625 41.71875 45.5625 
Q 45.3125 48.734375 45.3125 54.390625 
Q 45.3125 60.0625 41.71875 63.234375 
Q 38.140625 66.40625 31.78125 66.40625 
Q 25.390625 66.40625 21.84375 63.234375 
Q 18.3125 60.0625 18.3125 54.390625 
" id="BitstreamVeraSans-Roman-38"/>
      </defs>
      <g transform="translate(491.900625 381.859875)scale(0.12 -0.12)">
       <use xlink:href="#BitstreamVeraSans-Roman-38"/>
       <use x="63.623046875" xlink:href="#BitstreamVeraSans-Roman-30"/>
       <use x="127.24609375" xlink:href="#BitstreamVeraSans-Roman-30"/>
      </g>
     </g>
    </g>
    <g id="text_10">
     <!-- episode -->
     <defs>
      <path d="M 44.28125 53.078125 
L 44.28125 44.578125 
Q 40.484375 46.53125 36.375 47.5 
Q 32.28125 48.484375 27.875 48.484375 
Q 21.1875 48.484375 17.84375 46.4375 
Q 14.5 44.390625 14.5 40.28125 
Q 14.5 37.15625 16.890625 35.375 
Q 19.28125 33.59375 26.515625 31.984375 
L 29.59375 31.296875 
Q 39.15625 29.25 43.1875 25.515625 
Q 47.21875 21.78125 47.21875 15.09375 
Q 47.21875 7.46875 41.1875 3.015625 
Q 35.15625 -1.421875 24.609375 -1.421875 
Q 20.21875 -1.421875 15.453125 -0.5625 
Q 10.6875 0.296875 5.421875 2 
L 5.421875 11.28125 
Q 10.40625 8.6875 15.234375 7.390625 
Q 20.0625 6.109375 24.8125 6.109375 
Q 31.15625 6.109375 34.5625 8.28125 
Q 37.984375 10.453125 37.984375 14.40625 
Q 37.984375 18.0625 35.515625 20.015625 
Q 33.0625 21.96875 24.703125 23.78125 
L 21.578125 24.515625 
Q 13.234375 26.265625 9.515625 29.90625 
Q 5.8125 33.546875 5.8125 39.890625 
Q 5.8125 47.609375 11.28125 51.796875 
Q 16.75 56 26.8125 56 
Q 31.78125 56 36.171875 55.265625 
Q 40.578125 54.546875 44.28125 53.078125 
" id="BitstreamVeraSans-Roman-73"/>
      <path d="M 30.609375 48.390625 
Q 23.390625 48.390625 19.1875 42.75 
Q 14.984375 37.109375 14.984375 27.296875 
Q 14.984375 17.484375 19.15625 11.84375 
Q 23.34375 6.203125 30.609375 6.203125 
Q 37.796875 6.203125 41.984375 11.859375 
Q 46.1875 17.53125 46.1875 27.296875 
Q 46.1875 37.015625 41.984375 42.703125 
Q 37.796875 48.390625 30.609375 48.390625 
M 30.609375 56 
Q 42.328125 56 49.015625 48.375 
Q 55.71875 40.765625 55.71875 27.296875 
Q 55.71875 13.875 49.015625 6.21875 
Q 42.328125 -1.421875 30.609375 -1.421875 
Q 18.84375 -1.421875 12.171875 6.21875 
Q 5.515625 13.875 5.515625 27.296875 
Q 5.515625 40.765625 12.171875 48.375 
Q 18.84375 56 30.609375 56 
" id="BitstreamVeraSans-Roman-6f"/>
      <path d="M 9.421875 54.6875 
L 18.40625 54.6875 
L 18.40625 0 
L 9.421875 0 
z
M 9.421875 75.984375 
L 18.40625 75.984375 
L 18.40625 64.59375 
L 9.421875 64.59375 
z
" id="BitstreamVeraSans-Roman-69"/>
      <path d="M 18.109375 8.203125 
L 18.109375 -20.796875 
L 9.078125 -20.796875 
L 9.078125 54.6875 
L 18.109375 54.6875 
L 18.109375 46.390625 
Q 20.953125 51.265625 25.265625 53.625 
Q 29.59375 56 35.59375 56 
Q 45.5625 56 51.78125 48.09375 
Q 58.015625 40.1875 58.015625 27.296875 
Q 58.015625 14.40625 51.78125 6.484375 
Q 45.5625 -1.421875 35.59375 -1.421875 
Q 29.59375 -1.421875 25.265625 0.953125 
Q 20.953125 3.328125 18.109375 8.203125 
M 48.6875 27.296875 
Q 48.6875 37.203125 44.609375 42.84375 
Q 40.53125 48.484375 33.40625 48.484375 
Q 26.265625 48.484375 22.1875 42.84375 
Q 18.109375 37.203125 18.109375 27.296875 
Q 18.109375 17.390625 22.1875 11.75 
Q 26.265625 6.109375 33.40625 6.109375 
Q 40.53125 6.109375 44.609375 11.75 
Q 48.6875 17.390625 48.6875 27.296875 
" id="BitstreamVeraSans-Roman-70"/>
      <path d="M 45.40625 46.390625 
L 45.40625 75.984375 
L 54.390625 75.984375 
L 54.390625 0 
L 45.40625 0 
L 45.40625 8.203125 
Q 42.578125 3.328125 38.25 0.953125 
Q 33.9375 -1.421875 27.875 -1.421875 
Q 17.96875 -1.421875 11.734375 6.484375 
Q 5.515625 14.40625 5.515625 27.296875 
Q 5.515625 40.1875 11.734375 48.09375 
Q 17.96875 56 27.875 56 
Q 33.9375 56 38.25 53.625 
Q 42.578125 51.265625 45.40625 46.390625 
M 14.796875 27.296875 
Q 14.796875 17.390625 18.875 11.75 
Q 22.953125 6.109375 30.078125 6.109375 
Q 37.203125 6.109375 41.296875 11.75 
Q 45.40625 17.390625 45.40625 27.296875 
Q 45.40625 37.203125 41.296875 42.84375 
Q 37.203125 48.484375 30.078125 48.484375 
Q 22.953125 48.484375 18.875 42.84375 
Q 14.796875 37.203125 14.796875 27.296875 
" id="BitstreamVeraSans-Roman-64"/>
      <path d="M 56.203125 29.59375 
L 56.203125 25.203125 
L 14.890625 25.203125 
Q 15.484375 15.921875 20.484375 11.0625 
Q 25.484375 6.203125 34.421875 6.203125 
Q 39.59375 6.203125 44.453125 7.46875 
Q 49.3125 8.734375 54.109375 11.28125 
L 54.109375 2.78125 
Q 49.265625 0.734375 44.1875 -0.34375 
Q 39.109375 -1.421875 33.890625 -1.421875 
Q 20.796875 -1.421875 13.15625 6.1875 
Q 5.515625 13.8125 5.515625 26.8125 
Q 5.515625 40.234375 12.765625 48.109375 
Q 20.015625 56 32.328125 56 
Q 43.359375 56 49.78125 48.890625 
Q 56.203125 41.796875 56.203125 29.59375 
M 47.21875 32.234375 
Q 47.125 39.59375 43.09375 43.984375 
Q 39.0625 48.390625 32.421875 48.390625 
Q 24.90625 48.390625 20.390625 44.140625 
Q 15.875 39.890625 15.1875 32.171875 
z
" id="BitstreamVeraSans-Roman-65"/>
     </defs>
     <g transform="translate(256.6875 398.473625)scale(0.12 -0.12)">
      <use xlink:href="#BitstreamVeraSans-Roman-65"/>
      <use x="61.5234375" xlink:href="#BitstreamVeraSans-Roman-70"/>
      <use x="125.0" xlink:href="#BitstreamVeraSans-Roman-69"/>
      <use x="152.783203125" xlink:href="#BitstreamVeraSans-Roman-73"/>
      <use x="204.8828125" xlink:href="#BitstreamVeraSans-Roman-6f"/>
      <use x="266.064453125" xlink:href="#BitstreamVeraSans-Roman-64"/>
      <use x="329.541015625" xlink:href="#BitstreamVeraSans-Roman-65"/>
     </g>
    </g>
   </g>
   <g id="matplotlib.axis_2">
    <g id="ytick_1">
     <g id="line2d_20">
      <defs>
       <path d="M 0 0 
L 4 0 
" id="meabae4f89f" style="stroke:#000000;stroke-width:0.5;"/>
      </defs>
      <g>
       <use style="stroke:#000000;stroke-width:0.5;" x="56.953125" xlink:href="#meabae4f89f" y="368.74175"/>
      </g>
     </g>
     <g id="line2d_21">
      <defs>
       <path d="M 0 0 
L -4 0 
" id="m5020ab1b10" style="stroke:#000000;stroke-width:0.5;"/>
      </defs>
      <g>
       <use style="stroke:#000000;stroke-width:0.5;" x="503.353125" xlink:href="#m5020ab1b10" y="368.74175"/>
      </g>
     </g>
     <g id="text_11">
      <!-- −1.0 -->
      <defs>
       <path d="M 10.59375 35.5 
L 73.1875 35.5 
L 73.1875 27.203125 
L 10.59375 27.203125 
z
" id="BitstreamVeraSans-Roman-2212"/>
       <path d="M 10.6875 12.40625 
L 21 12.40625 
L 21 0 
L 10.6875 0 
z
" id="BitstreamVeraSans-Roman-2e"/>
      </defs>
      <g transform="translate(23.81375 372.053)scale(0.12 -0.12)">
       <use xlink:href="#BitstreamVeraSans-Roman-2212"/>
       <use x="83.7890625" xlink:href="#BitstreamVeraSans-Roman-31"/>
       <use x="147.412109375" xlink:href="#BitstreamVeraSans-Roman-2e"/>
       <use x="179.19921875" xlink:href="#BitstreamVeraSans-Roman-30"/>
      </g>
     </g>
    </g>
    <g id="ytick_2">
     <g id="line2d_22">
      <g>
       <use style="stroke:#000000;stroke-width:0.5;" x="56.953125" xlink:href="#meabae4f89f" y="319.370321429"/>
      </g>
     </g>
     <g id="line2d_23">
      <g>
       <use style="stroke:#000000;stroke-width:0.5;" x="503.353125" xlink:href="#m5020ab1b10" y="319.370321429"/>
      </g>
     </g>
     <g id="text_12">
      <!-- −0.8 -->
      <g transform="translate(23.81375 322.681571429)scale(0.12 -0.12)">
       <use xlink:href="#BitstreamVeraSans-Roman-2212"/>
       <use x="83.7890625" xlink:href="#BitstreamVeraSans-Roman-30"/>
       <use x="147.412109375" xlink:href="#BitstreamVeraSans-Roman-2e"/>
       <use x="179.19921875" xlink:href="#BitstreamVeraSans-Roman-38"/>
      </g>
     </g>
    </g>
    <g id="ytick_3">
     <g id="line2d_24">
      <g>
       <use style="stroke:#000000;stroke-width:0.5;" x="56.953125" xlink:href="#meabae4f89f" y="269.998892857"/>
      </g>
     </g>
     <g id="line2d_25">
      <g>
       <use style="stroke:#000000;stroke-width:0.5;" x="503.353125" xlink:href="#m5020ab1b10" y="269.998892857"/>
      </g>
     </g>
     <g id="text_13">
      <!-- −0.6 -->
      <g transform="translate(23.81375 273.310142857)scale(0.12 -0.12)">
       <use xlink:href="#BitstreamVeraSans-Roman-2212"/>
       <use x="83.7890625" xlink:href="#BitstreamVeraSans-Roman-30"/>
       <use x="147.412109375" xlink:href="#BitstreamVeraSans-Roman-2e"/>
       <use x="179.19921875" xlink:href="#BitstreamVeraSans-Roman-36"/>
      </g>
     </g>
    </g>
    <g id="ytick_4">
     <g id="line2d_26">
      <g>
       <use style="stroke:#000000;stroke-width:0.5;" x="56.953125" xlink:href="#meabae4f89f" y="220.627464286"/>
      </g>
     </g>
     <g id="line2d_27">
      <g>
       <use style="stroke:#000000;stroke-width:0.5;" x="503.353125" xlink:href="#m5020ab1b10" y="220.627464286"/>
      </g>
     </g>
     <g id="text_14">
      <!-- −0.4 -->
      <g transform="translate(23.81375 223.938714286)scale(0.12 -0.12)">
       <use xlink:href="#BitstreamVeraSans-Roman-2212"/>
       <use x="83.7890625" xlink:href="#BitstreamVeraSans-Roman-30"/>
       <use x="147.412109375" xlink:href="#BitstreamVeraSans-Roman-2e"/>
       <use x="179.19921875" xlink:href="#BitstreamVeraSans-Roman-34"/>
      </g>
     </g>
    </g>
    <g id="ytick_5">
     <g id="line2d_28">
      <g>
       <use style="stroke:#000000;stroke-width:0.5;" x="56.953125" xlink:href="#meabae4f89f" y="171.256035714"/>
      </g>
     </g>
     <g id="line2d_29">
      <g>
       <use style="stroke:#000000;stroke-width:0.5;" x="503.353125" xlink:href="#m5020ab1b10" y="171.256035714"/>
      </g>
     </g>
     <g id="text_15">
      <!-- −0.2 -->
      <g transform="translate(23.81375 174.567285714)scale(0.12 -0.12)">
       <use xlink:href="#BitstreamVeraSans-Roman-2212"/>
       <use x="83.7890625" xlink:href="#BitstreamVeraSans-Roman-30"/>
       <use x="147.412109375" xlink:href="#BitstreamVeraSans-Roman-2e"/>
       <use x="179.19921875" xlink:href="#BitstreamVeraSans-Roman-32"/>
      </g>
     </g>
    </g>
    <g id="ytick_6">
     <g id="line2d_30">
      <g>
       <use style="stroke:#000000;stroke-width:0.5;" x="56.953125" xlink:href="#meabae4f89f" y="121.884607143"/>
      </g>
     </g>
     <g id="line2d_31">
      <g>
       <use style="stroke:#000000;stroke-width:0.5;" x="503.353125" xlink:href="#m5020ab1b10" y="121.884607143"/>
      </g>
     </g>
     <g id="text_16">
      <!-- 0.0 -->
      <g transform="translate(33.869375 125.195857143)scale(0.12 -0.12)">
       <use xlink:href="#BitstreamVeraSans-Roman-30"/>
       <use x="63.623046875" xlink:href="#BitstreamVeraSans-Roman-2e"/>
       <use x="95.41015625" xlink:href="#BitstreamVeraSans-Roman-30"/>
      </g>
     </g>
    </g>
    <g id="ytick_7">
     <g id="line2d_32">
      <g>
       <use style="stroke:#000000;stroke-width:0.5;" x="56.953125" xlink:href="#meabae4f89f" y="72.5131785714"/>
      </g>
     </g>
     <g id="line2d_33">
      <g>
       <use style="stroke:#000000;stroke-width:0.5;" x="503.353125" xlink:href="#m5020ab1b10" y="72.5131785714"/>
      </g>
     </g>
     <g id="text_17">
      <!-- 0.2 -->
      <g transform="translate(33.869375 75.8244285714)scale(0.12 -0.12)">
       <use xlink:href="#BitstreamVeraSans-Roman-30"/>
       <use x="63.623046875" xlink:href="#BitstreamVeraSans-Roman-2e"/>
       <use x="95.41015625" xlink:href="#BitstreamVeraSans-Roman-32"/>
      </g>
     </g>
    </g>
    <g id="ytick_8">
     <g id="line2d_34">
      <g>
       <use style="stroke:#000000;stroke-width:0.5;" x="56.953125" xlink:href="#meabae4f89f" y="23.14175"/>
      </g>
     </g>
     <g id="line2d_35">
      <g>
       <use style="stroke:#000000;stroke-width:0.5;" x="503.353125" xlink:href="#m5020ab1b10" y="23.14175"/>
      </g>
     </g>
     <g id="text_18">
      <!-- 0.4 -->
      <g transform="translate(33.869375 26.453)scale(0.12 -0.12)">
       <use xlink:href="#BitstreamVeraSans-Roman-30"/>
       <use x="63.623046875" xlink:href="#BitstreamVeraSans-Roman-2e"/>
       <use x="95.41015625" xlink:href="#BitstreamVeraSans-Roman-34"/>
      </g>
     </g>
    </g>
    <g id="text_19">
     <!-- average maxQ -->
     <defs>
      <path d="M 39.40625 66.21875 
Q 28.65625 66.21875 22.328125 58.203125 
Q 16.015625 50.203125 16.015625 36.375 
Q 16.015625 22.609375 22.328125 14.59375 
Q 28.65625 6.59375 39.40625 6.59375 
Q 50.140625 6.59375 56.421875 14.59375 
Q 62.703125 22.609375 62.703125 36.375 
Q 62.703125 50.203125 56.421875 58.203125 
Q 50.140625 66.21875 39.40625 66.21875 
M 53.21875 1.3125 
L 66.21875 -12.890625 
L 54.296875 -12.890625 
L 43.5 -1.21875 
Q 41.890625 -1.3125 41.03125 -1.359375 
Q 40.1875 -1.421875 39.40625 -1.421875 
Q 24.03125 -1.421875 14.8125 8.859375 
Q 5.609375 19.140625 5.609375 36.375 
Q 5.609375 53.65625 14.8125 63.9375 
Q 24.03125 74.21875 39.40625 74.21875 
Q 54.734375 74.21875 63.90625 63.9375 
Q 73.09375 53.65625 73.09375 36.375 
Q 73.09375 23.6875 67.984375 14.640625 
Q 62.890625 5.609375 53.21875 1.3125 
" id="BitstreamVeraSans-Roman-51"/>
      <path d="M 45.40625 27.984375 
Q 45.40625 37.75 41.375 43.109375 
Q 37.359375 48.484375 30.078125 48.484375 
Q 22.859375 48.484375 18.828125 43.109375 
Q 14.796875 37.75 14.796875 27.984375 
Q 14.796875 18.265625 18.828125 12.890625 
Q 22.859375 7.515625 30.078125 7.515625 
Q 37.359375 7.515625 41.375 12.890625 
Q 45.40625 18.265625 45.40625 27.984375 
M 54.390625 6.78125 
Q 54.390625 -7.171875 48.1875 -13.984375 
Q 42 -20.796875 29.203125 -20.796875 
Q 24.46875 -20.796875 20.265625 -20.09375 
Q 16.0625 -19.390625 12.109375 -17.921875 
L 12.109375 -9.1875 
Q 16.0625 -11.328125 19.921875 -12.34375 
Q 23.78125 -13.375 27.78125 -13.375 
Q 36.625 -13.375 41.015625 -8.765625 
Q 45.40625 -4.15625 45.40625 5.171875 
L 45.40625 9.625 
Q 42.625 4.78125 38.28125 2.390625 
Q 33.9375 0 27.875 0 
Q 17.828125 0 11.671875 7.65625 
Q 5.515625 15.328125 5.515625 27.984375 
Q 5.515625 40.671875 11.671875 48.328125 
Q 17.828125 56 27.875 56 
Q 33.9375 56 38.28125 53.609375 
Q 42.625 51.21875 45.40625 46.390625 
L 45.40625 54.6875 
L 54.390625 54.6875 
z
" id="BitstreamVeraSans-Roman-67"/>
      <path d="M 54.890625 54.6875 
L 35.109375 28.078125 
L 55.90625 0 
L 45.3125 0 
L 29.390625 21.484375 
L 13.484375 0 
L 2.875 0 
L 24.125 28.609375 
L 4.6875 54.6875 
L 15.28125 54.6875 
L 29.78125 35.203125 
L 44.28125 54.6875 
z
" id="BitstreamVeraSans-Roman-78"/>
      <path id="BitstreamVeraSans-Roman-20"/>
      <path d="M 2.984375 54.6875 
L 12.5 54.6875 
L 29.59375 8.796875 
L 46.6875 54.6875 
L 56.203125 54.6875 
L 35.6875 0 
L 23.484375 0 
z
" id="BitstreamVeraSans-Roman-76"/>
      <path d="M 52 44.1875 
Q 55.375 50.25 60.0625 53.125 
Q 64.75 56 71.09375 56 
Q 79.640625 56 84.28125 50.015625 
Q 88.921875 44.046875 88.921875 33.015625 
L 88.921875 0 
L 79.890625 0 
L 79.890625 32.71875 
Q 79.890625 40.578125 77.09375 44.375 
Q 74.3125 48.1875 68.609375 48.1875 
Q 61.625 48.1875 57.5625 43.546875 
Q 53.515625 38.921875 53.515625 30.90625 
L 53.515625 0 
L 44.484375 0 
L 44.484375 32.71875 
Q 44.484375 40.625 41.703125 44.40625 
Q 38.921875 48.1875 33.109375 48.1875 
Q 26.21875 48.1875 22.15625 43.53125 
Q 18.109375 38.875 18.109375 30.90625 
L 18.109375 0 
L 9.078125 0 
L 9.078125 54.6875 
L 18.109375 54.6875 
L 18.109375 46.1875 
Q 21.1875 51.21875 25.484375 53.609375 
Q 29.78125 56 35.6875 56 
Q 41.65625 56 45.828125 52.96875 
Q 50 49.953125 52 44.1875 
" id="BitstreamVeraSans-Roman-6d"/>
      <path d="M 41.109375 46.296875 
Q 39.59375 47.171875 37.8125 47.578125 
Q 36.03125 48 33.890625 48 
Q 26.265625 48 22.1875 43.046875 
Q 18.109375 38.09375 18.109375 28.8125 
L 18.109375 0 
L 9.078125 0 
L 9.078125 54.6875 
L 18.109375 54.6875 
L 18.109375 46.1875 
Q 20.953125 51.171875 25.484375 53.578125 
Q 30.03125 56 36.53125 56 
Q 37.453125 56 38.578125 55.875 
Q 39.703125 55.765625 41.0625 55.515625 
z
" id="BitstreamVeraSans-Roman-72"/>
      <path d="M 34.28125 27.484375 
Q 23.390625 27.484375 19.1875 25 
Q 14.984375 22.515625 14.984375 16.5 
Q 14.984375 11.71875 18.140625 8.90625 
Q 21.296875 6.109375 26.703125 6.109375 
Q 34.1875 6.109375 38.703125 11.40625 
Q 43.21875 16.703125 43.21875 25.484375 
L 43.21875 27.484375 
z
M 52.203125 31.203125 
L 52.203125 0 
L 43.21875 0 
L 43.21875 8.296875 
Q 40.140625 3.328125 35.546875 0.953125 
Q 30.953125 -1.421875 24.3125 -1.421875 
Q 15.921875 -1.421875 10.953125 3.296875 
Q 6 8.015625 6 15.921875 
Q 6 25.140625 12.171875 29.828125 
Q 18.359375 34.515625 30.609375 34.515625 
L 43.21875 34.515625 
L 43.21875 35.40625 
Q 43.21875 41.609375 39.140625 45 
Q 35.0625 48.390625 27.6875 48.390625 
Q 23 48.390625 18.546875 47.265625 
Q 14.109375 46.140625 10.015625 43.890625 
L 10.015625 52.203125 
Q 14.9375 54.109375 19.578125 55.046875 
Q 24.21875 56 28.609375 56 
Q 40.484375 56 46.34375 49.84375 
Q 52.203125 43.703125 52.203125 31.203125 
" id="BitstreamVeraSans-Roman-61"/>
     </defs>
     <g transform="translate(16.318125 240.208625)rotate(-90.0)scale(0.12 -0.12)">
      <use xlink:href="#BitstreamVeraSans-Roman-61"/>
      <use x="61.279296875" xlink:href="#BitstreamVeraSans-Roman-76"/>
      <use x="120.458984375" xlink:href="#BitstreamVeraSans-Roman-65"/>
      <use x="181.982421875" xlink:href="#BitstreamVeraSans-Roman-72"/>
      <use x="223.095703125" xlink:href="#BitstreamVeraSans-Roman-61"/>
      <use x="284.375" xlink:href="#BitstreamVeraSans-Roman-67"/>
      <use x="347.8515625" xlink:href="#BitstreamVeraSans-Roman-65"/>
      <use x="409.375" xlink:href="#BitstreamVeraSans-Roman-20"/>
      <use x="441.162109375" xlink:href="#BitstreamVeraSans-Roman-6d"/>
      <use x="538.57421875" xlink:href="#BitstreamVeraSans-Roman-61"/>
      <use x="599.853515625" xlink:href="#BitstreamVeraSans-Roman-78"/>
      <use x="659.033203125" xlink:href="#BitstreamVeraSans-Roman-51"/>
     </g>
    </g>
   </g>
   <g id="text_20">
    <!-- Average maxQ per episode, joint 6 -->
    <defs>
     <path d="M 9.421875 54.6875 
L 18.40625 54.6875 
L 18.40625 -0.984375 
Q 18.40625 -11.421875 14.421875 -16.109375 
Q 10.453125 -20.796875 1.609375 -20.796875 
L -1.8125 -20.796875 
L -1.8125 -13.1875 
L 0.59375 -13.1875 
Q 5.71875 -13.1875 7.5625 -10.8125 
Q 9.421875 -8.453125 9.421875 -0.984375 
z
M 9.421875 75.984375 
L 18.40625 75.984375 
L 18.40625 64.59375 
L 9.421875 64.59375 
z
" id="BitstreamVeraSans-Roman-6a"/>
     <path d="M 34.1875 63.1875 
L 20.796875 26.90625 
L 47.609375 26.90625 
z
M 28.609375 72.90625 
L 39.796875 72.90625 
L 67.578125 0 
L 57.328125 0 
L 50.6875 18.703125 
L 17.828125 18.703125 
L 11.1875 0 
L 0.78125 0 
z
" id="BitstreamVeraSans-Roman-41"/>
     <path d="M 18.3125 70.21875 
L 18.3125 54.6875 
L 36.8125 54.6875 
L 36.8125 47.703125 
L 18.3125 47.703125 
L 18.3125 18.015625 
Q 18.3125 11.328125 20.140625 9.421875 
Q 21.96875 7.515625 27.59375 7.515625 
L 36.8125 7.515625 
L 36.8125 0 
L 27.59375 0 
Q 17.1875 0 13.234375 3.875 
Q 9.28125 7.765625 9.28125 18.015625 
L 9.28125 47.703125 
L 2.6875 47.703125 
L 2.6875 54.6875 
L 9.28125 54.6875 
L 9.28125 70.21875 
z
" id="BitstreamVeraSans-Roman-74"/>
     <path d="M 11.71875 12.40625 
L 22.015625 12.40625 
L 22.015625 4 
L 14.015625 -11.625 
L 7.71875 -11.625 
L 11.71875 4 
z
" id="BitstreamVeraSans-Roman-2c"/>
     <path d="M 54.890625 33.015625 
L 54.890625 0 
L 45.90625 0 
L 45.90625 32.71875 
Q 45.90625 40.484375 42.875 44.328125 
Q 39.84375 48.1875 33.796875 48.1875 
Q 26.515625 48.1875 22.3125 43.546875 
Q 18.109375 38.921875 18.109375 30.90625 
L 18.109375 0 
L 9.078125 0 
L 9.078125 54.6875 
L 18.109375 54.6875 
L 18.109375 46.1875 
Q 21.34375 51.125 25.703125 53.5625 
Q 30.078125 56 35.796875 56 
Q 45.21875 56 50.046875 50.171875 
Q 54.890625 44.34375 54.890625 33.015625 
" id="BitstreamVeraSans-Roman-6e"/>
    </defs>
    <g transform="translate(154.591875 18.14175)scale(0.144 -0.144)">
     <use xlink:href="#BitstreamVeraSans-Roman-41"/>
     <use x="68.330078125" xlink:href="#BitstreamVeraSans-Roman-76"/>
     <use x="127.509765625" xlink:href="#BitstreamVeraSans-Roman-65"/>
     <use x="189.033203125" xlink:href="#BitstreamVeraSans-Roman-72"/>
     <use x="230.146484375" xlink:href="#BitstreamVeraSans-Roman-61"/>
     <use x="291.42578125" xlink:href="#BitstreamVeraSans-Roman-67"/>
     <use x="354.90234375" xlink:href="#BitstreamVeraSans-Roman-65"/>
     <use x="416.42578125" xlink:href="#BitstreamVeraSans-Roman-20"/>
     <use x="448.212890625" xlink:href="#BitstreamVeraSans-Roman-6d"/>
     <use x="545.625" xlink:href="#BitstreamVeraSans-Roman-61"/>
     <use x="606.904296875" xlink:href="#BitstreamVeraSans-Roman-78"/>
     <use x="666.083984375" xlink:href="#BitstreamVeraSans-Roman-51"/>
     <use x="744.794921875" xlink:href="#BitstreamVeraSans-Roman-20"/>
     <use x="776.58203125" xlink:href="#BitstreamVeraSans-Roman-70"/>
     <use x="840.05859375" xlink:href="#BitstreamVeraSans-Roman-65"/>
     <use x="901.58203125" xlink:href="#BitstreamVeraSans-Roman-72"/>
     <use x="942.6953125" xlink:href="#BitstreamVeraSans-Roman-20"/>
     <use x="974.482421875" xlink:href="#BitstreamVeraSans-Roman-65"/>
     <use x="1036.005859375" xlink:href="#BitstreamVeraSans-Roman-70"/>
     <use x="1099.482421875" xlink:href="#BitstreamVeraSans-Roman-69"/>
     <use x="1127.265625" xlink:href="#BitstreamVeraSans-Roman-73"/>
     <use x="1179.365234375" xlink:href="#BitstreamVeraSans-Roman-6f"/>
     <use x="1240.546875" xlink:href="#BitstreamVeraSans-Roman-64"/>
     <use x="1304.0234375" xlink:href="#BitstreamVeraSans-Roman-65"/>
     <use x="1365.546875" xlink:href="#BitstreamVeraSans-Roman-2c"/>
     <use x="1397.333984375" xlink:href="#BitstreamVeraSans-Roman-20"/>
     <use x="1429.12109375" xlink:href="#BitstreamVeraSans-Roman-6a"/>
     <use x="1456.904296875" xlink:href="#BitstreamVeraSans-Roman-6f"/>
     <use x="1518.0859375" xlink:href="#BitstreamVeraSans-Roman-69"/>
     <use x="1545.869140625" xlink:href="#BitstreamVeraSans-Roman-6e"/>
     <use x="1609.248046875" xlink:href="#BitstreamVeraSans-Roman-74"/>
     <use x="1648.45703125" xlink:href="#BitstreamVeraSans-Roman-20"/>
     <use x="1680.244140625" xlink:href="#BitstreamVeraSans-Roman-36"/>
    </g>
   </g>
  </g>
 </g>
 <defs>
  <clipPath id="p9ff25f51e6">
   <rect height="345.6" width="446.4" x="56.953125" y="23.14175"/>
  </clipPath>
 </defs>
</svg>
