<?xml version="1.0" encoding="utf-8" standalone="no"?>
<!DOCTYPE svg PUBLIC "-//W3C//DTD SVG 1.1//EN"
  "http://www.w3.org/Graphics/SVG/1.1/DTD/svg11.dtd">
<!-- Created with matplotlib (http://matplotlib.org/) -->
<svg height="325pt" version="1.1" viewBox="0 0 411 325" width="411pt" xmlns="http://www.w3.org/2000/svg" xmlns:xlink="http://www.w3.org/1999/xlink">
 <defs>
  <style type="text/css">
*{stroke-linecap:butt;stroke-linejoin:round;}
  </style>
 </defs>
 <g id="figure_1">
  <g id="patch_1">
   <path d="M 0 325.986375 
L 411.60125 325.986375 
L 411.60125 0 
L 0 0 
z
" style="fill:#ffffff;"/>
  </g>
  <g id="axes_1">
   <g id="patch_2">
    <path d="M 43.78125 288.430125 
L 400.90125 288.430125 
L 400.90125 22.318125 
L 43.78125 22.318125 
z
" style="fill:#ffffff;"/>
   </g>
   <g id="matplotlib.axis_1">
    <g id="xtick_1">
     <g id="line2d_1">
      <defs>
       <path d="M 0 0 
L 0 3.5 
" id="m4a22b64456" style="stroke:#000000;stroke-width:0.8;"/>
      </defs>
      <g>
       <use style="stroke:#000000;stroke-width:0.8;" x="59.607651" xlink:href="#m4a22b64456" y="288.430125"/>
      </g>
     </g>
     <g id="text_1">
      <!-- 0 -->
      <defs>
       <path d="M 31.78125 66.40625 
Q 24.171875 66.40625 20.328125 58.90625 
Q 16.5 51.421875 16.5 36.375 
Q 16.5 21.390625 20.328125 13.890625 
Q 24.171875 6.390625 31.78125 6.390625 
Q 39.453125 6.390625 43.28125 13.890625 
Q 47.125 21.390625 47.125 36.375 
Q 47.125 51.421875 43.28125 58.90625 
Q 39.453125 66.40625 31.78125 66.40625 
z
M 31.78125 74.21875 
Q 44.046875 74.21875 50.515625 64.515625 
Q 56.984375 54.828125 56.984375 36.375 
Q 56.984375 17.96875 50.515625 8.265625 
Q 44.046875 -1.421875 31.78125 -1.421875 
Q 19.53125 -1.421875 13.0625 8.265625 
Q 6.59375 17.96875 6.59375 36.375 
Q 6.59375 54.828125 13.0625 64.515625 
Q 19.53125 74.21875 31.78125 74.21875 
z
" id="DejaVuSans-30"/>
      </defs>
      <g transform="translate(56.426401 303.028562)scale(0.1 -0.1)">
       <use xlink:href="#DejaVuSans-30"/>
      </g>
     </g>
    </g>
    <g id="xtick_2">
     <g id="line2d_2">
      <g>
       <use style="stroke:#000000;stroke-width:0.8;" x="100.24026" xlink:href="#m4a22b64456" y="288.430125"/>
      </g>
     </g>
     <g id="text_2">
      <!-- 100 -->
      <defs>
       <path d="M 12.40625 8.296875 
L 28.515625 8.296875 
L 28.515625 63.921875 
L 10.984375 60.40625 
L 10.984375 69.390625 
L 28.421875 72.90625 
L 38.28125 72.90625 
L 38.28125 8.296875 
L 54.390625 8.296875 
L 54.390625 0 
L 12.40625 0 
z
" id="DejaVuSans-31"/>
      </defs>
      <g transform="translate(90.69651 303.028562)scale(0.1 -0.1)">
       <use xlink:href="#DejaVuSans-31"/>
       <use x="63.623047" xlink:href="#DejaVuSans-30"/>
       <use x="127.246094" xlink:href="#DejaVuSans-30"/>
      </g>
     </g>
    </g>
    <g id="xtick_3">
     <g id="line2d_3">
      <g>
       <use style="stroke:#000000;stroke-width:0.8;" x="140.872869" xlink:href="#m4a22b64456" y="288.430125"/>
      </g>
     </g>
     <g id="text_3">
      <!-- 200 -->
      <defs>
       <path d="M 19.1875 8.296875 
L 53.609375 8.296875 
L 53.609375 0 
L 7.328125 0 
L 7.328125 8.296875 
Q 12.9375 14.109375 22.625 23.890625 
Q 32.328125 33.6875 34.8125 36.53125 
Q 39.546875 41.84375 41.421875 45.53125 
Q 43.3125 49.21875 43.3125 52.78125 
Q 43.3125 58.59375 39.234375 62.25 
Q 35.15625 65.921875 28.609375 65.921875 
Q 23.96875 65.921875 18.8125 64.3125 
Q 13.671875 62.703125 7.8125 59.421875 
L 7.8125 69.390625 
Q 13.765625 71.78125 18.9375 73 
Q 24.125 74.21875 28.421875 74.21875 
Q 39.75 74.21875 46.484375 68.546875 
Q 53.21875 62.890625 53.21875 53.421875 
Q 53.21875 48.921875 51.53125 44.890625 
Q 49.859375 40.875 45.40625 35.40625 
Q 44.1875 33.984375 37.640625 27.21875 
Q 31.109375 20.453125 19.1875 8.296875 
z
" id="DejaVuSans-32"/>
      </defs>
      <g transform="translate(131.329119 303.028562)scale(0.1 -0.1)">
       <use xlink:href="#DejaVuSans-32"/>
       <use x="63.623047" xlink:href="#DejaVuSans-30"/>
       <use x="127.246094" xlink:href="#DejaVuSans-30"/>
      </g>
     </g>
    </g>
    <g id="xtick_4">
     <g id="line2d_4">
      <g>
       <use style="stroke:#000000;stroke-width:0.8;" x="181.505478" xlink:href="#m4a22b64456" y="288.430125"/>
      </g>
     </g>
     <g id="text_4">
      <!-- 300 -->
      <defs>
       <path d="M 40.578125 39.3125 
Q 47.65625 37.796875 51.625 33 
Q 55.609375 28.21875 55.609375 21.1875 
Q 55.609375 10.40625 48.1875 4.484375 
Q 40.765625 -1.421875 27.09375 -1.421875 
Q 22.515625 -1.421875 17.65625 -0.515625 
Q 12.796875 0.390625 7.625 2.203125 
L 7.625 11.71875 
Q 11.71875 9.328125 16.59375 8.109375 
Q 21.484375 6.890625 26.8125 6.890625 
Q 36.078125 6.890625 40.9375 10.546875 
Q 45.796875 14.203125 45.796875 21.1875 
Q 45.796875 27.640625 41.28125 31.265625 
Q 36.765625 34.90625 28.71875 34.90625 
L 20.21875 34.90625 
L 20.21875 43.015625 
L 29.109375 43.015625 
Q 36.375 43.015625 40.234375 45.921875 
Q 44.09375 48.828125 44.09375 54.296875 
Q 44.09375 59.90625 40.109375 62.90625 
Q 36.140625 65.921875 28.71875 65.921875 
Q 24.65625 65.921875 20.015625 65.03125 
Q 15.375 64.15625 9.8125 62.3125 
L 9.8125 71.09375 
Q 15.4375 72.65625 20.34375 73.4375 
Q 25.25 74.21875 29.59375 74.21875 
Q 40.828125 74.21875 47.359375 69.109375 
Q 53.90625 64.015625 53.90625 55.328125 
Q 53.90625 49.265625 50.4375 45.09375 
Q 46.96875 40.921875 40.578125 39.3125 
z
" id="DejaVuSans-33"/>
      </defs>
      <g transform="translate(171.961728 303.028562)scale(0.1 -0.1)">
       <use xlink:href="#DejaVuSans-33"/>
       <use x="63.623047" xlink:href="#DejaVuSans-30"/>
       <use x="127.246094" xlink:href="#DejaVuSans-30"/>
      </g>
     </g>
    </g>
    <g id="xtick_5">
     <g id="line2d_5">
      <g>
       <use style="stroke:#000000;stroke-width:0.8;" x="222.138087" xlink:href="#m4a22b64456" y="288.430125"/>
      </g>
     </g>
     <g id="text_5">
      <!-- 400 -->
      <defs>
       <path d="M 37.796875 64.3125 
L 12.890625 25.390625 
L 37.796875 25.390625 
z
M 35.203125 72.90625 
L 47.609375 72.90625 
L 47.609375 25.390625 
L 58.015625 25.390625 
L 58.015625 17.1875 
L 47.609375 17.1875 
L 47.609375 0 
L 37.796875 0 
L 37.796875 17.1875 
L 4.890625 17.1875 
L 4.890625 26.703125 
z
" id="DejaVuSans-34"/>
      </defs>
      <g transform="translate(212.594337 303.028562)scale(0.1 -0.1)">
       <use xlink:href="#DejaVuSans-34"/>
       <use x="63.623047" xlink:href="#DejaVuSans-30"/>
       <use x="127.246094" xlink:href="#DejaVuSans-30"/>
      </g>
     </g>
    </g>
    <g id="xtick_6">
     <g id="line2d_6">
      <g>
       <use style="stroke:#000000;stroke-width:0.8;" x="262.770696" xlink:href="#m4a22b64456" y="288.430125"/>
      </g>
     </g>
     <g id="text_6">
      <!-- 500 -->
      <defs>
       <path d="M 10.796875 72.90625 
L 49.515625 72.90625 
L 49.515625 64.59375 
L 19.828125 64.59375 
L 19.828125 46.734375 
Q 21.96875 47.46875 24.109375 47.828125 
Q 26.265625 48.1875 28.421875 48.1875 
Q 40.625 48.1875 47.75 41.5 
Q 54.890625 34.8125 54.890625 23.390625 
Q 54.890625 11.625 47.5625 5.09375 
Q 40.234375 -1.421875 26.90625 -1.421875 
Q 22.3125 -1.421875 17.546875 -0.640625 
Q 12.796875 0.140625 7.71875 1.703125 
L 7.71875 11.625 
Q 12.109375 9.234375 16.796875 8.0625 
Q 21.484375 6.890625 26.703125 6.890625 
Q 35.15625 6.890625 40.078125 11.328125 
Q 45.015625 15.765625 45.015625 23.390625 
Q 45.015625 31 40.078125 35.4375 
Q 35.15625 39.890625 26.703125 39.890625 
Q 22.75 39.890625 18.8125 39.015625 
Q 14.890625 38.140625 10.796875 36.28125 
z
" id="DejaVuSans-35"/>
      </defs>
      <g transform="translate(253.226946 303.028562)scale(0.1 -0.1)">
       <use xlink:href="#DejaVuSans-35"/>
       <use x="63.623047" xlink:href="#DejaVuSans-30"/>
       <use x="127.246094" xlink:href="#DejaVuSans-30"/>
      </g>
     </g>
    </g>
    <g id="xtick_7">
     <g id="line2d_7">
      <g>
       <use style="stroke:#000000;stroke-width:0.8;" x="303.403305" xlink:href="#m4a22b64456" y="288.430125"/>
      </g>
     </g>
     <g id="text_7">
      <!-- 600 -->
      <defs>
       <path d="M 33.015625 40.375 
Q 26.375 40.375 22.484375 35.828125 
Q 18.609375 31.296875 18.609375 23.390625 
Q 18.609375 15.53125 22.484375 10.953125 
Q 26.375 6.390625 33.015625 6.390625 
Q 39.65625 6.390625 43.53125 10.953125 
Q 47.40625 15.53125 47.40625 23.390625 
Q 47.40625 31.296875 43.53125 35.828125 
Q 39.65625 40.375 33.015625 40.375 
z
M 52.59375 71.296875 
L 52.59375 62.3125 
Q 48.875 64.0625 45.09375 64.984375 
Q 41.3125 65.921875 37.59375 65.921875 
Q 27.828125 65.921875 22.671875 59.328125 
Q 17.53125 52.734375 16.796875 39.40625 
Q 19.671875 43.65625 24.015625 45.921875 
Q 28.375 48.1875 33.59375 48.1875 
Q 44.578125 48.1875 50.953125 41.515625 
Q 57.328125 34.859375 57.328125 23.390625 
Q 57.328125 12.15625 50.6875 5.359375 
Q 44.046875 -1.421875 33.015625 -1.421875 
Q 20.359375 -1.421875 13.671875 8.265625 
Q 6.984375 17.96875 6.984375 36.375 
Q 6.984375 53.65625 15.1875 63.9375 
Q 23.390625 74.21875 37.203125 74.21875 
Q 40.921875 74.21875 44.703125 73.484375 
Q 48.484375 72.75 52.59375 71.296875 
z
" id="DejaVuSans-36"/>
      </defs>
      <g transform="translate(293.859555 303.028562)scale(0.1 -0.1)">
       <use xlink:href="#DejaVuSans-36"/>
       <use x="63.623047" xlink:href="#DejaVuSans-30"/>
       <use x="127.246094" xlink:href="#DejaVuSans-30"/>
      </g>
     </g>
    </g>
    <g id="xtick_8">
     <g id="line2d_8">
      <g>
       <use style="stroke:#000000;stroke-width:0.8;" x="344.035914" xlink:href="#m4a22b64456" y="288.430125"/>
      </g>
     </g>
     <g id="text_8">
      <!-- 700 -->
      <defs>
       <path d="M 8.203125 72.90625 
L 55.078125 72.90625 
L 55.078125 68.703125 
L 28.609375 0 
L 18.3125 0 
L 43.21875 64.59375 
L 8.203125 64.59375 
z
" id="DejaVuSans-37"/>
      </defs>
      <g transform="translate(334.492164 303.028562)scale(0.1 -0.1)">
       <use xlink:href="#DejaVuSans-37"/>
       <use x="63.623047" xlink:href="#DejaVuSans-30"/>
       <use x="127.246094" xlink:href="#DejaVuSans-30"/>
      </g>
     </g>
    </g>
    <g id="xtick_9">
     <g id="line2d_9">
      <g>
       <use style="stroke:#000000;stroke-width:0.8;" x="384.668523" xlink:href="#m4a22b64456" y="288.430125"/>
      </g>
     </g>
     <g id="text_9">
      <!-- 800 -->
      <defs>
       <path d="M 31.78125 34.625 
Q 24.75 34.625 20.71875 30.859375 
Q 16.703125 27.09375 16.703125 20.515625 
Q 16.703125 13.921875 20.71875 10.15625 
Q 24.75 6.390625 31.78125 6.390625 
Q 38.8125 6.390625 42.859375 10.171875 
Q 46.921875 13.96875 46.921875 20.515625 
Q 46.921875 27.09375 42.890625 30.859375 
Q 38.875 34.625 31.78125 34.625 
z
M 21.921875 38.8125 
Q 15.578125 40.375 12.03125 44.71875 
Q 8.5 49.078125 8.5 55.328125 
Q 8.5 64.0625 14.71875 69.140625 
Q 20.953125 74.21875 31.78125 74.21875 
Q 42.671875 74.21875 48.875 69.140625 
Q 55.078125 64.0625 55.078125 55.328125 
Q 55.078125 49.078125 51.53125 44.71875 
Q 48 40.375 41.703125 38.8125 
Q 48.828125 37.15625 52.796875 32.3125 
Q 56.78125 27.484375 56.78125 20.515625 
Q 56.78125 9.90625 50.3125 4.234375 
Q 43.84375 -1.421875 31.78125 -1.421875 
Q 19.734375 -1.421875 13.25 4.234375 
Q 6.78125 9.90625 6.78125 20.515625 
Q 6.78125 27.484375 10.78125 32.3125 
Q 14.796875 37.15625 21.921875 38.8125 
z
M 18.3125 54.390625 
Q 18.3125 48.734375 21.84375 45.5625 
Q 25.390625 42.390625 31.78125 42.390625 
Q 38.140625 42.390625 41.71875 45.5625 
Q 45.3125 48.734375 45.3125 54.390625 
Q 45.3125 60.0625 41.71875 63.234375 
Q 38.140625 66.40625 31.78125 66.40625 
Q 25.390625 66.40625 21.84375 63.234375 
Q 18.3125 60.0625 18.3125 54.390625 
z
" id="DejaVuSans-38"/>
      </defs>
      <g transform="translate(375.124773 303.028562)scale(0.1 -0.1)">
       <use xlink:href="#DejaVuSans-38"/>
       <use x="63.623047" xlink:href="#DejaVuSans-30"/>
       <use x="127.246094" xlink:href="#DejaVuSans-30"/>
      </g>
     </g>
    </g>
    <g id="text_10">
     <!-- episode -->
     <defs>
      <path d="M 56.203125 29.59375 
L 56.203125 25.203125 
L 14.890625 25.203125 
Q 15.484375 15.921875 20.484375 11.0625 
Q 25.484375 6.203125 34.421875 6.203125 
Q 39.59375 6.203125 44.453125 7.46875 
Q 49.3125 8.734375 54.109375 11.28125 
L 54.109375 2.78125 
Q 49.265625 0.734375 44.1875 -0.34375 
Q 39.109375 -1.421875 33.890625 -1.421875 
Q 20.796875 -1.421875 13.15625 6.1875 
Q 5.515625 13.8125 5.515625 26.8125 
Q 5.515625 40.234375 12.765625 48.109375 
Q 20.015625 56 32.328125 56 
Q 43.359375 56 49.78125 48.890625 
Q 56.203125 41.796875 56.203125 29.59375 
z
M 47.21875 32.234375 
Q 47.125 39.59375 43.09375 43.984375 
Q 39.0625 48.390625 32.421875 48.390625 
Q 24.90625 48.390625 20.390625 44.140625 
Q 15.875 39.890625 15.1875 32.171875 
z
" id="DejaVuSans-65"/>
      <path d="M 18.109375 8.203125 
L 18.109375 -20.796875 
L 9.078125 -20.796875 
L 9.078125 54.6875 
L 18.109375 54.6875 
L 18.109375 46.390625 
Q 20.953125 51.265625 25.265625 53.625 
Q 29.59375 56 35.59375 56 
Q 45.5625 56 51.78125 48.09375 
Q 58.015625 40.1875 58.015625 27.296875 
Q 58.015625 14.40625 51.78125 6.484375 
Q 45.5625 -1.421875 35.59375 -1.421875 
Q 29.59375 -1.421875 25.265625 0.953125 
Q 20.953125 3.328125 18.109375 8.203125 
z
M 48.6875 27.296875 
Q 48.6875 37.203125 44.609375 42.84375 
Q 40.53125 48.484375 33.40625 48.484375 
Q 26.265625 48.484375 22.1875 42.84375 
Q 18.109375 37.203125 18.109375 27.296875 
Q 18.109375 17.390625 22.1875 11.75 
Q 26.265625 6.109375 33.40625 6.109375 
Q 40.53125 6.109375 44.609375 11.75 
Q 48.6875 17.390625 48.6875 27.296875 
z
" id="DejaVuSans-70"/>
      <path d="M 9.421875 54.6875 
L 18.40625 54.6875 
L 18.40625 0 
L 9.421875 0 
z
M 9.421875 75.984375 
L 18.40625 75.984375 
L 18.40625 64.59375 
L 9.421875 64.59375 
z
" id="DejaVuSans-69"/>
      <path d="M 44.28125 53.078125 
L 44.28125 44.578125 
Q 40.484375 46.53125 36.375 47.5 
Q 32.28125 48.484375 27.875 48.484375 
Q 21.1875 48.484375 17.84375 46.4375 
Q 14.5 44.390625 14.5 40.28125 
Q 14.5 37.15625 16.890625 35.375 
Q 19.28125 33.59375 26.515625 31.984375 
L 29.59375 31.296875 
Q 39.15625 29.25 43.1875 25.515625 
Q 47.21875 21.78125 47.21875 15.09375 
Q 47.21875 7.46875 41.1875 3.015625 
Q 35.15625 -1.421875 24.609375 -1.421875 
Q 20.21875 -1.421875 15.453125 -0.5625 
Q 10.6875 0.296875 5.421875 2 
L 5.421875 11.28125 
Q 10.40625 8.6875 15.234375 7.390625 
Q 20.0625 6.109375 24.8125 6.109375 
Q 31.15625 6.109375 34.5625 8.28125 
Q 37.984375 10.453125 37.984375 14.40625 
Q 37.984375 18.0625 35.515625 20.015625 
Q 33.0625 21.96875 24.703125 23.78125 
L 21.578125 24.515625 
Q 13.234375 26.265625 9.515625 29.90625 
Q 5.8125 33.546875 5.8125 39.890625 
Q 5.8125 47.609375 11.28125 51.796875 
Q 16.75 56 26.8125 56 
Q 31.78125 56 36.171875 55.265625 
Q 40.578125 54.546875 44.28125 53.078125 
z
" id="DejaVuSans-73"/>
      <path d="M 30.609375 48.390625 
Q 23.390625 48.390625 19.1875 42.75 
Q 14.984375 37.109375 14.984375 27.296875 
Q 14.984375 17.484375 19.15625 11.84375 
Q 23.34375 6.203125 30.609375 6.203125 
Q 37.796875 6.203125 41.984375 11.859375 
Q 46.1875 17.53125 46.1875 27.296875 
Q 46.1875 37.015625 41.984375 42.703125 
Q 37.796875 48.390625 30.609375 48.390625 
z
M 30.609375 56 
Q 42.328125 56 49.015625 48.375 
Q 55.71875 40.765625 55.71875 27.296875 
Q 55.71875 13.875 49.015625 6.21875 
Q 42.328125 -1.421875 30.609375 -1.421875 
Q 18.84375 -1.421875 12.171875 6.21875 
Q 5.515625 13.875 5.515625 27.296875 
Q 5.515625 40.765625 12.171875 48.375 
Q 18.84375 56 30.609375 56 
z
" id="DejaVuSans-6f"/>
      <path d="M 45.40625 46.390625 
L 45.40625 75.984375 
L 54.390625 75.984375 
L 54.390625 0 
L 45.40625 0 
L 45.40625 8.203125 
Q 42.578125 3.328125 38.25 0.953125 
Q 33.9375 -1.421875 27.875 -1.421875 
Q 17.96875 -1.421875 11.734375 6.484375 
Q 5.515625 14.40625 5.515625 27.296875 
Q 5.515625 40.1875 11.734375 48.09375 
Q 17.96875 56 27.875 56 
Q 33.9375 56 38.25 53.625 
Q 42.578125 51.265625 45.40625 46.390625 
z
M 14.796875 27.296875 
Q 14.796875 17.390625 18.875 11.75 
Q 22.953125 6.109375 30.078125 6.109375 
Q 37.203125 6.109375 41.296875 11.75 
Q 45.40625 17.390625 45.40625 27.296875 
Q 45.40625 37.203125 41.296875 42.84375 
Q 37.203125 48.484375 30.078125 48.484375 
Q 22.953125 48.484375 18.875 42.84375 
Q 14.796875 37.203125 14.796875 27.296875 
z
" id="DejaVuSans-64"/>
     </defs>
     <g transform="translate(202.786563 316.706687)scale(0.1 -0.1)">
      <use xlink:href="#DejaVuSans-65"/>
      <use x="61.523438" xlink:href="#DejaVuSans-70"/>
      <use x="125" xlink:href="#DejaVuSans-69"/>
      <use x="152.783203" xlink:href="#DejaVuSans-73"/>
      <use x="204.882812" xlink:href="#DejaVuSans-6f"/>
      <use x="266.064453" xlink:href="#DejaVuSans-64"/>
      <use x="329.541016" xlink:href="#DejaVuSans-65"/>
     </g>
    </g>
   </g>
   <g id="matplotlib.axis_2">
    <g id="ytick_1">
     <g id="line2d_10">
      <defs>
       <path d="M 0 0 
L -3.5 0 
" id="m2c83b556d3" style="stroke:#000000;stroke-width:0.8;"/>
      </defs>
      <g>
       <use style="stroke:#000000;stroke-width:0.8;" x="43.78125" xlink:href="#m2c83b556d3" y="276.334125"/>
      </g>
     </g>
     <g id="text_11">
      <!-- 0.0 -->
      <defs>
       <path d="M 10.6875 12.40625 
L 21 12.40625 
L 21 0 
L 10.6875 0 
z
" id="DejaVuSans-2e"/>
      </defs>
      <g transform="translate(20.878125 280.133344)scale(0.1 -0.1)">
       <use xlink:href="#DejaVuSans-30"/>
       <use x="63.623047" xlink:href="#DejaVuSans-2e"/>
       <use x="95.410156" xlink:href="#DejaVuSans-30"/>
      </g>
     </g>
    </g>
    <g id="ytick_2">
     <g id="line2d_11">
      <g>
       <use style="stroke:#000000;stroke-width:0.8;" x="43.78125" xlink:href="#m2c83b556d3" y="228.422309"/>
      </g>
     </g>
     <g id="text_12">
      <!-- 0.2 -->
      <g transform="translate(20.878125 232.221528)scale(0.1 -0.1)">
       <use xlink:href="#DejaVuSans-30"/>
       <use x="63.623047" xlink:href="#DejaVuSans-2e"/>
       <use x="95.410156" xlink:href="#DejaVuSans-32"/>
      </g>
     </g>
    </g>
    <g id="ytick_3">
     <g id="line2d_12">
      <g>
       <use style="stroke:#000000;stroke-width:0.8;" x="43.78125" xlink:href="#m2c83b556d3" y="180.510494"/>
      </g>
     </g>
     <g id="text_13">
      <!-- 0.4 -->
      <g transform="translate(20.878125 184.309713)scale(0.1 -0.1)">
       <use xlink:href="#DejaVuSans-30"/>
       <use x="63.623047" xlink:href="#DejaVuSans-2e"/>
       <use x="95.410156" xlink:href="#DejaVuSans-34"/>
      </g>
     </g>
    </g>
    <g id="ytick_4">
     <g id="line2d_13">
      <g>
       <use style="stroke:#000000;stroke-width:0.8;" x="43.78125" xlink:href="#m2c83b556d3" y="132.598678"/>
      </g>
     </g>
     <g id="text_14">
      <!-- 0.6 -->
      <g transform="translate(20.878125 136.397897)scale(0.1 -0.1)">
       <use xlink:href="#DejaVuSans-30"/>
       <use x="63.623047" xlink:href="#DejaVuSans-2e"/>
       <use x="95.410156" xlink:href="#DejaVuSans-36"/>
      </g>
     </g>
    </g>
    <g id="ytick_5">
     <g id="line2d_14">
      <g>
       <use style="stroke:#000000;stroke-width:0.8;" x="43.78125" xlink:href="#m2c83b556d3" y="84.686863"/>
      </g>
     </g>
     <g id="text_15">
      <!-- 0.8 -->
      <g transform="translate(20.878125 88.486081)scale(0.1 -0.1)">
       <use xlink:href="#DejaVuSans-30"/>
       <use x="63.623047" xlink:href="#DejaVuSans-2e"/>
       <use x="95.410156" xlink:href="#DejaVuSans-38"/>
      </g>
     </g>
    </g>
    <g id="ytick_6">
     <g id="line2d_15">
      <g>
       <use style="stroke:#000000;stroke-width:0.8;" x="43.78125" xlink:href="#m2c83b556d3" y="36.775047"/>
      </g>
     </g>
     <g id="text_16">
      <!-- 1.0 -->
      <g transform="translate(20.878125 40.574266)scale(0.1 -0.1)">
       <use xlink:href="#DejaVuSans-31"/>
       <use x="63.623047" xlink:href="#DejaVuSans-2e"/>
       <use x="95.410156" xlink:href="#DejaVuSans-30"/>
      </g>
     </g>
    </g>
    <g id="text_17">
     <!-- average maxQ -->
     <defs>
      <path d="M 34.28125 27.484375 
Q 23.390625 27.484375 19.1875 25 
Q 14.984375 22.515625 14.984375 16.5 
Q 14.984375 11.71875 18.140625 8.90625 
Q 21.296875 6.109375 26.703125 6.109375 
Q 34.1875 6.109375 38.703125 11.40625 
Q 43.21875 16.703125 43.21875 25.484375 
L 43.21875 27.484375 
z
M 52.203125 31.203125 
L 52.203125 0 
L 43.21875 0 
L 43.21875 8.296875 
Q 40.140625 3.328125 35.546875 0.953125 
Q 30.953125 -1.421875 24.3125 -1.421875 
Q 15.921875 -1.421875 10.953125 3.296875 
Q 6 8.015625 6 15.921875 
Q 6 25.140625 12.171875 29.828125 
Q 18.359375 34.515625 30.609375 34.515625 
L 43.21875 34.515625 
L 43.21875 35.40625 
Q 43.21875 41.609375 39.140625 45 
Q 35.0625 48.390625 27.6875 48.390625 
Q 23 48.390625 18.546875 47.265625 
Q 14.109375 46.140625 10.015625 43.890625 
L 10.015625 52.203125 
Q 14.9375 54.109375 19.578125 55.046875 
Q 24.21875 56 28.609375 56 
Q 40.484375 56 46.34375 49.84375 
Q 52.203125 43.703125 52.203125 31.203125 
z
" id="DejaVuSans-61"/>
      <path d="M 2.984375 54.6875 
L 12.5 54.6875 
L 29.59375 8.796875 
L 46.6875 54.6875 
L 56.203125 54.6875 
L 35.6875 0 
L 23.484375 0 
z
" id="DejaVuSans-76"/>
      <path d="M 41.109375 46.296875 
Q 39.59375 47.171875 37.8125 47.578125 
Q 36.03125 48 33.890625 48 
Q 26.265625 48 22.1875 43.046875 
Q 18.109375 38.09375 18.109375 28.8125 
L 18.109375 0 
L 9.078125 0 
L 9.078125 54.6875 
L 18.109375 54.6875 
L 18.109375 46.1875 
Q 20.953125 51.171875 25.484375 53.578125 
Q 30.03125 56 36.53125 56 
Q 37.453125 56 38.578125 55.875 
Q 39.703125 55.765625 41.0625 55.515625 
z
" id="DejaVuSans-72"/>
      <path d="M 45.40625 27.984375 
Q 45.40625 37.75 41.375 43.109375 
Q 37.359375 48.484375 30.078125 48.484375 
Q 22.859375 48.484375 18.828125 43.109375 
Q 14.796875 37.75 14.796875 27.984375 
Q 14.796875 18.265625 18.828125 12.890625 
Q 22.859375 7.515625 30.078125 7.515625 
Q 37.359375 7.515625 41.375 12.890625 
Q 45.40625 18.265625 45.40625 27.984375 
z
M 54.390625 6.78125 
Q 54.390625 -7.171875 48.1875 -13.984375 
Q 42 -20.796875 29.203125 -20.796875 
Q 24.46875 -20.796875 20.265625 -20.09375 
Q 16.0625 -19.390625 12.109375 -17.921875 
L 12.109375 -9.1875 
Q 16.0625 -11.328125 19.921875 -12.34375 
Q 23.78125 -13.375 27.78125 -13.375 
Q 36.625 -13.375 41.015625 -8.765625 
Q 45.40625 -4.15625 45.40625 5.171875 
L 45.40625 9.625 
Q 42.625 4.78125 38.28125 2.390625 
Q 33.9375 0 27.875 0 
Q 17.828125 0 11.671875 7.65625 
Q 5.515625 15.328125 5.515625 27.984375 
Q 5.515625 40.671875 11.671875 48.328125 
Q 17.828125 56 27.875 56 
Q 33.9375 56 38.28125 53.609375 
Q 42.625 51.21875 45.40625 46.390625 
L 45.40625 54.6875 
L 54.390625 54.6875 
z
" id="DejaVuSans-67"/>
      <path id="DejaVuSans-20"/>
      <path d="M 52 44.1875 
Q 55.375 50.25 60.0625 53.125 
Q 64.75 56 71.09375 56 
Q 79.640625 56 84.28125 50.015625 
Q 88.921875 44.046875 88.921875 33.015625 
L 88.921875 0 
L 79.890625 0 
L 79.890625 32.71875 
Q 79.890625 40.578125 77.09375 44.375 
Q 74.3125 48.1875 68.609375 48.1875 
Q 61.625 48.1875 57.5625 43.546875 
Q 53.515625 38.921875 53.515625 30.90625 
L 53.515625 0 
L 44.484375 0 
L 44.484375 32.71875 
Q 44.484375 40.625 41.703125 44.40625 
Q 38.921875 48.1875 33.109375 48.1875 
Q 26.21875 48.1875 22.15625 43.53125 
Q 18.109375 38.875 18.109375 30.90625 
L 18.109375 0 
L 9.078125 0 
L 9.078125 54.6875 
L 18.109375 54.6875 
L 18.109375 46.1875 
Q 21.1875 51.21875 25.484375 53.609375 
Q 29.78125 56 35.6875 56 
Q 41.65625 56 45.828125 52.96875 
Q 50 49.953125 52 44.1875 
z
" id="DejaVuSans-6d"/>
      <path d="M 54.890625 54.6875 
L 35.109375 28.078125 
L 55.90625 0 
L 45.3125 0 
L 29.390625 21.484375 
L 13.484375 0 
L 2.875 0 
L 24.125 28.609375 
L 4.6875 54.6875 
L 15.28125 54.6875 
L 29.78125 35.203125 
L 44.28125 54.6875 
z
" id="DejaVuSans-78"/>
      <path d="M 39.40625 66.21875 
Q 28.65625 66.21875 22.328125 58.203125 
Q 16.015625 50.203125 16.015625 36.375 
Q 16.015625 22.609375 22.328125 14.59375 
Q 28.65625 6.59375 39.40625 6.59375 
Q 50.140625 6.59375 56.421875 14.59375 
Q 62.703125 22.609375 62.703125 36.375 
Q 62.703125 50.203125 56.421875 58.203125 
Q 50.140625 66.21875 39.40625 66.21875 
z
M 53.21875 1.3125 
L 66.21875 -12.890625 
L 54.296875 -12.890625 
L 43.5 -1.21875 
Q 41.890625 -1.3125 41.03125 -1.359375 
Q 40.1875 -1.421875 39.40625 -1.421875 
Q 24.03125 -1.421875 14.8125 8.859375 
Q 5.609375 19.140625 5.609375 36.375 
Q 5.609375 53.65625 14.8125 63.9375 
Q 24.03125 74.21875 39.40625 74.21875 
Q 54.734375 74.21875 63.90625 63.9375 
Q 73.09375 53.65625 73.09375 36.375 
Q 73.09375 23.6875 67.984375 14.640625 
Q 62.890625 5.609375 53.21875 1.3125 
z
" id="DejaVuSans-51"/>
     </defs>
     <g transform="translate(14.798438 192.263187)rotate(-90)scale(0.1 -0.1)">
      <use xlink:href="#DejaVuSans-61"/>
      <use x="61.279297" xlink:href="#DejaVuSans-76"/>
      <use x="120.458984" xlink:href="#DejaVuSans-65"/>
      <use x="181.982422" xlink:href="#DejaVuSans-72"/>
      <use x="223.095703" xlink:href="#DejaVuSans-61"/>
      <use x="284.375" xlink:href="#DejaVuSans-67"/>
      <use x="347.851562" xlink:href="#DejaVuSans-65"/>
      <use x="409.375" xlink:href="#DejaVuSans-20"/>
      <use x="441.162109" xlink:href="#DejaVuSans-6d"/>
      <use x="538.574219" xlink:href="#DejaVuSans-61"/>
      <use x="599.853516" xlink:href="#DejaVuSans-78"/>
      <use x="659.033203" xlink:href="#DejaVuSans-51"/>
     </g>
    </g>
   </g>
   <g id="line2d_16">
    <path clip-path="url(#paf58900c5c)" d="M 60.013977 215.204533 
L 60.420303 190.797163 
L 60.826629 174.445697 
L 61.232956 150.635665 
L 61.639282 158.343207 
L 62.045608 179.948274 
L 62.451934 34.414125 
L 62.85826 167.751602 
L 63.264586 165.579489 
L 63.670912 180.613315 
L 64.077238 165.483155 
L 64.483564 163.039594 
L 64.88989 190.323074 
L 65.296216 142.033893 
L 65.702543 194.515511 
L 66.108869 201.562176 
L 66.515195 191.409814 
L 66.921521 168.450784 
L 67.327847 218.778407 
L 67.734173 228.442918 
L 68.140499 132.627562 
L 68.546825 109.233108 
L 68.953151 202.529 
L 69.359477 199.084546 
L 69.765803 138.41324 
L 70.17213 223.430841 
L 70.578456 175.416923 
L 70.984782 201.525679 
L 71.391108 212.691047 
L 71.797434 140.620793 
L 72.610086 201.924301 
L 73.016412 176.349987 
L 73.422738 183.633292 
L 73.829064 153.013094 
L 74.23539 171.692657 
L 74.641716 200.171791 
L 75.048043 111.573988 
L 75.454369 207.819483 
L 75.860695 207.200217 
L 76.267021 160.199299 
L 76.673347 165.780476 
L 77.079673 167.22256 
L 77.485999 90.827329 
L 77.892325 166.443554 
L 78.298651 215.336973 
L 78.704977 196.913088 
L 79.111303 192.853976 
L 79.51763 153.224025 
L 79.923956 164.025158 
L 80.330282 189.023458 
L 80.736608 180.690363 
L 81.142934 162.631222 
L 81.54926 217.472869 
L 81.955586 175.35844 
L 82.361912 146.713554 
L 82.768238 208.515916 
L 83.174564 169.689572 
L 83.58089 165.200141 
L 83.987217 168.880429 
L 84.393543 165.039321 
L 84.799869 196.972021 
L 85.206195 138.071268 
L 85.612521 195.790311 
L 86.018847 64.951828 
L 86.831499 194.891885 
L 87.237825 155.602194 
L 87.644151 185.90353 
L 88.050477 147.184594 
L 88.456804 179.406394 
L 88.86313 156.160832 
L 89.269456 190.954225 
L 89.675782 122.145266 
L 90.082108 88.978095 
L 90.488434 213.330819 
L 90.89476 205.526463 
L 91.301086 205.101506 
L 91.707412 196.743583 
L 92.113738 208.848365 
L 92.520064 116.796239 
L 92.926391 111.803152 
L 93.332717 205.432922 
L 93.739043 149.923084 
L 94.145369 171.893855 
L 94.551695 200.014168 
L 94.958021 185.461767 
L 95.770673 150.901276 
L 96.176999 202.466048 
L 96.583325 197.741349 
L 96.989651 200.490475 
L 97.395978 207.194604 
L 97.802304 168.689972 
L 98.20863 161.515578 
L 98.614956 203.586459 
L 99.021282 193.766515 
L 99.427608 194.575482 
L 99.833934 171.971959 
L 100.24026 276.334125 
L 100.646586 190.639874 
L 101.052912 197.373221 
L 101.459238 196.64263 
L 101.865564 191.529219 
L 102.271891 205.626933 
L 103.084543 133.240836 
L 103.490869 216.516573 
L 103.897195 99.647723 
L 104.303521 181.266284 
L 104.709847 180.299932 
L 105.116173 214.137811 
L 105.522499 226.928026 
L 105.928825 207.749975 
L 106.335151 166.88749 
L 107.147804 193.756765 
L 107.55413 201.718362 
L 107.960456 113.615193 
L 108.366782 175.492753 
L 108.773108 177.031919 
L 109.179434 151.757664 
L 109.58576 217.854534 
L 109.992086 192.044766 
L 110.398412 120.708226 
L 110.804738 135.461171 
L 111.211065 177.143043 
L 111.617391 168.899055 
L 112.023717 184.882982 
L 112.430043 131.755543 
L 112.836369 169.078067 
L 113.242695 195.362537 
L 113.649021 154.183814 
L 114.055347 165.40246 
L 114.461673 164.614535 
L 114.867999 188.446817 
L 115.274325 219.217536 
L 115.680652 175.308895 
L 116.086978 191.138175 
L 116.493304 175.309373 
L 116.89963 195.954466 
L 117.305956 187.166954 
L 117.712282 105.739588 
L 118.118608 49.405516 
L 118.524934 151.105735 
L 119.337586 186.859705 
L 119.743912 157.751666 
L 120.150239 158.063806 
L 120.962891 187.812625 
L 121.369217 162.667212 
L 121.775543 187.706034 
L 122.181869 140.035328 
L 122.588195 132.035563 
L 122.994521 202.555605 
L 123.400847 117.377031 
L 123.807173 145.11008 
L 124.213499 145.473095 
L 124.619825 189.221597 
L 125.026152 211.335544 
L 125.432478 148.838858 
L 125.838804 202.280646 
L 126.24513 152.903903 
L 127.057782 193.843918 
L 127.464108 151.877984 
L 128.27676 224.976531 
L 129.089412 114.956692 
L 129.495739 208.741824 
L 130.308391 160.68187 
L 131.121043 216.054763 
L 131.527369 167.80258 
L 131.933695 174.461916 
L 132.340021 217.766303 
L 132.746347 142.11222 
L 133.152673 204.143406 
L 133.558999 209.391664 
L 133.965326 188.355085 
L 134.371652 185.993223 
L 134.777978 163.862881 
L 135.184304 133.596187 
L 135.59063 162.106736 
L 135.996956 180.533658 
L 136.403282 170.437076 
L 136.809608 184.220324 
L 137.215934 161.08272 
L 137.62226 190.177185 
L 138.028586 186.535257 
L 138.434913 166.526406 
L 138.841239 135.52852 
L 139.247565 179.003804 
L 139.653891 138.520683 
L 140.060217 172.604488 
L 140.466543 191.302367 
L 140.872869 276.334125 
L 141.279195 197.19972 
L 141.685521 214.794688 
L 142.091847 204.879053 
L 142.498173 149.544674 
L 142.9045 200.142638 
L 143.717152 137.553812 
L 144.123478 176.752967 
L 144.529804 151.964208 
L 144.93613 177.171649 
L 145.342456 184.66038 
L 145.748782 200.100179 
L 146.155108 88.266358 
L 146.561434 215.182971 
L 146.96776 198.278251 
L 147.374087 213.641427 
L 147.780413 165.12148 
L 148.186739 195.783846 
L 148.999391 146.591274 
L 149.405717 190.288323 
L 149.812043 175.50692 
L 150.218369 141.977833 
L 150.624695 189.756843 
L 151.031021 180.006613 
L 151.437347 181.949612 
L 151.843673 168.465921 
L 152.25 161.380476 
L 152.656326 135.126972 
L 153.062652 173.558881 
L 153.468978 167.598625 
L 153.875304 217.819408 
L 154.687956 119.36935 
L 155.094282 132.039434 
L 155.500608 159.033958 
L 155.906934 201.192893 
L 156.31326 170.61498 
L 156.719587 176.091035 
L 157.125913 177.297717 
L 157.532239 121.195999 
L 158.344891 187.230762 
L 158.751217 166.470026 
L 159.157543 160.992613 
L 159.563869 150.636071 
L 159.970195 113.028502 
L 160.376521 149.089599 
L 160.782847 115.088351 
L 161.189174 147.150649 
L 161.5955 170.344624 
L 162.001826 180.952206 
L 162.408152 138.665448 
L 162.814478 172.137459 
L 163.220804 267.09861 
L 163.62713 242.823326 
L 164.033456 249.848134 
L 164.439782 234.494012 
L 164.846108 233.777529 
L 165.252434 237.319598 
L 165.658761 230.988724 
L 166.065087 229.394506 
L 166.471413 227.239815 
L 167.284065 218.554582 
L 167.690391 225.686796 
L 168.096717 227.36807 
L 168.503043 216.81623 
L 168.909369 220.443303 
L 169.315695 218.007548 
L 169.722021 219.218569 
L 170.128348 215.069616 
L 170.534674 216.205735 
L 170.941 215.641595 
L 171.347326 211.254207 
L 171.753652 221.380687 
L 172.159978 211.224035 
L 172.566304 215.383826 
L 173.378956 216.781994 
L 173.785282 213.435323 
L 174.191608 205.665864 
L 174.597934 201.8947 
L 175.004261 211.742192 
L 175.410587 212.020921 
L 175.816913 208.277065 
L 176.223239 207.278749 
L 176.629565 213.598354 
L 177.035891 213.767304 
L 177.442217 210.413489 
L 178.254869 212.851137 
L 178.661195 199.11498 
L 179.067521 210.872557 
L 179.473848 215.191094 
L 179.880174 206.44396 
L 180.2865 206.723139 
L 180.692826 213.302191 
L 181.099152 212.567695 
L 181.505478 276.334125 
L 181.911804 208.241807 
L 182.31813 211.001159 
L 183.130782 206.236423 
L 183.537108 212.909886 
L 183.943435 201.795965 
L 184.349761 207.069393 
L 184.756087 210.587604 
L 185.162413 203.564016 
L 185.568739 201.865742 
L 185.975065 208.879787 
L 186.381391 205.230986 
L 186.787717 208.228193 
L 187.194043 206.978582 
L 187.600369 208.428781 
L 188.006695 212.248676 
L 188.819348 201.735865 
L 189.225674 200.92787 
L 189.632 207.801792 
L 190.038326 206.385145 
L 190.444652 208.459207 
L 190.850978 204.146904 
L 191.257304 208.036203 
L 191.66363 197.834848 
L 192.069956 207.762449 
L 192.476282 202.8494 
L 192.882609 202.323561 
L 193.288935 208.216105 
L 193.695261 207.120951 
L 194.101587 205.061359 
L 194.507913 209.021544 
L 195.320565 204.127366 
L 195.726891 204.141313 
L 196.133217 203.210484 
L 196.539543 207.143269 
L 196.945869 208.739376 
L 197.352196 194.051579 
L 197.758522 205.348573 
L 198.164848 206.348235 
L 198.571174 205.892175 
L 198.9775 203.523637 
L 199.383826 202.74866 
L 199.790152 203.159101 
L 200.602804 209.56306 
L 201.00913 205.027671 
L 201.415456 196.521907 
L 201.821782 203.556784 
L 202.228109 202.096944 
L 202.634435 214.067132 
L 203.040761 204.455338 
L 203.447087 202.420117 
L 203.853413 196.549295 
L 204.259739 205.580586 
L 204.666065 190.72705 
L 205.072391 203.397106 
L 205.478717 204.211199 
L 205.885043 206.423257 
L 206.291369 196.993671 
L 206.697696 201.199352 
L 207.104022 206.681705 
L 207.510348 203.022885 
L 207.916674 205.735082 
L 208.323 206.06383 
L 208.729326 203.754314 
L 209.135652 204.556455 
L 209.541978 200.53674 
L 209.948304 200.596688 
L 210.35463 197.261463 
L 210.760956 190.547446 
L 211.167283 200.701161 
L 211.573609 196.885253 
L 211.979935 190.459144 
L 212.386261 204.627382 
L 212.792587 205.832134 
L 213.198913 202.637611 
L 213.605239 204.039555 
L 214.011565 206.182843 
L 214.417891 203.929493 
L 214.824217 204.701999 
L 215.230543 199.196425 
L 215.63687 205.308625 
L 216.043196 194.618755 
L 216.449522 204.655102 
L 216.855848 202.453301 
L 217.262174 198.376904 
L 217.6685 203.77938 
L 218.074826 202.687012 
L 218.481152 192.644571 
L 218.887478 203.347645 
L 219.293804 205.975725 
L 219.70013 203.13911 
L 220.106457 203.314393 
L 220.919109 184.605295 
L 221.731761 205.469984 
L 222.138087 276.334125 
L 222.544413 201.541099 
L 222.950739 200.152291 
L 223.357065 201.029059 
L 223.763391 203.154509 
L 224.169717 199.634489 
L 224.576043 203.29976 
L 225.388696 199.816798 
L 225.795022 196.266531 
L 226.201348 202.470633 
L 226.607674 198.663929 
L 227.014 182.449198 
L 227.420326 202.305075 
L 227.826652 191.152317 
L 228.232978 202.283569 
L 228.639304 193.092018 
L 229.04563 196.215378 
L 229.451957 196.594737 
L 229.858283 195.556171 
L 230.264609 199.143848 
L 230.670935 192.820683 
L 231.077261 199.615005 
L 231.483587 191.18524 
L 231.889913 189.779374 
L 232.296239 196.46135 
L 232.702565 196.357856 
L 233.108891 199.097074 
L 233.515217 198.92027 
L 233.921544 199.828614 
L 234.734196 188.338437 
L 235.140522 191.032524 
L 235.546848 195.694811 
L 235.953174 198.832523 
L 236.3595 195.378707 
L 236.765826 193.417519 
L 237.172152 194.056919 
L 237.578478 202.848178 
L 237.984804 193.839779 
L 238.391131 187.731069 
L 238.797457 195.526456 
L 239.203783 181.456147 
L 239.610109 191.596313 
L 240.016435 193.319356 
L 240.422761 190.539952 
L 240.829087 198.484081 
L 241.235413 184.309367 
L 241.641739 193.282271 
L 242.048065 199.473445 
L 242.454391 196.911063 
L 242.860718 189.692213 
L 243.267044 200.06456 
L 243.67337 193.112102 
L 244.079696 182.856924 
L 244.486022 184.617701 
L 244.892348 193.402006 
L 245.298674 197.483567 
L 245.705 194.155032 
L 246.111326 194.419415 
L 246.517652 185.587206 
L 246.923978 191.463963 
L 247.736631 194.54555 
L 248.142957 186.808602 
L 248.549283 188.648887 
L 248.955609 193.218684 
L 249.361935 193.598919 
L 250.174587 186.927027 
L 250.580913 185.651246 
L 250.987239 189.48565 
L 251.393565 183.303528 
L 251.799891 186.475114 
L 252.206218 183.108586 
L 252.612544 192.776768 
L 253.01887 188.840731 
L 253.425196 192.708276 
L 253.831522 188.416489 
L 254.237848 179.132972 
L 254.644174 194.901286 
L 255.0505 180.037667 
L 255.456826 183.646056 
L 255.863152 190.637459 
L 256.269478 190.461769 
L 256.675805 191.610773 
L 257.082131 181.316697 
L 257.488457 192.726491 
L 257.894783 196.671272 
L 258.301109 188.110982 
L 258.707435 192.712184 
L 259.113761 183.707502 
L 259.520087 183.098939 
L 259.926413 188.150106 
L 260.332739 176.459533 
L 260.739065 180.242514 
L 261.145392 185.784278 
L 261.551718 186.172607 
L 261.958044 185.013887 
L 262.36437 192.171125 
L 262.770696 276.334125 
L 263.177022 187.143067 
L 263.583348 192.727571 
L 263.989674 182.611975 
L 264.396 179.805703 
L 264.802326 184.044952 
L 265.208652 179.345268 
L 265.614979 176.729445 
L 266.021305 187.695812 
L 266.427631 181.500146 
L 266.833957 180.78871 
L 267.240283 183.304078 
L 267.646609 181.981356 
L 268.052935 184.928323 
L 268.459261 184.231256 
L 268.865587 177.07614 
L 269.271913 181.911997 
L 269.678239 178.49922 
L 270.084566 180.569276 
L 270.490892 178.041533 
L 270.897218 187.752786 
L 271.303544 178.693388 
L 271.70987 180.892953 
L 272.116196 181.6132 
L 272.522522 175.166742 
L 272.928848 186.7093 
L 273.335174 184.342378 
L 273.7415 181.291309 
L 274.147826 188.721957 
L 274.554152 184.721498 
L 274.960479 191.511138 
L 275.366805 185.897879 
L 275.773131 173.165891 
L 276.179457 181.568584 
L 276.585783 175.734534 
L 276.992109 177.140688 
L 277.398435 176.886346 
L 277.804761 175.993551 
L 278.211087 172.383309 
L 278.617413 170.48298 
L 279.023739 169.907952 
L 279.430066 185.658256 
L 279.836392 173.929307 
L 280.242718 167.406544 
L 280.649044 179.249142 
L 281.05537 171.799348 
L 281.461696 174.493219 
L 282.274348 183.364628 
L 282.680674 166.481754 
L 283.087 179.768397 
L 283.493326 186.289201 
L 283.899653 167.627048 
L 284.305979 177.00393 
L 284.712305 178.965915 
L 285.524957 167.799284 
L 285.931283 165.979119 
L 286.337609 176.522341 
L 286.743935 182.26381 
L 287.150261 168.961498 
L 287.556587 171.521071 
L 287.962913 166.937389 
L 288.36924 168.249218 
L 288.775566 163.62512 
L 289.181892 171.022755 
L 289.588218 166.376598 
L 289.994544 166.660667 
L 290.40087 166.254882 
L 290.807196 188.443086 
L 291.213522 165.028194 
L 291.619848 165.538825 
L 292.026174 167.225435 
L 292.4325 167.21715 
L 292.838827 169.319573 
L 293.245153 177.051114 
L 293.651479 158.881461 
L 294.057805 161.104829 
L 294.464131 165.338981 
L 294.870457 167.10693 
L 295.276783 161.123335 
L 295.683109 177.458683 
L 296.089435 184.947636 
L 296.495761 157.045718 
L 296.902087 175.492608 
L 297.308413 162.887969 
L 297.71474 155.746025 
L 298.121066 172.706278 
L 298.527392 158.773255 
L 298.933718 181.982257 
L 299.340044 152.700647 
L 299.74637 166.679921 
L 300.152696 167.987595 
L 300.559022 156.873801 
L 300.965348 164.56673 
L 301.371674 162.143158 
L 301.778 155.457718 
L 302.184327 171.698884 
L 302.590653 166.053069 
L 302.996979 162.223051 
L 303.403305 276.334125 
L 303.809631 153.716354 
L 304.215957 167.698335 
L 304.622283 177.547999 
L 305.028609 161.777012 
L 305.434935 160.809904 
L 305.841261 156.287598 
L 306.247587 165.31776 
L 306.653914 163.762817 
L 307.06024 164.819917 
L 307.872892 149.140619 
L 308.279218 167.827374 
L 308.685544 168.537897 
L 309.09187 165.734156 
L 309.498196 148.356685 
L 309.904522 160.335205 
L 310.310848 155.007565 
L 310.717174 147.006612 
L 311.123501 153.697628 
L 311.529827 162.729255 
L 311.936153 175.774915 
L 312.342479 153.068361 
L 312.748805 162.15022 
L 313.561457 150.65168 
L 313.967783 137.7263 
L 314.374109 159.656373 
L 314.780435 156.387787 
L 315.186761 166.190602 
L 315.593088 155.190467 
L 315.999414 164.870701 
L 316.40574 156.464835 
L 316.812066 170.552507 
L 317.218392 143.503982 
L 317.624718 168.044666 
L 318.031044 146.36359 
L 318.43737 155.128708 
L 318.843696 166.635381 
L 319.250022 157.256532 
L 319.656348 153.740798 
L 320.062675 140.72223 
L 320.469001 154.58152 
L 320.875327 154.914865 
L 321.281653 167.488122 
L 321.687979 161.022107 
L 322.094305 142.125859 
L 322.500631 138.580643 
L 322.906957 141.775816 
L 323.313283 156.936288 
L 323.719609 161.232729 
L 324.532261 143.910808 
L 324.938588 146.172173 
L 325.344914 130.569367 
L 325.75124 141.162961 
L 326.157566 147.330711 
L 326.563892 149.262379 
L 326.970218 156.93408 
L 327.376544 153.822675 
L 327.78287 136.26761 
L 328.189196 155.421338 
L 328.595522 162.495172 
L 329.001848 136.791626 
L 329.408175 135.271898 
L 329.814501 131.955107 
L 330.220827 176.661595 
L 331.033479 150.370472 
L 331.439805 140.235825 
L 331.846131 134.133316 
L 332.252457 155.531818 
L 332.658783 149.105716 
L 333.065109 146.181533 
L 333.471435 118.646692 
L 333.877762 140.983048 
L 334.284088 156.756614 
L 335.09674 124.3919 
L 335.503066 188.413044 
L 335.909392 130.482359 
L 336.315718 140.054017 
L 336.722044 159.147346 
L 337.12837 138.058321 
L 337.534696 137.33861 
L 337.941022 165.779777 
L 338.753675 114.672063 
L 339.160001 142.832744 
L 339.566327 135.13745 
L 339.972653 138.040128 
L 340.378979 158.84461 
L 340.785305 159.356724 
L 341.191631 131.783059 
L 342.004283 147.378525 
L 342.410609 140.98335 
L 342.816936 111.261223 
L 343.629588 134.772229 
L 344.035914 276.334125 
L 344.44224 139.963938 
L 344.848566 147.786607 
L 345.254892 161.478092 
L 345.661218 147.157161 
L 346.067544 113.456103 
L 346.47387 162.925614 
L 346.880196 146.022334 
L 347.286522 110.535639 
L 347.692849 118.384364 
L 348.099175 156.828902 
L 348.505501 154.142592 
L 348.911827 123.775281 
L 349.318153 111.744796 
L 349.724479 115.741571 
L 350.130805 122.591382 
L 350.537131 153.570672 
L 350.943457 153.736159 
L 351.349783 103.250063 
L 351.756109 160.338775 
L 352.162436 110.652938 
L 352.568762 139.379086 
L 352.975088 157.16756 
L 353.381414 112.091492 
L 353.78774 178.774278 
L 354.194066 130.015751 
L 354.600392 99.585677 
L 355.006718 102.842678 
L 355.413044 112.713294 
L 355.81937 139.964302 
L 356.225696 131.063776 
L 356.632023 134.438655 
L 357.038349 103.531401 
L 357.444675 137.208473 
L 357.851001 154.425299 
L 358.663653 117.075549 
L 359.069979 130.099268 
L 359.476305 104.186242 
L 359.882631 104.872523 
L 360.288957 117.286644 
L 360.695283 121.529617 
L 361.10161 115.25853 
L 361.507936 145.759755 
L 361.914262 93.549947 
L 362.320588 126.768098 
L 362.726914 119.81538 
L 363.13324 93.792506 
L 363.539566 137.310859 
L 363.945892 134.639421 
L 364.352218 141.744405 
L 364.758544 134.545655 
L 365.16487 113.938714 
L 365.571197 130.460683 
L 365.977523 136.760082 
L 366.383849 150.821992 
L 366.790175 105.975563 
L 367.196501 106.743713 
L 367.602827 130.670092 
L 368.415479 91.972399 
L 368.821805 104.563066 
L 369.228131 129.423545 
L 369.634457 103.181493 
L 370.040784 122.684546 
L 370.44711 123.527281 
L 370.853436 111.079152 
L 371.259762 119.86392 
L 371.666088 116.163523 
L 372.072414 85.716395 
L 372.47874 122.090755 
L 372.885066 117.489565 
L 373.291392 134.857981 
L 373.697718 92.453763 
L 374.104044 131.656104 
L 374.51037 118.697712 
L 374.916697 98.685087 
L 375.323023 125.808634 
L 375.729349 136.418374 
L 376.135675 107.948336 
L 376.542001 106.591223 
L 376.948327 120.022628 
L 377.354653 99.195628 
L 377.760979 116.967666 
L 378.167305 91.163481 
L 378.573631 93.48596 
L 378.979957 91.769982 
L 379.386284 105.022063 
L 379.79261 108.559057 
L 380.198936 126.112708 
L 380.605262 163.167217 
L 381.011588 99.63507 
L 381.417914 88.685674 
L 381.82424 134.775895 
L 382.230566 59.770692 
L 382.636892 133.350119 
L 383.043218 101.658836 
L 383.449544 85.370955 
L 383.855871 91.415009 
L 384.262197 129.639362 
L 384.668523 276.334125 
L 384.668523 276.334125 
" style="fill:none;stroke:#1f77b4;stroke-linecap:square;stroke-width:0.5;"/>
   </g>
   <g id="patch_3">
    <path d="M 43.78125 288.430125 
L 43.78125 22.318125 
" style="fill:none;stroke:#000000;stroke-linecap:square;stroke-linejoin:miter;stroke-width:0.8;"/>
   </g>
   <g id="patch_4">
    <path d="M 400.90125 288.430125 
L 400.90125 22.318125 
" style="fill:none;stroke:#000000;stroke-linecap:square;stroke-linejoin:miter;stroke-width:0.8;"/>
   </g>
   <g id="patch_5">
    <path d="M 43.78125 288.430125 
L 400.90125 288.430125 
" style="fill:none;stroke:#000000;stroke-linecap:square;stroke-linejoin:miter;stroke-width:0.8;"/>
   </g>
   <g id="patch_6">
    <path d="M 43.78125 22.318125 
L 400.90125 22.318125 
" style="fill:none;stroke:#000000;stroke-linecap:square;stroke-linejoin:miter;stroke-width:0.8;"/>
   </g>
   <g id="text_18">
    <!-- Average maxQ per episode, joint3 -->
    <defs>
     <path d="M 34.1875 63.1875 
L 20.796875 26.90625 
L 47.609375 26.90625 
z
M 28.609375 72.90625 
L 39.796875 72.90625 
L 67.578125 0 
L 57.328125 0 
L 50.6875 18.703125 
L 17.828125 18.703125 
L 11.1875 0 
L 0.78125 0 
z
" id="DejaVuSans-41"/>
     <path d="M 11.71875 12.40625 
L 22.015625 12.40625 
L 22.015625 4 
L 14.015625 -11.625 
L 7.71875 -11.625 
L 11.71875 4 
z
" id="DejaVuSans-2c"/>
     <path d="M 9.421875 54.6875 
L 18.40625 54.6875 
L 18.40625 -0.984375 
Q 18.40625 -11.421875 14.421875 -16.109375 
Q 10.453125 -20.796875 1.609375 -20.796875 
L -1.8125 -20.796875 
L -1.8125 -13.1875 
L 0.59375 -13.1875 
Q 5.71875 -13.1875 7.5625 -10.8125 
Q 9.421875 -8.453125 9.421875 -0.984375 
z
M 9.421875 75.984375 
L 18.40625 75.984375 
L 18.40625 64.59375 
L 9.421875 64.59375 
z
" id="DejaVuSans-6a"/>
     <path d="M 54.890625 33.015625 
L 54.890625 0 
L 45.90625 0 
L 45.90625 32.71875 
Q 45.90625 40.484375 42.875 44.328125 
Q 39.84375 48.1875 33.796875 48.1875 
Q 26.515625 48.1875 22.3125 43.546875 
Q 18.109375 38.921875 18.109375 30.90625 
L 18.109375 0 
L 9.078125 0 
L 9.078125 54.6875 
L 18.109375 54.6875 
L 18.109375 46.1875 
Q 21.34375 51.125 25.703125 53.5625 
Q 30.078125 56 35.796875 56 
Q 45.21875 56 50.046875 50.171875 
Q 54.890625 44.34375 54.890625 33.015625 
z
" id="DejaVuSans-6e"/>
     <path d="M 18.3125 70.21875 
L 18.3125 54.6875 
L 36.8125 54.6875 
L 36.8125 47.703125 
L 18.3125 47.703125 
L 18.3125 18.015625 
Q 18.3125 11.328125 20.140625 9.421875 
Q 21.96875 7.515625 27.59375 7.515625 
L 36.8125 7.515625 
L 36.8125 0 
L 27.59375 0 
Q 17.1875 0 13.234375 3.875 
Q 9.28125 7.765625 9.28125 18.015625 
L 9.28125 47.703125 
L 2.6875 47.703125 
L 2.6875 54.6875 
L 9.28125 54.6875 
L 9.28125 70.21875 
z
" id="DejaVuSans-74"/>
    </defs>
    <g transform="translate(119.61375 16.318125)scale(0.12 -0.12)">
     <use xlink:href="#DejaVuSans-41"/>
     <use x="68.330078" xlink:href="#DejaVuSans-76"/>
     <use x="127.509766" xlink:href="#DejaVuSans-65"/>
     <use x="189.033203" xlink:href="#DejaVuSans-72"/>
     <use x="230.146484" xlink:href="#DejaVuSans-61"/>
     <use x="291.425781" xlink:href="#DejaVuSans-67"/>
     <use x="354.902344" xlink:href="#DejaVuSans-65"/>
     <use x="416.425781" xlink:href="#DejaVuSans-20"/>
     <use x="448.212891" xlink:href="#DejaVuSans-6d"/>
     <use x="545.625" xlink:href="#DejaVuSans-61"/>
     <use x="606.904297" xlink:href="#DejaVuSans-78"/>
     <use x="666.083984" xlink:href="#DejaVuSans-51"/>
     <use x="744.794922" xlink:href="#DejaVuSans-20"/>
     <use x="776.582031" xlink:href="#DejaVuSans-70"/>
     <use x="840.058594" xlink:href="#DejaVuSans-65"/>
     <use x="901.582031" xlink:href="#DejaVuSans-72"/>
     <use x="942.695312" xlink:href="#DejaVuSans-20"/>
     <use x="974.482422" xlink:href="#DejaVuSans-65"/>
     <use x="1036.005859" xlink:href="#DejaVuSans-70"/>
     <use x="1099.482422" xlink:href="#DejaVuSans-69"/>
     <use x="1127.265625" xlink:href="#DejaVuSans-73"/>
     <use x="1179.365234" xlink:href="#DejaVuSans-6f"/>
     <use x="1240.546875" xlink:href="#DejaVuSans-64"/>
     <use x="1304.023438" xlink:href="#DejaVuSans-65"/>
     <use x="1365.546875" xlink:href="#DejaVuSans-2c"/>
     <use x="1397.333984" xlink:href="#DejaVuSans-20"/>
     <use x="1429.121094" xlink:href="#DejaVuSans-6a"/>
     <use x="1456.904297" xlink:href="#DejaVuSans-6f"/>
     <use x="1518.085938" xlink:href="#DejaVuSans-69"/>
     <use x="1545.869141" xlink:href="#DejaVuSans-6e"/>
     <use x="1609.248047" xlink:href="#DejaVuSans-74"/>
     <use x="1648.457031" xlink:href="#DejaVuSans-33"/>
    </g>
   </g>
  </g>
 </g>
 <defs>
  <clipPath id="paf58900c5c">
   <rect height="266.112" width="357.12" x="43.78125" y="22.318125"/>
  </clipPath>
 </defs>
</svg>
