<?xml version="1.0" encoding="utf-8" standalone="no"?>
<!DOCTYPE svg PUBLIC "-//W3C//DTD SVG 1.1//EN"
  "http://www.w3.org/Graphics/SVG/1.1/DTD/svg11.dtd">
<!-- Created with matplotlib (http://matplotlib.org/) -->
<svg height="325pt" version="1.1" viewBox="0 0 411 325" width="411pt" xmlns="http://www.w3.org/2000/svg" xmlns:xlink="http://www.w3.org/1999/xlink">
 <defs>
  <style type="text/css">
*{stroke-linecap:butt;stroke-linejoin:round;}
  </style>
 </defs>
 <g id="figure_1">
  <g id="patch_1">
   <path d="M 0 325.986375 
L 411.60125 325.986375 
L 411.60125 0 
L 0 0 
z
" style="fill:#ffffff;"/>
  </g>
  <g id="axes_1">
   <g id="patch_2">
    <path d="M 43.78125 288.430125 
L 400.90125 288.430125 
L 400.90125 22.318125 
L 43.78125 22.318125 
z
" style="fill:#ffffff;"/>
   </g>
   <g id="matplotlib.axis_1">
    <g id="xtick_1">
     <g id="line2d_1">
      <defs>
       <path d="M 0 0 
L 0 3.5 
" id="m5aa8c01589" style="stroke:#000000;stroke-width:0.8;"/>
      </defs>
      <g>
       <use style="stroke:#000000;stroke-width:0.8;" x="60.013977" xlink:href="#m5aa8c01589" y="288.430125"/>
      </g>
     </g>
     <g id="text_1">
      <!-- 0 -->
      <defs>
       <path d="M 31.78125 66.40625 
Q 24.171875 66.40625 20.328125 58.90625 
Q 16.5 51.421875 16.5 36.375 
Q 16.5 21.390625 20.328125 13.890625 
Q 24.171875 6.390625 31.78125 6.390625 
Q 39.453125 6.390625 43.28125 13.890625 
Q 47.125 21.390625 47.125 36.375 
Q 47.125 51.421875 43.28125 58.90625 
Q 39.453125 66.40625 31.78125 66.40625 
z
M 31.78125 74.21875 
Q 44.046875 74.21875 50.515625 64.515625 
Q 56.984375 54.828125 56.984375 36.375 
Q 56.984375 17.96875 50.515625 8.265625 
Q 44.046875 -1.421875 31.78125 -1.421875 
Q 19.53125 -1.421875 13.0625 8.265625 
Q 6.59375 17.96875 6.59375 36.375 
Q 6.59375 54.828125 13.0625 64.515625 
Q 19.53125 74.21875 31.78125 74.21875 
z
" id="DejaVuSans-30"/>
      </defs>
      <g transform="translate(56.832727 303.028562)scale(0.1 -0.1)">
       <use xlink:href="#DejaVuSans-30"/>
      </g>
     </g>
    </g>
    <g id="xtick_2">
     <g id="line2d_2">
      <g>
       <use style="stroke:#000000;stroke-width:0.8;" x="125.009882" xlink:href="#m5aa8c01589" y="288.430125"/>
      </g>
     </g>
     <g id="text_2">
      <!-- 200 -->
      <defs>
       <path d="M 19.1875 8.296875 
L 53.609375 8.296875 
L 53.609375 0 
L 7.328125 0 
L 7.328125 8.296875 
Q 12.9375 14.109375 22.625 23.890625 
Q 32.328125 33.6875 34.8125 36.53125 
Q 39.546875 41.84375 41.421875 45.53125 
Q 43.3125 49.21875 43.3125 52.78125 
Q 43.3125 58.59375 39.234375 62.25 
Q 35.15625 65.921875 28.609375 65.921875 
Q 23.96875 65.921875 18.8125 64.3125 
Q 13.671875 62.703125 7.8125 59.421875 
L 7.8125 69.390625 
Q 13.765625 71.78125 18.9375 73 
Q 24.125 74.21875 28.421875 74.21875 
Q 39.75 74.21875 46.484375 68.546875 
Q 53.21875 62.890625 53.21875 53.421875 
Q 53.21875 48.921875 51.53125 44.890625 
Q 49.859375 40.875 45.40625 35.40625 
Q 44.1875 33.984375 37.640625 27.21875 
Q 31.109375 20.453125 19.1875 8.296875 
z
" id="DejaVuSans-32"/>
      </defs>
      <g transform="translate(115.466132 303.028562)scale(0.1 -0.1)">
       <use xlink:href="#DejaVuSans-32"/>
       <use x="63.623047" xlink:href="#DejaVuSans-30"/>
       <use x="127.246094" xlink:href="#DejaVuSans-30"/>
      </g>
     </g>
    </g>
    <g id="xtick_3">
     <g id="line2d_3">
      <g>
       <use style="stroke:#000000;stroke-width:0.8;" x="190.005787" xlink:href="#m5aa8c01589" y="288.430125"/>
      </g>
     </g>
     <g id="text_3">
      <!-- 400 -->
      <defs>
       <path d="M 37.796875 64.3125 
L 12.890625 25.390625 
L 37.796875 25.390625 
z
M 35.203125 72.90625 
L 47.609375 72.90625 
L 47.609375 25.390625 
L 58.015625 25.390625 
L 58.015625 17.1875 
L 47.609375 17.1875 
L 47.609375 0 
L 37.796875 0 
L 37.796875 17.1875 
L 4.890625 17.1875 
L 4.890625 26.703125 
z
" id="DejaVuSans-34"/>
      </defs>
      <g transform="translate(180.462037 303.028562)scale(0.1 -0.1)">
       <use xlink:href="#DejaVuSans-34"/>
       <use x="63.623047" xlink:href="#DejaVuSans-30"/>
       <use x="127.246094" xlink:href="#DejaVuSans-30"/>
      </g>
     </g>
    </g>
    <g id="xtick_4">
     <g id="line2d_4">
      <g>
       <use style="stroke:#000000;stroke-width:0.8;" x="255.001692" xlink:href="#m5aa8c01589" y="288.430125"/>
      </g>
     </g>
     <g id="text_4">
      <!-- 600 -->
      <defs>
       <path d="M 33.015625 40.375 
Q 26.375 40.375 22.484375 35.828125 
Q 18.609375 31.296875 18.609375 23.390625 
Q 18.609375 15.53125 22.484375 10.953125 
Q 26.375 6.390625 33.015625 6.390625 
Q 39.65625 6.390625 43.53125 10.953125 
Q 47.40625 15.53125 47.40625 23.390625 
Q 47.40625 31.296875 43.53125 35.828125 
Q 39.65625 40.375 33.015625 40.375 
z
M 52.59375 71.296875 
L 52.59375 62.3125 
Q 48.875 64.0625 45.09375 64.984375 
Q 41.3125 65.921875 37.59375 65.921875 
Q 27.828125 65.921875 22.671875 59.328125 
Q 17.53125 52.734375 16.796875 39.40625 
Q 19.671875 43.65625 24.015625 45.921875 
Q 28.375 48.1875 33.59375 48.1875 
Q 44.578125 48.1875 50.953125 41.515625 
Q 57.328125 34.859375 57.328125 23.390625 
Q 57.328125 12.15625 50.6875 5.359375 
Q 44.046875 -1.421875 33.015625 -1.421875 
Q 20.359375 -1.421875 13.671875 8.265625 
Q 6.984375 17.96875 6.984375 36.375 
Q 6.984375 53.65625 15.1875 63.9375 
Q 23.390625 74.21875 37.203125 74.21875 
Q 40.921875 74.21875 44.703125 73.484375 
Q 48.484375 72.75 52.59375 71.296875 
z
" id="DejaVuSans-36"/>
      </defs>
      <g transform="translate(245.457942 303.028562)scale(0.1 -0.1)">
       <use xlink:href="#DejaVuSans-36"/>
       <use x="63.623047" xlink:href="#DejaVuSans-30"/>
       <use x="127.246094" xlink:href="#DejaVuSans-30"/>
      </g>
     </g>
    </g>
    <g id="xtick_5">
     <g id="line2d_5">
      <g>
       <use style="stroke:#000000;stroke-width:0.8;" x="319.997597" xlink:href="#m5aa8c01589" y="288.430125"/>
      </g>
     </g>
     <g id="text_5">
      <!-- 800 -->
      <defs>
       <path d="M 31.78125 34.625 
Q 24.75 34.625 20.71875 30.859375 
Q 16.703125 27.09375 16.703125 20.515625 
Q 16.703125 13.921875 20.71875 10.15625 
Q 24.75 6.390625 31.78125 6.390625 
Q 38.8125 6.390625 42.859375 10.171875 
Q 46.921875 13.96875 46.921875 20.515625 
Q 46.921875 27.09375 42.890625 30.859375 
Q 38.875 34.625 31.78125 34.625 
z
M 21.921875 38.8125 
Q 15.578125 40.375 12.03125 44.71875 
Q 8.5 49.078125 8.5 55.328125 
Q 8.5 64.0625 14.71875 69.140625 
Q 20.953125 74.21875 31.78125 74.21875 
Q 42.671875 74.21875 48.875 69.140625 
Q 55.078125 64.0625 55.078125 55.328125 
Q 55.078125 49.078125 51.53125 44.71875 
Q 48 40.375 41.703125 38.8125 
Q 48.828125 37.15625 52.796875 32.3125 
Q 56.78125 27.484375 56.78125 20.515625 
Q 56.78125 9.90625 50.3125 4.234375 
Q 43.84375 -1.421875 31.78125 -1.421875 
Q 19.734375 -1.421875 13.25 4.234375 
Q 6.78125 9.90625 6.78125 20.515625 
Q 6.78125 27.484375 10.78125 32.3125 
Q 14.796875 37.15625 21.921875 38.8125 
z
M 18.3125 54.390625 
Q 18.3125 48.734375 21.84375 45.5625 
Q 25.390625 42.390625 31.78125 42.390625 
Q 38.140625 42.390625 41.71875 45.5625 
Q 45.3125 48.734375 45.3125 54.390625 
Q 45.3125 60.0625 41.71875 63.234375 
Q 38.140625 66.40625 31.78125 66.40625 
Q 25.390625 66.40625 21.84375 63.234375 
Q 18.3125 60.0625 18.3125 54.390625 
z
" id="DejaVuSans-38"/>
      </defs>
      <g transform="translate(310.453847 303.028562)scale(0.1 -0.1)">
       <use xlink:href="#DejaVuSans-38"/>
       <use x="63.623047" xlink:href="#DejaVuSans-30"/>
       <use x="127.246094" xlink:href="#DejaVuSans-30"/>
      </g>
     </g>
    </g>
    <g id="xtick_6">
     <g id="line2d_6">
      <g>
       <use style="stroke:#000000;stroke-width:0.8;" x="384.993502" xlink:href="#m5aa8c01589" y="288.430125"/>
      </g>
     </g>
     <g id="text_6">
      <!-- 1000 -->
      <defs>
       <path d="M 12.40625 8.296875 
L 28.515625 8.296875 
L 28.515625 63.921875 
L 10.984375 60.40625 
L 10.984375 69.390625 
L 28.421875 72.90625 
L 38.28125 72.90625 
L 38.28125 8.296875 
L 54.390625 8.296875 
L 54.390625 0 
L 12.40625 0 
z
" id="DejaVuSans-31"/>
      </defs>
      <g transform="translate(372.268502 303.028562)scale(0.1 -0.1)">
       <use xlink:href="#DejaVuSans-31"/>
       <use x="63.623047" xlink:href="#DejaVuSans-30"/>
       <use x="127.246094" xlink:href="#DejaVuSans-30"/>
       <use x="190.869141" xlink:href="#DejaVuSans-30"/>
      </g>
     </g>
    </g>
    <g id="text_7">
     <!-- episode -->
     <defs>
      <path d="M 56.203125 29.59375 
L 56.203125 25.203125 
L 14.890625 25.203125 
Q 15.484375 15.921875 20.484375 11.0625 
Q 25.484375 6.203125 34.421875 6.203125 
Q 39.59375 6.203125 44.453125 7.46875 
Q 49.3125 8.734375 54.109375 11.28125 
L 54.109375 2.78125 
Q 49.265625 0.734375 44.1875 -0.34375 
Q 39.109375 -1.421875 33.890625 -1.421875 
Q 20.796875 -1.421875 13.15625 6.1875 
Q 5.515625 13.8125 5.515625 26.8125 
Q 5.515625 40.234375 12.765625 48.109375 
Q 20.015625 56 32.328125 56 
Q 43.359375 56 49.78125 48.890625 
Q 56.203125 41.796875 56.203125 29.59375 
z
M 47.21875 32.234375 
Q 47.125 39.59375 43.09375 43.984375 
Q 39.0625 48.390625 32.421875 48.390625 
Q 24.90625 48.390625 20.390625 44.140625 
Q 15.875 39.890625 15.1875 32.171875 
z
" id="DejaVuSans-65"/>
      <path d="M 18.109375 8.203125 
L 18.109375 -20.796875 
L 9.078125 -20.796875 
L 9.078125 54.6875 
L 18.109375 54.6875 
L 18.109375 46.390625 
Q 20.953125 51.265625 25.265625 53.625 
Q 29.59375 56 35.59375 56 
Q 45.5625 56 51.78125 48.09375 
Q 58.015625 40.1875 58.015625 27.296875 
Q 58.015625 14.40625 51.78125 6.484375 
Q 45.5625 -1.421875 35.59375 -1.421875 
Q 29.59375 -1.421875 25.265625 0.953125 
Q 20.953125 3.328125 18.109375 8.203125 
z
M 48.6875 27.296875 
Q 48.6875 37.203125 44.609375 42.84375 
Q 40.53125 48.484375 33.40625 48.484375 
Q 26.265625 48.484375 22.1875 42.84375 
Q 18.109375 37.203125 18.109375 27.296875 
Q 18.109375 17.390625 22.1875 11.75 
Q 26.265625 6.109375 33.40625 6.109375 
Q 40.53125 6.109375 44.609375 11.75 
Q 48.6875 17.390625 48.6875 27.296875 
z
" id="DejaVuSans-70"/>
      <path d="M 9.421875 54.6875 
L 18.40625 54.6875 
L 18.40625 0 
L 9.421875 0 
z
M 9.421875 75.984375 
L 18.40625 75.984375 
L 18.40625 64.59375 
L 9.421875 64.59375 
z
" id="DejaVuSans-69"/>
      <path d="M 44.28125 53.078125 
L 44.28125 44.578125 
Q 40.484375 46.53125 36.375 47.5 
Q 32.28125 48.484375 27.875 48.484375 
Q 21.1875 48.484375 17.84375 46.4375 
Q 14.5 44.390625 14.5 40.28125 
Q 14.5 37.15625 16.890625 35.375 
Q 19.28125 33.59375 26.515625 31.984375 
L 29.59375 31.296875 
Q 39.15625 29.25 43.1875 25.515625 
Q 47.21875 21.78125 47.21875 15.09375 
Q 47.21875 7.46875 41.1875 3.015625 
Q 35.15625 -1.421875 24.609375 -1.421875 
Q 20.21875 -1.421875 15.453125 -0.5625 
Q 10.6875 0.296875 5.421875 2 
L 5.421875 11.28125 
Q 10.40625 8.6875 15.234375 7.390625 
Q 20.0625 6.109375 24.8125 6.109375 
Q 31.15625 6.109375 34.5625 8.28125 
Q 37.984375 10.453125 37.984375 14.40625 
Q 37.984375 18.0625 35.515625 20.015625 
Q 33.0625 21.96875 24.703125 23.78125 
L 21.578125 24.515625 
Q 13.234375 26.265625 9.515625 29.90625 
Q 5.8125 33.546875 5.8125 39.890625 
Q 5.8125 47.609375 11.28125 51.796875 
Q 16.75 56 26.8125 56 
Q 31.78125 56 36.171875 55.265625 
Q 40.578125 54.546875 44.28125 53.078125 
z
" id="DejaVuSans-73"/>
      <path d="M 30.609375 48.390625 
Q 23.390625 48.390625 19.1875 42.75 
Q 14.984375 37.109375 14.984375 27.296875 
Q 14.984375 17.484375 19.15625 11.84375 
Q 23.34375 6.203125 30.609375 6.203125 
Q 37.796875 6.203125 41.984375 11.859375 
Q 46.1875 17.53125 46.1875 27.296875 
Q 46.1875 37.015625 41.984375 42.703125 
Q 37.796875 48.390625 30.609375 48.390625 
z
M 30.609375 56 
Q 42.328125 56 49.015625 48.375 
Q 55.71875 40.765625 55.71875 27.296875 
Q 55.71875 13.875 49.015625 6.21875 
Q 42.328125 -1.421875 30.609375 -1.421875 
Q 18.84375 -1.421875 12.171875 6.21875 
Q 5.515625 13.875 5.515625 27.296875 
Q 5.515625 40.765625 12.171875 48.375 
Q 18.84375 56 30.609375 56 
z
" id="DejaVuSans-6f"/>
      <path d="M 45.40625 46.390625 
L 45.40625 75.984375 
L 54.390625 75.984375 
L 54.390625 0 
L 45.40625 0 
L 45.40625 8.203125 
Q 42.578125 3.328125 38.25 0.953125 
Q 33.9375 -1.421875 27.875 -1.421875 
Q 17.96875 -1.421875 11.734375 6.484375 
Q 5.515625 14.40625 5.515625 27.296875 
Q 5.515625 40.1875 11.734375 48.09375 
Q 17.96875 56 27.875 56 
Q 33.9375 56 38.25 53.625 
Q 42.578125 51.265625 45.40625 46.390625 
z
M 14.796875 27.296875 
Q 14.796875 17.390625 18.875 11.75 
Q 22.953125 6.109375 30.078125 6.109375 
Q 37.203125 6.109375 41.296875 11.75 
Q 45.40625 17.390625 45.40625 27.296875 
Q 45.40625 37.203125 41.296875 42.84375 
Q 37.203125 48.484375 30.078125 48.484375 
Q 22.953125 48.484375 18.875 42.84375 
Q 14.796875 37.203125 14.796875 27.296875 
z
" id="DejaVuSans-64"/>
     </defs>
     <g transform="translate(202.786563 316.706687)scale(0.1 -0.1)">
      <use xlink:href="#DejaVuSans-65"/>
      <use x="61.523438" xlink:href="#DejaVuSans-70"/>
      <use x="125" xlink:href="#DejaVuSans-69"/>
      <use x="152.783203" xlink:href="#DejaVuSans-73"/>
      <use x="204.882812" xlink:href="#DejaVuSans-6f"/>
      <use x="266.064453" xlink:href="#DejaVuSans-64"/>
      <use x="329.541016" xlink:href="#DejaVuSans-65"/>
     </g>
    </g>
   </g>
   <g id="matplotlib.axis_2">
    <g id="ytick_1">
     <g id="line2d_7">
      <defs>
       <path d="M 0 0 
L -3.5 0 
" id="ma62dab1582" style="stroke:#000000;stroke-width:0.8;"/>
      </defs>
      <g>
       <use style="stroke:#000000;stroke-width:0.8;" x="43.78125" xlink:href="#ma62dab1582" y="255.419855"/>
      </g>
     </g>
     <g id="text_8">
      <!-- 0.2 -->
      <defs>
       <path d="M 10.6875 12.40625 
L 21 12.40625 
L 21 0 
L 10.6875 0 
z
" id="DejaVuSans-2e"/>
      </defs>
      <g transform="translate(20.878125 259.219074)scale(0.1 -0.1)">
       <use xlink:href="#DejaVuSans-30"/>
       <use x="63.623047" xlink:href="#DejaVuSans-2e"/>
       <use x="95.410156" xlink:href="#DejaVuSans-32"/>
      </g>
     </g>
    </g>
    <g id="ytick_2">
     <g id="line2d_8">
      <g>
       <use style="stroke:#000000;stroke-width:0.8;" x="43.78125" xlink:href="#ma62dab1582" y="215.699062"/>
      </g>
     </g>
     <g id="text_9">
      <!-- 0.3 -->
      <defs>
       <path d="M 40.578125 39.3125 
Q 47.65625 37.796875 51.625 33 
Q 55.609375 28.21875 55.609375 21.1875 
Q 55.609375 10.40625 48.1875 4.484375 
Q 40.765625 -1.421875 27.09375 -1.421875 
Q 22.515625 -1.421875 17.65625 -0.515625 
Q 12.796875 0.390625 7.625 2.203125 
L 7.625 11.71875 
Q 11.71875 9.328125 16.59375 8.109375 
Q 21.484375 6.890625 26.8125 6.890625 
Q 36.078125 6.890625 40.9375 10.546875 
Q 45.796875 14.203125 45.796875 21.1875 
Q 45.796875 27.640625 41.28125 31.265625 
Q 36.765625 34.90625 28.71875 34.90625 
L 20.21875 34.90625 
L 20.21875 43.015625 
L 29.109375 43.015625 
Q 36.375 43.015625 40.234375 45.921875 
Q 44.09375 48.828125 44.09375 54.296875 
Q 44.09375 59.90625 40.109375 62.90625 
Q 36.140625 65.921875 28.71875 65.921875 
Q 24.65625 65.921875 20.015625 65.03125 
Q 15.375 64.15625 9.8125 62.3125 
L 9.8125 71.09375 
Q 15.4375 72.65625 20.34375 73.4375 
Q 25.25 74.21875 29.59375 74.21875 
Q 40.828125 74.21875 47.359375 69.109375 
Q 53.90625 64.015625 53.90625 55.328125 
Q 53.90625 49.265625 50.4375 45.09375 
Q 46.96875 40.921875 40.578125 39.3125 
z
" id="DejaVuSans-33"/>
      </defs>
      <g transform="translate(20.878125 219.498281)scale(0.1 -0.1)">
       <use xlink:href="#DejaVuSans-30"/>
       <use x="63.623047" xlink:href="#DejaVuSans-2e"/>
       <use x="95.410156" xlink:href="#DejaVuSans-33"/>
      </g>
     </g>
    </g>
    <g id="ytick_3">
     <g id="line2d_9">
      <g>
       <use style="stroke:#000000;stroke-width:0.8;" x="43.78125" xlink:href="#ma62dab1582" y="175.978269"/>
      </g>
     </g>
     <g id="text_10">
      <!-- 0.4 -->
      <g transform="translate(20.878125 179.777488)scale(0.1 -0.1)">
       <use xlink:href="#DejaVuSans-30"/>
       <use x="63.623047" xlink:href="#DejaVuSans-2e"/>
       <use x="95.410156" xlink:href="#DejaVuSans-34"/>
      </g>
     </g>
    </g>
    <g id="ytick_4">
     <g id="line2d_10">
      <g>
       <use style="stroke:#000000;stroke-width:0.8;" x="43.78125" xlink:href="#ma62dab1582" y="136.257476"/>
      </g>
     </g>
     <g id="text_11">
      <!-- 0.5 -->
      <defs>
       <path d="M 10.796875 72.90625 
L 49.515625 72.90625 
L 49.515625 64.59375 
L 19.828125 64.59375 
L 19.828125 46.734375 
Q 21.96875 47.46875 24.109375 47.828125 
Q 26.265625 48.1875 28.421875 48.1875 
Q 40.625 48.1875 47.75 41.5 
Q 54.890625 34.8125 54.890625 23.390625 
Q 54.890625 11.625 47.5625 5.09375 
Q 40.234375 -1.421875 26.90625 -1.421875 
Q 22.3125 -1.421875 17.546875 -0.640625 
Q 12.796875 0.140625 7.71875 1.703125 
L 7.71875 11.625 
Q 12.109375 9.234375 16.796875 8.0625 
Q 21.484375 6.890625 26.703125 6.890625 
Q 35.15625 6.890625 40.078125 11.328125 
Q 45.015625 15.765625 45.015625 23.390625 
Q 45.015625 31 40.078125 35.4375 
Q 35.15625 39.890625 26.703125 39.890625 
Q 22.75 39.890625 18.8125 39.015625 
Q 14.890625 38.140625 10.796875 36.28125 
z
" id="DejaVuSans-35"/>
      </defs>
      <g transform="translate(20.878125 140.056695)scale(0.1 -0.1)">
       <use xlink:href="#DejaVuSans-30"/>
       <use x="63.623047" xlink:href="#DejaVuSans-2e"/>
       <use x="95.410156" xlink:href="#DejaVuSans-35"/>
      </g>
     </g>
    </g>
    <g id="ytick_5">
     <g id="line2d_11">
      <g>
       <use style="stroke:#000000;stroke-width:0.8;" x="43.78125" xlink:href="#ma62dab1582" y="96.536683"/>
      </g>
     </g>
     <g id="text_12">
      <!-- 0.6 -->
      <g transform="translate(20.878125 100.335902)scale(0.1 -0.1)">
       <use xlink:href="#DejaVuSans-30"/>
       <use x="63.623047" xlink:href="#DejaVuSans-2e"/>
       <use x="95.410156" xlink:href="#DejaVuSans-36"/>
      </g>
     </g>
    </g>
    <g id="ytick_6">
     <g id="line2d_12">
      <g>
       <use style="stroke:#000000;stroke-width:0.8;" x="43.78125" xlink:href="#ma62dab1582" y="56.81589"/>
      </g>
     </g>
     <g id="text_13">
      <!-- 0.7 -->
      <defs>
       <path d="M 8.203125 72.90625 
L 55.078125 72.90625 
L 55.078125 68.703125 
L 28.609375 0 
L 18.3125 0 
L 43.21875 64.59375 
L 8.203125 64.59375 
z
" id="DejaVuSans-37"/>
      </defs>
      <g transform="translate(20.878125 60.615108)scale(0.1 -0.1)">
       <use xlink:href="#DejaVuSans-30"/>
       <use x="63.623047" xlink:href="#DejaVuSans-2e"/>
       <use x="95.410156" xlink:href="#DejaVuSans-37"/>
      </g>
     </g>
    </g>
    <g id="text_14">
     <!-- average maxQ -->
     <defs>
      <path d="M 34.28125 27.484375 
Q 23.390625 27.484375 19.1875 25 
Q 14.984375 22.515625 14.984375 16.5 
Q 14.984375 11.71875 18.140625 8.90625 
Q 21.296875 6.109375 26.703125 6.109375 
Q 34.1875 6.109375 38.703125 11.40625 
Q 43.21875 16.703125 43.21875 25.484375 
L 43.21875 27.484375 
z
M 52.203125 31.203125 
L 52.203125 0 
L 43.21875 0 
L 43.21875 8.296875 
Q 40.140625 3.328125 35.546875 0.953125 
Q 30.953125 -1.421875 24.3125 -1.421875 
Q 15.921875 -1.421875 10.953125 3.296875 
Q 6 8.015625 6 15.921875 
Q 6 25.140625 12.171875 29.828125 
Q 18.359375 34.515625 30.609375 34.515625 
L 43.21875 34.515625 
L 43.21875 35.40625 
Q 43.21875 41.609375 39.140625 45 
Q 35.0625 48.390625 27.6875 48.390625 
Q 23 48.390625 18.546875 47.265625 
Q 14.109375 46.140625 10.015625 43.890625 
L 10.015625 52.203125 
Q 14.9375 54.109375 19.578125 55.046875 
Q 24.21875 56 28.609375 56 
Q 40.484375 56 46.34375 49.84375 
Q 52.203125 43.703125 52.203125 31.203125 
z
" id="DejaVuSans-61"/>
      <path d="M 2.984375 54.6875 
L 12.5 54.6875 
L 29.59375 8.796875 
L 46.6875 54.6875 
L 56.203125 54.6875 
L 35.6875 0 
L 23.484375 0 
z
" id="DejaVuSans-76"/>
      <path d="M 41.109375 46.296875 
Q 39.59375 47.171875 37.8125 47.578125 
Q 36.03125 48 33.890625 48 
Q 26.265625 48 22.1875 43.046875 
Q 18.109375 38.09375 18.109375 28.8125 
L 18.109375 0 
L 9.078125 0 
L 9.078125 54.6875 
L 18.109375 54.6875 
L 18.109375 46.1875 
Q 20.953125 51.171875 25.484375 53.578125 
Q 30.03125 56 36.53125 56 
Q 37.453125 56 38.578125 55.875 
Q 39.703125 55.765625 41.0625 55.515625 
z
" id="DejaVuSans-72"/>
      <path d="M 45.40625 27.984375 
Q 45.40625 37.75 41.375 43.109375 
Q 37.359375 48.484375 30.078125 48.484375 
Q 22.859375 48.484375 18.828125 43.109375 
Q 14.796875 37.75 14.796875 27.984375 
Q 14.796875 18.265625 18.828125 12.890625 
Q 22.859375 7.515625 30.078125 7.515625 
Q 37.359375 7.515625 41.375 12.890625 
Q 45.40625 18.265625 45.40625 27.984375 
z
M 54.390625 6.78125 
Q 54.390625 -7.171875 48.1875 -13.984375 
Q 42 -20.796875 29.203125 -20.796875 
Q 24.46875 -20.796875 20.265625 -20.09375 
Q 16.0625 -19.390625 12.109375 -17.921875 
L 12.109375 -9.1875 
Q 16.0625 -11.328125 19.921875 -12.34375 
Q 23.78125 -13.375 27.78125 -13.375 
Q 36.625 -13.375 41.015625 -8.765625 
Q 45.40625 -4.15625 45.40625 5.171875 
L 45.40625 9.625 
Q 42.625 4.78125 38.28125 2.390625 
Q 33.9375 0 27.875 0 
Q 17.828125 0 11.671875 7.65625 
Q 5.515625 15.328125 5.515625 27.984375 
Q 5.515625 40.671875 11.671875 48.328125 
Q 17.828125 56 27.875 56 
Q 33.9375 56 38.28125 53.609375 
Q 42.625 51.21875 45.40625 46.390625 
L 45.40625 54.6875 
L 54.390625 54.6875 
z
" id="DejaVuSans-67"/>
      <path id="DejaVuSans-20"/>
      <path d="M 52 44.1875 
Q 55.375 50.25 60.0625 53.125 
Q 64.75 56 71.09375 56 
Q 79.640625 56 84.28125 50.015625 
Q 88.921875 44.046875 88.921875 33.015625 
L 88.921875 0 
L 79.890625 0 
L 79.890625 32.71875 
Q 79.890625 40.578125 77.09375 44.375 
Q 74.3125 48.1875 68.609375 48.1875 
Q 61.625 48.1875 57.5625 43.546875 
Q 53.515625 38.921875 53.515625 30.90625 
L 53.515625 0 
L 44.484375 0 
L 44.484375 32.71875 
Q 44.484375 40.625 41.703125 44.40625 
Q 38.921875 48.1875 33.109375 48.1875 
Q 26.21875 48.1875 22.15625 43.53125 
Q 18.109375 38.875 18.109375 30.90625 
L 18.109375 0 
L 9.078125 0 
L 9.078125 54.6875 
L 18.109375 54.6875 
L 18.109375 46.1875 
Q 21.1875 51.21875 25.484375 53.609375 
Q 29.78125 56 35.6875 56 
Q 41.65625 56 45.828125 52.96875 
Q 50 49.953125 52 44.1875 
z
" id="DejaVuSans-6d"/>
      <path d="M 54.890625 54.6875 
L 35.109375 28.078125 
L 55.90625 0 
L 45.3125 0 
L 29.390625 21.484375 
L 13.484375 0 
L 2.875 0 
L 24.125 28.609375 
L 4.6875 54.6875 
L 15.28125 54.6875 
L 29.78125 35.203125 
L 44.28125 54.6875 
z
" id="DejaVuSans-78"/>
      <path d="M 39.40625 66.21875 
Q 28.65625 66.21875 22.328125 58.203125 
Q 16.015625 50.203125 16.015625 36.375 
Q 16.015625 22.609375 22.328125 14.59375 
Q 28.65625 6.59375 39.40625 6.59375 
Q 50.140625 6.59375 56.421875 14.59375 
Q 62.703125 22.609375 62.703125 36.375 
Q 62.703125 50.203125 56.421875 58.203125 
Q 50.140625 66.21875 39.40625 66.21875 
z
M 53.21875 1.3125 
L 66.21875 -12.890625 
L 54.296875 -12.890625 
L 43.5 -1.21875 
Q 41.890625 -1.3125 41.03125 -1.359375 
Q 40.1875 -1.421875 39.40625 -1.421875 
Q 24.03125 -1.421875 14.8125 8.859375 
Q 5.609375 19.140625 5.609375 36.375 
Q 5.609375 53.65625 14.8125 63.9375 
Q 24.03125 74.21875 39.40625 74.21875 
Q 54.734375 74.21875 63.90625 63.9375 
Q 73.09375 53.65625 73.09375 36.375 
Q 73.09375 23.6875 67.984375 14.640625 
Q 62.890625 5.609375 53.21875 1.3125 
z
" id="DejaVuSans-51"/>
     </defs>
     <g transform="translate(14.798438 192.263187)rotate(-90)scale(0.1 -0.1)">
      <use xlink:href="#DejaVuSans-61"/>
      <use x="61.279297" xlink:href="#DejaVuSans-76"/>
      <use x="120.458984" xlink:href="#DejaVuSans-65"/>
      <use x="181.982422" xlink:href="#DejaVuSans-72"/>
      <use x="223.095703" xlink:href="#DejaVuSans-61"/>
      <use x="284.375" xlink:href="#DejaVuSans-67"/>
      <use x="347.851562" xlink:href="#DejaVuSans-65"/>
      <use x="409.375" xlink:href="#DejaVuSans-20"/>
      <use x="441.162109" xlink:href="#DejaVuSans-6d"/>
      <use x="538.574219" xlink:href="#DejaVuSans-61"/>
      <use x="599.853516" xlink:href="#DejaVuSans-78"/>
      <use x="659.033203" xlink:href="#DejaVuSans-51"/>
     </g>
    </g>
   </g>
   <g id="line2d_13">
    <path clip-path="url(#pe49d0e0007)" d="M 60.013977 254.086654 
L 60.338957 246.772609 
L 60.663936 254.666856 
L 60.988916 249.525 
L 61.313895 248.584943 
L 61.638875 256.209677 
L 61.963854 258.608894 
L 62.288834 243.961772 
L 62.613813 253.592008 
L 62.938793 257.509476 
L 63.263773 252.23931 
L 63.913732 261.346108 
L 64.238711 251.248048 
L 64.563691 251.118536 
L 64.88867 264.096484 
L 65.21365 265.950158 
L 65.538629 260.368966 
L 65.863609 264.307928 
L 66.188588 252.497727 
L 66.513568 255.49 
L 66.838547 255.086878 
L 67.163527 256.34759 
L 67.488506 244.189683 
L 67.813486 262.667691 
L 68.138465 248.219885 
L 68.788424 244.032382 
L 69.113404 254.972753 
L 69.438383 251.657952 
L 69.763363 241.395291 
L 70.088343 264.587953 
L 70.413322 248.046154 
L 70.738302 254.491506 
L 71.063281 250.349196 
L 71.388261 254.350425 
L 71.71324 260.000084 
L 72.03822 247.503428 
L 72.363199 259.567962 
L 72.688179 264.380706 
L 73.013158 257.846381 
L 73.338138 266.428177 
L 73.663117 255.099668 
L 73.988097 249.318102 
L 74.313076 263.222616 
L 74.963035 253.270325 
L 75.288015 251.670452 
L 75.612994 251.864538 
L 75.937974 260.576616 
L 76.262954 258.184434 
L 76.587933 252.453231 
L 76.912913 262.341609 
L 77.237892 247.762299 
L 77.562872 246.951364 
L 77.887851 259.811639 
L 78.212831 261.96828 
L 78.53781 246.512042 
L 78.86279 257.253433 
L 79.187769 258.9094 
L 79.512749 253.503013 
L 79.837728 253.710564 
L 80.162708 260.892578 
L 80.487687 253.558395 
L 80.812667 254.763555 
L 81.137646 250.273311 
L 81.462626 264.875841 
L 82.112585 260.331472 
L 82.437564 261.600384 
L 82.762544 242.952168 
L 83.087524 244.565806 
L 83.412503 249.649662 
L 83.737483 252.805963 
L 84.062462 244.671438 
L 84.387442 258.700061 
L 84.712421 264.898396 
L 85.037401 253.349651 
L 85.36238 259.59117 
L 85.68736 258.446444 
L 86.012339 247.522405 
L 86.337319 246.863612 
L 86.662298 250.266142 
L 86.987278 259.888965 
L 87.312257 253.48281 
L 87.637237 260.12712 
L 87.962216 260.809451 
L 88.287196 247.500958 
L 88.612175 240.450248 
L 88.937155 253.569183 
L 89.262135 256.737939 
L 89.587114 255.303943 
L 89.912094 251.819611 
L 90.237073 261.774311 
L 90.562053 252.097792 
L 90.887032 258.1747 
L 91.212012 259.014978 
L 91.536991 257.211297 
L 91.861971 246.814572 
L 92.18695 264.819818 
L 92.51193 253.431653 
L 92.836909 246.939323 
L 93.486868 253.029493 
L 93.811848 263.747397 
L 94.136827 254.642319 
L 94.461807 260.532532 
L 94.786786 248.010307 
L 95.111766 272.494809 
L 95.436745 260.48592 
L 95.761725 253.625567 
L 96.411684 267.927658 
L 96.736664 265.540264 
L 97.061643 266.041135 
L 97.711602 263.939647 
L 98.036582 263.837007 
L 98.361561 274.354315 
L 98.686541 273.523614 
L 99.01152 274.170987 
L 99.3365 270.399304 
L 99.661479 262.315623 
L 99.986459 264.883966 
L 100.311438 270.346211 
L 100.636418 259.147807 
L 100.961397 270.085896 
L 101.286377 273.421924 
L 101.611356 270.058411 
L 101.936336 260.979515 
L 102.261316 264.106335 
L 102.586295 261.253833 
L 102.911275 263.165359 
L 103.236254 262.34033 
L 103.561234 269.56214 
L 103.886213 262.108331 
L 104.211193 270.800335 
L 104.536172 274.233413 
L 104.861152 269.742923 
L 105.186131 274.292824 
L 105.511111 268.498683 
L 105.83609 265.409202 
L 106.16107 276.334125 
L 106.486049 273.178343 
L 106.811029 272.494732 
L 107.136008 269.793051 
L 107.460988 268.849361 
L 107.785967 269.701475 
L 108.110947 267.267131 
L 108.435926 258.769893 
L 109.410865 269.635816 
L 109.735845 265.100006 
L 110.060824 266.934995 
L 110.385804 270.058688 
L 110.710783 270.758713 
L 111.035763 263.716141 
L 111.360742 264.130371 
L 111.685722 264.022207 
L 112.010701 265.899818 
L 112.335681 265.984571 
L 112.66066 266.314448 
L 112.98564 269.22451 
L 113.635599 262.194742 
L 113.960578 268.156251 
L 114.285558 265.931618 
L 114.610537 266.597811 
L 114.935517 266.588578 
L 115.585476 261.545436 
L 115.910456 266.194151 
L 116.235435 264.707327 
L 116.560415 260.666481 
L 117.210374 264.036797 
L 117.535353 261.315991 
L 117.860333 262.950044 
L 118.185312 260.50849 
L 118.510292 258.95329 
L 118.835271 264.545418 
L 119.160251 262.533386 
L 119.48523 255.871498 
L 119.81021 260.008674 
L 120.135189 258.501218 
L 120.460169 260.210098 
L 120.785148 260.738545 
L 121.110128 260.285027 
L 121.435107 257.553178 
L 121.760087 261.763634 
L 122.085067 253.509629 
L 122.410046 252.351957 
L 122.735026 259.646565 
L 123.060005 257.177069 
L 123.384985 259.460316 
L 123.709964 254.479694 
L 124.034944 259.073165 
L 124.359923 258.312596 
L 124.684903 259.470246 
L 125.009882 259.166472 
L 125.334862 250.636608 
L 125.659841 245.884799 
L 125.984821 251.042374 
L 126.3098 253.459339 
L 126.63478 251.519032 
L 126.959759 248.88868 
L 127.284739 250.239211 
L 127.609718 248.232105 
L 127.934698 246.97893 
L 128.259678 251.426599 
L 128.584657 253.1683 
L 128.909637 251.37935 
L 129.234616 244.969581 
L 129.559596 245.939303 
L 129.884575 248.625986 
L 130.209555 241.347189 
L 130.534534 251.377506 
L 130.859514 255.359023 
L 131.184493 254.216723 
L 131.834452 240.164378 
L 132.159432 244.689288 
L 132.484411 245.762253 
L 132.809391 242.017658 
L 133.45935 248.46173 
L 133.784329 242.029065 
L 134.109309 238.166738 
L 134.434288 238.104515 
L 134.759268 235.2669 
L 135.409227 241.724816 
L 135.734207 237.711531 
L 136.059186 237.623187 
L 136.384166 238.899505 
L 136.709145 233.841563 
L 137.034125 237.240235 
L 137.359104 231.263955 
L 137.684084 234.136169 
L 138.009063 233.493041 
L 138.334043 234.301999 
L 138.659022 233.91717 
L 138.984002 231.986487 
L 139.308981 230.778602 
L 139.633961 232.778263 
L 139.95894 228.665654 
L 140.28392 232.048075 
L 140.608899 229.369458 
L 140.933879 228.256666 
L 141.258859 222.534726 
L 141.583838 230.402615 
L 141.908818 225.981311 
L 142.233797 223.199074 
L 142.558777 227.571642 
L 142.883756 227.134522 
L 143.208736 229.442725 
L 143.533715 225.806071 
L 143.858695 225.384001 
L 144.183674 221.709679 
L 144.508654 226.943312 
L 144.833633 220.0163 
L 145.158613 222.536221 
L 145.483592 221.196231 
L 145.808572 224.940716 
L 146.133551 224.362115 
L 146.458531 216.582789 
L 147.10849 224.957227 
L 147.433469 217.608417 
L 147.758449 214.774864 
L 148.083429 223.368464 
L 148.408408 215.501183 
L 148.733388 211.819451 
L 149.058367 221.508758 
L 149.383347 213.425779 
L 149.708326 210.772023 
L 150.033306 206.591971 
L 150.358285 211.36282 
L 150.683265 213.821721 
L 151.008244 209.268789 
L 151.658203 214.649629 
L 151.983183 209.299949 
L 152.308162 206.530273 
L 152.633142 208.904438 
L 152.958121 205.6273 
L 153.283101 207.956483 
L 153.60808 206.9473 
L 153.93306 203.83374 
L 154.25804 207.339176 
L 154.583019 202.213994 
L 154.907999 210.162659 
L 155.232978 207.465078 
L 155.557958 202.378325 
L 155.882937 203.542991 
L 156.207917 200.545339 
L 156.532896 200.786341 
L 156.857876 202.048704 
L 157.182855 197.515159 
L 157.507835 196.966799 
L 157.832814 198.944745 
L 158.157794 197.171137 
L 158.482773 197.078321 
L 158.807753 192.792067 
L 159.132732 197.158082 
L 159.457712 195.143121 
L 160.107671 202.572299 
L 160.43265 192.233472 
L 160.75763 194.684792 
L 161.08261 194.036546 
L 161.407589 191.770939 
L 161.732569 191.508829 
L 162.057548 190.528479 
L 162.382528 193.570014 
L 162.707507 192.835014 
L 163.032487 190.440141 
L 163.357466 192.390441 
L 163.682446 184.822677 
L 164.007425 196.193369 
L 164.332405 181.364098 
L 164.982364 190.2447 
L 165.632323 178.33872 
L 165.957302 186.891131 
L 166.282282 185.793753 
L 166.607261 189.5964 
L 166.932241 191.812468 
L 167.257221 192.622585 
L 167.5822 183.444834 
L 167.90718 182.158741 
L 168.232159 182.247926 
L 168.557139 192.233917 
L 168.882118 190.663349 
L 169.207098 183.724163 
L 169.532077 185.300762 
L 169.857057 184.916718 
L 170.182036 183.672051 
L 170.507016 178.88455 
L 170.831995 176.540594 
L 171.156975 182.769668 
L 171.481954 179.381394 
L 171.806934 180.268479 
L 172.131913 179.195338 
L 172.456893 177.004397 
L 172.781872 173.827116 
L 173.106852 173.347017 
L 173.431831 177.189883 
L 173.756811 176.567401 
L 174.081791 177.92129 
L 174.40677 169.49302 
L 174.73175 180.857969 
L 175.381709 171.66803 
L 175.706688 173.054271 
L 176.031668 177.351058 
L 176.356647 169.653433 
L 177.006606 174.381778 
L 177.331586 168.463965 
L 177.656565 170.889316 
L 177.981545 176.730891 
L 178.306524 167.874636 
L 178.631504 174.168467 
L 178.956483 169.343135 
L 179.281463 171.996846 
L 179.606442 178.322795 
L 179.931422 170.797179 
L 180.256402 166.556806 
L 180.581381 172.071966 
L 180.906361 172.127261 
L 181.23134 170.795782 
L 181.55632 163.261061 
L 181.881299 161.184719 
L 182.206279 164.024312 
L 182.531258 164.691428 
L 182.856238 164.975898 
L 183.181217 157.0377 
L 183.506197 164.688819 
L 183.831176 166.606042 
L 184.156156 156.728794 
L 184.481135 162.84621 
L 184.806115 166.454908 
L 185.131094 161.620487 
L 185.456074 161.902236 
L 185.781053 156.577011 
L 186.431012 164.262065 
L 186.755992 162.686585 
L 187.080972 158.081781 
L 187.405951 158.955974 
L 187.730931 168.721749 
L 188.05591 147.629112 
L 188.38089 166.46288 
L 188.705869 159.895688 
L 189.030849 165.692465 
L 189.355828 154.278934 
L 189.680808 164.25684 
L 190.005787 154.119721 
L 190.330767 155.145145 
L 190.655746 155.459908 
L 190.980726 164.160152 
L 191.305705 151.702893 
L 191.630685 148.733624 
L 191.955664 154.184055 
L 192.280644 149.182264 
L 192.605623 150.322753 
L 192.930603 156.300036 
L 193.255583 150.711191 
L 193.580562 148.950825 
L 193.905542 154.096113 
L 194.555501 148.33964 
L 194.88048 148.937671 
L 195.20546 151.249285 
L 195.530439 149.980885 
L 196.180398 144.482558 
L 196.505378 149.781425 
L 196.830357 142.113068 
L 197.155337 149.834259 
L 197.480316 143.585506 
L 197.805296 152.917548 
L 198.130275 150.085533 
L 198.455255 142.631581 
L 198.780234 132.586611 
L 199.105214 142.499131 
L 199.430193 144.645685 
L 199.755173 151.033043 
L 200.080153 155.151182 
L 200.405132 137.687789 
L 200.730112 148.001145 
L 201.055091 138.816329 
L 201.380071 149.57603 
L 201.70505 135.899285 
L 202.03003 139.635064 
L 202.355009 137.908141 
L 202.679989 141.703027 
L 203.004968 140.845311 
L 203.329948 138.781307 
L 203.654927 134.33466 
L 204.304886 147.259549 
L 204.629866 133.774319 
L 204.954845 138.3108 
L 205.279825 138.783853 
L 205.604804 134.058953 
L 205.929784 143.29499 
L 206.579743 132.651885 
L 206.904723 136.121622 
L 207.229702 125.186707 
L 207.554682 152.583789 
L 207.879661 133.50754 
L 208.204641 130.592006 
L 208.52962 136.15654 
L 208.8546 135.154577 
L 209.179579 143.376832 
L 209.504559 136.857543 
L 209.829538 144.045697 
L 210.154518 134.132723 
L 210.479497 137.29566 
L 210.804477 133.106704 
L 211.129456 130.591447 
L 211.454436 131.478085 
L 211.779415 131.904751 
L 212.104395 124.457189 
L 212.429374 135.97869 
L 212.754354 134.894947 
L 213.079334 129.277953 
L 213.404313 130.059228 
L 213.729293 128.392458 
L 214.054272 132.497685 
L 214.379252 139.344222 
L 214.704231 128.552997 
L 215.029211 124.081049 
L 215.35419 133.280275 
L 215.67917 136.268799 
L 216.004149 133.115521 
L 216.329129 127.703908 
L 216.654108 133.745826 
L 216.979088 126.835038 
L 217.304067 131.688303 
L 217.629047 129.751866 
L 217.954026 124.610984 
L 218.279006 123.979747 
L 218.603985 135.816004 
L 218.928965 124.048559 
L 219.253945 137.588637 
L 219.578924 119.3973 
L 219.903904 127.64736 
L 220.228883 128.835672 
L 220.553863 115.481273 
L 220.878842 111.468848 
L 221.203822 132.529863 
L 221.528801 136.254501 
L 221.853781 120.874697 
L 222.17876 123.367526 
L 222.50374 121.428546 
L 222.828719 124.567179 
L 223.153699 120.024338 
L 223.478678 124.949089 
L 223.803658 126.889314 
L 224.128637 118.047324 
L 224.453617 123.784655 
L 224.778596 127.511809 
L 225.103576 118.085556 
L 225.428555 129.972474 
L 226.403494 115.601833 
L 226.728474 119.326829 
L 227.053453 119.406616 
L 227.378433 120.720719 
L 227.703412 115.388632 
L 228.028392 123.831054 
L 228.353371 120.94931 
L 228.678351 125.267264 
L 229.00333 119.639986 
L 229.32831 128.260656 
L 229.653289 114.324844 
L 229.978269 129.852895 
L 230.303248 125.881088 
L 230.628228 118.112469 
L 231.278187 113.508539 
L 231.603166 111.714574 
L 231.928146 123.046485 
L 232.253126 121.568075 
L 232.578105 115.768584 
L 232.903085 124.232084 
L 233.228064 104.895442 
L 233.553044 120.955897 
L 233.878023 125.416961 
L 234.203003 110.394644 
L 234.527982 113.195839 
L 234.852962 108.269897 
L 235.177941 106.521026 
L 235.502921 117.787084 
L 235.8279 120.247495 
L 236.15288 108.318154 
L 236.477859 117.819728 
L 236.802839 104.518544 
L 237.127818 110.749034 
L 237.452798 112.752568 
L 237.777777 106.998011 
L 238.102757 113.764664 
L 238.752716 111.33255 
L 239.077696 104.810565 
L 239.402675 110.004673 
L 239.727655 105.52027 
L 240.052634 116.411416 
L 240.377614 118.130133 
L 240.702593 113.172909 
L 241.027573 110.911392 
L 241.352552 106.354528 
L 241.677532 105.589659 
L 242.002511 106.974479 
L 242.327491 105.807857 
L 242.65247 106.461225 
L 242.97745 107.636294 
L 243.302429 112.923005 
L 243.627409 113.609686 
L 243.952388 105.551809 
L 244.277368 117.570489 
L 244.927327 105.089732 
L 245.252307 90.031107 
L 245.577286 105.786294 
L 245.902266 109.641005 
L 246.227245 99.825789 
L 246.552225 100.780416 
L 246.877204 108.489848 
L 247.202184 102.176313 
L 247.852143 107.353321 
L 248.502102 100.843513 
L 248.827081 103.300234 
L 249.152061 98.478769 
L 249.47704 98.423201 
L 249.80202 107.465551 
L 250.126999 109.519476 
L 250.451979 109.736151 
L 251.101938 91.647272 
L 251.426917 106.512556 
L 251.751897 95.855676 
L 252.076877 97.383002 
L 252.401856 110.465669 
L 253.051815 95.776798 
L 253.376795 105.856185 
L 254.026754 93.97321 
L 254.351733 103.769661 
L 254.676713 101.339241 
L 255.001692 84.955992 
L 255.326672 108.010606 
L 255.651651 92.591316 
L 255.976631 97.387246 
L 256.30161 105.101589 
L 256.62659 99.953183 
L 256.951569 98.844814 
L 257.276549 96.713767 
L 257.601528 91.478204 
L 257.926508 101.639112 
L 258.251488 94.678571 
L 258.576467 92.936166 
L 258.901447 101.165771 
L 259.226426 101.680707 
L 259.551406 99.710509 
L 259.876385 98.518716 
L 260.201365 103.764742 
L 260.526344 98.697854 
L 260.851324 96.947757 
L 261.176303 90.699231 
L 261.501283 79.360844 
L 261.826262 97.227651 
L 262.151242 95.649904 
L 262.476221 98.251366 
L 262.801201 89.809732 
L 263.45116 99.955477 
L 263.776139 94.396313 
L 264.101119 83.930481 
L 264.426098 97.364589 
L 264.751078 85.31616 
L 265.076058 90.015895 
L 265.401037 86.356158 
L 265.726017 90.746956 
L 266.050996 84.217797 
L 266.375976 84.382213 
L 266.700955 93.906878 
L 267.025935 97.121599 
L 267.675894 86.447717 
L 268.000873 87.476928 
L 268.325853 95.818372 
L 268.650832 84.824723 
L 268.975812 90.623036 
L 269.300791 91.400745 
L 269.625771 83.469079 
L 269.95075 84.997861 
L 270.27573 81.330389 
L 270.600709 88.507569 
L 271.250669 97.618935 
L 271.575648 87.883588 
L 271.900628 88.509453 
L 272.225607 87.979912 
L 272.550587 80.69933 
L 272.875566 97.648038 
L 273.200546 86.554288 
L 273.525525 84.361844 
L 273.850505 93.176295 
L 274.175484 89.357276 
L 274.500464 95.834883 
L 274.825443 80.397161 
L 275.150423 88.431267 
L 275.475402 90.635927 
L 275.800382 90.299141 
L 276.125361 83.254153 
L 276.450341 86.362519 
L 276.77532 79.314012 
L 277.1003 87.125505 
L 277.425279 83.932486 
L 277.750259 86.069423 
L 278.075239 80.004171 
L 278.400218 76.126882 
L 278.725198 81.609996 
L 279.050177 79.479961 
L 279.700136 87.27504 
L 280.025116 83.552439 
L 280.350095 88.841347 
L 281.000054 86.0697 
L 281.325034 87.674535 
L 281.650013 79.521439 
L 281.974993 89.409215 
L 282.299972 86.124926 
L 282.624952 74.339639 
L 282.949931 80.881744 
L 283.274911 84.684447 
L 283.59989 91.411873 
L 283.92487 78.685296 
L 284.574829 84.701155 
L 284.899809 90.770943 
L 285.224788 84.703248 
L 285.549768 80.965401 
L 285.874747 89.875834 
L 286.199727 79.39889 
L 286.524706 86.695909 
L 286.849686 87.743235 
L 287.174665 76.112023 
L 287.499645 83.933849 
L 287.824624 86.90386 
L 288.149604 79.559427 
L 288.474583 85.362782 
L 288.799563 83.638906 
L 289.124542 83.066098 
L 289.449522 84.971502 
L 289.774501 62.488166 
L 290.42446 85.284603 
L 290.74944 69.550643 
L 291.07442 87.455326 
L 291.399399 81.674969 
L 291.724379 73.650905 
L 292.049358 75.218652 
L 292.374338 84.122117 
L 292.699317 78.732462 
L 293.024297 76.576601 
L 293.349276 80.408392 
L 293.674256 81.605593 
L 293.999235 92.861543 
L 294.324215 77.791417 
L 294.649194 79.751934 
L 294.974174 82.989784 
L 295.624133 76.654818 
L 295.949112 71.326355 
L 296.274092 74.876316 
L 296.599071 83.889067 
L 296.924051 85.985619 
L 297.249031 80.412532 
L 297.57401 77.684933 
L 297.89899 86.492807 
L 298.223969 76.867988 
L 298.548949 77.177389 
L 298.873928 74.070531 
L 299.198908 83.745411 
L 299.848867 74.367394 
L 300.173846 71.753773 
L 300.498826 77.374883 
L 300.823805 74.678213 
L 301.148785 78.35531 
L 301.473764 74.578455 
L 301.798744 82.252775 
L 302.123723 68.836186 
L 302.448703 67.312984 
L 302.773682 78.844993 
L 303.098662 63.69029 
L 303.423641 73.100148 
L 303.748621 76.933431 
L 304.39858 61.168742 
L 305.048539 74.969971 
L 305.373519 75.717717 
L 305.698498 72.795825 
L 306.023478 71.423006 
L 306.348457 69.052158 
L 306.673437 82.057125 
L 306.998416 70.93753 
L 307.323396 73.106986 
L 307.648375 60.977144 
L 307.973355 58.055247 
L 308.298334 69.861087 
L 308.623314 65.581834 
L 308.948293 75.449952 
L 309.273273 72.029862 
L 309.598252 75.172921 
L 310.248212 64.287289 
L 310.573191 71.730443 
L 310.898171 74.186463 
L 311.22315 74.757812 
L 311.54813 61.382044 
L 311.873109 66.453057 
L 312.198089 54.710666 
L 312.848048 73.472198 
L 313.173027 66.643499 
L 313.498007 69.017265 
L 313.822986 68.39638 
L 314.147966 66.735409 
L 314.472945 67.901793 
L 314.797925 65.330602 
L 315.122904 64.629856 
L 315.447884 78.777243 
L 315.772863 69.42159 
L 316.097843 73.571258 
L 316.422822 84.051818 
L 316.747802 72.019903 
L 317.072782 74.754286 
L 317.397761 70.282445 
L 317.722741 63.353217 
L 318.04772 66.275039 
L 318.3727 72.020392 
L 318.697679 70.254633 
L 319.022659 61.833845 
L 319.347638 59.628187 
L 319.672618 67.245351 
L 319.997597 67.307475 
L 320.322577 52.973484 
L 320.647556 67.454419 
L 320.972536 57.555421 
L 321.297515 67.002637 
L 321.622495 59.860644 
L 322.272454 66.068509 
L 322.597433 65.723332 
L 322.922413 63.884081 
L 323.247393 71.287999 
L 323.572372 69.735604 
L 323.897352 63.889477 
L 324.222331 64.100985 
L 324.547311 58.284977 
L 324.87229 70.592072 
L 325.19727 71.108002 
L 325.522249 71.068651 
L 325.847229 64.228889 
L 326.172208 63.821418 
L 326.497188 68.267584 
L 326.822167 68.905388 
L 327.147147 57.258193 
L 327.472126 62.692141 
L 327.797106 62.754407 
L 328.122085 60.100645 
L 328.447065 64.085368 
L 329.097024 59.543248 
L 329.422003 63.012542 
L 329.746983 71.161763 
L 330.071963 65.609025 
L 330.396942 66.939359 
L 330.721922 65.35579 
L 331.046901 59.676635 
L 331.371881 58.786023 
L 331.69686 71.393055 
L 332.02184 63.834873 
L 332.346819 65.286962 
L 332.671799 61.818646 
L 332.996778 70.132386 
L 333.321758 60.176466 
L 333.646737 53.763813 
L 333.971717 64.299664 
L 334.296696 62.646532 
L 334.621676 66.630526 
L 334.946655 59.185428 
L 335.271635 61.423502 
L 335.596614 60.969791 
L 336.246574 58.966373 
L 336.571553 61.465404 
L 336.896533 59.392356 
L 337.221512 73.586752 
L 337.546492 58.292258 
L 337.871471 63.441055 
L 338.196451 57.651276 
L 338.52143 64.143679 
L 338.84641 54.962782 
L 339.171389 62.779243 
L 339.496369 61.704396 
L 339.821348 54.087897 
L 340.146328 55.992102 
L 340.471307 60.085443 
L 340.796287 52.937998 
L 341.121266 66.610811 
L 341.446246 63.830443 
L 341.771225 59.291443 
L 342.096205 62.024111 
L 342.421184 58.908188 
L 342.746164 50.516378 
L 343.071144 60.539232 
L 343.396123 54.07174 
L 343.721103 60.37244 
L 344.046082 59.768869 
L 344.371062 52.29461 
L 344.696041 68.519123 
L 345.346 49.922247 
L 345.67098 53.183595 
L 345.995959 59.661286 
L 346.320939 54.324864 
L 346.645918 54.406804 
L 346.970898 49.979655 
L 347.620857 64.367998 
L 347.945836 53.87306 
L 348.595795 47.417555 
L 349.245755 64.021993 
L 349.895714 51.020876 
L 350.220693 48.920562 
L 350.545673 60.542347 
L 350.870652 61.973767 
L 351.195632 52.305732 
L 351.520611 50.955675 
L 351.845591 48.673573 
L 352.17057 49.936674 
L 352.49555 58.054868 
L 352.820529 56.866161 
L 353.145509 62.392971 
L 353.470488 51.222081 
L 353.795468 54.605875 
L 354.120447 60.641028 
L 354.445427 57.22915 
L 354.770406 51.118409 
L 355.095386 48.082988 
L 355.420365 42.92359 
L 355.745345 49.480104 
L 356.070325 53.784441 
L 356.395304 53.667581 
L 356.720284 59.778905 
L 357.045263 56.684684 
L 357.370243 59.829297 
L 357.695222 55.120566 
L 358.020202 58.809527 
L 358.345181 57.263481 
L 358.670161 54.820604 
L 358.99514 61.225821 
L 359.32012 55.367225 
L 359.645099 53.618342 
L 359.970079 57.701392 
L 360.295058 59.456237 
L 360.945017 34.414125 
L 361.269997 59.016277 
L 361.594976 57.627325 
L 361.919956 50.912302 
L 362.569915 59.441308 
L 362.894895 58.230635 
L 363.219874 55.471421 
L 363.544854 55.794332 
L 363.869833 56.963836 
L 364.194813 47.48287 
L 364.844772 59.627571 
L 365.169751 39.634134 
L 365.81971 58.695065 
L 366.14469 46.984685 
L 366.469669 45.585584 
L 366.794649 49.240376 
L 367.119628 57.544668 
L 367.444608 58.359164 
L 367.769587 54.739476 
L 368.419546 50.254205 
L 368.744526 53.421764 
L 369.069506 47.71635 
L 369.394485 52.55891 
L 369.719465 55.660115 
L 370.044444 60.90409 
L 370.369424 54.777126 
L 371.019383 53.17997 
L 371.344362 54.004367 
L 371.669342 54.223812 
L 371.994321 49.832526 
L 372.319301 49.261124 
L 372.64428 41.885051 
L 372.96926 57.460009 
L 373.294239 45.202515 
L 373.619219 46.403519 
L 373.944198 51.049311 
L 374.269178 51.104322 
L 374.594157 52.556264 
L 374.919137 44.617824 
L 375.244117 48.249222 
L 375.569096 40.334972 
L 375.894076 48.982038 
L 376.219055 48.826143 
L 376.544035 49.890803 
L 376.869014 39.616326 
L 377.193994 42.639467 
L 377.518973 55.12756 
L 377.843953 56.510757 
L 378.168932 49.09762 
L 378.493912 61.26026 
L 379.143871 43.486114 
L 379.46885 48.491685 
L 379.79383 46.701792 
L 380.118809 41.96839 
L 380.443789 42.224183 
L 380.768768 48.255931 
L 381.093748 51.57128 
L 381.418727 49.264207 
L 381.743707 44.997644 
L 382.068687 49.593872 
L 382.393666 47.609259 
L 383.043625 59.668054 
L 383.368605 39.213268 
L 383.693584 46.253209 
L 384.018564 48.362383 
L 384.343543 41.492037 
L 384.668523 51.192651 
L 384.668523 51.192651 
" style="fill:none;stroke:#1f77b4;stroke-linecap:square;stroke-width:0.5;"/>
   </g>
   <g id="patch_3">
    <path d="M 43.78125 288.430125 
L 43.78125 22.318125 
" style="fill:none;stroke:#000000;stroke-linecap:square;stroke-linejoin:miter;stroke-width:0.8;"/>
   </g>
   <g id="patch_4">
    <path d="M 400.90125 288.430125 
L 400.90125 22.318125 
" style="fill:none;stroke:#000000;stroke-linecap:square;stroke-linejoin:miter;stroke-width:0.8;"/>
   </g>
   <g id="patch_5">
    <path d="M 43.78125 288.430125 
L 400.90125 288.430125 
" style="fill:none;stroke:#000000;stroke-linecap:square;stroke-linejoin:miter;stroke-width:0.8;"/>
   </g>
   <g id="patch_6">
    <path d="M 43.78125 22.318125 
L 400.90125 22.318125 
" style="fill:none;stroke:#000000;stroke-linecap:square;stroke-linejoin:miter;stroke-width:0.8;"/>
   </g>
   <g id="text_15">
    <!-- Average maxQ per episode, joint 3 -->
    <defs>
     <path d="M 34.1875 63.1875 
L 20.796875 26.90625 
L 47.609375 26.90625 
z
M 28.609375 72.90625 
L 39.796875 72.90625 
L 67.578125 0 
L 57.328125 0 
L 50.6875 18.703125 
L 17.828125 18.703125 
L 11.1875 0 
L 0.78125 0 
z
" id="DejaVuSans-41"/>
     <path d="M 11.71875 12.40625 
L 22.015625 12.40625 
L 22.015625 4 
L 14.015625 -11.625 
L 7.71875 -11.625 
L 11.71875 4 
z
" id="DejaVuSans-2c"/>
     <path d="M 9.421875 54.6875 
L 18.40625 54.6875 
L 18.40625 -0.984375 
Q 18.40625 -11.421875 14.421875 -16.109375 
Q 10.453125 -20.796875 1.609375 -20.796875 
L -1.8125 -20.796875 
L -1.8125 -13.1875 
L 0.59375 -13.1875 
Q 5.71875 -13.1875 7.5625 -10.8125 
Q 9.421875 -8.453125 9.421875 -0.984375 
z
M 9.421875 75.984375 
L 18.40625 75.984375 
L 18.40625 64.59375 
L 9.421875 64.59375 
z
" id="DejaVuSans-6a"/>
     <path d="M 54.890625 33.015625 
L 54.890625 0 
L 45.90625 0 
L 45.90625 32.71875 
Q 45.90625 40.484375 42.875 44.328125 
Q 39.84375 48.1875 33.796875 48.1875 
Q 26.515625 48.1875 22.3125 43.546875 
Q 18.109375 38.921875 18.109375 30.90625 
L 18.109375 0 
L 9.078125 0 
L 9.078125 54.6875 
L 18.109375 54.6875 
L 18.109375 46.1875 
Q 21.34375 51.125 25.703125 53.5625 
Q 30.078125 56 35.796875 56 
Q 45.21875 56 50.046875 50.171875 
Q 54.890625 44.34375 54.890625 33.015625 
z
" id="DejaVuSans-6e"/>
     <path d="M 18.3125 70.21875 
L 18.3125 54.6875 
L 36.8125 54.6875 
L 36.8125 47.703125 
L 18.3125 47.703125 
L 18.3125 18.015625 
Q 18.3125 11.328125 20.140625 9.421875 
Q 21.96875 7.515625 27.59375 7.515625 
L 36.8125 7.515625 
L 36.8125 0 
L 27.59375 0 
Q 17.1875 0 13.234375 3.875 
Q 9.28125 7.765625 9.28125 18.015625 
L 9.28125 47.703125 
L 2.6875 47.703125 
L 2.6875 54.6875 
L 9.28125 54.6875 
L 9.28125 70.21875 
z
" id="DejaVuSans-74"/>
    </defs>
    <g transform="translate(117.706875 16.318125)scale(0.12 -0.12)">
     <use xlink:href="#DejaVuSans-41"/>
     <use x="68.330078" xlink:href="#DejaVuSans-76"/>
     <use x="127.509766" xlink:href="#DejaVuSans-65"/>
     <use x="189.033203" xlink:href="#DejaVuSans-72"/>
     <use x="230.146484" xlink:href="#DejaVuSans-61"/>
     <use x="291.425781" xlink:href="#DejaVuSans-67"/>
     <use x="354.902344" xlink:href="#DejaVuSans-65"/>
     <use x="416.425781" xlink:href="#DejaVuSans-20"/>
     <use x="448.212891" xlink:href="#DejaVuSans-6d"/>
     <use x="545.625" xlink:href="#DejaVuSans-61"/>
     <use x="606.904297" xlink:href="#DejaVuSans-78"/>
     <use x="666.083984" xlink:href="#DejaVuSans-51"/>
     <use x="744.794922" xlink:href="#DejaVuSans-20"/>
     <use x="776.582031" xlink:href="#DejaVuSans-70"/>
     <use x="840.058594" xlink:href="#DejaVuSans-65"/>
     <use x="901.582031" xlink:href="#DejaVuSans-72"/>
     <use x="942.695312" xlink:href="#DejaVuSans-20"/>
     <use x="974.482422" xlink:href="#DejaVuSans-65"/>
     <use x="1036.005859" xlink:href="#DejaVuSans-70"/>
     <use x="1099.482422" xlink:href="#DejaVuSans-69"/>
     <use x="1127.265625" xlink:href="#DejaVuSans-73"/>
     <use x="1179.365234" xlink:href="#DejaVuSans-6f"/>
     <use x="1240.546875" xlink:href="#DejaVuSans-64"/>
     <use x="1304.023438" xlink:href="#DejaVuSans-65"/>
     <use x="1365.546875" xlink:href="#DejaVuSans-2c"/>
     <use x="1397.333984" xlink:href="#DejaVuSans-20"/>
     <use x="1429.121094" xlink:href="#DejaVuSans-6a"/>
     <use x="1456.904297" xlink:href="#DejaVuSans-6f"/>
     <use x="1518.085938" xlink:href="#DejaVuSans-69"/>
     <use x="1545.869141" xlink:href="#DejaVuSans-6e"/>
     <use x="1609.248047" xlink:href="#DejaVuSans-74"/>
     <use x="1648.457031" xlink:href="#DejaVuSans-20"/>
     <use x="1680.244141" xlink:href="#DejaVuSans-33"/>
    </g>
   </g>
  </g>
 </g>
 <defs>
  <clipPath id="pe49d0e0007">
   <rect height="266.112" width="357.12" x="43.78125" y="22.318125"/>
  </clipPath>
 </defs>
</svg>
