<?xml version="1.0" encoding="utf-8" standalone="no"?>
<!DOCTYPE svg PUBLIC "-//W3C//DTD SVG 1.1//EN"
  "http://www.w3.org/Graphics/SVG/1.1/DTD/svg11.dtd">
<!-- Created with matplotlib (http://matplotlib.org/) -->
<svg height="408pt" version="1.1" viewBox="0 0 504 408" width="504pt" xmlns="http://www.w3.org/2000/svg" xmlns:xlink="http://www.w3.org/1999/xlink">
 <defs>
  <style type="text/css">
*{stroke-linecap:butt;stroke-linejoin:round;stroke-miterlimit:100000;}
  </style>
 </defs>
 <g id="figure_1">
  <g id="patch_1">
   <path d="M 0 408.16925 
L 504.31875 408.16925 
L 504.31875 0 
L 0 0 
z
" style="fill:#ffffff;"/>
  </g>
  <g id="axes_1">
   <g id="patch_2">
    <path d="M 35.44875 368.74175 
L 481.84875 368.74175 
L 481.84875 23.14175 
L 35.44875 23.14175 
z
" style="fill:#ffffff;"/>
   </g>
   <g id="line2d_1">
    <path clip-path="url(#p8220800f03)" d="M 35.69675 352.758261 
L 35.94475 330.458469 
L 36.19275 362.274744 
L 36.44075 353.97631 
L 36.68875 317.886086 
L 36.93675 320.680825 
L 37.18475 348.393277 
L 37.43275 335.812466 
L 37.68075 332.04383 
L 37.92875 355.376215 
L 38.17675 343.687758 
L 38.42475 348.81826 
L 38.67275 344.760502 
L 38.92075 359.164393 
L 39.16875 332.864629 
L 39.91275 360.295381 
L 40.16075 328.540567 
L 40.40875 352.972983 
L 40.65675 354.586198 
L 41.15275 299.041035 
L 41.40075 345.644658 
L 41.64875 342.882956 
L 41.89675 337.368718 
L 42.14475 363.11277 
L 42.88875 302.393947 
L 43.13675 328.76913 
L 43.88075 347.23024 
L 44.12875 320.566603 
L 44.37675 345.591664 
L 44.62475 337.576021 
L 44.87275 336.211143 
L 45.12075 340.508358 
L 45.36875 348.835956 
L 45.61675 329.269189 
L 45.86475 295.748899 
L 46.36075 350.397535 
L 46.60875 348.515597 
L 47.10475 277.68525 
L 47.35275 348.27571 
L 47.60075 359.754781 
L 47.84875 332.222514 
L 48.09675 349.083545 
L 48.34475 349.440188 
L 48.59275 302.917899 
L 48.84075 342.646419 
L 49.08875 353.058176 
L 49.33675 345.002578 
L 49.58475 361.221476 
L 49.83275 356.96412 
L 50.08075 349.841107 
L 50.32875 349.543317 
L 50.57675 346.758554 
L 50.82475 332.857596 
L 51.07275 343.754145 
L 51.32075 312.259719 
L 51.56875 303.478314 
L 51.81675 323.881917 
L 52.06475 321.194645 
L 52.56075 350.440443 
L 52.80875 296.722685 
L 53.05675 352.444783 
L 53.30475 359.87761 
L 53.80075 331.189823 
L 54.04875 335.1129 
L 54.29675 324.042005 
L 54.54475 318.545697 
L 54.79275 345.967953 
L 55.04075 354.576858 
L 55.28875 334.912614 
L 55.53675 344.811751 
L 55.78475 347.993389 
L 56.03275 306.835824 
L 56.28075 356.847187 
L 56.77675 316.203287 
L 57.02475 316.325693 
L 57.27275 345.849568 
L 57.52075 340.060165 
L 57.76875 344.0348 
L 58.01675 353.251872 
L 58.26475 344.375133 
L 58.51275 300.27149 
L 58.76075 334.004336 
L 59.00875 348.994403 
L 59.25675 352.517856 
L 59.50475 338.31056 
L 59.75275 351.902534 
L 60.00075 338.568351 
L 60.24875 340.130254 
L 60.49675 357.368663 
L 60.74475 331.63531 
L 60.99275 352.707196 
L 61.24075 320.008552 
L 61.48875 333.446156 
L 61.73675 336.72677 
L 61.98475 307.489191 
L 62.48075 346.724218 
L 62.72875 330.271088 
L 62.97675 305.456633 
L 63.22475 352.868171 
L 63.72075 325.004211 
L 63.96875 341.027117 
L 64.21675 340.866327 
L 64.46475 355.910215 
L 64.71275 347.133174 
L 64.96075 342.404345 
L 65.20875 359.170279 
L 65.45675 344.723233 
L 65.70475 350.408603 
L 66.20075 329.373843 
L 66.44875 340.88196 
L 66.69675 339.828799 
L 66.94475 298.201176 
L 67.19275 349.920404 
L 67.44075 349.269833 
L 67.68875 352.708067 
L 67.93675 335.042175 
L 68.18475 332.233325 
L 68.43275 351.303788 
L 68.68075 336.431346 
L 68.92875 329.605153 
L 69.17675 326.824951 
L 69.42475 346.736962 
L 69.92075 315.001375 
L 70.16875 326.837815 
L 70.41675 327.469023 
L 70.66475 343.363983 
L 70.91275 344.302877 
L 71.16075 357.209148 
L 71.65675 338.872273 
L 71.90475 340.041582 
L 72.40075 312.000153 
L 72.64875 334.777185 
L 73.39275 354.88657 
L 73.64075 307.917806 
L 73.88875 338.051855 
L 74.13675 344.701148 
L 74.38475 283.473378 
L 74.63275 340.077276 
L 74.88075 335.55771 
L 75.12875 348.67427 
L 75.37675 313.129976 
L 75.87275 359.259019 
L 76.12075 327.181401 
L 76.61675 353.400902 
L 76.86475 344.703196 
L 77.11275 319.54964 
L 77.36075 320.438508 
L 77.60875 347.109042 
L 77.85675 333.527577 
L 78.10475 356.661705 
L 78.35275 336.904258 
L 78.60075 336.042366 
L 78.84875 320.524783 
L 79.09675 346.151548 
L 79.34475 338.256403 
L 79.59275 356.905335 
L 79.84075 338.447369 
L 80.08875 343.086317 
L 80.33675 338.923099 
L 80.58475 348.840579 
L 81.08075 325.662458 
L 81.32875 352.693417 
L 81.57675 348.286465 
L 81.82475 307.092814 
L 82.07275 337.147531 
L 82.32075 330.385531 
L 82.56875 341.53439 
L 82.81675 347.107593 
L 83.06475 356.963595 
L 83.31275 311.503096 
L 83.56075 350.929158 
L 83.80875 345.653329 
L 84.05675 334.409665 
L 84.30475 335.161443 
L 84.55275 337.620149 
L 84.80075 329.514871 
L 85.04875 329.328883 
L 85.29675 353.032312 
L 85.54475 333.361822 
L 85.79275 348.421437 
L 86.04075 347.30961 
L 86.28875 347.437708 
L 86.53675 331.902878 
L 86.78475 336.39802 
L 87.03275 313.727359 
L 87.28075 338.122122 
L 87.52875 350.216437 
L 87.77675 336.948033 
L 88.02475 334.381875 
L 88.27275 336.968465 
L 88.52075 335.98942 
L 88.76875 300.746001 
L 89.01675 339.14042 
L 89.26475 315.628804 
L 89.76075 322.351462 
L 90.00875 315.996379 
L 90.25675 305.316892 
L 90.50475 351.200599 
L 90.75275 326.058571 
L 91.00075 358.089305 
L 91.24875 354.053685 
L 91.49675 353.267639 
L 91.99275 330.261412 
L 92.24075 347.751427 
L 92.48875 348.489493 
L 92.73675 347.680484 
L 93.23275 294.030693 
L 93.48075 347.299542 
L 93.72875 335.930027 
L 93.97675 336.333888 
L 94.22475 297.272634 
L 94.72075 343.957061 
L 94.96875 354.488884 
L 95.21675 299.514687 
L 95.46475 330.552509 
L 95.71275 324.323566 
L 95.96075 353.686189 
L 96.20875 351.586984 
L 96.45675 360.31782 
L 96.70475 356.279467 
L 96.95275 295.837548 
L 97.20075 348.13265 
L 97.44875 361.249304 
L 97.94475 325.208656 
L 98.19275 334.453235 
L 98.44075 315.095799 
L 98.68875 334.605602 
L 98.93675 320.549462 
L 99.18475 322.035254 
L 99.43275 361.478957 
L 99.68075 344.385023 
L 99.92875 281.909985 
L 100.17675 322.933707 
L 100.42475 326.795704 
L 100.67275 347.818974 
L 100.92075 334.206445 
L 101.16875 341.96452 
L 101.41675 357.392464 
L 101.91275 340.200353 
L 102.16075 342.221845 
L 102.40875 359.527583 
L 102.65675 306.046572 
L 102.90475 351.164085 
L 103.15275 323.87351 
L 103.40075 349.721503 
L 103.64875 333.047218 
L 103.89675 337.607584 
L 104.14475 328.474151 
L 104.39275 333.896257 
L 104.64075 356.783661 
L 104.88875 319.794922 
L 105.13675 338.24825 
L 105.38475 298.971534 
L 105.63275 359.717686 
L 105.88075 351.988587 
L 106.12875 328.793844 
L 106.37675 338.721934 
L 106.62475 307.851271 
L 106.87275 339.777116 
L 107.12075 340.708343 
L 107.36875 351.223023 
L 107.61675 348.538588 
L 107.86475 331.936857 
L 108.11275 302.043141 
L 108.36075 337.697033 
L 108.60875 313.680388 
L 108.85675 338.649748 
L 109.10475 348.304252 
L 109.35275 337.853501 
L 109.60075 350.363804 
L 109.84875 328.77258 
L 110.09675 319.11448 
L 110.34475 342.984154 
L 110.59275 346.194999 
L 110.84075 338.387079 
L 111.08875 313.472381 
L 111.33675 341.066979 
L 111.58475 314.462767 
L 111.83275 344.117921 
L 112.32875 349.081845 
L 112.57675 298.137516 
L 112.82475 340.243666 
L 113.07275 321.917746 
L 113.32075 338.890008 
L 113.56875 336.951746 
L 113.81675 354.091911 
L 114.06475 356.007748 
L 114.31275 350.280763 
L 114.56075 302.606662 
L 114.80875 355.76161 
L 115.05675 336.673298 
L 115.30475 335.121795 
L 115.55275 339.577929 
L 115.80075 354.812994 
L 116.04875 352.662928 
L 116.29675 317.188705 
L 116.54475 318.634034 
L 117.04075 339.551657 
L 117.28875 318.547248 
L 117.53675 351.469027 
L 117.78475 332.525797 
L 118.03275 346.317681 
L 118.28075 348.27467 
L 118.52875 328.345881 
L 118.77675 343.690973 
L 119.02475 349.830797 
L 119.27275 345.566814 
L 119.52075 343.600787 
L 119.76875 331.764983 
L 120.01675 302.077093 
L 120.26475 354.991017 
L 120.51275 334.080099 
L 120.76075 342.893305 
L 121.00875 325.027354 
L 121.50475 347.310956 
L 121.75275 334.928465 
L 122.00075 351.046569 
L 122.24875 338.656329 
L 122.49675 340.312954 
L 122.74475 328.200123 
L 122.99275 343.226224 
L 123.24075 335.562582 
L 123.48875 346.641261 
L 123.73675 325.25731 
L 123.98475 336.167859 
L 124.23275 307.419273 
L 124.48075 347.470604 
L 124.72875 288.818976 
L 124.97675 346.4523 
L 125.22475 343.636466 
L 125.47275 353.778989 
L 125.72075 309.923769 
L 125.96875 351.98073 
L 126.21675 309.25936 
L 126.46475 340.008061 
L 126.71275 317.888333 
L 126.96075 349.211358 
L 127.20875 351.178638 
L 127.45675 351.995463 
L 127.70475 349.246284 
L 127.95275 357.908407 
L 128.20075 351.812921 
L 128.44875 315.164245 
L 128.69675 317.935161 
L 128.94475 358.818672 
L 129.19275 352.476005 
L 129.44075 310.68818 
L 129.68875 313.510999 
L 130.43275 349.987886 
L 130.68075 350.456857 
L 130.92875 331.871399 
L 131.42475 356.186601 
L 131.67275 337.531746 
L 131.92075 349.261268 
L 132.16875 314.780183 
L 132.41675 356.104927 
L 132.66475 333.231195 
L 132.91275 331.556614 
L 133.16075 321.36471 
L 133.40875 329.293703 
L 133.90475 334.43888 
L 134.15275 351.462411 
L 134.40075 332.479193 
L 134.64875 333.195102 
L 134.89675 320.115297 
L 135.14475 343.645272 
L 135.39275 340.642925 
L 135.64075 347.927671 
L 135.88875 343.023463 
L 136.13675 364.193964 
L 136.38475 340.532271 
L 136.63275 328.388255 
L 136.88075 346.0954 
L 137.12875 334.003762 
L 137.37675 334.589106 
L 137.62475 345.495288 
L 137.87275 314.134615 
L 138.12075 340.487525 
L 138.36875 309.86396 
L 138.61675 348.885103 
L 138.86475 327.987114 
L 139.11275 355.156316 
L 139.36075 348.879644 
L 139.60875 338.383115 
L 139.85675 338.745361 
L 140.10475 355.608972 
L 140.35275 338.920333 
L 140.60075 344.427619 
L 140.84875 290.328901 
L 141.09675 339.860728 
L 141.34475 338.055128 
L 141.59275 325.856921 
L 141.84075 357.814642 
L 142.08875 319.942483 
L 142.58475 357.216875 
L 142.83275 352.62151 
L 143.08075 310.352498 
L 143.32875 328.588868 
L 143.57675 315.484117 
L 143.82475 357.819721 
L 144.07275 299.001059 
L 144.32075 356.686581 
L 144.56875 279.126328 
L 144.81675 346.868707 
L 145.06475 314.131182 
L 145.31275 338.99525 
L 145.56075 344.338711 
L 145.80875 312.014399 
L 146.30475 361.584815 
L 146.55275 328.325672 
L 146.80075 322.099255 
L 147.04875 337.498404 
L 147.29675 319.396918 
L 147.54475 347.900434 
L 147.79275 346.855061 
L 148.28875 306.440754 
L 148.53675 317.135378 
L 148.78475 338.552667 
L 149.03275 311.537881 
L 149.28075 348.543139 
L 149.52875 314.412333 
L 149.77675 334.63295 
L 150.02475 342.393911 
L 150.27275 326.472662 
L 150.52075 338.921978 
L 150.76875 342.87523 
L 151.01675 329.725466 
L 151.51275 347.389844 
L 152.00875 326.410442 
L 152.25675 353.514326 
L 152.50475 327.283186 
L 152.75275 315.65342 
L 153.00075 322.992584 
L 153.24875 350.053618 
L 153.49675 351.779417 
L 153.74475 343.890462 
L 153.99275 324.679022 
L 154.24075 320.891777 
L 154.48875 349.949676 
L 154.73675 316.059843 
L 154.98475 353.005761 
L 155.23275 346.552144 
L 155.48075 346.050086 
L 155.97675 332.972703 
L 156.22475 344.340224 
L 156.47275 308.494031 
L 156.72075 336.357391 
L 156.96875 330.171668 
L 157.21675 342.471393 
L 157.46475 334.408104 
L 157.71275 340.780592 
L 157.96075 313.715887 
L 158.20875 338.749743 
L 158.45675 316.491936 
L 158.70475 342.0429 
L 159.20075 312.592942 
L 159.44875 316.914147 
L 159.69675 354.171509 
L 159.94475 320.123605 
L 160.19275 335.403266 
L 160.44075 336.287919 
L 160.68875 329.684664 
L 160.93675 335.361389 
L 161.18475 350.641334 
L 161.43275 353.730575 
L 161.68075 321.452877 
L 161.92875 327.260879 
L 162.17675 355.26267 
L 162.42475 324.906627 
L 162.92075 353.395442 
L 163.41675 347.731563 
L 163.66475 324.034987 
L 163.91275 354.232442 
L 164.16075 352.739443 
L 164.40875 353.519033 
L 164.65675 344.240524 
L 164.90475 342.947893 
L 165.15275 336.888749 
L 165.40075 351.707753 
L 165.64875 335.468265 
L 165.89675 357.021487 
L 166.39275 290.56696 
L 166.64075 317.34097 
L 167.38475 356.355741 
L 167.63275 311.954718 
L 168.12875 343.915077 
L 168.62475 336.216549 
L 168.87275 353.032469 
L 169.12075 354.287592 
L 169.36875 356.502682 
L 169.61675 347.492765 
L 169.86475 353.99198 
L 170.11275 356.329277 
L 170.36075 340.030951 
L 170.60875 281.611169 
L 170.85675 349.577078 
L 171.10475 351.378788 
L 171.60075 268.233813 
L 171.84875 279.434624 
L 172.34475 346.860754 
L 172.59275 318.613689 
L 172.84075 342.060024 
L 173.08875 336.005481 
L 173.33675 349.257759 
L 173.58475 293.847673 
L 173.83275 354.574636 
L 174.08075 333.177606 
L 174.32875 340.07581 
L 174.57675 338.483922 
L 174.82475 299.63719 
L 175.07275 340.241832 
L 175.32075 338.507906 
L 175.56875 333.609849 
L 175.81675 326.247386 
L 176.06475 341.444113 
L 176.31275 321.855863 
L 176.56075 345.659242 
L 176.80875 330.780292 
L 177.05675 358.55555 
L 177.30475 356.588393 
L 177.55275 335.703579 
L 177.80075 359.669492 
L 178.04875 335.524708 
L 178.29675 344.495056 
L 178.54475 346.452682 
L 178.79275 335.297172 
L 179.04075 343.252214 
L 179.28875 340.922944 
L 179.53675 348.887796 
L 179.78475 342.805366 
L 180.03275 297.439722 
L 180.28075 325.909055 
L 180.52875 335.342686 
L 180.77675 337.899928 
L 181.02475 352.54584 
L 181.27275 306.295322 
L 181.52075 332.367898 
L 182.01675 344.912958 
L 182.26475 340.931328 
L 182.51275 347.863846 
L 182.76075 334.006677 
L 183.00875 329.322147 
L 183.25675 320.605676 
L 183.50475 343.231818 
L 183.75275 326.872526 
L 184.00075 333.758792 
L 184.24875 298.8226 
L 184.49675 300.420543 
L 184.74475 340.347342 
L 185.24075 298.199474 
L 185.48875 308.524048 
L 185.73675 332.160617 
L 185.98475 335.287461 
L 186.23275 308.228455 
L 186.48075 297.678772 
L 186.72875 310.274761 
L 186.97675 308.551661 
L 187.22475 356.317242 
L 187.72075 297.750844 
L 187.96875 345.451979 
L 188.21675 343.582377 
L 188.46475 338.165713 
L 188.71275 349.75196 
L 188.96075 342.838299 
L 189.20875 324.232243 
L 189.45675 357.361763 
L 189.70475 288.752162 
L 189.95275 303.243672 
L 190.20075 354.743351 
L 190.44875 300.616607 
L 190.69675 337.826474 
L 190.94475 330.064877 
L 191.19275 340.872106 
L 191.44075 336.890057 
L 191.68875 356.228927 
L 191.93675 280.702005 
L 192.18475 337.745306 
L 192.43275 349.107023 
L 192.68075 332.255993 
L 192.92875 350.320309 
L 193.17675 354.040723 
L 193.42475 347.150101 
L 193.67275 326.519909 
L 193.92075 340.512068 
L 194.16875 310.21363 
L 194.41675 303.351336 
L 194.66475 355.922939 
L 195.16075 342.872707 
L 195.40875 299.92575 
L 195.65675 344.265929 
L 196.15275 299.44118 
L 196.40075 308.513033 
L 196.64875 354.016962 
L 196.89675 312.909884 
L 197.14475 340.813566 
L 197.39275 319.179119 
L 197.64075 342.243219 
L 197.88875 335.960284 
L 198.13675 349.770813 
L 198.38475 353.761085 
L 198.63275 336.173035 
L 198.88075 328.358373 
L 199.12875 330.874817 
L 199.37675 342.591959 
L 199.62475 319.531977 
L 199.87275 339.781511 
L 200.12075 347.703583 
L 200.36875 326.702616 
L 200.61675 315.634162 
L 200.86475 347.270353 
L 201.11275 282.43763 
L 201.36075 341.375082 
L 201.60875 340.737616 
L 201.85675 332.400303 
L 202.10475 319.666587 
L 202.35275 340.787043 
L 202.60075 334.281498 
L 202.84875 351.361325 
L 203.09675 341.571403 
L 203.34475 340.361996 
L 203.59275 343.527568 
L 203.84075 297.779518 
L 204.08875 325.942391 
L 204.33675 313.020013 
L 204.58475 315.487867 
L 204.83275 335.290406 
L 205.08075 331.066616 
L 205.32875 314.723052 
L 205.57675 351.507698 
L 205.82475 309.470584 
L 206.07275 339.392928 
L 206.32075 350.705064 
L 206.56875 233.006145 
L 206.81675 345.819741 
L 207.06475 328.710921 
L 207.31275 351.077437 
L 207.56075 349.426851 
L 207.80875 337.20295 
L 208.05675 354.439052 
L 208.30475 251.083384 
L 208.55275 321.63467 
L 208.80075 339.544365 
L 209.29675 292.366817 
L 209.54475 335.014838 
L 209.79275 340.601549 
L 210.04075 326.219611 
L 210.28875 344.01438 
L 210.53675 303.64606 
L 210.78475 306.653227 
L 211.03275 334.240819 
L 211.28075 327.712354 
L 211.52875 342.023456 
L 211.77675 338.140608 
L 212.02475 325.073813 
L 212.27275 272.071607 
L 212.52075 342.462163 
L 212.76875 343.162693 
L 213.01675 341.422292 
L 213.26475 332.780965 
L 213.51275 337.991531 
L 214.00875 319.479237 
L 214.25675 329.676024 
L 214.50475 316.314224 
L 214.75275 348.148999 
L 215.00075 305.336911 
L 215.24875 353.397009 
L 215.49675 328.404292 
L 215.74475 327.599695 
L 215.99275 327.892408 
L 216.24075 335.411708 
L 216.48875 334.506664 
L 216.73675 316.50029 
L 216.98475 322.726621 
L 217.23275 313.548614 
L 217.48075 315.633233 
L 217.72875 326.484546 
L 217.97675 329.750403 
L 218.22475 314.003128 
L 218.47275 350.710159 
L 218.72075 253.607426 
L 218.96875 316.015187 
L 219.21675 340.661407 
L 219.46475 329.119441 
L 219.71275 284.01104 
L 219.96075 348.206522 
L 220.20875 326.321863 
L 220.45675 340.633517 
L 220.70475 315.87999 
L 220.95275 340.274213 
L 221.20075 330.068588 
L 221.44875 335.160967 
L 221.69675 343.277447 
L 221.94475 330.181236 
L 222.19275 331.072957 
L 222.44075 346.16315 
L 222.93675 275.300742 
L 223.43275 346.770463 
L 223.68075 301.661687 
L 223.92875 320.968671 
L 224.17675 278.858261 
L 224.67275 346.431565 
L 224.92075 335.17102 
L 225.16875 352.237275 
L 225.41675 336.98079 
L 225.66475 336.374793 
L 225.91275 272.547267 
L 226.16075 299.239649 
L 226.40875 343.376975 
L 226.65675 334.809555 
L 226.90475 331.423454 
L 227.15275 320.324446 
L 227.40075 351.439948 
L 227.64875 352.054788 
L 228.14475 342.419416 
L 228.39275 270.269436 
L 228.64075 340.180962 
L 228.88875 295.380296 
L 229.13675 345.810937 
L 229.38475 326.21137 
L 229.63275 276.30869 
L 229.88075 328.481668 
L 230.12875 316.184272 
L 230.62475 351.860978 
L 230.87275 341.924943 
L 231.12075 344.150348 
L 231.36875 343.528651 
L 231.61675 273.367867 
L 231.86475 274.155892 
L 232.11275 322.266616 
L 232.60875 334.201643 
L 232.85675 333.108748 
L 233.10475 291.375811 
L 233.60075 341.422366 
L 233.84875 322.984742 
L 234.09675 327.810033 
L 234.34475 338.937768 
L 234.59275 330.762477 
L 234.84075 338.907598 
L 235.08875 337.794376 
L 235.33675 280.014854 
L 235.58475 311.1662 
L 235.83275 281.535517 
L 236.08075 266.116756 
L 236.32875 346.220902 
L 236.57675 306.657163 
L 236.82475 361.409832 
L 237.07275 277.634807 
L 237.32075 318.787744 
L 237.56875 327.080574 
L 237.81675 352.268476 
L 238.06475 331.421175 
L 238.31275 250.257536 
L 238.80875 342.408672 
L 239.05675 288.591363 
L 239.30475 272.828309 
L 239.55275 346.19114 
L 239.80075 311.598961 
L 240.29675 348.369245 
L 240.54475 353.708364 
L 241.04075 313.008231 
L 241.28875 305.380156 
L 241.53675 277.367544 
L 242.03275 325.702806 
L 242.28075 327.781053 
L 242.52875 304.64132 
L 242.77675 327.693415 
L 243.02475 314.24535 
L 243.27275 253.496804 
L 243.52075 352.2221 
L 243.76875 286.937631 
L 244.01675 326.225459 
L 244.26475 284.282642 
L 244.51275 350.407648 
L 244.76075 335.670855 
L 245.00875 334.524857 
L 245.25675 306.351576 
L 245.50475 291.864193 
L 245.75275 328.609361 
L 246.00075 335.51552 
L 246.24875 324.990595 
L 246.49675 289.26701 
L 246.99275 328.080544 
L 247.24075 325.892932 
L 247.48875 334.082059 
L 247.73675 279.055538 
L 247.98475 268.321514 
L 248.23275 312.86285 
L 248.72875 325.254191 
L 248.97675 301.333879 
L 249.47275 325.469608 
L 249.72075 350.228501 
L 249.96875 315.011357 
L 250.21675 337.100663 
L 250.46475 342.024121 
L 250.71275 342.123883 
L 250.96075 291.979436 
L 251.20875 311.727794 
L 251.70475 302.82112 
L 251.95275 300.821231 
L 252.20075 281.616395 
L 252.44875 334.500283 
L 252.69675 315.058658 
L 252.94475 353.153006 
L 253.19275 303.17421 
L 253.44075 283.034142 
L 253.68875 330.551405 
L 253.93675 314.676005 
L 254.18475 288.130679 
L 254.43275 321.87042 
L 254.68075 279.882586 
L 254.92875 284.53931 
L 255.17675 310.879571 
L 255.42475 319.234969 
L 255.67275 334.786655 
L 255.92075 301.382253 
L 256.16875 295.430187 
L 256.41675 321.900822 
L 256.66475 290.584802 
L 256.91275 343.074659 
L 257.40875 332.427449 
L 257.65675 339.670046 
L 257.90475 309.05483 
L 258.15275 318.603542 
L 258.40075 310.933251 
L 258.64875 328.312055 
L 258.89675 332.02285 
L 259.14475 326.185887 
L 259.39275 323.069297 
L 259.64075 315.027795 
L 259.88875 331.738123 
L 260.13675 327.590479 
L 260.38475 310.67797 
L 260.63275 317.653836 
L 260.88075 286.790997 
L 261.12875 272.717557 
L 261.37675 315.159111 
L 261.62475 289.965398 
L 261.87275 312.91353 
L 262.12075 312.083362 
L 262.36875 322.640596 
L 262.86475 270.298255 
L 263.11275 257.28805 
L 263.36075 311.017364 
L 263.60875 321.966536 
L 263.85675 278.837746 
L 264.35275 348.291301 
L 264.60075 332.956738 
L 264.84875 352.472546 
L 265.09675 321.916022 
L 265.34475 330.275799 
L 265.84075 315.740427 
L 266.08875 294.825008 
L 266.33675 322.487363 
L 266.58475 296.385269 
L 266.83275 329.761597 
L 267.08075 341.225035 
L 267.32875 358.366194 
L 267.57675 350.130759 
L 267.82475 351.444458 
L 268.07275 342.903511 
L 268.32075 338.686095 
L 268.56875 328.97464 
L 268.81675 345.322753 
L 269.31275 241.300849 
L 269.56075 320.735758 
L 269.80875 267.376965 
L 270.05675 245.181649 
L 270.30475 338.947718 
L 270.80075 313.060052 
L 271.04875 269.179437 
L 271.29675 300.824178 
L 271.54475 289.14743 
L 271.79275 333.674801 
L 272.04075 332.316504 
L 272.28875 284.910078 
L 272.53675 294.225791 
L 272.78475 249.804672 
L 273.03275 326.828889 
L 273.28075 356.04782 
L 273.77675 285.410641 
L 274.27275 353.126201 
L 274.52075 322.749174 
L 274.76875 330.570595 
L 275.01675 259.964728 
L 275.26475 338.206774 
L 275.51275 280.484899 
L 275.76075 350.786165 
L 276.25675 305.656748 
L 276.50475 292.627945 
L 276.75275 333.543496 
L 277.00075 223.040697 
L 277.24875 309.504584 
L 277.49675 321.63587 
L 277.74475 342.344584 
L 277.99275 275.621032 
L 278.24075 304.256492 
L 278.48875 305.338799 
L 278.73675 253.195334 
L 278.98475 310.224412 
L 279.23275 336.826046 
L 279.48075 297.464477 
L 279.72875 349.102412 
L 279.97675 353.669989 
L 280.22475 301.411977 
L 280.47275 347.465492 
L 280.72075 315.057412 
L 280.96875 315.349723 
L 281.46475 339.154745 
L 281.71275 309.95282 
L 281.96075 333.998718 
L 282.20875 324.885279 
L 282.45675 357.968301 
L 282.70475 320.295419 
L 282.95275 332.276415 
L 283.20075 258.090386 
L 283.44875 240.246275 
L 283.69675 340.34029 
L 283.94475 302.678123 
L 284.19275 330.001886 
L 284.44075 337.26714 
L 284.68875 333.943084 
L 284.93675 303.202854 
L 285.18475 338.021631 
L 285.43275 346.203709 
L 285.68075 306.802857 
L 285.92875 294.691006 
L 286.17675 253.843283 
L 286.42475 347.083262 
L 286.67275 332.61667 
L 286.92075 297.975631 
L 287.16875 333.586364 
L 287.66475 284.267396 
L 287.91275 325.453584 
L 288.16075 283.787403 
L 288.40875 342.587019 
L 288.65675 349.948702 
L 288.90475 286.794343 
L 289.15275 301.653017 
L 289.40075 342.613794 
L 289.64875 321.134278 
L 289.89675 260.092684 
L 290.14475 335.560425 
L 290.39275 298.941539 
L 290.64075 309.639114 
L 290.88875 326.846539 
L 291.13675 226.42021 
L 291.38475 354.959605 
L 291.88075 237.506462 
L 292.12875 255.037404 
L 292.37675 318.960308 
L 292.62475 281.095028 
L 292.87275 313.911273 
L 293.12075 299.175233 
L 293.36875 323.275293 
L 293.61675 335.902442 
L 293.86475 269.527059 
L 294.11275 317.685891 
L 294.36075 341.028477 
L 294.60875 348.490244 
L 294.85675 350.719147 
L 295.10475 349.659099 
L 295.35275 266.655413 
L 295.60075 273.880428 
L 296.09675 312.102622 
L 296.34475 284.209622 
L 296.59275 348.571301 
L 296.84075 341.051626 
L 297.08875 291.295813 
L 297.33675 275.00455 
L 297.58475 289.317291 
L 298.08075 331.975395 
L 298.57675 290.969775 
L 298.82475 317.991812 
L 299.07275 227.608398 
L 299.32075 332.359789 
L 299.56875 355.27603 
L 299.81675 312.504935 
L 300.06475 240.449234 
L 300.31275 314.113949 
L 300.56075 347.540194 
L 300.80875 348.448987 
L 301.05675 313.224256 
L 301.30475 350.092937 
L 301.80075 319.77072 
L 302.04875 281.895161 
L 302.29675 285.950497 
L 302.54475 311.195927 
L 302.79275 290.18813 
L 303.04075 347.038185 
L 303.28875 256.214614 
L 303.53675 227.235765 
L 303.78475 311.620926 
L 304.03275 329.530428 
L 304.28075 324.971798 
L 304.52875 325.215066 
L 304.77675 341.452773 
L 305.02475 340.637931 
L 305.27275 311.752672 
L 305.52075 323.509554 
L 305.76875 253.309074 
L 306.01675 299.512182 
L 306.26475 294.317104 
L 306.51275 258.823199 
L 306.76075 326.768055 
L 307.00875 279.914428 
L 307.25675 347.609153 
L 307.50475 342.002899 
L 307.75275 350.59159 
L 308.00075 330.637547 
L 308.24875 275.829203 
L 308.49675 305.720075 
L 308.74475 252.91703 
L 308.99275 329.150715 
L 309.24075 346.157993 
L 309.48875 354.442727 
L 309.73675 183.625477 
L 309.98475 340.027024 
L 310.48075 262.204299 
L 310.72875 281.280443 
L 310.97675 320.505819 
L 311.22475 282.503946 
L 311.47275 300.822674 
L 311.96875 242.977796 
L 312.21675 244.99413 
L 312.46475 266.121646 
L 312.96075 328.742854 
L 313.20875 328.315919 
L 313.45675 213.111602 
L 313.70475 295.887784 
L 313.95275 274.774475 
L 314.20075 266.600273 
L 314.44875 283.756699 
L 314.69675 322.732432 
L 314.94475 256.004 
L 315.19275 284.40179 
L 315.44075 228.063448 
L 315.68875 282.110517 
L 315.93675 221.08743 
L 316.43275 339.125039 
L 316.68075 297.803714 
L 316.92875 205.399922 
L 317.17675 345.682695 
L 317.42475 211.175847 
L 317.67275 335.145573 
L 317.92075 216.872876 
L 318.16875 249.59324 
L 318.41675 318.671607 
L 318.66475 339.146646 
L 318.91275 253.238194 
L 319.16075 356.945 
L 319.40875 338.349384 
L 319.65675 299.292125 
L 319.90475 314.705705 
L 320.15275 219.371051 
L 320.40075 309.143376 
L 320.64875 344.679268 
L 320.89675 251.828899 
L 321.14475 283.41991 
L 321.39275 294.314314 
L 321.64075 279.182651 
L 321.88875 341.025633 
L 322.13675 314.604331 
L 322.38475 323.171267 
L 322.63275 312.043157 
L 322.88075 342.524178 
L 323.12875 299.083513 
L 323.37675 308.730895 
L 323.62475 362.69256 
L 323.87275 324.50755 
L 324.12075 349.632475 
L 324.36875 259.888742 
L 324.61675 352.167645 
L 324.86475 349.160391 
L 325.11275 307.097239 
L 325.36075 308.649279 
L 325.60875 320.023596 
L 325.85675 237.632579 
L 326.10475 352.004227 
L 326.35275 348.697949 
L 326.84875 207.82486 
L 327.09675 334.84802 
L 327.34475 210.461716 
L 327.59275 338.895152 
L 327.84075 303.952264 
L 328.08875 352.616698 
L 328.58475 289.457591 
L 328.83275 335.878149 
L 329.08075 346.703426 
L 329.57675 231.804761 
L 330.07275 360.023107 
L 330.32075 334.811723 
L 330.56875 321.302824 
L 330.81675 346.612017 
L 331.06475 297.579791 
L 331.31275 315.842057 
L 331.80875 337.104417 
L 332.05675 280.558518 
L 332.30475 316.364118 
L 332.80075 327.625566 
L 333.04875 328.457728 
L 333.29675 282.654378 
L 333.54475 289.753909 
L 333.79275 354.330327 
L 334.04075 304.117192 
L 334.28875 352.762332 
L 334.53675 353.072474 
L 334.78475 284.187437 
L 335.28075 339.527893 
L 335.52875 333.220115 
L 335.77675 300.324697 
L 336.02475 352.957427 
L 336.27275 341.159099 
L 336.52075 354.62815 
L 336.76875 333.658477 
L 337.01675 356.115301 
L 337.26475 295.041862 
L 337.51275 301.342839 
L 337.76075 284.564414 
L 338.00875 355.49282 
L 338.25675 275.842713 
L 338.50475 244.672349 
L 338.75275 300.504945 
L 339.00075 316.896014 
L 339.24875 213.497423 
L 339.74475 345.755886 
L 339.99275 354.109788 
L 340.24075 351.758843 
L 340.48875 270.820204 
L 340.73675 336.301832 
L 340.98475 277.071652 
L 341.23275 275.113903 
L 341.48075 344.946468 
L 341.72875 294.510476 
L 341.97675 342.189259 
L 342.22475 347.755489 
L 342.47275 348.631514 
L 342.72075 325.180263 
L 342.96875 214.562334 
L 343.21675 345.616722 
L 343.46475 326.878245 
L 343.71275 275.601516 
L 343.96075 288.899 
L 344.20875 346.752939 
L 344.45675 227.953434 
L 344.70475 351.886041 
L 344.95275 246.988268 
L 345.20075 359.702142 
L 345.44875 311.843333 
L 345.69675 328.467727 
L 345.94475 270.137939 
L 346.19275 324.319904 
L 346.44075 287.843777 
L 346.93675 300.364128 
L 347.18475 320.46004 
L 347.43275 356.115687 
L 347.68075 232.448281 
L 348.17675 344.838277 
L 348.42475 325.595575 
L 348.67275 346.412995 
L 348.92075 267.184837 
L 349.16875 321.742393 
L 349.41675 204.696727 
L 349.66475 303.554534 
L 349.91275 301.689427 
L 350.16075 272.113085 
L 350.65675 349.011911 
L 351.40075 304.698973 
L 351.64875 348.063564 
L 351.89675 329.814314 
L 352.14475 235.003192 
L 352.39275 323.978786 
L 352.64075 339.093847 
L 352.88875 287.44508 
L 353.13675 350.247946 
L 353.38475 326.089295 
L 353.63275 284.911033 
L 353.88075 352.649671 
L 354.12875 360.586103 
L 354.37675 324.26312 
L 354.62475 329.537032 
L 354.87275 350.491233 
L 355.12075 352.377664 
L 355.36875 212.698543 
L 355.61675 309.23331 
L 355.86475 256.878838 
L 356.11275 333.003372 
L 356.36075 233.454685 
L 356.60875 238.355553 
L 356.85675 325.786708 
L 357.10475 215.367471 
L 357.35275 253.358433 
L 357.60075 259.925605 
L 357.84875 239.841835 
L 358.09675 309.253907 
L 358.34475 340.98482 
L 358.59275 234.015044 
L 358.84075 297.401675 
L 359.08875 299.148621 
L 359.33675 346.648309 
L 359.58475 361.804166 
L 360.08075 325.400571 
L 360.32875 268.713303 
L 360.57675 291.375556 
L 360.82475 230.299409 
L 361.07275 321.701325 
L 361.56875 220.539824 
L 361.81675 299.000732 
L 362.06475 191.49107 
L 362.31275 330.604288 
L 362.56075 53.303466 
L 362.80875 358.422215 
L 363.05675 215.145889 
L 363.30475 333.661935 
L 363.55275 234.074471 
L 363.80075 343.273387 
L 364.04875 307.49317 
L 364.29675 353.78744 
L 364.54475 332.828543 
L 364.79275 356.886317 
L 365.04075 354.428696 
L 365.53675 352.639851 
L 365.78475 328.912615 
L 366.03275 208.76414 
L 366.52875 348.305789 
L 367.02475 318.850345 
L 367.27275 318.412411 
L 367.52075 347.607478 
L 368.01675 284.725709 
L 368.26475 350.172431 
L 368.51275 299.519467 
L 368.76075 332.223913 
L 369.00875 334.008943 
L 369.25675 314.571202 
L 369.50475 230.6512 
L 369.75275 332.029506 
L 370.24875 266.697608 
L 370.49675 328.924112 
L 370.74475 297.534584 
L 370.99275 310.01768 
L 371.24075 298.987364 
L 371.48875 313.104968 
L 371.73675 338.502018 
L 371.98475 349.79154 
L 372.23275 341.756534 
L 372.48075 229.346441 
L 372.72875 270.224642 
L 372.97675 282.592055 
L 373.22475 279.667237 
L 373.47275 292.068507 
L 373.72075 354.945197 
L 373.96875 243.384885 
L 374.21675 279.297689 
L 374.46475 354.148308 
L 374.71275 328.334385 
L 374.96075 349.677124 
L 375.45675 281.466558 
L 375.70475 334.413743 
L 375.95275 255.224205 
L 376.20075 305.209842 
L 376.44875 313.904784 
L 376.69675 277.01407 
L 376.94475 337.515159 
L 377.19275 294.064812 
L 377.44075 341.223649 
L 377.68875 335.252489 
L 377.93675 280.487107 
L 378.18475 265.506081 
L 378.43275 338.565509 
L 378.68075 344.970634 
L 378.92875 282.036949 
L 379.17675 313.351879 
L 379.42475 270.733036 
L 379.92075 323.958419 
L 380.16875 320.575688 
L 380.41675 329.007364 
L 380.66475 322.956352 
L 381.16075 290.612991 
L 381.40875 354.706844 
L 381.65675 242.815164 
L 382.15275 347.170142 
L 382.64875 314.52577 
L 382.89675 237.476427 
L 383.14475 349.616922 
L 383.39275 173.942952 
L 383.64075 308.95226 
L 383.88875 353.931226 
L 384.13675 237.555591 
L 384.63275 352.145386 
L 384.88075 333.437957 
L 385.12875 337.106812 
L 385.37675 225.052288 
L 385.62475 308.051206 
L 385.87275 322.07009 
L 386.12075 296.838374 
L 386.36875 292.833703 
L 386.86475 224.418483 
L 387.11275 322.192895 
L 387.36075 345.248198 
L 387.60875 108.86103 
L 387.85675 250.874009 
L 388.10475 228.091552 
L 388.35275 220.111596 
L 388.60075 306.962983 
L 388.84875 331.148222 
L 389.09675 277.639887 
L 389.59275 354.368531 
L 389.84075 350.11125 
L 390.08875 282.271118 
L 390.33675 297.159759 
L 390.58475 157.917269 
L 390.83275 234.108681 
L 391.08075 263.042219 
L 391.32875 265.593888 
L 391.57675 239.481556 
L 392.07275 340.056192 
L 392.32075 206.999867 
L 392.56875 347.976537 
L 393.06475 336.136875 
L 393.31275 288.43084 
L 393.56075 262.914397 
L 393.80875 321.40229 
L 394.05675 296.287629 
L 394.30475 327.756544 
L 394.55275 248.546024 
L 395.04875 352.316374 
L 395.29675 314.182866 
L 395.54475 337.885912 
L 395.79275 336.947657 
L 396.04075 355.260093 
L 396.28875 238.838736 
L 396.53675 333.601751 
L 396.78475 356.967781 
L 397.03275 336.311135 
L 397.28075 265.812892 
L 397.52875 358.958797 
L 397.77675 283.014285 
L 398.02475 332.60946 
L 398.27275 332.005104 
L 398.52075 343.606804 
L 398.76875 345.087062 
L 399.01675 289.591774 
L 399.26475 296.019317 
L 399.51275 305.937832 
L 400.00875 269.620308 
L 400.25675 348.462388 
L 400.50475 349.498726 
L 400.75275 346.88809 
L 401.00075 245.5837 
L 401.24875 283.526618 
L 401.74475 320.324595 
L 401.99275 306.947529 
L 402.24075 270.639254 
L 402.48875 312.852483 
L 402.73675 303.243542 
L 402.98475 314.952136 
L 403.23275 352.285372 
L 403.48075 342.413145 
L 403.72875 342.004984 
L 403.97675 344.553893 
L 404.22475 344.92015 
L 404.47275 311.33827 
L 404.72075 322.352207 
L 404.96875 267.08954 
L 405.21675 249.714032 
L 405.46475 346.032686 
L 405.71275 349.096529 
L 405.96075 347.044973 
L 406.20875 321.011697 
L 406.45675 329.583444 
L 406.95275 279.242615 
L 407.69675 309.522143 
L 407.94475 179.038771 
L 408.19275 211.644712 
L 408.44075 220.752239 
L 408.68875 298.783719 
L 408.93675 232.65328 
L 409.18475 337.491277 
L 409.68075 348.83864 
L 409.92875 312.308419 
L 410.17675 304.431017 
L 410.42475 356.453745 
L 410.67275 309.793669 
L 410.92075 300.769965 
L 411.16875 350.947596 
L 411.41675 81.439399 
L 411.66475 284.269946 
L 412.16075 218.441706 
L 412.40875 351.353627 
L 412.65675 348.527093 
L 412.90475 273.266235 
L 413.15275 286.91896 
L 413.40075 259.967534 
L 413.64875 350.210281 
L 413.89675 339.904245 
L 414.14475 118.534092 
L 414.39275 339.931479 
L 414.64075 289.694619 
L 414.88875 314.424209 
L 415.13675 258.660795 
L 415.38475 234.677272 
L 415.63275 329.254166 
L 415.88075 222.203707 
L 416.12875 244.76355 
L 416.37675 192.410416 
L 416.62475 197.509004 
L 416.87275 316.053268 
L 417.12075 351.634315 
L 417.36875 347.246661 
L 417.61675 356.64604 
L 417.86475 301.755646 
L 418.11275 317.038952 
L 418.36075 352.324385 
L 418.60875 345.428689 
L 418.85675 348.211653 
L 419.10475 343.745186 
L 419.60075 250.844012 
L 419.84875 337.183725 
L 420.09675 306.882371 
L 420.34475 201.347875 
L 420.59275 241.691628 
L 420.84075 332.920066 
L 421.33675 229.270048 
L 421.58475 236.51117 
L 421.83275 240.480076 
L 422.08075 231.736564 
L 422.32875 276.281507 
L 422.57675 288.494046 
L 422.82475 216.480036 
L 423.07275 255.453399 
L 423.32075 240.559977 
L 423.56875 218.940327 
L 423.81675 301.658719 
L 424.06475 310.311238 
L 424.31275 151.058591 
L 424.56075 287.758017 
L 424.80875 293.803442 
L 425.05675 347.256763 
L 425.30475 195.726281 
L 425.55275 303.966625 
L 425.80075 203.225887 
L 426.04875 289.099791 
L 426.29675 288.765343 
L 426.54475 305.659713 
L 427.04075 72.217661 
L 427.28875 347.623859 
L 427.53675 326.743431 
L 427.78475 320.223946 
L 428.03275 262.277713 
L 428.28075 251.536785 
L 428.52875 230.56832 
L 428.77675 231.15876 
L 429.02475 348.567649 
L 429.27275 285.507303 
L 429.52075 344.245941 
L 429.76875 345.035666 
L 430.01675 340.884312 
L 430.26475 248.161529 
L 430.51275 350.606653 
L 430.76075 343.07521 
L 431.00875 320.909431 
L 431.25675 315.58693 
L 431.50475 234.90791 
L 431.75275 247.643921 
L 432.00075 338.22955 
L 432.24875 246.529831 
L 432.49675 295.2638 
L 432.74475 159.706635 
L 433.24075 192.660279 
L 433.48875 267.654067 
L 433.73675 181.675262 
L 433.98475 175.969683 
L 434.48075 343.86674 
L 434.72875 178.080659 
L 434.97675 269.527605 
L 435.22475 253.024475 
L 435.47275 191.553556 
L 435.72075 257.657659 
L 435.96875 166.965364 
L 436.21675 174.599829 
L 436.71275 283.854836 
L 436.96075 265.609652 
L 437.20875 267.715679 
L 437.45675 163.169207 
L 437.70475 300.824808 
L 437.95275 312.321888 
L 438.20075 301.191 
L 438.44875 281.411517 
L 438.69675 209.071846 
L 438.94475 304.112311 
L 439.19275 161.214889 
L 439.68875 346.326498 
L 439.93675 302.586346 
L 440.18475 301.79068 
L 440.43275 336.13222 
L 440.68075 333.163706 
L 440.92875 351.780696 
L 441.17675 344.484722 
L 441.42475 151.462031 
L 441.92075 318.441272 
L 442.16875 207.149432 
L 442.66475 274.389397 
L 442.91275 330.156376 
L 443.16075 319.971859 
L 443.40875 115.163854 
L 443.65675 283.796829 
L 443.90475 321.56283 
L 444.40075 334.016134 
L 444.64875 339.322972 
L 444.89675 310.066926 
L 445.14475 295.857908 
L 445.39275 216.544121 
L 445.64075 335.207664 
L 446.13675 164.359274 
L 446.38475 251.132753 
L 446.63275 216.66082 
L 446.88075 255.285242 
L 447.12875 311.30052 
L 447.62475 144.728438 
L 447.87275 332.384771 
L 448.12075 344.551055 
L 448.36875 309.904346 
L 448.61675 129.384824 
L 448.86475 280.646448 
L 449.11275 116.64745 
L 449.36075 144.124891 
L 449.60875 131.154923 
L 449.85675 287.602264 
L 450.10475 171.755123 
L 450.35275 281.702237 
L 450.60075 217.219838 
L 450.84875 195.512869 
L 451.09675 337.830466 
L 451.34475 330.955728 
L 451.59275 300.897639 
L 451.84075 216.589306 
L 452.08875 323.757857 
L 452.33675 334.450916 
L 452.58475 203.655319 
L 452.83275 344.646785 
L 453.08075 292.912341 
L 453.32875 104.43408 
L 453.57675 256.954385 
L 453.82475 274.865852 
L 454.32075 178.139715 
L 454.56875 327.64691 
L 454.81675 277.82524 
L 455.06475 287.569977 
L 455.31275 202.369575 
L 455.56075 280.984823 
L 455.80875 277.657224 
L 456.05675 312.691582 
L 456.30475 325.435932 
L 456.55275 315.86871 
L 456.80075 270.89416 
L 457.04875 268.653032 
L 457.29675 290.564509 
L 457.54475 261.674654 
L 457.79275 357.605711 
L 458.04075 246.747532 
L 458.28875 244.721037 
L 458.53675 333.694757 
L 458.78475 230.434324 
L 459.03275 232.761063 
L 459.28075 229.882804 
L 459.52875 299.191793 
L 459.77675 260.00336 
L 460.02475 185.979086 
L 460.27275 342.20021 
L 460.52075 87.729993 
L 460.76875 206.001301 
L 461.01675 152.661069 
L 461.51275 319.151433 
L 461.76075 248.854657 
L 462.00875 230.298532 
L 462.25675 252.778482 
L 462.50475 320.408704 
L 462.75275 207.213912 
L 463.00075 290.703082 
L 463.24875 283.559719 
L 463.49675 243.950827 
L 463.74475 347.703086 
L 464.48875 296.523349 
L 464.73675 320.09037 
L 464.98475 240.315324 
L 465.23275 302.982621 
L 465.48075 254.39632 
L 465.72875 77.263288 
L 465.97675 173.729926 
L 466.22475 318.255005 
L 466.47275 297.237166 
L 466.72075 197.713242 
L 467.21675 309.774632 
L 467.46475 273.645169 
L 467.71275 321.945577 
L 467.96075 162.620889 
L 468.20875 332.776857 
L 468.45675 291.244784 
L 468.70475 271.695001 
L 468.95275 287.842994 
L 469.20075 208.916676 
L 469.44875 239.871941 
L 469.69675 115.991988 
L 469.94475 217.377155 
L 470.19275 240.571365 
L 470.44075 210.06027 
L 470.93675 248.503873 
L 471.18475 232.144942 
L 471.43275 116.031568 
L 471.68075 274.061961 
L 471.92875 188.516412 
L 472.17675 163.810466 
L 472.42475 258.740021 
L 472.67275 119.984779 
L 472.92075 314.481861 
L 473.16875 307.201136 
L 473.41675 327.146764 
L 473.66475 322.480417 
L 473.91275 125.334628 
L 474.16075 136.131315 
L 474.40875 311.520349 
L 474.65675 304.555839 
L 474.90475 191.389191 
L 475.15275 205.638123 
L 475.40075 293.530674 
L 475.64875 286.202002 
L 475.89675 303.413286 
L 476.14475 275.7311 
L 476.39275 305.115812 
L 476.64075 82.472486 
L 476.88875 325.960606 
L 477.13675 168.936671 
L 477.38475 306.08271 
L 477.63275 56.019211 
L 477.88075 300.580033 
L 478.12875 329.156034 
L 478.62475 183.913771 
L 478.87275 244.711911 
L 479.12075 208.471392 
L 479.36875 246.675833 
L 479.61675 229.408248 
L 480.11275 131.299695 
L 480.36075 236.521883 
L 480.60875 222.901286 
L 480.85675 274.499142 
L 481.10475 270.166418 
L 481.35275 310.736099 
L 481.60075 327.54665 
L 481.84875 329.539982 
L 481.84875 329.539982 
" style="fill:none;stroke:#0000ff;stroke-linecap:square;stroke-width:0.5;"/>
   </g>
   <g id="patch_3">
    <path d="M 35.44875 368.74175 
L 35.44875 23.14175 
" style="fill:none;stroke:#000000;stroke-linecap:square;stroke-linejoin:miter;"/>
   </g>
   <g id="patch_4">
    <path d="M 35.44875 368.74175 
L 481.84875 368.74175 
" style="fill:none;stroke:#000000;stroke-linecap:square;stroke-linejoin:miter;"/>
   </g>
   <g id="patch_5">
    <path d="M 35.44875 23.14175 
L 481.84875 23.14175 
" style="fill:none;stroke:#000000;stroke-linecap:square;stroke-linejoin:miter;"/>
   </g>
   <g id="patch_6">
    <path d="M 481.84875 368.74175 
L 481.84875 23.14175 
" style="fill:none;stroke:#000000;stroke-linecap:square;stroke-linejoin:miter;"/>
   </g>
   <g id="matplotlib.axis_1">
    <g id="xtick_1">
     <g id="line2d_2">
      <defs>
       <path d="M 0 0 
L 0 -4 
" id="m7e9c6aa95a" style="stroke:#000000;stroke-width:0.5;"/>
      </defs>
      <g>
       <use style="stroke:#000000;stroke-width:0.5;" x="35.44875" xlink:href="#m7e9c6aa95a" y="368.74175"/>
      </g>
     </g>
     <g id="line2d_3">
      <defs>
       <path d="M 0 0 
L 0 4 
" id="m84ee381afa" style="stroke:#000000;stroke-width:0.5;"/>
      </defs>
      <g>
       <use style="stroke:#000000;stroke-width:0.5;" x="35.44875" xlink:href="#m84ee381afa" y="23.14175"/>
      </g>
     </g>
     <g id="text_1">
      <!-- 0 -->
      <defs>
       <path d="M 31.78125 66.40625 
Q 24.171875 66.40625 20.328125 58.90625 
Q 16.5 51.421875 16.5 36.375 
Q 16.5 21.390625 20.328125 13.890625 
Q 24.171875 6.390625 31.78125 6.390625 
Q 39.453125 6.390625 43.28125 13.890625 
Q 47.125 21.390625 47.125 36.375 
Q 47.125 51.421875 43.28125 58.90625 
Q 39.453125 66.40625 31.78125 66.40625 
M 31.78125 74.21875 
Q 44.046875 74.21875 50.515625 64.515625 
Q 56.984375 54.828125 56.984375 36.375 
Q 56.984375 17.96875 50.515625 8.265625 
Q 44.046875 -1.421875 31.78125 -1.421875 
Q 19.53125 -1.421875 13.0625 8.265625 
Q 6.59375 17.96875 6.59375 36.375 
Q 6.59375 54.828125 13.0625 64.515625 
Q 19.53125 74.21875 31.78125 74.21875 
" id="BitstreamVeraSans-Roman-30"/>
      </defs>
      <g transform="translate(31.63125 381.859875)scale(0.12 -0.12)">
       <use xlink:href="#BitstreamVeraSans-Roman-30"/>
      </g>
     </g>
    </g>
    <g id="xtick_2">
     <g id="line2d_4">
      <g>
       <use style="stroke:#000000;stroke-width:0.5;" x="85.04875" xlink:href="#m7e9c6aa95a" y="368.74175"/>
      </g>
     </g>
     <g id="line2d_5">
      <g>
       <use style="stroke:#000000;stroke-width:0.5;" x="85.04875" xlink:href="#m84ee381afa" y="23.14175"/>
      </g>
     </g>
     <g id="text_2">
      <!-- 200 -->
      <defs>
       <path d="M 19.1875 8.296875 
L 53.609375 8.296875 
L 53.609375 0 
L 7.328125 0 
L 7.328125 8.296875 
Q 12.9375 14.109375 22.625 23.890625 
Q 32.328125 33.6875 34.8125 36.53125 
Q 39.546875 41.84375 41.421875 45.53125 
Q 43.3125 49.21875 43.3125 52.78125 
Q 43.3125 58.59375 39.234375 62.25 
Q 35.15625 65.921875 28.609375 65.921875 
Q 23.96875 65.921875 18.8125 64.3125 
Q 13.671875 62.703125 7.8125 59.421875 
L 7.8125 69.390625 
Q 13.765625 71.78125 18.9375 73 
Q 24.125 74.21875 28.421875 74.21875 
Q 39.75 74.21875 46.484375 68.546875 
Q 53.21875 62.890625 53.21875 53.421875 
Q 53.21875 48.921875 51.53125 44.890625 
Q 49.859375 40.875 45.40625 35.40625 
Q 44.1875 33.984375 37.640625 27.21875 
Q 31.109375 20.453125 19.1875 8.296875 
" id="BitstreamVeraSans-Roman-32"/>
      </defs>
      <g transform="translate(73.59625 381.859875)scale(0.12 -0.12)">
       <use xlink:href="#BitstreamVeraSans-Roman-32"/>
       <use x="63.623046875" xlink:href="#BitstreamVeraSans-Roman-30"/>
       <use x="127.24609375" xlink:href="#BitstreamVeraSans-Roman-30"/>
      </g>
     </g>
    </g>
    <g id="xtick_3">
     <g id="line2d_6">
      <g>
       <use style="stroke:#000000;stroke-width:0.5;" x="134.64875" xlink:href="#m7e9c6aa95a" y="368.74175"/>
      </g>
     </g>
     <g id="line2d_7">
      <g>
       <use style="stroke:#000000;stroke-width:0.5;" x="134.64875" xlink:href="#m84ee381afa" y="23.14175"/>
      </g>
     </g>
     <g id="text_3">
      <!-- 400 -->
      <defs>
       <path d="M 37.796875 64.3125 
L 12.890625 25.390625 
L 37.796875 25.390625 
z
M 35.203125 72.90625 
L 47.609375 72.90625 
L 47.609375 25.390625 
L 58.015625 25.390625 
L 58.015625 17.1875 
L 47.609375 17.1875 
L 47.609375 0 
L 37.796875 0 
L 37.796875 17.1875 
L 4.890625 17.1875 
L 4.890625 26.703125 
z
" id="BitstreamVeraSans-Roman-34"/>
      </defs>
      <g transform="translate(123.19625 381.859875)scale(0.12 -0.12)">
       <use xlink:href="#BitstreamVeraSans-Roman-34"/>
       <use x="63.623046875" xlink:href="#BitstreamVeraSans-Roman-30"/>
       <use x="127.24609375" xlink:href="#BitstreamVeraSans-Roman-30"/>
      </g>
     </g>
    </g>
    <g id="xtick_4">
     <g id="line2d_8">
      <g>
       <use style="stroke:#000000;stroke-width:0.5;" x="184.24875" xlink:href="#m7e9c6aa95a" y="368.74175"/>
      </g>
     </g>
     <g id="line2d_9">
      <g>
       <use style="stroke:#000000;stroke-width:0.5;" x="184.24875" xlink:href="#m84ee381afa" y="23.14175"/>
      </g>
     </g>
     <g id="text_4">
      <!-- 600 -->
      <defs>
       <path d="M 33.015625 40.375 
Q 26.375 40.375 22.484375 35.828125 
Q 18.609375 31.296875 18.609375 23.390625 
Q 18.609375 15.53125 22.484375 10.953125 
Q 26.375 6.390625 33.015625 6.390625 
Q 39.65625 6.390625 43.53125 10.953125 
Q 47.40625 15.53125 47.40625 23.390625 
Q 47.40625 31.296875 43.53125 35.828125 
Q 39.65625 40.375 33.015625 40.375 
M 52.59375 71.296875 
L 52.59375 62.3125 
Q 48.875 64.0625 45.09375 64.984375 
Q 41.3125 65.921875 37.59375 65.921875 
Q 27.828125 65.921875 22.671875 59.328125 
Q 17.53125 52.734375 16.796875 39.40625 
Q 19.671875 43.65625 24.015625 45.921875 
Q 28.375 48.1875 33.59375 48.1875 
Q 44.578125 48.1875 50.953125 41.515625 
Q 57.328125 34.859375 57.328125 23.390625 
Q 57.328125 12.15625 50.6875 5.359375 
Q 44.046875 -1.421875 33.015625 -1.421875 
Q 20.359375 -1.421875 13.671875 8.265625 
Q 6.984375 17.96875 6.984375 36.375 
Q 6.984375 53.65625 15.1875 63.9375 
Q 23.390625 74.21875 37.203125 74.21875 
Q 40.921875 74.21875 44.703125 73.484375 
Q 48.484375 72.75 52.59375 71.296875 
" id="BitstreamVeraSans-Roman-36"/>
      </defs>
      <g transform="translate(172.79625 381.859875)scale(0.12 -0.12)">
       <use xlink:href="#BitstreamVeraSans-Roman-36"/>
       <use x="63.623046875" xlink:href="#BitstreamVeraSans-Roman-30"/>
       <use x="127.24609375" xlink:href="#BitstreamVeraSans-Roman-30"/>
      </g>
     </g>
    </g>
    <g id="xtick_5">
     <g id="line2d_10">
      <g>
       <use style="stroke:#000000;stroke-width:0.5;" x="233.84875" xlink:href="#m7e9c6aa95a" y="368.74175"/>
      </g>
     </g>
     <g id="line2d_11">
      <g>
       <use style="stroke:#000000;stroke-width:0.5;" x="233.84875" xlink:href="#m84ee381afa" y="23.14175"/>
      </g>
     </g>
     <g id="text_5">
      <!-- 800 -->
      <defs>
       <path d="M 31.78125 34.625 
Q 24.75 34.625 20.71875 30.859375 
Q 16.703125 27.09375 16.703125 20.515625 
Q 16.703125 13.921875 20.71875 10.15625 
Q 24.75 6.390625 31.78125 6.390625 
Q 38.8125 6.390625 42.859375 10.171875 
Q 46.921875 13.96875 46.921875 20.515625 
Q 46.921875 27.09375 42.890625 30.859375 
Q 38.875 34.625 31.78125 34.625 
M 21.921875 38.8125 
Q 15.578125 40.375 12.03125 44.71875 
Q 8.5 49.078125 8.5 55.328125 
Q 8.5 64.0625 14.71875 69.140625 
Q 20.953125 74.21875 31.78125 74.21875 
Q 42.671875 74.21875 48.875 69.140625 
Q 55.078125 64.0625 55.078125 55.328125 
Q 55.078125 49.078125 51.53125 44.71875 
Q 48 40.375 41.703125 38.8125 
Q 48.828125 37.15625 52.796875 32.3125 
Q 56.78125 27.484375 56.78125 20.515625 
Q 56.78125 9.90625 50.3125 4.234375 
Q 43.84375 -1.421875 31.78125 -1.421875 
Q 19.734375 -1.421875 13.25 4.234375 
Q 6.78125 9.90625 6.78125 20.515625 
Q 6.78125 27.484375 10.78125 32.3125 
Q 14.796875 37.15625 21.921875 38.8125 
M 18.3125 54.390625 
Q 18.3125 48.734375 21.84375 45.5625 
Q 25.390625 42.390625 31.78125 42.390625 
Q 38.140625 42.390625 41.71875 45.5625 
Q 45.3125 48.734375 45.3125 54.390625 
Q 45.3125 60.0625 41.71875 63.234375 
Q 38.140625 66.40625 31.78125 66.40625 
Q 25.390625 66.40625 21.84375 63.234375 
Q 18.3125 60.0625 18.3125 54.390625 
" id="BitstreamVeraSans-Roman-38"/>
      </defs>
      <g transform="translate(222.39625 381.859875)scale(0.12 -0.12)">
       <use xlink:href="#BitstreamVeraSans-Roman-38"/>
       <use x="63.623046875" xlink:href="#BitstreamVeraSans-Roman-30"/>
       <use x="127.24609375" xlink:href="#BitstreamVeraSans-Roman-30"/>
      </g>
     </g>
    </g>
    <g id="xtick_6">
     <g id="line2d_12">
      <g>
       <use style="stroke:#000000;stroke-width:0.5;" x="283.44875" xlink:href="#m7e9c6aa95a" y="368.74175"/>
      </g>
     </g>
     <g id="line2d_13">
      <g>
       <use style="stroke:#000000;stroke-width:0.5;" x="283.44875" xlink:href="#m84ee381afa" y="23.14175"/>
      </g>
     </g>
     <g id="text_6">
      <!-- 1000 -->
      <defs>
       <path d="M 12.40625 8.296875 
L 28.515625 8.296875 
L 28.515625 63.921875 
L 10.984375 60.40625 
L 10.984375 69.390625 
L 28.421875 72.90625 
L 38.28125 72.90625 
L 38.28125 8.296875 
L 54.390625 8.296875 
L 54.390625 0 
L 12.40625 0 
z
" id="BitstreamVeraSans-Roman-31"/>
      </defs>
      <g transform="translate(268.17875 381.859875)scale(0.12 -0.12)">
       <use xlink:href="#BitstreamVeraSans-Roman-31"/>
       <use x="63.623046875" xlink:href="#BitstreamVeraSans-Roman-30"/>
       <use x="127.24609375" xlink:href="#BitstreamVeraSans-Roman-30"/>
       <use x="190.869140625" xlink:href="#BitstreamVeraSans-Roman-30"/>
      </g>
     </g>
    </g>
    <g id="xtick_7">
     <g id="line2d_14">
      <g>
       <use style="stroke:#000000;stroke-width:0.5;" x="333.04875" xlink:href="#m7e9c6aa95a" y="368.74175"/>
      </g>
     </g>
     <g id="line2d_15">
      <g>
       <use style="stroke:#000000;stroke-width:0.5;" x="333.04875" xlink:href="#m84ee381afa" y="23.14175"/>
      </g>
     </g>
     <g id="text_7">
      <!-- 1200 -->
      <g transform="translate(317.77875 381.859875)scale(0.12 -0.12)">
       <use xlink:href="#BitstreamVeraSans-Roman-31"/>
       <use x="63.623046875" xlink:href="#BitstreamVeraSans-Roman-32"/>
       <use x="127.24609375" xlink:href="#BitstreamVeraSans-Roman-30"/>
       <use x="190.869140625" xlink:href="#BitstreamVeraSans-Roman-30"/>
      </g>
     </g>
    </g>
    <g id="xtick_8">
     <g id="line2d_16">
      <g>
       <use style="stroke:#000000;stroke-width:0.5;" x="382.64875" xlink:href="#m7e9c6aa95a" y="368.74175"/>
      </g>
     </g>
     <g id="line2d_17">
      <g>
       <use style="stroke:#000000;stroke-width:0.5;" x="382.64875" xlink:href="#m84ee381afa" y="23.14175"/>
      </g>
     </g>
     <g id="text_8">
      <!-- 1400 -->
      <g transform="translate(367.37875 381.859875)scale(0.12 -0.12)">
       <use xlink:href="#BitstreamVeraSans-Roman-31"/>
       <use x="63.623046875" xlink:href="#BitstreamVeraSans-Roman-34"/>
       <use x="127.24609375" xlink:href="#BitstreamVeraSans-Roman-30"/>
       <use x="190.869140625" xlink:href="#BitstreamVeraSans-Roman-30"/>
      </g>
     </g>
    </g>
    <g id="xtick_9">
     <g id="line2d_18">
      <g>
       <use style="stroke:#000000;stroke-width:0.5;" x="432.24875" xlink:href="#m7e9c6aa95a" y="368.74175"/>
      </g>
     </g>
     <g id="line2d_19">
      <g>
       <use style="stroke:#000000;stroke-width:0.5;" x="432.24875" xlink:href="#m84ee381afa" y="23.14175"/>
      </g>
     </g>
     <g id="text_9">
      <!-- 1600 -->
      <g transform="translate(416.97875 381.859875)scale(0.12 -0.12)">
       <use xlink:href="#BitstreamVeraSans-Roman-31"/>
       <use x="63.623046875" xlink:href="#BitstreamVeraSans-Roman-36"/>
       <use x="127.24609375" xlink:href="#BitstreamVeraSans-Roman-30"/>
       <use x="190.869140625" xlink:href="#BitstreamVeraSans-Roman-30"/>
      </g>
     </g>
    </g>
    <g id="xtick_10">
     <g id="line2d_20">
      <g>
       <use style="stroke:#000000;stroke-width:0.5;" x="481.84875" xlink:href="#m7e9c6aa95a" y="368.74175"/>
      </g>
     </g>
     <g id="line2d_21">
      <g>
       <use style="stroke:#000000;stroke-width:0.5;" x="481.84875" xlink:href="#m84ee381afa" y="23.14175"/>
      </g>
     </g>
     <g id="text_10">
      <!-- 1800 -->
      <g transform="translate(466.57875 381.859875)scale(0.12 -0.12)">
       <use xlink:href="#BitstreamVeraSans-Roman-31"/>
       <use x="63.623046875" xlink:href="#BitstreamVeraSans-Roman-38"/>
       <use x="127.24609375" xlink:href="#BitstreamVeraSans-Roman-30"/>
       <use x="190.869140625" xlink:href="#BitstreamVeraSans-Roman-30"/>
      </g>
     </g>
    </g>
    <g id="text_11">
     <!-- episode -->
     <defs>
      <path d="M 44.28125 53.078125 
L 44.28125 44.578125 
Q 40.484375 46.53125 36.375 47.5 
Q 32.28125 48.484375 27.875 48.484375 
Q 21.1875 48.484375 17.84375 46.4375 
Q 14.5 44.390625 14.5 40.28125 
Q 14.5 37.15625 16.890625 35.375 
Q 19.28125 33.59375 26.515625 31.984375 
L 29.59375 31.296875 
Q 39.15625 29.25 43.1875 25.515625 
Q 47.21875 21.78125 47.21875 15.09375 
Q 47.21875 7.46875 41.1875 3.015625 
Q 35.15625 -1.421875 24.609375 -1.421875 
Q 20.21875 -1.421875 15.453125 -0.5625 
Q 10.6875 0.296875 5.421875 2 
L 5.421875 11.28125 
Q 10.40625 8.6875 15.234375 7.390625 
Q 20.0625 6.109375 24.8125 6.109375 
Q 31.15625 6.109375 34.5625 8.28125 
Q 37.984375 10.453125 37.984375 14.40625 
Q 37.984375 18.0625 35.515625 20.015625 
Q 33.0625 21.96875 24.703125 23.78125 
L 21.578125 24.515625 
Q 13.234375 26.265625 9.515625 29.90625 
Q 5.8125 33.546875 5.8125 39.890625 
Q 5.8125 47.609375 11.28125 51.796875 
Q 16.75 56 26.8125 56 
Q 31.78125 56 36.171875 55.265625 
Q 40.578125 54.546875 44.28125 53.078125 
" id="BitstreamVeraSans-Roman-73"/>
      <path d="M 56.203125 29.59375 
L 56.203125 25.203125 
L 14.890625 25.203125 
Q 15.484375 15.921875 20.484375 11.0625 
Q 25.484375 6.203125 34.421875 6.203125 
Q 39.59375 6.203125 44.453125 7.46875 
Q 49.3125 8.734375 54.109375 11.28125 
L 54.109375 2.78125 
Q 49.265625 0.734375 44.1875 -0.34375 
Q 39.109375 -1.421875 33.890625 -1.421875 
Q 20.796875 -1.421875 13.15625 6.1875 
Q 5.515625 13.8125 5.515625 26.8125 
Q 5.515625 40.234375 12.765625 48.109375 
Q 20.015625 56 32.328125 56 
Q 43.359375 56 49.78125 48.890625 
Q 56.203125 41.796875 56.203125 29.59375 
M 47.21875 32.234375 
Q 47.125 39.59375 43.09375 43.984375 
Q 39.0625 48.390625 32.421875 48.390625 
Q 24.90625 48.390625 20.390625 44.140625 
Q 15.875 39.890625 15.1875 32.171875 
z
" id="BitstreamVeraSans-Roman-65"/>
      <path d="M 9.421875 54.6875 
L 18.40625 54.6875 
L 18.40625 0 
L 9.421875 0 
z
M 9.421875 75.984375 
L 18.40625 75.984375 
L 18.40625 64.59375 
L 9.421875 64.59375 
z
" id="BitstreamVeraSans-Roman-69"/>
      <path d="M 30.609375 48.390625 
Q 23.390625 48.390625 19.1875 42.75 
Q 14.984375 37.109375 14.984375 27.296875 
Q 14.984375 17.484375 19.15625 11.84375 
Q 23.34375 6.203125 30.609375 6.203125 
Q 37.796875 6.203125 41.984375 11.859375 
Q 46.1875 17.53125 46.1875 27.296875 
Q 46.1875 37.015625 41.984375 42.703125 
Q 37.796875 48.390625 30.609375 48.390625 
M 30.609375 56 
Q 42.328125 56 49.015625 48.375 
Q 55.71875 40.765625 55.71875 27.296875 
Q 55.71875 13.875 49.015625 6.21875 
Q 42.328125 -1.421875 30.609375 -1.421875 
Q 18.84375 -1.421875 12.171875 6.21875 
Q 5.515625 13.875 5.515625 27.296875 
Q 5.515625 40.765625 12.171875 48.375 
Q 18.84375 56 30.609375 56 
" id="BitstreamVeraSans-Roman-6f"/>
      <path d="M 18.109375 8.203125 
L 18.109375 -20.796875 
L 9.078125 -20.796875 
L 9.078125 54.6875 
L 18.109375 54.6875 
L 18.109375 46.390625 
Q 20.953125 51.265625 25.265625 53.625 
Q 29.59375 56 35.59375 56 
Q 45.5625 56 51.78125 48.09375 
Q 58.015625 40.1875 58.015625 27.296875 
Q 58.015625 14.40625 51.78125 6.484375 
Q 45.5625 -1.421875 35.59375 -1.421875 
Q 29.59375 -1.421875 25.265625 0.953125 
Q 20.953125 3.328125 18.109375 8.203125 
M 48.6875 27.296875 
Q 48.6875 37.203125 44.609375 42.84375 
Q 40.53125 48.484375 33.40625 48.484375 
Q 26.265625 48.484375 22.1875 42.84375 
Q 18.109375 37.203125 18.109375 27.296875 
Q 18.109375 17.390625 22.1875 11.75 
Q 26.265625 6.109375 33.40625 6.109375 
Q 40.53125 6.109375 44.609375 11.75 
Q 48.6875 17.390625 48.6875 27.296875 
" id="BitstreamVeraSans-Roman-70"/>
      <path d="M 45.40625 46.390625 
L 45.40625 75.984375 
L 54.390625 75.984375 
L 54.390625 0 
L 45.40625 0 
L 45.40625 8.203125 
Q 42.578125 3.328125 38.25 0.953125 
Q 33.9375 -1.421875 27.875 -1.421875 
Q 17.96875 -1.421875 11.734375 6.484375 
Q 5.515625 14.40625 5.515625 27.296875 
Q 5.515625 40.1875 11.734375 48.09375 
Q 17.96875 56 27.875 56 
Q 33.9375 56 38.25 53.625 
Q 42.578125 51.265625 45.40625 46.390625 
M 14.796875 27.296875 
Q 14.796875 17.390625 18.875 11.75 
Q 22.953125 6.109375 30.078125 6.109375 
Q 37.203125 6.109375 41.296875 11.75 
Q 45.40625 17.390625 45.40625 27.296875 
Q 45.40625 37.203125 41.296875 42.84375 
Q 37.203125 48.484375 30.078125 48.484375 
Q 22.953125 48.484375 18.875 42.84375 
Q 14.796875 37.203125 14.796875 27.296875 
" id="BitstreamVeraSans-Roman-64"/>
     </defs>
     <g transform="translate(235.183125 398.473625)scale(0.12 -0.12)">
      <use xlink:href="#BitstreamVeraSans-Roman-65"/>
      <use x="61.5234375" xlink:href="#BitstreamVeraSans-Roman-70"/>
      <use x="125.0" xlink:href="#BitstreamVeraSans-Roman-69"/>
      <use x="152.783203125" xlink:href="#BitstreamVeraSans-Roman-73"/>
      <use x="204.8828125" xlink:href="#BitstreamVeraSans-Roman-6f"/>
      <use x="266.064453125" xlink:href="#BitstreamVeraSans-Roman-64"/>
      <use x="329.541015625" xlink:href="#BitstreamVeraSans-Roman-65"/>
     </g>
    </g>
   </g>
   <g id="matplotlib.axis_2">
    <g id="ytick_1">
     <g id="line2d_22">
      <defs>
       <path d="M 0 0 
L 4 0 
" id="m5cb9796c23" style="stroke:#000000;stroke-width:0.5;"/>
      </defs>
      <g>
       <use style="stroke:#000000;stroke-width:0.5;" x="35.44875" xlink:href="#m5cb9796c23" y="368.74175"/>
      </g>
     </g>
     <g id="line2d_23">
      <defs>
       <path d="M 0 0 
L -4 0 
" id="m4178150daa" style="stroke:#000000;stroke-width:0.5;"/>
      </defs>
      <g>
       <use style="stroke:#000000;stroke-width:0.5;" x="481.84875" xlink:href="#m4178150daa" y="368.74175"/>
      </g>
     </g>
     <g id="text_12">
      <!-- 0 -->
      <g transform="translate(23.81375 372.053)scale(0.12 -0.12)">
       <use xlink:href="#BitstreamVeraSans-Roman-30"/>
      </g>
     </g>
    </g>
    <g id="ytick_2">
     <g id="line2d_24">
      <g>
       <use style="stroke:#000000;stroke-width:0.5;" x="35.44875" xlink:href="#m5cb9796c23" y="311.14175"/>
      </g>
     </g>
     <g id="line2d_25">
      <g>
       <use style="stroke:#000000;stroke-width:0.5;" x="481.84875" xlink:href="#m4178150daa" y="311.14175"/>
      </g>
     </g>
     <g id="text_13">
      <!-- 1 -->
      <g transform="translate(23.81375 314.453)scale(0.12 -0.12)">
       <use xlink:href="#BitstreamVeraSans-Roman-31"/>
      </g>
     </g>
    </g>
    <g id="ytick_3">
     <g id="line2d_26">
      <g>
       <use style="stroke:#000000;stroke-width:0.5;" x="35.44875" xlink:href="#m5cb9796c23" y="253.54175"/>
      </g>
     </g>
     <g id="line2d_27">
      <g>
       <use style="stroke:#000000;stroke-width:0.5;" x="481.84875" xlink:href="#m4178150daa" y="253.54175"/>
      </g>
     </g>
     <g id="text_14">
      <!-- 2 -->
      <g transform="translate(23.81375 256.853)scale(0.12 -0.12)">
       <use xlink:href="#BitstreamVeraSans-Roman-32"/>
      </g>
     </g>
    </g>
    <g id="ytick_4">
     <g id="line2d_28">
      <g>
       <use style="stroke:#000000;stroke-width:0.5;" x="35.44875" xlink:href="#m5cb9796c23" y="195.94175"/>
      </g>
     </g>
     <g id="line2d_29">
      <g>
       <use style="stroke:#000000;stroke-width:0.5;" x="481.84875" xlink:href="#m4178150daa" y="195.94175"/>
      </g>
     </g>
     <g id="text_15">
      <!-- 3 -->
      <defs>
       <path d="M 40.578125 39.3125 
Q 47.65625 37.796875 51.625 33 
Q 55.609375 28.21875 55.609375 21.1875 
Q 55.609375 10.40625 48.1875 4.484375 
Q 40.765625 -1.421875 27.09375 -1.421875 
Q 22.515625 -1.421875 17.65625 -0.515625 
Q 12.796875 0.390625 7.625 2.203125 
L 7.625 11.71875 
Q 11.71875 9.328125 16.59375 8.109375 
Q 21.484375 6.890625 26.8125 6.890625 
Q 36.078125 6.890625 40.9375 10.546875 
Q 45.796875 14.203125 45.796875 21.1875 
Q 45.796875 27.640625 41.28125 31.265625 
Q 36.765625 34.90625 28.71875 34.90625 
L 20.21875 34.90625 
L 20.21875 43.015625 
L 29.109375 43.015625 
Q 36.375 43.015625 40.234375 45.921875 
Q 44.09375 48.828125 44.09375 54.296875 
Q 44.09375 59.90625 40.109375 62.90625 
Q 36.140625 65.921875 28.71875 65.921875 
Q 24.65625 65.921875 20.015625 65.03125 
Q 15.375 64.15625 9.8125 62.3125 
L 9.8125 71.09375 
Q 15.4375 72.65625 20.34375 73.4375 
Q 25.25 74.21875 29.59375 74.21875 
Q 40.828125 74.21875 47.359375 69.109375 
Q 53.90625 64.015625 53.90625 55.328125 
Q 53.90625 49.265625 50.4375 45.09375 
Q 46.96875 40.921875 40.578125 39.3125 
" id="BitstreamVeraSans-Roman-33"/>
      </defs>
      <g transform="translate(23.81375 199.253)scale(0.12 -0.12)">
       <use xlink:href="#BitstreamVeraSans-Roman-33"/>
      </g>
     </g>
    </g>
    <g id="ytick_5">
     <g id="line2d_30">
      <g>
       <use style="stroke:#000000;stroke-width:0.5;" x="35.44875" xlink:href="#m5cb9796c23" y="138.34175"/>
      </g>
     </g>
     <g id="line2d_31">
      <g>
       <use style="stroke:#000000;stroke-width:0.5;" x="481.84875" xlink:href="#m4178150daa" y="138.34175"/>
      </g>
     </g>
     <g id="text_16">
      <!-- 4 -->
      <g transform="translate(23.81375 141.653)scale(0.12 -0.12)">
       <use xlink:href="#BitstreamVeraSans-Roman-34"/>
      </g>
     </g>
    </g>
    <g id="ytick_6">
     <g id="line2d_32">
      <g>
       <use style="stroke:#000000;stroke-width:0.5;" x="35.44875" xlink:href="#m5cb9796c23" y="80.74175"/>
      </g>
     </g>
     <g id="line2d_33">
      <g>
       <use style="stroke:#000000;stroke-width:0.5;" x="481.84875" xlink:href="#m4178150daa" y="80.74175"/>
      </g>
     </g>
     <g id="text_17">
      <!-- 5 -->
      <defs>
       <path d="M 10.796875 72.90625 
L 49.515625 72.90625 
L 49.515625 64.59375 
L 19.828125 64.59375 
L 19.828125 46.734375 
Q 21.96875 47.46875 24.109375 47.828125 
Q 26.265625 48.1875 28.421875 48.1875 
Q 40.625 48.1875 47.75 41.5 
Q 54.890625 34.8125 54.890625 23.390625 
Q 54.890625 11.625 47.5625 5.09375 
Q 40.234375 -1.421875 26.90625 -1.421875 
Q 22.3125 -1.421875 17.546875 -0.640625 
Q 12.796875 0.140625 7.71875 1.703125 
L 7.71875 11.625 
Q 12.109375 9.234375 16.796875 8.0625 
Q 21.484375 6.890625 26.703125 6.890625 
Q 35.15625 6.890625 40.078125 11.328125 
Q 45.015625 15.765625 45.015625 23.390625 
Q 45.015625 31 40.078125 35.4375 
Q 35.15625 39.890625 26.703125 39.890625 
Q 22.75 39.890625 18.8125 39.015625 
Q 14.890625 38.140625 10.796875 36.28125 
z
" id="BitstreamVeraSans-Roman-35"/>
      </defs>
      <g transform="translate(23.81375 84.053)scale(0.12 -0.12)">
       <use xlink:href="#BitstreamVeraSans-Roman-35"/>
      </g>
     </g>
    </g>
    <g id="ytick_7">
     <g id="line2d_34">
      <g>
       <use style="stroke:#000000;stroke-width:0.5;" x="35.44875" xlink:href="#m5cb9796c23" y="23.14175"/>
      </g>
     </g>
     <g id="line2d_35">
      <g>
       <use style="stroke:#000000;stroke-width:0.5;" x="481.84875" xlink:href="#m4178150daa" y="23.14175"/>
      </g>
     </g>
     <g id="text_18">
      <!-- 6 -->
      <g transform="translate(23.81375 26.453)scale(0.12 -0.12)">
       <use xlink:href="#BitstreamVeraSans-Roman-36"/>
      </g>
     </g>
    </g>
    <g id="text_19">
     <!-- undisc. return -->
     <defs>
      <path id="BitstreamVeraSans-Roman-20"/>
      <path d="M 54.890625 33.015625 
L 54.890625 0 
L 45.90625 0 
L 45.90625 32.71875 
Q 45.90625 40.484375 42.875 44.328125 
Q 39.84375 48.1875 33.796875 48.1875 
Q 26.515625 48.1875 22.3125 43.546875 
Q 18.109375 38.921875 18.109375 30.90625 
L 18.109375 0 
L 9.078125 0 
L 9.078125 54.6875 
L 18.109375 54.6875 
L 18.109375 46.1875 
Q 21.34375 51.125 25.703125 53.5625 
Q 30.078125 56 35.796875 56 
Q 45.21875 56 50.046875 50.171875 
Q 54.890625 44.34375 54.890625 33.015625 
" id="BitstreamVeraSans-Roman-6e"/>
      <path d="M 48.78125 52.59375 
L 48.78125 44.1875 
Q 44.96875 46.296875 41.140625 47.34375 
Q 37.3125 48.390625 33.40625 48.390625 
Q 24.65625 48.390625 19.8125 42.84375 
Q 14.984375 37.3125 14.984375 27.296875 
Q 14.984375 17.28125 19.8125 11.734375 
Q 24.65625 6.203125 33.40625 6.203125 
Q 37.3125 6.203125 41.140625 7.25 
Q 44.96875 8.296875 48.78125 10.40625 
L 48.78125 2.09375 
Q 45.015625 0.34375 40.984375 -0.53125 
Q 36.96875 -1.421875 32.421875 -1.421875 
Q 20.0625 -1.421875 12.78125 6.34375 
Q 5.515625 14.109375 5.515625 27.296875 
Q 5.515625 40.671875 12.859375 48.328125 
Q 20.21875 56 33.015625 56 
Q 37.15625 56 41.109375 55.140625 
Q 45.0625 54.296875 48.78125 52.59375 
" id="BitstreamVeraSans-Roman-63"/>
      <path d="M 41.109375 46.296875 
Q 39.59375 47.171875 37.8125 47.578125 
Q 36.03125 48 33.890625 48 
Q 26.265625 48 22.1875 43.046875 
Q 18.109375 38.09375 18.109375 28.8125 
L 18.109375 0 
L 9.078125 0 
L 9.078125 54.6875 
L 18.109375 54.6875 
L 18.109375 46.1875 
Q 20.953125 51.171875 25.484375 53.578125 
Q 30.03125 56 36.53125 56 
Q 37.453125 56 38.578125 55.875 
Q 39.703125 55.765625 41.0625 55.515625 
z
" id="BitstreamVeraSans-Roman-72"/>
      <path d="M 8.5 21.578125 
L 8.5 54.6875 
L 17.484375 54.6875 
L 17.484375 21.921875 
Q 17.484375 14.15625 20.5 10.265625 
Q 23.53125 6.390625 29.59375 6.390625 
Q 36.859375 6.390625 41.078125 11.03125 
Q 45.3125 15.671875 45.3125 23.6875 
L 45.3125 54.6875 
L 54.296875 54.6875 
L 54.296875 0 
L 45.3125 0 
L 45.3125 8.40625 
Q 42.046875 3.421875 37.71875 1 
Q 33.40625 -1.421875 27.6875 -1.421875 
Q 18.265625 -1.421875 13.375 4.4375 
Q 8.5 10.296875 8.5 21.578125 
" id="BitstreamVeraSans-Roman-75"/>
      <path d="M 10.6875 12.40625 
L 21 12.40625 
L 21 0 
L 10.6875 0 
z
" id="BitstreamVeraSans-Roman-2e"/>
      <path d="M 18.3125 70.21875 
L 18.3125 54.6875 
L 36.8125 54.6875 
L 36.8125 47.703125 
L 18.3125 47.703125 
L 18.3125 18.015625 
Q 18.3125 11.328125 20.140625 9.421875 
Q 21.96875 7.515625 27.59375 7.515625 
L 36.8125 7.515625 
L 36.8125 0 
L 27.59375 0 
Q 17.1875 0 13.234375 3.875 
Q 9.28125 7.765625 9.28125 18.015625 
L 9.28125 47.703125 
L 2.6875 47.703125 
L 2.6875 54.6875 
L 9.28125 54.6875 
L 9.28125 70.21875 
z
" id="BitstreamVeraSans-Roman-74"/>
     </defs>
     <g transform="translate(16.318125 237.8405)rotate(-90.0)scale(0.12 -0.12)">
      <use xlink:href="#BitstreamVeraSans-Roman-75"/>
      <use x="63.37890625" xlink:href="#BitstreamVeraSans-Roman-6e"/>
      <use x="126.7578125" xlink:href="#BitstreamVeraSans-Roman-64"/>
      <use x="190.234375" xlink:href="#BitstreamVeraSans-Roman-69"/>
      <use x="218.017578125" xlink:href="#BitstreamVeraSans-Roman-73"/>
      <use x="270.1171875" xlink:href="#BitstreamVeraSans-Roman-63"/>
      <use x="325.09765625" xlink:href="#BitstreamVeraSans-Roman-2e"/>
      <use x="356.884765625" xlink:href="#BitstreamVeraSans-Roman-20"/>
      <use x="388.671875" xlink:href="#BitstreamVeraSans-Roman-72"/>
      <use x="429.75390625" xlink:href="#BitstreamVeraSans-Roman-65"/>
      <use x="491.27734375" xlink:href="#BitstreamVeraSans-Roman-74"/>
      <use x="530.486328125" xlink:href="#BitstreamVeraSans-Roman-75"/>
      <use x="593.865234375" xlink:href="#BitstreamVeraSans-Roman-72"/>
      <use x="634.962890625" xlink:href="#BitstreamVeraSans-Roman-6e"/>
     </g>
    </g>
   </g>
   <g id="text_20">
    <!-- Undiscounted return obtained -->
    <defs>
     <path d="M 34.28125 27.484375 
Q 23.390625 27.484375 19.1875 25 
Q 14.984375 22.515625 14.984375 16.5 
Q 14.984375 11.71875 18.140625 8.90625 
Q 21.296875 6.109375 26.703125 6.109375 
Q 34.1875 6.109375 38.703125 11.40625 
Q 43.21875 16.703125 43.21875 25.484375 
L 43.21875 27.484375 
z
M 52.203125 31.203125 
L 52.203125 0 
L 43.21875 0 
L 43.21875 8.296875 
Q 40.140625 3.328125 35.546875 0.953125 
Q 30.953125 -1.421875 24.3125 -1.421875 
Q 15.921875 -1.421875 10.953125 3.296875 
Q 6 8.015625 6 15.921875 
Q 6 25.140625 12.171875 29.828125 
Q 18.359375 34.515625 30.609375 34.515625 
L 43.21875 34.515625 
L 43.21875 35.40625 
Q 43.21875 41.609375 39.140625 45 
Q 35.0625 48.390625 27.6875 48.390625 
Q 23 48.390625 18.546875 47.265625 
Q 14.109375 46.140625 10.015625 43.890625 
L 10.015625 52.203125 
Q 14.9375 54.109375 19.578125 55.046875 
Q 24.21875 56 28.609375 56 
Q 40.484375 56 46.34375 49.84375 
Q 52.203125 43.703125 52.203125 31.203125 
" id="BitstreamVeraSans-Roman-61"/>
     <path d="M 8.6875 72.90625 
L 18.609375 72.90625 
L 18.609375 28.609375 
Q 18.609375 16.890625 22.84375 11.734375 
Q 27.09375 6.59375 36.625 6.59375 
Q 46.09375 6.59375 50.34375 11.734375 
Q 54.59375 16.890625 54.59375 28.609375 
L 54.59375 72.90625 
L 64.5 72.90625 
L 64.5 27.390625 
Q 64.5 13.140625 57.4375 5.859375 
Q 50.390625 -1.421875 36.625 -1.421875 
Q 22.796875 -1.421875 15.734375 5.859375 
Q 8.6875 13.140625 8.6875 27.390625 
z
" id="BitstreamVeraSans-Roman-55"/>
     <path d="M 48.6875 27.296875 
Q 48.6875 37.203125 44.609375 42.84375 
Q 40.53125 48.484375 33.40625 48.484375 
Q 26.265625 48.484375 22.1875 42.84375 
Q 18.109375 37.203125 18.109375 27.296875 
Q 18.109375 17.390625 22.1875 11.75 
Q 26.265625 6.109375 33.40625 6.109375 
Q 40.53125 6.109375 44.609375 11.75 
Q 48.6875 17.390625 48.6875 27.296875 
M 18.109375 46.390625 
Q 20.953125 51.265625 25.265625 53.625 
Q 29.59375 56 35.59375 56 
Q 45.5625 56 51.78125 48.09375 
Q 58.015625 40.1875 58.015625 27.296875 
Q 58.015625 14.40625 51.78125 6.484375 
Q 45.5625 -1.421875 35.59375 -1.421875 
Q 29.59375 -1.421875 25.265625 0.953125 
Q 20.953125 3.328125 18.109375 8.203125 
L 18.109375 0 
L 9.078125 0 
L 9.078125 75.984375 
L 18.109375 75.984375 
z
" id="BitstreamVeraSans-Roman-62"/>
    </defs>
    <g transform="translate(150.532875 18.14175)scale(0.144 -0.144)">
     <use xlink:href="#BitstreamVeraSans-Roman-55"/>
     <use x="73.193359375" xlink:href="#BitstreamVeraSans-Roman-6e"/>
     <use x="136.572265625" xlink:href="#BitstreamVeraSans-Roman-64"/>
     <use x="200.048828125" xlink:href="#BitstreamVeraSans-Roman-69"/>
     <use x="227.83203125" xlink:href="#BitstreamVeraSans-Roman-73"/>
     <use x="279.931640625" xlink:href="#BitstreamVeraSans-Roman-63"/>
     <use x="334.912109375" xlink:href="#BitstreamVeraSans-Roman-6f"/>
     <use x="396.09375" xlink:href="#BitstreamVeraSans-Roman-75"/>
     <use x="459.47265625" xlink:href="#BitstreamVeraSans-Roman-6e"/>
     <use x="522.8515625" xlink:href="#BitstreamVeraSans-Roman-74"/>
     <use x="562.060546875" xlink:href="#BitstreamVeraSans-Roman-65"/>
     <use x="623.583984375" xlink:href="#BitstreamVeraSans-Roman-64"/>
     <use x="687.060546875" xlink:href="#BitstreamVeraSans-Roman-20"/>
     <use x="718.84765625" xlink:href="#BitstreamVeraSans-Roman-72"/>
     <use x="759.9296875" xlink:href="#BitstreamVeraSans-Roman-65"/>
     <use x="821.453125" xlink:href="#BitstreamVeraSans-Roman-74"/>
     <use x="860.662109375" xlink:href="#BitstreamVeraSans-Roman-75"/>
     <use x="924.041015625" xlink:href="#BitstreamVeraSans-Roman-72"/>
     <use x="965.138671875" xlink:href="#BitstreamVeraSans-Roman-6e"/>
     <use x="1028.517578125" xlink:href="#BitstreamVeraSans-Roman-20"/>
     <use x="1060.3046875" xlink:href="#BitstreamVeraSans-Roman-6f"/>
     <use x="1121.486328125" xlink:href="#BitstreamVeraSans-Roman-62"/>
     <use x="1184.962890625" xlink:href="#BitstreamVeraSans-Roman-74"/>
     <use x="1224.171875" xlink:href="#BitstreamVeraSans-Roman-61"/>
     <use x="1285.451171875" xlink:href="#BitstreamVeraSans-Roman-69"/>
     <use x="1313.234375" xlink:href="#BitstreamVeraSans-Roman-6e"/>
     <use x="1376.61328125" xlink:href="#BitstreamVeraSans-Roman-65"/>
     <use x="1438.13671875" xlink:href="#BitstreamVeraSans-Roman-64"/>
    </g>
   </g>
  </g>
 </g>
 <defs>
  <clipPath id="p8220800f03">
   <rect height="345.6" width="446.4" x="35.44875" y="23.14175"/>
  </clipPath>
 </defs>
</svg>
