<?xml version="1.0" encoding="utf-8" standalone="no"?>
<!DOCTYPE svg PUBLIC "-//W3C//DTD SVG 1.1//EN"
  "http://www.w3.org/Graphics/SVG/1.1/DTD/svg11.dtd">
<!-- Created with matplotlib (http://matplotlib.org/) -->
<svg height="325pt" version="1.1" viewBox="0 0 408 325" width="408pt" xmlns="http://www.w3.org/2000/svg" xmlns:xlink="http://www.w3.org/1999/xlink">
 <defs>
  <style type="text/css">
*{stroke-linecap:butt;stroke-linejoin:round;}
  </style>
 </defs>
 <g id="figure_1">
  <g id="patch_1">
   <path d="M 0 325.986375 
L 408.423125 325.986375 
L 408.423125 0 
L 0 0 
z
" style="fill:#ffffff;"/>
  </g>
  <g id="axes_1">
   <g id="patch_2">
    <path d="M 40.603125 288.430125 
L 397.723125 288.430125 
L 397.723125 22.318125 
L 40.603125 22.318125 
z
" style="fill:#ffffff;"/>
   </g>
   <g id="matplotlib.axis_1">
    <g id="xtick_1">
     <g id="line2d_1">
      <defs>
       <path d="M 0 0 
L 0 3.5 
" id="macd407cb1a" style="stroke:#000000;stroke-width:0.8;"/>
      </defs>
      <g>
       <use style="stroke:#000000;stroke-width:0.8;" x="56.835852" xlink:href="#macd407cb1a" y="288.430125"/>
      </g>
     </g>
     <g id="text_1">
      <!-- 0 -->
      <defs>
       <path d="M 31.78125 66.40625 
Q 24.171875 66.40625 20.328125 58.90625 
Q 16.5 51.421875 16.5 36.375 
Q 16.5 21.390625 20.328125 13.890625 
Q 24.171875 6.390625 31.78125 6.390625 
Q 39.453125 6.390625 43.28125 13.890625 
Q 47.125 21.390625 47.125 36.375 
Q 47.125 51.421875 43.28125 58.90625 
Q 39.453125 66.40625 31.78125 66.40625 
z
M 31.78125 74.21875 
Q 44.046875 74.21875 50.515625 64.515625 
Q 56.984375 54.828125 56.984375 36.375 
Q 56.984375 17.96875 50.515625 8.265625 
Q 44.046875 -1.421875 31.78125 -1.421875 
Q 19.53125 -1.421875 13.0625 8.265625 
Q 6.59375 17.96875 6.59375 36.375 
Q 6.59375 54.828125 13.0625 64.515625 
Q 19.53125 74.21875 31.78125 74.21875 
z
" id="DejaVuSans-30"/>
      </defs>
      <g transform="translate(53.654602 303.028562)scale(0.1 -0.1)">
       <use xlink:href="#DejaVuSans-30"/>
      </g>
     </g>
    </g>
    <g id="xtick_2">
     <g id="line2d_2">
      <g>
       <use style="stroke:#000000;stroke-width:0.8;" x="97.468461" xlink:href="#macd407cb1a" y="288.430125"/>
      </g>
     </g>
     <g id="text_2">
      <!-- 200 -->
      <defs>
       <path d="M 19.1875 8.296875 
L 53.609375 8.296875 
L 53.609375 0 
L 7.328125 0 
L 7.328125 8.296875 
Q 12.9375 14.109375 22.625 23.890625 
Q 32.328125 33.6875 34.8125 36.53125 
Q 39.546875 41.84375 41.421875 45.53125 
Q 43.3125 49.21875 43.3125 52.78125 
Q 43.3125 58.59375 39.234375 62.25 
Q 35.15625 65.921875 28.609375 65.921875 
Q 23.96875 65.921875 18.8125 64.3125 
Q 13.671875 62.703125 7.8125 59.421875 
L 7.8125 69.390625 
Q 13.765625 71.78125 18.9375 73 
Q 24.125 74.21875 28.421875 74.21875 
Q 39.75 74.21875 46.484375 68.546875 
Q 53.21875 62.890625 53.21875 53.421875 
Q 53.21875 48.921875 51.53125 44.890625 
Q 49.859375 40.875 45.40625 35.40625 
Q 44.1875 33.984375 37.640625 27.21875 
Q 31.109375 20.453125 19.1875 8.296875 
z
" id="DejaVuSans-32"/>
      </defs>
      <g transform="translate(87.924711 303.028562)scale(0.1 -0.1)">
       <use xlink:href="#DejaVuSans-32"/>
       <use x="63.623047" xlink:href="#DejaVuSans-30"/>
       <use x="127.246094" xlink:href="#DejaVuSans-30"/>
      </g>
     </g>
    </g>
    <g id="xtick_3">
     <g id="line2d_3">
      <g>
       <use style="stroke:#000000;stroke-width:0.8;" x="138.10107" xlink:href="#macd407cb1a" y="288.430125"/>
      </g>
     </g>
     <g id="text_3">
      <!-- 400 -->
      <defs>
       <path d="M 37.796875 64.3125 
L 12.890625 25.390625 
L 37.796875 25.390625 
z
M 35.203125 72.90625 
L 47.609375 72.90625 
L 47.609375 25.390625 
L 58.015625 25.390625 
L 58.015625 17.1875 
L 47.609375 17.1875 
L 47.609375 0 
L 37.796875 0 
L 37.796875 17.1875 
L 4.890625 17.1875 
L 4.890625 26.703125 
z
" id="DejaVuSans-34"/>
      </defs>
      <g transform="translate(128.55732 303.028562)scale(0.1 -0.1)">
       <use xlink:href="#DejaVuSans-34"/>
       <use x="63.623047" xlink:href="#DejaVuSans-30"/>
       <use x="127.246094" xlink:href="#DejaVuSans-30"/>
      </g>
     </g>
    </g>
    <g id="xtick_4">
     <g id="line2d_4">
      <g>
       <use style="stroke:#000000;stroke-width:0.8;" x="178.733679" xlink:href="#macd407cb1a" y="288.430125"/>
      </g>
     </g>
     <g id="text_4">
      <!-- 600 -->
      <defs>
       <path d="M 33.015625 40.375 
Q 26.375 40.375 22.484375 35.828125 
Q 18.609375 31.296875 18.609375 23.390625 
Q 18.609375 15.53125 22.484375 10.953125 
Q 26.375 6.390625 33.015625 6.390625 
Q 39.65625 6.390625 43.53125 10.953125 
Q 47.40625 15.53125 47.40625 23.390625 
Q 47.40625 31.296875 43.53125 35.828125 
Q 39.65625 40.375 33.015625 40.375 
z
M 52.59375 71.296875 
L 52.59375 62.3125 
Q 48.875 64.0625 45.09375 64.984375 
Q 41.3125 65.921875 37.59375 65.921875 
Q 27.828125 65.921875 22.671875 59.328125 
Q 17.53125 52.734375 16.796875 39.40625 
Q 19.671875 43.65625 24.015625 45.921875 
Q 28.375 48.1875 33.59375 48.1875 
Q 44.578125 48.1875 50.953125 41.515625 
Q 57.328125 34.859375 57.328125 23.390625 
Q 57.328125 12.15625 50.6875 5.359375 
Q 44.046875 -1.421875 33.015625 -1.421875 
Q 20.359375 -1.421875 13.671875 8.265625 
Q 6.984375 17.96875 6.984375 36.375 
Q 6.984375 53.65625 15.1875 63.9375 
Q 23.390625 74.21875 37.203125 74.21875 
Q 40.921875 74.21875 44.703125 73.484375 
Q 48.484375 72.75 52.59375 71.296875 
z
" id="DejaVuSans-36"/>
      </defs>
      <g transform="translate(169.189929 303.028562)scale(0.1 -0.1)">
       <use xlink:href="#DejaVuSans-36"/>
       <use x="63.623047" xlink:href="#DejaVuSans-30"/>
       <use x="127.246094" xlink:href="#DejaVuSans-30"/>
      </g>
     </g>
    </g>
    <g id="xtick_5">
     <g id="line2d_5">
      <g>
       <use style="stroke:#000000;stroke-width:0.8;" x="219.366288" xlink:href="#macd407cb1a" y="288.430125"/>
      </g>
     </g>
     <g id="text_5">
      <!-- 800 -->
      <defs>
       <path d="M 31.78125 34.625 
Q 24.75 34.625 20.71875 30.859375 
Q 16.703125 27.09375 16.703125 20.515625 
Q 16.703125 13.921875 20.71875 10.15625 
Q 24.75 6.390625 31.78125 6.390625 
Q 38.8125 6.390625 42.859375 10.171875 
Q 46.921875 13.96875 46.921875 20.515625 
Q 46.921875 27.09375 42.890625 30.859375 
Q 38.875 34.625 31.78125 34.625 
z
M 21.921875 38.8125 
Q 15.578125 40.375 12.03125 44.71875 
Q 8.5 49.078125 8.5 55.328125 
Q 8.5 64.0625 14.71875 69.140625 
Q 20.953125 74.21875 31.78125 74.21875 
Q 42.671875 74.21875 48.875 69.140625 
Q 55.078125 64.0625 55.078125 55.328125 
Q 55.078125 49.078125 51.53125 44.71875 
Q 48 40.375 41.703125 38.8125 
Q 48.828125 37.15625 52.796875 32.3125 
Q 56.78125 27.484375 56.78125 20.515625 
Q 56.78125 9.90625 50.3125 4.234375 
Q 43.84375 -1.421875 31.78125 -1.421875 
Q 19.734375 -1.421875 13.25 4.234375 
Q 6.78125 9.90625 6.78125 20.515625 
Q 6.78125 27.484375 10.78125 32.3125 
Q 14.796875 37.15625 21.921875 38.8125 
z
M 18.3125 54.390625 
Q 18.3125 48.734375 21.84375 45.5625 
Q 25.390625 42.390625 31.78125 42.390625 
Q 38.140625 42.390625 41.71875 45.5625 
Q 45.3125 48.734375 45.3125 54.390625 
Q 45.3125 60.0625 41.71875 63.234375 
Q 38.140625 66.40625 31.78125 66.40625 
Q 25.390625 66.40625 21.84375 63.234375 
Q 18.3125 60.0625 18.3125 54.390625 
z
" id="DejaVuSans-38"/>
      </defs>
      <g transform="translate(209.822538 303.028562)scale(0.1 -0.1)">
       <use xlink:href="#DejaVuSans-38"/>
       <use x="63.623047" xlink:href="#DejaVuSans-30"/>
       <use x="127.246094" xlink:href="#DejaVuSans-30"/>
      </g>
     </g>
    </g>
    <g id="xtick_6">
     <g id="line2d_6">
      <g>
       <use style="stroke:#000000;stroke-width:0.8;" x="259.998897" xlink:href="#macd407cb1a" y="288.430125"/>
      </g>
     </g>
     <g id="text_6">
      <!-- 1000 -->
      <defs>
       <path d="M 12.40625 8.296875 
L 28.515625 8.296875 
L 28.515625 63.921875 
L 10.984375 60.40625 
L 10.984375 69.390625 
L 28.421875 72.90625 
L 38.28125 72.90625 
L 38.28125 8.296875 
L 54.390625 8.296875 
L 54.390625 0 
L 12.40625 0 
z
" id="DejaVuSans-31"/>
      </defs>
      <g transform="translate(247.273897 303.028562)scale(0.1 -0.1)">
       <use xlink:href="#DejaVuSans-31"/>
       <use x="63.623047" xlink:href="#DejaVuSans-30"/>
       <use x="127.246094" xlink:href="#DejaVuSans-30"/>
       <use x="190.869141" xlink:href="#DejaVuSans-30"/>
      </g>
     </g>
    </g>
    <g id="xtick_7">
     <g id="line2d_7">
      <g>
       <use style="stroke:#000000;stroke-width:0.8;" x="300.631506" xlink:href="#macd407cb1a" y="288.430125"/>
      </g>
     </g>
     <g id="text_7">
      <!-- 1200 -->
      <g transform="translate(287.906506 303.028562)scale(0.1 -0.1)">
       <use xlink:href="#DejaVuSans-31"/>
       <use x="63.623047" xlink:href="#DejaVuSans-32"/>
       <use x="127.246094" xlink:href="#DejaVuSans-30"/>
       <use x="190.869141" xlink:href="#DejaVuSans-30"/>
      </g>
     </g>
    </g>
    <g id="xtick_8">
     <g id="line2d_8">
      <g>
       <use style="stroke:#000000;stroke-width:0.8;" x="341.264115" xlink:href="#macd407cb1a" y="288.430125"/>
      </g>
     </g>
     <g id="text_8">
      <!-- 1400 -->
      <g transform="translate(328.539115 303.028562)scale(0.1 -0.1)">
       <use xlink:href="#DejaVuSans-31"/>
       <use x="63.623047" xlink:href="#DejaVuSans-34"/>
       <use x="127.246094" xlink:href="#DejaVuSans-30"/>
       <use x="190.869141" xlink:href="#DejaVuSans-30"/>
      </g>
     </g>
    </g>
    <g id="xtick_9">
     <g id="line2d_9">
      <g>
       <use style="stroke:#000000;stroke-width:0.8;" x="381.896724" xlink:href="#macd407cb1a" y="288.430125"/>
      </g>
     </g>
     <g id="text_9">
      <!-- 1600 -->
      <g transform="translate(369.171724 303.028562)scale(0.1 -0.1)">
       <use xlink:href="#DejaVuSans-31"/>
       <use x="63.623047" xlink:href="#DejaVuSans-36"/>
       <use x="127.246094" xlink:href="#DejaVuSans-30"/>
       <use x="190.869141" xlink:href="#DejaVuSans-30"/>
      </g>
     </g>
    </g>
    <g id="text_10">
     <!-- episode -->
     <defs>
      <path d="M 56.203125 29.59375 
L 56.203125 25.203125 
L 14.890625 25.203125 
Q 15.484375 15.921875 20.484375 11.0625 
Q 25.484375 6.203125 34.421875 6.203125 
Q 39.59375 6.203125 44.453125 7.46875 
Q 49.3125 8.734375 54.109375 11.28125 
L 54.109375 2.78125 
Q 49.265625 0.734375 44.1875 -0.34375 
Q 39.109375 -1.421875 33.890625 -1.421875 
Q 20.796875 -1.421875 13.15625 6.1875 
Q 5.515625 13.8125 5.515625 26.8125 
Q 5.515625 40.234375 12.765625 48.109375 
Q 20.015625 56 32.328125 56 
Q 43.359375 56 49.78125 48.890625 
Q 56.203125 41.796875 56.203125 29.59375 
z
M 47.21875 32.234375 
Q 47.125 39.59375 43.09375 43.984375 
Q 39.0625 48.390625 32.421875 48.390625 
Q 24.90625 48.390625 20.390625 44.140625 
Q 15.875 39.890625 15.1875 32.171875 
z
" id="DejaVuSans-65"/>
      <path d="M 18.109375 8.203125 
L 18.109375 -20.796875 
L 9.078125 -20.796875 
L 9.078125 54.6875 
L 18.109375 54.6875 
L 18.109375 46.390625 
Q 20.953125 51.265625 25.265625 53.625 
Q 29.59375 56 35.59375 56 
Q 45.5625 56 51.78125 48.09375 
Q 58.015625 40.1875 58.015625 27.296875 
Q 58.015625 14.40625 51.78125 6.484375 
Q 45.5625 -1.421875 35.59375 -1.421875 
Q 29.59375 -1.421875 25.265625 0.953125 
Q 20.953125 3.328125 18.109375 8.203125 
z
M 48.6875 27.296875 
Q 48.6875 37.203125 44.609375 42.84375 
Q 40.53125 48.484375 33.40625 48.484375 
Q 26.265625 48.484375 22.1875 42.84375 
Q 18.109375 37.203125 18.109375 27.296875 
Q 18.109375 17.390625 22.1875 11.75 
Q 26.265625 6.109375 33.40625 6.109375 
Q 40.53125 6.109375 44.609375 11.75 
Q 48.6875 17.390625 48.6875 27.296875 
z
" id="DejaVuSans-70"/>
      <path d="M 9.421875 54.6875 
L 18.40625 54.6875 
L 18.40625 0 
L 9.421875 0 
z
M 9.421875 75.984375 
L 18.40625 75.984375 
L 18.40625 64.59375 
L 9.421875 64.59375 
z
" id="DejaVuSans-69"/>
      <path d="M 44.28125 53.078125 
L 44.28125 44.578125 
Q 40.484375 46.53125 36.375 47.5 
Q 32.28125 48.484375 27.875 48.484375 
Q 21.1875 48.484375 17.84375 46.4375 
Q 14.5 44.390625 14.5 40.28125 
Q 14.5 37.15625 16.890625 35.375 
Q 19.28125 33.59375 26.515625 31.984375 
L 29.59375 31.296875 
Q 39.15625 29.25 43.1875 25.515625 
Q 47.21875 21.78125 47.21875 15.09375 
Q 47.21875 7.46875 41.1875 3.015625 
Q 35.15625 -1.421875 24.609375 -1.421875 
Q 20.21875 -1.421875 15.453125 -0.5625 
Q 10.6875 0.296875 5.421875 2 
L 5.421875 11.28125 
Q 10.40625 8.6875 15.234375 7.390625 
Q 20.0625 6.109375 24.8125 6.109375 
Q 31.15625 6.109375 34.5625 8.28125 
Q 37.984375 10.453125 37.984375 14.40625 
Q 37.984375 18.0625 35.515625 20.015625 
Q 33.0625 21.96875 24.703125 23.78125 
L 21.578125 24.515625 
Q 13.234375 26.265625 9.515625 29.90625 
Q 5.8125 33.546875 5.8125 39.890625 
Q 5.8125 47.609375 11.28125 51.796875 
Q 16.75 56 26.8125 56 
Q 31.78125 56 36.171875 55.265625 
Q 40.578125 54.546875 44.28125 53.078125 
z
" id="DejaVuSans-73"/>
      <path d="M 30.609375 48.390625 
Q 23.390625 48.390625 19.1875 42.75 
Q 14.984375 37.109375 14.984375 27.296875 
Q 14.984375 17.484375 19.15625 11.84375 
Q 23.34375 6.203125 30.609375 6.203125 
Q 37.796875 6.203125 41.984375 11.859375 
Q 46.1875 17.53125 46.1875 27.296875 
Q 46.1875 37.015625 41.984375 42.703125 
Q 37.796875 48.390625 30.609375 48.390625 
z
M 30.609375 56 
Q 42.328125 56 49.015625 48.375 
Q 55.71875 40.765625 55.71875 27.296875 
Q 55.71875 13.875 49.015625 6.21875 
Q 42.328125 -1.421875 30.609375 -1.421875 
Q 18.84375 -1.421875 12.171875 6.21875 
Q 5.515625 13.875 5.515625 27.296875 
Q 5.515625 40.765625 12.171875 48.375 
Q 18.84375 56 30.609375 56 
z
" id="DejaVuSans-6f"/>
      <path d="M 45.40625 46.390625 
L 45.40625 75.984375 
L 54.390625 75.984375 
L 54.390625 0 
L 45.40625 0 
L 45.40625 8.203125 
Q 42.578125 3.328125 38.25 0.953125 
Q 33.9375 -1.421875 27.875 -1.421875 
Q 17.96875 -1.421875 11.734375 6.484375 
Q 5.515625 14.40625 5.515625 27.296875 
Q 5.515625 40.1875 11.734375 48.09375 
Q 17.96875 56 27.875 56 
Q 33.9375 56 38.25 53.625 
Q 42.578125 51.265625 45.40625 46.390625 
z
M 14.796875 27.296875 
Q 14.796875 17.390625 18.875 11.75 
Q 22.953125 6.109375 30.078125 6.109375 
Q 37.203125 6.109375 41.296875 11.75 
Q 45.40625 17.390625 45.40625 27.296875 
Q 45.40625 37.203125 41.296875 42.84375 
Q 37.203125 48.484375 30.078125 48.484375 
Q 22.953125 48.484375 18.875 42.84375 
Q 14.796875 37.203125 14.796875 27.296875 
z
" id="DejaVuSans-64"/>
     </defs>
     <g transform="translate(199.608438 316.706687)scale(0.1 -0.1)">
      <use xlink:href="#DejaVuSans-65"/>
      <use x="61.523438" xlink:href="#DejaVuSans-70"/>
      <use x="125" xlink:href="#DejaVuSans-69"/>
      <use x="152.783203" xlink:href="#DejaVuSans-73"/>
      <use x="204.882812" xlink:href="#DejaVuSans-6f"/>
      <use x="266.064453" xlink:href="#DejaVuSans-64"/>
      <use x="329.541016" xlink:href="#DejaVuSans-65"/>
     </g>
    </g>
   </g>
   <g id="matplotlib.axis_2">
    <g id="ytick_1">
     <g id="line2d_10">
      <defs>
       <path d="M 0 0 
L -3.5 0 
" id="maa24c6661b" style="stroke:#000000;stroke-width:0.8;"/>
      </defs>
      <g>
       <use style="stroke:#000000;stroke-width:0.8;" x="40.603125" xlink:href="#maa24c6661b" y="265.763518"/>
      </g>
     </g>
     <g id="text_11">
      <!-- 2 -->
      <g transform="translate(27.240625 269.562737)scale(0.1 -0.1)">
       <use xlink:href="#DejaVuSans-32"/>
      </g>
     </g>
    </g>
    <g id="ytick_2">
     <g id="line2d_11">
      <g>
       <use style="stroke:#000000;stroke-width:0.8;" x="40.603125" xlink:href="#maa24c6661b" y="227.228086"/>
      </g>
     </g>
     <g id="text_12">
      <!-- 4 -->
      <g transform="translate(27.240625 231.027304)scale(0.1 -0.1)">
       <use xlink:href="#DejaVuSans-34"/>
      </g>
     </g>
    </g>
    <g id="ytick_3">
     <g id="line2d_12">
      <g>
       <use style="stroke:#000000;stroke-width:0.8;" x="40.603125" xlink:href="#maa24c6661b" y="188.692653"/>
      </g>
     </g>
     <g id="text_13">
      <!-- 6 -->
      <g transform="translate(27.240625 192.491872)scale(0.1 -0.1)">
       <use xlink:href="#DejaVuSans-36"/>
      </g>
     </g>
    </g>
    <g id="ytick_4">
     <g id="line2d_13">
      <g>
       <use style="stroke:#000000;stroke-width:0.8;" x="40.603125" xlink:href="#maa24c6661b" y="150.15722"/>
      </g>
     </g>
     <g id="text_14">
      <!-- 8 -->
      <g transform="translate(27.240625 153.956439)scale(0.1 -0.1)">
       <use xlink:href="#DejaVuSans-38"/>
      </g>
     </g>
    </g>
    <g id="ytick_5">
     <g id="line2d_14">
      <g>
       <use style="stroke:#000000;stroke-width:0.8;" x="40.603125" xlink:href="#maa24c6661b" y="111.621787"/>
      </g>
     </g>
     <g id="text_15">
      <!-- 10 -->
      <g transform="translate(20.878125 115.421006)scale(0.1 -0.1)">
       <use xlink:href="#DejaVuSans-31"/>
       <use x="63.623047" xlink:href="#DejaVuSans-30"/>
      </g>
     </g>
    </g>
    <g id="ytick_6">
     <g id="line2d_15">
      <g>
       <use style="stroke:#000000;stroke-width:0.8;" x="40.603125" xlink:href="#maa24c6661b" y="73.086354"/>
      </g>
     </g>
     <g id="text_16">
      <!-- 12 -->
      <g transform="translate(20.878125 76.885573)scale(0.1 -0.1)">
       <use xlink:href="#DejaVuSans-31"/>
       <use x="63.623047" xlink:href="#DejaVuSans-32"/>
      </g>
     </g>
    </g>
    <g id="ytick_7">
     <g id="line2d_16">
      <g>
       <use style="stroke:#000000;stroke-width:0.8;" x="40.603125" xlink:href="#maa24c6661b" y="34.550922"/>
      </g>
     </g>
     <g id="text_17">
      <!-- 14 -->
      <g transform="translate(20.878125 38.35014)scale(0.1 -0.1)">
       <use xlink:href="#DejaVuSans-31"/>
       <use x="63.623047" xlink:href="#DejaVuSans-34"/>
      </g>
     </g>
    </g>
    <g id="text_18">
     <!-- average maxQ -->
     <defs>
      <path d="M 34.28125 27.484375 
Q 23.390625 27.484375 19.1875 25 
Q 14.984375 22.515625 14.984375 16.5 
Q 14.984375 11.71875 18.140625 8.90625 
Q 21.296875 6.109375 26.703125 6.109375 
Q 34.1875 6.109375 38.703125 11.40625 
Q 43.21875 16.703125 43.21875 25.484375 
L 43.21875 27.484375 
z
M 52.203125 31.203125 
L 52.203125 0 
L 43.21875 0 
L 43.21875 8.296875 
Q 40.140625 3.328125 35.546875 0.953125 
Q 30.953125 -1.421875 24.3125 -1.421875 
Q 15.921875 -1.421875 10.953125 3.296875 
Q 6 8.015625 6 15.921875 
Q 6 25.140625 12.171875 29.828125 
Q 18.359375 34.515625 30.609375 34.515625 
L 43.21875 34.515625 
L 43.21875 35.40625 
Q 43.21875 41.609375 39.140625 45 
Q 35.0625 48.390625 27.6875 48.390625 
Q 23 48.390625 18.546875 47.265625 
Q 14.109375 46.140625 10.015625 43.890625 
L 10.015625 52.203125 
Q 14.9375 54.109375 19.578125 55.046875 
Q 24.21875 56 28.609375 56 
Q 40.484375 56 46.34375 49.84375 
Q 52.203125 43.703125 52.203125 31.203125 
z
" id="DejaVuSans-61"/>
      <path d="M 2.984375 54.6875 
L 12.5 54.6875 
L 29.59375 8.796875 
L 46.6875 54.6875 
L 56.203125 54.6875 
L 35.6875 0 
L 23.484375 0 
z
" id="DejaVuSans-76"/>
      <path d="M 41.109375 46.296875 
Q 39.59375 47.171875 37.8125 47.578125 
Q 36.03125 48 33.890625 48 
Q 26.265625 48 22.1875 43.046875 
Q 18.109375 38.09375 18.109375 28.8125 
L 18.109375 0 
L 9.078125 0 
L 9.078125 54.6875 
L 18.109375 54.6875 
L 18.109375 46.1875 
Q 20.953125 51.171875 25.484375 53.578125 
Q 30.03125 56 36.53125 56 
Q 37.453125 56 38.578125 55.875 
Q 39.703125 55.765625 41.0625 55.515625 
z
" id="DejaVuSans-72"/>
      <path d="M 45.40625 27.984375 
Q 45.40625 37.75 41.375 43.109375 
Q 37.359375 48.484375 30.078125 48.484375 
Q 22.859375 48.484375 18.828125 43.109375 
Q 14.796875 37.75 14.796875 27.984375 
Q 14.796875 18.265625 18.828125 12.890625 
Q 22.859375 7.515625 30.078125 7.515625 
Q 37.359375 7.515625 41.375 12.890625 
Q 45.40625 18.265625 45.40625 27.984375 
z
M 54.390625 6.78125 
Q 54.390625 -7.171875 48.1875 -13.984375 
Q 42 -20.796875 29.203125 -20.796875 
Q 24.46875 -20.796875 20.265625 -20.09375 
Q 16.0625 -19.390625 12.109375 -17.921875 
L 12.109375 -9.1875 
Q 16.0625 -11.328125 19.921875 -12.34375 
Q 23.78125 -13.375 27.78125 -13.375 
Q 36.625 -13.375 41.015625 -8.765625 
Q 45.40625 -4.15625 45.40625 5.171875 
L 45.40625 9.625 
Q 42.625 4.78125 38.28125 2.390625 
Q 33.9375 0 27.875 0 
Q 17.828125 0 11.671875 7.65625 
Q 5.515625 15.328125 5.515625 27.984375 
Q 5.515625 40.671875 11.671875 48.328125 
Q 17.828125 56 27.875 56 
Q 33.9375 56 38.28125 53.609375 
Q 42.625 51.21875 45.40625 46.390625 
L 45.40625 54.6875 
L 54.390625 54.6875 
z
" id="DejaVuSans-67"/>
      <path id="DejaVuSans-20"/>
      <path d="M 52 44.1875 
Q 55.375 50.25 60.0625 53.125 
Q 64.75 56 71.09375 56 
Q 79.640625 56 84.28125 50.015625 
Q 88.921875 44.046875 88.921875 33.015625 
L 88.921875 0 
L 79.890625 0 
L 79.890625 32.71875 
Q 79.890625 40.578125 77.09375 44.375 
Q 74.3125 48.1875 68.609375 48.1875 
Q 61.625 48.1875 57.5625 43.546875 
Q 53.515625 38.921875 53.515625 30.90625 
L 53.515625 0 
L 44.484375 0 
L 44.484375 32.71875 
Q 44.484375 40.625 41.703125 44.40625 
Q 38.921875 48.1875 33.109375 48.1875 
Q 26.21875 48.1875 22.15625 43.53125 
Q 18.109375 38.875 18.109375 30.90625 
L 18.109375 0 
L 9.078125 0 
L 9.078125 54.6875 
L 18.109375 54.6875 
L 18.109375 46.1875 
Q 21.1875 51.21875 25.484375 53.609375 
Q 29.78125 56 35.6875 56 
Q 41.65625 56 45.828125 52.96875 
Q 50 49.953125 52 44.1875 
z
" id="DejaVuSans-6d"/>
      <path d="M 54.890625 54.6875 
L 35.109375 28.078125 
L 55.90625 0 
L 45.3125 0 
L 29.390625 21.484375 
L 13.484375 0 
L 2.875 0 
L 24.125 28.609375 
L 4.6875 54.6875 
L 15.28125 54.6875 
L 29.78125 35.203125 
L 44.28125 54.6875 
z
" id="DejaVuSans-78"/>
      <path d="M 39.40625 66.21875 
Q 28.65625 66.21875 22.328125 58.203125 
Q 16.015625 50.203125 16.015625 36.375 
Q 16.015625 22.609375 22.328125 14.59375 
Q 28.65625 6.59375 39.40625 6.59375 
Q 50.140625 6.59375 56.421875 14.59375 
Q 62.703125 22.609375 62.703125 36.375 
Q 62.703125 50.203125 56.421875 58.203125 
Q 50.140625 66.21875 39.40625 66.21875 
z
M 53.21875 1.3125 
L 66.21875 -12.890625 
L 54.296875 -12.890625 
L 43.5 -1.21875 
Q 41.890625 -1.3125 41.03125 -1.359375 
Q 40.1875 -1.421875 39.40625 -1.421875 
Q 24.03125 -1.421875 14.8125 8.859375 
Q 5.609375 19.140625 5.609375 36.375 
Q 5.609375 53.65625 14.8125 63.9375 
Q 24.03125 74.21875 39.40625 74.21875 
Q 54.734375 74.21875 63.90625 63.9375 
Q 73.09375 53.65625 73.09375 36.375 
Q 73.09375 23.6875 67.984375 14.640625 
Q 62.890625 5.609375 53.21875 1.3125 
z
" id="DejaVuSans-51"/>
     </defs>
     <g transform="translate(14.798438 192.263187)rotate(-90)scale(0.1 -0.1)">
      <use xlink:href="#DejaVuSans-61"/>
      <use x="61.279297" xlink:href="#DejaVuSans-76"/>
      <use x="120.458984" xlink:href="#DejaVuSans-65"/>
      <use x="181.982422" xlink:href="#DejaVuSans-72"/>
      <use x="223.095703" xlink:href="#DejaVuSans-61"/>
      <use x="284.375" xlink:href="#DejaVuSans-67"/>
      <use x="347.851562" xlink:href="#DejaVuSans-65"/>
      <use x="409.375" xlink:href="#DejaVuSans-20"/>
      <use x="441.162109" xlink:href="#DejaVuSans-6d"/>
      <use x="538.574219" xlink:href="#DejaVuSans-61"/>
      <use x="599.853516" xlink:href="#DejaVuSans-78"/>
      <use x="659.033203" xlink:href="#DejaVuSans-51"/>
     </g>
    </g>
   </g>
   <g id="line2d_17">
    <path clip-path="url(#pf9c40a0317)" d="M 56.835852 266.770817 
L 57.039015 264.381312 
L 57.242178 264.772903 
L 57.445341 263.798581 
L 57.648504 263.658187 
L 57.851667 268.457748 
L 58.054831 264.076182 
L 58.257994 267.162548 
L 58.461157 264.565127 
L 58.867483 266.670787 
L 59.070646 270.785477 
L 59.273809 266.409044 
L 59.476972 267.951645 
L 59.680135 261.371187 
L 59.883298 264.363604 
L 60.086461 265.2896 
L 60.289624 264.610216 
L 60.492787 264.447505 
L 60.69595 266.628771 
L 60.899113 264.958896 
L 61.102276 267.38451 
L 61.508602 263.815667 
L 61.711765 266.79598 
L 61.914928 263.738772 
L 62.118091 266.307514 
L 62.321254 255.748827 
L 62.524418 267.725226 
L 62.727581 265.242485 
L 62.930744 267.625223 
L 63.133907 263.044963 
L 63.33707 264.540454 
L 63.540233 264.932151 
L 63.743396 263.231285 
L 63.946559 265.320413 
L 64.149722 263.48443 
L 64.556048 266.921274 
L 64.759211 262.546705 
L 64.962374 267.10537 
L 65.165537 267.372376 
L 65.3687 265.511454 
L 65.571863 266.371143 
L 65.775026 265.208584 
L 65.978189 263.082283 
L 66.181352 263.303988 
L 66.384515 266.501751 
L 66.587678 265.619638 
L 66.790841 262.153021 
L 66.994005 268.479499 
L 67.197168 264.872771 
L 67.400331 267.280378 
L 67.603494 263.832584 
L 68.00982 267.048697 
L 68.416146 267.969959 
L 68.619309 270.900878 
L 68.822472 270.645259 
L 69.025635 269.944624 
L 69.228798 276.334125 
L 69.431961 273.945961 
L 69.635124 266.333715 
L 69.838287 270.115458 
L 70.244613 268.030641 
L 70.447776 263.846898 
L 70.650939 266.822681 
L 70.854102 265.668699 
L 71.057265 265.744514 
L 71.463591 262.7119 
L 71.666755 259.268968 
L 71.869918 260.799393 
L 72.276244 258.750131 
L 72.68257 250.465772 
L 72.885733 251.212322 
L 73.088896 253.557814 
L 73.292059 249.856975 
L 73.495222 248.79955 
L 73.698385 245.548984 
L 73.901548 247.014598 
L 74.104711 242.213011 
L 74.307874 242.203396 
L 74.511037 238.56104 
L 74.917363 237.683765 
L 75.120526 233.40283 
L 75.323689 239.92571 
L 75.526852 230.28727 
L 75.730015 233.501408 
L 75.933178 223.94948 
L 76.136342 231.775135 
L 76.339505 225.208998 
L 76.542668 227.569256 
L 76.745831 222.961086 
L 77.152157 225.09193 
L 77.35532 219.685503 
L 77.558483 220.929769 
L 77.761646 215.397982 
L 77.964809 204.29912 
L 78.167972 218.145207 
L 78.371135 213.410874 
L 78.574298 213.329173 
L 78.777461 211.986462 
L 78.980624 206.482124 
L 79.183787 210.759935 
L 79.38695 208.328946 
L 79.590113 204.292815 
L 79.793276 204.573255 
L 79.996439 207.487157 
L 80.199602 206.776388 
L 80.402765 196.611239 
L 80.605929 203.108374 
L 80.809092 194.75866 
L 81.012255 191.805577 
L 81.215418 193.192594 
L 81.418581 197.639147 
L 81.621744 194.962057 
L 81.824907 189.328346 
L 82.02807 178.498451 
L 82.231233 190.76067 
L 82.434396 179.772353 
L 82.637559 186.237478 
L 82.840722 188.388491 
L 83.043885 177.230103 
L 83.247048 180.461026 
L 83.450211 179.310162 
L 83.653374 175.56458 
L 83.856537 175.596428 
L 84.0597 175.317725 
L 84.466026 170.914561 
L 84.872352 176.052123 
L 85.075515 172.824529 
L 85.278679 166.388408 
L 85.481842 164.350679 
L 85.685005 168.864096 
L 85.888168 167.189475 
L 86.091331 168.676042 
L 86.497657 160.020793 
L 86.70082 157.133678 
L 86.903983 163.823529 
L 87.310309 152.067459 
L 87.513472 160.792114 
L 87.716635 146.090017 
L 87.919798 155.930707 
L 88.122961 158.707447 
L 88.529287 142.805416 
L 88.73245 151.493879 
L 88.935613 148.342719 
L 89.138776 147.846918 
L 89.341939 147.80798 
L 89.545102 145.534789 
L 89.748266 155.603328 
L 89.951429 155.591438 
L 90.154592 145.127647 
L 90.357755 141.815209 
L 90.560918 141.673642 
L 90.764081 148.683128 
L 91.170407 132.90487 
L 91.37357 139.717529 
L 91.576733 142.793455 
L 91.779896 142.268936 
L 91.983059 137.736039 
L 92.186222 144.400744 
L 92.389385 136.373696 
L 92.592548 139.596831 
L 92.795711 129.946093 
L 92.998874 130.702389 
L 93.202037 124.298676 
L 93.4052 126.654616 
L 93.608363 124.86527 
L 93.811526 94.260599 
L 94.014689 119.083011 
L 94.217853 123.900169 
L 94.421016 134.228445 
L 94.624179 115.014361 
L 94.827342 125.619308 
L 95.233668 121.018611 
L 95.436831 131.087021 
L 95.639994 123.229513 
L 95.843157 126.305601 
L 96.04632 120.063886 
L 96.249483 125.651662 
L 96.655809 110.051247 
L 96.858972 116.268271 
L 97.062135 128.388838 
L 97.265298 121.620374 
L 97.468461 121.547718 
L 97.671624 118.570186 
L 97.874787 123.868886 
L 98.07795 112.904897 
L 98.281113 118.799944 
L 98.484276 104.877692 
L 98.687439 110.893785 
L 98.890603 120.241072 
L 99.093766 104.268114 
L 99.500092 111.405103 
L 99.703255 105.213445 
L 99.906418 113.080231 
L 100.109581 113.375426 
L 100.312744 104.223472 
L 100.515907 101.566702 
L 100.71907 106.781371 
L 100.922233 107.325324 
L 101.125396 107.318406 
L 101.328559 102.139992 
L 101.531722 103.148724 
L 101.734885 75.126492 
L 101.938048 119.855656 
L 102.344374 104.316146 
L 102.547537 108.411221 
L 102.7507 104.518806 
L 102.953863 113.487914 
L 103.157026 114.562239 
L 103.36019 92.248374 
L 103.563353 95.781431 
L 103.969679 107.440739 
L 104.172842 98.513122 
L 104.376005 99.01887 
L 104.782331 103.055059 
L 104.985494 97.835317 
L 105.188657 89.077034 
L 105.39182 96.194492 
L 105.594983 96.101443 
L 105.798146 108.709988 
L 106.001309 90.990869 
L 106.204472 109.197927 
L 106.407635 91.01747 
L 106.813961 101.565439 
L 107.017124 106.356238 
L 107.220287 107.035499 
L 107.829776 86.906017 
L 108.03294 97.15643 
L 108.236103 97.157635 
L 108.439266 98.259766 
L 108.642429 90.636405 
L 108.845592 96.837808 
L 109.048755 95.392968 
L 109.251918 96.479225 
L 109.455081 94.13218 
L 109.658244 95.634887 
L 110.267733 82.174764 
L 110.470896 95.821377 
L 110.674059 96.234637 
L 110.877222 98.447903 
L 111.080385 64.279791 
L 111.283548 90.28842 
L 111.486711 73.420442 
L 111.893037 91.884499 
L 112.0962 93.116341 
L 112.299363 97.852568 
L 112.502527 76.66707 
L 112.908853 95.110732 
L 113.112016 82.853167 
L 113.315179 88.866174 
L 113.518342 84.267148 
L 113.721505 83.11 
L 113.924668 95.584872 
L 114.330994 81.475155 
L 114.534157 84.498761 
L 114.73732 84.052268 
L 114.940483 80.400264 
L 115.143646 87.554153 
L 115.346809 86.882249 
L 115.549972 94.097075 
L 115.753135 80.42889 
L 115.956298 77.806573 
L 116.159461 92.101972 
L 116.362624 88.098618 
L 116.76895 72.85826 
L 116.972114 69.942104 
L 117.175277 73.78158 
L 117.581603 91.588621 
L 117.784766 76.683959 
L 117.987929 79.467511 
L 118.191092 83.801786 
L 118.394255 76.130334 
L 118.597418 85.45583 
L 119.003744 78.094698 
L 119.206907 91.437104 
L 119.41007 88.150987 
L 119.613233 77.821819 
L 119.816396 81.778664 
L 120.019559 76.229201 
L 120.222722 82.964474 
L 120.425885 81.769138 
L 120.629048 70.671676 
L 120.832211 79.131423 
L 121.035374 78.773762 
L 121.238537 91.614808 
L 121.4417 64.414991 
L 121.644864 64.723197 
L 121.848027 73.861881 
L 122.05119 77.011693 
L 122.254353 98.31157 
L 122.457516 77.814103 
L 122.660679 83.047008 
L 122.863842 73.453196 
L 123.067005 86.834393 
L 123.473331 70.075132 
L 123.676494 85.73985 
L 123.879657 64.465485 
L 124.08282 75.894794 
L 124.285983 66.914189 
L 124.489146 73.039036 
L 124.692309 66.71436 
L 125.098635 89.507676 
L 125.301798 83.668188 
L 125.504961 86.403914 
L 125.708124 73.959615 
L 125.911287 72.713422 
L 126.114451 77.563805 
L 126.317614 95.445747 
L 126.520777 76.102101 
L 126.72394 84.922881 
L 127.130266 73.270425 
L 127.333429 75.491599 
L 127.536592 76.10031 
L 127.739755 72.686238 
L 127.942918 91.191478 
L 128.146081 77.252782 
L 128.349244 81.883977 
L 128.552407 71.896891 
L 128.75557 71.262334 
L 128.958733 83.206971 
L 129.365059 76.611498 
L 129.568222 77.605972 
L 129.771385 83.698134 
L 129.974548 82.962561 
L 130.177711 76.557556 
L 130.380874 75.162785 
L 130.584038 78.520643 
L 130.787201 66.695037 
L 130.990364 62.500375 
L 131.193527 76.366232 
L 131.39669 80.579103 
L 131.599853 80.757112 
L 131.803016 82.712871 
L 132.006179 76.831301 
L 132.209342 74.315517 
L 132.412505 74.543501 
L 132.615668 76.386695 
L 132.818831 76.058239 
L 133.021994 69.357894 
L 133.225157 70.128682 
L 133.42832 75.91946 
L 133.631483 69.122239 
L 133.834646 71.624671 
L 134.037809 60.24652 
L 134.444135 74.375513 
L 134.647298 53.81677 
L 134.850461 80.493779 
L 135.256788 77.218941 
L 135.663114 65.837813 
L 135.866277 82.92345 
L 136.06944 82.239648 
L 136.272603 86.928664 
L 136.475766 67.405034 
L 136.678929 71.321932 
L 136.882092 65.441753 
L 137.085255 84.503394 
L 137.288418 81.855322 
L 137.491581 82.073237 
L 137.694744 71.654308 
L 137.897907 83.191632 
L 138.10107 79.99664 
L 138.304233 69.624621 
L 138.507396 79.444881 
L 138.710559 76.16518 
L 138.913722 76.98998 
L 139.116885 75.762018 
L 139.320048 77.299529 
L 139.726375 34.414125 
L 139.929538 71.005189 
L 140.132701 85.322125 
L 140.335864 84.364978 
L 140.539027 65.736578 
L 140.74219 68.648781 
L 140.945353 69.656953 
L 141.148516 89.359904 
L 141.351679 72.884539 
L 141.554842 73.598631 
L 141.758005 82.693491 
L 142.164331 74.61405 
L 142.367494 84.703642 
L 142.570657 74.023574 
L 142.77382 78.769878 
L 142.976983 74.345444 
L 143.180146 85.895844 
L 143.383309 80.316562 
L 143.586472 71.29924 
L 143.789635 74.177674 
L 143.992798 81.518739 
L 144.195962 76.301925 
L 144.399125 84.32594 
L 144.602288 76.668449 
L 144.805451 84.977037 
L 145.008614 73.760439 
L 145.211777 83.579427 
L 145.41494 68.358865 
L 145.618103 76.660336 
L 146.227592 67.417813 
L 146.430755 78.849778 
L 146.633918 75.332718 
L 147.040244 86.94906 
L 147.243407 66.152213 
L 147.44657 81.406029 
L 147.649733 77.519652 
L 147.852896 59.787759 
L 148.056059 76.179923 
L 148.259222 79.283783 
L 148.462385 66.360946 
L 148.665548 87.232584 
L 148.868712 83.480922 
L 149.071875 84.944647 
L 149.275038 77.330037 
L 149.478201 55.345476 
L 149.681364 93.833357 
L 149.884527 74.163903 
L 150.08769 83.126468 
L 150.290853 77.940969 
L 150.494016 85.029229 
L 150.697179 77.984907 
L 150.900342 80.933902 
L 151.103505 73.382831 
L 151.306668 82.635677 
L 151.509831 77.639765 
L 151.712994 75.73802 
L 151.916157 84.661618 
L 152.11932 74.722075 
L 152.322483 86.010227 
L 152.525646 68.452155 
L 152.931972 79.671148 
L 153.135135 73.9163 
L 153.338299 85.332872 
L 153.541462 89.014564 
L 153.744625 75.809226 
L 153.947788 86.772777 
L 154.150951 76.308549 
L 154.354114 89.456593 
L 154.557277 82.00751 
L 154.76044 92.081799 
L 154.963603 79.240856 
L 155.166766 76.276688 
L 155.369929 88.552635 
L 155.573092 91.298846 
L 155.776255 85.400887 
L 155.979418 84.054041 
L 156.182581 77.462265 
L 156.385744 80.547229 
L 156.588907 92.129542 
L 156.995233 78.754939 
L 157.198396 73.396192 
L 157.401559 88.150416 
L 157.604722 85.789868 
L 157.807885 89.36536 
L 158.011049 85.261586 
L 158.214212 92.517001 
L 158.417375 89.177385 
L 158.620538 75.01964 
L 158.823701 85.560501 
L 159.026864 45.639024 
L 159.43319 112.448068 
L 159.636353 80.213682 
L 159.839516 90.575312 
L 160.042679 87.425652 
L 160.245842 96.262623 
L 160.449005 81.802633 
L 160.652168 93.028227 
L 160.855331 91.472965 
L 161.058494 90.908595 
L 161.261657 82.965055 
L 161.46482 81.943437 
L 161.667983 74.078091 
L 161.871146 84.192281 
L 162.074309 84.95109 
L 162.277472 94.462605 
L 162.480636 89.811052 
L 162.683799 89.466718 
L 162.886962 44.400547 
L 163.090125 86.572242 
L 163.293288 68.742607 
L 163.496451 95.72185 
L 163.699614 88.938093 
L 163.902777 86.036612 
L 164.10594 94.727892 
L 164.309103 92.314822 
L 164.512266 97.970654 
L 164.715429 62.604673 
L 164.918592 88.717121 
L 165.121755 79.160685 
L 165.324918 96.419569 
L 165.528081 97.208401 
L 165.731244 102.121579 
L 166.13757 88.372298 
L 166.340733 88.414725 
L 166.543896 98.25862 
L 166.747059 90.846707 
L 167.153386 97.686441 
L 167.356549 103.298565 
L 167.559712 89.824607 
L 167.762875 92.115723 
L 167.966038 92.993665 
L 168.169201 96.490866 
L 168.372364 97.235858 
L 168.575527 86.960352 
L 168.981853 96.187451 
L 169.185016 83.79827 
L 169.388179 89.953745 
L 169.591342 85.153697 
L 169.997668 92.683489 
L 170.200831 96.23387 
L 170.403994 92.269486 
L 170.607157 83.120785 
L 170.81032 92.079076 
L 171.013483 82.733906 
L 171.216646 84.730567 
L 171.419809 90.097732 
L 171.622973 91.428076 
L 171.826136 94.986488 
L 172.029299 93.039282 
L 172.232462 101.126472 
L 172.435625 90.49823 
L 172.638788 93.016668 
L 172.841951 92.294007 
L 173.045114 100.131884 
L 173.45144 90.387865 
L 173.857766 103.209067 
L 174.060929 100.49533 
L 174.264092 104.494509 
L 174.467255 91.729063 
L 174.670418 107.330643 
L 174.873581 104.106477 
L 175.076744 116.134467 
L 175.279907 95.812721 
L 175.48307 105.805955 
L 175.686233 103.812519 
L 175.889396 99.943467 
L 176.09256 107.862651 
L 176.295723 103.181894 
L 176.498886 75.402628 
L 176.702049 109.347192 
L 176.905212 101.820876 
L 177.108375 106.042596 
L 177.311538 96.259394 
L 177.514701 96.944717 
L 177.717864 103.996696 
L 177.921027 102.642542 
L 178.12419 105.439325 
L 178.327353 105.391816 
L 178.530516 100.812813 
L 178.733679 115.044172 
L 178.936842 103.127991 
L 179.140005 104.378847 
L 179.343168 109.846442 
L 179.546331 102.605104 
L 179.749494 103.056687 
L 179.952657 109.42047 
L 180.15582 90.008096 
L 180.358983 99.497769 
L 180.562147 103.447419 
L 180.76531 112.056095 
L 180.968473 111.774942 
L 181.171636 98.662339 
L 181.374799 104.545835 
L 181.781125 108.985705 
L 181.984288 103.002737 
L 182.187451 100.911998 
L 182.390614 106.945652 
L 182.593777 108.379745 
L 182.79694 103.104751 
L 183.000103 105.162907 
L 183.203266 105.232345 
L 183.406429 118.976066 
L 183.609592 106.476706 
L 183.812755 106.602308 
L 184.015918 116.240613 
L 184.422244 110.705187 
L 184.625407 106.819845 
L 184.82857 120.22913 
L 185.031733 104.70663 
L 185.234897 111.581997 
L 185.641223 107.651057 
L 185.844386 113.499502 
L 186.047549 110.045109 
L 186.250712 112.431238 
L 186.453875 106.233678 
L 186.657038 110.416174 
L 186.860201 110.271808 
L 187.063364 114.981186 
L 187.266527 110.756704 
L 187.46969 110.458636 
L 187.672853 100.726838 
L 187.876016 113.271831 
L 188.079179 113.863161 
L 188.282342 110.212223 
L 188.485505 110.932278 
L 188.688668 114.233557 
L 188.891831 107.046356 
L 189.094994 113.895 
L 189.298157 127.986453 
L 189.50132 118.756278 
L 189.704484 124.901279 
L 189.907647 114.642961 
L 190.11081 114.109652 
L 190.517136 117.646645 
L 190.720299 140.770286 
L 190.923462 110.989448 
L 191.126625 112.299035 
L 191.329788 122.678916 
L 191.532951 115.085944 
L 191.736114 135.352997 
L 191.939277 117.844076 
L 192.14244 117.03308 
L 192.345603 122.493817 
L 192.548766 114.51453 
L 192.751929 117.914136 
L 192.955092 112.427349 
L 193.361418 118.669617 
L 193.564581 114.706767 
L 193.767744 129.445982 
L 193.970907 119.438785 
L 194.174071 121.886815 
L 194.377234 118.676023 
L 194.580397 121.599032 
L 194.78356 113.79161 
L 195.189886 129.920843 
L 195.393049 121.696301 
L 195.596212 127.365158 
L 195.799375 120.969919 
L 196.002538 126.861643 
L 196.205701 124.051357 
L 196.408864 133.432797 
L 196.612027 124.532044 
L 196.81519 130.567218 
L 197.018353 120.652703 
L 197.221516 127.398326 
L 197.424679 124.749137 
L 197.627842 134.335963 
L 197.831005 123.669614 
L 198.034168 123.960064 
L 198.237331 105.276175 
L 198.440494 127.66089 
L 198.643657 124.737589 
L 198.846821 130.569705 
L 199.049984 121.325177 
L 199.253147 129.30961 
L 199.45631 122.597365 
L 199.659473 124.976896 
L 199.862636 132.456192 
L 200.065799 123.23807 
L 200.268962 134.414896 
L 200.472125 119.31166 
L 200.675288 123.240954 
L 201.081614 143.554186 
L 201.284777 124.328382 
L 201.48794 127.111653 
L 201.691103 126.51704 
L 201.894266 132.545994 
L 202.097429 122.873443 
L 202.503755 136.059911 
L 202.706918 134.015544 
L 202.910081 140.024045 
L 203.113244 133.675718 
L 203.316408 135.274869 
L 203.519571 135.651147 
L 203.722734 129.795821 
L 203.925897 139.817262 
L 204.12906 110.915398 
L 204.332223 122.415953 
L 204.535386 117.177084 
L 204.738549 129.578845 
L 205.144875 135.063924 
L 205.348038 135.122126 
L 205.551201 130.273937 
L 205.754364 151.038515 
L 206.16069 136.363689 
L 206.363853 136.090683 
L 206.567016 137.254173 
L 206.770179 120.45706 
L 206.973342 136.498343 
L 207.176505 140.816389 
L 207.379668 137.073715 
L 207.582831 149.163284 
L 207.785994 135.600134 
L 207.989158 141.773777 
L 208.192321 137.595657 
L 208.395484 148.125716 
L 208.598647 140.79102 
L 208.80181 141.909242 
L 209.004973 120.920625 
L 209.411299 137.936577 
L 209.614462 142.16409 
L 209.817625 140.575238 
L 210.020788 137.832962 
L 210.223951 138.57552 
L 210.427114 155.966669 
L 210.630277 148.770474 
L 210.83344 153.141371 
L 211.036603 152.221018 
L 211.239766 126.988996 
L 211.442929 143.024916 
L 211.646092 132.025904 
L 211.849255 148.20591 
L 212.052418 145.200709 
L 212.255581 144.914049 
L 212.458745 156.446309 
L 212.661908 139.486031 
L 212.865071 149.237633 
L 213.068234 141.512184 
L 213.271397 141.062506 
L 213.677723 152.541063 
L 213.880886 152.61796 
L 214.084049 144.528913 
L 214.287212 155.343237 
L 214.490375 137.038063 
L 214.693538 151.546564 
L 214.896701 148.088523 
L 215.099864 154.257991 
L 215.303027 144.331644 
L 215.50619 146.616275 
L 215.709353 145.935316 
L 215.912516 151.665782 
L 216.115679 166.462524 
L 216.318842 150.912759 
L 216.522005 151.434167 
L 216.725168 140.542433 
L 216.928332 160.449642 
L 217.131495 145.860548 
L 217.334658 161.352887 
L 217.537821 147.746522 
L 217.740984 150.31069 
L 217.944147 155.11327 
L 218.14731 156.192109 
L 218.350473 124.999948 
L 218.553636 125.014884 
L 218.756799 149.005096 
L 218.959962 125.057605 
L 219.163125 154.359886 
L 219.366288 155.558616 
L 219.569451 151.050383 
L 219.772614 165.218219 
L 220.17894 155.78872 
L 220.382103 155.452287 
L 220.585266 154.02398 
L 220.788429 162.966796 
L 220.991592 157.143353 
L 221.194755 156.87763 
L 221.397918 169.787448 
L 221.601082 155.418038 
L 221.804245 155.071424 
L 222.007408 166.854392 
L 222.210571 158.723131 
L 222.413734 159.583018 
L 222.616897 169.56687 
L 222.82006 157.008605 
L 223.023223 155.919848 
L 223.226386 156.166305 
L 223.429549 155.015377 
L 223.632712 146.912198 
L 223.835875 159.390094 
L 224.039038 162.466263 
L 224.242201 154.722834 
L 224.445364 164.597637 
L 224.648527 157.446581 
L 224.85169 163.371407 
L 225.054853 158.687543 
L 225.258016 163.916757 
L 225.461179 135.864259 
L 225.664342 170.114319 
L 225.867505 167.041099 
L 226.070669 153.565125 
L 226.476995 171.71992 
L 226.680158 160.417136 
L 227.086484 167.685217 
L 227.289647 157.671152 
L 227.49281 161.416849 
L 227.695973 168.779653 
L 228.102299 159.81759 
L 228.305462 160.552508 
L 228.508625 175.78132 
L 228.711788 173.730725 
L 228.914951 165.498101 
L 229.118114 175.70424 
L 229.52444 156.544834 
L 229.727603 170.251897 
L 229.930766 167.400897 
L 230.133929 168.051783 
L 230.337092 161.761327 
L 230.540256 149.361624 
L 230.743419 170.220218 
L 230.946582 157.815749 
L 231.149745 174.172664 
L 231.352908 159.688214 
L 231.556071 173.186653 
L 231.759234 177.817454 
L 232.16556 171.200114 
L 232.368723 155.774462 
L 232.571886 188.232154 
L 232.775049 171.218378 
L 232.978212 177.09246 
L 233.181375 166.306934 
L 233.384538 168.189214 
L 233.587701 160.186224 
L 233.790864 175.125299 
L 233.994027 178.922362 
L 234.400353 165.406362 
L 234.603516 169.252486 
L 234.806679 169.150783 
L 235.009842 161.42697 
L 235.213006 161.461953 
L 235.416169 178.00998 
L 235.619332 168.550213 
L 235.822495 173.60704 
L 236.025658 165.462944 
L 236.228821 185.701957 
L 236.431984 171.304266 
L 236.635147 176.116929 
L 236.83831 170.260087 
L 237.041473 169.609837 
L 237.244636 168.342405 
L 237.650962 176.200466 
L 237.854125 169.115109 
L 238.057288 149.223426 
L 238.260451 180.356607 
L 238.463614 167.53215 
L 238.86994 178.656504 
L 239.073103 187.097907 
L 239.276266 173.238108 
L 239.479429 169.705941 
L 239.885756 185.305619 
L 240.292082 178.494971 
L 240.495245 182.320465 
L 240.698408 177.948958 
L 240.901571 177.905896 
L 241.104734 176.603962 
L 241.307897 168.809392 
L 241.51106 167.861949 
L 241.714223 171.777258 
L 241.917386 187.827865 
L 242.120549 186.898693 
L 242.323712 183.155095 
L 242.526875 172.699752 
L 243.136364 193.339566 
L 243.339527 185.329836 
L 243.54269 185.90182 
L 243.745853 189.025382 
L 243.949016 175.867312 
L 244.355343 186.836254 
L 244.558506 175.418924 
L 244.761669 188.893008 
L 244.964832 188.416071 
L 245.167995 187.345694 
L 245.371158 180.555911 
L 245.574321 181.340933 
L 245.980647 186.237269 
L 246.18381 182.505822 
L 246.386973 161.061474 
L 246.590136 177.879732 
L 246.793299 157.691013 
L 246.996462 158.134129 
L 247.402788 189.989317 
L 247.605951 182.786348 
L 247.809114 190.763516 
L 248.21544 190.164813 
L 248.418603 187.956528 
L 248.621766 188.345527 
L 248.82493 180.491597 
L 249.028093 191.608718 
L 249.231256 191.282907 
L 249.434419 180.429091 
L 249.637582 184.873239 
L 249.840745 186.683396 
L 250.043908 195.515322 
L 250.247071 185.617623 
L 250.450234 190.546221 
L 250.653397 200.602848 
L 250.85656 197.139866 
L 251.059723 189.222345 
L 251.262886 187.658518 
L 251.669212 194.47984 
L 251.872375 190.555775 
L 252.075538 182.738952 
L 252.278701 199.943623 
L 252.481864 193.912079 
L 252.685027 181.619775 
L 252.88819 194.015563 
L 253.091353 193.481969 
L 253.294517 190.077379 
L 253.49768 191.459625 
L 253.700843 195.375788 
L 253.904006 195.523806 
L 254.107169 194.251849 
L 254.310332 193.868615 
L 254.513495 193.149281 
L 254.716658 190.25671 
L 254.919821 196.620647 
L 255.122984 192.453937 
L 255.326147 204.075112 
L 255.52931 196.613461 
L 255.732473 198.047499 
L 255.935636 207.394321 
L 256.138799 195.808336 
L 256.341962 196.466871 
L 256.545125 202.707138 
L 256.748288 193.092424 
L 256.951451 193.979722 
L 257.154614 199.106249 
L 257.357777 200.397656 
L 257.764103 188.769014 
L 257.967267 187.320397 
L 258.17043 205.439851 
L 258.373593 203.770045 
L 258.576756 190.62808 
L 258.779919 195.978235 
L 258.983082 208.737413 
L 259.186245 197.881532 
L 259.389408 202.83225 
L 259.592571 201.258074 
L 259.795734 201.08968 
L 259.998897 207.489225 
L 260.20206 193.084083 
L 260.405223 204.23352 
L 260.608386 199.403503 
L 260.811549 190.881664 
L 261.217875 208.488951 
L 261.421038 202.735643 
L 261.624201 203.449771 
L 261.827364 205.928733 
L 262.030527 200.174107 
L 262.436854 204.772172 
L 262.640017 203.278318 
L 262.84318 204.899375 
L 263.046343 199.569228 
L 263.249506 201.786867 
L 263.655832 194.060606 
L 263.858995 203.221268 
L 264.062158 202.886422 
L 264.265321 199.839417 
L 264.468484 205.056357 
L 265.077973 208.723604 
L 265.281136 208.403844 
L 265.484299 194.995163 
L 265.890625 211.734694 
L 266.093788 204.127495 
L 266.296951 211.359221 
L 266.500114 197.323762 
L 266.703277 208.624875 
L 267.109604 198.769315 
L 267.312767 212.615071 
L 267.51593 215.451615 
L 267.719093 207.742353 
L 267.922256 216.157731 
L 268.125419 210.65002 
L 268.328582 210.804267 
L 268.531745 207.16182 
L 268.734908 214.084749 
L 268.938071 213.28144 
L 269.141234 206.3118 
L 269.344397 213.644809 
L 269.54756 204.004363 
L 269.750723 213.991698 
L 270.157049 212.218837 
L 270.360212 216.595057 
L 270.563375 211.216259 
L 270.766538 215.846182 
L 270.969701 214.814378 
L 271.172864 208.799357 
L 271.376027 215.850358 
L 271.579191 216.28473 
L 271.782354 213.451544 
L 271.985517 217.848089 
L 272.391843 205.914117 
L 272.595006 209.592636 
L 272.798169 215.719958 
L 273.001332 214.85942 
L 273.204495 206.892303 
L 273.407658 209.838628 
L 273.610821 215.551638 
L 273.813984 209.818144 
L 274.017147 213.328666 
L 274.22031 206.268231 
L 274.626636 215.005268 
L 274.829799 211.650403 
L 275.032962 203.398845 
L 275.439288 219.357915 
L 275.642451 229.037758 
L 275.845614 210.152055 
L 276.048778 221.265375 
L 276.251941 209.737936 
L 276.658267 220.063435 
L 277.064593 215.59186 
L 277.267756 220.055415 
L 277.470919 216.94238 
L 277.674082 216.370533 
L 277.877245 214.159422 
L 278.080408 222.547096 
L 278.486734 216.564861 
L 278.689897 213.06957 
L 278.89306 222.744219 
L 279.096223 218.531192 
L 279.299386 221.239832 
L 279.502549 220.287217 
L 279.705712 213.027022 
L 279.908875 218.680823 
L 280.518365 218.148634 
L 280.721528 216.218602 
L 280.924691 221.755294 
L 281.127854 222.420707 
L 281.331017 218.249157 
L 281.53418 217.156615 
L 281.737343 214.912348 
L 281.940506 224.717133 
L 282.143669 223.120738 
L 282.346832 218.486508 
L 282.549995 206.963015 
L 282.753158 225.312021 
L 282.956321 222.362487 
L 283.159484 221.260271 
L 283.362647 229.931535 
L 283.768973 219.173413 
L 283.972136 222.387323 
L 284.175299 221.29012 
L 284.581625 226.162502 
L 284.784788 220.862619 
L 284.987951 228.60961 
L 285.191115 225.736281 
L 285.394278 230.903803 
L 285.597441 229.433779 
L 285.800604 222.195581 
L 286.20693 225.278969 
L 286.410093 228.289414 
L 286.613256 219.189221 
L 286.816419 224.656257 
L 287.019582 224.519536 
L 287.222745 227.612453 
L 287.425908 222.459155 
L 287.629071 223.85901 
L 287.832234 227.257366 
L 288.23856 216.695894 
L 288.441723 224.651522 
L 288.644886 221.196774 
L 288.848049 224.884064 
L 289.051212 225.55986 
L 289.254375 230.00838 
L 289.457538 227.034173 
L 289.660702 226.673757 
L 289.863865 221.589607 
L 290.067028 228.760481 
L 290.270191 228.126804 
L 290.473354 230.173556 
L 290.87968 216.250574 
L 291.082843 227.520239 
L 291.286006 223.672805 
L 291.489169 225.001445 
L 291.692332 230.909106 
L 291.895495 224.328598 
L 292.098658 222.790008 
L 292.301821 231.571833 
L 292.504984 224.319906 
L 292.708147 223.088116 
L 293.317636 234.402489 
L 293.927125 225.80764 
L 294.130288 231.754744 
L 294.536615 229.132057 
L 294.739778 232.206608 
L 294.942941 232.016446 
L 295.349267 230.530005 
L 295.55243 233.353723 
L 295.755593 226.696431 
L 295.958756 227.131009 
L 296.161919 231.922834 
L 296.365082 232.18464 
L 296.568245 234.704264 
L 296.771408 232.158934 
L 296.974571 232.850867 
L 297.177734 229.552602 
L 297.380897 229.656924 
L 297.58406 237.034145 
L 297.787223 227.600909 
L 298.193549 233.061883 
L 298.396712 230.426504 
L 298.599875 232.211154 
L 299.006202 239.828539 
L 299.209365 233.863949 
L 299.412528 233.310279 
L 299.615691 235.517732 
L 299.818854 233.470324 
L 300.022017 233.814408 
L 300.22518 238.353821 
L 300.428343 232.927733 
L 300.631506 234.420133 
L 300.834669 234.155296 
L 301.240995 237.89852 
L 301.444158 238.195945 
L 301.647321 239.655383 
L 301.850484 232.834716 
L 302.053647 220.931646 
L 302.25681 237.701454 
L 302.459973 237.044901 
L 302.663136 235.731927 
L 302.866299 247.011038 
L 303.069462 239.271888 
L 303.272626 237.914181 
L 303.475789 239.20637 
L 303.678952 231.71225 
L 303.882115 233.700694 
L 304.085278 237.915979 
L 304.288441 236.586128 
L 304.491604 240.103934 
L 304.694767 240.020603 
L 304.89793 234.743817 
L 305.304256 241.804493 
L 305.507419 236.933269 
L 305.710582 235.227708 
L 305.913745 238.89389 
L 306.116908 235.329757 
L 306.320071 241.162601 
L 306.523234 237.671845 
L 306.726397 241.888466 
L 306.92956 240.270666 
L 307.132723 242.619283 
L 307.335886 239.965505 
L 307.539049 240.254307 
L 307.742212 239.777714 
L 307.945376 232.12679 
L 308.148539 233.486467 
L 308.554865 245.378753 
L 309.164354 240.499884 
L 309.367517 238.809469 
L 309.57068 238.536252 
L 309.773843 241.26533 
L 309.977006 247.166519 
L 310.180169 241.681949 
L 310.383332 231.519187 
L 310.586495 241.12649 
L 310.789658 223.395305 
L 310.992821 240.564967 
L 311.195984 238.589766 
L 311.399147 240.069248 
L 311.60231 239.842104 
L 311.805473 242.657998 
L 312.008636 242.153758 
L 312.211799 240.55246 
L 312.414963 243.531334 
L 312.618126 244.494441 
L 312.821289 241.913195 
L 313.227615 246.814238 
L 313.430778 240.455419 
L 313.837104 247.807116 
L 314.040267 243.136934 
L 314.24343 241.693693 
L 314.446593 243.106001 
L 314.649756 243.126396 
L 314.852919 248.281136 
L 315.056082 244.863569 
L 315.259245 245.819981 
L 315.462408 247.600035 
L 315.665571 240.660332 
L 315.868734 237.753762 
L 316.071897 244.804696 
L 316.27506 241.929415 
L 316.478223 246.351789 
L 316.681386 245.070858 
L 317.087713 240.369654 
L 317.290876 249.629162 
L 317.494039 244.809258 
L 317.697202 244.420041 
L 317.900365 245.135334 
L 318.103528 247.674601 
L 318.509854 242.743964 
L 318.713017 246.76937 
L 318.91618 245.28008 
L 319.119343 246.211756 
L 319.322506 247.888862 
L 319.728832 244.698005 
L 320.135158 244.31189 
L 320.744647 251.269509 
L 320.94781 245.909558 
L 321.150973 248.85098 
L 321.354136 234.463785 
L 321.5573 245.95173 
L 321.760463 240.856539 
L 321.963626 251.935178 
L 322.166789 247.922803 
L 322.369952 249.910871 
L 322.573115 248.017296 
L 322.776278 248.097255 
L 322.979441 249.594565 
L 323.385767 247.753702 
L 323.58893 250.008215 
L 323.792093 247.005366 
L 323.995256 248.998993 
L 324.198419 244.323161 
L 324.604745 246.280759 
L 325.011071 248.687656 
L 325.214234 245.28175 
L 325.62056 250.186765 
L 325.823723 249.975229 
L 326.026887 250.388165 
L 326.23005 244.355204 
L 326.433213 248.651606 
L 326.636376 248.218639 
L 326.839539 248.351286 
L 327.042702 249.498755 
L 327.245865 252.715171 
L 327.449028 245.320993 
L 327.652191 252.669429 
L 327.855354 250.343957 
L 328.058517 249.834299 
L 328.26168 250.759153 
L 328.464843 252.992985 
L 328.668006 252.947599 
L 329.074332 249.474463 
L 329.277495 248.288477 
L 329.480658 252.988053 
L 329.683821 248.774912 
L 329.886984 252.499931 
L 330.090147 250.776742 
L 330.29331 252.693275 
L 330.699637 250.045739 
L 330.9028 249.388196 
L 331.105963 247.62617 
L 331.309126 252.613626 
L 331.512289 252.499786 
L 331.715452 254.787028 
L 331.918615 253.471009 
L 332.121778 250.271916 
L 332.324941 253.673522 
L 332.528104 254.344702 
L 332.731267 255.484679 
L 332.93443 255.477907 
L 333.137593 250.964147 
L 333.340756 251.075707 
L 333.543919 257.900573 
L 333.950245 249.283295 
L 334.356571 256.481114 
L 334.559734 250.630037 
L 334.762897 257.296946 
L 334.96606 253.013465 
L 335.169224 255.08059 
L 335.372387 255.157807 
L 335.57555 250.075935 
L 335.778713 254.788052 
L 336.185039 256.380277 
L 336.388202 252.927844 
L 336.591365 254.883969 
L 336.794528 248.592017 
L 336.997691 256.121725 
L 337.200854 246.643802 
L 337.404017 256.504019 
L 337.60718 258.002956 
L 337.810343 254.302338 
L 338.013506 257.52214 
L 338.216669 257.089471 
L 338.622995 255.174383 
L 338.826158 255.939058 
L 339.029321 251.502368 
L 339.232484 256.163673 
L 339.435647 250.806543 
L 339.638811 256.4999 
L 339.841974 258.609785 
L 340.045137 257.241786 
L 340.2483 254.911541 
L 340.451463 255.266611 
L 340.654626 256.637356 
L 340.857789 254.116971 
L 341.060952 260.480797 
L 341.264115 256.488401 
L 341.467278 257.141238 
L 341.670441 257.129831 
L 341.873604 255.734 
L 342.076767 251.142736 
L 342.27993 257.99316 
L 342.483093 254.059699 
L 342.686256 257.626862 
L 342.889419 254.426734 
L 343.092582 258.985208 
L 343.295745 258.787732 
L 343.498908 255.782603 
L 343.702071 258.716898 
L 343.905234 258.737705 
L 344.311561 260.532427 
L 344.514724 255.762022 
L 344.717887 255.864376 
L 344.92105 258.670984 
L 345.327376 259.251576 
L 345.530539 260.640031 
L 345.733702 260.660542 
L 345.936865 258.426563 
L 346.140028 258.612041 
L 346.343191 257.40644 
L 346.546354 259.968376 
L 346.749517 259.536938 
L 346.95268 258.226693 
L 347.562169 261.354202 
L 347.765332 254.532891 
L 347.968495 258.482404 
L 348.171658 260.102709 
L 348.374821 259.069488 
L 348.577984 264.832835 
L 348.781148 260.890746 
L 348.984311 259.388079 
L 349.390637 261.477019 
L 349.5938 260.880417 
L 349.796963 260.797589 
L 350.000126 260.530413 
L 350.203289 253.789145 
L 350.406452 262.458818 
L 350.609615 258.934885 
L 350.812778 259.858927 
L 351.015941 259.623679 
L 351.219104 260.658715 
L 351.422267 259.911691 
L 351.62543 263.179186 
L 351.828593 261.470901 
L 352.031756 264.33629 
L 352.234919 259.020921 
L 352.438082 263.711403 
L 352.844408 261.367737 
L 353.047571 261.752583 
L 353.250735 263.878018 
L 353.453898 261.322016 
L 353.657061 262.553221 
L 353.860224 260.656671 
L 354.26655 262.146044 
L 354.469713 263.878114 
L 354.672876 260.533892 
L 354.876039 266.332927 
L 355.282365 261.671738 
L 355.485528 263.391489 
L 355.688691 266.24238 
L 355.891854 263.460329 
L 356.501343 265.503692 
L 356.704506 255.823186 
L 356.907669 253.012374 
L 357.110832 264.317845 
L 357.313995 265.11805 
L 357.720321 262.283518 
L 357.923485 264.242037 
L 358.126648 263.801033 
L 358.329811 264.390102 
L 358.736137 266.923311 
L 358.9393 263.907206 
L 359.142463 267.125234 
L 359.751952 259.696009 
L 359.955115 263.808037 
L 360.158278 263.572348 
L 360.361441 263.874854 
L 360.564604 262.964128 
L 360.767767 265.050114 
L 360.97093 265.543453 
L 361.174093 263.000465 
L 361.377256 264.221234 
L 361.580419 269.022655 
L 361.783582 262.634997 
L 361.986745 263.379531 
L 362.189908 268.828612 
L 362.393072 266.256451 
L 362.596235 265.265629 
L 362.799398 269.93078 
L 363.205724 264.641831 
L 363.408887 266.334143 
L 363.815213 261.632592 
L 364.018376 262.832089 
L 364.424702 269.545657 
L 364.627865 267.596441 
L 364.831028 260.494999 
L 365.034191 267.263734 
L 365.237354 266.051897 
L 365.440517 266.418548 
L 365.64368 265.371388 
L 365.846843 264.976751 
L 366.050006 269.169735 
L 366.253169 265.38155 
L 366.456332 265.650681 
L 366.659495 270.704885 
L 366.862659 266.500113 
L 367.065822 265.213406 
L 367.268985 267.668792 
L 367.472148 263.960067 
L 367.878474 267.517082 
L 368.081637 266.37192 
L 368.2848 266.35445 
L 368.487963 266.455516 
L 368.691126 270.662741 
L 368.894289 267.895588 
L 369.097452 268.822332 
L 369.300615 266.092275 
L 369.503778 266.398895 
L 369.706941 267.720761 
L 369.910104 267.530774 
L 370.113267 269.829679 
L 370.31643 268.452192 
L 370.519593 268.621916 
L 370.722756 268.183268 
L 370.925919 268.21921 
L 371.129082 267.663149 
L 371.332245 269.3829 
L 371.738572 260.826971 
L 371.941735 266.397788 
L 372.144898 268.27939 
L 372.348061 266.284096 
L 372.551224 266.11482 
L 372.754387 262.774323 
L 372.95755 267.565129 
L 373.363876 269.787949 
L 373.770202 268.460305 
L 373.973365 268.045744 
L 374.379691 269.665123 
L 374.582854 267.771785 
L 374.786017 269.314409 
L 374.98918 269.759744 
L 375.192343 268.205741 
L 375.395506 268.943099 
L 375.598669 270.106866 
L 375.801832 267.552294 
L 376.004996 266.817124 
L 376.208159 269.274065 
L 376.411322 269.244688 
L 376.614485 270.523678 
L 376.817648 270.449287 
L 377.020811 270.187024 
L 377.223974 269.146984 
L 377.427137 269.314999 
L 377.6303 269.7992 
L 377.833463 268.560694 
L 378.036626 268.62138 
L 378.239789 268.256523 
L 378.442952 268.222821 
L 378.646115 271.579535 
L 378.849278 268.459687 
L 379.052441 267.852667 
L 379.255604 271.2062 
L 379.458767 267.157447 
L 379.865093 270.538726 
L 380.068256 267.835146 
L 380.271419 267.942083 
L 380.474583 271.932905 
L 380.677746 272.11833 
L 380.880909 274.846054 
L 381.287235 266.094642 
L 381.490398 261.539197 
L 381.490398 261.539197 
" style="fill:none;stroke:#1f77b4;stroke-linecap:square;stroke-width:1.5;"/>
   </g>
   <g id="patch_3">
    <path d="M 40.603125 288.430125 
L 40.603125 22.318125 
" style="fill:none;stroke:#000000;stroke-linecap:square;stroke-linejoin:miter;stroke-width:0.8;"/>
   </g>
   <g id="patch_4">
    <path d="M 397.723125 288.430125 
L 397.723125 22.318125 
" style="fill:none;stroke:#000000;stroke-linecap:square;stroke-linejoin:miter;stroke-width:0.8;"/>
   </g>
   <g id="patch_5">
    <path d="M 40.603125 288.430125 
L 397.723125 288.430125 
" style="fill:none;stroke:#000000;stroke-linecap:square;stroke-linejoin:miter;stroke-width:0.8;"/>
   </g>
   <g id="patch_6">
    <path d="M 40.603125 22.318125 
L 397.723125 22.318125 
" style="fill:none;stroke:#000000;stroke-linecap:square;stroke-linejoin:miter;stroke-width:0.8;"/>
   </g>
   <g id="text_19">
    <!-- Average maxQ per episode -->
    <defs>
     <path d="M 34.1875 63.1875 
L 20.796875 26.90625 
L 47.609375 26.90625 
z
M 28.609375 72.90625 
L 39.796875 72.90625 
L 67.578125 0 
L 57.328125 0 
L 50.6875 18.703125 
L 17.828125 18.703125 
L 11.1875 0 
L 0.78125 0 
z
" id="DejaVuSans-41"/>
    </defs>
    <g transform="translate(137.226562 16.318125)scale(0.12 -0.12)">
     <use xlink:href="#DejaVuSans-41"/>
     <use x="68.330078" xlink:href="#DejaVuSans-76"/>
     <use x="127.509766" xlink:href="#DejaVuSans-65"/>
     <use x="189.033203" xlink:href="#DejaVuSans-72"/>
     <use x="230.146484" xlink:href="#DejaVuSans-61"/>
     <use x="291.425781" xlink:href="#DejaVuSans-67"/>
     <use x="354.902344" xlink:href="#DejaVuSans-65"/>
     <use x="416.425781" xlink:href="#DejaVuSans-20"/>
     <use x="448.212891" xlink:href="#DejaVuSans-6d"/>
     <use x="545.625" xlink:href="#DejaVuSans-61"/>
     <use x="606.904297" xlink:href="#DejaVuSans-78"/>
     <use x="666.083984" xlink:href="#DejaVuSans-51"/>
     <use x="744.794922" xlink:href="#DejaVuSans-20"/>
     <use x="776.582031" xlink:href="#DejaVuSans-70"/>
     <use x="840.058594" xlink:href="#DejaVuSans-65"/>
     <use x="901.582031" xlink:href="#DejaVuSans-72"/>
     <use x="942.695312" xlink:href="#DejaVuSans-20"/>
     <use x="974.482422" xlink:href="#DejaVuSans-65"/>
     <use x="1036.005859" xlink:href="#DejaVuSans-70"/>
     <use x="1099.482422" xlink:href="#DejaVuSans-69"/>
     <use x="1127.265625" xlink:href="#DejaVuSans-73"/>
     <use x="1179.365234" xlink:href="#DejaVuSans-6f"/>
     <use x="1240.546875" xlink:href="#DejaVuSans-64"/>
     <use x="1304.023438" xlink:href="#DejaVuSans-65"/>
    </g>
   </g>
  </g>
 </g>
 <defs>
  <clipPath id="pf9c40a0317">
   <rect height="266.112" width="357.12" x="40.603125" y="22.318125"/>
  </clipPath>
 </defs>
</svg>
