<?xml version="1.0" encoding="utf-8" standalone="no"?>
<!DOCTYPE svg PUBLIC "-//W3C//DTD SVG 1.1//EN"
  "http://www.w3.org/Graphics/SVG/1.1/DTD/svg11.dtd">
<!-- Created with matplotlib (http://matplotlib.org/) -->
<svg height="408pt" version="1.1" viewBox="0 0 525 408" width="525pt" xmlns="http://www.w3.org/2000/svg" xmlns:xlink="http://www.w3.org/1999/xlink">
 <defs>
  <style type="text/css">
*{stroke-linecap:butt;stroke-linejoin:round;stroke-miterlimit:100000;}
  </style>
 </defs>
 <g id="figure_1">
  <g id="patch_1">
   <path d="M 0 408.16925 
L 525.823125 408.16925 
L 525.823125 0 
L 0 0 
z
" style="fill:#ffffff;"/>
  </g>
  <g id="axes_1">
   <g id="patch_2">
    <path d="M 56.953125 368.74175 
L 503.353125 368.74175 
L 503.353125 23.14175 
L 56.953125 23.14175 
z
" style="fill:#ffffff;"/>
   </g>
   <g id="line2d_1">
    <path clip-path="url(#pdce8b2b11c)" d="M 57.399525 287.63123 
L 57.845925 292.59872 
L 58.292325 290.004428 
L 58.738725 282.080374 
L 59.185125 296.38126 
L 59.631525 289.529494 
L 60.077925 289.859975 
L 60.524325 301.37208 
L 60.970725 291.921426 
L 61.417125 287.057691 
L 61.863525 293.382221 
L 62.309925 291.806993 
L 62.756325 303.511572 
L 63.202725 289.607807 
L 63.649125 285.261894 
L 64.095525 287.637216 
L 64.541925 292.363191 
L 64.988325 292.652309 
L 65.434725 293.093616 
L 65.881125 289.74644 
L 66.327525 293.675495 
L 66.773925 292.133218 
L 67.220325 288.643971 
L 67.666725 281.746315 
L 68.113125 284.459968 
L 68.559525 286.310617 
L 69.005925 285.597683 
L 69.452325 290.933824 
L 69.898725 288.248709 
L 70.345125 286.779419 
L 70.791525 296.183453 
L 71.237925 292.7513 
L 71.684325 290.906701 
L 72.130725 289.862494 
L 72.577125 287.421354 
L 73.023525 293.785555 
L 73.469925 293.772706 
L 73.916325 296.189034 
L 74.362725 288.469166 
L 74.809125 291.33121 
L 75.255525 299.967668 
L 75.701925 281.749629 
L 76.148325 297.597689 
L 76.594725 286.855987 
L 77.041125 288.874729 
L 77.487525 280.957026 
L 77.933925 284.697708 
L 78.380325 293.785322 
L 78.826725 291.247167 
L 79.273125 284.482932 
L 79.719525 292.67133 
L 80.165925 291.404363 
L 80.612325 287.181471 
L 81.058725 280.202519 
L 82.397925 292.06187 
L 82.844325 293.079094 
L 83.290725 288.393449 
L 83.737125 287.804606 
L 84.183525 288.172912 
L 84.629925 284.64677 
L 85.076325 293.464167 
L 85.522725 287.313921 
L 85.969125 285.210043 
L 86.415525 284.55309 
L 86.861925 291.117513 
L 87.308325 290.119357 
L 87.754725 296.431325 
L 88.201125 288.57597 
L 88.647525 288.851243 
L 89.093925 296.751196 
L 89.986725 287.645105 
L 90.879525 284.949003 
L 91.325925 288.748858 
L 91.772325 290.597548 
L 92.218725 289.969646 
L 92.665125 286.915379 
L 93.111525 281.413456 
L 93.557925 285.032957 
L 94.004325 286.916462 
L 94.450725 293.082066 
L 94.897125 288.998982 
L 95.343525 289.25901 
L 95.789925 286.414353 
L 96.236325 289.901901 
L 96.682725 295.419315 
L 97.129125 288.328528 
L 97.575525 292.295043 
L 98.021925 300.975536 
L 98.468325 291.140946 
L 98.914725 286.004115 
L 99.361125 294.473044 
L 99.807525 297.232542 
L 100.253925 288.975138 
L 100.700325 299.922153 
L 101.146725 298.566689 
L 101.593125 290.731391 
L 102.039525 292.73642 
L 102.485925 283.729356 
L 102.932325 285.452747 
L 103.378725 290.248931 
L 103.825125 284.17566 
L 104.271525 282.216304 
L 104.717925 290.689695 
L 105.164325 279.239985 
L 105.610725 291.229042 
L 106.057125 295.6012 
L 106.949925 283.958025 
L 107.396325 295.121125 
L 107.842725 294.016613 
L 108.289125 294.74193 
L 109.181925 287.328809 
L 109.628325 291.39853 
L 110.074725 290.373144 
L 110.521125 291.735631 
L 110.967525 290.106676 
L 111.413925 291.831355 
L 111.860325 288.91626 
L 112.306725 289.451899 
L 112.753125 297.115831 
L 113.199525 284.912581 
L 113.645925 289.434064 
L 114.092325 292.527993 
L 114.538725 292.277916 
L 114.985125 282.982621 
L 115.431525 291.038861 
L 115.877925 289.706724 
L 116.324325 293.814287 
L 116.770725 292.375597 
L 117.217125 289.248778 
L 117.663525 290.785642 
L 118.109925 294.115513 
L 118.556325 291.198249 
L 119.002725 280.371105 
L 119.449125 290.513348 
L 119.895525 278.94664 
L 120.341925 300.548337 
L 120.788325 294.196789 
L 121.234725 296.731513 
L 121.681125 291.201898 
L 122.127525 287.512625 
L 122.573925 297.740913 
L 123.020325 289.925922 
L 123.466725 292.75815 
L 123.913125 293.487876 
L 124.359525 287.53547 
L 124.805925 291.221009 
L 125.252325 296.975759 
L 125.698725 290.019994 
L 126.145125 291.29587 
L 126.591525 295.147575 
L 127.930725 290.6245 
L 128.377125 285.028501 
L 128.823525 290.15866 
L 129.269925 296.898448 
L 129.716325 295.293648 
L 130.162725 285.766739 
L 130.609125 291.138099 
L 131.055525 291.400101 
L 131.501925 285.871726 
L 131.948325 292.918055 
L 132.394725 293.125193 
L 132.841125 288.193608 
L 133.287525 289.833689 
L 133.733925 293.946923 
L 134.180325 290.37152 
L 134.626725 294.728765 
L 135.073125 285.194618 
L 135.519525 283.990805 
L 135.965925 293.935476 
L 136.412325 285.299509 
L 136.858725 295.70693 
L 137.751525 285.923319 
L 138.197925 290.614579 
L 138.644325 284.443559 
L 139.090725 293.401548 
L 139.537125 286.433422 
L 140.429925 298.412043 
L 140.876325 290.579465 
L 141.322725 294.822108 
L 141.769125 287.187763 
L 142.661925 285.444385 
L 143.108325 280.484914 
L 143.554725 285.349947 
L 144.001125 286.724103 
L 144.893925 293.519716 
L 145.340325 288.331015 
L 145.786725 291.377318 
L 146.233125 281.581962 
L 146.679525 281.80683 
L 147.125925 282.264137 
L 147.572325 288.736871 
L 148.018725 288.137962 
L 148.465125 292.849891 
L 148.911525 290.890786 
L 149.357925 290.938351 
L 149.804325 288.971336 
L 150.250725 292.780999 
L 150.697125 289.092615 
L 151.143525 298.472722 
L 151.589925 291.566268 
L 152.036325 282.750934 
L 152.482725 290.101594 
L 152.929125 293.16438 
L 153.375525 289.870222 
L 153.821925 281.4026 
L 154.268325 295.43372 
L 154.714725 294.57262 
L 155.161125 285.228897 
L 155.607525 292.153025 
L 156.053925 284.025765 
L 156.500325 297.665116 
L 156.946725 295.231125 
L 157.393125 285.129311 
L 157.839525 297.807933 
L 158.285925 284.512244 
L 159.178725 290.340781 
L 159.625125 291.609354 
L 160.071525 294.901211 
L 160.517925 282.737252 
L 160.964325 288.35964 
L 161.410725 290.524921 
L 162.303525 287.81374 
L 162.749925 284.635637 
L 163.196325 288.963306 
L 163.642725 285.839646 
L 164.089125 289.044048 
L 164.535525 287.254079 
L 164.981925 294.129136 
L 165.428325 293.909261 
L 165.874725 280.265642 
L 166.321125 289.761099 
L 166.767525 290.2937 
L 167.660325 293.894158 
L 168.106725 290.514257 
L 168.553125 289.03148 
L 168.999525 289.094249 
L 169.445925 307.99573 
L 169.892325 309.790083 
L 170.338725 264.518258 
L 170.785125 323.494166 
L 171.231525 282.593644 
L 171.677925 300.877888 
L 172.124325 267.291739 
L 172.570725 298.159462 
L 173.017125 314.542779 
L 173.463525 290.884362 
L 173.909925 284.771881 
L 174.356325 290.371816 
L 174.802725 268.810419 
L 175.249125 277.515821 
L 175.695525 296.338116 
L 176.141925 283.838423 
L 176.588325 277.741216 
L 177.034725 290.400279 
L 177.481125 282.241445 
L 177.927525 279.852156 
L 178.373925 284.964794 
L 178.820325 288.207609 
L 179.266725 283.530754 
L 179.713125 283.18069 
L 180.159525 287.247336 
L 180.605925 283.921953 
L 181.052325 290.050171 
L 181.498725 284.535651 
L 181.945125 289.610562 
L 182.391525 291.023511 
L 182.837925 289.905724 
L 183.284325 285.105159 
L 183.730725 283.548277 
L 184.177125 284.064418 
L 184.623525 285.633822 
L 185.069925 285.681879 
L 185.516325 283.777269 
L 185.962725 284.583919 
L 186.409125 284.752103 
L 186.855525 284.502052 
L 187.301925 283.079732 
L 187.748325 284.486072 
L 188.194725 283.714398 
L 188.641125 283.876037 
L 189.087525 283.152023 
L 189.533925 283.326799 
L 189.980325 283.050939 
L 190.426725 282.944541 
L 190.873125 281.354106 
L 191.319525 281.35338 
L 191.765925 281.077053 
L 192.212325 281.910114 
L 192.658725 281.485078 
L 193.105125 281.418117 
L 193.551525 281.881552 
L 193.997925 282.11858 
L 194.444325 281.10745 
L 194.890725 280.649637 
L 195.337125 280.851634 
L 195.783525 281.312942 
L 196.229925 280.347183 
L 196.676325 280.34881 
L 197.122725 280.715643 
L 197.569125 280.347983 
L 198.015525 279.217846 
L 198.461925 280.366791 
L 198.908325 279.951503 
L 199.354725 280.672245 
L 199.801125 279.488381 
L 200.247525 279.900726 
L 200.693925 279.121677 
L 201.140325 279.07203 
L 201.586725 278.804301 
L 202.033125 278.865778 
L 202.479525 280.733626 
L 202.925925 279.195882 
L 203.372325 279.552607 
L 203.818725 278.18443 
L 204.265125 278.130188 
L 204.711525 278.482728 
L 205.157925 278.268405 
L 205.604325 277.24992 
L 206.050725 279.040163 
L 206.497125 278.848754 
L 206.943525 277.706519 
L 207.389925 278.742158 
L 207.836325 277.418221 
L 208.282725 278.42174 
L 208.729125 277.295612 
L 209.175525 277.779267 
L 209.621925 276.218447 
L 210.068325 277.491357 
L 210.514725 275.110985 
L 210.961125 275.216807 
L 211.407525 275.809917 
L 211.853925 275.968322 
L 212.300325 276.801309 
L 212.746725 276.493905 
L 213.193125 275.478051 
L 213.639525 275.924254 
L 214.085925 276.029409 
L 214.532325 274.809987 
L 214.978725 276.822772 
L 215.425125 276.188656 
L 215.871525 275.051033 
L 216.317925 277.114152 
L 216.764325 276.642082 
L 217.210725 274.364559 
L 218.103525 275.830927 
L 218.549925 272.743041 
L 218.996325 273.114573 
L 219.442725 275.191682 
L 219.889125 271.87087 
L 220.335525 273.968435 
L 220.781925 271.698277 
L 221.228325 270.180032 
L 221.674725 272.357669 
L 222.121125 268.085863 
L 223.013925 272.697453 
L 223.460325 273.091602 
L 223.906725 273.775702 
L 224.353125 270.919194 
L 224.799525 272.020766 
L 225.692325 270.616323 
L 226.138725 275.41655 
L 226.585125 272.608149 
L 227.031525 268.799739 
L 227.477925 273.011492 
L 227.924325 272.119905 
L 228.370725 267.331627 
L 228.817125 269.259788 
L 229.263525 272.992907 
L 229.709925 270.443668 
L 230.156325 266.514224 
L 230.602725 270.35021 
L 231.495525 264.653528 
L 231.941925 268.499988 
L 232.388325 266.61088 
L 232.834725 267.868315 
L 233.727525 264.653665 
L 234.173925 266.017547 
L 234.620325 267.924578 
L 235.066725 264.540386 
L 235.513125 263.82124 
L 235.959525 271.013244 
L 236.405925 266.850963 
L 236.852325 267.843388 
L 237.298725 260.183608 
L 237.745125 268.849893 
L 238.191525 262.862211 
L 238.637925 263.345026 
L 239.084325 266.4348 
L 239.530725 262.848501 
L 239.977125 270.323518 
L 240.423525 260.027423 
L 240.869925 264.590482 
L 241.316325 265.132054 
L 241.762725 262.263121 
L 242.209125 261.64464 
L 242.655525 265.276791 
L 243.101925 262.585885 
L 243.548325 262.561209 
L 243.994725 260.070845 
L 244.441125 259.108846 
L 244.887525 262.404358 
L 245.333925 264.543278 
L 245.780325 255.680923 
L 246.673125 264.733813 
L 247.119525 256.123732 
L 247.565925 263.985446 
L 248.012325 258.898332 
L 248.458725 259.495917 
L 248.905125 255.237311 
L 249.351525 261.360722 
L 249.797925 257.16655 
L 250.244325 258.739083 
L 250.690725 258.726441 
L 251.137125 260.886123 
L 251.583525 253.588158 
L 252.029925 255.566727 
L 252.476325 256.88992 
L 252.922725 255.414377 
L 253.369125 256.309163 
L 253.815525 259.34427 
L 254.261925 250.341339 
L 254.708325 253.297041 
L 255.154725 261.838255 
L 255.601125 252.994801 
L 256.047525 260.187775 
L 256.493925 249.183193 
L 256.940325 254.159549 
L 257.386725 247.12883 
L 257.833125 251.122617 
L 258.279525 260.094651 
L 258.725925 254.352298 
L 259.172325 254.195649 
L 259.618725 254.323213 
L 260.065125 257.706527 
L 260.511525 249.39088 
L 260.957925 254.294486 
L 261.404325 250.102826 
L 261.850725 247.62996 
L 262.297125 249.515069 
L 262.743525 248.698222 
L 263.189925 250.63755 
L 263.636325 258.35065 
L 264.529125 248.032917 
L 264.975525 255.054508 
L 265.421925 253.540028 
L 265.868325 245.503529 
L 266.314725 250.709297 
L 266.761125 249.592488 
L 267.207525 246.939184 
L 267.653925 248.870878 
L 268.100325 248.431251 
L 268.546725 253.318314 
L 268.993125 256.146462 
L 269.439525 247.372254 
L 269.885925 248.750301 
L 270.332325 246.255672 
L 270.778725 251.842088 
L 271.225125 242.279792 
L 271.671525 253.842645 
L 272.117925 257.836761 
L 272.564325 248.945206 
L 273.010725 248.766419 
L 273.457125 262.903175 
L 273.903525 252.779407 
L 274.349925 250.294025 
L 274.796325 242.323896 
L 275.242725 242.657826 
L 275.689125 249.597741 
L 276.135525 249.001739 
L 276.581925 252.204912 
L 277.028325 242.167048 
L 277.474725 247.274869 
L 277.921125 242.40456 
L 278.367525 247.283739 
L 278.813925 238.908083 
L 279.260325 244.513971 
L 279.706725 235.511636 
L 280.153125 242.019714 
L 280.599525 245.434154 
L 281.045925 247.145827 
L 281.492325 247.907871 
L 281.938725 237.928433 
L 282.385125 243.735997 
L 282.831525 239.408626 
L 283.277925 240.724572 
L 283.724325 238.661612 
L 284.170725 233.300468 
L 284.617125 244.736616 
L 285.063525 233.17718 
L 285.509925 237.375138 
L 285.956325 239.390145 
L 286.849125 233.104057 
L 287.741925 240.417541 
L 288.188325 240.958954 
L 288.634725 233.707421 
L 289.081125 242.451467 
L 289.527525 240.089119 
L 289.973925 244.308698 
L 290.420325 234.895404 
L 290.866725 234.810209 
L 291.313125 234.188424 
L 291.759525 235.33936 
L 292.205925 233.027679 
L 292.652325 242.642046 
L 293.098725 231.288798 
L 293.991525 235.369317 
L 294.437925 249.368777 
L 294.884325 232.10078 
L 295.330725 231.382964 
L 295.777125 234.989957 
L 296.223525 235.482137 
L 297.116325 233.08359 
L 297.562725 241.341714 
L 298.009125 232.959015 
L 298.455525 231.556455 
L 298.901925 225.978962 
L 299.348325 237.347032 
L 299.794725 229.975163 
L 300.241125 234.122124 
L 300.687525 235.011973 
L 301.133925 227.767974 
L 301.580325 231.746704 
L 302.026725 227.690189 
L 302.473125 225.562979 
L 302.919525 228.28678 
L 303.365925 232.512942 
L 303.812325 230.022824 
L 304.258725 228.850176 
L 304.705125 231.292215 
L 305.597925 221.868442 
L 306.044325 224.847441 
L 306.490725 226.507741 
L 306.937125 227.553988 
L 307.383525 228.931956 
L 307.829925 235.618875 
L 308.722725 224.329575 
L 309.169125 224.278544 
L 309.615525 224.587151 
L 310.061925 230.828554 
L 310.954725 223.085329 
L 311.401125 226.244725 
L 311.847525 224.563181 
L 312.293925 219.226075 
L 312.740325 223.39828 
L 313.186725 226.1129 
L 313.633125 230.501246 
L 314.079525 226.608339 
L 314.525925 217.674471 
L 314.972325 221.046056 
L 315.418725 217.430858 
L 315.865125 226.624755 
L 316.311525 222.910073 
L 316.757925 216.903194 
L 317.204325 219.401785 
L 317.650725 223.019353 
L 318.097125 223.738943 
L 318.543525 225.890633 
L 318.989925 217.061647 
L 319.436325 215.740841 
L 319.882725 217.809925 
L 320.329125 218.70319 
L 320.775525 209.840836 
L 321.221925 226.92075 
L 321.668325 212.410921 
L 322.114725 219.132773 
L 322.561125 216.361375 
L 323.007525 215.904981 
L 323.453925 216.306632 
L 323.900325 211.386903 
L 324.346725 222.111282 
L 324.793125 211.587633 
L 325.239525 214.839156 
L 325.685925 207.565061 
L 326.132325 215.276333 
L 326.578725 203.790779 
L 327.025125 209.154967 
L 327.471525 210.37282 
L 327.917925 210.43984 
L 328.364325 206.562073 
L 328.810725 212.473177 
L 329.257125 221.779883 
L 329.703525 203.432359 
L 330.149925 202.831755 
L 331.042725 220.253382 
L 331.489125 215.740365 
L 331.935525 219.339479 
L 332.381925 203.930525 
L 332.828325 215.920955 
L 333.274725 214.2641 
L 333.721125 207.089883 
L 334.167525 205.067443 
L 334.613925 220.019267 
L 335.060325 218.179502 
L 335.506725 224.625868 
L 335.953125 206.884446 
L 336.399525 209.756487 
L 336.845925 194.075239 
L 337.292325 205.871749 
L 337.738725 210.399427 
L 338.185125 213.159846 
L 338.631525 204.469409 
L 339.077925 206.170808 
L 339.524325 201.273041 
L 339.970725 208.310142 
L 340.417125 212.836281 
L 340.863525 210.205824 
L 341.309925 213.789431 
L 341.756325 203.07292 
L 342.202725 221.239577 
L 342.649125 205.680878 
L 343.095525 203.241812 
L 343.541925 206.187124 
L 343.988325 204.982566 
L 344.434725 206.811893 
L 344.881125 205.766084 
L 345.327525 217.198679 
L 345.773925 188.73575 
L 346.220325 191.136754 
L 346.666725 190.373053 
L 347.113125 190.944711 
L 347.559525 221.067272 
L 348.452325 193.327887 
L 348.898725 205.11311 
L 349.345125 205.418726 
L 349.791525 194.637065 
L 350.237925 205.821843 
L 350.684325 193.401715 
L 351.130725 197.70613 
L 351.577125 205.160741 
L 352.023525 203.558887 
L 352.469925 182.300857 
L 352.916325 194.863577 
L 353.362725 192.760125 
L 353.809125 185.268889 
L 354.255525 200.059176 
L 354.701925 210.027225 
L 355.148325 183.47626 
L 355.594725 185.590541 
L 356.041125 188.683942 
L 356.487525 184.030035 
L 356.933925 188.475633 
L 357.380325 199.426505 
L 357.826725 197.143005 
L 358.273125 184.151514 
L 358.719525 200.746181 
L 359.165925 200.64959 
L 359.612325 185.831046 
L 360.058725 192.372813 
L 360.505125 177.955011 
L 360.951525 198.842035 
L 361.397925 197.848126 
L 361.844325 196.144274 
L 362.290725 189.188723 
L 362.737125 185.509129 
L 363.183525 190.414804 
L 363.629925 186.308003 
L 364.076325 183.68602 
L 364.522725 184.807651 
L 364.969125 178.414928 
L 365.415525 181.882657 
L 365.861925 192.878745 
L 366.308325 178.910965 
L 366.754725 193.810872 
L 367.201125 186.219116 
L 367.647525 194.307228 
L 368.093925 177.335463 
L 368.540325 172.663697 
L 368.986725 162.523414 
L 369.433125 161.813367 
L 369.879525 183.270821 
L 370.325925 176.716249 
L 370.772325 175.737355 
L 371.218725 192.53121 
L 371.665125 173.882309 
L 372.111525 185.120301 
L 372.557925 188.367813 
L 373.004325 176.492086 
L 373.450725 169.354581 
L 373.897125 197.29331 
L 374.343525 158.333026 
L 375.236325 187.518503 
L 375.682725 189.307522 
L 376.129125 167.984132 
L 376.575525 198.929732 
L 377.021925 187.022625 
L 377.468325 200.874452 
L 377.914725 175.551133 
L 378.361125 175.97032 
L 378.807525 167.685439 
L 379.253925 186.060257 
L 379.700325 176.346772 
L 380.146725 189.73258 
L 380.593125 158.634984 
L 381.039525 181.179687 
L 381.485925 185.677976 
L 381.932325 171.642038 
L 382.378725 173.236593 
L 382.825125 166.993879 
L 383.271525 181.799945 
L 384.164325 165.689283 
L 384.610725 170.344658 
L 385.057125 186.222004 
L 385.503525 160.33219 
L 385.949925 161.912049 
L 386.396325 149.682941 
L 386.842725 168.284718 
L 387.289125 170.170656 
L 388.181925 184.21481 
L 388.628325 201.320633 
L 389.074725 161.859211 
L 389.521125 191.412821 
L 390.413925 150.717088 
L 390.860325 163.893137 
L 391.306725 164.118553 
L 391.753125 158.187846 
L 392.199525 165.834934 
L 392.645925 158.528324 
L 393.092325 159.414936 
L 393.538725 150.92776 
L 393.985125 153.937499 
L 394.431525 158.606661 
L 394.877925 158.170281 
L 395.324325 182.155496 
L 395.770725 173.845697 
L 396.217125 156.646255 
L 396.663525 165.921709 
L 397.109925 151.895474 
L 397.556325 153.232503 
L 398.002725 157.258952 
L 398.449125 143.964548 
L 398.895525 149.794703 
L 399.341925 159.366702 
L 399.788325 154.524713 
L 400.234725 145.734313 
L 400.681125 154.426329 
L 401.127525 168.462008 
L 401.573925 154.651937 
L 402.020325 157.025602 
L 402.466725 137.9183 
L 402.913125 142.051135 
L 403.359525 184.351889 
L 403.805925 172.546236 
L 404.252325 153.807329 
L 404.698725 147.817211 
L 405.145125 129.1575 
L 405.591525 144.585091 
L 406.037925 133.688295 
L 406.484325 154.805797 
L 406.930725 153.321587 
L 407.377125 171.700655 
L 407.823525 146.504614 
L 408.269925 134.242272 
L 409.162725 154.47174 
L 409.609125 146.13698 
L 410.055525 133.474659 
L 410.501925 142.701296 
L 410.948325 161.996068 
L 411.394725 149.714019 
L 411.841125 145.408302 
L 412.287525 147.560209 
L 412.733925 141.38028 
L 413.180325 130.284932 
L 413.626725 134.104471 
L 414.073125 129.068129 
L 414.519525 165.012784 
L 414.965925 139.165949 
L 415.412325 171.044815 
L 415.858725 130.007949 
L 416.305125 147.460017 
L 416.751525 122.550202 
L 417.197925 159.132626 
L 417.644325 118.639272 
L 418.090725 140.155512 
L 418.537125 119.415864 
L 418.983525 155.24238 
L 419.429925 155.854424 
L 419.876325 128.85527 
L 420.769125 164.88016 
L 421.215525 163.25163 
L 421.661925 144.326898 
L 422.108325 134.287598 
L 422.554725 138.289469 
L 423.001125 128.038373 
L 423.447525 161.277951 
L 423.893925 117.533533 
L 424.786725 122.099614 
L 425.233125 126.592058 
L 425.679525 126.70017 
L 426.125925 136.153624 
L 426.572325 150.278407 
L 427.018725 134.176713 
L 427.465125 132.385325 
L 427.911525 129.043451 
L 428.357925 134.089544 
L 428.804325 119.243027 
L 429.250725 137.327352 
L 429.697125 126.157956 
L 430.143525 111.447411 
L 430.589925 117.729476 
L 431.036325 121.031088 
L 431.482725 121.185258 
L 431.929125 108.445247 
L 432.375525 115.332301 
L 432.821925 124.07001 
L 433.268325 142.994735 
L 433.714725 116.09212 
L 434.161125 132.780587 
L 434.607525 124.733953 
L 435.053925 122.170426 
L 435.500325 113.968592 
L 435.946725 113.711876 
L 436.393125 116.110767 
L 436.839525 109.49615 
L 437.285925 122.135963 
L 437.732325 117.927892 
L 438.178725 110.674489 
L 438.625125 127.022368 
L 439.071525 127.273103 
L 439.517925 109.096022 
L 439.964325 115.515891 
L 440.410725 124.428046 
L 440.857125 94.098974 
L 441.303525 117.762989 
L 441.749925 130.919882 
L 442.196325 151.820605 
L 442.642725 112.514157 
L 443.089125 115.596607 
L 443.535525 105.014914 
L 443.981925 111.774839 
L 444.428325 101.736804 
L 444.874725 101.995689 
L 445.321125 94.431274 
L 445.767525 113.686075 
L 446.213925 124.133533 
L 446.660325 103.870832 
L 447.553125 102.467828 
L 447.999525 100.170998 
L 448.445925 102.323651 
L 448.892325 109.264751 
L 449.338725 113.694492 
L 449.785125 96.571597 
L 450.677925 92.136961 
L 451.124325 106.317171 
L 451.570725 92.578156 
L 452.017125 85.141562 
L 452.909925 96.809582 
L 453.356325 99.271065 
L 453.802725 91.167159 
L 454.249125 118.043204 
L 454.695525 87.57635 
L 455.141925 89.938328 
L 455.588325 106.729148 
L 456.034725 91.048924 
L 456.481125 90.985305 
L 456.927525 96.008778 
L 457.373925 91.18601 
L 457.820325 95.55801 
L 458.266725 76.8727 
L 459.159525 122.998841 
L 459.605925 94.509503 
L 460.052325 90.197849 
L 460.498725 88.24728 
L 460.945125 93.533843 
L 461.391525 104.482957 
L 461.837925 81.915998 
L 462.284325 83.38276 
L 462.730725 144.913567 
L 463.177125 120.97572 
L 463.623525 87.927133 
L 464.069925 79.662874 
L 464.516325 88.215349 
L 464.962725 80.491239 
L 465.409125 77.145197 
L 465.855525 105.0571 
L 466.301925 66.963828 
L 466.748325 136.843053 
L 467.194725 82.745647 
L 467.641125 88.890577 
L 468.087525 79.212808 
L 468.533925 78.627147 
L 468.980325 77.648654 
L 469.426725 84.840215 
L 469.873125 78.29596 
L 470.319525 82.910245 
L 470.765925 86.158069 
L 471.212325 76.001138 
L 471.658725 81.582927 
L 472.105125 80.360504 
L 472.551525 85.481111 
L 472.997925 82.406875 
L 473.444325 69.725863 
L 473.890725 74.204237 
L 474.337125 74.071218 
L 474.783525 72.817955 
L 475.229925 77.154151 
L 475.676325 71.313789 
L 476.122725 81.218131 
L 476.569125 75.785676 
L 477.015525 77.039222 
L 477.461925 81.980841 
L 477.908325 90.827953 
L 478.354725 77.106779 
L 479.247525 79.763979 
L 479.693925 73.651497 
L 480.140325 90.193783 
L 480.586725 63.068896 
L 481.479525 89.869048 
L 481.925925 71.42024 
L 482.372325 66.650534 
L 482.818725 69.838293 
L 483.711525 56.063376 
L 484.157925 74.679321 
L 484.604325 69.656948 
L 485.050725 89.274956 
L 485.497125 50.65478 
L 485.943525 63.728591 
L 486.389925 54.564458 
L 486.836325 69.118214 
L 487.282725 62.716185 
L 487.729125 57.970958 
L 488.175525 57.346091 
L 488.621925 58.628237 
L 489.068325 69.55785 
L 489.514725 60.253368 
L 489.961125 62.817424 
L 490.407525 66.53848 
L 490.853925 58.169978 
L 491.300325 80.827636 
L 491.746725 65.998329 
L 492.193125 56.195711 
L 492.639525 53.311742 
L 493.532325 65.200828 
L 493.978725 136.582448 
L 494.425125 60.320862 
L 494.871525 54.38812 
L 495.317925 54.013275 
L 495.764325 51.487146 
L 496.210725 45.806241 
L 496.657125 59.342323 
L 497.103525 58.531416 
L 497.549925 55.983897 
L 497.996325 65.802333 
L 498.442725 67.628667 
L 498.889125 66.611884 
L 499.335525 40.596202 
L 499.781925 75.081841 
L 500.228325 51.155131 
L 500.674725 58.686002 
L 501.121125 52.22999 
L 501.567525 38.208132 
L 502.013925 55.819682 
L 502.460325 32.966222 
L 503.353125 89.629261 
L 503.353125 89.629261 
" style="fill:none;stroke:#0000ff;stroke-linecap:square;stroke-width:0.5;"/>
   </g>
   <g id="patch_3">
    <path d="M 56.953125 368.74175 
L 56.953125 23.14175 
" style="fill:none;stroke:#000000;stroke-linecap:square;stroke-linejoin:miter;"/>
   </g>
   <g id="patch_4">
    <path d="M 503.353125 368.74175 
L 503.353125 23.14175 
" style="fill:none;stroke:#000000;stroke-linecap:square;stroke-linejoin:miter;"/>
   </g>
   <g id="patch_5">
    <path d="M 56.953125 368.74175 
L 503.353125 368.74175 
" style="fill:none;stroke:#000000;stroke-linecap:square;stroke-linejoin:miter;"/>
   </g>
   <g id="patch_6">
    <path d="M 56.953125 23.14175 
L 503.353125 23.14175 
" style="fill:none;stroke:#000000;stroke-linecap:square;stroke-linejoin:miter;"/>
   </g>
   <g id="matplotlib.axis_1">
    <g id="xtick_1">
     <g id="line2d_2">
      <defs>
       <path d="M 0 0 
L 0 -4 
" id="ma6e773a56a" style="stroke:#000000;stroke-width:0.5;"/>
      </defs>
      <g>
       <use style="stroke:#000000;stroke-width:0.5;" x="56.953125" xlink:href="#ma6e773a56a" y="368.74175"/>
      </g>
     </g>
     <g id="line2d_3">
      <defs>
       <path d="M 0 0 
L 0 4 
" id="mf221a6cec1" style="stroke:#000000;stroke-width:0.5;"/>
      </defs>
      <g>
       <use style="stroke:#000000;stroke-width:0.5;" x="56.953125" xlink:href="#mf221a6cec1" y="23.14175"/>
      </g>
     </g>
     <g id="text_1">
      <!-- 0 -->
      <defs>
       <path d="M 31.78125 66.40625 
Q 24.171875 66.40625 20.328125 58.90625 
Q 16.5 51.421875 16.5 36.375 
Q 16.5 21.390625 20.328125 13.890625 
Q 24.171875 6.390625 31.78125 6.390625 
Q 39.453125 6.390625 43.28125 13.890625 
Q 47.125 21.390625 47.125 36.375 
Q 47.125 51.421875 43.28125 58.90625 
Q 39.453125 66.40625 31.78125 66.40625 
M 31.78125 74.21875 
Q 44.046875 74.21875 50.515625 64.515625 
Q 56.984375 54.828125 56.984375 36.375 
Q 56.984375 17.96875 50.515625 8.265625 
Q 44.046875 -1.421875 31.78125 -1.421875 
Q 19.53125 -1.421875 13.0625 8.265625 
Q 6.59375 17.96875 6.59375 36.375 
Q 6.59375 54.828125 13.0625 64.515625 
Q 19.53125 74.21875 31.78125 74.21875 
" id="BitstreamVeraSans-Roman-30"/>
      </defs>
      <g transform="translate(53.135625 381.859875)scale(0.12 -0.12)">
       <use xlink:href="#BitstreamVeraSans-Roman-30"/>
      </g>
     </g>
    </g>
    <g id="xtick_2">
     <g id="line2d_4">
      <g>
       <use style="stroke:#000000;stroke-width:0.5;" x="146.233125" xlink:href="#ma6e773a56a" y="368.74175"/>
      </g>
     </g>
     <g id="line2d_5">
      <g>
       <use style="stroke:#000000;stroke-width:0.5;" x="146.233125" xlink:href="#mf221a6cec1" y="23.14175"/>
      </g>
     </g>
     <g id="text_2">
      <!-- 200 -->
      <defs>
       <path d="M 19.1875 8.296875 
L 53.609375 8.296875 
L 53.609375 0 
L 7.328125 0 
L 7.328125 8.296875 
Q 12.9375 14.109375 22.625 23.890625 
Q 32.328125 33.6875 34.8125 36.53125 
Q 39.546875 41.84375 41.421875 45.53125 
Q 43.3125 49.21875 43.3125 52.78125 
Q 43.3125 58.59375 39.234375 62.25 
Q 35.15625 65.921875 28.609375 65.921875 
Q 23.96875 65.921875 18.8125 64.3125 
Q 13.671875 62.703125 7.8125 59.421875 
L 7.8125 69.390625 
Q 13.765625 71.78125 18.9375 73 
Q 24.125 74.21875 28.421875 74.21875 
Q 39.75 74.21875 46.484375 68.546875 
Q 53.21875 62.890625 53.21875 53.421875 
Q 53.21875 48.921875 51.53125 44.890625 
Q 49.859375 40.875 45.40625 35.40625 
Q 44.1875 33.984375 37.640625 27.21875 
Q 31.109375 20.453125 19.1875 8.296875 
" id="BitstreamVeraSans-Roman-32"/>
      </defs>
      <g transform="translate(134.780625 381.859875)scale(0.12 -0.12)">
       <use xlink:href="#BitstreamVeraSans-Roman-32"/>
       <use x="63.623046875" xlink:href="#BitstreamVeraSans-Roman-30"/>
       <use x="127.24609375" xlink:href="#BitstreamVeraSans-Roman-30"/>
      </g>
     </g>
    </g>
    <g id="xtick_3">
     <g id="line2d_6">
      <g>
       <use style="stroke:#000000;stroke-width:0.5;" x="235.513125" xlink:href="#ma6e773a56a" y="368.74175"/>
      </g>
     </g>
     <g id="line2d_7">
      <g>
       <use style="stroke:#000000;stroke-width:0.5;" x="235.513125" xlink:href="#mf221a6cec1" y="23.14175"/>
      </g>
     </g>
     <g id="text_3">
      <!-- 400 -->
      <defs>
       <path d="M 37.796875 64.3125 
L 12.890625 25.390625 
L 37.796875 25.390625 
z
M 35.203125 72.90625 
L 47.609375 72.90625 
L 47.609375 25.390625 
L 58.015625 25.390625 
L 58.015625 17.1875 
L 47.609375 17.1875 
L 47.609375 0 
L 37.796875 0 
L 37.796875 17.1875 
L 4.890625 17.1875 
L 4.890625 26.703125 
z
" id="BitstreamVeraSans-Roman-34"/>
      </defs>
      <g transform="translate(224.060625 381.859875)scale(0.12 -0.12)">
       <use xlink:href="#BitstreamVeraSans-Roman-34"/>
       <use x="63.623046875" xlink:href="#BitstreamVeraSans-Roman-30"/>
       <use x="127.24609375" xlink:href="#BitstreamVeraSans-Roman-30"/>
      </g>
     </g>
    </g>
    <g id="xtick_4">
     <g id="line2d_8">
      <g>
       <use style="stroke:#000000;stroke-width:0.5;" x="324.793125" xlink:href="#ma6e773a56a" y="368.74175"/>
      </g>
     </g>
     <g id="line2d_9">
      <g>
       <use style="stroke:#000000;stroke-width:0.5;" x="324.793125" xlink:href="#mf221a6cec1" y="23.14175"/>
      </g>
     </g>
     <g id="text_4">
      <!-- 600 -->
      <defs>
       <path d="M 33.015625 40.375 
Q 26.375 40.375 22.484375 35.828125 
Q 18.609375 31.296875 18.609375 23.390625 
Q 18.609375 15.53125 22.484375 10.953125 
Q 26.375 6.390625 33.015625 6.390625 
Q 39.65625 6.390625 43.53125 10.953125 
Q 47.40625 15.53125 47.40625 23.390625 
Q 47.40625 31.296875 43.53125 35.828125 
Q 39.65625 40.375 33.015625 40.375 
M 52.59375 71.296875 
L 52.59375 62.3125 
Q 48.875 64.0625 45.09375 64.984375 
Q 41.3125 65.921875 37.59375 65.921875 
Q 27.828125 65.921875 22.671875 59.328125 
Q 17.53125 52.734375 16.796875 39.40625 
Q 19.671875 43.65625 24.015625 45.921875 
Q 28.375 48.1875 33.59375 48.1875 
Q 44.578125 48.1875 50.953125 41.515625 
Q 57.328125 34.859375 57.328125 23.390625 
Q 57.328125 12.15625 50.6875 5.359375 
Q 44.046875 -1.421875 33.015625 -1.421875 
Q 20.359375 -1.421875 13.671875 8.265625 
Q 6.984375 17.96875 6.984375 36.375 
Q 6.984375 53.65625 15.1875 63.9375 
Q 23.390625 74.21875 37.203125 74.21875 
Q 40.921875 74.21875 44.703125 73.484375 
Q 48.484375 72.75 52.59375 71.296875 
" id="BitstreamVeraSans-Roman-36"/>
      </defs>
      <g transform="translate(313.340625 381.859875)scale(0.12 -0.12)">
       <use xlink:href="#BitstreamVeraSans-Roman-36"/>
       <use x="63.623046875" xlink:href="#BitstreamVeraSans-Roman-30"/>
       <use x="127.24609375" xlink:href="#BitstreamVeraSans-Roman-30"/>
      </g>
     </g>
    </g>
    <g id="xtick_5">
     <g id="line2d_10">
      <g>
       <use style="stroke:#000000;stroke-width:0.5;" x="414.073125" xlink:href="#ma6e773a56a" y="368.74175"/>
      </g>
     </g>
     <g id="line2d_11">
      <g>
       <use style="stroke:#000000;stroke-width:0.5;" x="414.073125" xlink:href="#mf221a6cec1" y="23.14175"/>
      </g>
     </g>
     <g id="text_5">
      <!-- 800 -->
      <defs>
       <path d="M 31.78125 34.625 
Q 24.75 34.625 20.71875 30.859375 
Q 16.703125 27.09375 16.703125 20.515625 
Q 16.703125 13.921875 20.71875 10.15625 
Q 24.75 6.390625 31.78125 6.390625 
Q 38.8125 6.390625 42.859375 10.171875 
Q 46.921875 13.96875 46.921875 20.515625 
Q 46.921875 27.09375 42.890625 30.859375 
Q 38.875 34.625 31.78125 34.625 
M 21.921875 38.8125 
Q 15.578125 40.375 12.03125 44.71875 
Q 8.5 49.078125 8.5 55.328125 
Q 8.5 64.0625 14.71875 69.140625 
Q 20.953125 74.21875 31.78125 74.21875 
Q 42.671875 74.21875 48.875 69.140625 
Q 55.078125 64.0625 55.078125 55.328125 
Q 55.078125 49.078125 51.53125 44.71875 
Q 48 40.375 41.703125 38.8125 
Q 48.828125 37.15625 52.796875 32.3125 
Q 56.78125 27.484375 56.78125 20.515625 
Q 56.78125 9.90625 50.3125 4.234375 
Q 43.84375 -1.421875 31.78125 -1.421875 
Q 19.734375 -1.421875 13.25 4.234375 
Q 6.78125 9.90625 6.78125 20.515625 
Q 6.78125 27.484375 10.78125 32.3125 
Q 14.796875 37.15625 21.921875 38.8125 
M 18.3125 54.390625 
Q 18.3125 48.734375 21.84375 45.5625 
Q 25.390625 42.390625 31.78125 42.390625 
Q 38.140625 42.390625 41.71875 45.5625 
Q 45.3125 48.734375 45.3125 54.390625 
Q 45.3125 60.0625 41.71875 63.234375 
Q 38.140625 66.40625 31.78125 66.40625 
Q 25.390625 66.40625 21.84375 63.234375 
Q 18.3125 60.0625 18.3125 54.390625 
" id="BitstreamVeraSans-Roman-38"/>
      </defs>
      <g transform="translate(402.620625 381.859875)scale(0.12 -0.12)">
       <use xlink:href="#BitstreamVeraSans-Roman-38"/>
       <use x="63.623046875" xlink:href="#BitstreamVeraSans-Roman-30"/>
       <use x="127.24609375" xlink:href="#BitstreamVeraSans-Roman-30"/>
      </g>
     </g>
    </g>
    <g id="xtick_6">
     <g id="line2d_12">
      <g>
       <use style="stroke:#000000;stroke-width:0.5;" x="503.353125" xlink:href="#ma6e773a56a" y="368.74175"/>
      </g>
     </g>
     <g id="line2d_13">
      <g>
       <use style="stroke:#000000;stroke-width:0.5;" x="503.353125" xlink:href="#mf221a6cec1" y="23.14175"/>
      </g>
     </g>
     <g id="text_6">
      <!-- 1000 -->
      <defs>
       <path d="M 12.40625 8.296875 
L 28.515625 8.296875 
L 28.515625 63.921875 
L 10.984375 60.40625 
L 10.984375 69.390625 
L 28.421875 72.90625 
L 38.28125 72.90625 
L 38.28125 8.296875 
L 54.390625 8.296875 
L 54.390625 0 
L 12.40625 0 
z
" id="BitstreamVeraSans-Roman-31"/>
      </defs>
      <g transform="translate(488.083125 381.859875)scale(0.12 -0.12)">
       <use xlink:href="#BitstreamVeraSans-Roman-31"/>
       <use x="63.623046875" xlink:href="#BitstreamVeraSans-Roman-30"/>
       <use x="127.24609375" xlink:href="#BitstreamVeraSans-Roman-30"/>
       <use x="190.869140625" xlink:href="#BitstreamVeraSans-Roman-30"/>
      </g>
     </g>
    </g>
    <g id="text_7">
     <!-- episode -->
     <defs>
      <path d="M 9.421875 54.6875 
L 18.40625 54.6875 
L 18.40625 0 
L 9.421875 0 
z
M 9.421875 75.984375 
L 18.40625 75.984375 
L 18.40625 64.59375 
L 9.421875 64.59375 
z
" id="BitstreamVeraSans-Roman-69"/>
      <path d="M 44.28125 53.078125 
L 44.28125 44.578125 
Q 40.484375 46.53125 36.375 47.5 
Q 32.28125 48.484375 27.875 48.484375 
Q 21.1875 48.484375 17.84375 46.4375 
Q 14.5 44.390625 14.5 40.28125 
Q 14.5 37.15625 16.890625 35.375 
Q 19.28125 33.59375 26.515625 31.984375 
L 29.59375 31.296875 
Q 39.15625 29.25 43.1875 25.515625 
Q 47.21875 21.78125 47.21875 15.09375 
Q 47.21875 7.46875 41.1875 3.015625 
Q 35.15625 -1.421875 24.609375 -1.421875 
Q 20.21875 -1.421875 15.453125 -0.5625 
Q 10.6875 0.296875 5.421875 2 
L 5.421875 11.28125 
Q 10.40625 8.6875 15.234375 7.390625 
Q 20.0625 6.109375 24.8125 6.109375 
Q 31.15625 6.109375 34.5625 8.28125 
Q 37.984375 10.453125 37.984375 14.40625 
Q 37.984375 18.0625 35.515625 20.015625 
Q 33.0625 21.96875 24.703125 23.78125 
L 21.578125 24.515625 
Q 13.234375 26.265625 9.515625 29.90625 
Q 5.8125 33.546875 5.8125 39.890625 
Q 5.8125 47.609375 11.28125 51.796875 
Q 16.75 56 26.8125 56 
Q 31.78125 56 36.171875 55.265625 
Q 40.578125 54.546875 44.28125 53.078125 
" id="BitstreamVeraSans-Roman-73"/>
      <path d="M 45.40625 46.390625 
L 45.40625 75.984375 
L 54.390625 75.984375 
L 54.390625 0 
L 45.40625 0 
L 45.40625 8.203125 
Q 42.578125 3.328125 38.25 0.953125 
Q 33.9375 -1.421875 27.875 -1.421875 
Q 17.96875 -1.421875 11.734375 6.484375 
Q 5.515625 14.40625 5.515625 27.296875 
Q 5.515625 40.1875 11.734375 48.09375 
Q 17.96875 56 27.875 56 
Q 33.9375 56 38.25 53.625 
Q 42.578125 51.265625 45.40625 46.390625 
M 14.796875 27.296875 
Q 14.796875 17.390625 18.875 11.75 
Q 22.953125 6.109375 30.078125 6.109375 
Q 37.203125 6.109375 41.296875 11.75 
Q 45.40625 17.390625 45.40625 27.296875 
Q 45.40625 37.203125 41.296875 42.84375 
Q 37.203125 48.484375 30.078125 48.484375 
Q 22.953125 48.484375 18.875 42.84375 
Q 14.796875 37.203125 14.796875 27.296875 
" id="BitstreamVeraSans-Roman-64"/>
      <path d="M 30.609375 48.390625 
Q 23.390625 48.390625 19.1875 42.75 
Q 14.984375 37.109375 14.984375 27.296875 
Q 14.984375 17.484375 19.15625 11.84375 
Q 23.34375 6.203125 30.609375 6.203125 
Q 37.796875 6.203125 41.984375 11.859375 
Q 46.1875 17.53125 46.1875 27.296875 
Q 46.1875 37.015625 41.984375 42.703125 
Q 37.796875 48.390625 30.609375 48.390625 
M 30.609375 56 
Q 42.328125 56 49.015625 48.375 
Q 55.71875 40.765625 55.71875 27.296875 
Q 55.71875 13.875 49.015625 6.21875 
Q 42.328125 -1.421875 30.609375 -1.421875 
Q 18.84375 -1.421875 12.171875 6.21875 
Q 5.515625 13.875 5.515625 27.296875 
Q 5.515625 40.765625 12.171875 48.375 
Q 18.84375 56 30.609375 56 
" id="BitstreamVeraSans-Roman-6f"/>
      <path d="M 56.203125 29.59375 
L 56.203125 25.203125 
L 14.890625 25.203125 
Q 15.484375 15.921875 20.484375 11.0625 
Q 25.484375 6.203125 34.421875 6.203125 
Q 39.59375 6.203125 44.453125 7.46875 
Q 49.3125 8.734375 54.109375 11.28125 
L 54.109375 2.78125 
Q 49.265625 0.734375 44.1875 -0.34375 
Q 39.109375 -1.421875 33.890625 -1.421875 
Q 20.796875 -1.421875 13.15625 6.1875 
Q 5.515625 13.8125 5.515625 26.8125 
Q 5.515625 40.234375 12.765625 48.109375 
Q 20.015625 56 32.328125 56 
Q 43.359375 56 49.78125 48.890625 
Q 56.203125 41.796875 56.203125 29.59375 
M 47.21875 32.234375 
Q 47.125 39.59375 43.09375 43.984375 
Q 39.0625 48.390625 32.421875 48.390625 
Q 24.90625 48.390625 20.390625 44.140625 
Q 15.875 39.890625 15.1875 32.171875 
z
" id="BitstreamVeraSans-Roman-65"/>
      <path d="M 18.109375 8.203125 
L 18.109375 -20.796875 
L 9.078125 -20.796875 
L 9.078125 54.6875 
L 18.109375 54.6875 
L 18.109375 46.390625 
Q 20.953125 51.265625 25.265625 53.625 
Q 29.59375 56 35.59375 56 
Q 45.5625 56 51.78125 48.09375 
Q 58.015625 40.1875 58.015625 27.296875 
Q 58.015625 14.40625 51.78125 6.484375 
Q 45.5625 -1.421875 35.59375 -1.421875 
Q 29.59375 -1.421875 25.265625 0.953125 
Q 20.953125 3.328125 18.109375 8.203125 
M 48.6875 27.296875 
Q 48.6875 37.203125 44.609375 42.84375 
Q 40.53125 48.484375 33.40625 48.484375 
Q 26.265625 48.484375 22.1875 42.84375 
Q 18.109375 37.203125 18.109375 27.296875 
Q 18.109375 17.390625 22.1875 11.75 
Q 26.265625 6.109375 33.40625 6.109375 
Q 40.53125 6.109375 44.609375 11.75 
Q 48.6875 17.390625 48.6875 27.296875 
" id="BitstreamVeraSans-Roman-70"/>
     </defs>
     <g transform="translate(256.6875 398.473625)scale(0.12 -0.12)">
      <use xlink:href="#BitstreamVeraSans-Roman-65"/>
      <use x="61.5234375" xlink:href="#BitstreamVeraSans-Roman-70"/>
      <use x="125.0" xlink:href="#BitstreamVeraSans-Roman-69"/>
      <use x="152.783203125" xlink:href="#BitstreamVeraSans-Roman-73"/>
      <use x="204.8828125" xlink:href="#BitstreamVeraSans-Roman-6f"/>
      <use x="266.064453125" xlink:href="#BitstreamVeraSans-Roman-64"/>
      <use x="329.541015625" xlink:href="#BitstreamVeraSans-Roman-65"/>
     </g>
    </g>
   </g>
   <g id="matplotlib.axis_2">
    <g id="ytick_1">
     <g id="line2d_14">
      <defs>
       <path d="M 0 0 
L 4 0 
" id="m55b9cd8e85" style="stroke:#000000;stroke-width:0.5;"/>
      </defs>
      <g>
       <use style="stroke:#000000;stroke-width:0.5;" x="56.953125" xlink:href="#m55b9cd8e85" y="368.74175"/>
      </g>
     </g>
     <g id="line2d_15">
      <defs>
       <path d="M 0 0 
L -4 0 
" id="m9fcb0d22a2" style="stroke:#000000;stroke-width:0.5;"/>
      </defs>
      <g>
       <use style="stroke:#000000;stroke-width:0.5;" x="503.353125" xlink:href="#m9fcb0d22a2" y="368.74175"/>
      </g>
     </g>
     <g id="text_8">
      <!-- −0.1 -->
      <defs>
       <path d="M 10.6875 12.40625 
L 21 12.40625 
L 21 0 
L 10.6875 0 
z
" id="BitstreamVeraSans-Roman-2e"/>
       <path d="M 10.59375 35.5 
L 73.1875 35.5 
L 73.1875 27.203125 
L 10.59375 27.203125 
z
" id="BitstreamVeraSans-Roman-2212"/>
      </defs>
      <g transform="translate(23.81375 372.053)scale(0.12 -0.12)">
       <use xlink:href="#BitstreamVeraSans-Roman-2212"/>
       <use x="83.7890625" xlink:href="#BitstreamVeraSans-Roman-30"/>
       <use x="147.412109375" xlink:href="#BitstreamVeraSans-Roman-2e"/>
       <use x="179.19921875" xlink:href="#BitstreamVeraSans-Roman-31"/>
      </g>
     </g>
    </g>
    <g id="ytick_2">
     <g id="line2d_16">
      <g>
       <use style="stroke:#000000;stroke-width:0.5;" x="56.953125" xlink:href="#m55b9cd8e85" y="319.370321429"/>
      </g>
     </g>
     <g id="line2d_17">
      <g>
       <use style="stroke:#000000;stroke-width:0.5;" x="503.353125" xlink:href="#m9fcb0d22a2" y="319.370321429"/>
      </g>
     </g>
     <g id="text_9">
      <!-- 0.0 -->
      <g transform="translate(33.869375 322.681571429)scale(0.12 -0.12)">
       <use xlink:href="#BitstreamVeraSans-Roman-30"/>
       <use x="63.623046875" xlink:href="#BitstreamVeraSans-Roman-2e"/>
       <use x="95.41015625" xlink:href="#BitstreamVeraSans-Roman-30"/>
      </g>
     </g>
    </g>
    <g id="ytick_3">
     <g id="line2d_18">
      <g>
       <use style="stroke:#000000;stroke-width:0.5;" x="56.953125" xlink:href="#m55b9cd8e85" y="269.998892857"/>
      </g>
     </g>
     <g id="line2d_19">
      <g>
       <use style="stroke:#000000;stroke-width:0.5;" x="503.353125" xlink:href="#m9fcb0d22a2" y="269.998892857"/>
      </g>
     </g>
     <g id="text_10">
      <!-- 0.1 -->
      <g transform="translate(33.869375 273.310142857)scale(0.12 -0.12)">
       <use xlink:href="#BitstreamVeraSans-Roman-30"/>
       <use x="63.623046875" xlink:href="#BitstreamVeraSans-Roman-2e"/>
       <use x="95.41015625" xlink:href="#BitstreamVeraSans-Roman-31"/>
      </g>
     </g>
    </g>
    <g id="ytick_4">
     <g id="line2d_20">
      <g>
       <use style="stroke:#000000;stroke-width:0.5;" x="56.953125" xlink:href="#m55b9cd8e85" y="220.627464286"/>
      </g>
     </g>
     <g id="line2d_21">
      <g>
       <use style="stroke:#000000;stroke-width:0.5;" x="503.353125" xlink:href="#m9fcb0d22a2" y="220.627464286"/>
      </g>
     </g>
     <g id="text_11">
      <!-- 0.2 -->
      <g transform="translate(33.869375 223.938714286)scale(0.12 -0.12)">
       <use xlink:href="#BitstreamVeraSans-Roman-30"/>
       <use x="63.623046875" xlink:href="#BitstreamVeraSans-Roman-2e"/>
       <use x="95.41015625" xlink:href="#BitstreamVeraSans-Roman-32"/>
      </g>
     </g>
    </g>
    <g id="ytick_5">
     <g id="line2d_22">
      <g>
       <use style="stroke:#000000;stroke-width:0.5;" x="56.953125" xlink:href="#m55b9cd8e85" y="171.256035714"/>
      </g>
     </g>
     <g id="line2d_23">
      <g>
       <use style="stroke:#000000;stroke-width:0.5;" x="503.353125" xlink:href="#m9fcb0d22a2" y="171.256035714"/>
      </g>
     </g>
     <g id="text_12">
      <!-- 0.3 -->
      <defs>
       <path d="M 40.578125 39.3125 
Q 47.65625 37.796875 51.625 33 
Q 55.609375 28.21875 55.609375 21.1875 
Q 55.609375 10.40625 48.1875 4.484375 
Q 40.765625 -1.421875 27.09375 -1.421875 
Q 22.515625 -1.421875 17.65625 -0.515625 
Q 12.796875 0.390625 7.625 2.203125 
L 7.625 11.71875 
Q 11.71875 9.328125 16.59375 8.109375 
Q 21.484375 6.890625 26.8125 6.890625 
Q 36.078125 6.890625 40.9375 10.546875 
Q 45.796875 14.203125 45.796875 21.1875 
Q 45.796875 27.640625 41.28125 31.265625 
Q 36.765625 34.90625 28.71875 34.90625 
L 20.21875 34.90625 
L 20.21875 43.015625 
L 29.109375 43.015625 
Q 36.375 43.015625 40.234375 45.921875 
Q 44.09375 48.828125 44.09375 54.296875 
Q 44.09375 59.90625 40.109375 62.90625 
Q 36.140625 65.921875 28.71875 65.921875 
Q 24.65625 65.921875 20.015625 65.03125 
Q 15.375 64.15625 9.8125 62.3125 
L 9.8125 71.09375 
Q 15.4375 72.65625 20.34375 73.4375 
Q 25.25 74.21875 29.59375 74.21875 
Q 40.828125 74.21875 47.359375 69.109375 
Q 53.90625 64.015625 53.90625 55.328125 
Q 53.90625 49.265625 50.4375 45.09375 
Q 46.96875 40.921875 40.578125 39.3125 
" id="BitstreamVeraSans-Roman-33"/>
      </defs>
      <g transform="translate(33.869375 174.567285714)scale(0.12 -0.12)">
       <use xlink:href="#BitstreamVeraSans-Roman-30"/>
       <use x="63.623046875" xlink:href="#BitstreamVeraSans-Roman-2e"/>
       <use x="95.41015625" xlink:href="#BitstreamVeraSans-Roman-33"/>
      </g>
     </g>
    </g>
    <g id="ytick_6">
     <g id="line2d_24">
      <g>
       <use style="stroke:#000000;stroke-width:0.5;" x="56.953125" xlink:href="#m55b9cd8e85" y="121.884607143"/>
      </g>
     </g>
     <g id="line2d_25">
      <g>
       <use style="stroke:#000000;stroke-width:0.5;" x="503.353125" xlink:href="#m9fcb0d22a2" y="121.884607143"/>
      </g>
     </g>
     <g id="text_13">
      <!-- 0.4 -->
      <g transform="translate(33.869375 125.195857143)scale(0.12 -0.12)">
       <use xlink:href="#BitstreamVeraSans-Roman-30"/>
       <use x="63.623046875" xlink:href="#BitstreamVeraSans-Roman-2e"/>
       <use x="95.41015625" xlink:href="#BitstreamVeraSans-Roman-34"/>
      </g>
     </g>
    </g>
    <g id="ytick_7">
     <g id="line2d_26">
      <g>
       <use style="stroke:#000000;stroke-width:0.5;" x="56.953125" xlink:href="#m55b9cd8e85" y="72.5131785714"/>
      </g>
     </g>
     <g id="line2d_27">
      <g>
       <use style="stroke:#000000;stroke-width:0.5;" x="503.353125" xlink:href="#m9fcb0d22a2" y="72.5131785714"/>
      </g>
     </g>
     <g id="text_14">
      <!-- 0.5 -->
      <defs>
       <path d="M 10.796875 72.90625 
L 49.515625 72.90625 
L 49.515625 64.59375 
L 19.828125 64.59375 
L 19.828125 46.734375 
Q 21.96875 47.46875 24.109375 47.828125 
Q 26.265625 48.1875 28.421875 48.1875 
Q 40.625 48.1875 47.75 41.5 
Q 54.890625 34.8125 54.890625 23.390625 
Q 54.890625 11.625 47.5625 5.09375 
Q 40.234375 -1.421875 26.90625 -1.421875 
Q 22.3125 -1.421875 17.546875 -0.640625 
Q 12.796875 0.140625 7.71875 1.703125 
L 7.71875 11.625 
Q 12.109375 9.234375 16.796875 8.0625 
Q 21.484375 6.890625 26.703125 6.890625 
Q 35.15625 6.890625 40.078125 11.328125 
Q 45.015625 15.765625 45.015625 23.390625 
Q 45.015625 31 40.078125 35.4375 
Q 35.15625 39.890625 26.703125 39.890625 
Q 22.75 39.890625 18.8125 39.015625 
Q 14.890625 38.140625 10.796875 36.28125 
z
" id="BitstreamVeraSans-Roman-35"/>
      </defs>
      <g transform="translate(33.869375 75.8244285714)scale(0.12 -0.12)">
       <use xlink:href="#BitstreamVeraSans-Roman-30"/>
       <use x="63.623046875" xlink:href="#BitstreamVeraSans-Roman-2e"/>
       <use x="95.41015625" xlink:href="#BitstreamVeraSans-Roman-35"/>
      </g>
     </g>
    </g>
    <g id="ytick_8">
     <g id="line2d_28">
      <g>
       <use style="stroke:#000000;stroke-width:0.5;" x="56.953125" xlink:href="#m55b9cd8e85" y="23.14175"/>
      </g>
     </g>
     <g id="line2d_29">
      <g>
       <use style="stroke:#000000;stroke-width:0.5;" x="503.353125" xlink:href="#m9fcb0d22a2" y="23.14175"/>
      </g>
     </g>
     <g id="text_15">
      <!-- 0.6 -->
      <g transform="translate(33.869375 26.453)scale(0.12 -0.12)">
       <use xlink:href="#BitstreamVeraSans-Roman-30"/>
       <use x="63.623046875" xlink:href="#BitstreamVeraSans-Roman-2e"/>
       <use x="95.41015625" xlink:href="#BitstreamVeraSans-Roman-36"/>
      </g>
     </g>
    </g>
    <g id="text_16">
     <!-- average maxQ -->
     <defs>
      <path d="M 41.109375 46.296875 
Q 39.59375 47.171875 37.8125 47.578125 
Q 36.03125 48 33.890625 48 
Q 26.265625 48 22.1875 43.046875 
Q 18.109375 38.09375 18.109375 28.8125 
L 18.109375 0 
L 9.078125 0 
L 9.078125 54.6875 
L 18.109375 54.6875 
L 18.109375 46.1875 
Q 20.953125 51.171875 25.484375 53.578125 
Q 30.03125 56 36.53125 56 
Q 37.453125 56 38.578125 55.875 
Q 39.703125 55.765625 41.0625 55.515625 
z
" id="BitstreamVeraSans-Roman-72"/>
      <path d="M 34.28125 27.484375 
Q 23.390625 27.484375 19.1875 25 
Q 14.984375 22.515625 14.984375 16.5 
Q 14.984375 11.71875 18.140625 8.90625 
Q 21.296875 6.109375 26.703125 6.109375 
Q 34.1875 6.109375 38.703125 11.40625 
Q 43.21875 16.703125 43.21875 25.484375 
L 43.21875 27.484375 
z
M 52.203125 31.203125 
L 52.203125 0 
L 43.21875 0 
L 43.21875 8.296875 
Q 40.140625 3.328125 35.546875 0.953125 
Q 30.953125 -1.421875 24.3125 -1.421875 
Q 15.921875 -1.421875 10.953125 3.296875 
Q 6 8.015625 6 15.921875 
Q 6 25.140625 12.171875 29.828125 
Q 18.359375 34.515625 30.609375 34.515625 
L 43.21875 34.515625 
L 43.21875 35.40625 
Q 43.21875 41.609375 39.140625 45 
Q 35.0625 48.390625 27.6875 48.390625 
Q 23 48.390625 18.546875 47.265625 
Q 14.109375 46.140625 10.015625 43.890625 
L 10.015625 52.203125 
Q 14.9375 54.109375 19.578125 55.046875 
Q 24.21875 56 28.609375 56 
Q 40.484375 56 46.34375 49.84375 
Q 52.203125 43.703125 52.203125 31.203125 
" id="BitstreamVeraSans-Roman-61"/>
      <path d="M 39.40625 66.21875 
Q 28.65625 66.21875 22.328125 58.203125 
Q 16.015625 50.203125 16.015625 36.375 
Q 16.015625 22.609375 22.328125 14.59375 
Q 28.65625 6.59375 39.40625 6.59375 
Q 50.140625 6.59375 56.421875 14.59375 
Q 62.703125 22.609375 62.703125 36.375 
Q 62.703125 50.203125 56.421875 58.203125 
Q 50.140625 66.21875 39.40625 66.21875 
M 53.21875 1.3125 
L 66.21875 -12.890625 
L 54.296875 -12.890625 
L 43.5 -1.21875 
Q 41.890625 -1.3125 41.03125 -1.359375 
Q 40.1875 -1.421875 39.40625 -1.421875 
Q 24.03125 -1.421875 14.8125 8.859375 
Q 5.609375 19.140625 5.609375 36.375 
Q 5.609375 53.65625 14.8125 63.9375 
Q 24.03125 74.21875 39.40625 74.21875 
Q 54.734375 74.21875 63.90625 63.9375 
Q 73.09375 53.65625 73.09375 36.375 
Q 73.09375 23.6875 67.984375 14.640625 
Q 62.890625 5.609375 53.21875 1.3125 
" id="BitstreamVeraSans-Roman-51"/>
      <path d="M 54.890625 54.6875 
L 35.109375 28.078125 
L 55.90625 0 
L 45.3125 0 
L 29.390625 21.484375 
L 13.484375 0 
L 2.875 0 
L 24.125 28.609375 
L 4.6875 54.6875 
L 15.28125 54.6875 
L 29.78125 35.203125 
L 44.28125 54.6875 
z
" id="BitstreamVeraSans-Roman-78"/>
      <path d="M 2.984375 54.6875 
L 12.5 54.6875 
L 29.59375 8.796875 
L 46.6875 54.6875 
L 56.203125 54.6875 
L 35.6875 0 
L 23.484375 0 
z
" id="BitstreamVeraSans-Roman-76"/>
      <path d="M 45.40625 27.984375 
Q 45.40625 37.75 41.375 43.109375 
Q 37.359375 48.484375 30.078125 48.484375 
Q 22.859375 48.484375 18.828125 43.109375 
Q 14.796875 37.75 14.796875 27.984375 
Q 14.796875 18.265625 18.828125 12.890625 
Q 22.859375 7.515625 30.078125 7.515625 
Q 37.359375 7.515625 41.375 12.890625 
Q 45.40625 18.265625 45.40625 27.984375 
M 54.390625 6.78125 
Q 54.390625 -7.171875 48.1875 -13.984375 
Q 42 -20.796875 29.203125 -20.796875 
Q 24.46875 -20.796875 20.265625 -20.09375 
Q 16.0625 -19.390625 12.109375 -17.921875 
L 12.109375 -9.1875 
Q 16.0625 -11.328125 19.921875 -12.34375 
Q 23.78125 -13.375 27.78125 -13.375 
Q 36.625 -13.375 41.015625 -8.765625 
Q 45.40625 -4.15625 45.40625 5.171875 
L 45.40625 9.625 
Q 42.625 4.78125 38.28125 2.390625 
Q 33.9375 0 27.875 0 
Q 17.828125 0 11.671875 7.65625 
Q 5.515625 15.328125 5.515625 27.984375 
Q 5.515625 40.671875 11.671875 48.328125 
Q 17.828125 56 27.875 56 
Q 33.9375 56 38.28125 53.609375 
Q 42.625 51.21875 45.40625 46.390625 
L 45.40625 54.6875 
L 54.390625 54.6875 
z
" id="BitstreamVeraSans-Roman-67"/>
      <path d="M 52 44.1875 
Q 55.375 50.25 60.0625 53.125 
Q 64.75 56 71.09375 56 
Q 79.640625 56 84.28125 50.015625 
Q 88.921875 44.046875 88.921875 33.015625 
L 88.921875 0 
L 79.890625 0 
L 79.890625 32.71875 
Q 79.890625 40.578125 77.09375 44.375 
Q 74.3125 48.1875 68.609375 48.1875 
Q 61.625 48.1875 57.5625 43.546875 
Q 53.515625 38.921875 53.515625 30.90625 
L 53.515625 0 
L 44.484375 0 
L 44.484375 32.71875 
Q 44.484375 40.625 41.703125 44.40625 
Q 38.921875 48.1875 33.109375 48.1875 
Q 26.21875 48.1875 22.15625 43.53125 
Q 18.109375 38.875 18.109375 30.90625 
L 18.109375 0 
L 9.078125 0 
L 9.078125 54.6875 
L 18.109375 54.6875 
L 18.109375 46.1875 
Q 21.1875 51.21875 25.484375 53.609375 
Q 29.78125 56 35.6875 56 
Q 41.65625 56 45.828125 52.96875 
Q 50 49.953125 52 44.1875 
" id="BitstreamVeraSans-Roman-6d"/>
      <path id="BitstreamVeraSans-Roman-20"/>
     </defs>
     <g transform="translate(16.318125 240.208625)rotate(-90.0)scale(0.12 -0.12)">
      <use xlink:href="#BitstreamVeraSans-Roman-61"/>
      <use x="61.279296875" xlink:href="#BitstreamVeraSans-Roman-76"/>
      <use x="120.458984375" xlink:href="#BitstreamVeraSans-Roman-65"/>
      <use x="181.982421875" xlink:href="#BitstreamVeraSans-Roman-72"/>
      <use x="223.095703125" xlink:href="#BitstreamVeraSans-Roman-61"/>
      <use x="284.375" xlink:href="#BitstreamVeraSans-Roman-67"/>
      <use x="347.8515625" xlink:href="#BitstreamVeraSans-Roman-65"/>
      <use x="409.375" xlink:href="#BitstreamVeraSans-Roman-20"/>
      <use x="441.162109375" xlink:href="#BitstreamVeraSans-Roman-6d"/>
      <use x="538.57421875" xlink:href="#BitstreamVeraSans-Roman-61"/>
      <use x="599.853515625" xlink:href="#BitstreamVeraSans-Roman-78"/>
      <use x="659.033203125" xlink:href="#BitstreamVeraSans-Roman-51"/>
     </g>
    </g>
   </g>
   <g id="text_17">
    <!-- Average maxQ per episode, joint4 -->
    <defs>
     <path d="M 54.890625 33.015625 
L 54.890625 0 
L 45.90625 0 
L 45.90625 32.71875 
Q 45.90625 40.484375 42.875 44.328125 
Q 39.84375 48.1875 33.796875 48.1875 
Q 26.515625 48.1875 22.3125 43.546875 
Q 18.109375 38.921875 18.109375 30.90625 
L 18.109375 0 
L 9.078125 0 
L 9.078125 54.6875 
L 18.109375 54.6875 
L 18.109375 46.1875 
Q 21.34375 51.125 25.703125 53.5625 
Q 30.078125 56 35.796875 56 
Q 45.21875 56 50.046875 50.171875 
Q 54.890625 44.34375 54.890625 33.015625 
" id="BitstreamVeraSans-Roman-6e"/>
     <path d="M 9.421875 54.6875 
L 18.40625 54.6875 
L 18.40625 -0.984375 
Q 18.40625 -11.421875 14.421875 -16.109375 
Q 10.453125 -20.796875 1.609375 -20.796875 
L -1.8125 -20.796875 
L -1.8125 -13.1875 
L 0.59375 -13.1875 
Q 5.71875 -13.1875 7.5625 -10.8125 
Q 9.421875 -8.453125 9.421875 -0.984375 
z
M 9.421875 75.984375 
L 18.40625 75.984375 
L 18.40625 64.59375 
L 9.421875 64.59375 
z
" id="BitstreamVeraSans-Roman-6a"/>
     <path d="M 18.3125 70.21875 
L 18.3125 54.6875 
L 36.8125 54.6875 
L 36.8125 47.703125 
L 18.3125 47.703125 
L 18.3125 18.015625 
Q 18.3125 11.328125 20.140625 9.421875 
Q 21.96875 7.515625 27.59375 7.515625 
L 36.8125 7.515625 
L 36.8125 0 
L 27.59375 0 
Q 17.1875 0 13.234375 3.875 
Q 9.28125 7.765625 9.28125 18.015625 
L 9.28125 47.703125 
L 2.6875 47.703125 
L 2.6875 54.6875 
L 9.28125 54.6875 
L 9.28125 70.21875 
z
" id="BitstreamVeraSans-Roman-74"/>
     <path d="M 34.1875 63.1875 
L 20.796875 26.90625 
L 47.609375 26.90625 
z
M 28.609375 72.90625 
L 39.796875 72.90625 
L 67.578125 0 
L 57.328125 0 
L 50.6875 18.703125 
L 17.828125 18.703125 
L 11.1875 0 
L 0.78125 0 
z
" id="BitstreamVeraSans-Roman-41"/>
     <path d="M 11.71875 12.40625 
L 22.015625 12.40625 
L 22.015625 4 
L 14.015625 -11.625 
L 7.71875 -11.625 
L 11.71875 4 
z
" id="BitstreamVeraSans-Roman-2c"/>
    </defs>
    <g transform="translate(156.880125 18.14175)scale(0.144 -0.144)">
     <use xlink:href="#BitstreamVeraSans-Roman-41"/>
     <use x="68.330078125" xlink:href="#BitstreamVeraSans-Roman-76"/>
     <use x="127.509765625" xlink:href="#BitstreamVeraSans-Roman-65"/>
     <use x="189.033203125" xlink:href="#BitstreamVeraSans-Roman-72"/>
     <use x="230.146484375" xlink:href="#BitstreamVeraSans-Roman-61"/>
     <use x="291.42578125" xlink:href="#BitstreamVeraSans-Roman-67"/>
     <use x="354.90234375" xlink:href="#BitstreamVeraSans-Roman-65"/>
     <use x="416.42578125" xlink:href="#BitstreamVeraSans-Roman-20"/>
     <use x="448.212890625" xlink:href="#BitstreamVeraSans-Roman-6d"/>
     <use x="545.625" xlink:href="#BitstreamVeraSans-Roman-61"/>
     <use x="606.904296875" xlink:href="#BitstreamVeraSans-Roman-78"/>
     <use x="666.083984375" xlink:href="#BitstreamVeraSans-Roman-51"/>
     <use x="744.794921875" xlink:href="#BitstreamVeraSans-Roman-20"/>
     <use x="776.58203125" xlink:href="#BitstreamVeraSans-Roman-70"/>
     <use x="840.05859375" xlink:href="#BitstreamVeraSans-Roman-65"/>
     <use x="901.58203125" xlink:href="#BitstreamVeraSans-Roman-72"/>
     <use x="942.6953125" xlink:href="#BitstreamVeraSans-Roman-20"/>
     <use x="974.482421875" xlink:href="#BitstreamVeraSans-Roman-65"/>
     <use x="1036.005859375" xlink:href="#BitstreamVeraSans-Roman-70"/>
     <use x="1099.482421875" xlink:href="#BitstreamVeraSans-Roman-69"/>
     <use x="1127.265625" xlink:href="#BitstreamVeraSans-Roman-73"/>
     <use x="1179.365234375" xlink:href="#BitstreamVeraSans-Roman-6f"/>
     <use x="1240.546875" xlink:href="#BitstreamVeraSans-Roman-64"/>
     <use x="1304.0234375" xlink:href="#BitstreamVeraSans-Roman-65"/>
     <use x="1365.546875" xlink:href="#BitstreamVeraSans-Roman-2c"/>
     <use x="1397.333984375" xlink:href="#BitstreamVeraSans-Roman-20"/>
     <use x="1429.12109375" xlink:href="#BitstreamVeraSans-Roman-6a"/>
     <use x="1456.904296875" xlink:href="#BitstreamVeraSans-Roman-6f"/>
     <use x="1518.0859375" xlink:href="#BitstreamVeraSans-Roman-69"/>
     <use x="1545.869140625" xlink:href="#BitstreamVeraSans-Roman-6e"/>
     <use x="1609.248046875" xlink:href="#BitstreamVeraSans-Roman-74"/>
     <use x="1648.45703125" xlink:href="#BitstreamVeraSans-Roman-34"/>
    </g>
   </g>
  </g>
 </g>
 <defs>
  <clipPath id="pdce8b2b11c">
   <rect height="345.6" width="446.4" x="56.953125" y="23.14175"/>
  </clipPath>
 </defs>
</svg>
