<?xml version="1.0" encoding="utf-8" standalone="no"?>
<!DOCTYPE svg PUBLIC "-//W3C//DTD SVG 1.1//EN"
  "http://www.w3.org/Graphics/SVG/1.1/DTD/svg11.dtd">
<!-- Created with matplotlib (http://matplotlib.org/) -->
<svg height="325pt" version="1.1" viewBox="0 0 420 325" width="420pt" xmlns="http://www.w3.org/2000/svg" xmlns:xlink="http://www.w3.org/1999/xlink">
 <defs>
  <style type="text/css">
*{stroke-linecap:butt;stroke-linejoin:round;}
  </style>
 </defs>
 <g id="figure_1">
  <g id="patch_1">
   <path d="M 0 325.986375 
L 420.96954 325.986375 
L 420.96954 0 
L 0 0 
z
" style="fill:#ffffff;"/>
  </g>
  <g id="axes_1">
   <g id="patch_2">
    <path d="M 43.78125 288.430125 
L 400.90125 288.430125 
L 400.90125 22.318125 
L 43.78125 22.318125 
z
" style="fill:#ffffff;"/>
   </g>
   <g id="matplotlib.axis_1">
    <g id="xtick_1">
     <g id="line2d_1">
      <defs>
       <path d="M 0 0 
L 0 3.5 
" id="m58b0801987" style="stroke:#000000;stroke-width:0.8;"/>
      </defs>
      <g>
       <use style="stroke:#000000;stroke-width:0.8;" x="59.87751" xlink:href="#m58b0801987" y="288.430125"/>
      </g>
     </g>
     <g id="text_1">
      <!-- 0 -->
      <defs>
       <path d="M 31.78125 66.40625 
Q 24.171875 66.40625 20.328125 58.90625 
Q 16.5 51.421875 16.5 36.375 
Q 16.5 21.390625 20.328125 13.890625 
Q 24.171875 6.390625 31.78125 6.390625 
Q 39.453125 6.390625 43.28125 13.890625 
Q 47.125 21.390625 47.125 36.375 
Q 47.125 51.421875 43.28125 58.90625 
Q 39.453125 66.40625 31.78125 66.40625 
z
M 31.78125 74.21875 
Q 44.046875 74.21875 50.515625 64.515625 
Q 56.984375 54.828125 56.984375 36.375 
Q 56.984375 17.96875 50.515625 8.265625 
Q 44.046875 -1.421875 31.78125 -1.421875 
Q 19.53125 -1.421875 13.0625 8.265625 
Q 6.59375 17.96875 6.59375 36.375 
Q 6.59375 54.828125 13.0625 64.515625 
Q 19.53125 74.21875 31.78125 74.21875 
z
" id="DejaVuSans-30"/>
      </defs>
      <g transform="translate(56.69626 303.028562)scale(0.1 -0.1)">
       <use xlink:href="#DejaVuSans-30"/>
      </g>
     </g>
    </g>
    <g id="xtick_2">
     <g id="line2d_2">
      <g>
       <use style="stroke:#000000;stroke-width:0.8;" x="128.110916" xlink:href="#m58b0801987" y="288.430125"/>
      </g>
     </g>
     <g id="text_2">
      <!-- 500 -->
      <defs>
       <path d="M 10.796875 72.90625 
L 49.515625 72.90625 
L 49.515625 64.59375 
L 19.828125 64.59375 
L 19.828125 46.734375 
Q 21.96875 47.46875 24.109375 47.828125 
Q 26.265625 48.1875 28.421875 48.1875 
Q 40.625 48.1875 47.75 41.5 
Q 54.890625 34.8125 54.890625 23.390625 
Q 54.890625 11.625 47.5625 5.09375 
Q 40.234375 -1.421875 26.90625 -1.421875 
Q 22.3125 -1.421875 17.546875 -0.640625 
Q 12.796875 0.140625 7.71875 1.703125 
L 7.71875 11.625 
Q 12.109375 9.234375 16.796875 8.0625 
Q 21.484375 6.890625 26.703125 6.890625 
Q 35.15625 6.890625 40.078125 11.328125 
Q 45.015625 15.765625 45.015625 23.390625 
Q 45.015625 31 40.078125 35.4375 
Q 35.15625 39.890625 26.703125 39.890625 
Q 22.75 39.890625 18.8125 39.015625 
Q 14.890625 38.140625 10.796875 36.28125 
z
" id="DejaVuSans-35"/>
      </defs>
      <g transform="translate(118.567166 303.028562)scale(0.1 -0.1)">
       <use xlink:href="#DejaVuSans-35"/>
       <use x="63.623047" xlink:href="#DejaVuSans-30"/>
       <use x="127.246094" xlink:href="#DejaVuSans-30"/>
      </g>
     </g>
    </g>
    <g id="xtick_3">
     <g id="line2d_3">
      <g>
       <use style="stroke:#000000;stroke-width:0.8;" x="196.344322" xlink:href="#m58b0801987" y="288.430125"/>
      </g>
     </g>
     <g id="text_3">
      <!-- 1000 -->
      <defs>
       <path d="M 12.40625 8.296875 
L 28.515625 8.296875 
L 28.515625 63.921875 
L 10.984375 60.40625 
L 10.984375 69.390625 
L 28.421875 72.90625 
L 38.28125 72.90625 
L 38.28125 8.296875 
L 54.390625 8.296875 
L 54.390625 0 
L 12.40625 0 
z
" id="DejaVuSans-31"/>
      </defs>
      <g transform="translate(183.619322 303.028562)scale(0.1 -0.1)">
       <use xlink:href="#DejaVuSans-31"/>
       <use x="63.623047" xlink:href="#DejaVuSans-30"/>
       <use x="127.246094" xlink:href="#DejaVuSans-30"/>
       <use x="190.869141" xlink:href="#DejaVuSans-30"/>
      </g>
     </g>
    </g>
    <g id="xtick_4">
     <g id="line2d_4">
      <g>
       <use style="stroke:#000000;stroke-width:0.8;" x="264.577728" xlink:href="#m58b0801987" y="288.430125"/>
      </g>
     </g>
     <g id="text_4">
      <!-- 1500 -->
      <g transform="translate(251.852728 303.028562)scale(0.1 -0.1)">
       <use xlink:href="#DejaVuSans-31"/>
       <use x="63.623047" xlink:href="#DejaVuSans-35"/>
       <use x="127.246094" xlink:href="#DejaVuSans-30"/>
       <use x="190.869141" xlink:href="#DejaVuSans-30"/>
      </g>
     </g>
    </g>
    <g id="xtick_5">
     <g id="line2d_5">
      <g>
       <use style="stroke:#000000;stroke-width:0.8;" x="332.811134" xlink:href="#m58b0801987" y="288.430125"/>
      </g>
     </g>
     <g id="text_5">
      <!-- 2000 -->
      <defs>
       <path d="M 19.1875 8.296875 
L 53.609375 8.296875 
L 53.609375 0 
L 7.328125 0 
L 7.328125 8.296875 
Q 12.9375 14.109375 22.625 23.890625 
Q 32.328125 33.6875 34.8125 36.53125 
Q 39.546875 41.84375 41.421875 45.53125 
Q 43.3125 49.21875 43.3125 52.78125 
Q 43.3125 58.59375 39.234375 62.25 
Q 35.15625 65.921875 28.609375 65.921875 
Q 23.96875 65.921875 18.8125 64.3125 
Q 13.671875 62.703125 7.8125 59.421875 
L 7.8125 69.390625 
Q 13.765625 71.78125 18.9375 73 
Q 24.125 74.21875 28.421875 74.21875 
Q 39.75 74.21875 46.484375 68.546875 
Q 53.21875 62.890625 53.21875 53.421875 
Q 53.21875 48.921875 51.53125 44.890625 
Q 49.859375 40.875 45.40625 35.40625 
Q 44.1875 33.984375 37.640625 27.21875 
Q 31.109375 20.453125 19.1875 8.296875 
z
" id="DejaVuSans-32"/>
      </defs>
      <g transform="translate(320.086134 303.028562)scale(0.1 -0.1)">
       <use xlink:href="#DejaVuSans-32"/>
       <use x="63.623047" xlink:href="#DejaVuSans-30"/>
       <use x="127.246094" xlink:href="#DejaVuSans-30"/>
       <use x="190.869141" xlink:href="#DejaVuSans-30"/>
      </g>
     </g>
    </g>
    <g id="xtick_6">
     <g id="line2d_6">
      <g>
       <use style="stroke:#000000;stroke-width:0.8;" x="401.04454" xlink:href="#m58b0801987" y="288.430125"/>
      </g>
     </g>
     <g id="text_6">
      <!-- 2500 -->
      <g transform="translate(388.31954 303.028562)scale(0.1 -0.1)">
       <use xlink:href="#DejaVuSans-32"/>
       <use x="63.623047" xlink:href="#DejaVuSans-35"/>
       <use x="127.246094" xlink:href="#DejaVuSans-30"/>
       <use x="190.869141" xlink:href="#DejaVuSans-30"/>
      </g>
     </g>
    </g>
    <g id="text_7">
     <!-- episodes -->
     <defs>
      <path d="M 56.203125 29.59375 
L 56.203125 25.203125 
L 14.890625 25.203125 
Q 15.484375 15.921875 20.484375 11.0625 
Q 25.484375 6.203125 34.421875 6.203125 
Q 39.59375 6.203125 44.453125 7.46875 
Q 49.3125 8.734375 54.109375 11.28125 
L 54.109375 2.78125 
Q 49.265625 0.734375 44.1875 -0.34375 
Q 39.109375 -1.421875 33.890625 -1.421875 
Q 20.796875 -1.421875 13.15625 6.1875 
Q 5.515625 13.8125 5.515625 26.8125 
Q 5.515625 40.234375 12.765625 48.109375 
Q 20.015625 56 32.328125 56 
Q 43.359375 56 49.78125 48.890625 
Q 56.203125 41.796875 56.203125 29.59375 
z
M 47.21875 32.234375 
Q 47.125 39.59375 43.09375 43.984375 
Q 39.0625 48.390625 32.421875 48.390625 
Q 24.90625 48.390625 20.390625 44.140625 
Q 15.875 39.890625 15.1875 32.171875 
z
" id="DejaVuSans-65"/>
      <path d="M 18.109375 8.203125 
L 18.109375 -20.796875 
L 9.078125 -20.796875 
L 9.078125 54.6875 
L 18.109375 54.6875 
L 18.109375 46.390625 
Q 20.953125 51.265625 25.265625 53.625 
Q 29.59375 56 35.59375 56 
Q 45.5625 56 51.78125 48.09375 
Q 58.015625 40.1875 58.015625 27.296875 
Q 58.015625 14.40625 51.78125 6.484375 
Q 45.5625 -1.421875 35.59375 -1.421875 
Q 29.59375 -1.421875 25.265625 0.953125 
Q 20.953125 3.328125 18.109375 8.203125 
z
M 48.6875 27.296875 
Q 48.6875 37.203125 44.609375 42.84375 
Q 40.53125 48.484375 33.40625 48.484375 
Q 26.265625 48.484375 22.1875 42.84375 
Q 18.109375 37.203125 18.109375 27.296875 
Q 18.109375 17.390625 22.1875 11.75 
Q 26.265625 6.109375 33.40625 6.109375 
Q 40.53125 6.109375 44.609375 11.75 
Q 48.6875 17.390625 48.6875 27.296875 
z
" id="DejaVuSans-70"/>
      <path d="M 9.421875 54.6875 
L 18.40625 54.6875 
L 18.40625 0 
L 9.421875 0 
z
M 9.421875 75.984375 
L 18.40625 75.984375 
L 18.40625 64.59375 
L 9.421875 64.59375 
z
" id="DejaVuSans-69"/>
      <path d="M 44.28125 53.078125 
L 44.28125 44.578125 
Q 40.484375 46.53125 36.375 47.5 
Q 32.28125 48.484375 27.875 48.484375 
Q 21.1875 48.484375 17.84375 46.4375 
Q 14.5 44.390625 14.5 40.28125 
Q 14.5 37.15625 16.890625 35.375 
Q 19.28125 33.59375 26.515625 31.984375 
L 29.59375 31.296875 
Q 39.15625 29.25 43.1875 25.515625 
Q 47.21875 21.78125 47.21875 15.09375 
Q 47.21875 7.46875 41.1875 3.015625 
Q 35.15625 -1.421875 24.609375 -1.421875 
Q 20.21875 -1.421875 15.453125 -0.5625 
Q 10.6875 0.296875 5.421875 2 
L 5.421875 11.28125 
Q 10.40625 8.6875 15.234375 7.390625 
Q 20.0625 6.109375 24.8125 6.109375 
Q 31.15625 6.109375 34.5625 8.28125 
Q 37.984375 10.453125 37.984375 14.40625 
Q 37.984375 18.0625 35.515625 20.015625 
Q 33.0625 21.96875 24.703125 23.78125 
L 21.578125 24.515625 
Q 13.234375 26.265625 9.515625 29.90625 
Q 5.8125 33.546875 5.8125 39.890625 
Q 5.8125 47.609375 11.28125 51.796875 
Q 16.75 56 26.8125 56 
Q 31.78125 56 36.171875 55.265625 
Q 40.578125 54.546875 44.28125 53.078125 
z
" id="DejaVuSans-73"/>
      <path d="M 30.609375 48.390625 
Q 23.390625 48.390625 19.1875 42.75 
Q 14.984375 37.109375 14.984375 27.296875 
Q 14.984375 17.484375 19.15625 11.84375 
Q 23.34375 6.203125 30.609375 6.203125 
Q 37.796875 6.203125 41.984375 11.859375 
Q 46.1875 17.53125 46.1875 27.296875 
Q 46.1875 37.015625 41.984375 42.703125 
Q 37.796875 48.390625 30.609375 48.390625 
z
M 30.609375 56 
Q 42.328125 56 49.015625 48.375 
Q 55.71875 40.765625 55.71875 27.296875 
Q 55.71875 13.875 49.015625 6.21875 
Q 42.328125 -1.421875 30.609375 -1.421875 
Q 18.84375 -1.421875 12.171875 6.21875 
Q 5.515625 13.875 5.515625 27.296875 
Q 5.515625 40.765625 12.171875 48.375 
Q 18.84375 56 30.609375 56 
z
" id="DejaVuSans-6f"/>
      <path d="M 45.40625 46.390625 
L 45.40625 75.984375 
L 54.390625 75.984375 
L 54.390625 0 
L 45.40625 0 
L 45.40625 8.203125 
Q 42.578125 3.328125 38.25 0.953125 
Q 33.9375 -1.421875 27.875 -1.421875 
Q 17.96875 -1.421875 11.734375 6.484375 
Q 5.515625 14.40625 5.515625 27.296875 
Q 5.515625 40.1875 11.734375 48.09375 
Q 17.96875 56 27.875 56 
Q 33.9375 56 38.25 53.625 
Q 42.578125 51.265625 45.40625 46.390625 
z
M 14.796875 27.296875 
Q 14.796875 17.390625 18.875 11.75 
Q 22.953125 6.109375 30.078125 6.109375 
Q 37.203125 6.109375 41.296875 11.75 
Q 45.40625 17.390625 45.40625 27.296875 
Q 45.40625 37.203125 41.296875 42.84375 
Q 37.203125 48.484375 30.078125 48.484375 
Q 22.953125 48.484375 18.875 42.84375 
Q 14.796875 37.203125 14.796875 27.296875 
z
" id="DejaVuSans-64"/>
     </defs>
     <g transform="translate(200.181875 316.706687)scale(0.1 -0.1)">
      <use xlink:href="#DejaVuSans-65"/>
      <use x="61.523438" xlink:href="#DejaVuSans-70"/>
      <use x="125" xlink:href="#DejaVuSans-69"/>
      <use x="152.783203" xlink:href="#DejaVuSans-73"/>
      <use x="204.882812" xlink:href="#DejaVuSans-6f"/>
      <use x="266.064453" xlink:href="#DejaVuSans-64"/>
      <use x="329.541016" xlink:href="#DejaVuSans-65"/>
      <use x="391.064453" xlink:href="#DejaVuSans-73"/>
     </g>
    </g>
   </g>
   <g id="matplotlib.axis_2">
    <g id="ytick_1">
     <g id="line2d_7">
      <defs>
       <path d="M 0 0 
L -3.5 0 
" id="m5be5c136d2" style="stroke:#000000;stroke-width:0.8;"/>
      </defs>
      <g>
       <use style="stroke:#000000;stroke-width:0.8;" x="43.78125" xlink:href="#m5be5c136d2" y="263.838096"/>
      </g>
     </g>
     <g id="text_8">
      <!-- 1.2 -->
      <defs>
       <path d="M 10.6875 12.40625 
L 21 12.40625 
L 21 0 
L 10.6875 0 
z
" id="DejaVuSans-2e"/>
      </defs>
      <g transform="translate(20.878125 267.637315)scale(0.1 -0.1)">
       <use xlink:href="#DejaVuSans-31"/>
       <use x="63.623047" xlink:href="#DejaVuSans-2e"/>
       <use x="95.410156" xlink:href="#DejaVuSans-32"/>
      </g>
     </g>
    </g>
    <g id="ytick_2">
     <g id="line2d_8">
      <g>
       <use style="stroke:#000000;stroke-width:0.8;" x="43.78125" xlink:href="#m5be5c136d2" y="206.865132"/>
      </g>
     </g>
     <g id="text_9">
      <!-- 1.4 -->
      <defs>
       <path d="M 37.796875 64.3125 
L 12.890625 25.390625 
L 37.796875 25.390625 
z
M 35.203125 72.90625 
L 47.609375 72.90625 
L 47.609375 25.390625 
L 58.015625 25.390625 
L 58.015625 17.1875 
L 47.609375 17.1875 
L 47.609375 0 
L 37.796875 0 
L 37.796875 17.1875 
L 4.890625 17.1875 
L 4.890625 26.703125 
z
" id="DejaVuSans-34"/>
      </defs>
      <g transform="translate(20.878125 210.664351)scale(0.1 -0.1)">
       <use xlink:href="#DejaVuSans-31"/>
       <use x="63.623047" xlink:href="#DejaVuSans-2e"/>
       <use x="95.410156" xlink:href="#DejaVuSans-34"/>
      </g>
     </g>
    </g>
    <g id="ytick_3">
     <g id="line2d_9">
      <g>
       <use style="stroke:#000000;stroke-width:0.8;" x="43.78125" xlink:href="#m5be5c136d2" y="149.892168"/>
      </g>
     </g>
     <g id="text_10">
      <!-- 1.6 -->
      <defs>
       <path d="M 33.015625 40.375 
Q 26.375 40.375 22.484375 35.828125 
Q 18.609375 31.296875 18.609375 23.390625 
Q 18.609375 15.53125 22.484375 10.953125 
Q 26.375 6.390625 33.015625 6.390625 
Q 39.65625 6.390625 43.53125 10.953125 
Q 47.40625 15.53125 47.40625 23.390625 
Q 47.40625 31.296875 43.53125 35.828125 
Q 39.65625 40.375 33.015625 40.375 
z
M 52.59375 71.296875 
L 52.59375 62.3125 
Q 48.875 64.0625 45.09375 64.984375 
Q 41.3125 65.921875 37.59375 65.921875 
Q 27.828125 65.921875 22.671875 59.328125 
Q 17.53125 52.734375 16.796875 39.40625 
Q 19.671875 43.65625 24.015625 45.921875 
Q 28.375 48.1875 33.59375 48.1875 
Q 44.578125 48.1875 50.953125 41.515625 
Q 57.328125 34.859375 57.328125 23.390625 
Q 57.328125 12.15625 50.6875 5.359375 
Q 44.046875 -1.421875 33.015625 -1.421875 
Q 20.359375 -1.421875 13.671875 8.265625 
Q 6.984375 17.96875 6.984375 36.375 
Q 6.984375 53.65625 15.1875 63.9375 
Q 23.390625 74.21875 37.203125 74.21875 
Q 40.921875 74.21875 44.703125 73.484375 
Q 48.484375 72.75 52.59375 71.296875 
z
" id="DejaVuSans-36"/>
      </defs>
      <g transform="translate(20.878125 153.691387)scale(0.1 -0.1)">
       <use xlink:href="#DejaVuSans-31"/>
       <use x="63.623047" xlink:href="#DejaVuSans-2e"/>
       <use x="95.410156" xlink:href="#DejaVuSans-36"/>
      </g>
     </g>
    </g>
    <g id="ytick_4">
     <g id="line2d_10">
      <g>
       <use style="stroke:#000000;stroke-width:0.8;" x="43.78125" xlink:href="#m5be5c136d2" y="92.919205"/>
      </g>
     </g>
     <g id="text_11">
      <!-- 1.8 -->
      <defs>
       <path d="M 31.78125 34.625 
Q 24.75 34.625 20.71875 30.859375 
Q 16.703125 27.09375 16.703125 20.515625 
Q 16.703125 13.921875 20.71875 10.15625 
Q 24.75 6.390625 31.78125 6.390625 
Q 38.8125 6.390625 42.859375 10.171875 
Q 46.921875 13.96875 46.921875 20.515625 
Q 46.921875 27.09375 42.890625 30.859375 
Q 38.875 34.625 31.78125 34.625 
z
M 21.921875 38.8125 
Q 15.578125 40.375 12.03125 44.71875 
Q 8.5 49.078125 8.5 55.328125 
Q 8.5 64.0625 14.71875 69.140625 
Q 20.953125 74.21875 31.78125 74.21875 
Q 42.671875 74.21875 48.875 69.140625 
Q 55.078125 64.0625 55.078125 55.328125 
Q 55.078125 49.078125 51.53125 44.71875 
Q 48 40.375 41.703125 38.8125 
Q 48.828125 37.15625 52.796875 32.3125 
Q 56.78125 27.484375 56.78125 20.515625 
Q 56.78125 9.90625 50.3125 4.234375 
Q 43.84375 -1.421875 31.78125 -1.421875 
Q 19.734375 -1.421875 13.25 4.234375 
Q 6.78125 9.90625 6.78125 20.515625 
Q 6.78125 27.484375 10.78125 32.3125 
Q 14.796875 37.15625 21.921875 38.8125 
z
M 18.3125 54.390625 
Q 18.3125 48.734375 21.84375 45.5625 
Q 25.390625 42.390625 31.78125 42.390625 
Q 38.140625 42.390625 41.71875 45.5625 
Q 45.3125 48.734375 45.3125 54.390625 
Q 45.3125 60.0625 41.71875 63.234375 
Q 38.140625 66.40625 31.78125 66.40625 
Q 25.390625 66.40625 21.84375 63.234375 
Q 18.3125 60.0625 18.3125 54.390625 
z
" id="DejaVuSans-38"/>
      </defs>
      <g transform="translate(20.878125 96.718423)scale(0.1 -0.1)">
       <use xlink:href="#DejaVuSans-31"/>
       <use x="63.623047" xlink:href="#DejaVuSans-2e"/>
       <use x="95.410156" xlink:href="#DejaVuSans-38"/>
      </g>
     </g>
    </g>
    <g id="ytick_5">
     <g id="line2d_11">
      <g>
       <use style="stroke:#000000;stroke-width:0.8;" x="43.78125" xlink:href="#m5be5c136d2" y="35.946241"/>
      </g>
     </g>
     <g id="text_12">
      <!-- 2.0 -->
      <g transform="translate(20.878125 39.745459)scale(0.1 -0.1)">
       <use xlink:href="#DejaVuSans-32"/>
       <use x="63.623047" xlink:href="#DejaVuSans-2e"/>
       <use x="95.410156" xlink:href="#DejaVuSans-30"/>
      </g>
     </g>
    </g>
    <g id="text_13">
     <!-- undisc. return -->
     <defs>
      <path d="M 8.5 21.578125 
L 8.5 54.6875 
L 17.484375 54.6875 
L 17.484375 21.921875 
Q 17.484375 14.15625 20.5 10.265625 
Q 23.53125 6.390625 29.59375 6.390625 
Q 36.859375 6.390625 41.078125 11.03125 
Q 45.3125 15.671875 45.3125 23.6875 
L 45.3125 54.6875 
L 54.296875 54.6875 
L 54.296875 0 
L 45.3125 0 
L 45.3125 8.40625 
Q 42.046875 3.421875 37.71875 1 
Q 33.40625 -1.421875 27.6875 -1.421875 
Q 18.265625 -1.421875 13.375 4.4375 
Q 8.5 10.296875 8.5 21.578125 
z
M 31.109375 56 
z
" id="DejaVuSans-75"/>
      <path d="M 54.890625 33.015625 
L 54.890625 0 
L 45.90625 0 
L 45.90625 32.71875 
Q 45.90625 40.484375 42.875 44.328125 
Q 39.84375 48.1875 33.796875 48.1875 
Q 26.515625 48.1875 22.3125 43.546875 
Q 18.109375 38.921875 18.109375 30.90625 
L 18.109375 0 
L 9.078125 0 
L 9.078125 54.6875 
L 18.109375 54.6875 
L 18.109375 46.1875 
Q 21.34375 51.125 25.703125 53.5625 
Q 30.078125 56 35.796875 56 
Q 45.21875 56 50.046875 50.171875 
Q 54.890625 44.34375 54.890625 33.015625 
z
" id="DejaVuSans-6e"/>
      <path d="M 48.78125 52.59375 
L 48.78125 44.1875 
Q 44.96875 46.296875 41.140625 47.34375 
Q 37.3125 48.390625 33.40625 48.390625 
Q 24.65625 48.390625 19.8125 42.84375 
Q 14.984375 37.3125 14.984375 27.296875 
Q 14.984375 17.28125 19.8125 11.734375 
Q 24.65625 6.203125 33.40625 6.203125 
Q 37.3125 6.203125 41.140625 7.25 
Q 44.96875 8.296875 48.78125 10.40625 
L 48.78125 2.09375 
Q 45.015625 0.34375 40.984375 -0.53125 
Q 36.96875 -1.421875 32.421875 -1.421875 
Q 20.0625 -1.421875 12.78125 6.34375 
Q 5.515625 14.109375 5.515625 27.296875 
Q 5.515625 40.671875 12.859375 48.328125 
Q 20.21875 56 33.015625 56 
Q 37.15625 56 41.109375 55.140625 
Q 45.0625 54.296875 48.78125 52.59375 
z
" id="DejaVuSans-63"/>
      <path id="DejaVuSans-20"/>
      <path d="M 41.109375 46.296875 
Q 39.59375 47.171875 37.8125 47.578125 
Q 36.03125 48 33.890625 48 
Q 26.265625 48 22.1875 43.046875 
Q 18.109375 38.09375 18.109375 28.8125 
L 18.109375 0 
L 9.078125 0 
L 9.078125 54.6875 
L 18.109375 54.6875 
L 18.109375 46.1875 
Q 20.953125 51.171875 25.484375 53.578125 
Q 30.03125 56 36.53125 56 
Q 37.453125 56 38.578125 55.875 
Q 39.703125 55.765625 41.0625 55.515625 
z
" id="DejaVuSans-72"/>
      <path d="M 18.3125 70.21875 
L 18.3125 54.6875 
L 36.8125 54.6875 
L 36.8125 47.703125 
L 18.3125 47.703125 
L 18.3125 18.015625 
Q 18.3125 11.328125 20.140625 9.421875 
Q 21.96875 7.515625 27.59375 7.515625 
L 36.8125 7.515625 
L 36.8125 0 
L 27.59375 0 
Q 17.1875 0 13.234375 3.875 
Q 9.28125 7.765625 9.28125 18.015625 
L 9.28125 47.703125 
L 2.6875 47.703125 
L 2.6875 54.6875 
L 9.28125 54.6875 
L 9.28125 70.21875 
z
" id="DejaVuSans-74"/>
     </defs>
     <g transform="translate(14.798438 190.28975)rotate(-90)scale(0.1 -0.1)">
      <use xlink:href="#DejaVuSans-75"/>
      <use x="63.378906" xlink:href="#DejaVuSans-6e"/>
      <use x="126.757812" xlink:href="#DejaVuSans-64"/>
      <use x="190.234375" xlink:href="#DejaVuSans-69"/>
      <use x="218.017578" xlink:href="#DejaVuSans-73"/>
      <use x="270.117188" xlink:href="#DejaVuSans-63"/>
      <use x="325.097656" xlink:href="#DejaVuSans-2e"/>
      <use x="356.884766" xlink:href="#DejaVuSans-20"/>
      <use x="388.671875" xlink:href="#DejaVuSans-72"/>
      <use x="429.753906" xlink:href="#DejaVuSans-65"/>
      <use x="491.277344" xlink:href="#DejaVuSans-74"/>
      <use x="530.486328" xlink:href="#DejaVuSans-75"/>
      <use x="593.865234" xlink:href="#DejaVuSans-72"/>
      <use x="634.962891" xlink:href="#DejaVuSans-6e"/>
     </g>
    </g>
   </g>
   <g id="line2d_12">
    <path clip-path="url(#p2121d8b1c2)" d="M 60.013977 198.483318 
L 60.150444 188.349438 
L 60.286911 148.970732 
L 60.423378 228.613434 
L 60.696311 109.995745 
L 60.832778 129.147316 
L 60.969245 109.495233 
L 61.105712 173.496584 
L 61.242179 133.911302 
L 61.378645 236.188589 
L 61.515112 181.907244 
L 61.651579 235.850549 
L 61.924513 206.746026 
L 62.060979 215.290284 
L 62.197446 194.845865 
L 62.333913 147.828827 
L 62.606847 209.421428 
L 62.743314 198.571138 
L 62.87978 221.671763 
L 63.016247 122.074429 
L 63.289181 218.297215 
L 63.425648 46.340347 
L 63.562114 230.22063 
L 63.698581 230.302878 
L 63.835048 240.939029 
L 63.971515 75.988489 
L 64.107982 69.483552 
L 64.380915 209.168078 
L 64.517382 164.790644 
L 64.653849 34.414125 
L 64.790316 181.944777 
L 64.926783 192.272799 
L 65.336183 132.413351 
L 65.47265 89.837348 
L 65.609117 195.922394 
L 65.745583 125.404703 
L 65.88205 129.081887 
L 66.018517 220.843952 
L 66.154984 92.487662 
L 66.291451 222.140941 
L 66.427917 178.147653 
L 66.564384 223.345331 
L 66.700851 152.907172 
L 66.837318 258.408743 
L 67.110251 256.763202 
L 67.246718 276.334125 
L 67.519652 255.648251 
L 67.656119 269.93688 
L 67.792586 258.332102 
L 67.929052 264.548918 
L 68.065519 253.073274 
L 68.338453 264.442583 
L 68.611386 257.117106 
L 68.88432 261.577208 
L 69.020787 261.891281 
L 69.157254 268.233892 
L 69.29372 258.005417 
L 69.430187 258.947898 
L 69.566654 267.24001 
L 69.839588 250.683789 
L 70.112521 272.156745 
L 70.248988 252.917045 
L 70.521922 264.241375 
L 70.658389 262.014379 
L 70.794855 255.605114 
L 71.067789 265.620098 
L 71.204256 255.819387 
L 71.340723 263.679422 
L 71.477189 259.780506 
L 71.613656 259.741013 
L 71.750123 258.799694 
L 72.159524 263.577455 
L 72.29599 261.571264 
L 72.432457 256.860511 
L 72.568924 257.774889 
L 72.705391 272.184965 
L 72.978324 249.353714 
L 73.114791 256.349826 
L 73.251258 255.981716 
L 73.387725 258.530337 
L 73.524192 266.91618 
L 73.660658 260.475453 
L 73.933592 265.072981 
L 74.206526 255.204989 
L 74.342993 262.887358 
L 74.479459 258.130966 
L 74.615926 264.814608 
L 74.752393 251.138518 
L 75.025327 272.932236 
L 75.161793 266.040294 
L 75.29826 240.940484 
L 75.571194 255.406265 
L 75.707661 257.238471 
L 75.844127 255.597503 
L 76.117061 269.113333 
L 76.253528 247.022096 
L 76.389995 264.999195 
L 76.526462 249.584806 
L 76.662928 260.885146 
L 76.799395 253.460065 
L 76.935862 258.354232 
L 77.072329 252.172492 
L 77.208796 257.781253 
L 77.345262 257.742944 
L 77.754663 263.786954 
L 77.89113 258.774298 
L 78.027596 261.625908 
L 78.164063 246.424754 
L 78.30053 263.849464 
L 78.436997 259.248488 
L 78.573464 259.93406 
L 78.70993 264.53215 
L 78.846397 255.447849 
L 78.982864 261.869828 
L 79.119331 257.13882 
L 79.255798 238.635455 
L 79.392265 236.723122 
L 79.528731 259.396698 
L 79.665198 261.51465 
L 79.801665 255.45541 
L 79.938132 255.760383 
L 80.074599 259.729038 
L 80.211065 251.453524 
L 80.347532 262.66412 
L 80.483999 262.283142 
L 80.620466 242.097071 
L 80.893399 267.194695 
L 81.029866 258.446193 
L 81.166333 263.101995 
L 81.3028 263.52487 
L 81.439267 269.307144 
L 81.575734 255.169663 
L 81.7122 259.798792 
L 81.848667 270.91108 
L 81.985134 251.846469 
L 82.121601 261.090211 
L 82.258068 259.136908 
L 82.394534 250.280392 
L 82.667468 269.721621 
L 82.803935 263.611907 
L 82.940402 249.534443 
L 83.076868 257.872993 
L 83.213335 250.803804 
L 83.349802 265.573658 
L 83.486269 259.68953 
L 83.622736 263.369422 
L 83.895669 255.430928 
L 84.168603 268.352442 
L 84.441537 258.621033 
L 84.578003 267.33387 
L 84.71447 252.281411 
L 84.850937 263.498057 
L 84.987404 263.096339 
L 85.123871 247.403934 
L 85.396804 263.773966 
L 85.533271 258.432423 
L 85.669738 265.942692 
L 85.806205 256.949741 
L 85.942672 269.282785 
L 86.079138 267.416484 
L 86.215605 253.946316 
L 86.352072 257.831065 
L 86.488539 249.526848 
L 86.761472 265.278807 
L 86.897939 255.568678 
L 87.034406 258.897965 
L 87.170873 259.156318 
L 87.30734 269.678298 
L 87.443806 250.317976 
L 87.580273 255.526648 
L 87.71674 252.052403 
L 87.989674 264.703143 
L 88.126141 259.657227 
L 88.262607 262.230922 
L 88.399074 249.778125 
L 88.535541 267.030497 
L 88.808475 255.677927 
L 88.944941 261.732052 
L 89.081408 261.498962 
L 89.217875 250.67889 
L 89.354342 265.684849 
L 89.627275 256.197758 
L 89.900209 257.415466 
L 90.036676 252.165151 
L 90.30961 268.382924 
L 90.582543 253.820227 
L 90.71901 267.377783 
L 90.855477 267.903284 
L 90.991944 259.557495 
L 91.264877 269.442074 
L 91.401344 259.390655 
L 91.537811 260.409039 
L 91.810744 255.054402 
L 91.947211 265.317213 
L 92.083678 266.449373 
L 92.220145 266.264672 
L 92.356612 268.990361 
L 92.629545 259.866844 
L 92.902479 262.354865 
L 93.175413 248.769707 
L 93.311879 255.497047 
L 93.448346 252.180621 
L 93.584813 258.606389 
L 93.72128 255.42619 
L 93.857747 261.376697 
L 93.994213 252.228065 
L 94.13068 256.363586 
L 94.267147 255.387755 
L 94.403614 257.366428 
L 94.540081 256.021666 
L 94.813014 263.214808 
L 95.085948 257.478245 
L 95.222415 259.930781 
L 95.358882 259.655297 
L 95.495348 257.375151 
L 95.631815 266.050334 
L 95.768282 260.832881 
L 95.904749 247.584198 
L 96.177682 263.786327 
L 96.314149 258.274296 
L 96.450616 261.986901 
L 96.587083 258.736397 
L 96.72355 259.198483 
L 96.860016 267.070688 
L 96.996483 260.99507 
L 97.13295 264.394427 
L 97.269417 259.690217 
L 97.542351 261.749288 
L 97.678817 258.549755 
L 97.815284 250.106246 
L 97.951751 268.539194 
L 98.088218 250.628496 
L 98.361151 259.444226 
L 98.497618 258.202288 
L 98.634085 258.714622 
L 98.770552 259.778834 
L 98.907019 266.356291 
L 99.179952 260.040647 
L 99.316419 260.738775 
L 99.452886 259.06335 
L 99.589353 261.026379 
L 99.72582 259.139122 
L 99.862286 259.525017 
L 99.998753 253.794046 
L 100.13522 261.304686 
L 100.271687 257.496588 
L 100.408154 258.911927 
L 100.54462 257.379329 
L 100.681087 259.651064 
L 100.817554 259.476393 
L 100.954021 260.123738 
L 101.090488 262.093115 
L 101.226954 250.993087 
L 101.363421 260.514885 
L 101.499888 261.444245 
L 101.636355 270.520455 
L 101.772822 260.957528 
L 101.909289 264.90968 
L 102.045755 259.721204 
L 102.182222 266.299787 
L 102.455156 256.097164 
L 102.864556 264.862232 
L 103.001023 258.908027 
L 103.13749 261.232776 
L 103.410423 258.993971 
L 103.683357 259.562806 
L 103.819824 258.658425 
L 103.956291 258.565414 
L 104.092758 257.848206 
L 104.229224 254.895542 
L 104.365691 260.427938 
L 104.502158 258.783722 
L 104.638625 261.369124 
L 104.775092 259.630209 
L 104.911558 260.440427 
L 105.048025 263.426417 
L 105.184492 257.822095 
L 105.320959 262.415258 
L 105.457426 256.71915 
L 105.593892 260.278617 
L 105.730359 259.350478 
L 105.866826 261.378342 
L 106.003293 259.625798 
L 106.13976 268.449951 
L 106.412693 256.990645 
L 106.54916 256.389309 
L 106.685627 250.787943 
L 106.822094 259.556078 
L 106.958561 257.285819 
L 107.367961 260.212685 
L 107.504428 256.855501 
L 107.640895 264.799381 
L 107.913828 260.421158 
L 108.050295 258.016904 
L 108.186762 259.608113 
L 108.323229 252.210239 
L 108.459695 259.363094 
L 108.732629 261.401766 
L 108.869096 258.124345 
L 109.005563 260.010425 
L 109.14203 252.348548 
L 109.278496 259.266467 
L 109.414963 260.097736 
L 109.55143 264.999102 
L 109.687897 261.041754 
L 109.824364 252.44254 
L 109.96083 264.338661 
L 110.097297 260.533317 
L 110.233764 261.73626 
L 110.506698 258.929663 
L 110.779631 260.462697 
L 110.916098 257.34743 
L 111.052565 259.746492 
L 111.189032 258.371008 
L 111.461965 265.08154 
L 111.598432 256.850262 
L 111.871366 260.015098 
L 112.144299 257.80408 
L 112.280766 258.363063 
L 112.5537 258.12723 
L 112.690167 253.571523 
L 112.826633 259.703483 
L 112.9631 260.038712 
L 113.099567 259.177546 
L 113.236034 260.168567 
L 113.372501 259.559856 
L 113.508968 257.410669 
L 113.781901 261.463198 
L 113.918368 257.401168 
L 114.054835 259.766182 
L 114.191302 260.054802 
L 114.327768 260.06809 
L 114.464235 258.30392 
L 114.600702 259.336697 
L 114.737169 255.1695 
L 114.873636 256.623643 
L 115.010102 259.742813 
L 115.146569 257.412759 
L 115.419503 260.861346 
L 115.55597 260.793267 
L 116.101837 257.694452 
L 116.374771 260.00256 
L 116.511237 258.949406 
L 116.647704 259.012552 
L 116.784171 251.981661 
L 116.920638 261.734815 
L 117.193571 259.173602 
L 117.330038 260.322691 
L 117.466505 257.385041 
L 117.602972 262.696836 
L 117.739439 258.912253 
L 117.875906 262.535202 
L 118.148839 256.962364 
L 118.285306 259.110483 
L 118.421773 259.420412 
L 118.55824 258.634839 
L 118.694706 257.13921 
L 118.831173 262.113696 
L 119.104107 259.968392 
L 119.240574 259.806164 
L 119.37704 260.284073 
L 119.649974 256.220451 
L 119.922908 259.890312 
L 120.059374 259.798121 
L 120.195841 255.799935 
L 120.332308 247.692374 
L 120.468775 261.594199 
L 120.605242 259.186893 
L 120.741709 259.474513 
L 120.878175 260.191928 
L 121.014642 257.602716 
L 121.151109 257.987296 
L 121.287576 260.501664 
L 121.424043 260.274716 
L 121.696976 259.349229 
L 121.833443 259.529495 
L 122.106377 257.969735 
L 122.242843 270.920669 
L 122.37931 260.42489 
L 122.515777 259.508396 
L 122.652244 259.972375 
L 122.788711 258.811506 
L 122.925178 260.023641 
L 123.061644 259.51828 
L 123.198111 257.600042 
L 123.334578 261.415913 
L 123.471045 258.910262 
L 123.607512 260.386476 
L 123.880445 259.522242 
L 124.016912 258.742407 
L 124.153379 259.040432 
L 124.289846 260.123518 
L 124.426312 258.270334 
L 124.562779 260.362176 
L 124.699246 267.305801 
L 124.835713 258.429506 
L 125.108647 260.62684 
L 125.245113 261.397168 
L 125.38158 259.892579 
L 125.518047 259.96516 
L 125.654514 258.60024 
L 125.790981 259.652424 
L 125.927447 258.457545 
L 126.063914 259.376734 
L 126.200381 259.027336 
L 126.336848 258.121787 
L 126.473315 259.929341 
L 126.609781 259.551407 
L 126.746248 258.436153 
L 126.882715 260.497715 
L 127.019182 259.845765 
L 127.155649 259.840083 
L 127.292116 260.432134 
L 127.428582 262.298936 
L 127.97445 258.650888 
L 128.110916 261.12662 
L 128.247383 260.00422 
L 128.38385 262.238182 
L 128.520317 260.59873 
L 128.656784 260.610724 
L 128.79325 259.629868 
L 128.929717 265.072913 
L 129.202651 259.733275 
L 129.339118 258.954133 
L 129.475585 260.639449 
L 129.612051 258.434011 
L 129.748518 258.725574 
L 129.884985 261.150166 
L 130.021452 260.875918 
L 130.157919 263.417648 
L 130.294385 259.875881 
L 130.430852 259.395994 
L 130.567319 257.745658 
L 130.703786 259.967243 
L 130.976719 257.805513 
L 131.113186 258.887248 
L 131.249653 258.846265 
L 131.38612 259.304461 
L 131.522587 257.251481 
L 131.659054 258.189497 
L 131.79552 262.591922 
L 131.931987 257.977172 
L 132.204921 259.313453 
L 132.341388 259.401729 
L 132.477854 259.974254 
L 132.614321 259.568025 
L 132.750788 261.710444 
L 132.887255 262.053183 
L 133.023722 259.794301 
L 133.160188 261.06573 
L 133.296655 260.196832 
L 133.433122 257.926615 
L 133.569589 259.879276 
L 133.706056 259.846056 
L 133.842522 262.511408 
L 134.115456 259.038606 
L 134.251923 260.611711 
L 134.38839 260.603716 
L 134.524857 259.614839 
L 134.661323 259.952153 
L 134.79779 260.742041 
L 134.934257 259.910761 
L 135.070724 263.28472 
L 135.207191 260.41038 
L 135.343657 260.230597 
L 135.480124 259.288317 
L 135.616591 260.653 
L 135.753058 259.473516 
L 135.889525 259.431868 
L 136.162458 260.559792 
L 136.298925 258.512848 
L 136.435392 259.772259 
L 136.708326 259.255933 
L 136.844792 259.980848 
L 136.981259 259.95107 
L 137.254193 258.458181 
L 137.39066 258.761965 
L 137.663593 260.301291 
L 137.80006 258.463889 
L 138.072994 259.206652 
L 138.20946 258.668268 
L 138.345927 260.446076 
L 138.482394 260.455902 
L 138.618861 260.337338 
L 138.755328 259.212141 
L 138.891795 261.274635 
L 139.028261 260.925474 
L 139.164728 259.819525 
L 139.301195 261.488612 
L 139.437662 260.63055 
L 139.574129 258.480415 
L 139.710595 259.840468 
L 139.847062 258.679176 
L 139.983529 260.236483 
L 140.119996 258.965415 
L 140.256463 259.226502 
L 140.392929 258.116631 
L 140.529396 258.344187 
L 140.665863 261.533175 
L 140.80233 259.603722 
L 140.938797 259.48953 
L 141.075264 260.621558 
L 141.21173 259.737004 
L 141.348197 260.204157 
L 141.484664 259.579202 
L 141.621131 261.491512 
L 141.757598 259.974541 
L 141.894064 262.800305 
L 142.030531 258.493708 
L 142.303465 261.546829 
L 142.439932 259.611696 
L 142.712865 259.467624 
L 142.985799 260.551865 
L 143.258733 259.300954 
L 143.395199 259.570931 
L 143.531666 258.916754 
L 143.668133 261.571373 
L 143.8046 260.892612 
L 144.077533 257.670164 
L 144.214 258.816923 
L 144.350467 257.874604 
L 144.486934 260.307235 
L 144.623401 260.173863 
L 144.759867 259.021317 
L 144.896334 259.592212 
L 145.032801 258.040698 
L 145.169268 261.525918 
L 145.442202 259.70561 
L 145.578668 262.107968 
L 145.851602 259.187553 
L 145.988069 261.476405 
L 146.124536 260.031441 
L 146.261002 261.181341 
L 146.397469 259.212482 
L 146.533936 261.613072 
L 146.670403 259.071752 
L 146.80687 260.631251 
L 146.943336 259.151622 
L 147.079803 260.218662 
L 147.21627 258.413001 
L 147.352737 259.168734 
L 147.489204 258.224943 
L 147.62567 259.69441 
L 147.762137 258.669535 
L 147.898604 258.949302 
L 148.035071 260.820984 
L 148.171538 260.101129 
L 148.308005 260.377118 
L 148.444471 259.877847 
L 148.580938 261.009273 
L 148.717405 260.185177 
L 148.853872 261.771337 
L 148.990339 262.027909 
L 149.126805 257.882853 
L 149.263272 259.232846 
L 149.399739 261.844564 
L 149.536206 259.728886 
L 149.672673 260.680866 
L 149.809139 259.195867 
L 149.945606 259.681084 
L 150.082073 259.573889 
L 150.21854 259.212805 
L 150.355007 261.264912 
L 150.491474 260.444546 
L 150.62794 258.920863 
L 150.764407 258.736207 
L 150.900874 259.596445 
L 151.173808 258.418438 
L 151.310274 261.89902 
L 151.446741 259.466231 
L 151.719675 261.711802 
L 151.992608 259.443349 
L 152.129075 258.3483 
L 152.265542 259.296976 
L 152.402009 259.323681 
L 152.538476 260.874038 
L 152.674943 259.264326 
L 152.947876 261.789942 
L 153.084343 259.072663 
L 153.22081 258.721738 
L 153.357277 258.961727 
L 153.493743 259.724882 
L 153.63021 259.684495 
L 153.766677 258.490873 
L 153.903144 258.924151 
L 154.039611 260.402089 
L 154.176077 257.772443 
L 154.312544 258.445025 
L 154.449011 258.422467 
L 154.585478 258.711954 
L 154.721945 258.581992 
L 154.858412 260.496791 
L 154.994878 259.381222 
L 155.131345 262.549251 
L 155.267812 258.902206 
L 155.404279 258.85251 
L 155.540746 262.305342 
L 155.813679 258.980921 
L 155.950146 262.023807 
L 156.086613 259.657781 
L 156.359546 261.446072 
L 156.496013 259.236238 
L 156.63248 261.107573 
L 156.768947 259.843073 
L 156.905414 261.844873 
L 157.041881 259.618948 
L 157.314814 259.288538 
L 157.451281 257.338901 
L 157.587748 258.321211 
L 157.724215 256.995289 
L 157.860681 259.010212 
L 157.997148 257.784069 
L 158.133615 258.150369 
L 158.406549 259.45142 
L 158.543015 259.942568 
L 158.815949 258.922665 
L 158.952416 257.036176 
L 159.088883 260.348123 
L 159.22535 259.796546 
L 159.361816 260.199317 
L 159.498283 259.500442 
L 159.63475 259.541117 
L 159.771217 259.699794 
L 160.04415 258.966933 
L 160.180617 258.584667 
L 160.317084 260.239545 
L 160.453551 258.941675 
L 160.726484 260.230102 
L 160.862951 259.807122 
L 160.999418 258.952415 
L 161.135885 260.745205 
L 161.272352 260.639886 
L 161.545285 258.827678 
L 161.681752 260.212081 
L 161.818219 259.422502 
L 161.954686 257.066804 
L 162.227619 259.630049 
L 162.364086 259.487766 
L 162.500553 258.721975 
L 162.63702 261.598787 
L 162.773487 261.478108 
L 163.04642 258.109106 
L 163.182887 261.1254 
L 163.319354 261.491386 
L 163.455821 259.902115 
L 163.592287 260.944346 
L 163.728754 258.581595 
L 163.865221 258.521493 
L 164.001688 259.903464 
L 164.138155 259.024064 
L 164.274622 260.177193 
L 164.411088 259.97492 
L 164.547555 260.714282 
L 164.684022 259.494201 
L 164.820489 259.803175 
L 164.956956 259.728388 
L 165.093422 258.777004 
L 165.229889 264.362258 
L 165.366356 259.995347 
L 165.502823 260.975385 
L 165.63929 260.606082 
L 165.775756 259.016501 
L 165.912223 259.041674 
L 166.04869 260.86885 
L 166.185157 258.49111 
L 166.321624 259.303692 
L 166.594557 258.538508 
L 166.731024 260.670944 
L 166.867491 259.759562 
L 167.003958 260.099593 
L 167.140425 259.622949 
L 167.276891 260.133653 
L 167.413358 257.997619 
L 167.549825 260.732235 
L 167.686292 260.772939 
L 167.822759 259.222359 
L 167.959225 260.184581 
L 168.095692 261.96451 
L 168.232159 259.265888 
L 168.368626 261.049479 
L 168.505093 259.488807 
L 168.64156 259.488577 
L 168.778026 258.933182 
L 168.914493 258.859729 
L 169.05096 258.184075 
L 169.187427 260.677423 
L 169.323894 259.663448 
L 169.46036 260.576433 
L 169.596827 259.992465 
L 169.733294 261.217197 
L 169.869761 259.188842 
L 170.142694 260.982972 
L 170.279161 259.045574 
L 170.415628 259.25311 
L 170.552095 259.163502 
L 170.688562 260.347957 
L 170.961495 259.093177 
L 171.097962 257.02554 
L 171.370896 258.844078 
L 171.507363 259.465596 
L 171.643829 259.516271 
L 171.780296 258.327964 
L 171.916763 261.076876 
L 172.05323 258.215639 
L 172.189697 259.37783 
L 172.326163 258.8423 
L 172.46263 260.260081 
L 172.599097 259.548226 
L 172.735564 262.04778 
L 172.872031 260.302283 
L 173.008498 260.665681 
L 173.144964 260.247859 
L 173.281431 260.425141 
L 173.417898 261.381956 
L 173.554365 259.513664 
L 173.690832 259.95771 
L 173.827298 259.125423 
L 173.963765 260.169963 
L 174.100232 260.226686 
L 174.236699 258.185473 
L 174.509632 261.071831 
L 174.646099 259.720706 
L 174.782566 260.331625 
L 175.0555 259.940269 
L 175.191966 258.386221 
L 175.328433 261.94039 
L 175.4649 259.349732 
L 175.601367 261.082341 
L 175.737834 260.722202 
L 175.874301 259.393558 
L 176.010767 259.7599 
L 176.147234 259.469844 
L 176.420168 260.968739 
L 176.556635 258.689293 
L 176.966035 261.886099 
L 177.102502 258.942003 
L 177.238969 261.7222 
L 177.375435 260.727543 
L 177.511902 258.746785 
L 177.648369 259.816551 
L 177.784836 259.000551 
L 178.05777 259.990371 
L 178.194236 257.963629 
L 178.330703 260.858839 
L 178.46717 260.845429 
L 178.603637 263.137525 
L 178.740104 258.674155 
L 178.87657 259.237099 
L 179.013037 259.057749 
L 179.149504 258.591901 
L 179.422438 258.81422 
L 179.558904 256.633304 
L 179.695371 257.584488 
L 179.968305 260.412374 
L 180.104772 259.373683 
L 180.241239 259.462896 
L 180.377705 259.231239 
L 180.514172 259.733677 
L 180.650639 259.463682 
L 180.923573 258.1823 
L 181.46944 260.423134 
L 181.742373 258.440758 
L 182.015307 261.674281 
L 182.288241 259.157521 
L 182.424708 259.612169 
L 182.561174 258.110473 
L 182.834108 260.231683 
L 183.107042 258.435344 
L 183.243508 258.777044 
L 183.379975 257.780089 
L 183.516442 259.057629 
L 183.652909 259.091515 
L 183.789376 260.227266 
L 184.062309 258.748053 
L 184.198776 258.892731 
L 184.335243 258.859557 
L 184.47171 258.583503 
L 184.608177 258.737931 
L 184.88111 260.881939 
L 185.154044 259.875276 
L 185.290511 262.086088 
L 185.426977 259.660763 
L 185.563444 261.066102 
L 185.699911 258.871383 
L 185.836378 260.128889 
L 185.972845 258.812987 
L 186.109311 259.49468 
L 186.245778 258.886116 
L 186.518712 261.057409 
L 186.655179 260.068964 
L 186.791646 260.178231 
L 186.928112 261.568144 
L 187.064579 260.351244 
L 187.201046 260.638405 
L 187.337513 261.687842 
L 187.610446 259.679442 
L 187.746913 258.935102 
L 187.88338 259.046448 
L 188.019847 261.703043 
L 188.156314 261.617475 
L 188.29278 262.606375 
L 188.429247 259.519442 
L 188.565714 259.596547 
L 188.702181 260.673399 
L 188.838648 259.657404 
L 189.111581 260.328654 
L 189.248048 261.257319 
L 189.384515 258.017887 
L 189.520982 258.269017 
L 189.793915 258.169113 
L 189.930382 257.988677 
L 190.066849 258.931712 
L 190.203316 261.060112 
L 190.339783 258.981799 
L 190.612716 259.332285 
L 190.749183 259.263907 
L 190.88565 263.244913 
L 191.158583 260.543167 
L 191.29505 260.287089 
L 191.567984 258.545668 
L 191.704451 262.124381 
L 191.840918 258.538773 
L 191.977384 260.622689 
L 192.113851 260.184121 
L 192.250318 259.189864 
L 192.386785 260.715584 
L 192.659718 258.679535 
L 192.796185 259.207076 
L 192.932652 260.569381 
L 193.069119 259.316772 
L 193.205586 255.391525 
L 193.342052 261.275107 
L 193.478519 259.537328 
L 193.751453 261.170854 
L 193.88792 264.50461 
L 194.160853 258.039162 
L 194.29732 259.869074 
L 194.570254 257.1556 
L 194.843187 260.53058 
L 194.979654 260.150406 
L 195.116121 259.435787 
L 195.252588 259.939161 
L 195.389055 259.443396 
L 195.525521 257.200089 
L 195.661988 258.800363 
L 195.798455 258.839757 
L 195.934922 257.928237 
L 196.071389 259.438302 
L 196.207856 257.705319 
L 196.480789 260.462918 
L 196.617256 259.449401 
L 196.89019 260.828184 
L 197.163123 259.882054 
L 197.29959 259.87064 
L 197.436057 258.298849 
L 197.70899 260.058009 
L 197.845457 259.437112 
L 197.981924 261.252592 
L 198.254858 258.459604 
L 198.391325 258.850162 
L 198.527791 257.986298 
L 198.800725 261.127464 
L 198.937192 259.491901 
L 199.073659 259.818796 
L 199.346592 258.42986 
L 199.483059 257.471807 
L 199.755993 260.693055 
L 200.028926 259.13632 
L 200.165393 259.701646 
L 200.438327 262.437049 
L 200.71126 259.992086 
L 200.847727 259.239297 
L 200.984194 259.254095 
L 201.120661 258.372649 
L 201.257128 258.283306 
L 201.393594 258.871515 
L 201.530061 260.510893 
L 201.802995 258.647129 
L 201.939462 260.833565 
L 202.075928 258.955298 
L 202.212395 260.791019 
L 202.348862 259.542818 
L 202.485329 259.886102 
L 202.621796 257.948493 
L 202.758262 257.939994 
L 203.031196 259.231802 
L 203.167663 258.215247 
L 203.30413 258.712724 
L 203.440597 259.726925 
L 203.577063 259.748367 
L 203.71353 259.109835 
L 203.849997 261.472172 
L 203.986464 259.276751 
L 204.122931 259.258777 
L 204.259397 261.452433 
L 204.395864 258.939061 
L 204.532331 259.61377 
L 204.668798 259.060382 
L 204.805265 260.006197 
L 204.941731 263.427745 
L 205.351132 257.57846 
L 205.487599 260.933367 
L 205.624066 260.305599 
L 205.760532 261.674639 
L 205.896999 258.790159 
L 206.169933 260.499879 
L 206.3064 258.004321 
L 206.442866 261.258873 
L 206.579333 258.395382 
L 206.988734 259.368137 
L 207.1252 259.970834 
L 207.261667 261.892635 
L 207.398134 259.572444 
L 207.534601 260.881214 
L 207.671068 259.246238 
L 207.807535 260.629525 
L 208.080468 258.699868 
L 208.216935 259.158462 
L 208.353402 258.296378 
L 208.489869 258.672651 
L 208.626335 261.981823 
L 208.762802 260.623171 
L 208.899269 260.555487 
L 209.172203 258.141893 
L 209.308669 259.301589 
L 209.581603 258.893517 
L 209.71807 262.74776 
L 209.991004 257.830228 
L 210.12747 258.063381 
L 210.263937 259.732349 
L 210.400404 259.089884 
L 210.536871 260.243665 
L 210.673338 258.621543 
L 210.946271 260.120039 
L 211.082738 260.479741 
L 211.219205 258.824076 
L 211.492138 260.787457 
L 211.765072 259.274906 
L 211.901539 262.770488 
L 212.174473 258.862496 
L 212.310939 260.057687 
L 212.447406 259.515609 
L 212.583873 260.580297 
L 212.72034 259.626429 
L 212.993273 262.943301 
L 213.12974 260.835996 
L 213.266207 261.974817 
L 213.539141 259.499949 
L 213.675607 259.534635 
L 213.948541 263.202225 
L 214.085008 259.455161 
L 214.221475 261.952659 
L 214.494408 258.042482 
L 214.767342 260.885623 
L 214.903809 259.910777 
L 215.040276 260.125249 
L 215.176742 260.827615 
L 215.313209 260.352098 
L 215.449676 260.905592 
L 215.586143 258.473793 
L 215.72261 258.872779 
L 215.859076 260.971774 
L 215.995543 260.929392 
L 216.268477 257.760688 
L 216.677877 261.785025 
L 216.814344 258.794467 
L 217.087278 258.72533 
L 217.223745 261.488778 
L 217.496678 259.618038 
L 217.633145 259.756393 
L 217.906079 260.474853 
L 218.042545 259.673455 
L 218.179012 258.187527 
L 218.451946 260.385619 
L 218.588413 257.543751 
L 218.861346 260.307358 
L 218.997813 260.689847 
L 219.270747 260.654875 
L 219.407214 260.530179 
L 219.54368 259.851804 
L 219.816614 260.748775 
L 219.953081 260.698694 
L 220.089548 260.466325 
L 220.362481 257.122626 
L 220.498948 262.216299 
L 220.635415 260.323003 
L 220.771882 260.564054 
L 220.908348 260.329316 
L 221.044815 257.56399 
L 221.317749 260.252576 
L 221.454216 259.508427 
L 221.590683 259.881605 
L 221.727149 259.808043 
L 221.863616 260.342994 
L 222.000083 258.70207 
L 222.273017 260.248485 
L 222.409483 258.654289 
L 222.54595 260.737619 
L 222.682417 259.188284 
L 222.818884 261.303018 
L 222.955351 258.587031 
L 223.091817 258.611399 
L 223.364751 258.817976 
L 223.501218 259.766681 
L 223.637685 258.951937 
L 223.774152 260.660402 
L 224.047085 258.399901 
L 224.183552 260.922632 
L 224.456486 256.75805 
L 224.592952 259.002465 
L 224.729419 258.932307 
L 225.002353 258.178372 
L 225.13882 261.97644 
L 225.275286 259.336497 
L 225.411753 259.327955 
L 225.54822 260.678753 
L 225.684687 259.747969 
L 225.821154 259.793143 
L 225.957621 258.895463 
L 226.094087 259.55806 
L 226.230554 258.856307 
L 226.503488 259.398213 
L 226.639955 259.429488 
L 226.776421 259.038445 
L 226.912888 259.445186 
L 227.049355 256.918432 
L 227.185822 261.032207 
L 227.458755 258.606793 
L 227.595222 258.976605 
L 227.731689 258.864537 
L 228.14109 260.646264 
L 228.277556 258.632299 
L 228.414023 259.463484 
L 228.55049 258.131141 
L 228.686957 260.637693 
L 228.823424 260.494556 
L 228.95989 258.120661 
L 229.232824 261.717957 
L 229.369291 258.452117 
L 229.505758 258.924262 
L 229.642224 258.507089 
L 229.778691 255.806531 
L 230.051625 258.598964 
L 230.324558 258.306174 
L 230.461025 262.52534 
L 230.597492 260.109302 
L 230.733959 260.655245 
L 231.006893 259.740423 
L 231.143359 259.741521 
L 231.279826 257.495489 
L 231.416293 261.338678 
L 231.55276 261.435595 
L 231.825693 259.447449 
L 231.96216 259.028091 
L 232.098627 262.165358 
L 232.235094 259.257175 
L 232.508027 260.98796 
L 232.644494 259.199709 
L 232.917428 264.116774 
L 233.053895 260.395361 
L 233.190362 260.557072 
L 233.326828 259.29861 
L 233.463295 261.773202 
L 233.599762 258.89206 
L 233.736229 260.02174 
L 233.872696 259.189105 
L 234.009162 262.484419 
L 234.145629 260.504435 
L 234.282096 260.617199 
L 234.418563 257.938911 
L 234.55503 260.896532 
L 234.691496 259.483367 
L 234.827963 259.296317 
L 234.96443 259.392272 
L 235.100897 260.777655 
L 235.237364 260.262603 
L 235.373831 258.637599 
L 235.510297 259.403142 
L 235.783231 262.192184 
L 235.919698 259.02791 
L 236.056165 259.039556 
L 236.192631 258.363599 
L 236.329098 260.819548 
L 236.465565 258.98558 
L 236.602032 260.07485 
L 236.738499 259.440408 
L 236.874965 260.026266 
L 237.011432 259.074093 
L 237.147899 260.550153 
L 237.284366 260.761728 
L 237.420833 260.61903 
L 237.5573 260.042207 
L 237.693766 257.950035 
L 237.9667 261.492775 
L 238.103167 260.006333 
L 238.239634 263.966733 
L 238.3761 261.964808 
L 238.512567 257.569089 
L 238.785501 261.160643 
L 238.921968 260.795574 
L 239.058434 261.988049 
L 239.194901 258.476562 
L 239.331368 260.384994 
L 239.467835 258.593842 
L 239.604302 258.312662 
L 239.740769 261.948366 
L 239.877235 258.469088 
L 240.013702 260.154275 
L 240.150169 258.874411 
L 240.286636 260.56592 
L 240.423103 260.323391 
L 240.559569 260.628486 
L 240.696036 260.552312 
L 240.832503 260.235244 
L 240.96897 257.904542 
L 241.105437 258.74858 
L 241.241903 258.435431 
L 241.514837 258.848542 
L 241.787771 260.920456 
L 241.924238 259.32121 
L 242.060704 261.753376 
L 242.197171 259.4031 
L 242.333638 259.822189 
L 242.470105 259.599306 
L 242.606572 261.572143 
L 242.743038 261.189082 
L 242.879505 259.683348 
L 243.015972 259.982199 
L 243.152439 258.318359 
L 243.288906 260.711719 
L 243.425372 259.012771 
L 243.561839 258.910676 
L 243.698306 259.971266 
L 243.834773 258.825348 
L 243.97124 262.307027 
L 244.244173 259.37285 
L 244.38064 262.777864 
L 244.517107 259.408071 
L 244.653574 260.681235 
L 244.790041 264.338255 
L 244.926507 261.440315 
L 245.062974 262.68689 
L 245.335908 261.33536 
L 245.472375 260.849253 
L 245.608841 261.253833 
L 245.745308 259.161573 
L 245.881775 261.54772 
L 246.018242 258.406684 
L 246.154709 265.396315 
L 246.291175 263.527026 
L 246.427642 257.860442 
L 246.564109 259.823204 
L 246.700576 258.205871 
L 246.837043 261.308053 
L 246.97351 258.600536 
L 247.109976 258.82985 
L 247.246443 258.563614 
L 247.38291 261.412498 
L 247.655844 258.873248 
L 247.79231 259.544747 
L 247.928777 259.569274 
L 248.065244 260.742555 
L 248.201711 259.250695 
L 248.338178 259.035343 
L 248.474644 259.370543 
L 248.611111 261.165959 
L 248.884045 259.936467 
L 249.020512 259.386618 
L 249.293445 259.902408 
L 249.429912 258.759544 
L 249.566379 259.715097 
L 249.839313 256.76814 
L 249.975779 260.094119 
L 250.112246 260.447359 
L 250.248713 260.330021 
L 250.521647 257.973151 
L 250.658113 261.048316 
L 250.931047 260.063826 
L 251.067514 262.720654 
L 251.203981 261.071112 
L 251.340448 255.870808 
L 251.476914 258.747693 
L 251.613381 258.369902 
L 251.749848 258.902011 
L 251.886315 258.604057 
L 252.022782 259.862526 
L 252.295715 256.728 
L 252.432182 260.827681 
L 252.705116 258.179071 
L 252.841582 259.107703 
L 252.978049 264.317547 
L 253.114516 257.0477 
L 253.250983 260.258233 
L 253.38745 258.364081 
L 253.79685 261.358914 
L 253.933317 259.087754 
L 254.069784 258.943654 
L 254.342717 259.945821 
L 254.479184 259.653391 
L 254.615651 258.78376 
L 254.888585 260.344912 
L 255.025051 259.061432 
L 255.161518 261.89298 
L 255.297985 258.878307 
L 255.434452 260.527323 
L 255.570919 258.153399 
L 255.707386 259.224491 
L 255.843852 258.488224 
L 255.980319 259.041759 
L 256.116786 260.128387 
L 256.38972 256.637764 
L 256.526186 257.655799 
L 256.662653 259.563893 
L 256.79912 257.052321 
L 256.935587 258.465749 
L 257.072054 257.735605 
L 257.344987 260.891743 
L 257.481454 258.045541 
L 257.617921 259.028568 
L 257.754388 257.690294 
L 257.890854 257.822661 
L 258.027321 259.405644 
L 258.163788 258.636404 
L 258.300255 260.91138 
L 258.436722 258.658511 
L 258.573189 261.132445 
L 258.709655 257.703576 
L 258.982589 260.912793 
L 259.119056 260.485229 
L 259.255523 259.332448 
L 259.528456 260.406927 
L 259.80139 258.058128 
L 259.937857 264.758402 
L 260.21079 258.26114 
L 260.347257 258.370826 
L 260.483724 262.815502 
L 260.620191 260.378865 
L 260.756658 261.181165 
L 260.893124 260.427078 
L 261.029591 258.713736 
L 261.166058 259.393781 
L 261.302525 257.779109 
L 261.438992 259.649561 
L 261.575458 259.482917 
L 261.848392 260.222492 
L 261.984859 261.443192 
L 262.121326 260.254744 
L 262.257792 257.939034 
L 262.394259 259.588728 
L 262.667193 256.858956 
L 262.80366 259.333077 
L 262.940127 258.008807 
L 263.076593 258.840119 
L 263.21306 258.298757 
L 263.349527 259.267655 
L 263.485994 257.672257 
L 263.622461 259.902706 
L 263.758927 258.140233 
L 264.031861 260.14988 
L 264.168328 257.427641 
L 264.304795 259.280899 
L 264.441261 256.985998 
L 264.714195 261.279032 
L 264.850662 259.706501 
L 264.987129 256.825227 
L 265.123596 258.3267 
L 265.260062 257.717374 
L 265.396529 259.380211 
L 265.532996 258.89622 
L 265.669463 257.909076 
L 266.21533 261.152119 
L 266.351797 258.256083 
L 266.488264 259.244122 
L 266.62473 258.4749 
L 266.761197 264.149566 
L 266.897664 259.342916 
L 267.034131 259.33408 
L 267.170598 259.757063 
L 267.307065 258.921389 
L 267.579998 261.040982 
L 267.852932 259.043624 
L 267.989399 261.008595 
L 268.125865 259.094311 
L 268.262332 260.772763 
L 268.535266 258.972359 
L 268.671733 264.290765 
L 268.944666 259.876544 
L 269.354067 258.451987 
L 269.490534 260.499056 
L 269.763467 257.712513 
L 270.036401 261.10541 
L 270.172868 260.806665 
L 270.309334 258.226932 
L 270.582268 262.21971 
L 270.718735 257.020995 
L 270.991668 258.041007 
L 271.128135 260.447866 
L 271.264602 260.658128 
L 271.401069 259.944426 
L 271.537536 260.301804 
L 271.674002 261.708402 
L 271.810469 258.705407 
L 271.946936 262.859315 
L 272.083403 259.756339 
L 272.21987 260.937101 
L 272.356337 257.608936 
L 272.492803 260.74728 
L 272.62927 259.874381 
L 272.765737 260.75265 
L 273.038671 259.24279 
L 273.175137 259.200265 
L 273.311604 262.340304 
L 273.584538 257.462321 
L 273.857471 261.169135 
L 274.130405 258.444586 
L 274.266872 259.954326 
L 274.403339 259.962091 
L 274.676272 257.159176 
L 274.812739 259.635638 
L 274.949206 259.530129 
L 275.22214 260.046717 
L 275.358606 260.798522 
L 275.495073 262.220807 
L 275.768007 258.524782 
L 275.904474 260.088332 
L 276.04094 260.051582 
L 276.177407 258.7295 
L 276.313874 259.868999 
L 276.450341 259.245145 
L 276.723275 261.519432 
L 276.996208 258.524347 
L 277.132675 258.939315 
L 277.269142 261.012514 
L 277.405609 260.596538 
L 277.542075 259.566407 
L 277.678542 259.772067 
L 277.815009 260.322684 
L 277.951476 261.467463 
L 278.224409 259.513787 
L 278.360876 260.853261 
L 278.497343 260.265248 
L 278.770277 258.360402 
L 278.906744 260.499562 
L 279.04321 257.395722 
L 279.179677 260.145488 
L 279.316144 259.357576 
L 279.452611 259.70105 
L 279.589078 259.148832 
L 279.725544 261.30839 
L 279.862011 258.557879 
L 279.998478 259.063184 
L 280.134945 261.282262 
L 280.407878 259.144076 
L 280.680812 262.589578 
L 280.817279 258.311011 
L 281.090213 262.216611 
L 281.226679 259.868265 
L 281.363146 260.5687 
L 281.63608 258.173722 
L 281.772547 260.046316 
L 282.04548 259.274278 
L 282.181947 260.684414 
L 282.318414 258.816892 
L 282.454881 258.865757 
L 282.591347 260.793488 
L 282.727814 259.582043 
L 282.864281 261.074049 
L 283.000748 258.984815 
L 283.273682 260.28724 
L 283.410148 257.426909 
L 283.546615 257.894948 
L 283.819549 259.814985 
L 283.956016 258.375443 
L 284.092482 259.140969 
L 284.228949 261.231378 
L 284.365416 258.755982 
L 284.501883 258.353682 
L 284.63835 258.80999 
L 284.774816 259.73016 
L 285.04775 256.930034 
L 285.184217 258.704615 
L 285.320684 263.624452 
L 285.45715 258.879108 
L 285.593617 261.020323 
L 285.730084 259.880678 
L 286.003018 257.051799 
L 286.139485 259.858294 
L 286.275951 259.432281 
L 286.412418 261.357669 
L 286.548885 261.606069 
L 286.685352 260.410744 
L 286.821819 257.400925 
L 287.231219 259.115276 
L 287.367686 258.795405 
L 287.504153 259.535366 
L 287.640619 258.951961 
L 287.777086 258.8613 
L 287.913553 258.009151 
L 288.05002 258.352016 
L 288.186487 258.153397 
L 288.322954 259.462896 
L 288.595887 256.0319 
L 288.732354 260.14237 
L 288.868821 259.016232 
L 289.005288 259.94183 
L 289.141754 258.680676 
L 289.278221 260.448848 
L 289.414688 259.118028 
L 289.551155 259.51392 
L 289.687622 261.354366 
L 289.960555 258.823939 
L 290.097022 259.548546 
L 290.369956 261.479902 
L 290.506423 261.27484 
L 290.642889 258.875181 
L 290.779356 261.536756 
L 290.915823 261.169641 
L 291.05229 258.804343 
L 291.188757 261.847237 
L 291.325223 260.471041 
L 291.46169 262.161379 
L 291.598157 259.757309 
L 291.734624 259.454249 
L 292.007557 260.137727 
L 292.144024 259.554567 
L 292.280491 256.895689 
L 292.416958 260.63399 
L 292.553425 259.553594 
L 292.689892 260.305793 
L 292.826358 257.692264 
L 292.962825 260.447537 
L 293.099292 258.943863 
L 293.235759 261.023902 
L 293.372226 259.206173 
L 293.508692 259.007002 
L 293.645159 258.539969 
L 293.781626 260.248195 
L 294.05456 257.768817 
L 294.191026 258.325459 
L 294.327493 258.022211 
L 294.600427 259.685229 
L 294.736894 258.639642 
L 294.873361 259.645269 
L 295.009827 259.004964 
L 295.146294 260.01855 
L 295.282761 259.466184 
L 295.419228 259.902425 
L 295.555695 257.985308 
L 295.692161 259.381709 
L 295.828628 258.588157 
L 296.238029 260.335704 
L 296.374495 259.979777 
L 296.647429 258.553434 
L 296.920363 259.454506 
L 297.05683 258.022511 
L 297.329763 261.12755 
L 297.46623 258.901055 
L 297.602697 259.639713 
L 297.739164 259.016849 
L 297.87563 258.927099 
L 298.012097 257.928542 
L 298.148564 259.964966 
L 298.285031 257.674933 
L 298.421498 257.281439 
L 298.557964 261.665959 
L 298.694431 260.126436 
L 298.830898 261.94587 
L 299.376765 259.480876 
L 299.513232 259.66207 
L 299.649699 262.512666 
L 299.786166 260.735831 
L 299.922633 256.948214 
L 300.195566 261.614172 
L 300.332033 260.173842 
L 300.4685 260.066935 
L 300.604967 259.680414 
L 300.741433 260.354234 
L 301.014367 258.733197 
L 301.150834 258.966091 
L 301.287301 260.864908 
L 301.423767 259.893578 
L 301.560234 257.915309 
L 301.833168 259.762928 
L 301.969635 260.647649 
L 302.242568 256.841046 
L 302.379035 259.434537 
L 302.515502 259.534558 
L 302.651969 260.034005 
L 302.924902 259.164724 
L 303.061369 257.97658 
L 303.47077 261.419791 
L 303.607236 260.637905 
L 303.743703 261.354716 
L 304.153104 257.827305 
L 304.289571 260.781901 
L 304.426037 259.971766 
L 304.562504 260.797313 
L 304.698971 259.963811 
L 304.835438 260.875951 
L 304.971905 259.31515 
L 305.108371 261.30177 
L 305.244838 260.578112 
L 305.381305 260.753373 
L 305.517772 259.050734 
L 305.654239 259.625501 
L 305.790705 261.510393 
L 305.927172 259.891219 
L 306.063639 259.821816 
L 306.200106 258.203791 
L 306.336573 259.955773 
L 306.47304 260.185847 
L 306.609506 259.948854 
L 306.745973 259.111101 
L 306.88244 261.82472 
L 307.018907 259.165476 
L 307.155374 260.602034 
L 307.29184 257.367555 
L 307.564774 258.523982 
L 307.701241 256.054921 
L 307.837708 255.890513 
L 307.974174 259.073979 
L 308.247108 259.798354 
L 308.383575 259.030964 
L 308.656509 260.319499 
L 308.792975 260.528035 
L 309.065909 259.679434 
L 309.202376 256.816156 
L 309.338843 259.220963 
L 309.475309 259.148747 
L 309.748243 260.808273 
L 310.021177 258.839574 
L 310.157643 258.025954 
L 310.430577 259.88691 
L 310.567044 259.617932 
L 310.703511 257.104355 
L 310.839978 260.889372 
L 311.112911 259.884497 
L 311.249378 259.786143 
L 311.385845 258.359582 
L 311.522312 258.939544 
L 311.795245 260.954908 
L 311.931712 259.032763 
L 312.068179 260.58459 
L 312.204646 259.714259 
L 312.341112 257.450745 
L 312.614046 260.79172 
L 312.88698 257.842927 
L 313.023446 262.560165 
L 313.29638 258.897718 
L 313.432847 259.584059 
L 313.569314 257.851141 
L 313.705781 260.640974 
L 313.842247 260.128775 
L 314.115181 258.487766 
L 314.251648 259.518237 
L 314.388115 258.436385 
L 314.524581 260.216366 
L 314.661048 259.643444 
L 314.797515 259.633568 
L 314.933982 259.234628 
L 315.070449 260.641194 
L 315.206915 259.283114 
L 315.616316 261.224345 
L 315.88925 257.774105 
L 316.162183 261.682823 
L 316.435117 258.341596 
L 316.571584 257.78529 
L 316.70805 260.597494 
L 316.844517 260.447272 
L 316.980984 259.510166 
L 317.253918 260.109226 
L 317.526851 259.144769 
L 317.663318 260.94119 
L 317.799785 258.285782 
L 317.936252 260.299657 
L 318.072719 259.424947 
L 318.209185 259.504356 
L 318.345652 259.11152 
L 318.482119 259.116099 
L 318.618586 260.09433 
L 318.755053 259.193356 
L 318.891519 259.437899 
L 319.027986 259.285672 
L 319.164453 260.673717 
L 319.30092 258.386957 
L 319.71032 260.292604 
L 319.846787 258.696855 
L 319.983254 259.615301 
L 320.256188 258.63586 
L 320.392654 257.744564 
L 320.529121 260.364895 
L 320.665588 258.546105 
L 320.802055 259.105359 
L 320.938522 258.926145 
L 321.074988 258.33491 
L 321.211455 259.89448 
L 321.347922 259.513409 
L 321.484389 261.658018 
L 321.620856 259.706723 
L 321.893789 260.153088 
L 322.030256 259.033491 
L 322.166723 259.976407 
L 322.439657 258.923953 
L 322.576123 259.816604 
L 322.849057 259.480963 
L 322.985524 259.395809 
L 323.121991 257.934211 
L 323.258457 258.446644 
L 323.394924 260.667071 
L 323.531391 260.089025 
L 323.667858 258.94647 
L 323.804325 259.807149 
L 323.940791 259.01925 
L 324.213725 260.29829 
L 324.350192 257.963344 
L 324.486659 259.674098 
L 324.623126 258.365536 
L 324.759592 260.324001 
L 324.896059 258.664454 
L 325.168993 260.354693 
L 325.30546 261.663437 
L 325.851327 257.150008 
L 325.987794 258.257012 
L 326.12426 261.49847 
L 326.260727 260.259706 
L 326.397194 260.341985 
L 326.533661 256.97844 
L 326.670128 261.056213 
L 326.806594 260.712 
L 326.943061 258.584714 
L 327.079528 258.793257 
L 327.215995 260.366234 
L 327.352462 258.740339 
L 327.488929 260.237234 
L 327.625395 260.346088 
L 327.761862 262.255221 
L 327.898329 260.993005 
L 328.034796 261.803559 
L 328.171263 260.709911 
L 328.307729 257.926417 
L 328.444196 259.396668 
L 328.71713 259.023358 
L 328.990063 260.006464 
L 329.12653 257.57288 
L 329.399464 261.924 
L 329.535931 257.20766 
L 329.808864 261.384345 
L 330.081798 258.051263 
L 330.218265 260.514381 
L 330.354732 260.45527 
L 330.491198 258.67969 
L 330.627665 260.051943 
L 330.764132 256.343508 
L 330.900599 260.430532 
L 331.037066 258.204722 
L 331.173532 258.827164 
L 331.309999 258.844283 
L 331.7194 261.383446 
L 331.855867 259.337909 
L 331.992333 259.442841 
L 332.1288 258.467129 
L 332.265267 260.256262 
L 332.401734 260.529105 
L 332.538201 260.328602 
L 332.811134 258.933549 
L 332.947601 257.862786 
L 333.220535 261.1413 
L 333.357001 260.639586 
L 333.493468 259.709727 
L 333.629935 259.687137 
L 333.766402 260.419878 
L 333.902869 258.053453 
L 334.175802 260.493633 
L 334.448736 258.372541 
L 334.585203 258.587906 
L 334.72167 259.011723 
L 334.858136 258.097312 
L 334.994603 258.317295 
L 335.13107 261.725235 
L 335.267537 257.57973 
L 335.54047 259.95299 
L 335.676937 259.380518 
L 335.813404 256.344973 
L 335.949871 258.378081 
L 336.086338 258.108375 
L 336.222805 258.200993 
L 336.359271 261.192669 
L 336.495738 258.437155 
L 336.632205 259.134486 
L 336.768672 258.247881 
L 336.905139 259.760618 
L 337.041605 259.724538 
L 337.178072 260.70592 
L 337.314539 259.565754 
L 337.451006 259.931954 
L 337.587473 259.160266 
L 337.860406 260.621432 
L 337.996873 259.81395 
L 338.13334 260.971616 
L 338.269807 260.368633 
L 338.406274 260.64166 
L 338.54274 260.439413 
L 338.815674 257.839272 
L 338.952141 258.339312 
L 339.225074 261.146068 
L 339.361541 259.379352 
L 339.634475 260.508548 
L 339.770942 259.175913 
L 339.907408 260.653555 
L 340.180342 260.727922 
L 340.316809 257.055162 
L 340.453276 261.080408 
L 340.589742 258.857826 
L 340.726209 259.706991 
L 340.862676 262.458362 
L 340.999143 260.733013 
L 341.13561 261.407322 
L 341.272077 259.054986 
L 341.408543 260.825376 
L 341.54501 260.943729 
L 341.817944 260.157423 
L 341.954411 260.693887 
L 342.227344 260.377436 
L 342.363811 258.182201 
L 342.500278 260.74843 
L 342.636745 259.416287 
L 342.773211 260.708374 
L 342.909678 260.793494 
L 343.046145 261.692305 
L 343.182612 258.695347 
L 343.319079 258.733031 
L 343.592012 260.173665 
L 343.728479 258.928357 
L 344.13788 260.265615 
L 344.274346 259.880849 
L 344.54728 257.551995 
L 344.95668 260.417803 
L 345.093147 258.407575 
L 345.229614 259.920703 
L 345.366081 259.397469 
L 345.502548 259.440887 
L 345.639015 259.897541 
L 345.775481 259.7942 
L 345.911948 257.83213 
L 346.048415 261.917708 
L 346.184882 258.978933 
L 346.321349 260.526729 
L 346.594282 260.525943 
L 346.730749 261.72779 
L 346.867216 259.633685 
L 347.003683 261.931334 
L 347.276616 257.971746 
L 347.413083 260.185276 
L 347.54955 256.759595 
L 347.822484 260.441116 
L 347.95895 259.776218 
L 348.095417 258.212103 
L 348.231884 260.329125 
L 348.368351 258.846266 
L 348.641284 261.464338 
L 348.777751 261.208101 
L 348.914218 260.511348 
L 349.050685 257.963366 
L 349.187152 261.778666 
L 349.323618 260.445599 
L 349.460085 261.700209 
L 349.869486 258.984452 
L 350.005953 260.323663 
L 350.142419 259.832493 
L 350.278886 261.378733 
L 350.415353 260.013217 
L 350.55182 260.611108 
L 350.688287 260.124517 
L 350.824753 260.253588 
L 350.96122 259.836969 
L 351.097687 262.255917 
L 351.234154 261.682444 
L 351.507087 259.721117 
L 351.916488 261.420719 
L 352.189422 258.389663 
L 352.325888 261.710669 
L 352.462355 259.683491 
L 352.598822 261.207465 
L 352.871756 260.1388 
L 353.008222 261.749748 
L 353.144689 259.118618 
L 353.281156 260.244984 
L 353.417623 259.397089 
L 353.690556 259.960983 
L 353.827023 261.595483 
L 353.96349 258.876785 
L 354.099957 259.683247 
L 354.236424 261.511786 
L 354.37289 258.748469 
L 354.509357 261.348418 
L 354.645824 261.017304 
L 354.782291 261.911831 
L 354.918758 258.609766 
L 355.055225 261.338906 
L 355.191691 261.64453 
L 355.328158 260.064919 
L 355.464625 261.618239 
L 355.601092 258.165462 
L 355.737559 260.175615 
L 356.010492 259.872947 
L 356.146959 257.639167 
L 356.283426 259.139785 
L 356.419893 259.075154 
L 356.556359 259.53634 
L 356.692826 261.152902 
L 356.829293 258.095518 
L 357.102227 260.27208 
L 357.37516 260.608154 
L 357.511627 258.063465 
L 357.648094 260.282486 
L 357.784561 260.187082 
L 357.921028 258.486708 
L 358.057494 260.402419 
L 358.193961 258.722975 
L 358.330428 261.110956 
L 358.466895 261.149466 
L 358.603362 260.162753 
L 358.739828 260.300345 
L 358.876295 259.352509 
L 359.012762 259.705211 
L 359.149229 261.119942 
L 359.422163 260.522865 
L 359.695096 258.973392 
L 359.831563 261.230146 
L 359.96803 258.672775 
L 360.104497 258.339898 
L 360.513897 259.736104 
L 360.650364 258.807525 
L 360.786831 261.235924 
L 360.923297 256.116586 
L 361.059764 261.456109 
L 361.196231 261.550541 
L 361.332698 262.302549 
L 361.469165 260.894698 
L 361.605632 263.349562 
L 361.742098 260.214931 
L 361.878565 261.064988 
L 362.015032 263.214754 
L 362.151499 260.242184 
L 362.287966 259.958182 
L 362.424432 260.543378 
L 362.560899 259.808949 
L 362.697366 260.068016 
L 362.833833 258.100836 
L 363.106766 260.49597 
L 363.243233 260.744259 
L 363.3797 261.819329 
L 363.652634 258.848023 
L 363.789101 258.85835 
L 363.925567 261.368391 
L 364.062034 258.485115 
L 364.334968 261.965338 
L 364.471435 260.924209 
L 364.607901 256.88124 
L 364.744368 261.3477 
L 364.880835 259.495845 
L 365.153769 259.117325 
L 365.290235 261.352847 
L 365.563169 258.789575 
L 365.97257 261.854852 
L 366.109036 259.971754 
L 366.245503 263.975287 
L 366.518437 259.819071 
L 366.654904 261.748417 
L 366.79137 259.345953 
L 366.927837 260.557517 
L 367.064304 256.788353 
L 367.337238 261.005292 
L 367.473704 259.611573 
L 367.610171 259.88024 
L 367.746638 259.652699 
L 367.883105 258.322745 
L 368.156038 261.641786 
L 368.292505 261.214761 
L 368.428972 259.793477 
L 368.565439 260.998239 
L 368.701906 257.318564 
L 368.838373 260.2393 
L 368.974839 257.918805 
L 369.247773 260.790187 
L 369.38424 260.76738 
L 369.520707 261.263266 
L 369.657173 258.208925 
L 369.79364 259.721073 
L 369.930107 259.82565 
L 370.066574 262.202258 
L 370.475974 258.319433 
L 370.612441 260.675857 
L 370.748908 259.111009 
L 370.885375 260.772904 
L 371.021842 257.578703 
L 371.158308 258.837414 
L 371.294775 258.899592 
L 371.431242 261.375461 
L 371.567709 259.463131 
L 371.704176 261.392152 
L 371.840642 259.244442 
L 371.977109 260.648038 
L 372.113576 259.205555 
L 372.38651 260.785102 
L 372.522976 258.293582 
L 372.659443 258.152279 
L 372.79591 260.362169 
L 372.932377 260.440295 
L 373.068844 261.367232 
L 373.205311 260.086464 
L 373.341777 262.199504 
L 373.614711 258.654496 
L 373.751178 261.162544 
L 373.887645 257.604662 
L 374.297045 262.917176 
L 374.433512 262.63701 
L 374.842912 257.227546 
L 374.979379 257.93634 
L 375.115846 260.185422 
L 375.38878 258.175293 
L 375.525246 257.795216 
L 375.79818 261.37465 
L 376.20758 257.609904 
L 376.616981 261.894319 
L 377.026381 257.213784 
L 377.299315 260.025812 
L 377.435782 258.95486 
L 377.572249 260.395401 
L 377.845182 258.062826 
L 377.981649 256.980883 
L 378.118116 258.735965 
L 378.254583 258.735231 
L 378.527516 260.789448 
L 378.663983 259.694557 
L 378.80045 261.419591 
L 378.936917 260.844547 
L 379.073383 257.802995 
L 379.20985 258.872328 
L 379.346317 258.446703 
L 379.482784 259.931993 
L 379.619251 259.408132 
L 379.755717 260.661178 
L 379.892184 260.422383 
L 380.028651 258.429153 
L 380.165118 262.113487 
L 380.438052 258.483076 
L 380.574518 260.321448 
L 380.710985 258.514127 
L 380.847452 259.216495 
L 380.983919 260.698728 
L 381.120386 260.598733 
L 381.256852 260.183062 
L 381.393319 260.594519 
L 381.529786 259.835676 
L 381.666253 260.160849 
L 381.80272 258.229875 
L 381.939186 259.48105 
L 382.075653 258.900032 
L 382.21212 260.754138 
L 382.348587 258.499954 
L 382.485054 260.517659 
L 382.621521 260.398024 
L 382.757987 261.006576 
L 382.894454 259.854666 
L 383.030921 262.085107 
L 383.167388 260.406365 
L 383.303855 260.432654 
L 383.576788 259.81536 
L 383.713255 258.228152 
L 383.849722 261.080306 
L 383.986189 258.771728 
L 384.122655 260.220636 
L 384.259122 260.437841 
L 384.395589 258.9952 
L 384.532056 259.494658 
L 384.668523 261.016537 
L 384.668523 261.016537 
" style="fill:none;stroke:#1f77b4;stroke-linecap:square;stroke-width:0.5;"/>
   </g>
   <g id="patch_3">
    <path d="M 43.78125 288.430125 
L 43.78125 22.318125 
" style="fill:none;stroke:#000000;stroke-linecap:square;stroke-linejoin:miter;stroke-width:0.8;"/>
   </g>
   <g id="patch_4">
    <path d="M 400.90125 288.430125 
L 400.90125 22.318125 
" style="fill:none;stroke:#000000;stroke-linecap:square;stroke-linejoin:miter;stroke-width:0.8;"/>
   </g>
   <g id="patch_5">
    <path d="M 43.78125 288.430125 
L 400.90125 288.430125 
" style="fill:none;stroke:#000000;stroke-linecap:square;stroke-linejoin:miter;stroke-width:0.8;"/>
   </g>
   <g id="patch_6">
    <path d="M 43.78125 22.318125 
L 400.90125 22.318125 
" style="fill:none;stroke:#000000;stroke-linecap:square;stroke-linejoin:miter;stroke-width:0.8;"/>
   </g>
   <g id="text_14">
    <!-- Undiscounted return obtained -->
    <defs>
     <path d="M 8.6875 72.90625 
L 18.609375 72.90625 
L 18.609375 28.609375 
Q 18.609375 16.890625 22.84375 11.734375 
Q 27.09375 6.59375 36.625 6.59375 
Q 46.09375 6.59375 50.34375 11.734375 
Q 54.59375 16.890625 54.59375 28.609375 
L 54.59375 72.90625 
L 64.5 72.90625 
L 64.5 27.390625 
Q 64.5 13.140625 57.4375 5.859375 
Q 50.390625 -1.421875 36.625 -1.421875 
Q 22.796875 -1.421875 15.734375 5.859375 
Q 8.6875 13.140625 8.6875 27.390625 
z
" id="DejaVuSans-55"/>
     <path d="M 48.6875 27.296875 
Q 48.6875 37.203125 44.609375 42.84375 
Q 40.53125 48.484375 33.40625 48.484375 
Q 26.265625 48.484375 22.1875 42.84375 
Q 18.109375 37.203125 18.109375 27.296875 
Q 18.109375 17.390625 22.1875 11.75 
Q 26.265625 6.109375 33.40625 6.109375 
Q 40.53125 6.109375 44.609375 11.75 
Q 48.6875 17.390625 48.6875 27.296875 
z
M 18.109375 46.390625 
Q 20.953125 51.265625 25.265625 53.625 
Q 29.59375 56 35.59375 56 
Q 45.5625 56 51.78125 48.09375 
Q 58.015625 40.1875 58.015625 27.296875 
Q 58.015625 14.40625 51.78125 6.484375 
Q 45.5625 -1.421875 35.59375 -1.421875 
Q 29.59375 -1.421875 25.265625 0.953125 
Q 20.953125 3.328125 18.109375 8.203125 
L 18.109375 0 
L 9.078125 0 
L 9.078125 75.984375 
L 18.109375 75.984375 
z
" id="DejaVuSans-62"/>
     <path d="M 34.28125 27.484375 
Q 23.390625 27.484375 19.1875 25 
Q 14.984375 22.515625 14.984375 16.5 
Q 14.984375 11.71875 18.140625 8.90625 
Q 21.296875 6.109375 26.703125 6.109375 
Q 34.1875 6.109375 38.703125 11.40625 
Q 43.21875 16.703125 43.21875 25.484375 
L 43.21875 27.484375 
z
M 52.203125 31.203125 
L 52.203125 0 
L 43.21875 0 
L 43.21875 8.296875 
Q 40.140625 3.328125 35.546875 0.953125 
Q 30.953125 -1.421875 24.3125 -1.421875 
Q 15.921875 -1.421875 10.953125 3.296875 
Q 6 8.015625 6 15.921875 
Q 6 25.140625 12.171875 29.828125 
Q 18.359375 34.515625 30.609375 34.515625 
L 43.21875 34.515625 
L 43.21875 35.40625 
Q 43.21875 41.609375 39.140625 45 
Q 35.0625 48.390625 27.6875 48.390625 
Q 23 48.390625 18.546875 47.265625 
Q 14.109375 46.140625 10.015625 43.890625 
L 10.015625 52.203125 
Q 14.9375 54.109375 19.578125 55.046875 
Q 24.21875 56 28.609375 56 
Q 40.484375 56 46.34375 49.84375 
Q 52.203125 43.703125 52.203125 31.203125 
z
" id="DejaVuSans-61"/>
    </defs>
    <g transform="translate(132.244687 16.318125)scale(0.12 -0.12)">
     <use xlink:href="#DejaVuSans-55"/>
     <use x="73.193359" xlink:href="#DejaVuSans-6e"/>
     <use x="136.572266" xlink:href="#DejaVuSans-64"/>
     <use x="200.048828" xlink:href="#DejaVuSans-69"/>
     <use x="227.832031" xlink:href="#DejaVuSans-73"/>
     <use x="279.931641" xlink:href="#DejaVuSans-63"/>
     <use x="334.912109" xlink:href="#DejaVuSans-6f"/>
     <use x="396.09375" xlink:href="#DejaVuSans-75"/>
     <use x="459.472656" xlink:href="#DejaVuSans-6e"/>
     <use x="522.851562" xlink:href="#DejaVuSans-74"/>
     <use x="562.060547" xlink:href="#DejaVuSans-65"/>
     <use x="623.583984" xlink:href="#DejaVuSans-64"/>
     <use x="687.060547" xlink:href="#DejaVuSans-20"/>
     <use x="718.847656" xlink:href="#DejaVuSans-72"/>
     <use x="759.929688" xlink:href="#DejaVuSans-65"/>
     <use x="821.453125" xlink:href="#DejaVuSans-74"/>
     <use x="860.662109" xlink:href="#DejaVuSans-75"/>
     <use x="924.041016" xlink:href="#DejaVuSans-72"/>
     <use x="965.138672" xlink:href="#DejaVuSans-6e"/>
     <use x="1028.517578" xlink:href="#DejaVuSans-20"/>
     <use x="1060.304688" xlink:href="#DejaVuSans-6f"/>
     <use x="1121.486328" xlink:href="#DejaVuSans-62"/>
     <use x="1184.962891" xlink:href="#DejaVuSans-74"/>
     <use x="1224.171875" xlink:href="#DejaVuSans-61"/>
     <use x="1285.451172" xlink:href="#DejaVuSans-69"/>
     <use x="1313.234375" xlink:href="#DejaVuSans-6e"/>
     <use x="1376.613281" xlink:href="#DejaVuSans-65"/>
     <use x="1438.136719" xlink:href="#DejaVuSans-64"/>
    </g>
   </g>
  </g>
 </g>
 <defs>
  <clipPath id="p2121d8b1c2">
   <rect height="266.112" width="357.12" x="43.78125" y="22.318125"/>
  </clipPath>
 </defs>
</svg>
