<?xml version="1.0" encoding="utf-8" standalone="no"?>
<!DOCTYPE svg PUBLIC "-//W3C//DTD SVG 1.1//EN"
  "http://www.w3.org/Graphics/SVG/1.1/DTD/svg11.dtd">
<!-- Created with matplotlib (http://matplotlib.org/) -->
<svg height="408pt" version="1.1" viewBox="0 0 508 408" width="508pt" xmlns="http://www.w3.org/2000/svg" xmlns:xlink="http://www.w3.org/1999/xlink">
 <defs>
  <style type="text/css">
*{stroke-linecap:butt;stroke-linejoin:round;stroke-miterlimit:100000;}
  </style>
 </defs>
 <g id="figure_1">
  <g id="patch_1">
   <path d="M 0 408.16925 
L 508.13625 408.16925 
L 508.13625 0 
L 0 0 
z
" style="fill:#ffffff;"/>
  </g>
  <g id="axes_1">
   <g id="patch_2">
    <path d="M 43.08375 368.74175 
L 489.48375 368.74175 
L 489.48375 23.14175 
L 43.08375 23.14175 
z
" style="fill:#ffffff;"/>
   </g>
   <g id="line2d_1">
    <path clip-path="url(#pb1d31fb1e5)" d="M 43.08375 232.072282 
L 43.57975 239.583308 
L 44.07575 324.255986 
L 44.57175 284.632482 
L 45.06775 273.305023 
L 45.56375 257.992258 
L 46.05975 331.316648 
L 46.55575 313.322441 
L 47.05175 235.39362 
L 47.54775 231.80628 
L 48.04375 299.82024 
L 48.53975 265.674628 
L 49.03575 182.670402 
L 49.53175 327.108834 
L 50.02775 171.451899 
L 50.52375 262.976384 
L 51.01975 296.470667 
L 51.51575 289.276372 
L 52.01175 202.346726 
L 52.50775 298.660526 
L 53.00375 254.010199 
L 53.49975 300.019619 
L 53.99575 329.912379 
L 54.49175 197.269319 
L 54.98775 224.594547 
L 55.48375 280.627397 
L 55.97975 261.029772 
L 56.47575 288.085623 
L 56.97175 235.64013 
L 57.46775 291.005979 
L 57.96375 279.88428 
L 58.45975 294.057333 
L 58.95575 267.582565 
L 59.45175 256.087588 
L 59.94775 255.19688 
L 60.93975 313.089643 
L 61.43575 259.073942 
L 61.93175 253.957387 
L 62.42775 302.864121 
L 62.92375 265.948437 
L 63.91575 122.400152 
L 64.41175 264.625221 
L 64.90775 278.826268 
L 65.40375 254.413675 
L 65.89975 311.508064 
L 66.39575 247.708747 
L 66.89175 295.22302 
L 67.38775 284.622132 
L 67.88375 291.226983 
L 68.37975 293.26115 
L 69.37175 341.765672 
L 69.86775 292.123632 
L 70.36375 230.116712 
L 70.85975 283.599407 
L 71.35575 236.720094 
L 71.85175 299.311207 
L 72.34775 292.752656 
L 72.84375 316.597114 
L 73.33975 269.513958 
L 73.83575 133.765965 
L 74.33175 255.835687 
L 74.82775 301.882174 
L 75.32375 256.762425 
L 75.81975 236.065632 
L 76.31575 305.021901 
L 76.81175 205.893221 
L 77.30775 295.671861 
L 77.80375 215.887488 
L 78.29975 271.262805 
L 78.79575 287.962613 
L 79.29175 267.418264 
L 79.78775 278.220104 
L 80.28375 157.329679 
L 80.77975 170.090457 
L 81.27575 164.108181 
L 81.77175 250.094953 
L 82.26775 231.694033 
L 82.76375 309.593785 
L 83.25975 299.858814 
L 83.75575 315.836586 
L 84.25175 279.85883 
L 84.74775 285.708326 
L 85.24375 264.477348 
L 85.73975 236.775607 
L 86.23575 295.241009 
L 86.73175 262.167386 
L 87.22775 256.763423 
L 87.72375 255.989153 
L 88.21975 212.191838 
L 89.21175 266.927906 
L 89.70775 260.93248 
L 90.20375 301.551837 
L 90.69975 287.741534 
L 91.19575 250.532332 
L 91.69175 313.967676 
L 92.18775 289.509947 
L 92.68375 217.584159 
L 93.17975 288.912734 
L 93.67575 211.916799 
L 94.17175 228.817398 
L 94.66775 214.925153 
L 95.16375 231.263579 
L 95.65975 230.120888 
L 96.15575 228.292074 
L 96.65175 218.032251 
L 97.14775 215.151987 
L 97.64375 216.783657 
L 98.13975 228.491595 
L 98.63575 223.28637 
L 99.13175 238.195446 
L 99.62775 220.387458 
L 100.12375 220.652548 
L 100.61975 227.991717 
L 101.11575 226.355925 
L 101.61175 219.962328 
L 102.10775 232.281798 
L 102.60375 226.070149 
L 103.09975 226.990163 
L 103.59575 230.356309 
L 104.09175 225.78015 
L 104.58775 228.490055 
L 105.08375 235.337206 
L 105.57975 233.188504 
L 106.07575 227.991316 
L 106.57175 239.642541 
L 107.06775 209.170496 
L 107.56375 234.533894 
L 108.05975 230.764513 
L 108.55575 238.456929 
L 109.05175 169.959481 
L 109.54775 151.369543 
L 110.04375 215.709793 
L 110.53975 222.667711 
L 111.03575 147.534585 
L 111.53175 155.748014 
L 112.02775 169.196121 
L 112.52375 152.905707 
L 113.01975 182.460979 
L 113.51575 160.108909 
L 114.01175 213.893123 
L 114.50775 162.052955 
L 115.00375 152.064434 
L 115.49975 137.370637 
L 115.99575 135.220621 
L 116.98775 236.954196 
L 117.48375 195.012278 
L 117.97975 123.618593 
L 118.47575 159.978911 
L 118.97175 167.466948 
L 119.46775 224.335148 
L 119.96375 153.584264 
L 120.45975 231.102391 
L 120.95575 143.675214 
L 121.45175 168.415021 
L 121.94775 184.032668 
L 122.44375 186.74847 
L 122.93975 161.561112 
L 123.43575 241.877959 
L 123.93175 140.422235 
L 124.42775 190.047565 
L 124.92375 194.474994 
L 125.41975 177.119902 
L 125.91575 187.317671 
L 126.41175 224.273522 
L 127.40375 168.7928 
L 127.89975 180.958776 
L 128.39575 210.908183 
L 128.89175 222.707681 
L 129.38775 202.562792 
L 129.88375 208.699319 
L 130.37975 248.055037 
L 130.87575 239.800395 
L 131.37175 195.379803 
L 131.86775 182.560894 
L 132.36375 222.816388 
L 132.85975 178.439339 
L 133.35575 178.052169 
L 133.85175 168.781412 
L 134.34775 224.594222 
L 134.84375 157.106958 
L 135.33975 209.563411 
L 135.83575 220.241146 
L 136.33175 155.961289 
L 136.82775 229.284146 
L 137.32375 164.780082 
L 137.81975 224.956752 
L 138.31575 220.831533 
L 138.81175 202.553698 
L 139.30775 175.266096 
L 139.80375 141.54765 
L 140.29975 179.483571 
L 140.79575 184.93685 
L 141.29175 201.641532 
L 141.78775 205.383761 
L 142.28375 166.629309 
L 142.77975 168.424888 
L 143.27575 182.22857 
L 143.77175 232.482201 
L 144.26775 188.494137 
L 144.76375 169.748434 
L 145.25975 189.90373 
L 145.75575 186.943195 
L 146.25175 185.519874 
L 146.74775 213.04955 
L 147.24375 171.951074 
L 147.73975 239.215096 
L 148.23575 160.679325 
L 148.73175 119.357196 
L 149.72375 255.912055 
L 150.21975 192.148062 
L 150.71575 171.827373 
L 151.21175 164.287132 
L 151.70775 215.06777 
L 152.20375 163.287799 
L 152.69975 189.333599 
L 153.19575 196.470894 
L 153.69175 253.372697 
L 154.18775 176.979881 
L 154.68375 170.745361 
L 155.67575 129.971965 
L 156.17175 193.527194 
L 156.66775 183.584329 
L 157.16375 194.758415 
L 157.65975 200.785656 
L 158.15575 218.775007 
L 158.65175 86.168453 
L 159.14775 174.166724 
L 159.64375 163.021022 
L 160.13975 221.896435 
L 160.63575 183.223994 
L 161.13175 205.447283 
L 161.62775 181.324692 
L 162.12375 207.585425 
L 162.61975 182.619847 
L 163.11575 197.336994 
L 163.61175 173.689202 
L 164.10775 216.395277 
L 164.60375 174.515238 
L 165.09975 182.949956 
L 165.59575 188.353585 
L 166.09175 176.476441 
L 166.58775 117.021274 
L 167.08375 202.601561 
L 167.57975 184.910915 
L 168.07575 219.568101 
L 168.57175 215.092704 
L 169.56375 190.415689 
L 170.05975 206.582009 
L 170.55575 194.740709 
L 171.05175 206.944454 
L 171.54775 225.477055 
L 172.04375 203.931256 
L 172.53975 209.123393 
L 173.03575 198.962932 
L 173.53175 203.453649 
L 174.02775 188.336307 
L 174.52375 212.936725 
L 175.01975 227.002346 
L 175.51575 127.579926 
L 176.01175 220.973199 
L 176.50775 215.482567 
L 177.00375 208.346147 
L 177.49975 146.605197 
L 177.99575 227.238447 
L 178.49175 233.74384 
L 179.48375 202.442867 
L 179.97975 252.526977 
L 180.47575 220.597864 
L 180.97175 214.713993 
L 181.46775 234.86961 
L 181.96375 234.130066 
L 182.45975 224.84662 
L 182.95575 232.761571 
L 183.45175 232.843715 
L 183.94775 227.191781 
L 184.44375 103.61471 
L 184.93975 216.947762 
L 185.43575 223.052989 
L 185.93175 225.266624 
L 186.42775 231.115402 
L 186.92375 241.562337 
L 187.41975 246.662377 
L 187.91575 196.052003 
L 188.41175 130.160015 
L 188.90775 219.447144 
L 189.40375 154.244426 
L 189.89975 213.534726 
L 190.39575 241.861873 
L 190.89175 225.971006 
L 191.38775 227.311557 
L 191.88375 182.384644 
L 192.37975 179.286628 
L 192.87575 183.863102 
L 193.37175 230.546046 
L 193.86775 204.209296 
L 194.36375 244.525547 
L 194.85975 239.358363 
L 195.35575 237.885449 
L 195.85175 164.914897 
L 196.34775 225.783561 
L 196.84375 217.208507 
L 197.33975 237.12147 
L 197.83575 213.697674 
L 198.33175 223.541423 
L 198.82775 206.74804 
L 199.32375 231.604006 
L 199.81975 196.869024 
L 200.31575 237.406343 
L 200.81175 231.141336 
L 201.30775 220.051926 
L 201.80375 214.958921 
L 202.29975 186.089144 
L 202.79575 185.703906 
L 203.29175 237.842208 
L 203.78775 230.944209 
L 204.28375 216.515255 
L 204.77975 213.148131 
L 205.27575 220.241837 
L 205.77175 225.074694 
L 206.26775 220.899497 
L 206.76375 252.180133 
L 207.75575 228.091244 
L 208.25175 230.1603 
L 208.74775 226.558681 
L 209.24375 230.399029 
L 209.73975 237.529943 
L 210.23575 192.164966 
L 210.73175 234.349514 
L 211.22775 229.919024 
L 211.72375 227.601505 
L 212.21975 223.322326 
L 212.71575 241.12068 
L 213.21175 242.722196 
L 213.70775 228.350225 
L 214.20375 182.274784 
L 214.69975 251.24127 
L 215.19575 233.11333 
L 215.69175 181.253524 
L 216.18775 223.451692 
L 216.68375 207.377209 
L 217.17975 237.172672 
L 217.67575 201.981029 
L 218.17175 226.937613 
L 218.66775 226.071353 
L 219.16375 232.821113 
L 219.65975 186.195761 
L 220.15575 201.745664 
L 220.65175 247.057507 
L 221.14775 230.962444 
L 221.64375 186.548467 
L 222.13975 249.673312 
L 222.63575 246.819062 
L 223.13175 248.671727 
L 223.62775 226.403744 
L 224.12375 253.745824 
L 224.61975 218.19098 
L 225.11575 243.328336 
L 225.61175 234.869414 
L 226.10775 234.261394 
L 226.60375 241.732884 
L 227.09975 212.134662 
L 227.59575 214.593333 
L 228.09175 229.17367 
L 228.58775 239.367338 
L 229.08375 138.301968 
L 229.57975 229.570235 
L 230.07575 262.07787 
L 230.57175 244.649167 
L 231.06775 219.197831 
L 231.56375 242.903877 
L 232.05975 217.716682 
L 232.55575 239.467689 
L 233.05175 231.47127 
L 234.04375 227.048016 
L 234.53975 213.822218 
L 235.03575 234.268817 
L 235.53175 221.52974 
L 236.02775 199.873828 
L 236.52375 236.414466 
L 237.01975 242.12871 
L 237.51575 211.739862 
L 238.01175 231.005599 
L 238.50775 239.97706 
L 239.00375 232.191009 
L 239.49975 229.585726 
L 239.99575 236.621538 
L 240.49175 260.837806 
L 240.98775 235.16001 
L 241.48375 240.812796 
L 241.97975 247.776026 
L 242.47575 215.545238 
L 242.97175 223.368606 
L 243.46775 205.923218 
L 244.45975 243.623355 
L 244.95575 247.985664 
L 245.45175 238.368356 
L 245.94775 245.179435 
L 246.44375 210.048437 
L 246.93975 255.810984 
L 247.43575 246.343721 
L 247.93175 221.842276 
L 248.42775 236.041088 
L 248.92375 238.61739 
L 249.41975 214.149028 
L 249.91575 235.845175 
L 250.41175 228.781756 
L 250.90775 237.073291 
L 251.40375 257.598987 
L 251.89975 244.513429 
L 252.39575 225.166158 
L 252.89175 243.177146 
L 253.38775 230.251875 
L 253.88375 241.746336 
L 254.37975 245.258837 
L 254.87575 219.632419 
L 255.37175 225.823587 
L 255.86775 250.221454 
L 256.36375 229.289149 
L 256.85975 224.490629 
L 257.35575 222.594783 
L 257.85175 191.988637 
L 258.34775 233.276943 
L 258.84375 218.611669 
L 259.33975 214.340421 
L 259.83575 242.483297 
L 260.33175 221.734069 
L 260.82775 216.813157 
L 261.32375 199.869401 
L 261.81975 215.407252 
L 262.31575 242.388942 
L 262.81175 201.86903 
L 263.30775 225.650632 
L 263.80375 234.031792 
L 264.29975 244.567371 
L 264.79575 221.777137 
L 265.29175 229.058608 
L 265.78775 209.279012 
L 266.28375 211.872045 
L 266.77975 222.114276 
L 267.27575 207.143465 
L 267.77175 234.400947 
L 268.76375 176.072902 
L 269.25975 218.197371 
L 269.75575 275.113843 
L 270.25175 199.001946 
L 270.74775 211.34013 
L 271.24375 199.919738 
L 271.73975 237.930627 
L 272.23575 185.973594 
L 272.73175 212.916709 
L 273.22775 204.037304 
L 273.72375 181.703475 
L 274.21975 229.510689 
L 274.71575 224.288823 
L 275.21175 234.803699 
L 275.70775 208.838549 
L 276.20375 225.590998 
L 276.69975 182.693286 
L 277.19575 212.460018 
L 277.69175 225.171469 
L 278.18775 222.215547 
L 278.68375 217.032508 
L 279.17975 243.851748 
L 279.67575 236.186353 
L 280.17175 226.737024 
L 280.66775 225.201052 
L 281.16375 225.324785 
L 282.15575 234.906624 
L 282.65175 226.91568 
L 283.14775 223.629055 
L 283.64375 241.541741 
L 284.13975 229.257206 
L 284.63575 231.005824 
L 285.13175 229.752943 
L 285.62775 227.303112 
L 286.12375 237.037288 
L 286.61975 229.725912 
L 287.11575 236.225179 
L 287.61175 236.009836 
L 288.10775 225.828556 
L 288.60375 237.825348 
L 289.09975 231.20109 
L 289.59575 228.456225 
L 290.09175 235.956337 
L 290.58775 240.594084 
L 291.08375 249.596106 
L 292.07575 234.963425 
L 292.57175 240.149508 
L 293.06775 185.901979 
L 293.56375 246.422694 
L 294.05975 237.397176 
L 294.55575 245.583571 
L 295.05175 184.671024 
L 295.54775 237.382116 
L 296.04375 259.589997 
L 296.53975 214.140019 
L 297.03575 236.045704 
L 297.53175 215.737053 
L 298.02775 236.268575 
L 298.52375 249.512539 
L 299.01975 228.24368 
L 299.51575 220.302152 
L 300.01175 139.718594 
L 300.50775 153.826283 
L 301.00375 131.988889 
L 301.49975 255.170764 
L 301.99575 244.136094 
L 302.49175 236.41149 
L 302.98775 246.615718 
L 303.48375 198.46319 
L 303.97975 215.88472 
L 304.47575 201.490983 
L 304.97175 253.215349 
L 305.46775 154.219529 
L 305.96375 246.034865 
L 306.45975 150.497372 
L 306.95575 260.362895 
L 307.45175 165.748018 
L 307.94775 160.590344 
L 308.44375 239.154618 
L 308.93975 214.466165 
L 309.43575 126.183392 
L 309.93175 240.351274 
L 310.42775 259.034382 
L 310.92375 246.49913 
L 311.41975 250.502263 
L 311.91575 222.555055 
L 312.41175 255.237304 
L 312.90775 212.850536 
L 313.40375 272.616172 
L 313.89975 166.77839 
L 314.39575 185.779157 
L 314.89175 224.149676 
L 315.38775 252.242791 
L 315.88375 152.856203 
L 316.37975 215.322322 
L 316.87575 242.005622 
L 317.37175 165.731822 
L 317.86775 255.697491 
L 318.36375 158.793582 
L 318.85975 229.634822 
L 319.35575 138.239843 
L 319.85175 134.945206 
L 320.34775 138.95201 
L 320.84375 238.495189 
L 321.33975 252.855085 
L 321.83575 234.059264 
L 322.33175 223.590067 
L 322.82775 349.227917 
L 323.32375 185.865439 
L 323.81975 156.645463 
L 324.31575 239.225354 
L 324.81175 238.308153 
L 325.30775 187.199928 
L 325.80375 240.742433 
L 326.29975 263.794442 
L 326.79575 239.876323 
L 327.29175 144.940828 
L 327.78775 211.44486 
L 328.28375 223.588899 
L 328.77975 157.923521 
L 329.27575 127.078443 
L 329.77175 149.721185 
L 330.26775 271.200448 
L 330.76375 152.080604 
L 331.25975 263.348368 
L 331.75575 145.731069 
L 332.25175 140.459249 
L 332.74775 249.966117 
L 333.24375 241.316109 
L 333.73975 194.063068 
L 334.23575 130.951208 
L 334.73175 280.920213 
L 335.22775 120.306862 
L 335.72375 139.588644 
L 336.21975 209.420089 
L 336.71575 262.67086 
L 337.21175 145.987567 
L 337.70775 276.324562 
L 338.20375 229.979251 
L 338.69975 205.081502 
L 339.19575 214.48328 
L 339.69175 196.108829 
L 340.18775 224.893734 
L 340.68375 234.760744 
L 341.17975 126.114715 
L 341.67575 161.358117 
L 342.17175 247.185263 
L 342.66775 296.056197 
L 343.16375 250.945049 
L 343.65975 271.159111 
L 344.15575 255.138334 
L 344.65175 141.245577 
L 345.64375 239.478559 
L 346.13975 256.643922 
L 346.63575 244.486325 
L 347.13175 238.808514 
L 347.62775 271.981203 
L 348.12375 232.567413 
L 348.61975 146.521121 
L 349.11575 154.791773 
L 349.61175 236.658829 
L 350.10775 189.849797 
L 350.60375 189.454555 
L 351.09975 158.004522 
L 351.59575 245.555295 
L 352.58775 197.828794 
L 353.08375 186.025982 
L 353.57975 196.773399 
L 354.07575 189.519697 
L 354.57175 269.207783 
L 355.06775 237.599259 
L 355.56375 195.283418 
L 356.05975 217.281204 
L 356.55575 258.829439 
L 357.05175 240.738143 
L 357.54775 155.551572 
L 358.04375 186.36037 
L 358.53975 145.872205 
L 359.53175 248.533985 
L 360.02775 218.431545 
L 360.52375 242.218369 
L 361.01975 218.125169 
L 361.51575 177.530294 
L 362.01175 211.411434 
L 362.50775 274.667522 
L 363.00375 152.377955 
L 363.49975 147.26318 
L 363.99575 197.520741 
L 364.49175 145.933988 
L 364.98775 135.359648 
L 365.48375 169.66305 
L 365.97975 236.443655 
L 366.47575 208.69237 
L 366.97175 160.872305 
L 367.46775 165.180402 
L 367.96375 229.563828 
L 368.45975 179.911271 
L 368.95575 156.871158 
L 369.45175 289.810821 
L 369.94775 243.896122 
L 370.44375 241.288357 
L 370.93975 293.344093 
L 371.43575 275.631341 
L 371.93175 241.600702 
L 372.42775 153.543719 
L 372.92375 211.711439 
L 373.41975 297.444345 
L 373.91575 190.086155 
L 374.41175 159.499095 
L 374.90775 264.645004 
L 375.40375 196.094436 
L 375.89975 241.67842 
L 376.39575 194.280932 
L 376.89175 243.018966 
L 377.38775 148.337447 
L 377.88375 193.554927 
L 378.37975 173.836345 
L 378.87575 247.963881 
L 379.37175 247.323266 
L 379.86775 209.652377 
L 380.36375 215.489841 
L 380.85975 252.902783 
L 381.35575 218.030546 
L 381.85175 231.794108 
L 382.34775 191.087966 
L 382.84375 212.772105 
L 383.33975 247.433641 
L 383.83575 142.750868 
L 384.33175 130.332104 
L 384.82775 189.334838 
L 385.32375 274.872909 
L 385.81975 188.234728 
L 386.31575 248.550222 
L 386.81175 269.909005 
L 387.30775 204.808357 
L 387.80375 235.817957 
L 388.29975 219.610888 
L 388.79575 356.983434 
L 389.29175 248.708574 
L 389.78775 242.047586 
L 390.28375 225.873824 
L 390.77975 251.066276 
L 391.27575 252.638879 
L 391.77175 217.605576 
L 392.26775 192.514708 
L 392.76375 211.243778 
L 393.25975 216.303423 
L 393.75575 237.43505 
L 394.25175 212.745211 
L 394.74775 211.367222 
L 395.24375 236.020057 
L 395.73975 224.31062 
L 396.23575 205.929522 
L 396.73175 284.579301 
L 397.22775 187.569907 
L 397.72375 218.34814 
L 398.21975 290.613649 
L 398.71575 145.457405 
L 399.21175 216.98793 
L 399.70775 247.510312 
L 400.69975 184.715464 
L 401.19575 214.098052 
L 401.69175 263.695866 
L 402.18775 192.274317 
L 402.68375 224.149546 
L 403.17975 214.54208 
L 403.67575 231.973152 
L 404.17175 315.208527 
L 404.66775 154.55861 
L 405.16375 221.02606 
L 405.65975 204.579075 
L 406.15575 263.131885 
L 406.65175 168.268547 
L 407.14775 348.967811 
L 407.64375 223.795873 
L 408.13975 205.332047 
L 408.63575 227.464964 
L 409.13175 195.401176 
L 409.62775 351.823772 
L 410.12375 228.372453 
L 410.61975 182.579837 
L 411.11575 243.577088 
L 411.61175 240.636876 
L 412.10775 209.024633 
L 412.60375 227.188773 
L 413.09975 239.403372 
L 413.59575 202.042154 
L 414.09175 242.174258 
L 414.58775 247.79607 
L 415.08375 230.792223 
L 415.57975 353.162248 
L 416.07575 148.497396 
L 416.57175 235.016878 
L 417.06775 241.929552 
L 417.56375 243.800182 
L 418.05975 154.47973 
L 418.55575 191.050249 
L 419.05175 169.185349 
L 419.54775 185.980092 
L 420.04375 212.112357 
L 420.53975 192.818439 
L 421.03575 239.083765 
L 421.53175 239.268066 
L 422.02775 223.339401 
L 422.52375 229.038039 
L 423.01975 264.872637 
L 423.51575 191.176206 
L 424.01175 176.302568 
L 424.50775 228.912913 
L 425.00375 138.434697 
L 425.99575 236.954647 
L 426.49175 235.115558 
L 426.98775 214.36494 
L 427.48375 244.1101 
L 427.97975 248.313926 
L 428.47575 173.006471 
L 428.97175 177.226041 
L 429.46775 246.281318 
L 429.96375 219.773459 
L 430.45975 169.233272 
L 430.95575 227.108044 
L 431.45175 194.652022 
L 431.94775 225.701551 
L 432.44375 193.309255 
L 432.93975 251.305508 
L 433.43575 195.885729 
L 433.93175 227.82217 
L 434.42775 215.775403 
L 434.92375 167.702046 
L 435.41975 223.808927 
L 435.91575 185.492086 
L 436.41175 206.199466 
L 436.90775 255.624408 
L 437.40375 205.262557 
L 437.89975 213.13486 
L 438.39575 195.59984 
L 438.89175 240.60336 
L 439.38775 189.751295 
L 439.88375 224.183465 
L 440.37975 227.036931 
L 440.87575 152.440789 
L 441.37175 206.041421 
L 441.86775 224.783774 
L 442.36375 350.628457 
L 442.85975 229.435093 
L 443.35575 200.437689 
L 443.85175 236.59501 
L 444.34775 195.355363 
L 444.84375 235.413552 
L 445.33975 238.777093 
L 445.83575 222.999607 
L 446.33175 184.912332 
L 446.82775 219.504692 
L 447.32375 232.816059 
L 447.81975 236.819538 
L 448.31575 188.017737 
L 448.81175 169.475279 
L 449.30775 270.222295 
L 449.80375 202.1696 
L 450.29975 191.665494 
L 450.79575 251.447282 
L 451.29175 238.94428 
L 451.78775 233.947364 
L 452.28375 210.658714 
L 452.77975 219.17786 
L 453.27575 231.521646 
L 453.77175 233.992536 
L 454.26775 164.079116 
L 454.76375 248.353403 
L 455.25975 218.663816 
L 455.75575 311.522414 
L 456.25175 231.781916 
L 456.74775 241.292885 
L 457.24375 256.216686 
L 457.73975 231.991574 
L 458.23575 226.448364 
L 458.73175 197.650133 
L 459.22775 350.209421 
L 459.72375 239.595059 
L 460.21975 223.436134 
L 460.71575 180.027607 
L 461.21175 243.97646 
L 461.70775 214.551399 
L 462.20375 231.955765 
L 462.69975 172.122959 
L 463.19575 230.818403 
L 463.69175 243.96647 
L 464.18775 246.876044 
L 464.68375 228.636659 
L 465.17975 253.52964 
L 465.67575 187.788636 
L 466.17175 268.626859 
L 466.66775 167.993798 
L 467.16375 170.740141 
L 467.65975 278.342952 
L 468.15575 217.75488 
L 468.65175 229.470212 
L 469.14775 213.555451 
L 469.64375 245.229076 
L 470.13975 212.344522 
L 470.63575 253.575468 
L 471.13175 230.662459 
L 471.62775 223.311071 
L 472.12375 225.580345 
L 472.61975 233.967874 
L 473.11575 233.611957 
L 473.61175 199.20629 
L 474.10775 219.256181 
L 474.60375 249.15752 
L 475.09975 254.047864 
L 475.59575 248.100441 
L 476.09175 234.487048 
L 476.58775 233.479241 
L 477.08375 250.931203 
L 478.07575 261.481429 
L 478.57175 215.269893 
L 479.06775 237.101241 
L 479.56375 268.05997 
L 480.05975 237.294066 
L 480.55575 214.141357 
L 481.54775 242.613283 
L 482.04375 246.677759 
L 482.53975 337.083111 
L 483.03575 231.751811 
L 483.53175 224.4512 
L 484.02775 237.171678 
L 484.52375 212.188414 
L 485.01975 237.106864 
L 485.51575 217.905735 
L 486.50775 247.102846 
L 487.00375 225.657268 
L 487.49975 222.725228 
L 487.99575 228.270647 
L 488.49175 257.73601 
L 488.98775 226.936756 
L 488.98775 226.936756 
" style="fill:none;stroke:#0000ff;stroke-linecap:square;stroke-width:0.5;"/>
   </g>
   <g id="patch_3">
    <path d="M 43.08375 23.14175 
L 489.48375 23.14175 
" style="fill:none;stroke:#000000;stroke-linecap:square;stroke-linejoin:miter;"/>
   </g>
   <g id="patch_4">
    <path d="M 43.08375 368.74175 
L 489.48375 368.74175 
" style="fill:none;stroke:#000000;stroke-linecap:square;stroke-linejoin:miter;"/>
   </g>
   <g id="patch_5">
    <path d="M 489.48375 368.74175 
L 489.48375 23.14175 
" style="fill:none;stroke:#000000;stroke-linecap:square;stroke-linejoin:miter;"/>
   </g>
   <g id="patch_6">
    <path d="M 43.08375 368.74175 
L 43.08375 23.14175 
" style="fill:none;stroke:#000000;stroke-linecap:square;stroke-linejoin:miter;"/>
   </g>
   <g id="matplotlib.axis_1">
    <g id="xtick_1">
     <g id="line2d_2">
      <defs>
       <path d="M 0 0 
L 0 -4 
" id="mae05c4cb88" style="stroke:#000000;stroke-width:0.5;"/>
      </defs>
      <g>
       <use style="stroke:#000000;stroke-width:0.5;" x="43.08375" xlink:href="#mae05c4cb88" y="368.74175"/>
      </g>
     </g>
     <g id="line2d_3">
      <defs>
       <path d="M 0 0 
L 0 4 
" id="m1456de7b07" style="stroke:#000000;stroke-width:0.5;"/>
      </defs>
      <g>
       <use style="stroke:#000000;stroke-width:0.5;" x="43.08375" xlink:href="#m1456de7b07" y="23.14175"/>
      </g>
     </g>
     <g id="text_1">
      <!-- 0 -->
      <defs>
       <path d="M 31.78125 66.40625 
Q 24.171875 66.40625 20.328125 58.90625 
Q 16.5 51.421875 16.5 36.375 
Q 16.5 21.390625 20.328125 13.890625 
Q 24.171875 6.390625 31.78125 6.390625 
Q 39.453125 6.390625 43.28125 13.890625 
Q 47.125 21.390625 47.125 36.375 
Q 47.125 51.421875 43.28125 58.90625 
Q 39.453125 66.40625 31.78125 66.40625 
M 31.78125 74.21875 
Q 44.046875 74.21875 50.515625 64.515625 
Q 56.984375 54.828125 56.984375 36.375 
Q 56.984375 17.96875 50.515625 8.265625 
Q 44.046875 -1.421875 31.78125 -1.421875 
Q 19.53125 -1.421875 13.0625 8.265625 
Q 6.59375 17.96875 6.59375 36.375 
Q 6.59375 54.828125 13.0625 64.515625 
Q 19.53125 74.21875 31.78125 74.21875 
" id="BitstreamVeraSans-Roman-30"/>
      </defs>
      <g transform="translate(39.26625 381.859875)scale(0.12 -0.12)">
       <use xlink:href="#BitstreamVeraSans-Roman-30"/>
      </g>
     </g>
    </g>
    <g id="xtick_2">
     <g id="line2d_4">
      <g>
       <use style="stroke:#000000;stroke-width:0.5;" x="92.68375" xlink:href="#mae05c4cb88" y="368.74175"/>
      </g>
     </g>
     <g id="line2d_5">
      <g>
       <use style="stroke:#000000;stroke-width:0.5;" x="92.68375" xlink:href="#m1456de7b07" y="23.14175"/>
      </g>
     </g>
     <g id="text_2">
      <!-- 100 -->
      <defs>
       <path d="M 12.40625 8.296875 
L 28.515625 8.296875 
L 28.515625 63.921875 
L 10.984375 60.40625 
L 10.984375 69.390625 
L 28.421875 72.90625 
L 38.28125 72.90625 
L 38.28125 8.296875 
L 54.390625 8.296875 
L 54.390625 0 
L 12.40625 0 
z
" id="BitstreamVeraSans-Roman-31"/>
      </defs>
      <g transform="translate(81.23125 381.859875)scale(0.12 -0.12)">
       <use xlink:href="#BitstreamVeraSans-Roman-31"/>
       <use x="63.623046875" xlink:href="#BitstreamVeraSans-Roman-30"/>
       <use x="127.24609375" xlink:href="#BitstreamVeraSans-Roman-30"/>
      </g>
     </g>
    </g>
    <g id="xtick_3">
     <g id="line2d_6">
      <g>
       <use style="stroke:#000000;stroke-width:0.5;" x="142.28375" xlink:href="#mae05c4cb88" y="368.74175"/>
      </g>
     </g>
     <g id="line2d_7">
      <g>
       <use style="stroke:#000000;stroke-width:0.5;" x="142.28375" xlink:href="#m1456de7b07" y="23.14175"/>
      </g>
     </g>
     <g id="text_3">
      <!-- 200 -->
      <defs>
       <path d="M 19.1875 8.296875 
L 53.609375 8.296875 
L 53.609375 0 
L 7.328125 0 
L 7.328125 8.296875 
Q 12.9375 14.109375 22.625 23.890625 
Q 32.328125 33.6875 34.8125 36.53125 
Q 39.546875 41.84375 41.421875 45.53125 
Q 43.3125 49.21875 43.3125 52.78125 
Q 43.3125 58.59375 39.234375 62.25 
Q 35.15625 65.921875 28.609375 65.921875 
Q 23.96875 65.921875 18.8125 64.3125 
Q 13.671875 62.703125 7.8125 59.421875 
L 7.8125 69.390625 
Q 13.765625 71.78125 18.9375 73 
Q 24.125 74.21875 28.421875 74.21875 
Q 39.75 74.21875 46.484375 68.546875 
Q 53.21875 62.890625 53.21875 53.421875 
Q 53.21875 48.921875 51.53125 44.890625 
Q 49.859375 40.875 45.40625 35.40625 
Q 44.1875 33.984375 37.640625 27.21875 
Q 31.109375 20.453125 19.1875 8.296875 
" id="BitstreamVeraSans-Roman-32"/>
      </defs>
      <g transform="translate(130.83125 381.859875)scale(0.12 -0.12)">
       <use xlink:href="#BitstreamVeraSans-Roman-32"/>
       <use x="63.623046875" xlink:href="#BitstreamVeraSans-Roman-30"/>
       <use x="127.24609375" xlink:href="#BitstreamVeraSans-Roman-30"/>
      </g>
     </g>
    </g>
    <g id="xtick_4">
     <g id="line2d_8">
      <g>
       <use style="stroke:#000000;stroke-width:0.5;" x="191.88375" xlink:href="#mae05c4cb88" y="368.74175"/>
      </g>
     </g>
     <g id="line2d_9">
      <g>
       <use style="stroke:#000000;stroke-width:0.5;" x="191.88375" xlink:href="#m1456de7b07" y="23.14175"/>
      </g>
     </g>
     <g id="text_4">
      <!-- 300 -->
      <defs>
       <path d="M 40.578125 39.3125 
Q 47.65625 37.796875 51.625 33 
Q 55.609375 28.21875 55.609375 21.1875 
Q 55.609375 10.40625 48.1875 4.484375 
Q 40.765625 -1.421875 27.09375 -1.421875 
Q 22.515625 -1.421875 17.65625 -0.515625 
Q 12.796875 0.390625 7.625 2.203125 
L 7.625 11.71875 
Q 11.71875 9.328125 16.59375 8.109375 
Q 21.484375 6.890625 26.8125 6.890625 
Q 36.078125 6.890625 40.9375 10.546875 
Q 45.796875 14.203125 45.796875 21.1875 
Q 45.796875 27.640625 41.28125 31.265625 
Q 36.765625 34.90625 28.71875 34.90625 
L 20.21875 34.90625 
L 20.21875 43.015625 
L 29.109375 43.015625 
Q 36.375 43.015625 40.234375 45.921875 
Q 44.09375 48.828125 44.09375 54.296875 
Q 44.09375 59.90625 40.109375 62.90625 
Q 36.140625 65.921875 28.71875 65.921875 
Q 24.65625 65.921875 20.015625 65.03125 
Q 15.375 64.15625 9.8125 62.3125 
L 9.8125 71.09375 
Q 15.4375 72.65625 20.34375 73.4375 
Q 25.25 74.21875 29.59375 74.21875 
Q 40.828125 74.21875 47.359375 69.109375 
Q 53.90625 64.015625 53.90625 55.328125 
Q 53.90625 49.265625 50.4375 45.09375 
Q 46.96875 40.921875 40.578125 39.3125 
" id="BitstreamVeraSans-Roman-33"/>
      </defs>
      <g transform="translate(180.43125 381.859875)scale(0.12 -0.12)">
       <use xlink:href="#BitstreamVeraSans-Roman-33"/>
       <use x="63.623046875" xlink:href="#BitstreamVeraSans-Roman-30"/>
       <use x="127.24609375" xlink:href="#BitstreamVeraSans-Roman-30"/>
      </g>
     </g>
    </g>
    <g id="xtick_5">
     <g id="line2d_10">
      <g>
       <use style="stroke:#000000;stroke-width:0.5;" x="241.48375" xlink:href="#mae05c4cb88" y="368.74175"/>
      </g>
     </g>
     <g id="line2d_11">
      <g>
       <use style="stroke:#000000;stroke-width:0.5;" x="241.48375" xlink:href="#m1456de7b07" y="23.14175"/>
      </g>
     </g>
     <g id="text_5">
      <!-- 400 -->
      <defs>
       <path d="M 37.796875 64.3125 
L 12.890625 25.390625 
L 37.796875 25.390625 
z
M 35.203125 72.90625 
L 47.609375 72.90625 
L 47.609375 25.390625 
L 58.015625 25.390625 
L 58.015625 17.1875 
L 47.609375 17.1875 
L 47.609375 0 
L 37.796875 0 
L 37.796875 17.1875 
L 4.890625 17.1875 
L 4.890625 26.703125 
z
" id="BitstreamVeraSans-Roman-34"/>
      </defs>
      <g transform="translate(230.03125 381.859875)scale(0.12 -0.12)">
       <use xlink:href="#BitstreamVeraSans-Roman-34"/>
       <use x="63.623046875" xlink:href="#BitstreamVeraSans-Roman-30"/>
       <use x="127.24609375" xlink:href="#BitstreamVeraSans-Roman-30"/>
      </g>
     </g>
    </g>
    <g id="xtick_6">
     <g id="line2d_12">
      <g>
       <use style="stroke:#000000;stroke-width:0.5;" x="291.08375" xlink:href="#mae05c4cb88" y="368.74175"/>
      </g>
     </g>
     <g id="line2d_13">
      <g>
       <use style="stroke:#000000;stroke-width:0.5;" x="291.08375" xlink:href="#m1456de7b07" y="23.14175"/>
      </g>
     </g>
     <g id="text_6">
      <!-- 500 -->
      <defs>
       <path d="M 10.796875 72.90625 
L 49.515625 72.90625 
L 49.515625 64.59375 
L 19.828125 64.59375 
L 19.828125 46.734375 
Q 21.96875 47.46875 24.109375 47.828125 
Q 26.265625 48.1875 28.421875 48.1875 
Q 40.625 48.1875 47.75 41.5 
Q 54.890625 34.8125 54.890625 23.390625 
Q 54.890625 11.625 47.5625 5.09375 
Q 40.234375 -1.421875 26.90625 -1.421875 
Q 22.3125 -1.421875 17.546875 -0.640625 
Q 12.796875 0.140625 7.71875 1.703125 
L 7.71875 11.625 
Q 12.109375 9.234375 16.796875 8.0625 
Q 21.484375 6.890625 26.703125 6.890625 
Q 35.15625 6.890625 40.078125 11.328125 
Q 45.015625 15.765625 45.015625 23.390625 
Q 45.015625 31 40.078125 35.4375 
Q 35.15625 39.890625 26.703125 39.890625 
Q 22.75 39.890625 18.8125 39.015625 
Q 14.890625 38.140625 10.796875 36.28125 
z
" id="BitstreamVeraSans-Roman-35"/>
      </defs>
      <g transform="translate(279.63125 381.859875)scale(0.12 -0.12)">
       <use xlink:href="#BitstreamVeraSans-Roman-35"/>
       <use x="63.623046875" xlink:href="#BitstreamVeraSans-Roman-30"/>
       <use x="127.24609375" xlink:href="#BitstreamVeraSans-Roman-30"/>
      </g>
     </g>
    </g>
    <g id="xtick_7">
     <g id="line2d_14">
      <g>
       <use style="stroke:#000000;stroke-width:0.5;" x="340.68375" xlink:href="#mae05c4cb88" y="368.74175"/>
      </g>
     </g>
     <g id="line2d_15">
      <g>
       <use style="stroke:#000000;stroke-width:0.5;" x="340.68375" xlink:href="#m1456de7b07" y="23.14175"/>
      </g>
     </g>
     <g id="text_7">
      <!-- 600 -->
      <defs>
       <path d="M 33.015625 40.375 
Q 26.375 40.375 22.484375 35.828125 
Q 18.609375 31.296875 18.609375 23.390625 
Q 18.609375 15.53125 22.484375 10.953125 
Q 26.375 6.390625 33.015625 6.390625 
Q 39.65625 6.390625 43.53125 10.953125 
Q 47.40625 15.53125 47.40625 23.390625 
Q 47.40625 31.296875 43.53125 35.828125 
Q 39.65625 40.375 33.015625 40.375 
M 52.59375 71.296875 
L 52.59375 62.3125 
Q 48.875 64.0625 45.09375 64.984375 
Q 41.3125 65.921875 37.59375 65.921875 
Q 27.828125 65.921875 22.671875 59.328125 
Q 17.53125 52.734375 16.796875 39.40625 
Q 19.671875 43.65625 24.015625 45.921875 
Q 28.375 48.1875 33.59375 48.1875 
Q 44.578125 48.1875 50.953125 41.515625 
Q 57.328125 34.859375 57.328125 23.390625 
Q 57.328125 12.15625 50.6875 5.359375 
Q 44.046875 -1.421875 33.015625 -1.421875 
Q 20.359375 -1.421875 13.671875 8.265625 
Q 6.984375 17.96875 6.984375 36.375 
Q 6.984375 53.65625 15.1875 63.9375 
Q 23.390625 74.21875 37.203125 74.21875 
Q 40.921875 74.21875 44.703125 73.484375 
Q 48.484375 72.75 52.59375 71.296875 
" id="BitstreamVeraSans-Roman-36"/>
      </defs>
      <g transform="translate(329.23125 381.859875)scale(0.12 -0.12)">
       <use xlink:href="#BitstreamVeraSans-Roman-36"/>
       <use x="63.623046875" xlink:href="#BitstreamVeraSans-Roman-30"/>
       <use x="127.24609375" xlink:href="#BitstreamVeraSans-Roman-30"/>
      </g>
     </g>
    </g>
    <g id="xtick_8">
     <g id="line2d_16">
      <g>
       <use style="stroke:#000000;stroke-width:0.5;" x="390.28375" xlink:href="#mae05c4cb88" y="368.74175"/>
      </g>
     </g>
     <g id="line2d_17">
      <g>
       <use style="stroke:#000000;stroke-width:0.5;" x="390.28375" xlink:href="#m1456de7b07" y="23.14175"/>
      </g>
     </g>
     <g id="text_8">
      <!-- 700 -->
      <defs>
       <path d="M 8.203125 72.90625 
L 55.078125 72.90625 
L 55.078125 68.703125 
L 28.609375 0 
L 18.3125 0 
L 43.21875 64.59375 
L 8.203125 64.59375 
z
" id="BitstreamVeraSans-Roman-37"/>
      </defs>
      <g transform="translate(378.83125 381.859875)scale(0.12 -0.12)">
       <use xlink:href="#BitstreamVeraSans-Roman-37"/>
       <use x="63.623046875" xlink:href="#BitstreamVeraSans-Roman-30"/>
       <use x="127.24609375" xlink:href="#BitstreamVeraSans-Roman-30"/>
      </g>
     </g>
    </g>
    <g id="xtick_9">
     <g id="line2d_18">
      <g>
       <use style="stroke:#000000;stroke-width:0.5;" x="439.88375" xlink:href="#mae05c4cb88" y="368.74175"/>
      </g>
     </g>
     <g id="line2d_19">
      <g>
       <use style="stroke:#000000;stroke-width:0.5;" x="439.88375" xlink:href="#m1456de7b07" y="23.14175"/>
      </g>
     </g>
     <g id="text_9">
      <!-- 800 -->
      <defs>
       <path d="M 31.78125 34.625 
Q 24.75 34.625 20.71875 30.859375 
Q 16.703125 27.09375 16.703125 20.515625 
Q 16.703125 13.921875 20.71875 10.15625 
Q 24.75 6.390625 31.78125 6.390625 
Q 38.8125 6.390625 42.859375 10.171875 
Q 46.921875 13.96875 46.921875 20.515625 
Q 46.921875 27.09375 42.890625 30.859375 
Q 38.875 34.625 31.78125 34.625 
M 21.921875 38.8125 
Q 15.578125 40.375 12.03125 44.71875 
Q 8.5 49.078125 8.5 55.328125 
Q 8.5 64.0625 14.71875 69.140625 
Q 20.953125 74.21875 31.78125 74.21875 
Q 42.671875 74.21875 48.875 69.140625 
Q 55.078125 64.0625 55.078125 55.328125 
Q 55.078125 49.078125 51.53125 44.71875 
Q 48 40.375 41.703125 38.8125 
Q 48.828125 37.15625 52.796875 32.3125 
Q 56.78125 27.484375 56.78125 20.515625 
Q 56.78125 9.90625 50.3125 4.234375 
Q 43.84375 -1.421875 31.78125 -1.421875 
Q 19.734375 -1.421875 13.25 4.234375 
Q 6.78125 9.90625 6.78125 20.515625 
Q 6.78125 27.484375 10.78125 32.3125 
Q 14.796875 37.15625 21.921875 38.8125 
M 18.3125 54.390625 
Q 18.3125 48.734375 21.84375 45.5625 
Q 25.390625 42.390625 31.78125 42.390625 
Q 38.140625 42.390625 41.71875 45.5625 
Q 45.3125 48.734375 45.3125 54.390625 
Q 45.3125 60.0625 41.71875 63.234375 
Q 38.140625 66.40625 31.78125 66.40625 
Q 25.390625 66.40625 21.84375 63.234375 
Q 18.3125 60.0625 18.3125 54.390625 
" id="BitstreamVeraSans-Roman-38"/>
      </defs>
      <g transform="translate(428.43125 381.859875)scale(0.12 -0.12)">
       <use xlink:href="#BitstreamVeraSans-Roman-38"/>
       <use x="63.623046875" xlink:href="#BitstreamVeraSans-Roman-30"/>
       <use x="127.24609375" xlink:href="#BitstreamVeraSans-Roman-30"/>
      </g>
     </g>
    </g>
    <g id="xtick_10">
     <g id="line2d_20">
      <g>
       <use style="stroke:#000000;stroke-width:0.5;" x="489.48375" xlink:href="#mae05c4cb88" y="368.74175"/>
      </g>
     </g>
     <g id="line2d_21">
      <g>
       <use style="stroke:#000000;stroke-width:0.5;" x="489.48375" xlink:href="#m1456de7b07" y="23.14175"/>
      </g>
     </g>
     <g id="text_10">
      <!-- 900 -->
      <defs>
       <path d="M 10.984375 1.515625 
L 10.984375 10.5 
Q 14.703125 8.734375 18.5 7.8125 
Q 22.3125 6.890625 25.984375 6.890625 
Q 35.75 6.890625 40.890625 13.453125 
Q 46.046875 20.015625 46.78125 33.40625 
Q 43.953125 29.203125 39.59375 26.953125 
Q 35.25 24.703125 29.984375 24.703125 
Q 19.046875 24.703125 12.671875 31.3125 
Q 6.296875 37.9375 6.296875 49.421875 
Q 6.296875 60.640625 12.9375 67.421875 
Q 19.578125 74.21875 30.609375 74.21875 
Q 43.265625 74.21875 49.921875 64.515625 
Q 56.59375 54.828125 56.59375 36.375 
Q 56.59375 19.140625 48.40625 8.859375 
Q 40.234375 -1.421875 26.421875 -1.421875 
Q 22.703125 -1.421875 18.890625 -0.6875 
Q 15.09375 0.046875 10.984375 1.515625 
M 30.609375 32.421875 
Q 37.25 32.421875 41.125 36.953125 
Q 45.015625 41.5 45.015625 49.421875 
Q 45.015625 57.28125 41.125 61.84375 
Q 37.25 66.40625 30.609375 66.40625 
Q 23.96875 66.40625 20.09375 61.84375 
Q 16.21875 57.28125 16.21875 49.421875 
Q 16.21875 41.5 20.09375 36.953125 
Q 23.96875 32.421875 30.609375 32.421875 
" id="BitstreamVeraSans-Roman-39"/>
      </defs>
      <g transform="translate(478.03125 381.859875)scale(0.12 -0.12)">
       <use xlink:href="#BitstreamVeraSans-Roman-39"/>
       <use x="63.623046875" xlink:href="#BitstreamVeraSans-Roman-30"/>
       <use x="127.24609375" xlink:href="#BitstreamVeraSans-Roman-30"/>
      </g>
     </g>
    </g>
    <g id="text_11">
     <!-- episode -->
     <defs>
      <path d="M 9.421875 54.6875 
L 18.40625 54.6875 
L 18.40625 0 
L 9.421875 0 
z
M 9.421875 75.984375 
L 18.40625 75.984375 
L 18.40625 64.59375 
L 9.421875 64.59375 
z
" id="BitstreamVeraSans-Roman-69"/>
      <path d="M 44.28125 53.078125 
L 44.28125 44.578125 
Q 40.484375 46.53125 36.375 47.5 
Q 32.28125 48.484375 27.875 48.484375 
Q 21.1875 48.484375 17.84375 46.4375 
Q 14.5 44.390625 14.5 40.28125 
Q 14.5 37.15625 16.890625 35.375 
Q 19.28125 33.59375 26.515625 31.984375 
L 29.59375 31.296875 
Q 39.15625 29.25 43.1875 25.515625 
Q 47.21875 21.78125 47.21875 15.09375 
Q 47.21875 7.46875 41.1875 3.015625 
Q 35.15625 -1.421875 24.609375 -1.421875 
Q 20.21875 -1.421875 15.453125 -0.5625 
Q 10.6875 0.296875 5.421875 2 
L 5.421875 11.28125 
Q 10.40625 8.6875 15.234375 7.390625 
Q 20.0625 6.109375 24.8125 6.109375 
Q 31.15625 6.109375 34.5625 8.28125 
Q 37.984375 10.453125 37.984375 14.40625 
Q 37.984375 18.0625 35.515625 20.015625 
Q 33.0625 21.96875 24.703125 23.78125 
L 21.578125 24.515625 
Q 13.234375 26.265625 9.515625 29.90625 
Q 5.8125 33.546875 5.8125 39.890625 
Q 5.8125 47.609375 11.28125 51.796875 
Q 16.75 56 26.8125 56 
Q 31.78125 56 36.171875 55.265625 
Q 40.578125 54.546875 44.28125 53.078125 
" id="BitstreamVeraSans-Roman-73"/>
      <path d="M 18.109375 8.203125 
L 18.109375 -20.796875 
L 9.078125 -20.796875 
L 9.078125 54.6875 
L 18.109375 54.6875 
L 18.109375 46.390625 
Q 20.953125 51.265625 25.265625 53.625 
Q 29.59375 56 35.59375 56 
Q 45.5625 56 51.78125 48.09375 
Q 58.015625 40.1875 58.015625 27.296875 
Q 58.015625 14.40625 51.78125 6.484375 
Q 45.5625 -1.421875 35.59375 -1.421875 
Q 29.59375 -1.421875 25.265625 0.953125 
Q 20.953125 3.328125 18.109375 8.203125 
M 48.6875 27.296875 
Q 48.6875 37.203125 44.609375 42.84375 
Q 40.53125 48.484375 33.40625 48.484375 
Q 26.265625 48.484375 22.1875 42.84375 
Q 18.109375 37.203125 18.109375 27.296875 
Q 18.109375 17.390625 22.1875 11.75 
Q 26.265625 6.109375 33.40625 6.109375 
Q 40.53125 6.109375 44.609375 11.75 
Q 48.6875 17.390625 48.6875 27.296875 
" id="BitstreamVeraSans-Roman-70"/>
      <path d="M 56.203125 29.59375 
L 56.203125 25.203125 
L 14.890625 25.203125 
Q 15.484375 15.921875 20.484375 11.0625 
Q 25.484375 6.203125 34.421875 6.203125 
Q 39.59375 6.203125 44.453125 7.46875 
Q 49.3125 8.734375 54.109375 11.28125 
L 54.109375 2.78125 
Q 49.265625 0.734375 44.1875 -0.34375 
Q 39.109375 -1.421875 33.890625 -1.421875 
Q 20.796875 -1.421875 13.15625 6.1875 
Q 5.515625 13.8125 5.515625 26.8125 
Q 5.515625 40.234375 12.765625 48.109375 
Q 20.015625 56 32.328125 56 
Q 43.359375 56 49.78125 48.890625 
Q 56.203125 41.796875 56.203125 29.59375 
M 47.21875 32.234375 
Q 47.125 39.59375 43.09375 43.984375 
Q 39.0625 48.390625 32.421875 48.390625 
Q 24.90625 48.390625 20.390625 44.140625 
Q 15.875 39.890625 15.1875 32.171875 
z
" id="BitstreamVeraSans-Roman-65"/>
      <path d="M 30.609375 48.390625 
Q 23.390625 48.390625 19.1875 42.75 
Q 14.984375 37.109375 14.984375 27.296875 
Q 14.984375 17.484375 19.15625 11.84375 
Q 23.34375 6.203125 30.609375 6.203125 
Q 37.796875 6.203125 41.984375 11.859375 
Q 46.1875 17.53125 46.1875 27.296875 
Q 46.1875 37.015625 41.984375 42.703125 
Q 37.796875 48.390625 30.609375 48.390625 
M 30.609375 56 
Q 42.328125 56 49.015625 48.375 
Q 55.71875 40.765625 55.71875 27.296875 
Q 55.71875 13.875 49.015625 6.21875 
Q 42.328125 -1.421875 30.609375 -1.421875 
Q 18.84375 -1.421875 12.171875 6.21875 
Q 5.515625 13.875 5.515625 27.296875 
Q 5.515625 40.765625 12.171875 48.375 
Q 18.84375 56 30.609375 56 
" id="BitstreamVeraSans-Roman-6f"/>
      <path d="M 45.40625 46.390625 
L 45.40625 75.984375 
L 54.390625 75.984375 
L 54.390625 0 
L 45.40625 0 
L 45.40625 8.203125 
Q 42.578125 3.328125 38.25 0.953125 
Q 33.9375 -1.421875 27.875 -1.421875 
Q 17.96875 -1.421875 11.734375 6.484375 
Q 5.515625 14.40625 5.515625 27.296875 
Q 5.515625 40.1875 11.734375 48.09375 
Q 17.96875 56 27.875 56 
Q 33.9375 56 38.25 53.625 
Q 42.578125 51.265625 45.40625 46.390625 
M 14.796875 27.296875 
Q 14.796875 17.390625 18.875 11.75 
Q 22.953125 6.109375 30.078125 6.109375 
Q 37.203125 6.109375 41.296875 11.75 
Q 45.40625 17.390625 45.40625 27.296875 
Q 45.40625 37.203125 41.296875 42.84375 
Q 37.203125 48.484375 30.078125 48.484375 
Q 22.953125 48.484375 18.875 42.84375 
Q 14.796875 37.203125 14.796875 27.296875 
" id="BitstreamVeraSans-Roman-64"/>
     </defs>
     <g transform="translate(242.818125 398.473625)scale(0.12 -0.12)">
      <use xlink:href="#BitstreamVeraSans-Roman-65"/>
      <use x="61.5234375" xlink:href="#BitstreamVeraSans-Roman-70"/>
      <use x="125.0" xlink:href="#BitstreamVeraSans-Roman-69"/>
      <use x="152.783203125" xlink:href="#BitstreamVeraSans-Roman-73"/>
      <use x="204.8828125" xlink:href="#BitstreamVeraSans-Roman-6f"/>
      <use x="266.064453125" xlink:href="#BitstreamVeraSans-Roman-64"/>
      <use x="329.541015625" xlink:href="#BitstreamVeraSans-Roman-65"/>
     </g>
    </g>
   </g>
   <g id="matplotlib.axis_2">
    <g id="ytick_1">
     <g id="line2d_22">
      <defs>
       <path d="M 0 0 
L 4 0 
" id="m892176ff2f" style="stroke:#000000;stroke-width:0.5;"/>
      </defs>
      <g>
       <use style="stroke:#000000;stroke-width:0.5;" x="43.08375" xlink:href="#m892176ff2f" y="368.74175"/>
      </g>
     </g>
     <g id="line2d_23">
      <defs>
       <path d="M 0 0 
L -4 0 
" id="m6c8302bc87" style="stroke:#000000;stroke-width:0.5;"/>
      </defs>
      <g>
       <use style="stroke:#000000;stroke-width:0.5;" x="489.48375" xlink:href="#m6c8302bc87" y="368.74175"/>
      </g>
     </g>
     <g id="text_12">
      <!-- 0 -->
      <g transform="translate(31.44875 372.053)scale(0.12 -0.12)">
       <use xlink:href="#BitstreamVeraSans-Roman-30"/>
      </g>
     </g>
    </g>
    <g id="ytick_2">
     <g id="line2d_24">
      <g>
       <use style="stroke:#000000;stroke-width:0.5;" x="43.08375" xlink:href="#m892176ff2f" y="299.62175"/>
      </g>
     </g>
     <g id="line2d_25">
      <g>
       <use style="stroke:#000000;stroke-width:0.5;" x="489.48375" xlink:href="#m6c8302bc87" y="299.62175"/>
      </g>
     </g>
     <g id="text_13">
      <!-- 5 -->
      <g transform="translate(31.44875 302.933)scale(0.12 -0.12)">
       <use xlink:href="#BitstreamVeraSans-Roman-35"/>
      </g>
     </g>
    </g>
    <g id="ytick_3">
     <g id="line2d_26">
      <g>
       <use style="stroke:#000000;stroke-width:0.5;" x="43.08375" xlink:href="#m892176ff2f" y="230.50175"/>
      </g>
     </g>
     <g id="line2d_27">
      <g>
       <use style="stroke:#000000;stroke-width:0.5;" x="489.48375" xlink:href="#m6c8302bc87" y="230.50175"/>
      </g>
     </g>
     <g id="text_14">
      <!-- 10 -->
      <g transform="translate(23.81375 233.813)scale(0.12 -0.12)">
       <use xlink:href="#BitstreamVeraSans-Roman-31"/>
       <use x="63.623046875" xlink:href="#BitstreamVeraSans-Roman-30"/>
      </g>
     </g>
    </g>
    <g id="ytick_4">
     <g id="line2d_28">
      <g>
       <use style="stroke:#000000;stroke-width:0.5;" x="43.08375" xlink:href="#m892176ff2f" y="161.38175"/>
      </g>
     </g>
     <g id="line2d_29">
      <g>
       <use style="stroke:#000000;stroke-width:0.5;" x="489.48375" xlink:href="#m6c8302bc87" y="161.38175"/>
      </g>
     </g>
     <g id="text_15">
      <!-- 15 -->
      <g transform="translate(23.81375 164.693)scale(0.12 -0.12)">
       <use xlink:href="#BitstreamVeraSans-Roman-31"/>
       <use x="63.623046875" xlink:href="#BitstreamVeraSans-Roman-35"/>
      </g>
     </g>
    </g>
    <g id="ytick_5">
     <g id="line2d_30">
      <g>
       <use style="stroke:#000000;stroke-width:0.5;" x="43.08375" xlink:href="#m892176ff2f" y="92.26175"/>
      </g>
     </g>
     <g id="line2d_31">
      <g>
       <use style="stroke:#000000;stroke-width:0.5;" x="489.48375" xlink:href="#m6c8302bc87" y="92.26175"/>
      </g>
     </g>
     <g id="text_16">
      <!-- 20 -->
      <g transform="translate(23.81375 95.573)scale(0.12 -0.12)">
       <use xlink:href="#BitstreamVeraSans-Roman-32"/>
       <use x="63.623046875" xlink:href="#BitstreamVeraSans-Roman-30"/>
      </g>
     </g>
    </g>
    <g id="ytick_6">
     <g id="line2d_32">
      <g>
       <use style="stroke:#000000;stroke-width:0.5;" x="43.08375" xlink:href="#m892176ff2f" y="23.14175"/>
      </g>
     </g>
     <g id="line2d_33">
      <g>
       <use style="stroke:#000000;stroke-width:0.5;" x="489.48375" xlink:href="#m6c8302bc87" y="23.14175"/>
      </g>
     </g>
     <g id="text_17">
      <!-- 25 -->
      <g transform="translate(23.81375 26.453)scale(0.12 -0.12)">
       <use xlink:href="#BitstreamVeraSans-Roman-32"/>
       <use x="63.623046875" xlink:href="#BitstreamVeraSans-Roman-35"/>
      </g>
     </g>
    </g>
    <g id="text_18">
     <!-- undisc. return -->
     <defs>
      <path id="BitstreamVeraSans-Roman-20"/>
      <path d="M 54.890625 33.015625 
L 54.890625 0 
L 45.90625 0 
L 45.90625 32.71875 
Q 45.90625 40.484375 42.875 44.328125 
Q 39.84375 48.1875 33.796875 48.1875 
Q 26.515625 48.1875 22.3125 43.546875 
Q 18.109375 38.921875 18.109375 30.90625 
L 18.109375 0 
L 9.078125 0 
L 9.078125 54.6875 
L 18.109375 54.6875 
L 18.109375 46.1875 
Q 21.34375 51.125 25.703125 53.5625 
Q 30.078125 56 35.796875 56 
Q 45.21875 56 50.046875 50.171875 
Q 54.890625 44.34375 54.890625 33.015625 
" id="BitstreamVeraSans-Roman-6e"/>
      <path d="M 48.78125 52.59375 
L 48.78125 44.1875 
Q 44.96875 46.296875 41.140625 47.34375 
Q 37.3125 48.390625 33.40625 48.390625 
Q 24.65625 48.390625 19.8125 42.84375 
Q 14.984375 37.3125 14.984375 27.296875 
Q 14.984375 17.28125 19.8125 11.734375 
Q 24.65625 6.203125 33.40625 6.203125 
Q 37.3125 6.203125 41.140625 7.25 
Q 44.96875 8.296875 48.78125 10.40625 
L 48.78125 2.09375 
Q 45.015625 0.34375 40.984375 -0.53125 
Q 36.96875 -1.421875 32.421875 -1.421875 
Q 20.0625 -1.421875 12.78125 6.34375 
Q 5.515625 14.109375 5.515625 27.296875 
Q 5.515625 40.671875 12.859375 48.328125 
Q 20.21875 56 33.015625 56 
Q 37.15625 56 41.109375 55.140625 
Q 45.0625 54.296875 48.78125 52.59375 
" id="BitstreamVeraSans-Roman-63"/>
      <path d="M 18.3125 70.21875 
L 18.3125 54.6875 
L 36.8125 54.6875 
L 36.8125 47.703125 
L 18.3125 47.703125 
L 18.3125 18.015625 
Q 18.3125 11.328125 20.140625 9.421875 
Q 21.96875 7.515625 27.59375 7.515625 
L 36.8125 7.515625 
L 36.8125 0 
L 27.59375 0 
Q 17.1875 0 13.234375 3.875 
Q 9.28125 7.765625 9.28125 18.015625 
L 9.28125 47.703125 
L 2.6875 47.703125 
L 2.6875 54.6875 
L 9.28125 54.6875 
L 9.28125 70.21875 
z
" id="BitstreamVeraSans-Roman-74"/>
      <path d="M 10.6875 12.40625 
L 21 12.40625 
L 21 0 
L 10.6875 0 
z
" id="BitstreamVeraSans-Roman-2e"/>
      <path d="M 8.5 21.578125 
L 8.5 54.6875 
L 17.484375 54.6875 
L 17.484375 21.921875 
Q 17.484375 14.15625 20.5 10.265625 
Q 23.53125 6.390625 29.59375 6.390625 
Q 36.859375 6.390625 41.078125 11.03125 
Q 45.3125 15.671875 45.3125 23.6875 
L 45.3125 54.6875 
L 54.296875 54.6875 
L 54.296875 0 
L 45.3125 0 
L 45.3125 8.40625 
Q 42.046875 3.421875 37.71875 1 
Q 33.40625 -1.421875 27.6875 -1.421875 
Q 18.265625 -1.421875 13.375 4.4375 
Q 8.5 10.296875 8.5 21.578125 
" id="BitstreamVeraSans-Roman-75"/>
      <path d="M 41.109375 46.296875 
Q 39.59375 47.171875 37.8125 47.578125 
Q 36.03125 48 33.890625 48 
Q 26.265625 48 22.1875 43.046875 
Q 18.109375 38.09375 18.109375 28.8125 
L 18.109375 0 
L 9.078125 0 
L 9.078125 54.6875 
L 18.109375 54.6875 
L 18.109375 46.1875 
Q 20.953125 51.171875 25.484375 53.578125 
Q 30.03125 56 36.53125 56 
Q 37.453125 56 38.578125 55.875 
Q 39.703125 55.765625 41.0625 55.515625 
z
" id="BitstreamVeraSans-Roman-72"/>
     </defs>
     <g transform="translate(16.318125 237.8405)rotate(-90.0)scale(0.12 -0.12)">
      <use xlink:href="#BitstreamVeraSans-Roman-75"/>
      <use x="63.37890625" xlink:href="#BitstreamVeraSans-Roman-6e"/>
      <use x="126.7578125" xlink:href="#BitstreamVeraSans-Roman-64"/>
      <use x="190.234375" xlink:href="#BitstreamVeraSans-Roman-69"/>
      <use x="218.017578125" xlink:href="#BitstreamVeraSans-Roman-73"/>
      <use x="270.1171875" xlink:href="#BitstreamVeraSans-Roman-63"/>
      <use x="325.09765625" xlink:href="#BitstreamVeraSans-Roman-2e"/>
      <use x="356.884765625" xlink:href="#BitstreamVeraSans-Roman-20"/>
      <use x="388.671875" xlink:href="#BitstreamVeraSans-Roman-72"/>
      <use x="429.75390625" xlink:href="#BitstreamVeraSans-Roman-65"/>
      <use x="491.27734375" xlink:href="#BitstreamVeraSans-Roman-74"/>
      <use x="530.486328125" xlink:href="#BitstreamVeraSans-Roman-75"/>
      <use x="593.865234375" xlink:href="#BitstreamVeraSans-Roman-72"/>
      <use x="634.962890625" xlink:href="#BitstreamVeraSans-Roman-6e"/>
     </g>
    </g>
   </g>
   <g id="text_19">
    <!-- Undiscounted return obtained -->
    <defs>
     <path d="M 48.6875 27.296875 
Q 48.6875 37.203125 44.609375 42.84375 
Q 40.53125 48.484375 33.40625 48.484375 
Q 26.265625 48.484375 22.1875 42.84375 
Q 18.109375 37.203125 18.109375 27.296875 
Q 18.109375 17.390625 22.1875 11.75 
Q 26.265625 6.109375 33.40625 6.109375 
Q 40.53125 6.109375 44.609375 11.75 
Q 48.6875 17.390625 48.6875 27.296875 
M 18.109375 46.390625 
Q 20.953125 51.265625 25.265625 53.625 
Q 29.59375 56 35.59375 56 
Q 45.5625 56 51.78125 48.09375 
Q 58.015625 40.1875 58.015625 27.296875 
Q 58.015625 14.40625 51.78125 6.484375 
Q 45.5625 -1.421875 35.59375 -1.421875 
Q 29.59375 -1.421875 25.265625 0.953125 
Q 20.953125 3.328125 18.109375 8.203125 
L 18.109375 0 
L 9.078125 0 
L 9.078125 75.984375 
L 18.109375 75.984375 
z
" id="BitstreamVeraSans-Roman-62"/>
     <path d="M 34.28125 27.484375 
Q 23.390625 27.484375 19.1875 25 
Q 14.984375 22.515625 14.984375 16.5 
Q 14.984375 11.71875 18.140625 8.90625 
Q 21.296875 6.109375 26.703125 6.109375 
Q 34.1875 6.109375 38.703125 11.40625 
Q 43.21875 16.703125 43.21875 25.484375 
L 43.21875 27.484375 
z
M 52.203125 31.203125 
L 52.203125 0 
L 43.21875 0 
L 43.21875 8.296875 
Q 40.140625 3.328125 35.546875 0.953125 
Q 30.953125 -1.421875 24.3125 -1.421875 
Q 15.921875 -1.421875 10.953125 3.296875 
Q 6 8.015625 6 15.921875 
Q 6 25.140625 12.171875 29.828125 
Q 18.359375 34.515625 30.609375 34.515625 
L 43.21875 34.515625 
L 43.21875 35.40625 
Q 43.21875 41.609375 39.140625 45 
Q 35.0625 48.390625 27.6875 48.390625 
Q 23 48.390625 18.546875 47.265625 
Q 14.109375 46.140625 10.015625 43.890625 
L 10.015625 52.203125 
Q 14.9375 54.109375 19.578125 55.046875 
Q 24.21875 56 28.609375 56 
Q 40.484375 56 46.34375 49.84375 
Q 52.203125 43.703125 52.203125 31.203125 
" id="BitstreamVeraSans-Roman-61"/>
     <path d="M 8.6875 72.90625 
L 18.609375 72.90625 
L 18.609375 28.609375 
Q 18.609375 16.890625 22.84375 11.734375 
Q 27.09375 6.59375 36.625 6.59375 
Q 46.09375 6.59375 50.34375 11.734375 
Q 54.59375 16.890625 54.59375 28.609375 
L 54.59375 72.90625 
L 64.5 72.90625 
L 64.5 27.390625 
Q 64.5 13.140625 57.4375 5.859375 
Q 50.390625 -1.421875 36.625 -1.421875 
Q 22.796875 -1.421875 15.734375 5.859375 
Q 8.6875 13.140625 8.6875 27.390625 
z
" id="BitstreamVeraSans-Roman-55"/>
    </defs>
    <g transform="translate(158.167875 18.14175)scale(0.144 -0.144)">
     <use xlink:href="#BitstreamVeraSans-Roman-55"/>
     <use x="73.193359375" xlink:href="#BitstreamVeraSans-Roman-6e"/>
     <use x="136.572265625" xlink:href="#BitstreamVeraSans-Roman-64"/>
     <use x="200.048828125" xlink:href="#BitstreamVeraSans-Roman-69"/>
     <use x="227.83203125" xlink:href="#BitstreamVeraSans-Roman-73"/>
     <use x="279.931640625" xlink:href="#BitstreamVeraSans-Roman-63"/>
     <use x="334.912109375" xlink:href="#BitstreamVeraSans-Roman-6f"/>
     <use x="396.09375" xlink:href="#BitstreamVeraSans-Roman-75"/>
     <use x="459.47265625" xlink:href="#BitstreamVeraSans-Roman-6e"/>
     <use x="522.8515625" xlink:href="#BitstreamVeraSans-Roman-74"/>
     <use x="562.060546875" xlink:href="#BitstreamVeraSans-Roman-65"/>
     <use x="623.583984375" xlink:href="#BitstreamVeraSans-Roman-64"/>
     <use x="687.060546875" xlink:href="#BitstreamVeraSans-Roman-20"/>
     <use x="718.84765625" xlink:href="#BitstreamVeraSans-Roman-72"/>
     <use x="759.9296875" xlink:href="#BitstreamVeraSans-Roman-65"/>
     <use x="821.453125" xlink:href="#BitstreamVeraSans-Roman-74"/>
     <use x="860.662109375" xlink:href="#BitstreamVeraSans-Roman-75"/>
     <use x="924.041015625" xlink:href="#BitstreamVeraSans-Roman-72"/>
     <use x="965.138671875" xlink:href="#BitstreamVeraSans-Roman-6e"/>
     <use x="1028.517578125" xlink:href="#BitstreamVeraSans-Roman-20"/>
     <use x="1060.3046875" xlink:href="#BitstreamVeraSans-Roman-6f"/>
     <use x="1121.486328125" xlink:href="#BitstreamVeraSans-Roman-62"/>
     <use x="1184.962890625" xlink:href="#BitstreamVeraSans-Roman-74"/>
     <use x="1224.171875" xlink:href="#BitstreamVeraSans-Roman-61"/>
     <use x="1285.451171875" xlink:href="#BitstreamVeraSans-Roman-69"/>
     <use x="1313.234375" xlink:href="#BitstreamVeraSans-Roman-6e"/>
     <use x="1376.61328125" xlink:href="#BitstreamVeraSans-Roman-65"/>
     <use x="1438.13671875" xlink:href="#BitstreamVeraSans-Roman-64"/>
    </g>
   </g>
  </g>
 </g>
 <defs>
  <clipPath id="pb1d31fb1e5">
   <rect height="345.6" width="446.4" x="43.08375" y="23.14175"/>
  </clipPath>
 </defs>
</svg>
