<?xml version="1.0" encoding="utf-8" standalone="no"?>
<!DOCTYPE svg PUBLIC "-//W3C//DTD SVG 1.1//EN"
  "http://www.w3.org/Graphics/SVG/1.1/DTD/svg11.dtd">
<!-- Created with matplotlib (http://matplotlib.org/) -->
<svg height="408pt" version="1.1" viewBox="0 0 511 408" width="511pt" xmlns="http://www.w3.org/2000/svg" xmlns:xlink="http://www.w3.org/1999/xlink">
 <defs>
  <style type="text/css">
*{stroke-linecap:butt;stroke-linejoin:round;stroke-miterlimit:100000;}
  </style>
 </defs>
 <g id="figure_1">
  <g id="patch_1">
   <path d="M 0 408.16925 
L 511.95 408.16925 
L 511.95 0 
L 0 0 
z
" style="fill:#ffffff;"/>
  </g>
  <g id="axes_1">
   <g id="patch_2">
    <path d="M 46.8975 368.74175 
L 493.2975 368.74175 
L 493.2975 23.14175 
L 46.8975 23.14175 
z
" style="fill:#ffffff;"/>
   </g>
   <g id="line2d_1">
    <path clip-path="url(#pdc621793c9)" d="M 46.8975 262.324077 
L 47.4555 261.504864 
L 48.0135 257.045079 
L 48.5715 261.418898 
L 49.6875 262.245013 
L 50.2455 262.882797 
L 50.8035 264.155175 
L 51.3615 264.732333 
L 51.9195 266.0629 
L 52.4775 261.128608 
L 53.5935 260.667946 
L 54.1515 261.232528 
L 54.7095 266.323245 
L 55.2675 260.811423 
L 55.8255 264.87453 
L 56.3835 258.194273 
L 56.9415 262.560275 
L 57.4995 263.975781 
L 58.0575 263.706859 
L 58.6155 266.686236 
L 59.1735 262.474668 
L 59.7315 259.818328 
L 60.2895 267.620424 
L 60.8475 261.246212 
L 61.4055 260.629918 
L 61.9635 265.179445 
L 62.5215 265.044448 
L 63.0795 267.144972 
L 63.6375 265.991384 
L 64.1955 259.329824 
L 64.7535 261.790234 
L 65.3115 259.93756 
L 65.8695 265.445347 
L 66.4275 264.515257 
L 66.9855 255.522242 
L 67.5435 261.038761 
L 68.1015 255.102837 
L 69.2175 263.30944 
L 69.7755 265.102476 
L 70.3335 263.755416 
L 70.8915 269.550322 
L 71.4495 265.591296 
L 72.0075 268.564069 
L 72.5655 259.946086 
L 73.1235 256.607629 
L 73.6815 262.653558 
L 74.2395 257.942925 
L 74.7975 264.140111 
L 75.3555 261.170046 
L 75.9135 265.712722 
L 77.0295 263.059227 
L 77.5875 263.180516 
L 78.1455 261.344577 
L 78.7035 259.124554 
L 79.2615 257.687389 
L 79.8195 263.411912 
L 80.9355 260.566728 
L 81.4935 263.173999 
L 82.0515 261.990887 
L 82.6095 259.377806 
L 83.1675 256.214838 
L 83.7255 261.250565 
L 84.2835 267.350848 
L 84.8415 267.174211 
L 85.3995 258.548617 
L 85.9575 265.984088 
L 86.5155 270.202671 
L 87.0735 258.428781 
L 87.6315 265.515963 
L 88.1895 266.408227 
L 88.7475 260.00192 
L 89.3055 262.513739 
L 89.8635 266.606527 
L 90.4215 267.424325 
L 90.9795 262.961935 
L 91.5375 262.196041 
L 92.0955 262.124696 
L 92.6535 264.853137 
L 93.2115 264.621285 
L 93.7695 263.318333 
L 94.3275 259.451471 
L 94.8855 264.208284 
L 95.4435 259.861945 
L 96.0015 259.284382 
L 96.5595 261.35202 
L 97.1175 257.730409 
L 97.6755 265.74523 
L 98.7915 259.134909 
L 99.3495 264.624025 
L 99.9075 258.983674 
L 100.4655 265.523649 
L 101.0235 267.583527 
L 101.5815 267.124992 
L 102.1395 262.364617 
L 102.6975 266.08348 
L 103.2555 265.882355 
L 103.8135 258.492561 
L 104.3715 270.424278 
L 104.9295 261.509316 
L 105.4875 269.629041 
L 106.0455 266.921219 
L 106.6035 257.408443 
L 107.1615 265.899787 
L 107.7195 257.464133 
L 108.2775 269.194506 
L 108.8355 265.318401 
L 109.3935 263.318364 
L 109.9515 263.154366 
L 110.5095 260.166531 
L 111.0675 258.554462 
L 111.6255 268.170243 
L 112.1835 262.749046 
L 112.7415 267.652708 
L 113.2995 262.340777 
L 113.8575 263.793628 
L 114.4155 258.703707 
L 114.9735 260.496839 
L 115.5315 264.861074 
L 116.0895 262.322826 
L 116.6475 270.813195 
L 117.2055 262.741787 
L 117.7635 264.762836 
L 118.3215 267.97462 
L 119.4375 258.309559 
L 119.9955 264.680203 
L 120.5535 257.90113 
L 121.1115 267.111678 
L 121.6695 262.542276 
L 122.2275 259.986006 
L 122.7855 260.211888 
L 123.3435 258.525156 
L 123.9015 258.057591 
L 124.4595 259.118496 
L 125.0175 268.993884 
L 125.5755 260.539487 
L 126.1335 261.072711 
L 126.6915 264.231507 
L 127.2495 258.392094 
L 127.8075 264.47828 
L 128.3655 262.759381 
L 128.9235 268.095577 
L 130.0395 266.606262 
L 130.5975 262.283868 
L 131.1555 265.390976 
L 131.7135 262.847249 
L 132.2715 268.398815 
L 132.8295 260.619008 
L 133.3875 262.792483 
L 133.9455 261.137983 
L 134.5035 260.363082 
L 135.0615 264.284909 
L 135.6195 261.812727 
L 136.1775 264.686315 
L 136.7355 266.756252 
L 137.2935 263.963836 
L 137.8515 263.014039 
L 138.4095 268.089188 
L 138.9675 259.434408 
L 139.5255 264.46051 
L 140.0835 266.897353 
L 140.6415 263.00068 
L 141.1995 265.821723 
L 141.7575 268.018105 
L 142.3155 263.321768 
L 142.8735 302.892687 
L 143.4315 322.71943 
L 143.9895 312.990777 
L 145.1055 317.020989 
L 145.6635 313.799557 
L 146.2215 318.170716 
L 146.7795 315.983042 
L 147.3375 316.151352 
L 147.8955 314.5774 
L 148.4535 315.233093 
L 149.0115 314.72639 
L 149.5695 314.730456 
L 150.1275 314.041986 
L 150.6855 314.444668 
L 151.2435 313.65954 
L 151.8015 313.920726 
L 152.3595 312.591792 
L 152.9175 312.627573 
L 153.4755 312.470921 
L 154.0335 313.467023 
L 154.5915 312.793982 
L 155.1495 311.71219 
L 155.7075 311.347377 
L 156.2655 312.371141 
L 156.8235 311.731109 
L 157.3815 311.476875 
L 157.9395 311.986548 
L 158.4975 309.600561 
L 159.0555 310.781109 
L 159.6135 310.482861 
L 160.1715 306.420564 
L 160.7295 309.850981 
L 161.2875 308.172586 
L 161.8455 306.888605 
L 162.4035 309.443214 
L 162.9615 308.70555 
L 163.5195 307.64798 
L 164.0775 310.494123 
L 164.6355 305.860374 
L 165.1935 307.896134 
L 165.7515 307.955646 
L 166.3095 307.175385 
L 166.8675 308.202615 
L 167.4255 303.861351 
L 167.9835 305.816543 
L 168.5415 303.777271 
L 169.0995 303.848824 
L 169.6575 303.005474 
L 170.2155 298.271348 
L 170.7735 302.773894 
L 171.3315 301.4502 
L 171.8895 306.739567 
L 172.4475 303.030741 
L 173.0055 303.013411 
L 173.5635 304.384143 
L 174.1215 302.610612 
L 174.6795 301.887805 
L 175.2375 299.454167 
L 175.7955 305.455293 
L 176.3535 302.870772 
L 176.9115 301.017006 
L 177.4695 300.513515 
L 178.0275 298.375096 
L 179.1435 297.604618 
L 179.7015 291.641977 
L 180.2595 296.983848 
L 180.8175 292.124117 
L 181.3755 292.855725 
L 181.9335 294.509332 
L 182.4915 287.408732 
L 183.0495 298.751489 
L 184.1655 284.606467 
L 184.7235 297.954417 
L 185.2815 293.134505 
L 185.8395 287.322499 
L 186.3975 296.486037 
L 186.9555 283.084057 
L 187.5135 293.309662 
L 188.0715 292.873203 
L 188.6295 291.281835 
L 189.1875 293.925364 
L 189.7455 283.931822 
L 190.3035 283.741265 
L 190.8615 287.261623 
L 191.4195 287.103193 
L 191.9775 288.302088 
L 192.5355 280.549914 
L 193.0935 278.39218 
L 193.6515 282.969271 
L 194.2095 281.356701 
L 194.7675 285.500229 
L 195.3255 274.877708 
L 195.8835 279.458479 
L 196.4415 278.635914 
L 196.9995 279.381808 
L 197.5575 279.76792 
L 198.1155 280.69694 
L 198.6735 279.910261 
L 199.2315 278.299563 
L 199.7895 294.127273 
L 200.3475 291.079848 
L 200.9055 278.620776 
L 201.4635 284.043785 
L 202.0215 269.866937 
L 202.5795 278.233807 
L 203.1375 269.175893 
L 203.6955 277.95101 
L 204.2535 280.440179 
L 204.8115 276.367307 
L 205.3695 284.40587 
L 205.9275 276.499006 
L 206.4855 271.884013 
L 207.0435 262.487225 
L 207.6015 274.996377 
L 208.1595 267.246025 
L 208.7175 269.258808 
L 209.2755 261.257823 
L 209.8335 260.894662 
L 210.3915 268.184223 
L 210.9495 271.489889 
L 211.5075 269.608015 
L 212.0655 271.541149 
L 212.6235 258.067447 
L 213.1815 285.00383 
L 213.7395 269.898318 
L 214.2975 265.752745 
L 214.8555 256.23753 
L 215.4135 257.948859 
L 215.9715 275.717192 
L 216.5295 257.458474 
L 217.0875 266.658895 
L 217.6455 251.247675 
L 218.2035 264.514996 
L 218.7615 246.086446 
L 219.3195 269.885414 
L 219.8775 268.397648 
L 220.4355 252.741581 
L 220.9935 248.134687 
L 221.5515 251.749435 
L 222.1095 252.015852 
L 222.6675 265.178682 
L 223.2255 249.446251 
L 223.7835 254.195753 
L 224.3415 239.070681 
L 224.8995 244.379515 
L 225.4575 245.303062 
L 226.0155 255.403819 
L 226.5735 244.491927 
L 227.1315 266.475749 
L 227.6895 256.793506 
L 228.2475 258.419971 
L 228.8055 239.645493 
L 229.3635 246.497061 
L 229.9215 246.496333 
L 230.4795 285.306956 
L 231.0375 247.799222 
L 231.5955 243.108669 
L 232.1535 237.261285 
L 232.7115 233.135918 
L 233.2695 250.914493 
L 233.8275 237.02106 
L 234.3855 240.051307 
L 234.9435 238.273584 
L 235.5015 246.777113 
L 236.0595 232.977122 
L 236.6175 236.808944 
L 237.1755 235.888068 
L 237.7335 251.186077 
L 238.2915 232.224424 
L 238.8495 223.974614 
L 239.4075 267.502748 
L 239.9655 231.51878 
L 240.5235 232.718985 
L 241.0815 231.22502 
L 241.6395 260.59894 
L 242.1975 227.969819 
L 242.7555 218.252897 
L 243.3135 246.925309 
L 243.8715 231.224427 
L 244.4295 239.32624 
L 244.9875 221.081348 
L 246.1035 233.324284 
L 246.6615 232.698052 
L 247.7775 219.635202 
L 248.3355 239.126087 
L 248.8935 227.141952 
L 249.4515 226.944661 
L 250.0095 221.384947 
L 250.5675 234.571543 
L 251.1255 251.603109 
L 251.6835 231.091877 
L 252.2415 234.050596 
L 252.7995 215.78462 
L 253.3575 221.663353 
L 253.9155 217.441015 
L 254.4735 234.466714 
L 255.0315 226.631713 
L 255.5895 206.782455 
L 256.1475 225.927249 
L 256.7055 209.102864 
L 257.2635 211.822017 
L 257.8215 220.174819 
L 258.3795 198.34336 
L 258.9375 217.89252 
L 259.4955 214.706181 
L 260.0535 206.437182 
L 260.6115 206.951238 
L 261.1695 242.40286 
L 261.7275 234.507389 
L 262.2855 211.188232 
L 262.8435 233.682748 
L 263.4015 207.73457 
L 263.9595 193.564107 
L 264.5175 197.75718 
L 265.0755 194.97363 
L 265.6335 220.369148 
L 266.1915 198.543303 
L 266.7495 208.704739 
L 267.3075 213.005989 
L 267.8655 186.297989 
L 268.4235 199.391304 
L 268.9815 229.145652 
L 269.5395 198.595979 
L 270.0975 198.176494 
L 270.6555 204.300924 
L 271.2135 196.321969 
L 271.7715 208.983843 
L 272.3295 231.004017 
L 272.8875 229.81942 
L 273.4455 226.297262 
L 274.0035 217.691161 
L 274.5615 250.865914 
L 275.1195 195.952022 
L 275.6775 236.150824 
L 276.2355 200.298605 
L 276.7935 194.222497 
L 277.3515 221.682067 
L 277.9095 197.13446 
L 278.4675 197.395549 
L 279.0255 192.134261 
L 279.5835 197.33889 
L 280.1415 217.456349 
L 280.6995 190.575488 
L 281.2575 202.931597 
L 281.8155 201.89553 
L 282.9315 194.018752 
L 283.4895 184.37085 
L 284.0475 187.201169 
L 284.6055 188.701758 
L 285.1635 187.548132 
L 285.7215 195.453856 
L 286.2795 178.470781 
L 286.8375 190.358177 
L 287.3955 204.787022 
L 288.5115 151.773396 
L 289.0695 252.406179 
L 289.6275 183.025986 
L 290.1855 194.490341 
L 290.7435 170.719576 
L 291.3015 188.62615 
L 291.8595 225.245383 
L 292.4175 195.233265 
L 292.9755 212.441368 
L 293.5335 222.721723 
L 294.0915 175.639976 
L 294.6495 171.975406 
L 295.2075 188.363432 
L 295.7655 200.082951 
L 296.8815 166.043475 
L 297.4395 167.957385 
L 297.9975 166.530187 
L 298.5555 164.092106 
L 299.1135 176.85093 
L 299.6715 167.333819 
L 300.2295 178.350939 
L 300.7875 183.925535 
L 301.3455 204.926982 
L 301.9035 192.107067 
L 302.4615 150.754384 
L 303.0195 209.957044 
L 303.5775 178.528486 
L 304.1355 215.231843 
L 304.6935 180.799392 
L 305.2515 156.144234 
L 305.8095 171.817402 
L 306.3675 161.740171 
L 306.9255 211.164602 
L 307.4835 165.782302 
L 308.0415 157.450403 
L 308.5995 184.225286 
L 309.1575 168.408301 
L 309.7155 160.613176 
L 310.2735 176.180704 
L 310.8315 173.452554 
L 311.3895 164.453605 
L 312.5055 151.412011 
L 313.0635 133.619901 
L 313.6215 193.237029 
L 314.1795 202.876684 
L 314.7375 167.357925 
L 315.2955 167.185029 
L 315.8535 149.951542 
L 316.4115 169.774451 
L 316.9695 134.211155 
L 317.5275 141.882367 
L 318.0855 168.367627 
L 318.6435 161.299836 
L 319.2015 163.759551 
L 319.7595 161.114034 
L 320.3175 163.323963 
L 320.8755 158.610227 
L 321.4335 214.054441 
L 321.9915 153.194234 
L 322.5495 182.203073 
L 323.1075 174.413538 
L 323.6655 144.942357 
L 324.2235 154.432442 
L 324.7815 155.490665 
L 325.3395 133.406979 
L 325.8975 174.237861 
L 326.4555 139.684913 
L 327.0135 180.114859 
L 328.1295 156.461202 
L 328.6875 125.280559 
L 329.2455 141.909065 
L 330.3615 233.23686 
L 330.9195 148.607793 
L 331.4775 139.845064 
L 332.0355 146.249104 
L 332.5935 137.367972 
L 333.1515 134.131868 
L 333.7095 161.326308 
L 334.2675 197.655358 
L 334.8255 152.066672 
L 335.3835 142.658825 
L 335.9415 174.210393 
L 336.4995 164.992658 
L 337.0575 161.106347 
L 337.6155 133.95959 
L 338.1735 166.496393 
L 338.7315 171.805503 
L 339.2895 124.111361 
L 339.8475 194.753805 
L 340.4055 148.02642 
L 340.9635 199.236962 
L 341.5215 157.910486 
L 342.0795 176.662941 
L 342.6375 141.009503 
L 343.1955 128.917014 
L 343.7535 127.273798 
L 344.3115 142.759517 
L 344.8695 136.481516 
L 345.4275 184.856688 
L 345.9855 146.608591 
L 346.5435 169.56785 
L 347.1015 119.917173 
L 347.6595 125.345215 
L 348.2175 148.904801 
L 348.7755 141.956323 
L 349.3335 126.057545 
L 349.8915 130.314197 
L 350.4495 145.359039 
L 351.0075 175.439943 
L 351.5655 134.515878 
L 352.1235 132.527429 
L 352.6815 128.893536 
L 353.2395 134.979296 
L 353.7975 121.027444 
L 354.3555 130.234008 
L 354.9135 120.334853 
L 355.4715 132.116731 
L 356.0295 130.972847 
L 356.5875 133.956481 
L 357.1455 144.50485 
L 357.7035 140.184914 
L 358.8195 118.454523 
L 359.3775 121.396638 
L 359.9355 141.522048 
L 360.4935 115.671845 
L 361.0515 143.30335 
L 361.6095 117.615761 
L 362.1675 118.717259 
L 362.7255 154.43386 
L 363.2835 127.646013 
L 363.8415 145.067046 
L 364.3995 107.537902 
L 364.9575 163.123922 
L 365.5155 147.703083 
L 366.0735 137.142666 
L 366.6315 122.605499 
L 367.1895 126.597337 
L 367.7475 126.714446 
L 368.3055 131.323185 
L 368.8635 122.586548 
L 369.4215 131.359775 
L 369.9795 112.27482 
L 370.5375 124.404382 
L 371.0955 155.091372 
L 371.6535 112.465511 
L 372.2115 122.492035 
L 372.7695 93.465985 
L 373.3275 132.30416 
L 373.8855 103.965219 
L 374.4435 122.776262 
L 375.0015 118.948374 
L 375.5595 123.889284 
L 376.1175 182.648701 
L 376.6755 123.99824 
L 377.2335 144.015832 
L 377.7915 129.284979 
L 378.3495 118.50001 
L 378.9075 143.469331 
L 380.0235 134.803972 
L 380.5815 126.339124 
L 381.1395 106.835299 
L 381.6975 101.565749 
L 382.2555 104.488883 
L 382.8135 115.509502 
L 383.3715 138.69352 
L 383.9295 124.663499 
L 384.4875 130.379279 
L 385.6035 113.553509 
L 386.1615 93.166516 
L 386.7195 96.942501 
L 387.2775 116.911516 
L 387.8355 101.230409 
L 388.3935 107.919006 
L 388.9515 105.694149 
L 389.5095 193.748428 
L 390.0675 89.806765 
L 391.1835 110.140956 
L 391.7415 147.959589 
L 392.2995 110.117764 
L 392.8575 111.764827 
L 393.4155 201.682097 
L 393.9735 139.507699 
L 394.5315 112.901454 
L 395.0895 136.17613 
L 395.6475 91.799983 
L 396.2055 96.328698 
L 396.7635 99.912746 
L 397.3215 118.72472 
L 397.8795 84.896873 
L 398.4375 80.506526 
L 398.9955 101.719732 
L 399.5535 111.082488 
L 400.1115 78.839375 
L 400.6695 109.979826 
L 401.2275 95.298377 
L 401.7855 109.62929 
L 402.3435 97.671112 
L 402.9015 119.020884 
L 403.4595 176.962795 
L 404.0175 162.009409 
L 404.5755 105.692112 
L 405.1335 105.212016 
L 405.6915 87.78935 
L 406.2495 101.821752 
L 406.8075 102.136336 
L 407.3655 89.710991 
L 407.9235 126.39341 
L 408.4815 95.712923 
L 409.0395 101.340446 
L 409.5975 71.688257 
L 410.1555 90.436174 
L 410.7135 76.552068 
L 411.2715 117.822266 
L 411.8295 96.307666 
L 412.3875 67.691195 
L 412.9455 89.077164 
L 413.5035 83.613998 
L 414.0615 120.944183 
L 414.6195 169.210631 
L 415.1775 117.180769 
L 415.7355 121.567661 
L 416.2935 154.522774 
L 416.8515 92.782701 
L 417.4095 100.358185 
L 417.9675 82.487261 
L 418.5255 90.984735 
L 419.0835 89.865279 
L 419.6415 117.397948 
L 420.1995 106.590992 
L 420.7575 122.12927 
L 421.3155 92.383446 
L 421.8735 90.430128 
L 422.4315 137.83836 
L 422.9895 68.964888 
L 423.5475 89.783484 
L 424.1055 85.579264 
L 424.6635 87.559653 
L 425.2215 119.947611 
L 425.7795 90.761337 
L 426.3375 85.456831 
L 426.8955 70.884195 
L 427.4535 61.218873 
L 428.0115 70.29409 
L 428.5695 104.06752 
L 429.1275 113.541807 
L 429.6855 84.673041 
L 430.2435 124.547666 
L 430.8015 85.906051 
L 431.3595 75.232774 
L 431.9175 105.477766 
L 432.4755 79.502269 
L 433.0335 71.519346 
L 433.5915 80.815825 
L 434.1495 66.949387 
L 434.7075 128.29199 
L 435.2655 66.987762 
L 435.8235 70.681167 
L 436.3815 76.104713 
L 436.9395 70.193888 
L 437.4975 105.713503 
L 438.0555 94.531488 
L 438.6135 73.013939 
L 439.1715 113.221506 
L 439.7295 66.647033 
L 440.2875 139.266911 
L 440.8455 70.405902 
L 441.4035 66.899461 
L 441.9615 113.800186 
L 442.5195 76.319687 
L 443.0775 66.699601 
L 443.6355 77.526038 
L 444.1935 132.44675 
L 444.7515 77.108849 
L 445.3095 79.860645 
L 445.8675 77.314972 
L 446.4255 65.682017 
L 446.9835 84.709188 
L 447.5415 75.651503 
L 448.0995 69.899626 
L 448.6575 69.562354 
L 449.7735 58.358304 
L 450.3315 56.495114 
L 450.8895 71.211163 
L 451.4475 101.479489 
L 452.0055 70.802396 
L 452.5635 88.800802 
L 453.1215 72.738459 
L 453.6795 70.414356 
L 454.2375 65.776147 
L 454.7955 75.97363 
L 455.3535 59.03347 
L 455.9115 77.925532 
L 456.4695 84.088157 
L 457.0275 60.561474 
L 457.5855 57.954118 
L 458.1435 96.443699 
L 458.7015 57.503283 
L 459.2595 79.593375 
L 459.8175 61.777282 
L 460.3755 89.88103 
L 460.9335 89.782217 
L 461.4915 61.798203 
L 462.0495 141.700627 
L 462.6075 96.485356 
L 463.1655 80.982259 
L 463.7235 77.785774 
L 464.2815 53.017705 
L 464.8395 59.532819 
L 465.3975 45.288043 
L 465.9555 127.072052 
L 466.5135 48.537707 
L 467.0715 63.229822 
L 468.1875 75.776812 
L 468.7455 78.236211 
L 469.3035 100.101862 
L 469.8615 57.710755 
L 470.4195 49.339043 
L 470.9775 75.053907 
L 471.5355 55.337938 
L 472.0935 102.916569 
L 472.6515 50.274905 
L 473.2095 54.533737 
L 473.7675 62.080972 
L 474.3255 52.891748 
L 474.8835 85.860266 
L 475.4415 48.624952 
L 475.9995 157.484355 
L 476.5575 126.48654 
L 477.1155 53.086531 
L 477.6735 64.299465 
L 478.7895 32.363587 
L 479.3475 52.388881 
L 479.9055 40.153252 
L 480.4635 77.504432 
L 481.0215 34.588832 
L 481.5795 49.511216 
L 482.1375 45.314067 
L 482.6955 35.816386 
L 483.2535 49.252877 
L 484.3695 28.89198 
L 485.4855 48.918794 
L 486.0435 76.209272 
L 486.6015 34.773548 
L 487.1595 54.409966 
L 487.7175 51.601838 
L 488.2755 38.601756 
L 488.8335 45.345862 
L 489.3915 56.25113 
L 489.9495 57.922155 
L 490.5075 83.506804 
L 491.6235 46.858247 
L 492.1815 29.550198 
L 492.7395 76.584882 
L 492.7395 76.584882 
" style="fill:none;stroke:#0000ff;stroke-linecap:square;stroke-width:0.5;"/>
   </g>
   <g id="patch_3">
    <path d="M 46.8975 368.74175 
L 46.8975 23.14175 
" style="fill:none;stroke:#000000;stroke-linecap:square;stroke-linejoin:miter;"/>
   </g>
   <g id="patch_4">
    <path d="M 493.2975 368.74175 
L 493.2975 23.14175 
" style="fill:none;stroke:#000000;stroke-linecap:square;stroke-linejoin:miter;"/>
   </g>
   <g id="patch_5">
    <path d="M 46.8975 368.74175 
L 493.2975 368.74175 
" style="fill:none;stroke:#000000;stroke-linecap:square;stroke-linejoin:miter;"/>
   </g>
   <g id="patch_6">
    <path d="M 46.8975 23.14175 
L 493.2975 23.14175 
" style="fill:none;stroke:#000000;stroke-linecap:square;stroke-linejoin:miter;"/>
   </g>
   <g id="matplotlib.axis_1">
    <g id="xtick_1">
     <g id="line2d_2">
      <defs>
       <path d="M 0 0 
L 0 -4 
" id="med8b3c310f" style="stroke:#000000;stroke-width:0.5;"/>
      </defs>
      <g>
       <use style="stroke:#000000;stroke-width:0.5;" x="46.8975" xlink:href="#med8b3c310f" y="368.74175"/>
      </g>
     </g>
     <g id="line2d_3">
      <defs>
       <path d="M 0 0 
L 0 4 
" id="mf83203770a" style="stroke:#000000;stroke-width:0.5;"/>
      </defs>
      <g>
       <use style="stroke:#000000;stroke-width:0.5;" x="46.8975" xlink:href="#mf83203770a" y="23.14175"/>
      </g>
     </g>
     <g id="text_1">
      <!-- 0 -->
      <defs>
       <path d="M 31.78125 66.40625 
Q 24.171875 66.40625 20.328125 58.90625 
Q 16.5 51.421875 16.5 36.375 
Q 16.5 21.390625 20.328125 13.890625 
Q 24.171875 6.390625 31.78125 6.390625 
Q 39.453125 6.390625 43.28125 13.890625 
Q 47.125 21.390625 47.125 36.375 
Q 47.125 51.421875 43.28125 58.90625 
Q 39.453125 66.40625 31.78125 66.40625 
M 31.78125 74.21875 
Q 44.046875 74.21875 50.515625 64.515625 
Q 56.984375 54.828125 56.984375 36.375 
Q 56.984375 17.96875 50.515625 8.265625 
Q 44.046875 -1.421875 31.78125 -1.421875 
Q 19.53125 -1.421875 13.0625 8.265625 
Q 6.59375 17.96875 6.59375 36.375 
Q 6.59375 54.828125 13.0625 64.515625 
Q 19.53125 74.21875 31.78125 74.21875 
" id="BitstreamVeraSans-Roman-30"/>
      </defs>
      <g transform="translate(43.08 381.859875)scale(0.12 -0.12)">
       <use xlink:href="#BitstreamVeraSans-Roman-30"/>
      </g>
     </g>
    </g>
    <g id="xtick_2">
     <g id="line2d_4">
      <g>
       <use style="stroke:#000000;stroke-width:0.5;" x="102.6975" xlink:href="#med8b3c310f" y="368.74175"/>
      </g>
     </g>
     <g id="line2d_5">
      <g>
       <use style="stroke:#000000;stroke-width:0.5;" x="102.6975" xlink:href="#mf83203770a" y="23.14175"/>
      </g>
     </g>
     <g id="text_2">
      <!-- 100 -->
      <defs>
       <path d="M 12.40625 8.296875 
L 28.515625 8.296875 
L 28.515625 63.921875 
L 10.984375 60.40625 
L 10.984375 69.390625 
L 28.421875 72.90625 
L 38.28125 72.90625 
L 38.28125 8.296875 
L 54.390625 8.296875 
L 54.390625 0 
L 12.40625 0 
z
" id="BitstreamVeraSans-Roman-31"/>
      </defs>
      <g transform="translate(91.245 381.859875)scale(0.12 -0.12)">
       <use xlink:href="#BitstreamVeraSans-Roman-31"/>
       <use x="63.623046875" xlink:href="#BitstreamVeraSans-Roman-30"/>
       <use x="127.24609375" xlink:href="#BitstreamVeraSans-Roman-30"/>
      </g>
     </g>
    </g>
    <g id="xtick_3">
     <g id="line2d_6">
      <g>
       <use style="stroke:#000000;stroke-width:0.5;" x="158.4975" xlink:href="#med8b3c310f" y="368.74175"/>
      </g>
     </g>
     <g id="line2d_7">
      <g>
       <use style="stroke:#000000;stroke-width:0.5;" x="158.4975" xlink:href="#mf83203770a" y="23.14175"/>
      </g>
     </g>
     <g id="text_3">
      <!-- 200 -->
      <defs>
       <path d="M 19.1875 8.296875 
L 53.609375 8.296875 
L 53.609375 0 
L 7.328125 0 
L 7.328125 8.296875 
Q 12.9375 14.109375 22.625 23.890625 
Q 32.328125 33.6875 34.8125 36.53125 
Q 39.546875 41.84375 41.421875 45.53125 
Q 43.3125 49.21875 43.3125 52.78125 
Q 43.3125 58.59375 39.234375 62.25 
Q 35.15625 65.921875 28.609375 65.921875 
Q 23.96875 65.921875 18.8125 64.3125 
Q 13.671875 62.703125 7.8125 59.421875 
L 7.8125 69.390625 
Q 13.765625 71.78125 18.9375 73 
Q 24.125 74.21875 28.421875 74.21875 
Q 39.75 74.21875 46.484375 68.546875 
Q 53.21875 62.890625 53.21875 53.421875 
Q 53.21875 48.921875 51.53125 44.890625 
Q 49.859375 40.875 45.40625 35.40625 
Q 44.1875 33.984375 37.640625 27.21875 
Q 31.109375 20.453125 19.1875 8.296875 
" id="BitstreamVeraSans-Roman-32"/>
      </defs>
      <g transform="translate(147.045 381.859875)scale(0.12 -0.12)">
       <use xlink:href="#BitstreamVeraSans-Roman-32"/>
       <use x="63.623046875" xlink:href="#BitstreamVeraSans-Roman-30"/>
       <use x="127.24609375" xlink:href="#BitstreamVeraSans-Roman-30"/>
      </g>
     </g>
    </g>
    <g id="xtick_4">
     <g id="line2d_8">
      <g>
       <use style="stroke:#000000;stroke-width:0.5;" x="214.2975" xlink:href="#med8b3c310f" y="368.74175"/>
      </g>
     </g>
     <g id="line2d_9">
      <g>
       <use style="stroke:#000000;stroke-width:0.5;" x="214.2975" xlink:href="#mf83203770a" y="23.14175"/>
      </g>
     </g>
     <g id="text_4">
      <!-- 300 -->
      <defs>
       <path d="M 40.578125 39.3125 
Q 47.65625 37.796875 51.625 33 
Q 55.609375 28.21875 55.609375 21.1875 
Q 55.609375 10.40625 48.1875 4.484375 
Q 40.765625 -1.421875 27.09375 -1.421875 
Q 22.515625 -1.421875 17.65625 -0.515625 
Q 12.796875 0.390625 7.625 2.203125 
L 7.625 11.71875 
Q 11.71875 9.328125 16.59375 8.109375 
Q 21.484375 6.890625 26.8125 6.890625 
Q 36.078125 6.890625 40.9375 10.546875 
Q 45.796875 14.203125 45.796875 21.1875 
Q 45.796875 27.640625 41.28125 31.265625 
Q 36.765625 34.90625 28.71875 34.90625 
L 20.21875 34.90625 
L 20.21875 43.015625 
L 29.109375 43.015625 
Q 36.375 43.015625 40.234375 45.921875 
Q 44.09375 48.828125 44.09375 54.296875 
Q 44.09375 59.90625 40.109375 62.90625 
Q 36.140625 65.921875 28.71875 65.921875 
Q 24.65625 65.921875 20.015625 65.03125 
Q 15.375 64.15625 9.8125 62.3125 
L 9.8125 71.09375 
Q 15.4375 72.65625 20.34375 73.4375 
Q 25.25 74.21875 29.59375 74.21875 
Q 40.828125 74.21875 47.359375 69.109375 
Q 53.90625 64.015625 53.90625 55.328125 
Q 53.90625 49.265625 50.4375 45.09375 
Q 46.96875 40.921875 40.578125 39.3125 
" id="BitstreamVeraSans-Roman-33"/>
      </defs>
      <g transform="translate(202.845 381.859875)scale(0.12 -0.12)">
       <use xlink:href="#BitstreamVeraSans-Roman-33"/>
       <use x="63.623046875" xlink:href="#BitstreamVeraSans-Roman-30"/>
       <use x="127.24609375" xlink:href="#BitstreamVeraSans-Roman-30"/>
      </g>
     </g>
    </g>
    <g id="xtick_5">
     <g id="line2d_10">
      <g>
       <use style="stroke:#000000;stroke-width:0.5;" x="270.0975" xlink:href="#med8b3c310f" y="368.74175"/>
      </g>
     </g>
     <g id="line2d_11">
      <g>
       <use style="stroke:#000000;stroke-width:0.5;" x="270.0975" xlink:href="#mf83203770a" y="23.14175"/>
      </g>
     </g>
     <g id="text_5">
      <!-- 400 -->
      <defs>
       <path d="M 37.796875 64.3125 
L 12.890625 25.390625 
L 37.796875 25.390625 
z
M 35.203125 72.90625 
L 47.609375 72.90625 
L 47.609375 25.390625 
L 58.015625 25.390625 
L 58.015625 17.1875 
L 47.609375 17.1875 
L 47.609375 0 
L 37.796875 0 
L 37.796875 17.1875 
L 4.890625 17.1875 
L 4.890625 26.703125 
z
" id="BitstreamVeraSans-Roman-34"/>
      </defs>
      <g transform="translate(258.645 381.859875)scale(0.12 -0.12)">
       <use xlink:href="#BitstreamVeraSans-Roman-34"/>
       <use x="63.623046875" xlink:href="#BitstreamVeraSans-Roman-30"/>
       <use x="127.24609375" xlink:href="#BitstreamVeraSans-Roman-30"/>
      </g>
     </g>
    </g>
    <g id="xtick_6">
     <g id="line2d_12">
      <g>
       <use style="stroke:#000000;stroke-width:0.5;" x="325.8975" xlink:href="#med8b3c310f" y="368.74175"/>
      </g>
     </g>
     <g id="line2d_13">
      <g>
       <use style="stroke:#000000;stroke-width:0.5;" x="325.8975" xlink:href="#mf83203770a" y="23.14175"/>
      </g>
     </g>
     <g id="text_6">
      <!-- 500 -->
      <defs>
       <path d="M 10.796875 72.90625 
L 49.515625 72.90625 
L 49.515625 64.59375 
L 19.828125 64.59375 
L 19.828125 46.734375 
Q 21.96875 47.46875 24.109375 47.828125 
Q 26.265625 48.1875 28.421875 48.1875 
Q 40.625 48.1875 47.75 41.5 
Q 54.890625 34.8125 54.890625 23.390625 
Q 54.890625 11.625 47.5625 5.09375 
Q 40.234375 -1.421875 26.90625 -1.421875 
Q 22.3125 -1.421875 17.546875 -0.640625 
Q 12.796875 0.140625 7.71875 1.703125 
L 7.71875 11.625 
Q 12.109375 9.234375 16.796875 8.0625 
Q 21.484375 6.890625 26.703125 6.890625 
Q 35.15625 6.890625 40.078125 11.328125 
Q 45.015625 15.765625 45.015625 23.390625 
Q 45.015625 31 40.078125 35.4375 
Q 35.15625 39.890625 26.703125 39.890625 
Q 22.75 39.890625 18.8125 39.015625 
Q 14.890625 38.140625 10.796875 36.28125 
z
" id="BitstreamVeraSans-Roman-35"/>
      </defs>
      <g transform="translate(314.445 381.859875)scale(0.12 -0.12)">
       <use xlink:href="#BitstreamVeraSans-Roman-35"/>
       <use x="63.623046875" xlink:href="#BitstreamVeraSans-Roman-30"/>
       <use x="127.24609375" xlink:href="#BitstreamVeraSans-Roman-30"/>
      </g>
     </g>
    </g>
    <g id="xtick_7">
     <g id="line2d_14">
      <g>
       <use style="stroke:#000000;stroke-width:0.5;" x="381.6975" xlink:href="#med8b3c310f" y="368.74175"/>
      </g>
     </g>
     <g id="line2d_15">
      <g>
       <use style="stroke:#000000;stroke-width:0.5;" x="381.6975" xlink:href="#mf83203770a" y="23.14175"/>
      </g>
     </g>
     <g id="text_7">
      <!-- 600 -->
      <defs>
       <path d="M 33.015625 40.375 
Q 26.375 40.375 22.484375 35.828125 
Q 18.609375 31.296875 18.609375 23.390625 
Q 18.609375 15.53125 22.484375 10.953125 
Q 26.375 6.390625 33.015625 6.390625 
Q 39.65625 6.390625 43.53125 10.953125 
Q 47.40625 15.53125 47.40625 23.390625 
Q 47.40625 31.296875 43.53125 35.828125 
Q 39.65625 40.375 33.015625 40.375 
M 52.59375 71.296875 
L 52.59375 62.3125 
Q 48.875 64.0625 45.09375 64.984375 
Q 41.3125 65.921875 37.59375 65.921875 
Q 27.828125 65.921875 22.671875 59.328125 
Q 17.53125 52.734375 16.796875 39.40625 
Q 19.671875 43.65625 24.015625 45.921875 
Q 28.375 48.1875 33.59375 48.1875 
Q 44.578125 48.1875 50.953125 41.515625 
Q 57.328125 34.859375 57.328125 23.390625 
Q 57.328125 12.15625 50.6875 5.359375 
Q 44.046875 -1.421875 33.015625 -1.421875 
Q 20.359375 -1.421875 13.671875 8.265625 
Q 6.984375 17.96875 6.984375 36.375 
Q 6.984375 53.65625 15.1875 63.9375 
Q 23.390625 74.21875 37.203125 74.21875 
Q 40.921875 74.21875 44.703125 73.484375 
Q 48.484375 72.75 52.59375 71.296875 
" id="BitstreamVeraSans-Roman-36"/>
      </defs>
      <g transform="translate(370.245 381.859875)scale(0.12 -0.12)">
       <use xlink:href="#BitstreamVeraSans-Roman-36"/>
       <use x="63.623046875" xlink:href="#BitstreamVeraSans-Roman-30"/>
       <use x="127.24609375" xlink:href="#BitstreamVeraSans-Roman-30"/>
      </g>
     </g>
    </g>
    <g id="xtick_8">
     <g id="line2d_16">
      <g>
       <use style="stroke:#000000;stroke-width:0.5;" x="437.4975" xlink:href="#med8b3c310f" y="368.74175"/>
      </g>
     </g>
     <g id="line2d_17">
      <g>
       <use style="stroke:#000000;stroke-width:0.5;" x="437.4975" xlink:href="#mf83203770a" y="23.14175"/>
      </g>
     </g>
     <g id="text_8">
      <!-- 700 -->
      <defs>
       <path d="M 8.203125 72.90625 
L 55.078125 72.90625 
L 55.078125 68.703125 
L 28.609375 0 
L 18.3125 0 
L 43.21875 64.59375 
L 8.203125 64.59375 
z
" id="BitstreamVeraSans-Roman-37"/>
      </defs>
      <g transform="translate(426.045 381.859875)scale(0.12 -0.12)">
       <use xlink:href="#BitstreamVeraSans-Roman-37"/>
       <use x="63.623046875" xlink:href="#BitstreamVeraSans-Roman-30"/>
       <use x="127.24609375" xlink:href="#BitstreamVeraSans-Roman-30"/>
      </g>
     </g>
    </g>
    <g id="xtick_9">
     <g id="line2d_18">
      <g>
       <use style="stroke:#000000;stroke-width:0.5;" x="493.2975" xlink:href="#med8b3c310f" y="368.74175"/>
      </g>
     </g>
     <g id="line2d_19">
      <g>
       <use style="stroke:#000000;stroke-width:0.5;" x="493.2975" xlink:href="#mf83203770a" y="23.14175"/>
      </g>
     </g>
     <g id="text_9">
      <!-- 800 -->
      <defs>
       <path d="M 31.78125 34.625 
Q 24.75 34.625 20.71875 30.859375 
Q 16.703125 27.09375 16.703125 20.515625 
Q 16.703125 13.921875 20.71875 10.15625 
Q 24.75 6.390625 31.78125 6.390625 
Q 38.8125 6.390625 42.859375 10.171875 
Q 46.921875 13.96875 46.921875 20.515625 
Q 46.921875 27.09375 42.890625 30.859375 
Q 38.875 34.625 31.78125 34.625 
M 21.921875 38.8125 
Q 15.578125 40.375 12.03125 44.71875 
Q 8.5 49.078125 8.5 55.328125 
Q 8.5 64.0625 14.71875 69.140625 
Q 20.953125 74.21875 31.78125 74.21875 
Q 42.671875 74.21875 48.875 69.140625 
Q 55.078125 64.0625 55.078125 55.328125 
Q 55.078125 49.078125 51.53125 44.71875 
Q 48 40.375 41.703125 38.8125 
Q 48.828125 37.15625 52.796875 32.3125 
Q 56.78125 27.484375 56.78125 20.515625 
Q 56.78125 9.90625 50.3125 4.234375 
Q 43.84375 -1.421875 31.78125 -1.421875 
Q 19.734375 -1.421875 13.25 4.234375 
Q 6.78125 9.90625 6.78125 20.515625 
Q 6.78125 27.484375 10.78125 32.3125 
Q 14.796875 37.15625 21.921875 38.8125 
M 18.3125 54.390625 
Q 18.3125 48.734375 21.84375 45.5625 
Q 25.390625 42.390625 31.78125 42.390625 
Q 38.140625 42.390625 41.71875 45.5625 
Q 45.3125 48.734375 45.3125 54.390625 
Q 45.3125 60.0625 41.71875 63.234375 
Q 38.140625 66.40625 31.78125 66.40625 
Q 25.390625 66.40625 21.84375 63.234375 
Q 18.3125 60.0625 18.3125 54.390625 
" id="BitstreamVeraSans-Roman-38"/>
      </defs>
      <g transform="translate(481.845 381.859875)scale(0.12 -0.12)">
       <use xlink:href="#BitstreamVeraSans-Roman-38"/>
       <use x="63.623046875" xlink:href="#BitstreamVeraSans-Roman-30"/>
       <use x="127.24609375" xlink:href="#BitstreamVeraSans-Roman-30"/>
      </g>
     </g>
    </g>
    <g id="text_10">
     <!-- episode -->
     <defs>
      <path d="M 56.203125 29.59375 
L 56.203125 25.203125 
L 14.890625 25.203125 
Q 15.484375 15.921875 20.484375 11.0625 
Q 25.484375 6.203125 34.421875 6.203125 
Q 39.59375 6.203125 44.453125 7.46875 
Q 49.3125 8.734375 54.109375 11.28125 
L 54.109375 2.78125 
Q 49.265625 0.734375 44.1875 -0.34375 
Q 39.109375 -1.421875 33.890625 -1.421875 
Q 20.796875 -1.421875 13.15625 6.1875 
Q 5.515625 13.8125 5.515625 26.8125 
Q 5.515625 40.234375 12.765625 48.109375 
Q 20.015625 56 32.328125 56 
Q 43.359375 56 49.78125 48.890625 
Q 56.203125 41.796875 56.203125 29.59375 
M 47.21875 32.234375 
Q 47.125 39.59375 43.09375 43.984375 
Q 39.0625 48.390625 32.421875 48.390625 
Q 24.90625 48.390625 20.390625 44.140625 
Q 15.875 39.890625 15.1875 32.171875 
z
" id="BitstreamVeraSans-Roman-65"/>
      <path d="M 18.109375 8.203125 
L 18.109375 -20.796875 
L 9.078125 -20.796875 
L 9.078125 54.6875 
L 18.109375 54.6875 
L 18.109375 46.390625 
Q 20.953125 51.265625 25.265625 53.625 
Q 29.59375 56 35.59375 56 
Q 45.5625 56 51.78125 48.09375 
Q 58.015625 40.1875 58.015625 27.296875 
Q 58.015625 14.40625 51.78125 6.484375 
Q 45.5625 -1.421875 35.59375 -1.421875 
Q 29.59375 -1.421875 25.265625 0.953125 
Q 20.953125 3.328125 18.109375 8.203125 
M 48.6875 27.296875 
Q 48.6875 37.203125 44.609375 42.84375 
Q 40.53125 48.484375 33.40625 48.484375 
Q 26.265625 48.484375 22.1875 42.84375 
Q 18.109375 37.203125 18.109375 27.296875 
Q 18.109375 17.390625 22.1875 11.75 
Q 26.265625 6.109375 33.40625 6.109375 
Q 40.53125 6.109375 44.609375 11.75 
Q 48.6875 17.390625 48.6875 27.296875 
" id="BitstreamVeraSans-Roman-70"/>
      <path d="M 45.40625 46.390625 
L 45.40625 75.984375 
L 54.390625 75.984375 
L 54.390625 0 
L 45.40625 0 
L 45.40625 8.203125 
Q 42.578125 3.328125 38.25 0.953125 
Q 33.9375 -1.421875 27.875 -1.421875 
Q 17.96875 -1.421875 11.734375 6.484375 
Q 5.515625 14.40625 5.515625 27.296875 
Q 5.515625 40.1875 11.734375 48.09375 
Q 17.96875 56 27.875 56 
Q 33.9375 56 38.25 53.625 
Q 42.578125 51.265625 45.40625 46.390625 
M 14.796875 27.296875 
Q 14.796875 17.390625 18.875 11.75 
Q 22.953125 6.109375 30.078125 6.109375 
Q 37.203125 6.109375 41.296875 11.75 
Q 45.40625 17.390625 45.40625 27.296875 
Q 45.40625 37.203125 41.296875 42.84375 
Q 37.203125 48.484375 30.078125 48.484375 
Q 22.953125 48.484375 18.875 42.84375 
Q 14.796875 37.203125 14.796875 27.296875 
" id="BitstreamVeraSans-Roman-64"/>
      <path d="M 9.421875 54.6875 
L 18.40625 54.6875 
L 18.40625 0 
L 9.421875 0 
z
M 9.421875 75.984375 
L 18.40625 75.984375 
L 18.40625 64.59375 
L 9.421875 64.59375 
z
" id="BitstreamVeraSans-Roman-69"/>
      <path d="M 30.609375 48.390625 
Q 23.390625 48.390625 19.1875 42.75 
Q 14.984375 37.109375 14.984375 27.296875 
Q 14.984375 17.484375 19.15625 11.84375 
Q 23.34375 6.203125 30.609375 6.203125 
Q 37.796875 6.203125 41.984375 11.859375 
Q 46.1875 17.53125 46.1875 27.296875 
Q 46.1875 37.015625 41.984375 42.703125 
Q 37.796875 48.390625 30.609375 48.390625 
M 30.609375 56 
Q 42.328125 56 49.015625 48.375 
Q 55.71875 40.765625 55.71875 27.296875 
Q 55.71875 13.875 49.015625 6.21875 
Q 42.328125 -1.421875 30.609375 -1.421875 
Q 18.84375 -1.421875 12.171875 6.21875 
Q 5.515625 13.875 5.515625 27.296875 
Q 5.515625 40.765625 12.171875 48.375 
Q 18.84375 56 30.609375 56 
" id="BitstreamVeraSans-Roman-6f"/>
      <path d="M 44.28125 53.078125 
L 44.28125 44.578125 
Q 40.484375 46.53125 36.375 47.5 
Q 32.28125 48.484375 27.875 48.484375 
Q 21.1875 48.484375 17.84375 46.4375 
Q 14.5 44.390625 14.5 40.28125 
Q 14.5 37.15625 16.890625 35.375 
Q 19.28125 33.59375 26.515625 31.984375 
L 29.59375 31.296875 
Q 39.15625 29.25 43.1875 25.515625 
Q 47.21875 21.78125 47.21875 15.09375 
Q 47.21875 7.46875 41.1875 3.015625 
Q 35.15625 -1.421875 24.609375 -1.421875 
Q 20.21875 -1.421875 15.453125 -0.5625 
Q 10.6875 0.296875 5.421875 2 
L 5.421875 11.28125 
Q 10.40625 8.6875 15.234375 7.390625 
Q 20.0625 6.109375 24.8125 6.109375 
Q 31.15625 6.109375 34.5625 8.28125 
Q 37.984375 10.453125 37.984375 14.40625 
Q 37.984375 18.0625 35.515625 20.015625 
Q 33.0625 21.96875 24.703125 23.78125 
L 21.578125 24.515625 
Q 13.234375 26.265625 9.515625 29.90625 
Q 5.8125 33.546875 5.8125 39.890625 
Q 5.8125 47.609375 11.28125 51.796875 
Q 16.75 56 26.8125 56 
Q 31.78125 56 36.171875 55.265625 
Q 40.578125 54.546875 44.28125 53.078125 
" id="BitstreamVeraSans-Roman-73"/>
     </defs>
     <g transform="translate(246.631875 398.473625)scale(0.12 -0.12)">
      <use xlink:href="#BitstreamVeraSans-Roman-65"/>
      <use x="61.5234375" xlink:href="#BitstreamVeraSans-Roman-70"/>
      <use x="125.0" xlink:href="#BitstreamVeraSans-Roman-69"/>
      <use x="152.783203125" xlink:href="#BitstreamVeraSans-Roman-73"/>
      <use x="204.8828125" xlink:href="#BitstreamVeraSans-Roman-6f"/>
      <use x="266.064453125" xlink:href="#BitstreamVeraSans-Roman-64"/>
      <use x="329.541015625" xlink:href="#BitstreamVeraSans-Roman-65"/>
     </g>
    </g>
   </g>
   <g id="matplotlib.axis_2">
    <g id="ytick_1">
     <g id="line2d_20">
      <defs>
       <path d="M 0 0 
L 4 0 
" id="m90a90aaac8" style="stroke:#000000;stroke-width:0.5;"/>
      </defs>
      <g>
       <use style="stroke:#000000;stroke-width:0.5;" x="46.8975" xlink:href="#m90a90aaac8" y="368.74175"/>
      </g>
     </g>
     <g id="line2d_21">
      <defs>
       <path d="M 0 0 
L -4 0 
" id="m30d76cdd27" style="stroke:#000000;stroke-width:0.5;"/>
      </defs>
      <g>
       <use style="stroke:#000000;stroke-width:0.5;" x="493.2975" xlink:href="#m30d76cdd27" y="368.74175"/>
      </g>
     </g>
     <g id="text_11">
      <!-- 0.0 -->
      <defs>
       <path d="M 10.6875 12.40625 
L 21 12.40625 
L 21 0 
L 10.6875 0 
z
" id="BitstreamVeraSans-Roman-2e"/>
      </defs>
      <g transform="translate(23.81375 372.053)scale(0.12 -0.12)">
       <use xlink:href="#BitstreamVeraSans-Roman-30"/>
       <use x="63.623046875" xlink:href="#BitstreamVeraSans-Roman-2e"/>
       <use x="95.41015625" xlink:href="#BitstreamVeraSans-Roman-30"/>
      </g>
     </g>
    </g>
    <g id="ytick_2">
     <g id="line2d_22">
      <g>
       <use style="stroke:#000000;stroke-width:0.5;" x="46.8975" xlink:href="#m90a90aaac8" y="319.370321429"/>
      </g>
     </g>
     <g id="line2d_23">
      <g>
       <use style="stroke:#000000;stroke-width:0.5;" x="493.2975" xlink:href="#m30d76cdd27" y="319.370321429"/>
      </g>
     </g>
     <g id="text_12">
      <!-- 0.1 -->
      <g transform="translate(23.81375 322.681571429)scale(0.12 -0.12)">
       <use xlink:href="#BitstreamVeraSans-Roman-30"/>
       <use x="63.623046875" xlink:href="#BitstreamVeraSans-Roman-2e"/>
       <use x="95.41015625" xlink:href="#BitstreamVeraSans-Roman-31"/>
      </g>
     </g>
    </g>
    <g id="ytick_3">
     <g id="line2d_24">
      <g>
       <use style="stroke:#000000;stroke-width:0.5;" x="46.8975" xlink:href="#m90a90aaac8" y="269.998892857"/>
      </g>
     </g>
     <g id="line2d_25">
      <g>
       <use style="stroke:#000000;stroke-width:0.5;" x="493.2975" xlink:href="#m30d76cdd27" y="269.998892857"/>
      </g>
     </g>
     <g id="text_13">
      <!-- 0.2 -->
      <g transform="translate(23.81375 273.310142857)scale(0.12 -0.12)">
       <use xlink:href="#BitstreamVeraSans-Roman-30"/>
       <use x="63.623046875" xlink:href="#BitstreamVeraSans-Roman-2e"/>
       <use x="95.41015625" xlink:href="#BitstreamVeraSans-Roman-32"/>
      </g>
     </g>
    </g>
    <g id="ytick_4">
     <g id="line2d_26">
      <g>
       <use style="stroke:#000000;stroke-width:0.5;" x="46.8975" xlink:href="#m90a90aaac8" y="220.627464286"/>
      </g>
     </g>
     <g id="line2d_27">
      <g>
       <use style="stroke:#000000;stroke-width:0.5;" x="493.2975" xlink:href="#m30d76cdd27" y="220.627464286"/>
      </g>
     </g>
     <g id="text_14">
      <!-- 0.3 -->
      <g transform="translate(23.81375 223.938714286)scale(0.12 -0.12)">
       <use xlink:href="#BitstreamVeraSans-Roman-30"/>
       <use x="63.623046875" xlink:href="#BitstreamVeraSans-Roman-2e"/>
       <use x="95.41015625" xlink:href="#BitstreamVeraSans-Roman-33"/>
      </g>
     </g>
    </g>
    <g id="ytick_5">
     <g id="line2d_28">
      <g>
       <use style="stroke:#000000;stroke-width:0.5;" x="46.8975" xlink:href="#m90a90aaac8" y="171.256035714"/>
      </g>
     </g>
     <g id="line2d_29">
      <g>
       <use style="stroke:#000000;stroke-width:0.5;" x="493.2975" xlink:href="#m30d76cdd27" y="171.256035714"/>
      </g>
     </g>
     <g id="text_15">
      <!-- 0.4 -->
      <g transform="translate(23.81375 174.567285714)scale(0.12 -0.12)">
       <use xlink:href="#BitstreamVeraSans-Roman-30"/>
       <use x="63.623046875" xlink:href="#BitstreamVeraSans-Roman-2e"/>
       <use x="95.41015625" xlink:href="#BitstreamVeraSans-Roman-34"/>
      </g>
     </g>
    </g>
    <g id="ytick_6">
     <g id="line2d_30">
      <g>
       <use style="stroke:#000000;stroke-width:0.5;" x="46.8975" xlink:href="#m90a90aaac8" y="121.884607143"/>
      </g>
     </g>
     <g id="line2d_31">
      <g>
       <use style="stroke:#000000;stroke-width:0.5;" x="493.2975" xlink:href="#m30d76cdd27" y="121.884607143"/>
      </g>
     </g>
     <g id="text_16">
      <!-- 0.5 -->
      <g transform="translate(23.81375 125.195857143)scale(0.12 -0.12)">
       <use xlink:href="#BitstreamVeraSans-Roman-30"/>
       <use x="63.623046875" xlink:href="#BitstreamVeraSans-Roman-2e"/>
       <use x="95.41015625" xlink:href="#BitstreamVeraSans-Roman-35"/>
      </g>
     </g>
    </g>
    <g id="ytick_7">
     <g id="line2d_32">
      <g>
       <use style="stroke:#000000;stroke-width:0.5;" x="46.8975" xlink:href="#m90a90aaac8" y="72.5131785714"/>
      </g>
     </g>
     <g id="line2d_33">
      <g>
       <use style="stroke:#000000;stroke-width:0.5;" x="493.2975" xlink:href="#m30d76cdd27" y="72.5131785714"/>
      </g>
     </g>
     <g id="text_17">
      <!-- 0.6 -->
      <g transform="translate(23.81375 75.8244285714)scale(0.12 -0.12)">
       <use xlink:href="#BitstreamVeraSans-Roman-30"/>
       <use x="63.623046875" xlink:href="#BitstreamVeraSans-Roman-2e"/>
       <use x="95.41015625" xlink:href="#BitstreamVeraSans-Roman-36"/>
      </g>
     </g>
    </g>
    <g id="ytick_8">
     <g id="line2d_34">
      <g>
       <use style="stroke:#000000;stroke-width:0.5;" x="46.8975" xlink:href="#m90a90aaac8" y="23.14175"/>
      </g>
     </g>
     <g id="line2d_35">
      <g>
       <use style="stroke:#000000;stroke-width:0.5;" x="493.2975" xlink:href="#m30d76cdd27" y="23.14175"/>
      </g>
     </g>
     <g id="text_18">
      <!-- 0.7 -->
      <g transform="translate(23.81375 26.453)scale(0.12 -0.12)">
       <use xlink:href="#BitstreamVeraSans-Roman-30"/>
       <use x="63.623046875" xlink:href="#BitstreamVeraSans-Roman-2e"/>
       <use x="95.41015625" xlink:href="#BitstreamVeraSans-Roman-37"/>
      </g>
     </g>
    </g>
    <g id="text_19">
     <!-- average maxQ -->
     <defs>
      <path d="M 41.109375 46.296875 
Q 39.59375 47.171875 37.8125 47.578125 
Q 36.03125 48 33.890625 48 
Q 26.265625 48 22.1875 43.046875 
Q 18.109375 38.09375 18.109375 28.8125 
L 18.109375 0 
L 9.078125 0 
L 9.078125 54.6875 
L 18.109375 54.6875 
L 18.109375 46.1875 
Q 20.953125 51.171875 25.484375 53.578125 
Q 30.03125 56 36.53125 56 
Q 37.453125 56 38.578125 55.875 
Q 39.703125 55.765625 41.0625 55.515625 
z
" id="BitstreamVeraSans-Roman-72"/>
      <path d="M 54.890625 54.6875 
L 35.109375 28.078125 
L 55.90625 0 
L 45.3125 0 
L 29.390625 21.484375 
L 13.484375 0 
L 2.875 0 
L 24.125 28.609375 
L 4.6875 54.6875 
L 15.28125 54.6875 
L 29.78125 35.203125 
L 44.28125 54.6875 
z
" id="BitstreamVeraSans-Roman-78"/>
      <path d="M 39.40625 66.21875 
Q 28.65625 66.21875 22.328125 58.203125 
Q 16.015625 50.203125 16.015625 36.375 
Q 16.015625 22.609375 22.328125 14.59375 
Q 28.65625 6.59375 39.40625 6.59375 
Q 50.140625 6.59375 56.421875 14.59375 
Q 62.703125 22.609375 62.703125 36.375 
Q 62.703125 50.203125 56.421875 58.203125 
Q 50.140625 66.21875 39.40625 66.21875 
M 53.21875 1.3125 
L 66.21875 -12.890625 
L 54.296875 -12.890625 
L 43.5 -1.21875 
Q 41.890625 -1.3125 41.03125 -1.359375 
Q 40.1875 -1.421875 39.40625 -1.421875 
Q 24.03125 -1.421875 14.8125 8.859375 
Q 5.609375 19.140625 5.609375 36.375 
Q 5.609375 53.65625 14.8125 63.9375 
Q 24.03125 74.21875 39.40625 74.21875 
Q 54.734375 74.21875 63.90625 63.9375 
Q 73.09375 53.65625 73.09375 36.375 
Q 73.09375 23.6875 67.984375 14.640625 
Q 62.890625 5.609375 53.21875 1.3125 
" id="BitstreamVeraSans-Roman-51"/>
      <path id="BitstreamVeraSans-Roman-20"/>
      <path d="M 2.984375 54.6875 
L 12.5 54.6875 
L 29.59375 8.796875 
L 46.6875 54.6875 
L 56.203125 54.6875 
L 35.6875 0 
L 23.484375 0 
z
" id="BitstreamVeraSans-Roman-76"/>
      <path d="M 34.28125 27.484375 
Q 23.390625 27.484375 19.1875 25 
Q 14.984375 22.515625 14.984375 16.5 
Q 14.984375 11.71875 18.140625 8.90625 
Q 21.296875 6.109375 26.703125 6.109375 
Q 34.1875 6.109375 38.703125 11.40625 
Q 43.21875 16.703125 43.21875 25.484375 
L 43.21875 27.484375 
z
M 52.203125 31.203125 
L 52.203125 0 
L 43.21875 0 
L 43.21875 8.296875 
Q 40.140625 3.328125 35.546875 0.953125 
Q 30.953125 -1.421875 24.3125 -1.421875 
Q 15.921875 -1.421875 10.953125 3.296875 
Q 6 8.015625 6 15.921875 
Q 6 25.140625 12.171875 29.828125 
Q 18.359375 34.515625 30.609375 34.515625 
L 43.21875 34.515625 
L 43.21875 35.40625 
Q 43.21875 41.609375 39.140625 45 
Q 35.0625 48.390625 27.6875 48.390625 
Q 23 48.390625 18.546875 47.265625 
Q 14.109375 46.140625 10.015625 43.890625 
L 10.015625 52.203125 
Q 14.9375 54.109375 19.578125 55.046875 
Q 24.21875 56 28.609375 56 
Q 40.484375 56 46.34375 49.84375 
Q 52.203125 43.703125 52.203125 31.203125 
" id="BitstreamVeraSans-Roman-61"/>
      <path d="M 45.40625 27.984375 
Q 45.40625 37.75 41.375 43.109375 
Q 37.359375 48.484375 30.078125 48.484375 
Q 22.859375 48.484375 18.828125 43.109375 
Q 14.796875 37.75 14.796875 27.984375 
Q 14.796875 18.265625 18.828125 12.890625 
Q 22.859375 7.515625 30.078125 7.515625 
Q 37.359375 7.515625 41.375 12.890625 
Q 45.40625 18.265625 45.40625 27.984375 
M 54.390625 6.78125 
Q 54.390625 -7.171875 48.1875 -13.984375 
Q 42 -20.796875 29.203125 -20.796875 
Q 24.46875 -20.796875 20.265625 -20.09375 
Q 16.0625 -19.390625 12.109375 -17.921875 
L 12.109375 -9.1875 
Q 16.0625 -11.328125 19.921875 -12.34375 
Q 23.78125 -13.375 27.78125 -13.375 
Q 36.625 -13.375 41.015625 -8.765625 
Q 45.40625 -4.15625 45.40625 5.171875 
L 45.40625 9.625 
Q 42.625 4.78125 38.28125 2.390625 
Q 33.9375 0 27.875 0 
Q 17.828125 0 11.671875 7.65625 
Q 5.515625 15.328125 5.515625 27.984375 
Q 5.515625 40.671875 11.671875 48.328125 
Q 17.828125 56 27.875 56 
Q 33.9375 56 38.28125 53.609375 
Q 42.625 51.21875 45.40625 46.390625 
L 45.40625 54.6875 
L 54.390625 54.6875 
z
" id="BitstreamVeraSans-Roman-67"/>
      <path d="M 52 44.1875 
Q 55.375 50.25 60.0625 53.125 
Q 64.75 56 71.09375 56 
Q 79.640625 56 84.28125 50.015625 
Q 88.921875 44.046875 88.921875 33.015625 
L 88.921875 0 
L 79.890625 0 
L 79.890625 32.71875 
Q 79.890625 40.578125 77.09375 44.375 
Q 74.3125 48.1875 68.609375 48.1875 
Q 61.625 48.1875 57.5625 43.546875 
Q 53.515625 38.921875 53.515625 30.90625 
L 53.515625 0 
L 44.484375 0 
L 44.484375 32.71875 
Q 44.484375 40.625 41.703125 44.40625 
Q 38.921875 48.1875 33.109375 48.1875 
Q 26.21875 48.1875 22.15625 43.53125 
Q 18.109375 38.875 18.109375 30.90625 
L 18.109375 0 
L 9.078125 0 
L 9.078125 54.6875 
L 18.109375 54.6875 
L 18.109375 46.1875 
Q 21.1875 51.21875 25.484375 53.609375 
Q 29.78125 56 35.6875 56 
Q 41.65625 56 45.828125 52.96875 
Q 50 49.953125 52 44.1875 
" id="BitstreamVeraSans-Roman-6d"/>
     </defs>
     <g transform="translate(16.318125 240.208625)rotate(-90.0)scale(0.12 -0.12)">
      <use xlink:href="#BitstreamVeraSans-Roman-61"/>
      <use x="61.279296875" xlink:href="#BitstreamVeraSans-Roman-76"/>
      <use x="120.458984375" xlink:href="#BitstreamVeraSans-Roman-65"/>
      <use x="181.982421875" xlink:href="#BitstreamVeraSans-Roman-72"/>
      <use x="223.095703125" xlink:href="#BitstreamVeraSans-Roman-61"/>
      <use x="284.375" xlink:href="#BitstreamVeraSans-Roman-67"/>
      <use x="347.8515625" xlink:href="#BitstreamVeraSans-Roman-65"/>
      <use x="409.375" xlink:href="#BitstreamVeraSans-Roman-20"/>
      <use x="441.162109375" xlink:href="#BitstreamVeraSans-Roman-6d"/>
      <use x="538.57421875" xlink:href="#BitstreamVeraSans-Roman-61"/>
      <use x="599.853515625" xlink:href="#BitstreamVeraSans-Roman-78"/>
      <use x="659.033203125" xlink:href="#BitstreamVeraSans-Roman-51"/>
     </g>
    </g>
   </g>
   <g id="text_20">
    <!-- Average maxQ per episode, joint 1 -->
    <defs>
     <path d="M 34.1875 63.1875 
L 20.796875 26.90625 
L 47.609375 26.90625 
z
M 28.609375 72.90625 
L 39.796875 72.90625 
L 67.578125 0 
L 57.328125 0 
L 50.6875 18.703125 
L 17.828125 18.703125 
L 11.1875 0 
L 0.78125 0 
z
" id="BitstreamVeraSans-Roman-41"/>
     <path d="M 18.3125 70.21875 
L 18.3125 54.6875 
L 36.8125 54.6875 
L 36.8125 47.703125 
L 18.3125 47.703125 
L 18.3125 18.015625 
Q 18.3125 11.328125 20.140625 9.421875 
Q 21.96875 7.515625 27.59375 7.515625 
L 36.8125 7.515625 
L 36.8125 0 
L 27.59375 0 
Q 17.1875 0 13.234375 3.875 
Q 9.28125 7.765625 9.28125 18.015625 
L 9.28125 47.703125 
L 2.6875 47.703125 
L 2.6875 54.6875 
L 9.28125 54.6875 
L 9.28125 70.21875 
z
" id="BitstreamVeraSans-Roman-74"/>
     <path d="M 11.71875 12.40625 
L 22.015625 12.40625 
L 22.015625 4 
L 14.015625 -11.625 
L 7.71875 -11.625 
L 11.71875 4 
z
" id="BitstreamVeraSans-Roman-2c"/>
     <path d="M 54.890625 33.015625 
L 54.890625 0 
L 45.90625 0 
L 45.90625 32.71875 
Q 45.90625 40.484375 42.875 44.328125 
Q 39.84375 48.1875 33.796875 48.1875 
Q 26.515625 48.1875 22.3125 43.546875 
Q 18.109375 38.921875 18.109375 30.90625 
L 18.109375 0 
L 9.078125 0 
L 9.078125 54.6875 
L 18.109375 54.6875 
L 18.109375 46.1875 
Q 21.34375 51.125 25.703125 53.5625 
Q 30.078125 56 35.796875 56 
Q 45.21875 56 50.046875 50.171875 
Q 54.890625 44.34375 54.890625 33.015625 
" id="BitstreamVeraSans-Roman-6e"/>
     <path d="M 9.421875 54.6875 
L 18.40625 54.6875 
L 18.40625 -0.984375 
Q 18.40625 -11.421875 14.421875 -16.109375 
Q 10.453125 -20.796875 1.609375 -20.796875 
L -1.8125 -20.796875 
L -1.8125 -13.1875 
L 0.59375 -13.1875 
Q 5.71875 -13.1875 7.5625 -10.8125 
Q 9.421875 -8.453125 9.421875 -0.984375 
z
M 9.421875 75.984375 
L 18.40625 75.984375 
L 18.40625 64.59375 
L 9.421875 64.59375 
z
" id="BitstreamVeraSans-Roman-6a"/>
    </defs>
    <g transform="translate(144.53625 18.14175)scale(0.144 -0.144)">
     <use xlink:href="#BitstreamVeraSans-Roman-41"/>
     <use x="68.330078125" xlink:href="#BitstreamVeraSans-Roman-76"/>
     <use x="127.509765625" xlink:href="#BitstreamVeraSans-Roman-65"/>
     <use x="189.033203125" xlink:href="#BitstreamVeraSans-Roman-72"/>
     <use x="230.146484375" xlink:href="#BitstreamVeraSans-Roman-61"/>
     <use x="291.42578125" xlink:href="#BitstreamVeraSans-Roman-67"/>
     <use x="354.90234375" xlink:href="#BitstreamVeraSans-Roman-65"/>
     <use x="416.42578125" xlink:href="#BitstreamVeraSans-Roman-20"/>
     <use x="448.212890625" xlink:href="#BitstreamVeraSans-Roman-6d"/>
     <use x="545.625" xlink:href="#BitstreamVeraSans-Roman-61"/>
     <use x="606.904296875" xlink:href="#BitstreamVeraSans-Roman-78"/>
     <use x="666.083984375" xlink:href="#BitstreamVeraSans-Roman-51"/>
     <use x="744.794921875" xlink:href="#BitstreamVeraSans-Roman-20"/>
     <use x="776.58203125" xlink:href="#BitstreamVeraSans-Roman-70"/>
     <use x="840.05859375" xlink:href="#BitstreamVeraSans-Roman-65"/>
     <use x="901.58203125" xlink:href="#BitstreamVeraSans-Roman-72"/>
     <use x="942.6953125" xlink:href="#BitstreamVeraSans-Roman-20"/>
     <use x="974.482421875" xlink:href="#BitstreamVeraSans-Roman-65"/>
     <use x="1036.005859375" xlink:href="#BitstreamVeraSans-Roman-70"/>
     <use x="1099.482421875" xlink:href="#BitstreamVeraSans-Roman-69"/>
     <use x="1127.265625" xlink:href="#BitstreamVeraSans-Roman-73"/>
     <use x="1179.365234375" xlink:href="#BitstreamVeraSans-Roman-6f"/>
     <use x="1240.546875" xlink:href="#BitstreamVeraSans-Roman-64"/>
     <use x="1304.0234375" xlink:href="#BitstreamVeraSans-Roman-65"/>
     <use x="1365.546875" xlink:href="#BitstreamVeraSans-Roman-2c"/>
     <use x="1397.333984375" xlink:href="#BitstreamVeraSans-Roman-20"/>
     <use x="1429.12109375" xlink:href="#BitstreamVeraSans-Roman-6a"/>
     <use x="1456.904296875" xlink:href="#BitstreamVeraSans-Roman-6f"/>
     <use x="1518.0859375" xlink:href="#BitstreamVeraSans-Roman-69"/>
     <use x="1545.869140625" xlink:href="#BitstreamVeraSans-Roman-6e"/>
     <use x="1609.248046875" xlink:href="#BitstreamVeraSans-Roman-74"/>
     <use x="1648.45703125" xlink:href="#BitstreamVeraSans-Roman-20"/>
     <use x="1680.244140625" xlink:href="#BitstreamVeraSans-Roman-31"/>
    </g>
   </g>
  </g>
 </g>
 <defs>
  <clipPath id="pdc621793c9">
   <rect height="345.6" width="446.4" x="46.8975" y="23.14175"/>
  </clipPath>
 </defs>
</svg>
