<?xml version="1.0" encoding="utf-8" standalone="no"?>
<!DOCTYPE svg PUBLIC "-//W3C//DTD SVG 1.1//EN"
  "http://www.w3.org/Graphics/SVG/1.1/DTD/svg11.dtd">
<!-- Created with matplotlib (http://matplotlib.org/) -->
<svg height="325pt" version="1.1" viewBox="0 0 411 325" width="411pt" xmlns="http://www.w3.org/2000/svg" xmlns:xlink="http://www.w3.org/1999/xlink">
 <defs>
  <style type="text/css">
*{stroke-linecap:butt;stroke-linejoin:round;}
  </style>
 </defs>
 <g id="figure_1">
  <g id="patch_1">
   <path d="M 0 325.986375 
L 411.60125 325.986375 
L 411.60125 0 
L 0 0 
z
" style="fill:#ffffff;"/>
  </g>
  <g id="axes_1">
   <g id="patch_2">
    <path d="M 43.78125 288.430125 
L 400.90125 288.430125 
L 400.90125 22.318125 
L 43.78125 22.318125 
z
" style="fill:#ffffff;"/>
   </g>
   <g id="matplotlib.axis_1">
    <g id="xtick_1">
     <g id="line2d_1">
      <defs>
       <path d="M 0 0 
L 0 3.5 
" id="m1120b27ce0" style="stroke:#000000;stroke-width:0.8;"/>
      </defs>
      <g>
       <use style="stroke:#000000;stroke-width:0.8;" x="59.633374" xlink:href="#m1120b27ce0" y="288.430125"/>
      </g>
     </g>
     <g id="text_1">
      <!-- 0 -->
      <defs>
       <path d="M 31.78125 66.40625 
Q 24.171875 66.40625 20.328125 58.90625 
Q 16.5 51.421875 16.5 36.375 
Q 16.5 21.390625 20.328125 13.890625 
Q 24.171875 6.390625 31.78125 6.390625 
Q 39.453125 6.390625 43.28125 13.890625 
Q 47.125 21.390625 47.125 36.375 
Q 47.125 51.421875 43.28125 58.90625 
Q 39.453125 66.40625 31.78125 66.40625 
z
M 31.78125 74.21875 
Q 44.046875 74.21875 50.515625 64.515625 
Q 56.984375 54.828125 56.984375 36.375 
Q 56.984375 17.96875 50.515625 8.265625 
Q 44.046875 -1.421875 31.78125 -1.421875 
Q 19.53125 -1.421875 13.0625 8.265625 
Q 6.59375 17.96875 6.59375 36.375 
Q 6.59375 54.828125 13.0625 64.515625 
Q 19.53125 74.21875 31.78125 74.21875 
z
" id="DejaVuSans-30"/>
      </defs>
      <g transform="translate(56.452124 303.028562)scale(0.1 -0.1)">
       <use xlink:href="#DejaVuSans-30"/>
      </g>
     </g>
    </g>
    <g id="xtick_2">
     <g id="line2d_2">
      <g>
       <use style="stroke:#000000;stroke-width:0.8;" x="135.754018" xlink:href="#m1120b27ce0" y="288.430125"/>
      </g>
     </g>
     <g id="text_2">
      <!-- 200 -->
      <defs>
       <path d="M 19.1875 8.296875 
L 53.609375 8.296875 
L 53.609375 0 
L 7.328125 0 
L 7.328125 8.296875 
Q 12.9375 14.109375 22.625 23.890625 
Q 32.328125 33.6875 34.8125 36.53125 
Q 39.546875 41.84375 41.421875 45.53125 
Q 43.3125 49.21875 43.3125 52.78125 
Q 43.3125 58.59375 39.234375 62.25 
Q 35.15625 65.921875 28.609375 65.921875 
Q 23.96875 65.921875 18.8125 64.3125 
Q 13.671875 62.703125 7.8125 59.421875 
L 7.8125 69.390625 
Q 13.765625 71.78125 18.9375 73 
Q 24.125 74.21875 28.421875 74.21875 
Q 39.75 74.21875 46.484375 68.546875 
Q 53.21875 62.890625 53.21875 53.421875 
Q 53.21875 48.921875 51.53125 44.890625 
Q 49.859375 40.875 45.40625 35.40625 
Q 44.1875 33.984375 37.640625 27.21875 
Q 31.109375 20.453125 19.1875 8.296875 
z
" id="DejaVuSans-32"/>
      </defs>
      <g transform="translate(126.210268 303.028562)scale(0.1 -0.1)">
       <use xlink:href="#DejaVuSans-32"/>
       <use x="63.623047" xlink:href="#DejaVuSans-30"/>
       <use x="127.246094" xlink:href="#DejaVuSans-30"/>
      </g>
     </g>
    </g>
    <g id="xtick_3">
     <g id="line2d_3">
      <g>
       <use style="stroke:#000000;stroke-width:0.8;" x="211.874661" xlink:href="#m1120b27ce0" y="288.430125"/>
      </g>
     </g>
     <g id="text_3">
      <!-- 400 -->
      <defs>
       <path d="M 37.796875 64.3125 
L 12.890625 25.390625 
L 37.796875 25.390625 
z
M 35.203125 72.90625 
L 47.609375 72.90625 
L 47.609375 25.390625 
L 58.015625 25.390625 
L 58.015625 17.1875 
L 47.609375 17.1875 
L 47.609375 0 
L 37.796875 0 
L 37.796875 17.1875 
L 4.890625 17.1875 
L 4.890625 26.703125 
z
" id="DejaVuSans-34"/>
      </defs>
      <g transform="translate(202.330911 303.028562)scale(0.1 -0.1)">
       <use xlink:href="#DejaVuSans-34"/>
       <use x="63.623047" xlink:href="#DejaVuSans-30"/>
       <use x="127.246094" xlink:href="#DejaVuSans-30"/>
      </g>
     </g>
    </g>
    <g id="xtick_4">
     <g id="line2d_4">
      <g>
       <use style="stroke:#000000;stroke-width:0.8;" x="287.995305" xlink:href="#m1120b27ce0" y="288.430125"/>
      </g>
     </g>
     <g id="text_4">
      <!-- 600 -->
      <defs>
       <path d="M 33.015625 40.375 
Q 26.375 40.375 22.484375 35.828125 
Q 18.609375 31.296875 18.609375 23.390625 
Q 18.609375 15.53125 22.484375 10.953125 
Q 26.375 6.390625 33.015625 6.390625 
Q 39.65625 6.390625 43.53125 10.953125 
Q 47.40625 15.53125 47.40625 23.390625 
Q 47.40625 31.296875 43.53125 35.828125 
Q 39.65625 40.375 33.015625 40.375 
z
M 52.59375 71.296875 
L 52.59375 62.3125 
Q 48.875 64.0625 45.09375 64.984375 
Q 41.3125 65.921875 37.59375 65.921875 
Q 27.828125 65.921875 22.671875 59.328125 
Q 17.53125 52.734375 16.796875 39.40625 
Q 19.671875 43.65625 24.015625 45.921875 
Q 28.375 48.1875 33.59375 48.1875 
Q 44.578125 48.1875 50.953125 41.515625 
Q 57.328125 34.859375 57.328125 23.390625 
Q 57.328125 12.15625 50.6875 5.359375 
Q 44.046875 -1.421875 33.015625 -1.421875 
Q 20.359375 -1.421875 13.671875 8.265625 
Q 6.984375 17.96875 6.984375 36.375 
Q 6.984375 53.65625 15.1875 63.9375 
Q 23.390625 74.21875 37.203125 74.21875 
Q 40.921875 74.21875 44.703125 73.484375 
Q 48.484375 72.75 52.59375 71.296875 
z
" id="DejaVuSans-36"/>
      </defs>
      <g transform="translate(278.451555 303.028562)scale(0.1 -0.1)">
       <use xlink:href="#DejaVuSans-36"/>
       <use x="63.623047" xlink:href="#DejaVuSans-30"/>
       <use x="127.246094" xlink:href="#DejaVuSans-30"/>
      </g>
     </g>
    </g>
    <g id="xtick_5">
     <g id="line2d_5">
      <g>
       <use style="stroke:#000000;stroke-width:0.8;" x="364.115949" xlink:href="#m1120b27ce0" y="288.430125"/>
      </g>
     </g>
     <g id="text_5">
      <!-- 800 -->
      <defs>
       <path d="M 31.78125 34.625 
Q 24.75 34.625 20.71875 30.859375 
Q 16.703125 27.09375 16.703125 20.515625 
Q 16.703125 13.921875 20.71875 10.15625 
Q 24.75 6.390625 31.78125 6.390625 
Q 38.8125 6.390625 42.859375 10.171875 
Q 46.921875 13.96875 46.921875 20.515625 
Q 46.921875 27.09375 42.890625 30.859375 
Q 38.875 34.625 31.78125 34.625 
z
M 21.921875 38.8125 
Q 15.578125 40.375 12.03125 44.71875 
Q 8.5 49.078125 8.5 55.328125 
Q 8.5 64.0625 14.71875 69.140625 
Q 20.953125 74.21875 31.78125 74.21875 
Q 42.671875 74.21875 48.875 69.140625 
Q 55.078125 64.0625 55.078125 55.328125 
Q 55.078125 49.078125 51.53125 44.71875 
Q 48 40.375 41.703125 38.8125 
Q 48.828125 37.15625 52.796875 32.3125 
Q 56.78125 27.484375 56.78125 20.515625 
Q 56.78125 9.90625 50.3125 4.234375 
Q 43.84375 -1.421875 31.78125 -1.421875 
Q 19.734375 -1.421875 13.25 4.234375 
Q 6.78125 9.90625 6.78125 20.515625 
Q 6.78125 27.484375 10.78125 32.3125 
Q 14.796875 37.15625 21.921875 38.8125 
z
M 18.3125 54.390625 
Q 18.3125 48.734375 21.84375 45.5625 
Q 25.390625 42.390625 31.78125 42.390625 
Q 38.140625 42.390625 41.71875 45.5625 
Q 45.3125 48.734375 45.3125 54.390625 
Q 45.3125 60.0625 41.71875 63.234375 
Q 38.140625 66.40625 31.78125 66.40625 
Q 25.390625 66.40625 21.84375 63.234375 
Q 18.3125 60.0625 18.3125 54.390625 
z
" id="DejaVuSans-38"/>
      </defs>
      <g transform="translate(354.572199 303.028562)scale(0.1 -0.1)">
       <use xlink:href="#DejaVuSans-38"/>
       <use x="63.623047" xlink:href="#DejaVuSans-30"/>
       <use x="127.246094" xlink:href="#DejaVuSans-30"/>
      </g>
     </g>
    </g>
    <g id="text_6">
     <!-- episodes -->
     <defs>
      <path d="M 56.203125 29.59375 
L 56.203125 25.203125 
L 14.890625 25.203125 
Q 15.484375 15.921875 20.484375 11.0625 
Q 25.484375 6.203125 34.421875 6.203125 
Q 39.59375 6.203125 44.453125 7.46875 
Q 49.3125 8.734375 54.109375 11.28125 
L 54.109375 2.78125 
Q 49.265625 0.734375 44.1875 -0.34375 
Q 39.109375 -1.421875 33.890625 -1.421875 
Q 20.796875 -1.421875 13.15625 6.1875 
Q 5.515625 13.8125 5.515625 26.8125 
Q 5.515625 40.234375 12.765625 48.109375 
Q 20.015625 56 32.328125 56 
Q 43.359375 56 49.78125 48.890625 
Q 56.203125 41.796875 56.203125 29.59375 
z
M 47.21875 32.234375 
Q 47.125 39.59375 43.09375 43.984375 
Q 39.0625 48.390625 32.421875 48.390625 
Q 24.90625 48.390625 20.390625 44.140625 
Q 15.875 39.890625 15.1875 32.171875 
z
" id="DejaVuSans-65"/>
      <path d="M 18.109375 8.203125 
L 18.109375 -20.796875 
L 9.078125 -20.796875 
L 9.078125 54.6875 
L 18.109375 54.6875 
L 18.109375 46.390625 
Q 20.953125 51.265625 25.265625 53.625 
Q 29.59375 56 35.59375 56 
Q 45.5625 56 51.78125 48.09375 
Q 58.015625 40.1875 58.015625 27.296875 
Q 58.015625 14.40625 51.78125 6.484375 
Q 45.5625 -1.421875 35.59375 -1.421875 
Q 29.59375 -1.421875 25.265625 0.953125 
Q 20.953125 3.328125 18.109375 8.203125 
z
M 48.6875 27.296875 
Q 48.6875 37.203125 44.609375 42.84375 
Q 40.53125 48.484375 33.40625 48.484375 
Q 26.265625 48.484375 22.1875 42.84375 
Q 18.109375 37.203125 18.109375 27.296875 
Q 18.109375 17.390625 22.1875 11.75 
Q 26.265625 6.109375 33.40625 6.109375 
Q 40.53125 6.109375 44.609375 11.75 
Q 48.6875 17.390625 48.6875 27.296875 
z
" id="DejaVuSans-70"/>
      <path d="M 9.421875 54.6875 
L 18.40625 54.6875 
L 18.40625 0 
L 9.421875 0 
z
M 9.421875 75.984375 
L 18.40625 75.984375 
L 18.40625 64.59375 
L 9.421875 64.59375 
z
" id="DejaVuSans-69"/>
      <path d="M 44.28125 53.078125 
L 44.28125 44.578125 
Q 40.484375 46.53125 36.375 47.5 
Q 32.28125 48.484375 27.875 48.484375 
Q 21.1875 48.484375 17.84375 46.4375 
Q 14.5 44.390625 14.5 40.28125 
Q 14.5 37.15625 16.890625 35.375 
Q 19.28125 33.59375 26.515625 31.984375 
L 29.59375 31.296875 
Q 39.15625 29.25 43.1875 25.515625 
Q 47.21875 21.78125 47.21875 15.09375 
Q 47.21875 7.46875 41.1875 3.015625 
Q 35.15625 -1.421875 24.609375 -1.421875 
Q 20.21875 -1.421875 15.453125 -0.5625 
Q 10.6875 0.296875 5.421875 2 
L 5.421875 11.28125 
Q 10.40625 8.6875 15.234375 7.390625 
Q 20.0625 6.109375 24.8125 6.109375 
Q 31.15625 6.109375 34.5625 8.28125 
Q 37.984375 10.453125 37.984375 14.40625 
Q 37.984375 18.0625 35.515625 20.015625 
Q 33.0625 21.96875 24.703125 23.78125 
L 21.578125 24.515625 
Q 13.234375 26.265625 9.515625 29.90625 
Q 5.8125 33.546875 5.8125 39.890625 
Q 5.8125 47.609375 11.28125 51.796875 
Q 16.75 56 26.8125 56 
Q 31.78125 56 36.171875 55.265625 
Q 40.578125 54.546875 44.28125 53.078125 
z
" id="DejaVuSans-73"/>
      <path d="M 30.609375 48.390625 
Q 23.390625 48.390625 19.1875 42.75 
Q 14.984375 37.109375 14.984375 27.296875 
Q 14.984375 17.484375 19.15625 11.84375 
Q 23.34375 6.203125 30.609375 6.203125 
Q 37.796875 6.203125 41.984375 11.859375 
Q 46.1875 17.53125 46.1875 27.296875 
Q 46.1875 37.015625 41.984375 42.703125 
Q 37.796875 48.390625 30.609375 48.390625 
z
M 30.609375 56 
Q 42.328125 56 49.015625 48.375 
Q 55.71875 40.765625 55.71875 27.296875 
Q 55.71875 13.875 49.015625 6.21875 
Q 42.328125 -1.421875 30.609375 -1.421875 
Q 18.84375 -1.421875 12.171875 6.21875 
Q 5.515625 13.875 5.515625 27.296875 
Q 5.515625 40.765625 12.171875 48.375 
Q 18.84375 56 30.609375 56 
z
" id="DejaVuSans-6f"/>
      <path d="M 45.40625 46.390625 
L 45.40625 75.984375 
L 54.390625 75.984375 
L 54.390625 0 
L 45.40625 0 
L 45.40625 8.203125 
Q 42.578125 3.328125 38.25 0.953125 
Q 33.9375 -1.421875 27.875 -1.421875 
Q 17.96875 -1.421875 11.734375 6.484375 
Q 5.515625 14.40625 5.515625 27.296875 
Q 5.515625 40.1875 11.734375 48.09375 
Q 17.96875 56 27.875 56 
Q 33.9375 56 38.25 53.625 
Q 42.578125 51.265625 45.40625 46.390625 
z
M 14.796875 27.296875 
Q 14.796875 17.390625 18.875 11.75 
Q 22.953125 6.109375 30.078125 6.109375 
Q 37.203125 6.109375 41.296875 11.75 
Q 45.40625 17.390625 45.40625 27.296875 
Q 45.40625 37.203125 41.296875 42.84375 
Q 37.203125 48.484375 30.078125 48.484375 
Q 22.953125 48.484375 18.875 42.84375 
Q 14.796875 37.203125 14.796875 27.296875 
z
" id="DejaVuSans-64"/>
     </defs>
     <g transform="translate(200.181875 316.706687)scale(0.1 -0.1)">
      <use xlink:href="#DejaVuSans-65"/>
      <use x="61.523438" xlink:href="#DejaVuSans-70"/>
      <use x="125" xlink:href="#DejaVuSans-69"/>
      <use x="152.783203" xlink:href="#DejaVuSans-73"/>
      <use x="204.882812" xlink:href="#DejaVuSans-6f"/>
      <use x="266.064453" xlink:href="#DejaVuSans-64"/>
      <use x="329.541016" xlink:href="#DejaVuSans-65"/>
      <use x="391.064453" xlink:href="#DejaVuSans-73"/>
     </g>
    </g>
   </g>
   <g id="matplotlib.axis_2">
    <g id="ytick_1">
     <g id="line2d_6">
      <defs>
       <path d="M 0 0 
L -3.5 0 
" id="m453e4e317d" style="stroke:#000000;stroke-width:0.8;"/>
      </defs>
      <g>
       <use style="stroke:#000000;stroke-width:0.8;" x="43.78125" xlink:href="#m453e4e317d" y="284.953664"/>
      </g>
     </g>
     <g id="text_7">
      <!-- 0.0 -->
      <defs>
       <path d="M 10.6875 12.40625 
L 21 12.40625 
L 21 0 
L 10.6875 0 
z
" id="DejaVuSans-2e"/>
      </defs>
      <g transform="translate(20.878125 288.752883)scale(0.1 -0.1)">
       <use xlink:href="#DejaVuSans-30"/>
       <use x="63.623047" xlink:href="#DejaVuSans-2e"/>
       <use x="95.410156" xlink:href="#DejaVuSans-30"/>
      </g>
     </g>
    </g>
    <g id="ytick_2">
     <g id="line2d_7">
      <g>
       <use style="stroke:#000000;stroke-width:0.8;" x="43.78125" xlink:href="#m453e4e317d" y="247.46852"/>
      </g>
     </g>
     <g id="text_8">
      <!-- 0.5 -->
      <defs>
       <path d="M 10.796875 72.90625 
L 49.515625 72.90625 
L 49.515625 64.59375 
L 19.828125 64.59375 
L 19.828125 46.734375 
Q 21.96875 47.46875 24.109375 47.828125 
Q 26.265625 48.1875 28.421875 48.1875 
Q 40.625 48.1875 47.75 41.5 
Q 54.890625 34.8125 54.890625 23.390625 
Q 54.890625 11.625 47.5625 5.09375 
Q 40.234375 -1.421875 26.90625 -1.421875 
Q 22.3125 -1.421875 17.546875 -0.640625 
Q 12.796875 0.140625 7.71875 1.703125 
L 7.71875 11.625 
Q 12.109375 9.234375 16.796875 8.0625 
Q 21.484375 6.890625 26.703125 6.890625 
Q 35.15625 6.890625 40.078125 11.328125 
Q 45.015625 15.765625 45.015625 23.390625 
Q 45.015625 31 40.078125 35.4375 
Q 35.15625 39.890625 26.703125 39.890625 
Q 22.75 39.890625 18.8125 39.015625 
Q 14.890625 38.140625 10.796875 36.28125 
z
" id="DejaVuSans-35"/>
      </defs>
      <g transform="translate(20.878125 251.267739)scale(0.1 -0.1)">
       <use xlink:href="#DejaVuSans-30"/>
       <use x="63.623047" xlink:href="#DejaVuSans-2e"/>
       <use x="95.410156" xlink:href="#DejaVuSans-35"/>
      </g>
     </g>
    </g>
    <g id="ytick_3">
     <g id="line2d_8">
      <g>
       <use style="stroke:#000000;stroke-width:0.8;" x="43.78125" xlink:href="#m453e4e317d" y="209.983377"/>
      </g>
     </g>
     <g id="text_9">
      <!-- 1.0 -->
      <defs>
       <path d="M 12.40625 8.296875 
L 28.515625 8.296875 
L 28.515625 63.921875 
L 10.984375 60.40625 
L 10.984375 69.390625 
L 28.421875 72.90625 
L 38.28125 72.90625 
L 38.28125 8.296875 
L 54.390625 8.296875 
L 54.390625 0 
L 12.40625 0 
z
" id="DejaVuSans-31"/>
      </defs>
      <g transform="translate(20.878125 213.782596)scale(0.1 -0.1)">
       <use xlink:href="#DejaVuSans-31"/>
       <use x="63.623047" xlink:href="#DejaVuSans-2e"/>
       <use x="95.410156" xlink:href="#DejaVuSans-30"/>
      </g>
     </g>
    </g>
    <g id="ytick_4">
     <g id="line2d_9">
      <g>
       <use style="stroke:#000000;stroke-width:0.8;" x="43.78125" xlink:href="#m453e4e317d" y="172.498234"/>
      </g>
     </g>
     <g id="text_10">
      <!-- 1.5 -->
      <g transform="translate(20.878125 176.297453)scale(0.1 -0.1)">
       <use xlink:href="#DejaVuSans-31"/>
       <use x="63.623047" xlink:href="#DejaVuSans-2e"/>
       <use x="95.410156" xlink:href="#DejaVuSans-35"/>
      </g>
     </g>
    </g>
    <g id="ytick_5">
     <g id="line2d_10">
      <g>
       <use style="stroke:#000000;stroke-width:0.8;" x="43.78125" xlink:href="#m453e4e317d" y="135.013091"/>
      </g>
     </g>
     <g id="text_11">
      <!-- 2.0 -->
      <g transform="translate(20.878125 138.812309)scale(0.1 -0.1)">
       <use xlink:href="#DejaVuSans-32"/>
       <use x="63.623047" xlink:href="#DejaVuSans-2e"/>
       <use x="95.410156" xlink:href="#DejaVuSans-30"/>
      </g>
     </g>
    </g>
    <g id="ytick_6">
     <g id="line2d_11">
      <g>
       <use style="stroke:#000000;stroke-width:0.8;" x="43.78125" xlink:href="#m453e4e317d" y="97.527947"/>
      </g>
     </g>
     <g id="text_12">
      <!-- 2.5 -->
      <g transform="translate(20.878125 101.327166)scale(0.1 -0.1)">
       <use xlink:href="#DejaVuSans-32"/>
       <use x="63.623047" xlink:href="#DejaVuSans-2e"/>
       <use x="95.410156" xlink:href="#DejaVuSans-35"/>
      </g>
     </g>
    </g>
    <g id="ytick_7">
     <g id="line2d_12">
      <g>
       <use style="stroke:#000000;stroke-width:0.8;" x="43.78125" xlink:href="#m453e4e317d" y="60.042804"/>
      </g>
     </g>
     <g id="text_13">
      <!-- 3.0 -->
      <defs>
       <path d="M 40.578125 39.3125 
Q 47.65625 37.796875 51.625 33 
Q 55.609375 28.21875 55.609375 21.1875 
Q 55.609375 10.40625 48.1875 4.484375 
Q 40.765625 -1.421875 27.09375 -1.421875 
Q 22.515625 -1.421875 17.65625 -0.515625 
Q 12.796875 0.390625 7.625 2.203125 
L 7.625 11.71875 
Q 11.71875 9.328125 16.59375 8.109375 
Q 21.484375 6.890625 26.8125 6.890625 
Q 36.078125 6.890625 40.9375 10.546875 
Q 45.796875 14.203125 45.796875 21.1875 
Q 45.796875 27.640625 41.28125 31.265625 
Q 36.765625 34.90625 28.71875 34.90625 
L 20.21875 34.90625 
L 20.21875 43.015625 
L 29.109375 43.015625 
Q 36.375 43.015625 40.234375 45.921875 
Q 44.09375 48.828125 44.09375 54.296875 
Q 44.09375 59.90625 40.109375 62.90625 
Q 36.140625 65.921875 28.71875 65.921875 
Q 24.65625 65.921875 20.015625 65.03125 
Q 15.375 64.15625 9.8125 62.3125 
L 9.8125 71.09375 
Q 15.4375 72.65625 20.34375 73.4375 
Q 25.25 74.21875 29.59375 74.21875 
Q 40.828125 74.21875 47.359375 69.109375 
Q 53.90625 64.015625 53.90625 55.328125 
Q 53.90625 49.265625 50.4375 45.09375 
Q 46.96875 40.921875 40.578125 39.3125 
z
" id="DejaVuSans-33"/>
      </defs>
      <g transform="translate(20.878125 63.842023)scale(0.1 -0.1)">
       <use xlink:href="#DejaVuSans-33"/>
       <use x="63.623047" xlink:href="#DejaVuSans-2e"/>
       <use x="95.410156" xlink:href="#DejaVuSans-30"/>
      </g>
     </g>
    </g>
    <g id="ytick_8">
     <g id="line2d_13">
      <g>
       <use style="stroke:#000000;stroke-width:0.8;" x="43.78125" xlink:href="#m453e4e317d" y="22.557661"/>
      </g>
     </g>
     <g id="text_14">
      <!-- 3.5 -->
      <g transform="translate(20.878125 26.356879)scale(0.1 -0.1)">
       <use xlink:href="#DejaVuSans-33"/>
       <use x="63.623047" xlink:href="#DejaVuSans-2e"/>
       <use x="95.410156" xlink:href="#DejaVuSans-35"/>
      </g>
     </g>
    </g>
    <g id="text_15">
     <!-- average maxQ -->
     <defs>
      <path d="M 34.28125 27.484375 
Q 23.390625 27.484375 19.1875 25 
Q 14.984375 22.515625 14.984375 16.5 
Q 14.984375 11.71875 18.140625 8.90625 
Q 21.296875 6.109375 26.703125 6.109375 
Q 34.1875 6.109375 38.703125 11.40625 
Q 43.21875 16.703125 43.21875 25.484375 
L 43.21875 27.484375 
z
M 52.203125 31.203125 
L 52.203125 0 
L 43.21875 0 
L 43.21875 8.296875 
Q 40.140625 3.328125 35.546875 0.953125 
Q 30.953125 -1.421875 24.3125 -1.421875 
Q 15.921875 -1.421875 10.953125 3.296875 
Q 6 8.015625 6 15.921875 
Q 6 25.140625 12.171875 29.828125 
Q 18.359375 34.515625 30.609375 34.515625 
L 43.21875 34.515625 
L 43.21875 35.40625 
Q 43.21875 41.609375 39.140625 45 
Q 35.0625 48.390625 27.6875 48.390625 
Q 23 48.390625 18.546875 47.265625 
Q 14.109375 46.140625 10.015625 43.890625 
L 10.015625 52.203125 
Q 14.9375 54.109375 19.578125 55.046875 
Q 24.21875 56 28.609375 56 
Q 40.484375 56 46.34375 49.84375 
Q 52.203125 43.703125 52.203125 31.203125 
z
" id="DejaVuSans-61"/>
      <path d="M 2.984375 54.6875 
L 12.5 54.6875 
L 29.59375 8.796875 
L 46.6875 54.6875 
L 56.203125 54.6875 
L 35.6875 0 
L 23.484375 0 
z
" id="DejaVuSans-76"/>
      <path d="M 41.109375 46.296875 
Q 39.59375 47.171875 37.8125 47.578125 
Q 36.03125 48 33.890625 48 
Q 26.265625 48 22.1875 43.046875 
Q 18.109375 38.09375 18.109375 28.8125 
L 18.109375 0 
L 9.078125 0 
L 9.078125 54.6875 
L 18.109375 54.6875 
L 18.109375 46.1875 
Q 20.953125 51.171875 25.484375 53.578125 
Q 30.03125 56 36.53125 56 
Q 37.453125 56 38.578125 55.875 
Q 39.703125 55.765625 41.0625 55.515625 
z
" id="DejaVuSans-72"/>
      <path d="M 45.40625 27.984375 
Q 45.40625 37.75 41.375 43.109375 
Q 37.359375 48.484375 30.078125 48.484375 
Q 22.859375 48.484375 18.828125 43.109375 
Q 14.796875 37.75 14.796875 27.984375 
Q 14.796875 18.265625 18.828125 12.890625 
Q 22.859375 7.515625 30.078125 7.515625 
Q 37.359375 7.515625 41.375 12.890625 
Q 45.40625 18.265625 45.40625 27.984375 
z
M 54.390625 6.78125 
Q 54.390625 -7.171875 48.1875 -13.984375 
Q 42 -20.796875 29.203125 -20.796875 
Q 24.46875 -20.796875 20.265625 -20.09375 
Q 16.0625 -19.390625 12.109375 -17.921875 
L 12.109375 -9.1875 
Q 16.0625 -11.328125 19.921875 -12.34375 
Q 23.78125 -13.375 27.78125 -13.375 
Q 36.625 -13.375 41.015625 -8.765625 
Q 45.40625 -4.15625 45.40625 5.171875 
L 45.40625 9.625 
Q 42.625 4.78125 38.28125 2.390625 
Q 33.9375 0 27.875 0 
Q 17.828125 0 11.671875 7.65625 
Q 5.515625 15.328125 5.515625 27.984375 
Q 5.515625 40.671875 11.671875 48.328125 
Q 17.828125 56 27.875 56 
Q 33.9375 56 38.28125 53.609375 
Q 42.625 51.21875 45.40625 46.390625 
L 45.40625 54.6875 
L 54.390625 54.6875 
z
" id="DejaVuSans-67"/>
      <path id="DejaVuSans-20"/>
      <path d="M 52 44.1875 
Q 55.375 50.25 60.0625 53.125 
Q 64.75 56 71.09375 56 
Q 79.640625 56 84.28125 50.015625 
Q 88.921875 44.046875 88.921875 33.015625 
L 88.921875 0 
L 79.890625 0 
L 79.890625 32.71875 
Q 79.890625 40.578125 77.09375 44.375 
Q 74.3125 48.1875 68.609375 48.1875 
Q 61.625 48.1875 57.5625 43.546875 
Q 53.515625 38.921875 53.515625 30.90625 
L 53.515625 0 
L 44.484375 0 
L 44.484375 32.71875 
Q 44.484375 40.625 41.703125 44.40625 
Q 38.921875 48.1875 33.109375 48.1875 
Q 26.21875 48.1875 22.15625 43.53125 
Q 18.109375 38.875 18.109375 30.90625 
L 18.109375 0 
L 9.078125 0 
L 9.078125 54.6875 
L 18.109375 54.6875 
L 18.109375 46.1875 
Q 21.1875 51.21875 25.484375 53.609375 
Q 29.78125 56 35.6875 56 
Q 41.65625 56 45.828125 52.96875 
Q 50 49.953125 52 44.1875 
z
" id="DejaVuSans-6d"/>
      <path d="M 54.890625 54.6875 
L 35.109375 28.078125 
L 55.90625 0 
L 45.3125 0 
L 29.390625 21.484375 
L 13.484375 0 
L 2.875 0 
L 24.125 28.609375 
L 4.6875 54.6875 
L 15.28125 54.6875 
L 29.78125 35.203125 
L 44.28125 54.6875 
z
" id="DejaVuSans-78"/>
      <path d="M 39.40625 66.21875 
Q 28.65625 66.21875 22.328125 58.203125 
Q 16.015625 50.203125 16.015625 36.375 
Q 16.015625 22.609375 22.328125 14.59375 
Q 28.65625 6.59375 39.40625 6.59375 
Q 50.140625 6.59375 56.421875 14.59375 
Q 62.703125 22.609375 62.703125 36.375 
Q 62.703125 50.203125 56.421875 58.203125 
Q 50.140625 66.21875 39.40625 66.21875 
z
M 53.21875 1.3125 
L 66.21875 -12.890625 
L 54.296875 -12.890625 
L 43.5 -1.21875 
Q 41.890625 -1.3125 41.03125 -1.359375 
Q 40.1875 -1.421875 39.40625 -1.421875 
Q 24.03125 -1.421875 14.8125 8.859375 
Q 5.609375 19.140625 5.609375 36.375 
Q 5.609375 53.65625 14.8125 63.9375 
Q 24.03125 74.21875 39.40625 74.21875 
Q 54.734375 74.21875 63.90625 63.9375 
Q 73.09375 53.65625 73.09375 36.375 
Q 73.09375 23.6875 67.984375 14.640625 
Q 62.890625 5.609375 53.21875 1.3125 
z
" id="DejaVuSans-51"/>
     </defs>
     <g transform="translate(14.798438 192.263187)rotate(-90)scale(0.1 -0.1)">
      <use xlink:href="#DejaVuSans-61"/>
      <use x="61.279297" xlink:href="#DejaVuSans-76"/>
      <use x="120.458984" xlink:href="#DejaVuSans-65"/>
      <use x="181.982422" xlink:href="#DejaVuSans-72"/>
      <use x="223.095703" xlink:href="#DejaVuSans-61"/>
      <use x="284.375" xlink:href="#DejaVuSans-67"/>
      <use x="347.851562" xlink:href="#DejaVuSans-65"/>
      <use x="409.375" xlink:href="#DejaVuSans-20"/>
      <use x="441.162109" xlink:href="#DejaVuSans-6d"/>
      <use x="538.574219" xlink:href="#DejaVuSans-61"/>
      <use x="599.853516" xlink:href="#DejaVuSans-78"/>
      <use x="659.033203" xlink:href="#DejaVuSans-51"/>
     </g>
    </g>
   </g>
   <g id="line2d_14">
    <path clip-path="url(#p960860a939)" d="M 60.013977 269.358001 
L 60.39458 270.449367 
L 60.775184 270.694185 
L 61.155787 270.643765 
L 61.53639 269.608139 
L 61.916993 269.828897 
L 62.297597 270.553887 
L 63.058803 269.233448 
L 63.439406 270.548855 
L 63.820009 269.601686 
L 64.200613 270.490226 
L 64.581216 270.015381 
L 64.961819 269.170806 
L 65.342422 270.395366 
L 65.723026 269.562514 
L 66.103629 270.11949 
L 66.484232 269.359463 
L 66.864835 269.955746 
L 67.245438 270.797043 
L 67.626042 269.234919 
L 68.006645 269.606538 
L 68.387248 271.070351 
L 68.767851 270.805257 
L 69.529058 269.497564 
L 69.909661 270.464814 
L 70.670867 269.536911 
L 71.051471 270.404276 
L 71.432074 270.553449 
L 71.812677 270.287536 
L 72.19328 269.484673 
L 72.573883 270.760242 
L 72.954487 269.405414 
L 73.33509 269.545961 
L 74.096296 268.985506 
L 74.4769 270.526013 
L 75.238106 271.006536 
L 75.618709 270.953771 
L 75.999312 269.650989 
L 76.379916 270.054672 
L 77.141122 270.314734 
L 77.521725 269.845878 
L 77.902329 270.612104 
L 78.282932 269.176822 
L 78.663535 270.646519 
L 79.044138 270.025456 
L 79.424741 270.861763 
L 80.185948 269.553596 
L 80.566551 270.497275 
L 80.947154 270.219348 
L 81.327758 270.500062 
L 81.708361 269.887959 
L 82.088964 270.742459 
L 82.469567 269.132384 
L 82.85017 270.258001 
L 83.230774 270.512978 
L 83.611377 270.293692 
L 83.99198 270.328084 
L 84.372583 269.131896 
L 84.753186 269.459933 
L 85.13379 270.074863 
L 85.514393 269.91703 
L 85.894996 269.163382 
L 86.275599 269.700122 
L 86.656203 269.34068 
L 87.036806 270.867398 
L 87.417409 270.827513 
L 87.798012 269.550027 
L 88.178615 269.908029 
L 88.559219 271.194409 
L 88.939822 269.219266 
L 89.320425 269.189319 
L 89.701028 269.759642 
L 90.462235 269.497436 
L 90.842838 269.595901 
L 91.223441 269.425142 
L 91.604044 270.717512 
L 91.984648 269.346035 
L 92.365251 270.033182 
L 92.745854 271.267542 
L 93.507061 270.160181 
L 93.887664 269.103964 
L 94.268267 270.847499 
L 94.64887 270.894314 
L 95.029473 270.521152 
L 95.79068 270.307702 
L 96.171283 270.20283 
L 96.551886 269.173143 
L 96.932489 269.251707 
L 97.313093 270.374769 
L 97.693696 269.487329 
L 98.074299 270.994418 
L 98.454902 270.843326 
L 98.835506 271.053313 
L 99.216109 268.89439 
L 99.596712 269.587101 
L 100.357918 269.0302 
L 100.738522 269.487566 
L 101.119125 269.54017 
L 101.499728 270.857423 
L 101.880331 270.762366 
L 102.260935 270.181942 
L 102.641538 270.495841 
L 103.402744 270.384373 
L 103.783347 270.623469 
L 104.163951 270.177986 
L 104.544554 270.256357 
L 104.925157 269.071284 
L 105.30576 269.459415 
L 105.686364 269.673227 
L 106.44757 269.274904 
L 107.208776 269.197774 
L 107.58938 269.739467 
L 107.969983 270.765021 
L 108.350586 270.958845 
L 108.731189 269.561993 
L 109.111792 276.334125 
L 109.492396 271.234041 
L 109.872999 271.61562 
L 110.253602 269.088874 
L 110.634205 269.258447 
L 111.014809 268.079136 
L 111.395412 265.733063 
L 112.156618 264.034435 
L 112.537221 264.200471 
L 112.917825 265.172368 
L 113.298428 260.21512 
L 113.679031 261.351261 
L 114.059634 258.038657 
L 114.440238 256.985626 
L 114.820841 259.596052 
L 115.582047 254.968763 
L 115.96265 257.830652 
L 116.343254 257.643649 
L 116.723857 250.429908 
L 117.10446 256.225546 
L 117.485063 251.971971 
L 117.865666 246.113853 
L 118.24627 247.976156 
L 118.626873 251.740872 
L 119.007476 245.611644 
L 119.388079 248.829571 
L 119.768683 241.562241 
L 120.149286 247.740691 
L 120.529889 244.345375 
L 120.910492 250.530474 
L 121.291095 238.827847 
L 121.671699 245.627003 
L 122.052302 235.3442 
L 122.432905 238.674748 
L 123.194112 232.841746 
L 123.574715 246.236754 
L 123.955318 233.66268 
L 124.335921 235.703997 
L 124.716524 236.155725 
L 125.097128 232.070677 
L 125.477731 232.888553 
L 125.858334 231.827721 
L 126.238937 222.08085 
L 126.619541 236.090987 
L 127.000144 229.041691 
L 127.76135 233.784396 
L 128.141953 221.833097 
L 128.522557 218.940547 
L 128.90316 217.923771 
L 129.283763 219.17174 
L 129.664366 230.641957 
L 130.425573 210.040655 
L 130.806176 224.475547 
L 131.186779 217.344248 
L 131.567382 220.985241 
L 131.947986 208.751696 
L 132.328589 215.852029 
L 132.709192 207.814249 
L 133.089795 217.900896 
L 133.470398 202.413663 
L 133.851002 209.038939 
L 134.231605 206.276159 
L 134.612208 202.029278 
L 134.992811 206.338768 
L 135.373415 199.275304 
L 135.754018 189.732684 
L 136.134621 206.130761 
L 136.515224 199.91919 
L 136.895827 211.35074 
L 137.276431 187.838982 
L 137.657034 189.454289 
L 138.41824 211.538595 
L 138.798844 199.427188 
L 139.179447 198.514381 
L 139.56005 182.422839 
L 139.940653 202.395301 
L 140.321256 184.961716 
L 140.70186 195.25825 
L 141.082463 185.748915 
L 141.463066 189.46889 
L 141.843669 200.61103 
L 142.224272 203.179602 
L 142.604876 190.354087 
L 142.985479 190.072054 
L 143.366082 186.379349 
L 143.746685 209.750324 
L 144.127289 188.193201 
L 144.507892 186.120151 
L 144.888495 175.851322 
L 145.269098 180.739417 
L 145.649701 189.573775 
L 146.030305 169.024234 
L 146.410908 183.809188 
L 146.791511 185.197082 
L 147.552718 215.165345 
L 147.933321 218.736967 
L 148.313924 166.887141 
L 148.694527 159.806668 
L 149.07513 172.610284 
L 149.455734 163.733422 
L 149.836337 164.730851 
L 150.597543 198.108797 
L 150.978147 174.687719 
L 151.35875 215.711409 
L 151.739353 173.715545 
L 152.119956 158.099824 
L 152.500559 163.14885 
L 152.881163 223.567546 
L 153.261766 164.957657 
L 153.642369 204.081449 
L 154.022972 143.588625 
L 154.784179 213.805611 
L 155.164782 161.671766 
L 155.545385 193.668872 
L 155.925988 182.861876 
L 156.306592 166.392448 
L 156.687195 156.503881 
L 157.067798 196.407593 
L 157.448401 152.981747 
L 157.829004 156.373374 
L 158.209608 143.018687 
L 158.590211 152.948723 
L 159.351417 213.523187 
L 159.732021 143.518501 
L 160.112624 178.591715 
L 160.493227 137.508403 
L 160.87383 130.503797 
L 161.254433 145.082114 
L 161.635037 152.287629 
L 162.01564 131.091474 
L 162.396243 174.188259 
L 162.776846 140.057936 
L 163.15745 146.827213 
L 163.538053 142.865916 
L 163.918656 180.932063 
L 164.299259 140.278222 
L 164.679862 159.739615 
L 165.060466 166.840935 
L 165.441069 143.236802 
L 165.821672 144.557566 
L 166.202275 106.942085 
L 166.582878 144.629595 
L 166.963482 130.177987 
L 167.344085 122.906838 
L 167.724688 120.728423 
L 168.105291 172.255617 
L 168.485895 137.35136 
L 168.866498 141.236098 
L 169.247101 175.974416 
L 169.627704 135.472053 
L 170.008307 164.50909 
L 170.388911 109.755584 
L 170.769514 129.360873 
L 171.150117 142.225585 
L 171.53072 197.614448 
L 171.911324 118.261185 
L 172.291927 132.722123 
L 172.67253 104.174115 
L 173.053133 157.187554 
L 173.433736 116.390862 
L 173.81434 170.192547 
L 174.194943 177.95934 
L 174.575546 150.82523 
L 174.956149 100.182131 
L 175.336753 209.337913 
L 175.717356 135.527888 
L 176.097959 100.362259 
L 176.478562 203.033851 
L 176.859165 107.07479 
L 177.239769 158.71175 
L 177.620372 98.385322 
L 178.000975 112.331464 
L 178.381578 111.981867 
L 178.762181 97.04108 
L 179.142785 104.494595 
L 179.903991 131.947604 
L 180.284594 88.049223 
L 180.665198 88.531256 
L 181.045801 147.154155 
L 181.426404 84.347018 
L 181.807007 79.669225 
L 182.18761 113.80593 
L 182.568214 123.580897 
L 182.948817 87.111977 
L 183.32942 118.716872 
L 183.710023 100.839832 
L 184.090627 143.987543 
L 184.47123 109.218736 
L 184.851833 87.73001 
L 185.232436 103.230191 
L 185.613039 99.163623 
L 185.993643 73.288 
L 186.374246 104.401732 
L 186.754849 78.396573 
L 187.135452 71.345866 
L 187.516055 83.257866 
L 187.896659 87.477227 
L 188.277262 90.060112 
L 188.657865 82.113787 
L 189.038468 89.019853 
L 189.419072 81.852894 
L 189.799675 93.774115 
L 190.180278 67.64876 
L 190.560881 76.473275 
L 190.941484 78.408961 
L 191.322088 140.967939 
L 191.702691 99.832441 
L 192.083294 116.808412 
L 192.463897 87.660412 
L 192.844501 72.342047 
L 193.225104 144.581343 
L 193.605707 78.826921 
L 194.366913 100.286598 
L 194.747517 95.676002 
L 195.12812 62.973876 
L 195.508723 97.414896 
L 195.889326 86.462132 
L 196.26993 65.991106 
L 196.650533 109.056846 
L 197.031136 82.738323 
L 197.411739 98.935506 
L 197.792342 91.284069 
L 198.172946 61.35264 
L 198.553549 68.444627 
L 198.934152 102.795796 
L 199.314755 86.497624 
L 199.695358 57.805901 
L 200.075962 113.460451 
L 200.456565 62.555377 
L 200.837168 95.229854 
L 201.217771 60.993816 
L 201.978978 85.456059 
L 202.359581 119.092533 
L 202.740184 109.649399 
L 203.120787 76.5119 
L 203.501391 61.461147 
L 203.881994 73.433453 
L 204.262597 77.866099 
L 204.6432 90.912321 
L 205.023804 84.795112 
L 205.404407 93.246703 
L 205.78501 74.218198 
L 206.165613 66.618329 
L 206.546216 72.985818 
L 206.92682 100.191369 
L 207.307423 82.318373 
L 207.688026 83.919788 
L 208.068629 94.716358 
L 208.449233 84.466779 
L 208.829836 159.023963 
L 209.210439 68.960922 
L 209.591042 111.265276 
L 209.971645 78.697875 
L 210.352249 78.236791 
L 210.732852 62.333076 
L 211.113455 69.294716 
L 211.494058 80.506995 
L 211.874661 48.449663 
L 213.016471 93.851991 
L 213.397074 71.728356 
L 213.777678 99.231278 
L 214.158281 161.431342 
L 214.538884 68.823434 
L 214.919487 84.769833 
L 215.30009 94.400674 
L 215.680694 56.756378 
L 216.061297 57.332576 
L 216.4419 59.286198 
L 216.822503 105.436994 
L 217.203107 72.082545 
L 217.964313 61.197766 
L 218.344916 53.09499 
L 218.725519 80.925981 
L 219.106123 70.136922 
L 219.486726 47.775704 
L 219.867329 76.790518 
L 220.247932 59.224155 
L 220.628536 129.372586 
L 221.009139 62.685195 
L 221.389742 46.227299 
L 221.770345 62.031521 
L 222.150948 49.413574 
L 222.531552 72.47378 
L 222.912155 69.529502 
L 223.292758 47.030456 
L 223.673361 51.849127 
L 224.053964 92.496517 
L 224.434568 42.325633 
L 224.815171 96.18636 
L 225.195774 52.370932 
L 225.576377 84.154265 
L 225.956981 65.985514 
L 226.337584 58.937884 
L 226.718187 62.819357 
L 227.09879 70.489145 
L 227.479393 62.689459 
L 227.859997 65.34538 
L 228.2406 43.614505 
L 228.621203 48.703429 
L 229.38241 86.339533 
L 229.763013 59.865271 
L 230.143616 91.368258 
L 230.524219 68.236326 
L 230.904822 86.837496 
L 231.666029 48.546769 
L 232.046632 72.878629 
L 232.427235 65.657298 
L 232.807839 94.349552 
L 233.188442 66.809239 
L 233.569045 55.753843 
L 233.949648 77.403605 
L 234.330251 48.478411 
L 234.710855 62.709073 
L 235.091458 52.047694 
L 235.472061 74.275946 
L 235.852664 59.708283 
L 236.233267 74.846593 
L 236.613871 74.534176 
L 236.994474 71.473817 
L 237.375077 77.604455 
L 237.75568 47.253434 
L 238.136284 37.832325 
L 238.516887 50.639523 
L 238.89749 93.968371 
L 239.278093 67.852842 
L 239.658696 92.420824 
L 240.0393 49.227468 
L 240.419903 53.262078 
L 240.800506 62.066973 
L 241.181109 58.669074 
L 241.561713 201.323494 
L 241.942316 45.590527 
L 242.322919 45.260565 
L 242.703522 81.158573 
L 243.084125 60.479689 
L 243.464729 76.703287 
L 243.845332 154.300768 
L 244.225935 61.354789 
L 244.606538 57.044066 
L 244.987142 74.833135 
L 245.367745 84.505953 
L 245.748348 61.080879 
L 246.128951 47.188691 
L 246.509554 62.186237 
L 246.890158 67.831013 
L 247.270761 64.021942 
L 247.651364 47.974612 
L 248.031967 75.23922 
L 248.41257 65.638238 
L 248.793174 47.946318 
L 249.173777 59.272383 
L 249.55438 60.42049 
L 249.934983 72.31781 
L 250.315587 41.955651 
L 250.69619 70.477862 
L 251.076793 49.581626 
L 251.457396 76.486217 
L 251.837999 46.36128 
L 252.218603 44.033527 
L 252.599206 61.558275 
L 252.979809 51.777357 
L 253.360412 70.152385 
L 253.741016 55.530294 
L 254.121619 84.380716 
L 254.502222 62.61606 
L 254.882825 66.955229 
L 255.263428 74.388143 
L 256.024635 53.272713 
L 256.405238 54.315028 
L 256.785841 58.128306 
L 257.166445 52.985653 
L 257.547048 50.125828 
L 257.927651 54.015406 
L 258.308254 83.300616 
L 258.688857 53.395856 
L 259.069461 70.92863 
L 259.830667 43.647565 
L 260.21127 85.1075 
L 260.591873 47.595295 
L 260.972477 43.964956 
L 261.35308 42.465183 
L 262.114286 67.25972 
L 262.49489 54.949768 
L 262.875493 108.259846 
L 263.256096 37.761891 
L 263.636699 45.850275 
L 264.017302 49.896849 
L 264.397906 43.166211 
L 264.778509 67.971157 
L 265.159112 42.063018 
L 265.539715 46.503717 
L 265.920319 36.401552 
L 266.300922 65.853703 
L 266.681525 41.012015 
L 267.062128 38.911331 
L 267.442731 51.793949 
L 267.823335 34.414125 
L 268.203938 66.910494 
L 268.584541 78.400038 
L 268.965144 60.690238 
L 269.345747 56.923208 
L 269.726351 50.761403 
L 270.106954 69.371426 
L 270.487557 48.797954 
L 270.86816 62.501147 
L 271.629367 41.974064 
L 272.00997 64.442074 
L 272.390573 49.654311 
L 272.771176 48.407039 
L 273.15178 44.01427 
L 273.532383 67.558725 
L 273.912986 58.945802 
L 274.293589 56.065686 
L 274.674193 130.546282 
L 275.054796 36.149065 
L 275.816002 81.0213 
L 276.196605 46.485503 
L 276.577209 39.664178 
L 276.957812 35.602671 
L 277.719018 63.419564 
L 278.099622 73.374655 
L 278.480225 45.378054 
L 278.860828 44.065904 
L 279.241431 49.183388 
L 279.622034 45.810141 
L 280.002638 82.305887 
L 280.383241 41.223541 
L 280.763844 48.581656 
L 281.144447 74.999514 
L 281.52505 45.866015 
L 281.905654 74.616153 
L 282.286257 54.08787 
L 282.66686 47.784937 
L 283.047463 58.418472 
L 283.428067 61.836131 
L 283.80867 53.365813 
L 284.189273 39.21921 
L 284.569876 35.436565 
L 284.950479 109.405124 
L 285.331083 70.012972 
L 285.711686 49.570926 
L 286.092289 59.698808 
L 286.472892 46.963035 
L 286.853496 54.60346 
L 287.234099 67.786331 
L 287.614702 44.788749 
L 287.995305 77.954229 
L 288.375908 62.796851 
L 288.756512 56.20414 
L 289.137115 58.269022 
L 289.517718 48.247136 
L 289.898321 41.522929 
L 290.278925 89.963974 
L 290.659528 59.363742 
L 291.040131 47.961231 
L 291.420734 47.422273 
L 291.801337 44.962639 
L 292.181941 70.96046 
L 292.562544 44.679902 
L 292.943147 117.832708 
L 293.32375 56.703144 
L 293.704353 76.252884 
L 294.084957 51.830484 
L 294.46556 56.961238 
L 295.226766 43.549479 
L 295.60737 60.763822 
L 297.129782 44.856297 
L 297.510386 53.503198 
L 297.890989 50.635036 
L 298.271592 64.871198 
L 298.652195 41.337085 
L 299.032799 46.144193 
L 299.413402 40.676055 
L 299.794005 67.455963 
L 300.174608 84.24019 
L 300.555211 52.48684 
L 300.935815 59.574068 
L 301.316418 49.648296 
L 301.697021 62.638219 
L 302.077624 43.494082 
L 302.458228 49.665679 
L 302.838831 64.078069 
L 303.219434 51.086875 
L 303.600037 58.888446 
L 303.98064 54.791859 
L 304.361244 75.098977 
L 305.12245 57.233158 
L 305.503053 43.992905 
L 305.883656 48.083917 
L 306.26426 58.2401 
L 306.644863 50.601855 
L 307.025466 67.755665 
L 307.406069 60.034306 
L 307.786673 74.269435 
L 308.167276 39.871479 
L 308.547879 57.176133 
L 308.928482 81.312645 
L 309.309085 78.066971 
L 309.689689 67.857035 
L 310.070292 51.992062 
L 310.450895 46.029574 
L 310.831498 56.083922 
L 311.212102 45.241834 
L 311.592705 63.972712 
L 311.973308 62.399416 
L 312.353911 50.564542 
L 312.734514 66.06847 
L 313.115118 75.453511 
L 313.495721 56.125842 
L 313.876324 60.410224 
L 314.256927 51.334702 
L 314.637531 78.031918 
L 315.018134 57.582874 
L 315.398737 48.881175 
L 315.77934 57.303875 
L 316.540547 70.314165 
L 316.92115 45.262089 
L 317.301753 51.458736 
L 317.682356 55.305558 
L 318.062959 52.722427 
L 318.443563 62.670344 
L 318.824166 50.620152 
L 319.204769 79.963821 
L 319.965976 45.942661 
L 320.346579 58.821626 
L 320.727182 52.354894 
L 321.107785 54.159982 
L 321.488388 54.341076 
L 321.868992 72.53347 
L 322.249595 49.701392 
L 322.630198 57.036147 
L 323.010801 47.887426 
L 323.391405 58.080372 
L 323.772008 46.844297 
L 324.152611 54.958092 
L 324.533214 51.642157 
L 324.913817 71.043648 
L 325.294421 73.851683 
L 325.675024 54.48072 
L 326.055627 60.557995 
L 326.43623 55.355971 
L 326.816834 66.063982 
L 327.197437 52.107616 
L 327.57804 54.823519 
L 327.958643 62.277139 
L 328.339246 66.165985 
L 328.71985 49.464512 
L 329.100453 59.609555 
L 329.481056 49.494784 
L 329.861659 87.112642 
L 330.242262 51.909846 
L 330.622866 55.489342 
L 331.003469 67.403322 
L 331.384072 47.273182 
L 331.764675 57.70247 
L 332.145279 81.744935 
L 332.525882 52.194216 
L 332.906485 56.570728 
L 333.287088 70.197458 
L 333.667691 63.923723 
L 334.048295 60.172085 
L 334.428898 58.21312 
L 334.809501 53.690096 
L 335.190104 68.851955 
L 335.570708 51.441812 
L 335.951311 81.314077 
L 336.712517 64.050002 
L 337.09312 62.789179 
L 337.473724 70.704163 
L 337.854327 56.535151 
L 338.23493 66.109351 
L 338.615533 50.711722 
L 338.996136 69.7252 
L 339.37674 70.84067 
L 339.757343 109.003111 
L 340.137946 57.71561 
L 340.518549 69.539851 
L 340.899153 68.74117 
L 341.279756 61.641193 
L 341.660359 57.259106 
L 342.040962 58.432345 
L 342.421565 61.04997 
L 342.802169 86.191156 
L 343.182772 48.548726 
L 343.563375 49.035599 
L 343.943978 76.026376 
L 344.324582 61.851402 
L 344.705185 64.098949 
L 345.085788 65.018227 
L 345.466391 56.233403 
L 345.846994 50.021285 
L 346.227598 58.86216 
L 346.608201 54.134299 
L 346.988804 56.560103 
L 347.369407 56.048189 
L 347.750011 56.29587 
L 348.130614 53.074877 
L 348.511217 48.749133 
L 348.89182 53.006574 
L 349.272423 55.389079 
L 349.653027 53.102413 
L 350.03363 54.672841 
L 350.414233 68.00627 
L 350.794836 92.846458 
L 351.175439 64.212308 
L 351.556043 73.131949 
L 351.936646 53.81034 
L 352.317249 45.839298 
L 352.697852 49.920288 
L 353.078456 122.844406 
L 353.459059 86.437209 
L 353.839662 116.397368 
L 354.220265 53.698457 
L 354.600868 54.484151 
L 354.981472 52.060144 
L 355.362075 51.524992 
L 355.742678 87.724663 
L 356.123281 62.686805 
L 356.503885 58.497873 
L 356.884488 61.451565 
L 357.265091 54.37526 
L 357.645694 52.09213 
L 358.026297 73.228519 
L 358.406901 73.100086 
L 358.787504 51.781975 
L 359.168107 63.972217 
L 359.54871 57.45282 
L 359.929314 48.388116 
L 360.309917 66.292712 
L 360.69052 50.626479 
L 361.071123 52.516243 
L 361.451726 61.532556 
L 361.83233 50.53983 
L 362.212933 51.527576 
L 362.593536 48.908926 
L 362.974139 64.677716 
L 363.354742 74.597029 
L 363.735346 61.910385 
L 364.115949 56.092677 
L 364.496552 69.7672 
L 364.877155 57.756895 
L 365.257759 79.031305 
L 365.638362 65.167692 
L 366.018965 84.116044 
L 366.399568 57.471759 
L 366.780171 60.502124 
L 367.160775 53.877814 
L 367.541378 50.349368 
L 367.921981 58.207705 
L 368.302584 59.36882 
L 368.683188 53.226808 
L 369.063791 55.688067 
L 369.444394 63.883396 
L 370.2056 52.450704 
L 370.586204 58.818637 
L 370.966807 62.849289 
L 371.34741 54.808641 
L 372.108617 79.825409 
L 372.48922 60.231018 
L 372.869823 53.747268 
L 373.250426 54.455902 
L 373.631029 57.867267 
L 374.011633 51.469301 
L 374.392236 53.686083 
L 374.772839 68.529676 
L 375.153442 54.361471 
L 375.534045 65.574697 
L 375.914649 50.913968 
L 376.295252 51.317761 
L 376.675855 82.257848 
L 377.056458 60.069328 
L 377.437062 57.273301 
L 377.817665 57.469041 
L 378.198268 64.739409 
L 378.578871 53.827889 
L 378.959474 56.011926 
L 379.340078 68.494081 
L 379.720681 47.681195 
L 380.101284 101.436911 
L 380.481887 68.954852 
L 380.862491 52.622108 
L 381.243094 59.247215 
L 382.0043 63.165677 
L 382.384903 56.781318 
L 382.765507 58.979874 
L 383.14611 49.422218 
L 383.526713 65.137987 
L 383.907316 54.387478 
L 384.28792 60.955651 
L 384.668523 74.823825 
L 384.668523 74.823825 
" style="fill:none;stroke:#1f77b4;stroke-linecap:square;stroke-width:0.5;"/>
   </g>
   <g id="patch_3">
    <path d="M 43.78125 288.430125 
L 43.78125 22.318125 
" style="fill:none;stroke:#000000;stroke-linecap:square;stroke-linejoin:miter;stroke-width:0.8;"/>
   </g>
   <g id="patch_4">
    <path d="M 400.90125 288.430125 
L 400.90125 22.318125 
" style="fill:none;stroke:#000000;stroke-linecap:square;stroke-linejoin:miter;stroke-width:0.8;"/>
   </g>
   <g id="patch_5">
    <path d="M 43.78125 288.430125 
L 400.90125 288.430125 
" style="fill:none;stroke:#000000;stroke-linecap:square;stroke-linejoin:miter;stroke-width:0.8;"/>
   </g>
   <g id="patch_6">
    <path d="M 43.78125 22.318125 
L 400.90125 22.318125 
" style="fill:none;stroke:#000000;stroke-linecap:square;stroke-linejoin:miter;stroke-width:0.8;"/>
   </g>
   <g id="text_16">
    <!-- Average maxQ per episode, joint1 -->
    <defs>
     <path d="M 34.1875 63.1875 
L 20.796875 26.90625 
L 47.609375 26.90625 
z
M 28.609375 72.90625 
L 39.796875 72.90625 
L 67.578125 0 
L 57.328125 0 
L 50.6875 18.703125 
L 17.828125 18.703125 
L 11.1875 0 
L 0.78125 0 
z
" id="DejaVuSans-41"/>
     <path d="M 11.71875 12.40625 
L 22.015625 12.40625 
L 22.015625 4 
L 14.015625 -11.625 
L 7.71875 -11.625 
L 11.71875 4 
z
" id="DejaVuSans-2c"/>
     <path d="M 9.421875 54.6875 
L 18.40625 54.6875 
L 18.40625 -0.984375 
Q 18.40625 -11.421875 14.421875 -16.109375 
Q 10.453125 -20.796875 1.609375 -20.796875 
L -1.8125 -20.796875 
L -1.8125 -13.1875 
L 0.59375 -13.1875 
Q 5.71875 -13.1875 7.5625 -10.8125 
Q 9.421875 -8.453125 9.421875 -0.984375 
z
M 9.421875 75.984375 
L 18.40625 75.984375 
L 18.40625 64.59375 
L 9.421875 64.59375 
z
" id="DejaVuSans-6a"/>
     <path d="M 54.890625 33.015625 
L 54.890625 0 
L 45.90625 0 
L 45.90625 32.71875 
Q 45.90625 40.484375 42.875 44.328125 
Q 39.84375 48.1875 33.796875 48.1875 
Q 26.515625 48.1875 22.3125 43.546875 
Q 18.109375 38.921875 18.109375 30.90625 
L 18.109375 0 
L 9.078125 0 
L 9.078125 54.6875 
L 18.109375 54.6875 
L 18.109375 46.1875 
Q 21.34375 51.125 25.703125 53.5625 
Q 30.078125 56 35.796875 56 
Q 45.21875 56 50.046875 50.171875 
Q 54.890625 44.34375 54.890625 33.015625 
z
" id="DejaVuSans-6e"/>
     <path d="M 18.3125 70.21875 
L 18.3125 54.6875 
L 36.8125 54.6875 
L 36.8125 47.703125 
L 18.3125 47.703125 
L 18.3125 18.015625 
Q 18.3125 11.328125 20.140625 9.421875 
Q 21.96875 7.515625 27.59375 7.515625 
L 36.8125 7.515625 
L 36.8125 0 
L 27.59375 0 
Q 17.1875 0 13.234375 3.875 
Q 9.28125 7.765625 9.28125 18.015625 
L 9.28125 47.703125 
L 2.6875 47.703125 
L 2.6875 54.6875 
L 9.28125 54.6875 
L 9.28125 70.21875 
z
" id="DejaVuSans-74"/>
    </defs>
    <g transform="translate(119.61375 16.318125)scale(0.12 -0.12)">
     <use xlink:href="#DejaVuSans-41"/>
     <use x="68.330078" xlink:href="#DejaVuSans-76"/>
     <use x="127.509766" xlink:href="#DejaVuSans-65"/>
     <use x="189.033203" xlink:href="#DejaVuSans-72"/>
     <use x="230.146484" xlink:href="#DejaVuSans-61"/>
     <use x="291.425781" xlink:href="#DejaVuSans-67"/>
     <use x="354.902344" xlink:href="#DejaVuSans-65"/>
     <use x="416.425781" xlink:href="#DejaVuSans-20"/>
     <use x="448.212891" xlink:href="#DejaVuSans-6d"/>
     <use x="545.625" xlink:href="#DejaVuSans-61"/>
     <use x="606.904297" xlink:href="#DejaVuSans-78"/>
     <use x="666.083984" xlink:href="#DejaVuSans-51"/>
     <use x="744.794922" xlink:href="#DejaVuSans-20"/>
     <use x="776.582031" xlink:href="#DejaVuSans-70"/>
     <use x="840.058594" xlink:href="#DejaVuSans-65"/>
     <use x="901.582031" xlink:href="#DejaVuSans-72"/>
     <use x="942.695312" xlink:href="#DejaVuSans-20"/>
     <use x="974.482422" xlink:href="#DejaVuSans-65"/>
     <use x="1036.005859" xlink:href="#DejaVuSans-70"/>
     <use x="1099.482422" xlink:href="#DejaVuSans-69"/>
     <use x="1127.265625" xlink:href="#DejaVuSans-73"/>
     <use x="1179.365234" xlink:href="#DejaVuSans-6f"/>
     <use x="1240.546875" xlink:href="#DejaVuSans-64"/>
     <use x="1304.023438" xlink:href="#DejaVuSans-65"/>
     <use x="1365.546875" xlink:href="#DejaVuSans-2c"/>
     <use x="1397.333984" xlink:href="#DejaVuSans-20"/>
     <use x="1429.121094" xlink:href="#DejaVuSans-6a"/>
     <use x="1456.904297" xlink:href="#DejaVuSans-6f"/>
     <use x="1518.085938" xlink:href="#DejaVuSans-69"/>
     <use x="1545.869141" xlink:href="#DejaVuSans-6e"/>
     <use x="1609.248047" xlink:href="#DejaVuSans-74"/>
     <use x="1648.457031" xlink:href="#DejaVuSans-31"/>
    </g>
   </g>
  </g>
 </g>
 <defs>
  <clipPath id="p960860a939">
   <rect height="266.112" width="357.12" x="43.78125" y="22.318125"/>
  </clipPath>
 </defs>
</svg>
