<?xml version="1.0" encoding="utf-8" standalone="no"?>
<!DOCTYPE svg PUBLIC "-//W3C//DTD SVG 1.1//EN"
  "http://www.w3.org/Graphics/SVG/1.1/DTD/svg11.dtd">
<!-- Created with matplotlib (http://matplotlib.org/) -->
<svg height="325pt" version="1.1" viewBox="0 0 411 325" width="411pt" xmlns="http://www.w3.org/2000/svg" xmlns:xlink="http://www.w3.org/1999/xlink">
 <defs>
  <style type="text/css">
*{stroke-linecap:butt;stroke-linejoin:round;}
  </style>
 </defs>
 <g id="figure_1">
  <g id="patch_1">
   <path d="M 0 325.986375 
L 411.60125 325.986375 
L 411.60125 0 
L 0 0 
z
" style="fill:#ffffff;"/>
  </g>
  <g id="axes_1">
   <g id="patch_2">
    <path d="M 43.78125 288.430125 
L 400.90125 288.430125 
L 400.90125 22.318125 
L 43.78125 22.318125 
z
" style="fill:#ffffff;"/>
   </g>
   <g id="matplotlib.axis_1">
    <g id="xtick_1">
     <g id="line2d_1">
      <defs>
       <path d="M 0 0 
L 0 3.5 
" id="mc1831a6279" style="stroke:#000000;stroke-width:0.8;"/>
      </defs>
      <g>
       <use style="stroke:#000000;stroke-width:0.8;" x="59.633374" xlink:href="#mc1831a6279" y="288.430125"/>
      </g>
     </g>
     <g id="text_1">
      <!-- 0 -->
      <defs>
       <path d="M 31.78125 66.40625 
Q 24.171875 66.40625 20.328125 58.90625 
Q 16.5 51.421875 16.5 36.375 
Q 16.5 21.390625 20.328125 13.890625 
Q 24.171875 6.390625 31.78125 6.390625 
Q 39.453125 6.390625 43.28125 13.890625 
Q 47.125 21.390625 47.125 36.375 
Q 47.125 51.421875 43.28125 58.90625 
Q 39.453125 66.40625 31.78125 66.40625 
z
M 31.78125 74.21875 
Q 44.046875 74.21875 50.515625 64.515625 
Q 56.984375 54.828125 56.984375 36.375 
Q 56.984375 17.96875 50.515625 8.265625 
Q 44.046875 -1.421875 31.78125 -1.421875 
Q 19.53125 -1.421875 13.0625 8.265625 
Q 6.59375 17.96875 6.59375 36.375 
Q 6.59375 54.828125 13.0625 64.515625 
Q 19.53125 74.21875 31.78125 74.21875 
z
" id="DejaVuSans-30"/>
      </defs>
      <g transform="translate(56.452124 303.028562)scale(0.1 -0.1)">
       <use xlink:href="#DejaVuSans-30"/>
      </g>
     </g>
    </g>
    <g id="xtick_2">
     <g id="line2d_2">
      <g>
       <use style="stroke:#000000;stroke-width:0.8;" x="135.754018" xlink:href="#mc1831a6279" y="288.430125"/>
      </g>
     </g>
     <g id="text_2">
      <!-- 200 -->
      <defs>
       <path d="M 19.1875 8.296875 
L 53.609375 8.296875 
L 53.609375 0 
L 7.328125 0 
L 7.328125 8.296875 
Q 12.9375 14.109375 22.625 23.890625 
Q 32.328125 33.6875 34.8125 36.53125 
Q 39.546875 41.84375 41.421875 45.53125 
Q 43.3125 49.21875 43.3125 52.78125 
Q 43.3125 58.59375 39.234375 62.25 
Q 35.15625 65.921875 28.609375 65.921875 
Q 23.96875 65.921875 18.8125 64.3125 
Q 13.671875 62.703125 7.8125 59.421875 
L 7.8125 69.390625 
Q 13.765625 71.78125 18.9375 73 
Q 24.125 74.21875 28.421875 74.21875 
Q 39.75 74.21875 46.484375 68.546875 
Q 53.21875 62.890625 53.21875 53.421875 
Q 53.21875 48.921875 51.53125 44.890625 
Q 49.859375 40.875 45.40625 35.40625 
Q 44.1875 33.984375 37.640625 27.21875 
Q 31.109375 20.453125 19.1875 8.296875 
z
" id="DejaVuSans-32"/>
      </defs>
      <g transform="translate(126.210268 303.028562)scale(0.1 -0.1)">
       <use xlink:href="#DejaVuSans-32"/>
       <use x="63.623047" xlink:href="#DejaVuSans-30"/>
       <use x="127.246094" xlink:href="#DejaVuSans-30"/>
      </g>
     </g>
    </g>
    <g id="xtick_3">
     <g id="line2d_3">
      <g>
       <use style="stroke:#000000;stroke-width:0.8;" x="211.874661" xlink:href="#mc1831a6279" y="288.430125"/>
      </g>
     </g>
     <g id="text_3">
      <!-- 400 -->
      <defs>
       <path d="M 37.796875 64.3125 
L 12.890625 25.390625 
L 37.796875 25.390625 
z
M 35.203125 72.90625 
L 47.609375 72.90625 
L 47.609375 25.390625 
L 58.015625 25.390625 
L 58.015625 17.1875 
L 47.609375 17.1875 
L 47.609375 0 
L 37.796875 0 
L 37.796875 17.1875 
L 4.890625 17.1875 
L 4.890625 26.703125 
z
" id="DejaVuSans-34"/>
      </defs>
      <g transform="translate(202.330911 303.028562)scale(0.1 -0.1)">
       <use xlink:href="#DejaVuSans-34"/>
       <use x="63.623047" xlink:href="#DejaVuSans-30"/>
       <use x="127.246094" xlink:href="#DejaVuSans-30"/>
      </g>
     </g>
    </g>
    <g id="xtick_4">
     <g id="line2d_4">
      <g>
       <use style="stroke:#000000;stroke-width:0.8;" x="287.995305" xlink:href="#mc1831a6279" y="288.430125"/>
      </g>
     </g>
     <g id="text_4">
      <!-- 600 -->
      <defs>
       <path d="M 33.015625 40.375 
Q 26.375 40.375 22.484375 35.828125 
Q 18.609375 31.296875 18.609375 23.390625 
Q 18.609375 15.53125 22.484375 10.953125 
Q 26.375 6.390625 33.015625 6.390625 
Q 39.65625 6.390625 43.53125 10.953125 
Q 47.40625 15.53125 47.40625 23.390625 
Q 47.40625 31.296875 43.53125 35.828125 
Q 39.65625 40.375 33.015625 40.375 
z
M 52.59375 71.296875 
L 52.59375 62.3125 
Q 48.875 64.0625 45.09375 64.984375 
Q 41.3125 65.921875 37.59375 65.921875 
Q 27.828125 65.921875 22.671875 59.328125 
Q 17.53125 52.734375 16.796875 39.40625 
Q 19.671875 43.65625 24.015625 45.921875 
Q 28.375 48.1875 33.59375 48.1875 
Q 44.578125 48.1875 50.953125 41.515625 
Q 57.328125 34.859375 57.328125 23.390625 
Q 57.328125 12.15625 50.6875 5.359375 
Q 44.046875 -1.421875 33.015625 -1.421875 
Q 20.359375 -1.421875 13.671875 8.265625 
Q 6.984375 17.96875 6.984375 36.375 
Q 6.984375 53.65625 15.1875 63.9375 
Q 23.390625 74.21875 37.203125 74.21875 
Q 40.921875 74.21875 44.703125 73.484375 
Q 48.484375 72.75 52.59375 71.296875 
z
" id="DejaVuSans-36"/>
      </defs>
      <g transform="translate(278.451555 303.028562)scale(0.1 -0.1)">
       <use xlink:href="#DejaVuSans-36"/>
       <use x="63.623047" xlink:href="#DejaVuSans-30"/>
       <use x="127.246094" xlink:href="#DejaVuSans-30"/>
      </g>
     </g>
    </g>
    <g id="xtick_5">
     <g id="line2d_5">
      <g>
       <use style="stroke:#000000;stroke-width:0.8;" x="364.115949" xlink:href="#mc1831a6279" y="288.430125"/>
      </g>
     </g>
     <g id="text_5">
      <!-- 800 -->
      <defs>
       <path d="M 31.78125 34.625 
Q 24.75 34.625 20.71875 30.859375 
Q 16.703125 27.09375 16.703125 20.515625 
Q 16.703125 13.921875 20.71875 10.15625 
Q 24.75 6.390625 31.78125 6.390625 
Q 38.8125 6.390625 42.859375 10.171875 
Q 46.921875 13.96875 46.921875 20.515625 
Q 46.921875 27.09375 42.890625 30.859375 
Q 38.875 34.625 31.78125 34.625 
z
M 21.921875 38.8125 
Q 15.578125 40.375 12.03125 44.71875 
Q 8.5 49.078125 8.5 55.328125 
Q 8.5 64.0625 14.71875 69.140625 
Q 20.953125 74.21875 31.78125 74.21875 
Q 42.671875 74.21875 48.875 69.140625 
Q 55.078125 64.0625 55.078125 55.328125 
Q 55.078125 49.078125 51.53125 44.71875 
Q 48 40.375 41.703125 38.8125 
Q 48.828125 37.15625 52.796875 32.3125 
Q 56.78125 27.484375 56.78125 20.515625 
Q 56.78125 9.90625 50.3125 4.234375 
Q 43.84375 -1.421875 31.78125 -1.421875 
Q 19.734375 -1.421875 13.25 4.234375 
Q 6.78125 9.90625 6.78125 20.515625 
Q 6.78125 27.484375 10.78125 32.3125 
Q 14.796875 37.15625 21.921875 38.8125 
z
M 18.3125 54.390625 
Q 18.3125 48.734375 21.84375 45.5625 
Q 25.390625 42.390625 31.78125 42.390625 
Q 38.140625 42.390625 41.71875 45.5625 
Q 45.3125 48.734375 45.3125 54.390625 
Q 45.3125 60.0625 41.71875 63.234375 
Q 38.140625 66.40625 31.78125 66.40625 
Q 25.390625 66.40625 21.84375 63.234375 
Q 18.3125 60.0625 18.3125 54.390625 
z
" id="DejaVuSans-38"/>
      </defs>
      <g transform="translate(354.572199 303.028562)scale(0.1 -0.1)">
       <use xlink:href="#DejaVuSans-38"/>
       <use x="63.623047" xlink:href="#DejaVuSans-30"/>
       <use x="127.246094" xlink:href="#DejaVuSans-30"/>
      </g>
     </g>
    </g>
    <g id="text_6">
     <!-- episodes -->
     <defs>
      <path d="M 56.203125 29.59375 
L 56.203125 25.203125 
L 14.890625 25.203125 
Q 15.484375 15.921875 20.484375 11.0625 
Q 25.484375 6.203125 34.421875 6.203125 
Q 39.59375 6.203125 44.453125 7.46875 
Q 49.3125 8.734375 54.109375 11.28125 
L 54.109375 2.78125 
Q 49.265625 0.734375 44.1875 -0.34375 
Q 39.109375 -1.421875 33.890625 -1.421875 
Q 20.796875 -1.421875 13.15625 6.1875 
Q 5.515625 13.8125 5.515625 26.8125 
Q 5.515625 40.234375 12.765625 48.109375 
Q 20.015625 56 32.328125 56 
Q 43.359375 56 49.78125 48.890625 
Q 56.203125 41.796875 56.203125 29.59375 
z
M 47.21875 32.234375 
Q 47.125 39.59375 43.09375 43.984375 
Q 39.0625 48.390625 32.421875 48.390625 
Q 24.90625 48.390625 20.390625 44.140625 
Q 15.875 39.890625 15.1875 32.171875 
z
" id="DejaVuSans-65"/>
      <path d="M 18.109375 8.203125 
L 18.109375 -20.796875 
L 9.078125 -20.796875 
L 9.078125 54.6875 
L 18.109375 54.6875 
L 18.109375 46.390625 
Q 20.953125 51.265625 25.265625 53.625 
Q 29.59375 56 35.59375 56 
Q 45.5625 56 51.78125 48.09375 
Q 58.015625 40.1875 58.015625 27.296875 
Q 58.015625 14.40625 51.78125 6.484375 
Q 45.5625 -1.421875 35.59375 -1.421875 
Q 29.59375 -1.421875 25.265625 0.953125 
Q 20.953125 3.328125 18.109375 8.203125 
z
M 48.6875 27.296875 
Q 48.6875 37.203125 44.609375 42.84375 
Q 40.53125 48.484375 33.40625 48.484375 
Q 26.265625 48.484375 22.1875 42.84375 
Q 18.109375 37.203125 18.109375 27.296875 
Q 18.109375 17.390625 22.1875 11.75 
Q 26.265625 6.109375 33.40625 6.109375 
Q 40.53125 6.109375 44.609375 11.75 
Q 48.6875 17.390625 48.6875 27.296875 
z
" id="DejaVuSans-70"/>
      <path d="M 9.421875 54.6875 
L 18.40625 54.6875 
L 18.40625 0 
L 9.421875 0 
z
M 9.421875 75.984375 
L 18.40625 75.984375 
L 18.40625 64.59375 
L 9.421875 64.59375 
z
" id="DejaVuSans-69"/>
      <path d="M 44.28125 53.078125 
L 44.28125 44.578125 
Q 40.484375 46.53125 36.375 47.5 
Q 32.28125 48.484375 27.875 48.484375 
Q 21.1875 48.484375 17.84375 46.4375 
Q 14.5 44.390625 14.5 40.28125 
Q 14.5 37.15625 16.890625 35.375 
Q 19.28125 33.59375 26.515625 31.984375 
L 29.59375 31.296875 
Q 39.15625 29.25 43.1875 25.515625 
Q 47.21875 21.78125 47.21875 15.09375 
Q 47.21875 7.46875 41.1875 3.015625 
Q 35.15625 -1.421875 24.609375 -1.421875 
Q 20.21875 -1.421875 15.453125 -0.5625 
Q 10.6875 0.296875 5.421875 2 
L 5.421875 11.28125 
Q 10.40625 8.6875 15.234375 7.390625 
Q 20.0625 6.109375 24.8125 6.109375 
Q 31.15625 6.109375 34.5625 8.28125 
Q 37.984375 10.453125 37.984375 14.40625 
Q 37.984375 18.0625 35.515625 20.015625 
Q 33.0625 21.96875 24.703125 23.78125 
L 21.578125 24.515625 
Q 13.234375 26.265625 9.515625 29.90625 
Q 5.8125 33.546875 5.8125 39.890625 
Q 5.8125 47.609375 11.28125 51.796875 
Q 16.75 56 26.8125 56 
Q 31.78125 56 36.171875 55.265625 
Q 40.578125 54.546875 44.28125 53.078125 
z
" id="DejaVuSans-73"/>
      <path d="M 30.609375 48.390625 
Q 23.390625 48.390625 19.1875 42.75 
Q 14.984375 37.109375 14.984375 27.296875 
Q 14.984375 17.484375 19.15625 11.84375 
Q 23.34375 6.203125 30.609375 6.203125 
Q 37.796875 6.203125 41.984375 11.859375 
Q 46.1875 17.53125 46.1875 27.296875 
Q 46.1875 37.015625 41.984375 42.703125 
Q 37.796875 48.390625 30.609375 48.390625 
z
M 30.609375 56 
Q 42.328125 56 49.015625 48.375 
Q 55.71875 40.765625 55.71875 27.296875 
Q 55.71875 13.875 49.015625 6.21875 
Q 42.328125 -1.421875 30.609375 -1.421875 
Q 18.84375 -1.421875 12.171875 6.21875 
Q 5.515625 13.875 5.515625 27.296875 
Q 5.515625 40.765625 12.171875 48.375 
Q 18.84375 56 30.609375 56 
z
" id="DejaVuSans-6f"/>
      <path d="M 45.40625 46.390625 
L 45.40625 75.984375 
L 54.390625 75.984375 
L 54.390625 0 
L 45.40625 0 
L 45.40625 8.203125 
Q 42.578125 3.328125 38.25 0.953125 
Q 33.9375 -1.421875 27.875 -1.421875 
Q 17.96875 -1.421875 11.734375 6.484375 
Q 5.515625 14.40625 5.515625 27.296875 
Q 5.515625 40.1875 11.734375 48.09375 
Q 17.96875 56 27.875 56 
Q 33.9375 56 38.25 53.625 
Q 42.578125 51.265625 45.40625 46.390625 
z
M 14.796875 27.296875 
Q 14.796875 17.390625 18.875 11.75 
Q 22.953125 6.109375 30.078125 6.109375 
Q 37.203125 6.109375 41.296875 11.75 
Q 45.40625 17.390625 45.40625 27.296875 
Q 45.40625 37.203125 41.296875 42.84375 
Q 37.203125 48.484375 30.078125 48.484375 
Q 22.953125 48.484375 18.875 42.84375 
Q 14.796875 37.203125 14.796875 27.296875 
z
" id="DejaVuSans-64"/>
     </defs>
     <g transform="translate(200.181875 316.706687)scale(0.1 -0.1)">
      <use xlink:href="#DejaVuSans-65"/>
      <use x="61.523438" xlink:href="#DejaVuSans-70"/>
      <use x="125" xlink:href="#DejaVuSans-69"/>
      <use x="152.783203" xlink:href="#DejaVuSans-73"/>
      <use x="204.882812" xlink:href="#DejaVuSans-6f"/>
      <use x="266.064453" xlink:href="#DejaVuSans-64"/>
      <use x="329.541016" xlink:href="#DejaVuSans-65"/>
      <use x="391.064453" xlink:href="#DejaVuSans-73"/>
     </g>
    </g>
   </g>
   <g id="matplotlib.axis_2">
    <g id="ytick_1">
     <g id="line2d_6">
      <defs>
       <path d="M 0 0 
L -3.5 0 
" id="m8ef08374ec" style="stroke:#000000;stroke-width:0.8;"/>
      </defs>
      <g>
       <use style="stroke:#000000;stroke-width:0.8;" x="43.78125" xlink:href="#m8ef08374ec" y="287.658961"/>
      </g>
     </g>
     <g id="text_7">
      <!-- 0.0 -->
      <defs>
       <path d="M 10.6875 12.40625 
L 21 12.40625 
L 21 0 
L 10.6875 0 
z
" id="DejaVuSans-2e"/>
      </defs>
      <g transform="translate(20.878125 291.45818)scale(0.1 -0.1)">
       <use xlink:href="#DejaVuSans-30"/>
       <use x="63.623047" xlink:href="#DejaVuSans-2e"/>
       <use x="95.410156" xlink:href="#DejaVuSans-30"/>
      </g>
     </g>
    </g>
    <g id="ytick_2">
     <g id="line2d_7">
      <g>
       <use style="stroke:#000000;stroke-width:0.8;" x="43.78125" xlink:href="#m8ef08374ec" y="246.726038"/>
      </g>
     </g>
     <g id="text_8">
      <!-- 0.5 -->
      <defs>
       <path d="M 10.796875 72.90625 
L 49.515625 72.90625 
L 49.515625 64.59375 
L 19.828125 64.59375 
L 19.828125 46.734375 
Q 21.96875 47.46875 24.109375 47.828125 
Q 26.265625 48.1875 28.421875 48.1875 
Q 40.625 48.1875 47.75 41.5 
Q 54.890625 34.8125 54.890625 23.390625 
Q 54.890625 11.625 47.5625 5.09375 
Q 40.234375 -1.421875 26.90625 -1.421875 
Q 22.3125 -1.421875 17.546875 -0.640625 
Q 12.796875 0.140625 7.71875 1.703125 
L 7.71875 11.625 
Q 12.109375 9.234375 16.796875 8.0625 
Q 21.484375 6.890625 26.703125 6.890625 
Q 35.15625 6.890625 40.078125 11.328125 
Q 45.015625 15.765625 45.015625 23.390625 
Q 45.015625 31 40.078125 35.4375 
Q 35.15625 39.890625 26.703125 39.890625 
Q 22.75 39.890625 18.8125 39.015625 
Q 14.890625 38.140625 10.796875 36.28125 
z
" id="DejaVuSans-35"/>
      </defs>
      <g transform="translate(20.878125 250.525257)scale(0.1 -0.1)">
       <use xlink:href="#DejaVuSans-30"/>
       <use x="63.623047" xlink:href="#DejaVuSans-2e"/>
       <use x="95.410156" xlink:href="#DejaVuSans-35"/>
      </g>
     </g>
    </g>
    <g id="ytick_3">
     <g id="line2d_8">
      <g>
       <use style="stroke:#000000;stroke-width:0.8;" x="43.78125" xlink:href="#m8ef08374ec" y="205.793114"/>
      </g>
     </g>
     <g id="text_9">
      <!-- 1.0 -->
      <defs>
       <path d="M 12.40625 8.296875 
L 28.515625 8.296875 
L 28.515625 63.921875 
L 10.984375 60.40625 
L 10.984375 69.390625 
L 28.421875 72.90625 
L 38.28125 72.90625 
L 38.28125 8.296875 
L 54.390625 8.296875 
L 54.390625 0 
L 12.40625 0 
z
" id="DejaVuSans-31"/>
      </defs>
      <g transform="translate(20.878125 209.592333)scale(0.1 -0.1)">
       <use xlink:href="#DejaVuSans-31"/>
       <use x="63.623047" xlink:href="#DejaVuSans-2e"/>
       <use x="95.410156" xlink:href="#DejaVuSans-30"/>
      </g>
     </g>
    </g>
    <g id="ytick_4">
     <g id="line2d_9">
      <g>
       <use style="stroke:#000000;stroke-width:0.8;" x="43.78125" xlink:href="#m8ef08374ec" y="164.860191"/>
      </g>
     </g>
     <g id="text_10">
      <!-- 1.5 -->
      <g transform="translate(20.878125 168.659409)scale(0.1 -0.1)">
       <use xlink:href="#DejaVuSans-31"/>
       <use x="63.623047" xlink:href="#DejaVuSans-2e"/>
       <use x="95.410156" xlink:href="#DejaVuSans-35"/>
      </g>
     </g>
    </g>
    <g id="ytick_5">
     <g id="line2d_10">
      <g>
       <use style="stroke:#000000;stroke-width:0.8;" x="43.78125" xlink:href="#m8ef08374ec" y="123.927267"/>
      </g>
     </g>
     <g id="text_11">
      <!-- 2.0 -->
      <g transform="translate(20.878125 127.726486)scale(0.1 -0.1)">
       <use xlink:href="#DejaVuSans-32"/>
       <use x="63.623047" xlink:href="#DejaVuSans-2e"/>
       <use x="95.410156" xlink:href="#DejaVuSans-30"/>
      </g>
     </g>
    </g>
    <g id="ytick_6">
     <g id="line2d_11">
      <g>
       <use style="stroke:#000000;stroke-width:0.8;" x="43.78125" xlink:href="#m8ef08374ec" y="82.994344"/>
      </g>
     </g>
     <g id="text_12">
      <!-- 2.5 -->
      <g transform="translate(20.878125 86.793562)scale(0.1 -0.1)">
       <use xlink:href="#DejaVuSans-32"/>
       <use x="63.623047" xlink:href="#DejaVuSans-2e"/>
       <use x="95.410156" xlink:href="#DejaVuSans-35"/>
      </g>
     </g>
    </g>
    <g id="ytick_7">
     <g id="line2d_12">
      <g>
       <use style="stroke:#000000;stroke-width:0.8;" x="43.78125" xlink:href="#m8ef08374ec" y="42.06142"/>
      </g>
     </g>
     <g id="text_13">
      <!-- 3.0 -->
      <defs>
       <path d="M 40.578125 39.3125 
Q 47.65625 37.796875 51.625 33 
Q 55.609375 28.21875 55.609375 21.1875 
Q 55.609375 10.40625 48.1875 4.484375 
Q 40.765625 -1.421875 27.09375 -1.421875 
Q 22.515625 -1.421875 17.65625 -0.515625 
Q 12.796875 0.390625 7.625 2.203125 
L 7.625 11.71875 
Q 11.71875 9.328125 16.59375 8.109375 
Q 21.484375 6.890625 26.8125 6.890625 
Q 36.078125 6.890625 40.9375 10.546875 
Q 45.796875 14.203125 45.796875 21.1875 
Q 45.796875 27.640625 41.28125 31.265625 
Q 36.765625 34.90625 28.71875 34.90625 
L 20.21875 34.90625 
L 20.21875 43.015625 
L 29.109375 43.015625 
Q 36.375 43.015625 40.234375 45.921875 
Q 44.09375 48.828125 44.09375 54.296875 
Q 44.09375 59.90625 40.109375 62.90625 
Q 36.140625 65.921875 28.71875 65.921875 
Q 24.65625 65.921875 20.015625 65.03125 
Q 15.375 64.15625 9.8125 62.3125 
L 9.8125 71.09375 
Q 15.4375 72.65625 20.34375 73.4375 
Q 25.25 74.21875 29.59375 74.21875 
Q 40.828125 74.21875 47.359375 69.109375 
Q 53.90625 64.015625 53.90625 55.328125 
Q 53.90625 49.265625 50.4375 45.09375 
Q 46.96875 40.921875 40.578125 39.3125 
z
" id="DejaVuSans-33"/>
      </defs>
      <g transform="translate(20.878125 45.860639)scale(0.1 -0.1)">
       <use xlink:href="#DejaVuSans-33"/>
       <use x="63.623047" xlink:href="#DejaVuSans-2e"/>
       <use x="95.410156" xlink:href="#DejaVuSans-30"/>
      </g>
     </g>
    </g>
    <g id="text_14">
     <!-- average maxQ -->
     <defs>
      <path d="M 34.28125 27.484375 
Q 23.390625 27.484375 19.1875 25 
Q 14.984375 22.515625 14.984375 16.5 
Q 14.984375 11.71875 18.140625 8.90625 
Q 21.296875 6.109375 26.703125 6.109375 
Q 34.1875 6.109375 38.703125 11.40625 
Q 43.21875 16.703125 43.21875 25.484375 
L 43.21875 27.484375 
z
M 52.203125 31.203125 
L 52.203125 0 
L 43.21875 0 
L 43.21875 8.296875 
Q 40.140625 3.328125 35.546875 0.953125 
Q 30.953125 -1.421875 24.3125 -1.421875 
Q 15.921875 -1.421875 10.953125 3.296875 
Q 6 8.015625 6 15.921875 
Q 6 25.140625 12.171875 29.828125 
Q 18.359375 34.515625 30.609375 34.515625 
L 43.21875 34.515625 
L 43.21875 35.40625 
Q 43.21875 41.609375 39.140625 45 
Q 35.0625 48.390625 27.6875 48.390625 
Q 23 48.390625 18.546875 47.265625 
Q 14.109375 46.140625 10.015625 43.890625 
L 10.015625 52.203125 
Q 14.9375 54.109375 19.578125 55.046875 
Q 24.21875 56 28.609375 56 
Q 40.484375 56 46.34375 49.84375 
Q 52.203125 43.703125 52.203125 31.203125 
z
" id="DejaVuSans-61"/>
      <path d="M 2.984375 54.6875 
L 12.5 54.6875 
L 29.59375 8.796875 
L 46.6875 54.6875 
L 56.203125 54.6875 
L 35.6875 0 
L 23.484375 0 
z
" id="DejaVuSans-76"/>
      <path d="M 41.109375 46.296875 
Q 39.59375 47.171875 37.8125 47.578125 
Q 36.03125 48 33.890625 48 
Q 26.265625 48 22.1875 43.046875 
Q 18.109375 38.09375 18.109375 28.8125 
L 18.109375 0 
L 9.078125 0 
L 9.078125 54.6875 
L 18.109375 54.6875 
L 18.109375 46.1875 
Q 20.953125 51.171875 25.484375 53.578125 
Q 30.03125 56 36.53125 56 
Q 37.453125 56 38.578125 55.875 
Q 39.703125 55.765625 41.0625 55.515625 
z
" id="DejaVuSans-72"/>
      <path d="M 45.40625 27.984375 
Q 45.40625 37.75 41.375 43.109375 
Q 37.359375 48.484375 30.078125 48.484375 
Q 22.859375 48.484375 18.828125 43.109375 
Q 14.796875 37.75 14.796875 27.984375 
Q 14.796875 18.265625 18.828125 12.890625 
Q 22.859375 7.515625 30.078125 7.515625 
Q 37.359375 7.515625 41.375 12.890625 
Q 45.40625 18.265625 45.40625 27.984375 
z
M 54.390625 6.78125 
Q 54.390625 -7.171875 48.1875 -13.984375 
Q 42 -20.796875 29.203125 -20.796875 
Q 24.46875 -20.796875 20.265625 -20.09375 
Q 16.0625 -19.390625 12.109375 -17.921875 
L 12.109375 -9.1875 
Q 16.0625 -11.328125 19.921875 -12.34375 
Q 23.78125 -13.375 27.78125 -13.375 
Q 36.625 -13.375 41.015625 -8.765625 
Q 45.40625 -4.15625 45.40625 5.171875 
L 45.40625 9.625 
Q 42.625 4.78125 38.28125 2.390625 
Q 33.9375 0 27.875 0 
Q 17.828125 0 11.671875 7.65625 
Q 5.515625 15.328125 5.515625 27.984375 
Q 5.515625 40.671875 11.671875 48.328125 
Q 17.828125 56 27.875 56 
Q 33.9375 56 38.28125 53.609375 
Q 42.625 51.21875 45.40625 46.390625 
L 45.40625 54.6875 
L 54.390625 54.6875 
z
" id="DejaVuSans-67"/>
      <path id="DejaVuSans-20"/>
      <path d="M 52 44.1875 
Q 55.375 50.25 60.0625 53.125 
Q 64.75 56 71.09375 56 
Q 79.640625 56 84.28125 50.015625 
Q 88.921875 44.046875 88.921875 33.015625 
L 88.921875 0 
L 79.890625 0 
L 79.890625 32.71875 
Q 79.890625 40.578125 77.09375 44.375 
Q 74.3125 48.1875 68.609375 48.1875 
Q 61.625 48.1875 57.5625 43.546875 
Q 53.515625 38.921875 53.515625 30.90625 
L 53.515625 0 
L 44.484375 0 
L 44.484375 32.71875 
Q 44.484375 40.625 41.703125 44.40625 
Q 38.921875 48.1875 33.109375 48.1875 
Q 26.21875 48.1875 22.15625 43.53125 
Q 18.109375 38.875 18.109375 30.90625 
L 18.109375 0 
L 9.078125 0 
L 9.078125 54.6875 
L 18.109375 54.6875 
L 18.109375 46.1875 
Q 21.1875 51.21875 25.484375 53.609375 
Q 29.78125 56 35.6875 56 
Q 41.65625 56 45.828125 52.96875 
Q 50 49.953125 52 44.1875 
z
" id="DejaVuSans-6d"/>
      <path d="M 54.890625 54.6875 
L 35.109375 28.078125 
L 55.90625 0 
L 45.3125 0 
L 29.390625 21.484375 
L 13.484375 0 
L 2.875 0 
L 24.125 28.609375 
L 4.6875 54.6875 
L 15.28125 54.6875 
L 29.78125 35.203125 
L 44.28125 54.6875 
z
" id="DejaVuSans-78"/>
      <path d="M 39.40625 66.21875 
Q 28.65625 66.21875 22.328125 58.203125 
Q 16.015625 50.203125 16.015625 36.375 
Q 16.015625 22.609375 22.328125 14.59375 
Q 28.65625 6.59375 39.40625 6.59375 
Q 50.140625 6.59375 56.421875 14.59375 
Q 62.703125 22.609375 62.703125 36.375 
Q 62.703125 50.203125 56.421875 58.203125 
Q 50.140625 66.21875 39.40625 66.21875 
z
M 53.21875 1.3125 
L 66.21875 -12.890625 
L 54.296875 -12.890625 
L 43.5 -1.21875 
Q 41.890625 -1.3125 41.03125 -1.359375 
Q 40.1875 -1.421875 39.40625 -1.421875 
Q 24.03125 -1.421875 14.8125 8.859375 
Q 5.609375 19.140625 5.609375 36.375 
Q 5.609375 53.65625 14.8125 63.9375 
Q 24.03125 74.21875 39.40625 74.21875 
Q 54.734375 74.21875 63.90625 63.9375 
Q 73.09375 53.65625 73.09375 36.375 
Q 73.09375 23.6875 67.984375 14.640625 
Q 62.890625 5.609375 53.21875 1.3125 
z
" id="DejaVuSans-51"/>
     </defs>
     <g transform="translate(14.798438 192.263187)rotate(-90)scale(0.1 -0.1)">
      <use xlink:href="#DejaVuSans-61"/>
      <use x="61.279297" xlink:href="#DejaVuSans-76"/>
      <use x="120.458984" xlink:href="#DejaVuSans-65"/>
      <use x="181.982422" xlink:href="#DejaVuSans-72"/>
      <use x="223.095703" xlink:href="#DejaVuSans-61"/>
      <use x="284.375" xlink:href="#DejaVuSans-67"/>
      <use x="347.851562" xlink:href="#DejaVuSans-65"/>
      <use x="409.375" xlink:href="#DejaVuSans-20"/>
      <use x="441.162109" xlink:href="#DejaVuSans-6d"/>
      <use x="538.574219" xlink:href="#DejaVuSans-61"/>
      <use x="599.853516" xlink:href="#DejaVuSans-78"/>
      <use x="659.033203" xlink:href="#DejaVuSans-51"/>
     </g>
    </g>
   </g>
   <g id="line2d_13">
    <path clip-path="url(#p7f5fcb85af)" d="M 60.013977 274.8084 
L 60.39458 274.070077 
L 60.775184 275.312436 
L 61.155787 274.972102 
L 61.53639 274.899356 
L 61.916993 275.600406 
L 62.6782 276.081683 
L 63.058803 274.84077 
L 63.439406 274.979922 
L 63.820009 274.787626 
L 64.200613 275.273627 
L 64.581216 275.160268 
L 64.961819 274.63587 
L 65.342422 276.106245 
L 65.723026 274.340256 
L 66.103629 275.543942 
L 66.484232 275.012126 
L 66.864835 275.666351 
L 67.626042 275.095254 
L 68.006645 273.785102 
L 68.387248 273.165976 
L 68.767851 275.408058 
L 69.148455 275.592272 
L 69.529058 274.49213 
L 69.909661 275.720194 
L 70.290264 275.939665 
L 70.670867 273.760029 
L 71.051471 275.973672 
L 71.432074 276.24863 
L 71.812677 275.754142 
L 72.19328 274.812357 
L 72.573883 275.619145 
L 72.954487 274.596824 
L 73.33509 273.957454 
L 73.715693 275.088783 
L 74.096296 275.724979 
L 74.4769 275.098993 
L 75.238106 275.242291 
L 75.618709 275.329422 
L 75.999312 273.673967 
L 76.379916 274.558072 
L 76.760519 275.780029 
L 77.141122 276.330111 
L 77.521725 275.301873 
L 78.282932 274.688418 
L 78.663535 275.609297 
L 79.424741 275.620898 
L 79.805345 276.330721 
L 80.185948 274.142121 
L 80.566551 275.611428 
L 80.947154 275.378299 
L 81.327758 275.94368 
L 81.708361 275.63721 
L 82.469567 274.249109 
L 82.85017 275.694541 
L 83.611377 275.925093 
L 83.99198 274.933531 
L 84.372583 275.001411 
L 84.753186 274.664375 
L 85.13379 276.334125 
L 85.514393 275.788288 
L 85.894996 274.656207 
L 86.275599 274.253358 
L 86.656203 274.152925 
L 87.036806 274.388694 
L 87.417409 274.825208 
L 87.798012 274.197638 
L 88.178615 275.301304 
L 88.559219 274.255431 
L 88.939822 274.209698 
L 89.320425 274.019308 
L 89.701028 274.917745 
L 90.081632 274.744804 
L 90.462235 273.886726 
L 90.842838 273.762712 
L 91.223441 275.199604 
L 91.604044 275.169133 
L 91.984648 274.666616 
L 92.365251 276.162714 
L 92.745854 274.99671 
L 93.126457 275.604851 
L 94.268267 274.568014 
L 94.64887 274.525405 
L 95.029473 275.674364 
L 95.410077 275.666095 
L 95.79068 275.466386 
L 96.171283 275.645789 
L 96.551886 274.382744 
L 96.932489 274.54444 
L 97.313093 275.730758 
L 98.074299 274.577791 
L 98.454902 275.539193 
L 98.835506 274.437773 
L 99.216109 275.191791 
L 100.357918 274.565796 
L 100.738522 274.536073 
L 101.119125 273.750466 
L 101.499728 275.054924 
L 101.880331 275.952091 
L 102.260935 275.869098 
L 103.022141 275.999461 
L 103.402744 275.718834 
L 103.783347 275.050748 
L 104.163951 275.453453 
L 104.544554 275.654827 
L 104.925157 275.080559 
L 105.30576 273.868724 
L 105.686364 273.578904 
L 106.066967 275.118209 
L 106.44757 274.139631 
L 106.828173 274.004612 
L 107.58938 275.517378 
L 108.350586 274.770031 
L 108.731189 275.052447 
L 109.111792 271.666323 
L 109.492396 272.034816 
L 109.872999 269.816885 
L 110.253602 269.860854 
L 110.634205 268.424574 
L 111.014809 268.82162 
L 111.395412 266.300302 
L 112.156618 265.386194 
L 112.537221 264.561381 
L 112.917825 264.984399 
L 113.298428 261.356283 
L 113.679031 261.901446 
L 114.059634 258.348419 
L 114.440238 257.448053 
L 114.820841 260.582676 
L 115.201444 256.700229 
L 115.582047 255.146433 
L 115.96265 257.109065 
L 116.343254 257.839011 
L 116.723857 250.693603 
L 117.10446 255.070648 
L 117.485063 251.764293 
L 117.865666 246.303312 
L 118.24627 247.426716 
L 118.626873 251.452506 
L 119.007476 245.907853 
L 119.388079 249.66755 
L 119.768683 241.134802 
L 120.149286 249.461079 
L 120.529889 244.672355 
L 120.910492 249.536685 
L 121.291095 239.520981 
L 121.671699 246.141095 
L 122.052302 236.848608 
L 122.432905 238.829682 
L 123.194112 233.400453 
L 123.574715 245.885252 
L 123.955318 235.840474 
L 124.335921 235.803751 
L 124.716524 237.966618 
L 125.097128 233.062809 
L 125.477731 235.69961 
L 125.858334 233.226593 
L 126.238937 223.367539 
L 126.619541 237.647639 
L 127.000144 230.726537 
L 127.380747 232.643815 
L 127.76135 237.952258 
L 128.141953 223.506767 
L 128.522557 221.386569 
L 128.90316 220.011784 
L 129.283763 222.413655 
L 129.664366 235.710993 
L 130.425573 212.874517 
L 130.806176 227.265438 
L 131.186779 221.243061 
L 131.567382 224.396938 
L 131.947986 212.381042 
L 132.328589 219.201682 
L 132.709192 212.883036 
L 133.089795 223.197959 
L 133.470398 205.97446 
L 133.851002 212.663452 
L 134.231605 211.453342 
L 134.612208 205.991987 
L 134.992811 210.452662 
L 135.373415 206.67188 
L 135.754018 193.990198 
L 136.134621 210.209551 
L 136.515224 206.981829 
L 136.895827 215.957415 
L 137.276431 191.768649 
L 137.657034 193.401235 
L 138.037637 207.410841 
L 138.41824 216.343458 
L 138.798844 204.983175 
L 139.179447 207.48316 
L 139.56005 188.144297 
L 139.940653 208.969599 
L 140.321256 191.278989 
L 140.70186 202.306446 
L 141.082463 191.23542 
L 141.463066 195.858576 
L 141.843669 208.256605 
L 142.224272 213.113681 
L 142.604876 201.814819 
L 142.985479 200.30702 
L 143.366082 196.857901 
L 143.746685 218.823777 
L 144.127289 195.75302 
L 144.507892 194.435889 
L 144.888495 182.468516 
L 145.269098 187.966991 
L 145.649701 197.309709 
L 146.030305 176.984636 
L 146.410908 191.842471 
L 146.791511 194.329193 
L 147.552718 226.169353 
L 147.933321 231.030591 
L 148.313924 175.285855 
L 148.694527 167.213296 
L 149.07513 181.289782 
L 149.455734 172.089675 
L 149.836337 173.875188 
L 150.597543 209.368899 
L 150.978147 185.553246 
L 151.35875 228.007639 
L 151.739353 183.482874 
L 152.119956 168.889258 
L 152.500559 173.976799 
L 152.881163 240.56059 
L 153.261766 175.576508 
L 153.642369 216.885578 
L 154.022972 153.221615 
L 154.784179 228.171765 
L 155.164782 174.762054 
L 155.545385 207.163852 
L 155.925988 195.932971 
L 156.306592 179.059848 
L 156.687195 168.558243 
L 157.067798 212.396776 
L 157.448401 164.172032 
L 157.829004 167.93865 
L 158.209608 156.372048 
L 158.590211 165.675204 
L 159.351417 227.730685 
L 159.732021 156.021831 
L 160.112624 193.008815 
L 160.493227 148.641795 
L 160.87383 142.532451 
L 161.254433 159.144147 
L 161.635037 165.366803 
L 162.01564 143.454486 
L 162.396243 189.171208 
L 162.776846 153.572744 
L 163.15745 161.370085 
L 163.538053 157.378926 
L 163.918656 195.961925 
L 164.299259 154.118809 
L 164.679862 175.419542 
L 165.060466 182.281596 
L 165.441069 158.818923 
L 165.821672 159.17335 
L 166.202275 119.921247 
L 166.582878 159.04428 
L 166.963482 145.449252 
L 167.344085 137.768135 
L 167.724688 135.385166 
L 168.105291 187.949582 
L 168.485895 152.43609 
L 168.866498 156.159211 
L 169.247101 189.967058 
L 169.627704 150.635664 
L 170.008307 179.828136 
L 170.388911 127.40532 
L 170.769514 145.66614 
L 171.150117 157.930518 
L 171.53072 212.258413 
L 171.911324 134.795898 
L 172.291927 149.830248 
L 172.67253 120.668133 
L 173.053133 173.057863 
L 173.433736 134.77514 
L 173.81434 185.568964 
L 174.194943 193.844434 
L 174.575546 167.177148 
L 174.956149 117.382703 
L 175.336753 233.904466 
L 175.717356 152.123152 
L 176.097959 117.102236 
L 176.478562 216.785543 
L 176.859165 123.016561 
L 177.239769 174.463337 
L 177.620372 115.610916 
L 178.000975 128.35609 
L 178.381578 130.402474 
L 178.762181 114.471914 
L 179.142785 120.225185 
L 179.903991 149.942149 
L 180.284594 106.472208 
L 180.665198 105.994419 
L 181.045801 165.981767 
L 181.426404 101.150724 
L 181.807007 99.015985 
L 182.18761 131.378643 
L 182.568214 140.783306 
L 182.948817 105.393098 
L 183.32942 136.351394 
L 183.710023 119.321302 
L 184.090627 160.545379 
L 184.47123 127.571011 
L 184.851833 106.510594 
L 185.232436 122.451786 
L 185.613039 117.446315 
L 185.993643 91.453548 
L 186.374246 122.019121 
L 186.754849 99.08331 
L 187.135452 89.013174 
L 187.516055 100.870414 
L 187.896659 105.629557 
L 188.277262 108.843688 
L 188.657865 100.598986 
L 189.038468 106.775768 
L 189.419072 99.78768 
L 189.799675 114.060495 
L 190.180278 84.68059 
L 190.560881 94.404597 
L 190.941484 95.980391 
L 191.322088 161.022993 
L 191.702691 119.247365 
L 192.083294 135.594275 
L 192.463897 105.917169 
L 192.844501 92.371959 
L 193.225104 167.159724 
L 193.605707 97.677228 
L 193.98631 110.406359 
L 194.366913 118.417234 
L 194.747517 113.091864 
L 195.12812 80.651038 
L 195.508723 114.755905 
L 195.889326 105.574371 
L 196.26993 84.126863 
L 196.650533 126.762553 
L 197.031136 102.419655 
L 197.411739 115.411256 
L 197.792342 109.265639 
L 198.172946 79.142619 
L 198.553549 86.76587 
L 198.934152 118.640115 
L 199.314755 104.182718 
L 199.695358 74.717947 
L 200.075962 131.216941 
L 200.456565 80.137964 
L 200.837168 113.216342 
L 201.217771 79.89755 
L 201.978978 103.977296 
L 202.359581 137.904235 
L 202.740184 125.606038 
L 203.120787 95.563952 
L 203.501391 79.338366 
L 203.881994 92.807793 
L 204.262597 94.797923 
L 204.6432 108.106711 
L 205.023804 102.052919 
L 205.404407 110.399933 
L 205.78501 91.977544 
L 206.165613 83.138359 
L 206.546216 90.015471 
L 206.92682 114.908861 
L 207.307423 99.059679 
L 207.688026 101.002471 
L 208.068629 110.93716 
L 208.449233 101.743019 
L 208.829836 172.188017 
L 209.210439 85.04257 
L 209.591042 125.240047 
L 209.971645 95.01451 
L 210.352249 93.988687 
L 210.732852 78.782897 
L 211.113455 84.339019 
L 211.494058 97.156286 
L 211.874661 64.026917 
L 213.016471 109.098609 
L 213.397074 88.600181 
L 213.777678 111.927216 
L 214.158281 170.925683 
L 214.538884 84.40421 
L 215.30009 112.254036 
L 215.680694 73.515019 
L 216.061297 73.259535 
L 216.4419 73.799375 
L 216.822503 119.69279 
L 217.203107 85.640298 
L 217.964313 77.493627 
L 218.344916 67.719886 
L 218.725519 94.685928 
L 219.106123 86.44067 
L 219.486726 62.62287 
L 219.867329 91.584474 
L 220.247932 73.712837 
L 220.628536 138.911959 
L 221.009139 76.860807 
L 221.389742 60.237157 
L 221.770345 75.700652 
L 222.150948 63.534773 
L 222.531552 87.747616 
L 222.912155 82.999617 
L 223.292758 60.565118 
L 223.673361 65.721682 
L 224.053964 104.806333 
L 224.434568 55.050448 
L 224.815171 109.830414 
L 225.195774 66.960182 
L 225.576377 99.272121 
L 225.956981 78.294204 
L 226.337584 72.282424 
L 226.718187 76.38669 
L 227.09879 83.000786 
L 227.479393 75.469101 
L 227.859997 79.071453 
L 228.2406 57.53823 
L 228.621203 60.296115 
L 229.38241 99.275669 
L 229.763013 73.601952 
L 230.143616 101.76984 
L 230.524219 80.966543 
L 230.904822 98.241386 
L 231.666029 60.175366 
L 232.046632 86.339924 
L 232.427235 75.57224 
L 232.807839 105.28191 
L 233.188442 78.341434 
L 233.569045 66.479434 
L 233.949648 91.658442 
L 234.330251 60.164715 
L 234.710855 74.795082 
L 235.091458 61.920868 
L 235.472061 83.492258 
L 235.852664 71.638556 
L 236.233267 84.246225 
L 236.613871 89.679474 
L 236.994474 82.827316 
L 237.375077 92.32715 
L 237.75568 58.617906 
L 238.136284 48.742306 
L 238.516887 60.680034 
L 238.89749 106.649232 
L 239.278093 79.465586 
L 239.658696 103.151551 
L 240.0393 60.159962 
L 240.419903 63.060672 
L 240.800506 70.143659 
L 241.181109 70.626402 
L 241.561713 209.074492 
L 241.942316 54.243945 
L 242.322919 53.417741 
L 242.703522 89.824605 
L 243.084125 69.076818 
L 243.464729 84.802954 
L 243.845332 161.241532 
L 244.225935 73.488923 
L 244.606538 66.745661 
L 244.987142 83.787337 
L 245.367745 94.222058 
L 245.748348 70.424841 
L 246.128951 56.194375 
L 246.509554 70.281522 
L 246.890158 76.787108 
L 247.270761 71.380806 
L 247.651364 57.124103 
L 248.031967 83.96682 
L 248.793174 57.947849 
L 249.173777 65.997969 
L 249.55438 67.854041 
L 249.934983 80.351367 
L 250.315587 49.374877 
L 250.69619 78.746139 
L 251.076793 56.347611 
L 251.457396 86.524091 
L 251.837999 55.014686 
L 252.218603 50.058545 
L 252.599206 69.688152 
L 252.979809 57.54843 
L 253.360412 78.703103 
L 253.741016 62.514076 
L 254.121619 94.119334 
L 254.502222 73.179421 
L 254.882825 71.12127 
L 255.263428 80.055283 
L 256.024635 58.027917 
L 256.405238 58.527827 
L 256.785841 64.417819 
L 257.166445 58.841959 
L 257.547048 55.428309 
L 257.927651 59.539467 
L 258.308254 89.335618 
L 258.688857 61.572257 
L 259.069461 75.957971 
L 259.450064 59.976137 
L 259.830667 48.925429 
L 260.21127 90.106568 
L 260.591873 52.17188 
L 261.35308 48.173141 
L 262.114286 73.59288 
L 262.49489 60.955175 
L 262.875493 112.568076 
L 263.256096 42.097417 
L 263.636699 49.376158 
L 264.017302 54.390491 
L 264.397906 48.445695 
L 264.778509 71.60826 
L 265.159112 46.32209 
L 265.539715 50.626307 
L 265.920319 39.5198 
L 266.300922 70.958047 
L 266.681525 45.024237 
L 267.062128 41.105344 
L 267.442731 53.515942 
L 267.823335 35.475978 
L 268.203938 73.444687 
L 268.584541 83.922533 
L 268.965144 66.693096 
L 269.726351 55.377636 
L 270.106954 72.126194 
L 270.487557 52.49902 
L 270.86816 65.421429 
L 271.629367 43.697787 
L 272.00997 71.090141 
L 272.390573 52.987764 
L 272.771176 51.356906 
L 273.15178 47.071633 
L 273.532383 68.338606 
L 274.293589 57.635258 
L 274.674193 138.422513 
L 275.054796 40.204539 
L 275.435399 60.7262 
L 275.816002 88.227954 
L 276.196605 46.742941 
L 276.957812 35.775384 
L 278.099622 79.138496 
L 278.480225 49.397021 
L 278.860828 44.04969 
L 279.241431 47.891133 
L 279.622034 46.80269 
L 280.002638 88.822012 
L 280.383241 41.500742 
L 280.763844 47.533975 
L 281.144447 75.807623 
L 281.52505 45.821663 
L 281.905654 83.11622 
L 282.286257 53.84055 
L 282.66686 49.686523 
L 283.047463 62.943986 
L 283.428067 62.425591 
L 283.80867 52.797394 
L 284.189273 38.070756 
L 284.569876 34.582291 
L 284.950479 111.985904 
L 285.331083 73.412153 
L 285.711686 48.202271 
L 286.092289 58.985498 
L 286.472892 47.88296 
L 286.853496 59.858523 
L 287.234099 80.503767 
L 287.614702 46.305309 
L 287.995305 77.989257 
L 288.375908 62.204131 
L 288.756512 54.844563 
L 289.137115 58.063017 
L 289.898321 40.380591 
L 290.278925 101.649493 
L 290.659528 56.85366 
L 291.420734 46.011853 
L 291.801337 45.951321 
L 292.181941 77.951202 
L 292.562544 44.028177 
L 292.943147 120.321811 
L 293.32375 57.574775 
L 293.704353 82.426461 
L 294.084957 50.545331 
L 294.46556 60.632623 
L 294.846163 50.319552 
L 295.226766 47.864415 
L 295.60737 60.551871 
L 295.987973 64.717345 
L 296.368576 47.963353 
L 296.749179 48.569876 
L 297.129782 44.140548 
L 297.510386 51.857302 
L 297.890989 49.405136 
L 298.271592 65.094008 
L 298.652195 38.045044 
L 299.032799 44.02651 
L 299.413402 37.672034 
L 299.794005 67.084431 
L 300.174608 83.715777 
L 300.555211 47.307715 
L 300.935815 64.846648 
L 301.316418 47.241379 
L 301.697021 65.196196 
L 302.077624 39.408127 
L 302.838831 60.045236 
L 303.219434 48.967667 
L 303.600037 53.660959 
L 303.98064 51.508538 
L 304.361244 72.423152 
L 305.12245 58.22765 
L 305.503053 38.381024 
L 306.26426 54.611453 
L 306.644863 45.30196 
L 307.025466 63.417915 
L 307.406069 54.779483 
L 307.786673 72.553429 
L 308.167276 34.414125 
L 308.928482 76.531388 
L 309.309085 80.694429 
L 309.689689 64.857874 
L 310.450895 43.571084 
L 310.831498 51.845248 
L 311.212102 39.354709 
L 311.592705 59.795094 
L 311.973308 59.059042 
L 312.353911 44.89678 
L 312.734514 62.331075 
L 313.115118 68.882466 
L 313.495721 52.165334 
L 313.876324 59.850645 
L 314.256927 51.352498 
L 314.637531 74.548903 
L 315.018134 52.394353 
L 315.398737 43.480829 
L 315.77934 52.841242 
L 316.159943 58.081386 
L 316.540547 69.716742 
L 316.92115 41.06507 
L 317.301753 44.687326 
L 317.682356 52.176977 
L 318.062959 50.335603 
L 318.443563 56.749607 
L 318.824166 46.16174 
L 319.204769 74.122272 
L 319.965976 42.575244 
L 320.346579 56.604512 
L 320.727182 47.333659 
L 321.107785 47.91872 
L 321.488388 46.704485 
L 321.868992 66.084401 
L 322.249595 44.698502 
L 322.630198 50.688698 
L 323.010801 41.45892 
L 323.391405 50.10507 
L 323.772008 40.30189 
L 324.152611 46.375515 
L 324.533214 45.665689 
L 324.913817 66.394814 
L 325.294421 66.623829 
L 325.675024 48.879912 
L 326.055627 54.349471 
L 326.43623 46.867881 
L 326.816834 62.012448 
L 327.197437 44.724466 
L 328.339246 57.773547 
L 328.71985 40.986427 
L 329.100453 53.071969 
L 329.481056 40.961012 
L 329.861659 83.316997 
L 330.242262 47.180407 
L 330.622866 49.463981 
L 331.003469 66.923203 
L 331.384072 38.161701 
L 331.764675 48.877902 
L 332.145279 78.447406 
L 332.525882 49.300652 
L 332.906485 49.800925 
L 333.287088 63.773461 
L 333.667691 64.919881 
L 334.809501 44.917355 
L 335.190104 61.457578 
L 335.570708 45.953892 
L 335.951311 74.554451 
L 336.712517 56.863928 
L 337.09312 55.306101 
L 337.473724 66.886132 
L 337.854327 48.192624 
L 338.23493 59.901658 
L 338.615533 43.314973 
L 338.996136 66.621772 
L 339.37674 68.663069 
L 339.757343 107.934564 
L 340.137946 49.758245 
L 340.518549 64.945751 
L 340.899153 63.5661 
L 341.279756 51.930412 
L 341.660359 49.230309 
L 342.040962 49.847543 
L 342.421565 53.727844 
L 342.802169 82.849118 
L 343.182772 39.356845 
L 343.563375 40.887703 
L 343.943978 72.024273 
L 344.324582 52.278617 
L 344.705185 56.904538 
L 345.085788 59.779541 
L 345.466391 45.474796 
L 345.846994 40.669982 
L 346.227598 51.809135 
L 346.608201 44.402089 
L 346.988804 49.551197 
L 347.369407 47.868373 
L 347.750011 45.345358 
L 348.130614 43.710875 
L 348.511217 39.605767 
L 348.89182 44.607626 
L 349.272423 44.683243 
L 349.653027 46.591666 
L 350.03363 46.427668 
L 350.414233 60.683818 
L 350.794836 91.101246 
L 351.175439 58.706435 
L 351.556043 63.943184 
L 351.936646 43.400234 
L 352.317249 35.43832 
L 352.697852 39.460112 
L 353.078456 125.898824 
L 353.459059 83.594875 
L 353.839662 113.74992 
L 354.220265 46.360217 
L 354.600868 44.767965 
L 354.981472 42.184266 
L 355.362075 42.188974 
L 355.742678 80.112659 
L 356.123281 56.945983 
L 356.503885 49.822517 
L 356.884488 52.278761 
L 357.265091 43.27737 
L 357.645694 43.282126 
L 358.026297 64.815305 
L 358.406901 64.624987 
L 358.787504 40.320295 
L 359.168107 54.08145 
L 359.54871 48.575471 
L 359.929314 37.23917 
L 360.309917 57.411043 
L 360.69052 40.885466 
L 361.071123 39.907064 
L 361.451726 51.974906 
L 361.83233 40.35071 
L 362.212933 40.644445 
L 362.593536 37.66195 
L 363.354742 65.70795 
L 363.735346 51.384811 
L 364.115949 46.74066 
L 364.496552 62.310077 
L 364.877155 46.937319 
L 365.257759 71.395386 
L 365.638362 55.116066 
L 366.018965 79.022032 
L 366.399568 47.209625 
L 366.780171 51.756414 
L 367.160775 41.446492 
L 367.541378 38.974389 
L 367.921981 46.21671 
L 368.302584 49.260246 
L 368.683188 40.426831 
L 369.063791 49.797417 
L 369.444394 52.969562 
L 370.2056 41.269986 
L 370.966807 51.812853 
L 371.34741 43.813237 
L 372.108617 71.478885 
L 372.48922 51.834454 
L 372.869823 41.524556 
L 373.250426 42.944372 
L 373.631029 46.093109 
L 374.011633 42.095653 
L 374.392236 42.295785 
L 374.772839 59.884997 
L 375.153442 43.185258 
L 375.534045 59.519017 
L 375.914649 37.904302 
L 376.295252 42.321072 
L 376.675855 71.901917 
L 377.056458 49.348983 
L 377.437062 48.449821 
L 377.817665 46.572656 
L 378.198268 57.965195 
L 378.578871 41.428423 
L 378.959474 43.920157 
L 379.340078 57.798587 
L 379.720681 35.430385 
L 380.101284 101.903482 
L 380.481887 63.326249 
L 380.862491 42.079644 
L 381.243094 49.702809 
L 381.623697 52.22862 
L 382.0043 53.405387 
L 382.384903 45.69701 
L 382.765507 49.842994 
L 383.14611 37.606599 
L 383.526713 54.984937 
L 383.907316 42.690211 
L 384.28792 50.313148 
L 384.668523 68.843814 
L 384.668523 68.843814 
" style="fill:none;stroke:#1f77b4;stroke-linecap:square;stroke-width:0.5;"/>
   </g>
   <g id="patch_3">
    <path d="M 43.78125 288.430125 
L 43.78125 22.318125 
" style="fill:none;stroke:#000000;stroke-linecap:square;stroke-linejoin:miter;stroke-width:0.8;"/>
   </g>
   <g id="patch_4">
    <path d="M 400.90125 288.430125 
L 400.90125 22.318125 
" style="fill:none;stroke:#000000;stroke-linecap:square;stroke-linejoin:miter;stroke-width:0.8;"/>
   </g>
   <g id="patch_5">
    <path d="M 43.78125 288.430125 
L 400.90125 288.430125 
" style="fill:none;stroke:#000000;stroke-linecap:square;stroke-linejoin:miter;stroke-width:0.8;"/>
   </g>
   <g id="patch_6">
    <path d="M 43.78125 22.318125 
L 400.90125 22.318125 
" style="fill:none;stroke:#000000;stroke-linecap:square;stroke-linejoin:miter;stroke-width:0.8;"/>
   </g>
   <g id="text_15">
    <!-- Average maxQ per episode, joint5 -->
    <defs>
     <path d="M 34.1875 63.1875 
L 20.796875 26.90625 
L 47.609375 26.90625 
z
M 28.609375 72.90625 
L 39.796875 72.90625 
L 67.578125 0 
L 57.328125 0 
L 50.6875 18.703125 
L 17.828125 18.703125 
L 11.1875 0 
L 0.78125 0 
z
" id="DejaVuSans-41"/>
     <path d="M 11.71875 12.40625 
L 22.015625 12.40625 
L 22.015625 4 
L 14.015625 -11.625 
L 7.71875 -11.625 
L 11.71875 4 
z
" id="DejaVuSans-2c"/>
     <path d="M 9.421875 54.6875 
L 18.40625 54.6875 
L 18.40625 -0.984375 
Q 18.40625 -11.421875 14.421875 -16.109375 
Q 10.453125 -20.796875 1.609375 -20.796875 
L -1.8125 -20.796875 
L -1.8125 -13.1875 
L 0.59375 -13.1875 
Q 5.71875 -13.1875 7.5625 -10.8125 
Q 9.421875 -8.453125 9.421875 -0.984375 
z
M 9.421875 75.984375 
L 18.40625 75.984375 
L 18.40625 64.59375 
L 9.421875 64.59375 
z
" id="DejaVuSans-6a"/>
     <path d="M 54.890625 33.015625 
L 54.890625 0 
L 45.90625 0 
L 45.90625 32.71875 
Q 45.90625 40.484375 42.875 44.328125 
Q 39.84375 48.1875 33.796875 48.1875 
Q 26.515625 48.1875 22.3125 43.546875 
Q 18.109375 38.921875 18.109375 30.90625 
L 18.109375 0 
L 9.078125 0 
L 9.078125 54.6875 
L 18.109375 54.6875 
L 18.109375 46.1875 
Q 21.34375 51.125 25.703125 53.5625 
Q 30.078125 56 35.796875 56 
Q 45.21875 56 50.046875 50.171875 
Q 54.890625 44.34375 54.890625 33.015625 
z
" id="DejaVuSans-6e"/>
     <path d="M 18.3125 70.21875 
L 18.3125 54.6875 
L 36.8125 54.6875 
L 36.8125 47.703125 
L 18.3125 47.703125 
L 18.3125 18.015625 
Q 18.3125 11.328125 20.140625 9.421875 
Q 21.96875 7.515625 27.59375 7.515625 
L 36.8125 7.515625 
L 36.8125 0 
L 27.59375 0 
Q 17.1875 0 13.234375 3.875 
Q 9.28125 7.765625 9.28125 18.015625 
L 9.28125 47.703125 
L 2.6875 47.703125 
L 2.6875 54.6875 
L 9.28125 54.6875 
L 9.28125 70.21875 
z
" id="DejaVuSans-74"/>
    </defs>
    <g transform="translate(119.61375 16.318125)scale(0.12 -0.12)">
     <use xlink:href="#DejaVuSans-41"/>
     <use x="68.330078" xlink:href="#DejaVuSans-76"/>
     <use x="127.509766" xlink:href="#DejaVuSans-65"/>
     <use x="189.033203" xlink:href="#DejaVuSans-72"/>
     <use x="230.146484" xlink:href="#DejaVuSans-61"/>
     <use x="291.425781" xlink:href="#DejaVuSans-67"/>
     <use x="354.902344" xlink:href="#DejaVuSans-65"/>
     <use x="416.425781" xlink:href="#DejaVuSans-20"/>
     <use x="448.212891" xlink:href="#DejaVuSans-6d"/>
     <use x="545.625" xlink:href="#DejaVuSans-61"/>
     <use x="606.904297" xlink:href="#DejaVuSans-78"/>
     <use x="666.083984" xlink:href="#DejaVuSans-51"/>
     <use x="744.794922" xlink:href="#DejaVuSans-20"/>
     <use x="776.582031" xlink:href="#DejaVuSans-70"/>
     <use x="840.058594" xlink:href="#DejaVuSans-65"/>
     <use x="901.582031" xlink:href="#DejaVuSans-72"/>
     <use x="942.695312" xlink:href="#DejaVuSans-20"/>
     <use x="974.482422" xlink:href="#DejaVuSans-65"/>
     <use x="1036.005859" xlink:href="#DejaVuSans-70"/>
     <use x="1099.482422" xlink:href="#DejaVuSans-69"/>
     <use x="1127.265625" xlink:href="#DejaVuSans-73"/>
     <use x="1179.365234" xlink:href="#DejaVuSans-6f"/>
     <use x="1240.546875" xlink:href="#DejaVuSans-64"/>
     <use x="1304.023438" xlink:href="#DejaVuSans-65"/>
     <use x="1365.546875" xlink:href="#DejaVuSans-2c"/>
     <use x="1397.333984" xlink:href="#DejaVuSans-20"/>
     <use x="1429.121094" xlink:href="#DejaVuSans-6a"/>
     <use x="1456.904297" xlink:href="#DejaVuSans-6f"/>
     <use x="1518.085938" xlink:href="#DejaVuSans-69"/>
     <use x="1545.869141" xlink:href="#DejaVuSans-6e"/>
     <use x="1609.248047" xlink:href="#DejaVuSans-74"/>
     <use x="1648.457031" xlink:href="#DejaVuSans-35"/>
    </g>
   </g>
  </g>
 </g>
 <defs>
  <clipPath id="p7f5fcb85af">
   <rect height="266.112" width="357.12" x="43.78125" y="22.318125"/>
  </clipPath>
 </defs>
</svg>
