<?xml version="1.0" encoding="utf-8" standalone="no"?>
<!DOCTYPE svg PUBLIC "-//W3C//DTD SVG 1.1//EN"
  "http://www.w3.org/Graphics/SVG/1.1/DTD/svg11.dtd">
<!-- Created with matplotlib (http://matplotlib.org/) -->
<svg height="408pt" version="1.1" viewBox="0 0 523 408" width="523pt" xmlns="http://www.w3.org/2000/svg" xmlns:xlink="http://www.w3.org/1999/xlink">
 <defs>
  <style type="text/css">
*{stroke-linecap:butt;stroke-linejoin:round;stroke-miterlimit:100000;}
  </style>
 </defs>
 <g id="figure_1">
  <g id="patch_1">
   <path d="M 0 408.16925 
L 523.4025 408.16925 
L 523.4025 0 
L 0 0 
z
" style="fill:#ffffff;"/>
  </g>
  <g id="axes_1">
   <g id="patch_2">
    <path d="M 54.5325 368.74175 
L 500.9325 368.74175 
L 500.9325 23.14175 
L 54.5325 23.14175 
z
" style="fill:#ffffff;"/>
   </g>
   <g id="line2d_1">
    <path clip-path="url(#pc36f664ba6)" d="M 54.7557 336.160886 
L 54.9789 339.049332 
L 55.2021 336.6708 
L 55.4253 343.290653 
L 55.8717 335.062223 
L 56.0949 341.233957 
L 56.3181 336.722157 
L 56.5413 337.701365 
L 56.7645 333.425457 
L 57.2109 340.008769 
L 57.4341 339.70797 
L 57.6573 340.394677 
L 58.1037 338.241729 
L 58.3269 337.775558 
L 58.7733 342.746708 
L 58.9965 336.638713 
L 59.2197 335.065315 
L 59.4429 340.566137 
L 59.6661 338.721316 
L 59.8893 337.956534 
L 60.5589 331.840362 
L 60.7821 340.787806 
L 61.0053 341.397532 
L 61.2285 337.141346 
L 61.4517 339.330683 
L 61.6749 337.906356 
L 61.8981 341.033917 
L 62.1213 331.917796 
L 62.5677 342.950285 
L 62.7909 335.303176 
L 63.0141 334.179842 
L 63.2373 338.431325 
L 63.4605 338.153265 
L 63.6837 332.771699 
L 63.9069 335.182703 
L 64.1301 339.609215 
L 64.3533 341.579813 
L 64.7997 333.829414 
L 65.0229 335.057745 
L 65.4693 333.538807 
L 65.6925 342.454788 
L 65.9157 330.759794 
L 66.1389 339.43382 
L 66.3621 338.392217 
L 66.5853 332.211093 
L 66.8085 331.723772 
L 67.0317 332.377079 
L 67.7013 342.122808 
L 67.9245 337.095997 
L 68.1477 342.609458 
L 68.5941 338.729516 
L 68.8173 333.718641 
L 69.0405 341.869639 
L 69.4869 335.452217 
L 69.7101 334.901576 
L 69.9333 340.337657 
L 70.1565 335.389052 
L 70.3797 336.088645 
L 70.6029 338.328448 
L 70.8261 337.470743 
L 71.0493 338.383192 
L 71.2725 338.15827 
L 71.4957 330.946809 
L 71.7189 341.052236 
L 72.1653 335.301502 
L 72.3885 335.281259 
L 72.6117 334.425768 
L 72.8349 342.977486 
L 73.0581 334.713986 
L 73.2813 335.117675 
L 73.5045 336.760221 
L 73.7277 336.296889 
L 73.9509 337.347589 
L 74.1741 334.60934 
L 74.3973 339.05891 
L 74.6205 337.539613 
L 74.8437 338.439727 
L 75.0669 341.865064 
L 75.5133 333.81016 
L 75.7365 342.777754 
L 75.9597 335.207341 
L 76.4061 337.721439 
L 76.6293 335.450482 
L 76.8525 335.723305 
L 77.0757 337.984662 
L 77.2989 333.606723 
L 77.5221 338.069225 
L 77.9685 331.801633 
L 78.1917 337.62702 
L 78.6381 335.009136 
L 79.0845 332.635753 
L 79.3077 334.05538 
L 79.5309 341.559965 
L 79.7541 335.183027 
L 79.9773 333.427694 
L 80.2005 339.824285 
L 80.4237 338.757137 
L 80.6469 333.049812 
L 80.8701 343.858022 
L 81.0933 340.426172 
L 81.3165 334.217313 
L 81.5397 338.235363 
L 81.7629 338.564072 
L 81.9861 333.336511 
L 82.2093 341.55094 
L 82.4325 331.876137 
L 82.6557 337.808296 
L 82.8789 333.261206 
L 83.1021 338.444283 
L 83.3253 339.359244 
L 83.7717 331.338378 
L 83.9949 333.811388 
L 84.2181 340.463892 
L 84.4413 338.954202 
L 84.6645 341.004947 
L 84.8877 334.039465 
L 85.1109 337.439867 
L 85.5573 332.69238 
L 85.7805 334.075587 
L 86.0037 336.998598 
L 86.2269 336.445222 
L 86.4501 335.014418 
L 86.6733 335.579193 
L 86.8965 337.620974 
L 87.1197 331.202387 
L 87.3429 338.59572 
L 87.5661 337.210522 
L 87.7893 337.415646 
L 88.0125 338.634235 
L 88.2357 337.505961 
L 88.6821 341.430144 
L 88.9053 335.15656 
L 89.1285 333.582157 
L 89.5749 338.619856 
L 89.7981 339.268238 
L 90.0213 333.28535 
L 90.2445 337.551995 
L 90.4677 338.652148 
L 90.6909 334.178714 
L 90.9141 334.474435 
L 91.1373 337.508175 
L 91.3605 334.108946 
L 91.5837 334.402937 
L 91.8069 340.619919 
L 92.0301 334.882523 
L 92.2533 337.117935 
L 92.4765 334.552579 
L 92.6997 337.677225 
L 92.9229 337.187105 
L 93.1461 336.043166 
L 93.3693 340.484169 
L 93.5925 335.13288 
L 93.8157 341.775883 
L 94.0389 342.564564 
L 94.2621 335.12809 
L 94.4853 339.204627 
L 94.7085 337.472623 
L 94.9317 338.81613 
L 95.1549 341.739285 
L 95.6013 334.554262 
L 95.8245 337.831743 
L 96.0477 335.81141 
L 96.2709 339.85156 
L 96.4941 340.798487 
L 96.9405 332.655432 
L 97.1637 336.394127 
L 97.3869 342.744854 
L 97.6101 340.709742 
L 97.8333 331.409624 
L 98.0565 341.321571 
L 98.2797 337.634028 
L 98.5029 339.189219 
L 98.7261 336.815015 
L 98.9493 335.945511 
L 99.1725 333.721615 
L 99.3957 340.337026 
L 99.6189 341.133226 
L 99.8421 339.210108 
L 100.0653 335.278832 
L 100.2885 336.944271 
L 100.5117 334.803323 
L 100.7349 337.600746 
L 100.9581 338.10228 
L 101.1813 341.022015 
L 101.4045 338.696777 
L 101.6277 335.18401 
L 102.0741 337.357594 
L 102.2973 341.000587 
L 102.5205 336.588597 
L 102.7437 341.244042 
L 102.9669 335.017739 
L 103.1901 332.285861 
L 103.4133 338.598535 
L 103.6365 339.746153 
L 103.8597 338.427772 
L 104.0829 338.771845 
L 104.3061 338.706554 
L 104.7525 340.020291 
L 104.9757 335.400225 
L 105.1989 338.62138 
L 105.4221 338.778706 
L 105.8685 332.609895 
L 106.0917 340.419127 
L 106.3149 344.274042 
L 106.7613 337.688693 
L 107.2077 331.927276 
L 107.4309 337.090257 
L 107.6541 333.913568 
L 108.1005 336.883684 
L 108.3237 331.478719 
L 108.5469 336.892845 
L 108.7701 339.447538 
L 108.9933 330.589065 
L 109.2165 339.608679 
L 109.4397 340.603916 
L 109.6629 330.316094 
L 109.8861 340.426295 
L 110.1093 338.938373 
L 110.3325 341.129073 
L 110.5557 335.383971 
L 110.7789 341.183558 
L 111.0021 341.683373 
L 111.2253 339.279275 
L 111.4485 334.457272 
L 111.6717 334.118641 
L 111.8949 330.6332 
L 112.1181 330.740223 
L 112.3413 327.440498 
L 112.5645 320.970641 
L 112.7877 325.670816 
L 113.0109 313.064576 
L 113.2341 320.39196 
L 113.4573 321.786329 
L 113.6805 318.779975 
L 113.9037 308.829718 
L 114.1269 321.279814 
L 114.3501 313.706506 
L 114.5733 318.28735 
L 114.7965 312.782237 
L 115.0197 315.594935 
L 115.2429 312.124952 
L 115.4661 310.660784 
L 115.6893 311.046952 
L 115.9125 316.328321 
L 116.3589 313.99689 
L 116.5821 316.599301 
L 116.8053 320.842291 
L 117.0285 317.356751 
L 117.2517 319.828797 
L 117.4749 314.727275 
L 117.6981 318.98791 
L 117.9213 313.997715 
L 118.1445 317.499153 
L 118.3677 319.025782 
L 118.5909 319.718733 
L 119.0373 316.218664 
L 119.2605 318.693341 
L 119.4837 316.804507 
L 119.7069 321.41192 
L 119.9301 315.881033 
L 120.1533 317.646683 
L 120.3765 320.765937 
L 120.5997 317.321303 
L 120.8229 318.449897 
L 121.0461 317.221328 
L 121.2693 321.632035 
L 121.4925 320.433285 
L 122.3853 331.359546 
L 122.6085 330.619446 
L 122.8317 329.43186 
L 123.0549 325.126954 
L 123.5013 322.030822 
L 123.7245 318.587965 
L 123.9477 318.817274 
L 124.1709 317.527525 
L 124.3941 320.995093 
L 124.6173 319.481552 
L 124.8405 319.596788 
L 125.0637 319.422459 
L 125.2869 321.231589 
L 125.5101 321.163878 
L 125.7333 320.614923 
L 125.9565 317.506422 
L 126.1797 317.760181 
L 126.4029 312.714007 
L 126.6261 318.633857 
L 126.8493 317.275808 
L 127.2957 318.544018 
L 127.5189 318.408267 
L 127.7421 317.755001 
L 127.9653 312.631838 
L 128.1885 316.685434 
L 128.4117 316.598801 
L 128.6349 316.272654 
L 128.8581 314.695871 
L 129.0813 315.007158 
L 129.3045 313.80443 
L 129.5277 310.033703 
L 129.7509 317.484758 
L 129.9741 314.674881 
L 130.1973 313.66497 
L 130.4205 313.833562 
L 130.6437 315.91271 
L 130.8669 314.097647 
L 131.0901 316.141786 
L 131.5365 312.583514 
L 131.7597 314.589214 
L 131.9829 313.756845 
L 132.2061 314.680983 
L 132.4293 311.105921 
L 132.6525 313.697302 
L 132.8757 310.813665 
L 133.0989 311.231034 
L 133.3221 308.802887 
L 133.5453 314.209964 
L 133.7685 310.244593 
L 133.9917 309.734019 
L 134.2149 314.082513 
L 134.4381 314.444202 
L 134.6613 309.55597 
L 134.8845 309.793913 
L 135.1077 309.542961 
L 135.3309 309.630283 
L 135.5541 309.23112 
L 135.7773 306.546144 
L 136.0005 310.872368 
L 136.2237 310.885027 
L 136.4469 311.442509 
L 136.6701 307.192583 
L 136.8933 310.126557 
L 137.1165 310.279443 
L 137.3397 311.303932 
L 137.5629 309.950854 
L 137.7861 307.515481 
L 138.0093 309.369844 
L 138.2325 309.900352 
L 138.4557 309.082578 
L 138.6789 309.350852 
L 138.9021 307.55623 
L 139.1253 308.991605 
L 139.3485 307.879579 
L 139.5717 305.144105 
L 139.7949 307.488635 
L 140.0181 301.5918 
L 140.2413 305.292741 
L 140.4645 305.782414 
L 140.6877 304.231346 
L 140.9109 301.687394 
L 141.1341 308.181048 
L 141.5805 300.097703 
L 141.8037 305.44783 
L 142.0269 307.400813 
L 142.2501 305.708946 
L 142.6965 306.239433 
L 142.9197 304.339195 
L 143.1429 306.470513 
L 143.3661 300.413941 
L 143.5893 306.334441 
L 143.8125 307.45663 
L 144.0357 297.836713 
L 144.2589 297.315559 
L 144.4821 303.719511 
L 144.7053 303.137884 
L 144.9285 304.651015 
L 145.1517 301.012696 
L 145.3749 305.818358 
L 145.5981 305.088962 
L 145.8213 302.621553 
L 146.0445 303.212127 
L 146.2677 302.884357 
L 146.4909 295.791541 
L 146.7141 305.052885 
L 147.1605 302.505077 
L 147.3837 302.908256 
L 147.6069 297.680897 
L 147.8301 298.347961 
L 148.0533 295.224303 
L 148.2765 303.480417 
L 148.4997 303.47488 
L 148.7229 302.591388 
L 148.9461 296.23014 
L 149.1693 303.182011 
L 149.3925 303.606262 
L 149.6157 293.458795 
L 149.8389 302.075844 
L 150.0621 300.755989 
L 150.2853 302.426425 
L 150.5085 290.087238 
L 150.7317 300.794189 
L 150.9549 288.805285 
L 151.1781 302.804235 
L 151.4013 290.612381 
L 151.6245 300.733736 
L 152.0709 297.334184 
L 152.2941 298.864832 
L 152.5173 299.067573 
L 152.7405 288.47912 
L 152.9637 300.046089 
L 153.1869 288.986216 
L 153.4101 298.160977 
L 153.6333 285.929838 
L 153.8565 300.498497 
L 154.0797 287.274388 
L 154.3029 289.513591 
L 154.5261 287.07967 
L 154.7493 286.583306 
L 154.9725 299.426228 
L 155.1957 294.558191 
L 155.4189 293.994752 
L 155.6421 285.584689 
L 155.8653 286.089069 
L 156.0885 295.161062 
L 156.3117 286.228498 
L 156.5349 298.530528 
L 156.7581 282.721119 
L 156.9813 284.274368 
L 157.2045 295.780816 
L 157.4277 285.890936 
L 157.6509 298.21489 
L 157.8741 284.626053 
L 158.0973 292.344354 
L 158.3205 283.966527 
L 158.5437 282.55296 
L 158.7669 295.000152 
L 158.9901 296.089446 
L 159.2133 279.946112 
L 159.4365 297.481882 
L 159.6597 294.250607 
L 159.8829 281.963937 
L 160.1061 285.314671 
L 160.3293 281.112456 
L 160.5525 279.171496 
L 160.7757 293.902917 
L 160.9989 295.225114 
L 161.2221 280.505806 
L 161.4453 279.970191 
L 161.6685 288.660931 
L 161.8917 277.847118 
L 162.1149 281.362194 
L 162.3381 282.944248 
L 162.5613 274.171299 
L 162.7845 277.377537 
L 163.0077 275.283939 
L 163.2309 276.796279 
L 163.4541 274.437008 
L 163.6773 285.708427 
L 163.9005 278.758472 
L 164.1237 277.102193 
L 164.3469 277.926113 
L 164.5701 277.802841 
L 164.7933 292.122259 
L 165.0165 273.830688 
L 165.2397 291.531019 
L 165.4629 274.388474 
L 165.6861 273.89206 
L 165.9093 286.367209 
L 166.1325 272.149947 
L 166.3557 278.575961 
L 166.5789 270.482049 
L 166.8021 291.827637 
L 167.0253 269.907403 
L 167.2485 271.937857 
L 167.4717 289.286274 
L 167.6949 291.980292 
L 167.9181 268.593501 
L 168.1413 269.914615 
L 168.3645 268.339853 
L 168.5877 268.542055 
L 168.8109 267.261662 
L 169.0341 274.146906 
L 169.2573 288.678125 
L 169.4805 270.944815 
L 169.9269 275.563602 
L 170.1501 290.27612 
L 170.3733 267.882784 
L 170.5965 271.109471 
L 170.8197 287.054088 
L 171.0429 266.165719 
L 171.2661 262.490393 
L 171.4893 269.695178 
L 171.7125 268.167763 
L 171.9357 263.490128 
L 172.1589 263.601523 
L 172.3821 262.530195 
L 172.6053 267.471401 
L 172.8285 264.623398 
L 173.0517 268.069227 
L 173.2749 267.479506 
L 173.4981 266.277935 
L 173.7213 260.937782 
L 173.9445 259.652433 
L 174.1677 262.255483 
L 174.3909 258.253857 
L 174.6141 259.495081 
L 174.8373 263.884239 
L 175.0605 262.770384 
L 175.2837 258.597542 
L 175.5069 258.488921 
L 175.7301 259.737559 
L 175.9533 253.25354 
L 176.1765 255.583619 
L 176.3997 254.971404 
L 176.6229 257.700649 
L 176.8461 254.473194 
L 177.0693 255.609869 
L 177.2925 254.474232 
L 177.7389 267.19332 
L 177.9621 268.577664 
L 178.1853 257.387713 
L 178.4085 258.329885 
L 178.6317 262.067197 
L 179.0781 251.560931 
L 179.3013 253.112468 
L 179.5245 256.36718 
L 179.7477 257.839594 
L 179.9709 255.202558 
L 180.4173 261.824462 
L 180.6405 251.1654 
L 180.8637 279.588331 
L 181.0869 248.399095 
L 181.3101 257.144247 
L 181.5333 252.145317 
L 181.9797 249.81378 
L 182.2029 257.954359 
L 182.4261 249.203085 
L 182.6493 251.013259 
L 182.8725 247.52339 
L 183.0957 274.471155 
L 183.3189 255.75522 
L 183.5421 253.751875 
L 183.7653 239.555618 
L 183.9885 247.620873 
L 184.2117 249.367975 
L 184.4349 248.32749 
L 184.6581 245.396362 
L 184.8813 246.850503 
L 185.1045 250.645931 
L 185.3277 243.495714 
L 185.5509 253.854596 
L 185.7741 255.545184 
L 186.4437 242.553597 
L 186.6669 246.836494 
L 186.8901 238.358572 
L 187.1133 248.578419 
L 187.3365 243.975792 
L 187.5597 243.975957 
L 187.7829 239.598134 
L 188.0061 246.073728 
L 188.2293 239.41178 
L 188.4525 244.858877 
L 188.6757 237.101221 
L 188.8989 275.901745 
L 189.1221 241.004703 
L 189.3453 240.402272 
L 189.5685 238.774264 
L 190.0149 241.178563 
L 190.2381 241.093661 
L 190.4613 247.403326 
L 190.9077 227.836173 
L 191.1309 237.694708 
L 191.3541 238.156038 
L 191.5773 233.360076 
L 191.8005 248.676841 
L 192.0237 245.196353 
L 192.2469 237.628497 
L 192.4701 245.062795 
L 192.6933 239.744361 
L 192.9165 271.293683 
L 193.1397 233.819006 
L 193.3629 242.229283 
L 193.5861 229.439282 
L 193.8093 232.331814 
L 194.0325 232.324745 
L 194.2557 230.741852 
L 194.4789 238.247028 
L 194.7021 230.346341 
L 194.9253 233.293276 
L 195.1485 233.983298 
L 195.3717 239.370491 
L 196.0413 228.639425 
L 196.2645 230.193285 
L 196.4877 234.969558 
L 196.7109 229.535493 
L 196.9341 220.05733 
L 197.1573 229.577393 
L 197.3805 231.731855 
L 197.8269 220.12059 
L 198.0501 235.957952 
L 198.2733 223.178665 
L 198.4965 229.195611 
L 198.7197 222.754197 
L 198.9429 226.372425 
L 199.1661 219.398453 
L 199.3893 224.690726 
L 199.6125 237.876219 
L 199.8357 227.8144 
L 200.0589 233.648095 
L 200.2821 221.88528 
L 200.5053 222.431571 
L 200.7285 225.046279 
L 200.9517 233.214334 
L 201.1749 219.735875 
L 201.3981 217.115237 
L 201.6213 225.805929 
L 201.8445 224.262009 
L 202.0677 213.016058 
L 202.2909 220.292452 
L 202.5141 218.525672 
L 202.7373 224.170773 
L 202.9605 221.646447 
L 203.1837 221.824685 
L 203.4069 220.468092 
L 203.6301 212.229462 
L 203.8533 211.724465 
L 204.0765 212.570533 
L 204.5229 232.983206 
L 204.7461 212.65867 
L 204.9693 216.921356 
L 205.1925 212.155676 
L 205.4157 210.153885 
L 205.6389 218.901343 
L 205.8621 214.91422 
L 206.0853 242.269331 
L 206.3085 212.969715 
L 206.5317 215.98887 
L 206.7549 211.972219 
L 206.9781 218.5566 
L 207.2013 211.150812 
L 207.4245 215.500162 
L 207.6477 204.957295 
L 207.8709 218.343562 
L 208.0941 210.660632 
L 208.3173 215.389223 
L 208.5405 252.224402 
L 208.7637 219.972663 
L 208.9869 204.091538 
L 209.2101 214.546951 
L 209.4333 241.896767 
L 209.6565 214.007199 
L 209.8797 203.080932 
L 210.1029 203.54666 
L 210.3261 209.764924 
L 210.5493 210.908682 
L 210.7725 198.596064 
L 210.9957 199.463467 
L 211.2189 219.835541 
L 211.4421 221.841102 
L 211.8885 203.185517 
L 212.1117 200.650587 
L 212.3349 201.367122 
L 212.5581 202.505883 
L 212.7813 198.415594 
L 213.0045 204.276375 
L 213.2277 206.950563 
L 213.4509 207.102648 
L 213.6741 196.955648 
L 213.8973 213.683093 
L 214.1205 209.587088 
L 214.3437 208.144419 
L 214.5669 208.929592 
L 214.7901 200.984305 
L 215.0133 209.894581 
L 215.2365 212.89684 
L 215.4597 238.563892 
L 215.6829 201.094766 
L 215.9061 192.026323 
L 216.1293 217.791408 
L 216.3525 227.550041 
L 216.5757 205.355107 
L 216.7989 196.833411 
L 217.0221 209.530519 
L 217.2453 189.994938 
L 217.4685 205.624332 
L 217.6917 207.705778 
L 217.9149 203.28739 
L 218.1381 191.140304 
L 218.3613 190.958045 
L 218.5845 200.651039 
L 218.8077 184.160595 
L 219.0309 185.801345 
L 219.2541 184.641187 
L 219.4773 192.628211 
L 219.7005 206.162138 
L 219.9237 190.151019 
L 220.3701 202.563565 
L 220.5933 206.982594 
L 220.8165 187.938234 
L 221.0397 201.191326 
L 221.2629 196.759058 
L 221.4861 199.230097 
L 221.7093 187.918771 
L 221.9325 195.494764 
L 222.1557 196.894058 
L 222.3789 189.112259 
L 222.6021 185.406106 
L 222.8253 188.559247 
L 223.0485 186.644683 
L 223.2717 183.127387 
L 223.7181 193.021039 
L 223.9413 181.825839 
L 224.1645 186.891249 
L 224.6109 203.442208 
L 224.8341 177.955767 
L 225.2805 198.345417 
L 225.5037 185.309443 
L 225.7269 178.835564 
L 225.9501 200.428449 
L 226.1733 185.970612 
L 226.3965 181.433628 
L 226.8429 198.586357 
L 227.0661 178.525191 
L 227.5125 185.635359 
L 227.7357 177.598513 
L 227.9589 195.145336 
L 228.1821 184.296627 
L 228.4053 182.032755 
L 228.6285 181.506844 
L 228.8517 189.716677 
L 229.0749 184.251013 
L 229.2981 188.080134 
L 229.5213 172.732801 
L 229.7445 177.713102 
L 229.9677 171.045627 
L 230.1909 186.34631 
L 230.4141 172.801941 
L 230.6373 196.553635 
L 230.8605 171.75507 
L 231.0837 170.275165 
L 231.3069 170.466593 
L 231.5301 172.115617 
L 231.9765 170.12641 
L 232.1997 170.982653 
L 232.4229 191.284325 
L 232.6461 187.832227 
L 232.8693 173.912187 
L 233.0925 175.556625 
L 233.3157 190.219778 
L 233.7621 165.768576 
L 233.9853 165.027456 
L 234.4317 172.764339 
L 234.6549 160.928219 
L 234.8781 162.751158 
L 235.1013 168.433957 
L 235.3245 164.21692 
L 235.7709 173.526007 
L 235.9941 167.197884 
L 236.2173 174.129349 
L 236.4405 188.632612 
L 236.6637 161.238686 
L 236.8869 179.215773 
L 237.1101 181.260529 
L 237.3333 180.309176 
L 237.5565 194.493211 
L 237.7797 194.728829 
L 238.0029 183.593135 
L 238.2261 165.87594 
L 238.4493 180.129651 
L 238.6725 159.895837 
L 238.8957 180.272408 
L 239.1189 166.645607 
L 239.3421 176.272105 
L 239.5653 167.193647 
L 239.7885 166.039238 
L 240.0117 166.583506 
L 240.2349 164.689088 
L 240.4581 184.749576 
L 240.6813 162.520473 
L 241.1277 177.962658 
L 241.3509 153.408752 
L 241.5741 152.690061 
L 241.7973 158.806813 
L 242.0205 168.012249 
L 242.4669 154.258735 
L 242.6901 161.020589 
L 242.9133 184.621743 
L 243.1365 183.181924 
L 243.3597 182.946986 
L 243.8061 159.642687 
L 244.2525 151.31211 
L 244.4757 151.462103 
L 244.6989 161.868414 
L 244.9221 151.009985 
L 245.1453 150.583807 
L 245.3685 168.065808 
L 245.5917 146.364487 
L 245.8149 170.627828 
L 246.0381 143.397509 
L 246.2613 186.153693 
L 246.4845 158.070971 
L 246.7077 166.981058 
L 246.9309 188.660614 
L 247.1541 164.015218 
L 247.3773 187.557361 
L 247.8237 160.609135 
L 248.0469 163.085491 
L 248.2701 159.470332 
L 248.4933 159.394666 
L 248.7165 166.434002 
L 248.9397 146.934683 
L 249.1629 170.340483 
L 249.3861 156.601139 
L 249.6093 164.58103 
L 249.8325 145.70877 
L 250.0557 142.801485 
L 250.2789 182.142776 
L 250.5021 151.401554 
L 250.7253 155.898802 
L 250.9485 164.371521 
L 251.1717 147.175554 
L 251.3949 170.637777 
L 251.6181 177.45748 
L 251.8413 163.630717 
L 252.0645 172.644525 
L 252.2877 158.478106 
L 252.5109 152.973494 
L 252.7341 160.734824 
L 252.9573 157.697405 
L 253.1805 156.44732 
L 253.4037 161.573946 
L 253.6269 162.357692 
L 253.8501 139.452895 
L 254.0733 133.613278 
L 254.2965 147.715221 
L 254.5197 148.304186 
L 254.7429 160.549099 
L 254.9661 160.179875 
L 255.1893 139.701037 
L 255.4125 143.587574 
L 255.6357 163.835397 
L 255.8589 147.488245 
L 256.0821 145.50699 
L 256.3053 153.759086 
L 256.5285 157.612081 
L 256.7517 149.756609 
L 256.9749 156.882281 
L 257.1981 137.050102 
L 257.4213 144.766013 
L 257.6445 139.461631 
L 257.8677 159.474447 
L 258.0909 143.839435 
L 258.5373 160.05195 
L 258.7605 156.927236 
L 258.9837 143.827396 
L 259.2069 139.001789 
L 259.4301 153.709127 
L 259.6533 132.48964 
L 260.0997 166.883348 
L 260.3229 158.714202 
L 260.5461 161.879385 
L 260.7693 157.242538 
L 260.9925 144.391228 
L 261.2157 142.740119 
L 261.4389 138.625112 
L 261.6621 140.032903 
L 261.8853 158.139612 
L 262.1085 144.662981 
L 262.3317 139.373424 
L 262.5549 137.903496 
L 262.7781 150.582094 
L 263.0013 142.310488 
L 263.2245 139.324281 
L 263.6709 154.64055 
L 263.8941 151.74703 
L 264.1173 153.286801 
L 264.3405 144.148718 
L 264.5637 139.871467 
L 264.7869 150.268732 
L 265.0101 139.966046 
L 265.2333 142.336324 
L 265.4565 146.347141 
L 265.6797 138.228153 
L 265.9029 144.895451 
L 266.1261 138.11664 
L 266.3493 149.829115 
L 266.5725 152.656345 
L 266.7957 165.739471 
L 267.0189 138.171642 
L 267.2421 132.801891 
L 267.4653 140.457242 
L 267.6885 165.820639 
L 267.9117 169.765709 
L 268.1349 141.108477 
L 268.8045 171.23232 
L 269.0277 147.957998 
L 269.2509 175.154975 
L 269.4741 129.186222 
L 269.6973 152.416027 
L 269.9205 155.519191 
L 270.1437 137.992871 
L 270.3669 163.726749 
L 270.5901 145.913165 
L 270.8133 151.137731 
L 271.0365 129.875743 
L 271.2597 120.021817 
L 271.4829 135.26778 
L 271.9293 140.65456 
L 272.1525 138.606688 
L 272.3757 148.862577 
L 272.8221 140.719495 
L 273.0453 167.267623 
L 273.2685 148.753513 
L 273.4917 161.693773 
L 273.7149 150.45051 
L 273.9381 133.464801 
L 274.1613 149.165568 
L 274.3845 148.194868 
L 274.6077 140.657835 
L 274.8309 178.499375 
L 275.0541 147.131924 
L 275.2773 151.812642 
L 275.5005 147.759745 
L 275.7237 120.404617 
L 275.9469 133.311056 
L 276.1701 133.35071 
L 276.3933 135.211231 
L 276.6165 142.86874 
L 276.8397 134.879142 
L 277.0629 142.270829 
L 277.2861 130.725082 
L 277.5093 126.763241 
L 277.7325 137.51364 
L 277.9557 108.286446 
L 278.1789 121.968568 
L 278.4021 125.555522 
L 278.6253 138.488411 
L 278.8485 134.786111 
L 279.0717 127.126298 
L 279.2949 136.231829 
L 279.5181 128.234012 
L 279.7413 148.627611 
L 279.9645 129.42639 
L 280.1877 123.177435 
L 280.4109 128.92028 
L 280.6341 146.246877 
L 280.8573 131.617964 
L 281.0805 137.973165 
L 281.5269 120.298352 
L 281.7501 149.295954 
L 281.9733 159.707431 
L 282.1965 139.621683 
L 282.4197 140.017565 
L 282.6429 110.478359 
L 283.0893 138.901681 
L 283.3125 135.649116 
L 283.5357 143.912601 
L 283.7589 145.284202 
L 283.9821 133.942973 
L 284.2053 150.567377 
L 284.4285 155.438752 
L 284.6517 130.881366 
L 284.8749 145.579663 
L 285.0981 124.385459 
L 285.3213 148.629101 
L 285.5445 141.954232 
L 285.7677 143.452584 
L 285.9909 115.641628 
L 286.2141 137.643571 
L 286.4373 125.124442 
L 286.6605 119.93656 
L 286.8837 143.827185 
L 287.3301 141.541467 
L 287.5533 131.887484 
L 287.7765 151.326013 
L 287.9997 144.586304 
L 288.2229 146.46449 
L 288.4461 140.019793 
L 288.6693 117.909031 
L 288.8925 110.455478 
L 289.1157 140.159972 
L 289.3389 146.029418 
L 289.5621 110.662487 
L 290.2317 149.200693 
L 290.4549 125.921132 
L 290.6781 136.606765 
L 290.9013 161.100503 
L 291.1245 151.037603 
L 291.3477 160.823271 
L 291.7941 143.117763 
L 292.0173 188.636125 
L 292.2405 148.541364 
L 292.4637 129.491571 
L 292.6869 137.013828 
L 292.9101 154.878711 
L 293.1333 132.984235 
L 293.5797 152.908127 
L 293.8029 119.681037 
L 294.0261 152.450003 
L 294.2493 129.951677 
L 294.4725 152.967596 
L 294.6957 137.344186 
L 294.9189 158.628335 
L 295.1421 131.611604 
L 295.3653 135.922988 
L 295.5885 122.193774 
L 295.8117 154.513531 
L 296.0349 114.263482 
L 296.2581 110.320429 
L 296.7045 134.275022 
L 296.9277 135.078846 
L 297.3741 109.784323 
L 297.5973 147.251317 
L 297.8205 127.669636 
L 298.0437 138.293709 
L 298.2669 116.045703 
L 298.4901 136.294783 
L 298.7133 139.692435 
L 298.9365 163.368111 
L 299.1597 125.375699 
L 299.3829 150.047775 
L 299.6061 139.741675 
L 300.0525 132.273449 
L 300.2757 150.988159 
L 300.4989 102.785216 
L 300.7221 112.807581 
L 300.9453 107.633395 
L 301.1685 109.793485 
L 301.3917 154.92566 
L 301.6149 141.133206 
L 301.8381 104.439195 
L 302.0613 146.120858 
L 302.2845 119.358484 
L 302.5077 119.101887 
L 302.7309 127.089904 
L 302.9541 115.045578 
L 303.1773 117.617987 
L 303.4005 139.158408 
L 303.6237 111.582319 
L 303.8469 116.066915 
L 304.0701 95.782039 
L 304.2933 131.876495 
L 304.5165 104.888644 
L 304.7397 136.789421 
L 304.9629 130.822724 
L 305.4093 135.941349 
L 305.6325 133.224825 
L 305.8557 150.892676 
L 306.0789 143.247412 
L 306.3021 128.188421 
L 306.5253 123.10586 
L 306.7485 113.274189 
L 306.9717 140.100385 
L 307.1949 125.661645 
L 307.4181 104.019745 
L 307.6413 107.046653 
L 308.3109 158.163626 
L 308.5341 112.305457 
L 308.7573 127.804333 
L 308.9805 153.110595 
L 309.2037 103.146012 
L 309.6501 99.668508 
L 309.8733 124.145229 
L 310.0965 130.131748 
L 310.3197 131.936241 
L 310.5429 145.556836 
L 310.7661 147.684047 
L 310.9893 134.692089 
L 311.2125 136.829417 
L 311.4357 143.960533 
L 311.6589 120.152854 
L 312.1053 130.475452 
L 312.3285 112.130486 
L 312.5517 147.623052 
L 312.7749 141.049295 
L 312.9981 147.455819 
L 313.2213 131.898779 
L 313.4445 148.501214 
L 313.6677 145.882163 
L 313.8909 123.854372 
L 314.3373 139.934352 
L 314.5605 137.323735 
L 314.7837 147.873209 
L 315.0069 114.937525 
L 315.2301 101.571687 
L 315.4533 100.438763 
L 315.6765 121.908059 
L 315.8997 118.501186 
L 316.1229 149.457878 
L 316.3461 152.461422 
L 316.5693 147.689165 
L 317.2389 117.128947 
L 317.4621 113.758404 
L 317.6853 127.009026 
L 317.9085 151.224942 
L 318.1317 123.523621 
L 318.3549 120.847026 
L 318.5781 124.803883 
L 318.8013 104.400914 
L 319.0245 99.864929 
L 319.2477 126.650316 
L 319.4709 106.458885 
L 319.6941 142.132171 
L 319.9173 120.412853 
L 320.1405 113.909546 
L 320.5869 119.538064 
L 320.8101 151.35292 
L 321.0333 144.479835 
L 321.2565 124.12726 
L 321.4797 128.70321 
L 321.7029 123.799385 
L 321.9261 124.102946 
L 322.3725 158.234494 
L 322.5957 135.565522 
L 322.8189 98.021061 
L 323.0421 97.020482 
L 323.2653 114.530358 
L 323.4885 115.287916 
L 323.7117 127.323813 
L 323.9349 129.695429 
L 324.1581 116.100685 
L 324.3813 138.849879 
L 324.6045 95.228195 
L 324.8277 105.165457 
L 325.0509 107.291915 
L 325.2741 129.678249 
L 325.4973 127.062375 
L 325.7205 121.060747 
L 325.9437 90.754542 
L 326.3901 177.317456 
L 326.6133 125.918993 
L 326.8365 138.667067 
L 327.0597 109.446113 
L 327.2829 111.492167 
L 327.7293 137.927011 
L 327.9525 91.128987 
L 328.1757 102.99263 
L 328.3989 136.399108 
L 328.6221 93.089197 
L 328.8453 89.106546 
L 329.0685 129.527078 
L 329.2917 121.75601 
L 329.5149 138.862175 
L 329.9613 98.510227 
L 330.1845 112.318245 
L 330.4077 101.360797 
L 330.6309 128.224188 
L 331.0773 116.291119 
L 331.3005 139.423313 
L 331.5237 114.25528 
L 331.7469 105.851674 
L 331.9701 121.763291 
L 332.1933 96.950257 
L 332.8629 122.83109 
L 333.0861 122.771968 
L 333.3093 123.275235 
L 333.5325 140.450294 
L 333.7557 129.778716 
L 333.9789 131.336557 
L 334.2021 140.984288 
L 334.6485 117.004167 
L 334.8717 123.221156 
L 335.0949 152.556149 
L 335.3181 115.068391 
L 335.5413 102.857364 
L 335.7645 105.416716 
L 335.9877 122.960601 
L 336.2109 122.502499 
L 336.4341 108.787049 
L 336.6573 119.449629 
L 336.8805 144.803854 
L 337.1037 129.593063 
L 337.3269 163.663312 
L 337.5501 128.611015 
L 337.7733 112.484327 
L 337.9965 106.975425 
L 338.2197 146.224448 
L 338.6661 119.590659 
L 339.1125 99.968483 
L 339.3357 129.924932 
L 339.5589 134.6655 
L 339.7821 127.263069 
L 340.0053 130.796009 
L 340.2285 147.672036 
L 340.4517 124.564279 
L 340.6749 137.563243 
L 340.8981 131.992527 
L 341.1213 123.584533 
L 341.3445 135.85364 
L 341.7909 103.681308 
L 342.0141 125.664738 
L 342.2373 118.287604 
L 342.4605 130.000067 
L 342.6837 124.747229 
L 343.1301 141.513135 
L 343.3533 117.984003 
L 343.7997 113.881852 
L 344.0229 116.872602 
L 344.2461 146.523776 
L 344.4693 146.665869 
L 344.6925 113.343575 
L 344.9157 119.521789 
L 345.1389 129.851708 
L 345.3621 114.969983 
L 345.5853 136.020035 
L 345.8085 123.288894 
L 346.0317 131.322179 
L 346.2549 97.841337 
L 346.4781 96.919179 
L 347.1477 131.319418 
L 347.3709 125.683404 
L 347.5941 111.957447 
L 347.8173 109.396163 
L 348.0405 112.956177 
L 348.2637 113.216251 
L 348.4869 133.088461 
L 348.7101 137.463383 
L 348.9333 117.097088 
L 349.1565 138.840279 
L 349.3797 111.881911 
L 349.6029 108.918671 
L 349.8261 120.926121 
L 350.0493 141.342467 
L 350.2725 122.484463 
L 350.4957 119.984462 
L 350.7189 131.291037 
L 350.9421 95.737364 
L 351.1653 95.25719 
L 351.3885 138.291221 
L 351.6117 103.566864 
L 351.8349 128.813418 
L 352.0581 175.713227 
L 352.2813 126.061158 
L 352.5045 126.029272 
L 352.7277 121.187559 
L 352.9509 131.255077 
L 353.1741 191.109484 
L 353.3973 110.278837 
L 353.6205 112.027211 
L 353.8437 109.33932 
L 354.2901 150.241035 
L 354.5133 146.043567 
L 354.7365 123.141197 
L 354.9597 123.255159 
L 355.1829 122.025003 
L 355.4061 82.705052 
L 355.6293 138.822013 
L 355.8525 106.868237 
L 356.0757 115.633242 
L 356.2989 111.039029 
L 356.5221 127.541882 
L 356.7453 100.224002 
L 356.9685 144.293574 
L 357.1917 108.889158 
L 357.4149 140.722133 
L 357.6381 127.49531 
L 357.8613 140.826871 
L 358.0845 114.076748 
L 358.3077 133.33131 
L 358.9773 93.344819 
L 359.4237 172.792583 
L 359.6469 102.303086 
L 359.8701 137.893273 
L 360.0933 107.230761 
L 360.3165 111.44358 
L 360.5397 158.436904 
L 360.7629 150.513673 
L 360.9861 121.895915 
L 361.2093 154.863781 
L 361.4325 116.179803 
L 361.6557 106.118771 
L 361.8789 136.063036 
L 362.1021 125.095648 
L 362.3253 106.513884 
L 362.5485 143.834731 
L 362.9949 95.126891 
L 363.2181 91.292287 
L 363.4413 140.20084 
L 363.6645 88.436914 
L 363.8877 106.644247 
L 364.1109 114.012131 
L 364.3341 133.955374 
L 364.5573 105.412423 
L 364.7805 132.623093 
L 365.0037 104.16669 
L 365.2269 142.688849 
L 365.4501 119.032323 
L 365.6733 118.198891 
L 365.8965 114.39731 
L 366.1197 103.222656 
L 366.3429 100.907704 
L 366.7893 153.096972 
L 367.0125 106.819884 
L 367.4589 157.531943 
L 367.6821 122.383496 
L 367.9053 107.567677 
L 368.1285 149.570834 
L 368.3517 108.752195 
L 368.5749 112.415733 
L 368.7981 111.066945 
L 369.0213 123.450844 
L 369.2445 150.508761 
L 369.4677 162.541409 
L 369.6909 112.741388 
L 369.9141 93.41453 
L 370.3605 136.562773 
L 370.5837 97.639915 
L 370.8069 93.066281 
L 371.0301 102.404142 
L 371.2533 173.514789 
L 371.4765 109.659129 
L 371.6997 165.300705 
L 372.1461 131.475182 
L 372.3693 92.94335 
L 372.5925 100.436428 
L 372.8157 113.099238 
L 373.0389 115.316897 
L 373.2621 142.685473 
L 373.4853 117.873787 
L 373.7085 122.888412 
L 373.9317 90.901798 
L 374.1549 135.699302 
L 374.3781 83.042562 
L 374.6013 129.259179 
L 374.8245 118.207208 
L 375.0477 146.191584 
L 375.2709 91.398434 
L 375.4941 91.017248 
L 375.7173 111.766689 
L 375.9405 87.021746 
L 376.1637 136.893788 
L 376.3869 114.830896 
L 376.6101 138.943893 
L 376.8333 118.923274 
L 377.0565 85.361569 
L 377.2797 134.021252 
L 377.5029 104.430672 
L 377.7261 141.831232 
L 377.9493 117.782136 
L 378.1725 114.5031 
L 378.6189 119.914853 
L 378.8421 146.799727 
L 379.5117 82.950583 
L 379.9581 129.596029 
L 380.1813 115.281714 
L 380.4045 237.56812 
L 380.6277 168.296545 
L 380.8509 190.362897 
L 381.0741 169.972318 
L 381.5205 212.374968 
L 381.7437 114.372188 
L 381.9669 98.839095 
L 382.1901 94.253529 
L 382.4133 70.125819 
L 382.8597 129.636246 
L 383.3061 95.476991 
L 383.5293 106.02026 
L 383.7525 101.931046 
L 383.9757 100.678619 
L 384.1989 167.329592 
L 384.4221 122.118706 
L 384.6453 107.069133 
L 384.8685 106.76792 
L 385.0917 126.861758 
L 385.3149 165.140199 
L 385.5381 101.235019 
L 385.7613 107.29686 
L 385.9845 79.411344 
L 386.2077 114.469938 
L 386.4309 100.633783 
L 386.6541 110.448581 
L 386.8773 114.000865 
L 387.1005 120.854659 
L 387.3237 133.378119 
L 387.5469 82.977248 
L 387.7701 102.181658 
L 387.9933 91.434627 
L 388.2165 117.0154 
L 388.4397 86.103594 
L 388.6629 135.550827 
L 388.8861 127.287127 
L 389.1093 86.297476 
L 389.3325 86.124142 
L 389.5557 139.596235 
L 389.7789 131.191442 
L 390.0021 110.72693 
L 390.2253 128.931039 
L 390.4485 135.263294 
L 390.6717 94.302276 
L 390.8949 114.998466 
L 391.1181 120.632428 
L 391.3413 94.897369 
L 391.5645 124.864478 
L 391.7877 88.316983 
L 392.0109 112.901491 
L 392.2341 111.511408 
L 392.4573 84.4049 
L 392.6805 111.830887 
L 392.9037 155.144271 
L 393.1269 121.372551 
L 393.3501 110.0616 
L 393.5733 143.748577 
L 393.7965 82.229215 
L 394.2429 66.007495 
L 394.4661 135.835878 
L 394.9125 104.04098 
L 395.1357 135.613398 
L 395.5821 88.683742 
L 395.8053 149.522839 
L 396.0285 162.83219 
L 396.2517 126.38861 
L 396.4749 170.697191 
L 396.6981 167.3784 
L 396.9213 86.845936 
L 397.3677 120.483641 
L 397.8141 181.374366 
L 398.2605 77.562038 
L 398.4837 85.645518 
L 398.7069 148.573035 
L 398.9301 75.163373 
L 399.1533 157.284593 
L 399.3765 145.710433 
L 399.5997 109.199404 
L 400.0461 82.287461 
L 400.2693 70.524131 
L 400.4925 121.50741 
L 400.7157 111.998896 
L 400.9389 124.587189 
L 401.1621 168.906454 
L 401.3853 93.841696 
L 401.6085 152.260242 
L 401.8317 157.096137 
L 402.0549 115.348874 
L 402.2781 162.78904 
L 402.7245 94.075998 
L 402.9477 130.23993 
L 403.1709 136.378903 
L 403.3941 99.183471 
L 403.6173 94.680373 
L 403.8405 83.095814 
L 404.0637 140.694896 
L 404.2869 97.293697 
L 404.5101 91.060763 
L 404.7333 124.306021 
L 404.9565 110.040923 
L 405.1797 75.535612 
L 405.4029 75.019293 
L 405.6261 124.998388 
L 405.8493 86.350299 
L 406.0725 104.061926 
L 406.2957 97.785739 
L 406.5189 123.38645 
L 406.7421 88.142914 
L 406.9653 91.803276 
L 407.1885 106.796835 
L 407.4117 105.39279 
L 407.6349 128.926778 
L 407.8581 107.722847 
L 408.0813 122.221681 
L 408.3045 106.918841 
L 408.7509 96.57389 
L 408.9741 102.082373 
L 409.4205 66.939664 
L 409.6437 116.357601 
L 409.8669 119.511546 
L 410.0901 69.184968 
L 410.3133 93.679344 
L 410.5365 83.9428 
L 410.7597 101.267386 
L 411.2061 108.140597 
L 411.4293 137.682361 
L 411.6525 121.851604 
L 411.8757 138.698527 
L 412.3221 93.120977 
L 412.5453 93.774224 
L 412.7685 128.19941 
L 412.9917 86.650824 
L 413.4381 107.249376 
L 413.6613 89.730164 
L 414.1077 119.2056 
L 414.5541 87.489479 
L 414.7773 117.202929 
L 415.0005 120.84026 
L 415.2237 110.408023 
L 415.4469 114.720693 
L 415.6701 99.714973 
L 415.8933 92.808239 
L 416.1165 110.552968 
L 416.5629 86.478773 
L 416.7861 90.140454 
L 417.0093 200.654827 
L 417.2325 84.93231 
L 417.4557 91.830945 
L 417.6789 115.938399 
L 417.9021 164.324772 
L 418.1253 109.315231 
L 418.3485 126.152107 
L 418.5717 131.849811 
L 418.7949 74.820101 
L 419.0181 72.674292 
L 419.2413 107.069843 
L 419.4645 89.542347 
L 419.6877 85.920871 
L 419.9109 77.887065 
L 420.1341 62.602864 
L 420.3573 62.507869 
L 420.5805 108.456289 
L 420.8037 85.767295 
L 421.0269 74.457904 
L 421.2501 78.191258 
L 421.4733 90.607343 
L 421.6965 144.151524 
L 422.1429 73.667496 
L 422.3661 111.426714 
L 422.5893 84.662328 
L 422.8125 106.572834 
L 423.0357 109.682837 
L 423.4821 60.042061 
L 423.7053 90.124514 
L 423.9285 61.530819 
L 424.1517 63.106659 
L 424.3749 88.197311 
L 424.8213 85.370527 
L 425.0445 108.653831 
L 425.2677 67.661127 
L 425.4909 73.69777 
L 425.7141 83.140928 
L 425.9373 75.488943 
L 426.1605 85.495533 
L 426.3837 113.432777 
L 426.6069 75.716092 
L 426.8301 57.825975 
L 427.0533 109.558119 
L 427.2765 75.062399 
L 427.4997 60.368109 
L 427.7229 86.300326 
L 427.9461 75.510054 
L 428.1693 58.786011 
L 428.3925 71.726444 
L 428.6157 69.473783 
L 428.8389 119.264857 
L 429.0621 68.357529 
L 429.2853 79.692815 
L 429.5085 79.927428 
L 429.7317 75.155797 
L 429.9549 75.21103 
L 430.1781 111.545422 
L 430.4013 68.862159 
L 430.6245 130.885011 
L 431.0709 58.730045 
L 431.2941 86.14446 
L 431.5173 60.124316 
L 431.7405 55.67863 
L 431.9637 95.378847 
L 432.1869 89.808674 
L 432.4101 107.135846 
L 432.6333 63.9661 
L 432.8565 59.902327 
L 433.0797 69.639048 
L 433.5261 109.018669 
L 433.7493 73.345286 
L 433.9725 60.767938 
L 434.1957 114.712085 
L 434.4189 122.896493 
L 434.6421 109.14316 
L 434.8653 57.743488 
L 435.3117 77.50251 
L 435.5349 65.594973 
L 435.7581 72.463476 
L 435.9813 150.896902 
L 436.2045 95.504347 
L 436.4277 73.182228 
L 436.6509 80.933474 
L 436.8741 80.324762 
L 437.0973 60.751174 
L 437.3205 67.804657 
L 437.5437 59.329223 
L 437.7669 69.087898 
L 437.9901 51.580259 
L 438.4365 66.576529 
L 438.6597 77.33779 
L 438.8829 67.625763 
L 439.1061 72.565496 
L 439.3293 84.309978 
L 439.5525 83.060636 
L 439.7757 87.674492 
L 439.9989 60.267917 
L 440.2221 85.116553 
L 440.4453 62.662172 
L 440.8917 83.903236 
L 441.1149 54.344707 
L 441.3381 81.145433 
L 441.5613 76.415262 
L 441.7845 118.921247 
L 442.0077 88.690636 
L 442.2309 104.367401 
L 442.4541 82.577495 
L 442.6773 84.84474 
L 442.9005 77.371708 
L 443.1237 82.210302 
L 443.3469 105.359605 
L 443.5701 101.512781 
L 443.7933 79.218737 
L 444.2397 95.123404 
L 444.4629 94.332221 
L 444.6861 84.798347 
L 445.1325 79.602869 
L 445.3557 66.476042 
L 445.5789 66.797631 
L 445.8021 74.639737 
L 446.0253 62.541024 
L 446.4717 101.405605 
L 446.6949 80.441711 
L 446.9181 71.474657 
L 447.3645 87.324635 
L 447.5877 90.538099 
L 447.8109 73.334369 
L 448.0341 83.552917 
L 448.2573 77.957774 
L 448.4805 61.833661 
L 448.7037 144.34688 
L 448.9269 100.014962 
L 449.1501 122.451968 
L 449.3733 89.913166 
L 449.5965 122.313812 
L 449.8197 79.758046 
L 450.0429 72.406961 
L 450.2661 69.165212 
L 450.4893 69.15014 
L 450.7125 78.138443 
L 451.1589 60.63853 
L 451.6053 66.403976 
L 451.8285 100.596181 
L 452.0517 67.701725 
L 452.4981 78.666065 
L 452.7213 86.416888 
L 453.1677 67.69955 
L 453.3909 86.973261 
L 453.6141 91.9084 
L 453.8373 82.060259 
L 454.0605 87.183458 
L 454.2837 67.756064 
L 454.5069 77.38485 
L 454.7301 53.572644 
L 455.3997 81.741735 
L 455.6229 81.026169 
L 455.8461 85.692951 
L 456.2925 66.204003 
L 456.5157 68.806771 
L 456.7389 65.548426 
L 456.9621 70.911068 
L 457.1853 61.483986 
L 457.4085 75.472677 
L 457.8549 52.635084 
L 458.0781 64.588735 
L 458.3013 51.452876 
L 458.5245 84.516453 
L 458.9709 48.773138 
L 459.1941 74.624653 
L 459.4173 76.000615 
L 459.6405 66.950626 
L 459.8637 84.80609 
L 460.0869 63.453352 
L 460.3101 152.945547 
L 460.5333 104.328509 
L 460.7565 172.207539 
L 460.9797 69.378414 
L 461.2029 62.77193 
L 461.4261 106.678456 
L 461.6493 87.623095 
L 461.8725 84.376568 
L 462.0957 95.631444 
L 462.3189 58.118714 
L 462.5421 105.174811 
L 462.7653 57.987234 
L 463.2117 82.485091 
L 463.4349 70.18494 
L 463.6581 92.629756 
L 463.8813 152.657963 
L 464.1045 65.403434 
L 464.3277 60.916883 
L 464.5509 63.502467 
L 464.7741 56.962788 
L 464.9973 77.924867 
L 465.2205 80.246624 
L 465.4437 72.78371 
L 465.6669 60.785188 
L 465.8901 58.327336 
L 466.1133 68.159023 
L 466.3365 59.493962 
L 466.5597 140.9844 
L 466.7829 40.492449 
L 467.0061 57.194135 
L 467.2293 36.149607 
L 467.4525 63.084752 
L 467.6757 76.32458 
L 467.8989 49.071254 
L 468.1221 63.082769 
L 468.3453 59.983996 
L 468.5685 47.474031 
L 468.7917 74.466611 
L 469.0149 43.291137 
L 469.2381 74.092588 
L 469.4613 57.171339 
L 469.6845 76.015099 
L 469.9077 67.132839 
L 470.1309 51.862127 
L 470.3541 66.402978 
L 470.5773 52.726198 
L 470.8005 55.570877 
L 471.0237 78.32646 
L 471.2469 46.939031 
L 471.4701 58.831016 
L 471.6933 83.208843 
L 471.9165 78.353125 
L 472.1397 76.203093 
L 472.5861 67.890392 
L 472.8093 66.884349 
L 473.0325 51.636045 
L 473.2557 57.810498 
L 473.4789 53.992226 
L 473.7021 66.500843 
L 473.9253 126.40247 
L 474.1485 60.413168 
L 474.3717 63.317902 
L 474.5949 59.55748 
L 474.8181 39.715843 
L 475.0413 179.285682 
L 475.2645 62.966235 
L 475.4877 64.010794 
L 475.9341 88.613852 
L 476.1573 70.226929 
L 476.3805 93.545525 
L 476.6037 46.807292 
L 476.8269 41.623877 
L 477.0501 47.287645 
L 477.2733 69.713833 
L 477.4965 60.436748 
L 477.7197 80.176355 
L 477.9429 39.005238 
L 478.1661 78.384451 
L 478.6125 45.066062 
L 478.8357 43.415841 
L 479.0589 46.334838 
L 479.2821 31.288852 
L 479.5053 43.107966 
L 479.7285 44.720403 
L 479.9517 65.221275 
L 480.1749 31.454651 
L 480.3981 44.760134 
L 480.6213 84.635847 
L 480.8445 71.455134 
L 481.0677 73.135442 
L 481.2909 72.028234 
L 481.5141 45.503408 
L 481.7373 33.908164 
L 481.9605 34.294577 
L 482.1837 29.830025 
L 482.4069 35.829451 
L 482.6301 34.346577 
L 483.0765 94.563247 
L 483.2997 32.804843 
L 483.7461 91.170733 
L 483.9693 56.730746 
L 484.1925 42.426409 
L 484.4157 50.766215 
L 484.6389 41.722373 
L 484.8621 58.584248 
L 485.0853 31.09499 
L 485.3085 74.539037 
L 485.7549 43.170348 
L 485.9781 51.778138 
L 486.2013 53.461278 
L 486.4245 78.220801 
L 486.6477 45.240203 
L 487.0941 47.905214 
L 487.3173 75.420497 
L 487.5405 43.27388 
L 487.7637 44.025054 
L 487.9869 64.497462 
L 488.2101 31.694243 
L 488.4333 51.783042 
L 488.6565 41.566786 
L 488.8797 50.404121 
L 489.1029 54.26709 
L 489.3261 28.456571 
L 489.5493 35.015904 
L 489.7725 51.169751 
L 489.9957 32.568853 
L 490.2189 66.824542 
L 490.4421 81.6608 
L 490.6653 48.029545 
L 490.8885 43.016702 
L 491.1117 66.508626 
L 491.3349 69.598293 
L 491.5581 76.433188 
L 491.7813 64.593243 
L 492.2277 73.334301 
L 492.4509 42.635503 
L 492.6741 35.639296 
L 492.8973 77.738368 
L 493.1205 41.811216 
L 493.3437 46.550222 
L 493.5669 37.962028 
L 493.7901 46.830461 
L 494.0133 71.788614 
L 494.2365 60.402468 
L 494.4597 35.310709 
L 494.6829 69.491456 
L 494.9061 39.693772 
L 495.1293 43.640294 
L 495.3525 52.742787 
L 495.7989 91.089377 
L 496.0221 35.268699 
L 496.2453 44.38055 
L 496.4685 42.44705 
L 496.6917 60.985908 
L 497.1381 31.155241 
L 497.3613 45.313959 
L 497.5845 76.405725 
L 497.8077 39.424516 
L 498.0309 43.632874 
L 498.2541 61.48504 
L 498.4773 40.870299 
L 498.9237 24.371777 
L 499.1469 50.70501 
L 499.5933 75.817477 
L 499.8165 67.432906 
L 500.0397 34.968365 
L 500.2629 58.247803 
L 500.4861 43.593109 
L 500.7093 61.824618 
L 500.9325 41.752363 
L 500.9325 41.752363 
" style="fill:none;stroke:#0000ff;stroke-linecap:square;stroke-width:0.5;"/>
   </g>
   <g id="patch_3">
    <path d="M 54.5325 23.14175 
L 500.9325 23.14175 
" style="fill:none;stroke:#000000;stroke-linecap:square;stroke-linejoin:miter;"/>
   </g>
   <g id="patch_4">
    <path d="M 54.5325 368.74175 
L 54.5325 23.14175 
" style="fill:none;stroke:#000000;stroke-linecap:square;stroke-linejoin:miter;"/>
   </g>
   <g id="patch_5">
    <path d="M 54.5325 368.74175 
L 500.9325 368.74175 
" style="fill:none;stroke:#000000;stroke-linecap:square;stroke-linejoin:miter;"/>
   </g>
   <g id="patch_6">
    <path d="M 500.9325 368.74175 
L 500.9325 23.14175 
" style="fill:none;stroke:#000000;stroke-linecap:square;stroke-linejoin:miter;"/>
   </g>
   <g id="matplotlib.axis_1">
    <g id="xtick_1">
     <g id="line2d_2">
      <defs>
       <path d="M 0 0 
L 0 -4 
" id="mc29d2ded50" style="stroke:#000000;stroke-width:0.5;"/>
      </defs>
      <g>
       <use style="stroke:#000000;stroke-width:0.5;" x="54.5325" xlink:href="#mc29d2ded50" y="368.74175"/>
      </g>
     </g>
     <g id="line2d_3">
      <defs>
       <path d="M 0 0 
L 0 4 
" id="mf72957b915" style="stroke:#000000;stroke-width:0.5;"/>
      </defs>
      <g>
       <use style="stroke:#000000;stroke-width:0.5;" x="54.5325" xlink:href="#mf72957b915" y="23.14175"/>
      </g>
     </g>
     <g id="text_1">
      <!-- 0 -->
      <defs>
       <path d="M 31.78125 66.40625 
Q 24.171875 66.40625 20.328125 58.90625 
Q 16.5 51.421875 16.5 36.375 
Q 16.5 21.390625 20.328125 13.890625 
Q 24.171875 6.390625 31.78125 6.390625 
Q 39.453125 6.390625 43.28125 13.890625 
Q 47.125 21.390625 47.125 36.375 
Q 47.125 51.421875 43.28125 58.90625 
Q 39.453125 66.40625 31.78125 66.40625 
M 31.78125 74.21875 
Q 44.046875 74.21875 50.515625 64.515625 
Q 56.984375 54.828125 56.984375 36.375 
Q 56.984375 17.96875 50.515625 8.265625 
Q 44.046875 -1.421875 31.78125 -1.421875 
Q 19.53125 -1.421875 13.0625 8.265625 
Q 6.59375 17.96875 6.59375 36.375 
Q 6.59375 54.828125 13.0625 64.515625 
Q 19.53125 74.21875 31.78125 74.21875 
" id="BitstreamVeraSans-Roman-30"/>
      </defs>
      <g transform="translate(50.715 381.859875)scale(0.12 -0.12)">
       <use xlink:href="#BitstreamVeraSans-Roman-30"/>
      </g>
     </g>
    </g>
    <g id="xtick_2">
     <g id="line2d_4">
      <g>
       <use style="stroke:#000000;stroke-width:0.5;" x="166.1325" xlink:href="#mc29d2ded50" y="368.74175"/>
      </g>
     </g>
     <g id="line2d_5">
      <g>
       <use style="stroke:#000000;stroke-width:0.5;" x="166.1325" xlink:href="#mf72957b915" y="23.14175"/>
      </g>
     </g>
     <g id="text_2">
      <!-- 500 -->
      <defs>
       <path d="M 10.796875 72.90625 
L 49.515625 72.90625 
L 49.515625 64.59375 
L 19.828125 64.59375 
L 19.828125 46.734375 
Q 21.96875 47.46875 24.109375 47.828125 
Q 26.265625 48.1875 28.421875 48.1875 
Q 40.625 48.1875 47.75 41.5 
Q 54.890625 34.8125 54.890625 23.390625 
Q 54.890625 11.625 47.5625 5.09375 
Q 40.234375 -1.421875 26.90625 -1.421875 
Q 22.3125 -1.421875 17.546875 -0.640625 
Q 12.796875 0.140625 7.71875 1.703125 
L 7.71875 11.625 
Q 12.109375 9.234375 16.796875 8.0625 
Q 21.484375 6.890625 26.703125 6.890625 
Q 35.15625 6.890625 40.078125 11.328125 
Q 45.015625 15.765625 45.015625 23.390625 
Q 45.015625 31 40.078125 35.4375 
Q 35.15625 39.890625 26.703125 39.890625 
Q 22.75 39.890625 18.8125 39.015625 
Q 14.890625 38.140625 10.796875 36.28125 
z
" id="BitstreamVeraSans-Roman-35"/>
      </defs>
      <g transform="translate(154.68 381.859875)scale(0.12 -0.12)">
       <use xlink:href="#BitstreamVeraSans-Roman-35"/>
       <use x="63.623046875" xlink:href="#BitstreamVeraSans-Roman-30"/>
       <use x="127.24609375" xlink:href="#BitstreamVeraSans-Roman-30"/>
      </g>
     </g>
    </g>
    <g id="xtick_3">
     <g id="line2d_6">
      <g>
       <use style="stroke:#000000;stroke-width:0.5;" x="277.7325" xlink:href="#mc29d2ded50" y="368.74175"/>
      </g>
     </g>
     <g id="line2d_7">
      <g>
       <use style="stroke:#000000;stroke-width:0.5;" x="277.7325" xlink:href="#mf72957b915" y="23.14175"/>
      </g>
     </g>
     <g id="text_3">
      <!-- 1000 -->
      <defs>
       <path d="M 12.40625 8.296875 
L 28.515625 8.296875 
L 28.515625 63.921875 
L 10.984375 60.40625 
L 10.984375 69.390625 
L 28.421875 72.90625 
L 38.28125 72.90625 
L 38.28125 8.296875 
L 54.390625 8.296875 
L 54.390625 0 
L 12.40625 0 
z
" id="BitstreamVeraSans-Roman-31"/>
      </defs>
      <g transform="translate(262.4625 381.859875)scale(0.12 -0.12)">
       <use xlink:href="#BitstreamVeraSans-Roman-31"/>
       <use x="63.623046875" xlink:href="#BitstreamVeraSans-Roman-30"/>
       <use x="127.24609375" xlink:href="#BitstreamVeraSans-Roman-30"/>
       <use x="190.869140625" xlink:href="#BitstreamVeraSans-Roman-30"/>
      </g>
     </g>
    </g>
    <g id="xtick_4">
     <g id="line2d_8">
      <g>
       <use style="stroke:#000000;stroke-width:0.5;" x="389.3325" xlink:href="#mc29d2ded50" y="368.74175"/>
      </g>
     </g>
     <g id="line2d_9">
      <g>
       <use style="stroke:#000000;stroke-width:0.5;" x="389.3325" xlink:href="#mf72957b915" y="23.14175"/>
      </g>
     </g>
     <g id="text_4">
      <!-- 1500 -->
      <g transform="translate(374.0625 381.859875)scale(0.12 -0.12)">
       <use xlink:href="#BitstreamVeraSans-Roman-31"/>
       <use x="63.623046875" xlink:href="#BitstreamVeraSans-Roman-35"/>
       <use x="127.24609375" xlink:href="#BitstreamVeraSans-Roman-30"/>
       <use x="190.869140625" xlink:href="#BitstreamVeraSans-Roman-30"/>
      </g>
     </g>
    </g>
    <g id="xtick_5">
     <g id="line2d_10">
      <g>
       <use style="stroke:#000000;stroke-width:0.5;" x="500.9325" xlink:href="#mc29d2ded50" y="368.74175"/>
      </g>
     </g>
     <g id="line2d_11">
      <g>
       <use style="stroke:#000000;stroke-width:0.5;" x="500.9325" xlink:href="#mf72957b915" y="23.14175"/>
      </g>
     </g>
     <g id="text_5">
      <!-- 2000 -->
      <defs>
       <path d="M 19.1875 8.296875 
L 53.609375 8.296875 
L 53.609375 0 
L 7.328125 0 
L 7.328125 8.296875 
Q 12.9375 14.109375 22.625 23.890625 
Q 32.328125 33.6875 34.8125 36.53125 
Q 39.546875 41.84375 41.421875 45.53125 
Q 43.3125 49.21875 43.3125 52.78125 
Q 43.3125 58.59375 39.234375 62.25 
Q 35.15625 65.921875 28.609375 65.921875 
Q 23.96875 65.921875 18.8125 64.3125 
Q 13.671875 62.703125 7.8125 59.421875 
L 7.8125 69.390625 
Q 13.765625 71.78125 18.9375 73 
Q 24.125 74.21875 28.421875 74.21875 
Q 39.75 74.21875 46.484375 68.546875 
Q 53.21875 62.890625 53.21875 53.421875 
Q 53.21875 48.921875 51.53125 44.890625 
Q 49.859375 40.875 45.40625 35.40625 
Q 44.1875 33.984375 37.640625 27.21875 
Q 31.109375 20.453125 19.1875 8.296875 
" id="BitstreamVeraSans-Roman-32"/>
      </defs>
      <g transform="translate(485.6625 381.859875)scale(0.12 -0.12)">
       <use xlink:href="#BitstreamVeraSans-Roman-32"/>
       <use x="63.623046875" xlink:href="#BitstreamVeraSans-Roman-30"/>
       <use x="127.24609375" xlink:href="#BitstreamVeraSans-Roman-30"/>
       <use x="190.869140625" xlink:href="#BitstreamVeraSans-Roman-30"/>
      </g>
     </g>
    </g>
    <g id="text_6">
     <!-- episode -->
     <defs>
      <path d="M 18.109375 8.203125 
L 18.109375 -20.796875 
L 9.078125 -20.796875 
L 9.078125 54.6875 
L 18.109375 54.6875 
L 18.109375 46.390625 
Q 20.953125 51.265625 25.265625 53.625 
Q 29.59375 56 35.59375 56 
Q 45.5625 56 51.78125 48.09375 
Q 58.015625 40.1875 58.015625 27.296875 
Q 58.015625 14.40625 51.78125 6.484375 
Q 45.5625 -1.421875 35.59375 -1.421875 
Q 29.59375 -1.421875 25.265625 0.953125 
Q 20.953125 3.328125 18.109375 8.203125 
M 48.6875 27.296875 
Q 48.6875 37.203125 44.609375 42.84375 
Q 40.53125 48.484375 33.40625 48.484375 
Q 26.265625 48.484375 22.1875 42.84375 
Q 18.109375 37.203125 18.109375 27.296875 
Q 18.109375 17.390625 22.1875 11.75 
Q 26.265625 6.109375 33.40625 6.109375 
Q 40.53125 6.109375 44.609375 11.75 
Q 48.6875 17.390625 48.6875 27.296875 
" id="BitstreamVeraSans-Roman-70"/>
      <path d="M 9.421875 54.6875 
L 18.40625 54.6875 
L 18.40625 0 
L 9.421875 0 
z
M 9.421875 75.984375 
L 18.40625 75.984375 
L 18.40625 64.59375 
L 9.421875 64.59375 
z
" id="BitstreamVeraSans-Roman-69"/>
      <path d="M 45.40625 46.390625 
L 45.40625 75.984375 
L 54.390625 75.984375 
L 54.390625 0 
L 45.40625 0 
L 45.40625 8.203125 
Q 42.578125 3.328125 38.25 0.953125 
Q 33.9375 -1.421875 27.875 -1.421875 
Q 17.96875 -1.421875 11.734375 6.484375 
Q 5.515625 14.40625 5.515625 27.296875 
Q 5.515625 40.1875 11.734375 48.09375 
Q 17.96875 56 27.875 56 
Q 33.9375 56 38.25 53.625 
Q 42.578125 51.265625 45.40625 46.390625 
M 14.796875 27.296875 
Q 14.796875 17.390625 18.875 11.75 
Q 22.953125 6.109375 30.078125 6.109375 
Q 37.203125 6.109375 41.296875 11.75 
Q 45.40625 17.390625 45.40625 27.296875 
Q 45.40625 37.203125 41.296875 42.84375 
Q 37.203125 48.484375 30.078125 48.484375 
Q 22.953125 48.484375 18.875 42.84375 
Q 14.796875 37.203125 14.796875 27.296875 
" id="BitstreamVeraSans-Roman-64"/>
      <path d="M 30.609375 48.390625 
Q 23.390625 48.390625 19.1875 42.75 
Q 14.984375 37.109375 14.984375 27.296875 
Q 14.984375 17.484375 19.15625 11.84375 
Q 23.34375 6.203125 30.609375 6.203125 
Q 37.796875 6.203125 41.984375 11.859375 
Q 46.1875 17.53125 46.1875 27.296875 
Q 46.1875 37.015625 41.984375 42.703125 
Q 37.796875 48.390625 30.609375 48.390625 
M 30.609375 56 
Q 42.328125 56 49.015625 48.375 
Q 55.71875 40.765625 55.71875 27.296875 
Q 55.71875 13.875 49.015625 6.21875 
Q 42.328125 -1.421875 30.609375 -1.421875 
Q 18.84375 -1.421875 12.171875 6.21875 
Q 5.515625 13.875 5.515625 27.296875 
Q 5.515625 40.765625 12.171875 48.375 
Q 18.84375 56 30.609375 56 
" id="BitstreamVeraSans-Roman-6f"/>
      <path d="M 56.203125 29.59375 
L 56.203125 25.203125 
L 14.890625 25.203125 
Q 15.484375 15.921875 20.484375 11.0625 
Q 25.484375 6.203125 34.421875 6.203125 
Q 39.59375 6.203125 44.453125 7.46875 
Q 49.3125 8.734375 54.109375 11.28125 
L 54.109375 2.78125 
Q 49.265625 0.734375 44.1875 -0.34375 
Q 39.109375 -1.421875 33.890625 -1.421875 
Q 20.796875 -1.421875 13.15625 6.1875 
Q 5.515625 13.8125 5.515625 26.8125 
Q 5.515625 40.234375 12.765625 48.109375 
Q 20.015625 56 32.328125 56 
Q 43.359375 56 49.78125 48.890625 
Q 56.203125 41.796875 56.203125 29.59375 
M 47.21875 32.234375 
Q 47.125 39.59375 43.09375 43.984375 
Q 39.0625 48.390625 32.421875 48.390625 
Q 24.90625 48.390625 20.390625 44.140625 
Q 15.875 39.890625 15.1875 32.171875 
z
" id="BitstreamVeraSans-Roman-65"/>
      <path d="M 44.28125 53.078125 
L 44.28125 44.578125 
Q 40.484375 46.53125 36.375 47.5 
Q 32.28125 48.484375 27.875 48.484375 
Q 21.1875 48.484375 17.84375 46.4375 
Q 14.5 44.390625 14.5 40.28125 
Q 14.5 37.15625 16.890625 35.375 
Q 19.28125 33.59375 26.515625 31.984375 
L 29.59375 31.296875 
Q 39.15625 29.25 43.1875 25.515625 
Q 47.21875 21.78125 47.21875 15.09375 
Q 47.21875 7.46875 41.1875 3.015625 
Q 35.15625 -1.421875 24.609375 -1.421875 
Q 20.21875 -1.421875 15.453125 -0.5625 
Q 10.6875 0.296875 5.421875 2 
L 5.421875 11.28125 
Q 10.40625 8.6875 15.234375 7.390625 
Q 20.0625 6.109375 24.8125 6.109375 
Q 31.15625 6.109375 34.5625 8.28125 
Q 37.984375 10.453125 37.984375 14.40625 
Q 37.984375 18.0625 35.515625 20.015625 
Q 33.0625 21.96875 24.703125 23.78125 
L 21.578125 24.515625 
Q 13.234375 26.265625 9.515625 29.90625 
Q 5.8125 33.546875 5.8125 39.890625 
Q 5.8125 47.609375 11.28125 51.796875 
Q 16.75 56 26.8125 56 
Q 31.78125 56 36.171875 55.265625 
Q 40.578125 54.546875 44.28125 53.078125 
" id="BitstreamVeraSans-Roman-73"/>
     </defs>
     <g transform="translate(254.266875 398.473625)scale(0.12 -0.12)">
      <use xlink:href="#BitstreamVeraSans-Roman-65"/>
      <use x="61.5234375" xlink:href="#BitstreamVeraSans-Roman-70"/>
      <use x="125.0" xlink:href="#BitstreamVeraSans-Roman-69"/>
      <use x="152.783203125" xlink:href="#BitstreamVeraSans-Roman-73"/>
      <use x="204.8828125" xlink:href="#BitstreamVeraSans-Roman-6f"/>
      <use x="266.064453125" xlink:href="#BitstreamVeraSans-Roman-64"/>
      <use x="329.541015625" xlink:href="#BitstreamVeraSans-Roman-65"/>
     </g>
    </g>
   </g>
   <g id="matplotlib.axis_2">
    <g id="ytick_1">
     <g id="line2d_12">
      <defs>
       <path d="M 0 0 
L 4 0 
" id="m7399b31913" style="stroke:#000000;stroke-width:0.5;"/>
      </defs>
      <g>
       <use style="stroke:#000000;stroke-width:0.5;" x="54.5325" xlink:href="#m7399b31913" y="368.74175"/>
      </g>
     </g>
     <g id="line2d_13">
      <defs>
       <path d="M 0 0 
L -4 0 
" id="mdacb49b415" style="stroke:#000000;stroke-width:0.5;"/>
      </defs>
      <g>
       <use style="stroke:#000000;stroke-width:0.5;" x="500.9325" xlink:href="#mdacb49b415" y="368.74175"/>
      </g>
     </g>
     <g id="text_7">
      <!-- 0.15 -->
      <defs>
       <path d="M 10.6875 12.40625 
L 21 12.40625 
L 21 0 
L 10.6875 0 
z
" id="BitstreamVeraSans-Roman-2e"/>
      </defs>
      <g transform="translate(23.81375 372.053)scale(0.12 -0.12)">
       <use xlink:href="#BitstreamVeraSans-Roman-30"/>
       <use x="63.623046875" xlink:href="#BitstreamVeraSans-Roman-2e"/>
       <use x="95.41015625" xlink:href="#BitstreamVeraSans-Roman-31"/>
       <use x="159.033203125" xlink:href="#BitstreamVeraSans-Roman-35"/>
      </g>
     </g>
    </g>
    <g id="ytick_2">
     <g id="line2d_14">
      <g>
       <use style="stroke:#000000;stroke-width:0.5;" x="54.5325" xlink:href="#m7399b31913" y="319.370321429"/>
      </g>
     </g>
     <g id="line2d_15">
      <g>
       <use style="stroke:#000000;stroke-width:0.5;" x="500.9325" xlink:href="#mdacb49b415" y="319.370321429"/>
      </g>
     </g>
     <g id="text_8">
      <!-- 0.20 -->
      <g transform="translate(23.81375 322.681571429)scale(0.12 -0.12)">
       <use xlink:href="#BitstreamVeraSans-Roman-30"/>
       <use x="63.623046875" xlink:href="#BitstreamVeraSans-Roman-2e"/>
       <use x="95.41015625" xlink:href="#BitstreamVeraSans-Roman-32"/>
       <use x="159.033203125" xlink:href="#BitstreamVeraSans-Roman-30"/>
      </g>
     </g>
    </g>
    <g id="ytick_3">
     <g id="line2d_16">
      <g>
       <use style="stroke:#000000;stroke-width:0.5;" x="54.5325" xlink:href="#m7399b31913" y="269.998892857"/>
      </g>
     </g>
     <g id="line2d_17">
      <g>
       <use style="stroke:#000000;stroke-width:0.5;" x="500.9325" xlink:href="#mdacb49b415" y="269.998892857"/>
      </g>
     </g>
     <g id="text_9">
      <!-- 0.25 -->
      <g transform="translate(23.81375 273.310142857)scale(0.12 -0.12)">
       <use xlink:href="#BitstreamVeraSans-Roman-30"/>
       <use x="63.623046875" xlink:href="#BitstreamVeraSans-Roman-2e"/>
       <use x="95.41015625" xlink:href="#BitstreamVeraSans-Roman-32"/>
       <use x="159.033203125" xlink:href="#BitstreamVeraSans-Roman-35"/>
      </g>
     </g>
    </g>
    <g id="ytick_4">
     <g id="line2d_18">
      <g>
       <use style="stroke:#000000;stroke-width:0.5;" x="54.5325" xlink:href="#m7399b31913" y="220.627464286"/>
      </g>
     </g>
     <g id="line2d_19">
      <g>
       <use style="stroke:#000000;stroke-width:0.5;" x="500.9325" xlink:href="#mdacb49b415" y="220.627464286"/>
      </g>
     </g>
     <g id="text_10">
      <!-- 0.30 -->
      <defs>
       <path d="M 40.578125 39.3125 
Q 47.65625 37.796875 51.625 33 
Q 55.609375 28.21875 55.609375 21.1875 
Q 55.609375 10.40625 48.1875 4.484375 
Q 40.765625 -1.421875 27.09375 -1.421875 
Q 22.515625 -1.421875 17.65625 -0.515625 
Q 12.796875 0.390625 7.625 2.203125 
L 7.625 11.71875 
Q 11.71875 9.328125 16.59375 8.109375 
Q 21.484375 6.890625 26.8125 6.890625 
Q 36.078125 6.890625 40.9375 10.546875 
Q 45.796875 14.203125 45.796875 21.1875 
Q 45.796875 27.640625 41.28125 31.265625 
Q 36.765625 34.90625 28.71875 34.90625 
L 20.21875 34.90625 
L 20.21875 43.015625 
L 29.109375 43.015625 
Q 36.375 43.015625 40.234375 45.921875 
Q 44.09375 48.828125 44.09375 54.296875 
Q 44.09375 59.90625 40.109375 62.90625 
Q 36.140625 65.921875 28.71875 65.921875 
Q 24.65625 65.921875 20.015625 65.03125 
Q 15.375 64.15625 9.8125 62.3125 
L 9.8125 71.09375 
Q 15.4375 72.65625 20.34375 73.4375 
Q 25.25 74.21875 29.59375 74.21875 
Q 40.828125 74.21875 47.359375 69.109375 
Q 53.90625 64.015625 53.90625 55.328125 
Q 53.90625 49.265625 50.4375 45.09375 
Q 46.96875 40.921875 40.578125 39.3125 
" id="BitstreamVeraSans-Roman-33"/>
      </defs>
      <g transform="translate(23.81375 223.938714286)scale(0.12 -0.12)">
       <use xlink:href="#BitstreamVeraSans-Roman-30"/>
       <use x="63.623046875" xlink:href="#BitstreamVeraSans-Roman-2e"/>
       <use x="95.41015625" xlink:href="#BitstreamVeraSans-Roman-33"/>
       <use x="159.033203125" xlink:href="#BitstreamVeraSans-Roman-30"/>
      </g>
     </g>
    </g>
    <g id="ytick_5">
     <g id="line2d_20">
      <g>
       <use style="stroke:#000000;stroke-width:0.5;" x="54.5325" xlink:href="#m7399b31913" y="171.256035714"/>
      </g>
     </g>
     <g id="line2d_21">
      <g>
       <use style="stroke:#000000;stroke-width:0.5;" x="500.9325" xlink:href="#mdacb49b415" y="171.256035714"/>
      </g>
     </g>
     <g id="text_11">
      <!-- 0.35 -->
      <g transform="translate(23.81375 174.567285714)scale(0.12 -0.12)">
       <use xlink:href="#BitstreamVeraSans-Roman-30"/>
       <use x="63.623046875" xlink:href="#BitstreamVeraSans-Roman-2e"/>
       <use x="95.41015625" xlink:href="#BitstreamVeraSans-Roman-33"/>
       <use x="159.033203125" xlink:href="#BitstreamVeraSans-Roman-35"/>
      </g>
     </g>
    </g>
    <g id="ytick_6">
     <g id="line2d_22">
      <g>
       <use style="stroke:#000000;stroke-width:0.5;" x="54.5325" xlink:href="#m7399b31913" y="121.884607143"/>
      </g>
     </g>
     <g id="line2d_23">
      <g>
       <use style="stroke:#000000;stroke-width:0.5;" x="500.9325" xlink:href="#mdacb49b415" y="121.884607143"/>
      </g>
     </g>
     <g id="text_12">
      <!-- 0.40 -->
      <defs>
       <path d="M 37.796875 64.3125 
L 12.890625 25.390625 
L 37.796875 25.390625 
z
M 35.203125 72.90625 
L 47.609375 72.90625 
L 47.609375 25.390625 
L 58.015625 25.390625 
L 58.015625 17.1875 
L 47.609375 17.1875 
L 47.609375 0 
L 37.796875 0 
L 37.796875 17.1875 
L 4.890625 17.1875 
L 4.890625 26.703125 
z
" id="BitstreamVeraSans-Roman-34"/>
      </defs>
      <g transform="translate(23.81375 125.195857143)scale(0.12 -0.12)">
       <use xlink:href="#BitstreamVeraSans-Roman-30"/>
       <use x="63.623046875" xlink:href="#BitstreamVeraSans-Roman-2e"/>
       <use x="95.41015625" xlink:href="#BitstreamVeraSans-Roman-34"/>
       <use x="159.033203125" xlink:href="#BitstreamVeraSans-Roman-30"/>
      </g>
     </g>
    </g>
    <g id="ytick_7">
     <g id="line2d_24">
      <g>
       <use style="stroke:#000000;stroke-width:0.5;" x="54.5325" xlink:href="#m7399b31913" y="72.5131785714"/>
      </g>
     </g>
     <g id="line2d_25">
      <g>
       <use style="stroke:#000000;stroke-width:0.5;" x="500.9325" xlink:href="#mdacb49b415" y="72.5131785714"/>
      </g>
     </g>
     <g id="text_13">
      <!-- 0.45 -->
      <g transform="translate(23.81375 75.8244285714)scale(0.12 -0.12)">
       <use xlink:href="#BitstreamVeraSans-Roman-30"/>
       <use x="63.623046875" xlink:href="#BitstreamVeraSans-Roman-2e"/>
       <use x="95.41015625" xlink:href="#BitstreamVeraSans-Roman-34"/>
       <use x="159.033203125" xlink:href="#BitstreamVeraSans-Roman-35"/>
      </g>
     </g>
    </g>
    <g id="ytick_8">
     <g id="line2d_26">
      <g>
       <use style="stroke:#000000;stroke-width:0.5;" x="54.5325" xlink:href="#m7399b31913" y="23.14175"/>
      </g>
     </g>
     <g id="line2d_27">
      <g>
       <use style="stroke:#000000;stroke-width:0.5;" x="500.9325" xlink:href="#mdacb49b415" y="23.14175"/>
      </g>
     </g>
     <g id="text_14">
      <!-- 0.50 -->
      <g transform="translate(23.81375 26.453)scale(0.12 -0.12)">
       <use xlink:href="#BitstreamVeraSans-Roman-30"/>
       <use x="63.623046875" xlink:href="#BitstreamVeraSans-Roman-2e"/>
       <use x="95.41015625" xlink:href="#BitstreamVeraSans-Roman-35"/>
       <use x="159.033203125" xlink:href="#BitstreamVeraSans-Roman-30"/>
      </g>
     </g>
    </g>
    <g id="text_15">
     <!-- average maxQ -->
     <defs>
      <path d="M 54.890625 54.6875 
L 35.109375 28.078125 
L 55.90625 0 
L 45.3125 0 
L 29.390625 21.484375 
L 13.484375 0 
L 2.875 0 
L 24.125 28.609375 
L 4.6875 54.6875 
L 15.28125 54.6875 
L 29.78125 35.203125 
L 44.28125 54.6875 
z
" id="BitstreamVeraSans-Roman-78"/>
      <path d="M 39.40625 66.21875 
Q 28.65625 66.21875 22.328125 58.203125 
Q 16.015625 50.203125 16.015625 36.375 
Q 16.015625 22.609375 22.328125 14.59375 
Q 28.65625 6.59375 39.40625 6.59375 
Q 50.140625 6.59375 56.421875 14.59375 
Q 62.703125 22.609375 62.703125 36.375 
Q 62.703125 50.203125 56.421875 58.203125 
Q 50.140625 66.21875 39.40625 66.21875 
M 53.21875 1.3125 
L 66.21875 -12.890625 
L 54.296875 -12.890625 
L 43.5 -1.21875 
Q 41.890625 -1.3125 41.03125 -1.359375 
Q 40.1875 -1.421875 39.40625 -1.421875 
Q 24.03125 -1.421875 14.8125 8.859375 
Q 5.609375 19.140625 5.609375 36.375 
Q 5.609375 53.65625 14.8125 63.9375 
Q 24.03125 74.21875 39.40625 74.21875 
Q 54.734375 74.21875 63.90625 63.9375 
Q 73.09375 53.65625 73.09375 36.375 
Q 73.09375 23.6875 67.984375 14.640625 
Q 62.890625 5.609375 53.21875 1.3125 
" id="BitstreamVeraSans-Roman-51"/>
      <path d="M 52 44.1875 
Q 55.375 50.25 60.0625 53.125 
Q 64.75 56 71.09375 56 
Q 79.640625 56 84.28125 50.015625 
Q 88.921875 44.046875 88.921875 33.015625 
L 88.921875 0 
L 79.890625 0 
L 79.890625 32.71875 
Q 79.890625 40.578125 77.09375 44.375 
Q 74.3125 48.1875 68.609375 48.1875 
Q 61.625 48.1875 57.5625 43.546875 
Q 53.515625 38.921875 53.515625 30.90625 
L 53.515625 0 
L 44.484375 0 
L 44.484375 32.71875 
Q 44.484375 40.625 41.703125 44.40625 
Q 38.921875 48.1875 33.109375 48.1875 
Q 26.21875 48.1875 22.15625 43.53125 
Q 18.109375 38.875 18.109375 30.90625 
L 18.109375 0 
L 9.078125 0 
L 9.078125 54.6875 
L 18.109375 54.6875 
L 18.109375 46.1875 
Q 21.1875 51.21875 25.484375 53.609375 
Q 29.78125 56 35.6875 56 
Q 41.65625 56 45.828125 52.96875 
Q 50 49.953125 52 44.1875 
" id="BitstreamVeraSans-Roman-6d"/>
      <path d="M 34.28125 27.484375 
Q 23.390625 27.484375 19.1875 25 
Q 14.984375 22.515625 14.984375 16.5 
Q 14.984375 11.71875 18.140625 8.90625 
Q 21.296875 6.109375 26.703125 6.109375 
Q 34.1875 6.109375 38.703125 11.40625 
Q 43.21875 16.703125 43.21875 25.484375 
L 43.21875 27.484375 
z
M 52.203125 31.203125 
L 52.203125 0 
L 43.21875 0 
L 43.21875 8.296875 
Q 40.140625 3.328125 35.546875 0.953125 
Q 30.953125 -1.421875 24.3125 -1.421875 
Q 15.921875 -1.421875 10.953125 3.296875 
Q 6 8.015625 6 15.921875 
Q 6 25.140625 12.171875 29.828125 
Q 18.359375 34.515625 30.609375 34.515625 
L 43.21875 34.515625 
L 43.21875 35.40625 
Q 43.21875 41.609375 39.140625 45 
Q 35.0625 48.390625 27.6875 48.390625 
Q 23 48.390625 18.546875 47.265625 
Q 14.109375 46.140625 10.015625 43.890625 
L 10.015625 52.203125 
Q 14.9375 54.109375 19.578125 55.046875 
Q 24.21875 56 28.609375 56 
Q 40.484375 56 46.34375 49.84375 
Q 52.203125 43.703125 52.203125 31.203125 
" id="BitstreamVeraSans-Roman-61"/>
      <path id="BitstreamVeraSans-Roman-20"/>
      <path d="M 41.109375 46.296875 
Q 39.59375 47.171875 37.8125 47.578125 
Q 36.03125 48 33.890625 48 
Q 26.265625 48 22.1875 43.046875 
Q 18.109375 38.09375 18.109375 28.8125 
L 18.109375 0 
L 9.078125 0 
L 9.078125 54.6875 
L 18.109375 54.6875 
L 18.109375 46.1875 
Q 20.953125 51.171875 25.484375 53.578125 
Q 30.03125 56 36.53125 56 
Q 37.453125 56 38.578125 55.875 
Q 39.703125 55.765625 41.0625 55.515625 
z
" id="BitstreamVeraSans-Roman-72"/>
      <path d="M 2.984375 54.6875 
L 12.5 54.6875 
L 29.59375 8.796875 
L 46.6875 54.6875 
L 56.203125 54.6875 
L 35.6875 0 
L 23.484375 0 
z
" id="BitstreamVeraSans-Roman-76"/>
      <path d="M 45.40625 27.984375 
Q 45.40625 37.75 41.375 43.109375 
Q 37.359375 48.484375 30.078125 48.484375 
Q 22.859375 48.484375 18.828125 43.109375 
Q 14.796875 37.75 14.796875 27.984375 
Q 14.796875 18.265625 18.828125 12.890625 
Q 22.859375 7.515625 30.078125 7.515625 
Q 37.359375 7.515625 41.375 12.890625 
Q 45.40625 18.265625 45.40625 27.984375 
M 54.390625 6.78125 
Q 54.390625 -7.171875 48.1875 -13.984375 
Q 42 -20.796875 29.203125 -20.796875 
Q 24.46875 -20.796875 20.265625 -20.09375 
Q 16.0625 -19.390625 12.109375 -17.921875 
L 12.109375 -9.1875 
Q 16.0625 -11.328125 19.921875 -12.34375 
Q 23.78125 -13.375 27.78125 -13.375 
Q 36.625 -13.375 41.015625 -8.765625 
Q 45.40625 -4.15625 45.40625 5.171875 
L 45.40625 9.625 
Q 42.625 4.78125 38.28125 2.390625 
Q 33.9375 0 27.875 0 
Q 17.828125 0 11.671875 7.65625 
Q 5.515625 15.328125 5.515625 27.984375 
Q 5.515625 40.671875 11.671875 48.328125 
Q 17.828125 56 27.875 56 
Q 33.9375 56 38.28125 53.609375 
Q 42.625 51.21875 45.40625 46.390625 
L 45.40625 54.6875 
L 54.390625 54.6875 
z
" id="BitstreamVeraSans-Roman-67"/>
     </defs>
     <g transform="translate(16.318125 240.208625)rotate(-90.0)scale(0.12 -0.12)">
      <use xlink:href="#BitstreamVeraSans-Roman-61"/>
      <use x="61.279296875" xlink:href="#BitstreamVeraSans-Roman-76"/>
      <use x="120.458984375" xlink:href="#BitstreamVeraSans-Roman-65"/>
      <use x="181.982421875" xlink:href="#BitstreamVeraSans-Roman-72"/>
      <use x="223.095703125" xlink:href="#BitstreamVeraSans-Roman-61"/>
      <use x="284.375" xlink:href="#BitstreamVeraSans-Roman-67"/>
      <use x="347.8515625" xlink:href="#BitstreamVeraSans-Roman-65"/>
      <use x="409.375" xlink:href="#BitstreamVeraSans-Roman-20"/>
      <use x="441.162109375" xlink:href="#BitstreamVeraSans-Roman-6d"/>
      <use x="538.57421875" xlink:href="#BitstreamVeraSans-Roman-61"/>
      <use x="599.853515625" xlink:href="#BitstreamVeraSans-Roman-78"/>
      <use x="659.033203125" xlink:href="#BitstreamVeraSans-Roman-51"/>
     </g>
    </g>
   </g>
   <g id="text_16">
    <!-- Average maxQ per episode, joint4 -->
    <defs>
     <path d="M 54.890625 33.015625 
L 54.890625 0 
L 45.90625 0 
L 45.90625 32.71875 
Q 45.90625 40.484375 42.875 44.328125 
Q 39.84375 48.1875 33.796875 48.1875 
Q 26.515625 48.1875 22.3125 43.546875 
Q 18.109375 38.921875 18.109375 30.90625 
L 18.109375 0 
L 9.078125 0 
L 9.078125 54.6875 
L 18.109375 54.6875 
L 18.109375 46.1875 
Q 21.34375 51.125 25.703125 53.5625 
Q 30.078125 56 35.796875 56 
Q 45.21875 56 50.046875 50.171875 
Q 54.890625 44.34375 54.890625 33.015625 
" id="BitstreamVeraSans-Roman-6e"/>
     <path d="M 18.3125 70.21875 
L 18.3125 54.6875 
L 36.8125 54.6875 
L 36.8125 47.703125 
L 18.3125 47.703125 
L 18.3125 18.015625 
Q 18.3125 11.328125 20.140625 9.421875 
Q 21.96875 7.515625 27.59375 7.515625 
L 36.8125 7.515625 
L 36.8125 0 
L 27.59375 0 
Q 17.1875 0 13.234375 3.875 
Q 9.28125 7.765625 9.28125 18.015625 
L 9.28125 47.703125 
L 2.6875 47.703125 
L 2.6875 54.6875 
L 9.28125 54.6875 
L 9.28125 70.21875 
z
" id="BitstreamVeraSans-Roman-74"/>
     <path d="M 11.71875 12.40625 
L 22.015625 12.40625 
L 22.015625 4 
L 14.015625 -11.625 
L 7.71875 -11.625 
L 11.71875 4 
z
" id="BitstreamVeraSans-Roman-2c"/>
     <path d="M 34.1875 63.1875 
L 20.796875 26.90625 
L 47.609375 26.90625 
z
M 28.609375 72.90625 
L 39.796875 72.90625 
L 67.578125 0 
L 57.328125 0 
L 50.6875 18.703125 
L 17.828125 18.703125 
L 11.1875 0 
L 0.78125 0 
z
" id="BitstreamVeraSans-Roman-41"/>
     <path d="M 9.421875 54.6875 
L 18.40625 54.6875 
L 18.40625 -0.984375 
Q 18.40625 -11.421875 14.421875 -16.109375 
Q 10.453125 -20.796875 1.609375 -20.796875 
L -1.8125 -20.796875 
L -1.8125 -13.1875 
L 0.59375 -13.1875 
Q 5.71875 -13.1875 7.5625 -10.8125 
Q 9.421875 -8.453125 9.421875 -0.984375 
z
M 9.421875 75.984375 
L 18.40625 75.984375 
L 18.40625 64.59375 
L 9.421875 64.59375 
z
" id="BitstreamVeraSans-Roman-6a"/>
    </defs>
    <g transform="translate(154.4595 18.14175)scale(0.144 -0.144)">
     <use xlink:href="#BitstreamVeraSans-Roman-41"/>
     <use x="68.330078125" xlink:href="#BitstreamVeraSans-Roman-76"/>
     <use x="127.509765625" xlink:href="#BitstreamVeraSans-Roman-65"/>
     <use x="189.033203125" xlink:href="#BitstreamVeraSans-Roman-72"/>
     <use x="230.146484375" xlink:href="#BitstreamVeraSans-Roman-61"/>
     <use x="291.42578125" xlink:href="#BitstreamVeraSans-Roman-67"/>
     <use x="354.90234375" xlink:href="#BitstreamVeraSans-Roman-65"/>
     <use x="416.42578125" xlink:href="#BitstreamVeraSans-Roman-20"/>
     <use x="448.212890625" xlink:href="#BitstreamVeraSans-Roman-6d"/>
     <use x="545.625" xlink:href="#BitstreamVeraSans-Roman-61"/>
     <use x="606.904296875" xlink:href="#BitstreamVeraSans-Roman-78"/>
     <use x="666.083984375" xlink:href="#BitstreamVeraSans-Roman-51"/>
     <use x="744.794921875" xlink:href="#BitstreamVeraSans-Roman-20"/>
     <use x="776.58203125" xlink:href="#BitstreamVeraSans-Roman-70"/>
     <use x="840.05859375" xlink:href="#BitstreamVeraSans-Roman-65"/>
     <use x="901.58203125" xlink:href="#BitstreamVeraSans-Roman-72"/>
     <use x="942.6953125" xlink:href="#BitstreamVeraSans-Roman-20"/>
     <use x="974.482421875" xlink:href="#BitstreamVeraSans-Roman-65"/>
     <use x="1036.005859375" xlink:href="#BitstreamVeraSans-Roman-70"/>
     <use x="1099.482421875" xlink:href="#BitstreamVeraSans-Roman-69"/>
     <use x="1127.265625" xlink:href="#BitstreamVeraSans-Roman-73"/>
     <use x="1179.365234375" xlink:href="#BitstreamVeraSans-Roman-6f"/>
     <use x="1240.546875" xlink:href="#BitstreamVeraSans-Roman-64"/>
     <use x="1304.0234375" xlink:href="#BitstreamVeraSans-Roman-65"/>
     <use x="1365.546875" xlink:href="#BitstreamVeraSans-Roman-2c"/>
     <use x="1397.333984375" xlink:href="#BitstreamVeraSans-Roman-20"/>
     <use x="1429.12109375" xlink:href="#BitstreamVeraSans-Roman-6a"/>
     <use x="1456.904296875" xlink:href="#BitstreamVeraSans-Roman-6f"/>
     <use x="1518.0859375" xlink:href="#BitstreamVeraSans-Roman-69"/>
     <use x="1545.869140625" xlink:href="#BitstreamVeraSans-Roman-6e"/>
     <use x="1609.248046875" xlink:href="#BitstreamVeraSans-Roman-74"/>
     <use x="1648.45703125" xlink:href="#BitstreamVeraSans-Roman-34"/>
    </g>
   </g>
  </g>
 </g>
 <defs>
  <clipPath id="pc36f664ba6">
   <rect height="345.6" width="446.4" x="54.5325" y="23.14175"/>
  </clipPath>
 </defs>
</svg>
