<?xml version="1.0" encoding="utf-8" standalone="no"?>
<!DOCTYPE svg PUBLIC "-//W3C//DTD SVG 1.1//EN"
  "http://www.w3.org/Graphics/SVG/1.1/DTD/svg11.dtd">
<!-- Created with matplotlib (http://matplotlib.org/) -->
<svg height="408pt" version="1.1" viewBox="0 0 519 408" width="519pt" xmlns="http://www.w3.org/2000/svg" xmlns:xlink="http://www.w3.org/1999/xlink">
 <defs>
  <style type="text/css">
*{stroke-linecap:butt;stroke-linejoin:round;stroke-miterlimit:100000;}
  </style>
 </defs>
 <g id="figure_1">
  <g id="patch_1">
   <path d="M 0 408.16925 
L 519.585 408.16925 
L 519.585 0 
L 0 0 
z
" style="fill:#ffffff;"/>
  </g>
  <g id="axes_1">
   <g id="patch_2">
    <path d="M 54.5325 368.74175 
L 500.9325 368.74175 
L 500.9325 23.14175 
L 54.5325 23.14175 
z
" style="fill:#ffffff;"/>
   </g>
   <g id="line2d_1">
    <path clip-path="url(#pa189556e82)" d="M 55.0905 103.623974 
L 55.6485 103.107497 
L 56.2065 103.841967 
L 56.7645 103.16552 
L 57.3225 100.412382 
L 57.8805 102.968927 
L 58.4385 101.315005 
L 58.9965 105.289453 
L 60.1125 100.686069 
L 60.6705 102.808665 
L 61.2285 101.743193 
L 62.3445 104.489053 
L 62.9025 103.932263 
L 63.4605 102.096407 
L 64.0185 103.59212 
L 64.5765 103.599992 
L 65.1345 102.667114 
L 65.6925 103.393153 
L 66.2505 104.456782 
L 66.8085 104.042449 
L 67.3665 101.560817 
L 67.9245 103.742039 
L 68.4825 103.211411 
L 69.0405 104.944779 
L 69.5985 100.539413 
L 70.1565 102.044158 
L 70.7145 105.140589 
L 71.2725 103.581306 
L 71.8305 102.911336 
L 72.3885 101.440747 
L 72.9465 105.24066 
L 73.5045 101.279143 
L 74.0625 101.607358 
L 75.1785 101.630507 
L 75.7365 103.762247 
L 76.2945 102.071389 
L 76.8525 100.755821 
L 77.4105 102.385981 
L 77.9685 103.477018 
L 78.5265 102.255215 
L 79.0845 105.027913 
L 79.6425 101.616632 
L 80.2005 102.373039 
L 80.7585 101.883525 
L 81.3165 104.210821 
L 81.8745 103.8203 
L 82.4325 99.680887 
L 82.9905 102.037725 
L 83.5485 103.237531 
L 84.1065 101.432671 
L 84.6645 100.775538 
L 85.2225 101.332907 
L 85.7805 102.079446 
L 86.3385 101.463171 
L 86.8965 101.877851 
L 87.4545 101.533946 
L 88.0125 101.361812 
L 88.5705 101.358287 
L 89.1285 101.606094 
L 89.6865 101.370137 
L 90.2445 101.980024 
L 90.8025 102.792647 
L 91.3605 100.832842 
L 91.9185 102.625111 
L 92.4765 100.66522 
L 93.0345 101.694462 
L 93.5925 100.985514 
L 94.7085 101.85222 
L 95.2665 101.782885 
L 95.8245 102.044384 
L 96.3825 102.541899 
L 96.9405 101.19761 
L 97.4985 102.745303 
L 98.0565 103.298367 
L 98.6145 101.833484 
L 99.1725 102.477205 
L 99.7305 102.526385 
L 100.2885 101.538172 
L 100.8465 102.71908 
L 101.4045 101.29437 
L 101.9625 101.777097 
L 102.5205 101.158966 
L 103.0785 101.376237 
L 103.6365 103.580001 
L 104.1945 102.542503 
L 104.7525 102.645262 
L 105.3105 101.394084 
L 106.4265 102.957395 
L 106.9845 101.739414 
L 107.5425 102.004154 
L 108.1005 101.530407 
L 108.6585 100.780542 
L 109.2165 100.318147 
L 109.7745 102.189396 
L 110.3325 102.175384 
L 110.8905 100.138651 
L 111.4485 101.101207 
L 112.0065 100.603202 
L 112.5645 101.875448 
L 113.6805 100.88176 
L 114.2385 101.848594 
L 114.7965 100.529443 
L 115.3545 102.550143 
L 115.9125 101.526658 
L 116.4705 102.417227 
L 117.0285 102.09332 
L 117.5865 90.610834 
L 118.1445 105.962235 
L 119.2605 126.421463 
L 119.8185 129.601361 
L 121.4925 109.631698 
L 122.0505 127.123686 
L 123.1665 134.167753 
L 123.7245 140.448216 
L 124.2825 141.831292 
L 124.8405 145.91306 
L 125.3985 135.986446 
L 125.9565 152.325867 
L 126.5145 149.331977 
L 127.0725 145.090114 
L 128.1885 154.169243 
L 128.7465 153.053267 
L 129.3045 150.743598 
L 129.8625 149.555961 
L 130.4205 141.33478 
L 130.9785 166.318102 
L 131.5365 166.616801 
L 132.0945 154.515622 
L 132.6525 151.668128 
L 133.2105 159.945698 
L 133.7685 157.844606 
L 134.3265 153.775032 
L 134.8845 162.957757 
L 135.4425 167.408383 
L 136.0005 165.011666 
L 136.5585 164.816763 
L 137.1165 165.239574 
L 137.6745 162.257417 
L 138.2325 175.186659 
L 138.7905 173.251431 
L 139.3485 175.791588 
L 139.9065 166.088156 
L 140.4645 172.785678 
L 141.0225 174.966128 
L 141.5805 188.996424 
L 142.1385 171.815508 
L 143.2545 195.076498 
L 143.8125 172.537246 
L 144.3705 210.998379 
L 144.9285 181.766278 
L 145.4865 176.280962 
L 146.0445 180.811703 
L 146.6025 177.552606 
L 147.1605 187.127321 
L 147.7185 179.363022 
L 148.2765 178.496867 
L 148.8345 182.196363 
L 149.3925 193.433357 
L 149.9505 197.576468 
L 150.5085 190.730135 
L 151.0665 181.828451 
L 151.6245 176.127392 
L 152.1825 190.563572 
L 152.7405 188.600157 
L 153.2985 197.505664 
L 153.8565 194.523053 
L 154.4145 175.700594 
L 154.9725 197.895342 
L 155.5305 185.50232 
L 156.0885 184.212145 
L 156.6465 179.637774 
L 157.2045 204.638369 
L 157.7625 175.20955 
L 158.3205 195.282765 
L 158.8785 210.420349 
L 159.4365 217.214098 
L 159.9945 201.16385 
L 160.5525 201.884337 
L 161.1105 217.395547 
L 161.6685 199.596637 
L 162.7845 221.429608 
L 163.3425 188.895962 
L 163.9005 203.274203 
L 164.4585 202.6607 
L 165.0165 212.93916 
L 165.5745 185.145726 
L 166.1325 205.862023 
L 166.6905 200.033761 
L 167.2485 251.51134 
L 167.8065 208.31032 
L 168.3645 248.113916 
L 168.9225 196.602352 
L 169.4805 203.247575 
L 170.0385 271.898442 
L 170.5965 226.744674 
L 171.1545 243.736333 
L 171.7125 221.569917 
L 172.2705 235.121726 
L 172.8285 207.966632 
L 173.3865 190.272781 
L 173.9445 223.686846 
L 174.5025 213.225224 
L 175.0605 250.886152 
L 175.6185 216.447376 
L 176.1765 230.628236 
L 176.7345 186.995356 
L 177.2925 231.39107 
L 177.8505 212.282 
L 178.4085 232.120446 
L 178.9665 236.156848 
L 179.5245 214.521012 
L 180.0825 208.984799 
L 180.6405 287.805569 
L 181.1985 243.500614 
L 181.7565 241.102961 
L 182.3145 242.700849 
L 182.8725 235.117586 
L 183.4305 219.67565 
L 183.9885 286.888496 
L 184.5465 224.987449 
L 185.1045 221.997005 
L 185.6625 231.177967 
L 186.2205 277.948486 
L 186.7785 252.134043 
L 187.3365 249.649468 
L 187.8945 231.7908 
L 188.4525 266.564287 
L 189.0105 232.608016 
L 189.5685 224.329183 
L 190.1265 239.393925 
L 190.6845 207.64441 
L 191.2425 248.315571 
L 191.8005 220.052042 
L 192.3585 234.938333 
L 192.9165 235.362388 
L 193.4745 243.380777 
L 194.0325 215.28173 
L 194.5905 265.198293 
L 195.1485 277.820107 
L 195.7065 229.794221 
L 196.2645 239.721085 
L 196.8225 300.210259 
L 197.3805 283.687595 
L 197.9385 252.944094 
L 198.4965 254.246222 
L 199.0545 243.310045 
L 199.6125 260.296166 
L 200.1705 264.299658 
L 200.7285 272.825045 
L 201.2865 259.89345 
L 201.8445 262.913635 
L 202.4025 254.966627 
L 202.9605 277.554221 
L 203.5185 249.206806 
L 204.0765 251.392691 
L 204.6345 254.237521 
L 205.1925 246.812047 
L 205.7505 277.219349 
L 206.3085 241.756546 
L 206.8665 249.954202 
L 207.4245 249.270783 
L 207.9825 251.940939 
L 208.5405 257.935121 
L 209.0985 260.173563 
L 209.6565 294.229106 
L 210.2145 267.177646 
L 210.7725 260.580098 
L 211.3305 255.330342 
L 211.8885 259.315554 
L 212.4465 246.612657 
L 213.0045 258.691566 
L 213.5625 259.91685 
L 214.1205 255.814397 
L 214.6785 249.287853 
L 215.2365 271.99363 
L 215.7945 246.959756 
L 216.3525 250.95674 
L 216.9105 332.347978 
L 217.4685 256.440035 
L 218.0265 246.784428 
L 218.5845 253.355629 
L 219.1425 269.911224 
L 219.7005 253.807601 
L 220.2585 261.929447 
L 220.8165 253.058658 
L 221.3745 264.134837 
L 221.9325 269.623408 
L 222.4905 256.506067 
L 223.0485 258.975747 
L 223.6065 266.015247 
L 224.1645 236.979913 
L 224.7225 264.18614 
L 225.2805 256.612377 
L 225.8385 261.644578 
L 226.3965 260.620427 
L 226.9545 280.505833 
L 227.5125 275.236578 
L 228.0705 257.040201 
L 228.6285 259.656992 
L 229.1865 247.832344 
L 229.7445 240.147935 
L 230.3025 252.537023 
L 230.8605 254.476084 
L 231.4185 272.036921 
L 231.9765 276.659149 
L 232.5345 256.820673 
L 233.0925 248.269758 
L 233.6505 284.097891 
L 234.2085 245.166262 
L 234.7665 233.853966 
L 235.8825 259.853684 
L 236.4405 244.302241 
L 236.9985 264.339408 
L 237.5565 260.084551 
L 238.1145 245.487301 
L 238.6725 257.081774 
L 239.2305 254.765749 
L 239.7885 264.142279 
L 240.3465 254.004025 
L 240.9045 289.228883 
L 241.4625 258.49238 
L 242.0205 254.417493 
L 242.5785 256.164396 
L 243.6945 236.112841 
L 244.2525 220.129674 
L 244.8105 252.09085 
L 245.3685 268.698887 
L 245.9265 235.311209 
L 246.4845 251.801654 
L 247.0425 264.572362 
L 247.6005 249.990333 
L 248.1585 247.212577 
L 248.7165 258.0614 
L 249.2745 254.86645 
L 249.8325 263.897974 
L 250.3905 254.470507 
L 250.9485 236.982521 
L 251.5065 247.856642 
L 252.0645 236.024172 
L 252.6225 228.446192 
L 253.7385 266.535456 
L 254.2965 274.581999 
L 254.8545 242.440047 
L 255.4125 243.493974 
L 255.9705 240.288772 
L 256.5285 225.914627 
L 257.0865 254.795314 
L 257.6445 270.535924 
L 258.2025 248.959579 
L 258.7605 244.414224 
L 259.3185 254.302384 
L 259.8765 235.906639 
L 260.4345 227.409205 
L 260.9925 255.850297 
L 261.5505 229.822153 
L 262.1085 270.278816 
L 262.6665 268.94803 
L 263.2245 283.286076 
L 263.7825 238.334122 
L 264.3405 242.064485 
L 264.8985 254.671022 
L 265.4565 242.222505 
L 266.0145 235.636678 
L 266.5725 234.929525 
L 267.1305 229.921886 
L 267.6885 255.333145 
L 268.2465 241.963884 
L 268.8045 216.711786 
L 269.3625 248.49655 
L 269.9205 230.001157 
L 270.4785 248.383357 
L 271.0365 255.561702 
L 271.5945 251.858601 
L 272.1525 228.252223 
L 272.7105 228.922861 
L 273.2685 278.850914 
L 273.8265 222.787173 
L 274.3845 225.309414 
L 274.9425 280.589319 
L 275.5005 230.114516 
L 276.0585 193.472958 
L 276.6165 258.955482 
L 277.1745 251.856311 
L 277.7325 233.952788 
L 278.2905 230.04425 
L 278.8485 259.451709 
L 279.4065 224.871613 
L 279.9645 238.416195 
L 280.5225 258.876903 
L 281.0805 264.838051 
L 281.6385 223.056012 
L 282.1965 276.875449 
L 282.7545 297.765781 
L 283.3125 257.571317 
L 283.8705 292.002639 
L 284.4285 257.265949 
L 284.9865 258.49901 
L 285.5445 301.924781 
L 286.1025 270.047134 
L 286.6605 253.946681 
L 287.2185 277.073841 
L 287.7765 246.130564 
L 288.3345 262.3142 
L 288.8925 286.234367 
L 289.4505 291.239285 
L 290.0085 265.935575 
L 290.5665 255.844939 
L 291.1245 251.538476 
L 291.6825 246.270541 
L 292.2405 265.774731 
L 292.7985 271.759863 
L 293.3565 255.192122 
L 293.9145 272.285301 
L 294.4725 268.802286 
L 295.0305 272.700028 
L 295.5885 267.566336 
L 296.1465 288.177591 
L 296.7045 274.018793 
L 297.2625 285.477278 
L 297.8205 246.349156 
L 298.3785 274.551535 
L 298.9365 257.913178 
L 299.4945 253.204256 
L 300.0525 267.912523 
L 300.6105 244.479654 
L 301.7265 280.237933 
L 302.2845 242.86034 
L 302.8425 262.761529 
L 303.4005 243.097452 
L 303.9585 286.654673 
L 304.5165 254.284374 
L 305.0745 256.611265 
L 305.6325 283.992707 
L 306.1905 268.205763 
L 306.7485 239.6221 
L 307.3065 265.74553 
L 307.8645 255.455001 
L 308.4225 259.765253 
L 308.9805 246.559071 
L 309.5385 268.74549 
L 310.0965 247.724631 
L 310.6545 236.679599 
L 311.2125 306.878634 
L 311.7705 260.417171 
L 312.3285 256.25954 
L 312.8865 276.952191 
L 313.4445 255.408587 
L 314.0025 272.197524 
L 314.5605 264.677393 
L 315.1185 245.714606 
L 315.6765 262.84479 
L 316.2345 262.329745 
L 316.7925 248.894177 
L 317.3505 261.533456 
L 317.9085 278.714312 
L 318.4665 259.868052 
L 319.0245 261.279546 
L 319.5825 259.981578 
L 320.1405 259.014168 
L 320.6985 246.926602 
L 321.2565 287.409316 
L 321.8145 240.660229 
L 322.3725 262.704081 
L 322.9305 262.154172 
L 323.4885 244.085186 
L 324.0465 244.376264 
L 324.6045 258.588778 
L 325.1625 261.877764 
L 325.7205 245.928957 
L 326.2785 261.902613 
L 326.8365 257.529201 
L 327.3945 247.699674 
L 327.9525 265.3557 
L 328.5105 264.586806 
L 329.0685 260.714624 
L 329.6265 276.468818 
L 330.1845 273.032727 
L 330.7425 292.957351 
L 331.3005 257.526977 
L 331.8585 259.669243 
L 332.4165 264.410484 
L 332.9745 266.212358 
L 333.5325 257.111086 
L 334.0905 262.787603 
L 334.6485 275.357392 
L 335.2065 263.063302 
L 335.7645 268.49266 
L 336.3225 277.293872 
L 336.8805 259.71412 
L 337.4385 257.21443 
L 337.9965 266.890834 
L 338.5545 331.468002 
L 339.1125 254.561218 
L 339.6705 262.33964 
L 340.2285 259.344148 
L 340.7865 269.284044 
L 341.3445 268.177401 
L 341.9025 279.938374 
L 342.4605 282.186835 
L 343.0185 254.865681 
L 343.5765 249.311113 
L 344.1345 260.624288 
L 345.2505 254.167927 
L 345.8085 273.743115 
L 346.3665 274.754526 
L 346.9245 262.287939 
L 347.4825 263.738253 
L 348.0405 262.373734 
L 348.5985 257.196874 
L 349.1565 258.804571 
L 349.7145 259.901764 
L 350.2725 271.684552 
L 350.8305 288.185686 
L 351.3885 262.471732 
L 351.9465 268.281111 
L 352.5045 256.71483 
L 353.0625 269.425779 
L 353.6205 263.365532 
L 354.1785 260.279231 
L 354.7365 267.57574 
L 355.2945 277.077209 
L 355.8525 263.423525 
L 356.4105 277.889262 
L 356.9685 267.906365 
L 358.0845 256.14371 
L 358.6425 259.993704 
L 359.2005 267.341856 
L 359.7585 269.385837 
L 360.3165 261.106505 
L 360.8745 263.982859 
L 361.4325 271.173149 
L 361.9905 254.694573 
L 362.5485 260.778979 
L 363.1065 261.514405 
L 363.6645 272.150202 
L 364.2225 260.65116 
L 364.7805 271.807088 
L 365.3385 276.541942 
L 365.8965 285.977318 
L 366.4545 256.563184 
L 367.5705 281.783128 
L 368.1285 283.172769 
L 368.6865 276.232326 
L 369.2445 270.984814 
L 369.8025 271.715671 
L 370.3605 262.835561 
L 370.9185 283.823771 
L 371.4765 262.94959 
L 372.0345 258.604444 
L 372.5925 265.105505 
L 373.1505 259.361516 
L 373.7085 262.266396 
L 374.2665 262.235189 
L 374.8245 261.968593 
L 375.3825 274.503524 
L 375.9405 263.030609 
L 376.4985 270.282873 
L 377.0565 295.886444 
L 377.6145 284.487227 
L 378.1725 263.28104 
L 378.7305 265.449982 
L 379.2885 270.82546 
L 379.8465 274.123664 
L 380.4045 278.501767 
L 380.9625 267.82724 
L 381.5205 268.754935 
L 382.0785 274.519822 
L 382.6365 286.807652 
L 383.1945 253.94683 
L 383.7525 266.661201 
L 384.3105 256.770923 
L 384.8685 269.967121 
L 385.4265 278.650779 
L 386.5425 256.722355 
L 387.1005 262.827266 
L 387.6585 279.743565 
L 388.2165 265.673734 
L 388.7745 259.324388 
L 389.3325 270.72416 
L 389.8905 275.753804 
L 390.4485 263.150373 
L 391.0065 271.429964 
L 391.5645 261.803111 
L 392.1225 270.715173 
L 392.6805 256.197161 
L 393.2385 266.176382 
L 393.7965 264.408224 
L 394.3545 266.43878 
L 394.9125 258.283832 
L 395.4705 282.868925 
L 396.0285 275.46692 
L 396.5865 266.084168 
L 397.1445 261.491265 
L 397.7025 268.146864 
L 398.2605 278.99069 
L 398.8185 267.356705 
L 399.3765 283.133209 
L 399.9345 261.188648 
L 400.4925 258.073339 
L 401.0505 264.264231 
L 401.6085 263.156974 
L 402.1665 277.090944 
L 402.7245 267.073071 
L 403.2825 266.231367 
L 403.8405 266.972174 
L 404.3985 263.08249 
L 404.9565 267.802264 
L 405.5145 261.599442 
L 406.0725 260.967056 
L 406.6305 271.989356 
L 407.1885 262.021102 
L 407.7465 274.931489 
L 408.3045 274.750691 
L 408.8625 262.776746 
L 409.4205 263.050804 
L 409.9785 280.919108 
L 410.5365 270.581461 
L 411.0945 251.214955 
L 411.6525 261.664658 
L 412.2105 269.422599 
L 412.7685 256.775222 
L 413.3265 274.496052 
L 413.8845 257.194177 
L 414.4425 268.213599 
L 415.0005 268.090527 
L 415.5585 271.895791 
L 416.1165 262.440124 
L 416.6745 279.577058 
L 417.2325 263.781903 
L 417.7905 287.498656 
L 418.3485 278.205095 
L 418.9065 276.045193 
L 419.4645 270.212201 
L 420.0225 266.029994 
L 420.5805 263.594279 
L 421.1385 287.54399 
L 422.2545 266.625705 
L 422.8125 262.063327 
L 423.3705 279.403626 
L 423.9285 265.153324 
L 424.4865 279.219544 
L 425.0445 276.095477 
L 425.6025 270.89845 
L 426.1605 273.505111 
L 426.7185 282.87268 
L 427.2765 262.458762 
L 427.8345 288.653906 
L 428.3925 268.272446 
L 428.9505 266.718362 
L 429.5085 271.419076 
L 430.0665 281.956687 
L 430.6245 249.716217 
L 431.1825 267.271186 
L 431.7405 268.458245 
L 432.2985 266.661008 
L 432.8565 286.540471 
L 433.4145 262.697831 
L 433.9725 283.871879 
L 434.5305 259.34972 
L 435.0885 324.908639 
L 435.6465 275.537175 
L 436.2045 272.022521 
L 436.7625 257.298432 
L 437.3205 283.585223 
L 437.8785 279.504166 
L 438.4365 269.069597 
L 438.9945 262.877358 
L 439.5525 277.052092 
L 440.1105 313.673163 
L 440.6685 286.323403 
L 441.2265 274.130609 
L 441.7845 258.118574 
L 442.3425 270.873592 
L 442.9005 278.180062 
L 443.4585 268.542443 
L 444.0165 264.472943 
L 444.5745 275.521084 
L 445.1325 273.864942 
L 445.6905 269.563624 
L 446.8065 274.547026 
L 447.3645 285.069339 
L 447.9225 279.349092 
L 448.4805 276.641516 
L 449.0385 276.383252 
L 449.5965 273.726116 
L 450.1545 273.858652 
L 450.7125 280.72149 
L 451.2705 278.397322 
L 451.8285 251.367747 
L 452.3865 267.706482 
L 452.9445 274.832401 
L 453.5025 278.174414 
L 454.0605 279.406273 
L 454.6185 280.184387 
L 455.1765 265.421821 
L 455.7345 272.757123 
L 456.2925 266.694417 
L 456.8505 267.273872 
L 457.4085 287.158283 
L 457.9665 279.282912 
L 458.5245 261.756144 
L 459.0825 272.035892 
L 459.6405 271.031395 
L 460.1985 294.24746 
L 460.7565 271.36974 
L 461.3145 270.254437 
L 461.8725 285.406403 
L 462.4305 289.336199 
L 462.9885 268.071162 
L 463.5465 290.781056 
L 464.1045 293.989503 
L 464.6625 272.623031 
L 465.2205 278.067942 
L 465.7785 271.902391 
L 466.3365 292.26652 
L 466.8945 279.389635 
L 467.4525 254.905183 
L 467.4525 254.905183 
" style="fill:none;stroke:#0000ff;stroke-linecap:square;stroke-width:0.5;"/>
   </g>
   <g id="patch_3">
    <path d="M 54.5325 368.74175 
L 54.5325 23.14175 
" style="fill:none;stroke:#000000;stroke-linecap:square;stroke-linejoin:miter;"/>
   </g>
   <g id="patch_4">
    <path d="M 54.5325 368.74175 
L 500.9325 368.74175 
" style="fill:none;stroke:#000000;stroke-linecap:square;stroke-linejoin:miter;"/>
   </g>
   <g id="patch_5">
    <path d="M 54.5325 23.14175 
L 500.9325 23.14175 
" style="fill:none;stroke:#000000;stroke-linecap:square;stroke-linejoin:miter;"/>
   </g>
   <g id="patch_6">
    <path d="M 500.9325 368.74175 
L 500.9325 23.14175 
" style="fill:none;stroke:#000000;stroke-linecap:square;stroke-linejoin:miter;"/>
   </g>
   <g id="matplotlib.axis_1">
    <g id="xtick_1">
     <g id="line2d_2">
      <defs>
       <path d="M 0 0 
L 0 -4 
" id="m90228bc689" style="stroke:#000000;stroke-width:0.5;"/>
      </defs>
      <g>
       <use style="stroke:#000000;stroke-width:0.5;" x="54.5325" xlink:href="#m90228bc689" y="368.74175"/>
      </g>
     </g>
     <g id="line2d_3">
      <defs>
       <path d="M 0 0 
L 0 4 
" id="mfbcab41750" style="stroke:#000000;stroke-width:0.5;"/>
      </defs>
      <g>
       <use style="stroke:#000000;stroke-width:0.5;" x="54.5325" xlink:href="#mfbcab41750" y="23.14175"/>
      </g>
     </g>
     <g id="text_1">
      <!-- 0 -->
      <defs>
       <path d="M 31.78125 66.40625 
Q 24.171875 66.40625 20.328125 58.90625 
Q 16.5 51.421875 16.5 36.375 
Q 16.5 21.390625 20.328125 13.890625 
Q 24.171875 6.390625 31.78125 6.390625 
Q 39.453125 6.390625 43.28125 13.890625 
Q 47.125 21.390625 47.125 36.375 
Q 47.125 51.421875 43.28125 58.90625 
Q 39.453125 66.40625 31.78125 66.40625 
M 31.78125 74.21875 
Q 44.046875 74.21875 50.515625 64.515625 
Q 56.984375 54.828125 56.984375 36.375 
Q 56.984375 17.96875 50.515625 8.265625 
Q 44.046875 -1.421875 31.78125 -1.421875 
Q 19.53125 -1.421875 13.0625 8.265625 
Q 6.59375 17.96875 6.59375 36.375 
Q 6.59375 54.828125 13.0625 64.515625 
Q 19.53125 74.21875 31.78125 74.21875 
" id="BitstreamVeraSans-Roman-30"/>
      </defs>
      <g transform="translate(50.715 381.859875)scale(0.12 -0.12)">
       <use xlink:href="#BitstreamVeraSans-Roman-30"/>
      </g>
     </g>
    </g>
    <g id="xtick_2">
     <g id="line2d_4">
      <g>
       <use style="stroke:#000000;stroke-width:0.5;" x="110.3325" xlink:href="#m90228bc689" y="368.74175"/>
      </g>
     </g>
     <g id="line2d_5">
      <g>
       <use style="stroke:#000000;stroke-width:0.5;" x="110.3325" xlink:href="#mfbcab41750" y="23.14175"/>
      </g>
     </g>
     <g id="text_2">
      <!-- 100 -->
      <defs>
       <path d="M 12.40625 8.296875 
L 28.515625 8.296875 
L 28.515625 63.921875 
L 10.984375 60.40625 
L 10.984375 69.390625 
L 28.421875 72.90625 
L 38.28125 72.90625 
L 38.28125 8.296875 
L 54.390625 8.296875 
L 54.390625 0 
L 12.40625 0 
z
" id="BitstreamVeraSans-Roman-31"/>
      </defs>
      <g transform="translate(98.88 381.859875)scale(0.12 -0.12)">
       <use xlink:href="#BitstreamVeraSans-Roman-31"/>
       <use x="63.623046875" xlink:href="#BitstreamVeraSans-Roman-30"/>
       <use x="127.24609375" xlink:href="#BitstreamVeraSans-Roman-30"/>
      </g>
     </g>
    </g>
    <g id="xtick_3">
     <g id="line2d_6">
      <g>
       <use style="stroke:#000000;stroke-width:0.5;" x="166.1325" xlink:href="#m90228bc689" y="368.74175"/>
      </g>
     </g>
     <g id="line2d_7">
      <g>
       <use style="stroke:#000000;stroke-width:0.5;" x="166.1325" xlink:href="#mfbcab41750" y="23.14175"/>
      </g>
     </g>
     <g id="text_3">
      <!-- 200 -->
      <defs>
       <path d="M 19.1875 8.296875 
L 53.609375 8.296875 
L 53.609375 0 
L 7.328125 0 
L 7.328125 8.296875 
Q 12.9375 14.109375 22.625 23.890625 
Q 32.328125 33.6875 34.8125 36.53125 
Q 39.546875 41.84375 41.421875 45.53125 
Q 43.3125 49.21875 43.3125 52.78125 
Q 43.3125 58.59375 39.234375 62.25 
Q 35.15625 65.921875 28.609375 65.921875 
Q 23.96875 65.921875 18.8125 64.3125 
Q 13.671875 62.703125 7.8125 59.421875 
L 7.8125 69.390625 
Q 13.765625 71.78125 18.9375 73 
Q 24.125 74.21875 28.421875 74.21875 
Q 39.75 74.21875 46.484375 68.546875 
Q 53.21875 62.890625 53.21875 53.421875 
Q 53.21875 48.921875 51.53125 44.890625 
Q 49.859375 40.875 45.40625 35.40625 
Q 44.1875 33.984375 37.640625 27.21875 
Q 31.109375 20.453125 19.1875 8.296875 
" id="BitstreamVeraSans-Roman-32"/>
      </defs>
      <g transform="translate(154.68 381.859875)scale(0.12 -0.12)">
       <use xlink:href="#BitstreamVeraSans-Roman-32"/>
       <use x="63.623046875" xlink:href="#BitstreamVeraSans-Roman-30"/>
       <use x="127.24609375" xlink:href="#BitstreamVeraSans-Roman-30"/>
      </g>
     </g>
    </g>
    <g id="xtick_4">
     <g id="line2d_8">
      <g>
       <use style="stroke:#000000;stroke-width:0.5;" x="221.9325" xlink:href="#m90228bc689" y="368.74175"/>
      </g>
     </g>
     <g id="line2d_9">
      <g>
       <use style="stroke:#000000;stroke-width:0.5;" x="221.9325" xlink:href="#mfbcab41750" y="23.14175"/>
      </g>
     </g>
     <g id="text_4">
      <!-- 300 -->
      <defs>
       <path d="M 40.578125 39.3125 
Q 47.65625 37.796875 51.625 33 
Q 55.609375 28.21875 55.609375 21.1875 
Q 55.609375 10.40625 48.1875 4.484375 
Q 40.765625 -1.421875 27.09375 -1.421875 
Q 22.515625 -1.421875 17.65625 -0.515625 
Q 12.796875 0.390625 7.625 2.203125 
L 7.625 11.71875 
Q 11.71875 9.328125 16.59375 8.109375 
Q 21.484375 6.890625 26.8125 6.890625 
Q 36.078125 6.890625 40.9375 10.546875 
Q 45.796875 14.203125 45.796875 21.1875 
Q 45.796875 27.640625 41.28125 31.265625 
Q 36.765625 34.90625 28.71875 34.90625 
L 20.21875 34.90625 
L 20.21875 43.015625 
L 29.109375 43.015625 
Q 36.375 43.015625 40.234375 45.921875 
Q 44.09375 48.828125 44.09375 54.296875 
Q 44.09375 59.90625 40.109375 62.90625 
Q 36.140625 65.921875 28.71875 65.921875 
Q 24.65625 65.921875 20.015625 65.03125 
Q 15.375 64.15625 9.8125 62.3125 
L 9.8125 71.09375 
Q 15.4375 72.65625 20.34375 73.4375 
Q 25.25 74.21875 29.59375 74.21875 
Q 40.828125 74.21875 47.359375 69.109375 
Q 53.90625 64.015625 53.90625 55.328125 
Q 53.90625 49.265625 50.4375 45.09375 
Q 46.96875 40.921875 40.578125 39.3125 
" id="BitstreamVeraSans-Roman-33"/>
      </defs>
      <g transform="translate(210.48 381.859875)scale(0.12 -0.12)">
       <use xlink:href="#BitstreamVeraSans-Roman-33"/>
       <use x="63.623046875" xlink:href="#BitstreamVeraSans-Roman-30"/>
       <use x="127.24609375" xlink:href="#BitstreamVeraSans-Roman-30"/>
      </g>
     </g>
    </g>
    <g id="xtick_5">
     <g id="line2d_10">
      <g>
       <use style="stroke:#000000;stroke-width:0.5;" x="277.7325" xlink:href="#m90228bc689" y="368.74175"/>
      </g>
     </g>
     <g id="line2d_11">
      <g>
       <use style="stroke:#000000;stroke-width:0.5;" x="277.7325" xlink:href="#mfbcab41750" y="23.14175"/>
      </g>
     </g>
     <g id="text_5">
      <!-- 400 -->
      <defs>
       <path d="M 37.796875 64.3125 
L 12.890625 25.390625 
L 37.796875 25.390625 
z
M 35.203125 72.90625 
L 47.609375 72.90625 
L 47.609375 25.390625 
L 58.015625 25.390625 
L 58.015625 17.1875 
L 47.609375 17.1875 
L 47.609375 0 
L 37.796875 0 
L 37.796875 17.1875 
L 4.890625 17.1875 
L 4.890625 26.703125 
z
" id="BitstreamVeraSans-Roman-34"/>
      </defs>
      <g transform="translate(266.28 381.859875)scale(0.12 -0.12)">
       <use xlink:href="#BitstreamVeraSans-Roman-34"/>
       <use x="63.623046875" xlink:href="#BitstreamVeraSans-Roman-30"/>
       <use x="127.24609375" xlink:href="#BitstreamVeraSans-Roman-30"/>
      </g>
     </g>
    </g>
    <g id="xtick_6">
     <g id="line2d_12">
      <g>
       <use style="stroke:#000000;stroke-width:0.5;" x="333.5325" xlink:href="#m90228bc689" y="368.74175"/>
      </g>
     </g>
     <g id="line2d_13">
      <g>
       <use style="stroke:#000000;stroke-width:0.5;" x="333.5325" xlink:href="#mfbcab41750" y="23.14175"/>
      </g>
     </g>
     <g id="text_6">
      <!-- 500 -->
      <defs>
       <path d="M 10.796875 72.90625 
L 49.515625 72.90625 
L 49.515625 64.59375 
L 19.828125 64.59375 
L 19.828125 46.734375 
Q 21.96875 47.46875 24.109375 47.828125 
Q 26.265625 48.1875 28.421875 48.1875 
Q 40.625 48.1875 47.75 41.5 
Q 54.890625 34.8125 54.890625 23.390625 
Q 54.890625 11.625 47.5625 5.09375 
Q 40.234375 -1.421875 26.90625 -1.421875 
Q 22.3125 -1.421875 17.546875 -0.640625 
Q 12.796875 0.140625 7.71875 1.703125 
L 7.71875 11.625 
Q 12.109375 9.234375 16.796875 8.0625 
Q 21.484375 6.890625 26.703125 6.890625 
Q 35.15625 6.890625 40.078125 11.328125 
Q 45.015625 15.765625 45.015625 23.390625 
Q 45.015625 31 40.078125 35.4375 
Q 35.15625 39.890625 26.703125 39.890625 
Q 22.75 39.890625 18.8125 39.015625 
Q 14.890625 38.140625 10.796875 36.28125 
z
" id="BitstreamVeraSans-Roman-35"/>
      </defs>
      <g transform="translate(322.08 381.859875)scale(0.12 -0.12)">
       <use xlink:href="#BitstreamVeraSans-Roman-35"/>
       <use x="63.623046875" xlink:href="#BitstreamVeraSans-Roman-30"/>
       <use x="127.24609375" xlink:href="#BitstreamVeraSans-Roman-30"/>
      </g>
     </g>
    </g>
    <g id="xtick_7">
     <g id="line2d_14">
      <g>
       <use style="stroke:#000000;stroke-width:0.5;" x="389.3325" xlink:href="#m90228bc689" y="368.74175"/>
      </g>
     </g>
     <g id="line2d_15">
      <g>
       <use style="stroke:#000000;stroke-width:0.5;" x="389.3325" xlink:href="#mfbcab41750" y="23.14175"/>
      </g>
     </g>
     <g id="text_7">
      <!-- 600 -->
      <defs>
       <path d="M 33.015625 40.375 
Q 26.375 40.375 22.484375 35.828125 
Q 18.609375 31.296875 18.609375 23.390625 
Q 18.609375 15.53125 22.484375 10.953125 
Q 26.375 6.390625 33.015625 6.390625 
Q 39.65625 6.390625 43.53125 10.953125 
Q 47.40625 15.53125 47.40625 23.390625 
Q 47.40625 31.296875 43.53125 35.828125 
Q 39.65625 40.375 33.015625 40.375 
M 52.59375 71.296875 
L 52.59375 62.3125 
Q 48.875 64.0625 45.09375 64.984375 
Q 41.3125 65.921875 37.59375 65.921875 
Q 27.828125 65.921875 22.671875 59.328125 
Q 17.53125 52.734375 16.796875 39.40625 
Q 19.671875 43.65625 24.015625 45.921875 
Q 28.375 48.1875 33.59375 48.1875 
Q 44.578125 48.1875 50.953125 41.515625 
Q 57.328125 34.859375 57.328125 23.390625 
Q 57.328125 12.15625 50.6875 5.359375 
Q 44.046875 -1.421875 33.015625 -1.421875 
Q 20.359375 -1.421875 13.671875 8.265625 
Q 6.984375 17.96875 6.984375 36.375 
Q 6.984375 53.65625 15.1875 63.9375 
Q 23.390625 74.21875 37.203125 74.21875 
Q 40.921875 74.21875 44.703125 73.484375 
Q 48.484375 72.75 52.59375 71.296875 
" id="BitstreamVeraSans-Roman-36"/>
      </defs>
      <g transform="translate(377.88 381.859875)scale(0.12 -0.12)">
       <use xlink:href="#BitstreamVeraSans-Roman-36"/>
       <use x="63.623046875" xlink:href="#BitstreamVeraSans-Roman-30"/>
       <use x="127.24609375" xlink:href="#BitstreamVeraSans-Roman-30"/>
      </g>
     </g>
    </g>
    <g id="xtick_8">
     <g id="line2d_16">
      <g>
       <use style="stroke:#000000;stroke-width:0.5;" x="445.1325" xlink:href="#m90228bc689" y="368.74175"/>
      </g>
     </g>
     <g id="line2d_17">
      <g>
       <use style="stroke:#000000;stroke-width:0.5;" x="445.1325" xlink:href="#mfbcab41750" y="23.14175"/>
      </g>
     </g>
     <g id="text_8">
      <!-- 700 -->
      <defs>
       <path d="M 8.203125 72.90625 
L 55.078125 72.90625 
L 55.078125 68.703125 
L 28.609375 0 
L 18.3125 0 
L 43.21875 64.59375 
L 8.203125 64.59375 
z
" id="BitstreamVeraSans-Roman-37"/>
      </defs>
      <g transform="translate(433.68 381.859875)scale(0.12 -0.12)">
       <use xlink:href="#BitstreamVeraSans-Roman-37"/>
       <use x="63.623046875" xlink:href="#BitstreamVeraSans-Roman-30"/>
       <use x="127.24609375" xlink:href="#BitstreamVeraSans-Roman-30"/>
      </g>
     </g>
    </g>
    <g id="xtick_9">
     <g id="line2d_18">
      <g>
       <use style="stroke:#000000;stroke-width:0.5;" x="500.9325" xlink:href="#m90228bc689" y="368.74175"/>
      </g>
     </g>
     <g id="line2d_19">
      <g>
       <use style="stroke:#000000;stroke-width:0.5;" x="500.9325" xlink:href="#mfbcab41750" y="23.14175"/>
      </g>
     </g>
     <g id="text_9">
      <!-- 800 -->
      <defs>
       <path d="M 31.78125 34.625 
Q 24.75 34.625 20.71875 30.859375 
Q 16.703125 27.09375 16.703125 20.515625 
Q 16.703125 13.921875 20.71875 10.15625 
Q 24.75 6.390625 31.78125 6.390625 
Q 38.8125 6.390625 42.859375 10.171875 
Q 46.921875 13.96875 46.921875 20.515625 
Q 46.921875 27.09375 42.890625 30.859375 
Q 38.875 34.625 31.78125 34.625 
M 21.921875 38.8125 
Q 15.578125 40.375 12.03125 44.71875 
Q 8.5 49.078125 8.5 55.328125 
Q 8.5 64.0625 14.71875 69.140625 
Q 20.953125 74.21875 31.78125 74.21875 
Q 42.671875 74.21875 48.875 69.140625 
Q 55.078125 64.0625 55.078125 55.328125 
Q 55.078125 49.078125 51.53125 44.71875 
Q 48 40.375 41.703125 38.8125 
Q 48.828125 37.15625 52.796875 32.3125 
Q 56.78125 27.484375 56.78125 20.515625 
Q 56.78125 9.90625 50.3125 4.234375 
Q 43.84375 -1.421875 31.78125 -1.421875 
Q 19.734375 -1.421875 13.25 4.234375 
Q 6.78125 9.90625 6.78125 20.515625 
Q 6.78125 27.484375 10.78125 32.3125 
Q 14.796875 37.15625 21.921875 38.8125 
M 18.3125 54.390625 
Q 18.3125 48.734375 21.84375 45.5625 
Q 25.390625 42.390625 31.78125 42.390625 
Q 38.140625 42.390625 41.71875 45.5625 
Q 45.3125 48.734375 45.3125 54.390625 
Q 45.3125 60.0625 41.71875 63.234375 
Q 38.140625 66.40625 31.78125 66.40625 
Q 25.390625 66.40625 21.84375 63.234375 
Q 18.3125 60.0625 18.3125 54.390625 
" id="BitstreamVeraSans-Roman-38"/>
      </defs>
      <g transform="translate(489.48 381.859875)scale(0.12 -0.12)">
       <use xlink:href="#BitstreamVeraSans-Roman-38"/>
       <use x="63.623046875" xlink:href="#BitstreamVeraSans-Roman-30"/>
       <use x="127.24609375" xlink:href="#BitstreamVeraSans-Roman-30"/>
      </g>
     </g>
    </g>
    <g id="text_10">
     <!-- episodes -->
     <defs>
      <path d="M 18.109375 8.203125 
L 18.109375 -20.796875 
L 9.078125 -20.796875 
L 9.078125 54.6875 
L 18.109375 54.6875 
L 18.109375 46.390625 
Q 20.953125 51.265625 25.265625 53.625 
Q 29.59375 56 35.59375 56 
Q 45.5625 56 51.78125 48.09375 
Q 58.015625 40.1875 58.015625 27.296875 
Q 58.015625 14.40625 51.78125 6.484375 
Q 45.5625 -1.421875 35.59375 -1.421875 
Q 29.59375 -1.421875 25.265625 0.953125 
Q 20.953125 3.328125 18.109375 8.203125 
M 48.6875 27.296875 
Q 48.6875 37.203125 44.609375 42.84375 
Q 40.53125 48.484375 33.40625 48.484375 
Q 26.265625 48.484375 22.1875 42.84375 
Q 18.109375 37.203125 18.109375 27.296875 
Q 18.109375 17.390625 22.1875 11.75 
Q 26.265625 6.109375 33.40625 6.109375 
Q 40.53125 6.109375 44.609375 11.75 
Q 48.6875 17.390625 48.6875 27.296875 
" id="BitstreamVeraSans-Roman-70"/>
      <path d="M 44.28125 53.078125 
L 44.28125 44.578125 
Q 40.484375 46.53125 36.375 47.5 
Q 32.28125 48.484375 27.875 48.484375 
Q 21.1875 48.484375 17.84375 46.4375 
Q 14.5 44.390625 14.5 40.28125 
Q 14.5 37.15625 16.890625 35.375 
Q 19.28125 33.59375 26.515625 31.984375 
L 29.59375 31.296875 
Q 39.15625 29.25 43.1875 25.515625 
Q 47.21875 21.78125 47.21875 15.09375 
Q 47.21875 7.46875 41.1875 3.015625 
Q 35.15625 -1.421875 24.609375 -1.421875 
Q 20.21875 -1.421875 15.453125 -0.5625 
Q 10.6875 0.296875 5.421875 2 
L 5.421875 11.28125 
Q 10.40625 8.6875 15.234375 7.390625 
Q 20.0625 6.109375 24.8125 6.109375 
Q 31.15625 6.109375 34.5625 8.28125 
Q 37.984375 10.453125 37.984375 14.40625 
Q 37.984375 18.0625 35.515625 20.015625 
Q 33.0625 21.96875 24.703125 23.78125 
L 21.578125 24.515625 
Q 13.234375 26.265625 9.515625 29.90625 
Q 5.8125 33.546875 5.8125 39.890625 
Q 5.8125 47.609375 11.28125 51.796875 
Q 16.75 56 26.8125 56 
Q 31.78125 56 36.171875 55.265625 
Q 40.578125 54.546875 44.28125 53.078125 
" id="BitstreamVeraSans-Roman-73"/>
      <path d="M 45.40625 46.390625 
L 45.40625 75.984375 
L 54.390625 75.984375 
L 54.390625 0 
L 45.40625 0 
L 45.40625 8.203125 
Q 42.578125 3.328125 38.25 0.953125 
Q 33.9375 -1.421875 27.875 -1.421875 
Q 17.96875 -1.421875 11.734375 6.484375 
Q 5.515625 14.40625 5.515625 27.296875 
Q 5.515625 40.1875 11.734375 48.09375 
Q 17.96875 56 27.875 56 
Q 33.9375 56 38.25 53.625 
Q 42.578125 51.265625 45.40625 46.390625 
M 14.796875 27.296875 
Q 14.796875 17.390625 18.875 11.75 
Q 22.953125 6.109375 30.078125 6.109375 
Q 37.203125 6.109375 41.296875 11.75 
Q 45.40625 17.390625 45.40625 27.296875 
Q 45.40625 37.203125 41.296875 42.84375 
Q 37.203125 48.484375 30.078125 48.484375 
Q 22.953125 48.484375 18.875 42.84375 
Q 14.796875 37.203125 14.796875 27.296875 
" id="BitstreamVeraSans-Roman-64"/>
      <path d="M 9.421875 54.6875 
L 18.40625 54.6875 
L 18.40625 0 
L 9.421875 0 
z
M 9.421875 75.984375 
L 18.40625 75.984375 
L 18.40625 64.59375 
L 9.421875 64.59375 
z
" id="BitstreamVeraSans-Roman-69"/>
      <path d="M 56.203125 29.59375 
L 56.203125 25.203125 
L 14.890625 25.203125 
Q 15.484375 15.921875 20.484375 11.0625 
Q 25.484375 6.203125 34.421875 6.203125 
Q 39.59375 6.203125 44.453125 7.46875 
Q 49.3125 8.734375 54.109375 11.28125 
L 54.109375 2.78125 
Q 49.265625 0.734375 44.1875 -0.34375 
Q 39.109375 -1.421875 33.890625 -1.421875 
Q 20.796875 -1.421875 13.15625 6.1875 
Q 5.515625 13.8125 5.515625 26.8125 
Q 5.515625 40.234375 12.765625 48.109375 
Q 20.015625 56 32.328125 56 
Q 43.359375 56 49.78125 48.890625 
Q 56.203125 41.796875 56.203125 29.59375 
M 47.21875 32.234375 
Q 47.125 39.59375 43.09375 43.984375 
Q 39.0625 48.390625 32.421875 48.390625 
Q 24.90625 48.390625 20.390625 44.140625 
Q 15.875 39.890625 15.1875 32.171875 
z
" id="BitstreamVeraSans-Roman-65"/>
      <path d="M 30.609375 48.390625 
Q 23.390625 48.390625 19.1875 42.75 
Q 14.984375 37.109375 14.984375 27.296875 
Q 14.984375 17.484375 19.15625 11.84375 
Q 23.34375 6.203125 30.609375 6.203125 
Q 37.796875 6.203125 41.984375 11.859375 
Q 46.1875 17.53125 46.1875 27.296875 
Q 46.1875 37.015625 41.984375 42.703125 
Q 37.796875 48.390625 30.609375 48.390625 
M 30.609375 56 
Q 42.328125 56 49.015625 48.375 
Q 55.71875 40.765625 55.71875 27.296875 
Q 55.71875 13.875 49.015625 6.21875 
Q 42.328125 -1.421875 30.609375 -1.421875 
Q 18.84375 -1.421875 12.171875 6.21875 
Q 5.515625 13.875 5.515625 27.296875 
Q 5.515625 40.765625 12.171875 48.375 
Q 18.84375 56 30.609375 56 
" id="BitstreamVeraSans-Roman-6f"/>
     </defs>
     <g transform="translate(251.14125 398.473625)scale(0.12 -0.12)">
      <use xlink:href="#BitstreamVeraSans-Roman-65"/>
      <use x="61.5234375" xlink:href="#BitstreamVeraSans-Roman-70"/>
      <use x="125.0" xlink:href="#BitstreamVeraSans-Roman-69"/>
      <use x="152.783203125" xlink:href="#BitstreamVeraSans-Roman-73"/>
      <use x="204.8828125" xlink:href="#BitstreamVeraSans-Roman-6f"/>
      <use x="266.064453125" xlink:href="#BitstreamVeraSans-Roman-64"/>
      <use x="329.541015625" xlink:href="#BitstreamVeraSans-Roman-65"/>
      <use x="391.064453125" xlink:href="#BitstreamVeraSans-Roman-73"/>
     </g>
    </g>
   </g>
   <g id="matplotlib.axis_2">
    <g id="ytick_1">
     <g id="line2d_20">
      <defs>
       <path d="M 0 0 
L 4 0 
" id="m8bed27e5a3" style="stroke:#000000;stroke-width:0.5;"/>
      </defs>
      <g>
       <use style="stroke:#000000;stroke-width:0.5;" x="54.5325" xlink:href="#m8bed27e5a3" y="368.74175"/>
      </g>
     </g>
     <g id="line2d_21">
      <defs>
       <path d="M 0 0 
L -4 0 
" id="m7305cedb98" style="stroke:#000000;stroke-width:0.5;"/>
      </defs>
      <g>
       <use style="stroke:#000000;stroke-width:0.5;" x="500.9325" xlink:href="#m7305cedb98" y="368.74175"/>
      </g>
     </g>
     <g id="text_11">
      <!-- 0.00 -->
      <defs>
       <path d="M 10.6875 12.40625 
L 21 12.40625 
L 21 0 
L 10.6875 0 
z
" id="BitstreamVeraSans-Roman-2e"/>
      </defs>
      <g transform="translate(23.81375 372.053)scale(0.12 -0.12)">
       <use xlink:href="#BitstreamVeraSans-Roman-30"/>
       <use x="63.623046875" xlink:href="#BitstreamVeraSans-Roman-2e"/>
       <use x="95.41015625" xlink:href="#BitstreamVeraSans-Roman-30"/>
       <use x="159.033203125" xlink:href="#BitstreamVeraSans-Roman-30"/>
      </g>
     </g>
    </g>
    <g id="ytick_2">
     <g id="line2d_22">
      <g>
       <use style="stroke:#000000;stroke-width:0.5;" x="54.5325" xlink:href="#m8bed27e5a3" y="299.62175"/>
      </g>
     </g>
     <g id="line2d_23">
      <g>
       <use style="stroke:#000000;stroke-width:0.5;" x="500.9325" xlink:href="#m7305cedb98" y="299.62175"/>
      </g>
     </g>
     <g id="text_12">
      <!-- 0.05 -->
      <g transform="translate(23.81375 302.933)scale(0.12 -0.12)">
       <use xlink:href="#BitstreamVeraSans-Roman-30"/>
       <use x="63.623046875" xlink:href="#BitstreamVeraSans-Roman-2e"/>
       <use x="95.41015625" xlink:href="#BitstreamVeraSans-Roman-30"/>
       <use x="159.033203125" xlink:href="#BitstreamVeraSans-Roman-35"/>
      </g>
     </g>
    </g>
    <g id="ytick_3">
     <g id="line2d_24">
      <g>
       <use style="stroke:#000000;stroke-width:0.5;" x="54.5325" xlink:href="#m8bed27e5a3" y="230.50175"/>
      </g>
     </g>
     <g id="line2d_25">
      <g>
       <use style="stroke:#000000;stroke-width:0.5;" x="500.9325" xlink:href="#m7305cedb98" y="230.50175"/>
      </g>
     </g>
     <g id="text_13">
      <!-- 0.10 -->
      <g transform="translate(23.81375 233.813)scale(0.12 -0.12)">
       <use xlink:href="#BitstreamVeraSans-Roman-30"/>
       <use x="63.623046875" xlink:href="#BitstreamVeraSans-Roman-2e"/>
       <use x="95.41015625" xlink:href="#BitstreamVeraSans-Roman-31"/>
       <use x="159.033203125" xlink:href="#BitstreamVeraSans-Roman-30"/>
      </g>
     </g>
    </g>
    <g id="ytick_4">
     <g id="line2d_26">
      <g>
       <use style="stroke:#000000;stroke-width:0.5;" x="54.5325" xlink:href="#m8bed27e5a3" y="161.38175"/>
      </g>
     </g>
     <g id="line2d_27">
      <g>
       <use style="stroke:#000000;stroke-width:0.5;" x="500.9325" xlink:href="#m7305cedb98" y="161.38175"/>
      </g>
     </g>
     <g id="text_14">
      <!-- 0.15 -->
      <g transform="translate(23.81375 164.693)scale(0.12 -0.12)">
       <use xlink:href="#BitstreamVeraSans-Roman-30"/>
       <use x="63.623046875" xlink:href="#BitstreamVeraSans-Roman-2e"/>
       <use x="95.41015625" xlink:href="#BitstreamVeraSans-Roman-31"/>
       <use x="159.033203125" xlink:href="#BitstreamVeraSans-Roman-35"/>
      </g>
     </g>
    </g>
    <g id="ytick_5">
     <g id="line2d_28">
      <g>
       <use style="stroke:#000000;stroke-width:0.5;" x="54.5325" xlink:href="#m8bed27e5a3" y="92.26175"/>
      </g>
     </g>
     <g id="line2d_29">
      <g>
       <use style="stroke:#000000;stroke-width:0.5;" x="500.9325" xlink:href="#m7305cedb98" y="92.26175"/>
      </g>
     </g>
     <g id="text_15">
      <!-- 0.20 -->
      <g transform="translate(23.81375 95.573)scale(0.12 -0.12)">
       <use xlink:href="#BitstreamVeraSans-Roman-30"/>
       <use x="63.623046875" xlink:href="#BitstreamVeraSans-Roman-2e"/>
       <use x="95.41015625" xlink:href="#BitstreamVeraSans-Roman-32"/>
       <use x="159.033203125" xlink:href="#BitstreamVeraSans-Roman-30"/>
      </g>
     </g>
    </g>
    <g id="ytick_6">
     <g id="line2d_30">
      <g>
       <use style="stroke:#000000;stroke-width:0.5;" x="54.5325" xlink:href="#m8bed27e5a3" y="23.14175"/>
      </g>
     </g>
     <g id="line2d_31">
      <g>
       <use style="stroke:#000000;stroke-width:0.5;" x="500.9325" xlink:href="#m7305cedb98" y="23.14175"/>
      </g>
     </g>
     <g id="text_16">
      <!-- 0.25 -->
      <g transform="translate(23.81375 26.453)scale(0.12 -0.12)">
       <use xlink:href="#BitstreamVeraSans-Roman-30"/>
       <use x="63.623046875" xlink:href="#BitstreamVeraSans-Roman-2e"/>
       <use x="95.41015625" xlink:href="#BitstreamVeraSans-Roman-32"/>
       <use x="159.033203125" xlink:href="#BitstreamVeraSans-Roman-35"/>
      </g>
     </g>
    </g>
    <g id="text_17">
     <!-- average maxQ -->
     <defs>
      <path d="M 45.40625 27.984375 
Q 45.40625 37.75 41.375 43.109375 
Q 37.359375 48.484375 30.078125 48.484375 
Q 22.859375 48.484375 18.828125 43.109375 
Q 14.796875 37.75 14.796875 27.984375 
Q 14.796875 18.265625 18.828125 12.890625 
Q 22.859375 7.515625 30.078125 7.515625 
Q 37.359375 7.515625 41.375 12.890625 
Q 45.40625 18.265625 45.40625 27.984375 
M 54.390625 6.78125 
Q 54.390625 -7.171875 48.1875 -13.984375 
Q 42 -20.796875 29.203125 -20.796875 
Q 24.46875 -20.796875 20.265625 -20.09375 
Q 16.0625 -19.390625 12.109375 -17.921875 
L 12.109375 -9.1875 
Q 16.0625 -11.328125 19.921875 -12.34375 
Q 23.78125 -13.375 27.78125 -13.375 
Q 36.625 -13.375 41.015625 -8.765625 
Q 45.40625 -4.15625 45.40625 5.171875 
L 45.40625 9.625 
Q 42.625 4.78125 38.28125 2.390625 
Q 33.9375 0 27.875 0 
Q 17.828125 0 11.671875 7.65625 
Q 5.515625 15.328125 5.515625 27.984375 
Q 5.515625 40.671875 11.671875 48.328125 
Q 17.828125 56 27.875 56 
Q 33.9375 56 38.28125 53.609375 
Q 42.625 51.21875 45.40625 46.390625 
L 45.40625 54.6875 
L 54.390625 54.6875 
z
" id="BitstreamVeraSans-Roman-67"/>
      <path id="BitstreamVeraSans-Roman-20"/>
      <path d="M 52 44.1875 
Q 55.375 50.25 60.0625 53.125 
Q 64.75 56 71.09375 56 
Q 79.640625 56 84.28125 50.015625 
Q 88.921875 44.046875 88.921875 33.015625 
L 88.921875 0 
L 79.890625 0 
L 79.890625 32.71875 
Q 79.890625 40.578125 77.09375 44.375 
Q 74.3125 48.1875 68.609375 48.1875 
Q 61.625 48.1875 57.5625 43.546875 
Q 53.515625 38.921875 53.515625 30.90625 
L 53.515625 0 
L 44.484375 0 
L 44.484375 32.71875 
Q 44.484375 40.625 41.703125 44.40625 
Q 38.921875 48.1875 33.109375 48.1875 
Q 26.21875 48.1875 22.15625 43.53125 
Q 18.109375 38.875 18.109375 30.90625 
L 18.109375 0 
L 9.078125 0 
L 9.078125 54.6875 
L 18.109375 54.6875 
L 18.109375 46.1875 
Q 21.1875 51.21875 25.484375 53.609375 
Q 29.78125 56 35.6875 56 
Q 41.65625 56 45.828125 52.96875 
Q 50 49.953125 52 44.1875 
" id="BitstreamVeraSans-Roman-6d"/>
      <path d="M 34.28125 27.484375 
Q 23.390625 27.484375 19.1875 25 
Q 14.984375 22.515625 14.984375 16.5 
Q 14.984375 11.71875 18.140625 8.90625 
Q 21.296875 6.109375 26.703125 6.109375 
Q 34.1875 6.109375 38.703125 11.40625 
Q 43.21875 16.703125 43.21875 25.484375 
L 43.21875 27.484375 
z
M 52.203125 31.203125 
L 52.203125 0 
L 43.21875 0 
L 43.21875 8.296875 
Q 40.140625 3.328125 35.546875 0.953125 
Q 30.953125 -1.421875 24.3125 -1.421875 
Q 15.921875 -1.421875 10.953125 3.296875 
Q 6 8.015625 6 15.921875 
Q 6 25.140625 12.171875 29.828125 
Q 18.359375 34.515625 30.609375 34.515625 
L 43.21875 34.515625 
L 43.21875 35.40625 
Q 43.21875 41.609375 39.140625 45 
Q 35.0625 48.390625 27.6875 48.390625 
Q 23 48.390625 18.546875 47.265625 
Q 14.109375 46.140625 10.015625 43.890625 
L 10.015625 52.203125 
Q 14.9375 54.109375 19.578125 55.046875 
Q 24.21875 56 28.609375 56 
Q 40.484375 56 46.34375 49.84375 
Q 52.203125 43.703125 52.203125 31.203125 
" id="BitstreamVeraSans-Roman-61"/>
      <path d="M 41.109375 46.296875 
Q 39.59375 47.171875 37.8125 47.578125 
Q 36.03125 48 33.890625 48 
Q 26.265625 48 22.1875 43.046875 
Q 18.109375 38.09375 18.109375 28.8125 
L 18.109375 0 
L 9.078125 0 
L 9.078125 54.6875 
L 18.109375 54.6875 
L 18.109375 46.1875 
Q 20.953125 51.171875 25.484375 53.578125 
Q 30.03125 56 36.53125 56 
Q 37.453125 56 38.578125 55.875 
Q 39.703125 55.765625 41.0625 55.515625 
z
" id="BitstreamVeraSans-Roman-72"/>
      <path d="M 39.40625 66.21875 
Q 28.65625 66.21875 22.328125 58.203125 
Q 16.015625 50.203125 16.015625 36.375 
Q 16.015625 22.609375 22.328125 14.59375 
Q 28.65625 6.59375 39.40625 6.59375 
Q 50.140625 6.59375 56.421875 14.59375 
Q 62.703125 22.609375 62.703125 36.375 
Q 62.703125 50.203125 56.421875 58.203125 
Q 50.140625 66.21875 39.40625 66.21875 
M 53.21875 1.3125 
L 66.21875 -12.890625 
L 54.296875 -12.890625 
L 43.5 -1.21875 
Q 41.890625 -1.3125 41.03125 -1.359375 
Q 40.1875 -1.421875 39.40625 -1.421875 
Q 24.03125 -1.421875 14.8125 8.859375 
Q 5.609375 19.140625 5.609375 36.375 
Q 5.609375 53.65625 14.8125 63.9375 
Q 24.03125 74.21875 39.40625 74.21875 
Q 54.734375 74.21875 63.90625 63.9375 
Q 73.09375 53.65625 73.09375 36.375 
Q 73.09375 23.6875 67.984375 14.640625 
Q 62.890625 5.609375 53.21875 1.3125 
" id="BitstreamVeraSans-Roman-51"/>
      <path d="M 2.984375 54.6875 
L 12.5 54.6875 
L 29.59375 8.796875 
L 46.6875 54.6875 
L 56.203125 54.6875 
L 35.6875 0 
L 23.484375 0 
z
" id="BitstreamVeraSans-Roman-76"/>
      <path d="M 54.890625 54.6875 
L 35.109375 28.078125 
L 55.90625 0 
L 45.3125 0 
L 29.390625 21.484375 
L 13.484375 0 
L 2.875 0 
L 24.125 28.609375 
L 4.6875 54.6875 
L 15.28125 54.6875 
L 29.78125 35.203125 
L 44.28125 54.6875 
z
" id="BitstreamVeraSans-Roman-78"/>
     </defs>
     <g transform="translate(16.318125 240.208625)rotate(-90.0)scale(0.12 -0.12)">
      <use xlink:href="#BitstreamVeraSans-Roman-61"/>
      <use x="61.279296875" xlink:href="#BitstreamVeraSans-Roman-76"/>
      <use x="120.458984375" xlink:href="#BitstreamVeraSans-Roman-65"/>
      <use x="181.982421875" xlink:href="#BitstreamVeraSans-Roman-72"/>
      <use x="223.095703125" xlink:href="#BitstreamVeraSans-Roman-61"/>
      <use x="284.375" xlink:href="#BitstreamVeraSans-Roman-67"/>
      <use x="347.8515625" xlink:href="#BitstreamVeraSans-Roman-65"/>
      <use x="409.375" xlink:href="#BitstreamVeraSans-Roman-20"/>
      <use x="441.162109375" xlink:href="#BitstreamVeraSans-Roman-6d"/>
      <use x="538.57421875" xlink:href="#BitstreamVeraSans-Roman-61"/>
      <use x="599.853515625" xlink:href="#BitstreamVeraSans-Roman-78"/>
      <use x="659.033203125" xlink:href="#BitstreamVeraSans-Roman-51"/>
     </g>
    </g>
   </g>
   <g id="text_18">
    <!-- Average maxQ per episode, joint2 -->
    <defs>
     <path d="M 54.890625 33.015625 
L 54.890625 0 
L 45.90625 0 
L 45.90625 32.71875 
Q 45.90625 40.484375 42.875 44.328125 
Q 39.84375 48.1875 33.796875 48.1875 
Q 26.515625 48.1875 22.3125 43.546875 
Q 18.109375 38.921875 18.109375 30.90625 
L 18.109375 0 
L 9.078125 0 
L 9.078125 54.6875 
L 18.109375 54.6875 
L 18.109375 46.1875 
Q 21.34375 51.125 25.703125 53.5625 
Q 30.078125 56 35.796875 56 
Q 45.21875 56 50.046875 50.171875 
Q 54.890625 44.34375 54.890625 33.015625 
" id="BitstreamVeraSans-Roman-6e"/>
     <path d="M 11.71875 12.40625 
L 22.015625 12.40625 
L 22.015625 4 
L 14.015625 -11.625 
L 7.71875 -11.625 
L 11.71875 4 
z
" id="BitstreamVeraSans-Roman-2c"/>
     <path d="M 34.1875 63.1875 
L 20.796875 26.90625 
L 47.609375 26.90625 
z
M 28.609375 72.90625 
L 39.796875 72.90625 
L 67.578125 0 
L 57.328125 0 
L 50.6875 18.703125 
L 17.828125 18.703125 
L 11.1875 0 
L 0.78125 0 
z
" id="BitstreamVeraSans-Roman-41"/>
     <path d="M 9.421875 54.6875 
L 18.40625 54.6875 
L 18.40625 -0.984375 
Q 18.40625 -11.421875 14.421875 -16.109375 
Q 10.453125 -20.796875 1.609375 -20.796875 
L -1.8125 -20.796875 
L -1.8125 -13.1875 
L 0.59375 -13.1875 
Q 5.71875 -13.1875 7.5625 -10.8125 
Q 9.421875 -8.453125 9.421875 -0.984375 
z
M 9.421875 75.984375 
L 18.40625 75.984375 
L 18.40625 64.59375 
L 9.421875 64.59375 
z
" id="BitstreamVeraSans-Roman-6a"/>
     <path d="M 18.3125 70.21875 
L 18.3125 54.6875 
L 36.8125 54.6875 
L 36.8125 47.703125 
L 18.3125 47.703125 
L 18.3125 18.015625 
Q 18.3125 11.328125 20.140625 9.421875 
Q 21.96875 7.515625 27.59375 7.515625 
L 36.8125 7.515625 
L 36.8125 0 
L 27.59375 0 
Q 17.1875 0 13.234375 3.875 
Q 9.28125 7.765625 9.28125 18.015625 
L 9.28125 47.703125 
L 2.6875 47.703125 
L 2.6875 54.6875 
L 9.28125 54.6875 
L 9.28125 70.21875 
z
" id="BitstreamVeraSans-Roman-74"/>
    </defs>
    <g transform="translate(154.4595 18.14175)scale(0.144 -0.144)">
     <use xlink:href="#BitstreamVeraSans-Roman-41"/>
     <use x="68.330078125" xlink:href="#BitstreamVeraSans-Roman-76"/>
     <use x="127.509765625" xlink:href="#BitstreamVeraSans-Roman-65"/>
     <use x="189.033203125" xlink:href="#BitstreamVeraSans-Roman-72"/>
     <use x="230.146484375" xlink:href="#BitstreamVeraSans-Roman-61"/>
     <use x="291.42578125" xlink:href="#BitstreamVeraSans-Roman-67"/>
     <use x="354.90234375" xlink:href="#BitstreamVeraSans-Roman-65"/>
     <use x="416.42578125" xlink:href="#BitstreamVeraSans-Roman-20"/>
     <use x="448.212890625" xlink:href="#BitstreamVeraSans-Roman-6d"/>
     <use x="545.625" xlink:href="#BitstreamVeraSans-Roman-61"/>
     <use x="606.904296875" xlink:href="#BitstreamVeraSans-Roman-78"/>
     <use x="666.083984375" xlink:href="#BitstreamVeraSans-Roman-51"/>
     <use x="744.794921875" xlink:href="#BitstreamVeraSans-Roman-20"/>
     <use x="776.58203125" xlink:href="#BitstreamVeraSans-Roman-70"/>
     <use x="840.05859375" xlink:href="#BitstreamVeraSans-Roman-65"/>
     <use x="901.58203125" xlink:href="#BitstreamVeraSans-Roman-72"/>
     <use x="942.6953125" xlink:href="#BitstreamVeraSans-Roman-20"/>
     <use x="974.482421875" xlink:href="#BitstreamVeraSans-Roman-65"/>
     <use x="1036.005859375" xlink:href="#BitstreamVeraSans-Roman-70"/>
     <use x="1099.482421875" xlink:href="#BitstreamVeraSans-Roman-69"/>
     <use x="1127.265625" xlink:href="#BitstreamVeraSans-Roman-73"/>
     <use x="1179.365234375" xlink:href="#BitstreamVeraSans-Roman-6f"/>
     <use x="1240.546875" xlink:href="#BitstreamVeraSans-Roman-64"/>
     <use x="1304.0234375" xlink:href="#BitstreamVeraSans-Roman-65"/>
     <use x="1365.546875" xlink:href="#BitstreamVeraSans-Roman-2c"/>
     <use x="1397.333984375" xlink:href="#BitstreamVeraSans-Roman-20"/>
     <use x="1429.12109375" xlink:href="#BitstreamVeraSans-Roman-6a"/>
     <use x="1456.904296875" xlink:href="#BitstreamVeraSans-Roman-6f"/>
     <use x="1518.0859375" xlink:href="#BitstreamVeraSans-Roman-69"/>
     <use x="1545.869140625" xlink:href="#BitstreamVeraSans-Roman-6e"/>
     <use x="1609.248046875" xlink:href="#BitstreamVeraSans-Roman-74"/>
     <use x="1648.45703125" xlink:href="#BitstreamVeraSans-Roman-32"/>
    </g>
   </g>
  </g>
 </g>
 <defs>
  <clipPath id="pa189556e82">
   <rect height="345.6" width="446.4" x="54.5325" y="23.14175"/>
  </clipPath>
 </defs>
</svg>
