<?xml version="1.0" encoding="utf-8" standalone="no"?>
<!DOCTYPE svg PUBLIC "-//W3C//DTD SVG 1.1//EN"
  "http://www.w3.org/Graphics/SVG/1.1/DTD/svg11.dtd">
<!-- Created with matplotlib (http://matplotlib.org/) -->
<svg height="408pt" version="1.1" viewBox="0 0 510 408" width="510pt" xmlns="http://www.w3.org/2000/svg" xmlns:xlink="http://www.w3.org/1999/xlink">
 <defs>
  <style type="text/css">
*{stroke-linecap:butt;stroke-linejoin:round;stroke-miterlimit:100000;}
  </style>
 </defs>
 <g id="figure_1">
  <g id="patch_1">
   <path d="M 0 408.16925 
L 510.039375 408.16925 
L 510.039375 0 
L 0 0 
z
" style="fill:#ffffff;"/>
  </g>
  <g id="axes_1">
   <g id="patch_2">
    <path d="M 46.8975 368.74175 
L 493.2975 368.74175 
L 493.2975 23.14175 
L 46.8975 23.14175 
z
" style="fill:#ffffff;"/>
   </g>
   <g id="PathCollection_1">
    <defs>
     <path d="M 0 2.236068 
C 0.593012 2.236068 1.161816 2.000462 1.581139 1.581139 
C 2.000462 1.161816 2.236068 0.593012 2.236068 0 
C 2.236068 -0.593012 2.000462 -1.161816 1.581139 -1.581139 
C 1.161816 -2.000462 0.593012 -2.236068 0 -2.236068 
C -0.593012 -2.236068 -1.161816 -2.000462 -1.581139 -1.581139 
C -2.000462 -1.161816 -2.236068 -0.593012 -2.236068 0 
C -2.236068 0.593012 -2.000462 1.161816 -1.581139 1.581139 
C -1.161816 2.000462 -0.593012 2.236068 0 2.236068 
z
" id="mb094abad1d" style="stroke:#000000;"/>
    </defs>
    <g clip-path="url(#pd656b22565)">
     <use style="fill:#0000ff;stroke:#000000;" x="270.087849281" xlink:href="#mb094abad1d" y="219.620679138"/>
     <use style="fill:#0000ff;stroke:#000000;" x="270.097504437" xlink:href="#mb094abad1d" y="201.007463501"/>
     <use style="fill:#0000ff;stroke:#000000;" x="270.097504437" xlink:href="#mb094abad1d" y="201.735939453"/>
     <use style="fill:#0000ff;stroke:#000000;" x="270.73180459" xlink:href="#mb094abad1d" y="198.951605652"/>
     <use style="fill:#0000ff;stroke:#000000;" x="277.075277992" xlink:href="#mb094abad1d" y="185.803319214"/>
     <use style="fill:#0000ff;stroke:#000000;" x="283.418727196" xlink:href="#mb094abad1d" y="166.087295959"/>
     <use style="fill:#0000ff;stroke:#000000;" x="289.7621885" xlink:href="#mb094abad1d" y="156.419478271"/>
     <use style="fill:#0000ff;stroke:#000000;" x="296.105722398" xlink:href="#mb094abad1d" y="165.86140332"/>
     <use style="fill:#0000ff;stroke:#000000;" x="302.449159503" xlink:href="#mb094abad1d" y="159.922688721"/>
     <use style="fill:#0000ff;stroke:#000000;" x="309.426957257" xlink:href="#mb094abad1d" y="164.331158875"/>
     <use style="fill:#0000ff;stroke:#000000;" x="314.501745658" xlink:href="#mb094abad1d" y="156.954155396"/>
     <use style="fill:#0000ff;stroke:#000000;" x="308.158284355" xlink:href="#mb094abad1d" y="169.813844727"/>
     <use style="fill:#0000ff;stroke:#000000;" x="301.814810953" xlink:href="#mb094abad1d" y="162.617003296"/>
     <use style="fill:#0000ff;stroke:#000000;" x="295.471301253" xlink:href="#mb094abad1d" y="140.58557019"/>
     <use style="fill:#0000ff;stroke:#000000;" x="289.12782785" xlink:href="#mb094abad1d" y="140.561922119"/>
     <use style="fill:#0000ff;stroke:#000000;" x="284.052978953" xlink:href="#mb094abad1d" y="155.238145874"/>
     <use style="fill:#0000ff;stroke:#000000;" x="290.39653705" xlink:href="#mb094abad1d" y="145.281525085"/>
     <use style="fill:#0000ff;stroke:#000000;" x="296.739998353" xlink:href="#mb094abad1d" y="132.392625854"/>
     <use style="fill:#0000ff;stroke:#000000;" x="302.449159503" xlink:href="#mb094abad1d" y="119.745315979"/>
     <use style="fill:#0000ff;stroke:#000000;" x="303.083508053" xlink:href="#mb094abad1d" y="117.717308472"/>
     <use style="fill:#0000ff;stroke:#000000;" x="309.426896761" xlink:href="#mb094abad1d" y="122.034152649"/>
     <use style="fill:#0000ff;stroke:#000000;" x="315.770515354" xlink:href="#mb094abad1d" y="110.424885986"/>
     <use style="fill:#0000ff;stroke:#000000;" x="322.114170244" xlink:href="#mb094abad1d" y="99.6916691284"/>
     <use style="fill:#0000ff;stroke:#000000;" x="328.457776738" xlink:href="#mb094abad1d" y="76.8689320068"/>
     <use style="fill:#0000ff;stroke:#000000;" x="334.802230175" xlink:href="#mb094abad1d" y="77.1912296753"/>
     <use style="fill:#0000ff;stroke:#000000;" x="341.146659413" xlink:href="#mb094abad1d" y="79.3900059204"/>
     <use style="fill:#0000ff;stroke:#000000;" x="347.491306437" xlink:href="#mb094abad1d" y="85.5671375732"/>
     <use style="fill:#0000ff;stroke:#000000;" x="353.835929263" xlink:href="#mb094abad1d" y="92.7272297363"/>
     <use style="fill:#0000ff;stroke:#000000;" x="360.180261708" xlink:href="#mb094abad1d" y="97.1979099731"/>
     <use style="fill:#0000ff;stroke:#000000;" x="366.524594153" xlink:href="#mb094abad1d" y="110.765063904"/>
     <use style="fill:#0000ff;stroke:#000000;" x="372.868781408" xlink:href="#mb094abad1d" y="107.950490234"/>
     <use style="fill:#0000ff;stroke:#000000;" x="379.21316225" xlink:href="#mb094abad1d" y="108.103955505"/>
     <use style="fill:#0000ff;stroke:#000000;" x="385.557446298" xlink:href="#mb094abad1d" y="109.978209351"/>
     <use style="fill:#0000ff;stroke:#000000;" x="391.90182714" xlink:href="#mb094abad1d" y="125.787686584"/>
     <use style="fill:#0000ff;stroke:#000000;" x="398.2459418" xlink:href="#mb094abad1d" y="107.186088989"/>
     <use style="fill:#0000ff;stroke:#000000;" x="404.590250046" xlink:href="#mb094abad1d" y="97.2267078857"/>
     <use style="fill:#0000ff;stroke:#000000;" x="410.934388904" xlink:href="#mb094abad1d" y="103.318352173"/>
     <use style="fill:#0000ff;stroke:#000000;" x="417.277801811" xlink:href="#mb094abad1d" y="116.428529785"/>
     <use style="fill:#0000ff;stroke:#000000;" x="423.622231049" xlink:href="#mb094abad1d" y="140.500989197"/>
     <use style="fill:#0000ff;stroke:#000000;" x="111.109033463" xlink:href="#mb094abad1d" y="182.815834473"/>
     <use style="fill:#0000ff;stroke:#000000;" x="117.452833544" xlink:href="#mb094abad1d" y="135.88199353"/>
     <use style="fill:#0000ff;stroke:#000000;" x="123.797359576" xlink:href="#mb094abad1d" y="115.560266541"/>
     <use style="fill:#0000ff;stroke:#000000;" x="130.141837211" xlink:href="#mb094abad1d" y="139.813299988"/>
     <use style="fill:#0000ff;stroke:#000000;" x="136.486460037" xlink:href="#mb094abad1d" y="123.781226013"/>
     <use style="fill:#0000ff;stroke:#000000;" x="142.831082863" xlink:href="#mb094abad1d" y="132.095747803"/>
     <use style="fill:#0000ff;stroke:#000000;" x="149.175415308" xlink:href="#mb094abad1d" y="101.626855896"/>
     <use style="fill:#0000ff;stroke:#000000;" x="155.51994134" xlink:href="#mb094abad1d" y="86.9906773071"/>
     <use style="fill:#0000ff;stroke:#000000;" x="161.864515769" xlink:href="#mb094abad1d" y="98.9371967773"/>
     <use style="fill:#0000ff;stroke:#000000;" x="168.208993404" xlink:href="#mb094abad1d" y="125.35460553"/>
     <use style="fill:#0000ff;stroke:#000000;" x="174.553664627" xlink:href="#mb094abad1d" y="95.5479420166"/>
     <use style="fill:#0000ff;stroke:#000000;" x="180.89712593" xlink:href="#mb094abad1d" y="63.362793396"/>
     <use style="fill:#0000ff;stroke:#000000;" x="187.241119598" xlink:href="#mb094abad1d" y="73.1250797729"/>
     <use style="fill:#0000ff;stroke:#000000;" x="193.585500439" xlink:href="#mb094abad1d" y="100.164960144"/>
     <use style="fill:#0000ff;stroke:#000000;" x="199.930026472" xlink:href="#mb094abad1d" y="90.3353962402"/>
     <use style="fill:#0000ff;stroke:#000000;" x="206.27445571" xlink:href="#mb094abad1d" y="103.939175842"/>
     <use style="fill:#0000ff;stroke:#000000;" x="212.618836552" xlink:href="#mb094abad1d" y="80.2543552856"/>
     <use style="fill:#0000ff;stroke:#000000;" x="218.328493769" xlink:href="#mb094abad1d" y="149.830936096"/>
     <use style="fill:#0000ff;stroke:#000000;" x="218.328445372" xlink:href="#mb094abad1d" y="90.5911991577"/>
     <use style="fill:#0000ff;stroke:#000000;" x="218.328445372" xlink:href="#mb094abad1d" y="127.539374207"/>
     <use style="fill:#0000ff;stroke:#000000;" x="218.962927013" xlink:href="#mb094abad1d" y="127.68822522"/>
     <use style="fill:#0000ff;stroke:#000000;" x="225.307259458" xlink:href="#mb094abad1d" y="142.110417603"/>
     <use style="fill:#0000ff;stroke:#000000;" x="231.017158659" xlink:href="#mb094abad1d" y="130.76758313"/>
     <use style="fill:#0000ff;stroke:#000000;" x="231.651543507" xlink:href="#mb094abad1d" y="149.718669556"/>
     <use style="fill:#0000ff;stroke:#000000;" x="237.361539501" xlink:href="#mb094abad1d" y="146.201822327"/>
     <use style="fill:#0000ff;stroke:#000000;" x="237.996021142" xlink:href="#mb094abad1d" y="117.485442017"/>
     <use style="fill:#0000ff;stroke:#000000;" x="244.340111603" xlink:href="#mb094abad1d" y="110.730621765"/>
     <use style="fill:#0000ff;stroke:#000000;" x="250.684492445" xlink:href="#mb094abad1d" y="146.053795288"/>
     <use style="fill:#0000ff;stroke:#000000;" x="257.028631303" xlink:href="#mb094abad1d" y="161.294235657"/>
     <use style="fill:#0000ff;stroke:#000000;" x="263.373108938" xlink:href="#mb094abad1d" y="170.407436035"/>
     <use style="fill:#0000ff;stroke:#000000;" x="269.717828558" xlink:href="#mb094abad1d" y="163.248291443"/>
     <use style="fill:#0000ff;stroke:#000000;" x="274.793439704" xlink:href="#mb094abad1d" y="164.588238953"/>
     <use style="fill:#0000ff;stroke:#000000;" x="269.083879281" xlink:href="#mb094abad1d" y="178.940434692"/>
     <use style="fill:#0000ff;stroke:#000000;" x="269.718360922" xlink:href="#mb094abad1d" y="173.794754456"/>
     <use style="fill:#0000ff;stroke:#000000;" x="276.0622094" xlink:href="#mb094abad1d" y="198.440123413"/>
     <use style="fill:#0000ff;stroke:#000000;" x="282.40586429" xlink:href="#mb094abad1d" y="213.317232178"/>
     <use style="fill:#0000ff;stroke:#000000;" x="288.749809561" xlink:href="#mb094abad1d" y="202.16799054"/>
     <use style="fill:#0000ff;stroke:#000000;" x="295.093270864" xlink:href="#mb094abad1d" y="182.43655896"/>
     <use style="fill:#0000ff;stroke:#000000;" x="301.437167738" xlink:href="#mb094abad1d" y="195.102243469"/>
     <use style="fill:#0000ff;stroke:#000000;" x="307.781064612" xlink:href="#mb094abad1d" y="224.419054077"/>
     <use style="fill:#0000ff;stroke:#000000;" x="314.125106677" xlink:href="#mb094abad1d" y="227.862155579"/>
     <use style="fill:#0000ff;stroke:#000000;" x="319.834763894" xlink:href="#mb094abad1d" y="210.817252014"/>
     <use style="fill:#0000ff;stroke:#000000;" x="319.834763894" xlink:href="#mb094abad1d" y="194.514584778"/>
     <use style="fill:#0000ff;stroke:#000000;" x="320.469148741" xlink:href="#mb094abad1d" y="168.89857373"/>
     <use style="fill:#0000ff;stroke:#000000;" x="326.178612371" xlink:href="#mb094abad1d" y="162.766019104"/>
     <use style="fill:#0000ff;stroke:#000000;" x="326.178612371" xlink:href="#mb094abad1d" y="146.597124146"/>
     <use style="fill:#0000ff;stroke:#000000;" x="326.178612371" xlink:href="#mb094abad1d" y="150.542190979"/>
     <use style="fill:#0000ff;stroke:#000000;" x="326.178612371" xlink:href="#mb094abad1d" y="185.908046387"/>
     <use style="fill:#0000ff;stroke:#000000;" x="325.544179126" xlink:href="#mb094abad1d" y="218.727284668"/>
     <use style="fill:#0000ff;stroke:#000000;" x="319.200137062" xlink:href="#mb094abad1d" y="219.504539917"/>
     <use style="fill:#0000ff;stroke:#000000;" x="312.855853014" xlink:href="#mb094abad1d" y="227.35553479"/>
     <use style="fill:#0000ff;stroke:#000000;" x="306.511568965" xlink:href="#mb094abad1d" y="248.398280762"/>
     <use style="fill:#0000ff;stroke:#000000;" x="300.801669765" xlink:href="#mb094abad1d" y="266.280136536"/>
     <use style="fill:#0000ff;stroke:#000000;" x="300.801669765" xlink:href="#mb094abad1d" y="257.370787476"/>
     <use style="fill:#0000ff;stroke:#000000;" x="301.436103009" xlink:href="#mb094abad1d" y="266.186368225"/>
     <use style="fill:#0000ff;stroke:#000000;" x="307.145905416" xlink:href="#mb094abad1d" y="254.299257324"/>
     <use style="fill:#0000ff;stroke:#000000;" x="306.511520569" xlink:href="#mb094abad1d" y="245.597961853"/>
     <use style="fill:#0000ff;stroke:#000000;" x="300.167478504" xlink:href="#mb094abad1d" y="249.857251404"/>
     <use style="fill:#0000ff;stroke:#000000;" x="293.823339646" xlink:href="#mb094abad1d" y="263.442862366"/>
     <use style="fill:#0000ff;stroke:#000000;" x="287.479055598" xlink:href="#mb094abad1d" y="278.239262817"/>
     <use style="fill:#0000ff;stroke:#000000;" x="281.134771549" xlink:href="#mb094abad1d" y="298.409296082"/>
     <use style="fill:#0000ff;stroke:#000000;" x="274.790439104" xlink:href="#mb094abad1d" y="286.169812439"/>
     <use style="fill:#0000ff;stroke:#000000;" x="269.080491507" xlink:href="#mb094abad1d" y="314.857106445"/>
     <use style="fill:#0000ff;stroke:#000000;" x="268.446058263" xlink:href="#mb094abad1d" y="312.231634949"/>
     <use style="fill:#0000ff;stroke:#000000;" x="262.736352649" xlink:href="#mb094abad1d" y="294.129489563"/>
     <use style="fill:#0000ff;stroke:#000000;" x="262.736352649" xlink:href="#mb094abad1d" y="274.888281677"/>
     <use style="fill:#0000ff;stroke:#000000;" x="263.370785894" xlink:href="#mb094abad1d" y="236.554716919"/>
     <use style="fill:#0000ff;stroke:#000000;" x="269.715118339" xlink:href="#mb094abad1d" y="215.309190796"/>
     <use style="fill:#0000ff;stroke:#000000;" x="276.059305593" xlink:href="#mb094abad1d" y="204.147630737"/>
     <use style="fill:#0000ff;stroke:#000000;" x="282.403589642" xlink:href="#mb094abad1d" y="190.371887634"/>
     <use style="fill:#0000ff;stroke:#000000;" x="288.747776896" xlink:href="#mb094abad1d" y="185.226207397"/>
     <use style="fill:#0000ff;stroke:#000000;" x="295.091915754" xlink:href="#mb094abad1d" y="188.533517883"/>
     <use style="fill:#0000ff;stroke:#000000;" x="301.436151406" xlink:href="#mb094abad1d" y="177.398572205"/>
     <use style="fill:#0000ff;stroke:#000000;" x="307.780435454" xlink:href="#mb094abad1d" y="159.672406433"/>
     <use style="fill:#0000ff;stroke:#000000;" x="314.124671106" xlink:href="#mb094abad1d" y="161.212579773"/>
     <use style="fill:#0000ff;stroke:#000000;" x="320.46871317" xlink:href="#mb094abad1d" y="160.043401001"/>
     <use style="fill:#0000ff;stroke:#000000;" x="326.812658441" xlink:href="#mb094abad1d" y="154.14431958"/>
     <use style="fill:#0000ff;stroke:#000000;" x="333.157184473" xlink:href="#mb094abad1d" y="165.572188232"/>
     <use style="fill:#0000ff;stroke:#000000;" x="339.501807299" xlink:href="#mb094abad1d" y="159.535132263"/>
     <use style="fill:#0000ff;stroke:#000000;" x="344.577515239" xlink:href="#mb094abad1d" y="139.929027222"/>
     <use style="fill:#0000ff;stroke:#000000;" x="338.867422451" xlink:href="#mb094abad1d" y="152.172053955"/>
     <use style="fill:#0000ff;stroke:#000000;" x="339.501904093" xlink:href="#mb094abad1d" y="153.961150024"/>
     <use style="fill:#0000ff;stroke:#000000;" x="345.846720505" xlink:href="#mb094abad1d" y="141.040527771"/>
     <use style="fill:#0000ff;stroke:#000000;" x="352.191198141" xlink:href="#mb094abad1d" y="140.241478394"/>
     <use style="fill:#0000ff;stroke:#000000;" x="358.535724173" xlink:href="#mb094abad1d" y="152.235129211"/>
     <use style="fill:#0000ff;stroke:#000000;" x="363.611432113" xlink:href="#mb094abad1d" y="141.759981201"/>
     <use style="fill:#0000ff;stroke:#000000;" x="358.536014554" xlink:href="#mb094abad1d" y="110.659306763"/>
     <use style="fill:#0000ff;stroke:#000000;" x="364.880492189" xlink:href="#mb094abad1d" y="100.901511047"/>
     <use style="fill:#0000ff;stroke:#000000;" x="371.224873031" xlink:href="#mb094abad1d" y="99.8910297852"/>
     <use style="fill:#0000ff;stroke:#000000;" x="377.569302269" xlink:href="#mb094abad1d" y="104.057004211"/>
     <use style="fill:#0000ff;stroke:#000000;" x="383.913537921" xlink:href="#mb094abad1d" y="112.415814636"/>
     <use style="fill:#0000ff;stroke:#000000;" x="390.257676779" xlink:href="#mb094abad1d" y="103.502634094"/>
     <use style="fill:#0000ff;stroke:#000000;" x="396.60191243" xlink:href="#mb094abad1d" y="105.637923096"/>
     <use style="fill:#0000ff;stroke:#000000;" x="402.311956821" xlink:href="#mb094abad1d" y="137.63277478"/>
     <use style="fill:#0000ff;stroke:#000000;" x="402.946341669" xlink:href="#mb094abad1d" y="119.447902344"/>
     <use style="fill:#0000ff;stroke:#000000;" x="408.65624087" xlink:href="#mb094abad1d" y="90.1273426514"/>
     <use style="fill:#0000ff;stroke:#000000;" x="408.022146403" xlink:href="#mb094abad1d" y="99.1132389526"/>
     <use style="fill:#0000ff;stroke:#000000;" x="402.313311931" xlink:href="#mb094abad1d" y="118.667268799"/>
     <use style="fill:#0000ff;stroke:#000000;" x="402.947696779" xlink:href="#mb094abad1d" y="123.329564331"/>
     <use style="fill:#0000ff;stroke:#000000;" x="409.292029224" xlink:href="#mb094abad1d" y="114.072580383"/>
     <use style="fill:#0000ff;stroke:#000000;" x="415.001928424" xlink:href="#mb094abad1d" y="105.590791748"/>
     <use style="fill:#0000ff;stroke:#000000;" x="415.001880027" xlink:href="#mb094abad1d" y="110.496200989"/>
     <use style="fill:#0000ff;stroke:#000000;" x="415.001880027" xlink:href="#mb094abad1d" y="111.799152039"/>
     <use style="fill:#0000ff;stroke:#000000;" x="415.001880027" xlink:href="#mb094abad1d" y="128.647455261"/>
     <use style="fill:#0000ff;stroke:#000000;" x="415.001880027" xlink:href="#mb094abad1d" y="126.718283508"/>
     <use style="fill:#0000ff;stroke:#000000;" x="415.001880027" xlink:href="#mb094abad1d" y="118.183966492"/>
     <use style="fill:#0000ff;stroke:#000000;" x="415.001880027" xlink:href="#mb094abad1d" y="131.469238708"/>
     <use style="fill:#0000ff;stroke:#000000;" x="415.001880027" xlink:href="#mb094abad1d" y="134.326865051"/>
     <use style="fill:#0000ff;stroke:#000000;" x="415.001880027" xlink:href="#mb094abad1d" y="118.590062378"/>
     <use style="fill:#0000ff;stroke:#000000;" x="415.001880027" xlink:href="#mb094abad1d" y="139.01264386"/>
     <use style="fill:#0000ff;stroke:#000000;" x="415.001880027" xlink:href="#mb094abad1d" y="158.371474121"/>
     <use style="fill:#0000ff;stroke:#000000;" x="415.001976821" xlink:href="#mb094abad1d" y="136.89774823"/>
     <use style="fill:#0000ff;stroke:#000000;" x="415.001976821" xlink:href="#mb094abad1d" y="138.722975586"/>
     <use style="fill:#0000ff;stroke:#000000;" x="415.001976821" xlink:href="#mb094abad1d" y="144.135211609"/>
     <use style="fill:#0000ff;stroke:#000000;" x="415.001976821" xlink:href="#mb094abad1d" y="161.684387634"/>
     <use style="fill:#0000ff;stroke:#000000;" x="415.001976821" xlink:href="#mb094abad1d" y="150.996036194"/>
     <use style="fill:#0000ff;stroke:#000000;" x="415.001976821" xlink:href="#mb094abad1d" y="151.872786377"/>
     <use style="fill:#0000ff;stroke:#000000;" x="415.001976821" xlink:href="#mb094abad1d" y="167.699113892"/>
     <use style="fill:#0000ff;stroke:#000000;" x="415.001976821" xlink:href="#mb094abad1d" y="217.975407837"/>
     <use style="fill:#0000ff;stroke:#000000;" x="415.001976821" xlink:href="#mb094abad1d" y="213.295602844"/>
     <use style="fill:#0000ff;stroke:#000000;" x="415.001976821" xlink:href="#mb094abad1d" y="166.315166138"/>
     <use style="fill:#0000ff;stroke:#000000;" x="415.001976821" xlink:href="#mb094abad1d" y="154.849930237"/>
     <use style="fill:#0000ff;stroke:#000000;" x="415.001976821" xlink:href="#mb094abad1d" y="176.919554565"/>
     <use style="fill:#0000ff;stroke:#000000;" x="415.001976821" xlink:href="#mb094abad1d" y="181.385744141"/>
     <use style="fill:#0000ff;stroke:#000000;" x="415.001976821" xlink:href="#mb094abad1d" y="182.736197327"/>
     <use style="fill:#0000ff;stroke:#000000;" x="415.001976821" xlink:href="#mb094abad1d" y="176.152063416"/>
     <use style="fill:#0000ff;stroke:#000000;" x="415.001976821" xlink:href="#mb094abad1d" y="170.748437927"/>
     <use style="fill:#0000ff;stroke:#000000;" x="415.001976821" xlink:href="#mb094abad1d" y="176.981435059"/>
     <use style="fill:#0000ff;stroke:#000000;" x="415.001976821" xlink:href="#mb094abad1d" y="164.598785828"/>
     <use style="fill:#0000ff;stroke:#000000;" x="415.001976821" xlink:href="#mb094abad1d" y="157.295157288"/>
     <use style="fill:#0000ff;stroke:#000000;" x="415.001976821" xlink:href="#mb094abad1d" y="161.789938782"/>
     <use style="fill:#0000ff;stroke:#000000;" x="414.36749518" xlink:href="#mb094abad1d" y="158.060753296"/>
     <use style="fill:#0000ff;stroke:#000000;" x="408.657160408" xlink:href="#mb094abad1d" y="193.963428162"/>
     <use style="fill:#0000ff;stroke:#000000;" x="408.657160408" xlink:href="#mb094abad1d" y="203.994247864"/>
     <use style="fill:#0000ff;stroke:#000000;" x="408.657160408" xlink:href="#mb094abad1d" y="183.280556152"/>
     <use style="fill:#0000ff;stroke:#000000;" x="408.657160408" xlink:href="#mb094abad1d" y="183.21344342"/>
     <use style="fill:#0000ff;stroke:#000000;" x="408.657160408" xlink:href="#mb094abad1d" y="201.574358032"/>
     <use style="fill:#0000ff;stroke:#000000;" x="408.657160408" xlink:href="#mb094abad1d" y="213.311340759"/>
     <use style="fill:#0000ff;stroke:#000000;" x="408.657160408" xlink:href="#mb094abad1d" y="200.017046021"/>
     <use style="fill:#0000ff;stroke:#000000;" x="408.657160408" xlink:href="#mb094abad1d" y="197.471129272"/>
     <use style="fill:#0000ff;stroke:#000000;" x="408.657160408" xlink:href="#mb094abad1d" y="201.960719727"/>
     <use style="fill:#0000ff;stroke:#000000;" x="408.657160408" xlink:href="#mb094abad1d" y="219.924148987"/>
     <use style="fill:#0000ff;stroke:#000000;" x="408.657160408" xlink:href="#mb094abad1d" y="198.274339722"/>
     <use style="fill:#0000ff;stroke:#000000;" x="408.657160408" xlink:href="#mb094abad1d" y="199.36346936"/>
     <use style="fill:#0000ff;stroke:#000000;" x="408.657160408" xlink:href="#mb094abad1d" y="202.28511853"/>
     <use style="fill:#0000ff;stroke:#000000;" x="408.657160408" xlink:href="#mb094abad1d" y="205.856348083"/>
     <use style="fill:#0000ff;stroke:#000000;" x="408.657160408" xlink:href="#mb094abad1d" y="222.825651978"/>
     <use style="fill:#0000ff;stroke:#000000;" x="408.657160408" xlink:href="#mb094abad1d" y="230.443420837"/>
     <use style="fill:#0000ff;stroke:#000000;" x="408.657160408" xlink:href="#mb094abad1d" y="221.471985291"/>
     <use style="fill:#0000ff;stroke:#000000;" x="408.657160408" xlink:href="#mb094abad1d" y="220.731273315"/>
     <use style="fill:#0000ff;stroke:#000000;" x="408.657160408" xlink:href="#mb094abad1d" y="216.3507771"/>
     <use style="fill:#0000ff;stroke:#000000;" x="408.657160408" xlink:href="#mb094abad1d" y="213.087796448"/>
     <use style="fill:#0000ff;stroke:#000000;" x="408.657160408" xlink:href="#mb094abad1d" y="209.810437439"/>
     <use style="fill:#0000ff;stroke:#000000;" x="408.657160408" xlink:href="#mb094abad1d" y="212.041307495"/>
     <use style="fill:#0000ff;stroke:#000000;" x="408.657160408" xlink:href="#mb094abad1d" y="211.920265625"/>
     <use style="fill:#0000ff;stroke:#000000;" x="408.657160408" xlink:href="#mb094abad1d" y="227.525191162"/>
     <use style="fill:#0000ff;stroke:#000000;" x="408.657160408" xlink:href="#mb094abad1d" y="215.174553345"/>
     <use style="fill:#0000ff;stroke:#000000;" x="408.657160408" xlink:href="#mb094abad1d" y="222.687801025"/>
     <use style="fill:#0000ff;stroke:#000000;" x="408.657160408" xlink:href="#mb094abad1d" y="224.112370728"/>
     <use style="fill:#0000ff;stroke:#000000;" x="408.657160408" xlink:href="#mb094abad1d" y="213.960138367"/>
     <use style="fill:#0000ff;stroke:#000000;" x="408.657160408" xlink:href="#mb094abad1d" y="203.812726257"/>
    </g>
   </g>
   <g id="patch_3">
    <path d="M 493.2975 368.74175 
L 493.2975 23.14175 
" style="fill:none;stroke:#000000;stroke-linecap:square;stroke-linejoin:miter;"/>
   </g>
   <g id="patch_4">
    <path d="M 46.8975 368.74175 
L 46.8975 23.14175 
" style="fill:none;stroke:#000000;stroke-linecap:square;stroke-linejoin:miter;"/>
   </g>
   <g id="patch_5">
    <path d="M 46.8975 368.74175 
L 493.2975 368.74175 
" style="fill:none;stroke:#000000;stroke-linecap:square;stroke-linejoin:miter;"/>
   </g>
   <g id="patch_6">
    <path d="M 46.8975 23.14175 
L 493.2975 23.14175 
" style="fill:none;stroke:#000000;stroke-linecap:square;stroke-linejoin:miter;"/>
   </g>
   <g id="matplotlib.axis_1">
    <g id="xtick_1">
     <g id="line2d_1">
      <defs>
       <path d="M 0 0 
L 0 -4 
" id="m346f49ab7d" style="stroke:#000000;stroke-width:0.5;"/>
      </defs>
      <g>
       <use style="stroke:#000000;stroke-width:0.5;" x="46.8975" xlink:href="#m346f49ab7d" y="368.74175"/>
      </g>
     </g>
     <g id="line2d_2">
      <defs>
       <path d="M 0 0 
L 0 4 
" id="m03c308057b" style="stroke:#000000;stroke-width:0.5;"/>
      </defs>
      <g>
       <use style="stroke:#000000;stroke-width:0.5;" x="46.8975" xlink:href="#m03c308057b" y="23.14175"/>
      </g>
     </g>
     <g id="text_1">
      <!-- −0.2 -->
      <defs>
       <path d="M 10.59375 35.5 
L 73.1875 35.5 
L 73.1875 27.203125 
L 10.59375 27.203125 
z
" id="BitstreamVeraSans-Roman-2212"/>
       <path d="M 10.6875 12.40625 
L 21 12.40625 
L 21 0 
L 10.6875 0 
z
" id="BitstreamVeraSans-Roman-2e"/>
       <path d="M 31.78125 66.40625 
Q 24.171875 66.40625 20.328125 58.90625 
Q 16.5 51.421875 16.5 36.375 
Q 16.5 21.390625 20.328125 13.890625 
Q 24.171875 6.390625 31.78125 6.390625 
Q 39.453125 6.390625 43.28125 13.890625 
Q 47.125 21.390625 47.125 36.375 
Q 47.125 51.421875 43.28125 58.90625 
Q 39.453125 66.40625 31.78125 66.40625 
M 31.78125 74.21875 
Q 44.046875 74.21875 50.515625 64.515625 
Q 56.984375 54.828125 56.984375 36.375 
Q 56.984375 17.96875 50.515625 8.265625 
Q 44.046875 -1.421875 31.78125 -1.421875 
Q 19.53125 -1.421875 13.0625 8.265625 
Q 6.59375 17.96875 6.59375 36.375 
Q 6.59375 54.828125 13.0625 64.515625 
Q 19.53125 74.21875 31.78125 74.21875 
" id="BitstreamVeraSans-Roman-30"/>
       <path d="M 19.1875 8.296875 
L 53.609375 8.296875 
L 53.609375 0 
L 7.328125 0 
L 7.328125 8.296875 
Q 12.9375 14.109375 22.625 23.890625 
Q 32.328125 33.6875 34.8125 36.53125 
Q 39.546875 41.84375 41.421875 45.53125 
Q 43.3125 49.21875 43.3125 52.78125 
Q 43.3125 58.59375 39.234375 62.25 
Q 35.15625 65.921875 28.609375 65.921875 
Q 23.96875 65.921875 18.8125 64.3125 
Q 13.671875 62.703125 7.8125 59.421875 
L 7.8125 69.390625 
Q 13.765625 71.78125 18.9375 73 
Q 24.125 74.21875 28.421875 74.21875 
Q 39.75 74.21875 46.484375 68.546875 
Q 53.21875 62.890625 53.21875 53.421875 
Q 53.21875 48.921875 51.53125 44.890625 
Q 49.859375 40.875 45.40625 35.40625 
Q 44.1875 33.984375 37.640625 27.21875 
Q 31.109375 20.453125 19.1875 8.296875 
" id="BitstreamVeraSans-Roman-32"/>
      </defs>
      <g transform="translate(32.3278125 381.859875)scale(0.12 -0.12)">
       <use xlink:href="#BitstreamVeraSans-Roman-2212"/>
       <use x="83.7890625" xlink:href="#BitstreamVeraSans-Roman-30"/>
       <use x="147.412109375" xlink:href="#BitstreamVeraSans-Roman-2e"/>
       <use x="179.19921875" xlink:href="#BitstreamVeraSans-Roman-32"/>
      </g>
     </g>
    </g>
    <g id="xtick_2">
     <g id="line2d_3">
      <g>
       <use style="stroke:#000000;stroke-width:0.5;" x="110.668928571" xlink:href="#m346f49ab7d" y="368.74175"/>
      </g>
     </g>
     <g id="line2d_4">
      <g>
       <use style="stroke:#000000;stroke-width:0.5;" x="110.668928571" xlink:href="#m03c308057b" y="23.14175"/>
      </g>
     </g>
     <g id="text_2">
      <!-- 0.0 -->
      <g transform="translate(101.127053571 381.859875)scale(0.12 -0.12)">
       <use xlink:href="#BitstreamVeraSans-Roman-30"/>
       <use x="63.623046875" xlink:href="#BitstreamVeraSans-Roman-2e"/>
       <use x="95.41015625" xlink:href="#BitstreamVeraSans-Roman-30"/>
      </g>
     </g>
    </g>
    <g id="xtick_3">
     <g id="line2d_5">
      <g>
       <use style="stroke:#000000;stroke-width:0.5;" x="174.440357143" xlink:href="#m346f49ab7d" y="368.74175"/>
      </g>
     </g>
     <g id="line2d_6">
      <g>
       <use style="stroke:#000000;stroke-width:0.5;" x="174.440357143" xlink:href="#m03c308057b" y="23.14175"/>
      </g>
     </g>
     <g id="text_3">
      <!-- 0.2 -->
      <g transform="translate(164.898482143 381.859875)scale(0.12 -0.12)">
       <use xlink:href="#BitstreamVeraSans-Roman-30"/>
       <use x="63.623046875" xlink:href="#BitstreamVeraSans-Roman-2e"/>
       <use x="95.41015625" xlink:href="#BitstreamVeraSans-Roman-32"/>
      </g>
     </g>
    </g>
    <g id="xtick_4">
     <g id="line2d_7">
      <g>
       <use style="stroke:#000000;stroke-width:0.5;" x="238.211785714" xlink:href="#m346f49ab7d" y="368.74175"/>
      </g>
     </g>
     <g id="line2d_8">
      <g>
       <use style="stroke:#000000;stroke-width:0.5;" x="238.211785714" xlink:href="#m03c308057b" y="23.14175"/>
      </g>
     </g>
     <g id="text_4">
      <!-- 0.4 -->
      <defs>
       <path d="M 37.796875 64.3125 
L 12.890625 25.390625 
L 37.796875 25.390625 
z
M 35.203125 72.90625 
L 47.609375 72.90625 
L 47.609375 25.390625 
L 58.015625 25.390625 
L 58.015625 17.1875 
L 47.609375 17.1875 
L 47.609375 0 
L 37.796875 0 
L 37.796875 17.1875 
L 4.890625 17.1875 
L 4.890625 26.703125 
z
" id="BitstreamVeraSans-Roman-34"/>
      </defs>
      <g transform="translate(228.669910714 381.859875)scale(0.12 -0.12)">
       <use xlink:href="#BitstreamVeraSans-Roman-30"/>
       <use x="63.623046875" xlink:href="#BitstreamVeraSans-Roman-2e"/>
       <use x="95.41015625" xlink:href="#BitstreamVeraSans-Roman-34"/>
      </g>
     </g>
    </g>
    <g id="xtick_5">
     <g id="line2d_9">
      <g>
       <use style="stroke:#000000;stroke-width:0.5;" x="301.983214286" xlink:href="#m346f49ab7d" y="368.74175"/>
      </g>
     </g>
     <g id="line2d_10">
      <g>
       <use style="stroke:#000000;stroke-width:0.5;" x="301.983214286" xlink:href="#m03c308057b" y="23.14175"/>
      </g>
     </g>
     <g id="text_5">
      <!-- 0.6 -->
      <defs>
       <path d="M 33.015625 40.375 
Q 26.375 40.375 22.484375 35.828125 
Q 18.609375 31.296875 18.609375 23.390625 
Q 18.609375 15.53125 22.484375 10.953125 
Q 26.375 6.390625 33.015625 6.390625 
Q 39.65625 6.390625 43.53125 10.953125 
Q 47.40625 15.53125 47.40625 23.390625 
Q 47.40625 31.296875 43.53125 35.828125 
Q 39.65625 40.375 33.015625 40.375 
M 52.59375 71.296875 
L 52.59375 62.3125 
Q 48.875 64.0625 45.09375 64.984375 
Q 41.3125 65.921875 37.59375 65.921875 
Q 27.828125 65.921875 22.671875 59.328125 
Q 17.53125 52.734375 16.796875 39.40625 
Q 19.671875 43.65625 24.015625 45.921875 
Q 28.375 48.1875 33.59375 48.1875 
Q 44.578125 48.1875 50.953125 41.515625 
Q 57.328125 34.859375 57.328125 23.390625 
Q 57.328125 12.15625 50.6875 5.359375 
Q 44.046875 -1.421875 33.015625 -1.421875 
Q 20.359375 -1.421875 13.671875 8.265625 
Q 6.984375 17.96875 6.984375 36.375 
Q 6.984375 53.65625 15.1875 63.9375 
Q 23.390625 74.21875 37.203125 74.21875 
Q 40.921875 74.21875 44.703125 73.484375 
Q 48.484375 72.75 52.59375 71.296875 
" id="BitstreamVeraSans-Roman-36"/>
      </defs>
      <g transform="translate(292.441339286 381.859875)scale(0.12 -0.12)">
       <use xlink:href="#BitstreamVeraSans-Roman-30"/>
       <use x="63.623046875" xlink:href="#BitstreamVeraSans-Roman-2e"/>
       <use x="95.41015625" xlink:href="#BitstreamVeraSans-Roman-36"/>
      </g>
     </g>
    </g>
    <g id="xtick_6">
     <g id="line2d_11">
      <g>
       <use style="stroke:#000000;stroke-width:0.5;" x="365.754642857" xlink:href="#m346f49ab7d" y="368.74175"/>
      </g>
     </g>
     <g id="line2d_12">
      <g>
       <use style="stroke:#000000;stroke-width:0.5;" x="365.754642857" xlink:href="#m03c308057b" y="23.14175"/>
      </g>
     </g>
     <g id="text_6">
      <!-- 0.8 -->
      <defs>
       <path d="M 31.78125 34.625 
Q 24.75 34.625 20.71875 30.859375 
Q 16.703125 27.09375 16.703125 20.515625 
Q 16.703125 13.921875 20.71875 10.15625 
Q 24.75 6.390625 31.78125 6.390625 
Q 38.8125 6.390625 42.859375 10.171875 
Q 46.921875 13.96875 46.921875 20.515625 
Q 46.921875 27.09375 42.890625 30.859375 
Q 38.875 34.625 31.78125 34.625 
M 21.921875 38.8125 
Q 15.578125 40.375 12.03125 44.71875 
Q 8.5 49.078125 8.5 55.328125 
Q 8.5 64.0625 14.71875 69.140625 
Q 20.953125 74.21875 31.78125 74.21875 
Q 42.671875 74.21875 48.875 69.140625 
Q 55.078125 64.0625 55.078125 55.328125 
Q 55.078125 49.078125 51.53125 44.71875 
Q 48 40.375 41.703125 38.8125 
Q 48.828125 37.15625 52.796875 32.3125 
Q 56.78125 27.484375 56.78125 20.515625 
Q 56.78125 9.90625 50.3125 4.234375 
Q 43.84375 -1.421875 31.78125 -1.421875 
Q 19.734375 -1.421875 13.25 4.234375 
Q 6.78125 9.90625 6.78125 20.515625 
Q 6.78125 27.484375 10.78125 32.3125 
Q 14.796875 37.15625 21.921875 38.8125 
M 18.3125 54.390625 
Q 18.3125 48.734375 21.84375 45.5625 
Q 25.390625 42.390625 31.78125 42.390625 
Q 38.140625 42.390625 41.71875 45.5625 
Q 45.3125 48.734375 45.3125 54.390625 
Q 45.3125 60.0625 41.71875 63.234375 
Q 38.140625 66.40625 31.78125 66.40625 
Q 25.390625 66.40625 21.84375 63.234375 
Q 18.3125 60.0625 18.3125 54.390625 
" id="BitstreamVeraSans-Roman-38"/>
      </defs>
      <g transform="translate(356.212767857 381.859875)scale(0.12 -0.12)">
       <use xlink:href="#BitstreamVeraSans-Roman-30"/>
       <use x="63.623046875" xlink:href="#BitstreamVeraSans-Roman-2e"/>
       <use x="95.41015625" xlink:href="#BitstreamVeraSans-Roman-38"/>
      </g>
     </g>
    </g>
    <g id="xtick_7">
     <g id="line2d_13">
      <g>
       <use style="stroke:#000000;stroke-width:0.5;" x="429.526071429" xlink:href="#m346f49ab7d" y="368.74175"/>
      </g>
     </g>
     <g id="line2d_14">
      <g>
       <use style="stroke:#000000;stroke-width:0.5;" x="429.526071429" xlink:href="#m03c308057b" y="23.14175"/>
      </g>
     </g>
     <g id="text_7">
      <!-- 1.0 -->
      <defs>
       <path d="M 12.40625 8.296875 
L 28.515625 8.296875 
L 28.515625 63.921875 
L 10.984375 60.40625 
L 10.984375 69.390625 
L 28.421875 72.90625 
L 38.28125 72.90625 
L 38.28125 8.296875 
L 54.390625 8.296875 
L 54.390625 0 
L 12.40625 0 
z
" id="BitstreamVeraSans-Roman-31"/>
      </defs>
      <g transform="translate(419.984196429 381.859875)scale(0.12 -0.12)">
       <use xlink:href="#BitstreamVeraSans-Roman-31"/>
       <use x="63.623046875" xlink:href="#BitstreamVeraSans-Roman-2e"/>
       <use x="95.41015625" xlink:href="#BitstreamVeraSans-Roman-30"/>
      </g>
     </g>
    </g>
    <g id="xtick_8">
     <g id="line2d_15">
      <g>
       <use style="stroke:#000000;stroke-width:0.5;" x="493.2975" xlink:href="#m346f49ab7d" y="368.74175"/>
      </g>
     </g>
     <g id="line2d_16">
      <g>
       <use style="stroke:#000000;stroke-width:0.5;" x="493.2975" xlink:href="#m03c308057b" y="23.14175"/>
      </g>
     </g>
     <g id="text_8">
      <!-- 1.2 -->
      <g transform="translate(483.755625 381.859875)scale(0.12 -0.12)">
       <use xlink:href="#BitstreamVeraSans-Roman-31"/>
       <use x="63.623046875" xlink:href="#BitstreamVeraSans-Roman-2e"/>
       <use x="95.41015625" xlink:href="#BitstreamVeraSans-Roman-32"/>
      </g>
     </g>
    </g>
    <g id="text_9">
     <!-- normalized angle -->
     <defs>
      <path d="M 45.40625 46.390625 
L 45.40625 75.984375 
L 54.390625 75.984375 
L 54.390625 0 
L 45.40625 0 
L 45.40625 8.203125 
Q 42.578125 3.328125 38.25 0.953125 
Q 33.9375 -1.421875 27.875 -1.421875 
Q 17.96875 -1.421875 11.734375 6.484375 
Q 5.515625 14.40625 5.515625 27.296875 
Q 5.515625 40.1875 11.734375 48.09375 
Q 17.96875 56 27.875 56 
Q 33.9375 56 38.25 53.625 
Q 42.578125 51.265625 45.40625 46.390625 
M 14.796875 27.296875 
Q 14.796875 17.390625 18.875 11.75 
Q 22.953125 6.109375 30.078125 6.109375 
Q 37.203125 6.109375 41.296875 11.75 
Q 45.40625 17.390625 45.40625 27.296875 
Q 45.40625 37.203125 41.296875 42.84375 
Q 37.203125 48.484375 30.078125 48.484375 
Q 22.953125 48.484375 18.875 42.84375 
Q 14.796875 37.203125 14.796875 27.296875 
" id="BitstreamVeraSans-Roman-64"/>
      <path id="BitstreamVeraSans-Roman-20"/>
      <path d="M 52 44.1875 
Q 55.375 50.25 60.0625 53.125 
Q 64.75 56 71.09375 56 
Q 79.640625 56 84.28125 50.015625 
Q 88.921875 44.046875 88.921875 33.015625 
L 88.921875 0 
L 79.890625 0 
L 79.890625 32.71875 
Q 79.890625 40.578125 77.09375 44.375 
Q 74.3125 48.1875 68.609375 48.1875 
Q 61.625 48.1875 57.5625 43.546875 
Q 53.515625 38.921875 53.515625 30.90625 
L 53.515625 0 
L 44.484375 0 
L 44.484375 32.71875 
Q 44.484375 40.625 41.703125 44.40625 
Q 38.921875 48.1875 33.109375 48.1875 
Q 26.21875 48.1875 22.15625 43.53125 
Q 18.109375 38.875 18.109375 30.90625 
L 18.109375 0 
L 9.078125 0 
L 9.078125 54.6875 
L 18.109375 54.6875 
L 18.109375 46.1875 
Q 21.1875 51.21875 25.484375 53.609375 
Q 29.78125 56 35.6875 56 
Q 41.65625 56 45.828125 52.96875 
Q 50 49.953125 52 44.1875 
" id="BitstreamVeraSans-Roman-6d"/>
      <path d="M 56.203125 29.59375 
L 56.203125 25.203125 
L 14.890625 25.203125 
Q 15.484375 15.921875 20.484375 11.0625 
Q 25.484375 6.203125 34.421875 6.203125 
Q 39.59375 6.203125 44.453125 7.46875 
Q 49.3125 8.734375 54.109375 11.28125 
L 54.109375 2.78125 
Q 49.265625 0.734375 44.1875 -0.34375 
Q 39.109375 -1.421875 33.890625 -1.421875 
Q 20.796875 -1.421875 13.15625 6.1875 
Q 5.515625 13.8125 5.515625 26.8125 
Q 5.515625 40.234375 12.765625 48.109375 
Q 20.015625 56 32.328125 56 
Q 43.359375 56 49.78125 48.890625 
Q 56.203125 41.796875 56.203125 29.59375 
M 47.21875 32.234375 
Q 47.125 39.59375 43.09375 43.984375 
Q 39.0625 48.390625 32.421875 48.390625 
Q 24.90625 48.390625 20.390625 44.140625 
Q 15.875 39.890625 15.1875 32.171875 
z
" id="BitstreamVeraSans-Roman-65"/>
      <path d="M 5.515625 54.6875 
L 48.1875 54.6875 
L 48.1875 46.484375 
L 14.40625 7.171875 
L 48.1875 7.171875 
L 48.1875 0 
L 4.296875 0 
L 4.296875 8.203125 
L 38.09375 47.515625 
L 5.515625 47.515625 
z
" id="BitstreamVeraSans-Roman-7a"/>
      <path d="M 45.40625 27.984375 
Q 45.40625 37.75 41.375 43.109375 
Q 37.359375 48.484375 30.078125 48.484375 
Q 22.859375 48.484375 18.828125 43.109375 
Q 14.796875 37.75 14.796875 27.984375 
Q 14.796875 18.265625 18.828125 12.890625 
Q 22.859375 7.515625 30.078125 7.515625 
Q 37.359375 7.515625 41.375 12.890625 
Q 45.40625 18.265625 45.40625 27.984375 
M 54.390625 6.78125 
Q 54.390625 -7.171875 48.1875 -13.984375 
Q 42 -20.796875 29.203125 -20.796875 
Q 24.46875 -20.796875 20.265625 -20.09375 
Q 16.0625 -19.390625 12.109375 -17.921875 
L 12.109375 -9.1875 
Q 16.0625 -11.328125 19.921875 -12.34375 
Q 23.78125 -13.375 27.78125 -13.375 
Q 36.625 -13.375 41.015625 -8.765625 
Q 45.40625 -4.15625 45.40625 5.171875 
L 45.40625 9.625 
Q 42.625 4.78125 38.28125 2.390625 
Q 33.9375 0 27.875 0 
Q 17.828125 0 11.671875 7.65625 
Q 5.515625 15.328125 5.515625 27.984375 
Q 5.515625 40.671875 11.671875 48.328125 
Q 17.828125 56 27.875 56 
Q 33.9375 56 38.28125 53.609375 
Q 42.625 51.21875 45.40625 46.390625 
L 45.40625 54.6875 
L 54.390625 54.6875 
z
" id="BitstreamVeraSans-Roman-67"/>
      <path d="M 34.28125 27.484375 
Q 23.390625 27.484375 19.1875 25 
Q 14.984375 22.515625 14.984375 16.5 
Q 14.984375 11.71875 18.140625 8.90625 
Q 21.296875 6.109375 26.703125 6.109375 
Q 34.1875 6.109375 38.703125 11.40625 
Q 43.21875 16.703125 43.21875 25.484375 
L 43.21875 27.484375 
z
M 52.203125 31.203125 
L 52.203125 0 
L 43.21875 0 
L 43.21875 8.296875 
Q 40.140625 3.328125 35.546875 0.953125 
Q 30.953125 -1.421875 24.3125 -1.421875 
Q 15.921875 -1.421875 10.953125 3.296875 
Q 6 8.015625 6 15.921875 
Q 6 25.140625 12.171875 29.828125 
Q 18.359375 34.515625 30.609375 34.515625 
L 43.21875 34.515625 
L 43.21875 35.40625 
Q 43.21875 41.609375 39.140625 45 
Q 35.0625 48.390625 27.6875 48.390625 
Q 23 48.390625 18.546875 47.265625 
Q 14.109375 46.140625 10.015625 43.890625 
L 10.015625 52.203125 
Q 14.9375 54.109375 19.578125 55.046875 
Q 24.21875 56 28.609375 56 
Q 40.484375 56 46.34375 49.84375 
Q 52.203125 43.703125 52.203125 31.203125 
" id="BitstreamVeraSans-Roman-61"/>
      <path d="M 54.890625 33.015625 
L 54.890625 0 
L 45.90625 0 
L 45.90625 32.71875 
Q 45.90625 40.484375 42.875 44.328125 
Q 39.84375 48.1875 33.796875 48.1875 
Q 26.515625 48.1875 22.3125 43.546875 
Q 18.109375 38.921875 18.109375 30.90625 
L 18.109375 0 
L 9.078125 0 
L 9.078125 54.6875 
L 18.109375 54.6875 
L 18.109375 46.1875 
Q 21.34375 51.125 25.703125 53.5625 
Q 30.078125 56 35.796875 56 
Q 45.21875 56 50.046875 50.171875 
Q 54.890625 44.34375 54.890625 33.015625 
" id="BitstreamVeraSans-Roman-6e"/>
      <path d="M 30.609375 48.390625 
Q 23.390625 48.390625 19.1875 42.75 
Q 14.984375 37.109375 14.984375 27.296875 
Q 14.984375 17.484375 19.15625 11.84375 
Q 23.34375 6.203125 30.609375 6.203125 
Q 37.796875 6.203125 41.984375 11.859375 
Q 46.1875 17.53125 46.1875 27.296875 
Q 46.1875 37.015625 41.984375 42.703125 
Q 37.796875 48.390625 30.609375 48.390625 
M 30.609375 56 
Q 42.328125 56 49.015625 48.375 
Q 55.71875 40.765625 55.71875 27.296875 
Q 55.71875 13.875 49.015625 6.21875 
Q 42.328125 -1.421875 30.609375 -1.421875 
Q 18.84375 -1.421875 12.171875 6.21875 
Q 5.515625 13.875 5.515625 27.296875 
Q 5.515625 40.765625 12.171875 48.375 
Q 18.84375 56 30.609375 56 
" id="BitstreamVeraSans-Roman-6f"/>
      <path d="M 9.421875 75.984375 
L 18.40625 75.984375 
L 18.40625 0 
L 9.421875 0 
z
" id="BitstreamVeraSans-Roman-6c"/>
      <path d="M 9.421875 54.6875 
L 18.40625 54.6875 
L 18.40625 0 
L 9.421875 0 
z
M 9.421875 75.984375 
L 18.40625 75.984375 
L 18.40625 64.59375 
L 9.421875 64.59375 
z
" id="BitstreamVeraSans-Roman-69"/>
      <path d="M 41.109375 46.296875 
Q 39.59375 47.171875 37.8125 47.578125 
Q 36.03125 48 33.890625 48 
Q 26.265625 48 22.1875 43.046875 
Q 18.109375 38.09375 18.109375 28.8125 
L 18.109375 0 
L 9.078125 0 
L 9.078125 54.6875 
L 18.109375 54.6875 
L 18.109375 46.1875 
Q 20.953125 51.171875 25.484375 53.578125 
Q 30.03125 56 36.53125 56 
Q 37.453125 56 38.578125 55.875 
Q 39.703125 55.765625 41.0625 55.515625 
z
" id="BitstreamVeraSans-Roman-72"/>
     </defs>
     <g transform="translate(218.0990625 398.473625)scale(0.12 -0.12)">
      <use xlink:href="#BitstreamVeraSans-Roman-6e"/>
      <use x="63.37890625" xlink:href="#BitstreamVeraSans-Roman-6f"/>
      <use x="124.560546875" xlink:href="#BitstreamVeraSans-Roman-72"/>
      <use x="165.658203125" xlink:href="#BitstreamVeraSans-Roman-6d"/>
      <use x="263.0703125" xlink:href="#BitstreamVeraSans-Roman-61"/>
      <use x="324.349609375" xlink:href="#BitstreamVeraSans-Roman-6c"/>
      <use x="352.1328125" xlink:href="#BitstreamVeraSans-Roman-69"/>
      <use x="379.916015625" xlink:href="#BitstreamVeraSans-Roman-7a"/>
      <use x="432.40625" xlink:href="#BitstreamVeraSans-Roman-65"/>
      <use x="493.9296875" xlink:href="#BitstreamVeraSans-Roman-64"/>
      <use x="557.40625" xlink:href="#BitstreamVeraSans-Roman-20"/>
      <use x="589.193359375" xlink:href="#BitstreamVeraSans-Roman-61"/>
      <use x="650.47265625" xlink:href="#BitstreamVeraSans-Roman-6e"/>
      <use x="713.8515625" xlink:href="#BitstreamVeraSans-Roman-67"/>
      <use x="777.328125" xlink:href="#BitstreamVeraSans-Roman-6c"/>
      <use x="805.111328125" xlink:href="#BitstreamVeraSans-Roman-65"/>
     </g>
    </g>
   </g>
   <g id="matplotlib.axis_2">
    <g id="ytick_1">
     <g id="line2d_17">
      <defs>
       <path d="M 0 0 
L 4 0 
" id="m8a7897e3d6" style="stroke:#000000;stroke-width:0.5;"/>
      </defs>
      <g>
       <use style="stroke:#000000;stroke-width:0.5;" x="46.8975" xlink:href="#m8a7897e3d6" y="368.74175"/>
      </g>
     </g>
     <g id="line2d_18">
      <defs>
       <path d="M 0 0 
L -4 0 
" id="m34df9e1aa8" style="stroke:#000000;stroke-width:0.5;"/>
      </defs>
      <g>
       <use style="stroke:#000000;stroke-width:0.5;" x="493.2975" xlink:href="#m34df9e1aa8" y="368.74175"/>
      </g>
     </g>
     <g id="text_10">
      <!-- 3.5 -->
      <defs>
       <path d="M 10.796875 72.90625 
L 49.515625 72.90625 
L 49.515625 64.59375 
L 19.828125 64.59375 
L 19.828125 46.734375 
Q 21.96875 47.46875 24.109375 47.828125 
Q 26.265625 48.1875 28.421875 48.1875 
Q 40.625 48.1875 47.75 41.5 
Q 54.890625 34.8125 54.890625 23.390625 
Q 54.890625 11.625 47.5625 5.09375 
Q 40.234375 -1.421875 26.90625 -1.421875 
Q 22.3125 -1.421875 17.546875 -0.640625 
Q 12.796875 0.140625 7.71875 1.703125 
L 7.71875 11.625 
Q 12.109375 9.234375 16.796875 8.0625 
Q 21.484375 6.890625 26.703125 6.890625 
Q 35.15625 6.890625 40.078125 11.328125 
Q 45.015625 15.765625 45.015625 23.390625 
Q 45.015625 31 40.078125 35.4375 
Q 35.15625 39.890625 26.703125 39.890625 
Q 22.75 39.890625 18.8125 39.015625 
Q 14.890625 38.140625 10.796875 36.28125 
z
" id="BitstreamVeraSans-Roman-35"/>
       <path d="M 40.578125 39.3125 
Q 47.65625 37.796875 51.625 33 
Q 55.609375 28.21875 55.609375 21.1875 
Q 55.609375 10.40625 48.1875 4.484375 
Q 40.765625 -1.421875 27.09375 -1.421875 
Q 22.515625 -1.421875 17.65625 -0.515625 
Q 12.796875 0.390625 7.625 2.203125 
L 7.625 11.71875 
Q 11.71875 9.328125 16.59375 8.109375 
Q 21.484375 6.890625 26.8125 6.890625 
Q 36.078125 6.890625 40.9375 10.546875 
Q 45.796875 14.203125 45.796875 21.1875 
Q 45.796875 27.640625 41.28125 31.265625 
Q 36.765625 34.90625 28.71875 34.90625 
L 20.21875 34.90625 
L 20.21875 43.015625 
L 29.109375 43.015625 
Q 36.375 43.015625 40.234375 45.921875 
Q 44.09375 48.828125 44.09375 54.296875 
Q 44.09375 59.90625 40.109375 62.90625 
Q 36.140625 65.921875 28.71875 65.921875 
Q 24.65625 65.921875 20.015625 65.03125 
Q 15.375 64.15625 9.8125 62.3125 
L 9.8125 71.09375 
Q 15.4375 72.65625 20.34375 73.4375 
Q 25.25 74.21875 29.59375 74.21875 
Q 40.828125 74.21875 47.359375 69.109375 
Q 53.90625 64.015625 53.90625 55.328125 
Q 53.90625 49.265625 50.4375 45.09375 
Q 46.96875 40.921875 40.578125 39.3125 
" id="BitstreamVeraSans-Roman-33"/>
      </defs>
      <g transform="translate(23.81375 372.053)scale(0.12 -0.12)">
       <use xlink:href="#BitstreamVeraSans-Roman-33"/>
       <use x="63.623046875" xlink:href="#BitstreamVeraSans-Roman-2e"/>
       <use x="95.41015625" xlink:href="#BitstreamVeraSans-Roman-35"/>
      </g>
     </g>
    </g>
    <g id="ytick_2">
     <g id="line2d_19">
      <g>
       <use style="stroke:#000000;stroke-width:0.5;" x="46.8975" xlink:href="#m8a7897e3d6" y="325.54175"/>
      </g>
     </g>
     <g id="line2d_20">
      <g>
       <use style="stroke:#000000;stroke-width:0.5;" x="493.2975" xlink:href="#m34df9e1aa8" y="325.54175"/>
      </g>
     </g>
     <g id="text_11">
      <!-- 4.0 -->
      <g transform="translate(23.81375 328.853)scale(0.12 -0.12)">
       <use xlink:href="#BitstreamVeraSans-Roman-34"/>
       <use x="63.623046875" xlink:href="#BitstreamVeraSans-Roman-2e"/>
       <use x="95.41015625" xlink:href="#BitstreamVeraSans-Roman-30"/>
      </g>
     </g>
    </g>
    <g id="ytick_3">
     <g id="line2d_21">
      <g>
       <use style="stroke:#000000;stroke-width:0.5;" x="46.8975" xlink:href="#m8a7897e3d6" y="282.34175"/>
      </g>
     </g>
     <g id="line2d_22">
      <g>
       <use style="stroke:#000000;stroke-width:0.5;" x="493.2975" xlink:href="#m34df9e1aa8" y="282.34175"/>
      </g>
     </g>
     <g id="text_12">
      <!-- 4.5 -->
      <g transform="translate(23.81375 285.653)scale(0.12 -0.12)">
       <use xlink:href="#BitstreamVeraSans-Roman-34"/>
       <use x="63.623046875" xlink:href="#BitstreamVeraSans-Roman-2e"/>
       <use x="95.41015625" xlink:href="#BitstreamVeraSans-Roman-35"/>
      </g>
     </g>
    </g>
    <g id="ytick_4">
     <g id="line2d_23">
      <g>
       <use style="stroke:#000000;stroke-width:0.5;" x="46.8975" xlink:href="#m8a7897e3d6" y="239.14175"/>
      </g>
     </g>
     <g id="line2d_24">
      <g>
       <use style="stroke:#000000;stroke-width:0.5;" x="493.2975" xlink:href="#m34df9e1aa8" y="239.14175"/>
      </g>
     </g>
     <g id="text_13">
      <!-- 5.0 -->
      <g transform="translate(23.81375 242.453)scale(0.12 -0.12)">
       <use xlink:href="#BitstreamVeraSans-Roman-35"/>
       <use x="63.623046875" xlink:href="#BitstreamVeraSans-Roman-2e"/>
       <use x="95.41015625" xlink:href="#BitstreamVeraSans-Roman-30"/>
      </g>
     </g>
    </g>
    <g id="ytick_5">
     <g id="line2d_25">
      <g>
       <use style="stroke:#000000;stroke-width:0.5;" x="46.8975" xlink:href="#m8a7897e3d6" y="195.94175"/>
      </g>
     </g>
     <g id="line2d_26">
      <g>
       <use style="stroke:#000000;stroke-width:0.5;" x="493.2975" xlink:href="#m34df9e1aa8" y="195.94175"/>
      </g>
     </g>
     <g id="text_14">
      <!-- 5.5 -->
      <g transform="translate(23.81375 199.253)scale(0.12 -0.12)">
       <use xlink:href="#BitstreamVeraSans-Roman-35"/>
       <use x="63.623046875" xlink:href="#BitstreamVeraSans-Roman-2e"/>
       <use x="95.41015625" xlink:href="#BitstreamVeraSans-Roman-35"/>
      </g>
     </g>
    </g>
    <g id="ytick_6">
     <g id="line2d_27">
      <g>
       <use style="stroke:#000000;stroke-width:0.5;" x="46.8975" xlink:href="#m8a7897e3d6" y="152.74175"/>
      </g>
     </g>
     <g id="line2d_28">
      <g>
       <use style="stroke:#000000;stroke-width:0.5;" x="493.2975" xlink:href="#m34df9e1aa8" y="152.74175"/>
      </g>
     </g>
     <g id="text_15">
      <!-- 6.0 -->
      <g transform="translate(23.81375 156.053)scale(0.12 -0.12)">
       <use xlink:href="#BitstreamVeraSans-Roman-36"/>
       <use x="63.623046875" xlink:href="#BitstreamVeraSans-Roman-2e"/>
       <use x="95.41015625" xlink:href="#BitstreamVeraSans-Roman-30"/>
      </g>
     </g>
    </g>
    <g id="ytick_7">
     <g id="line2d_29">
      <g>
       <use style="stroke:#000000;stroke-width:0.5;" x="46.8975" xlink:href="#m8a7897e3d6" y="109.54175"/>
      </g>
     </g>
     <g id="line2d_30">
      <g>
       <use style="stroke:#000000;stroke-width:0.5;" x="493.2975" xlink:href="#m34df9e1aa8" y="109.54175"/>
      </g>
     </g>
     <g id="text_16">
      <!-- 6.5 -->
      <g transform="translate(23.81375 112.853)scale(0.12 -0.12)">
       <use xlink:href="#BitstreamVeraSans-Roman-36"/>
       <use x="63.623046875" xlink:href="#BitstreamVeraSans-Roman-2e"/>
       <use x="95.41015625" xlink:href="#BitstreamVeraSans-Roman-35"/>
      </g>
     </g>
    </g>
    <g id="ytick_8">
     <g id="line2d_31">
      <g>
       <use style="stroke:#000000;stroke-width:0.5;" x="46.8975" xlink:href="#m8a7897e3d6" y="66.34175"/>
      </g>
     </g>
     <g id="line2d_32">
      <g>
       <use style="stroke:#000000;stroke-width:0.5;" x="493.2975" xlink:href="#m34df9e1aa8" y="66.34175"/>
      </g>
     </g>
     <g id="text_17">
      <!-- 7.0 -->
      <defs>
       <path d="M 8.203125 72.90625 
L 55.078125 72.90625 
L 55.078125 68.703125 
L 28.609375 0 
L 18.3125 0 
L 43.21875 64.59375 
L 8.203125 64.59375 
z
" id="BitstreamVeraSans-Roman-37"/>
      </defs>
      <g transform="translate(23.81375 69.653)scale(0.12 -0.12)">
       <use xlink:href="#BitstreamVeraSans-Roman-37"/>
       <use x="63.623046875" xlink:href="#BitstreamVeraSans-Roman-2e"/>
       <use x="95.41015625" xlink:href="#BitstreamVeraSans-Roman-30"/>
      </g>
     </g>
    </g>
    <g id="ytick_9">
     <g id="line2d_33">
      <g>
       <use style="stroke:#000000;stroke-width:0.5;" x="46.8975" xlink:href="#m8a7897e3d6" y="23.14175"/>
      </g>
     </g>
     <g id="line2d_34">
      <g>
       <use style="stroke:#000000;stroke-width:0.5;" x="493.2975" xlink:href="#m34df9e1aa8" y="23.14175"/>
      </g>
     </g>
     <g id="text_18">
      <!-- 7.5 -->
      <g transform="translate(23.81375 26.453)scale(0.12 -0.12)">
       <use xlink:href="#BitstreamVeraSans-Roman-37"/>
       <use x="63.623046875" xlink:href="#BitstreamVeraSans-Roman-2e"/>
       <use x="95.41015625" xlink:href="#BitstreamVeraSans-Roman-35"/>
      </g>
     </g>
    </g>
    <g id="text_19">
     <!-- max Q-value -->
     <defs>
      <path d="M 2.984375 54.6875 
L 12.5 54.6875 
L 29.59375 8.796875 
L 46.6875 54.6875 
L 56.203125 54.6875 
L 35.6875 0 
L 23.484375 0 
z
" id="BitstreamVeraSans-Roman-76"/>
      <path d="M 4.890625 31.390625 
L 31.203125 31.390625 
L 31.203125 23.390625 
L 4.890625 23.390625 
z
" id="BitstreamVeraSans-Roman-2d"/>
      <path d="M 39.40625 66.21875 
Q 28.65625 66.21875 22.328125 58.203125 
Q 16.015625 50.203125 16.015625 36.375 
Q 16.015625 22.609375 22.328125 14.59375 
Q 28.65625 6.59375 39.40625 6.59375 
Q 50.140625 6.59375 56.421875 14.59375 
Q 62.703125 22.609375 62.703125 36.375 
Q 62.703125 50.203125 56.421875 58.203125 
Q 50.140625 66.21875 39.40625 66.21875 
M 53.21875 1.3125 
L 66.21875 -12.890625 
L 54.296875 -12.890625 
L 43.5 -1.21875 
Q 41.890625 -1.3125 41.03125 -1.359375 
Q 40.1875 -1.421875 39.40625 -1.421875 
Q 24.03125 -1.421875 14.8125 8.859375 
Q 5.609375 19.140625 5.609375 36.375 
Q 5.609375 53.65625 14.8125 63.9375 
Q 24.03125 74.21875 39.40625 74.21875 
Q 54.734375 74.21875 63.90625 63.9375 
Q 73.09375 53.65625 73.09375 36.375 
Q 73.09375 23.6875 67.984375 14.640625 
Q 62.890625 5.609375 53.21875 1.3125 
" id="BitstreamVeraSans-Roman-51"/>
      <path d="M 8.5 21.578125 
L 8.5 54.6875 
L 17.484375 54.6875 
L 17.484375 21.921875 
Q 17.484375 14.15625 20.5 10.265625 
Q 23.53125 6.390625 29.59375 6.390625 
Q 36.859375 6.390625 41.078125 11.03125 
Q 45.3125 15.671875 45.3125 23.6875 
L 45.3125 54.6875 
L 54.296875 54.6875 
L 54.296875 0 
L 45.3125 0 
L 45.3125 8.40625 
Q 42.046875 3.421875 37.71875 1 
Q 33.40625 -1.421875 27.6875 -1.421875 
Q 18.265625 -1.421875 13.375 4.4375 
Q 8.5 10.296875 8.5 21.578125 
" id="BitstreamVeraSans-Roman-75"/>
      <path d="M 54.890625 54.6875 
L 35.109375 28.078125 
L 55.90625 0 
L 45.3125 0 
L 29.390625 21.484375 
L 13.484375 0 
L 2.875 0 
L 24.125 28.609375 
L 4.6875 54.6875 
L 15.28125 54.6875 
L 29.78125 35.203125 
L 44.28125 54.6875 
z
" id="BitstreamVeraSans-Roman-78"/>
     </defs>
     <g transform="translate(16.318125 234.1983125)rotate(-90.0)scale(0.12 -0.12)">
      <use xlink:href="#BitstreamVeraSans-Roman-6d"/>
      <use x="97.412109375" xlink:href="#BitstreamVeraSans-Roman-61"/>
      <use x="158.69140625" xlink:href="#BitstreamVeraSans-Roman-78"/>
      <use x="217.87109375" xlink:href="#BitstreamVeraSans-Roman-20"/>
      <use x="249.658203125" xlink:href="#BitstreamVeraSans-Roman-51"/>
      <use x="328.400390625" xlink:href="#BitstreamVeraSans-Roman-2d"/>
      <use x="364.453125" xlink:href="#BitstreamVeraSans-Roman-76"/>
      <use x="423.6328125" xlink:href="#BitstreamVeraSans-Roman-61"/>
      <use x="484.912109375" xlink:href="#BitstreamVeraSans-Roman-6c"/>
      <use x="512.6953125" xlink:href="#BitstreamVeraSans-Roman-75"/>
      <use x="576.07421875" xlink:href="#BitstreamVeraSans-Roman-65"/>
     </g>
    </g>
   </g>
   <g id="text_20">
    <!-- Max Q-values for angles observed, joint6 -->
    <defs>
     <path d="M 9.8125 72.90625 
L 24.515625 72.90625 
L 43.109375 23.296875 
L 61.8125 72.90625 
L 76.515625 72.90625 
L 76.515625 0 
L 66.890625 0 
L 66.890625 64.015625 
L 48.09375 14.015625 
L 38.1875 14.015625 
L 19.390625 64.015625 
L 19.390625 0 
L 9.8125 0 
z
" id="BitstreamVeraSans-Roman-4d"/>
     <path d="M 48.6875 27.296875 
Q 48.6875 37.203125 44.609375 42.84375 
Q 40.53125 48.484375 33.40625 48.484375 
Q 26.265625 48.484375 22.1875 42.84375 
Q 18.109375 37.203125 18.109375 27.296875 
Q 18.109375 17.390625 22.1875 11.75 
Q 26.265625 6.109375 33.40625 6.109375 
Q 40.53125 6.109375 44.609375 11.75 
Q 48.6875 17.390625 48.6875 27.296875 
M 18.109375 46.390625 
Q 20.953125 51.265625 25.265625 53.625 
Q 29.59375 56 35.59375 56 
Q 45.5625 56 51.78125 48.09375 
Q 58.015625 40.1875 58.015625 27.296875 
Q 58.015625 14.40625 51.78125 6.484375 
Q 45.5625 -1.421875 35.59375 -1.421875 
Q 29.59375 -1.421875 25.265625 0.953125 
Q 20.953125 3.328125 18.109375 8.203125 
L 18.109375 0 
L 9.078125 0 
L 9.078125 75.984375 
L 18.109375 75.984375 
z
" id="BitstreamVeraSans-Roman-62"/>
     <path d="M 18.3125 70.21875 
L 18.3125 54.6875 
L 36.8125 54.6875 
L 36.8125 47.703125 
L 18.3125 47.703125 
L 18.3125 18.015625 
Q 18.3125 11.328125 20.140625 9.421875 
Q 21.96875 7.515625 27.59375 7.515625 
L 36.8125 7.515625 
L 36.8125 0 
L 27.59375 0 
Q 17.1875 0 13.234375 3.875 
Q 9.28125 7.765625 9.28125 18.015625 
L 9.28125 47.703125 
L 2.6875 47.703125 
L 2.6875 54.6875 
L 9.28125 54.6875 
L 9.28125 70.21875 
z
" id="BitstreamVeraSans-Roman-74"/>
     <path d="M 37.109375 75.984375 
L 37.109375 68.5 
L 28.515625 68.5 
Q 23.6875 68.5 21.796875 66.546875 
Q 19.921875 64.59375 19.921875 59.515625 
L 19.921875 54.6875 
L 34.71875 54.6875 
L 34.71875 47.703125 
L 19.921875 47.703125 
L 19.921875 0 
L 10.890625 0 
L 10.890625 47.703125 
L 2.296875 47.703125 
L 2.296875 54.6875 
L 10.890625 54.6875 
L 10.890625 58.5 
Q 10.890625 67.625 15.140625 71.796875 
Q 19.390625 75.984375 28.609375 75.984375 
z
" id="BitstreamVeraSans-Roman-66"/>
     <path d="M 11.71875 12.40625 
L 22.015625 12.40625 
L 22.015625 4 
L 14.015625 -11.625 
L 7.71875 -11.625 
L 11.71875 4 
z
" id="BitstreamVeraSans-Roman-2c"/>
     <path d="M 9.421875 54.6875 
L 18.40625 54.6875 
L 18.40625 -0.984375 
Q 18.40625 -11.421875 14.421875 -16.109375 
Q 10.453125 -20.796875 1.609375 -20.796875 
L -1.8125 -20.796875 
L -1.8125 -13.1875 
L 0.59375 -13.1875 
Q 5.71875 -13.1875 7.5625 -10.8125 
Q 9.421875 -8.453125 9.421875 -0.984375 
z
M 9.421875 75.984375 
L 18.40625 75.984375 
L 18.40625 64.59375 
L 9.421875 64.59375 
z
" id="BitstreamVeraSans-Roman-6a"/>
     <path d="M 44.28125 53.078125 
L 44.28125 44.578125 
Q 40.484375 46.53125 36.375 47.5 
Q 32.28125 48.484375 27.875 48.484375 
Q 21.1875 48.484375 17.84375 46.4375 
Q 14.5 44.390625 14.5 40.28125 
Q 14.5 37.15625 16.890625 35.375 
Q 19.28125 33.59375 26.515625 31.984375 
L 29.59375 31.296875 
Q 39.15625 29.25 43.1875 25.515625 
Q 47.21875 21.78125 47.21875 15.09375 
Q 47.21875 7.46875 41.1875 3.015625 
Q 35.15625 -1.421875 24.609375 -1.421875 
Q 20.21875 -1.421875 15.453125 -0.5625 
Q 10.6875 0.296875 5.421875 2 
L 5.421875 11.28125 
Q 10.40625 8.6875 15.234375 7.390625 
Q 20.0625 6.109375 24.8125 6.109375 
Q 31.15625 6.109375 34.5625 8.28125 
Q 37.984375 10.453125 37.984375 14.40625 
Q 37.984375 18.0625 35.515625 20.015625 
Q 33.0625 21.96875 24.703125 23.78125 
L 21.578125 24.515625 
Q 13.234375 26.265625 9.515625 29.90625 
Q 5.8125 33.546875 5.8125 39.890625 
Q 5.8125 47.609375 11.28125 51.796875 
Q 16.75 56 26.8125 56 
Q 31.78125 56 36.171875 55.265625 
Q 40.578125 54.546875 44.28125 53.078125 
" id="BitstreamVeraSans-Roman-73"/>
    </defs>
    <g transform="translate(122.41875 18.14175)scale(0.144 -0.144)">
     <use xlink:href="#BitstreamVeraSans-Roman-4d"/>
     <use x="86.279296875" xlink:href="#BitstreamVeraSans-Roman-61"/>
     <use x="147.55859375" xlink:href="#BitstreamVeraSans-Roman-78"/>
     <use x="206.73828125" xlink:href="#BitstreamVeraSans-Roman-20"/>
     <use x="238.525390625" xlink:href="#BitstreamVeraSans-Roman-51"/>
     <use x="317.267578125" xlink:href="#BitstreamVeraSans-Roman-2d"/>
     <use x="353.3203125" xlink:href="#BitstreamVeraSans-Roman-76"/>
     <use x="412.5" xlink:href="#BitstreamVeraSans-Roman-61"/>
     <use x="473.779296875" xlink:href="#BitstreamVeraSans-Roman-6c"/>
     <use x="501.5625" xlink:href="#BitstreamVeraSans-Roman-75"/>
     <use x="564.94140625" xlink:href="#BitstreamVeraSans-Roman-65"/>
     <use x="626.46484375" xlink:href="#BitstreamVeraSans-Roman-73"/>
     <use x="678.564453125" xlink:href="#BitstreamVeraSans-Roman-20"/>
     <use x="710.3515625" xlink:href="#BitstreamVeraSans-Roman-66"/>
     <use x="745.556640625" xlink:href="#BitstreamVeraSans-Roman-6f"/>
     <use x="806.73828125" xlink:href="#BitstreamVeraSans-Roman-72"/>
     <use x="847.8515625" xlink:href="#BitstreamVeraSans-Roman-20"/>
     <use x="879.638671875" xlink:href="#BitstreamVeraSans-Roman-61"/>
     <use x="940.91796875" xlink:href="#BitstreamVeraSans-Roman-6e"/>
     <use x="1004.296875" xlink:href="#BitstreamVeraSans-Roman-67"/>
     <use x="1067.7734375" xlink:href="#BitstreamVeraSans-Roman-6c"/>
     <use x="1095.556640625" xlink:href="#BitstreamVeraSans-Roman-65"/>
     <use x="1157.080078125" xlink:href="#BitstreamVeraSans-Roman-73"/>
     <use x="1209.1796875" xlink:href="#BitstreamVeraSans-Roman-20"/>
     <use x="1240.966796875" xlink:href="#BitstreamVeraSans-Roman-6f"/>
     <use x="1302.1484375" xlink:href="#BitstreamVeraSans-Roman-62"/>
     <use x="1365.625" xlink:href="#BitstreamVeraSans-Roman-73"/>
     <use x="1417.724609375" xlink:href="#BitstreamVeraSans-Roman-65"/>
     <use x="1479.248046875" xlink:href="#BitstreamVeraSans-Roman-72"/>
     <use x="1520.361328125" xlink:href="#BitstreamVeraSans-Roman-76"/>
     <use x="1579.541015625" xlink:href="#BitstreamVeraSans-Roman-65"/>
     <use x="1641.064453125" xlink:href="#BitstreamVeraSans-Roman-64"/>
     <use x="1704.541015625" xlink:href="#BitstreamVeraSans-Roman-2c"/>
     <use x="1736.328125" xlink:href="#BitstreamVeraSans-Roman-20"/>
     <use x="1768.115234375" xlink:href="#BitstreamVeraSans-Roman-6a"/>
     <use x="1795.8984375" xlink:href="#BitstreamVeraSans-Roman-6f"/>
     <use x="1857.080078125" xlink:href="#BitstreamVeraSans-Roman-69"/>
     <use x="1884.86328125" xlink:href="#BitstreamVeraSans-Roman-6e"/>
     <use x="1948.2421875" xlink:href="#BitstreamVeraSans-Roman-74"/>
     <use x="1987.451171875" xlink:href="#BitstreamVeraSans-Roman-36"/>
    </g>
   </g>
  </g>
 </g>
 <defs>
  <clipPath id="pd656b22565">
   <rect height="345.6" width="446.4" x="46.8975" y="23.14175"/>
  </clipPath>
 </defs>
</svg>
