<?xml version="1.0" encoding="utf-8" standalone="no"?>
<!DOCTYPE svg PUBLIC "-//W3C//DTD SVG 1.1//EN"
  "http://www.w3.org/Graphics/SVG/1.1/DTD/svg11.dtd">
<!-- Created with matplotlib (http://matplotlib.org/) -->
<svg height="408pt" version="1.1" viewBox="0 0 515 408" width="515pt" xmlns="http://www.w3.org/2000/svg" xmlns:xlink="http://www.w3.org/1999/xlink">
 <defs>
  <style type="text/css">
*{stroke-linecap:butt;stroke-linejoin:round;stroke-miterlimit:100000;}
  </style>
 </defs>
 <g id="figure_1">
  <g id="patch_1">
   <path d="M 0 408.16925 
L 515.7675 408.16925 
L 515.7675 0 
L 0 0 
z
" style="fill:#ffffff;"/>
  </g>
  <g id="axes_1">
   <g id="patch_2">
    <path d="M 46.8975 368.74175 
L 493.2975 368.74175 
L 493.2975 23.14175 
L 46.8975 23.14175 
z
" style="fill:#ffffff;"/>
   </g>
   <g id="line2d_1">
    <path clip-path="url(#pc04d9fdf84)" d="M 47.2695 354.946671 
L 47.6415 357.131319 
L 48.0135 353.344768 
L 48.7575 357.046711 
L 49.1295 354.626062 
L 49.5015 353.480863 
L 49.8735 356.016921 
L 50.2455 359.846099 
L 50.6175 353.566457 
L 50.9895 358.979422 
L 51.3615 356.031264 
L 51.7335 354.37491 
L 52.1055 359.300236 
L 52.4775 359.262584 
L 52.8495 356.081853 
L 53.2215 359.066459 
L 53.5935 358.086377 
L 54.7095 352.891878 
L 55.0815 357.661217 
L 55.4535 355.517867 
L 55.8255 356.106546 
L 56.1975 354.991853 
L 56.9415 363.642204 
L 57.6855 357.706944 
L 58.0575 357.611875 
L 58.4295 360.449043 
L 58.8015 355.444971 
L 59.1735 358.237488 
L 59.5455 357.584731 
L 59.9175 352.462585 
L 60.2895 351.753913 
L 60.6615 362.186895 
L 61.0335 355.271205 
L 61.4055 358.701825 
L 61.7775 355.443516 
L 62.1495 358.223903 
L 62.5215 359.050522 
L 62.8935 356.062689 
L 63.2655 362.364657 
L 63.6375 354.339881 
L 64.0095 358.168399 
L 64.3815 356.217845 
L 64.7535 362.157025 
L 65.1255 358.145916 
L 65.4975 358.020842 
L 65.8695 356.365148 
L 66.2415 352.041503 
L 66.6135 353.767565 
L 66.9855 357.97332 
L 67.3575 353.174912 
L 67.7295 357.266629 
L 68.1015 349.410464 
L 68.4735 352.934538 
L 68.8455 358.11861 
L 69.2175 358.527274 
L 69.9615 352.016757 
L 70.3335 351.894298 
L 70.7055 357.530041 
L 71.0775 361.28074 
L 71.4495 358.235583 
L 71.8215 360.088296 
L 72.1935 352.900487 
L 72.5655 352.095553 
L 72.9375 358.449963 
L 73.3095 350.683738 
L 73.6815 357.400855 
L 74.0535 356.988818 
L 74.4255 352.44914 
L 74.7975 355.363711 
L 75.1695 355.643002 
L 75.5415 355.565658 
L 75.9135 357.749641 
L 76.2855 355.232341 
L 76.6575 358.534775 
L 77.0295 359.740175 
L 77.4015 357.269689 
L 77.7735 353.398331 
L 78.1455 359.282348 
L 78.5175 355.497384 
L 78.8895 360.536145 
L 79.2615 353.198558 
L 79.6335 355.968533 
L 80.0055 354.528035 
L 80.7495 360.696427 
L 81.4935 353.287222 
L 81.8655 353.064123 
L 82.6095 357.388464 
L 82.9815 354.142557 
L 83.7255 354.225307 
L 84.0975 353.25082 
L 84.4695 357.200559 
L 84.8415 358.7149 
L 85.2135 352.148496 
L 85.5855 354.252583 
L 85.9575 353.423218 
L 86.3295 354.895181 
L 86.7015 357.228942 
L 87.0735 357.142116 
L 87.4455 356.93038 
L 87.8175 361.78486 
L 88.1895 357.794311 
L 88.5615 357.314784 
L 88.9335 354.501863 
L 89.3055 357.73371 
L 89.6775 350.528366 
L 90.0495 356.152737 
L 90.4215 354.382918 
L 90.7935 354.689412 
L 91.1655 358.297329 
L 91.5375 359.631684 
L 91.9095 358.340689 
L 92.2815 355.322625 
L 92.6535 357.464292 
L 93.0255 354.724307 
L 93.3975 345.686598 
L 93.7695 354.526741 
L 94.5135 360.361619 
L 94.8855 355.924506 
L 95.2575 361.453657 
L 95.6295 354.575478 
L 96.0015 351.829333 
L 96.3735 352.508166 
L 96.7455 354.798975 
L 97.1175 350.387538 
L 97.4895 361.477982 
L 97.8615 352.665763 
L 98.2335 359.687471 
L 98.6055 354.141636 
L 98.9775 358.86926 
L 99.3495 358.37988 
L 99.7215 354.85421 
L 100.0935 359.917893 
L 100.4655 361.227943 
L 100.8375 355.891916 
L 101.2095 352.926779 
L 101.5815 358.259072 
L 101.9535 352.043848 
L 102.3255 354.727029 
L 102.6975 351.991805 
L 103.0695 357.727028 
L 103.4415 357.259776 
L 103.8135 351.624969 
L 104.1855 357.786997 
L 104.5575 353.615148 
L 104.9295 352.018446 
L 105.3015 352.648732 
L 105.6735 352.133081 
L 106.0455 353.17336 
L 106.4175 355.567068 
L 106.7895 353.623622 
L 107.1615 354.472562 
L 107.5335 357.734917 
L 107.9055 358.04133 
L 108.2775 351.18251 
L 108.6495 351.600904 
L 109.0215 360.876022 
L 109.3935 356.213693 
L 109.7655 357.57313 
L 110.1375 357.675742 
L 110.5095 349.951867 
L 110.8815 353.107007 
L 111.2535 349.917996 
L 111.6255 357.246775 
L 111.9975 350.312933 
L 112.3695 349.569519 
L 112.7415 354.719438 
L 113.1135 350.53126 
L 113.4855 348.81432 
L 113.8575 353.924536 
L 114.2295 349.340328 
L 114.6015 348.079062 
L 114.9735 347.45454 
L 115.3455 342.925864 
L 115.7175 346.352812 
L 116.0895 346.969392 
L 116.4615 345.859002 
L 116.8335 348.493999 
L 117.5775 343.761083 
L 117.9495 347.632643 
L 118.3215 343.15213 
L 118.6935 343.683166 
L 119.0655 339.980906 
L 119.4375 340.851105 
L 119.8095 343.215887 
L 120.1815 351.558937 
L 120.5535 342.868794 
L 120.9255 337.831752 
L 121.2975 348.239283 
L 121.6695 340.615736 
L 122.0415 339.477351 
L 122.4135 337.851214 
L 122.7855 338.944824 
L 123.1575 342.146555 
L 123.5295 336.034089 
L 123.9015 341.49761 
L 124.2735 336.661551 
L 124.6455 334.368251 
L 125.0175 336.921313 
L 125.3895 337.757592 
L 125.7615 337.051852 
L 126.1335 335.218815 
L 126.5055 328.714036 
L 126.8775 328.651641 
L 127.2495 337.624897 
L 127.6215 333.591818 
L 127.9935 330.79625 
L 128.3655 334.823441 
L 129.1095 333.378949 
L 129.4815 330.456333 
L 129.8535 332.496143 
L 130.2255 328.206907 
L 130.5975 332.646338 
L 130.9695 333.200763 
L 131.3415 336.362124 
L 131.7135 321.710837 
L 132.0855 334.698901 
L 132.4575 336.015219 
L 132.8295 329.66963 
L 133.2015 331.64208 
L 133.5735 330.658678 
L 133.9455 324.013486 
L 134.3175 328.912662 
L 134.6895 329.765409 
L 135.0615 327.424787 
L 135.4335 332.23681 
L 135.8055 325.946087 
L 136.1775 326.075905 
L 136.5495 334.461381 
L 136.9215 328.576073 
L 137.2935 328.078158 
L 137.6655 327.767665 
L 138.0375 326.050811 
L 138.4095 328.275115 
L 138.7815 321.036508 
L 139.1535 328.351229 
L 139.5255 328.384566 
L 139.8975 326.835898 
L 140.2695 319.697985 
L 140.6415 324.468585 
L 141.0135 323.495963 
L 141.3855 327.651127 
L 141.7575 324.143227 
L 142.1295 321.771892 
L 142.5015 325.903463 
L 142.8735 321.831163 
L 143.2455 315.097452 
L 143.6175 329.025368 
L 143.9895 314.441968 
L 144.7335 337.063468 
L 145.1055 319.975469 
L 145.4775 317.66599 
L 145.8495 318.357003 
L 146.2215 319.471806 
L 146.5935 318.841138 
L 146.9655 309.868736 
L 147.3375 320.389957 
L 147.7095 325.96159 
L 148.0815 312.035779 
L 148.4535 320.101508 
L 148.8255 315.457253 
L 149.1975 319.693472 
L 149.5695 322.165754 
L 149.9415 312.933127 
L 150.3135 316.782346 
L 150.6855 316.582427 
L 151.0575 319.225475 
L 151.4295 313.017163 
L 151.8015 316.098287 
L 152.1735 315.804268 
L 152.5455 308.947012 
L 152.9175 316.307651 
L 153.2895 308.666514 
L 153.6615 320.982749 
L 154.0335 313.81997 
L 154.4055 314.76904 
L 154.7775 307.131292 
L 155.1495 307.122056 
L 155.5215 311.25053 
L 155.8935 310.693388 
L 156.2655 322.296832 
L 156.6375 315.824753 
L 157.0095 318.782531 
L 157.3815 313.511104 
L 157.7535 313.761441 
L 158.1255 312.64613 
L 158.4975 318.946306 
L 158.8695 311.234217 
L 159.2415 318.461819 
L 159.6135 316.281787 
L 159.9855 313.402098 
L 160.3575 316.465114 
L 160.7295 309.281986 
L 161.1015 314.943888 
L 161.4735 313.100187 
L 161.8455 313.458107 
L 162.2175 316.455613 
L 162.5895 308.898137 
L 162.9615 314.023333 
L 163.3335 314.109554 
L 163.7055 312.876928 
L 164.0775 313.383076 
L 164.4495 305.155669 
L 164.8215 322.345308 
L 165.1935 314.410906 
L 165.5655 308.896361 
L 165.9375 309.803397 
L 166.3095 309.55508 
L 166.6815 311.413297 
L 167.0535 310.348071 
L 167.4255 315.973616 
L 168.1695 306.121131 
L 168.5415 316.94422 
L 168.9135 310.917068 
L 169.2855 315.613527 
L 169.6575 316.808098 
L 170.0295 312.798889 
L 170.4015 312.583736 
L 170.7735 311.171013 
L 171.1455 314.460905 
L 171.5175 313.550695 
L 171.8895 311.292041 
L 172.2615 308.189629 
L 172.6335 313.851703 
L 173.0055 310.344143 
L 173.3775 316.082722 
L 173.7495 310.261816 
L 174.1215 311.354861 
L 174.4935 309.986535 
L 174.8655 316.333895 
L 175.2375 311.196779 
L 175.6095 315.624788 
L 175.9815 307.882636 
L 176.3535 311.683463 
L 176.7255 311.683379 
L 177.0975 309.694807 
L 177.4695 310.870617 
L 177.8415 314.202068 
L 178.2135 310.467859 
L 178.5855 310.62869 
L 179.3295 308.737352 
L 179.7015 314.756068 
L 180.0735 315.611987 
L 180.4455 313.739532 
L 180.8175 313.398215 
L 181.5615 309.989436 
L 181.9335 314.278803 
L 182.3055 310.201184 
L 182.6775 308.804828 
L 183.0495 313.984582 
L 183.4215 313.256636 
L 183.7935 309.79928 
L 184.1655 310.568887 
L 184.5375 310.845706 
L 184.9095 316.326856 
L 185.2815 309.69213 
L 185.6535 310.358721 
L 186.0255 312.8998 
L 186.3975 308.465641 
L 186.7695 311.910625 
L 187.1415 314.242495 
L 187.5135 309.41943 
L 187.8855 313.317199 
L 188.2575 308.931096 
L 188.6295 315.998016 
L 189.0015 313.676781 
L 189.3735 309.718003 
L 189.7455 311.227436 
L 190.1175 316.204373 
L 190.4895 311.207756 
L 190.8615 310.997343 
L 191.2335 311.427156 
L 191.6055 312.486554 
L 191.9775 314.443943 
L 192.3495 309.693983 
L 192.7215 313.824004 
L 193.0935 311.575055 
L 193.4655 311.972967 
L 193.8375 308.099667 
L 194.2095 317.226719 
L 194.5815 312.390982 
L 194.9535 309.881251 
L 195.3255 311.40454 
L 195.6975 310.347303 
L 196.0695 308.597298 
L 196.8135 311.446737 
L 197.1855 312.184261 
L 197.9295 304.983588 
L 198.3015 311.689969 
L 198.6735 312.669276 
L 199.0455 302.760494 
L 199.4175 311.067255 
L 199.7895 315.148853 
L 200.1615 310.011173 
L 200.5335 309.87476 
L 200.9055 312.780793 
L 201.2775 311.175002 
L 201.6495 312.503683 
L 202.0215 310.374829 
L 202.3935 312.438025 
L 202.7655 311.846896 
L 203.5095 307.39822 
L 203.8815 295.799708 
L 204.2535 311.221918 
L 204.6255 311.347381 
L 204.9975 308.932915 
L 205.3695 314.669314 
L 205.7415 306.503974 
L 206.1135 313.049424 
L 206.4855 308.666675 
L 207.2295 311.114313 
L 207.6015 310.761685 
L 207.9735 310.788166 
L 208.3455 311.959514 
L 208.7175 311.900594 
L 209.0895 310.474115 
L 209.4615 311.880297 
L 209.8335 312.440362 
L 210.2055 310.68081 
L 210.9495 312.638465 
L 211.3215 310.058957 
L 211.6935 312.840822 
L 212.0655 312.854998 
L 212.8095 309.571971 
L 213.1815 310.953496 
L 213.5535 313.438779 
L 213.9255 314.466824 
L 214.2975 303.093464 
L 215.0415 314.540985 
L 215.4135 299.768428 
L 215.7855 312.923945 
L 216.1575 310.968083 
L 216.5295 312.939801 
L 216.9015 312.886464 
L 217.2735 311.317331 
L 217.6455 309.141643 
L 218.0175 317.404643 
L 218.3895 309.797972 
L 218.7615 312.178989 
L 219.1335 310.69624 
L 219.5055 313.91122 
L 219.8775 310.881341 
L 220.2495 310.893967 
L 220.6215 309.102514 
L 220.9935 312.99523 
L 221.3655 312.016537 
L 221.7375 305.214491 
L 222.1095 310.436732 
L 222.8535 307.33637 
L 223.5975 314.353363 
L 223.9695 304.906479 
L 224.3415 314.467613 
L 224.7135 311.264678 
L 225.0855 305.128103 
L 225.4575 313.88869 
L 226.2015 311.830593 
L 226.5735 308.7241 
L 226.9455 312.667729 
L 227.6895 305.051237 
L 228.0615 312.557749 
L 228.4335 314.097504 
L 228.8055 314.972209 
L 229.1775 320.619634 
L 229.5495 310.850772 
L 229.9215 311.197172 
L 230.2935 307.384664 
L 230.6655 308.507396 
L 231.0375 311.001156 
L 231.4095 303.688804 
L 231.7815 306.483831 
L 232.1535 303.180215 
L 232.5255 309.781421 
L 232.8975 311.392267 
L 233.2695 308.945423 
L 233.6415 308.992253 
L 234.0135 311.499179 
L 234.3855 321.861581 
L 234.7575 309.417962 
L 235.1295 312.613181 
L 235.5015 310.666962 
L 235.8735 318.536667 
L 236.2455 310.765788 
L 236.6175 327.592719 
L 236.9895 316.954349 
L 237.3615 311.045937 
L 237.7335 308.26834 
L 238.1055 307.904674 
L 238.4775 313.668245 
L 238.8495 307.269542 
L 239.2215 314.663283 
L 239.5935 312.667122 
L 239.9655 311.570663 
L 240.3375 309.466872 
L 240.7095 310.674261 
L 241.0815 303.870546 
L 241.4535 309.731817 
L 241.8255 312.145001 
L 242.1975 316.348546 
L 242.5695 313.880114 
L 242.9415 310.175179 
L 243.3135 310.871036 
L 243.6855 314.159319 
L 244.0575 313.024985 
L 244.4295 307.633521 
L 244.8015 308.560928 
L 245.1735 305.106442 
L 245.5455 312.227605 
L 245.9175 306.863626 
L 246.2895 312.513657 
L 246.6615 306.226507 
L 247.0335 313.294519 
L 247.4055 313.493892 
L 247.7775 308.479207 
L 248.1495 312.095212 
L 248.5215 310.032302 
L 248.8935 309.762823 
L 249.2655 310.181475 
L 249.6375 313.789139 
L 250.0095 314.47817 
L 250.3815 300.173534 
L 251.1255 319.681303 
L 251.4975 313.126375 
L 251.8695 312.209916 
L 252.2415 312.359584 
L 252.6135 306.886835 
L 252.9855 308.707077 
L 253.3575 315.145006 
L 253.7295 309.162072 
L 254.1015 309.887156 
L 254.4735 306.853569 
L 254.8455 308.36632 
L 255.2175 305.296924 
L 255.5895 303.437273 
L 255.9615 310.182992 
L 256.3335 309.333042 
L 257.0775 308.969709 
L 257.4495 310.439257 
L 257.8215 304.16591 
L 258.1935 308.434871 
L 258.5655 307.697735 
L 258.9375 305.588975 
L 259.3095 302.372534 
L 259.6815 309.467684 
L 260.0535 308.37359 
L 260.4255 313.842063 
L 260.7975 307.290938 
L 261.5415 302.288675 
L 261.9135 309.704677 
L 262.2855 311.611431 
L 262.6575 309.205116 
L 263.0295 297.862174 
L 263.4015 307.22648 
L 263.7735 311.408046 
L 264.1455 311.048327 
L 264.5175 301.371442 
L 264.8895 309.254047 
L 265.2615 312.094453 
L 265.6335 310.027351 
L 266.0055 309.72537 
L 266.3775 310.95257 
L 267.1215 293.671396 
L 267.4935 300.959109 
L 267.8655 294.278779 
L 268.2375 306.698559 
L 268.6095 296.356889 
L 268.9815 304.935598 
L 269.3535 294.933002 
L 269.7255 296.387346 
L 270.0975 288.230573 
L 270.8415 293.108378 
L 271.2135 290.552591 
L 271.5855 286.990282 
L 271.9575 306.161288 
L 272.3295 285.417354 
L 272.7015 288.61834 
L 273.0735 290.460823 
L 273.4455 289.027796 
L 273.8175 296.006463 
L 274.1895 281.398224 
L 274.5615 281.11037 
L 274.9335 282.860342 
L 275.3055 282.315181 
L 275.6775 288.522295 
L 276.0495 287.367367 
L 276.4215 282.257371 
L 276.7935 282.986587 
L 277.1655 287.019177 
L 277.5375 306.292762 
L 277.9095 300.76351 
L 278.2815 275.841999 
L 278.6535 273.366117 
L 279.0255 296.397792 
L 279.3975 278.363367 
L 280.1415 259.962765 
L 280.5135 273.730441 
L 280.8855 266.376695 
L 281.2575 269.859227 
L 281.6295 251.567697 
L 282.0015 284.714569 
L 282.3735 245.736497 
L 282.7455 262.553879 
L 283.1175 264.475325 
L 283.4895 249.235 
L 283.8615 252.9655 
L 284.2335 250.88765 
L 284.6055 250.312886 
L 284.9775 240.13635 
L 285.3495 258.122194 
L 285.7215 250.429385 
L 286.4655 219.010749 
L 286.8375 224.053569 
L 287.2095 214.290381 
L 287.5815 212.925718 
L 287.9535 219.772566 
L 288.3255 218.891905 
L 288.6975 204.733528 
L 289.0695 208.308047 
L 289.4415 200.87853 
L 289.8135 190.562635 
L 290.1855 230.292092 
L 290.5575 213.150887 
L 290.9295 201.213618 
L 291.6735 190.622486 
L 292.0455 209.017758 
L 292.4175 213.679271 
L 292.7895 221.127746 
L 293.1615 206.568049 
L 293.5335 213.075935 
L 293.9055 203.104715 
L 294.2775 205.140019 
L 294.6495 169.900185 
L 295.0215 179.737741 
L 295.3935 173.170191 
L 295.7655 186.046307 
L 296.1375 177.489277 
L 296.5095 156.01041 
L 296.8815 160.239466 
L 297.2535 168.843256 
L 297.6255 170.337799 
L 297.9975 157.681715 
L 298.3695 195.26072 
L 298.7415 173.259126 
L 299.1135 175.920352 
L 299.8575 183.632721 
L 300.2295 160.900224 
L 300.6015 192.061015 
L 300.9735 147.961879 
L 301.3455 169.30946 
L 301.7175 170.450258 
L 302.0895 143.860578 
L 302.4615 158.515994 
L 302.8335 149.207942 
L 303.2055 166.522357 
L 303.5775 156.162194 
L 303.9495 156.250754 
L 304.3215 145.518214 
L 304.6935 169.700205 
L 305.0655 149.873598 
L 305.4375 147.66359 
L 305.8095 161.222302 
L 306.1815 140.90382 
L 306.5535 129.387087 
L 306.9255 146.186397 
L 307.2975 150.726038 
L 307.6695 142.044707 
L 308.0415 145.360513 
L 308.4135 131.272288 
L 308.7855 163.583193 
L 309.5295 114.657841 
L 309.9015 140.516939 
L 310.2735 157.671806 
L 310.6455 118.475572 
L 311.0175 127.778126 
L 311.3895 109.660139 
L 311.7615 120.012497 
L 312.1335 109.480465 
L 312.5055 112.695135 
L 312.8775 123.500563 
L 313.2495 101.447755 
L 313.6215 117.619464 
L 313.9935 83.635881 
L 314.3655 112.375487 
L 314.7375 105.592731 
L 315.1095 154.461129 
L 315.4815 81.981131 
L 315.8535 101.623787 
L 316.2255 99.428635 
L 316.5975 137.357401 
L 316.9695 113.042341 
L 317.3415 110.692988 
L 317.7135 83.064524 
L 318.0855 102.628864 
L 318.4575 131.016072 
L 319.2015 87.861469 
L 319.5735 76.425724 
L 319.9455 98.06944 
L 320.3175 73.204732 
L 320.6895 98.50661 
L 321.0615 92.991296 
L 321.4335 101.26579 
L 321.8055 137.546227 
L 322.1775 91.998064 
L 322.5495 81.364904 
L 322.9215 77.262048 
L 323.2935 104.146002 
L 323.6655 101.594815 
L 324.0375 109.101871 
L 324.4095 76.42011 
L 324.7815 111.264238 
L 325.1535 128.66657 
L 325.5255 118.78696 
L 325.8975 116.876405 
L 326.2695 120.816533 
L 326.6415 101.282304 
L 327.7575 172.343305 
L 328.1295 119.630564 
L 328.5015 95.92507 
L 328.8735 101.409591 
L 329.2455 134.542979 
L 329.6175 115.78249 
L 329.9895 74.348048 
L 330.3615 124.299699 
L 330.7335 146.070144 
L 331.1055 115.054139 
L 331.4775 100.517741 
L 331.8495 147.985279 
L 332.2215 150.363616 
L 332.5935 138.125058 
L 332.9655 80.479397 
L 333.3375 130.031847 
L 333.7095 143.687943 
L 334.0815 101.682585 
L 334.4535 144.549266 
L 334.8255 130.116104 
L 335.1975 102.254116 
L 335.5695 140.030449 
L 335.9415 124.642031 
L 336.3135 99.454434 
L 336.6855 121.629423 
L 337.0575 110.236059 
L 337.4295 103.764778 
L 337.8015 125.318978 
L 338.1735 85.444048 
L 338.5455 137.221384 
L 338.9175 85.584488 
L 339.2895 98.755644 
L 339.6615 94.417356 
L 340.0335 76.317166 
L 340.4055 123.89793 
L 340.7775 115.037613 
L 341.1495 95.233128 
L 341.5215 101.341586 
L 341.8935 92.764697 
L 342.2655 118.43523 
L 342.6375 100.098637 
L 343.0095 108.263779 
L 343.3815 111.99321 
L 344.1255 89.462525 
L 344.4975 95.848457 
L 344.8695 92.344825 
L 345.2415 92.415595 
L 345.6135 74.545824 
L 345.9855 92.077528 
L 346.3575 99.046857 
L 346.7295 116.038772 
L 347.1015 92.157468 
L 347.4735 95.197137 
L 347.8455 84.391341 
L 348.2175 81.869669 
L 348.5895 89.927431 
L 348.9615 84.369564 
L 349.3335 106.173002 
L 349.7055 96.443098 
L 350.0775 92.941047 
L 350.4495 101.682159 
L 350.8215 88.472647 
L 351.1935 96.446171 
L 351.5655 160.573776 
L 351.9375 88.986353 
L 352.3095 93.342186 
L 352.6815 118.305266 
L 353.4255 138.160197 
L 353.7975 130.221621 
L 354.1695 147.638954 
L 354.5415 132.032202 
L 354.9135 105.361237 
L 355.2855 106.293981 
L 355.6575 137.412604 
L 356.0295 114.827623 
L 356.4015 121.864809 
L 356.7735 133.757106 
L 357.1455 132.197766 
L 357.5175 145.85489 
L 357.8895 105.496121 
L 358.2615 118.158596 
L 358.6335 84.506089 
L 359.0055 102.49657 
L 359.3775 107.376403 
L 359.7495 122.467014 
L 360.1215 107.992254 
L 360.4935 118.408724 
L 360.8655 99.945902 
L 361.2375 101.738899 
L 361.6095 131.240387 
L 361.9815 135.214714 
L 362.3535 104.02706 
L 362.7255 105.816074 
L 363.0975 103.963872 
L 363.4695 105.964359 
L 363.8415 121.121903 
L 364.5855 114.978966 
L 364.9575 103.640594 
L 365.7015 148.232378 
L 366.0735 110.245557 
L 366.4455 158.067223 
L 366.8175 142.647012 
L 367.1895 118.791049 
L 367.5615 110.779186 
L 367.9335 107.508313 
L 368.3055 95.048185 
L 368.6775 142.337618 
L 369.0495 156.050313 
L 369.4215 123.083289 
L 369.7935 140.691483 
L 370.1655 123.678292 
L 370.5375 126.03 
L 370.9095 113.508025 
L 371.2815 116.469888 
L 371.6535 114.716935 
L 372.0255 127.988425 
L 372.3975 129.334979 
L 372.7695 114.155745 
L 373.1415 140.27493 
L 373.5135 144.21405 
L 373.8855 114.067272 
L 374.2575 144.191866 
L 374.6295 142.709362 
L 375.0015 120.768274 
L 375.3735 149.759193 
L 375.7455 123.371548 
L 376.1175 144.157761 
L 376.4895 134.284718 
L 376.8615 132.663232 
L 377.2335 139.312503 
L 377.9775 124.061884 
L 378.3495 124.176565 
L 378.7215 100.792314 
L 379.0935 137.218654 
L 379.4655 100.659883 
L 379.8375 110.16129 
L 380.2095 123.648847 
L 380.5815 142.645926 
L 380.9535 136.171667 
L 381.3255 134.902409 
L 381.6975 140.158178 
L 382.0695 135.94735 
L 382.4415 136.189714 
L 382.8135 148.687726 
L 383.1855 138.932219 
L 383.5575 133.720138 
L 383.9295 151.258114 
L 384.3015 147.9959 
L 384.6735 108.886165 
L 385.0455 132.203121 
L 385.4175 122.802447 
L 385.7895 126.717748 
L 386.1615 115.58183 
L 386.9055 108.629855 
L 387.2775 133.584083 
L 387.6495 121.337141 
L 388.0215 92.343963 
L 388.3935 117.594479 
L 389.1375 119.659103 
L 389.5095 114.130364 
L 389.8815 129.106902 
L 390.2535 94.15822 
L 390.6255 107.815865 
L 390.9975 113.704534 
L 391.3695 109.712684 
L 391.7415 120.002255 
L 392.4855 100.087075 
L 392.8575 119.594367 
L 393.2295 116.228275 
L 393.6015 126.788668 
L 393.9735 100.409508 
L 394.3455 111.072177 
L 395.0895 92.693118 
L 395.4615 104.783855 
L 395.8335 125.641917 
L 396.2055 94.20581 
L 396.5775 92.001062 
L 396.9495 102.384091 
L 397.3215 101.561245 
L 397.6935 80.337572 
L 398.0655 94.559116 
L 398.4375 97.064262 
L 398.8095 101.883445 
L 399.1815 97.544974 
L 399.5535 125.656219 
L 399.9255 90.439498 
L 400.2975 110.942235 
L 400.6695 93.492455 
L 401.0415 96.265238 
L 401.4135 100.780301 
L 401.7855 147.812175 
L 402.1575 83.152545 
L 402.5295 97.908014 
L 402.9015 127.109313 
L 403.2735 92.892444 
L 403.6455 125.398171 
L 404.0175 91.66757 
L 404.3895 97.549122 
L 404.7615 121.77849 
L 405.1335 92.427709 
L 405.5055 128.617181 
L 405.8775 118.168317 
L 406.2495 90.736484 
L 406.6215 113.01079 
L 406.9935 95.165263 
L 407.3655 91.764318 
L 407.7375 99.994197 
L 408.1095 92.044428 
L 408.4815 102.573944 
L 408.8535 119.210179 
L 409.2255 121.245058 
L 409.5975 97.090466 
L 409.9695 90.729403 
L 410.3415 115.444619 
L 410.7135 114.43213 
L 411.0855 91.669516 
L 411.4575 111.937533 
L 411.8295 121.862292 
L 412.2015 117.958792 
L 412.9455 125.305958 
L 413.3175 123.415273 
L 413.6895 116.07678 
L 414.0615 87.01194 
L 414.4335 133.504473 
L 414.8055 114.350889 
L 415.1775 88.617666 
L 415.5495 116.203825 
L 415.9215 99.099995 
L 416.2935 123.695388 
L 416.6655 84.910697 
L 417.4095 116.153418 
L 417.7815 104.028907 
L 418.1535 68.829178 
L 418.5255 102.583828 
L 418.8975 69.179114 
L 419.2695 113.522549 
L 419.6415 112.778308 
L 420.0135 93.343576 
L 420.3855 128.689321 
L 420.7575 75.112152 
L 421.5015 109.36455 
L 421.8735 105.892701 
L 422.2455 94.859288 
L 422.6175 107.432369 
L 422.9895 93.608977 
L 423.3615 97.172852 
L 423.7335 103.906267 
L 424.1055 108.241756 
L 424.4775 100.542916 
L 424.8495 112.049478 
L 425.2215 113.370338 
L 425.5935 135.156792 
L 425.9655 114.241311 
L 426.3375 104.897628 
L 426.7095 133.810421 
L 427.0815 105.49774 
L 427.4535 112.654133 
L 427.8255 109.965139 
L 428.1975 113.667464 
L 428.5695 125.452777 
L 428.9415 124.00189 
L 429.6855 92.021554 
L 430.0575 120.020913 
L 430.4295 99.911609 
L 430.8015 66.550087 
L 431.1735 121.127722 
L 431.5455 84.18573 
L 431.9175 118.556334 
L 432.6615 156.762558 
L 433.0335 129.810876 
L 433.4055 67.282394 
L 433.7775 122.559469 
L 434.1495 99.145219 
L 434.5215 91.771989 
L 434.8935 159.158587 
L 435.2655 110.289469 
L 435.6375 126.440427 
L 436.0095 122.985646 
L 436.3815 118.026606 
L 436.7535 108.69883 
L 437.1255 109.647818 
L 437.4975 109.626364 
L 437.8695 76.683642 
L 438.2415 114.059442 
L 438.6135 126.10895 
L 438.9855 76.375888 
L 439.3575 105.490856 
L 439.7295 88.012786 
L 440.1015 123.97418 
L 440.4735 122.985234 
L 440.8455 137.360364 
L 441.2175 101.512688 
L 441.5895 110.170542 
L 441.9615 126.390144 
L 442.7055 94.26421 
L 443.0775 96.708393 
L 443.4495 121.88675 
L 443.8215 112.547474 
L 444.1935 56.379264 
L 444.5655 50.065589 
L 444.9375 137.498276 
L 445.3095 142.416759 
L 445.6815 149.563629 
L 446.4255 104.568509 
L 446.7975 111.591786 
L 447.1695 132.891006 
L 447.5415 110.621364 
L 447.9135 56.071031 
L 448.2855 107.658995 
L 448.6575 105.13809 
L 449.0295 55.744664 
L 449.4015 109.991581 
L 449.7735 112.668288 
L 450.1455 87.620635 
L 450.5175 121.937789 
L 450.8895 102.824455 
L 451.2615 101.302127 
L 451.6335 132.832378 
L 452.0055 109.896891 
L 452.3775 101.348224 
L 452.7495 99.734777 
L 453.1215 74.721289 
L 453.4935 74.94679 
L 453.8655 111.74184 
L 454.2375 128.022862 
L 454.6095 57.919535 
L 454.9815 80.215269 
L 455.3535 110.422872 
L 455.7255 113.701789 
L 456.0975 126.312922 
L 456.4695 114.49815 
L 456.8415 114.240163 
L 457.2135 91.723029 
L 457.5855 91.546846 
L 457.9575 85.477858 
L 458.3295 94.475594 
L 458.7015 69.083292 
L 459.0735 108.8263 
L 459.4455 83.276285 
L 459.8175 111.327913 
L 459.8175 111.327913 
" style="fill:none;stroke:#0000ff;stroke-linecap:square;stroke-width:0.5;"/>
   </g>
   <g id="patch_3">
    <path d="M 46.8975 368.74175 
L 46.8975 23.14175 
" style="fill:none;stroke:#000000;stroke-linecap:square;stroke-linejoin:miter;"/>
   </g>
   <g id="patch_4">
    <path d="M 493.2975 368.74175 
L 493.2975 23.14175 
" style="fill:none;stroke:#000000;stroke-linecap:square;stroke-linejoin:miter;"/>
   </g>
   <g id="patch_5">
    <path d="M 46.8975 368.74175 
L 493.2975 368.74175 
" style="fill:none;stroke:#000000;stroke-linecap:square;stroke-linejoin:miter;"/>
   </g>
   <g id="patch_6">
    <path d="M 46.8975 23.14175 
L 493.2975 23.14175 
" style="fill:none;stroke:#000000;stroke-linecap:square;stroke-linejoin:miter;"/>
   </g>
   <g id="matplotlib.axis_1">
    <g id="xtick_1">
     <g id="line2d_2">
      <defs>
       <path d="M 0 0 
L 0 -4 
" id="me877950a1c" style="stroke:#000000;stroke-width:0.5;"/>
      </defs>
      <g>
       <use style="stroke:#000000;stroke-width:0.5;" x="46.8975" xlink:href="#me877950a1c" y="368.74175"/>
      </g>
     </g>
     <g id="line2d_3">
      <defs>
       <path d="M 0 0 
L 0 4 
" id="m4605b50719" style="stroke:#000000;stroke-width:0.5;"/>
      </defs>
      <g>
       <use style="stroke:#000000;stroke-width:0.5;" x="46.8975" xlink:href="#m4605b50719" y="23.14175"/>
      </g>
     </g>
     <g id="text_1">
      <!-- 0 -->
      <defs>
       <path d="M 31.78125 66.40625 
Q 24.171875 66.40625 20.328125 58.90625 
Q 16.5 51.421875 16.5 36.375 
Q 16.5 21.390625 20.328125 13.890625 
Q 24.171875 6.390625 31.78125 6.390625 
Q 39.453125 6.390625 43.28125 13.890625 
Q 47.125 21.390625 47.125 36.375 
Q 47.125 51.421875 43.28125 58.90625 
Q 39.453125 66.40625 31.78125 66.40625 
M 31.78125 74.21875 
Q 44.046875 74.21875 50.515625 64.515625 
Q 56.984375 54.828125 56.984375 36.375 
Q 56.984375 17.96875 50.515625 8.265625 
Q 44.046875 -1.421875 31.78125 -1.421875 
Q 19.53125 -1.421875 13.0625 8.265625 
Q 6.59375 17.96875 6.59375 36.375 
Q 6.59375 54.828125 13.0625 64.515625 
Q 19.53125 74.21875 31.78125 74.21875 
" id="BitstreamVeraSans-Roman-30"/>
      </defs>
      <g transform="translate(43.08 381.859875)scale(0.12 -0.12)">
       <use xlink:href="#BitstreamVeraSans-Roman-30"/>
      </g>
     </g>
    </g>
    <g id="xtick_2">
     <g id="line2d_4">
      <g>
       <use style="stroke:#000000;stroke-width:0.5;" x="121.2975" xlink:href="#me877950a1c" y="368.74175"/>
      </g>
     </g>
     <g id="line2d_5">
      <g>
       <use style="stroke:#000000;stroke-width:0.5;" x="121.2975" xlink:href="#m4605b50719" y="23.14175"/>
      </g>
     </g>
     <g id="text_2">
      <!-- 200 -->
      <defs>
       <path d="M 19.1875 8.296875 
L 53.609375 8.296875 
L 53.609375 0 
L 7.328125 0 
L 7.328125 8.296875 
Q 12.9375 14.109375 22.625 23.890625 
Q 32.328125 33.6875 34.8125 36.53125 
Q 39.546875 41.84375 41.421875 45.53125 
Q 43.3125 49.21875 43.3125 52.78125 
Q 43.3125 58.59375 39.234375 62.25 
Q 35.15625 65.921875 28.609375 65.921875 
Q 23.96875 65.921875 18.8125 64.3125 
Q 13.671875 62.703125 7.8125 59.421875 
L 7.8125 69.390625 
Q 13.765625 71.78125 18.9375 73 
Q 24.125 74.21875 28.421875 74.21875 
Q 39.75 74.21875 46.484375 68.546875 
Q 53.21875 62.890625 53.21875 53.421875 
Q 53.21875 48.921875 51.53125 44.890625 
Q 49.859375 40.875 45.40625 35.40625 
Q 44.1875 33.984375 37.640625 27.21875 
Q 31.109375 20.453125 19.1875 8.296875 
" id="BitstreamVeraSans-Roman-32"/>
      </defs>
      <g transform="translate(109.845 381.859875)scale(0.12 -0.12)">
       <use xlink:href="#BitstreamVeraSans-Roman-32"/>
       <use x="63.623046875" xlink:href="#BitstreamVeraSans-Roman-30"/>
       <use x="127.24609375" xlink:href="#BitstreamVeraSans-Roman-30"/>
      </g>
     </g>
    </g>
    <g id="xtick_3">
     <g id="line2d_6">
      <g>
       <use style="stroke:#000000;stroke-width:0.5;" x="195.6975" xlink:href="#me877950a1c" y="368.74175"/>
      </g>
     </g>
     <g id="line2d_7">
      <g>
       <use style="stroke:#000000;stroke-width:0.5;" x="195.6975" xlink:href="#m4605b50719" y="23.14175"/>
      </g>
     </g>
     <g id="text_3">
      <!-- 400 -->
      <defs>
       <path d="M 37.796875 64.3125 
L 12.890625 25.390625 
L 37.796875 25.390625 
z
M 35.203125 72.90625 
L 47.609375 72.90625 
L 47.609375 25.390625 
L 58.015625 25.390625 
L 58.015625 17.1875 
L 47.609375 17.1875 
L 47.609375 0 
L 37.796875 0 
L 37.796875 17.1875 
L 4.890625 17.1875 
L 4.890625 26.703125 
z
" id="BitstreamVeraSans-Roman-34"/>
      </defs>
      <g transform="translate(184.245 381.859875)scale(0.12 -0.12)">
       <use xlink:href="#BitstreamVeraSans-Roman-34"/>
       <use x="63.623046875" xlink:href="#BitstreamVeraSans-Roman-30"/>
       <use x="127.24609375" xlink:href="#BitstreamVeraSans-Roman-30"/>
      </g>
     </g>
    </g>
    <g id="xtick_4">
     <g id="line2d_8">
      <g>
       <use style="stroke:#000000;stroke-width:0.5;" x="270.0975" xlink:href="#me877950a1c" y="368.74175"/>
      </g>
     </g>
     <g id="line2d_9">
      <g>
       <use style="stroke:#000000;stroke-width:0.5;" x="270.0975" xlink:href="#m4605b50719" y="23.14175"/>
      </g>
     </g>
     <g id="text_4">
      <!-- 600 -->
      <defs>
       <path d="M 33.015625 40.375 
Q 26.375 40.375 22.484375 35.828125 
Q 18.609375 31.296875 18.609375 23.390625 
Q 18.609375 15.53125 22.484375 10.953125 
Q 26.375 6.390625 33.015625 6.390625 
Q 39.65625 6.390625 43.53125 10.953125 
Q 47.40625 15.53125 47.40625 23.390625 
Q 47.40625 31.296875 43.53125 35.828125 
Q 39.65625 40.375 33.015625 40.375 
M 52.59375 71.296875 
L 52.59375 62.3125 
Q 48.875 64.0625 45.09375 64.984375 
Q 41.3125 65.921875 37.59375 65.921875 
Q 27.828125 65.921875 22.671875 59.328125 
Q 17.53125 52.734375 16.796875 39.40625 
Q 19.671875 43.65625 24.015625 45.921875 
Q 28.375 48.1875 33.59375 48.1875 
Q 44.578125 48.1875 50.953125 41.515625 
Q 57.328125 34.859375 57.328125 23.390625 
Q 57.328125 12.15625 50.6875 5.359375 
Q 44.046875 -1.421875 33.015625 -1.421875 
Q 20.359375 -1.421875 13.671875 8.265625 
Q 6.984375 17.96875 6.984375 36.375 
Q 6.984375 53.65625 15.1875 63.9375 
Q 23.390625 74.21875 37.203125 74.21875 
Q 40.921875 74.21875 44.703125 73.484375 
Q 48.484375 72.75 52.59375 71.296875 
" id="BitstreamVeraSans-Roman-36"/>
      </defs>
      <g transform="translate(258.645 381.859875)scale(0.12 -0.12)">
       <use xlink:href="#BitstreamVeraSans-Roman-36"/>
       <use x="63.623046875" xlink:href="#BitstreamVeraSans-Roman-30"/>
       <use x="127.24609375" xlink:href="#BitstreamVeraSans-Roman-30"/>
      </g>
     </g>
    </g>
    <g id="xtick_5">
     <g id="line2d_10">
      <g>
       <use style="stroke:#000000;stroke-width:0.5;" x="344.4975" xlink:href="#me877950a1c" y="368.74175"/>
      </g>
     </g>
     <g id="line2d_11">
      <g>
       <use style="stroke:#000000;stroke-width:0.5;" x="344.4975" xlink:href="#m4605b50719" y="23.14175"/>
      </g>
     </g>
     <g id="text_5">
      <!-- 800 -->
      <defs>
       <path d="M 31.78125 34.625 
Q 24.75 34.625 20.71875 30.859375 
Q 16.703125 27.09375 16.703125 20.515625 
Q 16.703125 13.921875 20.71875 10.15625 
Q 24.75 6.390625 31.78125 6.390625 
Q 38.8125 6.390625 42.859375 10.171875 
Q 46.921875 13.96875 46.921875 20.515625 
Q 46.921875 27.09375 42.890625 30.859375 
Q 38.875 34.625 31.78125 34.625 
M 21.921875 38.8125 
Q 15.578125 40.375 12.03125 44.71875 
Q 8.5 49.078125 8.5 55.328125 
Q 8.5 64.0625 14.71875 69.140625 
Q 20.953125 74.21875 31.78125 74.21875 
Q 42.671875 74.21875 48.875 69.140625 
Q 55.078125 64.0625 55.078125 55.328125 
Q 55.078125 49.078125 51.53125 44.71875 
Q 48 40.375 41.703125 38.8125 
Q 48.828125 37.15625 52.796875 32.3125 
Q 56.78125 27.484375 56.78125 20.515625 
Q 56.78125 9.90625 50.3125 4.234375 
Q 43.84375 -1.421875 31.78125 -1.421875 
Q 19.734375 -1.421875 13.25 4.234375 
Q 6.78125 9.90625 6.78125 20.515625 
Q 6.78125 27.484375 10.78125 32.3125 
Q 14.796875 37.15625 21.921875 38.8125 
M 18.3125 54.390625 
Q 18.3125 48.734375 21.84375 45.5625 
Q 25.390625 42.390625 31.78125 42.390625 
Q 38.140625 42.390625 41.71875 45.5625 
Q 45.3125 48.734375 45.3125 54.390625 
Q 45.3125 60.0625 41.71875 63.234375 
Q 38.140625 66.40625 31.78125 66.40625 
Q 25.390625 66.40625 21.84375 63.234375 
Q 18.3125 60.0625 18.3125 54.390625 
" id="BitstreamVeraSans-Roman-38"/>
      </defs>
      <g transform="translate(333.045 381.859875)scale(0.12 -0.12)">
       <use xlink:href="#BitstreamVeraSans-Roman-38"/>
       <use x="63.623046875" xlink:href="#BitstreamVeraSans-Roman-30"/>
       <use x="127.24609375" xlink:href="#BitstreamVeraSans-Roman-30"/>
      </g>
     </g>
    </g>
    <g id="xtick_6">
     <g id="line2d_12">
      <g>
       <use style="stroke:#000000;stroke-width:0.5;" x="418.8975" xlink:href="#me877950a1c" y="368.74175"/>
      </g>
     </g>
     <g id="line2d_13">
      <g>
       <use style="stroke:#000000;stroke-width:0.5;" x="418.8975" xlink:href="#m4605b50719" y="23.14175"/>
      </g>
     </g>
     <g id="text_6">
      <!-- 1000 -->
      <defs>
       <path d="M 12.40625 8.296875 
L 28.515625 8.296875 
L 28.515625 63.921875 
L 10.984375 60.40625 
L 10.984375 69.390625 
L 28.421875 72.90625 
L 38.28125 72.90625 
L 38.28125 8.296875 
L 54.390625 8.296875 
L 54.390625 0 
L 12.40625 0 
z
" id="BitstreamVeraSans-Roman-31"/>
      </defs>
      <g transform="translate(403.6275 381.859875)scale(0.12 -0.12)">
       <use xlink:href="#BitstreamVeraSans-Roman-31"/>
       <use x="63.623046875" xlink:href="#BitstreamVeraSans-Roman-30"/>
       <use x="127.24609375" xlink:href="#BitstreamVeraSans-Roman-30"/>
       <use x="190.869140625" xlink:href="#BitstreamVeraSans-Roman-30"/>
      </g>
     </g>
    </g>
    <g id="xtick_7">
     <g id="line2d_14">
      <g>
       <use style="stroke:#000000;stroke-width:0.5;" x="493.2975" xlink:href="#me877950a1c" y="368.74175"/>
      </g>
     </g>
     <g id="line2d_15">
      <g>
       <use style="stroke:#000000;stroke-width:0.5;" x="493.2975" xlink:href="#m4605b50719" y="23.14175"/>
      </g>
     </g>
     <g id="text_7">
      <!-- 1200 -->
      <g transform="translate(478.0275 381.859875)scale(0.12 -0.12)">
       <use xlink:href="#BitstreamVeraSans-Roman-31"/>
       <use x="63.623046875" xlink:href="#BitstreamVeraSans-Roman-32"/>
       <use x="127.24609375" xlink:href="#BitstreamVeraSans-Roman-30"/>
       <use x="190.869140625" xlink:href="#BitstreamVeraSans-Roman-30"/>
      </g>
     </g>
    </g>
    <g id="text_8">
     <!-- episodes -->
     <defs>
      <path d="M 9.421875 54.6875 
L 18.40625 54.6875 
L 18.40625 0 
L 9.421875 0 
z
M 9.421875 75.984375 
L 18.40625 75.984375 
L 18.40625 64.59375 
L 9.421875 64.59375 
z
" id="BitstreamVeraSans-Roman-69"/>
      <path d="M 44.28125 53.078125 
L 44.28125 44.578125 
Q 40.484375 46.53125 36.375 47.5 
Q 32.28125 48.484375 27.875 48.484375 
Q 21.1875 48.484375 17.84375 46.4375 
Q 14.5 44.390625 14.5 40.28125 
Q 14.5 37.15625 16.890625 35.375 
Q 19.28125 33.59375 26.515625 31.984375 
L 29.59375 31.296875 
Q 39.15625 29.25 43.1875 25.515625 
Q 47.21875 21.78125 47.21875 15.09375 
Q 47.21875 7.46875 41.1875 3.015625 
Q 35.15625 -1.421875 24.609375 -1.421875 
Q 20.21875 -1.421875 15.453125 -0.5625 
Q 10.6875 0.296875 5.421875 2 
L 5.421875 11.28125 
Q 10.40625 8.6875 15.234375 7.390625 
Q 20.0625 6.109375 24.8125 6.109375 
Q 31.15625 6.109375 34.5625 8.28125 
Q 37.984375 10.453125 37.984375 14.40625 
Q 37.984375 18.0625 35.515625 20.015625 
Q 33.0625 21.96875 24.703125 23.78125 
L 21.578125 24.515625 
Q 13.234375 26.265625 9.515625 29.90625 
Q 5.8125 33.546875 5.8125 39.890625 
Q 5.8125 47.609375 11.28125 51.796875 
Q 16.75 56 26.8125 56 
Q 31.78125 56 36.171875 55.265625 
Q 40.578125 54.546875 44.28125 53.078125 
" id="BitstreamVeraSans-Roman-73"/>
      <path d="M 18.109375 8.203125 
L 18.109375 -20.796875 
L 9.078125 -20.796875 
L 9.078125 54.6875 
L 18.109375 54.6875 
L 18.109375 46.390625 
Q 20.953125 51.265625 25.265625 53.625 
Q 29.59375 56 35.59375 56 
Q 45.5625 56 51.78125 48.09375 
Q 58.015625 40.1875 58.015625 27.296875 
Q 58.015625 14.40625 51.78125 6.484375 
Q 45.5625 -1.421875 35.59375 -1.421875 
Q 29.59375 -1.421875 25.265625 0.953125 
Q 20.953125 3.328125 18.109375 8.203125 
M 48.6875 27.296875 
Q 48.6875 37.203125 44.609375 42.84375 
Q 40.53125 48.484375 33.40625 48.484375 
Q 26.265625 48.484375 22.1875 42.84375 
Q 18.109375 37.203125 18.109375 27.296875 
Q 18.109375 17.390625 22.1875 11.75 
Q 26.265625 6.109375 33.40625 6.109375 
Q 40.53125 6.109375 44.609375 11.75 
Q 48.6875 17.390625 48.6875 27.296875 
" id="BitstreamVeraSans-Roman-70"/>
      <path d="M 30.609375 48.390625 
Q 23.390625 48.390625 19.1875 42.75 
Q 14.984375 37.109375 14.984375 27.296875 
Q 14.984375 17.484375 19.15625 11.84375 
Q 23.34375 6.203125 30.609375 6.203125 
Q 37.796875 6.203125 41.984375 11.859375 
Q 46.1875 17.53125 46.1875 27.296875 
Q 46.1875 37.015625 41.984375 42.703125 
Q 37.796875 48.390625 30.609375 48.390625 
M 30.609375 56 
Q 42.328125 56 49.015625 48.375 
Q 55.71875 40.765625 55.71875 27.296875 
Q 55.71875 13.875 49.015625 6.21875 
Q 42.328125 -1.421875 30.609375 -1.421875 
Q 18.84375 -1.421875 12.171875 6.21875 
Q 5.515625 13.875 5.515625 27.296875 
Q 5.515625 40.765625 12.171875 48.375 
Q 18.84375 56 30.609375 56 
" id="BitstreamVeraSans-Roman-6f"/>
      <path d="M 56.203125 29.59375 
L 56.203125 25.203125 
L 14.890625 25.203125 
Q 15.484375 15.921875 20.484375 11.0625 
Q 25.484375 6.203125 34.421875 6.203125 
Q 39.59375 6.203125 44.453125 7.46875 
Q 49.3125 8.734375 54.109375 11.28125 
L 54.109375 2.78125 
Q 49.265625 0.734375 44.1875 -0.34375 
Q 39.109375 -1.421875 33.890625 -1.421875 
Q 20.796875 -1.421875 13.15625 6.1875 
Q 5.515625 13.8125 5.515625 26.8125 
Q 5.515625 40.234375 12.765625 48.109375 
Q 20.015625 56 32.328125 56 
Q 43.359375 56 49.78125 48.890625 
Q 56.203125 41.796875 56.203125 29.59375 
M 47.21875 32.234375 
Q 47.125 39.59375 43.09375 43.984375 
Q 39.0625 48.390625 32.421875 48.390625 
Q 24.90625 48.390625 20.390625 44.140625 
Q 15.875 39.890625 15.1875 32.171875 
z
" id="BitstreamVeraSans-Roman-65"/>
      <path d="M 45.40625 46.390625 
L 45.40625 75.984375 
L 54.390625 75.984375 
L 54.390625 0 
L 45.40625 0 
L 45.40625 8.203125 
Q 42.578125 3.328125 38.25 0.953125 
Q 33.9375 -1.421875 27.875 -1.421875 
Q 17.96875 -1.421875 11.734375 6.484375 
Q 5.515625 14.40625 5.515625 27.296875 
Q 5.515625 40.1875 11.734375 48.09375 
Q 17.96875 56 27.875 56 
Q 33.9375 56 38.25 53.625 
Q 42.578125 51.265625 45.40625 46.390625 
M 14.796875 27.296875 
Q 14.796875 17.390625 18.875 11.75 
Q 22.953125 6.109375 30.078125 6.109375 
Q 37.203125 6.109375 41.296875 11.75 
Q 45.40625 17.390625 45.40625 27.296875 
Q 45.40625 37.203125 41.296875 42.84375 
Q 37.203125 48.484375 30.078125 48.484375 
Q 22.953125 48.484375 18.875 42.84375 
Q 14.796875 37.203125 14.796875 27.296875 
" id="BitstreamVeraSans-Roman-64"/>
     </defs>
     <g transform="translate(243.50625 398.473625)scale(0.12 -0.12)">
      <use xlink:href="#BitstreamVeraSans-Roman-65"/>
      <use x="61.5234375" xlink:href="#BitstreamVeraSans-Roman-70"/>
      <use x="125.0" xlink:href="#BitstreamVeraSans-Roman-69"/>
      <use x="152.783203125" xlink:href="#BitstreamVeraSans-Roman-73"/>
      <use x="204.8828125" xlink:href="#BitstreamVeraSans-Roman-6f"/>
      <use x="266.064453125" xlink:href="#BitstreamVeraSans-Roman-64"/>
      <use x="329.541015625" xlink:href="#BitstreamVeraSans-Roman-65"/>
      <use x="391.064453125" xlink:href="#BitstreamVeraSans-Roman-73"/>
     </g>
    </g>
   </g>
   <g id="matplotlib.axis_2">
    <g id="ytick_1">
     <g id="line2d_16">
      <defs>
       <path d="M 0 0 
L 4 0 
" id="mef2fb18c97" style="stroke:#000000;stroke-width:0.5;"/>
      </defs>
      <g>
       <use style="stroke:#000000;stroke-width:0.5;" x="46.8975" xlink:href="#mef2fb18c97" y="368.74175"/>
      </g>
     </g>
     <g id="line2d_17">
      <defs>
       <path d="M 0 0 
L -4 0 
" id="m5f7fc54430" style="stroke:#000000;stroke-width:0.5;"/>
      </defs>
      <g>
       <use style="stroke:#000000;stroke-width:0.5;" x="493.2975" xlink:href="#m5f7fc54430" y="368.74175"/>
      </g>
     </g>
     <g id="text_9">
      <!-- 0.0 -->
      <defs>
       <path d="M 10.6875 12.40625 
L 21 12.40625 
L 21 0 
L 10.6875 0 
z
" id="BitstreamVeraSans-Roman-2e"/>
      </defs>
      <g transform="translate(23.81375 372.053)scale(0.12 -0.12)">
       <use xlink:href="#BitstreamVeraSans-Roman-30"/>
       <use x="63.623046875" xlink:href="#BitstreamVeraSans-Roman-2e"/>
       <use x="95.41015625" xlink:href="#BitstreamVeraSans-Roman-30"/>
      </g>
     </g>
    </g>
    <g id="ytick_2">
     <g id="line2d_18">
      <g>
       <use style="stroke:#000000;stroke-width:0.5;" x="46.8975" xlink:href="#mef2fb18c97" y="319.370321429"/>
      </g>
     </g>
     <g id="line2d_19">
      <g>
       <use style="stroke:#000000;stroke-width:0.5;" x="493.2975" xlink:href="#m5f7fc54430" y="319.370321429"/>
      </g>
     </g>
     <g id="text_10">
      <!-- 0.2 -->
      <g transform="translate(23.81375 322.681571429)scale(0.12 -0.12)">
       <use xlink:href="#BitstreamVeraSans-Roman-30"/>
       <use x="63.623046875" xlink:href="#BitstreamVeraSans-Roman-2e"/>
       <use x="95.41015625" xlink:href="#BitstreamVeraSans-Roman-32"/>
      </g>
     </g>
    </g>
    <g id="ytick_3">
     <g id="line2d_20">
      <g>
       <use style="stroke:#000000;stroke-width:0.5;" x="46.8975" xlink:href="#mef2fb18c97" y="269.998892857"/>
      </g>
     </g>
     <g id="line2d_21">
      <g>
       <use style="stroke:#000000;stroke-width:0.5;" x="493.2975" xlink:href="#m5f7fc54430" y="269.998892857"/>
      </g>
     </g>
     <g id="text_11">
      <!-- 0.4 -->
      <g transform="translate(23.81375 273.310142857)scale(0.12 -0.12)">
       <use xlink:href="#BitstreamVeraSans-Roman-30"/>
       <use x="63.623046875" xlink:href="#BitstreamVeraSans-Roman-2e"/>
       <use x="95.41015625" xlink:href="#BitstreamVeraSans-Roman-34"/>
      </g>
     </g>
    </g>
    <g id="ytick_4">
     <g id="line2d_22">
      <g>
       <use style="stroke:#000000;stroke-width:0.5;" x="46.8975" xlink:href="#mef2fb18c97" y="220.627464286"/>
      </g>
     </g>
     <g id="line2d_23">
      <g>
       <use style="stroke:#000000;stroke-width:0.5;" x="493.2975" xlink:href="#m5f7fc54430" y="220.627464286"/>
      </g>
     </g>
     <g id="text_12">
      <!-- 0.6 -->
      <g transform="translate(23.81375 223.938714286)scale(0.12 -0.12)">
       <use xlink:href="#BitstreamVeraSans-Roman-30"/>
       <use x="63.623046875" xlink:href="#BitstreamVeraSans-Roman-2e"/>
       <use x="95.41015625" xlink:href="#BitstreamVeraSans-Roman-36"/>
      </g>
     </g>
    </g>
    <g id="ytick_5">
     <g id="line2d_24">
      <g>
       <use style="stroke:#000000;stroke-width:0.5;" x="46.8975" xlink:href="#mef2fb18c97" y="171.256035714"/>
      </g>
     </g>
     <g id="line2d_25">
      <g>
       <use style="stroke:#000000;stroke-width:0.5;" x="493.2975" xlink:href="#m5f7fc54430" y="171.256035714"/>
      </g>
     </g>
     <g id="text_13">
      <!-- 0.8 -->
      <g transform="translate(23.81375 174.567285714)scale(0.12 -0.12)">
       <use xlink:href="#BitstreamVeraSans-Roman-30"/>
       <use x="63.623046875" xlink:href="#BitstreamVeraSans-Roman-2e"/>
       <use x="95.41015625" xlink:href="#BitstreamVeraSans-Roman-38"/>
      </g>
     </g>
    </g>
    <g id="ytick_6">
     <g id="line2d_26">
      <g>
       <use style="stroke:#000000;stroke-width:0.5;" x="46.8975" xlink:href="#mef2fb18c97" y="121.884607143"/>
      </g>
     </g>
     <g id="line2d_27">
      <g>
       <use style="stroke:#000000;stroke-width:0.5;" x="493.2975" xlink:href="#m5f7fc54430" y="121.884607143"/>
      </g>
     </g>
     <g id="text_14">
      <!-- 1.0 -->
      <g transform="translate(23.81375 125.195857143)scale(0.12 -0.12)">
       <use xlink:href="#BitstreamVeraSans-Roman-31"/>
       <use x="63.623046875" xlink:href="#BitstreamVeraSans-Roman-2e"/>
       <use x="95.41015625" xlink:href="#BitstreamVeraSans-Roman-30"/>
      </g>
     </g>
    </g>
    <g id="ytick_7">
     <g id="line2d_28">
      <g>
       <use style="stroke:#000000;stroke-width:0.5;" x="46.8975" xlink:href="#mef2fb18c97" y="72.5131785714"/>
      </g>
     </g>
     <g id="line2d_29">
      <g>
       <use style="stroke:#000000;stroke-width:0.5;" x="493.2975" xlink:href="#m5f7fc54430" y="72.5131785714"/>
      </g>
     </g>
     <g id="text_15">
      <!-- 1.2 -->
      <g transform="translate(23.81375 75.8244285714)scale(0.12 -0.12)">
       <use xlink:href="#BitstreamVeraSans-Roman-31"/>
       <use x="63.623046875" xlink:href="#BitstreamVeraSans-Roman-2e"/>
       <use x="95.41015625" xlink:href="#BitstreamVeraSans-Roman-32"/>
      </g>
     </g>
    </g>
    <g id="ytick_8">
     <g id="line2d_30">
      <g>
       <use style="stroke:#000000;stroke-width:0.5;" x="46.8975" xlink:href="#mef2fb18c97" y="23.14175"/>
      </g>
     </g>
     <g id="line2d_31">
      <g>
       <use style="stroke:#000000;stroke-width:0.5;" x="493.2975" xlink:href="#m5f7fc54430" y="23.14175"/>
      </g>
     </g>
     <g id="text_16">
      <!-- 1.4 -->
      <g transform="translate(23.81375 26.453)scale(0.12 -0.12)">
       <use xlink:href="#BitstreamVeraSans-Roman-31"/>
       <use x="63.623046875" xlink:href="#BitstreamVeraSans-Roman-2e"/>
       <use x="95.41015625" xlink:href="#BitstreamVeraSans-Roman-34"/>
      </g>
     </g>
    </g>
    <g id="text_17">
     <!-- average maxQ -->
     <defs>
      <path d="M 52 44.1875 
Q 55.375 50.25 60.0625 53.125 
Q 64.75 56 71.09375 56 
Q 79.640625 56 84.28125 50.015625 
Q 88.921875 44.046875 88.921875 33.015625 
L 88.921875 0 
L 79.890625 0 
L 79.890625 32.71875 
Q 79.890625 40.578125 77.09375 44.375 
Q 74.3125 48.1875 68.609375 48.1875 
Q 61.625 48.1875 57.5625 43.546875 
Q 53.515625 38.921875 53.515625 30.90625 
L 53.515625 0 
L 44.484375 0 
L 44.484375 32.71875 
Q 44.484375 40.625 41.703125 44.40625 
Q 38.921875 48.1875 33.109375 48.1875 
Q 26.21875 48.1875 22.15625 43.53125 
Q 18.109375 38.875 18.109375 30.90625 
L 18.109375 0 
L 9.078125 0 
L 9.078125 54.6875 
L 18.109375 54.6875 
L 18.109375 46.1875 
Q 21.1875 51.21875 25.484375 53.609375 
Q 29.78125 56 35.6875 56 
Q 41.65625 56 45.828125 52.96875 
Q 50 49.953125 52 44.1875 
" id="BitstreamVeraSans-Roman-6d"/>
      <path d="M 39.40625 66.21875 
Q 28.65625 66.21875 22.328125 58.203125 
Q 16.015625 50.203125 16.015625 36.375 
Q 16.015625 22.609375 22.328125 14.59375 
Q 28.65625 6.59375 39.40625 6.59375 
Q 50.140625 6.59375 56.421875 14.59375 
Q 62.703125 22.609375 62.703125 36.375 
Q 62.703125 50.203125 56.421875 58.203125 
Q 50.140625 66.21875 39.40625 66.21875 
M 53.21875 1.3125 
L 66.21875 -12.890625 
L 54.296875 -12.890625 
L 43.5 -1.21875 
Q 41.890625 -1.3125 41.03125 -1.359375 
Q 40.1875 -1.421875 39.40625 -1.421875 
Q 24.03125 -1.421875 14.8125 8.859375 
Q 5.609375 19.140625 5.609375 36.375 
Q 5.609375 53.65625 14.8125 63.9375 
Q 24.03125 74.21875 39.40625 74.21875 
Q 54.734375 74.21875 63.90625 63.9375 
Q 73.09375 53.65625 73.09375 36.375 
Q 73.09375 23.6875 67.984375 14.640625 
Q 62.890625 5.609375 53.21875 1.3125 
" id="BitstreamVeraSans-Roman-51"/>
      <path d="M 2.984375 54.6875 
L 12.5 54.6875 
L 29.59375 8.796875 
L 46.6875 54.6875 
L 56.203125 54.6875 
L 35.6875 0 
L 23.484375 0 
z
" id="BitstreamVeraSans-Roman-76"/>
      <path d="M 45.40625 27.984375 
Q 45.40625 37.75 41.375 43.109375 
Q 37.359375 48.484375 30.078125 48.484375 
Q 22.859375 48.484375 18.828125 43.109375 
Q 14.796875 37.75 14.796875 27.984375 
Q 14.796875 18.265625 18.828125 12.890625 
Q 22.859375 7.515625 30.078125 7.515625 
Q 37.359375 7.515625 41.375 12.890625 
Q 45.40625 18.265625 45.40625 27.984375 
M 54.390625 6.78125 
Q 54.390625 -7.171875 48.1875 -13.984375 
Q 42 -20.796875 29.203125 -20.796875 
Q 24.46875 -20.796875 20.265625 -20.09375 
Q 16.0625 -19.390625 12.109375 -17.921875 
L 12.109375 -9.1875 
Q 16.0625 -11.328125 19.921875 -12.34375 
Q 23.78125 -13.375 27.78125 -13.375 
Q 36.625 -13.375 41.015625 -8.765625 
Q 45.40625 -4.15625 45.40625 5.171875 
L 45.40625 9.625 
Q 42.625 4.78125 38.28125 2.390625 
Q 33.9375 0 27.875 0 
Q 17.828125 0 11.671875 7.65625 
Q 5.515625 15.328125 5.515625 27.984375 
Q 5.515625 40.671875 11.671875 48.328125 
Q 17.828125 56 27.875 56 
Q 33.9375 56 38.28125 53.609375 
Q 42.625 51.21875 45.40625 46.390625 
L 45.40625 54.6875 
L 54.390625 54.6875 
z
" id="BitstreamVeraSans-Roman-67"/>
      <path d="M 54.890625 54.6875 
L 35.109375 28.078125 
L 55.90625 0 
L 45.3125 0 
L 29.390625 21.484375 
L 13.484375 0 
L 2.875 0 
L 24.125 28.609375 
L 4.6875 54.6875 
L 15.28125 54.6875 
L 29.78125 35.203125 
L 44.28125 54.6875 
z
" id="BitstreamVeraSans-Roman-78"/>
      <path d="M 41.109375 46.296875 
Q 39.59375 47.171875 37.8125 47.578125 
Q 36.03125 48 33.890625 48 
Q 26.265625 48 22.1875 43.046875 
Q 18.109375 38.09375 18.109375 28.8125 
L 18.109375 0 
L 9.078125 0 
L 9.078125 54.6875 
L 18.109375 54.6875 
L 18.109375 46.1875 
Q 20.953125 51.171875 25.484375 53.578125 
Q 30.03125 56 36.53125 56 
Q 37.453125 56 38.578125 55.875 
Q 39.703125 55.765625 41.0625 55.515625 
z
" id="BitstreamVeraSans-Roman-72"/>
      <path d="M 34.28125 27.484375 
Q 23.390625 27.484375 19.1875 25 
Q 14.984375 22.515625 14.984375 16.5 
Q 14.984375 11.71875 18.140625 8.90625 
Q 21.296875 6.109375 26.703125 6.109375 
Q 34.1875 6.109375 38.703125 11.40625 
Q 43.21875 16.703125 43.21875 25.484375 
L 43.21875 27.484375 
z
M 52.203125 31.203125 
L 52.203125 0 
L 43.21875 0 
L 43.21875 8.296875 
Q 40.140625 3.328125 35.546875 0.953125 
Q 30.953125 -1.421875 24.3125 -1.421875 
Q 15.921875 -1.421875 10.953125 3.296875 
Q 6 8.015625 6 15.921875 
Q 6 25.140625 12.171875 29.828125 
Q 18.359375 34.515625 30.609375 34.515625 
L 43.21875 34.515625 
L 43.21875 35.40625 
Q 43.21875 41.609375 39.140625 45 
Q 35.0625 48.390625 27.6875 48.390625 
Q 23 48.390625 18.546875 47.265625 
Q 14.109375 46.140625 10.015625 43.890625 
L 10.015625 52.203125 
Q 14.9375 54.109375 19.578125 55.046875 
Q 24.21875 56 28.609375 56 
Q 40.484375 56 46.34375 49.84375 
Q 52.203125 43.703125 52.203125 31.203125 
" id="BitstreamVeraSans-Roman-61"/>
      <path id="BitstreamVeraSans-Roman-20"/>
     </defs>
     <g transform="translate(16.318125 240.208625)rotate(-90.0)scale(0.12 -0.12)">
      <use xlink:href="#BitstreamVeraSans-Roman-61"/>
      <use x="61.279296875" xlink:href="#BitstreamVeraSans-Roman-76"/>
      <use x="120.458984375" xlink:href="#BitstreamVeraSans-Roman-65"/>
      <use x="181.982421875" xlink:href="#BitstreamVeraSans-Roman-72"/>
      <use x="223.095703125" xlink:href="#BitstreamVeraSans-Roman-61"/>
      <use x="284.375" xlink:href="#BitstreamVeraSans-Roman-67"/>
      <use x="347.8515625" xlink:href="#BitstreamVeraSans-Roman-65"/>
      <use x="409.375" xlink:href="#BitstreamVeraSans-Roman-20"/>
      <use x="441.162109375" xlink:href="#BitstreamVeraSans-Roman-6d"/>
      <use x="538.57421875" xlink:href="#BitstreamVeraSans-Roman-61"/>
      <use x="599.853515625" xlink:href="#BitstreamVeraSans-Roman-78"/>
      <use x="659.033203125" xlink:href="#BitstreamVeraSans-Roman-51"/>
     </g>
    </g>
   </g>
   <g id="text_18">
    <!-- Average maxQ per episode, joint1 -->
    <defs>
     <path d="M 11.71875 12.40625 
L 22.015625 12.40625 
L 22.015625 4 
L 14.015625 -11.625 
L 7.71875 -11.625 
L 11.71875 4 
z
" id="BitstreamVeraSans-Roman-2c"/>
     <path d="M 34.1875 63.1875 
L 20.796875 26.90625 
L 47.609375 26.90625 
z
M 28.609375 72.90625 
L 39.796875 72.90625 
L 67.578125 0 
L 57.328125 0 
L 50.6875 18.703125 
L 17.828125 18.703125 
L 11.1875 0 
L 0.78125 0 
z
" id="BitstreamVeraSans-Roman-41"/>
     <path d="M 54.890625 33.015625 
L 54.890625 0 
L 45.90625 0 
L 45.90625 32.71875 
Q 45.90625 40.484375 42.875 44.328125 
Q 39.84375 48.1875 33.796875 48.1875 
Q 26.515625 48.1875 22.3125 43.546875 
Q 18.109375 38.921875 18.109375 30.90625 
L 18.109375 0 
L 9.078125 0 
L 9.078125 54.6875 
L 18.109375 54.6875 
L 18.109375 46.1875 
Q 21.34375 51.125 25.703125 53.5625 
Q 30.078125 56 35.796875 56 
Q 45.21875 56 50.046875 50.171875 
Q 54.890625 44.34375 54.890625 33.015625 
" id="BitstreamVeraSans-Roman-6e"/>
     <path d="M 9.421875 54.6875 
L 18.40625 54.6875 
L 18.40625 -0.984375 
Q 18.40625 -11.421875 14.421875 -16.109375 
Q 10.453125 -20.796875 1.609375 -20.796875 
L -1.8125 -20.796875 
L -1.8125 -13.1875 
L 0.59375 -13.1875 
Q 5.71875 -13.1875 7.5625 -10.8125 
Q 9.421875 -8.453125 9.421875 -0.984375 
z
M 9.421875 75.984375 
L 18.40625 75.984375 
L 18.40625 64.59375 
L 9.421875 64.59375 
z
" id="BitstreamVeraSans-Roman-6a"/>
     <path d="M 18.3125 70.21875 
L 18.3125 54.6875 
L 36.8125 54.6875 
L 36.8125 47.703125 
L 18.3125 47.703125 
L 18.3125 18.015625 
Q 18.3125 11.328125 20.140625 9.421875 
Q 21.96875 7.515625 27.59375 7.515625 
L 36.8125 7.515625 
L 36.8125 0 
L 27.59375 0 
Q 17.1875 0 13.234375 3.875 
Q 9.28125 7.765625 9.28125 18.015625 
L 9.28125 47.703125 
L 2.6875 47.703125 
L 2.6875 54.6875 
L 9.28125 54.6875 
L 9.28125 70.21875 
z
" id="BitstreamVeraSans-Roman-74"/>
    </defs>
    <g transform="translate(146.8245 18.14175)scale(0.144 -0.144)">
     <use xlink:href="#BitstreamVeraSans-Roman-41"/>
     <use x="68.330078125" xlink:href="#BitstreamVeraSans-Roman-76"/>
     <use x="127.509765625" xlink:href="#BitstreamVeraSans-Roman-65"/>
     <use x="189.033203125" xlink:href="#BitstreamVeraSans-Roman-72"/>
     <use x="230.146484375" xlink:href="#BitstreamVeraSans-Roman-61"/>
     <use x="291.42578125" xlink:href="#BitstreamVeraSans-Roman-67"/>
     <use x="354.90234375" xlink:href="#BitstreamVeraSans-Roman-65"/>
     <use x="416.42578125" xlink:href="#BitstreamVeraSans-Roman-20"/>
     <use x="448.212890625" xlink:href="#BitstreamVeraSans-Roman-6d"/>
     <use x="545.625" xlink:href="#BitstreamVeraSans-Roman-61"/>
     <use x="606.904296875" xlink:href="#BitstreamVeraSans-Roman-78"/>
     <use x="666.083984375" xlink:href="#BitstreamVeraSans-Roman-51"/>
     <use x="744.794921875" xlink:href="#BitstreamVeraSans-Roman-20"/>
     <use x="776.58203125" xlink:href="#BitstreamVeraSans-Roman-70"/>
     <use x="840.05859375" xlink:href="#BitstreamVeraSans-Roman-65"/>
     <use x="901.58203125" xlink:href="#BitstreamVeraSans-Roman-72"/>
     <use x="942.6953125" xlink:href="#BitstreamVeraSans-Roman-20"/>
     <use x="974.482421875" xlink:href="#BitstreamVeraSans-Roman-65"/>
     <use x="1036.005859375" xlink:href="#BitstreamVeraSans-Roman-70"/>
     <use x="1099.482421875" xlink:href="#BitstreamVeraSans-Roman-69"/>
     <use x="1127.265625" xlink:href="#BitstreamVeraSans-Roman-73"/>
     <use x="1179.365234375" xlink:href="#BitstreamVeraSans-Roman-6f"/>
     <use x="1240.546875" xlink:href="#BitstreamVeraSans-Roman-64"/>
     <use x="1304.0234375" xlink:href="#BitstreamVeraSans-Roman-65"/>
     <use x="1365.546875" xlink:href="#BitstreamVeraSans-Roman-2c"/>
     <use x="1397.333984375" xlink:href="#BitstreamVeraSans-Roman-20"/>
     <use x="1429.12109375" xlink:href="#BitstreamVeraSans-Roman-6a"/>
     <use x="1456.904296875" xlink:href="#BitstreamVeraSans-Roman-6f"/>
     <use x="1518.0859375" xlink:href="#BitstreamVeraSans-Roman-69"/>
     <use x="1545.869140625" xlink:href="#BitstreamVeraSans-Roman-6e"/>
     <use x="1609.248046875" xlink:href="#BitstreamVeraSans-Roman-74"/>
     <use x="1648.45703125" xlink:href="#BitstreamVeraSans-Roman-31"/>
    </g>
   </g>
  </g>
 </g>
 <defs>
  <clipPath id="pc04d9fdf84">
   <rect height="345.6" width="446.4" x="46.8975" y="23.14175"/>
  </clipPath>
 </defs>
</svg>
