<?xml version="1.0" encoding="utf-8" standalone="no"?>
<!DOCTYPE svg PUBLIC "-//W3C//DTD SVG 1.1//EN"
  "http://www.w3.org/Graphics/SVG/1.1/DTD/svg11.dtd">
<!-- Created with matplotlib (http://matplotlib.org/) -->
<svg height="408pt" version="1.1" viewBox="0 0 511 408" width="511pt" xmlns="http://www.w3.org/2000/svg" xmlns:xlink="http://www.w3.org/1999/xlink">
 <defs>
  <style type="text/css">
*{stroke-linecap:butt;stroke-linejoin:round;stroke-miterlimit:100000;}
  </style>
 </defs>
 <g id="figure_1">
  <g id="patch_1">
   <path d="M 0 408.16925 
L 511.95 408.16925 
L 511.95 0 
L 0 0 
z
" style="fill:#ffffff;"/>
  </g>
  <g id="axes_1">
   <g id="patch_2">
    <path d="M 46.8975 368.74175 
L 493.2975 368.74175 
L 493.2975 23.14175 
L 46.8975 23.14175 
z
" style="fill:#ffffff;"/>
   </g>
   <g id="line2d_1">
    <path clip-path="url(#paa1c6692bf)" d="M 47.535214 287.247074 
L 48.172929 256.607779 
L 48.810643 268.367869 
L 49.448357 238.818195 
L 50.086071 249.555123 
L 50.723786 269.819799 
L 51.3615 221.301726 
L 51.999214 242.35809 
L 52.636929 281.591538 
L 53.274643 259.250523 
L 53.912357 258.655259 
L 54.550071 241.839229 
L 55.187786 261.473513 
L 55.8255 242.538693 
L 56.463214 249.070717 
L 57.100929 258.90508 
L 57.738643 253.724573 
L 58.376357 269.794804 
L 59.651786 238.683381 
L 60.2895 253.361944 
L 60.927214 238.647165 
L 61.564929 231.056718 
L 62.202643 271.917807 
L 62.840357 266.253575 
L 63.478071 256.999496 
L 64.115786 242.185068 
L 64.7535 248.180271 
L 65.391214 224.680545 
L 66.028929 248.476772 
L 66.666643 256.420951 
L 67.304357 272.94118 
L 67.942071 256.056981 
L 68.579786 262.069397 
L 69.2175 272.130698 
L 69.855214 223.2055 
L 70.492929 250.443203 
L 71.130643 272.448165 
L 71.768357 259.203204 
L 72.406071 264.223851 
L 73.043786 254.492473 
L 73.6815 278.844985 
L 74.319214 268.225548 
L 74.956929 246.850319 
L 75.594643 245.972934 
L 76.870071 226.051517 
L 77.507786 259.763146 
L 78.1455 253.251501 
L 78.783214 238.713149 
L 79.420929 252.842501 
L 80.058643 255.062085 
L 80.696357 292.331508 
L 81.334071 280.213425 
L 81.971786 243.854371 
L 82.6095 262.123274 
L 83.247214 215.597988 
L 83.884929 224.222849 
L 84.522643 272.166299 
L 85.160357 259.541726 
L 85.798071 213.952923 
L 86.435786 249.164271 
L 87.0735 217.537473 
L 87.711214 262.444939 
L 88.348929 256.26509 
L 88.986643 228.009292 
L 89.624357 297.301848 
L 90.262071 267.909731 
L 90.899786 220.797865 
L 91.5375 228.857556 
L 92.175214 241.495882 
L 92.812929 261.267305 
L 93.450643 260.725758 
L 94.088357 235.288256 
L 94.726071 258.984743 
L 95.363786 231.295192 
L 96.0015 244.11257 
L 96.639214 252.377436 
L 97.276929 240.464649 
L 97.914643 248.020933 
L 98.552357 249.888827 
L 99.190071 255.891327 
L 99.827786 219.114864 
L 100.4655 260.582268 
L 101.103214 260.965866 
L 101.740929 239.336358 
L 102.378643 254.201786 
L 103.016357 259.22089 
L 103.654071 233.68083 
L 104.291786 284.389929 
L 104.9295 255.117561 
L 105.567214 258.991428 
L 106.204929 202.333792 
L 106.842643 255.318202 
L 107.480357 229.121912 
L 108.118071 266.081124 
L 108.755786 278.447137 
L 109.3935 227.696405 
L 110.031214 237.474079 
L 110.668929 262.791311 
L 111.306643 250.942638 
L 111.944357 242.836975 
L 112.582071 227.222278 
L 113.219786 252.967607 
L 113.8575 257.53178 
L 114.495214 249.56837 
L 115.132929 236.325933 
L 115.770643 268.150239 
L 116.408357 242.184669 
L 117.046071 297.532788 
L 117.683786 235.539086 
L 118.3215 242.944957 
L 118.959214 248.723399 
L 119.596929 242.176185 
L 120.234643 277.870876 
L 120.872357 249.278091 
L 121.510071 267.455668 
L 122.147786 237.610944 
L 122.7855 250.780809 
L 123.423214 266.503927 
L 124.060929 253.661752 
L 124.698643 304.057053 
L 125.336357 268.273637 
L 125.974071 260.062779 
L 126.611786 239.156942 
L 127.2495 270.38565 
L 127.887214 238.766641 
L 128.524929 248.29246 
L 129.162643 251.638058 
L 130.438071 234.389461 
L 131.075786 240.038159 
L 131.7135 283.661074 
L 132.351214 262.567426 
L 132.988929 271.062556 
L 133.626643 235.635523 
L 134.264357 249.647602 
L 134.902071 285.020727 
L 135.539786 251.951282 
L 136.1775 274.321137 
L 136.815214 239.616576 
L 137.452929 242.2446 
L 138.090643 259.458892 
L 138.728357 258.360486 
L 139.366071 246.723513 
L 140.003786 229.544271 
L 140.6415 230.656902 
L 141.279214 242.263317 
L 141.916929 227.659302 
L 142.554643 279.218755 
L 143.192357 266.819104 
L 143.830071 261.645339 
L 144.467786 251.716309 
L 145.1055 259.526819 
L 145.743214 220.897657 
L 146.380929 275.856461 
L 147.018643 267.745679 
L 147.656357 211.546119 
L 148.294071 259.125481 
L 148.931786 238.905575 
L 149.5695 275.851056 
L 150.207214 261.576669 
L 150.844929 205.627125 
L 151.482643 299.929891 
L 152.120357 275.63986 
L 152.758071 234.081326 
L 153.395786 257.124242 
L 154.0335 268.857661 
L 154.671214 261.999495 
L 155.308929 271.194883 
L 156.584357 252.41535 
L 157.222071 258.988318 
L 157.859786 294.37904 
L 158.4975 255.243375 
L 159.135214 277.332301 
L 159.772929 223.048055 
L 160.410643 263.979136 
L 161.048357 243.409415 
L 161.686071 261.674289 
L 162.323786 265.205965 
L 163.599214 215.315077 
L 164.236929 224.98642 
L 164.874643 228.681055 
L 165.512357 237.805948 
L 166.150071 253.395608 
L 166.787786 277.127682 
L 167.4255 272.982373 
L 168.063214 226.288927 
L 168.700929 244.706175 
L 169.338643 240.763472 
L 169.976357 282.516685 
L 170.614071 245.751941 
L 171.251786 254.303464 
L 171.8895 297.176545 
L 172.527214 277.263926 
L 173.164929 245.187122 
L 173.802643 261.436101 
L 174.440357 252.769124 
L 175.078071 271.987401 
L 175.715786 241.298233 
L 176.3535 248.413644 
L 176.991214 262.717939 
L 177.628929 252.47101 
L 178.266643 246.358233 
L 178.904357 267.740761 
L 179.542071 235.209981 
L 180.8175 255.397608 
L 181.455214 257.17556 
L 182.092929 251.238307 
L 182.730643 261.043613 
L 183.368357 268.614692 
L 184.006071 237.790442 
L 184.643786 253.228457 
L 185.2815 205.124737 
L 185.919214 229.314451 
L 186.556929 315.31933 
L 187.194643 243.782266 
L 187.832357 258.517066 
L 188.470071 223.440624 
L 189.107786 240.792012 
L 189.7455 270.203591 
L 190.383214 231.681862 
L 191.020929 260.530246 
L 191.658643 232.419657 
L 192.296357 305.175924 
L 192.934071 261.557866 
L 194.2095 208.411851 
L 194.847214 345.130442 
L 195.484929 269.236609 
L 196.122643 235.992102 
L 196.760357 278.93685 
L 197.398071 239.970966 
L 198.035786 261.786364 
L 198.6735 237.98274 
L 199.948929 253.685602 
L 200.586643 258.442771 
L 201.224357 259.389896 
L 201.862071 245.378574 
L 202.499786 220.76681 
L 203.1375 275.92668 
L 203.775214 260.395263 
L 204.412929 256.816024 
L 205.050643 243.006945 
L 205.688357 287.069748 
L 206.326071 269.009168 
L 206.963786 279.812779 
L 207.6015 265.288328 
L 208.239214 261.794695 
L 208.876929 226.434972 
L 210.152357 274.696281 
L 210.790071 279.482373 
L 211.427786 252.27584 
L 212.0655 268.404936 
L 212.703214 271.927231 
L 213.340929 268.613009 
L 213.978643 274.62023 
L 214.616357 265.927864 
L 215.254071 278.274064 
L 215.891786 267.934251 
L 216.5295 285.397245 
L 217.167214 291.412661 
L 217.804929 292.951006 
L 218.442643 279.588132 
L 219.080357 297.890052 
L 219.718071 291.254028 
L 220.355786 299.02688 
L 220.9935 300.54485 
L 221.631214 298.4993 
L 222.268929 305.911784 
L 222.906643 299.742868 
L 224.182071 309.033299 
L 224.819786 310.896341 
L 225.4575 322.46993 
L 226.095214 313.736387 
L 226.732929 314.697272 
L 227.370643 333.013905 
L 228.008357 315.228774 
L 228.646071 328.976148 
L 229.283786 324.821374 
L 229.9215 317.452017 
L 230.559214 318.071678 
L 231.196929 323.376211 
L 231.834643 319.729901 
L 232.472357 327.180735 
L 233.110071 324.599254 
L 233.747786 329.708432 
L 234.3855 322.463127 
L 235.023214 345.725399 
L 235.660929 330.254402 
L 236.298643 331.162787 
L 236.936357 330.125748 
L 237.574071 332.590242 
L 238.211786 331.982326 
L 238.8495 337.448894 
L 239.487214 339.616602 
L 240.124929 333.238567 
L 240.762643 339.276671 
L 241.400357 335.509358 
L 242.038071 340.812815 
L 242.675786 341.009477 
L 243.3135 347.805667 
L 243.951214 346.461644 
L 244.588929 340.677837 
L 245.226643 349.895447 
L 246.502071 330.914761 
L 247.139786 344.751103 
L 247.7775 345.80432 
L 248.415214 362.983975 
L 249.052929 345.178297 
L 249.690643 343.636549 
L 250.328357 336.65122 
L 250.966071 343.142163 
L 251.603786 340.159694 
L 252.2415 351.245697 
L 252.879214 346.685343 
L 253.516929 341.102145 
L 254.154643 344.49398 
L 254.792357 348.960466 
L 255.430071 348.92562 
L 256.067786 342.130499 
L 256.7055 346.008568 
L 257.980929 359.743022 
L 258.618643 350.756427 
L 259.256357 352.009673 
L 259.894071 342.378134 
L 260.531786 354.317426 
L 261.1695 344.556098 
L 261.807214 352.95395 
L 263.082643 345.246905 
L 263.720357 350.016728 
L 264.358071 338.4252 
L 264.995786 343.927979 
L 265.6335 344.148757 
L 266.271214 334.514602 
L 266.908929 358.828173 
L 267.546643 341.697499 
L 268.184357 347.595683 
L 268.822071 345.787131 
L 269.459786 337.021294 
L 270.0975 349.533803 
L 270.735214 343.092045 
L 271.372929 337.919717 
L 272.010643 355.910029 
L 272.648357 346.965241 
L 273.286071 340.71601 
L 273.923786 331.256051 
L 274.5615 334.292436 
L 275.199214 336.676535 
L 275.836929 352.338352 
L 276.474643 344.373296 
L 277.112357 325.486707 
L 277.750071 364.872857 
L 278.387786 358.685607 
L 279.663214 328.565179 
L 280.300929 341.60881 
L 280.938643 365.163954 
L 282.214071 339.586977 
L 282.851786 341.30583 
L 283.4895 326.384043 
L 284.127214 324.450112 
L 284.764929 347.570724 
L 285.402643 329.016612 
L 286.040357 349.24633 
L 286.678071 342.840382 
L 287.315786 326.975048 
L 287.9535 334.931881 
L 288.591214 319.890781 
L 289.228929 313.081609 
L 289.866643 336.093086 
L 290.504357 354.068085 
L 291.142071 342.455972 
L 291.779786 343.606601 
L 292.4175 322.738509 
L 293.692929 352.110042 
L 294.330643 316.099982 
L 294.968357 329.121893 
L 295.606071 350.58486 
L 296.243786 299.994762 
L 296.8815 303.877259 
L 297.519214 314.296097 
L 298.156929 301.845429 
L 298.794643 330.391876 
L 299.432357 311.231632 
L 300.070071 300.891257 
L 300.707786 324.621505 
L 301.3455 330.401199 
L 301.983214 288.206461 
L 302.620929 307.451647 
L 303.258643 363.945832 
L 303.896357 304.861562 
L 304.534071 349.367704 
L 305.171786 321.715187 
L 305.8095 333.336136 
L 306.447214 303.037124 
L 307.084929 281.9721 
L 307.722643 283.203942 
L 308.360357 343.907764 
L 308.998071 279.953622 
L 309.635786 311.527238 
L 310.2735 334.595315 
L 310.911214 328.165639 
L 311.548929 273.740701 
L 312.186643 282.806626 
L 312.824357 342.037998 
L 313.462071 319.88861 
L 314.099786 325.253614 
L 314.7375 268.10582 
L 315.375214 303.966052 
L 316.012929 278.436088 
L 316.650643 327.829892 
L 317.288357 260.132626 
L 317.926071 331.699519 
L 318.563786 350.057059 
L 319.2015 301.707298 
L 319.839214 302.463248 
L 320.476929 264.901987 
L 321.114643 324.48253 
L 321.752357 326.80637 
L 322.390071 268.618408 
L 323.027786 311.405951 
L 323.6655 262.823591 
L 324.303214 260.681783 
L 324.940929 322.623436 
L 325.578643 319.44016 
L 326.216357 313.795204 
L 326.854071 297.351597 
L 327.491786 258.646052 
L 328.1295 268.876788 
L 328.767214 262.052076 
L 329.404929 277.696966 
L 330.042643 244.612209 
L 330.680357 262.03135 
L 331.318071 332.983602 
L 331.955786 269.945126 
L 332.5935 245.868077 
L 333.231214 256.092729 
L 333.868929 277.165511 
L 334.506643 257.027321 
L 335.144357 322.8134 
L 335.782071 337.723565 
L 336.419786 245.360838 
L 337.0575 255.940036 
L 337.695214 262.545754 
L 338.332929 234.641493 
L 338.970643 242.088744 
L 339.608357 223.659938 
L 340.246071 243.446201 
L 340.883786 337.710833 
L 341.5215 321.988252 
L 342.159214 296.032005 
L 342.796929 343.277006 
L 343.434643 293.355533 
L 344.072357 224.74872 
L 344.710071 300.657488 
L 345.347786 211.206443 
L 345.9855 228.408013 
L 346.623214 242.30328 
L 347.260929 264.135913 
L 347.898643 219.676948 
L 348.536357 250.340757 
L 349.174071 260.069314 
L 349.811786 215.323573 
L 350.4495 233.969892 
L 351.087214 229.114152 
L 351.724929 321.735266 
L 352.362643 245.031248 
L 353.000357 235.636768 
L 353.638071 338.725806 
L 354.275786 212.957916 
L 354.9135 232.499251 
L 355.551214 322.891421 
L 356.188929 264.873072 
L 356.826643 192.542304 
L 357.464357 242.131639 
L 358.102071 189.135917 
L 358.739786 197.731883 
L 359.3775 197.055715 
L 360.652929 270.924921 
L 361.290643 243.269765 
L 361.928357 340.381332 
L 362.566071 193.969051 
L 363.203786 193.635931 
L 363.8415 290.394976 
L 364.479214 229.320181 
L 365.116929 279.848289 
L 365.754643 219.567953 
L 367.030071 263.733481 
L 367.667786 201.057483 
L 368.3055 357.219313 
L 368.943214 199.915517 
L 369.580929 214.779877 
L 370.218643 317.452996 
L 370.856357 226.407868 
L 371.494071 175.027422 
L 372.131786 207.372905 
L 372.7695 204.778372 
L 373.407214 273.002767 
L 374.044929 196.053051 
L 374.682643 226.736605 
L 375.320357 189.60201 
L 375.958071 249.268983 
L 376.595786 193.986313 
L 377.2335 197.281145 
L 377.871214 224.937483 
L 378.508929 192.154771 
L 379.146643 255.771987 
L 379.784357 201.160532 
L 380.422071 257.198018 
L 381.059786 204.71269 
L 381.6975 163.10427 
L 382.335214 180.189942 
L 382.972929 186.687063 
L 383.610643 166.171708 
L 384.248357 195.097965 
L 384.886071 177.416259 
L 385.523786 142.576709 
L 386.1615 201.750624 
L 386.799214 174.446673 
L 387.436929 191.00617 
L 388.074643 161.491231 
L 388.712357 150.67286 
L 389.350071 181.738859 
L 389.987786 251.681419 
L 390.6255 161.816398 
L 391.263214 183.991974 
L 391.900929 173.942682 
L 392.538643 269.930721 
L 393.176357 173.593835 
L 393.814071 147.258777 
L 394.451786 259.790061 
L 395.0895 159.899086 
L 395.727214 152.705789 
L 396.364929 162.102418 
L 397.002643 149.122245 
L 397.640357 147.939877 
L 398.278071 157.758019 
L 398.915786 188.560384 
L 399.5535 154.928705 
L 400.191214 203.601914 
L 400.828929 211.322381 
L 401.466643 173.673098 
L 402.104357 168.315488 
L 402.742071 124.966976 
L 403.379786 126.630608 
L 404.0175 148.267765 
L 404.655214 161.339944 
L 405.292929 149.013731 
L 405.930643 146.819754 
L 406.568357 159.803038 
L 407.206071 175.802831 
L 407.843786 131.250566 
L 408.4815 208.494583 
L 409.119214 126.21653 
L 409.756929 138.184684 
L 410.394643 166.685677 
L 411.032357 129.05231 
L 411.670071 111.347913 
L 412.307786 120.553919 
L 412.9455 155.039651 
L 413.583214 124.394801 
L 414.220929 144.479738 
L 414.858643 158.79932 
L 415.496357 114.911281 
L 416.134071 299.637504 
L 416.771786 174.848923 
L 417.4095 138.813599 
L 418.047214 152.559084 
L 418.684929 147.003693 
L 419.322643 147.655476 
L 419.960357 112.042658 
L 420.598071 280.171478 
L 421.235786 130.265074 
L 421.8735 110.165699 
L 422.511214 165.670097 
L 423.148929 105.984483 
L 423.786643 138.492096 
L 424.424357 117.687597 
L 425.062071 112.494886 
L 425.699786 120.33194 
L 426.3375 98.856275 
L 426.975214 105.982572 
L 427.612929 119.963294 
L 428.250643 136.39451 
L 428.888357 110.655277 
L 429.526071 133.707739 
L 430.163786 101.491149 
L 430.8015 96.930741 
L 431.439214 135.576953 
L 432.076929 133.967008 
L 432.714643 125.349477 
L 433.352357 100.726503 
L 433.990071 104.333124 
L 434.627786 90.458693 
L 435.2655 128.603397 
L 435.903214 96.423028 
L 436.540929 119.298797 
L 437.178643 96.693546 
L 437.816357 107.52339 
L 438.454071 108.121571 
L 439.091786 103.938621 
L 439.7295 91.589383 
L 440.367214 86.840779 
L 441.004929 128.968128 
L 441.642643 95.433995 
L 442.280357 81.922169 
L 442.918071 261.853288 
L 443.555786 79.352802 
L 444.1935 103.361491 
L 444.831214 82.603109 
L 445.468929 72.737681 
L 446.106643 66.753893 
L 446.744357 93.517709 
L 447.382071 85.25311 
L 448.019786 92.427187 
L 448.6575 93.131773 
L 449.295214 88.528136 
L 449.932929 163.017486 
L 450.570643 84.864395 
L 451.208357 236.421149 
L 451.846071 253.909644 
L 452.483786 143.191634 
L 453.1215 104.189471 
L 453.759214 78.120546 
L 454.396929 77.558603 
L 455.034643 271.740956 
L 455.672357 83.022177 
L 456.310071 73.836823 
L 456.947786 72.747035 
L 457.5855 91.866771 
L 458.223214 101.009603 
L 458.860929 75.359954 
L 459.498643 73.099087 
L 460.136357 92.697282 
L 460.774071 59.275745 
L 461.411786 84.073533 
L 462.0495 58.030702 
L 462.687214 123.760143 
L 463.324929 61.867882 
L 463.962643 64.283078 
L 464.600357 72.745655 
L 465.238071 55.324387 
L 465.875786 64.750339 
L 466.5135 58.272309 
L 467.151214 73.038106 
L 467.788929 65.455216 
L 468.426643 73.651658 
L 469.064357 55.329094 
L 469.702071 93.303211 
L 470.339786 54.633392 
L 470.339786 54.633392 
" style="fill:none;stroke:#0000ff;stroke-linecap:square;stroke-width:0.5;"/>
   </g>
   <g id="patch_3">
    <path d="M 46.8975 368.74175 
L 493.2975 368.74175 
" style="fill:none;stroke:#000000;stroke-linecap:square;stroke-linejoin:miter;"/>
   </g>
   <g id="patch_4">
    <path d="M 493.2975 368.74175 
L 493.2975 23.14175 
" style="fill:none;stroke:#000000;stroke-linecap:square;stroke-linejoin:miter;"/>
   </g>
   <g id="patch_5">
    <path d="M 46.8975 368.74175 
L 46.8975 23.14175 
" style="fill:none;stroke:#000000;stroke-linecap:square;stroke-linejoin:miter;"/>
   </g>
   <g id="patch_6">
    <path d="M 46.8975 23.14175 
L 493.2975 23.14175 
" style="fill:none;stroke:#000000;stroke-linecap:square;stroke-linejoin:miter;"/>
   </g>
   <g id="matplotlib.axis_1">
    <g id="xtick_1">
     <g id="line2d_2">
      <defs>
       <path d="M 0 0 
L 0 -4 
" id="ma07ada786f" style="stroke:#000000;stroke-width:0.5;"/>
      </defs>
      <g>
       <use style="stroke:#000000;stroke-width:0.5;" x="46.8975" xlink:href="#ma07ada786f" y="368.74175"/>
      </g>
     </g>
     <g id="line2d_3">
      <defs>
       <path d="M 0 0 
L 0 4 
" id="m14f4d2902c" style="stroke:#000000;stroke-width:0.5;"/>
      </defs>
      <g>
       <use style="stroke:#000000;stroke-width:0.5;" x="46.8975" xlink:href="#m14f4d2902c" y="23.14175"/>
      </g>
     </g>
     <g id="text_1">
      <!-- 0 -->
      <defs>
       <path d="M 31.78125 66.40625 
Q 24.171875 66.40625 20.328125 58.90625 
Q 16.5 51.421875 16.5 36.375 
Q 16.5 21.390625 20.328125 13.890625 
Q 24.171875 6.390625 31.78125 6.390625 
Q 39.453125 6.390625 43.28125 13.890625 
Q 47.125 21.390625 47.125 36.375 
Q 47.125 51.421875 43.28125 58.90625 
Q 39.453125 66.40625 31.78125 66.40625 
M 31.78125 74.21875 
Q 44.046875 74.21875 50.515625 64.515625 
Q 56.984375 54.828125 56.984375 36.375 
Q 56.984375 17.96875 50.515625 8.265625 
Q 44.046875 -1.421875 31.78125 -1.421875 
Q 19.53125 -1.421875 13.0625 8.265625 
Q 6.59375 17.96875 6.59375 36.375 
Q 6.59375 54.828125 13.0625 64.515625 
Q 19.53125 74.21875 31.78125 74.21875 
" id="BitstreamVeraSans-Roman-30"/>
      </defs>
      <g transform="translate(43.08 381.859875)scale(0.12 -0.12)">
       <use xlink:href="#BitstreamVeraSans-Roman-30"/>
      </g>
     </g>
    </g>
    <g id="xtick_2">
     <g id="line2d_4">
      <g>
       <use style="stroke:#000000;stroke-width:0.5;" x="110.668928571" xlink:href="#ma07ada786f" y="368.74175"/>
      </g>
     </g>
     <g id="line2d_5">
      <g>
       <use style="stroke:#000000;stroke-width:0.5;" x="110.668928571" xlink:href="#m14f4d2902c" y="23.14175"/>
      </g>
     </g>
     <g id="text_2">
      <!-- 100 -->
      <defs>
       <path d="M 12.40625 8.296875 
L 28.515625 8.296875 
L 28.515625 63.921875 
L 10.984375 60.40625 
L 10.984375 69.390625 
L 28.421875 72.90625 
L 38.28125 72.90625 
L 38.28125 8.296875 
L 54.390625 8.296875 
L 54.390625 0 
L 12.40625 0 
z
" id="BitstreamVeraSans-Roman-31"/>
      </defs>
      <g transform="translate(99.2164285714 381.859875)scale(0.12 -0.12)">
       <use xlink:href="#BitstreamVeraSans-Roman-31"/>
       <use x="63.623046875" xlink:href="#BitstreamVeraSans-Roman-30"/>
       <use x="127.24609375" xlink:href="#BitstreamVeraSans-Roman-30"/>
      </g>
     </g>
    </g>
    <g id="xtick_3">
     <g id="line2d_6">
      <g>
       <use style="stroke:#000000;stroke-width:0.5;" x="174.440357143" xlink:href="#ma07ada786f" y="368.74175"/>
      </g>
     </g>
     <g id="line2d_7">
      <g>
       <use style="stroke:#000000;stroke-width:0.5;" x="174.440357143" xlink:href="#m14f4d2902c" y="23.14175"/>
      </g>
     </g>
     <g id="text_3">
      <!-- 200 -->
      <defs>
       <path d="M 19.1875 8.296875 
L 53.609375 8.296875 
L 53.609375 0 
L 7.328125 0 
L 7.328125 8.296875 
Q 12.9375 14.109375 22.625 23.890625 
Q 32.328125 33.6875 34.8125 36.53125 
Q 39.546875 41.84375 41.421875 45.53125 
Q 43.3125 49.21875 43.3125 52.78125 
Q 43.3125 58.59375 39.234375 62.25 
Q 35.15625 65.921875 28.609375 65.921875 
Q 23.96875 65.921875 18.8125 64.3125 
Q 13.671875 62.703125 7.8125 59.421875 
L 7.8125 69.390625 
Q 13.765625 71.78125 18.9375 73 
Q 24.125 74.21875 28.421875 74.21875 
Q 39.75 74.21875 46.484375 68.546875 
Q 53.21875 62.890625 53.21875 53.421875 
Q 53.21875 48.921875 51.53125 44.890625 
Q 49.859375 40.875 45.40625 35.40625 
Q 44.1875 33.984375 37.640625 27.21875 
Q 31.109375 20.453125 19.1875 8.296875 
" id="BitstreamVeraSans-Roman-32"/>
      </defs>
      <g transform="translate(162.987857143 381.859875)scale(0.12 -0.12)">
       <use xlink:href="#BitstreamVeraSans-Roman-32"/>
       <use x="63.623046875" xlink:href="#BitstreamVeraSans-Roman-30"/>
       <use x="127.24609375" xlink:href="#BitstreamVeraSans-Roman-30"/>
      </g>
     </g>
    </g>
    <g id="xtick_4">
     <g id="line2d_8">
      <g>
       <use style="stroke:#000000;stroke-width:0.5;" x="238.211785714" xlink:href="#ma07ada786f" y="368.74175"/>
      </g>
     </g>
     <g id="line2d_9">
      <g>
       <use style="stroke:#000000;stroke-width:0.5;" x="238.211785714" xlink:href="#m14f4d2902c" y="23.14175"/>
      </g>
     </g>
     <g id="text_4">
      <!-- 300 -->
      <defs>
       <path d="M 40.578125 39.3125 
Q 47.65625 37.796875 51.625 33 
Q 55.609375 28.21875 55.609375 21.1875 
Q 55.609375 10.40625 48.1875 4.484375 
Q 40.765625 -1.421875 27.09375 -1.421875 
Q 22.515625 -1.421875 17.65625 -0.515625 
Q 12.796875 0.390625 7.625 2.203125 
L 7.625 11.71875 
Q 11.71875 9.328125 16.59375 8.109375 
Q 21.484375 6.890625 26.8125 6.890625 
Q 36.078125 6.890625 40.9375 10.546875 
Q 45.796875 14.203125 45.796875 21.1875 
Q 45.796875 27.640625 41.28125 31.265625 
Q 36.765625 34.90625 28.71875 34.90625 
L 20.21875 34.90625 
L 20.21875 43.015625 
L 29.109375 43.015625 
Q 36.375 43.015625 40.234375 45.921875 
Q 44.09375 48.828125 44.09375 54.296875 
Q 44.09375 59.90625 40.109375 62.90625 
Q 36.140625 65.921875 28.71875 65.921875 
Q 24.65625 65.921875 20.015625 65.03125 
Q 15.375 64.15625 9.8125 62.3125 
L 9.8125 71.09375 
Q 15.4375 72.65625 20.34375 73.4375 
Q 25.25 74.21875 29.59375 74.21875 
Q 40.828125 74.21875 47.359375 69.109375 
Q 53.90625 64.015625 53.90625 55.328125 
Q 53.90625 49.265625 50.4375 45.09375 
Q 46.96875 40.921875 40.578125 39.3125 
" id="BitstreamVeraSans-Roman-33"/>
      </defs>
      <g transform="translate(226.759285714 381.859875)scale(0.12 -0.12)">
       <use xlink:href="#BitstreamVeraSans-Roman-33"/>
       <use x="63.623046875" xlink:href="#BitstreamVeraSans-Roman-30"/>
       <use x="127.24609375" xlink:href="#BitstreamVeraSans-Roman-30"/>
      </g>
     </g>
    </g>
    <g id="xtick_5">
     <g id="line2d_10">
      <g>
       <use style="stroke:#000000;stroke-width:0.5;" x="301.983214286" xlink:href="#ma07ada786f" y="368.74175"/>
      </g>
     </g>
     <g id="line2d_11">
      <g>
       <use style="stroke:#000000;stroke-width:0.5;" x="301.983214286" xlink:href="#m14f4d2902c" y="23.14175"/>
      </g>
     </g>
     <g id="text_5">
      <!-- 400 -->
      <defs>
       <path d="M 37.796875 64.3125 
L 12.890625 25.390625 
L 37.796875 25.390625 
z
M 35.203125 72.90625 
L 47.609375 72.90625 
L 47.609375 25.390625 
L 58.015625 25.390625 
L 58.015625 17.1875 
L 47.609375 17.1875 
L 47.609375 0 
L 37.796875 0 
L 37.796875 17.1875 
L 4.890625 17.1875 
L 4.890625 26.703125 
z
" id="BitstreamVeraSans-Roman-34"/>
      </defs>
      <g transform="translate(290.530714286 381.859875)scale(0.12 -0.12)">
       <use xlink:href="#BitstreamVeraSans-Roman-34"/>
       <use x="63.623046875" xlink:href="#BitstreamVeraSans-Roman-30"/>
       <use x="127.24609375" xlink:href="#BitstreamVeraSans-Roman-30"/>
      </g>
     </g>
    </g>
    <g id="xtick_6">
     <g id="line2d_12">
      <g>
       <use style="stroke:#000000;stroke-width:0.5;" x="365.754642857" xlink:href="#ma07ada786f" y="368.74175"/>
      </g>
     </g>
     <g id="line2d_13">
      <g>
       <use style="stroke:#000000;stroke-width:0.5;" x="365.754642857" xlink:href="#m14f4d2902c" y="23.14175"/>
      </g>
     </g>
     <g id="text_6">
      <!-- 500 -->
      <defs>
       <path d="M 10.796875 72.90625 
L 49.515625 72.90625 
L 49.515625 64.59375 
L 19.828125 64.59375 
L 19.828125 46.734375 
Q 21.96875 47.46875 24.109375 47.828125 
Q 26.265625 48.1875 28.421875 48.1875 
Q 40.625 48.1875 47.75 41.5 
Q 54.890625 34.8125 54.890625 23.390625 
Q 54.890625 11.625 47.5625 5.09375 
Q 40.234375 -1.421875 26.90625 -1.421875 
Q 22.3125 -1.421875 17.546875 -0.640625 
Q 12.796875 0.140625 7.71875 1.703125 
L 7.71875 11.625 
Q 12.109375 9.234375 16.796875 8.0625 
Q 21.484375 6.890625 26.703125 6.890625 
Q 35.15625 6.890625 40.078125 11.328125 
Q 45.015625 15.765625 45.015625 23.390625 
Q 45.015625 31 40.078125 35.4375 
Q 35.15625 39.890625 26.703125 39.890625 
Q 22.75 39.890625 18.8125 39.015625 
Q 14.890625 38.140625 10.796875 36.28125 
z
" id="BitstreamVeraSans-Roman-35"/>
      </defs>
      <g transform="translate(354.302142857 381.859875)scale(0.12 -0.12)">
       <use xlink:href="#BitstreamVeraSans-Roman-35"/>
       <use x="63.623046875" xlink:href="#BitstreamVeraSans-Roman-30"/>
       <use x="127.24609375" xlink:href="#BitstreamVeraSans-Roman-30"/>
      </g>
     </g>
    </g>
    <g id="xtick_7">
     <g id="line2d_14">
      <g>
       <use style="stroke:#000000;stroke-width:0.5;" x="429.526071429" xlink:href="#ma07ada786f" y="368.74175"/>
      </g>
     </g>
     <g id="line2d_15">
      <g>
       <use style="stroke:#000000;stroke-width:0.5;" x="429.526071429" xlink:href="#m14f4d2902c" y="23.14175"/>
      </g>
     </g>
     <g id="text_7">
      <!-- 600 -->
      <defs>
       <path d="M 33.015625 40.375 
Q 26.375 40.375 22.484375 35.828125 
Q 18.609375 31.296875 18.609375 23.390625 
Q 18.609375 15.53125 22.484375 10.953125 
Q 26.375 6.390625 33.015625 6.390625 
Q 39.65625 6.390625 43.53125 10.953125 
Q 47.40625 15.53125 47.40625 23.390625 
Q 47.40625 31.296875 43.53125 35.828125 
Q 39.65625 40.375 33.015625 40.375 
M 52.59375 71.296875 
L 52.59375 62.3125 
Q 48.875 64.0625 45.09375 64.984375 
Q 41.3125 65.921875 37.59375 65.921875 
Q 27.828125 65.921875 22.671875 59.328125 
Q 17.53125 52.734375 16.796875 39.40625 
Q 19.671875 43.65625 24.015625 45.921875 
Q 28.375 48.1875 33.59375 48.1875 
Q 44.578125 48.1875 50.953125 41.515625 
Q 57.328125 34.859375 57.328125 23.390625 
Q 57.328125 12.15625 50.6875 5.359375 
Q 44.046875 -1.421875 33.015625 -1.421875 
Q 20.359375 -1.421875 13.671875 8.265625 
Q 6.984375 17.96875 6.984375 36.375 
Q 6.984375 53.65625 15.1875 63.9375 
Q 23.390625 74.21875 37.203125 74.21875 
Q 40.921875 74.21875 44.703125 73.484375 
Q 48.484375 72.75 52.59375 71.296875 
" id="BitstreamVeraSans-Roman-36"/>
      </defs>
      <g transform="translate(418.073571429 381.859875)scale(0.12 -0.12)">
       <use xlink:href="#BitstreamVeraSans-Roman-36"/>
       <use x="63.623046875" xlink:href="#BitstreamVeraSans-Roman-30"/>
       <use x="127.24609375" xlink:href="#BitstreamVeraSans-Roman-30"/>
      </g>
     </g>
    </g>
    <g id="xtick_8">
     <g id="line2d_16">
      <g>
       <use style="stroke:#000000;stroke-width:0.5;" x="493.2975" xlink:href="#ma07ada786f" y="368.74175"/>
      </g>
     </g>
     <g id="line2d_17">
      <g>
       <use style="stroke:#000000;stroke-width:0.5;" x="493.2975" xlink:href="#m14f4d2902c" y="23.14175"/>
      </g>
     </g>
     <g id="text_8">
      <!-- 700 -->
      <defs>
       <path d="M 8.203125 72.90625 
L 55.078125 72.90625 
L 55.078125 68.703125 
L 28.609375 0 
L 18.3125 0 
L 43.21875 64.59375 
L 8.203125 64.59375 
z
" id="BitstreamVeraSans-Roman-37"/>
      </defs>
      <g transform="translate(481.845 381.859875)scale(0.12 -0.12)">
       <use xlink:href="#BitstreamVeraSans-Roman-37"/>
       <use x="63.623046875" xlink:href="#BitstreamVeraSans-Roman-30"/>
       <use x="127.24609375" xlink:href="#BitstreamVeraSans-Roman-30"/>
      </g>
     </g>
    </g>
    <g id="text_9">
     <!-- episodes -->
     <defs>
      <path d="M 45.40625 46.390625 
L 45.40625 75.984375 
L 54.390625 75.984375 
L 54.390625 0 
L 45.40625 0 
L 45.40625 8.203125 
Q 42.578125 3.328125 38.25 0.953125 
Q 33.9375 -1.421875 27.875 -1.421875 
Q 17.96875 -1.421875 11.734375 6.484375 
Q 5.515625 14.40625 5.515625 27.296875 
Q 5.515625 40.1875 11.734375 48.09375 
Q 17.96875 56 27.875 56 
Q 33.9375 56 38.25 53.625 
Q 42.578125 51.265625 45.40625 46.390625 
M 14.796875 27.296875 
Q 14.796875 17.390625 18.875 11.75 
Q 22.953125 6.109375 30.078125 6.109375 
Q 37.203125 6.109375 41.296875 11.75 
Q 45.40625 17.390625 45.40625 27.296875 
Q 45.40625 37.203125 41.296875 42.84375 
Q 37.203125 48.484375 30.078125 48.484375 
Q 22.953125 48.484375 18.875 42.84375 
Q 14.796875 37.203125 14.796875 27.296875 
" id="BitstreamVeraSans-Roman-64"/>
      <path d="M 56.203125 29.59375 
L 56.203125 25.203125 
L 14.890625 25.203125 
Q 15.484375 15.921875 20.484375 11.0625 
Q 25.484375 6.203125 34.421875 6.203125 
Q 39.59375 6.203125 44.453125 7.46875 
Q 49.3125 8.734375 54.109375 11.28125 
L 54.109375 2.78125 
Q 49.265625 0.734375 44.1875 -0.34375 
Q 39.109375 -1.421875 33.890625 -1.421875 
Q 20.796875 -1.421875 13.15625 6.1875 
Q 5.515625 13.8125 5.515625 26.8125 
Q 5.515625 40.234375 12.765625 48.109375 
Q 20.015625 56 32.328125 56 
Q 43.359375 56 49.78125 48.890625 
Q 56.203125 41.796875 56.203125 29.59375 
M 47.21875 32.234375 
Q 47.125 39.59375 43.09375 43.984375 
Q 39.0625 48.390625 32.421875 48.390625 
Q 24.90625 48.390625 20.390625 44.140625 
Q 15.875 39.890625 15.1875 32.171875 
z
" id="BitstreamVeraSans-Roman-65"/>
      <path d="M 18.109375 8.203125 
L 18.109375 -20.796875 
L 9.078125 -20.796875 
L 9.078125 54.6875 
L 18.109375 54.6875 
L 18.109375 46.390625 
Q 20.953125 51.265625 25.265625 53.625 
Q 29.59375 56 35.59375 56 
Q 45.5625 56 51.78125 48.09375 
Q 58.015625 40.1875 58.015625 27.296875 
Q 58.015625 14.40625 51.78125 6.484375 
Q 45.5625 -1.421875 35.59375 -1.421875 
Q 29.59375 -1.421875 25.265625 0.953125 
Q 20.953125 3.328125 18.109375 8.203125 
M 48.6875 27.296875 
Q 48.6875 37.203125 44.609375 42.84375 
Q 40.53125 48.484375 33.40625 48.484375 
Q 26.265625 48.484375 22.1875 42.84375 
Q 18.109375 37.203125 18.109375 27.296875 
Q 18.109375 17.390625 22.1875 11.75 
Q 26.265625 6.109375 33.40625 6.109375 
Q 40.53125 6.109375 44.609375 11.75 
Q 48.6875 17.390625 48.6875 27.296875 
" id="BitstreamVeraSans-Roman-70"/>
      <path d="M 30.609375 48.390625 
Q 23.390625 48.390625 19.1875 42.75 
Q 14.984375 37.109375 14.984375 27.296875 
Q 14.984375 17.484375 19.15625 11.84375 
Q 23.34375 6.203125 30.609375 6.203125 
Q 37.796875 6.203125 41.984375 11.859375 
Q 46.1875 17.53125 46.1875 27.296875 
Q 46.1875 37.015625 41.984375 42.703125 
Q 37.796875 48.390625 30.609375 48.390625 
M 30.609375 56 
Q 42.328125 56 49.015625 48.375 
Q 55.71875 40.765625 55.71875 27.296875 
Q 55.71875 13.875 49.015625 6.21875 
Q 42.328125 -1.421875 30.609375 -1.421875 
Q 18.84375 -1.421875 12.171875 6.21875 
Q 5.515625 13.875 5.515625 27.296875 
Q 5.515625 40.765625 12.171875 48.375 
Q 18.84375 56 30.609375 56 
" id="BitstreamVeraSans-Roman-6f"/>
      <path d="M 44.28125 53.078125 
L 44.28125 44.578125 
Q 40.484375 46.53125 36.375 47.5 
Q 32.28125 48.484375 27.875 48.484375 
Q 21.1875 48.484375 17.84375 46.4375 
Q 14.5 44.390625 14.5 40.28125 
Q 14.5 37.15625 16.890625 35.375 
Q 19.28125 33.59375 26.515625 31.984375 
L 29.59375 31.296875 
Q 39.15625 29.25 43.1875 25.515625 
Q 47.21875 21.78125 47.21875 15.09375 
Q 47.21875 7.46875 41.1875 3.015625 
Q 35.15625 -1.421875 24.609375 -1.421875 
Q 20.21875 -1.421875 15.453125 -0.5625 
Q 10.6875 0.296875 5.421875 2 
L 5.421875 11.28125 
Q 10.40625 8.6875 15.234375 7.390625 
Q 20.0625 6.109375 24.8125 6.109375 
Q 31.15625 6.109375 34.5625 8.28125 
Q 37.984375 10.453125 37.984375 14.40625 
Q 37.984375 18.0625 35.515625 20.015625 
Q 33.0625 21.96875 24.703125 23.78125 
L 21.578125 24.515625 
Q 13.234375 26.265625 9.515625 29.90625 
Q 5.8125 33.546875 5.8125 39.890625 
Q 5.8125 47.609375 11.28125 51.796875 
Q 16.75 56 26.8125 56 
Q 31.78125 56 36.171875 55.265625 
Q 40.578125 54.546875 44.28125 53.078125 
" id="BitstreamVeraSans-Roman-73"/>
      <path d="M 9.421875 54.6875 
L 18.40625 54.6875 
L 18.40625 0 
L 9.421875 0 
z
M 9.421875 75.984375 
L 18.40625 75.984375 
L 18.40625 64.59375 
L 9.421875 64.59375 
z
" id="BitstreamVeraSans-Roman-69"/>
     </defs>
     <g transform="translate(243.50625 398.473625)scale(0.12 -0.12)">
      <use xlink:href="#BitstreamVeraSans-Roman-65"/>
      <use x="61.5234375" xlink:href="#BitstreamVeraSans-Roman-70"/>
      <use x="125.0" xlink:href="#BitstreamVeraSans-Roman-69"/>
      <use x="152.783203125" xlink:href="#BitstreamVeraSans-Roman-73"/>
      <use x="204.8828125" xlink:href="#BitstreamVeraSans-Roman-6f"/>
      <use x="266.064453125" xlink:href="#BitstreamVeraSans-Roman-64"/>
      <use x="329.541015625" xlink:href="#BitstreamVeraSans-Roman-65"/>
      <use x="391.064453125" xlink:href="#BitstreamVeraSans-Roman-73"/>
     </g>
    </g>
   </g>
   <g id="matplotlib.axis_2">
    <g id="ytick_1">
     <g id="line2d_18">
      <defs>
       <path d="M 0 0 
L 4 0 
" id="m5925b4753c" style="stroke:#000000;stroke-width:0.5;"/>
      </defs>
      <g>
       <use style="stroke:#000000;stroke-width:0.5;" x="46.8975" xlink:href="#m5925b4753c" y="368.74175"/>
      </g>
     </g>
     <g id="line2d_19">
      <defs>
       <path d="M 0 0 
L -4 0 
" id="ma19876b68b" style="stroke:#000000;stroke-width:0.5;"/>
      </defs>
      <g>
       <use style="stroke:#000000;stroke-width:0.5;" x="493.2975" xlink:href="#ma19876b68b" y="368.74175"/>
      </g>
     </g>
     <g id="text_10">
      <!-- 0.5 -->
      <defs>
       <path d="M 10.6875 12.40625 
L 21 12.40625 
L 21 0 
L 10.6875 0 
z
" id="BitstreamVeraSans-Roman-2e"/>
      </defs>
      <g transform="translate(23.81375 372.053)scale(0.12 -0.12)">
       <use xlink:href="#BitstreamVeraSans-Roman-30"/>
       <use x="63.623046875" xlink:href="#BitstreamVeraSans-Roman-2e"/>
       <use x="95.41015625" xlink:href="#BitstreamVeraSans-Roman-35"/>
      </g>
     </g>
    </g>
    <g id="ytick_2">
     <g id="line2d_20">
      <g>
       <use style="stroke:#000000;stroke-width:0.5;" x="46.8975" xlink:href="#m5925b4753c" y="299.62175"/>
      </g>
     </g>
     <g id="line2d_21">
      <g>
       <use style="stroke:#000000;stroke-width:0.5;" x="493.2975" xlink:href="#ma19876b68b" y="299.62175"/>
      </g>
     </g>
     <g id="text_11">
      <!-- 1.0 -->
      <g transform="translate(23.81375 302.933)scale(0.12 -0.12)">
       <use xlink:href="#BitstreamVeraSans-Roman-31"/>
       <use x="63.623046875" xlink:href="#BitstreamVeraSans-Roman-2e"/>
       <use x="95.41015625" xlink:href="#BitstreamVeraSans-Roman-30"/>
      </g>
     </g>
    </g>
    <g id="ytick_3">
     <g id="line2d_22">
      <g>
       <use style="stroke:#000000;stroke-width:0.5;" x="46.8975" xlink:href="#m5925b4753c" y="230.50175"/>
      </g>
     </g>
     <g id="line2d_23">
      <g>
       <use style="stroke:#000000;stroke-width:0.5;" x="493.2975" xlink:href="#ma19876b68b" y="230.50175"/>
      </g>
     </g>
     <g id="text_12">
      <!-- 1.5 -->
      <g transform="translate(23.81375 233.813)scale(0.12 -0.12)">
       <use xlink:href="#BitstreamVeraSans-Roman-31"/>
       <use x="63.623046875" xlink:href="#BitstreamVeraSans-Roman-2e"/>
       <use x="95.41015625" xlink:href="#BitstreamVeraSans-Roman-35"/>
      </g>
     </g>
    </g>
    <g id="ytick_4">
     <g id="line2d_24">
      <g>
       <use style="stroke:#000000;stroke-width:0.5;" x="46.8975" xlink:href="#m5925b4753c" y="161.38175"/>
      </g>
     </g>
     <g id="line2d_25">
      <g>
       <use style="stroke:#000000;stroke-width:0.5;" x="493.2975" xlink:href="#ma19876b68b" y="161.38175"/>
      </g>
     </g>
     <g id="text_13">
      <!-- 2.0 -->
      <g transform="translate(23.81375 164.693)scale(0.12 -0.12)">
       <use xlink:href="#BitstreamVeraSans-Roman-32"/>
       <use x="63.623046875" xlink:href="#BitstreamVeraSans-Roman-2e"/>
       <use x="95.41015625" xlink:href="#BitstreamVeraSans-Roman-30"/>
      </g>
     </g>
    </g>
    <g id="ytick_5">
     <g id="line2d_26">
      <g>
       <use style="stroke:#000000;stroke-width:0.5;" x="46.8975" xlink:href="#m5925b4753c" y="92.26175"/>
      </g>
     </g>
     <g id="line2d_27">
      <g>
       <use style="stroke:#000000;stroke-width:0.5;" x="493.2975" xlink:href="#ma19876b68b" y="92.26175"/>
      </g>
     </g>
     <g id="text_14">
      <!-- 2.5 -->
      <g transform="translate(23.81375 95.573)scale(0.12 -0.12)">
       <use xlink:href="#BitstreamVeraSans-Roman-32"/>
       <use x="63.623046875" xlink:href="#BitstreamVeraSans-Roman-2e"/>
       <use x="95.41015625" xlink:href="#BitstreamVeraSans-Roman-35"/>
      </g>
     </g>
    </g>
    <g id="ytick_6">
     <g id="line2d_28">
      <g>
       <use style="stroke:#000000;stroke-width:0.5;" x="46.8975" xlink:href="#m5925b4753c" y="23.14175"/>
      </g>
     </g>
     <g id="line2d_29">
      <g>
       <use style="stroke:#000000;stroke-width:0.5;" x="493.2975" xlink:href="#ma19876b68b" y="23.14175"/>
      </g>
     </g>
     <g id="text_15">
      <!-- 3.0 -->
      <g transform="translate(23.81375 26.453)scale(0.12 -0.12)">
       <use xlink:href="#BitstreamVeraSans-Roman-33"/>
       <use x="63.623046875" xlink:href="#BitstreamVeraSans-Roman-2e"/>
       <use x="95.41015625" xlink:href="#BitstreamVeraSans-Roman-30"/>
      </g>
     </g>
    </g>
    <g id="text_16">
     <!-- average maxQ -->
     <defs>
      <path d="M 39.40625 66.21875 
Q 28.65625 66.21875 22.328125 58.203125 
Q 16.015625 50.203125 16.015625 36.375 
Q 16.015625 22.609375 22.328125 14.59375 
Q 28.65625 6.59375 39.40625 6.59375 
Q 50.140625 6.59375 56.421875 14.59375 
Q 62.703125 22.609375 62.703125 36.375 
Q 62.703125 50.203125 56.421875 58.203125 
Q 50.140625 66.21875 39.40625 66.21875 
M 53.21875 1.3125 
L 66.21875 -12.890625 
L 54.296875 -12.890625 
L 43.5 -1.21875 
Q 41.890625 -1.3125 41.03125 -1.359375 
Q 40.1875 -1.421875 39.40625 -1.421875 
Q 24.03125 -1.421875 14.8125 8.859375 
Q 5.609375 19.140625 5.609375 36.375 
Q 5.609375 53.65625 14.8125 63.9375 
Q 24.03125 74.21875 39.40625 74.21875 
Q 54.734375 74.21875 63.90625 63.9375 
Q 73.09375 53.65625 73.09375 36.375 
Q 73.09375 23.6875 67.984375 14.640625 
Q 62.890625 5.609375 53.21875 1.3125 
" id="BitstreamVeraSans-Roman-51"/>
      <path id="BitstreamVeraSans-Roman-20"/>
      <path d="M 54.890625 54.6875 
L 35.109375 28.078125 
L 55.90625 0 
L 45.3125 0 
L 29.390625 21.484375 
L 13.484375 0 
L 2.875 0 
L 24.125 28.609375 
L 4.6875 54.6875 
L 15.28125 54.6875 
L 29.78125 35.203125 
L 44.28125 54.6875 
z
" id="BitstreamVeraSans-Roman-78"/>
      <path d="M 2.984375 54.6875 
L 12.5 54.6875 
L 29.59375 8.796875 
L 46.6875 54.6875 
L 56.203125 54.6875 
L 35.6875 0 
L 23.484375 0 
z
" id="BitstreamVeraSans-Roman-76"/>
      <path d="M 34.28125 27.484375 
Q 23.390625 27.484375 19.1875 25 
Q 14.984375 22.515625 14.984375 16.5 
Q 14.984375 11.71875 18.140625 8.90625 
Q 21.296875 6.109375 26.703125 6.109375 
Q 34.1875 6.109375 38.703125 11.40625 
Q 43.21875 16.703125 43.21875 25.484375 
L 43.21875 27.484375 
z
M 52.203125 31.203125 
L 52.203125 0 
L 43.21875 0 
L 43.21875 8.296875 
Q 40.140625 3.328125 35.546875 0.953125 
Q 30.953125 -1.421875 24.3125 -1.421875 
Q 15.921875 -1.421875 10.953125 3.296875 
Q 6 8.015625 6 15.921875 
Q 6 25.140625 12.171875 29.828125 
Q 18.359375 34.515625 30.609375 34.515625 
L 43.21875 34.515625 
L 43.21875 35.40625 
Q 43.21875 41.609375 39.140625 45 
Q 35.0625 48.390625 27.6875 48.390625 
Q 23 48.390625 18.546875 47.265625 
Q 14.109375 46.140625 10.015625 43.890625 
L 10.015625 52.203125 
Q 14.9375 54.109375 19.578125 55.046875 
Q 24.21875 56 28.609375 56 
Q 40.484375 56 46.34375 49.84375 
Q 52.203125 43.703125 52.203125 31.203125 
" id="BitstreamVeraSans-Roman-61"/>
      <path d="M 45.40625 27.984375 
Q 45.40625 37.75 41.375 43.109375 
Q 37.359375 48.484375 30.078125 48.484375 
Q 22.859375 48.484375 18.828125 43.109375 
Q 14.796875 37.75 14.796875 27.984375 
Q 14.796875 18.265625 18.828125 12.890625 
Q 22.859375 7.515625 30.078125 7.515625 
Q 37.359375 7.515625 41.375 12.890625 
Q 45.40625 18.265625 45.40625 27.984375 
M 54.390625 6.78125 
Q 54.390625 -7.171875 48.1875 -13.984375 
Q 42 -20.796875 29.203125 -20.796875 
Q 24.46875 -20.796875 20.265625 -20.09375 
Q 16.0625 -19.390625 12.109375 -17.921875 
L 12.109375 -9.1875 
Q 16.0625 -11.328125 19.921875 -12.34375 
Q 23.78125 -13.375 27.78125 -13.375 
Q 36.625 -13.375 41.015625 -8.765625 
Q 45.40625 -4.15625 45.40625 5.171875 
L 45.40625 9.625 
Q 42.625 4.78125 38.28125 2.390625 
Q 33.9375 0 27.875 0 
Q 17.828125 0 11.671875 7.65625 
Q 5.515625 15.328125 5.515625 27.984375 
Q 5.515625 40.671875 11.671875 48.328125 
Q 17.828125 56 27.875 56 
Q 33.9375 56 38.28125 53.609375 
Q 42.625 51.21875 45.40625 46.390625 
L 45.40625 54.6875 
L 54.390625 54.6875 
z
" id="BitstreamVeraSans-Roman-67"/>
      <path d="M 41.109375 46.296875 
Q 39.59375 47.171875 37.8125 47.578125 
Q 36.03125 48 33.890625 48 
Q 26.265625 48 22.1875 43.046875 
Q 18.109375 38.09375 18.109375 28.8125 
L 18.109375 0 
L 9.078125 0 
L 9.078125 54.6875 
L 18.109375 54.6875 
L 18.109375 46.1875 
Q 20.953125 51.171875 25.484375 53.578125 
Q 30.03125 56 36.53125 56 
Q 37.453125 56 38.578125 55.875 
Q 39.703125 55.765625 41.0625 55.515625 
z
" id="BitstreamVeraSans-Roman-72"/>
      <path d="M 52 44.1875 
Q 55.375 50.25 60.0625 53.125 
Q 64.75 56 71.09375 56 
Q 79.640625 56 84.28125 50.015625 
Q 88.921875 44.046875 88.921875 33.015625 
L 88.921875 0 
L 79.890625 0 
L 79.890625 32.71875 
Q 79.890625 40.578125 77.09375 44.375 
Q 74.3125 48.1875 68.609375 48.1875 
Q 61.625 48.1875 57.5625 43.546875 
Q 53.515625 38.921875 53.515625 30.90625 
L 53.515625 0 
L 44.484375 0 
L 44.484375 32.71875 
Q 44.484375 40.625 41.703125 44.40625 
Q 38.921875 48.1875 33.109375 48.1875 
Q 26.21875 48.1875 22.15625 43.53125 
Q 18.109375 38.875 18.109375 30.90625 
L 18.109375 0 
L 9.078125 0 
L 9.078125 54.6875 
L 18.109375 54.6875 
L 18.109375 46.1875 
Q 21.1875 51.21875 25.484375 53.609375 
Q 29.78125 56 35.6875 56 
Q 41.65625 56 45.828125 52.96875 
Q 50 49.953125 52 44.1875 
" id="BitstreamVeraSans-Roman-6d"/>
     </defs>
     <g transform="translate(16.318125 240.208625)rotate(-90.0)scale(0.12 -0.12)">
      <use xlink:href="#BitstreamVeraSans-Roman-61"/>
      <use x="61.279296875" xlink:href="#BitstreamVeraSans-Roman-76"/>
      <use x="120.458984375" xlink:href="#BitstreamVeraSans-Roman-65"/>
      <use x="181.982421875" xlink:href="#BitstreamVeraSans-Roman-72"/>
      <use x="223.095703125" xlink:href="#BitstreamVeraSans-Roman-61"/>
      <use x="284.375" xlink:href="#BitstreamVeraSans-Roman-67"/>
      <use x="347.8515625" xlink:href="#BitstreamVeraSans-Roman-65"/>
      <use x="409.375" xlink:href="#BitstreamVeraSans-Roman-20"/>
      <use x="441.162109375" xlink:href="#BitstreamVeraSans-Roman-6d"/>
      <use x="538.57421875" xlink:href="#BitstreamVeraSans-Roman-61"/>
      <use x="599.853515625" xlink:href="#BitstreamVeraSans-Roman-78"/>
      <use x="659.033203125" xlink:href="#BitstreamVeraSans-Roman-51"/>
     </g>
    </g>
   </g>
   <g id="text_17">
    <!-- Average maxQ per episode, joint4 -->
    <defs>
     <path d="M 9.421875 54.6875 
L 18.40625 54.6875 
L 18.40625 -0.984375 
Q 18.40625 -11.421875 14.421875 -16.109375 
Q 10.453125 -20.796875 1.609375 -20.796875 
L -1.8125 -20.796875 
L -1.8125 -13.1875 
L 0.59375 -13.1875 
Q 5.71875 -13.1875 7.5625 -10.8125 
Q 9.421875 -8.453125 9.421875 -0.984375 
z
M 9.421875 75.984375 
L 18.40625 75.984375 
L 18.40625 64.59375 
L 9.421875 64.59375 
z
" id="BitstreamVeraSans-Roman-6a"/>
     <path d="M 34.1875 63.1875 
L 20.796875 26.90625 
L 47.609375 26.90625 
z
M 28.609375 72.90625 
L 39.796875 72.90625 
L 67.578125 0 
L 57.328125 0 
L 50.6875 18.703125 
L 17.828125 18.703125 
L 11.1875 0 
L 0.78125 0 
z
" id="BitstreamVeraSans-Roman-41"/>
     <path d="M 18.3125 70.21875 
L 18.3125 54.6875 
L 36.8125 54.6875 
L 36.8125 47.703125 
L 18.3125 47.703125 
L 18.3125 18.015625 
Q 18.3125 11.328125 20.140625 9.421875 
Q 21.96875 7.515625 27.59375 7.515625 
L 36.8125 7.515625 
L 36.8125 0 
L 27.59375 0 
Q 17.1875 0 13.234375 3.875 
Q 9.28125 7.765625 9.28125 18.015625 
L 9.28125 47.703125 
L 2.6875 47.703125 
L 2.6875 54.6875 
L 9.28125 54.6875 
L 9.28125 70.21875 
z
" id="BitstreamVeraSans-Roman-74"/>
     <path d="M 11.71875 12.40625 
L 22.015625 12.40625 
L 22.015625 4 
L 14.015625 -11.625 
L 7.71875 -11.625 
L 11.71875 4 
z
" id="BitstreamVeraSans-Roman-2c"/>
     <path d="M 54.890625 33.015625 
L 54.890625 0 
L 45.90625 0 
L 45.90625 32.71875 
Q 45.90625 40.484375 42.875 44.328125 
Q 39.84375 48.1875 33.796875 48.1875 
Q 26.515625 48.1875 22.3125 43.546875 
Q 18.109375 38.921875 18.109375 30.90625 
L 18.109375 0 
L 9.078125 0 
L 9.078125 54.6875 
L 18.109375 54.6875 
L 18.109375 46.1875 
Q 21.34375 51.125 25.703125 53.5625 
Q 30.078125 56 35.796875 56 
Q 45.21875 56 50.046875 50.171875 
Q 54.890625 44.34375 54.890625 33.015625 
" id="BitstreamVeraSans-Roman-6e"/>
    </defs>
    <g transform="translate(146.8245 18.14175)scale(0.144 -0.144)">
     <use xlink:href="#BitstreamVeraSans-Roman-41"/>
     <use x="68.330078125" xlink:href="#BitstreamVeraSans-Roman-76"/>
     <use x="127.509765625" xlink:href="#BitstreamVeraSans-Roman-65"/>
     <use x="189.033203125" xlink:href="#BitstreamVeraSans-Roman-72"/>
     <use x="230.146484375" xlink:href="#BitstreamVeraSans-Roman-61"/>
     <use x="291.42578125" xlink:href="#BitstreamVeraSans-Roman-67"/>
     <use x="354.90234375" xlink:href="#BitstreamVeraSans-Roman-65"/>
     <use x="416.42578125" xlink:href="#BitstreamVeraSans-Roman-20"/>
     <use x="448.212890625" xlink:href="#BitstreamVeraSans-Roman-6d"/>
     <use x="545.625" xlink:href="#BitstreamVeraSans-Roman-61"/>
     <use x="606.904296875" xlink:href="#BitstreamVeraSans-Roman-78"/>
     <use x="666.083984375" xlink:href="#BitstreamVeraSans-Roman-51"/>
     <use x="744.794921875" xlink:href="#BitstreamVeraSans-Roman-20"/>
     <use x="776.58203125" xlink:href="#BitstreamVeraSans-Roman-70"/>
     <use x="840.05859375" xlink:href="#BitstreamVeraSans-Roman-65"/>
     <use x="901.58203125" xlink:href="#BitstreamVeraSans-Roman-72"/>
     <use x="942.6953125" xlink:href="#BitstreamVeraSans-Roman-20"/>
     <use x="974.482421875" xlink:href="#BitstreamVeraSans-Roman-65"/>
     <use x="1036.005859375" xlink:href="#BitstreamVeraSans-Roman-70"/>
     <use x="1099.482421875" xlink:href="#BitstreamVeraSans-Roman-69"/>
     <use x="1127.265625" xlink:href="#BitstreamVeraSans-Roman-73"/>
     <use x="1179.365234375" xlink:href="#BitstreamVeraSans-Roman-6f"/>
     <use x="1240.546875" xlink:href="#BitstreamVeraSans-Roman-64"/>
     <use x="1304.0234375" xlink:href="#BitstreamVeraSans-Roman-65"/>
     <use x="1365.546875" xlink:href="#BitstreamVeraSans-Roman-2c"/>
     <use x="1397.333984375" xlink:href="#BitstreamVeraSans-Roman-20"/>
     <use x="1429.12109375" xlink:href="#BitstreamVeraSans-Roman-6a"/>
     <use x="1456.904296875" xlink:href="#BitstreamVeraSans-Roman-6f"/>
     <use x="1518.0859375" xlink:href="#BitstreamVeraSans-Roman-69"/>
     <use x="1545.869140625" xlink:href="#BitstreamVeraSans-Roman-6e"/>
     <use x="1609.248046875" xlink:href="#BitstreamVeraSans-Roman-74"/>
     <use x="1648.45703125" xlink:href="#BitstreamVeraSans-Roman-34"/>
    </g>
   </g>
  </g>
 </g>
 <defs>
  <clipPath id="paa1c6692bf">
   <rect height="345.6" width="446.4" x="46.8975" y="23.14175"/>
  </clipPath>
 </defs>
</svg>
