<?xml version="1.0" encoding="utf-8" standalone="no"?>
<!DOCTYPE svg PUBLIC "-//W3C//DTD SVG 1.1//EN"
  "http://www.w3.org/Graphics/SVG/1.1/DTD/svg11.dtd">
<!-- Created with matplotlib (http://matplotlib.org/) -->
<svg height="408pt" version="1.1" viewBox="0 0 515 408" width="515pt" xmlns="http://www.w3.org/2000/svg" xmlns:xlink="http://www.w3.org/1999/xlink">
 <defs>
  <style type="text/css">
*{stroke-linecap:butt;stroke-linejoin:round;stroke-miterlimit:100000;}
  </style>
 </defs>
 <g id="figure_1">
  <g id="patch_1">
   <path d="M 0 408.16925 
L 515.7675 408.16925 
L 515.7675 0 
L 0 0 
z
" style="fill:#ffffff;"/>
  </g>
  <g id="axes_1">
   <g id="patch_2">
    <path d="M 46.8975 368.74175 
L 493.2975 368.74175 
L 493.2975 23.14175 
L 46.8975 23.14175 
z
" style="fill:#ffffff;"/>
   </g>
   <g id="line2d_1">
    <path clip-path="url(#p5e1825ab59)" d="M 47.3439 274.292584 
L 47.7903 259.974365 
L 48.2367 236.99314 
L 49.1295 88.763669 
L 49.5759 274.195531 
L 50.0223 281.028413 
L 50.4687 277.087942 
L 50.9151 206.952595 
L 51.3615 260.511758 
L 51.8079 250.230135 
L 52.2543 290.820078 
L 52.7007 274.845788 
L 53.1471 133.449073 
L 54.0399 244.889189 
L 54.4863 228.109841 
L 54.9327 145.407817 
L 55.3791 233.946165 
L 55.8255 250.343497 
L 56.2719 291.667043 
L 56.7183 184.384349 
L 57.1647 212.557965 
L 57.6111 276.588881 
L 58.0575 234.770638 
L 58.5039 280.882699 
L 58.9503 270.505483 
L 59.3967 245.219693 
L 59.8431 113.255183 
L 60.2895 295.300628 
L 60.7359 298.847539 
L 61.1823 286.709095 
L 61.6287 196.807941 
L 62.0751 228.613012 
L 62.5215 229.51721 
L 63.4143 275.887675 
L 64.3071 239.375089 
L 64.7535 200.427774 
L 65.1999 266.780861 
L 65.6463 280.884752 
L 66.0927 290.938607 
L 66.5391 143.583504 
L 66.9855 272.267917 
L 67.4319 225.506346 
L 67.8783 268.817047 
L 68.3247 175.177912 
L 68.7711 257.543945 
L 69.2175 290.270561 
L 69.6639 283.506156 
L 70.1103 252.884933 
L 70.5567 115.559764 
L 71.0031 292.37528 
L 71.4495 156.569049 
L 71.8959 300.962738 
L 72.3423 258.459677 
L 72.7887 189.093588 
L 73.2351 154.549474 
L 73.6815 157.548767 
L 74.1279 294.50671 
L 74.5743 277.581531 
L 75.0207 297.175711 
L 75.4671 238.117654 
L 75.9135 225.092123 
L 76.3599 287.239371 
L 76.8063 221.906999 
L 77.2527 99.895884 
L 77.6991 234.447072 
L 78.1455 265.472627 
L 78.5919 192.552855 
L 79.0383 195.92279 
L 79.4847 212.092042 
L 79.9311 264.883498 
L 80.3775 278.28824 
L 80.8239 251.114541 
L 81.2703 296.169622 
L 81.7167 259.677895 
L 82.1631 165.519845 
L 82.6095 284.487671 
L 83.0559 294.317289 
L 83.5023 268.981939 
L 83.9487 295.165672 
L 84.3951 288.406936 
L 84.8415 273.331518 
L 85.2879 269.914424 
L 85.7343 211.387388 
L 86.1807 187.241236 
L 87.0735 237.335691 
L 87.5199 185.302059 
L 87.9663 260.265803 
L 88.4127 187.020812 
L 88.8591 272.361052 
L 89.3055 296.124191 
L 89.7519 285.777244 
L 90.1983 305.681021 
L 91.0911 242.543983 
L 91.5375 368.74175 
L 92.4303 141.570354 
L 92.8767 280.240273 
L 93.3231 238.335952 
L 93.7695 178.380437 
L 94.2159 247.455587 
L 94.6623 263.881538 
L 95.1087 300.639038 
L 96.0015 181.384301 
L 96.4479 189.288588 
L 96.8943 226.681467 
L 97.3407 148.703943 
L 97.7871 182.36024 
L 98.2335 306.521431 
L 98.6799 151.967616 
L 99.1263 266.211858 
L 99.5727 159.419874 
L 100.0191 247.561764 
L 100.4655 302.017208 
L 100.9119 197.977749 
L 101.3583 201.84994 
L 101.8047 265.920974 
L 102.2511 249.108566 
L 102.6975 182.955152 
L 103.1439 240.903915 
L 103.5903 279.390028 
L 104.0367 267.9761 
L 104.4831 275.105449 
L 104.9295 270.435646 
L 105.3759 272.647263 
L 105.8223 248.941459 
L 106.2687 256.608523 
L 106.7151 268.173075 
L 107.1615 263.133039 
L 107.6079 290.373995 
L 108.0543 250.350543 
L 108.5007 149.765103 
L 108.9471 269.419651 
L 109.3935 269.287243 
L 109.8399 281.323351 
L 110.2863 280.302022 
L 110.7327 218.430151 
L 111.1791 45.056233 
L 111.6255 288.085556 
L 112.0719 252.491123 
L 112.5183 159.513865 
L 112.9647 187.450176 
L 113.4111 305.44352 
L 113.8575 293.729644 
L 114.3039 288.914607 
L 114.7503 306.717564 
L 115.1967 244.438324 
L 115.6431 282.925905 
L 116.0895 308.11396 
L 116.5359 249.564921 
L 116.9823 250.400533 
L 117.4287 237.788408 
L 117.8751 220.024498 
L 118.3215 252.997854 
L 118.7679 202.968375 
L 119.2143 241.732102 
L 119.6607 244.190746 
L 120.1071 142.299366 
L 120.5535 195.139737 
L 120.9999 175.423601 
L 121.4463 262.426071 
L 121.8927 143.49836 
L 122.3391 247.492153 
L 122.7855 285.309216 
L 123.2319 261.050593 
L 123.6783 278.708325 
L 124.5711 107.934271 
L 125.4639 249.373293 
L 125.9103 257.150927 
L 126.3567 130.863195 
L 126.8031 270.046256 
L 127.2495 235.671063 
L 127.6959 262.88716 
L 128.1423 151.727656 
L 128.5887 238.934641 
L 129.0351 261.918487 
L 129.4815 229.384776 
L 129.9279 208.756837 
L 130.3743 293.850148 
L 130.8207 275.076144 
L 131.2671 147.720971 
L 131.7135 153.68412 
L 132.1599 164.232285 
L 132.6063 291.957276 
L 133.0527 220.57407 
L 133.4991 255.478881 
L 133.9455 222.462047 
L 134.3919 253.23181 
L 134.8383 239.593 
L 135.2847 270.556328 
L 135.7311 257.503614 
L 136.1775 368.74175 
L 136.6239 270.99764 
L 137.0703 239.661925 
L 137.5167 318.345696 
L 137.9631 237.620361 
L 138.4095 265.957684 
L 138.8559 157.84533 
L 139.3023 281.705971 
L 140.1951 238.479044 
L 140.6415 287.280196 
L 141.0879 250.839956 
L 141.5343 283.871518 
L 141.9807 249.073171 
L 142.4271 100.644083 
L 142.8735 208.648564 
L 143.3199 187.427542 
L 143.7663 258.650987 
L 144.2127 85.023323 
L 144.6591 242.034356 
L 145.1055 238.275489 
L 145.9983 261.178163 
L 146.4447 229.775786 
L 146.8911 217.373337 
L 147.3375 308.52816 
L 147.7839 270.7954 
L 148.2303 272.416741 
L 148.6767 62.831327 
L 149.1231 269.272648 
L 149.5695 180.740537 
L 150.0159 251.784002 
L 150.4623 279.707459 
L 150.9087 283.132507 
L 151.3551 284.191416 
L 152.2479 241.17224 
L 152.6943 289.435796 
L 153.1407 60.842237 
L 153.5871 249.212176 
L 154.0335 170.913077 
L 154.4799 275.107317 
L 154.9263 278.876532 
L 155.3727 299.023969 
L 155.8191 240.353285 
L 156.2655 133.779959 
L 156.7119 272.544098 
L 157.1583 236.420307 
L 157.6047 105.163496 
L 158.0511 262.029125 
L 158.4975 247.614781 
L 158.9439 162.165421 
L 159.3903 285.398179 
L 159.8367 324.915658 
L 160.2831 351.508647 
L 160.7295 339.703691 
L 161.1759 336.482212 
L 161.6223 331.557233 
L 162.0687 331.977517 
L 162.5151 326.803552 
L 162.9615 334.975843 
L 163.4079 326.11382 
L 163.8543 327.601446 
L 164.3007 327.197542 
L 164.7471 320.877157 
L 165.1935 324.319134 
L 165.6399 318.320702 
L 166.0863 321.42376 
L 166.5327 323.182296 
L 166.9791 322.813758 
L 167.4255 321.705158 
L 167.8719 317.7647 
L 168.3183 327.15115 
L 168.7647 319.771034 
L 169.2111 320.578677 
L 169.6575 319.014171 
L 170.1039 319.685226 
L 170.5503 324.447005 
L 170.9967 321.385168 
L 172.3359 319.907906 
L 172.7823 320.303965 
L 173.2287 318.403905 
L 173.6751 323.239687 
L 174.1215 312.443976 
L 174.5679 317.337177 
L 175.0143 314.873256 
L 175.4607 318.036628 
L 175.9071 317.378077 
L 176.3535 315.070347 
L 176.7999 317.676783 
L 177.2463 315.916903 
L 177.6927 319.449018 
L 178.1391 315.467091 
L 178.5855 315.709897 
L 179.0319 317.068173 
L 179.4783 310.528623 
L 179.9247 318.328325 
L 180.3711 314.698839 
L 180.8175 368.74175 
L 181.2639 320.357114 
L 181.7103 317.116837 
L 182.1567 311.849123 
L 182.6031 317.393233 
L 183.0495 319.441517 
L 183.4959 314.400279 
L 183.9423 316.373546 
L 184.3887 320.168939 
L 184.8351 313.413671 
L 185.2815 317.183658 
L 185.7279 317.836388 
L 186.1743 311.181892 
L 186.6207 316.664936 
L 187.0671 315.199246 
L 187.5135 320.020436 
L 187.9599 315.240501 
L 188.4063 312.712645 
L 188.8527 307.265617 
L 189.2991 310.324879 
L 189.7455 315.252829 
L 190.1919 312.639129 
L 190.6383 315.055757 
L 191.0847 311.410193 
L 191.5311 320.80227 
L 191.9775 321.10456 
L 192.4239 317.681566 
L 192.8703 316.050898 
L 193.3167 309.223061 
L 193.7631 318.676946 
L 194.2095 320.783196 
L 194.6559 310.569114 
L 195.1023 318.648308 
L 195.5487 302.019285 
L 195.9951 316.096278 
L 196.4415 305.631062 
L 196.8879 322.123977 
L 197.3343 315.304797 
L 197.7807 306.385678 
L 198.2271 316.664852 
L 198.6735 300.557856 
L 199.1199 308.798625 
L 199.5663 308.452906 
L 200.0127 310.067094 
L 200.4591 302.70868 
L 200.9055 303.697367 
L 201.3519 309.186569 
L 201.7983 307.360236 
L 202.2447 313.043885 
L 202.6911 306.745395 
L 203.1375 303.993695 
L 203.5839 303.259406 
L 204.0303 314.950058 
L 204.4767 298.529982 
L 205.3695 314.760694 
L 205.8159 316.773713 
L 206.2623 312.626786 
L 206.7087 298.726249 
L 207.1551 303.154546 
L 207.6015 302.645952 
L 208.0479 316.963538 
L 208.4943 311.559732 
L 208.9407 290.278457 
L 209.3871 307.797028 
L 209.8335 305.802328 
L 210.7263 299.380725 
L 211.1727 303.662663 
L 211.6191 320.09149 
L 212.0655 298.098327 
L 212.5119 303.375446 
L 212.9583 305.565669 
L 213.4047 298.440883 
L 213.8511 294.179208 
L 214.7439 322.169564 
L 215.1903 304.170983 
L 215.6367 321.430856 
L 216.0831 318.224177 
L 216.9759 295.856578 
L 217.4223 317.834069 
L 217.8687 302.424766 
L 218.3151 315.842283 
L 218.7615 293.042917 
L 219.2079 318.544784 
L 219.6543 298.064185 
L 220.1007 303.484538 
L 220.5471 302.846431 
L 220.9935 309.95787 
L 221.4399 311.85417 
L 221.8863 321.351 
L 222.3327 295.576681 
L 222.7791 305.395083 
L 223.2255 299.736966 
L 223.6719 312.676964 
L 224.1183 310.416757 
L 224.5647 319.937074 
L 225.0111 290.362348 
L 225.4575 368.74175 
L 225.9039 293.286646 
L 226.3503 295.665722 
L 226.7967 304.526513 
L 227.2431 301.199281 
L 227.6895 316.827605 
L 228.1359 321.203403 
L 228.5823 302.965464 
L 229.0287 302.783742 
L 229.4751 294.205767 
L 229.9215 294.135994 
L 230.3679 295.230173 
L 230.8143 320.482688 
L 231.2607 301.83115 
L 231.7071 298.460071 
L 232.1535 297.933556 
L 232.5999 296.541037 
L 233.0463 292.029753 
L 233.4927 294.401785 
L 233.9391 306.332687 
L 234.3855 310.05627 
L 235.2783 286.63114 
L 235.7247 296.286511 
L 236.1711 291.940424 
L 236.6175 294.118018 
L 237.0639 315.974344 
L 237.5103 280.566082 
L 237.9567 292.278429 
L 238.4031 287.10506 
L 238.8495 289.593609 
L 239.2959 303.763142 
L 239.7423 284.133933 
L 240.1887 287.029901 
L 240.6351 291.236934 
L 241.0815 300.41026 
L 241.5279 318.942278 
L 241.9743 282.846417 
L 242.4207 293.328724 
L 242.8671 286.859809 
L 243.3135 300.050894 
L 243.7599 301.506806 
L 244.2063 283.125541 
L 244.6527 295.251825 
L 245.0991 296.728242 
L 245.5455 295.115237 
L 245.9919 307.530874 
L 246.4383 297.160782 
L 246.8847 301.774705 
L 247.7775 288.112313 
L 248.2239 290.259063 
L 248.6703 295.200103 
L 249.1167 273.92651 
L 249.5631 275.075945 
L 250.0095 287.001544 
L 250.4559 289.741383 
L 250.9023 295.80909 
L 251.3487 276.154349 
L 251.7951 291.478861 
L 252.2415 289.689975 
L 252.6879 282.013329 
L 253.1343 285.473856 
L 253.5807 283.868321 
L 254.0271 279.063107 
L 254.4735 285.909565 
L 254.9199 277.850505 
L 255.3663 313.310938 
L 255.8127 307.815769 
L 256.2591 299.631875 
L 256.7055 282.480668 
L 257.1519 278.398166 
L 258.0447 284.217697 
L 258.4911 271.188792 
L 258.9375 295.092099 
L 259.3839 287.590899 
L 259.8303 284.031789 
L 260.2767 277.742033 
L 260.7231 281.354513 
L 261.1695 282.721308 
L 261.6159 277.950606 
L 262.0623 281.125702 
L 262.5087 282.179756 
L 262.9551 280.154771 
L 263.4015 264.506586 
L 263.8479 277.541133 
L 264.2943 254.74337 
L 264.7407 282.214385 
L 265.1871 275.562174 
L 265.6335 287.068991 
L 266.5263 281.073743 
L 266.9727 276.021403 
L 267.4191 282.0366 
L 267.8655 275.758856 
L 268.3119 273.640521 
L 268.7583 277.594692 
L 269.2047 275.813216 
L 269.6511 283.747931 
L 270.0975 368.74175 
L 270.5439 270.213178 
L 270.9903 264.585983 
L 271.4367 291.873385 
L 271.8831 272.396005 
L 272.3295 274.647012 
L 272.7759 306.366982 
L 273.2223 283.058129 
L 273.6687 286.025199 
L 274.1151 294.787812 
L 274.5615 270.078276 
L 275.0079 262.854214 
L 275.4543 290.160515 
L 275.9007 281.166888 
L 276.3471 277.554565 
L 276.7935 292.522819 
L 277.2399 273.575382 
L 277.6863 276.221733 
L 278.1327 273.094792 
L 278.5791 278.503019 
L 279.0255 263.027481 
L 279.4719 276.267556 
L 279.9183 253.934336 
L 280.3647 266.047206 
L 280.8111 257.842079 
L 281.2575 305.264103 
L 281.7039 281.260483 
L 282.1503 298.67399 
L 282.5967 258.224309 
L 283.0431 283.241311 
L 283.4895 278.20031 
L 283.9359 303.955064 
L 284.3823 284.907092 
L 284.8287 259.906786 
L 285.2751 267.981794 
L 285.7215 265.50913 
L 286.1679 264.939352 
L 286.6143 270.200851 
L 287.0607 268.224312 
L 287.5071 271.316936 
L 287.9535 273.601231 
L 288.3999 250.982596 
L 288.8463 308.564453 
L 289.2927 302.131627 
L 289.7391 275.968824 
L 290.1855 261.4284 
L 290.6319 296.557007 
L 291.0783 277.677635 
L 291.5247 243.856306 
L 291.9711 267.125498 
L 292.4175 270.390791 
L 292.8639 296.495269 
L 293.3103 259.24138 
L 293.7567 272.998916 
L 294.2031 301.157191 
L 295.0959 267.135336 
L 295.5423 298.573686 
L 295.9887 260.065702 
L 296.4351 307.709217 
L 296.8815 274.952027 
L 297.3279 280.487548 
L 297.7743 280.382842 
L 298.2207 296.601147 
L 298.6671 273.681318 
L 299.1135 273.380957 
L 299.5599 270.602034 
L 300.0063 273.416684 
L 300.4527 269.763321 
L 300.8991 275.306315 
L 301.3455 267.052905 
L 301.7919 261.4668 
L 302.2383 260.581503 
L 302.6847 278.686621 
L 303.1311 265.259053 
L 303.5775 241.199104 
L 304.0239 240.013515 
L 304.4703 267.509306 
L 304.9167 257.963175 
L 305.3631 256.755076 
L 305.8095 231.442274 
L 306.2559 262.41331 
L 306.7023 261.161524 
L 307.1487 285.280212 
L 307.5951 232.490394 
L 308.0415 268.199951 
L 308.4879 252.119583 
L 308.9343 249.778745 
L 309.3807 265.296206 
L 309.8271 266.171764 
L 310.2735 259.231116 
L 310.7199 234.229053 
L 311.1663 272.058751 
L 311.6127 262.101062 
L 312.0591 274.084635 
L 312.5055 252.207262 
L 312.9519 274.440941 
L 313.3983 266.062888 
L 313.8447 238.90788 
L 314.2911 266.842152 
L 314.7375 368.74175 
L 315.1839 273.527176 
L 315.6303 249.626377 
L 316.0767 296.956022 
L 316.9695 225.040763 
L 317.4159 251.074992 
L 317.8623 252.829819 
L 318.3087 265.846563 
L 318.7551 251.879625 
L 319.2015 275.913571 
L 319.6479 241.462588 
L 320.5407 276.285215 
L 320.9871 274.638064 
L 321.4335 265.09835 
L 321.8799 262.737967 
L 322.3263 269.278051 
L 322.7727 242.807208 
L 323.2191 261.633071 
L 323.6655 265.270972 
L 324.1119 281.176926 
L 325.0047 246.28753 
L 325.4511 259.523986 
L 325.8975 278.053551 
L 326.3439 287.914586 
L 326.7903 272.045466 
L 327.2367 228.903848 
L 327.6831 227.672796 
L 328.1295 282.944256 
L 328.5759 262.349359 
L 329.0223 225.078495 
L 329.4687 235.526627 
L 329.9151 236.22496 
L 330.3615 243.308779 
L 330.8079 230.68293 
L 331.2543 235.573744 
L 331.7007 283.50742 
L 332.1471 249.876258 
L 332.5935 246.234459 
L 333.0399 256.954122 
L 333.4863 244.864909 
L 333.9327 268.664892 
L 334.3791 258.794729 
L 334.8255 262.137433 
L 335.2719 250.178785 
L 335.7183 265.480789 
L 336.1647 208.993321 
L 336.6111 240.437533 
L 337.0575 225.656771 
L 337.5039 255.919704 
L 337.9503 260.968248 
L 338.3967 236.102323 
L 338.8431 271.585765 
L 339.2895 250.78136 
L 339.7359 273.208776 
L 340.1823 206.464854 
L 340.6287 263.386639 
L 341.0751 264.283432 
L 341.5215 259.447849 
L 341.9679 200.342261 
L 342.4143 276.582577 
L 342.8607 270.57365 
L 343.3071 204.874444 
L 343.7535 204.1935 
L 344.1999 250.048017 
L 344.6463 267.384827 
L 345.0927 214.754119 
L 345.9855 258.429376 
L 346.4319 227.907951 
L 346.8783 209.912708 
L 347.7711 256.731855 
L 348.2175 218.398965 
L 348.6639 263.419254 
L 349.1103 206.490837 
L 349.5567 235.80712 
L 350.0031 199.128098 
L 350.4495 216.400932 
L 350.8959 208.248883 
L 351.7887 280.596675 
L 352.2351 192.98184 
L 352.6815 200.108671 
L 353.1279 235.975951 
L 354.0207 258.254039 
L 354.4671 190.835 
L 354.9135 242.058393 
L 355.3599 216.28144 
L 355.8063 287.767796 
L 356.2527 202.301374 
L 356.6991 217.149483 
L 357.1455 223.459296 
L 357.5919 201.379063 
L 358.0383 196.301042 
L 358.4847 275.303243 
L 358.9311 193.816076 
L 359.3775 368.74175 
L 359.8239 204.778282 
L 360.2703 205.151363 
L 360.7167 240.766012 
L 361.1631 236.907374 
L 361.6095 281.081509 
L 362.0559 204.135926 
L 362.5023 224.230716 
L 362.9487 262.104341 
L 363.3951 237.169071 
L 363.8415 222.667745 
L 364.2879 198.511442 
L 364.7343 261.980014 
L 365.1807 253.397475 
L 365.6271 240.725319 
L 366.0735 285.640843 
L 366.5199 237.25608 
L 366.9663 232.694162 
L 367.4127 183.24643 
L 367.8591 226.335015 
L 368.3055 192.93632 
L 368.7519 254.993694 
L 369.1983 276.863025 
L 369.6447 244.881782 
L 370.0911 198.736486 
L 370.5375 266.20578 
L 370.9839 184.492645 
L 371.4303 180.598723 
L 371.8767 221.149733 
L 372.3231 216.060351 
L 372.7695 299.868045 
L 373.2159 268.863749 
L 373.6623 180.068375 
L 374.1087 187.468603 
L 374.5551 265.545363 
L 375.0015 252.791535 
L 375.4479 220.258601 
L 375.8943 259.033432 
L 376.3407 188.045899 
L 376.7871 250.982075 
L 377.2335 215.666669 
L 377.6799 260.171193 
L 378.1263 187.605427 
L 378.5727 218.702844 
L 379.0191 234.144538 
L 379.4655 208.393482 
L 379.9119 196.280264 
L 380.3583 242.485434 
L 380.8047 227.503426 
L 381.2511 182.113058 
L 381.6975 249.202359 
L 382.1439 245.691537 
L 382.5903 178.497311 
L 383.0367 255.123564 
L 383.4831 195.787359 
L 383.9295 208.18909 
L 384.3759 296.463547 
L 384.8223 187.472526 
L 385.2687 198.840065 
L 385.7151 219.367467 
L 386.1615 186.332937 
L 386.6079 204.863802 
L 387.0543 247.31176 
L 387.5007 169.188465 
L 387.9471 197.522266 
L 388.3935 235.431829 
L 388.8399 258.852525 
L 389.2863 241.089379 
L 389.7327 250.001754 
L 391.0719 171.245283 
L 391.5183 253.796632 
L 391.9647 264.6868 
L 392.4111 279.336007 
L 392.8575 227.541666 
L 393.3039 204.473915 
L 393.7503 241.173034 
L 394.1967 187.575556 
L 394.6431 243.512498 
L 395.0895 245.866957 
L 395.5359 256.531846 
L 395.9823 237.25642 
L 396.4287 193.433377 
L 396.8751 259.172253 
L 397.3215 245.256187 
L 397.7679 248.754355 
L 398.2143 257.221374 
L 398.6607 214.328891 
L 399.1071 241.733014 
L 399.5535 246.345337 
L 399.9999 181.230608 
L 400.4463 163.956697 
L 400.8927 243.579868 
L 401.3391 172.376417 
L 401.7855 215.272405 
L 402.2319 224.550066 
L 402.6783 246.298386 
L 403.1247 186.758327 
L 403.5711 173.882957 
L 404.0175 368.74175 
L 404.4639 172.065537 
L 404.9103 168.817521 
L 405.3567 250.210655 
L 405.8031 231.718142 
L 406.2495 239.548222 
L 406.6959 167.623155 
L 407.1423 261.062993 
L 407.5887 231.545023 
L 408.0351 213.310387 
L 408.4815 176.97969 
L 408.9279 227.054726 
L 409.3743 165.1783 
L 409.8207 183.530649 
L 410.2671 160.758947 
L 410.7135 245.232441 
L 411.1599 244.414929 
L 411.6063 173.320009 
L 412.0527 169.155606 
L 412.4991 223.660053 
L 412.9455 239.518208 
L 413.3919 167.00439 
L 413.8383 248.794553 
L 414.2847 198.14159 
L 414.7311 213.500436 
L 415.1775 160.161096 
L 415.6239 176.162422 
L 416.0703 144.638648 
L 416.9631 166.397904 
L 417.4095 146.837481 
L 417.8559 147.331578 
L 418.3023 176.802388 
L 418.7487 165.480192 
L 419.1951 247.780331 
L 419.6415 169.248701 
L 420.0879 159.345072 
L 420.5343 144.703841 
L 420.9807 256.145789 
L 421.4271 181.198224 
L 421.8735 202.160512 
L 422.3199 236.998512 
L 422.7663 190.724801 
L 423.2127 248.740154 
L 423.6591 248.966578 
L 424.1055 155.375633 
L 424.5519 150.969249 
L 424.9983 198.98471 
L 425.4447 178.704535 
L 425.8911 243.033899 
L 426.3375 231.506543 
L 426.7839 226.257154 
L 427.2303 238.084596 
L 427.6767 188.924657 
L 428.1231 239.078223 
L 428.5695 233.703271 
L 429.0159 130.753476 
L 429.4623 163.801637 
L 429.9087 252.548788 
L 430.3551 261.328511 
L 430.8015 144.942445 
L 431.2479 157.425681 
L 431.6943 243.926905 
L 432.1407 132.486581 
L 432.5871 231.402582 
L 433.0335 159.087505 
L 433.4799 145.129444 
L 433.9263 229.298765 
L 434.3727 185.5397 
L 434.8191 251.062279 
L 435.2655 139.106614 
L 435.7119 253.775914 
L 436.1583 131.227025 
L 436.6047 243.134445 
L 437.0511 195.472504 
L 437.4975 134.056632 
L 437.9439 148.313733 
L 438.3903 144.957366 
L 438.8367 125.793773 
L 439.2831 139.686026 
L 439.7295 220.294702 
L 440.1759 129.742001 
L 440.6223 134.93748 
L 441.5151 252.894383 
L 441.9615 175.806161 
L 442.8543 230.088581 
L 443.3007 200.660638 
L 443.7471 133.962556 
L 444.1935 142.859033 
L 445.0863 232.310711 
L 445.5327 248.884379 
L 445.9791 156.325581 
L 446.4255 222.116839 
L 446.8719 152.757047 
L 447.3183 256.9431 
L 447.7647 128.142585 
L 448.2111 130.436624 
L 448.6575 368.74175 
L 449.1039 187.042453 
L 449.5503 243.295083 
L 449.9967 148.744588 
L 450.4431 187.909427 
L 450.8895 141.022533 
L 451.3359 211.981315 
L 452.2287 134.759861 
L 452.6751 132.177936 
L 453.1215 118.68348 
L 453.5679 123.30958 
L 454.0143 125.344275 
L 454.4607 126.258017 
L 454.9071 129.811544 
L 455.3535 150.046652 
L 455.7999 141.651266 
L 456.2463 124.200602 
L 456.6927 218.698456 
L 457.1391 145.282882 
L 457.5855 112.348477 
L 458.0319 126.990546 
L 458.4783 113.179251 
L 458.9247 125.69055 
L 459.3711 248.048548 
L 459.8175 210.219157 
L 460.2639 214.219105 
L 460.7103 186.418446 
L 461.1567 217.768662 
L 461.6031 131.50581 
L 462.0495 142.019379 
L 462.4959 210.502689 
L 462.9423 191.564494 
L 463.3887 198.536096 
L 463.8351 199.711333 
L 464.2815 106.634418 
L 464.7279 112.661863 
L 465.1743 132.709862 
L 465.6207 120.704148 
L 466.0671 208.289458 
L 466.5135 182.521462 
L 466.9599 222.273273 
L 467.4063 134.329266 
L 467.8527 139.197482 
L 468.2991 120.401314 
L 468.7455 223.84427 
L 469.6383 103.874382 
L 470.0847 140.055652 
L 470.5311 192.733021 
L 471.4239 106.400581 
L 471.8703 112.431464 
L 472.3167 198.567888 
L 472.7631 132.523019 
L 473.2095 123.717688 
L 473.6559 110.985698 
L 474.1023 124.355119 
L 474.5487 116.444397 
L 474.9951 144.802015 
L 475.4415 111.397163 
L 475.8879 106.537872 
L 476.3343 130.096555 
L 476.7807 237.031147 
L 477.2271 104.605874 
L 477.6735 137.631859 
L 478.1199 214.31493 
L 478.5663 102.698724 
L 479.0127 206.830081 
L 479.4591 133.17649 
L 479.9055 255.299915 
L 480.3519 235.962538 
L 480.7983 134.807412 
L 481.2447 104.706735 
L 481.6911 95.853902 
L 482.1375 91.126439 
L 482.5839 241.376907 
L 483.0303 237.662382 
L 483.4767 113.39276 
L 483.9231 119.989535 
L 484.3695 251.480982 
L 484.8159 97.834562 
L 485.2623 136.710257 
L 485.7087 102.853563 
L 486.1551 160.45963 
L 486.6015 89.499502 
L 487.0479 97.661789 
L 487.4943 114.731737 
L 487.9407 98.303715 
L 488.3871 97.659032 
L 488.8335 92.678732 
L 489.2799 100.29848 
L 489.7263 228.887867 
L 490.1727 189.804416 
L 490.6191 130.909732 
L 491.0655 218.983505 
L 491.5119 230.667855 
L 491.9583 80.076673 
L 492.4047 87.673512 
L 492.8511 84.903632 
L 492.8511 84.903632 
" style="fill:none;stroke:#0000ff;stroke-linecap:square;stroke-width:0.5;"/>
   </g>
   <g id="patch_3">
    <path d="M 46.8975 368.74175 
L 46.8975 23.14175 
" style="fill:none;stroke:#000000;stroke-linecap:square;stroke-linejoin:miter;"/>
   </g>
   <g id="patch_4">
    <path d="M 493.2975 368.74175 
L 493.2975 23.14175 
" style="fill:none;stroke:#000000;stroke-linecap:square;stroke-linejoin:miter;"/>
   </g>
   <g id="patch_5">
    <path d="M 46.8975 368.74175 
L 493.2975 368.74175 
" style="fill:none;stroke:#000000;stroke-linecap:square;stroke-linejoin:miter;"/>
   </g>
   <g id="patch_6">
    <path d="M 46.8975 23.14175 
L 493.2975 23.14175 
" style="fill:none;stroke:#000000;stroke-linecap:square;stroke-linejoin:miter;"/>
   </g>
   <g id="matplotlib.axis_1">
    <g id="xtick_1">
     <g id="line2d_2">
      <defs>
       <path d="M 0 0 
L 0 -4 
" id="m7181f86fb6" style="stroke:#000000;stroke-width:0.5;"/>
      </defs>
      <g>
       <use style="stroke:#000000;stroke-width:0.5;" x="46.8975" xlink:href="#m7181f86fb6" y="368.74175"/>
      </g>
     </g>
     <g id="line2d_3">
      <defs>
       <path d="M 0 0 
L 0 4 
" id="m0d28d689cf" style="stroke:#000000;stroke-width:0.5;"/>
      </defs>
      <g>
       <use style="stroke:#000000;stroke-width:0.5;" x="46.8975" xlink:href="#m0d28d689cf" y="23.14175"/>
      </g>
     </g>
     <g id="text_1">
      <!-- 0 -->
      <defs>
       <path d="M 31.78125 66.40625 
Q 24.171875 66.40625 20.328125 58.90625 
Q 16.5 51.421875 16.5 36.375 
Q 16.5 21.390625 20.328125 13.890625 
Q 24.171875 6.390625 31.78125 6.390625 
Q 39.453125 6.390625 43.28125 13.890625 
Q 47.125 21.390625 47.125 36.375 
Q 47.125 51.421875 43.28125 58.90625 
Q 39.453125 66.40625 31.78125 66.40625 
M 31.78125 74.21875 
Q 44.046875 74.21875 50.515625 64.515625 
Q 56.984375 54.828125 56.984375 36.375 
Q 56.984375 17.96875 50.515625 8.265625 
Q 44.046875 -1.421875 31.78125 -1.421875 
Q 19.53125 -1.421875 13.0625 8.265625 
Q 6.59375 17.96875 6.59375 36.375 
Q 6.59375 54.828125 13.0625 64.515625 
Q 19.53125 74.21875 31.78125 74.21875 
" id="BitstreamVeraSans-Roman-30"/>
      </defs>
      <g transform="translate(43.08 381.859875)scale(0.12 -0.12)">
       <use xlink:href="#BitstreamVeraSans-Roman-30"/>
      </g>
     </g>
    </g>
    <g id="xtick_2">
     <g id="line2d_4">
      <g>
       <use style="stroke:#000000;stroke-width:0.5;" x="136.1775" xlink:href="#m7181f86fb6" y="368.74175"/>
      </g>
     </g>
     <g id="line2d_5">
      <g>
       <use style="stroke:#000000;stroke-width:0.5;" x="136.1775" xlink:href="#m0d28d689cf" y="23.14175"/>
      </g>
     </g>
     <g id="text_2">
      <!-- 200 -->
      <defs>
       <path d="M 19.1875 8.296875 
L 53.609375 8.296875 
L 53.609375 0 
L 7.328125 0 
L 7.328125 8.296875 
Q 12.9375 14.109375 22.625 23.890625 
Q 32.328125 33.6875 34.8125 36.53125 
Q 39.546875 41.84375 41.421875 45.53125 
Q 43.3125 49.21875 43.3125 52.78125 
Q 43.3125 58.59375 39.234375 62.25 
Q 35.15625 65.921875 28.609375 65.921875 
Q 23.96875 65.921875 18.8125 64.3125 
Q 13.671875 62.703125 7.8125 59.421875 
L 7.8125 69.390625 
Q 13.765625 71.78125 18.9375 73 
Q 24.125 74.21875 28.421875 74.21875 
Q 39.75 74.21875 46.484375 68.546875 
Q 53.21875 62.890625 53.21875 53.421875 
Q 53.21875 48.921875 51.53125 44.890625 
Q 49.859375 40.875 45.40625 35.40625 
Q 44.1875 33.984375 37.640625 27.21875 
Q 31.109375 20.453125 19.1875 8.296875 
" id="BitstreamVeraSans-Roman-32"/>
      </defs>
      <g transform="translate(124.725 381.859875)scale(0.12 -0.12)">
       <use xlink:href="#BitstreamVeraSans-Roman-32"/>
       <use x="63.623046875" xlink:href="#BitstreamVeraSans-Roman-30"/>
       <use x="127.24609375" xlink:href="#BitstreamVeraSans-Roman-30"/>
      </g>
     </g>
    </g>
    <g id="xtick_3">
     <g id="line2d_6">
      <g>
       <use style="stroke:#000000;stroke-width:0.5;" x="225.4575" xlink:href="#m7181f86fb6" y="368.74175"/>
      </g>
     </g>
     <g id="line2d_7">
      <g>
       <use style="stroke:#000000;stroke-width:0.5;" x="225.4575" xlink:href="#m0d28d689cf" y="23.14175"/>
      </g>
     </g>
     <g id="text_3">
      <!-- 400 -->
      <defs>
       <path d="M 37.796875 64.3125 
L 12.890625 25.390625 
L 37.796875 25.390625 
z
M 35.203125 72.90625 
L 47.609375 72.90625 
L 47.609375 25.390625 
L 58.015625 25.390625 
L 58.015625 17.1875 
L 47.609375 17.1875 
L 47.609375 0 
L 37.796875 0 
L 37.796875 17.1875 
L 4.890625 17.1875 
L 4.890625 26.703125 
z
" id="BitstreamVeraSans-Roman-34"/>
      </defs>
      <g transform="translate(214.005 381.859875)scale(0.12 -0.12)">
       <use xlink:href="#BitstreamVeraSans-Roman-34"/>
       <use x="63.623046875" xlink:href="#BitstreamVeraSans-Roman-30"/>
       <use x="127.24609375" xlink:href="#BitstreamVeraSans-Roman-30"/>
      </g>
     </g>
    </g>
    <g id="xtick_4">
     <g id="line2d_8">
      <g>
       <use style="stroke:#000000;stroke-width:0.5;" x="314.7375" xlink:href="#m7181f86fb6" y="368.74175"/>
      </g>
     </g>
     <g id="line2d_9">
      <g>
       <use style="stroke:#000000;stroke-width:0.5;" x="314.7375" xlink:href="#m0d28d689cf" y="23.14175"/>
      </g>
     </g>
     <g id="text_4">
      <!-- 600 -->
      <defs>
       <path d="M 33.015625 40.375 
Q 26.375 40.375 22.484375 35.828125 
Q 18.609375 31.296875 18.609375 23.390625 
Q 18.609375 15.53125 22.484375 10.953125 
Q 26.375 6.390625 33.015625 6.390625 
Q 39.65625 6.390625 43.53125 10.953125 
Q 47.40625 15.53125 47.40625 23.390625 
Q 47.40625 31.296875 43.53125 35.828125 
Q 39.65625 40.375 33.015625 40.375 
M 52.59375 71.296875 
L 52.59375 62.3125 
Q 48.875 64.0625 45.09375 64.984375 
Q 41.3125 65.921875 37.59375 65.921875 
Q 27.828125 65.921875 22.671875 59.328125 
Q 17.53125 52.734375 16.796875 39.40625 
Q 19.671875 43.65625 24.015625 45.921875 
Q 28.375 48.1875 33.59375 48.1875 
Q 44.578125 48.1875 50.953125 41.515625 
Q 57.328125 34.859375 57.328125 23.390625 
Q 57.328125 12.15625 50.6875 5.359375 
Q 44.046875 -1.421875 33.015625 -1.421875 
Q 20.359375 -1.421875 13.671875 8.265625 
Q 6.984375 17.96875 6.984375 36.375 
Q 6.984375 53.65625 15.1875 63.9375 
Q 23.390625 74.21875 37.203125 74.21875 
Q 40.921875 74.21875 44.703125 73.484375 
Q 48.484375 72.75 52.59375 71.296875 
" id="BitstreamVeraSans-Roman-36"/>
      </defs>
      <g transform="translate(303.285 381.859875)scale(0.12 -0.12)">
       <use xlink:href="#BitstreamVeraSans-Roman-36"/>
       <use x="63.623046875" xlink:href="#BitstreamVeraSans-Roman-30"/>
       <use x="127.24609375" xlink:href="#BitstreamVeraSans-Roman-30"/>
      </g>
     </g>
    </g>
    <g id="xtick_5">
     <g id="line2d_10">
      <g>
       <use style="stroke:#000000;stroke-width:0.5;" x="404.0175" xlink:href="#m7181f86fb6" y="368.74175"/>
      </g>
     </g>
     <g id="line2d_11">
      <g>
       <use style="stroke:#000000;stroke-width:0.5;" x="404.0175" xlink:href="#m0d28d689cf" y="23.14175"/>
      </g>
     </g>
     <g id="text_5">
      <!-- 800 -->
      <defs>
       <path d="M 31.78125 34.625 
Q 24.75 34.625 20.71875 30.859375 
Q 16.703125 27.09375 16.703125 20.515625 
Q 16.703125 13.921875 20.71875 10.15625 
Q 24.75 6.390625 31.78125 6.390625 
Q 38.8125 6.390625 42.859375 10.171875 
Q 46.921875 13.96875 46.921875 20.515625 
Q 46.921875 27.09375 42.890625 30.859375 
Q 38.875 34.625 31.78125 34.625 
M 21.921875 38.8125 
Q 15.578125 40.375 12.03125 44.71875 
Q 8.5 49.078125 8.5 55.328125 
Q 8.5 64.0625 14.71875 69.140625 
Q 20.953125 74.21875 31.78125 74.21875 
Q 42.671875 74.21875 48.875 69.140625 
Q 55.078125 64.0625 55.078125 55.328125 
Q 55.078125 49.078125 51.53125 44.71875 
Q 48 40.375 41.703125 38.8125 
Q 48.828125 37.15625 52.796875 32.3125 
Q 56.78125 27.484375 56.78125 20.515625 
Q 56.78125 9.90625 50.3125 4.234375 
Q 43.84375 -1.421875 31.78125 -1.421875 
Q 19.734375 -1.421875 13.25 4.234375 
Q 6.78125 9.90625 6.78125 20.515625 
Q 6.78125 27.484375 10.78125 32.3125 
Q 14.796875 37.15625 21.921875 38.8125 
M 18.3125 54.390625 
Q 18.3125 48.734375 21.84375 45.5625 
Q 25.390625 42.390625 31.78125 42.390625 
Q 38.140625 42.390625 41.71875 45.5625 
Q 45.3125 48.734375 45.3125 54.390625 
Q 45.3125 60.0625 41.71875 63.234375 
Q 38.140625 66.40625 31.78125 66.40625 
Q 25.390625 66.40625 21.84375 63.234375 
Q 18.3125 60.0625 18.3125 54.390625 
" id="BitstreamVeraSans-Roman-38"/>
      </defs>
      <g transform="translate(392.565 381.859875)scale(0.12 -0.12)">
       <use xlink:href="#BitstreamVeraSans-Roman-38"/>
       <use x="63.623046875" xlink:href="#BitstreamVeraSans-Roman-30"/>
       <use x="127.24609375" xlink:href="#BitstreamVeraSans-Roman-30"/>
      </g>
     </g>
    </g>
    <g id="xtick_6">
     <g id="line2d_12">
      <g>
       <use style="stroke:#000000;stroke-width:0.5;" x="493.2975" xlink:href="#m7181f86fb6" y="368.74175"/>
      </g>
     </g>
     <g id="line2d_13">
      <g>
       <use style="stroke:#000000;stroke-width:0.5;" x="493.2975" xlink:href="#m0d28d689cf" y="23.14175"/>
      </g>
     </g>
     <g id="text_6">
      <!-- 1000 -->
      <defs>
       <path d="M 12.40625 8.296875 
L 28.515625 8.296875 
L 28.515625 63.921875 
L 10.984375 60.40625 
L 10.984375 69.390625 
L 28.421875 72.90625 
L 38.28125 72.90625 
L 38.28125 8.296875 
L 54.390625 8.296875 
L 54.390625 0 
L 12.40625 0 
z
" id="BitstreamVeraSans-Roman-31"/>
      </defs>
      <g transform="translate(478.0275 381.859875)scale(0.12 -0.12)">
       <use xlink:href="#BitstreamVeraSans-Roman-31"/>
       <use x="63.623046875" xlink:href="#BitstreamVeraSans-Roman-30"/>
       <use x="127.24609375" xlink:href="#BitstreamVeraSans-Roman-30"/>
       <use x="190.869140625" xlink:href="#BitstreamVeraSans-Roman-30"/>
      </g>
     </g>
    </g>
    <g id="text_7">
     <!-- episode -->
     <defs>
      <path d="M 30.609375 48.390625 
Q 23.390625 48.390625 19.1875 42.75 
Q 14.984375 37.109375 14.984375 27.296875 
Q 14.984375 17.484375 19.15625 11.84375 
Q 23.34375 6.203125 30.609375 6.203125 
Q 37.796875 6.203125 41.984375 11.859375 
Q 46.1875 17.53125 46.1875 27.296875 
Q 46.1875 37.015625 41.984375 42.703125 
Q 37.796875 48.390625 30.609375 48.390625 
M 30.609375 56 
Q 42.328125 56 49.015625 48.375 
Q 55.71875 40.765625 55.71875 27.296875 
Q 55.71875 13.875 49.015625 6.21875 
Q 42.328125 -1.421875 30.609375 -1.421875 
Q 18.84375 -1.421875 12.171875 6.21875 
Q 5.515625 13.875 5.515625 27.296875 
Q 5.515625 40.765625 12.171875 48.375 
Q 18.84375 56 30.609375 56 
" id="BitstreamVeraSans-Roman-6f"/>
      <path d="M 56.203125 29.59375 
L 56.203125 25.203125 
L 14.890625 25.203125 
Q 15.484375 15.921875 20.484375 11.0625 
Q 25.484375 6.203125 34.421875 6.203125 
Q 39.59375 6.203125 44.453125 7.46875 
Q 49.3125 8.734375 54.109375 11.28125 
L 54.109375 2.78125 
Q 49.265625 0.734375 44.1875 -0.34375 
Q 39.109375 -1.421875 33.890625 -1.421875 
Q 20.796875 -1.421875 13.15625 6.1875 
Q 5.515625 13.8125 5.515625 26.8125 
Q 5.515625 40.234375 12.765625 48.109375 
Q 20.015625 56 32.328125 56 
Q 43.359375 56 49.78125 48.890625 
Q 56.203125 41.796875 56.203125 29.59375 
M 47.21875 32.234375 
Q 47.125 39.59375 43.09375 43.984375 
Q 39.0625 48.390625 32.421875 48.390625 
Q 24.90625 48.390625 20.390625 44.140625 
Q 15.875 39.890625 15.1875 32.171875 
z
" id="BitstreamVeraSans-Roman-65"/>
      <path d="M 44.28125 53.078125 
L 44.28125 44.578125 
Q 40.484375 46.53125 36.375 47.5 
Q 32.28125 48.484375 27.875 48.484375 
Q 21.1875 48.484375 17.84375 46.4375 
Q 14.5 44.390625 14.5 40.28125 
Q 14.5 37.15625 16.890625 35.375 
Q 19.28125 33.59375 26.515625 31.984375 
L 29.59375 31.296875 
Q 39.15625 29.25 43.1875 25.515625 
Q 47.21875 21.78125 47.21875 15.09375 
Q 47.21875 7.46875 41.1875 3.015625 
Q 35.15625 -1.421875 24.609375 -1.421875 
Q 20.21875 -1.421875 15.453125 -0.5625 
Q 10.6875 0.296875 5.421875 2 
L 5.421875 11.28125 
Q 10.40625 8.6875 15.234375 7.390625 
Q 20.0625 6.109375 24.8125 6.109375 
Q 31.15625 6.109375 34.5625 8.28125 
Q 37.984375 10.453125 37.984375 14.40625 
Q 37.984375 18.0625 35.515625 20.015625 
Q 33.0625 21.96875 24.703125 23.78125 
L 21.578125 24.515625 
Q 13.234375 26.265625 9.515625 29.90625 
Q 5.8125 33.546875 5.8125 39.890625 
Q 5.8125 47.609375 11.28125 51.796875 
Q 16.75 56 26.8125 56 
Q 31.78125 56 36.171875 55.265625 
Q 40.578125 54.546875 44.28125 53.078125 
" id="BitstreamVeraSans-Roman-73"/>
      <path d="M 18.109375 8.203125 
L 18.109375 -20.796875 
L 9.078125 -20.796875 
L 9.078125 54.6875 
L 18.109375 54.6875 
L 18.109375 46.390625 
Q 20.953125 51.265625 25.265625 53.625 
Q 29.59375 56 35.59375 56 
Q 45.5625 56 51.78125 48.09375 
Q 58.015625 40.1875 58.015625 27.296875 
Q 58.015625 14.40625 51.78125 6.484375 
Q 45.5625 -1.421875 35.59375 -1.421875 
Q 29.59375 -1.421875 25.265625 0.953125 
Q 20.953125 3.328125 18.109375 8.203125 
M 48.6875 27.296875 
Q 48.6875 37.203125 44.609375 42.84375 
Q 40.53125 48.484375 33.40625 48.484375 
Q 26.265625 48.484375 22.1875 42.84375 
Q 18.109375 37.203125 18.109375 27.296875 
Q 18.109375 17.390625 22.1875 11.75 
Q 26.265625 6.109375 33.40625 6.109375 
Q 40.53125 6.109375 44.609375 11.75 
Q 48.6875 17.390625 48.6875 27.296875 
" id="BitstreamVeraSans-Roman-70"/>
      <path d="M 9.421875 54.6875 
L 18.40625 54.6875 
L 18.40625 0 
L 9.421875 0 
z
M 9.421875 75.984375 
L 18.40625 75.984375 
L 18.40625 64.59375 
L 9.421875 64.59375 
z
" id="BitstreamVeraSans-Roman-69"/>
      <path d="M 45.40625 46.390625 
L 45.40625 75.984375 
L 54.390625 75.984375 
L 54.390625 0 
L 45.40625 0 
L 45.40625 8.203125 
Q 42.578125 3.328125 38.25 0.953125 
Q 33.9375 -1.421875 27.875 -1.421875 
Q 17.96875 -1.421875 11.734375 6.484375 
Q 5.515625 14.40625 5.515625 27.296875 
Q 5.515625 40.1875 11.734375 48.09375 
Q 17.96875 56 27.875 56 
Q 33.9375 56 38.25 53.625 
Q 42.578125 51.265625 45.40625 46.390625 
M 14.796875 27.296875 
Q 14.796875 17.390625 18.875 11.75 
Q 22.953125 6.109375 30.078125 6.109375 
Q 37.203125 6.109375 41.296875 11.75 
Q 45.40625 17.390625 45.40625 27.296875 
Q 45.40625 37.203125 41.296875 42.84375 
Q 37.203125 48.484375 30.078125 48.484375 
Q 22.953125 48.484375 18.875 42.84375 
Q 14.796875 37.203125 14.796875 27.296875 
" id="BitstreamVeraSans-Roman-64"/>
     </defs>
     <g transform="translate(246.631875 398.473625)scale(0.12 -0.12)">
      <use xlink:href="#BitstreamVeraSans-Roman-65"/>
      <use x="61.5234375" xlink:href="#BitstreamVeraSans-Roman-70"/>
      <use x="125.0" xlink:href="#BitstreamVeraSans-Roman-69"/>
      <use x="152.783203125" xlink:href="#BitstreamVeraSans-Roman-73"/>
      <use x="204.8828125" xlink:href="#BitstreamVeraSans-Roman-6f"/>
      <use x="266.064453125" xlink:href="#BitstreamVeraSans-Roman-64"/>
      <use x="329.541015625" xlink:href="#BitstreamVeraSans-Roman-65"/>
     </g>
    </g>
   </g>
   <g id="matplotlib.axis_2">
    <g id="ytick_1">
     <g id="line2d_14">
      <defs>
       <path d="M 0 0 
L 4 0 
" id="m7dbc41a43f" style="stroke:#000000;stroke-width:0.5;"/>
      </defs>
      <g>
       <use style="stroke:#000000;stroke-width:0.5;" x="46.8975" xlink:href="#m7dbc41a43f" y="368.74175"/>
      </g>
     </g>
     <g id="line2d_15">
      <defs>
       <path d="M 0 0 
L -4 0 
" id="m10ae127684" style="stroke:#000000;stroke-width:0.5;"/>
      </defs>
      <g>
       <use style="stroke:#000000;stroke-width:0.5;" x="493.2975" xlink:href="#m10ae127684" y="368.74175"/>
      </g>
     </g>
     <g id="text_8">
      <!-- 0.0 -->
      <defs>
       <path d="M 10.6875 12.40625 
L 21 12.40625 
L 21 0 
L 10.6875 0 
z
" id="BitstreamVeraSans-Roman-2e"/>
      </defs>
      <g transform="translate(23.81375 372.053)scale(0.12 -0.12)">
       <use xlink:href="#BitstreamVeraSans-Roman-30"/>
       <use x="63.623046875" xlink:href="#BitstreamVeraSans-Roman-2e"/>
       <use x="95.41015625" xlink:href="#BitstreamVeraSans-Roman-30"/>
      </g>
     </g>
    </g>
    <g id="ytick_2">
     <g id="line2d_16">
      <g>
       <use style="stroke:#000000;stroke-width:0.5;" x="46.8975" xlink:href="#m7dbc41a43f" y="330.34175"/>
      </g>
     </g>
     <g id="line2d_17">
      <g>
       <use style="stroke:#000000;stroke-width:0.5;" x="493.2975" xlink:href="#m10ae127684" y="330.34175"/>
      </g>
     </g>
     <g id="text_9">
      <!-- 0.2 -->
      <g transform="translate(23.81375 333.653)scale(0.12 -0.12)">
       <use xlink:href="#BitstreamVeraSans-Roman-30"/>
       <use x="63.623046875" xlink:href="#BitstreamVeraSans-Roman-2e"/>
       <use x="95.41015625" xlink:href="#BitstreamVeraSans-Roman-32"/>
      </g>
     </g>
    </g>
    <g id="ytick_3">
     <g id="line2d_18">
      <g>
       <use style="stroke:#000000;stroke-width:0.5;" x="46.8975" xlink:href="#m7dbc41a43f" y="291.94175"/>
      </g>
     </g>
     <g id="line2d_19">
      <g>
       <use style="stroke:#000000;stroke-width:0.5;" x="493.2975" xlink:href="#m10ae127684" y="291.94175"/>
      </g>
     </g>
     <g id="text_10">
      <!-- 0.4 -->
      <g transform="translate(23.81375 295.253)scale(0.12 -0.12)">
       <use xlink:href="#BitstreamVeraSans-Roman-30"/>
       <use x="63.623046875" xlink:href="#BitstreamVeraSans-Roman-2e"/>
       <use x="95.41015625" xlink:href="#BitstreamVeraSans-Roman-34"/>
      </g>
     </g>
    </g>
    <g id="ytick_4">
     <g id="line2d_20">
      <g>
       <use style="stroke:#000000;stroke-width:0.5;" x="46.8975" xlink:href="#m7dbc41a43f" y="253.54175"/>
      </g>
     </g>
     <g id="line2d_21">
      <g>
       <use style="stroke:#000000;stroke-width:0.5;" x="493.2975" xlink:href="#m10ae127684" y="253.54175"/>
      </g>
     </g>
     <g id="text_11">
      <!-- 0.6 -->
      <g transform="translate(23.81375 256.853)scale(0.12 -0.12)">
       <use xlink:href="#BitstreamVeraSans-Roman-30"/>
       <use x="63.623046875" xlink:href="#BitstreamVeraSans-Roman-2e"/>
       <use x="95.41015625" xlink:href="#BitstreamVeraSans-Roman-36"/>
      </g>
     </g>
    </g>
    <g id="ytick_5">
     <g id="line2d_22">
      <g>
       <use style="stroke:#000000;stroke-width:0.5;" x="46.8975" xlink:href="#m7dbc41a43f" y="215.14175"/>
      </g>
     </g>
     <g id="line2d_23">
      <g>
       <use style="stroke:#000000;stroke-width:0.5;" x="493.2975" xlink:href="#m10ae127684" y="215.14175"/>
      </g>
     </g>
     <g id="text_12">
      <!-- 0.8 -->
      <g transform="translate(23.81375 218.453)scale(0.12 -0.12)">
       <use xlink:href="#BitstreamVeraSans-Roman-30"/>
       <use x="63.623046875" xlink:href="#BitstreamVeraSans-Roman-2e"/>
       <use x="95.41015625" xlink:href="#BitstreamVeraSans-Roman-38"/>
      </g>
     </g>
    </g>
    <g id="ytick_6">
     <g id="line2d_24">
      <g>
       <use style="stroke:#000000;stroke-width:0.5;" x="46.8975" xlink:href="#m7dbc41a43f" y="176.74175"/>
      </g>
     </g>
     <g id="line2d_25">
      <g>
       <use style="stroke:#000000;stroke-width:0.5;" x="493.2975" xlink:href="#m10ae127684" y="176.74175"/>
      </g>
     </g>
     <g id="text_13">
      <!-- 1.0 -->
      <g transform="translate(23.81375 180.053)scale(0.12 -0.12)">
       <use xlink:href="#BitstreamVeraSans-Roman-31"/>
       <use x="63.623046875" xlink:href="#BitstreamVeraSans-Roman-2e"/>
       <use x="95.41015625" xlink:href="#BitstreamVeraSans-Roman-30"/>
      </g>
     </g>
    </g>
    <g id="ytick_7">
     <g id="line2d_26">
      <g>
       <use style="stroke:#000000;stroke-width:0.5;" x="46.8975" xlink:href="#m7dbc41a43f" y="138.34175"/>
      </g>
     </g>
     <g id="line2d_27">
      <g>
       <use style="stroke:#000000;stroke-width:0.5;" x="493.2975" xlink:href="#m10ae127684" y="138.34175"/>
      </g>
     </g>
     <g id="text_14">
      <!-- 1.2 -->
      <g transform="translate(23.81375 141.653)scale(0.12 -0.12)">
       <use xlink:href="#BitstreamVeraSans-Roman-31"/>
       <use x="63.623046875" xlink:href="#BitstreamVeraSans-Roman-2e"/>
       <use x="95.41015625" xlink:href="#BitstreamVeraSans-Roman-32"/>
      </g>
     </g>
    </g>
    <g id="ytick_8">
     <g id="line2d_28">
      <g>
       <use style="stroke:#000000;stroke-width:0.5;" x="46.8975" xlink:href="#m7dbc41a43f" y="99.94175"/>
      </g>
     </g>
     <g id="line2d_29">
      <g>
       <use style="stroke:#000000;stroke-width:0.5;" x="493.2975" xlink:href="#m10ae127684" y="99.94175"/>
      </g>
     </g>
     <g id="text_15">
      <!-- 1.4 -->
      <g transform="translate(23.81375 103.253)scale(0.12 -0.12)">
       <use xlink:href="#BitstreamVeraSans-Roman-31"/>
       <use x="63.623046875" xlink:href="#BitstreamVeraSans-Roman-2e"/>
       <use x="95.41015625" xlink:href="#BitstreamVeraSans-Roman-34"/>
      </g>
     </g>
    </g>
    <g id="ytick_9">
     <g id="line2d_30">
      <g>
       <use style="stroke:#000000;stroke-width:0.5;" x="46.8975" xlink:href="#m7dbc41a43f" y="61.54175"/>
      </g>
     </g>
     <g id="line2d_31">
      <g>
       <use style="stroke:#000000;stroke-width:0.5;" x="493.2975" xlink:href="#m10ae127684" y="61.54175"/>
      </g>
     </g>
     <g id="text_16">
      <!-- 1.6 -->
      <g transform="translate(23.81375 64.853)scale(0.12 -0.12)">
       <use xlink:href="#BitstreamVeraSans-Roman-31"/>
       <use x="63.623046875" xlink:href="#BitstreamVeraSans-Roman-2e"/>
       <use x="95.41015625" xlink:href="#BitstreamVeraSans-Roman-36"/>
      </g>
     </g>
    </g>
    <g id="ytick_10">
     <g id="line2d_32">
      <g>
       <use style="stroke:#000000;stroke-width:0.5;" x="46.8975" xlink:href="#m7dbc41a43f" y="23.14175"/>
      </g>
     </g>
     <g id="line2d_33">
      <g>
       <use style="stroke:#000000;stroke-width:0.5;" x="493.2975" xlink:href="#m10ae127684" y="23.14175"/>
      </g>
     </g>
     <g id="text_17">
      <!-- 1.8 -->
      <g transform="translate(23.81375 26.453)scale(0.12 -0.12)">
       <use xlink:href="#BitstreamVeraSans-Roman-31"/>
       <use x="63.623046875" xlink:href="#BitstreamVeraSans-Roman-2e"/>
       <use x="95.41015625" xlink:href="#BitstreamVeraSans-Roman-38"/>
      </g>
     </g>
    </g>
    <g id="text_18">
     <!-- average maxQ -->
     <defs>
      <path d="M 2.984375 54.6875 
L 12.5 54.6875 
L 29.59375 8.796875 
L 46.6875 54.6875 
L 56.203125 54.6875 
L 35.6875 0 
L 23.484375 0 
z
" id="BitstreamVeraSans-Roman-76"/>
      <path d="M 41.109375 46.296875 
Q 39.59375 47.171875 37.8125 47.578125 
Q 36.03125 48 33.890625 48 
Q 26.265625 48 22.1875 43.046875 
Q 18.109375 38.09375 18.109375 28.8125 
L 18.109375 0 
L 9.078125 0 
L 9.078125 54.6875 
L 18.109375 54.6875 
L 18.109375 46.1875 
Q 20.953125 51.171875 25.484375 53.578125 
Q 30.03125 56 36.53125 56 
Q 37.453125 56 38.578125 55.875 
Q 39.703125 55.765625 41.0625 55.515625 
z
" id="BitstreamVeraSans-Roman-72"/>
      <path d="M 45.40625 27.984375 
Q 45.40625 37.75 41.375 43.109375 
Q 37.359375 48.484375 30.078125 48.484375 
Q 22.859375 48.484375 18.828125 43.109375 
Q 14.796875 37.75 14.796875 27.984375 
Q 14.796875 18.265625 18.828125 12.890625 
Q 22.859375 7.515625 30.078125 7.515625 
Q 37.359375 7.515625 41.375 12.890625 
Q 45.40625 18.265625 45.40625 27.984375 
M 54.390625 6.78125 
Q 54.390625 -7.171875 48.1875 -13.984375 
Q 42 -20.796875 29.203125 -20.796875 
Q 24.46875 -20.796875 20.265625 -20.09375 
Q 16.0625 -19.390625 12.109375 -17.921875 
L 12.109375 -9.1875 
Q 16.0625 -11.328125 19.921875 -12.34375 
Q 23.78125 -13.375 27.78125 -13.375 
Q 36.625 -13.375 41.015625 -8.765625 
Q 45.40625 -4.15625 45.40625 5.171875 
L 45.40625 9.625 
Q 42.625 4.78125 38.28125 2.390625 
Q 33.9375 0 27.875 0 
Q 17.828125 0 11.671875 7.65625 
Q 5.515625 15.328125 5.515625 27.984375 
Q 5.515625 40.671875 11.671875 48.328125 
Q 17.828125 56 27.875 56 
Q 33.9375 56 38.28125 53.609375 
Q 42.625 51.21875 45.40625 46.390625 
L 45.40625 54.6875 
L 54.390625 54.6875 
z
" id="BitstreamVeraSans-Roman-67"/>
      <path id="BitstreamVeraSans-Roman-20"/>
      <path d="M 52 44.1875 
Q 55.375 50.25 60.0625 53.125 
Q 64.75 56 71.09375 56 
Q 79.640625 56 84.28125 50.015625 
Q 88.921875 44.046875 88.921875 33.015625 
L 88.921875 0 
L 79.890625 0 
L 79.890625 32.71875 
Q 79.890625 40.578125 77.09375 44.375 
Q 74.3125 48.1875 68.609375 48.1875 
Q 61.625 48.1875 57.5625 43.546875 
Q 53.515625 38.921875 53.515625 30.90625 
L 53.515625 0 
L 44.484375 0 
L 44.484375 32.71875 
Q 44.484375 40.625 41.703125 44.40625 
Q 38.921875 48.1875 33.109375 48.1875 
Q 26.21875 48.1875 22.15625 43.53125 
Q 18.109375 38.875 18.109375 30.90625 
L 18.109375 0 
L 9.078125 0 
L 9.078125 54.6875 
L 18.109375 54.6875 
L 18.109375 46.1875 
Q 21.1875 51.21875 25.484375 53.609375 
Q 29.78125 56 35.6875 56 
Q 41.65625 56 45.828125 52.96875 
Q 50 49.953125 52 44.1875 
" id="BitstreamVeraSans-Roman-6d"/>
      <path d="M 54.890625 54.6875 
L 35.109375 28.078125 
L 55.90625 0 
L 45.3125 0 
L 29.390625 21.484375 
L 13.484375 0 
L 2.875 0 
L 24.125 28.609375 
L 4.6875 54.6875 
L 15.28125 54.6875 
L 29.78125 35.203125 
L 44.28125 54.6875 
z
" id="BitstreamVeraSans-Roman-78"/>
      <path d="M 39.40625 66.21875 
Q 28.65625 66.21875 22.328125 58.203125 
Q 16.015625 50.203125 16.015625 36.375 
Q 16.015625 22.609375 22.328125 14.59375 
Q 28.65625 6.59375 39.40625 6.59375 
Q 50.140625 6.59375 56.421875 14.59375 
Q 62.703125 22.609375 62.703125 36.375 
Q 62.703125 50.203125 56.421875 58.203125 
Q 50.140625 66.21875 39.40625 66.21875 
M 53.21875 1.3125 
L 66.21875 -12.890625 
L 54.296875 -12.890625 
L 43.5 -1.21875 
Q 41.890625 -1.3125 41.03125 -1.359375 
Q 40.1875 -1.421875 39.40625 -1.421875 
Q 24.03125 -1.421875 14.8125 8.859375 
Q 5.609375 19.140625 5.609375 36.375 
Q 5.609375 53.65625 14.8125 63.9375 
Q 24.03125 74.21875 39.40625 74.21875 
Q 54.734375 74.21875 63.90625 63.9375 
Q 73.09375 53.65625 73.09375 36.375 
Q 73.09375 23.6875 67.984375 14.640625 
Q 62.890625 5.609375 53.21875 1.3125 
" id="BitstreamVeraSans-Roman-51"/>
      <path d="M 34.28125 27.484375 
Q 23.390625 27.484375 19.1875 25 
Q 14.984375 22.515625 14.984375 16.5 
Q 14.984375 11.71875 18.140625 8.90625 
Q 21.296875 6.109375 26.703125 6.109375 
Q 34.1875 6.109375 38.703125 11.40625 
Q 43.21875 16.703125 43.21875 25.484375 
L 43.21875 27.484375 
z
M 52.203125 31.203125 
L 52.203125 0 
L 43.21875 0 
L 43.21875 8.296875 
Q 40.140625 3.328125 35.546875 0.953125 
Q 30.953125 -1.421875 24.3125 -1.421875 
Q 15.921875 -1.421875 10.953125 3.296875 
Q 6 8.015625 6 15.921875 
Q 6 25.140625 12.171875 29.828125 
Q 18.359375 34.515625 30.609375 34.515625 
L 43.21875 34.515625 
L 43.21875 35.40625 
Q 43.21875 41.609375 39.140625 45 
Q 35.0625 48.390625 27.6875 48.390625 
Q 23 48.390625 18.546875 47.265625 
Q 14.109375 46.140625 10.015625 43.890625 
L 10.015625 52.203125 
Q 14.9375 54.109375 19.578125 55.046875 
Q 24.21875 56 28.609375 56 
Q 40.484375 56 46.34375 49.84375 
Q 52.203125 43.703125 52.203125 31.203125 
" id="BitstreamVeraSans-Roman-61"/>
     </defs>
     <g transform="translate(16.318125 240.208625)rotate(-90.0)scale(0.12 -0.12)">
      <use xlink:href="#BitstreamVeraSans-Roman-61"/>
      <use x="61.279296875" xlink:href="#BitstreamVeraSans-Roman-76"/>
      <use x="120.458984375" xlink:href="#BitstreamVeraSans-Roman-65"/>
      <use x="181.982421875" xlink:href="#BitstreamVeraSans-Roman-72"/>
      <use x="223.095703125" xlink:href="#BitstreamVeraSans-Roman-61"/>
      <use x="284.375" xlink:href="#BitstreamVeraSans-Roman-67"/>
      <use x="347.8515625" xlink:href="#BitstreamVeraSans-Roman-65"/>
      <use x="409.375" xlink:href="#BitstreamVeraSans-Roman-20"/>
      <use x="441.162109375" xlink:href="#BitstreamVeraSans-Roman-6d"/>
      <use x="538.57421875" xlink:href="#BitstreamVeraSans-Roman-61"/>
      <use x="599.853515625" xlink:href="#BitstreamVeraSans-Roman-78"/>
      <use x="659.033203125" xlink:href="#BitstreamVeraSans-Roman-51"/>
     </g>
    </g>
   </g>
   <g id="text_19">
    <!-- Average maxQ per episode, joint6 -->
    <defs>
     <path d="M 9.421875 54.6875 
L 18.40625 54.6875 
L 18.40625 -0.984375 
Q 18.40625 -11.421875 14.421875 -16.109375 
Q 10.453125 -20.796875 1.609375 -20.796875 
L -1.8125 -20.796875 
L -1.8125 -13.1875 
L 0.59375 -13.1875 
Q 5.71875 -13.1875 7.5625 -10.8125 
Q 9.421875 -8.453125 9.421875 -0.984375 
z
M 9.421875 75.984375 
L 18.40625 75.984375 
L 18.40625 64.59375 
L 9.421875 64.59375 
z
" id="BitstreamVeraSans-Roman-6a"/>
     <path d="M 11.71875 12.40625 
L 22.015625 12.40625 
L 22.015625 4 
L 14.015625 -11.625 
L 7.71875 -11.625 
L 11.71875 4 
z
" id="BitstreamVeraSans-Roman-2c"/>
     <path d="M 34.1875 63.1875 
L 20.796875 26.90625 
L 47.609375 26.90625 
z
M 28.609375 72.90625 
L 39.796875 72.90625 
L 67.578125 0 
L 57.328125 0 
L 50.6875 18.703125 
L 17.828125 18.703125 
L 11.1875 0 
L 0.78125 0 
z
" id="BitstreamVeraSans-Roman-41"/>
     <path d="M 18.3125 70.21875 
L 18.3125 54.6875 
L 36.8125 54.6875 
L 36.8125 47.703125 
L 18.3125 47.703125 
L 18.3125 18.015625 
Q 18.3125 11.328125 20.140625 9.421875 
Q 21.96875 7.515625 27.59375 7.515625 
L 36.8125 7.515625 
L 36.8125 0 
L 27.59375 0 
Q 17.1875 0 13.234375 3.875 
Q 9.28125 7.765625 9.28125 18.015625 
L 9.28125 47.703125 
L 2.6875 47.703125 
L 2.6875 54.6875 
L 9.28125 54.6875 
L 9.28125 70.21875 
z
" id="BitstreamVeraSans-Roman-74"/>
     <path d="M 54.890625 33.015625 
L 54.890625 0 
L 45.90625 0 
L 45.90625 32.71875 
Q 45.90625 40.484375 42.875 44.328125 
Q 39.84375 48.1875 33.796875 48.1875 
Q 26.515625 48.1875 22.3125 43.546875 
Q 18.109375 38.921875 18.109375 30.90625 
L 18.109375 0 
L 9.078125 0 
L 9.078125 54.6875 
L 18.109375 54.6875 
L 18.109375 46.1875 
Q 21.34375 51.125 25.703125 53.5625 
Q 30.078125 56 35.796875 56 
Q 45.21875 56 50.046875 50.171875 
Q 54.890625 44.34375 54.890625 33.015625 
" id="BitstreamVeraSans-Roman-6e"/>
    </defs>
    <g transform="translate(146.8245 18.14175)scale(0.144 -0.144)">
     <use xlink:href="#BitstreamVeraSans-Roman-41"/>
     <use x="68.330078125" xlink:href="#BitstreamVeraSans-Roman-76"/>
     <use x="127.509765625" xlink:href="#BitstreamVeraSans-Roman-65"/>
     <use x="189.033203125" xlink:href="#BitstreamVeraSans-Roman-72"/>
     <use x="230.146484375" xlink:href="#BitstreamVeraSans-Roman-61"/>
     <use x="291.42578125" xlink:href="#BitstreamVeraSans-Roman-67"/>
     <use x="354.90234375" xlink:href="#BitstreamVeraSans-Roman-65"/>
     <use x="416.42578125" xlink:href="#BitstreamVeraSans-Roman-20"/>
     <use x="448.212890625" xlink:href="#BitstreamVeraSans-Roman-6d"/>
     <use x="545.625" xlink:href="#BitstreamVeraSans-Roman-61"/>
     <use x="606.904296875" xlink:href="#BitstreamVeraSans-Roman-78"/>
     <use x="666.083984375" xlink:href="#BitstreamVeraSans-Roman-51"/>
     <use x="744.794921875" xlink:href="#BitstreamVeraSans-Roman-20"/>
     <use x="776.58203125" xlink:href="#BitstreamVeraSans-Roman-70"/>
     <use x="840.05859375" xlink:href="#BitstreamVeraSans-Roman-65"/>
     <use x="901.58203125" xlink:href="#BitstreamVeraSans-Roman-72"/>
     <use x="942.6953125" xlink:href="#BitstreamVeraSans-Roman-20"/>
     <use x="974.482421875" xlink:href="#BitstreamVeraSans-Roman-65"/>
     <use x="1036.005859375" xlink:href="#BitstreamVeraSans-Roman-70"/>
     <use x="1099.482421875" xlink:href="#BitstreamVeraSans-Roman-69"/>
     <use x="1127.265625" xlink:href="#BitstreamVeraSans-Roman-73"/>
     <use x="1179.365234375" xlink:href="#BitstreamVeraSans-Roman-6f"/>
     <use x="1240.546875" xlink:href="#BitstreamVeraSans-Roman-64"/>
     <use x="1304.0234375" xlink:href="#BitstreamVeraSans-Roman-65"/>
     <use x="1365.546875" xlink:href="#BitstreamVeraSans-Roman-2c"/>
     <use x="1397.333984375" xlink:href="#BitstreamVeraSans-Roman-20"/>
     <use x="1429.12109375" xlink:href="#BitstreamVeraSans-Roman-6a"/>
     <use x="1456.904296875" xlink:href="#BitstreamVeraSans-Roman-6f"/>
     <use x="1518.0859375" xlink:href="#BitstreamVeraSans-Roman-69"/>
     <use x="1545.869140625" xlink:href="#BitstreamVeraSans-Roman-6e"/>
     <use x="1609.248046875" xlink:href="#BitstreamVeraSans-Roman-74"/>
     <use x="1648.45703125" xlink:href="#BitstreamVeraSans-Roman-36"/>
    </g>
   </g>
  </g>
 </g>
 <defs>
  <clipPath id="p5e1825ab59">
   <rect height="345.6" width="446.4" x="46.8975" y="23.14175"/>
  </clipPath>
 </defs>
</svg>
