<?xml version="1.0" encoding="utf-8" standalone="no"?>
<!DOCTYPE svg PUBLIC "-//W3C//DTD SVG 1.1//EN"
  "http://www.w3.org/Graphics/SVG/1.1/DTD/svg11.dtd">
<!-- Created with matplotlib (http://matplotlib.org/) -->
<svg height="408pt" version="1.1" viewBox="0 0 523 408" width="523pt" xmlns="http://www.w3.org/2000/svg" xmlns:xlink="http://www.w3.org/1999/xlink">
 <defs>
  <style type="text/css">
*{stroke-linecap:butt;stroke-linejoin:round;stroke-miterlimit:100000;}
  </style>
 </defs>
 <g id="figure_1">
  <g id="patch_1">
   <path d="M 0 408.16925 
L 523.4025 408.16925 
L 523.4025 0 
L 0 0 
z
" style="fill:#ffffff;"/>
  </g>
  <g id="axes_1">
   <g id="patch_2">
    <path d="M 54.5325 368.74175 
L 500.9325 368.74175 
L 500.9325 23.14175 
L 54.5325 23.14175 
z
" style="fill:#ffffff;"/>
   </g>
   <g id="line2d_1">
    <path clip-path="url(#p7aff5dd1d2)" d="M 54.9045 100.442753 
L 55.2765 101.791033 
L 55.6485 100.052977 
L 56.0205 101.377588 
L 56.3925 99.622146 
L 56.7645 101.455593 
L 57.1365 100.935701 
L 57.5085 99.315102 
L 57.8805 100.471798 
L 58.2525 100.170084 
L 58.6245 101.063839 
L 58.9965 102.606042 
L 59.3685 101.321383 
L 59.7405 100.853 
L 60.1125 102.191423 
L 60.4845 99.655038 
L 60.8565 101.686048 
L 61.2285 100.17905 
L 61.6005 102.535772 
L 61.9725 101.204378 
L 62.3445 99.083349 
L 62.7165 101.714784 
L 63.0885 100.783894 
L 63.4605 100.637731 
L 63.8325 100.810658 
L 64.2045 99.826842 
L 64.5765 101.36097 
L 64.9485 101.282919 
L 65.3205 101.679101 
L 65.6925 100.642247 
L 66.0645 102.121668 
L 66.4365 99.89294 
L 66.8085 101.47905 
L 67.1805 101.29 
L 67.5525 100.875046 
L 67.9245 100.045005 
L 68.2965 100.560566 
L 68.6685 101.760984 
L 69.0405 101.684369 
L 69.4125 100.797196 
L 69.7845 98.038678 
L 70.1565 101.156531 
L 70.5285 103.141754 
L 70.9005 101.796801 
L 71.2725 103.590794 
L 71.6445 99.793821 
L 72.0165 101.299022 
L 72.3885 102.095914 
L 72.7605 101.30326 
L 73.1325 101.887912 
L 73.5045 85.878471 
L 74.2485 88.877342 
L 74.6205 89.432902 
L 74.9925 86.639283 
L 75.3645 85.58268 
L 75.7365 91.91664 
L 76.1085 88.748787 
L 76.4805 89.529441 
L 76.8525 87.491123 
L 77.2245 86.644551 
L 77.9685 86.058798 
L 78.3405 86.37059 
L 78.7125 88.922651 
L 79.0845 87.963724 
L 79.4565 86.45307 
L 79.8285 87.741514 
L 80.2005 86.223717 
L 80.5725 87.391119 
L 80.9445 91.018502 
L 81.3165 90.793634 
L 81.6885 89.460629 
L 82.0605 89.70743 
L 82.4325 87.673021 
L 82.8045 89.172372 
L 83.1765 86.665599 
L 83.5485 89.824836 
L 83.9205 85.83239 
L 84.2925 88.355684 
L 84.6645 87.72196 
L 85.0365 88.124018 
L 85.4085 88.839527 
L 85.7805 90.829688 
L 86.1525 45.020454 
L 86.5245 63.199961 
L 86.8965 75.272723 
L 87.2685 115.940052 
L 87.6405 135.888276 
L 88.0125 55.0592 
L 88.3845 75.3501 
L 89.1285 160.734608 
L 89.5005 164.078768 
L 90.2445 87.52727 
L 90.6165 92.184143 
L 90.9885 153.241671 
L 91.3605 158.220707 
L 91.7325 125.60857 
L 92.1045 135.924619 
L 92.4765 161.195346 
L 92.8485 133.29271 
L 93.9645 168.940192 
L 94.3365 167.708646 
L 94.7085 144.442806 
L 95.0805 169.148444 
L 95.4525 185.217164 
L 95.8245 184.447371 
L 96.1965 173.158618 
L 96.5685 181.444308 
L 96.9405 175.384665 
L 97.3125 179.640615 
L 97.6845 192.487538 
L 98.0565 187.167494 
L 98.4285 195.487204 
L 99.1725 199.801237 
L 99.5445 204.558737 
L 99.9165 193.178559 
L 100.2885 211.113579 
L 100.6605 206.218889 
L 101.0325 198.87278 
L 101.4045 178.151173 
L 101.7765 200.407898 
L 102.5205 211.734189 
L 102.8925 203.145837 
L 103.2645 200.071094 
L 103.6365 188.838919 
L 104.0085 208.717399 
L 104.3805 203.439445 
L 104.7525 200.900009 
L 105.4965 211.528334 
L 105.8685 212.827858 
L 106.2405 216.058117 
L 106.6125 210.124119 
L 106.9845 208.645726 
L 107.3565 223.412183 
L 107.7285 204.018722 
L 108.1005 228.382583 
L 108.4725 215.692813 
L 108.8445 216.240135 
L 109.2165 219.631216 
L 109.5885 220.319209 
L 109.9605 224.25661 
L 110.3325 224.145219 
L 110.7045 224.515621 
L 111.0765 214.856468 
L 111.4485 231.467951 
L 111.8205 229.135407 
L 112.1925 232.141885 
L 112.5645 232.878513 
L 112.9365 236.426767 
L 113.6805 232.115379 
L 114.0525 219.458876 
L 114.4245 234.592844 
L 114.7965 242.373492 
L 115.1685 230.872168 
L 115.5405 237.63246 
L 115.9125 242.234503 
L 116.2845 229.534155 
L 116.6565 248.433431 
L 117.0285 245.150536 
L 117.4005 230.264551 
L 117.7725 248.856882 
L 118.1445 246.339614 
L 118.5165 251.628048 
L 118.8885 245.242435 
L 119.2605 246.413578 
L 119.6325 242.329813 
L 120.0045 236.423527 
L 120.3765 247.492475 
L 120.7485 248.283547 
L 121.1205 254.085024 
L 121.4925 255.329898 
L 121.8645 244.060433 
L 122.2365 243.529088 
L 122.6085 265.69526 
L 122.9805 245.54163 
L 123.3525 265.832799 
L 123.7245 257.043756 
L 124.0965 261.078444 
L 124.4685 259.823269 
L 124.8405 251.511604 
L 125.2125 267.707567 
L 125.9565 248.026818 
L 126.3285 255.262082 
L 126.7005 258.386346 
L 127.0725 269.314114 
L 127.4445 257.294006 
L 127.8165 254.374659 
L 128.1885 249.735718 
L 128.5605 260.215682 
L 128.9325 267.131461 
L 129.3045 268.839345 
L 129.6765 266.566621 
L 130.0485 265.683651 
L 130.4205 272.180943 
L 130.7925 266.970256 
L 131.1645 253.846355 
L 131.5365 268.671365 
L 131.9085 253.866032 
L 132.6525 279.837662 
L 133.0245 255.407302 
L 133.3965 262.838473 
L 134.1405 269.731438 
L 134.8845 274.852297 
L 135.2565 261.372438 
L 135.6285 274.160473 
L 136.0005 279.430928 
L 136.3725 261.068645 
L 136.7445 285.756025 
L 137.1165 276.530647 
L 137.4885 270.654246 
L 137.8605 277.707645 
L 138.2325 277.513623 
L 138.6045 271.667183 
L 138.9765 271.003809 
L 139.3485 273.656393 
L 139.7205 272.348207 
L 140.0925 277.014481 
L 140.4645 272.496977 
L 140.8365 278.890827 
L 141.2085 275.864806 
L 141.5805 279.67612 
L 141.9525 272.875578 
L 142.3245 268.808409 
L 142.6965 281.133319 
L 143.0685 288.219514 
L 143.4405 288.785862 
L 143.8125 281.825558 
L 144.1845 280.852864 
L 144.5565 275.902218 
L 144.9285 286.644641 
L 145.3005 287.94314 
L 145.6725 275.806211 
L 146.0445 285.59849 
L 146.4165 268.345164 
L 146.7885 285.648042 
L 147.1605 295.536547 
L 147.5325 276.981186 
L 147.9045 274.586289 
L 148.2765 284.000004 
L 148.6485 283.220653 
L 149.0205 287.037619 
L 149.3925 275.316607 
L 149.7645 294.910469 
L 150.1365 288.252068 
L 150.5085 284.333611 
L 150.8805 276.271972 
L 151.2525 284.491632 
L 151.6245 269.134555 
L 151.9965 287.865564 
L 152.3685 290.203266 
L 152.7405 287.288411 
L 153.1125 282.17978 
L 153.4845 296.629537 
L 153.8565 277.573641 
L 154.2285 288.897942 
L 154.6005 292.474029 
L 154.9725 290.068314 
L 155.3445 268.466069 
L 155.7165 305.770886 
L 156.0885 300.424887 
L 156.4605 303.874573 
L 157.2045 282.01933 
L 157.5765 292.446185 
L 157.9485 284.28942 
L 158.3205 294.446296 
L 158.6925 289.302743 
L 159.0645 295.552213 
L 159.4365 281.05018 
L 159.8085 293.999808 
L 160.1805 296.661336 
L 160.5525 285.223566 
L 160.9245 285.602112 
L 161.6685 296.437029 
L 162.0405 296.999064 
L 162.4125 302.50348 
L 162.7845 304.542443 
L 163.1565 298.257873 
L 163.5285 314.816739 
L 163.9005 306.892223 
L 164.2725 296.595644 
L 164.6445 316.614704 
L 165.0165 292.803247 
L 165.3885 302.994475 
L 165.7605 283.324781 
L 166.1325 293.378184 
L 166.5045 291.705482 
L 167.2485 310.328104 
L 167.6205 301.311252 
L 167.9925 301.705522 
L 168.3645 298.790764 
L 168.7365 305.295878 
L 169.1085 296.324849 
L 169.4805 301.822753 
L 169.8525 311.77577 
L 170.5965 297.562876 
L 170.9685 307.860647 
L 171.3405 309.287731 
L 171.7125 291.533573 
L 172.0845 292.674883 
L 172.4565 300.800604 
L 172.8285 295.553058 
L 173.2005 304.405738 
L 173.5725 304.444261 
L 173.9445 294.751037 
L 174.3165 291.039908 
L 174.6885 315.804402 
L 175.0605 310.641766 
L 175.4325 292.647334 
L 175.8045 296.733793 
L 176.1765 290.538411 
L 176.5485 319.496977 
L 176.9205 292.934425 
L 177.2925 303.936649 
L 177.6645 297.666238 
L 178.0365 308.885997 
L 178.4085 294.722706 
L 179.1525 307.421745 
L 179.5245 296.535687 
L 179.8965 321.307491 
L 180.2685 306.788469 
L 180.6405 299.878999 
L 181.0125 297.037305 
L 181.3845 308.21103 
L 181.7565 295.574688 
L 182.1285 310.145857 
L 182.8725 300.908164 
L 183.2445 299.047269 
L 183.9885 315.426786 
L 184.3605 294.254523 
L 184.7325 320.553547 
L 185.1045 307.851016 
L 185.4765 304.674755 
L 186.2205 295.258258 
L 186.5925 310.411581 
L 186.9645 308.279956 
L 187.3365 310.31738 
L 187.7085 297.946636 
L 188.0805 290.491298 
L 188.4525 304.656284 
L 188.8245 291.145691 
L 189.1965 317.727955 
L 189.5685 307.546945 
L 189.9405 293.672849 
L 190.3125 316.245699 
L 190.6845 316.066145 
L 191.0565 318.103863 
L 191.4285 318.696735 
L 191.8005 309.779832 
L 192.1725 298.0284 
L 192.9165 310.260779 
L 193.2885 298.773225 
L 193.6605 307.037506 
L 194.0325 299.170538 
L 194.4045 295.262088 
L 194.7765 310.576261 
L 195.1485 331.017669 
L 195.5205 295.457076 
L 196.6365 320.626739 
L 197.3805 299.190751 
L 197.7525 315.982785 
L 198.1245 305.736063 
L 198.4965 307.287414 
L 198.8685 307.453867 
L 199.2405 310.16972 
L 199.6125 308.590267 
L 199.9845 313.589076 
L 200.3565 306.020772 
L 200.7285 303.629431 
L 201.1005 307.09777 
L 201.4725 293.06402 
L 201.8445 304.915794 
L 202.2165 323.743271 
L 202.5885 298.123493 
L 202.9605 315.787307 
L 203.3325 313.560541 
L 203.7045 309.782862 
L 204.0765 313.441222 
L 204.4485 312.256655 
L 204.8205 314.78892 
L 205.1925 334.206299 
L 205.5645 311.458052 
L 205.9365 308.71164 
L 206.3085 316.892881 
L 206.6805 316.011029 
L 207.0525 307.517228 
L 207.4245 322.552661 
L 207.7965 304.898348 
L 208.1685 309.382591 
L 208.5405 324.950298 
L 208.9125 310.247607 
L 209.2845 320.812437 
L 209.6565 314.136484 
L 210.0285 328.167124 
L 210.7725 307.661383 
L 211.1445 313.344892 
L 211.5165 309.773376 
L 211.8885 319.157445 
L 212.2605 315.551417 
L 212.6325 314.455465 
L 213.0045 319.371725 
L 213.3765 315.080422 
L 213.7485 316.065779 
L 214.1205 303.213447 
L 214.4925 307.422248 
L 214.8645 317.470415 
L 215.2365 320.301781 
L 215.6085 310.425665 
L 215.9805 319.521569 
L 216.3525 313.960995 
L 216.7245 320.388484 
L 217.0965 311.926489 
L 217.4685 326.024777 
L 217.8405 309.303239 
L 218.2125 318.043779 
L 218.5845 320.430843 
L 218.9565 320.238214 
L 219.7005 309.576421 
L 220.0725 318.853249 
L 220.4445 312.468571 
L 220.8165 316.672629 
L 221.1885 322.393714 
L 221.5605 320.174426 
L 222.3045 317.954952 
L 222.6765 325.552122 
L 223.0485 315.101884 
L 223.7925 316.725477 
L 224.1645 315.514767 
L 224.5365 322.657854 
L 224.9085 334.357678 
L 225.2805 319.778733 
L 225.6525 335.248243 
L 226.0245 313.374112 
L 226.3965 324.224451 
L 226.7685 316.372846 
L 227.1405 314.274574 
L 227.8845 328.653518 
L 228.2565 317.311946 
L 228.6285 317.504818 
L 229.0005 315.926641 
L 229.3725 321.992894 
L 229.7445 322.744003 
L 230.1165 319.520113 
L 230.4885 327.055618 
L 230.8605 319.170147 
L 231.6045 326.709206 
L 231.9765 324.72886 
L 232.7205 318.204696 
L 233.0925 318.677447 
L 233.4645 325.455609 
L 233.8365 315.585361 
L 234.2085 325.746062 
L 234.5805 328.019514 
L 234.9525 320.020394 
L 235.3245 314.544472 
L 235.6965 325.271499 
L 236.0685 320.722111 
L 236.4405 319.215018 
L 236.8125 326.603753 
L 237.1845 313.475795 
L 237.5565 333.316689 
L 237.9285 321.827643 
L 238.3005 327.509834 
L 238.6725 327.875959 
L 239.0445 333.491091 
L 239.4165 325.909086 
L 239.7885 326.514007 
L 240.1605 323.041878 
L 240.5325 334.772987 
L 240.9045 330.003379 
L 241.2765 319.910456 
L 241.6485 321.148356 
L 242.0205 327.899757 
L 242.3925 327.683121 
L 242.7645 326.563975 
L 243.1365 320.74724 
L 243.5085 325.122561 
L 243.8805 332.552844 
L 244.2525 319.992917 
L 244.6245 320.179496 
L 244.9965 329.327653 
L 245.3685 325.577413 
L 245.7405 328.768906 
L 246.1125 334.570467 
L 246.4845 333.595865 
L 246.8565 327.549771 
L 247.2285 327.351502 
L 247.6005 329.191226 
L 247.9725 327.680072 
L 248.3445 340.091877 
L 248.7165 323.774023 
L 249.0885 330.976594 
L 249.4605 328.850186 
L 249.8325 320.817983 
L 250.5765 337.801424 
L 250.9485 335.645754 
L 251.3205 332.457745 
L 251.6925 330.362779 
L 252.4365 339.747672 
L 252.8085 326.616682 
L 253.1805 336.686171 
L 253.5525 325.213321 
L 253.9245 337.565085 
L 254.2965 330.496348 
L 254.6685 329.184964 
L 255.0405 326.791501 
L 255.4125 332.685028 
L 255.7845 329.815016 
L 256.1565 319.220626 
L 256.5285 332.224454 
L 256.9005 337.161049 
L 257.6445 324.857048 
L 258.0165 332.099663 
L 258.3885 327.192807 
L 258.7605 325.912482 
L 259.1325 330.266153 
L 259.5045 329.132474 
L 259.8765 323.095591 
L 260.2485 329.083963 
L 260.6205 327.744502 
L 260.9925 330.527582 
L 261.3645 328.676937 
L 261.7365 336.243815 
L 262.4805 327.638135 
L 262.8525 330.158511 
L 263.2245 329.043508 
L 263.5965 332.088383 
L 263.9685 329.186476 
L 264.3405 328.193318 
L 264.7125 332.84937 
L 265.0845 330.98557 
L 265.4565 330.648984 
L 265.8285 324.073335 
L 266.2005 329.884722 
L 266.5725 324.418572 
L 266.9445 340.040647 
L 267.3165 326.198633 
L 267.6885 330.695817 
L 268.0605 325.536072 
L 268.4325 328.423936 
L 268.8045 339.01235 
L 269.1765 330.234566 
L 269.5485 329.806122 
L 269.9205 327.217856 
L 270.2925 329.664976 
L 270.6645 336.473285 
L 271.0365 333.94609 
L 271.4085 328.188248 
L 271.7805 329.853959 
L 272.1525 328.10573 
L 272.5245 337.839767 
L 272.8965 327.793351 
L 273.2685 335.998158 
L 273.6405 331.373183 
L 274.0125 331.195148 
L 274.3845 336.664756 
L 274.7565 338.078104 
L 275.1285 326.527775 
L 275.5005 325.635763 
L 275.8725 327.900555 
L 276.2445 341.163655 
L 276.6165 328.529778 
L 276.9885 332.957073 
L 277.3605 330.817938 
L 277.7325 327.585202 
L 278.1045 329.598192 
L 278.4765 337.862998 
L 278.8485 326.815494 
L 279.2205 323.066152 
L 279.5925 338.364888 
L 279.9645 326.45475 
L 280.3365 330.558725 
L 280.7085 328.68915 
L 281.0805 333.582334 
L 281.4525 328.366242 
L 281.8245 330.654044 
L 282.1965 330.490475 
L 282.5685 328.889428 
L 282.9405 331.945477 
L 283.3125 338.320025 
L 283.6845 338.715003 
L 284.4285 328.53001 
L 284.8005 333.026972 
L 285.1725 332.470439 
L 285.5445 337.704259 
L 285.9165 331.394006 
L 286.2885 334.54719 
L 286.6605 342.067992 
L 287.0325 326.746643 
L 287.4045 330.431164 
L 287.7765 331.299873 
L 288.1485 330.748355 
L 288.5205 330.639138 
L 288.8925 331.723501 
L 289.2645 329.448391 
L 289.6365 329.582681 
L 290.0085 333.256962 
L 290.3805 341.826985 
L 290.7525 326.585378 
L 291.1245 325.282298 
L 291.4965 338.695019 
L 291.8685 328.582263 
L 292.2405 340.588206 
L 292.6125 340.89482 
L 292.9845 332.55347 
L 293.3565 341.869237 
L 293.7285 331.128723 
L 294.1005 336.548632 
L 294.4725 328.829367 
L 294.8445 331.266033 
L 295.2165 326.876571 
L 295.9605 334.762286 
L 296.3325 336.247366 
L 296.7045 328.510718 
L 297.0765 326.828917 
L 297.4485 330.515786 
L 297.8205 340.676634 
L 298.1925 331.156053 
L 298.5645 334.518207 
L 298.9365 340.728568 
L 299.3085 331.89899 
L 299.6805 337.972138 
L 300.0525 328.974956 
L 300.4245 341.639085 
L 300.7965 332.509326 
L 301.1685 337.020867 
L 301.5405 322.299879 
L 301.9125 329.289972 
L 302.2845 338.425731 
L 302.6565 339.839569 
L 303.0285 333.930015 
L 303.4005 333.178573 
L 303.7725 335.328228 
L 304.1445 333.494457 
L 304.5165 333.823344 
L 304.8885 326.959646 
L 305.2605 344.536167 
L 305.6325 333.141077 
L 306.0045 328.964396 
L 306.7485 345.98858 
L 307.1205 335.380434 
L 307.4925 333.03009 
L 307.8645 343.63238 
L 308.2365 339.831857 
L 308.6085 340.870284 
L 308.9805 330.018296 
L 309.3525 335.688449 
L 309.7245 335.760601 
L 310.0965 324.900386 
L 310.4685 330.979849 
L 310.8405 334.366714 
L 311.2125 329.699719 
L 311.5845 328.774488 
L 311.9565 335.054581 
L 312.3285 337.026836 
L 312.7005 333.160521 
L 313.0725 337.032326 
L 313.4445 334.938261 
L 313.8165 336.938653 
L 314.1885 331.225694 
L 314.5605 337.086311 
L 314.9325 337.422684 
L 315.3045 337.080539 
L 315.6765 334.872284 
L 316.0485 346.390378 
L 316.4205 330.9078 
L 316.7925 331.289462 
L 317.1645 327.247241 
L 317.5365 334.102553 
L 317.9085 335.147986 
L 318.2805 333.120547 
L 318.6525 325.960718 
L 319.0245 337.142483 
L 319.3965 331.193479 
L 319.7685 341.10387 
L 320.1405 331.379311 
L 320.5125 337.189272 
L 320.8845 331.098225 
L 321.2565 336.043417 
L 321.6285 332.217819 
L 322.0005 339.239347 
L 322.3725 335.749706 
L 322.7445 336.911397 
L 323.1165 331.279919 
L 323.4885 333.408645 
L 323.8605 329.748488 
L 324.2325 329.75612 
L 324.6045 342.601719 
L 324.9765 343.585324 
L 325.3485 341.94651 
L 325.7205 336.611476 
L 326.0925 337.362953 
L 326.4645 330.432495 
L 326.8365 335.635802 
L 327.2085 336.380235 
L 327.5805 329.633147 
L 327.9525 339.183644 
L 328.3245 340.842062 
L 328.6965 332.06019 
L 329.0685 332.558471 
L 329.4405 338.028859 
L 329.8125 325.091999 
L 330.1845 334.747063 
L 330.5565 326.096069 
L 330.9285 336.11501 
L 331.3005 335.853141 
L 331.6725 332.261889 
L 332.0445 348.677718 
L 332.4165 327.014543 
L 332.7885 330.866385 
L 333.1605 332.926674 
L 333.5325 330.522671 
L 333.9045 342.833419 
L 334.2765 334.420589 
L 334.6485 333.222004 
L 335.0205 340.64667 
L 335.3925 338.243803 
L 335.7645 339.744263 
L 336.1365 335.938113 
L 336.5085 336.329769 
L 336.8805 333.335801 
L 337.2525 339.364251 
L 337.6245 334.37493 
L 338.3685 331.353621 
L 338.7405 331.41252 
L 339.1125 327.376999 
L 339.4845 331.404417 
L 339.8565 332.561398 
L 340.2285 329.836198 
L 340.6005 332.454477 
L 340.9725 331.810984 
L 341.3445 336.111269 
L 341.7165 338.726912 
L 342.0885 335.287052 
L 342.4605 330.501804 
L 342.8325 328.295566 
L 343.2045 337.553546 
L 343.5765 325.081527 
L 343.9485 339.030778 
L 344.3205 331.86971 
L 344.6925 340.979319 
L 345.0645 338.417594 
L 345.4365 327.118353 
L 345.8085 325.538331 
L 346.1805 336.14844 
L 346.5525 324.667564 
L 346.9245 335.041585 
L 347.2965 334.918676 
L 347.6685 330.226646 
L 348.0405 336.56643 
L 348.4125 329.971932 
L 348.7845 334.471248 
L 349.1565 333.987376 
L 349.5285 333.755206 
L 349.9005 329.171927 
L 350.2725 335.101146 
L 350.6445 330.462127 
L 351.0165 332.065605 
L 351.3885 325.643192 
L 351.7605 332.51713 
L 352.1325 335.617757 
L 352.5045 333.420871 
L 352.8765 335.061819 
L 353.2485 337.957999 
L 353.6205 333.395685 
L 353.9925 336.275744 
L 354.7365 330.040013 
L 355.1085 336.740729 
L 355.4805 333.009064 
L 355.8525 332.011009 
L 356.2245 331.949672 
L 356.5965 338.660404 
L 356.9685 333.348085 
L 357.3405 336.402436 
L 357.7125 327.856068 
L 358.0845 331.438336 
L 358.4565 331.89119 
L 358.8285 333.744572 
L 359.2005 337.262511 
L 359.5725 338.145237 
L 359.9445 330.127725 
L 360.3165 338.853428 
L 360.6885 337.919427 
L 361.0605 331.970158 
L 361.4325 332.689714 
L 361.8045 332.781139 
L 362.1765 327.037169 
L 362.5485 343.685158 
L 362.9205 328.328234 
L 363.2925 332.163197 
L 363.6645 327.361918 
L 364.0365 334.642897 
L 364.4085 333.579218 
L 364.7805 330.305765 
L 365.8965 343.957696 
L 366.6405 329.915714 
L 367.0125 331.208105 
L 367.3845 334.215942 
L 367.7565 333.065256 
L 368.1285 331.533191 
L 368.5005 335.740738 
L 368.8725 330.238431 
L 369.2445 329.650314 
L 369.6165 329.597067 
L 369.9885 324.641347 
L 370.3605 336.397865 
L 370.7325 328.317865 
L 371.1045 332.469551 
L 371.4765 342.714063 
L 371.8485 335.19443 
L 372.2205 331.084365 
L 372.5925 333.297944 
L 372.9645 328.17234 
L 373.3365 336.156379 
L 373.7085 328.154321 
L 374.0805 337.812493 
L 374.4525 337.697513 
L 374.8245 335.403436 
L 375.1965 330.410552 
L 375.5685 333.112357 
L 375.9405 334.897462 
L 376.3125 332.060754 
L 376.6845 333.313242 
L 377.0565 325.7544 
L 377.4285 331.022093 
L 377.8005 328.772199 
L 378.1725 329.5462 
L 378.5445 341.990675 
L 378.9165 334.33994 
L 379.2885 329.700576 
L 379.6605 333.237068 
L 380.0325 331.260427 
L 380.4045 331.827528 
L 380.7765 334.935591 
L 381.1485 335.129696 
L 381.5205 330.640786 
L 382.6365 331.651663 
L 383.0085 331.485774 
L 383.3805 330.678436 
L 383.7525 333.598963 
L 384.1245 332.372384 
L 384.4965 332.89267 
L 384.8685 330.05298 
L 385.2405 335.798359 
L 385.6125 331.893793 
L 385.9845 331.005809 
L 386.3565 331.836185 
L 386.7285 330.684134 
L 387.1005 334.063823 
L 387.4725 332.54685 
L 387.8445 329.129225 
L 388.2165 333.818464 
L 388.5885 330.635682 
L 388.9605 334.675153 
L 389.3325 332.559513 
L 389.7045 334.563378 
L 390.0765 329.913054 
L 390.8205 334.208001 
L 391.1925 334.005138 
L 391.5645 330.706026 
L 392.3085 339.143135 
L 392.6805 329.555119 
L 393.0525 337.983764 
L 393.4245 333.664865 
L 393.7965 331.716021 
L 394.1685 334.760679 
L 394.5405 329.077644 
L 394.9125 333.601543 
L 395.2845 346.941341 
L 395.6565 333.273621 
L 396.0285 333.815755 
L 396.4005 336.014012 
L 396.7725 330.623613 
L 397.1445 340.691669 
L 397.5165 329.571472 
L 397.8885 329.396391 
L 398.2605 342.472559 
L 398.6325 331.035454 
L 399.0045 332.37098 
L 399.3765 338.363972 
L 399.7485 336.22309 
L 400.1205 330.152122 
L 400.4925 333.536191 
L 400.8645 335.109341 
L 401.2365 331.446893 
L 401.6085 332.795551 
L 401.9805 338.440063 
L 402.3525 334.303232 
L 402.7245 334.337437 
L 403.0965 332.017068 
L 403.4685 334.782762 
L 404.2125 331.794448 
L 404.9565 336.157466 
L 405.3285 333.558263 
L 405.7005 339.258986 
L 406.0725 332.184407 
L 406.4445 333.083178 
L 406.8165 332.681459 
L 407.1885 342.075058 
L 407.5605 334.16106 
L 407.9325 329.719136 
L 408.3045 332.68227 
L 408.6765 330.333711 
L 409.0485 332.201056 
L 409.4205 330.311008 
L 409.7925 330.521322 
L 410.1645 333.639672 
L 410.5365 333.01547 
L 410.9085 338.527729 
L 411.2805 327.782732 
L 411.6525 344.269956 
L 412.0245 334.799754 
L 412.7685 331.336748 
L 413.1405 332.103737 
L 413.5125 335.213412 
L 413.8845 348.79153 
L 414.2565 333.226395 
L 414.6285 337.757179 
L 415.0005 335.247834 
L 415.3725 337.097003 
L 415.7445 333.350732 
L 416.1165 333.184673 
L 416.4885 335.025064 
L 416.8605 333.972282 
L 417.2325 335.117494 
L 417.6045 331.793181 
L 417.9765 332.033282 
L 418.3485 332.787788 
L 418.7205 329.940647 
L 419.0925 331.439001 
L 419.4645 336.852776 
L 419.8365 338.847802 
L 420.2085 335.582439 
L 420.5805 329.42565 
L 420.9525 332.320079 
L 421.3245 331.201897 
L 421.6965 343.861752 
L 422.0685 331.500013 
L 422.4405 333.966759 
L 422.8125 333.339944 
L 423.1845 333.761708 
L 423.5565 333.909959 
L 423.9285 330.136037 
L 424.6725 336.511605 
L 425.0445 336.383595 
L 425.4165 337.482666 
L 425.7885 334.109992 
L 426.1605 333.295681 
L 426.5325 332.827527 
L 426.9045 333.503 
L 427.2765 339.076226 
L 427.6485 333.916785 
L 428.0205 335.744595 
L 428.3925 336.04128 
L 428.7645 330.264651 
L 429.1365 331.929672 
L 429.5085 337.011961 
L 429.8805 336.302843 
L 430.2525 337.176539 
L 430.6245 332.801319 
L 430.9965 331.234562 
L 431.3685 331.090877 
L 431.7405 335.621743 
L 432.1125 334.632837 
L 432.4845 337.75775 
L 432.8565 331.983192 
L 433.2285 332.377819 
L 433.6005 333.918124 
L 433.9725 328.800397 
L 434.3445 345.726409 
L 435.0885 334.78615 
L 435.8325 333.32152 
L 436.2045 334.852709 
L 436.5765 338.913509 
L 436.9485 339.441586 
L 437.3205 333.909699 
L 437.6925 330.192605 
L 438.0645 334.581081 
L 438.4365 333.133422 
L 438.8085 334.73649 
L 439.1805 332.598516 
L 439.5525 333.816126 
L 439.9245 331.617335 
L 440.6685 333.730883 
L 441.0405 330.020523 
L 441.4125 333.187155 
L 441.7845 338.670565 
L 442.1565 337.12391 
L 442.5285 337.078422 
L 442.9005 336.098186 
L 443.2725 330.376637 
L 444.0165 339.845671 
L 444.3885 333.130152 
L 444.7605 336.026629 
L 445.1325 333.260863 
L 445.5045 333.005974 
L 445.8765 334.438961 
L 446.2485 333.488218 
L 446.6205 329.711255 
L 447.3645 334.406898 
L 447.7365 332.801613 
L 448.1085 332.679958 
L 448.4805 331.575641 
L 448.8525 338.269037 
L 449.2245 333.297931 
L 449.5965 333.382664 
L 449.9685 329.582789 
L 450.3405 336.014426 
L 450.7125 331.881068 
L 451.0845 333.590159 
L 451.4565 334.425432 
L 451.8285 334.502139 
L 452.2005 332.373764 
L 452.5725 331.094152 
L 452.9445 337.498134 
L 453.3165 337.090153 
L 453.6885 329.865624 
L 454.0605 330.431334 
L 454.4325 337.113495 
L 454.8045 333.014801 
L 455.1765 337.429126 
L 455.5485 334.630568 
L 456.2925 331.280911 
L 456.6645 338.54838 
L 457.0365 342.056933 
L 457.4085 332.947948 
L 457.7805 343.071841 
L 458.5245 330.939466 
L 458.8965 330.820144 
L 459.2685 332.500388 
L 459.6405 336.80505 
L 460.0125 338.423311 
L 460.3845 332.005411 
L 460.7565 337.736113 
L 461.1285 336.047135 
L 461.8725 331.29377 
L 462.2445 330.202405 
L 462.6165 333.339066 
L 462.9885 331.058075 
L 463.3605 331.333671 
L 463.7325 337.866852 
L 464.1045 334.066836 
L 464.4765 331.594137 
L 464.8485 327.512638 
L 465.2205 329.830229 
L 465.5925 333.424486 
L 465.9645 333.707949 
L 466.3365 331.9203 
L 466.7085 332.234919 
L 467.4525 338.064658 
L 467.4525 338.064658 
" style="fill:none;stroke:#0000ff;stroke-linecap:square;stroke-width:0.5;"/>
   </g>
   <g id="patch_3">
    <path d="M 54.5325 23.14175 
L 500.9325 23.14175 
" style="fill:none;stroke:#000000;stroke-linecap:square;stroke-linejoin:miter;"/>
   </g>
   <g id="patch_4">
    <path d="M 54.5325 368.74175 
L 500.9325 368.74175 
" style="fill:none;stroke:#000000;stroke-linecap:square;stroke-linejoin:miter;"/>
   </g>
   <g id="patch_5">
    <path d="M 500.9325 368.74175 
L 500.9325 23.14175 
" style="fill:none;stroke:#000000;stroke-linecap:square;stroke-linejoin:miter;"/>
   </g>
   <g id="patch_6">
    <path d="M 54.5325 368.74175 
L 54.5325 23.14175 
" style="fill:none;stroke:#000000;stroke-linecap:square;stroke-linejoin:miter;"/>
   </g>
   <g id="matplotlib.axis_1">
    <g id="xtick_1">
     <g id="line2d_2">
      <defs>
       <path d="M 0 0 
L 0 -4 
" id="ma651c0eee3" style="stroke:#000000;stroke-width:0.5;"/>
      </defs>
      <g>
       <use style="stroke:#000000;stroke-width:0.5;" x="54.5325" xlink:href="#ma651c0eee3" y="368.74175"/>
      </g>
     </g>
     <g id="line2d_3">
      <defs>
       <path d="M 0 0 
L 0 4 
" id="m0b07845916" style="stroke:#000000;stroke-width:0.5;"/>
      </defs>
      <g>
       <use style="stroke:#000000;stroke-width:0.5;" x="54.5325" xlink:href="#m0b07845916" y="23.14175"/>
      </g>
     </g>
     <g id="text_1">
      <!-- 0 -->
      <defs>
       <path d="M 31.78125 66.40625 
Q 24.171875 66.40625 20.328125 58.90625 
Q 16.5 51.421875 16.5 36.375 
Q 16.5 21.390625 20.328125 13.890625 
Q 24.171875 6.390625 31.78125 6.390625 
Q 39.453125 6.390625 43.28125 13.890625 
Q 47.125 21.390625 47.125 36.375 
Q 47.125 51.421875 43.28125 58.90625 
Q 39.453125 66.40625 31.78125 66.40625 
M 31.78125 74.21875 
Q 44.046875 74.21875 50.515625 64.515625 
Q 56.984375 54.828125 56.984375 36.375 
Q 56.984375 17.96875 50.515625 8.265625 
Q 44.046875 -1.421875 31.78125 -1.421875 
Q 19.53125 -1.421875 13.0625 8.265625 
Q 6.59375 17.96875 6.59375 36.375 
Q 6.59375 54.828125 13.0625 64.515625 
Q 19.53125 74.21875 31.78125 74.21875 
" id="BitstreamVeraSans-Roman-30"/>
      </defs>
      <g transform="translate(50.715 381.859875)scale(0.12 -0.12)">
       <use xlink:href="#BitstreamVeraSans-Roman-30"/>
      </g>
     </g>
    </g>
    <g id="xtick_2">
     <g id="line2d_4">
      <g>
       <use style="stroke:#000000;stroke-width:0.5;" x="128.9325" xlink:href="#ma651c0eee3" y="368.74175"/>
      </g>
     </g>
     <g id="line2d_5">
      <g>
       <use style="stroke:#000000;stroke-width:0.5;" x="128.9325" xlink:href="#m0b07845916" y="23.14175"/>
      </g>
     </g>
     <g id="text_2">
      <!-- 200 -->
      <defs>
       <path d="M 19.1875 8.296875 
L 53.609375 8.296875 
L 53.609375 0 
L 7.328125 0 
L 7.328125 8.296875 
Q 12.9375 14.109375 22.625 23.890625 
Q 32.328125 33.6875 34.8125 36.53125 
Q 39.546875 41.84375 41.421875 45.53125 
Q 43.3125 49.21875 43.3125 52.78125 
Q 43.3125 58.59375 39.234375 62.25 
Q 35.15625 65.921875 28.609375 65.921875 
Q 23.96875 65.921875 18.8125 64.3125 
Q 13.671875 62.703125 7.8125 59.421875 
L 7.8125 69.390625 
Q 13.765625 71.78125 18.9375 73 
Q 24.125 74.21875 28.421875 74.21875 
Q 39.75 74.21875 46.484375 68.546875 
Q 53.21875 62.890625 53.21875 53.421875 
Q 53.21875 48.921875 51.53125 44.890625 
Q 49.859375 40.875 45.40625 35.40625 
Q 44.1875 33.984375 37.640625 27.21875 
Q 31.109375 20.453125 19.1875 8.296875 
" id="BitstreamVeraSans-Roman-32"/>
      </defs>
      <g transform="translate(117.48 381.859875)scale(0.12 -0.12)">
       <use xlink:href="#BitstreamVeraSans-Roman-32"/>
       <use x="63.623046875" xlink:href="#BitstreamVeraSans-Roman-30"/>
       <use x="127.24609375" xlink:href="#BitstreamVeraSans-Roman-30"/>
      </g>
     </g>
    </g>
    <g id="xtick_3">
     <g id="line2d_6">
      <g>
       <use style="stroke:#000000;stroke-width:0.5;" x="203.3325" xlink:href="#ma651c0eee3" y="368.74175"/>
      </g>
     </g>
     <g id="line2d_7">
      <g>
       <use style="stroke:#000000;stroke-width:0.5;" x="203.3325" xlink:href="#m0b07845916" y="23.14175"/>
      </g>
     </g>
     <g id="text_3">
      <!-- 400 -->
      <defs>
       <path d="M 37.796875 64.3125 
L 12.890625 25.390625 
L 37.796875 25.390625 
z
M 35.203125 72.90625 
L 47.609375 72.90625 
L 47.609375 25.390625 
L 58.015625 25.390625 
L 58.015625 17.1875 
L 47.609375 17.1875 
L 47.609375 0 
L 37.796875 0 
L 37.796875 17.1875 
L 4.890625 17.1875 
L 4.890625 26.703125 
z
" id="BitstreamVeraSans-Roman-34"/>
      </defs>
      <g transform="translate(191.88 381.859875)scale(0.12 -0.12)">
       <use xlink:href="#BitstreamVeraSans-Roman-34"/>
       <use x="63.623046875" xlink:href="#BitstreamVeraSans-Roman-30"/>
       <use x="127.24609375" xlink:href="#BitstreamVeraSans-Roman-30"/>
      </g>
     </g>
    </g>
    <g id="xtick_4">
     <g id="line2d_8">
      <g>
       <use style="stroke:#000000;stroke-width:0.5;" x="277.7325" xlink:href="#ma651c0eee3" y="368.74175"/>
      </g>
     </g>
     <g id="line2d_9">
      <g>
       <use style="stroke:#000000;stroke-width:0.5;" x="277.7325" xlink:href="#m0b07845916" y="23.14175"/>
      </g>
     </g>
     <g id="text_4">
      <!-- 600 -->
      <defs>
       <path d="M 33.015625 40.375 
Q 26.375 40.375 22.484375 35.828125 
Q 18.609375 31.296875 18.609375 23.390625 
Q 18.609375 15.53125 22.484375 10.953125 
Q 26.375 6.390625 33.015625 6.390625 
Q 39.65625 6.390625 43.53125 10.953125 
Q 47.40625 15.53125 47.40625 23.390625 
Q 47.40625 31.296875 43.53125 35.828125 
Q 39.65625 40.375 33.015625 40.375 
M 52.59375 71.296875 
L 52.59375 62.3125 
Q 48.875 64.0625 45.09375 64.984375 
Q 41.3125 65.921875 37.59375 65.921875 
Q 27.828125 65.921875 22.671875 59.328125 
Q 17.53125 52.734375 16.796875 39.40625 
Q 19.671875 43.65625 24.015625 45.921875 
Q 28.375 48.1875 33.59375 48.1875 
Q 44.578125 48.1875 50.953125 41.515625 
Q 57.328125 34.859375 57.328125 23.390625 
Q 57.328125 12.15625 50.6875 5.359375 
Q 44.046875 -1.421875 33.015625 -1.421875 
Q 20.359375 -1.421875 13.671875 8.265625 
Q 6.984375 17.96875 6.984375 36.375 
Q 6.984375 53.65625 15.1875 63.9375 
Q 23.390625 74.21875 37.203125 74.21875 
Q 40.921875 74.21875 44.703125 73.484375 
Q 48.484375 72.75 52.59375 71.296875 
" id="BitstreamVeraSans-Roman-36"/>
      </defs>
      <g transform="translate(266.28 381.859875)scale(0.12 -0.12)">
       <use xlink:href="#BitstreamVeraSans-Roman-36"/>
       <use x="63.623046875" xlink:href="#BitstreamVeraSans-Roman-30"/>
       <use x="127.24609375" xlink:href="#BitstreamVeraSans-Roman-30"/>
      </g>
     </g>
    </g>
    <g id="xtick_5">
     <g id="line2d_10">
      <g>
       <use style="stroke:#000000;stroke-width:0.5;" x="352.1325" xlink:href="#ma651c0eee3" y="368.74175"/>
      </g>
     </g>
     <g id="line2d_11">
      <g>
       <use style="stroke:#000000;stroke-width:0.5;" x="352.1325" xlink:href="#m0b07845916" y="23.14175"/>
      </g>
     </g>
     <g id="text_5">
      <!-- 800 -->
      <defs>
       <path d="M 31.78125 34.625 
Q 24.75 34.625 20.71875 30.859375 
Q 16.703125 27.09375 16.703125 20.515625 
Q 16.703125 13.921875 20.71875 10.15625 
Q 24.75 6.390625 31.78125 6.390625 
Q 38.8125 6.390625 42.859375 10.171875 
Q 46.921875 13.96875 46.921875 20.515625 
Q 46.921875 27.09375 42.890625 30.859375 
Q 38.875 34.625 31.78125 34.625 
M 21.921875 38.8125 
Q 15.578125 40.375 12.03125 44.71875 
Q 8.5 49.078125 8.5 55.328125 
Q 8.5 64.0625 14.71875 69.140625 
Q 20.953125 74.21875 31.78125 74.21875 
Q 42.671875 74.21875 48.875 69.140625 
Q 55.078125 64.0625 55.078125 55.328125 
Q 55.078125 49.078125 51.53125 44.71875 
Q 48 40.375 41.703125 38.8125 
Q 48.828125 37.15625 52.796875 32.3125 
Q 56.78125 27.484375 56.78125 20.515625 
Q 56.78125 9.90625 50.3125 4.234375 
Q 43.84375 -1.421875 31.78125 -1.421875 
Q 19.734375 -1.421875 13.25 4.234375 
Q 6.78125 9.90625 6.78125 20.515625 
Q 6.78125 27.484375 10.78125 32.3125 
Q 14.796875 37.15625 21.921875 38.8125 
M 18.3125 54.390625 
Q 18.3125 48.734375 21.84375 45.5625 
Q 25.390625 42.390625 31.78125 42.390625 
Q 38.140625 42.390625 41.71875 45.5625 
Q 45.3125 48.734375 45.3125 54.390625 
Q 45.3125 60.0625 41.71875 63.234375 
Q 38.140625 66.40625 31.78125 66.40625 
Q 25.390625 66.40625 21.84375 63.234375 
Q 18.3125 60.0625 18.3125 54.390625 
" id="BitstreamVeraSans-Roman-38"/>
      </defs>
      <g transform="translate(340.68 381.859875)scale(0.12 -0.12)">
       <use xlink:href="#BitstreamVeraSans-Roman-38"/>
       <use x="63.623046875" xlink:href="#BitstreamVeraSans-Roman-30"/>
       <use x="127.24609375" xlink:href="#BitstreamVeraSans-Roman-30"/>
      </g>
     </g>
    </g>
    <g id="xtick_6">
     <g id="line2d_12">
      <g>
       <use style="stroke:#000000;stroke-width:0.5;" x="426.5325" xlink:href="#ma651c0eee3" y="368.74175"/>
      </g>
     </g>
     <g id="line2d_13">
      <g>
       <use style="stroke:#000000;stroke-width:0.5;" x="426.5325" xlink:href="#m0b07845916" y="23.14175"/>
      </g>
     </g>
     <g id="text_6">
      <!-- 1000 -->
      <defs>
       <path d="M 12.40625 8.296875 
L 28.515625 8.296875 
L 28.515625 63.921875 
L 10.984375 60.40625 
L 10.984375 69.390625 
L 28.421875 72.90625 
L 38.28125 72.90625 
L 38.28125 8.296875 
L 54.390625 8.296875 
L 54.390625 0 
L 12.40625 0 
z
" id="BitstreamVeraSans-Roman-31"/>
      </defs>
      <g transform="translate(411.2625 381.859875)scale(0.12 -0.12)">
       <use xlink:href="#BitstreamVeraSans-Roman-31"/>
       <use x="63.623046875" xlink:href="#BitstreamVeraSans-Roman-30"/>
       <use x="127.24609375" xlink:href="#BitstreamVeraSans-Roman-30"/>
       <use x="190.869140625" xlink:href="#BitstreamVeraSans-Roman-30"/>
      </g>
     </g>
    </g>
    <g id="xtick_7">
     <g id="line2d_14">
      <g>
       <use style="stroke:#000000;stroke-width:0.5;" x="500.9325" xlink:href="#ma651c0eee3" y="368.74175"/>
      </g>
     </g>
     <g id="line2d_15">
      <g>
       <use style="stroke:#000000;stroke-width:0.5;" x="500.9325" xlink:href="#m0b07845916" y="23.14175"/>
      </g>
     </g>
     <g id="text_7">
      <!-- 1200 -->
      <g transform="translate(485.6625 381.859875)scale(0.12 -0.12)">
       <use xlink:href="#BitstreamVeraSans-Roman-31"/>
       <use x="63.623046875" xlink:href="#BitstreamVeraSans-Roman-32"/>
       <use x="127.24609375" xlink:href="#BitstreamVeraSans-Roman-30"/>
       <use x="190.869140625" xlink:href="#BitstreamVeraSans-Roman-30"/>
      </g>
     </g>
    </g>
    <g id="text_8">
     <!-- episodes -->
     <defs>
      <path d="M 30.609375 48.390625 
Q 23.390625 48.390625 19.1875 42.75 
Q 14.984375 37.109375 14.984375 27.296875 
Q 14.984375 17.484375 19.15625 11.84375 
Q 23.34375 6.203125 30.609375 6.203125 
Q 37.796875 6.203125 41.984375 11.859375 
Q 46.1875 17.53125 46.1875 27.296875 
Q 46.1875 37.015625 41.984375 42.703125 
Q 37.796875 48.390625 30.609375 48.390625 
M 30.609375 56 
Q 42.328125 56 49.015625 48.375 
Q 55.71875 40.765625 55.71875 27.296875 
Q 55.71875 13.875 49.015625 6.21875 
Q 42.328125 -1.421875 30.609375 -1.421875 
Q 18.84375 -1.421875 12.171875 6.21875 
Q 5.515625 13.875 5.515625 27.296875 
Q 5.515625 40.765625 12.171875 48.375 
Q 18.84375 56 30.609375 56 
" id="BitstreamVeraSans-Roman-6f"/>
      <path d="M 45.40625 46.390625 
L 45.40625 75.984375 
L 54.390625 75.984375 
L 54.390625 0 
L 45.40625 0 
L 45.40625 8.203125 
Q 42.578125 3.328125 38.25 0.953125 
Q 33.9375 -1.421875 27.875 -1.421875 
Q 17.96875 -1.421875 11.734375 6.484375 
Q 5.515625 14.40625 5.515625 27.296875 
Q 5.515625 40.1875 11.734375 48.09375 
Q 17.96875 56 27.875 56 
Q 33.9375 56 38.25 53.625 
Q 42.578125 51.265625 45.40625 46.390625 
M 14.796875 27.296875 
Q 14.796875 17.390625 18.875 11.75 
Q 22.953125 6.109375 30.078125 6.109375 
Q 37.203125 6.109375 41.296875 11.75 
Q 45.40625 17.390625 45.40625 27.296875 
Q 45.40625 37.203125 41.296875 42.84375 
Q 37.203125 48.484375 30.078125 48.484375 
Q 22.953125 48.484375 18.875 42.84375 
Q 14.796875 37.203125 14.796875 27.296875 
" id="BitstreamVeraSans-Roman-64"/>
      <path d="M 18.109375 8.203125 
L 18.109375 -20.796875 
L 9.078125 -20.796875 
L 9.078125 54.6875 
L 18.109375 54.6875 
L 18.109375 46.390625 
Q 20.953125 51.265625 25.265625 53.625 
Q 29.59375 56 35.59375 56 
Q 45.5625 56 51.78125 48.09375 
Q 58.015625 40.1875 58.015625 27.296875 
Q 58.015625 14.40625 51.78125 6.484375 
Q 45.5625 -1.421875 35.59375 -1.421875 
Q 29.59375 -1.421875 25.265625 0.953125 
Q 20.953125 3.328125 18.109375 8.203125 
M 48.6875 27.296875 
Q 48.6875 37.203125 44.609375 42.84375 
Q 40.53125 48.484375 33.40625 48.484375 
Q 26.265625 48.484375 22.1875 42.84375 
Q 18.109375 37.203125 18.109375 27.296875 
Q 18.109375 17.390625 22.1875 11.75 
Q 26.265625 6.109375 33.40625 6.109375 
Q 40.53125 6.109375 44.609375 11.75 
Q 48.6875 17.390625 48.6875 27.296875 
" id="BitstreamVeraSans-Roman-70"/>
      <path d="M 44.28125 53.078125 
L 44.28125 44.578125 
Q 40.484375 46.53125 36.375 47.5 
Q 32.28125 48.484375 27.875 48.484375 
Q 21.1875 48.484375 17.84375 46.4375 
Q 14.5 44.390625 14.5 40.28125 
Q 14.5 37.15625 16.890625 35.375 
Q 19.28125 33.59375 26.515625 31.984375 
L 29.59375 31.296875 
Q 39.15625 29.25 43.1875 25.515625 
Q 47.21875 21.78125 47.21875 15.09375 
Q 47.21875 7.46875 41.1875 3.015625 
Q 35.15625 -1.421875 24.609375 -1.421875 
Q 20.21875 -1.421875 15.453125 -0.5625 
Q 10.6875 0.296875 5.421875 2 
L 5.421875 11.28125 
Q 10.40625 8.6875 15.234375 7.390625 
Q 20.0625 6.109375 24.8125 6.109375 
Q 31.15625 6.109375 34.5625 8.28125 
Q 37.984375 10.453125 37.984375 14.40625 
Q 37.984375 18.0625 35.515625 20.015625 
Q 33.0625 21.96875 24.703125 23.78125 
L 21.578125 24.515625 
Q 13.234375 26.265625 9.515625 29.90625 
Q 5.8125 33.546875 5.8125 39.890625 
Q 5.8125 47.609375 11.28125 51.796875 
Q 16.75 56 26.8125 56 
Q 31.78125 56 36.171875 55.265625 
Q 40.578125 54.546875 44.28125 53.078125 
" id="BitstreamVeraSans-Roman-73"/>
      <path d="M 9.421875 54.6875 
L 18.40625 54.6875 
L 18.40625 0 
L 9.421875 0 
z
M 9.421875 75.984375 
L 18.40625 75.984375 
L 18.40625 64.59375 
L 9.421875 64.59375 
z
" id="BitstreamVeraSans-Roman-69"/>
      <path d="M 56.203125 29.59375 
L 56.203125 25.203125 
L 14.890625 25.203125 
Q 15.484375 15.921875 20.484375 11.0625 
Q 25.484375 6.203125 34.421875 6.203125 
Q 39.59375 6.203125 44.453125 7.46875 
Q 49.3125 8.734375 54.109375 11.28125 
L 54.109375 2.78125 
Q 49.265625 0.734375 44.1875 -0.34375 
Q 39.109375 -1.421875 33.890625 -1.421875 
Q 20.796875 -1.421875 13.15625 6.1875 
Q 5.515625 13.8125 5.515625 26.8125 
Q 5.515625 40.234375 12.765625 48.109375 
Q 20.015625 56 32.328125 56 
Q 43.359375 56 49.78125 48.890625 
Q 56.203125 41.796875 56.203125 29.59375 
M 47.21875 32.234375 
Q 47.125 39.59375 43.09375 43.984375 
Q 39.0625 48.390625 32.421875 48.390625 
Q 24.90625 48.390625 20.390625 44.140625 
Q 15.875 39.890625 15.1875 32.171875 
z
" id="BitstreamVeraSans-Roman-65"/>
     </defs>
     <g transform="translate(251.14125 398.473625)scale(0.12 -0.12)">
      <use xlink:href="#BitstreamVeraSans-Roman-65"/>
      <use x="61.5234375" xlink:href="#BitstreamVeraSans-Roman-70"/>
      <use x="125.0" xlink:href="#BitstreamVeraSans-Roman-69"/>
      <use x="152.783203125" xlink:href="#BitstreamVeraSans-Roman-73"/>
      <use x="204.8828125" xlink:href="#BitstreamVeraSans-Roman-6f"/>
      <use x="266.064453125" xlink:href="#BitstreamVeraSans-Roman-64"/>
      <use x="329.541015625" xlink:href="#BitstreamVeraSans-Roman-65"/>
      <use x="391.064453125" xlink:href="#BitstreamVeraSans-Roman-73"/>
     </g>
    </g>
   </g>
   <g id="matplotlib.axis_2">
    <g id="ytick_1">
     <g id="line2d_16">
      <defs>
       <path d="M 0 0 
L 4 0 
" id="m62a9c18f4c" style="stroke:#000000;stroke-width:0.5;"/>
      </defs>
      <g>
       <use style="stroke:#000000;stroke-width:0.5;" x="54.5325" xlink:href="#m62a9c18f4c" y="368.74175"/>
      </g>
     </g>
     <g id="line2d_17">
      <defs>
       <path d="M 0 0 
L -4 0 
" id="mde97209ff5" style="stroke:#000000;stroke-width:0.5;"/>
      </defs>
      <g>
       <use style="stroke:#000000;stroke-width:0.5;" x="500.9325" xlink:href="#mde97209ff5" y="368.74175"/>
      </g>
     </g>
     <g id="text_9">
      <!-- 0.00 -->
      <defs>
       <path d="M 10.6875 12.40625 
L 21 12.40625 
L 21 0 
L 10.6875 0 
z
" id="BitstreamVeraSans-Roman-2e"/>
      </defs>
      <g transform="translate(23.81375 372.053)scale(0.12 -0.12)">
       <use xlink:href="#BitstreamVeraSans-Roman-30"/>
       <use x="63.623046875" xlink:href="#BitstreamVeraSans-Roman-2e"/>
       <use x="95.41015625" xlink:href="#BitstreamVeraSans-Roman-30"/>
       <use x="159.033203125" xlink:href="#BitstreamVeraSans-Roman-30"/>
      </g>
     </g>
    </g>
    <g id="ytick_2">
     <g id="line2d_18">
      <g>
       <use style="stroke:#000000;stroke-width:0.5;" x="54.5325" xlink:href="#m62a9c18f4c" y="282.34175"/>
      </g>
     </g>
     <g id="line2d_19">
      <g>
       <use style="stroke:#000000;stroke-width:0.5;" x="500.9325" xlink:href="#mde97209ff5" y="282.34175"/>
      </g>
     </g>
     <g id="text_10">
      <!-- 0.05 -->
      <defs>
       <path d="M 10.796875 72.90625 
L 49.515625 72.90625 
L 49.515625 64.59375 
L 19.828125 64.59375 
L 19.828125 46.734375 
Q 21.96875 47.46875 24.109375 47.828125 
Q 26.265625 48.1875 28.421875 48.1875 
Q 40.625 48.1875 47.75 41.5 
Q 54.890625 34.8125 54.890625 23.390625 
Q 54.890625 11.625 47.5625 5.09375 
Q 40.234375 -1.421875 26.90625 -1.421875 
Q 22.3125 -1.421875 17.546875 -0.640625 
Q 12.796875 0.140625 7.71875 1.703125 
L 7.71875 11.625 
Q 12.109375 9.234375 16.796875 8.0625 
Q 21.484375 6.890625 26.703125 6.890625 
Q 35.15625 6.890625 40.078125 11.328125 
Q 45.015625 15.765625 45.015625 23.390625 
Q 45.015625 31 40.078125 35.4375 
Q 35.15625 39.890625 26.703125 39.890625 
Q 22.75 39.890625 18.8125 39.015625 
Q 14.890625 38.140625 10.796875 36.28125 
z
" id="BitstreamVeraSans-Roman-35"/>
      </defs>
      <g transform="translate(23.81375 285.653)scale(0.12 -0.12)">
       <use xlink:href="#BitstreamVeraSans-Roman-30"/>
       <use x="63.623046875" xlink:href="#BitstreamVeraSans-Roman-2e"/>
       <use x="95.41015625" xlink:href="#BitstreamVeraSans-Roman-30"/>
       <use x="159.033203125" xlink:href="#BitstreamVeraSans-Roman-35"/>
      </g>
     </g>
    </g>
    <g id="ytick_3">
     <g id="line2d_20">
      <g>
       <use style="stroke:#000000;stroke-width:0.5;" x="54.5325" xlink:href="#m62a9c18f4c" y="195.94175"/>
      </g>
     </g>
     <g id="line2d_21">
      <g>
       <use style="stroke:#000000;stroke-width:0.5;" x="500.9325" xlink:href="#mde97209ff5" y="195.94175"/>
      </g>
     </g>
     <g id="text_11">
      <!-- 0.10 -->
      <g transform="translate(23.81375 199.253)scale(0.12 -0.12)">
       <use xlink:href="#BitstreamVeraSans-Roman-30"/>
       <use x="63.623046875" xlink:href="#BitstreamVeraSans-Roman-2e"/>
       <use x="95.41015625" xlink:href="#BitstreamVeraSans-Roman-31"/>
       <use x="159.033203125" xlink:href="#BitstreamVeraSans-Roman-30"/>
      </g>
     </g>
    </g>
    <g id="ytick_4">
     <g id="line2d_22">
      <g>
       <use style="stroke:#000000;stroke-width:0.5;" x="54.5325" xlink:href="#m62a9c18f4c" y="109.54175"/>
      </g>
     </g>
     <g id="line2d_23">
      <g>
       <use style="stroke:#000000;stroke-width:0.5;" x="500.9325" xlink:href="#mde97209ff5" y="109.54175"/>
      </g>
     </g>
     <g id="text_12">
      <!-- 0.15 -->
      <g transform="translate(23.81375 112.853)scale(0.12 -0.12)">
       <use xlink:href="#BitstreamVeraSans-Roman-30"/>
       <use x="63.623046875" xlink:href="#BitstreamVeraSans-Roman-2e"/>
       <use x="95.41015625" xlink:href="#BitstreamVeraSans-Roman-31"/>
       <use x="159.033203125" xlink:href="#BitstreamVeraSans-Roman-35"/>
      </g>
     </g>
    </g>
    <g id="ytick_5">
     <g id="line2d_24">
      <g>
       <use style="stroke:#000000;stroke-width:0.5;" x="54.5325" xlink:href="#m62a9c18f4c" y="23.14175"/>
      </g>
     </g>
     <g id="line2d_25">
      <g>
       <use style="stroke:#000000;stroke-width:0.5;" x="500.9325" xlink:href="#mde97209ff5" y="23.14175"/>
      </g>
     </g>
     <g id="text_13">
      <!-- 0.20 -->
      <g transform="translate(23.81375 26.453)scale(0.12 -0.12)">
       <use xlink:href="#BitstreamVeraSans-Roman-30"/>
       <use x="63.623046875" xlink:href="#BitstreamVeraSans-Roman-2e"/>
       <use x="95.41015625" xlink:href="#BitstreamVeraSans-Roman-32"/>
       <use x="159.033203125" xlink:href="#BitstreamVeraSans-Roman-30"/>
      </g>
     </g>
    </g>
    <g id="text_14">
     <!-- average maxQ -->
     <defs>
      <path d="M 45.40625 27.984375 
Q 45.40625 37.75 41.375 43.109375 
Q 37.359375 48.484375 30.078125 48.484375 
Q 22.859375 48.484375 18.828125 43.109375 
Q 14.796875 37.75 14.796875 27.984375 
Q 14.796875 18.265625 18.828125 12.890625 
Q 22.859375 7.515625 30.078125 7.515625 
Q 37.359375 7.515625 41.375 12.890625 
Q 45.40625 18.265625 45.40625 27.984375 
M 54.390625 6.78125 
Q 54.390625 -7.171875 48.1875 -13.984375 
Q 42 -20.796875 29.203125 -20.796875 
Q 24.46875 -20.796875 20.265625 -20.09375 
Q 16.0625 -19.390625 12.109375 -17.921875 
L 12.109375 -9.1875 
Q 16.0625 -11.328125 19.921875 -12.34375 
Q 23.78125 -13.375 27.78125 -13.375 
Q 36.625 -13.375 41.015625 -8.765625 
Q 45.40625 -4.15625 45.40625 5.171875 
L 45.40625 9.625 
Q 42.625 4.78125 38.28125 2.390625 
Q 33.9375 0 27.875 0 
Q 17.828125 0 11.671875 7.65625 
Q 5.515625 15.328125 5.515625 27.984375 
Q 5.515625 40.671875 11.671875 48.328125 
Q 17.828125 56 27.875 56 
Q 33.9375 56 38.28125 53.609375 
Q 42.625 51.21875 45.40625 46.390625 
L 45.40625 54.6875 
L 54.390625 54.6875 
z
" id="BitstreamVeraSans-Roman-67"/>
      <path d="M 52 44.1875 
Q 55.375 50.25 60.0625 53.125 
Q 64.75 56 71.09375 56 
Q 79.640625 56 84.28125 50.015625 
Q 88.921875 44.046875 88.921875 33.015625 
L 88.921875 0 
L 79.890625 0 
L 79.890625 32.71875 
Q 79.890625 40.578125 77.09375 44.375 
Q 74.3125 48.1875 68.609375 48.1875 
Q 61.625 48.1875 57.5625 43.546875 
Q 53.515625 38.921875 53.515625 30.90625 
L 53.515625 0 
L 44.484375 0 
L 44.484375 32.71875 
Q 44.484375 40.625 41.703125 44.40625 
Q 38.921875 48.1875 33.109375 48.1875 
Q 26.21875 48.1875 22.15625 43.53125 
Q 18.109375 38.875 18.109375 30.90625 
L 18.109375 0 
L 9.078125 0 
L 9.078125 54.6875 
L 18.109375 54.6875 
L 18.109375 46.1875 
Q 21.1875 51.21875 25.484375 53.609375 
Q 29.78125 56 35.6875 56 
Q 41.65625 56 45.828125 52.96875 
Q 50 49.953125 52 44.1875 
" id="BitstreamVeraSans-Roman-6d"/>
      <path d="M 2.984375 54.6875 
L 12.5 54.6875 
L 29.59375 8.796875 
L 46.6875 54.6875 
L 56.203125 54.6875 
L 35.6875 0 
L 23.484375 0 
z
" id="BitstreamVeraSans-Roman-76"/>
      <path d="M 39.40625 66.21875 
Q 28.65625 66.21875 22.328125 58.203125 
Q 16.015625 50.203125 16.015625 36.375 
Q 16.015625 22.609375 22.328125 14.59375 
Q 28.65625 6.59375 39.40625 6.59375 
Q 50.140625 6.59375 56.421875 14.59375 
Q 62.703125 22.609375 62.703125 36.375 
Q 62.703125 50.203125 56.421875 58.203125 
Q 50.140625 66.21875 39.40625 66.21875 
M 53.21875 1.3125 
L 66.21875 -12.890625 
L 54.296875 -12.890625 
L 43.5 -1.21875 
Q 41.890625 -1.3125 41.03125 -1.359375 
Q 40.1875 -1.421875 39.40625 -1.421875 
Q 24.03125 -1.421875 14.8125 8.859375 
Q 5.609375 19.140625 5.609375 36.375 
Q 5.609375 53.65625 14.8125 63.9375 
Q 24.03125 74.21875 39.40625 74.21875 
Q 54.734375 74.21875 63.90625 63.9375 
Q 73.09375 53.65625 73.09375 36.375 
Q 73.09375 23.6875 67.984375 14.640625 
Q 62.890625 5.609375 53.21875 1.3125 
" id="BitstreamVeraSans-Roman-51"/>
      <path id="BitstreamVeraSans-Roman-20"/>
      <path d="M 41.109375 46.296875 
Q 39.59375 47.171875 37.8125 47.578125 
Q 36.03125 48 33.890625 48 
Q 26.265625 48 22.1875 43.046875 
Q 18.109375 38.09375 18.109375 28.8125 
L 18.109375 0 
L 9.078125 0 
L 9.078125 54.6875 
L 18.109375 54.6875 
L 18.109375 46.1875 
Q 20.953125 51.171875 25.484375 53.578125 
Q 30.03125 56 36.53125 56 
Q 37.453125 56 38.578125 55.875 
Q 39.703125 55.765625 41.0625 55.515625 
z
" id="BitstreamVeraSans-Roman-72"/>
      <path d="M 54.890625 54.6875 
L 35.109375 28.078125 
L 55.90625 0 
L 45.3125 0 
L 29.390625 21.484375 
L 13.484375 0 
L 2.875 0 
L 24.125 28.609375 
L 4.6875 54.6875 
L 15.28125 54.6875 
L 29.78125 35.203125 
L 44.28125 54.6875 
z
" id="BitstreamVeraSans-Roman-78"/>
      <path d="M 34.28125 27.484375 
Q 23.390625 27.484375 19.1875 25 
Q 14.984375 22.515625 14.984375 16.5 
Q 14.984375 11.71875 18.140625 8.90625 
Q 21.296875 6.109375 26.703125 6.109375 
Q 34.1875 6.109375 38.703125 11.40625 
Q 43.21875 16.703125 43.21875 25.484375 
L 43.21875 27.484375 
z
M 52.203125 31.203125 
L 52.203125 0 
L 43.21875 0 
L 43.21875 8.296875 
Q 40.140625 3.328125 35.546875 0.953125 
Q 30.953125 -1.421875 24.3125 -1.421875 
Q 15.921875 -1.421875 10.953125 3.296875 
Q 6 8.015625 6 15.921875 
Q 6 25.140625 12.171875 29.828125 
Q 18.359375 34.515625 30.609375 34.515625 
L 43.21875 34.515625 
L 43.21875 35.40625 
Q 43.21875 41.609375 39.140625 45 
Q 35.0625 48.390625 27.6875 48.390625 
Q 23 48.390625 18.546875 47.265625 
Q 14.109375 46.140625 10.015625 43.890625 
L 10.015625 52.203125 
Q 14.9375 54.109375 19.578125 55.046875 
Q 24.21875 56 28.609375 56 
Q 40.484375 56 46.34375 49.84375 
Q 52.203125 43.703125 52.203125 31.203125 
" id="BitstreamVeraSans-Roman-61"/>
     </defs>
     <g transform="translate(16.318125 240.208625)rotate(-90.0)scale(0.12 -0.12)">
      <use xlink:href="#BitstreamVeraSans-Roman-61"/>
      <use x="61.279296875" xlink:href="#BitstreamVeraSans-Roman-76"/>
      <use x="120.458984375" xlink:href="#BitstreamVeraSans-Roman-65"/>
      <use x="181.982421875" xlink:href="#BitstreamVeraSans-Roman-72"/>
      <use x="223.095703125" xlink:href="#BitstreamVeraSans-Roman-61"/>
      <use x="284.375" xlink:href="#BitstreamVeraSans-Roman-67"/>
      <use x="347.8515625" xlink:href="#BitstreamVeraSans-Roman-65"/>
      <use x="409.375" xlink:href="#BitstreamVeraSans-Roman-20"/>
      <use x="441.162109375" xlink:href="#BitstreamVeraSans-Roman-6d"/>
      <use x="538.57421875" xlink:href="#BitstreamVeraSans-Roman-61"/>
      <use x="599.853515625" xlink:href="#BitstreamVeraSans-Roman-78"/>
      <use x="659.033203125" xlink:href="#BitstreamVeraSans-Roman-51"/>
     </g>
    </g>
   </g>
   <g id="text_15">
    <!-- Average maxQ per episode, joint3 -->
    <defs>
     <path d="M 54.890625 33.015625 
L 54.890625 0 
L 45.90625 0 
L 45.90625 32.71875 
Q 45.90625 40.484375 42.875 44.328125 
Q 39.84375 48.1875 33.796875 48.1875 
Q 26.515625 48.1875 22.3125 43.546875 
Q 18.109375 38.921875 18.109375 30.90625 
L 18.109375 0 
L 9.078125 0 
L 9.078125 54.6875 
L 18.109375 54.6875 
L 18.109375 46.1875 
Q 21.34375 51.125 25.703125 53.5625 
Q 30.078125 56 35.796875 56 
Q 45.21875 56 50.046875 50.171875 
Q 54.890625 44.34375 54.890625 33.015625 
" id="BitstreamVeraSans-Roman-6e"/>
     <path d="M 18.3125 70.21875 
L 18.3125 54.6875 
L 36.8125 54.6875 
L 36.8125 47.703125 
L 18.3125 47.703125 
L 18.3125 18.015625 
Q 18.3125 11.328125 20.140625 9.421875 
Q 21.96875 7.515625 27.59375 7.515625 
L 36.8125 7.515625 
L 36.8125 0 
L 27.59375 0 
Q 17.1875 0 13.234375 3.875 
Q 9.28125 7.765625 9.28125 18.015625 
L 9.28125 47.703125 
L 2.6875 47.703125 
L 2.6875 54.6875 
L 9.28125 54.6875 
L 9.28125 70.21875 
z
" id="BitstreamVeraSans-Roman-74"/>
     <path d="M 9.421875 54.6875 
L 18.40625 54.6875 
L 18.40625 -0.984375 
Q 18.40625 -11.421875 14.421875 -16.109375 
Q 10.453125 -20.796875 1.609375 -20.796875 
L -1.8125 -20.796875 
L -1.8125 -13.1875 
L 0.59375 -13.1875 
Q 5.71875 -13.1875 7.5625 -10.8125 
Q 9.421875 -8.453125 9.421875 -0.984375 
z
M 9.421875 75.984375 
L 18.40625 75.984375 
L 18.40625 64.59375 
L 9.421875 64.59375 
z
" id="BitstreamVeraSans-Roman-6a"/>
     <path d="M 34.1875 63.1875 
L 20.796875 26.90625 
L 47.609375 26.90625 
z
M 28.609375 72.90625 
L 39.796875 72.90625 
L 67.578125 0 
L 57.328125 0 
L 50.6875 18.703125 
L 17.828125 18.703125 
L 11.1875 0 
L 0.78125 0 
z
" id="BitstreamVeraSans-Roman-41"/>
     <path d="M 11.71875 12.40625 
L 22.015625 12.40625 
L 22.015625 4 
L 14.015625 -11.625 
L 7.71875 -11.625 
L 11.71875 4 
z
" id="BitstreamVeraSans-Roman-2c"/>
     <path d="M 40.578125 39.3125 
Q 47.65625 37.796875 51.625 33 
Q 55.609375 28.21875 55.609375 21.1875 
Q 55.609375 10.40625 48.1875 4.484375 
Q 40.765625 -1.421875 27.09375 -1.421875 
Q 22.515625 -1.421875 17.65625 -0.515625 
Q 12.796875 0.390625 7.625 2.203125 
L 7.625 11.71875 
Q 11.71875 9.328125 16.59375 8.109375 
Q 21.484375 6.890625 26.8125 6.890625 
Q 36.078125 6.890625 40.9375 10.546875 
Q 45.796875 14.203125 45.796875 21.1875 
Q 45.796875 27.640625 41.28125 31.265625 
Q 36.765625 34.90625 28.71875 34.90625 
L 20.21875 34.90625 
L 20.21875 43.015625 
L 29.109375 43.015625 
Q 36.375 43.015625 40.234375 45.921875 
Q 44.09375 48.828125 44.09375 54.296875 
Q 44.09375 59.90625 40.109375 62.90625 
Q 36.140625 65.921875 28.71875 65.921875 
Q 24.65625 65.921875 20.015625 65.03125 
Q 15.375 64.15625 9.8125 62.3125 
L 9.8125 71.09375 
Q 15.4375 72.65625 20.34375 73.4375 
Q 25.25 74.21875 29.59375 74.21875 
Q 40.828125 74.21875 47.359375 69.109375 
Q 53.90625 64.015625 53.90625 55.328125 
Q 53.90625 49.265625 50.4375 45.09375 
Q 46.96875 40.921875 40.578125 39.3125 
" id="BitstreamVeraSans-Roman-33"/>
    </defs>
    <g transform="translate(154.4595 18.14175)scale(0.144 -0.144)">
     <use xlink:href="#BitstreamVeraSans-Roman-41"/>
     <use x="68.330078125" xlink:href="#BitstreamVeraSans-Roman-76"/>
     <use x="127.509765625" xlink:href="#BitstreamVeraSans-Roman-65"/>
     <use x="189.033203125" xlink:href="#BitstreamVeraSans-Roman-72"/>
     <use x="230.146484375" xlink:href="#BitstreamVeraSans-Roman-61"/>
     <use x="291.42578125" xlink:href="#BitstreamVeraSans-Roman-67"/>
     <use x="354.90234375" xlink:href="#BitstreamVeraSans-Roman-65"/>
     <use x="416.42578125" xlink:href="#BitstreamVeraSans-Roman-20"/>
     <use x="448.212890625" xlink:href="#BitstreamVeraSans-Roman-6d"/>
     <use x="545.625" xlink:href="#BitstreamVeraSans-Roman-61"/>
     <use x="606.904296875" xlink:href="#BitstreamVeraSans-Roman-78"/>
     <use x="666.083984375" xlink:href="#BitstreamVeraSans-Roman-51"/>
     <use x="744.794921875" xlink:href="#BitstreamVeraSans-Roman-20"/>
     <use x="776.58203125" xlink:href="#BitstreamVeraSans-Roman-70"/>
     <use x="840.05859375" xlink:href="#BitstreamVeraSans-Roman-65"/>
     <use x="901.58203125" xlink:href="#BitstreamVeraSans-Roman-72"/>
     <use x="942.6953125" xlink:href="#BitstreamVeraSans-Roman-20"/>
     <use x="974.482421875" xlink:href="#BitstreamVeraSans-Roman-65"/>
     <use x="1036.005859375" xlink:href="#BitstreamVeraSans-Roman-70"/>
     <use x="1099.482421875" xlink:href="#BitstreamVeraSans-Roman-69"/>
     <use x="1127.265625" xlink:href="#BitstreamVeraSans-Roman-73"/>
     <use x="1179.365234375" xlink:href="#BitstreamVeraSans-Roman-6f"/>
     <use x="1240.546875" xlink:href="#BitstreamVeraSans-Roman-64"/>
     <use x="1304.0234375" xlink:href="#BitstreamVeraSans-Roman-65"/>
     <use x="1365.546875" xlink:href="#BitstreamVeraSans-Roman-2c"/>
     <use x="1397.333984375" xlink:href="#BitstreamVeraSans-Roman-20"/>
     <use x="1429.12109375" xlink:href="#BitstreamVeraSans-Roman-6a"/>
     <use x="1456.904296875" xlink:href="#BitstreamVeraSans-Roman-6f"/>
     <use x="1518.0859375" xlink:href="#BitstreamVeraSans-Roman-69"/>
     <use x="1545.869140625" xlink:href="#BitstreamVeraSans-Roman-6e"/>
     <use x="1609.248046875" xlink:href="#BitstreamVeraSans-Roman-74"/>
     <use x="1648.45703125" xlink:href="#BitstreamVeraSans-Roman-33"/>
    </g>
   </g>
  </g>
 </g>
 <defs>
  <clipPath id="p7aff5dd1d2">
   <rect height="345.6" width="446.4" x="54.5325" y="23.14175"/>
  </clipPath>
 </defs>
</svg>
