<?xml version="1.0" encoding="utf-8" standalone="no"?>
<!DOCTYPE svg PUBLIC "-//W3C//DTD SVG 1.1//EN"
  "http://www.w3.org/Graphics/SVG/1.1/DTD/svg11.dtd">
<!-- Created with matplotlib (http://matplotlib.org/) -->
<svg height="408pt" version="1.1" viewBox="0 0 508 408" width="508pt" xmlns="http://www.w3.org/2000/svg" xmlns:xlink="http://www.w3.org/1999/xlink">
 <defs>
  <style type="text/css">
*{stroke-linecap:butt;stroke-linejoin:round;stroke-miterlimit:100000;}
  </style>
 </defs>
 <g id="figure_1">
  <g id="patch_1">
   <path d="M 0 408.16925 
L 508.13625 408.16925 
L 508.13625 0 
L 0 0 
z
" style="fill:#ffffff;"/>
  </g>
  <g id="axes_1">
   <g id="patch_2">
    <path d="M 43.08375 368.74175 
L 489.48375 368.74175 
L 489.48375 23.14175 
L 43.08375 23.14175 
z
" style="fill:#ffffff;"/>
   </g>
   <g id="line2d_1">
    <path clip-path="url(#p8323a1cf6d)" d="M 43.82775 354.466472 
L 44.57175 320.186701 
L 45.31575 357.484187 
L 46.05975 333.987931 
L 46.80375 359.382199 
L 47.54775 350.857708 
L 48.29175 353.517421 
L 49.77975 303.126718 
L 50.52375 349.790354 
L 51.26775 353.719002 
L 52.75575 295.532315 
L 53.49975 351.772373 
L 54.24375 349.880416 
L 54.98775 361.158382 
L 55.73175 362.048334 
L 56.47575 339.526853 
L 57.21975 354.100317 
L 57.96375 362.606076 
L 58.70775 357.811139 
L 59.45175 303.299401 
L 60.19575 259.388387 
L 60.93975 326.576116 
L 61.68375 360.626084 
L 62.42775 347.2535 
L 63.17175 348.168411 
L 63.91575 360.81826 
L 64.65975 319.147703 
L 65.40375 360.173634 
L 66.14775 356.482795 
L 66.89175 359.58423 
L 67.63575 361.697209 
L 68.37975 358.133088 
L 69.12375 337.983423 
L 69.86775 291.571744 
L 70.61175 336.24788 
L 71.35575 354.145751 
L 72.09975 351.417232 
L 72.84375 357.649686 
L 73.58775 359.802733 
L 74.33175 338.410943 
L 75.07575 355.322694 
L 75.81975 312.594557 
L 76.56375 363.433434 
L 77.30775 321.755087 
L 78.05175 355.19017 
L 78.79575 348.705043 
L 79.53975 344.344517 
L 80.28375 347.894392 
L 81.02775 356.208153 
L 81.77175 344.708831 
L 83.25975 348.743146 
L 84.00375 328.29967 
L 84.74775 345.940961 
L 85.49175 332.016147 
L 86.23575 363.289691 
L 87.72375 294.468376 
L 88.46775 336.51783 
L 89.21175 336.330538 
L 89.95575 327.005394 
L 91.44375 335.952546 
L 92.18775 361.659392 
L 93.67575 350.591596 
L 94.41975 358.939297 
L 95.16375 348.953085 
L 95.90775 361.190794 
L 96.65175 350.828026 
L 97.39575 317.361998 
L 98.13975 333.379411 
L 98.88375 320.453408 
L 99.62775 303.401325 
L 100.37175 363.426896 
L 101.11575 347.369614 
L 101.85975 277.363918 
L 102.60375 361.374805 
L 103.34775 356.196971 
L 104.83575 313.227878 
L 105.57975 353.40458 
L 106.32375 301.498748 
L 107.06775 346.398348 
L 107.81175 350.750267 
L 108.55575 357.568906 
L 109.29975 306.254541 
L 110.04375 321.629814 
L 110.78775 352.282711 
L 111.53175 334.157068 
L 112.27575 360.058653 
L 113.01975 309.695141 
L 113.76375 349.294785 
L 114.50775 352.48458 
L 115.25175 361.93674 
L 115.99575 358.206351 
L 116.73975 357.020662 
L 117.48375 314.589304 
L 118.22775 348.113166 
L 118.97175 310.609044 
L 119.71575 358.664217 
L 120.45975 352.912929 
L 121.20375 317.387637 
L 121.94775 355.149582 
L 122.69175 347.852798 
L 123.43575 358.777856 
L 124.17975 355.353199 
L 124.92375 349.609397 
L 126.41175 323.911575 
L 127.15575 345.34566 
L 127.89975 354.471006 
L 128.64375 288.552642 
L 129.38775 358.055959 
L 130.13175 360.107795 
L 130.87575 276.446762 
L 131.61975 357.163931 
L 132.36375 346.846898 
L 133.10775 350.231869 
L 133.85175 335.937427 
L 134.59575 358.624305 
L 135.33975 341.492335 
L 136.08375 315.249312 
L 137.57175 361.061865 
L 138.31575 353.668993 
L 139.05975 361.508281 
L 139.80375 355.882849 
L 140.54775 323.639061 
L 141.29175 359.135612 
L 142.03575 337.168825 
L 142.77975 349.835149 
L 143.52375 346.861226 
L 144.26775 313.285364 
L 145.01175 333.220707 
L 145.75575 335.121848 
L 146.49975 364.105409 
L 147.24375 305.443647 
L 147.98775 337.306505 
L 148.73175 308.278804 
L 149.47575 354.267427 
L 150.21975 355.022977 
L 150.96375 325.570514 
L 151.70775 351.968868 
L 152.45175 304.061858 
L 153.19575 361.796038 
L 153.93975 343.757324 
L 154.68375 359.379385 
L 155.42775 358.330331 
L 156.17175 361.249665 
L 156.91575 352.405325 
L 157.65975 353.754031 
L 158.40375 361.314525 
L 159.14775 358.576342 
L 159.89175 360.441851 
L 160.63575 344.93894 
L 161.37975 322.66515 
L 162.12375 354.506706 
L 162.86775 344.652457 
L 163.61175 352.799975 
L 164.35575 327.567787 
L 165.09975 325.035944 
L 165.84375 350.479613 
L 166.58775 352.562405 
L 167.33175 356.113692 
L 168.07575 325.446686 
L 168.81975 346.629004 
L 169.56375 326.037062 
L 170.30775 342.273065 
L 171.05175 304.916021 
L 171.79575 304.142482 
L 172.53975 311.881524 
L 173.28375 340.618794 
L 174.02775 355.004123 
L 174.77175 363.545813 
L 175.51575 363.779903 
L 176.25975 354.262557 
L 177.00375 353.904756 
L 177.74775 336.099491 
L 178.49175 334.940314 
L 179.23575 366.086889 
L 179.97975 351.541312 
L 180.72375 340.892593 
L 181.46775 328.477002 
L 182.21175 361.939478 
L 182.95575 347.094433 
L 183.69975 291.850249 
L 184.44375 271.87483 
L 185.18775 336.143618 
L 185.93175 361.342088 
L 186.67575 337.82667 
L 187.41975 335.635582 
L 188.16375 364.066544 
L 188.90775 354.476231 
L 189.65175 308.879522 
L 190.39575 365.728865 
L 191.13975 358.527884 
L 191.88375 362.127128 
L 192.62775 350.231122 
L 193.37175 313.868883 
L 194.11575 341.470069 
L 194.85975 346.79704 
L 195.60375 332.173701 
L 196.34775 362.044202 
L 197.09175 361.037766 
L 197.83575 353.958193 
L 198.57975 340.195435 
L 199.32375 337.490258 
L 200.06775 364.072524 
L 200.81175 359.670655 
L 201.55575 339.34688 
L 202.29975 353.780467 
L 203.04375 345.801944 
L 203.78775 341.989813 
L 204.53175 355.041073 
L 205.27575 359.097312 
L 206.01975 349.059501 
L 207.50775 357.500631 
L 208.25175 329.182782 
L 208.99575 281.915801 
L 209.73975 346.144182 
L 210.48375 350.156192 
L 211.22775 325.605491 
L 211.97175 336.633355 
L 212.71575 354.261566 
L 213.45975 359.195518 
L 214.20375 347.761472 
L 214.94775 338.429451 
L 215.69175 341.16604 
L 216.43575 362.36786 
L 217.17975 350.89376 
L 217.92375 361.994453 
L 218.66775 360.171874 
L 219.41175 355.695312 
L 220.15575 344.263849 
L 220.89975 355.170966 
L 221.64375 349.420984 
L 222.38775 331.676787 
L 223.13175 349.656827 
L 223.87575 329.57041 
L 224.61975 352.923241 
L 225.36375 349.011623 
L 226.10775 328.846117 
L 226.85175 354.126003 
L 227.59575 345.19588 
L 228.33975 350.847656 
L 229.08375 351.634721 
L 229.82775 328.203711 
L 230.57175 344.319404 
L 231.31575 350.474546 
L 232.05975 350.725545 
L 232.80375 280.626226 
L 233.54775 287.975064 
L 234.29175 354.546212 
L 235.03575 352.722128 
L 236.52375 249.92347 
L 237.26775 309.599621 
L 238.01175 311.84524 
L 238.75575 247.693594 
L 239.49975 313.678286 
L 240.24375 283.793894 
L 240.98775 195.422222 
L 241.73175 250.260843 
L 242.47575 231.945863 
L 243.21975 237.716719 
L 243.96375 209.826605 
L 244.70775 237.13188 
L 245.45175 180.163263 
L 246.19575 186.028267 
L 246.93975 284.102119 
L 247.68375 202.101589 
L 248.42775 162.176396 
L 249.17175 194.999043 
L 249.91575 179.469413 
L 250.65975 221.056293 
L 251.40375 203.92283 
L 252.14775 269.671295 
L 252.89175 234.55186 
L 253.63575 270.648165 
L 254.37975 161.513225 
L 255.12375 166.490792 
L 255.86775 164.516666 
L 256.61175 214.836642 
L 257.35575 175.797148 
L 258.09975 240.786042 
L 258.84375 202.972526 
L 260.33175 168.023409 
L 261.07575 189.853526 
L 261.81975 142.205348 
L 262.56375 185.071613 
L 263.30775 201.581326 
L 264.05175 228.263063 
L 264.79575 155.020425 
L 265.53975 159.017674 
L 266.28375 135.707466 
L 267.02775 144.114072 
L 267.77175 133.577775 
L 268.51575 145.778033 
L 269.25975 190.062453 
L 270.00375 155.67281 
L 270.74775 168.900946 
L 271.49175 114.05385 
L 272.23575 189.71282 
L 272.97975 211.282602 
L 273.72375 156.588518 
L 274.46775 125.602457 
L 275.21175 141.358695 
L 275.95575 136.325858 
L 276.69975 123.926755 
L 277.44375 97.232077 
L 278.18775 195.866632 
L 278.93175 180.974222 
L 279.67575 216.773881 
L 280.41975 259.653134 
L 281.16375 196.597139 
L 281.90775 162.559122 
L 282.65175 115.570024 
L 283.39575 114.86982 
L 284.13975 103.091611 
L 284.88375 114.650806 
L 285.62775 111.286332 
L 286.37175 106.530119 
L 287.11575 118.932579 
L 287.85975 138.397033 
L 288.60375 138.88515 
L 289.34775 168.128477 
L 290.09175 186.322066 
L 290.83575 164.121634 
L 291.57975 131.815319 
L 292.32375 122.47771 
L 293.06775 187.622713 
L 293.81175 238.108903 
L 294.55575 130.548815 
L 295.29975 124.064366 
L 296.04375 107.627563 
L 296.78775 173.424991 
L 297.53175 145.383508 
L 298.27575 130.282904 
L 299.01975 132.585081 
L 299.76375 99.030354 
L 300.50775 146.54511 
L 301.25175 134.727026 
L 301.99575 130.791978 
L 302.73975 204.80385 
L 303.48375 151.208847 
L 304.22775 121.112031 
L 304.97175 140.097277 
L 305.71575 203.119681 
L 306.45975 168.000393 
L 307.20375 157.290789 
L 307.94775 150.381309 
L 308.69175 183.340663 
L 310.17975 121.254013 
L 310.92375 113.703237 
L 311.66775 134.512029 
L 312.41175 149.079844 
L 313.15575 215.460492 
L 313.89975 184.575156 
L 314.64375 213.172539 
L 315.38775 162.045632 
L 316.13175 135.279198 
L 316.87575 130.310056 
L 317.61975 114.150971 
L 318.36375 116.89313 
L 319.10775 125.109711 
L 319.85175 112.579142 
L 320.59575 134.294092 
L 322.08375 92.898026 
L 322.82775 119.591336 
L 323.57175 287.512839 
L 324.31575 131.397742 
L 325.05975 94.011962 
L 325.80375 119.725396 
L 326.54775 109.670165 
L 327.29175 122.461592 
L 328.03575 124.856127 
L 328.77975 267.854247 
L 329.52375 132.233617 
L 330.26775 144.300369 
L 331.01175 172.027552 
L 331.75575 96.540001 
L 332.49975 115.503883 
L 333.24375 158.70404 
L 333.98775 105.72581 
L 334.73175 126.587283 
L 335.47575 113.672134 
L 336.21975 125.061587 
L 336.96375 128.569579 
L 337.70775 155.027842 
L 338.45175 113.90441 
L 339.19575 242.645978 
L 339.93975 197.427916 
L 340.68375 212.315007 
L 341.42775 191.652115 
L 342.17175 150.922834 
L 342.91575 157.195187 
L 343.65975 213.463697 
L 344.40375 121.497939 
L 345.14775 125.117025 
L 345.89175 133.190132 
L 346.63575 162.394921 
L 348.12375 199.793265 
L 348.86775 212.248865 
L 349.61175 106.987187 
L 350.35575 101.266304 
L 351.09975 284.550485 
L 351.84375 91.705756 
L 352.58775 113.963883 
L 353.33175 146.671219 
L 354.07575 148.324375 
L 354.81975 116.801178 
L 355.56375 115.790545 
L 357.05175 92.342524 
L 357.79575 128.718335 
L 359.28375 158.228003 
L 360.02775 101.637661 
L 360.77175 209.133589 
L 362.25975 79.313364 
L 363.00375 138.045131 
L 363.74775 96.669227 
L 364.49175 92.225736 
L 365.23575 76.312192 
L 365.97975 135.989569 
L 366.72375 141.723072 
L 367.46775 151.135917 
L 368.21175 104.950303 
L 368.95575 115.426871 
L 369.69975 111.970651 
L 370.44375 125.085012 
L 371.18775 100.065074 
L 371.93175 99.063506 
L 372.67575 92.160466 
L 373.41975 295.433367 
L 374.16375 174.102075 
L 375.65175 98.104751 
L 376.39575 143.219957 
L 377.13975 133.441301 
L 377.88375 106.562165 
L 378.62775 111.474469 
L 379.37175 95.508991 
L 380.11575 88.06534 
L 380.85975 129.254489 
L 381.60375 144.651237 
L 382.34775 187.119234 
L 383.09175 81.508221 
L 383.83575 96.166281 
L 384.57975 104.987907 
L 385.32375 94.723804 
L 386.06775 103.380548 
L 386.81175 133.126229 
L 387.55575 130.107945 
L 388.29975 102.60353 
L 389.04375 136.344997 
L 389.78775 149.216123 
L 390.53175 175.299453 
L 391.27575 149.763758 
L 392.01975 135.822567 
L 392.76375 81.120633 
L 393.50775 86.464682 
L 394.25175 83.094003 
L 394.99575 168.674573 
L 395.73975 127.283649 
L 396.48375 235.678628 
L 397.22775 123.07127 
L 397.97175 125.907087 
L 398.71575 71.066424 
L 399.45975 177.211094 
L 400.20375 103.730612 
L 400.94775 186.917649 
L 401.69175 132.33158 
L 402.43575 111.558676 
L 403.17975 106.525181 
L 403.92375 85.166861 
L 404.66775 103.61547 
L 405.41175 91.853248 
L 406.15575 105.384875 
L 406.89975 155.41686 
L 407.64375 100.953281 
L 408.38775 117.032035 
L 409.13175 123.622882 
L 409.87575 153.850633 
L 410.61975 108.333221 
L 411.36375 84.507395 
L 412.10775 98.153249 
L 412.85175 99.836987 
L 413.59575 100.778417 
L 414.33975 96.895109 
L 415.08375 49.148226 
L 415.82775 68.081557 
L 416.57175 90.693506 
L 417.31575 83.718727 
L 418.05975 78.004472 
L 418.80375 70.283799 
L 419.54775 153.121848 
L 420.29175 147.851017 
L 421.03575 84.736667 
L 421.77975 110.454437 
L 422.52375 95.386712 
L 423.26775 84.41153 
L 424.01175 108.294869 
L 424.75575 106.111569 
L 425.49975 115.848584 
L 426.24375 96.185965 
L 426.98775 155.603103 
L 427.73175 117.679698 
L 428.47575 120.063093 
L 429.21975 148.257969 
L 429.96375 103.779974 
L 430.70775 102.847894 
L 431.45175 116.875725 
L 432.19575 111.074076 
L 432.93975 138.083003 
L 433.68375 112.417912 
L 435.17175 162.726962 
L 435.91575 86.975395 
L 436.65975 102.582825 
L 437.40375 101.797331 
L 438.14775 96.767761 
L 438.89175 103.908786 
L 438.89175 103.908786 
" style="fill:none;stroke:#0000ff;stroke-linecap:square;stroke-width:0.5;"/>
   </g>
   <g id="patch_3">
    <path d="M 43.08375 23.14175 
L 489.48375 23.14175 
" style="fill:none;stroke:#000000;stroke-linecap:square;stroke-linejoin:miter;"/>
   </g>
   <g id="patch_4">
    <path d="M 489.48375 368.74175 
L 489.48375 23.14175 
" style="fill:none;stroke:#000000;stroke-linecap:square;stroke-linejoin:miter;"/>
   </g>
   <g id="patch_5">
    <path d="M 43.08375 368.74175 
L 43.08375 23.14175 
" style="fill:none;stroke:#000000;stroke-linecap:square;stroke-linejoin:miter;"/>
   </g>
   <g id="patch_6">
    <path d="M 43.08375 368.74175 
L 489.48375 368.74175 
" style="fill:none;stroke:#000000;stroke-linecap:square;stroke-linejoin:miter;"/>
   </g>
   <g id="matplotlib.axis_1">
    <g id="xtick_1">
     <g id="line2d_2">
      <defs>
       <path d="M 0 0 
L 0 -4 
" id="mfa4ea4606e" style="stroke:#000000;stroke-width:0.5;"/>
      </defs>
      <g>
       <use style="stroke:#000000;stroke-width:0.5;" x="43.08375" xlink:href="#mfa4ea4606e" y="368.74175"/>
      </g>
     </g>
     <g id="line2d_3">
      <defs>
       <path d="M 0 0 
L 0 4 
" id="mc927ad86fc" style="stroke:#000000;stroke-width:0.5;"/>
      </defs>
      <g>
       <use style="stroke:#000000;stroke-width:0.5;" x="43.08375" xlink:href="#mc927ad86fc" y="23.14175"/>
      </g>
     </g>
     <g id="text_1">
      <!-- 0 -->
      <defs>
       <path d="M 31.78125 66.40625 
Q 24.171875 66.40625 20.328125 58.90625 
Q 16.5 51.421875 16.5 36.375 
Q 16.5 21.390625 20.328125 13.890625 
Q 24.171875 6.390625 31.78125 6.390625 
Q 39.453125 6.390625 43.28125 13.890625 
Q 47.125 21.390625 47.125 36.375 
Q 47.125 51.421875 43.28125 58.90625 
Q 39.453125 66.40625 31.78125 66.40625 
M 31.78125 74.21875 
Q 44.046875 74.21875 50.515625 64.515625 
Q 56.984375 54.828125 56.984375 36.375 
Q 56.984375 17.96875 50.515625 8.265625 
Q 44.046875 -1.421875 31.78125 -1.421875 
Q 19.53125 -1.421875 13.0625 8.265625 
Q 6.59375 17.96875 6.59375 36.375 
Q 6.59375 54.828125 13.0625 64.515625 
Q 19.53125 74.21875 31.78125 74.21875 
" id="BitstreamVeraSans-Roman-30"/>
      </defs>
      <g transform="translate(39.26625 381.859875)scale(0.12 -0.12)">
       <use xlink:href="#BitstreamVeraSans-Roman-30"/>
      </g>
     </g>
    </g>
    <g id="xtick_2">
     <g id="line2d_4">
      <g>
       <use style="stroke:#000000;stroke-width:0.5;" x="117.48375" xlink:href="#mfa4ea4606e" y="368.74175"/>
      </g>
     </g>
     <g id="line2d_5">
      <g>
       <use style="stroke:#000000;stroke-width:0.5;" x="117.48375" xlink:href="#mc927ad86fc" y="23.14175"/>
      </g>
     </g>
     <g id="text_2">
      <!-- 100 -->
      <defs>
       <path d="M 12.40625 8.296875 
L 28.515625 8.296875 
L 28.515625 63.921875 
L 10.984375 60.40625 
L 10.984375 69.390625 
L 28.421875 72.90625 
L 38.28125 72.90625 
L 38.28125 8.296875 
L 54.390625 8.296875 
L 54.390625 0 
L 12.40625 0 
z
" id="BitstreamVeraSans-Roman-31"/>
      </defs>
      <g transform="translate(106.03125 381.859875)scale(0.12 -0.12)">
       <use xlink:href="#BitstreamVeraSans-Roman-31"/>
       <use x="63.623046875" xlink:href="#BitstreamVeraSans-Roman-30"/>
       <use x="127.24609375" xlink:href="#BitstreamVeraSans-Roman-30"/>
      </g>
     </g>
    </g>
    <g id="xtick_3">
     <g id="line2d_6">
      <g>
       <use style="stroke:#000000;stroke-width:0.5;" x="191.88375" xlink:href="#mfa4ea4606e" y="368.74175"/>
      </g>
     </g>
     <g id="line2d_7">
      <g>
       <use style="stroke:#000000;stroke-width:0.5;" x="191.88375" xlink:href="#mc927ad86fc" y="23.14175"/>
      </g>
     </g>
     <g id="text_3">
      <!-- 200 -->
      <defs>
       <path d="M 19.1875 8.296875 
L 53.609375 8.296875 
L 53.609375 0 
L 7.328125 0 
L 7.328125 8.296875 
Q 12.9375 14.109375 22.625 23.890625 
Q 32.328125 33.6875 34.8125 36.53125 
Q 39.546875 41.84375 41.421875 45.53125 
Q 43.3125 49.21875 43.3125 52.78125 
Q 43.3125 58.59375 39.234375 62.25 
Q 35.15625 65.921875 28.609375 65.921875 
Q 23.96875 65.921875 18.8125 64.3125 
Q 13.671875 62.703125 7.8125 59.421875 
L 7.8125 69.390625 
Q 13.765625 71.78125 18.9375 73 
Q 24.125 74.21875 28.421875 74.21875 
Q 39.75 74.21875 46.484375 68.546875 
Q 53.21875 62.890625 53.21875 53.421875 
Q 53.21875 48.921875 51.53125 44.890625 
Q 49.859375 40.875 45.40625 35.40625 
Q 44.1875 33.984375 37.640625 27.21875 
Q 31.109375 20.453125 19.1875 8.296875 
" id="BitstreamVeraSans-Roman-32"/>
      </defs>
      <g transform="translate(180.43125 381.859875)scale(0.12 -0.12)">
       <use xlink:href="#BitstreamVeraSans-Roman-32"/>
       <use x="63.623046875" xlink:href="#BitstreamVeraSans-Roman-30"/>
       <use x="127.24609375" xlink:href="#BitstreamVeraSans-Roman-30"/>
      </g>
     </g>
    </g>
    <g id="xtick_4">
     <g id="line2d_8">
      <g>
       <use style="stroke:#000000;stroke-width:0.5;" x="266.28375" xlink:href="#mfa4ea4606e" y="368.74175"/>
      </g>
     </g>
     <g id="line2d_9">
      <g>
       <use style="stroke:#000000;stroke-width:0.5;" x="266.28375" xlink:href="#mc927ad86fc" y="23.14175"/>
      </g>
     </g>
     <g id="text_4">
      <!-- 300 -->
      <defs>
       <path d="M 40.578125 39.3125 
Q 47.65625 37.796875 51.625 33 
Q 55.609375 28.21875 55.609375 21.1875 
Q 55.609375 10.40625 48.1875 4.484375 
Q 40.765625 -1.421875 27.09375 -1.421875 
Q 22.515625 -1.421875 17.65625 -0.515625 
Q 12.796875 0.390625 7.625 2.203125 
L 7.625 11.71875 
Q 11.71875 9.328125 16.59375 8.109375 
Q 21.484375 6.890625 26.8125 6.890625 
Q 36.078125 6.890625 40.9375 10.546875 
Q 45.796875 14.203125 45.796875 21.1875 
Q 45.796875 27.640625 41.28125 31.265625 
Q 36.765625 34.90625 28.71875 34.90625 
L 20.21875 34.90625 
L 20.21875 43.015625 
L 29.109375 43.015625 
Q 36.375 43.015625 40.234375 45.921875 
Q 44.09375 48.828125 44.09375 54.296875 
Q 44.09375 59.90625 40.109375 62.90625 
Q 36.140625 65.921875 28.71875 65.921875 
Q 24.65625 65.921875 20.015625 65.03125 
Q 15.375 64.15625 9.8125 62.3125 
L 9.8125 71.09375 
Q 15.4375 72.65625 20.34375 73.4375 
Q 25.25 74.21875 29.59375 74.21875 
Q 40.828125 74.21875 47.359375 69.109375 
Q 53.90625 64.015625 53.90625 55.328125 
Q 53.90625 49.265625 50.4375 45.09375 
Q 46.96875 40.921875 40.578125 39.3125 
" id="BitstreamVeraSans-Roman-33"/>
      </defs>
      <g transform="translate(254.83125 381.859875)scale(0.12 -0.12)">
       <use xlink:href="#BitstreamVeraSans-Roman-33"/>
       <use x="63.623046875" xlink:href="#BitstreamVeraSans-Roman-30"/>
       <use x="127.24609375" xlink:href="#BitstreamVeraSans-Roman-30"/>
      </g>
     </g>
    </g>
    <g id="xtick_5">
     <g id="line2d_10">
      <g>
       <use style="stroke:#000000;stroke-width:0.5;" x="340.68375" xlink:href="#mfa4ea4606e" y="368.74175"/>
      </g>
     </g>
     <g id="line2d_11">
      <g>
       <use style="stroke:#000000;stroke-width:0.5;" x="340.68375" xlink:href="#mc927ad86fc" y="23.14175"/>
      </g>
     </g>
     <g id="text_5">
      <!-- 400 -->
      <defs>
       <path d="M 37.796875 64.3125 
L 12.890625 25.390625 
L 37.796875 25.390625 
z
M 35.203125 72.90625 
L 47.609375 72.90625 
L 47.609375 25.390625 
L 58.015625 25.390625 
L 58.015625 17.1875 
L 47.609375 17.1875 
L 47.609375 0 
L 37.796875 0 
L 37.796875 17.1875 
L 4.890625 17.1875 
L 4.890625 26.703125 
z
" id="BitstreamVeraSans-Roman-34"/>
      </defs>
      <g transform="translate(329.23125 381.859875)scale(0.12 -0.12)">
       <use xlink:href="#BitstreamVeraSans-Roman-34"/>
       <use x="63.623046875" xlink:href="#BitstreamVeraSans-Roman-30"/>
       <use x="127.24609375" xlink:href="#BitstreamVeraSans-Roman-30"/>
      </g>
     </g>
    </g>
    <g id="xtick_6">
     <g id="line2d_12">
      <g>
       <use style="stroke:#000000;stroke-width:0.5;" x="415.08375" xlink:href="#mfa4ea4606e" y="368.74175"/>
      </g>
     </g>
     <g id="line2d_13">
      <g>
       <use style="stroke:#000000;stroke-width:0.5;" x="415.08375" xlink:href="#mc927ad86fc" y="23.14175"/>
      </g>
     </g>
     <g id="text_6">
      <!-- 500 -->
      <defs>
       <path d="M 10.796875 72.90625 
L 49.515625 72.90625 
L 49.515625 64.59375 
L 19.828125 64.59375 
L 19.828125 46.734375 
Q 21.96875 47.46875 24.109375 47.828125 
Q 26.265625 48.1875 28.421875 48.1875 
Q 40.625 48.1875 47.75 41.5 
Q 54.890625 34.8125 54.890625 23.390625 
Q 54.890625 11.625 47.5625 5.09375 
Q 40.234375 -1.421875 26.90625 -1.421875 
Q 22.3125 -1.421875 17.546875 -0.640625 
Q 12.796875 0.140625 7.71875 1.703125 
L 7.71875 11.625 
Q 12.109375 9.234375 16.796875 8.0625 
Q 21.484375 6.890625 26.703125 6.890625 
Q 35.15625 6.890625 40.078125 11.328125 
Q 45.015625 15.765625 45.015625 23.390625 
Q 45.015625 31 40.078125 35.4375 
Q 35.15625 39.890625 26.703125 39.890625 
Q 22.75 39.890625 18.8125 39.015625 
Q 14.890625 38.140625 10.796875 36.28125 
z
" id="BitstreamVeraSans-Roman-35"/>
      </defs>
      <g transform="translate(403.63125 381.859875)scale(0.12 -0.12)">
       <use xlink:href="#BitstreamVeraSans-Roman-35"/>
       <use x="63.623046875" xlink:href="#BitstreamVeraSans-Roman-30"/>
       <use x="127.24609375" xlink:href="#BitstreamVeraSans-Roman-30"/>
      </g>
     </g>
    </g>
    <g id="xtick_7">
     <g id="line2d_14">
      <g>
       <use style="stroke:#000000;stroke-width:0.5;" x="489.48375" xlink:href="#mfa4ea4606e" y="368.74175"/>
      </g>
     </g>
     <g id="line2d_15">
      <g>
       <use style="stroke:#000000;stroke-width:0.5;" x="489.48375" xlink:href="#mc927ad86fc" y="23.14175"/>
      </g>
     </g>
     <g id="text_7">
      <!-- 600 -->
      <defs>
       <path d="M 33.015625 40.375 
Q 26.375 40.375 22.484375 35.828125 
Q 18.609375 31.296875 18.609375 23.390625 
Q 18.609375 15.53125 22.484375 10.953125 
Q 26.375 6.390625 33.015625 6.390625 
Q 39.65625 6.390625 43.53125 10.953125 
Q 47.40625 15.53125 47.40625 23.390625 
Q 47.40625 31.296875 43.53125 35.828125 
Q 39.65625 40.375 33.015625 40.375 
M 52.59375 71.296875 
L 52.59375 62.3125 
Q 48.875 64.0625 45.09375 64.984375 
Q 41.3125 65.921875 37.59375 65.921875 
Q 27.828125 65.921875 22.671875 59.328125 
Q 17.53125 52.734375 16.796875 39.40625 
Q 19.671875 43.65625 24.015625 45.921875 
Q 28.375 48.1875 33.59375 48.1875 
Q 44.578125 48.1875 50.953125 41.515625 
Q 57.328125 34.859375 57.328125 23.390625 
Q 57.328125 12.15625 50.6875 5.359375 
Q 44.046875 -1.421875 33.015625 -1.421875 
Q 20.359375 -1.421875 13.671875 8.265625 
Q 6.984375 17.96875 6.984375 36.375 
Q 6.984375 53.65625 15.1875 63.9375 
Q 23.390625 74.21875 37.203125 74.21875 
Q 40.921875 74.21875 44.703125 73.484375 
Q 48.484375 72.75 52.59375 71.296875 
" id="BitstreamVeraSans-Roman-36"/>
      </defs>
      <g transform="translate(478.03125 381.859875)scale(0.12 -0.12)">
       <use xlink:href="#BitstreamVeraSans-Roman-36"/>
       <use x="63.623046875" xlink:href="#BitstreamVeraSans-Roman-30"/>
       <use x="127.24609375" xlink:href="#BitstreamVeraSans-Roman-30"/>
      </g>
     </g>
    </g>
    <g id="text_8">
     <!-- episodes -->
     <defs>
      <path d="M 18.109375 8.203125 
L 18.109375 -20.796875 
L 9.078125 -20.796875 
L 9.078125 54.6875 
L 18.109375 54.6875 
L 18.109375 46.390625 
Q 20.953125 51.265625 25.265625 53.625 
Q 29.59375 56 35.59375 56 
Q 45.5625 56 51.78125 48.09375 
Q 58.015625 40.1875 58.015625 27.296875 
Q 58.015625 14.40625 51.78125 6.484375 
Q 45.5625 -1.421875 35.59375 -1.421875 
Q 29.59375 -1.421875 25.265625 0.953125 
Q 20.953125 3.328125 18.109375 8.203125 
M 48.6875 27.296875 
Q 48.6875 37.203125 44.609375 42.84375 
Q 40.53125 48.484375 33.40625 48.484375 
Q 26.265625 48.484375 22.1875 42.84375 
Q 18.109375 37.203125 18.109375 27.296875 
Q 18.109375 17.390625 22.1875 11.75 
Q 26.265625 6.109375 33.40625 6.109375 
Q 40.53125 6.109375 44.609375 11.75 
Q 48.6875 17.390625 48.6875 27.296875 
" id="BitstreamVeraSans-Roman-70"/>
      <path d="M 44.28125 53.078125 
L 44.28125 44.578125 
Q 40.484375 46.53125 36.375 47.5 
Q 32.28125 48.484375 27.875 48.484375 
Q 21.1875 48.484375 17.84375 46.4375 
Q 14.5 44.390625 14.5 40.28125 
Q 14.5 37.15625 16.890625 35.375 
Q 19.28125 33.59375 26.515625 31.984375 
L 29.59375 31.296875 
Q 39.15625 29.25 43.1875 25.515625 
Q 47.21875 21.78125 47.21875 15.09375 
Q 47.21875 7.46875 41.1875 3.015625 
Q 35.15625 -1.421875 24.609375 -1.421875 
Q 20.21875 -1.421875 15.453125 -0.5625 
Q 10.6875 0.296875 5.421875 2 
L 5.421875 11.28125 
Q 10.40625 8.6875 15.234375 7.390625 
Q 20.0625 6.109375 24.8125 6.109375 
Q 31.15625 6.109375 34.5625 8.28125 
Q 37.984375 10.453125 37.984375 14.40625 
Q 37.984375 18.0625 35.515625 20.015625 
Q 33.0625 21.96875 24.703125 23.78125 
L 21.578125 24.515625 
Q 13.234375 26.265625 9.515625 29.90625 
Q 5.8125 33.546875 5.8125 39.890625 
Q 5.8125 47.609375 11.28125 51.796875 
Q 16.75 56 26.8125 56 
Q 31.78125 56 36.171875 55.265625 
Q 40.578125 54.546875 44.28125 53.078125 
" id="BitstreamVeraSans-Roman-73"/>
      <path d="M 9.421875 54.6875 
L 18.40625 54.6875 
L 18.40625 0 
L 9.421875 0 
z
M 9.421875 75.984375 
L 18.40625 75.984375 
L 18.40625 64.59375 
L 9.421875 64.59375 
z
" id="BitstreamVeraSans-Roman-69"/>
      <path d="M 30.609375 48.390625 
Q 23.390625 48.390625 19.1875 42.75 
Q 14.984375 37.109375 14.984375 27.296875 
Q 14.984375 17.484375 19.15625 11.84375 
Q 23.34375 6.203125 30.609375 6.203125 
Q 37.796875 6.203125 41.984375 11.859375 
Q 46.1875 17.53125 46.1875 27.296875 
Q 46.1875 37.015625 41.984375 42.703125 
Q 37.796875 48.390625 30.609375 48.390625 
M 30.609375 56 
Q 42.328125 56 49.015625 48.375 
Q 55.71875 40.765625 55.71875 27.296875 
Q 55.71875 13.875 49.015625 6.21875 
Q 42.328125 -1.421875 30.609375 -1.421875 
Q 18.84375 -1.421875 12.171875 6.21875 
Q 5.515625 13.875 5.515625 27.296875 
Q 5.515625 40.765625 12.171875 48.375 
Q 18.84375 56 30.609375 56 
" id="BitstreamVeraSans-Roman-6f"/>
      <path d="M 56.203125 29.59375 
L 56.203125 25.203125 
L 14.890625 25.203125 
Q 15.484375 15.921875 20.484375 11.0625 
Q 25.484375 6.203125 34.421875 6.203125 
Q 39.59375 6.203125 44.453125 7.46875 
Q 49.3125 8.734375 54.109375 11.28125 
L 54.109375 2.78125 
Q 49.265625 0.734375 44.1875 -0.34375 
Q 39.109375 -1.421875 33.890625 -1.421875 
Q 20.796875 -1.421875 13.15625 6.1875 
Q 5.515625 13.8125 5.515625 26.8125 
Q 5.515625 40.234375 12.765625 48.109375 
Q 20.015625 56 32.328125 56 
Q 43.359375 56 49.78125 48.890625 
Q 56.203125 41.796875 56.203125 29.59375 
M 47.21875 32.234375 
Q 47.125 39.59375 43.09375 43.984375 
Q 39.0625 48.390625 32.421875 48.390625 
Q 24.90625 48.390625 20.390625 44.140625 
Q 15.875 39.890625 15.1875 32.171875 
z
" id="BitstreamVeraSans-Roman-65"/>
      <path d="M 45.40625 46.390625 
L 45.40625 75.984375 
L 54.390625 75.984375 
L 54.390625 0 
L 45.40625 0 
L 45.40625 8.203125 
Q 42.578125 3.328125 38.25 0.953125 
Q 33.9375 -1.421875 27.875 -1.421875 
Q 17.96875 -1.421875 11.734375 6.484375 
Q 5.515625 14.40625 5.515625 27.296875 
Q 5.515625 40.1875 11.734375 48.09375 
Q 17.96875 56 27.875 56 
Q 33.9375 56 38.25 53.625 
Q 42.578125 51.265625 45.40625 46.390625 
M 14.796875 27.296875 
Q 14.796875 17.390625 18.875 11.75 
Q 22.953125 6.109375 30.078125 6.109375 
Q 37.203125 6.109375 41.296875 11.75 
Q 45.40625 17.390625 45.40625 27.296875 
Q 45.40625 37.203125 41.296875 42.84375 
Q 37.203125 48.484375 30.078125 48.484375 
Q 22.953125 48.484375 18.875 42.84375 
Q 14.796875 37.203125 14.796875 27.296875 
" id="BitstreamVeraSans-Roman-64"/>
     </defs>
     <g transform="translate(239.6925 398.473625)scale(0.12 -0.12)">
      <use xlink:href="#BitstreamVeraSans-Roman-65"/>
      <use x="61.5234375" xlink:href="#BitstreamVeraSans-Roman-70"/>
      <use x="125.0" xlink:href="#BitstreamVeraSans-Roman-69"/>
      <use x="152.783203125" xlink:href="#BitstreamVeraSans-Roman-73"/>
      <use x="204.8828125" xlink:href="#BitstreamVeraSans-Roman-6f"/>
      <use x="266.064453125" xlink:href="#BitstreamVeraSans-Roman-64"/>
      <use x="329.541015625" xlink:href="#BitstreamVeraSans-Roman-65"/>
      <use x="391.064453125" xlink:href="#BitstreamVeraSans-Roman-73"/>
     </g>
    </g>
   </g>
   <g id="matplotlib.axis_2">
    <g id="ytick_1">
     <g id="line2d_16">
      <defs>
       <path d="M 0 0 
L 4 0 
" id="mcd4ccf1f8e" style="stroke:#000000;stroke-width:0.5;"/>
      </defs>
      <g>
       <use style="stroke:#000000;stroke-width:0.5;" x="43.08375" xlink:href="#mcd4ccf1f8e" y="368.74175"/>
      </g>
     </g>
     <g id="line2d_17">
      <defs>
       <path d="M 0 0 
L -4 0 
" id="m7b5755f577" style="stroke:#000000;stroke-width:0.5;"/>
      </defs>
      <g>
       <use style="stroke:#000000;stroke-width:0.5;" x="489.48375" xlink:href="#m7b5755f577" y="368.74175"/>
      </g>
     </g>
     <g id="text_9">
      <!-- 0 -->
      <g transform="translate(31.44875 372.053)scale(0.12 -0.12)">
       <use xlink:href="#BitstreamVeraSans-Roman-30"/>
      </g>
     </g>
    </g>
    <g id="ytick_2">
     <g id="line2d_18">
      <g>
       <use style="stroke:#000000;stroke-width:0.5;" x="43.08375" xlink:href="#mcd4ccf1f8e" y="330.34175"/>
      </g>
     </g>
     <g id="line2d_19">
      <g>
       <use style="stroke:#000000;stroke-width:0.5;" x="489.48375" xlink:href="#m7b5755f577" y="330.34175"/>
      </g>
     </g>
     <g id="text_10">
      <!-- 2 -->
      <g transform="translate(31.44875 333.653)scale(0.12 -0.12)">
       <use xlink:href="#BitstreamVeraSans-Roman-32"/>
      </g>
     </g>
    </g>
    <g id="ytick_3">
     <g id="line2d_20">
      <g>
       <use style="stroke:#000000;stroke-width:0.5;" x="43.08375" xlink:href="#mcd4ccf1f8e" y="291.94175"/>
      </g>
     </g>
     <g id="line2d_21">
      <g>
       <use style="stroke:#000000;stroke-width:0.5;" x="489.48375" xlink:href="#m7b5755f577" y="291.94175"/>
      </g>
     </g>
     <g id="text_11">
      <!-- 4 -->
      <g transform="translate(31.44875 295.253)scale(0.12 -0.12)">
       <use xlink:href="#BitstreamVeraSans-Roman-34"/>
      </g>
     </g>
    </g>
    <g id="ytick_4">
     <g id="line2d_22">
      <g>
       <use style="stroke:#000000;stroke-width:0.5;" x="43.08375" xlink:href="#mcd4ccf1f8e" y="253.54175"/>
      </g>
     </g>
     <g id="line2d_23">
      <g>
       <use style="stroke:#000000;stroke-width:0.5;" x="489.48375" xlink:href="#m7b5755f577" y="253.54175"/>
      </g>
     </g>
     <g id="text_12">
      <!-- 6 -->
      <g transform="translate(31.44875 256.853)scale(0.12 -0.12)">
       <use xlink:href="#BitstreamVeraSans-Roman-36"/>
      </g>
     </g>
    </g>
    <g id="ytick_5">
     <g id="line2d_24">
      <g>
       <use style="stroke:#000000;stroke-width:0.5;" x="43.08375" xlink:href="#mcd4ccf1f8e" y="215.14175"/>
      </g>
     </g>
     <g id="line2d_25">
      <g>
       <use style="stroke:#000000;stroke-width:0.5;" x="489.48375" xlink:href="#m7b5755f577" y="215.14175"/>
      </g>
     </g>
     <g id="text_13">
      <!-- 8 -->
      <defs>
       <path d="M 31.78125 34.625 
Q 24.75 34.625 20.71875 30.859375 
Q 16.703125 27.09375 16.703125 20.515625 
Q 16.703125 13.921875 20.71875 10.15625 
Q 24.75 6.390625 31.78125 6.390625 
Q 38.8125 6.390625 42.859375 10.171875 
Q 46.921875 13.96875 46.921875 20.515625 
Q 46.921875 27.09375 42.890625 30.859375 
Q 38.875 34.625 31.78125 34.625 
M 21.921875 38.8125 
Q 15.578125 40.375 12.03125 44.71875 
Q 8.5 49.078125 8.5 55.328125 
Q 8.5 64.0625 14.71875 69.140625 
Q 20.953125 74.21875 31.78125 74.21875 
Q 42.671875 74.21875 48.875 69.140625 
Q 55.078125 64.0625 55.078125 55.328125 
Q 55.078125 49.078125 51.53125 44.71875 
Q 48 40.375 41.703125 38.8125 
Q 48.828125 37.15625 52.796875 32.3125 
Q 56.78125 27.484375 56.78125 20.515625 
Q 56.78125 9.90625 50.3125 4.234375 
Q 43.84375 -1.421875 31.78125 -1.421875 
Q 19.734375 -1.421875 13.25 4.234375 
Q 6.78125 9.90625 6.78125 20.515625 
Q 6.78125 27.484375 10.78125 32.3125 
Q 14.796875 37.15625 21.921875 38.8125 
M 18.3125 54.390625 
Q 18.3125 48.734375 21.84375 45.5625 
Q 25.390625 42.390625 31.78125 42.390625 
Q 38.140625 42.390625 41.71875 45.5625 
Q 45.3125 48.734375 45.3125 54.390625 
Q 45.3125 60.0625 41.71875 63.234375 
Q 38.140625 66.40625 31.78125 66.40625 
Q 25.390625 66.40625 21.84375 63.234375 
Q 18.3125 60.0625 18.3125 54.390625 
" id="BitstreamVeraSans-Roman-38"/>
      </defs>
      <g transform="translate(31.44875 218.453)scale(0.12 -0.12)">
       <use xlink:href="#BitstreamVeraSans-Roman-38"/>
      </g>
     </g>
    </g>
    <g id="ytick_6">
     <g id="line2d_26">
      <g>
       <use style="stroke:#000000;stroke-width:0.5;" x="43.08375" xlink:href="#mcd4ccf1f8e" y="176.74175"/>
      </g>
     </g>
     <g id="line2d_27">
      <g>
       <use style="stroke:#000000;stroke-width:0.5;" x="489.48375" xlink:href="#m7b5755f577" y="176.74175"/>
      </g>
     </g>
     <g id="text_14">
      <!-- 10 -->
      <g transform="translate(23.81375 180.053)scale(0.12 -0.12)">
       <use xlink:href="#BitstreamVeraSans-Roman-31"/>
       <use x="63.623046875" xlink:href="#BitstreamVeraSans-Roman-30"/>
      </g>
     </g>
    </g>
    <g id="ytick_7">
     <g id="line2d_28">
      <g>
       <use style="stroke:#000000;stroke-width:0.5;" x="43.08375" xlink:href="#mcd4ccf1f8e" y="138.34175"/>
      </g>
     </g>
     <g id="line2d_29">
      <g>
       <use style="stroke:#000000;stroke-width:0.5;" x="489.48375" xlink:href="#m7b5755f577" y="138.34175"/>
      </g>
     </g>
     <g id="text_15">
      <!-- 12 -->
      <g transform="translate(23.81375 141.653)scale(0.12 -0.12)">
       <use xlink:href="#BitstreamVeraSans-Roman-31"/>
       <use x="63.623046875" xlink:href="#BitstreamVeraSans-Roman-32"/>
      </g>
     </g>
    </g>
    <g id="ytick_8">
     <g id="line2d_30">
      <g>
       <use style="stroke:#000000;stroke-width:0.5;" x="43.08375" xlink:href="#mcd4ccf1f8e" y="99.94175"/>
      </g>
     </g>
     <g id="line2d_31">
      <g>
       <use style="stroke:#000000;stroke-width:0.5;" x="489.48375" xlink:href="#m7b5755f577" y="99.94175"/>
      </g>
     </g>
     <g id="text_16">
      <!-- 14 -->
      <g transform="translate(23.81375 103.253)scale(0.12 -0.12)">
       <use xlink:href="#BitstreamVeraSans-Roman-31"/>
       <use x="63.623046875" xlink:href="#BitstreamVeraSans-Roman-34"/>
      </g>
     </g>
    </g>
    <g id="ytick_9">
     <g id="line2d_32">
      <g>
       <use style="stroke:#000000;stroke-width:0.5;" x="43.08375" xlink:href="#mcd4ccf1f8e" y="61.54175"/>
      </g>
     </g>
     <g id="line2d_33">
      <g>
       <use style="stroke:#000000;stroke-width:0.5;" x="489.48375" xlink:href="#m7b5755f577" y="61.54175"/>
      </g>
     </g>
     <g id="text_17">
      <!-- 16 -->
      <g transform="translate(23.81375 64.853)scale(0.12 -0.12)">
       <use xlink:href="#BitstreamVeraSans-Roman-31"/>
       <use x="63.623046875" xlink:href="#BitstreamVeraSans-Roman-36"/>
      </g>
     </g>
    </g>
    <g id="ytick_10">
     <g id="line2d_34">
      <g>
       <use style="stroke:#000000;stroke-width:0.5;" x="43.08375" xlink:href="#mcd4ccf1f8e" y="23.14175"/>
      </g>
     </g>
     <g id="line2d_35">
      <g>
       <use style="stroke:#000000;stroke-width:0.5;" x="489.48375" xlink:href="#m7b5755f577" y="23.14175"/>
      </g>
     </g>
     <g id="text_18">
      <!-- 18 -->
      <g transform="translate(23.81375 26.453)scale(0.12 -0.12)">
       <use xlink:href="#BitstreamVeraSans-Roman-31"/>
       <use x="63.623046875" xlink:href="#BitstreamVeraSans-Roman-38"/>
      </g>
     </g>
    </g>
    <g id="text_19">
     <!-- undisc. return -->
     <defs>
      <path d="M 54.890625 33.015625 
L 54.890625 0 
L 45.90625 0 
L 45.90625 32.71875 
Q 45.90625 40.484375 42.875 44.328125 
Q 39.84375 48.1875 33.796875 48.1875 
Q 26.515625 48.1875 22.3125 43.546875 
Q 18.109375 38.921875 18.109375 30.90625 
L 18.109375 0 
L 9.078125 0 
L 9.078125 54.6875 
L 18.109375 54.6875 
L 18.109375 46.1875 
Q 21.34375 51.125 25.703125 53.5625 
Q 30.078125 56 35.796875 56 
Q 45.21875 56 50.046875 50.171875 
Q 54.890625 44.34375 54.890625 33.015625 
" id="BitstreamVeraSans-Roman-6e"/>
      <path d="M 8.5 21.578125 
L 8.5 54.6875 
L 17.484375 54.6875 
L 17.484375 21.921875 
Q 17.484375 14.15625 20.5 10.265625 
Q 23.53125 6.390625 29.59375 6.390625 
Q 36.859375 6.390625 41.078125 11.03125 
Q 45.3125 15.671875 45.3125 23.6875 
L 45.3125 54.6875 
L 54.296875 54.6875 
L 54.296875 0 
L 45.3125 0 
L 45.3125 8.40625 
Q 42.046875 3.421875 37.71875 1 
Q 33.40625 -1.421875 27.6875 -1.421875 
Q 18.265625 -1.421875 13.375 4.4375 
Q 8.5 10.296875 8.5 21.578125 
" id="BitstreamVeraSans-Roman-75"/>
      <path d="M 18.3125 70.21875 
L 18.3125 54.6875 
L 36.8125 54.6875 
L 36.8125 47.703125 
L 18.3125 47.703125 
L 18.3125 18.015625 
Q 18.3125 11.328125 20.140625 9.421875 
Q 21.96875 7.515625 27.59375 7.515625 
L 36.8125 7.515625 
L 36.8125 0 
L 27.59375 0 
Q 17.1875 0 13.234375 3.875 
Q 9.28125 7.765625 9.28125 18.015625 
L 9.28125 47.703125 
L 2.6875 47.703125 
L 2.6875 54.6875 
L 9.28125 54.6875 
L 9.28125 70.21875 
z
" id="BitstreamVeraSans-Roman-74"/>
      <path id="BitstreamVeraSans-Roman-20"/>
      <path d="M 48.78125 52.59375 
L 48.78125 44.1875 
Q 44.96875 46.296875 41.140625 47.34375 
Q 37.3125 48.390625 33.40625 48.390625 
Q 24.65625 48.390625 19.8125 42.84375 
Q 14.984375 37.3125 14.984375 27.296875 
Q 14.984375 17.28125 19.8125 11.734375 
Q 24.65625 6.203125 33.40625 6.203125 
Q 37.3125 6.203125 41.140625 7.25 
Q 44.96875 8.296875 48.78125 10.40625 
L 48.78125 2.09375 
Q 45.015625 0.34375 40.984375 -0.53125 
Q 36.96875 -1.421875 32.421875 -1.421875 
Q 20.0625 -1.421875 12.78125 6.34375 
Q 5.515625 14.109375 5.515625 27.296875 
Q 5.515625 40.671875 12.859375 48.328125 
Q 20.21875 56 33.015625 56 
Q 37.15625 56 41.109375 55.140625 
Q 45.0625 54.296875 48.78125 52.59375 
" id="BitstreamVeraSans-Roman-63"/>
      <path d="M 41.109375 46.296875 
Q 39.59375 47.171875 37.8125 47.578125 
Q 36.03125 48 33.890625 48 
Q 26.265625 48 22.1875 43.046875 
Q 18.109375 38.09375 18.109375 28.8125 
L 18.109375 0 
L 9.078125 0 
L 9.078125 54.6875 
L 18.109375 54.6875 
L 18.109375 46.1875 
Q 20.953125 51.171875 25.484375 53.578125 
Q 30.03125 56 36.53125 56 
Q 37.453125 56 38.578125 55.875 
Q 39.703125 55.765625 41.0625 55.515625 
z
" id="BitstreamVeraSans-Roman-72"/>
      <path d="M 10.6875 12.40625 
L 21 12.40625 
L 21 0 
L 10.6875 0 
z
" id="BitstreamVeraSans-Roman-2e"/>
     </defs>
     <g transform="translate(16.318125 237.8405)rotate(-90.0)scale(0.12 -0.12)">
      <use xlink:href="#BitstreamVeraSans-Roman-75"/>
      <use x="63.37890625" xlink:href="#BitstreamVeraSans-Roman-6e"/>
      <use x="126.7578125" xlink:href="#BitstreamVeraSans-Roman-64"/>
      <use x="190.234375" xlink:href="#BitstreamVeraSans-Roman-69"/>
      <use x="218.017578125" xlink:href="#BitstreamVeraSans-Roman-73"/>
      <use x="270.1171875" xlink:href="#BitstreamVeraSans-Roman-63"/>
      <use x="325.09765625" xlink:href="#BitstreamVeraSans-Roman-2e"/>
      <use x="356.884765625" xlink:href="#BitstreamVeraSans-Roman-20"/>
      <use x="388.671875" xlink:href="#BitstreamVeraSans-Roman-72"/>
      <use x="429.75390625" xlink:href="#BitstreamVeraSans-Roman-65"/>
      <use x="491.27734375" xlink:href="#BitstreamVeraSans-Roman-74"/>
      <use x="530.486328125" xlink:href="#BitstreamVeraSans-Roman-75"/>
      <use x="593.865234375" xlink:href="#BitstreamVeraSans-Roman-72"/>
      <use x="634.962890625" xlink:href="#BitstreamVeraSans-Roman-6e"/>
     </g>
    </g>
   </g>
   <g id="text_20">
    <!-- Undiscounted return obtained -->
    <defs>
     <path d="M 34.28125 27.484375 
Q 23.390625 27.484375 19.1875 25 
Q 14.984375 22.515625 14.984375 16.5 
Q 14.984375 11.71875 18.140625 8.90625 
Q 21.296875 6.109375 26.703125 6.109375 
Q 34.1875 6.109375 38.703125 11.40625 
Q 43.21875 16.703125 43.21875 25.484375 
L 43.21875 27.484375 
z
M 52.203125 31.203125 
L 52.203125 0 
L 43.21875 0 
L 43.21875 8.296875 
Q 40.140625 3.328125 35.546875 0.953125 
Q 30.953125 -1.421875 24.3125 -1.421875 
Q 15.921875 -1.421875 10.953125 3.296875 
Q 6 8.015625 6 15.921875 
Q 6 25.140625 12.171875 29.828125 
Q 18.359375 34.515625 30.609375 34.515625 
L 43.21875 34.515625 
L 43.21875 35.40625 
Q 43.21875 41.609375 39.140625 45 
Q 35.0625 48.390625 27.6875 48.390625 
Q 23 48.390625 18.546875 47.265625 
Q 14.109375 46.140625 10.015625 43.890625 
L 10.015625 52.203125 
Q 14.9375 54.109375 19.578125 55.046875 
Q 24.21875 56 28.609375 56 
Q 40.484375 56 46.34375 49.84375 
Q 52.203125 43.703125 52.203125 31.203125 
" id="BitstreamVeraSans-Roman-61"/>
     <path d="M 48.6875 27.296875 
Q 48.6875 37.203125 44.609375 42.84375 
Q 40.53125 48.484375 33.40625 48.484375 
Q 26.265625 48.484375 22.1875 42.84375 
Q 18.109375 37.203125 18.109375 27.296875 
Q 18.109375 17.390625 22.1875 11.75 
Q 26.265625 6.109375 33.40625 6.109375 
Q 40.53125 6.109375 44.609375 11.75 
Q 48.6875 17.390625 48.6875 27.296875 
M 18.109375 46.390625 
Q 20.953125 51.265625 25.265625 53.625 
Q 29.59375 56 35.59375 56 
Q 45.5625 56 51.78125 48.09375 
Q 58.015625 40.1875 58.015625 27.296875 
Q 58.015625 14.40625 51.78125 6.484375 
Q 45.5625 -1.421875 35.59375 -1.421875 
Q 29.59375 -1.421875 25.265625 0.953125 
Q 20.953125 3.328125 18.109375 8.203125 
L 18.109375 0 
L 9.078125 0 
L 9.078125 75.984375 
L 18.109375 75.984375 
z
" id="BitstreamVeraSans-Roman-62"/>
     <path d="M 8.6875 72.90625 
L 18.609375 72.90625 
L 18.609375 28.609375 
Q 18.609375 16.890625 22.84375 11.734375 
Q 27.09375 6.59375 36.625 6.59375 
Q 46.09375 6.59375 50.34375 11.734375 
Q 54.59375 16.890625 54.59375 28.609375 
L 54.59375 72.90625 
L 64.5 72.90625 
L 64.5 27.390625 
Q 64.5 13.140625 57.4375 5.859375 
Q 50.390625 -1.421875 36.625 -1.421875 
Q 22.796875 -1.421875 15.734375 5.859375 
Q 8.6875 13.140625 8.6875 27.390625 
z
" id="BitstreamVeraSans-Roman-55"/>
    </defs>
    <g transform="translate(158.167875 18.14175)scale(0.144 -0.144)">
     <use xlink:href="#BitstreamVeraSans-Roman-55"/>
     <use x="73.193359375" xlink:href="#BitstreamVeraSans-Roman-6e"/>
     <use x="136.572265625" xlink:href="#BitstreamVeraSans-Roman-64"/>
     <use x="200.048828125" xlink:href="#BitstreamVeraSans-Roman-69"/>
     <use x="227.83203125" xlink:href="#BitstreamVeraSans-Roman-73"/>
     <use x="279.931640625" xlink:href="#BitstreamVeraSans-Roman-63"/>
     <use x="334.912109375" xlink:href="#BitstreamVeraSans-Roman-6f"/>
     <use x="396.09375" xlink:href="#BitstreamVeraSans-Roman-75"/>
     <use x="459.47265625" xlink:href="#BitstreamVeraSans-Roman-6e"/>
     <use x="522.8515625" xlink:href="#BitstreamVeraSans-Roman-74"/>
     <use x="562.060546875" xlink:href="#BitstreamVeraSans-Roman-65"/>
     <use x="623.583984375" xlink:href="#BitstreamVeraSans-Roman-64"/>
     <use x="687.060546875" xlink:href="#BitstreamVeraSans-Roman-20"/>
     <use x="718.84765625" xlink:href="#BitstreamVeraSans-Roman-72"/>
     <use x="759.9296875" xlink:href="#BitstreamVeraSans-Roman-65"/>
     <use x="821.453125" xlink:href="#BitstreamVeraSans-Roman-74"/>
     <use x="860.662109375" xlink:href="#BitstreamVeraSans-Roman-75"/>
     <use x="924.041015625" xlink:href="#BitstreamVeraSans-Roman-72"/>
     <use x="965.138671875" xlink:href="#BitstreamVeraSans-Roman-6e"/>
     <use x="1028.517578125" xlink:href="#BitstreamVeraSans-Roman-20"/>
     <use x="1060.3046875" xlink:href="#BitstreamVeraSans-Roman-6f"/>
     <use x="1121.486328125" xlink:href="#BitstreamVeraSans-Roman-62"/>
     <use x="1184.962890625" xlink:href="#BitstreamVeraSans-Roman-74"/>
     <use x="1224.171875" xlink:href="#BitstreamVeraSans-Roman-61"/>
     <use x="1285.451171875" xlink:href="#BitstreamVeraSans-Roman-69"/>
     <use x="1313.234375" xlink:href="#BitstreamVeraSans-Roman-6e"/>
     <use x="1376.61328125" xlink:href="#BitstreamVeraSans-Roman-65"/>
     <use x="1438.13671875" xlink:href="#BitstreamVeraSans-Roman-64"/>
    </g>
   </g>
  </g>
 </g>
 <defs>
  <clipPath id="p8323a1cf6d">
   <rect height="345.6" width="446.4" x="43.08375" y="23.14175"/>
  </clipPath>
 </defs>
</svg>
