<?xml version="1.0" encoding="utf-8" standalone="no"?>
<!DOCTYPE svg PUBLIC "-//W3C//DTD SVG 1.1//EN"
  "http://www.w3.org/Graphics/SVG/1.1/DTD/svg11.dtd">
<!-- Created with matplotlib (http://matplotlib.org/) -->
<svg height="325pt" version="1.1" viewBox="0 0 414 325" width="414pt" xmlns="http://www.w3.org/2000/svg" xmlns:xlink="http://www.w3.org/1999/xlink">
 <defs>
  <style type="text/css">
*{stroke-linecap:butt;stroke-linejoin:round;}
  </style>
 </defs>
 <g id="figure_1">
  <g id="patch_1">
   <path d="M 0 325.986375 
L 414.785625 325.986375 
L 414.785625 0 
L 0 0 
z
" style="fill:#ffffff;"/>
  </g>
  <g id="axes_1">
   <g id="patch_2">
    <path d="M 46.965625 288.430125 
L 404.085625 288.430125 
L 404.085625 22.318125 
L 46.965625 22.318125 
z
" style="fill:#ffffff;"/>
   </g>
   <g id="matplotlib.axis_1">
    <g id="xtick_1">
     <g id="line2d_1">
      <defs>
       <path d="M 0 0 
L 0 3.5 
" id="m09a2ee69fd" style="stroke:#000000;stroke-width:0.8;"/>
      </defs>
      <g>
       <use style="stroke:#000000;stroke-width:0.8;" x="62.873373" xlink:href="#m09a2ee69fd" y="288.430125"/>
      </g>
     </g>
     <g id="text_1">
      <!-- 0 -->
      <defs>
       <path d="M 31.78125 66.40625 
Q 24.171875 66.40625 20.328125 58.90625 
Q 16.5 51.421875 16.5 36.375 
Q 16.5 21.390625 20.328125 13.890625 
Q 24.171875 6.390625 31.78125 6.390625 
Q 39.453125 6.390625 43.28125 13.890625 
Q 47.125 21.390625 47.125 36.375 
Q 47.125 51.421875 43.28125 58.90625 
Q 39.453125 66.40625 31.78125 66.40625 
z
M 31.78125 74.21875 
Q 44.046875 74.21875 50.515625 64.515625 
Q 56.984375 54.828125 56.984375 36.375 
Q 56.984375 17.96875 50.515625 8.265625 
Q 44.046875 -1.421875 31.78125 -1.421875 
Q 19.53125 -1.421875 13.0625 8.265625 
Q 6.59375 17.96875 6.59375 36.375 
Q 6.59375 54.828125 13.0625 64.515625 
Q 19.53125 74.21875 31.78125 74.21875 
z
" id="DejaVuSans-30"/>
      </defs>
      <g transform="translate(59.692123 303.028562)scale(0.1 -0.1)">
       <use xlink:href="#DejaVuSans-30"/>
      </g>
     </g>
    </g>
    <g id="xtick_2">
     <g id="line2d_2">
      <g>
       <use style="stroke:#000000;stroke-width:0.8;" x="127.869278" xlink:href="#m09a2ee69fd" y="288.430125"/>
      </g>
     </g>
     <g id="text_2">
      <!-- 200 -->
      <defs>
       <path d="M 19.1875 8.296875 
L 53.609375 8.296875 
L 53.609375 0 
L 7.328125 0 
L 7.328125 8.296875 
Q 12.9375 14.109375 22.625 23.890625 
Q 32.328125 33.6875 34.8125 36.53125 
Q 39.546875 41.84375 41.421875 45.53125 
Q 43.3125 49.21875 43.3125 52.78125 
Q 43.3125 58.59375 39.234375 62.25 
Q 35.15625 65.921875 28.609375 65.921875 
Q 23.96875 65.921875 18.8125 64.3125 
Q 13.671875 62.703125 7.8125 59.421875 
L 7.8125 69.390625 
Q 13.765625 71.78125 18.9375 73 
Q 24.125 74.21875 28.421875 74.21875 
Q 39.75 74.21875 46.484375 68.546875 
Q 53.21875 62.890625 53.21875 53.421875 
Q 53.21875 48.921875 51.53125 44.890625 
Q 49.859375 40.875 45.40625 35.40625 
Q 44.1875 33.984375 37.640625 27.21875 
Q 31.109375 20.453125 19.1875 8.296875 
z
" id="DejaVuSans-32"/>
      </defs>
      <g transform="translate(118.325528 303.028562)scale(0.1 -0.1)">
       <use xlink:href="#DejaVuSans-32"/>
       <use x="63.623047" xlink:href="#DejaVuSans-30"/>
       <use x="127.246094" xlink:href="#DejaVuSans-30"/>
      </g>
     </g>
    </g>
    <g id="xtick_3">
     <g id="line2d_3">
      <g>
       <use style="stroke:#000000;stroke-width:0.8;" x="192.865183" xlink:href="#m09a2ee69fd" y="288.430125"/>
      </g>
     </g>
     <g id="text_3">
      <!-- 400 -->
      <defs>
       <path d="M 37.796875 64.3125 
L 12.890625 25.390625 
L 37.796875 25.390625 
z
M 35.203125 72.90625 
L 47.609375 72.90625 
L 47.609375 25.390625 
L 58.015625 25.390625 
L 58.015625 17.1875 
L 47.609375 17.1875 
L 47.609375 0 
L 37.796875 0 
L 37.796875 17.1875 
L 4.890625 17.1875 
L 4.890625 26.703125 
z
" id="DejaVuSans-34"/>
      </defs>
      <g transform="translate(183.321433 303.028562)scale(0.1 -0.1)">
       <use xlink:href="#DejaVuSans-34"/>
       <use x="63.623047" xlink:href="#DejaVuSans-30"/>
       <use x="127.246094" xlink:href="#DejaVuSans-30"/>
      </g>
     </g>
    </g>
    <g id="xtick_4">
     <g id="line2d_4">
      <g>
       <use style="stroke:#000000;stroke-width:0.8;" x="257.861088" xlink:href="#m09a2ee69fd" y="288.430125"/>
      </g>
     </g>
     <g id="text_4">
      <!-- 600 -->
      <defs>
       <path d="M 33.015625 40.375 
Q 26.375 40.375 22.484375 35.828125 
Q 18.609375 31.296875 18.609375 23.390625 
Q 18.609375 15.53125 22.484375 10.953125 
Q 26.375 6.390625 33.015625 6.390625 
Q 39.65625 6.390625 43.53125 10.953125 
Q 47.40625 15.53125 47.40625 23.390625 
Q 47.40625 31.296875 43.53125 35.828125 
Q 39.65625 40.375 33.015625 40.375 
z
M 52.59375 71.296875 
L 52.59375 62.3125 
Q 48.875 64.0625 45.09375 64.984375 
Q 41.3125 65.921875 37.59375 65.921875 
Q 27.828125 65.921875 22.671875 59.328125 
Q 17.53125 52.734375 16.796875 39.40625 
Q 19.671875 43.65625 24.015625 45.921875 
Q 28.375 48.1875 33.59375 48.1875 
Q 44.578125 48.1875 50.953125 41.515625 
Q 57.328125 34.859375 57.328125 23.390625 
Q 57.328125 12.15625 50.6875 5.359375 
Q 44.046875 -1.421875 33.015625 -1.421875 
Q 20.359375 -1.421875 13.671875 8.265625 
Q 6.984375 17.96875 6.984375 36.375 
Q 6.984375 53.65625 15.1875 63.9375 
Q 23.390625 74.21875 37.203125 74.21875 
Q 40.921875 74.21875 44.703125 73.484375 
Q 48.484375 72.75 52.59375 71.296875 
z
" id="DejaVuSans-36"/>
      </defs>
      <g transform="translate(248.317338 303.028562)scale(0.1 -0.1)">
       <use xlink:href="#DejaVuSans-36"/>
       <use x="63.623047" xlink:href="#DejaVuSans-30"/>
       <use x="127.246094" xlink:href="#DejaVuSans-30"/>
      </g>
     </g>
    </g>
    <g id="xtick_5">
     <g id="line2d_5">
      <g>
       <use style="stroke:#000000;stroke-width:0.8;" x="322.856993" xlink:href="#m09a2ee69fd" y="288.430125"/>
      </g>
     </g>
     <g id="text_5">
      <!-- 800 -->
      <defs>
       <path d="M 31.78125 34.625 
Q 24.75 34.625 20.71875 30.859375 
Q 16.703125 27.09375 16.703125 20.515625 
Q 16.703125 13.921875 20.71875 10.15625 
Q 24.75 6.390625 31.78125 6.390625 
Q 38.8125 6.390625 42.859375 10.171875 
Q 46.921875 13.96875 46.921875 20.515625 
Q 46.921875 27.09375 42.890625 30.859375 
Q 38.875 34.625 31.78125 34.625 
z
M 21.921875 38.8125 
Q 15.578125 40.375 12.03125 44.71875 
Q 8.5 49.078125 8.5 55.328125 
Q 8.5 64.0625 14.71875 69.140625 
Q 20.953125 74.21875 31.78125 74.21875 
Q 42.671875 74.21875 48.875 69.140625 
Q 55.078125 64.0625 55.078125 55.328125 
Q 55.078125 49.078125 51.53125 44.71875 
Q 48 40.375 41.703125 38.8125 
Q 48.828125 37.15625 52.796875 32.3125 
Q 56.78125 27.484375 56.78125 20.515625 
Q 56.78125 9.90625 50.3125 4.234375 
Q 43.84375 -1.421875 31.78125 -1.421875 
Q 19.734375 -1.421875 13.25 4.234375 
Q 6.78125 9.90625 6.78125 20.515625 
Q 6.78125 27.484375 10.78125 32.3125 
Q 14.796875 37.15625 21.921875 38.8125 
z
M 18.3125 54.390625 
Q 18.3125 48.734375 21.84375 45.5625 
Q 25.390625 42.390625 31.78125 42.390625 
Q 38.140625 42.390625 41.71875 45.5625 
Q 45.3125 48.734375 45.3125 54.390625 
Q 45.3125 60.0625 41.71875 63.234375 
Q 38.140625 66.40625 31.78125 66.40625 
Q 25.390625 66.40625 21.84375 63.234375 
Q 18.3125 60.0625 18.3125 54.390625 
z
" id="DejaVuSans-38"/>
      </defs>
      <g transform="translate(313.313243 303.028562)scale(0.1 -0.1)">
       <use xlink:href="#DejaVuSans-38"/>
       <use x="63.623047" xlink:href="#DejaVuSans-30"/>
       <use x="127.246094" xlink:href="#DejaVuSans-30"/>
      </g>
     </g>
    </g>
    <g id="xtick_6">
     <g id="line2d_6">
      <g>
       <use style="stroke:#000000;stroke-width:0.8;" x="387.852898" xlink:href="#m09a2ee69fd" y="288.430125"/>
      </g>
     </g>
     <g id="text_6">
      <!-- 1000 -->
      <defs>
       <path d="M 12.40625 8.296875 
L 28.515625 8.296875 
L 28.515625 63.921875 
L 10.984375 60.40625 
L 10.984375 69.390625 
L 28.421875 72.90625 
L 38.28125 72.90625 
L 38.28125 8.296875 
L 54.390625 8.296875 
L 54.390625 0 
L 12.40625 0 
z
" id="DejaVuSans-31"/>
      </defs>
      <g transform="translate(375.127898 303.028562)scale(0.1 -0.1)">
       <use xlink:href="#DejaVuSans-31"/>
       <use x="63.623047" xlink:href="#DejaVuSans-30"/>
       <use x="127.246094" xlink:href="#DejaVuSans-30"/>
       <use x="190.869141" xlink:href="#DejaVuSans-30"/>
      </g>
     </g>
    </g>
    <g id="text_7">
     <!-- episode -->
     <defs>
      <path d="M 56.203125 29.59375 
L 56.203125 25.203125 
L 14.890625 25.203125 
Q 15.484375 15.921875 20.484375 11.0625 
Q 25.484375 6.203125 34.421875 6.203125 
Q 39.59375 6.203125 44.453125 7.46875 
Q 49.3125 8.734375 54.109375 11.28125 
L 54.109375 2.78125 
Q 49.265625 0.734375 44.1875 -0.34375 
Q 39.109375 -1.421875 33.890625 -1.421875 
Q 20.796875 -1.421875 13.15625 6.1875 
Q 5.515625 13.8125 5.515625 26.8125 
Q 5.515625 40.234375 12.765625 48.109375 
Q 20.015625 56 32.328125 56 
Q 43.359375 56 49.78125 48.890625 
Q 56.203125 41.796875 56.203125 29.59375 
z
M 47.21875 32.234375 
Q 47.125 39.59375 43.09375 43.984375 
Q 39.0625 48.390625 32.421875 48.390625 
Q 24.90625 48.390625 20.390625 44.140625 
Q 15.875 39.890625 15.1875 32.171875 
z
" id="DejaVuSans-65"/>
      <path d="M 18.109375 8.203125 
L 18.109375 -20.796875 
L 9.078125 -20.796875 
L 9.078125 54.6875 
L 18.109375 54.6875 
L 18.109375 46.390625 
Q 20.953125 51.265625 25.265625 53.625 
Q 29.59375 56 35.59375 56 
Q 45.5625 56 51.78125 48.09375 
Q 58.015625 40.1875 58.015625 27.296875 
Q 58.015625 14.40625 51.78125 6.484375 
Q 45.5625 -1.421875 35.59375 -1.421875 
Q 29.59375 -1.421875 25.265625 0.953125 
Q 20.953125 3.328125 18.109375 8.203125 
z
M 48.6875 27.296875 
Q 48.6875 37.203125 44.609375 42.84375 
Q 40.53125 48.484375 33.40625 48.484375 
Q 26.265625 48.484375 22.1875 42.84375 
Q 18.109375 37.203125 18.109375 27.296875 
Q 18.109375 17.390625 22.1875 11.75 
Q 26.265625 6.109375 33.40625 6.109375 
Q 40.53125 6.109375 44.609375 11.75 
Q 48.6875 17.390625 48.6875 27.296875 
z
" id="DejaVuSans-70"/>
      <path d="M 9.421875 54.6875 
L 18.40625 54.6875 
L 18.40625 0 
L 9.421875 0 
z
M 9.421875 75.984375 
L 18.40625 75.984375 
L 18.40625 64.59375 
L 9.421875 64.59375 
z
" id="DejaVuSans-69"/>
      <path d="M 44.28125 53.078125 
L 44.28125 44.578125 
Q 40.484375 46.53125 36.375 47.5 
Q 32.28125 48.484375 27.875 48.484375 
Q 21.1875 48.484375 17.84375 46.4375 
Q 14.5 44.390625 14.5 40.28125 
Q 14.5 37.15625 16.890625 35.375 
Q 19.28125 33.59375 26.515625 31.984375 
L 29.59375 31.296875 
Q 39.15625 29.25 43.1875 25.515625 
Q 47.21875 21.78125 47.21875 15.09375 
Q 47.21875 7.46875 41.1875 3.015625 
Q 35.15625 -1.421875 24.609375 -1.421875 
Q 20.21875 -1.421875 15.453125 -0.5625 
Q 10.6875 0.296875 5.421875 2 
L 5.421875 11.28125 
Q 10.40625 8.6875 15.234375 7.390625 
Q 20.0625 6.109375 24.8125 6.109375 
Q 31.15625 6.109375 34.5625 8.28125 
Q 37.984375 10.453125 37.984375 14.40625 
Q 37.984375 18.0625 35.515625 20.015625 
Q 33.0625 21.96875 24.703125 23.78125 
L 21.578125 24.515625 
Q 13.234375 26.265625 9.515625 29.90625 
Q 5.8125 33.546875 5.8125 39.890625 
Q 5.8125 47.609375 11.28125 51.796875 
Q 16.75 56 26.8125 56 
Q 31.78125 56 36.171875 55.265625 
Q 40.578125 54.546875 44.28125 53.078125 
z
" id="DejaVuSans-73"/>
      <path d="M 30.609375 48.390625 
Q 23.390625 48.390625 19.1875 42.75 
Q 14.984375 37.109375 14.984375 27.296875 
Q 14.984375 17.484375 19.15625 11.84375 
Q 23.34375 6.203125 30.609375 6.203125 
Q 37.796875 6.203125 41.984375 11.859375 
Q 46.1875 17.53125 46.1875 27.296875 
Q 46.1875 37.015625 41.984375 42.703125 
Q 37.796875 48.390625 30.609375 48.390625 
z
M 30.609375 56 
Q 42.328125 56 49.015625 48.375 
Q 55.71875 40.765625 55.71875 27.296875 
Q 55.71875 13.875 49.015625 6.21875 
Q 42.328125 -1.421875 30.609375 -1.421875 
Q 18.84375 -1.421875 12.171875 6.21875 
Q 5.515625 13.875 5.515625 27.296875 
Q 5.515625 40.765625 12.171875 48.375 
Q 18.84375 56 30.609375 56 
z
" id="DejaVuSans-6f"/>
      <path d="M 45.40625 46.390625 
L 45.40625 75.984375 
L 54.390625 75.984375 
L 54.390625 0 
L 45.40625 0 
L 45.40625 8.203125 
Q 42.578125 3.328125 38.25 0.953125 
Q 33.9375 -1.421875 27.875 -1.421875 
Q 17.96875 -1.421875 11.734375 6.484375 
Q 5.515625 14.40625 5.515625 27.296875 
Q 5.515625 40.1875 11.734375 48.09375 
Q 17.96875 56 27.875 56 
Q 33.9375 56 38.25 53.625 
Q 42.578125 51.265625 45.40625 46.390625 
z
M 14.796875 27.296875 
Q 14.796875 17.390625 18.875 11.75 
Q 22.953125 6.109375 30.078125 6.109375 
Q 37.203125 6.109375 41.296875 11.75 
Q 45.40625 17.390625 45.40625 27.296875 
Q 45.40625 37.203125 41.296875 42.84375 
Q 37.203125 48.484375 30.078125 48.484375 
Q 22.953125 48.484375 18.875 42.84375 
Q 14.796875 37.203125 14.796875 27.296875 
z
" id="DejaVuSans-64"/>
     </defs>
     <g transform="translate(205.970938 316.706687)scale(0.1 -0.1)">
      <use xlink:href="#DejaVuSans-65"/>
      <use x="61.523438" xlink:href="#DejaVuSans-70"/>
      <use x="125" xlink:href="#DejaVuSans-69"/>
      <use x="152.783203" xlink:href="#DejaVuSans-73"/>
      <use x="204.882812" xlink:href="#DejaVuSans-6f"/>
      <use x="266.064453" xlink:href="#DejaVuSans-64"/>
      <use x="329.541016" xlink:href="#DejaVuSans-65"/>
     </g>
    </g>
   </g>
   <g id="matplotlib.axis_2">
    <g id="ytick_1">
     <g id="line2d_7">
      <defs>
       <path d="M 0 0 
L -3.5 0 
" id="m89a09ed62d" style="stroke:#000000;stroke-width:0.8;"/>
      </defs>
      <g>
       <use style="stroke:#000000;stroke-width:0.8;" x="46.965625" xlink:href="#m89a09ed62d" y="283.777817"/>
      </g>
     </g>
     <g id="text_8">
      <!-- 0 -->
      <g transform="translate(33.603125 287.577036)scale(0.1 -0.1)">
       <use xlink:href="#DejaVuSans-30"/>
      </g>
     </g>
    </g>
    <g id="ytick_2">
     <g id="line2d_8">
      <g>
       <use style="stroke:#000000;stroke-width:0.8;" x="46.965625" xlink:href="#m89a09ed62d" y="252.762433"/>
      </g>
     </g>
     <g id="text_9">
      <!-- 25 -->
      <defs>
       <path d="M 10.796875 72.90625 
L 49.515625 72.90625 
L 49.515625 64.59375 
L 19.828125 64.59375 
L 19.828125 46.734375 
Q 21.96875 47.46875 24.109375 47.828125 
Q 26.265625 48.1875 28.421875 48.1875 
Q 40.625 48.1875 47.75 41.5 
Q 54.890625 34.8125 54.890625 23.390625 
Q 54.890625 11.625 47.5625 5.09375 
Q 40.234375 -1.421875 26.90625 -1.421875 
Q 22.3125 -1.421875 17.546875 -0.640625 
Q 12.796875 0.140625 7.71875 1.703125 
L 7.71875 11.625 
Q 12.109375 9.234375 16.796875 8.0625 
Q 21.484375 6.890625 26.703125 6.890625 
Q 35.15625 6.890625 40.078125 11.328125 
Q 45.015625 15.765625 45.015625 23.390625 
Q 45.015625 31 40.078125 35.4375 
Q 35.15625 39.890625 26.703125 39.890625 
Q 22.75 39.890625 18.8125 39.015625 
Q 14.890625 38.140625 10.796875 36.28125 
z
" id="DejaVuSans-35"/>
      </defs>
      <g transform="translate(27.240625 256.561651)scale(0.1 -0.1)">
       <use xlink:href="#DejaVuSans-32"/>
       <use x="63.623047" xlink:href="#DejaVuSans-35"/>
      </g>
     </g>
    </g>
    <g id="ytick_3">
     <g id="line2d_9">
      <g>
       <use style="stroke:#000000;stroke-width:0.8;" x="46.965625" xlink:href="#m89a09ed62d" y="221.747048"/>
      </g>
     </g>
     <g id="text_10">
      <!-- 50 -->
      <g transform="translate(27.240625 225.546267)scale(0.1 -0.1)">
       <use xlink:href="#DejaVuSans-35"/>
       <use x="63.623047" xlink:href="#DejaVuSans-30"/>
      </g>
     </g>
    </g>
    <g id="ytick_4">
     <g id="line2d_10">
      <g>
       <use style="stroke:#000000;stroke-width:0.8;" x="46.965625" xlink:href="#m89a09ed62d" y="190.731663"/>
      </g>
     </g>
     <g id="text_11">
      <!-- 75 -->
      <defs>
       <path d="M 8.203125 72.90625 
L 55.078125 72.90625 
L 55.078125 68.703125 
L 28.609375 0 
L 18.3125 0 
L 43.21875 64.59375 
L 8.203125 64.59375 
z
" id="DejaVuSans-37"/>
      </defs>
      <g transform="translate(27.240625 194.530882)scale(0.1 -0.1)">
       <use xlink:href="#DejaVuSans-37"/>
       <use x="63.623047" xlink:href="#DejaVuSans-35"/>
      </g>
     </g>
    </g>
    <g id="ytick_5">
     <g id="line2d_11">
      <g>
       <use style="stroke:#000000;stroke-width:0.8;" x="46.965625" xlink:href="#m89a09ed62d" y="159.716279"/>
      </g>
     </g>
     <g id="text_12">
      <!-- 100 -->
      <g transform="translate(20.878125 163.515498)scale(0.1 -0.1)">
       <use xlink:href="#DejaVuSans-31"/>
       <use x="63.623047" xlink:href="#DejaVuSans-30"/>
       <use x="127.246094" xlink:href="#DejaVuSans-30"/>
      </g>
     </g>
    </g>
    <g id="ytick_6">
     <g id="line2d_12">
      <g>
       <use style="stroke:#000000;stroke-width:0.8;" x="46.965625" xlink:href="#m89a09ed62d" y="128.700894"/>
      </g>
     </g>
     <g id="text_13">
      <!-- 125 -->
      <g transform="translate(20.878125 132.500113)scale(0.1 -0.1)">
       <use xlink:href="#DejaVuSans-31"/>
       <use x="63.623047" xlink:href="#DejaVuSans-32"/>
       <use x="127.246094" xlink:href="#DejaVuSans-35"/>
      </g>
     </g>
    </g>
    <g id="ytick_7">
     <g id="line2d_13">
      <g>
       <use style="stroke:#000000;stroke-width:0.8;" x="46.965625" xlink:href="#m89a09ed62d" y="97.68551"/>
      </g>
     </g>
     <g id="text_14">
      <!-- 150 -->
      <g transform="translate(20.878125 101.484728)scale(0.1 -0.1)">
       <use xlink:href="#DejaVuSans-31"/>
       <use x="63.623047" xlink:href="#DejaVuSans-35"/>
       <use x="127.246094" xlink:href="#DejaVuSans-30"/>
      </g>
     </g>
    </g>
    <g id="ytick_8">
     <g id="line2d_14">
      <g>
       <use style="stroke:#000000;stroke-width:0.8;" x="46.965625" xlink:href="#m89a09ed62d" y="66.670125"/>
      </g>
     </g>
     <g id="text_15">
      <!-- 175 -->
      <g transform="translate(20.878125 70.469344)scale(0.1 -0.1)">
       <use xlink:href="#DejaVuSans-31"/>
       <use x="63.623047" xlink:href="#DejaVuSans-37"/>
       <use x="127.246094" xlink:href="#DejaVuSans-35"/>
      </g>
     </g>
    </g>
    <g id="ytick_9">
     <g id="line2d_15">
      <g>
       <use style="stroke:#000000;stroke-width:0.8;" x="46.965625" xlink:href="#m89a09ed62d" y="35.65474"/>
      </g>
     </g>
     <g id="text_16">
      <!-- 200 -->
      <g transform="translate(20.878125 39.453959)scale(0.1 -0.1)">
       <use xlink:href="#DejaVuSans-32"/>
       <use x="63.623047" xlink:href="#DejaVuSans-30"/>
       <use x="127.246094" xlink:href="#DejaVuSans-30"/>
      </g>
     </g>
    </g>
    <g id="text_17">
     <!-- steps -->
     <defs>
      <path d="M 18.3125 70.21875 
L 18.3125 54.6875 
L 36.8125 54.6875 
L 36.8125 47.703125 
L 18.3125 47.703125 
L 18.3125 18.015625 
Q 18.3125 11.328125 20.140625 9.421875 
Q 21.96875 7.515625 27.59375 7.515625 
L 36.8125 7.515625 
L 36.8125 0 
L 27.59375 0 
Q 17.1875 0 13.234375 3.875 
Q 9.28125 7.765625 9.28125 18.015625 
L 9.28125 47.703125 
L 2.6875 47.703125 
L 2.6875 54.6875 
L 9.28125 54.6875 
L 9.28125 70.21875 
z
" id="DejaVuSans-74"/>
     </defs>
     <g transform="translate(14.798438 168.794437)rotate(-90)scale(0.1 -0.1)">
      <use xlink:href="#DejaVuSans-73"/>
      <use x="52.099609" xlink:href="#DejaVuSans-74"/>
      <use x="91.308594" xlink:href="#DejaVuSans-65"/>
      <use x="152.832031" xlink:href="#DejaVuSans-70"/>
      <use x="216.308594" xlink:href="#DejaVuSans-73"/>
     </g>
    </g>
   </g>
   <g id="line2d_16">
    <path clip-path="url(#p4ac017d2ba)" d="M 63.198352 34.414125 
L 64.173291 34.414125 
L 64.49827 190.731663 
L 64.82325 34.414125 
L 69.372963 34.414125 
L 69.697943 49.30151 
L 70.022922 34.414125 
L 76.197533 34.414125 
L 76.522513 89.001202 
L 76.847492 34.414125 
L 78.14741 34.414125 
L 78.47239 261.44674 
L 78.797369 34.414125 
L 80.747247 34.414125 
L 81.072226 213.06274 
L 81.397206 34.414125 
L 82.047165 34.414125 
L 82.372144 256.484279 
L 82.697124 34.414125 
L 85.621939 34.414125 
L 85.946919 100.16674 
L 86.271899 34.414125 
L 96.996223 34.414125 
L 97.321202 177.084894 
L 97.646182 34.414125 
L 105.445691 34.414125 
L 105.77067 129.94151 
L 106.09565 34.414125 
L 108.370506 34.414125 
L 108.695486 255.243663 
L 109.020465 34.414125 
L 109.995404 34.414125 
L 110.320383 271.371663 
L 110.645363 34.414125 
L 112.59524 34.414125 
L 112.92022 59.226433 
L 113.245199 34.414125 
L 115.520056 34.414125 
L 115.845035 146.06951 
L 116.170015 34.414125 
L 119.41981 34.414125 
L 119.74479 218.025202 
L 120.069769 34.414125 
L 121.044708 34.414125 
L 121.369687 95.204279 
L 121.694667 34.414125 
L 125.269442 34.414125 
L 125.594421 204.378433 
L 125.919401 34.414125 
L 137.293684 34.414125 
L 137.618663 89.001202 
L 137.943643 34.414125 
L 144.443234 34.414125 
L 144.768213 200.656587 
L 145.093193 34.414125 
L 145.418172 34.414125 
L 145.743152 221.747048 
L 146.068131 34.414125 
L 147.368049 34.414125 
L 147.693029 191.972279 
L 148.018008 34.414125 
L 149.642906 34.414125 
L 149.967885 132.42274 
L 150.292865 34.414125 
L 152.242742 34.414125 
L 152.567722 209.340894 
L 152.892701 34.414125 
L 156.792455 34.414125 
L 157.117435 239.115663 
L 157.442415 34.414125 
L 159.392292 34.414125 
L 159.717271 189.491048 
L 160.042251 34.414125 
L 160.69221 34.414125 
L 161.017189 247.799971 
L 161.342169 34.414125 
L 162.967066 34.414125 
L 163.292046 273.852894 
L 163.617025 34.414125 
L 165.566903 34.414125 
L 165.891882 273.852894 
L 166.216862 34.414125 
L 167.1918 34.414125 
L 167.51678 201.897202 
L 167.841759 34.414125 
L 172.716452 34.414125 
L 173.041432 262.687356 
L 173.366411 34.414125 
L 173.691391 190.731663 
L 174.01637 34.414125 
L 174.34135 262.687356 
L 174.666329 255.243663 
L 174.991309 34.414125 
L 175.316288 235.393817 
L 175.641268 254.003048 
L 175.966247 34.414125 
L 176.291227 34.414125 
L 176.616206 271.371663 
L 176.941186 34.414125 
L 178.566084 34.414125 
L 178.891063 257.724894 
L 179.216043 34.414125 
L 179.541022 34.414125 
L 179.866002 193.212894 
L 180.190981 34.414125 
L 184.090736 34.414125 
L 184.415715 265.168587 
L 184.740695 34.414125 
L 187.99049 34.414125 
L 188.315469 250.281202 
L 188.640449 34.414125 
L 188.965428 34.414125 
L 189.290408 265.168587 
L 189.615387 34.414125 
L 190.915306 34.414125 
L 191.240285 102.647971 
L 191.565265 34.414125 
L 191.890244 162.19751 
L 192.215224 34.414125 
L 193.190162 34.414125 
L 193.515142 117.535356 
L 193.840121 266.409202 
L 194.165101 34.414125 
L 195.789998 34.414125 
L 196.114978 240.356279 
L 196.439958 34.414125 
L 198.714814 34.414125 
L 199.039794 251.521817 
L 199.364773 34.414125 
L 200.014732 116.29474 
L 200.339712 34.414125 
L 200.664691 108.851048 
L 200.989671 34.414125 
L 201.63963 34.414125 
L 201.964609 69.151356 
L 202.289589 256.484279 
L 202.614568 34.414125 
L 202.939548 57.985817 
L 203.264528 34.414125 
L 205.214405 34.414125 
L 205.539384 255.243663 
L 205.864364 34.414125 
L 207.814241 34.414125 
L 208.13922 168.400587 
L 208.4642 34.414125 
L 211.713995 34.414125 
L 212.038975 263.927971 
L 212.363954 34.414125 
L 215.613749 34.414125 
L 215.938729 273.852894 
L 216.263709 34.414125 
L 216.588688 257.724894 
L 216.913668 34.414125 
L 217.238647 105.129202 
L 217.563627 34.414125 
L 219.188524 34.414125 
L 219.513504 263.927971 
L 219.838483 34.414125 
L 220.813422 34.414125 
L 221.138401 225.468894 
L 221.463381 34.414125 
L 224.388197 34.414125 
L 224.713176 79.076279 
L 225.038156 219.265817 
L 225.363135 34.414125 
L 229.587869 34.414125 
L 229.912849 55.504587 
L 230.237828 90.241817 
L 230.562808 34.414125 
L 230.887787 34.414125 
L 231.212767 36.895356 
L 231.537746 139.866433 
L 231.862726 34.414125 
L 234.137582 34.414125 
L 234.462562 245.31874 
L 234.787541 34.414125 
L 235.112521 34.414125 
L 235.437501 273.852894 
L 235.76248 34.414125 
L 236.737419 34.414125 
L 237.062398 252.762433 
L 237.387378 34.414125 
L 237.712357 246.559356 
L 238.037337 75.354433 
L 238.362316 34.414125 
L 240.637173 34.414125 
L 240.962152 103.888587 
L 241.287132 34.414125 
L 241.612111 34.414125 
L 241.937091 263.927971 
L 242.262071 230.431356 
L 242.58705 34.414125 
L 243.237009 34.414125 
L 243.561989 257.724894 
L 243.886968 34.414125 
L 246.161825 34.414125 
L 246.486804 139.866433 
L 246.811784 34.414125 
L 247.461743 34.414125 
L 247.786722 240.356279 
L 248.111702 34.414125 
L 248.436682 226.70951 
L 248.761661 34.414125 
L 249.086641 34.414125 
L 249.41162 211.822125 
L 249.7366 34.414125 
L 250.386559 34.414125 
L 250.711538 249.040587 
L 251.036518 34.414125 
L 251.686477 34.414125 
L 252.011456 266.409202 
L 252.336436 210.58151 
L 252.661415 34.414125 
L 252.986395 102.647971 
L 253.311374 231.671971 
L 253.636354 34.414125 
L 253.961333 229.19074 
L 254.286313 244.078125 
L 254.611292 34.414125 
L 255.261252 34.414125 
L 255.586231 226.70951 
L 255.911211 273.852894 
L 256.23619 34.414125 
L 257.536108 34.414125 
L 257.861088 180.80674 
L 258.186067 203.137817 
L 258.511047 44.339048 
L 258.836026 34.414125 
L 259.161006 265.168587 
L 259.485985 57.985817 
L 259.810965 34.414125 
L 260.135944 34.414125 
L 260.460924 229.19074 
L 260.785903 34.414125 
L 262.735781 34.414125 
L 263.06076 262.687356 
L 263.38574 34.414125 
L 264.035699 34.414125 
L 264.360678 218.025202 
L 264.685658 34.414125 
L 265.010637 126.219663 
L 265.335617 34.414125 
L 267.610473 34.414125 
L 267.935453 164.67874 
L 268.260433 34.414125 
L 268.910392 34.414125 
L 269.235371 50.542125 
L 269.560351 275.09351 
L 269.88533 276.334125 
L 270.21031 275.09351 
L 270.535289 34.414125 
L 270.860269 164.67874 
L 271.510228 267.649817 
L 271.835207 34.414125 
L 272.160187 34.414125 
L 272.485166 226.70951 
L 272.810146 126.219663 
L 273.135125 102.647971 
L 273.460105 34.414125 
L 273.785084 261.44674 
L 274.110064 34.414125 
L 274.435044 273.852894 
L 274.760023 34.414125 
L 275.085003 251.521817 
L 275.409982 122.497817 
L 275.734962 105.129202 
L 276.059941 249.040587 
L 276.384921 34.414125 
L 277.359859 34.414125 
L 277.684839 270.131048 
L 278.009818 95.204279 
L 278.334798 34.414125 
L 278.659777 235.393817 
L 278.984757 245.31874 
L 279.309736 34.414125 
L 279.634716 34.414125 
L 279.959695 79.076279 
L 280.284675 34.414125 
L 280.609654 34.414125 
L 280.934634 252.762433 
L 281.259614 172.122433 
L 281.584593 268.890433 
L 281.909573 256.484279 
L 282.234552 34.414125 
L 283.85945 34.414125 
L 284.184429 239.115663 
L 284.509409 184.528587 
L 284.834388 174.603663 
L 285.159368 261.44674 
L 285.484347 34.414125 
L 285.809327 34.414125 
L 286.134306 255.243663 
L 286.459286 34.414125 
L 287.434225 34.414125 
L 287.759204 98.926125 
L 288.084184 34.414125 
L 288.409163 220.506433 
L 288.734143 34.414125 
L 289.059122 165.919356 
L 289.384102 230.431356 
L 289.709081 34.414125 
L 290.034061 240.356279 
L 290.35904 34.414125 
L 291.008999 34.414125 
L 291.333979 121.257202 
L 291.658958 34.414125 
L 292.958876 34.414125 
L 293.283856 143.588279 
L 293.608835 34.414125 
L 293.933815 203.137817 
L 294.258795 34.414125 
L 294.583774 34.414125 
L 294.908754 113.81351 
L 295.233733 34.414125 
L 300.433406 34.414125 
L 301.083365 221.747048 
L 301.408344 34.414125 
L 301.733324 34.414125 
L 302.058303 195.694125 
L 302.383283 34.414125 
L 302.708262 191.972279 
L 303.033242 235.393817 
L 303.358221 92.723048 
L 303.683201 34.414125 
L 304.00818 199.415971 
L 304.33316 198.175356 
L 304.658139 215.543971 
L 304.983119 34.414125 
L 305.633078 34.414125 
L 305.958057 80.316894 
L 306.283037 34.414125 
L 307.907935 34.414125 
L 308.232914 215.543971 
L 308.882873 34.414125 
L 309.207853 118.775971 
L 309.532832 34.414125 
L 309.857812 34.414125 
L 310.182791 159.716279 
L 310.507771 34.414125 
L 310.83275 57.985817 
L 311.15773 34.414125 
L 312.132668 34.414125 
L 312.457648 92.723048 
L 312.782627 262.687356 
L 313.107607 34.414125 
L 314.732505 34.414125 
L 315.382464 136.144587 
L 315.707443 122.497817 
L 316.032423 34.414125 
L 316.357402 132.42274 
L 316.682382 34.414125 
L 317.332341 34.414125 
L 317.65732 245.31874 
L 317.9823 34.414125 
L 318.307279 34.414125 
L 318.632259 36.895356 
L 318.957238 34.414125 
L 319.932177 34.414125 
L 320.257157 222.987663 
L 320.582136 34.414125 
L 321.232095 34.414125 
L 321.557075 138.625817 
L 321.882054 34.414125 
L 322.532013 34.414125 
L 322.856993 245.31874 
L 323.181972 34.414125 
L 323.506952 34.414125 
L 323.831931 199.415971 
L 324.156911 34.414125 
L 324.48189 95.204279 
L 324.80687 34.414125 
L 325.456829 34.414125 
L 325.781808 182.047356 
L 326.106788 34.414125 
L 326.431768 34.414125 
L 326.756747 220.506433 
L 327.081727 59.226433 
L 327.406706 196.93474 
L 327.731686 237.875048 
L 328.056665 34.414125 
L 329.356583 34.414125 
L 329.681563 41.857817 
L 330.006542 34.414125 
L 330.331522 34.414125 
L 330.656501 244.078125 
L 330.981481 34.414125 
L 332.931358 34.414125 
L 333.256338 227.950125 
L 333.581317 245.31874 
L 333.906297 194.45351 
L 334.231276 255.243663 
L 334.556256 34.414125 
L 334.881235 245.31874 
L 335.206215 34.414125 
L 335.531194 34.414125 
L 336.181153 219.265817 
L 336.506133 34.414125 
L 337.156092 34.414125 
L 337.481071 111.332279 
L 337.806051 34.414125 
L 338.13103 115.054125 
L 338.45601 34.414125 
L 338.780989 59.226433 
L 339.105969 174.603663 
L 339.430949 82.798125 
L 339.755928 34.414125 
L 341.055846 34.414125 
L 341.380826 173.363048 
L 341.705805 133.663356 
L 342.030785 34.414125 
L 342.355764 34.414125 
L 342.680744 189.491048 
L 343.005723 34.414125 
L 343.330703 244.078125 
L 343.655682 34.414125 
L 346.580498 34.414125 
L 346.905478 158.475663 
L 347.230457 34.414125 
L 347.555437 170.881817 
L 347.880416 34.414125 
L 348.205396 249.040587 
L 348.530375 77.835663 
L 348.855355 206.859663 
L 349.180334 34.414125 
L 349.505314 34.414125 
L 349.830293 247.799971 
L 350.155273 34.414125 
L 350.480252 237.875048 
L 350.805232 34.414125 
L 351.130211 34.414125 
L 351.455191 245.31874 
L 351.78017 252.762433 
L 352.10515 34.414125 
L 354.055027 34.414125 
L 354.380007 244.078125 
L 354.704986 34.414125 
L 355.029966 34.414125 
L 355.354945 131.182125 
L 355.679925 141.107048 
L 356.004904 34.414125 
L 356.979843 34.414125 
L 357.304822 191.972279 
L 357.629802 34.414125 
L 359.2547 34.414125 
L 359.904659 173.363048 
L 360.229638 34.414125 
L 360.554618 34.414125 
L 360.879597 219.265817 
L 361.204577 34.414125 
L 361.529556 221.747048 
L 361.854536 193.212894 
L 362.179515 236.634433 
L 362.504495 34.414125 
L 363.154454 34.414125 
L 363.479433 224.228279 
L 363.804413 34.414125 
L 364.454372 34.414125 
L 364.779351 131.182125 
L 365.104331 34.414125 
L 365.429311 232.912587 
L 365.75429 34.414125 
L 366.07927 34.414125 
L 366.404249 136.144587 
L 366.729229 147.310125 
L 367.054208 34.414125 
L 367.704167 34.414125 
L 368.029147 237.875048 
L 368.354126 34.414125 
L 368.679106 34.414125 
L 369.004085 242.83751 
L 369.329065 34.414125 
L 369.654044 231.671971 
L 369.979024 92.723048 
L 370.304003 71.632587 
L 370.628983 34.414125 
L 372.57886 34.414125 
L 372.90384 71.632587 
L 373.228819 34.414125 
L 373.553799 193.212894 
L 373.878778 170.881817 
L 374.528737 34.414125 
L 374.853717 245.31874 
L 375.178696 34.414125 
L 375.503676 118.775971 
L 375.828655 34.414125 
L 376.153635 71.632587 
L 376.478614 34.414125 
L 376.803594 34.414125 
L 377.128573 168.400587 
L 377.453553 241.596894 
L 377.778532 34.414125 
L 378.103512 51.78274 
L 378.428492 245.31874 
L 378.753471 34.414125 
L 379.40343 34.414125 
L 379.72841 245.31874 
L 380.053389 174.603663 
L 380.378369 245.31874 
L 380.703348 245.31874 
L 381.028328 244.078125 
L 381.353307 245.31874 
L 381.678287 34.414125 
L 382.978205 34.414125 
L 383.303184 252.762433 
L 383.628164 34.414125 
L 384.278123 34.414125 
L 384.603102 193.212894 
L 384.928082 34.414125 
L 385.253062 214.303356 
L 385.578041 79.076279 
L 385.903021 34.414125 
L 386.877959 34.414125 
L 387.202939 191.972279 
L 387.527918 34.414125 
L 387.852898 34.414125 
L 387.852898 34.414125 
" style="fill:none;stroke:#1f77b4;stroke-linecap:square;stroke-width:0.5;"/>
   </g>
   <g id="patch_3">
    <path d="M 46.965625 288.430125 
L 46.965625 22.318125 
" style="fill:none;stroke:#000000;stroke-linecap:square;stroke-linejoin:miter;stroke-width:0.8;"/>
   </g>
   <g id="patch_4">
    <path d="M 404.085625 288.430125 
L 404.085625 22.318125 
" style="fill:none;stroke:#000000;stroke-linecap:square;stroke-linejoin:miter;stroke-width:0.8;"/>
   </g>
   <g id="patch_5">
    <path d="M 46.965625 288.430125 
L 404.085625 288.430125 
" style="fill:none;stroke:#000000;stroke-linecap:square;stroke-linejoin:miter;stroke-width:0.8;"/>
   </g>
   <g id="patch_6">
    <path d="M 46.965625 22.318125 
L 404.085625 22.318125 
" style="fill:none;stroke:#000000;stroke-linecap:square;stroke-linejoin:miter;stroke-width:0.8;"/>
   </g>
   <g id="text_18">
    <!-- Steps performed per episode -->
    <defs>
     <path d="M 53.515625 70.515625 
L 53.515625 60.890625 
Q 47.90625 63.578125 42.921875 64.890625 
Q 37.9375 66.21875 33.296875 66.21875 
Q 25.25 66.21875 20.875 63.09375 
Q 16.5 59.96875 16.5 54.203125 
Q 16.5 49.359375 19.40625 46.890625 
Q 22.3125 44.4375 30.421875 42.921875 
L 36.375 41.703125 
Q 47.40625 39.59375 52.65625 34.296875 
Q 57.90625 29 57.90625 20.125 
Q 57.90625 9.515625 50.796875 4.046875 
Q 43.703125 -1.421875 29.984375 -1.421875 
Q 24.8125 -1.421875 18.96875 -0.25 
Q 13.140625 0.921875 6.890625 3.21875 
L 6.890625 13.375 
Q 12.890625 10.015625 18.65625 8.296875 
Q 24.421875 6.59375 29.984375 6.59375 
Q 38.421875 6.59375 43.015625 9.90625 
Q 47.609375 13.234375 47.609375 19.390625 
Q 47.609375 24.75 44.3125 27.78125 
Q 41.015625 30.8125 33.5 32.328125 
L 27.484375 33.5 
Q 16.453125 35.6875 11.515625 40.375 
Q 6.59375 45.0625 6.59375 53.421875 
Q 6.59375 63.09375 13.40625 68.65625 
Q 20.21875 74.21875 32.171875 74.21875 
Q 37.3125 74.21875 42.625 73.28125 
Q 47.953125 72.359375 53.515625 70.515625 
z
" id="DejaVuSans-53"/>
     <path id="DejaVuSans-20"/>
     <path d="M 41.109375 46.296875 
Q 39.59375 47.171875 37.8125 47.578125 
Q 36.03125 48 33.890625 48 
Q 26.265625 48 22.1875 43.046875 
Q 18.109375 38.09375 18.109375 28.8125 
L 18.109375 0 
L 9.078125 0 
L 9.078125 54.6875 
L 18.109375 54.6875 
L 18.109375 46.1875 
Q 20.953125 51.171875 25.484375 53.578125 
Q 30.03125 56 36.53125 56 
Q 37.453125 56 38.578125 55.875 
Q 39.703125 55.765625 41.0625 55.515625 
z
" id="DejaVuSans-72"/>
     <path d="M 37.109375 75.984375 
L 37.109375 68.5 
L 28.515625 68.5 
Q 23.6875 68.5 21.796875 66.546875 
Q 19.921875 64.59375 19.921875 59.515625 
L 19.921875 54.6875 
L 34.71875 54.6875 
L 34.71875 47.703125 
L 19.921875 47.703125 
L 19.921875 0 
L 10.890625 0 
L 10.890625 47.703125 
L 2.296875 47.703125 
L 2.296875 54.6875 
L 10.890625 54.6875 
L 10.890625 58.5 
Q 10.890625 67.625 15.140625 71.796875 
Q 19.390625 75.984375 28.609375 75.984375 
z
" id="DejaVuSans-66"/>
     <path d="M 52 44.1875 
Q 55.375 50.25 60.0625 53.125 
Q 64.75 56 71.09375 56 
Q 79.640625 56 84.28125 50.015625 
Q 88.921875 44.046875 88.921875 33.015625 
L 88.921875 0 
L 79.890625 0 
L 79.890625 32.71875 
Q 79.890625 40.578125 77.09375 44.375 
Q 74.3125 48.1875 68.609375 48.1875 
Q 61.625 48.1875 57.5625 43.546875 
Q 53.515625 38.921875 53.515625 30.90625 
L 53.515625 0 
L 44.484375 0 
L 44.484375 32.71875 
Q 44.484375 40.625 41.703125 44.40625 
Q 38.921875 48.1875 33.109375 48.1875 
Q 26.21875 48.1875 22.15625 43.53125 
Q 18.109375 38.875 18.109375 30.90625 
L 18.109375 0 
L 9.078125 0 
L 9.078125 54.6875 
L 18.109375 54.6875 
L 18.109375 46.1875 
Q 21.1875 51.21875 25.484375 53.609375 
Q 29.78125 56 35.6875 56 
Q 41.65625 56 45.828125 52.96875 
Q 50 49.953125 52 44.1875 
z
" id="DejaVuSans-6d"/>
    </defs>
    <g transform="translate(138.022188 16.318125)scale(0.12 -0.12)">
     <use xlink:href="#DejaVuSans-53"/>
     <use x="63.476562" xlink:href="#DejaVuSans-74"/>
     <use x="102.685547" xlink:href="#DejaVuSans-65"/>
     <use x="164.208984" xlink:href="#DejaVuSans-70"/>
     <use x="227.685547" xlink:href="#DejaVuSans-73"/>
     <use x="279.785156" xlink:href="#DejaVuSans-20"/>
     <use x="311.572266" xlink:href="#DejaVuSans-70"/>
     <use x="375.048828" xlink:href="#DejaVuSans-65"/>
     <use x="436.572266" xlink:href="#DejaVuSans-72"/>
     <use x="477.685547" xlink:href="#DejaVuSans-66"/>
     <use x="512.890625" xlink:href="#DejaVuSans-6f"/>
     <use x="574.072266" xlink:href="#DejaVuSans-72"/>
     <use x="615.169922" xlink:href="#DejaVuSans-6d"/>
     <use x="712.582031" xlink:href="#DejaVuSans-65"/>
     <use x="774.105469" xlink:href="#DejaVuSans-64"/>
     <use x="837.582031" xlink:href="#DejaVuSans-20"/>
     <use x="869.369141" xlink:href="#DejaVuSans-70"/>
     <use x="932.845703" xlink:href="#DejaVuSans-65"/>
     <use x="994.369141" xlink:href="#DejaVuSans-72"/>
     <use x="1035.482422" xlink:href="#DejaVuSans-20"/>
     <use x="1067.269531" xlink:href="#DejaVuSans-65"/>
     <use x="1128.792969" xlink:href="#DejaVuSans-70"/>
     <use x="1192.269531" xlink:href="#DejaVuSans-69"/>
     <use x="1220.052734" xlink:href="#DejaVuSans-73"/>
     <use x="1272.152344" xlink:href="#DejaVuSans-6f"/>
     <use x="1333.333984" xlink:href="#DejaVuSans-64"/>
     <use x="1396.810547" xlink:href="#DejaVuSans-65"/>
    </g>
   </g>
  </g>
 </g>
 <defs>
  <clipPath id="p4ac017d2ba">
   <rect height="266.112" width="357.12" x="46.965625" y="22.318125"/>
  </clipPath>
 </defs>
</svg>
