<?xml version="1.0" encoding="utf-8" standalone="no"?>
<!DOCTYPE svg PUBLIC "-//W3C//DTD SVG 1.1//EN"
  "http://www.w3.org/Graphics/SVG/1.1/DTD/svg11.dtd">
<!-- Created with matplotlib (http://matplotlib.org/) -->
<svg height="408pt" version="1.1" viewBox="0 0 515 408" width="515pt" xmlns="http://www.w3.org/2000/svg" xmlns:xlink="http://www.w3.org/1999/xlink">
 <defs>
  <style type="text/css">
*{stroke-linecap:butt;stroke-linejoin:round;stroke-miterlimit:100000;}
  </style>
 </defs>
 <g id="figure_1">
  <g id="patch_1">
   <path d="M 0 408.16925 
L 515.7675 408.16925 
L 515.7675 0 
L 0 0 
z
" style="fill:#ffffff;"/>
  </g>
  <g id="axes_1">
   <g id="patch_2">
    <path d="M 46.8975 368.74175 
L 493.2975 368.74175 
L 493.2975 23.14175 
L 46.8975 23.14175 
z
" style="fill:#ffffff;"/>
   </g>
   <g id="line2d_1">
    <path clip-path="url(#p1f36003a37)" d="M 46.8975 311.209418 
L 47.1207 310.198947 
L 47.3439 340.203443 
L 47.5671 307.498264 
L 47.7903 315.246334 
L 48.0135 312.164651 
L 48.2367 322.079749 
L 48.4599 321.543676 
L 48.6831 329.433049 
L 48.9063 306.426692 
L 49.1295 305.861286 
L 49.3527 317.414685 
L 49.5759 317.049688 
L 49.7991 329.68681 
L 50.0223 333.069749 
L 50.4687 315.849765 
L 50.6919 312.453084 
L 50.9151 335.687304 
L 51.1383 308.973634 
L 51.3615 304.523777 
L 51.5847 309.96795 
L 51.8079 325.260677 
L 52.0311 315.810906 
L 52.2543 334.898841 
L 52.4775 336.109713 
L 52.7007 317.47612 
L 52.9239 340.243216 
L 53.3703 307.304638 
L 53.5935 322.458488 
L 53.8167 328.421641 
L 54.0399 316.703178 
L 54.2631 330.600655 
L 54.4863 334.173317 
L 54.7095 315.882874 
L 54.9327 331.021479 
L 55.1559 336.738319 
L 55.3791 325.057276 
L 55.6023 336.436891 
L 55.8255 330.205885 
L 56.0487 340.210176 
L 56.2719 333.079938 
L 56.7183 309.965588 
L 56.9415 335.32296 
L 57.1647 304.633895 
L 57.6111 326.857802 
L 57.8343 316.165118 
L 58.0575 329.753822 
L 58.2807 325.116357 
L 58.5039 307.236221 
L 58.7271 343.199868 
L 58.9503 318.298551 
L 59.1735 330.484586 
L 59.3967 309.254018 
L 59.6199 331.888177 
L 59.8431 324.666154 
L 60.0663 312.298708 
L 60.2895 312.741803 
L 60.5127 312.684155 
L 60.7359 337.363438 
L 60.9591 329.79476 
L 61.1823 304.390264 
L 61.4055 332.692172 
L 61.6287 309.84079 
L 61.8519 332.540745 
L 62.0751 318.385487 
L 62.2983 314.773257 
L 62.7447 335.777473 
L 62.9679 338.595934 
L 63.1911 306.714297 
L 63.4143 329.326893 
L 63.6375 336.765491 
L 63.8607 306.905325 
L 64.0839 317.204426 
L 64.3071 333.558344 
L 64.5303 337.873679 
L 64.7535 311.877562 
L 64.9767 313.389561 
L 65.1999 333.838295 
L 65.4231 322.226156 
L 65.6463 334.467537 
L 65.8695 324.680022 
L 66.0927 334.751036 
L 66.3159 312.941887 
L 66.5391 315.223022 
L 66.7623 307.925477 
L 66.9855 330.919319 
L 67.2087 312.431633 
L 67.4319 339.902122 
L 67.6551 321.456087 
L 67.8783 333.431897 
L 68.1015 334.673887 
L 68.3247 344.738219 
L 68.7711 334.179028 
L 68.9943 339.541296 
L 69.2175 310.216601 
L 69.4407 332.166336 
L 69.8871 329.793774 
L 70.1103 335.264332 
L 70.3335 303.8444 
L 70.7799 330.975529 
L 71.0031 313.781973 
L 71.2263 335.932086 
L 71.4495 313.210658 
L 71.6727 343.246416 
L 71.8959 337.627023 
L 72.1191 328.914782 
L 72.3423 340.487856 
L 72.5655 319.31725 
L 72.7887 312.449216 
L 73.0119 334.963407 
L 73.2351 319.084379 
L 73.4583 323.476294 
L 73.6815 325.373146 
L 73.9047 337.347536 
L 74.1279 317.701378 
L 74.3511 316.782828 
L 74.5743 331.464268 
L 74.7975 330.159443 
L 75.0207 311.677465 
L 75.2439 314.512362 
L 75.4671 337.946458 
L 75.6903 342.366089 
L 75.9135 341.565101 
L 76.1367 320.483419 
L 76.3599 328.318649 
L 76.8063 320.875587 
L 77.2527 334.499012 
L 77.4759 311.787289 
L 77.6991 335.209773 
L 77.9223 319.681588 
L 78.1455 325.661907 
L 78.3687 303.95151 
L 78.5919 334.326094 
L 79.0383 303.942575 
L 79.2615 330.91074 
L 79.4847 338.945763 
L 79.7079 320.556228 
L 79.9311 329.22167 
L 80.1543 328.419691 
L 80.3775 311.743706 
L 80.6007 330.74241 
L 80.8239 312.328754 
L 81.0471 320.495948 
L 81.2703 339.200936 
L 81.4935 312.911657 
L 81.7167 332.21594 
L 82.1631 310.030323 
L 82.3863 331.368953 
L 82.6095 314.106986 
L 83.0559 329.111967 
L 83.2791 317.666792 
L 83.5023 343.736255 
L 83.7255 318.158651 
L 83.9487 310.102757 
L 84.1719 314.363521 
L 84.3951 313.58486 
L 84.6183 334.573902 
L 84.8415 335.641113 
L 85.0647 335.848836 
L 85.2879 321.537183 
L 85.7343 317.788645 
L 85.9575 333.705589 
L 86.1807 317.203936 
L 86.4039 315.682679 
L 86.8503 337.873034 
L 87.2967 310.420855 
L 87.5199 320.606406 
L 87.7431 313.824125 
L 87.9663 322.272282 
L 88.1895 340.636809 
L 88.4127 321.363885 
L 88.6359 314.619218 
L 88.8591 325.133613 
L 89.0823 312.733474 
L 89.3055 312.030415 
L 89.5287 333.577489 
L 89.9751 306.602204 
L 90.1983 322.814201 
L 90.4215 317.431768 
L 90.6447 327.267051 
L 90.8679 315.08343 
L 91.0911 321.222844 
L 91.3143 304.131998 
L 91.5375 317.214675 
L 91.7607 341.005931 
L 91.9839 318.046198 
L 92.2071 320.223647 
L 92.4303 312.822306 
L 92.6535 310.365651 
L 92.8767 317.436556 
L 93.0999 311.517506 
L 93.3231 325.237464 
L 93.5463 322.059277 
L 93.7695 333.400613 
L 93.9927 318.95384 
L 94.2159 316.492054 
L 94.4391 307.57419 
L 94.6623 310.007829 
L 94.8855 331.934653 
L 95.1087 333.908686 
L 95.3319 339.029092 
L 95.5551 308.367931 
L 95.7783 329.117687 
L 96.0015 317.343188 
L 96.2247 314.095398 
L 96.4479 336.023762 
L 96.8943 317.877046 
L 97.1175 309.827283 
L 97.5639 314.852299 
L 97.7871 305.292336 
L 98.0103 317.414622 
L 98.2335 318.969404 
L 98.4567 309.696792 
L 98.6799 305.79877 
L 98.9031 307.630996 
L 99.1263 316.331986 
L 99.3495 308.606289 
L 99.5727 329.023178 
L 99.7959 311.743202 
L 100.0191 304.156647 
L 100.2423 315.314591 
L 100.4655 305.211459 
L 100.6887 301.101337 
L 100.9119 309.352497 
L 101.1351 301.253453 
L 101.3583 311.782132 
L 101.5815 316.510126 
L 101.8047 312.73636 
L 102.0279 337.853626 
L 102.2511 313.749163 
L 102.4743 306.70278 
L 102.6975 325.957819 
L 103.1439 311.94167 
L 103.3671 319.638493 
L 103.5903 313.576884 
L 103.8135 315.954978 
L 104.0367 308.370723 
L 104.2599 309.772849 
L 104.4831 308.9628 
L 104.7063 305.400733 
L 104.9295 312.866555 
L 105.1527 312.713853 
L 105.3759 311.33591 
L 105.5991 317.486954 
L 106.0455 301.563708 
L 106.2687 312.872048 
L 106.4919 311.395428 
L 106.7151 303.536224 
L 106.9383 323.58465 
L 107.1615 318.316331 
L 107.3847 309.42879 
L 107.6079 311.510596 
L 107.8311 309.224989 
L 108.0543 310.040883 
L 108.2775 315.335817 
L 108.5007 316.647746 
L 108.7239 308.549605 
L 108.9471 305.96709 
L 109.1703 305.270895 
L 109.3935 315.789335 
L 109.6167 316.998925 
L 109.8399 301.692785 
L 110.2863 322.84946 
L 110.5095 311.00671 
L 110.7327 310.687477 
L 111.1791 332.770071 
L 111.4023 311.961442 
L 111.6255 311.528856 
L 112.0719 303.552423 
L 112.2951 304.794641 
L 112.7415 320.412178 
L 112.9647 312.109535 
L 113.1879 309.934721 
L 113.4111 318.615405 
L 113.6343 321.932183 
L 113.8575 322.548962 
L 114.0807 302.52531 
L 114.3039 307.779317 
L 114.5271 304.071424 
L 114.7503 305.628341 
L 114.9735 301.29093 
L 115.1967 305.731146 
L 115.4199 300.392804 
L 115.6431 311.012229 
L 115.8663 302.538661 
L 116.0895 301.042557 
L 116.3127 326.008386 
L 116.5359 302.819331 
L 116.7591 326.848251 
L 116.9823 303.792329 
L 117.2055 318.229542 
L 117.4287 321.71891 
L 117.6519 301.509416 
L 117.8751 325.736226 
L 118.0983 302.56315 
L 118.3215 305.847112 
L 118.5447 325.350831 
L 118.7679 322.957472 
L 118.9911 322.22448 
L 119.2143 306.954381 
L 119.4375 302.751482 
L 119.6607 302.128032 
L 119.8839 296.713073 
L 120.1071 315.676333 
L 120.3303 321.323538 
L 120.5535 306.840564 
L 120.7767 315.914031 
L 120.9999 308.705741 
L 121.2231 317.025295 
L 121.4463 304.443375 
L 121.6695 315.590977 
L 121.8927 300.863061 
L 122.1159 317.613543 
L 122.5623 297.177554 
L 122.7855 319.934684 
L 123.0087 320.897933 
L 123.2319 306.89693 
L 123.4551 302.380844 
L 123.6783 319.373238 
L 123.9015 317.434004 
L 124.3479 300.894614 
L 124.5711 304.574426 
L 124.7943 310.268715 
L 125.0175 309.078186 
L 125.2407 322.575985 
L 125.4639 316.905499 
L 125.6871 318.307975 
L 126.1335 315.443 
L 126.3567 315.675037 
L 126.5799 318.104716 
L 126.8031 316.57291 
L 127.0263 320.196519 
L 127.2495 306.351092 
L 127.4727 315.368414 
L 127.6959 316.196423 
L 127.9191 313.997005 
L 128.3655 321.25417 
L 128.8119 314.723137 
L 129.2583 311.202434 
L 129.4815 315.15459 
L 129.7047 295.138885 
L 129.9279 320.593511 
L 130.1511 303.391152 
L 130.3743 312.514832 
L 130.5975 304.948036 
L 130.8207 314.850162 
L 131.0439 292.502085 
L 131.2671 299.596558 
L 131.4903 310.830629 
L 131.7135 313.498386 
L 131.9367 303.344593 
L 132.1599 313.785444 
L 132.3831 305.634284 
L 132.8295 307.955016 
L 133.0527 313.451661 
L 133.2759 312.007603 
L 133.4991 301.333009 
L 133.7223 307.565029 
L 133.9455 309.799521 
L 134.3919 308.070699 
L 134.6151 313.10624 
L 134.8383 309.543542 
L 135.0615 311.065618 
L 135.5079 307.19511 
L 135.7311 307.179004 
L 135.9543 314.2808 
L 136.1775 304.852926 
L 136.4007 309.062045 
L 136.8471 303.302847 
L 137.0703 310.503829 
L 137.2935 308.031457 
L 137.5167 303.688104 
L 137.7399 306.14971 
L 137.9631 305.412165 
L 138.1863 306.206717 
L 138.4095 306.002641 
L 139.0791 311.224409 
L 139.3023 304.421235 
L 139.5255 305.679626 
L 139.7487 310.76685 
L 139.9719 295.662158 
L 140.1951 307.280415 
L 140.4183 300.632759 
L 140.6415 303.572058 
L 140.8647 303.20793 
L 141.0879 304.274869 
L 141.3111 305.935492 
L 141.5343 300.319585 
L 141.7575 305.887785 
L 141.9807 298.535405 
L 142.4271 308.440888 
L 142.6503 308.344472 
L 143.0967 303.25966 
L 143.3199 293.423872 
L 143.5431 294.048559 
L 144.2127 303.845155 
L 144.4359 303.790736 
L 144.8823 294.17762 
L 145.1055 300.104487 
L 145.3287 297.549287 
L 145.5519 300.586109 
L 145.7751 299.365391 
L 145.9983 304.149878 
L 146.2215 301.489763 
L 146.4447 293.386075 
L 146.6679 300.324112 
L 146.8911 286.034635 
L 147.1143 286.606402 
L 147.3375 303.690124 
L 147.5607 293.646907 
L 147.7839 292.57964 
L 148.0071 294.586114 
L 148.2303 298.135247 
L 148.4535 298.679178 
L 148.6767 288.076511 
L 148.8999 290.119198 
L 149.1231 290.836874 
L 149.3463 298.387243 
L 149.5695 293.64506 
L 149.7927 292.93292 
L 150.0159 296.944143 
L 150.2391 298.221588 
L 150.6855 288.614191 
L 150.9087 293.802575 
L 151.1319 290.345184 
L 151.3551 289.766919 
L 151.5783 290.79231 
L 151.8015 293.083086 
L 152.0247 292.562815 
L 152.2479 284.953553 
L 152.4711 290.630913 
L 152.6943 289.817537 
L 153.1407 294.53447 
L 153.3639 282.669911 
L 153.5871 284.09095 
L 153.8103 286.588786 
L 154.0335 291.137604 
L 154.2567 284.159932 
L 154.4799 288.752074 
L 154.7031 290.961025 
L 154.9263 287.561311 
L 155.1495 287.881723 
L 155.3727 284.789517 
L 155.5959 287.85244 
L 156.2655 280.545589 
L 156.4887 275.153583 
L 156.9351 284.897942 
L 157.1583 283.352076 
L 157.3815 276.034836 
L 157.6047 284.630846 
L 157.8279 277.684657 
L 158.0511 286.196366 
L 158.2743 275.423288 
L 158.4975 278.356562 
L 158.7207 282.873868 
L 158.9439 284.446563 
L 159.1671 282.220672 
L 159.3903 276.032748 
L 159.6135 279.404625 
L 159.8367 271.332985 
L 160.0599 280.008519 
L 160.2831 272.825614 
L 160.5063 287.671519 
L 160.7295 281.323657 
L 160.9527 283.407823 
L 161.1759 271.696408 
L 161.6223 284.092153 
L 161.8455 279.965915 
L 162.0687 280.36801 
L 162.2919 277.552104 
L 162.5151 278.654507 
L 162.7383 275.885006 
L 162.9615 270.550943 
L 163.1847 284.065539 
L 163.4079 271.226105 
L 163.8543 277.258708 
L 164.3007 273.46994 
L 164.5239 264.485535 
L 164.7471 272.787953 
L 164.9703 273.920384 
L 165.1935 280.392701 
L 165.4167 276.41595 
L 165.8631 252.051628 
L 166.0863 274.970255 
L 166.3095 274.916988 
L 166.5327 266.166515 
L 166.7559 264.034357 
L 166.9791 268.574373 
L 167.2023 269.853788 
L 167.4255 271.967036 
L 167.6487 267.137811 
L 167.8719 272.756283 
L 168.0951 249.773449 
L 168.5415 259.350074 
L 168.7647 253.177223 
L 168.9879 266.291989 
L 169.2111 266.291738 
L 169.4343 257.843251 
L 169.6575 258.253018 
L 169.8807 263.086923 
L 170.3271 265.413447 
L 170.5503 243.883108 
L 170.7735 250.799537 
L 170.9967 253.17124 
L 171.2199 242.688966 
L 171.6663 260.479014 
L 172.1127 257.428834 
L 172.3359 258.145041 
L 172.5591 248.055107 
L 172.7823 243.591759 
L 173.0055 256.4936 
L 173.2287 253.312812 
L 173.4519 252.506621 
L 173.6751 248.60609 
L 173.8983 256.422431 
L 174.1215 244.996246 
L 174.3447 257.828098 
L 174.5679 238.46022 
L 174.7911 254.37587 
L 175.0143 248.185886 
L 175.2375 254.641554 
L 175.4607 248.562551 
L 175.6839 254.409476 
L 175.9071 249.730366 
L 176.1303 264.584217 
L 176.3535 237.818103 
L 176.5767 238.076382 
L 176.7999 252.719245 
L 177.0231 249.08727 
L 177.2463 253.031176 
L 177.4695 253.916627 
L 177.6927 259.396479 
L 177.9159 241.121811 
L 178.1391 244.103812 
L 178.3623 232.651514 
L 178.5855 244.965468 
L 178.8087 246.690862 
L 179.0319 234.357885 
L 179.2551 249.192716 
L 179.4783 231.913885 
L 179.7015 252.356213 
L 179.9247 231.15911 
L 180.1479 254.030908 
L 180.5943 233.986382 
L 180.8175 233.005558 
L 181.0407 229.583242 
L 181.2639 236.723821 
L 181.4871 229.337649 
L 181.7103 245.053963 
L 181.9335 224.999307 
L 182.1567 237.679528 
L 182.3799 231.244592 
L 182.6031 237.323731 
L 182.8263 227.904171 
L 183.0495 230.706507 
L 183.2727 231.225865 
L 183.7191 224.778192 
L 183.9423 228.897411 
L 184.1655 222.001738 
L 184.3887 221.910386 
L 184.6119 229.939431 
L 184.8351 224.267904 
L 185.0583 224.697784 
L 185.2815 220.817042 
L 185.5047 221.647606 
L 185.7279 221.045085 
L 185.9511 227.914574 
L 186.1743 226.307722 
L 186.3975 230.27378 
L 186.6207 220.779588 
L 186.8439 236.053684 
L 187.0671 222.646531 
L 187.2903 218.485247 
L 187.5135 219.732961 
L 187.7367 213.486481 
L 187.9599 236.999453 
L 188.1831 219.104931 
L 188.4063 214.636512 
L 188.6295 224.264492 
L 188.8527 214.388645 
L 189.0759 214.422302 
L 189.2991 233.018751 
L 189.5223 219.094599 
L 189.7455 226.884302 
L 189.9687 216.742471 
L 190.1919 218.156121 
L 190.4151 221.803844 
L 190.6383 219.564505 
L 190.8615 215.866237 
L 191.0847 221.011663 
L 191.3079 220.877189 
L 191.5311 240.511822 
L 191.7543 213.564006 
L 191.9775 214.07336 
L 192.2007 223.788669 
L 192.4239 205.664672 
L 193.0935 222.448115 
L 193.3167 221.869063 
L 193.5399 208.075668 
L 193.7631 217.210689 
L 193.9863 216.657012 
L 194.2095 208.433697 
L 194.4327 209.487679 
L 194.6559 217.700862 
L 194.8791 215.721668 
L 195.1023 210.608952 
L 195.3255 221.34162 
L 195.5487 206.307138 
L 195.7719 208.96666 
L 195.9951 204.761692 
L 196.2183 205.574442 
L 196.4415 207.690905 
L 196.6647 221.755335 
L 196.8879 219.668909 
L 197.1111 203.851713 
L 197.5575 199.727197 
L 198.2271 213.945377 
L 198.4503 213.668521 
L 199.1199 191.870703 
L 199.3431 212.054164 
L 199.7895 199.5334 
L 200.0127 204.031787 
L 200.2359 196.659078 
L 200.4591 203.519379 
L 200.6823 202.511972 
L 200.9055 197.886367 
L 201.1287 204.417477 
L 201.3519 197.359162 
L 201.7983 202.606442 
L 202.0215 197.721827 
L 202.2447 201.323698 
L 202.4679 201.093369 
L 202.9143 191.404717 
L 203.1375 200.586249 
L 203.3607 191.596578 
L 203.5839 201.345085 
L 203.8071 200.31301 
L 204.0303 199.906334 
L 204.2535 194.530915 
L 204.4767 203.179831 
L 204.6999 202.917933 
L 204.9231 194.765673 
L 205.1463 196.585155 
L 205.3695 220.689481 
L 205.5927 194.214119 
L 205.8159 201.749299 
L 206.0391 195.113712 
L 206.2623 183.940862 
L 206.4855 199.98452 
L 206.9319 186.711162 
L 207.1551 175.042862 
L 207.3783 194.61289 
L 207.6015 189.085349 
L 208.0479 198.221207 
L 208.2711 188.597425 
L 208.7175 198.234612 
L 208.9407 190.886742 
L 209.1639 194.347817 
L 209.3871 195.419514 
L 209.6103 192.917955 
L 209.8335 193.796942 
L 210.2799 200.243661 
L 210.5031 178.612063 
L 210.7263 190.667736 
L 210.9495 186.776108 
L 211.1727 194.012154 
L 211.3959 183.066608 
L 211.6191 194.675843 
L 211.8423 188.364515 
L 212.0655 192.997167 
L 212.2887 204.186043 
L 212.5119 185.58829 
L 212.7351 181.502985 
L 212.9583 191.76696 
L 213.1815 189.015158 
L 213.4047 189.812788 
L 213.8511 184.499808 
L 214.0743 195.786518 
L 214.2975 213.06047 
L 214.5207 186.44556 
L 214.7439 199.505836 
L 215.4135 180.018739 
L 215.6367 177.735757 
L 215.8599 181.882252 
L 216.0831 182.022264 
L 216.3063 183.19464 
L 216.5295 171.811163 
L 216.7527 188.402225 
L 216.9759 175.647443 
L 217.1991 181.34447 
L 217.4223 181.99968 
L 217.6455 184.569123 
L 217.8687 196.956566 
L 218.0919 168.578691 
L 218.3151 182.951284 
L 218.5383 182.630581 
L 218.7615 178.001538 
L 218.9847 177.20739 
L 219.2079 174.624211 
L 219.4311 187.498478 
L 219.6543 189.569293 
L 220.1007 180.780199 
L 220.3239 176.703281 
L 220.5471 177.256148 
L 220.7703 179.737307 
L 220.9935 183.654521 
L 221.2167 196.90072 
L 221.4399 167.926841 
L 221.6631 179.798608 
L 221.8863 180.176504 
L 222.1095 181.651464 
L 222.3327 177.752788 
L 222.5559 175.903838 
L 222.7791 175.333863 
L 223.0023 182.581032 
L 223.2255 179.481188 
L 223.4487 172.33749 
L 223.6719 192.024833 
L 223.8951 177.253428 
L 224.1183 177.335867 
L 224.3415 168.734968 
L 224.7879 181.100556 
L 225.0111 162.232705 
L 225.2343 178.785319 
L 225.4575 168.062741 
L 225.6807 176.849424 
L 225.9039 173.625131 
L 226.1271 173.833607 
L 226.3503 177.511905 
L 226.5735 185.88275 
L 226.7967 170.507745 
L 227.0199 175.717165 
L 227.2431 176.267736 
L 227.4663 175.366578 
L 227.6895 165.230447 
L 227.9127 174.724993 
L 228.1359 162.112017 
L 228.5823 184.189482 
L 228.8055 172.672732 
L 229.2519 165.248754 
L 229.4751 172.960867 
L 229.6983 191.416224 
L 229.9215 174.606047 
L 230.1447 168.034554 
L 230.5911 174.494059 
L 230.8143 165.89992 
L 231.0375 175.329753 
L 231.2607 175.922786 
L 231.4839 172.49753 
L 231.7071 173.916012 
L 231.9303 178.322145 
L 232.3767 164.994102 
L 232.5999 163.016128 
L 232.8231 170.352911 
L 233.4927 159.360393 
L 233.7159 171.583965 
L 233.9391 166.909712 
L 234.1623 175.820195 
L 234.6087 167.911524 
L 234.8319 163.522501 
L 235.0551 166.390522 
L 235.2783 166.882289 
L 235.5015 174.889234 
L 235.7247 175.808022 
L 235.9479 164.146143 
L 236.1711 163.4008 
L 236.3943 166.455085 
L 236.6175 166.285463 
L 236.8407 171.016651 
L 237.0639 160.326888 
L 237.2871 164.208725 
L 237.5103 162.587761 
L 237.7335 157.973923 
L 237.9567 163.535087 
L 238.1799 173.368438 
L 238.4031 164.502397 
L 238.6263 166.390989 
L 238.8495 162.382405 
L 239.0727 162.19066 
L 239.2959 162.470675 
L 239.7423 171.451042 
L 239.9655 141.477714 
L 240.1887 169.199471 
L 240.6351 164.907657 
L 240.8583 165.764892 
L 241.0815 156.595535 
L 241.3047 157.32272 
L 241.5279 156.443278 
L 241.7511 165.474939 
L 241.9743 158.416698 
L 242.1975 172.407831 
L 242.4207 167.703408 
L 242.6439 155.852962 
L 242.8671 160.206238 
L 243.0903 175.715413 
L 243.3135 157.676806 
L 243.5367 154.663203 
L 243.7599 164.19084 
L 243.9831 157.191128 
L 244.2063 159.019729 
L 244.4295 164.280329 
L 244.6527 155.829781 
L 244.8759 158.933072 
L 245.0991 148.918657 
L 245.3223 166.257358 
L 245.5455 156.143431 
L 245.7687 156.483203 
L 245.9919 163.020587 
L 246.2151 151.54188 
L 246.4383 155.848022 
L 246.6615 157.55614 
L 246.8847 158.306691 
L 247.1079 163.268689 
L 247.3311 157.170196 
L 247.5543 154.818784 
L 247.7775 154.354675 
L 248.0007 157.299005 
L 248.2239 154.620719 
L 248.6703 161.670169 
L 248.8935 151.946331 
L 249.1167 161.113203 
L 249.3399 160.198628 
L 249.5631 162.870288 
L 249.7863 146.135614 
L 250.0095 160.024961 
L 250.2327 155.758306 
L 250.4559 140.860322 
L 250.6791 160.57234 
L 250.9023 169.755637 
L 251.1255 150.355346 
L 251.5719 154.078757 
L 251.7951 151.224179 
L 252.0183 152.543051 
L 252.2415 145.705982 
L 252.4647 150.570941 
L 252.6879 143.716671 
L 252.9111 151.745718 
L 253.1343 145.432682 
L 253.3575 161.306328 
L 253.5807 150.832582 
L 253.8039 154.542815 
L 254.0271 152.608852 
L 254.2503 152.449055 
L 254.4735 149.44332 
L 254.6967 152.943199 
L 254.9199 152.67151 
L 255.1431 151.262551 
L 255.3663 143.17833 
L 255.5895 141.807114 
L 255.8127 148.626407 
L 256.0359 146.797935 
L 256.2591 153.217646 
L 256.4823 146.754989 
L 256.7055 151.180916 
L 256.9287 139.879253 
L 257.1519 154.586031 
L 257.3751 148.317337 
L 258.0447 157.382026 
L 258.2679 143.652508 
L 258.4911 157.524819 
L 258.7143 144.908113 
L 258.9375 148.860173 
L 259.1607 143.517948 
L 259.3839 149.342774 
L 259.6071 149.037195 
L 259.8303 153.113706 
L 260.0535 146.640522 
L 260.2767 151.443103 
L 260.4999 146.029552 
L 260.7231 145.714553 
L 260.9463 142.077522 
L 261.1695 143.792938 
L 261.3927 146.668827 
L 261.6159 133.866277 
L 262.0623 153.305482 
L 262.2855 147.018947 
L 262.5087 144.598538 
L 262.7319 144.516061 
L 262.9551 147.484482 
L 263.1783 142.740611 
L 263.4015 142.856381 
L 263.6247 167.589658 
L 263.8479 143.091735 
L 264.0711 145.04985 
L 264.2943 130.126917 
L 264.5175 142.907797 
L 264.7407 128.995195 
L 264.9639 153.372006 
L 265.1871 152.096719 
L 265.4103 145.157768 
L 265.6335 144.133577 
L 265.8567 117.064881 
L 266.0799 141.57874 
L 266.3031 146.389369 
L 266.5263 142.213749 
L 266.7495 151.262825 
L 266.9727 139.222509 
L 267.1959 143.148762 
L 267.4191 140.590524 
L 267.8655 140.59998 
L 268.0887 146.290124 
L 268.3119 137.669469 
L 268.5351 144.28718 
L 268.7583 127.459539 
L 268.9815 141.699845 
L 269.2047 132.804023 
L 269.8743 150.014956 
L 270.0975 141.576618 
L 270.3207 141.86616 
L 270.5439 135.744857 
L 270.7671 137.665463 
L 270.9903 146.770851 
L 271.4367 129.938055 
L 271.6599 141.452365 
L 272.1063 131.287797 
L 272.5527 144.255819 
L 272.7759 114.925598 
L 272.9991 139.606077 
L 273.2223 147.492618 
L 273.4455 132.582274 
L 273.6687 144.565223 
L 273.8919 132.792982 
L 274.1151 133.243361 
L 274.3383 132.842623 
L 274.5615 141.006216 
L 274.7847 134.596984 
L 275.0079 136.667535 
L 275.2311 145.567918 
L 275.4543 128.928497 
L 275.6775 134.56574 
L 275.9007 148.015679 
L 276.1239 126.838595 
L 276.3471 146.148894 
L 276.5703 134.250242 
L 276.7935 136.506296 
L 277.0167 136.256456 
L 277.2399 131.075468 
L 277.4631 133.372331 
L 277.6863 134.034167 
L 277.9095 140.35319 
L 278.1327 124.318085 
L 278.3559 136.323042 
L 278.5791 130.231116 
L 278.8023 128.572037 
L 279.0255 137.467345 
L 279.2487 134.966807 
L 279.4719 126.992223 
L 279.6951 132.456874 
L 279.9183 130.115413 
L 280.1415 148.234483 
L 280.3647 124.843248 
L 280.5879 130.624155 
L 280.8111 127.351314 
L 281.0343 130.685137 
L 281.2575 131.813189 
L 281.4807 138.063776 
L 281.7039 118.490783 
L 281.9271 136.342826 
L 282.1503 133.242806 
L 282.5967 131.260743 
L 282.8199 125.694362 
L 283.0431 126.512055 
L 283.2663 122.244125 
L 283.4895 134.260518 
L 283.7127 123.536379 
L 283.9359 125.377769 
L 284.1591 128.798062 
L 284.3823 129.89544 
L 284.6055 126.370253 
L 284.8287 130.857168 
L 285.0519 132.692648 
L 285.2751 130.175048 
L 285.7215 121.073953 
L 285.9447 128.604704 
L 286.1679 121.489117 
L 286.3911 122.564885 
L 286.6143 119.423373 
L 286.8375 123.503207 
L 287.0607 121.310353 
L 287.2839 131.715811 
L 287.5071 132.060349 
L 287.9535 124.098486 
L 288.1767 128.41495 
L 288.3999 125.830408 
L 288.6231 117.18486 
L 288.8463 118.50402 
L 289.0695 115.691975 
L 289.2927 121.408587 
L 289.5159 122.797497 
L 289.7391 125.368944 
L 289.9623 118.584564 
L 290.1855 129.757484 
L 290.4087 112.90492 
L 290.8551 125.68421 
L 291.3015 115.50781 
L 291.5247 121.72105 
L 291.7479 117.957939 
L 291.9711 118.410322 
L 292.1943 125.135477 
L 292.4175 120.398042 
L 292.6407 120.748695 
L 292.8639 125.881509 
L 293.0871 118.922695 
L 293.3103 121.536045 
L 293.5335 115.615139 
L 293.7567 120.97882 
L 293.9799 115.649266 
L 294.2031 116.026901 
L 294.4263 119.360376 
L 294.6495 118.962464 
L 294.8727 115.106482 
L 295.0959 118.059405 
L 295.3191 112.447681 
L 295.5423 116.357565 
L 295.7655 116.898123 
L 295.9887 122.978081 
L 296.2119 107.825115 
L 296.4351 122.211114 
L 296.6583 119.354369 
L 297.1047 107.932364 
L 297.3279 121.230248 
L 297.5511 117.202906 
L 297.7743 117.631318 
L 297.9975 111.969533 
L 298.2207 121.275003 
L 298.4439 123.219899 
L 298.6671 118.809914 
L 298.8903 120.041014 
L 299.1135 107.01857 
L 299.3367 119.038058 
L 299.5599 118.851661 
L 299.7831 123.541898 
L 300.2295 111.235914 
L 300.4527 114.344513 
L 300.6759 112.725004 
L 300.8991 122.60216 
L 301.1223 123.405926 
L 301.3455 116.219551 
L 301.5687 124.197307 
L 301.7919 106.20765 
L 302.0151 109.954499 
L 302.2383 118.951572 
L 302.4615 119.601935 
L 302.6847 116.018362 
L 302.9079 110.525448 
L 303.1311 114.447173 
L 303.3543 110.412438 
L 303.5775 88.171995 
L 303.8007 108.050746 
L 304.0239 116.175819 
L 304.2471 117.367228 
L 304.4703 117.836689 
L 304.6935 114.768841 
L 304.9167 104.527231 
L 305.1399 109.348322 
L 305.3631 107.84509 
L 305.5863 103.434339 
L 305.8095 116.65003 
L 306.0327 109.572364 
L 306.2559 113.43027 
L 306.4791 112.816824 
L 306.7023 116.44704 
L 306.9255 109.962825 
L 307.3719 108.682567 
L 307.5951 112.25604 
L 307.8183 109.886455 
L 308.0415 109.581985 
L 308.2647 109.535053 
L 308.4879 112.36953 
L 308.7111 110.613468 
L 308.9343 117.64165 
L 309.1575 118.113211 
L 309.3807 108.799439 
L 309.6039 113.724046 
L 309.8271 109.89761 
L 310.0503 112.029485 
L 310.2735 115.263115 
L 310.4967 105.786265 
L 310.7199 110.834012 
L 310.9431 112.722886 
L 311.1663 108.593653 
L 311.3895 106.789261 
L 311.6127 107.649399 
L 311.8359 102.417895 
L 312.0591 114.292439 
L 312.2823 107.996802 
L 312.5055 114.310974 
L 312.7287 114.058248 
L 312.9519 111.548583 
L 313.1751 107.594795 
L 313.6215 113.063752 
L 313.8447 106.773101 
L 314.0679 103.750567 
L 314.5143 109.856625 
L 314.7375 100.591493 
L 314.9607 97.394807 
L 315.1839 109.930133 
L 315.4071 110.344087 
L 315.6303 112.069765 
L 315.8535 101.930903 
L 316.0767 109.068757 
L 316.2999 92.542318 
L 316.5231 107.66134 
L 316.7463 112.723768 
L 316.9695 106.524215 
L 317.1927 104.130995 
L 317.4159 106.953698 
L 317.6391 104.89937 
L 317.8623 107.659829 
L 318.0855 107.656976 
L 318.3087 95.941647 
L 318.7551 104.058585 
L 318.9783 99.765713 
L 319.2015 109.825567 
L 319.4247 100.264054 
L 319.8711 110.856702 
L 320.0943 112.639271 
L 320.3175 103.572926 
L 320.5407 105.390678 
L 320.7639 101.995453 
L 320.9871 91.913033 
L 321.4335 106.605464 
L 321.6567 100.113477 
L 321.8799 83.249229 
L 322.1031 107.182643 
L 322.3263 102.131513 
L 322.5495 100.885271 
L 322.7727 107.106103 
L 322.9959 93.139215 
L 323.2191 104.787955 
L 323.4423 101.742954 
L 323.6655 101.392915 
L 323.8887 103.043057 
L 324.1119 100.831768 
L 324.3351 105.904105 
L 324.5583 108.289629 
L 325.0047 97.560648 
L 325.2279 101.375858 
L 325.4511 96.089146 
L 325.6743 104.224816 
L 325.8975 100.862487 
L 326.1207 102.758562 
L 326.3439 97.98214 
L 326.5671 102.03627 
L 327.0135 93.887069 
L 327.2367 99.782806 
L 327.4599 100.901672 
L 327.6831 94.008061 
L 327.9063 95.372028 
L 328.1295 102.939757 
L 328.3527 98.612801 
L 328.5759 105.777735 
L 328.7991 101.587344 
L 329.0223 102.143278 
L 329.4687 92.432141 
L 329.6919 93.184736 
L 329.9151 99.673306 
L 330.1383 91.61504 
L 330.3615 103.228751 
L 330.5847 100.0098 
L 330.8079 99.985056 
L 331.0311 98.671746 
L 331.4775 99.853626 
L 331.7007 98.772052 
L 331.9239 102.492808 
L 332.1471 101.422489 
L 332.3703 74.524446 
L 332.5935 99.612435 
L 332.8167 99.491365 
L 333.0399 86.851901 
L 333.2631 102.019888 
L 333.4863 97.678283 
L 333.7095 102.261929 
L 333.9327 99.635272 
L 334.1559 101.201335 
L 334.6023 89.386259 
L 334.8255 101.074904 
L 335.0487 96.383577 
L 335.2719 100.829648 
L 335.4951 98.356175 
L 335.7183 99.884345 
L 336.1647 95.06772 
L 336.3879 88.689499 
L 336.6111 102.990278 
L 336.8343 100.103138 
L 337.0575 91.847387 
L 337.2807 99.617281 
L 337.5039 100.749312 
L 337.7271 93.845644 
L 338.1735 98.363015 
L 338.3967 97.415396 
L 338.8431 87.699216 
L 339.0663 96.830019 
L 339.2895 87.486078 
L 339.5127 96.456236 
L 339.7359 85.106065 
L 339.9591 92.302444 
L 340.1823 93.005057 
L 340.4055 85.67354 
L 340.8519 95.013897 
L 341.0751 83.610353 
L 341.5215 94.096015 
L 341.7447 94.311071 
L 341.9679 79.456414 
L 342.1911 90.388173 
L 342.4143 88.688857 
L 342.6375 88.077164 
L 342.8607 92.00639 
L 343.0839 89.056202 
L 343.3071 88.977643 
L 343.5303 89.657522 
L 343.7535 96.157654 
L 343.9767 96.557856 
L 344.1999 92.268138 
L 344.4231 95.247976 
L 344.6463 87.131972 
L 344.8695 97.077475 
L 345.0927 85.461895 
L 345.3159 94.975199 
L 345.5391 96.86455 
L 345.7623 82.269865 
L 345.9855 87.223284 
L 346.2087 96.625931 
L 346.4319 88.856269 
L 346.6551 87.843144 
L 346.8783 85.658227 
L 347.1015 84.623779 
L 347.3247 97.434058 
L 347.5479 87.096471 
L 347.7711 88.468058 
L 347.9943 88.776183 
L 348.2175 87.891684 
L 348.6639 81.55957 
L 348.8871 85.035228 
L 349.1103 94.834769 
L 349.3335 87.184064 
L 349.5567 86.330476 
L 349.7799 88.11883 
L 350.0031 84.56739 
L 350.2263 86.462147 
L 350.4495 73.744007 
L 350.6727 82.402694 
L 350.8959 85.883064 
L 351.1191 91.742879 
L 351.3423 90.876549 
L 351.5655 94.49262 
L 351.7887 88.544245 
L 352.0119 86.062651 
L 352.2351 91.337829 
L 352.4583 105.035628 
L 352.6815 82.924342 
L 352.9047 91.408588 
L 353.1279 86.940617 
L 353.3511 90.564978 
L 353.5743 73.26885 
L 353.7975 83.00799 
L 354.0207 109.43598 
L 354.2439 78.239688 
L 354.6903 92.786785 
L 354.9135 86.300875 
L 355.1367 89.0799 
L 355.3599 79.046525 
L 355.5831 91.171032 
L 355.8063 79.18752 
L 356.0295 83.459811 
L 356.2527 84.63663 
L 356.4759 93.827352 
L 356.9223 80.085405 
L 357.1455 82.611515 
L 357.3687 82.524031 
L 357.5919 87.315614 
L 358.0383 83.815905 
L 358.2615 83.83783 
L 358.4847 82.897785 
L 358.7079 78.307429 
L 358.9311 87.888926 
L 359.1543 89.547664 
L 359.3775 85.63091 
L 359.6007 87.337284 
L 360.0471 80.420622 
L 360.2703 102.958672 
L 360.4935 83.046933 
L 360.7167 76.991503 
L 360.9399 101.437856 
L 361.1631 81.630803 
L 361.3863 80.943548 
L 361.6095 81.28501 
L 361.8327 81.951046 
L 362.0559 86.647262 
L 362.2791 76.362371 
L 362.5023 78.248003 
L 362.7255 71.870049 
L 362.9487 86.526748 
L 363.1719 81.474991 
L 363.3951 81.423489 
L 363.8415 84.559571 
L 364.0647 75.256006 
L 364.2879 79.476655 
L 364.5111 78.68118 
L 364.7343 71.692657 
L 364.9575 79.251732 
L 365.1807 76.334674 
L 365.4039 85.077698 
L 365.6271 80.369637 
L 365.8503 84.80482 
L 366.0735 84.033209 
L 366.2967 88.612342 
L 366.5199 80.779572 
L 366.7431 83.843199 
L 366.9663 83.129796 
L 367.1895 87.435528 
L 367.4127 82.920124 
L 367.6359 82.341435 
L 367.8591 86.919515 
L 368.0823 69.828676 
L 368.3055 82.103859 
L 368.5287 76.443172 
L 368.7519 74.238297 
L 368.9751 80.059879 
L 369.1983 72.850271 
L 369.6447 94.973 
L 369.8679 80.901642 
L 370.3143 74.968362 
L 370.5375 80.094541 
L 370.7607 78.334837 
L 370.9839 84.27386 
L 371.2071 78.235256 
L 371.4303 82.407436 
L 371.6535 76.299254 
L 371.8767 74.601837 
L 372.0999 80.546483 
L 372.3231 77.766485 
L 372.5463 99.911214 
L 372.7695 75.959284 
L 372.9927 79.465288 
L 373.2159 65.445862 
L 373.4391 77.263199 
L 373.6623 77.099144 
L 373.8855 80.738944 
L 374.1087 79.485391 
L 374.3319 68.472122 
L 374.5551 73.817574 
L 374.7783 74.233963 
L 375.0015 98.179346 
L 375.2247 79.066385 
L 375.4479 77.389738 
L 375.6711 73.736553 
L 375.8943 105.593032 
L 376.1175 77.970323 
L 376.3407 75.148224 
L 376.5639 79.419973 
L 376.7871 69.186629 
L 377.0103 76.046933 
L 377.2335 72.396204 
L 377.4567 73.675407 
L 377.6799 75.714546 
L 377.9031 66.904091 
L 378.1263 83.565844 
L 378.5727 72.198212 
L 378.7959 74.248259 
L 379.0191 70.565913 
L 379.2423 60.716619 
L 379.4655 70.489673 
L 379.6887 71.757254 
L 379.9119 74.671966 
L 380.1351 99.716017 
L 380.3583 68.309598 
L 380.5815 71.792656 
L 380.8047 72.75403 
L 381.0279 67.761046 
L 381.2511 73.986538 
L 381.4743 70.324646 
L 381.6975 75.120445 
L 381.9207 77.091789 
L 382.1439 74.124283 
L 382.3671 74.325753 
L 382.5903 75.003789 
L 382.8135 52.456488 
L 383.0367 65.837712 
L 383.2599 57.358589 
L 383.4831 72.987859 
L 383.9295 67.62758 
L 384.1527 70.026993 
L 384.3759 70.698586 
L 384.8223 76.965048 
L 385.0455 72.363702 
L 385.2687 75.133452 
L 385.4919 74.85931 
L 385.9383 76.673609 
L 386.1615 70.245118 
L 386.3847 68.309382 
L 386.6079 63.038422 
L 386.8311 71.769937 
L 387.0543 69.838247 
L 387.2775 93.614681 
L 387.5007 64.166095 
L 387.7239 74.299605 
L 387.9471 70.709155 
L 388.1703 75.227001 
L 388.3935 75.020028 
L 388.6167 69.301323 
L 388.8399 66.473372 
L 389.2863 70.878316 
L 389.5095 79.939474 
L 389.7327 70.307718 
L 389.9559 76.080782 
L 390.1791 71.747168 
L 390.4023 71.763509 
L 390.6255 73.147865 
L 390.8487 76.8643 
L 391.2951 62.315494 
L 391.5183 67.793241 
L 391.7415 66.416069 
L 391.9647 73.159088 
L 392.1879 85.449234 
L 392.4111 72.189763 
L 392.6343 69.694288 
L 392.8575 72.989409 
L 393.0807 68.116831 
L 393.3039 59.314942 
L 393.7503 65.180081 
L 393.9735 68.449616 
L 394.1967 69.697826 
L 394.4199 61.371532 
L 394.6431 80.120179 
L 395.0895 69.705544 
L 395.3127 70.908282 
L 395.7591 63.683263 
L 395.9823 71.15773 
L 396.2055 63.150444 
L 396.4287 64.70948 
L 396.6519 67.29371 
L 396.8751 65.86533 
L 397.0983 71.848669 
L 397.3215 70.57961 
L 397.5447 63.587354 
L 397.7679 68.602461 
L 397.9911 60.933229 
L 398.2143 66.600114 
L 398.4375 68.956973 
L 398.6607 68.306823 
L 398.8839 69.153354 
L 399.1071 68.770443 
L 399.3303 74.870533 
L 399.5535 69.744399 
L 399.7767 68.424438 
L 399.9999 63.367999 
L 400.2231 68.785831 
L 400.4463 67.894476 
L 400.6695 68.346615 
L 400.8927 63.441072 
L 401.1159 67.19961 
L 401.3391 61.855885 
L 401.5623 67.004221 
L 401.7855 47.773928 
L 402.0087 66.268179 
L 402.2319 63.977051 
L 402.4551 76.995887 
L 402.9015 60.107563 
L 403.1247 63.007431 
L 403.3479 57.00211 
L 403.5711 66.879068 
L 403.7943 64.883277 
L 404.0175 66.076907 
L 404.2407 54.309326 
L 404.4639 69.413589 
L 404.9103 64.549104 
L 405.1335 65.440183 
L 405.3567 59.198519 
L 405.5799 61.910871 
L 405.8031 56.538423 
L 406.0263 58.054542 
L 406.4727 73.900619 
L 406.6959 61.182842 
L 406.9191 54.986954 
L 407.1423 66.184868 
L 407.3655 63.251011 
L 407.5887 52.716087 
L 407.8119 66.703739 
L 408.0351 63.647116 
L 408.2583 63.888254 
L 408.4815 65.059057 
L 408.7047 60.704181 
L 408.9279 60.081828 
L 409.1511 56.749503 
L 409.3743 75.187788 
L 409.5975 62.390931 
L 410.0439 69.550923 
L 410.4903 58.289976 
L 410.7135 63.490907 
L 410.9367 80.368179 
L 411.1599 59.47718 
L 411.3831 59.733259 
L 411.8295 62.066633 
L 412.0527 76.408094 
L 412.2759 61.750359 
L 412.4991 57.725632 
L 412.7223 59.727021 
L 412.9455 65.770527 
L 413.1687 56.206059 
L 413.3919 64.389164 
L 413.6151 62.221718 
L 413.8383 62.119138 
L 414.0615 59.186683 
L 414.2847 73.976193 
L 414.7311 61.230303 
L 414.9543 64.123061 
L 415.1775 60.469787 
L 415.4007 62.506258 
L 415.6239 61.102538 
L 415.8471 56.670153 
L 416.0703 55.260654 
L 416.2935 64.389625 
L 416.5167 57.650008 
L 416.7399 57.116465 
L 416.9631 64.69841 
L 417.1863 60.148247 
L 417.4095 66.154541 
L 417.6327 64.371268 
L 417.8559 67.474173 
L 418.3023 60.194576 
L 418.5255 65.933004 
L 418.7487 55.595813 
L 418.9719 55.704444 
L 419.1951 53.005445 
L 419.4183 72.630882 
L 420.0879 61.398586 
L 420.3111 61.044871 
L 420.5343 76.925801 
L 420.7575 58.322117 
L 420.9807 57.519301 
L 421.2039 64.732214 
L 421.4271 57.818663 
L 421.6503 57.372192 
L 421.8735 61.081825 
L 422.0967 83.365713 
L 422.3199 58.595833 
L 422.5431 51.338773 
L 422.7663 55.989456 
L 422.9895 51.484168 
L 423.2127 60.347809 
L 423.4359 51.950111 
L 423.6591 63.567199 
L 423.8823 54.060072 
L 424.3287 61.27011 
L 424.5519 57.789213 
L 424.7751 57.562823 
L 424.9983 60.096394 
L 425.2215 74.102436 
L 425.4447 54.379969 
L 425.6679 58.623244 
L 425.8911 55.544807 
L 426.1143 62.16671 
L 426.3375 62.465641 
L 426.5607 55.820633 
L 426.7839 53.19062 
L 427.0071 64.366297 
L 427.2303 55.111716 
L 427.4535 70.164366 
L 427.6767 57.394811 
L 427.8999 57.843259 
L 428.1231 59.064368 
L 428.3463 57.447124 
L 428.5695 61.213082 
L 428.7927 60.005822 
L 429.0159 55.055356 
L 429.2391 57.88987 
L 429.6855 52.407112 
L 429.9087 58.806767 
L 430.1319 56.589959 
L 430.3551 60.760583 
L 430.5783 72.38354 
L 430.8015 57.440521 
L 431.0247 55.595592 
L 431.2479 60.597664 
L 431.4711 58.839757 
L 431.6943 50.048639 
L 431.9175 61.6269 
L 432.1407 53.245319 
L 432.3639 56.761016 
L 432.5871 53.389965 
L 432.8103 61.125399 
L 433.0335 43.156837 
L 433.4799 59.040659 
L 433.7031 52.198559 
L 433.9263 53.065268 
L 434.1495 57.081465 
L 434.3727 67.923097 
L 434.5959 52.327983 
L 434.8191 50.575551 
L 435.0423 68.434359 
L 435.2655 54.722078 
L 435.4887 63.869313 
L 435.7119 55.663855 
L 435.9351 60.379995 
L 436.1583 57.11293 
L 436.3815 47.249344 
L 436.6047 55.293012 
L 436.8279 45.770505 
L 437.2743 57.906698 
L 437.4975 51.31665 
L 437.7207 55.232713 
L 437.9439 56.446403 
L 438.1671 59.350623 
L 438.3903 73.999159 
L 438.6135 54.17086 
L 438.8367 51.665557 
L 439.0599 47.881506 
L 439.2831 53.261322 
L 439.5063 47.87943 
L 439.7295 57.996156 
L 440.1759 55.932154 
L 440.3991 58.939601 
L 440.6223 58.398632 
L 440.8455 54.725553 
L 441.0687 46.277903 
L 441.2919 54.639824 
L 441.5151 51.234188 
L 441.7383 57.536685 
L 441.9615 60.204537 
L 442.1847 46.802471 
L 442.4079 50.722414 
L 442.6311 65.746834 
L 442.8543 56.692938 
L 443.0775 63.89155 
L 443.3007 53.170317 
L 443.5239 51.957718 
L 443.9703 57.353888 
L 444.1935 53.663205 
L 444.4167 53.436459 
L 444.6399 52.106601 
L 444.8631 54.377839 
L 445.0863 52.227946 
L 445.3095 66.613207 
L 445.5327 52.92364 
L 445.7559 47.584748 
L 445.9791 58.456121 
L 446.2023 49.295374 
L 446.4255 49.138218 
L 446.6487 53.568206 
L 446.8719 53.692642 
L 447.0951 51.540472 
L 447.3183 54.448844 
L 447.5415 49.972302 
L 447.7647 53.809999 
L 447.9879 48.127532 
L 448.2111 63.33198 
L 448.6575 49.723522 
L 448.8807 53.446542 
L 449.3271 43.811253 
L 449.5503 52.328311 
L 449.7735 52.494153 
L 449.9967 73.184166 
L 450.2199 71.491616 
L 450.4431 51.064763 
L 450.6663 53.576942 
L 450.8895 65.375109 
L 451.3359 43.866895 
L 451.5591 67.882575 
L 452.0055 54.069463 
L 452.2287 48.517939 
L 452.4519 48.418703 
L 453.3447 51.782247 
L 453.5679 46.191677 
L 453.7911 54.627768 
L 454.2375 48.071314 
L 454.4607 48.345209 
L 454.6839 51.738664 
L 454.9071 45.236615 
L 455.1303 48.306746 
L 455.3535 61.959347 
L 455.5767 50.918162 
L 455.7999 51.244194 
L 456.0231 51.118315 
L 456.2463 54.246047 
L 456.4695 45.368732 
L 456.6927 46.802061 
L 457.1391 63.648894 
L 457.3623 41.220976 
L 457.5855 64.573047 
L 457.8087 52.97523 
L 458.0319 48.253093 
L 458.2551 39.646218 
L 458.4783 48.191845 
L 458.7015 48.30968 
L 458.9247 41.964997 
L 459.1479 51.758927 
L 459.5943 60.777079 
L 459.8175 41.37619 
L 460.0407 62.71787 
L 460.2639 54.156662 
L 460.4871 50.151616 
L 460.9335 45.752184 
L 461.1567 46.918825 
L 461.3799 49.480045 
L 461.6031 39.643877 
L 461.8263 47.848912 
L 462.0495 49.52607 
L 462.2727 50.323312 
L 462.4959 46.463089 
L 462.7191 49.117538 
L 463.1655 38.980147 
L 463.3887 43.290157 
L 463.6119 65.833916 
L 463.8351 47.414196 
L 464.0583 44.155434 
L 464.2815 46.503624 
L 464.5047 47.328089 
L 464.7279 49.49491 
L 465.1743 36.834673 
L 465.3975 57.223445 
L 465.6207 44.911641 
L 465.8439 45.413747 
L 466.0671 50.246583 
L 466.2903 39.193311 
L 466.5135 45.792957 
L 466.7367 46.000312 
L 466.9599 58.577732 
L 467.1831 49.80193 
L 467.4063 45.874009 
L 467.6295 56.216116 
L 467.8527 46.117408 
L 468.0759 44.108376 
L 468.2991 50.761276 
L 468.5223 52.615014 
L 468.7455 51.524873 
L 468.9687 55.283619 
L 469.1919 42.879607 
L 469.4151 50.713153 
L 469.6383 49.231758 
L 469.8615 42.349889 
L 470.0847 49.123541 
L 470.3079 40.39672 
L 470.5311 50.663926 
L 470.7543 41.010701 
L 470.9775 48.417616 
L 471.4239 39.158088 
L 471.8703 60.843277 
L 472.0935 42.625986 
L 472.3167 42.236978 
L 472.5399 39.076522 
L 472.9863 45.476053 
L 473.2095 58.542934 
L 473.4327 47.535307 
L 473.6559 43.836025 
L 473.8791 45.595007 
L 474.1023 42.228615 
L 474.3255 45.230505 
L 474.5487 42.524126 
L 474.7719 51.897358 
L 474.9951 44.733584 
L 475.2183 48.40711 
L 475.6647 35.400163 
L 475.8879 46.261003 
L 476.1111 44.59948 
L 476.5575 50.881276 
L 476.7807 49.497497 
L 477.0039 39.367782 
L 477.2271 44.428978 
L 477.4503 43.0764 
L 477.6735 48.145573 
L 477.8967 36.482758 
L 478.1199 56.782276 
L 478.3431 40.001597 
L 478.5663 45.045563 
L 478.7895 42.256718 
L 479.0127 58.207659 
L 479.2359 47.149097 
L 479.4591 41.630209 
L 479.6823 43.240224 
L 480.1287 39.894331 
L 480.3519 46.426802 
L 480.5751 36.523503 
L 480.7983 45.290954 
L 481.0215 41.533629 
L 481.2447 45.912906 
L 481.4679 43.613831 
L 481.6911 42.466335 
L 481.9143 44.472269 
L 482.1375 42.983965 
L 482.5839 47.064756 
L 482.8071 31.519442 
L 483.0303 37.959153 
L 483.2535 40.872515 
L 483.4767 40.834741 
L 483.9231 49.656828 
L 484.1463 44.543137 
L 484.3695 56.807099 
L 484.8159 45.165592 
L 485.0391 49.085889 
L 485.2623 49.861389 
L 485.4855 42.644549 
L 485.7087 47.556717 
L 485.9319 42.487255 
L 486.3783 47.496752 
L 486.6015 40.600345 
L 486.8247 37.733202 
L 487.0479 44.349978 
L 487.2711 40.396848 
L 487.4943 55.615174 
L 487.7175 45.341012 
L 487.9407 41.803898 
L 488.1639 42.447479 
L 488.3871 41.102242 
L 488.6103 38.862143 
L 488.8335 43.195071 
L 489.0567 43.257344 
L 489.2799 53.367972 
L 489.5031 41.016438 
L 489.7263 45.490153 
L 489.9495 40.676381 
L 490.1727 43.156533 
L 490.3959 41.058918 
L 490.6191 41.225705 
L 490.8423 48.909563 
L 491.0655 43.676926 
L 491.2887 44.106218 
L 491.5119 41.104405 
L 491.7351 43.948544 
L 491.9583 40.23009 
L 492.1815 41.932638 
L 492.4047 42.262617 
L 492.6279 47.982255 
L 492.8511 47.470932 
L 493.0743 46.122511 
L 493.0743 46.122511 
" style="fill:none;stroke:#0000ff;stroke-linecap:square;stroke-width:0.5;"/>
   </g>
   <g id="patch_3">
    <path d="M 46.8975 368.74175 
L 493.2975 368.74175 
" style="fill:none;stroke:#000000;stroke-linecap:square;stroke-linejoin:miter;"/>
   </g>
   <g id="patch_4">
    <path d="M 46.8975 23.14175 
L 493.2975 23.14175 
" style="fill:none;stroke:#000000;stroke-linecap:square;stroke-linejoin:miter;"/>
   </g>
   <g id="patch_5">
    <path d="M 493.2975 368.74175 
L 493.2975 23.14175 
" style="fill:none;stroke:#000000;stroke-linecap:square;stroke-linejoin:miter;"/>
   </g>
   <g id="patch_6">
    <path d="M 46.8975 368.74175 
L 46.8975 23.14175 
" style="fill:none;stroke:#000000;stroke-linecap:square;stroke-linejoin:miter;"/>
   </g>
   <g id="matplotlib.axis_1">
    <g id="xtick_1">
     <g id="line2d_2">
      <defs>
       <path d="M 0 0 
L 0 -4 
" id="ma957bfa557" style="stroke:#000000;stroke-width:0.5;"/>
      </defs>
      <g>
       <use style="stroke:#000000;stroke-width:0.5;" x="46.8975" xlink:href="#ma957bfa557" y="368.74175"/>
      </g>
     </g>
     <g id="line2d_3">
      <defs>
       <path d="M 0 0 
L 0 4 
" id="m6d602d101b" style="stroke:#000000;stroke-width:0.5;"/>
      </defs>
      <g>
       <use style="stroke:#000000;stroke-width:0.5;" x="46.8975" xlink:href="#m6d602d101b" y="23.14175"/>
      </g>
     </g>
     <g id="text_1">
      <!-- 0 -->
      <defs>
       <path d="M 31.78125 66.40625 
Q 24.171875 66.40625 20.328125 58.90625 
Q 16.5 51.421875 16.5 36.375 
Q 16.5 21.390625 20.328125 13.890625 
Q 24.171875 6.390625 31.78125 6.390625 
Q 39.453125 6.390625 43.28125 13.890625 
Q 47.125 21.390625 47.125 36.375 
Q 47.125 51.421875 43.28125 58.90625 
Q 39.453125 66.40625 31.78125 66.40625 
M 31.78125 74.21875 
Q 44.046875 74.21875 50.515625 64.515625 
Q 56.984375 54.828125 56.984375 36.375 
Q 56.984375 17.96875 50.515625 8.265625 
Q 44.046875 -1.421875 31.78125 -1.421875 
Q 19.53125 -1.421875 13.0625 8.265625 
Q 6.59375 17.96875 6.59375 36.375 
Q 6.59375 54.828125 13.0625 64.515625 
Q 19.53125 74.21875 31.78125 74.21875 
" id="BitstreamVeraSans-Roman-30"/>
      </defs>
      <g transform="translate(43.08 381.859875)scale(0.12 -0.12)">
       <use xlink:href="#BitstreamVeraSans-Roman-30"/>
      </g>
     </g>
    </g>
    <g id="xtick_2">
     <g id="line2d_4">
      <g>
       <use style="stroke:#000000;stroke-width:0.5;" x="158.4975" xlink:href="#ma957bfa557" y="368.74175"/>
      </g>
     </g>
     <g id="line2d_5">
      <g>
       <use style="stroke:#000000;stroke-width:0.5;" x="158.4975" xlink:href="#m6d602d101b" y="23.14175"/>
      </g>
     </g>
     <g id="text_2">
      <!-- 500 -->
      <defs>
       <path d="M 10.796875 72.90625 
L 49.515625 72.90625 
L 49.515625 64.59375 
L 19.828125 64.59375 
L 19.828125 46.734375 
Q 21.96875 47.46875 24.109375 47.828125 
Q 26.265625 48.1875 28.421875 48.1875 
Q 40.625 48.1875 47.75 41.5 
Q 54.890625 34.8125 54.890625 23.390625 
Q 54.890625 11.625 47.5625 5.09375 
Q 40.234375 -1.421875 26.90625 -1.421875 
Q 22.3125 -1.421875 17.546875 -0.640625 
Q 12.796875 0.140625 7.71875 1.703125 
L 7.71875 11.625 
Q 12.109375 9.234375 16.796875 8.0625 
Q 21.484375 6.890625 26.703125 6.890625 
Q 35.15625 6.890625 40.078125 11.328125 
Q 45.015625 15.765625 45.015625 23.390625 
Q 45.015625 31 40.078125 35.4375 
Q 35.15625 39.890625 26.703125 39.890625 
Q 22.75 39.890625 18.8125 39.015625 
Q 14.890625 38.140625 10.796875 36.28125 
z
" id="BitstreamVeraSans-Roman-35"/>
      </defs>
      <g transform="translate(147.045 381.859875)scale(0.12 -0.12)">
       <use xlink:href="#BitstreamVeraSans-Roman-35"/>
       <use x="63.623046875" xlink:href="#BitstreamVeraSans-Roman-30"/>
       <use x="127.24609375" xlink:href="#BitstreamVeraSans-Roman-30"/>
      </g>
     </g>
    </g>
    <g id="xtick_3">
     <g id="line2d_6">
      <g>
       <use style="stroke:#000000;stroke-width:0.5;" x="270.0975" xlink:href="#ma957bfa557" y="368.74175"/>
      </g>
     </g>
     <g id="line2d_7">
      <g>
       <use style="stroke:#000000;stroke-width:0.5;" x="270.0975" xlink:href="#m6d602d101b" y="23.14175"/>
      </g>
     </g>
     <g id="text_3">
      <!-- 1000 -->
      <defs>
       <path d="M 12.40625 8.296875 
L 28.515625 8.296875 
L 28.515625 63.921875 
L 10.984375 60.40625 
L 10.984375 69.390625 
L 28.421875 72.90625 
L 38.28125 72.90625 
L 38.28125 8.296875 
L 54.390625 8.296875 
L 54.390625 0 
L 12.40625 0 
z
" id="BitstreamVeraSans-Roman-31"/>
      </defs>
      <g transform="translate(254.8275 381.859875)scale(0.12 -0.12)">
       <use xlink:href="#BitstreamVeraSans-Roman-31"/>
       <use x="63.623046875" xlink:href="#BitstreamVeraSans-Roman-30"/>
       <use x="127.24609375" xlink:href="#BitstreamVeraSans-Roman-30"/>
       <use x="190.869140625" xlink:href="#BitstreamVeraSans-Roman-30"/>
      </g>
     </g>
    </g>
    <g id="xtick_4">
     <g id="line2d_8">
      <g>
       <use style="stroke:#000000;stroke-width:0.5;" x="381.6975" xlink:href="#ma957bfa557" y="368.74175"/>
      </g>
     </g>
     <g id="line2d_9">
      <g>
       <use style="stroke:#000000;stroke-width:0.5;" x="381.6975" xlink:href="#m6d602d101b" y="23.14175"/>
      </g>
     </g>
     <g id="text_4">
      <!-- 1500 -->
      <g transform="translate(366.4275 381.859875)scale(0.12 -0.12)">
       <use xlink:href="#BitstreamVeraSans-Roman-31"/>
       <use x="63.623046875" xlink:href="#BitstreamVeraSans-Roman-35"/>
       <use x="127.24609375" xlink:href="#BitstreamVeraSans-Roman-30"/>
       <use x="190.869140625" xlink:href="#BitstreamVeraSans-Roman-30"/>
      </g>
     </g>
    </g>
    <g id="xtick_5">
     <g id="line2d_10">
      <g>
       <use style="stroke:#000000;stroke-width:0.5;" x="493.2975" xlink:href="#ma957bfa557" y="368.74175"/>
      </g>
     </g>
     <g id="line2d_11">
      <g>
       <use style="stroke:#000000;stroke-width:0.5;" x="493.2975" xlink:href="#m6d602d101b" y="23.14175"/>
      </g>
     </g>
     <g id="text_5">
      <!-- 2000 -->
      <defs>
       <path d="M 19.1875 8.296875 
L 53.609375 8.296875 
L 53.609375 0 
L 7.328125 0 
L 7.328125 8.296875 
Q 12.9375 14.109375 22.625 23.890625 
Q 32.328125 33.6875 34.8125 36.53125 
Q 39.546875 41.84375 41.421875 45.53125 
Q 43.3125 49.21875 43.3125 52.78125 
Q 43.3125 58.59375 39.234375 62.25 
Q 35.15625 65.921875 28.609375 65.921875 
Q 23.96875 65.921875 18.8125 64.3125 
Q 13.671875 62.703125 7.8125 59.421875 
L 7.8125 69.390625 
Q 13.765625 71.78125 18.9375 73 
Q 24.125 74.21875 28.421875 74.21875 
Q 39.75 74.21875 46.484375 68.546875 
Q 53.21875 62.890625 53.21875 53.421875 
Q 53.21875 48.921875 51.53125 44.890625 
Q 49.859375 40.875 45.40625 35.40625 
Q 44.1875 33.984375 37.640625 27.21875 
Q 31.109375 20.453125 19.1875 8.296875 
" id="BitstreamVeraSans-Roman-32"/>
      </defs>
      <g transform="translate(478.0275 381.859875)scale(0.12 -0.12)">
       <use xlink:href="#BitstreamVeraSans-Roman-32"/>
       <use x="63.623046875" xlink:href="#BitstreamVeraSans-Roman-30"/>
       <use x="127.24609375" xlink:href="#BitstreamVeraSans-Roman-30"/>
       <use x="190.869140625" xlink:href="#BitstreamVeraSans-Roman-30"/>
      </g>
     </g>
    </g>
    <g id="text_6">
     <!-- episode -->
     <defs>
      <path d="M 18.109375 8.203125 
L 18.109375 -20.796875 
L 9.078125 -20.796875 
L 9.078125 54.6875 
L 18.109375 54.6875 
L 18.109375 46.390625 
Q 20.953125 51.265625 25.265625 53.625 
Q 29.59375 56 35.59375 56 
Q 45.5625 56 51.78125 48.09375 
Q 58.015625 40.1875 58.015625 27.296875 
Q 58.015625 14.40625 51.78125 6.484375 
Q 45.5625 -1.421875 35.59375 -1.421875 
Q 29.59375 -1.421875 25.265625 0.953125 
Q 20.953125 3.328125 18.109375 8.203125 
M 48.6875 27.296875 
Q 48.6875 37.203125 44.609375 42.84375 
Q 40.53125 48.484375 33.40625 48.484375 
Q 26.265625 48.484375 22.1875 42.84375 
Q 18.109375 37.203125 18.109375 27.296875 
Q 18.109375 17.390625 22.1875 11.75 
Q 26.265625 6.109375 33.40625 6.109375 
Q 40.53125 6.109375 44.609375 11.75 
Q 48.6875 17.390625 48.6875 27.296875 
" id="BitstreamVeraSans-Roman-70"/>
      <path d="M 30.609375 48.390625 
Q 23.390625 48.390625 19.1875 42.75 
Q 14.984375 37.109375 14.984375 27.296875 
Q 14.984375 17.484375 19.15625 11.84375 
Q 23.34375 6.203125 30.609375 6.203125 
Q 37.796875 6.203125 41.984375 11.859375 
Q 46.1875 17.53125 46.1875 27.296875 
Q 46.1875 37.015625 41.984375 42.703125 
Q 37.796875 48.390625 30.609375 48.390625 
M 30.609375 56 
Q 42.328125 56 49.015625 48.375 
Q 55.71875 40.765625 55.71875 27.296875 
Q 55.71875 13.875 49.015625 6.21875 
Q 42.328125 -1.421875 30.609375 -1.421875 
Q 18.84375 -1.421875 12.171875 6.21875 
Q 5.515625 13.875 5.515625 27.296875 
Q 5.515625 40.765625 12.171875 48.375 
Q 18.84375 56 30.609375 56 
" id="BitstreamVeraSans-Roman-6f"/>
      <path d="M 9.421875 54.6875 
L 18.40625 54.6875 
L 18.40625 0 
L 9.421875 0 
z
M 9.421875 75.984375 
L 18.40625 75.984375 
L 18.40625 64.59375 
L 9.421875 64.59375 
z
" id="BitstreamVeraSans-Roman-69"/>
      <path d="M 45.40625 46.390625 
L 45.40625 75.984375 
L 54.390625 75.984375 
L 54.390625 0 
L 45.40625 0 
L 45.40625 8.203125 
Q 42.578125 3.328125 38.25 0.953125 
Q 33.9375 -1.421875 27.875 -1.421875 
Q 17.96875 -1.421875 11.734375 6.484375 
Q 5.515625 14.40625 5.515625 27.296875 
Q 5.515625 40.1875 11.734375 48.09375 
Q 17.96875 56 27.875 56 
Q 33.9375 56 38.25 53.625 
Q 42.578125 51.265625 45.40625 46.390625 
M 14.796875 27.296875 
Q 14.796875 17.390625 18.875 11.75 
Q 22.953125 6.109375 30.078125 6.109375 
Q 37.203125 6.109375 41.296875 11.75 
Q 45.40625 17.390625 45.40625 27.296875 
Q 45.40625 37.203125 41.296875 42.84375 
Q 37.203125 48.484375 30.078125 48.484375 
Q 22.953125 48.484375 18.875 42.84375 
Q 14.796875 37.203125 14.796875 27.296875 
" id="BitstreamVeraSans-Roman-64"/>
      <path d="M 44.28125 53.078125 
L 44.28125 44.578125 
Q 40.484375 46.53125 36.375 47.5 
Q 32.28125 48.484375 27.875 48.484375 
Q 21.1875 48.484375 17.84375 46.4375 
Q 14.5 44.390625 14.5 40.28125 
Q 14.5 37.15625 16.890625 35.375 
Q 19.28125 33.59375 26.515625 31.984375 
L 29.59375 31.296875 
Q 39.15625 29.25 43.1875 25.515625 
Q 47.21875 21.78125 47.21875 15.09375 
Q 47.21875 7.46875 41.1875 3.015625 
Q 35.15625 -1.421875 24.609375 -1.421875 
Q 20.21875 -1.421875 15.453125 -0.5625 
Q 10.6875 0.296875 5.421875 2 
L 5.421875 11.28125 
Q 10.40625 8.6875 15.234375 7.390625 
Q 20.0625 6.109375 24.8125 6.109375 
Q 31.15625 6.109375 34.5625 8.28125 
Q 37.984375 10.453125 37.984375 14.40625 
Q 37.984375 18.0625 35.515625 20.015625 
Q 33.0625 21.96875 24.703125 23.78125 
L 21.578125 24.515625 
Q 13.234375 26.265625 9.515625 29.90625 
Q 5.8125 33.546875 5.8125 39.890625 
Q 5.8125 47.609375 11.28125 51.796875 
Q 16.75 56 26.8125 56 
Q 31.78125 56 36.171875 55.265625 
Q 40.578125 54.546875 44.28125 53.078125 
" id="BitstreamVeraSans-Roman-73"/>
      <path d="M 56.203125 29.59375 
L 56.203125 25.203125 
L 14.890625 25.203125 
Q 15.484375 15.921875 20.484375 11.0625 
Q 25.484375 6.203125 34.421875 6.203125 
Q 39.59375 6.203125 44.453125 7.46875 
Q 49.3125 8.734375 54.109375 11.28125 
L 54.109375 2.78125 
Q 49.265625 0.734375 44.1875 -0.34375 
Q 39.109375 -1.421875 33.890625 -1.421875 
Q 20.796875 -1.421875 13.15625 6.1875 
Q 5.515625 13.8125 5.515625 26.8125 
Q 5.515625 40.234375 12.765625 48.109375 
Q 20.015625 56 32.328125 56 
Q 43.359375 56 49.78125 48.890625 
Q 56.203125 41.796875 56.203125 29.59375 
M 47.21875 32.234375 
Q 47.125 39.59375 43.09375 43.984375 
Q 39.0625 48.390625 32.421875 48.390625 
Q 24.90625 48.390625 20.390625 44.140625 
Q 15.875 39.890625 15.1875 32.171875 
z
" id="BitstreamVeraSans-Roman-65"/>
     </defs>
     <g transform="translate(246.631875 398.473625)scale(0.12 -0.12)">
      <use xlink:href="#BitstreamVeraSans-Roman-65"/>
      <use x="61.5234375" xlink:href="#BitstreamVeraSans-Roman-70"/>
      <use x="125.0" xlink:href="#BitstreamVeraSans-Roman-69"/>
      <use x="152.783203125" xlink:href="#BitstreamVeraSans-Roman-73"/>
      <use x="204.8828125" xlink:href="#BitstreamVeraSans-Roman-6f"/>
      <use x="266.064453125" xlink:href="#BitstreamVeraSans-Roman-64"/>
      <use x="329.541015625" xlink:href="#BitstreamVeraSans-Roman-65"/>
     </g>
    </g>
   </g>
   <g id="matplotlib.axis_2">
    <g id="ytick_1">
     <g id="line2d_12">
      <defs>
       <path d="M 0 0 
L 4 0 
" id="m036f0a3775" style="stroke:#000000;stroke-width:0.5;"/>
      </defs>
      <g>
       <use style="stroke:#000000;stroke-width:0.5;" x="46.8975" xlink:href="#m036f0a3775" y="368.74175"/>
      </g>
     </g>
     <g id="line2d_13">
      <defs>
       <path d="M 0 0 
L -4 0 
" id="m2472250f7a" style="stroke:#000000;stroke-width:0.5;"/>
      </defs>
      <g>
       <use style="stroke:#000000;stroke-width:0.5;" x="493.2975" xlink:href="#m2472250f7a" y="368.74175"/>
      </g>
     </g>
     <g id="text_7">
      <!-- 0.1 -->
      <defs>
       <path d="M 10.6875 12.40625 
L 21 12.40625 
L 21 0 
L 10.6875 0 
z
" id="BitstreamVeraSans-Roman-2e"/>
      </defs>
      <g transform="translate(23.81375 372.053)scale(0.12 -0.12)">
       <use xlink:href="#BitstreamVeraSans-Roman-30"/>
       <use x="63.623046875" xlink:href="#BitstreamVeraSans-Roman-2e"/>
       <use x="95.41015625" xlink:href="#BitstreamVeraSans-Roman-31"/>
      </g>
     </g>
    </g>
    <g id="ytick_2">
     <g id="line2d_14">
      <g>
       <use style="stroke:#000000;stroke-width:0.5;" x="46.8975" xlink:href="#m036f0a3775" y="330.34175"/>
      </g>
     </g>
     <g id="line2d_15">
      <g>
       <use style="stroke:#000000;stroke-width:0.5;" x="493.2975" xlink:href="#m2472250f7a" y="330.34175"/>
      </g>
     </g>
     <g id="text_8">
      <!-- 0.2 -->
      <g transform="translate(23.81375 333.653)scale(0.12 -0.12)">
       <use xlink:href="#BitstreamVeraSans-Roman-30"/>
       <use x="63.623046875" xlink:href="#BitstreamVeraSans-Roman-2e"/>
       <use x="95.41015625" xlink:href="#BitstreamVeraSans-Roman-32"/>
      </g>
     </g>
    </g>
    <g id="ytick_3">
     <g id="line2d_16">
      <g>
       <use style="stroke:#000000;stroke-width:0.5;" x="46.8975" xlink:href="#m036f0a3775" y="291.94175"/>
      </g>
     </g>
     <g id="line2d_17">
      <g>
       <use style="stroke:#000000;stroke-width:0.5;" x="493.2975" xlink:href="#m2472250f7a" y="291.94175"/>
      </g>
     </g>
     <g id="text_9">
      <!-- 0.3 -->
      <defs>
       <path d="M 40.578125 39.3125 
Q 47.65625 37.796875 51.625 33 
Q 55.609375 28.21875 55.609375 21.1875 
Q 55.609375 10.40625 48.1875 4.484375 
Q 40.765625 -1.421875 27.09375 -1.421875 
Q 22.515625 -1.421875 17.65625 -0.515625 
Q 12.796875 0.390625 7.625 2.203125 
L 7.625 11.71875 
Q 11.71875 9.328125 16.59375 8.109375 
Q 21.484375 6.890625 26.8125 6.890625 
Q 36.078125 6.890625 40.9375 10.546875 
Q 45.796875 14.203125 45.796875 21.1875 
Q 45.796875 27.640625 41.28125 31.265625 
Q 36.765625 34.90625 28.71875 34.90625 
L 20.21875 34.90625 
L 20.21875 43.015625 
L 29.109375 43.015625 
Q 36.375 43.015625 40.234375 45.921875 
Q 44.09375 48.828125 44.09375 54.296875 
Q 44.09375 59.90625 40.109375 62.90625 
Q 36.140625 65.921875 28.71875 65.921875 
Q 24.65625 65.921875 20.015625 65.03125 
Q 15.375 64.15625 9.8125 62.3125 
L 9.8125 71.09375 
Q 15.4375 72.65625 20.34375 73.4375 
Q 25.25 74.21875 29.59375 74.21875 
Q 40.828125 74.21875 47.359375 69.109375 
Q 53.90625 64.015625 53.90625 55.328125 
Q 53.90625 49.265625 50.4375 45.09375 
Q 46.96875 40.921875 40.578125 39.3125 
" id="BitstreamVeraSans-Roman-33"/>
      </defs>
      <g transform="translate(23.81375 295.253)scale(0.12 -0.12)">
       <use xlink:href="#BitstreamVeraSans-Roman-30"/>
       <use x="63.623046875" xlink:href="#BitstreamVeraSans-Roman-2e"/>
       <use x="95.41015625" xlink:href="#BitstreamVeraSans-Roman-33"/>
      </g>
     </g>
    </g>
    <g id="ytick_4">
     <g id="line2d_18">
      <g>
       <use style="stroke:#000000;stroke-width:0.5;" x="46.8975" xlink:href="#m036f0a3775" y="253.54175"/>
      </g>
     </g>
     <g id="line2d_19">
      <g>
       <use style="stroke:#000000;stroke-width:0.5;" x="493.2975" xlink:href="#m2472250f7a" y="253.54175"/>
      </g>
     </g>
     <g id="text_10">
      <!-- 0.4 -->
      <defs>
       <path d="M 37.796875 64.3125 
L 12.890625 25.390625 
L 37.796875 25.390625 
z
M 35.203125 72.90625 
L 47.609375 72.90625 
L 47.609375 25.390625 
L 58.015625 25.390625 
L 58.015625 17.1875 
L 47.609375 17.1875 
L 47.609375 0 
L 37.796875 0 
L 37.796875 17.1875 
L 4.890625 17.1875 
L 4.890625 26.703125 
z
" id="BitstreamVeraSans-Roman-34"/>
      </defs>
      <g transform="translate(23.81375 256.853)scale(0.12 -0.12)">
       <use xlink:href="#BitstreamVeraSans-Roman-30"/>
       <use x="63.623046875" xlink:href="#BitstreamVeraSans-Roman-2e"/>
       <use x="95.41015625" xlink:href="#BitstreamVeraSans-Roman-34"/>
      </g>
     </g>
    </g>
    <g id="ytick_5">
     <g id="line2d_20">
      <g>
       <use style="stroke:#000000;stroke-width:0.5;" x="46.8975" xlink:href="#m036f0a3775" y="215.14175"/>
      </g>
     </g>
     <g id="line2d_21">
      <g>
       <use style="stroke:#000000;stroke-width:0.5;" x="493.2975" xlink:href="#m2472250f7a" y="215.14175"/>
      </g>
     </g>
     <g id="text_11">
      <!-- 0.5 -->
      <g transform="translate(23.81375 218.453)scale(0.12 -0.12)">
       <use xlink:href="#BitstreamVeraSans-Roman-30"/>
       <use x="63.623046875" xlink:href="#BitstreamVeraSans-Roman-2e"/>
       <use x="95.41015625" xlink:href="#BitstreamVeraSans-Roman-35"/>
      </g>
     </g>
    </g>
    <g id="ytick_6">
     <g id="line2d_22">
      <g>
       <use style="stroke:#000000;stroke-width:0.5;" x="46.8975" xlink:href="#m036f0a3775" y="176.74175"/>
      </g>
     </g>
     <g id="line2d_23">
      <g>
       <use style="stroke:#000000;stroke-width:0.5;" x="493.2975" xlink:href="#m2472250f7a" y="176.74175"/>
      </g>
     </g>
     <g id="text_12">
      <!-- 0.6 -->
      <defs>
       <path d="M 33.015625 40.375 
Q 26.375 40.375 22.484375 35.828125 
Q 18.609375 31.296875 18.609375 23.390625 
Q 18.609375 15.53125 22.484375 10.953125 
Q 26.375 6.390625 33.015625 6.390625 
Q 39.65625 6.390625 43.53125 10.953125 
Q 47.40625 15.53125 47.40625 23.390625 
Q 47.40625 31.296875 43.53125 35.828125 
Q 39.65625 40.375 33.015625 40.375 
M 52.59375 71.296875 
L 52.59375 62.3125 
Q 48.875 64.0625 45.09375 64.984375 
Q 41.3125 65.921875 37.59375 65.921875 
Q 27.828125 65.921875 22.671875 59.328125 
Q 17.53125 52.734375 16.796875 39.40625 
Q 19.671875 43.65625 24.015625 45.921875 
Q 28.375 48.1875 33.59375 48.1875 
Q 44.578125 48.1875 50.953125 41.515625 
Q 57.328125 34.859375 57.328125 23.390625 
Q 57.328125 12.15625 50.6875 5.359375 
Q 44.046875 -1.421875 33.015625 -1.421875 
Q 20.359375 -1.421875 13.671875 8.265625 
Q 6.984375 17.96875 6.984375 36.375 
Q 6.984375 53.65625 15.1875 63.9375 
Q 23.390625 74.21875 37.203125 74.21875 
Q 40.921875 74.21875 44.703125 73.484375 
Q 48.484375 72.75 52.59375 71.296875 
" id="BitstreamVeraSans-Roman-36"/>
      </defs>
      <g transform="translate(23.81375 180.053)scale(0.12 -0.12)">
       <use xlink:href="#BitstreamVeraSans-Roman-30"/>
       <use x="63.623046875" xlink:href="#BitstreamVeraSans-Roman-2e"/>
       <use x="95.41015625" xlink:href="#BitstreamVeraSans-Roman-36"/>
      </g>
     </g>
    </g>
    <g id="ytick_7">
     <g id="line2d_24">
      <g>
       <use style="stroke:#000000;stroke-width:0.5;" x="46.8975" xlink:href="#m036f0a3775" y="138.34175"/>
      </g>
     </g>
     <g id="line2d_25">
      <g>
       <use style="stroke:#000000;stroke-width:0.5;" x="493.2975" xlink:href="#m2472250f7a" y="138.34175"/>
      </g>
     </g>
     <g id="text_13">
      <!-- 0.7 -->
      <defs>
       <path d="M 8.203125 72.90625 
L 55.078125 72.90625 
L 55.078125 68.703125 
L 28.609375 0 
L 18.3125 0 
L 43.21875 64.59375 
L 8.203125 64.59375 
z
" id="BitstreamVeraSans-Roman-37"/>
      </defs>
      <g transform="translate(23.81375 141.653)scale(0.12 -0.12)">
       <use xlink:href="#BitstreamVeraSans-Roman-30"/>
       <use x="63.623046875" xlink:href="#BitstreamVeraSans-Roman-2e"/>
       <use x="95.41015625" xlink:href="#BitstreamVeraSans-Roman-37"/>
      </g>
     </g>
    </g>
    <g id="ytick_8">
     <g id="line2d_26">
      <g>
       <use style="stroke:#000000;stroke-width:0.5;" x="46.8975" xlink:href="#m036f0a3775" y="99.94175"/>
      </g>
     </g>
     <g id="line2d_27">
      <g>
       <use style="stroke:#000000;stroke-width:0.5;" x="493.2975" xlink:href="#m2472250f7a" y="99.94175"/>
      </g>
     </g>
     <g id="text_14">
      <!-- 0.8 -->
      <defs>
       <path d="M 31.78125 34.625 
Q 24.75 34.625 20.71875 30.859375 
Q 16.703125 27.09375 16.703125 20.515625 
Q 16.703125 13.921875 20.71875 10.15625 
Q 24.75 6.390625 31.78125 6.390625 
Q 38.8125 6.390625 42.859375 10.171875 
Q 46.921875 13.96875 46.921875 20.515625 
Q 46.921875 27.09375 42.890625 30.859375 
Q 38.875 34.625 31.78125 34.625 
M 21.921875 38.8125 
Q 15.578125 40.375 12.03125 44.71875 
Q 8.5 49.078125 8.5 55.328125 
Q 8.5 64.0625 14.71875 69.140625 
Q 20.953125 74.21875 31.78125 74.21875 
Q 42.671875 74.21875 48.875 69.140625 
Q 55.078125 64.0625 55.078125 55.328125 
Q 55.078125 49.078125 51.53125 44.71875 
Q 48 40.375 41.703125 38.8125 
Q 48.828125 37.15625 52.796875 32.3125 
Q 56.78125 27.484375 56.78125 20.515625 
Q 56.78125 9.90625 50.3125 4.234375 
Q 43.84375 -1.421875 31.78125 -1.421875 
Q 19.734375 -1.421875 13.25 4.234375 
Q 6.78125 9.90625 6.78125 20.515625 
Q 6.78125 27.484375 10.78125 32.3125 
Q 14.796875 37.15625 21.921875 38.8125 
M 18.3125 54.390625 
Q 18.3125 48.734375 21.84375 45.5625 
Q 25.390625 42.390625 31.78125 42.390625 
Q 38.140625 42.390625 41.71875 45.5625 
Q 45.3125 48.734375 45.3125 54.390625 
Q 45.3125 60.0625 41.71875 63.234375 
Q 38.140625 66.40625 31.78125 66.40625 
Q 25.390625 66.40625 21.84375 63.234375 
Q 18.3125 60.0625 18.3125 54.390625 
" id="BitstreamVeraSans-Roman-38"/>
      </defs>
      <g transform="translate(23.81375 103.253)scale(0.12 -0.12)">
       <use xlink:href="#BitstreamVeraSans-Roman-30"/>
       <use x="63.623046875" xlink:href="#BitstreamVeraSans-Roman-2e"/>
       <use x="95.41015625" xlink:href="#BitstreamVeraSans-Roman-38"/>
      </g>
     </g>
    </g>
    <g id="ytick_9">
     <g id="line2d_28">
      <g>
       <use style="stroke:#000000;stroke-width:0.5;" x="46.8975" xlink:href="#m036f0a3775" y="61.54175"/>
      </g>
     </g>
     <g id="line2d_29">
      <g>
       <use style="stroke:#000000;stroke-width:0.5;" x="493.2975" xlink:href="#m2472250f7a" y="61.54175"/>
      </g>
     </g>
     <g id="text_15">
      <!-- 0.9 -->
      <defs>
       <path d="M 10.984375 1.515625 
L 10.984375 10.5 
Q 14.703125 8.734375 18.5 7.8125 
Q 22.3125 6.890625 25.984375 6.890625 
Q 35.75 6.890625 40.890625 13.453125 
Q 46.046875 20.015625 46.78125 33.40625 
Q 43.953125 29.203125 39.59375 26.953125 
Q 35.25 24.703125 29.984375 24.703125 
Q 19.046875 24.703125 12.671875 31.3125 
Q 6.296875 37.9375 6.296875 49.421875 
Q 6.296875 60.640625 12.9375 67.421875 
Q 19.578125 74.21875 30.609375 74.21875 
Q 43.265625 74.21875 49.921875 64.515625 
Q 56.59375 54.828125 56.59375 36.375 
Q 56.59375 19.140625 48.40625 8.859375 
Q 40.234375 -1.421875 26.421875 -1.421875 
Q 22.703125 -1.421875 18.890625 -0.6875 
Q 15.09375 0.046875 10.984375 1.515625 
M 30.609375 32.421875 
Q 37.25 32.421875 41.125 36.953125 
Q 45.015625 41.5 45.015625 49.421875 
Q 45.015625 57.28125 41.125 61.84375 
Q 37.25 66.40625 30.609375 66.40625 
Q 23.96875 66.40625 20.09375 61.84375 
Q 16.21875 57.28125 16.21875 49.421875 
Q 16.21875 41.5 20.09375 36.953125 
Q 23.96875 32.421875 30.609375 32.421875 
" id="BitstreamVeraSans-Roman-39"/>
      </defs>
      <g transform="translate(23.81375 64.853)scale(0.12 -0.12)">
       <use xlink:href="#BitstreamVeraSans-Roman-30"/>
       <use x="63.623046875" xlink:href="#BitstreamVeraSans-Roman-2e"/>
       <use x="95.41015625" xlink:href="#BitstreamVeraSans-Roman-39"/>
      </g>
     </g>
    </g>
    <g id="ytick_10">
     <g id="line2d_30">
      <g>
       <use style="stroke:#000000;stroke-width:0.5;" x="46.8975" xlink:href="#m036f0a3775" y="23.14175"/>
      </g>
     </g>
     <g id="line2d_31">
      <g>
       <use style="stroke:#000000;stroke-width:0.5;" x="493.2975" xlink:href="#m2472250f7a" y="23.14175"/>
      </g>
     </g>
     <g id="text_16">
      <!-- 1.0 -->
      <g transform="translate(23.81375 26.453)scale(0.12 -0.12)">
       <use xlink:href="#BitstreamVeraSans-Roman-31"/>
       <use x="63.623046875" xlink:href="#BitstreamVeraSans-Roman-2e"/>
       <use x="95.41015625" xlink:href="#BitstreamVeraSans-Roman-30"/>
      </g>
     </g>
    </g>
    <g id="text_17">
     <!-- average maxQ -->
     <defs>
      <path d="M 2.984375 54.6875 
L 12.5 54.6875 
L 29.59375 8.796875 
L 46.6875 54.6875 
L 56.203125 54.6875 
L 35.6875 0 
L 23.484375 0 
z
" id="BitstreamVeraSans-Roman-76"/>
      <path d="M 39.40625 66.21875 
Q 28.65625 66.21875 22.328125 58.203125 
Q 16.015625 50.203125 16.015625 36.375 
Q 16.015625 22.609375 22.328125 14.59375 
Q 28.65625 6.59375 39.40625 6.59375 
Q 50.140625 6.59375 56.421875 14.59375 
Q 62.703125 22.609375 62.703125 36.375 
Q 62.703125 50.203125 56.421875 58.203125 
Q 50.140625 66.21875 39.40625 66.21875 
M 53.21875 1.3125 
L 66.21875 -12.890625 
L 54.296875 -12.890625 
L 43.5 -1.21875 
Q 41.890625 -1.3125 41.03125 -1.359375 
Q 40.1875 -1.421875 39.40625 -1.421875 
Q 24.03125 -1.421875 14.8125 8.859375 
Q 5.609375 19.140625 5.609375 36.375 
Q 5.609375 53.65625 14.8125 63.9375 
Q 24.03125 74.21875 39.40625 74.21875 
Q 54.734375 74.21875 63.90625 63.9375 
Q 73.09375 53.65625 73.09375 36.375 
Q 73.09375 23.6875 67.984375 14.640625 
Q 62.890625 5.609375 53.21875 1.3125 
" id="BitstreamVeraSans-Roman-51"/>
      <path d="M 41.109375 46.296875 
Q 39.59375 47.171875 37.8125 47.578125 
Q 36.03125 48 33.890625 48 
Q 26.265625 48 22.1875 43.046875 
Q 18.109375 38.09375 18.109375 28.8125 
L 18.109375 0 
L 9.078125 0 
L 9.078125 54.6875 
L 18.109375 54.6875 
L 18.109375 46.1875 
Q 20.953125 51.171875 25.484375 53.578125 
Q 30.03125 56 36.53125 56 
Q 37.453125 56 38.578125 55.875 
Q 39.703125 55.765625 41.0625 55.515625 
z
" id="BitstreamVeraSans-Roman-72"/>
      <path d="M 45.40625 27.984375 
Q 45.40625 37.75 41.375 43.109375 
Q 37.359375 48.484375 30.078125 48.484375 
Q 22.859375 48.484375 18.828125 43.109375 
Q 14.796875 37.75 14.796875 27.984375 
Q 14.796875 18.265625 18.828125 12.890625 
Q 22.859375 7.515625 30.078125 7.515625 
Q 37.359375 7.515625 41.375 12.890625 
Q 45.40625 18.265625 45.40625 27.984375 
M 54.390625 6.78125 
Q 54.390625 -7.171875 48.1875 -13.984375 
Q 42 -20.796875 29.203125 -20.796875 
Q 24.46875 -20.796875 20.265625 -20.09375 
Q 16.0625 -19.390625 12.109375 -17.921875 
L 12.109375 -9.1875 
Q 16.0625 -11.328125 19.921875 -12.34375 
Q 23.78125 -13.375 27.78125 -13.375 
Q 36.625 -13.375 41.015625 -8.765625 
Q 45.40625 -4.15625 45.40625 5.171875 
L 45.40625 9.625 
Q 42.625 4.78125 38.28125 2.390625 
Q 33.9375 0 27.875 0 
Q 17.828125 0 11.671875 7.65625 
Q 5.515625 15.328125 5.515625 27.984375 
Q 5.515625 40.671875 11.671875 48.328125 
Q 17.828125 56 27.875 56 
Q 33.9375 56 38.28125 53.609375 
Q 42.625 51.21875 45.40625 46.390625 
L 45.40625 54.6875 
L 54.390625 54.6875 
z
" id="BitstreamVeraSans-Roman-67"/>
      <path d="M 34.28125 27.484375 
Q 23.390625 27.484375 19.1875 25 
Q 14.984375 22.515625 14.984375 16.5 
Q 14.984375 11.71875 18.140625 8.90625 
Q 21.296875 6.109375 26.703125 6.109375 
Q 34.1875 6.109375 38.703125 11.40625 
Q 43.21875 16.703125 43.21875 25.484375 
L 43.21875 27.484375 
z
M 52.203125 31.203125 
L 52.203125 0 
L 43.21875 0 
L 43.21875 8.296875 
Q 40.140625 3.328125 35.546875 0.953125 
Q 30.953125 -1.421875 24.3125 -1.421875 
Q 15.921875 -1.421875 10.953125 3.296875 
Q 6 8.015625 6 15.921875 
Q 6 25.140625 12.171875 29.828125 
Q 18.359375 34.515625 30.609375 34.515625 
L 43.21875 34.515625 
L 43.21875 35.40625 
Q 43.21875 41.609375 39.140625 45 
Q 35.0625 48.390625 27.6875 48.390625 
Q 23 48.390625 18.546875 47.265625 
Q 14.109375 46.140625 10.015625 43.890625 
L 10.015625 52.203125 
Q 14.9375 54.109375 19.578125 55.046875 
Q 24.21875 56 28.609375 56 
Q 40.484375 56 46.34375 49.84375 
Q 52.203125 43.703125 52.203125 31.203125 
" id="BitstreamVeraSans-Roman-61"/>
      <path id="BitstreamVeraSans-Roman-20"/>
      <path d="M 52 44.1875 
Q 55.375 50.25 60.0625 53.125 
Q 64.75 56 71.09375 56 
Q 79.640625 56 84.28125 50.015625 
Q 88.921875 44.046875 88.921875 33.015625 
L 88.921875 0 
L 79.890625 0 
L 79.890625 32.71875 
Q 79.890625 40.578125 77.09375 44.375 
Q 74.3125 48.1875 68.609375 48.1875 
Q 61.625 48.1875 57.5625 43.546875 
Q 53.515625 38.921875 53.515625 30.90625 
L 53.515625 0 
L 44.484375 0 
L 44.484375 32.71875 
Q 44.484375 40.625 41.703125 44.40625 
Q 38.921875 48.1875 33.109375 48.1875 
Q 26.21875 48.1875 22.15625 43.53125 
Q 18.109375 38.875 18.109375 30.90625 
L 18.109375 0 
L 9.078125 0 
L 9.078125 54.6875 
L 18.109375 54.6875 
L 18.109375 46.1875 
Q 21.1875 51.21875 25.484375 53.609375 
Q 29.78125 56 35.6875 56 
Q 41.65625 56 45.828125 52.96875 
Q 50 49.953125 52 44.1875 
" id="BitstreamVeraSans-Roman-6d"/>
      <path d="M 54.890625 54.6875 
L 35.109375 28.078125 
L 55.90625 0 
L 45.3125 0 
L 29.390625 21.484375 
L 13.484375 0 
L 2.875 0 
L 24.125 28.609375 
L 4.6875 54.6875 
L 15.28125 54.6875 
L 29.78125 35.203125 
L 44.28125 54.6875 
z
" id="BitstreamVeraSans-Roman-78"/>
     </defs>
     <g transform="translate(16.318125 240.208625)rotate(-90.0)scale(0.12 -0.12)">
      <use xlink:href="#BitstreamVeraSans-Roman-61"/>
      <use x="61.279296875" xlink:href="#BitstreamVeraSans-Roman-76"/>
      <use x="120.458984375" xlink:href="#BitstreamVeraSans-Roman-65"/>
      <use x="181.982421875" xlink:href="#BitstreamVeraSans-Roman-72"/>
      <use x="223.095703125" xlink:href="#BitstreamVeraSans-Roman-61"/>
      <use x="284.375" xlink:href="#BitstreamVeraSans-Roman-67"/>
      <use x="347.8515625" xlink:href="#BitstreamVeraSans-Roman-65"/>
      <use x="409.375" xlink:href="#BitstreamVeraSans-Roman-20"/>
      <use x="441.162109375" xlink:href="#BitstreamVeraSans-Roman-6d"/>
      <use x="538.57421875" xlink:href="#BitstreamVeraSans-Roman-61"/>
      <use x="599.853515625" xlink:href="#BitstreamVeraSans-Roman-78"/>
      <use x="659.033203125" xlink:href="#BitstreamVeraSans-Roman-51"/>
     </g>
    </g>
   </g>
   <g id="text_18">
    <!-- Average maxQ per episode, joint 5 -->
    <defs>
     <path d="M 18.3125 70.21875 
L 18.3125 54.6875 
L 36.8125 54.6875 
L 36.8125 47.703125 
L 18.3125 47.703125 
L 18.3125 18.015625 
Q 18.3125 11.328125 20.140625 9.421875 
Q 21.96875 7.515625 27.59375 7.515625 
L 36.8125 7.515625 
L 36.8125 0 
L 27.59375 0 
Q 17.1875 0 13.234375 3.875 
Q 9.28125 7.765625 9.28125 18.015625 
L 9.28125 47.703125 
L 2.6875 47.703125 
L 2.6875 54.6875 
L 9.28125 54.6875 
L 9.28125 70.21875 
z
" id="BitstreamVeraSans-Roman-74"/>
     <path d="M 9.421875 54.6875 
L 18.40625 54.6875 
L 18.40625 -0.984375 
Q 18.40625 -11.421875 14.421875 -16.109375 
Q 10.453125 -20.796875 1.609375 -20.796875 
L -1.8125 -20.796875 
L -1.8125 -13.1875 
L 0.59375 -13.1875 
Q 5.71875 -13.1875 7.5625 -10.8125 
Q 9.421875 -8.453125 9.421875 -0.984375 
z
M 9.421875 75.984375 
L 18.40625 75.984375 
L 18.40625 64.59375 
L 9.421875 64.59375 
z
" id="BitstreamVeraSans-Roman-6a"/>
     <path d="M 11.71875 12.40625 
L 22.015625 12.40625 
L 22.015625 4 
L 14.015625 -11.625 
L 7.71875 -11.625 
L 11.71875 4 
z
" id="BitstreamVeraSans-Roman-2c"/>
     <path d="M 54.890625 33.015625 
L 54.890625 0 
L 45.90625 0 
L 45.90625 32.71875 
Q 45.90625 40.484375 42.875 44.328125 
Q 39.84375 48.1875 33.796875 48.1875 
Q 26.515625 48.1875 22.3125 43.546875 
Q 18.109375 38.921875 18.109375 30.90625 
L 18.109375 0 
L 9.078125 0 
L 9.078125 54.6875 
L 18.109375 54.6875 
L 18.109375 46.1875 
Q 21.34375 51.125 25.703125 53.5625 
Q 30.078125 56 35.796875 56 
Q 45.21875 56 50.046875 50.171875 
Q 54.890625 44.34375 54.890625 33.015625 
" id="BitstreamVeraSans-Roman-6e"/>
     <path d="M 34.1875 63.1875 
L 20.796875 26.90625 
L 47.609375 26.90625 
z
M 28.609375 72.90625 
L 39.796875 72.90625 
L 67.578125 0 
L 57.328125 0 
L 50.6875 18.703125 
L 17.828125 18.703125 
L 11.1875 0 
L 0.78125 0 
z
" id="BitstreamVeraSans-Roman-41"/>
    </defs>
    <g transform="translate(144.53625 18.14175)scale(0.144 -0.144)">
     <use xlink:href="#BitstreamVeraSans-Roman-41"/>
     <use x="68.330078125" xlink:href="#BitstreamVeraSans-Roman-76"/>
     <use x="127.509765625" xlink:href="#BitstreamVeraSans-Roman-65"/>
     <use x="189.033203125" xlink:href="#BitstreamVeraSans-Roman-72"/>
     <use x="230.146484375" xlink:href="#BitstreamVeraSans-Roman-61"/>
     <use x="291.42578125" xlink:href="#BitstreamVeraSans-Roman-67"/>
     <use x="354.90234375" xlink:href="#BitstreamVeraSans-Roman-65"/>
     <use x="416.42578125" xlink:href="#BitstreamVeraSans-Roman-20"/>
     <use x="448.212890625" xlink:href="#BitstreamVeraSans-Roman-6d"/>
     <use x="545.625" xlink:href="#BitstreamVeraSans-Roman-61"/>
     <use x="606.904296875" xlink:href="#BitstreamVeraSans-Roman-78"/>
     <use x="666.083984375" xlink:href="#BitstreamVeraSans-Roman-51"/>
     <use x="744.794921875" xlink:href="#BitstreamVeraSans-Roman-20"/>
     <use x="776.58203125" xlink:href="#BitstreamVeraSans-Roman-70"/>
     <use x="840.05859375" xlink:href="#BitstreamVeraSans-Roman-65"/>
     <use x="901.58203125" xlink:href="#BitstreamVeraSans-Roman-72"/>
     <use x="942.6953125" xlink:href="#BitstreamVeraSans-Roman-20"/>
     <use x="974.482421875" xlink:href="#BitstreamVeraSans-Roman-65"/>
     <use x="1036.005859375" xlink:href="#BitstreamVeraSans-Roman-70"/>
     <use x="1099.482421875" xlink:href="#BitstreamVeraSans-Roman-69"/>
     <use x="1127.265625" xlink:href="#BitstreamVeraSans-Roman-73"/>
     <use x="1179.365234375" xlink:href="#BitstreamVeraSans-Roman-6f"/>
     <use x="1240.546875" xlink:href="#BitstreamVeraSans-Roman-64"/>
     <use x="1304.0234375" xlink:href="#BitstreamVeraSans-Roman-65"/>
     <use x="1365.546875" xlink:href="#BitstreamVeraSans-Roman-2c"/>
     <use x="1397.333984375" xlink:href="#BitstreamVeraSans-Roman-20"/>
     <use x="1429.12109375" xlink:href="#BitstreamVeraSans-Roman-6a"/>
     <use x="1456.904296875" xlink:href="#BitstreamVeraSans-Roman-6f"/>
     <use x="1518.0859375" xlink:href="#BitstreamVeraSans-Roman-69"/>
     <use x="1545.869140625" xlink:href="#BitstreamVeraSans-Roman-6e"/>
     <use x="1609.248046875" xlink:href="#BitstreamVeraSans-Roman-74"/>
     <use x="1648.45703125" xlink:href="#BitstreamVeraSans-Roman-20"/>
     <use x="1680.244140625" xlink:href="#BitstreamVeraSans-Roman-35"/>
    </g>
   </g>
  </g>
 </g>
 <defs>
  <clipPath id="p1f36003a37">
   <rect height="345.6" width="446.4" x="46.8975" y="23.14175"/>
  </clipPath>
 </defs>
</svg>
