<?xml version="1.0" encoding="utf-8" standalone="no"?>
<!DOCTYPE svg PUBLIC "-//W3C//DTD SVG 1.1//EN"
  "http://www.w3.org/Graphics/SVG/1.1/DTD/svg11.dtd">
<!-- Created with matplotlib (http://matplotlib.org/) -->
<svg height="408pt" version="1.1" viewBox="0 0 515 408" width="515pt" xmlns="http://www.w3.org/2000/svg" xmlns:xlink="http://www.w3.org/1999/xlink">
 <defs>
  <style type="text/css">
*{stroke-linecap:butt;stroke-linejoin:round;stroke-miterlimit:100000;}
  </style>
 </defs>
 <g id="figure_1">
  <g id="patch_1">
   <path d="M 0 408.16925 
L 515.7675 408.16925 
L 515.7675 0 
L 0 0 
z
" style="fill:#ffffff;"/>
  </g>
  <g id="axes_1">
   <g id="patch_2">
    <path d="M 46.8975 368.74175 
L 493.2975 368.74175 
L 493.2975 23.14175 
L 46.8975 23.14175 
z
" style="fill:#ffffff;"/>
   </g>
   <g id="line2d_1">
    <path clip-path="url(#pa92b2ba6cb)" d="M 46.8975 343.655134 
L 47.1765 342.425949 
L 47.4555 344.423028 
L 47.7345 342.463308 
L 48.0135 343.782339 
L 48.2925 344.283855 
L 48.5715 345.622788 
L 48.8505 345.743322 
L 49.1295 346.817212 
L 49.4085 341.836693 
L 49.6875 340.336431 
L 49.9665 341.818842 
L 50.2455 345.527781 
L 50.5245 341.493526 
L 50.8035 345.911673 
L 51.0825 343.289073 
L 51.3615 342.7943 
L 51.6405 343.67211 
L 51.9195 347.548052 
L 52.1985 342.561505 
L 52.4775 345.872017 
L 52.7565 345.896867 
L 53.0355 345.255421 
L 53.3145 343.524888 
L 53.5935 348.863128 
L 54.1515 342.468156 
L 54.4305 342.967555 
L 54.9885 346.120074 
L 55.5465 344.802017 
L 55.8255 343.534473 
L 56.1045 344.49097 
L 56.3835 344.089767 
L 56.6625 342.994391 
L 56.9415 342.589123 
L 57.2205 346.274738 
L 57.4995 344.04367 
L 58.0575 342.141613 
L 58.3365 345.684581 
L 58.6155 344.654488 
L 58.8945 346.234537 
L 59.1735 343.33895 
L 59.4525 342.300491 
L 59.7315 347.280312 
L 60.0105 342.380603 
L 60.5685 344.679885 
L 60.8475 342.530678 
L 61.1265 341.930714 
L 61.4055 344.786965 
L 61.6845 342.569376 
L 61.9635 343.686461 
L 62.2425 339.426984 
L 62.5215 345.726797 
L 63.0795 342.371322 
L 63.3585 344.318314 
L 63.6375 344.501016 
L 63.9165 344.309531 
L 64.1955 345.545324 
L 64.7535 342.688927 
L 65.0325 346.683356 
L 65.3115 342.880462 
L 65.5905 344.244709 
L 65.8695 343.995047 
L 66.1485 342.210187 
L 66.4275 346.257866 
L 66.7065 344.961014 
L 66.9855 348.113339 
L 67.2645 345.73558 
L 67.5435 344.547393 
L 67.8225 340.940852 
L 68.1015 346.621047 
L 68.3805 346.983841 
L 68.9385 342.048638 
L 69.2175 344.870953 
L 69.4965 344.712286 
L 69.7755 344.776306 
L 70.0545 342.934719 
L 70.3335 342.315477 
L 70.6125 343.398891 
L 70.8915 346.932723 
L 71.1705 341.965778 
L 71.7285 345.394572 
L 72.0075 342.405226 
L 72.5655 345.294242 
L 72.8445 345.742344 
L 73.1235 345.387901 
L 73.4025 343.999573 
L 73.6815 341.708522 
L 73.9605 342.560691 
L 74.2395 343.895666 
L 74.5185 342.409226 
L 74.7975 346.116751 
L 75.3555 343.947941 
L 75.6345 344.444537 
L 75.9135 344.644738 
L 76.1925 344.574103 
L 76.4715 344.274507 
L 76.7505 345.169649 
L 77.0295 345.201636 
L 77.3085 345.439181 
L 77.5875 345.307656 
L 77.8665 345.994144 
L 78.1455 346.024409 
L 78.7035 345.650776 
L 78.9825 345.870365 
L 79.5405 345.876582 
L 79.8195 345.543128 
L 80.0985 345.722274 
L 80.6565 345.349575 
L 80.9355 345.315327 
L 81.2145 345.135533 
L 81.4935 345.351863 
L 81.7725 344.799704 
L 82.3305 344.913613 
L 82.8885 344.136192 
L 83.1675 344.376714 
L 83.4465 344.363456 
L 83.7255 343.971082 
L 84.0045 342.222582 
L 84.2835 341.42193 
L 84.5625 343.623267 
L 84.8415 343.202322 
L 85.1205 341.517452 
L 85.3995 340.933328 
L 85.6785 341.00088 
L 85.9575 341.260642 
L 86.2365 341.794995 
L 86.5155 342.069086 
L 86.7945 342.136176 
L 87.3525 339.623336 
L 87.6315 339.756806 
L 87.9105 339.026715 
L 88.1895 339.735795 
L 88.4685 342.259531 
L 89.0265 338.682426 
L 89.3055 338.853186 
L 89.5845 338.231773 
L 89.8635 340.897561 
L 90.1425 338.052119 
L 90.4215 340.037648 
L 90.7005 337.617701 
L 90.9795 338.079102 
L 91.2585 338.170115 
L 91.5375 338.404745 
L 91.8165 338.367686 
L 92.0955 339.946875 
L 92.3745 336.773263 
L 92.6535 337.870786 
L 92.9325 337.107204 
L 93.2115 338.488001 
L 93.4905 338.771469 
L 93.7695 338.261363 
L 94.0485 337.265022 
L 94.3275 335.300496 
L 94.6065 337.095461 
L 94.8855 336.403356 
L 95.1645 336.978628 
L 95.4435 336.724384 
L 95.7225 336.279111 
L 96.0015 338.08652 
L 96.2805 338.574083 
L 96.5595 334.961744 
L 96.8385 334.529799 
L 97.1175 336.757456 
L 97.3965 334.239554 
L 97.6755 335.349171 
L 97.9545 333.347156 
L 98.2335 335.609363 
L 98.5125 335.307876 
L 98.7915 332.903248 
L 99.0705 337.404727 
L 99.3495 334.602742 
L 99.6285 335.159648 
L 99.9075 333.847126 
L 100.1865 335.424399 
L 100.4655 333.510048 
L 100.7445 332.728892 
L 101.0235 331.115145 
L 101.3025 332.239042 
L 101.5815 331.029593 
L 101.8605 330.916064 
L 102.1395 331.429247 
L 102.4185 332.708603 
L 102.6975 329.624533 
L 102.9765 333.659373 
L 103.2555 330.004292 
L 103.5345 333.679874 
L 103.8135 332.221025 
L 104.0925 328.931518 
L 104.3715 329.196876 
L 104.6505 331.456734 
L 104.9295 332.344543 
L 105.2085 330.346737 
L 105.4875 329.926401 
L 105.7665 331.131007 
L 106.0455 330.13874 
L 106.3245 331.29491 
L 106.6035 329.123742 
L 106.8825 330.760201 
L 107.4405 326.254468 
L 107.7195 329.201289 
L 107.9985 328.255458 
L 108.2775 324.903315 
L 108.5565 325.455157 
L 109.1145 329.445807 
L 109.3935 327.534718 
L 109.6725 323.870685 
L 109.9515 326.701037 
L 110.2305 327.200472 
L 110.5095 324.993348 
L 110.7885 324.260425 
L 111.0675 324.700847 
L 111.3465 327.521514 
L 111.6255 327.282345 
L 111.9045 326.075028 
L 112.1835 326.566939 
L 112.4625 327.634493 
L 112.7415 327.118227 
L 113.0205 320.622444 
L 113.2995 323.57557 
L 113.5785 321.909366 
L 113.8575 326.169007 
L 114.1365 320.205231 
L 114.4155 320.566686 
L 114.6945 319.79243 
L 114.9735 324.011228 
L 115.2525 319.08221 
L 115.5315 319.539769 
L 115.8105 323.912698 
L 116.0895 320.315324 
L 116.3685 320.257366 
L 116.6475 317.919265 
L 116.9265 318.699132 
L 117.2055 323.710035 
L 117.4845 317.345753 
L 117.7635 323.980197 
L 118.0425 322.269 
L 118.3215 316.575969 
L 118.8795 315.286363 
L 119.1585 320.443639 
L 119.4375 322.049436 
L 119.7165 315.788818 
L 119.9955 319.705503 
L 120.2745 315.476927 
L 120.8325 313.108965 
L 121.1115 317.605718 
L 121.3905 314.764802 
L 121.6695 316.456843 
L 121.9485 313.628498 
L 122.2275 318.741501 
L 122.5065 310.961283 
L 122.7855 312.263298 
L 123.0645 311.340881 
L 123.3435 312.190496 
L 123.6225 310.926702 
L 123.9015 314.043878 
L 124.1805 311.675905 
L 124.4595 312.551229 
L 124.7385 310.154797 
L 125.0175 310.587421 
L 125.2965 312.179687 
L 125.5755 310.209705 
L 125.8545 309.880491 
L 126.1335 311.2324 
L 126.4125 306.711524 
L 126.6915 309.271933 
L 126.9705 307.479175 
L 127.2495 306.960756 
L 127.5285 305.24637 
L 127.8075 307.099284 
L 128.0865 307.569429 
L 128.6445 304.416023 
L 128.9235 312.202258 
L 129.2025 312.732085 
L 130.3185 304.574214 
L 130.5975 307.593616 
L 130.8765 301.999804 
L 131.1555 302.744092 
L 131.4345 306.070267 
L 131.7135 302.517427 
L 131.9925 302.245929 
L 132.2715 302.412807 
L 132.5505 306.383243 
L 132.8295 301.076683 
L 133.1085 306.849128 
L 133.3875 300.688184 
L 133.6665 301.349438 
L 133.9455 304.775683 
L 134.5035 299.69501 
L 134.7825 298.955566 
L 135.0615 301.340811 
L 135.6195 298.164064 
L 135.8985 303.179576 
L 136.1775 300.881555 
L 136.4565 303.736715 
L 136.7355 295.278978 
L 137.0145 297.78521 
L 137.2935 298.086601 
L 137.5725 299.253373 
L 137.8515 295.924248 
L 138.1305 295.729586 
L 138.4095 294.042104 
L 138.6885 297.527462 
L 138.9675 297.305677 
L 139.2465 297.755221 
L 139.5255 293.919543 
L 139.8045 294.27612 
L 140.0835 293.665752 
L 140.3625 297.531188 
L 140.6415 294.571089 
L 140.9205 295.164846 
L 141.4785 291.32911 
L 141.7575 290.05019 
L 142.0365 294.870094 
L 142.3155 288.891074 
L 142.5945 289.29189 
L 142.8735 295.722337 
L 143.1525 287.843674 
L 143.4315 292.715404 
L 143.7105 286.639679 
L 143.9895 284.859258 
L 144.2685 290.254629 
L 144.5475 288.888459 
L 144.8265 291.539762 
L 145.1055 290.190665 
L 145.3845 285.671318 
L 145.6635 289.081313 
L 145.9425 285.921657 
L 146.2215 285.041396 
L 146.5005 284.57582 
L 146.7795 285.220196 
L 147.0585 288.246159 
L 147.3375 283.464507 
L 147.6165 283.146614 
L 147.8955 281.123425 
L 148.1745 283.286363 
L 148.4535 284.38797 
L 148.7325 286.559971 
L 149.0115 285.123989 
L 149.2905 286.334139 
L 149.5695 285.639169 
L 149.8485 286.297789 
L 150.1275 281.111376 
L 150.4065 278.263575 
L 150.6855 278.655685 
L 150.9645 278.840489 
L 151.2435 285.575519 
L 151.5225 273.921694 
L 151.8015 281.261833 
L 152.0805 278.951577 
L 152.3595 280.844723 
L 152.6385 276.414106 
L 152.9175 280.766466 
L 153.4755 271.717059 
L 153.7545 274.59646 
L 154.0335 271.379573 
L 154.3125 274.743001 
L 154.5915 273.782676 
L 154.8705 271.689379 
L 155.1495 270.768942 
L 155.4285 269.45657 
L 155.7075 272.576244 
L 155.9865 269.245221 
L 156.2655 270.550659 
L 156.8235 274.887426 
L 157.3815 265.018547 
L 157.6605 271.612891 
L 157.9395 275.074675 
L 158.4975 268.422563 
L 158.7765 271.890696 
L 159.0555 271.15397 
L 159.3345 276.077347 
L 159.8925 262.424777 
L 160.1715 272.557372 
L 160.4505 265.486162 
L 161.0085 276.584849 
L 161.5665 262.346002 
L 161.8455 267.546038 
L 162.4035 261.517738 
L 162.6825 267.005899 
L 162.9615 264.399697 
L 163.2405 269.775029 
L 163.5195 261.983481 
L 163.7985 260.026936 
L 164.0775 262.167601 
L 164.3565 266.270058 
L 164.9145 256.301407 
L 165.1935 255.184952 
L 165.4725 261.084419 
L 165.7515 258.512998 
L 166.0305 259.363996 
L 166.3095 253.196675 
L 166.5885 268.24305 
L 166.8675 253.644873 
L 167.1465 259.254137 
L 167.4255 254.833761 
L 167.7045 257.698188 
L 167.9835 257.72712 
L 168.2625 254.081137 
L 168.5415 257.570876 
L 168.8205 256.90688 
L 169.0995 251.246596 
L 169.3785 259.94011 
L 169.6575 253.21819 
L 169.9365 254.98438 
L 170.2155 254.727155 
L 170.4945 253.88169 
L 170.7735 259.719718 
L 171.0525 248.358231 
L 171.3315 248.479615 
L 171.6105 253.406301 
L 171.8895 251.857388 
L 172.4475 251.142253 
L 173.0055 253.392471 
L 173.2845 248.818816 
L 173.5635 248.255191 
L 173.8425 248.467596 
L 174.1215 249.762409 
L 174.4005 251.875107 
L 174.6795 247.517643 
L 174.9585 247.119281 
L 175.2375 246.927606 
L 175.5165 247.715059 
L 175.7955 247.218521 
L 176.0745 245.09055 
L 176.3535 249.6098 
L 176.9115 245.609756 
L 177.1905 250.028989 
L 177.4695 245.241441 
L 177.7485 244.606777 
L 178.0275 244.860297 
L 178.3065 240.895567 
L 178.5855 246.659969 
L 178.8645 246.457108 
L 179.1435 245.638548 
L 179.4225 241.74537 
L 179.7015 241.378499 
L 179.9805 246.046282 
L 180.2595 241.811996 
L 180.8175 240.889639 
L 181.0965 241.15751 
L 181.3755 240.958285 
L 181.6545 239.913646 
L 181.9335 241.245801 
L 182.2125 239.529527 
L 182.4915 240.53902 
L 182.7705 240.117452 
L 183.0495 238.847992 
L 183.3285 240.729926 
L 183.6075 239.764081 
L 183.8865 240.880948 
L 184.1655 240.787114 
L 184.4445 243.240681 
L 185.0025 236.686414 
L 185.2815 237.450289 
L 185.5605 237.838071 
L 185.8395 240.03116 
L 186.1185 235.642721 
L 186.3975 235.402933 
L 186.6765 243.102791 
L 187.2345 231.076213 
L 187.7925 235.085928 
L 188.0715 241.394558 
L 188.3505 230.867835 
L 188.6295 230.708376 
L 188.9085 231.904233 
L 189.1875 230.58991 
L 189.4665 240.240323 
L 189.7455 230.126865 
L 190.0245 228.567467 
L 190.3035 239.493039 
L 190.5825 228.405278 
L 190.8615 231.307206 
L 191.1405 237.537401 
L 191.4195 225.431975 
L 191.6985 225.666873 
L 191.9775 224.688616 
L 192.2565 237.534324 
L 192.5355 235.830224 
L 192.8145 228.1229 
L 193.0935 233.716692 
L 193.3725 224.975196 
L 193.9305 221.455287 
L 194.2095 222.942316 
L 194.4885 222.452688 
L 194.7675 232.300768 
L 195.0465 222.404427 
L 195.3255 225.36985 
L 195.6045 221.740103 
L 195.8835 220.827833 
L 196.1625 228.436629 
L 196.4415 221.3567 
L 196.7205 218.982979 
L 196.9995 231.988439 
L 197.2785 231.460006 
L 197.5575 219.520018 
L 197.8365 230.976646 
L 198.1155 230.557697 
L 198.3945 223.748834 
L 198.6735 228.153749 
L 198.9525 220.084531 
L 199.5105 230.689118 
L 199.7895 215.141063 
L 200.0685 228.145119 
L 200.3475 214.739714 
L 200.6265 226.430898 
L 200.9055 224.501272 
L 201.1845 227.184279 
L 201.4635 225.016058 
L 201.7425 213.384419 
L 202.3005 211.013454 
L 202.5795 211.502977 
L 202.8585 210.867713 
L 203.1375 225.281345 
L 203.4165 214.318301 
L 203.6955 224.601312 
L 203.9745 223.761879 
L 204.2535 215.609716 
L 204.5325 228.88708 
L 204.8115 210.943922 
L 205.0905 209.923297 
L 205.3695 220.342824 
L 205.6485 221.116541 
L 205.9275 223.323163 
L 206.2065 216.807737 
L 206.4855 220.46999 
L 206.7645 206.823039 
L 207.0435 221.914464 
L 207.3225 223.242584 
L 207.6015 206.033706 
L 207.8805 206.103077 
L 208.1595 208.052566 
L 208.4385 216.950883 
L 208.7175 209.345519 
L 208.9965 210.11353 
L 209.2755 203.482774 
L 209.5545 203.803778 
L 209.8335 216.62848 
L 210.3915 203.481666 
L 210.6705 201.825216 
L 210.9495 201.538388 
L 211.2285 200.351944 
L 211.5075 204.795959 
L 211.7865 202.694868 
L 212.0655 214.611486 
L 212.3445 200.807853 
L 212.6235 199.061232 
L 212.9025 204.943073 
L 213.1815 207.11834 
L 213.4605 202.794978 
L 213.7395 211.924596 
L 214.0185 198.881145 
L 214.2975 199.914548 
L 214.5765 196.565512 
L 214.8555 196.172349 
L 215.1345 197.776652 
L 215.4135 197.130965 
L 215.6925 209.701086 
L 215.9715 202.197429 
L 216.2505 210.952067 
L 216.5295 196.597247 
L 216.8085 195.87885 
L 217.0875 211.862546 
L 217.3665 201.509995 
L 217.6455 210.920302 
L 217.9245 204.535092 
L 218.2035 203.329214 
L 218.4825 196.094883 
L 219.0405 192.225697 
L 219.3195 211.121604 
L 219.5985 192.590765 
L 219.8775 199.08554 
L 220.1565 190.386691 
L 220.4355 195.087743 
L 220.7145 191.809363 
L 220.9935 191.865927 
L 221.2725 189.842635 
L 221.5515 189.69087 
L 221.8305 190.160354 
L 222.1095 201.55588 
L 222.3885 189.432329 
L 222.6675 188.224596 
L 222.9465 188.702237 
L 223.2255 187.757101 
L 223.5045 189.726528 
L 223.7835 187.263428 
L 224.0625 187.112888 
L 224.3415 186.133934 
L 224.8995 193.778445 
L 225.1785 187.116725 
L 225.4575 185.123106 
L 225.7365 191.593433 
L 226.0155 190.684064 
L 226.2945 186.791262 
L 226.5735 201.158057 
L 226.8525 184.359646 
L 227.1315 181.709657 
L 227.4105 183.778996 
L 227.6895 182.922844 
L 227.9685 184.235416 
L 228.2475 182.776824 
L 228.5265 196.312374 
L 228.8055 190.93102 
L 229.0845 181.290323 
L 229.3635 186.591405 
L 229.6425 181.55656 
L 229.9215 185.417682 
L 230.2005 187.063344 
L 230.4795 195.64076 
L 230.7585 183.605746 
L 231.0375 187.017363 
L 231.3165 196.031294 
L 231.5955 184.892004 
L 232.1535 178.725461 
L 232.4325 182.564464 
L 232.7115 183.641827 
L 232.9905 183.890711 
L 233.2695 187.022605 
L 233.8275 182.71862 
L 234.1065 187.673016 
L 234.3855 177.228299 
L 234.6645 180.245274 
L 234.9435 176.905908 
L 235.2225 175.999633 
L 235.5015 174.069568 
L 236.0595 182.338505 
L 236.3385 177.158101 
L 236.6175 175.949805 
L 236.8965 191.250874 
L 237.1755 192.807128 
L 237.4545 190.753557 
L 237.7335 177.423218 
L 238.0125 182.514644 
L 238.5705 177.245361 
L 238.8495 170.229514 
L 239.1285 174.879175 
L 239.4075 189.99465 
L 239.6865 175.296397 
L 239.9655 191.22084 
L 240.2445 175.257422 
L 240.5235 176.718907 
L 240.8025 183.598319 
L 241.6395 170.515227 
L 241.9185 181.071847 
L 242.1975 176.517176 
L 242.4765 176.800931 
L 242.7555 176.274076 
L 243.0345 168.729632 
L 243.3135 176.696301 
L 243.5925 177.188277 
L 243.8715 178.808717 
L 244.1505 176.227853 
L 244.4295 178.69693 
L 244.7085 178.562131 
L 244.9875 179.658964 
L 245.2665 183.629735 
L 245.5455 179.809597 
L 245.8245 182.661495 
L 246.1035 178.918945 
L 246.3825 178.674133 
L 246.6615 182.673129 
L 246.9405 178.099029 
L 247.2195 177.620906 
L 247.4985 175.519348 
L 247.7775 174.899554 
L 248.0565 176.261998 
L 248.3355 170.065476 
L 248.6145 180.450282 
L 248.8935 178.627898 
L 249.4515 170.991517 
L 249.7305 169.306892 
L 250.0095 170.694802 
L 250.2885 161.659675 
L 250.5675 174.067502 
L 250.8465 173.313487 
L 251.1255 167.350382 
L 251.4045 166.271925 
L 251.6835 174.809389 
L 251.9625 169.800659 
L 252.2415 172.712678 
L 252.5205 183.286632 
L 252.7995 168.164672 
L 253.0785 169.127046 
L 253.3575 169.675698 
L 253.6365 166.364458 
L 253.9155 174.17905 
L 254.1945 171.729296 
L 254.7525 176.537211 
L 255.0315 173.938023 
L 255.3105 166.01395 
L 255.5895 165.675605 
L 255.8685 176.28777 
L 256.1475 181.48447 
L 256.4265 164.84057 
L 256.9845 173.517354 
L 257.2635 171.651221 
L 257.5425 163.09299 
L 257.8215 163.81646 
L 258.1005 164.144616 
L 258.3795 163.272599 
L 258.6585 160.266158 
L 258.9375 166.572711 
L 259.2165 156.913184 
L 259.4955 169.660926 
L 259.7745 167.004845 
L 260.0535 174.634694 
L 260.3325 161.045386 
L 260.6115 162.733232 
L 260.8905 161.627621 
L 261.1695 160.99699 
L 261.4485 168.089702 
L 262.0065 158.331645 
L 262.2855 155.477155 
L 262.5645 174.513882 
L 262.8435 160.340581 
L 263.1225 162.749983 
L 263.4015 169.310451 
L 263.6805 148.934359 
L 263.9595 159.459234 
L 264.2385 158.958601 
L 264.5175 155.098431 
L 264.7965 148.044762 
L 265.0755 153.800596 
L 265.3545 154.139917 
L 265.6335 147.849585 
L 265.9125 148.333761 
L 266.1915 153.245205 
L 266.4705 163.593919 
L 266.7495 156.017065 
L 267.0285 173.84829 
L 267.3075 145.200368 
L 267.5865 153.976726 
L 267.8655 150.527304 
L 268.1445 154.406776 
L 268.4235 151.900301 
L 268.9815 153.311656 
L 269.2605 150.806507 
L 269.5395 160.545218 
L 269.8185 155.553812 
L 270.0975 157.929395 
L 270.3765 145.884691 
L 270.6555 144.121341 
L 270.9345 152.886694 
L 271.2135 165.554602 
L 271.4925 157.567686 
L 271.7715 168.308028 
L 272.0505 149.27114 
L 272.3295 152.385629 
L 272.6085 146.043802 
L 272.8875 150.183347 
L 273.4455 165.545684 
L 273.7245 141.625024 
L 274.0035 162.643857 
L 274.2825 148.421237 
L 274.8405 151.905222 
L 275.1195 140.861634 
L 275.3985 147.537007 
L 275.6775 142.942503 
L 275.9565 140.818239 
L 276.2355 149.720324 
L 276.5145 151.988652 
L 277.0725 146.739948 
L 277.3515 147.230213 
L 277.6305 147.946347 
L 277.9095 163.300158 
L 278.1885 137.775563 
L 278.7465 164.041516 
L 279.0255 144.787522 
L 279.3045 158.264665 
L 279.5835 144.771665 
L 279.8625 143.702813 
L 280.1415 162.262311 
L 280.4205 142.946475 
L 280.6995 147.068494 
L 280.9785 153.267778 
L 281.2575 148.35456 
L 281.5365 149.444317 
L 281.8155 135.337858 
L 282.0945 136.619261 
L 282.3735 159.092733 
L 282.6525 162.969825 
L 282.9315 134.7723 
L 283.2105 159.540636 
L 283.4895 141.797819 
L 283.7685 138.412902 
L 284.0475 156.632759 
L 284.6055 136.839499 
L 284.8845 142.894638 
L 285.1635 132.595258 
L 285.4425 133.471041 
L 286.0005 140.704729 
L 286.2795 156.998407 
L 286.5585 142.713126 
L 286.8375 143.145514 
L 287.1165 132.9238 
L 287.3955 141.441195 
L 287.6745 154.136697 
L 287.9535 155.202166 
L 288.2325 137.059933 
L 288.5115 155.155831 
L 288.7905 138.414441 
L 289.0695 132.450356 
L 289.3485 157.72668 
L 289.6275 150.119105 
L 289.9065 133.231136 
L 290.1855 149.278167 
L 290.4645 140.309105 
L 290.7435 145.202679 
L 291.0225 136.092707 
L 291.3015 141.105758 
L 291.5805 155.680267 
L 291.8595 136.172446 
L 292.1385 139.797139 
L 292.4175 133.459417 
L 292.6965 142.273388 
L 292.9755 145.411967 
L 293.2545 136.42346 
L 293.5335 151.012747 
L 293.8125 146.339063 
L 294.0915 137.030208 
L 294.3705 150.726166 
L 294.6495 151.865408 
L 294.9285 149.704008 
L 295.2075 144.143883 
L 295.4865 150.929611 
L 295.7655 151.887671 
L 296.0445 139.610888 
L 296.3235 149.192633 
L 296.6025 148.010124 
L 297.1605 125.058005 
L 297.4395 147.061444 
L 297.7185 137.971827 
L 297.9975 133.72185 
L 298.2765 140.687719 
L 298.5555 154.634607 
L 298.8345 147.732611 
L 299.1135 136.249988 
L 299.3925 133.016517 
L 299.6715 147.213148 
L 299.9505 133.515147 
L 300.2295 142.986808 
L 300.5085 120.067358 
L 300.7875 144.746968 
L 301.0665 139.162312 
L 301.3455 145.603384 
L 301.6245 125.975754 
L 301.9035 146.685388 
L 302.1825 124.318712 
L 302.4615 139.128269 
L 302.7405 126.916662 
L 303.0195 130.576078 
L 303.2985 128.662829 
L 303.5775 134.523493 
L 303.8565 131.723935 
L 304.1355 131.899148 
L 304.4145 131.838452 
L 304.6935 140.286491 
L 304.9725 122.689514 
L 305.2515 130.065937 
L 305.5305 131.118492 
L 305.8095 124.391243 
L 306.0885 122.671521 
L 306.3675 129.955019 
L 306.6465 120.661854 
L 306.9255 132.682559 
L 307.2045 131.295196 
L 307.4835 131.943915 
L 307.7625 126.379609 
L 308.0415 144.796235 
L 308.3205 125.744199 
L 308.5995 129.040865 
L 308.8785 122.089348 
L 309.1575 120.304963 
L 309.4365 135.878699 
L 309.7155 140.840268 
L 310.2735 125.531962 
L 310.5525 140.179958 
L 310.8315 121.229078 
L 311.1105 122.115922 
L 311.3895 134.796397 
L 311.6685 123.888517 
L 311.9475 132.450239 
L 312.2265 125.385407 
L 312.7845 132.644945 
L 313.0635 131.016187 
L 313.3425 143.833735 
L 313.6215 140.191064 
L 313.9005 143.158342 
L 314.1795 118.379296 
L 314.4585 127.863685 
L 314.7375 128.911316 
L 315.0165 120.296757 
L 315.2955 118.707646 
L 315.5745 138.056773 
L 316.4115 124.645077 
L 316.6905 125.357759 
L 316.9695 139.299915 
L 317.2485 125.323688 
L 317.5275 136.065725 
L 317.8065 140.921803 
L 318.0855 125.56894 
L 318.6435 131.485332 
L 318.9225 129.491961 
L 319.2015 117.78945 
L 319.4805 122.430289 
L 319.7595 122.164081 
L 320.0385 124.489407 
L 320.3175 138.412656 
L 320.5965 119.299909 
L 320.8755 142.391587 
L 321.4335 120.005127 
L 321.7125 134.152214 
L 321.9915 118.054947 
L 322.2705 122.836243 
L 322.5495 117.939395 
L 322.8285 135.286466 
L 323.1075 121.515864 
L 323.3865 121.504091 
L 323.9445 129.413292 
L 324.2235 119.722364 
L 324.5025 131.705412 
L 324.7815 119.950562 
L 325.0605 120.91999 
L 325.3395 119.981594 
L 325.6185 119.780717 
L 325.8975 133.778198 
L 326.1765 135.097346 
L 326.4555 116.294821 
L 326.7345 118.462211 
L 327.0135 115.806427 
L 327.2925 133.852244 
L 327.5715 113.163109 
L 327.8505 116.130698 
L 328.4085 119.311384 
L 328.6875 130.477055 
L 328.9665 112.837502 
L 329.2455 113.898563 
L 329.5245 107.790182 
L 329.8035 120.87675 
L 330.0825 113.767933 
L 330.3615 119.219459 
L 330.6405 111.764829 
L 330.9195 130.7441 
L 331.4775 130.808006 
L 331.7565 132.429573 
L 332.0355 111.488934 
L 332.3145 127.827565 
L 332.5935 132.04463 
L 332.8725 110.225102 
L 333.4305 116.095097 
L 333.7095 113.792972 
L 333.9885 114.593196 
L 334.2675 114.471753 
L 334.5465 129.924776 
L 334.8255 112.169333 
L 335.1045 109.290987 
L 335.3835 112.306824 
L 335.6625 117.554315 
L 335.9415 111.664898 
L 336.2205 110.46201 
L 336.4995 111.557951 
L 336.7785 110.434789 
L 337.0575 110.132866 
L 337.3365 111.361767 
L 337.6155 111.912076 
L 337.8945 108.680046 
L 338.1735 109.550949 
L 338.4525 111.017987 
L 338.7315 107.259226 
L 339.0105 107.787115 
L 339.2895 111.178027 
L 339.5685 101.157865 
L 339.8475 119.948708 
L 340.1265 116.3598 
L 340.4055 106.944102 
L 340.6845 107.972806 
L 340.9635 126.590536 
L 341.2425 109.277925 
L 341.5215 108.950264 
L 341.8005 106.638285 
L 342.0795 126.303045 
L 342.3585 106.831984 
L 342.6375 109.106743 
L 342.9165 108.527417 
L 343.1955 125.600052 
L 343.4745 124.856772 
L 343.7535 106.150265 
L 344.3115 109.285394 
L 344.5905 105.11202 
L 344.8695 119.289519 
L 345.4275 104.222142 
L 345.7065 107.84549 
L 345.9855 102.657372 
L 346.2645 123.918732 
L 346.5435 102.820293 
L 346.8225 107.381997 
L 347.1015 100.586237 
L 347.3805 107.620476 
L 347.6595 122.959951 
L 347.9385 121.091011 
L 348.2175 107.197954 
L 348.4965 107.041522 
L 348.7755 122.904784 
L 349.0545 111.284984 
L 349.3335 120.310751 
L 349.6125 104.570713 
L 349.8915 121.161649 
L 350.1705 107.32669 
L 350.4495 103.331055 
L 350.7285 119.055378 
L 351.0075 103.145516 
L 351.2865 120.582228 
L 351.5655 99.330265 
L 351.8445 102.676762 
L 352.1235 120.344569 
L 352.4025 118.569049 
L 352.6815 118.462505 
L 352.9605 102.640061 
L 353.2395 102.517202 
L 353.5185 97.515717 
L 354.0765 104.320533 
L 354.3555 102.830427 
L 354.6345 105.658691 
L 354.9135 104.47906 
L 355.1925 101.487596 
L 355.4715 101.695832 
L 355.7505 104.719156 
L 356.0295 102.93094 
L 356.5875 97.724663 
L 356.8665 95.414456 
L 357.1455 103.088112 
L 357.4245 107.512815 
L 357.7035 99.987425 
L 357.9825 105.566647 
L 358.2615 100.197698 
L 358.5405 117.908583 
L 358.8195 98.495715 
L 359.0985 116.837534 
L 359.3775 115.37291 
L 359.6565 100.472541 
L 359.9355 101.663279 
L 360.2145 105.378466 
L 360.4935 98.972867 
L 360.7725 100.5512 
L 361.3305 97.884856 
L 361.6095 107.687028 
L 361.8885 100.181502 
L 362.1675 99.628013 
L 362.4465 97.340763 
L 362.7255 96.714149 
L 363.0045 99.6114 
L 363.2835 99.770403 
L 363.5625 98.629663 
L 363.8415 114.984997 
L 364.1205 113.367882 
L 364.3995 113.326099 
L 364.6785 97.884885 
L 364.9575 97.689103 
L 365.2365 99.492031 
L 365.5155 97.884356 
L 365.7945 113.0227 
L 366.0735 97.678602 
L 366.3525 112.536317 
L 366.6315 97.527927 
L 366.9105 112.518436 
L 367.1895 112.949462 
L 367.4685 111.049374 
L 367.7475 97.226007 
L 368.0265 94.207282 
L 368.3055 95.530807 
L 368.8635 90.987689 
L 369.1425 111.438621 
L 369.4215 95.411151 
L 369.7005 112.793445 
L 369.9795 98.444238 
L 370.2585 112.478572 
L 370.5375 94.973901 
L 370.8165 109.568746 
L 371.0955 93.100572 
L 371.3745 93.888145 
L 371.6535 110.45775 
L 371.9325 109.692475 
L 372.2115 111.499791 
L 372.4905 109.982867 
L 373.0485 109.445922 
L 373.3275 97.326843 
L 373.6065 109.610893 
L 373.8855 91.843448 
L 374.1645 92.256193 
L 374.4435 91.078626 
L 374.7225 95.226754 
L 375.0015 96.248808 
L 375.2805 108.454146 
L 375.5595 90.032854 
L 375.8385 91.434288 
L 376.1175 88.310385 
L 376.3965 90.873166 
L 376.9545 107.483531 
L 377.2335 106.617006 
L 377.5125 107.813789 
L 377.7915 93.715805 
L 378.0705 106.056199 
L 378.3495 90.507814 
L 378.6285 95.374329 
L 378.9075 88.919528 
L 379.1865 105.762884 
L 379.4655 97.204379 
L 379.7445 104.362525 
L 380.0235 104.702675 
L 380.3025 85.261645 
L 380.5815 104.351287 
L 380.8605 104.356753 
L 381.1395 103.982897 
L 381.4185 95.010839 
L 381.6975 103.248101 
L 381.9765 87.69949 
L 382.2555 85.591741 
L 382.5345 104.266054 
L 382.8135 88.856559 
L 383.0925 82.605824 
L 383.3715 102.17367 
L 383.6505 94.67302 
L 383.9295 101.048254 
L 384.2085 90.070796 
L 384.4875 89.9378 
L 385.0455 84.072737 
L 385.3245 92.040321 
L 385.6035 86.601421 
L 385.8825 88.461149 
L 386.1615 100.197031 
L 386.4405 98.737908 
L 386.7195 85.154458 
L 386.9985 100.695262 
L 387.2775 81.33078 
L 387.5565 85.438838 
L 387.8355 98.301886 
L 388.1145 99.738358 
L 388.3935 99.929499 
L 388.6725 87.996993 
L 389.2305 98.458414 
L 389.7885 85.426143 
L 390.0675 80.859525 
L 390.3465 81.975196 
L 390.6255 81.588514 
L 390.9045 98.616187 
L 391.1835 95.848483 
L 391.4625 83.22242 
L 391.7415 93.66486 
L 392.0205 80.393187 
L 392.2995 97.532631 
L 392.5785 82.53027 
L 392.8575 82.53285 
L 393.1365 79.912808 
L 393.4155 84.218389 
L 393.6945 80.556209 
L 393.9735 80.746347 
L 394.2525 83.082718 
L 394.5315 95.965707 
L 394.8105 96.45076 
L 395.0895 94.956411 
L 395.3685 79.888326 
L 395.6475 75.159773 
L 395.9265 95.95962 
L 396.2055 95.439559 
L 396.4845 94.241543 
L 396.7635 85.999352 
L 397.0425 82.736076 
L 397.3215 94.287582 
L 397.6005 90.556554 
L 397.8795 83.924809 
L 398.1585 94.869626 
L 398.4375 82.661196 
L 398.7165 83.888043 
L 399.2745 74.219122 
L 399.5535 83.049644 
L 399.8325 86.960408 
L 400.1115 95.076892 
L 400.3905 74.60615 
L 400.6695 87.331116 
L 400.9485 74.780497 
L 401.2275 74.270522 
L 401.5065 71.916689 
L 401.7855 92.135136 
L 402.0645 92.181995 
L 402.3435 86.980464 
L 402.9015 69.0727 
L 403.7385 89.647709 
L 404.0175 90.528463 
L 404.2965 77.183632 
L 404.5755 72.601307 
L 404.8545 76.290519 
L 405.1335 89.925682 
L 405.4125 74.119788 
L 405.6915 87.812134 
L 405.9705 80.056946 
L 406.2495 88.883903 
L 406.5285 85.557088 
L 406.8075 74.763677 
L 407.0865 90.74968 
L 407.3655 86.58435 
L 407.6445 87.659671 
L 407.9235 89.747346 
L 408.2025 73.736425 
L 408.4815 80.772244 
L 408.7605 73.594517 
L 409.0395 76.765204 
L 409.3185 81.983657 
L 409.5975 74.740773 
L 410.1555 81.952044 
L 410.4345 74.771853 
L 410.7135 74.574985 
L 410.9925 74.746113 
L 411.2715 80.409563 
L 411.5505 73.37546 
L 411.8295 80.368257 
L 412.1085 78.216841 
L 412.3875 83.109896 
L 412.6665 84.032219 
L 412.9455 82.999989 
L 413.2245 83.589795 
L 413.5035 82.482777 
L 413.7825 82.773278 
L 414.3405 81.609675 
L 414.6195 77.082106 
L 414.8985 76.791529 
L 415.1775 74.743953 
L 415.4565 76.570018 
L 415.7355 86.129491 
L 416.0145 76.515568 
L 416.2935 82.923152 
L 416.5725 74.545671 
L 416.8515 83.858173 
L 417.1305 74.36105 
L 417.4095 78.101938 
L 417.6885 77.561699 
L 418.2465 80.252391 
L 418.5255 80.067412 
L 418.8045 74.121225 
L 419.0835 75.363195 
L 419.3625 84.706269 
L 419.6415 81.76541 
L 419.9205 70.016764 
L 420.1995 82.444521 
L 420.4785 77.174645 
L 420.7575 74.897803 
L 421.0365 74.85273 
L 421.3155 74.973985 
L 421.5945 78.758526 
L 421.8735 80.256338 
L 422.1525 72.161844 
L 422.4315 75.184105 
L 422.9895 72.912745 
L 423.2685 72.005 
L 423.5475 72.272862 
L 423.8265 80.609624 
L 424.1055 77.926311 
L 424.3845 72.494897 
L 424.6635 77.637968 
L 424.9425 71.157273 
L 425.2215 72.344775 
L 425.5005 79.826209 
L 425.7795 73.494028 
L 426.0585 73.375813 
L 426.3375 75.011616 
L 426.6165 73.912997 
L 426.8955 66.073518 
L 427.1745 78.676975 
L 427.7325 72.097887 
L 428.0115 79.152136 
L 428.2905 72.909146 
L 428.5695 70.24185 
L 428.8485 69.05647 
L 429.1275 82.053122 
L 429.4065 68.733115 
L 429.6855 82.899207 
L 429.9645 73.728855 
L 430.2435 74.367667 
L 430.5225 75.848259 
L 430.8015 70.368929 
L 431.0805 70.781091 
L 431.3595 72.405895 
L 431.6385 79.196399 
L 431.9175 73.287885 
L 432.1965 70.943343 
L 432.4755 67.269882 
L 432.7545 75.493569 
L 433.0335 71.917547 
L 433.5915 69.925788 
L 433.8705 74.49877 
L 434.1495 65.853139 
L 434.4285 63.194455 
L 434.7075 71.391952 
L 434.9865 68.961425 
L 435.2655 70.435345 
L 435.5445 73.64541 
L 435.8235 65.959842 
L 436.3815 69.084053 
L 436.6605 66.794948 
L 436.9395 70.866231 
L 437.2185 68.959119 
L 437.7765 63.877134 
L 438.0555 67.775582 
L 438.3345 66.511354 
L 438.6135 67.726094 
L 438.8925 61.825326 
L 439.1715 72.180678 
L 439.4505 66.327232 
L 439.7295 69.143274 
L 440.0085 61.440352 
L 440.2875 66.482692 
L 440.5665 63.298469 
L 440.8455 65.874602 
L 441.1245 70.491314 
L 441.4035 70.732767 
L 441.6825 70.500502 
L 441.9615 53.654513 
L 442.5195 61.813974 
L 442.7985 70.290075 
L 443.0775 66.176517 
L 443.3565 63.850463 
L 443.6355 69.130788 
L 443.9145 68.434176 
L 444.1935 66.431199 
L 444.4725 70.109015 
L 444.7515 69.120316 
L 445.0305 60.476094 
L 445.3095 69.831512 
L 445.5885 62.068658 
L 445.8675 66.07603 
L 446.1465 63.535125 
L 446.4255 69.664572 
L 446.7045 66.725077 
L 446.9835 66.444421 
L 447.2625 68.031307 
L 447.5415 67.592973 
L 447.8205 68.632687 
L 448.0995 67.151118 
L 448.3785 63.376075 
L 448.6575 69.53536 
L 448.9365 59.562842 
L 449.2155 67.444626 
L 449.4945 63.320188 
L 449.7735 57.514461 
L 450.0525 67.902966 
L 450.3315 68.464424 
L 450.6105 58.744757 
L 450.8895 57.765499 
L 451.1685 68.283215 
L 451.4475 54.249198 
L 451.7265 59.896921 
L 452.0055 61.348001 
L 452.2845 57.41888 
L 452.5635 66.440364 
L 452.8425 60.214271 
L 453.1215 61.322133 
L 453.4005 66.924211 
L 453.6795 65.895085 
L 453.9585 58.581419 
L 454.2375 65.294296 
L 454.5165 62.184305 
L 454.7955 68.419255 
L 455.0745 58.3203 
L 455.3535 58.192194 
L 455.6325 61.963133 
L 456.1905 51.70565 
L 456.4695 62.460349 
L 456.7485 61.522169 
L 457.0275 57.326145 
L 457.3065 57.736215 
L 457.5855 68.078788 
L 458.1435 56.81414 
L 458.4225 56.539172 
L 458.7015 59.218297 
L 458.9805 60.431684 
L 459.2595 59.917084 
L 459.5385 57.438037 
L 459.8175 62.145866 
L 460.0965 56.133717 
L 460.3755 58.168034 
L 460.6545 56.289444 
L 460.9335 53.122519 
L 461.2125 59.90004 
L 461.4915 53.32606 
L 461.7705 53.654157 
L 462.0495 55.510538 
L 462.3285 70.7123 
L 462.6075 55.860234 
L 462.8865 57.142993 
L 463.1655 60.054204 
L 463.4445 54.370842 
L 463.7235 53.091406 
L 464.0025 50.168317 
L 464.2815 57.543065 
L 464.5605 56.799168 
L 464.8395 57.256215 
L 465.1185 58.462778 
L 465.1185 58.462778 
" style="fill:none;stroke:#0000ff;stroke-linecap:square;stroke-width:0.5;"/>
   </g>
   <g id="patch_3">
    <path d="M 46.8975 23.14175 
L 493.2975 23.14175 
" style="fill:none;stroke:#000000;stroke-linecap:square;stroke-linejoin:miter;"/>
   </g>
   <g id="patch_4">
    <path d="M 46.8975 368.74175 
L 493.2975 368.74175 
" style="fill:none;stroke:#000000;stroke-linecap:square;stroke-linejoin:miter;"/>
   </g>
   <g id="patch_5">
    <path d="M 493.2975 368.74175 
L 493.2975 23.14175 
" style="fill:none;stroke:#000000;stroke-linecap:square;stroke-linejoin:miter;"/>
   </g>
   <g id="patch_6">
    <path d="M 46.8975 368.74175 
L 46.8975 23.14175 
" style="fill:none;stroke:#000000;stroke-linecap:square;stroke-linejoin:miter;"/>
   </g>
   <g id="matplotlib.axis_1">
    <g id="xtick_1">
     <g id="line2d_2">
      <defs>
       <path d="M 0 0 
L 0 -4 
" id="mb737818f54" style="stroke:#000000;stroke-width:0.5;"/>
      </defs>
      <g>
       <use style="stroke:#000000;stroke-width:0.5;" x="46.8975" xlink:href="#mb737818f54" y="368.74175"/>
      </g>
     </g>
     <g id="line2d_3">
      <defs>
       <path d="M 0 0 
L 0 4 
" id="m2ad43b5ded" style="stroke:#000000;stroke-width:0.5;"/>
      </defs>
      <g>
       <use style="stroke:#000000;stroke-width:0.5;" x="46.8975" xlink:href="#m2ad43b5ded" y="23.14175"/>
      </g>
     </g>
     <g id="text_1">
      <!-- 0 -->
      <defs>
       <path d="M 31.78125 66.40625 
Q 24.171875 66.40625 20.328125 58.90625 
Q 16.5 51.421875 16.5 36.375 
Q 16.5 21.390625 20.328125 13.890625 
Q 24.171875 6.390625 31.78125 6.390625 
Q 39.453125 6.390625 43.28125 13.890625 
Q 47.125 21.390625 47.125 36.375 
Q 47.125 51.421875 43.28125 58.90625 
Q 39.453125 66.40625 31.78125 66.40625 
M 31.78125 74.21875 
Q 44.046875 74.21875 50.515625 64.515625 
Q 56.984375 54.828125 56.984375 36.375 
Q 56.984375 17.96875 50.515625 8.265625 
Q 44.046875 -1.421875 31.78125 -1.421875 
Q 19.53125 -1.421875 13.0625 8.265625 
Q 6.59375 17.96875 6.59375 36.375 
Q 6.59375 54.828125 13.0625 64.515625 
Q 19.53125 74.21875 31.78125 74.21875 
" id="BitstreamVeraSans-Roman-30"/>
      </defs>
      <g transform="translate(43.08 381.859875)scale(0.12 -0.12)">
       <use xlink:href="#BitstreamVeraSans-Roman-30"/>
      </g>
     </g>
    </g>
    <g id="xtick_2">
     <g id="line2d_4">
      <g>
       <use style="stroke:#000000;stroke-width:0.5;" x="102.6975" xlink:href="#mb737818f54" y="368.74175"/>
      </g>
     </g>
     <g id="line2d_5">
      <g>
       <use style="stroke:#000000;stroke-width:0.5;" x="102.6975" xlink:href="#m2ad43b5ded" y="23.14175"/>
      </g>
     </g>
     <g id="text_2">
      <!-- 200 -->
      <defs>
       <path d="M 19.1875 8.296875 
L 53.609375 8.296875 
L 53.609375 0 
L 7.328125 0 
L 7.328125 8.296875 
Q 12.9375 14.109375 22.625 23.890625 
Q 32.328125 33.6875 34.8125 36.53125 
Q 39.546875 41.84375 41.421875 45.53125 
Q 43.3125 49.21875 43.3125 52.78125 
Q 43.3125 58.59375 39.234375 62.25 
Q 35.15625 65.921875 28.609375 65.921875 
Q 23.96875 65.921875 18.8125 64.3125 
Q 13.671875 62.703125 7.8125 59.421875 
L 7.8125 69.390625 
Q 13.765625 71.78125 18.9375 73 
Q 24.125 74.21875 28.421875 74.21875 
Q 39.75 74.21875 46.484375 68.546875 
Q 53.21875 62.890625 53.21875 53.421875 
Q 53.21875 48.921875 51.53125 44.890625 
Q 49.859375 40.875 45.40625 35.40625 
Q 44.1875 33.984375 37.640625 27.21875 
Q 31.109375 20.453125 19.1875 8.296875 
" id="BitstreamVeraSans-Roman-32"/>
      </defs>
      <g transform="translate(91.245 381.859875)scale(0.12 -0.12)">
       <use xlink:href="#BitstreamVeraSans-Roman-32"/>
       <use x="63.623046875" xlink:href="#BitstreamVeraSans-Roman-30"/>
       <use x="127.24609375" xlink:href="#BitstreamVeraSans-Roman-30"/>
      </g>
     </g>
    </g>
    <g id="xtick_3">
     <g id="line2d_6">
      <g>
       <use style="stroke:#000000;stroke-width:0.5;" x="158.4975" xlink:href="#mb737818f54" y="368.74175"/>
      </g>
     </g>
     <g id="line2d_7">
      <g>
       <use style="stroke:#000000;stroke-width:0.5;" x="158.4975" xlink:href="#m2ad43b5ded" y="23.14175"/>
      </g>
     </g>
     <g id="text_3">
      <!-- 400 -->
      <defs>
       <path d="M 37.796875 64.3125 
L 12.890625 25.390625 
L 37.796875 25.390625 
z
M 35.203125 72.90625 
L 47.609375 72.90625 
L 47.609375 25.390625 
L 58.015625 25.390625 
L 58.015625 17.1875 
L 47.609375 17.1875 
L 47.609375 0 
L 37.796875 0 
L 37.796875 17.1875 
L 4.890625 17.1875 
L 4.890625 26.703125 
z
" id="BitstreamVeraSans-Roman-34"/>
      </defs>
      <g transform="translate(147.045 381.859875)scale(0.12 -0.12)">
       <use xlink:href="#BitstreamVeraSans-Roman-34"/>
       <use x="63.623046875" xlink:href="#BitstreamVeraSans-Roman-30"/>
       <use x="127.24609375" xlink:href="#BitstreamVeraSans-Roman-30"/>
      </g>
     </g>
    </g>
    <g id="xtick_4">
     <g id="line2d_8">
      <g>
       <use style="stroke:#000000;stroke-width:0.5;" x="214.2975" xlink:href="#mb737818f54" y="368.74175"/>
      </g>
     </g>
     <g id="line2d_9">
      <g>
       <use style="stroke:#000000;stroke-width:0.5;" x="214.2975" xlink:href="#m2ad43b5ded" y="23.14175"/>
      </g>
     </g>
     <g id="text_4">
      <!-- 600 -->
      <defs>
       <path d="M 33.015625 40.375 
Q 26.375 40.375 22.484375 35.828125 
Q 18.609375 31.296875 18.609375 23.390625 
Q 18.609375 15.53125 22.484375 10.953125 
Q 26.375 6.390625 33.015625 6.390625 
Q 39.65625 6.390625 43.53125 10.953125 
Q 47.40625 15.53125 47.40625 23.390625 
Q 47.40625 31.296875 43.53125 35.828125 
Q 39.65625 40.375 33.015625 40.375 
M 52.59375 71.296875 
L 52.59375 62.3125 
Q 48.875 64.0625 45.09375 64.984375 
Q 41.3125 65.921875 37.59375 65.921875 
Q 27.828125 65.921875 22.671875 59.328125 
Q 17.53125 52.734375 16.796875 39.40625 
Q 19.671875 43.65625 24.015625 45.921875 
Q 28.375 48.1875 33.59375 48.1875 
Q 44.578125 48.1875 50.953125 41.515625 
Q 57.328125 34.859375 57.328125 23.390625 
Q 57.328125 12.15625 50.6875 5.359375 
Q 44.046875 -1.421875 33.015625 -1.421875 
Q 20.359375 -1.421875 13.671875 8.265625 
Q 6.984375 17.96875 6.984375 36.375 
Q 6.984375 53.65625 15.1875 63.9375 
Q 23.390625 74.21875 37.203125 74.21875 
Q 40.921875 74.21875 44.703125 73.484375 
Q 48.484375 72.75 52.59375 71.296875 
" id="BitstreamVeraSans-Roman-36"/>
      </defs>
      <g transform="translate(202.845 381.859875)scale(0.12 -0.12)">
       <use xlink:href="#BitstreamVeraSans-Roman-36"/>
       <use x="63.623046875" xlink:href="#BitstreamVeraSans-Roman-30"/>
       <use x="127.24609375" xlink:href="#BitstreamVeraSans-Roman-30"/>
      </g>
     </g>
    </g>
    <g id="xtick_5">
     <g id="line2d_10">
      <g>
       <use style="stroke:#000000;stroke-width:0.5;" x="270.0975" xlink:href="#mb737818f54" y="368.74175"/>
      </g>
     </g>
     <g id="line2d_11">
      <g>
       <use style="stroke:#000000;stroke-width:0.5;" x="270.0975" xlink:href="#m2ad43b5ded" y="23.14175"/>
      </g>
     </g>
     <g id="text_5">
      <!-- 800 -->
      <defs>
       <path d="M 31.78125 34.625 
Q 24.75 34.625 20.71875 30.859375 
Q 16.703125 27.09375 16.703125 20.515625 
Q 16.703125 13.921875 20.71875 10.15625 
Q 24.75 6.390625 31.78125 6.390625 
Q 38.8125 6.390625 42.859375 10.171875 
Q 46.921875 13.96875 46.921875 20.515625 
Q 46.921875 27.09375 42.890625 30.859375 
Q 38.875 34.625 31.78125 34.625 
M 21.921875 38.8125 
Q 15.578125 40.375 12.03125 44.71875 
Q 8.5 49.078125 8.5 55.328125 
Q 8.5 64.0625 14.71875 69.140625 
Q 20.953125 74.21875 31.78125 74.21875 
Q 42.671875 74.21875 48.875 69.140625 
Q 55.078125 64.0625 55.078125 55.328125 
Q 55.078125 49.078125 51.53125 44.71875 
Q 48 40.375 41.703125 38.8125 
Q 48.828125 37.15625 52.796875 32.3125 
Q 56.78125 27.484375 56.78125 20.515625 
Q 56.78125 9.90625 50.3125 4.234375 
Q 43.84375 -1.421875 31.78125 -1.421875 
Q 19.734375 -1.421875 13.25 4.234375 
Q 6.78125 9.90625 6.78125 20.515625 
Q 6.78125 27.484375 10.78125 32.3125 
Q 14.796875 37.15625 21.921875 38.8125 
M 18.3125 54.390625 
Q 18.3125 48.734375 21.84375 45.5625 
Q 25.390625 42.390625 31.78125 42.390625 
Q 38.140625 42.390625 41.71875 45.5625 
Q 45.3125 48.734375 45.3125 54.390625 
Q 45.3125 60.0625 41.71875 63.234375 
Q 38.140625 66.40625 31.78125 66.40625 
Q 25.390625 66.40625 21.84375 63.234375 
Q 18.3125 60.0625 18.3125 54.390625 
" id="BitstreamVeraSans-Roman-38"/>
      </defs>
      <g transform="translate(258.645 381.859875)scale(0.12 -0.12)">
       <use xlink:href="#BitstreamVeraSans-Roman-38"/>
       <use x="63.623046875" xlink:href="#BitstreamVeraSans-Roman-30"/>
       <use x="127.24609375" xlink:href="#BitstreamVeraSans-Roman-30"/>
      </g>
     </g>
    </g>
    <g id="xtick_6">
     <g id="line2d_12">
      <g>
       <use style="stroke:#000000;stroke-width:0.5;" x="325.8975" xlink:href="#mb737818f54" y="368.74175"/>
      </g>
     </g>
     <g id="line2d_13">
      <g>
       <use style="stroke:#000000;stroke-width:0.5;" x="325.8975" xlink:href="#m2ad43b5ded" y="23.14175"/>
      </g>
     </g>
     <g id="text_6">
      <!-- 1000 -->
      <defs>
       <path d="M 12.40625 8.296875 
L 28.515625 8.296875 
L 28.515625 63.921875 
L 10.984375 60.40625 
L 10.984375 69.390625 
L 28.421875 72.90625 
L 38.28125 72.90625 
L 38.28125 8.296875 
L 54.390625 8.296875 
L 54.390625 0 
L 12.40625 0 
z
" id="BitstreamVeraSans-Roman-31"/>
      </defs>
      <g transform="translate(310.6275 381.859875)scale(0.12 -0.12)">
       <use xlink:href="#BitstreamVeraSans-Roman-31"/>
       <use x="63.623046875" xlink:href="#BitstreamVeraSans-Roman-30"/>
       <use x="127.24609375" xlink:href="#BitstreamVeraSans-Roman-30"/>
       <use x="190.869140625" xlink:href="#BitstreamVeraSans-Roman-30"/>
      </g>
     </g>
    </g>
    <g id="xtick_7">
     <g id="line2d_14">
      <g>
       <use style="stroke:#000000;stroke-width:0.5;" x="381.6975" xlink:href="#mb737818f54" y="368.74175"/>
      </g>
     </g>
     <g id="line2d_15">
      <g>
       <use style="stroke:#000000;stroke-width:0.5;" x="381.6975" xlink:href="#m2ad43b5ded" y="23.14175"/>
      </g>
     </g>
     <g id="text_7">
      <!-- 1200 -->
      <g transform="translate(366.4275 381.859875)scale(0.12 -0.12)">
       <use xlink:href="#BitstreamVeraSans-Roman-31"/>
       <use x="63.623046875" xlink:href="#BitstreamVeraSans-Roman-32"/>
       <use x="127.24609375" xlink:href="#BitstreamVeraSans-Roman-30"/>
       <use x="190.869140625" xlink:href="#BitstreamVeraSans-Roman-30"/>
      </g>
     </g>
    </g>
    <g id="xtick_8">
     <g id="line2d_16">
      <g>
       <use style="stroke:#000000;stroke-width:0.5;" x="437.4975" xlink:href="#mb737818f54" y="368.74175"/>
      </g>
     </g>
     <g id="line2d_17">
      <g>
       <use style="stroke:#000000;stroke-width:0.5;" x="437.4975" xlink:href="#m2ad43b5ded" y="23.14175"/>
      </g>
     </g>
     <g id="text_8">
      <!-- 1400 -->
      <g transform="translate(422.2275 381.859875)scale(0.12 -0.12)">
       <use xlink:href="#BitstreamVeraSans-Roman-31"/>
       <use x="63.623046875" xlink:href="#BitstreamVeraSans-Roman-34"/>
       <use x="127.24609375" xlink:href="#BitstreamVeraSans-Roman-30"/>
       <use x="190.869140625" xlink:href="#BitstreamVeraSans-Roman-30"/>
      </g>
     </g>
    </g>
    <g id="xtick_9">
     <g id="line2d_18">
      <g>
       <use style="stroke:#000000;stroke-width:0.5;" x="493.2975" xlink:href="#mb737818f54" y="368.74175"/>
      </g>
     </g>
     <g id="line2d_19">
      <g>
       <use style="stroke:#000000;stroke-width:0.5;" x="493.2975" xlink:href="#m2ad43b5ded" y="23.14175"/>
      </g>
     </g>
     <g id="text_9">
      <!-- 1600 -->
      <g transform="translate(478.0275 381.859875)scale(0.12 -0.12)">
       <use xlink:href="#BitstreamVeraSans-Roman-31"/>
       <use x="63.623046875" xlink:href="#BitstreamVeraSans-Roman-36"/>
       <use x="127.24609375" xlink:href="#BitstreamVeraSans-Roman-30"/>
       <use x="190.869140625" xlink:href="#BitstreamVeraSans-Roman-30"/>
      </g>
     </g>
    </g>
    <g id="text_10">
     <!-- episode -->
     <defs>
      <path d="M 9.421875 54.6875 
L 18.40625 54.6875 
L 18.40625 0 
L 9.421875 0 
z
M 9.421875 75.984375 
L 18.40625 75.984375 
L 18.40625 64.59375 
L 9.421875 64.59375 
z
" id="BitstreamVeraSans-Roman-69"/>
      <path d="M 44.28125 53.078125 
L 44.28125 44.578125 
Q 40.484375 46.53125 36.375 47.5 
Q 32.28125 48.484375 27.875 48.484375 
Q 21.1875 48.484375 17.84375 46.4375 
Q 14.5 44.390625 14.5 40.28125 
Q 14.5 37.15625 16.890625 35.375 
Q 19.28125 33.59375 26.515625 31.984375 
L 29.59375 31.296875 
Q 39.15625 29.25 43.1875 25.515625 
Q 47.21875 21.78125 47.21875 15.09375 
Q 47.21875 7.46875 41.1875 3.015625 
Q 35.15625 -1.421875 24.609375 -1.421875 
Q 20.21875 -1.421875 15.453125 -0.5625 
Q 10.6875 0.296875 5.421875 2 
L 5.421875 11.28125 
Q 10.40625 8.6875 15.234375 7.390625 
Q 20.0625 6.109375 24.8125 6.109375 
Q 31.15625 6.109375 34.5625 8.28125 
Q 37.984375 10.453125 37.984375 14.40625 
Q 37.984375 18.0625 35.515625 20.015625 
Q 33.0625 21.96875 24.703125 23.78125 
L 21.578125 24.515625 
Q 13.234375 26.265625 9.515625 29.90625 
Q 5.8125 33.546875 5.8125 39.890625 
Q 5.8125 47.609375 11.28125 51.796875 
Q 16.75 56 26.8125 56 
Q 31.78125 56 36.171875 55.265625 
Q 40.578125 54.546875 44.28125 53.078125 
" id="BitstreamVeraSans-Roman-73"/>
      <path d="M 18.109375 8.203125 
L 18.109375 -20.796875 
L 9.078125 -20.796875 
L 9.078125 54.6875 
L 18.109375 54.6875 
L 18.109375 46.390625 
Q 20.953125 51.265625 25.265625 53.625 
Q 29.59375 56 35.59375 56 
Q 45.5625 56 51.78125 48.09375 
Q 58.015625 40.1875 58.015625 27.296875 
Q 58.015625 14.40625 51.78125 6.484375 
Q 45.5625 -1.421875 35.59375 -1.421875 
Q 29.59375 -1.421875 25.265625 0.953125 
Q 20.953125 3.328125 18.109375 8.203125 
M 48.6875 27.296875 
Q 48.6875 37.203125 44.609375 42.84375 
Q 40.53125 48.484375 33.40625 48.484375 
Q 26.265625 48.484375 22.1875 42.84375 
Q 18.109375 37.203125 18.109375 27.296875 
Q 18.109375 17.390625 22.1875 11.75 
Q 26.265625 6.109375 33.40625 6.109375 
Q 40.53125 6.109375 44.609375 11.75 
Q 48.6875 17.390625 48.6875 27.296875 
" id="BitstreamVeraSans-Roman-70"/>
      <path d="M 56.203125 29.59375 
L 56.203125 25.203125 
L 14.890625 25.203125 
Q 15.484375 15.921875 20.484375 11.0625 
Q 25.484375 6.203125 34.421875 6.203125 
Q 39.59375 6.203125 44.453125 7.46875 
Q 49.3125 8.734375 54.109375 11.28125 
L 54.109375 2.78125 
Q 49.265625 0.734375 44.1875 -0.34375 
Q 39.109375 -1.421875 33.890625 -1.421875 
Q 20.796875 -1.421875 13.15625 6.1875 
Q 5.515625 13.8125 5.515625 26.8125 
Q 5.515625 40.234375 12.765625 48.109375 
Q 20.015625 56 32.328125 56 
Q 43.359375 56 49.78125 48.890625 
Q 56.203125 41.796875 56.203125 29.59375 
M 47.21875 32.234375 
Q 47.125 39.59375 43.09375 43.984375 
Q 39.0625 48.390625 32.421875 48.390625 
Q 24.90625 48.390625 20.390625 44.140625 
Q 15.875 39.890625 15.1875 32.171875 
z
" id="BitstreamVeraSans-Roman-65"/>
      <path d="M 30.609375 48.390625 
Q 23.390625 48.390625 19.1875 42.75 
Q 14.984375 37.109375 14.984375 27.296875 
Q 14.984375 17.484375 19.15625 11.84375 
Q 23.34375 6.203125 30.609375 6.203125 
Q 37.796875 6.203125 41.984375 11.859375 
Q 46.1875 17.53125 46.1875 27.296875 
Q 46.1875 37.015625 41.984375 42.703125 
Q 37.796875 48.390625 30.609375 48.390625 
M 30.609375 56 
Q 42.328125 56 49.015625 48.375 
Q 55.71875 40.765625 55.71875 27.296875 
Q 55.71875 13.875 49.015625 6.21875 
Q 42.328125 -1.421875 30.609375 -1.421875 
Q 18.84375 -1.421875 12.171875 6.21875 
Q 5.515625 13.875 5.515625 27.296875 
Q 5.515625 40.765625 12.171875 48.375 
Q 18.84375 56 30.609375 56 
" id="BitstreamVeraSans-Roman-6f"/>
      <path d="M 45.40625 46.390625 
L 45.40625 75.984375 
L 54.390625 75.984375 
L 54.390625 0 
L 45.40625 0 
L 45.40625 8.203125 
Q 42.578125 3.328125 38.25 0.953125 
Q 33.9375 -1.421875 27.875 -1.421875 
Q 17.96875 -1.421875 11.734375 6.484375 
Q 5.515625 14.40625 5.515625 27.296875 
Q 5.515625 40.1875 11.734375 48.09375 
Q 17.96875 56 27.875 56 
Q 33.9375 56 38.25 53.625 
Q 42.578125 51.265625 45.40625 46.390625 
M 14.796875 27.296875 
Q 14.796875 17.390625 18.875 11.75 
Q 22.953125 6.109375 30.078125 6.109375 
Q 37.203125 6.109375 41.296875 11.75 
Q 45.40625 17.390625 45.40625 27.296875 
Q 45.40625 37.203125 41.296875 42.84375 
Q 37.203125 48.484375 30.078125 48.484375 
Q 22.953125 48.484375 18.875 42.84375 
Q 14.796875 37.203125 14.796875 27.296875 
" id="BitstreamVeraSans-Roman-64"/>
     </defs>
     <g transform="translate(246.631875 398.473625)scale(0.12 -0.12)">
      <use xlink:href="#BitstreamVeraSans-Roman-65"/>
      <use x="61.5234375" xlink:href="#BitstreamVeraSans-Roman-70"/>
      <use x="125.0" xlink:href="#BitstreamVeraSans-Roman-69"/>
      <use x="152.783203125" xlink:href="#BitstreamVeraSans-Roman-73"/>
      <use x="204.8828125" xlink:href="#BitstreamVeraSans-Roman-6f"/>
      <use x="266.064453125" xlink:href="#BitstreamVeraSans-Roman-64"/>
      <use x="329.541015625" xlink:href="#BitstreamVeraSans-Roman-65"/>
     </g>
    </g>
   </g>
   <g id="matplotlib.axis_2">
    <g id="ytick_1">
     <g id="line2d_20">
      <defs>
       <path d="M 0 0 
L 4 0 
" id="m503a08f0c2" style="stroke:#000000;stroke-width:0.5;"/>
      </defs>
      <g>
       <use style="stroke:#000000;stroke-width:0.5;" x="46.8975" xlink:href="#m503a08f0c2" y="368.74175"/>
      </g>
     </g>
     <g id="line2d_21">
      <defs>
       <path d="M 0 0 
L -4 0 
" id="mc58e892405" style="stroke:#000000;stroke-width:0.5;"/>
      </defs>
      <g>
       <use style="stroke:#000000;stroke-width:0.5;" x="493.2975" xlink:href="#mc58e892405" y="368.74175"/>
      </g>
     </g>
     <g id="text_11">
      <!-- 0.0 -->
      <defs>
       <path d="M 10.6875 12.40625 
L 21 12.40625 
L 21 0 
L 10.6875 0 
z
" id="BitstreamVeraSans-Roman-2e"/>
      </defs>
      <g transform="translate(23.81375 372.053)scale(0.12 -0.12)">
       <use xlink:href="#BitstreamVeraSans-Roman-30"/>
       <use x="63.623046875" xlink:href="#BitstreamVeraSans-Roman-2e"/>
       <use x="95.41015625" xlink:href="#BitstreamVeraSans-Roman-30"/>
      </g>
     </g>
    </g>
    <g id="ytick_2">
     <g id="line2d_22">
      <g>
       <use style="stroke:#000000;stroke-width:0.5;" x="46.8975" xlink:href="#m503a08f0c2" y="282.34175"/>
      </g>
     </g>
     <g id="line2d_23">
      <g>
       <use style="stroke:#000000;stroke-width:0.5;" x="493.2975" xlink:href="#mc58e892405" y="282.34175"/>
      </g>
     </g>
     <g id="text_12">
      <!-- 0.5 -->
      <defs>
       <path d="M 10.796875 72.90625 
L 49.515625 72.90625 
L 49.515625 64.59375 
L 19.828125 64.59375 
L 19.828125 46.734375 
Q 21.96875 47.46875 24.109375 47.828125 
Q 26.265625 48.1875 28.421875 48.1875 
Q 40.625 48.1875 47.75 41.5 
Q 54.890625 34.8125 54.890625 23.390625 
Q 54.890625 11.625 47.5625 5.09375 
Q 40.234375 -1.421875 26.90625 -1.421875 
Q 22.3125 -1.421875 17.546875 -0.640625 
Q 12.796875 0.140625 7.71875 1.703125 
L 7.71875 11.625 
Q 12.109375 9.234375 16.796875 8.0625 
Q 21.484375 6.890625 26.703125 6.890625 
Q 35.15625 6.890625 40.078125 11.328125 
Q 45.015625 15.765625 45.015625 23.390625 
Q 45.015625 31 40.078125 35.4375 
Q 35.15625 39.890625 26.703125 39.890625 
Q 22.75 39.890625 18.8125 39.015625 
Q 14.890625 38.140625 10.796875 36.28125 
z
" id="BitstreamVeraSans-Roman-35"/>
      </defs>
      <g transform="translate(23.81375 285.653)scale(0.12 -0.12)">
       <use xlink:href="#BitstreamVeraSans-Roman-30"/>
       <use x="63.623046875" xlink:href="#BitstreamVeraSans-Roman-2e"/>
       <use x="95.41015625" xlink:href="#BitstreamVeraSans-Roman-35"/>
      </g>
     </g>
    </g>
    <g id="ytick_3">
     <g id="line2d_24">
      <g>
       <use style="stroke:#000000;stroke-width:0.5;" x="46.8975" xlink:href="#m503a08f0c2" y="195.94175"/>
      </g>
     </g>
     <g id="line2d_25">
      <g>
       <use style="stroke:#000000;stroke-width:0.5;" x="493.2975" xlink:href="#mc58e892405" y="195.94175"/>
      </g>
     </g>
     <g id="text_13">
      <!-- 1.0 -->
      <g transform="translate(23.81375 199.253)scale(0.12 -0.12)">
       <use xlink:href="#BitstreamVeraSans-Roman-31"/>
       <use x="63.623046875" xlink:href="#BitstreamVeraSans-Roman-2e"/>
       <use x="95.41015625" xlink:href="#BitstreamVeraSans-Roman-30"/>
      </g>
     </g>
    </g>
    <g id="ytick_4">
     <g id="line2d_26">
      <g>
       <use style="stroke:#000000;stroke-width:0.5;" x="46.8975" xlink:href="#m503a08f0c2" y="109.54175"/>
      </g>
     </g>
     <g id="line2d_27">
      <g>
       <use style="stroke:#000000;stroke-width:0.5;" x="493.2975" xlink:href="#mc58e892405" y="109.54175"/>
      </g>
     </g>
     <g id="text_14">
      <!-- 1.5 -->
      <g transform="translate(23.81375 112.853)scale(0.12 -0.12)">
       <use xlink:href="#BitstreamVeraSans-Roman-31"/>
       <use x="63.623046875" xlink:href="#BitstreamVeraSans-Roman-2e"/>
       <use x="95.41015625" xlink:href="#BitstreamVeraSans-Roman-35"/>
      </g>
     </g>
    </g>
    <g id="ytick_5">
     <g id="line2d_28">
      <g>
       <use style="stroke:#000000;stroke-width:0.5;" x="46.8975" xlink:href="#m503a08f0c2" y="23.14175"/>
      </g>
     </g>
     <g id="line2d_29">
      <g>
       <use style="stroke:#000000;stroke-width:0.5;" x="493.2975" xlink:href="#mc58e892405" y="23.14175"/>
      </g>
     </g>
     <g id="text_15">
      <!-- 2.0 -->
      <g transform="translate(23.81375 26.453)scale(0.12 -0.12)">
       <use xlink:href="#BitstreamVeraSans-Roman-32"/>
       <use x="63.623046875" xlink:href="#BitstreamVeraSans-Roman-2e"/>
       <use x="95.41015625" xlink:href="#BitstreamVeraSans-Roman-30"/>
      </g>
     </g>
    </g>
    <g id="text_16">
     <!-- average maxQ -->
     <defs>
      <path d="M 41.109375 46.296875 
Q 39.59375 47.171875 37.8125 47.578125 
Q 36.03125 48 33.890625 48 
Q 26.265625 48 22.1875 43.046875 
Q 18.109375 38.09375 18.109375 28.8125 
L 18.109375 0 
L 9.078125 0 
L 9.078125 54.6875 
L 18.109375 54.6875 
L 18.109375 46.1875 
Q 20.953125 51.171875 25.484375 53.578125 
Q 30.03125 56 36.53125 56 
Q 37.453125 56 38.578125 55.875 
Q 39.703125 55.765625 41.0625 55.515625 
z
" id="BitstreamVeraSans-Roman-72"/>
      <path id="BitstreamVeraSans-Roman-20"/>
      <path d="M 52 44.1875 
Q 55.375 50.25 60.0625 53.125 
Q 64.75 56 71.09375 56 
Q 79.640625 56 84.28125 50.015625 
Q 88.921875 44.046875 88.921875 33.015625 
L 88.921875 0 
L 79.890625 0 
L 79.890625 32.71875 
Q 79.890625 40.578125 77.09375 44.375 
Q 74.3125 48.1875 68.609375 48.1875 
Q 61.625 48.1875 57.5625 43.546875 
Q 53.515625 38.921875 53.515625 30.90625 
L 53.515625 0 
L 44.484375 0 
L 44.484375 32.71875 
Q 44.484375 40.625 41.703125 44.40625 
Q 38.921875 48.1875 33.109375 48.1875 
Q 26.21875 48.1875 22.15625 43.53125 
Q 18.109375 38.875 18.109375 30.90625 
L 18.109375 0 
L 9.078125 0 
L 9.078125 54.6875 
L 18.109375 54.6875 
L 18.109375 46.1875 
Q 21.1875 51.21875 25.484375 53.609375 
Q 29.78125 56 35.6875 56 
Q 41.65625 56 45.828125 52.96875 
Q 50 49.953125 52 44.1875 
" id="BitstreamVeraSans-Roman-6d"/>
      <path d="M 39.40625 66.21875 
Q 28.65625 66.21875 22.328125 58.203125 
Q 16.015625 50.203125 16.015625 36.375 
Q 16.015625 22.609375 22.328125 14.59375 
Q 28.65625 6.59375 39.40625 6.59375 
Q 50.140625 6.59375 56.421875 14.59375 
Q 62.703125 22.609375 62.703125 36.375 
Q 62.703125 50.203125 56.421875 58.203125 
Q 50.140625 66.21875 39.40625 66.21875 
M 53.21875 1.3125 
L 66.21875 -12.890625 
L 54.296875 -12.890625 
L 43.5 -1.21875 
Q 41.890625 -1.3125 41.03125 -1.359375 
Q 40.1875 -1.421875 39.40625 -1.421875 
Q 24.03125 -1.421875 14.8125 8.859375 
Q 5.609375 19.140625 5.609375 36.375 
Q 5.609375 53.65625 14.8125 63.9375 
Q 24.03125 74.21875 39.40625 74.21875 
Q 54.734375 74.21875 63.90625 63.9375 
Q 73.09375 53.65625 73.09375 36.375 
Q 73.09375 23.6875 67.984375 14.640625 
Q 62.890625 5.609375 53.21875 1.3125 
" id="BitstreamVeraSans-Roman-51"/>
      <path d="M 54.890625 54.6875 
L 35.109375 28.078125 
L 55.90625 0 
L 45.3125 0 
L 29.390625 21.484375 
L 13.484375 0 
L 2.875 0 
L 24.125 28.609375 
L 4.6875 54.6875 
L 15.28125 54.6875 
L 29.78125 35.203125 
L 44.28125 54.6875 
z
" id="BitstreamVeraSans-Roman-78"/>
      <path d="M 2.984375 54.6875 
L 12.5 54.6875 
L 29.59375 8.796875 
L 46.6875 54.6875 
L 56.203125 54.6875 
L 35.6875 0 
L 23.484375 0 
z
" id="BitstreamVeraSans-Roman-76"/>
      <path d="M 45.40625 27.984375 
Q 45.40625 37.75 41.375 43.109375 
Q 37.359375 48.484375 30.078125 48.484375 
Q 22.859375 48.484375 18.828125 43.109375 
Q 14.796875 37.75 14.796875 27.984375 
Q 14.796875 18.265625 18.828125 12.890625 
Q 22.859375 7.515625 30.078125 7.515625 
Q 37.359375 7.515625 41.375 12.890625 
Q 45.40625 18.265625 45.40625 27.984375 
M 54.390625 6.78125 
Q 54.390625 -7.171875 48.1875 -13.984375 
Q 42 -20.796875 29.203125 -20.796875 
Q 24.46875 -20.796875 20.265625 -20.09375 
Q 16.0625 -19.390625 12.109375 -17.921875 
L 12.109375 -9.1875 
Q 16.0625 -11.328125 19.921875 -12.34375 
Q 23.78125 -13.375 27.78125 -13.375 
Q 36.625 -13.375 41.015625 -8.765625 
Q 45.40625 -4.15625 45.40625 5.171875 
L 45.40625 9.625 
Q 42.625 4.78125 38.28125 2.390625 
Q 33.9375 0 27.875 0 
Q 17.828125 0 11.671875 7.65625 
Q 5.515625 15.328125 5.515625 27.984375 
Q 5.515625 40.671875 11.671875 48.328125 
Q 17.828125 56 27.875 56 
Q 33.9375 56 38.28125 53.609375 
Q 42.625 51.21875 45.40625 46.390625 
L 45.40625 54.6875 
L 54.390625 54.6875 
z
" id="BitstreamVeraSans-Roman-67"/>
      <path d="M 34.28125 27.484375 
Q 23.390625 27.484375 19.1875 25 
Q 14.984375 22.515625 14.984375 16.5 
Q 14.984375 11.71875 18.140625 8.90625 
Q 21.296875 6.109375 26.703125 6.109375 
Q 34.1875 6.109375 38.703125 11.40625 
Q 43.21875 16.703125 43.21875 25.484375 
L 43.21875 27.484375 
z
M 52.203125 31.203125 
L 52.203125 0 
L 43.21875 0 
L 43.21875 8.296875 
Q 40.140625 3.328125 35.546875 0.953125 
Q 30.953125 -1.421875 24.3125 -1.421875 
Q 15.921875 -1.421875 10.953125 3.296875 
Q 6 8.015625 6 15.921875 
Q 6 25.140625 12.171875 29.828125 
Q 18.359375 34.515625 30.609375 34.515625 
L 43.21875 34.515625 
L 43.21875 35.40625 
Q 43.21875 41.609375 39.140625 45 
Q 35.0625 48.390625 27.6875 48.390625 
Q 23 48.390625 18.546875 47.265625 
Q 14.109375 46.140625 10.015625 43.890625 
L 10.015625 52.203125 
Q 14.9375 54.109375 19.578125 55.046875 
Q 24.21875 56 28.609375 56 
Q 40.484375 56 46.34375 49.84375 
Q 52.203125 43.703125 52.203125 31.203125 
" id="BitstreamVeraSans-Roman-61"/>
     </defs>
     <g transform="translate(16.318125 240.208625)rotate(-90.0)scale(0.12 -0.12)">
      <use xlink:href="#BitstreamVeraSans-Roman-61"/>
      <use x="61.279296875" xlink:href="#BitstreamVeraSans-Roman-76"/>
      <use x="120.458984375" xlink:href="#BitstreamVeraSans-Roman-65"/>
      <use x="181.982421875" xlink:href="#BitstreamVeraSans-Roman-72"/>
      <use x="223.095703125" xlink:href="#BitstreamVeraSans-Roman-61"/>
      <use x="284.375" xlink:href="#BitstreamVeraSans-Roman-67"/>
      <use x="347.8515625" xlink:href="#BitstreamVeraSans-Roman-65"/>
      <use x="409.375" xlink:href="#BitstreamVeraSans-Roman-20"/>
      <use x="441.162109375" xlink:href="#BitstreamVeraSans-Roman-6d"/>
      <use x="538.57421875" xlink:href="#BitstreamVeraSans-Roman-61"/>
      <use x="599.853515625" xlink:href="#BitstreamVeraSans-Roman-78"/>
      <use x="659.033203125" xlink:href="#BitstreamVeraSans-Roman-51"/>
     </g>
    </g>
   </g>
   <g id="text_17">
    <!-- Average maxQ per episode, joint 6 -->
    <defs>
     <path d="M 54.890625 33.015625 
L 54.890625 0 
L 45.90625 0 
L 45.90625 32.71875 
Q 45.90625 40.484375 42.875 44.328125 
Q 39.84375 48.1875 33.796875 48.1875 
Q 26.515625 48.1875 22.3125 43.546875 
Q 18.109375 38.921875 18.109375 30.90625 
L 18.109375 0 
L 9.078125 0 
L 9.078125 54.6875 
L 18.109375 54.6875 
L 18.109375 46.1875 
Q 21.34375 51.125 25.703125 53.5625 
Q 30.078125 56 35.796875 56 
Q 45.21875 56 50.046875 50.171875 
Q 54.890625 44.34375 54.890625 33.015625 
" id="BitstreamVeraSans-Roman-6e"/>
     <path d="M 11.71875 12.40625 
L 22.015625 12.40625 
L 22.015625 4 
L 14.015625 -11.625 
L 7.71875 -11.625 
L 11.71875 4 
z
" id="BitstreamVeraSans-Roman-2c"/>
     <path d="M 9.421875 54.6875 
L 18.40625 54.6875 
L 18.40625 -0.984375 
Q 18.40625 -11.421875 14.421875 -16.109375 
Q 10.453125 -20.796875 1.609375 -20.796875 
L -1.8125 -20.796875 
L -1.8125 -13.1875 
L 0.59375 -13.1875 
Q 5.71875 -13.1875 7.5625 -10.8125 
Q 9.421875 -8.453125 9.421875 -0.984375 
z
M 9.421875 75.984375 
L 18.40625 75.984375 
L 18.40625 64.59375 
L 9.421875 64.59375 
z
" id="BitstreamVeraSans-Roman-6a"/>
     <path d="M 18.3125 70.21875 
L 18.3125 54.6875 
L 36.8125 54.6875 
L 36.8125 47.703125 
L 18.3125 47.703125 
L 18.3125 18.015625 
Q 18.3125 11.328125 20.140625 9.421875 
Q 21.96875 7.515625 27.59375 7.515625 
L 36.8125 7.515625 
L 36.8125 0 
L 27.59375 0 
Q 17.1875 0 13.234375 3.875 
Q 9.28125 7.765625 9.28125 18.015625 
L 9.28125 47.703125 
L 2.6875 47.703125 
L 2.6875 54.6875 
L 9.28125 54.6875 
L 9.28125 70.21875 
z
" id="BitstreamVeraSans-Roman-74"/>
     <path d="M 34.1875 63.1875 
L 20.796875 26.90625 
L 47.609375 26.90625 
z
M 28.609375 72.90625 
L 39.796875 72.90625 
L 67.578125 0 
L 57.328125 0 
L 50.6875 18.703125 
L 17.828125 18.703125 
L 11.1875 0 
L 0.78125 0 
z
" id="BitstreamVeraSans-Roman-41"/>
    </defs>
    <g transform="translate(144.53625 18.14175)scale(0.144 -0.144)">
     <use xlink:href="#BitstreamVeraSans-Roman-41"/>
     <use x="68.330078125" xlink:href="#BitstreamVeraSans-Roman-76"/>
     <use x="127.509765625" xlink:href="#BitstreamVeraSans-Roman-65"/>
     <use x="189.033203125" xlink:href="#BitstreamVeraSans-Roman-72"/>
     <use x="230.146484375" xlink:href="#BitstreamVeraSans-Roman-61"/>
     <use x="291.42578125" xlink:href="#BitstreamVeraSans-Roman-67"/>
     <use x="354.90234375" xlink:href="#BitstreamVeraSans-Roman-65"/>
     <use x="416.42578125" xlink:href="#BitstreamVeraSans-Roman-20"/>
     <use x="448.212890625" xlink:href="#BitstreamVeraSans-Roman-6d"/>
     <use x="545.625" xlink:href="#BitstreamVeraSans-Roman-61"/>
     <use x="606.904296875" xlink:href="#BitstreamVeraSans-Roman-78"/>
     <use x="666.083984375" xlink:href="#BitstreamVeraSans-Roman-51"/>
     <use x="744.794921875" xlink:href="#BitstreamVeraSans-Roman-20"/>
     <use x="776.58203125" xlink:href="#BitstreamVeraSans-Roman-70"/>
     <use x="840.05859375" xlink:href="#BitstreamVeraSans-Roman-65"/>
     <use x="901.58203125" xlink:href="#BitstreamVeraSans-Roman-72"/>
     <use x="942.6953125" xlink:href="#BitstreamVeraSans-Roman-20"/>
     <use x="974.482421875" xlink:href="#BitstreamVeraSans-Roman-65"/>
     <use x="1036.005859375" xlink:href="#BitstreamVeraSans-Roman-70"/>
     <use x="1099.482421875" xlink:href="#BitstreamVeraSans-Roman-69"/>
     <use x="1127.265625" xlink:href="#BitstreamVeraSans-Roman-73"/>
     <use x="1179.365234375" xlink:href="#BitstreamVeraSans-Roman-6f"/>
     <use x="1240.546875" xlink:href="#BitstreamVeraSans-Roman-64"/>
     <use x="1304.0234375" xlink:href="#BitstreamVeraSans-Roman-65"/>
     <use x="1365.546875" xlink:href="#BitstreamVeraSans-Roman-2c"/>
     <use x="1397.333984375" xlink:href="#BitstreamVeraSans-Roman-20"/>
     <use x="1429.12109375" xlink:href="#BitstreamVeraSans-Roman-6a"/>
     <use x="1456.904296875" xlink:href="#BitstreamVeraSans-Roman-6f"/>
     <use x="1518.0859375" xlink:href="#BitstreamVeraSans-Roman-69"/>
     <use x="1545.869140625" xlink:href="#BitstreamVeraSans-Roman-6e"/>
     <use x="1609.248046875" xlink:href="#BitstreamVeraSans-Roman-74"/>
     <use x="1648.45703125" xlink:href="#BitstreamVeraSans-Roman-20"/>
     <use x="1680.244140625" xlink:href="#BitstreamVeraSans-Roman-36"/>
    </g>
   </g>
  </g>
 </g>
 <defs>
  <clipPath id="pa92b2ba6cb">
   <rect height="345.6" width="446.4" x="46.8975" y="23.14175"/>
  </clipPath>
 </defs>
</svg>
