<?xml version="1.0" encoding="utf-8" standalone="no"?>
<!DOCTYPE svg PUBLIC "-//W3C//DTD SVG 1.1//EN"
  "http://www.w3.org/Graphics/SVG/1.1/DTD/svg11.dtd">
<!-- Created with matplotlib (http://matplotlib.org/) -->
<svg height="408pt" version="1.1" viewBox="0 0 515 408" width="515pt" xmlns="http://www.w3.org/2000/svg" xmlns:xlink="http://www.w3.org/1999/xlink">
 <defs>
  <style type="text/css">
*{stroke-linecap:butt;stroke-linejoin:round;stroke-miterlimit:100000;}
  </style>
 </defs>
 <g id="figure_1">
  <g id="patch_1">
   <path d="M 0 408.16925 
L 515.7675 408.16925 
L 515.7675 0 
L 0 0 
z
" style="fill:#ffffff;"/>
  </g>
  <g id="axes_1">
   <g id="patch_2">
    <path d="M 46.8975 368.74175 
L 493.2975 368.74175 
L 493.2975 23.14175 
L 46.8975 23.14175 
z
" style="fill:#ffffff;"/>
   </g>
   <g id="line2d_1">
    <path clip-path="url(#pb09b485c97)" d="M 47.1455 250.132301 
L 47.3935 236.071361 
L 47.8895 281.389426 
L 48.1375 232.76005 
L 48.6335 282.333665 
L 48.8815 261.600124 
L 49.1295 292.41783 
L 49.3775 246.971956 
L 49.8735 284.336522 
L 50.1215 276.015758 
L 50.6175 254.41483 
L 50.8655 257.313954 
L 51.1135 239.137527 
L 51.3615 286.369778 
L 51.6095 233.931701 
L 51.8575 292.980604 
L 52.3535 232.925956 
L 52.8495 276.114325 
L 53.0975 251.503643 
L 53.3455 265.864347 
L 53.5935 257.959292 
L 53.8415 259.570188 
L 54.0895 273.704325 
L 54.3375 268.406134 
L 54.5855 274.026881 
L 54.8335 246.817326 
L 55.0815 242.370082 
L 55.3295 226.410951 
L 55.5775 277.75062 
L 55.8255 297.79911 
L 56.0735 230.396992 
L 56.3215 271.064983 
L 56.5695 280.370273 
L 56.8175 269.740122 
L 57.0655 279.288544 
L 57.3135 270.401106 
L 57.5615 252.094011 
L 57.8095 271.442751 
L 58.0575 254.354668 
L 58.3055 278.0014 
L 58.5535 248.050369 
L 58.8015 257.835623 
L 59.0495 245.425701 
L 59.2975 272.953513 
L 59.5455 245.252679 
L 59.7935 241.89981 
L 60.0415 255.093138 
L 60.2895 225.631075 
L 60.5375 256.136342 
L 60.7855 267.892275 
L 61.0335 233.474262 
L 61.2815 268.11502 
L 61.5295 254.154874 
L 61.7775 257.217254 
L 62.0255 283.370404 
L 62.5215 244.270009 
L 62.7695 272.343278 
L 63.0175 242.882416 
L 63.2655 248.622815 
L 63.5135 276.694409 
L 63.7615 269.381211 
L 64.0095 279.166574 
L 64.2575 255.275232 
L 64.5055 278.21068 
L 64.7535 247.280622 
L 65.0015 283.301607 
L 65.2495 261.365712 
L 65.4975 214.864231 
L 65.9935 281.212301 
L 66.2415 268.461124 
L 66.4895 244.838676 
L 66.7375 283.365814 
L 67.2335 272.205495 
L 67.4815 252.238282 
L 67.7295 248.59462 
L 67.9775 281.267541 
L 68.2255 266.623706 
L 68.4735 270.021665 
L 68.7215 268.584252 
L 68.9695 255.013318 
L 69.2175 258.690968 
L 69.4655 280.916798 
L 69.7135 219.574692 
L 69.9615 279.473424 
L 70.2095 241.590042 
L 70.4575 272.521286 
L 70.7055 279.215847 
L 70.9535 260.450976 
L 71.2015 258.966035 
L 71.4495 252.577252 
L 71.6975 260.179253 
L 71.9455 220.439592 
L 72.4415 287.070608 
L 72.6895 268.949724 
L 72.9375 260.867695 
L 73.1855 244.67048 
L 73.4335 266.207548 
L 73.6815 275.863405 
L 73.9295 238.260481 
L 74.1775 265.545404 
L 74.4255 264.30635 
L 74.6735 267.257872 
L 74.9215 282.148716 
L 75.1695 200.830459 
L 75.4175 231.400496 
L 75.6655 231.479912 
L 75.9135 269.525052 
L 76.1615 232.757529 
L 76.4095 278.018892 
L 76.6575 271.928828 
L 76.9055 207.994695 
L 77.1535 247.870959 
L 77.6495 285.690821 
L 77.8975 223.397567 
L 78.1455 258.482634 
L 78.3935 233.60961 
L 78.8895 277.145308 
L 79.1375 259.213836 
L 79.3855 197.256567 
L 79.6335 277.083503 
L 79.8815 282.234109 
L 80.1295 265.114773 
L 80.3775 238.936372 
L 80.6255 280.354699 
L 80.8735 216.117611 
L 81.1215 279.795038 
L 81.3695 264.117195 
L 81.6175 218.676814 
L 81.8655 280.591434 
L 82.1135 220.265524 
L 82.3615 254.691267 
L 82.6095 253.383844 
L 82.8575 248.765607 
L 83.1055 279.623725 
L 83.3535 268.542586 
L 83.6015 277.522689 
L 83.8495 269.654446 
L 84.0975 243.146595 
L 84.5935 255.188749 
L 84.8415 228.912442 
L 85.0895 271.990803 
L 85.3375 261.797152 
L 85.5855 267.794232 
L 85.8335 228.357575 
L 86.3295 260.848982 
L 86.5775 240.363329 
L 86.8255 254.773183 
L 87.0735 287.091672 
L 87.3215 217.712577 
L 87.8175 245.45599 
L 88.3135 269.910463 
L 88.5615 273.762203 
L 88.8095 247.502199 
L 89.0575 253.747576 
L 89.3055 256.429026 
L 89.5535 247.49703 
L 89.8015 250.772459 
L 90.0495 277.954359 
L 90.2975 266.807501 
L 90.5455 228.958251 
L 90.7935 240.137811 
L 91.0415 258.669648 
L 91.2895 235.825755 
L 91.5375 284.562366 
L 91.7855 276.401952 
L 92.0335 261.324802 
L 92.2815 274.177252 
L 92.5295 213.71546 
L 92.7775 281.253616 
L 93.0255 282.146566 
L 93.2735 246.3401 
L 93.5215 287.015475 
L 93.7695 269.250715 
L 94.0175 271.794686 
L 94.2655 269.911684 
L 94.7615 263.062354 
L 95.0095 279.363319 
L 95.2575 251.565288 
L 95.5055 273.982258 
L 95.7535 221.227296 
L 96.0015 286.551976 
L 96.2495 275.296149 
L 96.4975 252.174748 
L 96.9935 273.130423 
L 97.2415 277.602162 
L 97.4895 210.426349 
L 98.2335 276.870787 
L 98.4815 278.293432 
L 98.7295 277.408243 
L 98.9775 264.531397 
L 99.2255 282.795513 
L 99.7215 256.292777 
L 99.9695 275.682397 
L 100.2175 274.688908 
L 100.4655 253.044668 
L 100.7135 284.15513 
L 100.9615 256.913618 
L 101.2095 249.431941 
L 101.4575 272.066296 
L 101.7055 279.048926 
L 101.9535 271.673071 
L 102.2015 207.208407 
L 102.4495 210.450097 
L 102.6975 265.83092 
L 103.1935 219.273218 
L 103.4415 255.671063 
L 103.6895 225.966535 
L 103.9375 259.316802 
L 104.1855 273.578966 
L 104.4335 238.477755 
L 104.6815 283.732023 
L 105.6735 217.825023 
L 105.9215 276.095515 
L 106.1695 246.267722 
L 106.4175 270.481098 
L 106.6655 259.032653 
L 106.9135 237.428735 
L 107.4095 282.083125 
L 107.6575 238.819183 
L 107.9055 246.113499 
L 108.1535 248.017111 
L 108.4015 274.124141 
L 108.6495 280.897131 
L 108.8975 271.441911 
L 109.1455 299.906473 
L 109.3935 352.358884 
L 109.6415 343.034208 
L 110.1375 337.06661 
L 110.3855 336.730702 
L 110.6335 335.866495 
L 110.8815 336.887865 
L 111.1295 335.479463 
L 111.3775 336.107466 
L 111.6255 334.260688 
L 111.8735 334.432352 
L 112.1215 333.953647 
L 112.3695 335.195933 
L 112.6175 333.271207 
L 112.8655 333.631377 
L 113.1135 332.778999 
L 113.6095 332.446056 
L 113.8575 332.822233 
L 114.1055 331.775926 
L 114.3535 333.881664 
L 114.6015 332.590852 
L 114.8495 329.049007 
L 115.0975 329.076711 
L 115.3455 331.817467 
L 115.5935 330.720171 
L 115.8415 332.149964 
L 116.0895 329.291605 
L 116.3375 329.13407 
L 116.5855 330.941939 
L 117.0815 331.494661 
L 117.3295 330.006159 
L 117.5775 330.705617 
L 117.8255 329.247466 
L 118.0735 329.309818 
L 118.3215 327.401429 
L 118.5695 330.187413 
L 118.8175 326.917752 
L 119.3135 329.694671 
L 119.5615 330.728797 
L 119.8095 329.00341 
L 120.0575 331.689202 
L 120.3055 330.365144 
L 120.5535 327.615593 
L 121.0495 326.402177 
L 121.2975 329.607609 
L 121.5455 329.672522 
L 121.7935 329.39413 
L 122.0415 327.463287 
L 122.2895 326.969122 
L 122.5375 328.850564 
L 122.7855 328.308769 
L 123.0335 329.162601 
L 123.2815 327.402885 
L 123.5295 330.233564 
L 123.7775 325.533925 
L 124.0255 326.97115 
L 124.5215 327.125178 
L 124.7695 330.124482 
L 125.0175 327.725992 
L 125.2655 328.679315 
L 125.5135 327.726517 
L 125.7615 325.846477 
L 126.0095 330.02173 
L 126.2575 325.908892 
L 126.5055 327.150143 
L 126.7535 329.563886 
L 127.2495 324.669866 
L 127.4975 326.597925 
L 127.7455 324.771579 
L 127.9935 324.17234 
L 128.4895 326.73239 
L 128.7375 327.209258 
L 128.9855 329.276918 
L 129.2335 330.3782 
L 129.4815 329.067272 
L 129.7295 325.079137 
L 129.9775 327.577626 
L 130.2255 327.146387 
L 130.4735 324.677272 
L 130.7215 328.50538 
L 130.9695 329.131267 
L 131.2175 321.386494 
L 131.4655 326.534736 
L 131.7135 327.692924 
L 131.9615 323.716708 
L 132.2095 326.122486 
L 132.4575 321.943297 
L 132.7055 327.238485 
L 132.9535 326.136043 
L 133.2015 327.562299 
L 133.4495 326.730198 
L 133.6975 329.312542 
L 133.9455 321.999318 
L 134.1935 324.55327 
L 134.4415 323.300539 
L 134.6895 327.133207 
L 134.9375 328.033563 
L 135.1855 325.242892 
L 135.4335 324.616444 
L 135.6815 322.855185 
L 135.9295 327.820295 
L 136.1775 328.997531 
L 136.4255 326.627326 
L 136.9215 326.161009 
L 137.1695 324.766492 
L 137.4175 328.670441 
L 137.6655 320.96842 
L 137.9135 324.587407 
L 138.1615 326.577973 
L 138.4095 323.124668 
L 138.6575 326.048767 
L 139.1535 322.342744 
L 139.4015 318.765333 
L 139.6495 323.581568 
L 139.8975 320.852419 
L 140.1455 320.56885 
L 140.3935 325.715556 
L 140.6415 321.602979 
L 140.8895 321.704076 
L 141.1375 322.093123 
L 141.3855 320.982306 
L 141.6335 323.558547 
L 141.8815 327.488671 
L 142.1295 322.012954 
L 142.3775 322.242911 
L 142.8735 321.550002 
L 143.1215 320.440733 
L 143.3695 324.032799 
L 143.6175 317.922965 
L 143.8655 319.06909 
L 144.1135 321.08438 
L 144.3615 324.26444 
L 144.6095 324.507578 
L 144.8575 320.150261 
L 145.1055 320.809048 
L 145.3535 321.923918 
L 145.6015 324.297056 
L 145.8495 323.416679 
L 146.0975 323.805619 
L 146.3455 320.907417 
L 146.5935 322.067452 
L 146.8415 320.251154 
L 147.0895 322.875619 
L 147.5855 313.704724 
L 147.8335 328.08194 
L 148.0815 314.661468 
L 148.3295 322.797474 
L 148.5775 322.985462 
L 148.8255 321.370965 
L 149.0735 321.560493 
L 149.3215 319.105189 
L 149.8175 316.065027 
L 150.0655 319.260286 
L 150.3135 324.017456 
L 150.8095 319.195048 
L 151.0575 318.847021 
L 151.3055 318.267745 
L 151.5535 315.278992 
L 151.8015 316.293001 
L 152.0495 319.830257 
L 152.2975 318.897281 
L 152.5455 319.952778 
L 153.0415 318.936279 
L 153.2895 317.526557 
L 153.5375 314.718344 
L 153.7855 322.414086 
L 154.0335 318.941286 
L 154.5295 317.598681 
L 154.7775 316.268963 
L 155.0255 318.6718 
L 155.2735 316.79666 
L 155.5215 319.444399 
L 155.7695 307.506678 
L 156.0175 317.448631 
L 156.2655 318.314124 
L 156.5135 318.155219 
L 156.7615 320.644302 
L 157.0095 315.416543 
L 157.2575 317.230178 
L 157.5055 320.102994 
L 157.7535 316.539025 
L 158.0015 320.549947 
L 158.2495 316.855495 
L 158.4975 321.890194 
L 158.7455 311.896595 
L 158.9935 315.760177 
L 159.2415 310.006908 
L 159.7375 323.727265 
L 159.9855 298.973924 
L 160.2335 307.197582 
L 160.4815 320.821478 
L 160.7295 311.56653 
L 160.9775 321.376117 
L 161.2255 315.237521 
L 161.7215 318.903731 
L 161.9695 310.854659 
L 162.2175 309.669088 
L 162.4655 309.602471 
L 162.7135 314.642167 
L 162.9615 313.642546 
L 163.2095 315.970182 
L 163.4575 303.95289 
L 163.7055 318.518468 
L 164.2015 298.551482 
L 164.4495 299.11992 
L 164.6975 313.754407 
L 164.9455 311.329257 
L 165.1935 313.647217 
L 165.4415 298.361363 
L 165.9375 317.330744 
L 166.1855 304.541604 
L 166.4335 306.57185 
L 166.6815 295.422693 
L 166.9295 310.153273 
L 167.1775 310.470728 
L 167.4255 303.976484 
L 167.6735 302.084407 
L 167.9215 314.755151 
L 168.1695 304.937073 
L 168.4175 316.002062 
L 168.6655 305.332025 
L 168.9135 304.074379 
L 169.1615 293.818201 
L 169.4095 314.458032 
L 169.6575 291.103792 
L 169.9055 316.253893 
L 170.1535 289.694667 
L 170.4015 312.761241 
L 170.6495 294.660725 
L 170.8975 311.72797 
L 171.1455 315.508094 
L 171.3935 310.98118 
L 171.6415 319.26203 
L 171.8895 313.786485 
L 172.1375 293.679357 
L 172.3855 301.167998 
L 172.6335 291.407485 
L 172.8815 309.20884 
L 173.1295 312.878801 
L 173.3775 310.360226 
L 173.6255 310.421965 
L 173.8735 310.910268 
L 174.1215 286.242723 
L 174.3695 310.360917 
L 174.6175 306.853991 
L 174.8655 310.403144 
L 175.1135 298.930379 
L 175.3615 315.202626 
L 175.6095 292.42961 
L 176.3535 311.549997 
L 176.8495 305.21201 
L 177.0975 309.090559 
L 177.3455 310.680871 
L 177.5935 309.464635 
L 177.8415 301.531216 
L 178.3375 308.206665 
L 178.5855 304.190447 
L 178.8335 310.568715 
L 179.0815 286.159537 
L 179.3295 311.090263 
L 179.5775 303.606046 
L 179.8255 286.422302 
L 180.0735 311.621496 
L 180.3215 284.838917 
L 180.5695 302.711281 
L 180.8175 310.025215 
L 181.0655 311.869537 
L 181.3135 284.125091 
L 181.5615 313.954373 
L 181.8095 303.865307 
L 182.3055 308.231404 
L 182.5535 292.994213 
L 182.8015 305.55046 
L 183.0495 282.172912 
L 183.2975 298.991705 
L 183.5455 307.278699 
L 183.7935 310.191573 
L 184.0415 280.083174 
L 184.2895 304.989807 
L 184.5375 308.088742 
L 184.7855 299.574137 
L 185.0335 296.663643 
L 185.2815 302.061808 
L 185.5295 300.47346 
L 185.7775 303.766171 
L 186.0255 288.948551 
L 186.2735 292.917651 
L 186.5215 309.777809 
L 186.7695 291.42716 
L 187.0175 302.330027 
L 187.2655 298.549166 
L 187.5135 315.9925 
L 188.0095 286.280182 
L 188.2575 293.408336 
L 188.5055 281.157189 
L 188.7535 288.405385 
L 189.0015 305.447571 
L 189.2495 298.851088 
L 189.4975 312.731168 
L 189.7455 271.497853 
L 189.9935 306.956525 
L 190.2415 287.910612 
L 190.4895 284.657178 
L 190.9855 273.653806 
L 191.2335 300.307796 
L 191.4815 288.295492 
L 191.7295 287.413443 
L 191.9775 268.238179 
L 192.2255 282.758934 
L 192.4735 287.646918 
L 192.9695 303.261619 
L 193.2175 270.294612 
L 193.4655 279.097934 
L 193.7135 270.988529 
L 193.9615 275.193526 
L 194.2095 269.702316 
L 194.4575 273.359396 
L 194.7055 302.734998 
L 194.9535 270.757112 
L 195.2015 304.053372 
L 195.4495 271.999445 
L 195.6975 271.06333 
L 195.9455 268.570236 
L 196.1935 293.55012 
L 196.4415 289.22221 
L 196.6895 279.351366 
L 196.9375 289.552639 
L 197.1855 270.754996 
L 197.4335 273.83631 
L 197.6815 273.772004 
L 197.9295 291.17013 
L 198.1775 294.500547 
L 198.4255 268.546633 
L 198.6735 270.515037 
L 198.9215 274.079966 
L 199.1695 284.974557 
L 199.4175 303.373352 
L 199.6655 267.431351 
L 199.9135 262.665117 
L 200.6575 299.58138 
L 200.9055 273.074176 
L 201.1535 268.234242 
L 201.4015 275.289555 
L 201.6495 269.368053 
L 201.8975 259.79036 
L 202.1455 268.614895 
L 202.3935 272.349142 
L 202.6415 297.497545 
L 202.8895 267.689927 
L 203.1375 263.590185 
L 203.3855 267.064803 
L 203.6335 266.623877 
L 203.8815 266.654712 
L 204.1295 263.96896 
L 204.3775 296.300698 
L 204.6255 271.225277 
L 204.8735 263.56761 
L 205.1215 269.234617 
L 205.3695 259.851322 
L 205.8655 269.211517 
L 206.1135 262.099775 
L 206.3615 301.99349 
L 206.6095 263.516451 
L 206.8575 267.014179 
L 207.3535 261.002167 
L 207.6015 263.463367 
L 207.8495 298.136372 
L 208.0975 265.104674 
L 208.3455 259.300429 
L 208.5935 266.213455 
L 208.8415 251.88471 
L 209.0895 265.344921 
L 209.5855 254.107188 
L 209.8335 253.729619 
L 210.0815 269.766367 
L 210.3295 253.815577 
L 210.5775 258.630057 
L 210.8255 253.613135 
L 211.0735 259.40452 
L 211.3215 292.233878 
L 211.5695 265.277508 
L 211.8175 272.463028 
L 212.0655 254.888287 
L 212.3135 262.612427 
L 212.5615 248.778247 
L 212.8095 252.342465 
L 213.0575 250.575281 
L 213.3055 264.753337 
L 213.8015 254.36654 
L 214.0495 259.957336 
L 214.2975 256.356678 
L 214.5455 263.959987 
L 214.7935 257.400598 
L 215.0415 256.522221 
L 215.2895 248.789894 
L 215.5375 249.421316 
L 215.7855 251.681707 
L 216.0335 257.175817 
L 216.2815 253.894781 
L 216.5295 256.575258 
L 216.7775 251.551094 
L 217.0255 253.112324 
L 217.2735 249.969903 
L 217.5215 255.438564 
L 217.7695 253.896679 
L 218.0175 250.310253 
L 218.2655 254.57881 
L 218.5135 246.45195 
L 219.0095 263.867052 
L 219.2575 250.456443 
L 219.5055 247.427463 
L 219.7535 253.025315 
L 220.0015 244.682299 
L 220.2495 261.381236 
L 220.4975 249.277346 
L 220.7455 249.739341 
L 220.9935 245.838146 
L 221.2415 273.778664 
L 221.4895 260.922765 
L 221.7375 240.739097 
L 221.9855 262.587816 
L 222.2335 262.469785 
L 222.4815 253.836391 
L 222.7295 250.0794 
L 222.9775 244.633976 
L 223.2255 250.487264 
L 223.4735 247.949398 
L 223.7215 248.941234 
L 223.9695 241.659933 
L 224.2175 288.658152 
L 224.4655 242.749376 
L 224.7135 248.005098 
L 224.9615 271.831206 
L 225.2095 241.019559 
L 225.7055 237.628234 
L 225.9535 244.519125 
L 226.2015 246.61233 
L 226.4495 257.982576 
L 226.6975 240.523174 
L 226.9455 237.953384 
L 227.1935 245.892399 
L 227.4415 246.478467 
L 227.6895 245.668143 
L 227.9375 243.686679 
L 228.1855 238.475596 
L 228.4335 256.099038 
L 228.6815 245.447846 
L 228.9295 250.071344 
L 229.1775 257.971497 
L 229.4255 237.245405 
L 229.6735 245.564678 
L 229.9215 241.042988 
L 230.1695 254.121629 
L 230.4175 241.274681 
L 230.6655 236.542435 
L 230.9135 239.219073 
L 231.1615 264.57148 
L 231.4095 235.644087 
L 231.6575 233.301654 
L 231.9055 236.389742 
L 232.1535 241.789219 
L 232.4015 237.50596 
L 232.6495 258.230691 
L 232.8975 237.127439 
L 233.1455 239.599439 
L 233.3935 235.534583 
L 233.6415 255.753862 
L 233.8895 237.675461 
L 234.1375 229.782365 
L 234.3855 236.299293 
L 234.6335 239.184152 
L 234.8815 228.955143 
L 235.1295 231.674822 
L 235.3775 238.405809 
L 235.6255 256.001809 
L 235.8735 240.437382 
L 236.1215 237.791505 
L 236.3695 227.871239 
L 236.6175 227.00364 
L 237.1135 234.710109 
L 237.3615 230.551601 
L 237.6095 239.385341 
L 237.8575 230.817395 
L 238.1055 233.202981 
L 238.3535 232.391812 
L 238.6015 229.686479 
L 238.8495 233.880142 
L 239.0975 234.219053 
L 239.5935 225.59138 
L 239.8415 227.661196 
L 240.0895 226.493766 
L 240.3375 229.656676 
L 240.5855 242.147949 
L 240.8335 223.260964 
L 241.0815 224.471656 
L 241.5775 230.155232 
L 241.8255 227.774015 
L 242.0735 233.879905 
L 242.3215 225.508774 
L 242.5695 234.183296 
L 242.8175 227.720372 
L 243.0655 234.720825 
L 243.3135 220.37412 
L 243.8095 222.924589 
L 244.0575 220.092296 
L 244.3055 224.033857 
L 244.5535 218.660284 
L 245.0495 232.756343 
L 245.2975 230.349422 
L 245.5455 229.611684 
L 245.7935 221.732709 
L 246.0415 221.078784 
L 246.2895 257.301597 
L 246.5375 228.061158 
L 246.7855 227.538359 
L 247.0335 218.302359 
L 247.2815 226.006315 
L 247.5295 222.796254 
L 247.7775 221.785763 
L 248.0255 224.92265 
L 248.2735 222.82932 
L 248.5215 224.549715 
L 248.7695 222.823017 
L 249.0175 219.996306 
L 249.2655 228.073662 
L 249.7615 220.055631 
L 250.0095 237.123035 
L 250.2575 245.745104 
L 250.5055 221.520363 
L 250.7535 220.687376 
L 251.2495 212.691487 
L 251.4975 212.348345 
L 251.7455 229.017809 
L 251.9935 220.139068 
L 252.7375 210.972536 
L 252.9855 215.699742 
L 253.2335 215.903214 
L 253.4815 223.130262 
L 253.7295 210.77651 
L 253.9775 215.269134 
L 254.2255 216.340261 
L 254.4735 213.937173 
L 254.7215 223.798307 
L 254.9695 229.170626 
L 255.2175 213.104991 
L 255.4655 216.267537 
L 255.7135 210.251158 
L 255.9615 214.194949 
L 256.2095 208.316735 
L 256.7055 227.476368 
L 256.9535 209.970907 
L 257.2015 212.294046 
L 257.4495 217.861496 
L 257.6975 216.919575 
L 257.9455 211.041803 
L 258.1935 215.135502 
L 258.4415 211.684061 
L 258.6895 222.317096 
L 258.9375 242.098867 
L 259.1855 211.427166 
L 259.4335 215.912512 
L 259.6815 217.443903 
L 259.9295 222.417514 
L 260.1775 205.412799 
L 260.6735 218.294261 
L 260.9215 214.474326 
L 261.1695 207.770368 
L 261.4175 209.391857 
L 261.6655 206.778397 
L 261.9135 207.591219 
L 262.1615 210.024244 
L 262.6575 209.457889 
L 262.9055 214.198767 
L 263.1535 210.842943 
L 263.4015 238.837336 
L 263.6495 202.639099 
L 263.8975 202.849507 
L 264.1455 203.843828 
L 264.3935 202.823357 
L 264.6415 204.106771 
L 264.8895 211.736859 
L 265.1375 230.209833 
L 265.6335 202.713381 
L 265.8815 202.015529 
L 266.1295 207.54911 
L 266.3775 199.808188 
L 266.8735 225.865771 
L 267.1215 206.5577 
L 267.3695 202.451953 
L 267.6175 211.497151 
L 267.8655 203.178535 
L 268.1135 198.799652 
L 268.3615 200.886153 
L 268.6095 213.156352 
L 268.8575 213.640581 
L 269.1055 202.877534 
L 269.3535 210.737352 
L 269.6015 200.980685 
L 269.8495 208.02102 
L 270.0975 198.445237 
L 270.3455 208.809211 
L 270.5935 199.784422 
L 270.8415 200.236192 
L 271.0895 196.579821 
L 271.3375 204.746181 
L 271.5855 200.343972 
L 271.8335 200.145128 
L 272.0815 203.969157 
L 272.3295 198.62783 
L 272.5775 216.634518 
L 272.8255 198.476099 
L 273.0735 194.259267 
L 273.3215 195.084148 
L 273.5695 213.220117 
L 274.0655 201.920976 
L 274.3135 199.30907 
L 274.5615 193.110778 
L 274.8095 201.230414 
L 275.0575 204.751399 
L 275.3055 200.761693 
L 275.5535 199.996876 
L 275.8015 194.631068 
L 276.0495 199.142066 
L 276.2975 193.843958 
L 276.5455 194.941188 
L 276.7935 196.756428 
L 277.0415 193.381702 
L 277.2895 194.604247 
L 277.5375 193.278864 
L 277.7855 195.605326 
L 278.0335 190.241745 
L 278.2815 188.60615 
L 278.5295 193.365665 
L 278.7775 195.583565 
L 279.0255 190.200818 
L 279.2735 192.889206 
L 279.5215 193.127771 
L 279.7695 194.908055 
L 280.0175 215.901785 
L 280.2655 194.829363 
L 280.5135 197.871429 
L 280.7615 189.312421 
L 281.0095 188.484665 
L 281.5055 201.299916 
L 281.7535 188.499869 
L 282.0015 190.253498 
L 282.2495 186.083125 
L 282.4975 221.251623 
L 282.7455 186.832477 
L 282.9935 187.138606 
L 283.2415 193.472616 
L 283.4895 188.793363 
L 283.9855 188.248146 
L 284.2335 191.165968 
L 284.4815 199.289495 
L 284.7295 183.822382 
L 284.9775 190.279262 
L 285.2255 187.577929 
L 285.7215 194.509433 
L 285.9695 186.536019 
L 286.2175 195.979937 
L 286.4655 197.525549 
L 286.9615 185.548056 
L 287.2095 190.100492 
L 287.4575 183.418664 
L 287.9535 197.346773 
L 288.2015 185.076536 
L 288.4495 202.36561 
L 288.6975 180.691959 
L 288.9455 187.56809 
L 289.1935 180.623459 
L 289.4415 188.636952 
L 289.6895 182.423531 
L 289.9375 180.088692 
L 290.1855 184.565267 
L 290.4335 196.975214 
L 290.6815 179.104729 
L 290.9295 190.564183 
L 291.1775 178.464249 
L 291.6735 206.90051 
L 291.9215 181.086341 
L 292.1695 190.956978 
L 292.4175 177.547598 
L 292.6655 183.038216 
L 292.9135 177.436267 
L 293.1615 181.265574 
L 293.4095 180.271545 
L 293.6575 187.830001 
L 293.9055 179.241877 
L 294.1535 185.415203 
L 294.4015 177.159751 
L 294.6495 180.393649 
L 294.8975 190.898104 
L 295.1455 175.183018 
L 295.3935 174.830316 
L 295.6415 177.865432 
L 296.1375 190.210631 
L 296.3855 178.837985 
L 296.8815 174.776305 
L 297.1295 179.771325 
L 297.3775 180.419774 
L 297.6255 175.856601 
L 297.8735 178.940993 
L 298.1215 173.668832 
L 298.3695 179.343027 
L 298.8655 174.67534 
L 299.1135 182.809117 
L 299.3615 171.541806 
L 299.6095 175.701688 
L 299.8575 173.905446 
L 300.1055 170.666598 
L 300.3535 173.955026 
L 300.6015 174.637291 
L 300.8495 183.454573 
L 301.0975 178.137812 
L 301.3455 177.483325 
L 301.5935 168.070144 
L 301.8415 184.425456 
L 302.0895 171.075131 
L 302.3375 173.900013 
L 302.5855 171.831536 
L 303.0815 177.183111 
L 303.3295 166.60912 
L 303.8255 172.291976 
L 304.0735 170.564339 
L 304.3215 171.671946 
L 304.5695 168.169465 
L 304.8175 175.418982 
L 305.0655 171.656748 
L 305.3135 175.468853 
L 305.8095 164.192207 
L 306.3055 176.979636 
L 306.5535 220.599855 
L 306.8015 167.386275 
L 307.0495 166.459666 
L 307.2975 170.071104 
L 307.5455 162.586199 
L 307.7935 171.19708 
L 308.0415 167.069153 
L 308.2895 169.252885 
L 308.5375 165.427497 
L 308.7855 170.876099 
L 309.0335 165.375086 
L 309.2815 168.696915 
L 309.5295 169.521258 
L 309.7775 166.818505 
L 310.0255 168.883159 
L 310.2735 168.813813 
L 310.5215 173.902182 
L 311.2655 164.677089 
L 311.5135 160.087508 
L 311.7615 167.132977 
L 312.0095 162.894292 
L 312.2575 161.625543 
L 312.5055 168.519967 
L 313.0015 163.048608 
L 313.2495 163.734666 
L 313.4975 160.264863 
L 313.7455 158.861178 
L 313.9935 164.140409 
L 314.2415 165.533213 
L 314.4895 160.661642 
L 314.7375 167.262731 
L 315.2335 160.153241 
L 315.4815 165.701999 
L 315.7295 159.425252 
L 315.9775 162.358806 
L 316.2255 163.192974 
L 316.4735 159.530895 
L 316.7215 160.20837 
L 316.9695 152.975818 
L 317.2175 158.796008 
L 317.4655 161.122934 
L 317.7135 159.000842 
L 317.9615 160.670405 
L 318.4575 158.410077 
L 318.7055 168.949317 
L 318.9535 161.943605 
L 319.6975 154.695043 
L 319.9455 173.081326 
L 320.1935 169.968172 
L 320.4415 155.07419 
L 320.6895 154.918563 
L 320.9375 153.8798 
L 321.1855 163.176856 
L 321.4335 154.314951 
L 321.6815 153.710965 
L 321.9295 160.125378 
L 322.1775 157.712434 
L 322.4255 162.598467 
L 322.6735 154.644357 
L 322.9215 176.081432 
L 323.1695 157.904146 
L 323.4175 157.265152 
L 323.6655 157.041526 
L 324.1615 148.532661 
L 324.4095 156.187192 
L 324.6575 157.004989 
L 324.9055 156.822718 
L 325.1535 159.771982 
L 325.4015 150.90382 
L 325.8975 154.72033 
L 326.1455 151.247807 
L 326.3935 170.975865 
L 326.8895 154.777513 
L 327.1375 157.400643 
L 327.6335 147.537475 
L 327.8815 148.286285 
L 328.3775 154.599172 
L 328.6255 155.878212 
L 328.8735 161.301977 
L 329.1215 154.748495 
L 329.3695 162.835583 
L 329.6175 159.164539 
L 329.8655 150.361691 
L 330.1135 155.656217 
L 330.3615 149.058261 
L 330.6095 152.511634 
L 331.1055 148.106868 
L 331.3535 148.876808 
L 331.6015 148.187807 
L 331.8495 145.876173 
L 332.0975 157.366431 
L 332.3455 154.441188 
L 332.8415 142.391058 
L 333.0895 144.939305 
L 333.3375 152.55146 
L 333.5855 149.384765 
L 333.8335 147.89182 
L 334.0815 151.313952 
L 334.3295 158.361825 
L 334.5775 149.083385 
L 334.8255 149.76915 
L 335.0735 148.014838 
L 335.3215 144.382107 
L 335.5695 139.059528 
L 335.8175 152.908531 
L 336.0655 148.259819 
L 336.3135 150.475246 
L 336.5615 149.237075 
L 336.8095 143.944596 
L 337.0575 144.109134 
L 337.3055 148.60684 
L 337.5535 150.959689 
L 337.8015 146.255478 
L 338.0495 146.44657 
L 338.2975 144.656013 
L 338.5455 156.537341 
L 339.0415 142.447118 
L 339.2895 140.678113 
L 339.5375 141.825328 
L 339.7855 145.20961 
L 340.0335 137.899351 
L 340.2815 193.615999 
L 340.5295 137.578814 
L 340.7775 137.463975 
L 341.0255 141.311077 
L 341.2735 149.799014 
L 341.5215 153.888233 
L 341.7695 143.354257 
L 342.0175 139.209024 
L 342.2655 139.876694 
L 342.5135 150.600729 
L 342.7615 146.143454 
L 343.0095 151.32802 
L 343.2575 143.683632 
L 343.5055 144.130417 
L 343.7535 141.278637 
L 344.0015 168.811494 
L 344.2495 137.757275 
L 344.4975 136.080805 
L 344.7455 136.677059 
L 344.9935 140.699635 
L 345.2415 135.17394 
L 345.7375 146.738261 
L 345.9855 138.374678 
L 346.2335 144.491789 
L 346.4815 141.010957 
L 346.7295 143.7378 
L 346.9775 140.578813 
L 347.2255 132.474867 
L 347.4735 138.754259 
L 347.7215 137.477881 
L 347.9695 136.96976 
L 348.2175 138.568587 
L 348.7135 131.131794 
L 348.9615 143.913416 
L 349.2095 141.833102 
L 349.4575 131.123293 
L 349.7055 139.276494 
L 349.9535 130.790456 
L 350.2015 131.576703 
L 350.4495 133.533847 
L 350.6975 138.793567 
L 350.9455 132.802192 
L 351.1935 132.474058 
L 351.4415 137.614175 
L 351.6895 132.498345 
L 351.9375 132.929549 
L 352.4335 144.794937 
L 352.6815 132.891916 
L 352.9295 132.982704 
L 353.1775 182.670627 
L 353.4255 140.27507 
L 353.6735 135.034876 
L 354.1695 146.665587 
L 354.4175 139.400854 
L 354.6655 126.270627 
L 354.9135 136.130816 
L 355.1615 129.623005 
L 355.4095 130.59706 
L 355.6575 132.961083 
L 355.9055 131.844936 
L 356.1535 143.035039 
L 356.4015 131.183159 
L 356.6495 130.946994 
L 356.8975 133.421359 
L 357.1455 134.086639 
L 357.3935 125.711764 
L 357.6415 138.730974 
L 357.8895 127.550162 
L 358.1375 129.809354 
L 358.3855 126.123674 
L 358.6335 143.601044 
L 358.8815 126.044482 
L 359.1295 138.737294 
L 359.3775 129.6313 
L 359.6255 126.804774 
L 359.8735 131.548749 
L 360.1215 127.489119 
L 360.3695 131.865346 
L 360.6175 123.509007 
L 361.1135 130.171456 
L 361.6095 126.359356 
L 361.8575 128.935949 
L 362.1055 154.052647 
L 362.3535 126.372706 
L 362.6015 132.234952 
L 362.8495 128.675701 
L 363.0975 157.306773 
L 363.3455 120.92751 
L 363.5935 123.081139 
L 363.8415 130.025265 
L 364.0895 122.75927 
L 364.3375 122.099727 
L 364.5855 126.454764 
L 364.8335 119.660172 
L 365.0815 132.146279 
L 365.3295 122.397462 
L 365.5775 125.649847 
L 365.8255 131.974363 
L 366.0735 129.206622 
L 366.5695 114.437373 
L 367.0655 131.310199 
L 367.3135 128.042922 
L 367.5615 155.782275 
L 367.8095 117.306226 
L 368.0575 122.083601 
L 368.3055 136.653426 
L 368.5535 125.368401 
L 368.8015 120.197781 
L 369.0495 125.821709 
L 369.2975 117.464917 
L 369.5455 114.342757 
L 369.7935 116.668709 
L 370.0415 126.885082 
L 370.2895 126.494705 
L 370.5375 116.973233 
L 370.7855 120.8724 
L 371.0335 113.253897 
L 371.2815 119.496149 
L 371.5295 122.525939 
L 371.7775 134.708839 
L 372.0255 124.062494 
L 372.2735 122.254264 
L 372.5215 112.412508 
L 372.7695 117.792637 
L 373.0175 128.533638 
L 373.2655 115.025987 
L 373.5135 118.296104 
L 373.7615 123.325449 
L 374.0095 113.777184 
L 374.2575 135.444013 
L 374.5055 115.896927 
L 374.7535 126.744658 
L 375.0015 114.297969 
L 375.2495 119.565989 
L 375.4975 117.022779 
L 375.9935 118.571333 
L 376.2415 144.424512 
L 376.4895 119.620211 
L 376.7375 114.854855 
L 376.9855 129.823804 
L 377.2335 110.819224 
L 377.4815 125.290882 
L 377.7295 115.198598 
L 377.9775 116.72989 
L 378.2255 114.794355 
L 378.4735 109.58337 
L 378.7215 110.116899 
L 379.2175 124.612767 
L 379.4655 113.888536 
L 379.9615 110.76581 
L 380.2095 113.011766 
L 380.4575 116.765822 
L 380.7055 109.435485 
L 380.9535 137.918033 
L 381.2015 112.291938 
L 381.4495 107.465447 
L 381.6975 110.178644 
L 381.9455 111.070288 
L 382.1935 146.982542 
L 382.4415 109.79852 
L 382.6895 106.760792 
L 382.9375 110.891732 
L 383.1855 109.29268 
L 383.4335 115.73457 
L 383.6815 116.484922 
L 383.9295 106.08657 
L 384.1775 123.691061 
L 384.4255 108.673548 
L 384.6735 119.542501 
L 384.9215 108.911161 
L 385.1695 111.255013 
L 385.4175 111.141981 
L 385.6655 113.28082 
L 385.9135 106.490112 
L 386.1615 107.244893 
L 386.4095 106.900729 
L 386.6575 113.959933 
L 386.9055 102.630686 
L 387.1535 111.993536 
L 387.4015 105.463883 
L 387.6495 107.136323 
L 387.8975 111.403646 
L 388.8895 106.030587 
L 389.1375 111.746542 
L 389.3855 112.635821 
L 389.6335 100.739079 
L 389.8815 110.327905 
L 390.1295 111.421908 
L 390.3775 107.227765 
L 390.6255 114.677116 
L 390.8735 111.38628 
L 391.1215 104.492779 
L 391.3695 103.637119 
L 391.6175 104.335007 
L 391.8655 108.666152 
L 392.1135 106.319268 
L 392.6095 108.088143 
L 392.8575 103.475767 
L 393.1055 102.4655 
L 393.3535 107.746179 
L 393.6015 101.62362 
L 393.8495 106.280947 
L 394.0975 99.009783 
L 394.3455 106.953022 
L 394.5935 103.241227 
L 394.8415 113.193138 
L 395.0895 99.067911 
L 395.3375 112.34373 
L 395.5855 104.658798 
L 395.8335 107.001082 
L 396.0815 107.06533 
L 396.3295 106.191287 
L 396.5775 113.385753 
L 396.8255 94.418214 
L 397.0735 100.016412 
L 397.3215 98.215033 
L 397.5695 99.064813 
L 397.8175 100.336196 
L 398.0655 103.652395 
L 398.3135 109.519755 
L 398.5615 101.940207 
L 398.8095 98.840285 
L 399.0575 99.902918 
L 399.3055 101.868426 
L 399.5535 96.813344 
L 399.8015 111.024745 
L 400.0495 98.464833 
L 400.2975 100.423556 
L 400.5455 95.261998 
L 400.7935 96.746975 
L 401.0415 101.599643 
L 401.2895 96.782224 
L 401.5375 97.582898 
L 401.7855 110.413512 
L 402.0335 97.321102 
L 402.2815 96.737231 
L 402.5295 103.680928 
L 402.7775 99.825503 
L 403.0255 104.658174 
L 403.2735 97.012561 
L 403.5215 96.049927 
L 403.7695 95.605421 
L 404.0175 99.719192 
L 404.2655 92.325902 
L 404.5135 101.25684 
L 404.7615 100.209706 
L 405.0095 105.440863 
L 405.2575 94.297032 
L 405.5055 96.46864 
L 405.7535 93.34966 
L 406.0015 115.886036 
L 406.2495 89.595805 
L 406.4975 95.507097 
L 406.7455 90.954045 
L 406.9935 96.396111 
L 407.4895 92.745122 
L 407.7375 91.244179 
L 407.9855 98.909578 
L 408.2335 101.296895 
L 408.7295 94.743165 
L 408.9775 128.66542 
L 409.2255 97.32509 
L 409.4735 100.795604 
L 409.7215 97.975272 
L 409.9695 98.03597 
L 410.2175 93.1296 
L 410.4655 91.84596 
L 410.7135 91.864121 
L 410.9615 87.954675 
L 411.2095 93.327504 
L 411.4575 114.155534 
L 411.7055 95.940952 
L 411.9535 90.545728 
L 412.2015 95.681698 
L 412.4495 111.474127 
L 412.6975 93.997155 
L 412.9455 92.775196 
L 413.1935 97.390317 
L 413.4415 88.410429 
L 413.6895 103.949663 
L 413.9375 93.234113 
L 414.1855 97.603033 
L 414.6815 88.138973 
L 414.9295 90.413622 
L 415.1775 98.283835 
L 415.4255 96.920397 
L 415.9215 87.486523 
L 416.1695 88.381193 
L 416.4175 90.937988 
L 416.6655 85.370649 
L 416.9135 95.438228 
L 417.1615 92.115963 
L 417.4095 90.441302 
L 417.6575 87.073192 
L 417.9055 95.7803 
L 418.1535 87.283007 
L 418.4015 87.632538 
L 418.6495 88.237892 
L 419.1455 82.223807 
L 419.3935 88.423184 
L 419.6415 87.647517 
L 419.8895 85.722062 
L 420.1375 86.567374 
L 420.3855 83.670827 
L 420.6335 85.21955 
L 420.8815 85.381547 
L 421.1295 78.949899 
L 421.3775 81.87487 
L 421.6255 82.712945 
L 421.8735 94.101016 
L 422.1215 86.207689 
L 422.3695 89.86455 
L 422.6175 82.208693 
L 422.8655 84.710214 
L 423.1135 83.00562 
L 423.6095 98.445484 
L 423.8575 92.303112 
L 424.1055 81.210378 
L 424.3535 102.846096 
L 424.6015 89.089416 
L 424.8495 95.778921 
L 425.3455 80.606282 
L 425.5935 80.221061 
L 425.8415 82.129824 
L 426.0895 92.12892 
L 426.5855 81.110239 
L 426.8335 84.508928 
L 427.0815 84.292823 
L 427.3295 83.793174 
L 427.5775 102.93801 
L 427.8255 78.695187 
L 428.3215 85.251531 
L 428.5695 80.809781 
L 428.8175 79.245861 
L 429.3135 94.349096 
L 429.5615 92.926472 
L 429.8095 92.369205 
L 430.0575 93.737061 
L 430.5535 81.452518 
L 430.8015 91.951717 
L 431.0495 76.853892 
L 431.2975 100.55447 
L 431.5455 104.536079 
L 431.7935 83.147527 
L 432.0415 90.605387 
L 432.2895 80.113526 
L 432.5375 76.710881 
L 432.7855 82.614245 
L 433.0335 72.579392 
L 433.2815 109.159343 
L 433.5295 76.324009 
L 433.7775 81.988739 
L 434.0255 81.874503 
L 434.2735 74.282803 
L 434.5215 92.590935 
L 434.7695 73.813866 
L 435.0175 99.075976 
L 435.2655 74.576662 
L 435.5135 74.798471 
L 436.0095 82.00758 
L 436.2575 75.782265 
L 436.5055 77.742382 
L 436.7535 78.061402 
L 437.0015 77.009665 
L 437.2495 76.498032 
L 437.4975 85.690923 
L 437.9935 76.795826 
L 438.2415 75.805747 
L 438.4895 71.605186 
L 438.7375 81.611877 
L 438.9855 68.565393 
L 439.2335 73.71034 
L 439.4815 68.941896 
L 439.7295 75.175565 
L 439.9775 74.819939 
L 440.2255 90.106574 
L 440.4735 68.636344 
L 440.7215 75.48713 
L 440.9695 78.427448 
L 441.4655 73.02018 
L 441.7135 73.687958 
L 441.9615 66.875638 
L 442.2095 73.798674 
L 442.4575 76.016333 
L 442.7055 71.113117 
L 442.9535 68.879946 
L 443.2015 73.73045 
L 443.4495 71.642502 
L 443.6975 70.725093 
L 443.9455 68.841981 
L 444.1935 72.780594 
L 444.4415 69.149259 
L 444.6895 81.639519 
L 444.9375 67.473883 
L 445.1855 76.522778 
L 445.4335 68.4304 
L 445.6815 77.43322 
L 445.9295 73.235794 
L 446.1775 65.451155 
L 446.4255 69.528933 
L 446.6735 88.078017 
L 446.9215 67.650165 
L 447.1695 64.943037 
L 447.4175 64.812806 
L 447.6655 76.301183 
L 447.9135 75.616832 
L 448.1615 77.967041 
L 448.4095 68.911225 
L 448.6575 79.952557 
L 448.9055 64.779519 
L 449.1535 65.506894 
L 449.4015 71.716642 
L 449.6495 70.337963 
L 449.8975 76.499397 
L 450.1455 71.042844 
L 450.3935 74.713821 
L 450.6415 71.874662 
L 450.8895 63.720671 
L 451.1375 72.392108 
L 451.3855 61.861257 
L 451.6335 68.444272 
L 451.8815 65.320969 
L 452.1295 101.644519 
L 452.3775 75.142944 
L 452.6255 65.646372 
L 453.1215 69.874585 
L 453.3695 68.843062 
L 453.6175 66.759215 
L 453.8655 71.692242 
L 454.1135 66.180184 
L 454.3615 74.531798 
L 454.6095 72.407363 
L 454.8575 64.809569 
L 455.1055 64.796725 
L 455.3535 70.938788 
L 455.6015 60.242286 
L 455.8495 73.645753 
L 456.0975 65.530802 
L 456.3455 65.426305 
L 456.5935 66.707288 
L 456.8415 61.707329 
L 457.0895 61.227667 
L 457.3375 78.166393 
L 457.5855 64.204613 
L 457.8335 71.832418 
L 458.0815 69.160103 
L 458.5775 65.861781 
L 458.8255 66.045653 
L 459.0735 60.510277 
L 459.3215 58.666213 
L 459.5695 81.342016 
L 459.8175 61.535813 
L 460.0655 68.295028 
L 460.0655 68.295028 
" style="fill:none;stroke:#0000ff;stroke-linecap:square;stroke-width:0.5;"/>
   </g>
   <g id="patch_3">
    <path d="M 46.8975 368.74175 
L 493.2975 368.74175 
" style="fill:none;stroke:#000000;stroke-linecap:square;stroke-linejoin:miter;"/>
   </g>
   <g id="patch_4">
    <path d="M 46.8975 23.14175 
L 493.2975 23.14175 
" style="fill:none;stroke:#000000;stroke-linecap:square;stroke-linejoin:miter;"/>
   </g>
   <g id="patch_5">
    <path d="M 493.2975 368.74175 
L 493.2975 23.14175 
" style="fill:none;stroke:#000000;stroke-linecap:square;stroke-linejoin:miter;"/>
   </g>
   <g id="patch_6">
    <path d="M 46.8975 368.74175 
L 46.8975 23.14175 
" style="fill:none;stroke:#000000;stroke-linecap:square;stroke-linejoin:miter;"/>
   </g>
   <g id="matplotlib.axis_1">
    <g id="xtick_1">
     <g id="line2d_2">
      <defs>
       <path d="M 0 0 
L 0 -4 
" id="m5fed00c2da" style="stroke:#000000;stroke-width:0.5;"/>
      </defs>
      <g>
       <use style="stroke:#000000;stroke-width:0.5;" x="46.8975" xlink:href="#m5fed00c2da" y="368.74175"/>
      </g>
     </g>
     <g id="line2d_3">
      <defs>
       <path d="M 0 0 
L 0 4 
" id="m3521904a42" style="stroke:#000000;stroke-width:0.5;"/>
      </defs>
      <g>
       <use style="stroke:#000000;stroke-width:0.5;" x="46.8975" xlink:href="#m3521904a42" y="23.14175"/>
      </g>
     </g>
     <g id="text_1">
      <!-- 0 -->
      <defs>
       <path d="M 31.78125 66.40625 
Q 24.171875 66.40625 20.328125 58.90625 
Q 16.5 51.421875 16.5 36.375 
Q 16.5 21.390625 20.328125 13.890625 
Q 24.171875 6.390625 31.78125 6.390625 
Q 39.453125 6.390625 43.28125 13.890625 
Q 47.125 21.390625 47.125 36.375 
Q 47.125 51.421875 43.28125 58.90625 
Q 39.453125 66.40625 31.78125 66.40625 
M 31.78125 74.21875 
Q 44.046875 74.21875 50.515625 64.515625 
Q 56.984375 54.828125 56.984375 36.375 
Q 56.984375 17.96875 50.515625 8.265625 
Q 44.046875 -1.421875 31.78125 -1.421875 
Q 19.53125 -1.421875 13.0625 8.265625 
Q 6.59375 17.96875 6.59375 36.375 
Q 6.59375 54.828125 13.0625 64.515625 
Q 19.53125 74.21875 31.78125 74.21875 
" id="BitstreamVeraSans-Roman-30"/>
      </defs>
      <g transform="translate(43.08 381.859875)scale(0.12 -0.12)">
       <use xlink:href="#BitstreamVeraSans-Roman-30"/>
      </g>
     </g>
    </g>
    <g id="xtick_2">
     <g id="line2d_4">
      <g>
       <use style="stroke:#000000;stroke-width:0.5;" x="96.4975" xlink:href="#m5fed00c2da" y="368.74175"/>
      </g>
     </g>
     <g id="line2d_5">
      <g>
       <use style="stroke:#000000;stroke-width:0.5;" x="96.4975" xlink:href="#m3521904a42" y="23.14175"/>
      </g>
     </g>
     <g id="text_2">
      <!-- 200 -->
      <defs>
       <path d="M 19.1875 8.296875 
L 53.609375 8.296875 
L 53.609375 0 
L 7.328125 0 
L 7.328125 8.296875 
Q 12.9375 14.109375 22.625 23.890625 
Q 32.328125 33.6875 34.8125 36.53125 
Q 39.546875 41.84375 41.421875 45.53125 
Q 43.3125 49.21875 43.3125 52.78125 
Q 43.3125 58.59375 39.234375 62.25 
Q 35.15625 65.921875 28.609375 65.921875 
Q 23.96875 65.921875 18.8125 64.3125 
Q 13.671875 62.703125 7.8125 59.421875 
L 7.8125 69.390625 
Q 13.765625 71.78125 18.9375 73 
Q 24.125 74.21875 28.421875 74.21875 
Q 39.75 74.21875 46.484375 68.546875 
Q 53.21875 62.890625 53.21875 53.421875 
Q 53.21875 48.921875 51.53125 44.890625 
Q 49.859375 40.875 45.40625 35.40625 
Q 44.1875 33.984375 37.640625 27.21875 
Q 31.109375 20.453125 19.1875 8.296875 
" id="BitstreamVeraSans-Roman-32"/>
      </defs>
      <g transform="translate(85.045 381.859875)scale(0.12 -0.12)">
       <use xlink:href="#BitstreamVeraSans-Roman-32"/>
       <use x="63.623046875" xlink:href="#BitstreamVeraSans-Roman-30"/>
       <use x="127.24609375" xlink:href="#BitstreamVeraSans-Roman-30"/>
      </g>
     </g>
    </g>
    <g id="xtick_3">
     <g id="line2d_6">
      <g>
       <use style="stroke:#000000;stroke-width:0.5;" x="146.0975" xlink:href="#m5fed00c2da" y="368.74175"/>
      </g>
     </g>
     <g id="line2d_7">
      <g>
       <use style="stroke:#000000;stroke-width:0.5;" x="146.0975" xlink:href="#m3521904a42" y="23.14175"/>
      </g>
     </g>
     <g id="text_3">
      <!-- 400 -->
      <defs>
       <path d="M 37.796875 64.3125 
L 12.890625 25.390625 
L 37.796875 25.390625 
z
M 35.203125 72.90625 
L 47.609375 72.90625 
L 47.609375 25.390625 
L 58.015625 25.390625 
L 58.015625 17.1875 
L 47.609375 17.1875 
L 47.609375 0 
L 37.796875 0 
L 37.796875 17.1875 
L 4.890625 17.1875 
L 4.890625 26.703125 
z
" id="BitstreamVeraSans-Roman-34"/>
      </defs>
      <g transform="translate(134.645 381.859875)scale(0.12 -0.12)">
       <use xlink:href="#BitstreamVeraSans-Roman-34"/>
       <use x="63.623046875" xlink:href="#BitstreamVeraSans-Roman-30"/>
       <use x="127.24609375" xlink:href="#BitstreamVeraSans-Roman-30"/>
      </g>
     </g>
    </g>
    <g id="xtick_4">
     <g id="line2d_8">
      <g>
       <use style="stroke:#000000;stroke-width:0.5;" x="195.6975" xlink:href="#m5fed00c2da" y="368.74175"/>
      </g>
     </g>
     <g id="line2d_9">
      <g>
       <use style="stroke:#000000;stroke-width:0.5;" x="195.6975" xlink:href="#m3521904a42" y="23.14175"/>
      </g>
     </g>
     <g id="text_4">
      <!-- 600 -->
      <defs>
       <path d="M 33.015625 40.375 
Q 26.375 40.375 22.484375 35.828125 
Q 18.609375 31.296875 18.609375 23.390625 
Q 18.609375 15.53125 22.484375 10.953125 
Q 26.375 6.390625 33.015625 6.390625 
Q 39.65625 6.390625 43.53125 10.953125 
Q 47.40625 15.53125 47.40625 23.390625 
Q 47.40625 31.296875 43.53125 35.828125 
Q 39.65625 40.375 33.015625 40.375 
M 52.59375 71.296875 
L 52.59375 62.3125 
Q 48.875 64.0625 45.09375 64.984375 
Q 41.3125 65.921875 37.59375 65.921875 
Q 27.828125 65.921875 22.671875 59.328125 
Q 17.53125 52.734375 16.796875 39.40625 
Q 19.671875 43.65625 24.015625 45.921875 
Q 28.375 48.1875 33.59375 48.1875 
Q 44.578125 48.1875 50.953125 41.515625 
Q 57.328125 34.859375 57.328125 23.390625 
Q 57.328125 12.15625 50.6875 5.359375 
Q 44.046875 -1.421875 33.015625 -1.421875 
Q 20.359375 -1.421875 13.671875 8.265625 
Q 6.984375 17.96875 6.984375 36.375 
Q 6.984375 53.65625 15.1875 63.9375 
Q 23.390625 74.21875 37.203125 74.21875 
Q 40.921875 74.21875 44.703125 73.484375 
Q 48.484375 72.75 52.59375 71.296875 
" id="BitstreamVeraSans-Roman-36"/>
      </defs>
      <g transform="translate(184.245 381.859875)scale(0.12 -0.12)">
       <use xlink:href="#BitstreamVeraSans-Roman-36"/>
       <use x="63.623046875" xlink:href="#BitstreamVeraSans-Roman-30"/>
       <use x="127.24609375" xlink:href="#BitstreamVeraSans-Roman-30"/>
      </g>
     </g>
    </g>
    <g id="xtick_5">
     <g id="line2d_10">
      <g>
       <use style="stroke:#000000;stroke-width:0.5;" x="245.2975" xlink:href="#m5fed00c2da" y="368.74175"/>
      </g>
     </g>
     <g id="line2d_11">
      <g>
       <use style="stroke:#000000;stroke-width:0.5;" x="245.2975" xlink:href="#m3521904a42" y="23.14175"/>
      </g>
     </g>
     <g id="text_5">
      <!-- 800 -->
      <defs>
       <path d="M 31.78125 34.625 
Q 24.75 34.625 20.71875 30.859375 
Q 16.703125 27.09375 16.703125 20.515625 
Q 16.703125 13.921875 20.71875 10.15625 
Q 24.75 6.390625 31.78125 6.390625 
Q 38.8125 6.390625 42.859375 10.171875 
Q 46.921875 13.96875 46.921875 20.515625 
Q 46.921875 27.09375 42.890625 30.859375 
Q 38.875 34.625 31.78125 34.625 
M 21.921875 38.8125 
Q 15.578125 40.375 12.03125 44.71875 
Q 8.5 49.078125 8.5 55.328125 
Q 8.5 64.0625 14.71875 69.140625 
Q 20.953125 74.21875 31.78125 74.21875 
Q 42.671875 74.21875 48.875 69.140625 
Q 55.078125 64.0625 55.078125 55.328125 
Q 55.078125 49.078125 51.53125 44.71875 
Q 48 40.375 41.703125 38.8125 
Q 48.828125 37.15625 52.796875 32.3125 
Q 56.78125 27.484375 56.78125 20.515625 
Q 56.78125 9.90625 50.3125 4.234375 
Q 43.84375 -1.421875 31.78125 -1.421875 
Q 19.734375 -1.421875 13.25 4.234375 
Q 6.78125 9.90625 6.78125 20.515625 
Q 6.78125 27.484375 10.78125 32.3125 
Q 14.796875 37.15625 21.921875 38.8125 
M 18.3125 54.390625 
Q 18.3125 48.734375 21.84375 45.5625 
Q 25.390625 42.390625 31.78125 42.390625 
Q 38.140625 42.390625 41.71875 45.5625 
Q 45.3125 48.734375 45.3125 54.390625 
Q 45.3125 60.0625 41.71875 63.234375 
Q 38.140625 66.40625 31.78125 66.40625 
Q 25.390625 66.40625 21.84375 63.234375 
Q 18.3125 60.0625 18.3125 54.390625 
" id="BitstreamVeraSans-Roman-38"/>
      </defs>
      <g transform="translate(233.845 381.859875)scale(0.12 -0.12)">
       <use xlink:href="#BitstreamVeraSans-Roman-38"/>
       <use x="63.623046875" xlink:href="#BitstreamVeraSans-Roman-30"/>
       <use x="127.24609375" xlink:href="#BitstreamVeraSans-Roman-30"/>
      </g>
     </g>
    </g>
    <g id="xtick_6">
     <g id="line2d_12">
      <g>
       <use style="stroke:#000000;stroke-width:0.5;" x="294.8975" xlink:href="#m5fed00c2da" y="368.74175"/>
      </g>
     </g>
     <g id="line2d_13">
      <g>
       <use style="stroke:#000000;stroke-width:0.5;" x="294.8975" xlink:href="#m3521904a42" y="23.14175"/>
      </g>
     </g>
     <g id="text_6">
      <!-- 1000 -->
      <defs>
       <path d="M 12.40625 8.296875 
L 28.515625 8.296875 
L 28.515625 63.921875 
L 10.984375 60.40625 
L 10.984375 69.390625 
L 28.421875 72.90625 
L 38.28125 72.90625 
L 38.28125 8.296875 
L 54.390625 8.296875 
L 54.390625 0 
L 12.40625 0 
z
" id="BitstreamVeraSans-Roman-31"/>
      </defs>
      <g transform="translate(279.6275 381.859875)scale(0.12 -0.12)">
       <use xlink:href="#BitstreamVeraSans-Roman-31"/>
       <use x="63.623046875" xlink:href="#BitstreamVeraSans-Roman-30"/>
       <use x="127.24609375" xlink:href="#BitstreamVeraSans-Roman-30"/>
       <use x="190.869140625" xlink:href="#BitstreamVeraSans-Roman-30"/>
      </g>
     </g>
    </g>
    <g id="xtick_7">
     <g id="line2d_14">
      <g>
       <use style="stroke:#000000;stroke-width:0.5;" x="344.4975" xlink:href="#m5fed00c2da" y="368.74175"/>
      </g>
     </g>
     <g id="line2d_15">
      <g>
       <use style="stroke:#000000;stroke-width:0.5;" x="344.4975" xlink:href="#m3521904a42" y="23.14175"/>
      </g>
     </g>
     <g id="text_7">
      <!-- 1200 -->
      <g transform="translate(329.2275 381.859875)scale(0.12 -0.12)">
       <use xlink:href="#BitstreamVeraSans-Roman-31"/>
       <use x="63.623046875" xlink:href="#BitstreamVeraSans-Roman-32"/>
       <use x="127.24609375" xlink:href="#BitstreamVeraSans-Roman-30"/>
       <use x="190.869140625" xlink:href="#BitstreamVeraSans-Roman-30"/>
      </g>
     </g>
    </g>
    <g id="xtick_8">
     <g id="line2d_16">
      <g>
       <use style="stroke:#000000;stroke-width:0.5;" x="394.0975" xlink:href="#m5fed00c2da" y="368.74175"/>
      </g>
     </g>
     <g id="line2d_17">
      <g>
       <use style="stroke:#000000;stroke-width:0.5;" x="394.0975" xlink:href="#m3521904a42" y="23.14175"/>
      </g>
     </g>
     <g id="text_8">
      <!-- 1400 -->
      <g transform="translate(378.8275 381.859875)scale(0.12 -0.12)">
       <use xlink:href="#BitstreamVeraSans-Roman-31"/>
       <use x="63.623046875" xlink:href="#BitstreamVeraSans-Roman-34"/>
       <use x="127.24609375" xlink:href="#BitstreamVeraSans-Roman-30"/>
       <use x="190.869140625" xlink:href="#BitstreamVeraSans-Roman-30"/>
      </g>
     </g>
    </g>
    <g id="xtick_9">
     <g id="line2d_18">
      <g>
       <use style="stroke:#000000;stroke-width:0.5;" x="443.6975" xlink:href="#m5fed00c2da" y="368.74175"/>
      </g>
     </g>
     <g id="line2d_19">
      <g>
       <use style="stroke:#000000;stroke-width:0.5;" x="443.6975" xlink:href="#m3521904a42" y="23.14175"/>
      </g>
     </g>
     <g id="text_9">
      <!-- 1600 -->
      <g transform="translate(428.4275 381.859875)scale(0.12 -0.12)">
       <use xlink:href="#BitstreamVeraSans-Roman-31"/>
       <use x="63.623046875" xlink:href="#BitstreamVeraSans-Roman-36"/>
       <use x="127.24609375" xlink:href="#BitstreamVeraSans-Roman-30"/>
       <use x="190.869140625" xlink:href="#BitstreamVeraSans-Roman-30"/>
      </g>
     </g>
    </g>
    <g id="xtick_10">
     <g id="line2d_20">
      <g>
       <use style="stroke:#000000;stroke-width:0.5;" x="493.2975" xlink:href="#m5fed00c2da" y="368.74175"/>
      </g>
     </g>
     <g id="line2d_21">
      <g>
       <use style="stroke:#000000;stroke-width:0.5;" x="493.2975" xlink:href="#m3521904a42" y="23.14175"/>
      </g>
     </g>
     <g id="text_10">
      <!-- 1800 -->
      <g transform="translate(478.0275 381.859875)scale(0.12 -0.12)">
       <use xlink:href="#BitstreamVeraSans-Roman-31"/>
       <use x="63.623046875" xlink:href="#BitstreamVeraSans-Roman-38"/>
       <use x="127.24609375" xlink:href="#BitstreamVeraSans-Roman-30"/>
       <use x="190.869140625" xlink:href="#BitstreamVeraSans-Roman-30"/>
      </g>
     </g>
    </g>
    <g id="text_11">
     <!-- episode -->
     <defs>
      <path d="M 56.203125 29.59375 
L 56.203125 25.203125 
L 14.890625 25.203125 
Q 15.484375 15.921875 20.484375 11.0625 
Q 25.484375 6.203125 34.421875 6.203125 
Q 39.59375 6.203125 44.453125 7.46875 
Q 49.3125 8.734375 54.109375 11.28125 
L 54.109375 2.78125 
Q 49.265625 0.734375 44.1875 -0.34375 
Q 39.109375 -1.421875 33.890625 -1.421875 
Q 20.796875 -1.421875 13.15625 6.1875 
Q 5.515625 13.8125 5.515625 26.8125 
Q 5.515625 40.234375 12.765625 48.109375 
Q 20.015625 56 32.328125 56 
Q 43.359375 56 49.78125 48.890625 
Q 56.203125 41.796875 56.203125 29.59375 
M 47.21875 32.234375 
Q 47.125 39.59375 43.09375 43.984375 
Q 39.0625 48.390625 32.421875 48.390625 
Q 24.90625 48.390625 20.390625 44.140625 
Q 15.875 39.890625 15.1875 32.171875 
z
" id="BitstreamVeraSans-Roman-65"/>
      <path d="M 45.40625 46.390625 
L 45.40625 75.984375 
L 54.390625 75.984375 
L 54.390625 0 
L 45.40625 0 
L 45.40625 8.203125 
Q 42.578125 3.328125 38.25 0.953125 
Q 33.9375 -1.421875 27.875 -1.421875 
Q 17.96875 -1.421875 11.734375 6.484375 
Q 5.515625 14.40625 5.515625 27.296875 
Q 5.515625 40.1875 11.734375 48.09375 
Q 17.96875 56 27.875 56 
Q 33.9375 56 38.25 53.625 
Q 42.578125 51.265625 45.40625 46.390625 
M 14.796875 27.296875 
Q 14.796875 17.390625 18.875 11.75 
Q 22.953125 6.109375 30.078125 6.109375 
Q 37.203125 6.109375 41.296875 11.75 
Q 45.40625 17.390625 45.40625 27.296875 
Q 45.40625 37.203125 41.296875 42.84375 
Q 37.203125 48.484375 30.078125 48.484375 
Q 22.953125 48.484375 18.875 42.84375 
Q 14.796875 37.203125 14.796875 27.296875 
" id="BitstreamVeraSans-Roman-64"/>
      <path d="M 9.421875 54.6875 
L 18.40625 54.6875 
L 18.40625 0 
L 9.421875 0 
z
M 9.421875 75.984375 
L 18.40625 75.984375 
L 18.40625 64.59375 
L 9.421875 64.59375 
z
" id="BitstreamVeraSans-Roman-69"/>
      <path d="M 44.28125 53.078125 
L 44.28125 44.578125 
Q 40.484375 46.53125 36.375 47.5 
Q 32.28125 48.484375 27.875 48.484375 
Q 21.1875 48.484375 17.84375 46.4375 
Q 14.5 44.390625 14.5 40.28125 
Q 14.5 37.15625 16.890625 35.375 
Q 19.28125 33.59375 26.515625 31.984375 
L 29.59375 31.296875 
Q 39.15625 29.25 43.1875 25.515625 
Q 47.21875 21.78125 47.21875 15.09375 
Q 47.21875 7.46875 41.1875 3.015625 
Q 35.15625 -1.421875 24.609375 -1.421875 
Q 20.21875 -1.421875 15.453125 -0.5625 
Q 10.6875 0.296875 5.421875 2 
L 5.421875 11.28125 
Q 10.40625 8.6875 15.234375 7.390625 
Q 20.0625 6.109375 24.8125 6.109375 
Q 31.15625 6.109375 34.5625 8.28125 
Q 37.984375 10.453125 37.984375 14.40625 
Q 37.984375 18.0625 35.515625 20.015625 
Q 33.0625 21.96875 24.703125 23.78125 
L 21.578125 24.515625 
Q 13.234375 26.265625 9.515625 29.90625 
Q 5.8125 33.546875 5.8125 39.890625 
Q 5.8125 47.609375 11.28125 51.796875 
Q 16.75 56 26.8125 56 
Q 31.78125 56 36.171875 55.265625 
Q 40.578125 54.546875 44.28125 53.078125 
" id="BitstreamVeraSans-Roman-73"/>
      <path d="M 18.109375 8.203125 
L 18.109375 -20.796875 
L 9.078125 -20.796875 
L 9.078125 54.6875 
L 18.109375 54.6875 
L 18.109375 46.390625 
Q 20.953125 51.265625 25.265625 53.625 
Q 29.59375 56 35.59375 56 
Q 45.5625 56 51.78125 48.09375 
Q 58.015625 40.1875 58.015625 27.296875 
Q 58.015625 14.40625 51.78125 6.484375 
Q 45.5625 -1.421875 35.59375 -1.421875 
Q 29.59375 -1.421875 25.265625 0.953125 
Q 20.953125 3.328125 18.109375 8.203125 
M 48.6875 27.296875 
Q 48.6875 37.203125 44.609375 42.84375 
Q 40.53125 48.484375 33.40625 48.484375 
Q 26.265625 48.484375 22.1875 42.84375 
Q 18.109375 37.203125 18.109375 27.296875 
Q 18.109375 17.390625 22.1875 11.75 
Q 26.265625 6.109375 33.40625 6.109375 
Q 40.53125 6.109375 44.609375 11.75 
Q 48.6875 17.390625 48.6875 27.296875 
" id="BitstreamVeraSans-Roman-70"/>
      <path d="M 30.609375 48.390625 
Q 23.390625 48.390625 19.1875 42.75 
Q 14.984375 37.109375 14.984375 27.296875 
Q 14.984375 17.484375 19.15625 11.84375 
Q 23.34375 6.203125 30.609375 6.203125 
Q 37.796875 6.203125 41.984375 11.859375 
Q 46.1875 17.53125 46.1875 27.296875 
Q 46.1875 37.015625 41.984375 42.703125 
Q 37.796875 48.390625 30.609375 48.390625 
M 30.609375 56 
Q 42.328125 56 49.015625 48.375 
Q 55.71875 40.765625 55.71875 27.296875 
Q 55.71875 13.875 49.015625 6.21875 
Q 42.328125 -1.421875 30.609375 -1.421875 
Q 18.84375 -1.421875 12.171875 6.21875 
Q 5.515625 13.875 5.515625 27.296875 
Q 5.515625 40.765625 12.171875 48.375 
Q 18.84375 56 30.609375 56 
" id="BitstreamVeraSans-Roman-6f"/>
     </defs>
     <g transform="translate(246.631875 398.473625)scale(0.12 -0.12)">
      <use xlink:href="#BitstreamVeraSans-Roman-65"/>
      <use x="61.5234375" xlink:href="#BitstreamVeraSans-Roman-70"/>
      <use x="125.0" xlink:href="#BitstreamVeraSans-Roman-69"/>
      <use x="152.783203125" xlink:href="#BitstreamVeraSans-Roman-73"/>
      <use x="204.8828125" xlink:href="#BitstreamVeraSans-Roman-6f"/>
      <use x="266.064453125" xlink:href="#BitstreamVeraSans-Roman-64"/>
      <use x="329.541015625" xlink:href="#BitstreamVeraSans-Roman-65"/>
     </g>
    </g>
   </g>
   <g id="matplotlib.axis_2">
    <g id="ytick_1">
     <g id="line2d_22">
      <defs>
       <path d="M 0 0 
L 4 0 
" id="m03e6ae358d" style="stroke:#000000;stroke-width:0.5;"/>
      </defs>
      <g>
       <use style="stroke:#000000;stroke-width:0.5;" x="46.8975" xlink:href="#m03e6ae358d" y="368.74175"/>
      </g>
     </g>
     <g id="line2d_23">
      <defs>
       <path d="M 0 0 
L -4 0 
" id="me988eb8d18" style="stroke:#000000;stroke-width:0.5;"/>
      </defs>
      <g>
       <use style="stroke:#000000;stroke-width:0.5;" x="493.2975" xlink:href="#me988eb8d18" y="368.74175"/>
      </g>
     </g>
     <g id="text_12">
      <!-- 0.0 -->
      <defs>
       <path d="M 10.6875 12.40625 
L 21 12.40625 
L 21 0 
L 10.6875 0 
z
" id="BitstreamVeraSans-Roman-2e"/>
      </defs>
      <g transform="translate(23.81375 372.053)scale(0.12 -0.12)">
       <use xlink:href="#BitstreamVeraSans-Roman-30"/>
       <use x="63.623046875" xlink:href="#BitstreamVeraSans-Roman-2e"/>
       <use x="95.41015625" xlink:href="#BitstreamVeraSans-Roman-30"/>
      </g>
     </g>
    </g>
    <g id="ytick_2">
     <g id="line2d_24">
      <g>
       <use style="stroke:#000000;stroke-width:0.5;" x="46.8975" xlink:href="#m03e6ae358d" y="299.62175"/>
      </g>
     </g>
     <g id="line2d_25">
      <g>
       <use style="stroke:#000000;stroke-width:0.5;" x="493.2975" xlink:href="#me988eb8d18" y="299.62175"/>
      </g>
     </g>
     <g id="text_13">
      <!-- 0.5 -->
      <defs>
       <path d="M 10.796875 72.90625 
L 49.515625 72.90625 
L 49.515625 64.59375 
L 19.828125 64.59375 
L 19.828125 46.734375 
Q 21.96875 47.46875 24.109375 47.828125 
Q 26.265625 48.1875 28.421875 48.1875 
Q 40.625 48.1875 47.75 41.5 
Q 54.890625 34.8125 54.890625 23.390625 
Q 54.890625 11.625 47.5625 5.09375 
Q 40.234375 -1.421875 26.90625 -1.421875 
Q 22.3125 -1.421875 17.546875 -0.640625 
Q 12.796875 0.140625 7.71875 1.703125 
L 7.71875 11.625 
Q 12.109375 9.234375 16.796875 8.0625 
Q 21.484375 6.890625 26.703125 6.890625 
Q 35.15625 6.890625 40.078125 11.328125 
Q 45.015625 15.765625 45.015625 23.390625 
Q 45.015625 31 40.078125 35.4375 
Q 35.15625 39.890625 26.703125 39.890625 
Q 22.75 39.890625 18.8125 39.015625 
Q 14.890625 38.140625 10.796875 36.28125 
z
" id="BitstreamVeraSans-Roman-35"/>
      </defs>
      <g transform="translate(23.81375 302.933)scale(0.12 -0.12)">
       <use xlink:href="#BitstreamVeraSans-Roman-30"/>
       <use x="63.623046875" xlink:href="#BitstreamVeraSans-Roman-2e"/>
       <use x="95.41015625" xlink:href="#BitstreamVeraSans-Roman-35"/>
      </g>
     </g>
    </g>
    <g id="ytick_3">
     <g id="line2d_26">
      <g>
       <use style="stroke:#000000;stroke-width:0.5;" x="46.8975" xlink:href="#m03e6ae358d" y="230.50175"/>
      </g>
     </g>
     <g id="line2d_27">
      <g>
       <use style="stroke:#000000;stroke-width:0.5;" x="493.2975" xlink:href="#me988eb8d18" y="230.50175"/>
      </g>
     </g>
     <g id="text_14">
      <!-- 1.0 -->
      <g transform="translate(23.81375 233.813)scale(0.12 -0.12)">
       <use xlink:href="#BitstreamVeraSans-Roman-31"/>
       <use x="63.623046875" xlink:href="#BitstreamVeraSans-Roman-2e"/>
       <use x="95.41015625" xlink:href="#BitstreamVeraSans-Roman-30"/>
      </g>
     </g>
    </g>
    <g id="ytick_4">
     <g id="line2d_28">
      <g>
       <use style="stroke:#000000;stroke-width:0.5;" x="46.8975" xlink:href="#m03e6ae358d" y="161.38175"/>
      </g>
     </g>
     <g id="line2d_29">
      <g>
       <use style="stroke:#000000;stroke-width:0.5;" x="493.2975" xlink:href="#me988eb8d18" y="161.38175"/>
      </g>
     </g>
     <g id="text_15">
      <!-- 1.5 -->
      <g transform="translate(23.81375 164.693)scale(0.12 -0.12)">
       <use xlink:href="#BitstreamVeraSans-Roman-31"/>
       <use x="63.623046875" xlink:href="#BitstreamVeraSans-Roman-2e"/>
       <use x="95.41015625" xlink:href="#BitstreamVeraSans-Roman-35"/>
      </g>
     </g>
    </g>
    <g id="ytick_5">
     <g id="line2d_30">
      <g>
       <use style="stroke:#000000;stroke-width:0.5;" x="46.8975" xlink:href="#m03e6ae358d" y="92.26175"/>
      </g>
     </g>
     <g id="line2d_31">
      <g>
       <use style="stroke:#000000;stroke-width:0.5;" x="493.2975" xlink:href="#me988eb8d18" y="92.26175"/>
      </g>
     </g>
     <g id="text_16">
      <!-- 2.0 -->
      <g transform="translate(23.81375 95.573)scale(0.12 -0.12)">
       <use xlink:href="#BitstreamVeraSans-Roman-32"/>
       <use x="63.623046875" xlink:href="#BitstreamVeraSans-Roman-2e"/>
       <use x="95.41015625" xlink:href="#BitstreamVeraSans-Roman-30"/>
      </g>
     </g>
    </g>
    <g id="ytick_6">
     <g id="line2d_32">
      <g>
       <use style="stroke:#000000;stroke-width:0.5;" x="46.8975" xlink:href="#m03e6ae358d" y="23.14175"/>
      </g>
     </g>
     <g id="line2d_33">
      <g>
       <use style="stroke:#000000;stroke-width:0.5;" x="493.2975" xlink:href="#me988eb8d18" y="23.14175"/>
      </g>
     </g>
     <g id="text_17">
      <!-- 2.5 -->
      <g transform="translate(23.81375 26.453)scale(0.12 -0.12)">
       <use xlink:href="#BitstreamVeraSans-Roman-32"/>
       <use x="63.623046875" xlink:href="#BitstreamVeraSans-Roman-2e"/>
       <use x="95.41015625" xlink:href="#BitstreamVeraSans-Roman-35"/>
      </g>
     </g>
    </g>
    <g id="text_18">
     <!-- average maxQ -->
     <defs>
      <path d="M 2.984375 54.6875 
L 12.5 54.6875 
L 29.59375 8.796875 
L 46.6875 54.6875 
L 56.203125 54.6875 
L 35.6875 0 
L 23.484375 0 
z
" id="BitstreamVeraSans-Roman-76"/>
      <path id="BitstreamVeraSans-Roman-20"/>
      <path d="M 39.40625 66.21875 
Q 28.65625 66.21875 22.328125 58.203125 
Q 16.015625 50.203125 16.015625 36.375 
Q 16.015625 22.609375 22.328125 14.59375 
Q 28.65625 6.59375 39.40625 6.59375 
Q 50.140625 6.59375 56.421875 14.59375 
Q 62.703125 22.609375 62.703125 36.375 
Q 62.703125 50.203125 56.421875 58.203125 
Q 50.140625 66.21875 39.40625 66.21875 
M 53.21875 1.3125 
L 66.21875 -12.890625 
L 54.296875 -12.890625 
L 43.5 -1.21875 
Q 41.890625 -1.3125 41.03125 -1.359375 
Q 40.1875 -1.421875 39.40625 -1.421875 
Q 24.03125 -1.421875 14.8125 8.859375 
Q 5.609375 19.140625 5.609375 36.375 
Q 5.609375 53.65625 14.8125 63.9375 
Q 24.03125 74.21875 39.40625 74.21875 
Q 54.734375 74.21875 63.90625 63.9375 
Q 73.09375 53.65625 73.09375 36.375 
Q 73.09375 23.6875 67.984375 14.640625 
Q 62.890625 5.609375 53.21875 1.3125 
" id="BitstreamVeraSans-Roman-51"/>
      <path d="M 54.890625 54.6875 
L 35.109375 28.078125 
L 55.90625 0 
L 45.3125 0 
L 29.390625 21.484375 
L 13.484375 0 
L 2.875 0 
L 24.125 28.609375 
L 4.6875 54.6875 
L 15.28125 54.6875 
L 29.78125 35.203125 
L 44.28125 54.6875 
z
" id="BitstreamVeraSans-Roman-78"/>
      <path d="M 45.40625 27.984375 
Q 45.40625 37.75 41.375 43.109375 
Q 37.359375 48.484375 30.078125 48.484375 
Q 22.859375 48.484375 18.828125 43.109375 
Q 14.796875 37.75 14.796875 27.984375 
Q 14.796875 18.265625 18.828125 12.890625 
Q 22.859375 7.515625 30.078125 7.515625 
Q 37.359375 7.515625 41.375 12.890625 
Q 45.40625 18.265625 45.40625 27.984375 
M 54.390625 6.78125 
Q 54.390625 -7.171875 48.1875 -13.984375 
Q 42 -20.796875 29.203125 -20.796875 
Q 24.46875 -20.796875 20.265625 -20.09375 
Q 16.0625 -19.390625 12.109375 -17.921875 
L 12.109375 -9.1875 
Q 16.0625 -11.328125 19.921875 -12.34375 
Q 23.78125 -13.375 27.78125 -13.375 
Q 36.625 -13.375 41.015625 -8.765625 
Q 45.40625 -4.15625 45.40625 5.171875 
L 45.40625 9.625 
Q 42.625 4.78125 38.28125 2.390625 
Q 33.9375 0 27.875 0 
Q 17.828125 0 11.671875 7.65625 
Q 5.515625 15.328125 5.515625 27.984375 
Q 5.515625 40.671875 11.671875 48.328125 
Q 17.828125 56 27.875 56 
Q 33.9375 56 38.28125 53.609375 
Q 42.625 51.21875 45.40625 46.390625 
L 45.40625 54.6875 
L 54.390625 54.6875 
z
" id="BitstreamVeraSans-Roman-67"/>
      <path d="M 34.28125 27.484375 
Q 23.390625 27.484375 19.1875 25 
Q 14.984375 22.515625 14.984375 16.5 
Q 14.984375 11.71875 18.140625 8.90625 
Q 21.296875 6.109375 26.703125 6.109375 
Q 34.1875 6.109375 38.703125 11.40625 
Q 43.21875 16.703125 43.21875 25.484375 
L 43.21875 27.484375 
z
M 52.203125 31.203125 
L 52.203125 0 
L 43.21875 0 
L 43.21875 8.296875 
Q 40.140625 3.328125 35.546875 0.953125 
Q 30.953125 -1.421875 24.3125 -1.421875 
Q 15.921875 -1.421875 10.953125 3.296875 
Q 6 8.015625 6 15.921875 
Q 6 25.140625 12.171875 29.828125 
Q 18.359375 34.515625 30.609375 34.515625 
L 43.21875 34.515625 
L 43.21875 35.40625 
Q 43.21875 41.609375 39.140625 45 
Q 35.0625 48.390625 27.6875 48.390625 
Q 23 48.390625 18.546875 47.265625 
Q 14.109375 46.140625 10.015625 43.890625 
L 10.015625 52.203125 
Q 14.9375 54.109375 19.578125 55.046875 
Q 24.21875 56 28.609375 56 
Q 40.484375 56 46.34375 49.84375 
Q 52.203125 43.703125 52.203125 31.203125 
" id="BitstreamVeraSans-Roman-61"/>
      <path d="M 52 44.1875 
Q 55.375 50.25 60.0625 53.125 
Q 64.75 56 71.09375 56 
Q 79.640625 56 84.28125 50.015625 
Q 88.921875 44.046875 88.921875 33.015625 
L 88.921875 0 
L 79.890625 0 
L 79.890625 32.71875 
Q 79.890625 40.578125 77.09375 44.375 
Q 74.3125 48.1875 68.609375 48.1875 
Q 61.625 48.1875 57.5625 43.546875 
Q 53.515625 38.921875 53.515625 30.90625 
L 53.515625 0 
L 44.484375 0 
L 44.484375 32.71875 
Q 44.484375 40.625 41.703125 44.40625 
Q 38.921875 48.1875 33.109375 48.1875 
Q 26.21875 48.1875 22.15625 43.53125 
Q 18.109375 38.875 18.109375 30.90625 
L 18.109375 0 
L 9.078125 0 
L 9.078125 54.6875 
L 18.109375 54.6875 
L 18.109375 46.1875 
Q 21.1875 51.21875 25.484375 53.609375 
Q 29.78125 56 35.6875 56 
Q 41.65625 56 45.828125 52.96875 
Q 50 49.953125 52 44.1875 
" id="BitstreamVeraSans-Roman-6d"/>
      <path d="M 41.109375 46.296875 
Q 39.59375 47.171875 37.8125 47.578125 
Q 36.03125 48 33.890625 48 
Q 26.265625 48 22.1875 43.046875 
Q 18.109375 38.09375 18.109375 28.8125 
L 18.109375 0 
L 9.078125 0 
L 9.078125 54.6875 
L 18.109375 54.6875 
L 18.109375 46.1875 
Q 20.953125 51.171875 25.484375 53.578125 
Q 30.03125 56 36.53125 56 
Q 37.453125 56 38.578125 55.875 
Q 39.703125 55.765625 41.0625 55.515625 
z
" id="BitstreamVeraSans-Roman-72"/>
     </defs>
     <g transform="translate(16.318125 240.208625)rotate(-90.0)scale(0.12 -0.12)">
      <use xlink:href="#BitstreamVeraSans-Roman-61"/>
      <use x="61.279296875" xlink:href="#BitstreamVeraSans-Roman-76"/>
      <use x="120.458984375" xlink:href="#BitstreamVeraSans-Roman-65"/>
      <use x="181.982421875" xlink:href="#BitstreamVeraSans-Roman-72"/>
      <use x="223.095703125" xlink:href="#BitstreamVeraSans-Roman-61"/>
      <use x="284.375" xlink:href="#BitstreamVeraSans-Roman-67"/>
      <use x="347.8515625" xlink:href="#BitstreamVeraSans-Roman-65"/>
      <use x="409.375" xlink:href="#BitstreamVeraSans-Roman-20"/>
      <use x="441.162109375" xlink:href="#BitstreamVeraSans-Roman-6d"/>
      <use x="538.57421875" xlink:href="#BitstreamVeraSans-Roman-61"/>
      <use x="599.853515625" xlink:href="#BitstreamVeraSans-Roman-78"/>
      <use x="659.033203125" xlink:href="#BitstreamVeraSans-Roman-51"/>
     </g>
    </g>
   </g>
   <g id="text_19">
    <!-- Average maxQ per episode, joint3 -->
    <defs>
     <path d="M 11.71875 12.40625 
L 22.015625 12.40625 
L 22.015625 4 
L 14.015625 -11.625 
L 7.71875 -11.625 
L 11.71875 4 
z
" id="BitstreamVeraSans-Roman-2c"/>
     <path d="M 9.421875 54.6875 
L 18.40625 54.6875 
L 18.40625 -0.984375 
Q 18.40625 -11.421875 14.421875 -16.109375 
Q 10.453125 -20.796875 1.609375 -20.796875 
L -1.8125 -20.796875 
L -1.8125 -13.1875 
L 0.59375 -13.1875 
Q 5.71875 -13.1875 7.5625 -10.8125 
Q 9.421875 -8.453125 9.421875 -0.984375 
z
M 9.421875 75.984375 
L 18.40625 75.984375 
L 18.40625 64.59375 
L 9.421875 64.59375 
z
" id="BitstreamVeraSans-Roman-6a"/>
     <path d="M 34.1875 63.1875 
L 20.796875 26.90625 
L 47.609375 26.90625 
z
M 28.609375 72.90625 
L 39.796875 72.90625 
L 67.578125 0 
L 57.328125 0 
L 50.6875 18.703125 
L 17.828125 18.703125 
L 11.1875 0 
L 0.78125 0 
z
" id="BitstreamVeraSans-Roman-41"/>
     <path d="M 54.890625 33.015625 
L 54.890625 0 
L 45.90625 0 
L 45.90625 32.71875 
Q 45.90625 40.484375 42.875 44.328125 
Q 39.84375 48.1875 33.796875 48.1875 
Q 26.515625 48.1875 22.3125 43.546875 
Q 18.109375 38.921875 18.109375 30.90625 
L 18.109375 0 
L 9.078125 0 
L 9.078125 54.6875 
L 18.109375 54.6875 
L 18.109375 46.1875 
Q 21.34375 51.125 25.703125 53.5625 
Q 30.078125 56 35.796875 56 
Q 45.21875 56 50.046875 50.171875 
Q 54.890625 44.34375 54.890625 33.015625 
" id="BitstreamVeraSans-Roman-6e"/>
     <path d="M 18.3125 70.21875 
L 18.3125 54.6875 
L 36.8125 54.6875 
L 36.8125 47.703125 
L 18.3125 47.703125 
L 18.3125 18.015625 
Q 18.3125 11.328125 20.140625 9.421875 
Q 21.96875 7.515625 27.59375 7.515625 
L 36.8125 7.515625 
L 36.8125 0 
L 27.59375 0 
Q 17.1875 0 13.234375 3.875 
Q 9.28125 7.765625 9.28125 18.015625 
L 9.28125 47.703125 
L 2.6875 47.703125 
L 2.6875 54.6875 
L 9.28125 54.6875 
L 9.28125 70.21875 
z
" id="BitstreamVeraSans-Roman-74"/>
     <path d="M 40.578125 39.3125 
Q 47.65625 37.796875 51.625 33 
Q 55.609375 28.21875 55.609375 21.1875 
Q 55.609375 10.40625 48.1875 4.484375 
Q 40.765625 -1.421875 27.09375 -1.421875 
Q 22.515625 -1.421875 17.65625 -0.515625 
Q 12.796875 0.390625 7.625 2.203125 
L 7.625 11.71875 
Q 11.71875 9.328125 16.59375 8.109375 
Q 21.484375 6.890625 26.8125 6.890625 
Q 36.078125 6.890625 40.9375 10.546875 
Q 45.796875 14.203125 45.796875 21.1875 
Q 45.796875 27.640625 41.28125 31.265625 
Q 36.765625 34.90625 28.71875 34.90625 
L 20.21875 34.90625 
L 20.21875 43.015625 
L 29.109375 43.015625 
Q 36.375 43.015625 40.234375 45.921875 
Q 44.09375 48.828125 44.09375 54.296875 
Q 44.09375 59.90625 40.109375 62.90625 
Q 36.140625 65.921875 28.71875 65.921875 
Q 24.65625 65.921875 20.015625 65.03125 
Q 15.375 64.15625 9.8125 62.3125 
L 9.8125 71.09375 
Q 15.4375 72.65625 20.34375 73.4375 
Q 25.25 74.21875 29.59375 74.21875 
Q 40.828125 74.21875 47.359375 69.109375 
Q 53.90625 64.015625 53.90625 55.328125 
Q 53.90625 49.265625 50.4375 45.09375 
Q 46.96875 40.921875 40.578125 39.3125 
" id="BitstreamVeraSans-Roman-33"/>
    </defs>
    <g transform="translate(146.8245 18.14175)scale(0.144 -0.144)">
     <use xlink:href="#BitstreamVeraSans-Roman-41"/>
     <use x="68.330078125" xlink:href="#BitstreamVeraSans-Roman-76"/>
     <use x="127.509765625" xlink:href="#BitstreamVeraSans-Roman-65"/>
     <use x="189.033203125" xlink:href="#BitstreamVeraSans-Roman-72"/>
     <use x="230.146484375" xlink:href="#BitstreamVeraSans-Roman-61"/>
     <use x="291.42578125" xlink:href="#BitstreamVeraSans-Roman-67"/>
     <use x="354.90234375" xlink:href="#BitstreamVeraSans-Roman-65"/>
     <use x="416.42578125" xlink:href="#BitstreamVeraSans-Roman-20"/>
     <use x="448.212890625" xlink:href="#BitstreamVeraSans-Roman-6d"/>
     <use x="545.625" xlink:href="#BitstreamVeraSans-Roman-61"/>
     <use x="606.904296875" xlink:href="#BitstreamVeraSans-Roman-78"/>
     <use x="666.083984375" xlink:href="#BitstreamVeraSans-Roman-51"/>
     <use x="744.794921875" xlink:href="#BitstreamVeraSans-Roman-20"/>
     <use x="776.58203125" xlink:href="#BitstreamVeraSans-Roman-70"/>
     <use x="840.05859375" xlink:href="#BitstreamVeraSans-Roman-65"/>
     <use x="901.58203125" xlink:href="#BitstreamVeraSans-Roman-72"/>
     <use x="942.6953125" xlink:href="#BitstreamVeraSans-Roman-20"/>
     <use x="974.482421875" xlink:href="#BitstreamVeraSans-Roman-65"/>
     <use x="1036.005859375" xlink:href="#BitstreamVeraSans-Roman-70"/>
     <use x="1099.482421875" xlink:href="#BitstreamVeraSans-Roman-69"/>
     <use x="1127.265625" xlink:href="#BitstreamVeraSans-Roman-73"/>
     <use x="1179.365234375" xlink:href="#BitstreamVeraSans-Roman-6f"/>
     <use x="1240.546875" xlink:href="#BitstreamVeraSans-Roman-64"/>
     <use x="1304.0234375" xlink:href="#BitstreamVeraSans-Roman-65"/>
     <use x="1365.546875" xlink:href="#BitstreamVeraSans-Roman-2c"/>
     <use x="1397.333984375" xlink:href="#BitstreamVeraSans-Roman-20"/>
     <use x="1429.12109375" xlink:href="#BitstreamVeraSans-Roman-6a"/>
     <use x="1456.904296875" xlink:href="#BitstreamVeraSans-Roman-6f"/>
     <use x="1518.0859375" xlink:href="#BitstreamVeraSans-Roman-69"/>
     <use x="1545.869140625" xlink:href="#BitstreamVeraSans-Roman-6e"/>
     <use x="1609.248046875" xlink:href="#BitstreamVeraSans-Roman-74"/>
     <use x="1648.45703125" xlink:href="#BitstreamVeraSans-Roman-33"/>
    </g>
   </g>
  </g>
 </g>
 <defs>
  <clipPath id="pb09b485c97">
   <rect height="345.6" width="446.4" x="46.8975" y="23.14175"/>
  </clipPath>
 </defs>
</svg>
