<?xml version="1.0" encoding="utf-8" standalone="no"?>
<!DOCTYPE svg PUBLIC "-//W3C//DTD SVG 1.1//EN"
  "http://www.w3.org/Graphics/SVG/1.1/DTD/svg11.dtd">
<!-- Created with matplotlib (http://matplotlib.org/) -->
<svg height="325pt" version="1.1" viewBox="0 0 411 325" width="411pt" xmlns="http://www.w3.org/2000/svg" xmlns:xlink="http://www.w3.org/1999/xlink">
 <defs>
  <style type="text/css">
*{stroke-linecap:butt;stroke-linejoin:round;}
  </style>
 </defs>
 <g id="figure_1">
  <g id="patch_1">
   <path d="M 0 325.986375 
L 411.60125 325.986375 
L 411.60125 0 
L 0 0 
z
" style="fill:#ffffff;"/>
  </g>
  <g id="axes_1">
   <g id="patch_2">
    <path d="M 43.78125 288.430125 
L 400.90125 288.430125 
L 400.90125 22.318125 
L 43.78125 22.318125 
z
" style="fill:#ffffff;"/>
   </g>
   <g id="matplotlib.axis_1">
    <g id="xtick_1">
     <g id="line2d_1">
      <defs>
       <path d="M 0 0 
L 0 3.5 
" id="mb06a137065" style="stroke:#000000;stroke-width:0.8;"/>
      </defs>
      <g>
       <use style="stroke:#000000;stroke-width:0.8;" x="59.688998" xlink:href="#mb06a137065" y="288.430125"/>
      </g>
     </g>
     <g id="text_1">
      <!-- 0 -->
      <defs>
       <path d="M 31.78125 66.40625 
Q 24.171875 66.40625 20.328125 58.90625 
Q 16.5 51.421875 16.5 36.375 
Q 16.5 21.390625 20.328125 13.890625 
Q 24.171875 6.390625 31.78125 6.390625 
Q 39.453125 6.390625 43.28125 13.890625 
Q 47.125 21.390625 47.125 36.375 
Q 47.125 51.421875 43.28125 58.90625 
Q 39.453125 66.40625 31.78125 66.40625 
z
M 31.78125 74.21875 
Q 44.046875 74.21875 50.515625 64.515625 
Q 56.984375 54.828125 56.984375 36.375 
Q 56.984375 17.96875 50.515625 8.265625 
Q 44.046875 -1.421875 31.78125 -1.421875 
Q 19.53125 -1.421875 13.0625 8.265625 
Q 6.59375 17.96875 6.59375 36.375 
Q 6.59375 54.828125 13.0625 64.515625 
Q 19.53125 74.21875 31.78125 74.21875 
z
" id="DejaVuSans-30"/>
      </defs>
      <g transform="translate(56.507748 303.028562)scale(0.1 -0.1)">
       <use xlink:href="#DejaVuSans-30"/>
      </g>
     </g>
    </g>
    <g id="xtick_2">
     <g id="line2d_2">
      <g>
       <use style="stroke:#000000;stroke-width:0.8;" x="124.684903" xlink:href="#mb06a137065" y="288.430125"/>
      </g>
     </g>
     <g id="text_2">
      <!-- 200 -->
      <defs>
       <path d="M 19.1875 8.296875 
L 53.609375 8.296875 
L 53.609375 0 
L 7.328125 0 
L 7.328125 8.296875 
Q 12.9375 14.109375 22.625 23.890625 
Q 32.328125 33.6875 34.8125 36.53125 
Q 39.546875 41.84375 41.421875 45.53125 
Q 43.3125 49.21875 43.3125 52.78125 
Q 43.3125 58.59375 39.234375 62.25 
Q 35.15625 65.921875 28.609375 65.921875 
Q 23.96875 65.921875 18.8125 64.3125 
Q 13.671875 62.703125 7.8125 59.421875 
L 7.8125 69.390625 
Q 13.765625 71.78125 18.9375 73 
Q 24.125 74.21875 28.421875 74.21875 
Q 39.75 74.21875 46.484375 68.546875 
Q 53.21875 62.890625 53.21875 53.421875 
Q 53.21875 48.921875 51.53125 44.890625 
Q 49.859375 40.875 45.40625 35.40625 
Q 44.1875 33.984375 37.640625 27.21875 
Q 31.109375 20.453125 19.1875 8.296875 
z
" id="DejaVuSans-32"/>
      </defs>
      <g transform="translate(115.141153 303.028562)scale(0.1 -0.1)">
       <use xlink:href="#DejaVuSans-32"/>
       <use x="63.623047" xlink:href="#DejaVuSans-30"/>
       <use x="127.246094" xlink:href="#DejaVuSans-30"/>
      </g>
     </g>
    </g>
    <g id="xtick_3">
     <g id="line2d_3">
      <g>
       <use style="stroke:#000000;stroke-width:0.8;" x="189.680808" xlink:href="#mb06a137065" y="288.430125"/>
      </g>
     </g>
     <g id="text_3">
      <!-- 400 -->
      <defs>
       <path d="M 37.796875 64.3125 
L 12.890625 25.390625 
L 37.796875 25.390625 
z
M 35.203125 72.90625 
L 47.609375 72.90625 
L 47.609375 25.390625 
L 58.015625 25.390625 
L 58.015625 17.1875 
L 47.609375 17.1875 
L 47.609375 0 
L 37.796875 0 
L 37.796875 17.1875 
L 4.890625 17.1875 
L 4.890625 26.703125 
z
" id="DejaVuSans-34"/>
      </defs>
      <g transform="translate(180.137058 303.028562)scale(0.1 -0.1)">
       <use xlink:href="#DejaVuSans-34"/>
       <use x="63.623047" xlink:href="#DejaVuSans-30"/>
       <use x="127.246094" xlink:href="#DejaVuSans-30"/>
      </g>
     </g>
    </g>
    <g id="xtick_4">
     <g id="line2d_4">
      <g>
       <use style="stroke:#000000;stroke-width:0.8;" x="254.676713" xlink:href="#mb06a137065" y="288.430125"/>
      </g>
     </g>
     <g id="text_4">
      <!-- 600 -->
      <defs>
       <path d="M 33.015625 40.375 
Q 26.375 40.375 22.484375 35.828125 
Q 18.609375 31.296875 18.609375 23.390625 
Q 18.609375 15.53125 22.484375 10.953125 
Q 26.375 6.390625 33.015625 6.390625 
Q 39.65625 6.390625 43.53125 10.953125 
Q 47.40625 15.53125 47.40625 23.390625 
Q 47.40625 31.296875 43.53125 35.828125 
Q 39.65625 40.375 33.015625 40.375 
z
M 52.59375 71.296875 
L 52.59375 62.3125 
Q 48.875 64.0625 45.09375 64.984375 
Q 41.3125 65.921875 37.59375 65.921875 
Q 27.828125 65.921875 22.671875 59.328125 
Q 17.53125 52.734375 16.796875 39.40625 
Q 19.671875 43.65625 24.015625 45.921875 
Q 28.375 48.1875 33.59375 48.1875 
Q 44.578125 48.1875 50.953125 41.515625 
Q 57.328125 34.859375 57.328125 23.390625 
Q 57.328125 12.15625 50.6875 5.359375 
Q 44.046875 -1.421875 33.015625 -1.421875 
Q 20.359375 -1.421875 13.671875 8.265625 
Q 6.984375 17.96875 6.984375 36.375 
Q 6.984375 53.65625 15.1875 63.9375 
Q 23.390625 74.21875 37.203125 74.21875 
Q 40.921875 74.21875 44.703125 73.484375 
Q 48.484375 72.75 52.59375 71.296875 
z
" id="DejaVuSans-36"/>
      </defs>
      <g transform="translate(245.132963 303.028562)scale(0.1 -0.1)">
       <use xlink:href="#DejaVuSans-36"/>
       <use x="63.623047" xlink:href="#DejaVuSans-30"/>
       <use x="127.246094" xlink:href="#DejaVuSans-30"/>
      </g>
     </g>
    </g>
    <g id="xtick_5">
     <g id="line2d_5">
      <g>
       <use style="stroke:#000000;stroke-width:0.8;" x="319.672618" xlink:href="#mb06a137065" y="288.430125"/>
      </g>
     </g>
     <g id="text_5">
      <!-- 800 -->
      <defs>
       <path d="M 31.78125 34.625 
Q 24.75 34.625 20.71875 30.859375 
Q 16.703125 27.09375 16.703125 20.515625 
Q 16.703125 13.921875 20.71875 10.15625 
Q 24.75 6.390625 31.78125 6.390625 
Q 38.8125 6.390625 42.859375 10.171875 
Q 46.921875 13.96875 46.921875 20.515625 
Q 46.921875 27.09375 42.890625 30.859375 
Q 38.875 34.625 31.78125 34.625 
z
M 21.921875 38.8125 
Q 15.578125 40.375 12.03125 44.71875 
Q 8.5 49.078125 8.5 55.328125 
Q 8.5 64.0625 14.71875 69.140625 
Q 20.953125 74.21875 31.78125 74.21875 
Q 42.671875 74.21875 48.875 69.140625 
Q 55.078125 64.0625 55.078125 55.328125 
Q 55.078125 49.078125 51.53125 44.71875 
Q 48 40.375 41.703125 38.8125 
Q 48.828125 37.15625 52.796875 32.3125 
Q 56.78125 27.484375 56.78125 20.515625 
Q 56.78125 9.90625 50.3125 4.234375 
Q 43.84375 -1.421875 31.78125 -1.421875 
Q 19.734375 -1.421875 13.25 4.234375 
Q 6.78125 9.90625 6.78125 20.515625 
Q 6.78125 27.484375 10.78125 32.3125 
Q 14.796875 37.15625 21.921875 38.8125 
z
M 18.3125 54.390625 
Q 18.3125 48.734375 21.84375 45.5625 
Q 25.390625 42.390625 31.78125 42.390625 
Q 38.140625 42.390625 41.71875 45.5625 
Q 45.3125 48.734375 45.3125 54.390625 
Q 45.3125 60.0625 41.71875 63.234375 
Q 38.140625 66.40625 31.78125 66.40625 
Q 25.390625 66.40625 21.84375 63.234375 
Q 18.3125 60.0625 18.3125 54.390625 
z
" id="DejaVuSans-38"/>
      </defs>
      <g transform="translate(310.128868 303.028562)scale(0.1 -0.1)">
       <use xlink:href="#DejaVuSans-38"/>
       <use x="63.623047" xlink:href="#DejaVuSans-30"/>
       <use x="127.246094" xlink:href="#DejaVuSans-30"/>
      </g>
     </g>
    </g>
    <g id="xtick_6">
     <g id="line2d_6">
      <g>
       <use style="stroke:#000000;stroke-width:0.8;" x="384.668523" xlink:href="#mb06a137065" y="288.430125"/>
      </g>
     </g>
     <g id="text_6">
      <!-- 1000 -->
      <defs>
       <path d="M 12.40625 8.296875 
L 28.515625 8.296875 
L 28.515625 63.921875 
L 10.984375 60.40625 
L 10.984375 69.390625 
L 28.421875 72.90625 
L 38.28125 72.90625 
L 38.28125 8.296875 
L 54.390625 8.296875 
L 54.390625 0 
L 12.40625 0 
z
" id="DejaVuSans-31"/>
      </defs>
      <g transform="translate(371.943523 303.028562)scale(0.1 -0.1)">
       <use xlink:href="#DejaVuSans-31"/>
       <use x="63.623047" xlink:href="#DejaVuSans-30"/>
       <use x="127.246094" xlink:href="#DejaVuSans-30"/>
       <use x="190.869141" xlink:href="#DejaVuSans-30"/>
      </g>
     </g>
    </g>
    <g id="text_7">
     <!-- episode -->
     <defs>
      <path d="M 56.203125 29.59375 
L 56.203125 25.203125 
L 14.890625 25.203125 
Q 15.484375 15.921875 20.484375 11.0625 
Q 25.484375 6.203125 34.421875 6.203125 
Q 39.59375 6.203125 44.453125 7.46875 
Q 49.3125 8.734375 54.109375 11.28125 
L 54.109375 2.78125 
Q 49.265625 0.734375 44.1875 -0.34375 
Q 39.109375 -1.421875 33.890625 -1.421875 
Q 20.796875 -1.421875 13.15625 6.1875 
Q 5.515625 13.8125 5.515625 26.8125 
Q 5.515625 40.234375 12.765625 48.109375 
Q 20.015625 56 32.328125 56 
Q 43.359375 56 49.78125 48.890625 
Q 56.203125 41.796875 56.203125 29.59375 
z
M 47.21875 32.234375 
Q 47.125 39.59375 43.09375 43.984375 
Q 39.0625 48.390625 32.421875 48.390625 
Q 24.90625 48.390625 20.390625 44.140625 
Q 15.875 39.890625 15.1875 32.171875 
z
" id="DejaVuSans-65"/>
      <path d="M 18.109375 8.203125 
L 18.109375 -20.796875 
L 9.078125 -20.796875 
L 9.078125 54.6875 
L 18.109375 54.6875 
L 18.109375 46.390625 
Q 20.953125 51.265625 25.265625 53.625 
Q 29.59375 56 35.59375 56 
Q 45.5625 56 51.78125 48.09375 
Q 58.015625 40.1875 58.015625 27.296875 
Q 58.015625 14.40625 51.78125 6.484375 
Q 45.5625 -1.421875 35.59375 -1.421875 
Q 29.59375 -1.421875 25.265625 0.953125 
Q 20.953125 3.328125 18.109375 8.203125 
z
M 48.6875 27.296875 
Q 48.6875 37.203125 44.609375 42.84375 
Q 40.53125 48.484375 33.40625 48.484375 
Q 26.265625 48.484375 22.1875 42.84375 
Q 18.109375 37.203125 18.109375 27.296875 
Q 18.109375 17.390625 22.1875 11.75 
Q 26.265625 6.109375 33.40625 6.109375 
Q 40.53125 6.109375 44.609375 11.75 
Q 48.6875 17.390625 48.6875 27.296875 
z
" id="DejaVuSans-70"/>
      <path d="M 9.421875 54.6875 
L 18.40625 54.6875 
L 18.40625 0 
L 9.421875 0 
z
M 9.421875 75.984375 
L 18.40625 75.984375 
L 18.40625 64.59375 
L 9.421875 64.59375 
z
" id="DejaVuSans-69"/>
      <path d="M 44.28125 53.078125 
L 44.28125 44.578125 
Q 40.484375 46.53125 36.375 47.5 
Q 32.28125 48.484375 27.875 48.484375 
Q 21.1875 48.484375 17.84375 46.4375 
Q 14.5 44.390625 14.5 40.28125 
Q 14.5 37.15625 16.890625 35.375 
Q 19.28125 33.59375 26.515625 31.984375 
L 29.59375 31.296875 
Q 39.15625 29.25 43.1875 25.515625 
Q 47.21875 21.78125 47.21875 15.09375 
Q 47.21875 7.46875 41.1875 3.015625 
Q 35.15625 -1.421875 24.609375 -1.421875 
Q 20.21875 -1.421875 15.453125 -0.5625 
Q 10.6875 0.296875 5.421875 2 
L 5.421875 11.28125 
Q 10.40625 8.6875 15.234375 7.390625 
Q 20.0625 6.109375 24.8125 6.109375 
Q 31.15625 6.109375 34.5625 8.28125 
Q 37.984375 10.453125 37.984375 14.40625 
Q 37.984375 18.0625 35.515625 20.015625 
Q 33.0625 21.96875 24.703125 23.78125 
L 21.578125 24.515625 
Q 13.234375 26.265625 9.515625 29.90625 
Q 5.8125 33.546875 5.8125 39.890625 
Q 5.8125 47.609375 11.28125 51.796875 
Q 16.75 56 26.8125 56 
Q 31.78125 56 36.171875 55.265625 
Q 40.578125 54.546875 44.28125 53.078125 
z
" id="DejaVuSans-73"/>
      <path d="M 30.609375 48.390625 
Q 23.390625 48.390625 19.1875 42.75 
Q 14.984375 37.109375 14.984375 27.296875 
Q 14.984375 17.484375 19.15625 11.84375 
Q 23.34375 6.203125 30.609375 6.203125 
Q 37.796875 6.203125 41.984375 11.859375 
Q 46.1875 17.53125 46.1875 27.296875 
Q 46.1875 37.015625 41.984375 42.703125 
Q 37.796875 48.390625 30.609375 48.390625 
z
M 30.609375 56 
Q 42.328125 56 49.015625 48.375 
Q 55.71875 40.765625 55.71875 27.296875 
Q 55.71875 13.875 49.015625 6.21875 
Q 42.328125 -1.421875 30.609375 -1.421875 
Q 18.84375 -1.421875 12.171875 6.21875 
Q 5.515625 13.875 5.515625 27.296875 
Q 5.515625 40.765625 12.171875 48.375 
Q 18.84375 56 30.609375 56 
z
" id="DejaVuSans-6f"/>
      <path d="M 45.40625 46.390625 
L 45.40625 75.984375 
L 54.390625 75.984375 
L 54.390625 0 
L 45.40625 0 
L 45.40625 8.203125 
Q 42.578125 3.328125 38.25 0.953125 
Q 33.9375 -1.421875 27.875 -1.421875 
Q 17.96875 -1.421875 11.734375 6.484375 
Q 5.515625 14.40625 5.515625 27.296875 
Q 5.515625 40.1875 11.734375 48.09375 
Q 17.96875 56 27.875 56 
Q 33.9375 56 38.25 53.625 
Q 42.578125 51.265625 45.40625 46.390625 
z
M 14.796875 27.296875 
Q 14.796875 17.390625 18.875 11.75 
Q 22.953125 6.109375 30.078125 6.109375 
Q 37.203125 6.109375 41.296875 11.75 
Q 45.40625 17.390625 45.40625 27.296875 
Q 45.40625 37.203125 41.296875 42.84375 
Q 37.203125 48.484375 30.078125 48.484375 
Q 22.953125 48.484375 18.875 42.84375 
Q 14.796875 37.203125 14.796875 27.296875 
z
" id="DejaVuSans-64"/>
     </defs>
     <g transform="translate(202.786563 316.706687)scale(0.1 -0.1)">
      <use xlink:href="#DejaVuSans-65"/>
      <use x="61.523438" xlink:href="#DejaVuSans-70"/>
      <use x="125" xlink:href="#DejaVuSans-69"/>
      <use x="152.783203" xlink:href="#DejaVuSans-73"/>
      <use x="204.882812" xlink:href="#DejaVuSans-6f"/>
      <use x="266.064453" xlink:href="#DejaVuSans-64"/>
      <use x="329.541016" xlink:href="#DejaVuSans-65"/>
     </g>
    </g>
   </g>
   <g id="matplotlib.axis_2">
    <g id="ytick_1">
     <g id="line2d_7">
      <defs>
       <path d="M 0 0 
L -3.5 0 
" id="maec106e7ab" style="stroke:#000000;stroke-width:0.8;"/>
      </defs>
      <g>
       <use style="stroke:#000000;stroke-width:0.8;" x="43.78125" xlink:href="#maec106e7ab" y="276.334125"/>
      </g>
     </g>
     <g id="text_8">
      <!-- 0.0 -->
      <defs>
       <path d="M 10.6875 12.40625 
L 21 12.40625 
L 21 0 
L 10.6875 0 
z
" id="DejaVuSans-2e"/>
      </defs>
      <g transform="translate(20.878125 280.133344)scale(0.1 -0.1)">
       <use xlink:href="#DejaVuSans-30"/>
       <use x="63.623047" xlink:href="#DejaVuSans-2e"/>
       <use x="95.410156" xlink:href="#DejaVuSans-30"/>
      </g>
     </g>
    </g>
    <g id="ytick_2">
     <g id="line2d_8">
      <g>
       <use style="stroke:#000000;stroke-width:0.8;" x="43.78125" xlink:href="#maec106e7ab" y="245.207532"/>
      </g>
     </g>
     <g id="text_9">
      <!-- 0.2 -->
      <g transform="translate(20.878125 249.006751)scale(0.1 -0.1)">
       <use xlink:href="#DejaVuSans-30"/>
       <use x="63.623047" xlink:href="#DejaVuSans-2e"/>
       <use x="95.410156" xlink:href="#DejaVuSans-32"/>
      </g>
     </g>
    </g>
    <g id="ytick_3">
     <g id="line2d_9">
      <g>
       <use style="stroke:#000000;stroke-width:0.8;" x="43.78125" xlink:href="#maec106e7ab" y="214.080939"/>
      </g>
     </g>
     <g id="text_10">
      <!-- 0.4 -->
      <g transform="translate(20.878125 217.880157)scale(0.1 -0.1)">
       <use xlink:href="#DejaVuSans-30"/>
       <use x="63.623047" xlink:href="#DejaVuSans-2e"/>
       <use x="95.410156" xlink:href="#DejaVuSans-34"/>
      </g>
     </g>
    </g>
    <g id="ytick_4">
     <g id="line2d_10">
      <g>
       <use style="stroke:#000000;stroke-width:0.8;" x="43.78125" xlink:href="#maec106e7ab" y="182.954345"/>
      </g>
     </g>
     <g id="text_11">
      <!-- 0.6 -->
      <g transform="translate(20.878125 186.753564)scale(0.1 -0.1)">
       <use xlink:href="#DejaVuSans-30"/>
       <use x="63.623047" xlink:href="#DejaVuSans-2e"/>
       <use x="95.410156" xlink:href="#DejaVuSans-36"/>
      </g>
     </g>
    </g>
    <g id="ytick_5">
     <g id="line2d_11">
      <g>
       <use style="stroke:#000000;stroke-width:0.8;" x="43.78125" xlink:href="#maec106e7ab" y="151.827752"/>
      </g>
     </g>
     <g id="text_12">
      <!-- 0.8 -->
      <g transform="translate(20.878125 155.626971)scale(0.1 -0.1)">
       <use xlink:href="#DejaVuSans-30"/>
       <use x="63.623047" xlink:href="#DejaVuSans-2e"/>
       <use x="95.410156" xlink:href="#DejaVuSans-38"/>
      </g>
     </g>
    </g>
    <g id="ytick_6">
     <g id="line2d_12">
      <g>
       <use style="stroke:#000000;stroke-width:0.8;" x="43.78125" xlink:href="#maec106e7ab" y="120.701159"/>
      </g>
     </g>
     <g id="text_13">
      <!-- 1.0 -->
      <g transform="translate(20.878125 124.500378)scale(0.1 -0.1)">
       <use xlink:href="#DejaVuSans-31"/>
       <use x="63.623047" xlink:href="#DejaVuSans-2e"/>
       <use x="95.410156" xlink:href="#DejaVuSans-30"/>
      </g>
     </g>
    </g>
    <g id="ytick_7">
     <g id="line2d_13">
      <g>
       <use style="stroke:#000000;stroke-width:0.8;" x="43.78125" xlink:href="#maec106e7ab" y="89.574566"/>
      </g>
     </g>
     <g id="text_14">
      <!-- 1.2 -->
      <g transform="translate(20.878125 93.373785)scale(0.1 -0.1)">
       <use xlink:href="#DejaVuSans-31"/>
       <use x="63.623047" xlink:href="#DejaVuSans-2e"/>
       <use x="95.410156" xlink:href="#DejaVuSans-32"/>
      </g>
     </g>
    </g>
    <g id="ytick_8">
     <g id="line2d_14">
      <g>
       <use style="stroke:#000000;stroke-width:0.8;" x="43.78125" xlink:href="#maec106e7ab" y="58.447973"/>
      </g>
     </g>
     <g id="text_15">
      <!-- 1.4 -->
      <g transform="translate(20.878125 62.247191)scale(0.1 -0.1)">
       <use xlink:href="#DejaVuSans-31"/>
       <use x="63.623047" xlink:href="#DejaVuSans-2e"/>
       <use x="95.410156" xlink:href="#DejaVuSans-34"/>
      </g>
     </g>
    </g>
    <g id="ytick_9">
     <g id="line2d_15">
      <g>
       <use style="stroke:#000000;stroke-width:0.8;" x="43.78125" xlink:href="#maec106e7ab" y="27.321379"/>
      </g>
     </g>
     <g id="text_16">
      <!-- 1.6 -->
      <g transform="translate(20.878125 31.120598)scale(0.1 -0.1)">
       <use xlink:href="#DejaVuSans-31"/>
       <use x="63.623047" xlink:href="#DejaVuSans-2e"/>
       <use x="95.410156" xlink:href="#DejaVuSans-36"/>
      </g>
     </g>
    </g>
    <g id="text_17">
     <!-- average maxQ -->
     <defs>
      <path d="M 34.28125 27.484375 
Q 23.390625 27.484375 19.1875 25 
Q 14.984375 22.515625 14.984375 16.5 
Q 14.984375 11.71875 18.140625 8.90625 
Q 21.296875 6.109375 26.703125 6.109375 
Q 34.1875 6.109375 38.703125 11.40625 
Q 43.21875 16.703125 43.21875 25.484375 
L 43.21875 27.484375 
z
M 52.203125 31.203125 
L 52.203125 0 
L 43.21875 0 
L 43.21875 8.296875 
Q 40.140625 3.328125 35.546875 0.953125 
Q 30.953125 -1.421875 24.3125 -1.421875 
Q 15.921875 -1.421875 10.953125 3.296875 
Q 6 8.015625 6 15.921875 
Q 6 25.140625 12.171875 29.828125 
Q 18.359375 34.515625 30.609375 34.515625 
L 43.21875 34.515625 
L 43.21875 35.40625 
Q 43.21875 41.609375 39.140625 45 
Q 35.0625 48.390625 27.6875 48.390625 
Q 23 48.390625 18.546875 47.265625 
Q 14.109375 46.140625 10.015625 43.890625 
L 10.015625 52.203125 
Q 14.9375 54.109375 19.578125 55.046875 
Q 24.21875 56 28.609375 56 
Q 40.484375 56 46.34375 49.84375 
Q 52.203125 43.703125 52.203125 31.203125 
z
" id="DejaVuSans-61"/>
      <path d="M 2.984375 54.6875 
L 12.5 54.6875 
L 29.59375 8.796875 
L 46.6875 54.6875 
L 56.203125 54.6875 
L 35.6875 0 
L 23.484375 0 
z
" id="DejaVuSans-76"/>
      <path d="M 41.109375 46.296875 
Q 39.59375 47.171875 37.8125 47.578125 
Q 36.03125 48 33.890625 48 
Q 26.265625 48 22.1875 43.046875 
Q 18.109375 38.09375 18.109375 28.8125 
L 18.109375 0 
L 9.078125 0 
L 9.078125 54.6875 
L 18.109375 54.6875 
L 18.109375 46.1875 
Q 20.953125 51.171875 25.484375 53.578125 
Q 30.03125 56 36.53125 56 
Q 37.453125 56 38.578125 55.875 
Q 39.703125 55.765625 41.0625 55.515625 
z
" id="DejaVuSans-72"/>
      <path d="M 45.40625 27.984375 
Q 45.40625 37.75 41.375 43.109375 
Q 37.359375 48.484375 30.078125 48.484375 
Q 22.859375 48.484375 18.828125 43.109375 
Q 14.796875 37.75 14.796875 27.984375 
Q 14.796875 18.265625 18.828125 12.890625 
Q 22.859375 7.515625 30.078125 7.515625 
Q 37.359375 7.515625 41.375 12.890625 
Q 45.40625 18.265625 45.40625 27.984375 
z
M 54.390625 6.78125 
Q 54.390625 -7.171875 48.1875 -13.984375 
Q 42 -20.796875 29.203125 -20.796875 
Q 24.46875 -20.796875 20.265625 -20.09375 
Q 16.0625 -19.390625 12.109375 -17.921875 
L 12.109375 -9.1875 
Q 16.0625 -11.328125 19.921875 -12.34375 
Q 23.78125 -13.375 27.78125 -13.375 
Q 36.625 -13.375 41.015625 -8.765625 
Q 45.40625 -4.15625 45.40625 5.171875 
L 45.40625 9.625 
Q 42.625 4.78125 38.28125 2.390625 
Q 33.9375 0 27.875 0 
Q 17.828125 0 11.671875 7.65625 
Q 5.515625 15.328125 5.515625 27.984375 
Q 5.515625 40.671875 11.671875 48.328125 
Q 17.828125 56 27.875 56 
Q 33.9375 56 38.28125 53.609375 
Q 42.625 51.21875 45.40625 46.390625 
L 45.40625 54.6875 
L 54.390625 54.6875 
z
" id="DejaVuSans-67"/>
      <path id="DejaVuSans-20"/>
      <path d="M 52 44.1875 
Q 55.375 50.25 60.0625 53.125 
Q 64.75 56 71.09375 56 
Q 79.640625 56 84.28125 50.015625 
Q 88.921875 44.046875 88.921875 33.015625 
L 88.921875 0 
L 79.890625 0 
L 79.890625 32.71875 
Q 79.890625 40.578125 77.09375 44.375 
Q 74.3125 48.1875 68.609375 48.1875 
Q 61.625 48.1875 57.5625 43.546875 
Q 53.515625 38.921875 53.515625 30.90625 
L 53.515625 0 
L 44.484375 0 
L 44.484375 32.71875 
Q 44.484375 40.625 41.703125 44.40625 
Q 38.921875 48.1875 33.109375 48.1875 
Q 26.21875 48.1875 22.15625 43.53125 
Q 18.109375 38.875 18.109375 30.90625 
L 18.109375 0 
L 9.078125 0 
L 9.078125 54.6875 
L 18.109375 54.6875 
L 18.109375 46.1875 
Q 21.1875 51.21875 25.484375 53.609375 
Q 29.78125 56 35.6875 56 
Q 41.65625 56 45.828125 52.96875 
Q 50 49.953125 52 44.1875 
z
" id="DejaVuSans-6d"/>
      <path d="M 54.890625 54.6875 
L 35.109375 28.078125 
L 55.90625 0 
L 45.3125 0 
L 29.390625 21.484375 
L 13.484375 0 
L 2.875 0 
L 24.125 28.609375 
L 4.6875 54.6875 
L 15.28125 54.6875 
L 29.78125 35.203125 
L 44.28125 54.6875 
z
" id="DejaVuSans-78"/>
      <path d="M 39.40625 66.21875 
Q 28.65625 66.21875 22.328125 58.203125 
Q 16.015625 50.203125 16.015625 36.375 
Q 16.015625 22.609375 22.328125 14.59375 
Q 28.65625 6.59375 39.40625 6.59375 
Q 50.140625 6.59375 56.421875 14.59375 
Q 62.703125 22.609375 62.703125 36.375 
Q 62.703125 50.203125 56.421875 58.203125 
Q 50.140625 66.21875 39.40625 66.21875 
z
M 53.21875 1.3125 
L 66.21875 -12.890625 
L 54.296875 -12.890625 
L 43.5 -1.21875 
Q 41.890625 -1.3125 41.03125 -1.359375 
Q 40.1875 -1.421875 39.40625 -1.421875 
Q 24.03125 -1.421875 14.8125 8.859375 
Q 5.609375 19.140625 5.609375 36.375 
Q 5.609375 53.65625 14.8125 63.9375 
Q 24.03125 74.21875 39.40625 74.21875 
Q 54.734375 74.21875 63.90625 63.9375 
Q 73.09375 53.65625 73.09375 36.375 
Q 73.09375 23.6875 67.984375 14.640625 
Q 62.890625 5.609375 53.21875 1.3125 
z
" id="DejaVuSans-51"/>
     </defs>
     <g transform="translate(14.798438 192.263187)rotate(-90)scale(0.1 -0.1)">
      <use xlink:href="#DejaVuSans-61"/>
      <use x="61.279297" xlink:href="#DejaVuSans-76"/>
      <use x="120.458984" xlink:href="#DejaVuSans-65"/>
      <use x="181.982422" xlink:href="#DejaVuSans-72"/>
      <use x="223.095703" xlink:href="#DejaVuSans-61"/>
      <use x="284.375" xlink:href="#DejaVuSans-67"/>
      <use x="347.851562" xlink:href="#DejaVuSans-65"/>
      <use x="409.375" xlink:href="#DejaVuSans-20"/>
      <use x="441.162109" xlink:href="#DejaVuSans-6d"/>
      <use x="538.574219" xlink:href="#DejaVuSans-61"/>
      <use x="599.853516" xlink:href="#DejaVuSans-78"/>
      <use x="659.033203" xlink:href="#DejaVuSans-51"/>
     </g>
    </g>
   </g>
   <g id="line2d_16">
    <path clip-path="url(#p59e18d2558)" d="M 60.013977 141.868018 
L 60.338957 132.826464 
L 60.988916 91.783296 
L 61.313895 110.468544 
L 61.638875 111.926225 
L 61.963854 47.906722 
L 62.288834 106.33218 
L 62.613813 98.0105 
L 62.938793 113.567845 
L 63.263773 111.075063 
L 63.588752 117.71446 
L 63.913732 135.774194 
L 64.238711 104.108544 
L 64.563691 129.566537 
L 64.88867 134.681728 
L 65.21365 129.020109 
L 65.538629 113.65555 
L 65.863609 139.656808 
L 66.188588 140.747433 
L 66.513568 101.0657 
L 66.838547 81.947982 
L 67.163527 131.153608 
L 67.488506 134.266726 
L 67.813486 97.654668 
L 68.138465 131.324431 
L 68.463445 126.908577 
L 68.788424 138.799242 
L 69.113404 145.688077 
L 69.438383 104.622272 
L 70.088343 140.905151 
L 71.063281 105.059983 
L 71.388261 121.042987 
L 71.71324 110.979231 
L 72.03822 84.951502 
L 72.363199 138.111809 
L 72.688179 136.729782 
L 73.013158 118.82324 
L 73.338138 118.264052 
L 73.663117 121.495607 
L 73.988097 70.339458 
L 74.638056 155.364596 
L 74.963035 113.811396 
L 75.288015 135.759301 
L 75.612994 102.362038 
L 75.937974 120.997916 
L 76.262954 129.414006 
L 76.587933 106.294517 
L 76.912913 115.005127 
L 77.237892 150.83704 
L 77.887851 102.758858 
L 78.212831 123.292786 
L 78.53781 120.345522 
L 78.86279 107.47506 
L 79.187769 110.070334 
L 79.512749 105.518776 
L 79.837728 126.17322 
L 80.162708 98.977242 
L 80.487687 131.67729 
L 80.812667 60.998183 
L 81.137646 84.659837 
L 81.462626 125.565621 
L 81.787605 113.675732 
L 82.112585 128.272612 
L 82.437564 106.368589 
L 82.762544 133.091872 
L 83.087524 99.830706 
L 83.412503 133.848089 
L 83.737483 89.360063 
L 84.062462 68.897728 
L 84.387442 136.873876 
L 84.712421 127.362887 
L 85.037401 125.199077 
L 85.36238 138.083804 
L 85.68736 137.699658 
L 86.012339 87.064765 
L 86.337319 84.40078 
L 86.662298 132.620682 
L 86.987278 90.550264 
L 87.312257 118.746068 
L 87.637237 125.319248 
L 87.962216 128.646199 
L 88.287196 106.67853 
L 88.612175 105.349063 
L 88.937155 138.755809 
L 89.262135 143.236997 
L 89.587114 121.246407 
L 89.912094 125.73798 
L 90.237073 122.539639 
L 90.562053 105.271168 
L 90.887032 136.37205 
L 91.212012 143.222833 
L 91.536991 136.571516 
L 91.861971 115.413362 
L 92.18695 276.334125 
L 92.51193 104.552115 
L 92.836909 130.206389 
L 93.161889 141.555664 
L 93.486868 119.516132 
L 93.811848 138.776507 
L 94.136827 108.500337 
L 94.461807 94.655913 
L 94.786786 145.209828 
L 95.111766 71.397525 
L 95.436745 135.928556 
L 95.761725 115.260284 
L 96.086705 136.39886 
L 96.411684 148.537845 
L 96.736664 148.956182 
L 97.061643 122.596654 
L 97.386623 124.208547 
L 97.711602 134.44198 
L 98.036582 127.152971 
L 98.361561 82.372039 
L 98.686541 120.769562 
L 99.01152 101.720119 
L 99.3365 108.335383 
L 99.661479 142.560622 
L 99.986459 133.314902 
L 100.311438 84.191723 
L 100.961397 120.081406 
L 101.286377 117.708555 
L 101.611356 116.229532 
L 101.936336 90.145601 
L 102.261316 111.95471 
L 102.586295 123.294902 
L 102.911275 102.327606 
L 103.236254 125.664677 
L 103.561234 115.09388 
L 104.211193 143.26692 
L 104.536172 131.043938 
L 104.861152 137.662883 
L 105.186131 115.492586 
L 105.83609 134.351447 
L 106.16107 76.05846 
L 106.486049 45.364139 
L 106.811029 105.129977 
L 107.136008 106.970655 
L 107.460988 115.848366 
L 107.785967 101.577895 
L 108.110947 98.778148 
L 108.435926 115.064748 
L 108.760906 137.69172 
L 109.085886 115.707365 
L 109.410865 127.926534 
L 109.735845 98.172033 
L 110.060824 85.182262 
L 110.385804 129.098307 
L 110.710783 81.003394 
L 111.035763 107.332491 
L 111.360742 113.463837 
L 111.685722 130.624683 
L 112.010701 155.131836 
L 112.335681 106.049687 
L 112.66066 130.950912 
L 112.98564 103.953984 
L 113.310619 112.193158 
L 113.635599 131.92962 
L 113.960578 108.057238 
L 114.285558 112.023379 
L 114.610537 149.467408 
L 114.935517 101.884957 
L 115.260497 80.500287 
L 115.585476 147.995986 
L 115.910456 119.568929 
L 116.235435 122.834494 
L 116.560415 140.743222 
L 116.885394 150.692693 
L 117.210374 112.310679 
L 117.535353 127.524621 
L 117.860333 132.105793 
L 118.185312 113.412024 
L 118.510292 140.475252 
L 118.835271 146.775736 
L 119.48523 102.401055 
L 119.81021 109.834838 
L 120.135189 94.629266 
L 120.460169 99.45087 
L 120.785148 128.485542 
L 121.110128 105.240216 
L 121.435107 127.862215 
L 121.760087 97.989757 
L 122.085067 138.230203 
L 122.410046 121.957296 
L 122.735026 113.355934 
L 123.060005 100.227107 
L 123.384985 115.137795 
L 123.709964 91.927918 
L 124.034944 102.467026 
L 124.359923 135.467454 
L 124.684903 276.334125 
L 125.009882 113.930878 
L 125.334862 132.625999 
L 125.659841 131.668925 
L 125.984821 104.301736 
L 126.3098 132.269147 
L 126.63478 120.644248 
L 126.959759 93.922824 
L 127.284739 119.785797 
L 127.609718 105.95016 
L 128.259678 137.183276 
L 128.584657 121.11154 
L 128.909637 73.528049 
L 129.234616 146.33106 
L 129.559596 135.715975 
L 129.884575 132.296572 
L 130.209555 111.322687 
L 130.534534 131.167244 
L 130.859514 123.019414 
L 131.184493 81.350011 
L 131.509473 112.143518 
L 131.834452 113.070595 
L 132.159432 99.117206 
L 132.484411 138.784867 
L 133.13437 100.73228 
L 133.45935 117.541545 
L 133.784329 114.953298 
L 134.109309 85.969903 
L 134.434288 110.085494 
L 135.084248 134.745647 
L 135.409227 123.975163 
L 135.734207 79.540335 
L 136.059186 79.705492 
L 136.384166 119.753746 
L 136.709145 138.733396 
L 137.034125 105.851758 
L 137.359104 122.141334 
L 137.684084 130.577463 
L 138.009063 85.402842 
L 138.334043 98.645544 
L 138.659022 135.444002 
L 138.984002 116.521746 
L 139.308981 113.735559 
L 139.633961 118.734645 
L 139.95894 92.612988 
L 140.28392 104.750923 
L 140.608899 89.693762 
L 140.933879 103.091535 
L 141.258859 129.609931 
L 141.583838 122.756799 
L 141.908818 98.330011 
L 142.233797 117.985607 
L 142.558777 205.31818 
L 143.208736 238.932855 
L 143.533715 230.871171 
L 143.858695 233.742054 
L 144.183674 226.995924 
L 144.508654 222.577982 
L 144.833633 224.436679 
L 145.158613 214.101123 
L 145.483592 222.496523 
L 145.808572 214.674767 
L 146.133551 216.878827 
L 146.458531 214.900571 
L 146.78351 204.675837 
L 147.10849 206.054902 
L 147.433469 212.844005 
L 147.758449 208.02483 
L 148.083429 206.251941 
L 148.408408 208.293313 
L 148.733388 206.882845 
L 149.058367 201.442217 
L 149.383347 209.102764 
L 149.708326 202.099885 
L 150.033306 201.616664 
L 150.358285 204.806267 
L 150.683265 206.238378 
L 151.008244 205.136393 
L 151.333224 204.578117 
L 151.658203 199.270943 
L 151.983183 205.090389 
L 152.633142 204.217611 
L 153.283101 201.384194 
L 153.60808 200.653085 
L 153.93306 201.458166 
L 154.25804 201.06756 
L 154.907999 198.371866 
L 155.232978 198.257106 
L 155.557958 202.409834 
L 156.207917 196.036516 
L 156.532896 199.859662 
L 156.857876 200.607237 
L 157.182855 276.334125 
L 157.507835 197.069674 
L 157.832814 198.499235 
L 158.157794 201.113683 
L 158.482773 195.061081 
L 158.807753 203.854788 
L 159.132732 198.140399 
L 159.457712 198.592576 
L 159.782691 197.879275 
L 160.107671 192.151358 
L 160.43265 196.85745 
L 160.75763 199.470586 
L 161.08261 198.801243 
L 161.407589 201.277334 
L 161.732569 195.9818 
L 162.057548 197.306057 
L 162.382528 199.662914 
L 162.707507 198.658113 
L 163.032487 198.694989 
L 163.357466 200.788731 
L 163.682446 199.165487 
L 164.007425 194.945584 
L 164.332405 197.519611 
L 164.657384 198.185733 
L 164.982364 198.378306 
L 165.307343 198.022957 
L 165.632323 199.853815 
L 165.957302 195.165467 
L 166.282282 196.679254 
L 166.607261 200.96233 
L 166.932241 195.48864 
L 167.257221 199.327878 
L 167.5822 199.522434 
L 168.232159 191.395666 
L 168.557139 196.219588 
L 168.882118 196.712521 
L 169.532077 198.405429 
L 169.857057 195.433353 
L 170.182036 196.490347 
L 170.507016 195.939048 
L 170.831995 198.735086 
L 171.156975 195.362474 
L 171.481954 196.182816 
L 171.806934 198.017542 
L 172.131913 194.726988 
L 172.456893 200.026861 
L 172.781872 197.741939 
L 173.106852 194.364582 
L 173.431831 197.021421 
L 173.756811 197.139835 
L 174.081791 204.889824 
L 174.40677 196.698106 
L 174.73175 197.223716 
L 175.056729 194.111228 
L 175.381709 193.153019 
L 175.706688 191.124073 
L 176.031668 194.441714 
L 176.356647 195.335788 
L 177.006606 194.784908 
L 177.331586 195.119617 
L 177.656565 197.257486 
L 177.981545 195.652305 
L 178.306524 197.211013 
L 178.631504 194.847592 
L 178.956483 197.818224 
L 179.281463 195.992309 
L 179.606442 196.117181 
L 179.931422 193.857616 
L 180.256402 193.834056 
L 180.581381 189.051923 
L 180.906361 193.172711 
L 181.23134 193.688975 
L 181.55632 192.053466 
L 181.881299 196.05158 
L 182.206279 197.493062 
L 182.531258 197.537475 
L 183.181217 197.947163 
L 183.506197 197.755598 
L 183.831176 193.888595 
L 184.481135 194.490958 
L 184.806115 190.504297 
L 185.131094 197.188254 
L 185.456074 198.73489 
L 185.781053 194.00784 
L 186.106033 198.63006 
L 186.431012 194.199417 
L 186.755992 193.410422 
L 187.080972 195.715938 
L 187.405951 196.96219 
L 187.730931 193.508261 
L 188.05591 195.545155 
L 188.38089 190.047607 
L 188.705869 187.027917 
L 189.355828 198.765069 
L 189.680808 276.334125 
L 190.005787 195.908451 
L 190.330767 192.130906 
L 190.655746 196.685852 
L 190.980726 194.933893 
L 191.305705 191.797902 
L 191.630685 197.425111 
L 191.955664 195.725121 
L 192.605623 190.157608 
L 192.930603 193.995754 
L 193.255583 192.096866 
L 193.580562 186.599966 
L 193.905542 195.173146 
L 194.230521 193.051505 
L 194.555501 194.126243 
L 194.88048 188.155464 
L 195.20546 193.652802 
L 195.530439 192.550967 
L 195.855419 188.455068 
L 196.180398 191.63255 
L 196.505378 183.274989 
L 196.830357 190.358236 
L 197.155337 189.319613 
L 197.805296 194.40525 
L 198.130275 188.958907 
L 198.455255 195.942072 
L 198.780234 192.741678 
L 199.105214 196.422853 
L 199.430193 192.025673 
L 199.755173 189.460876 
L 200.080153 188.443638 
L 200.405132 193.76747 
L 201.055091 189.092669 
L 201.380071 195.533395 
L 201.70505 192.969472 
L 202.03003 195.9745 
L 202.355009 187.773542 
L 202.679989 189.359613 
L 203.004968 192.653378 
L 203.329948 185.889314 
L 203.654927 189.457372 
L 203.979907 190.359429 
L 204.304886 188.628499 
L 204.629866 192.110081 
L 204.954845 187.760814 
L 205.279825 187.419232 
L 205.604804 194.993216 
L 206.254764 187.366326 
L 206.579743 192.647314 
L 206.904723 191.142278 
L 207.229702 187.188221 
L 207.554682 187.578832 
L 207.879661 186.48958 
L 208.204641 189.928494 
L 208.52962 188.360408 
L 208.8546 192.45748 
L 209.179579 188.856465 
L 209.504559 188.718141 
L 209.829538 187.449639 
L 210.154518 191.155906 
L 210.479497 181.756371 
L 210.804477 185.799701 
L 211.129456 186.805391 
L 211.454436 187.24535 
L 211.779415 186.468041 
L 212.104395 180.462415 
L 212.429374 180.027232 
L 212.754354 188.365505 
L 213.079334 188.618397 
L 213.404313 179.347442 
L 213.729293 176.608544 
L 214.054272 188.473475 
L 214.379252 182.742022 
L 214.704231 186.225629 
L 215.35419 180.181601 
L 215.67917 191.830966 
L 216.004149 179.922306 
L 216.329129 187.302021 
L 216.654108 190.614315 
L 216.979088 185.625595 
L 217.304067 185.498777 
L 217.629047 175.57761 
L 217.954026 190.148457 
L 218.279006 190.767414 
L 218.603985 188.703023 
L 218.928965 187.803099 
L 219.253945 179.116373 
L 219.578924 183.119499 
L 219.903904 188.795424 
L 220.228883 178.228522 
L 220.553863 176.124586 
L 220.878842 181.762347 
L 221.203822 181.758504 
L 221.528801 180.100017 
L 221.853781 187.318265 
L 222.17876 276.334125 
L 222.50374 182.707719 
L 222.828719 189.806556 
L 223.153699 178.509669 
L 223.478678 175.826267 
L 223.803658 180.568937 
L 224.128637 175.412458 
L 224.453617 181.827007 
L 224.778596 184.744843 
L 225.428555 176.703671 
L 226.078515 185.154789 
L 226.403494 181.177611 
L 226.728474 179.850479 
L 227.053453 184.102226 
L 227.378433 179.908753 
L 227.703412 179.94789 
L 228.353371 175.004732 
L 228.678351 183.640595 
L 229.00333 175.728977 
L 229.32831 182.851452 
L 229.653289 179.301004 
L 229.978269 172.52011 
L 230.303248 188.463006 
L 230.628228 182.206637 
L 230.953207 186.462062 
L 231.278187 188.256034 
L 231.603166 181.860097 
L 231.928146 187.766632 
L 232.253126 182.646269 
L 232.578105 171.133106 
L 232.903085 181.028887 
L 233.228064 179.060701 
L 233.553044 174.816239 
L 233.878023 183.470123 
L 234.203003 174.471967 
L 234.527982 170.537865 
L 234.852962 169.132567 
L 235.177941 169.257094 
L 235.502921 183.670957 
L 235.8279 172.903624 
L 236.15288 166.591405 
L 236.477859 177.461681 
L 236.802839 171.458395 
L 237.127818 173.75132 
L 237.777777 180.812211 
L 238.102757 166.154672 
L 238.752716 189.26155 
L 239.077696 167.908952 
L 239.402675 180.680764 
L 239.727655 177.327769 
L 240.052634 172.143463 
L 240.377614 177.375365 
L 240.702593 175.084095 
L 241.027573 175.626716 
L 241.352552 186.289779 
L 241.677532 170.257218 
L 242.002511 171.92898 
L 242.327491 167.217479 
L 242.65247 178.005953 
L 242.97745 165.087791 
L 243.302429 171.00043 
L 243.627409 167.921526 
L 243.952388 167.739294 
L 244.277368 167.25861 
L 244.602347 186.106855 
L 244.927327 167.756634 
L 245.252307 167.021477 
L 245.577286 177.612111 
L 245.902266 177.075409 
L 246.227245 169.666671 
L 246.552225 182.558346 
L 246.877204 161.270038 
L 247.202184 163.310635 
L 247.852143 169.2445 
L 248.177122 163.468509 
L 248.827081 185.690987 
L 249.152061 160.31282 
L 249.47704 175.790591 
L 249.80202 165.562608 
L 250.126999 159.797409 
L 250.451979 173.608502 
L 250.776958 162.732217 
L 251.101938 181.579551 
L 251.426917 157.667319 
L 251.751897 169.030876 
L 252.076877 169.867299 
L 252.401856 161.435492 
L 252.726836 167.101445 
L 253.051815 168.872588 
L 253.376795 159.802343 
L 253.701774 172.796303 
L 254.351733 165.457446 
L 254.676713 276.334125 
L 255.001692 159.033885 
L 255.651651 179.153384 
L 255.976631 165.666114 
L 256.30161 164.794409 
L 256.62659 161.815653 
L 256.951569 169.343846 
L 257.276549 167.876743 
L 257.601528 170.727255 
L 258.251488 155.607029 
L 258.576467 176.90089 
L 258.901447 178.387624 
L 259.226426 171.426676 
L 259.551406 155.62656 
L 259.876385 164.745313 
L 260.201365 160.925153 
L 260.526344 155.162446 
L 260.851324 168.23499 
L 261.176303 167.350052 
L 261.501283 177.180148 
L 261.826262 159.384834 
L 262.151242 166.136594 
L 262.476221 162.862623 
L 262.801201 157.489535 
L 263.12618 147.897591 
L 263.45116 164.685285 
L 263.776139 162.706445 
L 264.101119 174.866985 
L 264.426098 161.047127 
L 264.751078 168.951352 
L 265.076058 162.385613 
L 265.401037 173.327789 
L 265.726017 161.230003 
L 266.050996 171.112712 
L 266.375976 162.665469 
L 266.700955 161.65903 
L 267.025935 170.902449 
L 267.350914 171.116621 
L 268.000873 150.264524 
L 268.325853 167.63061 
L 268.650832 161.502069 
L 268.975812 171.079145 
L 269.300791 166.032634 
L 269.625771 152.091037 
L 269.95075 149.843301 
L 270.27573 153.951275 
L 270.600709 162.629339 
L 270.925689 166.256707 
L 271.250669 161.205103 
L 271.575648 159.288201 
L 271.900628 154.821785 
L 272.225607 143.862145 
L 272.875566 156.303283 
L 273.200546 157.488976 
L 273.525525 162.688548 
L 273.850505 161.474971 
L 274.175484 149.611739 
L 274.500464 161.57003 
L 274.825443 167.504184 
L 275.150423 147.779642 
L 275.475402 147.583183 
L 275.800382 144.558584 
L 276.125361 176.745389 
L 277.1003 151.302221 
L 277.425279 148.293012 
L 277.750259 162.515969 
L 278.075239 157.416456 
L 278.400218 156.405272 
L 278.725198 137.380522 
L 279.375157 164.283299 
L 279.700136 150.266769 
L 280.025116 142.128773 
L 280.350095 191.591626 
L 280.675075 146.48473 
L 281.000054 151.764722 
L 281.325034 167.084606 
L 281.650013 151.195701 
L 281.974993 149.392346 
L 282.299972 172.476499 
L 282.949931 135.286099 
L 283.274911 152.985324 
L 283.59989 147.517842 
L 283.92487 152.250688 
L 284.24985 165.814566 
L 284.574829 170.796082 
L 284.899809 145.874646 
L 285.549768 157.848009 
L 285.874747 152.487075 
L 286.199727 134.062156 
L 286.849686 149.259413 
L 287.174665 276.334125 
L 287.499645 153.338868 
L 287.824624 157.175841 
L 288.149604 167.155895 
L 288.474583 157.373813 
L 288.799563 134.43367 
L 289.124542 167.948617 
L 289.449522 156.398483 
L 289.774501 134.268232 
L 290.099481 139.75706 
L 290.42446 163.647784 
L 290.74944 163.169571 
L 291.07442 143.144479 
L 291.399399 134.9751 
L 291.724379 137.579753 
L 292.049358 141.259994 
L 292.374338 164.825319 
L 292.699317 163.160341 
L 293.024297 128.761193 
L 293.349276 169.127702 
L 293.674256 133.44058 
L 293.999235 154.882159 
L 294.324215 164.893069 
L 294.649194 135.399127 
L 294.974174 181.827381 
L 295.299153 146.02361 
L 295.624133 126.469596 
L 295.949112 129.504166 
L 296.274092 135.674488 
L 296.599071 152.704992 
L 296.924051 147.272993 
L 297.249031 149.292215 
L 297.57401 130.290245 
L 297.89899 151.869953 
L 298.223969 163.718353 
L 298.873928 138.2885 
L 299.198908 146.634129 
L 299.523887 130.817663 
L 299.848867 130.376145 
L 300.173846 138.30198 
L 300.498826 142.17496 
L 300.823805 136.567936 
L 301.148785 156.854689 
L 301.473764 123.389065 
L 301.798744 144.696863 
L 302.123723 140.551611 
L 302.448703 122.964757 
L 302.773682 151.916924 
L 303.098662 149.475265 
L 303.423641 155.205875 
L 303.748621 150.180864 
L 304.073601 138.90936 
L 304.39858 146.402603 
L 304.72356 150.780769 
L 305.048539 161.195514 
L 305.373519 130.944865 
L 305.698498 132.061649 
L 306.023478 147.438305 
L 306.673437 122.545358 
L 306.998416 130.126438 
L 307.323396 147.322921 
L 307.648375 129.969213 
L 307.973355 144.425544 
L 308.298334 142.564382 
L 308.623314 135.251341 
L 308.948293 140.287834 
L 309.273273 136.506165 
L 309.598252 119.12945 
L 309.923232 142.960108 
L 310.248212 138.526992 
L 310.573191 150.712233 
L 310.898171 123.108939 
L 311.22315 148.469297 
L 311.54813 139.941871 
L 311.873109 127.554927 
L 312.198089 143.854212 
L 312.523068 153.376775 
L 312.848048 132.744281 
L 313.173027 131.939797 
L 313.498007 140.371387 
L 313.822986 127.849618 
L 314.147966 138.19987 
L 314.472945 122.282043 
L 314.797925 123.729675 
L 315.122904 122.735025 
L 315.447884 131.201288 
L 315.772863 133.302189 
L 316.097843 144.186119 
L 316.422822 170.41431 
L 316.747802 127.212717 
L 317.072782 121.196534 
L 317.397761 153.339104 
L 317.722741 102.603096 
L 318.04772 148.313323 
L 318.3727 130.175732 
L 318.697679 119.320369 
L 319.022659 122.811023 
L 319.347638 150.182781 
L 319.672618 276.334125 
L 319.997597 124.713389 
L 320.322577 143.384764 
L 320.647556 109.11258 
L 320.972536 149.551062 
L 321.297515 119.463095 
L 321.622495 114.017639 
L 321.947474 119.35748 
L 322.272454 112.930307 
L 322.597433 114.393106 
L 322.922413 121.984406 
L 323.247393 116.316817 
L 323.572372 101.056427 
L 323.897352 109.731222 
L 324.222331 101.469936 
L 324.547311 106.10576 
L 324.87229 109.006629 
L 325.19727 122.354441 
L 325.522249 118.24033 
L 325.847229 102.842511 
L 326.172208 102.258652 
L 326.497188 107.824273 
L 326.822167 97.392225 
L 327.147147 115.276573 
L 327.472126 111.157582 
L 327.797106 97.636787 
L 328.122085 117.587715 
L 328.447065 117.429756 
L 328.772044 121.398342 
L 329.097024 136.209245 
L 329.746983 105.157754 
L 330.071963 124.844111 
L 330.396942 99.499955 
L 330.721922 96.802894 
L 331.046901 110.881917 
L 331.371881 97.536849 
L 331.69686 136.172083 
L 332.02184 128.263029 
L 332.346819 104.058047 
L 332.671799 133.237832 
L 332.996778 106.304422 
L 333.321758 99.908852 
L 333.646737 102.890576 
L 333.971717 100.209512 
L 334.296696 112.691575 
L 334.621676 135.35322 
L 334.946655 99.026158 
L 335.271635 113.675476 
L 335.596614 103.836109 
L 335.921594 125.181665 
L 336.246574 88.784946 
L 336.571553 111.325882 
L 336.896533 109.190307 
L 337.221512 130.767109 
L 337.546492 88.450327 
L 337.871471 96.132356 
L 338.52143 117.997152 
L 339.171389 96.470977 
L 339.496369 93.093132 
L 339.821348 95.393963 
L 340.471307 115.644437 
L 340.796287 100.167713 
L 341.121266 140.261377 
L 341.446246 112.348659 
L 341.771225 98.346627 
L 342.096205 103.238047 
L 342.421184 77.97 
L 342.746164 111.542036 
L 343.071144 107.026859 
L 343.396123 97.648286 
L 343.721103 103.394303 
L 344.046082 97.276364 
L 344.371062 118.994661 
L 344.696041 91.32194 
L 345.021021 95.81287 
L 345.346 97.850137 
L 345.67098 97.339601 
L 345.995959 87.402503 
L 346.320939 99.760797 
L 346.645918 88.099929 
L 346.970898 99.790181 
L 347.620857 86.259635 
L 348.270816 103.665628 
L 348.595795 83.820135 
L 348.920775 89.789063 
L 349.245755 114.976641 
L 349.570734 67.721101 
L 349.895714 103.616767 
L 350.545673 73.730002 
L 350.870652 101.141819 
L 351.195632 108.189487 
L 351.520611 85.567483 
L 351.845591 100.641375 
L 352.17057 276.334125 
L 352.49555 80.663932 
L 352.820529 96.361617 
L 353.145509 98.020956 
L 353.470488 83.128799 
L 353.795468 90.480865 
L 354.120447 77.616101 
L 354.445427 100.217154 
L 354.770406 84.501675 
L 355.095386 74.328036 
L 355.420365 70.777978 
L 355.745345 102.104144 
L 356.070325 101.800061 
L 356.395304 110.705121 
L 356.720284 94.680112 
L 357.045263 109.637334 
L 357.370243 72.17204 
L 357.695222 94.77501 
L 358.020202 80.646218 
L 358.345181 94.391364 
L 359.32012 68.724461 
L 359.645099 80.283882 
L 359.970079 74.830951 
L 360.295058 85.258056 
L 360.620038 57.977716 
L 360.945017 64.856715 
L 361.269997 57.527862 
L 361.594976 65.086485 
L 361.919956 94.267978 
L 362.244936 69.368536 
L 362.569915 77.976678 
L 362.894895 78.388297 
L 363.219874 61.172528 
L 363.544854 90.049237 
L 363.869833 67.208705 
L 364.194813 74.700902 
L 364.519792 62.541097 
L 364.844772 64.253149 
L 365.169751 80.74762 
L 365.494731 62.073344 
L 365.81971 73.916894 
L 366.14469 70.727677 
L 366.469669 58.639344 
L 366.794649 66.80862 
L 367.119628 62.951325 
L 367.444608 64.823658 
L 367.769587 73.966874 
L 368.094567 74.84827 
L 368.419546 82.071124 
L 368.744526 68.208775 
L 369.069506 79.15479 
L 369.394485 84.874956 
L 369.719465 54.45841 
L 370.044444 74.773117 
L 370.369424 66.542187 
L 371.019383 80.965865 
L 371.669342 71.357692 
L 371.994321 52.160724 
L 372.319301 90.297969 
L 372.64428 71.700865 
L 372.96926 44.941395 
L 373.294239 64.566131 
L 373.619219 71.422772 
L 373.944198 47.558951 
L 374.594157 72.767857 
L 374.919137 87.043534 
L 375.244117 59.405964 
L 375.569096 74.636229 
L 375.894076 44.823502 
L 376.219055 87.978566 
L 376.544035 42.573125 
L 376.869014 65.055475 
L 377.193994 55.033742 
L 377.518973 64.991434 
L 377.843953 49.936364 
L 378.168932 42.069807 
L 378.493912 87.988206 
L 378.818891 74.678102 
L 379.143871 82.937323 
L 379.46885 36.596106 
L 379.79383 40.131341 
L 380.118809 45.767724 
L 380.443789 69.663069 
L 380.768768 79.626864 
L 381.093748 45.748252 
L 381.418727 52.020968 
L 381.743707 65.894796 
L 382.068687 40.745785 
L 382.393666 69.145016 
L 382.718646 61.820491 
L 383.043625 64.670524 
L 383.368605 80.730177 
L 383.693584 34.414125 
L 384.018564 52.141401 
L 384.343543 45.32558 
L 384.668523 276.334125 
L 384.668523 276.334125 
" style="fill:none;stroke:#1f77b4;stroke-linecap:square;stroke-width:0.5;"/>
   </g>
   <g id="patch_3">
    <path d="M 43.78125 288.430125 
L 43.78125 22.318125 
" style="fill:none;stroke:#000000;stroke-linecap:square;stroke-linejoin:miter;stroke-width:0.8;"/>
   </g>
   <g id="patch_4">
    <path d="M 400.90125 288.430125 
L 400.90125 22.318125 
" style="fill:none;stroke:#000000;stroke-linecap:square;stroke-linejoin:miter;stroke-width:0.8;"/>
   </g>
   <g id="patch_5">
    <path d="M 43.78125 288.430125 
L 400.90125 288.430125 
" style="fill:none;stroke:#000000;stroke-linecap:square;stroke-linejoin:miter;stroke-width:0.8;"/>
   </g>
   <g id="patch_6">
    <path d="M 43.78125 22.318125 
L 400.90125 22.318125 
" style="fill:none;stroke:#000000;stroke-linecap:square;stroke-linejoin:miter;stroke-width:0.8;"/>
   </g>
   <g id="text_18">
    <!-- Average maxQ per episode, joint1 -->
    <defs>
     <path d="M 34.1875 63.1875 
L 20.796875 26.90625 
L 47.609375 26.90625 
z
M 28.609375 72.90625 
L 39.796875 72.90625 
L 67.578125 0 
L 57.328125 0 
L 50.6875 18.703125 
L 17.828125 18.703125 
L 11.1875 0 
L 0.78125 0 
z
" id="DejaVuSans-41"/>
     <path d="M 11.71875 12.40625 
L 22.015625 12.40625 
L 22.015625 4 
L 14.015625 -11.625 
L 7.71875 -11.625 
L 11.71875 4 
z
" id="DejaVuSans-2c"/>
     <path d="M 9.421875 54.6875 
L 18.40625 54.6875 
L 18.40625 -0.984375 
Q 18.40625 -11.421875 14.421875 -16.109375 
Q 10.453125 -20.796875 1.609375 -20.796875 
L -1.8125 -20.796875 
L -1.8125 -13.1875 
L 0.59375 -13.1875 
Q 5.71875 -13.1875 7.5625 -10.8125 
Q 9.421875 -8.453125 9.421875 -0.984375 
z
M 9.421875 75.984375 
L 18.40625 75.984375 
L 18.40625 64.59375 
L 9.421875 64.59375 
z
" id="DejaVuSans-6a"/>
     <path d="M 54.890625 33.015625 
L 54.890625 0 
L 45.90625 0 
L 45.90625 32.71875 
Q 45.90625 40.484375 42.875 44.328125 
Q 39.84375 48.1875 33.796875 48.1875 
Q 26.515625 48.1875 22.3125 43.546875 
Q 18.109375 38.921875 18.109375 30.90625 
L 18.109375 0 
L 9.078125 0 
L 9.078125 54.6875 
L 18.109375 54.6875 
L 18.109375 46.1875 
Q 21.34375 51.125 25.703125 53.5625 
Q 30.078125 56 35.796875 56 
Q 45.21875 56 50.046875 50.171875 
Q 54.890625 44.34375 54.890625 33.015625 
z
" id="DejaVuSans-6e"/>
     <path d="M 18.3125 70.21875 
L 18.3125 54.6875 
L 36.8125 54.6875 
L 36.8125 47.703125 
L 18.3125 47.703125 
L 18.3125 18.015625 
Q 18.3125 11.328125 20.140625 9.421875 
Q 21.96875 7.515625 27.59375 7.515625 
L 36.8125 7.515625 
L 36.8125 0 
L 27.59375 0 
Q 17.1875 0 13.234375 3.875 
Q 9.28125 7.765625 9.28125 18.015625 
L 9.28125 47.703125 
L 2.6875 47.703125 
L 2.6875 54.6875 
L 9.28125 54.6875 
L 9.28125 70.21875 
z
" id="DejaVuSans-74"/>
    </defs>
    <g transform="translate(119.61375 16.318125)scale(0.12 -0.12)">
     <use xlink:href="#DejaVuSans-41"/>
     <use x="68.330078" xlink:href="#DejaVuSans-76"/>
     <use x="127.509766" xlink:href="#DejaVuSans-65"/>
     <use x="189.033203" xlink:href="#DejaVuSans-72"/>
     <use x="230.146484" xlink:href="#DejaVuSans-61"/>
     <use x="291.425781" xlink:href="#DejaVuSans-67"/>
     <use x="354.902344" xlink:href="#DejaVuSans-65"/>
     <use x="416.425781" xlink:href="#DejaVuSans-20"/>
     <use x="448.212891" xlink:href="#DejaVuSans-6d"/>
     <use x="545.625" xlink:href="#DejaVuSans-61"/>
     <use x="606.904297" xlink:href="#DejaVuSans-78"/>
     <use x="666.083984" xlink:href="#DejaVuSans-51"/>
     <use x="744.794922" xlink:href="#DejaVuSans-20"/>
     <use x="776.582031" xlink:href="#DejaVuSans-70"/>
     <use x="840.058594" xlink:href="#DejaVuSans-65"/>
     <use x="901.582031" xlink:href="#DejaVuSans-72"/>
     <use x="942.695312" xlink:href="#DejaVuSans-20"/>
     <use x="974.482422" xlink:href="#DejaVuSans-65"/>
     <use x="1036.005859" xlink:href="#DejaVuSans-70"/>
     <use x="1099.482422" xlink:href="#DejaVuSans-69"/>
     <use x="1127.265625" xlink:href="#DejaVuSans-73"/>
     <use x="1179.365234" xlink:href="#DejaVuSans-6f"/>
     <use x="1240.546875" xlink:href="#DejaVuSans-64"/>
     <use x="1304.023438" xlink:href="#DejaVuSans-65"/>
     <use x="1365.546875" xlink:href="#DejaVuSans-2c"/>
     <use x="1397.333984" xlink:href="#DejaVuSans-20"/>
     <use x="1429.121094" xlink:href="#DejaVuSans-6a"/>
     <use x="1456.904297" xlink:href="#DejaVuSans-6f"/>
     <use x="1518.085938" xlink:href="#DejaVuSans-69"/>
     <use x="1545.869141" xlink:href="#DejaVuSans-6e"/>
     <use x="1609.248047" xlink:href="#DejaVuSans-74"/>
     <use x="1648.457031" xlink:href="#DejaVuSans-31"/>
    </g>
   </g>
  </g>
 </g>
 <defs>
  <clipPath id="p59e18d2558">
   <rect height="266.112" width="357.12" x="43.78125" y="22.318125"/>
  </clipPath>
 </defs>
</svg>
