<?xml version="1.0" encoding="utf-8" standalone="no"?>
<!DOCTYPE svg PUBLIC "-//W3C//DTD SVG 1.1//EN"
  "http://www.w3.org/Graphics/SVG/1.1/DTD/svg11.dtd">
<!-- Created with matplotlib (http://matplotlib.org/) -->
<svg height="408pt" version="1.1" viewBox="0 0 519 408" width="519pt" xmlns="http://www.w3.org/2000/svg" xmlns:xlink="http://www.w3.org/1999/xlink">
 <defs>
  <style type="text/css">
*{stroke-linecap:butt;stroke-linejoin:round;stroke-miterlimit:100000;}
  </style>
 </defs>
 <g id="figure_1">
  <g id="patch_1">
   <path d="M 0 408.16925 
L 519.585 408.16925 
L 519.585 0 
L 0 0 
z
" style="fill:#ffffff;"/>
  </g>
  <g id="axes_1">
   <g id="patch_2">
    <path d="M 46.8975 368.74175 
L 493.2975 368.74175 
L 493.2975 23.14175 
L 46.8975 23.14175 
z
" style="fill:#ffffff;"/>
   </g>
   <g id="line2d_1">
    <path clip-path="url(#p012e792f89)" d="M 47.3439 329.19403 
L 47.7903 328.411645 
L 48.2367 332.145032 
L 48.6831 328.418163 
L 49.1295 327.312573 
L 49.5759 328.369287 
L 50.0223 330.514992 
L 50.4687 326.998248 
L 50.9151 334.825758 
L 51.3615 326.60052 
L 51.8079 335.674826 
L 52.2543 333.394067 
L 52.7007 327.522748 
L 53.1471 328.463507 
L 53.5935 327.890864 
L 54.0399 327.104455 
L 54.4863 326.836127 
L 54.9327 327.410861 
L 55.3791 326.582837 
L 55.8255 330.792796 
L 56.2719 333.519169 
L 56.7183 341.314915 
L 57.1647 327.329086 
L 57.6111 339.678495 
L 58.0575 335.039113 
L 58.5039 331.922889 
L 58.9503 343.861089 
L 59.3967 328.535721 
L 59.8431 336.356432 
L 60.2895 327.830069 
L 60.7359 342.608957 
L 61.1823 329.579148 
L 61.6287 345.972572 
L 62.0751 328.24035 
L 62.5215 328.291881 
L 62.9679 342.829193 
L 63.4143 343.327668 
L 63.8607 346.289791 
L 64.3071 330.732506 
L 64.7535 343.038497 
L 65.1999 345.442867 
L 65.6463 331.790337 
L 66.0927 332.811121 
L 66.5391 341.351678 
L 66.9855 328.171147 
L 67.4319 344.731481 
L 67.8783 332.746273 
L 68.3247 327.269273 
L 68.7711 329.308787 
L 69.2175 328.047594 
L 69.6639 327.869222 
L 70.1103 342.830445 
L 70.5567 329.788695 
L 71.0031 326.079424 
L 71.4495 326.439062 
L 71.8959 329.609179 
L 72.3423 330.345608 
L 72.7887 329.523961 
L 73.2351 329.416666 
L 73.6815 330.870396 
L 74.1279 326.757537 
L 74.5743 328.656099 
L 75.0207 327.748754 
L 75.4671 330.034954 
L 75.9135 329.877189 
L 76.3599 335.917862 
L 76.8063 328.674417 
L 77.2527 328.743441 
L 77.6991 345.954663 
L 78.1455 328.535953 
L 78.5919 329.754743 
L 79.0383 330.321658 
L 79.4847 329.41881 
L 80.3775 328.206118 
L 80.8239 330.497316 
L 81.2703 346.847219 
L 81.7167 328.901231 
L 82.1631 332.294559 
L 82.6095 345.585059 
L 83.0559 327.268648 
L 83.5023 330.401359 
L 83.9487 328.420764 
L 84.3951 337.067657 
L 84.8415 329.310075 
L 85.2879 328.566627 
L 85.7343 331.483272 
L 86.1807 328.586301 
L 86.6271 329.074904 
L 87.0735 327.13536 
L 87.5199 328.664902 
L 87.9663 328.360085 
L 88.4127 330.246625 
L 88.8591 328.977018 
L 89.3055 330.943742 
L 90.1983 327.500259 
L 90.6447 326.160669 
L 91.0911 327.500259 
L 91.5375 347.636039 
L 91.9839 330.01857 
L 92.4303 328.537235 
L 92.8767 328.601661 
L 93.7695 329.295911 
L 94.2159 328.795476 
L 94.6623 328.719772 
L 95.1087 329.288951 
L 95.5551 328.82473 
L 96.0015 329.319775 
L 96.4479 328.475787 
L 96.8943 333.781368 
L 97.3407 326.521426 
L 97.7871 329.87227 
L 98.6799 326.630028 
L 99.1263 329.348257 
L 99.5727 333.177023 
L 100.0191 329.288951 
L 100.4655 329.601261 
L 100.9119 330.644245 
L 101.3583 329.198156 
L 101.8047 329.288951 
L 102.2511 328.869758 
L 102.6975 328.104559 
L 103.1439 329.125546 
L 103.5903 326.013895 
L 104.0367 329.125546 
L 104.4831 329.288951 
L 105.3759 329.288951 
L 105.8223 326.864805 
L 106.2687 333.763365 
L 106.7151 329.777498 
L 107.1615 329.919908 
L 107.6079 329.288951 
L 108.0543 329.288951 
L 108.5007 327.981997 
L 109.3935 329.288951 
L 109.8399 329.288951 
L 110.2863 329.726196 
L 110.7327 329.288951 
L 111.1791 342.465411 
L 111.6255 331.121069 
L 112.0719 330.246625 
L 112.5183 331.969857 
L 112.9647 329.530996 
L 113.8575 332.880284 
L 114.3039 331.969857 
L 114.7503 325.835291 
L 115.1967 329.43783 
L 115.6431 348.12641 
L 116.0895 334.212341 
L 116.5359 331.804929 
L 116.9823 330.099746 
L 117.4287 325.966979 
L 117.8751 325.806738 
L 118.3215 329.288951 
L 118.7679 334.672608 
L 119.2143 328.130499 
L 119.6607 329.288951 
L 120.1071 333.790106 
L 120.5535 325.835149 
L 120.9999 329.162054 
L 121.8927 322.933697 
L 122.3391 324.551111 
L 122.7855 331.113576 
L 123.2319 328.60989 
L 123.6783 319.514396 
L 124.1247 320.833223 
L 124.5711 335.703335 
L 125.0175 328.264052 
L 125.4639 329.423755 
L 125.9103 329.177483 
L 126.3567 336.285671 
L 127.2495 325.865306 
L 127.6959 313.766778 
L 128.1423 330.813701 
L 128.5887 327.839974 
L 129.0351 329.154981 
L 129.4815 331.412077 
L 129.9279 329.557179 
L 130.3743 326.720791 
L 130.8207 331.144583 
L 131.2671 330.961999 
L 131.7135 328.043233 
L 132.1599 318.67327 
L 132.6063 327.635844 
L 133.0527 320.556989 
L 133.9455 329.112935 
L 134.3919 322.172913 
L 134.8383 329.326055 
L 135.2847 327.535745 
L 135.7311 314.950135 
L 136.6239 326.141119 
L 137.0703 331.11057 
L 137.5167 324.922851 
L 137.9631 321.702707 
L 138.4095 313.322416 
L 138.8559 328.663366 
L 139.3023 309.975541 
L 139.7487 328.660455 
L 140.1951 327.610446 
L 140.6415 332.441498 
L 141.0879 328.397657 
L 141.5343 329.942634 
L 141.9807 333.09771 
L 142.4271 310.224637 
L 142.8735 308.820043 
L 143.3199 328.859669 
L 143.7663 320.428382 
L 144.2127 328.220788 
L 144.6591 308.245837 
L 145.1055 308.831256 
L 145.5519 297.098726 
L 145.9983 330.152093 
L 146.4447 329.454635 
L 146.8911 330.524182 
L 147.3375 323.124148 
L 148.2303 336.827272 
L 148.6767 329.79852 
L 149.1231 324.764027 
L 149.5695 330.870566 
L 150.0159 330.912283 
L 150.4623 322.457428 
L 150.9087 326.869749 
L 151.3551 328.892547 
L 151.8015 327.171525 
L 152.2479 322.124049 
L 152.6943 338.184808 
L 153.1407 313.022609 
L 153.5871 327.298504 
L 154.0335 304.15571 
L 154.4799 327.96168 
L 154.9263 315.972615 
L 155.3727 327.944618 
L 155.8191 324.040013 
L 156.2655 323.036473 
L 156.7119 325.011636 
L 157.1583 325.227341 
L 157.6047 328.167751 
L 158.0511 329.05873 
L 158.4975 322.854976 
L 158.9439 325.764164 
L 159.3903 325.573218 
L 159.8367 345.381346 
L 160.2831 329.016208 
L 160.7295 325.545028 
L 161.1759 332.578731 
L 161.6223 324.181161 
L 162.0687 324.107717 
L 162.5151 314.225558 
L 162.9615 312.697807 
L 163.4079 315.636288 
L 163.8543 312.386403 
L 164.3007 338.660513 
L 164.7471 325.828404 
L 165.1935 324.959948 
L 165.6399 294.070635 
L 166.0863 325.358218 
L 166.5327 343.238599 
L 166.9791 300.387269 
L 167.4255 299.378675 
L 167.8719 339.503535 
L 168.3183 328.334888 
L 168.7647 328.211009 
L 169.2111 241.962434 
L 169.6575 335.461117 
L 170.1039 325.499951 
L 170.5503 323.497461 
L 170.9967 330.87422 
L 171.4431 242.012241 
L 171.8895 295.826506 
L 172.3359 278.797403 
L 172.7823 337.777907 
L 173.2287 349.792244 
L 173.6751 243.432527 
L 174.1215 327.289132 
L 174.5679 332.959302 
L 175.0143 333.548376 
L 175.4607 334.698155 
L 175.9071 335.35803 
L 176.3535 236.999071 
L 176.7999 257.67356 
L 177.2463 331.132185 
L 177.6927 239.391889 
L 178.1391 287.404957 
L 178.5855 247.942186 
L 179.0319 245.664032 
L 179.4783 230.758246 
L 179.9247 115.952442 
L 180.3711 269.051353 
L 180.8175 249.930198 
L 181.2639 102.469504 
L 181.7103 253.497681 
L 182.1567 266.646881 
L 182.6031 245.397334 
L 183.0495 84.558288 
L 183.4959 242.671462 
L 183.9423 50.280438 
L 184.3887 327.206978 
L 184.8351 242.66396 
L 185.2815 250.127145 
L 185.7279 57.333868 
L 186.1743 247.079626 
L 186.6207 239.157198 
L 187.0671 99.031605 
L 187.5135 247.795397 
L 188.4063 237.253882 
L 188.8527 239.689466 
L 189.2991 237.249526 
L 189.7455 58.358002 
L 190.1919 240.888819 
L 190.6383 232.233572 
L 191.0847 232.028291 
L 191.5311 247.017088 
L 191.9775 233.220764 
L 192.4239 241.2988 
L 192.8703 234.038803 
L 193.3167 238.464706 
L 193.7631 221.789221 
L 194.2095 227.267683 
L 194.6559 235.971682 
L 195.1023 220.348625 
L 195.5487 322.816417 
L 195.9951 334.081703 
L 196.4415 336.715388 
L 196.8879 324.40436 
L 197.3343 322.888029 
L 198.2271 333.676817 
L 198.6735 325.003093 
L 199.1199 330.545123 
L 199.5663 332.155508 
L 200.0127 331.287568 
L 200.4591 336.438992 
L 200.9055 322.861883 
L 201.3519 327.461253 
L 201.7983 326.214469 
L 202.2447 332.493265 
L 202.6911 325.563254 
L 203.1375 312.664426 
L 203.5839 315.348299 
L 204.0303 319.93997 
L 204.4767 333.49457 
L 204.9231 325.674424 
L 205.3695 320.789854 
L 205.8159 314.263683 
L 206.2623 318.690593 
L 206.7087 296.735292 
L 207.1551 318.949421 
L 207.6015 324.253431 
L 208.0479 312.524206 
L 208.9407 322.487312 
L 209.3871 323.140752 
L 209.8335 298.507873 
L 210.2799 324.26402 
L 210.7263 325.662794 
L 211.1727 324.01453 
L 211.6191 294.341725 
L 212.0655 324.279346 
L 212.5119 323.14366 
L 212.9583 320.1126 
L 213.4047 322.437167 
L 213.8511 318.315582 
L 214.2975 295.923867 
L 214.7439 313.247888 
L 215.1903 320.211516 
L 215.6367 322.371668 
L 216.0831 325.902283 
L 216.5295 307.425601 
L 216.9759 309.868121 
L 217.4223 324.747911 
L 218.3151 309.812134 
L 218.7615 312.733113 
L 219.6543 295.872097 
L 220.1007 326.211276 
L 220.5471 323.595293 
L 221.4399 288.629714 
L 221.8863 325.991586 
L 222.3327 326.779107 
L 222.7791 284.269369 
L 223.2255 327.721285 
L 223.6719 327.737861 
L 224.1183 326.539022 
L 224.5647 326.43713 
L 225.0111 307.438907 
L 225.4575 325.262618 
L 225.9039 316.339785 
L 226.3503 212.135452 
L 226.7967 326.660678 
L 227.2431 321.993049 
L 227.6895 324.612453 
L 228.1359 220.260482 
L 228.5823 329.616676 
L 229.0287 319.048948 
L 229.4751 327.370625 
L 229.9215 323.217576 
L 230.3679 326.082344 
L 230.8143 324.129847 
L 231.2607 322.751837 
L 231.7071 311.669133 
L 232.1535 325.357569 
L 232.5999 324.485799 
L 233.0463 249.993001 
L 233.4927 324.843583 
L 233.9391 319.178685 
L 234.3855 328.515082 
L 234.8319 320.294642 
L 235.2783 324.993324 
L 235.7247 328.372291 
L 236.1711 327.884448 
L 236.6175 316.581335 
L 237.0639 315.679599 
L 237.5103 329.293862 
L 237.9567 323.612133 
L 238.4031 328.163394 
L 238.8495 330.652786 
L 239.2959 319.604054 
L 239.7423 329.796394 
L 240.1887 326.802549 
L 240.6351 325.051315 
L 241.0815 328.663824 
L 241.5279 317.419259 
L 241.9743 321.013753 
L 242.4207 326.889982 
L 242.8671 330.397874 
L 243.3135 329.753757 
L 243.7599 311.603066 
L 244.2063 325.929032 
L 244.6527 328.392418 
L 245.0991 276.265854 
L 245.5455 325.770776 
L 245.9919 324.380928 
L 246.4383 329.13035 
L 246.8847 318.753344 
L 247.3311 327.684139 
L 247.7775 326.849833 
L 248.2239 327.804257 
L 248.6703 312.978461 
L 249.1167 304.712762 
L 249.5631 310.726402 
L 250.0095 328.771896 
L 250.9023 328.736588 
L 251.3487 327.017461 
L 251.7951 319.036585 
L 252.2415 317.21103 
L 252.6879 326.858437 
L 253.1343 325.237001 
L 253.5807 325.846651 
L 254.0271 327.955153 
L 254.4735 255.877568 
L 254.9199 323.33463 
L 255.3663 325.761951 
L 255.8127 307.336392 
L 256.2591 325.981137 
L 256.7055 323.78305 
L 257.1519 251.771723 
L 257.5983 303.032259 
L 258.0447 301.082579 
L 258.4911 308.833072 
L 258.9375 299.571492 
L 259.3839 299.193565 
L 259.8303 325.911591 
L 260.2767 284.744462 
L 260.7231 311.478639 
L 261.1695 269.381349 
L 261.6159 326.351479 
L 262.0623 210.238698 
L 262.5087 325.475231 
L 263.4015 219.629526 
L 263.8479 221.8816 
L 264.2943 189.611837 
L 264.7407 306.28374 
L 265.1871 299.43445 
L 265.6335 197.671166 
L 266.0799 185.691962 
L 266.5263 331.997596 
L 266.9727 244.749669 
L 267.4191 278.599478 
L 267.8655 290.736284 
L 268.3119 314.268696 
L 268.7583 244.779822 
L 269.2047 257.754081 
L 269.6511 330.178283 
L 270.0975 335.107436 
L 270.5439 322.640045 
L 270.9903 328.78646 
L 271.4367 325.747868 
L 271.8831 317.48198 
L 272.3295 338.814872 
L 272.7759 320.445305 
L 273.2223 329.294595 
L 274.1151 309.293244 
L 274.5615 325.886109 
L 275.0079 327.286255 
L 275.4543 340.199433 
L 275.9007 327.116175 
L 276.3471 337.191431 
L 276.7935 336.017473 
L 277.2399 331.142393 
L 277.6863 329.873536 
L 278.1327 334.617601 
L 278.5791 335.252375 
L 279.0255 331.368862 
L 279.4719 322.569249 
L 279.9183 329.675491 
L 280.3647 331.066535 
L 280.8111 335.455762 
L 282.1503 326.541918 
L 282.5967 330.088002 
L 283.0431 330.362735 
L 283.4895 333.520862 
L 283.9359 315.266546 
L 284.3823 330.627296 
L 284.8287 331.711765 
L 285.2751 335.74303 
L 286.1679 331.248947 
L 286.6143 327.824645 
L 287.0607 336.436586 
L 287.5071 334.443699 
L 287.9535 331.651397 
L 288.3999 328.017024 
L 288.8463 330.364781 
L 289.2927 337.624993 
L 289.7391 334.366425 
L 290.1855 325.472665 
L 290.6319 344.292686 
L 291.0783 335.64808 
L 291.5247 337.510454 
L 291.9711 338.379467 
L 292.4175 303.532037 
L 292.8639 339.858684 
L 293.3103 328.817193 
L 293.7567 344.285814 
L 294.2031 337.25678 
L 294.6495 333.753824 
L 295.0959 332.674242 
L 295.5423 339.038621 
L 295.9887 347.103222 
L 296.4351 334.863747 
L 296.8815 330.111524 
L 297.3279 327.996845 
L 297.7743 317.900875 
L 298.2207 340.585821 
L 298.6671 329.518563 
L 299.1135 325.018954 
L 299.5599 335.861735 
L 300.0063 338.010928 
L 300.4527 322.359027 
L 300.8991 333.155879 
L 301.3455 317.298956 
L 301.7919 326.62185 
L 302.2383 325.647702 
L 302.6847 331.737224 
L 303.1311 311.92712 
L 303.5775 313.491638 
L 304.0239 324.341242 
L 304.4703 326.788503 
L 304.9167 324.832797 
L 305.3631 332.42787 
L 305.8095 331.316568 
L 306.2559 319.951535 
L 306.7023 327.734913 
L 307.1487 324.673002 
L 307.5951 300.473267 
L 308.0415 330.725836 
L 308.4879 314.370095 
L 308.9343 327.459236 
L 309.3807 300.785102 
L 309.8271 329.306805 
L 310.2735 328.490741 
L 310.7199 328.280518 
L 311.1663 330.263999 
L 311.6127 320.874822 
L 312.0591 292.517872 
L 312.5055 325.982517 
L 312.9519 326.380272 
L 313.3983 327.046418 
L 313.8447 322.810356 
L 314.2911 328.593612 
L 314.7375 330.876913 
L 315.1839 322.588366 
L 315.6303 301.300259 
L 316.0767 295.015384 
L 316.5231 325.847738 
L 316.9695 300.578918 
L 317.4159 291.373386 
L 317.8623 296.159707 
L 318.3087 288.938958 
L 318.7551 335.158467 
L 319.2015 298.05915 
L 319.6479 328.847661 
L 320.0943 314.45994 
L 320.5407 288.822613 
L 320.9871 323.643202 
L 321.4335 302.796493 
L 321.8799 276.73826 
L 322.3263 283.366803 
L 322.7727 270.038726 
L 323.2191 273.589422 
L 323.6655 278.058164 
L 324.5583 293.982029 
L 325.0047 293.253801 
L 325.4511 301.202595 
L 325.8975 295.011622 
L 326.3439 299.692451 
L 326.7903 297.853436 
L 327.2367 299.380322 
L 327.6831 299.66007 
L 328.1295 301.995336 
L 329.0223 298.273812 
L 329.4687 299.020484 
L 329.9151 301.758272 
L 330.8079 298.598019 
L 331.2543 304.710418 
L 331.7007 306.162892 
L 332.1471 305.737785 
L 332.5935 306.589008 
L 333.0399 305.74689 
L 333.4863 306.828813 
L 333.9327 305.318405 
L 334.3791 308.944223 
L 334.8255 307.203925 
L 335.2719 306.722625 
L 335.7183 268.9175 
L 336.1647 311.877695 
L 336.6111 309.512386 
L 337.0575 268.818792 
L 337.5039 305.572857 
L 337.9503 313.606035 
L 338.3967 239.4195 
L 338.8431 305.678065 
L 339.2895 249.392867 
L 339.7359 269.98186 
L 340.1823 306.328617 
L 340.6287 309.984981 
L 341.0751 296.287983 
L 341.5215 309.767893 
L 341.9679 256.359287 
L 342.4143 310.511641 
L 342.8607 311.95056 
L 343.3071 309.867787 
L 343.7535 326.227008 
L 344.1999 331.30845 
L 344.6463 337.874311 
L 345.0927 324.18648 
L 345.5391 333.705139 
L 345.9855 329.64679 
L 346.4319 328.143828 
L 346.8783 341.20789 
L 347.3247 328.785986 
L 347.7711 329.659758 
L 348.2175 326.898512 
L 348.6639 322.707192 
L 349.1103 338.9616 
L 350.0031 327.225907 
L 350.4495 329.608336 
L 351.3423 323.910433 
L 351.7887 327.611017 
L 352.2351 326.924722 
L 352.6815 327.039995 
L 353.1279 321.600784 
L 353.5743 326.142219 
L 354.0207 324.401126 
L 354.4671 327.840211 
L 354.9135 326.497573 
L 355.3599 326.591007 
L 355.8063 325.24321 
L 356.2527 331.771383 
L 356.6991 329.974309 
L 357.1455 329.110089 
L 357.5919 324.960359 
L 358.0383 330.232446 
L 358.4847 327.266584 
L 358.9311 331.483553 
L 359.3775 325.350909 
L 359.8239 328.119494 
L 360.2703 329.053619 
L 360.7167 330.552184 
L 361.1631 331.067704 
L 361.6095 325.643415 
L 362.0559 326.416982 
L 362.5023 327.823691 
L 362.9487 327.569436 
L 363.3951 327.794402 
L 363.8415 328.658808 
L 364.2879 327.617644 
L 364.7343 326.135276 
L 365.1807 328.166385 
L 365.6271 331.285555 
L 366.0735 329.735947 
L 366.5199 326.392329 
L 366.9663 328.695146 
L 367.4127 327.545227 
L 367.8591 326.902792 
L 368.3055 328.187275 
L 368.7519 326.055799 
L 369.1983 327.618366 
L 369.6447 325.968266 
L 370.0911 328.630554 
L 370.9839 326.192614 
L 371.4303 326.01668 
L 371.8767 326.622159 
L 372.3231 326.595504 
L 372.7695 300.587962 
L 373.2159 329.591306 
L 373.6623 330.963472 
L 374.1087 325.816902 
L 374.5551 328.06436 
L 375.0015 328.129095 
L 375.4479 327.552234 
L 375.8943 324.205057 
L 376.3407 329.6872 
L 376.7871 325.501429 
L 377.2335 327.81553 
L 377.6799 327.86179 
L 378.1263 327.677783 
L 378.5727 326.017501 
L 379.0191 325.907701 
L 379.4655 328.105202 
L 379.9119 324.634851 
L 380.3583 329.97797 
L 380.8047 297.170296 
L 381.2511 325.178146 
L 381.6975 327.004493 
L 382.1439 327.900654 
L 382.5903 327.133598 
L 383.0367 331.730151 
L 383.4831 328.608371 
L 383.9295 326.306918 
L 384.3759 330.148041 
L 384.8223 304.03034 
L 385.2687 329.82012 
L 385.7151 325.75935 
L 386.1615 322.939696 
L 386.6079 324.319605 
L 387.0543 327.220023 
L 387.5007 326.706688 
L 387.9471 331.358325 
L 388.3935 332.492676 
L 388.8399 323.423449 
L 389.2863 327.344973 
L 389.7327 303.920613 
L 390.1791 324.432808 
L 390.6255 310.949081 
L 391.0719 327.942677 
L 391.9647 328.136967 
L 392.4111 331.603717 
L 392.8575 327.455867 
L 393.3039 325.175461 
L 393.7503 321.908882 
L 394.1967 323.298629 
L 394.6431 326.513775 
L 395.0895 327.441675 
L 395.5359 328.816678 
L 396.4287 325.820022 
L 396.8751 314.493755 
L 397.3215 328.498562 
L 397.7679 325.217223 
L 398.2143 314.813818 
L 398.6607 329.537408 
L 399.1071 310.958807 
L 399.9999 327.602779 
L 400.4463 328.279385 
L 400.8927 317.424107 
L 401.3391 313.822297 
L 401.7855 324.380563 
L 402.2319 327.097693 
L 402.6783 317.961867 
L 403.1247 322.625671 
L 403.5711 323.818762 
L 404.0175 329.240772 
L 404.4639 327.646319 
L 404.9103 321.933732 
L 405.3567 312.508731 
L 405.8031 318.314253 
L 406.2495 298.228909 
L 406.6959 328.751354 
L 407.1423 327.829955 
L 407.5887 263.030629 
L 408.0351 316.646049 
L 408.4815 329.606203 
L 408.9279 293.197582 
L 409.3743 315.539924 
L 409.8207 319.278373 
L 410.2671 291.638566 
L 410.7135 296.765433 
L 411.1599 297.775808 
L 412.0527 314.430207 
L 412.4991 303.96693 
L 412.9455 280.694238 
L 413.3919 313.021994 
L 413.8383 314.936015 
L 414.2847 298.788948 
L 414.7311 314.105294 
L 415.1775 284.687709 
L 415.6239 317.141259 
L 416.0703 271.779211 
L 416.5167 315.589905 
L 416.9631 301.389831 
L 417.8559 329.897757 
L 418.3023 329.862246 
L 418.7487 328.726472 
L 419.1951 324.056419 
L 419.6415 327.083219 
L 420.0879 310.57948 
L 420.5343 327.310814 
L 420.9807 334.711042 
L 421.4271 321.215629 
L 421.8735 302.543784 
L 422.3199 336.80782 
L 422.7663 324.319387 
L 423.2127 332.582976 
L 423.6591 318.565364 
L 424.1055 316.497346 
L 424.5519 322.908737 
L 424.9983 327.626972 
L 425.8911 312.154451 
L 426.3375 327.87127 
L 426.7839 326.179585 
L 427.2303 321.448105 
L 427.6767 328.188333 
L 428.1231 328.789372 
L 428.5695 329.114473 
L 429.0159 314.381849 
L 429.4623 312.475167 
L 429.9087 330.402329 
L 430.8015 328.844215 
L 431.2479 326.630405 
L 431.6943 312.439277 
L 432.1407 313.323841 
L 432.5871 327.218977 
L 433.0335 325.120168 
L 433.4799 328.368137 
L 433.9263 326.800186 
L 434.3727 315.075687 
L 434.8191 323.270611 
L 435.2655 324.066863 
L 435.7119 327.111076 
L 436.1583 312.728284 
L 436.6047 325.370531 
L 437.0511 310.553575 
L 437.4975 323.054666 
L 437.9439 327.226318 
L 438.3903 324.721705 
L 438.8367 329.427015 
L 439.2831 324.575068 
L 439.7295 310.571316 
L 440.1759 325.293609 
L 440.6223 321.029066 
L 441.0687 326.870805 
L 441.5151 328.657544 
L 441.9615 326.781744 
L 442.4079 327.656295 
L 442.8543 319.555815 
L 443.3007 325.003847 
L 443.7471 324.586652 
L 444.1935 327.709314 
L 444.6399 322.237683 
L 445.0863 325.171812 
L 445.5327 326.300815 
L 445.9791 326.926186 
L 446.4255 330.967085 
L 446.8719 324.250561 
L 447.3183 323.828911 
L 447.7647 325.101894 
L 448.2111 336.474151 
L 448.6575 326.591783 
L 449.1039 337.835174 
L 449.5503 311.236019 
L 449.9967 337.482817 
L 450.4431 328.613298 
L 450.8895 332.786808 
L 451.3359 327.037377 
L 451.7823 329.118547 
L 452.2287 327.291659 
L 452.6751 314.483754 
L 453.1215 297.88622 
L 453.5679 331.114325 
L 454.0143 324.917474 
L 454.4607 330.713844 
L 454.9071 298.267875 
L 455.3535 310.727344 
L 455.7999 335.678231 
L 456.2463 280.773602 
L 456.6927 266.906089 
L 457.1391 259.52615 
L 457.5855 336.767755 
L 458.0319 292.960649 
L 458.4783 328.409604 
L 458.9247 294.236513 
L 459.3711 194.619375 
L 459.8175 304.222364 
L 460.2639 282.652381 
L 460.7103 277.655441 
L 461.1567 297.049208 
L 461.6031 265.36011 
L 462.0495 315.718609 
L 462.4959 261.72389 
L 462.9423 290.448714 
L 463.3887 302.812083 
L 463.8351 286.094301 
L 464.2815 294.454202 
L 464.7279 280.11385 
L 465.1743 282.872519 
L 465.6207 288.051911 
L 466.0671 285.768168 
L 466.5135 290.370083 
L 466.9599 274.717967 
L 467.4063 272.696422 
L 467.8527 253.658154 
L 468.2991 258.34029 
L 468.7455 276.90807 
L 469.1919 285.774174 
L 469.6383 280.864537 
L 470.0847 299.953117 
L 470.5311 284.543473 
L 470.9775 290.323146 
L 471.4239 286.90701 
L 471.8703 307.015384 
L 472.3167 292.998336 
L 472.7631 301.607342 
L 473.2095 296.068017 
L 473.6559 312.332095 
L 474.1023 287.669348 
L 474.5487 301.810562 
L 474.9951 308.3503 
L 475.4415 304.47179 
L 475.8879 292.101287 
L 476.3343 306.876222 
L 476.7807 296.618728 
L 477.2271 298.125158 
L 478.1199 244.119349 
L 478.5663 265.896862 
L 479.0127 257.717329 
L 479.4591 300.817229 
L 479.9055 302.902051 
L 480.3519 268.45725 
L 480.7983 251.957122 
L 481.2447 267.132584 
L 481.6911 310.68037 
L 482.1375 283.521707 
L 482.5839 317.433606 
L 483.0303 310.7309 
L 483.4767 297.304103 
L 483.9231 240.513028 
L 484.3695 300.01777 
L 484.8159 252.532683 
L 485.2623 281.748264 
L 485.7087 246.783793 
L 486.1551 293.922059 
L 486.6015 241.684505 
L 487.0479 256.876992 
L 487.4943 298.960787 
L 487.9407 287.874302 
L 488.8335 300.111667 
L 489.2799 265.126722 
L 489.7263 293.118915 
L 490.6191 299.616181 
L 491.0655 297.388028 
L 491.5119 275.981386 
L 491.5119 275.981386 
" style="fill:none;stroke:#0000ff;stroke-linecap:square;stroke-width:0.5;"/>
   </g>
   <g id="line2d_2">
    <path clip-path="url(#p012e792f89)" d="M 120.9999 368.74175 
L 120.9999 23.14175 
" style="fill:none;stroke:#008000;stroke-dasharray:1.000000,3.000000;stroke-dashoffset:0.0;stroke-width:0.5;"/>
   </g>
   <g id="line2d_3">
    <path clip-path="url(#p012e792f89)" d="M 195.1023 368.74175 
L 195.1023 23.14175 
" style="fill:none;stroke:#008000;stroke-dasharray:1.000000,3.000000;stroke-dashoffset:0.0;stroke-width:0.5;"/>
   </g>
   <g id="line2d_4">
    <path clip-path="url(#p012e792f89)" d="M 269.2047 368.74175 
L 269.2047 23.14175 
" style="fill:none;stroke:#008000;stroke-dasharray:1.000000,3.000000;stroke-dashoffset:0.0;stroke-width:0.5;"/>
   </g>
   <g id="line2d_5">
    <path clip-path="url(#p012e792f89)" d="M 343.3071 368.74175 
L 343.3071 23.14175 
" style="fill:none;stroke:#008000;stroke-dasharray:1.000000,3.000000;stroke-dashoffset:0.0;stroke-width:0.5;"/>
   </g>
   <g id="line2d_6">
    <path clip-path="url(#p012e792f89)" d="M 417.4095 368.74175 
L 417.4095 23.14175 
" style="fill:none;stroke:#008000;stroke-dasharray:1.000000,3.000000;stroke-dashoffset:0.0;stroke-width:0.5;"/>
   </g>
   <g id="line2d_7">
    <path clip-path="url(#p012e792f89)" d="M 491.5119 368.74175 
L 491.5119 23.14175 
" style="fill:none;stroke:#008000;stroke-dasharray:1.000000,3.000000;stroke-dashoffset:0.0;stroke-width:0.5;"/>
   </g>
   <g id="patch_3">
    <path d="M 46.8975 368.74175 
L 46.8975 23.14175 
" style="fill:none;stroke:#000000;stroke-linecap:square;stroke-linejoin:miter;"/>
   </g>
   <g id="patch_4">
    <path d="M 493.2975 368.74175 
L 493.2975 23.14175 
" style="fill:none;stroke:#000000;stroke-linecap:square;stroke-linejoin:miter;"/>
   </g>
   <g id="patch_5">
    <path d="M 46.8975 368.74175 
L 493.2975 368.74175 
" style="fill:none;stroke:#000000;stroke-linecap:square;stroke-linejoin:miter;"/>
   </g>
   <g id="patch_6">
    <path d="M 46.8975 23.14175 
L 493.2975 23.14175 
" style="fill:none;stroke:#000000;stroke-linecap:square;stroke-linejoin:miter;"/>
   </g>
   <g id="matplotlib.axis_1">
    <g id="xtick_1">
     <g id="line2d_8">
      <defs>
       <path d="M 0 0 
L 0 -4 
" id="mc198d66039" style="stroke:#000000;stroke-width:0.5;"/>
      </defs>
      <g>
       <use style="stroke:#000000;stroke-width:0.5;" x="46.8975" xlink:href="#mc198d66039" y="368.74175"/>
      </g>
     </g>
     <g id="line2d_9">
      <defs>
       <path d="M 0 0 
L 0 4 
" id="mb39a1ccf25" style="stroke:#000000;stroke-width:0.5;"/>
      </defs>
      <g>
       <use style="stroke:#000000;stroke-width:0.5;" x="46.8975" xlink:href="#mb39a1ccf25" y="23.14175"/>
      </g>
     </g>
     <g id="text_1">
      <!-- 0 -->
      <defs>
       <path d="M 31.78125 66.40625 
Q 24.171875 66.40625 20.328125 58.90625 
Q 16.5 51.421875 16.5 36.375 
Q 16.5 21.390625 20.328125 13.890625 
Q 24.171875 6.390625 31.78125 6.390625 
Q 39.453125 6.390625 43.28125 13.890625 
Q 47.125 21.390625 47.125 36.375 
Q 47.125 51.421875 43.28125 58.90625 
Q 39.453125 66.40625 31.78125 66.40625 
M 31.78125 74.21875 
Q 44.046875 74.21875 50.515625 64.515625 
Q 56.984375 54.828125 56.984375 36.375 
Q 56.984375 17.96875 50.515625 8.265625 
Q 44.046875 -1.421875 31.78125 -1.421875 
Q 19.53125 -1.421875 13.0625 8.265625 
Q 6.59375 17.96875 6.59375 36.375 
Q 6.59375 54.828125 13.0625 64.515625 
Q 19.53125 74.21875 31.78125 74.21875 
" id="BitstreamVeraSans-Roman-30"/>
      </defs>
      <g transform="translate(43.08 381.859875)scale(0.12 -0.12)">
       <use xlink:href="#BitstreamVeraSans-Roman-30"/>
      </g>
     </g>
    </g>
    <g id="xtick_2">
     <g id="line2d_10">
      <g>
       <use style="stroke:#000000;stroke-width:0.5;" x="136.1775" xlink:href="#mc198d66039" y="368.74175"/>
      </g>
     </g>
     <g id="line2d_11">
      <g>
       <use style="stroke:#000000;stroke-width:0.5;" x="136.1775" xlink:href="#mb39a1ccf25" y="23.14175"/>
      </g>
     </g>
     <g id="text_2">
      <!-- 10000 -->
      <defs>
       <path d="M 12.40625 8.296875 
L 28.515625 8.296875 
L 28.515625 63.921875 
L 10.984375 60.40625 
L 10.984375 69.390625 
L 28.421875 72.90625 
L 38.28125 72.90625 
L 38.28125 8.296875 
L 54.390625 8.296875 
L 54.390625 0 
L 12.40625 0 
z
" id="BitstreamVeraSans-Roman-31"/>
      </defs>
      <g transform="translate(117.09 381.859875)scale(0.12 -0.12)">
       <use xlink:href="#BitstreamVeraSans-Roman-31"/>
       <use x="63.623046875" xlink:href="#BitstreamVeraSans-Roman-30"/>
       <use x="127.24609375" xlink:href="#BitstreamVeraSans-Roman-30"/>
       <use x="190.869140625" xlink:href="#BitstreamVeraSans-Roman-30"/>
       <use x="254.4921875" xlink:href="#BitstreamVeraSans-Roman-30"/>
      </g>
     </g>
    </g>
    <g id="xtick_3">
     <g id="line2d_12">
      <g>
       <use style="stroke:#000000;stroke-width:0.5;" x="225.4575" xlink:href="#mc198d66039" y="368.74175"/>
      </g>
     </g>
     <g id="line2d_13">
      <g>
       <use style="stroke:#000000;stroke-width:0.5;" x="225.4575" xlink:href="#mb39a1ccf25" y="23.14175"/>
      </g>
     </g>
     <g id="text_3">
      <!-- 20000 -->
      <defs>
       <path d="M 19.1875 8.296875 
L 53.609375 8.296875 
L 53.609375 0 
L 7.328125 0 
L 7.328125 8.296875 
Q 12.9375 14.109375 22.625 23.890625 
Q 32.328125 33.6875 34.8125 36.53125 
Q 39.546875 41.84375 41.421875 45.53125 
Q 43.3125 49.21875 43.3125 52.78125 
Q 43.3125 58.59375 39.234375 62.25 
Q 35.15625 65.921875 28.609375 65.921875 
Q 23.96875 65.921875 18.8125 64.3125 
Q 13.671875 62.703125 7.8125 59.421875 
L 7.8125 69.390625 
Q 13.765625 71.78125 18.9375 73 
Q 24.125 74.21875 28.421875 74.21875 
Q 39.75 74.21875 46.484375 68.546875 
Q 53.21875 62.890625 53.21875 53.421875 
Q 53.21875 48.921875 51.53125 44.890625 
Q 49.859375 40.875 45.40625 35.40625 
Q 44.1875 33.984375 37.640625 27.21875 
Q 31.109375 20.453125 19.1875 8.296875 
" id="BitstreamVeraSans-Roman-32"/>
      </defs>
      <g transform="translate(206.37 381.859875)scale(0.12 -0.12)">
       <use xlink:href="#BitstreamVeraSans-Roman-32"/>
       <use x="63.623046875" xlink:href="#BitstreamVeraSans-Roman-30"/>
       <use x="127.24609375" xlink:href="#BitstreamVeraSans-Roman-30"/>
       <use x="190.869140625" xlink:href="#BitstreamVeraSans-Roman-30"/>
       <use x="254.4921875" xlink:href="#BitstreamVeraSans-Roman-30"/>
      </g>
     </g>
    </g>
    <g id="xtick_4">
     <g id="line2d_14">
      <g>
       <use style="stroke:#000000;stroke-width:0.5;" x="314.7375" xlink:href="#mc198d66039" y="368.74175"/>
      </g>
     </g>
     <g id="line2d_15">
      <g>
       <use style="stroke:#000000;stroke-width:0.5;" x="314.7375" xlink:href="#mb39a1ccf25" y="23.14175"/>
      </g>
     </g>
     <g id="text_4">
      <!-- 30000 -->
      <defs>
       <path d="M 40.578125 39.3125 
Q 47.65625 37.796875 51.625 33 
Q 55.609375 28.21875 55.609375 21.1875 
Q 55.609375 10.40625 48.1875 4.484375 
Q 40.765625 -1.421875 27.09375 -1.421875 
Q 22.515625 -1.421875 17.65625 -0.515625 
Q 12.796875 0.390625 7.625 2.203125 
L 7.625 11.71875 
Q 11.71875 9.328125 16.59375 8.109375 
Q 21.484375 6.890625 26.8125 6.890625 
Q 36.078125 6.890625 40.9375 10.546875 
Q 45.796875 14.203125 45.796875 21.1875 
Q 45.796875 27.640625 41.28125 31.265625 
Q 36.765625 34.90625 28.71875 34.90625 
L 20.21875 34.90625 
L 20.21875 43.015625 
L 29.109375 43.015625 
Q 36.375 43.015625 40.234375 45.921875 
Q 44.09375 48.828125 44.09375 54.296875 
Q 44.09375 59.90625 40.109375 62.90625 
Q 36.140625 65.921875 28.71875 65.921875 
Q 24.65625 65.921875 20.015625 65.03125 
Q 15.375 64.15625 9.8125 62.3125 
L 9.8125 71.09375 
Q 15.4375 72.65625 20.34375 73.4375 
Q 25.25 74.21875 29.59375 74.21875 
Q 40.828125 74.21875 47.359375 69.109375 
Q 53.90625 64.015625 53.90625 55.328125 
Q 53.90625 49.265625 50.4375 45.09375 
Q 46.96875 40.921875 40.578125 39.3125 
" id="BitstreamVeraSans-Roman-33"/>
      </defs>
      <g transform="translate(295.65 381.859875)scale(0.12 -0.12)">
       <use xlink:href="#BitstreamVeraSans-Roman-33"/>
       <use x="63.623046875" xlink:href="#BitstreamVeraSans-Roman-30"/>
       <use x="127.24609375" xlink:href="#BitstreamVeraSans-Roman-30"/>
       <use x="190.869140625" xlink:href="#BitstreamVeraSans-Roman-30"/>
       <use x="254.4921875" xlink:href="#BitstreamVeraSans-Roman-30"/>
      </g>
     </g>
    </g>
    <g id="xtick_5">
     <g id="line2d_16">
      <g>
       <use style="stroke:#000000;stroke-width:0.5;" x="404.0175" xlink:href="#mc198d66039" y="368.74175"/>
      </g>
     </g>
     <g id="line2d_17">
      <g>
       <use style="stroke:#000000;stroke-width:0.5;" x="404.0175" xlink:href="#mb39a1ccf25" y="23.14175"/>
      </g>
     </g>
     <g id="text_5">
      <!-- 40000 -->
      <defs>
       <path d="M 37.796875 64.3125 
L 12.890625 25.390625 
L 37.796875 25.390625 
z
M 35.203125 72.90625 
L 47.609375 72.90625 
L 47.609375 25.390625 
L 58.015625 25.390625 
L 58.015625 17.1875 
L 47.609375 17.1875 
L 47.609375 0 
L 37.796875 0 
L 37.796875 17.1875 
L 4.890625 17.1875 
L 4.890625 26.703125 
z
" id="BitstreamVeraSans-Roman-34"/>
      </defs>
      <g transform="translate(384.93 381.859875)scale(0.12 -0.12)">
       <use xlink:href="#BitstreamVeraSans-Roman-34"/>
       <use x="63.623046875" xlink:href="#BitstreamVeraSans-Roman-30"/>
       <use x="127.24609375" xlink:href="#BitstreamVeraSans-Roman-30"/>
       <use x="190.869140625" xlink:href="#BitstreamVeraSans-Roman-30"/>
       <use x="254.4921875" xlink:href="#BitstreamVeraSans-Roman-30"/>
      </g>
     </g>
    </g>
    <g id="xtick_6">
     <g id="line2d_18">
      <g>
       <use style="stroke:#000000;stroke-width:0.5;" x="493.2975" xlink:href="#mc198d66039" y="368.74175"/>
      </g>
     </g>
     <g id="line2d_19">
      <g>
       <use style="stroke:#000000;stroke-width:0.5;" x="493.2975" xlink:href="#mb39a1ccf25" y="23.14175"/>
      </g>
     </g>
     <g id="text_6">
      <!-- 50000 -->
      <defs>
       <path d="M 10.796875 72.90625 
L 49.515625 72.90625 
L 49.515625 64.59375 
L 19.828125 64.59375 
L 19.828125 46.734375 
Q 21.96875 47.46875 24.109375 47.828125 
Q 26.265625 48.1875 28.421875 48.1875 
Q 40.625 48.1875 47.75 41.5 
Q 54.890625 34.8125 54.890625 23.390625 
Q 54.890625 11.625 47.5625 5.09375 
Q 40.234375 -1.421875 26.90625 -1.421875 
Q 22.3125 -1.421875 17.546875 -0.640625 
Q 12.796875 0.140625 7.71875 1.703125 
L 7.71875 11.625 
Q 12.109375 9.234375 16.796875 8.0625 
Q 21.484375 6.890625 26.703125 6.890625 
Q 35.15625 6.890625 40.078125 11.328125 
Q 45.015625 15.765625 45.015625 23.390625 
Q 45.015625 31 40.078125 35.4375 
Q 35.15625 39.890625 26.703125 39.890625 
Q 22.75 39.890625 18.8125 39.015625 
Q 14.890625 38.140625 10.796875 36.28125 
z
" id="BitstreamVeraSans-Roman-35"/>
      </defs>
      <g transform="translate(474.21 381.859875)scale(0.12 -0.12)">
       <use xlink:href="#BitstreamVeraSans-Roman-35"/>
       <use x="63.623046875" xlink:href="#BitstreamVeraSans-Roman-30"/>
       <use x="127.24609375" xlink:href="#BitstreamVeraSans-Roman-30"/>
       <use x="190.869140625" xlink:href="#BitstreamVeraSans-Roman-30"/>
       <use x="254.4921875" xlink:href="#BitstreamVeraSans-Roman-30"/>
      </g>
     </g>
    </g>
    <g id="text_7">
     <!-- transitions -->
     <defs>
      <path d="M 41.109375 46.296875 
Q 39.59375 47.171875 37.8125 47.578125 
Q 36.03125 48 33.890625 48 
Q 26.265625 48 22.1875 43.046875 
Q 18.109375 38.09375 18.109375 28.8125 
L 18.109375 0 
L 9.078125 0 
L 9.078125 54.6875 
L 18.109375 54.6875 
L 18.109375 46.1875 
Q 20.953125 51.171875 25.484375 53.578125 
Q 30.03125 56 36.53125 56 
Q 37.453125 56 38.578125 55.875 
Q 39.703125 55.765625 41.0625 55.515625 
z
" id="BitstreamVeraSans-Roman-72"/>
      <path d="M 9.421875 54.6875 
L 18.40625 54.6875 
L 18.40625 0 
L 9.421875 0 
z
M 9.421875 75.984375 
L 18.40625 75.984375 
L 18.40625 64.59375 
L 9.421875 64.59375 
z
" id="BitstreamVeraSans-Roman-69"/>
      <path d="M 30.609375 48.390625 
Q 23.390625 48.390625 19.1875 42.75 
Q 14.984375 37.109375 14.984375 27.296875 
Q 14.984375 17.484375 19.15625 11.84375 
Q 23.34375 6.203125 30.609375 6.203125 
Q 37.796875 6.203125 41.984375 11.859375 
Q 46.1875 17.53125 46.1875 27.296875 
Q 46.1875 37.015625 41.984375 42.703125 
Q 37.796875 48.390625 30.609375 48.390625 
M 30.609375 56 
Q 42.328125 56 49.015625 48.375 
Q 55.71875 40.765625 55.71875 27.296875 
Q 55.71875 13.875 49.015625 6.21875 
Q 42.328125 -1.421875 30.609375 -1.421875 
Q 18.84375 -1.421875 12.171875 6.21875 
Q 5.515625 13.875 5.515625 27.296875 
Q 5.515625 40.765625 12.171875 48.375 
Q 18.84375 56 30.609375 56 
" id="BitstreamVeraSans-Roman-6f"/>
      <path d="M 34.28125 27.484375 
Q 23.390625 27.484375 19.1875 25 
Q 14.984375 22.515625 14.984375 16.5 
Q 14.984375 11.71875 18.140625 8.90625 
Q 21.296875 6.109375 26.703125 6.109375 
Q 34.1875 6.109375 38.703125 11.40625 
Q 43.21875 16.703125 43.21875 25.484375 
L 43.21875 27.484375 
z
M 52.203125 31.203125 
L 52.203125 0 
L 43.21875 0 
L 43.21875 8.296875 
Q 40.140625 3.328125 35.546875 0.953125 
Q 30.953125 -1.421875 24.3125 -1.421875 
Q 15.921875 -1.421875 10.953125 3.296875 
Q 6 8.015625 6 15.921875 
Q 6 25.140625 12.171875 29.828125 
Q 18.359375 34.515625 30.609375 34.515625 
L 43.21875 34.515625 
L 43.21875 35.40625 
Q 43.21875 41.609375 39.140625 45 
Q 35.0625 48.390625 27.6875 48.390625 
Q 23 48.390625 18.546875 47.265625 
Q 14.109375 46.140625 10.015625 43.890625 
L 10.015625 52.203125 
Q 14.9375 54.109375 19.578125 55.046875 
Q 24.21875 56 28.609375 56 
Q 40.484375 56 46.34375 49.84375 
Q 52.203125 43.703125 52.203125 31.203125 
" id="BitstreamVeraSans-Roman-61"/>
      <path d="M 44.28125 53.078125 
L 44.28125 44.578125 
Q 40.484375 46.53125 36.375 47.5 
Q 32.28125 48.484375 27.875 48.484375 
Q 21.1875 48.484375 17.84375 46.4375 
Q 14.5 44.390625 14.5 40.28125 
Q 14.5 37.15625 16.890625 35.375 
Q 19.28125 33.59375 26.515625 31.984375 
L 29.59375 31.296875 
Q 39.15625 29.25 43.1875 25.515625 
Q 47.21875 21.78125 47.21875 15.09375 
Q 47.21875 7.46875 41.1875 3.015625 
Q 35.15625 -1.421875 24.609375 -1.421875 
Q 20.21875 -1.421875 15.453125 -0.5625 
Q 10.6875 0.296875 5.421875 2 
L 5.421875 11.28125 
Q 10.40625 8.6875 15.234375 7.390625 
Q 20.0625 6.109375 24.8125 6.109375 
Q 31.15625 6.109375 34.5625 8.28125 
Q 37.984375 10.453125 37.984375 14.40625 
Q 37.984375 18.0625 35.515625 20.015625 
Q 33.0625 21.96875 24.703125 23.78125 
L 21.578125 24.515625 
Q 13.234375 26.265625 9.515625 29.90625 
Q 5.8125 33.546875 5.8125 39.890625 
Q 5.8125 47.609375 11.28125 51.796875 
Q 16.75 56 26.8125 56 
Q 31.78125 56 36.171875 55.265625 
Q 40.578125 54.546875 44.28125 53.078125 
" id="BitstreamVeraSans-Roman-73"/>
      <path d="M 54.890625 33.015625 
L 54.890625 0 
L 45.90625 0 
L 45.90625 32.71875 
Q 45.90625 40.484375 42.875 44.328125 
Q 39.84375 48.1875 33.796875 48.1875 
Q 26.515625 48.1875 22.3125 43.546875 
Q 18.109375 38.921875 18.109375 30.90625 
L 18.109375 0 
L 9.078125 0 
L 9.078125 54.6875 
L 18.109375 54.6875 
L 18.109375 46.1875 
Q 21.34375 51.125 25.703125 53.5625 
Q 30.078125 56 35.796875 56 
Q 45.21875 56 50.046875 50.171875 
Q 54.890625 44.34375 54.890625 33.015625 
" id="BitstreamVeraSans-Roman-6e"/>
      <path d="M 18.3125 70.21875 
L 18.3125 54.6875 
L 36.8125 54.6875 
L 36.8125 47.703125 
L 18.3125 47.703125 
L 18.3125 18.015625 
Q 18.3125 11.328125 20.140625 9.421875 
Q 21.96875 7.515625 27.59375 7.515625 
L 36.8125 7.515625 
L 36.8125 0 
L 27.59375 0 
Q 17.1875 0 13.234375 3.875 
Q 9.28125 7.765625 9.28125 18.015625 
L 9.28125 47.703125 
L 2.6875 47.703125 
L 2.6875 54.6875 
L 9.28125 54.6875 
L 9.28125 70.21875 
z
" id="BitstreamVeraSans-Roman-74"/>
     </defs>
     <g transform="translate(238.3884375 398.473625)scale(0.12 -0.12)">
      <use xlink:href="#BitstreamVeraSans-Roman-74"/>
      <use x="39.208984375" xlink:href="#BitstreamVeraSans-Roman-72"/>
      <use x="80.322265625" xlink:href="#BitstreamVeraSans-Roman-61"/>
      <use x="141.6015625" xlink:href="#BitstreamVeraSans-Roman-6e"/>
      <use x="204.98046875" xlink:href="#BitstreamVeraSans-Roman-73"/>
      <use x="257.080078125" xlink:href="#BitstreamVeraSans-Roman-69"/>
      <use x="284.86328125" xlink:href="#BitstreamVeraSans-Roman-74"/>
      <use x="324.072265625" xlink:href="#BitstreamVeraSans-Roman-69"/>
      <use x="351.85546875" xlink:href="#BitstreamVeraSans-Roman-6f"/>
      <use x="413.037109375" xlink:href="#BitstreamVeraSans-Roman-6e"/>
      <use x="476.416015625" xlink:href="#BitstreamVeraSans-Roman-73"/>
     </g>
    </g>
   </g>
   <g id="matplotlib.axis_2">
    <g id="ytick_1">
     <g id="line2d_20">
      <defs>
       <path d="M 0 0 
L 4 0 
" id="m2d32c9f57e" style="stroke:#000000;stroke-width:0.5;"/>
      </defs>
      <g>
       <use style="stroke:#000000;stroke-width:0.5;" x="46.8975" xlink:href="#m2d32c9f57e" y="368.74175"/>
      </g>
     </g>
     <g id="line2d_21">
      <defs>
       <path d="M 0 0 
L -4 0 
" id="m4b93e340bd" style="stroke:#000000;stroke-width:0.5;"/>
      </defs>
      <g>
       <use style="stroke:#000000;stroke-width:0.5;" x="493.2975" xlink:href="#m4b93e340bd" y="368.74175"/>
      </g>
     </g>
     <g id="text_8">
      <!-- 0.0 -->
      <defs>
       <path d="M 10.6875 12.40625 
L 21 12.40625 
L 21 0 
L 10.6875 0 
z
" id="BitstreamVeraSans-Roman-2e"/>
      </defs>
      <g transform="translate(23.81375 372.053)scale(0.12 -0.12)">
       <use xlink:href="#BitstreamVeraSans-Roman-30"/>
       <use x="63.623046875" xlink:href="#BitstreamVeraSans-Roman-2e"/>
       <use x="95.41015625" xlink:href="#BitstreamVeraSans-Roman-30"/>
      </g>
     </g>
    </g>
    <g id="ytick_2">
     <g id="line2d_22">
      <g>
       <use style="stroke:#000000;stroke-width:0.5;" x="46.8975" xlink:href="#m2d32c9f57e" y="330.34175"/>
      </g>
     </g>
     <g id="line2d_23">
      <g>
       <use style="stroke:#000000;stroke-width:0.5;" x="493.2975" xlink:href="#m4b93e340bd" y="330.34175"/>
      </g>
     </g>
     <g id="text_9">
      <!-- 0.2 -->
      <g transform="translate(23.81375 333.653)scale(0.12 -0.12)">
       <use xlink:href="#BitstreamVeraSans-Roman-30"/>
       <use x="63.623046875" xlink:href="#BitstreamVeraSans-Roman-2e"/>
       <use x="95.41015625" xlink:href="#BitstreamVeraSans-Roman-32"/>
      </g>
     </g>
    </g>
    <g id="ytick_3">
     <g id="line2d_24">
      <g>
       <use style="stroke:#000000;stroke-width:0.5;" x="46.8975" xlink:href="#m2d32c9f57e" y="291.94175"/>
      </g>
     </g>
     <g id="line2d_25">
      <g>
       <use style="stroke:#000000;stroke-width:0.5;" x="493.2975" xlink:href="#m4b93e340bd" y="291.94175"/>
      </g>
     </g>
     <g id="text_10">
      <!-- 0.4 -->
      <g transform="translate(23.81375 295.253)scale(0.12 -0.12)">
       <use xlink:href="#BitstreamVeraSans-Roman-30"/>
       <use x="63.623046875" xlink:href="#BitstreamVeraSans-Roman-2e"/>
       <use x="95.41015625" xlink:href="#BitstreamVeraSans-Roman-34"/>
      </g>
     </g>
    </g>
    <g id="ytick_4">
     <g id="line2d_26">
      <g>
       <use style="stroke:#000000;stroke-width:0.5;" x="46.8975" xlink:href="#m2d32c9f57e" y="253.54175"/>
      </g>
     </g>
     <g id="line2d_27">
      <g>
       <use style="stroke:#000000;stroke-width:0.5;" x="493.2975" xlink:href="#m4b93e340bd" y="253.54175"/>
      </g>
     </g>
     <g id="text_11">
      <!-- 0.6 -->
      <defs>
       <path d="M 33.015625 40.375 
Q 26.375 40.375 22.484375 35.828125 
Q 18.609375 31.296875 18.609375 23.390625 
Q 18.609375 15.53125 22.484375 10.953125 
Q 26.375 6.390625 33.015625 6.390625 
Q 39.65625 6.390625 43.53125 10.953125 
Q 47.40625 15.53125 47.40625 23.390625 
Q 47.40625 31.296875 43.53125 35.828125 
Q 39.65625 40.375 33.015625 40.375 
M 52.59375 71.296875 
L 52.59375 62.3125 
Q 48.875 64.0625 45.09375 64.984375 
Q 41.3125 65.921875 37.59375 65.921875 
Q 27.828125 65.921875 22.671875 59.328125 
Q 17.53125 52.734375 16.796875 39.40625 
Q 19.671875 43.65625 24.015625 45.921875 
Q 28.375 48.1875 33.59375 48.1875 
Q 44.578125 48.1875 50.953125 41.515625 
Q 57.328125 34.859375 57.328125 23.390625 
Q 57.328125 12.15625 50.6875 5.359375 
Q 44.046875 -1.421875 33.015625 -1.421875 
Q 20.359375 -1.421875 13.671875 8.265625 
Q 6.984375 17.96875 6.984375 36.375 
Q 6.984375 53.65625 15.1875 63.9375 
Q 23.390625 74.21875 37.203125 74.21875 
Q 40.921875 74.21875 44.703125 73.484375 
Q 48.484375 72.75 52.59375 71.296875 
" id="BitstreamVeraSans-Roman-36"/>
      </defs>
      <g transform="translate(23.81375 256.853)scale(0.12 -0.12)">
       <use xlink:href="#BitstreamVeraSans-Roman-30"/>
       <use x="63.623046875" xlink:href="#BitstreamVeraSans-Roman-2e"/>
       <use x="95.41015625" xlink:href="#BitstreamVeraSans-Roman-36"/>
      </g>
     </g>
    </g>
    <g id="ytick_5">
     <g id="line2d_28">
      <g>
       <use style="stroke:#000000;stroke-width:0.5;" x="46.8975" xlink:href="#m2d32c9f57e" y="215.14175"/>
      </g>
     </g>
     <g id="line2d_29">
      <g>
       <use style="stroke:#000000;stroke-width:0.5;" x="493.2975" xlink:href="#m4b93e340bd" y="215.14175"/>
      </g>
     </g>
     <g id="text_12">
      <!-- 0.8 -->
      <defs>
       <path d="M 31.78125 34.625 
Q 24.75 34.625 20.71875 30.859375 
Q 16.703125 27.09375 16.703125 20.515625 
Q 16.703125 13.921875 20.71875 10.15625 
Q 24.75 6.390625 31.78125 6.390625 
Q 38.8125 6.390625 42.859375 10.171875 
Q 46.921875 13.96875 46.921875 20.515625 
Q 46.921875 27.09375 42.890625 30.859375 
Q 38.875 34.625 31.78125 34.625 
M 21.921875 38.8125 
Q 15.578125 40.375 12.03125 44.71875 
Q 8.5 49.078125 8.5 55.328125 
Q 8.5 64.0625 14.71875 69.140625 
Q 20.953125 74.21875 31.78125 74.21875 
Q 42.671875 74.21875 48.875 69.140625 
Q 55.078125 64.0625 55.078125 55.328125 
Q 55.078125 49.078125 51.53125 44.71875 
Q 48 40.375 41.703125 38.8125 
Q 48.828125 37.15625 52.796875 32.3125 
Q 56.78125 27.484375 56.78125 20.515625 
Q 56.78125 9.90625 50.3125 4.234375 
Q 43.84375 -1.421875 31.78125 -1.421875 
Q 19.734375 -1.421875 13.25 4.234375 
Q 6.78125 9.90625 6.78125 20.515625 
Q 6.78125 27.484375 10.78125 32.3125 
Q 14.796875 37.15625 21.921875 38.8125 
M 18.3125 54.390625 
Q 18.3125 48.734375 21.84375 45.5625 
Q 25.390625 42.390625 31.78125 42.390625 
Q 38.140625 42.390625 41.71875 45.5625 
Q 45.3125 48.734375 45.3125 54.390625 
Q 45.3125 60.0625 41.71875 63.234375 
Q 38.140625 66.40625 31.78125 66.40625 
Q 25.390625 66.40625 21.84375 63.234375 
Q 18.3125 60.0625 18.3125 54.390625 
" id="BitstreamVeraSans-Roman-38"/>
      </defs>
      <g transform="translate(23.81375 218.453)scale(0.12 -0.12)">
       <use xlink:href="#BitstreamVeraSans-Roman-30"/>
       <use x="63.623046875" xlink:href="#BitstreamVeraSans-Roman-2e"/>
       <use x="95.41015625" xlink:href="#BitstreamVeraSans-Roman-38"/>
      </g>
     </g>
    </g>
    <g id="ytick_6">
     <g id="line2d_30">
      <g>
       <use style="stroke:#000000;stroke-width:0.5;" x="46.8975" xlink:href="#m2d32c9f57e" y="176.74175"/>
      </g>
     </g>
     <g id="line2d_31">
      <g>
       <use style="stroke:#000000;stroke-width:0.5;" x="493.2975" xlink:href="#m4b93e340bd" y="176.74175"/>
      </g>
     </g>
     <g id="text_13">
      <!-- 1.0 -->
      <g transform="translate(23.81375 180.053)scale(0.12 -0.12)">
       <use xlink:href="#BitstreamVeraSans-Roman-31"/>
       <use x="63.623046875" xlink:href="#BitstreamVeraSans-Roman-2e"/>
       <use x="95.41015625" xlink:href="#BitstreamVeraSans-Roman-30"/>
      </g>
     </g>
    </g>
    <g id="ytick_7">
     <g id="line2d_32">
      <g>
       <use style="stroke:#000000;stroke-width:0.5;" x="46.8975" xlink:href="#m2d32c9f57e" y="138.34175"/>
      </g>
     </g>
     <g id="line2d_33">
      <g>
       <use style="stroke:#000000;stroke-width:0.5;" x="493.2975" xlink:href="#m4b93e340bd" y="138.34175"/>
      </g>
     </g>
     <g id="text_14">
      <!-- 1.2 -->
      <g transform="translate(23.81375 141.653)scale(0.12 -0.12)">
       <use xlink:href="#BitstreamVeraSans-Roman-31"/>
       <use x="63.623046875" xlink:href="#BitstreamVeraSans-Roman-2e"/>
       <use x="95.41015625" xlink:href="#BitstreamVeraSans-Roman-32"/>
      </g>
     </g>
    </g>
    <g id="ytick_8">
     <g id="line2d_34">
      <g>
       <use style="stroke:#000000;stroke-width:0.5;" x="46.8975" xlink:href="#m2d32c9f57e" y="99.94175"/>
      </g>
     </g>
     <g id="line2d_35">
      <g>
       <use style="stroke:#000000;stroke-width:0.5;" x="493.2975" xlink:href="#m4b93e340bd" y="99.94175"/>
      </g>
     </g>
     <g id="text_15">
      <!-- 1.4 -->
      <g transform="translate(23.81375 103.253)scale(0.12 -0.12)">
       <use xlink:href="#BitstreamVeraSans-Roman-31"/>
       <use x="63.623046875" xlink:href="#BitstreamVeraSans-Roman-2e"/>
       <use x="95.41015625" xlink:href="#BitstreamVeraSans-Roman-34"/>
      </g>
     </g>
    </g>
    <g id="ytick_9">
     <g id="line2d_36">
      <g>
       <use style="stroke:#000000;stroke-width:0.5;" x="46.8975" xlink:href="#m2d32c9f57e" y="61.54175"/>
      </g>
     </g>
     <g id="line2d_37">
      <g>
       <use style="stroke:#000000;stroke-width:0.5;" x="493.2975" xlink:href="#m4b93e340bd" y="61.54175"/>
      </g>
     </g>
     <g id="text_16">
      <!-- 1.6 -->
      <g transform="translate(23.81375 64.853)scale(0.12 -0.12)">
       <use xlink:href="#BitstreamVeraSans-Roman-31"/>
       <use x="63.623046875" xlink:href="#BitstreamVeraSans-Roman-2e"/>
       <use x="95.41015625" xlink:href="#BitstreamVeraSans-Roman-36"/>
      </g>
     </g>
    </g>
    <g id="ytick_10">
     <g id="line2d_38">
      <g>
       <use style="stroke:#000000;stroke-width:0.5;" x="46.8975" xlink:href="#m2d32c9f57e" y="23.14175"/>
      </g>
     </g>
     <g id="line2d_39">
      <g>
       <use style="stroke:#000000;stroke-width:0.5;" x="493.2975" xlink:href="#m4b93e340bd" y="23.14175"/>
      </g>
     </g>
     <g id="text_17">
      <!-- 1.8 -->
      <g transform="translate(23.81375 26.453)scale(0.12 -0.12)">
       <use xlink:href="#BitstreamVeraSans-Roman-31"/>
       <use x="63.623046875" xlink:href="#BitstreamVeraSans-Roman-2e"/>
       <use x="95.41015625" xlink:href="#BitstreamVeraSans-Roman-38"/>
      </g>
     </g>
    </g>
    <g id="text_18">
     <!-- returns -->
     <defs>
      <path d="M 8.5 21.578125 
L 8.5 54.6875 
L 17.484375 54.6875 
L 17.484375 21.921875 
Q 17.484375 14.15625 20.5 10.265625 
Q 23.53125 6.390625 29.59375 6.390625 
Q 36.859375 6.390625 41.078125 11.03125 
Q 45.3125 15.671875 45.3125 23.6875 
L 45.3125 54.6875 
L 54.296875 54.6875 
L 54.296875 0 
L 45.3125 0 
L 45.3125 8.40625 
Q 42.046875 3.421875 37.71875 1 
Q 33.40625 -1.421875 27.6875 -1.421875 
Q 18.265625 -1.421875 13.375 4.4375 
Q 8.5 10.296875 8.5 21.578125 
" id="BitstreamVeraSans-Roman-75"/>
      <path d="M 56.203125 29.59375 
L 56.203125 25.203125 
L 14.890625 25.203125 
Q 15.484375 15.921875 20.484375 11.0625 
Q 25.484375 6.203125 34.421875 6.203125 
Q 39.59375 6.203125 44.453125 7.46875 
Q 49.3125 8.734375 54.109375 11.28125 
L 54.109375 2.78125 
Q 49.265625 0.734375 44.1875 -0.34375 
Q 39.109375 -1.421875 33.890625 -1.421875 
Q 20.796875 -1.421875 13.15625 6.1875 
Q 5.515625 13.8125 5.515625 26.8125 
Q 5.515625 40.234375 12.765625 48.109375 
Q 20.015625 56 32.328125 56 
Q 43.359375 56 49.78125 48.890625 
Q 56.203125 41.796875 56.203125 29.59375 
M 47.21875 32.234375 
Q 47.125 39.59375 43.09375 43.984375 
Q 39.0625 48.390625 32.421875 48.390625 
Q 24.90625 48.390625 20.390625 44.140625 
Q 15.875 39.890625 15.1875 32.171875 
z
" id="BitstreamVeraSans-Roman-65"/>
     </defs>
     <g transform="translate(16.318125 217.64675)rotate(-90.0)scale(0.12 -0.12)">
      <use xlink:href="#BitstreamVeraSans-Roman-72"/>
      <use x="41.08203125" xlink:href="#BitstreamVeraSans-Roman-65"/>
      <use x="102.60546875" xlink:href="#BitstreamVeraSans-Roman-74"/>
      <use x="141.814453125" xlink:href="#BitstreamVeraSans-Roman-75"/>
      <use x="205.193359375" xlink:href="#BitstreamVeraSans-Roman-72"/>
      <use x="246.291015625" xlink:href="#BitstreamVeraSans-Roman-6e"/>
      <use x="309.669921875" xlink:href="#BitstreamVeraSans-Roman-73"/>
     </g>
    </g>
   </g>
   <g id="text_19">
    <!-- Undiscounted returns during training -->
    <defs>
     <path d="M 45.40625 27.984375 
Q 45.40625 37.75 41.375 43.109375 
Q 37.359375 48.484375 30.078125 48.484375 
Q 22.859375 48.484375 18.828125 43.109375 
Q 14.796875 37.75 14.796875 27.984375 
Q 14.796875 18.265625 18.828125 12.890625 
Q 22.859375 7.515625 30.078125 7.515625 
Q 37.359375 7.515625 41.375 12.890625 
Q 45.40625 18.265625 45.40625 27.984375 
M 54.390625 6.78125 
Q 54.390625 -7.171875 48.1875 -13.984375 
Q 42 -20.796875 29.203125 -20.796875 
Q 24.46875 -20.796875 20.265625 -20.09375 
Q 16.0625 -19.390625 12.109375 -17.921875 
L 12.109375 -9.1875 
Q 16.0625 -11.328125 19.921875 -12.34375 
Q 23.78125 -13.375 27.78125 -13.375 
Q 36.625 -13.375 41.015625 -8.765625 
Q 45.40625 -4.15625 45.40625 5.171875 
L 45.40625 9.625 
Q 42.625 4.78125 38.28125 2.390625 
Q 33.9375 0 27.875 0 
Q 17.828125 0 11.671875 7.65625 
Q 5.515625 15.328125 5.515625 27.984375 
Q 5.515625 40.671875 11.671875 48.328125 
Q 17.828125 56 27.875 56 
Q 33.9375 56 38.28125 53.609375 
Q 42.625 51.21875 45.40625 46.390625 
L 45.40625 54.6875 
L 54.390625 54.6875 
z
" id="BitstreamVeraSans-Roman-67"/>
     <path id="BitstreamVeraSans-Roman-20"/>
     <path d="M 48.78125 52.59375 
L 48.78125 44.1875 
Q 44.96875 46.296875 41.140625 47.34375 
Q 37.3125 48.390625 33.40625 48.390625 
Q 24.65625 48.390625 19.8125 42.84375 
Q 14.984375 37.3125 14.984375 27.296875 
Q 14.984375 17.28125 19.8125 11.734375 
Q 24.65625 6.203125 33.40625 6.203125 
Q 37.3125 6.203125 41.140625 7.25 
Q 44.96875 8.296875 48.78125 10.40625 
L 48.78125 2.09375 
Q 45.015625 0.34375 40.984375 -0.53125 
Q 36.96875 -1.421875 32.421875 -1.421875 
Q 20.0625 -1.421875 12.78125 6.34375 
Q 5.515625 14.109375 5.515625 27.296875 
Q 5.515625 40.671875 12.859375 48.328125 
Q 20.21875 56 33.015625 56 
Q 37.15625 56 41.109375 55.140625 
Q 45.0625 54.296875 48.78125 52.59375 
" id="BitstreamVeraSans-Roman-63"/>
     <path d="M 45.40625 46.390625 
L 45.40625 75.984375 
L 54.390625 75.984375 
L 54.390625 0 
L 45.40625 0 
L 45.40625 8.203125 
Q 42.578125 3.328125 38.25 0.953125 
Q 33.9375 -1.421875 27.875 -1.421875 
Q 17.96875 -1.421875 11.734375 6.484375 
Q 5.515625 14.40625 5.515625 27.296875 
Q 5.515625 40.1875 11.734375 48.09375 
Q 17.96875 56 27.875 56 
Q 33.9375 56 38.25 53.625 
Q 42.578125 51.265625 45.40625 46.390625 
M 14.796875 27.296875 
Q 14.796875 17.390625 18.875 11.75 
Q 22.953125 6.109375 30.078125 6.109375 
Q 37.203125 6.109375 41.296875 11.75 
Q 45.40625 17.390625 45.40625 27.296875 
Q 45.40625 37.203125 41.296875 42.84375 
Q 37.203125 48.484375 30.078125 48.484375 
Q 22.953125 48.484375 18.875 42.84375 
Q 14.796875 37.203125 14.796875 27.296875 
" id="BitstreamVeraSans-Roman-64"/>
     <path d="M 8.6875 72.90625 
L 18.609375 72.90625 
L 18.609375 28.609375 
Q 18.609375 16.890625 22.84375 11.734375 
Q 27.09375 6.59375 36.625 6.59375 
Q 46.09375 6.59375 50.34375 11.734375 
Q 54.59375 16.890625 54.59375 28.609375 
L 54.59375 72.90625 
L 64.5 72.90625 
L 64.5 27.390625 
Q 64.5 13.140625 57.4375 5.859375 
Q 50.390625 -1.421875 36.625 -1.421875 
Q 22.796875 -1.421875 15.734375 5.859375 
Q 8.6875 13.140625 8.6875 27.390625 
z
" id="BitstreamVeraSans-Roman-55"/>
    </defs>
    <g transform="translate(136.59825 18.14175)scale(0.144 -0.144)">
     <use xlink:href="#BitstreamVeraSans-Roman-55"/>
     <use x="73.193359375" xlink:href="#BitstreamVeraSans-Roman-6e"/>
     <use x="136.572265625" xlink:href="#BitstreamVeraSans-Roman-64"/>
     <use x="200.048828125" xlink:href="#BitstreamVeraSans-Roman-69"/>
     <use x="227.83203125" xlink:href="#BitstreamVeraSans-Roman-73"/>
     <use x="279.931640625" xlink:href="#BitstreamVeraSans-Roman-63"/>
     <use x="334.912109375" xlink:href="#BitstreamVeraSans-Roman-6f"/>
     <use x="396.09375" xlink:href="#BitstreamVeraSans-Roman-75"/>
     <use x="459.47265625" xlink:href="#BitstreamVeraSans-Roman-6e"/>
     <use x="522.8515625" xlink:href="#BitstreamVeraSans-Roman-74"/>
     <use x="562.060546875" xlink:href="#BitstreamVeraSans-Roman-65"/>
     <use x="623.583984375" xlink:href="#BitstreamVeraSans-Roman-64"/>
     <use x="687.060546875" xlink:href="#BitstreamVeraSans-Roman-20"/>
     <use x="718.84765625" xlink:href="#BitstreamVeraSans-Roman-72"/>
     <use x="759.9296875" xlink:href="#BitstreamVeraSans-Roman-65"/>
     <use x="821.453125" xlink:href="#BitstreamVeraSans-Roman-74"/>
     <use x="860.662109375" xlink:href="#BitstreamVeraSans-Roman-75"/>
     <use x="924.041015625" xlink:href="#BitstreamVeraSans-Roman-72"/>
     <use x="965.138671875" xlink:href="#BitstreamVeraSans-Roman-6e"/>
     <use x="1028.517578125" xlink:href="#BitstreamVeraSans-Roman-73"/>
     <use x="1080.6171875" xlink:href="#BitstreamVeraSans-Roman-20"/>
     <use x="1112.404296875" xlink:href="#BitstreamVeraSans-Roman-64"/>
     <use x="1175.880859375" xlink:href="#BitstreamVeraSans-Roman-75"/>
     <use x="1239.259765625" xlink:href="#BitstreamVeraSans-Roman-72"/>
     <use x="1280.373046875" xlink:href="#BitstreamVeraSans-Roman-69"/>
     <use x="1308.15625" xlink:href="#BitstreamVeraSans-Roman-6e"/>
     <use x="1371.53515625" xlink:href="#BitstreamVeraSans-Roman-67"/>
     <use x="1435.01171875" xlink:href="#BitstreamVeraSans-Roman-20"/>
     <use x="1466.798828125" xlink:href="#BitstreamVeraSans-Roman-74"/>
     <use x="1506.0078125" xlink:href="#BitstreamVeraSans-Roman-72"/>
     <use x="1547.12109375" xlink:href="#BitstreamVeraSans-Roman-61"/>
     <use x="1608.400390625" xlink:href="#BitstreamVeraSans-Roman-69"/>
     <use x="1636.18359375" xlink:href="#BitstreamVeraSans-Roman-6e"/>
     <use x="1699.5625" xlink:href="#BitstreamVeraSans-Roman-69"/>
     <use x="1727.345703125" xlink:href="#BitstreamVeraSans-Roman-6e"/>
     <use x="1790.724609375" xlink:href="#BitstreamVeraSans-Roman-67"/>
    </g>
   </g>
  </g>
 </g>
 <defs>
  <clipPath id="p012e792f89">
   <rect height="345.6" width="446.4" x="46.8975" y="23.14175"/>
  </clipPath>
 </defs>
</svg>
