<?xml version="1.0" encoding="utf-8" standalone="no"?>
<!DOCTYPE svg PUBLIC "-//W3C//DTD SVG 1.1//EN"
  "http://www.w3.org/Graphics/SVG/1.1/DTD/svg11.dtd">
<!-- Created with matplotlib (http://matplotlib.org/) -->
<svg height="408pt" version="1.1" viewBox="0 0 527 408" width="527pt" xmlns="http://www.w3.org/2000/svg" xmlns:xlink="http://www.w3.org/1999/xlink">
 <defs>
  <style type="text/css">
*{stroke-linecap:butt;stroke-linejoin:round;stroke-miterlimit:100000;}
  </style>
 </defs>
 <g id="figure_1">
  <g id="patch_1">
   <path d="M 0 408.16925 
L 527.22375 408.16925 
L 527.22375 0 
L 0 0 
z
" style="fill:#ffffff;"/>
  </g>
  <g id="axes_1">
   <g id="patch_2">
    <path d="M 58.35375 368.74175 
L 504.75375 368.74175 
L 504.75375 23.14175 
L 58.35375 23.14175 
z
" style="fill:#ffffff;"/>
   </g>
   <g id="line2d_1">
    <path clip-path="url(#p2f0f3aa201)" d="M 58.35375 368.74175 
L 62.10351 368.74175 
L 62.46063 368.248036 
L 64.06767 368.248036 
L 64.24623 368.001179 
L 64.60335 368.001179 
L 64.78191 367.754321 
L 67.99599 367.754321 
L 68.17455 367.507464 
L 71.38863 367.507464 
L 71.56719 367.260607 
L 72.45999 367.260607 
L 72.63855 367.01375 
L 72.99567 367.01375 
L 73.17423 366.766893 
L 74.24559 366.766893 
L 74.42415 366.520036 
L 76.38831 366.520036 
L 76.56687 366.273179 
L 80.13807 366.273179 
L 80.31663 366.026321 
L 80.85231 366.026321 
L 81.03087 365.779464 
L 82.99503 365.779464 
L 83.35215 365.28575 
L 91.20879 365.28575 
L 91.38735 365.038893 
L 91.56591 365.038893 
L 91.74447 364.792036 
L 93.70863 364.792036 
L 93.88719 364.545179 
L 95.85135 364.545179 
L 96.20847 364.051464 
L 98.52975 364.051464 
L 98.70831 363.804607 
L 101.20815 363.804607 
L 101.38671 363.55775 
L 102.81519 363.55775 
L 103.17231 363.064036 
L 103.52943 363.064036 
L 103.70799 362.817179 
L 104.24367 362.817179 
L 104.77935 362.076607 
L 106.20783 362.076607 
L 106.38639 361.82975 
L 106.92207 361.82975 
L 107.45775 361.089179 
L 108.52911 361.089179 
L 108.70767 360.842321 
L 108.88623 360.842321 
L 109.06479 360.595464 
L 109.60047 360.595464 
L 109.77903 360.348607 
L 110.49327 360.348607 
L 110.67183 360.10175 
L 111.92175 360.10175 
L 112.10031 359.854893 
L 112.99311 359.854893 
L 113.17167 359.608036 
L 114.24303 359.608036 
L 114.60015 359.114321 
L 116.38575 359.114321 
L 116.56431 358.867464 
L 117.45711 358.867464 
L 117.63567 358.620607 
L 118.70703 358.620607 
L 119.06415 358.126893 
L 119.24271 358.126893 
L 119.77839 357.386321 
L 120.13551 357.386321 
L 120.31407 357.139464 
L 120.67119 357.139464 
L 121.02831 356.64575 
L 122.81391 356.64575 
L 123.17103 356.152036 
L 123.52815 356.152036 
L 123.70671 355.905179 
L 125.67087 355.905179 
L 126.02799 355.411464 
L 126.74223 355.411464 
L 126.92079 355.164607 
L 127.45647 355.164607 
L 127.63503 354.91775 
L 128.17071 354.91775 
L 128.52783 354.424036 
L 128.70639 354.424036 
L 128.88495 354.177179 
L 129.24207 354.177179 
L 129.77775 353.436607 
L 129.95631 353.436607 
L 130.13487 353.18975 
L 130.31343 353.18975 
L 130.84911 352.449179 
L 131.38479 352.449179 
L 131.74191 351.955464 
L 132.09903 351.955464 
L 132.45615 351.46175 
L 132.63471 351.46175 
L 132.81327 351.214893 
L 132.99183 351.214893 
L 133.17039 350.968036 
L 133.52751 350.968036 
L 134.06319 350.227464 
L 134.42031 350.227464 
L 134.95599 349.486893 
L 135.13455 349.486893 
L 135.31311 349.240036 
L 135.49167 349.240036 
L 135.67023 348.993179 
L 135.84879 348.993179 
L 136.02735 348.746321 
L 136.20591 348.746321 
L 136.38447 348.499464 
L 137.09871 348.499464 
L 137.63439 347.758893 
L 138.17007 347.758893 
L 138.52719 347.265179 
L 138.70575 347.265179 
L 138.88431 347.018321 
L 139.24143 347.018321 
L 139.59855 346.524607 
L 139.77711 346.524607 
L 139.95567 346.27775 
L 140.13423 346.27775 
L 140.49135 345.784036 
L 140.66991 345.784036 
L 141.02703 345.290321 
L 141.38415 345.290321 
L 141.74127 344.796607 
L 141.91983 344.796607 
L 142.81263 343.562321 
L 142.99119 343.562321 
L 143.34831 343.068607 
L 143.70543 343.068607 
L 143.88399 342.82175 
L 144.06255 342.82175 
L 144.24111 342.574893 
L 144.41967 342.574893 
L 144.77679 342.081179 
L 144.95535 342.081179 
L 145.49103 341.340607 
L 145.84815 341.340607 
L 146.20527 340.846893 
L 146.56239 340.846893 
L 147.45519 339.612607 
L 147.63375 339.612607 
L 147.81231 339.36575 
L 147.99087 339.36575 
L 148.88367 338.131464 
L 149.24079 338.131464 
L 149.59791 337.63775 
L 149.77647 337.63775 
L 149.95503 337.390893 
L 150.13359 337.390893 
L 150.84783 336.403464 
L 151.02639 336.403464 
L 151.56207 335.662893 
L 151.74063 335.662893 
L 152.27631 334.922321 
L 152.45487 334.922321 
L 152.99055 334.18175 
L 153.16911 334.18175 
L 153.34767 333.934893 
L 153.52623 333.934893 
L 154.59759 332.45375 
L 155.13327 332.45375 
L 155.49039 331.960036 
L 155.66895 331.960036 
L 156.20463 331.219464 
L 156.38319 331.219464 
L 157.27599 329.985179 
L 157.63311 329.985179 
L 158.16879 329.244607 
L 158.34735 329.244607 
L 159.41871 327.763464 
L 159.77583 327.763464 
L 160.66863 326.529179 
L 160.84719 326.529179 
L 161.20431 326.035464 
L 161.38287 326.035464 
L 162.81135 324.060607 
L 162.98991 324.060607 
L 166.20399 319.617179 
L 166.38255 319.617179 
L 166.91823 318.876607 
L 167.09679 318.876607 
L 168.16815 317.395464 
L 168.52527 317.395464 
L 169.06095 316.654893 
L 169.23951 316.654893 
L 169.41807 316.408036 
L 169.59663 316.408036 
L 169.77519 316.161179 
L 169.95375 316.161179 
L 170.31087 315.667464 
L 170.48943 315.667464 
L 170.66799 315.420607 
L 170.84655 315.420607 
L 171.02511 315.17375 
L 171.20367 315.17375 
L 171.56079 314.680036 
L 171.91791 314.680036 
L 172.63215 313.692607 
L 173.34639 313.692607 
L 174.41775 312.211464 
L 174.59631 312.211464 
L 175.66767 310.730321 
L 175.84623 310.730321 
L 176.02479 310.483464 
L 176.20335 310.483464 
L 177.45327 308.755464 
L 177.63183 308.755464 
L 178.16751 308.014893 
L 178.34607 308.014893 
L 178.88175 307.274321 
L 179.06031 307.274321 
L 179.77455 306.286893 
L 179.95311 306.286893 
L 180.48879 305.546321 
L 180.66735 305.546321 
L 181.38159 304.558893 
L 181.56015 304.558893 
L 182.81007 302.830893 
L 183.16719 302.830893 
L 184.23855 301.34975 
L 184.41711 301.34975 
L 185.66703 299.62175 
L 185.84559 299.62175 
L 186.55983 298.634321 
L 186.73839 298.634321 
L 187.98831 296.906321 
L 188.34543 296.906321 
L 190.48815 293.944036 
L 190.66671 293.944036 
L 191.55951 292.70975 
L 191.91663 292.70975 
L 192.09519 292.462893 
L 192.27375 292.462893 
L 192.80943 291.722321 
L 192.98799 291.722321 
L 193.16655 291.475464 
L 193.52367 291.475464 
L 195.30927 289.006893 
L 195.48783 289.006893 
L 196.91631 287.032036 
L 197.09487 287.032036 
L 198.34479 285.304036 
L 198.52335 285.304036 
L 199.77327 283.576036 
L 199.95183 283.576036 
L 201.20175 281.848036 
L 201.38031 281.848036 
L 205.66575 275.923464 
L 205.84431 275.923464 
L 206.55855 274.936036 
L 206.73711 274.936036 
L 208.70127 272.220607 
L 208.87983 272.220607 
L 209.59407 271.233179 
L 209.95119 271.233179 
L 210.30831 270.739464 
L 210.48687 270.739464 
L 211.20111 269.752036 
L 211.55823 269.752036 
L 211.73679 269.505179 
L 212.09391 269.505179 
L 213.52239 267.530321 
L 213.70095 267.530321 
L 215.84367 264.568036 
L 216.02223 264.568036 
L 217.80783 262.099464 
L 217.98639 262.099464 
L 218.52207 261.358893 
L 218.70063 261.358893 
L 219.59343 260.124607 
L 219.95055 260.124607 
L 220.66479 259.137179 
L 220.84335 259.137179 
L 221.20047 258.643464 
L 221.37903 258.643464 
L 222.09327 257.656036 
L 222.27183 257.656036 
L 222.62895 257.162321 
L 222.80751 257.162321 
L 222.98607 256.915464 
L 223.16463 256.915464 
L 225.12879 254.200036 
L 225.30735 254.200036 
L 226.37871 252.718893 
L 226.55727 252.718893 
L 228.16431 250.497179 
L 228.34287 250.497179 
L 228.87855 249.756607 
L 229.05711 249.756607 
L 229.23567 249.50975 
L 229.41423 249.50975 
L 230.12847 248.522321 
L 230.48559 248.522321 
L 232.09263 246.300607 
L 232.27119 246.300607 
L 235.30671 242.104036 
L 235.48527 242.104036 
L 238.87791 237.41375 
L 239.05647 237.41375 
L 240.48495 235.438893 
L 241.02063 235.438893 
L 243.69903 231.736036 
L 243.87759 231.736036 
L 244.41327 230.995464 
L 244.59183 230.995464 
L 245.84175 229.267464 
L 246.02031 229.267464 
L 247.98447 226.552036 
L 248.34159 226.552036 
L 249.59151 224.824036 
L 249.77007 224.824036 
L 250.48431 223.836607 
L 250.66287 223.836607 
L 251.19855 223.096036 
L 251.37711 223.096036 
L 252.26991 221.86175 
L 252.44847 221.86175 
L 252.98415 221.121179 
L 253.16271 221.121179 
L 253.51983 220.627464 
L 253.69839 220.627464 
L 254.76975 219.146321 
L 255.12687 219.146321 
L 256.01967 217.912036 
L 256.19823 217.912036 
L 257.26959 216.430893 
L 257.44815 216.430893 
L 259.41231 213.715464 
L 259.59087 213.715464 
L 259.94799 213.22175 
L 260.12655 213.22175 
L 264.23343 207.544036 
L 264.41199 207.544036 
L 265.48335 206.062893 
L 265.66191 206.062893 
L 266.91183 204.334893 
L 267.09039 204.334893 
L 267.98319 203.100607 
L 268.34031 203.100607 
L 268.87599 202.360036 
L 269.05455 202.360036 
L 270.12591 200.878893 
L 270.30447 200.878893 
L 270.66159 200.385179 
L 270.84015 200.385179 
L 272.26863 198.410321 
L 272.44719 198.410321 
L 272.62575 198.163464 
L 272.98287 198.163464 
L 273.69711 197.176036 
L 273.87567 197.176036 
L 274.23279 196.682321 
L 274.41135 196.682321 
L 275.12559 195.694893 
L 275.30415 195.694893 
L 275.83983 194.954321 
L 276.01839 194.954321 
L 277.08975 193.473179 
L 277.26831 193.473179 
L 277.62543 192.979464 
L 277.80399 192.979464 
L 280.48239 189.276607 
L 280.66095 189.276607 
L 281.01807 188.782893 
L 281.19663 188.782893 
L 282.44655 187.054893 
L 282.62511 187.054893 
L 283.33935 186.067464 
L 283.69647 186.067464 
L 283.87503 185.820607 
L 284.05359 185.820607 
L 284.94639 184.586321 
L 285.30351 184.586321 
L 285.66063 184.092607 
L 285.83919 184.092607 
L 286.37487 183.352036 
L 286.55343 183.352036 
L 287.26767 182.364607 
L 287.44623 182.364607 
L 288.33903 181.130321 
L 288.51759 181.130321 
L 288.87471 180.636607 
L 289.23183 180.636607 
L 290.48175 178.908607 
L 290.66031 178.908607 
L 291.01743 178.414893 
L 291.37455 178.414893 
L 292.98159 176.193179 
L 293.16015 176.193179 
L 294.05295 174.958893 
L 294.23151 174.958893 
L 295.65999 172.984036 
L 295.83855 172.984036 
L 296.19567 172.490321 
L 296.90991 172.490321 
L 297.80271 171.256036 
L 298.15983 171.256036 
L 298.51695 170.762321 
L 298.87407 170.762321 
L 300.30255 168.787464 
L 300.48111 168.787464 
L 301.01679 168.046893 
L 301.19535 168.046893 
L 301.90959 167.059464 
L 302.08815 167.059464 
L 304.58799 163.603464 
L 304.76655 163.603464 
L 305.48079 162.616036 
L 305.65935 162.616036 
L 305.83791 162.369179 
L 306.01647 162.369179 
L 306.73071 161.38175 
L 306.90927 161.38175 
L 307.98063 159.900607 
L 308.15919 159.900607 
L 308.51631 159.406893 
L 308.69487 159.406893 
L 309.05199 158.913179 
L 309.23055 158.913179 
L 309.58767 158.419464 
L 309.76623 158.419464 
L 310.30191 157.678893 
L 310.65903 157.678893 
L 311.01615 157.185179 
L 311.19471 157.185179 
L 311.55183 156.691464 
L 311.73039 156.691464 
L 312.44463 155.704036 
L 312.62319 155.704036 
L 313.51599 154.46975 
L 313.69455 154.46975 
L 314.40879 153.482321 
L 314.76591 153.482321 
L 315.30159 152.74175 
L 315.83727 152.74175 
L 316.19439 152.248036 
L 316.55151 152.248036 
L 316.73007 152.001179 
L 317.08719 152.001179 
L 318.33711 150.273179 
L 318.87279 150.273179 
L 319.22991 149.779464 
L 319.40847 149.779464 
L 320.65839 148.051464 
L 320.83695 148.051464 
L 321.55119 147.064036 
L 321.72975 147.064036 
L 322.26543 146.323464 
L 323.15823 146.323464 
L 323.69391 145.582893 
L 324.05103 145.582893 
L 324.40815 145.089179 
L 324.76527 145.089179 
L 326.19375 143.114321 
L 326.55087 143.114321 
L 327.26511 142.126893 
L 327.44367 142.126893 
L 327.80079 141.633179 
L 327.97935 141.633179 
L 328.15791 141.386321 
L 328.33647 141.386321 
L 328.69359 140.892607 
L 328.87215 140.892607 
L 329.22927 140.398893 
L 329.40783 140.398893 
L 329.58639 140.152036 
L 329.76495 140.152036 
L 330.12207 139.658321 
L 330.30063 139.658321 
L 333.33615 135.46175 
L 333.51471 135.46175 
L 334.76463 133.73375 
L 335.12175 133.73375 
L 335.65743 132.993179 
L 335.83599 132.993179 
L 336.19311 132.499464 
L 336.37167 132.499464 
L 336.72879 132.00575 
L 337.08591 132.00575 
L 337.44303 131.512036 
L 337.62159 131.512036 
L 337.80015 131.265179 
L 337.97871 131.265179 
L 338.69295 130.27775 
L 338.87151 130.27775 
L 339.40719 129.537179 
L 339.58575 129.537179 
L 340.29999 128.54975 
L 340.47855 128.54975 
L 340.65711 128.302893 
L 341.01423 128.302893 
L 341.72847 127.315464 
L 341.90703 127.315464 
L 342.44271 126.574893 
L 342.79983 126.574893 
L 342.97839 126.328036 
L 343.15695 126.328036 
L 344.04975 125.09375 
L 344.22831 125.09375 
L 344.40687 124.846893 
L 344.58543 124.846893 
L 344.76399 124.600036 
L 345.12111 124.600036 
L 345.65679 123.859464 
L 346.01391 123.859464 
L 347.44239 121.884607 
L 347.62095 121.884607 
L 347.79951 121.63775 
L 347.97807 121.63775 
L 348.33519 121.144036 
L 348.51375 121.144036 
L 348.69231 120.897179 
L 348.87087 120.897179 
L 349.04943 120.650321 
L 349.40655 120.650321 
L 349.58511 120.403464 
L 349.94223 120.403464 
L 350.65647 119.416036 
L 351.19215 119.416036 
L 351.37071 119.169179 
L 351.54927 119.169179 
L 351.72783 118.922321 
L 351.90639 118.922321 
L 352.08495 118.675464 
L 352.26351 118.675464 
L 352.79919 117.934893 
L 352.97775 117.934893 
L 354.04911 116.45375 
L 354.22767 116.45375 
L 354.40623 116.206893 
L 354.58479 116.206893 
L 354.94191 115.713179 
L 355.29903 115.713179 
L 355.83471 114.972607 
L 356.01327 114.972607 
L 356.37039 114.478893 
L 357.08463 114.478893 
L 357.62031 113.738321 
L 357.97743 113.738321 
L 358.33455 113.244607 
L 358.51311 113.244607 
L 358.69167 112.99775 
L 358.87023 112.99775 
L 359.40591 112.257179 
L 359.94159 112.257179 
L 360.12015 112.010321 
L 360.29871 112.010321 
L 360.65583 111.516607 
L 360.83439 111.516607 
L 361.01295 111.26975 
L 361.19151 111.26975 
L 361.54863 110.776036 
L 362.08431 110.776036 
L 362.44143 110.282321 
L 362.61999 110.282321 
L 363.51279 109.048036 
L 363.86991 109.048036 
L 364.04847 108.801179 
L 364.22703 108.801179 
L 364.76271 108.060607 
L 364.94127 108.060607 
L 365.65551 107.073179 
L 365.83407 107.073179 
L 366.36975 106.332607 
L 366.90543 106.332607 
L 367.79823 105.098321 
L 367.97679 105.098321 
L 368.51247 104.35775 
L 369.40527 104.35775 
L 369.76239 103.864036 
L 370.47663 103.864036 
L 370.65519 103.617179 
L 371.19087 103.617179 
L 371.90511 102.62975 
L 372.44079 102.62975 
L 372.61935 102.382893 
L 372.79791 102.382893 
L 372.97647 102.136036 
L 373.15503 102.136036 
L 373.51215 101.642321 
L 374.04783 101.642321 
L 374.22639 101.395464 
L 374.76207 101.395464 
L 375.11919 100.90175 
L 375.65487 100.90175 
L 375.83343 100.654893 
L 376.01199 100.654893 
L 376.54767 99.914321 
L 376.72623 99.914321 
L 376.90479 99.667464 
L 377.61903 99.667464 
L 378.69039 98.186321 
L 378.86895 98.186321 
L 379.22607 97.692607 
L 379.40463 97.692607 
L 379.58319 97.44575 
L 379.76175 97.44575 
L 380.29743 96.705179 
L 380.83311 96.705179 
L 381.36879 95.964607 
L 382.44015 95.964607 
L 382.61871 95.71775 
L 382.79727 95.71775 
L 382.97583 95.470893 
L 383.51151 95.470893 
L 383.69007 95.224036 
L 384.22575 95.224036 
L 384.93999 94.236607 
L 385.29711 94.236607 
L 385.47567 93.98975 
L 385.83279 93.98975 
L 386.18991 93.496036 
L 386.36847 93.496036 
L 387.26127 92.26175 
L 388.33263 92.26175 
L 388.51119 92.014893 
L 388.86831 92.014893 
L 389.04687 91.768036 
L 389.58255 91.768036 
L 389.76111 91.521179 
L 389.93967 91.521179 
L 390.29679 91.027464 
L 390.83247 91.027464 
L 391.18959 90.53375 
L 391.36815 90.53375 
L 391.54671 90.286893 
L 392.79663 90.286893 
L 392.97519 90.040036 
L 393.33231 90.040036 
L 393.68943 89.546321 
L 394.22511 89.546321 
L 394.40367 89.299464 
L 394.93935 89.299464 
L 395.11791 89.052607 
L 395.29647 89.052607 
L 395.65359 88.558893 
L 395.83215 88.558893 
L 396.36783 87.818321 
L 396.90351 87.818321 
L 397.08207 87.571464 
L 397.43919 87.571464 
L 397.61775 87.324607 
L 397.97487 87.324607 
L 398.15343 87.07775 
L 398.86767 87.07775 
L 399.40335 86.337179 
L 400.29615 86.337179 
L 400.47471 86.090321 
L 400.65327 86.090321 
L 400.83183 85.843464 
L 401.90319 85.843464 
L 402.43887 85.102893 
L 402.79599 85.102893 
L 402.97455 84.856036 
L 403.51023 84.856036 
L 403.86735 84.362321 
L 404.76015 84.362321 
L 405.29583 83.62175 
L 406.01007 83.62175 
L 406.18863 83.374893 
L 406.36719 83.374893 
L 406.54575 83.128036 
L 406.72431 83.128036 
L 407.25999 82.387464 
L 408.15279 82.387464 
L 408.33135 82.140607 
L 409.04559 82.140607 
L 409.22415 81.89375 
L 410.29551 81.89375 
L 410.47407 81.646893 
L 411.18831 81.646893 
L 411.36687 81.400036 
L 411.54543 81.400036 
L 411.72399 81.153179 
L 412.97391 81.153179 
L 413.33103 80.659464 
L 413.68815 80.659464 
L 413.86671 80.412607 
L 414.40239 80.412607 
L 414.75951 79.918893 
L 415.29519 79.918893 
L 415.47375 79.672036 
L 418.68783 79.672036 
L 419.40207 78.684607 
L 419.58063 78.684607 
L 419.75919 78.43775 
L 420.11631 78.43775 
L 420.29487 78.190893 
L 420.65199 78.190893 
L 420.83055 77.944036 
L 421.90191 77.944036 
L 422.25903 77.450321 
L 422.61615 77.450321 
L 422.79471 77.203464 
L 423.15183 77.203464 
L 423.33039 76.956607 
L 424.58031 76.956607 
L 424.93743 76.462893 
L 425.83023 76.462893 
L 426.00879 76.216036 
L 426.18735 76.216036 
L 426.36591 75.969179 
L 426.54447 75.969179 
L 427.25871 74.98175 
L 427.43727 74.98175 
L 428.15151 73.994321 
L 428.33007 73.994321 
L 428.50863 73.747464 
L 430.11567 73.747464 
L 430.29423 73.500607 
L 430.82991 73.500607 
L 431.00847 73.25375 
L 432.43695 73.25375 
L 432.61551 73.006893 
L 432.97263 73.006893 
L 433.15119 72.760036 
L 433.32975 72.760036 
L 433.86543 72.019464 
L 434.57967 72.019464 
L 434.75823 71.772607 
L 434.93679 71.772607 
L 435.29391 71.278893 
L 435.47247 71.278893 
L 435.65103 71.032036 
L 437.07951 71.032036 
L 437.25807 70.785179 
L 437.79375 70.785179 
L 438.50799 69.79775 
L 441.90063 69.79775 
L 442.25775 69.304036 
L 444.40047 69.304036 
L 444.57903 69.057179 
L 447.07887 69.057179 
L 447.25743 68.810321 
L 447.79311 68.810321 
L 448.15023 68.316607 
L 448.50735 68.316607 
L 448.68591 68.06975 
L 448.86447 68.06975 
L 449.22159 67.576036 
L 449.93583 67.576036 
L 450.11439 67.329179 
L 451.36431 67.329179 
L 451.89999 66.588607 
L 452.43567 66.588607 
L 452.61423 66.34175 
L 452.79279 66.34175 
L 452.97135 66.094893 
L 453.68559 66.094893 
L 454.04271 65.601179 
L 454.22127 65.601179 
L 454.39983 65.354321 
L 454.57839 65.354321 
L 454.93551 64.860607 
L 455.11407 64.860607 
L 455.29263 64.61375 
L 456.72111 64.61375 
L 456.89967 64.366893 
L 457.25679 64.366893 
L 457.43535 64.120036 
L 458.14959 64.120036 
L 458.68527 63.379464 
L 459.04239 63.379464 
L 459.39951 62.88575 
L 460.47087 62.88575 
L 460.82799 62.392036 
L 461.89935 62.392036 
L 462.07791 62.145179 
L 465.29199 62.145179 
L 465.64911 61.651464 
L 465.82767 61.651464 
L 466.00623 61.404607 
L 466.54191 61.404607 
L 466.72047 61.15775 
L 467.97039 61.15775 
L 468.14895 60.910893 
L 469.57743 60.910893 
L 469.75599 60.664036 
L 469.93455 60.664036 
L 470.11311 60.417179 
L 470.29167 60.417179 
L 470.47023 60.170321 
L 471.18447 60.170321 
L 471.36303 59.923464 
L 472.25583 59.923464 
L 472.43439 59.676607 
L 472.61295 59.676607 
L 472.79151 59.42975 
L 473.14863 59.42975 
L 473.32719 59.182893 
L 473.50575 59.182893 
L 473.68431 58.936036 
L 474.04143 58.936036 
L 474.39855 58.442321 
L 475.29135 58.442321 
L 475.46991 58.195464 
L 476.18415 58.195464 
L 476.36271 57.948607 
L 477.25551 57.948607 
L 477.61263 57.454893 
L 478.32687 57.454893 
L 478.50543 57.208036 
L 478.68399 57.208036 
L 478.86255 56.961179 
L 479.39823 56.961179 
L 479.93391 56.220607 
L 480.82671 56.220607 
L 481.18383 55.726893 
L 481.54095 55.726893 
L 481.71951 55.480036 
L 481.89807 55.480036 
L 482.25519 54.986321 
L 482.43375 54.986321 
L 482.96943 54.24575 
L 483.14799 54.24575 
L 483.50511 53.752036 
L 483.68367 53.752036 
L 483.86223 53.505179 
L 484.21935 53.505179 
L 484.39791 53.258321 
L 485.64783 53.258321 
L 485.82639 53.011464 
L 486.00495 53.011464 
L 486.18351 52.764607 
L 486.71919 52.764607 
L 486.71919 52.764607 
" style="fill:none;stroke:#0000ff;stroke-linecap:square;stroke-width:0.5;"/>
   </g>
   <g id="patch_3">
    <path d="M 58.35375 368.74175 
L 58.35375 23.14175 
" style="fill:none;stroke:#000000;stroke-linecap:square;stroke-linejoin:miter;"/>
   </g>
   <g id="patch_4">
    <path d="M 504.75375 368.74175 
L 504.75375 23.14175 
" style="fill:none;stroke:#000000;stroke-linecap:square;stroke-linejoin:miter;"/>
   </g>
   <g id="patch_5">
    <path d="M 58.35375 368.74175 
L 504.75375 368.74175 
" style="fill:none;stroke:#000000;stroke-linecap:square;stroke-linejoin:miter;"/>
   </g>
   <g id="patch_6">
    <path d="M 58.35375 23.14175 
L 504.75375 23.14175 
" style="fill:none;stroke:#000000;stroke-linecap:square;stroke-linejoin:miter;"/>
   </g>
   <g id="matplotlib.axis_1">
    <g id="xtick_1">
     <g id="line2d_2">
      <defs>
       <path d="M 0 0 
L 0 -4 
" id="me20bee16a8" style="stroke:#000000;stroke-width:0.5;"/>
      </defs>
      <g>
       <use style="stroke:#000000;stroke-width:0.5;" x="58.35375" xlink:href="#me20bee16a8" y="368.74175"/>
      </g>
     </g>
     <g id="line2d_3">
      <defs>
       <path d="M 0 0 
L 0 4 
" id="m265e7957b7" style="stroke:#000000;stroke-width:0.5;"/>
      </defs>
      <g>
       <use style="stroke:#000000;stroke-width:0.5;" x="58.35375" xlink:href="#m265e7957b7" y="23.14175"/>
      </g>
     </g>
     <g id="text_1">
      <!-- 0 -->
      <defs>
       <path d="M 31.78125 66.40625 
Q 24.171875 66.40625 20.328125 58.90625 
Q 16.5 51.421875 16.5 36.375 
Q 16.5 21.390625 20.328125 13.890625 
Q 24.171875 6.390625 31.78125 6.390625 
Q 39.453125 6.390625 43.28125 13.890625 
Q 47.125 21.390625 47.125 36.375 
Q 47.125 51.421875 43.28125 58.90625 
Q 39.453125 66.40625 31.78125 66.40625 
M 31.78125 74.21875 
Q 44.046875 74.21875 50.515625 64.515625 
Q 56.984375 54.828125 56.984375 36.375 
Q 56.984375 17.96875 50.515625 8.265625 
Q 44.046875 -1.421875 31.78125 -1.421875 
Q 19.53125 -1.421875 13.0625 8.265625 
Q 6.59375 17.96875 6.59375 36.375 
Q 6.59375 54.828125 13.0625 64.515625 
Q 19.53125 74.21875 31.78125 74.21875 
" id="BitstreamVeraSans-Roman-30"/>
      </defs>
      <g transform="translate(54.53625 381.859875)scale(0.12 -0.12)">
       <use xlink:href="#BitstreamVeraSans-Roman-30"/>
      </g>
     </g>
    </g>
    <g id="xtick_2">
     <g id="line2d_4">
      <g>
       <use style="stroke:#000000;stroke-width:0.5;" x="147.63375" xlink:href="#me20bee16a8" y="368.74175"/>
      </g>
     </g>
     <g id="line2d_5">
      <g>
       <use style="stroke:#000000;stroke-width:0.5;" x="147.63375" xlink:href="#m265e7957b7" y="23.14175"/>
      </g>
     </g>
     <g id="text_2">
      <!-- 500 -->
      <defs>
       <path d="M 10.796875 72.90625 
L 49.515625 72.90625 
L 49.515625 64.59375 
L 19.828125 64.59375 
L 19.828125 46.734375 
Q 21.96875 47.46875 24.109375 47.828125 
Q 26.265625 48.1875 28.421875 48.1875 
Q 40.625 48.1875 47.75 41.5 
Q 54.890625 34.8125 54.890625 23.390625 
Q 54.890625 11.625 47.5625 5.09375 
Q 40.234375 -1.421875 26.90625 -1.421875 
Q 22.3125 -1.421875 17.546875 -0.640625 
Q 12.796875 0.140625 7.71875 1.703125 
L 7.71875 11.625 
Q 12.109375 9.234375 16.796875 8.0625 
Q 21.484375 6.890625 26.703125 6.890625 
Q 35.15625 6.890625 40.078125 11.328125 
Q 45.015625 15.765625 45.015625 23.390625 
Q 45.015625 31 40.078125 35.4375 
Q 35.15625 39.890625 26.703125 39.890625 
Q 22.75 39.890625 18.8125 39.015625 
Q 14.890625 38.140625 10.796875 36.28125 
z
" id="BitstreamVeraSans-Roman-35"/>
      </defs>
      <g transform="translate(136.18125 381.859875)scale(0.12 -0.12)">
       <use xlink:href="#BitstreamVeraSans-Roman-35"/>
       <use x="63.623046875" xlink:href="#BitstreamVeraSans-Roman-30"/>
       <use x="127.24609375" xlink:href="#BitstreamVeraSans-Roman-30"/>
      </g>
     </g>
    </g>
    <g id="xtick_3">
     <g id="line2d_6">
      <g>
       <use style="stroke:#000000;stroke-width:0.5;" x="236.91375" xlink:href="#me20bee16a8" y="368.74175"/>
      </g>
     </g>
     <g id="line2d_7">
      <g>
       <use style="stroke:#000000;stroke-width:0.5;" x="236.91375" xlink:href="#m265e7957b7" y="23.14175"/>
      </g>
     </g>
     <g id="text_3">
      <!-- 1000 -->
      <defs>
       <path d="M 12.40625 8.296875 
L 28.515625 8.296875 
L 28.515625 63.921875 
L 10.984375 60.40625 
L 10.984375 69.390625 
L 28.421875 72.90625 
L 38.28125 72.90625 
L 38.28125 8.296875 
L 54.390625 8.296875 
L 54.390625 0 
L 12.40625 0 
z
" id="BitstreamVeraSans-Roman-31"/>
      </defs>
      <g transform="translate(221.64375 381.859875)scale(0.12 -0.12)">
       <use xlink:href="#BitstreamVeraSans-Roman-31"/>
       <use x="63.623046875" xlink:href="#BitstreamVeraSans-Roman-30"/>
       <use x="127.24609375" xlink:href="#BitstreamVeraSans-Roman-30"/>
       <use x="190.869140625" xlink:href="#BitstreamVeraSans-Roman-30"/>
      </g>
     </g>
    </g>
    <g id="xtick_4">
     <g id="line2d_8">
      <g>
       <use style="stroke:#000000;stroke-width:0.5;" x="326.19375" xlink:href="#me20bee16a8" y="368.74175"/>
      </g>
     </g>
     <g id="line2d_9">
      <g>
       <use style="stroke:#000000;stroke-width:0.5;" x="326.19375" xlink:href="#m265e7957b7" y="23.14175"/>
      </g>
     </g>
     <g id="text_4">
      <!-- 1500 -->
      <g transform="translate(310.92375 381.859875)scale(0.12 -0.12)">
       <use xlink:href="#BitstreamVeraSans-Roman-31"/>
       <use x="63.623046875" xlink:href="#BitstreamVeraSans-Roman-35"/>
       <use x="127.24609375" xlink:href="#BitstreamVeraSans-Roman-30"/>
       <use x="190.869140625" xlink:href="#BitstreamVeraSans-Roman-30"/>
      </g>
     </g>
    </g>
    <g id="xtick_5">
     <g id="line2d_10">
      <g>
       <use style="stroke:#000000;stroke-width:0.5;" x="415.47375" xlink:href="#me20bee16a8" y="368.74175"/>
      </g>
     </g>
     <g id="line2d_11">
      <g>
       <use style="stroke:#000000;stroke-width:0.5;" x="415.47375" xlink:href="#m265e7957b7" y="23.14175"/>
      </g>
     </g>
     <g id="text_5">
      <!-- 2000 -->
      <defs>
       <path d="M 19.1875 8.296875 
L 53.609375 8.296875 
L 53.609375 0 
L 7.328125 0 
L 7.328125 8.296875 
Q 12.9375 14.109375 22.625 23.890625 
Q 32.328125 33.6875 34.8125 36.53125 
Q 39.546875 41.84375 41.421875 45.53125 
Q 43.3125 49.21875 43.3125 52.78125 
Q 43.3125 58.59375 39.234375 62.25 
Q 35.15625 65.921875 28.609375 65.921875 
Q 23.96875 65.921875 18.8125 64.3125 
Q 13.671875 62.703125 7.8125 59.421875 
L 7.8125 69.390625 
Q 13.765625 71.78125 18.9375 73 
Q 24.125 74.21875 28.421875 74.21875 
Q 39.75 74.21875 46.484375 68.546875 
Q 53.21875 62.890625 53.21875 53.421875 
Q 53.21875 48.921875 51.53125 44.890625 
Q 49.859375 40.875 45.40625 35.40625 
Q 44.1875 33.984375 37.640625 27.21875 
Q 31.109375 20.453125 19.1875 8.296875 
" id="BitstreamVeraSans-Roman-32"/>
      </defs>
      <g transform="translate(400.20375 381.859875)scale(0.12 -0.12)">
       <use xlink:href="#BitstreamVeraSans-Roman-32"/>
       <use x="63.623046875" xlink:href="#BitstreamVeraSans-Roman-30"/>
       <use x="127.24609375" xlink:href="#BitstreamVeraSans-Roman-30"/>
       <use x="190.869140625" xlink:href="#BitstreamVeraSans-Roman-30"/>
      </g>
     </g>
    </g>
    <g id="xtick_6">
     <g id="line2d_12">
      <g>
       <use style="stroke:#000000;stroke-width:0.5;" x="504.75375" xlink:href="#me20bee16a8" y="368.74175"/>
      </g>
     </g>
     <g id="line2d_13">
      <g>
       <use style="stroke:#000000;stroke-width:0.5;" x="504.75375" xlink:href="#m265e7957b7" y="23.14175"/>
      </g>
     </g>
     <g id="text_6">
      <!-- 2500 -->
      <g transform="translate(489.48375 381.859875)scale(0.12 -0.12)">
       <use xlink:href="#BitstreamVeraSans-Roman-32"/>
       <use x="63.623046875" xlink:href="#BitstreamVeraSans-Roman-35"/>
       <use x="127.24609375" xlink:href="#BitstreamVeraSans-Roman-30"/>
       <use x="190.869140625" xlink:href="#BitstreamVeraSans-Roman-30"/>
      </g>
     </g>
    </g>
    <g id="text_7">
     <!-- episode -->
     <defs>
      <path d="M 56.203125 29.59375 
L 56.203125 25.203125 
L 14.890625 25.203125 
Q 15.484375 15.921875 20.484375 11.0625 
Q 25.484375 6.203125 34.421875 6.203125 
Q 39.59375 6.203125 44.453125 7.46875 
Q 49.3125 8.734375 54.109375 11.28125 
L 54.109375 2.78125 
Q 49.265625 0.734375 44.1875 -0.34375 
Q 39.109375 -1.421875 33.890625 -1.421875 
Q 20.796875 -1.421875 13.15625 6.1875 
Q 5.515625 13.8125 5.515625 26.8125 
Q 5.515625 40.234375 12.765625 48.109375 
Q 20.015625 56 32.328125 56 
Q 43.359375 56 49.78125 48.890625 
Q 56.203125 41.796875 56.203125 29.59375 
M 47.21875 32.234375 
Q 47.125 39.59375 43.09375 43.984375 
Q 39.0625 48.390625 32.421875 48.390625 
Q 24.90625 48.390625 20.390625 44.140625 
Q 15.875 39.890625 15.1875 32.171875 
z
" id="BitstreamVeraSans-Roman-65"/>
      <path d="M 18.109375 8.203125 
L 18.109375 -20.796875 
L 9.078125 -20.796875 
L 9.078125 54.6875 
L 18.109375 54.6875 
L 18.109375 46.390625 
Q 20.953125 51.265625 25.265625 53.625 
Q 29.59375 56 35.59375 56 
Q 45.5625 56 51.78125 48.09375 
Q 58.015625 40.1875 58.015625 27.296875 
Q 58.015625 14.40625 51.78125 6.484375 
Q 45.5625 -1.421875 35.59375 -1.421875 
Q 29.59375 -1.421875 25.265625 0.953125 
Q 20.953125 3.328125 18.109375 8.203125 
M 48.6875 27.296875 
Q 48.6875 37.203125 44.609375 42.84375 
Q 40.53125 48.484375 33.40625 48.484375 
Q 26.265625 48.484375 22.1875 42.84375 
Q 18.109375 37.203125 18.109375 27.296875 
Q 18.109375 17.390625 22.1875 11.75 
Q 26.265625 6.109375 33.40625 6.109375 
Q 40.53125 6.109375 44.609375 11.75 
Q 48.6875 17.390625 48.6875 27.296875 
" id="BitstreamVeraSans-Roman-70"/>
      <path d="M 45.40625 46.390625 
L 45.40625 75.984375 
L 54.390625 75.984375 
L 54.390625 0 
L 45.40625 0 
L 45.40625 8.203125 
Q 42.578125 3.328125 38.25 0.953125 
Q 33.9375 -1.421875 27.875 -1.421875 
Q 17.96875 -1.421875 11.734375 6.484375 
Q 5.515625 14.40625 5.515625 27.296875 
Q 5.515625 40.1875 11.734375 48.09375 
Q 17.96875 56 27.875 56 
Q 33.9375 56 38.25 53.625 
Q 42.578125 51.265625 45.40625 46.390625 
M 14.796875 27.296875 
Q 14.796875 17.390625 18.875 11.75 
Q 22.953125 6.109375 30.078125 6.109375 
Q 37.203125 6.109375 41.296875 11.75 
Q 45.40625 17.390625 45.40625 27.296875 
Q 45.40625 37.203125 41.296875 42.84375 
Q 37.203125 48.484375 30.078125 48.484375 
Q 22.953125 48.484375 18.875 42.84375 
Q 14.796875 37.203125 14.796875 27.296875 
" id="BitstreamVeraSans-Roman-64"/>
      <path d="M 9.421875 54.6875 
L 18.40625 54.6875 
L 18.40625 0 
L 9.421875 0 
z
M 9.421875 75.984375 
L 18.40625 75.984375 
L 18.40625 64.59375 
L 9.421875 64.59375 
z
" id="BitstreamVeraSans-Roman-69"/>
      <path d="M 30.609375 48.390625 
Q 23.390625 48.390625 19.1875 42.75 
Q 14.984375 37.109375 14.984375 27.296875 
Q 14.984375 17.484375 19.15625 11.84375 
Q 23.34375 6.203125 30.609375 6.203125 
Q 37.796875 6.203125 41.984375 11.859375 
Q 46.1875 17.53125 46.1875 27.296875 
Q 46.1875 37.015625 41.984375 42.703125 
Q 37.796875 48.390625 30.609375 48.390625 
M 30.609375 56 
Q 42.328125 56 49.015625 48.375 
Q 55.71875 40.765625 55.71875 27.296875 
Q 55.71875 13.875 49.015625 6.21875 
Q 42.328125 -1.421875 30.609375 -1.421875 
Q 18.84375 -1.421875 12.171875 6.21875 
Q 5.515625 13.875 5.515625 27.296875 
Q 5.515625 40.765625 12.171875 48.375 
Q 18.84375 56 30.609375 56 
" id="BitstreamVeraSans-Roman-6f"/>
      <path d="M 44.28125 53.078125 
L 44.28125 44.578125 
Q 40.484375 46.53125 36.375 47.5 
Q 32.28125 48.484375 27.875 48.484375 
Q 21.1875 48.484375 17.84375 46.4375 
Q 14.5 44.390625 14.5 40.28125 
Q 14.5 37.15625 16.890625 35.375 
Q 19.28125 33.59375 26.515625 31.984375 
L 29.59375 31.296875 
Q 39.15625 29.25 43.1875 25.515625 
Q 47.21875 21.78125 47.21875 15.09375 
Q 47.21875 7.46875 41.1875 3.015625 
Q 35.15625 -1.421875 24.609375 -1.421875 
Q 20.21875 -1.421875 15.453125 -0.5625 
Q 10.6875 0.296875 5.421875 2 
L 5.421875 11.28125 
Q 10.40625 8.6875 15.234375 7.390625 
Q 20.0625 6.109375 24.8125 6.109375 
Q 31.15625 6.109375 34.5625 8.28125 
Q 37.984375 10.453125 37.984375 14.40625 
Q 37.984375 18.0625 35.515625 20.015625 
Q 33.0625 21.96875 24.703125 23.78125 
L 21.578125 24.515625 
Q 13.234375 26.265625 9.515625 29.90625 
Q 5.8125 33.546875 5.8125 39.890625 
Q 5.8125 47.609375 11.28125 51.796875 
Q 16.75 56 26.8125 56 
Q 31.78125 56 36.171875 55.265625 
Q 40.578125 54.546875 44.28125 53.078125 
" id="BitstreamVeraSans-Roman-73"/>
     </defs>
     <g transform="translate(258.088125 398.473625)scale(0.12 -0.12)">
      <use xlink:href="#BitstreamVeraSans-Roman-65"/>
      <use x="61.5234375" xlink:href="#BitstreamVeraSans-Roman-70"/>
      <use x="125.0" xlink:href="#BitstreamVeraSans-Roman-69"/>
      <use x="152.783203125" xlink:href="#BitstreamVeraSans-Roman-73"/>
      <use x="204.8828125" xlink:href="#BitstreamVeraSans-Roman-6f"/>
      <use x="266.064453125" xlink:href="#BitstreamVeraSans-Roman-64"/>
      <use x="329.541015625" xlink:href="#BitstreamVeraSans-Roman-65"/>
     </g>
    </g>
   </g>
   <g id="matplotlib.axis_2">
    <g id="ytick_1">
     <g id="line2d_14">
      <defs>
       <path d="M 0 0 
L 4 0 
" id="m6ed35611dd" style="stroke:#000000;stroke-width:0.5;"/>
      </defs>
      <g>
       <use style="stroke:#000000;stroke-width:0.5;" x="58.35375" xlink:href="#m6ed35611dd" y="368.74175"/>
      </g>
     </g>
     <g id="line2d_15">
      <defs>
       <path d="M 0 0 
L -4 0 
" id="m27e2f2400f" style="stroke:#000000;stroke-width:0.5;"/>
      </defs>
      <g>
       <use style="stroke:#000000;stroke-width:0.5;" x="504.75375" xlink:href="#m27e2f2400f" y="368.74175"/>
      </g>
     </g>
     <g id="text_8">
      <!-- 0 -->
      <g transform="translate(46.71875 372.053)scale(0.12 -0.12)">
       <use xlink:href="#BitstreamVeraSans-Roman-30"/>
      </g>
     </g>
    </g>
    <g id="ytick_2">
     <g id="line2d_16">
      <g>
       <use style="stroke:#000000;stroke-width:0.5;" x="58.35375" xlink:href="#m6ed35611dd" y="319.370321429"/>
      </g>
     </g>
     <g id="line2d_17">
      <g>
       <use style="stroke:#000000;stroke-width:0.5;" x="504.75375" xlink:href="#m27e2f2400f" y="319.370321429"/>
      </g>
     </g>
     <g id="text_9">
      <!-- 200 -->
      <g transform="translate(31.44875 322.681571429)scale(0.12 -0.12)">
       <use xlink:href="#BitstreamVeraSans-Roman-32"/>
       <use x="63.623046875" xlink:href="#BitstreamVeraSans-Roman-30"/>
       <use x="127.24609375" xlink:href="#BitstreamVeraSans-Roman-30"/>
      </g>
     </g>
    </g>
    <g id="ytick_3">
     <g id="line2d_18">
      <g>
       <use style="stroke:#000000;stroke-width:0.5;" x="58.35375" xlink:href="#m6ed35611dd" y="269.998892857"/>
      </g>
     </g>
     <g id="line2d_19">
      <g>
       <use style="stroke:#000000;stroke-width:0.5;" x="504.75375" xlink:href="#m27e2f2400f" y="269.998892857"/>
      </g>
     </g>
     <g id="text_10">
      <!-- 400 -->
      <defs>
       <path d="M 37.796875 64.3125 
L 12.890625 25.390625 
L 37.796875 25.390625 
z
M 35.203125 72.90625 
L 47.609375 72.90625 
L 47.609375 25.390625 
L 58.015625 25.390625 
L 58.015625 17.1875 
L 47.609375 17.1875 
L 47.609375 0 
L 37.796875 0 
L 37.796875 17.1875 
L 4.890625 17.1875 
L 4.890625 26.703125 
z
" id="BitstreamVeraSans-Roman-34"/>
      </defs>
      <g transform="translate(31.44875 273.310142857)scale(0.12 -0.12)">
       <use xlink:href="#BitstreamVeraSans-Roman-34"/>
       <use x="63.623046875" xlink:href="#BitstreamVeraSans-Roman-30"/>
       <use x="127.24609375" xlink:href="#BitstreamVeraSans-Roman-30"/>
      </g>
     </g>
    </g>
    <g id="ytick_4">
     <g id="line2d_20">
      <g>
       <use style="stroke:#000000;stroke-width:0.5;" x="58.35375" xlink:href="#m6ed35611dd" y="220.627464286"/>
      </g>
     </g>
     <g id="line2d_21">
      <g>
       <use style="stroke:#000000;stroke-width:0.5;" x="504.75375" xlink:href="#m27e2f2400f" y="220.627464286"/>
      </g>
     </g>
     <g id="text_11">
      <!-- 600 -->
      <defs>
       <path d="M 33.015625 40.375 
Q 26.375 40.375 22.484375 35.828125 
Q 18.609375 31.296875 18.609375 23.390625 
Q 18.609375 15.53125 22.484375 10.953125 
Q 26.375 6.390625 33.015625 6.390625 
Q 39.65625 6.390625 43.53125 10.953125 
Q 47.40625 15.53125 47.40625 23.390625 
Q 47.40625 31.296875 43.53125 35.828125 
Q 39.65625 40.375 33.015625 40.375 
M 52.59375 71.296875 
L 52.59375 62.3125 
Q 48.875 64.0625 45.09375 64.984375 
Q 41.3125 65.921875 37.59375 65.921875 
Q 27.828125 65.921875 22.671875 59.328125 
Q 17.53125 52.734375 16.796875 39.40625 
Q 19.671875 43.65625 24.015625 45.921875 
Q 28.375 48.1875 33.59375 48.1875 
Q 44.578125 48.1875 50.953125 41.515625 
Q 57.328125 34.859375 57.328125 23.390625 
Q 57.328125 12.15625 50.6875 5.359375 
Q 44.046875 -1.421875 33.015625 -1.421875 
Q 20.359375 -1.421875 13.671875 8.265625 
Q 6.984375 17.96875 6.984375 36.375 
Q 6.984375 53.65625 15.1875 63.9375 
Q 23.390625 74.21875 37.203125 74.21875 
Q 40.921875 74.21875 44.703125 73.484375 
Q 48.484375 72.75 52.59375 71.296875 
" id="BitstreamVeraSans-Roman-36"/>
      </defs>
      <g transform="translate(31.44875 223.938714286)scale(0.12 -0.12)">
       <use xlink:href="#BitstreamVeraSans-Roman-36"/>
       <use x="63.623046875" xlink:href="#BitstreamVeraSans-Roman-30"/>
       <use x="127.24609375" xlink:href="#BitstreamVeraSans-Roman-30"/>
      </g>
     </g>
    </g>
    <g id="ytick_5">
     <g id="line2d_22">
      <g>
       <use style="stroke:#000000;stroke-width:0.5;" x="58.35375" xlink:href="#m6ed35611dd" y="171.256035714"/>
      </g>
     </g>
     <g id="line2d_23">
      <g>
       <use style="stroke:#000000;stroke-width:0.5;" x="504.75375" xlink:href="#m27e2f2400f" y="171.256035714"/>
      </g>
     </g>
     <g id="text_12">
      <!-- 800 -->
      <defs>
       <path d="M 31.78125 34.625 
Q 24.75 34.625 20.71875 30.859375 
Q 16.703125 27.09375 16.703125 20.515625 
Q 16.703125 13.921875 20.71875 10.15625 
Q 24.75 6.390625 31.78125 6.390625 
Q 38.8125 6.390625 42.859375 10.171875 
Q 46.921875 13.96875 46.921875 20.515625 
Q 46.921875 27.09375 42.890625 30.859375 
Q 38.875 34.625 31.78125 34.625 
M 21.921875 38.8125 
Q 15.578125 40.375 12.03125 44.71875 
Q 8.5 49.078125 8.5 55.328125 
Q 8.5 64.0625 14.71875 69.140625 
Q 20.953125 74.21875 31.78125 74.21875 
Q 42.671875 74.21875 48.875 69.140625 
Q 55.078125 64.0625 55.078125 55.328125 
Q 55.078125 49.078125 51.53125 44.71875 
Q 48 40.375 41.703125 38.8125 
Q 48.828125 37.15625 52.796875 32.3125 
Q 56.78125 27.484375 56.78125 20.515625 
Q 56.78125 9.90625 50.3125 4.234375 
Q 43.84375 -1.421875 31.78125 -1.421875 
Q 19.734375 -1.421875 13.25 4.234375 
Q 6.78125 9.90625 6.78125 20.515625 
Q 6.78125 27.484375 10.78125 32.3125 
Q 14.796875 37.15625 21.921875 38.8125 
M 18.3125 54.390625 
Q 18.3125 48.734375 21.84375 45.5625 
Q 25.390625 42.390625 31.78125 42.390625 
Q 38.140625 42.390625 41.71875 45.5625 
Q 45.3125 48.734375 45.3125 54.390625 
Q 45.3125 60.0625 41.71875 63.234375 
Q 38.140625 66.40625 31.78125 66.40625 
Q 25.390625 66.40625 21.84375 63.234375 
Q 18.3125 60.0625 18.3125 54.390625 
" id="BitstreamVeraSans-Roman-38"/>
      </defs>
      <g transform="translate(31.44875 174.567285714)scale(0.12 -0.12)">
       <use xlink:href="#BitstreamVeraSans-Roman-38"/>
       <use x="63.623046875" xlink:href="#BitstreamVeraSans-Roman-30"/>
       <use x="127.24609375" xlink:href="#BitstreamVeraSans-Roman-30"/>
      </g>
     </g>
    </g>
    <g id="ytick_6">
     <g id="line2d_24">
      <g>
       <use style="stroke:#000000;stroke-width:0.5;" x="58.35375" xlink:href="#m6ed35611dd" y="121.884607143"/>
      </g>
     </g>
     <g id="line2d_25">
      <g>
       <use style="stroke:#000000;stroke-width:0.5;" x="504.75375" xlink:href="#m27e2f2400f" y="121.884607143"/>
      </g>
     </g>
     <g id="text_13">
      <!-- 1000 -->
      <g transform="translate(23.81375 125.195857143)scale(0.12 -0.12)">
       <use xlink:href="#BitstreamVeraSans-Roman-31"/>
       <use x="63.623046875" xlink:href="#BitstreamVeraSans-Roman-30"/>
       <use x="127.24609375" xlink:href="#BitstreamVeraSans-Roman-30"/>
       <use x="190.869140625" xlink:href="#BitstreamVeraSans-Roman-30"/>
      </g>
     </g>
    </g>
    <g id="ytick_7">
     <g id="line2d_26">
      <g>
       <use style="stroke:#000000;stroke-width:0.5;" x="58.35375" xlink:href="#m6ed35611dd" y="72.5131785714"/>
      </g>
     </g>
     <g id="line2d_27">
      <g>
       <use style="stroke:#000000;stroke-width:0.5;" x="504.75375" xlink:href="#m27e2f2400f" y="72.5131785714"/>
      </g>
     </g>
     <g id="text_14">
      <!-- 1200 -->
      <g transform="translate(23.81375 75.8244285714)scale(0.12 -0.12)">
       <use xlink:href="#BitstreamVeraSans-Roman-31"/>
       <use x="63.623046875" xlink:href="#BitstreamVeraSans-Roman-32"/>
       <use x="127.24609375" xlink:href="#BitstreamVeraSans-Roman-30"/>
       <use x="190.869140625" xlink:href="#BitstreamVeraSans-Roman-30"/>
      </g>
     </g>
    </g>
    <g id="ytick_8">
     <g id="line2d_28">
      <g>
       <use style="stroke:#000000;stroke-width:0.5;" x="58.35375" xlink:href="#m6ed35611dd" y="23.14175"/>
      </g>
     </g>
     <g id="line2d_29">
      <g>
       <use style="stroke:#000000;stroke-width:0.5;" x="504.75375" xlink:href="#m27e2f2400f" y="23.14175"/>
      </g>
     </g>
     <g id="text_15">
      <!-- 1400 -->
      <g transform="translate(23.81375 26.453)scale(0.12 -0.12)">
       <use xlink:href="#BitstreamVeraSans-Roman-31"/>
       <use x="63.623046875" xlink:href="#BitstreamVeraSans-Roman-34"/>
       <use x="127.24609375" xlink:href="#BitstreamVeraSans-Roman-30"/>
       <use x="190.869140625" xlink:href="#BitstreamVeraSans-Roman-30"/>
      </g>
     </g>
    </g>
    <g id="text_16">
     <!-- successes -->
     <defs>
      <path d="M 8.5 21.578125 
L 8.5 54.6875 
L 17.484375 54.6875 
L 17.484375 21.921875 
Q 17.484375 14.15625 20.5 10.265625 
Q 23.53125 6.390625 29.59375 6.390625 
Q 36.859375 6.390625 41.078125 11.03125 
Q 45.3125 15.671875 45.3125 23.6875 
L 45.3125 54.6875 
L 54.296875 54.6875 
L 54.296875 0 
L 45.3125 0 
L 45.3125 8.40625 
Q 42.046875 3.421875 37.71875 1 
Q 33.40625 -1.421875 27.6875 -1.421875 
Q 18.265625 -1.421875 13.375 4.4375 
Q 8.5 10.296875 8.5 21.578125 
" id="BitstreamVeraSans-Roman-75"/>
      <path d="M 48.78125 52.59375 
L 48.78125 44.1875 
Q 44.96875 46.296875 41.140625 47.34375 
Q 37.3125 48.390625 33.40625 48.390625 
Q 24.65625 48.390625 19.8125 42.84375 
Q 14.984375 37.3125 14.984375 27.296875 
Q 14.984375 17.28125 19.8125 11.734375 
Q 24.65625 6.203125 33.40625 6.203125 
Q 37.3125 6.203125 41.140625 7.25 
Q 44.96875 8.296875 48.78125 10.40625 
L 48.78125 2.09375 
Q 45.015625 0.34375 40.984375 -0.53125 
Q 36.96875 -1.421875 32.421875 -1.421875 
Q 20.0625 -1.421875 12.78125 6.34375 
Q 5.515625 14.109375 5.515625 27.296875 
Q 5.515625 40.671875 12.859375 48.328125 
Q 20.21875 56 33.015625 56 
Q 37.15625 56 41.109375 55.140625 
Q 45.0625 54.296875 48.78125 52.59375 
" id="BitstreamVeraSans-Roman-63"/>
     </defs>
     <g transform="translate(16.318125 226.228625)rotate(-90.0)scale(0.12 -0.12)">
      <use xlink:href="#BitstreamVeraSans-Roman-73"/>
      <use x="52.099609375" xlink:href="#BitstreamVeraSans-Roman-75"/>
      <use x="115.478515625" xlink:href="#BitstreamVeraSans-Roman-63"/>
      <use x="170.458984375" xlink:href="#BitstreamVeraSans-Roman-63"/>
      <use x="225.439453125" xlink:href="#BitstreamVeraSans-Roman-65"/>
      <use x="286.962890625" xlink:href="#BitstreamVeraSans-Roman-73"/>
      <use x="339.0625" xlink:href="#BitstreamVeraSans-Roman-73"/>
      <use x="391.162109375" xlink:href="#BitstreamVeraSans-Roman-65"/>
      <use x="452.685546875" xlink:href="#BitstreamVeraSans-Roman-73"/>
     </g>
    </g>
   </g>
   <g id="text_17">
    <!-- Number of successes -->
    <defs>
     <path d="M 41.109375 46.296875 
Q 39.59375 47.171875 37.8125 47.578125 
Q 36.03125 48 33.890625 48 
Q 26.265625 48 22.1875 43.046875 
Q 18.109375 38.09375 18.109375 28.8125 
L 18.109375 0 
L 9.078125 0 
L 9.078125 54.6875 
L 18.109375 54.6875 
L 18.109375 46.1875 
Q 20.953125 51.171875 25.484375 53.578125 
Q 30.03125 56 36.53125 56 
Q 37.453125 56 38.578125 55.875 
Q 39.703125 55.765625 41.0625 55.515625 
z
" id="BitstreamVeraSans-Roman-72"/>
     <path d="M 52 44.1875 
Q 55.375 50.25 60.0625 53.125 
Q 64.75 56 71.09375 56 
Q 79.640625 56 84.28125 50.015625 
Q 88.921875 44.046875 88.921875 33.015625 
L 88.921875 0 
L 79.890625 0 
L 79.890625 32.71875 
Q 79.890625 40.578125 77.09375 44.375 
Q 74.3125 48.1875 68.609375 48.1875 
Q 61.625 48.1875 57.5625 43.546875 
Q 53.515625 38.921875 53.515625 30.90625 
L 53.515625 0 
L 44.484375 0 
L 44.484375 32.71875 
Q 44.484375 40.625 41.703125 44.40625 
Q 38.921875 48.1875 33.109375 48.1875 
Q 26.21875 48.1875 22.15625 43.53125 
Q 18.109375 38.875 18.109375 30.90625 
L 18.109375 0 
L 9.078125 0 
L 9.078125 54.6875 
L 18.109375 54.6875 
L 18.109375 46.1875 
Q 21.1875 51.21875 25.484375 53.609375 
Q 29.78125 56 35.6875 56 
Q 41.65625 56 45.828125 52.96875 
Q 50 49.953125 52 44.1875 
" id="BitstreamVeraSans-Roman-6d"/>
     <path d="M 48.6875 27.296875 
Q 48.6875 37.203125 44.609375 42.84375 
Q 40.53125 48.484375 33.40625 48.484375 
Q 26.265625 48.484375 22.1875 42.84375 
Q 18.109375 37.203125 18.109375 27.296875 
Q 18.109375 17.390625 22.1875 11.75 
Q 26.265625 6.109375 33.40625 6.109375 
Q 40.53125 6.109375 44.609375 11.75 
Q 48.6875 17.390625 48.6875 27.296875 
M 18.109375 46.390625 
Q 20.953125 51.265625 25.265625 53.625 
Q 29.59375 56 35.59375 56 
Q 45.5625 56 51.78125 48.09375 
Q 58.015625 40.1875 58.015625 27.296875 
Q 58.015625 14.40625 51.78125 6.484375 
Q 45.5625 -1.421875 35.59375 -1.421875 
Q 29.59375 -1.421875 25.265625 0.953125 
Q 20.953125 3.328125 18.109375 8.203125 
L 18.109375 0 
L 9.078125 0 
L 9.078125 75.984375 
L 18.109375 75.984375 
z
" id="BitstreamVeraSans-Roman-62"/>
     <path d="M 37.109375 75.984375 
L 37.109375 68.5 
L 28.515625 68.5 
Q 23.6875 68.5 21.796875 66.546875 
Q 19.921875 64.59375 19.921875 59.515625 
L 19.921875 54.6875 
L 34.71875 54.6875 
L 34.71875 47.703125 
L 19.921875 47.703125 
L 19.921875 0 
L 10.890625 0 
L 10.890625 47.703125 
L 2.296875 47.703125 
L 2.296875 54.6875 
L 10.890625 54.6875 
L 10.890625 58.5 
Q 10.890625 67.625 15.140625 71.796875 
Q 19.390625 75.984375 28.609375 75.984375 
z
" id="BitstreamVeraSans-Roman-66"/>
     <path d="M 9.8125 72.90625 
L 23.09375 72.90625 
L 55.421875 11.921875 
L 55.421875 72.90625 
L 64.984375 72.90625 
L 64.984375 0 
L 51.703125 0 
L 19.390625 60.984375 
L 19.390625 0 
L 9.8125 0 
z
" id="BitstreamVeraSans-Roman-4e"/>
     <path id="BitstreamVeraSans-Roman-20"/>
    </defs>
    <g transform="translate(204.769125 18.14175)scale(0.144 -0.144)">
     <use xlink:href="#BitstreamVeraSans-Roman-4e"/>
     <use x="74.8046875" xlink:href="#BitstreamVeraSans-Roman-75"/>
     <use x="138.18359375" xlink:href="#BitstreamVeraSans-Roman-6d"/>
     <use x="235.595703125" xlink:href="#BitstreamVeraSans-Roman-62"/>
     <use x="299.072265625" xlink:href="#BitstreamVeraSans-Roman-65"/>
     <use x="360.595703125" xlink:href="#BitstreamVeraSans-Roman-72"/>
     <use x="401.708984375" xlink:href="#BitstreamVeraSans-Roman-20"/>
     <use x="433.49609375" xlink:href="#BitstreamVeraSans-Roman-6f"/>
     <use x="494.677734375" xlink:href="#BitstreamVeraSans-Roman-66"/>
     <use x="529.8828125" xlink:href="#BitstreamVeraSans-Roman-20"/>
     <use x="561.669921875" xlink:href="#BitstreamVeraSans-Roman-73"/>
     <use x="613.76953125" xlink:href="#BitstreamVeraSans-Roman-75"/>
     <use x="677.1484375" xlink:href="#BitstreamVeraSans-Roman-63"/>
     <use x="732.12890625" xlink:href="#BitstreamVeraSans-Roman-63"/>
     <use x="787.109375" xlink:href="#BitstreamVeraSans-Roman-65"/>
     <use x="848.6328125" xlink:href="#BitstreamVeraSans-Roman-73"/>
     <use x="900.732421875" xlink:href="#BitstreamVeraSans-Roman-73"/>
     <use x="952.83203125" xlink:href="#BitstreamVeraSans-Roman-65"/>
     <use x="1014.35546875" xlink:href="#BitstreamVeraSans-Roman-73"/>
    </g>
   </g>
  </g>
 </g>
 <defs>
  <clipPath id="p2f0f3aa201">
   <rect height="345.6" width="446.4" x="58.35375" y="23.14175"/>
  </clipPath>
 </defs>
</svg>
