<?xml version="1.0" encoding="utf-8" standalone="no"?>
<!DOCTYPE svg PUBLIC "-//W3C//DTD SVG 1.1//EN"
  "http://www.w3.org/Graphics/SVG/1.1/DTD/svg11.dtd">
<!-- Created with matplotlib (http://matplotlib.org/) -->
<svg height="408pt" version="1.1" viewBox="0 0 519 408" width="519pt" xmlns="http://www.w3.org/2000/svg" xmlns:xlink="http://www.w3.org/1999/xlink">
 <defs>
  <style type="text/css">
*{stroke-linecap:butt;stroke-linejoin:round;stroke-miterlimit:100000;}
  </style>
 </defs>
 <g id="figure_1">
  <g id="patch_1">
   <path d="M 0 408.16925 
L 519.585 408.16925 
L 519.585 0 
L 0 0 
z
" style="fill:#ffffff;"/>
  </g>
  <g id="axes_1">
   <g id="patch_2">
    <path d="M 54.5325 368.74175 
L 500.9325 368.74175 
L 500.9325 23.14175 
L 54.5325 23.14175 
z
" style="fill:#ffffff;"/>
   </g>
   <g id="line2d_1">
    <path clip-path="url(#p02b026769a)" d="M 54.5325 288.936334 
L 56.0205 258.349111 
L 57.5085 265.727395 
L 58.9965 294.262635 
L 60.4845 317.763036 
L 61.9725 306.765873 
L 63.4605 291.089378 
L 64.9485 290.868668 
L 66.4365 289.481621 
L 67.9245 245.629398 
L 69.4125 295.912832 
L 70.9005 257.366546 
L 72.3885 268.957093 
L 73.8765 249.229488 
L 75.3645 263.439917 
L 76.8525 263.123961 
L 78.3405 251.602558 
L 79.8285 310.65372 
L 81.3165 230.080938 
L 82.8045 279.66172 
L 84.2925 277.410364 
L 85.7805 263.782108 
L 87.2685 271.453121 
L 88.7565 266.222749 
L 90.2445 296.577389 
L 91.7325 254.889044 
L 93.2205 270.481305 
L 94.7085 250.448467 
L 96.1965 276.11555 
L 97.6845 232.598399 
L 99.1725 284.773402 
L 100.6605 256.891397 
L 102.1485 295.429635 
L 103.6365 278.674592 
L 105.1245 256.560856 
L 106.6125 279.438888 
L 108.1005 255.400408 
L 109.5885 315.845141 
L 111.0765 226.391782 
L 112.5645 246.670101 
L 114.0525 273.166651 
L 115.5405 319.265832 
L 117.0285 278.064601 
L 118.5165 296.606694 
L 120.0045 239.832161 
L 121.4925 278.311013 
L 122.9805 274.430747 
L 124.4685 275.373541 
L 125.9565 294.419699 
L 127.4445 291.694964 
L 128.9325 249.555481 
L 130.4205 297.401675 
L 131.9085 298.580187 
L 133.3965 236.95364 
L 134.8845 255.472191 
L 136.3725 258.325919 
L 137.8605 255.82912 
L 139.3485 313.04351 
L 140.8365 293.771834 
L 142.3245 256.702776 
L 143.8125 280.504591 
L 145.3005 317.071799 
L 146.7885 275.993357 
L 148.2765 278.810824 
L 149.7645 265.606406 
L 151.2525 331.99687 
L 152.7405 252.015086 
L 154.2285 298.004026 
L 155.7165 243.47756 
L 157.2045 269.882601 
L 158.6925 253.700706 
L 160.1805 317.157116 
L 161.6685 262.439201 
L 163.1565 301.194064 
L 164.6445 281.468458 
L 166.1325 258.925735 
L 167.6205 209.494403 
L 169.1085 247.893171 
L 170.5965 302.073468 
L 172.0845 310.033103 
L 173.5725 234.471309 
L 175.0605 248.988771 
L 176.5485 256.866408 
L 178.0365 266.488155 
L 179.5245 314.887341 
L 181.0125 297.580368 
L 182.5005 293.91519 
L 183.9885 291.356623 
L 185.4765 242.433182 
L 186.9645 252.677744 
L 188.4525 303.069932 
L 189.9405 282.089322 
L 191.4285 278.340972 
L 192.9165 262.204691 
L 194.4045 310.901574 
L 195.8925 279.647074 
L 197.3805 268.4498 
L 198.8685 289.473578 
L 200.3565 258.064351 
L 201.8445 305.711346 
L 203.3325 291.652246 
L 204.8205 294.715928 
L 206.3085 224.428569 
L 207.7965 265.622648 
L 209.2845 213.29199 
L 210.7725 303.466039 
L 212.2605 304.334526 
L 213.7485 292.950784 
L 215.2365 291.123108 
L 216.7245 300.332888 
L 218.2125 287.84287 
L 219.7005 264.751148 
L 221.1885 298.707911 
L 222.6765 256.290089 
L 224.1645 250.193423 
L 225.6525 320.126426 
L 227.1405 286.642402 
L 228.6285 269.818192 
L 230.1165 289.67534 
L 231.6045 262.876276 
L 233.0925 296.333088 
L 234.5805 318.14357 
L 236.0685 262.94909 
L 237.5565 282.603298 
L 239.0445 261.134705 
L 240.5325 266.123154 
L 242.0205 261.895953 
L 243.5085 282.509125 
L 244.9965 277.357148 
L 246.4845 245.362122 
L 247.9725 276.951405 
L 249.4605 284.76671 
L 252.4365 246.588339 
L 253.9245 248.939724 
L 255.4125 286.006215 
L 256.9005 294.574175 
L 258.3885 279.649174 
L 259.8765 287.335554 
L 261.3645 305.443648 
L 262.8525 271.580435 
L 264.3405 254.20248 
L 265.8285 266.448812 
L 267.3165 254.155118 
L 268.8045 238.777202 
L 270.2925 247.223475 
L 271.7805 247.807518 
L 273.2685 294.322269 
L 274.7565 278.793498 
L 276.2445 279.032658 
L 277.7325 280.289983 
L 279.2205 251.712433 
L 280.7085 265.152396 
L 282.1965 251.721033 
L 283.6845 289.348958 
L 285.1725 249.611595 
L 286.6605 252.745697 
L 288.1485 241.656164 
L 289.6365 258.828914 
L 291.1245 241.025834 
L 292.6125 251.898583 
L 294.1005 281.726734 
L 295.5885 240.381224 
L 297.0765 273.794934 
L 298.5645 267.819976 
L 300.0525 298.574317 
L 301.5405 233.582494 
L 303.0285 236.221851 
L 304.5165 246.209806 
L 306.0045 249.797183 
L 307.4925 228.040909 
L 308.9805 255.533347 
L 310.4685 249.146612 
L 311.9565 236.044607 
L 313.4445 255.570137 
L 314.9325 234.032526 
L 316.4205 264.419276 
L 317.9085 224.208302 
L 319.3965 216.02673 
L 320.8845 261.729613 
L 323.8605 233.903243 
L 325.3485 259.585147 
L 326.8365 280.026691 
L 329.8125 223.840586 
L 331.3005 235.838119 
L 332.7885 224.143296 
L 334.2765 261.626781 
L 335.7645 246.407718 
L 337.2525 254.754292 
L 338.7405 265.021747 
L 340.2285 240.60555 
L 341.7165 221.139544 
L 343.2045 210.615652 
L 344.6925 249.569709 
L 346.1805 193.068083 
L 347.6685 237.126268 
L 349.1565 240.537147 
L 350.6445 232.285846 
L 352.1325 229.475946 
L 353.6205 204.168276 
L 355.1085 221.033556 
L 356.5965 203.249832 
L 358.0845 218.511162 
L 359.5725 217.699699 
L 361.0605 230.345096 
L 362.5485 227.805642 
L 364.0365 217.866946 
L 365.5245 196.705112 
L 367.0125 228.435002 
L 368.5005 248.102808 
L 369.9885 204.546845 
L 371.4765 237.116788 
L 372.9645 184.295151 
L 374.4525 227.45827 
L 375.9405 207.421295 
L 377.4285 217.571133 
L 378.9165 177.547324 
L 380.4045 194.085488 
L 381.8925 199.851717 
L 383.3805 232.232971 
L 384.8685 221.760551 
L 386.3565 175.546996 
L 387.8445 212.413637 
L 389.3325 202.525838 
L 390.8205 200.988272 
L 392.3085 177.902475 
L 393.7965 174.345172 
L 395.2845 201.612027 
L 396.7725 176.202292 
L 398.2605 193.053426 
L 399.7485 199.940053 
L 401.2365 172.037716 
L 402.7245 202.892055 
L 404.2125 182.12479 
L 405.7005 173.427069 
L 407.1885 167.395315 
L 408.6765 179.988652 
L 410.1645 185.930157 
L 411.6525 170.094489 
L 413.1405 166.018372 
L 414.6285 158.809739 
L 416.1165 166.474075 
L 417.6045 166.107816 
L 419.0925 192.836019 
L 420.5805 145.72222 
L 422.0685 184.547201 
L 423.5565 168.230177 
L 425.0445 132.626521 
L 426.5325 164.938449 
L 428.0205 174.208939 
L 429.5085 181.430375 
L 430.9965 145.866831 
L 432.4845 166.741931 
L 433.9725 154.622191 
L 435.4605 162.606242 
L 436.9485 152.756973 
L 438.4365 158.330667 
L 439.9245 151.610324 
L 441.4125 142.946246 
L 442.9005 182.821715 
L 444.3885 151.876895 
L 445.8765 137.082479 
L 447.3645 119.795879 
L 448.8525 142.543501 
L 450.3405 141.521445 
L 451.8285 122.85851 
L 453.3165 136.458031 
L 454.8045 135.650835 
L 456.2925 139.177884 
L 457.7805 125.250891 
L 459.2685 107.121649 
L 460.7565 132.203008 
L 462.2445 130.223117 
L 463.7325 140.21368 
L 465.2205 140.273532 
L 466.7085 124.712897 
L 468.1965 104.642078 
L 469.6845 102.449178 
L 471.1725 77.126747 
L 472.6605 105.633814 
L 474.1485 122.093794 
L 475.6365 115.162952 
L 477.1245 103.151422 
L 478.6125 65.107326 
L 480.1005 87.1549 
L 481.5885 85.970921 
L 483.0765 95.913869 
L 484.5645 94.323037 
L 486.0525 85.034833 
L 487.5405 58.961291 
L 489.0285 82.269749 
L 490.5165 91.093095 
L 492.0045 53.951261 
L 493.4925 88.019659 
L 494.9805 80.218218 
L 496.4685 80.39227 
L 497.9565 77.320717 
L 499.4445 67.885743 
L 499.4445 67.885743 
" style="fill:none;stroke:#0000ff;stroke-linecap:square;stroke-width:0.5;"/>
   </g>
   <g id="patch_3">
    <path d="M 54.5325 368.74175 
L 54.5325 23.14175 
" style="fill:none;stroke:#000000;stroke-linecap:square;stroke-linejoin:miter;"/>
   </g>
   <g id="patch_4">
    <path d="M 54.5325 368.74175 
L 500.9325 368.74175 
" style="fill:none;stroke:#000000;stroke-linecap:square;stroke-linejoin:miter;"/>
   </g>
   <g id="patch_5">
    <path d="M 500.9325 368.74175 
L 500.9325 23.14175 
" style="fill:none;stroke:#000000;stroke-linecap:square;stroke-linejoin:miter;"/>
   </g>
   <g id="patch_6">
    <path d="M 54.5325 23.14175 
L 500.9325 23.14175 
" style="fill:none;stroke:#000000;stroke-linecap:square;stroke-linejoin:miter;"/>
   </g>
   <g id="matplotlib.axis_1">
    <g id="xtick_1">
     <g id="line2d_2">
      <defs>
       <path d="M 0 0 
L 0 -4 
" id="m7db2bbc56d" style="stroke:#000000;stroke-width:0.5;"/>
      </defs>
      <g>
       <use style="stroke:#000000;stroke-width:0.5;" x="54.5325" xlink:href="#m7db2bbc56d" y="368.74175"/>
      </g>
     </g>
     <g id="line2d_3">
      <defs>
       <path d="M 0 0 
L 0 4 
" id="m0a722b34ec" style="stroke:#000000;stroke-width:0.5;"/>
      </defs>
      <g>
       <use style="stroke:#000000;stroke-width:0.5;" x="54.5325" xlink:href="#m0a722b34ec" y="23.14175"/>
      </g>
     </g>
     <g id="text_1">
      <!-- 0 -->
      <defs>
       <path d="M 31.78125 66.40625 
Q 24.171875 66.40625 20.328125 58.90625 
Q 16.5 51.421875 16.5 36.375 
Q 16.5 21.390625 20.328125 13.890625 
Q 24.171875 6.390625 31.78125 6.390625 
Q 39.453125 6.390625 43.28125 13.890625 
Q 47.125 21.390625 47.125 36.375 
Q 47.125 51.421875 43.28125 58.90625 
Q 39.453125 66.40625 31.78125 66.40625 
M 31.78125 74.21875 
Q 44.046875 74.21875 50.515625 64.515625 
Q 56.984375 54.828125 56.984375 36.375 
Q 56.984375 17.96875 50.515625 8.265625 
Q 44.046875 -1.421875 31.78125 -1.421875 
Q 19.53125 -1.421875 13.0625 8.265625 
Q 6.59375 17.96875 6.59375 36.375 
Q 6.59375 54.828125 13.0625 64.515625 
Q 19.53125 74.21875 31.78125 74.21875 
" id="BitstreamVeraSans-Roman-30"/>
      </defs>
      <g transform="translate(50.715 381.859875)scale(0.12 -0.12)">
       <use xlink:href="#BitstreamVeraSans-Roman-30"/>
      </g>
     </g>
    </g>
    <g id="xtick_2">
     <g id="line2d_4">
      <g>
       <use style="stroke:#000000;stroke-width:0.5;" x="128.9325" xlink:href="#m7db2bbc56d" y="368.74175"/>
      </g>
     </g>
     <g id="line2d_5">
      <g>
       <use style="stroke:#000000;stroke-width:0.5;" x="128.9325" xlink:href="#m0a722b34ec" y="23.14175"/>
      </g>
     </g>
     <g id="text_2">
      <!-- 50 -->
      <defs>
       <path d="M 10.796875 72.90625 
L 49.515625 72.90625 
L 49.515625 64.59375 
L 19.828125 64.59375 
L 19.828125 46.734375 
Q 21.96875 47.46875 24.109375 47.828125 
Q 26.265625 48.1875 28.421875 48.1875 
Q 40.625 48.1875 47.75 41.5 
Q 54.890625 34.8125 54.890625 23.390625 
Q 54.890625 11.625 47.5625 5.09375 
Q 40.234375 -1.421875 26.90625 -1.421875 
Q 22.3125 -1.421875 17.546875 -0.640625 
Q 12.796875 0.140625 7.71875 1.703125 
L 7.71875 11.625 
Q 12.109375 9.234375 16.796875 8.0625 
Q 21.484375 6.890625 26.703125 6.890625 
Q 35.15625 6.890625 40.078125 11.328125 
Q 45.015625 15.765625 45.015625 23.390625 
Q 45.015625 31 40.078125 35.4375 
Q 35.15625 39.890625 26.703125 39.890625 
Q 22.75 39.890625 18.8125 39.015625 
Q 14.890625 38.140625 10.796875 36.28125 
z
" id="BitstreamVeraSans-Roman-35"/>
      </defs>
      <g transform="translate(121.2975 381.859875)scale(0.12 -0.12)">
       <use xlink:href="#BitstreamVeraSans-Roman-35"/>
       <use x="63.623046875" xlink:href="#BitstreamVeraSans-Roman-30"/>
      </g>
     </g>
    </g>
    <g id="xtick_3">
     <g id="line2d_6">
      <g>
       <use style="stroke:#000000;stroke-width:0.5;" x="203.3325" xlink:href="#m7db2bbc56d" y="368.74175"/>
      </g>
     </g>
     <g id="line2d_7">
      <g>
       <use style="stroke:#000000;stroke-width:0.5;" x="203.3325" xlink:href="#m0a722b34ec" y="23.14175"/>
      </g>
     </g>
     <g id="text_3">
      <!-- 100 -->
      <defs>
       <path d="M 12.40625 8.296875 
L 28.515625 8.296875 
L 28.515625 63.921875 
L 10.984375 60.40625 
L 10.984375 69.390625 
L 28.421875 72.90625 
L 38.28125 72.90625 
L 38.28125 8.296875 
L 54.390625 8.296875 
L 54.390625 0 
L 12.40625 0 
z
" id="BitstreamVeraSans-Roman-31"/>
      </defs>
      <g transform="translate(191.88 381.859875)scale(0.12 -0.12)">
       <use xlink:href="#BitstreamVeraSans-Roman-31"/>
       <use x="63.623046875" xlink:href="#BitstreamVeraSans-Roman-30"/>
       <use x="127.24609375" xlink:href="#BitstreamVeraSans-Roman-30"/>
      </g>
     </g>
    </g>
    <g id="xtick_4">
     <g id="line2d_8">
      <g>
       <use style="stroke:#000000;stroke-width:0.5;" x="277.7325" xlink:href="#m7db2bbc56d" y="368.74175"/>
      </g>
     </g>
     <g id="line2d_9">
      <g>
       <use style="stroke:#000000;stroke-width:0.5;" x="277.7325" xlink:href="#m0a722b34ec" y="23.14175"/>
      </g>
     </g>
     <g id="text_4">
      <!-- 150 -->
      <g transform="translate(266.28 381.859875)scale(0.12 -0.12)">
       <use xlink:href="#BitstreamVeraSans-Roman-31"/>
       <use x="63.623046875" xlink:href="#BitstreamVeraSans-Roman-35"/>
       <use x="127.24609375" xlink:href="#BitstreamVeraSans-Roman-30"/>
      </g>
     </g>
    </g>
    <g id="xtick_5">
     <g id="line2d_10">
      <g>
       <use style="stroke:#000000;stroke-width:0.5;" x="352.1325" xlink:href="#m7db2bbc56d" y="368.74175"/>
      </g>
     </g>
     <g id="line2d_11">
      <g>
       <use style="stroke:#000000;stroke-width:0.5;" x="352.1325" xlink:href="#m0a722b34ec" y="23.14175"/>
      </g>
     </g>
     <g id="text_5">
      <!-- 200 -->
      <defs>
       <path d="M 19.1875 8.296875 
L 53.609375 8.296875 
L 53.609375 0 
L 7.328125 0 
L 7.328125 8.296875 
Q 12.9375 14.109375 22.625 23.890625 
Q 32.328125 33.6875 34.8125 36.53125 
Q 39.546875 41.84375 41.421875 45.53125 
Q 43.3125 49.21875 43.3125 52.78125 
Q 43.3125 58.59375 39.234375 62.25 
Q 35.15625 65.921875 28.609375 65.921875 
Q 23.96875 65.921875 18.8125 64.3125 
Q 13.671875 62.703125 7.8125 59.421875 
L 7.8125 69.390625 
Q 13.765625 71.78125 18.9375 73 
Q 24.125 74.21875 28.421875 74.21875 
Q 39.75 74.21875 46.484375 68.546875 
Q 53.21875 62.890625 53.21875 53.421875 
Q 53.21875 48.921875 51.53125 44.890625 
Q 49.859375 40.875 45.40625 35.40625 
Q 44.1875 33.984375 37.640625 27.21875 
Q 31.109375 20.453125 19.1875 8.296875 
" id="BitstreamVeraSans-Roman-32"/>
      </defs>
      <g transform="translate(340.68 381.859875)scale(0.12 -0.12)">
       <use xlink:href="#BitstreamVeraSans-Roman-32"/>
       <use x="63.623046875" xlink:href="#BitstreamVeraSans-Roman-30"/>
       <use x="127.24609375" xlink:href="#BitstreamVeraSans-Roman-30"/>
      </g>
     </g>
    </g>
    <g id="xtick_6">
     <g id="line2d_12">
      <g>
       <use style="stroke:#000000;stroke-width:0.5;" x="426.5325" xlink:href="#m7db2bbc56d" y="368.74175"/>
      </g>
     </g>
     <g id="line2d_13">
      <g>
       <use style="stroke:#000000;stroke-width:0.5;" x="426.5325" xlink:href="#m0a722b34ec" y="23.14175"/>
      </g>
     </g>
     <g id="text_6">
      <!-- 250 -->
      <g transform="translate(415.08 381.859875)scale(0.12 -0.12)">
       <use xlink:href="#BitstreamVeraSans-Roman-32"/>
       <use x="63.623046875" xlink:href="#BitstreamVeraSans-Roman-35"/>
       <use x="127.24609375" xlink:href="#BitstreamVeraSans-Roman-30"/>
      </g>
     </g>
    </g>
    <g id="xtick_7">
     <g id="line2d_14">
      <g>
       <use style="stroke:#000000;stroke-width:0.5;" x="500.9325" xlink:href="#m7db2bbc56d" y="368.74175"/>
      </g>
     </g>
     <g id="line2d_15">
      <g>
       <use style="stroke:#000000;stroke-width:0.5;" x="500.9325" xlink:href="#m0a722b34ec" y="23.14175"/>
      </g>
     </g>
     <g id="text_7">
      <!-- 300 -->
      <defs>
       <path d="M 40.578125 39.3125 
Q 47.65625 37.796875 51.625 33 
Q 55.609375 28.21875 55.609375 21.1875 
Q 55.609375 10.40625 48.1875 4.484375 
Q 40.765625 -1.421875 27.09375 -1.421875 
Q 22.515625 -1.421875 17.65625 -0.515625 
Q 12.796875 0.390625 7.625 2.203125 
L 7.625 11.71875 
Q 11.71875 9.328125 16.59375 8.109375 
Q 21.484375 6.890625 26.8125 6.890625 
Q 36.078125 6.890625 40.9375 10.546875 
Q 45.796875 14.203125 45.796875 21.1875 
Q 45.796875 27.640625 41.28125 31.265625 
Q 36.765625 34.90625 28.71875 34.90625 
L 20.21875 34.90625 
L 20.21875 43.015625 
L 29.109375 43.015625 
Q 36.375 43.015625 40.234375 45.921875 
Q 44.09375 48.828125 44.09375 54.296875 
Q 44.09375 59.90625 40.109375 62.90625 
Q 36.140625 65.921875 28.71875 65.921875 
Q 24.65625 65.921875 20.015625 65.03125 
Q 15.375 64.15625 9.8125 62.3125 
L 9.8125 71.09375 
Q 15.4375 72.65625 20.34375 73.4375 
Q 25.25 74.21875 29.59375 74.21875 
Q 40.828125 74.21875 47.359375 69.109375 
Q 53.90625 64.015625 53.90625 55.328125 
Q 53.90625 49.265625 50.4375 45.09375 
Q 46.96875 40.921875 40.578125 39.3125 
" id="BitstreamVeraSans-Roman-33"/>
      </defs>
      <g transform="translate(489.48 381.859875)scale(0.12 -0.12)">
       <use xlink:href="#BitstreamVeraSans-Roman-33"/>
       <use x="63.623046875" xlink:href="#BitstreamVeraSans-Roman-30"/>
       <use x="127.24609375" xlink:href="#BitstreamVeraSans-Roman-30"/>
      </g>
     </g>
    </g>
    <g id="text_8">
     <!-- episode -->
     <defs>
      <path d="M 56.203125 29.59375 
L 56.203125 25.203125 
L 14.890625 25.203125 
Q 15.484375 15.921875 20.484375 11.0625 
Q 25.484375 6.203125 34.421875 6.203125 
Q 39.59375 6.203125 44.453125 7.46875 
Q 49.3125 8.734375 54.109375 11.28125 
L 54.109375 2.78125 
Q 49.265625 0.734375 44.1875 -0.34375 
Q 39.109375 -1.421875 33.890625 -1.421875 
Q 20.796875 -1.421875 13.15625 6.1875 
Q 5.515625 13.8125 5.515625 26.8125 
Q 5.515625 40.234375 12.765625 48.109375 
Q 20.015625 56 32.328125 56 
Q 43.359375 56 49.78125 48.890625 
Q 56.203125 41.796875 56.203125 29.59375 
M 47.21875 32.234375 
Q 47.125 39.59375 43.09375 43.984375 
Q 39.0625 48.390625 32.421875 48.390625 
Q 24.90625 48.390625 20.390625 44.140625 
Q 15.875 39.890625 15.1875 32.171875 
z
" id="BitstreamVeraSans-Roman-65"/>
      <path d="M 18.109375 8.203125 
L 18.109375 -20.796875 
L 9.078125 -20.796875 
L 9.078125 54.6875 
L 18.109375 54.6875 
L 18.109375 46.390625 
Q 20.953125 51.265625 25.265625 53.625 
Q 29.59375 56 35.59375 56 
Q 45.5625 56 51.78125 48.09375 
Q 58.015625 40.1875 58.015625 27.296875 
Q 58.015625 14.40625 51.78125 6.484375 
Q 45.5625 -1.421875 35.59375 -1.421875 
Q 29.59375 -1.421875 25.265625 0.953125 
Q 20.953125 3.328125 18.109375 8.203125 
M 48.6875 27.296875 
Q 48.6875 37.203125 44.609375 42.84375 
Q 40.53125 48.484375 33.40625 48.484375 
Q 26.265625 48.484375 22.1875 42.84375 
Q 18.109375 37.203125 18.109375 27.296875 
Q 18.109375 17.390625 22.1875 11.75 
Q 26.265625 6.109375 33.40625 6.109375 
Q 40.53125 6.109375 44.609375 11.75 
Q 48.6875 17.390625 48.6875 27.296875 
" id="BitstreamVeraSans-Roman-70"/>
      <path d="M 9.421875 54.6875 
L 18.40625 54.6875 
L 18.40625 0 
L 9.421875 0 
z
M 9.421875 75.984375 
L 18.40625 75.984375 
L 18.40625 64.59375 
L 9.421875 64.59375 
z
" id="BitstreamVeraSans-Roman-69"/>
      <path d="M 44.28125 53.078125 
L 44.28125 44.578125 
Q 40.484375 46.53125 36.375 47.5 
Q 32.28125 48.484375 27.875 48.484375 
Q 21.1875 48.484375 17.84375 46.4375 
Q 14.5 44.390625 14.5 40.28125 
Q 14.5 37.15625 16.890625 35.375 
Q 19.28125 33.59375 26.515625 31.984375 
L 29.59375 31.296875 
Q 39.15625 29.25 43.1875 25.515625 
Q 47.21875 21.78125 47.21875 15.09375 
Q 47.21875 7.46875 41.1875 3.015625 
Q 35.15625 -1.421875 24.609375 -1.421875 
Q 20.21875 -1.421875 15.453125 -0.5625 
Q 10.6875 0.296875 5.421875 2 
L 5.421875 11.28125 
Q 10.40625 8.6875 15.234375 7.390625 
Q 20.0625 6.109375 24.8125 6.109375 
Q 31.15625 6.109375 34.5625 8.28125 
Q 37.984375 10.453125 37.984375 14.40625 
Q 37.984375 18.0625 35.515625 20.015625 
Q 33.0625 21.96875 24.703125 23.78125 
L 21.578125 24.515625 
Q 13.234375 26.265625 9.515625 29.90625 
Q 5.8125 33.546875 5.8125 39.890625 
Q 5.8125 47.609375 11.28125 51.796875 
Q 16.75 56 26.8125 56 
Q 31.78125 56 36.171875 55.265625 
Q 40.578125 54.546875 44.28125 53.078125 
" id="BitstreamVeraSans-Roman-73"/>
      <path d="M 45.40625 46.390625 
L 45.40625 75.984375 
L 54.390625 75.984375 
L 54.390625 0 
L 45.40625 0 
L 45.40625 8.203125 
Q 42.578125 3.328125 38.25 0.953125 
Q 33.9375 -1.421875 27.875 -1.421875 
Q 17.96875 -1.421875 11.734375 6.484375 
Q 5.515625 14.40625 5.515625 27.296875 
Q 5.515625 40.1875 11.734375 48.09375 
Q 17.96875 56 27.875 56 
Q 33.9375 56 38.25 53.625 
Q 42.578125 51.265625 45.40625 46.390625 
M 14.796875 27.296875 
Q 14.796875 17.390625 18.875 11.75 
Q 22.953125 6.109375 30.078125 6.109375 
Q 37.203125 6.109375 41.296875 11.75 
Q 45.40625 17.390625 45.40625 27.296875 
Q 45.40625 37.203125 41.296875 42.84375 
Q 37.203125 48.484375 30.078125 48.484375 
Q 22.953125 48.484375 18.875 42.84375 
Q 14.796875 37.203125 14.796875 27.296875 
" id="BitstreamVeraSans-Roman-64"/>
      <path d="M 30.609375 48.390625 
Q 23.390625 48.390625 19.1875 42.75 
Q 14.984375 37.109375 14.984375 27.296875 
Q 14.984375 17.484375 19.15625 11.84375 
Q 23.34375 6.203125 30.609375 6.203125 
Q 37.796875 6.203125 41.984375 11.859375 
Q 46.1875 17.53125 46.1875 27.296875 
Q 46.1875 37.015625 41.984375 42.703125 
Q 37.796875 48.390625 30.609375 48.390625 
M 30.609375 56 
Q 42.328125 56 49.015625 48.375 
Q 55.71875 40.765625 55.71875 27.296875 
Q 55.71875 13.875 49.015625 6.21875 
Q 42.328125 -1.421875 30.609375 -1.421875 
Q 18.84375 -1.421875 12.171875 6.21875 
Q 5.515625 13.875 5.515625 27.296875 
Q 5.515625 40.765625 12.171875 48.375 
Q 18.84375 56 30.609375 56 
" id="BitstreamVeraSans-Roman-6f"/>
     </defs>
     <g transform="translate(254.266875 398.473625)scale(0.12 -0.12)">
      <use xlink:href="#BitstreamVeraSans-Roman-65"/>
      <use x="61.5234375" xlink:href="#BitstreamVeraSans-Roman-70"/>
      <use x="125.0" xlink:href="#BitstreamVeraSans-Roman-69"/>
      <use x="152.783203125" xlink:href="#BitstreamVeraSans-Roman-73"/>
      <use x="204.8828125" xlink:href="#BitstreamVeraSans-Roman-6f"/>
      <use x="266.064453125" xlink:href="#BitstreamVeraSans-Roman-64"/>
      <use x="329.541015625" xlink:href="#BitstreamVeraSans-Roman-65"/>
     </g>
    </g>
   </g>
   <g id="matplotlib.axis_2">
    <g id="ytick_1">
     <g id="line2d_16">
      <defs>
       <path d="M 0 0 
L 4 0 
" id="mb1c2c905a7" style="stroke:#000000;stroke-width:0.5;"/>
      </defs>
      <g>
       <use style="stroke:#000000;stroke-width:0.5;" x="54.5325" xlink:href="#mb1c2c905a7" y="368.74175"/>
      </g>
     </g>
     <g id="line2d_17">
      <defs>
       <path d="M 0 0 
L -4 0 
" id="m90a3a0bcf1" style="stroke:#000000;stroke-width:0.5;"/>
      </defs>
      <g>
       <use style="stroke:#000000;stroke-width:0.5;" x="500.9325" xlink:href="#m90a3a0bcf1" y="368.74175"/>
      </g>
     </g>
     <g id="text_9">
      <!-- 0.05 -->
      <defs>
       <path d="M 10.6875 12.40625 
L 21 12.40625 
L 21 0 
L 10.6875 0 
z
" id="BitstreamVeraSans-Roman-2e"/>
      </defs>
      <g transform="translate(23.81375 372.053)scale(0.12 -0.12)">
       <use xlink:href="#BitstreamVeraSans-Roman-30"/>
       <use x="63.623046875" xlink:href="#BitstreamVeraSans-Roman-2e"/>
       <use x="95.41015625" xlink:href="#BitstreamVeraSans-Roman-30"/>
       <use x="159.033203125" xlink:href="#BitstreamVeraSans-Roman-35"/>
      </g>
     </g>
    </g>
    <g id="ytick_2">
     <g id="line2d_18">
      <g>
       <use style="stroke:#000000;stroke-width:0.5;" x="54.5325" xlink:href="#mb1c2c905a7" y="311.14175"/>
      </g>
     </g>
     <g id="line2d_19">
      <g>
       <use style="stroke:#000000;stroke-width:0.5;" x="500.9325" xlink:href="#m90a3a0bcf1" y="311.14175"/>
      </g>
     </g>
     <g id="text_10">
      <!-- 0.10 -->
      <g transform="translate(23.81375 314.453)scale(0.12 -0.12)">
       <use xlink:href="#BitstreamVeraSans-Roman-30"/>
       <use x="63.623046875" xlink:href="#BitstreamVeraSans-Roman-2e"/>
       <use x="95.41015625" xlink:href="#BitstreamVeraSans-Roman-31"/>
       <use x="159.033203125" xlink:href="#BitstreamVeraSans-Roman-30"/>
      </g>
     </g>
    </g>
    <g id="ytick_3">
     <g id="line2d_20">
      <g>
       <use style="stroke:#000000;stroke-width:0.5;" x="54.5325" xlink:href="#mb1c2c905a7" y="253.54175"/>
      </g>
     </g>
     <g id="line2d_21">
      <g>
       <use style="stroke:#000000;stroke-width:0.5;" x="500.9325" xlink:href="#m90a3a0bcf1" y="253.54175"/>
      </g>
     </g>
     <g id="text_11">
      <!-- 0.15 -->
      <g transform="translate(23.81375 256.853)scale(0.12 -0.12)">
       <use xlink:href="#BitstreamVeraSans-Roman-30"/>
       <use x="63.623046875" xlink:href="#BitstreamVeraSans-Roman-2e"/>
       <use x="95.41015625" xlink:href="#BitstreamVeraSans-Roman-31"/>
       <use x="159.033203125" xlink:href="#BitstreamVeraSans-Roman-35"/>
      </g>
     </g>
    </g>
    <g id="ytick_4">
     <g id="line2d_22">
      <g>
       <use style="stroke:#000000;stroke-width:0.5;" x="54.5325" xlink:href="#mb1c2c905a7" y="195.94175"/>
      </g>
     </g>
     <g id="line2d_23">
      <g>
       <use style="stroke:#000000;stroke-width:0.5;" x="500.9325" xlink:href="#m90a3a0bcf1" y="195.94175"/>
      </g>
     </g>
     <g id="text_12">
      <!-- 0.20 -->
      <g transform="translate(23.81375 199.253)scale(0.12 -0.12)">
       <use xlink:href="#BitstreamVeraSans-Roman-30"/>
       <use x="63.623046875" xlink:href="#BitstreamVeraSans-Roman-2e"/>
       <use x="95.41015625" xlink:href="#BitstreamVeraSans-Roman-32"/>
       <use x="159.033203125" xlink:href="#BitstreamVeraSans-Roman-30"/>
      </g>
     </g>
    </g>
    <g id="ytick_5">
     <g id="line2d_24">
      <g>
       <use style="stroke:#000000;stroke-width:0.5;" x="54.5325" xlink:href="#mb1c2c905a7" y="138.34175"/>
      </g>
     </g>
     <g id="line2d_25">
      <g>
       <use style="stroke:#000000;stroke-width:0.5;" x="500.9325" xlink:href="#m90a3a0bcf1" y="138.34175"/>
      </g>
     </g>
     <g id="text_13">
      <!-- 0.25 -->
      <g transform="translate(23.81375 141.653)scale(0.12 -0.12)">
       <use xlink:href="#BitstreamVeraSans-Roman-30"/>
       <use x="63.623046875" xlink:href="#BitstreamVeraSans-Roman-2e"/>
       <use x="95.41015625" xlink:href="#BitstreamVeraSans-Roman-32"/>
       <use x="159.033203125" xlink:href="#BitstreamVeraSans-Roman-35"/>
      </g>
     </g>
    </g>
    <g id="ytick_6">
     <g id="line2d_26">
      <g>
       <use style="stroke:#000000;stroke-width:0.5;" x="54.5325" xlink:href="#mb1c2c905a7" y="80.74175"/>
      </g>
     </g>
     <g id="line2d_27">
      <g>
       <use style="stroke:#000000;stroke-width:0.5;" x="500.9325" xlink:href="#m90a3a0bcf1" y="80.74175"/>
      </g>
     </g>
     <g id="text_14">
      <!-- 0.30 -->
      <g transform="translate(23.81375 84.053)scale(0.12 -0.12)">
       <use xlink:href="#BitstreamVeraSans-Roman-30"/>
       <use x="63.623046875" xlink:href="#BitstreamVeraSans-Roman-2e"/>
       <use x="95.41015625" xlink:href="#BitstreamVeraSans-Roman-33"/>
       <use x="159.033203125" xlink:href="#BitstreamVeraSans-Roman-30"/>
      </g>
     </g>
    </g>
    <g id="ytick_7">
     <g id="line2d_28">
      <g>
       <use style="stroke:#000000;stroke-width:0.5;" x="54.5325" xlink:href="#mb1c2c905a7" y="23.14175"/>
      </g>
     </g>
     <g id="line2d_29">
      <g>
       <use style="stroke:#000000;stroke-width:0.5;" x="500.9325" xlink:href="#m90a3a0bcf1" y="23.14175"/>
      </g>
     </g>
     <g id="text_15">
      <!-- 0.35 -->
      <g transform="translate(23.81375 26.453)scale(0.12 -0.12)">
       <use xlink:href="#BitstreamVeraSans-Roman-30"/>
       <use x="63.623046875" xlink:href="#BitstreamVeraSans-Roman-2e"/>
       <use x="95.41015625" xlink:href="#BitstreamVeraSans-Roman-33"/>
       <use x="159.033203125" xlink:href="#BitstreamVeraSans-Roman-35"/>
      </g>
     </g>
    </g>
    <g id="text_16">
     <!-- average maxQ -->
     <defs>
      <path d="M 45.40625 27.984375 
Q 45.40625 37.75 41.375 43.109375 
Q 37.359375 48.484375 30.078125 48.484375 
Q 22.859375 48.484375 18.828125 43.109375 
Q 14.796875 37.75 14.796875 27.984375 
Q 14.796875 18.265625 18.828125 12.890625 
Q 22.859375 7.515625 30.078125 7.515625 
Q 37.359375 7.515625 41.375 12.890625 
Q 45.40625 18.265625 45.40625 27.984375 
M 54.390625 6.78125 
Q 54.390625 -7.171875 48.1875 -13.984375 
Q 42 -20.796875 29.203125 -20.796875 
Q 24.46875 -20.796875 20.265625 -20.09375 
Q 16.0625 -19.390625 12.109375 -17.921875 
L 12.109375 -9.1875 
Q 16.0625 -11.328125 19.921875 -12.34375 
Q 23.78125 -13.375 27.78125 -13.375 
Q 36.625 -13.375 41.015625 -8.765625 
Q 45.40625 -4.15625 45.40625 5.171875 
L 45.40625 9.625 
Q 42.625 4.78125 38.28125 2.390625 
Q 33.9375 0 27.875 0 
Q 17.828125 0 11.671875 7.65625 
Q 5.515625 15.328125 5.515625 27.984375 
Q 5.515625 40.671875 11.671875 48.328125 
Q 17.828125 56 27.875 56 
Q 33.9375 56 38.28125 53.609375 
Q 42.625 51.21875 45.40625 46.390625 
L 45.40625 54.6875 
L 54.390625 54.6875 
z
" id="BitstreamVeraSans-Roman-67"/>
      <path d="M 52 44.1875 
Q 55.375 50.25 60.0625 53.125 
Q 64.75 56 71.09375 56 
Q 79.640625 56 84.28125 50.015625 
Q 88.921875 44.046875 88.921875 33.015625 
L 88.921875 0 
L 79.890625 0 
L 79.890625 32.71875 
Q 79.890625 40.578125 77.09375 44.375 
Q 74.3125 48.1875 68.609375 48.1875 
Q 61.625 48.1875 57.5625 43.546875 
Q 53.515625 38.921875 53.515625 30.90625 
L 53.515625 0 
L 44.484375 0 
L 44.484375 32.71875 
Q 44.484375 40.625 41.703125 44.40625 
Q 38.921875 48.1875 33.109375 48.1875 
Q 26.21875 48.1875 22.15625 43.53125 
Q 18.109375 38.875 18.109375 30.90625 
L 18.109375 0 
L 9.078125 0 
L 9.078125 54.6875 
L 18.109375 54.6875 
L 18.109375 46.1875 
Q 21.1875 51.21875 25.484375 53.609375 
Q 29.78125 56 35.6875 56 
Q 41.65625 56 45.828125 52.96875 
Q 50 49.953125 52 44.1875 
" id="BitstreamVeraSans-Roman-6d"/>
      <path d="M 39.40625 66.21875 
Q 28.65625 66.21875 22.328125 58.203125 
Q 16.015625 50.203125 16.015625 36.375 
Q 16.015625 22.609375 22.328125 14.59375 
Q 28.65625 6.59375 39.40625 6.59375 
Q 50.140625 6.59375 56.421875 14.59375 
Q 62.703125 22.609375 62.703125 36.375 
Q 62.703125 50.203125 56.421875 58.203125 
Q 50.140625 66.21875 39.40625 66.21875 
M 53.21875 1.3125 
L 66.21875 -12.890625 
L 54.296875 -12.890625 
L 43.5 -1.21875 
Q 41.890625 -1.3125 41.03125 -1.359375 
Q 40.1875 -1.421875 39.40625 -1.421875 
Q 24.03125 -1.421875 14.8125 8.859375 
Q 5.609375 19.140625 5.609375 36.375 
Q 5.609375 53.65625 14.8125 63.9375 
Q 24.03125 74.21875 39.40625 74.21875 
Q 54.734375 74.21875 63.90625 63.9375 
Q 73.09375 53.65625 73.09375 36.375 
Q 73.09375 23.6875 67.984375 14.640625 
Q 62.890625 5.609375 53.21875 1.3125 
" id="BitstreamVeraSans-Roman-51"/>
      <path d="M 34.28125 27.484375 
Q 23.390625 27.484375 19.1875 25 
Q 14.984375 22.515625 14.984375 16.5 
Q 14.984375 11.71875 18.140625 8.90625 
Q 21.296875 6.109375 26.703125 6.109375 
Q 34.1875 6.109375 38.703125 11.40625 
Q 43.21875 16.703125 43.21875 25.484375 
L 43.21875 27.484375 
z
M 52.203125 31.203125 
L 52.203125 0 
L 43.21875 0 
L 43.21875 8.296875 
Q 40.140625 3.328125 35.546875 0.953125 
Q 30.953125 -1.421875 24.3125 -1.421875 
Q 15.921875 -1.421875 10.953125 3.296875 
Q 6 8.015625 6 15.921875 
Q 6 25.140625 12.171875 29.828125 
Q 18.359375 34.515625 30.609375 34.515625 
L 43.21875 34.515625 
L 43.21875 35.40625 
Q 43.21875 41.609375 39.140625 45 
Q 35.0625 48.390625 27.6875 48.390625 
Q 23 48.390625 18.546875 47.265625 
Q 14.109375 46.140625 10.015625 43.890625 
L 10.015625 52.203125 
Q 14.9375 54.109375 19.578125 55.046875 
Q 24.21875 56 28.609375 56 
Q 40.484375 56 46.34375 49.84375 
Q 52.203125 43.703125 52.203125 31.203125 
" id="BitstreamVeraSans-Roman-61"/>
      <path d="M 41.109375 46.296875 
Q 39.59375 47.171875 37.8125 47.578125 
Q 36.03125 48 33.890625 48 
Q 26.265625 48 22.1875 43.046875 
Q 18.109375 38.09375 18.109375 28.8125 
L 18.109375 0 
L 9.078125 0 
L 9.078125 54.6875 
L 18.109375 54.6875 
L 18.109375 46.1875 
Q 20.953125 51.171875 25.484375 53.578125 
Q 30.03125 56 36.53125 56 
Q 37.453125 56 38.578125 55.875 
Q 39.703125 55.765625 41.0625 55.515625 
z
" id="BitstreamVeraSans-Roman-72"/>
      <path d="M 54.890625 54.6875 
L 35.109375 28.078125 
L 55.90625 0 
L 45.3125 0 
L 29.390625 21.484375 
L 13.484375 0 
L 2.875 0 
L 24.125 28.609375 
L 4.6875 54.6875 
L 15.28125 54.6875 
L 29.78125 35.203125 
L 44.28125 54.6875 
z
" id="BitstreamVeraSans-Roman-78"/>
      <path id="BitstreamVeraSans-Roman-20"/>
      <path d="M 2.984375 54.6875 
L 12.5 54.6875 
L 29.59375 8.796875 
L 46.6875 54.6875 
L 56.203125 54.6875 
L 35.6875 0 
L 23.484375 0 
z
" id="BitstreamVeraSans-Roman-76"/>
     </defs>
     <g transform="translate(16.318125 240.208625)rotate(-90.0)scale(0.12 -0.12)">
      <use xlink:href="#BitstreamVeraSans-Roman-61"/>
      <use x="61.279296875" xlink:href="#BitstreamVeraSans-Roman-76"/>
      <use x="120.458984375" xlink:href="#BitstreamVeraSans-Roman-65"/>
      <use x="181.982421875" xlink:href="#BitstreamVeraSans-Roman-72"/>
      <use x="223.095703125" xlink:href="#BitstreamVeraSans-Roman-61"/>
      <use x="284.375" xlink:href="#BitstreamVeraSans-Roman-67"/>
      <use x="347.8515625" xlink:href="#BitstreamVeraSans-Roman-65"/>
      <use x="409.375" xlink:href="#BitstreamVeraSans-Roman-20"/>
      <use x="441.162109375" xlink:href="#BitstreamVeraSans-Roman-6d"/>
      <use x="538.57421875" xlink:href="#BitstreamVeraSans-Roman-61"/>
      <use x="599.853515625" xlink:href="#BitstreamVeraSans-Roman-78"/>
      <use x="659.033203125" xlink:href="#BitstreamVeraSans-Roman-51"/>
     </g>
    </g>
   </g>
   <g id="text_17">
    <!-- Average maxQ per episode, joint 6 -->
    <defs>
     <path d="M 11.71875 12.40625 
L 22.015625 12.40625 
L 22.015625 4 
L 14.015625 -11.625 
L 7.71875 -11.625 
L 11.71875 4 
z
" id="BitstreamVeraSans-Roman-2c"/>
     <path d="M 9.421875 54.6875 
L 18.40625 54.6875 
L 18.40625 -0.984375 
Q 18.40625 -11.421875 14.421875 -16.109375 
Q 10.453125 -20.796875 1.609375 -20.796875 
L -1.8125 -20.796875 
L -1.8125 -13.1875 
L 0.59375 -13.1875 
Q 5.71875 -13.1875 7.5625 -10.8125 
Q 9.421875 -8.453125 9.421875 -0.984375 
z
M 9.421875 75.984375 
L 18.40625 75.984375 
L 18.40625 64.59375 
L 9.421875 64.59375 
z
" id="BitstreamVeraSans-Roman-6a"/>
     <path d="M 18.3125 70.21875 
L 18.3125 54.6875 
L 36.8125 54.6875 
L 36.8125 47.703125 
L 18.3125 47.703125 
L 18.3125 18.015625 
Q 18.3125 11.328125 20.140625 9.421875 
Q 21.96875 7.515625 27.59375 7.515625 
L 36.8125 7.515625 
L 36.8125 0 
L 27.59375 0 
Q 17.1875 0 13.234375 3.875 
Q 9.28125 7.765625 9.28125 18.015625 
L 9.28125 47.703125 
L 2.6875 47.703125 
L 2.6875 54.6875 
L 9.28125 54.6875 
L 9.28125 70.21875 
z
" id="BitstreamVeraSans-Roman-74"/>
     <path d="M 33.015625 40.375 
Q 26.375 40.375 22.484375 35.828125 
Q 18.609375 31.296875 18.609375 23.390625 
Q 18.609375 15.53125 22.484375 10.953125 
Q 26.375 6.390625 33.015625 6.390625 
Q 39.65625 6.390625 43.53125 10.953125 
Q 47.40625 15.53125 47.40625 23.390625 
Q 47.40625 31.296875 43.53125 35.828125 
Q 39.65625 40.375 33.015625 40.375 
M 52.59375 71.296875 
L 52.59375 62.3125 
Q 48.875 64.0625 45.09375 64.984375 
Q 41.3125 65.921875 37.59375 65.921875 
Q 27.828125 65.921875 22.671875 59.328125 
Q 17.53125 52.734375 16.796875 39.40625 
Q 19.671875 43.65625 24.015625 45.921875 
Q 28.375 48.1875 33.59375 48.1875 
Q 44.578125 48.1875 50.953125 41.515625 
Q 57.328125 34.859375 57.328125 23.390625 
Q 57.328125 12.15625 50.6875 5.359375 
Q 44.046875 -1.421875 33.015625 -1.421875 
Q 20.359375 -1.421875 13.671875 8.265625 
Q 6.984375 17.96875 6.984375 36.375 
Q 6.984375 53.65625 15.1875 63.9375 
Q 23.390625 74.21875 37.203125 74.21875 
Q 40.921875 74.21875 44.703125 73.484375 
Q 48.484375 72.75 52.59375 71.296875 
" id="BitstreamVeraSans-Roman-36"/>
     <path d="M 34.1875 63.1875 
L 20.796875 26.90625 
L 47.609375 26.90625 
z
M 28.609375 72.90625 
L 39.796875 72.90625 
L 67.578125 0 
L 57.328125 0 
L 50.6875 18.703125 
L 17.828125 18.703125 
L 11.1875 0 
L 0.78125 0 
z
" id="BitstreamVeraSans-Roman-41"/>
     <path d="M 54.890625 33.015625 
L 54.890625 0 
L 45.90625 0 
L 45.90625 32.71875 
Q 45.90625 40.484375 42.875 44.328125 
Q 39.84375 48.1875 33.796875 48.1875 
Q 26.515625 48.1875 22.3125 43.546875 
Q 18.109375 38.921875 18.109375 30.90625 
L 18.109375 0 
L 9.078125 0 
L 9.078125 54.6875 
L 18.109375 54.6875 
L 18.109375 46.1875 
Q 21.34375 51.125 25.703125 53.5625 
Q 30.078125 56 35.796875 56 
Q 45.21875 56 50.046875 50.171875 
Q 54.890625 44.34375 54.890625 33.015625 
" id="BitstreamVeraSans-Roman-6e"/>
    </defs>
    <g transform="translate(152.17125 18.14175)scale(0.144 -0.144)">
     <use xlink:href="#BitstreamVeraSans-Roman-41"/>
     <use x="68.330078125" xlink:href="#BitstreamVeraSans-Roman-76"/>
     <use x="127.509765625" xlink:href="#BitstreamVeraSans-Roman-65"/>
     <use x="189.033203125" xlink:href="#BitstreamVeraSans-Roman-72"/>
     <use x="230.146484375" xlink:href="#BitstreamVeraSans-Roman-61"/>
     <use x="291.42578125" xlink:href="#BitstreamVeraSans-Roman-67"/>
     <use x="354.90234375" xlink:href="#BitstreamVeraSans-Roman-65"/>
     <use x="416.42578125" xlink:href="#BitstreamVeraSans-Roman-20"/>
     <use x="448.212890625" xlink:href="#BitstreamVeraSans-Roman-6d"/>
     <use x="545.625" xlink:href="#BitstreamVeraSans-Roman-61"/>
     <use x="606.904296875" xlink:href="#BitstreamVeraSans-Roman-78"/>
     <use x="666.083984375" xlink:href="#BitstreamVeraSans-Roman-51"/>
     <use x="744.794921875" xlink:href="#BitstreamVeraSans-Roman-20"/>
     <use x="776.58203125" xlink:href="#BitstreamVeraSans-Roman-70"/>
     <use x="840.05859375" xlink:href="#BitstreamVeraSans-Roman-65"/>
     <use x="901.58203125" xlink:href="#BitstreamVeraSans-Roman-72"/>
     <use x="942.6953125" xlink:href="#BitstreamVeraSans-Roman-20"/>
     <use x="974.482421875" xlink:href="#BitstreamVeraSans-Roman-65"/>
     <use x="1036.005859375" xlink:href="#BitstreamVeraSans-Roman-70"/>
     <use x="1099.482421875" xlink:href="#BitstreamVeraSans-Roman-69"/>
     <use x="1127.265625" xlink:href="#BitstreamVeraSans-Roman-73"/>
     <use x="1179.365234375" xlink:href="#BitstreamVeraSans-Roman-6f"/>
     <use x="1240.546875" xlink:href="#BitstreamVeraSans-Roman-64"/>
     <use x="1304.0234375" xlink:href="#BitstreamVeraSans-Roman-65"/>
     <use x="1365.546875" xlink:href="#BitstreamVeraSans-Roman-2c"/>
     <use x="1397.333984375" xlink:href="#BitstreamVeraSans-Roman-20"/>
     <use x="1429.12109375" xlink:href="#BitstreamVeraSans-Roman-6a"/>
     <use x="1456.904296875" xlink:href="#BitstreamVeraSans-Roman-6f"/>
     <use x="1518.0859375" xlink:href="#BitstreamVeraSans-Roman-69"/>
     <use x="1545.869140625" xlink:href="#BitstreamVeraSans-Roman-6e"/>
     <use x="1609.248046875" xlink:href="#BitstreamVeraSans-Roman-74"/>
     <use x="1648.45703125" xlink:href="#BitstreamVeraSans-Roman-20"/>
     <use x="1680.244140625" xlink:href="#BitstreamVeraSans-Roman-36"/>
    </g>
   </g>
  </g>
 </g>
 <defs>
  <clipPath id="p02b026769a">
   <rect height="345.6" width="446.4" x="54.5325" y="23.14175"/>
  </clipPath>
 </defs>
</svg>
