<?xml version="1.0" encoding="utf-8" standalone="no"?>
<!DOCTYPE svg PUBLIC "-//W3C//DTD SVG 1.1//EN"
  "http://www.w3.org/Graphics/SVG/1.1/DTD/svg11.dtd">
<!-- Created with matplotlib (http://matplotlib.org/) -->
<svg height="408pt" version="1.1" viewBox="0 0 515 408" width="515pt" xmlns="http://www.w3.org/2000/svg" xmlns:xlink="http://www.w3.org/1999/xlink">
 <defs>
  <style type="text/css">
*{stroke-linecap:butt;stroke-linejoin:round;stroke-miterlimit:100000;}
  </style>
 </defs>
 <g id="figure_1">
  <g id="patch_1">
   <path d="M 0 408.16925 
L 515.7675 408.16925 
L 515.7675 0 
L 0 0 
z
" style="fill:#ffffff;"/>
  </g>
  <g id="axes_1">
   <g id="patch_2">
    <path d="M 46.8975 368.74175 
L 493.2975 368.74175 
L 493.2975 23.14175 
L 46.8975 23.14175 
z
" style="fill:#ffffff;"/>
   </g>
   <g id="line2d_1">
    <path clip-path="url(#pa474547b2c)" d="M 46.8975 352.09991 
L 47.1207 352.727441 
L 47.2323 352.098153 
L 47.4555 352.565095 
L 47.5671 352.421799 
L 47.6787 352.804772 
L 47.9019 351.53584 
L 48.0135 352.608742 
L 48.1251 352.303133 
L 48.3483 352.842441 
L 48.4599 352.243122 
L 48.5715 352.275413 
L 49.0179 352.037606 
L 49.1295 352.132422 
L 49.2411 352.6507 
L 49.4643 352.313999 
L 49.5759 352.346501 
L 49.6875 352.237626 
L 49.9107 352.483467 
L 50.0223 352.126815 
L 50.1339 352.480088 
L 50.2455 353.210197 
L 50.3571 352.581755 
L 50.4687 353.300731 
L 50.5803 352.367521 
L 50.6919 352.522817 
L 50.8035 351.967365 
L 51.0267 353.555971 
L 51.2499 352.333368 
L 51.3615 352.401648 
L 51.4731 352.848192 
L 51.6963 352.517523 
L 51.8079 352.200044 
L 51.9195 352.961818 
L 52.0311 352.535747 
L 52.1427 352.634084 
L 52.2543 352.349871 
L 52.3659 352.893016 
L 52.5891 352.263813 
L 52.7007 352.397452 
L 52.8123 351.820352 
L 53.0355 352.642632 
L 53.1471 352.519841 
L 53.2587 352.589508 
L 53.3703 352.441908 
L 53.4819 353.200455 
L 53.5935 352.560765 
L 53.7051 352.774342 
L 53.8167 352.213671 
L 53.9283 352.3997 
L 54.0399 352.068313 
L 54.1515 352.477702 
L 54.2631 352.270704 
L 54.3747 352.298152 
L 54.4863 352.811419 
L 54.5979 352.030977 
L 54.8211 352.55129 
L 54.9327 352.190386 
L 55.0443 353.273843 
L 55.1559 353.071506 
L 55.3791 352.505058 
L 55.6023 351.818615 
L 55.8255 352.368888 
L 55.9371 352.203085 
L 56.0487 352.534234 
L 56.1603 352.29142 
L 56.4951 353.23282 
L 56.6067 352.726814 
L 56.7183 352.846982 
L 56.8299 351.67135 
L 57.0531 352.620516 
L 57.1647 352.380258 
L 57.2763 353.088979 
L 57.3879 352.09097 
L 57.4995 353.023404 
L 57.7227 352.238882 
L 57.8343 352.222079 
L 57.9459 353.146323 
L 58.0575 368.74175 
L 58.2807 352.319999 
L 58.3923 352.67844 
L 58.6155 352.004483 
L 58.7271 352.001429 
L 58.8387 352.137463 
L 58.9503 351.895326 
L 59.1735 352.846347 
L 59.2851 352.482828 
L 59.3967 352.648246 
L 59.6199 352.172538 
L 59.8431 352.512946 
L 59.9547 351.578884 
L 60.1779 352.806152 
L 60.4011 352.41967 
L 60.5127 352.47279 
L 60.6243 352.815028 
L 60.8475 352.26606 
L 60.9591 352.758097 
L 61.0707 351.803985 
L 61.1823 352.536158 
L 61.2939 351.879668 
L 61.4055 352.57914 
L 61.5171 352.121301 
L 61.7403 352.408608 
L 61.9635 352.101595 
L 62.0751 352.467821 
L 62.2983 351.886908 
L 62.4099 352.892483 
L 62.5215 352.829865 
L 62.6331 352.04679 
L 62.9679 353.045779 
L 63.0795 352.163111 
L 63.3027 352.456394 
L 63.5259 352.423695 
L 63.6375 352.48767 
L 63.8607 351.990425 
L 63.9723 352.586576 
L 64.0839 352.084546 
L 64.1955 353.013715 
L 64.3071 352.26729 
L 64.4187 352.955418 
L 64.6419 351.917606 
L 64.8651 352.785041 
L 64.9767 353.019311 
L 65.0883 352.366676 
L 65.1999 352.405209 
L 65.3115 353.221673 
L 65.5347 352.364153 
L 65.6463 352.526383 
L 65.7579 353.070542 
L 65.9811 352.435305 
L 66.0927 352.470855 
L 66.2043 352.124903 
L 66.3159 352.538878 
L 66.4275 351.999163 
L 66.6507 352.794507 
L 66.7623 352.233281 
L 66.8739 352.309798 
L 67.0971 352.105814 
L 67.2087 352.374681 
L 67.3203 351.889406 
L 67.4319 352.663213 
L 67.6551 352.044012 
L 67.7667 352.776384 
L 67.9899 352.02837 
L 68.1015 352.918353 
L 68.3247 352.192308 
L 68.4363 352.225707 
L 68.5479 352.629012 
L 68.6595 352.383311 
L 68.7711 352.529578 
L 68.9943 352.203444 
L 69.1059 352.773976 
L 69.2175 368.74175 
L 69.3291 352.37952 
L 69.4407 352.353942 
L 69.5523 352.780214 
L 69.6639 351.864547 
L 69.7755 352.992587 
L 69.9987 351.697012 
L 70.1103 353.034883 
L 70.3335 351.42328 
L 70.4451 352.762452 
L 70.6683 352.010456 
L 70.8915 352.723718 
L 71.1147 352.480031 
L 71.2263 351.475959 
L 71.3379 352.443841 
L 71.4495 352.098654 
L 71.6727 352.431955 
L 71.7843 352.145226 
L 71.8959 352.319274 
L 72.1191 352.120864 
L 72.3423 352.929167 
L 72.5655 352.032769 
L 72.7887 352.437405 
L 72.9003 352.949921 
L 73.1235 352.381791 
L 73.2351 352.174119 
L 73.3467 352.3079 
L 73.4583 352.651624 
L 73.6815 352.148001 
L 73.7931 352.325516 
L 73.9047 352.034714 
L 74.0163 352.43643 
L 74.1279 351.970932 
L 74.2395 352.182813 
L 74.3511 352.152726 
L 74.4627 352.410682 
L 74.5743 352.217803 
L 74.6859 352.317956 
L 74.7975 352.639486 
L 74.9091 352.250813 
L 75.1323 360.370773 
L 75.2439 358.910677 
L 75.3555 361.744993 
L 75.4671 357.98721 
L 75.5787 362.13898 
L 75.8019 360.410729 
L 75.9135 362.191919 
L 76.0251 361.752388 
L 76.2483 360.196523 
L 76.3599 361.750527 
L 76.4715 360.147423 
L 76.5831 361.221091 
L 76.6947 361.099851 
L 76.8063 360.498261 
L 76.9179 361.265002 
L 77.1411 360.459721 
L 77.2527 360.420598 
L 77.3643 360.068853 
L 77.4759 360.934101 
L 77.9223 360.1289 
L 78.0339 360.639174 
L 78.1455 360.2258 
L 78.2571 360.412363 
L 78.3687 359.85694 
L 78.5919 360.521013 
L 78.9267 359.774314 
L 79.0383 358.980622 
L 79.2615 360.238977 
L 79.3731 360.048636 
L 79.4847 360.562118 
L 79.7079 359.95994 
L 79.8195 360.158349 
L 80.0427 359.944012 
L 80.1543 360.045759 
L 80.2659 358.783602 
L 80.3775 368.74175 
L 80.6007 359.021525 
L 80.7123 358.43435 
L 80.9355 359.920198 
L 81.0471 359.874936 
L 81.1587 360.170728 
L 81.2703 359.728855 
L 81.3819 359.867759 
L 81.6051 358.468194 
L 81.8283 360.198342 
L 81.9399 360.299953 
L 82.0515 359.158808 
L 82.1631 359.201811 
L 82.2747 358.49636 
L 82.3863 360.258376 
L 82.6095 357.66193 
L 82.7211 359.940071 
L 82.9443 358.517036 
L 83.0559 357.478649 
L 83.2791 360.232243 
L 83.5023 359.322197 
L 83.6139 359.187526 
L 83.7255 357.261672 
L 83.8371 359.887516 
L 83.9487 359.692253 
L 84.0603 358.743065 
L 84.1719 356.812938 
L 84.3951 357.863653 
L 84.5067 358.376171 
L 84.6183 356.041441 
L 84.7299 358.457519 
L 84.8415 357.598917 
L 84.9531 357.633051 
L 85.0647 359.943412 
L 85.1763 355.380997 
L 85.3995 359.477006 
L 85.5111 358.109885 
L 85.6227 359.150132 
L 85.7343 354.395304 
L 85.8459 354.894753 
L 85.9575 358.961408 
L 86.0691 356.439999 
L 86.1807 359.234003 
L 86.2923 356.979458 
L 86.4039 357.381535 
L 86.6271 359.721219 
L 86.7387 355.716262 
L 86.9619 358.556777 
L 87.0735 356.630923 
L 87.1851 357.969393 
L 87.2967 354.823104 
L 87.4083 359.233594 
L 87.5199 356.514298 
L 87.6315 358.258545 
L 87.7431 355.794401 
L 87.8547 359.259635 
L 88.0779 354.805516 
L 88.1895 355.440184 
L 88.3011 359.615486 
L 88.4127 353.274734 
L 88.5243 358.361532 
L 88.6359 358.045215 
L 88.8591 354.631953 
L 88.9707 354.30014 
L 89.0823 356.30603 
L 89.3055 354.585962 
L 89.4171 354.367092 
L 89.5287 357.176033 
L 89.7519 351.054597 
L 89.8635 357.526379 
L 89.9751 352.056831 
L 90.0867 360.638027 
L 90.1983 353.816954 
L 90.3099 353.94042 
L 90.4215 355.537908 
L 90.5331 353.496992 
L 90.6447 357.757154 
L 90.9795 353.974625 
L 91.0911 356.030145 
L 91.2027 351.725725 
L 91.4259 358.305713 
L 91.5375 368.74175 
L 91.6491 352.169002 
L 91.7607 358.333491 
L 91.8723 351.975239 
L 92.0955 356.570692 
L 92.2071 353.169622 
L 92.3187 355.90409 
L 92.5419 352.878095 
L 92.6535 354.188858 
L 92.7651 353.039986 
L 92.8767 353.737961 
L 92.9883 353.191089 
L 93.0999 349.884406 
L 93.4347 358.265806 
L 93.5463 350.757642 
L 93.7695 357.262397 
L 93.9927 348.731929 
L 94.1043 353.50033 
L 94.2159 346.779917 
L 94.3275 348.317867 
L 94.4391 352.421539 
L 94.5507 349.654408 
L 94.7739 352.873771 
L 94.9971 349.398153 
L 95.1087 349.103195 
L 95.2203 352.727382 
L 95.4435 350.426216 
L 95.5551 355.971061 
L 95.6667 349.595275 
L 95.8899 355.593058 
L 96.0015 355.312712 
L 96.2247 348.503645 
L 96.3363 354.38224 
L 96.5595 347.416619 
L 96.8943 353.011479 
L 97.0059 352.531379 
L 97.1175 348.332794 
L 97.2291 353.241542 
L 97.4523 346.659489 
L 97.5639 346.860449 
L 97.7871 355.687099 
L 97.8987 353.476744 
L 98.0103 357.21872 
L 98.2335 348.650815 
L 98.3451 352.357207 
L 98.4567 349.026035 
L 98.5683 352.883888 
L 98.9031 348.50508 
L 99.0147 349.058571 
L 99.1263 347.09287 
L 99.2379 343.11199 
L 99.3495 343.276829 
L 99.4611 354.17566 
L 99.5727 348.867501 
L 99.7959 353.241583 
L 100.0191 344.897659 
L 100.1307 341.239939 
L 100.3539 343.253204 
L 100.4655 347.061977 
L 100.5771 343.957131 
L 100.6887 344.363783 
L 100.8003 341.668095 
L 101.0235 345.932286 
L 101.1351 342.609263 
L 101.3583 347.331601 
L 101.4699 357.234064 
L 101.8047 344.065437 
L 101.9163 345.487698 
L 102.0279 349.164872 
L 102.1395 347.793503 
L 102.3627 352.069871 
L 102.5859 341.865389 
L 102.6975 368.74175 
L 102.9207 339.531385 
L 103.0323 354.166591 
L 103.1439 342.334424 
L 103.2555 346.801719 
L 103.3671 338.477184 
L 103.4787 350.034474 
L 103.7019 339.724717 
L 103.8135 352.210016 
L 104.0367 343.693715 
L 104.2599 349.673659 
L 104.3715 342.955039 
L 104.4831 348.337273 
L 104.7063 340.293321 
L 104.9295 344.586177 
L 105.0411 337.539797 
L 105.1527 345.51236 
L 105.2643 340.82123 
L 105.3759 355.329632 
L 105.5991 341.090045 
L 105.9339 345.909346 
L 106.1571 341.616309 
L 106.2687 336.617276 
L 106.3803 336.600446 
L 106.6035 341.587297 
L 106.7151 332.325589 
L 106.8267 349.595244 
L 106.9383 337.797629 
L 107.0499 338.121131 
L 107.1615 331.80104 
L 107.3847 339.463842 
L 107.4963 339.083091 
L 107.6079 336.593619 
L 107.7195 340.683086 
L 107.8311 339.295368 
L 108.0543 351.632494 
L 108.2775 335.068205 
L 108.5007 339.552707 
L 108.6123 343.323602 
L 108.8355 339.383885 
L 108.9471 331.23811 
L 109.1703 342.908089 
L 109.2819 340.76242 
L 109.3935 333.054218 
L 109.5051 338.973126 
L 109.6167 333.599027 
L 109.7283 354.118236 
L 109.9515 330.412305 
L 110.1747 335.686999 
L 110.3979 334.258907 
L 110.5095 335.534524 
L 110.6211 330.667087 
L 110.7327 331.652241 
L 110.9559 344.89117 
L 111.1791 332.353058 
L 111.2907 337.345321 
L 111.4023 333.31848 
L 111.5139 337.369491 
L 111.6255 329.820293 
L 111.7371 342.754181 
L 111.9603 333.387551 
L 112.0719 343.889657 
L 112.1835 336.571024 
L 112.2951 338.969938 
L 112.5183 329.09447 
L 112.6299 327.267771 
L 112.7415 330.556831 
L 112.8531 343.496404 
L 112.9647 339.798839 
L 113.0763 330.681444 
L 113.4111 347.282284 
L 113.6343 340.415134 
L 113.7459 328.59842 
L 113.8575 368.74175 
L 114.0807 329.277289 
L 114.1923 330.070643 
L 114.3039 347.342402 
L 114.4155 346.933019 
L 114.5271 341.741294 
L 114.7503 324.576415 
L 114.8619 335.164704 
L 114.9735 331.755891 
L 115.0851 322.778652 
L 115.3083 340.2197 
L 115.4199 322.278708 
L 115.5315 333.326802 
L 115.6431 326.795888 
L 115.7547 333.624232 
L 115.8663 326.130677 
L 115.9779 328.517691 
L 116.0895 342.366164 
L 116.2011 335.609372 
L 116.3127 340.714233 
L 116.4243 327.004618 
L 116.6475 341.915862 
L 116.7591 332.116575 
L 116.8707 339.750737 
L 116.9823 328.706059 
L 117.0939 347.000172 
L 117.2055 327.265462 
L 117.3171 337.906468 
L 117.5403 324.694095 
L 117.7635 317.633104 
L 118.0983 332.603369 
L 118.2099 330.299105 
L 118.3215 343.955832 
L 118.4331 322.725065 
L 118.5447 336.588749 
L 118.7679 320.218469 
L 118.9911 339.048975 
L 119.1027 335.477958 
L 119.2143 344.617702 
L 119.4375 321.643686 
L 119.6607 332.829828 
L 119.8839 322.505825 
L 119.9955 335.53443 
L 120.2187 317.160765 
L 120.3303 329.069506 
L 120.4419 321.312386 
L 120.5535 323.926685 
L 120.6651 323.416816 
L 120.7767 319.19791 
L 120.8883 322.328988 
L 120.9999 341.962807 
L 121.2231 336.684263 
L 121.3347 320.675049 
L 121.4463 324.137552 
L 121.5579 335.044649 
L 121.7811 314.940016 
L 121.8927 318.27122 
L 122.0043 331.805227 
L 122.1159 328.969093 
L 122.2275 350.532132 
L 122.4507 317.917344 
L 122.5623 314.54092 
L 122.7855 330.497084 
L 123.0087 312.545449 
L 123.1203 314.736041 
L 123.2319 308.759864 
L 123.3435 337.330897 
L 123.5667 318.301594 
L 123.6783 333.483532 
L 123.7899 321.563382 
L 123.9015 340.371993 
L 124.0131 338.520887 
L 124.1247 328.471675 
L 124.3479 339.421697 
L 124.5711 309.976462 
L 124.6827 326.379369 
L 124.7943 323.088631 
L 124.9059 335.103474 
L 125.0175 368.74175 
L 125.1291 320.408094 
L 125.2407 329.073655 
L 125.4639 308.653943 
L 125.7987 333.630506 
L 125.9103 315.715739 
L 126.0219 325.61844 
L 126.2451 309.557487 
L 126.3567 309.622156 
L 126.4683 321.800065 
L 126.5799 318.615963 
L 126.6915 307.811938 
L 126.8031 314.93543 
L 126.9147 314.823632 
L 127.0263 317.025966 
L 127.1379 308.516742 
L 127.2495 329.124904 
L 127.4727 317.569279 
L 127.5843 320.498119 
L 127.6959 315.15893 
L 127.8075 317.130976 
L 127.9191 316.110116 
L 128.0307 330.144342 
L 128.1423 309.923074 
L 128.3655 320.703853 
L 128.4771 320.620193 
L 128.5887 321.492898 
L 128.7003 306.689547 
L 128.8119 311.562025 
L 128.9235 323.588241 
L 129.0351 321.403032 
L 129.1467 322.733309 
L 129.2583 305.783635 
L 129.4815 311.414349 
L 129.5931 306.606284 
L 129.7047 307.40565 
L 129.9279 306.966698 
L 130.0395 326.865945 
L 130.1511 315.40115 
L 130.2627 315.703993 
L 130.3743 320.472516 
L 130.5975 312.757902 
L 130.7091 333.02209 
L 130.8207 302.621923 
L 131.0439 320.001621 
L 131.1555 303.449146 
L 131.2671 337.672851 
L 131.3787 313.201315 
L 131.4903 343.169208 
L 132.0483 308.899337 
L 132.1599 328.99278 
L 132.2715 314.766462 
L 132.3831 318.194449 
L 132.4947 326.418078 
L 132.6063 303.642068 
L 132.7179 304.015433 
L 132.8295 320.54842 
L 132.9411 319.177013 
L 133.0527 312.008778 
L 133.1643 328.928321 
L 133.2759 324.236809 
L 133.3875 326.638944 
L 133.4991 319.747881 
L 133.6107 327.921328 
L 133.8339 304.194895 
L 133.9455 303.368212 
L 134.0571 304.725836 
L 134.1687 299.355893 
L 134.2803 318.132007 
L 134.5035 298.331734 
L 134.6151 307.123936 
L 134.8383 303.533943 
L 134.9499 297.408882 
L 135.1731 318.230871 
L 135.3963 298.609703 
L 135.5079 305.151584 
L 135.6195 300.865486 
L 135.7311 302.128256 
L 135.8427 295.633526 
L 136.0659 304.380549 
L 136.1775 368.74175 
L 136.4007 304.393798 
L 136.5123 297.940159 
L 136.6239 308.140991 
L 136.7355 307.574269 
L 136.9587 308.390021 
L 137.0703 318.031308 
L 137.1819 304.100529 
L 137.2935 312.22628 
L 137.4051 294.734668 
L 137.5167 310.916019 
L 137.6283 306.802386 
L 137.7399 313.703901 
L 137.9631 294.713596 
L 138.0747 307.310281 
L 138.1863 305.650001 
L 138.2979 310.756054 
L 138.5211 294.992928 
L 138.6327 301.826411 
L 138.7443 318.513748 
L 138.9675 292.761978 
L 139.6371 315.370647 
L 139.7487 308.980441 
L 139.8603 310.021913 
L 139.9719 315.236088 
L 140.1951 300.551841 
L 140.3067 327.231826 
L 140.5299 297.148312 
L 140.6415 312.711427 
L 140.9763 291.980567 
L 141.0879 295.952808 
L 141.4227 333.634133 
L 141.6459 301.953691 
L 141.7575 326.289759 
L 141.8691 292.708098 
L 141.9807 323.530715 
L 142.2039 296.579451 
L 142.4271 314.366492 
L 142.5387 296.940088 
L 142.6503 306.12181 
L 142.7619 298.74006 
L 142.9851 324.26193 
L 143.2083 288.673153 
L 143.3199 336.16674 
L 143.4315 291.1003 
L 143.5431 307.774124 
L 143.6547 294.043631 
L 143.8779 317.554432 
L 144.1011 291.288041 
L 144.2127 299.714921 
L 144.3243 290.956722 
L 144.4359 313.901313 
L 144.5475 303.270822 
L 144.6591 311.379447 
L 144.7707 304.776175 
L 144.8823 335.145002 
L 144.9939 303.259728 
L 145.1055 317.61526 
L 145.2171 294.31091 
L 145.4403 314.913357 
L 145.5519 317.230009 
L 145.6635 313.342945 
L 145.7751 297.016869 
L 145.8867 316.917189 
L 145.9983 288.471228 
L 146.1099 290.050105 
L 146.2215 323.159399 
L 146.3331 288.483737 
L 146.4447 301.038506 
L 146.5563 294.64521 
L 146.6679 295.658554 
L 146.7795 295.142267 
L 146.8911 324.475324 
L 147.1143 295.308852 
L 147.2259 299.22527 
L 147.3375 368.74175 
L 147.4491 294.943131 
L 147.5607 311.287047 
L 147.7839 288.679448 
L 147.8955 284.777877 
L 148.0071 292.512118 
L 148.1187 292.28589 
L 148.2303 307.981156 
L 148.3419 283.7531 
L 148.4535 298.925468 
L 148.5651 294.156655 
L 148.6767 321.970521 
L 148.7883 299.67174 
L 148.8999 302.796172 
L 149.0115 300.407733 
L 149.1231 280.643837 
L 149.3463 316.637332 
L 149.4579 288.726514 
L 149.5695 297.67589 
L 149.6811 290.582785 
L 149.7927 308.218734 
L 149.9043 297.886021 
L 150.0159 310.081685 
L 150.1275 301.510029 
L 150.2391 282.152236 
L 150.3507 304.693693 
L 150.4623 287.619142 
L 150.5739 296.085714 
L 150.6855 285.683124 
L 150.9087 305.304993 
L 151.0203 312.378045 
L 151.1319 283.65536 
L 151.2435 317.361644 
L 151.3551 287.104326 
L 151.4667 287.804435 
L 151.5783 320.195252 
L 151.8015 282.346064 
L 151.9131 315.693508 
L 152.1363 287.705749 
L 152.2479 311.217509 
L 152.3595 279.977699 
L 152.4711 301.796289 
L 152.5827 281.248412 
L 152.8059 309.700297 
L 152.9175 286.326636 
L 153.1407 304.147267 
L 153.3639 282.800395 
L 153.4755 289.438428 
L 153.5871 311.105502 
L 153.6987 284.34875 
L 153.8103 285.855259 
L 153.9219 292.007479 
L 154.0335 284.145459 
L 154.2567 288.606987 
L 154.3683 270.626584 
L 154.4799 303.554473 
L 154.7031 283.027671 
L 154.8147 290.444614 
L 154.9263 313.531148 
L 155.0379 287.416827 
L 155.1495 317.17321 
L 155.2611 279.093287 
L 155.3727 295.286086 
L 155.5959 285.958386 
L 155.7075 286.425114 
L 155.8191 276.792544 
L 155.9307 282.274949 
L 156.0423 282.053492 
L 156.1539 280.805228 
L 156.2655 306.632278 
L 156.3771 300.138836 
L 156.4887 275.822932 
L 156.6003 276.016527 
L 156.7119 284.288071 
L 156.8235 303.44736 
L 157.0467 274.810374 
L 157.1583 275.412708 
L 157.2699 282.776021 
L 157.3815 301.108433 
L 157.4931 292.722587 
L 157.6047 299.21486 
L 157.8279 280.200991 
L 158.0511 294.0666 
L 158.1627 278.243987 
L 158.2743 291.067782 
L 158.3859 284.95831 
L 158.4975 368.74175 
L 158.6091 276.108923 
L 158.7207 279.013985 
L 158.8323 277.368163 
L 158.9439 279.578836 
L 159.0555 272.855473 
L 159.1671 277.156201 
L 159.2787 308.001415 
L 159.5019 274.94095 
L 159.6135 306.193859 
L 159.8367 275.332437 
L 159.9483 278.231875 
L 160.0599 292.139202 
L 160.1715 291.491976 
L 160.2831 281.217237 
L 160.3947 301.951595 
L 160.5063 289.546555 
L 160.7295 305.917825 
L 161.0643 280.280101 
L 161.1759 285.826017 
L 161.2875 283.651889 
L 161.3991 274.327388 
L 161.5107 281.180466 
L 161.6223 275.683775 
L 161.7339 276.840999 
L 161.9571 284.067322 
L 162.0687 302.036305 
L 162.1803 277.250259 
L 162.2919 297.88733 
L 162.4035 282.546677 
L 162.5151 285.262479 
L 162.6267 274.759483 
L 162.7383 317.519979 
L 162.9615 277.452881 
L 163.1847 289.869128 
L 163.4079 266.956155 
L 163.5195 276.461159 
L 163.6311 273.852358 
L 163.7427 301.57093 
L 163.9659 281.179469 
L 164.0775 285.309889 
L 164.1891 310.900493 
L 164.3007 270.146592 
L 164.5239 282.316273 
L 164.6355 289.696967 
L 164.7471 279.699311 
L 164.9703 311.531148 
L 165.1935 275.164481 
L 165.4167 288.337292 
L 165.5283 283.460577 
L 165.6399 289.422676 
L 165.7515 286.987967 
L 165.8631 269.274409 
L 166.0863 280.925087 
L 166.1979 276.041155 
L 166.3095 317.869483 
L 166.4211 289.50742 
L 166.5327 296.152983 
L 166.6443 278.086022 
L 166.7559 278.251982 
L 166.8675 288.363428 
L 166.9791 269.205142 
L 167.0907 273.156614 
L 167.2023 299.136953 
L 167.3139 269.087508 
L 167.4255 283.512218 
L 167.5371 282.974419 
L 167.6487 291.141818 
L 167.7603 284.12287 
L 167.8719 288.089857 
L 167.9835 317.315653 
L 168.0951 281.027036 
L 168.2067 328.746882 
L 168.4299 277.066024 
L 168.5415 281.280961 
L 168.6531 295.410779 
L 168.8763 264.547482 
L 168.9879 285.274784 
L 169.0995 281.820635 
L 169.2111 287.678365 
L 169.4343 282.192116 
L 169.5459 264.306666 
L 169.6575 368.74175 
L 169.8807 273.786743 
L 169.9923 278.872155 
L 170.1039 260.632819 
L 170.3271 275.692669 
L 170.4387 268.899586 
L 170.5503 291.209779 
L 170.6619 275.025303 
L 170.7735 287.295621 
L 170.8851 263.132498 
L 170.9967 267.94845 
L 171.2199 281.067347 
L 171.3315 264.626133 
L 171.5547 291.035161 
L 171.7779 271.101969 
L 171.8895 290.491113 
L 172.0011 263.45635 
L 172.1127 285.075167 
L 172.3359 269.151182 
L 172.4475 265.101175 
L 172.5591 272.9517 
L 172.6707 263.447296 
L 172.7823 279.071923 
L 172.8939 277.991999 
L 173.0055 262.521317 
L 173.1171 314.653557 
L 173.2287 255.022838 
L 173.3403 274.911036 
L 173.4519 258.057238 
L 173.5635 294.82798 
L 173.7867 262.48907 
L 173.8983 271.687882 
L 174.1215 264.296548 
L 174.2331 272.344331 
L 174.3447 298.034897 
L 174.5679 265.808556 
L 174.7911 261.434622 
L 174.9027 284.998068 
L 175.0143 267.043125 
L 175.1259 287.589416 
L 175.2375 269.577331 
L 175.3491 288.358936 
L 175.4607 276.146116 
L 175.5723 281.223519 
L 175.6839 265.946075 
L 175.7955 279.087987 
L 175.9071 255.597293 
L 176.0187 275.905381 
L 176.1303 266.97293 
L 176.2419 269.149489 
L 176.3535 262.282391 
L 176.4651 264.903919 
L 176.5767 259.75112 
L 176.6883 269.449495 
L 176.9115 256.239741 
L 177.0231 289.888973 
L 177.2463 270.422689 
L 177.4695 295.76768 
L 177.6927 266.507048 
L 177.8043 260.069213 
L 177.9159 270.329464 
L 178.0275 270.361908 
L 178.1391 277.027905 
L 178.2507 259.602511 
L 178.3623 275.65179 
L 178.4739 266.751985 
L 178.5855 290.97005 
L 178.6971 251.274486 
L 178.8087 291.31217 
L 178.9203 287.134161 
L 179.0319 264.298186 
L 179.2551 284.991548 
L 179.4783 254.175615 
L 179.7015 266.228112 
L 179.8131 258.753152 
L 179.9247 283.712382 
L 180.1479 261.263034 
L 180.2595 259.897601 
L 180.4827 278.657871 
L 180.5943 263.764236 
L 180.7059 272.999879 
L 180.8175 368.74175 
L 180.9291 268.543944 
L 181.0407 281.732479 
L 181.1523 258.93461 
L 181.3755 265.608703 
L 181.4871 283.958548 
L 181.7103 271.321552 
L 181.8219 274.103647 
L 181.9335 286.41003 
L 182.1567 255.500054 
L 182.2683 273.207868 
L 182.3799 259.197333 
L 182.4915 273.058418 
L 182.6031 251.20379 
L 182.7147 253.704216 
L 182.8263 267.334946 
L 182.9379 250.370588 
L 183.2727 288.831757 
L 183.3843 266.897115 
L 183.4959 269.860895 
L 183.6075 252.589847 
L 183.8307 269.630048 
L 183.9423 270.87867 
L 184.1655 261.224588 
L 184.2771 265.424739 
L 184.3887 252.978534 
L 184.5003 258.775817 
L 184.7235 290.965448 
L 184.8351 248.49396 
L 184.9467 275.19892 
L 185.0583 252.295878 
L 185.1699 279.741841 
L 185.2815 262.967083 
L 185.5047 284.847859 
L 185.8395 251.821299 
L 185.9511 251.571038 
L 186.0627 244.527767 
L 186.1743 257.420544 
L 186.2859 249.839128 
L 186.5091 263.499116 
L 186.6207 251.333811 
L 186.8439 258.920987 
L 186.9555 258.793764 
L 187.0671 258.867192 
L 187.1787 260.59911 
L 187.2903 288.125074 
L 187.4019 251.619076 
L 187.5135 271.754482 
L 187.6251 270.96612 
L 187.8483 250.602662 
L 187.9599 268.822192 
L 188.0715 268.04232 
L 188.2947 247.509095 
L 188.4063 248.43396 
L 188.5179 270.304341 
L 188.6295 265.147041 
L 188.7411 248.026607 
L 188.8527 280.020423 
L 189.0759 258.604763 
L 189.1875 264.247777 
L 189.4107 250.220492 
L 189.5223 263.448741 
L 189.6339 263.0785 
L 189.7455 258.548314 
L 189.8571 261.068137 
L 190.0803 248.883466 
L 190.1919 249.448171 
L 190.3035 247.590339 
L 190.4151 252.053692 
L 190.5267 250.517298 
L 190.6383 244.964174 
L 190.7499 248.735173 
L 190.8615 269.401635 
L 191.0847 247.272842 
L 191.1963 243.354128 
L 191.3079 255.562672 
L 191.4195 245.344678 
L 191.5311 257.87021 
L 191.6427 248.270364 
L 191.7543 262.416839 
L 191.8659 243.850994 
L 191.9775 368.74175 
L 192.2007 256.745582 
L 192.3123 260.584497 
L 192.4239 251.587284 
L 192.6471 277.023779 
L 192.7587 245.890783 
L 192.8703 254.50574 
L 192.9819 243.462951 
L 193.0935 267.31171 
L 193.2051 264.976727 
L 193.3167 258.151056 
L 193.4283 259.007373 
L 193.5399 255.646001 
L 193.6515 276.172783 
L 193.8747 245.792014 
L 193.9863 242.254994 
L 194.3211 303.968144 
L 194.5443 250.253446 
L 194.7675 270.910369 
L 194.9907 265.814755 
L 195.1023 243.806329 
L 195.2139 263.87417 
L 195.3255 245.149395 
L 195.4371 257.252516 
L 195.5487 252.709128 
L 195.6603 257.441717 
L 195.7719 243.732958 
L 195.8835 255.187949 
L 195.9951 242.24351 
L 196.3299 260.910685 
L 196.4415 241.737436 
L 196.5531 245.963687 
L 196.6647 233.030607 
L 196.7763 262.594913 
L 196.8879 250.4531 
L 196.9995 250.914655 
L 197.1111 239.060998 
L 197.2227 253.248122 
L 197.3343 307.274991 
L 197.4459 237.05532 
L 197.5575 260.146776 
L 197.7807 244.021896 
L 197.8923 260.208407 
L 198.0039 258.515071 
L 198.1155 295.082618 
L 198.3387 253.553173 
L 198.4503 249.289016 
L 198.5619 232.609091 
L 198.6735 242.336853 
L 198.7851 267.678693 
L 198.8967 253.518053 
L 199.0083 264.047 
L 199.1199 247.358215 
L 199.2315 262.381618 
L 199.3431 256.750119 
L 199.4547 275.219008 
L 199.5663 249.096158 
L 199.6779 256.073624 
L 199.7895 247.570916 
L 199.9011 252.56955 
L 200.0127 235.164655 
L 200.1243 246.218991 
L 200.2359 290.795388 
L 200.3475 241.009683 
L 200.5707 264.916399 
L 200.6823 262.886774 
L 200.7939 234.349216 
L 200.9055 267.659888 
L 201.0171 240.758962 
L 201.1287 249.075934 
L 201.2403 240.011099 
L 201.3519 262.064162 
L 201.7983 232.921821 
L 201.9099 243.067295 
L 202.0215 306.100758 
L 202.1331 245.400532 
L 202.2447 252.39098 
L 202.4679 236.060341 
L 202.5795 251.571167 
L 202.6911 231.898717 
L 202.9143 265.067634 
L 203.0259 258.045968 
L 203.1375 368.74175 
L 203.2491 252.717622 
L 203.3607 253.613223 
L 203.4723 250.074714 
L 203.5839 254.651422 
L 203.6955 234.122378 
L 203.9187 253.875175 
L 204.0303 235.57296 
L 204.2535 256.917721 
L 204.3651 258.233409 
L 204.4767 232.664147 
L 204.5883 272.593012 
L 204.6999 237.365886 
L 204.8115 257.140407 
L 204.9231 242.453522 
L 205.0347 248.555608 
L 205.1463 275.882806 
L 205.3695 240.193991 
L 205.5927 259.217353 
L 205.7043 231.848933 
L 205.8159 264.698256 
L 206.0391 236.337041 
L 206.2623 257.906422 
L 206.4855 231.529118 
L 206.5971 261.6377 
L 206.7087 260.217158 
L 206.9319 251.472794 
L 207.1551 245.272324 
L 207.2667 283.284212 
L 207.3783 248.616641 
L 207.4899 265.517485 
L 207.8247 224.521386 
L 208.0479 242.978354 
L 208.2711 230.992077 
L 208.3827 257.397389 
L 208.4943 231.747324 
L 208.6059 249.660453 
L 208.7175 242.744452 
L 208.8291 227.9881 
L 209.0523 252.219502 
L 209.1639 245.222511 
L 209.3871 226.924088 
L 209.4987 246.245851 
L 209.6103 237.351816 
L 209.7219 242.249501 
L 209.8335 241.778393 
L 209.9451 227.718236 
L 210.0567 232.529454 
L 210.1683 260.451128 
L 210.3915 236.775435 
L 210.5031 230.426857 
L 210.7263 243.565073 
L 210.9495 227.13917 
L 211.0611 231.069384 
L 211.1727 256.607439 
L 211.2843 228.209237 
L 211.3959 244.956747 
L 211.5075 228.046472 
L 211.6191 229.5441 
L 211.7307 237.000886 
L 211.8423 257.183149 
L 211.9539 240.425262 
L 212.0655 264.028407 
L 212.2887 228.5928 
L 212.4003 249.257249 
L 212.5119 247.568183 
L 212.6235 233.881902 
L 212.7351 248.426359 
L 212.8467 233.023846 
L 212.9583 260.740321 
L 213.0699 243.088512 
L 213.1815 261.408531 
L 213.4047 239.193502 
L 213.5163 241.590464 
L 213.7395 222.191296 
L 213.8511 230.895966 
L 213.9627 226.218063 
L 214.1859 244.189281 
L 214.2975 368.74175 
L 214.4091 223.725903 
L 214.5207 241.937133 
L 214.6323 240.894096 
L 214.7439 222.52206 
L 215.0787 263.407762 
L 215.1903 217.983696 
L 215.4135 274.116232 
L 215.6367 223.207749 
L 215.7483 252.344914 
L 215.8599 222.908124 
L 215.9715 250.129079 
L 216.1947 214.738021 
L 216.3063 225.177885 
L 216.4179 219.534568 
L 216.6411 223.63507 
L 216.7527 213.583602 
L 216.8643 239.176427 
L 216.9759 219.848563 
L 217.0875 238.050493 
L 217.1991 219.342303 
L 217.3107 244.638995 
L 217.4223 221.291003 
L 217.5339 243.577418 
L 217.6455 227.989977 
L 217.7571 255.23263 
L 217.8687 209.834494 
L 218.0919 218.46702 
L 218.2035 244.110196 
L 218.4267 230.071267 
L 218.5383 229.151072 
L 218.6499 236.772849 
L 218.7615 224.546439 
L 218.8731 258.032381 
L 218.9847 229.418359 
L 219.0963 230.931121 
L 219.2079 228.419581 
L 219.3195 229.009883 
L 219.4311 216.780691 
L 219.5427 232.754085 
L 219.6543 222.721556 
L 219.7659 242.94267 
L 219.8775 234.585949 
L 219.9891 209.488761 
L 220.2123 243.104657 
L 220.4355 213.038572 
L 220.5471 252.096434 
L 220.6587 216.613648 
L 220.8819 235.805496 
L 221.1051 219.727543 
L 221.2167 221.626936 
L 221.3283 218.962731 
L 221.4399 212.485811 
L 221.6631 217.596859 
L 221.7747 235.789378 
L 221.8863 225.542816 
L 221.9979 241.942308 
L 222.1095 232.429867 
L 222.2211 208.165732 
L 222.3327 211.207425 
L 222.4443 239.311496 
L 222.6675 222.121672 
L 222.7791 226.26525 
L 223.0023 214.756481 
L 223.1139 229.487898 
L 223.2255 221.570169 
L 223.3371 224.739222 
L 223.4487 217.900086 
L 223.6719 244.145246 
L 223.7835 218.465241 
L 223.8951 220.615767 
L 224.0067 251.141104 
L 224.1183 219.226705 
L 224.2299 223.285516 
L 224.3415 216.615391 
L 224.4531 218.26001 
L 224.5647 221.737484 
L 224.6763 220.409821 
L 224.8995 206.139695 
L 225.1227 232.607441 
L 225.2343 209.132108 
L 225.3459 212.198949 
L 225.4575 368.74175 
L 225.6807 225.614013 
L 225.7923 225.92253 
L 225.9039 225.112209 
L 226.1271 211.062804 
L 226.3503 238.519126 
L 226.4619 205.162029 
L 226.5735 248.355153 
L 226.6851 209.034583 
L 226.7967 246.317317 
L 226.9083 203.464688 
L 227.1315 222.23392 
L 227.2431 222.629631 
L 227.3547 214.798211 
L 227.4663 220.430534 
L 227.5779 215.472511 
L 227.6895 219.667531 
L 227.8011 217.812614 
L 228.0243 251.324638 
L 228.2475 209.762421 
L 228.3591 223.544278 
L 228.4707 220.085054 
L 228.6939 202.92186 
L 228.9171 237.544045 
L 229.0287 220.724636 
L 229.1403 223.145094 
L 229.2519 214.605966 
L 229.3635 241.009347 
L 229.4751 232.460282 
L 229.5867 208.807309 
L 229.6983 264.421953 
L 229.8099 206.270332 
L 229.9215 222.128938 
L 230.0331 205.957442 
L 230.1447 228.659916 
L 230.2563 202.570058 
L 230.3679 251.866156 
L 230.4795 206.544504 
L 230.5911 209.48177 
L 230.7027 237.218779 
L 230.8143 224.192991 
L 230.9259 198.035658 
L 231.0375 203.366475 
L 231.2607 236.383452 
L 231.3723 217.963233 
L 231.4839 222.55408 
L 231.7071 204.812455 
L 231.8187 239.137562 
L 232.0419 214.200039 
L 232.1535 213.999394 
L 232.2651 206.074502 
L 232.3767 222.734125 
L 232.7115 206.472134 
L 232.8231 227.400923 
L 232.9347 208.027509 
L 233.1579 224.014353 
L 233.2695 204.057336 
L 233.3811 203.988651 
L 233.4927 208.079907 
L 233.7159 227.301143 
L 234.0507 204.386755 
L 234.1623 222.690581 
L 234.3855 199.659629 
L 234.6087 218.911321 
L 234.7203 214.640152 
L 234.8319 201.005549 
L 235.0551 231.015562 
L 235.2783 202.490509 
L 235.5015 206.409693 
L 235.6131 199.62937 
L 235.8363 223.974953 
L 235.9479 202.451317 
L 236.0595 222.721454 
L 236.3943 203.340333 
L 236.5059 229.021944 
L 236.6175 368.74175 
L 236.7291 207.102668 
L 236.8407 294.727136 
L 236.9523 204.195219 
L 237.0639 230.714129 
L 237.1755 206.573679 
L 237.2871 210.501427 
L 237.3987 222.007896 
L 237.5103 197.017448 
L 237.7335 208.289018 
L 237.8451 205.183821 
L 237.9567 232.820779 
L 238.0683 218.966516 
L 238.1799 224.675217 
L 238.2915 190.607024 
L 238.4031 259.347561 
L 238.5147 216.719061 
L 238.6263 231.929802 
L 238.7379 230.372068 
L 238.8495 197.431949 
L 239.0727 213.349267 
L 239.1843 202.454211 
L 239.4075 213.823325 
L 239.5191 200.681405 
L 239.7423 275.21855 
L 239.8539 204.023421 
L 239.9655 215.489266 
L 240.0771 211.709439 
L 240.3003 195.369806 
L 240.4119 196.648606 
L 240.5235 224.250532 
L 240.7467 195.746972 
L 240.9699 215.815453 
L 241.0815 218.448922 
L 241.3047 201.159563 
L 241.4163 222.686171 
L 241.5279 191.104014 
L 241.7511 196.744039 
L 241.8627 226.648224 
L 241.9743 209.054839 
L 242.0859 230.101221 
L 242.1975 200.174853 
L 242.3091 202.36587 
L 242.4207 184.782928 
L 242.5323 204.290678 
L 242.6439 196.872525 
L 242.7555 207.515694 
L 242.9787 198.210915 
L 243.0903 220.439092 
L 243.2019 190.867347 
L 243.4251 202.839704 
L 243.5367 198.495403 
L 243.6483 228.526369 
L 243.8715 216.360979 
L 243.9831 223.786186 
L 244.0947 269.375437 
L 244.2063 204.057628 
L 244.3179 219.92608 
L 244.5411 211.616178 
L 244.6527 209.094011 
L 244.7643 203.156119 
L 244.8759 229.217886 
L 244.9875 218.071725 
L 245.0991 189.619667 
L 245.2107 200.667708 
L 245.3223 228.871244 
L 245.5455 192.378826 
L 245.6571 207.245032 
L 245.7687 192.350397 
L 245.8803 195.165643 
L 245.9919 202.530503 
L 246.3267 183.368159 
L 246.5499 214.401849 
L 246.7731 188.701918 
L 246.8847 195.083732 
L 246.9963 206.230763 
L 247.2195 192.356439 
L 247.3311 186.423587 
L 247.4427 195.460511 
L 247.6659 224.647651 
L 247.7775 368.74175 
L 248.0007 199.861542 
L 248.2239 227.739211 
L 248.3355 188.809345 
L 248.4471 194.883619 
L 248.5587 219.251609 
L 248.7819 187.883914 
L 248.8935 194.305443 
L 249.0051 192.629767 
L 249.1167 195.08118 
L 249.2283 204.719525 
L 249.3399 187.552191 
L 249.4515 189.611798 
L 249.5631 196.425729 
L 249.6747 181.95103 
L 249.7863 188.834416 
L 249.8979 232.835643 
L 250.0095 187.995246 
L 250.1211 199.157186 
L 250.2327 223.562034 
L 250.3443 195.374878 
L 250.4559 275.179015 
L 250.5675 187.651091 
L 250.6791 188.707528 
L 250.7907 200.804684 
L 250.9023 188.028294 
L 251.0139 201.783425 
L 251.1255 186.672602 
L 251.2371 197.782538 
L 251.3487 186.004456 
L 251.4603 196.711185 
L 251.5719 182.547796 
L 251.7951 202.263114 
L 251.9067 193.757575 
L 252.0183 199.100392 
L 252.1299 210.48227 
L 252.2415 191.127729 
L 252.4647 199.134337 
L 252.7995 184.543026 
L 252.9111 190.66646 
L 253.0227 189.597388 
L 253.1343 186.028117 
L 253.3575 205.810582 
L 253.4691 204.708815 
L 253.6923 190.316813 
L 253.8039 185.823086 
L 254.0271 203.493661 
L 254.1387 201.517741 
L 254.3619 187.645104 
L 254.4735 214.272933 
L 254.8083 178.299402 
L 254.9199 179.141162 
L 255.0315 201.340623 
L 255.2547 179.918803 
L 255.4779 224.286687 
L 255.5895 176.524681 
L 255.7011 207.557881 
L 255.8127 190.582038 
L 255.9243 204.030182 
L 256.1475 181.367465 
L 256.2591 203.488835 
L 256.3707 191.177978 
L 256.4823 197.58114 
L 256.5939 187.605352 
L 256.7055 230.081753 
L 256.8171 177.729459 
L 256.9287 177.771451 
L 257.0403 188.559268 
L 257.1519 180.349125 
L 257.2635 181.008037 
L 257.3751 207.107605 
L 257.5983 196.515165 
L 257.7099 204.255241 
L 257.9331 185.836199 
L 258.0447 186.397548 
L 258.1563 205.841163 
L 258.3795 183.183063 
L 258.4911 266.29694 
L 258.6027 203.537495 
L 258.7143 224.514758 
L 258.8259 204.943691 
L 258.9375 368.74175 
L 259.1607 175.398747 
L 259.2723 177.897581 
L 259.3839 188.679751 
L 259.4955 186.758916 
L 259.7187 174.654416 
L 259.8303 190.509581 
L 259.9419 190.038465 
L 260.0535 178.746392 
L 260.1651 199.991153 
L 260.3883 172.077115 
L 260.7231 205.169104 
L 260.8347 224.186624 
L 261.0579 182.629983 
L 261.1695 182.623209 
L 261.2811 189.493136 
L 261.3927 203.712245 
L 261.5043 197.096054 
L 261.6159 198.75619 
L 261.7275 195.985358 
L 261.8391 202.07169 
L 262.0623 182.671163 
L 262.1739 192.406376 
L 262.2855 225.549148 
L 262.5087 195.750979 
L 262.7319 171.119359 
L 262.8435 180.418804 
L 262.9551 209.410139 
L 263.0667 183.103396 
L 263.1783 222.350007 
L 263.4015 186.630111 
L 263.8479 170.024611 
L 264.0711 181.638996 
L 264.1827 173.17828 
L 264.5175 196.215644 
L 264.6291 195.610364 
L 264.7407 181.246015 
L 264.8523 238.887236 
L 264.9639 178.927789 
L 265.0755 192.824719 
L 265.2987 177.570979 
L 265.4103 175.8019 
L 265.5219 191.297608 
L 265.6335 178.685654 
L 265.7451 234.759545 
L 265.8567 187.33813 
L 266.0799 191.915778 
L 266.1915 171.682152 
L 266.3031 179.339336 
L 266.4147 172.757819 
L 266.5263 187.144202 
L 266.6379 182.011248 
L 266.8611 186.289934 
L 266.9727 176.804248 
L 267.0843 184.066456 
L 267.1959 180.934231 
L 267.3075 197.025223 
L 267.5307 179.096609 
L 267.7539 183.360019 
L 267.8655 178.527887 
L 268.0887 211.366127 
L 268.2003 183.692338 
L 268.3119 189.086018 
L 268.4235 170.694761 
L 268.5351 171.662267 
L 268.7583 192.741944 
L 268.9815 176.27275 
L 269.0931 176.856751 
L 269.2047 204.461436 
L 269.3163 199.344453 
L 269.4279 172.606124 
L 269.6511 183.760653 
L 269.7627 177.223293 
L 269.8743 196.191797 
L 269.9859 181.126939 
L 270.0975 368.74175 
L 270.2091 186.268184 
L 270.3207 189.440112 
L 270.4323 182.033706 
L 270.5439 166.225758 
L 270.8787 178.004999 
L 270.9903 199.499973 
L 271.1019 188.945953 
L 271.2135 167.797383 
L 271.3251 169.399432 
L 271.4367 182.149658 
L 271.5483 179.8825 
L 271.6599 189.753914 
L 271.7715 160.82925 
L 271.8831 187.952882 
L 271.9947 176.73593 
L 272.1063 212.228945 
L 272.2179 169.660695 
L 272.3295 179.535938 
L 272.4411 167.179779 
L 272.5527 185.653945 
L 272.6643 160.699221 
L 272.8875 180.189007 
L 273.1107 162.835519 
L 273.2223 163.049629 
L 273.3339 171.262933 
L 273.5571 159.033369 
L 273.6687 165.278777 
L 273.7803 220.052477 
L 273.8919 180.429599 
L 274.0035 181.202989 
L 274.1151 207.85299 
L 274.2267 170.014591 
L 274.3383 184.875095 
L 274.4499 166.351787 
L 274.5615 188.717488 
L 274.6731 245.435605 
L 274.8963 192.753283 
L 275.1195 170.800518 
L 275.2311 159.661426 
L 275.4543 186.704577 
L 275.5659 164.652383 
L 275.6775 169.927352 
L 275.7891 165.529888 
L 275.9007 169.246263 
L 276.0123 185.214121 
L 276.1239 177.677036 
L 276.2355 180.362302 
L 276.3471 192.88781 
L 276.4587 172.665208 
L 276.5703 174.222195 
L 276.6819 161.092609 
L 276.9051 165.967198 
L 277.0167 158.993716 
L 277.1283 165.06948 
L 277.2399 158.180115 
L 277.3515 169.97223 
L 277.4631 157.926726 
L 277.5747 182.348947 
L 277.6863 180.793214 
L 277.9095 164.662275 
L 278.0211 182.983803 
L 278.2443 154.395333 
L 278.3559 173.610519 
L 278.4675 172.01748 
L 278.8023 158.824237 
L 278.9139 170.900932 
L 279.0255 195.311022 
L 279.2487 160.915777 
L 279.3603 161.345947 
L 279.4719 169.323762 
L 279.5835 163.767486 
L 279.6951 192.106058 
L 279.8067 185.566111 
L 279.9183 158.301987 
L 280.0299 164.634815 
L 280.1415 160.018623 
L 280.2531 160.567306 
L 280.3647 196.991852 
L 280.5879 168.669066 
L 280.6995 151.749498 
L 280.8111 166.257236 
L 280.9227 163.757779 
L 281.0343 156.425371 
L 281.1459 165.540622 
L 281.2575 368.74175 
L 281.4807 163.65808 
L 281.7039 149.257325 
L 281.9271 177.984406 
L 282.1503 157.247458 
L 282.2619 162.88361 
L 282.3735 182.368313 
L 282.5967 161.546882 
L 282.7083 219.870291 
L 282.9315 157.751793 
L 283.0431 175.432051 
L 283.2663 165.328407 
L 283.3779 163.002326 
L 283.4895 207.35874 
L 283.6011 153.604232 
L 283.7127 176.695079 
L 283.8243 171.658332 
L 283.9359 175.018644 
L 284.0475 155.126054 
L 284.1591 202.101961 
L 284.4939 154.85366 
L 284.6055 172.772658 
L 284.7171 152.595013 
L 284.8287 162.125911 
L 284.9403 151.77597 
L 285.0519 160.626113 
L 285.1635 208.938047 
L 285.2751 156.862739 
L 285.3867 178.750727 
L 285.4983 178.482878 
L 285.7215 164.193531 
L 285.8331 222.576642 
L 286.0563 158.35372 
L 286.1679 161.083577 
L 286.2795 198.001719 
L 286.5027 160.062718 
L 286.6143 188.60921 
L 286.7259 168.45655 
L 286.8375 191.499869 
L 287.0607 148.692589 
L 287.2839 190.251579 
L 287.5071 159.872067 
L 287.6187 164.973617 
L 287.8419 159.958699 
L 287.9535 167.82584 
L 288.0651 161.652848 
L 288.1767 187.010239 
L 288.2883 181.970219 
L 288.3999 150.310411 
L 288.5115 154.208442 
L 288.7347 175.922835 
L 288.8463 147.328493 
L 288.9579 179.39029 
L 289.0695 151.79492 
L 289.1811 154.306862 
L 289.2927 170.549066 
L 289.6275 142.477895 
L 289.7391 159.594791 
L 289.8507 195.98115 
L 290.0739 152.186231 
L 290.2971 170.62967 
L 290.4087 146.749106 
L 290.6319 159.303514 
L 290.7435 153.181114 
L 290.8551 158.079362 
L 290.9667 146.296671 
L 291.1899 179.980791 
L 291.3015 149.434017 
L 291.4131 163.602004 
L 291.5247 149.72595 
L 291.6363 164.728974 
L 291.8595 159.098847 
L 291.9711 202.712687 
L 292.0827 140.502357 
L 292.1943 141.326377 
L 292.3059 177.186011 
L 292.4175 368.74175 
L 292.6407 159.967288 
L 292.7523 180.165541 
L 292.9755 151.734841 
L 293.0871 146.162339 
L 293.1987 157.564035 
L 293.3103 155.611697 
L 293.4219 147.60254 
L 293.6451 168.209237 
L 293.7567 152.598063 
L 293.8683 152.619331 
L 293.9799 154.087331 
L 294.0915 167.11315 
L 294.3147 147.73642 
L 294.5379 153.545612 
L 294.6495 172.719706 
L 294.7611 142.991261 
L 294.9843 152.917284 
L 295.0959 162.787966 
L 295.2075 142.442097 
L 295.3191 146.136855 
L 295.4307 155.418922 
L 295.6539 191.6449 
L 295.7655 145.503381 
L 295.8771 148.168638 
L 295.9887 143.143909 
L 296.1003 145.42551 
L 296.3235 164.387833 
L 296.4351 169.755956 
L 296.5467 162.414847 
L 296.6583 202.101081 
L 296.8815 146.824121 
L 296.9931 160.738062 
L 297.1047 140.214331 
L 297.3279 160.834732 
L 297.5511 141.7809 
L 297.6627 159.065647 
L 297.7743 149.049275 
L 297.8859 190.981584 
L 297.9975 180.606765 
L 298.2207 147.956715 
L 298.4439 152.845836 
L 298.5555 159.965209 
L 298.6671 145.554593 
L 298.7787 156.598861 
L 298.8903 152.536307 
L 299.0019 221.245 
L 299.2251 140.207798 
L 299.4483 156.413945 
L 299.5599 144.201086 
L 299.6715 164.835226 
L 299.7831 152.48344 
L 299.8947 162.039013 
L 300.0063 136.354081 
L 300.2295 147.709477 
L 300.3411 149.422404 
L 300.4527 142.589568 
L 300.5643 158.989797 
L 300.6759 136.419407 
L 300.7875 146.495451 
L 300.8991 140.172753 
L 301.0107 143.72566 
L 301.1223 157.799707 
L 301.2339 141.93385 
L 301.3455 191.54018 
L 301.5687 144.457823 
L 301.6803 264.113605 
L 301.7919 145.486117 
L 302.0151 153.786789 
L 302.1267 143.936786 
L 302.2383 149.85595 
L 302.3499 145.714748 
L 302.4615 263.996941 
L 302.5731 134.869126 
L 302.7963 143.340394 
L 302.9079 168.482973 
L 303.0195 146.514268 
L 303.1311 148.088879 
L 303.2427 143.717772 
L 303.3543 173.308964 
L 303.4659 161.693897 
L 303.5775 368.74175 
L 303.6891 149.066712 
L 303.8007 151.037134 
L 304.0239 132.628106 
L 304.1355 137.150528 
L 304.2471 172.036703 
L 304.3587 143.493856 
L 304.4703 159.417813 
L 304.5819 135.073419 
L 304.6935 172.769047 
L 304.8051 140.159355 
L 304.9167 145.336737 
L 305.0283 179.000672 
L 305.1399 133.854635 
L 305.2515 154.26358 
L 305.3631 142.976927 
L 305.4747 166.357824 
L 305.5863 148.179756 
L 305.6979 170.590829 
L 305.8095 142.929505 
L 305.9211 193.972549 
L 306.0327 133.316427 
L 306.1443 141.37345 
L 306.2559 158.14628 
L 306.4791 132.205359 
L 306.7023 146.602157 
L 306.8139 142.394498 
L 307.0371 147.701706 
L 307.1487 145.992204 
L 307.2603 132.476279 
L 307.3719 153.322884 
L 307.4835 141.169719 
L 307.5951 148.250337 
L 307.7067 139.261216 
L 307.8183 142.030543 
L 307.9299 154.497172 
L 308.1531 139.636809 
L 308.2647 138.442651 
L 308.4879 170.462223 
L 308.5995 164.18215 
L 308.7111 177.84561 
L 308.8227 137.80763 
L 309.0459 168.531007 
L 309.2691 158.642538 
L 309.3807 159.673097 
L 309.4923 144.336356 
L 309.6039 208.253646 
L 309.8271 134.262766 
L 309.9387 138.981692 
L 310.0503 154.592867 
L 310.1619 135.07846 
L 310.2735 167.585844 
L 310.3851 137.368959 
L 310.4967 159.151837 
L 310.6083 151.337749 
L 310.7199 133.126878 
L 310.8315 162.634033 
L 310.9431 138.408343 
L 311.1663 144.125777 
L 311.2779 134.393127 
L 311.3895 185.562153 
L 311.5011 183.951735 
L 311.6127 130.703329 
L 311.7243 137.298144 
L 311.8359 137.079319 
L 311.9475 165.931631 
L 312.0591 161.941225 
L 312.1707 166.69391 
L 312.2823 129.391558 
L 312.5055 150.774489 
L 312.6171 144.701567 
L 312.7287 150.912898 
L 312.8403 246.837946 
L 313.1751 129.884864 
L 313.2867 216.234256 
L 313.5099 131.337175 
L 313.6215 129.542761 
L 313.7331 175.219745 
L 313.8447 163.211222 
L 314.0679 134.414614 
L 314.1795 228.040543 
L 314.2911 144.993547 
L 314.5143 159.591762 
L 314.6259 121.984888 
L 314.7375 368.74175 
L 314.8491 134.415488 
L 314.9607 142.534247 
L 315.1839 135.372827 
L 315.2955 138.756726 
L 315.4071 135.157622 
L 315.5187 153.633731 
L 315.6303 141.744794 
L 315.7419 142.980469 
L 316.0767 130.357256 
L 316.2999 184.593909 
L 316.5231 123.040807 
L 316.6347 161.214846 
L 316.7463 145.637607 
L 316.8579 178.043641 
L 316.9695 126.747752 
L 317.0811 135.383339 
L 317.1927 170.279157 
L 317.4159 136.313899 
L 317.5275 139.279629 
L 317.7507 129.739797 
L 317.8623 145.953537 
L 317.9739 143.227229 
L 318.1971 128.938932 
L 318.3087 124.030261 
L 318.4203 162.859751 
L 318.6435 132.868677 
L 318.9783 143.213347 
L 319.2015 141.007932 
L 319.3131 133.957893 
L 319.4247 168.325897 
L 319.6479 153.532774 
L 319.7595 130.21777 
L 319.8711 131.02133 
L 319.9827 141.494089 
L 320.0943 180.062805 
L 320.2059 119.90954 
L 320.3175 146.030754 
L 320.4291 131.386429 
L 320.5407 200.543007 
L 320.7639 123.105845 
L 320.8755 127.948039 
L 320.9871 124.039291 
L 321.0987 157.088087 
L 321.2103 125.887677 
L 321.3219 139.369955 
L 321.5451 125.201141 
L 321.6567 136.062733 
L 321.7683 168.460231 
L 321.8799 143.418696 
L 321.9915 155.241938 
L 322.2147 132.99327 
L 322.3263 154.956692 
L 322.5495 124.081097 
L 322.6611 125.141016 
L 322.7727 132.37645 
L 322.8843 119.02587 
L 322.9959 123.127498 
L 323.1075 146.048848 
L 323.2191 126.223376 
L 323.3307 136.101983 
L 323.5539 130.076523 
L 323.6655 132.38529 
L 323.8887 168.174935 
L 324.1119 130.303059 
L 324.2235 124.947408 
L 324.3351 125.859668 
L 324.4467 134.462919 
L 324.5583 131.445365 
L 324.6699 137.241884 
L 324.7815 123.196759 
L 325.0047 136.207405 
L 325.2279 122.647031 
L 325.3395 125.692424 
L 325.4511 158.176057 
L 325.5627 119.47401 
L 325.7859 145.21395 
L 325.8975 368.74175 
L 326.1207 118.870047 
L 326.2323 126.912088 
L 326.4555 115.689758 
L 326.7903 130.214678 
L 326.9019 125.854848 
L 327.0135 117.019748 
L 327.2367 154.375907 
L 327.3483 129.8003 
L 327.4599 140.667884 
L 327.6831 118.62609 
L 327.7947 120.015606 
L 327.9063 165.910232 
L 328.0179 141.901533 
L 328.1295 143.197138 
L 328.2411 154.089278 
L 328.3527 140.124026 
L 328.5759 172.376126 
L 328.7991 121.347393 
L 328.9107 135.785259 
L 329.0223 121.549294 
L 329.1339 122.392084 
L 329.2455 120.157342 
L 329.4687 138.972198 
L 329.5803 128.935664 
L 329.6919 132.651164 
L 329.8035 124.064594 
L 329.9151 126.641589 
L 330.1383 120.000907 
L 330.3615 117.531123 
L 330.4731 117.654541 
L 330.5847 127.594723 
L 330.6963 127.33328 
L 330.8079 141.592904 
L 331.0311 115.383904 
L 331.1427 133.442555 
L 331.2543 123.127356 
L 331.3659 124.225659 
L 331.4775 141.100326 
L 331.5891 116.755637 
L 331.8123 140.289397 
L 332.0355 118.673388 
L 332.1471 112.769124 
L 332.2587 117.116549 
L 332.3703 115.896935 
L 332.4819 132.883337 
L 332.7051 119.016276 
L 332.9283 111.580632 
L 333.0399 114.481279 
L 333.1515 128.433856 
L 333.2631 124.766941 
L 333.3747 186.44644 
L 333.4863 116.967216 
L 333.7095 136.483774 
L 333.9327 113.634875 
L 334.0443 115.077232 
L 334.2675 121.444128 
L 334.3791 115.527358 
L 334.4907 150.286181 
L 334.7139 129.65356 
L 334.8255 132.642477 
L 334.9371 128.77095 
L 335.0487 110.37989 
L 335.1603 154.041407 
L 335.3835 121.47439 
L 335.4951 143.864102 
L 335.6067 143.65534 
L 335.8299 109.976416 
L 336.0531 120.030991 
L 336.1647 147.170841 
L 336.2763 135.7397 
L 336.4995 104.844092 
L 336.6111 124.920222 
L 336.7227 106.908181 
L 336.9459 113.21205 
L 337.0575 368.74175 
L 337.2807 108.507634 
L 337.5039 122.316267 
L 337.6155 114.428588 
L 337.7271 119.4143 
L 337.8387 111.377061 
L 337.9503 115.540122 
L 338.0619 114.453885 
L 338.2851 124.636902 
L 338.3967 129.294353 
L 338.6199 114.374444 
L 338.8431 124.083028 
L 338.9547 120.671667 
L 339.1779 139.220959 
L 339.2895 115.672653 
L 339.4011 119.298528 
L 339.5127 110.050074 
L 339.6243 121.481775 
L 339.7359 121.281526 
L 339.8475 106.735695 
L 339.9591 144.43744 
L 340.0707 108.978746 
L 340.1823 136.542883 
L 340.4055 114.338236 
L 340.5171 123.971771 
L 340.8519 105.132548 
L 340.9635 135.683278 
L 341.1867 111.877709 
L 341.2983 111.883532 
L 341.4099 114.924364 
L 341.5215 111.858262 
L 341.6331 160.653478 
L 341.7447 131.496717 
L 341.8563 136.097802 
L 341.9679 104.464627 
L 342.0795 118.993139 
L 342.1911 102.555422 
L 342.3027 120.830604 
L 342.4143 112.123325 
L 342.5259 117.843624 
L 342.6375 109.040675 
L 342.7491 141.852155 
L 342.9723 112.240965 
L 343.0839 175.439931 
L 343.1955 108.107197 
L 343.3071 111.998349 
L 343.4187 110.474617 
L 343.5303 125.878595 
L 343.6419 111.642222 
L 343.7535 119.212536 
L 343.8651 104.488646 
L 343.9767 139.752635 
L 344.0883 107.061509 
L 344.1999 110.536233 
L 344.3115 110.308434 
L 344.5347 134.447523 
L 344.6463 106.315004 
L 344.8695 116.484583 
L 344.9811 109.964941 
L 345.0927 129.082688 
L 345.2043 102.084688 
L 345.3159 102.728382 
L 345.4275 107.294616 
L 345.6507 100.821171 
L 345.7623 100.40821 
L 345.9855 111.62065 
L 346.0971 118.616662 
L 346.2087 109.18572 
L 346.3203 119.395023 
L 346.4319 102.105299 
L 346.5435 110.097744 
L 346.6551 103.824815 
L 346.7667 112.894022 
L 346.8783 99.926013 
L 346.9899 141.915756 
L 347.1015 105.74394 
L 347.3247 107.529797 
L 347.4363 136.133268 
L 347.5479 106.209141 
L 347.6595 114.495326 
L 347.7711 110.580659 
L 347.8827 117.900192 
L 347.9943 107.888139 
L 348.1059 111.383503 
L 348.2175 368.74175 
L 348.4407 99.961218 
L 348.5523 124.099495 
L 348.6639 106.740337 
L 348.7755 122.759257 
L 348.8871 114.739072 
L 348.9987 137.031449 
L 349.1103 126.440078 
L 349.2219 135.000558 
L 349.3335 106.263282 
L 349.4451 117.929795 
L 349.5567 101.681132 
L 349.6683 107.609929 
L 349.7799 99.323906 
L 350.0031 101.101175 
L 350.1147 118.729061 
L 350.2263 114.83824 
L 350.3379 131.363608 
L 350.5611 104.108673 
L 350.6727 107.551388 
L 350.7843 118.41027 
L 350.8959 110.198245 
L 351.0075 134.318952 
L 351.1191 101.922735 
L 351.2307 132.480473 
L 351.3423 111.25054 
L 351.5655 152.625213 
L 351.6771 101.124895 
L 351.9003 113.32048 
L 352.0119 112.223563 
L 352.1235 156.468774 
L 352.2351 99.313373 
L 352.4583 129.916252 
L 352.5699 99.641647 
L 352.6815 166.713888 
L 352.9047 107.555097 
L 353.0163 108.062023 
L 353.1279 99.074168 
L 353.2395 103.897343 
L 353.3511 99.243628 
L 353.4627 117.678178 
L 353.5743 108.285283 
L 353.6859 141.24761 
L 353.7975 102.920563 
L 354.0207 148.652464 
L 354.1323 114.527701 
L 354.3555 119.306413 
L 354.4671 117.254222 
L 354.5787 117.606062 
L 354.6903 101.234481 
L 354.8019 108.213334 
L 354.9135 107.687652 
L 355.0251 110.717862 
L 355.1367 123.616709 
L 355.2483 163.428455 
L 355.3599 121.724618 
L 355.4715 124.490314 
L 355.5831 108.099507 
L 355.6947 132.488469 
L 355.9179 96.760913 
L 356.0295 106.725228 
L 356.1411 155.493923 
L 356.3643 117.380316 
L 356.4759 93.140091 
L 356.5875 111.254989 
L 356.6991 101.13224 
L 356.8107 115.544332 
L 356.9223 103.027272 
L 357.0339 132.564361 
L 357.1455 114.823405 
L 357.2571 139.803412 
L 357.4803 94.508981 
L 357.5919 104.402108 
L 357.7035 137.547302 
L 357.8151 132.761889 
L 358.0383 99.694203 
L 358.1499 107.461836 
L 358.3731 98.73056 
L 358.4847 116.602741 
L 358.5963 104.662359 
L 358.7079 106.233835 
L 358.8195 110.12015 
L 358.9311 97.284803 
L 359.0427 121.651538 
L 359.2659 89.346026 
L 359.3775 368.74175 
L 359.4891 101.331909 
L 359.6007 139.710691 
L 359.8239 102.858598 
L 359.9355 116.152649 
L 360.1587 95.782181 
L 360.2703 103.036827 
L 360.3819 125.95486 
L 360.4935 96.182335 
L 360.6051 106.272587 
L 360.7167 103.027221 
L 360.8283 90.464936 
L 360.9399 107.835209 
L 361.0515 104.081279 
L 361.1631 91.397357 
L 361.2747 107.282904 
L 361.3863 90.767934 
L 361.4979 120.172523 
L 361.7211 90.621834 
L 361.8327 100.634131 
L 361.9443 96.837349 
L 362.0559 114.53134 
L 362.1675 99.848213 
L 362.2791 118.830012 
L 362.5023 94.643571 
L 362.7255 102.250957 
L 362.9487 91.667165 
L 363.0603 103.611684 
L 363.2835 88.469716 
L 363.3951 93.233627 
L 363.5067 112.889082 
L 363.6183 103.701213 
L 363.7299 188.252785 
L 364.0647 87.778843 
L 364.1763 107.082626 
L 364.2879 102.890379 
L 364.3995 157.825303 
L 364.5111 97.68737 
L 364.9575 124.457359 
L 365.1807 95.862161 
L 365.2923 98.539406 
L 365.4039 97.428237 
L 365.5155 101.0242 
L 365.6271 123.154911 
L 365.7387 92.071067 
L 365.8503 94.622019 
L 365.9619 110.41635 
L 366.0735 86.804798 
L 366.1851 96.692016 
L 366.2967 96.483897 
L 366.4083 121.067938 
L 366.6315 102.724512 
L 366.7431 97.63628 
L 366.9663 143.172061 
L 367.1895 91.575393 
L 367.3011 106.420371 
L 367.4127 91.444488 
L 367.5243 117.108756 
L 367.6359 117.123146 
L 367.7475 133.016276 
L 367.8591 86.403771 
L 368.1939 120.769046 
L 368.3055 98.179227 
L 368.4171 149.468832 
L 368.6403 92.892005 
L 368.8635 87.274636 
L 368.9751 88.500404 
L 369.3099 111.160354 
L 369.4215 97.989453 
L 369.5331 124.845171 
L 369.7563 98.134817 
L 369.8679 109.632489 
L 369.9795 96.505715 
L 370.0911 115.956304 
L 370.2027 99.393449 
L 370.3143 109.085924 
L 370.4259 97.547862 
L 370.5375 368.74175 
L 370.7607 100.304326 
L 370.9839 84.892396 
L 371.0955 110.922012 
L 371.3187 90.481643 
L 371.4303 91.747412 
L 371.5419 96.573453 
L 371.6535 123.954712 
L 371.7651 88.287838 
L 371.9883 99.318933 
L 372.0999 86.788953 
L 372.3231 106.630864 
L 372.4347 85.953876 
L 372.6579 93.885988 
L 372.8811 90.334484 
L 372.9927 97.992869 
L 373.2159 86.988342 
L 373.3275 93.833943 
L 373.4391 108.572494 
L 373.5507 89.410487 
L 373.6623 98.474741 
L 373.7739 147.957952 
L 373.8855 92.741696 
L 373.9971 108.204796 
L 374.2203 81.371713 
L 374.3319 96.548618 
L 374.4435 84.077438 
L 374.5551 112.2778 
L 374.6667 86.347452 
L 374.7783 105.160934 
L 375.0015 82.137603 
L 375.1131 105.464459 
L 375.2247 93.419987 
L 375.3363 106.578119 
L 375.5595 85.274065 
L 375.6711 96.56079 
L 375.7827 91.810114 
L 375.8943 92.482398 
L 376.0059 97.162376 
L 376.1175 114.075918 
L 376.2291 82.137248 
L 376.4523 100.525867 
L 376.6755 83.509038 
L 376.7871 92.23478 
L 377.0103 80.641122 
L 377.2335 100.244121 
L 377.3451 84.754766 
L 377.4567 87.042773 
L 377.5683 91.81716 
L 377.6799 82.616828 
L 377.7915 89.740091 
L 377.9031 83.046158 
L 378.0147 93.785848 
L 378.1263 79.632046 
L 378.2379 86.794598 
L 378.3495 77.313804 
L 378.4611 136.359893 
L 378.6843 77.985268 
L 378.7959 112.7879 
L 379.0191 85.032091 
L 379.1307 100.798689 
L 379.3539 77.020455 
L 379.4655 89.598962 
L 379.5771 80.869085 
L 379.6887 114.085125 
L 379.8003 85.1242 
L 379.9119 98.752124 
L 380.0235 90.588593 
L 380.1351 91.054454 
L 380.2467 111.743148 
L 380.3583 94.273937 
L 380.4699 101.8934 
L 380.5815 77.513145 
L 380.8047 100.411671 
L 380.9163 87.308596 
L 381.0279 100.844332 
L 381.2511 95.15258 
L 381.3627 84.829653 
L 381.4743 88.936715 
L 381.5859 86.094832 
L 381.6975 368.74175 
L 381.9207 94.664411 
L 382.0323 94.44502 
L 382.1439 114.624673 
L 382.3671 90.514777 
L 382.4787 103.10975 
L 382.5903 75.567076 
L 382.7019 85.066644 
L 382.8135 82.391484 
L 382.9251 83.050209 
L 383.0367 78.633206 
L 383.1483 88.847402 
L 383.2599 83.713605 
L 383.3715 88.199782 
L 383.5947 80.297184 
L 383.9295 99.242671 
L 384.0411 80.423797 
L 384.1527 90.81538 
L 384.3759 74.208625 
L 384.5991 103.762228 
L 384.7107 99.991098 
L 385.1571 86.992121 
L 385.2687 78.940298 
L 385.3803 83.713998 
L 385.4919 102.723189 
L 385.7151 94.160079 
L 385.8267 93.115155 
L 385.9383 84.210521 
L 386.0499 100.991549 
L 386.1615 73.047374 
L 386.3847 104.287818 
L 386.4963 82.470607 
L 386.6079 97.845437 
L 386.7195 80.188476 
L 386.8311 85.244551 
L 387.0543 74.470466 
L 387.1659 76.300795 
L 387.2775 88.147168 
L 387.5007 77.060035 
L 387.6123 104.407884 
L 387.7239 84.494122 
L 387.8355 117.942089 
L 387.9471 76.274569 
L 388.0587 91.27224 
L 388.1703 80.86996 
L 388.2819 83.185996 
L 388.3935 75.695636 
L 388.6167 91.160646 
L 388.7283 76.06333 
L 388.8399 92.821461 
L 388.9515 91.109869 
L 389.1747 74.900027 
L 389.2863 101.61396 
L 389.3979 84.084703 
L 389.5095 85.004696 
L 389.6211 83.39224 
L 389.7327 85.638586 
L 389.8443 96.263747 
L 389.9559 81.759165 
L 390.0675 117.896727 
L 390.1791 117.724244 
L 390.2907 76.634131 
L 390.4023 113.819108 
L 390.5139 87.460944 
L 390.6255 97.938431 
L 390.8487 72.808862 
L 390.9603 71.046677 
L 391.0719 75.673422 
L 391.1835 98.830973 
L 391.2951 87.569029 
L 391.5183 109.201733 
L 391.7415 74.026485 
L 391.9647 110.057425 
L 392.4111 75.356509 
L 392.6343 98.136288 
L 392.7459 90.174303 
L 392.8575 368.74175 
L 393.0807 68.846125 
L 393.3039 80.515227 
L 393.4155 72.262261 
L 393.5271 106.977171 
L 393.6387 71.909848 
L 393.7503 79.117027 
L 393.8619 109.322069 
L 393.9735 71.805648 
L 394.0851 92.705418 
L 394.1967 73.250054 
L 394.4199 86.757509 
L 394.5315 85.962089 
L 394.6431 93.216529 
L 394.7547 66.089492 
L 394.8663 77.309382 
L 394.9779 73.937901 
L 395.2011 106.572902 
L 395.4243 77.329232 
L 395.5359 70.062092 
L 395.6475 81.702935 
L 395.8707 72.285929 
L 395.9823 91.439762 
L 396.0939 70.311707 
L 396.3171 89.752748 
L 396.4287 73.12791 
L 396.7635 89.232661 
L 396.8751 67.381086 
L 397.2099 94.551794 
L 397.3215 64.583145 
L 397.7679 96.316285 
L 398.1027 76.362174 
L 398.3259 108.443984 
L 398.4375 99.359683 
L 398.6607 113.843728 
L 398.7723 102.469451 
L 398.9955 69.350578 
L 399.3303 89.48684 
L 399.4419 80.070221 
L 399.5535 89.72238 
L 399.6651 74.209706 
L 399.7767 86.885646 
L 399.8883 69.325455 
L 399.9999 71.695956 
L 400.1115 80.388492 
L 400.2231 78.452245 
L 400.3347 84.248146 
L 400.4463 67.762329 
L 400.5579 87.587943 
L 400.6695 63.388403 
L 400.8927 81.808992 
L 401.0043 74.27883 
L 401.1159 98.312577 
L 401.2275 75.285643 
L 401.3391 100.553207 
L 401.4507 79.310142 
L 401.6739 97.569463 
L 401.8971 69.757642 
L 402.0087 73.084808 
L 402.1203 64.141011 
L 402.3435 74.832223 
L 402.5667 99.092711 
L 402.7899 65.229567 
L 402.9015 103.923124 
L 403.1247 63.402997 
L 403.3479 66.685321 
L 403.4595 74.161154 
L 403.5711 66.604139 
L 403.6827 73.532511 
L 403.7943 96.110851 
L 403.9059 77.321661 
L 404.0175 368.74175 
L 404.2407 73.805545 
L 404.3523 65.379617 
L 404.4639 67.193777 
L 404.5755 75.179205 
L 404.6871 129.152821 
L 404.7987 80.028906 
L 404.9103 93.810149 
L 405.0219 69.40162 
L 405.1335 85.823233 
L 405.2451 84.788408 
L 405.3567 79.429736 
L 405.5799 65.348885 
L 405.6915 67.161982 
L 405.8031 83.326562 
L 406.0263 62.08131 
L 406.3611 86.982472 
L 406.6959 62.117311 
L 406.8075 66.495542 
L 406.9191 64.73545 
L 407.0307 72.287011 
L 407.1423 65.135114 
L 407.2539 105.238709 
L 407.4771 68.220311 
L 407.5887 100.912909 
L 407.7003 60.987929 
L 407.8119 93.604547 
L 407.9235 92.980976 
L 408.0351 64.138782 
L 408.1467 128.37301 
L 408.2583 61.420275 
L 408.3699 80.277969 
L 408.4815 67.794074 
L 408.5931 70.195872 
L 408.7047 60.707078 
L 408.8163 81.649237 
L 408.9279 74.730639 
L 409.0395 75.590046 
L 409.1511 73.92842 
L 409.2627 70.242812 
L 409.3743 60.699227 
L 409.4859 72.917755 
L 409.5975 69.277822 
L 409.7091 69.408038 
L 409.8207 74.963375 
L 409.9323 67.636454 
L 410.0439 81.781574 
L 410.1555 136.145301 
L 410.3787 63.137729 
L 410.4903 58.871873 
L 410.6019 73.314112 
L 410.7135 58.211164 
L 410.9367 113.356597 
L 411.0483 61.586521 
L 411.2715 84.233677 
L 411.3831 57.439293 
L 411.4947 73.865334 
L 411.6063 58.438526 
L 411.7179 71.436522 
L 411.8295 71.115597 
L 411.9411 89.375806 
L 412.0527 60.172837 
L 412.1643 66.898649 
L 412.2759 60.588355 
L 412.3875 62.247694 
L 412.6107 72.7245 
L 412.7223 122.630021 
L 412.9455 71.734557 
L 413.0571 68.555297 
L 413.2803 100.565558 
L 413.5035 61.569124 
L 413.6151 63.495194 
L 413.7267 85.111824 
L 413.8383 77.680914 
L 413.9499 121.030082 
L 414.0615 60.533986 
L 414.1731 146.523998 
L 414.2847 62.362739 
L 414.3963 83.075546 
L 414.5079 65.507347 
L 414.6195 68.389415 
L 414.7311 59.728805 
L 414.9543 114.650414 
L 415.0659 69.049351 
L 415.1775 368.74175 
L 415.2891 64.042326 
L 415.4007 80.026845 
L 415.6239 64.156992 
L 415.8471 72.175399 
L 415.9587 68.011541 
L 416.0703 77.603637 
L 416.1819 66.206058 
L 416.2935 68.82348 
L 416.4051 99.193005 
L 416.5167 59.615665 
L 416.6283 68.579242 
L 416.8515 60.549332 
L 416.9631 60.048426 
L 417.2979 75.133568 
L 417.4095 54.331599 
L 417.5211 88.620931 
L 417.6327 58.748497 
L 417.7443 71.903923 
L 417.8559 61.503929 
L 418.0791 92.737506 
L 418.1907 90.415198 
L 418.3023 56.11642 
L 418.4139 57.424295 
L 418.6371 55.022243 
L 418.7487 78.043121 
L 418.8603 55.094446 
L 418.9719 63.564532 
L 419.0835 97.438878 
L 419.3067 73.088916 
L 419.4183 64.77545 
L 419.5299 77.430971 
L 419.6415 70.867614 
L 419.7531 54.691602 
L 419.8647 70.990687 
L 419.9763 69.118516 
L 420.0879 54.257171 
L 420.3111 71.559178 
L 420.4227 73.646122 
L 420.6459 53.563124 
L 420.8691 75.152756 
L 420.9807 66.505896 
L 421.0923 82.488266 
L 421.2039 57.833298 
L 421.3155 78.875944 
L 421.4271 74.050578 
L 421.5387 95.788856 
L 421.6503 56.309682 
L 421.8735 71.912869 
L 421.9851 58.596397 
L 422.0967 67.525362 
L 422.2083 55.878667 
L 422.3199 64.444226 
L 422.4315 82.398996 
L 422.5431 66.841808 
L 422.6547 82.669494 
L 422.8779 56.443704 
L 422.9895 69.776337 
L 423.1011 56.665267 
L 423.2127 57.415227 
L 423.4359 86.242491 
L 423.6591 59.277895 
L 423.7707 51.130166 
L 423.8823 63.876329 
L 423.9939 59.602571 
L 424.2171 98.589338 
L 424.3287 62.473411 
L 424.4403 66.920214 
L 424.5519 102.395086 
L 424.7751 55.797912 
L 424.8867 55.649515 
L 424.9983 66.984344 
L 425.2215 58.310769 
L 425.3331 87.283524 
L 425.4447 60.568869 
L 425.5563 63.701799 
L 425.7795 51.918339 
L 425.8911 95.296573 
L 426.1143 53.635687 
L 426.2259 82.950038 
L 426.3375 368.74175 
L 426.5607 55.552368 
L 426.6723 54.084177 
L 426.7839 63.485083 
L 426.8955 59.936081 
L 427.0071 51.090063 
L 427.1187 69.41332 
L 427.2303 52.899144 
L 427.3419 53.553644 
L 427.4535 57.186434 
L 427.5651 78.69746 
L 427.7883 60.32922 
L 427.8999 65.722459 
L 428.0115 53.447175 
L 428.2347 71.58172 
L 428.4579 48.57644 
L 428.6811 84.035878 
L 428.7927 84.070391 
L 429.0159 55.709577 
L 429.1275 77.282176 
L 429.2391 56.731856 
L 429.4623 87.471298 
L 429.5739 86.430629 
L 429.6855 50.958154 
L 429.7971 82.374772 
L 430.0203 50.895824 
L 430.1319 46.325122 
L 430.2435 51.403072 
L 430.3551 72.427238 
L 430.4667 67.655389 
L 430.6899 42.561731 
L 430.9131 85.726295 
L 431.1363 47.64109 
L 431.2479 55.419374 
L 431.3595 54.919752 
L 431.4711 75.943439 
L 431.6943 48.687138 
L 431.8059 68.84917 
L 432.0291 48.742414 
L 432.1407 56.946344 
L 432.2523 165.874268 
L 432.4755 52.8964 
L 432.5871 58.607597 
L 432.6987 54.594191 
L 432.8103 62.177982 
L 432.9219 46.877926 
L 433.0335 47.886328 
L 433.1451 47.780126 
L 433.2567 87.138498 
L 433.4799 64.694125 
L 433.5915 48.715856 
L 433.7031 123.787323 
L 433.9263 60.875362 
L 434.0379 43.973774 
L 434.1495 85.473554 
L 434.3727 51.643335 
L 434.4843 79.344912 
L 434.5959 50.151157 
L 434.8191 52.600626 
L 434.9307 45.705098 
L 435.0423 59.844836 
L 435.2655 55.991267 
L 435.3771 62.854437 
L 435.4887 62.392972 
L 435.7119 86.211036 
L 435.8235 86.158397 
L 436.1583 41.203659 
L 436.3815 96.762507 
L 436.4931 50.115215 
L 436.7163 63.493992 
L 436.8279 52.39699 
L 437.1627 82.500584 
L 437.3859 46.973749 
L 437.4975 368.74175 
L 437.7207 52.382228 
L 437.9439 66.895242 
L 438.0555 54.290159 
L 438.1671 85.60067 
L 438.5019 39.960206 
L 438.7251 67.332585 
L 438.9483 47.425735 
L 439.0599 42.646667 
L 439.1715 64.891048 
L 439.2831 63.543583 
L 439.3947 49.284911 
L 439.6179 58.019881 
L 439.8411 45.617491 
L 440.0643 61.156109 
L 440.1759 94.364711 
L 440.2875 44.432893 
L 440.3991 74.715509 
L 440.6223 41.293175 
L 440.8455 73.704317 
L 441.0687 47.580865 
L 441.1803 43.79279 
L 441.2919 59.575398 
L 441.4035 49.539913 
L 441.5151 66.332732 
L 441.6267 54.486282 
L 441.8499 75.819245 
L 441.9615 45.167939 
L 442.0731 55.75471 
L 442.1847 82.050387 
L 442.2963 40.022154 
L 442.5195 58.560687 
L 442.6311 58.680873 
L 442.7427 73.409914 
L 442.9659 42.935341 
L 443.0775 44.39621 
L 443.4123 56.320781 
L 443.7471 43.943277 
L 443.8587 42.299464 
L 443.9703 50.931093 
L 444.1935 42.79021 
L 444.3051 46.510568 
L 444.4167 44.487971 
L 444.5283 49.511829 
L 444.6399 59.780224 
L 444.7515 59.155818 
L 444.8631 36.67977 
L 444.9747 52.60751 
L 445.0863 120.234604 
L 445.1979 38.825906 
L 445.5327 89.40861 
L 445.6443 45.567601 
L 445.8675 61.931696 
L 446.0907 52.664079 
L 446.2023 52.502298 
L 446.3139 42.845176 
L 446.4255 43.02341 
L 446.5371 69.885114 
L 446.8719 45.953506 
L 446.9835 73.836206 
L 447.2067 53.89547 
L 447.3183 69.201863 
L 447.4299 44.441797 
L 447.6531 94.012562 
L 447.9879 43.226399 
L 448.0995 39.285457 
L 448.2111 67.283912 
L 448.3227 46.688422 
L 448.5459 54.277024 
L 448.5459 54.277024 
" style="fill:none;stroke:#0000ff;stroke-linecap:square;stroke-width:0.5;"/>
   </g>
   <g id="patch_3">
    <path d="M 46.8975 23.14175 
L 493.2975 23.14175 
" style="fill:none;stroke:#000000;stroke-linecap:square;stroke-linejoin:miter;"/>
   </g>
   <g id="patch_4">
    <path d="M 46.8975 368.74175 
L 493.2975 368.74175 
" style="fill:none;stroke:#000000;stroke-linecap:square;stroke-linejoin:miter;"/>
   </g>
   <g id="patch_5">
    <path d="M 493.2975 368.74175 
L 493.2975 23.14175 
" style="fill:none;stroke:#000000;stroke-linecap:square;stroke-linejoin:miter;"/>
   </g>
   <g id="patch_6">
    <path d="M 46.8975 368.74175 
L 46.8975 23.14175 
" style="fill:none;stroke:#000000;stroke-linecap:square;stroke-linejoin:miter;"/>
   </g>
   <g id="matplotlib.axis_1">
    <g id="xtick_1">
     <g id="line2d_2">
      <defs>
       <path d="M 0 0 
L 0 -4 
" id="m30d420e255" style="stroke:#000000;stroke-width:0.5;"/>
      </defs>
      <g>
       <use style="stroke:#000000;stroke-width:0.5;" x="46.8975" xlink:href="#m30d420e255" y="368.74175"/>
      </g>
     </g>
     <g id="line2d_3">
      <defs>
       <path d="M 0 0 
L 0 4 
" id="m3eeaa768d4" style="stroke:#000000;stroke-width:0.5;"/>
      </defs>
      <g>
       <use style="stroke:#000000;stroke-width:0.5;" x="46.8975" xlink:href="#m3eeaa768d4" y="23.14175"/>
      </g>
     </g>
     <g id="text_1">
      <!-- 0 -->
      <defs>
       <path d="M 31.78125 66.40625 
Q 24.171875 66.40625 20.328125 58.90625 
Q 16.5 51.421875 16.5 36.375 
Q 16.5 21.390625 20.328125 13.890625 
Q 24.171875 6.390625 31.78125 6.390625 
Q 39.453125 6.390625 43.28125 13.890625 
Q 47.125 21.390625 47.125 36.375 
Q 47.125 51.421875 43.28125 58.90625 
Q 39.453125 66.40625 31.78125 66.40625 
M 31.78125 74.21875 
Q 44.046875 74.21875 50.515625 64.515625 
Q 56.984375 54.828125 56.984375 36.375 
Q 56.984375 17.96875 50.515625 8.265625 
Q 44.046875 -1.421875 31.78125 -1.421875 
Q 19.53125 -1.421875 13.0625 8.265625 
Q 6.59375 17.96875 6.59375 36.375 
Q 6.59375 54.828125 13.0625 64.515625 
Q 19.53125 74.21875 31.78125 74.21875 
" id="BitstreamVeraSans-Roman-30"/>
      </defs>
      <g transform="translate(43.08 381.859875)scale(0.12 -0.12)">
       <use xlink:href="#BitstreamVeraSans-Roman-30"/>
      </g>
     </g>
    </g>
    <g id="xtick_2">
     <g id="line2d_4">
      <g>
       <use style="stroke:#000000;stroke-width:0.5;" x="102.6975" xlink:href="#m30d420e255" y="368.74175"/>
      </g>
     </g>
     <g id="line2d_5">
      <g>
       <use style="stroke:#000000;stroke-width:0.5;" x="102.6975" xlink:href="#m3eeaa768d4" y="23.14175"/>
      </g>
     </g>
     <g id="text_2">
      <!-- 500 -->
      <defs>
       <path d="M 10.796875 72.90625 
L 49.515625 72.90625 
L 49.515625 64.59375 
L 19.828125 64.59375 
L 19.828125 46.734375 
Q 21.96875 47.46875 24.109375 47.828125 
Q 26.265625 48.1875 28.421875 48.1875 
Q 40.625 48.1875 47.75 41.5 
Q 54.890625 34.8125 54.890625 23.390625 
Q 54.890625 11.625 47.5625 5.09375 
Q 40.234375 -1.421875 26.90625 -1.421875 
Q 22.3125 -1.421875 17.546875 -0.640625 
Q 12.796875 0.140625 7.71875 1.703125 
L 7.71875 11.625 
Q 12.109375 9.234375 16.796875 8.0625 
Q 21.484375 6.890625 26.703125 6.890625 
Q 35.15625 6.890625 40.078125 11.328125 
Q 45.015625 15.765625 45.015625 23.390625 
Q 45.015625 31 40.078125 35.4375 
Q 35.15625 39.890625 26.703125 39.890625 
Q 22.75 39.890625 18.8125 39.015625 
Q 14.890625 38.140625 10.796875 36.28125 
z
" id="BitstreamVeraSans-Roman-35"/>
      </defs>
      <g transform="translate(91.245 381.859875)scale(0.12 -0.12)">
       <use xlink:href="#BitstreamVeraSans-Roman-35"/>
       <use x="63.623046875" xlink:href="#BitstreamVeraSans-Roman-30"/>
       <use x="127.24609375" xlink:href="#BitstreamVeraSans-Roman-30"/>
      </g>
     </g>
    </g>
    <g id="xtick_3">
     <g id="line2d_6">
      <g>
       <use style="stroke:#000000;stroke-width:0.5;" x="158.4975" xlink:href="#m30d420e255" y="368.74175"/>
      </g>
     </g>
     <g id="line2d_7">
      <g>
       <use style="stroke:#000000;stroke-width:0.5;" x="158.4975" xlink:href="#m3eeaa768d4" y="23.14175"/>
      </g>
     </g>
     <g id="text_3">
      <!-- 1000 -->
      <defs>
       <path d="M 12.40625 8.296875 
L 28.515625 8.296875 
L 28.515625 63.921875 
L 10.984375 60.40625 
L 10.984375 69.390625 
L 28.421875 72.90625 
L 38.28125 72.90625 
L 38.28125 8.296875 
L 54.390625 8.296875 
L 54.390625 0 
L 12.40625 0 
z
" id="BitstreamVeraSans-Roman-31"/>
      </defs>
      <g transform="translate(143.2275 381.859875)scale(0.12 -0.12)">
       <use xlink:href="#BitstreamVeraSans-Roman-31"/>
       <use x="63.623046875" xlink:href="#BitstreamVeraSans-Roman-30"/>
       <use x="127.24609375" xlink:href="#BitstreamVeraSans-Roman-30"/>
       <use x="190.869140625" xlink:href="#BitstreamVeraSans-Roman-30"/>
      </g>
     </g>
    </g>
    <g id="xtick_4">
     <g id="line2d_8">
      <g>
       <use style="stroke:#000000;stroke-width:0.5;" x="214.2975" xlink:href="#m30d420e255" y="368.74175"/>
      </g>
     </g>
     <g id="line2d_9">
      <g>
       <use style="stroke:#000000;stroke-width:0.5;" x="214.2975" xlink:href="#m3eeaa768d4" y="23.14175"/>
      </g>
     </g>
     <g id="text_4">
      <!-- 1500 -->
      <g transform="translate(199.0275 381.859875)scale(0.12 -0.12)">
       <use xlink:href="#BitstreamVeraSans-Roman-31"/>
       <use x="63.623046875" xlink:href="#BitstreamVeraSans-Roman-35"/>
       <use x="127.24609375" xlink:href="#BitstreamVeraSans-Roman-30"/>
       <use x="190.869140625" xlink:href="#BitstreamVeraSans-Roman-30"/>
      </g>
     </g>
    </g>
    <g id="xtick_5">
     <g id="line2d_10">
      <g>
       <use style="stroke:#000000;stroke-width:0.5;" x="270.0975" xlink:href="#m30d420e255" y="368.74175"/>
      </g>
     </g>
     <g id="line2d_11">
      <g>
       <use style="stroke:#000000;stroke-width:0.5;" x="270.0975" xlink:href="#m3eeaa768d4" y="23.14175"/>
      </g>
     </g>
     <g id="text_5">
      <!-- 2000 -->
      <defs>
       <path d="M 19.1875 8.296875 
L 53.609375 8.296875 
L 53.609375 0 
L 7.328125 0 
L 7.328125 8.296875 
Q 12.9375 14.109375 22.625 23.890625 
Q 32.328125 33.6875 34.8125 36.53125 
Q 39.546875 41.84375 41.421875 45.53125 
Q 43.3125 49.21875 43.3125 52.78125 
Q 43.3125 58.59375 39.234375 62.25 
Q 35.15625 65.921875 28.609375 65.921875 
Q 23.96875 65.921875 18.8125 64.3125 
Q 13.671875 62.703125 7.8125 59.421875 
L 7.8125 69.390625 
Q 13.765625 71.78125 18.9375 73 
Q 24.125 74.21875 28.421875 74.21875 
Q 39.75 74.21875 46.484375 68.546875 
Q 53.21875 62.890625 53.21875 53.421875 
Q 53.21875 48.921875 51.53125 44.890625 
Q 49.859375 40.875 45.40625 35.40625 
Q 44.1875 33.984375 37.640625 27.21875 
Q 31.109375 20.453125 19.1875 8.296875 
" id="BitstreamVeraSans-Roman-32"/>
      </defs>
      <g transform="translate(254.8275 381.859875)scale(0.12 -0.12)">
       <use xlink:href="#BitstreamVeraSans-Roman-32"/>
       <use x="63.623046875" xlink:href="#BitstreamVeraSans-Roman-30"/>
       <use x="127.24609375" xlink:href="#BitstreamVeraSans-Roman-30"/>
       <use x="190.869140625" xlink:href="#BitstreamVeraSans-Roman-30"/>
      </g>
     </g>
    </g>
    <g id="xtick_6">
     <g id="line2d_12">
      <g>
       <use style="stroke:#000000;stroke-width:0.5;" x="325.8975" xlink:href="#m30d420e255" y="368.74175"/>
      </g>
     </g>
     <g id="line2d_13">
      <g>
       <use style="stroke:#000000;stroke-width:0.5;" x="325.8975" xlink:href="#m3eeaa768d4" y="23.14175"/>
      </g>
     </g>
     <g id="text_6">
      <!-- 2500 -->
      <g transform="translate(310.6275 381.859875)scale(0.12 -0.12)">
       <use xlink:href="#BitstreamVeraSans-Roman-32"/>
       <use x="63.623046875" xlink:href="#BitstreamVeraSans-Roman-35"/>
       <use x="127.24609375" xlink:href="#BitstreamVeraSans-Roman-30"/>
       <use x="190.869140625" xlink:href="#BitstreamVeraSans-Roman-30"/>
      </g>
     </g>
    </g>
    <g id="xtick_7">
     <g id="line2d_14">
      <g>
       <use style="stroke:#000000;stroke-width:0.5;" x="381.6975" xlink:href="#m30d420e255" y="368.74175"/>
      </g>
     </g>
     <g id="line2d_15">
      <g>
       <use style="stroke:#000000;stroke-width:0.5;" x="381.6975" xlink:href="#m3eeaa768d4" y="23.14175"/>
      </g>
     </g>
     <g id="text_7">
      <!-- 3000 -->
      <defs>
       <path d="M 40.578125 39.3125 
Q 47.65625 37.796875 51.625 33 
Q 55.609375 28.21875 55.609375 21.1875 
Q 55.609375 10.40625 48.1875 4.484375 
Q 40.765625 -1.421875 27.09375 -1.421875 
Q 22.515625 -1.421875 17.65625 -0.515625 
Q 12.796875 0.390625 7.625 2.203125 
L 7.625 11.71875 
Q 11.71875 9.328125 16.59375 8.109375 
Q 21.484375 6.890625 26.8125 6.890625 
Q 36.078125 6.890625 40.9375 10.546875 
Q 45.796875 14.203125 45.796875 21.1875 
Q 45.796875 27.640625 41.28125 31.265625 
Q 36.765625 34.90625 28.71875 34.90625 
L 20.21875 34.90625 
L 20.21875 43.015625 
L 29.109375 43.015625 
Q 36.375 43.015625 40.234375 45.921875 
Q 44.09375 48.828125 44.09375 54.296875 
Q 44.09375 59.90625 40.109375 62.90625 
Q 36.140625 65.921875 28.71875 65.921875 
Q 24.65625 65.921875 20.015625 65.03125 
Q 15.375 64.15625 9.8125 62.3125 
L 9.8125 71.09375 
Q 15.4375 72.65625 20.34375 73.4375 
Q 25.25 74.21875 29.59375 74.21875 
Q 40.828125 74.21875 47.359375 69.109375 
Q 53.90625 64.015625 53.90625 55.328125 
Q 53.90625 49.265625 50.4375 45.09375 
Q 46.96875 40.921875 40.578125 39.3125 
" id="BitstreamVeraSans-Roman-33"/>
      </defs>
      <g transform="translate(366.4275 381.859875)scale(0.12 -0.12)">
       <use xlink:href="#BitstreamVeraSans-Roman-33"/>
       <use x="63.623046875" xlink:href="#BitstreamVeraSans-Roman-30"/>
       <use x="127.24609375" xlink:href="#BitstreamVeraSans-Roman-30"/>
       <use x="190.869140625" xlink:href="#BitstreamVeraSans-Roman-30"/>
      </g>
     </g>
    </g>
    <g id="xtick_8">
     <g id="line2d_16">
      <g>
       <use style="stroke:#000000;stroke-width:0.5;" x="437.4975" xlink:href="#m30d420e255" y="368.74175"/>
      </g>
     </g>
     <g id="line2d_17">
      <g>
       <use style="stroke:#000000;stroke-width:0.5;" x="437.4975" xlink:href="#m3eeaa768d4" y="23.14175"/>
      </g>
     </g>
     <g id="text_8">
      <!-- 3500 -->
      <g transform="translate(422.2275 381.859875)scale(0.12 -0.12)">
       <use xlink:href="#BitstreamVeraSans-Roman-33"/>
       <use x="63.623046875" xlink:href="#BitstreamVeraSans-Roman-35"/>
       <use x="127.24609375" xlink:href="#BitstreamVeraSans-Roman-30"/>
       <use x="190.869140625" xlink:href="#BitstreamVeraSans-Roman-30"/>
      </g>
     </g>
    </g>
    <g id="xtick_9">
     <g id="line2d_18">
      <g>
       <use style="stroke:#000000;stroke-width:0.5;" x="493.2975" xlink:href="#m30d420e255" y="368.74175"/>
      </g>
     </g>
     <g id="line2d_19">
      <g>
       <use style="stroke:#000000;stroke-width:0.5;" x="493.2975" xlink:href="#m3eeaa768d4" y="23.14175"/>
      </g>
     </g>
     <g id="text_9">
      <!-- 4000 -->
      <defs>
       <path d="M 37.796875 64.3125 
L 12.890625 25.390625 
L 37.796875 25.390625 
z
M 35.203125 72.90625 
L 47.609375 72.90625 
L 47.609375 25.390625 
L 58.015625 25.390625 
L 58.015625 17.1875 
L 47.609375 17.1875 
L 47.609375 0 
L 37.796875 0 
L 37.796875 17.1875 
L 4.890625 17.1875 
L 4.890625 26.703125 
z
" id="BitstreamVeraSans-Roman-34"/>
      </defs>
      <g transform="translate(478.0275 381.859875)scale(0.12 -0.12)">
       <use xlink:href="#BitstreamVeraSans-Roman-34"/>
       <use x="63.623046875" xlink:href="#BitstreamVeraSans-Roman-30"/>
       <use x="127.24609375" xlink:href="#BitstreamVeraSans-Roman-30"/>
       <use x="190.869140625" xlink:href="#BitstreamVeraSans-Roman-30"/>
      </g>
     </g>
    </g>
    <g id="text_10">
     <!-- episode -->
     <defs>
      <path d="M 30.609375 48.390625 
Q 23.390625 48.390625 19.1875 42.75 
Q 14.984375 37.109375 14.984375 27.296875 
Q 14.984375 17.484375 19.15625 11.84375 
Q 23.34375 6.203125 30.609375 6.203125 
Q 37.796875 6.203125 41.984375 11.859375 
Q 46.1875 17.53125 46.1875 27.296875 
Q 46.1875 37.015625 41.984375 42.703125 
Q 37.796875 48.390625 30.609375 48.390625 
M 30.609375 56 
Q 42.328125 56 49.015625 48.375 
Q 55.71875 40.765625 55.71875 27.296875 
Q 55.71875 13.875 49.015625 6.21875 
Q 42.328125 -1.421875 30.609375 -1.421875 
Q 18.84375 -1.421875 12.171875 6.21875 
Q 5.515625 13.875 5.515625 27.296875 
Q 5.515625 40.765625 12.171875 48.375 
Q 18.84375 56 30.609375 56 
" id="BitstreamVeraSans-Roman-6f"/>
      <path d="M 9.421875 54.6875 
L 18.40625 54.6875 
L 18.40625 0 
L 9.421875 0 
z
M 9.421875 75.984375 
L 18.40625 75.984375 
L 18.40625 64.59375 
L 9.421875 64.59375 
z
" id="BitstreamVeraSans-Roman-69"/>
      <path d="M 18.109375 8.203125 
L 18.109375 -20.796875 
L 9.078125 -20.796875 
L 9.078125 54.6875 
L 18.109375 54.6875 
L 18.109375 46.390625 
Q 20.953125 51.265625 25.265625 53.625 
Q 29.59375 56 35.59375 56 
Q 45.5625 56 51.78125 48.09375 
Q 58.015625 40.1875 58.015625 27.296875 
Q 58.015625 14.40625 51.78125 6.484375 
Q 45.5625 -1.421875 35.59375 -1.421875 
Q 29.59375 -1.421875 25.265625 0.953125 
Q 20.953125 3.328125 18.109375 8.203125 
M 48.6875 27.296875 
Q 48.6875 37.203125 44.609375 42.84375 
Q 40.53125 48.484375 33.40625 48.484375 
Q 26.265625 48.484375 22.1875 42.84375 
Q 18.109375 37.203125 18.109375 27.296875 
Q 18.109375 17.390625 22.1875 11.75 
Q 26.265625 6.109375 33.40625 6.109375 
Q 40.53125 6.109375 44.609375 11.75 
Q 48.6875 17.390625 48.6875 27.296875 
" id="BitstreamVeraSans-Roman-70"/>
      <path d="M 56.203125 29.59375 
L 56.203125 25.203125 
L 14.890625 25.203125 
Q 15.484375 15.921875 20.484375 11.0625 
Q 25.484375 6.203125 34.421875 6.203125 
Q 39.59375 6.203125 44.453125 7.46875 
Q 49.3125 8.734375 54.109375 11.28125 
L 54.109375 2.78125 
Q 49.265625 0.734375 44.1875 -0.34375 
Q 39.109375 -1.421875 33.890625 -1.421875 
Q 20.796875 -1.421875 13.15625 6.1875 
Q 5.515625 13.8125 5.515625 26.8125 
Q 5.515625 40.234375 12.765625 48.109375 
Q 20.015625 56 32.328125 56 
Q 43.359375 56 49.78125 48.890625 
Q 56.203125 41.796875 56.203125 29.59375 
M 47.21875 32.234375 
Q 47.125 39.59375 43.09375 43.984375 
Q 39.0625 48.390625 32.421875 48.390625 
Q 24.90625 48.390625 20.390625 44.140625 
Q 15.875 39.890625 15.1875 32.171875 
z
" id="BitstreamVeraSans-Roman-65"/>
      <path d="M 45.40625 46.390625 
L 45.40625 75.984375 
L 54.390625 75.984375 
L 54.390625 0 
L 45.40625 0 
L 45.40625 8.203125 
Q 42.578125 3.328125 38.25 0.953125 
Q 33.9375 -1.421875 27.875 -1.421875 
Q 17.96875 -1.421875 11.734375 6.484375 
Q 5.515625 14.40625 5.515625 27.296875 
Q 5.515625 40.1875 11.734375 48.09375 
Q 17.96875 56 27.875 56 
Q 33.9375 56 38.25 53.625 
Q 42.578125 51.265625 45.40625 46.390625 
M 14.796875 27.296875 
Q 14.796875 17.390625 18.875 11.75 
Q 22.953125 6.109375 30.078125 6.109375 
Q 37.203125 6.109375 41.296875 11.75 
Q 45.40625 17.390625 45.40625 27.296875 
Q 45.40625 37.203125 41.296875 42.84375 
Q 37.203125 48.484375 30.078125 48.484375 
Q 22.953125 48.484375 18.875 42.84375 
Q 14.796875 37.203125 14.796875 27.296875 
" id="BitstreamVeraSans-Roman-64"/>
      <path d="M 44.28125 53.078125 
L 44.28125 44.578125 
Q 40.484375 46.53125 36.375 47.5 
Q 32.28125 48.484375 27.875 48.484375 
Q 21.1875 48.484375 17.84375 46.4375 
Q 14.5 44.390625 14.5 40.28125 
Q 14.5 37.15625 16.890625 35.375 
Q 19.28125 33.59375 26.515625 31.984375 
L 29.59375 31.296875 
Q 39.15625 29.25 43.1875 25.515625 
Q 47.21875 21.78125 47.21875 15.09375 
Q 47.21875 7.46875 41.1875 3.015625 
Q 35.15625 -1.421875 24.609375 -1.421875 
Q 20.21875 -1.421875 15.453125 -0.5625 
Q 10.6875 0.296875 5.421875 2 
L 5.421875 11.28125 
Q 10.40625 8.6875 15.234375 7.390625 
Q 20.0625 6.109375 24.8125 6.109375 
Q 31.15625 6.109375 34.5625 8.28125 
Q 37.984375 10.453125 37.984375 14.40625 
Q 37.984375 18.0625 35.515625 20.015625 
Q 33.0625 21.96875 24.703125 23.78125 
L 21.578125 24.515625 
Q 13.234375 26.265625 9.515625 29.90625 
Q 5.8125 33.546875 5.8125 39.890625 
Q 5.8125 47.609375 11.28125 51.796875 
Q 16.75 56 26.8125 56 
Q 31.78125 56 36.171875 55.265625 
Q 40.578125 54.546875 44.28125 53.078125 
" id="BitstreamVeraSans-Roman-73"/>
     </defs>
     <g transform="translate(246.631875 398.473625)scale(0.12 -0.12)">
      <use xlink:href="#BitstreamVeraSans-Roman-65"/>
      <use x="61.5234375" xlink:href="#BitstreamVeraSans-Roman-70"/>
      <use x="125.0" xlink:href="#BitstreamVeraSans-Roman-69"/>
      <use x="152.783203125" xlink:href="#BitstreamVeraSans-Roman-73"/>
      <use x="204.8828125" xlink:href="#BitstreamVeraSans-Roman-6f"/>
      <use x="266.064453125" xlink:href="#BitstreamVeraSans-Roman-64"/>
      <use x="329.541015625" xlink:href="#BitstreamVeraSans-Roman-65"/>
     </g>
    </g>
   </g>
   <g id="matplotlib.axis_2">
    <g id="ytick_1">
     <g id="line2d_20">
      <defs>
       <path d="M 0 0 
L 4 0 
" id="mf0c27b2dce" style="stroke:#000000;stroke-width:0.5;"/>
      </defs>
      <g>
       <use style="stroke:#000000;stroke-width:0.5;" x="46.8975" xlink:href="#mf0c27b2dce" y="368.74175"/>
      </g>
     </g>
     <g id="line2d_21">
      <defs>
       <path d="M 0 0 
L -4 0 
" id="mdaac421cc7" style="stroke:#000000;stroke-width:0.5;"/>
      </defs>
      <g>
       <use style="stroke:#000000;stroke-width:0.5;" x="493.2975" xlink:href="#mdaac421cc7" y="368.74175"/>
      </g>
     </g>
     <g id="text_11">
      <!-- 0.0 -->
      <defs>
       <path d="M 10.6875 12.40625 
L 21 12.40625 
L 21 0 
L 10.6875 0 
z
" id="BitstreamVeraSans-Roman-2e"/>
      </defs>
      <g transform="translate(23.81375 372.053)scale(0.12 -0.12)">
       <use xlink:href="#BitstreamVeraSans-Roman-30"/>
       <use x="63.623046875" xlink:href="#BitstreamVeraSans-Roman-2e"/>
       <use x="95.41015625" xlink:href="#BitstreamVeraSans-Roman-30"/>
      </g>
     </g>
    </g>
    <g id="ytick_2">
     <g id="line2d_22">
      <g>
       <use style="stroke:#000000;stroke-width:0.5;" x="46.8975" xlink:href="#mf0c27b2dce" y="330.34175"/>
      </g>
     </g>
     <g id="line2d_23">
      <g>
       <use style="stroke:#000000;stroke-width:0.5;" x="493.2975" xlink:href="#mdaac421cc7" y="330.34175"/>
      </g>
     </g>
     <g id="text_12">
      <!-- 0.5 -->
      <g transform="translate(23.81375 333.653)scale(0.12 -0.12)">
       <use xlink:href="#BitstreamVeraSans-Roman-30"/>
       <use x="63.623046875" xlink:href="#BitstreamVeraSans-Roman-2e"/>
       <use x="95.41015625" xlink:href="#BitstreamVeraSans-Roman-35"/>
      </g>
     </g>
    </g>
    <g id="ytick_3">
     <g id="line2d_24">
      <g>
       <use style="stroke:#000000;stroke-width:0.5;" x="46.8975" xlink:href="#mf0c27b2dce" y="291.94175"/>
      </g>
     </g>
     <g id="line2d_25">
      <g>
       <use style="stroke:#000000;stroke-width:0.5;" x="493.2975" xlink:href="#mdaac421cc7" y="291.94175"/>
      </g>
     </g>
     <g id="text_13">
      <!-- 1.0 -->
      <g transform="translate(23.81375 295.253)scale(0.12 -0.12)">
       <use xlink:href="#BitstreamVeraSans-Roman-31"/>
       <use x="63.623046875" xlink:href="#BitstreamVeraSans-Roman-2e"/>
       <use x="95.41015625" xlink:href="#BitstreamVeraSans-Roman-30"/>
      </g>
     </g>
    </g>
    <g id="ytick_4">
     <g id="line2d_26">
      <g>
       <use style="stroke:#000000;stroke-width:0.5;" x="46.8975" xlink:href="#mf0c27b2dce" y="253.54175"/>
      </g>
     </g>
     <g id="line2d_27">
      <g>
       <use style="stroke:#000000;stroke-width:0.5;" x="493.2975" xlink:href="#mdaac421cc7" y="253.54175"/>
      </g>
     </g>
     <g id="text_14">
      <!-- 1.5 -->
      <g transform="translate(23.81375 256.853)scale(0.12 -0.12)">
       <use xlink:href="#BitstreamVeraSans-Roman-31"/>
       <use x="63.623046875" xlink:href="#BitstreamVeraSans-Roman-2e"/>
       <use x="95.41015625" xlink:href="#BitstreamVeraSans-Roman-35"/>
      </g>
     </g>
    </g>
    <g id="ytick_5">
     <g id="line2d_28">
      <g>
       <use style="stroke:#000000;stroke-width:0.5;" x="46.8975" xlink:href="#mf0c27b2dce" y="215.14175"/>
      </g>
     </g>
     <g id="line2d_29">
      <g>
       <use style="stroke:#000000;stroke-width:0.5;" x="493.2975" xlink:href="#mdaac421cc7" y="215.14175"/>
      </g>
     </g>
     <g id="text_15">
      <!-- 2.0 -->
      <g transform="translate(23.81375 218.453)scale(0.12 -0.12)">
       <use xlink:href="#BitstreamVeraSans-Roman-32"/>
       <use x="63.623046875" xlink:href="#BitstreamVeraSans-Roman-2e"/>
       <use x="95.41015625" xlink:href="#BitstreamVeraSans-Roman-30"/>
      </g>
     </g>
    </g>
    <g id="ytick_6">
     <g id="line2d_30">
      <g>
       <use style="stroke:#000000;stroke-width:0.5;" x="46.8975" xlink:href="#mf0c27b2dce" y="176.74175"/>
      </g>
     </g>
     <g id="line2d_31">
      <g>
       <use style="stroke:#000000;stroke-width:0.5;" x="493.2975" xlink:href="#mdaac421cc7" y="176.74175"/>
      </g>
     </g>
     <g id="text_16">
      <!-- 2.5 -->
      <g transform="translate(23.81375 180.053)scale(0.12 -0.12)">
       <use xlink:href="#BitstreamVeraSans-Roman-32"/>
       <use x="63.623046875" xlink:href="#BitstreamVeraSans-Roman-2e"/>
       <use x="95.41015625" xlink:href="#BitstreamVeraSans-Roman-35"/>
      </g>
     </g>
    </g>
    <g id="ytick_7">
     <g id="line2d_32">
      <g>
       <use style="stroke:#000000;stroke-width:0.5;" x="46.8975" xlink:href="#mf0c27b2dce" y="138.34175"/>
      </g>
     </g>
     <g id="line2d_33">
      <g>
       <use style="stroke:#000000;stroke-width:0.5;" x="493.2975" xlink:href="#mdaac421cc7" y="138.34175"/>
      </g>
     </g>
     <g id="text_17">
      <!-- 3.0 -->
      <g transform="translate(23.81375 141.653)scale(0.12 -0.12)">
       <use xlink:href="#BitstreamVeraSans-Roman-33"/>
       <use x="63.623046875" xlink:href="#BitstreamVeraSans-Roman-2e"/>
       <use x="95.41015625" xlink:href="#BitstreamVeraSans-Roman-30"/>
      </g>
     </g>
    </g>
    <g id="ytick_8">
     <g id="line2d_34">
      <g>
       <use style="stroke:#000000;stroke-width:0.5;" x="46.8975" xlink:href="#mf0c27b2dce" y="99.94175"/>
      </g>
     </g>
     <g id="line2d_35">
      <g>
       <use style="stroke:#000000;stroke-width:0.5;" x="493.2975" xlink:href="#mdaac421cc7" y="99.94175"/>
      </g>
     </g>
     <g id="text_18">
      <!-- 3.5 -->
      <g transform="translate(23.81375 103.253)scale(0.12 -0.12)">
       <use xlink:href="#BitstreamVeraSans-Roman-33"/>
       <use x="63.623046875" xlink:href="#BitstreamVeraSans-Roman-2e"/>
       <use x="95.41015625" xlink:href="#BitstreamVeraSans-Roman-35"/>
      </g>
     </g>
    </g>
    <g id="ytick_9">
     <g id="line2d_36">
      <g>
       <use style="stroke:#000000;stroke-width:0.5;" x="46.8975" xlink:href="#mf0c27b2dce" y="61.54175"/>
      </g>
     </g>
     <g id="line2d_37">
      <g>
       <use style="stroke:#000000;stroke-width:0.5;" x="493.2975" xlink:href="#mdaac421cc7" y="61.54175"/>
      </g>
     </g>
     <g id="text_19">
      <!-- 4.0 -->
      <g transform="translate(23.81375 64.853)scale(0.12 -0.12)">
       <use xlink:href="#BitstreamVeraSans-Roman-34"/>
       <use x="63.623046875" xlink:href="#BitstreamVeraSans-Roman-2e"/>
       <use x="95.41015625" xlink:href="#BitstreamVeraSans-Roman-30"/>
      </g>
     </g>
    </g>
    <g id="ytick_10">
     <g id="line2d_38">
      <g>
       <use style="stroke:#000000;stroke-width:0.5;" x="46.8975" xlink:href="#mf0c27b2dce" y="23.14175"/>
      </g>
     </g>
     <g id="line2d_39">
      <g>
       <use style="stroke:#000000;stroke-width:0.5;" x="493.2975" xlink:href="#mdaac421cc7" y="23.14175"/>
      </g>
     </g>
     <g id="text_20">
      <!-- 4.5 -->
      <g transform="translate(23.81375 26.453)scale(0.12 -0.12)">
       <use xlink:href="#BitstreamVeraSans-Roman-34"/>
       <use x="63.623046875" xlink:href="#BitstreamVeraSans-Roman-2e"/>
       <use x="95.41015625" xlink:href="#BitstreamVeraSans-Roman-35"/>
      </g>
     </g>
    </g>
    <g id="text_21">
     <!-- average maxQ -->
     <defs>
      <path d="M 2.984375 54.6875 
L 12.5 54.6875 
L 29.59375 8.796875 
L 46.6875 54.6875 
L 56.203125 54.6875 
L 35.6875 0 
L 23.484375 0 
z
" id="BitstreamVeraSans-Roman-76"/>
      <path d="M 41.109375 46.296875 
Q 39.59375 47.171875 37.8125 47.578125 
Q 36.03125 48 33.890625 48 
Q 26.265625 48 22.1875 43.046875 
Q 18.109375 38.09375 18.109375 28.8125 
L 18.109375 0 
L 9.078125 0 
L 9.078125 54.6875 
L 18.109375 54.6875 
L 18.109375 46.1875 
Q 20.953125 51.171875 25.484375 53.578125 
Q 30.03125 56 36.53125 56 
Q 37.453125 56 38.578125 55.875 
Q 39.703125 55.765625 41.0625 55.515625 
z
" id="BitstreamVeraSans-Roman-72"/>
      <path d="M 39.40625 66.21875 
Q 28.65625 66.21875 22.328125 58.203125 
Q 16.015625 50.203125 16.015625 36.375 
Q 16.015625 22.609375 22.328125 14.59375 
Q 28.65625 6.59375 39.40625 6.59375 
Q 50.140625 6.59375 56.421875 14.59375 
Q 62.703125 22.609375 62.703125 36.375 
Q 62.703125 50.203125 56.421875 58.203125 
Q 50.140625 66.21875 39.40625 66.21875 
M 53.21875 1.3125 
L 66.21875 -12.890625 
L 54.296875 -12.890625 
L 43.5 -1.21875 
Q 41.890625 -1.3125 41.03125 -1.359375 
Q 40.1875 -1.421875 39.40625 -1.421875 
Q 24.03125 -1.421875 14.8125 8.859375 
Q 5.609375 19.140625 5.609375 36.375 
Q 5.609375 53.65625 14.8125 63.9375 
Q 24.03125 74.21875 39.40625 74.21875 
Q 54.734375 74.21875 63.90625 63.9375 
Q 73.09375 53.65625 73.09375 36.375 
Q 73.09375 23.6875 67.984375 14.640625 
Q 62.890625 5.609375 53.21875 1.3125 
" id="BitstreamVeraSans-Roman-51"/>
      <path d="M 52 44.1875 
Q 55.375 50.25 60.0625 53.125 
Q 64.75 56 71.09375 56 
Q 79.640625 56 84.28125 50.015625 
Q 88.921875 44.046875 88.921875 33.015625 
L 88.921875 0 
L 79.890625 0 
L 79.890625 32.71875 
Q 79.890625 40.578125 77.09375 44.375 
Q 74.3125 48.1875 68.609375 48.1875 
Q 61.625 48.1875 57.5625 43.546875 
Q 53.515625 38.921875 53.515625 30.90625 
L 53.515625 0 
L 44.484375 0 
L 44.484375 32.71875 
Q 44.484375 40.625 41.703125 44.40625 
Q 38.921875 48.1875 33.109375 48.1875 
Q 26.21875 48.1875 22.15625 43.53125 
Q 18.109375 38.875 18.109375 30.90625 
L 18.109375 0 
L 9.078125 0 
L 9.078125 54.6875 
L 18.109375 54.6875 
L 18.109375 46.1875 
Q 21.1875 51.21875 25.484375 53.609375 
Q 29.78125 56 35.6875 56 
Q 41.65625 56 45.828125 52.96875 
Q 50 49.953125 52 44.1875 
" id="BitstreamVeraSans-Roman-6d"/>
      <path id="BitstreamVeraSans-Roman-20"/>
      <path d="M 54.890625 54.6875 
L 35.109375 28.078125 
L 55.90625 0 
L 45.3125 0 
L 29.390625 21.484375 
L 13.484375 0 
L 2.875 0 
L 24.125 28.609375 
L 4.6875 54.6875 
L 15.28125 54.6875 
L 29.78125 35.203125 
L 44.28125 54.6875 
z
" id="BitstreamVeraSans-Roman-78"/>
      <path d="M 45.40625 27.984375 
Q 45.40625 37.75 41.375 43.109375 
Q 37.359375 48.484375 30.078125 48.484375 
Q 22.859375 48.484375 18.828125 43.109375 
Q 14.796875 37.75 14.796875 27.984375 
Q 14.796875 18.265625 18.828125 12.890625 
Q 22.859375 7.515625 30.078125 7.515625 
Q 37.359375 7.515625 41.375 12.890625 
Q 45.40625 18.265625 45.40625 27.984375 
M 54.390625 6.78125 
Q 54.390625 -7.171875 48.1875 -13.984375 
Q 42 -20.796875 29.203125 -20.796875 
Q 24.46875 -20.796875 20.265625 -20.09375 
Q 16.0625 -19.390625 12.109375 -17.921875 
L 12.109375 -9.1875 
Q 16.0625 -11.328125 19.921875 -12.34375 
Q 23.78125 -13.375 27.78125 -13.375 
Q 36.625 -13.375 41.015625 -8.765625 
Q 45.40625 -4.15625 45.40625 5.171875 
L 45.40625 9.625 
Q 42.625 4.78125 38.28125 2.390625 
Q 33.9375 0 27.875 0 
Q 17.828125 0 11.671875 7.65625 
Q 5.515625 15.328125 5.515625 27.984375 
Q 5.515625 40.671875 11.671875 48.328125 
Q 17.828125 56 27.875 56 
Q 33.9375 56 38.28125 53.609375 
Q 42.625 51.21875 45.40625 46.390625 
L 45.40625 54.6875 
L 54.390625 54.6875 
z
" id="BitstreamVeraSans-Roman-67"/>
      <path d="M 34.28125 27.484375 
Q 23.390625 27.484375 19.1875 25 
Q 14.984375 22.515625 14.984375 16.5 
Q 14.984375 11.71875 18.140625 8.90625 
Q 21.296875 6.109375 26.703125 6.109375 
Q 34.1875 6.109375 38.703125 11.40625 
Q 43.21875 16.703125 43.21875 25.484375 
L 43.21875 27.484375 
z
M 52.203125 31.203125 
L 52.203125 0 
L 43.21875 0 
L 43.21875 8.296875 
Q 40.140625 3.328125 35.546875 0.953125 
Q 30.953125 -1.421875 24.3125 -1.421875 
Q 15.921875 -1.421875 10.953125 3.296875 
Q 6 8.015625 6 15.921875 
Q 6 25.140625 12.171875 29.828125 
Q 18.359375 34.515625 30.609375 34.515625 
L 43.21875 34.515625 
L 43.21875 35.40625 
Q 43.21875 41.609375 39.140625 45 
Q 35.0625 48.390625 27.6875 48.390625 
Q 23 48.390625 18.546875 47.265625 
Q 14.109375 46.140625 10.015625 43.890625 
L 10.015625 52.203125 
Q 14.9375 54.109375 19.578125 55.046875 
Q 24.21875 56 28.609375 56 
Q 40.484375 56 46.34375 49.84375 
Q 52.203125 43.703125 52.203125 31.203125 
" id="BitstreamVeraSans-Roman-61"/>
     </defs>
     <g transform="translate(16.318125 240.208625)rotate(-90.0)scale(0.12 -0.12)">
      <use xlink:href="#BitstreamVeraSans-Roman-61"/>
      <use x="61.279296875" xlink:href="#BitstreamVeraSans-Roman-76"/>
      <use x="120.458984375" xlink:href="#BitstreamVeraSans-Roman-65"/>
      <use x="181.982421875" xlink:href="#BitstreamVeraSans-Roman-72"/>
      <use x="223.095703125" xlink:href="#BitstreamVeraSans-Roman-61"/>
      <use x="284.375" xlink:href="#BitstreamVeraSans-Roman-67"/>
      <use x="347.8515625" xlink:href="#BitstreamVeraSans-Roman-65"/>
      <use x="409.375" xlink:href="#BitstreamVeraSans-Roman-20"/>
      <use x="441.162109375" xlink:href="#BitstreamVeraSans-Roman-6d"/>
      <use x="538.57421875" xlink:href="#BitstreamVeraSans-Roman-61"/>
      <use x="599.853515625" xlink:href="#BitstreamVeraSans-Roman-78"/>
      <use x="659.033203125" xlink:href="#BitstreamVeraSans-Roman-51"/>
     </g>
    </g>
   </g>
   <g id="text_22">
    <!-- Average maxQ per episode, joint 2 -->
    <defs>
     <path d="M 54.890625 33.015625 
L 54.890625 0 
L 45.90625 0 
L 45.90625 32.71875 
Q 45.90625 40.484375 42.875 44.328125 
Q 39.84375 48.1875 33.796875 48.1875 
Q 26.515625 48.1875 22.3125 43.546875 
Q 18.109375 38.921875 18.109375 30.90625 
L 18.109375 0 
L 9.078125 0 
L 9.078125 54.6875 
L 18.109375 54.6875 
L 18.109375 46.1875 
Q 21.34375 51.125 25.703125 53.5625 
Q 30.078125 56 35.796875 56 
Q 45.21875 56 50.046875 50.171875 
Q 54.890625 44.34375 54.890625 33.015625 
" id="BitstreamVeraSans-Roman-6e"/>
     <path d="M 11.71875 12.40625 
L 22.015625 12.40625 
L 22.015625 4 
L 14.015625 -11.625 
L 7.71875 -11.625 
L 11.71875 4 
z
" id="BitstreamVeraSans-Roman-2c"/>
     <path d="M 9.421875 54.6875 
L 18.40625 54.6875 
L 18.40625 -0.984375 
Q 18.40625 -11.421875 14.421875 -16.109375 
Q 10.453125 -20.796875 1.609375 -20.796875 
L -1.8125 -20.796875 
L -1.8125 -13.1875 
L 0.59375 -13.1875 
Q 5.71875 -13.1875 7.5625 -10.8125 
Q 9.421875 -8.453125 9.421875 -0.984375 
z
M 9.421875 75.984375 
L 18.40625 75.984375 
L 18.40625 64.59375 
L 9.421875 64.59375 
z
" id="BitstreamVeraSans-Roman-6a"/>
     <path d="M 18.3125 70.21875 
L 18.3125 54.6875 
L 36.8125 54.6875 
L 36.8125 47.703125 
L 18.3125 47.703125 
L 18.3125 18.015625 
Q 18.3125 11.328125 20.140625 9.421875 
Q 21.96875 7.515625 27.59375 7.515625 
L 36.8125 7.515625 
L 36.8125 0 
L 27.59375 0 
Q 17.1875 0 13.234375 3.875 
Q 9.28125 7.765625 9.28125 18.015625 
L 9.28125 47.703125 
L 2.6875 47.703125 
L 2.6875 54.6875 
L 9.28125 54.6875 
L 9.28125 70.21875 
z
" id="BitstreamVeraSans-Roman-74"/>
     <path d="M 34.1875 63.1875 
L 20.796875 26.90625 
L 47.609375 26.90625 
z
M 28.609375 72.90625 
L 39.796875 72.90625 
L 67.578125 0 
L 57.328125 0 
L 50.6875 18.703125 
L 17.828125 18.703125 
L 11.1875 0 
L 0.78125 0 
z
" id="BitstreamVeraSans-Roman-41"/>
    </defs>
    <g transform="translate(144.53625 18.14175)scale(0.144 -0.144)">
     <use xlink:href="#BitstreamVeraSans-Roman-41"/>
     <use x="68.330078125" xlink:href="#BitstreamVeraSans-Roman-76"/>
     <use x="127.509765625" xlink:href="#BitstreamVeraSans-Roman-65"/>
     <use x="189.033203125" xlink:href="#BitstreamVeraSans-Roman-72"/>
     <use x="230.146484375" xlink:href="#BitstreamVeraSans-Roman-61"/>
     <use x="291.42578125" xlink:href="#BitstreamVeraSans-Roman-67"/>
     <use x="354.90234375" xlink:href="#BitstreamVeraSans-Roman-65"/>
     <use x="416.42578125" xlink:href="#BitstreamVeraSans-Roman-20"/>
     <use x="448.212890625" xlink:href="#BitstreamVeraSans-Roman-6d"/>
     <use x="545.625" xlink:href="#BitstreamVeraSans-Roman-61"/>
     <use x="606.904296875" xlink:href="#BitstreamVeraSans-Roman-78"/>
     <use x="666.083984375" xlink:href="#BitstreamVeraSans-Roman-51"/>
     <use x="744.794921875" xlink:href="#BitstreamVeraSans-Roman-20"/>
     <use x="776.58203125" xlink:href="#BitstreamVeraSans-Roman-70"/>
     <use x="840.05859375" xlink:href="#BitstreamVeraSans-Roman-65"/>
     <use x="901.58203125" xlink:href="#BitstreamVeraSans-Roman-72"/>
     <use x="942.6953125" xlink:href="#BitstreamVeraSans-Roman-20"/>
     <use x="974.482421875" xlink:href="#BitstreamVeraSans-Roman-65"/>
     <use x="1036.005859375" xlink:href="#BitstreamVeraSans-Roman-70"/>
     <use x="1099.482421875" xlink:href="#BitstreamVeraSans-Roman-69"/>
     <use x="1127.265625" xlink:href="#BitstreamVeraSans-Roman-73"/>
     <use x="1179.365234375" xlink:href="#BitstreamVeraSans-Roman-6f"/>
     <use x="1240.546875" xlink:href="#BitstreamVeraSans-Roman-64"/>
     <use x="1304.0234375" xlink:href="#BitstreamVeraSans-Roman-65"/>
     <use x="1365.546875" xlink:href="#BitstreamVeraSans-Roman-2c"/>
     <use x="1397.333984375" xlink:href="#BitstreamVeraSans-Roman-20"/>
     <use x="1429.12109375" xlink:href="#BitstreamVeraSans-Roman-6a"/>
     <use x="1456.904296875" xlink:href="#BitstreamVeraSans-Roman-6f"/>
     <use x="1518.0859375" xlink:href="#BitstreamVeraSans-Roman-69"/>
     <use x="1545.869140625" xlink:href="#BitstreamVeraSans-Roman-6e"/>
     <use x="1609.248046875" xlink:href="#BitstreamVeraSans-Roman-74"/>
     <use x="1648.45703125" xlink:href="#BitstreamVeraSans-Roman-20"/>
     <use x="1680.244140625" xlink:href="#BitstreamVeraSans-Roman-32"/>
    </g>
   </g>
  </g>
 </g>
 <defs>
  <clipPath id="pa474547b2c">
   <rect height="345.6" width="446.4" x="46.8975" y="23.14175"/>
  </clipPath>
 </defs>
</svg>
