<?xml version="1.0" encoding="utf-8" standalone="no"?>
<!DOCTYPE svg PUBLIC "-//W3C//DTD SVG 1.1//EN"
  "http://www.w3.org/Graphics/SVG/1.1/DTD/svg11.dtd">
<!-- Created with matplotlib (http://matplotlib.org/) -->
<svg height="408pt" version="1.1" viewBox="0 0 513 408" width="513pt" xmlns="http://www.w3.org/2000/svg" xmlns:xlink="http://www.w3.org/1999/xlink">
 <defs>
  <style type="text/css">
*{stroke-linecap:butt;stroke-linejoin:round;stroke-miterlimit:100000;}
  </style>
 </defs>
 <g id="figure_1">
  <g id="patch_1">
   <path d="M 0 408.16925 
L 513.856875 408.16925 
L 513.856875 0 
L 0 0 
z
" style="fill:#ffffff;"/>
  </g>
  <g id="axes_1">
   <g id="patch_2">
    <path d="M 46.8975 368.74175 
L 493.2975 368.74175 
L 493.2975 23.14175 
L 46.8975 23.14175 
z
" style="fill:#ffffff;"/>
   </g>
   <g id="PathCollection_1">
    <defs>
     <path d="M 0 2.236068 
C 0.593012 2.236068 1.161816 2.000462 1.581139 1.581139 
C 2.000462 1.161816 2.236068 0.593012 2.236068 0 
C 2.236068 -0.593012 2.000462 -1.161816 1.581139 -1.581139 
C 1.161816 -2.000462 0.593012 -2.236068 0 -2.236068 
C -0.593012 -2.236068 -1.161816 -2.000462 -1.581139 -1.581139 
C -2.000462 -1.161816 -2.236068 -0.593012 -2.236068 0 
C -2.236068 0.593012 -2.000462 1.161816 -1.581139 1.581139 
C -1.161816 2.000462 -0.593012 2.236068 0 2.236068 
z
" id="m2d8447fc32" style="stroke:#000000;"/>
    </defs>
    <g clip-path="url(#p7521d1e884)">
     <use style="fill:#0000ff;stroke:#000000;" x="466.687436114" xlink:href="#m2d8447fc32" y="226.06859239"/>
     <use style="fill:#0000ff;stroke:#000000;" x="110.668994714" xlink:href="#m2d8447fc32" y="224.458192871"/>
     <use style="fill:#0000ff;stroke:#000000;" x="115.723408076" xlink:href="#m2d8447fc32" y="206.037887347"/>
     <use style="fill:#0000ff;stroke:#000000;" x="133.529498921" xlink:href="#m2d8447fc32" y="170.772715751"/>
     <use style="fill:#0000ff;stroke:#000000;" x="151.40053823" xlink:href="#m2d8447fc32" y="153.121296247"/>
     <use style="fill:#0000ff;stroke:#000000;" x="169.320893846" xlink:href="#m2d8447fc32" y="145.043990862"/>
     <use style="fill:#0000ff;stroke:#000000;" x="187.297244524" xlink:href="#m2d8447fc32" y="141.052422433"/>
     <use style="fill:#0000ff;stroke:#000000;" x="205.320152894" xlink:href="#m2d8447fc32" y="118.747429757"/>
     <use style="fill:#0000ff;stroke:#000000;" x="223.432062922" xlink:href="#m2d8447fc32" y="102.394594238"/>
     <use style="fill:#0000ff;stroke:#000000;" x="241.572962615" xlink:href="#m2d8447fc32" y="98.3637104492"/>
     <use style="fill:#0000ff;stroke:#000000;" x="259.741206482" xlink:href="#m2d8447fc32" y="102.249339286"/>
     <use style="fill:#0000ff;stroke:#000000;" x="277.915354755" xlink:href="#m2d8447fc32" y="59.1877199358"/>
     <use style="fill:#0000ff;stroke:#000000;" x="296.160936659" xlink:href="#m2d8447fc32" y="44.9054148996"/>
     <use style="fill:#0000ff;stroke:#000000;" x="314.415907536" xlink:href="#m2d8447fc32" y="72.3837910156"/>
     <use style="fill:#0000ff;stroke:#000000;" x="332.686074999" xlink:href="#m2d8447fc32" y="95.8296353934"/>
     <use style="fill:#0000ff;stroke:#000000;" x="341.39081466" xlink:href="#m2d8447fc32" y="85.2034234096"/>
     <use style="fill:#0000ff;stroke:#000000;" x="334.158498298" xlink:href="#m2d8447fc32" y="87.6134314314"/>
     <use style="fill:#0000ff;stroke:#000000;" x="342.933219688" xlink:href="#m2d8447fc32" y="86.7998153599"/>
     <use style="fill:#0000ff;stroke:#000000;" x="325.722263911" xlink:href="#m2d8447fc32" y="83.3624287109"/>
     <use style="fill:#0000ff;stroke:#000000;" x="318.529245725" xlink:href="#m2d8447fc32" y="93.8035995396"/>
     <use style="fill:#0000ff;stroke:#000000;" x="336.826321791" xlink:href="#m2d8447fc32" y="80.4114225028"/>
     <use style="fill:#0000ff;stroke:#000000;" x="345.728036302" xlink:href="#m2d8447fc32" y="72.4796074916"/>
     <use style="fill:#0000ff;stroke:#000000;" x="328.570800939" xlink:href="#m2d8447fc32" y="98.4974297573"/>
     <use style="fill:#0000ff;stroke:#000000;" x="311.351811299" xlink:href="#m2d8447fc32" y="116.181572824"/>
     <use style="fill:#0000ff;stroke:#000000;" x="304.117075098" xlink:href="#m2d8447fc32" y="96.5337805525"/>
     <use style="fill:#0000ff;stroke:#000000;" x="322.466032501" xlink:href="#m2d8447fc32" y="84.6661919643"/>
     <use style="fill:#0000ff;stroke:#000000;" x="340.812279684" xlink:href="#m2d8447fc32" y="71.3825441546"/>
     <use style="fill:#0000ff;stroke:#000000;" x="349.740612418" xlink:href="#m2d8447fc32" y="65.1883738839"/>
     <use style="fill:#0000ff;stroke:#000000;" x="332.557726767" xlink:href="#m2d8447fc32" y="93.093804269"/>
     <use style="fill:#0000ff;stroke:#000000;" x="315.312409285" xlink:href="#m2d8447fc32" y="89.5631907785"/>
     <use style="fill:#0000ff;stroke:#000000;" x="308.064315576" xlink:href="#m2d8447fc32" y="98.4915442243"/>
     <use style="fill:#0000ff;stroke:#000000;" x="326.362940339" xlink:href="#m2d8447fc32" y="71.3163907645"/>
     <use style="fill:#0000ff;stroke:#000000;" x="335.275205345" xlink:href="#m2d8447fc32" y="70.183307966"/>
     <use style="fill:#0000ff;stroke:#000000;" x="318.101708668" xlink:href="#m2d8447fc32" y="128.99273005"/>
     <use style="fill:#0000ff;stroke:#000000;" x="300.861037275" xlink:href="#m2d8447fc32" y="136.682531948"/>
     <use style="fill:#0000ff;stroke:#000000;" x="293.611201282" xlink:href="#m2d8447fc32" y="104.121409598"/>
     <use style="fill:#0000ff;stroke:#000000;" x="311.943994164" xlink:href="#m2d8447fc32" y="96.1990114397"/>
     <use style="fill:#0000ff;stroke:#000000;" x="320.796731145" xlink:href="#m2d8447fc32" y="100.773012207"/>
     <use style="fill:#0000ff;stroke:#000000;" x="303.568062151" xlink:href="#m2d8447fc32" y="117.612934431"/>
     <use style="fill:#0000ff;stroke:#000000;" x="296.319581268" xlink:href="#m2d8447fc32" y="101.183586984"/>
     <use style="fill:#0000ff;stroke:#000000;" x="314.657697794" xlink:href="#m2d8447fc32" y="90.864128976"/>
     <use style="fill:#0000ff;stroke:#000000;" x="323.530955005" xlink:href="#m2d8447fc32" y="119.041235561"/>
     <use style="fill:#0000ff;stroke:#000000;" x="306.302189217" xlink:href="#m2d8447fc32" y="125.481185686"/>
     <use style="fill:#0000ff;stroke:#000000;" x="299.067743397" xlink:href="#m2d8447fc32" y="98.7982982003"/>
     <use style="fill:#0000ff;stroke:#000000;" x="317.410989981" xlink:href="#m2d8447fc32" y="85.988788923"/>
     <use style="fill:#0000ff;stroke:#000000;" x="326.29731432" xlink:href="#m2d8447fc32" y="112.327490444"/>
     <use style="fill:#0000ff;stroke:#000000;" x="309.074356144" xlink:href="#m2d8447fc32" y="120.597605887"/>
     <use style="fill:#0000ff;stroke:#000000;" x="301.847750601" xlink:href="#m2d8447fc32" y="96.919636091"/>
     <use style="fill:#0000ff;stroke:#000000;" x="315.245428156" xlink:href="#m2d8447fc32" y="90.7082800642"/>
     <use style="fill:#0000ff;stroke:#000000;" x="310.864165455" xlink:href="#m2d8447fc32" y="129.118915876"/>
     <use style="fill:#0000ff;stroke:#000000;" x="293.614492263" xlink:href="#m2d8447fc32" y="136.379309291"/>
     <use style="fill:#0000ff;stroke:#000000;" x="286.351976316" xlink:href="#m2d8447fc32" y="106.870188895"/>
     <use style="fill:#0000ff;stroke:#000000;" x="304.674993051" xlink:href="#m2d8447fc32" y="101.784146763"/>
     <use style="fill:#0000ff;stroke:#000000;" x="313.476429457" xlink:href="#m2d8447fc32" y="124.158588728"/>
     <use style="fill:#0000ff;stroke:#000000;" x="296.240694534" xlink:href="#m2d8447fc32" y="188.682745571"/>
     <use style="fill:#0000ff;stroke:#000000;" x="288.977017066" xlink:href="#m2d8447fc32" y="178.111975307"/>
     <use style="fill:#0000ff;stroke:#000000;" x="297.746511604" xlink:href="#m2d8447fc32" y="194.286008336"/>
     <use style="fill:#0000ff;stroke:#000000;" x="280.515906739" xlink:href="#m2d8447fc32" y="209.598046212"/>
     <use style="fill:#0000ff;stroke:#000000;" x="273.271152407" xlink:href="#m2d8447fc32" y="177.675151053"/>
     <use style="fill:#0000ff;stroke:#000000;" x="291.572245405" xlink:href="#m2d8447fc32" y="140.441268694"/>
     <use style="fill:#0000ff;stroke:#000000;" x="300.365744741" xlink:href="#m2d8447fc32" y="144.199063756"/>
     <use style="fill:#0000ff;stroke:#000000;" x="283.148787765" xlink:href="#m2d8447fc32" y="167.287067732"/>
     <use style="fill:#0000ff;stroke:#000000;" x="275.931377608" xlink:href="#m2d8447fc32" y="164.635282017"/>
     <use style="fill:#0000ff;stroke:#000000;" x="294.235616396" xlink:href="#m2d8447fc32" y="136.889231864"/>
     <use style="fill:#0000ff;stroke:#000000;" x="303.027760622" xlink:href="#m2d8447fc32" y="123.642545201"/>
     <use style="fill:#0000ff;stroke:#000000;" x="285.813029897" xlink:href="#m2d8447fc32" y="131.25042048"/>
     <use style="fill:#0000ff;stroke:#000000;" x="278.529170976" xlink:href="#m2d8447fc32" y="131.218167759"/>
     <use style="fill:#0000ff;stroke:#000000;" x="296.815067389" xlink:href="#m2d8447fc32" y="106.953998884"/>
     <use style="fill:#0000ff;stroke:#000000;" x="315.16508952" xlink:href="#m2d8447fc32" y="92.2460521066"/>
     <use style="fill:#0000ff;stroke:#000000;" x="324.064674573" xlink:href="#m2d8447fc32" y="106.79061649"/>
     <use style="fill:#0000ff;stroke:#000000;" x="306.856912983" xlink:href="#m2d8447fc32" y="142.064027832"/>
     <use style="fill:#0000ff;stroke:#000000;" x="289.639956007" xlink:href="#m2d8447fc32" y="144.518295061"/>
     <use style="fill:#0000ff;stroke:#000000;" x="282.405945758" xlink:href="#m2d8447fc32" y="129.719711077"/>
     <use style="fill:#0000ff;stroke:#000000;" x="300.739561385" xlink:href="#m2d8447fc32" y="117.88625858"/>
     <use style="fill:#0000ff;stroke:#000000;" x="309.5483541" xlink:href="#m2d8447fc32" y="133.612637974"/>
     <use style="fill:#0000ff;stroke:#000000;" x="292.323556847" xlink:href="#m2d8447fc32" y="141.694180943"/>
     <use style="fill:#0000ff;stroke:#000000;" x="285.098306413" xlink:href="#m2d8447fc32" y="145.303660575"/>
     <use style="fill:#0000ff;stroke:#000000;" x="303.430034566" xlink:href="#m2d8447fc32" y="123.987672852"/>
     <use style="fill:#0000ff;stroke:#000000;" x="312.266510232" xlink:href="#m2d8447fc32" y="107.442498117"/>
     <use style="fill:#0000ff;stroke:#000000;" x="295.071718976" xlink:href="#m2d8447fc32" y="140.266115234"/>
     <use style="fill:#0000ff;stroke:#000000;" x="277.813479556" xlink:href="#m2d8447fc32" y="145.776622001"/>
     <use style="fill:#0000ff;stroke:#000000;" x="270.542203795" xlink:href="#m2d8447fc32" y="144.625411761"/>
     <use style="fill:#0000ff;stroke:#000000;" x="288.829310127" xlink:href="#m2d8447fc32" y="141.217688198"/>
     <use style="fill:#0000ff;stroke:#000000;" x="297.625713269" xlink:href="#m2d8447fc32" y="135.967086565"/>
     <use style="fill:#0000ff;stroke:#000000;" x="280.411756892" xlink:href="#m2d8447fc32" y="140.72824728"/>
     <use style="fill:#0000ff;stroke:#000000;" x="273.15112842" xlink:href="#m2d8447fc32" y="132.618218331"/>
     <use style="fill:#0000ff;stroke:#000000;" x="291.433733853" xlink:href="#m2d8447fc32" y="109.078205427"/>
     <use style="fill:#0000ff;stroke:#000000;" x="309.74261873" xlink:href="#m2d8447fc32" y="97.0397009626"/>
     <use style="fill:#0000ff;stroke:#000000;" x="318.583643693" xlink:href="#m2d8447fc32" y="82.5895405273"/>
     <use style="fill:#0000ff;stroke:#000000;" x="301.380528193" xlink:href="#m2d8447fc32" y="118.411012695"/>
     <use style="fill:#0000ff;stroke:#000000;" x="284.145906396" xlink:href="#m2d8447fc32" y="134.94535805"/>
     <use style="fill:#0000ff;stroke:#000000;" x="276.892150265" xlink:href="#m2d8447fc32" y="139.59681243"/>
     <use style="fill:#0000ff;stroke:#000000;" x="295.210908084" xlink:href="#m2d8447fc32" y="140.219030971"/>
     <use style="fill:#0000ff;stroke:#000000;" x="303.989404422" xlink:href="#m2d8447fc32" y="145.552265485"/>
     <use style="fill:#0000ff;stroke:#000000;" x="286.779029406" xlink:href="#m2d8447fc32" y="158.678651855"/>
     <use style="fill:#0000ff;stroke:#000000;" x="279.572072951" xlink:href="#m2d8447fc32" y="154.461314383"/>
     <use style="fill:#0000ff;stroke:#000000;" x="297.871859236" xlink:href="#m2d8447fc32" y="124.440623465"/>
     <use style="fill:#0000ff;stroke:#000000;" x="306.68800826" xlink:href="#m2d8447fc32" y="129.628603027"/>
     <use style="fill:#0000ff;stroke:#000000;" x="289.472793567" xlink:href="#m2d8447fc32" y="156.856961705"/>
     <use style="fill:#0000ff;stroke:#000000;" x="272.229605542" xlink:href="#m2d8447fc32" y="180.05208238"/>
     <use style="fill:#0000ff;stroke:#000000;" x="264.955425975" xlink:href="#m2d8447fc32" y="172.537316232"/>
     <use style="fill:#0000ff;stroke:#000000;" x="278.281089138" xlink:href="#m2d8447fc32" y="170.321413086"/>
     <use style="fill:#0000ff;stroke:#000000;" x="283.884999415" xlink:href="#m2d8447fc32" y="162.565928641"/>
     <use style="fill:#0000ff;stroke:#000000;" x="292.658849662" xlink:href="#m2d8447fc32" y="160.58509368"/>
     <use style="fill:#0000ff;stroke:#000000;" x="275.435601106" xlink:href="#m2d8447fc32" y="176.772781145"/>
     <use style="fill:#0000ff;stroke:#000000;" x="263.213577863" xlink:href="#m2d8447fc32" y="160.916096052"/>
     <use style="fill:#0000ff;stroke:#000000;" x="268.773156699" xlink:href="#m2d8447fc32" y="160.009959403"/>
     <use style="fill:#0000ff;stroke:#000000;" x="287.08528416" xlink:href="#m2d8447fc32" y="160.404054688"/>
     <use style="fill:#0000ff;stroke:#000000;" x="295.866297129" xlink:href="#m2d8447fc32" y="133.091415179"/>
     <use style="fill:#0000ff;stroke:#000000;" x="278.653744259" xlink:href="#m2d8447fc32" y="125.786056292"/>
     <use style="fill:#0000ff;stroke:#000000;" x="271.387259778" xlink:href="#m2d8447fc32" y="134.284530413"/>
     <use style="fill:#0000ff;stroke:#000000;" x="289.639084865" xlink:href="#m2d8447fc32" y="112.655196917"/>
     <use style="fill:#0000ff;stroke:#000000;" x="298.446328884" xlink:href="#m2d8447fc32" y="113.397009487"/>
     <use style="fill:#0000ff;stroke:#000000;" x="281.198785149" xlink:href="#m2d8447fc32" y="138.694207101"/>
     <use style="fill:#0000ff;stroke:#000000;" x="273.922718108" xlink:href="#m2d8447fc32" y="136.29149714"/>
     <use style="fill:#0000ff;stroke:#000000;" x="282.675757745" xlink:href="#m2d8447fc32" y="136.588127999"/>
     <use style="fill:#0000ff;stroke:#000000;" x="275.453314324" xlink:href="#m2d8447fc32" y="159.30510798"/>
     <use style="fill:#0000ff;stroke:#000000;" x="284.190383027" xlink:href="#m2d8447fc32" y="162.815004395"/>
     <use style="fill:#0000ff;stroke:#000000;" x="266.951599108" xlink:href="#m2d8447fc32" y="173.720072928"/>
     <use style="fill:#0000ff;stroke:#000000;" x="259.706554395" xlink:href="#m2d8447fc32" y="169.879527274"/>
     <use style="fill:#0000ff;stroke:#000000;" x="277.988046702" xlink:href="#m2d8447fc32" y="156.487585658"/>
     <use style="fill:#0000ff;stroke:#000000;" x="286.732181334" xlink:href="#m2d8447fc32" y="159.169976144"/>
     <use style="fill:#0000ff;stroke:#000000;" x="269.501044104" xlink:href="#m2d8447fc32" y="192.234076137"/>
     <use style="fill:#0000ff;stroke:#000000;" x="262.238770142" xlink:href="#m2d8447fc32" y="194.999923479"/>
     <use style="fill:#0000ff;stroke:#000000;" x="280.543202517" xlink:href="#m2d8447fc32" y="168.985397112"/>
     <use style="fill:#0000ff;stroke:#000000;" x="289.313471404" xlink:href="#m2d8447fc32" y="159.895780064"/>
     <use style="fill:#0000ff;stroke:#000000;" x="272.088335374" xlink:href="#m2d8447fc32" y="173.064777693"/>
     <use style="fill:#0000ff;stroke:#000000;" x="264.799201205" xlink:href="#m2d8447fc32" y="156.248162179"/>
     <use style="fill:#0000ff;stroke:#000000;" x="283.106295402" xlink:href="#m2d8447fc32" y="147.75722154"/>
     <use style="fill:#0000ff;stroke:#000000;" x="291.884694946" xlink:href="#m2d8447fc32" y="137.114294643"/>
     <use style="fill:#0000ff;stroke:#000000;" x="274.641168143" xlink:href="#m2d8447fc32" y="151.143050921"/>
     <use style="fill:#0000ff;stroke:#000000;" x="267.366214228" xlink:href="#m2d8447fc32" y="155.049161412"/>
     <use style="fill:#0000ff;stroke:#000000;" x="285.677518944" xlink:href="#m2d8447fc32" y="143.993305525"/>
     <use style="fill:#0000ff;stroke:#000000;" x="294.482343124" xlink:href="#m2d8447fc32" y="132.08875579"/>
     <use style="fill:#0000ff;stroke:#000000;" x="277.243994776" xlink:href="#m2d8447fc32" y="148.229712123"/>
     <use style="fill:#0000ff;stroke:#000000;" x="269.978091056" xlink:href="#m2d8447fc32" y="154.119953474"/>
     <use style="fill:#0000ff;stroke:#000000;" x="288.294332243" xlink:href="#m2d8447fc32" y="141.051480748"/>
     <use style="fill:#0000ff;stroke:#000000;" x="297.139519328" xlink:href="#m2d8447fc32" y="127.72710505"/>
     <use style="fill:#0000ff;stroke:#000000;" x="279.925030587" xlink:href="#m2d8447fc32" y="131.512208984"/>
     <use style="fill:#0000ff;stroke:#000000;" x="272.632508644" xlink:href="#m2d8447fc32" y="133.567437081"/>
     <use style="fill:#0000ff;stroke:#000000;" x="290.91850185" xlink:href="#m2d8447fc32" y="114.740323521"/>
     <use style="fill:#0000ff;stroke:#000000;" x="299.80047048" xlink:href="#m2d8447fc32" y="114.058778809"/>
     <use style="fill:#0000ff;stroke:#000000;" x="287.641653416" xlink:href="#m2d8447fc32" y="141.260299456"/>
     <use style="fill:#0000ff;stroke:#000000;" x="293.21415419" xlink:href="#m2d8447fc32" y="166.309363002"/>
     <use style="fill:#0000ff;stroke:#000000;" x="302.084991562" xlink:href="#m2d8447fc32" y="162.20455692"/>
     <use style="fill:#0000ff;stroke:#000000;" x="284.881634078" xlink:href="#m2d8447fc32" y="165.348137765"/>
     <use style="fill:#0000ff;stroke:#000000;" x="267.657030413" xlink:href="#m2d8447fc32" y="191.142545201"/>
     <use style="fill:#0000ff;stroke:#000000;" x="260.397660256" xlink:href="#m2d8447fc32" y="217.96892198"/>
     <use style="fill:#0000ff;stroke:#000000;" x="269.11449911" xlink:href="#m2d8447fc32" y="232.376706578"/>
     <use style="fill:#0000ff;stroke:#000000;" x="256.932548391" xlink:href="#m2d8447fc32" y="248.258464042"/>
     <use style="fill:#0000ff;stroke:#000000;" x="252.447281033" xlink:href="#m2d8447fc32" y="248.925412633"/>
     <use style="fill:#0000ff;stroke:#000000;" x="245.191589031" xlink:href="#m2d8447fc32" y="256.446535156"/>
     <use style="fill:#0000ff;stroke:#000000;" x="263.435622239" xlink:href="#m2d8447fc32" y="235.188461077"/>
     <use style="fill:#0000ff;stroke:#000000;" x="272.161511288" xlink:href="#m2d8447fc32" y="256.35601566"/>
     <use style="fill:#0000ff;stroke:#000000;" x="254.89485083" xlink:href="#m2d8447fc32" y="259.65603397"/>
     <use style="fill:#0000ff;stroke:#000000;" x="247.634125565" xlink:href="#m2d8447fc32" y="277.698488281"/>
     <use style="fill:#0000ff;stroke:#000000;" x="256.287274271" xlink:href="#m2d8447fc32" y="299.218468576"/>
     <use style="fill:#0000ff;stroke:#000000;" x="239.020226638" xlink:href="#m2d8447fc32" y="319.098857108"/>
     <use style="fill:#0000ff;stroke:#000000;" x="231.7171542" xlink:href="#m2d8447fc32" y="317.453850656"/>
     <use style="fill:#0000ff;stroke:#000000;" x="249.949475389" xlink:href="#m2d8447fc32" y="329.68893192"/>
     <use style="fill:#0000ff;stroke:#000000;" x="258.564826219" xlink:href="#m2d8447fc32" y="328.984786761"/>
     <use style="fill:#0000ff;stroke:#000000;" x="241.281226892" xlink:href="#m2d8447fc32" y="318.547735805"/>
     <use style="fill:#0000ff;stroke:#000000;" x="233.983671685" xlink:href="#m2d8447fc32" y="317.108016741"/>
     <use style="fill:#0000ff;stroke:#000000;" x="252.218848283" xlink:href="#m2d8447fc32" y="328.152336984"/>
     <use style="fill:#0000ff;stroke:#000000;" x="260.837296506" xlink:href="#m2d8447fc32" y="327.780135882"/>
     <use style="fill:#0000ff;stroke:#000000;" x="243.555294272" xlink:href="#m2d8447fc32" y="318.035812151"/>
     <use style="fill:#0000ff;stroke:#000000;" x="236.278162502" xlink:href="#m2d8447fc32" y="291.05876573"/>
     <use style="fill:#0000ff;stroke:#000000;" x="254.524857532" xlink:href="#m2d8447fc32" y="248.203140032"/>
     <use style="fill:#0000ff;stroke:#000000;" x="263.229742383" xlink:href="#m2d8447fc32" y="218.990885917"/>
     <use style="fill:#0000ff;stroke:#000000;" x="245.975326308" xlink:href="#m2d8447fc32" y="207.542111851"/>
     <use style="fill:#0000ff;stroke:#000000;" x="238.666736638" xlink:href="#m2d8447fc32" y="189.481530099"/>
     <use style="fill:#0000ff;stroke:#000000;" x="256.896347608" xlink:href="#m2d8447fc32" y="173.18766762"/>
     <use style="fill:#0000ff;stroke:#000000;" x="277.7933465" xlink:href="#m2d8447fc32" y="176.814921561"/>
     <use style="fill:#0000ff;stroke:#000000;" x="286.584571188" xlink:href="#m2d8447fc32" y="172.613239607"/>
     <use style="fill:#0000ff;stroke:#000000;" x="279.364789589" xlink:href="#m2d8447fc32" y="155.578859375"/>
     <use style="fill:#0000ff;stroke:#000000;" x="288.21273529" xlink:href="#m2d8447fc32" y="143.729869071"/>
     <use style="fill:#0000ff;stroke:#000000;" x="270.973419007" xlink:href="#m2d8447fc32" y="172.094135603"/>
     <use style="fill:#0000ff;stroke:#000000;" x="253.722632689" xlink:href="#m2d8447fc32" y="188.476634208"/>
     <use style="fill:#0000ff;stroke:#000000;" x="246.433014552" xlink:href="#m2d8447fc32" y="206.024468331"/>
     <use style="fill:#0000ff;stroke:#000000;" x="264.70071378" xlink:href="#m2d8447fc32" y="213.497211775"/>
     <use style="fill:#0000ff;stroke:#000000;" x="276.06359758" xlink:href="#m2d8447fc32" y="197.67254398"/>
     <use style="fill:#0000ff;stroke:#000000;" x="258.834202635" xlink:href="#m2d8447fc32" y="196.091101283"/>
     <use style="fill:#0000ff;stroke:#000000;" x="251.560700622" xlink:href="#m2d8447fc32" y="201.586305664"/>
     <use style="fill:#0000ff;stroke:#000000;" x="269.813203264" xlink:href="#m2d8447fc32" y="173.505957241"/>
     <use style="fill:#0000ff;stroke:#000000;" x="278.590634873" xlink:href="#m2d8447fc32" y="180.200162388"/>
     <use style="fill:#0000ff;stroke:#000000;" x="261.382098934" xlink:href="#m2d8447fc32" y="221.72483367"/>
     <use style="fill:#0000ff;stroke:#000000;" x="244.104355616" xlink:href="#m2d8447fc32" y="243.847374826"/>
     <use style="fill:#0000ff;stroke:#000000;" x="236.801137987" xlink:href="#m2d8447fc32" y="253.224676723"/>
     <use style="fill:#0000ff;stroke:#000000;" x="255.058819084" xlink:href="#m2d8447fc32" y="254.388952846"/>
     <use style="fill:#0000ff;stroke:#000000;" x="263.765107442" xlink:href="#m2d8447fc32" y="251.194874128"/>
     <use style="fill:#0000ff;stroke:#000000;" x="246.509578241" xlink:href="#m2d8447fc32" y="240.661182722"/>
     <use style="fill:#0000ff;stroke:#000000;" x="239.220444072" xlink:href="#m2d8447fc32" y="217.910537493"/>
     <use style="fill:#0000ff;stroke:#000000;" x="257.481319355" xlink:href="#m2d8447fc32" y="180.784007254"/>
     <use style="fill:#0000ff;stroke:#000000;" x="275.774765663" xlink:href="#m2d8447fc32" y="152.604075614"/>
     <use style="fill:#0000ff;stroke:#000000;" x="284.613273994" xlink:href="#m2d8447fc32" y="153.174736886"/>
     <use style="fill:#0000ff;stroke:#000000;" x="267.395929844" xlink:href="#m2d8447fc32" y="196.486255964"/>
     <use style="fill:#0000ff;stroke:#000000;" x="250.15167709" xlink:href="#m2d8447fc32" y="235.80926709"/>
     <use style="fill:#0000ff;stroke:#000000;" x="242.865059553" xlink:href="#m2d8447fc32" y="250.949918248"/>
     <use style="fill:#0000ff;stroke:#000000;" x="261.133436335" xlink:href="#m2d8447fc32" y="250.05107966"/>
     <use style="fill:#0000ff;stroke:#000000;" x="269.856566769" xlink:href="#m2d8447fc32" y="246.751414481"/>
    </g>
   </g>
   <g id="patch_3">
    <path d="M 493.2975 368.74175 
L 493.2975 23.14175 
" style="fill:none;stroke:#000000;stroke-linecap:square;stroke-linejoin:miter;"/>
   </g>
   <g id="patch_4">
    <path d="M 46.8975 368.74175 
L 46.8975 23.14175 
" style="fill:none;stroke:#000000;stroke-linecap:square;stroke-linejoin:miter;"/>
   </g>
   <g id="patch_5">
    <path d="M 46.8975 368.74175 
L 493.2975 368.74175 
" style="fill:none;stroke:#000000;stroke-linecap:square;stroke-linejoin:miter;"/>
   </g>
   <g id="patch_6">
    <path d="M 46.8975 23.14175 
L 493.2975 23.14175 
" style="fill:none;stroke:#000000;stroke-linecap:square;stroke-linejoin:miter;"/>
   </g>
   <g id="matplotlib.axis_1">
    <g id="xtick_1">
     <g id="line2d_1">
      <defs>
       <path d="M 0 0 
L 0 -4 
" id="m9c299f467a" style="stroke:#000000;stroke-width:0.5;"/>
      </defs>
      <g>
       <use style="stroke:#000000;stroke-width:0.5;" x="46.8975" xlink:href="#m9c299f467a" y="368.74175"/>
      </g>
     </g>
     <g id="line2d_2">
      <defs>
       <path d="M 0 0 
L 0 4 
" id="m7d1d369c43" style="stroke:#000000;stroke-width:0.5;"/>
      </defs>
      <g>
       <use style="stroke:#000000;stroke-width:0.5;" x="46.8975" xlink:href="#m7d1d369c43" y="23.14175"/>
      </g>
     </g>
     <g id="text_1">
      <!-- 0.45 -->
      <defs>
       <path d="M 37.796875 64.3125 
L 12.890625 25.390625 
L 37.796875 25.390625 
z
M 35.203125 72.90625 
L 47.609375 72.90625 
L 47.609375 25.390625 
L 58.015625 25.390625 
L 58.015625 17.1875 
L 47.609375 17.1875 
L 47.609375 0 
L 37.796875 0 
L 37.796875 17.1875 
L 4.890625 17.1875 
L 4.890625 26.703125 
z
" id="BitstreamVeraSans-Roman-34"/>
       <path d="M 10.796875 72.90625 
L 49.515625 72.90625 
L 49.515625 64.59375 
L 19.828125 64.59375 
L 19.828125 46.734375 
Q 21.96875 47.46875 24.109375 47.828125 
Q 26.265625 48.1875 28.421875 48.1875 
Q 40.625 48.1875 47.75 41.5 
Q 54.890625 34.8125 54.890625 23.390625 
Q 54.890625 11.625 47.5625 5.09375 
Q 40.234375 -1.421875 26.90625 -1.421875 
Q 22.3125 -1.421875 17.546875 -0.640625 
Q 12.796875 0.140625 7.71875 1.703125 
L 7.71875 11.625 
Q 12.109375 9.234375 16.796875 8.0625 
Q 21.484375 6.890625 26.703125 6.890625 
Q 35.15625 6.890625 40.078125 11.328125 
Q 45.015625 15.765625 45.015625 23.390625 
Q 45.015625 31 40.078125 35.4375 
Q 35.15625 39.890625 26.703125 39.890625 
Q 22.75 39.890625 18.8125 39.015625 
Q 14.890625 38.140625 10.796875 36.28125 
z
" id="BitstreamVeraSans-Roman-35"/>
       <path d="M 10.6875 12.40625 
L 21 12.40625 
L 21 0 
L 10.6875 0 
z
" id="BitstreamVeraSans-Roman-2e"/>
       <path d="M 31.78125 66.40625 
Q 24.171875 66.40625 20.328125 58.90625 
Q 16.5 51.421875 16.5 36.375 
Q 16.5 21.390625 20.328125 13.890625 
Q 24.171875 6.390625 31.78125 6.390625 
Q 39.453125 6.390625 43.28125 13.890625 
Q 47.125 21.390625 47.125 36.375 
Q 47.125 51.421875 43.28125 58.90625 
Q 39.453125 66.40625 31.78125 66.40625 
M 31.78125 74.21875 
Q 44.046875 74.21875 50.515625 64.515625 
Q 56.984375 54.828125 56.984375 36.375 
Q 56.984375 17.96875 50.515625 8.265625 
Q 44.046875 -1.421875 31.78125 -1.421875 
Q 19.53125 -1.421875 13.0625 8.265625 
Q 6.59375 17.96875 6.59375 36.375 
Q 6.59375 54.828125 13.0625 64.515625 
Q 19.53125 74.21875 31.78125 74.21875 
" id="BitstreamVeraSans-Roman-30"/>
      </defs>
      <g transform="translate(33.538125 381.859875)scale(0.12 -0.12)">
       <use xlink:href="#BitstreamVeraSans-Roman-30"/>
       <use x="63.623046875" xlink:href="#BitstreamVeraSans-Roman-2e"/>
       <use x="95.41015625" xlink:href="#BitstreamVeraSans-Roman-34"/>
       <use x="159.033203125" xlink:href="#BitstreamVeraSans-Roman-35"/>
      </g>
     </g>
    </g>
    <g id="xtick_2">
     <g id="line2d_3">
      <g>
       <use style="stroke:#000000;stroke-width:0.5;" x="110.668928571" xlink:href="#m9c299f467a" y="368.74175"/>
      </g>
     </g>
     <g id="line2d_4">
      <g>
       <use style="stroke:#000000;stroke-width:0.5;" x="110.668928571" xlink:href="#m7d1d369c43" y="23.14175"/>
      </g>
     </g>
     <g id="text_2">
      <!-- 0.50 -->
      <g transform="translate(97.3095535714 381.859875)scale(0.12 -0.12)">
       <use xlink:href="#BitstreamVeraSans-Roman-30"/>
       <use x="63.623046875" xlink:href="#BitstreamVeraSans-Roman-2e"/>
       <use x="95.41015625" xlink:href="#BitstreamVeraSans-Roman-35"/>
       <use x="159.033203125" xlink:href="#BitstreamVeraSans-Roman-30"/>
      </g>
     </g>
    </g>
    <g id="xtick_3">
     <g id="line2d_5">
      <g>
       <use style="stroke:#000000;stroke-width:0.5;" x="174.440357143" xlink:href="#m9c299f467a" y="368.74175"/>
      </g>
     </g>
     <g id="line2d_6">
      <g>
       <use style="stroke:#000000;stroke-width:0.5;" x="174.440357143" xlink:href="#m7d1d369c43" y="23.14175"/>
      </g>
     </g>
     <g id="text_3">
      <!-- 0.55 -->
      <g transform="translate(161.080982143 381.859875)scale(0.12 -0.12)">
       <use xlink:href="#BitstreamVeraSans-Roman-30"/>
       <use x="63.623046875" xlink:href="#BitstreamVeraSans-Roman-2e"/>
       <use x="95.41015625" xlink:href="#BitstreamVeraSans-Roman-35"/>
       <use x="159.033203125" xlink:href="#BitstreamVeraSans-Roman-35"/>
      </g>
     </g>
    </g>
    <g id="xtick_4">
     <g id="line2d_7">
      <g>
       <use style="stroke:#000000;stroke-width:0.5;" x="238.211785714" xlink:href="#m9c299f467a" y="368.74175"/>
      </g>
     </g>
     <g id="line2d_8">
      <g>
       <use style="stroke:#000000;stroke-width:0.5;" x="238.211785714" xlink:href="#m7d1d369c43" y="23.14175"/>
      </g>
     </g>
     <g id="text_4">
      <!-- 0.60 -->
      <defs>
       <path d="M 33.015625 40.375 
Q 26.375 40.375 22.484375 35.828125 
Q 18.609375 31.296875 18.609375 23.390625 
Q 18.609375 15.53125 22.484375 10.953125 
Q 26.375 6.390625 33.015625 6.390625 
Q 39.65625 6.390625 43.53125 10.953125 
Q 47.40625 15.53125 47.40625 23.390625 
Q 47.40625 31.296875 43.53125 35.828125 
Q 39.65625 40.375 33.015625 40.375 
M 52.59375 71.296875 
L 52.59375 62.3125 
Q 48.875 64.0625 45.09375 64.984375 
Q 41.3125 65.921875 37.59375 65.921875 
Q 27.828125 65.921875 22.671875 59.328125 
Q 17.53125 52.734375 16.796875 39.40625 
Q 19.671875 43.65625 24.015625 45.921875 
Q 28.375 48.1875 33.59375 48.1875 
Q 44.578125 48.1875 50.953125 41.515625 
Q 57.328125 34.859375 57.328125 23.390625 
Q 57.328125 12.15625 50.6875 5.359375 
Q 44.046875 -1.421875 33.015625 -1.421875 
Q 20.359375 -1.421875 13.671875 8.265625 
Q 6.984375 17.96875 6.984375 36.375 
Q 6.984375 53.65625 15.1875 63.9375 
Q 23.390625 74.21875 37.203125 74.21875 
Q 40.921875 74.21875 44.703125 73.484375 
Q 48.484375 72.75 52.59375 71.296875 
" id="BitstreamVeraSans-Roman-36"/>
      </defs>
      <g transform="translate(224.852410714 381.859875)scale(0.12 -0.12)">
       <use xlink:href="#BitstreamVeraSans-Roman-30"/>
       <use x="63.623046875" xlink:href="#BitstreamVeraSans-Roman-2e"/>
       <use x="95.41015625" xlink:href="#BitstreamVeraSans-Roman-36"/>
       <use x="159.033203125" xlink:href="#BitstreamVeraSans-Roman-30"/>
      </g>
     </g>
    </g>
    <g id="xtick_5">
     <g id="line2d_9">
      <g>
       <use style="stroke:#000000;stroke-width:0.5;" x="301.983214286" xlink:href="#m9c299f467a" y="368.74175"/>
      </g>
     </g>
     <g id="line2d_10">
      <g>
       <use style="stroke:#000000;stroke-width:0.5;" x="301.983214286" xlink:href="#m7d1d369c43" y="23.14175"/>
      </g>
     </g>
     <g id="text_5">
      <!-- 0.65 -->
      <g transform="translate(288.623839286 381.859875)scale(0.12 -0.12)">
       <use xlink:href="#BitstreamVeraSans-Roman-30"/>
       <use x="63.623046875" xlink:href="#BitstreamVeraSans-Roman-2e"/>
       <use x="95.41015625" xlink:href="#BitstreamVeraSans-Roman-36"/>
       <use x="159.033203125" xlink:href="#BitstreamVeraSans-Roman-35"/>
      </g>
     </g>
    </g>
    <g id="xtick_6">
     <g id="line2d_11">
      <g>
       <use style="stroke:#000000;stroke-width:0.5;" x="365.754642857" xlink:href="#m9c299f467a" y="368.74175"/>
      </g>
     </g>
     <g id="line2d_12">
      <g>
       <use style="stroke:#000000;stroke-width:0.5;" x="365.754642857" xlink:href="#m7d1d369c43" y="23.14175"/>
      </g>
     </g>
     <g id="text_6">
      <!-- 0.70 -->
      <defs>
       <path d="M 8.203125 72.90625 
L 55.078125 72.90625 
L 55.078125 68.703125 
L 28.609375 0 
L 18.3125 0 
L 43.21875 64.59375 
L 8.203125 64.59375 
z
" id="BitstreamVeraSans-Roman-37"/>
      </defs>
      <g transform="translate(352.395267857 381.859875)scale(0.12 -0.12)">
       <use xlink:href="#BitstreamVeraSans-Roman-30"/>
       <use x="63.623046875" xlink:href="#BitstreamVeraSans-Roman-2e"/>
       <use x="95.41015625" xlink:href="#BitstreamVeraSans-Roman-37"/>
       <use x="159.033203125" xlink:href="#BitstreamVeraSans-Roman-30"/>
      </g>
     </g>
    </g>
    <g id="xtick_7">
     <g id="line2d_13">
      <g>
       <use style="stroke:#000000;stroke-width:0.5;" x="429.526071429" xlink:href="#m9c299f467a" y="368.74175"/>
      </g>
     </g>
     <g id="line2d_14">
      <g>
       <use style="stroke:#000000;stroke-width:0.5;" x="429.526071429" xlink:href="#m7d1d369c43" y="23.14175"/>
      </g>
     </g>
     <g id="text_7">
      <!-- 0.75 -->
      <g transform="translate(416.166696429 381.859875)scale(0.12 -0.12)">
       <use xlink:href="#BitstreamVeraSans-Roman-30"/>
       <use x="63.623046875" xlink:href="#BitstreamVeraSans-Roman-2e"/>
       <use x="95.41015625" xlink:href="#BitstreamVeraSans-Roman-37"/>
       <use x="159.033203125" xlink:href="#BitstreamVeraSans-Roman-35"/>
      </g>
     </g>
    </g>
    <g id="xtick_8">
     <g id="line2d_15">
      <g>
       <use style="stroke:#000000;stroke-width:0.5;" x="493.2975" xlink:href="#m9c299f467a" y="368.74175"/>
      </g>
     </g>
     <g id="line2d_16">
      <g>
       <use style="stroke:#000000;stroke-width:0.5;" x="493.2975" xlink:href="#m7d1d369c43" y="23.14175"/>
      </g>
     </g>
     <g id="text_8">
      <!-- 0.80 -->
      <defs>
       <path d="M 31.78125 34.625 
Q 24.75 34.625 20.71875 30.859375 
Q 16.703125 27.09375 16.703125 20.515625 
Q 16.703125 13.921875 20.71875 10.15625 
Q 24.75 6.390625 31.78125 6.390625 
Q 38.8125 6.390625 42.859375 10.171875 
Q 46.921875 13.96875 46.921875 20.515625 
Q 46.921875 27.09375 42.890625 30.859375 
Q 38.875 34.625 31.78125 34.625 
M 21.921875 38.8125 
Q 15.578125 40.375 12.03125 44.71875 
Q 8.5 49.078125 8.5 55.328125 
Q 8.5 64.0625 14.71875 69.140625 
Q 20.953125 74.21875 31.78125 74.21875 
Q 42.671875 74.21875 48.875 69.140625 
Q 55.078125 64.0625 55.078125 55.328125 
Q 55.078125 49.078125 51.53125 44.71875 
Q 48 40.375 41.703125 38.8125 
Q 48.828125 37.15625 52.796875 32.3125 
Q 56.78125 27.484375 56.78125 20.515625 
Q 56.78125 9.90625 50.3125 4.234375 
Q 43.84375 -1.421875 31.78125 -1.421875 
Q 19.734375 -1.421875 13.25 4.234375 
Q 6.78125 9.90625 6.78125 20.515625 
Q 6.78125 27.484375 10.78125 32.3125 
Q 14.796875 37.15625 21.921875 38.8125 
M 18.3125 54.390625 
Q 18.3125 48.734375 21.84375 45.5625 
Q 25.390625 42.390625 31.78125 42.390625 
Q 38.140625 42.390625 41.71875 45.5625 
Q 45.3125 48.734375 45.3125 54.390625 
Q 45.3125 60.0625 41.71875 63.234375 
Q 38.140625 66.40625 31.78125 66.40625 
Q 25.390625 66.40625 21.84375 63.234375 
Q 18.3125 60.0625 18.3125 54.390625 
" id="BitstreamVeraSans-Roman-38"/>
      </defs>
      <g transform="translate(479.938125 381.859875)scale(0.12 -0.12)">
       <use xlink:href="#BitstreamVeraSans-Roman-30"/>
       <use x="63.623046875" xlink:href="#BitstreamVeraSans-Roman-2e"/>
       <use x="95.41015625" xlink:href="#BitstreamVeraSans-Roman-38"/>
       <use x="159.033203125" xlink:href="#BitstreamVeraSans-Roman-30"/>
      </g>
     </g>
    </g>
    <g id="text_9">
     <!-- normalized angle -->
     <defs>
      <path d="M 45.40625 46.390625 
L 45.40625 75.984375 
L 54.390625 75.984375 
L 54.390625 0 
L 45.40625 0 
L 45.40625 8.203125 
Q 42.578125 3.328125 38.25 0.953125 
Q 33.9375 -1.421875 27.875 -1.421875 
Q 17.96875 -1.421875 11.734375 6.484375 
Q 5.515625 14.40625 5.515625 27.296875 
Q 5.515625 40.1875 11.734375 48.09375 
Q 17.96875 56 27.875 56 
Q 33.9375 56 38.25 53.625 
Q 42.578125 51.265625 45.40625 46.390625 
M 14.796875 27.296875 
Q 14.796875 17.390625 18.875 11.75 
Q 22.953125 6.109375 30.078125 6.109375 
Q 37.203125 6.109375 41.296875 11.75 
Q 45.40625 17.390625 45.40625 27.296875 
Q 45.40625 37.203125 41.296875 42.84375 
Q 37.203125 48.484375 30.078125 48.484375 
Q 22.953125 48.484375 18.875 42.84375 
Q 14.796875 37.203125 14.796875 27.296875 
" id="BitstreamVeraSans-Roman-64"/>
      <path id="BitstreamVeraSans-Roman-20"/>
      <path d="M 52 44.1875 
Q 55.375 50.25 60.0625 53.125 
Q 64.75 56 71.09375 56 
Q 79.640625 56 84.28125 50.015625 
Q 88.921875 44.046875 88.921875 33.015625 
L 88.921875 0 
L 79.890625 0 
L 79.890625 32.71875 
Q 79.890625 40.578125 77.09375 44.375 
Q 74.3125 48.1875 68.609375 48.1875 
Q 61.625 48.1875 57.5625 43.546875 
Q 53.515625 38.921875 53.515625 30.90625 
L 53.515625 0 
L 44.484375 0 
L 44.484375 32.71875 
Q 44.484375 40.625 41.703125 44.40625 
Q 38.921875 48.1875 33.109375 48.1875 
Q 26.21875 48.1875 22.15625 43.53125 
Q 18.109375 38.875 18.109375 30.90625 
L 18.109375 0 
L 9.078125 0 
L 9.078125 54.6875 
L 18.109375 54.6875 
L 18.109375 46.1875 
Q 21.1875 51.21875 25.484375 53.609375 
Q 29.78125 56 35.6875 56 
Q 41.65625 56 45.828125 52.96875 
Q 50 49.953125 52 44.1875 
" id="BitstreamVeraSans-Roman-6d"/>
      <path d="M 56.203125 29.59375 
L 56.203125 25.203125 
L 14.890625 25.203125 
Q 15.484375 15.921875 20.484375 11.0625 
Q 25.484375 6.203125 34.421875 6.203125 
Q 39.59375 6.203125 44.453125 7.46875 
Q 49.3125 8.734375 54.109375 11.28125 
L 54.109375 2.78125 
Q 49.265625 0.734375 44.1875 -0.34375 
Q 39.109375 -1.421875 33.890625 -1.421875 
Q 20.796875 -1.421875 13.15625 6.1875 
Q 5.515625 13.8125 5.515625 26.8125 
Q 5.515625 40.234375 12.765625 48.109375 
Q 20.015625 56 32.328125 56 
Q 43.359375 56 49.78125 48.890625 
Q 56.203125 41.796875 56.203125 29.59375 
M 47.21875 32.234375 
Q 47.125 39.59375 43.09375 43.984375 
Q 39.0625 48.390625 32.421875 48.390625 
Q 24.90625 48.390625 20.390625 44.140625 
Q 15.875 39.890625 15.1875 32.171875 
z
" id="BitstreamVeraSans-Roman-65"/>
      <path d="M 5.515625 54.6875 
L 48.1875 54.6875 
L 48.1875 46.484375 
L 14.40625 7.171875 
L 48.1875 7.171875 
L 48.1875 0 
L 4.296875 0 
L 4.296875 8.203125 
L 38.09375 47.515625 
L 5.515625 47.515625 
z
" id="BitstreamVeraSans-Roman-7a"/>
      <path d="M 45.40625 27.984375 
Q 45.40625 37.75 41.375 43.109375 
Q 37.359375 48.484375 30.078125 48.484375 
Q 22.859375 48.484375 18.828125 43.109375 
Q 14.796875 37.75 14.796875 27.984375 
Q 14.796875 18.265625 18.828125 12.890625 
Q 22.859375 7.515625 30.078125 7.515625 
Q 37.359375 7.515625 41.375 12.890625 
Q 45.40625 18.265625 45.40625 27.984375 
M 54.390625 6.78125 
Q 54.390625 -7.171875 48.1875 -13.984375 
Q 42 -20.796875 29.203125 -20.796875 
Q 24.46875 -20.796875 20.265625 -20.09375 
Q 16.0625 -19.390625 12.109375 -17.921875 
L 12.109375 -9.1875 
Q 16.0625 -11.328125 19.921875 -12.34375 
Q 23.78125 -13.375 27.78125 -13.375 
Q 36.625 -13.375 41.015625 -8.765625 
Q 45.40625 -4.15625 45.40625 5.171875 
L 45.40625 9.625 
Q 42.625 4.78125 38.28125 2.390625 
Q 33.9375 0 27.875 0 
Q 17.828125 0 11.671875 7.65625 
Q 5.515625 15.328125 5.515625 27.984375 
Q 5.515625 40.671875 11.671875 48.328125 
Q 17.828125 56 27.875 56 
Q 33.9375 56 38.28125 53.609375 
Q 42.625 51.21875 45.40625 46.390625 
L 45.40625 54.6875 
L 54.390625 54.6875 
z
" id="BitstreamVeraSans-Roman-67"/>
      <path d="M 34.28125 27.484375 
Q 23.390625 27.484375 19.1875 25 
Q 14.984375 22.515625 14.984375 16.5 
Q 14.984375 11.71875 18.140625 8.90625 
Q 21.296875 6.109375 26.703125 6.109375 
Q 34.1875 6.109375 38.703125 11.40625 
Q 43.21875 16.703125 43.21875 25.484375 
L 43.21875 27.484375 
z
M 52.203125 31.203125 
L 52.203125 0 
L 43.21875 0 
L 43.21875 8.296875 
Q 40.140625 3.328125 35.546875 0.953125 
Q 30.953125 -1.421875 24.3125 -1.421875 
Q 15.921875 -1.421875 10.953125 3.296875 
Q 6 8.015625 6 15.921875 
Q 6 25.140625 12.171875 29.828125 
Q 18.359375 34.515625 30.609375 34.515625 
L 43.21875 34.515625 
L 43.21875 35.40625 
Q 43.21875 41.609375 39.140625 45 
Q 35.0625 48.390625 27.6875 48.390625 
Q 23 48.390625 18.546875 47.265625 
Q 14.109375 46.140625 10.015625 43.890625 
L 10.015625 52.203125 
Q 14.9375 54.109375 19.578125 55.046875 
Q 24.21875 56 28.609375 56 
Q 40.484375 56 46.34375 49.84375 
Q 52.203125 43.703125 52.203125 31.203125 
" id="BitstreamVeraSans-Roman-61"/>
      <path d="M 54.890625 33.015625 
L 54.890625 0 
L 45.90625 0 
L 45.90625 32.71875 
Q 45.90625 40.484375 42.875 44.328125 
Q 39.84375 48.1875 33.796875 48.1875 
Q 26.515625 48.1875 22.3125 43.546875 
Q 18.109375 38.921875 18.109375 30.90625 
L 18.109375 0 
L 9.078125 0 
L 9.078125 54.6875 
L 18.109375 54.6875 
L 18.109375 46.1875 
Q 21.34375 51.125 25.703125 53.5625 
Q 30.078125 56 35.796875 56 
Q 45.21875 56 50.046875 50.171875 
Q 54.890625 44.34375 54.890625 33.015625 
" id="BitstreamVeraSans-Roman-6e"/>
      <path d="M 30.609375 48.390625 
Q 23.390625 48.390625 19.1875 42.75 
Q 14.984375 37.109375 14.984375 27.296875 
Q 14.984375 17.484375 19.15625 11.84375 
Q 23.34375 6.203125 30.609375 6.203125 
Q 37.796875 6.203125 41.984375 11.859375 
Q 46.1875 17.53125 46.1875 27.296875 
Q 46.1875 37.015625 41.984375 42.703125 
Q 37.796875 48.390625 30.609375 48.390625 
M 30.609375 56 
Q 42.328125 56 49.015625 48.375 
Q 55.71875 40.765625 55.71875 27.296875 
Q 55.71875 13.875 49.015625 6.21875 
Q 42.328125 -1.421875 30.609375 -1.421875 
Q 18.84375 -1.421875 12.171875 6.21875 
Q 5.515625 13.875 5.515625 27.296875 
Q 5.515625 40.765625 12.171875 48.375 
Q 18.84375 56 30.609375 56 
" id="BitstreamVeraSans-Roman-6f"/>
      <path d="M 9.421875 75.984375 
L 18.40625 75.984375 
L 18.40625 0 
L 9.421875 0 
z
" id="BitstreamVeraSans-Roman-6c"/>
      <path d="M 9.421875 54.6875 
L 18.40625 54.6875 
L 18.40625 0 
L 9.421875 0 
z
M 9.421875 75.984375 
L 18.40625 75.984375 
L 18.40625 64.59375 
L 9.421875 64.59375 
z
" id="BitstreamVeraSans-Roman-69"/>
      <path d="M 41.109375 46.296875 
Q 39.59375 47.171875 37.8125 47.578125 
Q 36.03125 48 33.890625 48 
Q 26.265625 48 22.1875 43.046875 
Q 18.109375 38.09375 18.109375 28.8125 
L 18.109375 0 
L 9.078125 0 
L 9.078125 54.6875 
L 18.109375 54.6875 
L 18.109375 46.1875 
Q 20.953125 51.171875 25.484375 53.578125 
Q 30.03125 56 36.53125 56 
Q 37.453125 56 38.578125 55.875 
Q 39.703125 55.765625 41.0625 55.515625 
z
" id="BitstreamVeraSans-Roman-72"/>
     </defs>
     <g transform="translate(218.0990625 398.473625)scale(0.12 -0.12)">
      <use xlink:href="#BitstreamVeraSans-Roman-6e"/>
      <use x="63.37890625" xlink:href="#BitstreamVeraSans-Roman-6f"/>
      <use x="124.560546875" xlink:href="#BitstreamVeraSans-Roman-72"/>
      <use x="165.658203125" xlink:href="#BitstreamVeraSans-Roman-6d"/>
      <use x="263.0703125" xlink:href="#BitstreamVeraSans-Roman-61"/>
      <use x="324.349609375" xlink:href="#BitstreamVeraSans-Roman-6c"/>
      <use x="352.1328125" xlink:href="#BitstreamVeraSans-Roman-69"/>
      <use x="379.916015625" xlink:href="#BitstreamVeraSans-Roman-7a"/>
      <use x="432.40625" xlink:href="#BitstreamVeraSans-Roman-65"/>
      <use x="493.9296875" xlink:href="#BitstreamVeraSans-Roman-64"/>
      <use x="557.40625" xlink:href="#BitstreamVeraSans-Roman-20"/>
      <use x="589.193359375" xlink:href="#BitstreamVeraSans-Roman-61"/>
      <use x="650.47265625" xlink:href="#BitstreamVeraSans-Roman-6e"/>
      <use x="713.8515625" xlink:href="#BitstreamVeraSans-Roman-67"/>
      <use x="777.328125" xlink:href="#BitstreamVeraSans-Roman-6c"/>
      <use x="805.111328125" xlink:href="#BitstreamVeraSans-Roman-65"/>
     </g>
    </g>
   </g>
   <g id="matplotlib.axis_2">
    <g id="ytick_1">
     <g id="line2d_17">
      <defs>
       <path d="M 0 0 
L 4 0 
" id="m69a16ed07e" style="stroke:#000000;stroke-width:0.5;"/>
      </defs>
      <g>
       <use style="stroke:#000000;stroke-width:0.5;" x="46.8975" xlink:href="#m69a16ed07e" y="368.74175"/>
      </g>
     </g>
     <g id="line2d_18">
      <defs>
       <path d="M 0 0 
L -4 0 
" id="m0a9c00e9dc" style="stroke:#000000;stroke-width:0.5;"/>
      </defs>
      <g>
       <use style="stroke:#000000;stroke-width:0.5;" x="493.2975" xlink:href="#m0a9c00e9dc" y="368.74175"/>
      </g>
     </g>
     <g id="text_10">
      <!-- 7.2 -->
      <defs>
       <path d="M 19.1875 8.296875 
L 53.609375 8.296875 
L 53.609375 0 
L 7.328125 0 
L 7.328125 8.296875 
Q 12.9375 14.109375 22.625 23.890625 
Q 32.328125 33.6875 34.8125 36.53125 
Q 39.546875 41.84375 41.421875 45.53125 
Q 43.3125 49.21875 43.3125 52.78125 
Q 43.3125 58.59375 39.234375 62.25 
Q 35.15625 65.921875 28.609375 65.921875 
Q 23.96875 65.921875 18.8125 64.3125 
Q 13.671875 62.703125 7.8125 59.421875 
L 7.8125 69.390625 
Q 13.765625 71.78125 18.9375 73 
Q 24.125 74.21875 28.421875 74.21875 
Q 39.75 74.21875 46.484375 68.546875 
Q 53.21875 62.890625 53.21875 53.421875 
Q 53.21875 48.921875 51.53125 44.890625 
Q 49.859375 40.875 45.40625 35.40625 
Q 44.1875 33.984375 37.640625 27.21875 
Q 31.109375 20.453125 19.1875 8.296875 
" id="BitstreamVeraSans-Roman-32"/>
      </defs>
      <g transform="translate(23.81375 372.053)scale(0.12 -0.12)">
       <use xlink:href="#BitstreamVeraSans-Roman-37"/>
       <use x="63.623046875" xlink:href="#BitstreamVeraSans-Roman-2e"/>
       <use x="95.41015625" xlink:href="#BitstreamVeraSans-Roman-32"/>
      </g>
     </g>
    </g>
    <g id="ytick_2">
     <g id="line2d_19">
      <g>
       <use style="stroke:#000000;stroke-width:0.5;" x="46.8975" xlink:href="#m69a16ed07e" y="319.370321429"/>
      </g>
     </g>
     <g id="line2d_20">
      <g>
       <use style="stroke:#000000;stroke-width:0.5;" x="493.2975" xlink:href="#m0a9c00e9dc" y="319.370321429"/>
      </g>
     </g>
     <g id="text_11">
      <!-- 7.4 -->
      <g transform="translate(23.81375 322.681571429)scale(0.12 -0.12)">
       <use xlink:href="#BitstreamVeraSans-Roman-37"/>
       <use x="63.623046875" xlink:href="#BitstreamVeraSans-Roman-2e"/>
       <use x="95.41015625" xlink:href="#BitstreamVeraSans-Roman-34"/>
      </g>
     </g>
    </g>
    <g id="ytick_3">
     <g id="line2d_21">
      <g>
       <use style="stroke:#000000;stroke-width:0.5;" x="46.8975" xlink:href="#m69a16ed07e" y="269.998892857"/>
      </g>
     </g>
     <g id="line2d_22">
      <g>
       <use style="stroke:#000000;stroke-width:0.5;" x="493.2975" xlink:href="#m0a9c00e9dc" y="269.998892857"/>
      </g>
     </g>
     <g id="text_12">
      <!-- 7.6 -->
      <g transform="translate(23.81375 273.310142857)scale(0.12 -0.12)">
       <use xlink:href="#BitstreamVeraSans-Roman-37"/>
       <use x="63.623046875" xlink:href="#BitstreamVeraSans-Roman-2e"/>
       <use x="95.41015625" xlink:href="#BitstreamVeraSans-Roman-36"/>
      </g>
     </g>
    </g>
    <g id="ytick_4">
     <g id="line2d_23">
      <g>
       <use style="stroke:#000000;stroke-width:0.5;" x="46.8975" xlink:href="#m69a16ed07e" y="220.627464286"/>
      </g>
     </g>
     <g id="line2d_24">
      <g>
       <use style="stroke:#000000;stroke-width:0.5;" x="493.2975" xlink:href="#m0a9c00e9dc" y="220.627464286"/>
      </g>
     </g>
     <g id="text_13">
      <!-- 7.8 -->
      <g transform="translate(23.81375 223.938714286)scale(0.12 -0.12)">
       <use xlink:href="#BitstreamVeraSans-Roman-37"/>
       <use x="63.623046875" xlink:href="#BitstreamVeraSans-Roman-2e"/>
       <use x="95.41015625" xlink:href="#BitstreamVeraSans-Roman-38"/>
      </g>
     </g>
    </g>
    <g id="ytick_5">
     <g id="line2d_25">
      <g>
       <use style="stroke:#000000;stroke-width:0.5;" x="46.8975" xlink:href="#m69a16ed07e" y="171.256035714"/>
      </g>
     </g>
     <g id="line2d_26">
      <g>
       <use style="stroke:#000000;stroke-width:0.5;" x="493.2975" xlink:href="#m0a9c00e9dc" y="171.256035714"/>
      </g>
     </g>
     <g id="text_14">
      <!-- 8.0 -->
      <g transform="translate(23.81375 174.567285714)scale(0.12 -0.12)">
       <use xlink:href="#BitstreamVeraSans-Roman-38"/>
       <use x="63.623046875" xlink:href="#BitstreamVeraSans-Roman-2e"/>
       <use x="95.41015625" xlink:href="#BitstreamVeraSans-Roman-30"/>
      </g>
     </g>
    </g>
    <g id="ytick_6">
     <g id="line2d_27">
      <g>
       <use style="stroke:#000000;stroke-width:0.5;" x="46.8975" xlink:href="#m69a16ed07e" y="121.884607143"/>
      </g>
     </g>
     <g id="line2d_28">
      <g>
       <use style="stroke:#000000;stroke-width:0.5;" x="493.2975" xlink:href="#m0a9c00e9dc" y="121.884607143"/>
      </g>
     </g>
     <g id="text_15">
      <!-- 8.2 -->
      <g transform="translate(23.81375 125.195857143)scale(0.12 -0.12)">
       <use xlink:href="#BitstreamVeraSans-Roman-38"/>
       <use x="63.623046875" xlink:href="#BitstreamVeraSans-Roman-2e"/>
       <use x="95.41015625" xlink:href="#BitstreamVeraSans-Roman-32"/>
      </g>
     </g>
    </g>
    <g id="ytick_7">
     <g id="line2d_29">
      <g>
       <use style="stroke:#000000;stroke-width:0.5;" x="46.8975" xlink:href="#m69a16ed07e" y="72.5131785714"/>
      </g>
     </g>
     <g id="line2d_30">
      <g>
       <use style="stroke:#000000;stroke-width:0.5;" x="493.2975" xlink:href="#m0a9c00e9dc" y="72.5131785714"/>
      </g>
     </g>
     <g id="text_16">
      <!-- 8.4 -->
      <g transform="translate(23.81375 75.8244285714)scale(0.12 -0.12)">
       <use xlink:href="#BitstreamVeraSans-Roman-38"/>
       <use x="63.623046875" xlink:href="#BitstreamVeraSans-Roman-2e"/>
       <use x="95.41015625" xlink:href="#BitstreamVeraSans-Roman-34"/>
      </g>
     </g>
    </g>
    <g id="ytick_8">
     <g id="line2d_31">
      <g>
       <use style="stroke:#000000;stroke-width:0.5;" x="46.8975" xlink:href="#m69a16ed07e" y="23.14175"/>
      </g>
     </g>
     <g id="line2d_32">
      <g>
       <use style="stroke:#000000;stroke-width:0.5;" x="493.2975" xlink:href="#m0a9c00e9dc" y="23.14175"/>
      </g>
     </g>
     <g id="text_17">
      <!-- 8.6 -->
      <g transform="translate(23.81375 26.453)scale(0.12 -0.12)">
       <use xlink:href="#BitstreamVeraSans-Roman-38"/>
       <use x="63.623046875" xlink:href="#BitstreamVeraSans-Roman-2e"/>
       <use x="95.41015625" xlink:href="#BitstreamVeraSans-Roman-36"/>
      </g>
     </g>
    </g>
    <g id="text_18">
     <!-- max Q-value -->
     <defs>
      <path d="M 2.984375 54.6875 
L 12.5 54.6875 
L 29.59375 8.796875 
L 46.6875 54.6875 
L 56.203125 54.6875 
L 35.6875 0 
L 23.484375 0 
z
" id="BitstreamVeraSans-Roman-76"/>
      <path d="M 4.890625 31.390625 
L 31.203125 31.390625 
L 31.203125 23.390625 
L 4.890625 23.390625 
z
" id="BitstreamVeraSans-Roman-2d"/>
      <path d="M 39.40625 66.21875 
Q 28.65625 66.21875 22.328125 58.203125 
Q 16.015625 50.203125 16.015625 36.375 
Q 16.015625 22.609375 22.328125 14.59375 
Q 28.65625 6.59375 39.40625 6.59375 
Q 50.140625 6.59375 56.421875 14.59375 
Q 62.703125 22.609375 62.703125 36.375 
Q 62.703125 50.203125 56.421875 58.203125 
Q 50.140625 66.21875 39.40625 66.21875 
M 53.21875 1.3125 
L 66.21875 -12.890625 
L 54.296875 -12.890625 
L 43.5 -1.21875 
Q 41.890625 -1.3125 41.03125 -1.359375 
Q 40.1875 -1.421875 39.40625 -1.421875 
Q 24.03125 -1.421875 14.8125 8.859375 
Q 5.609375 19.140625 5.609375 36.375 
Q 5.609375 53.65625 14.8125 63.9375 
Q 24.03125 74.21875 39.40625 74.21875 
Q 54.734375 74.21875 63.90625 63.9375 
Q 73.09375 53.65625 73.09375 36.375 
Q 73.09375 23.6875 67.984375 14.640625 
Q 62.890625 5.609375 53.21875 1.3125 
" id="BitstreamVeraSans-Roman-51"/>
      <path d="M 8.5 21.578125 
L 8.5 54.6875 
L 17.484375 54.6875 
L 17.484375 21.921875 
Q 17.484375 14.15625 20.5 10.265625 
Q 23.53125 6.390625 29.59375 6.390625 
Q 36.859375 6.390625 41.078125 11.03125 
Q 45.3125 15.671875 45.3125 23.6875 
L 45.3125 54.6875 
L 54.296875 54.6875 
L 54.296875 0 
L 45.3125 0 
L 45.3125 8.40625 
Q 42.046875 3.421875 37.71875 1 
Q 33.40625 -1.421875 27.6875 -1.421875 
Q 18.265625 -1.421875 13.375 4.4375 
Q 8.5 10.296875 8.5 21.578125 
" id="BitstreamVeraSans-Roman-75"/>
      <path d="M 54.890625 54.6875 
L 35.109375 28.078125 
L 55.90625 0 
L 45.3125 0 
L 29.390625 21.484375 
L 13.484375 0 
L 2.875 0 
L 24.125 28.609375 
L 4.6875 54.6875 
L 15.28125 54.6875 
L 29.78125 35.203125 
L 44.28125 54.6875 
z
" id="BitstreamVeraSans-Roman-78"/>
     </defs>
     <g transform="translate(16.318125 234.1983125)rotate(-90.0)scale(0.12 -0.12)">
      <use xlink:href="#BitstreamVeraSans-Roman-6d"/>
      <use x="97.412109375" xlink:href="#BitstreamVeraSans-Roman-61"/>
      <use x="158.69140625" xlink:href="#BitstreamVeraSans-Roman-78"/>
      <use x="217.87109375" xlink:href="#BitstreamVeraSans-Roman-20"/>
      <use x="249.658203125" xlink:href="#BitstreamVeraSans-Roman-51"/>
      <use x="328.400390625" xlink:href="#BitstreamVeraSans-Roman-2d"/>
      <use x="364.453125" xlink:href="#BitstreamVeraSans-Roman-76"/>
      <use x="423.6328125" xlink:href="#BitstreamVeraSans-Roman-61"/>
      <use x="484.912109375" xlink:href="#BitstreamVeraSans-Roman-6c"/>
      <use x="512.6953125" xlink:href="#BitstreamVeraSans-Roman-75"/>
      <use x="576.07421875" xlink:href="#BitstreamVeraSans-Roman-65"/>
     </g>
    </g>
   </g>
   <g id="text_19">
    <!-- Max Q-values for angles observed, joint2 -->
    <defs>
     <path d="M 9.8125 72.90625 
L 24.515625 72.90625 
L 43.109375 23.296875 
L 61.8125 72.90625 
L 76.515625 72.90625 
L 76.515625 0 
L 66.890625 0 
L 66.890625 64.015625 
L 48.09375 14.015625 
L 38.1875 14.015625 
L 19.390625 64.015625 
L 19.390625 0 
L 9.8125 0 
z
" id="BitstreamVeraSans-Roman-4d"/>
     <path d="M 48.6875 27.296875 
Q 48.6875 37.203125 44.609375 42.84375 
Q 40.53125 48.484375 33.40625 48.484375 
Q 26.265625 48.484375 22.1875 42.84375 
Q 18.109375 37.203125 18.109375 27.296875 
Q 18.109375 17.390625 22.1875 11.75 
Q 26.265625 6.109375 33.40625 6.109375 
Q 40.53125 6.109375 44.609375 11.75 
Q 48.6875 17.390625 48.6875 27.296875 
M 18.109375 46.390625 
Q 20.953125 51.265625 25.265625 53.625 
Q 29.59375 56 35.59375 56 
Q 45.5625 56 51.78125 48.09375 
Q 58.015625 40.1875 58.015625 27.296875 
Q 58.015625 14.40625 51.78125 6.484375 
Q 45.5625 -1.421875 35.59375 -1.421875 
Q 29.59375 -1.421875 25.265625 0.953125 
Q 20.953125 3.328125 18.109375 8.203125 
L 18.109375 0 
L 9.078125 0 
L 9.078125 75.984375 
L 18.109375 75.984375 
z
" id="BitstreamVeraSans-Roman-62"/>
     <path d="M 18.3125 70.21875 
L 18.3125 54.6875 
L 36.8125 54.6875 
L 36.8125 47.703125 
L 18.3125 47.703125 
L 18.3125 18.015625 
Q 18.3125 11.328125 20.140625 9.421875 
Q 21.96875 7.515625 27.59375 7.515625 
L 36.8125 7.515625 
L 36.8125 0 
L 27.59375 0 
Q 17.1875 0 13.234375 3.875 
Q 9.28125 7.765625 9.28125 18.015625 
L 9.28125 47.703125 
L 2.6875 47.703125 
L 2.6875 54.6875 
L 9.28125 54.6875 
L 9.28125 70.21875 
z
" id="BitstreamVeraSans-Roman-74"/>
     <path d="M 37.109375 75.984375 
L 37.109375 68.5 
L 28.515625 68.5 
Q 23.6875 68.5 21.796875 66.546875 
Q 19.921875 64.59375 19.921875 59.515625 
L 19.921875 54.6875 
L 34.71875 54.6875 
L 34.71875 47.703125 
L 19.921875 47.703125 
L 19.921875 0 
L 10.890625 0 
L 10.890625 47.703125 
L 2.296875 47.703125 
L 2.296875 54.6875 
L 10.890625 54.6875 
L 10.890625 58.5 
Q 10.890625 67.625 15.140625 71.796875 
Q 19.390625 75.984375 28.609375 75.984375 
z
" id="BitstreamVeraSans-Roman-66"/>
     <path d="M 11.71875 12.40625 
L 22.015625 12.40625 
L 22.015625 4 
L 14.015625 -11.625 
L 7.71875 -11.625 
L 11.71875 4 
z
" id="BitstreamVeraSans-Roman-2c"/>
     <path d="M 9.421875 54.6875 
L 18.40625 54.6875 
L 18.40625 -0.984375 
Q 18.40625 -11.421875 14.421875 -16.109375 
Q 10.453125 -20.796875 1.609375 -20.796875 
L -1.8125 -20.796875 
L -1.8125 -13.1875 
L 0.59375 -13.1875 
Q 5.71875 -13.1875 7.5625 -10.8125 
Q 9.421875 -8.453125 9.421875 -0.984375 
z
M 9.421875 75.984375 
L 18.40625 75.984375 
L 18.40625 64.59375 
L 9.421875 64.59375 
z
" id="BitstreamVeraSans-Roman-6a"/>
     <path d="M 44.28125 53.078125 
L 44.28125 44.578125 
Q 40.484375 46.53125 36.375 47.5 
Q 32.28125 48.484375 27.875 48.484375 
Q 21.1875 48.484375 17.84375 46.4375 
Q 14.5 44.390625 14.5 40.28125 
Q 14.5 37.15625 16.890625 35.375 
Q 19.28125 33.59375 26.515625 31.984375 
L 29.59375 31.296875 
Q 39.15625 29.25 43.1875 25.515625 
Q 47.21875 21.78125 47.21875 15.09375 
Q 47.21875 7.46875 41.1875 3.015625 
Q 35.15625 -1.421875 24.609375 -1.421875 
Q 20.21875 -1.421875 15.453125 -0.5625 
Q 10.6875 0.296875 5.421875 2 
L 5.421875 11.28125 
Q 10.40625 8.6875 15.234375 7.390625 
Q 20.0625 6.109375 24.8125 6.109375 
Q 31.15625 6.109375 34.5625 8.28125 
Q 37.984375 10.453125 37.984375 14.40625 
Q 37.984375 18.0625 35.515625 20.015625 
Q 33.0625 21.96875 24.703125 23.78125 
L 21.578125 24.515625 
Q 13.234375 26.265625 9.515625 29.90625 
Q 5.8125 33.546875 5.8125 39.890625 
Q 5.8125 47.609375 11.28125 51.796875 
Q 16.75 56 26.8125 56 
Q 31.78125 56 36.171875 55.265625 
Q 40.578125 54.546875 44.28125 53.078125 
" id="BitstreamVeraSans-Roman-73"/>
    </defs>
    <g transform="translate(122.41875 18.14175)scale(0.144 -0.144)">
     <use xlink:href="#BitstreamVeraSans-Roman-4d"/>
     <use x="86.279296875" xlink:href="#BitstreamVeraSans-Roman-61"/>
     <use x="147.55859375" xlink:href="#BitstreamVeraSans-Roman-78"/>
     <use x="206.73828125" xlink:href="#BitstreamVeraSans-Roman-20"/>
     <use x="238.525390625" xlink:href="#BitstreamVeraSans-Roman-51"/>
     <use x="317.267578125" xlink:href="#BitstreamVeraSans-Roman-2d"/>
     <use x="353.3203125" xlink:href="#BitstreamVeraSans-Roman-76"/>
     <use x="412.5" xlink:href="#BitstreamVeraSans-Roman-61"/>
     <use x="473.779296875" xlink:href="#BitstreamVeraSans-Roman-6c"/>
     <use x="501.5625" xlink:href="#BitstreamVeraSans-Roman-75"/>
     <use x="564.94140625" xlink:href="#BitstreamVeraSans-Roman-65"/>
     <use x="626.46484375" xlink:href="#BitstreamVeraSans-Roman-73"/>
     <use x="678.564453125" xlink:href="#BitstreamVeraSans-Roman-20"/>
     <use x="710.3515625" xlink:href="#BitstreamVeraSans-Roman-66"/>
     <use x="745.556640625" xlink:href="#BitstreamVeraSans-Roman-6f"/>
     <use x="806.73828125" xlink:href="#BitstreamVeraSans-Roman-72"/>
     <use x="847.8515625" xlink:href="#BitstreamVeraSans-Roman-20"/>
     <use x="879.638671875" xlink:href="#BitstreamVeraSans-Roman-61"/>
     <use x="940.91796875" xlink:href="#BitstreamVeraSans-Roman-6e"/>
     <use x="1004.296875" xlink:href="#BitstreamVeraSans-Roman-67"/>
     <use x="1067.7734375" xlink:href="#BitstreamVeraSans-Roman-6c"/>
     <use x="1095.556640625" xlink:href="#BitstreamVeraSans-Roman-65"/>
     <use x="1157.080078125" xlink:href="#BitstreamVeraSans-Roman-73"/>
     <use x="1209.1796875" xlink:href="#BitstreamVeraSans-Roman-20"/>
     <use x="1240.966796875" xlink:href="#BitstreamVeraSans-Roman-6f"/>
     <use x="1302.1484375" xlink:href="#BitstreamVeraSans-Roman-62"/>
     <use x="1365.625" xlink:href="#BitstreamVeraSans-Roman-73"/>
     <use x="1417.724609375" xlink:href="#BitstreamVeraSans-Roman-65"/>
     <use x="1479.248046875" xlink:href="#BitstreamVeraSans-Roman-72"/>
     <use x="1520.361328125" xlink:href="#BitstreamVeraSans-Roman-76"/>
     <use x="1579.541015625" xlink:href="#BitstreamVeraSans-Roman-65"/>
     <use x="1641.064453125" xlink:href="#BitstreamVeraSans-Roman-64"/>
     <use x="1704.541015625" xlink:href="#BitstreamVeraSans-Roman-2c"/>
     <use x="1736.328125" xlink:href="#BitstreamVeraSans-Roman-20"/>
     <use x="1768.115234375" xlink:href="#BitstreamVeraSans-Roman-6a"/>
     <use x="1795.8984375" xlink:href="#BitstreamVeraSans-Roman-6f"/>
     <use x="1857.080078125" xlink:href="#BitstreamVeraSans-Roman-69"/>
     <use x="1884.86328125" xlink:href="#BitstreamVeraSans-Roman-6e"/>
     <use x="1948.2421875" xlink:href="#BitstreamVeraSans-Roman-74"/>
     <use x="1987.451171875" xlink:href="#BitstreamVeraSans-Roman-32"/>
    </g>
   </g>
  </g>
 </g>
 <defs>
  <clipPath id="p7521d1e884">
   <rect height="345.6" width="446.4" x="46.8975" y="23.14175"/>
  </clipPath>
 </defs>
</svg>
