<?xml version="1.0" encoding="utf-8" standalone="no"?>
<!DOCTYPE svg PUBLIC "-//W3C//DTD SVG 1.1//EN"
  "http://www.w3.org/Graphics/SVG/1.1/DTD/svg11.dtd">
<!-- Created with matplotlib (http://matplotlib.org/) -->
<svg height="325pt" version="1.1" viewBox="0 0 411 325" width="411pt" xmlns="http://www.w3.org/2000/svg" xmlns:xlink="http://www.w3.org/1999/xlink">
 <defs>
  <style type="text/css">
*{stroke-linecap:butt;stroke-linejoin:round;}
  </style>
 </defs>
 <g id="figure_1">
  <g id="patch_1">
   <path d="M 0 325.986375 
L 411.60125 325.986375 
L 411.60125 0 
L 0 0 
z
" style="fill:#ffffff;"/>
  </g>
  <g id="axes_1">
   <g id="patch_2">
    <path d="M 43.78125 288.430125 
L 400.90125 288.430125 
L 400.90125 22.318125 
L 43.78125 22.318125 
z
" style="fill:#ffffff;"/>
   </g>
   <g id="matplotlib.axis_1">
    <g id="xtick_1">
     <g id="line2d_1">
      <defs>
       <path d="M 0 0 
L 0 3.5 
" id="m199ce8932e" style="stroke:#000000;stroke-width:0.8;"/>
      </defs>
      <g>
       <use style="stroke:#000000;stroke-width:0.8;" x="60.013977" xlink:href="#m199ce8932e" y="288.430125"/>
      </g>
     </g>
     <g id="text_1">
      <!-- 0 -->
      <defs>
       <path d="M 31.78125 66.40625 
Q 24.171875 66.40625 20.328125 58.90625 
Q 16.5 51.421875 16.5 36.375 
Q 16.5 21.390625 20.328125 13.890625 
Q 24.171875 6.390625 31.78125 6.390625 
Q 39.453125 6.390625 43.28125 13.890625 
Q 47.125 21.390625 47.125 36.375 
Q 47.125 51.421875 43.28125 58.90625 
Q 39.453125 66.40625 31.78125 66.40625 
z
M 31.78125 74.21875 
Q 44.046875 74.21875 50.515625 64.515625 
Q 56.984375 54.828125 56.984375 36.375 
Q 56.984375 17.96875 50.515625 8.265625 
Q 44.046875 -1.421875 31.78125 -1.421875 
Q 19.53125 -1.421875 13.0625 8.265625 
Q 6.59375 17.96875 6.59375 36.375 
Q 6.59375 54.828125 13.0625 64.515625 
Q 19.53125 74.21875 31.78125 74.21875 
z
" id="DejaVuSans-30"/>
      </defs>
      <g transform="translate(56.832727 303.028562)scale(0.1 -0.1)">
       <use xlink:href="#DejaVuSans-30"/>
      </g>
     </g>
    </g>
    <g id="xtick_2">
     <g id="line2d_2">
      <g>
       <use style="stroke:#000000;stroke-width:0.8;" x="124.970869" xlink:href="#m199ce8932e" y="288.430125"/>
      </g>
     </g>
     <g id="text_2">
      <!-- 500 -->
      <defs>
       <path d="M 10.796875 72.90625 
L 49.515625 72.90625 
L 49.515625 64.59375 
L 19.828125 64.59375 
L 19.828125 46.734375 
Q 21.96875 47.46875 24.109375 47.828125 
Q 26.265625 48.1875 28.421875 48.1875 
Q 40.625 48.1875 47.75 41.5 
Q 54.890625 34.8125 54.890625 23.390625 
Q 54.890625 11.625 47.5625 5.09375 
Q 40.234375 -1.421875 26.90625 -1.421875 
Q 22.3125 -1.421875 17.546875 -0.640625 
Q 12.796875 0.140625 7.71875 1.703125 
L 7.71875 11.625 
Q 12.109375 9.234375 16.796875 8.0625 
Q 21.484375 6.890625 26.703125 6.890625 
Q 35.15625 6.890625 40.078125 11.328125 
Q 45.015625 15.765625 45.015625 23.390625 
Q 45.015625 31 40.078125 35.4375 
Q 35.15625 39.890625 26.703125 39.890625 
Q 22.75 39.890625 18.8125 39.015625 
Q 14.890625 38.140625 10.796875 36.28125 
z
" id="DejaVuSans-35"/>
      </defs>
      <g transform="translate(115.427119 303.028562)scale(0.1 -0.1)">
       <use xlink:href="#DejaVuSans-35"/>
       <use x="63.623047" xlink:href="#DejaVuSans-30"/>
       <use x="127.246094" xlink:href="#DejaVuSans-30"/>
      </g>
     </g>
    </g>
    <g id="xtick_3">
     <g id="line2d_3">
      <g>
       <use style="stroke:#000000;stroke-width:0.8;" x="189.927761" xlink:href="#m199ce8932e" y="288.430125"/>
      </g>
     </g>
     <g id="text_3">
      <!-- 1000 -->
      <defs>
       <path d="M 12.40625 8.296875 
L 28.515625 8.296875 
L 28.515625 63.921875 
L 10.984375 60.40625 
L 10.984375 69.390625 
L 28.421875 72.90625 
L 38.28125 72.90625 
L 38.28125 8.296875 
L 54.390625 8.296875 
L 54.390625 0 
L 12.40625 0 
z
" id="DejaVuSans-31"/>
      </defs>
      <g transform="translate(177.202761 303.028562)scale(0.1 -0.1)">
       <use xlink:href="#DejaVuSans-31"/>
       <use x="63.623047" xlink:href="#DejaVuSans-30"/>
       <use x="127.246094" xlink:href="#DejaVuSans-30"/>
       <use x="190.869141" xlink:href="#DejaVuSans-30"/>
      </g>
     </g>
    </g>
    <g id="xtick_4">
     <g id="line2d_4">
      <g>
       <use style="stroke:#000000;stroke-width:0.8;" x="254.884653" xlink:href="#m199ce8932e" y="288.430125"/>
      </g>
     </g>
     <g id="text_4">
      <!-- 1500 -->
      <g transform="translate(242.159653 303.028562)scale(0.1 -0.1)">
       <use xlink:href="#DejaVuSans-31"/>
       <use x="63.623047" xlink:href="#DejaVuSans-35"/>
       <use x="127.246094" xlink:href="#DejaVuSans-30"/>
       <use x="190.869141" xlink:href="#DejaVuSans-30"/>
      </g>
     </g>
    </g>
    <g id="xtick_5">
     <g id="line2d_5">
      <g>
       <use style="stroke:#000000;stroke-width:0.8;" x="319.841545" xlink:href="#m199ce8932e" y="288.430125"/>
      </g>
     </g>
     <g id="text_5">
      <!-- 2000 -->
      <defs>
       <path d="M 19.1875 8.296875 
L 53.609375 8.296875 
L 53.609375 0 
L 7.328125 0 
L 7.328125 8.296875 
Q 12.9375 14.109375 22.625 23.890625 
Q 32.328125 33.6875 34.8125 36.53125 
Q 39.546875 41.84375 41.421875 45.53125 
Q 43.3125 49.21875 43.3125 52.78125 
Q 43.3125 58.59375 39.234375 62.25 
Q 35.15625 65.921875 28.609375 65.921875 
Q 23.96875 65.921875 18.8125 64.3125 
Q 13.671875 62.703125 7.8125 59.421875 
L 7.8125 69.390625 
Q 13.765625 71.78125 18.9375 73 
Q 24.125 74.21875 28.421875 74.21875 
Q 39.75 74.21875 46.484375 68.546875 
Q 53.21875 62.890625 53.21875 53.421875 
Q 53.21875 48.921875 51.53125 44.890625 
Q 49.859375 40.875 45.40625 35.40625 
Q 44.1875 33.984375 37.640625 27.21875 
Q 31.109375 20.453125 19.1875 8.296875 
z
" id="DejaVuSans-32"/>
      </defs>
      <g transform="translate(307.116545 303.028562)scale(0.1 -0.1)">
       <use xlink:href="#DejaVuSans-32"/>
       <use x="63.623047" xlink:href="#DejaVuSans-30"/>
       <use x="127.246094" xlink:href="#DejaVuSans-30"/>
       <use x="190.869141" xlink:href="#DejaVuSans-30"/>
      </g>
     </g>
    </g>
    <g id="xtick_6">
     <g id="line2d_6">
      <g>
       <use style="stroke:#000000;stroke-width:0.8;" x="384.798437" xlink:href="#m199ce8932e" y="288.430125"/>
      </g>
     </g>
     <g id="text_6">
      <!-- 2500 -->
      <g transform="translate(372.073437 303.028562)scale(0.1 -0.1)">
       <use xlink:href="#DejaVuSans-32"/>
       <use x="63.623047" xlink:href="#DejaVuSans-35"/>
       <use x="127.246094" xlink:href="#DejaVuSans-30"/>
       <use x="190.869141" xlink:href="#DejaVuSans-30"/>
      </g>
     </g>
    </g>
    <g id="text_7">
     <!-- episode -->
     <defs>
      <path d="M 56.203125 29.59375 
L 56.203125 25.203125 
L 14.890625 25.203125 
Q 15.484375 15.921875 20.484375 11.0625 
Q 25.484375 6.203125 34.421875 6.203125 
Q 39.59375 6.203125 44.453125 7.46875 
Q 49.3125 8.734375 54.109375 11.28125 
L 54.109375 2.78125 
Q 49.265625 0.734375 44.1875 -0.34375 
Q 39.109375 -1.421875 33.890625 -1.421875 
Q 20.796875 -1.421875 13.15625 6.1875 
Q 5.515625 13.8125 5.515625 26.8125 
Q 5.515625 40.234375 12.765625 48.109375 
Q 20.015625 56 32.328125 56 
Q 43.359375 56 49.78125 48.890625 
Q 56.203125 41.796875 56.203125 29.59375 
z
M 47.21875 32.234375 
Q 47.125 39.59375 43.09375 43.984375 
Q 39.0625 48.390625 32.421875 48.390625 
Q 24.90625 48.390625 20.390625 44.140625 
Q 15.875 39.890625 15.1875 32.171875 
z
" id="DejaVuSans-65"/>
      <path d="M 18.109375 8.203125 
L 18.109375 -20.796875 
L 9.078125 -20.796875 
L 9.078125 54.6875 
L 18.109375 54.6875 
L 18.109375 46.390625 
Q 20.953125 51.265625 25.265625 53.625 
Q 29.59375 56 35.59375 56 
Q 45.5625 56 51.78125 48.09375 
Q 58.015625 40.1875 58.015625 27.296875 
Q 58.015625 14.40625 51.78125 6.484375 
Q 45.5625 -1.421875 35.59375 -1.421875 
Q 29.59375 -1.421875 25.265625 0.953125 
Q 20.953125 3.328125 18.109375 8.203125 
z
M 48.6875 27.296875 
Q 48.6875 37.203125 44.609375 42.84375 
Q 40.53125 48.484375 33.40625 48.484375 
Q 26.265625 48.484375 22.1875 42.84375 
Q 18.109375 37.203125 18.109375 27.296875 
Q 18.109375 17.390625 22.1875 11.75 
Q 26.265625 6.109375 33.40625 6.109375 
Q 40.53125 6.109375 44.609375 11.75 
Q 48.6875 17.390625 48.6875 27.296875 
z
" id="DejaVuSans-70"/>
      <path d="M 9.421875 54.6875 
L 18.40625 54.6875 
L 18.40625 0 
L 9.421875 0 
z
M 9.421875 75.984375 
L 18.40625 75.984375 
L 18.40625 64.59375 
L 9.421875 64.59375 
z
" id="DejaVuSans-69"/>
      <path d="M 44.28125 53.078125 
L 44.28125 44.578125 
Q 40.484375 46.53125 36.375 47.5 
Q 32.28125 48.484375 27.875 48.484375 
Q 21.1875 48.484375 17.84375 46.4375 
Q 14.5 44.390625 14.5 40.28125 
Q 14.5 37.15625 16.890625 35.375 
Q 19.28125 33.59375 26.515625 31.984375 
L 29.59375 31.296875 
Q 39.15625 29.25 43.1875 25.515625 
Q 47.21875 21.78125 47.21875 15.09375 
Q 47.21875 7.46875 41.1875 3.015625 
Q 35.15625 -1.421875 24.609375 -1.421875 
Q 20.21875 -1.421875 15.453125 -0.5625 
Q 10.6875 0.296875 5.421875 2 
L 5.421875 11.28125 
Q 10.40625 8.6875 15.234375 7.390625 
Q 20.0625 6.109375 24.8125 6.109375 
Q 31.15625 6.109375 34.5625 8.28125 
Q 37.984375 10.453125 37.984375 14.40625 
Q 37.984375 18.0625 35.515625 20.015625 
Q 33.0625 21.96875 24.703125 23.78125 
L 21.578125 24.515625 
Q 13.234375 26.265625 9.515625 29.90625 
Q 5.8125 33.546875 5.8125 39.890625 
Q 5.8125 47.609375 11.28125 51.796875 
Q 16.75 56 26.8125 56 
Q 31.78125 56 36.171875 55.265625 
Q 40.578125 54.546875 44.28125 53.078125 
z
" id="DejaVuSans-73"/>
      <path d="M 30.609375 48.390625 
Q 23.390625 48.390625 19.1875 42.75 
Q 14.984375 37.109375 14.984375 27.296875 
Q 14.984375 17.484375 19.15625 11.84375 
Q 23.34375 6.203125 30.609375 6.203125 
Q 37.796875 6.203125 41.984375 11.859375 
Q 46.1875 17.53125 46.1875 27.296875 
Q 46.1875 37.015625 41.984375 42.703125 
Q 37.796875 48.390625 30.609375 48.390625 
z
M 30.609375 56 
Q 42.328125 56 49.015625 48.375 
Q 55.71875 40.765625 55.71875 27.296875 
Q 55.71875 13.875 49.015625 6.21875 
Q 42.328125 -1.421875 30.609375 -1.421875 
Q 18.84375 -1.421875 12.171875 6.21875 
Q 5.515625 13.875 5.515625 27.296875 
Q 5.515625 40.765625 12.171875 48.375 
Q 18.84375 56 30.609375 56 
z
" id="DejaVuSans-6f"/>
      <path d="M 45.40625 46.390625 
L 45.40625 75.984375 
L 54.390625 75.984375 
L 54.390625 0 
L 45.40625 0 
L 45.40625 8.203125 
Q 42.578125 3.328125 38.25 0.953125 
Q 33.9375 -1.421875 27.875 -1.421875 
Q 17.96875 -1.421875 11.734375 6.484375 
Q 5.515625 14.40625 5.515625 27.296875 
Q 5.515625 40.1875 11.734375 48.09375 
Q 17.96875 56 27.875 56 
Q 33.9375 56 38.25 53.625 
Q 42.578125 51.265625 45.40625 46.390625 
z
M 14.796875 27.296875 
Q 14.796875 17.390625 18.875 11.75 
Q 22.953125 6.109375 30.078125 6.109375 
Q 37.203125 6.109375 41.296875 11.75 
Q 45.40625 17.390625 45.40625 27.296875 
Q 45.40625 37.203125 41.296875 42.84375 
Q 37.203125 48.484375 30.078125 48.484375 
Q 22.953125 48.484375 18.875 42.84375 
Q 14.796875 37.203125 14.796875 27.296875 
z
" id="DejaVuSans-64"/>
     </defs>
     <g transform="translate(202.786563 316.706687)scale(0.1 -0.1)">
      <use xlink:href="#DejaVuSans-65"/>
      <use x="61.523438" xlink:href="#DejaVuSans-70"/>
      <use x="125" xlink:href="#DejaVuSans-69"/>
      <use x="152.783203" xlink:href="#DejaVuSans-73"/>
      <use x="204.882812" xlink:href="#DejaVuSans-6f"/>
      <use x="266.064453" xlink:href="#DejaVuSans-64"/>
      <use x="329.541016" xlink:href="#DejaVuSans-65"/>
     </g>
    </g>
   </g>
   <g id="matplotlib.axis_2">
    <g id="ytick_1">
     <g id="line2d_7">
      <defs>
       <path d="M 0 0 
L -3.5 0 
" id="m9ed8518e63" style="stroke:#000000;stroke-width:0.8;"/>
      </defs>
      <g>
       <use style="stroke:#000000;stroke-width:0.8;" x="43.78125" xlink:href="#m9ed8518e63" y="250.119914"/>
      </g>
     </g>
     <g id="text_8">
      <!-- 0.2 -->
      <defs>
       <path d="M 10.6875 12.40625 
L 21 12.40625 
L 21 0 
L 10.6875 0 
z
" id="DejaVuSans-2e"/>
      </defs>
      <g transform="translate(20.878125 253.919132)scale(0.1 -0.1)">
       <use xlink:href="#DejaVuSans-30"/>
       <use x="63.623047" xlink:href="#DejaVuSans-2e"/>
       <use x="95.410156" xlink:href="#DejaVuSans-32"/>
      </g>
     </g>
    </g>
    <g id="ytick_2">
     <g id="line2d_8">
      <g>
       <use style="stroke:#000000;stroke-width:0.8;" x="43.78125" xlink:href="#m9ed8518e63" y="192.471331"/>
      </g>
     </g>
     <g id="text_9">
      <!-- 0.4 -->
      <defs>
       <path d="M 37.796875 64.3125 
L 12.890625 25.390625 
L 37.796875 25.390625 
z
M 35.203125 72.90625 
L 47.609375 72.90625 
L 47.609375 25.390625 
L 58.015625 25.390625 
L 58.015625 17.1875 
L 47.609375 17.1875 
L 47.609375 0 
L 37.796875 0 
L 37.796875 17.1875 
L 4.890625 17.1875 
L 4.890625 26.703125 
z
" id="DejaVuSans-34"/>
      </defs>
      <g transform="translate(20.878125 196.27055)scale(0.1 -0.1)">
       <use xlink:href="#DejaVuSans-30"/>
       <use x="63.623047" xlink:href="#DejaVuSans-2e"/>
       <use x="95.410156" xlink:href="#DejaVuSans-34"/>
      </g>
     </g>
    </g>
    <g id="ytick_3">
     <g id="line2d_9">
      <g>
       <use style="stroke:#000000;stroke-width:0.8;" x="43.78125" xlink:href="#m9ed8518e63" y="134.822748"/>
      </g>
     </g>
     <g id="text_10">
      <!-- 0.6 -->
      <defs>
       <path d="M 33.015625 40.375 
Q 26.375 40.375 22.484375 35.828125 
Q 18.609375 31.296875 18.609375 23.390625 
Q 18.609375 15.53125 22.484375 10.953125 
Q 26.375 6.390625 33.015625 6.390625 
Q 39.65625 6.390625 43.53125 10.953125 
Q 47.40625 15.53125 47.40625 23.390625 
Q 47.40625 31.296875 43.53125 35.828125 
Q 39.65625 40.375 33.015625 40.375 
z
M 52.59375 71.296875 
L 52.59375 62.3125 
Q 48.875 64.0625 45.09375 64.984375 
Q 41.3125 65.921875 37.59375 65.921875 
Q 27.828125 65.921875 22.671875 59.328125 
Q 17.53125 52.734375 16.796875 39.40625 
Q 19.671875 43.65625 24.015625 45.921875 
Q 28.375 48.1875 33.59375 48.1875 
Q 44.578125 48.1875 50.953125 41.515625 
Q 57.328125 34.859375 57.328125 23.390625 
Q 57.328125 12.15625 50.6875 5.359375 
Q 44.046875 -1.421875 33.015625 -1.421875 
Q 20.359375 -1.421875 13.671875 8.265625 
Q 6.984375 17.96875 6.984375 36.375 
Q 6.984375 53.65625 15.1875 63.9375 
Q 23.390625 74.21875 37.203125 74.21875 
Q 40.921875 74.21875 44.703125 73.484375 
Q 48.484375 72.75 52.59375 71.296875 
z
" id="DejaVuSans-36"/>
      </defs>
      <g transform="translate(20.878125 138.621967)scale(0.1 -0.1)">
       <use xlink:href="#DejaVuSans-30"/>
       <use x="63.623047" xlink:href="#DejaVuSans-2e"/>
       <use x="95.410156" xlink:href="#DejaVuSans-36"/>
      </g>
     </g>
    </g>
    <g id="ytick_4">
     <g id="line2d_10">
      <g>
       <use style="stroke:#000000;stroke-width:0.8;" x="43.78125" xlink:href="#m9ed8518e63" y="77.174165"/>
      </g>
     </g>
     <g id="text_11">
      <!-- 0.8 -->
      <defs>
       <path d="M 31.78125 34.625 
Q 24.75 34.625 20.71875 30.859375 
Q 16.703125 27.09375 16.703125 20.515625 
Q 16.703125 13.921875 20.71875 10.15625 
Q 24.75 6.390625 31.78125 6.390625 
Q 38.8125 6.390625 42.859375 10.171875 
Q 46.921875 13.96875 46.921875 20.515625 
Q 46.921875 27.09375 42.890625 30.859375 
Q 38.875 34.625 31.78125 34.625 
z
M 21.921875 38.8125 
Q 15.578125 40.375 12.03125 44.71875 
Q 8.5 49.078125 8.5 55.328125 
Q 8.5 64.0625 14.71875 69.140625 
Q 20.953125 74.21875 31.78125 74.21875 
Q 42.671875 74.21875 48.875 69.140625 
Q 55.078125 64.0625 55.078125 55.328125 
Q 55.078125 49.078125 51.53125 44.71875 
Q 48 40.375 41.703125 38.8125 
Q 48.828125 37.15625 52.796875 32.3125 
Q 56.78125 27.484375 56.78125 20.515625 
Q 56.78125 9.90625 50.3125 4.234375 
Q 43.84375 -1.421875 31.78125 -1.421875 
Q 19.734375 -1.421875 13.25 4.234375 
Q 6.78125 9.90625 6.78125 20.515625 
Q 6.78125 27.484375 10.78125 32.3125 
Q 14.796875 37.15625 21.921875 38.8125 
z
M 18.3125 54.390625 
Q 18.3125 48.734375 21.84375 45.5625 
Q 25.390625 42.390625 31.78125 42.390625 
Q 38.140625 42.390625 41.71875 45.5625 
Q 45.3125 48.734375 45.3125 54.390625 
Q 45.3125 60.0625 41.71875 63.234375 
Q 38.140625 66.40625 31.78125 66.40625 
Q 25.390625 66.40625 21.84375 63.234375 
Q 18.3125 60.0625 18.3125 54.390625 
z
" id="DejaVuSans-38"/>
      </defs>
      <g transform="translate(20.878125 80.973384)scale(0.1 -0.1)">
       <use xlink:href="#DejaVuSans-30"/>
       <use x="63.623047" xlink:href="#DejaVuSans-2e"/>
       <use x="95.410156" xlink:href="#DejaVuSans-38"/>
      </g>
     </g>
    </g>
    <g id="text_12">
     <!-- average maxQ -->
     <defs>
      <path d="M 34.28125 27.484375 
Q 23.390625 27.484375 19.1875 25 
Q 14.984375 22.515625 14.984375 16.5 
Q 14.984375 11.71875 18.140625 8.90625 
Q 21.296875 6.109375 26.703125 6.109375 
Q 34.1875 6.109375 38.703125 11.40625 
Q 43.21875 16.703125 43.21875 25.484375 
L 43.21875 27.484375 
z
M 52.203125 31.203125 
L 52.203125 0 
L 43.21875 0 
L 43.21875 8.296875 
Q 40.140625 3.328125 35.546875 0.953125 
Q 30.953125 -1.421875 24.3125 -1.421875 
Q 15.921875 -1.421875 10.953125 3.296875 
Q 6 8.015625 6 15.921875 
Q 6 25.140625 12.171875 29.828125 
Q 18.359375 34.515625 30.609375 34.515625 
L 43.21875 34.515625 
L 43.21875 35.40625 
Q 43.21875 41.609375 39.140625 45 
Q 35.0625 48.390625 27.6875 48.390625 
Q 23 48.390625 18.546875 47.265625 
Q 14.109375 46.140625 10.015625 43.890625 
L 10.015625 52.203125 
Q 14.9375 54.109375 19.578125 55.046875 
Q 24.21875 56 28.609375 56 
Q 40.484375 56 46.34375 49.84375 
Q 52.203125 43.703125 52.203125 31.203125 
z
" id="DejaVuSans-61"/>
      <path d="M 2.984375 54.6875 
L 12.5 54.6875 
L 29.59375 8.796875 
L 46.6875 54.6875 
L 56.203125 54.6875 
L 35.6875 0 
L 23.484375 0 
z
" id="DejaVuSans-76"/>
      <path d="M 41.109375 46.296875 
Q 39.59375 47.171875 37.8125 47.578125 
Q 36.03125 48 33.890625 48 
Q 26.265625 48 22.1875 43.046875 
Q 18.109375 38.09375 18.109375 28.8125 
L 18.109375 0 
L 9.078125 0 
L 9.078125 54.6875 
L 18.109375 54.6875 
L 18.109375 46.1875 
Q 20.953125 51.171875 25.484375 53.578125 
Q 30.03125 56 36.53125 56 
Q 37.453125 56 38.578125 55.875 
Q 39.703125 55.765625 41.0625 55.515625 
z
" id="DejaVuSans-72"/>
      <path d="M 45.40625 27.984375 
Q 45.40625 37.75 41.375 43.109375 
Q 37.359375 48.484375 30.078125 48.484375 
Q 22.859375 48.484375 18.828125 43.109375 
Q 14.796875 37.75 14.796875 27.984375 
Q 14.796875 18.265625 18.828125 12.890625 
Q 22.859375 7.515625 30.078125 7.515625 
Q 37.359375 7.515625 41.375 12.890625 
Q 45.40625 18.265625 45.40625 27.984375 
z
M 54.390625 6.78125 
Q 54.390625 -7.171875 48.1875 -13.984375 
Q 42 -20.796875 29.203125 -20.796875 
Q 24.46875 -20.796875 20.265625 -20.09375 
Q 16.0625 -19.390625 12.109375 -17.921875 
L 12.109375 -9.1875 
Q 16.0625 -11.328125 19.921875 -12.34375 
Q 23.78125 -13.375 27.78125 -13.375 
Q 36.625 -13.375 41.015625 -8.765625 
Q 45.40625 -4.15625 45.40625 5.171875 
L 45.40625 9.625 
Q 42.625 4.78125 38.28125 2.390625 
Q 33.9375 0 27.875 0 
Q 17.828125 0 11.671875 7.65625 
Q 5.515625 15.328125 5.515625 27.984375 
Q 5.515625 40.671875 11.671875 48.328125 
Q 17.828125 56 27.875 56 
Q 33.9375 56 38.28125 53.609375 
Q 42.625 51.21875 45.40625 46.390625 
L 45.40625 54.6875 
L 54.390625 54.6875 
z
" id="DejaVuSans-67"/>
      <path id="DejaVuSans-20"/>
      <path d="M 52 44.1875 
Q 55.375 50.25 60.0625 53.125 
Q 64.75 56 71.09375 56 
Q 79.640625 56 84.28125 50.015625 
Q 88.921875 44.046875 88.921875 33.015625 
L 88.921875 0 
L 79.890625 0 
L 79.890625 32.71875 
Q 79.890625 40.578125 77.09375 44.375 
Q 74.3125 48.1875 68.609375 48.1875 
Q 61.625 48.1875 57.5625 43.546875 
Q 53.515625 38.921875 53.515625 30.90625 
L 53.515625 0 
L 44.484375 0 
L 44.484375 32.71875 
Q 44.484375 40.625 41.703125 44.40625 
Q 38.921875 48.1875 33.109375 48.1875 
Q 26.21875 48.1875 22.15625 43.53125 
Q 18.109375 38.875 18.109375 30.90625 
L 18.109375 0 
L 9.078125 0 
L 9.078125 54.6875 
L 18.109375 54.6875 
L 18.109375 46.1875 
Q 21.1875 51.21875 25.484375 53.609375 
Q 29.78125 56 35.6875 56 
Q 41.65625 56 45.828125 52.96875 
Q 50 49.953125 52 44.1875 
z
" id="DejaVuSans-6d"/>
      <path d="M 54.890625 54.6875 
L 35.109375 28.078125 
L 55.90625 0 
L 45.3125 0 
L 29.390625 21.484375 
L 13.484375 0 
L 2.875 0 
L 24.125 28.609375 
L 4.6875 54.6875 
L 15.28125 54.6875 
L 29.78125 35.203125 
L 44.28125 54.6875 
z
" id="DejaVuSans-78"/>
      <path d="M 39.40625 66.21875 
Q 28.65625 66.21875 22.328125 58.203125 
Q 16.015625 50.203125 16.015625 36.375 
Q 16.015625 22.609375 22.328125 14.59375 
Q 28.65625 6.59375 39.40625 6.59375 
Q 50.140625 6.59375 56.421875 14.59375 
Q 62.703125 22.609375 62.703125 36.375 
Q 62.703125 50.203125 56.421875 58.203125 
Q 50.140625 66.21875 39.40625 66.21875 
z
M 53.21875 1.3125 
L 66.21875 -12.890625 
L 54.296875 -12.890625 
L 43.5 -1.21875 
Q 41.890625 -1.3125 41.03125 -1.359375 
Q 40.1875 -1.421875 39.40625 -1.421875 
Q 24.03125 -1.421875 14.8125 8.859375 
Q 5.609375 19.140625 5.609375 36.375 
Q 5.609375 53.65625 14.8125 63.9375 
Q 24.03125 74.21875 39.40625 74.21875 
Q 54.734375 74.21875 63.90625 63.9375 
Q 73.09375 53.65625 73.09375 36.375 
Q 73.09375 23.6875 67.984375 14.640625 
Q 62.890625 5.609375 53.21875 1.3125 
z
" id="DejaVuSans-51"/>
     </defs>
     <g transform="translate(14.798438 192.263187)rotate(-90)scale(0.1 -0.1)">
      <use xlink:href="#DejaVuSans-61"/>
      <use x="61.279297" xlink:href="#DejaVuSans-76"/>
      <use x="120.458984" xlink:href="#DejaVuSans-65"/>
      <use x="181.982422" xlink:href="#DejaVuSans-72"/>
      <use x="223.095703" xlink:href="#DejaVuSans-61"/>
      <use x="284.375" xlink:href="#DejaVuSans-67"/>
      <use x="347.851562" xlink:href="#DejaVuSans-65"/>
      <use x="409.375" xlink:href="#DejaVuSans-20"/>
      <use x="441.162109" xlink:href="#DejaVuSans-6d"/>
      <use x="538.574219" xlink:href="#DejaVuSans-61"/>
      <use x="599.853516" xlink:href="#DejaVuSans-78"/>
      <use x="659.033203" xlink:href="#DejaVuSans-51"/>
     </g>
    </g>
   </g>
   <g id="line2d_11">
    <path clip-path="url(#p1d9f66642b)" d="M 60.013977 267.639434 
L 60.143891 265.454692 
L 60.273805 270.438088 
L 60.663546 261.294558 
L 60.79346 265.723161 
L 60.923374 264.193158 
L 61.053288 266.155781 
L 61.313115 265.478004 
L 61.443029 268.102438 
L 61.702856 260.925916 
L 61.962684 266.979115 
L 62.092598 269.582076 
L 62.222512 266.729742 
L 62.482339 267.860509 
L 62.612253 270.953958 
L 62.742167 267.64755 
L 62.872081 267.880774 
L 63.001994 265.491868 
L 63.131908 268.006791 
L 63.261822 264.285093 
L 63.391736 264.189277 
L 63.521649 266.708745 
L 63.651563 263.187418 
L 63.781477 263.047191 
L 63.911391 261.393322 
L 64.041305 268.426916 
L 64.171218 269.392723 
L 64.431046 265.499047 
L 64.690873 269.404673 
L 64.820787 262.587344 
L 64.950701 267.888054 
L 65.080615 267.866022 
L 65.210529 265.144238 
L 65.340442 264.867532 
L 65.470356 265.29208 
L 65.60027 264.514803 
L 65.730184 266.866748 
L 65.860098 261.141111 
L 65.990011 263.942711 
L 66.119925 259.646425 
L 66.379753 270.342648 
L 66.63958 261.546289 
L 66.769494 263.638509 
L 66.899408 268.468458 
L 67.029322 262.439446 
L 67.159235 266.710743 
L 67.289149 260.589427 
L 67.548977 267.069797 
L 67.678891 267.746236 
L 67.808804 271.285068 
L 67.938718 267.243048 
L 68.068632 267.968913 
L 68.198546 266.796853 
L 68.328459 267.305347 
L 68.458373 262.165478 
L 68.588287 267.071985 
L 68.718201 263.28858 
L 68.848115 268.435039 
L 68.978028 266.662213 
L 69.107942 267.976404 
L 69.237856 265.612429 
L 69.36777 268.005594 
L 69.497683 267.465886 
L 69.627597 267.628347 
L 69.757511 268.922681 
L 69.887425 268.839519 
L 70.017339 265.841738 
L 70.147252 266.768978 
L 70.277166 264.492092 
L 70.40708 268.053484 
L 70.666908 265.186283 
L 70.796821 265.241257 
L 70.926735 269.993617 
L 71.186563 257.504314 
L 71.316476 265.809983 
L 71.44639 261.909078 
L 71.576304 267.688914 
L 71.706218 263.173046 
L 71.836132 264.676995 
L 71.966045 263.102177 
L 72.095959 266.439245 
L 72.225873 261.044859 
L 72.355787 260.869261 
L 72.745528 269.081488 
L 72.875442 269.801041 
L 73.005356 259.344936 
L 73.265183 270.694154 
L 73.395097 262.915293 
L 73.525011 264.011678 
L 73.654925 273.958314 
L 73.914752 267.85795 
L 74.044666 270.450156 
L 74.17458 270.461758 
L 74.304493 265.590528 
L 74.564321 270.918832 
L 74.694235 270.904688 
L 74.824149 270.226018 
L 74.954062 261.404785 
L 75.21389 270.782013 
L 75.343804 268.060308 
L 75.473718 270.167013 
L 75.603631 267.364861 
L 75.863459 274.17932 
L 75.993373 269.693374 
L 76.2532 271.115811 
L 76.383114 270.974317 
L 76.513028 276.334125 
L 76.642942 269.035574 
L 76.772855 272.386535 
L 76.902769 270.046048 
L 77.032683 273.355107 
L 77.162597 267.252069 
L 77.292511 273.724392 
L 77.422424 271.636171 
L 77.552338 272.966869 
L 77.682252 272.720727 
L 77.812166 269.525233 
L 77.942079 272.916629 
L 78.071993 271.215739 
L 78.201907 273.575163 
L 78.461735 273.408767 
L 78.721562 268.4228 
L 78.851476 273.889752 
L 79.111303 268.573765 
L 79.241217 273.36194 
L 79.371131 273.336267 
L 79.501045 274.213433 
L 79.630959 270.279662 
L 79.760872 271.453533 
L 79.890786 267.900906 
L 80.150614 271.928409 
L 80.280528 268.561368 
L 80.410441 270.548148 
L 80.540355 270.014463 
L 80.670269 270.161568 
L 80.800183 266.165899 
L 80.930096 267.128537 
L 81.06001 271.311212 
L 81.189924 265.665692 
L 81.319838 271.010845 
L 81.579665 265.055422 
L 81.709579 270.134527 
L 81.839493 269.19273 
L 81.969407 264.961678 
L 82.099321 267.937821 
L 82.489062 262.73382 
L 82.618976 266.611217 
L 82.748889 266.361684 
L 83.138631 261.279235 
L 83.268545 265.439033 
L 83.398458 262.284409 
L 83.528372 265.701267 
L 83.658286 262.869264 
L 83.7882 264.653637 
L 83.918113 262.483317 
L 84.048027 263.027379 
L 84.177941 265.273248 
L 84.437769 259.845706 
L 84.567682 260.218374 
L 84.697596 261.936037 
L 84.82751 261.462572 
L 85.087338 257.402601 
L 85.217251 258.886561 
L 85.347165 262.676799 
L 85.477079 257.208676 
L 85.606993 258.707528 
L 85.736906 258.739246 
L 85.86682 257.844701 
L 86.126648 260.984163 
L 86.256562 254.214833 
L 86.386475 258.268761 
L 86.516389 257.612346 
L 86.646303 258.593731 
L 86.776217 254.293712 
L 86.90613 256.574204 
L 87.036044 250.82164 
L 87.295872 256.670502 
L 87.425786 254.622206 
L 87.555699 256.780088 
L 87.815527 253.286433 
L 87.945441 251.584484 
L 88.075355 253.025748 
L 88.205268 251.667984 
L 88.335182 254.049167 
L 88.465096 253.350736 
L 88.59501 249.903333 
L 88.724923 250.132641 
L 88.984751 249.421898 
L 89.114665 249.401783 
L 89.244579 248.996283 
L 89.374492 249.571242 
L 89.504406 248.413993 
L 89.63432 251.552253 
L 90.024061 243.241598 
L 90.153975 246.632092 
L 90.283889 246.388455 
L 90.413803 243.676303 
L 90.543716 246.180842 
L 90.803544 240.67057 
L 90.933458 242.698667 
L 91.063372 240.27557 
L 91.193285 243.335619 
L 91.323199 239.93319 
L 91.453113 240.741993 
L 91.583027 240.839328 
L 91.71294 241.485734 
L 91.842854 238.062285 
L 91.972768 239.386369 
L 92.362509 236.414166 
L 92.492423 236.978514 
L 92.622337 238.975848 
L 92.752251 235.790746 
L 92.882165 235.734465 
L 93.012078 233.195073 
L 93.141992 233.22695 
L 93.271906 238.318737 
L 93.531733 232.59646 
L 93.661647 232.990898 
L 93.791561 236.237189 
L 93.921475 228.85038 
L 94.051389 235.446941 
L 94.181302 231.600604 
L 94.311216 236.052856 
L 94.44113 234.863459 
L 94.571044 226.889722 
L 94.700958 228.117013 
L 94.830871 231.969807 
L 94.960785 230.460043 
L 95.090699 227.483977 
L 95.220613 230.586802 
L 95.48044 224.008727 
L 95.610354 233.557525 
L 95.870182 221.605639 
L 96.259923 226.61247 
L 96.51975 221.54699 
L 96.649664 225.887072 
L 96.909492 216.590821 
L 97.039406 219.209668 
L 97.169319 217.956248 
L 97.299233 218.70868 
L 97.429147 217.868787 
L 97.559061 218.140932 
L 97.818888 215.33012 
L 97.948802 224.223471 
L 98.20863 212.990694 
L 98.338543 214.787115 
L 98.598371 212.361132 
L 98.728285 214.499052 
L 98.858199 209.750641 
L 98.988112 209.204547 
L 99.118026 215.105414 
L 99.507768 206.695555 
L 99.637681 209.900416 
L 99.767595 205.333821 
L 99.897509 210.372009 
L 100.027423 210.255711 
L 100.157336 207.782039 
L 100.28725 207.766967 
L 100.417164 206.093596 
L 100.547078 202.814884 
L 100.676992 210.004471 
L 100.806905 203.262674 
L 100.936819 203.238027 
L 101.066733 207.429163 
L 101.196647 206.57092 
L 101.32656 206.600303 
L 101.456474 200.22904 
L 101.586388 205.33311 
L 101.716302 196.834052 
L 101.846216 197.912709 
L 101.976129 203.794686 
L 102.235957 192.447908 
L 102.495785 200.473617 
L 102.625698 200.505512 
L 102.885526 204.502426 
L 103.145353 197.779281 
L 103.275267 193.453729 
L 103.405181 204.800598 
L 103.535095 203.429426 
L 103.665009 195.540133 
L 103.794922 198.99947 
L 104.05475 196.984452 
L 104.314578 187.97081 
L 104.444491 196.387947 
L 104.574405 194.152869 
L 104.704319 194.002677 
L 104.834233 189.332978 
L 104.964146 191.008465 
L 105.09406 189.764218 
L 105.223974 189.701515 
L 105.353888 192.14375 
L 105.483802 189.207503 
L 105.613715 191.280814 
L 105.743629 182.282694 
L 105.873543 194.047076 
L 106.003457 191.127201 
L 106.13337 184.604053 
L 106.263284 185.315742 
L 106.393198 191.756756 
L 106.523112 184.974594 
L 106.653026 185.787562 
L 106.782939 184.963139 
L 107.042767 180.764868 
L 107.172681 189.440711 
L 107.302595 184.214562 
L 107.432508 186.063408 
L 107.562422 181.272937 
L 107.692336 184.59213 
L 107.82225 191.18031 
L 107.952163 180.295367 
L 108.341905 185.179914 
L 108.731646 174.231987 
L 108.86156 178.277664 
L 108.991474 177.957924 
L 109.121388 179.870118 
L 109.251301 171.269921 
L 109.511129 178.280754 
L 109.641043 171.031743 
L 109.90087 179.216251 
L 110.030784 174.794968 
L 110.160698 175.150401 
L 110.290612 170.920559 
L 110.680353 174.456174 
L 110.94018 170.485693 
L 111.070094 180.926525 
L 111.200008 163.490227 
L 111.329922 180.07288 
L 111.459836 172.879204 
L 111.589749 176.855117 
L 111.719663 167.70558 
L 111.849577 178.241668 
L 111.979491 168.90264 
L 112.109405 168.309653 
L 112.239318 162.632256 
L 112.369232 174.08437 
L 112.62906 163.628764 
L 112.758973 168.362076 
L 112.888887 163.687348 
L 113.018801 163.318381 
L 113.148715 169.979237 
L 113.408542 163.45978 
L 113.538456 168.314681 
L 113.798284 163.131051 
L 113.928198 162.828093 
L 114.058111 164.598789 
L 114.188025 162.78705 
L 114.317939 163.422864 
L 114.447853 160.024157 
L 114.577766 165.726391 
L 114.70768 157.324722 
L 114.837594 162.276992 
L 114.967508 159.018908 
L 115.097422 164.001025 
L 115.227335 164.624006 
L 115.487163 149.749573 
L 115.617077 158.26224 
L 115.74699 159.178608 
L 116.006818 166.374145 
L 116.136732 155.551175 
L 116.266646 160.956102 
L 116.396559 154.925015 
L 116.526473 162.776859 
L 116.656387 151.77813 
L 117.046128 157.6404 
L 117.176042 157.345829 
L 117.43587 150.169272 
L 117.695697 160.129384 
L 117.955525 151.928141 
L 118.085439 154.74412 
L 118.215352 149.878947 
L 118.345266 157.715564 
L 118.605094 150.058389 
L 118.735008 152.398963 
L 118.864921 139.730363 
L 118.994835 164.916603 
L 119.124749 147.96675 
L 119.254663 147.189227 
L 119.384576 150.631202 
L 119.51449 151.122975 
L 119.644404 157.954554 
L 119.774318 152.97163 
L 119.904232 159.313787 
L 120.034145 148.733965 
L 120.164059 151.808038 
L 120.423887 146.309629 
L 120.683714 149.208686 
L 120.813628 137.426741 
L 120.943542 151.66727 
L 121.203369 146.345016 
L 121.333283 146.239908 
L 121.463197 145.149259 
L 121.593111 146.811219 
L 121.723025 154.122512 
L 121.982852 140.237949 
L 122.24268 151.745112 
L 122.502507 142.988418 
L 122.632421 152.023311 
L 122.762335 141.432542 
L 122.892249 146.75595 
L 123.022162 146.165025 
L 123.152076 141.296215 
L 123.28199 140.733633 
L 123.411904 149.692124 
L 123.541817 142.275896 
L 123.671731 153.110018 
L 123.801645 137.772464 
L 124.061473 145.088285 
L 124.3213 127.599107 
L 124.451214 149.560293 
L 124.581128 150.759721 
L 124.711042 138.416368 
L 124.970869 140.73522 
L 125.100783 143.366607 
L 125.230697 137.647943 
L 125.490524 143.285923 
L 125.620438 137.227883 
L 125.880266 143.246694 
L 126.010179 137.158298 
L 126.140093 145.987835 
L 126.529835 133.862469 
L 126.659748 138.567431 
L 126.789662 136.087098 
L 126.919576 137.953776 
L 127.04949 133.893433 
L 127.179403 140.92705 
L 127.309317 138.286208 
L 127.439231 141.704851 
L 127.569145 136.64734 
L 127.699059 145.777011 
L 127.828972 135.428874 
L 127.958886 145.796309 
L 128.348627 134.004632 
L 128.478541 133.845961 
L 128.608455 132.247271 
L 128.738369 140.055183 
L 128.868283 139.67269 
L 128.998196 133.833575 
L 129.12811 142.473937 
L 129.258024 126.93284 
L 129.517852 141.954928 
L 129.647765 130.690082 
L 129.777679 133.569053 
L 130.037507 129.203519 
L 130.297334 138.685941 
L 130.427248 127.54554 
L 130.557162 137.018934 
L 130.687076 125.751821 
L 130.946903 132.544656 
L 131.076817 126.84703 
L 131.206731 132.833989 
L 131.466558 131.752858 
L 131.596472 126.085153 
L 131.726386 129.657002 
L 131.8563 126.239409 
L 132.116127 136.789211 
L 132.505869 129.044207 
L 132.635782 128.098596 
L 132.765696 128.894999 
L 133.025524 128.344703 
L 133.155437 128.971743 
L 133.285351 133.322709 
L 133.415265 133.398778 
L 133.545179 126.215914 
L 133.675093 137.673235 
L 133.93492 125.693526 
L 134.064834 113.993856 
L 134.324662 130.720057 
L 134.584489 121.970613 
L 134.714403 127.976051 
L 134.844317 125.130335 
L 134.97423 126.015958 
L 135.104144 129.804434 
L 135.363972 124.089619 
L 135.623799 121.471493 
L 135.753713 122.186507 
L 136.013541 131.099652 
L 136.143455 130.515877 
L 136.403282 117.651118 
L 136.533196 127.468469 
L 136.66311 119.851616 
L 136.793023 122.052257 
L 136.922937 131.148216 
L 137.182765 121.719761 
L 137.312679 128.377747 
L 137.572506 119.982401 
L 137.70242 124.973647 
L 137.832334 123.937551 
L 137.962247 109.067694 
L 138.092161 130.060107 
L 138.222075 117.313755 
L 138.481903 127.46785 
L 138.74173 121.724828 
L 138.871644 120.434126 
L 139.001558 116.474468 
L 139.131472 124.422051 
L 139.391299 116.987458 
L 139.521213 124.720785 
L 139.910954 122.530392 
L 140.040868 125.117864 
L 140.300696 120.837309 
L 140.430609 116.066888 
L 140.560523 105.896146 
L 140.690437 122.692393 
L 140.820351 121.117869 
L 140.950265 122.566835 
L 141.080178 115.9914 
L 141.340006 123.857881 
L 141.46992 119.795263 
L 141.599833 110.891153 
L 141.729747 121.219595 
L 141.859661 112.320139 
L 141.989575 116.202809 
L 142.119489 113.648994 
L 142.249402 116.948246 
L 142.50923 112.144178 
L 142.769057 121.135027 
L 143.158799 114.874043 
L 143.288713 121.427765 
L 143.418626 110.604056 
L 143.54854 116.440457 
L 143.678454 116.10993 
L 143.808368 110.213583 
L 143.938282 112.448749 
L 144.068195 112.028435 
L 144.457937 123.26618 
L 144.58785 115.193039 
L 144.717764 114.665789 
L 144.977592 109.992577 
L 145.107506 121.534892 
L 145.367333 110.246452 
L 145.497247 119.12253 
L 145.627161 115.904915 
L 145.757075 120.957474 
L 145.886988 109.339886 
L 146.146816 117.244778 
L 146.27673 117.31635 
L 146.406643 109.493258 
L 146.536557 113.645161 
L 146.666471 108.341619 
L 146.796385 115.581421 
L 146.926299 111.875271 
L 147.056212 113.052301 
L 147.31604 106.186834 
L 147.445954 106.257086 
L 147.835695 114.157928 
L 147.965609 112.292295 
L 148.095523 116.077049 
L 148.225436 114.578958 
L 148.35535 115.360586 
L 148.485264 115.322859 
L 148.615178 111.259003 
L 148.745092 116.636123 
L 148.875005 113.712277 
L 149.004919 104.394322 
L 149.39466 117.406581 
L 149.524574 107.612202 
L 149.914316 118.450379 
L 150.174143 111.227278 
L 150.304057 117.5335 
L 150.433971 108.931509 
L 150.563885 115.00889 
L 150.693798 115.516727 
L 150.823712 106.932471 
L 151.08354 115.294662 
L 151.213453 109.76488 
L 151.343367 113.53203 
L 151.473281 112.064165 
L 151.603195 112.106676 
L 151.733109 114.228067 
L 151.863022 95.155272 
L 152.12285 112.749252 
L 152.252764 101.565666 
L 152.382677 115.841283 
L 152.512591 111.242202 
L 152.642505 100.852317 
L 152.902333 113.206761 
L 153.16216 108.004513 
L 153.421988 110.950142 
L 153.551902 120.145991 
L 153.681815 108.54631 
L 153.811729 109.327149 
L 153.941643 112.268627 
L 154.331384 104.799167 
L 154.461298 105.413544 
L 154.591212 113.851797 
L 154.721126 114.57438 
L 154.980953 108.208272 
L 155.110867 115.90623 
L 155.240781 108.4733 
L 155.370695 108.156247 
L 155.500608 105.924852 
L 155.630522 112.672392 
L 155.89035 105.24807 
L 156.020263 104.294828 
L 156.150177 108.325129 
L 156.280091 106.285318 
L 156.410005 108.396688 
L 156.539919 106.645437 
L 156.669832 112.29303 
L 156.92966 100.237553 
L 157.059574 108.358616 
L 157.189487 98.986897 
L 157.449315 108.1692 
L 157.709143 96.867266 
L 157.96897 106.192841 
L 158.098884 107.891872 
L 158.228798 104.651752 
L 158.358712 104.536652 
L 158.488625 102.56628 
L 158.618539 111.546204 
L 158.748453 101.013645 
L 158.878367 103.569261 
L 159.138194 92.525837 
L 159.268108 102.21695 
L 159.398022 100.342609 
L 159.527936 107.264839 
L 159.657849 105.448708 
L 159.787763 107.012207 
L 160.047591 98.730226 
L 160.307418 106.171601 
L 160.437332 106.493953 
L 160.567246 96.385286 
L 160.69716 100.450842 
L 160.827073 88.766596 
L 161.086901 106.202352 
L 161.216815 100.753752 
L 161.346729 103.278818 
L 161.606556 100.860776 
L 161.73647 102.384929 
L 161.996297 99.111104 
L 162.126211 110.014239 
L 162.256125 102.475673 
L 162.386039 106.567802 
L 162.515953 114.16254 
L 162.645866 105.704441 
L 162.77578 107.031916 
L 163.035608 98.676051 
L 163.295435 105.002416 
L 163.425349 103.210969 
L 163.685177 96.159783 
L 163.81509 101.49035 
L 163.945004 101.477638 
L 164.074918 92.515639 
L 164.204832 101.49578 
L 164.334746 94.828217 
L 164.464659 101.695959 
L 164.594573 96.547195 
L 164.854401 101.306405 
L 164.984314 100.912409 
L 165.114228 99.759806 
L 165.244142 104.830411 
L 165.374056 104.501005 
L 165.50397 99.699075 
L 165.633883 100.073587 
L 165.763797 94.308921 
L 165.893711 104.755133 
L 166.023625 104.623648 
L 166.153539 105.070649 
L 166.283452 98.949188 
L 166.413366 99.716815 
L 166.673194 103.162823 
L 166.803107 94.562328 
L 166.933021 98.683843 
L 167.062935 99.219066 
L 167.192849 97.098921 
L 167.322763 99.476091 
L 167.452676 96.976506 
L 167.58259 96.698833 
L 167.712504 98.706402 
L 167.842418 104.617988 
L 167.972332 100.397827 
L 168.102245 102.231666 
L 168.232159 100.446521 
L 168.491987 95.422734 
L 168.6219 104.838972 
L 168.751814 99.349322 
L 168.881728 100.535754 
L 169.011642 98.008755 
L 169.141556 104.107237 
L 169.401383 92.285536 
L 169.531297 99.380397 
L 169.661211 98.833352 
L 169.791124 101.564281 
L 169.921038 96.163557 
L 170.050952 98.077193 
L 170.180866 97.798654 
L 170.31078 96.420082 
L 170.440693 96.325676 
L 170.570607 98.406307 
L 170.700521 96.248909 
L 170.830435 106.924114 
L 170.960349 95.612028 
L 171.090262 99.363545 
L 171.220176 95.400775 
L 171.35009 100.423893 
L 171.480004 93.446027 
L 171.609917 99.049469 
L 171.739831 98.270269 
L 171.869745 92.970115 
L 172.129573 97.047606 
L 172.259486 92.15575 
L 172.3894 101.850664 
L 172.519314 100.322393 
L 172.649228 97.121633 
L 172.779142 98.39579 
L 172.909055 96.70102 
L 173.038969 90.620546 
L 173.168883 97.394321 
L 173.298797 92.802889 
L 173.42871 97.614131 
L 173.558624 97.0676 
L 173.688538 91.562388 
L 173.818452 103.095151 
L 174.078279 89.871497 
L 174.338107 96.800368 
L 174.468021 93.681753 
L 174.597934 93.501919 
L 174.727848 87.650527 
L 174.987676 100.238373 
L 175.247503 91.619984 
L 175.377417 88.786389 
L 175.637245 100.233938 
L 176.026986 89.216669 
L 176.1569 97.810892 
L 176.286814 98.90966 
L 176.546641 91.556644 
L 176.676555 88.636695 
L 176.806469 90.181364 
L 176.936383 96.225857 
L 177.066296 95.127625 
L 177.19621 97.058352 
L 177.326124 91.352217 
L 177.456038 93.726368 
L 177.585952 98.189996 
L 178.105607 84.821222 
L 178.365434 93.745374 
L 178.495348 94.008987 
L 178.625262 96.648384 
L 178.755176 94.782407 
L 178.885089 97.584753 
L 179.015003 94.430392 
L 179.144917 96.886805 
L 179.404744 94.251035 
L 179.534658 98.440592 
L 179.794486 92.946519 
L 180.054313 97.29899 
L 180.314141 77.384423 
L 180.444055 97.088623 
L 180.573969 95.62472 
L 180.703882 91.37922 
L 180.96371 97.282253 
L 181.093624 96.802844 
L 181.223537 94.517639 
L 181.483365 95.333607 
L 181.613279 89.468515 
L 181.873106 96.64785 
L 182.00302 84.019986 
L 182.262848 97.00159 
L 182.522675 86.795814 
L 182.782503 96.455794 
L 182.912417 95.760712 
L 183.302158 90.934912 
L 183.432072 93.216877 
L 183.561986 89.811335 
L 183.951727 98.115384 
L 184.081641 94.024143 
L 184.211554 93.438523 
L 184.341468 93.537606 
L 184.471382 93.829202 
L 184.601296 94.472307 
L 184.73121 91.054476 
L 184.861123 90.815506 
L 184.991037 85.26687 
L 185.120951 95.904532 
L 185.250865 88.05315 
L 185.640606 92.272082 
L 185.77052 92.804561 
L 185.900434 86.874004 
L 186.030347 89.361358 
L 186.160261 84.104994 
L 186.290175 90.276122 
L 186.420089 89.861719 
L 186.550003 91.349963 
L 186.679916 84.250414 
L 186.80983 84.981959 
L 187.069658 95.451171 
L 187.199572 91.411681 
L 187.329485 98.460206 
L 187.589313 84.765024 
L 187.719227 90.915238 
L 187.979054 85.174762 
L 188.108968 85.811708 
L 188.368796 92.312771 
L 188.628623 87.757316 
L 188.758537 90.515634 
L 188.888451 89.292367 
L 189.148278 96.453189 
L 189.278192 83.90414 
L 189.53802 89.590067 
L 189.667933 86.153076 
L 189.797847 91.917668 
L 190.057675 86.956128 
L 190.187589 90.197301 
L 190.447416 84.524813 
L 190.707244 101.836964 
L 190.837157 85.695322 
L 190.967071 92.053916 
L 191.226899 81.45079 
L 191.486726 89.146632 
L 191.61664 88.689824 
L 191.876468 86.16988 
L 192.136295 80.661995 
L 192.266209 85.848636 
L 192.396123 83.815525 
L 192.526037 90.473183 
L 192.65595 81.416275 
L 193.045692 87.7246 
L 193.305519 82.2254 
L 193.435433 87.443038 
L 193.565347 85.497584 
L 193.825174 94.197676 
L 193.955088 76.990368 
L 194.085002 98.19249 
L 194.214916 83.540153 
L 194.34483 84.814834 
L 194.474743 82.07435 
L 194.604657 90.701358 
L 194.734571 86.784603 
L 194.864485 79.176354 
L 194.994399 88.942891 
L 195.124312 90.27654 
L 195.254226 90.374512 
L 195.38414 89.407896 
L 195.514054 89.7236 
L 195.773881 82.4159 
L 195.903795 88.375268 
L 196.033709 83.346416 
L 196.163623 84.709462 
L 196.293536 82.048087 
L 196.553364 87.233507 
L 196.683278 87.274385 
L 196.813192 85.916189 
L 196.943105 95.767389 
L 197.202933 83.211238 
L 197.332847 79.997699 
L 197.46276 84.529709 
L 197.592674 81.866592 
L 197.852502 91.369045 
L 198.112329 81.002987 
L 198.242243 80.894766 
L 198.372157 85.319631 
L 198.502071 82.344333 
L 198.631984 86.831798 
L 198.761898 83.23594 
L 198.891812 83.113697 
L 199.021726 90.706733 
L 199.281553 87.819784 
L 199.411467 90.311876 
L 199.541381 79.715978 
L 199.671295 83.546186 
L 199.931122 84.093616 
L 200.19095 82.619254 
L 200.320864 82.38921 
L 200.450777 86.964307 
L 200.580691 86.985725 
L 200.710605 90.664447 
L 200.840519 79.166521 
L 200.970433 84.608657 
L 201.100346 77.822908 
L 201.23026 78.400808 
L 201.490088 89.010384 
L 201.620002 86.087591 
L 201.749915 78.721424 
L 202.009743 80.4233 
L 202.26957 95.015688 
L 202.529398 77.142784 
L 202.659312 84.861097 
L 202.789226 80.756382 
L 202.919139 83.875089 
L 203.049053 75.25411 
L 203.308881 88.797433 
L 203.438794 80.863748 
L 203.568708 79.780732 
L 203.698622 82.502754 
L 203.828536 88.850946 
L 203.95845 80.830854 
L 204.088363 87.853203 
L 204.218277 83.305862 
L 204.348191 89.341887 
L 204.608019 77.713486 
L 204.737932 79.125705 
L 204.99776 86.086221 
L 205.257587 80.404625 
L 205.387501 88.519135 
L 205.517415 87.602082 
L 205.647329 87.557011 
L 205.777243 79.016644 
L 205.907156 85.735479 
L 206.03707 83.448923 
L 206.166984 91.807131 
L 206.296898 78.6124 
L 206.426811 84.436951 
L 206.556725 80.251913 
L 206.686639 82.733344 
L 206.816553 74.507887 
L 207.07638 85.783149 
L 207.206294 84.466189 
L 207.336208 80.36197 
L 207.466122 90.13481 
L 207.596036 78.349397 
L 207.725949 80.925398 
L 207.855863 80.023744 
L 207.985777 83.052796 
L 208.115691 78.067739 
L 208.245604 86.186576 
L 208.375518 80.154431 
L 208.505432 79.448208 
L 208.635346 91.92046 
L 208.76526 76.997769 
L 208.895173 87.662789 
L 209.025087 89.135097 
L 209.155001 88.050424 
L 209.284915 80.538438 
L 209.414829 80.598238 
L 209.674656 78.89139 
L 209.80457 87.802025 
L 209.934484 77.936262 
L 210.324225 86.723239 
L 210.454139 76.838836 
L 210.584053 84.264489 
L 210.84388 78.901733 
L 211.103708 87.083192 
L 211.233621 85.959973 
L 211.493449 82.300355 
L 211.623363 86.722658 
L 211.753277 78.907712 
L 211.88319 87.439072 
L 212.013104 77.945731 
L 212.143018 82.115838 
L 212.402846 79.415614 
L 212.662673 85.745831 
L 212.792587 84.496952 
L 212.922501 79.522001 
L 213.052414 79.314969 
L 213.182328 79.75654 
L 213.442156 83.293852 
L 213.57207 81.762414 
L 213.701983 77.507272 
L 213.831897 82.839435 
L 213.961811 82.550706 
L 214.091725 84.753003 
L 214.221639 83.911028 
L 214.351552 81.029889 
L 214.481466 81.453911 
L 214.61138 85.476831 
L 214.871207 75.783354 
L 215.001121 82.649579 
L 215.131035 81.340524 
L 215.260949 78.809057 
L 215.390863 83.550062 
L 215.65069 79.121219 
L 215.780604 80.960608 
L 216.040431 76.468974 
L 216.170345 85.124473 
L 216.300259 84.038943 
L 216.560087 73.506312 
L 216.819914 78.1129 
L 216.949828 76.378151 
L 217.209656 84.788098 
L 217.599397 76.004597 
L 218.119052 85.937993 
L 218.37888 78.751908 
L 218.508793 78.03504 
L 218.638707 72.786448 
L 218.768621 78.061458 
L 219.028449 75.713821 
L 219.288276 81.502253 
L 219.41819 75.658827 
L 219.548104 79.421751 
L 219.807931 74.793513 
L 219.937845 78.664756 
L 220.067759 76.618005 
L 220.327586 79.873154 
L 220.4575 75.508254 
L 220.717328 80.855407 
L 220.847241 76.796209 
L 220.977155 80.723271 
L 221.107069 72.591494 
L 221.366897 80.665228 
L 221.49681 77.774647 
L 221.626724 80.144976 
L 221.756638 79.820238 
L 221.886552 73.304808 
L 222.016466 75.169986 
L 222.146379 74.368456 
L 222.276293 82.251007 
L 222.406207 75.848449 
L 222.536121 79.042604 
L 222.666034 77.650362 
L 222.795948 83.333731 
L 223.18569 72.9126 
L 223.575431 79.475836 
L 223.835259 77.542994 
L 223.965172 79.216105 
L 224.095086 74.555385 
L 224.225 78.389853 
L 224.354914 77.149253 
L 224.744655 81.75616 
L 224.874569 76.007955 
L 225.004483 79.772118 
L 225.134396 73.950568 
L 225.26431 82.027253 
L 225.394224 76.537231 
L 225.654051 80.712949 
L 226.043793 71.70488 
L 226.173707 77.996711 
L 226.30362 76.872187 
L 226.433534 72.804888 
L 226.563448 77.268989 
L 226.823276 73.546353 
L 226.953189 76.590296 
L 227.083103 76.999134 
L 227.213017 75.219949 
L 227.342931 79.260252 
L 227.472844 76.090725 
L 227.602758 75.722924 
L 227.732672 78.965416 
L 227.9925 73.370558 
L 228.252327 80.020258 
L 228.512155 73.551384 
L 228.642069 77.198236 
L 228.771982 70.957971 
L 228.901896 76.741795 
L 229.03181 74.355662 
L 229.161724 67.665371 
L 229.291637 77.719835 
L 229.551465 73.021179 
L 229.681379 72.522601 
L 230.07112 80.581435 
L 230.201034 77.811057 
L 230.330948 71.987459 
L 230.460861 76.962026 
L 230.590775 76.449879 
L 230.720689 76.435676 
L 230.850603 74.753023 
L 230.980517 76.091157 
L 231.11043 75.260374 
L 231.240344 79.408483 
L 231.370258 74.846781 
L 231.500172 78.794144 
L 231.759999 71.767605 
L 231.889913 72.232888 
L 232.149741 80.270474 
L 232.409568 72.581066 
L 232.539482 77.788412 
L 232.669396 75.467181 
L 232.79931 75.463385 
L 232.929223 77.440163 
L 233.059137 71.832587 
L 233.189051 73.930701 
L 233.448879 71.903604 
L 233.708706 77.854735 
L 233.83862 72.08377 
L 234.098447 76.476984 
L 234.228361 74.025045 
L 234.358275 75.606228 
L 234.488189 71.540278 
L 234.618103 75.816321 
L 234.748016 75.204367 
L 234.87793 75.923915 
L 235.007844 71.875932 
L 235.137758 74.714361 
L 235.267671 72.062728 
L 235.397585 73.757398 
L 235.527499 73.527038 
L 235.657413 75.060191 
L 235.787327 74.891608 
L 236.047154 72.64165 
L 236.306982 75.950153 
L 236.436896 71.529894 
L 236.566809 71.803754 
L 236.696723 74.47718 
L 236.826637 74.339129 
L 236.956551 66.408822 
L 237.086464 72.955335 
L 237.216378 72.723389 
L 237.346292 71.748266 
L 237.476206 73.650706 
L 237.60612 68.377886 
L 237.736033 74.528087 
L 237.995861 72.450314 
L 238.125775 71.236887 
L 238.255689 74.604271 
L 238.385602 74.4091 
L 238.64543 71.330788 
L 238.775344 76.841986 
L 238.905257 68.839541 
L 239.035171 69.619901 
L 239.165085 73.979388 
L 239.294999 67.020936 
L 239.554826 74.213389 
L 239.68474 74.322693 
L 239.814654 71.898727 
L 239.944568 73.786011 
L 240.074481 67.967976 
L 240.334309 73.956247 
L 240.464223 73.876723 
L 240.594137 70.694818 
L 240.72405 73.742815 
L 240.853964 67.799698 
L 240.983878 73.465111 
L 241.113792 71.339103 
L 241.373619 74.419571 
L 241.503533 72.722725 
L 241.633447 73.946241 
L 241.763361 72.395696 
L 241.893274 74.394547 
L 242.023188 72.227369 
L 242.153102 74.890396 
L 242.283016 70.809 
L 242.41293 74.279681 
L 242.542843 72.209389 
L 242.672757 61.581962 
L 242.932585 73.253194 
L 243.192412 70.412927 
L 243.322326 74.429183 
L 243.582154 69.424796 
L 243.841981 70.385111 
L 243.971895 67.020081 
L 244.101809 72.275764 
L 244.231723 69.49243 
L 244.361636 71.297173 
L 244.621464 68.989221 
L 244.751378 68.548837 
L 244.881291 72.362727 
L 245.011205 66.159352 
L 245.141119 65.534137 
L 245.271033 65.5728 
L 245.400947 70.563064 
L 245.53086 68.540272 
L 245.660774 73.094641 
L 245.790688 65.412861 
L 245.920602 71.919619 
L 246.050516 65.73941 
L 246.180429 70.856828 
L 246.310343 69.153317 
L 246.440257 73.489046 
L 246.570171 71.856839 
L 246.700084 68.192306 
L 246.829998 67.968895 
L 246.959912 68.767414 
L 247.089826 61.184425 
L 247.349653 70.843252 
L 247.479567 70.37643 
L 247.609481 65.921976 
L 247.739395 71.397091 
L 247.869308 71.337345 
L 247.999222 62.586584 
L 248.129136 63.959163 
L 248.388964 71.648025 
L 248.518877 69.429914 
L 248.778705 70.950814 
L 248.908619 71.525852 
L 249.038533 64.364551 
L 249.168446 69.25677 
L 249.29836 65.661483 
L 249.428274 68.393795 
L 249.558188 67.038783 
L 249.688101 69.075833 
L 249.818015 67.797272 
L 249.947929 68.659448 
L 250.077843 68.653812 
L 250.207757 71.402584 
L 250.33767 66.603213 
L 250.467584 68.251906 
L 250.597498 63.706313 
L 250.727412 68.569599 
L 250.987239 64.360956 
L 251.117153 72.527103 
L 251.247067 67.405493 
L 251.376981 70.878633 
L 251.506894 70.318169 
L 251.636808 65.356943 
L 251.766722 67.084819 
L 251.896636 66.643159 
L 252.02655 69.533803 
L 252.156463 66.424448 
L 252.416291 69.38445 
L 252.546205 68.248899 
L 252.676118 69.225586 
L 252.806032 65.989721 
L 252.935946 69.27536 
L 253.06586 68.932096 
L 253.195774 61.16418 
L 253.325687 67.765749 
L 253.585515 65.605306 
L 253.715429 66.151252 
L 253.845343 67.750783 
L 253.975256 66.631058 
L 254.10517 67.098737 
L 254.235084 61.525847 
L 254.364998 70.154138 
L 254.494911 69.871918 
L 254.754739 66.89946 
L 254.884653 66.127573 
L 255.014567 66.257779 
L 255.274394 61.958345 
L 255.534222 69.60262 
L 255.664136 63.92979 
L 255.923963 67.168167 
L 256.053877 68.822633 
L 256.183791 68.879959 
L 256.313704 69.999976 
L 256.443618 66.384779 
L 256.573532 67.707083 
L 256.703446 63.584417 
L 257.093187 70.089233 
L 257.223101 69.84196 
L 257.482928 64.956256 
L 257.612842 64.332358 
L 257.742756 70.647484 
L 257.87267 65.141964 
L 258.002584 69.267777 
L 258.132497 69.663338 
L 258.392325 64.292315 
L 258.522239 63.025989 
L 258.652153 69.137236 
L 258.782066 63.788416 
L 258.91198 63.398267 
L 259.041894 59.912759 
L 259.171808 69.871539 
L 259.301721 66.070219 
L 259.431635 69.475849 
L 259.691463 64.344545 
L 259.821377 65.215581 
L 259.95129 63.035188 
L 260.081204 67.935655 
L 260.341032 58.299818 
L 260.470946 66.160348 
L 260.600859 65.045425 
L 260.730773 61.331481 
L 260.860687 66.60702 
L 260.990601 65.663277 
L 261.120514 62.88051 
L 261.250428 63.089034 
L 261.380342 63.049967 
L 261.510256 63.761464 
L 261.770083 69.464937 
L 261.899997 62.701121 
L 262.029911 68.757296 
L 262.289738 64.565892 
L 262.419652 65.637796 
L 262.549566 58.722412 
L 262.67948 66.609686 
L 262.939307 64.104514 
L 263.069221 68.191847 
L 263.329049 66.796698 
L 263.458963 66.959587 
L 263.71879 65.09193 
L 263.848704 62.424283 
L 263.978618 63.845363 
L 264.108531 59.726478 
L 264.238445 64.908841 
L 264.368359 63.817406 
L 264.498273 65.752881 
L 264.628187 63.710978 
L 264.7581 63.784817 
L 264.888014 65.191561 
L 265.147842 59.861629 
L 265.407669 65.278607 
L 265.537583 67.272605 
L 265.797411 66.131178 
L 265.927324 66.323791 
L 266.057238 61.663742 
L 266.187152 66.402504 
L 266.317066 64.710853 
L 266.44698 66.269267 
L 266.576893 65.740276 
L 266.706807 64.314532 
L 266.836721 67.128379 
L 267.096548 63.047899 
L 267.226462 64.165598 
L 267.356376 64.155952 
L 267.48629 60.393761 
L 267.616204 63.89045 
L 267.746117 56.922366 
L 267.876031 63.044902 
L 268.005945 56.392971 
L 268.135859 66.656703 
L 268.265773 60.292656 
L 268.5256 66.072751 
L 268.655514 64.474771 
L 268.785428 66.523656 
L 269.045255 63.841707 
L 269.175169 65.836535 
L 269.305083 62.999825 
L 269.434997 54.849848 
L 269.56491 63.366883 
L 269.694824 64.260068 
L 269.824738 67.647032 
L 270.084566 60.790193 
L 270.214479 64.018234 
L 270.474307 62.615209 
L 270.604221 65.310676 
L 270.734134 63.822552 
L 270.864048 57.013468 
L 270.993962 63.911288 
L 271.123876 62.901697 
L 271.25379 57.51345 
L 271.643531 64.650011 
L 271.903358 66.324811 
L 272.033272 63.673157 
L 272.163186 66.22239 
L 272.2931 61.026543 
L 272.423014 66.183874 
L 272.552927 62.705218 
L 272.682841 64.58299 
L 272.812755 68.202313 
L 272.942669 61.478366 
L 273.072583 65.299969 
L 273.33241 56.815127 
L 273.462324 65.966645 
L 273.852065 59.322309 
L 274.111893 65.422786 
L 274.241807 64.846529 
L 274.37172 66.39161 
L 274.501634 62.021364 
L 274.631548 64.846165 
L 274.761462 60.928277 
L 274.891376 62.236666 
L 275.021289 58.917932 
L 275.281117 59.976417 
L 275.411031 58.46991 
L 275.540944 59.212228 
L 275.670858 56.090402 
L 275.800772 66.35323 
L 276.0606 63.562195 
L 276.190513 65.195055 
L 276.320427 64.872336 
L 276.450341 65.523628 
L 276.580255 59.000655 
L 276.840082 65.471135 
L 276.969996 59.282734 
L 277.09991 65.673974 
L 277.229824 62.224897 
L 277.359737 65.472807 
L 277.489651 62.076275 
L 277.619565 65.776824 
L 278.009306 58.20765 
L 278.269134 65.233765 
L 278.528961 61.043992 
L 278.658875 63.423373 
L 278.788789 63.477465 
L 278.918703 62.766703 
L 279.048617 64.080153 
L 279.17853 59.073327 
L 279.308444 64.821741 
L 279.438358 63.924493 
L 279.568272 58.197016 
L 279.698186 65.143184 
L 279.958013 62.511772 
L 280.087927 64.746471 
L 280.217841 59.033589 
L 280.347754 64.409347 
L 280.477668 57.150871 
L 280.607582 64.125196 
L 280.737496 64.437726 
L 280.86741 65.293512 
L 280.997323 60.878071 
L 281.257151 64.026317 
L 281.387065 60.305926 
L 281.516978 59.987903 
L 281.646892 64.516157 
L 281.776806 62.635435 
L 281.90672 64.149521 
L 282.036634 64.27256 
L 282.166547 65.819019 
L 282.556289 61.782679 
L 282.686203 64.945493 
L 282.816116 63.995061 
L 282.94603 63.946068 
L 283.075944 61.762514 
L 283.205858 62.209409 
L 283.335771 57.245871 
L 283.595599 62.893155 
L 283.725513 61.354905 
L 283.855427 63.564323 
L 284.115254 60.757832 
L 284.245168 63.505209 
L 284.375082 60.856074 
L 284.634909 62.872846 
L 284.764823 61.327031 
L 284.894737 58.034454 
L 285.024651 63.368263 
L 285.154564 55.138112 
L 285.284478 64.366475 
L 285.414392 65.504272 
L 285.67422 62.672853 
L 285.934047 62.379431 
L 286.193875 59.705383 
L 286.323788 54.598253 
L 286.453702 60.700566 
L 286.583616 59.373596 
L 286.71353 62.279973 
L 286.843444 60.041208 
L 286.973357 63.576266 
L 287.103271 62.576926 
L 287.233185 58.573865 
L 287.363099 62.537155 
L 287.493013 47.390889 
L 287.622926 63.812577 
L 287.75284 64.620617 
L 287.882754 62.028983 
L 288.012668 63.41216 
L 288.142581 52.008012 
L 288.272495 60.060453 
L 288.402409 61.039259 
L 288.532323 58.159231 
L 288.662237 60.036526 
L 288.79215 55.942408 
L 288.922064 59.479821 
L 289.051978 59.79039 
L 289.181892 62.135261 
L 289.311805 61.100093 
L 289.441719 61.208537 
L 289.571633 61.8349 
L 289.701547 60.688775 
L 289.831461 58.435921 
L 289.961374 64.133086 
L 290.221202 60.702013 
L 290.351116 63.995504 
L 290.48103 59.886375 
L 290.610943 60.425037 
L 290.740857 60.021975 
L 290.870771 63.303665 
L 291.130598 58.317173 
L 291.260512 62.079806 
L 291.390426 54.713199 
L 291.52034 62.134124 
L 291.650254 62.874246 
L 291.910081 56.373876 
L 292.039995 57.165584 
L 292.169909 63.024418 
L 292.429736 59.982775 
L 292.689564 61.770646 
L 292.949391 58.845379 
L 293.079305 60.187215 
L 293.209219 63.589094 
L 293.339133 58.092657 
L 293.469047 59.307078 
L 293.59896 58.555391 
L 293.728874 59.391672 
L 293.858788 58.62536 
L 293.988702 61.246546 
L 294.118615 56.536471 
L 294.248529 57.870137 
L 294.378443 64.709964 
L 294.768184 55.525265 
L 295.157926 60.791059 
L 295.28784 55.740334 
L 295.547667 64.016581 
L 295.677581 59.207779 
L 295.937408 61.14076 
L 296.197236 55.545893 
L 296.32715 62.999871 
L 296.586977 53.635742 
L 296.846805 61.035048 
L 296.976719 62.65524 
L 297.106633 57.469472 
L 297.236546 60.421935 
L 297.36646 56.44258 
L 297.626288 61.888995 
L 297.756201 60.045629 
L 297.886115 60.814469 
L 298.016029 60.687988 
L 298.145943 64.876378 
L 298.275857 63.542382 
L 298.40577 53.95889 
L 298.535684 56.312751 
L 298.795512 63.904673 
L 299.055339 58.707667 
L 299.315167 55.546385 
L 299.445081 60.352698 
L 299.574994 49.562435 
L 299.834822 64.952675 
L 299.964736 61.442064 
L 300.09465 62.270526 
L 300.224563 59.696937 
L 300.354477 54.265283 
L 300.484391 58.383398 
L 300.614305 52.295868 
L 300.744218 59.858591 
L 301.004046 55.437496 
L 301.13396 63.500551 
L 301.263874 59.716445 
L 301.393787 61.01817 
L 301.523701 54.904423 
L 301.653615 62.761417 
L 301.783529 52.194597 
L 302.043356 60.101735 
L 302.17327 56.400873 
L 302.303184 61.251447 
L 302.433098 61.847348 
L 302.563011 57.259845 
L 302.692925 61.156804 
L 302.822839 60.824681 
L 302.952753 58.398154 
L 303.082667 58.729225 
L 303.21258 54.443948 
L 303.342494 58.492902 
L 303.472408 57.960408 
L 303.602322 55.382132 
L 303.732235 61.710105 
L 303.862149 60.251145 
L 303.992063 50.588885 
L 304.121977 60.534491 
L 304.381804 59.515039 
L 304.511718 54.474784 
L 304.641632 61.844055 
L 304.771546 60.853354 
L 305.031373 54.731305 
L 305.161287 57.830341 
L 305.291201 64.032319 
L 305.421115 52.127092 
L 305.810856 60.972262 
L 305.94077 58.177112 
L 306.070684 60.56848 
L 306.200597 59.735104 
L 306.460425 54.481748 
L 306.720253 59.46075 
L 306.850166 54.788091 
L 306.98008 55.692089 
L 307.109994 55.643633 
L 307.239908 51.713124 
L 307.629649 62.62431 
L 307.759563 53.213753 
L 307.889477 57.985051 
L 308.149304 53.484404 
L 308.279218 60.464505 
L 308.409132 54.132793 
L 308.539045 55.585901 
L 308.798873 62.05965 
L 308.928787 57.963625 
L 309.058701 61.196404 
L 309.188614 60.735691 
L 309.318528 56.43165 
L 309.448442 61.826751 
L 309.578356 57.01478 
L 309.70827 61.07249 
L 309.838183 58.056331 
L 309.968097 62.203672 
L 310.098011 48.44172 
L 310.227925 61.557734 
L 310.357838 60.169941 
L 310.617666 49.536499 
L 310.74758 60.134909 
L 310.877494 60.630843 
L 311.007407 53.234321 
L 311.267235 60.509627 
L 311.397149 57.764024 
L 311.527063 63.999791 
L 311.656976 52.701428 
L 311.78689 51.68339 
L 311.916804 62.476607 
L 312.046718 61.691627 
L 312.176631 57.428589 
L 312.306545 62.442887 
L 312.436459 59.481362 
L 312.566373 59.70541 
L 312.696287 61.293252 
L 312.956114 57.02962 
L 313.086028 61.64884 
L 313.215942 58.707145 
L 313.475769 62.980348 
L 313.605683 58.524187 
L 313.735597 61.760513 
L 313.865511 59.540145 
L 313.995424 62.474606 
L 314.125338 62.025296 
L 314.255252 58.683522 
L 314.385166 51.511825 
L 314.51508 61.723538 
L 314.774907 63.416291 
L 315.034735 58.411407 
L 315.164648 60.130768 
L 315.424476 58.907191 
L 315.55439 60.957454 
L 315.684304 61.249562 
L 315.814217 54.382009 
L 315.944131 60.97469 
L 316.074045 61.369615 
L 316.203959 58.213201 
L 316.333873 61.420821 
L 316.463786 61.119934 
L 316.5937 63.407203 
L 316.723614 60.246008 
L 316.853528 63.343417 
L 316.983441 57.867395 
L 317.113355 57.641254 
L 317.243269 61.069897 
L 317.373183 51.077057 
L 317.503097 60.144067 
L 317.63301 60.815552 
L 317.762924 59.906456 
L 318.022752 61.878473 
L 318.152665 63.132683 
L 318.542407 58.760566 
L 318.672321 52.257881 
L 318.802234 62.271864 
L 319.062062 63.768965 
L 319.191976 49.399633 
L 319.32189 60.501813 
L 319.451803 59.904751 
L 319.581717 60.629085 
L 319.711631 57.431917 
L 319.841545 59.918484 
L 319.971458 51.094877 
L 320.231286 60.731805 
L 320.3612 61.038625 
L 320.491114 57.656362 
L 320.750941 61.501548 
L 320.880855 62.44724 
L 321.010769 61.432294 
L 321.140683 59.012845 
L 321.40051 61.403002 
L 321.530424 50.828983 
L 321.790251 62.005053 
L 321.920165 54.600387 
L 322.050079 54.151167 
L 322.179993 61.455487 
L 322.309907 54.57391 
L 322.43982 59.15569 
L 322.569734 58.121989 
L 322.829562 62.296063 
L 322.959475 61.86908 
L 323.089389 60.780084 
L 323.219303 60.91327 
L 323.349217 57.506142 
L 323.479131 60.514336 
L 323.609044 60.5947 
L 323.738958 61.474063 
L 323.868872 58.636969 
L 323.998786 61.098579 
L 324.1287 54.627646 
L 324.258613 59.551862 
L 324.388527 59.085361 
L 324.518441 62.123144 
L 324.648355 60.598604 
L 324.778268 62.328696 
L 324.908182 60.040651 
L 325.038096 60.982203 
L 325.16801 57.708135 
L 325.297924 62.843571 
L 325.427837 61.740795 
L 325.687665 63.335584 
L 325.947492 54.72553 
L 326.077406 63.399002 
L 326.20732 56.083252 
L 326.337234 62.763384 
L 326.467148 61.291637 
L 326.726975 61.350594 
L 326.856889 60.726747 
L 326.986803 53.92541 
L 327.116717 60.088655 
L 327.24663 59.488569 
L 327.376544 51.966558 
L 327.506458 51.593356 
L 327.636372 62.917211 
L 327.766285 62.880516 
L 327.896199 56.014159 
L 328.156027 61.018359 
L 328.285941 61.06081 
L 328.415854 60.000973 
L 328.545768 49.742623 
L 328.675682 61.576418 
L 328.805596 58.24067 
L 328.93551 49.50662 
L 329.065423 62.671981 
L 329.325251 59.480158 
L 329.455165 61.331138 
L 329.585078 55.044687 
L 329.714992 61.855866 
L 329.844906 62.102965 
L 330.104734 61.550227 
L 330.234647 59.633897 
L 330.364561 49.789138 
L 330.754302 61.703306 
L 330.884216 62.129229 
L 331.01413 57.177112 
L 331.144044 59.819335 
L 331.273958 59.140694 
L 331.403871 51.877329 
L 331.533785 59.153814 
L 331.793613 50.875357 
L 331.923527 50.673511 
L 332.05344 62.927905 
L 332.183354 60.602842 
L 332.313268 61.371029 
L 332.573095 58.716777 
L 332.703009 60.553687 
L 332.832923 53.937721 
L 332.962837 61.62117 
L 333.222664 56.202497 
L 333.352578 60.137949 
L 333.482492 52.706051 
L 333.74232 60.396175 
L 333.872233 48.996755 
L 334.002147 61.477442 
L 334.132061 62.006895 
L 334.261975 50.02256 
L 334.391888 61.520615 
L 334.651716 57.068655 
L 334.911544 60.774841 
L 335.041457 61.575334 
L 335.171371 53.216621 
L 335.301285 52.672756 
L 335.561112 61.627645 
L 335.82094 55.874869 
L 335.950854 51.15667 
L 336.080768 60.762894 
L 336.210681 56.756137 
L 336.340595 57.623702 
L 336.470509 47.505404 
L 336.600423 61.662581 
L 336.730337 60.057005 
L 336.86025 61.951059 
L 336.990164 61.288207 
L 337.120078 61.563457 
L 337.249992 61.428331 
L 337.379905 57.057084 
L 337.509819 61.394645 
L 337.639733 61.890835 
L 337.769647 52.46745 
L 337.899561 60.203781 
L 338.029474 60.562482 
L 338.289302 56.805548 
L 338.54913 60.82738 
L 338.679043 62.308257 
L 338.808957 53.475566 
L 338.938871 61.652025 
L 339.068785 61.369739 
L 339.198698 63.132741 
L 339.328612 58.041936 
L 339.458526 62.360635 
L 339.58844 50.73916 
L 339.718354 58.768496 
L 339.848267 46.006443 
L 339.978181 60.296354 
L 340.108095 60.885803 
L 340.238009 59.094298 
L 340.367922 61.292456 
L 340.497836 57.999037 
L 340.62775 62.225326 
L 340.757664 53.353213 
L 340.887578 54.406737 
L 341.017491 60.128411 
L 341.147405 34.964168 
L 341.277319 63.08503 
L 341.407233 34.414125 
L 341.537147 60.119709 
L 341.66706 61.823626 
L 341.926888 59.464878 
L 342.056802 60.299476 
L 342.186715 58.238053 
L 342.316629 60.869548 
L 342.446543 61.1813 
L 342.576457 49.660353 
L 342.706371 60.479857 
L 342.836284 60.712862 
L 343.096112 60.253343 
L 343.226026 60.124162 
L 343.35594 62.242557 
L 343.485853 61.603954 
L 343.615767 61.864593 
L 343.745681 60.254778 
L 343.875595 51.341695 
L 344.005508 60.563337 
L 344.135422 59.27344 
L 344.265336 60.697977 
L 344.39525 59.92183 
L 344.525164 53.771564 
L 344.655077 61.019377 
L 344.784991 55.481545 
L 344.914905 60.79723 
L 345.044819 59.219257 
L 345.304646 62.09119 
L 345.43456 62.017479 
L 345.564474 59.635715 
L 345.824301 49.153767 
L 345.954215 60.341943 
L 346.084129 61.349485 
L 346.214043 49.329234 
L 346.343957 60.9686 
L 346.47387 60.639534 
L 346.733698 35.39315 
L 346.863612 60.81835 
L 346.993525 60.907667 
L 347.123439 56.092022 
L 347.253353 60.442814 
L 347.383267 60.317373 
L 347.513181 58.47897 
L 347.643094 60.788127 
L 347.773008 60.662772 
L 347.902922 61.636098 
L 348.032836 60.765597 
L 348.16275 58.206727 
L 348.292663 60.645343 
L 348.422577 59.930728 
L 348.552491 62.404369 
L 348.682405 60.31365 
L 348.942232 61.810289 
L 349.072146 61.727471 
L 349.20206 53.022004 
L 349.331974 60.416936 
L 349.461887 38.902672 
L 349.591801 58.349604 
L 349.721715 60.819337 
L 349.851629 57.29271 
L 349.981542 58.216022 
L 350.111456 61.904014 
L 350.371284 60.021665 
L 350.501198 58.4493 
L 350.631111 60.945393 
L 350.890939 59.562755 
L 351.020853 59.604091 
L 351.150767 63.338658 
L 351.28068 56.136563 
L 351.410594 58.077527 
L 351.540508 54.7123 
L 351.670422 62.496173 
L 351.930249 60.259473 
L 352.060163 62.227755 
L 352.190077 61.508828 
L 352.319991 60.096444 
L 352.449904 62.211465 
L 352.579818 59.911356 
L 352.709732 61.067907 
L 352.839646 59.337105 
L 352.96956 61.323446 
L 353.099473 61.369837 
L 353.359301 60.594053 
L 353.489215 62.013646 
L 353.619128 61.905052 
L 353.749042 51.05058 
L 353.878956 62.605962 
L 354.00887 62.007304 
L 354.138784 58.375968 
L 354.268697 59.688342 
L 354.398611 51.899371 
L 354.528525 62.561588 
L 354.658439 62.074458 
L 354.788352 60.829127 
L 354.918266 61.684444 
L 355.04818 56.832304 
L 355.178094 61.977928 
L 355.308008 61.24969 
L 355.437921 62.444104 
L 355.567835 61.270525 
L 355.697749 62.740394 
L 355.957577 61.410417 
L 356.08749 62.858174 
L 356.347318 61.292766 
L 356.737059 63.381598 
L 356.866973 62.457111 
L 356.996887 62.701854 
L 357.126801 61.36513 
L 357.256714 63.050291 
L 357.386628 61.689225 
L 357.516542 61.636177 
L 357.646456 62.900007 
L 357.77637 62.421203 
L 358.036197 62.904586 
L 358.166111 61.468739 
L 358.296025 62.304461 
L 358.425938 61.857446 
L 358.685766 62.957532 
L 358.945594 60.986454 
L 359.075507 61.549601 
L 359.205421 63.112567 
L 359.335335 62.19878 
L 359.465249 62.367341 
L 359.595162 63.623449 
L 359.725076 61.657507 
L 359.85499 62.028011 
L 359.984904 47.865034 
L 360.114818 61.811401 
L 360.504559 61.001032 
L 360.634473 61.354337 
L 360.764387 61.210172 
L 361.024214 62.558077 
L 361.154128 61.894148 
L 361.284042 62.220642 
L 361.413955 61.24446 
L 361.543869 62.468858 
L 361.673783 61.220057 
L 361.803697 61.673002 
L 361.933611 61.464083 
L 362.063524 63.197539 
L 362.193438 60.900026 
L 362.323352 62.495359 
L 362.453266 62.316638 
L 362.583179 61.136797 
L 362.843007 61.552725 
L 363.102835 63.014685 
L 363.362662 62.691879 
L 363.492576 61.253706 
L 363.62249 63.143549 
L 363.882317 61.404701 
L 364.012231 61.513586 
L 364.142145 60.996726 
L 364.272059 61.435058 
L 364.401972 61.365505 
L 364.531886 61.111899 
L 364.6618 61.402548 
L 364.791714 60.953554 
L 364.921628 61.965824 
L 365.051541 61.031745 
L 365.311369 60.996348 
L 365.441283 61.24981 
L 365.571197 60.90515 
L 365.70111 61.303624 
L 365.831024 62.250233 
L 365.960938 61.377429 
L 366.090852 61.970039 
L 366.220765 61.944629 
L 366.350679 61.227 
L 366.480593 62.444443 
L 366.610507 61.184523 
L 366.740421 62.172884 
L 367.000248 60.637729 
L 367.260076 62.014729 
L 367.519903 60.409697 
L 367.779731 61.508796 
L 367.909645 61.199856 
L 368.039558 61.394076 
L 368.169472 62.876588 
L 368.4293 61.482217 
L 368.559214 63.947236 
L 368.689127 61.441474 
L 368.819041 62.004192 
L 368.948955 61.209792 
L 369.078869 62.515372 
L 369.208782 60.46341 
L 369.338696 60.912581 
L 369.46861 62.106267 
L 369.598524 61.001197 
L 369.858351 57.699863 
L 370.118179 62.257838 
L 370.248093 53.333479 
L 370.378007 62.317944 
L 370.50792 62.237362 
L 370.637834 61.29514 
L 370.767748 61.431469 
L 370.897662 51.25914 
L 371.157489 62.450368 
L 371.417317 50.469772 
L 371.547231 52.110401 
L 371.677144 60.462849 
L 371.807058 59.879391 
L 372.066886 62.117655 
L 372.196799 62.647734 
L 372.326713 61.201378 
L 372.456627 61.646278 
L 372.586541 61.172797 
L 372.716455 58.149799 
L 372.846368 47.850333 
L 372.976282 50.183194 
L 373.106196 50.05438 
L 373.23611 62.822559 
L 373.366024 56.59515 
L 373.495937 58.568731 
L 373.625851 58.400892 
L 373.885679 63.943274 
L 374.015592 57.251697 
L 374.145506 43.860203 
L 374.27542 53.867281 
L 374.405334 47.150433 
L 374.535248 50.880828 
L 374.665161 61.538085 
L 374.924989 55.549847 
L 375.054903 61.922176 
L 375.31473 61.42962 
L 375.444644 58.923761 
L 375.574558 62.226269 
L 375.704472 53.508623 
L 375.834385 53.720636 
L 376.094213 63.074854 
L 376.224127 64.026123 
L 376.354041 62.874031 
L 376.483954 63.03581 
L 376.613868 63.695964 
L 376.743782 62.326664 
L 376.873696 53.370866 
L 377.003609 62.771281 
L 377.133523 62.561782 
L 377.263437 62.07918 
L 377.393351 63.695025 
L 377.523265 62.255563 
L 377.653178 63.162445 
L 377.913006 54.120223 
L 378.04292 52.854017 
L 378.172834 50.144902 
L 378.302747 54.082823 
L 378.432661 50.185021 
L 378.562575 62.889858 
L 378.692489 53.609445 
L 378.822402 54.047577 
L 378.952316 62.610734 
L 379.08223 54.446358 
L 379.212144 54.207407 
L 379.342058 62.4144 
L 379.471971 62.376023 
L 379.601885 62.75396 
L 379.731799 54.288332 
L 379.861713 54.061896 
L 379.991627 54.425809 
L 380.12154 53.883779 
L 380.251454 54.566357 
L 380.381368 51.45595 
L 380.511282 51.543527 
L 380.641195 62.271521 
L 380.771109 51.68192 
L 380.901023 62.413362 
L 381.160851 63.13437 
L 381.290764 54.823594 
L 381.550592 54.109911 
L 381.680506 54.649438 
L 381.810419 63.962791 
L 381.940333 54.246238 
L 382.200161 54.619931 
L 382.330075 54.273681 
L 382.589902 62.553093 
L 382.719816 53.644991 
L 382.84973 53.406786 
L 382.979644 54.774279 
L 383.109557 54.925023 
L 383.239471 52.644544 
L 383.369385 54.736192 
L 383.499299 62.907872 
L 383.629212 54.568494 
L 383.759126 54.759578 
L 383.88904 54.635591 
L 384.018954 54.97121 
L 384.278781 54.879948 
L 384.538609 63.856839 
L 384.668523 54.6171 
L 384.668523 54.6171 
" style="fill:none;stroke:#1f77b4;stroke-linecap:square;stroke-width:0.5;"/>
   </g>
   <g id="patch_3">
    <path d="M 43.78125 288.430125 
L 43.78125 22.318125 
" style="fill:none;stroke:#000000;stroke-linecap:square;stroke-linejoin:miter;stroke-width:0.8;"/>
   </g>
   <g id="patch_4">
    <path d="M 400.90125 288.430125 
L 400.90125 22.318125 
" style="fill:none;stroke:#000000;stroke-linecap:square;stroke-linejoin:miter;stroke-width:0.8;"/>
   </g>
   <g id="patch_5">
    <path d="M 43.78125 288.430125 
L 400.90125 288.430125 
" style="fill:none;stroke:#000000;stroke-linecap:square;stroke-linejoin:miter;stroke-width:0.8;"/>
   </g>
   <g id="patch_6">
    <path d="M 43.78125 22.318125 
L 400.90125 22.318125 
" style="fill:none;stroke:#000000;stroke-linecap:square;stroke-linejoin:miter;stroke-width:0.8;"/>
   </g>
   <g id="text_13">
    <!-- Average maxQ per episode, joint 5 -->
    <defs>
     <path d="M 34.1875 63.1875 
L 20.796875 26.90625 
L 47.609375 26.90625 
z
M 28.609375 72.90625 
L 39.796875 72.90625 
L 67.578125 0 
L 57.328125 0 
L 50.6875 18.703125 
L 17.828125 18.703125 
L 11.1875 0 
L 0.78125 0 
z
" id="DejaVuSans-41"/>
     <path d="M 11.71875 12.40625 
L 22.015625 12.40625 
L 22.015625 4 
L 14.015625 -11.625 
L 7.71875 -11.625 
L 11.71875 4 
z
" id="DejaVuSans-2c"/>
     <path d="M 9.421875 54.6875 
L 18.40625 54.6875 
L 18.40625 -0.984375 
Q 18.40625 -11.421875 14.421875 -16.109375 
Q 10.453125 -20.796875 1.609375 -20.796875 
L -1.8125 -20.796875 
L -1.8125 -13.1875 
L 0.59375 -13.1875 
Q 5.71875 -13.1875 7.5625 -10.8125 
Q 9.421875 -8.453125 9.421875 -0.984375 
z
M 9.421875 75.984375 
L 18.40625 75.984375 
L 18.40625 64.59375 
L 9.421875 64.59375 
z
" id="DejaVuSans-6a"/>
     <path d="M 54.890625 33.015625 
L 54.890625 0 
L 45.90625 0 
L 45.90625 32.71875 
Q 45.90625 40.484375 42.875 44.328125 
Q 39.84375 48.1875 33.796875 48.1875 
Q 26.515625 48.1875 22.3125 43.546875 
Q 18.109375 38.921875 18.109375 30.90625 
L 18.109375 0 
L 9.078125 0 
L 9.078125 54.6875 
L 18.109375 54.6875 
L 18.109375 46.1875 
Q 21.34375 51.125 25.703125 53.5625 
Q 30.078125 56 35.796875 56 
Q 45.21875 56 50.046875 50.171875 
Q 54.890625 44.34375 54.890625 33.015625 
z
" id="DejaVuSans-6e"/>
     <path d="M 18.3125 70.21875 
L 18.3125 54.6875 
L 36.8125 54.6875 
L 36.8125 47.703125 
L 18.3125 47.703125 
L 18.3125 18.015625 
Q 18.3125 11.328125 20.140625 9.421875 
Q 21.96875 7.515625 27.59375 7.515625 
L 36.8125 7.515625 
L 36.8125 0 
L 27.59375 0 
Q 17.1875 0 13.234375 3.875 
Q 9.28125 7.765625 9.28125 18.015625 
L 9.28125 47.703125 
L 2.6875 47.703125 
L 2.6875 54.6875 
L 9.28125 54.6875 
L 9.28125 70.21875 
z
" id="DejaVuSans-74"/>
    </defs>
    <g transform="translate(117.706875 16.318125)scale(0.12 -0.12)">
     <use xlink:href="#DejaVuSans-41"/>
     <use x="68.330078" xlink:href="#DejaVuSans-76"/>
     <use x="127.509766" xlink:href="#DejaVuSans-65"/>
     <use x="189.033203" xlink:href="#DejaVuSans-72"/>
     <use x="230.146484" xlink:href="#DejaVuSans-61"/>
     <use x="291.425781" xlink:href="#DejaVuSans-67"/>
     <use x="354.902344" xlink:href="#DejaVuSans-65"/>
     <use x="416.425781" xlink:href="#DejaVuSans-20"/>
     <use x="448.212891" xlink:href="#DejaVuSans-6d"/>
     <use x="545.625" xlink:href="#DejaVuSans-61"/>
     <use x="606.904297" xlink:href="#DejaVuSans-78"/>
     <use x="666.083984" xlink:href="#DejaVuSans-51"/>
     <use x="744.794922" xlink:href="#DejaVuSans-20"/>
     <use x="776.582031" xlink:href="#DejaVuSans-70"/>
     <use x="840.058594" xlink:href="#DejaVuSans-65"/>
     <use x="901.582031" xlink:href="#DejaVuSans-72"/>
     <use x="942.695312" xlink:href="#DejaVuSans-20"/>
     <use x="974.482422" xlink:href="#DejaVuSans-65"/>
     <use x="1036.005859" xlink:href="#DejaVuSans-70"/>
     <use x="1099.482422" xlink:href="#DejaVuSans-69"/>
     <use x="1127.265625" xlink:href="#DejaVuSans-73"/>
     <use x="1179.365234" xlink:href="#DejaVuSans-6f"/>
     <use x="1240.546875" xlink:href="#DejaVuSans-64"/>
     <use x="1304.023438" xlink:href="#DejaVuSans-65"/>
     <use x="1365.546875" xlink:href="#DejaVuSans-2c"/>
     <use x="1397.333984" xlink:href="#DejaVuSans-20"/>
     <use x="1429.121094" xlink:href="#DejaVuSans-6a"/>
     <use x="1456.904297" xlink:href="#DejaVuSans-6f"/>
     <use x="1518.085938" xlink:href="#DejaVuSans-69"/>
     <use x="1545.869141" xlink:href="#DejaVuSans-6e"/>
     <use x="1609.248047" xlink:href="#DejaVuSans-74"/>
     <use x="1648.457031" xlink:href="#DejaVuSans-20"/>
     <use x="1680.244141" xlink:href="#DejaVuSans-35"/>
    </g>
   </g>
  </g>
 </g>
 <defs>
  <clipPath id="p1d9f66642b">
   <rect height="266.112" width="357.12" x="43.78125" y="22.318125"/>
  </clipPath>
 </defs>
</svg>
