<?xml version="1.0" encoding="utf-8" standalone="no"?>
<!DOCTYPE svg PUBLIC "-//W3C//DTD SVG 1.1//EN"
  "http://www.w3.org/Graphics/SVG/1.1/DTD/svg11.dtd">
<!-- Created with matplotlib (http://matplotlib.org/) -->
<svg height="408pt" version="1.1" viewBox="0 0 515 408" width="515pt" xmlns="http://www.w3.org/2000/svg" xmlns:xlink="http://www.w3.org/1999/xlink">
 <defs>
  <style type="text/css">
*{stroke-linecap:butt;stroke-linejoin:round;stroke-miterlimit:100000;}
  </style>
 </defs>
 <g id="figure_1">
  <g id="patch_1">
   <path d="M 0 408.16925 
L 515.7675 408.16925 
L 515.7675 0 
L 0 0 
z
" style="fill:#ffffff;"/>
  </g>
  <g id="axes_1">
   <g id="patch_2">
    <path d="M 46.8975 368.74175 
L 493.2975 368.74175 
L 493.2975 23.14175 
L 46.8975 23.14175 
z
" style="fill:#ffffff;"/>
   </g>
   <g id="line2d_1">
    <path clip-path="url(#p8fad2850ce)" d="M 46.8975 341.839716 
L 47.1765 342.833159 
L 47.4555 341.640338 
L 47.7345 345.189075 
L 48.0135 343.697356 
L 48.2925 349.38106 
L 48.5715 342.686381 
L 48.8505 345.306581 
L 49.1295 345.773847 
L 49.4085 344.900318 
L 49.6875 339.261533 
L 49.9665 344.414399 
L 50.5245 340.996249 
L 50.8035 338.174597 
L 51.0825 338.801063 
L 51.6405 346.03642 
L 52.4775 339.642526 
L 53.0355 345.009035 
L 53.3145 340.689559 
L 53.5935 344.931207 
L 53.8725 342.443052 
L 54.1515 341.028602 
L 54.4305 340.707924 
L 54.7095 339.067807 
L 54.9885 338.513973 
L 55.2675 343.327335 
L 55.5465 341.28551 
L 55.8255 344.463968 
L 56.1045 342.796643 
L 56.3835 343.843338 
L 56.6625 337.448201 
L 57.2205 347.8671 
L 57.4995 340.69122 
L 57.7785 345.038355 
L 58.0575 341.806007 
L 58.3365 340.81955 
L 58.6155 344.35924 
L 58.8945 344.815275 
L 59.1735 348.384512 
L 59.4525 347.621297 
L 59.7315 343.08605 
L 60.0105 343.520769 
L 60.2895 344.190906 
L 60.8475 338.462993 
L 61.1265 332.384196 
L 61.4055 343.751384 
L 61.6845 341.845052 
L 61.9635 342.238313 
L 62.2425 337.012073 
L 62.5215 342.534237 
L 62.8005 342.228277 
L 63.0795 341.62538 
L 63.3585 345.237611 
L 63.6375 342.832797 
L 63.9165 345.898977 
L 64.1955 341.630979 
L 64.4745 341.453635 
L 64.7535 343.380194 
L 65.0325 348.682955 
L 65.3115 343.486771 
L 65.5905 342.146195 
L 65.8695 343.953914 
L 66.1485 339.335269 
L 66.4275 340.863107 
L 66.7065 344.922489 
L 66.9855 339.858849 
L 67.2645 344.323322 
L 67.5435 344.690963 
L 67.8225 341.380944 
L 68.1015 344.612125 
L 68.3805 344.179851 
L 68.6595 345 
L 68.9385 335.235263 
L 69.2175 342.069108 
L 69.4965 343.206655 
L 69.7755 338.534931 
L 70.0545 344.622147 
L 70.3335 343.18652 
L 70.6125 346.528248 
L 70.8915 338.374681 
L 71.4495 346.043098 
L 72.0075 340.53754 
L 72.5655 346.670527 
L 72.8445 339.911377 
L 73.1235 342.799168 
L 73.4025 350.243236 
L 73.6815 341.998532 
L 73.9605 339.279336 
L 74.2395 343.037394 
L 74.5185 341.185194 
L 74.7975 348.601772 
L 75.0765 339.202182 
L 75.3555 345.295256 
L 75.6345 345.61271 
L 75.9135 341.127281 
L 76.1925 340.038392 
L 76.7505 346.029052 
L 77.0295 344.026325 
L 77.3085 348.446719 
L 77.5875 342.464831 
L 77.8665 344.458554 
L 78.1455 342.024429 
L 78.4245 342.618883 
L 78.7035 341.396346 
L 78.9825 344.997297 
L 79.2615 345.815697 
L 79.5405 345.510042 
L 79.8195 341.837561 
L 80.0985 342.60942 
L 80.3775 345.87873 
L 80.6565 341.239891 
L 80.9355 340.351195 
L 81.2145 330.012425 
L 81.4935 343.084965 
L 81.7725 340.577461 
L 82.0515 340.610976 
L 82.3305 336.056859 
L 82.6095 345.415046 
L 82.8885 336.767882 
L 83.4465 344.192578 
L 83.7255 335.230768 
L 84.0045 340.968439 
L 84.2835 338.075288 
L 84.5625 344.588823 
L 84.8415 338.14069 
L 85.1205 340.624261 
L 85.3995 337.094801 
L 85.9575 340.111221 
L 86.2365 337.147737 
L 86.5155 341.294414 
L 86.7945 336.247164 
L 87.0735 336.545072 
L 87.3525 341.220993 
L 87.6315 340.847395 
L 87.9105 337.815303 
L 88.1895 336.8976 
L 88.4685 334.763418 
L 88.7475 335.127416 
L 89.0265 338.220981 
L 89.3055 338.261443 
L 89.5845 338.474298 
L 89.8635 337.391888 
L 90.1425 337.113788 
L 90.4215 338.505942 
L 90.7005 335.564237 
L 90.9795 334.684151 
L 91.2585 335.335969 
L 91.5375 333.5173 
L 92.0955 335.875183 
L 92.3745 334.68943 
L 92.6535 337.435724 
L 92.9325 338.505802 
L 93.2115 336.91389 
L 93.4905 337.867594 
L 93.7695 333.370972 
L 94.0485 333.610604 
L 94.3275 334.960981 
L 94.8855 336.313273 
L 95.1645 333.512229 
L 95.4435 333.256922 
L 95.7225 335.564619 
L 96.0015 333.293458 
L 96.2805 336.695443 
L 96.5595 334.59922 
L 96.8385 338.414057 
L 97.1175 333.163545 
L 97.3965 330.043322 
L 98.2335 333.336535 
L 98.5125 330.676487 
L 98.7915 332.203804 
L 99.0705 332.335488 
L 99.3495 334.66767 
L 99.6285 332.241282 
L 99.9075 335.346133 
L 100.1865 333.744123 
L 100.4655 329.471599 
L 100.7445 332.039484 
L 101.0235 332.232648 
L 101.3025 329.025916 
L 101.5815 332.068829 
L 101.8605 332.592048 
L 102.1395 330.348738 
L 102.4185 332.343839 
L 102.6975 331.304153 
L 102.9765 333.036269 
L 103.2555 333.483613 
L 103.5345 328.78445 
L 104.0925 330.53745 
L 104.3715 330.092229 
L 104.6505 330.153989 
L 104.9295 328.188661 
L 105.2085 328.233616 
L 105.4875 329.884123 
L 105.7665 327.471516 
L 106.0455 328.633505 
L 106.3245 328.21545 
L 106.6035 328.592516 
L 106.8825 323.198515 
L 107.1615 327.047453 
L 107.4405 328.695536 
L 107.7195 328.597791 
L 107.9985 325.26032 
L 108.2775 326.034809 
L 108.5565 326.036855 
L 108.8355 326.747254 
L 109.1145 328.816809 
L 109.3935 326.089582 
L 109.6725 325.909319 
L 109.9515 325.478162 
L 110.2305 322.128501 
L 110.5095 333.162431 
L 110.7885 324.492787 
L 111.0675 324.051338 
L 111.3465 325.291414 
L 111.6255 323.934788 
L 111.9045 323.811968 
L 112.1835 323.987073 
L 112.4625 322.831481 
L 113.0205 326.407958 
L 113.2995 323.490369 
L 113.5785 323.330962 
L 113.8575 320.856329 
L 114.1365 321.24714 
L 114.4155 323.449178 
L 114.6945 323.6885 
L 114.9735 322.506054 
L 115.2525 320.084834 
L 115.5315 326.352293 
L 115.8105 319.843567 
L 116.0895 318.678018 
L 116.3685 320.202149 
L 116.6475 321.000366 
L 116.9265 321.439553 
L 117.2055 320.530924 
L 117.4845 321.311423 
L 117.7635 320.283645 
L 118.3215 315.943473 
L 118.6005 319.935411 
L 118.8795 318.975128 
L 119.1585 321.263606 
L 119.4375 315.256547 
L 119.7165 316.636247 
L 119.9955 316.791715 
L 120.2745 318.980387 
L 120.5535 315.14434 
L 120.8325 318.452277 
L 121.1115 315.270291 
L 121.3905 313.481392 
L 121.6695 316.009349 
L 121.9485 315.86513 
L 122.2275 318.349198 
L 122.5065 313.346455 
L 122.7855 315.255573 
L 123.0645 311.57964 
L 123.3435 310.738096 
L 123.6225 314.996342 
L 123.9015 311.121287 
L 124.1805 318.077624 
L 124.4595 315.429352 
L 124.7385 308.932085 
L 125.0175 317.049997 
L 125.2965 314.833631 
L 125.5755 315.083524 
L 125.8545 310.459987 
L 126.1335 308.289677 
L 126.6915 312.210899 
L 126.9705 312.212459 
L 127.2495 316.121148 
L 127.5285 307.886209 
L 127.8075 310.983539 
L 128.0865 312.64031 
L 128.3655 306.219196 
L 128.6445 307.734628 
L 128.9235 307.558815 
L 129.2025 308.970849 
L 129.4815 306.335081 
L 129.7605 313.182085 
L 130.0395 309.373348 
L 130.3185 303.09672 
L 130.5975 305.173752 
L 130.8765 303.467377 
L 131.1555 304.243168 
L 131.4345 309.823278 
L 131.7135 309.627605 
L 131.9925 307.254692 
L 132.2715 303.173091 
L 132.5505 302.425478 
L 132.8295 303.301851 
L 133.1085 305.005198 
L 133.3875 303.080638 
L 133.6665 304.499149 
L 133.9455 303.566944 
L 134.2245 299.462318 
L 134.5035 299.290213 
L 134.7825 305.258526 
L 135.0615 305.852548 
L 135.3405 300.628347 
L 135.6195 298.643669 
L 135.8985 303.381123 
L 136.1775 295.363662 
L 136.4565 304.650567 
L 136.7355 304.786967 
L 137.0145 298.684586 
L 137.2935 296.358591 
L 137.5725 295.629429 
L 138.1305 303.265945 
L 138.4095 295.54159 
L 138.6885 296.402893 
L 139.2465 300.240041 
L 139.5255 295.294602 
L 139.8045 299.50066 
L 140.0835 307.114645 
L 140.3625 299.713185 
L 140.9205 290.318513 
L 141.1995 291.510932 
L 141.4785 304.554915 
L 142.0365 283.885112 
L 142.5945 302.005704 
L 142.8735 291.114476 
L 143.1525 293.279787 
L 143.4315 288.102624 
L 143.7105 290.492207 
L 143.9895 288.567291 
L 144.2685 288.855962 
L 144.5475 288.105665 
L 144.8265 291.675311 
L 145.1055 292.913055 
L 145.3845 295.881163 
L 145.6635 283.028607 
L 146.2215 290.795145 
L 146.5005 287.631751 
L 146.7795 290.664417 
L 147.0585 284.090434 
L 147.3375 286.0118 
L 147.6165 276.979008 
L 147.8955 281.48738 
L 148.1745 289.153849 
L 148.4535 281.964674 
L 148.7325 288.240066 
L 149.0115 283.629907 
L 149.2905 283.764189 
L 149.5695 285.411829 
L 149.8485 280.867427 
L 150.1275 283.689388 
L 150.4065 287.764032 
L 151.2435 277.146169 
L 151.5225 287.015165 
L 151.8015 282.293584 
L 152.0805 283.854991 
L 152.3595 278.641921 
L 152.6385 278.755874 
L 152.9175 277.564403 
L 153.1965 280.697651 
L 153.4755 279.18404 
L 154.0335 275.714616 
L 154.3125 273.959804 
L 154.5915 280.114916 
L 154.8705 275.486683 
L 155.1495 281.627306 
L 155.4285 273.460442 
L 155.9865 280.710368 
L 156.2655 273.188363 
L 156.5445 273.335503 
L 156.8235 277.00184 
L 157.1025 273.553878 
L 157.3815 279.008879 
L 157.6605 271.552251 
L 157.9395 274.642707 
L 158.2185 272.151748 
L 158.4975 270.919023 
L 158.7765 272.119133 
L 159.0555 268.339683 
L 159.3345 272.473433 
L 159.6135 274.86744 
L 159.8925 275.909344 
L 160.1715 274.991306 
L 160.4505 266.835045 
L 160.7295 272.504823 
L 161.0085 267.584232 
L 161.2875 274.48997 
L 161.5665 264.923312 
L 161.8455 269.629934 
L 162.1245 264.881185 
L 162.4035 270.89832 
L 162.6825 267.176467 
L 162.9615 272.861262 
L 163.2405 265.509134 
L 163.7985 260.512019 
L 164.0775 265.403963 
L 164.3565 264.601941 
L 164.6355 268.098543 
L 164.9145 269.927113 
L 165.1935 264.824628 
L 165.4725 264.48558 
L 165.7515 269.839698 
L 166.0305 262.072582 
L 166.3095 263.383742 
L 166.5885 262.484554 
L 166.8675 258.124404 
L 167.1465 264.889599 
L 167.4255 266.087415 
L 167.7045 265.133924 
L 168.2625 256.972578 
L 168.5415 261.581661 
L 168.8205 271.350704 
L 169.0995 262.727916 
L 169.3785 259.410072 
L 169.6575 259.182719 
L 169.9365 258.654517 
L 170.2155 258.467548 
L 170.4945 255.691931 
L 170.7735 258.52531 
L 171.0525 259.33184 
L 171.3315 254.151786 
L 171.6105 257.73105 
L 171.8895 257.696825 
L 172.4475 270.742682 
L 172.7265 253.326768 
L 173.0055 254.395617 
L 173.2845 270.512707 
L 173.5635 252.772168 
L 173.8425 251.842392 
L 174.1215 256.874934 
L 174.4005 255.203625 
L 174.6795 260.304839 
L 174.9585 250.401736 
L 175.2375 258.446047 
L 175.5165 251.83147 
L 175.7955 255.649032 
L 176.0745 249.56255 
L 176.3535 252.623354 
L 176.6325 241.618119 
L 176.9115 257.127867 
L 177.1905 257.748156 
L 177.4695 251.710535 
L 178.0275 245.626901 
L 178.3065 244.970739 
L 178.5855 247.629028 
L 178.8645 249.090487 
L 179.1435 248.448009 
L 179.4225 246.484957 
L 179.9805 252.502688 
L 180.2595 248.093926 
L 180.5385 246.991267 
L 180.8175 246.713164 
L 181.0965 246.153902 
L 181.3755 247.037636 
L 181.6545 264.545105 
L 181.9335 248.730573 
L 182.2125 249.476377 
L 182.4915 245.49911 
L 182.7705 244.866932 
L 183.0495 238.265838 
L 183.3285 249.679275 
L 183.6075 246.730343 
L 183.8865 248.957243 
L 184.1655 242.759462 
L 184.4445 243.79774 
L 184.7235 245.914645 
L 185.0025 248.910735 
L 185.5605 238.607633 
L 186.1185 242.880538 
L 186.3975 243.197169 
L 186.6765 241.137483 
L 186.9555 247.214459 
L 187.2345 248.568804 
L 187.7925 233.351452 
L 188.0715 249.684074 
L 188.6295 236.636008 
L 188.9085 237.554495 
L 189.1875 253.713536 
L 189.4665 237.49157 
L 190.0245 241.138803 
L 190.5825 234.642467 
L 191.4195 239.900661 
L 191.6985 235.48887 
L 191.9775 239.000414 
L 192.2565 235.755003 
L 192.5355 240.88584 
L 192.8145 241.21142 
L 193.0935 236.247015 
L 193.3725 238.586196 
L 193.6515 236.808302 
L 193.9305 235.979462 
L 194.2095 240.500059 
L 194.4885 237.237548 
L 194.7675 240.855563 
L 195.0465 235.147781 
L 195.3255 249.531245 
L 195.6045 239.234786 
L 195.8835 234.715169 
L 196.1625 227.886674 
L 196.7205 237.215232 
L 196.9995 237.626497 
L 197.2785 230.295248 
L 197.5575 235.508068 
L 197.8365 234.010352 
L 198.1155 234.702223 
L 198.3945 231.468016 
L 198.6735 231.618666 
L 198.9525 232.844723 
L 199.2315 236.073534 
L 199.5105 227.674162 
L 199.7895 224.846413 
L 200.0685 223.514719 
L 200.3475 239.612047 
L 200.6265 225.821182 
L 200.9055 228.009441 
L 201.1845 227.562178 
L 201.4635 224.630552 
L 202.0215 226.387279 
L 202.3005 220.737639 
L 202.5795 211.095396 
L 202.8585 224.645185 
L 203.1375 228.426913 
L 203.4165 222.034232 
L 203.6955 224.725258 
L 203.9745 221.849344 
L 204.2535 230.920535 
L 204.5325 228.375443 
L 204.8115 228.467816 
L 205.0905 225.478824 
L 205.3695 226.596084 
L 205.6485 223.028988 
L 206.2065 233.341571 
L 206.7645 219.950024 
L 207.0435 216.637816 
L 207.3225 227.07486 
L 207.6015 229.991019 
L 207.8805 221.456884 
L 208.1595 219.444675 
L 208.4385 219.942119 
L 208.7175 219.346983 
L 208.9965 219.658053 
L 209.2755 215.340113 
L 209.5545 221.830492 
L 209.8335 212.326267 
L 210.1125 228.66101 
L 210.3915 220.711465 
L 210.6705 222.483742 
L 210.9495 223.175079 
L 211.2285 218.378201 
L 211.5075 225.436296 
L 211.7865 215.715135 
L 212.0655 216.786484 
L 212.3445 219.240188 
L 212.6235 213.018883 
L 212.9025 216.119742 
L 213.1815 216.030179 
L 213.4605 210.689503 
L 213.7395 218.071527 
L 214.0185 213.343257 
L 214.2975 215.683821 
L 214.5765 213.469157 
L 214.8555 214.727499 
L 215.1345 211.250544 
L 215.4135 221.2133 
L 215.6925 209.704415 
L 215.9715 224.965558 
L 216.2505 213.380051 
L 216.5295 216.573469 
L 216.8085 211.348857 
L 217.0875 208.319453 
L 217.3665 210.002833 
L 217.6455 213.363744 
L 217.9245 211.470446 
L 218.2035 210.637556 
L 218.4825 217.49052 
L 219.3195 204.590558 
L 219.5985 213.83543 
L 219.8775 207.901287 
L 220.1565 211.907611 
L 220.4355 205.627665 
L 220.7145 213.525897 
L 220.9935 204.541473 
L 221.2725 218.424496 
L 221.5515 207.48324 
L 221.8305 210.45143 
L 222.1095 210.995369 
L 222.3885 210.069808 
L 222.6675 208.077557 
L 222.9465 200.831776 
L 223.2255 201.788937 
L 223.5045 214.010981 
L 223.7835 202.764251 
L 224.0625 206.095394 
L 224.3415 206.429376 
L 224.6205 201.071706 
L 224.8995 200.508395 
L 225.1785 198.733045 
L 225.4575 199.878205 
L 225.7365 217.124887 
L 226.0155 199.881094 
L 226.2945 203.687024 
L 226.5735 199.962893 
L 226.8525 206.207524 
L 227.1315 198.201631 
L 227.4105 199.239979 
L 227.6895 209.693654 
L 227.9685 205.701543 
L 228.2475 211.578579 
L 228.5265 206.366795 
L 228.8055 198.92243 
L 229.0845 210.560546 
L 229.3635 198.11582 
L 229.6425 194.278262 
L 229.9215 197.225201 
L 230.2005 194.476388 
L 230.4795 200.279154 
L 230.7585 194.522506 
L 231.0375 195.180455 
L 231.3165 197.402282 
L 231.5955 193.348856 
L 231.8745 196.017086 
L 232.1535 209.14703 
L 232.4325 191.949862 
L 232.7115 194.673144 
L 232.9905 195.419428 
L 233.2695 198.913081 
L 233.5485 191.84011 
L 233.8275 193.592149 
L 234.1065 191.60816 
L 234.3855 193.457318 
L 234.6645 204.910465 
L 234.9435 199.081292 
L 235.2225 190.713905 
L 235.5015 196.162523 
L 235.7805 193.47061 
L 236.0595 192.973705 
L 236.3385 195.54524 
L 236.6175 189.687653 
L 236.8965 190.219506 
L 237.1755 191.390661 
L 237.4545 196.239218 
L 237.7335 192.340513 
L 238.0125 190.310361 
L 238.2915 191.898547 
L 238.5705 191.99367 
L 238.8495 192.258139 
L 239.1285 193.466336 
L 239.4075 183.262679 
L 239.6865 188.99644 
L 239.9655 205.388592 
L 240.2445 191.875036 
L 240.5235 190.335269 
L 240.8025 187.613573 
L 241.0815 189.415816 
L 241.3605 188.513577 
L 241.6395 190.466217 
L 241.9185 188.617928 
L 242.1975 191.263925 
L 242.4765 190.631344 
L 242.7555 193.475094 
L 243.0345 202.429353 
L 243.3135 194.057286 
L 243.5925 193.102831 
L 243.8715 198.823631 
L 244.1505 191.557238 
L 244.7085 189.43039 
L 244.9875 191.023821 
L 245.2665 198.685719 
L 245.5455 191.574162 
L 245.8245 190.19265 
L 246.1035 201.74525 
L 246.3825 191.058008 
L 246.6615 190.281665 
L 246.9405 189.865759 
L 247.2195 193.989265 
L 247.4985 190.394868 
L 247.7775 188.851333 
L 248.0565 192.487809 
L 248.3355 188.540316 
L 248.6145 188.050337 
L 248.8935 180.682422 
L 249.1725 191.173028 
L 249.4515 186.012226 
L 249.7305 189.390796 
L 250.0095 186.74674 
L 250.2885 188.226277 
L 250.5675 182.946163 
L 250.8465 188.352389 
L 251.1255 189.063557 
L 251.4045 186.299709 
L 251.6835 185.180996 
L 251.9625 185.610177 
L 252.2415 186.642031 
L 252.5205 187.042686 
L 253.0785 185.236239 
L 253.3575 190.575105 
L 253.6365 186.546531 
L 253.9155 189.761983 
L 254.4735 185.255492 
L 254.7525 185.207748 
L 255.0315 186.490981 
L 255.3105 181.883741 
L 255.5895 188.284454 
L 255.8685 184.744397 
L 256.1475 185.008583 
L 256.4265 178.578524 
L 256.7055 186.881746 
L 256.9845 185.543244 
L 257.2635 186.665148 
L 257.5425 186.600108 
L 257.8215 179.43916 
L 258.1005 186.176057 
L 258.3795 185.501751 
L 258.6585 188.56594 
L 258.9375 185.153331 
L 259.2165 189.029712 
L 259.4955 188.246047 
L 259.7745 185.147332 
L 260.3325 186.619776 
L 260.6115 177.498876 
L 260.8905 177.698889 
L 261.1695 178.964588 
L 261.4485 180.94522 
L 261.7275 178.911794 
L 262.0065 182.200634 
L 262.2855 176.41013 
L 262.8435 185.310762 
L 263.4015 176.00086 
L 263.6805 180.497382 
L 263.9595 182.404648 
L 264.2385 183.088806 
L 264.5175 179.07922 
L 264.7965 183.694219 
L 265.0755 181.863844 
L 265.3545 181.024974 
L 265.6335 179.437064 
L 265.9125 174.782518 
L 266.1915 178.160355 
L 266.4705 174.192478 
L 266.7495 178.080408 
L 267.0285 176.219161 
L 267.3075 177.608517 
L 267.5865 178.33142 
L 267.8655 175.154374 
L 268.1445 175.302777 
L 268.4235 178.203526 
L 268.7025 177.306386 
L 268.9815 179.899849 
L 269.2605 178.655365 
L 269.5395 179.300891 
L 269.8185 179.298076 
L 270.0975 175.845626 
L 270.3765 174.959565 
L 270.6555 176.9662 
L 270.9345 172.848236 
L 271.2135 178.553543 
L 271.4925 180.57068 
L 271.7715 175.073995 
L 272.0505 179.814138 
L 272.3295 180.292294 
L 272.6085 175.542402 
L 272.8875 175.824732 
L 273.1665 174.796803 
L 273.4455 172.763076 
L 273.7245 174.891483 
L 274.0035 174.786188 
L 274.2825 174.850335 
L 274.5615 174.080844 
L 274.8405 169.286603 
L 275.1195 174.32213 
L 275.3985 173.426377 
L 275.6775 175.634261 
L 275.9565 175.060972 
L 276.2355 170.407561 
L 276.5145 169.634242 
L 276.7935 172.598242 
L 277.0725 169.299698 
L 277.3515 168.695143 
L 277.6305 173.177074 
L 277.9095 175.39521 
L 278.1885 168.527502 
L 278.4675 171.168155 
L 278.7465 169.701083 
L 279.0255 170.902246 
L 279.3045 170.902299 
L 279.5835 174.364645 
L 279.8625 173.023881 
L 280.1415 168.313993 
L 280.4205 172.24091 
L 280.6995 167.931007 
L 280.9785 167.542044 
L 281.2575 168.864791 
L 281.5365 170.86176 
L 281.8155 171.360798 
L 282.0945 170.292807 
L 282.3735 165.910482 
L 282.6525 170.086917 
L 282.9315 171.06423 
L 283.4895 166.935066 
L 283.7685 169.888309 
L 284.0475 155.29224 
L 284.3265 168.023087 
L 284.6055 167.808194 
L 284.8845 161.893236 
L 285.1635 166.54351 
L 285.4425 167.945631 
L 285.7215 142.250797 
L 286.2795 163.932323 
L 286.5585 166.175704 
L 286.8375 164.749956 
L 287.1165 161.844505 
L 287.6745 164.518684 
L 287.9535 162.928255 
L 288.2325 155.862212 
L 288.5115 167.879993 
L 288.7905 170.197496 
L 289.0695 166.741002 
L 289.3485 169.191048 
L 290.1855 163.039147 
L 290.4645 166.704859 
L 290.7435 163.535941 
L 291.0225 168.361825 
L 291.3015 166.47575 
L 291.5805 166.393238 
L 291.8595 168.825578 
L 292.1385 166.907644 
L 292.4175 168.973833 
L 292.6965 165.252733 
L 292.9755 166.839166 
L 293.2545 165.756912 
L 293.5335 167.19817 
L 293.8125 162.672287 
L 294.0915 167.731971 
L 294.3705 165.32281 
L 294.6495 165.573813 
L 294.9285 168.461857 
L 295.2075 163.152334 
L 295.4865 164.879278 
L 295.7655 165.615719 
L 296.0445 161.168701 
L 296.3235 164.199431 
L 296.6025 159.218098 
L 296.8815 166.041001 
L 297.1605 161.075924 
L 297.4395 162.943535 
L 297.7185 159.072412 
L 297.9975 161.20947 
L 298.2765 164.832354 
L 298.5555 164.503593 
L 298.8345 159.547018 
L 299.1135 159.905756 
L 299.3925 164.642769 
L 299.6715 158.358342 
L 299.9505 160.459121 
L 300.2295 152.306292 
L 300.5085 160.792759 
L 300.7875 156.814875 
L 301.0665 162.445408 
L 301.3455 153.761503 
L 301.6245 148.975683 
L 301.9035 154.34377 
L 302.4615 154.821428 
L 302.7405 153.298725 
L 303.0195 159.91053 
L 303.2985 159.906076 
L 303.5775 155.73411 
L 303.8565 155.840139 
L 304.1355 155.408887 
L 304.4145 158.618571 
L 304.6935 159.958753 
L 304.9725 160.619286 
L 305.2515 159.465165 
L 305.5305 159.181218 
L 305.8095 157.96175 
L 306.0885 141.805653 
L 306.6465 149.71238 
L 306.9255 147.194006 
L 307.2045 148.696123 
L 307.4835 159.375594 
L 307.7625 157.701399 
L 308.0415 157.285808 
L 308.3205 153.382624 
L 308.5995 156.581927 
L 308.8785 158.401564 
L 309.1575 152.900623 
L 309.4365 157.042101 
L 309.7155 153.629516 
L 309.9945 155.440945 
L 310.2735 154.560414 
L 310.5525 157.395733 
L 311.3895 144.887424 
L 311.6685 150.909784 
L 311.9475 148.185079 
L 312.2265 149.269048 
L 312.5055 151.337301 
L 312.7845 147.26263 
L 313.0635 147.035201 
L 313.3425 147.71803 
L 313.6215 151.440616 
L 313.9005 148.164971 
L 314.1795 153.722586 
L 314.4585 151.088658 
L 314.7375 136.527142 
L 315.0165 142.236002 
L 315.2955 125.504029 
L 315.5745 151.757113 
L 315.8535 134.853022 
L 316.1325 131.196601 
L 316.4115 136.582137 
L 316.6905 132.945084 
L 317.2485 148.785555 
L 317.5275 149.037152 
L 317.8065 132.788202 
L 318.0855 131.686082 
L 318.3645 134.389829 
L 318.6435 135.322458 
L 318.9225 141.999534 
L 319.2015 154.229372 
L 319.4805 147.091567 
L 319.7595 137.084325 
L 320.0385 140.747956 
L 320.3175 131.836223 
L 320.5965 147.826715 
L 320.8755 129.863613 
L 321.4335 147.899622 
L 321.7125 133.479944 
L 321.9915 131.701615 
L 322.2705 149.227805 
L 322.8285 137.887619 
L 323.1075 134.45698 
L 323.3865 126.335388 
L 323.6655 123.664634 
L 324.2235 145.415104 
L 324.5025 124.704065 
L 324.7815 143.465023 
L 325.0605 131.166395 
L 325.3395 138.602462 
L 325.6185 141.758731 
L 325.8975 127.735791 
L 326.1765 132.563137 
L 326.4555 125.941687 
L 326.7345 135.035987 
L 327.0135 133.210558 
L 327.2925 127.289414 
L 327.5715 141.08384 
L 327.8505 126.469614 
L 328.1295 143.587402 
L 328.4085 134.87856 
L 328.6875 118.926148 
L 328.9665 131.50941 
L 329.2455 131.689832 
L 329.5245 120.86764 
L 329.8035 125.149083 
L 330.0825 119.22779 
L 330.3615 118.951246 
L 330.6405 133.149847 
L 330.9195 120.656901 
L 331.1985 121.750082 
L 331.4775 132.981976 
L 331.7565 134.484596 
L 332.0355 121.819498 
L 332.3145 129.031945 
L 332.5935 125.77101 
L 332.8725 135.150597 
L 333.1515 127.401644 
L 333.4305 127.32664 
L 333.7095 122.887294 
L 333.9885 122.375612 
L 334.2675 116.409872 
L 334.5465 125.050149 
L 334.8255 116.508535 
L 335.1045 132.123468 
L 335.3835 122.494982 
L 335.6625 123.141403 
L 335.9415 129.389292 
L 336.2205 121.936443 
L 336.4995 122.791652 
L 336.7785 117.476632 
L 337.0575 125.935966 
L 337.3365 122.898198 
L 337.6155 122.161231 
L 337.8945 129.819473 
L 338.4525 114.788719 
L 338.7315 132.612733 
L 339.0105 125.986678 
L 339.2895 127.633816 
L 339.5685 123.207974 
L 339.8475 116.936228 
L 340.1265 138.920554 
L 340.4055 119.716604 
L 340.6845 131.543194 
L 340.9635 125.82724 
L 341.2425 134.290798 
L 341.5215 124.444714 
L 341.8005 126.216226 
L 342.0795 125.905635 
L 342.3585 114.51628 
L 342.9165 131.439152 
L 343.1955 131.112954 
L 343.4745 130.997733 
L 343.7535 129.383004 
L 344.0325 137.956543 
L 344.3115 123.738854 
L 344.5905 129.56876 
L 344.8695 129.564396 
L 345.1485 125.863937 
L 345.4275 116.576151 
L 345.7065 119.294239 
L 345.9855 123.776791 
L 346.2645 117.758735 
L 346.8225 121.565255 
L 347.1015 108.103463 
L 347.3805 105.940155 
L 347.6595 111.425746 
L 347.9385 110.735285 
L 348.2175 106.194646 
L 348.4965 116.982276 
L 348.7755 108.440773 
L 349.0545 107.29857 
L 349.3335 135.067997 
L 349.6125 108.715156 
L 349.8915 125.324642 
L 350.1705 104.461573 
L 350.4495 104.893976 
L 351.0075 118.701121 
L 351.2865 115.470388 
L 351.5655 108.988793 
L 351.8445 118.278538 
L 352.1235 116.697349 
L 352.4025 119.670968 
L 352.6815 114.525505 
L 352.9605 105.504418 
L 353.5185 101.71832 
L 353.7975 118.520468 
L 354.0765 118.657258 
L 354.3555 108.880066 
L 354.6345 105.784339 
L 354.9135 109.360401 
L 355.1925 115.36241 
L 355.4715 113.698904 
L 355.7505 114.639166 
L 356.0295 102.202878 
L 356.3085 122.559616 
L 356.5875 119.98471 
L 356.8665 119.940049 
L 357.1455 119.030203 
L 357.7035 113.76693 
L 357.9825 105.163427 
L 358.2615 108.811582 
L 358.5405 117.359499 
L 358.8195 110.171737 
L 359.0985 107.892948 
L 359.3775 115.67945 
L 359.6565 118.381552 
L 360.4935 104.629083 
L 361.0515 118.266543 
L 361.3305 99.412215 
L 361.6095 108.116427 
L 361.8885 98.463904 
L 362.1675 102.524258 
L 362.4465 98.228998 
L 362.7255 99.904129 
L 363.5625 114.554441 
L 364.1205 113.120287 
L 364.3995 101.969106 
L 364.6785 103.025203 
L 364.9575 107.574266 
L 365.2365 108.157685 
L 365.5155 98.068477 
L 365.7945 117.618397 
L 366.3525 99.278534 
L 366.6315 115.84662 
L 366.9105 109.720105 
L 367.1895 107.92516 
L 367.4685 104.638318 
L 367.7475 103.154134 
L 368.0265 107.166583 
L 368.3055 106.271432 
L 368.5845 99.798348 
L 368.8635 118.486978 
L 369.1425 95.937557 
L 369.4215 97.338351 
L 369.7005 115.308829 
L 369.9795 112.979019 
L 370.2585 122.744901 
L 370.5375 115.923315 
L 370.8165 117.938759 
L 371.0955 97.239254 
L 371.6535 116.029771 
L 371.9325 109.851784 
L 372.2115 109.749441 
L 372.4905 111.927839 
L 372.7695 112.136451 
L 373.0485 113.096033 
L 373.3275 107.024494 
L 373.6065 105.726674 
L 373.8855 105.037311 
L 374.1645 92.926453 
L 374.4435 111.644298 
L 374.7225 110.137171 
L 375.0015 105.507982 
L 375.2805 112.960593 
L 375.5595 114.807326 
L 375.8385 96.944448 
L 376.1175 113.481711 
L 376.3965 101.762438 
L 376.6755 114.164879 
L 377.2335 109.9469 
L 377.5125 110.452881 
L 377.7915 110.71721 
L 378.0705 103.137693 
L 378.3495 113.584861 
L 379.1865 100.796386 
L 379.4655 109.91175 
L 379.7445 103.874671 
L 380.0235 110.623004 
L 380.3025 110.217449 
L 380.5815 90.37538 
L 380.8605 101.055749 
L 381.1395 100.846569 
L 381.4185 103.858747 
L 381.6975 83.781369 
L 381.9765 92.460483 
L 382.2555 90.160471 
L 382.5345 95.283803 
L 382.8135 103.368598 
L 383.0925 103.503146 
L 383.3715 107.005172 
L 383.6505 108.291601 
L 383.9295 94.65431 
L 384.2085 107.314778 
L 384.4875 103.742607 
L 384.7665 95.820755 
L 385.3245 112.525036 
L 385.6035 101.723891 
L 385.8825 102.429271 
L 386.1615 104.102611 
L 386.7195 96.51687 
L 386.9985 99.174479 
L 387.2775 88.89295 
L 387.5565 98.527078 
L 387.8355 90.827469 
L 388.3935 102.1459 
L 388.6725 100.649887 
L 388.9515 99.906347 
L 389.2305 83.43823 
L 389.5095 104.163261 
L 389.7885 109.437911 
L 390.0675 99.188539 
L 390.3465 93.28491 
L 390.6255 98.962384 
L 390.9045 99.302078 
L 391.1835 98.847113 
L 391.4625 99.913835 
L 391.7415 97.867191 
L 392.0205 85.852638 
L 392.2995 104.192548 
L 392.5785 101.998442 
L 392.8575 105.305647 
L 393.1365 95.645281 
L 393.4155 94.459409 
L 393.6945 90.701563 
L 393.9735 94.026922 
L 394.2525 94.922573 
L 394.5315 93.898437 
L 394.8105 94.633167 
L 395.0895 98.888198 
L 395.3685 93.882447 
L 395.6475 93.83244 
L 395.9265 100.019649 
L 396.2055 98.176116 
L 396.4845 102.239131 
L 397.0425 87.978924 
L 397.3215 93.70455 
L 397.6005 95.095296 
L 398.1585 86.208706 
L 398.7165 93.742942 
L 398.9955 87.124306 
L 399.5535 99.361183 
L 399.8325 101.757776 
L 400.1115 84.050083 
L 400.3905 99.920389 
L 400.6695 91.056612 
L 400.9485 96.724123 
L 401.2275 106.7995 
L 401.5065 99.899257 
L 401.7855 102.190468 
L 402.0645 101.452329 
L 402.3435 107.80069 
L 402.6225 102.025641 
L 402.9015 109.245505 
L 403.1805 87.970442 
L 403.4595 86.730779 
L 403.7385 101.90814 
L 404.0175 100.045192 
L 404.2965 79.982777 
L 404.5755 85.239234 
L 404.8545 97.491728 
L 405.1335 89.398441 
L 405.4125 107.986848 
L 405.6915 87.273095 
L 405.9705 102.646744 
L 406.2495 96.865947 
L 406.5285 75.988377 
L 406.8075 88.63439 
L 407.0865 86.554128 
L 407.3655 96.734226 
L 407.6445 90.183193 
L 407.9235 89.13987 
L 408.2025 86.95776 
L 408.4815 90.061914 
L 408.7605 97.292366 
L 409.0395 88.518785 
L 409.3185 83.776417 
L 409.5975 75.203419 
L 409.8765 73.483328 
L 410.1555 87.940253 
L 410.4345 74.51847 
L 410.9925 101.176078 
L 411.2715 74.216955 
L 411.5505 90.514311 
L 411.8295 95.69456 
L 412.1085 96.039011 
L 412.3875 84.397653 
L 412.6665 85.074016 
L 412.9455 86.564832 
L 413.2245 84.932804 
L 413.5035 84.361212 
L 413.7825 86.560712 
L 414.0615 87.018713 
L 414.3405 84.547746 
L 414.6195 83.142102 
L 414.8985 94.368576 
L 415.1775 86.138433 
L 415.4565 84.467202 
L 415.7355 85.350761 
L 416.0145 83.437956 
L 416.2935 85.439064 
L 416.5725 81.699563 
L 416.8515 83.999642 
L 417.1305 88.329331 
L 417.6885 83.219125 
L 417.9675 92.118402 
L 418.2465 91.698889 
L 418.5255 83.159791 
L 418.8045 83.687294 
L 419.0835 85.527904 
L 419.6415 97.298886 
L 419.9205 84.39801 
L 420.1995 82.386208 
L 420.4785 81.968586 
L 420.7575 83.25586 
L 421.0365 82.263537 
L 421.3155 84.843946 
L 421.8735 80.241634 
L 422.1525 85.06637 
L 422.4315 82.754213 
L 422.7105 83.344459 
L 422.9895 80.36171 
L 423.2685 94.145933 
L 423.5475 76.567398 
L 423.8265 88.158718 
L 424.1055 79.181398 
L 424.3845 90.618365 
L 424.6635 91.360284 
L 424.9425 78.79275 
L 425.2215 79.920045 
L 425.5005 91.257653 
L 425.7795 77.809935 
L 426.0585 78.969949 
L 426.3375 81.049083 
L 426.6165 78.248908 
L 426.8955 80.430277 
L 427.1745 90.653444 
L 427.4535 89.491537 
L 427.7325 81.2809 
L 428.0115 78.600162 
L 428.2905 70.527182 
L 428.5695 88.715249 
L 428.8485 79.693223 
L 429.1275 81.056185 
L 429.4065 63.701542 
L 429.6855 77.491104 
L 430.2435 84.048102 
L 430.5225 77.940851 
L 430.8015 78.054427 
L 431.0805 79.596774 
L 431.3595 64.297892 
L 431.6385 83.779366 
L 431.9175 76.766139 
L 432.1965 65.495457 
L 432.4755 70.640921 
L 432.7545 84.178733 
L 433.0335 79.819071 
L 433.3125 73.04954 
L 433.5915 80.637087 
L 433.8705 82.75712 
L 434.4285 70.943432 
L 434.7075 69.197799 
L 434.9865 76.422202 
L 435.2655 73.764141 
L 435.5445 77.456207 
L 436.1025 70.62471 
L 436.3815 78.94535 
L 436.6605 75.410169 
L 436.9395 74.973697 
L 437.2185 77.222819 
L 437.4975 72.163774 
L 437.7765 70.284935 
L 438.0555 77.924822 
L 438.3345 74.141339 
L 438.6135 73.074064 
L 438.8925 87.302364 
L 439.1715 67.099791 
L 439.4505 59.514613 
L 439.7295 74.856574 
L 440.0085 78.640037 
L 440.5665 69.918819 
L 440.8455 68.702545 
L 441.1245 74.568066 
L 441.4035 75.821783 
L 441.9615 68.446706 
L 442.2405 74.487752 
L 442.5195 70.088133 
L 443.0775 84.517503 
L 443.3565 86.299778 
L 443.6355 83.708258 
L 444.1935 58.395242 
L 444.4725 75.010404 
L 444.7515 84.941967 
L 445.0305 74.342289 
L 445.3095 72.62149 
L 445.5885 73.897997 
L 445.8675 70.890889 
L 446.1465 74.984232 
L 446.4255 56.663785 
L 446.7045 81.729736 
L 446.9835 55.623509 
L 447.2625 70.267388 
L 447.5415 64.780135 
L 447.8205 67.212158 
L 448.3785 75.154533 
L 448.6575 56.020056 
L 448.9365 71.976993 
L 449.2155 58.045179 
L 449.4945 82.970327 
L 450.0525 57.745368 
L 450.3315 66.004072 
L 450.6105 77.971835 
L 450.8895 52.888314 
L 451.1685 76.172857 
L 451.4475 67.247144 
L 451.7265 67.233626 
L 452.0055 55.751516 
L 452.2845 73.942031 
L 452.5635 67.945237 
L 452.8425 69.781594 
L 453.1215 68.934046 
L 453.4005 71.995726 
L 453.6795 67.203776 
L 454.2375 75.420524 
L 454.5165 72.179587 
L 454.7955 75.898366 
L 455.0745 71.483459 
L 455.3535 77.624516 
L 455.6325 67.956846 
L 455.9115 70.2356 
L 456.1905 68.095346 
L 456.4695 68.510521 
L 456.7485 68.102727 
L 457.0275 68.724082 
L 457.3065 68.968085 
L 457.5855 75.53775 
L 457.8645 65.370965 
L 458.1435 65.250593 
L 458.4225 71.351107 
L 458.7015 72.992203 
L 458.9805 71.766626 
L 459.2595 65.403903 
L 459.5385 67.285 
L 459.8175 74.217328 
L 460.0965 67.064139 
L 460.3755 80.72378 
L 460.6545 70.003087 
L 460.9335 78.369237 
L 461.2125 68.92275 
L 461.4915 64.972722 
L 461.7705 73.910744 
L 462.0495 73.696396 
L 462.3285 74.929226 
L 462.6075 77.786046 
L 462.8865 64.218921 
L 463.1655 67.22114 
L 463.4445 65.379204 
L 463.7235 69.885156 
L 464.0025 66.327063 
L 464.2815 67.344058 
L 464.5605 67.285199 
L 464.8395 65.490815 
L 465.1185 67.450763 
L 465.3975 71.946652 
L 465.6765 65.332571 
L 465.9555 64.285498 
L 466.2345 62.421054 
L 466.5135 76.640576 
L 466.7925 64.988414 
L 467.0715 66.61362 
L 467.3505 66.300559 
L 467.6295 60.507621 
L 467.9085 64.46049 
L 468.1875 66.370264 
L 468.4665 71.306529 
L 468.7455 62.408495 
L 469.0245 63.921954 
L 469.3035 66.658843 
L 469.8615 66.043356 
L 470.1405 58.395179 
L 470.4195 65.743528 
L 470.6985 63.339211 
L 470.9775 66.540553 
L 471.2565 65.410785 
L 471.5355 62.09301 
L 471.8145 61.007644 
L 472.0935 64.630254 
L 472.3725 65.725053 
L 472.6515 60.591031 
L 473.2095 72.681179 
L 473.4885 69.784997 
L 473.7675 68.364784 
L 474.0465 63.915393 
L 474.3255 66.669162 
L 474.6045 64.447366 
L 474.8835 64.170339 
L 475.1625 63.292234 
L 475.4415 68.490156 
L 475.7205 63.186365 
L 475.9995 61.976914 
L 476.2785 69.454383 
L 476.5575 71.430754 
L 476.8365 69.673379 
L 477.1155 63.874664 
L 477.6735 61.154672 
L 477.9525 61.809424 
L 478.2315 64.397322 
L 478.5105 73.45265 
L 478.7895 63.057234 
L 479.0685 68.625398 
L 479.3475 62.381655 
L 479.6265 61.621921 
L 479.9055 68.145651 
L 480.4635 60.754997 
L 480.7425 60.95558 
L 481.0215 59.482845 
L 481.3005 59.279269 
L 481.5795 60.601461 
L 481.8585 59.715258 
L 482.4165 54.2744 
L 482.6955 62.076362 
L 482.9745 60.882773 
L 483.2535 60.259352 
L 483.5325 71.21554 
L 483.8115 58.817681 
L 484.0905 59.677822 
L 484.6485 55.205836 
L 484.9275 60.437655 
L 485.2065 70.128393 
L 485.7645 60.722435 
L 486.0435 60.052014 
L 486.3225 64.95796 
L 486.6015 60.52891 
L 486.8805 64.452288 
L 487.1595 52.084036 
L 487.4385 63.91876 
L 487.7175 55.32983 
L 487.9965 56.248053 
L 488.2755 56.299297 
L 488.5545 59.57671 
L 488.8335 55.120566 
L 489.1125 66.154843 
L 489.3915 68.115996 
L 489.6705 55.62926 
L 489.9495 62.161877 
L 490.2285 62.804021 
L 490.5075 56.337076 
L 490.7865 65.566277 
L 491.0655 52.002932 
L 491.3445 59.635593 
L 491.9025 55.199689 
L 492.1815 46.697545 
L 492.4605 56.298754 
L 492.7395 38.613265 
L 493.0185 45.416892 
L 493.0185 45.416892 
" style="fill:none;stroke:#0000ff;stroke-linecap:square;stroke-width:0.5;"/>
   </g>
   <g id="patch_3">
    <path d="M 46.8975 23.14175 
L 493.2975 23.14175 
" style="fill:none;stroke:#000000;stroke-linecap:square;stroke-linejoin:miter;"/>
   </g>
   <g id="patch_4">
    <path d="M 46.8975 368.74175 
L 46.8975 23.14175 
" style="fill:none;stroke:#000000;stroke-linecap:square;stroke-linejoin:miter;"/>
   </g>
   <g id="patch_5">
    <path d="M 46.8975 368.74175 
L 493.2975 368.74175 
" style="fill:none;stroke:#000000;stroke-linecap:square;stroke-linejoin:miter;"/>
   </g>
   <g id="patch_6">
    <path d="M 493.2975 368.74175 
L 493.2975 23.14175 
" style="fill:none;stroke:#000000;stroke-linecap:square;stroke-linejoin:miter;"/>
   </g>
   <g id="matplotlib.axis_1">
    <g id="xtick_1">
     <g id="line2d_2">
      <defs>
       <path d="M 0 0 
L 0 -4 
" id="me9406ae8f6" style="stroke:#000000;stroke-width:0.5;"/>
      </defs>
      <g>
       <use style="stroke:#000000;stroke-width:0.5;" x="46.8975" xlink:href="#me9406ae8f6" y="368.74175"/>
      </g>
     </g>
     <g id="line2d_3">
      <defs>
       <path d="M 0 0 
L 0 4 
" id="m22bda6d811" style="stroke:#000000;stroke-width:0.5;"/>
      </defs>
      <g>
       <use style="stroke:#000000;stroke-width:0.5;" x="46.8975" xlink:href="#m22bda6d811" y="23.14175"/>
      </g>
     </g>
     <g id="text_1">
      <!-- 0 -->
      <defs>
       <path d="M 31.78125 66.40625 
Q 24.171875 66.40625 20.328125 58.90625 
Q 16.5 51.421875 16.5 36.375 
Q 16.5 21.390625 20.328125 13.890625 
Q 24.171875 6.390625 31.78125 6.390625 
Q 39.453125 6.390625 43.28125 13.890625 
Q 47.125 21.390625 47.125 36.375 
Q 47.125 51.421875 43.28125 58.90625 
Q 39.453125 66.40625 31.78125 66.40625 
M 31.78125 74.21875 
Q 44.046875 74.21875 50.515625 64.515625 
Q 56.984375 54.828125 56.984375 36.375 
Q 56.984375 17.96875 50.515625 8.265625 
Q 44.046875 -1.421875 31.78125 -1.421875 
Q 19.53125 -1.421875 13.0625 8.265625 
Q 6.59375 17.96875 6.59375 36.375 
Q 6.59375 54.828125 13.0625 64.515625 
Q 19.53125 74.21875 31.78125 74.21875 
" id="BitstreamVeraSans-Roman-30"/>
      </defs>
      <g transform="translate(43.08 381.859875)scale(0.12 -0.12)">
       <use xlink:href="#BitstreamVeraSans-Roman-30"/>
      </g>
     </g>
    </g>
    <g id="xtick_2">
     <g id="line2d_4">
      <g>
       <use style="stroke:#000000;stroke-width:0.5;" x="102.6975" xlink:href="#me9406ae8f6" y="368.74175"/>
      </g>
     </g>
     <g id="line2d_5">
      <g>
       <use style="stroke:#000000;stroke-width:0.5;" x="102.6975" xlink:href="#m22bda6d811" y="23.14175"/>
      </g>
     </g>
     <g id="text_2">
      <!-- 200 -->
      <defs>
       <path d="M 19.1875 8.296875 
L 53.609375 8.296875 
L 53.609375 0 
L 7.328125 0 
L 7.328125 8.296875 
Q 12.9375 14.109375 22.625 23.890625 
Q 32.328125 33.6875 34.8125 36.53125 
Q 39.546875 41.84375 41.421875 45.53125 
Q 43.3125 49.21875 43.3125 52.78125 
Q 43.3125 58.59375 39.234375 62.25 
Q 35.15625 65.921875 28.609375 65.921875 
Q 23.96875 65.921875 18.8125 64.3125 
Q 13.671875 62.703125 7.8125 59.421875 
L 7.8125 69.390625 
Q 13.765625 71.78125 18.9375 73 
Q 24.125 74.21875 28.421875 74.21875 
Q 39.75 74.21875 46.484375 68.546875 
Q 53.21875 62.890625 53.21875 53.421875 
Q 53.21875 48.921875 51.53125 44.890625 
Q 49.859375 40.875 45.40625 35.40625 
Q 44.1875 33.984375 37.640625 27.21875 
Q 31.109375 20.453125 19.1875 8.296875 
" id="BitstreamVeraSans-Roman-32"/>
      </defs>
      <g transform="translate(91.245 381.859875)scale(0.12 -0.12)">
       <use xlink:href="#BitstreamVeraSans-Roman-32"/>
       <use x="63.623046875" xlink:href="#BitstreamVeraSans-Roman-30"/>
       <use x="127.24609375" xlink:href="#BitstreamVeraSans-Roman-30"/>
      </g>
     </g>
    </g>
    <g id="xtick_3">
     <g id="line2d_6">
      <g>
       <use style="stroke:#000000;stroke-width:0.5;" x="158.4975" xlink:href="#me9406ae8f6" y="368.74175"/>
      </g>
     </g>
     <g id="line2d_7">
      <g>
       <use style="stroke:#000000;stroke-width:0.5;" x="158.4975" xlink:href="#m22bda6d811" y="23.14175"/>
      </g>
     </g>
     <g id="text_3">
      <!-- 400 -->
      <defs>
       <path d="M 37.796875 64.3125 
L 12.890625 25.390625 
L 37.796875 25.390625 
z
M 35.203125 72.90625 
L 47.609375 72.90625 
L 47.609375 25.390625 
L 58.015625 25.390625 
L 58.015625 17.1875 
L 47.609375 17.1875 
L 47.609375 0 
L 37.796875 0 
L 37.796875 17.1875 
L 4.890625 17.1875 
L 4.890625 26.703125 
z
" id="BitstreamVeraSans-Roman-34"/>
      </defs>
      <g transform="translate(147.045 381.859875)scale(0.12 -0.12)">
       <use xlink:href="#BitstreamVeraSans-Roman-34"/>
       <use x="63.623046875" xlink:href="#BitstreamVeraSans-Roman-30"/>
       <use x="127.24609375" xlink:href="#BitstreamVeraSans-Roman-30"/>
      </g>
     </g>
    </g>
    <g id="xtick_4">
     <g id="line2d_8">
      <g>
       <use style="stroke:#000000;stroke-width:0.5;" x="214.2975" xlink:href="#me9406ae8f6" y="368.74175"/>
      </g>
     </g>
     <g id="line2d_9">
      <g>
       <use style="stroke:#000000;stroke-width:0.5;" x="214.2975" xlink:href="#m22bda6d811" y="23.14175"/>
      </g>
     </g>
     <g id="text_4">
      <!-- 600 -->
      <defs>
       <path d="M 33.015625 40.375 
Q 26.375 40.375 22.484375 35.828125 
Q 18.609375 31.296875 18.609375 23.390625 
Q 18.609375 15.53125 22.484375 10.953125 
Q 26.375 6.390625 33.015625 6.390625 
Q 39.65625 6.390625 43.53125 10.953125 
Q 47.40625 15.53125 47.40625 23.390625 
Q 47.40625 31.296875 43.53125 35.828125 
Q 39.65625 40.375 33.015625 40.375 
M 52.59375 71.296875 
L 52.59375 62.3125 
Q 48.875 64.0625 45.09375 64.984375 
Q 41.3125 65.921875 37.59375 65.921875 
Q 27.828125 65.921875 22.671875 59.328125 
Q 17.53125 52.734375 16.796875 39.40625 
Q 19.671875 43.65625 24.015625 45.921875 
Q 28.375 48.1875 33.59375 48.1875 
Q 44.578125 48.1875 50.953125 41.515625 
Q 57.328125 34.859375 57.328125 23.390625 
Q 57.328125 12.15625 50.6875 5.359375 
Q 44.046875 -1.421875 33.015625 -1.421875 
Q 20.359375 -1.421875 13.671875 8.265625 
Q 6.984375 17.96875 6.984375 36.375 
Q 6.984375 53.65625 15.1875 63.9375 
Q 23.390625 74.21875 37.203125 74.21875 
Q 40.921875 74.21875 44.703125 73.484375 
Q 48.484375 72.75 52.59375 71.296875 
" id="BitstreamVeraSans-Roman-36"/>
      </defs>
      <g transform="translate(202.845 381.859875)scale(0.12 -0.12)">
       <use xlink:href="#BitstreamVeraSans-Roman-36"/>
       <use x="63.623046875" xlink:href="#BitstreamVeraSans-Roman-30"/>
       <use x="127.24609375" xlink:href="#BitstreamVeraSans-Roman-30"/>
      </g>
     </g>
    </g>
    <g id="xtick_5">
     <g id="line2d_10">
      <g>
       <use style="stroke:#000000;stroke-width:0.5;" x="270.0975" xlink:href="#me9406ae8f6" y="368.74175"/>
      </g>
     </g>
     <g id="line2d_11">
      <g>
       <use style="stroke:#000000;stroke-width:0.5;" x="270.0975" xlink:href="#m22bda6d811" y="23.14175"/>
      </g>
     </g>
     <g id="text_5">
      <!-- 800 -->
      <defs>
       <path d="M 31.78125 34.625 
Q 24.75 34.625 20.71875 30.859375 
Q 16.703125 27.09375 16.703125 20.515625 
Q 16.703125 13.921875 20.71875 10.15625 
Q 24.75 6.390625 31.78125 6.390625 
Q 38.8125 6.390625 42.859375 10.171875 
Q 46.921875 13.96875 46.921875 20.515625 
Q 46.921875 27.09375 42.890625 30.859375 
Q 38.875 34.625 31.78125 34.625 
M 21.921875 38.8125 
Q 15.578125 40.375 12.03125 44.71875 
Q 8.5 49.078125 8.5 55.328125 
Q 8.5 64.0625 14.71875 69.140625 
Q 20.953125 74.21875 31.78125 74.21875 
Q 42.671875 74.21875 48.875 69.140625 
Q 55.078125 64.0625 55.078125 55.328125 
Q 55.078125 49.078125 51.53125 44.71875 
Q 48 40.375 41.703125 38.8125 
Q 48.828125 37.15625 52.796875 32.3125 
Q 56.78125 27.484375 56.78125 20.515625 
Q 56.78125 9.90625 50.3125 4.234375 
Q 43.84375 -1.421875 31.78125 -1.421875 
Q 19.734375 -1.421875 13.25 4.234375 
Q 6.78125 9.90625 6.78125 20.515625 
Q 6.78125 27.484375 10.78125 32.3125 
Q 14.796875 37.15625 21.921875 38.8125 
M 18.3125 54.390625 
Q 18.3125 48.734375 21.84375 45.5625 
Q 25.390625 42.390625 31.78125 42.390625 
Q 38.140625 42.390625 41.71875 45.5625 
Q 45.3125 48.734375 45.3125 54.390625 
Q 45.3125 60.0625 41.71875 63.234375 
Q 38.140625 66.40625 31.78125 66.40625 
Q 25.390625 66.40625 21.84375 63.234375 
Q 18.3125 60.0625 18.3125 54.390625 
" id="BitstreamVeraSans-Roman-38"/>
      </defs>
      <g transform="translate(258.645 381.859875)scale(0.12 -0.12)">
       <use xlink:href="#BitstreamVeraSans-Roman-38"/>
       <use x="63.623046875" xlink:href="#BitstreamVeraSans-Roman-30"/>
       <use x="127.24609375" xlink:href="#BitstreamVeraSans-Roman-30"/>
      </g>
     </g>
    </g>
    <g id="xtick_6">
     <g id="line2d_12">
      <g>
       <use style="stroke:#000000;stroke-width:0.5;" x="325.8975" xlink:href="#me9406ae8f6" y="368.74175"/>
      </g>
     </g>
     <g id="line2d_13">
      <g>
       <use style="stroke:#000000;stroke-width:0.5;" x="325.8975" xlink:href="#m22bda6d811" y="23.14175"/>
      </g>
     </g>
     <g id="text_6">
      <!-- 1000 -->
      <defs>
       <path d="M 12.40625 8.296875 
L 28.515625 8.296875 
L 28.515625 63.921875 
L 10.984375 60.40625 
L 10.984375 69.390625 
L 28.421875 72.90625 
L 38.28125 72.90625 
L 38.28125 8.296875 
L 54.390625 8.296875 
L 54.390625 0 
L 12.40625 0 
z
" id="BitstreamVeraSans-Roman-31"/>
      </defs>
      <g transform="translate(310.6275 381.859875)scale(0.12 -0.12)">
       <use xlink:href="#BitstreamVeraSans-Roman-31"/>
       <use x="63.623046875" xlink:href="#BitstreamVeraSans-Roman-30"/>
       <use x="127.24609375" xlink:href="#BitstreamVeraSans-Roman-30"/>
       <use x="190.869140625" xlink:href="#BitstreamVeraSans-Roman-30"/>
      </g>
     </g>
    </g>
    <g id="xtick_7">
     <g id="line2d_14">
      <g>
       <use style="stroke:#000000;stroke-width:0.5;" x="381.6975" xlink:href="#me9406ae8f6" y="368.74175"/>
      </g>
     </g>
     <g id="line2d_15">
      <g>
       <use style="stroke:#000000;stroke-width:0.5;" x="381.6975" xlink:href="#m22bda6d811" y="23.14175"/>
      </g>
     </g>
     <g id="text_7">
      <!-- 1200 -->
      <g transform="translate(366.4275 381.859875)scale(0.12 -0.12)">
       <use xlink:href="#BitstreamVeraSans-Roman-31"/>
       <use x="63.623046875" xlink:href="#BitstreamVeraSans-Roman-32"/>
       <use x="127.24609375" xlink:href="#BitstreamVeraSans-Roman-30"/>
       <use x="190.869140625" xlink:href="#BitstreamVeraSans-Roman-30"/>
      </g>
     </g>
    </g>
    <g id="xtick_8">
     <g id="line2d_16">
      <g>
       <use style="stroke:#000000;stroke-width:0.5;" x="437.4975" xlink:href="#me9406ae8f6" y="368.74175"/>
      </g>
     </g>
     <g id="line2d_17">
      <g>
       <use style="stroke:#000000;stroke-width:0.5;" x="437.4975" xlink:href="#m22bda6d811" y="23.14175"/>
      </g>
     </g>
     <g id="text_8">
      <!-- 1400 -->
      <g transform="translate(422.2275 381.859875)scale(0.12 -0.12)">
       <use xlink:href="#BitstreamVeraSans-Roman-31"/>
       <use x="63.623046875" xlink:href="#BitstreamVeraSans-Roman-34"/>
       <use x="127.24609375" xlink:href="#BitstreamVeraSans-Roman-30"/>
       <use x="190.869140625" xlink:href="#BitstreamVeraSans-Roman-30"/>
      </g>
     </g>
    </g>
    <g id="xtick_9">
     <g id="line2d_18">
      <g>
       <use style="stroke:#000000;stroke-width:0.5;" x="493.2975" xlink:href="#me9406ae8f6" y="368.74175"/>
      </g>
     </g>
     <g id="line2d_19">
      <g>
       <use style="stroke:#000000;stroke-width:0.5;" x="493.2975" xlink:href="#m22bda6d811" y="23.14175"/>
      </g>
     </g>
     <g id="text_9">
      <!-- 1600 -->
      <g transform="translate(478.0275 381.859875)scale(0.12 -0.12)">
       <use xlink:href="#BitstreamVeraSans-Roman-31"/>
       <use x="63.623046875" xlink:href="#BitstreamVeraSans-Roman-36"/>
       <use x="127.24609375" xlink:href="#BitstreamVeraSans-Roman-30"/>
       <use x="190.869140625" xlink:href="#BitstreamVeraSans-Roman-30"/>
      </g>
     </g>
    </g>
    <g id="text_10">
     <!-- episode -->
     <defs>
      <path d="M 18.109375 8.203125 
L 18.109375 -20.796875 
L 9.078125 -20.796875 
L 9.078125 54.6875 
L 18.109375 54.6875 
L 18.109375 46.390625 
Q 20.953125 51.265625 25.265625 53.625 
Q 29.59375 56 35.59375 56 
Q 45.5625 56 51.78125 48.09375 
Q 58.015625 40.1875 58.015625 27.296875 
Q 58.015625 14.40625 51.78125 6.484375 
Q 45.5625 -1.421875 35.59375 -1.421875 
Q 29.59375 -1.421875 25.265625 0.953125 
Q 20.953125 3.328125 18.109375 8.203125 
M 48.6875 27.296875 
Q 48.6875 37.203125 44.609375 42.84375 
Q 40.53125 48.484375 33.40625 48.484375 
Q 26.265625 48.484375 22.1875 42.84375 
Q 18.109375 37.203125 18.109375 27.296875 
Q 18.109375 17.390625 22.1875 11.75 
Q 26.265625 6.109375 33.40625 6.109375 
Q 40.53125 6.109375 44.609375 11.75 
Q 48.6875 17.390625 48.6875 27.296875 
" id="BitstreamVeraSans-Roman-70"/>
      <path d="M 45.40625 46.390625 
L 45.40625 75.984375 
L 54.390625 75.984375 
L 54.390625 0 
L 45.40625 0 
L 45.40625 8.203125 
Q 42.578125 3.328125 38.25 0.953125 
Q 33.9375 -1.421875 27.875 -1.421875 
Q 17.96875 -1.421875 11.734375 6.484375 
Q 5.515625 14.40625 5.515625 27.296875 
Q 5.515625 40.1875 11.734375 48.09375 
Q 17.96875 56 27.875 56 
Q 33.9375 56 38.25 53.625 
Q 42.578125 51.265625 45.40625 46.390625 
M 14.796875 27.296875 
Q 14.796875 17.390625 18.875 11.75 
Q 22.953125 6.109375 30.078125 6.109375 
Q 37.203125 6.109375 41.296875 11.75 
Q 45.40625 17.390625 45.40625 27.296875 
Q 45.40625 37.203125 41.296875 42.84375 
Q 37.203125 48.484375 30.078125 48.484375 
Q 22.953125 48.484375 18.875 42.84375 
Q 14.796875 37.203125 14.796875 27.296875 
" id="BitstreamVeraSans-Roman-64"/>
      <path d="M 30.609375 48.390625 
Q 23.390625 48.390625 19.1875 42.75 
Q 14.984375 37.109375 14.984375 27.296875 
Q 14.984375 17.484375 19.15625 11.84375 
Q 23.34375 6.203125 30.609375 6.203125 
Q 37.796875 6.203125 41.984375 11.859375 
Q 46.1875 17.53125 46.1875 27.296875 
Q 46.1875 37.015625 41.984375 42.703125 
Q 37.796875 48.390625 30.609375 48.390625 
M 30.609375 56 
Q 42.328125 56 49.015625 48.375 
Q 55.71875 40.765625 55.71875 27.296875 
Q 55.71875 13.875 49.015625 6.21875 
Q 42.328125 -1.421875 30.609375 -1.421875 
Q 18.84375 -1.421875 12.171875 6.21875 
Q 5.515625 13.875 5.515625 27.296875 
Q 5.515625 40.765625 12.171875 48.375 
Q 18.84375 56 30.609375 56 
" id="BitstreamVeraSans-Roman-6f"/>
      <path d="M 56.203125 29.59375 
L 56.203125 25.203125 
L 14.890625 25.203125 
Q 15.484375 15.921875 20.484375 11.0625 
Q 25.484375 6.203125 34.421875 6.203125 
Q 39.59375 6.203125 44.453125 7.46875 
Q 49.3125 8.734375 54.109375 11.28125 
L 54.109375 2.78125 
Q 49.265625 0.734375 44.1875 -0.34375 
Q 39.109375 -1.421875 33.890625 -1.421875 
Q 20.796875 -1.421875 13.15625 6.1875 
Q 5.515625 13.8125 5.515625 26.8125 
Q 5.515625 40.234375 12.765625 48.109375 
Q 20.015625 56 32.328125 56 
Q 43.359375 56 49.78125 48.890625 
Q 56.203125 41.796875 56.203125 29.59375 
M 47.21875 32.234375 
Q 47.125 39.59375 43.09375 43.984375 
Q 39.0625 48.390625 32.421875 48.390625 
Q 24.90625 48.390625 20.390625 44.140625 
Q 15.875 39.890625 15.1875 32.171875 
z
" id="BitstreamVeraSans-Roman-65"/>
      <path d="M 9.421875 54.6875 
L 18.40625 54.6875 
L 18.40625 0 
L 9.421875 0 
z
M 9.421875 75.984375 
L 18.40625 75.984375 
L 18.40625 64.59375 
L 9.421875 64.59375 
z
" id="BitstreamVeraSans-Roman-69"/>
      <path d="M 44.28125 53.078125 
L 44.28125 44.578125 
Q 40.484375 46.53125 36.375 47.5 
Q 32.28125 48.484375 27.875 48.484375 
Q 21.1875 48.484375 17.84375 46.4375 
Q 14.5 44.390625 14.5 40.28125 
Q 14.5 37.15625 16.890625 35.375 
Q 19.28125 33.59375 26.515625 31.984375 
L 29.59375 31.296875 
Q 39.15625 29.25 43.1875 25.515625 
Q 47.21875 21.78125 47.21875 15.09375 
Q 47.21875 7.46875 41.1875 3.015625 
Q 35.15625 -1.421875 24.609375 -1.421875 
Q 20.21875 -1.421875 15.453125 -0.5625 
Q 10.6875 0.296875 5.421875 2 
L 5.421875 11.28125 
Q 10.40625 8.6875 15.234375 7.390625 
Q 20.0625 6.109375 24.8125 6.109375 
Q 31.15625 6.109375 34.5625 8.28125 
Q 37.984375 10.453125 37.984375 14.40625 
Q 37.984375 18.0625 35.515625 20.015625 
Q 33.0625 21.96875 24.703125 23.78125 
L 21.578125 24.515625 
Q 13.234375 26.265625 9.515625 29.90625 
Q 5.8125 33.546875 5.8125 39.890625 
Q 5.8125 47.609375 11.28125 51.796875 
Q 16.75 56 26.8125 56 
Q 31.78125 56 36.171875 55.265625 
Q 40.578125 54.546875 44.28125 53.078125 
" id="BitstreamVeraSans-Roman-73"/>
     </defs>
     <g transform="translate(246.631875 398.473625)scale(0.12 -0.12)">
      <use xlink:href="#BitstreamVeraSans-Roman-65"/>
      <use x="61.5234375" xlink:href="#BitstreamVeraSans-Roman-70"/>
      <use x="125.0" xlink:href="#BitstreamVeraSans-Roman-69"/>
      <use x="152.783203125" xlink:href="#BitstreamVeraSans-Roman-73"/>
      <use x="204.8828125" xlink:href="#BitstreamVeraSans-Roman-6f"/>
      <use x="266.064453125" xlink:href="#BitstreamVeraSans-Roman-64"/>
      <use x="329.541015625" xlink:href="#BitstreamVeraSans-Roman-65"/>
     </g>
    </g>
   </g>
   <g id="matplotlib.axis_2">
    <g id="ytick_1">
     <g id="line2d_20">
      <defs>
       <path d="M 0 0 
L 4 0 
" id="m205bfccc45" style="stroke:#000000;stroke-width:0.5;"/>
      </defs>
      <g>
       <use style="stroke:#000000;stroke-width:0.5;" x="46.8975" xlink:href="#m205bfccc45" y="368.74175"/>
      </g>
     </g>
     <g id="line2d_21">
      <defs>
       <path d="M 0 0 
L -4 0 
" id="me093e8d668" style="stroke:#000000;stroke-width:0.5;"/>
      </defs>
      <g>
       <use style="stroke:#000000;stroke-width:0.5;" x="493.2975" xlink:href="#me093e8d668" y="368.74175"/>
      </g>
     </g>
     <g id="text_11">
      <!-- 0.0 -->
      <defs>
       <path d="M 10.6875 12.40625 
L 21 12.40625 
L 21 0 
L 10.6875 0 
z
" id="BitstreamVeraSans-Roman-2e"/>
      </defs>
      <g transform="translate(23.81375 372.053)scale(0.12 -0.12)">
       <use xlink:href="#BitstreamVeraSans-Roman-30"/>
       <use x="63.623046875" xlink:href="#BitstreamVeraSans-Roman-2e"/>
       <use x="95.41015625" xlink:href="#BitstreamVeraSans-Roman-30"/>
      </g>
     </g>
    </g>
    <g id="ytick_2">
     <g id="line2d_22">
      <g>
       <use style="stroke:#000000;stroke-width:0.5;" x="46.8975" xlink:href="#m205bfccc45" y="299.62175"/>
      </g>
     </g>
     <g id="line2d_23">
      <g>
       <use style="stroke:#000000;stroke-width:0.5;" x="493.2975" xlink:href="#me093e8d668" y="299.62175"/>
      </g>
     </g>
     <g id="text_12">
      <!-- 0.5 -->
      <defs>
       <path d="M 10.796875 72.90625 
L 49.515625 72.90625 
L 49.515625 64.59375 
L 19.828125 64.59375 
L 19.828125 46.734375 
Q 21.96875 47.46875 24.109375 47.828125 
Q 26.265625 48.1875 28.421875 48.1875 
Q 40.625 48.1875 47.75 41.5 
Q 54.890625 34.8125 54.890625 23.390625 
Q 54.890625 11.625 47.5625 5.09375 
Q 40.234375 -1.421875 26.90625 -1.421875 
Q 22.3125 -1.421875 17.546875 -0.640625 
Q 12.796875 0.140625 7.71875 1.703125 
L 7.71875 11.625 
Q 12.109375 9.234375 16.796875 8.0625 
Q 21.484375 6.890625 26.703125 6.890625 
Q 35.15625 6.890625 40.078125 11.328125 
Q 45.015625 15.765625 45.015625 23.390625 
Q 45.015625 31 40.078125 35.4375 
Q 35.15625 39.890625 26.703125 39.890625 
Q 22.75 39.890625 18.8125 39.015625 
Q 14.890625 38.140625 10.796875 36.28125 
z
" id="BitstreamVeraSans-Roman-35"/>
      </defs>
      <g transform="translate(23.81375 302.933)scale(0.12 -0.12)">
       <use xlink:href="#BitstreamVeraSans-Roman-30"/>
       <use x="63.623046875" xlink:href="#BitstreamVeraSans-Roman-2e"/>
       <use x="95.41015625" xlink:href="#BitstreamVeraSans-Roman-35"/>
      </g>
     </g>
    </g>
    <g id="ytick_3">
     <g id="line2d_24">
      <g>
       <use style="stroke:#000000;stroke-width:0.5;" x="46.8975" xlink:href="#m205bfccc45" y="230.50175"/>
      </g>
     </g>
     <g id="line2d_25">
      <g>
       <use style="stroke:#000000;stroke-width:0.5;" x="493.2975" xlink:href="#me093e8d668" y="230.50175"/>
      </g>
     </g>
     <g id="text_13">
      <!-- 1.0 -->
      <g transform="translate(23.81375 233.813)scale(0.12 -0.12)">
       <use xlink:href="#BitstreamVeraSans-Roman-31"/>
       <use x="63.623046875" xlink:href="#BitstreamVeraSans-Roman-2e"/>
       <use x="95.41015625" xlink:href="#BitstreamVeraSans-Roman-30"/>
      </g>
     </g>
    </g>
    <g id="ytick_4">
     <g id="line2d_26">
      <g>
       <use style="stroke:#000000;stroke-width:0.5;" x="46.8975" xlink:href="#m205bfccc45" y="161.38175"/>
      </g>
     </g>
     <g id="line2d_27">
      <g>
       <use style="stroke:#000000;stroke-width:0.5;" x="493.2975" xlink:href="#me093e8d668" y="161.38175"/>
      </g>
     </g>
     <g id="text_14">
      <!-- 1.5 -->
      <g transform="translate(23.81375 164.693)scale(0.12 -0.12)">
       <use xlink:href="#BitstreamVeraSans-Roman-31"/>
       <use x="63.623046875" xlink:href="#BitstreamVeraSans-Roman-2e"/>
       <use x="95.41015625" xlink:href="#BitstreamVeraSans-Roman-35"/>
      </g>
     </g>
    </g>
    <g id="ytick_5">
     <g id="line2d_28">
      <g>
       <use style="stroke:#000000;stroke-width:0.5;" x="46.8975" xlink:href="#m205bfccc45" y="92.26175"/>
      </g>
     </g>
     <g id="line2d_29">
      <g>
       <use style="stroke:#000000;stroke-width:0.5;" x="493.2975" xlink:href="#me093e8d668" y="92.26175"/>
      </g>
     </g>
     <g id="text_15">
      <!-- 2.0 -->
      <g transform="translate(23.81375 95.573)scale(0.12 -0.12)">
       <use xlink:href="#BitstreamVeraSans-Roman-32"/>
       <use x="63.623046875" xlink:href="#BitstreamVeraSans-Roman-2e"/>
       <use x="95.41015625" xlink:href="#BitstreamVeraSans-Roman-30"/>
      </g>
     </g>
    </g>
    <g id="ytick_6">
     <g id="line2d_30">
      <g>
       <use style="stroke:#000000;stroke-width:0.5;" x="46.8975" xlink:href="#m205bfccc45" y="23.14175"/>
      </g>
     </g>
     <g id="line2d_31">
      <g>
       <use style="stroke:#000000;stroke-width:0.5;" x="493.2975" xlink:href="#me093e8d668" y="23.14175"/>
      </g>
     </g>
     <g id="text_16">
      <!-- 2.5 -->
      <g transform="translate(23.81375 26.453)scale(0.12 -0.12)">
       <use xlink:href="#BitstreamVeraSans-Roman-32"/>
       <use x="63.623046875" xlink:href="#BitstreamVeraSans-Roman-2e"/>
       <use x="95.41015625" xlink:href="#BitstreamVeraSans-Roman-35"/>
      </g>
     </g>
    </g>
    <g id="text_17">
     <!-- average maxQ -->
     <defs>
      <path d="M 45.40625 27.984375 
Q 45.40625 37.75 41.375 43.109375 
Q 37.359375 48.484375 30.078125 48.484375 
Q 22.859375 48.484375 18.828125 43.109375 
Q 14.796875 37.75 14.796875 27.984375 
Q 14.796875 18.265625 18.828125 12.890625 
Q 22.859375 7.515625 30.078125 7.515625 
Q 37.359375 7.515625 41.375 12.890625 
Q 45.40625 18.265625 45.40625 27.984375 
M 54.390625 6.78125 
Q 54.390625 -7.171875 48.1875 -13.984375 
Q 42 -20.796875 29.203125 -20.796875 
Q 24.46875 -20.796875 20.265625 -20.09375 
Q 16.0625 -19.390625 12.109375 -17.921875 
L 12.109375 -9.1875 
Q 16.0625 -11.328125 19.921875 -12.34375 
Q 23.78125 -13.375 27.78125 -13.375 
Q 36.625 -13.375 41.015625 -8.765625 
Q 45.40625 -4.15625 45.40625 5.171875 
L 45.40625 9.625 
Q 42.625 4.78125 38.28125 2.390625 
Q 33.9375 0 27.875 0 
Q 17.828125 0 11.671875 7.65625 
Q 5.515625 15.328125 5.515625 27.984375 
Q 5.515625 40.671875 11.671875 48.328125 
Q 17.828125 56 27.875 56 
Q 33.9375 56 38.28125 53.609375 
Q 42.625 51.21875 45.40625 46.390625 
L 45.40625 54.6875 
L 54.390625 54.6875 
z
" id="BitstreamVeraSans-Roman-67"/>
      <path id="BitstreamVeraSans-Roman-20"/>
      <path d="M 52 44.1875 
Q 55.375 50.25 60.0625 53.125 
Q 64.75 56 71.09375 56 
Q 79.640625 56 84.28125 50.015625 
Q 88.921875 44.046875 88.921875 33.015625 
L 88.921875 0 
L 79.890625 0 
L 79.890625 32.71875 
Q 79.890625 40.578125 77.09375 44.375 
Q 74.3125 48.1875 68.609375 48.1875 
Q 61.625 48.1875 57.5625 43.546875 
Q 53.515625 38.921875 53.515625 30.90625 
L 53.515625 0 
L 44.484375 0 
L 44.484375 32.71875 
Q 44.484375 40.625 41.703125 44.40625 
Q 38.921875 48.1875 33.109375 48.1875 
Q 26.21875 48.1875 22.15625 43.53125 
Q 18.109375 38.875 18.109375 30.90625 
L 18.109375 0 
L 9.078125 0 
L 9.078125 54.6875 
L 18.109375 54.6875 
L 18.109375 46.1875 
Q 21.1875 51.21875 25.484375 53.609375 
Q 29.78125 56 35.6875 56 
Q 41.65625 56 45.828125 52.96875 
Q 50 49.953125 52 44.1875 
" id="BitstreamVeraSans-Roman-6d"/>
      <path d="M 39.40625 66.21875 
Q 28.65625 66.21875 22.328125 58.203125 
Q 16.015625 50.203125 16.015625 36.375 
Q 16.015625 22.609375 22.328125 14.59375 
Q 28.65625 6.59375 39.40625 6.59375 
Q 50.140625 6.59375 56.421875 14.59375 
Q 62.703125 22.609375 62.703125 36.375 
Q 62.703125 50.203125 56.421875 58.203125 
Q 50.140625 66.21875 39.40625 66.21875 
M 53.21875 1.3125 
L 66.21875 -12.890625 
L 54.296875 -12.890625 
L 43.5 -1.21875 
Q 41.890625 -1.3125 41.03125 -1.359375 
Q 40.1875 -1.421875 39.40625 -1.421875 
Q 24.03125 -1.421875 14.8125 8.859375 
Q 5.609375 19.140625 5.609375 36.375 
Q 5.609375 53.65625 14.8125 63.9375 
Q 24.03125 74.21875 39.40625 74.21875 
Q 54.734375 74.21875 63.90625 63.9375 
Q 73.09375 53.65625 73.09375 36.375 
Q 73.09375 23.6875 67.984375 14.640625 
Q 62.890625 5.609375 53.21875 1.3125 
" id="BitstreamVeraSans-Roman-51"/>
      <path d="M 54.890625 54.6875 
L 35.109375 28.078125 
L 55.90625 0 
L 45.3125 0 
L 29.390625 21.484375 
L 13.484375 0 
L 2.875 0 
L 24.125 28.609375 
L 4.6875 54.6875 
L 15.28125 54.6875 
L 29.78125 35.203125 
L 44.28125 54.6875 
z
" id="BitstreamVeraSans-Roman-78"/>
      <path d="M 34.28125 27.484375 
Q 23.390625 27.484375 19.1875 25 
Q 14.984375 22.515625 14.984375 16.5 
Q 14.984375 11.71875 18.140625 8.90625 
Q 21.296875 6.109375 26.703125 6.109375 
Q 34.1875 6.109375 38.703125 11.40625 
Q 43.21875 16.703125 43.21875 25.484375 
L 43.21875 27.484375 
z
M 52.203125 31.203125 
L 52.203125 0 
L 43.21875 0 
L 43.21875 8.296875 
Q 40.140625 3.328125 35.546875 0.953125 
Q 30.953125 -1.421875 24.3125 -1.421875 
Q 15.921875 -1.421875 10.953125 3.296875 
Q 6 8.015625 6 15.921875 
Q 6 25.140625 12.171875 29.828125 
Q 18.359375 34.515625 30.609375 34.515625 
L 43.21875 34.515625 
L 43.21875 35.40625 
Q 43.21875 41.609375 39.140625 45 
Q 35.0625 48.390625 27.6875 48.390625 
Q 23 48.390625 18.546875 47.265625 
Q 14.109375 46.140625 10.015625 43.890625 
L 10.015625 52.203125 
Q 14.9375 54.109375 19.578125 55.046875 
Q 24.21875 56 28.609375 56 
Q 40.484375 56 46.34375 49.84375 
Q 52.203125 43.703125 52.203125 31.203125 
" id="BitstreamVeraSans-Roman-61"/>
      <path d="M 2.984375 54.6875 
L 12.5 54.6875 
L 29.59375 8.796875 
L 46.6875 54.6875 
L 56.203125 54.6875 
L 35.6875 0 
L 23.484375 0 
z
" id="BitstreamVeraSans-Roman-76"/>
      <path d="M 41.109375 46.296875 
Q 39.59375 47.171875 37.8125 47.578125 
Q 36.03125 48 33.890625 48 
Q 26.265625 48 22.1875 43.046875 
Q 18.109375 38.09375 18.109375 28.8125 
L 18.109375 0 
L 9.078125 0 
L 9.078125 54.6875 
L 18.109375 54.6875 
L 18.109375 46.1875 
Q 20.953125 51.171875 25.484375 53.578125 
Q 30.03125 56 36.53125 56 
Q 37.453125 56 38.578125 55.875 
Q 39.703125 55.765625 41.0625 55.515625 
z
" id="BitstreamVeraSans-Roman-72"/>
     </defs>
     <g transform="translate(16.318125 240.208625)rotate(-90.0)scale(0.12 -0.12)">
      <use xlink:href="#BitstreamVeraSans-Roman-61"/>
      <use x="61.279296875" xlink:href="#BitstreamVeraSans-Roman-76"/>
      <use x="120.458984375" xlink:href="#BitstreamVeraSans-Roman-65"/>
      <use x="181.982421875" xlink:href="#BitstreamVeraSans-Roman-72"/>
      <use x="223.095703125" xlink:href="#BitstreamVeraSans-Roman-61"/>
      <use x="284.375" xlink:href="#BitstreamVeraSans-Roman-67"/>
      <use x="347.8515625" xlink:href="#BitstreamVeraSans-Roman-65"/>
      <use x="409.375" xlink:href="#BitstreamVeraSans-Roman-20"/>
      <use x="441.162109375" xlink:href="#BitstreamVeraSans-Roman-6d"/>
      <use x="538.57421875" xlink:href="#BitstreamVeraSans-Roman-61"/>
      <use x="599.853515625" xlink:href="#BitstreamVeraSans-Roman-78"/>
      <use x="659.033203125" xlink:href="#BitstreamVeraSans-Roman-51"/>
     </g>
    </g>
   </g>
   <g id="text_18">
    <!-- Average maxQ per episode, joint 3 -->
    <defs>
     <path d="M 11.71875 12.40625 
L 22.015625 12.40625 
L 22.015625 4 
L 14.015625 -11.625 
L 7.71875 -11.625 
L 11.71875 4 
z
" id="BitstreamVeraSans-Roman-2c"/>
     <path d="M 40.578125 39.3125 
Q 47.65625 37.796875 51.625 33 
Q 55.609375 28.21875 55.609375 21.1875 
Q 55.609375 10.40625 48.1875 4.484375 
Q 40.765625 -1.421875 27.09375 -1.421875 
Q 22.515625 -1.421875 17.65625 -0.515625 
Q 12.796875 0.390625 7.625 2.203125 
L 7.625 11.71875 
Q 11.71875 9.328125 16.59375 8.109375 
Q 21.484375 6.890625 26.8125 6.890625 
Q 36.078125 6.890625 40.9375 10.546875 
Q 45.796875 14.203125 45.796875 21.1875 
Q 45.796875 27.640625 41.28125 31.265625 
Q 36.765625 34.90625 28.71875 34.90625 
L 20.21875 34.90625 
L 20.21875 43.015625 
L 29.109375 43.015625 
Q 36.375 43.015625 40.234375 45.921875 
Q 44.09375 48.828125 44.09375 54.296875 
Q 44.09375 59.90625 40.109375 62.90625 
Q 36.140625 65.921875 28.71875 65.921875 
Q 24.65625 65.921875 20.015625 65.03125 
Q 15.375 64.15625 9.8125 62.3125 
L 9.8125 71.09375 
Q 15.4375 72.65625 20.34375 73.4375 
Q 25.25 74.21875 29.59375 74.21875 
Q 40.828125 74.21875 47.359375 69.109375 
Q 53.90625 64.015625 53.90625 55.328125 
Q 53.90625 49.265625 50.4375 45.09375 
Q 46.96875 40.921875 40.578125 39.3125 
" id="BitstreamVeraSans-Roman-33"/>
     <path d="M 18.3125 70.21875 
L 18.3125 54.6875 
L 36.8125 54.6875 
L 36.8125 47.703125 
L 18.3125 47.703125 
L 18.3125 18.015625 
Q 18.3125 11.328125 20.140625 9.421875 
Q 21.96875 7.515625 27.59375 7.515625 
L 36.8125 7.515625 
L 36.8125 0 
L 27.59375 0 
Q 17.1875 0 13.234375 3.875 
Q 9.28125 7.765625 9.28125 18.015625 
L 9.28125 47.703125 
L 2.6875 47.703125 
L 2.6875 54.6875 
L 9.28125 54.6875 
L 9.28125 70.21875 
z
" id="BitstreamVeraSans-Roman-74"/>
     <path d="M 54.890625 33.015625 
L 54.890625 0 
L 45.90625 0 
L 45.90625 32.71875 
Q 45.90625 40.484375 42.875 44.328125 
Q 39.84375 48.1875 33.796875 48.1875 
Q 26.515625 48.1875 22.3125 43.546875 
Q 18.109375 38.921875 18.109375 30.90625 
L 18.109375 0 
L 9.078125 0 
L 9.078125 54.6875 
L 18.109375 54.6875 
L 18.109375 46.1875 
Q 21.34375 51.125 25.703125 53.5625 
Q 30.078125 56 35.796875 56 
Q 45.21875 56 50.046875 50.171875 
Q 54.890625 44.34375 54.890625 33.015625 
" id="BitstreamVeraSans-Roman-6e"/>
     <path d="M 9.421875 54.6875 
L 18.40625 54.6875 
L 18.40625 -0.984375 
Q 18.40625 -11.421875 14.421875 -16.109375 
Q 10.453125 -20.796875 1.609375 -20.796875 
L -1.8125 -20.796875 
L -1.8125 -13.1875 
L 0.59375 -13.1875 
Q 5.71875 -13.1875 7.5625 -10.8125 
Q 9.421875 -8.453125 9.421875 -0.984375 
z
M 9.421875 75.984375 
L 18.40625 75.984375 
L 18.40625 64.59375 
L 9.421875 64.59375 
z
" id="BitstreamVeraSans-Roman-6a"/>
     <path d="M 34.1875 63.1875 
L 20.796875 26.90625 
L 47.609375 26.90625 
z
M 28.609375 72.90625 
L 39.796875 72.90625 
L 67.578125 0 
L 57.328125 0 
L 50.6875 18.703125 
L 17.828125 18.703125 
L 11.1875 0 
L 0.78125 0 
z
" id="BitstreamVeraSans-Roman-41"/>
    </defs>
    <g transform="translate(144.53625 18.14175)scale(0.144 -0.144)">
     <use xlink:href="#BitstreamVeraSans-Roman-41"/>
     <use x="68.330078125" xlink:href="#BitstreamVeraSans-Roman-76"/>
     <use x="127.509765625" xlink:href="#BitstreamVeraSans-Roman-65"/>
     <use x="189.033203125" xlink:href="#BitstreamVeraSans-Roman-72"/>
     <use x="230.146484375" xlink:href="#BitstreamVeraSans-Roman-61"/>
     <use x="291.42578125" xlink:href="#BitstreamVeraSans-Roman-67"/>
     <use x="354.90234375" xlink:href="#BitstreamVeraSans-Roman-65"/>
     <use x="416.42578125" xlink:href="#BitstreamVeraSans-Roman-20"/>
     <use x="448.212890625" xlink:href="#BitstreamVeraSans-Roman-6d"/>
     <use x="545.625" xlink:href="#BitstreamVeraSans-Roman-61"/>
     <use x="606.904296875" xlink:href="#BitstreamVeraSans-Roman-78"/>
     <use x="666.083984375" xlink:href="#BitstreamVeraSans-Roman-51"/>
     <use x="744.794921875" xlink:href="#BitstreamVeraSans-Roman-20"/>
     <use x="776.58203125" xlink:href="#BitstreamVeraSans-Roman-70"/>
     <use x="840.05859375" xlink:href="#BitstreamVeraSans-Roman-65"/>
     <use x="901.58203125" xlink:href="#BitstreamVeraSans-Roman-72"/>
     <use x="942.6953125" xlink:href="#BitstreamVeraSans-Roman-20"/>
     <use x="974.482421875" xlink:href="#BitstreamVeraSans-Roman-65"/>
     <use x="1036.005859375" xlink:href="#BitstreamVeraSans-Roman-70"/>
     <use x="1099.482421875" xlink:href="#BitstreamVeraSans-Roman-69"/>
     <use x="1127.265625" xlink:href="#BitstreamVeraSans-Roman-73"/>
     <use x="1179.365234375" xlink:href="#BitstreamVeraSans-Roman-6f"/>
     <use x="1240.546875" xlink:href="#BitstreamVeraSans-Roman-64"/>
     <use x="1304.0234375" xlink:href="#BitstreamVeraSans-Roman-65"/>
     <use x="1365.546875" xlink:href="#BitstreamVeraSans-Roman-2c"/>
     <use x="1397.333984375" xlink:href="#BitstreamVeraSans-Roman-20"/>
     <use x="1429.12109375" xlink:href="#BitstreamVeraSans-Roman-6a"/>
     <use x="1456.904296875" xlink:href="#BitstreamVeraSans-Roman-6f"/>
     <use x="1518.0859375" xlink:href="#BitstreamVeraSans-Roman-69"/>
     <use x="1545.869140625" xlink:href="#BitstreamVeraSans-Roman-6e"/>
     <use x="1609.248046875" xlink:href="#BitstreamVeraSans-Roman-74"/>
     <use x="1648.45703125" xlink:href="#BitstreamVeraSans-Roman-20"/>
     <use x="1680.244140625" xlink:href="#BitstreamVeraSans-Roman-33"/>
    </g>
   </g>
  </g>
 </g>
 <defs>
  <clipPath id="p8fad2850ce">
   <rect height="345.6" width="446.4" x="46.8975" y="23.14175"/>
  </clipPath>
 </defs>
</svg>
