<?xml version="1.0" encoding="utf-8" standalone="no"?>
<!DOCTYPE svg PUBLIC "-//W3C//DTD SVG 1.1//EN"
  "http://www.w3.org/Graphics/SVG/1.1/DTD/svg11.dtd">
<!-- Created with matplotlib (http://matplotlib.org/) -->
<svg height="408pt" version="1.1" viewBox="0 0 511 408" width="511pt" xmlns="http://www.w3.org/2000/svg" xmlns:xlink="http://www.w3.org/1999/xlink">
 <defs>
  <style type="text/css">
*{stroke-linecap:butt;stroke-linejoin:round;stroke-miterlimit:100000;}
  </style>
 </defs>
 <g id="figure_1">
  <g id="patch_1">
   <path d="M 0 408.16925 
L 511.95 408.16925 
L 511.95 0 
L 0 0 
z
" style="fill:#ffffff;"/>
  </g>
  <g id="axes_1">
   <g id="patch_2">
    <path d="M 46.8975 368.74175 
L 493.2975 368.74175 
L 493.2975 23.14175 
L 46.8975 23.14175 
z
" style="fill:#ffffff;"/>
   </g>
   <g id="line2d_1">
    <path clip-path="url(#pe517682d5c)" d="M 47.535214 156.490154 
L 48.172929 182.905788 
L 48.810643 216.323952 
L 49.448357 203.824975 
L 50.086071 215.859556 
L 50.723786 186.584065 
L 51.3615 176.552286 
L 51.999214 201.653113 
L 52.636929 204.870939 
L 53.274643 183.606637 
L 53.912357 179.072056 
L 54.550071 175.362546 
L 55.187786 198.496797 
L 55.8255 163.281154 
L 56.463214 179.536564 
L 57.100929 160.272906 
L 57.738643 171.538895 
L 58.376357 201.495312 
L 59.014071 212.865848 
L 59.651786 167.582691 
L 60.2895 175.120096 
L 60.927214 193.016034 
L 61.564929 218.800372 
L 62.202643 186.115566 
L 62.840357 189.051376 
L 63.478071 196.571956 
L 64.115786 194.984181 
L 64.7535 179.123921 
L 65.391214 196.378618 
L 66.028929 187.154804 
L 66.666643 189.058632 
L 67.304357 177.321253 
L 67.942071 142.4215 
L 68.579786 181.417565 
L 69.2175 164.009677 
L 69.855214 204.956588 
L 70.492929 174.377556 
L 71.130643 193.16822 
L 71.768357 205.114585 
L 72.406071 224.70685 
L 73.043786 215.65674 
L 73.6815 185.421957 
L 74.319214 168.472601 
L 74.956929 211.823152 
L 76.232357 169.983292 
L 76.870071 204.478852 
L 77.507786 150.699331 
L 78.1455 206.239272 
L 78.783214 135.487261 
L 79.420929 106.01937 
L 80.058643 180.758972 
L 80.696357 199.085488 
L 81.334071 161.11338 
L 82.6095 197.328627 
L 83.247214 204.188492 
L 83.884929 176.085714 
L 84.522643 189.05024 
L 85.160357 185.323049 
L 85.798071 189.995481 
L 86.435786 181.145551 
L 87.0735 200.504372 
L 87.711214 172.119436 
L 88.348929 191.336302 
L 88.986643 205.758088 
L 89.624357 213.397414 
L 90.262071 153.260738 
L 90.899786 232.474132 
L 91.5375 203.34954 
L 92.175214 199.09558 
L 92.812929 188.299405 
L 93.450643 201.381431 
L 94.088357 193.661672 
L 94.726071 125.50271 
L 95.363786 168.843666 
L 96.0015 140.778138 
L 96.639214 191.52834 
L 97.276929 184.676352 
L 97.914643 194.532141 
L 98.552357 181.500282 
L 99.190071 89.546882 
L 99.827786 173.661642 
L 100.4655 182.977676 
L 101.103214 178.2475 
L 101.740929 208.847578 
L 102.378643 172.471994 
L 103.016357 187.645883 
L 103.654071 207.167521 
L 104.291786 182.292644 
L 104.9295 203.172955 
L 105.567214 217.171136 
L 106.204929 169.407372 
L 106.842643 171.495965 
L 107.480357 167.335555 
L 108.118071 156.552761 
L 108.755786 208.104557 
L 109.3935 203.209291 
L 110.031214 168.17651 
L 110.668929 368.74175 
L 111.306643 223.138371 
L 111.944357 202.505786 
L 112.582071 162.748592 
L 113.8575 213.566546 
L 114.495214 210.475481 
L 115.132929 194.913673 
L 115.770643 190.15998 
L 116.408357 153.744792 
L 117.046071 201.37999 
L 117.683786 214.10579 
L 118.3215 136.321421 
L 118.959214 159.628463 
L 119.596929 194.470865 
L 120.872357 177.881806 
L 121.510071 185.258926 
L 122.147786 174.447812 
L 122.7855 187.876089 
L 123.423214 165.504369 
L 124.060929 139.171627 
L 124.698643 166.893419 
L 125.336357 159.115105 
L 125.974071 206.609602 
L 126.611786 146.790489 
L 127.2495 193.149967 
L 127.887214 192.728543 
L 128.524929 192.48576 
L 129.162643 192.410981 
L 129.800357 168.72891 
L 130.438071 198.487466 
L 131.075786 184.853166 
L 131.7135 189.438938 
L 132.351214 210.972028 
L 132.988929 186.5728 
L 133.626643 173.980779 
L 134.264357 204.712877 
L 134.902071 109.532529 
L 135.539786 187.582854 
L 136.1775 223.230114 
L 136.815214 199.604438 
L 137.452929 168.294656 
L 138.090643 209.990334 
L 138.728357 204.416558 
L 139.366071 193.274089 
L 140.003786 196.599248 
L 140.6415 192.565992 
L 141.279214 199.748738 
L 141.916929 175.062038 
L 142.554643 217.612719 
L 143.192357 194.59904 
L 143.830071 207.162561 
L 144.467786 172.549084 
L 145.1055 191.24091 
L 145.743214 199.137764 
L 146.380929 200.394616 
L 147.018643 208.342342 
L 147.656357 165.751218 
L 148.294071 203.904036 
L 148.931786 195.569841 
L 149.5695 213.009892 
L 150.207214 212.685728 
L 151.482643 192.245866 
L 152.120357 170.64235 
L 152.758071 179.502501 
L 153.395786 178.076571 
L 154.0335 156.716517 
L 154.671214 207.223941 
L 155.308929 204.304032 
L 155.946643 173.668721 
L 156.584357 191.256405 
L 157.222071 180.854307 
L 157.859786 185.543222 
L 158.4975 202.561071 
L 159.135214 125.008901 
L 159.772929 158.316512 
L 160.410643 169.24751 
L 161.048357 171.025186 
L 161.686071 218.625607 
L 162.323786 189.901369 
L 163.599214 168.004637 
L 164.236929 197.759575 
L 164.874643 180.623907 
L 165.512357 198.202521 
L 166.150071 186.686907 
L 166.787786 193.156039 
L 167.4255 172.013456 
L 168.063214 182.038856 
L 168.700929 166.050486 
L 169.338643 187.099578 
L 169.976357 190.416308 
L 170.614071 197.322277 
L 171.251786 175.349688 
L 171.8895 197.168043 
L 172.527214 153.205593 
L 173.164929 168.056854 
L 173.802643 198.85818 
L 174.440357 368.74175 
L 175.078071 143.705357 
L 175.715786 186.796259 
L 176.3535 213.778065 
L 176.991214 191.655692 
L 177.628929 160.627409 
L 178.266643 162.152979 
L 178.904357 154.41165 
L 179.542071 191.944425 
L 180.179786 189.87299 
L 180.8175 198.601054 
L 181.455214 187.893214 
L 182.092929 159.387274 
L 182.730643 184.719338 
L 183.368357 150.008778 
L 184.006071 185.22292 
L 184.643786 204.438966 
L 185.2815 192.122578 
L 185.919214 152.679525 
L 186.556929 195.545207 
L 187.194643 206.887407 
L 187.832357 166.050344 
L 188.470071 219.124427 
L 189.107786 185.007605 
L 189.7455 212.353386 
L 190.383214 207.860025 
L 191.020929 169.002537 
L 191.658643 202.714203 
L 192.296357 222.486449 
L 192.934071 191.113317 
L 193.571786 192.516991 
L 194.2095 215.142374 
L 195.484929 162.223388 
L 196.122643 175.189555 
L 196.760357 213.199707 
L 197.398071 172.531091 
L 198.035786 191.71418 
L 198.6735 171.688762 
L 199.311214 118.477503 
L 200.586643 203.870667 
L 201.224357 173.270178 
L 201.862071 163.509682 
L 202.499786 204.868297 
L 203.1375 200.507294 
L 203.775214 215.27248 
L 204.412929 211.00051 
L 205.050643 168.757611 
L 205.688357 169.481132 
L 206.326071 216.578904 
L 206.963786 172.592312 
L 207.6015 211.422973 
L 208.239214 177.464197 
L 208.876929 185.21753 
L 209.514643 189.971088 
L 210.152357 179.101486 
L 210.790071 301.647433 
L 211.427786 270.216663 
L 212.0655 256.283159 
L 212.703214 253.42236 
L 213.340929 239.80633 
L 213.978643 232.203248 
L 214.616357 227.889735 
L 215.254071 210.285878 
L 215.891786 201.928921 
L 216.5295 198.795889 
L 217.167214 192.88431 
L 217.804929 180.191442 
L 218.442643 181.41068 
L 219.080357 171.57823 
L 219.718071 180.244109 
L 220.355786 169.157355 
L 221.631214 169.339806 
L 222.268929 166.33417 
L 222.906643 160.031894 
L 224.182071 155.020725 
L 224.819786 143.609385 
L 225.4575 157.6949 
L 226.095214 135.645067 
L 226.732929 146.960845 
L 227.370643 150.55524 
L 228.008357 147.047361 
L 228.646071 148.747082 
L 229.283786 142.256014 
L 229.9215 146.411753 
L 230.559214 147.03544 
L 231.196929 139.777439 
L 231.834643 139.93485 
L 232.472357 140.479943 
L 233.110071 146.742903 
L 233.747786 139.182044 
L 234.3855 137.699561 
L 235.023214 145.956148 
L 235.660929 136.624518 
L 236.298643 133.998456 
L 236.936357 138.10314 
L 237.574071 131.448162 
L 238.211786 368.74175 
L 238.8495 138.467869 
L 239.487214 130.776414 
L 240.124929 134.679173 
L 240.762643 131.409863 
L 241.400357 134.149369 
L 242.038071 123.236418 
L 242.675786 135.398507 
L 243.3135 135.852337 
L 243.951214 134.596037 
L 244.588929 145.780101 
L 245.226643 127.195596 
L 245.864357 125.274638 
L 246.502071 130.624566 
L 247.139786 118.367635 
L 247.7775 130.129081 
L 248.415214 134.312913 
L 249.690643 118.509434 
L 250.328357 131.894995 
L 250.966071 118.117631 
L 251.603786 129.840951 
L 252.2415 121.859269 
L 252.879214 115.617411 
L 253.516929 119.393366 
L 254.154643 128.024726 
L 254.792357 127.134927 
L 255.430071 142.957674 
L 256.067786 121.208983 
L 256.7055 115.473539 
L 257.343214 121.337758 
L 257.980929 124.57151 
L 258.618643 118.518179 
L 259.256357 126.868505 
L 259.894071 113.667133 
L 260.531786 103.304946 
L 261.1695 115.616672 
L 261.807214 116.559164 
L 262.444929 122.39355 
L 263.082643 136.503432 
L 263.720357 112.837896 
L 264.358071 123.728574 
L 264.995786 126.049944 
L 265.6335 166.661282 
L 266.271214 112.720462 
L 266.908929 102.999227 
L 267.546643 104.522026 
L 268.184357 109.140343 
L 268.822071 110.943034 
L 269.459786 110.984964 
L 270.0975 126.609707 
L 270.735214 114.076284 
L 271.372929 107.459832 
L 272.010643 116.700008 
L 272.648357 102.662899 
L 273.286071 96.373876 
L 273.923786 88.849108 
L 274.5615 127.402175 
L 275.199214 119.489758 
L 275.836929 108.439381 
L 276.474643 112.051493 
L 277.112357 91.900858 
L 277.750071 122.769751 
L 278.387786 128.338145 
L 279.0255 100.903026 
L 279.663214 128.13962 
L 280.300929 99.845436 
L 280.938643 107.009347 
L 282.214071 95.921907 
L 282.851786 119.532739 
L 283.4895 96.865013 
L 284.127214 103.012706 
L 284.764929 94.014486 
L 285.402643 97.67499 
L 286.040357 102.842602 
L 286.678071 114.993793 
L 287.315786 168.710709 
L 287.9535 85.422925 
L 289.228929 109.707098 
L 289.866643 97.748005 
L 290.504357 92.200205 
L 291.779786 105.41916 
L 292.4175 95.244951 
L 293.055214 104.701461 
L 293.692929 116.801168 
L 294.330643 95.854467 
L 294.968357 84.841995 
L 295.606071 76.798396 
L 296.243786 75.814617 
L 296.8815 81.151647 
L 297.519214 91.562686 
L 298.156929 106.28 
L 298.794643 84.654291 
L 299.432357 79.692979 
L 300.070071 90.910595 
L 300.707786 91.214472 
L 301.3455 91.051677 
L 301.983214 368.74175 
L 302.620929 86.732701 
L 303.258643 88.045386 
L 304.534071 102.363157 
L 305.171786 82.922725 
L 305.8095 88.341382 
L 306.447214 89.759408 
L 307.084929 106.274343 
L 307.722643 76.752534 
L 308.998071 89.954219 
L 309.635786 72.800433 
L 310.2735 88.432228 
L 310.911214 92.541633 
L 311.548929 107.978308 
L 312.186643 80.805575 
L 312.824357 91.912057 
L 313.462071 91.311277 
L 314.099786 87.202545 
L 314.7375 79.537075 
L 315.375214 74.330077 
L 316.012929 80.834636 
L 316.650643 76.582243 
L 317.288357 83.045693 
L 317.926071 84.40295 
L 318.563786 88.559032 
L 319.2015 73.657411 
L 319.839214 69.697485 
L 320.476929 74.959395 
L 321.114643 78.036513 
L 321.752357 102.092492 
L 322.390071 76.067873 
L 323.6655 135.485892 
L 324.303214 71.916308 
L 324.940929 70.462548 
L 325.578643 90.163146 
L 326.216357 76.110139 
L 326.854071 74.7012 
L 327.491786 72.577845 
L 328.1295 74.174753 
L 328.767214 89.171685 
L 329.404929 73.357419 
L 330.042643 94.126562 
L 330.680357 84.610629 
L 331.318071 92.517258 
L 331.955786 76.300901 
L 332.5935 99.987123 
L 333.231214 87.765157 
L 333.868929 97.116502 
L 334.506643 71.082591 
L 335.144357 69.21853 
L 335.782071 73.634263 
L 336.419786 124.508031 
L 337.0575 90.93098 
L 337.695214 75.51833 
L 338.332929 75.378925 
L 338.970643 102.083587 
L 339.608357 76.964292 
L 340.246071 93.059167 
L 340.883786 73.023103 
L 341.5215 76.493648 
L 342.159214 76.380693 
L 342.796929 71.24855 
L 343.434643 102.695229 
L 344.072357 95.29275 
L 344.710071 113.417547 
L 345.347786 72.798862 
L 345.9855 69.649622 
L 346.623214 73.182709 
L 347.260929 75.989604 
L 347.898643 77.526246 
L 348.536357 72.651168 
L 349.174071 89.567918 
L 349.811786 64.072612 
L 350.4495 73.752091 
L 351.087214 108.217444 
L 351.724929 74.611851 
L 352.362643 74.721969 
L 353.000357 108.4084 
L 353.638071 78.812658 
L 354.275786 70.469058 
L 354.9135 160.820142 
L 355.551214 67.66048 
L 356.188929 77.236759 
L 356.826643 77.401936 
L 357.464357 67.266323 
L 358.102071 72.475511 
L 358.739786 68.923014 
L 359.3775 87.117099 
L 360.015214 114.671905 
L 360.652929 100.631034 
L 361.290643 72.635249 
L 361.928357 108.137844 
L 362.566071 69.836808 
L 363.203786 69.811379 
L 363.8415 116.206454 
L 364.479214 71.660992 
L 365.116929 70.73902 
L 365.754643 368.74175 
L 366.392357 93.91627 
L 367.030071 62.280589 
L 367.667786 111.428308 
L 368.3055 70.192028 
L 368.943214 70.761229 
L 369.580929 69.857511 
L 370.218643 68.751772 
L 370.856357 108.574841 
L 371.494071 73.821106 
L 372.131786 70.900275 
L 372.7695 75.010714 
L 373.407214 64.000321 
L 374.044929 56.481527 
L 374.682643 58.313388 
L 375.320357 118.530607 
L 375.958071 59.889661 
L 376.595786 59.040977 
L 377.2335 70.649579 
L 377.871214 73.384734 
L 378.508929 61.348013 
L 379.146643 103.155482 
L 379.784357 74.323203 
L 380.422071 90.510585 
L 381.059786 56.508872 
L 381.6975 112.302383 
L 382.335214 110.637998 
L 382.972929 70.839858 
L 383.610643 74.423643 
L 384.248357 105.364265 
L 384.886071 65.934816 
L 385.523786 67.10526 
L 386.1615 69.195328 
L 386.799214 107.405145 
L 387.436929 59.826224 
L 388.074643 68.784474 
L 388.712357 96.797522 
L 389.350071 102.006201 
L 389.987786 68.330123 
L 390.6255 70.667259 
L 391.263214 108.684544 
L 391.900929 72.202432 
L 392.538643 58.225529 
L 393.176357 73.534144 
L 393.814071 141.56077 
L 394.451786 79.388631 
L 395.0895 71.487515 
L 395.727214 47.926998 
L 396.364929 69.310378 
L 397.002643 70.835879 
L 397.640357 67.523494 
L 398.278071 87.301747 
L 398.915786 71.065432 
L 399.5535 78.138248 
L 400.191214 55.530331 
L 400.828929 46.955677 
L 401.466643 59.796098 
L 402.104357 134.489266 
L 402.742071 70.626088 
L 403.379786 55.109243 
L 404.0175 62.962806 
L 404.655214 50.379448 
L 405.292929 62.353448 
L 405.930643 93.210538 
L 407.206071 48.874484 
L 407.843786 68.835403 
L 408.4815 103.867877 
L 409.119214 70.692809 
L 409.756929 111.906392 
L 410.394643 66.879986 
L 411.032357 68.190505 
L 411.670071 66.581499 
L 412.307786 57.011819 
L 412.9455 105.479697 
L 413.583214 106.321748 
L 414.220929 57.033681 
L 414.858643 51.063628 
L 415.496357 51.389253 
L 416.134071 59.444611 
L 417.4095 96.38513 
L 418.047214 69.903178 
L 418.684929 95.426434 
L 419.322643 65.429685 
L 419.960357 91.077496 
L 420.598071 94.767419 
L 421.8735 50.465096 
L 422.511214 65.701674 
L 423.148929 85.801464 
L 423.786643 52.208622 
L 425.062071 65.933207 
L 425.699786 63.160819 
L 426.3375 73.180138 
L 426.975214 116.686316 
L 427.612929 66.485673 
L 428.250643 68.14583 
L 428.888357 93.235037 
L 429.526071 368.74175 
L 430.163786 46.463125 
L 430.8015 45.062659 
L 431.439214 68.787537 
L 432.076929 69.951345 
L 432.714643 45.549523 
L 433.352357 67.809856 
L 433.990071 66.854107 
L 434.627786 65.678755 
L 435.2655 96.733096 
L 435.903214 99.329658 
L 436.540929 63.582454 
L 437.178643 37.060871 
L 437.816357 50.460396 
L 438.454071 75.098666 
L 439.091786 65.629938 
L 439.7295 69.15994 
L 440.367214 53.986426 
L 441.004929 92.75648 
L 441.642643 70.239751 
L 442.280357 79.734635 
L 442.918071 68.080115 
L 443.555786 123.418895 
L 444.1935 93.263705 
L 444.831214 53.789948 
L 445.468929 46.884218 
L 446.106643 55.67921 
L 446.744357 73.765976 
L 448.019786 58.409292 
L 448.6575 71.298834 
L 449.295214 45.847642 
L 449.932929 51.425846 
L 450.570643 58.760729 
L 451.208357 68.409406 
L 451.846071 45.397475 
L 452.483786 72.456225 
L 453.1215 65.880039 
L 453.759214 75.715078 
L 454.396929 35.252083 
L 455.034643 66.125209 
L 455.672357 69.504921 
L 456.310071 80.964737 
L 456.947786 76.735394 
L 457.5855 92.35075 
L 458.223214 56.648742 
L 458.860929 66.454094 
L 459.498643 85.137556 
L 460.136357 83.492174 
L 460.774071 103.186652 
L 461.411786 93.947497 
L 462.0495 61.241187 
L 462.687214 62.769769 
L 463.324929 57.893256 
L 463.962643 47.259161 
L 464.600357 85.235685 
L 465.238071 66.674871 
L 465.875786 67.913138 
L 466.5135 79.430259 
L 467.151214 45.504773 
L 467.788929 63.956379 
L 468.426643 65.604188 
L 469.064357 66.190992 
L 469.702071 76.847189 
L 470.339786 61.08555 
L 470.339786 61.08555 
" style="fill:none;stroke:#0000ff;stroke-linecap:square;stroke-width:0.5;"/>
   </g>
   <g id="patch_3">
    <path d="M 46.8975 368.74175 
L 46.8975 23.14175 
" style="fill:none;stroke:#000000;stroke-linecap:square;stroke-linejoin:miter;"/>
   </g>
   <g id="patch_4">
    <path d="M 493.2975 368.74175 
L 493.2975 23.14175 
" style="fill:none;stroke:#000000;stroke-linecap:square;stroke-linejoin:miter;"/>
   </g>
   <g id="patch_5">
    <path d="M 46.8975 23.14175 
L 493.2975 23.14175 
" style="fill:none;stroke:#000000;stroke-linecap:square;stroke-linejoin:miter;"/>
   </g>
   <g id="patch_6">
    <path d="M 46.8975 368.74175 
L 493.2975 368.74175 
" style="fill:none;stroke:#000000;stroke-linecap:square;stroke-linejoin:miter;"/>
   </g>
   <g id="matplotlib.axis_1">
    <g id="xtick_1">
     <g id="line2d_2">
      <defs>
       <path d="M 0 0 
L 0 -4 
" id="mdbb14b4757" style="stroke:#000000;stroke-width:0.5;"/>
      </defs>
      <g>
       <use style="stroke:#000000;stroke-width:0.5;" x="46.8975" xlink:href="#mdbb14b4757" y="368.74175"/>
      </g>
     </g>
     <g id="line2d_3">
      <defs>
       <path d="M 0 0 
L 0 4 
" id="meea7c0a798" style="stroke:#000000;stroke-width:0.5;"/>
      </defs>
      <g>
       <use style="stroke:#000000;stroke-width:0.5;" x="46.8975" xlink:href="#meea7c0a798" y="23.14175"/>
      </g>
     </g>
     <g id="text_1">
      <!-- 0 -->
      <defs>
       <path d="M 31.78125 66.40625 
Q 24.171875 66.40625 20.328125 58.90625 
Q 16.5 51.421875 16.5 36.375 
Q 16.5 21.390625 20.328125 13.890625 
Q 24.171875 6.390625 31.78125 6.390625 
Q 39.453125 6.390625 43.28125 13.890625 
Q 47.125 21.390625 47.125 36.375 
Q 47.125 51.421875 43.28125 58.90625 
Q 39.453125 66.40625 31.78125 66.40625 
M 31.78125 74.21875 
Q 44.046875 74.21875 50.515625 64.515625 
Q 56.984375 54.828125 56.984375 36.375 
Q 56.984375 17.96875 50.515625 8.265625 
Q 44.046875 -1.421875 31.78125 -1.421875 
Q 19.53125 -1.421875 13.0625 8.265625 
Q 6.59375 17.96875 6.59375 36.375 
Q 6.59375 54.828125 13.0625 64.515625 
Q 19.53125 74.21875 31.78125 74.21875 
" id="BitstreamVeraSans-Roman-30"/>
      </defs>
      <g transform="translate(43.08 381.859875)scale(0.12 -0.12)">
       <use xlink:href="#BitstreamVeraSans-Roman-30"/>
      </g>
     </g>
    </g>
    <g id="xtick_2">
     <g id="line2d_4">
      <g>
       <use style="stroke:#000000;stroke-width:0.5;" x="110.668928571" xlink:href="#mdbb14b4757" y="368.74175"/>
      </g>
     </g>
     <g id="line2d_5">
      <g>
       <use style="stroke:#000000;stroke-width:0.5;" x="110.668928571" xlink:href="#meea7c0a798" y="23.14175"/>
      </g>
     </g>
     <g id="text_2">
      <!-- 100 -->
      <defs>
       <path d="M 12.40625 8.296875 
L 28.515625 8.296875 
L 28.515625 63.921875 
L 10.984375 60.40625 
L 10.984375 69.390625 
L 28.421875 72.90625 
L 38.28125 72.90625 
L 38.28125 8.296875 
L 54.390625 8.296875 
L 54.390625 0 
L 12.40625 0 
z
" id="BitstreamVeraSans-Roman-31"/>
      </defs>
      <g transform="translate(99.2164285714 381.859875)scale(0.12 -0.12)">
       <use xlink:href="#BitstreamVeraSans-Roman-31"/>
       <use x="63.623046875" xlink:href="#BitstreamVeraSans-Roman-30"/>
       <use x="127.24609375" xlink:href="#BitstreamVeraSans-Roman-30"/>
      </g>
     </g>
    </g>
    <g id="xtick_3">
     <g id="line2d_6">
      <g>
       <use style="stroke:#000000;stroke-width:0.5;" x="174.440357143" xlink:href="#mdbb14b4757" y="368.74175"/>
      </g>
     </g>
     <g id="line2d_7">
      <g>
       <use style="stroke:#000000;stroke-width:0.5;" x="174.440357143" xlink:href="#meea7c0a798" y="23.14175"/>
      </g>
     </g>
     <g id="text_3">
      <!-- 200 -->
      <defs>
       <path d="M 19.1875 8.296875 
L 53.609375 8.296875 
L 53.609375 0 
L 7.328125 0 
L 7.328125 8.296875 
Q 12.9375 14.109375 22.625 23.890625 
Q 32.328125 33.6875 34.8125 36.53125 
Q 39.546875 41.84375 41.421875 45.53125 
Q 43.3125 49.21875 43.3125 52.78125 
Q 43.3125 58.59375 39.234375 62.25 
Q 35.15625 65.921875 28.609375 65.921875 
Q 23.96875 65.921875 18.8125 64.3125 
Q 13.671875 62.703125 7.8125 59.421875 
L 7.8125 69.390625 
Q 13.765625 71.78125 18.9375 73 
Q 24.125 74.21875 28.421875 74.21875 
Q 39.75 74.21875 46.484375 68.546875 
Q 53.21875 62.890625 53.21875 53.421875 
Q 53.21875 48.921875 51.53125 44.890625 
Q 49.859375 40.875 45.40625 35.40625 
Q 44.1875 33.984375 37.640625 27.21875 
Q 31.109375 20.453125 19.1875 8.296875 
" id="BitstreamVeraSans-Roman-32"/>
      </defs>
      <g transform="translate(162.987857143 381.859875)scale(0.12 -0.12)">
       <use xlink:href="#BitstreamVeraSans-Roman-32"/>
       <use x="63.623046875" xlink:href="#BitstreamVeraSans-Roman-30"/>
       <use x="127.24609375" xlink:href="#BitstreamVeraSans-Roman-30"/>
      </g>
     </g>
    </g>
    <g id="xtick_4">
     <g id="line2d_8">
      <g>
       <use style="stroke:#000000;stroke-width:0.5;" x="238.211785714" xlink:href="#mdbb14b4757" y="368.74175"/>
      </g>
     </g>
     <g id="line2d_9">
      <g>
       <use style="stroke:#000000;stroke-width:0.5;" x="238.211785714" xlink:href="#meea7c0a798" y="23.14175"/>
      </g>
     </g>
     <g id="text_4">
      <!-- 300 -->
      <defs>
       <path d="M 40.578125 39.3125 
Q 47.65625 37.796875 51.625 33 
Q 55.609375 28.21875 55.609375 21.1875 
Q 55.609375 10.40625 48.1875 4.484375 
Q 40.765625 -1.421875 27.09375 -1.421875 
Q 22.515625 -1.421875 17.65625 -0.515625 
Q 12.796875 0.390625 7.625 2.203125 
L 7.625 11.71875 
Q 11.71875 9.328125 16.59375 8.109375 
Q 21.484375 6.890625 26.8125 6.890625 
Q 36.078125 6.890625 40.9375 10.546875 
Q 45.796875 14.203125 45.796875 21.1875 
Q 45.796875 27.640625 41.28125 31.265625 
Q 36.765625 34.90625 28.71875 34.90625 
L 20.21875 34.90625 
L 20.21875 43.015625 
L 29.109375 43.015625 
Q 36.375 43.015625 40.234375 45.921875 
Q 44.09375 48.828125 44.09375 54.296875 
Q 44.09375 59.90625 40.109375 62.90625 
Q 36.140625 65.921875 28.71875 65.921875 
Q 24.65625 65.921875 20.015625 65.03125 
Q 15.375 64.15625 9.8125 62.3125 
L 9.8125 71.09375 
Q 15.4375 72.65625 20.34375 73.4375 
Q 25.25 74.21875 29.59375 74.21875 
Q 40.828125 74.21875 47.359375 69.109375 
Q 53.90625 64.015625 53.90625 55.328125 
Q 53.90625 49.265625 50.4375 45.09375 
Q 46.96875 40.921875 40.578125 39.3125 
" id="BitstreamVeraSans-Roman-33"/>
      </defs>
      <g transform="translate(226.759285714 381.859875)scale(0.12 -0.12)">
       <use xlink:href="#BitstreamVeraSans-Roman-33"/>
       <use x="63.623046875" xlink:href="#BitstreamVeraSans-Roman-30"/>
       <use x="127.24609375" xlink:href="#BitstreamVeraSans-Roman-30"/>
      </g>
     </g>
    </g>
    <g id="xtick_5">
     <g id="line2d_10">
      <g>
       <use style="stroke:#000000;stroke-width:0.5;" x="301.983214286" xlink:href="#mdbb14b4757" y="368.74175"/>
      </g>
     </g>
     <g id="line2d_11">
      <g>
       <use style="stroke:#000000;stroke-width:0.5;" x="301.983214286" xlink:href="#meea7c0a798" y="23.14175"/>
      </g>
     </g>
     <g id="text_5">
      <!-- 400 -->
      <defs>
       <path d="M 37.796875 64.3125 
L 12.890625 25.390625 
L 37.796875 25.390625 
z
M 35.203125 72.90625 
L 47.609375 72.90625 
L 47.609375 25.390625 
L 58.015625 25.390625 
L 58.015625 17.1875 
L 47.609375 17.1875 
L 47.609375 0 
L 37.796875 0 
L 37.796875 17.1875 
L 4.890625 17.1875 
L 4.890625 26.703125 
z
" id="BitstreamVeraSans-Roman-34"/>
      </defs>
      <g transform="translate(290.530714286 381.859875)scale(0.12 -0.12)">
       <use xlink:href="#BitstreamVeraSans-Roman-34"/>
       <use x="63.623046875" xlink:href="#BitstreamVeraSans-Roman-30"/>
       <use x="127.24609375" xlink:href="#BitstreamVeraSans-Roman-30"/>
      </g>
     </g>
    </g>
    <g id="xtick_6">
     <g id="line2d_12">
      <g>
       <use style="stroke:#000000;stroke-width:0.5;" x="365.754642857" xlink:href="#mdbb14b4757" y="368.74175"/>
      </g>
     </g>
     <g id="line2d_13">
      <g>
       <use style="stroke:#000000;stroke-width:0.5;" x="365.754642857" xlink:href="#meea7c0a798" y="23.14175"/>
      </g>
     </g>
     <g id="text_6">
      <!-- 500 -->
      <defs>
       <path d="M 10.796875 72.90625 
L 49.515625 72.90625 
L 49.515625 64.59375 
L 19.828125 64.59375 
L 19.828125 46.734375 
Q 21.96875 47.46875 24.109375 47.828125 
Q 26.265625 48.1875 28.421875 48.1875 
Q 40.625 48.1875 47.75 41.5 
Q 54.890625 34.8125 54.890625 23.390625 
Q 54.890625 11.625 47.5625 5.09375 
Q 40.234375 -1.421875 26.90625 -1.421875 
Q 22.3125 -1.421875 17.546875 -0.640625 
Q 12.796875 0.140625 7.71875 1.703125 
L 7.71875 11.625 
Q 12.109375 9.234375 16.796875 8.0625 
Q 21.484375 6.890625 26.703125 6.890625 
Q 35.15625 6.890625 40.078125 11.328125 
Q 45.015625 15.765625 45.015625 23.390625 
Q 45.015625 31 40.078125 35.4375 
Q 35.15625 39.890625 26.703125 39.890625 
Q 22.75 39.890625 18.8125 39.015625 
Q 14.890625 38.140625 10.796875 36.28125 
z
" id="BitstreamVeraSans-Roman-35"/>
      </defs>
      <g transform="translate(354.302142857 381.859875)scale(0.12 -0.12)">
       <use xlink:href="#BitstreamVeraSans-Roman-35"/>
       <use x="63.623046875" xlink:href="#BitstreamVeraSans-Roman-30"/>
       <use x="127.24609375" xlink:href="#BitstreamVeraSans-Roman-30"/>
      </g>
     </g>
    </g>
    <g id="xtick_7">
     <g id="line2d_14">
      <g>
       <use style="stroke:#000000;stroke-width:0.5;" x="429.526071429" xlink:href="#mdbb14b4757" y="368.74175"/>
      </g>
     </g>
     <g id="line2d_15">
      <g>
       <use style="stroke:#000000;stroke-width:0.5;" x="429.526071429" xlink:href="#meea7c0a798" y="23.14175"/>
      </g>
     </g>
     <g id="text_7">
      <!-- 600 -->
      <defs>
       <path d="M 33.015625 40.375 
Q 26.375 40.375 22.484375 35.828125 
Q 18.609375 31.296875 18.609375 23.390625 
Q 18.609375 15.53125 22.484375 10.953125 
Q 26.375 6.390625 33.015625 6.390625 
Q 39.65625 6.390625 43.53125 10.953125 
Q 47.40625 15.53125 47.40625 23.390625 
Q 47.40625 31.296875 43.53125 35.828125 
Q 39.65625 40.375 33.015625 40.375 
M 52.59375 71.296875 
L 52.59375 62.3125 
Q 48.875 64.0625 45.09375 64.984375 
Q 41.3125 65.921875 37.59375 65.921875 
Q 27.828125 65.921875 22.671875 59.328125 
Q 17.53125 52.734375 16.796875 39.40625 
Q 19.671875 43.65625 24.015625 45.921875 
Q 28.375 48.1875 33.59375 48.1875 
Q 44.578125 48.1875 50.953125 41.515625 
Q 57.328125 34.859375 57.328125 23.390625 
Q 57.328125 12.15625 50.6875 5.359375 
Q 44.046875 -1.421875 33.015625 -1.421875 
Q 20.359375 -1.421875 13.671875 8.265625 
Q 6.984375 17.96875 6.984375 36.375 
Q 6.984375 53.65625 15.1875 63.9375 
Q 23.390625 74.21875 37.203125 74.21875 
Q 40.921875 74.21875 44.703125 73.484375 
Q 48.484375 72.75 52.59375 71.296875 
" id="BitstreamVeraSans-Roman-36"/>
      </defs>
      <g transform="translate(418.073571429 381.859875)scale(0.12 -0.12)">
       <use xlink:href="#BitstreamVeraSans-Roman-36"/>
       <use x="63.623046875" xlink:href="#BitstreamVeraSans-Roman-30"/>
       <use x="127.24609375" xlink:href="#BitstreamVeraSans-Roman-30"/>
      </g>
     </g>
    </g>
    <g id="xtick_8">
     <g id="line2d_16">
      <g>
       <use style="stroke:#000000;stroke-width:0.5;" x="493.2975" xlink:href="#mdbb14b4757" y="368.74175"/>
      </g>
     </g>
     <g id="line2d_17">
      <g>
       <use style="stroke:#000000;stroke-width:0.5;" x="493.2975" xlink:href="#meea7c0a798" y="23.14175"/>
      </g>
     </g>
     <g id="text_8">
      <!-- 700 -->
      <defs>
       <path d="M 8.203125 72.90625 
L 55.078125 72.90625 
L 55.078125 68.703125 
L 28.609375 0 
L 18.3125 0 
L 43.21875 64.59375 
L 8.203125 64.59375 
z
" id="BitstreamVeraSans-Roman-37"/>
      </defs>
      <g transform="translate(481.845 381.859875)scale(0.12 -0.12)">
       <use xlink:href="#BitstreamVeraSans-Roman-37"/>
       <use x="63.623046875" xlink:href="#BitstreamVeraSans-Roman-30"/>
       <use x="127.24609375" xlink:href="#BitstreamVeraSans-Roman-30"/>
      </g>
     </g>
    </g>
    <g id="text_9">
     <!-- episode -->
     <defs>
      <path d="M 45.40625 46.390625 
L 45.40625 75.984375 
L 54.390625 75.984375 
L 54.390625 0 
L 45.40625 0 
L 45.40625 8.203125 
Q 42.578125 3.328125 38.25 0.953125 
Q 33.9375 -1.421875 27.875 -1.421875 
Q 17.96875 -1.421875 11.734375 6.484375 
Q 5.515625 14.40625 5.515625 27.296875 
Q 5.515625 40.1875 11.734375 48.09375 
Q 17.96875 56 27.875 56 
Q 33.9375 56 38.25 53.625 
Q 42.578125 51.265625 45.40625 46.390625 
M 14.796875 27.296875 
Q 14.796875 17.390625 18.875 11.75 
Q 22.953125 6.109375 30.078125 6.109375 
Q 37.203125 6.109375 41.296875 11.75 
Q 45.40625 17.390625 45.40625 27.296875 
Q 45.40625 37.203125 41.296875 42.84375 
Q 37.203125 48.484375 30.078125 48.484375 
Q 22.953125 48.484375 18.875 42.84375 
Q 14.796875 37.203125 14.796875 27.296875 
" id="BitstreamVeraSans-Roman-64"/>
      <path d="M 18.109375 8.203125 
L 18.109375 -20.796875 
L 9.078125 -20.796875 
L 9.078125 54.6875 
L 18.109375 54.6875 
L 18.109375 46.390625 
Q 20.953125 51.265625 25.265625 53.625 
Q 29.59375 56 35.59375 56 
Q 45.5625 56 51.78125 48.09375 
Q 58.015625 40.1875 58.015625 27.296875 
Q 58.015625 14.40625 51.78125 6.484375 
Q 45.5625 -1.421875 35.59375 -1.421875 
Q 29.59375 -1.421875 25.265625 0.953125 
Q 20.953125 3.328125 18.109375 8.203125 
M 48.6875 27.296875 
Q 48.6875 37.203125 44.609375 42.84375 
Q 40.53125 48.484375 33.40625 48.484375 
Q 26.265625 48.484375 22.1875 42.84375 
Q 18.109375 37.203125 18.109375 27.296875 
Q 18.109375 17.390625 22.1875 11.75 
Q 26.265625 6.109375 33.40625 6.109375 
Q 40.53125 6.109375 44.609375 11.75 
Q 48.6875 17.390625 48.6875 27.296875 
" id="BitstreamVeraSans-Roman-70"/>
      <path d="M 30.609375 48.390625 
Q 23.390625 48.390625 19.1875 42.75 
Q 14.984375 37.109375 14.984375 27.296875 
Q 14.984375 17.484375 19.15625 11.84375 
Q 23.34375 6.203125 30.609375 6.203125 
Q 37.796875 6.203125 41.984375 11.859375 
Q 46.1875 17.53125 46.1875 27.296875 
Q 46.1875 37.015625 41.984375 42.703125 
Q 37.796875 48.390625 30.609375 48.390625 
M 30.609375 56 
Q 42.328125 56 49.015625 48.375 
Q 55.71875 40.765625 55.71875 27.296875 
Q 55.71875 13.875 49.015625 6.21875 
Q 42.328125 -1.421875 30.609375 -1.421875 
Q 18.84375 -1.421875 12.171875 6.21875 
Q 5.515625 13.875 5.515625 27.296875 
Q 5.515625 40.765625 12.171875 48.375 
Q 18.84375 56 30.609375 56 
" id="BitstreamVeraSans-Roman-6f"/>
      <path d="M 44.28125 53.078125 
L 44.28125 44.578125 
Q 40.484375 46.53125 36.375 47.5 
Q 32.28125 48.484375 27.875 48.484375 
Q 21.1875 48.484375 17.84375 46.4375 
Q 14.5 44.390625 14.5 40.28125 
Q 14.5 37.15625 16.890625 35.375 
Q 19.28125 33.59375 26.515625 31.984375 
L 29.59375 31.296875 
Q 39.15625 29.25 43.1875 25.515625 
Q 47.21875 21.78125 47.21875 15.09375 
Q 47.21875 7.46875 41.1875 3.015625 
Q 35.15625 -1.421875 24.609375 -1.421875 
Q 20.21875 -1.421875 15.453125 -0.5625 
Q 10.6875 0.296875 5.421875 2 
L 5.421875 11.28125 
Q 10.40625 8.6875 15.234375 7.390625 
Q 20.0625 6.109375 24.8125 6.109375 
Q 31.15625 6.109375 34.5625 8.28125 
Q 37.984375 10.453125 37.984375 14.40625 
Q 37.984375 18.0625 35.515625 20.015625 
Q 33.0625 21.96875 24.703125 23.78125 
L 21.578125 24.515625 
Q 13.234375 26.265625 9.515625 29.90625 
Q 5.8125 33.546875 5.8125 39.890625 
Q 5.8125 47.609375 11.28125 51.796875 
Q 16.75 56 26.8125 56 
Q 31.78125 56 36.171875 55.265625 
Q 40.578125 54.546875 44.28125 53.078125 
" id="BitstreamVeraSans-Roman-73"/>
      <path d="M 56.203125 29.59375 
L 56.203125 25.203125 
L 14.890625 25.203125 
Q 15.484375 15.921875 20.484375 11.0625 
Q 25.484375 6.203125 34.421875 6.203125 
Q 39.59375 6.203125 44.453125 7.46875 
Q 49.3125 8.734375 54.109375 11.28125 
L 54.109375 2.78125 
Q 49.265625 0.734375 44.1875 -0.34375 
Q 39.109375 -1.421875 33.890625 -1.421875 
Q 20.796875 -1.421875 13.15625 6.1875 
Q 5.515625 13.8125 5.515625 26.8125 
Q 5.515625 40.234375 12.765625 48.109375 
Q 20.015625 56 32.328125 56 
Q 43.359375 56 49.78125 48.890625 
Q 56.203125 41.796875 56.203125 29.59375 
M 47.21875 32.234375 
Q 47.125 39.59375 43.09375 43.984375 
Q 39.0625 48.390625 32.421875 48.390625 
Q 24.90625 48.390625 20.390625 44.140625 
Q 15.875 39.890625 15.1875 32.171875 
z
" id="BitstreamVeraSans-Roman-65"/>
      <path d="M 9.421875 54.6875 
L 18.40625 54.6875 
L 18.40625 0 
L 9.421875 0 
z
M 9.421875 75.984375 
L 18.40625 75.984375 
L 18.40625 64.59375 
L 9.421875 64.59375 
z
" id="BitstreamVeraSans-Roman-69"/>
     </defs>
     <g transform="translate(246.631875 398.473625)scale(0.12 -0.12)">
      <use xlink:href="#BitstreamVeraSans-Roman-65"/>
      <use x="61.5234375" xlink:href="#BitstreamVeraSans-Roman-70"/>
      <use x="125.0" xlink:href="#BitstreamVeraSans-Roman-69"/>
      <use x="152.783203125" xlink:href="#BitstreamVeraSans-Roman-73"/>
      <use x="204.8828125" xlink:href="#BitstreamVeraSans-Roman-6f"/>
      <use x="266.064453125" xlink:href="#BitstreamVeraSans-Roman-64"/>
      <use x="329.541015625" xlink:href="#BitstreamVeraSans-Roman-65"/>
     </g>
    </g>
   </g>
   <g id="matplotlib.axis_2">
    <g id="ytick_1">
     <g id="line2d_18">
      <defs>
       <path d="M 0 0 
L 4 0 
" id="me4276313ee" style="stroke:#000000;stroke-width:0.5;"/>
      </defs>
      <g>
       <use style="stroke:#000000;stroke-width:0.5;" x="46.8975" xlink:href="#me4276313ee" y="368.74175"/>
      </g>
     </g>
     <g id="line2d_19">
      <defs>
       <path d="M 0 0 
L -4 0 
" id="m6159109a0f" style="stroke:#000000;stroke-width:0.5;"/>
      </defs>
      <g>
       <use style="stroke:#000000;stroke-width:0.5;" x="493.2975" xlink:href="#m6159109a0f" y="368.74175"/>
      </g>
     </g>
     <g id="text_10">
      <!-- 0.0 -->
      <defs>
       <path d="M 10.6875 12.40625 
L 21 12.40625 
L 21 0 
L 10.6875 0 
z
" id="BitstreamVeraSans-Roman-2e"/>
      </defs>
      <g transform="translate(23.81375 372.053)scale(0.12 -0.12)">
       <use xlink:href="#BitstreamVeraSans-Roman-30"/>
       <use x="63.623046875" xlink:href="#BitstreamVeraSans-Roman-2e"/>
       <use x="95.41015625" xlink:href="#BitstreamVeraSans-Roman-30"/>
      </g>
     </g>
    </g>
    <g id="ytick_2">
     <g id="line2d_20">
      <g>
       <use style="stroke:#000000;stroke-width:0.5;" x="46.8975" xlink:href="#me4276313ee" y="319.370321429"/>
      </g>
     </g>
     <g id="line2d_21">
      <g>
       <use style="stroke:#000000;stroke-width:0.5;" x="493.2975" xlink:href="#m6159109a0f" y="319.370321429"/>
      </g>
     </g>
     <g id="text_11">
      <!-- 0.1 -->
      <g transform="translate(23.81375 322.681571429)scale(0.12 -0.12)">
       <use xlink:href="#BitstreamVeraSans-Roman-30"/>
       <use x="63.623046875" xlink:href="#BitstreamVeraSans-Roman-2e"/>
       <use x="95.41015625" xlink:href="#BitstreamVeraSans-Roman-31"/>
      </g>
     </g>
    </g>
    <g id="ytick_3">
     <g id="line2d_22">
      <g>
       <use style="stroke:#000000;stroke-width:0.5;" x="46.8975" xlink:href="#me4276313ee" y="269.998892857"/>
      </g>
     </g>
     <g id="line2d_23">
      <g>
       <use style="stroke:#000000;stroke-width:0.5;" x="493.2975" xlink:href="#m6159109a0f" y="269.998892857"/>
      </g>
     </g>
     <g id="text_12">
      <!-- 0.2 -->
      <g transform="translate(23.81375 273.310142857)scale(0.12 -0.12)">
       <use xlink:href="#BitstreamVeraSans-Roman-30"/>
       <use x="63.623046875" xlink:href="#BitstreamVeraSans-Roman-2e"/>
       <use x="95.41015625" xlink:href="#BitstreamVeraSans-Roman-32"/>
      </g>
     </g>
    </g>
    <g id="ytick_4">
     <g id="line2d_24">
      <g>
       <use style="stroke:#000000;stroke-width:0.5;" x="46.8975" xlink:href="#me4276313ee" y="220.627464286"/>
      </g>
     </g>
     <g id="line2d_25">
      <g>
       <use style="stroke:#000000;stroke-width:0.5;" x="493.2975" xlink:href="#m6159109a0f" y="220.627464286"/>
      </g>
     </g>
     <g id="text_13">
      <!-- 0.3 -->
      <g transform="translate(23.81375 223.938714286)scale(0.12 -0.12)">
       <use xlink:href="#BitstreamVeraSans-Roman-30"/>
       <use x="63.623046875" xlink:href="#BitstreamVeraSans-Roman-2e"/>
       <use x="95.41015625" xlink:href="#BitstreamVeraSans-Roman-33"/>
      </g>
     </g>
    </g>
    <g id="ytick_5">
     <g id="line2d_26">
      <g>
       <use style="stroke:#000000;stroke-width:0.5;" x="46.8975" xlink:href="#me4276313ee" y="171.256035714"/>
      </g>
     </g>
     <g id="line2d_27">
      <g>
       <use style="stroke:#000000;stroke-width:0.5;" x="493.2975" xlink:href="#m6159109a0f" y="171.256035714"/>
      </g>
     </g>
     <g id="text_14">
      <!-- 0.4 -->
      <g transform="translate(23.81375 174.567285714)scale(0.12 -0.12)">
       <use xlink:href="#BitstreamVeraSans-Roman-30"/>
       <use x="63.623046875" xlink:href="#BitstreamVeraSans-Roman-2e"/>
       <use x="95.41015625" xlink:href="#BitstreamVeraSans-Roman-34"/>
      </g>
     </g>
    </g>
    <g id="ytick_6">
     <g id="line2d_28">
      <g>
       <use style="stroke:#000000;stroke-width:0.5;" x="46.8975" xlink:href="#me4276313ee" y="121.884607143"/>
      </g>
     </g>
     <g id="line2d_29">
      <g>
       <use style="stroke:#000000;stroke-width:0.5;" x="493.2975" xlink:href="#m6159109a0f" y="121.884607143"/>
      </g>
     </g>
     <g id="text_15">
      <!-- 0.5 -->
      <g transform="translate(23.81375 125.195857143)scale(0.12 -0.12)">
       <use xlink:href="#BitstreamVeraSans-Roman-30"/>
       <use x="63.623046875" xlink:href="#BitstreamVeraSans-Roman-2e"/>
       <use x="95.41015625" xlink:href="#BitstreamVeraSans-Roman-35"/>
      </g>
     </g>
    </g>
    <g id="ytick_7">
     <g id="line2d_30">
      <g>
       <use style="stroke:#000000;stroke-width:0.5;" x="46.8975" xlink:href="#me4276313ee" y="72.5131785714"/>
      </g>
     </g>
     <g id="line2d_31">
      <g>
       <use style="stroke:#000000;stroke-width:0.5;" x="493.2975" xlink:href="#m6159109a0f" y="72.5131785714"/>
      </g>
     </g>
     <g id="text_16">
      <!-- 0.6 -->
      <g transform="translate(23.81375 75.8244285714)scale(0.12 -0.12)">
       <use xlink:href="#BitstreamVeraSans-Roman-30"/>
       <use x="63.623046875" xlink:href="#BitstreamVeraSans-Roman-2e"/>
       <use x="95.41015625" xlink:href="#BitstreamVeraSans-Roman-36"/>
      </g>
     </g>
    </g>
    <g id="ytick_8">
     <g id="line2d_32">
      <g>
       <use style="stroke:#000000;stroke-width:0.5;" x="46.8975" xlink:href="#me4276313ee" y="23.14175"/>
      </g>
     </g>
     <g id="line2d_33">
      <g>
       <use style="stroke:#000000;stroke-width:0.5;" x="493.2975" xlink:href="#m6159109a0f" y="23.14175"/>
      </g>
     </g>
     <g id="text_17">
      <!-- 0.7 -->
      <g transform="translate(23.81375 26.453)scale(0.12 -0.12)">
       <use xlink:href="#BitstreamVeraSans-Roman-30"/>
       <use x="63.623046875" xlink:href="#BitstreamVeraSans-Roman-2e"/>
       <use x="95.41015625" xlink:href="#BitstreamVeraSans-Roman-37"/>
      </g>
     </g>
    </g>
    <g id="text_18">
     <!-- average maxQ -->
     <defs>
      <path d="M 2.984375 54.6875 
L 12.5 54.6875 
L 29.59375 8.796875 
L 46.6875 54.6875 
L 56.203125 54.6875 
L 35.6875 0 
L 23.484375 0 
z
" id="BitstreamVeraSans-Roman-76"/>
      <path d="M 34.28125 27.484375 
Q 23.390625 27.484375 19.1875 25 
Q 14.984375 22.515625 14.984375 16.5 
Q 14.984375 11.71875 18.140625 8.90625 
Q 21.296875 6.109375 26.703125 6.109375 
Q 34.1875 6.109375 38.703125 11.40625 
Q 43.21875 16.703125 43.21875 25.484375 
L 43.21875 27.484375 
z
M 52.203125 31.203125 
L 52.203125 0 
L 43.21875 0 
L 43.21875 8.296875 
Q 40.140625 3.328125 35.546875 0.953125 
Q 30.953125 -1.421875 24.3125 -1.421875 
Q 15.921875 -1.421875 10.953125 3.296875 
Q 6 8.015625 6 15.921875 
Q 6 25.140625 12.171875 29.828125 
Q 18.359375 34.515625 30.609375 34.515625 
L 43.21875 34.515625 
L 43.21875 35.40625 
Q 43.21875 41.609375 39.140625 45 
Q 35.0625 48.390625 27.6875 48.390625 
Q 23 48.390625 18.546875 47.265625 
Q 14.109375 46.140625 10.015625 43.890625 
L 10.015625 52.203125 
Q 14.9375 54.109375 19.578125 55.046875 
Q 24.21875 56 28.609375 56 
Q 40.484375 56 46.34375 49.84375 
Q 52.203125 43.703125 52.203125 31.203125 
" id="BitstreamVeraSans-Roman-61"/>
      <path d="M 54.890625 54.6875 
L 35.109375 28.078125 
L 55.90625 0 
L 45.3125 0 
L 29.390625 21.484375 
L 13.484375 0 
L 2.875 0 
L 24.125 28.609375 
L 4.6875 54.6875 
L 15.28125 54.6875 
L 29.78125 35.203125 
L 44.28125 54.6875 
z
" id="BitstreamVeraSans-Roman-78"/>
      <path d="M 39.40625 66.21875 
Q 28.65625 66.21875 22.328125 58.203125 
Q 16.015625 50.203125 16.015625 36.375 
Q 16.015625 22.609375 22.328125 14.59375 
Q 28.65625 6.59375 39.40625 6.59375 
Q 50.140625 6.59375 56.421875 14.59375 
Q 62.703125 22.609375 62.703125 36.375 
Q 62.703125 50.203125 56.421875 58.203125 
Q 50.140625 66.21875 39.40625 66.21875 
M 53.21875 1.3125 
L 66.21875 -12.890625 
L 54.296875 -12.890625 
L 43.5 -1.21875 
Q 41.890625 -1.3125 41.03125 -1.359375 
Q 40.1875 -1.421875 39.40625 -1.421875 
Q 24.03125 -1.421875 14.8125 8.859375 
Q 5.609375 19.140625 5.609375 36.375 
Q 5.609375 53.65625 14.8125 63.9375 
Q 24.03125 74.21875 39.40625 74.21875 
Q 54.734375 74.21875 63.90625 63.9375 
Q 73.09375 53.65625 73.09375 36.375 
Q 73.09375 23.6875 67.984375 14.640625 
Q 62.890625 5.609375 53.21875 1.3125 
" id="BitstreamVeraSans-Roman-51"/>
      <path d="M 52 44.1875 
Q 55.375 50.25 60.0625 53.125 
Q 64.75 56 71.09375 56 
Q 79.640625 56 84.28125 50.015625 
Q 88.921875 44.046875 88.921875 33.015625 
L 88.921875 0 
L 79.890625 0 
L 79.890625 32.71875 
Q 79.890625 40.578125 77.09375 44.375 
Q 74.3125 48.1875 68.609375 48.1875 
Q 61.625 48.1875 57.5625 43.546875 
Q 53.515625 38.921875 53.515625 30.90625 
L 53.515625 0 
L 44.484375 0 
L 44.484375 32.71875 
Q 44.484375 40.625 41.703125 44.40625 
Q 38.921875 48.1875 33.109375 48.1875 
Q 26.21875 48.1875 22.15625 43.53125 
Q 18.109375 38.875 18.109375 30.90625 
L 18.109375 0 
L 9.078125 0 
L 9.078125 54.6875 
L 18.109375 54.6875 
L 18.109375 46.1875 
Q 21.1875 51.21875 25.484375 53.609375 
Q 29.78125 56 35.6875 56 
Q 41.65625 56 45.828125 52.96875 
Q 50 49.953125 52 44.1875 
" id="BitstreamVeraSans-Roman-6d"/>
      <path d="M 45.40625 27.984375 
Q 45.40625 37.75 41.375 43.109375 
Q 37.359375 48.484375 30.078125 48.484375 
Q 22.859375 48.484375 18.828125 43.109375 
Q 14.796875 37.75 14.796875 27.984375 
Q 14.796875 18.265625 18.828125 12.890625 
Q 22.859375 7.515625 30.078125 7.515625 
Q 37.359375 7.515625 41.375 12.890625 
Q 45.40625 18.265625 45.40625 27.984375 
M 54.390625 6.78125 
Q 54.390625 -7.171875 48.1875 -13.984375 
Q 42 -20.796875 29.203125 -20.796875 
Q 24.46875 -20.796875 20.265625 -20.09375 
Q 16.0625 -19.390625 12.109375 -17.921875 
L 12.109375 -9.1875 
Q 16.0625 -11.328125 19.921875 -12.34375 
Q 23.78125 -13.375 27.78125 -13.375 
Q 36.625 -13.375 41.015625 -8.765625 
Q 45.40625 -4.15625 45.40625 5.171875 
L 45.40625 9.625 
Q 42.625 4.78125 38.28125 2.390625 
Q 33.9375 0 27.875 0 
Q 17.828125 0 11.671875 7.65625 
Q 5.515625 15.328125 5.515625 27.984375 
Q 5.515625 40.671875 11.671875 48.328125 
Q 17.828125 56 27.875 56 
Q 33.9375 56 38.28125 53.609375 
Q 42.625 51.21875 45.40625 46.390625 
L 45.40625 54.6875 
L 54.390625 54.6875 
z
" id="BitstreamVeraSans-Roman-67"/>
      <path d="M 41.109375 46.296875 
Q 39.59375 47.171875 37.8125 47.578125 
Q 36.03125 48 33.890625 48 
Q 26.265625 48 22.1875 43.046875 
Q 18.109375 38.09375 18.109375 28.8125 
L 18.109375 0 
L 9.078125 0 
L 9.078125 54.6875 
L 18.109375 54.6875 
L 18.109375 46.1875 
Q 20.953125 51.171875 25.484375 53.578125 
Q 30.03125 56 36.53125 56 
Q 37.453125 56 38.578125 55.875 
Q 39.703125 55.765625 41.0625 55.515625 
z
" id="BitstreamVeraSans-Roman-72"/>
      <path id="BitstreamVeraSans-Roman-20"/>
     </defs>
     <g transform="translate(16.318125 240.208625)rotate(-90.0)scale(0.12 -0.12)">
      <use xlink:href="#BitstreamVeraSans-Roman-61"/>
      <use x="61.279296875" xlink:href="#BitstreamVeraSans-Roman-76"/>
      <use x="120.458984375" xlink:href="#BitstreamVeraSans-Roman-65"/>
      <use x="181.982421875" xlink:href="#BitstreamVeraSans-Roman-72"/>
      <use x="223.095703125" xlink:href="#BitstreamVeraSans-Roman-61"/>
      <use x="284.375" xlink:href="#BitstreamVeraSans-Roman-67"/>
      <use x="347.8515625" xlink:href="#BitstreamVeraSans-Roman-65"/>
      <use x="409.375" xlink:href="#BitstreamVeraSans-Roman-20"/>
      <use x="441.162109375" xlink:href="#BitstreamVeraSans-Roman-6d"/>
      <use x="538.57421875" xlink:href="#BitstreamVeraSans-Roman-61"/>
      <use x="599.853515625" xlink:href="#BitstreamVeraSans-Roman-78"/>
      <use x="659.033203125" xlink:href="#BitstreamVeraSans-Roman-51"/>
     </g>
    </g>
   </g>
   <g id="text_19">
    <!-- Average maxQ per episode, joint3 -->
    <defs>
     <path d="M 34.1875 63.1875 
L 20.796875 26.90625 
L 47.609375 26.90625 
z
M 28.609375 72.90625 
L 39.796875 72.90625 
L 67.578125 0 
L 57.328125 0 
L 50.6875 18.703125 
L 17.828125 18.703125 
L 11.1875 0 
L 0.78125 0 
z
" id="BitstreamVeraSans-Roman-41"/>
     <path d="M 9.421875 54.6875 
L 18.40625 54.6875 
L 18.40625 -0.984375 
Q 18.40625 -11.421875 14.421875 -16.109375 
Q 10.453125 -20.796875 1.609375 -20.796875 
L -1.8125 -20.796875 
L -1.8125 -13.1875 
L 0.59375 -13.1875 
Q 5.71875 -13.1875 7.5625 -10.8125 
Q 9.421875 -8.453125 9.421875 -0.984375 
z
M 9.421875 75.984375 
L 18.40625 75.984375 
L 18.40625 64.59375 
L 9.421875 64.59375 
z
" id="BitstreamVeraSans-Roman-6a"/>
     <path d="M 18.3125 70.21875 
L 18.3125 54.6875 
L 36.8125 54.6875 
L 36.8125 47.703125 
L 18.3125 47.703125 
L 18.3125 18.015625 
Q 18.3125 11.328125 20.140625 9.421875 
Q 21.96875 7.515625 27.59375 7.515625 
L 36.8125 7.515625 
L 36.8125 0 
L 27.59375 0 
Q 17.1875 0 13.234375 3.875 
Q 9.28125 7.765625 9.28125 18.015625 
L 9.28125 47.703125 
L 2.6875 47.703125 
L 2.6875 54.6875 
L 9.28125 54.6875 
L 9.28125 70.21875 
z
" id="BitstreamVeraSans-Roman-74"/>
     <path d="M 11.71875 12.40625 
L 22.015625 12.40625 
L 22.015625 4 
L 14.015625 -11.625 
L 7.71875 -11.625 
L 11.71875 4 
z
" id="BitstreamVeraSans-Roman-2c"/>
     <path d="M 54.890625 33.015625 
L 54.890625 0 
L 45.90625 0 
L 45.90625 32.71875 
Q 45.90625 40.484375 42.875 44.328125 
Q 39.84375 48.1875 33.796875 48.1875 
Q 26.515625 48.1875 22.3125 43.546875 
Q 18.109375 38.921875 18.109375 30.90625 
L 18.109375 0 
L 9.078125 0 
L 9.078125 54.6875 
L 18.109375 54.6875 
L 18.109375 46.1875 
Q 21.34375 51.125 25.703125 53.5625 
Q 30.078125 56 35.796875 56 
Q 45.21875 56 50.046875 50.171875 
Q 54.890625 44.34375 54.890625 33.015625 
" id="BitstreamVeraSans-Roman-6e"/>
    </defs>
    <g transform="translate(146.8245 18.14175)scale(0.144 -0.144)">
     <use xlink:href="#BitstreamVeraSans-Roman-41"/>
     <use x="68.330078125" xlink:href="#BitstreamVeraSans-Roman-76"/>
     <use x="127.509765625" xlink:href="#BitstreamVeraSans-Roman-65"/>
     <use x="189.033203125" xlink:href="#BitstreamVeraSans-Roman-72"/>
     <use x="230.146484375" xlink:href="#BitstreamVeraSans-Roman-61"/>
     <use x="291.42578125" xlink:href="#BitstreamVeraSans-Roman-67"/>
     <use x="354.90234375" xlink:href="#BitstreamVeraSans-Roman-65"/>
     <use x="416.42578125" xlink:href="#BitstreamVeraSans-Roman-20"/>
     <use x="448.212890625" xlink:href="#BitstreamVeraSans-Roman-6d"/>
     <use x="545.625" xlink:href="#BitstreamVeraSans-Roman-61"/>
     <use x="606.904296875" xlink:href="#BitstreamVeraSans-Roman-78"/>
     <use x="666.083984375" xlink:href="#BitstreamVeraSans-Roman-51"/>
     <use x="744.794921875" xlink:href="#BitstreamVeraSans-Roman-20"/>
     <use x="776.58203125" xlink:href="#BitstreamVeraSans-Roman-70"/>
     <use x="840.05859375" xlink:href="#BitstreamVeraSans-Roman-65"/>
     <use x="901.58203125" xlink:href="#BitstreamVeraSans-Roman-72"/>
     <use x="942.6953125" xlink:href="#BitstreamVeraSans-Roman-20"/>
     <use x="974.482421875" xlink:href="#BitstreamVeraSans-Roman-65"/>
     <use x="1036.005859375" xlink:href="#BitstreamVeraSans-Roman-70"/>
     <use x="1099.482421875" xlink:href="#BitstreamVeraSans-Roman-69"/>
     <use x="1127.265625" xlink:href="#BitstreamVeraSans-Roman-73"/>
     <use x="1179.365234375" xlink:href="#BitstreamVeraSans-Roman-6f"/>
     <use x="1240.546875" xlink:href="#BitstreamVeraSans-Roman-64"/>
     <use x="1304.0234375" xlink:href="#BitstreamVeraSans-Roman-65"/>
     <use x="1365.546875" xlink:href="#BitstreamVeraSans-Roman-2c"/>
     <use x="1397.333984375" xlink:href="#BitstreamVeraSans-Roman-20"/>
     <use x="1429.12109375" xlink:href="#BitstreamVeraSans-Roman-6a"/>
     <use x="1456.904296875" xlink:href="#BitstreamVeraSans-Roman-6f"/>
     <use x="1518.0859375" xlink:href="#BitstreamVeraSans-Roman-69"/>
     <use x="1545.869140625" xlink:href="#BitstreamVeraSans-Roman-6e"/>
     <use x="1609.248046875" xlink:href="#BitstreamVeraSans-Roman-74"/>
     <use x="1648.45703125" xlink:href="#BitstreamVeraSans-Roman-33"/>
    </g>
   </g>
  </g>
 </g>
 <defs>
  <clipPath id="pe517682d5c">
   <rect height="345.6" width="446.4" x="46.8975" y="23.14175"/>
  </clipPath>
 </defs>
</svg>
