<?xml version="1.0" encoding="utf-8" standalone="no"?>
<!DOCTYPE svg PUBLIC "-//W3C//DTD SVG 1.1//EN"
  "http://www.w3.org/Graphics/SVG/1.1/DTD/svg11.dtd">
<!-- Created with matplotlib (http://matplotlib.org/) -->
<svg height="325pt" version="1.1" viewBox="0 0 411 325" width="411pt" xmlns="http://www.w3.org/2000/svg" xmlns:xlink="http://www.w3.org/1999/xlink">
 <defs>
  <style type="text/css">
*{stroke-linecap:butt;stroke-linejoin:round;}
  </style>
 </defs>
 <g id="figure_1">
  <g id="patch_1">
   <path d="M 0 325.986375 
L 411.60125 325.986375 
L 411.60125 0 
L 0 0 
z
" style="fill:#ffffff;"/>
  </g>
  <g id="axes_1">
   <g id="patch_2">
    <path d="M 43.78125 288.430125 
L 400.90125 288.430125 
L 400.90125 22.318125 
L 43.78125 22.318125 
z
" style="fill:#ffffff;"/>
   </g>
   <g id="matplotlib.axis_1">
    <g id="xtick_1">
     <g id="line2d_1">
      <defs>
       <path d="M 0 0 
L 0 3.5 
" id="mdea55cac5a" style="stroke:#000000;stroke-width:0.8;"/>
      </defs>
      <g>
       <use style="stroke:#000000;stroke-width:0.8;" x="59.506705" xlink:href="#mdea55cac5a" y="288.430125"/>
      </g>
     </g>
     <g id="text_1">
      <!-- 0 -->
      <defs>
       <path d="M 31.78125 66.40625 
Q 24.171875 66.40625 20.328125 58.90625 
Q 16.5 51.421875 16.5 36.375 
Q 16.5 21.390625 20.328125 13.890625 
Q 24.171875 6.390625 31.78125 6.390625 
Q 39.453125 6.390625 43.28125 13.890625 
Q 47.125 21.390625 47.125 36.375 
Q 47.125 51.421875 43.28125 58.90625 
Q 39.453125 66.40625 31.78125 66.40625 
z
M 31.78125 74.21875 
Q 44.046875 74.21875 50.515625 64.515625 
Q 56.984375 54.828125 56.984375 36.375 
Q 56.984375 17.96875 50.515625 8.265625 
Q 44.046875 -1.421875 31.78125 -1.421875 
Q 19.53125 -1.421875 13.0625 8.265625 
Q 6.59375 17.96875 6.59375 36.375 
Q 6.59375 54.828125 13.0625 64.515625 
Q 19.53125 74.21875 31.78125 74.21875 
z
" id="DejaVuSans-30"/>
      </defs>
      <g transform="translate(56.325455 303.028562)scale(0.1 -0.1)">
       <use xlink:href="#DejaVuSans-30"/>
      </g>
     </g>
    </g>
    <g id="xtick_2">
     <g id="line2d_2">
      <g>
       <use style="stroke:#000000;stroke-width:0.8;" x="110.233977" xlink:href="#mdea55cac5a" y="288.430125"/>
      </g>
     </g>
     <g id="text_2">
      <!-- 100 -->
      <defs>
       <path d="M 12.40625 8.296875 
L 28.515625 8.296875 
L 28.515625 63.921875 
L 10.984375 60.40625 
L 10.984375 69.390625 
L 28.421875 72.90625 
L 38.28125 72.90625 
L 38.28125 8.296875 
L 54.390625 8.296875 
L 54.390625 0 
L 12.40625 0 
z
" id="DejaVuSans-31"/>
      </defs>
      <g transform="translate(100.690227 303.028562)scale(0.1 -0.1)">
       <use xlink:href="#DejaVuSans-31"/>
       <use x="63.623047" xlink:href="#DejaVuSans-30"/>
       <use x="127.246094" xlink:href="#DejaVuSans-30"/>
      </g>
     </g>
    </g>
    <g id="xtick_3">
     <g id="line2d_3">
      <g>
       <use style="stroke:#000000;stroke-width:0.8;" x="160.96125" xlink:href="#mdea55cac5a" y="288.430125"/>
      </g>
     </g>
     <g id="text_3">
      <!-- 200 -->
      <defs>
       <path d="M 19.1875 8.296875 
L 53.609375 8.296875 
L 53.609375 0 
L 7.328125 0 
L 7.328125 8.296875 
Q 12.9375 14.109375 22.625 23.890625 
Q 32.328125 33.6875 34.8125 36.53125 
Q 39.546875 41.84375 41.421875 45.53125 
Q 43.3125 49.21875 43.3125 52.78125 
Q 43.3125 58.59375 39.234375 62.25 
Q 35.15625 65.921875 28.609375 65.921875 
Q 23.96875 65.921875 18.8125 64.3125 
Q 13.671875 62.703125 7.8125 59.421875 
L 7.8125 69.390625 
Q 13.765625 71.78125 18.9375 73 
Q 24.125 74.21875 28.421875 74.21875 
Q 39.75 74.21875 46.484375 68.546875 
Q 53.21875 62.890625 53.21875 53.421875 
Q 53.21875 48.921875 51.53125 44.890625 
Q 49.859375 40.875 45.40625 35.40625 
Q 44.1875 33.984375 37.640625 27.21875 
Q 31.109375 20.453125 19.1875 8.296875 
z
" id="DejaVuSans-32"/>
      </defs>
      <g transform="translate(151.4175 303.028562)scale(0.1 -0.1)">
       <use xlink:href="#DejaVuSans-32"/>
       <use x="63.623047" xlink:href="#DejaVuSans-30"/>
       <use x="127.246094" xlink:href="#DejaVuSans-30"/>
      </g>
     </g>
    </g>
    <g id="xtick_4">
     <g id="line2d_4">
      <g>
       <use style="stroke:#000000;stroke-width:0.8;" x="211.688523" xlink:href="#mdea55cac5a" y="288.430125"/>
      </g>
     </g>
     <g id="text_4">
      <!-- 300 -->
      <defs>
       <path d="M 40.578125 39.3125 
Q 47.65625 37.796875 51.625 33 
Q 55.609375 28.21875 55.609375 21.1875 
Q 55.609375 10.40625 48.1875 4.484375 
Q 40.765625 -1.421875 27.09375 -1.421875 
Q 22.515625 -1.421875 17.65625 -0.515625 
Q 12.796875 0.390625 7.625 2.203125 
L 7.625 11.71875 
Q 11.71875 9.328125 16.59375 8.109375 
Q 21.484375 6.890625 26.8125 6.890625 
Q 36.078125 6.890625 40.9375 10.546875 
Q 45.796875 14.203125 45.796875 21.1875 
Q 45.796875 27.640625 41.28125 31.265625 
Q 36.765625 34.90625 28.71875 34.90625 
L 20.21875 34.90625 
L 20.21875 43.015625 
L 29.109375 43.015625 
Q 36.375 43.015625 40.234375 45.921875 
Q 44.09375 48.828125 44.09375 54.296875 
Q 44.09375 59.90625 40.109375 62.90625 
Q 36.140625 65.921875 28.71875 65.921875 
Q 24.65625 65.921875 20.015625 65.03125 
Q 15.375 64.15625 9.8125 62.3125 
L 9.8125 71.09375 
Q 15.4375 72.65625 20.34375 73.4375 
Q 25.25 74.21875 29.59375 74.21875 
Q 40.828125 74.21875 47.359375 69.109375 
Q 53.90625 64.015625 53.90625 55.328125 
Q 53.90625 49.265625 50.4375 45.09375 
Q 46.96875 40.921875 40.578125 39.3125 
z
" id="DejaVuSans-33"/>
      </defs>
      <g transform="translate(202.144773 303.028562)scale(0.1 -0.1)">
       <use xlink:href="#DejaVuSans-33"/>
       <use x="63.623047" xlink:href="#DejaVuSans-30"/>
       <use x="127.246094" xlink:href="#DejaVuSans-30"/>
      </g>
     </g>
    </g>
    <g id="xtick_5">
     <g id="line2d_5">
      <g>
       <use style="stroke:#000000;stroke-width:0.8;" x="262.415795" xlink:href="#mdea55cac5a" y="288.430125"/>
      </g>
     </g>
     <g id="text_5">
      <!-- 400 -->
      <defs>
       <path d="M 37.796875 64.3125 
L 12.890625 25.390625 
L 37.796875 25.390625 
z
M 35.203125 72.90625 
L 47.609375 72.90625 
L 47.609375 25.390625 
L 58.015625 25.390625 
L 58.015625 17.1875 
L 47.609375 17.1875 
L 47.609375 0 
L 37.796875 0 
L 37.796875 17.1875 
L 4.890625 17.1875 
L 4.890625 26.703125 
z
" id="DejaVuSans-34"/>
      </defs>
      <g transform="translate(252.872045 303.028562)scale(0.1 -0.1)">
       <use xlink:href="#DejaVuSans-34"/>
       <use x="63.623047" xlink:href="#DejaVuSans-30"/>
       <use x="127.246094" xlink:href="#DejaVuSans-30"/>
      </g>
     </g>
    </g>
    <g id="xtick_6">
     <g id="line2d_6">
      <g>
       <use style="stroke:#000000;stroke-width:0.8;" x="313.143068" xlink:href="#mdea55cac5a" y="288.430125"/>
      </g>
     </g>
     <g id="text_6">
      <!-- 500 -->
      <defs>
       <path d="M 10.796875 72.90625 
L 49.515625 72.90625 
L 49.515625 64.59375 
L 19.828125 64.59375 
L 19.828125 46.734375 
Q 21.96875 47.46875 24.109375 47.828125 
Q 26.265625 48.1875 28.421875 48.1875 
Q 40.625 48.1875 47.75 41.5 
Q 54.890625 34.8125 54.890625 23.390625 
Q 54.890625 11.625 47.5625 5.09375 
Q 40.234375 -1.421875 26.90625 -1.421875 
Q 22.3125 -1.421875 17.546875 -0.640625 
Q 12.796875 0.140625 7.71875 1.703125 
L 7.71875 11.625 
Q 12.109375 9.234375 16.796875 8.0625 
Q 21.484375 6.890625 26.703125 6.890625 
Q 35.15625 6.890625 40.078125 11.328125 
Q 45.015625 15.765625 45.015625 23.390625 
Q 45.015625 31 40.078125 35.4375 
Q 35.15625 39.890625 26.703125 39.890625 
Q 22.75 39.890625 18.8125 39.015625 
Q 14.890625 38.140625 10.796875 36.28125 
z
" id="DejaVuSans-35"/>
      </defs>
      <g transform="translate(303.599318 303.028562)scale(0.1 -0.1)">
       <use xlink:href="#DejaVuSans-35"/>
       <use x="63.623047" xlink:href="#DejaVuSans-30"/>
       <use x="127.246094" xlink:href="#DejaVuSans-30"/>
      </g>
     </g>
    </g>
    <g id="xtick_7">
     <g id="line2d_7">
      <g>
       <use style="stroke:#000000;stroke-width:0.8;" x="363.870341" xlink:href="#mdea55cac5a" y="288.430125"/>
      </g>
     </g>
     <g id="text_7">
      <!-- 600 -->
      <defs>
       <path d="M 33.015625 40.375 
Q 26.375 40.375 22.484375 35.828125 
Q 18.609375 31.296875 18.609375 23.390625 
Q 18.609375 15.53125 22.484375 10.953125 
Q 26.375 6.390625 33.015625 6.390625 
Q 39.65625 6.390625 43.53125 10.953125 
Q 47.40625 15.53125 47.40625 23.390625 
Q 47.40625 31.296875 43.53125 35.828125 
Q 39.65625 40.375 33.015625 40.375 
z
M 52.59375 71.296875 
L 52.59375 62.3125 
Q 48.875 64.0625 45.09375 64.984375 
Q 41.3125 65.921875 37.59375 65.921875 
Q 27.828125 65.921875 22.671875 59.328125 
Q 17.53125 52.734375 16.796875 39.40625 
Q 19.671875 43.65625 24.015625 45.921875 
Q 28.375 48.1875 33.59375 48.1875 
Q 44.578125 48.1875 50.953125 41.515625 
Q 57.328125 34.859375 57.328125 23.390625 
Q 57.328125 12.15625 50.6875 5.359375 
Q 44.046875 -1.421875 33.015625 -1.421875 
Q 20.359375 -1.421875 13.671875 8.265625 
Q 6.984375 17.96875 6.984375 36.375 
Q 6.984375 53.65625 15.1875 63.9375 
Q 23.390625 74.21875 37.203125 74.21875 
Q 40.921875 74.21875 44.703125 73.484375 
Q 48.484375 72.75 52.59375 71.296875 
z
" id="DejaVuSans-36"/>
      </defs>
      <g transform="translate(354.326591 303.028562)scale(0.1 -0.1)">
       <use xlink:href="#DejaVuSans-36"/>
       <use x="63.623047" xlink:href="#DejaVuSans-30"/>
       <use x="127.246094" xlink:href="#DejaVuSans-30"/>
      </g>
     </g>
    </g>
    <g id="text_8">
     <!-- episodes -->
     <defs>
      <path d="M 56.203125 29.59375 
L 56.203125 25.203125 
L 14.890625 25.203125 
Q 15.484375 15.921875 20.484375 11.0625 
Q 25.484375 6.203125 34.421875 6.203125 
Q 39.59375 6.203125 44.453125 7.46875 
Q 49.3125 8.734375 54.109375 11.28125 
L 54.109375 2.78125 
Q 49.265625 0.734375 44.1875 -0.34375 
Q 39.109375 -1.421875 33.890625 -1.421875 
Q 20.796875 -1.421875 13.15625 6.1875 
Q 5.515625 13.8125 5.515625 26.8125 
Q 5.515625 40.234375 12.765625 48.109375 
Q 20.015625 56 32.328125 56 
Q 43.359375 56 49.78125 48.890625 
Q 56.203125 41.796875 56.203125 29.59375 
z
M 47.21875 32.234375 
Q 47.125 39.59375 43.09375 43.984375 
Q 39.0625 48.390625 32.421875 48.390625 
Q 24.90625 48.390625 20.390625 44.140625 
Q 15.875 39.890625 15.1875 32.171875 
z
" id="DejaVuSans-65"/>
      <path d="M 18.109375 8.203125 
L 18.109375 -20.796875 
L 9.078125 -20.796875 
L 9.078125 54.6875 
L 18.109375 54.6875 
L 18.109375 46.390625 
Q 20.953125 51.265625 25.265625 53.625 
Q 29.59375 56 35.59375 56 
Q 45.5625 56 51.78125 48.09375 
Q 58.015625 40.1875 58.015625 27.296875 
Q 58.015625 14.40625 51.78125 6.484375 
Q 45.5625 -1.421875 35.59375 -1.421875 
Q 29.59375 -1.421875 25.265625 0.953125 
Q 20.953125 3.328125 18.109375 8.203125 
z
M 48.6875 27.296875 
Q 48.6875 37.203125 44.609375 42.84375 
Q 40.53125 48.484375 33.40625 48.484375 
Q 26.265625 48.484375 22.1875 42.84375 
Q 18.109375 37.203125 18.109375 27.296875 
Q 18.109375 17.390625 22.1875 11.75 
Q 26.265625 6.109375 33.40625 6.109375 
Q 40.53125 6.109375 44.609375 11.75 
Q 48.6875 17.390625 48.6875 27.296875 
z
" id="DejaVuSans-70"/>
      <path d="M 9.421875 54.6875 
L 18.40625 54.6875 
L 18.40625 0 
L 9.421875 0 
z
M 9.421875 75.984375 
L 18.40625 75.984375 
L 18.40625 64.59375 
L 9.421875 64.59375 
z
" id="DejaVuSans-69"/>
      <path d="M 44.28125 53.078125 
L 44.28125 44.578125 
Q 40.484375 46.53125 36.375 47.5 
Q 32.28125 48.484375 27.875 48.484375 
Q 21.1875 48.484375 17.84375 46.4375 
Q 14.5 44.390625 14.5 40.28125 
Q 14.5 37.15625 16.890625 35.375 
Q 19.28125 33.59375 26.515625 31.984375 
L 29.59375 31.296875 
Q 39.15625 29.25 43.1875 25.515625 
Q 47.21875 21.78125 47.21875 15.09375 
Q 47.21875 7.46875 41.1875 3.015625 
Q 35.15625 -1.421875 24.609375 -1.421875 
Q 20.21875 -1.421875 15.453125 -0.5625 
Q 10.6875 0.296875 5.421875 2 
L 5.421875 11.28125 
Q 10.40625 8.6875 15.234375 7.390625 
Q 20.0625 6.109375 24.8125 6.109375 
Q 31.15625 6.109375 34.5625 8.28125 
Q 37.984375 10.453125 37.984375 14.40625 
Q 37.984375 18.0625 35.515625 20.015625 
Q 33.0625 21.96875 24.703125 23.78125 
L 21.578125 24.515625 
Q 13.234375 26.265625 9.515625 29.90625 
Q 5.8125 33.546875 5.8125 39.890625 
Q 5.8125 47.609375 11.28125 51.796875 
Q 16.75 56 26.8125 56 
Q 31.78125 56 36.171875 55.265625 
Q 40.578125 54.546875 44.28125 53.078125 
z
" id="DejaVuSans-73"/>
      <path d="M 30.609375 48.390625 
Q 23.390625 48.390625 19.1875 42.75 
Q 14.984375 37.109375 14.984375 27.296875 
Q 14.984375 17.484375 19.15625 11.84375 
Q 23.34375 6.203125 30.609375 6.203125 
Q 37.796875 6.203125 41.984375 11.859375 
Q 46.1875 17.53125 46.1875 27.296875 
Q 46.1875 37.015625 41.984375 42.703125 
Q 37.796875 48.390625 30.609375 48.390625 
z
M 30.609375 56 
Q 42.328125 56 49.015625 48.375 
Q 55.71875 40.765625 55.71875 27.296875 
Q 55.71875 13.875 49.015625 6.21875 
Q 42.328125 -1.421875 30.609375 -1.421875 
Q 18.84375 -1.421875 12.171875 6.21875 
Q 5.515625 13.875 5.515625 27.296875 
Q 5.515625 40.765625 12.171875 48.375 
Q 18.84375 56 30.609375 56 
z
" id="DejaVuSans-6f"/>
      <path d="M 45.40625 46.390625 
L 45.40625 75.984375 
L 54.390625 75.984375 
L 54.390625 0 
L 45.40625 0 
L 45.40625 8.203125 
Q 42.578125 3.328125 38.25 0.953125 
Q 33.9375 -1.421875 27.875 -1.421875 
Q 17.96875 -1.421875 11.734375 6.484375 
Q 5.515625 14.40625 5.515625 27.296875 
Q 5.515625 40.1875 11.734375 48.09375 
Q 17.96875 56 27.875 56 
Q 33.9375 56 38.25 53.625 
Q 42.578125 51.265625 45.40625 46.390625 
z
M 14.796875 27.296875 
Q 14.796875 17.390625 18.875 11.75 
Q 22.953125 6.109375 30.078125 6.109375 
Q 37.203125 6.109375 41.296875 11.75 
Q 45.40625 17.390625 45.40625 27.296875 
Q 45.40625 37.203125 41.296875 42.84375 
Q 37.203125 48.484375 30.078125 48.484375 
Q 22.953125 48.484375 18.875 42.84375 
Q 14.796875 37.203125 14.796875 27.296875 
z
" id="DejaVuSans-64"/>
     </defs>
     <g transform="translate(200.181875 316.706687)scale(0.1 -0.1)">
      <use xlink:href="#DejaVuSans-65"/>
      <use x="61.523438" xlink:href="#DejaVuSans-70"/>
      <use x="125" xlink:href="#DejaVuSans-69"/>
      <use x="152.783203" xlink:href="#DejaVuSans-73"/>
      <use x="204.882812" xlink:href="#DejaVuSans-6f"/>
      <use x="266.064453" xlink:href="#DejaVuSans-64"/>
      <use x="329.541016" xlink:href="#DejaVuSans-65"/>
      <use x="391.064453" xlink:href="#DejaVuSans-73"/>
     </g>
    </g>
   </g>
   <g id="matplotlib.axis_2">
    <g id="ytick_1">
     <g id="line2d_8">
      <defs>
       <path d="M 0 0 
L -3.5 0 
" id="m401774523d" style="stroke:#000000;stroke-width:0.8;"/>
      </defs>
      <g>
       <use style="stroke:#000000;stroke-width:0.8;" x="43.78125" xlink:href="#m401774523d" y="267.60434"/>
      </g>
     </g>
     <g id="text_9">
      <!-- 1.0 -->
      <defs>
       <path d="M 10.6875 12.40625 
L 21 12.40625 
L 21 0 
L 10.6875 0 
z
" id="DejaVuSans-2e"/>
      </defs>
      <g transform="translate(20.878125 271.403559)scale(0.1 -0.1)">
       <use xlink:href="#DejaVuSans-31"/>
       <use x="63.623047" xlink:href="#DejaVuSans-2e"/>
       <use x="95.410156" xlink:href="#DejaVuSans-30"/>
      </g>
     </g>
    </g>
    <g id="ytick_2">
     <g id="line2d_9">
      <g>
       <use style="stroke:#000000;stroke-width:0.8;" x="43.78125" xlink:href="#m401774523d" y="225.949428"/>
      </g>
     </g>
     <g id="text_10">
      <!-- 1.2 -->
      <g transform="translate(20.878125 229.748647)scale(0.1 -0.1)">
       <use xlink:href="#DejaVuSans-31"/>
       <use x="63.623047" xlink:href="#DejaVuSans-2e"/>
       <use x="95.410156" xlink:href="#DejaVuSans-32"/>
      </g>
     </g>
    </g>
    <g id="ytick_3">
     <g id="line2d_10">
      <g>
       <use style="stroke:#000000;stroke-width:0.8;" x="43.78125" xlink:href="#m401774523d" y="184.294515"/>
      </g>
     </g>
     <g id="text_11">
      <!-- 1.4 -->
      <g transform="translate(20.878125 188.093734)scale(0.1 -0.1)">
       <use xlink:href="#DejaVuSans-31"/>
       <use x="63.623047" xlink:href="#DejaVuSans-2e"/>
       <use x="95.410156" xlink:href="#DejaVuSans-34"/>
      </g>
     </g>
    </g>
    <g id="ytick_4">
     <g id="line2d_11">
      <g>
       <use style="stroke:#000000;stroke-width:0.8;" x="43.78125" xlink:href="#m401774523d" y="142.639603"/>
      </g>
     </g>
     <g id="text_12">
      <!-- 1.6 -->
      <g transform="translate(20.878125 146.438822)scale(0.1 -0.1)">
       <use xlink:href="#DejaVuSans-31"/>
       <use x="63.623047" xlink:href="#DejaVuSans-2e"/>
       <use x="95.410156" xlink:href="#DejaVuSans-36"/>
      </g>
     </g>
    </g>
    <g id="ytick_5">
     <g id="line2d_12">
      <g>
       <use style="stroke:#000000;stroke-width:0.8;" x="43.78125" xlink:href="#m401774523d" y="100.98469"/>
      </g>
     </g>
     <g id="text_13">
      <!-- 1.8 -->
      <defs>
       <path d="M 31.78125 34.625 
Q 24.75 34.625 20.71875 30.859375 
Q 16.703125 27.09375 16.703125 20.515625 
Q 16.703125 13.921875 20.71875 10.15625 
Q 24.75 6.390625 31.78125 6.390625 
Q 38.8125 6.390625 42.859375 10.171875 
Q 46.921875 13.96875 46.921875 20.515625 
Q 46.921875 27.09375 42.890625 30.859375 
Q 38.875 34.625 31.78125 34.625 
z
M 21.921875 38.8125 
Q 15.578125 40.375 12.03125 44.71875 
Q 8.5 49.078125 8.5 55.328125 
Q 8.5 64.0625 14.71875 69.140625 
Q 20.953125 74.21875 31.78125 74.21875 
Q 42.671875 74.21875 48.875 69.140625 
Q 55.078125 64.0625 55.078125 55.328125 
Q 55.078125 49.078125 51.53125 44.71875 
Q 48 40.375 41.703125 38.8125 
Q 48.828125 37.15625 52.796875 32.3125 
Q 56.78125 27.484375 56.78125 20.515625 
Q 56.78125 9.90625 50.3125 4.234375 
Q 43.84375 -1.421875 31.78125 -1.421875 
Q 19.734375 -1.421875 13.25 4.234375 
Q 6.78125 9.90625 6.78125 20.515625 
Q 6.78125 27.484375 10.78125 32.3125 
Q 14.796875 37.15625 21.921875 38.8125 
z
M 18.3125 54.390625 
Q 18.3125 48.734375 21.84375 45.5625 
Q 25.390625 42.390625 31.78125 42.390625 
Q 38.140625 42.390625 41.71875 45.5625 
Q 45.3125 48.734375 45.3125 54.390625 
Q 45.3125 60.0625 41.71875 63.234375 
Q 38.140625 66.40625 31.78125 66.40625 
Q 25.390625 66.40625 21.84375 63.234375 
Q 18.3125 60.0625 18.3125 54.390625 
z
" id="DejaVuSans-38"/>
      </defs>
      <g transform="translate(20.878125 104.783909)scale(0.1 -0.1)">
       <use xlink:href="#DejaVuSans-31"/>
       <use x="63.623047" xlink:href="#DejaVuSans-2e"/>
       <use x="95.410156" xlink:href="#DejaVuSans-38"/>
      </g>
     </g>
    </g>
    <g id="ytick_6">
     <g id="line2d_13">
      <g>
       <use style="stroke:#000000;stroke-width:0.8;" x="43.78125" xlink:href="#m401774523d" y="59.329778"/>
      </g>
     </g>
     <g id="text_14">
      <!-- 2.0 -->
      <g transform="translate(20.878125 63.128997)scale(0.1 -0.1)">
       <use xlink:href="#DejaVuSans-32"/>
       <use x="63.623047" xlink:href="#DejaVuSans-2e"/>
       <use x="95.410156" xlink:href="#DejaVuSans-30"/>
      </g>
     </g>
    </g>
    <g id="text_15">
     <!-- average maxQ -->
     <defs>
      <path d="M 34.28125 27.484375 
Q 23.390625 27.484375 19.1875 25 
Q 14.984375 22.515625 14.984375 16.5 
Q 14.984375 11.71875 18.140625 8.90625 
Q 21.296875 6.109375 26.703125 6.109375 
Q 34.1875 6.109375 38.703125 11.40625 
Q 43.21875 16.703125 43.21875 25.484375 
L 43.21875 27.484375 
z
M 52.203125 31.203125 
L 52.203125 0 
L 43.21875 0 
L 43.21875 8.296875 
Q 40.140625 3.328125 35.546875 0.953125 
Q 30.953125 -1.421875 24.3125 -1.421875 
Q 15.921875 -1.421875 10.953125 3.296875 
Q 6 8.015625 6 15.921875 
Q 6 25.140625 12.171875 29.828125 
Q 18.359375 34.515625 30.609375 34.515625 
L 43.21875 34.515625 
L 43.21875 35.40625 
Q 43.21875 41.609375 39.140625 45 
Q 35.0625 48.390625 27.6875 48.390625 
Q 23 48.390625 18.546875 47.265625 
Q 14.109375 46.140625 10.015625 43.890625 
L 10.015625 52.203125 
Q 14.9375 54.109375 19.578125 55.046875 
Q 24.21875 56 28.609375 56 
Q 40.484375 56 46.34375 49.84375 
Q 52.203125 43.703125 52.203125 31.203125 
z
" id="DejaVuSans-61"/>
      <path d="M 2.984375 54.6875 
L 12.5 54.6875 
L 29.59375 8.796875 
L 46.6875 54.6875 
L 56.203125 54.6875 
L 35.6875 0 
L 23.484375 0 
z
" id="DejaVuSans-76"/>
      <path d="M 41.109375 46.296875 
Q 39.59375 47.171875 37.8125 47.578125 
Q 36.03125 48 33.890625 48 
Q 26.265625 48 22.1875 43.046875 
Q 18.109375 38.09375 18.109375 28.8125 
L 18.109375 0 
L 9.078125 0 
L 9.078125 54.6875 
L 18.109375 54.6875 
L 18.109375 46.1875 
Q 20.953125 51.171875 25.484375 53.578125 
Q 30.03125 56 36.53125 56 
Q 37.453125 56 38.578125 55.875 
Q 39.703125 55.765625 41.0625 55.515625 
z
" id="DejaVuSans-72"/>
      <path d="M 45.40625 27.984375 
Q 45.40625 37.75 41.375 43.109375 
Q 37.359375 48.484375 30.078125 48.484375 
Q 22.859375 48.484375 18.828125 43.109375 
Q 14.796875 37.75 14.796875 27.984375 
Q 14.796875 18.265625 18.828125 12.890625 
Q 22.859375 7.515625 30.078125 7.515625 
Q 37.359375 7.515625 41.375 12.890625 
Q 45.40625 18.265625 45.40625 27.984375 
z
M 54.390625 6.78125 
Q 54.390625 -7.171875 48.1875 -13.984375 
Q 42 -20.796875 29.203125 -20.796875 
Q 24.46875 -20.796875 20.265625 -20.09375 
Q 16.0625 -19.390625 12.109375 -17.921875 
L 12.109375 -9.1875 
Q 16.0625 -11.328125 19.921875 -12.34375 
Q 23.78125 -13.375 27.78125 -13.375 
Q 36.625 -13.375 41.015625 -8.765625 
Q 45.40625 -4.15625 45.40625 5.171875 
L 45.40625 9.625 
Q 42.625 4.78125 38.28125 2.390625 
Q 33.9375 0 27.875 0 
Q 17.828125 0 11.671875 7.65625 
Q 5.515625 15.328125 5.515625 27.984375 
Q 5.515625 40.671875 11.671875 48.328125 
Q 17.828125 56 27.875 56 
Q 33.9375 56 38.28125 53.609375 
Q 42.625 51.21875 45.40625 46.390625 
L 45.40625 54.6875 
L 54.390625 54.6875 
z
" id="DejaVuSans-67"/>
      <path id="DejaVuSans-20"/>
      <path d="M 52 44.1875 
Q 55.375 50.25 60.0625 53.125 
Q 64.75 56 71.09375 56 
Q 79.640625 56 84.28125 50.015625 
Q 88.921875 44.046875 88.921875 33.015625 
L 88.921875 0 
L 79.890625 0 
L 79.890625 32.71875 
Q 79.890625 40.578125 77.09375 44.375 
Q 74.3125 48.1875 68.609375 48.1875 
Q 61.625 48.1875 57.5625 43.546875 
Q 53.515625 38.921875 53.515625 30.90625 
L 53.515625 0 
L 44.484375 0 
L 44.484375 32.71875 
Q 44.484375 40.625 41.703125 44.40625 
Q 38.921875 48.1875 33.109375 48.1875 
Q 26.21875 48.1875 22.15625 43.53125 
Q 18.109375 38.875 18.109375 30.90625 
L 18.109375 0 
L 9.078125 0 
L 9.078125 54.6875 
L 18.109375 54.6875 
L 18.109375 46.1875 
Q 21.1875 51.21875 25.484375 53.609375 
Q 29.78125 56 35.6875 56 
Q 41.65625 56 45.828125 52.96875 
Q 50 49.953125 52 44.1875 
z
" id="DejaVuSans-6d"/>
      <path d="M 54.890625 54.6875 
L 35.109375 28.078125 
L 55.90625 0 
L 45.3125 0 
L 29.390625 21.484375 
L 13.484375 0 
L 2.875 0 
L 24.125 28.609375 
L 4.6875 54.6875 
L 15.28125 54.6875 
L 29.78125 35.203125 
L 44.28125 54.6875 
z
" id="DejaVuSans-78"/>
      <path d="M 39.40625 66.21875 
Q 28.65625 66.21875 22.328125 58.203125 
Q 16.015625 50.203125 16.015625 36.375 
Q 16.015625 22.609375 22.328125 14.59375 
Q 28.65625 6.59375 39.40625 6.59375 
Q 50.140625 6.59375 56.421875 14.59375 
Q 62.703125 22.609375 62.703125 36.375 
Q 62.703125 50.203125 56.421875 58.203125 
Q 50.140625 66.21875 39.40625 66.21875 
z
M 53.21875 1.3125 
L 66.21875 -12.890625 
L 54.296875 -12.890625 
L 43.5 -1.21875 
Q 41.890625 -1.3125 41.03125 -1.359375 
Q 40.1875 -1.421875 39.40625 -1.421875 
Q 24.03125 -1.421875 14.8125 8.859375 
Q 5.609375 19.140625 5.609375 36.375 
Q 5.609375 53.65625 14.8125 63.9375 
Q 24.03125 74.21875 39.40625 74.21875 
Q 54.734375 74.21875 63.90625 63.9375 
Q 73.09375 53.65625 73.09375 36.375 
Q 73.09375 23.6875 67.984375 14.640625 
Q 62.890625 5.609375 53.21875 1.3125 
z
" id="DejaVuSans-51"/>
     </defs>
     <g transform="translate(14.798438 192.263187)rotate(-90)scale(0.1 -0.1)">
      <use xlink:href="#DejaVuSans-61"/>
      <use x="61.279297" xlink:href="#DejaVuSans-76"/>
      <use x="120.458984" xlink:href="#DejaVuSans-65"/>
      <use x="181.982422" xlink:href="#DejaVuSans-72"/>
      <use x="223.095703" xlink:href="#DejaVuSans-61"/>
      <use x="284.375" xlink:href="#DejaVuSans-67"/>
      <use x="347.851562" xlink:href="#DejaVuSans-65"/>
      <use x="409.375" xlink:href="#DejaVuSans-20"/>
      <use x="441.162109" xlink:href="#DejaVuSans-6d"/>
      <use x="538.574219" xlink:href="#DejaVuSans-61"/>
      <use x="599.853516" xlink:href="#DejaVuSans-78"/>
      <use x="659.033203" xlink:href="#DejaVuSans-51"/>
     </g>
    </g>
   </g>
   <g id="line2d_14">
    <path clip-path="url(#p61d3332e71)" d="M 60.013977 157.20547 
L 60.52125 231.354334 
L 61.028523 179.391897 
L 61.535795 159.308434 
L 62.043068 198.02902 
L 62.550341 187.818541 
L 63.057614 209.404356 
L 63.564886 134.600717 
L 64.072159 223.871482 
L 64.579432 171.366469 
L 65.086705 153.932358 
L 65.593977 207.103962 
L 66.10125 156.283496 
L 66.608523 169.744359 
L 67.115795 163.251323 
L 67.623068 207.843731 
L 68.130341 224.160062 
L 68.637614 164.113363 
L 69.144886 190.170469 
L 69.652159 188.455979 
L 70.159432 140.83303 
L 70.666705 140.761694 
L 71.173977 258.902169 
L 71.68125 181.494558 
L 72.188523 187.921157 
L 72.695795 189.625957 
L 73.203068 144.040991 
L 73.710341 198.46519 
L 74.217614 171.970774 
L 74.724886 200.039742 
L 75.232159 219.759895 
L 75.739432 185.697769 
L 76.246705 143.454046 
L 76.753977 173.059178 
L 77.26125 147.291192 
L 77.768523 135.624954 
L 78.275795 163.109479 
L 78.783068 240.481462 
L 79.290341 174.703566 
L 79.797614 206.435746 
L 80.304886 158.889538 
L 80.812159 180.120222 
L 81.319432 159.563467 
L 82.333977 185.268347 
L 82.84125 129.268159 
L 83.348523 145.151343 
L 83.855795 186.650643 
L 84.363068 207.507063 
L 84.870341 151.51326 
L 85.377614 219.065223 
L 85.884886 195.782256 
L 86.392159 150.484587 
L 86.899432 142.604644 
L 87.406705 223.527423 
L 87.913977 185.987033 
L 88.42125 222.553059 
L 88.928523 158.584031 
L 89.435795 168.535368 
L 89.943068 225.437619 
L 90.450341 162.811872 
L 90.957614 192.118312 
L 91.464886 164.991709 
L 91.972159 198.651629 
L 92.479432 162.105499 
L 92.986705 205.031836 
L 94.508523 127.59907 
L 95.015795 194.520199 
L 95.523068 149.145794 
L 96.030341 158.524655 
L 96.537614 199.975162 
L 97.552159 142.508178 
L 98.059432 215.871587 
L 98.566705 143.89166 
L 99.073977 114.852511 
L 99.58125 163.285145 
L 100.088523 130.797668 
L 101.103068 238.848401 
L 101.610341 175.704048 
L 102.117614 165.632821 
L 102.624886 120.108814 
L 103.132159 151.86859 
L 103.639432 128.088257 
L 104.146705 176.277479 
L 104.653977 130.111237 
L 105.16125 113.520686 
L 105.668523 208.662614 
L 106.175795 171.10799 
L 106.683068 118.028256 
L 107.190341 145.303242 
L 107.697614 137.37918 
L 108.204886 143.169125 
L 108.712159 161.045015 
L 109.726705 136.297892 
L 110.233977 143.519426 
L 110.74125 194.994479 
L 111.248523 190.718609 
L 111.755795 139.25124 
L 112.263068 121.790001 
L 112.770341 155.451559 
L 113.277614 163.227983 
L 113.784886 106.658829 
L 114.292159 125.876056 
L 114.799432 163.709023 
L 115.306705 140.86428 
L 115.813977 156.681992 
L 116.32125 133.359048 
L 116.828523 199.726917 
L 117.335795 191.843553 
L 117.843068 129.831672 
L 118.350341 139.498506 
L 118.857614 234.077277 
L 119.364886 135.949695 
L 119.872159 87.869692 
L 120.379432 153.31892 
L 120.886705 175.734796 
L 121.393977 190.200014 
L 121.90125 123.487505 
L 122.408523 179.831102 
L 122.915795 170.374896 
L 123.423068 275.615297 
L 124.437614 96.574887 
L 124.944886 180.777565 
L 125.452159 89.464668 
L 125.959432 128.242545 
L 126.466705 157.947867 
L 126.973977 101.189059 
L 127.48125 122.833074 
L 127.988523 192.726541 
L 128.495795 90.629385 
L 129.003068 170.094504 
L 129.510341 136.150879 
L 130.017614 138.171931 
L 130.524886 89.567579 
L 131.032159 124.822181 
L 131.539432 111.882873 
L 132.046705 130.574163 
L 132.553977 110.738433 
L 133.06125 155.270939 
L 134.075795 121.271258 
L 134.583068 171.064395 
L 135.090341 116.401567 
L 135.597614 111.776724 
L 136.104886 131.589277 
L 136.612159 124.751272 
L 137.119432 139.93877 
L 137.626705 118.169345 
L 138.133977 84.777208 
L 138.64125 162.820831 
L 139.148523 92.661003 
L 139.655795 129.721649 
L 140.163068 129.626044 
L 140.670341 148.989327 
L 141.177614 175.094267 
L 141.684886 121.248002 
L 142.192159 144.682246 
L 142.699432 129.918893 
L 143.206705 106.441562 
L 143.713977 148.563304 
L 144.22125 79.371018 
L 144.728523 199.835962 
L 145.235795 72.96418 
L 145.743068 109.242817 
L 146.250341 173.235295 
L 146.757614 157.245125 
L 147.264886 201.348932 
L 147.772159 139.059211 
L 148.279432 142.243606 
L 148.786705 223.217058 
L 149.293977 142.520399 
L 149.80125 207.557769 
L 150.308523 170.219707 
L 150.815795 175.220281 
L 151.323068 134.088539 
L 151.830341 153.477639 
L 152.337614 152.288417 
L 152.844886 84.295431 
L 153.352159 205.61723 
L 153.859432 181.375665 
L 154.366705 150.85311 
L 154.873977 197.574613 
L 155.888523 115.366392 
L 156.395795 164.496091 
L 156.903068 162.569006 
L 157.410341 146.904719 
L 157.917614 154.409053 
L 158.424886 143.700055 
L 158.932159 218.862027 
L 159.439432 176.18415 
L 159.946705 145.889997 
L 160.453977 237.848755 
L 160.96125 198.276071 
L 161.468523 210.111745 
L 161.975795 142.500576 
L 162.483068 178.219107 
L 162.990341 180.383882 
L 163.497614 145.253821 
L 164.004886 166.904601 
L 164.512159 150.377244 
L 165.019432 210.628372 
L 165.526705 187.778591 
L 166.033977 179.627909 
L 166.54125 164.496589 
L 167.048523 69.02956 
L 167.555795 141.680475 
L 168.063068 240.527867 
L 168.570341 188.248665 
L 169.077614 157.710892 
L 169.584886 149.844951 
L 170.092159 72.429913 
L 170.599432 182.42264 
L 171.106705 194.500777 
L 171.613977 174.514518 
L 172.12125 181.547502 
L 172.628523 175.379502 
L 173.643068 109.546187 
L 174.150341 126.105016 
L 174.657614 178.217162 
L 175.164886 145.523316 
L 175.672159 155.454059 
L 176.179432 158.354318 
L 176.686705 140.159438 
L 177.193977 189.134083 
L 177.70125 65.349772 
L 178.208523 133.334403 
L 178.715795 59.206321 
L 179.223068 108.072771 
L 179.730341 201.990269 
L 180.237614 86.347785 
L 180.744886 49.300352 
L 181.252159 176.641146 
L 181.759432 111.112031 
L 182.266705 177.953551 
L 182.773977 115.28371 
L 183.28125 115.527843 
L 183.788523 72.90467 
L 184.295795 92.274836 
L 184.803068 149.262381 
L 185.310341 153.788751 
L 185.817614 50.989017 
L 186.324886 96.701946 
L 186.832159 164.77381 
L 187.339432 127.72911 
L 187.846705 45.879932 
L 188.353977 265.912755 
L 189.368523 60.873099 
L 189.875795 98.938633 
L 190.383068 171.056501 
L 190.890341 159.664398 
L 191.397614 40.735379 
L 191.904886 69.463596 
L 192.412159 157.177088 
L 192.919432 62.845242 
L 193.426705 145.490434 
L 193.933977 49.01174 
L 194.44125 100.658388 
L 194.948523 104.463658 
L 195.455795 89.575024 
L 195.963068 239.2529 
L 196.470341 97.913602 
L 196.977614 105.786848 
L 197.484886 108.589098 
L 197.992159 103.414519 
L 198.499432 222.18352 
L 199.006705 37.478933 
L 199.513977 61.997228 
L 200.02125 61.946839 
L 200.528523 34.414125 
L 201.035795 115.70773 
L 201.543068 65.881359 
L 202.050341 62.577606 
L 203.064886 107.147902 
L 203.572159 68.832253 
L 204.079432 43.486543 
L 204.586705 88.92665 
L 205.093977 80.264726 
L 205.60125 51.943197 
L 206.108523 63.892313 
L 206.615795 64.024037 
L 207.123068 243.500292 
L 207.630341 59.806387 
L 208.137614 131.784663 
L 208.644886 72.992396 
L 209.152159 69.978721 
L 209.659432 138.848594 
L 210.166705 49.764218 
L 210.673977 47.881939 
L 211.18125 69.136509 
L 211.688523 67.883005 
L 212.195795 51.615231 
L 212.703068 109.669995 
L 213.210341 111.114359 
L 213.717614 153.770914 
L 214.224886 143.593778 
L 214.732159 102.281519 
L 215.239432 79.006604 
L 215.746705 60.884055 
L 216.253977 91.444641 
L 216.76125 105.892337 
L 217.268523 69.790358 
L 218.283068 101.697533 
L 218.790341 41.260027 
L 219.297614 87.91759 
L 219.804886 115.488868 
L 220.312159 67.221957 
L 220.819432 78.763653 
L 221.326705 117.97955 
L 221.833977 119.278431 
L 222.34125 55.668712 
L 222.848523 110.007061 
L 223.355795 59.389763 
L 223.863068 83.268655 
L 224.370341 81.314403 
L 224.877614 149.428854 
L 225.384886 107.334771 
L 225.892159 85.381764 
L 226.399432 93.129139 
L 226.906705 61.096356 
L 227.413977 102.216561 
L 227.92125 79.600276 
L 228.428523 68.02043 
L 228.935795 83.540738 
L 229.443068 91.174935 
L 229.950341 57.30002 
L 230.457614 144.219733 
L 230.964886 126.057913 
L 231.472159 132.434324 
L 231.979432 209.918756 
L 232.486705 67.132286 
L 232.993977 65.984673 
L 233.50125 120.40763 
L 234.008523 103.028862 
L 234.515795 61.038871 
L 235.023068 139.686771 
L 235.530341 67.544988 
L 236.037614 55.61333 
L 236.544886 79.834742 
L 237.052159 97.665498 
L 237.559432 101.741153 
L 238.066705 83.469987 
L 238.573977 138.481781 
L 239.08125 156.312801 
L 239.588523 79.661608 
L 240.095795 68.542033 
L 240.603068 89.262615 
L 241.110341 131.79588 
L 241.617614 125.795146 
L 242.124886 60.182843 
L 242.632159 124.485981 
L 243.139432 81.741131 
L 243.646705 104.622404 
L 244.153977 232.852629 
L 244.66125 128.967471 
L 245.168523 112.296544 
L 245.675795 80.279851 
L 246.183068 125.229773 
L 246.690341 89.08429 
L 247.197614 173.161852 
L 247.704886 111.821122 
L 248.212159 102.076905 
L 248.719432 105.375412 
L 249.226705 228.016784 
L 249.733977 98.46409 
L 250.24125 125.885241 
L 250.748523 112.827852 
L 251.255795 128.329719 
L 251.763068 73.942161 
L 252.270341 95.142249 
L 252.777614 190.37264 
L 253.284886 63.495419 
L 253.792159 93.48675 
L 254.806705 121.018423 
L 255.313977 150.784084 
L 255.82125 78.871086 
L 256.328523 73.030015 
L 256.835795 72.451831 
L 257.343068 232.718079 
L 257.850341 103.611519 
L 258.357614 125.372602 
L 258.864886 85.522115 
L 259.372159 91.791021 
L 259.879432 83.941133 
L 260.386705 70.131615 
L 260.893977 103.158408 
L 261.40125 98.494094 
L 261.908523 95.189153 
L 262.415795 103.327894 
L 262.923068 87.174013 
L 263.430341 112.250015 
L 263.937614 179.374472 
L 264.444886 94.027072 
L 264.952159 82.532898 
L 265.459432 83.966372 
L 265.966705 89.408328 
L 266.473977 98.245694 
L 266.98125 77.652594 
L 267.488523 87.199349 
L 267.995795 86.171161 
L 268.503068 66.199157 
L 269.010341 87.155606 
L 269.517614 88.70926 
L 270.024886 89.891364 
L 270.532159 143.378418 
L 271.039432 71.330831 
L 271.546705 77.736454 
L 272.053977 105.824567 
L 272.56125 100.89661 
L 273.068523 75.473069 
L 273.575795 77.793452 
L 274.083068 120.128359 
L 274.590341 133.441332 
L 275.097614 125.240348 
L 275.604886 88.745237 
L 276.112159 130.005405 
L 276.619432 102.645268 
L 277.126705 82.053215 
L 277.633977 93.553443 
L 278.14125 101.85345 
L 278.648523 91.75358 
L 279.155795 100.561623 
L 279.663068 113.937896 
L 280.170341 86.673269 
L 280.677614 74.296054 
L 281.184886 78.943983 
L 281.692159 235.940304 
L 282.199432 77.755118 
L 282.706705 140.654601 
L 283.213977 135.779907 
L 283.72125 118.591624 
L 284.228523 183.255634 
L 284.735795 75.821047 
L 285.243068 128.699029 
L 285.750341 144.896408 
L 286.257614 116.686246 
L 286.764886 81.557163 
L 287.272159 117.538697 
L 287.779432 81.188273 
L 288.286705 213.714592 
L 288.793977 103.671299 
L 289.30125 117.188424 
L 289.808523 248.867768 
L 290.315795 121.202621 
L 290.823068 131.951218 
L 291.330341 82.418015 
L 291.837614 137.919081 
L 292.852159 134.4301 
L 293.359432 144.097321 
L 293.866705 135.696639 
L 294.373977 153.083644 
L 294.88125 104.165628 
L 295.388523 78.931077 
L 295.895795 115.463103 
L 296.403068 135.088866 
L 296.910341 112.496479 
L 297.417614 150.081315 
L 297.924886 111.212752 
L 298.432159 82.400671 
L 298.939432 180.758019 
L 299.446705 101.805567 
L 299.953977 95.593256 
L 300.46125 130.140961 
L 300.968523 151.8045 
L 301.475795 167.760622 
L 301.983068 121.060257 
L 302.490341 94.455944 
L 302.997614 91.128796 
L 303.504886 101.96391 
L 304.012159 131.455865 
L 304.519432 118.320433 
L 305.026705 113.72175 
L 305.533977 93.988649 
L 306.04125 111.709753 
L 306.548523 122.098864 
L 307.055795 112.535457 
L 307.563068 96.190445 
L 308.070341 92.747682 
L 308.577614 107.62963 
L 309.084886 164.456465 
L 309.592159 105.860217 
L 310.099432 120.415379 
L 310.606705 173.371205 
L 311.113977 159.897254 
L 311.62125 100.249576 
L 312.128523 136.05005 
L 312.635795 100.992868 
L 313.143068 137.751371 
L 313.650341 109.006213 
L 314.157614 116.790122 
L 314.664886 126.325763 
L 315.172159 126.759306 
L 315.679432 173.442167 
L 316.186705 95.182138 
L 316.693977 141.240194 
L 317.20125 97.391841 
L 317.708523 106.493 
L 318.215795 125.206184 
L 318.723068 137.210284 
L 319.230341 100.471187 
L 320.244886 257.138319 
L 320.752159 133.382121 
L 321.259432 95.844055 
L 321.766705 157.997913 
L 322.273977 123.210319 
L 322.78125 144.52818 
L 323.288523 112.862859 
L 323.795795 102.477903 
L 324.303068 113.287038 
L 324.810341 133.8524 
L 325.317614 103.095029 
L 325.824886 147.227878 
L 326.332159 111.890649 
L 326.839432 183.278159 
L 327.346705 179.15962 
L 327.853977 140.955398 
L 328.36125 228.370144 
L 328.868523 192.370937 
L 329.375795 124.265345 
L 329.883068 127.065385 
L 330.390341 196.234779 
L 330.897614 109.558518 
L 331.404886 160.41767 
L 331.912159 110.961726 
L 332.419432 135.549691 
L 332.926705 116.578736 
L 333.433977 131.159454 
L 333.94125 94.400496 
L 334.448523 146.536953 
L 334.955795 112.632374 
L 335.463068 141.237992 
L 335.970341 217.712898 
L 336.477614 151.140947 
L 336.984886 252.80434 
L 337.492159 149.402307 
L 337.999432 113.421575 
L 338.506705 148.434502 
L 339.013977 118.189342 
L 339.52125 250.882394 
L 340.028523 157.263605 
L 340.535795 260.463162 
L 341.043068 223.691838 
L 341.550341 148.133944 
L 342.057614 133.555074 
L 342.564886 131.757498 
L 343.072159 272.732904 
L 343.579432 158.693624 
L 344.086705 111.015209 
L 344.593977 111.019685 
L 345.10125 94.19651 
L 345.608523 122.528872 
L 346.115795 166.559284 
L 346.623068 173.528187 
L 347.130341 136.444867 
L 347.637614 204.202692 
L 348.144886 213.756381 
L 348.652159 261.343525 
L 349.159432 95.048161 
L 349.666705 141.499761 
L 350.173977 153.285818 
L 350.68125 156.863945 
L 351.188523 98.926379 
L 351.695795 276.334125 
L 352.203068 138.960249 
L 352.710341 101.201443 
L 353.217614 267.52277 
L 353.724886 106.084947 
L 354.232159 159.330232 
L 354.739432 243.426895 
L 355.246705 104.280173 
L 355.753977 107.932265 
L 356.26125 134.908481 
L 356.768523 142.631792 
L 357.275795 106.88557 
L 357.783068 178.147189 
L 358.290341 125.815614 
L 358.797614 124.073074 
L 359.304886 175.18266 
L 359.812159 121.422417 
L 360.319432 171.625246 
L 360.826705 110.546731 
L 361.333977 107.822093 
L 361.84125 136.916236 
L 362.348523 118.714824 
L 362.855795 119.468522 
L 363.363068 112.150505 
L 363.870341 241.667535 
L 364.377614 114.34857 
L 364.884886 267.507245 
L 365.392159 228.732947 
L 365.899432 150.360433 
L 366.406705 110.36398 
L 366.913977 126.80235 
L 367.42125 120.938903 
L 367.928523 111.483026 
L 368.435795 186.255658 
L 368.943068 231.148898 
L 369.450341 120.634843 
L 369.957614 110.467915 
L 370.464886 209.263346 
L 370.972159 101.344398 
L 371.479432 147.710198 
L 371.986705 246.662343 
L 372.493977 142.414784 
L 373.00125 139.439674 
L 374.015795 114.054834 
L 375.030341 133.443971 
L 375.537614 143.790835 
L 376.044886 112.706042 
L 376.552159 139.317538 
L 377.059432 112.152959 
L 377.566705 106.579275 
L 378.073977 117.06371 
L 378.58125 154.03788 
L 379.088523 125.222437 
L 379.595795 111.525716 
L 380.103068 148.640652 
L 380.610341 115.678955 
L 381.117614 141.162807 
L 381.624886 101.549462 
L 382.132159 116.507073 
L 382.639432 122.666308 
L 383.146705 130.76702 
L 383.653977 107.70939 
L 384.16125 115.499301 
L 384.668523 117.963615 
L 384.668523 117.963615 
" style="fill:none;stroke:#1f77b4;stroke-linecap:square;stroke-width:0.5;"/>
   </g>
   <g id="patch_3">
    <path d="M 43.78125 288.430125 
L 43.78125 22.318125 
" style="fill:none;stroke:#000000;stroke-linecap:square;stroke-linejoin:miter;stroke-width:0.8;"/>
   </g>
   <g id="patch_4">
    <path d="M 400.90125 288.430125 
L 400.90125 22.318125 
" style="fill:none;stroke:#000000;stroke-linecap:square;stroke-linejoin:miter;stroke-width:0.8;"/>
   </g>
   <g id="patch_5">
    <path d="M 43.78125 288.430125 
L 400.90125 288.430125 
" style="fill:none;stroke:#000000;stroke-linecap:square;stroke-linejoin:miter;stroke-width:0.8;"/>
   </g>
   <g id="patch_6">
    <path d="M 43.78125 22.318125 
L 400.90125 22.318125 
" style="fill:none;stroke:#000000;stroke-linecap:square;stroke-linejoin:miter;stroke-width:0.8;"/>
   </g>
   <g id="text_16">
    <!-- Average maxQ per episode, joint5 -->
    <defs>
     <path d="M 34.1875 63.1875 
L 20.796875 26.90625 
L 47.609375 26.90625 
z
M 28.609375 72.90625 
L 39.796875 72.90625 
L 67.578125 0 
L 57.328125 0 
L 50.6875 18.703125 
L 17.828125 18.703125 
L 11.1875 0 
L 0.78125 0 
z
" id="DejaVuSans-41"/>
     <path d="M 11.71875 12.40625 
L 22.015625 12.40625 
L 22.015625 4 
L 14.015625 -11.625 
L 7.71875 -11.625 
L 11.71875 4 
z
" id="DejaVuSans-2c"/>
     <path d="M 9.421875 54.6875 
L 18.40625 54.6875 
L 18.40625 -0.984375 
Q 18.40625 -11.421875 14.421875 -16.109375 
Q 10.453125 -20.796875 1.609375 -20.796875 
L -1.8125 -20.796875 
L -1.8125 -13.1875 
L 0.59375 -13.1875 
Q 5.71875 -13.1875 7.5625 -10.8125 
Q 9.421875 -8.453125 9.421875 -0.984375 
z
M 9.421875 75.984375 
L 18.40625 75.984375 
L 18.40625 64.59375 
L 9.421875 64.59375 
z
" id="DejaVuSans-6a"/>
     <path d="M 54.890625 33.015625 
L 54.890625 0 
L 45.90625 0 
L 45.90625 32.71875 
Q 45.90625 40.484375 42.875 44.328125 
Q 39.84375 48.1875 33.796875 48.1875 
Q 26.515625 48.1875 22.3125 43.546875 
Q 18.109375 38.921875 18.109375 30.90625 
L 18.109375 0 
L 9.078125 0 
L 9.078125 54.6875 
L 18.109375 54.6875 
L 18.109375 46.1875 
Q 21.34375 51.125 25.703125 53.5625 
Q 30.078125 56 35.796875 56 
Q 45.21875 56 50.046875 50.171875 
Q 54.890625 44.34375 54.890625 33.015625 
z
" id="DejaVuSans-6e"/>
     <path d="M 18.3125 70.21875 
L 18.3125 54.6875 
L 36.8125 54.6875 
L 36.8125 47.703125 
L 18.3125 47.703125 
L 18.3125 18.015625 
Q 18.3125 11.328125 20.140625 9.421875 
Q 21.96875 7.515625 27.59375 7.515625 
L 36.8125 7.515625 
L 36.8125 0 
L 27.59375 0 
Q 17.1875 0 13.234375 3.875 
Q 9.28125 7.765625 9.28125 18.015625 
L 9.28125 47.703125 
L 2.6875 47.703125 
L 2.6875 54.6875 
L 9.28125 54.6875 
L 9.28125 70.21875 
z
" id="DejaVuSans-74"/>
    </defs>
    <g transform="translate(119.61375 16.318125)scale(0.12 -0.12)">
     <use xlink:href="#DejaVuSans-41"/>
     <use x="68.330078" xlink:href="#DejaVuSans-76"/>
     <use x="127.509766" xlink:href="#DejaVuSans-65"/>
     <use x="189.033203" xlink:href="#DejaVuSans-72"/>
     <use x="230.146484" xlink:href="#DejaVuSans-61"/>
     <use x="291.425781" xlink:href="#DejaVuSans-67"/>
     <use x="354.902344" xlink:href="#DejaVuSans-65"/>
     <use x="416.425781" xlink:href="#DejaVuSans-20"/>
     <use x="448.212891" xlink:href="#DejaVuSans-6d"/>
     <use x="545.625" xlink:href="#DejaVuSans-61"/>
     <use x="606.904297" xlink:href="#DejaVuSans-78"/>
     <use x="666.083984" xlink:href="#DejaVuSans-51"/>
     <use x="744.794922" xlink:href="#DejaVuSans-20"/>
     <use x="776.582031" xlink:href="#DejaVuSans-70"/>
     <use x="840.058594" xlink:href="#DejaVuSans-65"/>
     <use x="901.582031" xlink:href="#DejaVuSans-72"/>
     <use x="942.695312" xlink:href="#DejaVuSans-20"/>
     <use x="974.482422" xlink:href="#DejaVuSans-65"/>
     <use x="1036.005859" xlink:href="#DejaVuSans-70"/>
     <use x="1099.482422" xlink:href="#DejaVuSans-69"/>
     <use x="1127.265625" xlink:href="#DejaVuSans-73"/>
     <use x="1179.365234" xlink:href="#DejaVuSans-6f"/>
     <use x="1240.546875" xlink:href="#DejaVuSans-64"/>
     <use x="1304.023438" xlink:href="#DejaVuSans-65"/>
     <use x="1365.546875" xlink:href="#DejaVuSans-2c"/>
     <use x="1397.333984" xlink:href="#DejaVuSans-20"/>
     <use x="1429.121094" xlink:href="#DejaVuSans-6a"/>
     <use x="1456.904297" xlink:href="#DejaVuSans-6f"/>
     <use x="1518.085938" xlink:href="#DejaVuSans-69"/>
     <use x="1545.869141" xlink:href="#DejaVuSans-6e"/>
     <use x="1609.248047" xlink:href="#DejaVuSans-74"/>
     <use x="1648.457031" xlink:href="#DejaVuSans-35"/>
    </g>
   </g>
  </g>
 </g>
 <defs>
  <clipPath id="p61d3332e71">
   <rect height="266.112" width="357.12" x="43.78125" y="22.318125"/>
  </clipPath>
 </defs>
</svg>
