<?xml version="1.0" encoding="utf-8" standalone="no"?>
<!DOCTYPE svg PUBLIC "-//W3C//DTD SVG 1.1//EN"
  "http://www.w3.org/Graphics/SVG/1.1/DTD/svg11.dtd">
<!-- Created with matplotlib (http://matplotlib.org/) -->
<svg height="325pt" version="1.1" viewBox="0 0 411 325" width="411pt" xmlns="http://www.w3.org/2000/svg" xmlns:xlink="http://www.w3.org/1999/xlink">
 <defs>
  <style type="text/css">
*{stroke-linecap:butt;stroke-linejoin:round;}
  </style>
 </defs>
 <g id="figure_1">
  <g id="patch_1">
   <path d="M 0 325.986375 
L 411.60125 325.986375 
L 411.60125 0 
L 0 0 
z
" style="fill:#ffffff;"/>
  </g>
  <g id="axes_1">
   <g id="patch_2">
    <path d="M 43.78125 288.430125 
L 400.90125 288.430125 
L 400.90125 22.318125 
L 43.78125 22.318125 
z
" style="fill:#ffffff;"/>
   </g>
   <g id="matplotlib.axis_1">
    <g id="xtick_1">
     <g id="line2d_1">
      <defs>
       <path d="M 0 0 
L 0 3.5 
" id="m72b13474b9" style="stroke:#000000;stroke-width:0.8;"/>
      </defs>
      <g>
       <use style="stroke:#000000;stroke-width:0.8;" x="60.013977" xlink:href="#m72b13474b9" y="288.430125"/>
      </g>
     </g>
     <g id="text_1">
      <!-- 0 -->
      <defs>
       <path d="M 31.78125 66.40625 
Q 24.171875 66.40625 20.328125 58.90625 
Q 16.5 51.421875 16.5 36.375 
Q 16.5 21.390625 20.328125 13.890625 
Q 24.171875 6.390625 31.78125 6.390625 
Q 39.453125 6.390625 43.28125 13.890625 
Q 47.125 21.390625 47.125 36.375 
Q 47.125 51.421875 43.28125 58.90625 
Q 39.453125 66.40625 31.78125 66.40625 
z
M 31.78125 74.21875 
Q 44.046875 74.21875 50.515625 64.515625 
Q 56.984375 54.828125 56.984375 36.375 
Q 56.984375 17.96875 50.515625 8.265625 
Q 44.046875 -1.421875 31.78125 -1.421875 
Q 19.53125 -1.421875 13.0625 8.265625 
Q 6.59375 17.96875 6.59375 36.375 
Q 6.59375 54.828125 13.0625 64.515625 
Q 19.53125 74.21875 31.78125 74.21875 
z
" id="DejaVuSans-30"/>
      </defs>
      <g transform="translate(56.832727 303.028562)scale(0.1 -0.1)">
       <use xlink:href="#DejaVuSans-30"/>
      </g>
     </g>
    </g>
    <g id="xtick_2">
     <g id="line2d_2">
      <g>
       <use style="stroke:#000000;stroke-width:0.8;" x="105.129951" xlink:href="#m72b13474b9" y="288.430125"/>
      </g>
     </g>
     <g id="text_2">
      <!-- 250 -->
      <defs>
       <path d="M 19.1875 8.296875 
L 53.609375 8.296875 
L 53.609375 0 
L 7.328125 0 
L 7.328125 8.296875 
Q 12.9375 14.109375 22.625 23.890625 
Q 32.328125 33.6875 34.8125 36.53125 
Q 39.546875 41.84375 41.421875 45.53125 
Q 43.3125 49.21875 43.3125 52.78125 
Q 43.3125 58.59375 39.234375 62.25 
Q 35.15625 65.921875 28.609375 65.921875 
Q 23.96875 65.921875 18.8125 64.3125 
Q 13.671875 62.703125 7.8125 59.421875 
L 7.8125 69.390625 
Q 13.765625 71.78125 18.9375 73 
Q 24.125 74.21875 28.421875 74.21875 
Q 39.75 74.21875 46.484375 68.546875 
Q 53.21875 62.890625 53.21875 53.421875 
Q 53.21875 48.921875 51.53125 44.890625 
Q 49.859375 40.875 45.40625 35.40625 
Q 44.1875 33.984375 37.640625 27.21875 
Q 31.109375 20.453125 19.1875 8.296875 
z
" id="DejaVuSans-32"/>
       <path d="M 10.796875 72.90625 
L 49.515625 72.90625 
L 49.515625 64.59375 
L 19.828125 64.59375 
L 19.828125 46.734375 
Q 21.96875 47.46875 24.109375 47.828125 
Q 26.265625 48.1875 28.421875 48.1875 
Q 40.625 48.1875 47.75 41.5 
Q 54.890625 34.8125 54.890625 23.390625 
Q 54.890625 11.625 47.5625 5.09375 
Q 40.234375 -1.421875 26.90625 -1.421875 
Q 22.3125 -1.421875 17.546875 -0.640625 
Q 12.796875 0.140625 7.71875 1.703125 
L 7.71875 11.625 
Q 12.109375 9.234375 16.796875 8.0625 
Q 21.484375 6.890625 26.703125 6.890625 
Q 35.15625 6.890625 40.078125 11.328125 
Q 45.015625 15.765625 45.015625 23.390625 
Q 45.015625 31 40.078125 35.4375 
Q 35.15625 39.890625 26.703125 39.890625 
Q 22.75 39.890625 18.8125 39.015625 
Q 14.890625 38.140625 10.796875 36.28125 
z
" id="DejaVuSans-35"/>
      </defs>
      <g transform="translate(95.586201 303.028562)scale(0.1 -0.1)">
       <use xlink:href="#DejaVuSans-32"/>
       <use x="63.623047" xlink:href="#DejaVuSans-35"/>
       <use x="127.246094" xlink:href="#DejaVuSans-30"/>
      </g>
     </g>
    </g>
    <g id="xtick_3">
     <g id="line2d_3">
      <g>
       <use style="stroke:#000000;stroke-width:0.8;" x="150.245924" xlink:href="#m72b13474b9" y="288.430125"/>
      </g>
     </g>
     <g id="text_3">
      <!-- 500 -->
      <g transform="translate(140.702174 303.028562)scale(0.1 -0.1)">
       <use xlink:href="#DejaVuSans-35"/>
       <use x="63.623047" xlink:href="#DejaVuSans-30"/>
       <use x="127.246094" xlink:href="#DejaVuSans-30"/>
      </g>
     </g>
    </g>
    <g id="xtick_4">
     <g id="line2d_4">
      <g>
       <use style="stroke:#000000;stroke-width:0.8;" x="195.361898" xlink:href="#m72b13474b9" y="288.430125"/>
      </g>
     </g>
     <g id="text_4">
      <!-- 750 -->
      <defs>
       <path d="M 8.203125 72.90625 
L 55.078125 72.90625 
L 55.078125 68.703125 
L 28.609375 0 
L 18.3125 0 
L 43.21875 64.59375 
L 8.203125 64.59375 
z
" id="DejaVuSans-37"/>
      </defs>
      <g transform="translate(185.818148 303.028562)scale(0.1 -0.1)">
       <use xlink:href="#DejaVuSans-37"/>
       <use x="63.623047" xlink:href="#DejaVuSans-35"/>
       <use x="127.246094" xlink:href="#DejaVuSans-30"/>
      </g>
     </g>
    </g>
    <g id="xtick_5">
     <g id="line2d_5">
      <g>
       <use style="stroke:#000000;stroke-width:0.8;" x="240.477871" xlink:href="#m72b13474b9" y="288.430125"/>
      </g>
     </g>
     <g id="text_5">
      <!-- 1000 -->
      <defs>
       <path d="M 12.40625 8.296875 
L 28.515625 8.296875 
L 28.515625 63.921875 
L 10.984375 60.40625 
L 10.984375 69.390625 
L 28.421875 72.90625 
L 38.28125 72.90625 
L 38.28125 8.296875 
L 54.390625 8.296875 
L 54.390625 0 
L 12.40625 0 
z
" id="DejaVuSans-31"/>
      </defs>
      <g transform="translate(227.752871 303.028562)scale(0.1 -0.1)">
       <use xlink:href="#DejaVuSans-31"/>
       <use x="63.623047" xlink:href="#DejaVuSans-30"/>
       <use x="127.246094" xlink:href="#DejaVuSans-30"/>
       <use x="190.869141" xlink:href="#DejaVuSans-30"/>
      </g>
     </g>
    </g>
    <g id="xtick_6">
     <g id="line2d_6">
      <g>
       <use style="stroke:#000000;stroke-width:0.8;" x="285.593845" xlink:href="#m72b13474b9" y="288.430125"/>
      </g>
     </g>
     <g id="text_6">
      <!-- 1250 -->
      <g transform="translate(272.868845 303.028562)scale(0.1 -0.1)">
       <use xlink:href="#DejaVuSans-31"/>
       <use x="63.623047" xlink:href="#DejaVuSans-32"/>
       <use x="127.246094" xlink:href="#DejaVuSans-35"/>
       <use x="190.869141" xlink:href="#DejaVuSans-30"/>
      </g>
     </g>
    </g>
    <g id="xtick_7">
     <g id="line2d_7">
      <g>
       <use style="stroke:#000000;stroke-width:0.8;" x="330.709818" xlink:href="#m72b13474b9" y="288.430125"/>
      </g>
     </g>
     <g id="text_7">
      <!-- 1500 -->
      <g transform="translate(317.984818 303.028562)scale(0.1 -0.1)">
       <use xlink:href="#DejaVuSans-31"/>
       <use x="63.623047" xlink:href="#DejaVuSans-35"/>
       <use x="127.246094" xlink:href="#DejaVuSans-30"/>
       <use x="190.869141" xlink:href="#DejaVuSans-30"/>
      </g>
     </g>
    </g>
    <g id="xtick_8">
     <g id="line2d_8">
      <g>
       <use style="stroke:#000000;stroke-width:0.8;" x="375.825792" xlink:href="#m72b13474b9" y="288.430125"/>
      </g>
     </g>
     <g id="text_8">
      <!-- 1750 -->
      <g transform="translate(363.100792 303.028562)scale(0.1 -0.1)">
       <use xlink:href="#DejaVuSans-31"/>
       <use x="63.623047" xlink:href="#DejaVuSans-37"/>
       <use x="127.246094" xlink:href="#DejaVuSans-35"/>
       <use x="190.869141" xlink:href="#DejaVuSans-30"/>
      </g>
     </g>
    </g>
    <g id="text_9">
     <!-- episode -->
     <defs>
      <path d="M 56.203125 29.59375 
L 56.203125 25.203125 
L 14.890625 25.203125 
Q 15.484375 15.921875 20.484375 11.0625 
Q 25.484375 6.203125 34.421875 6.203125 
Q 39.59375 6.203125 44.453125 7.46875 
Q 49.3125 8.734375 54.109375 11.28125 
L 54.109375 2.78125 
Q 49.265625 0.734375 44.1875 -0.34375 
Q 39.109375 -1.421875 33.890625 -1.421875 
Q 20.796875 -1.421875 13.15625 6.1875 
Q 5.515625 13.8125 5.515625 26.8125 
Q 5.515625 40.234375 12.765625 48.109375 
Q 20.015625 56 32.328125 56 
Q 43.359375 56 49.78125 48.890625 
Q 56.203125 41.796875 56.203125 29.59375 
z
M 47.21875 32.234375 
Q 47.125 39.59375 43.09375 43.984375 
Q 39.0625 48.390625 32.421875 48.390625 
Q 24.90625 48.390625 20.390625 44.140625 
Q 15.875 39.890625 15.1875 32.171875 
z
" id="DejaVuSans-65"/>
      <path d="M 18.109375 8.203125 
L 18.109375 -20.796875 
L 9.078125 -20.796875 
L 9.078125 54.6875 
L 18.109375 54.6875 
L 18.109375 46.390625 
Q 20.953125 51.265625 25.265625 53.625 
Q 29.59375 56 35.59375 56 
Q 45.5625 56 51.78125 48.09375 
Q 58.015625 40.1875 58.015625 27.296875 
Q 58.015625 14.40625 51.78125 6.484375 
Q 45.5625 -1.421875 35.59375 -1.421875 
Q 29.59375 -1.421875 25.265625 0.953125 
Q 20.953125 3.328125 18.109375 8.203125 
z
M 48.6875 27.296875 
Q 48.6875 37.203125 44.609375 42.84375 
Q 40.53125 48.484375 33.40625 48.484375 
Q 26.265625 48.484375 22.1875 42.84375 
Q 18.109375 37.203125 18.109375 27.296875 
Q 18.109375 17.390625 22.1875 11.75 
Q 26.265625 6.109375 33.40625 6.109375 
Q 40.53125 6.109375 44.609375 11.75 
Q 48.6875 17.390625 48.6875 27.296875 
z
" id="DejaVuSans-70"/>
      <path d="M 9.421875 54.6875 
L 18.40625 54.6875 
L 18.40625 0 
L 9.421875 0 
z
M 9.421875 75.984375 
L 18.40625 75.984375 
L 18.40625 64.59375 
L 9.421875 64.59375 
z
" id="DejaVuSans-69"/>
      <path d="M 44.28125 53.078125 
L 44.28125 44.578125 
Q 40.484375 46.53125 36.375 47.5 
Q 32.28125 48.484375 27.875 48.484375 
Q 21.1875 48.484375 17.84375 46.4375 
Q 14.5 44.390625 14.5 40.28125 
Q 14.5 37.15625 16.890625 35.375 
Q 19.28125 33.59375 26.515625 31.984375 
L 29.59375 31.296875 
Q 39.15625 29.25 43.1875 25.515625 
Q 47.21875 21.78125 47.21875 15.09375 
Q 47.21875 7.46875 41.1875 3.015625 
Q 35.15625 -1.421875 24.609375 -1.421875 
Q 20.21875 -1.421875 15.453125 -0.5625 
Q 10.6875 0.296875 5.421875 2 
L 5.421875 11.28125 
Q 10.40625 8.6875 15.234375 7.390625 
Q 20.0625 6.109375 24.8125 6.109375 
Q 31.15625 6.109375 34.5625 8.28125 
Q 37.984375 10.453125 37.984375 14.40625 
Q 37.984375 18.0625 35.515625 20.015625 
Q 33.0625 21.96875 24.703125 23.78125 
L 21.578125 24.515625 
Q 13.234375 26.265625 9.515625 29.90625 
Q 5.8125 33.546875 5.8125 39.890625 
Q 5.8125 47.609375 11.28125 51.796875 
Q 16.75 56 26.8125 56 
Q 31.78125 56 36.171875 55.265625 
Q 40.578125 54.546875 44.28125 53.078125 
z
" id="DejaVuSans-73"/>
      <path d="M 30.609375 48.390625 
Q 23.390625 48.390625 19.1875 42.75 
Q 14.984375 37.109375 14.984375 27.296875 
Q 14.984375 17.484375 19.15625 11.84375 
Q 23.34375 6.203125 30.609375 6.203125 
Q 37.796875 6.203125 41.984375 11.859375 
Q 46.1875 17.53125 46.1875 27.296875 
Q 46.1875 37.015625 41.984375 42.703125 
Q 37.796875 48.390625 30.609375 48.390625 
z
M 30.609375 56 
Q 42.328125 56 49.015625 48.375 
Q 55.71875 40.765625 55.71875 27.296875 
Q 55.71875 13.875 49.015625 6.21875 
Q 42.328125 -1.421875 30.609375 -1.421875 
Q 18.84375 -1.421875 12.171875 6.21875 
Q 5.515625 13.875 5.515625 27.296875 
Q 5.515625 40.765625 12.171875 48.375 
Q 18.84375 56 30.609375 56 
z
" id="DejaVuSans-6f"/>
      <path d="M 45.40625 46.390625 
L 45.40625 75.984375 
L 54.390625 75.984375 
L 54.390625 0 
L 45.40625 0 
L 45.40625 8.203125 
Q 42.578125 3.328125 38.25 0.953125 
Q 33.9375 -1.421875 27.875 -1.421875 
Q 17.96875 -1.421875 11.734375 6.484375 
Q 5.515625 14.40625 5.515625 27.296875 
Q 5.515625 40.1875 11.734375 48.09375 
Q 17.96875 56 27.875 56 
Q 33.9375 56 38.25 53.625 
Q 42.578125 51.265625 45.40625 46.390625 
z
M 14.796875 27.296875 
Q 14.796875 17.390625 18.875 11.75 
Q 22.953125 6.109375 30.078125 6.109375 
Q 37.203125 6.109375 41.296875 11.75 
Q 45.40625 17.390625 45.40625 27.296875 
Q 45.40625 37.203125 41.296875 42.84375 
Q 37.203125 48.484375 30.078125 48.484375 
Q 22.953125 48.484375 18.875 42.84375 
Q 14.796875 37.203125 14.796875 27.296875 
z
" id="DejaVuSans-64"/>
     </defs>
     <g transform="translate(202.786563 316.706687)scale(0.1 -0.1)">
      <use xlink:href="#DejaVuSans-65"/>
      <use x="61.523438" xlink:href="#DejaVuSans-70"/>
      <use x="125" xlink:href="#DejaVuSans-69"/>
      <use x="152.783203" xlink:href="#DejaVuSans-73"/>
      <use x="204.882812" xlink:href="#DejaVuSans-6f"/>
      <use x="266.064453" xlink:href="#DejaVuSans-64"/>
      <use x="329.541016" xlink:href="#DejaVuSans-65"/>
     </g>
    </g>
   </g>
   <g id="matplotlib.axis_2">
    <g id="ytick_1">
     <g id="line2d_9">
      <defs>
       <path d="M 0 0 
L -3.5 0 
" id="m34da700093" style="stroke:#000000;stroke-width:0.8;"/>
      </defs>
      <g>
       <use style="stroke:#000000;stroke-width:0.8;" x="43.78125" xlink:href="#m34da700093" y="279.092147"/>
      </g>
     </g>
     <g id="text_10">
      <!-- 0.1 -->
      <defs>
       <path d="M 10.6875 12.40625 
L 21 12.40625 
L 21 0 
L 10.6875 0 
z
" id="DejaVuSans-2e"/>
      </defs>
      <g transform="translate(20.878125 282.891366)scale(0.1 -0.1)">
       <use xlink:href="#DejaVuSans-30"/>
       <use x="63.623047" xlink:href="#DejaVuSans-2e"/>
       <use x="95.410156" xlink:href="#DejaVuSans-31"/>
      </g>
     </g>
    </g>
    <g id="ytick_2">
     <g id="line2d_10">
      <g>
       <use style="stroke:#000000;stroke-width:0.8;" x="43.78125" xlink:href="#m34da700093" y="248.634062"/>
      </g>
     </g>
     <g id="text_11">
      <!-- 0.2 -->
      <g transform="translate(20.878125 252.433281)scale(0.1 -0.1)">
       <use xlink:href="#DejaVuSans-30"/>
       <use x="63.623047" xlink:href="#DejaVuSans-2e"/>
       <use x="95.410156" xlink:href="#DejaVuSans-32"/>
      </g>
     </g>
    </g>
    <g id="ytick_3">
     <g id="line2d_11">
      <g>
       <use style="stroke:#000000;stroke-width:0.8;" x="43.78125" xlink:href="#m34da700093" y="218.175977"/>
      </g>
     </g>
     <g id="text_12">
      <!-- 0.3 -->
      <defs>
       <path d="M 40.578125 39.3125 
Q 47.65625 37.796875 51.625 33 
Q 55.609375 28.21875 55.609375 21.1875 
Q 55.609375 10.40625 48.1875 4.484375 
Q 40.765625 -1.421875 27.09375 -1.421875 
Q 22.515625 -1.421875 17.65625 -0.515625 
Q 12.796875 0.390625 7.625 2.203125 
L 7.625 11.71875 
Q 11.71875 9.328125 16.59375 8.109375 
Q 21.484375 6.890625 26.8125 6.890625 
Q 36.078125 6.890625 40.9375 10.546875 
Q 45.796875 14.203125 45.796875 21.1875 
Q 45.796875 27.640625 41.28125 31.265625 
Q 36.765625 34.90625 28.71875 34.90625 
L 20.21875 34.90625 
L 20.21875 43.015625 
L 29.109375 43.015625 
Q 36.375 43.015625 40.234375 45.921875 
Q 44.09375 48.828125 44.09375 54.296875 
Q 44.09375 59.90625 40.109375 62.90625 
Q 36.140625 65.921875 28.71875 65.921875 
Q 24.65625 65.921875 20.015625 65.03125 
Q 15.375 64.15625 9.8125 62.3125 
L 9.8125 71.09375 
Q 15.4375 72.65625 20.34375 73.4375 
Q 25.25 74.21875 29.59375 74.21875 
Q 40.828125 74.21875 47.359375 69.109375 
Q 53.90625 64.015625 53.90625 55.328125 
Q 53.90625 49.265625 50.4375 45.09375 
Q 46.96875 40.921875 40.578125 39.3125 
z
" id="DejaVuSans-33"/>
      </defs>
      <g transform="translate(20.878125 221.975196)scale(0.1 -0.1)">
       <use xlink:href="#DejaVuSans-30"/>
       <use x="63.623047" xlink:href="#DejaVuSans-2e"/>
       <use x="95.410156" xlink:href="#DejaVuSans-33"/>
      </g>
     </g>
    </g>
    <g id="ytick_4">
     <g id="line2d_12">
      <g>
       <use style="stroke:#000000;stroke-width:0.8;" x="43.78125" xlink:href="#m34da700093" y="187.717892"/>
      </g>
     </g>
     <g id="text_13">
      <!-- 0.4 -->
      <defs>
       <path d="M 37.796875 64.3125 
L 12.890625 25.390625 
L 37.796875 25.390625 
z
M 35.203125 72.90625 
L 47.609375 72.90625 
L 47.609375 25.390625 
L 58.015625 25.390625 
L 58.015625 17.1875 
L 47.609375 17.1875 
L 47.609375 0 
L 37.796875 0 
L 37.796875 17.1875 
L 4.890625 17.1875 
L 4.890625 26.703125 
z
" id="DejaVuSans-34"/>
      </defs>
      <g transform="translate(20.878125 191.51711)scale(0.1 -0.1)">
       <use xlink:href="#DejaVuSans-30"/>
       <use x="63.623047" xlink:href="#DejaVuSans-2e"/>
       <use x="95.410156" xlink:href="#DejaVuSans-34"/>
      </g>
     </g>
    </g>
    <g id="ytick_5">
     <g id="line2d_13">
      <g>
       <use style="stroke:#000000;stroke-width:0.8;" x="43.78125" xlink:href="#m34da700093" y="157.259806"/>
      </g>
     </g>
     <g id="text_14">
      <!-- 0.5 -->
      <g transform="translate(20.878125 161.059025)scale(0.1 -0.1)">
       <use xlink:href="#DejaVuSans-30"/>
       <use x="63.623047" xlink:href="#DejaVuSans-2e"/>
       <use x="95.410156" xlink:href="#DejaVuSans-35"/>
      </g>
     </g>
    </g>
    <g id="ytick_6">
     <g id="line2d_14">
      <g>
       <use style="stroke:#000000;stroke-width:0.8;" x="43.78125" xlink:href="#m34da700093" y="126.801721"/>
      </g>
     </g>
     <g id="text_15">
      <!-- 0.6 -->
      <defs>
       <path d="M 33.015625 40.375 
Q 26.375 40.375 22.484375 35.828125 
Q 18.609375 31.296875 18.609375 23.390625 
Q 18.609375 15.53125 22.484375 10.953125 
Q 26.375 6.390625 33.015625 6.390625 
Q 39.65625 6.390625 43.53125 10.953125 
Q 47.40625 15.53125 47.40625 23.390625 
Q 47.40625 31.296875 43.53125 35.828125 
Q 39.65625 40.375 33.015625 40.375 
z
M 52.59375 71.296875 
L 52.59375 62.3125 
Q 48.875 64.0625 45.09375 64.984375 
Q 41.3125 65.921875 37.59375 65.921875 
Q 27.828125 65.921875 22.671875 59.328125 
Q 17.53125 52.734375 16.796875 39.40625 
Q 19.671875 43.65625 24.015625 45.921875 
Q 28.375 48.1875 33.59375 48.1875 
Q 44.578125 48.1875 50.953125 41.515625 
Q 57.328125 34.859375 57.328125 23.390625 
Q 57.328125 12.15625 50.6875 5.359375 
Q 44.046875 -1.421875 33.015625 -1.421875 
Q 20.359375 -1.421875 13.671875 8.265625 
Q 6.984375 17.96875 6.984375 36.375 
Q 6.984375 53.65625 15.1875 63.9375 
Q 23.390625 74.21875 37.203125 74.21875 
Q 40.921875 74.21875 44.703125 73.484375 
Q 48.484375 72.75 52.59375 71.296875 
z
" id="DejaVuSans-36"/>
      </defs>
      <g transform="translate(20.878125 130.60094)scale(0.1 -0.1)">
       <use xlink:href="#DejaVuSans-30"/>
       <use x="63.623047" xlink:href="#DejaVuSans-2e"/>
       <use x="95.410156" xlink:href="#DejaVuSans-36"/>
      </g>
     </g>
    </g>
    <g id="ytick_7">
     <g id="line2d_15">
      <g>
       <use style="stroke:#000000;stroke-width:0.8;" x="43.78125" xlink:href="#m34da700093" y="96.343636"/>
      </g>
     </g>
     <g id="text_16">
      <!-- 0.7 -->
      <g transform="translate(20.878125 100.142855)scale(0.1 -0.1)">
       <use xlink:href="#DejaVuSans-30"/>
       <use x="63.623047" xlink:href="#DejaVuSans-2e"/>
       <use x="95.410156" xlink:href="#DejaVuSans-37"/>
      </g>
     </g>
    </g>
    <g id="ytick_8">
     <g id="line2d_16">
      <g>
       <use style="stroke:#000000;stroke-width:0.8;" x="43.78125" xlink:href="#m34da700093" y="65.885551"/>
      </g>
     </g>
     <g id="text_17">
      <!-- 0.8 -->
      <defs>
       <path d="M 31.78125 34.625 
Q 24.75 34.625 20.71875 30.859375 
Q 16.703125 27.09375 16.703125 20.515625 
Q 16.703125 13.921875 20.71875 10.15625 
Q 24.75 6.390625 31.78125 6.390625 
Q 38.8125 6.390625 42.859375 10.171875 
Q 46.921875 13.96875 46.921875 20.515625 
Q 46.921875 27.09375 42.890625 30.859375 
Q 38.875 34.625 31.78125 34.625 
z
M 21.921875 38.8125 
Q 15.578125 40.375 12.03125 44.71875 
Q 8.5 49.078125 8.5 55.328125 
Q 8.5 64.0625 14.71875 69.140625 
Q 20.953125 74.21875 31.78125 74.21875 
Q 42.671875 74.21875 48.875 69.140625 
Q 55.078125 64.0625 55.078125 55.328125 
Q 55.078125 49.078125 51.53125 44.71875 
Q 48 40.375 41.703125 38.8125 
Q 48.828125 37.15625 52.796875 32.3125 
Q 56.78125 27.484375 56.78125 20.515625 
Q 56.78125 9.90625 50.3125 4.234375 
Q 43.84375 -1.421875 31.78125 -1.421875 
Q 19.734375 -1.421875 13.25 4.234375 
Q 6.78125 9.90625 6.78125 20.515625 
Q 6.78125 27.484375 10.78125 32.3125 
Q 14.796875 37.15625 21.921875 38.8125 
z
M 18.3125 54.390625 
Q 18.3125 48.734375 21.84375 45.5625 
Q 25.390625 42.390625 31.78125 42.390625 
Q 38.140625 42.390625 41.71875 45.5625 
Q 45.3125 48.734375 45.3125 54.390625 
Q 45.3125 60.0625 41.71875 63.234375 
Q 38.140625 66.40625 31.78125 66.40625 
Q 25.390625 66.40625 21.84375 63.234375 
Q 18.3125 60.0625 18.3125 54.390625 
z
" id="DejaVuSans-38"/>
      </defs>
      <g transform="translate(20.878125 69.68477)scale(0.1 -0.1)">
       <use xlink:href="#DejaVuSans-30"/>
       <use x="63.623047" xlink:href="#DejaVuSans-2e"/>
       <use x="95.410156" xlink:href="#DejaVuSans-38"/>
      </g>
     </g>
    </g>
    <g id="ytick_9">
     <g id="line2d_17">
      <g>
       <use style="stroke:#000000;stroke-width:0.8;" x="43.78125" xlink:href="#m34da700093" y="35.427466"/>
      </g>
     </g>
     <g id="text_18">
      <!-- 0.9 -->
      <defs>
       <path d="M 10.984375 1.515625 
L 10.984375 10.5 
Q 14.703125 8.734375 18.5 7.8125 
Q 22.3125 6.890625 25.984375 6.890625 
Q 35.75 6.890625 40.890625 13.453125 
Q 46.046875 20.015625 46.78125 33.40625 
Q 43.953125 29.203125 39.59375 26.953125 
Q 35.25 24.703125 29.984375 24.703125 
Q 19.046875 24.703125 12.671875 31.3125 
Q 6.296875 37.9375 6.296875 49.421875 
Q 6.296875 60.640625 12.9375 67.421875 
Q 19.578125 74.21875 30.609375 74.21875 
Q 43.265625 74.21875 49.921875 64.515625 
Q 56.59375 54.828125 56.59375 36.375 
Q 56.59375 19.140625 48.40625 8.859375 
Q 40.234375 -1.421875 26.421875 -1.421875 
Q 22.703125 -1.421875 18.890625 -0.6875 
Q 15.09375 0.046875 10.984375 1.515625 
z
M 30.609375 32.421875 
Q 37.25 32.421875 41.125 36.953125 
Q 45.015625 41.5 45.015625 49.421875 
Q 45.015625 57.28125 41.125 61.84375 
Q 37.25 66.40625 30.609375 66.40625 
Q 23.96875 66.40625 20.09375 61.84375 
Q 16.21875 57.28125 16.21875 49.421875 
Q 16.21875 41.5 20.09375 36.953125 
Q 23.96875 32.421875 30.609375 32.421875 
z
" id="DejaVuSans-39"/>
      </defs>
      <g transform="translate(20.878125 39.226684)scale(0.1 -0.1)">
       <use xlink:href="#DejaVuSans-30"/>
       <use x="63.623047" xlink:href="#DejaVuSans-2e"/>
       <use x="95.410156" xlink:href="#DejaVuSans-39"/>
      </g>
     </g>
    </g>
    <g id="text_19">
     <!-- average maxQ -->
     <defs>
      <path d="M 34.28125 27.484375 
Q 23.390625 27.484375 19.1875 25 
Q 14.984375 22.515625 14.984375 16.5 
Q 14.984375 11.71875 18.140625 8.90625 
Q 21.296875 6.109375 26.703125 6.109375 
Q 34.1875 6.109375 38.703125 11.40625 
Q 43.21875 16.703125 43.21875 25.484375 
L 43.21875 27.484375 
z
M 52.203125 31.203125 
L 52.203125 0 
L 43.21875 0 
L 43.21875 8.296875 
Q 40.140625 3.328125 35.546875 0.953125 
Q 30.953125 -1.421875 24.3125 -1.421875 
Q 15.921875 -1.421875 10.953125 3.296875 
Q 6 8.015625 6 15.921875 
Q 6 25.140625 12.171875 29.828125 
Q 18.359375 34.515625 30.609375 34.515625 
L 43.21875 34.515625 
L 43.21875 35.40625 
Q 43.21875 41.609375 39.140625 45 
Q 35.0625 48.390625 27.6875 48.390625 
Q 23 48.390625 18.546875 47.265625 
Q 14.109375 46.140625 10.015625 43.890625 
L 10.015625 52.203125 
Q 14.9375 54.109375 19.578125 55.046875 
Q 24.21875 56 28.609375 56 
Q 40.484375 56 46.34375 49.84375 
Q 52.203125 43.703125 52.203125 31.203125 
z
" id="DejaVuSans-61"/>
      <path d="M 2.984375 54.6875 
L 12.5 54.6875 
L 29.59375 8.796875 
L 46.6875 54.6875 
L 56.203125 54.6875 
L 35.6875 0 
L 23.484375 0 
z
" id="DejaVuSans-76"/>
      <path d="M 41.109375 46.296875 
Q 39.59375 47.171875 37.8125 47.578125 
Q 36.03125 48 33.890625 48 
Q 26.265625 48 22.1875 43.046875 
Q 18.109375 38.09375 18.109375 28.8125 
L 18.109375 0 
L 9.078125 0 
L 9.078125 54.6875 
L 18.109375 54.6875 
L 18.109375 46.1875 
Q 20.953125 51.171875 25.484375 53.578125 
Q 30.03125 56 36.53125 56 
Q 37.453125 56 38.578125 55.875 
Q 39.703125 55.765625 41.0625 55.515625 
z
" id="DejaVuSans-72"/>
      <path d="M 45.40625 27.984375 
Q 45.40625 37.75 41.375 43.109375 
Q 37.359375 48.484375 30.078125 48.484375 
Q 22.859375 48.484375 18.828125 43.109375 
Q 14.796875 37.75 14.796875 27.984375 
Q 14.796875 18.265625 18.828125 12.890625 
Q 22.859375 7.515625 30.078125 7.515625 
Q 37.359375 7.515625 41.375 12.890625 
Q 45.40625 18.265625 45.40625 27.984375 
z
M 54.390625 6.78125 
Q 54.390625 -7.171875 48.1875 -13.984375 
Q 42 -20.796875 29.203125 -20.796875 
Q 24.46875 -20.796875 20.265625 -20.09375 
Q 16.0625 -19.390625 12.109375 -17.921875 
L 12.109375 -9.1875 
Q 16.0625 -11.328125 19.921875 -12.34375 
Q 23.78125 -13.375 27.78125 -13.375 
Q 36.625 -13.375 41.015625 -8.765625 
Q 45.40625 -4.15625 45.40625 5.171875 
L 45.40625 9.625 
Q 42.625 4.78125 38.28125 2.390625 
Q 33.9375 0 27.875 0 
Q 17.828125 0 11.671875 7.65625 
Q 5.515625 15.328125 5.515625 27.984375 
Q 5.515625 40.671875 11.671875 48.328125 
Q 17.828125 56 27.875 56 
Q 33.9375 56 38.28125 53.609375 
Q 42.625 51.21875 45.40625 46.390625 
L 45.40625 54.6875 
L 54.390625 54.6875 
z
" id="DejaVuSans-67"/>
      <path id="DejaVuSans-20"/>
      <path d="M 52 44.1875 
Q 55.375 50.25 60.0625 53.125 
Q 64.75 56 71.09375 56 
Q 79.640625 56 84.28125 50.015625 
Q 88.921875 44.046875 88.921875 33.015625 
L 88.921875 0 
L 79.890625 0 
L 79.890625 32.71875 
Q 79.890625 40.578125 77.09375 44.375 
Q 74.3125 48.1875 68.609375 48.1875 
Q 61.625 48.1875 57.5625 43.546875 
Q 53.515625 38.921875 53.515625 30.90625 
L 53.515625 0 
L 44.484375 0 
L 44.484375 32.71875 
Q 44.484375 40.625 41.703125 44.40625 
Q 38.921875 48.1875 33.109375 48.1875 
Q 26.21875 48.1875 22.15625 43.53125 
Q 18.109375 38.875 18.109375 30.90625 
L 18.109375 0 
L 9.078125 0 
L 9.078125 54.6875 
L 18.109375 54.6875 
L 18.109375 46.1875 
Q 21.1875 51.21875 25.484375 53.609375 
Q 29.78125 56 35.6875 56 
Q 41.65625 56 45.828125 52.96875 
Q 50 49.953125 52 44.1875 
z
" id="DejaVuSans-6d"/>
      <path d="M 54.890625 54.6875 
L 35.109375 28.078125 
L 55.90625 0 
L 45.3125 0 
L 29.390625 21.484375 
L 13.484375 0 
L 2.875 0 
L 24.125 28.609375 
L 4.6875 54.6875 
L 15.28125 54.6875 
L 29.78125 35.203125 
L 44.28125 54.6875 
z
" id="DejaVuSans-78"/>
      <path d="M 39.40625 66.21875 
Q 28.65625 66.21875 22.328125 58.203125 
Q 16.015625 50.203125 16.015625 36.375 
Q 16.015625 22.609375 22.328125 14.59375 
Q 28.65625 6.59375 39.40625 6.59375 
Q 50.140625 6.59375 56.421875 14.59375 
Q 62.703125 22.609375 62.703125 36.375 
Q 62.703125 50.203125 56.421875 58.203125 
Q 50.140625 66.21875 39.40625 66.21875 
z
M 53.21875 1.3125 
L 66.21875 -12.890625 
L 54.296875 -12.890625 
L 43.5 -1.21875 
Q 41.890625 -1.3125 41.03125 -1.359375 
Q 40.1875 -1.421875 39.40625 -1.421875 
Q 24.03125 -1.421875 14.8125 8.859375 
Q 5.609375 19.140625 5.609375 36.375 
Q 5.609375 53.65625 14.8125 63.9375 
Q 24.03125 74.21875 39.40625 74.21875 
Q 54.734375 74.21875 63.90625 63.9375 
Q 73.09375 53.65625 73.09375 36.375 
Q 73.09375 23.6875 67.984375 14.640625 
Q 62.890625 5.609375 53.21875 1.3125 
z
" id="DejaVuSans-51"/>
     </defs>
     <g transform="translate(14.798438 192.263187)rotate(-90)scale(0.1 -0.1)">
      <use xlink:href="#DejaVuSans-61"/>
      <use x="61.279297" xlink:href="#DejaVuSans-76"/>
      <use x="120.458984" xlink:href="#DejaVuSans-65"/>
      <use x="181.982422" xlink:href="#DejaVuSans-72"/>
      <use x="223.095703" xlink:href="#DejaVuSans-61"/>
      <use x="284.375" xlink:href="#DejaVuSans-67"/>
      <use x="347.851562" xlink:href="#DejaVuSans-65"/>
      <use x="409.375" xlink:href="#DejaVuSans-20"/>
      <use x="441.162109" xlink:href="#DejaVuSans-6d"/>
      <use x="538.574219" xlink:href="#DejaVuSans-61"/>
      <use x="599.853516" xlink:href="#DejaVuSans-78"/>
      <use x="659.033203" xlink:href="#DejaVuSans-51"/>
     </g>
    </g>
   </g>
   <g id="line2d_18">
    <path clip-path="url(#p2a4a016b06)" d="M 60.013977 267.146609 
L 60.194441 264.838033 
L 60.374905 270.103894 
L 60.555369 265.71303 
L 60.735833 264.364089 
L 60.916297 260.442098 
L 61.096761 265.121719 
L 61.277225 263.504994 
L 61.457688 265.578861 
L 61.818616 264.862667 
L 61.99908 267.635857 
L 62.360008 260.052561 
L 62.540472 265.573546 
L 62.720936 266.448862 
L 62.9014 269.199362 
L 63.081863 266.185355 
L 63.442791 267.380215 
L 63.623255 270.649004 
L 63.803719 267.155185 
L 63.984183 267.401628 
L 64.164647 264.877317 
L 64.345111 267.534788 
L 64.525575 263.60214 
L 64.706039 263.500894 
L 64.886502 266.163167 
L 65.066966 262.442248 
L 65.24743 262.294072 
L 65.427894 260.54646 
L 65.608358 267.978726 
L 65.788822 268.999276 
L 65.969286 265.861906 
L 66.14975 264.884902 
L 66.510677 269.011903 
L 66.691141 261.808161 
L 66.871605 267.409321 
L 67.052069 267.38604 
L 67.232533 264.509983 
L 67.412997 264.217592 
L 67.593461 264.666204 
L 67.773925 263.844871 
L 67.954389 266.330126 
L 68.134853 260.279953 
L 68.315316 263.240352 
L 68.49578 258.700548 
L 68.856708 270.003044 
L 69.217636 260.708098 
L 69.3981 262.918907 
L 69.578564 268.022623 
L 69.759028 261.65188 
L 69.939491 266.165279 
L 70.119955 259.697 
L 70.300419 264.986997 
L 70.661347 267.259465 
L 70.841811 270.998882 
L 71.022275 266.727755 
L 71.202739 267.494763 
L 71.383203 266.25627 
L 71.563666 266.793586 
L 71.74413 261.362383 
L 71.924594 266.546996 
L 72.105058 262.549143 
L 72.285522 267.98731 
L 72.465986 266.113998 
L 72.64645 267.502679 
L 72.826914 265.004711 
L 73.007378 267.533523 
L 73.187842 266.963225 
L 73.368305 267.134893 
L 73.548769 268.502591 
L 73.729233 268.414716 
L 73.909697 265.247018 
L 74.090161 266.226814 
L 74.270625 263.820872 
L 74.451089 267.584128 
L 74.812017 264.55441 
L 74.99248 264.612501 
L 75.172944 269.63423 
L 75.353408 259.718699 
L 75.533872 256.437018 
L 75.714336 265.213463 
L 75.8948 261.09145 
L 76.075264 267.198893 
L 76.255728 262.427061 
L 76.436192 264.016255 
L 76.616656 262.352175 
L 76.797119 265.878392 
L 76.977583 260.178246 
L 77.158047 259.992695 
L 77.518975 265.661965 
L 77.699439 268.670401 
L 77.879903 269.430739 
L 78.060367 258.381969 
L 78.240831 267.809167 
L 78.421294 270.374474 
L 78.601758 262.154699 
L 78.782222 263.313227 
L 78.962686 273.823651 
L 79.323614 267.377511 
L 79.504078 270.116646 
L 79.684542 270.128906 
L 79.865006 264.981569 
L 80.04547 269.443145 
L 80.225933 270.611887 
L 80.406397 270.596942 
L 80.586861 269.879804 
L 80.767325 260.558573 
L 81.128253 270.467313 
L 81.308717 267.591338 
L 81.489181 269.817454 
L 81.669645 266.856473 
L 82.030572 274.057184 
L 82.211036 269.316968 
L 82.571964 270.820031 
L 82.752428 270.670517 
L 82.932892 276.334125 
L 83.113356 268.621884 
L 83.29382 272.162781 
L 83.474284 269.689633 
L 83.654747 273.186253 
L 83.835211 266.737288 
L 84.015675 273.57647 
L 84.196139 271.369885 
L 84.376603 272.776009 
L 84.557067 272.515915 
L 84.737531 269.139298 
L 84.917995 272.722921 
L 85.098459 270.925623 
L 85.278922 273.418782 
L 85.63985 273.242955 
L 86.000778 267.974377 
L 86.181242 273.751202 
L 86.54217 268.133899 
L 86.722634 273.193473 
L 86.903097 273.166345 
L 87.083561 274.09323 
L 87.264025 269.936488 
L 87.444489 271.176895 
L 87.624953 267.422902 
L 87.985881 271.678688 
L 88.166345 268.1208 
L 88.346809 270.220192 
L 88.527273 269.656257 
L 88.707736 269.8117 
L 88.8882 265.589553 
L 89.068664 266.606754 
L 89.249128 271.026507 
L 89.429592 265.060993 
L 89.610056 270.709115 
L 89.970984 264.416132 
L 90.151448 269.783127 
L 90.331911 268.787947 
L 90.512375 264.317075 
L 90.692839 267.461909 
L 91.234231 261.962939 
L 91.414695 266.060112 
L 91.595159 265.796435 
L 92.13655 260.425907 
L 92.317014 264.821486 
L 92.497478 261.488055 
L 92.677942 265.098585 
L 92.858406 262.10606 
L 93.03887 263.991574 
L 93.219334 261.698237 
L 93.399798 262.273137 
L 93.580262 264.646305 
L 93.760725 262.497246 
L 93.941189 258.911124 
L 94.121653 259.304915 
L 94.302117 261.119937 
L 94.482581 260.619635 
L 94.663045 256.875898 
L 94.843509 256.329541 
L 95.023973 257.897613 
L 95.204437 261.902687 
L 95.384901 256.124624 
L 95.565364 257.708433 
L 95.745828 257.741948 
L 95.926292 256.796699 
L 96.28722 260.114109 
L 96.467684 252.961086 
L 96.648148 257.244795 
L 96.828612 256.551174 
L 97.009076 257.588185 
L 97.189539 253.044436 
L 97.370003 255.454189 
L 97.550467 249.375563 
L 97.730931 254.079104 
L 97.911395 255.555945 
L 98.091859 253.39155 
L 98.272323 255.671743 
L 98.452787 252.721113 
L 98.633251 251.980064 
L 98.813715 250.181646 
L 98.994178 251.704602 
L 99.174642 250.269879 
L 99.355106 252.78603 
L 99.53557 252.048011 
L 99.716034 248.405206 
L 99.896498 248.647511 
L 100.257426 247.896482 
L 100.43789 247.875228 
L 100.618353 247.446743 
L 100.798817 248.054291 
L 100.979281 246.831448 
L 101.159745 250.147588 
L 101.701137 241.365876 
L 101.881601 244.948547 
L 102.062065 244.6911 
L 102.242528 241.825221 
L 102.422992 244.471719 
L 102.603456 242.31389 
L 102.78392 238.649119 
L 102.964384 240.792171 
L 103.144848 238.23173 
L 103.325312 241.465226 
L 103.505776 237.869943 
L 103.68624 238.724591 
L 103.866704 238.827443 
L 104.047167 239.510487 
L 104.227631 235.892994 
L 104.408095 237.292128 
L 104.949487 234.151457 
L 105.129951 234.747793 
L 105.310415 236.858338 
L 105.490879 233.492701 
L 105.671342 233.433229 
L 105.851806 230.749902 
L 106.03227 230.783586 
L 106.212734 236.163981 
L 106.573662 230.117359 
L 106.754126 230.534154 
L 106.93459 233.964449 
L 107.115054 226.158947 
L 107.295518 233.129408 
L 107.475981 229.065057 
L 107.656445 233.769667 
L 107.836909 232.512854 
L 108.017373 224.087157 
L 108.197837 225.384012 
L 108.378301 229.455186 
L 108.558765 227.859848 
L 108.739229 224.715095 
L 108.919693 227.993792 
L 109.28062 221.042864 
L 109.461084 231.132898 
L 109.641548 221.87354 
L 109.822012 218.503566 
L 110.18294 222.855889 
L 110.363404 223.794189 
L 110.543868 219.485775 
L 110.724332 218.441593 
L 110.904795 223.027675 
L 111.265723 213.204502 
L 111.446187 215.971788 
L 111.626651 214.647324 
L 111.807115 215.442404 
L 111.987579 214.554904 
L 112.168043 214.842475 
L 112.348507 212.29923 
L 112.52897 211.872343 
L 112.709434 221.269779 
L 112.889898 211.958516 
L 113.070362 209.400316 
L 113.250826 211.29856 
L 113.43129 209.232376 
L 113.611754 208.73507 
L 113.792218 210.994169 
L 113.972682 205.976613 
L 114.153145 205.399566 
L 114.333609 211.6349 
L 114.694537 203.6728 
L 114.875001 202.748361 
L 115.055465 206.134878 
L 115.235929 201.309442 
L 115.416393 206.6332 
L 115.596857 206.510311 
L 115.777321 203.896429 
L 115.957784 203.880502 
L 116.138248 202.112282 
L 116.318712 198.647729 
L 116.499176 206.244831 
L 116.67964 199.1209 
L 116.860104 199.094857 
L 117.040568 203.523551 
L 117.221032 202.616662 
L 117.401496 202.64771 
L 117.581959 195.915317 
L 117.762423 201.308691 
L 117.942887 192.327897 
L 118.123351 193.467694 
L 118.303815 199.683068 
L 118.664743 187.693142 
L 118.845207 194.008046 
L 119.025671 196.173757 
L 119.206135 196.20746 
L 119.567062 200.430923 
L 119.747526 194.617856 
L 119.92799 193.326702 
L 120.108454 188.755973 
L 120.288918 200.745995 
L 120.469382 199.297105 
L 120.649846 190.960637 
L 120.83031 194.616053 
L 121.191237 192.486822 
L 121.552165 182.962276 
L 121.732629 191.856506 
L 121.913093 189.494741 
L 122.093557 189.336036 
L 122.274021 184.401653 
L 122.454485 186.172109 
L 122.634949 184.857337 
L 122.815412 184.79108 
L 122.995876 187.371743 
L 123.17634 184.269067 
L 123.356804 186.459895 
L 123.537268 176.951751 
L 123.717732 189.382952 
L 123.898196 186.297575 
L 124.07866 179.404688 
L 124.259124 180.156716 
L 124.439587 186.962814 
L 124.620051 179.796231 
L 124.800515 180.65528 
L 124.980979 179.784127 
L 125.161443 176.019564 
L 125.341907 175.347893 
L 125.522371 184.515493 
L 125.702835 178.99312 
L 125.883299 180.94676 
L 126.063763 175.88476 
L 126.244226 179.392089 
L 126.42469 186.353695 
L 126.605154 174.85178 
L 127.146546 180.013189 
L 127.687938 168.444721 
L 127.868401 172.719711 
L 128.048865 172.381848 
L 128.229329 174.402428 
L 128.409793 165.314762 
L 128.590257 171.331265 
L 128.770721 172.722977 
L 128.951185 165.063084 
L 129.131649 172.418322 
L 129.312113 173.711498 
L 129.492576 169.039612 
L 129.67304 169.415192 
L 129.853504 164.945597 
L 130.394896 168.681616 
L 130.57536 165.548602 
L 130.755824 164.486083 
L 130.936288 175.518713 
L 131.116752 157.094106 
L 131.297215 174.616683 
L 131.477679 167.015261 
L 131.658143 171.216533 
L 131.838607 161.54839 
L 132.019071 172.681675 
L 132.199535 162.813301 
L 132.379999 162.186702 
L 132.560463 156.187504 
L 132.740927 168.288736 
L 132.92139 158.868509 
L 133.101854 157.240496 
L 133.282318 162.242096 
L 133.462782 157.3024 
L 133.643246 156.912519 
L 133.82371 163.950921 
L 134.184638 157.061933 
L 134.365102 162.192015 
L 134.545566 158.071111 
L 134.726029 156.714571 
L 134.906493 156.394441 
L 135.086957 158.265503 
L 135.267421 156.351072 
L 135.447885 157.022925 
L 135.628349 153.431575 
L 135.808813 159.457018 
L 135.989277 150.579133 
L 136.169741 155.812103 
L 136.350204 152.369348 
L 136.530668 157.633857 
L 136.711132 158.292149 
L 137.07206 142.574616 
L 137.252524 151.569791 
L 137.432988 152.538099 
L 137.793916 160.141487 
L 137.97438 148.70506 
L 138.154843 154.416343 
L 138.335307 148.043408 
L 138.515771 156.340304 
L 138.696235 144.718154 
L 138.876699 147.312935 
L 139.057163 148.251888 
L 139.237627 150.912703 
L 139.418091 150.601437 
L 139.779018 143.018104 
L 140.139946 153.542767 
L 140.32041 146.278134 
L 140.500874 144.876667 
L 140.681338 147.852259 
L 140.861802 142.711323 
L 141.042266 150.992128 
L 141.403194 142.900936 
L 141.583657 145.374176 
L 141.764121 131.987505 
L 141.944585 158.601331 
L 142.125049 140.690741 
L 142.305513 139.869146 
L 142.485977 143.506217 
L 142.666441 144.025864 
L 142.846905 151.244664 
L 143.027369 145.979303 
L 143.207832 152.68094 
L 143.388296 141.501442 
L 143.56876 144.749757 
L 143.929688 138.939692 
L 144.290616 142.003071 
L 144.47108 129.553311 
L 144.651544 144.60101 
L 145.012471 138.977085 
L 145.192935 138.866019 
L 145.373399 137.713551 
L 145.553863 139.469713 
L 145.734327 147.195418 
L 146.095255 132.523862 
L 146.456183 144.683264 
L 146.81711 135.430231 
L 146.997574 144.977231 
L 147.178038 133.786166 
L 147.358502 139.411311 
L 147.538966 138.786892 
L 147.71943 133.642111 
L 147.899894 133.047642 
L 148.080358 142.51391 
L 148.260821 134.677323 
L 148.441285 146.125535 
L 148.621749 129.918631 
L 148.982677 137.649121 
L 149.343605 119.168636 
L 149.524069 142.374607 
L 149.704533 143.64202 
L 149.884997 130.599032 
L 150.245924 133.049319 
L 150.426388 135.829855 
L 150.606852 129.787051 
L 150.787316 134.734317 
L 150.96778 135.744599 
L 151.148244 129.343182 
L 151.509172 135.703146 
L 151.689635 129.269653 
L 151.870099 138.599658 
L 152.411491 125.787013 
L 152.591955 130.758657 
L 152.772419 128.137736 
L 152.952883 130.110219 
L 153.133347 125.819732 
L 153.313811 133.252022 
L 153.494274 130.461494 
L 153.674738 134.07391 
L 153.855202 128.729734 
L 154.035666 138.376884 
L 154.21613 127.442203 
L 154.396594 138.397276 
L 154.937986 125.937233 
L 155.118449 125.769568 
L 155.298913 124.080263 
L 155.479377 132.330737 
L 155.659841 131.926564 
L 155.840305 125.75648 
L 156.020769 134.886588 
L 156.201233 118.464604 
L 156.381697 130.672016 
L 156.562161 134.338161 
L 156.742625 122.434811 
L 156.923088 125.476965 
L 157.284016 120.863988 
L 157.46448 129.005252 
L 157.644944 130.883885 
L 157.825408 119.112033 
L 158.005872 129.12239 
L 158.186336 117.216643 
L 158.3668 122.807127 
L 158.547263 124.394504 
L 158.727727 118.37393 
L 158.908191 124.700237 
L 159.269119 123.557826 
L 159.449583 117.56887 
L 159.630047 121.343175 
L 159.810511 117.731868 
L 159.990975 127.459025 
L 160.171438 128.879646 
L 160.532366 123.104948 
L 160.893294 119.696437 
L 161.073758 120.537981 
L 161.434686 119.956494 
L 161.61515 120.619074 
L 161.795614 125.216658 
L 161.976077 125.297039 
L 162.156541 117.707042 
L 162.337005 129.813777 
L 162.697933 117.155044 
L 162.878397 104.792224 
L 163.239325 122.466485 
L 163.419789 114.524574 
L 163.600252 113.221112 
L 163.780716 119.566945 
L 163.96118 116.559931 
L 164.141644 117.495752 
L 164.322108 121.498963 
L 164.683036 115.460226 
L 165.043964 112.693701 
L 165.224428 113.449243 
L 165.404891 120.962657 
L 165.585355 122.867596 
L 165.765819 122.250732 
L 166.126747 108.656783 
L 166.307211 119.030593 
L 166.487675 110.982008 
L 166.668139 113.307384 
L 166.848603 122.918913 
L 167.20953 112.956042 
L 167.389994 119.99141 
L 167.570458 113.459092 
L 167.750922 111.120207 
L 167.931386 116.394362 
L 168.11185 115.299539 
L 168.292314 99.586842 
L 168.472778 121.769128 
L 168.653242 108.300298 
L 169.014169 119.02994 
L 169.375097 112.961396 
L 169.555561 111.597536 
L 169.736025 107.41344 
L 169.916489 115.811501 
L 170.277417 107.955506 
L 170.45788 116.127167 
L 170.638344 115.191545 
L 170.818808 114.910986 
L 170.999272 113.812621 
L 171.179736 116.546753 
L 171.540664 112.023572 
L 171.721128 106.982758 
L 171.901592 96.235526 
L 172.082055 113.983804 
L 172.262519 112.320034 
L 172.442983 113.851129 
L 172.623447 106.902991 
L 172.984375 115.215353 
L 173.164839 110.922461 
L 173.345303 101.513656 
L 173.525767 112.427526 
L 173.706231 103.023639 
L 173.886694 107.126383 
L 174.067158 104.427814 
L 174.247622 107.914073 
L 174.428086 104.106832 
L 174.60855 102.837704 
L 174.789014 110.142276 
L 174.969478 112.338165 
L 175.510869 105.7223 
L 175.691333 112.647496 
L 175.871797 101.210286 
L 176.052261 107.3775 
L 176.232725 107.028239 
L 176.413189 100.797681 
L 176.593653 103.159539 
L 176.774117 102.715401 
L 177.315508 114.590114 
L 177.495972 106.059378 
L 177.676436 105.502243 
L 178.037364 100.564148 
L 178.217828 112.760695 
L 178.578756 100.832412 
L 178.75922 110.211597 
L 178.939683 106.811604 
L 179.120147 112.150548 
L 179.300611 99.874462 
L 179.661539 108.227412 
L 179.842003 108.303041 
L 180.022467 100.036527 
L 180.202931 104.423764 
L 180.383395 98.819611 
L 180.563859 106.469774 
L 180.744322 102.553555 
L 180.924786 103.797301 
L 181.285714 96.542691 
L 181.466178 96.616925 
L 181.827106 102.635529 
L 182.00757 104.965595 
L 182.188034 102.994216 
L 182.368497 106.993494 
L 182.548961 105.41049 
L 182.729425 106.236422 
L 182.909889 106.196556 
L 183.090353 101.902356 
L 183.270817 107.584258 
L 183.451281 104.494685 
L 183.631745 94.648578 
L 183.992673 104.203568 
L 184.173136 108.398386 
L 184.3536 98.048851 
L 184.534064 102.210371 
L 184.714528 103.47977 
L 184.894992 109.501348 
L 185.075456 103.740696 
L 185.25592 101.868833 
L 185.436384 108.532499 
L 185.616848 99.442937 
L 185.797311 105.864791 
L 185.977775 106.401413 
L 186.158239 97.330591 
L 186.519167 106.166761 
L 186.699631 100.323545 
L 186.880095 104.304222 
L 187.060559 102.753156 
L 187.241023 102.798077 
L 187.421486 105.039711 
L 187.60195 84.885848 
L 187.962878 103.477074 
L 188.143342 91.65959 
L 188.323806 106.744365 
L 188.50427 101.884603 
L 188.684734 90.905808 
L 189.045662 103.960515 
L 189.406589 98.463398 
L 189.767517 101.575989 
L 189.947981 111.293069 
L 190.128445 99.035905 
L 190.308909 99.861003 
L 190.489373 102.969207 
L 191.030764 95.076369 
L 191.211228 95.72557 
L 191.391692 104.642112 
L 191.572156 105.405652 
L 191.933084 98.678706 
L 192.113548 106.812994 
L 192.294012 98.958757 
L 192.474476 98.623732 
L 192.654939 96.265859 
L 192.835403 103.395858 
L 193.196331 95.550716 
L 193.376795 94.543444 
L 193.557259 98.802187 
L 193.737723 96.646757 
L 193.918187 98.877802 
L 194.098651 97.027288 
L 194.279114 102.994993 
L 194.459578 92.384554 
L 194.640042 90.256197 
L 194.820506 98.837572 
L 195.00097 88.934654 
L 195.361898 98.63742 
L 195.722826 86.694879 
L 196.083753 96.549038 
L 196.264217 98.344372 
L 196.444681 94.920599 
L 196.625145 94.798975 
L 196.805609 92.71692 
L 196.986073 102.205836 
L 197.166537 91.076279 
L 197.347001 93.776751 
L 197.707928 82.107373 
L 197.888392 92.34779 
L 198.068856 90.367208 
L 198.24932 97.681798 
L 198.429784 95.762727 
L 198.610248 97.414847 
L 198.971176 88.663434 
L 199.332104 96.526595 
L 199.512567 96.867218 
L 199.693031 86.18558 
L 199.873495 90.481576 
L 200.053959 78.135054 
L 200.414887 96.559088 
L 200.595351 90.801655 
L 200.775815 93.469846 
L 201.136742 90.914746 
L 201.317206 92.52529 
L 201.678134 89.065901 
L 201.858598 100.587037 
L 202.039062 92.621177 
L 202.219526 96.945252 
L 202.39999 104.97047 
L 202.580454 96.032955 
L 202.760917 97.435673 
L 203.121845 88.606188 
L 203.302309 90.966829 
L 203.482773 95.291139 
L 203.663237 93.39815 
L 203.843701 87.666355 
L 204.024165 85.947295 
L 204.204629 91.580004 
L 204.385093 91.566573 
L 204.565556 82.096596 
L 204.74602 91.585742 
L 204.926484 84.540255 
L 205.106948 91.797268 
L 205.287412 86.356666 
L 205.64834 91.385634 
L 205.828804 90.969305 
L 206.009268 89.751372 
L 206.189731 95.109384 
L 206.370195 94.761307 
L 206.550659 89.687198 
L 206.731123 90.082938 
L 206.911587 83.991524 
L 207.092051 95.029839 
L 207.272515 94.890901 
L 207.452979 95.363239 
L 207.633443 88.894807 
L 207.813907 89.705944 
L 208.174834 93.347276 
L 208.355298 84.259294 
L 208.535762 88.614422 
L 208.716226 89.179982 
L 208.89669 86.939665 
L 209.077154 89.451575 
L 209.257618 86.810311 
L 209.438082 86.516899 
L 209.618545 88.63826 
L 209.799009 94.884921 
L 209.979473 90.425556 
L 210.159937 92.36334 
L 210.340401 90.47701 
L 210.520865 86.454527 
L 210.701329 85.168469 
L 210.881793 95.11843 
L 211.062257 89.31762 
L 211.242721 90.571301 
L 211.423184 87.901069 
L 211.603648 94.34522 
L 211.964576 81.853452 
L 212.14504 89.350458 
L 212.325504 88.772405 
L 212.505968 91.658127 
L 212.686432 85.951283 
L 212.866896 87.973387 
L 213.047359 87.679059 
L 213.227823 86.222348 
L 213.408287 86.122591 
L 213.588751 88.321155 
L 213.769215 86.041473 
L 213.949679 97.321761 
L 214.130143 85.368492 
L 214.310607 89.33265 
L 214.491071 85.145265 
L 214.671535 90.4531 
L 214.851998 83.07972 
L 215.032462 89.000772 
L 215.212926 88.177406 
L 215.39339 82.576833 
L 215.573854 84.164838 
L 215.754318 86.885441 
L 215.934782 81.716309 
L 216.115246 91.960742 
L 216.29571 90.345846 
L 216.476173 86.963664 
L 216.656637 88.310042 
L 216.837101 86.51921 
L 217.017565 80.094088 
L 217.198029 87.251808 
L 217.378493 82.400129 
L 217.558957 87.484077 
L 217.739421 86.906568 
L 217.919885 81.089315 
L 218.100348 93.275768 
L 218.461276 79.302582 
L 218.822204 86.62419 
L 219.002668 83.328808 
L 219.183132 83.138781 
L 219.363596 76.955725 
L 219.724524 90.257065 
L 220.085451 81.150175 
L 220.265915 78.155968 
L 220.626843 90.252378 
L 221.168235 78.610637 
L 221.348699 87.691991 
L 221.529162 88.853039 
L 221.709626 82.234773 
L 221.89009 81.083244 
L 222.070554 77.997789 
L 222.251018 79.630013 
L 222.431482 86.017114 
L 222.611946 84.856634 
L 222.79241 86.896796 
L 222.972874 80.867231 
L 223.153338 83.375951 
L 223.333801 88.092583 
L 224.055657 73.966051 
L 224.416585 83.396034 
L 224.597049 83.67459 
L 224.777513 86.46359 
L 224.957976 84.491848 
L 225.13844 87.453034 
L 225.318904 84.11988 
L 225.499368 86.715526 
L 225.860296 83.930357 
L 226.04076 88.357383 
L 226.401688 82.5519 
L 226.582152 86.085729 
L 226.762615 87.151074 
L 227.123543 66.107726 
L 227.304007 86.928783 
L 227.484471 85.381904 
L 227.664935 80.895764 
L 228.025863 87.133388 
L 228.206327 86.626806 
L 228.38679 84.212072 
L 228.747718 85.074291 
L 228.928182 78.876759 
L 229.28911 86.463026 
L 229.469574 73.1194 
L 229.830502 86.836817 
L 230.010965 77.616771 
L 230.191429 76.052566 
L 230.371893 79.683989 
L 230.552357 86.260084 
L 230.732821 85.525604 
L 231.274213 80.426272 
L 231.454677 82.837582 
L 231.635141 79.23901 
L 232.176532 88.013742 
L 232.356996 83.690605 
L 232.53746 83.071791 
L 232.717924 83.17649 
L 232.898388 83.484615 
L 233.078852 84.164171 
L 233.259316 80.552613 
L 233.439779 80.300098 
L 233.620243 74.43696 
L 233.800707 85.677576 
L 233.981171 77.381169 
L 234.522563 81.839235 
L 234.703027 82.401895 
L 234.883491 76.135187 
L 235.063955 78.763528 
L 235.244418 73.209227 
L 235.424882 79.730142 
L 235.605346 79.292249 
L 235.78581 80.864849 
L 235.966274 73.36289 
L 236.146738 74.135899 
L 236.327202 83.791642 
L 236.507666 85.198518 
L 236.68813 80.930066 
L 236.868593 88.378109 
L 237.229521 73.906669 
L 237.409985 80.405484 
L 237.770913 74.339631 
L 237.951377 75.01268 
L 238.312305 81.88223 
L 238.673232 77.068567 
L 238.853696 79.983229 
L 239.03416 78.690626 
L 239.395088 86.257332 
L 239.575552 72.996989 
L 239.756016 77.89658 
L 239.93648 79.0052 
L 240.116944 75.373396 
L 240.297407 81.464732 
L 240.658335 76.221967 
L 240.838799 79.646853 
L 241.019263 77.379679 
L 241.199727 73.652842 
L 241.560655 91.946265 
L 241.741119 74.889697 
L 241.921583 81.608702 
L 242.28251 70.404579 
L 242.462974 76.920495 
L 242.643438 78.536631 
L 242.823902 78.053931 
L 243.004366 77.070949 
L 243.18483 75.391153 
L 243.365294 70.846884 
L 243.545758 69.571075 
L 243.726221 75.051701 
L 243.906685 72.903351 
L 244.087149 79.938372 
L 244.267613 70.368108 
L 244.448077 72.940868 
L 244.628541 73.549543 
L 244.809005 77.033996 
L 245.169933 71.223095 
L 245.350396 76.736475 
L 245.53086 74.68075 
L 245.891788 83.873974 
L 246.072252 65.691336 
L 246.252716 88.095219 
L 246.43318 72.61237 
L 246.613644 73.959302 
L 246.794108 71.063484 
L 246.974572 80.17948 
L 247.155035 76.040719 
L 247.335499 68.001226 
L 247.515963 78.321341 
L 247.696427 79.730583 
L 247.876891 79.834109 
L 248.057355 78.812703 
L 248.237819 79.146302 
L 248.418283 72.905293 
L 248.598747 71.424394 
L 248.77921 77.721545 
L 248.959674 72.407652 
L 249.140138 73.847956 
L 249.320602 71.035732 
L 249.68153 76.515068 
L 249.861994 76.558262 
L 250.042458 75.123082 
L 250.222922 85.53266 
L 250.583849 72.264812 
L 250.764313 68.869126 
L 250.944777 73.658016 
L 251.125241 70.84395 
L 251.305705 79.58335 
L 251.486169 80.885013 
L 251.847097 69.931395 
L 252.027561 69.817039 
L 252.208024 74.492711 
L 252.388488 71.34877 
L 252.568952 76.09059 
L 252.749416 72.290914 
L 252.92988 72.161742 
L 253.110344 80.18516 
L 253.471272 77.134576 
L 253.651736 79.767922 
L 253.8322 68.571437 
L 254.012663 72.618745 
L 254.373591 73.197204 
L 254.734519 71.639273 
L 254.914983 71.39619 
L 255.095447 76.23061 
L 255.275911 76.253241 
L 255.456375 80.140477 
L 255.636838 67.990836 
L 255.817302 73.741439 
L 255.997766 66.571065 
L 256.17823 67.181721 
L 256.358694 75.72708 
L 256.539158 78.392661 
L 256.719622 75.304199 
L 256.900086 67.52051 
L 257.261014 69.31885 
L 257.621941 84.738351 
L 257.802405 70.117503 
L 257.982869 65.852391 
L 258.163333 74.008187 
L 258.343797 69.670812 
L 258.524261 72.966291 
L 258.704725 63.856664 
L 258.885189 75.112197 
L 259.065652 78.167638 
L 259.246116 69.784264 
L 259.42658 68.63986 
L 259.607044 71.516171 
L 259.787508 78.224185 
L 259.967972 69.749505 
L 260.148436 77.169889 
L 260.3289 72.364799 
L 260.509364 78.742953 
L 260.870291 66.455441 
L 261.050755 67.947706 
L 261.411683 75.302752 
L 261.772611 69.299117 
L 261.953075 77.873567 
L 262.133539 76.904534 
L 262.314003 76.856908 
L 262.494466 67.832463 
L 262.67493 74.932129 
L 262.855394 72.515969 
L 263.035858 81.34793 
L 263.216322 67.405306 
L 263.396786 73.56 
L 263.57725 69.137749 
L 263.757714 71.75983 
L 263.938178 63.068145 
L 264.118641 71.802948 
L 264.299105 74.982502 
L 264.479569 73.590895 
L 264.660033 69.254044 
L 264.840497 79.58082 
L 265.020961 67.127397 
L 265.201425 69.849408 
L 265.381889 68.896647 
L 265.562353 72.097389 
L 265.742817 66.829773 
L 265.92328 75.408795 
L 266.103744 69.034741 
L 266.284208 68.288489 
L 266.464672 81.467682 
L 266.645136 65.699157 
L 266.8256 76.968681 
L 267.006064 78.524441 
L 267.186528 77.378288 
L 267.366992 69.440515 
L 267.547455 69.503704 
L 267.908383 67.70011 
L 268.088847 77.11581 
L 268.269311 66.690845 
L 268.810703 75.975877 
L 268.991167 65.531215 
L 269.171631 73.377762 
L 269.532558 67.711039 
L 269.893486 76.356232 
L 270.07395 75.169348 
L 270.434878 71.302299 
L 270.615342 75.975263 
L 270.795806 67.717357 
L 270.976269 76.732285 
L 271.156733 66.70085 
L 271.337197 71.107323 
L 271.698125 68.254048 
L 272.059053 74.943068 
L 272.239517 73.623402 
L 272.419981 68.366464 
L 272.600445 68.147697 
L 272.780908 68.614298 
L 273.141836 72.352108 
L 273.3223 70.733867 
L 273.502764 66.237539 
L 273.683228 71.871935 
L 273.863692 71.566841 
L 274.044156 73.893966 
L 274.22462 73.004266 
L 274.405083 69.959821 
L 274.585547 70.407878 
L 274.766011 74.658821 
L 274.946475 65.841733 
L 275.126939 64.415907 
L 275.307403 71.671318 
L 275.487867 70.288064 
L 275.668331 67.61311 
L 275.848795 72.622841 
L 276.209722 67.942966 
L 276.390186 69.886614 
L 276.751114 65.140388 
L 276.931578 74.286491 
L 277.112042 73.139432 
L 277.292506 64.455084 
L 277.47297 62.0098 
L 277.653434 65.815607 
L 277.833897 66.877494 
L 278.014361 65.044417 
L 278.375289 73.931051 
L 278.555753 70.621092 
L 278.736217 69.368397 
L 278.916681 64.64969 
L 279.638536 75.146122 
L 279.999464 67.552722 
L 280.179928 66.795221 
L 280.360392 61.249133 
L 280.540856 66.823136 
L 280.901784 64.342433 
L 281.262711 70.45896 
L 281.443175 64.284322 
L 281.623639 68.260533 
L 281.984567 63.36996 
L 282.165031 67.46063 
L 282.345495 65.297867 
L 282.706423 68.737521 
L 282.886886 64.125213 
L 283.247814 69.77545 
L 283.428278 65.486172 
L 283.608742 69.635824 
L 283.789206 61.043128 
L 284.150134 69.574492 
L 284.330598 66.520069 
L 284.511062 69.024751 
L 284.691525 68.681606 
L 284.871989 61.796874 
L 285.052453 63.767772 
L 285.232917 62.920811 
L 285.413381 71.250154 
L 285.593845 64.484692 
L 285.774309 67.859895 
L 285.954773 66.388739 
L 286.135237 72.394248 
L 286.3157 67.47889 
L 286.496164 66.399141 
L 286.676628 61.382436 
L 287.21802 68.317683 
L 287.578948 66.275286 
L 287.759412 68.04323 
L 287.939875 63.118336 
L 288.120339 67.170145 
L 288.300803 65.859226 
L 288.842195 70.727258 
L 289.022659 64.653239 
L 289.203123 68.630758 
L 289.383587 62.479236 
L 289.564051 71.013717 
L 289.744514 65.212514 
L 289.924978 66.787115 
L 290.105442 69.624917 
L 290.285906 65.924151 
L 290.46637 65.106936 
L 290.646834 60.10626 
L 290.827298 66.75472 
L 291.007762 65.566456 
L 291.188226 61.268619 
L 291.368689 65.985749 
L 291.549153 62.593341 
L 291.729617 62.05211 
L 291.910081 65.268588 
L 292.090545 65.700599 
L 292.271009 63.820568 
L 292.451473 68.08988 
L 292.631937 64.7407 
L 292.812401 64.352051 
L 292.992865 67.778332 
L 293.173328 62.732469 
L 293.353792 61.866351 
L 293.71472 68.892963 
L 294.075648 62.057426 
L 294.256112 65.910986 
L 294.436576 59.317015 
L 294.61704 65.428674 
L 294.797503 62.907292 
L 294.977967 55.837787 
L 295.158431 66.46215 
L 295.519359 61.497169 
L 295.699823 60.970331 
L 296.241215 69.485949 
L 296.421679 66.558543 
L 296.602142 60.404856 
L 296.782606 65.661387 
L 296.96307 65.120211 
L 297.143534 65.105204 
L 297.323998 63.327176 
L 297.504462 64.741157 
L 297.684926 63.863284 
L 297.86539 68.246512 
L 298.045854 63.426248 
L 298.226317 67.597352 
L 298.587245 60.172541 
L 298.767709 60.664196 
L 299.128637 69.157362 
L 299.489565 61.032109 
L 299.670029 66.534614 
L 299.850493 64.081812 
L 300.030956 64.077801 
L 300.21142 66.166626 
L 300.391884 60.241206 
L 300.572348 62.458243 
L 300.752812 61.65163 
L 300.933276 60.316249 
L 301.11374 65.05028 
L 301.294204 66.604696 
L 301.474668 60.506626 
L 301.835595 65.148853 
L 302.016059 62.557935 
L 302.196523 64.228741 
L 302.376987 59.932328 
L 302.557451 64.450743 
L 302.737915 63.804102 
L 302.918379 64.564435 
L 303.098843 60.287008 
L 303.279306 63.286322 
L 303.45977 60.484391 
L 303.640234 62.275117 
L 303.820698 62.031701 
L 304.001162 63.651754 
L 304.181626 63.473615 
L 304.542554 61.096128 
L 304.903482 64.59216 
L 305.083945 59.921356 
L 305.264409 60.210739 
L 305.444873 63.035697 
L 305.625337 62.889821 
L 305.805801 54.510016 
L 305.986265 61.427592 
L 306.166729 61.182499 
L 306.347193 60.152106 
L 306.527657 62.162377 
L 306.70812 56.590689 
L 306.888584 63.08949 
L 307.069048 61.289837 
L 307.249512 60.893946 
L 307.429976 59.611741 
L 307.61044 63.169992 
L 307.790904 62.963759 
L 308.151832 59.710964 
L 308.332296 65.534544 
L 308.512759 57.078511 
L 308.693223 57.903102 
L 308.873687 62.50969 
L 309.054151 55.156825 
L 309.415079 62.756955 
L 309.595543 62.872454 
L 309.776007 60.311095 
L 309.956471 62.305352 
L 310.136934 56.157545 
L 310.497862 62.485237 
L 310.678326 62.401206 
L 310.85879 59.038946 
L 311.039254 62.259708 
L 311.219718 55.979728 
L 311.400182 61.966264 
L 311.580646 59.719751 
L 311.941573 62.974824 
L 312.122037 61.181798 
L 312.302501 62.474665 
L 312.482965 60.836233 
L 312.663429 62.948381 
L 312.843893 60.658365 
L 313.024357 63.472335 
L 313.204821 59.159601 
L 313.385285 62.827004 
L 313.565748 60.639365 
L 313.746212 49.409564 
L 313.926676 59.294079 
L 314.10714 61.742335 
L 314.287604 59.456182 
L 314.468068 58.741078 
L 314.648532 62.98498 
L 315.00946 57.696939 
L 315.370387 58.711685 
L 315.550851 55.155921 
L 315.731315 60.709503 
L 315.911779 57.768406 
L 316.092243 59.675444 
L 316.272707 57.595396 
L 316.633635 56.771329 
L 316.814099 60.801395 
L 316.994562 54.246405 
L 317.175026 53.585752 
L 317.35549 53.626607 
L 317.535954 58.899725 
L 317.716418 56.762278 
L 317.896882 61.574795 
L 318.077346 53.457602 
L 318.25781 60.333171 
L 318.438274 53.80266 
L 318.618737 59.21014 
L 318.799201 57.410072 
L 318.979665 61.991555 
L 319.160129 60.266832 
L 319.340593 56.394589 
L 319.521057 56.158516 
L 319.701521 57.002296 
L 319.881985 48.989494 
L 320.062449 57.306861 
L 320.242913 59.195794 
L 320.423376 58.702512 
L 320.60384 53.995575 
L 320.784304 59.781026 
L 320.964768 59.717893 
L 321.145232 50.471129 
L 321.325696 51.921507 
L 321.50616 58.003878 
L 321.686624 60.046183 
L 321.867088 57.702347 
L 322.047551 58.990762 
L 322.228015 59.309453 
L 322.408479 59.917085 
L 322.588943 52.349874 
L 322.769407 57.519389 
L 322.949871 53.720316 
L 323.130335 56.607499 
L 323.310799 55.175684 
L 323.491263 57.328196 
L 323.671727 55.977165 
L 323.85219 56.88821 
L 324.032654 56.882254 
L 324.213118 59.78683 
L 324.393582 54.715425 
L 324.574046 56.457568 
L 324.75451 51.654325 
L 324.934974 56.793268 
L 325.295902 52.346074 
L 325.476365 60.975088 
L 325.656829 55.56318 
L 325.837293 59.233181 
L 326.017757 58.640949 
L 326.198221 53.398515 
L 326.378685 55.224328 
L 326.559149 54.757635 
L 326.739613 57.812124 
L 326.920077 54.526527 
L 327.281004 57.654306 
L 327.461468 56.454391 
L 327.641932 57.486437 
L 327.822396 54.06716 
L 328.00286 57.539032 
L 328.183324 57.176311 
L 328.363788 48.968101 
L 328.544252 55.943855 
L 328.724716 54.098382 
L 328.905179 53.660956 
L 329.085643 54.237847 
L 329.266107 55.92804 
L 329.446571 54.744848 
L 329.627035 55.239035 
L 329.807499 49.350268 
L 329.987963 58.467621 
L 330.168427 58.169404 
L 330.348891 55.550634 
L 330.709818 54.212825 
L 330.890282 54.350412 
L 331.25121 49.80728 
L 331.612138 57.884842 
L 331.792602 51.89047 
L 331.973066 54.55386 
L 332.15353 55.312401 
L 332.333993 57.060644 
L 332.514457 57.12122 
L 332.694921 58.30472 
L 332.875385 54.484609 
L 333.055849 55.881863 
L 333.236313 51.52552 
L 333.597241 56.449792 
L 333.777705 58.399036 
L 333.958168 58.137747 
L 334.319096 52.975117 
L 334.49956 52.315856 
L 334.680024 58.98893 
L 334.860488 53.17135 
L 335.040952 57.53102 
L 335.221416 57.949001 
L 335.40188 53.742387 
L 335.762807 50.93544 
L 335.943271 57.393079 
L 336.123735 51.741082 
L 336.304199 51.328819 
L 336.484663 47.645748 
L 336.665127 58.169003 
L 336.845591 54.15222 
L 337.026055 57.750885 
L 337.206519 53.166361 
L 337.386982 52.328733 
L 337.567446 53.249141 
L 337.74791 50.94516 
L 337.928374 56.123392 
L 338.289302 45.941384 
L 338.469766 54.247458 
L 338.65023 53.069339 
L 338.830694 49.144885 
L 339.011158 54.719448 
L 339.191621 53.722212 
L 339.372085 50.781714 
L 339.552549 51.002058 
L 339.733013 50.960777 
L 339.913477 51.712602 
L 340.274405 57.739355 
L 340.454869 50.592158 
L 340.635333 56.991603 
L 340.99626 52.562626 
L 341.176724 53.695287 
L 341.357188 46.387932 
L 341.537652 54.722265 
L 341.718116 52.512064 
L 341.89858 52.075097 
L 342.079044 56.394105 
L 342.259508 55.288112 
L 342.439972 54.919877 
L 342.620435 55.091999 
L 342.981363 53.11848 
L 343.161827 50.299629 
L 343.342291 51.801257 
L 343.522755 47.448908 
L 343.703219 52.925014 
L 343.883683 51.771715 
L 344.064147 53.816895 
L 344.24461 51.659255 
L 344.425074 51.737279 
L 344.605538 53.223758 
L 344.966466 47.59172 
L 345.14693 52.166249 
L 345.327394 53.315739 
L 345.507858 55.422759 
L 345.868785 54.216634 
L 346.049249 54.420165 
L 346.229713 49.49598 
L 346.410177 54.50334 
L 346.590641 52.715804 
L 346.771105 54.36255 
L 346.951569 53.803575 
L 347.132033 52.297019 
L 347.312497 55.270358 
L 347.673424 50.958592 
L 347.853888 52.139643 
L 348.034352 52.12945 
L 348.214816 48.154014 
L 348.39528 51.8489 
L 348.575744 44.485857 
L 348.756208 50.955425 
L 348.936672 43.926455 
L 349.117136 54.771947 
L 349.297599 48.047178 
L 349.478063 53.354562 
L 349.658527 54.154896 
L 349.838991 52.466341 
L 350.019455 54.631359 
L 350.199919 53.556022 
L 350.380383 51.797394 
L 350.560847 53.905291 
L 350.741311 50.907793 
L 350.921775 42.295866 
L 351.102238 51.295657 
L 351.282702 52.239468 
L 351.463166 55.818409 
L 351.824094 48.572916 
L 352.004558 51.983926 
L 352.185022 50.870753 
L 352.365486 50.501376 
L 352.54595 53.349625 
L 352.726413 51.777153 
L 352.906877 44.582123 
L 353.087341 51.870919 
L 353.267805 50.804103 
L 353.448269 45.110444 
L 353.809197 50.86618 
L 354.170125 53.984718 
L 354.350589 54.421243 
L 354.531052 51.619291 
L 354.711516 54.313016 
L 354.89198 48.822663 
L 355.072444 54.272317 
L 355.252908 50.596488 
L 355.433372 52.580693 
L 355.613836 56.405164 
L 355.7943 49.300095 
L 355.974764 53.338311 
L 356.155227 50.142977 
L 356.335691 44.372539 
L 356.516155 54.042776 
L 357.057547 47.021831 
L 357.238011 51.838142 
L 357.418475 53.46809 
L 357.598939 52.85917 
L 357.779403 54.491828 
L 357.959866 49.873872 
L 358.14033 52.858785 
L 358.320794 48.718827 
L 358.501258 50.101377 
L 358.681722 46.594533 
L 359.04265 47.713015 
L 359.223114 46.121117 
L 359.403578 46.905511 
L 359.584041 43.606736 
L 359.764505 54.451273 
L 360.125433 51.502038 
L 360.305897 53.227451 
L 360.486361 52.886439 
L 360.666825 53.574648 
L 360.847289 46.681946 
L 361.208216 53.51918 
L 361.38868 46.980013 
L 361.569144 53.733516 
L 361.749608 50.088941 
L 361.930072 53.520947 
L 362.110536 49.931895 
L 362.291 53.842195 
L 362.832392 45.843992 
L 363.193319 53.268355 
L 363.554247 48.841101 
L 363.734711 51.355348 
L 363.915175 51.412506 
L 364.095639 50.661457 
L 364.276103 52.049355 
L 364.456567 46.758737 
L 364.63703 52.832977 
L 364.817494 51.884872 
L 364.997958 45.832755 
L 365.178422 53.17264 
L 365.53935 50.392076 
L 365.719814 52.753441 
L 365.900278 46.716746 
L 366.080742 52.397209 
L 366.261206 44.727314 
L 366.441669 52.096951 
L 366.622133 52.427195 
L 366.802597 53.331488 
L 366.983061 48.665775 
L 367.343989 51.992467 
L 367.524453 48.061201 
L 367.704917 47.725152 
L 367.885381 52.510072 
L 368.065844 50.522749 
L 368.246308 52.122655 
L 368.426772 52.252668 
L 368.607236 53.886782 
L 368.968164 51.17297 
L 369.148628 49.621658 
L 369.329092 52.963744 
L 369.509556 51.95944 
L 369.69002 51.90767 
L 369.870483 49.60035 
L 370.050947 50.072576 
L 370.231411 44.827698 
L 370.411875 49.7803 
L 370.592339 50.795077 
L 370.772803 49.169637 
L 370.953267 51.504287 
L 371.314195 48.538721 
L 371.494658 51.441822 
L 371.675122 48.642532 
L 372.03605 50.773616 
L 372.216514 49.140183 
L 372.396978 45.660979 
L 372.577442 51.297115 
L 372.757906 42.600469 
L 372.93837 52.351906 
L 373.118834 53.554194 
L 373.479761 50.562288 
L 373.840689 50.252234 
L 374.201617 47.426618 
L 374.382081 42.03001 
L 374.562545 48.478209 
L 374.743009 47.076025 
L 374.923472 50.147139 
L 375.103936 47.781478 
L 375.2844 51.516907 
L 375.464864 50.460923 
L 375.645328 46.230965 
L 375.825792 50.418898 
L 376.006256 34.414125 
L 376.18672 51.766612 
L 376.367184 52.620453 
L 376.547647 49.881922 
L 376.728111 51.3435 
L 376.908575 39.292951 
L 377.089039 47.801814 
L 377.269503 48.8361 
L 377.449967 45.792828 
L 377.630431 47.776531 
L 377.810895 43.450354 
L 377.991359 47.188271 
L 378.171823 47.516443 
L 378.352286 49.994224 
L 378.53275 48.900381 
L 378.713214 49.014973 
L 378.893678 49.676839 
L 379.074142 48.46575 
L 379.254606 46.085201 
L 379.43507 52.105288 
L 379.795998 48.479738 
L 379.976461 51.959909 
L 380.156925 47.617869 
L 380.337389 48.187063 
L 380.517853 47.761155 
L 380.698317 51.228855 
L 380.878781 49.230321 
L 381.059245 45.959723 
L 381.239709 49.935626 
L 381.420173 42.151472 
L 381.600637 49.993023 
L 381.7811 50.775096 
L 382.142028 43.906278 
L 382.322492 44.74286 
L 382.502956 50.93378 
L 382.863884 47.719733 
L 383.224812 49.608942 
L 383.585739 46.517868 
L 383.766203 47.93576 
L 383.946667 51.530462 
L 384.127131 45.722481 
L 384.307595 47.005737 
L 384.488059 46.211443 
L 384.668523 47.095126 
L 384.668523 47.095126 
" style="fill:none;stroke:#1f77b4;stroke-linecap:square;stroke-width:0.5;"/>
   </g>
   <g id="patch_3">
    <path d="M 43.78125 288.430125 
L 43.78125 22.318125 
" style="fill:none;stroke:#000000;stroke-linecap:square;stroke-linejoin:miter;stroke-width:0.8;"/>
   </g>
   <g id="patch_4">
    <path d="M 400.90125 288.430125 
L 400.90125 22.318125 
" style="fill:none;stroke:#000000;stroke-linecap:square;stroke-linejoin:miter;stroke-width:0.8;"/>
   </g>
   <g id="patch_5">
    <path d="M 43.78125 288.430125 
L 400.90125 288.430125 
" style="fill:none;stroke:#000000;stroke-linecap:square;stroke-linejoin:miter;stroke-width:0.8;"/>
   </g>
   <g id="patch_6">
    <path d="M 43.78125 22.318125 
L 400.90125 22.318125 
" style="fill:none;stroke:#000000;stroke-linecap:square;stroke-linejoin:miter;stroke-width:0.8;"/>
   </g>
   <g id="text_20">
    <!-- Average maxQ per episode, joint 5 -->
    <defs>
     <path d="M 34.1875 63.1875 
L 20.796875 26.90625 
L 47.609375 26.90625 
z
M 28.609375 72.90625 
L 39.796875 72.90625 
L 67.578125 0 
L 57.328125 0 
L 50.6875 18.703125 
L 17.828125 18.703125 
L 11.1875 0 
L 0.78125 0 
z
" id="DejaVuSans-41"/>
     <path d="M 11.71875 12.40625 
L 22.015625 12.40625 
L 22.015625 4 
L 14.015625 -11.625 
L 7.71875 -11.625 
L 11.71875 4 
z
" id="DejaVuSans-2c"/>
     <path d="M 9.421875 54.6875 
L 18.40625 54.6875 
L 18.40625 -0.984375 
Q 18.40625 -11.421875 14.421875 -16.109375 
Q 10.453125 -20.796875 1.609375 -20.796875 
L -1.8125 -20.796875 
L -1.8125 -13.1875 
L 0.59375 -13.1875 
Q 5.71875 -13.1875 7.5625 -10.8125 
Q 9.421875 -8.453125 9.421875 -0.984375 
z
M 9.421875 75.984375 
L 18.40625 75.984375 
L 18.40625 64.59375 
L 9.421875 64.59375 
z
" id="DejaVuSans-6a"/>
     <path d="M 54.890625 33.015625 
L 54.890625 0 
L 45.90625 0 
L 45.90625 32.71875 
Q 45.90625 40.484375 42.875 44.328125 
Q 39.84375 48.1875 33.796875 48.1875 
Q 26.515625 48.1875 22.3125 43.546875 
Q 18.109375 38.921875 18.109375 30.90625 
L 18.109375 0 
L 9.078125 0 
L 9.078125 54.6875 
L 18.109375 54.6875 
L 18.109375 46.1875 
Q 21.34375 51.125 25.703125 53.5625 
Q 30.078125 56 35.796875 56 
Q 45.21875 56 50.046875 50.171875 
Q 54.890625 44.34375 54.890625 33.015625 
z
" id="DejaVuSans-6e"/>
     <path d="M 18.3125 70.21875 
L 18.3125 54.6875 
L 36.8125 54.6875 
L 36.8125 47.703125 
L 18.3125 47.703125 
L 18.3125 18.015625 
Q 18.3125 11.328125 20.140625 9.421875 
Q 21.96875 7.515625 27.59375 7.515625 
L 36.8125 7.515625 
L 36.8125 0 
L 27.59375 0 
Q 17.1875 0 13.234375 3.875 
Q 9.28125 7.765625 9.28125 18.015625 
L 9.28125 47.703125 
L 2.6875 47.703125 
L 2.6875 54.6875 
L 9.28125 54.6875 
L 9.28125 70.21875 
z
" id="DejaVuSans-74"/>
    </defs>
    <g transform="translate(117.706875 16.318125)scale(0.12 -0.12)">
     <use xlink:href="#DejaVuSans-41"/>
     <use x="68.330078" xlink:href="#DejaVuSans-76"/>
     <use x="127.509766" xlink:href="#DejaVuSans-65"/>
     <use x="189.033203" xlink:href="#DejaVuSans-72"/>
     <use x="230.146484" xlink:href="#DejaVuSans-61"/>
     <use x="291.425781" xlink:href="#DejaVuSans-67"/>
     <use x="354.902344" xlink:href="#DejaVuSans-65"/>
     <use x="416.425781" xlink:href="#DejaVuSans-20"/>
     <use x="448.212891" xlink:href="#DejaVuSans-6d"/>
     <use x="545.625" xlink:href="#DejaVuSans-61"/>
     <use x="606.904297" xlink:href="#DejaVuSans-78"/>
     <use x="666.083984" xlink:href="#DejaVuSans-51"/>
     <use x="744.794922" xlink:href="#DejaVuSans-20"/>
     <use x="776.582031" xlink:href="#DejaVuSans-70"/>
     <use x="840.058594" xlink:href="#DejaVuSans-65"/>
     <use x="901.582031" xlink:href="#DejaVuSans-72"/>
     <use x="942.695312" xlink:href="#DejaVuSans-20"/>
     <use x="974.482422" xlink:href="#DejaVuSans-65"/>
     <use x="1036.005859" xlink:href="#DejaVuSans-70"/>
     <use x="1099.482422" xlink:href="#DejaVuSans-69"/>
     <use x="1127.265625" xlink:href="#DejaVuSans-73"/>
     <use x="1179.365234" xlink:href="#DejaVuSans-6f"/>
     <use x="1240.546875" xlink:href="#DejaVuSans-64"/>
     <use x="1304.023438" xlink:href="#DejaVuSans-65"/>
     <use x="1365.546875" xlink:href="#DejaVuSans-2c"/>
     <use x="1397.333984" xlink:href="#DejaVuSans-20"/>
     <use x="1429.121094" xlink:href="#DejaVuSans-6a"/>
     <use x="1456.904297" xlink:href="#DejaVuSans-6f"/>
     <use x="1518.085938" xlink:href="#DejaVuSans-69"/>
     <use x="1545.869141" xlink:href="#DejaVuSans-6e"/>
     <use x="1609.248047" xlink:href="#DejaVuSans-74"/>
     <use x="1648.457031" xlink:href="#DejaVuSans-20"/>
     <use x="1680.244141" xlink:href="#DejaVuSans-35"/>
    </g>
   </g>
  </g>
 </g>
 <defs>
  <clipPath id="p2a4a016b06">
   <rect height="266.112" width="357.12" x="43.78125" y="22.318125"/>
  </clipPath>
 </defs>
</svg>
