<?xml version="1.0" encoding="utf-8" standalone="no"?>
<!DOCTYPE svg PUBLIC "-//W3C//DTD SVG 1.1//EN"
  "http://www.w3.org/Graphics/SVG/1.1/DTD/svg11.dtd">
<!-- Created with matplotlib (http://matplotlib.org/) -->
<svg height="325pt" version="1.1" viewBox="0 0 411 325" width="411pt" xmlns="http://www.w3.org/2000/svg" xmlns:xlink="http://www.w3.org/1999/xlink">
 <defs>
  <style type="text/css">
*{stroke-linecap:butt;stroke-linejoin:round;}
  </style>
 </defs>
 <g id="figure_1">
  <g id="patch_1">
   <path d="M 0 325.986375 
L 411.60125 325.986375 
L 411.60125 0 
L 0 0 
z
" style="fill:#ffffff;"/>
  </g>
  <g id="axes_1">
   <g id="patch_2">
    <path d="M 43.78125 288.430125 
L 400.90125 288.430125 
L 400.90125 22.318125 
L 43.78125 22.318125 
z
" style="fill:#ffffff;"/>
   </g>
   <g id="matplotlib.axis_1">
    <g id="xtick_1">
     <g id="line2d_1">
      <defs>
       <path d="M 0 0 
L 0 3.5 
" id="mca7c02fee3" style="stroke:#000000;stroke-width:0.8;"/>
      </defs>
      <g>
       <use style="stroke:#000000;stroke-width:0.8;" x="59.760341" xlink:href="#mca7c02fee3" y="288.430125"/>
      </g>
     </g>
     <g id="text_1">
      <!-- 0 -->
      <defs>
       <path d="M 31.78125 66.40625 
Q 24.171875 66.40625 20.328125 58.90625 
Q 16.5 51.421875 16.5 36.375 
Q 16.5 21.390625 20.328125 13.890625 
Q 24.171875 6.390625 31.78125 6.390625 
Q 39.453125 6.390625 43.28125 13.890625 
Q 47.125 21.390625 47.125 36.375 
Q 47.125 51.421875 43.28125 58.90625 
Q 39.453125 66.40625 31.78125 66.40625 
z
M 31.78125 74.21875 
Q 44.046875 74.21875 50.515625 64.515625 
Q 56.984375 54.828125 56.984375 36.375 
Q 56.984375 17.96875 50.515625 8.265625 
Q 44.046875 -1.421875 31.78125 -1.421875 
Q 19.53125 -1.421875 13.0625 8.265625 
Q 6.59375 17.96875 6.59375 36.375 
Q 6.59375 54.828125 13.0625 64.515625 
Q 19.53125 74.21875 31.78125 74.21875 
z
" id="DejaVuSans-30"/>
      </defs>
      <g transform="translate(56.579091 303.028562)scale(0.1 -0.1)">
       <use xlink:href="#DejaVuSans-30"/>
      </g>
     </g>
    </g>
    <g id="xtick_2">
     <g id="line2d_2">
      <g>
       <use style="stroke:#000000;stroke-width:0.8;" x="110.487614" xlink:href="#mca7c02fee3" y="288.430125"/>
      </g>
     </g>
     <g id="text_2">
      <!-- 200 -->
      <defs>
       <path d="M 19.1875 8.296875 
L 53.609375 8.296875 
L 53.609375 0 
L 7.328125 0 
L 7.328125 8.296875 
Q 12.9375 14.109375 22.625 23.890625 
Q 32.328125 33.6875 34.8125 36.53125 
Q 39.546875 41.84375 41.421875 45.53125 
Q 43.3125 49.21875 43.3125 52.78125 
Q 43.3125 58.59375 39.234375 62.25 
Q 35.15625 65.921875 28.609375 65.921875 
Q 23.96875 65.921875 18.8125 64.3125 
Q 13.671875 62.703125 7.8125 59.421875 
L 7.8125 69.390625 
Q 13.765625 71.78125 18.9375 73 
Q 24.125 74.21875 28.421875 74.21875 
Q 39.75 74.21875 46.484375 68.546875 
Q 53.21875 62.890625 53.21875 53.421875 
Q 53.21875 48.921875 51.53125 44.890625 
Q 49.859375 40.875 45.40625 35.40625 
Q 44.1875 33.984375 37.640625 27.21875 
Q 31.109375 20.453125 19.1875 8.296875 
z
" id="DejaVuSans-32"/>
      </defs>
      <g transform="translate(100.943864 303.028562)scale(0.1 -0.1)">
       <use xlink:href="#DejaVuSans-32"/>
       <use x="63.623047" xlink:href="#DejaVuSans-30"/>
       <use x="127.246094" xlink:href="#DejaVuSans-30"/>
      </g>
     </g>
    </g>
    <g id="xtick_3">
     <g id="line2d_3">
      <g>
       <use style="stroke:#000000;stroke-width:0.8;" x="161.214886" xlink:href="#mca7c02fee3" y="288.430125"/>
      </g>
     </g>
     <g id="text_3">
      <!-- 400 -->
      <defs>
       <path d="M 37.796875 64.3125 
L 12.890625 25.390625 
L 37.796875 25.390625 
z
M 35.203125 72.90625 
L 47.609375 72.90625 
L 47.609375 25.390625 
L 58.015625 25.390625 
L 58.015625 17.1875 
L 47.609375 17.1875 
L 47.609375 0 
L 37.796875 0 
L 37.796875 17.1875 
L 4.890625 17.1875 
L 4.890625 26.703125 
z
" id="DejaVuSans-34"/>
      </defs>
      <g transform="translate(151.671136 303.028562)scale(0.1 -0.1)">
       <use xlink:href="#DejaVuSans-34"/>
       <use x="63.623047" xlink:href="#DejaVuSans-30"/>
       <use x="127.246094" xlink:href="#DejaVuSans-30"/>
      </g>
     </g>
    </g>
    <g id="xtick_4">
     <g id="line2d_4">
      <g>
       <use style="stroke:#000000;stroke-width:0.8;" x="211.942159" xlink:href="#mca7c02fee3" y="288.430125"/>
      </g>
     </g>
     <g id="text_4">
      <!-- 600 -->
      <defs>
       <path d="M 33.015625 40.375 
Q 26.375 40.375 22.484375 35.828125 
Q 18.609375 31.296875 18.609375 23.390625 
Q 18.609375 15.53125 22.484375 10.953125 
Q 26.375 6.390625 33.015625 6.390625 
Q 39.65625 6.390625 43.53125 10.953125 
Q 47.40625 15.53125 47.40625 23.390625 
Q 47.40625 31.296875 43.53125 35.828125 
Q 39.65625 40.375 33.015625 40.375 
z
M 52.59375 71.296875 
L 52.59375 62.3125 
Q 48.875 64.0625 45.09375 64.984375 
Q 41.3125 65.921875 37.59375 65.921875 
Q 27.828125 65.921875 22.671875 59.328125 
Q 17.53125 52.734375 16.796875 39.40625 
Q 19.671875 43.65625 24.015625 45.921875 
Q 28.375 48.1875 33.59375 48.1875 
Q 44.578125 48.1875 50.953125 41.515625 
Q 57.328125 34.859375 57.328125 23.390625 
Q 57.328125 12.15625 50.6875 5.359375 
Q 44.046875 -1.421875 33.015625 -1.421875 
Q 20.359375 -1.421875 13.671875 8.265625 
Q 6.984375 17.96875 6.984375 36.375 
Q 6.984375 53.65625 15.1875 63.9375 
Q 23.390625 74.21875 37.203125 74.21875 
Q 40.921875 74.21875 44.703125 73.484375 
Q 48.484375 72.75 52.59375 71.296875 
z
" id="DejaVuSans-36"/>
      </defs>
      <g transform="translate(202.398409 303.028562)scale(0.1 -0.1)">
       <use xlink:href="#DejaVuSans-36"/>
       <use x="63.623047" xlink:href="#DejaVuSans-30"/>
       <use x="127.246094" xlink:href="#DejaVuSans-30"/>
      </g>
     </g>
    </g>
    <g id="xtick_5">
     <g id="line2d_5">
      <g>
       <use style="stroke:#000000;stroke-width:0.8;" x="262.669432" xlink:href="#mca7c02fee3" y="288.430125"/>
      </g>
     </g>
     <g id="text_5">
      <!-- 800 -->
      <defs>
       <path d="M 31.78125 34.625 
Q 24.75 34.625 20.71875 30.859375 
Q 16.703125 27.09375 16.703125 20.515625 
Q 16.703125 13.921875 20.71875 10.15625 
Q 24.75 6.390625 31.78125 6.390625 
Q 38.8125 6.390625 42.859375 10.171875 
Q 46.921875 13.96875 46.921875 20.515625 
Q 46.921875 27.09375 42.890625 30.859375 
Q 38.875 34.625 31.78125 34.625 
z
M 21.921875 38.8125 
Q 15.578125 40.375 12.03125 44.71875 
Q 8.5 49.078125 8.5 55.328125 
Q 8.5 64.0625 14.71875 69.140625 
Q 20.953125 74.21875 31.78125 74.21875 
Q 42.671875 74.21875 48.875 69.140625 
Q 55.078125 64.0625 55.078125 55.328125 
Q 55.078125 49.078125 51.53125 44.71875 
Q 48 40.375 41.703125 38.8125 
Q 48.828125 37.15625 52.796875 32.3125 
Q 56.78125 27.484375 56.78125 20.515625 
Q 56.78125 9.90625 50.3125 4.234375 
Q 43.84375 -1.421875 31.78125 -1.421875 
Q 19.734375 -1.421875 13.25 4.234375 
Q 6.78125 9.90625 6.78125 20.515625 
Q 6.78125 27.484375 10.78125 32.3125 
Q 14.796875 37.15625 21.921875 38.8125 
z
M 18.3125 54.390625 
Q 18.3125 48.734375 21.84375 45.5625 
Q 25.390625 42.390625 31.78125 42.390625 
Q 38.140625 42.390625 41.71875 45.5625 
Q 45.3125 48.734375 45.3125 54.390625 
Q 45.3125 60.0625 41.71875 63.234375 
Q 38.140625 66.40625 31.78125 66.40625 
Q 25.390625 66.40625 21.84375 63.234375 
Q 18.3125 60.0625 18.3125 54.390625 
z
" id="DejaVuSans-38"/>
      </defs>
      <g transform="translate(253.125682 303.028562)scale(0.1 -0.1)">
       <use xlink:href="#DejaVuSans-38"/>
       <use x="63.623047" xlink:href="#DejaVuSans-30"/>
       <use x="127.246094" xlink:href="#DejaVuSans-30"/>
      </g>
     </g>
    </g>
    <g id="xtick_6">
     <g id="line2d_6">
      <g>
       <use style="stroke:#000000;stroke-width:0.8;" x="313.396705" xlink:href="#mca7c02fee3" y="288.430125"/>
      </g>
     </g>
     <g id="text_6">
      <!-- 1000 -->
      <defs>
       <path d="M 12.40625 8.296875 
L 28.515625 8.296875 
L 28.515625 63.921875 
L 10.984375 60.40625 
L 10.984375 69.390625 
L 28.421875 72.90625 
L 38.28125 72.90625 
L 38.28125 8.296875 
L 54.390625 8.296875 
L 54.390625 0 
L 12.40625 0 
z
" id="DejaVuSans-31"/>
      </defs>
      <g transform="translate(300.671705 303.028562)scale(0.1 -0.1)">
       <use xlink:href="#DejaVuSans-31"/>
       <use x="63.623047" xlink:href="#DejaVuSans-30"/>
       <use x="127.246094" xlink:href="#DejaVuSans-30"/>
       <use x="190.869141" xlink:href="#DejaVuSans-30"/>
      </g>
     </g>
    </g>
    <g id="xtick_7">
     <g id="line2d_7">
      <g>
       <use style="stroke:#000000;stroke-width:0.8;" x="364.123977" xlink:href="#mca7c02fee3" y="288.430125"/>
      </g>
     </g>
     <g id="text_7">
      <!-- 1200 -->
      <g transform="translate(351.398977 303.028562)scale(0.1 -0.1)">
       <use xlink:href="#DejaVuSans-31"/>
       <use x="63.623047" xlink:href="#DejaVuSans-32"/>
       <use x="127.246094" xlink:href="#DejaVuSans-30"/>
       <use x="190.869141" xlink:href="#DejaVuSans-30"/>
      </g>
     </g>
    </g>
    <g id="text_8">
     <!-- episodes -->
     <defs>
      <path d="M 56.203125 29.59375 
L 56.203125 25.203125 
L 14.890625 25.203125 
Q 15.484375 15.921875 20.484375 11.0625 
Q 25.484375 6.203125 34.421875 6.203125 
Q 39.59375 6.203125 44.453125 7.46875 
Q 49.3125 8.734375 54.109375 11.28125 
L 54.109375 2.78125 
Q 49.265625 0.734375 44.1875 -0.34375 
Q 39.109375 -1.421875 33.890625 -1.421875 
Q 20.796875 -1.421875 13.15625 6.1875 
Q 5.515625 13.8125 5.515625 26.8125 
Q 5.515625 40.234375 12.765625 48.109375 
Q 20.015625 56 32.328125 56 
Q 43.359375 56 49.78125 48.890625 
Q 56.203125 41.796875 56.203125 29.59375 
z
M 47.21875 32.234375 
Q 47.125 39.59375 43.09375 43.984375 
Q 39.0625 48.390625 32.421875 48.390625 
Q 24.90625 48.390625 20.390625 44.140625 
Q 15.875 39.890625 15.1875 32.171875 
z
" id="DejaVuSans-65"/>
      <path d="M 18.109375 8.203125 
L 18.109375 -20.796875 
L 9.078125 -20.796875 
L 9.078125 54.6875 
L 18.109375 54.6875 
L 18.109375 46.390625 
Q 20.953125 51.265625 25.265625 53.625 
Q 29.59375 56 35.59375 56 
Q 45.5625 56 51.78125 48.09375 
Q 58.015625 40.1875 58.015625 27.296875 
Q 58.015625 14.40625 51.78125 6.484375 
Q 45.5625 -1.421875 35.59375 -1.421875 
Q 29.59375 -1.421875 25.265625 0.953125 
Q 20.953125 3.328125 18.109375 8.203125 
z
M 48.6875 27.296875 
Q 48.6875 37.203125 44.609375 42.84375 
Q 40.53125 48.484375 33.40625 48.484375 
Q 26.265625 48.484375 22.1875 42.84375 
Q 18.109375 37.203125 18.109375 27.296875 
Q 18.109375 17.390625 22.1875 11.75 
Q 26.265625 6.109375 33.40625 6.109375 
Q 40.53125 6.109375 44.609375 11.75 
Q 48.6875 17.390625 48.6875 27.296875 
z
" id="DejaVuSans-70"/>
      <path d="M 9.421875 54.6875 
L 18.40625 54.6875 
L 18.40625 0 
L 9.421875 0 
z
M 9.421875 75.984375 
L 18.40625 75.984375 
L 18.40625 64.59375 
L 9.421875 64.59375 
z
" id="DejaVuSans-69"/>
      <path d="M 44.28125 53.078125 
L 44.28125 44.578125 
Q 40.484375 46.53125 36.375 47.5 
Q 32.28125 48.484375 27.875 48.484375 
Q 21.1875 48.484375 17.84375 46.4375 
Q 14.5 44.390625 14.5 40.28125 
Q 14.5 37.15625 16.890625 35.375 
Q 19.28125 33.59375 26.515625 31.984375 
L 29.59375 31.296875 
Q 39.15625 29.25 43.1875 25.515625 
Q 47.21875 21.78125 47.21875 15.09375 
Q 47.21875 7.46875 41.1875 3.015625 
Q 35.15625 -1.421875 24.609375 -1.421875 
Q 20.21875 -1.421875 15.453125 -0.5625 
Q 10.6875 0.296875 5.421875 2 
L 5.421875 11.28125 
Q 10.40625 8.6875 15.234375 7.390625 
Q 20.0625 6.109375 24.8125 6.109375 
Q 31.15625 6.109375 34.5625 8.28125 
Q 37.984375 10.453125 37.984375 14.40625 
Q 37.984375 18.0625 35.515625 20.015625 
Q 33.0625 21.96875 24.703125 23.78125 
L 21.578125 24.515625 
Q 13.234375 26.265625 9.515625 29.90625 
Q 5.8125 33.546875 5.8125 39.890625 
Q 5.8125 47.609375 11.28125 51.796875 
Q 16.75 56 26.8125 56 
Q 31.78125 56 36.171875 55.265625 
Q 40.578125 54.546875 44.28125 53.078125 
z
" id="DejaVuSans-73"/>
      <path d="M 30.609375 48.390625 
Q 23.390625 48.390625 19.1875 42.75 
Q 14.984375 37.109375 14.984375 27.296875 
Q 14.984375 17.484375 19.15625 11.84375 
Q 23.34375 6.203125 30.609375 6.203125 
Q 37.796875 6.203125 41.984375 11.859375 
Q 46.1875 17.53125 46.1875 27.296875 
Q 46.1875 37.015625 41.984375 42.703125 
Q 37.796875 48.390625 30.609375 48.390625 
z
M 30.609375 56 
Q 42.328125 56 49.015625 48.375 
Q 55.71875 40.765625 55.71875 27.296875 
Q 55.71875 13.875 49.015625 6.21875 
Q 42.328125 -1.421875 30.609375 -1.421875 
Q 18.84375 -1.421875 12.171875 6.21875 
Q 5.515625 13.875 5.515625 27.296875 
Q 5.515625 40.765625 12.171875 48.375 
Q 18.84375 56 30.609375 56 
z
" id="DejaVuSans-6f"/>
      <path d="M 45.40625 46.390625 
L 45.40625 75.984375 
L 54.390625 75.984375 
L 54.390625 0 
L 45.40625 0 
L 45.40625 8.203125 
Q 42.578125 3.328125 38.25 0.953125 
Q 33.9375 -1.421875 27.875 -1.421875 
Q 17.96875 -1.421875 11.734375 6.484375 
Q 5.515625 14.40625 5.515625 27.296875 
Q 5.515625 40.1875 11.734375 48.09375 
Q 17.96875 56 27.875 56 
Q 33.9375 56 38.25 53.625 
Q 42.578125 51.265625 45.40625 46.390625 
z
M 14.796875 27.296875 
Q 14.796875 17.390625 18.875 11.75 
Q 22.953125 6.109375 30.078125 6.109375 
Q 37.203125 6.109375 41.296875 11.75 
Q 45.40625 17.390625 45.40625 27.296875 
Q 45.40625 37.203125 41.296875 42.84375 
Q 37.203125 48.484375 30.078125 48.484375 
Q 22.953125 48.484375 18.875 42.84375 
Q 14.796875 37.203125 14.796875 27.296875 
z
" id="DejaVuSans-64"/>
     </defs>
     <g transform="translate(200.181875 316.706687)scale(0.1 -0.1)">
      <use xlink:href="#DejaVuSans-65"/>
      <use x="61.523438" xlink:href="#DejaVuSans-70"/>
      <use x="125" xlink:href="#DejaVuSans-69"/>
      <use x="152.783203" xlink:href="#DejaVuSans-73"/>
      <use x="204.882812" xlink:href="#DejaVuSans-6f"/>
      <use x="266.064453" xlink:href="#DejaVuSans-64"/>
      <use x="329.541016" xlink:href="#DejaVuSans-65"/>
      <use x="391.064453" xlink:href="#DejaVuSans-73"/>
     </g>
    </g>
   </g>
   <g id="matplotlib.axis_2">
    <g id="ytick_1">
     <g id="line2d_8">
      <defs>
       <path d="M 0 0 
L -3.5 0 
" id="m4b807006bb" style="stroke:#000000;stroke-width:0.8;"/>
      </defs>
      <g>
       <use style="stroke:#000000;stroke-width:0.8;" x="43.78125" xlink:href="#m4b807006bb" y="288.453698"/>
      </g>
     </g>
     <g id="text_9">
      <!-- 0.0 -->
      <defs>
       <path d="M 10.6875 12.40625 
L 21 12.40625 
L 21 0 
L 10.6875 0 
z
" id="DejaVuSans-2e"/>
      </defs>
      <g transform="translate(20.878125 292.252917)scale(0.1 -0.1)">
       <use xlink:href="#DejaVuSans-30"/>
       <use x="63.623047" xlink:href="#DejaVuSans-2e"/>
       <use x="95.410156" xlink:href="#DejaVuSans-30"/>
      </g>
     </g>
    </g>
    <g id="ytick_2">
     <g id="line2d_9">
      <g>
       <use style="stroke:#000000;stroke-width:0.8;" x="43.78125" xlink:href="#m4b807006bb" y="249.292384"/>
      </g>
     </g>
     <g id="text_10">
      <!-- 0.5 -->
      <defs>
       <path d="M 10.796875 72.90625 
L 49.515625 72.90625 
L 49.515625 64.59375 
L 19.828125 64.59375 
L 19.828125 46.734375 
Q 21.96875 47.46875 24.109375 47.828125 
Q 26.265625 48.1875 28.421875 48.1875 
Q 40.625 48.1875 47.75 41.5 
Q 54.890625 34.8125 54.890625 23.390625 
Q 54.890625 11.625 47.5625 5.09375 
Q 40.234375 -1.421875 26.90625 -1.421875 
Q 22.3125 -1.421875 17.546875 -0.640625 
Q 12.796875 0.140625 7.71875 1.703125 
L 7.71875 11.625 
Q 12.109375 9.234375 16.796875 8.0625 
Q 21.484375 6.890625 26.703125 6.890625 
Q 35.15625 6.890625 40.078125 11.328125 
Q 45.015625 15.765625 45.015625 23.390625 
Q 45.015625 31 40.078125 35.4375 
Q 35.15625 39.890625 26.703125 39.890625 
Q 22.75 39.890625 18.8125 39.015625 
Q 14.890625 38.140625 10.796875 36.28125 
z
" id="DejaVuSans-35"/>
      </defs>
      <g transform="translate(20.878125 253.091603)scale(0.1 -0.1)">
       <use xlink:href="#DejaVuSans-30"/>
       <use x="63.623047" xlink:href="#DejaVuSans-2e"/>
       <use x="95.410156" xlink:href="#DejaVuSans-35"/>
      </g>
     </g>
    </g>
    <g id="ytick_3">
     <g id="line2d_10">
      <g>
       <use style="stroke:#000000;stroke-width:0.8;" x="43.78125" xlink:href="#m4b807006bb" y="210.13107"/>
      </g>
     </g>
     <g id="text_11">
      <!-- 1.0 -->
      <g transform="translate(20.878125 213.930289)scale(0.1 -0.1)">
       <use xlink:href="#DejaVuSans-31"/>
       <use x="63.623047" xlink:href="#DejaVuSans-2e"/>
       <use x="95.410156" xlink:href="#DejaVuSans-30"/>
      </g>
     </g>
    </g>
    <g id="ytick_4">
     <g id="line2d_11">
      <g>
       <use style="stroke:#000000;stroke-width:0.8;" x="43.78125" xlink:href="#m4b807006bb" y="170.969757"/>
      </g>
     </g>
     <g id="text_12">
      <!-- 1.5 -->
      <g transform="translate(20.878125 174.768976)scale(0.1 -0.1)">
       <use xlink:href="#DejaVuSans-31"/>
       <use x="63.623047" xlink:href="#DejaVuSans-2e"/>
       <use x="95.410156" xlink:href="#DejaVuSans-35"/>
      </g>
     </g>
    </g>
    <g id="ytick_5">
     <g id="line2d_12">
      <g>
       <use style="stroke:#000000;stroke-width:0.8;" x="43.78125" xlink:href="#m4b807006bb" y="131.808443"/>
      </g>
     </g>
     <g id="text_13">
      <!-- 2.0 -->
      <g transform="translate(20.878125 135.607662)scale(0.1 -0.1)">
       <use xlink:href="#DejaVuSans-32"/>
       <use x="63.623047" xlink:href="#DejaVuSans-2e"/>
       <use x="95.410156" xlink:href="#DejaVuSans-30"/>
      </g>
     </g>
    </g>
    <g id="ytick_6">
     <g id="line2d_13">
      <g>
       <use style="stroke:#000000;stroke-width:0.8;" x="43.78125" xlink:href="#m4b807006bb" y="92.64713"/>
      </g>
     </g>
     <g id="text_14">
      <!-- 2.5 -->
      <g transform="translate(20.878125 96.446348)scale(0.1 -0.1)">
       <use xlink:href="#DejaVuSans-32"/>
       <use x="63.623047" xlink:href="#DejaVuSans-2e"/>
       <use x="95.410156" xlink:href="#DejaVuSans-35"/>
      </g>
     </g>
    </g>
    <g id="ytick_7">
     <g id="line2d_14">
      <g>
       <use style="stroke:#000000;stroke-width:0.8;" x="43.78125" xlink:href="#m4b807006bb" y="53.485816"/>
      </g>
     </g>
     <g id="text_15">
      <!-- 3.0 -->
      <defs>
       <path d="M 40.578125 39.3125 
Q 47.65625 37.796875 51.625 33 
Q 55.609375 28.21875 55.609375 21.1875 
Q 55.609375 10.40625 48.1875 4.484375 
Q 40.765625 -1.421875 27.09375 -1.421875 
Q 22.515625 -1.421875 17.65625 -0.515625 
Q 12.796875 0.390625 7.625 2.203125 
L 7.625 11.71875 
Q 11.71875 9.328125 16.59375 8.109375 
Q 21.484375 6.890625 26.8125 6.890625 
Q 36.078125 6.890625 40.9375 10.546875 
Q 45.796875 14.203125 45.796875 21.1875 
Q 45.796875 27.640625 41.28125 31.265625 
Q 36.765625 34.90625 28.71875 34.90625 
L 20.21875 34.90625 
L 20.21875 43.015625 
L 29.109375 43.015625 
Q 36.375 43.015625 40.234375 45.921875 
Q 44.09375 48.828125 44.09375 54.296875 
Q 44.09375 59.90625 40.109375 62.90625 
Q 36.140625 65.921875 28.71875 65.921875 
Q 24.65625 65.921875 20.015625 65.03125 
Q 15.375 64.15625 9.8125 62.3125 
L 9.8125 71.09375 
Q 15.4375 72.65625 20.34375 73.4375 
Q 25.25 74.21875 29.59375 74.21875 
Q 40.828125 74.21875 47.359375 69.109375 
Q 53.90625 64.015625 53.90625 55.328125 
Q 53.90625 49.265625 50.4375 45.09375 
Q 46.96875 40.921875 40.578125 39.3125 
z
" id="DejaVuSans-33"/>
      </defs>
      <g transform="translate(20.878125 57.285035)scale(0.1 -0.1)">
       <use xlink:href="#DejaVuSans-33"/>
       <use x="63.623047" xlink:href="#DejaVuSans-2e"/>
       <use x="95.410156" xlink:href="#DejaVuSans-30"/>
      </g>
     </g>
    </g>
    <g id="text_16">
     <!-- average maxQ -->
     <defs>
      <path d="M 34.28125 27.484375 
Q 23.390625 27.484375 19.1875 25 
Q 14.984375 22.515625 14.984375 16.5 
Q 14.984375 11.71875 18.140625 8.90625 
Q 21.296875 6.109375 26.703125 6.109375 
Q 34.1875 6.109375 38.703125 11.40625 
Q 43.21875 16.703125 43.21875 25.484375 
L 43.21875 27.484375 
z
M 52.203125 31.203125 
L 52.203125 0 
L 43.21875 0 
L 43.21875 8.296875 
Q 40.140625 3.328125 35.546875 0.953125 
Q 30.953125 -1.421875 24.3125 -1.421875 
Q 15.921875 -1.421875 10.953125 3.296875 
Q 6 8.015625 6 15.921875 
Q 6 25.140625 12.171875 29.828125 
Q 18.359375 34.515625 30.609375 34.515625 
L 43.21875 34.515625 
L 43.21875 35.40625 
Q 43.21875 41.609375 39.140625 45 
Q 35.0625 48.390625 27.6875 48.390625 
Q 23 48.390625 18.546875 47.265625 
Q 14.109375 46.140625 10.015625 43.890625 
L 10.015625 52.203125 
Q 14.9375 54.109375 19.578125 55.046875 
Q 24.21875 56 28.609375 56 
Q 40.484375 56 46.34375 49.84375 
Q 52.203125 43.703125 52.203125 31.203125 
z
" id="DejaVuSans-61"/>
      <path d="M 2.984375 54.6875 
L 12.5 54.6875 
L 29.59375 8.796875 
L 46.6875 54.6875 
L 56.203125 54.6875 
L 35.6875 0 
L 23.484375 0 
z
" id="DejaVuSans-76"/>
      <path d="M 41.109375 46.296875 
Q 39.59375 47.171875 37.8125 47.578125 
Q 36.03125 48 33.890625 48 
Q 26.265625 48 22.1875 43.046875 
Q 18.109375 38.09375 18.109375 28.8125 
L 18.109375 0 
L 9.078125 0 
L 9.078125 54.6875 
L 18.109375 54.6875 
L 18.109375 46.1875 
Q 20.953125 51.171875 25.484375 53.578125 
Q 30.03125 56 36.53125 56 
Q 37.453125 56 38.578125 55.875 
Q 39.703125 55.765625 41.0625 55.515625 
z
" id="DejaVuSans-72"/>
      <path d="M 45.40625 27.984375 
Q 45.40625 37.75 41.375 43.109375 
Q 37.359375 48.484375 30.078125 48.484375 
Q 22.859375 48.484375 18.828125 43.109375 
Q 14.796875 37.75 14.796875 27.984375 
Q 14.796875 18.265625 18.828125 12.890625 
Q 22.859375 7.515625 30.078125 7.515625 
Q 37.359375 7.515625 41.375 12.890625 
Q 45.40625 18.265625 45.40625 27.984375 
z
M 54.390625 6.78125 
Q 54.390625 -7.171875 48.1875 -13.984375 
Q 42 -20.796875 29.203125 -20.796875 
Q 24.46875 -20.796875 20.265625 -20.09375 
Q 16.0625 -19.390625 12.109375 -17.921875 
L 12.109375 -9.1875 
Q 16.0625 -11.328125 19.921875 -12.34375 
Q 23.78125 -13.375 27.78125 -13.375 
Q 36.625 -13.375 41.015625 -8.765625 
Q 45.40625 -4.15625 45.40625 5.171875 
L 45.40625 9.625 
Q 42.625 4.78125 38.28125 2.390625 
Q 33.9375 0 27.875 0 
Q 17.828125 0 11.671875 7.65625 
Q 5.515625 15.328125 5.515625 27.984375 
Q 5.515625 40.671875 11.671875 48.328125 
Q 17.828125 56 27.875 56 
Q 33.9375 56 38.28125 53.609375 
Q 42.625 51.21875 45.40625 46.390625 
L 45.40625 54.6875 
L 54.390625 54.6875 
z
" id="DejaVuSans-67"/>
      <path id="DejaVuSans-20"/>
      <path d="M 52 44.1875 
Q 55.375 50.25 60.0625 53.125 
Q 64.75 56 71.09375 56 
Q 79.640625 56 84.28125 50.015625 
Q 88.921875 44.046875 88.921875 33.015625 
L 88.921875 0 
L 79.890625 0 
L 79.890625 32.71875 
Q 79.890625 40.578125 77.09375 44.375 
Q 74.3125 48.1875 68.609375 48.1875 
Q 61.625 48.1875 57.5625 43.546875 
Q 53.515625 38.921875 53.515625 30.90625 
L 53.515625 0 
L 44.484375 0 
L 44.484375 32.71875 
Q 44.484375 40.625 41.703125 44.40625 
Q 38.921875 48.1875 33.109375 48.1875 
Q 26.21875 48.1875 22.15625 43.53125 
Q 18.109375 38.875 18.109375 30.90625 
L 18.109375 0 
L 9.078125 0 
L 9.078125 54.6875 
L 18.109375 54.6875 
L 18.109375 46.1875 
Q 21.1875 51.21875 25.484375 53.609375 
Q 29.78125 56 35.6875 56 
Q 41.65625 56 45.828125 52.96875 
Q 50 49.953125 52 44.1875 
z
" id="DejaVuSans-6d"/>
      <path d="M 54.890625 54.6875 
L 35.109375 28.078125 
L 55.90625 0 
L 45.3125 0 
L 29.390625 21.484375 
L 13.484375 0 
L 2.875 0 
L 24.125 28.609375 
L 4.6875 54.6875 
L 15.28125 54.6875 
L 29.78125 35.203125 
L 44.28125 54.6875 
z
" id="DejaVuSans-78"/>
      <path d="M 39.40625 66.21875 
Q 28.65625 66.21875 22.328125 58.203125 
Q 16.015625 50.203125 16.015625 36.375 
Q 16.015625 22.609375 22.328125 14.59375 
Q 28.65625 6.59375 39.40625 6.59375 
Q 50.140625 6.59375 56.421875 14.59375 
Q 62.703125 22.609375 62.703125 36.375 
Q 62.703125 50.203125 56.421875 58.203125 
Q 50.140625 66.21875 39.40625 66.21875 
z
M 53.21875 1.3125 
L 66.21875 -12.890625 
L 54.296875 -12.890625 
L 43.5 -1.21875 
Q 41.890625 -1.3125 41.03125 -1.359375 
Q 40.1875 -1.421875 39.40625 -1.421875 
Q 24.03125 -1.421875 14.8125 8.859375 
Q 5.609375 19.140625 5.609375 36.375 
Q 5.609375 53.65625 14.8125 63.9375 
Q 24.03125 74.21875 39.40625 74.21875 
Q 54.734375 74.21875 63.90625 63.9375 
Q 73.09375 53.65625 73.09375 36.375 
Q 73.09375 23.6875 67.984375 14.640625 
Q 62.890625 5.609375 53.21875 1.3125 
z
" id="DejaVuSans-51"/>
     </defs>
     <g transform="translate(14.798438 192.263187)rotate(-90)scale(0.1 -0.1)">
      <use xlink:href="#DejaVuSans-61"/>
      <use x="61.279297" xlink:href="#DejaVuSans-76"/>
      <use x="120.458984" xlink:href="#DejaVuSans-65"/>
      <use x="181.982422" xlink:href="#DejaVuSans-72"/>
      <use x="223.095703" xlink:href="#DejaVuSans-61"/>
      <use x="284.375" xlink:href="#DejaVuSans-67"/>
      <use x="347.851562" xlink:href="#DejaVuSans-65"/>
      <use x="409.375" xlink:href="#DejaVuSans-20"/>
      <use x="441.162109" xlink:href="#DejaVuSans-6d"/>
      <use x="538.574219" xlink:href="#DejaVuSans-61"/>
      <use x="599.853516" xlink:href="#DejaVuSans-78"/>
      <use x="659.033203" xlink:href="#DejaVuSans-51"/>
     </g>
    </g>
   </g>
   <g id="line2d_15">
    <path clip-path="url(#p15c1c34829)" d="M 60.013977 274.249286 
L 60.267614 275.244158 
L 60.52125 274.940218 
L 60.774886 275.265158 
L 61.028523 275.368672 
L 61.282159 275.686171 
L 61.535795 275.678639 
L 62.043068 275.209362 
L 62.296705 274.946988 
L 62.550341 274.184706 
L 62.803977 274.997131 
L 63.31125 274.533464 
L 63.564886 275.505056 
L 63.818523 273.903742 
L 64.072159 275.346098 
L 64.325795 275.289516 
L 64.579432 275.387374 
L 64.833068 275.228208 
L 65.086705 274.482143 
L 65.340341 274.301847 
L 65.593977 273.765641 
L 65.847614 275.166963 
L 66.10125 275.218234 
L 66.354886 274.433252 
L 66.608523 275.433895 
L 66.862159 275.567708 
L 67.115795 274.15537 
L 67.369432 275.763206 
L 67.623068 275.439705 
L 67.876705 275.427156 
L 68.130341 274.989163 
L 68.383977 275.29755 
L 68.637614 274.525553 
L 68.89125 274.717746 
L 69.398523 275.566517 
L 69.652159 275.472239 
L 69.905795 275.220407 
L 70.159432 274.343397 
L 70.413068 275.369882 
L 70.666705 274.066643 
L 70.920341 274.538118 
L 71.427614 276.037546 
L 71.68125 275.348623 
L 71.934886 275.331128 
L 72.442159 275.067011 
L 72.695795 275.498375 
L 72.949432 275.162593 
L 73.203068 275.975731 
L 73.456705 274.791986 
L 73.963977 275.881701 
L 74.217614 275.272189 
L 74.47125 275.559078 
L 74.724886 275.055108 
L 74.978523 274.891369 
L 75.232159 275.365464 
L 75.485795 275.2548 
L 75.739432 275.533006 
L 75.993068 275.416621 
L 76.246705 274.266152 
L 76.500341 274.46902 
L 76.753977 276.063846 
L 77.514886 274.227019 
L 77.768523 274.199549 
L 78.022159 275.25685 
L 78.275795 275.681225 
L 78.529432 274.884207 
L 78.783068 275.395309 
L 79.036705 274.479337 
L 79.290341 275.363289 
L 79.543977 274.160587 
L 79.797614 274.724388 
L 80.05125 275.696489 
L 80.304886 274.646063 
L 80.558523 274.398825 
L 80.812159 274.637128 
L 81.065795 275.242887 
L 81.319432 274.192211 
L 81.573068 276.334125 
L 81.826705 274.329074 
L 82.080341 274.781417 
L 82.333977 275.989105 
L 82.587614 275.064039 
L 82.84125 274.747694 
L 83.094886 275.04978 
L 83.348523 275.092289 
L 83.602159 275.440429 
L 83.855795 275.419435 
L 84.109432 275.608437 
L 84.363068 274.443443 
L 84.616705 274.273059 
L 84.870341 275.160732 
L 85.123977 274.565895 
L 85.377614 274.882553 
L 85.63125 274.934459 
L 85.884886 274.717784 
L 86.138523 274.992658 
L 86.392159 274.787082 
L 86.645795 274.877146 
L 86.899432 274.821974 
L 87.406705 274.532843 
L 87.913977 275.123721 
L 88.674886 275.205001 
L 88.928523 274.856995 
L 89.182159 275.587109 
L 89.435795 275.268161 
L 89.689432 275.232748 
L 89.943068 274.967921 
L 90.196705 274.226469 
L 90.703977 275.361364 
L 90.957614 275.043463 
L 91.21125 274.154222 
L 91.464886 275.476784 
L 91.718523 275.503063 
L 91.972159 274.803618 
L 92.225795 274.807225 
L 92.479432 275.727059 
L 92.733068 274.968894 
L 92.986705 272.780697 
L 93.240341 271.924576 
L 93.493977 269.341171 
L 93.747614 269.488465 
L 94.00125 270.03087 
L 94.254886 268.064308 
L 94.508523 267.445388 
L 94.762159 268.129378 
L 95.269432 266.303 
L 95.523068 262.718568 
L 95.776705 263.987976 
L 96.030341 257.659628 
L 96.283977 257.263964 
L 96.537614 262.581619 
L 96.79125 257.595595 
L 97.044886 254.939904 
L 97.298523 258.486344 
L 97.552159 260.353079 
L 97.805795 250.368412 
L 98.059432 257.133465 
L 98.566705 246.212698 
L 98.820341 247.718379 
L 99.073977 252.438654 
L 99.327614 245.768209 
L 99.58125 251.582078 
L 99.834886 242.072301 
L 100.088523 251.427821 
L 100.342159 245.294082 
L 100.595795 252.228588 
L 100.849432 240.167322 
L 101.103068 248.173991 
L 101.356705 237.580044 
L 101.610341 240.036209 
L 102.117614 233.264833 
L 102.37125 247.803404 
L 102.624886 237.30079 
L 102.878523 237.012899 
L 103.132159 239.647131 
L 103.385795 233.966178 
L 103.639432 237.114868 
L 103.893068 233.911677 
L 104.146705 223.394956 
L 104.400341 239.278559 
L 104.653977 232.093341 
L 104.907614 233.738043 
L 105.16125 240.620371 
L 105.414886 224.24213 
L 105.922159 220.337488 
L 106.175795 223.377946 
L 106.429432 237.548336 
L 106.936705 213.9916 
L 107.190341 228.479499 
L 107.443977 222.503955 
L 107.697614 225.589335 
L 107.95125 212.647568 
L 108.204886 221.007986 
L 108.458523 214.439894 
L 108.712159 225.406994 
L 108.965795 206.428287 
L 109.219432 214.137593 
L 109.473068 212.912075 
L 109.726705 206.780599 
L 109.980341 211.658608 
L 110.233977 208.134597 
L 110.487614 195.216186 
L 110.74125 211.78509 
L 110.994886 208.534173 
L 111.248523 217.976905 
L 111.502159 193.957958 
L 111.755795 195.448608 
L 112.263068 219.279569 
L 112.516705 206.645661 
L 112.770341 208.826758 
L 113.023977 189.680829 
L 113.277614 210.664851 
L 113.53125 193.456956 
L 113.784886 204.280638 
L 114.038523 193.386689 
L 114.292159 197.939933 
L 114.545795 210.58424 
L 114.799432 215.061714 
L 115.053068 203.598013 
L 115.306705 202.378406 
L 115.560341 198.64983 
L 115.813977 220.58873 
L 116.067614 198.782799 
L 116.32125 196.864282 
L 116.574886 184.458247 
L 116.828523 190.596379 
L 117.082159 200.123817 
L 117.335795 178.5257 
L 117.589432 194.321711 
L 117.843068 196.528159 
L 118.350341 228.049642 
L 118.603977 233.348294 
L 118.857614 177.349946 
L 119.11125 170.500961 
L 119.364886 183.875437 
L 119.618523 174.334493 
L 119.872159 176.255568 
L 120.379432 211.160553 
L 120.633068 188.197908 
L 120.886705 230.481606 
L 121.140341 186.302779 
L 121.393977 172.270196 
L 121.647614 176.244901 
L 121.90125 241.739108 
L 122.154886 178.50867 
L 122.408523 220.053375 
L 122.662159 155.710213 
L 123.169432 230.348952 
L 123.423068 177.096788 
L 123.676705 210.095971 
L 123.930341 199.012233 
L 124.437614 170.810559 
L 124.69125 216.085295 
L 124.944886 166.136279 
L 125.198523 169.415158 
L 125.452159 159.802926 
L 125.705795 167.749743 
L 126.213068 228.645282 
L 126.466705 158.835865 
L 126.720341 195.855961 
L 126.973977 151.66603 
L 127.227614 144.971279 
L 127.48125 161.321627 
L 127.734886 167.534955 
L 127.988523 146.35551 
L 128.242159 191.64819 
L 128.495795 155.496386 
L 128.749432 163.456525 
L 129.003068 159.765314 
L 129.256705 198.357172 
L 129.510341 156.301314 
L 129.763977 177.787931 
L 130.017614 185.263764 
L 130.27125 161.504677 
L 130.524886 161.631518 
L 130.778523 122.824223 
L 131.032159 161.668462 
L 131.285795 146.713635 
L 131.539432 140.309076 
L 131.793068 137.425292 
L 132.046705 190.306593 
L 132.300341 154.84757 
L 132.553977 158.6329 
L 132.807614 191.987055 
L 133.06125 152.223418 
L 133.314886 181.908038 
L 133.568523 128.685846 
L 134.075795 160.673468 
L 134.329432 214.448749 
L 134.583068 136.298932 
L 134.836705 152.28225 
L 135.090341 122.053235 
L 135.343977 174.462962 
L 135.597614 135.91149 
L 135.85125 187.946933 
L 136.104886 196.060728 
L 136.358523 169.942457 
L 136.612159 119.367091 
L 136.865795 225.62035 
L 137.119432 154.765876 
L 137.373068 119.123792 
L 137.626705 220.713775 
L 137.880341 124.832224 
L 138.133977 177.217221 
L 138.387614 117.548458 
L 138.64125 130.752433 
L 138.894886 132.488394 
L 139.148523 116.963381 
L 139.402159 123.240441 
L 139.909432 152.290237 
L 140.163068 108.596027 
L 140.416705 107.245836 
L 140.670341 167.90639 
L 140.923977 103.863917 
L 141.177614 101.891397 
L 141.43125 133.911608 
L 141.684886 142.132559 
L 141.938523 107.37278 
L 142.192159 138.993158 
L 142.445795 121.811007 
L 142.699432 164.06533 
L 143.206705 108.686266 
L 143.460341 125.057414 
L 143.713977 120.585565 
L 143.967614 93.924483 
L 144.22125 125.058815 
L 144.474886 101.886515 
L 144.728523 91.96276 
L 144.982159 103.439364 
L 145.489432 111.686564 
L 145.743068 103.564373 
L 145.996705 110.366629 
L 146.250341 103.277465 
L 146.503977 118.130391 
L 146.757614 89.379663 
L 147.01125 98.266702 
L 147.264886 100.211996 
L 147.518523 163.853276 
L 147.772159 122.616985 
L 148.025795 140.174207 
L 148.279432 109.753393 
L 148.533068 95.870417 
L 148.786705 164.033021 
L 149.040341 102.126085 
L 149.547614 122.718879 
L 149.80125 118.419642 
L 150.054886 85.818476 
L 150.308523 120.410348 
L 150.562159 110.777515 
L 150.815795 88.909927 
L 151.069432 131.765387 
L 151.323068 107.110055 
L 151.576705 120.12167 
L 151.830341 114.182236 
L 152.083977 84.364267 
L 152.337614 92.453552 
L 152.59125 124.832433 
L 152.844886 109.555695 
L 153.098523 80.711955 
L 153.352159 137.442809 
L 153.605795 86.77037 
L 153.859432 119.696732 
L 154.113068 86.266032 
L 154.620341 109.993178 
L 154.873977 144.156877 
L 155.127614 133.617662 
L 155.38125 101.868127 
L 155.634886 86.287576 
L 155.888523 98.835858 
L 156.142159 102.228366 
L 156.395795 115.389348 
L 156.649432 108.796998 
L 156.903068 116.892593 
L 157.156705 99.165935 
L 157.410341 91.279418 
L 157.663977 97.696009 
L 157.917614 123.342101 
L 158.17125 106.177507 
L 158.424886 109.156036 
L 158.678523 118.116454 
L 158.932159 109.445987 
L 159.185795 180.27074 
L 159.439432 93.483423 
L 159.693068 133.875409 
L 159.946705 103.352101 
L 160.200341 102.681142 
L 160.453977 86.963122 
L 160.707614 93.468245 
L 160.96125 104.984417 
L 161.214886 73.428689 
L 161.722159 98.000613 
L 161.975795 118.470368 
L 162.229432 97.365039 
L 162.483068 121.026675 
L 162.736705 180.000852 
L 162.990341 92.808027 
L 163.497614 120.616007 
L 163.75125 82.348848 
L 164.004886 81.853736 
L 164.258523 82.866538 
L 164.512159 129.144417 
L 164.765795 95.54593 
L 165.273068 86.42841 
L 165.526705 77.365762 
L 165.780341 104.407263 
L 166.033977 95.328821 
L 166.287614 72.537178 
L 166.54125 101.017573 
L 166.794886 82.94422 
L 167.048523 147.999521 
L 167.302159 87.126839 
L 167.555795 70.088319 
L 167.809432 85.897999 
L 168.063068 73.788044 
L 168.316705 96.700797 
L 168.570341 93.153143 
L 168.823977 70.77472 
L 169.077614 75.815931 
L 169.33125 114.51837 
L 169.584886 65.972322 
L 169.838523 119.921798 
L 170.092159 76.427163 
L 170.345795 108.101332 
L 170.599432 89.109875 
L 170.853068 82.463541 
L 171.106705 86.111579 
L 171.360341 93.496036 
L 171.613977 85.524546 
L 171.867614 89.132223 
L 172.12125 67.285526 
L 172.374886 70.61803 
L 172.882159 109.014135 
L 173.135795 83.465584 
L 173.389432 112.781554 
L 173.643068 90.849651 
L 173.896705 108.689361 
L 174.403977 71.210706 
L 174.657614 96.461644 
L 174.91125 87.366163 
L 175.164886 115.17918 
L 175.418523 89.802834 
L 175.672159 77.924399 
L 175.925795 100.908867 
L 176.179432 71.140014 
L 176.433068 84.781739 
L 176.686705 73.996614 
L 176.940341 95.486522 
L 177.193977 82.550279 
L 177.447614 95.057083 
L 177.70125 97.275995 
L 177.954886 93.853072 
L 178.208523 101.142825 
L 178.462159 69.563595 
L 178.715795 60.439287 
L 178.969432 72.125789 
L 179.223068 116.216591 
L 179.476705 89.960407 
L 179.730341 112.282425 
L 179.983977 71.659262 
L 180.237614 73.801438 
L 180.49125 82.081679 
L 180.744886 80.565747 
L 180.998523 215.460836 
L 181.252159 66.401784 
L 181.505795 65.115862 
L 181.759432 101.330244 
L 182.013068 80.280159 
L 182.266705 97.145753 
L 182.520341 170.451423 
L 182.773977 83.263352 
L 183.027614 78.305617 
L 183.534886 105.33825 
L 184.042159 68.393692 
L 184.295795 82.562401 
L 184.549432 88.804121 
L 184.803068 82.867785 
L 185.056705 68.373028 
L 185.310341 95.826834 
L 185.817614 69.983221 
L 186.07125 78.490504 
L 186.324886 80.485875 
L 186.578523 92.622403 
L 186.832159 61.992966 
L 187.085795 90.690382 
L 187.339432 67.664531 
L 187.593068 97.953698 
L 187.846705 66.108129 
L 188.100341 62.475005 
L 188.353977 81.312886 
L 188.607614 70.87199 
L 188.86125 89.281058 
L 189.114886 76.045414 
L 189.368523 104.466268 
L 189.622159 83.987544 
L 189.875795 84.420792 
L 190.129432 92.250611 
L 190.636705 72.082643 
L 190.890341 71.97335 
L 191.143977 76.784995 
L 191.65125 68.672726 
L 191.904886 72.684936 
L 192.158523 101.909552 
L 192.412159 73.709979 
L 192.665795 88.927198 
L 193.173068 62.022014 
L 193.426705 102.938812 
L 193.680341 65.742244 
L 194.187614 60.643272 
L 194.694886 85.878987 
L 194.948523 71.719195 
L 195.202159 123.649205 
L 195.455795 54.995681 
L 195.963068 67.825717 
L 196.216705 60.820637 
L 196.470341 84.781449 
L 196.723977 58.445128 
L 196.977614 63.50365 
L 197.23125 52.988287 
L 197.484886 82.740451 
L 197.738523 58.127377 
L 197.992159 54.944384 
L 198.245795 67.62906 
L 198.499432 50.132866 
L 198.753068 84.525563 
L 199.006705 95.425525 
L 199.260341 77.319932 
L 199.513977 73.553653 
L 199.767614 67.836782 
L 200.02125 84.600118 
L 200.274886 64.847679 
L 200.528523 77.856224 
L 201.035795 56.809496 
L 201.289432 81.57999 
L 201.543068 65.987676 
L 201.796705 63.714871 
L 202.050341 58.928415 
L 202.303977 81.525789 
L 202.557614 73.699666 
L 202.81125 70.060364 
L 203.064886 144.952309 
L 203.318523 51.447383 
L 203.825795 97.20012 
L 204.079432 59.567739 
L 204.586705 48.758215 
L 205.347614 90.901856 
L 205.60125 60.556763 
L 205.854886 56.95199 
L 206.108523 60.867448 
L 206.362159 58.752155 
L 206.615795 99.453609 
L 206.869432 53.885485 
L 207.123068 60.161877 
L 207.376705 88.401635 
L 207.630341 58.222361 
L 207.883977 91.33167 
L 208.137614 66.936019 
L 208.39125 61.588048 
L 208.644886 74.177173 
L 208.898523 74.299646 
L 209.152159 65.706358 
L 209.405795 50.610271 
L 209.659432 47.478861 
L 209.913068 121.373564 
L 210.420341 61.03011 
L 210.673977 70.97214 
L 210.927614 58.930133 
L 211.18125 68.935769 
L 211.434886 84.307179 
L 211.688523 57.97452 
L 211.942159 89.119757 
L 212.195795 73.908793 
L 212.449432 67.261855 
L 212.703068 70.104243 
L 213.210341 51.876832 
L 213.463977 107.614758 
L 213.717614 68.778446 
L 213.97125 59.185514 
L 214.478523 56.182573 
L 214.732159 84.855642 
L 214.985795 55.632324 
L 215.239432 128.632361 
L 215.493068 68.612196 
L 215.746705 91.831546 
L 216.000341 61.947686 
L 216.253977 69.712934 
L 216.76125 54.429486 
L 217.014886 70.930278 
L 217.268523 70.155418 
L 217.522159 60.113983 
L 217.775795 59.31679 
L 218.029432 55.262661 
L 218.283068 62.798933 
L 218.536705 60.871025 
L 218.790341 75.197508 
L 219.043977 50.583956 
L 219.297614 55.57168 
L 219.55125 48.558273 
L 220.058523 94.836355 
L 220.312159 59.553553 
L 220.565795 69.370739 
L 220.819432 58.18859 
L 221.073068 73.877049 
L 221.326705 50.610352 
L 221.580341 57.22028 
L 221.833977 70.997217 
L 222.087614 58.2508 
L 222.34125 66.121681 
L 222.594886 62.601192 
L 222.848523 82.813767 
L 223.355795 67.305664 
L 223.609432 50.588258 
L 223.863068 56.45688 
L 224.116705 65.640704 
L 224.370341 56.656456 
L 224.623977 74.196234 
L 224.877614 66.534016 
L 225.13125 84.051846 
L 225.384886 45.967785 
L 225.892159 88.640114 
L 226.145795 89.827852 
L 226.906705 53.195707 
L 227.160341 63.615015 
L 227.413977 51.231279 
L 227.667614 70.587331 
L 227.92125 69.885567 
L 228.174886 57.0537 
L 228.428523 73.661754 
L 228.682159 80.318068 
L 228.935795 62.500084 
L 229.189432 69.616852 
L 229.443068 60.070975 
L 229.696705 84.401939 
L 229.950341 63.63789 
L 230.203977 54.493087 
L 230.457614 64.199866 
L 230.71125 68.477158 
L 230.964886 79.779202 
L 231.218523 50.785053 
L 231.725795 62.317835 
L 231.979432 59.787617 
L 232.233068 67.570433 
L 232.486705 56.493093 
L 232.740341 85.144249 
L 233.247614 51.916515 
L 233.50125 64.676765 
L 233.754886 58.953426 
L 234.008523 58.696495 
L 234.262159 57.447242 
L 234.515795 77.199516 
L 234.769432 55.376034 
L 235.023068 61.900856 
L 235.276705 52.509438 
L 235.530341 61.951772 
L 235.783977 51.858358 
L 236.037614 57.730806 
L 236.29125 56.918367 
L 236.544886 77.232045 
L 236.798523 77.09614 
L 237.052159 59.645928 
L 237.305795 65.749357 
L 237.559432 58.458949 
L 237.813068 72.16691 
L 238.066705 55.662162 
L 238.827614 69.077798 
L 239.08125 52.310367 
L 239.334886 63.618753 
L 239.588523 52.155534 
L 239.842159 93.341642 
L 240.095795 57.086285 
L 240.349432 59.709542 
L 240.603068 74.230921 
L 240.856705 49.43223 
L 241.110341 60.11861 
L 241.363977 87.989858 
L 241.617614 58.284163 
L 241.87125 59.658671 
L 242.124886 74.390761 
L 242.632159 67.065686 
L 242.885795 62.443341 
L 243.139432 55.34089 
L 243.393068 72.239637 
L 243.646705 54.868014 
L 243.900341 85.1814 
L 244.407614 67.876358 
L 244.66125 65.099016 
L 244.914886 76.813889 
L 245.168523 57.995651 
L 245.422159 68.89229 
L 245.675795 53.733733 
L 245.929432 75.795245 
L 246.183068 78.058475 
L 246.436705 113.692434 
L 246.690341 59.87773 
L 246.943977 74.549004 
L 247.197614 72.349939 
L 247.45125 61.945291 
L 247.704886 59.246863 
L 247.958523 60.252641 
L 248.212159 63.743699 
L 248.465795 92.074775 
L 248.719432 50.590131 
L 248.973068 51.431036 
L 249.226705 81.21094 
L 249.480341 62.216128 
L 249.733977 67.941913 
L 249.987614 69.07531 
L 250.24125 56.158771 
L 250.494886 50.344962 
L 250.748523 60.77768 
L 251.002159 55.079005 
L 251.255795 58.648652 
L 251.509432 58.280159 
L 252.016705 53.918165 
L 252.270341 49.569343 
L 252.523977 54.878804 
L 253.284886 56.603191 
L 253.538523 69.995796 
L 253.792159 97.816444 
L 254.045795 67.048 
L 254.299432 73.824104 
L 254.553068 53.605 
L 254.806705 46.328375 
L 255.060341 49.981716 
L 255.313977 131.210337 
L 255.567614 91.58728 
L 255.82125 120.34461 
L 256.074886 55.823478 
L 256.328523 54.932326 
L 256.582159 52.547809 
L 256.835795 51.938262 
L 257.089432 89.36727 
L 257.343068 63.916066 
L 257.596705 59.891391 
L 257.850341 62.537097 
L 258.103977 53.336106 
L 258.357614 52.037042 
L 258.61125 73.390582 
L 258.864886 74.123777 
L 259.118523 50.187514 
L 259.372159 63.151694 
L 259.625795 57.671888 
L 259.879432 47.36222 
L 260.133068 66.428676 
L 260.386705 49.357662 
L 260.640341 50.566611 
L 260.893977 60.859671 
L 261.147614 49.040336 
L 261.40125 50.069848 
L 261.654886 47.146909 
L 262.162159 74.625946 
L 262.415795 60.156821 
L 262.669432 54.882809 
L 262.923068 69.156104 
L 263.176705 56.383652 
L 263.430341 78.744537 
L 263.683977 63.60912 
L 263.937614 83.514211 
L 264.19125 56.4991 
L 264.444886 60.010377 
L 264.698523 50.834046 
L 264.952159 48.261057 
L 265.205795 55.386818 
L 265.459432 57.797472 
L 265.713068 49.930189 
L 266.220341 62.303186 
L 266.727614 50.177393 
L 267.234886 60.269711 
L 267.488523 52.713675 
L 267.995795 77.79937 
L 268.249432 59.52173 
L 268.503068 50.487146 
L 268.756705 51.26307 
L 269.010341 54.262012 
L 269.263977 50.098405 
L 269.517614 50.595179 
L 269.77125 67.641682 
L 270.024886 51.555443 
L 270.278523 66.183764 
L 270.532159 47.362817 
L 270.785795 50.154241 
L 271.039432 80.365943 
L 271.293068 57.156386 
L 271.546705 55.718711 
L 271.800341 55.337894 
L 272.053977 64.79731 
L 272.307614 49.502631 
L 272.56125 53.194728 
L 272.814886 65.736366 
L 273.068523 44.31481 
L 273.322159 102.433679 
L 273.829432 50.036206 
L 274.083068 56.493783 
L 274.336705 59.461932 
L 274.590341 60.489878 
L 274.843977 52.607563 
L 275.097614 56.799294 
L 275.35125 46.00581 
L 275.604886 63.590012 
L 275.858523 51.121182 
L 276.112159 57.815074 
L 276.365795 73.491689 
L 276.619432 143.3337 
L 277.126705 52.61009 
L 277.380341 46.133222 
L 277.887614 59.772832 
L 278.14125 54.689106 
L 278.394886 61.07663 
L 278.648523 50.51269 
L 278.902159 49.862725 
L 279.155795 56.422723 
L 279.409432 51.87533 
L 279.663068 56.332764 
L 279.916705 57.960822 
L 280.170341 61.927428 
L 280.423977 53.783743 
L 280.677614 49.261226 
L 280.93125 54.917752 
L 281.184886 64.349756 
L 281.692159 50.824059 
L 281.945795 50.446538 
L 282.199432 70.003541 
L 282.453068 49.523719 
L 282.706705 55.781615 
L 282.960341 52.386888 
L 283.213977 54.550908 
L 283.467614 47.013701 
L 283.72125 51.186408 
L 283.974886 75.437044 
L 284.228523 55.84623 
L 284.482159 89.505793 
L 284.735795 50.894244 
L 284.989432 51.844113 
L 285.243068 51.990547 
L 285.496705 55.235985 
L 285.750341 48.746802 
L 286.003977 55.521081 
L 286.257614 48.419099 
L 286.51125 58.202685 
L 287.018523 65.926937 
L 287.272159 175.47014 
L 287.525795 61.326457 
L 287.779432 50.260368 
L 288.033068 47.792963 
L 288.286705 65.054226 
L 288.540341 50.939676 
L 288.793977 100.169652 
L 289.047614 55.729939 
L 289.30125 65.955561 
L 289.554886 63.688445 
L 290.062159 46.527987 
L 290.569432 60.896026 
L 290.823068 53.945224 
L 291.076705 57.505125 
L 291.330341 49.268313 
L 291.583977 54.331082 
L 291.837614 49.009053 
L 292.09125 63.850132 
L 292.344886 170.055327 
L 292.598523 66.349791 
L 292.852159 47.615851 
L 293.105795 52.659986 
L 293.359432 85.506128 
L 293.613068 51.729946 
L 293.866705 48.832265 
L 294.120341 47.830901 
L 294.373977 57.78662 
L 294.627614 48.99404 
L 294.88125 62.577644 
L 295.134886 52.617909 
L 295.388523 135.39961 
L 295.642159 51.430575 
L 295.895795 66.585358 
L 296.149432 50.412783 
L 296.403068 187.550068 
L 296.656705 51.243277 
L 296.910341 46.552977 
L 297.163977 62.608778 
L 297.417614 61.134011 
L 297.67125 50.175186 
L 297.924886 51.812315 
L 298.178523 139.716525 
L 298.432159 50.084507 
L 298.685795 75.992754 
L 298.939432 65.833711 
L 299.193068 45.438572 
L 299.446705 47.256499 
L 299.700341 73.004967 
L 299.953977 53.125018 
L 300.46125 43.340064 
L 300.714886 193.279789 
L 300.968523 44.605291 
L 301.475795 54.361847 
L 301.729432 50.945407 
L 301.983068 53.826736 
L 302.236705 64.041011 
L 302.743977 43.856945 
L 302.997614 55.921901 
L 303.25125 49.472267 
L 303.504886 51.397853 
L 303.758523 55.48272 
L 304.012159 67.920034 
L 304.265795 176.868492 
L 304.773068 48.240098 
L 305.280341 69.513237 
L 305.533977 54.905065 
L 305.787614 56.658964 
L 306.04125 62.339083 
L 306.294886 40.259824 
L 306.802159 54.159195 
L 307.055795 51.93267 
L 307.309432 175.647017 
L 307.563068 46.71164 
L 307.816705 64.756703 
L 308.070341 44.56826 
L 308.323977 45.389434 
L 308.577614 63.50616 
L 308.83125 62.939459 
L 309.084886 65.953889 
L 309.338523 60.593608 
L 309.845795 43.518632 
L 310.099432 47.267449 
L 310.353068 54.986261 
L 310.606705 45.09814 
L 310.860341 50.209361 
L 311.113977 49.433783 
L 311.367614 59.095678 
L 311.62125 55.333224 
L 311.874886 49.623374 
L 312.128523 74.077569 
L 312.382159 56.165305 
L 312.635795 57.113159 
L 312.889432 43.183541 
L 313.143068 53.228645 
L 313.396705 51.52695 
L 313.903977 46.129725 
L 314.157614 52.401882 
L 314.41125 133.210378 
L 314.664886 53.12923 
L 314.918523 52.359408 
L 315.172159 53.974445 
L 315.425795 70.775085 
L 315.679432 47.306492 
L 315.933068 59.747031 
L 316.186705 50.137341 
L 316.440341 44.979355 
L 316.693977 49.146052 
L 316.947614 63.179259 
L 317.20125 53.323743 
L 317.454886 61.784849 
L 317.708523 47.56331 
L 317.962159 52.822325 
L 318.215795 38.62719 
L 318.469432 54.009839 
L 318.976705 47.447861 
L 319.230341 48.062742 
L 319.483977 52.841943 
L 319.737614 40.011764 
L 319.99125 46.62584 
L 320.244886 45.446542 
L 320.498523 53.290916 
L 320.752159 88.175728 
L 321.005795 50.755775 
L 321.259432 51.751944 
L 321.513068 50.495455 
L 322.020341 44.687191 
L 322.273977 45.400893 
L 322.527614 49.397798 
L 322.78125 41.562556 
L 323.034886 42.212598 
L 323.288523 74.324229 
L 323.542159 52.331336 
L 324.049432 61.955225 
L 324.303068 44.482117 
L 324.556705 57.246694 
L 324.810341 43.352934 
L 325.063977 41.418228 
L 325.317614 35.931028 
L 325.57125 58.072808 
L 325.824886 54.3078 
L 326.332159 40.316778 
L 326.585795 47.100782 
L 326.839432 41.301379 
L 327.093068 156.650529 
L 327.346705 59.954998 
L 327.600341 42.504191 
L 327.853977 61.738777 
L 328.107614 178.422374 
L 328.614886 48.95713 
L 328.868523 150.308125 
L 329.122159 51.211947 
L 329.375795 49.012746 
L 329.629432 60.384623 
L 330.136705 41.842318 
L 330.390341 39.886003 
L 330.643977 44.135405 
L 330.897614 35.250209 
L 331.15125 47.402237 
L 331.404886 44.718372 
L 331.658523 38.827376 
L 331.912159 42.545043 
L 332.165795 128.694226 
L 332.419432 63.557481 
L 332.926705 42.760128 
L 333.180341 70.088632 
L 333.433977 44.587991 
L 333.687614 38.006985 
L 333.94125 64.68082 
L 334.194886 46.202891 
L 334.448523 45.598307 
L 334.702159 47.079994 
L 334.955795 77.144597 
L 335.209432 37.069333 
L 335.716705 61.593732 
L 335.970341 43.835062 
L 336.223977 54.092398 
L 336.73125 51.566518 
L 336.984886 44.656205 
L 337.238523 49.774086 
L 337.492159 51.116596 
L 337.745795 84.896172 
L 337.999432 55.034327 
L 338.253068 63.174707 
L 338.506705 63.722772 
L 338.760341 50.066112 
L 339.013977 45.80371 
L 339.267614 47.342555 
L 339.52125 58.371144 
L 339.774886 55.473693 
L 340.028523 37.619817 
L 340.282159 50.291929 
L 340.535795 40.781561 
L 340.789432 112.413401 
L 341.043068 39.936093 
L 341.296705 38.747925 
L 341.550341 45.337843 
L 341.803977 45.144838 
L 342.057614 41.429878 
L 342.31125 109.987205 
L 342.564886 57.556482 
L 342.818523 45.248892 
L 343.072159 41.696348 
L 343.325795 43.80648 
L 343.579432 44.269533 
L 343.833068 39.64126 
L 344.086705 74.494904 
L 344.340341 42.421046 
L 344.593977 40.458904 
L 344.847614 45.551833 
L 345.10125 39.864441 
L 345.354886 56.779124 
L 345.608523 35.300395 
L 345.862159 41.224956 
L 346.115795 105.862918 
L 346.369432 42.38218 
L 346.623068 55.734319 
L 346.876705 43.782349 
L 347.130341 47.675331 
L 347.383977 48.454665 
L 347.637614 36.980775 
L 347.89125 40.237976 
L 348.144886 39.910985 
L 348.398523 78.75245 
L 348.652159 53.528923 
L 348.905795 44.66927 
L 349.159432 69.439103 
L 349.413068 43.218039 
L 349.666705 43.592795 
L 349.920341 41.592326 
L 350.173977 49.495601 
L 350.427614 45.4991 
L 350.68125 37.290646 
L 350.934886 47.239682 
L 351.188523 49.280579 
L 351.442159 42.88089 
L 351.949432 62.209641 
L 352.203068 36.765043 
L 352.456705 49.518739 
L 352.963977 44.894475 
L 353.217614 47.389743 
L 353.47125 42.362408 
L 353.724886 40.248148 
L 353.978523 113.186564 
L 354.232159 45.429514 
L 354.739432 54.408611 
L 355.246705 50.801681 
L 355.500341 42.085001 
L 355.753977 40.972215 
L 356.007614 42.657154 
L 356.26125 69.788334 
L 356.514886 39.321347 
L 356.768523 63.034895 
L 357.022159 39.295573 
L 357.275795 43.175451 
L 357.529432 58.2116 
L 357.783068 39.223317 
L 358.036705 37.603736 
L 358.290341 45.533915 
L 358.543977 49.087309 
L 358.797614 141.072217 
L 359.05125 47.066221 
L 359.304886 40.703586 
L 359.558523 87.161291 
L 359.812159 112.869947 
L 360.065795 35.642359 
L 360.319432 49.986829 
L 360.573068 50.76505 
L 360.826705 40.170698 
L 361.080341 48.051791 
L 361.333977 37.845191 
L 361.587614 52.874563 
L 361.84125 39.28148 
L 362.094886 36.934189 
L 362.348523 47.576807 
L 362.602159 47.91225 
L 362.855795 47.779424 
L 363.109432 54.991717 
L 363.363068 51.421341 
L 363.870341 40.78665 
L 364.123977 43.012355 
L 364.377614 48.98153 
L 364.63125 48.70803 
L 364.884886 42.868799 
L 365.138523 49.625579 
L 365.392159 38.337976 
L 365.645795 59.025987 
L 365.899432 46.882177 
L 366.153068 45.630515 
L 366.406705 36.432928 
L 366.660341 39.162335 
L 366.913977 52.503891 
L 367.42125 50.145838 
L 367.674886 45.730497 
L 367.928523 51.626913 
L 368.182159 52.730125 
L 368.435795 41.146598 
L 368.689432 52.628612 
L 368.943068 39.131755 
L 369.196705 52.47136 
L 369.450341 49.978169 
L 369.703977 44.084371 
L 369.957614 49.283108 
L 370.21125 45.356123 
L 370.464886 45.925748 
L 370.718523 178.237822 
L 370.972159 48.188725 
L 371.225795 50.430325 
L 371.479432 50.16919 
L 371.733068 41.095019 
L 371.986705 58.172306 
L 372.240341 37.144916 
L 372.493977 41.208559 
L 372.747614 59.103281 
L 373.254886 37.533761 
L 373.508523 38.385507 
L 373.762159 37.22852 
L 374.015795 37.469936 
L 374.269432 41.958245 
L 374.523068 55.957052 
L 374.776705 46.56215 
L 375.030341 62.057726 
L 375.283977 40.878398 
L 375.537614 50.917787 
L 375.79125 50.692572 
L 376.044886 35.924369 
L 376.298523 46.21741 
L 376.552159 44.913405 
L 376.805795 45.691535 
L 377.059432 43.544814 
L 377.313068 136.980197 
L 377.566705 38.526489 
L 377.820341 42.114598 
L 378.073977 40.076477 
L 378.327614 51.838963 
L 378.58125 38.320051 
L 378.834886 77.522881 
L 379.088523 43.620945 
L 379.342159 53.665515 
L 379.595795 35.509972 
L 379.849432 36.889594 
L 380.103068 41.828274 
L 380.356705 50.555766 
L 380.863977 34.414125 
L 381.37125 46.118485 
L 381.624886 42.51368 
L 381.878523 41.513872 
L 382.385795 51.09995 
L 382.639432 51.779016 
L 382.893068 38.426522 
L 383.146705 49.8123 
L 383.400341 106.877622 
L 383.653977 39.229168 
L 383.907614 44.497047 
L 384.414886 60.141703 
L 384.668523 45.054375 
L 384.668523 45.054375 
" style="fill:none;stroke:#1f77b4;stroke-linecap:square;stroke-width:0.5;"/>
   </g>
   <g id="patch_3">
    <path d="M 43.78125 288.430125 
L 43.78125 22.318125 
" style="fill:none;stroke:#000000;stroke-linecap:square;stroke-linejoin:miter;stroke-width:0.8;"/>
   </g>
   <g id="patch_4">
    <path d="M 400.90125 288.430125 
L 400.90125 22.318125 
" style="fill:none;stroke:#000000;stroke-linecap:square;stroke-linejoin:miter;stroke-width:0.8;"/>
   </g>
   <g id="patch_5">
    <path d="M 43.78125 288.430125 
L 400.90125 288.430125 
" style="fill:none;stroke:#000000;stroke-linecap:square;stroke-linejoin:miter;stroke-width:0.8;"/>
   </g>
   <g id="patch_6">
    <path d="M 43.78125 22.318125 
L 400.90125 22.318125 
" style="fill:none;stroke:#000000;stroke-linecap:square;stroke-linejoin:miter;stroke-width:0.8;"/>
   </g>
   <g id="text_17">
    <!-- Average maxQ per episode, joint3 -->
    <defs>
     <path d="M 34.1875 63.1875 
L 20.796875 26.90625 
L 47.609375 26.90625 
z
M 28.609375 72.90625 
L 39.796875 72.90625 
L 67.578125 0 
L 57.328125 0 
L 50.6875 18.703125 
L 17.828125 18.703125 
L 11.1875 0 
L 0.78125 0 
z
" id="DejaVuSans-41"/>
     <path d="M 11.71875 12.40625 
L 22.015625 12.40625 
L 22.015625 4 
L 14.015625 -11.625 
L 7.71875 -11.625 
L 11.71875 4 
z
" id="DejaVuSans-2c"/>
     <path d="M 9.421875 54.6875 
L 18.40625 54.6875 
L 18.40625 -0.984375 
Q 18.40625 -11.421875 14.421875 -16.109375 
Q 10.453125 -20.796875 1.609375 -20.796875 
L -1.8125 -20.796875 
L -1.8125 -13.1875 
L 0.59375 -13.1875 
Q 5.71875 -13.1875 7.5625 -10.8125 
Q 9.421875 -8.453125 9.421875 -0.984375 
z
M 9.421875 75.984375 
L 18.40625 75.984375 
L 18.40625 64.59375 
L 9.421875 64.59375 
z
" id="DejaVuSans-6a"/>
     <path d="M 54.890625 33.015625 
L 54.890625 0 
L 45.90625 0 
L 45.90625 32.71875 
Q 45.90625 40.484375 42.875 44.328125 
Q 39.84375 48.1875 33.796875 48.1875 
Q 26.515625 48.1875 22.3125 43.546875 
Q 18.109375 38.921875 18.109375 30.90625 
L 18.109375 0 
L 9.078125 0 
L 9.078125 54.6875 
L 18.109375 54.6875 
L 18.109375 46.1875 
Q 21.34375 51.125 25.703125 53.5625 
Q 30.078125 56 35.796875 56 
Q 45.21875 56 50.046875 50.171875 
Q 54.890625 44.34375 54.890625 33.015625 
z
" id="DejaVuSans-6e"/>
     <path d="M 18.3125 70.21875 
L 18.3125 54.6875 
L 36.8125 54.6875 
L 36.8125 47.703125 
L 18.3125 47.703125 
L 18.3125 18.015625 
Q 18.3125 11.328125 20.140625 9.421875 
Q 21.96875 7.515625 27.59375 7.515625 
L 36.8125 7.515625 
L 36.8125 0 
L 27.59375 0 
Q 17.1875 0 13.234375 3.875 
Q 9.28125 7.765625 9.28125 18.015625 
L 9.28125 47.703125 
L 2.6875 47.703125 
L 2.6875 54.6875 
L 9.28125 54.6875 
L 9.28125 70.21875 
z
" id="DejaVuSans-74"/>
    </defs>
    <g transform="translate(119.61375 16.318125)scale(0.12 -0.12)">
     <use xlink:href="#DejaVuSans-41"/>
     <use x="68.330078" xlink:href="#DejaVuSans-76"/>
     <use x="127.509766" xlink:href="#DejaVuSans-65"/>
     <use x="189.033203" xlink:href="#DejaVuSans-72"/>
     <use x="230.146484" xlink:href="#DejaVuSans-61"/>
     <use x="291.425781" xlink:href="#DejaVuSans-67"/>
     <use x="354.902344" xlink:href="#DejaVuSans-65"/>
     <use x="416.425781" xlink:href="#DejaVuSans-20"/>
     <use x="448.212891" xlink:href="#DejaVuSans-6d"/>
     <use x="545.625" xlink:href="#DejaVuSans-61"/>
     <use x="606.904297" xlink:href="#DejaVuSans-78"/>
     <use x="666.083984" xlink:href="#DejaVuSans-51"/>
     <use x="744.794922" xlink:href="#DejaVuSans-20"/>
     <use x="776.582031" xlink:href="#DejaVuSans-70"/>
     <use x="840.058594" xlink:href="#DejaVuSans-65"/>
     <use x="901.582031" xlink:href="#DejaVuSans-72"/>
     <use x="942.695312" xlink:href="#DejaVuSans-20"/>
     <use x="974.482422" xlink:href="#DejaVuSans-65"/>
     <use x="1036.005859" xlink:href="#DejaVuSans-70"/>
     <use x="1099.482422" xlink:href="#DejaVuSans-69"/>
     <use x="1127.265625" xlink:href="#DejaVuSans-73"/>
     <use x="1179.365234" xlink:href="#DejaVuSans-6f"/>
     <use x="1240.546875" xlink:href="#DejaVuSans-64"/>
     <use x="1304.023438" xlink:href="#DejaVuSans-65"/>
     <use x="1365.546875" xlink:href="#DejaVuSans-2c"/>
     <use x="1397.333984" xlink:href="#DejaVuSans-20"/>
     <use x="1429.121094" xlink:href="#DejaVuSans-6a"/>
     <use x="1456.904297" xlink:href="#DejaVuSans-6f"/>
     <use x="1518.085938" xlink:href="#DejaVuSans-69"/>
     <use x="1545.869141" xlink:href="#DejaVuSans-6e"/>
     <use x="1609.248047" xlink:href="#DejaVuSans-74"/>
     <use x="1648.457031" xlink:href="#DejaVuSans-33"/>
    </g>
   </g>
  </g>
 </g>
 <defs>
  <clipPath id="p15c1c34829">
   <rect height="266.112" width="357.12" x="43.78125" y="22.318125"/>
  </clipPath>
 </defs>
</svg>
