<?xml version="1.0" encoding="utf-8" standalone="no"?>
<!DOCTYPE svg PUBLIC "-//W3C//DTD SVG 1.1//EN"
  "http://www.w3.org/Graphics/SVG/1.1/DTD/svg11.dtd">
<!-- Created with matplotlib (http://matplotlib.org/) -->
<svg height="408pt" version="1.1" viewBox="0 0 523 408" width="523pt" xmlns="http://www.w3.org/2000/svg" xmlns:xlink="http://www.w3.org/1999/xlink">
 <defs>
  <style type="text/css">
*{stroke-linecap:butt;stroke-linejoin:round;stroke-miterlimit:100000;}
  </style>
 </defs>
 <g id="figure_1">
  <g id="patch_1">
   <path d="M 0 408.16925 
L 523.4025 408.16925 
L 523.4025 0 
L 0 0 
z
" style="fill:#ffffff;"/>
  </g>
  <g id="axes_1">
   <g id="patch_2">
    <path d="M 54.5325 368.74175 
L 500.9325 368.74175 
L 500.9325 23.14175 
L 54.5325 23.14175 
z
" style="fill:#ffffff;"/>
   </g>
   <g id="line2d_1">
    <path clip-path="url(#p8d34ccee87)" d="M 54.7805 64.597794 
L 55.0285 64.885528 
L 55.2765 64.081258 
L 55.5245 64.390055 
L 56.0205 61.496469 
L 56.2685 62.633625 
L 56.5165 61.175994 
L 56.7645 61.826896 
L 57.2605 62.512101 
L 57.5085 60.172174 
L 57.7565 61.314319 
L 58.0045 64.816906 
L 58.2525 65.81501 
L 58.7485 64.001127 
L 58.9965 65.206067 
L 59.2445 60.308993 
L 59.4925 65.609158 
L 59.7405 64.731335 
L 59.9885 64.493072 
L 60.2365 65.553791 
L 60.4845 65.548261 
L 60.7325 64.355906 
L 60.9805 65.66103 
L 61.2285 61.606798 
L 61.4765 62.797956 
L 61.7245 60.60207 
L 61.9725 65.051565 
L 62.2205 65.337163 
L 62.7165 60.282368 
L 62.9645 63.952473 
L 63.2125 64.620517 
L 63.4605 62.396771 
L 63.7085 63.798944 
L 64.2045 62.900155 
L 64.4525 62.548356 
L 64.7005 63.067834 
L 64.9485 62.333473 
L 65.1965 65.689225 
L 65.4445 64.04349 
L 65.6925 63.487842 
L 66.1885 61.485036 
L 66.4365 61.825447 
L 66.6845 63.890707 
L 66.9325 60.75381 
L 67.1805 100.379876 
L 67.4285 101.587713 
L 67.6765 100.325645 
L 67.9245 100.087571 
L 68.1725 101.292402 
L 68.4205 99.959752 
L 68.6685 102.00029 
L 68.9165 101.163376 
L 69.4125 101.399371 
L 69.6605 99.580939 
L 69.9085 99.729593 
L 70.1565 101.092862 
L 70.6525 100.161741 
L 70.9005 99.295213 
L 71.1485 101.294906 
L 71.3965 101.927966 
L 71.6445 101.291842 
L 72.1405 99.505864 
L 72.3885 101.707064 
L 72.6365 100.700965 
L 72.8845 100.624715 
L 73.1325 100.045748 
L 73.3805 100.253315 
L 73.6285 101.646853 
L 73.8765 101.886346 
L 74.3725 100.833715 
L 74.6205 100.884609 
L 74.8685 99.923297 
L 75.1165 99.841186 
L 75.3645 101.608 
L 75.6125 101.390906 
L 75.8605 75.694517 
L 76.1085 74.632549 
L 76.3565 76.709956 
L 76.6045 84.476941 
L 77.1005 152.707259 
L 77.3485 153.325616 
L 77.5965 132.15814 
L 77.8445 146.680458 
L 78.0925 141.264926 
L 78.3405 97.519004 
L 78.5885 106.338551 
L 78.8365 145.490159 
L 79.0845 154.471405 
L 79.3325 146.02543 
L 79.5805 143.271996 
L 79.8285 178.385446 
L 80.0765 185.624645 
L 80.5725 152.261521 
L 80.8205 149.013989 
L 81.0685 185.362383 
L 81.3165 177.233285 
L 81.5645 180.732435 
L 81.8125 190.616676 
L 82.0605 170.590598 
L 82.3085 182.045876 
L 82.5565 167.343671 
L 83.0525 196.89816 
L 83.5485 187.150064 
L 83.7965 192.87127 
L 84.0445 169.327136 
L 84.5405 187.516913 
L 84.7885 203.976243 
L 85.0365 196.436789 
L 85.2845 208.078984 
L 85.5325 184.803165 
L 85.7805 195.100888 
L 86.0285 193.833773 
L 86.2765 213.270522 
L 86.5245 192.995913 
L 86.7725 200.167797 
L 87.0205 195.894433 
L 87.2685 208.123675 
L 87.5165 194.537083 
L 87.7645 200.503715 
L 88.0125 212.859253 
L 88.2605 186.989138 
L 88.5085 213.025709 
L 89.0045 183.355992 
L 89.2525 208.789118 
L 89.5005 202.646928 
L 89.7485 200.494758 
L 90.2445 198.60204 
L 90.4925 207.086793 
L 90.7405 209.661861 
L 90.9885 195.530365 
L 91.2365 215.959576 
L 91.4845 204.856103 
L 91.7325 203.568102 
L 91.9805 207.020369 
L 92.2285 194.585427 
L 92.4765 211.383051 
L 92.7245 192.862609 
L 93.2205 208.282357 
L 93.4685 201.18708 
L 93.7165 199.660992 
L 93.9645 214.288141 
L 94.2125 208.859667 
L 94.4605 216.64906 
L 94.7085 213.641536 
L 94.9565 213.701715 
L 95.2045 206.739893 
L 95.4525 227.398501 
L 95.7005 208.796179 
L 95.9485 209.563029 
L 96.1965 215.518753 
L 96.4445 216.70723 
L 96.6925 209.636933 
L 96.9405 219.436534 
L 97.4365 215.787398 
L 97.6845 223.624719 
L 97.9325 212.249985 
L 98.1805 221.844931 
L 98.4285 213.111177 
L 98.6765 221.491137 
L 98.9245 214.615619 
L 99.1725 213.188531 
L 99.4205 220.61652 
L 99.6685 209.965502 
L 99.9165 221.563315 
L 100.1645 212.820809 
L 100.4125 220.191681 
L 100.6605 223.089545 
L 100.9085 208.343917 
L 101.1565 223.418446 
L 101.4045 218.553828 
L 101.6525 217.40122 
L 101.9005 231.120439 
L 102.1485 218.61198 
L 102.3965 229.6244 
L 102.6445 229.034483 
L 102.8925 226.334759 
L 103.1405 234.013504 
L 103.3885 226.731062 
L 103.6365 229.958818 
L 103.8845 222.000794 
L 104.1325 226.465781 
L 104.3805 226.293518 
L 104.6285 228.272754 
L 104.8765 216.37112 
L 105.3725 228.052724 
L 105.6205 221.700835 
L 105.8685 223.61805 
L 106.1165 230.8639 
L 106.3645 226.39255 
L 106.6125 224.779832 
L 106.8605 240.923366 
L 107.1085 226.466022 
L 107.3565 233.148015 
L 107.6045 227.778758 
L 107.8525 224.948042 
L 108.1005 236.477685 
L 108.3485 240.861552 
L 108.5965 225.10479 
L 108.8445 231.219908 
L 109.0925 231.668715 
L 109.3405 225.459759 
L 109.5885 228.448798 
L 109.8365 241.52484 
L 110.0845 235.227302 
L 110.3325 238.372772 
L 110.5805 236.981399 
L 110.8285 236.334861 
L 111.0765 241.809395 
L 111.3245 233.064832 
L 111.5725 235.729106 
L 111.8205 227.532647 
L 112.0685 245.606933 
L 112.3165 249.851302 
L 112.5645 233.129714 
L 112.8125 248.261129 
L 113.0605 246.514771 
L 113.3085 235.693144 
L 113.5565 243.952802 
L 113.8045 243.554625 
L 114.0525 244.561856 
L 114.3005 244.811717 
L 114.5485 244.452297 
L 114.7965 239.326032 
L 115.2925 251.903998 
L 115.5405 250.947891 
L 115.7885 241.166629 
L 116.2845 248.540002 
L 116.5325 242.917259 
L 116.7805 243.919108 
L 117.0285 243.767496 
L 117.2765 242.659991 
L 117.5245 253.695843 
L 117.7725 252.837749 
L 118.0205 239.902148 
L 118.2685 246.269857 
L 118.5165 249.363087 
L 118.7645 226.401597 
L 119.0125 245.954998 
L 119.2605 254.220934 
L 119.5085 256.272343 
L 119.7565 251.400813 
L 120.0045 240.347622 
L 120.5005 255.042125 
L 120.7485 257.224545 
L 121.2445 244.232672 
L 121.4925 261.308506 
L 121.7405 255.971767 
L 121.9885 258.041014 
L 122.2365 254.637786 
L 122.4845 258.864428 
L 122.7325 259.504906 
L 122.9805 255.052472 
L 123.2285 254.794115 
L 123.4765 263.84731 
L 124.2205 250.020283 
L 124.4685 251.91637 
L 124.7165 249.42676 
L 124.9645 258.690044 
L 125.2125 258.50209 
L 125.4605 260.395285 
L 125.9565 252.493812 
L 126.2045 263.681696 
L 126.4525 263.311717 
L 126.7005 257.424422 
L 126.9485 262.777296 
L 127.4445 266.513998 
L 127.6925 265.556354 
L 127.9405 274.657983 
L 128.1885 257.818721 
L 128.4365 259.651088 
L 128.6845 258.659136 
L 128.9325 254.257638 
L 129.1805 261.566545 
L 129.4285 263.662775 
L 129.6765 252.257121 
L 129.9245 252.077966 
L 130.1725 262.4837 
L 130.4205 256.031728 
L 130.6685 255.475801 
L 130.9165 267.28939 
L 131.1645 258.560107 
L 131.4125 255.808678 
L 131.6605 267.86839 
L 132.1565 263.73188 
L 132.4045 256.696265 
L 132.9005 270.052314 
L 133.1485 258.432402 
L 133.6445 272.508645 
L 133.8925 270.840413 
L 134.1405 271.538532 
L 134.3885 267.108859 
L 134.6365 265.366155 
L 134.8845 265.499099 
L 135.1325 271.429309 
L 135.3805 268.94186 
L 135.6285 278.027904 
L 135.8765 271.781581 
L 136.1245 271.614084 
L 136.3725 273.661247 
L 136.6205 273.747489 
L 136.8685 269.907434 
L 137.1165 275.16342 
L 137.3645 265.552154 
L 137.6125 270.431909 
L 137.8605 278.921002 
L 138.1085 275.18178 
L 138.3565 293.64595 
L 138.6045 274.658111 
L 138.8525 274.296234 
L 139.1005 265.363166 
L 139.3485 266.678761 
L 139.5965 278.883215 
L 140.0925 278.11689 
L 140.3405 272.445437 
L 140.5885 276.880017 
L 140.8365 275.39618 
L 141.0845 277.351266 
L 141.3325 277.134384 
L 141.5805 281.732719 
L 141.8285 271.883908 
L 142.0765 283.384254 
L 142.3245 271.73104 
L 142.5725 287.682768 
L 142.8205 268.506515 
L 143.0685 272.357928 
L 143.3165 280.868447 
L 143.5645 281.921435 
L 143.8125 284.086389 
L 144.0605 292.291229 
L 144.3085 277.021383 
L 144.5565 287.747051 
L 145.0525 267.736268 
L 145.3005 278.725759 
L 145.5485 277.557775 
L 145.7965 268.93354 
L 146.0445 282.280639 
L 146.2925 280.963574 
L 146.5405 276.527954 
L 146.7885 282.763434 
L 147.0365 282.355853 
L 147.2845 273.443698 
L 147.7805 284.878544 
L 148.0285 274.524959 
L 148.2765 287.090916 
L 148.5245 285.957118 
L 149.0205 275.325938 
L 149.5165 289.081999 
L 150.0125 274.883987 
L 150.5085 293.807362 
L 150.7565 287.984813 
L 151.0045 293.174639 
L 151.2525 280.8633 
L 151.5005 289.35132 
L 151.7485 289.18741 
L 151.9965 286.001226 
L 152.2445 284.786411 
L 152.4925 273.392709 
L 152.7405 279.757797 
L 152.9885 290.01329 
L 153.2365 294.191624 
L 153.4845 288.011367 
L 153.7325 289.329578 
L 153.9805 289.521487 
L 154.2285 287.171952 
L 154.4765 288.521848 
L 154.7245 286.086279 
L 154.9725 276.853637 
L 155.2205 291.152306 
L 155.4685 287.821624 
L 155.7165 292.239905 
L 155.9645 281.420011 
L 156.2125 279.881235 
L 156.4605 295.663954 
L 156.7085 288.245974 
L 156.9565 289.415333 
L 157.2045 284.645994 
L 157.4525 292.602386 
L 157.7005 294.011727 
L 157.9485 286.294097 
L 158.1965 282.272738 
L 158.4445 280.448403 
L 158.6925 289.630841 
L 158.9405 290.073769 
L 159.1885 284.849467 
L 159.4365 284.064316 
L 159.6845 291.970825 
L 159.9325 292.921016 
L 160.1805 280.46403 
L 160.4285 290.691148 
L 160.6765 281.432 
L 160.9245 294.214586 
L 161.1725 299.358569 
L 161.4205 291.042573 
L 161.6685 292.944226 
L 161.9165 296.891586 
L 162.1645 290.089704 
L 162.4125 289.710122 
L 162.6605 293.556307 
L 162.9085 286.914418 
L 163.1565 299.801159 
L 163.4045 296.999456 
L 163.6525 286.925674 
L 164.1485 297.120657 
L 164.3965 298.114065 
L 164.8925 297.11488 
L 165.1405 295.458913 
L 165.3885 294.574302 
L 165.6365 285.33334 
L 165.8845 286.409225 
L 166.1325 292.888241 
L 166.3805 294.800995 
L 166.6285 300.212689 
L 166.8765 283.622006 
L 167.3725 290.163373 
L 167.6205 297.539033 
L 167.8685 294.952922 
L 168.1165 300.807271 
L 168.3645 296.89643 
L 168.6125 284.244174 
L 168.8605 293.34432 
L 169.1085 291.25352 
L 169.3565 301.31575 
L 169.6045 289.574025 
L 169.8525 288.89179 
L 170.1005 294.254001 
L 170.3485 303.085519 
L 170.5965 296.158731 
L 170.8445 296.224646 
L 171.0925 294.822431 
L 171.3405 299.588445 
L 171.5885 298.272426 
L 171.8365 289.014189 
L 172.3325 299.866166 
L 172.5805 290.51876 
L 172.8285 293.140548 
L 173.0765 298.52189 
L 173.3245 298.576401 
L 173.5725 285.606265 
L 173.8205 292.353703 
L 174.0685 304.042646 
L 174.3165 295.205981 
L 174.8125 309.962459 
L 175.0605 308.246786 
L 175.3085 300.700733 
L 175.5565 302.535306 
L 176.0525 292.083987 
L 176.5485 301.247373 
L 176.7965 298.21186 
L 177.0445 297.843994 
L 177.2925 305.306545 
L 177.5405 300.954675 
L 177.7885 298.924479 
L 178.0365 292.267144 
L 178.2845 302.315376 
L 178.5325 298.72389 
L 178.7805 301.295044 
L 179.0285 302.705129 
L 179.2765 301.085864 
L 179.5245 297.219096 
L 179.7725 297.174177 
L 180.0205 302.380834 
L 180.2685 298.37595 
L 180.5165 297.992348 
L 180.7645 303.576691 
L 181.0125 298.005928 
L 181.2605 297.59312 
L 181.5085 293.294315 
L 181.7565 299.042353 
L 182.0045 299.234088 
L 182.2525 293.537632 
L 182.5005 300.769268 
L 182.7485 302.324662 
L 182.9965 306.646479 
L 183.2445 307.219419 
L 183.4925 299.871149 
L 183.7405 309.196864 
L 183.9885 303.896644 
L 184.2365 309.306588 
L 184.4845 308.221578 
L 184.7325 300.510476 
L 184.9805 300.639286 
L 185.2285 299.525575 
L 185.4765 302.755108 
L 185.7245 299.541398 
L 185.9725 304.677985 
L 186.2205 303.589189 
L 186.7165 295.101256 
L 186.9645 299.664099 
L 187.2125 309.466175 
L 187.4605 310.951869 
L 187.7085 304.27146 
L 187.9565 304.989753 
L 188.2045 300.035982 
L 188.4525 302.412064 
L 188.7005 299.364729 
L 188.9485 300.719492 
L 189.1965 298.577914 
L 189.4445 306.19892 
L 189.6925 303.515228 
L 189.9405 299.514728 
L 190.1885 308.045312 
L 190.4365 299.172595 
L 190.6845 300.376557 
L 190.9325 293.344327 
L 191.1805 313.325991 
L 191.4285 292.850119 
L 191.9245 305.585747 
L 192.1725 301.838037 
L 192.4205 307.419825 
L 192.6685 305.961254 
L 192.9165 308.771996 
L 193.1645 316.681772 
L 193.4125 298.854976 
L 193.6605 305.005795 
L 193.9085 299.253647 
L 194.1565 310.165009 
L 194.4045 314.372613 
L 194.6525 301.38443 
L 194.9005 309.834939 
L 195.1485 304.229897 
L 195.3965 301.566975 
L 195.6445 319.24565 
L 195.8925 313.177505 
L 196.1405 296.930123 
L 196.8845 306.663303 
L 197.1325 301.510082 
L 197.3805 315.171305 
L 197.6285 314.54772 
L 197.8765 300.805993 
L 198.1245 299.601188 
L 198.3725 304.409733 
L 198.6205 314.112758 
L 198.8685 308.475288 
L 199.1165 297.162741 
L 199.3645 308.088503 
L 199.6125 310.588171 
L 199.8605 309.295117 
L 200.1085 299.06376 
L 200.3565 314.513268 
L 200.6045 302.122006 
L 200.8525 309.357987 
L 201.1005 303.571242 
L 201.3485 309.035098 
L 201.5965 317.255275 
L 201.8445 314.919931 
L 202.0925 308.864307 
L 202.3405 314.168885 
L 202.5885 300.445971 
L 202.8365 310.95915 
L 203.3325 305.213353 
L 203.5805 297.893693 
L 204.0765 306.970237 
L 204.3245 307.359021 
L 204.5725 303.156426 
L 204.8205 311.382174 
L 205.0685 301.703688 
L 205.3165 307.00953 
L 205.5645 317.142551 
L 205.8125 311.994937 
L 206.0605 309.271666 
L 206.3085 315.058211 
L 206.5565 306.717444 
L 206.8045 310.007739 
L 207.0525 300.711458 
L 207.3005 305.629811 
L 207.5485 312.914046 
L 207.7965 314.705119 
L 208.0445 305.160058 
L 208.2925 303.693805 
L 209.0365 315.10249 
L 209.2845 310.34517 
L 209.5325 303.033103 
L 209.7805 306.143945 
L 210.0285 312.733231 
L 210.2765 308.812429 
L 210.5245 316.25908 
L 210.7725 313.575311 
L 211.0205 298.881433 
L 211.2685 304.856002 
L 211.5165 306.541986 
L 211.7645 318.156475 
L 212.0125 309.152379 
L 212.2605 312.128988 
L 212.5085 303.343906 
L 212.7565 305.710908 
L 213.0045 314.9311 
L 213.2525 311.400977 
L 213.5005 302.658243 
L 213.9965 308.230403 
L 214.2445 306.720547 
L 214.7405 317.060415 
L 214.9885 306.433617 
L 215.2365 304.226472 
L 215.4845 312.259893 
L 215.7325 310.284852 
L 215.9805 315.030926 
L 216.2285 327.390172 
L 216.4765 313.967056 
L 216.7245 320.413943 
L 216.9725 304.811874 
L 217.2205 305.349534 
L 217.4685 312.89549 
L 217.7165 307.252767 
L 217.9645 305.821681 
L 218.2125 306.222905 
L 218.4605 317.432236 
L 218.7085 313.162931 
L 218.9565 319.956608 
L 219.2045 310.300247 
L 219.4525 314.544688 
L 219.7005 308.469021 
L 219.9485 314.067127 
L 220.1965 309.895701 
L 220.4445 311.116503 
L 220.9405 301.702957 
L 221.4365 310.387504 
L 221.6845 321.68615 
L 222.1805 301.740042 
L 222.4285 320.782443 
L 222.6765 321.072862 
L 223.1725 309.495114 
L 223.4205 299.446441 
L 223.6685 315.31542 
L 223.9165 311.944411 
L 224.1645 311.951782 
L 224.4125 308.863705 
L 224.6605 302.060086 
L 225.1565 322.841433 
L 225.4045 318.665044 
L 225.6525 306.011935 
L 225.9005 315.009001 
L 226.1485 315.395036 
L 226.3965 320.303749 
L 226.6445 297.664883 
L 226.8925 307.650093 
L 227.1405 322.354693 
L 227.3885 306.662586 
L 227.6365 311.884464 
L 227.8845 311.070412 
L 228.1325 307.079143 
L 228.3805 310.223817 
L 228.6285 319.94599 
L 228.8765 317.062185 
L 229.1245 308.125475 
L 229.3725 312.292598 
L 229.6205 311.709044 
L 229.8685 305.07797 
L 230.3645 314.859524 
L 230.6125 305.416588 
L 230.8605 314.429647 
L 231.1085 311.39211 
L 231.3565 320.55191 
L 231.6045 323.073051 
L 231.8525 313.753785 
L 232.1005 320.388998 
L 232.3485 314.040396 
L 232.5965 312.397314 
L 232.8445 319.262055 
L 233.3405 302.19972 
L 233.5885 314.173674 
L 233.8365 312.995439 
L 234.0845 304.010408 
L 234.3325 310.873431 
L 234.5805 306.007935 
L 235.0765 322.417151 
L 235.3245 314.353896 
L 235.5725 316.004076 
L 235.8205 316.753207 
L 236.0685 314.236345 
L 236.5645 326.022925 
L 237.0605 312.124839 
L 237.3085 306.387983 
L 237.5565 324.264289 
L 237.8045 308.659073 
L 238.0525 315.257526 
L 238.3005 316.518931 
L 238.5485 316.201804 
L 238.7965 311.792507 
L 239.0445 318.719355 
L 239.2925 315.647362 
L 239.5405 306.223539 
L 239.7885 316.3879 
L 240.0365 321.73031 
L 240.2845 317.833203 
L 240.5325 318.28833 
L 240.7805 320.968951 
L 241.0285 321.250625 
L 241.2765 309.762957 
L 241.5245 308.896355 
L 241.7725 308.683763 
L 242.0205 314.166249 
L 242.2685 313.309325 
L 242.5165 308.836456 
L 242.7645 306.71269 
L 243.0125 307.505808 
L 243.2605 314.965324 
L 243.5085 317.284281 
L 243.7565 313.229123 
L 244.0045 319.542503 
L 244.2525 319.554048 
L 244.5005 311.917271 
L 244.7485 320.0357 
L 244.9965 310.955004 
L 245.4925 328.224392 
L 245.7405 315.706457 
L 245.9885 317.767655 
L 246.2365 328.171168 
L 246.4845 313.277415 
L 246.7325 319.096227 
L 246.9805 320.770869 
L 247.2285 314.850663 
L 247.4765 316.610196 
L 247.7245 305.627976 
L 247.9725 307.777394 
L 248.2205 321.062302 
L 248.4685 314.105136 
L 248.7165 310.89076 
L 249.2125 324.087627 
L 249.4605 307.138746 
L 249.7085 306.227978 
L 249.9565 312.011855 
L 250.2045 325.071186 
L 250.4525 315.632138 
L 250.7005 312.561581 
L 250.9485 330.852497 
L 251.1965 330.734676 
L 251.4445 308.052682 
L 251.6925 314.493251 
L 251.9405 314.259371 
L 252.1885 323.028968 
L 252.4365 324.359652 
L 252.6845 312.646228 
L 252.9325 321.036086 
L 253.4285 311.502036 
L 253.6765 312.600974 
L 253.9245 321.574885 
L 254.1725 308.73811 
L 254.4205 305.438896 
L 254.6685 321.307511 
L 254.9165 323.313152 
L 255.4125 320.402639 
L 255.6605 315.595661 
L 255.9085 321.594235 
L 256.1565 310.657704 
L 256.4045 321.498493 
L 256.6525 311.303668 
L 256.9005 313.908496 
L 257.1485 320.602005 
L 257.3965 317.253566 
L 257.6445 317.390478 
L 257.8925 312.65778 
L 258.1405 317.805098 
L 258.3885 330.363687 
L 258.6365 318.486615 
L 258.8845 312.77004 
L 259.1325 326.533937 
L 259.3805 324.656511 
L 259.6285 309.805296 
L 260.1245 320.950054 
L 260.3725 325.813632 
L 260.6205 311.543779 
L 260.8685 322.285656 
L 261.1165 317.179897 
L 261.3645 320.286191 
L 262.1085 316.764666 
L 262.3565 324.843025 
L 262.6045 325.225755 
L 262.8525 324.767445 
L 263.1005 310.745003 
L 263.5965 326.021853 
L 263.8445 318.391008 
L 264.0925 321.130093 
L 264.3405 310.170168 
L 264.5885 320.002493 
L 264.8365 324.983677 
L 265.0845 316.494016 
L 265.3325 332.383297 
L 265.5805 319.978595 
L 265.8285 325.9719 
L 266.0765 309.703409 
L 266.3245 323.144038 
L 266.5725 305.77484 
L 266.8205 312.161049 
L 267.0685 322.906733 
L 267.3165 306.657655 
L 267.5645 314.816094 
L 267.8125 315.017157 
L 268.0605 309.29102 
L 268.3085 317.302039 
L 268.5565 317.826286 
L 268.8045 320.884693 
L 269.0525 320.911257 
L 269.3005 324.734679 
L 269.5485 325.051278 
L 269.7965 304.982228 
L 270.0445 311.821326 
L 270.2925 329.073848 
L 270.5405 309.165489 
L 270.7885 306.544233 
L 271.0365 315.665509 
L 271.2845 315.846484 
L 271.5325 318.177599 
L 271.7805 321.808256 
L 272.2765 315.710319 
L 272.5245 326.958249 
L 272.7725 314.341218 
L 273.0205 323.50313 
L 273.2685 307.655182 
L 273.5165 332.693276 
L 274.0125 321.010359 
L 274.2605 323.542555 
L 274.5085 334.055721 
L 274.7565 315.117418 
L 275.0045 318.974752 
L 275.2525 319.525724 
L 275.5005 311.10844 
L 275.7485 324.196543 
L 275.9965 311.093573 
L 276.2445 317.455388 
L 276.4925 314.951168 
L 276.7405 311.240131 
L 276.9885 325.238137 
L 277.4845 311.135265 
L 277.7325 310.690582 
L 277.9805 323.775167 
L 278.2285 316.524213 
L 278.7245 321.637931 
L 278.9725 322.085424 
L 279.2205 309.057848 
L 279.4685 319.689141 
L 279.7165 316.296651 
L 279.9645 322.713312 
L 280.2125 315.650897 
L 280.4605 315.414136 
L 280.7085 326.824704 
L 280.9565 323.045499 
L 281.2045 306.449846 
L 281.4525 323.62979 
L 281.7005 309.446027 
L 281.9485 307.559311 
L 282.4445 329.197654 
L 282.6925 308.909297 
L 283.1885 323.252593 
L 283.4365 326.73107 
L 283.6845 321.155208 
L 283.9325 318.140777 
L 284.1805 323.188233 
L 284.4285 314.276159 
L 284.6765 315.657933 
L 284.9245 322.673993 
L 285.1725 316.669587 
L 285.4205 317.124636 
L 285.6685 328.84974 
L 285.9165 316.97073 
L 286.1645 328.303931 
L 286.4125 313.168161 
L 286.6605 310.974001 
L 286.9085 321.281495 
L 287.1565 326.006162 
L 287.4045 308.6585 
L 287.9005 335.373466 
L 288.1485 323.476753 
L 288.3965 326.197469 
L 288.6445 324.212463 
L 288.8925 306.751131 
L 289.1405 319.481674 
L 289.3885 320.363751 
L 289.6365 320.669439 
L 289.8845 314.147288 
L 290.1325 316.352907 
L 290.3805 312.047804 
L 290.8765 324.158605 
L 291.1245 330.040297 
L 291.6205 308.061041 
L 291.8685 310.939893 
L 292.1165 319.755001 
L 292.3645 323.489766 
L 292.6125 313.635313 
L 292.8605 335.947779 
L 293.1085 322.837358 
L 293.3565 322.242362 
L 293.8525 314.740878 
L 294.1005 315.664785 
L 294.3485 328.306802 
L 294.5965 306.980772 
L 294.8445 313.046493 
L 295.3405 318.247778 
L 295.5885 320.999203 
L 295.8365 318.41761 
L 296.0845 325.168418 
L 296.3325 316.946362 
L 296.5805 325.086951 
L 296.8285 322.926679 
L 297.0765 317.194262 
L 297.3245 330.324098 
L 297.5725 319.042579 
L 297.8205 324.650476 
L 298.0685 321.447249 
L 298.3165 311.299413 
L 298.8125 326.774531 
L 299.0605 319.286984 
L 299.3085 316.785104 
L 299.5565 323.383264 
L 299.8045 315.289783 
L 300.0525 325.564132 
L 300.3005 317.354065 
L 300.5485 316.918961 
L 300.7965 317.720029 
L 301.0445 313.128269 
L 301.2925 335.137111 
L 301.5405 326.115593 
L 302.2845 319.602325 
L 302.5325 323.891438 
L 303.0285 309.445463 
L 303.2765 313.218684 
L 303.5245 323.832594 
L 303.7725 319.515611 
L 304.0205 325.208374 
L 304.2685 323.714074 
L 304.5165 319.783889 
L 304.7645 313.120268 
L 305.0125 324.513007 
L 305.2605 323.44297 
L 305.5085 320.257883 
L 305.7565 322.914567 
L 306.0045 319.144446 
L 306.2525 317.913061 
L 306.5005 324.666698 
L 306.7485 320.006825 
L 306.9965 323.131115 
L 307.2445 318.688286 
L 307.4925 317.897026 
L 307.7405 327.743165 
L 307.9885 323.562356 
L 308.2365 322.396674 
L 308.4845 325.47578 
L 308.7325 314.517478 
L 308.9805 322.779458 
L 309.2285 317.215039 
L 309.4765 339.813952 
L 309.7245 334.6256 
L 309.9725 333.906704 
L 310.2205 315.525585 
L 310.4685 316.433907 
L 310.7165 324.061994 
L 310.9645 323.25511 
L 311.2125 313.066812 
L 311.4605 317.360493 
L 311.7085 334.005884 
L 312.2045 322.400211 
L 312.4525 321.197552 
L 312.7005 327.555582 
L 312.9485 326.183996 
L 313.4445 318.869451 
L 313.6925 324.187412 
L 313.9405 323.820328 
L 314.1885 318.414173 
L 314.4365 328.562254 
L 314.6845 313.190495 
L 314.9325 331.846523 
L 315.1805 318.386737 
L 315.6765 328.565517 
L 315.9245 333.793218 
L 316.4205 316.522366 
L 316.6685 316.90945 
L 316.9165 322.472363 
L 317.1645 324.067488 
L 317.4125 311.995353 
L 317.6605 342.963038 
L 317.9085 314.972125 
L 318.1565 339.771044 
L 318.4045 317.364706 
L 318.6525 311.69073 
L 318.9005 329.582891 
L 319.1485 328.755456 
L 319.3965 326.730011 
L 319.6445 334.253086 
L 320.1405 326.499066 
L 320.3885 334.817019 
L 320.6365 322.640374 
L 320.8845 326.129353 
L 321.1325 315.97572 
L 321.3805 312.127311 
L 321.6285 326.990702 
L 322.1245 315.684779 
L 322.3725 324.606986 
L 322.6205 326.205409 
L 322.8685 321.155539 
L 323.1165 333.618426 
L 323.3645 339.66733 
L 323.6125 325.642728 
L 323.8605 325.356474 
L 324.1085 324.11701 
L 324.3565 326.840433 
L 324.6045 330.819616 
L 324.8525 313.64606 
L 325.1005 319.166114 
L 325.3485 319.910546 
L 325.5965 321.577788 
L 325.8445 330.315707 
L 326.3405 318.865376 
L 326.5885 319.278487 
L 326.8365 314.776566 
L 327.0845 328.814428 
L 327.3325 316.151448 
L 327.5805 322.109943 
L 327.8285 312.893266 
L 328.0765 330.659246 
L 328.3245 336.556401 
L 328.5725 323.971691 
L 328.8205 327.127305 
L 329.3165 320.302365 
L 329.5645 326.465116 
L 329.8125 324.861362 
L 330.0605 332.467633 
L 330.3085 327.187384 
L 330.5565 331.757215 
L 330.8045 320.647112 
L 331.0525 316.496697 
L 331.3005 335.068467 
L 331.5485 327.385257 
L 331.7965 314.913233 
L 332.0445 324.503178 
L 332.2925 321.455749 
L 332.5405 314.155508 
L 332.7885 320.044854 
L 333.0365 319.02972 
L 333.5325 326.285621 
L 333.7805 320.540874 
L 334.0285 321.661469 
L 334.2765 326.711426 
L 334.5245 319.490248 
L 334.7725 319.267569 
L 335.0205 324.198445 
L 335.2685 326.148027 
L 335.5165 341.997984 
L 335.7645 318.384069 
L 336.0125 329.295408 
L 336.5085 312.565234 
L 336.7565 325.054137 
L 337.0045 319.005481 
L 337.2525 325.441884 
L 337.5005 320.769176 
L 337.7485 325.88872 
L 337.9965 327.279161 
L 338.2445 331.68729 
L 338.7405 332.906885 
L 338.9885 319.372175 
L 339.2365 332.082601 
L 339.7325 325.500905 
L 339.9805 331.0573 
L 340.2285 323.679152 
L 340.4765 321.811079 
L 340.7245 333.808548 
L 340.9725 324.902422 
L 341.2205 327.235844 
L 341.4685 333.035329 
L 341.7165 341.989602 
L 342.2125 312.71634 
L 342.4605 323.811654 
L 342.7085 322.116812 
L 342.9565 326.347078 
L 343.2045 323.173012 
L 343.4525 324.759997 
L 343.7005 324.321002 
L 343.9485 329.718631 
L 344.1965 329.640959 
L 344.4445 320.226354 
L 344.6925 321.778625 
L 344.9405 318.603494 
L 345.1885 330.855613 
L 345.4365 333.897097 
L 345.6845 322.254879 
L 345.9325 316.731359 
L 346.4285 335.79022 
L 346.9245 328.727119 
L 347.1725 319.098072 
L 347.4205 324.762788 
L 347.6685 315.937675 
L 347.9165 324.994247 
L 348.1645 326.698211 
L 348.6605 322.244 
L 348.9085 323.386599 
L 349.1565 320.02738 
L 349.4045 326.979109 
L 349.6525 324.032196 
L 349.9005 329.382752 
L 350.1485 327.154216 
L 350.3965 320.704317 
L 350.6445 333.776249 
L 350.8925 327.732495 
L 351.1405 326.114093 
L 351.3885 320.741408 
L 351.6365 325.623996 
L 352.1325 313.891408 
L 352.3805 321.666989 
L 352.6285 315.071481 
L 352.8765 322.030172 
L 353.1245 318.261657 
L 353.3725 318.7559 
L 353.6205 328.402464 
L 353.8685 321.05187 
L 354.1165 322.369792 
L 354.3645 341.32929 
L 354.8605 312.654014 
L 355.1085 326.481982 
L 355.3565 323.799964 
L 355.6045 329.934992 
L 355.8525 326.714458 
L 356.1005 327.972687 
L 356.3485 327.058542 
L 356.5965 318.775283 
L 356.8445 324.957184 
L 357.0925 322.034337 
L 357.3405 313.604723 
L 357.5885 343.963334 
L 358.0845 323.173434 
L 358.3325 333.504804 
L 358.5805 325.394747 
L 358.8285 326.189603 
L 359.3245 335.823456 
L 359.8205 328.334853 
L 360.0685 318.365182 
L 360.3165 320.868828 
L 360.5645 319.030638 
L 360.8125 333.894831 
L 361.0605 323.300555 
L 361.3085 334.394552 
L 361.8045 320.809425 
L 362.3005 329.639205 
L 362.5485 330.545805 
L 362.7965 324.51977 
L 363.0445 330.265367 
L 363.2925 331.350094 
L 363.5405 343.182025 
L 363.7885 324.655365 
L 364.2845 328.97951 
L 364.5325 338.456566 
L 364.7805 321.501586 
L 365.0285 326.655866 
L 365.2765 323.625258 
L 365.5245 330.763064 
L 365.7725 331.897883 
L 366.0205 335.211519 
L 366.5165 327.963379 
L 366.7645 333.489686 
L 367.0125 322.193693 
L 367.2605 323.724631 
L 367.5085 320.782369 
L 367.7565 324.774114 
L 368.0045 324.96282 
L 368.2525 323.478678 
L 368.5005 323.720666 
L 368.7485 337.32767 
L 368.9965 333.361445 
L 369.2445 320.324204 
L 369.4925 317.473406 
L 369.9885 328.103277 
L 370.2365 317.073585 
L 370.4845 337.964316 
L 370.7325 343.597753 
L 370.9805 327.419813 
L 371.2285 323.767629 
L 371.4765 331.838126 
L 371.7245 327.384005 
L 371.9725 330.987336 
L 372.2205 316.953665 
L 372.4685 319.346197 
L 372.7165 331.407116 
L 373.2125 322.453171 
L 373.4605 332.491859 
L 373.7085 321.657147 
L 373.9565 322.712932 
L 374.2045 325.706387 
L 374.4525 316.239292 
L 374.9485 328.37084 
L 375.1965 316.934288 
L 375.4445 323.433465 
L 375.6925 322.682989 
L 376.1885 337.306517 
L 376.4365 314.720777 
L 376.6845 327.134698 
L 376.9325 324.700755 
L 377.1805 326.330695 
L 377.4285 338.681132 
L 377.6765 320.598014 
L 377.9245 320.862111 
L 378.1725 333.431554 
L 378.4205 323.755398 
L 378.6685 333.927072 
L 378.9165 321.355176 
L 379.1645 320.670711 
L 379.4125 342.913909 
L 379.6605 322.221283 
L 379.9085 318.893285 
L 380.1565 335.116605 
L 380.4045 338.740966 
L 380.6525 327.214827 
L 380.9005 320.890419 
L 381.1485 329.908094 
L 381.3965 322.239517 
L 381.6445 320.148433 
L 381.8925 329.646041 
L 382.1405 318.424624 
L 382.3885 325.914823 
L 382.6365 322.865103 
L 382.8845 326.093188 
L 383.1325 326.08451 
L 383.6285 328.068352 
L 383.8765 327.169737 
L 384.1245 323.024249 
L 384.3725 329.230075 
L 384.6205 312.333002 
L 384.8685 325.021747 
L 385.1165 328.421376 
L 385.3645 326.910368 
L 385.6125 328.49968 
L 385.8605 325.547105 
L 386.1085 330.943701 
L 386.3565 330.667982 
L 386.8525 321.879932 
L 387.1005 338.886746 
L 387.5965 324.821666 
L 387.8445 330.104831 
L 388.0925 330.006147 
L 388.3405 317.129719 
L 388.5885 327.294768 
L 388.8365 325.453542 
L 389.0845 319.038488 
L 389.3325 330.219666 
L 389.5805 330.729445 
L 389.8285 324.404333 
L 390.0765 324.513236 
L 390.5725 321.880943 
L 390.8205 324.516403 
L 391.0685 322.430775 
L 391.3165 318.360968 
L 391.5645 327.638675 
L 391.8125 325.327835 
L 392.0605 316.800267 
L 392.3085 318.646167 
L 392.5565 322.231283 
L 392.8045 333.90954 
L 393.0525 330.318842 
L 393.3005 338.763668 
L 393.5485 325.386701 
L 393.7965 323.782264 
L 394.0445 323.149226 
L 394.2925 319.594291 
L 394.5405 321.955905 
L 394.7885 325.853115 
L 395.0365 323.199045 
L 395.2845 328.528142 
L 395.5325 327.753481 
L 395.7805 323.232374 
L 396.2765 329.886452 
L 396.5245 315.715402 
L 396.7725 328.515705 
L 397.0205 334.28458 
L 397.2685 321.950604 
L 397.5165 320.911093 
L 397.7645 327.89028 
L 398.0125 329.756257 
L 398.2605 329.005517 
L 398.7565 321.111103 
L 399.0045 323.757867 
L 399.2525 332.006329 
L 399.5005 329.696966 
L 399.7485 332.685812 
L 399.9965 326.03701 
L 400.2445 328.406828 
L 400.4925 322.811761 
L 400.7405 330.83183 
L 400.9885 325.792186 
L 401.2365 316.980547 
L 401.7325 325.223315 
L 401.9805 322.523151 
L 402.2285 323.375877 
L 402.4765 315.795964 
L 402.7245 332.673095 
L 403.2205 323.460773 
L 403.4685 322.201379 
L 403.7165 322.604438 
L 403.9645 320.149634 
L 404.4605 327.050524 
L 404.7085 325.868658 
L 404.9565 326.104041 
L 405.2045 335.291091 
L 405.7005 325.191155 
L 405.9485 332.420798 
L 406.1965 323.168014 
L 406.4445 320.855114 
L 406.6925 327.174584 
L 407.1885 324.255667 
L 407.4365 320.235015 
L 407.6845 319.708244 
L 407.9325 332.83601 
L 408.4285 329.398054 
L 408.9245 319.312253 
L 409.1725 325.157645 
L 409.4205 325.554811 
L 409.6685 325.352119 
L 409.9165 335.612634 
L 410.1645 322.104314 
L 410.4125 334.398823 
L 410.6605 329.084966 
L 410.9085 329.431811 
L 411.1565 315.431237 
L 411.4045 327.271198 
L 411.6525 327.113619 
L 411.9005 328.988435 
L 412.1485 321.521133 
L 412.6445 324.31628 
L 412.8925 320.724369 
L 413.1405 321.93174 
L 413.3885 328.781772 
L 413.6365 319.865807 
L 413.8845 321.135854 
L 414.1325 328.628429 
L 414.3805 322.277793 
L 414.6285 321.821349 
L 414.8765 321.014936 
L 415.1245 318.526745 
L 415.3725 326.412842 
L 415.6205 325.311683 
L 415.8685 326.955725 
L 416.1165 320.807812 
L 416.6125 335.417883 
L 416.8605 320.374749 
L 417.1085 325.956994 
L 417.3565 322.234193 
L 417.6045 331.579893 
L 417.8525 324.846656 
L 418.1005 334.802806 
L 418.3485 328.830692 
L 418.5965 330.056 
L 418.8445 322.301257 
L 419.0925 329.887881 
L 419.3405 330.256081 
L 419.5885 336.453961 
L 419.8365 320.609795 
L 420.0845 329.0621 
L 420.3325 322.911465 
L 420.5805 323.148258 
L 420.8285 327.762503 
L 421.0765 327.080104 
L 421.3245 323.545346 
L 421.5725 339.439127 
L 421.8205 319.224719 
L 422.3165 330.327735 
L 422.5645 330.564396 
L 422.8125 328.50303 
L 423.0605 322.788947 
L 423.3085 325.46641 
L 423.5565 326.281315 
L 424.0525 322.185482 
L 424.3005 325.02504 
L 424.5485 322.437908 
L 424.7965 325.020743 
L 425.0445 326.150541 
L 425.2925 327.839142 
L 425.5405 324.243716 
L 425.7885 328.781135 
L 426.0365 321.891622 
L 426.2845 328.416619 
L 426.5325 344.0277 
L 426.7805 321.122941 
L 427.0285 331.445379 
L 427.2765 323.167389 
L 427.5245 327.62235 
L 427.7725 327.887 
L 428.0205 319.595681 
L 428.2685 323.165065 
L 428.5165 324.390673 
L 428.7645 326.948493 
L 429.0125 322.530431 
L 429.2605 330.26258 
L 429.7565 320.544662 
L 430.0045 324.432445 
L 430.2525 317.704019 
L 430.5005 317.978631 
L 430.7485 320.842407 
L 430.9965 320.839407 
L 431.4925 320.076104 
L 431.7405 329.210818 
L 431.9885 322.450293 
L 432.2365 321.564726 
L 432.4845 321.964866 
L 432.9805 326.075083 
L 433.4765 315.626036 
L 433.7245 314.810941 
L 433.9725 326.043624 
L 434.4685 319.734766 
L 434.9645 318.613372 
L 435.2125 330.227957 
L 435.4605 324.624682 
L 435.7085 324.749565 
L 435.9565 336.621157 
L 436.2045 320.725116 
L 436.4525 331.984046 
L 436.7005 323.680011 
L 436.9485 320.20512 
L 437.4445 329.240388 
L 437.6925 317.037845 
L 437.9405 329.350498 
L 438.1885 326.4548 
L 438.6845 325.636864 
L 438.9325 328.626723 
L 439.1805 326.578763 
L 439.6765 330.736372 
L 439.9245 324.387187 
L 440.1725 322.141448 
L 440.4205 323.037298 
L 440.9165 320.579752 
L 441.1645 331.043396 
L 441.4125 321.847009 
L 441.6605 317.255732 
L 442.1565 326.022532 
L 442.4045 318.342944 
L 442.6525 322.042941 
L 442.9005 335.756801 
L 443.1485 327.063209 
L 443.3965 328.591408 
L 443.6445 319.595096 
L 443.8925 322.220211 
L 444.3885 332.589391 
L 444.6365 325.208465 
L 444.8845 322.204272 
L 445.1325 324.270814 
L 445.3805 328.361017 
L 445.6285 321.800364 
L 445.8765 319.214365 
L 446.6205 332.402011 
L 446.8685 323.042129 
L 447.1165 330.155862 
L 447.3645 322.874927 
L 447.6125 321.548987 
L 447.8605 324.991315 
L 448.1085 316.626447 
L 448.6045 328.447477 
L 448.8525 326.800168 
L 449.1005 323.738796 
L 449.3485 322.099975 
L 449.5965 317.221402 
L 449.8445 328.651825 
L 450.0925 317.231067 
L 450.3405 319.574232 
L 450.5885 319.03207 
L 450.8365 336.395037 
L 451.0845 327.731964 
L 451.3325 323.142693 
L 451.5805 322.210088 
L 451.8285 335.395613 
L 452.0765 324.845014 
L 452.5725 323.007084 
L 452.8205 328.821551 
L 453.0685 325.334941 
L 453.3165 328.597807 
L 453.5645 334.061058 
L 453.8125 325.09606 
L 454.0605 321.567684 
L 454.3085 323.619079 
L 454.5565 326.939226 
L 454.8045 326.998952 
L 455.0525 320.098892 
L 455.3005 322.069285 
L 455.5485 321.435623 
L 456.0445 333.380925 
L 456.2925 326.800422 
L 456.5405 331.222945 
L 457.0365 322.426655 
L 457.2845 320.382069 
L 457.5325 326.748206 
L 457.7805 326.116485 
L 458.0285 323.156768 
L 458.2765 326.796099 
L 458.5245 321.997368 
L 458.7725 322.847198 
L 459.0205 335.089063 
L 459.2685 324.86619 
L 459.5165 319.610816 
L 459.7645 321.464836 
L 460.0125 328.506149 
L 460.2605 323.07335 
L 460.5085 324.11945 
L 460.7565 322.149349 
L 461.0045 328.252635 
L 461.2525 322.966867 
L 461.5005 320.823719 
L 461.7485 323.137082 
L 462.2445 320.46848 
L 462.4925 325.768445 
L 462.7405 321.645556 
L 462.9885 329.24977 
L 463.2365 319.590055 
L 463.4845 328.256031 
L 463.7325 325.961658 
L 463.9805 328.433311 
L 464.2285 325.800519 
L 464.4765 330.711221 
L 464.7245 325.912132 
L 464.9725 318.345081 
L 465.2205 319.853791 
L 465.4685 330.806538 
L 465.7165 324.165564 
L 465.9645 321.037557 
L 466.2125 319.693445 
L 466.4605 329.503323 
L 466.7085 312.700952 
L 467.2045 325.958214 
L 467.4525 321.460552 
L 467.7005 321.549499 
L 467.7005 321.549499 
" style="fill:none;stroke:#0000ff;stroke-linecap:square;stroke-width:0.5;"/>
   </g>
   <g id="patch_3">
    <path d="M 54.5325 368.74175 
L 54.5325 23.14175 
" style="fill:none;stroke:#000000;stroke-linecap:square;stroke-linejoin:miter;"/>
   </g>
   <g id="patch_4">
    <path d="M 54.5325 368.74175 
L 500.9325 368.74175 
" style="fill:none;stroke:#000000;stroke-linecap:square;stroke-linejoin:miter;"/>
   </g>
   <g id="patch_5">
    <path d="M 500.9325 368.74175 
L 500.9325 23.14175 
" style="fill:none;stroke:#000000;stroke-linecap:square;stroke-linejoin:miter;"/>
   </g>
   <g id="patch_6">
    <path d="M 54.5325 23.14175 
L 500.9325 23.14175 
" style="fill:none;stroke:#000000;stroke-linecap:square;stroke-linejoin:miter;"/>
   </g>
   <g id="matplotlib.axis_1">
    <g id="xtick_1">
     <g id="line2d_2">
      <defs>
       <path d="M 0 0 
L 0 -4 
" id="mf497316a47" style="stroke:#000000;stroke-width:0.5;"/>
      </defs>
      <g>
       <use style="stroke:#000000;stroke-width:0.5;" x="54.5325" xlink:href="#mf497316a47" y="368.74175"/>
      </g>
     </g>
     <g id="line2d_3">
      <defs>
       <path d="M 0 0 
L 0 4 
" id="m93cb63f159" style="stroke:#000000;stroke-width:0.5;"/>
      </defs>
      <g>
       <use style="stroke:#000000;stroke-width:0.5;" x="54.5325" xlink:href="#m93cb63f159" y="23.14175"/>
      </g>
     </g>
     <g id="text_1">
      <!-- 0 -->
      <defs>
       <path d="M 31.78125 66.40625 
Q 24.171875 66.40625 20.328125 58.90625 
Q 16.5 51.421875 16.5 36.375 
Q 16.5 21.390625 20.328125 13.890625 
Q 24.171875 6.390625 31.78125 6.390625 
Q 39.453125 6.390625 43.28125 13.890625 
Q 47.125 21.390625 47.125 36.375 
Q 47.125 51.421875 43.28125 58.90625 
Q 39.453125 66.40625 31.78125 66.40625 
M 31.78125 74.21875 
Q 44.046875 74.21875 50.515625 64.515625 
Q 56.984375 54.828125 56.984375 36.375 
Q 56.984375 17.96875 50.515625 8.265625 
Q 44.046875 -1.421875 31.78125 -1.421875 
Q 19.53125 -1.421875 13.0625 8.265625 
Q 6.59375 17.96875 6.59375 36.375 
Q 6.59375 54.828125 13.0625 64.515625 
Q 19.53125 74.21875 31.78125 74.21875 
" id="BitstreamVeraSans-Roman-30"/>
      </defs>
      <g transform="translate(50.715 381.859875)scale(0.12 -0.12)">
       <use xlink:href="#BitstreamVeraSans-Roman-30"/>
      </g>
     </g>
    </g>
    <g id="xtick_2">
     <g id="line2d_4">
      <g>
       <use style="stroke:#000000;stroke-width:0.5;" x="104.1325" xlink:href="#mf497316a47" y="368.74175"/>
      </g>
     </g>
     <g id="line2d_5">
      <g>
       <use style="stroke:#000000;stroke-width:0.5;" x="104.1325" xlink:href="#m93cb63f159" y="23.14175"/>
      </g>
     </g>
     <g id="text_2">
      <!-- 200 -->
      <defs>
       <path d="M 19.1875 8.296875 
L 53.609375 8.296875 
L 53.609375 0 
L 7.328125 0 
L 7.328125 8.296875 
Q 12.9375 14.109375 22.625 23.890625 
Q 32.328125 33.6875 34.8125 36.53125 
Q 39.546875 41.84375 41.421875 45.53125 
Q 43.3125 49.21875 43.3125 52.78125 
Q 43.3125 58.59375 39.234375 62.25 
Q 35.15625 65.921875 28.609375 65.921875 
Q 23.96875 65.921875 18.8125 64.3125 
Q 13.671875 62.703125 7.8125 59.421875 
L 7.8125 69.390625 
Q 13.765625 71.78125 18.9375 73 
Q 24.125 74.21875 28.421875 74.21875 
Q 39.75 74.21875 46.484375 68.546875 
Q 53.21875 62.890625 53.21875 53.421875 
Q 53.21875 48.921875 51.53125 44.890625 
Q 49.859375 40.875 45.40625 35.40625 
Q 44.1875 33.984375 37.640625 27.21875 
Q 31.109375 20.453125 19.1875 8.296875 
" id="BitstreamVeraSans-Roman-32"/>
      </defs>
      <g transform="translate(92.68 381.859875)scale(0.12 -0.12)">
       <use xlink:href="#BitstreamVeraSans-Roman-32"/>
       <use x="63.623046875" xlink:href="#BitstreamVeraSans-Roman-30"/>
       <use x="127.24609375" xlink:href="#BitstreamVeraSans-Roman-30"/>
      </g>
     </g>
    </g>
    <g id="xtick_3">
     <g id="line2d_6">
      <g>
       <use style="stroke:#000000;stroke-width:0.5;" x="153.7325" xlink:href="#mf497316a47" y="368.74175"/>
      </g>
     </g>
     <g id="line2d_7">
      <g>
       <use style="stroke:#000000;stroke-width:0.5;" x="153.7325" xlink:href="#m93cb63f159" y="23.14175"/>
      </g>
     </g>
     <g id="text_3">
      <!-- 400 -->
      <defs>
       <path d="M 37.796875 64.3125 
L 12.890625 25.390625 
L 37.796875 25.390625 
z
M 35.203125 72.90625 
L 47.609375 72.90625 
L 47.609375 25.390625 
L 58.015625 25.390625 
L 58.015625 17.1875 
L 47.609375 17.1875 
L 47.609375 0 
L 37.796875 0 
L 37.796875 17.1875 
L 4.890625 17.1875 
L 4.890625 26.703125 
z
" id="BitstreamVeraSans-Roman-34"/>
      </defs>
      <g transform="translate(142.28 381.859875)scale(0.12 -0.12)">
       <use xlink:href="#BitstreamVeraSans-Roman-34"/>
       <use x="63.623046875" xlink:href="#BitstreamVeraSans-Roman-30"/>
       <use x="127.24609375" xlink:href="#BitstreamVeraSans-Roman-30"/>
      </g>
     </g>
    </g>
    <g id="xtick_4">
     <g id="line2d_8">
      <g>
       <use style="stroke:#000000;stroke-width:0.5;" x="203.3325" xlink:href="#mf497316a47" y="368.74175"/>
      </g>
     </g>
     <g id="line2d_9">
      <g>
       <use style="stroke:#000000;stroke-width:0.5;" x="203.3325" xlink:href="#m93cb63f159" y="23.14175"/>
      </g>
     </g>
     <g id="text_4">
      <!-- 600 -->
      <defs>
       <path d="M 33.015625 40.375 
Q 26.375 40.375 22.484375 35.828125 
Q 18.609375 31.296875 18.609375 23.390625 
Q 18.609375 15.53125 22.484375 10.953125 
Q 26.375 6.390625 33.015625 6.390625 
Q 39.65625 6.390625 43.53125 10.953125 
Q 47.40625 15.53125 47.40625 23.390625 
Q 47.40625 31.296875 43.53125 35.828125 
Q 39.65625 40.375 33.015625 40.375 
M 52.59375 71.296875 
L 52.59375 62.3125 
Q 48.875 64.0625 45.09375 64.984375 
Q 41.3125 65.921875 37.59375 65.921875 
Q 27.828125 65.921875 22.671875 59.328125 
Q 17.53125 52.734375 16.796875 39.40625 
Q 19.671875 43.65625 24.015625 45.921875 
Q 28.375 48.1875 33.59375 48.1875 
Q 44.578125 48.1875 50.953125 41.515625 
Q 57.328125 34.859375 57.328125 23.390625 
Q 57.328125 12.15625 50.6875 5.359375 
Q 44.046875 -1.421875 33.015625 -1.421875 
Q 20.359375 -1.421875 13.671875 8.265625 
Q 6.984375 17.96875 6.984375 36.375 
Q 6.984375 53.65625 15.1875 63.9375 
Q 23.390625 74.21875 37.203125 74.21875 
Q 40.921875 74.21875 44.703125 73.484375 
Q 48.484375 72.75 52.59375 71.296875 
" id="BitstreamVeraSans-Roman-36"/>
      </defs>
      <g transform="translate(191.88 381.859875)scale(0.12 -0.12)">
       <use xlink:href="#BitstreamVeraSans-Roman-36"/>
       <use x="63.623046875" xlink:href="#BitstreamVeraSans-Roman-30"/>
       <use x="127.24609375" xlink:href="#BitstreamVeraSans-Roman-30"/>
      </g>
     </g>
    </g>
    <g id="xtick_5">
     <g id="line2d_10">
      <g>
       <use style="stroke:#000000;stroke-width:0.5;" x="252.9325" xlink:href="#mf497316a47" y="368.74175"/>
      </g>
     </g>
     <g id="line2d_11">
      <g>
       <use style="stroke:#000000;stroke-width:0.5;" x="252.9325" xlink:href="#m93cb63f159" y="23.14175"/>
      </g>
     </g>
     <g id="text_5">
      <!-- 800 -->
      <defs>
       <path d="M 31.78125 34.625 
Q 24.75 34.625 20.71875 30.859375 
Q 16.703125 27.09375 16.703125 20.515625 
Q 16.703125 13.921875 20.71875 10.15625 
Q 24.75 6.390625 31.78125 6.390625 
Q 38.8125 6.390625 42.859375 10.171875 
Q 46.921875 13.96875 46.921875 20.515625 
Q 46.921875 27.09375 42.890625 30.859375 
Q 38.875 34.625 31.78125 34.625 
M 21.921875 38.8125 
Q 15.578125 40.375 12.03125 44.71875 
Q 8.5 49.078125 8.5 55.328125 
Q 8.5 64.0625 14.71875 69.140625 
Q 20.953125 74.21875 31.78125 74.21875 
Q 42.671875 74.21875 48.875 69.140625 
Q 55.078125 64.0625 55.078125 55.328125 
Q 55.078125 49.078125 51.53125 44.71875 
Q 48 40.375 41.703125 38.8125 
Q 48.828125 37.15625 52.796875 32.3125 
Q 56.78125 27.484375 56.78125 20.515625 
Q 56.78125 9.90625 50.3125 4.234375 
Q 43.84375 -1.421875 31.78125 -1.421875 
Q 19.734375 -1.421875 13.25 4.234375 
Q 6.78125 9.90625 6.78125 20.515625 
Q 6.78125 27.484375 10.78125 32.3125 
Q 14.796875 37.15625 21.921875 38.8125 
M 18.3125 54.390625 
Q 18.3125 48.734375 21.84375 45.5625 
Q 25.390625 42.390625 31.78125 42.390625 
Q 38.140625 42.390625 41.71875 45.5625 
Q 45.3125 48.734375 45.3125 54.390625 
Q 45.3125 60.0625 41.71875 63.234375 
Q 38.140625 66.40625 31.78125 66.40625 
Q 25.390625 66.40625 21.84375 63.234375 
Q 18.3125 60.0625 18.3125 54.390625 
" id="BitstreamVeraSans-Roman-38"/>
      </defs>
      <g transform="translate(241.48 381.859875)scale(0.12 -0.12)">
       <use xlink:href="#BitstreamVeraSans-Roman-38"/>
       <use x="63.623046875" xlink:href="#BitstreamVeraSans-Roman-30"/>
       <use x="127.24609375" xlink:href="#BitstreamVeraSans-Roman-30"/>
      </g>
     </g>
    </g>
    <g id="xtick_6">
     <g id="line2d_12">
      <g>
       <use style="stroke:#000000;stroke-width:0.5;" x="302.5325" xlink:href="#mf497316a47" y="368.74175"/>
      </g>
     </g>
     <g id="line2d_13">
      <g>
       <use style="stroke:#000000;stroke-width:0.5;" x="302.5325" xlink:href="#m93cb63f159" y="23.14175"/>
      </g>
     </g>
     <g id="text_6">
      <!-- 1000 -->
      <defs>
       <path d="M 12.40625 8.296875 
L 28.515625 8.296875 
L 28.515625 63.921875 
L 10.984375 60.40625 
L 10.984375 69.390625 
L 28.421875 72.90625 
L 38.28125 72.90625 
L 38.28125 8.296875 
L 54.390625 8.296875 
L 54.390625 0 
L 12.40625 0 
z
" id="BitstreamVeraSans-Roman-31"/>
      </defs>
      <g transform="translate(287.2625 381.859875)scale(0.12 -0.12)">
       <use xlink:href="#BitstreamVeraSans-Roman-31"/>
       <use x="63.623046875" xlink:href="#BitstreamVeraSans-Roman-30"/>
       <use x="127.24609375" xlink:href="#BitstreamVeraSans-Roman-30"/>
       <use x="190.869140625" xlink:href="#BitstreamVeraSans-Roman-30"/>
      </g>
     </g>
    </g>
    <g id="xtick_7">
     <g id="line2d_14">
      <g>
       <use style="stroke:#000000;stroke-width:0.5;" x="352.1325" xlink:href="#mf497316a47" y="368.74175"/>
      </g>
     </g>
     <g id="line2d_15">
      <g>
       <use style="stroke:#000000;stroke-width:0.5;" x="352.1325" xlink:href="#m93cb63f159" y="23.14175"/>
      </g>
     </g>
     <g id="text_7">
      <!-- 1200 -->
      <g transform="translate(336.8625 381.859875)scale(0.12 -0.12)">
       <use xlink:href="#BitstreamVeraSans-Roman-31"/>
       <use x="63.623046875" xlink:href="#BitstreamVeraSans-Roman-32"/>
       <use x="127.24609375" xlink:href="#BitstreamVeraSans-Roman-30"/>
       <use x="190.869140625" xlink:href="#BitstreamVeraSans-Roman-30"/>
      </g>
     </g>
    </g>
    <g id="xtick_8">
     <g id="line2d_16">
      <g>
       <use style="stroke:#000000;stroke-width:0.5;" x="401.7325" xlink:href="#mf497316a47" y="368.74175"/>
      </g>
     </g>
     <g id="line2d_17">
      <g>
       <use style="stroke:#000000;stroke-width:0.5;" x="401.7325" xlink:href="#m93cb63f159" y="23.14175"/>
      </g>
     </g>
     <g id="text_8">
      <!-- 1400 -->
      <g transform="translate(386.4625 381.859875)scale(0.12 -0.12)">
       <use xlink:href="#BitstreamVeraSans-Roman-31"/>
       <use x="63.623046875" xlink:href="#BitstreamVeraSans-Roman-34"/>
       <use x="127.24609375" xlink:href="#BitstreamVeraSans-Roman-30"/>
       <use x="190.869140625" xlink:href="#BitstreamVeraSans-Roman-30"/>
      </g>
     </g>
    </g>
    <g id="xtick_9">
     <g id="line2d_18">
      <g>
       <use style="stroke:#000000;stroke-width:0.5;" x="451.3325" xlink:href="#mf497316a47" y="368.74175"/>
      </g>
     </g>
     <g id="line2d_19">
      <g>
       <use style="stroke:#000000;stroke-width:0.5;" x="451.3325" xlink:href="#m93cb63f159" y="23.14175"/>
      </g>
     </g>
     <g id="text_9">
      <!-- 1600 -->
      <g transform="translate(436.0625 381.859875)scale(0.12 -0.12)">
       <use xlink:href="#BitstreamVeraSans-Roman-31"/>
       <use x="63.623046875" xlink:href="#BitstreamVeraSans-Roman-36"/>
       <use x="127.24609375" xlink:href="#BitstreamVeraSans-Roman-30"/>
       <use x="190.869140625" xlink:href="#BitstreamVeraSans-Roman-30"/>
      </g>
     </g>
    </g>
    <g id="xtick_10">
     <g id="line2d_20">
      <g>
       <use style="stroke:#000000;stroke-width:0.5;" x="500.9325" xlink:href="#mf497316a47" y="368.74175"/>
      </g>
     </g>
     <g id="line2d_21">
      <g>
       <use style="stroke:#000000;stroke-width:0.5;" x="500.9325" xlink:href="#m93cb63f159" y="23.14175"/>
      </g>
     </g>
     <g id="text_10">
      <!-- 1800 -->
      <g transform="translate(485.6625 381.859875)scale(0.12 -0.12)">
       <use xlink:href="#BitstreamVeraSans-Roman-31"/>
       <use x="63.623046875" xlink:href="#BitstreamVeraSans-Roman-38"/>
       <use x="127.24609375" xlink:href="#BitstreamVeraSans-Roman-30"/>
       <use x="190.869140625" xlink:href="#BitstreamVeraSans-Roman-30"/>
      </g>
     </g>
    </g>
    <g id="text_11">
     <!-- episodes -->
     <defs>
      <path d="M 45.40625 46.390625 
L 45.40625 75.984375 
L 54.390625 75.984375 
L 54.390625 0 
L 45.40625 0 
L 45.40625 8.203125 
Q 42.578125 3.328125 38.25 0.953125 
Q 33.9375 -1.421875 27.875 -1.421875 
Q 17.96875 -1.421875 11.734375 6.484375 
Q 5.515625 14.40625 5.515625 27.296875 
Q 5.515625 40.1875 11.734375 48.09375 
Q 17.96875 56 27.875 56 
Q 33.9375 56 38.25 53.625 
Q 42.578125 51.265625 45.40625 46.390625 
M 14.796875 27.296875 
Q 14.796875 17.390625 18.875 11.75 
Q 22.953125 6.109375 30.078125 6.109375 
Q 37.203125 6.109375 41.296875 11.75 
Q 45.40625 17.390625 45.40625 27.296875 
Q 45.40625 37.203125 41.296875 42.84375 
Q 37.203125 48.484375 30.078125 48.484375 
Q 22.953125 48.484375 18.875 42.84375 
Q 14.796875 37.203125 14.796875 27.296875 
" id="BitstreamVeraSans-Roman-64"/>
      <path d="M 44.28125 53.078125 
L 44.28125 44.578125 
Q 40.484375 46.53125 36.375 47.5 
Q 32.28125 48.484375 27.875 48.484375 
Q 21.1875 48.484375 17.84375 46.4375 
Q 14.5 44.390625 14.5 40.28125 
Q 14.5 37.15625 16.890625 35.375 
Q 19.28125 33.59375 26.515625 31.984375 
L 29.59375 31.296875 
Q 39.15625 29.25 43.1875 25.515625 
Q 47.21875 21.78125 47.21875 15.09375 
Q 47.21875 7.46875 41.1875 3.015625 
Q 35.15625 -1.421875 24.609375 -1.421875 
Q 20.21875 -1.421875 15.453125 -0.5625 
Q 10.6875 0.296875 5.421875 2 
L 5.421875 11.28125 
Q 10.40625 8.6875 15.234375 7.390625 
Q 20.0625 6.109375 24.8125 6.109375 
Q 31.15625 6.109375 34.5625 8.28125 
Q 37.984375 10.453125 37.984375 14.40625 
Q 37.984375 18.0625 35.515625 20.015625 
Q 33.0625 21.96875 24.703125 23.78125 
L 21.578125 24.515625 
Q 13.234375 26.265625 9.515625 29.90625 
Q 5.8125 33.546875 5.8125 39.890625 
Q 5.8125 47.609375 11.28125 51.796875 
Q 16.75 56 26.8125 56 
Q 31.78125 56 36.171875 55.265625 
Q 40.578125 54.546875 44.28125 53.078125 
" id="BitstreamVeraSans-Roman-73"/>
      <path d="M 56.203125 29.59375 
L 56.203125 25.203125 
L 14.890625 25.203125 
Q 15.484375 15.921875 20.484375 11.0625 
Q 25.484375 6.203125 34.421875 6.203125 
Q 39.59375 6.203125 44.453125 7.46875 
Q 49.3125 8.734375 54.109375 11.28125 
L 54.109375 2.78125 
Q 49.265625 0.734375 44.1875 -0.34375 
Q 39.109375 -1.421875 33.890625 -1.421875 
Q 20.796875 -1.421875 13.15625 6.1875 
Q 5.515625 13.8125 5.515625 26.8125 
Q 5.515625 40.234375 12.765625 48.109375 
Q 20.015625 56 32.328125 56 
Q 43.359375 56 49.78125 48.890625 
Q 56.203125 41.796875 56.203125 29.59375 
M 47.21875 32.234375 
Q 47.125 39.59375 43.09375 43.984375 
Q 39.0625 48.390625 32.421875 48.390625 
Q 24.90625 48.390625 20.390625 44.140625 
Q 15.875 39.890625 15.1875 32.171875 
z
" id="BitstreamVeraSans-Roman-65"/>
      <path d="M 9.421875 54.6875 
L 18.40625 54.6875 
L 18.40625 0 
L 9.421875 0 
z
M 9.421875 75.984375 
L 18.40625 75.984375 
L 18.40625 64.59375 
L 9.421875 64.59375 
z
" id="BitstreamVeraSans-Roman-69"/>
      <path d="M 18.109375 8.203125 
L 18.109375 -20.796875 
L 9.078125 -20.796875 
L 9.078125 54.6875 
L 18.109375 54.6875 
L 18.109375 46.390625 
Q 20.953125 51.265625 25.265625 53.625 
Q 29.59375 56 35.59375 56 
Q 45.5625 56 51.78125 48.09375 
Q 58.015625 40.1875 58.015625 27.296875 
Q 58.015625 14.40625 51.78125 6.484375 
Q 45.5625 -1.421875 35.59375 -1.421875 
Q 29.59375 -1.421875 25.265625 0.953125 
Q 20.953125 3.328125 18.109375 8.203125 
M 48.6875 27.296875 
Q 48.6875 37.203125 44.609375 42.84375 
Q 40.53125 48.484375 33.40625 48.484375 
Q 26.265625 48.484375 22.1875 42.84375 
Q 18.109375 37.203125 18.109375 27.296875 
Q 18.109375 17.390625 22.1875 11.75 
Q 26.265625 6.109375 33.40625 6.109375 
Q 40.53125 6.109375 44.609375 11.75 
Q 48.6875 17.390625 48.6875 27.296875 
" id="BitstreamVeraSans-Roman-70"/>
      <path d="M 30.609375 48.390625 
Q 23.390625 48.390625 19.1875 42.75 
Q 14.984375 37.109375 14.984375 27.296875 
Q 14.984375 17.484375 19.15625 11.84375 
Q 23.34375 6.203125 30.609375 6.203125 
Q 37.796875 6.203125 41.984375 11.859375 
Q 46.1875 17.53125 46.1875 27.296875 
Q 46.1875 37.015625 41.984375 42.703125 
Q 37.796875 48.390625 30.609375 48.390625 
M 30.609375 56 
Q 42.328125 56 49.015625 48.375 
Q 55.71875 40.765625 55.71875 27.296875 
Q 55.71875 13.875 49.015625 6.21875 
Q 42.328125 -1.421875 30.609375 -1.421875 
Q 18.84375 -1.421875 12.171875 6.21875 
Q 5.515625 13.875 5.515625 27.296875 
Q 5.515625 40.765625 12.171875 48.375 
Q 18.84375 56 30.609375 56 
" id="BitstreamVeraSans-Roman-6f"/>
     </defs>
     <g transform="translate(251.14125 398.473625)scale(0.12 -0.12)">
      <use xlink:href="#BitstreamVeraSans-Roman-65"/>
      <use x="61.5234375" xlink:href="#BitstreamVeraSans-Roman-70"/>
      <use x="125.0" xlink:href="#BitstreamVeraSans-Roman-69"/>
      <use x="152.783203125" xlink:href="#BitstreamVeraSans-Roman-73"/>
      <use x="204.8828125" xlink:href="#BitstreamVeraSans-Roman-6f"/>
      <use x="266.064453125" xlink:href="#BitstreamVeraSans-Roman-64"/>
      <use x="329.541015625" xlink:href="#BitstreamVeraSans-Roman-65"/>
      <use x="391.064453125" xlink:href="#BitstreamVeraSans-Roman-73"/>
     </g>
    </g>
   </g>
   <g id="matplotlib.axis_2">
    <g id="ytick_1">
     <g id="line2d_22">
      <defs>
       <path d="M 0 0 
L 4 0 
" id="ma0d212607f" style="stroke:#000000;stroke-width:0.5;"/>
      </defs>
      <g>
       <use style="stroke:#000000;stroke-width:0.5;" x="54.5325" xlink:href="#ma0d212607f" y="368.74175"/>
      </g>
     </g>
     <g id="line2d_23">
      <defs>
       <path d="M 0 0 
L -4 0 
" id="m785b2285db" style="stroke:#000000;stroke-width:0.5;"/>
      </defs>
      <g>
       <use style="stroke:#000000;stroke-width:0.5;" x="500.9325" xlink:href="#m785b2285db" y="368.74175"/>
      </g>
     </g>
     <g id="text_12">
      <!-- 0.00 -->
      <defs>
       <path d="M 10.6875 12.40625 
L 21 12.40625 
L 21 0 
L 10.6875 0 
z
" id="BitstreamVeraSans-Roman-2e"/>
      </defs>
      <g transform="translate(23.81375 372.053)scale(0.12 -0.12)">
       <use xlink:href="#BitstreamVeraSans-Roman-30"/>
       <use x="63.623046875" xlink:href="#BitstreamVeraSans-Roman-2e"/>
       <use x="95.41015625" xlink:href="#BitstreamVeraSans-Roman-30"/>
       <use x="159.033203125" xlink:href="#BitstreamVeraSans-Roman-30"/>
      </g>
     </g>
    </g>
    <g id="ytick_2">
     <g id="line2d_24">
      <g>
       <use style="stroke:#000000;stroke-width:0.5;" x="54.5325" xlink:href="#ma0d212607f" y="325.54175"/>
      </g>
     </g>
     <g id="line2d_25">
      <g>
       <use style="stroke:#000000;stroke-width:0.5;" x="500.9325" xlink:href="#m785b2285db" y="325.54175"/>
      </g>
     </g>
     <g id="text_13">
      <!-- 0.02 -->
      <g transform="translate(23.81375 328.853)scale(0.12 -0.12)">
       <use xlink:href="#BitstreamVeraSans-Roman-30"/>
       <use x="63.623046875" xlink:href="#BitstreamVeraSans-Roman-2e"/>
       <use x="95.41015625" xlink:href="#BitstreamVeraSans-Roman-30"/>
       <use x="159.033203125" xlink:href="#BitstreamVeraSans-Roman-32"/>
      </g>
     </g>
    </g>
    <g id="ytick_3">
     <g id="line2d_26">
      <g>
       <use style="stroke:#000000;stroke-width:0.5;" x="54.5325" xlink:href="#ma0d212607f" y="282.34175"/>
      </g>
     </g>
     <g id="line2d_27">
      <g>
       <use style="stroke:#000000;stroke-width:0.5;" x="500.9325" xlink:href="#m785b2285db" y="282.34175"/>
      </g>
     </g>
     <g id="text_14">
      <!-- 0.04 -->
      <g transform="translate(23.81375 285.653)scale(0.12 -0.12)">
       <use xlink:href="#BitstreamVeraSans-Roman-30"/>
       <use x="63.623046875" xlink:href="#BitstreamVeraSans-Roman-2e"/>
       <use x="95.41015625" xlink:href="#BitstreamVeraSans-Roman-30"/>
       <use x="159.033203125" xlink:href="#BitstreamVeraSans-Roman-34"/>
      </g>
     </g>
    </g>
    <g id="ytick_4">
     <g id="line2d_28">
      <g>
       <use style="stroke:#000000;stroke-width:0.5;" x="54.5325" xlink:href="#ma0d212607f" y="239.14175"/>
      </g>
     </g>
     <g id="line2d_29">
      <g>
       <use style="stroke:#000000;stroke-width:0.5;" x="500.9325" xlink:href="#m785b2285db" y="239.14175"/>
      </g>
     </g>
     <g id="text_15">
      <!-- 0.06 -->
      <g transform="translate(23.81375 242.453)scale(0.12 -0.12)">
       <use xlink:href="#BitstreamVeraSans-Roman-30"/>
       <use x="63.623046875" xlink:href="#BitstreamVeraSans-Roman-2e"/>
       <use x="95.41015625" xlink:href="#BitstreamVeraSans-Roman-30"/>
       <use x="159.033203125" xlink:href="#BitstreamVeraSans-Roman-36"/>
      </g>
     </g>
    </g>
    <g id="ytick_5">
     <g id="line2d_30">
      <g>
       <use style="stroke:#000000;stroke-width:0.5;" x="54.5325" xlink:href="#ma0d212607f" y="195.94175"/>
      </g>
     </g>
     <g id="line2d_31">
      <g>
       <use style="stroke:#000000;stroke-width:0.5;" x="500.9325" xlink:href="#m785b2285db" y="195.94175"/>
      </g>
     </g>
     <g id="text_16">
      <!-- 0.08 -->
      <g transform="translate(23.81375 199.253)scale(0.12 -0.12)">
       <use xlink:href="#BitstreamVeraSans-Roman-30"/>
       <use x="63.623046875" xlink:href="#BitstreamVeraSans-Roman-2e"/>
       <use x="95.41015625" xlink:href="#BitstreamVeraSans-Roman-30"/>
       <use x="159.033203125" xlink:href="#BitstreamVeraSans-Roman-38"/>
      </g>
     </g>
    </g>
    <g id="ytick_6">
     <g id="line2d_32">
      <g>
       <use style="stroke:#000000;stroke-width:0.5;" x="54.5325" xlink:href="#ma0d212607f" y="152.74175"/>
      </g>
     </g>
     <g id="line2d_33">
      <g>
       <use style="stroke:#000000;stroke-width:0.5;" x="500.9325" xlink:href="#m785b2285db" y="152.74175"/>
      </g>
     </g>
     <g id="text_17">
      <!-- 0.10 -->
      <g transform="translate(23.81375 156.053)scale(0.12 -0.12)">
       <use xlink:href="#BitstreamVeraSans-Roman-30"/>
       <use x="63.623046875" xlink:href="#BitstreamVeraSans-Roman-2e"/>
       <use x="95.41015625" xlink:href="#BitstreamVeraSans-Roman-31"/>
       <use x="159.033203125" xlink:href="#BitstreamVeraSans-Roman-30"/>
      </g>
     </g>
    </g>
    <g id="ytick_7">
     <g id="line2d_34">
      <g>
       <use style="stroke:#000000;stroke-width:0.5;" x="54.5325" xlink:href="#ma0d212607f" y="109.54175"/>
      </g>
     </g>
     <g id="line2d_35">
      <g>
       <use style="stroke:#000000;stroke-width:0.5;" x="500.9325" xlink:href="#m785b2285db" y="109.54175"/>
      </g>
     </g>
     <g id="text_18">
      <!-- 0.12 -->
      <g transform="translate(23.81375 112.853)scale(0.12 -0.12)">
       <use xlink:href="#BitstreamVeraSans-Roman-30"/>
       <use x="63.623046875" xlink:href="#BitstreamVeraSans-Roman-2e"/>
       <use x="95.41015625" xlink:href="#BitstreamVeraSans-Roman-31"/>
       <use x="159.033203125" xlink:href="#BitstreamVeraSans-Roman-32"/>
      </g>
     </g>
    </g>
    <g id="ytick_8">
     <g id="line2d_36">
      <g>
       <use style="stroke:#000000;stroke-width:0.5;" x="54.5325" xlink:href="#ma0d212607f" y="66.34175"/>
      </g>
     </g>
     <g id="line2d_37">
      <g>
       <use style="stroke:#000000;stroke-width:0.5;" x="500.9325" xlink:href="#m785b2285db" y="66.34175"/>
      </g>
     </g>
     <g id="text_19">
      <!-- 0.14 -->
      <g transform="translate(23.81375 69.653)scale(0.12 -0.12)">
       <use xlink:href="#BitstreamVeraSans-Roman-30"/>
       <use x="63.623046875" xlink:href="#BitstreamVeraSans-Roman-2e"/>
       <use x="95.41015625" xlink:href="#BitstreamVeraSans-Roman-31"/>
       <use x="159.033203125" xlink:href="#BitstreamVeraSans-Roman-34"/>
      </g>
     </g>
    </g>
    <g id="ytick_9">
     <g id="line2d_38">
      <g>
       <use style="stroke:#000000;stroke-width:0.5;" x="54.5325" xlink:href="#ma0d212607f" y="23.14175"/>
      </g>
     </g>
     <g id="line2d_39">
      <g>
       <use style="stroke:#000000;stroke-width:0.5;" x="500.9325" xlink:href="#m785b2285db" y="23.14175"/>
      </g>
     </g>
     <g id="text_20">
      <!-- 0.16 -->
      <g transform="translate(23.81375 26.453)scale(0.12 -0.12)">
       <use xlink:href="#BitstreamVeraSans-Roman-30"/>
       <use x="63.623046875" xlink:href="#BitstreamVeraSans-Roman-2e"/>
       <use x="95.41015625" xlink:href="#BitstreamVeraSans-Roman-31"/>
       <use x="159.033203125" xlink:href="#BitstreamVeraSans-Roman-36"/>
      </g>
     </g>
    </g>
    <g id="text_21">
     <!-- average maxQ -->
     <defs>
      <path d="M 54.890625 54.6875 
L 35.109375 28.078125 
L 55.90625 0 
L 45.3125 0 
L 29.390625 21.484375 
L 13.484375 0 
L 2.875 0 
L 24.125 28.609375 
L 4.6875 54.6875 
L 15.28125 54.6875 
L 29.78125 35.203125 
L 44.28125 54.6875 
z
" id="BitstreamVeraSans-Roman-78"/>
      <path d="M 45.40625 27.984375 
Q 45.40625 37.75 41.375 43.109375 
Q 37.359375 48.484375 30.078125 48.484375 
Q 22.859375 48.484375 18.828125 43.109375 
Q 14.796875 37.75 14.796875 27.984375 
Q 14.796875 18.265625 18.828125 12.890625 
Q 22.859375 7.515625 30.078125 7.515625 
Q 37.359375 7.515625 41.375 12.890625 
Q 45.40625 18.265625 45.40625 27.984375 
M 54.390625 6.78125 
Q 54.390625 -7.171875 48.1875 -13.984375 
Q 42 -20.796875 29.203125 -20.796875 
Q 24.46875 -20.796875 20.265625 -20.09375 
Q 16.0625 -19.390625 12.109375 -17.921875 
L 12.109375 -9.1875 
Q 16.0625 -11.328125 19.921875 -12.34375 
Q 23.78125 -13.375 27.78125 -13.375 
Q 36.625 -13.375 41.015625 -8.765625 
Q 45.40625 -4.15625 45.40625 5.171875 
L 45.40625 9.625 
Q 42.625 4.78125 38.28125 2.390625 
Q 33.9375 0 27.875 0 
Q 17.828125 0 11.671875 7.65625 
Q 5.515625 15.328125 5.515625 27.984375 
Q 5.515625 40.671875 11.671875 48.328125 
Q 17.828125 56 27.875 56 
Q 33.9375 56 38.28125 53.609375 
Q 42.625 51.21875 45.40625 46.390625 
L 45.40625 54.6875 
L 54.390625 54.6875 
z
" id="BitstreamVeraSans-Roman-67"/>
      <path d="M 2.984375 54.6875 
L 12.5 54.6875 
L 29.59375 8.796875 
L 46.6875 54.6875 
L 56.203125 54.6875 
L 35.6875 0 
L 23.484375 0 
z
" id="BitstreamVeraSans-Roman-76"/>
      <path d="M 39.40625 66.21875 
Q 28.65625 66.21875 22.328125 58.203125 
Q 16.015625 50.203125 16.015625 36.375 
Q 16.015625 22.609375 22.328125 14.59375 
Q 28.65625 6.59375 39.40625 6.59375 
Q 50.140625 6.59375 56.421875 14.59375 
Q 62.703125 22.609375 62.703125 36.375 
Q 62.703125 50.203125 56.421875 58.203125 
Q 50.140625 66.21875 39.40625 66.21875 
M 53.21875 1.3125 
L 66.21875 -12.890625 
L 54.296875 -12.890625 
L 43.5 -1.21875 
Q 41.890625 -1.3125 41.03125 -1.359375 
Q 40.1875 -1.421875 39.40625 -1.421875 
Q 24.03125 -1.421875 14.8125 8.859375 
Q 5.609375 19.140625 5.609375 36.375 
Q 5.609375 53.65625 14.8125 63.9375 
Q 24.03125 74.21875 39.40625 74.21875 
Q 54.734375 74.21875 63.90625 63.9375 
Q 73.09375 53.65625 73.09375 36.375 
Q 73.09375 23.6875 67.984375 14.640625 
Q 62.890625 5.609375 53.21875 1.3125 
" id="BitstreamVeraSans-Roman-51"/>
      <path id="BitstreamVeraSans-Roman-20"/>
      <path d="M 41.109375 46.296875 
Q 39.59375 47.171875 37.8125 47.578125 
Q 36.03125 48 33.890625 48 
Q 26.265625 48 22.1875 43.046875 
Q 18.109375 38.09375 18.109375 28.8125 
L 18.109375 0 
L 9.078125 0 
L 9.078125 54.6875 
L 18.109375 54.6875 
L 18.109375 46.1875 
Q 20.953125 51.171875 25.484375 53.578125 
Q 30.03125 56 36.53125 56 
Q 37.453125 56 38.578125 55.875 
Q 39.703125 55.765625 41.0625 55.515625 
z
" id="BitstreamVeraSans-Roman-72"/>
      <path d="M 34.28125 27.484375 
Q 23.390625 27.484375 19.1875 25 
Q 14.984375 22.515625 14.984375 16.5 
Q 14.984375 11.71875 18.140625 8.90625 
Q 21.296875 6.109375 26.703125 6.109375 
Q 34.1875 6.109375 38.703125 11.40625 
Q 43.21875 16.703125 43.21875 25.484375 
L 43.21875 27.484375 
z
M 52.203125 31.203125 
L 52.203125 0 
L 43.21875 0 
L 43.21875 8.296875 
Q 40.140625 3.328125 35.546875 0.953125 
Q 30.953125 -1.421875 24.3125 -1.421875 
Q 15.921875 -1.421875 10.953125 3.296875 
Q 6 8.015625 6 15.921875 
Q 6 25.140625 12.171875 29.828125 
Q 18.359375 34.515625 30.609375 34.515625 
L 43.21875 34.515625 
L 43.21875 35.40625 
Q 43.21875 41.609375 39.140625 45 
Q 35.0625 48.390625 27.6875 48.390625 
Q 23 48.390625 18.546875 47.265625 
Q 14.109375 46.140625 10.015625 43.890625 
L 10.015625 52.203125 
Q 14.9375 54.109375 19.578125 55.046875 
Q 24.21875 56 28.609375 56 
Q 40.484375 56 46.34375 49.84375 
Q 52.203125 43.703125 52.203125 31.203125 
" id="BitstreamVeraSans-Roman-61"/>
      <path d="M 52 44.1875 
Q 55.375 50.25 60.0625 53.125 
Q 64.75 56 71.09375 56 
Q 79.640625 56 84.28125 50.015625 
Q 88.921875 44.046875 88.921875 33.015625 
L 88.921875 0 
L 79.890625 0 
L 79.890625 32.71875 
Q 79.890625 40.578125 77.09375 44.375 
Q 74.3125 48.1875 68.609375 48.1875 
Q 61.625 48.1875 57.5625 43.546875 
Q 53.515625 38.921875 53.515625 30.90625 
L 53.515625 0 
L 44.484375 0 
L 44.484375 32.71875 
Q 44.484375 40.625 41.703125 44.40625 
Q 38.921875 48.1875 33.109375 48.1875 
Q 26.21875 48.1875 22.15625 43.53125 
Q 18.109375 38.875 18.109375 30.90625 
L 18.109375 0 
L 9.078125 0 
L 9.078125 54.6875 
L 18.109375 54.6875 
L 18.109375 46.1875 
Q 21.1875 51.21875 25.484375 53.609375 
Q 29.78125 56 35.6875 56 
Q 41.65625 56 45.828125 52.96875 
Q 50 49.953125 52 44.1875 
" id="BitstreamVeraSans-Roman-6d"/>
     </defs>
     <g transform="translate(16.318125 240.208625)rotate(-90.0)scale(0.12 -0.12)">
      <use xlink:href="#BitstreamVeraSans-Roman-61"/>
      <use x="61.279296875" xlink:href="#BitstreamVeraSans-Roman-76"/>
      <use x="120.458984375" xlink:href="#BitstreamVeraSans-Roman-65"/>
      <use x="181.982421875" xlink:href="#BitstreamVeraSans-Roman-72"/>
      <use x="223.095703125" xlink:href="#BitstreamVeraSans-Roman-61"/>
      <use x="284.375" xlink:href="#BitstreamVeraSans-Roman-67"/>
      <use x="347.8515625" xlink:href="#BitstreamVeraSans-Roman-65"/>
      <use x="409.375" xlink:href="#BitstreamVeraSans-Roman-20"/>
      <use x="441.162109375" xlink:href="#BitstreamVeraSans-Roman-6d"/>
      <use x="538.57421875" xlink:href="#BitstreamVeraSans-Roman-61"/>
      <use x="599.853515625" xlink:href="#BitstreamVeraSans-Roman-78"/>
      <use x="659.033203125" xlink:href="#BitstreamVeraSans-Roman-51"/>
     </g>
    </g>
   </g>
   <g id="text_22">
    <!-- Average maxQ per episode, joint3 -->
    <defs>
     <path d="M 34.1875 63.1875 
L 20.796875 26.90625 
L 47.609375 26.90625 
z
M 28.609375 72.90625 
L 39.796875 72.90625 
L 67.578125 0 
L 57.328125 0 
L 50.6875 18.703125 
L 17.828125 18.703125 
L 11.1875 0 
L 0.78125 0 
z
" id="BitstreamVeraSans-Roman-41"/>
     <path d="M 11.71875 12.40625 
L 22.015625 12.40625 
L 22.015625 4 
L 14.015625 -11.625 
L 7.71875 -11.625 
L 11.71875 4 
z
" id="BitstreamVeraSans-Roman-2c"/>
     <path d="M 54.890625 33.015625 
L 54.890625 0 
L 45.90625 0 
L 45.90625 32.71875 
Q 45.90625 40.484375 42.875 44.328125 
Q 39.84375 48.1875 33.796875 48.1875 
Q 26.515625 48.1875 22.3125 43.546875 
Q 18.109375 38.921875 18.109375 30.90625 
L 18.109375 0 
L 9.078125 0 
L 9.078125 54.6875 
L 18.109375 54.6875 
L 18.109375 46.1875 
Q 21.34375 51.125 25.703125 53.5625 
Q 30.078125 56 35.796875 56 
Q 45.21875 56 50.046875 50.171875 
Q 54.890625 44.34375 54.890625 33.015625 
" id="BitstreamVeraSans-Roman-6e"/>
     <path d="M 40.578125 39.3125 
Q 47.65625 37.796875 51.625 33 
Q 55.609375 28.21875 55.609375 21.1875 
Q 55.609375 10.40625 48.1875 4.484375 
Q 40.765625 -1.421875 27.09375 -1.421875 
Q 22.515625 -1.421875 17.65625 -0.515625 
Q 12.796875 0.390625 7.625 2.203125 
L 7.625 11.71875 
Q 11.71875 9.328125 16.59375 8.109375 
Q 21.484375 6.890625 26.8125 6.890625 
Q 36.078125 6.890625 40.9375 10.546875 
Q 45.796875 14.203125 45.796875 21.1875 
Q 45.796875 27.640625 41.28125 31.265625 
Q 36.765625 34.90625 28.71875 34.90625 
L 20.21875 34.90625 
L 20.21875 43.015625 
L 29.109375 43.015625 
Q 36.375 43.015625 40.234375 45.921875 
Q 44.09375 48.828125 44.09375 54.296875 
Q 44.09375 59.90625 40.109375 62.90625 
Q 36.140625 65.921875 28.71875 65.921875 
Q 24.65625 65.921875 20.015625 65.03125 
Q 15.375 64.15625 9.8125 62.3125 
L 9.8125 71.09375 
Q 15.4375 72.65625 20.34375 73.4375 
Q 25.25 74.21875 29.59375 74.21875 
Q 40.828125 74.21875 47.359375 69.109375 
Q 53.90625 64.015625 53.90625 55.328125 
Q 53.90625 49.265625 50.4375 45.09375 
Q 46.96875 40.921875 40.578125 39.3125 
" id="BitstreamVeraSans-Roman-33"/>
     <path d="M 18.3125 70.21875 
L 18.3125 54.6875 
L 36.8125 54.6875 
L 36.8125 47.703125 
L 18.3125 47.703125 
L 18.3125 18.015625 
Q 18.3125 11.328125 20.140625 9.421875 
Q 21.96875 7.515625 27.59375 7.515625 
L 36.8125 7.515625 
L 36.8125 0 
L 27.59375 0 
Q 17.1875 0 13.234375 3.875 
Q 9.28125 7.765625 9.28125 18.015625 
L 9.28125 47.703125 
L 2.6875 47.703125 
L 2.6875 54.6875 
L 9.28125 54.6875 
L 9.28125 70.21875 
z
" id="BitstreamVeraSans-Roman-74"/>
     <path d="M 9.421875 54.6875 
L 18.40625 54.6875 
L 18.40625 -0.984375 
Q 18.40625 -11.421875 14.421875 -16.109375 
Q 10.453125 -20.796875 1.609375 -20.796875 
L -1.8125 -20.796875 
L -1.8125 -13.1875 
L 0.59375 -13.1875 
Q 5.71875 -13.1875 7.5625 -10.8125 
Q 9.421875 -8.453125 9.421875 -0.984375 
z
M 9.421875 75.984375 
L 18.40625 75.984375 
L 18.40625 64.59375 
L 9.421875 64.59375 
z
" id="BitstreamVeraSans-Roman-6a"/>
    </defs>
    <g transform="translate(154.4595 18.14175)scale(0.144 -0.144)">
     <use xlink:href="#BitstreamVeraSans-Roman-41"/>
     <use x="68.330078125" xlink:href="#BitstreamVeraSans-Roman-76"/>
     <use x="127.509765625" xlink:href="#BitstreamVeraSans-Roman-65"/>
     <use x="189.033203125" xlink:href="#BitstreamVeraSans-Roman-72"/>
     <use x="230.146484375" xlink:href="#BitstreamVeraSans-Roman-61"/>
     <use x="291.42578125" xlink:href="#BitstreamVeraSans-Roman-67"/>
     <use x="354.90234375" xlink:href="#BitstreamVeraSans-Roman-65"/>
     <use x="416.42578125" xlink:href="#BitstreamVeraSans-Roman-20"/>
     <use x="448.212890625" xlink:href="#BitstreamVeraSans-Roman-6d"/>
     <use x="545.625" xlink:href="#BitstreamVeraSans-Roman-61"/>
     <use x="606.904296875" xlink:href="#BitstreamVeraSans-Roman-78"/>
     <use x="666.083984375" xlink:href="#BitstreamVeraSans-Roman-51"/>
     <use x="744.794921875" xlink:href="#BitstreamVeraSans-Roman-20"/>
     <use x="776.58203125" xlink:href="#BitstreamVeraSans-Roman-70"/>
     <use x="840.05859375" xlink:href="#BitstreamVeraSans-Roman-65"/>
     <use x="901.58203125" xlink:href="#BitstreamVeraSans-Roman-72"/>
     <use x="942.6953125" xlink:href="#BitstreamVeraSans-Roman-20"/>
     <use x="974.482421875" xlink:href="#BitstreamVeraSans-Roman-65"/>
     <use x="1036.005859375" xlink:href="#BitstreamVeraSans-Roman-70"/>
     <use x="1099.482421875" xlink:href="#BitstreamVeraSans-Roman-69"/>
     <use x="1127.265625" xlink:href="#BitstreamVeraSans-Roman-73"/>
     <use x="1179.365234375" xlink:href="#BitstreamVeraSans-Roman-6f"/>
     <use x="1240.546875" xlink:href="#BitstreamVeraSans-Roman-64"/>
     <use x="1304.0234375" xlink:href="#BitstreamVeraSans-Roman-65"/>
     <use x="1365.546875" xlink:href="#BitstreamVeraSans-Roman-2c"/>
     <use x="1397.333984375" xlink:href="#BitstreamVeraSans-Roman-20"/>
     <use x="1429.12109375" xlink:href="#BitstreamVeraSans-Roman-6a"/>
     <use x="1456.904296875" xlink:href="#BitstreamVeraSans-Roman-6f"/>
     <use x="1518.0859375" xlink:href="#BitstreamVeraSans-Roman-69"/>
     <use x="1545.869140625" xlink:href="#BitstreamVeraSans-Roman-6e"/>
     <use x="1609.248046875" xlink:href="#BitstreamVeraSans-Roman-74"/>
     <use x="1648.45703125" xlink:href="#BitstreamVeraSans-Roman-33"/>
    </g>
   </g>
  </g>
 </g>
 <defs>
  <clipPath id="p8d34ccee87">
   <rect height="345.6" width="446.4" x="54.5325" y="23.14175"/>
  </clipPath>
 </defs>
</svg>
