<?xml version="1.0" encoding="utf-8" standalone="no"?>
<!DOCTYPE svg PUBLIC "-//W3C//DTD SVG 1.1//EN"
  "http://www.w3.org/Graphics/SVG/1.1/DTD/svg11.dtd">
<!-- Created with matplotlib (http://matplotlib.org/) -->
<svg height="408pt" version="1.1" viewBox="0 0 525 408" width="525pt" xmlns="http://www.w3.org/2000/svg" xmlns:xlink="http://www.w3.org/1999/xlink">
 <defs>
  <style type="text/css">
*{stroke-linecap:butt;stroke-linejoin:round;stroke-miterlimit:100000;}
  </style>
 </defs>
 <g id="figure_1">
  <g id="patch_1">
   <path d="M 0 408.16925 
L 525.823125 408.16925 
L 525.823125 0 
L 0 0 
z
" style="fill:#ffffff;"/>
  </g>
  <g id="axes_1">
   <g id="patch_2">
    <path d="M 56.953125 368.74175 
L 503.353125 368.74175 
L 503.353125 23.14175 
L 56.953125 23.14175 
z
" style="fill:#ffffff;"/>
   </g>
   <g id="line2d_1">
    <path clip-path="url(#p8df6e8f49e)" d="M 56.953125 62.912942 
L 57.232125 59.387881 
L 57.511125 61.174677 
L 57.790125 63.83226 
L 58.348125 62.117483 
L 58.627125 60.434893 
L 58.906125 59.997794 
L 59.185125 68.326145 
L 59.464125 66.709623 
L 59.743125 67.768086 
L 60.022125 70.484777 
L 60.301125 67.632686 
L 60.580125 59.516865 
L 60.859125 68.153463 
L 61.138125 63.313733 
L 61.417125 64.656015 
L 61.696125 65.329381 
L 61.975125 64.761545 
L 62.254125 59.014838 
L 62.533125 60.977883 
L 62.812125 64.379859 
L 63.370125 61.469131 
L 63.649125 60.976645 
L 63.928125 63.251159 
L 64.207125 69.828927 
L 64.486125 63.409849 
L 64.765125 64.347291 
L 65.044125 61.333896 
L 65.323125 63.811736 
L 65.602125 64.37703 
L 65.881125 67.653706 
L 66.160125 64.916123 
L 66.439125 65.109411 
L 66.718125 64.330579 
L 66.997125 63.10409 
L 67.276125 58.60689 
L 67.555125 63.264533 
L 68.113125 61.275608 
L 68.392125 64.694846 
L 68.671125 62.555949 
L 68.950125 62.442114 
L 69.229125 61.301881 
L 69.508125 66.497427 
L 69.787125 62.062085 
L 70.066125 62.626689 
L 70.345125 64.352323 
L 70.624125 62.036488 
L 70.903125 63.511526 
L 71.182125 68.929756 
L 71.461125 58.743087 
L 71.740125 62.602973 
L 72.298125 62.411805 
L 72.577125 66.238083 
L 72.856125 62.873008 
L 73.135125 63.414364 
L 73.414125 58.392369 
L 73.972125 64.44276 
L 74.251125 56.258606 
L 74.809125 63.996651 
L 75.367125 59.964308 
L 75.925125 66.862544 
L 76.483125 60.804842 
L 76.762125 62.062394 
L 77.041125 64.673335 
L 77.320125 62.512884 
L 77.599125 66.931207 
L 77.878125 63.170106 
L 78.436125 60.434069 
L 78.715125 66.850154 
L 78.994125 69.300239 
L 79.273125 63.958582 
L 79.552125 61.371224 
L 79.831125 62.712798 
L 80.110125 65.192924 
L 80.389125 61.864843 
L 80.668125 60.614495 
L 81.226125 64.007423 
L 81.505125 72.105929 
L 82.063125 64.946909 
L 82.621125 67.421226 
L 82.900125 61.729935 
L 83.179125 64.427305 
L 83.458125 63.988775 
L 83.737125 66.367526 
L 84.016125 62.637491 
L 84.295125 63.963173 
L 84.574125 63.994021 
L 84.853125 59.665891 
L 85.411125 70.207866 
L 85.690125 57.051805 
L 85.969125 65.873934 
L 86.248125 62.03125 
L 86.527125 66.803641 
L 86.806125 68.940136 
L 87.085125 65.093592 
L 87.364125 66.47948 
L 87.643125 64.70989 
L 87.922125 60.923346 
L 88.480125 67.175794 
L 88.759125 65.439626 
L 89.038125 62.869623 
L 89.317125 63.710307 
L 89.875125 62.935801 
L 90.154125 60.034723 
L 90.712125 70.705392 
L 90.991125 69.612391 
L 91.270125 62.218398 
L 91.549125 69.043344 
L 91.828125 69.014451 
L 92.107125 65.676035 
L 92.386125 67.653703 
L 92.665125 65.993399 
L 92.944125 70.571257 
L 93.223125 69.716996 
L 93.502125 70.014857 
L 93.781125 67.411019 
L 94.060125 67.804117 
L 94.339125 65.70506 
L 94.618125 62.650118 
L 94.897125 68.411159 
L 95.176125 68.594433 
L 95.455125 65.621264 
L 95.734125 69.588449 
L 96.013125 68.090725 
L 96.292125 64.573086 
L 96.571125 69.910214 
L 96.850125 66.941224 
L 97.129125 69.749812 
L 97.408125 66.496825 
L 97.687125 68.096774 
L 97.966125 65.050095 
L 98.245125 68.969858 
L 98.524125 68.016929 
L 98.803125 65.822279 
L 99.082125 67.621681 
L 99.361125 68.652193 
L 99.640125 66.663445 
L 99.919125 61.573863 
L 100.198125 65.969831 
L 100.477125 65.747078 
L 100.756125 67.03432 
L 101.035125 66.25939 
L 101.314125 66.77012 
L 101.593125 69.087209 
L 101.872125 64.932449 
L 102.151125 65.419027 
L 102.430125 67.57192 
L 102.709125 62.957215 
L 102.988125 70.174963 
L 103.267125 65.447775 
L 103.546125 66.951206 
L 103.825125 71.70233 
L 104.104125 65.132451 
L 104.383125 70.543 
L 105.220125 67.573952 
L 105.499125 67.577061 
L 105.778125 67.968992 
L 106.057125 69.061289 
L 106.336125 69.176874 
L 106.615125 68.517747 
L 106.894125 65.92448 
L 107.173125 73.099422 
L 107.452125 67.848311 
L 107.731125 69.170586 
L 108.010125 69.484132 
L 108.289125 69.208598 
L 108.568125 68.724235 
L 108.847125 70.677913 
L 109.126125 70.578664 
L 109.405125 69.276724 
L 109.684125 66.940577 
L 109.963125 70.076613 
L 110.242125 67.474048 
L 110.521125 67.700708 
L 111.079125 69.365493 
L 111.358125 65.48925 
L 111.637125 70.91181 
L 111.916125 69.012591 
L 112.195125 72.469713 
L 112.474125 74.038087 
L 112.753125 71.999918 
L 113.032125 69.094394 
L 113.311125 69.279558 
L 113.590125 71.360711 
L 113.869125 67.063993 
L 114.148125 66.244432 
L 114.427125 70.37922 
L 114.706125 71.469691 
L 115.264125 68.387781 
L 115.543125 69.721204 
L 115.822125 66.867331 
L 116.101125 70.906031 
L 116.380125 67.982772 
L 116.659125 73.356217 
L 116.938125 69.157592 
L 117.217125 68.033469 
L 117.496125 71.08079 
L 117.775125 69.854832 
L 118.054125 69.170165 
L 118.333125 70.268913 
L 118.612125 73.046797 
L 118.891125 68.944414 
L 119.449125 71.47545 
L 119.728125 71.087049 
L 120.007125 69.74137 
L 120.286125 70.203532 
L 120.565125 70.954788 
L 120.844125 69.759362 
L 121.123125 72.137316 
L 121.402125 70.481392 
L 121.681125 71.802306 
L 121.960125 74.369111 
L 122.239125 69.866514 
L 122.518125 73.661939 
L 122.797125 73.647499 
L 123.076125 69.990187 
L 123.355125 73.885859 
L 123.634125 73.055776 
L 123.913125 74.628928 
L 124.471125 72.655327 
L 124.750125 74.441215 
L 125.029125 70.785863 
L 125.308125 73.118679 
L 125.587125 72.424572 
L 125.866125 76.20445 
L 126.145125 73.797781 
L 126.424125 72.906394 
L 126.703125 75.452949 
L 126.982125 72.796373 
L 127.261125 73.573984 
L 127.540125 73.698259 
L 127.819125 73.520446 
L 128.377125 74.577748 
L 128.656125 75.914622 
L 128.935125 75.246502 
L 129.214125 77.268 
L 129.772125 73.906239 
L 130.330125 75.980973 
L 130.609125 75.011304 
L 130.888125 72.389023 
L 131.167125 73.323479 
L 131.446125 75.698387 
L 132.004125 77.00681 
L 132.283125 76.076868 
L 132.841125 77.678625 
L 133.399125 75.834418 
L 133.957125 77.26404 
L 134.236125 77.970255 
L 134.515125 76.445683 
L 134.794125 80.807133 
L 135.073125 79.920435 
L 135.352125 77.961493 
L 135.631125 79.905175 
L 135.910125 78.459437 
L 136.189125 78.436359 
L 136.468125 80.323951 
L 136.747125 79.212432 
L 137.026125 79.429709 
L 137.305125 80.707515 
L 137.584125 78.774802 
L 138.142125 80.144088 
L 138.421125 79.095514 
L 138.700125 79.614487 
L 138.979125 79.573589 
L 139.258125 81.426058 
L 139.537125 79.08785 
L 139.816125 80.564115 
L 140.095125 80.951646 
L 140.374125 82.901882 
L 140.653125 80.324642 
L 140.932125 78.811282 
L 141.211125 81.504732 
L 141.490125 81.578646 
L 141.769125 79.498592 
L 142.048125 79.742024 
L 142.327125 82.509366 
L 142.606125 78.985634 
L 142.885125 82.17215 
L 143.164125 83.091867 
L 143.443125 81.262128 
L 143.722125 83.237269 
L 144.001125 83.581481 
L 144.559125 82.512597 
L 145.117125 83.925585 
L 145.396125 82.736011 
L 145.954125 85.016235 
L 146.233125 84.856438 
L 146.512125 83.390175 
L 146.791125 84.562956 
L 147.070125 86.568697 
L 147.349125 83.441938 
L 147.628125 84.514414 
L 147.907125 83.479194 
L 148.186125 81.153913 
L 148.465125 84.699095 
L 148.744125 85.422833 
L 149.023125 86.739224 
L 149.302125 84.332673 
L 149.581125 87.133922 
L 149.860125 86.795177 
L 150.418125 87.400383 
L 150.697125 86.488303 
L 150.976125 86.648784 
L 151.255125 85.871836 
L 151.813125 90.012126 
L 152.092125 88.679674 
L 152.371125 86.385852 
L 152.650125 86.854116 
L 152.929125 90.13139 
L 153.208125 88.03322 
L 153.487125 88.741416 
L 153.766125 89.089738 
L 154.045125 88.706278 
L 154.324125 87.424779 
L 154.603125 87.234755 
L 155.161125 90.52349 
L 155.440125 89.487385 
L 155.998125 88.208742 
L 156.556125 91.032329 
L 156.835125 88.610824 
L 157.114125 88.837373 
L 157.393125 90.387744 
L 157.672125 89.44293 
L 157.951125 91.589768 
L 158.509125 90.851145 
L 158.788125 90.974868 
L 159.067125 93.581896 
L 159.346125 92.768653 
L 159.625125 90.594242 
L 159.904125 93.727062 
L 160.183125 92.128487 
L 160.462125 94.208934 
L 160.741125 94.533493 
L 161.020125 94.268258 
L 161.299125 93.403085 
L 161.578125 92.961696 
L 161.857125 95.773568 
L 162.136125 96.282304 
L 162.415125 95.375809 
L 162.694125 96.036932 
L 162.973125 94.002865 
L 163.252125 96.8162 
L 163.531125 95.384321 
L 163.810125 95.473623 
L 164.089125 95.02702 
L 164.368125 96.914158 
L 164.647125 94.61684 
L 164.926125 97.920271 
L 165.205125 95.647704 
L 165.484125 96.832166 
L 165.763125 96.572286 
L 166.042125 96.805126 
L 166.321125 95.910813 
L 166.600125 98.205069 
L 166.879125 98.16263 
L 167.158125 96.00246 
L 167.437125 100.416143 
L 167.716125 100.299297 
L 167.995125 98.400498 
L 168.274125 98.576486 
L 168.553125 98.458311 
L 168.832125 100.712503 
L 169.390125 98.790439 
L 169.669125 99.662524 
L 169.948125 101.448566 
L 170.506125 99.478333 
L 171.064125 103.179738 
L 171.343125 102.315714 
L 171.622125 104.256066 
L 171.901125 102.484319 
L 172.180125 96.723005 
L 172.459125 102.104625 
L 172.738125 101.810766 
L 173.017125 101.354823 
L 173.575125 103.205112 
L 173.854125 101.269528 
L 174.133125 105.496496 
L 174.412125 103.555322 
L 174.691125 105.294798 
L 174.970125 103.914028 
L 175.249125 105.702542 
L 175.528125 104.160468 
L 175.807125 105.00079 
L 176.086125 104.957869 
L 176.365125 105.032507 
L 176.644125 105.833377 
L 176.923125 107.797505 
L 177.202125 107.625524 
L 177.481125 106.888388 
L 177.760125 105.576877 
L 178.318125 107.92631 
L 178.597125 109.168467 
L 179.155125 106.237953 
L 179.434125 105.441336 
L 179.713125 107.265764 
L 179.992125 110.637389 
L 180.271125 110.640685 
L 180.550125 109.312645 
L 180.829125 110.328384 
L 181.108125 107.432174 
L 181.387125 111.834905 
L 181.666125 111.390388 
L 181.945125 109.013398 
L 182.224125 113.628681 
L 182.503125 111.328616 
L 182.782125 111.045792 
L 183.061125 110.563053 
L 183.340125 112.85042 
L 183.619125 112.842643 
L 184.177125 113.573903 
L 184.456125 114.332687 
L 184.735125 112.541757 
L 185.293125 114.452684 
L 185.572125 114.531556 
L 185.851125 114.184047 
L 186.130125 116.643991 
L 186.409125 112.695491 
L 186.688125 115.80393 
L 186.967125 112.751581 
L 187.246125 117.174236 
L 187.525125 117.049014 
L 187.804125 115.473899 
L 188.362125 117.269268 
L 188.641125 119.025088 
L 188.920125 115.079992 
L 189.199125 117.053897 
L 189.478125 115.776063 
L 189.757125 118.084085 
L 190.036125 119.134649 
L 190.315125 119.032584 
L 190.594125 118.500685 
L 190.873125 116.663902 
L 191.152125 121.383034 
L 191.710125 119.268905 
L 191.989125 122.396525 
L 192.268125 122.826143 
L 192.547125 120.719285 
L 192.826125 120.435416 
L 193.105125 120.670949 
L 193.384125 121.299907 
L 193.663125 121.635953 
L 193.942125 121.132097 
L 194.221125 122.621837 
L 194.500125 125.902754 
L 195.058125 122.372818 
L 195.337125 125.128852 
L 195.616125 121.088078 
L 195.895125 119.625133 
L 196.174125 122.180519 
L 196.453125 126.830087 
L 196.732125 124.016808 
L 197.011125 128.645664 
L 197.569125 125.017394 
L 197.848125 126.363768 
L 198.127125 128.647559 
L 198.406125 123.807474 
L 198.685125 125.073281 
L 198.964125 127.556034 
L 199.243125 127.632152 
L 199.522125 130.578839 
L 199.801125 124.482616 
L 200.080125 129.907946 
L 200.359125 129.91765 
L 200.638125 125.823072 
L 201.196125 130.937662 
L 201.475125 128.651515 
L 201.754125 127.949535 
L 202.033125 127.902818 
L 202.312125 131.250812 
L 202.591125 129.59882 
L 202.870125 133.103082 
L 203.149125 130.727936 
L 203.428125 132.183921 
L 203.707125 129.151938 
L 203.986125 131.965188 
L 204.265125 129.460563 
L 204.544125 132.448039 
L 204.823125 133.371016 
L 205.381125 132.18224 
L 205.660125 132.75511 
L 205.939125 134.160641 
L 206.218125 133.633617 
L 206.776125 135.958764 
L 207.055125 133.410992 
L 207.334125 133.74847 
L 207.613125 136.626237 
L 207.892125 136.662925 
L 208.171125 134.44463 
L 208.450125 133.537847 
L 208.729125 140.022759 
L 209.008125 139.472226 
L 209.287125 137.370953 
L 209.566125 139.995199 
L 209.845125 136.701394 
L 210.124125 139.450456 
L 210.403125 133.562671 
L 210.682125 139.617491 
L 210.961125 143.14212 
L 211.240125 140.199333 
L 211.519125 140.731978 
L 211.798125 140.56717 
L 212.077125 136.67133 
L 212.635125 142.291608 
L 213.193125 138.976444 
L 213.472125 140.569402 
L 214.030125 141.014801 
L 214.309125 145.26475 
L 214.588125 145.701376 
L 214.867125 144.976785 
L 215.146125 142.988583 
L 215.425125 143.626783 
L 215.704125 144.673042 
L 215.983125 140.579779 
L 216.262125 146.216261 
L 216.541125 143.707387 
L 216.820125 145.23983 
L 217.099125 144.106654 
L 217.378125 142.272682 
L 217.657125 147.712465 
L 217.936125 146.948867 
L 218.215125 150.73329 
L 218.494125 144.742432 
L 218.773125 146.108891 
L 219.052125 145.530649 
L 219.331125 150.004315 
L 219.610125 145.376664 
L 219.889125 147.068416 
L 220.168125 146.77922 
L 220.447125 147.985247 
L 220.726125 145.464285 
L 221.005125 148.050775 
L 221.284125 146.740307 
L 221.563125 150.912318 
L 221.842125 144.512132 
L 222.121125 150.529294 
L 222.400125 150.029165 
L 222.679125 154.1996 
L 222.958125 153.892849 
L 223.237125 152.379713 
L 223.516125 150.193887 
L 223.795125 151.488802 
L 224.074125 154.992944 
L 224.353125 153.394261 
L 224.632125 155.487975 
L 224.911125 155.326169 
L 225.190125 152.125951 
L 225.469125 156.587308 
L 225.748125 155.831654 
L 226.027125 154.305276 
L 226.306125 155.90397 
L 226.585125 151.428143 
L 226.864125 152.869331 
L 227.143125 152.757369 
L 227.422125 154.208096 
L 227.701125 156.339829 
L 227.980125 156.285538 
L 228.259125 154.053643 
L 228.538125 153.712297 
L 228.817125 155.490102 
L 229.096125 158.269604 
L 229.375125 159.907676 
L 229.654125 156.703877 
L 229.933125 156.660213 
L 230.770125 159.948647 
L 231.049125 158.64193 
L 231.328125 160.153199 
L 231.607125 158.105544 
L 231.886125 157.636333 
L 232.165125 161.387671 
L 232.444125 162.866752 
L 232.723125 167.002605 
L 233.002125 165.993687 
L 233.281125 165.497114 
L 233.560125 162.161056 
L 233.839125 164.788356 
L 234.118125 165.978795 
L 234.397125 166.396629 
L 234.676125 162.047198 
L 234.955125 164.702295 
L 235.234125 163.782758 
L 235.513125 167.989571 
L 235.792125 165.258686 
L 236.071125 165.554825 
L 236.350125 166.786872 
L 236.629125 168.924316 
L 236.908125 167.394563 
L 237.187125 167.947583 
L 237.466125 166.690022 
L 237.745125 167.985135 
L 238.024125 167.320012 
L 238.303125 168.142643 
L 238.582125 164.614532 
L 238.861125 169.066003 
L 239.140125 166.975707 
L 239.698125 164.888623 
L 239.977125 166.910773 
L 240.256125 165.854007 
L 240.535125 167.376909 
L 240.814125 168.17556 
L 241.093125 167.494782 
L 241.372125 171.817838 
L 241.651125 169.743346 
L 241.930125 168.637544 
L 242.209125 170.686909 
L 242.488125 166.801681 
L 242.767125 170.56039 
L 243.046125 167.198293 
L 243.325125 167.808679 
L 243.604125 173.902192 
L 243.883125 171.443769 
L 244.162125 171.707987 
L 244.441125 171.758499 
L 244.720125 171.987653 
L 244.999125 175.783988 
L 245.557125 177.441358 
L 246.115125 171.919087 
L 246.394125 171.610541 
L 246.673125 170.45927 
L 246.952125 173.996824 
L 247.231125 173.43151 
L 247.789125 179.479122 
L 248.068125 176.623212 
L 248.626125 175.302987 
L 248.905125 171.788827 
L 249.184125 174.714707 
L 249.463125 174.62175 
L 249.742125 179.786444 
L 250.021125 179.254072 
L 250.300125 177.549276 
L 250.858125 182.386561 
L 251.137125 175.474035 
L 251.416125 179.745497 
L 251.695125 179.867431 
L 251.974125 176.895788 
L 252.253125 175.778355 
L 252.532125 180.568238 
L 252.811125 180.54978 
L 253.090125 179.160458 
L 253.369125 179.340221 
L 253.648125 177.588668 
L 253.927125 182.471394 
L 254.485125 179.575886 
L 254.764125 179.792855 
L 255.043125 182.016107 
L 255.322125 185.633202 
L 255.601125 186.537265 
L 255.880125 183.66733 
L 256.159125 184.829699 
L 256.438125 179.332407 
L 256.996125 184.840555 
L 257.275125 183.275173 
L 257.554125 182.411055 
L 257.833125 183.051988 
L 258.112125 185.216425 
L 258.391125 180.398691 
L 258.670125 182.656714 
L 258.949125 187.693254 
L 259.228125 188.86764 
L 259.507125 187.462271 
L 259.786125 180.620008 
L 260.344125 184.291244 
L 260.623125 191.124637 
L 260.902125 184.720929 
L 261.181125 187.175758 
L 261.460125 188.217553 
L 262.018125 185.42665 
L 262.297125 190.272722 
L 262.576125 182.032255 
L 262.855125 186.044464 
L 263.413125 188.288793 
L 263.692125 182.975296 
L 263.971125 182.111685 
L 264.529125 191.390997 
L 264.808125 191.087379 
L 265.087125 190.091926 
L 265.366125 190.512159 
L 265.924125 186.621766 
L 266.203125 192.974038 
L 266.761125 191.217729 
L 267.040125 189.614229 
L 267.319125 192.483838 
L 267.598125 187.983692 
L 267.877125 187.608732 
L 268.156125 186.882274 
L 268.435125 192.230333 
L 268.714125 192.762701 
L 268.993125 197.269558 
L 269.272125 191.922257 
L 269.551125 192.148943 
L 269.830125 194.529288 
L 270.109125 195.475778 
L 270.388125 190.850973 
L 270.667125 191.745161 
L 270.946125 190.835158 
L 271.504125 195.077577 
L 272.062125 191.939245 
L 272.341125 195.748954 
L 272.620125 188.385987 
L 272.899125 191.721228 
L 273.178125 197.350118 
L 273.457125 195.23181 
L 273.736125 195.054085 
L 274.015125 196.974336 
L 274.294125 194.850406 
L 274.573125 197.452619 
L 274.852125 191.626738 
L 275.131125 195.587042 
L 275.410125 195.719888 
L 275.689125 199.605432 
L 275.968125 197.224305 
L 276.247125 199.54944 
L 276.526125 199.389975 
L 276.805125 193.731412 
L 277.084125 195.58402 
L 277.363125 196.352294 
L 277.642125 199.9768 
L 277.921125 195.134145 
L 278.200125 197.319195 
L 278.479125 200.723564 
L 278.758125 195.540721 
L 279.037125 199.507713 
L 279.316125 195.453698 
L 279.595125 198.042135 
L 279.874125 202.761558 
L 280.153125 199.784424 
L 280.432125 198.560397 
L 280.711125 200.767042 
L 280.990125 206.035017 
L 281.269125 196.771095 
L 281.548125 199.083597 
L 281.827125 202.944019 
L 282.106125 200.742315 
L 282.385125 202.244085 
L 282.664125 194.302807 
L 282.943125 204.994057 
L 283.222125 199.222516 
L 283.501125 202.582619 
L 283.780125 200.557793 
L 284.059125 201.983594 
L 284.338125 201.418466 
L 284.617125 201.564401 
L 284.896125 200.349136 
L 285.175125 202.955271 
L 285.454125 203.827005 
L 286.012125 200.924848 
L 286.291125 201.344548 
L 286.570125 192.034602 
L 286.849125 202.392259 
L 287.128125 207.346555 
L 287.407125 198.86472 
L 287.686125 207.139973 
L 287.965125 199.448202 
L 288.244125 203.744298 
L 288.523125 203.980871 
L 289.081125 202.063354 
L 289.360125 206.093961 
L 289.639125 205.559188 
L 289.918125 202.326716 
L 290.197125 204.136286 
L 290.476125 203.095677 
L 290.755125 203.932444 
L 291.034125 206.892363 
L 291.313125 203.870095 
L 291.592125 204.375917 
L 291.871125 207.707977 
L 292.150125 208.772984 
L 292.708125 202.244376 
L 292.987125 201.749938 
L 293.545125 206.92941 
L 293.824125 204.196692 
L 294.103125 204.161866 
L 294.382125 206.915232 
L 294.661125 206.269666 
L 294.940125 200.528399 
L 295.219125 205.774345 
L 295.498125 204.290074 
L 296.056125 206.449641 
L 296.335125 206.835414 
L 296.614125 206.40252 
L 297.172125 204.625223 
L 297.730125 206.739193 
L 298.009125 203.937642 
L 298.288125 205.593437 
L 298.567125 204.896772 
L 298.846125 207.319363 
L 299.125125 205.8359 
L 299.404125 205.033199 
L 299.683125 205.676481 
L 299.962125 210.748397 
L 300.241125 210.351317 
L 300.520125 210.517504 
L 300.799125 207.90127 
L 301.078125 207.577956 
L 301.636125 209.364935 
L 302.194125 209.357835 
L 302.473125 209.298827 
L 302.752125 209.735278 
L 303.031125 211.20802 
L 303.310125 209.360001 
L 303.589125 210.193766 
L 303.868125 210.44441 
L 304.147125 211.236323 
L 304.426125 207.068568 
L 304.984125 209.816546 
L 305.263125 210.181477 
L 305.542125 209.945225 
L 305.821125 211.352484 
L 306.100125 209.982664 
L 306.658125 213.268455 
L 307.216125 211.644039 
L 307.495125 210.621833 
L 307.774125 210.998822 
L 308.053125 215.798006 
L 308.332125 212.21316 
L 308.611125 212.361869 
L 308.890125 216.356813 
L 309.448125 212.958511 
L 309.727125 212.125176 
L 310.006125 213.482573 
L 310.285125 213.611092 
L 310.564125 212.159273 
L 310.843125 215.718202 
L 311.122125 215.765979 
L 311.401125 214.759458 
L 311.680125 219.255663 
L 311.959125 215.762343 
L 312.238125 213.695627 
L 312.517125 219.901233 
L 312.796125 215.425981 
L 313.075125 215.016348 
L 313.354125 214.878133 
L 313.633125 212.364981 
L 313.912125 214.797451 
L 314.191125 212.90852 
L 314.470125 217.615135 
L 314.749125 215.231555 
L 315.028125 217.326435 
L 315.307125 212.267282 
L 315.586125 215.686343 
L 315.865125 214.891115 
L 316.144125 215.387892 
L 316.423125 213.50087 
L 316.981125 218.475094 
L 317.260125 215.204913 
L 317.539125 221.294809 
L 317.818125 213.926534 
L 318.376125 218.198932 
L 318.655125 217.448495 
L 318.934125 217.078376 
L 319.213125 215.408651 
L 319.492125 218.181198 
L 320.050125 216.995295 
L 320.329125 218.072611 
L 320.608125 216.689144 
L 320.887125 217.824291 
L 321.166125 216.379841 
L 321.445125 216.348872 
L 321.724125 220.123951 
L 322.003125 220.330365 
L 322.282125 221.153488 
L 322.561125 220.273341 
L 322.840125 218.303665 
L 323.119125 219.488672 
L 323.398125 221.346448 
L 323.677125 218.276968 
L 323.956125 221.905311 
L 324.235125 222.203405 
L 324.514125 218.652134 
L 324.793125 221.784131 
L 325.072125 222.652405 
L 325.351125 220.413689 
L 325.630125 220.121367 
L 325.909125 223.181259 
L 326.188125 222.301262 
L 326.467125 222.68002 
L 326.746125 219.587292 
L 327.025125 223.463786 
L 327.304125 222.849323 
L 327.583125 224.470787 
L 327.862125 224.05091 
L 328.141125 218.699939 
L 328.699125 223.421749 
L 328.978125 220.052621 
L 329.257125 221.087407 
L 329.536125 224.03653 
L 329.815125 223.756418 
L 330.094125 220.593879 
L 330.652125 223.904635 
L 330.931125 222.649251 
L 331.210125 224.722716 
L 331.489125 228.508456 
L 331.768125 222.377529 
L 332.047125 225.898834 
L 332.326125 222.962875 
L 332.605125 225.293322 
L 332.884125 224.688074 
L 333.163125 221.723753 
L 333.442125 223.198344 
L 333.721125 222.599307 
L 334.000125 225.015968 
L 334.279125 225.189809 
L 334.558125 223.482819 
L 334.837125 224.961346 
L 335.116125 224.398197 
L 335.395125 225.981612 
L 335.674125 226.110723 
L 335.953125 225.227436 
L 336.232125 224.720445 
L 336.511125 223.329557 
L 336.790125 224.245017 
L 337.069125 227.895946 
L 337.348125 226.920209 
L 337.627125 227.630779 
L 337.906125 226.50819 
L 338.185125 227.089811 
L 338.464125 227.099393 
L 338.743125 225.830712 
L 339.022125 230.134784 
L 339.301125 226.289307 
L 339.580125 224.285964 
L 339.859125 226.178673 
L 340.138125 225.478717 
L 340.417125 225.705761 
L 340.696125 228.365373 
L 340.975125 228.136136 
L 341.254125 228.426025 
L 341.533125 227.420985 
L 341.812125 228.012624 
L 342.091125 227.840435 
L 342.370125 226.574891 
L 342.649125 229.282719 
L 342.928125 228.256655 
L 343.207125 229.225162 
L 343.486125 220.526865 
L 343.765125 229.970384 
L 344.044125 227.614891 
L 344.323125 228.858695 
L 344.602125 231.192167 
L 344.881125 230.362936 
L 345.160125 231.13727 
L 345.439125 226.896501 
L 345.718125 231.080485 
L 345.997125 231.175808 
L 346.276125 226.461913 
L 346.555125 231.037905 
L 346.834125 228.225215 
L 347.113125 229.279302 
L 347.392125 231.012608 
L 347.671125 231.326116 
L 347.950125 226.51813 
L 348.229125 227.937905 
L 348.508125 231.324402 
L 348.787125 230.132555 
L 349.066125 228.145927 
L 349.345125 237.100545 
L 349.903125 232.758886 
L 350.182125 233.079281 
L 350.461125 229.894438 
L 350.740125 232.370219 
L 351.019125 232.158838 
L 351.298125 233.291657 
L 351.577125 222.592186 
L 351.856125 237.785187 
L 352.135125 232.923128 
L 352.414125 231.45575 
L 352.693125 230.730398 
L 353.251125 233.931746 
L 353.530125 231.44988 
L 353.809125 234.379577 
L 354.088125 233.815516 
L 354.367125 234.185732 
L 354.646125 237.165492 
L 354.925125 229.777944 
L 355.204125 235.361014 
L 355.483125 234.724695 
L 355.762125 234.92351 
L 356.041125 234.838317 
L 356.320125 237.341639 
L 356.599125 234.2075 
L 356.878125 234.007964 
L 357.157125 233.147652 
L 357.436125 232.948868 
L 357.994125 234.36918 
L 358.273125 236.318146 
L 358.552125 236.593389 
L 358.831125 235.097041 
L 359.110125 235.079104 
L 359.389125 236.998695 
L 359.668125 235.729128 
L 359.947125 233.521204 
L 360.226125 236.621936 
L 360.505125 236.020485 
L 360.784125 234.648505 
L 361.063125 236.723331 
L 361.342125 236.86802 
L 361.621125 238.734473 
L 361.900125 236.495693 
L 362.179125 236.414292 
L 362.458125 236.182516 
L 363.016125 238.337322 
L 363.295125 236.753639 
L 363.574125 238.681114 
L 363.853125 236.060941 
L 364.411125 238.143381 
L 364.690125 238.946836 
L 364.969125 237.927379 
L 365.248125 238.365738 
L 365.527125 238.301123 
L 365.806125 237.306947 
L 366.085125 239.291915 
L 366.364125 239.223407 
L 366.643125 237.961034 
L 366.922125 240.729617 
L 367.201125 237.833639 
L 367.480125 239.629276 
L 367.759125 239.408782 
L 368.038125 238.059706 
L 368.317125 242.167262 
L 368.596125 238.141578 
L 369.154125 241.089945 
L 369.433125 240.973504 
L 369.712125 237.88733 
L 369.991125 240.214599 
L 370.549125 240.698683 
L 370.828125 242.757156 
L 371.107125 242.554322 
L 371.665125 241.667151 
L 371.944125 240.581678 
L 372.223125 244.254653 
L 372.502125 241.664781 
L 372.781125 243.464685 
L 373.060125 240.919167 
L 373.339125 242.373748 
L 373.618125 243.076662 
L 373.897125 243.010032 
L 374.176125 241.450998 
L 374.455125 242.606475 
L 374.734125 240.089859 
L 375.013125 241.828852 
L 375.292125 241.726997 
L 375.571125 244.38354 
L 375.850125 241.214449 
L 376.129125 245.587276 
L 376.408125 242.182989 
L 376.687125 245.599739 
L 376.966125 244.071756 
L 377.524125 242.98131 
L 377.803125 243.532141 
L 378.082125 242.163635 
L 378.361125 245.335834 
L 378.640125 245.033601 
L 378.919125 243.342162 
L 379.198125 244.835822 
L 379.477125 252.249203 
L 379.756125 245.454422 
L 380.035125 245.99052 
L 380.314125 247.208882 
L 380.593125 244.351713 
L 380.872125 244.495081 
L 381.151125 245.055443 
L 381.430125 248.64114 
L 381.709125 249.968628 
L 381.988125 244.732994 
L 382.267125 244.247492 
L 382.546125 248.581088 
L 382.825125 248.001289 
L 383.104125 245.463606 
L 383.383125 246.378045 
L 383.662125 248.618644 
L 383.941125 248.56067 
L 384.499125 247.053592 
L 385.057125 249.416318 
L 385.336125 248.282308 
L 385.615125 247.617973 
L 385.894125 249.875577 
L 386.173125 248.902213 
L 386.731125 250.214794 
L 387.010125 247.066086 
L 387.568125 250.15802 
L 387.847125 248.427584 
L 388.126125 249.529947 
L 388.405125 247.621913 
L 388.963125 251.073983 
L 389.242125 250.047669 
L 389.521125 251.447347 
L 389.800125 249.1901 
L 390.079125 250.781082 
L 390.358125 249.534952 
L 390.637125 251.457432 
L 390.916125 251.288719 
L 391.195125 251.252298 
L 391.474125 251.690874 
L 391.753125 252.747212 
L 392.032125 252.295033 
L 392.311125 252.429865 
L 392.590125 250.96138 
L 392.869125 252.60103 
L 393.148125 253.526487 
L 393.427125 252.701947 
L 393.706125 258.258868 
L 393.985125 253.382095 
L 394.264125 253.832069 
L 394.543125 255.856102 
L 394.822125 259.64813 
L 395.101125 253.145761 
L 395.380125 252.625107 
L 395.659125 253.031721 
L 395.938125 253.823305 
L 396.217125 254.179084 
L 396.496125 253.365323 
L 396.775125 253.221225 
L 397.054125 253.55453 
L 397.333125 255.685211 
L 397.612125 254.915833 
L 397.891125 255.42116 
L 398.170125 254.982159 
L 398.449125 255.44886 
L 398.728125 254.170476 
L 399.007125 254.327174 
L 399.565125 260.459598 
L 399.844125 262.196773 
L 400.123125 258.943185 
L 400.402125 257.648227 
L 400.681125 261.379515 
L 400.960125 257.099954 
L 401.239125 255.646113 
L 401.518125 258.158921 
L 401.797125 258.954357 
L 402.076125 258.402178 
L 402.355125 257.58884 
L 402.634125 265.882208 
L 402.913125 258.293459 
L 403.471125 258.700697 
L 403.750125 258.582009 
L 404.029125 256.198452 
L 404.308125 258.267024 
L 404.587125 256.668947 
L 404.866125 258.678031 
L 405.145125 259.147492 
L 405.424125 260.507403 
L 405.703125 256.640954 
L 405.982125 257.937515 
L 406.261125 257.738773 
L 406.540125 259.209594 
L 406.819125 259.904808 
L 407.098125 260.047087 
L 407.377125 261.51879 
L 407.656125 259.710823 
L 408.214125 261.177242 
L 408.493125 258.927493 
L 408.772125 259.641157 
L 409.051125 260.8072 
L 409.330125 262.979041 
L 409.609125 259.962741 
L 410.167125 263.216282 
L 410.446125 262.628578 
L 410.725125 262.616338 
L 411.004125 260.977149 
L 411.283125 260.340401 
L 411.562125 263.481984 
L 411.841125 272.42342 
L 412.120125 260.821188 
L 412.399125 262.028233 
L 412.678125 264.18484 
L 412.957125 262.586959 
L 413.236125 262.514576 
L 413.515125 263.637584 
L 413.794125 262.628431 
L 414.073125 264.875379 
L 414.352125 263.647972 
L 414.631125 265.328211 
L 414.910125 264.543975 
L 415.189125 265.645398 
L 415.468125 265.416751 
L 415.747125 269.821325 
L 416.026125 266.855673 
L 416.305125 267.177741 
L 416.863125 266.85377 
L 417.142125 276.35845 
L 417.421125 267.141967 
L 417.700125 267.380225 
L 417.979125 267.072933 
L 418.258125 272.072246 
L 418.537125 265.766847 
L 418.816125 272.801846 
L 419.095125 270.42263 
L 419.374125 265.45725 
L 419.653125 274.682434 
L 419.932125 267.872722 
L 420.490125 267.681369 
L 420.769125 274.152487 
L 421.048125 267.88964 
L 421.327125 266.467566 
L 421.606125 266.30013 
L 421.885125 267.341092 
L 422.164125 269.352129 
L 422.443125 274.953599 
L 422.722125 269.292437 
L 423.001125 268.852124 
L 423.280125 273.836338 
L 423.559125 269.740029 
L 423.838125 269.939512 
L 424.117125 271.286964 
L 424.396125 270.660641 
L 424.675125 280.29471 
L 424.954125 269.574517 
L 425.233125 269.950737 
L 425.512125 270.864979 
L 425.791125 268.724767 
L 426.070125 269.713021 
L 426.349125 268.048019 
L 426.628125 271.083256 
L 426.907125 270.723302 
L 427.186125 271.160302 
L 427.465125 271.312602 
L 427.744125 269.978568 
L 428.023125 272.041593 
L 428.302125 270.407151 
L 428.581125 271.10128 
L 428.860125 270.476972 
L 429.139125 271.143305 
L 429.418125 270.490255 
L 429.697125 282.167987 
L 429.976125 273.442981 
L 430.255125 272.748217 
L 430.534125 284.124612 
L 430.813125 271.309205 
L 431.371125 273.003257 
L 431.650125 272.892912 
L 431.929125 273.570601 
L 432.208125 277.640571 
L 432.487125 278.335375 
L 432.766125 268.577079 
L 433.045125 269.389976 
L 433.324125 273.067904 
L 434.161125 274.53701 
L 434.440125 273.200667 
L 434.719125 275.073277 
L 434.998125 274.093866 
L 435.277125 276.028613 
L 435.556125 275.253901 
L 435.835125 276.631583 
L 436.114125 277.133328 
L 436.393125 276.888707 
L 436.672125 277.02226 
L 436.951125 277.603638 
L 437.230125 275.619619 
L 437.509125 278.296807 
L 437.788125 275.780697 
L 438.067125 276.191522 
L 438.346125 276.15794 
L 438.625125 277.665482 
L 438.904125 277.467633 
L 439.183125 279.292453 
L 439.462125 279.152065 
L 439.741125 274.559461 
L 440.020125 279.956662 
L 440.299125 278.440097 
L 440.578125 278.120416 
L 440.857125 277.161109 
L 441.136125 278.575998 
L 441.415125 277.627735 
L 441.694125 288.268223 
L 441.973125 276.538502 
L 442.252125 277.425325 
L 442.531125 281.337804 
L 443.089125 278.380339 
L 443.368125 279.422081 
L 443.647125 279.378694 
L 443.926125 279.98699 
L 444.205125 279.223141 
L 444.484125 279.853051 
L 444.763125 281.184493 
L 445.042125 275.921787 
L 445.321125 281.438033 
L 445.600125 278.734444 
L 445.879125 278.407587 
L 446.437125 283.539117 
L 446.716125 281.540482 
L 446.995125 282.650272 
L 447.274125 280.688524 
L 447.553125 283.182468 
L 447.832125 282.687181 
L 448.111125 281.299259 
L 448.390125 283.911427 
L 448.669125 282.4861 
L 448.948125 282.262461 
L 449.227125 284.037548 
L 449.506125 282.381494 
L 449.785125 281.999312 
L 450.343125 286.030406 
L 450.622125 284.60977 
L 450.901125 284.29688 
L 451.180125 285.509132 
L 451.459125 285.209986 
L 451.738125 285.470043 
L 452.017125 287.535708 
L 452.296125 292.089583 
L 452.575125 283.68789 
L 453.133125 286.904077 
L 453.412125 286.591474 
L 453.691125 281.871523 
L 453.970125 284.95181 
L 454.249125 284.451282 
L 454.528125 283.119376 
L 454.807125 287.900078 
L 455.086125 285.876256 
L 455.644125 295.337614 
L 456.202125 280.028325 
L 456.481125 288.066567 
L 456.760125 287.981495 
L 457.039125 289.833062 
L 457.318125 287.560966 
L 457.597125 288.942623 
L 457.876125 293.534939 
L 458.155125 289.559478 
L 458.434125 289.296403 
L 458.713125 289.807296 
L 458.992125 286.438698 
L 459.271125 295.493315 
L 459.550125 289.402383 
L 459.829125 288.691655 
L 460.108125 289.222495 
L 460.387125 291.77905 
L 460.666125 289.772392 
L 460.945125 290.389258 
L 461.224125 293.954968 
L 461.503125 289.324279 
L 461.782125 290.350248 
L 462.061125 292.40715 
L 462.340125 303.77037 
L 462.619125 287.407375 
L 462.898125 297.994563 
L 463.177125 290.060683 
L 463.456125 290.674743 
L 463.735125 293.6387 
L 464.293125 290.192434 
L 464.572125 290.819599 
L 464.851125 290.051547 
L 465.130125 290.345679 
L 465.409125 291.870052 
L 465.688125 295.818809 
L 465.967125 291.520083 
L 466.246125 292.923062 
L 466.525125 292.788879 
L 467.083125 291.04688 
L 467.362125 292.879132 
L 467.641125 289.208623 
L 467.920125 295.0724 
L 468.199125 294.194155 
L 468.757125 295.002641 
L 469.036125 299.702626 
L 469.315125 294.647428 
L 469.594125 296.018636 
L 469.873125 295.944177 
L 470.152125 297.703379 
L 470.431125 293.511545 
L 470.710125 297.60525 
L 470.989125 296.249142 
L 471.268125 295.774618 
L 471.826125 297.476568 
L 472.105125 297.753452 
L 472.384125 299.858211 
L 472.663125 298.599464 
L 472.942125 299.462698 
L 473.221125 299.237032 
L 473.779125 297.430962 
L 474.616125 298.278875 
L 474.895125 297.360694 
L 475.174125 299.631461 
L 475.174125 299.631461 
" style="fill:none;stroke:#0000ff;stroke-linecap:square;stroke-width:0.5;"/>
   </g>
   <g id="patch_3">
    <path d="M 56.953125 368.74175 
L 56.953125 23.14175 
" style="fill:none;stroke:#000000;stroke-linecap:square;stroke-linejoin:miter;"/>
   </g>
   <g id="patch_4">
    <path d="M 56.953125 368.74175 
L 503.353125 368.74175 
" style="fill:none;stroke:#000000;stroke-linecap:square;stroke-linejoin:miter;"/>
   </g>
   <g id="patch_5">
    <path d="M 503.353125 368.74175 
L 503.353125 23.14175 
" style="fill:none;stroke:#000000;stroke-linecap:square;stroke-linejoin:miter;"/>
   </g>
   <g id="patch_6">
    <path d="M 56.953125 23.14175 
L 503.353125 23.14175 
" style="fill:none;stroke:#000000;stroke-linecap:square;stroke-linejoin:miter;"/>
   </g>
   <g id="matplotlib.axis_1">
    <g id="xtick_1">
     <g id="line2d_2">
      <defs>
       <path d="M 0 0 
L 0 -4 
" id="m69d70cff0c" style="stroke:#000000;stroke-width:0.5;"/>
      </defs>
      <g>
       <use style="stroke:#000000;stroke-width:0.5;" x="56.953125" xlink:href="#m69d70cff0c" y="368.74175"/>
      </g>
     </g>
     <g id="line2d_3">
      <defs>
       <path d="M 0 0 
L 0 4 
" id="m37e99d246c" style="stroke:#000000;stroke-width:0.5;"/>
      </defs>
      <g>
       <use style="stroke:#000000;stroke-width:0.5;" x="56.953125" xlink:href="#m37e99d246c" y="23.14175"/>
      </g>
     </g>
     <g id="text_1">
      <!-- 0 -->
      <defs>
       <path d="M 31.78125 66.40625 
Q 24.171875 66.40625 20.328125 58.90625 
Q 16.5 51.421875 16.5 36.375 
Q 16.5 21.390625 20.328125 13.890625 
Q 24.171875 6.390625 31.78125 6.390625 
Q 39.453125 6.390625 43.28125 13.890625 
Q 47.125 21.390625 47.125 36.375 
Q 47.125 51.421875 43.28125 58.90625 
Q 39.453125 66.40625 31.78125 66.40625 
M 31.78125 74.21875 
Q 44.046875 74.21875 50.515625 64.515625 
Q 56.984375 54.828125 56.984375 36.375 
Q 56.984375 17.96875 50.515625 8.265625 
Q 44.046875 -1.421875 31.78125 -1.421875 
Q 19.53125 -1.421875 13.0625 8.265625 
Q 6.59375 17.96875 6.59375 36.375 
Q 6.59375 54.828125 13.0625 64.515625 
Q 19.53125 74.21875 31.78125 74.21875 
" id="BitstreamVeraSans-Roman-30"/>
      </defs>
      <g transform="translate(53.135625 381.859875)scale(0.12 -0.12)">
       <use xlink:href="#BitstreamVeraSans-Roman-30"/>
      </g>
     </g>
    </g>
    <g id="xtick_2">
     <g id="line2d_4">
      <g>
       <use style="stroke:#000000;stroke-width:0.5;" x="112.753125" xlink:href="#m69d70cff0c" y="368.74175"/>
      </g>
     </g>
     <g id="line2d_5">
      <g>
       <use style="stroke:#000000;stroke-width:0.5;" x="112.753125" xlink:href="#m37e99d246c" y="23.14175"/>
      </g>
     </g>
     <g id="text_2">
      <!-- 200 -->
      <defs>
       <path d="M 19.1875 8.296875 
L 53.609375 8.296875 
L 53.609375 0 
L 7.328125 0 
L 7.328125 8.296875 
Q 12.9375 14.109375 22.625 23.890625 
Q 32.328125 33.6875 34.8125 36.53125 
Q 39.546875 41.84375 41.421875 45.53125 
Q 43.3125 49.21875 43.3125 52.78125 
Q 43.3125 58.59375 39.234375 62.25 
Q 35.15625 65.921875 28.609375 65.921875 
Q 23.96875 65.921875 18.8125 64.3125 
Q 13.671875 62.703125 7.8125 59.421875 
L 7.8125 69.390625 
Q 13.765625 71.78125 18.9375 73 
Q 24.125 74.21875 28.421875 74.21875 
Q 39.75 74.21875 46.484375 68.546875 
Q 53.21875 62.890625 53.21875 53.421875 
Q 53.21875 48.921875 51.53125 44.890625 
Q 49.859375 40.875 45.40625 35.40625 
Q 44.1875 33.984375 37.640625 27.21875 
Q 31.109375 20.453125 19.1875 8.296875 
" id="BitstreamVeraSans-Roman-32"/>
      </defs>
      <g transform="translate(101.300625 381.859875)scale(0.12 -0.12)">
       <use xlink:href="#BitstreamVeraSans-Roman-32"/>
       <use x="63.623046875" xlink:href="#BitstreamVeraSans-Roman-30"/>
       <use x="127.24609375" xlink:href="#BitstreamVeraSans-Roman-30"/>
      </g>
     </g>
    </g>
    <g id="xtick_3">
     <g id="line2d_6">
      <g>
       <use style="stroke:#000000;stroke-width:0.5;" x="168.553125" xlink:href="#m69d70cff0c" y="368.74175"/>
      </g>
     </g>
     <g id="line2d_7">
      <g>
       <use style="stroke:#000000;stroke-width:0.5;" x="168.553125" xlink:href="#m37e99d246c" y="23.14175"/>
      </g>
     </g>
     <g id="text_3">
      <!-- 400 -->
      <defs>
       <path d="M 37.796875 64.3125 
L 12.890625 25.390625 
L 37.796875 25.390625 
z
M 35.203125 72.90625 
L 47.609375 72.90625 
L 47.609375 25.390625 
L 58.015625 25.390625 
L 58.015625 17.1875 
L 47.609375 17.1875 
L 47.609375 0 
L 37.796875 0 
L 37.796875 17.1875 
L 4.890625 17.1875 
L 4.890625 26.703125 
z
" id="BitstreamVeraSans-Roman-34"/>
      </defs>
      <g transform="translate(157.100625 381.859875)scale(0.12 -0.12)">
       <use xlink:href="#BitstreamVeraSans-Roman-34"/>
       <use x="63.623046875" xlink:href="#BitstreamVeraSans-Roman-30"/>
       <use x="127.24609375" xlink:href="#BitstreamVeraSans-Roman-30"/>
      </g>
     </g>
    </g>
    <g id="xtick_4">
     <g id="line2d_8">
      <g>
       <use style="stroke:#000000;stroke-width:0.5;" x="224.353125" xlink:href="#m69d70cff0c" y="368.74175"/>
      </g>
     </g>
     <g id="line2d_9">
      <g>
       <use style="stroke:#000000;stroke-width:0.5;" x="224.353125" xlink:href="#m37e99d246c" y="23.14175"/>
      </g>
     </g>
     <g id="text_4">
      <!-- 600 -->
      <defs>
       <path d="M 33.015625 40.375 
Q 26.375 40.375 22.484375 35.828125 
Q 18.609375 31.296875 18.609375 23.390625 
Q 18.609375 15.53125 22.484375 10.953125 
Q 26.375 6.390625 33.015625 6.390625 
Q 39.65625 6.390625 43.53125 10.953125 
Q 47.40625 15.53125 47.40625 23.390625 
Q 47.40625 31.296875 43.53125 35.828125 
Q 39.65625 40.375 33.015625 40.375 
M 52.59375 71.296875 
L 52.59375 62.3125 
Q 48.875 64.0625 45.09375 64.984375 
Q 41.3125 65.921875 37.59375 65.921875 
Q 27.828125 65.921875 22.671875 59.328125 
Q 17.53125 52.734375 16.796875 39.40625 
Q 19.671875 43.65625 24.015625 45.921875 
Q 28.375 48.1875 33.59375 48.1875 
Q 44.578125 48.1875 50.953125 41.515625 
Q 57.328125 34.859375 57.328125 23.390625 
Q 57.328125 12.15625 50.6875 5.359375 
Q 44.046875 -1.421875 33.015625 -1.421875 
Q 20.359375 -1.421875 13.671875 8.265625 
Q 6.984375 17.96875 6.984375 36.375 
Q 6.984375 53.65625 15.1875 63.9375 
Q 23.390625 74.21875 37.203125 74.21875 
Q 40.921875 74.21875 44.703125 73.484375 
Q 48.484375 72.75 52.59375 71.296875 
" id="BitstreamVeraSans-Roman-36"/>
      </defs>
      <g transform="translate(212.900625 381.859875)scale(0.12 -0.12)">
       <use xlink:href="#BitstreamVeraSans-Roman-36"/>
       <use x="63.623046875" xlink:href="#BitstreamVeraSans-Roman-30"/>
       <use x="127.24609375" xlink:href="#BitstreamVeraSans-Roman-30"/>
      </g>
     </g>
    </g>
    <g id="xtick_5">
     <g id="line2d_10">
      <g>
       <use style="stroke:#000000;stroke-width:0.5;" x="280.153125" xlink:href="#m69d70cff0c" y="368.74175"/>
      </g>
     </g>
     <g id="line2d_11">
      <g>
       <use style="stroke:#000000;stroke-width:0.5;" x="280.153125" xlink:href="#m37e99d246c" y="23.14175"/>
      </g>
     </g>
     <g id="text_5">
      <!-- 800 -->
      <defs>
       <path d="M 31.78125 34.625 
Q 24.75 34.625 20.71875 30.859375 
Q 16.703125 27.09375 16.703125 20.515625 
Q 16.703125 13.921875 20.71875 10.15625 
Q 24.75 6.390625 31.78125 6.390625 
Q 38.8125 6.390625 42.859375 10.171875 
Q 46.921875 13.96875 46.921875 20.515625 
Q 46.921875 27.09375 42.890625 30.859375 
Q 38.875 34.625 31.78125 34.625 
M 21.921875 38.8125 
Q 15.578125 40.375 12.03125 44.71875 
Q 8.5 49.078125 8.5 55.328125 
Q 8.5 64.0625 14.71875 69.140625 
Q 20.953125 74.21875 31.78125 74.21875 
Q 42.671875 74.21875 48.875 69.140625 
Q 55.078125 64.0625 55.078125 55.328125 
Q 55.078125 49.078125 51.53125 44.71875 
Q 48 40.375 41.703125 38.8125 
Q 48.828125 37.15625 52.796875 32.3125 
Q 56.78125 27.484375 56.78125 20.515625 
Q 56.78125 9.90625 50.3125 4.234375 
Q 43.84375 -1.421875 31.78125 -1.421875 
Q 19.734375 -1.421875 13.25 4.234375 
Q 6.78125 9.90625 6.78125 20.515625 
Q 6.78125 27.484375 10.78125 32.3125 
Q 14.796875 37.15625 21.921875 38.8125 
M 18.3125 54.390625 
Q 18.3125 48.734375 21.84375 45.5625 
Q 25.390625 42.390625 31.78125 42.390625 
Q 38.140625 42.390625 41.71875 45.5625 
Q 45.3125 48.734375 45.3125 54.390625 
Q 45.3125 60.0625 41.71875 63.234375 
Q 38.140625 66.40625 31.78125 66.40625 
Q 25.390625 66.40625 21.84375 63.234375 
Q 18.3125 60.0625 18.3125 54.390625 
" id="BitstreamVeraSans-Roman-38"/>
      </defs>
      <g transform="translate(268.700625 381.859875)scale(0.12 -0.12)">
       <use xlink:href="#BitstreamVeraSans-Roman-38"/>
       <use x="63.623046875" xlink:href="#BitstreamVeraSans-Roman-30"/>
       <use x="127.24609375" xlink:href="#BitstreamVeraSans-Roman-30"/>
      </g>
     </g>
    </g>
    <g id="xtick_6">
     <g id="line2d_12">
      <g>
       <use style="stroke:#000000;stroke-width:0.5;" x="335.953125" xlink:href="#m69d70cff0c" y="368.74175"/>
      </g>
     </g>
     <g id="line2d_13">
      <g>
       <use style="stroke:#000000;stroke-width:0.5;" x="335.953125" xlink:href="#m37e99d246c" y="23.14175"/>
      </g>
     </g>
     <g id="text_6">
      <!-- 1000 -->
      <defs>
       <path d="M 12.40625 8.296875 
L 28.515625 8.296875 
L 28.515625 63.921875 
L 10.984375 60.40625 
L 10.984375 69.390625 
L 28.421875 72.90625 
L 38.28125 72.90625 
L 38.28125 8.296875 
L 54.390625 8.296875 
L 54.390625 0 
L 12.40625 0 
z
" id="BitstreamVeraSans-Roman-31"/>
      </defs>
      <g transform="translate(320.683125 381.859875)scale(0.12 -0.12)">
       <use xlink:href="#BitstreamVeraSans-Roman-31"/>
       <use x="63.623046875" xlink:href="#BitstreamVeraSans-Roman-30"/>
       <use x="127.24609375" xlink:href="#BitstreamVeraSans-Roman-30"/>
       <use x="190.869140625" xlink:href="#BitstreamVeraSans-Roman-30"/>
      </g>
     </g>
    </g>
    <g id="xtick_7">
     <g id="line2d_14">
      <g>
       <use style="stroke:#000000;stroke-width:0.5;" x="391.753125" xlink:href="#m69d70cff0c" y="368.74175"/>
      </g>
     </g>
     <g id="line2d_15">
      <g>
       <use style="stroke:#000000;stroke-width:0.5;" x="391.753125" xlink:href="#m37e99d246c" y="23.14175"/>
      </g>
     </g>
     <g id="text_7">
      <!-- 1200 -->
      <g transform="translate(376.483125 381.859875)scale(0.12 -0.12)">
       <use xlink:href="#BitstreamVeraSans-Roman-31"/>
       <use x="63.623046875" xlink:href="#BitstreamVeraSans-Roman-32"/>
       <use x="127.24609375" xlink:href="#BitstreamVeraSans-Roman-30"/>
       <use x="190.869140625" xlink:href="#BitstreamVeraSans-Roman-30"/>
      </g>
     </g>
    </g>
    <g id="xtick_8">
     <g id="line2d_16">
      <g>
       <use style="stroke:#000000;stroke-width:0.5;" x="447.553125" xlink:href="#m69d70cff0c" y="368.74175"/>
      </g>
     </g>
     <g id="line2d_17">
      <g>
       <use style="stroke:#000000;stroke-width:0.5;" x="447.553125" xlink:href="#m37e99d246c" y="23.14175"/>
      </g>
     </g>
     <g id="text_8">
      <!-- 1400 -->
      <g transform="translate(432.283125 381.859875)scale(0.12 -0.12)">
       <use xlink:href="#BitstreamVeraSans-Roman-31"/>
       <use x="63.623046875" xlink:href="#BitstreamVeraSans-Roman-34"/>
       <use x="127.24609375" xlink:href="#BitstreamVeraSans-Roman-30"/>
       <use x="190.869140625" xlink:href="#BitstreamVeraSans-Roman-30"/>
      </g>
     </g>
    </g>
    <g id="xtick_9">
     <g id="line2d_18">
      <g>
       <use style="stroke:#000000;stroke-width:0.5;" x="503.353125" xlink:href="#m69d70cff0c" y="368.74175"/>
      </g>
     </g>
     <g id="line2d_19">
      <g>
       <use style="stroke:#000000;stroke-width:0.5;" x="503.353125" xlink:href="#m37e99d246c" y="23.14175"/>
      </g>
     </g>
     <g id="text_9">
      <!-- 1600 -->
      <g transform="translate(488.083125 381.859875)scale(0.12 -0.12)">
       <use xlink:href="#BitstreamVeraSans-Roman-31"/>
       <use x="63.623046875" xlink:href="#BitstreamVeraSans-Roman-36"/>
       <use x="127.24609375" xlink:href="#BitstreamVeraSans-Roman-30"/>
       <use x="190.869140625" xlink:href="#BitstreamVeraSans-Roman-30"/>
      </g>
     </g>
    </g>
    <g id="text_10">
     <!-- episode -->
     <defs>
      <path d="M 44.28125 53.078125 
L 44.28125 44.578125 
Q 40.484375 46.53125 36.375 47.5 
Q 32.28125 48.484375 27.875 48.484375 
Q 21.1875 48.484375 17.84375 46.4375 
Q 14.5 44.390625 14.5 40.28125 
Q 14.5 37.15625 16.890625 35.375 
Q 19.28125 33.59375 26.515625 31.984375 
L 29.59375 31.296875 
Q 39.15625 29.25 43.1875 25.515625 
Q 47.21875 21.78125 47.21875 15.09375 
Q 47.21875 7.46875 41.1875 3.015625 
Q 35.15625 -1.421875 24.609375 -1.421875 
Q 20.21875 -1.421875 15.453125 -0.5625 
Q 10.6875 0.296875 5.421875 2 
L 5.421875 11.28125 
Q 10.40625 8.6875 15.234375 7.390625 
Q 20.0625 6.109375 24.8125 6.109375 
Q 31.15625 6.109375 34.5625 8.28125 
Q 37.984375 10.453125 37.984375 14.40625 
Q 37.984375 18.0625 35.515625 20.015625 
Q 33.0625 21.96875 24.703125 23.78125 
L 21.578125 24.515625 
Q 13.234375 26.265625 9.515625 29.90625 
Q 5.8125 33.546875 5.8125 39.890625 
Q 5.8125 47.609375 11.28125 51.796875 
Q 16.75 56 26.8125 56 
Q 31.78125 56 36.171875 55.265625 
Q 40.578125 54.546875 44.28125 53.078125 
" id="BitstreamVeraSans-Roman-73"/>
      <path d="M 30.609375 48.390625 
Q 23.390625 48.390625 19.1875 42.75 
Q 14.984375 37.109375 14.984375 27.296875 
Q 14.984375 17.484375 19.15625 11.84375 
Q 23.34375 6.203125 30.609375 6.203125 
Q 37.796875 6.203125 41.984375 11.859375 
Q 46.1875 17.53125 46.1875 27.296875 
Q 46.1875 37.015625 41.984375 42.703125 
Q 37.796875 48.390625 30.609375 48.390625 
M 30.609375 56 
Q 42.328125 56 49.015625 48.375 
Q 55.71875 40.765625 55.71875 27.296875 
Q 55.71875 13.875 49.015625 6.21875 
Q 42.328125 -1.421875 30.609375 -1.421875 
Q 18.84375 -1.421875 12.171875 6.21875 
Q 5.515625 13.875 5.515625 27.296875 
Q 5.515625 40.765625 12.171875 48.375 
Q 18.84375 56 30.609375 56 
" id="BitstreamVeraSans-Roman-6f"/>
      <path d="M 9.421875 54.6875 
L 18.40625 54.6875 
L 18.40625 0 
L 9.421875 0 
z
M 9.421875 75.984375 
L 18.40625 75.984375 
L 18.40625 64.59375 
L 9.421875 64.59375 
z
" id="BitstreamVeraSans-Roman-69"/>
      <path d="M 18.109375 8.203125 
L 18.109375 -20.796875 
L 9.078125 -20.796875 
L 9.078125 54.6875 
L 18.109375 54.6875 
L 18.109375 46.390625 
Q 20.953125 51.265625 25.265625 53.625 
Q 29.59375 56 35.59375 56 
Q 45.5625 56 51.78125 48.09375 
Q 58.015625 40.1875 58.015625 27.296875 
Q 58.015625 14.40625 51.78125 6.484375 
Q 45.5625 -1.421875 35.59375 -1.421875 
Q 29.59375 -1.421875 25.265625 0.953125 
Q 20.953125 3.328125 18.109375 8.203125 
M 48.6875 27.296875 
Q 48.6875 37.203125 44.609375 42.84375 
Q 40.53125 48.484375 33.40625 48.484375 
Q 26.265625 48.484375 22.1875 42.84375 
Q 18.109375 37.203125 18.109375 27.296875 
Q 18.109375 17.390625 22.1875 11.75 
Q 26.265625 6.109375 33.40625 6.109375 
Q 40.53125 6.109375 44.609375 11.75 
Q 48.6875 17.390625 48.6875 27.296875 
" id="BitstreamVeraSans-Roman-70"/>
      <path d="M 45.40625 46.390625 
L 45.40625 75.984375 
L 54.390625 75.984375 
L 54.390625 0 
L 45.40625 0 
L 45.40625 8.203125 
Q 42.578125 3.328125 38.25 0.953125 
Q 33.9375 -1.421875 27.875 -1.421875 
Q 17.96875 -1.421875 11.734375 6.484375 
Q 5.515625 14.40625 5.515625 27.296875 
Q 5.515625 40.1875 11.734375 48.09375 
Q 17.96875 56 27.875 56 
Q 33.9375 56 38.25 53.625 
Q 42.578125 51.265625 45.40625 46.390625 
M 14.796875 27.296875 
Q 14.796875 17.390625 18.875 11.75 
Q 22.953125 6.109375 30.078125 6.109375 
Q 37.203125 6.109375 41.296875 11.75 
Q 45.40625 17.390625 45.40625 27.296875 
Q 45.40625 37.203125 41.296875 42.84375 
Q 37.203125 48.484375 30.078125 48.484375 
Q 22.953125 48.484375 18.875 42.84375 
Q 14.796875 37.203125 14.796875 27.296875 
" id="BitstreamVeraSans-Roman-64"/>
      <path d="M 56.203125 29.59375 
L 56.203125 25.203125 
L 14.890625 25.203125 
Q 15.484375 15.921875 20.484375 11.0625 
Q 25.484375 6.203125 34.421875 6.203125 
Q 39.59375 6.203125 44.453125 7.46875 
Q 49.3125 8.734375 54.109375 11.28125 
L 54.109375 2.78125 
Q 49.265625 0.734375 44.1875 -0.34375 
Q 39.109375 -1.421875 33.890625 -1.421875 
Q 20.796875 -1.421875 13.15625 6.1875 
Q 5.515625 13.8125 5.515625 26.8125 
Q 5.515625 40.234375 12.765625 48.109375 
Q 20.015625 56 32.328125 56 
Q 43.359375 56 49.78125 48.890625 
Q 56.203125 41.796875 56.203125 29.59375 
M 47.21875 32.234375 
Q 47.125 39.59375 43.09375 43.984375 
Q 39.0625 48.390625 32.421875 48.390625 
Q 24.90625 48.390625 20.390625 44.140625 
Q 15.875 39.890625 15.1875 32.171875 
z
" id="BitstreamVeraSans-Roman-65"/>
     </defs>
     <g transform="translate(256.6875 398.473625)scale(0.12 -0.12)">
      <use xlink:href="#BitstreamVeraSans-Roman-65"/>
      <use x="61.5234375" xlink:href="#BitstreamVeraSans-Roman-70"/>
      <use x="125.0" xlink:href="#BitstreamVeraSans-Roman-69"/>
      <use x="152.783203125" xlink:href="#BitstreamVeraSans-Roman-73"/>
      <use x="204.8828125" xlink:href="#BitstreamVeraSans-Roman-6f"/>
      <use x="266.064453125" xlink:href="#BitstreamVeraSans-Roman-64"/>
      <use x="329.541015625" xlink:href="#BitstreamVeraSans-Roman-65"/>
     </g>
    </g>
   </g>
   <g id="matplotlib.axis_2">
    <g id="ytick_1">
     <g id="line2d_20">
      <defs>
       <path d="M 0 0 
L 4 0 
" id="m185a315d7a" style="stroke:#000000;stroke-width:0.5;"/>
      </defs>
      <g>
       <use style="stroke:#000000;stroke-width:0.5;" x="56.953125" xlink:href="#m185a315d7a" y="368.74175"/>
      </g>
     </g>
     <g id="line2d_21">
      <defs>
       <path d="M 0 0 
L -4 0 
" id="m269308a493" style="stroke:#000000;stroke-width:0.5;"/>
      </defs>
      <g>
       <use style="stroke:#000000;stroke-width:0.5;" x="503.353125" xlink:href="#m269308a493" y="368.74175"/>
      </g>
     </g>
     <g id="text_11">
      <!-- 2.0 -->
      <defs>
       <path d="M 10.59375 35.5 
L 73.1875 35.5 
L 73.1875 27.203125 
L 10.59375 27.203125 
z
" id="BitstreamVeraSans-Roman-2212"/>
       <path d="M 10.6875 12.40625 
L 21 12.40625 
L 21 0 
L 10.6875 0 
z
" id="BitstreamVeraSans-Roman-2e"/>
      </defs>
      <g transform="translate(23.81375 372.053)scale(0.12 -0.12)">
       <use xlink:href="#BitstreamVeraSans-Roman-2212"/>
       <use x="83.7890625" xlink:href="#BitstreamVeraSans-Roman-32"/>
       <use x="147.412109375" xlink:href="#BitstreamVeraSans-Roman-2e"/>
       <use x="179.19921875" xlink:href="#BitstreamVeraSans-Roman-30"/>
      </g>
     </g>
    </g>
    <g id="ytick_2">
     <g id="line2d_22">
      <g>
       <use style="stroke:#000000;stroke-width:0.5;" x="56.953125" xlink:href="#m185a315d7a" y="299.62175"/>
      </g>
     </g>
     <g id="line2d_23">
      <g>
       <use style="stroke:#000000;stroke-width:0.5;" x="503.353125" xlink:href="#m269308a493" y="299.62175"/>
      </g>
     </g>
     <g id="text_12">
      <!-- 1.5 -->
      <defs>
       <path d="M 10.796875 72.90625 
L 49.515625 72.90625 
L 49.515625 64.59375 
L 19.828125 64.59375 
L 19.828125 46.734375 
Q 21.96875 47.46875 24.109375 47.828125 
Q 26.265625 48.1875 28.421875 48.1875 
Q 40.625 48.1875 47.75 41.5 
Q 54.890625 34.8125 54.890625 23.390625 
Q 54.890625 11.625 47.5625 5.09375 
Q 40.234375 -1.421875 26.90625 -1.421875 
Q 22.3125 -1.421875 17.546875 -0.640625 
Q 12.796875 0.140625 7.71875 1.703125 
L 7.71875 11.625 
Q 12.109375 9.234375 16.796875 8.0625 
Q 21.484375 6.890625 26.703125 6.890625 
Q 35.15625 6.890625 40.078125 11.328125 
Q 45.015625 15.765625 45.015625 23.390625 
Q 45.015625 31 40.078125 35.4375 
Q 35.15625 39.890625 26.703125 39.890625 
Q 22.75 39.890625 18.8125 39.015625 
Q 14.890625 38.140625 10.796875 36.28125 
z
" id="BitstreamVeraSans-Roman-35"/>
      </defs>
      <g transform="translate(23.81375 302.933)scale(0.12 -0.12)">
       <use xlink:href="#BitstreamVeraSans-Roman-2212"/>
       <use x="83.7890625" xlink:href="#BitstreamVeraSans-Roman-31"/>
       <use x="147.412109375" xlink:href="#BitstreamVeraSans-Roman-2e"/>
       <use x="179.19921875" xlink:href="#BitstreamVeraSans-Roman-35"/>
      </g>
     </g>
    </g>
    <g id="ytick_3">
     <g id="line2d_24">
      <g>
       <use style="stroke:#000000;stroke-width:0.5;" x="56.953125" xlink:href="#m185a315d7a" y="230.50175"/>
      </g>
     </g>
     <g id="line2d_25">
      <g>
       <use style="stroke:#000000;stroke-width:0.5;" x="503.353125" xlink:href="#m269308a493" y="230.50175"/>
      </g>
     </g>
     <g id="text_13">
      <!-- 1.0 -->
      <g transform="translate(23.81375 233.813)scale(0.12 -0.12)">
       <use xlink:href="#BitstreamVeraSans-Roman-2212"/>
       <use x="83.7890625" xlink:href="#BitstreamVeraSans-Roman-31"/>
       <use x="147.412109375" xlink:href="#BitstreamVeraSans-Roman-2e"/>
       <use x="179.19921875" xlink:href="#BitstreamVeraSans-Roman-30"/>
      </g>
     </g>
    </g>
    <g id="ytick_4">
     <g id="line2d_26">
      <g>
       <use style="stroke:#000000;stroke-width:0.5;" x="56.953125" xlink:href="#m185a315d7a" y="161.38175"/>
      </g>
     </g>
     <g id="line2d_27">
      <g>
       <use style="stroke:#000000;stroke-width:0.5;" x="503.353125" xlink:href="#m269308a493" y="161.38175"/>
      </g>
     </g>
     <g id="text_14">
      <!-- 0.5 -->
      <g transform="translate(23.81375 164.693)scale(0.12 -0.12)">
       <use xlink:href="#BitstreamVeraSans-Roman-2212"/>
       <use x="83.7890625" xlink:href="#BitstreamVeraSans-Roman-30"/>
       <use x="147.412109375" xlink:href="#BitstreamVeraSans-Roman-2e"/>
       <use x="179.19921875" xlink:href="#BitstreamVeraSans-Roman-35"/>
      </g>
     </g>
    </g>
    <g id="ytick_5">
     <g id="line2d_28">
      <g>
       <use style="stroke:#000000;stroke-width:0.5;" x="56.953125" xlink:href="#m185a315d7a" y="92.26175"/>
      </g>
     </g>
     <g id="line2d_29">
      <g>
       <use style="stroke:#000000;stroke-width:0.5;" x="503.353125" xlink:href="#m269308a493" y="92.26175"/>
      </g>
     </g>
     <g id="text_15">
      <!-- 0.0 -->
      <g transform="translate(33.869375 95.573)scale(0.12 -0.12)">
       <use xlink:href="#BitstreamVeraSans-Roman-30"/>
       <use x="63.623046875" xlink:href="#BitstreamVeraSans-Roman-2e"/>
       <use x="95.41015625" xlink:href="#BitstreamVeraSans-Roman-30"/>
      </g>
     </g>
    </g>
    <g id="ytick_6">
     <g id="line2d_30">
      <g>
       <use style="stroke:#000000;stroke-width:0.5;" x="56.953125" xlink:href="#m185a315d7a" y="23.14175"/>
      </g>
     </g>
     <g id="line2d_31">
      <g>
       <use style="stroke:#000000;stroke-width:0.5;" x="503.353125" xlink:href="#m269308a493" y="23.14175"/>
      </g>
     </g>
     <g id="text_16">
      <!-- 0.5 -->
      <g transform="translate(33.869375 26.453)scale(0.12 -0.12)">
       <use xlink:href="#BitstreamVeraSans-Roman-30"/>
       <use x="63.623046875" xlink:href="#BitstreamVeraSans-Roman-2e"/>
       <use x="95.41015625" xlink:href="#BitstreamVeraSans-Roman-35"/>
      </g>
     </g>
    </g>
    <g id="text_17">
     <!-- average maxQ -->
     <defs>
      <path d="M 39.40625 66.21875 
Q 28.65625 66.21875 22.328125 58.203125 
Q 16.015625 50.203125 16.015625 36.375 
Q 16.015625 22.609375 22.328125 14.59375 
Q 28.65625 6.59375 39.40625 6.59375 
Q 50.140625 6.59375 56.421875 14.59375 
Q 62.703125 22.609375 62.703125 36.375 
Q 62.703125 50.203125 56.421875 58.203125 
Q 50.140625 66.21875 39.40625 66.21875 
M 53.21875 1.3125 
L 66.21875 -12.890625 
L 54.296875 -12.890625 
L 43.5 -1.21875 
Q 41.890625 -1.3125 41.03125 -1.359375 
Q 40.1875 -1.421875 39.40625 -1.421875 
Q 24.03125 -1.421875 14.8125 8.859375 
Q 5.609375 19.140625 5.609375 36.375 
Q 5.609375 53.65625 14.8125 63.9375 
Q 24.03125 74.21875 39.40625 74.21875 
Q 54.734375 74.21875 63.90625 63.9375 
Q 73.09375 53.65625 73.09375 36.375 
Q 73.09375 23.6875 67.984375 14.640625 
Q 62.890625 5.609375 53.21875 1.3125 
" id="BitstreamVeraSans-Roman-51"/>
      <path d="M 45.40625 27.984375 
Q 45.40625 37.75 41.375 43.109375 
Q 37.359375 48.484375 30.078125 48.484375 
Q 22.859375 48.484375 18.828125 43.109375 
Q 14.796875 37.75 14.796875 27.984375 
Q 14.796875 18.265625 18.828125 12.890625 
Q 22.859375 7.515625 30.078125 7.515625 
Q 37.359375 7.515625 41.375 12.890625 
Q 45.40625 18.265625 45.40625 27.984375 
M 54.390625 6.78125 
Q 54.390625 -7.171875 48.1875 -13.984375 
Q 42 -20.796875 29.203125 -20.796875 
Q 24.46875 -20.796875 20.265625 -20.09375 
Q 16.0625 -19.390625 12.109375 -17.921875 
L 12.109375 -9.1875 
Q 16.0625 -11.328125 19.921875 -12.34375 
Q 23.78125 -13.375 27.78125 -13.375 
Q 36.625 -13.375 41.015625 -8.765625 
Q 45.40625 -4.15625 45.40625 5.171875 
L 45.40625 9.625 
Q 42.625 4.78125 38.28125 2.390625 
Q 33.9375 0 27.875 0 
Q 17.828125 0 11.671875 7.65625 
Q 5.515625 15.328125 5.515625 27.984375 
Q 5.515625 40.671875 11.671875 48.328125 
Q 17.828125 56 27.875 56 
Q 33.9375 56 38.28125 53.609375 
Q 42.625 51.21875 45.40625 46.390625 
L 45.40625 54.6875 
L 54.390625 54.6875 
z
" id="BitstreamVeraSans-Roman-67"/>
      <path d="M 54.890625 54.6875 
L 35.109375 28.078125 
L 55.90625 0 
L 45.3125 0 
L 29.390625 21.484375 
L 13.484375 0 
L 2.875 0 
L 24.125 28.609375 
L 4.6875 54.6875 
L 15.28125 54.6875 
L 29.78125 35.203125 
L 44.28125 54.6875 
z
" id="BitstreamVeraSans-Roman-78"/>
      <path id="BitstreamVeraSans-Roman-20"/>
      <path d="M 2.984375 54.6875 
L 12.5 54.6875 
L 29.59375 8.796875 
L 46.6875 54.6875 
L 56.203125 54.6875 
L 35.6875 0 
L 23.484375 0 
z
" id="BitstreamVeraSans-Roman-76"/>
      <path d="M 52 44.1875 
Q 55.375 50.25 60.0625 53.125 
Q 64.75 56 71.09375 56 
Q 79.640625 56 84.28125 50.015625 
Q 88.921875 44.046875 88.921875 33.015625 
L 88.921875 0 
L 79.890625 0 
L 79.890625 32.71875 
Q 79.890625 40.578125 77.09375 44.375 
Q 74.3125 48.1875 68.609375 48.1875 
Q 61.625 48.1875 57.5625 43.546875 
Q 53.515625 38.921875 53.515625 30.90625 
L 53.515625 0 
L 44.484375 0 
L 44.484375 32.71875 
Q 44.484375 40.625 41.703125 44.40625 
Q 38.921875 48.1875 33.109375 48.1875 
Q 26.21875 48.1875 22.15625 43.53125 
Q 18.109375 38.875 18.109375 30.90625 
L 18.109375 0 
L 9.078125 0 
L 9.078125 54.6875 
L 18.109375 54.6875 
L 18.109375 46.1875 
Q 21.1875 51.21875 25.484375 53.609375 
Q 29.78125 56 35.6875 56 
Q 41.65625 56 45.828125 52.96875 
Q 50 49.953125 52 44.1875 
" id="BitstreamVeraSans-Roman-6d"/>
      <path d="M 41.109375 46.296875 
Q 39.59375 47.171875 37.8125 47.578125 
Q 36.03125 48 33.890625 48 
Q 26.265625 48 22.1875 43.046875 
Q 18.109375 38.09375 18.109375 28.8125 
L 18.109375 0 
L 9.078125 0 
L 9.078125 54.6875 
L 18.109375 54.6875 
L 18.109375 46.1875 
Q 20.953125 51.171875 25.484375 53.578125 
Q 30.03125 56 36.53125 56 
Q 37.453125 56 38.578125 55.875 
Q 39.703125 55.765625 41.0625 55.515625 
z
" id="BitstreamVeraSans-Roman-72"/>
      <path d="M 34.28125 27.484375 
Q 23.390625 27.484375 19.1875 25 
Q 14.984375 22.515625 14.984375 16.5 
Q 14.984375 11.71875 18.140625 8.90625 
Q 21.296875 6.109375 26.703125 6.109375 
Q 34.1875 6.109375 38.703125 11.40625 
Q 43.21875 16.703125 43.21875 25.484375 
L 43.21875 27.484375 
z
M 52.203125 31.203125 
L 52.203125 0 
L 43.21875 0 
L 43.21875 8.296875 
Q 40.140625 3.328125 35.546875 0.953125 
Q 30.953125 -1.421875 24.3125 -1.421875 
Q 15.921875 -1.421875 10.953125 3.296875 
Q 6 8.015625 6 15.921875 
Q 6 25.140625 12.171875 29.828125 
Q 18.359375 34.515625 30.609375 34.515625 
L 43.21875 34.515625 
L 43.21875 35.40625 
Q 43.21875 41.609375 39.140625 45 
Q 35.0625 48.390625 27.6875 48.390625 
Q 23 48.390625 18.546875 47.265625 
Q 14.109375 46.140625 10.015625 43.890625 
L 10.015625 52.203125 
Q 14.9375 54.109375 19.578125 55.046875 
Q 24.21875 56 28.609375 56 
Q 40.484375 56 46.34375 49.84375 
Q 52.203125 43.703125 52.203125 31.203125 
" id="BitstreamVeraSans-Roman-61"/>
     </defs>
     <g transform="translate(16.318125 240.208625)rotate(-90.0)scale(0.12 -0.12)">
      <use xlink:href="#BitstreamVeraSans-Roman-61"/>
      <use x="61.279296875" xlink:href="#BitstreamVeraSans-Roman-76"/>
      <use x="120.458984375" xlink:href="#BitstreamVeraSans-Roman-65"/>
      <use x="181.982421875" xlink:href="#BitstreamVeraSans-Roman-72"/>
      <use x="223.095703125" xlink:href="#BitstreamVeraSans-Roman-61"/>
      <use x="284.375" xlink:href="#BitstreamVeraSans-Roman-67"/>
      <use x="347.8515625" xlink:href="#BitstreamVeraSans-Roman-65"/>
      <use x="409.375" xlink:href="#BitstreamVeraSans-Roman-20"/>
      <use x="441.162109375" xlink:href="#BitstreamVeraSans-Roman-6d"/>
      <use x="538.57421875" xlink:href="#BitstreamVeraSans-Roman-61"/>
      <use x="599.853515625" xlink:href="#BitstreamVeraSans-Roman-78"/>
      <use x="659.033203125" xlink:href="#BitstreamVeraSans-Roman-51"/>
     </g>
    </g>
   </g>
   <g id="text_18">
    <!-- Average maxQ per episode, joint 5 -->
    <defs>
     <path d="M 9.421875 54.6875 
L 18.40625 54.6875 
L 18.40625 -0.984375 
Q 18.40625 -11.421875 14.421875 -16.109375 
Q 10.453125 -20.796875 1.609375 -20.796875 
L -1.8125 -20.796875 
L -1.8125 -13.1875 
L 0.59375 -13.1875 
Q 5.71875 -13.1875 7.5625 -10.8125 
Q 9.421875 -8.453125 9.421875 -0.984375 
z
M 9.421875 75.984375 
L 18.40625 75.984375 
L 18.40625 64.59375 
L 9.421875 64.59375 
z
" id="BitstreamVeraSans-Roman-6a"/>
     <path d="M 34.1875 63.1875 
L 20.796875 26.90625 
L 47.609375 26.90625 
z
M 28.609375 72.90625 
L 39.796875 72.90625 
L 67.578125 0 
L 57.328125 0 
L 50.6875 18.703125 
L 17.828125 18.703125 
L 11.1875 0 
L 0.78125 0 
z
" id="BitstreamVeraSans-Roman-41"/>
     <path d="M 18.3125 70.21875 
L 18.3125 54.6875 
L 36.8125 54.6875 
L 36.8125 47.703125 
L 18.3125 47.703125 
L 18.3125 18.015625 
Q 18.3125 11.328125 20.140625 9.421875 
Q 21.96875 7.515625 27.59375 7.515625 
L 36.8125 7.515625 
L 36.8125 0 
L 27.59375 0 
Q 17.1875 0 13.234375 3.875 
Q 9.28125 7.765625 9.28125 18.015625 
L 9.28125 47.703125 
L 2.6875 47.703125 
L 2.6875 54.6875 
L 9.28125 54.6875 
L 9.28125 70.21875 
z
" id="BitstreamVeraSans-Roman-74"/>
     <path d="M 11.71875 12.40625 
L 22.015625 12.40625 
L 22.015625 4 
L 14.015625 -11.625 
L 7.71875 -11.625 
L 11.71875 4 
z
" id="BitstreamVeraSans-Roman-2c"/>
     <path d="M 54.890625 33.015625 
L 54.890625 0 
L 45.90625 0 
L 45.90625 32.71875 
Q 45.90625 40.484375 42.875 44.328125 
Q 39.84375 48.1875 33.796875 48.1875 
Q 26.515625 48.1875 22.3125 43.546875 
Q 18.109375 38.921875 18.109375 30.90625 
L 18.109375 0 
L 9.078125 0 
L 9.078125 54.6875 
L 18.109375 54.6875 
L 18.109375 46.1875 
Q 21.34375 51.125 25.703125 53.5625 
Q 30.078125 56 35.796875 56 
Q 45.21875 56 50.046875 50.171875 
Q 54.890625 44.34375 54.890625 33.015625 
" id="BitstreamVeraSans-Roman-6e"/>
    </defs>
    <g transform="translate(154.591875 18.14175)scale(0.144 -0.144)">
     <use xlink:href="#BitstreamVeraSans-Roman-41"/>
     <use x="68.330078125" xlink:href="#BitstreamVeraSans-Roman-76"/>
     <use x="127.509765625" xlink:href="#BitstreamVeraSans-Roman-65"/>
     <use x="189.033203125" xlink:href="#BitstreamVeraSans-Roman-72"/>
     <use x="230.146484375" xlink:href="#BitstreamVeraSans-Roman-61"/>
     <use x="291.42578125" xlink:href="#BitstreamVeraSans-Roman-67"/>
     <use x="354.90234375" xlink:href="#BitstreamVeraSans-Roman-65"/>
     <use x="416.42578125" xlink:href="#BitstreamVeraSans-Roman-20"/>
     <use x="448.212890625" xlink:href="#BitstreamVeraSans-Roman-6d"/>
     <use x="545.625" xlink:href="#BitstreamVeraSans-Roman-61"/>
     <use x="606.904296875" xlink:href="#BitstreamVeraSans-Roman-78"/>
     <use x="666.083984375" xlink:href="#BitstreamVeraSans-Roman-51"/>
     <use x="744.794921875" xlink:href="#BitstreamVeraSans-Roman-20"/>
     <use x="776.58203125" xlink:href="#BitstreamVeraSans-Roman-70"/>
     <use x="840.05859375" xlink:href="#BitstreamVeraSans-Roman-65"/>
     <use x="901.58203125" xlink:href="#BitstreamVeraSans-Roman-72"/>
     <use x="942.6953125" xlink:href="#BitstreamVeraSans-Roman-20"/>
     <use x="974.482421875" xlink:href="#BitstreamVeraSans-Roman-65"/>
     <use x="1036.005859375" xlink:href="#BitstreamVeraSans-Roman-70"/>
     <use x="1099.482421875" xlink:href="#BitstreamVeraSans-Roman-69"/>
     <use x="1127.265625" xlink:href="#BitstreamVeraSans-Roman-73"/>
     <use x="1179.365234375" xlink:href="#BitstreamVeraSans-Roman-6f"/>
     <use x="1240.546875" xlink:href="#BitstreamVeraSans-Roman-64"/>
     <use x="1304.0234375" xlink:href="#BitstreamVeraSans-Roman-65"/>
     <use x="1365.546875" xlink:href="#BitstreamVeraSans-Roman-2c"/>
     <use x="1397.333984375" xlink:href="#BitstreamVeraSans-Roman-20"/>
     <use x="1429.12109375" xlink:href="#BitstreamVeraSans-Roman-6a"/>
     <use x="1456.904296875" xlink:href="#BitstreamVeraSans-Roman-6f"/>
     <use x="1518.0859375" xlink:href="#BitstreamVeraSans-Roman-69"/>
     <use x="1545.869140625" xlink:href="#BitstreamVeraSans-Roman-6e"/>
     <use x="1609.248046875" xlink:href="#BitstreamVeraSans-Roman-74"/>
     <use x="1648.45703125" xlink:href="#BitstreamVeraSans-Roman-20"/>
     <use x="1680.244140625" xlink:href="#BitstreamVeraSans-Roman-35"/>
    </g>
   </g>
  </g>
 </g>
 <defs>
  <clipPath id="p8df6e8f49e">
   <rect height="345.6" width="446.4" x="56.953125" y="23.14175"/>
  </clipPath>
 </defs>
</svg>
