<?xml version="1.0" encoding="utf-8" standalone="no"?>
<!DOCTYPE svg PUBLIC "-//W3C//DTD SVG 1.1//EN"
  "http://www.w3.org/Graphics/SVG/1.1/DTD/svg11.dtd">
<!-- Created with matplotlib (http://matplotlib.org/) -->
<svg height="408pt" version="1.1" viewBox="0 0 515 408" width="515pt" xmlns="http://www.w3.org/2000/svg" xmlns:xlink="http://www.w3.org/1999/xlink">
 <defs>
  <style type="text/css">
*{stroke-linecap:butt;stroke-linejoin:round;stroke-miterlimit:100000;}
  </style>
 </defs>
 <g id="figure_1">
  <g id="patch_1">
   <path d="M 0 408.16925 
L 515.7675 408.16925 
L 515.7675 0 
L 0 0 
z
" style="fill:#ffffff;"/>
  </g>
  <g id="axes_1">
   <g id="patch_2">
    <path d="M 46.8975 368.74175 
L 493.2975 368.74175 
L 493.2975 23.14175 
L 46.8975 23.14175 
z
" style="fill:#ffffff;"/>
   </g>
   <g id="line2d_1">
    <path clip-path="url(#p264ca4459a)" d="M 47.0463 328.985343 
L 47.1951 331.530988 
L 47.3439 329.58054 
L 47.6415 331.978566 
L 47.7903 330.530473 
L 47.9391 330.192913 
L 48.0879 332.035132 
L 48.2367 330.632623 
L 48.3855 330.425107 
L 48.6831 330.937697 
L 48.8319 330.704726 
L 48.9807 331.454973 
L 49.1295 328.944829 
L 49.2783 331.306344 
L 49.4271 330.998017 
L 49.5759 332.385846 
L 49.8735 329.584275 
L 50.0223 330.379954 
L 50.1711 329.484881 
L 50.3199 331.776476 
L 50.4687 328.838425 
L 50.6175 331.542563 
L 50.7663 329.450416 
L 50.9151 332.092402 
L 51.0639 329.509574 
L 51.2127 330.435758 
L 51.5103 329.538366 
L 51.6591 331.192332 
L 51.8079 328.189014 
L 52.2543 330.492425 
L 52.4031 330.828782 
L 52.5519 330.821262 
L 52.7007 332.129337 
L 52.8495 329.943612 
L 52.9983 330.232526 
L 53.1471 331.729283 
L 53.2959 331.279814 
L 53.4447 328.861746 
L 53.7423 332.164472 
L 53.8911 330.51555 
L 54.0399 332.39252 
L 54.1887 330.586466 
L 54.3375 331.323091 
L 54.4863 328.697545 
L 54.6351 330.653357 
L 54.7839 330.1278 
L 54.9327 331.820681 
L 55.0815 331.170126 
L 55.2303 331.281985 
L 55.5279 329.93508 
L 55.6767 331.035792 
L 55.8255 328.971607 
L 55.9743 332.42855 
L 56.2719 330.040563 
L 56.5695 328.645498 
L 56.7183 331.018151 
L 56.8671 330.630219 
L 57.0159 328.928191 
L 57.1647 329.463632 
L 57.3135 328.235279 
L 57.4623 332.0901 
L 57.7599 329.498059 
L 57.9087 330.042413 
L 58.0575 328.096589 
L 58.2063 331.316963 
L 58.3551 330.653066 
L 58.5039 327.801798 
L 58.8015 330.058141 
L 58.9503 330.039784 
L 59.0991 331.000233 
L 59.2479 327.694838 
L 59.5455 330.033992 
L 59.6943 328.417596 
L 59.8431 330.485155 
L 59.9919 330.454125 
L 60.1407 329.940022 
L 60.5871 331.306886 
L 60.7359 329.752315 
L 60.8847 329.427539 
L 61.0335 328.833045 
L 61.1823 332.840421 
L 61.4799 329.550119 
L 61.6287 331.048267 
L 61.7775 368.74175 
L 61.9263 330.7211 
L 62.2239 329.773631 
L 62.3727 329.676907 
L 62.5215 332.258908 
L 62.8191 330.297383 
L 62.9679 330.763155 
L 63.1167 329.379411 
L 63.2655 329.100942 
L 63.4143 330.370547 
L 63.7119 329.904839 
L 63.8607 332.181043 
L 64.0095 331.753243 
L 64.1583 328.714002 
L 64.4559 332.284257 
L 64.6047 329.583023 
L 64.7535 331.681226 
L 65.0511 328.344766 
L 65.3487 331.463256 
L 65.4975 328.560751 
L 65.6463 328.665061 
L 65.7951 332.947806 
L 65.9439 329.736344 
L 66.2415 331.719887 
L 66.3903 331.187499 
L 66.5391 329.827158 
L 66.8367 332.991889 
L 66.9855 329.252877 
L 67.1343 334.331971 
L 67.4319 328.860065 
L 67.5807 331.718528 
L 67.7295 329.688789 
L 67.8783 330.554743 
L 68.0271 333.386249 
L 68.1759 330.723327 
L 68.3247 331.883197 
L 68.4735 331.256461 
L 68.6223 331.453479 
L 68.7711 330.398197 
L 68.9199 330.514113 
L 69.0687 330.918254 
L 69.2175 330.082288 
L 69.3663 330.063829 
L 69.5151 328.193282 
L 69.8127 332.16445 
L 70.1103 329.298668 
L 70.2591 332.829123 
L 70.4079 329.979588 
L 70.5567 331.066469 
L 70.7055 329.814619 
L 71.0031 330.361505 
L 71.1519 327.265859 
L 71.3007 331.584037 
L 71.4495 329.006799 
L 71.5983 329.024284 
L 71.7471 328.636909 
L 71.8959 331.072032 
L 72.0447 330.689677 
L 72.1935 329.9326 
L 72.3423 331.282203 
L 72.4911 330.792489 
L 72.6399 331.05323 
L 72.7887 330.650763 
L 72.9375 328.094162 
L 73.0863 331.268871 
L 73.2351 329.374352 
L 73.3839 330.578406 
L 73.6815 330.187311 
L 73.8303 332.205985 
L 73.9791 329.430817 
L 74.1279 331.039511 
L 74.2767 329.506198 
L 74.4255 331.662341 
L 74.5743 329.053287 
L 74.7231 330.168505 
L 74.8719 329.897722 
L 75.1695 331.348389 
L 75.3183 328.858687 
L 75.4671 330.678102 
L 75.6159 330.270831 
L 75.7647 330.762203 
L 75.9135 329.65967 
L 76.2111 332.580438 
L 76.5087 328.765897 
L 76.6575 368.74175 
L 76.8063 329.200918 
L 76.9551 332.180466 
L 77.2527 329.004261 
L 77.4015 328.640673 
L 77.5503 329.132244 
L 77.6991 329.22653 
L 77.8479 328.699145 
L 77.9967 330.227582 
L 78.1455 333.421163 
L 78.2943 330.89416 
L 78.4431 330.533304 
L 78.5919 328.431377 
L 78.7407 330.372021 
L 78.8895 329.000849 
L 79.0383 329.344738 
L 79.1871 328.552624 
L 79.3359 330.93879 
L 79.4847 330.925777 
L 79.6335 329.179504 
L 79.7823 332.569031 
L 79.9311 330.063397 
L 80.2287 330.960912 
L 80.3775 329.74624 
L 80.5263 330.320893 
L 80.8239 332.611668 
L 80.9727 332.402362 
L 81.1215 328.836895 
L 81.2703 332.295834 
L 81.4191 329.573301 
L 81.5679 329.885448 
L 81.7167 333.284184 
L 82.1631 328.900821 
L 82.4607 331.90814 
L 82.6095 330.889936 
L 82.7583 330.974865 
L 82.9071 328.228793 
L 83.0559 328.257641 
L 83.2047 329.955768 
L 83.3535 328.804195 
L 83.5023 330.519978 
L 83.6511 329.544574 
L 83.7999 330.105132 
L 84.0975 329.660806 
L 84.2463 332.091651 
L 84.3951 331.236433 
L 84.5439 332.322644 
L 84.8415 328.040801 
L 85.1391 345.895483 
L 85.2879 339.115913 
L 85.4367 341.883545 
L 85.5855 340.297297 
L 85.7343 344.48245 
L 85.8831 343.080396 
L 86.1807 347.470657 
L 86.3295 348.883676 
L 86.4783 340.677178 
L 86.6271 346.170959 
L 86.7759 347.321638 
L 87.0735 343.793236 
L 87.2223 344.711078 
L 87.3711 346.385185 
L 87.8175 344.246675 
L 87.9663 345.293487 
L 88.1151 343.926148 
L 88.2639 344.68473 
L 88.4127 344.58841 
L 88.7103 345.679523 
L 88.8591 344.554718 
L 89.1567 345.055904 
L 89.3055 344.484797 
L 89.6031 345.10215 
L 89.7519 344.37571 
L 89.9007 344.214035 
L 90.0495 344.848326 
L 90.1983 344.106941 
L 90.4959 344.61918 
L 90.6447 344.298953 
L 90.7935 344.548432 
L 91.0911 344.049915 
L 91.3887 344.727652 
L 91.5375 368.74175 
L 91.6863 343.289774 
L 91.8351 344.637843 
L 91.9839 343.306585 
L 92.2815 343.88542 
L 92.4303 342.685645 
L 92.5791 344.223616 
L 92.7279 343.940437 
L 92.8767 344.497288 
L 93.0255 345.518012 
L 93.1743 343.478891 
L 93.4719 342.952999 
L 93.6207 343.459122 
L 93.9183 343.268787 
L 94.0671 344.373759 
L 94.3647 343.187325 
L 94.5135 343.110086 
L 94.8111 343.519821 
L 94.9599 343.123109 
L 95.1087 343.519058 
L 95.2575 343.470365 
L 95.4063 342.664473 
L 95.5551 342.833145 
L 95.7039 342.529323 
L 95.8527 342.890578 
L 96.0015 342.824242 
L 96.1503 343.647996 
L 96.2991 341.790596 
L 96.4479 343.01586 
L 96.7455 342.368763 
L 97.0431 343.688917 
L 97.1919 340.969312 
L 97.4895 342.655936 
L 97.6383 341.27738 
L 97.7871 341.42153 
L 97.9359 342.776199 
L 98.0847 340.885501 
L 98.2335 342.15528 
L 98.3823 341.473797 
L 98.5311 341.768418 
L 98.6799 341.764361 
L 98.8287 339.718784 
L 98.9775 341.625253 
L 99.1263 340.867669 
L 99.2751 341.109185 
L 99.4239 341.719345 
L 99.5727 340.17558 
L 99.7215 341.779893 
L 99.8703 341.351317 
L 100.0191 341.85412 
L 100.1679 340.161752 
L 100.3167 341.446 
L 100.4655 338.202144 
L 100.6143 340.042468 
L 100.7631 338.780882 
L 100.9119 341.872362 
L 101.0607 338.45873 
L 101.2095 340.942775 
L 101.3583 339.338299 
L 101.5071 342.423674 
L 101.8047 338.762155 
L 102.2511 341.484139 
L 102.3999 338.396458 
L 102.5487 340.935522 
L 102.6975 338.859094 
L 102.8463 341.339576 
L 103.1439 335.52839 
L 103.2927 340.734835 
L 103.4415 339.203917 
L 103.5903 340.877522 
L 103.7391 340.410151 
L 103.8879 340.537196 
L 104.0367 335.951435 
L 104.1855 337.643799 
L 104.3343 340.963521 
L 104.4831 337.613336 
L 104.6319 340.974336 
L 104.7807 341.443349 
L 104.9295 339.481368 
L 105.0783 340.225722 
L 105.5247 335.567814 
L 105.9711 339.498087 
L 106.1199 337.690052 
L 106.2687 340.168802 
L 106.4175 368.74175 
L 106.5663 340.39615 
L 106.7151 337.914108 
L 106.8639 338.334494 
L 107.0127 337.952701 
L 107.1615 341.853625 
L 107.4591 335.246549 
L 107.6079 335.609676 
L 107.7567 334.828849 
L 107.9055 336.358698 
L 108.0543 334.394906 
L 108.2031 337.945026 
L 108.5007 332.955334 
L 108.6495 333.359842 
L 108.7983 336.24496 
L 108.9471 335.954641 
L 109.0959 333.646372 
L 109.2447 336.668705 
L 109.3935 334.642991 
L 109.6911 337.494044 
L 110.1375 333.353533 
L 110.5839 336.072568 
L 110.7327 338.018566 
L 110.8815 334.839229 
L 111.0303 338.797008 
L 111.1791 333.248032 
L 111.3279 335.460182 
L 111.4767 333.191638 
L 111.6255 335.482989 
L 111.7743 333.294876 
L 111.9231 334.252111 
L 112.0719 332.628768 
L 112.3695 338.742357 
L 112.5183 333.417453 
L 112.6671 334.768355 
L 112.8159 331.251925 
L 112.9647 332.111578 
L 113.1135 333.846034 
L 113.2623 329.925036 
L 113.7087 335.847343 
L 113.8575 335.237492 
L 114.0063 330.160154 
L 114.1551 334.56525 
L 114.3039 329.080514 
L 114.4527 341.375598 
L 114.7503 331.359002 
L 114.8991 329.419263 
L 115.0479 330.218179 
L 115.1967 328.427198 
L 115.3455 332.972843 
L 115.4943 329.124282 
L 115.6431 334.397964 
L 115.7919 334.359438 
L 115.9407 331.306224 
L 116.0895 334.005459 
L 116.2383 333.025318 
L 116.3871 330.629757 
L 116.5359 334.328562 
L 116.8335 328.252151 
L 117.1311 331.190511 
L 117.2799 330.011995 
L 117.4287 331.898171 
L 117.5775 330.426578 
L 117.7263 333.547415 
L 117.8751 330.510221 
L 118.0239 332.900585 
L 118.3215 329.467703 
L 118.4703 330.786206 
L 118.6191 330.122768 
L 118.7679 332.611359 
L 118.9167 330.269827 
L 119.0655 325.85462 
L 119.2143 327.250988 
L 119.3631 332.131997 
L 119.5119 328.144083 
L 119.6607 327.637104 
L 119.8095 336.49663 
L 119.9583 331.239442 
L 120.2559 329.748946 
L 120.4047 326.219139 
L 120.5535 328.625508 
L 120.7023 324.009477 
L 121.1487 335.025268 
L 121.2975 368.74175 
L 121.4463 327.683772 
L 121.5951 328.994072 
L 121.7439 327.393331 
L 121.8927 328.410415 
L 122.0415 328.121494 
L 122.3391 324.266233 
L 122.4879 329.154685 
L 122.6367 328.071821 
L 122.7855 325.086737 
L 122.9343 329.043602 
L 123.0831 329.903436 
L 123.2319 326.434693 
L 123.3807 326.117289 
L 123.5295 326.601577 
L 123.6783 322.579206 
L 123.8271 330.874151 
L 123.9759 323.603652 
L 124.1247 333.602804 
L 124.4223 322.093178 
L 124.7199 327.374709 
L 124.8687 325.331996 
L 125.0175 320.994465 
L 125.1663 324.583173 
L 125.3151 324.580861 
L 125.4639 325.429187 
L 125.6127 321.722385 
L 125.7615 323.745478 
L 125.9103 322.546188 
L 126.0591 333.463649 
L 126.2079 328.102487 
L 126.5055 326.481435 
L 126.6543 329.192552 
L 126.8031 322.667565 
L 127.1007 324.997598 
L 127.2495 322.307216 
L 127.3983 323.022306 
L 127.5471 322.976128 
L 127.6959 329.219645 
L 127.8447 324.093646 
L 127.9935 327.358007 
L 128.2911 325.196681 
L 128.4399 330.458584 
L 128.5887 321.444159 
L 128.7375 326.581365 
L 128.8863 319.68225 
L 129.0351 322.00048 
L 129.1839 321.798917 
L 129.4815 325.089686 
L 129.6303 321.088905 
L 129.7791 325.788178 
L 129.9279 324.410328 
L 130.0767 320.602529 
L 130.2255 321.682174 
L 130.3743 319.442844 
L 130.5231 322.280433 
L 130.6719 321.997291 
L 130.8207 331.209359 
L 130.9695 324.433895 
L 131.1183 327.396129 
L 131.2671 320.366272 
L 131.4159 321.919804 
L 131.5647 326.982905 
L 131.7135 317.841876 
L 131.8623 322.686681 
L 132.0111 339.186655 
L 132.1599 321.398025 
L 132.3087 317.18778 
L 132.4575 318.195551 
L 132.6063 321.22523 
L 132.7551 319.390133 
L 133.0527 324.844008 
L 133.6479 318.707817 
L 133.7967 318.57585 
L 133.9455 330.300947 
L 134.0943 330.639098 
L 134.2431 318.768197 
L 134.3919 321.925019 
L 134.5407 320.367464 
L 134.6895 321.902834 
L 134.9871 317.927722 
L 135.1359 319.01347 
L 135.2847 316.8194 
L 135.4335 323.32998 
L 135.5823 323.550219 
L 135.7311 314.868296 
L 135.8799 316.995628 
L 136.0287 329.760139 
L 136.1775 368.74175 
L 136.3263 322.593664 
L 136.7727 319.7439 
L 136.9215 315.690646 
L 137.0703 319.24864 
L 137.2191 320.035573 
L 137.3679 315.598909 
L 137.5167 317.496251 
L 137.6655 321.374291 
L 137.8143 313.89373 
L 137.9631 317.859389 
L 138.1119 318.035349 
L 138.2607 323.988667 
L 138.4095 318.705034 
L 138.5583 320.773109 
L 138.7071 315.455058 
L 138.8559 315.909201 
L 139.0047 319.77105 
L 139.1535 317.561776 
L 139.3023 312.464723 
L 139.4511 323.355768 
L 139.5999 317.24404 
L 139.7487 322.987692 
L 139.8975 316.11911 
L 140.0463 317.808671 
L 140.3439 312.863977 
L 140.4927 316.1605 
L 140.6415 311.209112 
L 140.7903 313.907165 
L 141.0879 312.657912 
L 141.2367 316.032701 
L 141.3855 312.651781 
L 141.5343 319.54798 
L 141.6831 318.785955 
L 141.8319 316.624221 
L 141.9807 319.44678 
L 142.1295 312.750533 
L 142.2783 311.560584 
L 142.4271 319.520683 
L 142.5759 311.537677 
L 142.7247 321.513986 
L 143.0223 314.156164 
L 143.1711 324.489376 
L 143.3199 317.891182 
L 143.4687 319.032235 
L 143.6175 315.961571 
L 143.7663 317.812528 
L 143.9151 315.919052 
L 144.0639 317.409024 
L 144.2127 309.050057 
L 144.3615 322.451253 
L 144.5103 313.397872 
L 144.6591 320.81168 
L 144.8079 313.558362 
L 144.9567 315.264439 
L 145.2543 311.598962 
L 145.4031 314.177368 
L 145.5519 313.557697 
L 145.7007 313.453364 
L 145.8495 314.137066 
L 145.9983 315.716733 
L 146.1471 306.996907 
L 146.2959 317.480717 
L 146.4447 308.876579 
L 146.7423 314.816892 
L 146.8911 310.894802 
L 147.0399 314.039109 
L 147.1887 308.256946 
L 147.3375 315.485955 
L 147.4863 312.640741 
L 147.6351 312.271993 
L 147.7839 314.242003 
L 147.9327 313.79727 
L 148.0815 315.840444 
L 148.2303 315.643272 
L 148.3791 312.33574 
L 148.5279 315.838634 
L 148.6767 314.168802 
L 148.9743 309.054871 
L 149.1231 308.654256 
L 149.2719 310.458081 
L 149.4207 313.813846 
L 149.5695 308.741828 
L 149.7183 307.827904 
L 149.8671 308.95711 
L 150.0159 306.906944 
L 150.1647 306.480139 
L 150.4623 308.955539 
L 150.6111 314.672619 
L 150.7599 309.882841 
L 150.9087 319.493989 
L 151.0575 368.74175 
L 151.2063 316.013343 
L 151.5039 304.428632 
L 151.6527 314.677103 
L 151.8015 311.596503 
L 151.9503 313.861659 
L 152.0991 309.741404 
L 152.2479 315.133336 
L 152.5455 307.39038 
L 152.6943 312.012669 
L 152.8431 321.166022 
L 152.9919 311.86231 
L 153.1407 310.785276 
L 153.2895 308.12333 
L 153.4383 311.708351 
L 153.5871 311.602911 
L 153.7359 306.765134 
L 154.1823 315.288379 
L 154.3311 306.313693 
L 154.6287 313.103166 
L 154.7775 303.005443 
L 154.9263 307.324897 
L 155.0751 306.360567 
L 155.2239 303.37756 
L 155.3727 305.019579 
L 155.5215 321.205854 
L 155.6703 303.067488 
L 155.8191 300.469673 
L 155.9679 306.868082 
L 156.1167 305.588941 
L 156.2655 314.033921 
L 156.4143 303.436891 
L 156.5631 316.752092 
L 156.7119 306.108226 
L 156.8607 306.65725 
L 157.0095 303.409062 
L 157.3071 308.525581 
L 157.4559 306.744986 
L 157.6047 308.903484 
L 157.7535 302.788612 
L 158.0511 327.828208 
L 158.3487 303.593597 
L 158.4975 309.688144 
L 158.6463 302.780852 
L 158.7951 304.15636 
L 158.9439 309.015902 
L 159.0927 302.784757 
L 159.2415 305.499346 
L 159.3903 302.50426 
L 159.5391 307.193679 
L 159.6879 301.601501 
L 159.8367 304.348523 
L 159.9855 304.239519 
L 160.1343 301.546983 
L 160.2831 304.527522 
L 160.4319 304.150519 
L 160.5807 308.065568 
L 160.7295 302.519692 
L 160.8783 304.085795 
L 161.0271 301.841296 
L 161.1759 297.39583 
L 161.3247 311.195824 
L 161.4735 299.451068 
L 161.9199 308.787925 
L 162.0687 320.017649 
L 162.2175 301.522055 
L 162.3663 307.427236 
L 162.5151 304.225287 
L 162.6639 317.332435 
L 162.8127 301.26625 
L 162.9615 297.251951 
L 163.1103 306.978628 
L 163.2591 303.058061 
L 163.4079 309.37454 
L 163.5567 300.320364 
L 163.7055 312.848114 
L 163.8543 301.592567 
L 164.0031 304.091752 
L 164.3007 297.879591 
L 164.4495 304.858611 
L 164.5983 299.649675 
L 164.7471 308.841154 
L 164.8959 295.12641 
L 165.0447 301.142896 
L 165.1935 299.644706 
L 165.3423 309.006346 
L 165.4911 307.792049 
L 165.6399 298.059659 
L 165.7887 306.602014 
L 165.9375 368.74175 
L 166.0863 300.727141 
L 166.2351 299.188776 
L 166.3839 301.369367 
L 166.5327 294.7518 
L 166.8303 303.170417 
L 166.9791 302.384692 
L 167.1279 303.713222 
L 167.2767 299.348473 
L 167.4255 299.787877 
L 167.5743 314.958578 
L 167.8719 300.704442 
L 168.0207 311.507599 
L 168.1695 297.784054 
L 168.4671 301.812947 
L 168.6159 307.914538 
L 168.9135 295.193204 
L 169.0623 302.89175 
L 169.2111 323.832643 
L 169.3599 309.103839 
L 169.5087 306.814325 
L 169.6575 297.694057 
L 169.8063 301.102577 
L 170.2527 296.17418 
L 170.4015 299.035664 
L 170.5503 295.236623 
L 170.6991 303.612128 
L 170.9967 301.230319 
L 171.1455 303.845475 
L 171.2943 295.961473 
L 171.4431 294.678205 
L 171.5919 302.06144 
L 171.7407 302.73617 
L 171.8895 294.665958 
L 172.0383 295.838932 
L 172.1871 299.27366 
L 172.3359 299.461689 
L 172.4847 297.711011 
L 172.6335 298.959174 
L 172.7823 302.862468 
L 172.9311 300.298248 
L 173.0799 302.290927 
L 173.3775 295.160357 
L 173.5263 301.517621 
L 173.8239 292.946943 
L 173.9727 291.213101 
L 174.1215 296.572095 
L 174.4191 293.971727 
L 174.5679 306.663972 
L 174.7167 294.103785 
L 174.8655 304.210729 
L 175.0143 291.561868 
L 175.1631 293.987158 
L 175.3119 299.507292 
L 175.6095 290.105889 
L 175.7583 299.929515 
L 175.9071 295.947124 
L 176.2047 319.795411 
L 176.5023 289.0781 
L 176.6511 293.170345 
L 176.7999 293.013545 
L 177.0975 300.283549 
L 177.2463 291.953282 
L 177.3951 298.095436 
L 177.5439 290.755025 
L 177.6927 299.425611 
L 177.8415 298.213678 
L 177.9903 286.984731 
L 178.1391 290.156453 
L 178.2879 289.590837 
L 178.5855 304.822255 
L 178.8831 295.567159 
L 179.0319 299.270764 
L 179.1807 287.983806 
L 179.3295 303.080707 
L 179.4783 294.133212 
L 179.6271 321.822142 
L 179.7759 292.657 
L 180.0735 300.38599 
L 180.2223 291.901941 
L 180.5199 298.101477 
L 180.6687 295.749966 
L 180.8175 368.74175 
L 180.9663 296.544135 
L 181.1151 291.534335 
L 181.2639 291.784869 
L 181.4127 312.688473 
L 181.5615 288.436167 
L 181.7103 292.31816 
L 181.8591 307.60204 
L 182.0079 284.977086 
L 182.1567 287.058134 
L 182.3055 303.978465 
L 182.4543 287.383634 
L 182.6031 287.780404 
L 182.7519 304.970304 
L 182.9007 290.889016 
L 183.0495 288.10546 
L 183.3471 295.47122 
L 183.4959 287.3492 
L 183.6447 291.049029 
L 183.7935 303.986221 
L 183.9423 290.486742 
L 184.0911 312.787056 
L 184.2399 291.393693 
L 184.3887 292.326996 
L 184.5375 283.489286 
L 184.6863 299.545504 
L 184.8351 297.533107 
L 184.9839 289.465127 
L 185.1327 288.687748 
L 185.2815 290.627037 
L 185.4303 285.720082 
L 185.5791 285.583791 
L 185.7279 292.472036 
L 186.0255 288.830767 
L 186.1743 301.68022 
L 186.4719 290.494212 
L 186.6207 290.821606 
L 186.7695 293.64051 
L 186.9183 288.864607 
L 187.2159 292.183129 
L 187.3647 287.410696 
L 187.5135 292.33568 
L 187.6623 286.110077 
L 187.8111 284.783714 
L 187.9599 289.184423 
L 188.2575 286.103389 
L 188.4063 288.476297 
L 188.5551 284.953815 
L 188.8527 296.386252 
L 189.0015 286.233539 
L 189.1503 286.118293 
L 189.2991 290.047824 
L 189.4479 284.416902 
L 189.5967 285.015131 
L 189.7455 292.945274 
L 189.8943 292.345989 
L 190.0431 289.300814 
L 190.1919 283.814331 
L 190.3407 318.047092 
L 190.4895 302.242704 
L 190.6383 301.414948 
L 190.7871 288.759232 
L 190.9359 294.574101 
L 191.0847 312.169198 
L 191.2335 289.182255 
L 191.5311 285.450232 
L 191.6799 290.158929 
L 191.9775 284.571753 
L 192.1263 285.283615 
L 192.2751 302.581918 
L 192.5727 288.217317 
L 192.7215 292.084789 
L 192.8703 283.72637 
L 193.0191 297.86463 
L 193.1679 286.554997 
L 193.3167 295.8542 
L 193.4655 281.716642 
L 193.6143 286.841288 
L 193.7631 285.30673 
L 193.9119 298.318807 
L 194.0607 285.329019 
L 194.2095 283.294748 
L 194.5071 288.051666 
L 194.6559 286.19274 
L 194.8047 287.112082 
L 194.9535 281.712822 
L 195.2511 286.763188 
L 195.3999 283.687131 
L 195.5487 290.095317 
L 195.6975 368.74175 
L 195.8463 287.685047 
L 195.9951 292.85293 
L 196.1439 293.161344 
L 196.2927 285.764766 
L 196.4415 284.155297 
L 196.5903 281.186589 
L 196.7391 293.085506 
L 196.8879 287.637829 
L 197.0367 307.707056 
L 197.1855 284.920917 
L 197.3343 286.404403 
L 197.4831 285.557022 
L 197.6319 298.342362 
L 197.7807 286.50055 
L 197.9295 285.895159 
L 198.0783 281.409779 
L 198.2271 282.514624 
L 198.5247 292.183822 
L 198.8223 287.647294 
L 198.9711 290.238222 
L 199.1199 282.430171 
L 199.2687 308.038416 
L 199.4175 280.477187 
L 199.5663 282.032343 
L 199.8639 278.012052 
L 200.1615 293.347743 
L 200.4591 281.42202 
L 200.6079 295.624034 
L 200.9055 284.170204 
L 201.0543 285.482932 
L 201.3519 283.460357 
L 201.5007 278.750651 
L 201.6495 281.375376 
L 201.7983 278.258364 
L 201.9471 280.281436 
L 202.0959 286.497654 
L 202.2447 283.926034 
L 202.3935 285.58053 
L 202.5423 284.694751 
L 202.6911 277.607598 
L 202.8399 284.550734 
L 202.9887 277.291117 
L 203.1375 288.972969 
L 203.2863 276.15428 
L 203.4351 282.027798 
L 203.5839 283.097832 
L 203.7327 282.219616 
L 203.8815 283.312807 
L 204.0303 280.108823 
L 204.1791 283.207556 
L 204.3279 276.920309 
L 204.4767 278.347956 
L 204.7743 282.268795 
L 204.9231 275.033167 
L 205.0719 282.313944 
L 205.2207 276.711319 
L 205.3695 292.576443 
L 205.6671 277.598264 
L 205.8159 274.049633 
L 205.9647 289.014097 
L 206.1135 277.009609 
L 206.4111 276.481484 
L 206.5599 273.707821 
L 206.8575 287.967111 
L 207.0063 281.183328 
L 207.1551 288.795084 
L 207.3039 280.538899 
L 207.4527 280.335941 
L 207.7503 274.064852 
L 207.8991 293.460368 
L 208.0479 274.124001 
L 208.1967 280.347363 
L 208.3455 273.021513 
L 208.4943 283.269195 
L 208.6431 273.88519 
L 208.7919 275.135515 
L 208.9407 274.92658 
L 209.0895 280.734644 
L 209.2383 291.820705 
L 209.5359 276.12394 
L 209.6847 276.469279 
L 209.8335 280.038833 
L 209.9823 277.527496 
L 210.1311 272.729739 
L 210.2799 277.631812 
L 210.4287 278.32667 
L 210.5775 368.74175 
L 210.7263 279.655375 
L 210.8751 272.089171 
L 211.0239 290.555588 
L 211.3215 279.598049 
L 211.4703 283.832835 
L 211.6191 299.996358 
L 211.7679 271.170106 
L 211.9167 272.753267 
L 212.0655 277.195071 
L 212.2143 277.372003 
L 212.6607 272.311004 
L 212.9583 288.473027 
L 213.1071 274.198607 
L 213.4047 270.639632 
L 213.7023 293.534682 
L 213.8511 271.666526 
L 213.9999 270.880967 
L 214.1487 272.803234 
L 214.2975 270.063577 
L 214.5951 283.852085 
L 214.7439 272.805554 
L 214.8927 272.574647 
L 215.0415 285.347851 
L 215.1903 286.869579 
L 215.3391 273.732642 
L 215.6367 280.80865 
L 215.7855 280.584962 
L 215.9343 283.741105 
L 216.0831 272.06927 
L 216.2319 269.555496 
L 216.3807 275.884474 
L 216.5295 267.332564 
L 216.6783 270.734403 
L 216.8271 277.397837 
L 217.1247 269.651503 
L 217.2735 275.452469 
L 217.4223 273.279605 
L 217.5711 274.262513 
L 217.7199 284.407747 
L 217.8687 282.421411 
L 218.0175 273.625032 
L 218.1663 283.632053 
L 218.3151 273.741537 
L 218.4639 286.006205 
L 218.9103 267.976887 
L 219.2079 275.373706 
L 219.3567 268.332671 
L 219.5055 272.585957 
L 219.6543 282.092367 
L 219.8031 283.42497 
L 219.9519 280.142164 
L 220.1007 268.318997 
L 220.3983 276.163482 
L 220.6959 268.430627 
L 220.8447 270.621129 
L 220.9935 276.265675 
L 221.1423 288.330656 
L 221.2911 270.526533 
L 221.4399 280.530822 
L 221.5887 270.37144 
L 221.7375 270.842371 
L 222.0351 275.056414 
L 222.1839 269.890579 
L 222.3327 273.110149 
L 222.6303 269.354147 
L 222.7791 270.545606 
L 222.9279 273.263305 
L 223.0767 267.492937 
L 223.2255 266.78157 
L 223.3743 260.880017 
L 223.5231 269.698455 
L 223.6719 268.122319 
L 223.8207 289.206805 
L 223.9695 272.3429 
L 224.2671 267.293969 
L 224.4159 269.841543 
L 224.5647 282.391315 
L 224.8623 270.691678 
L 225.0111 270.539106 
L 225.1599 263.829528 
L 225.3087 265.196841 
L 225.4575 368.74175 
L 225.6063 262.539692 
L 225.9039 268.020473 
L 226.0527 282.239789 
L 226.2015 282.653215 
L 226.3503 286.923021 
L 226.4991 275.818794 
L 226.6479 273.110613 
L 226.7967 290.499512 
L 226.9455 264.277206 
L 227.0943 266.966554 
L 227.2431 262.524125 
L 227.5407 274.71041 
L 227.6895 274.938701 
L 227.9871 282.180416 
L 228.1359 265.731225 
L 228.2847 280.027884 
L 228.4335 270.756295 
L 228.5823 269.655549 
L 228.7311 266.5082 
L 228.8799 265.76205 
L 229.0287 269.483425 
L 229.1775 264.286128 
L 229.4751 282.583143 
L 229.6239 264.349007 
L 229.9215 269.690175 
L 230.0703 269.344272 
L 230.2191 263.749386 
L 230.3679 270.469559 
L 230.5167 270.648497 
L 230.6655 264.248541 
L 230.8143 265.338195 
L 230.9631 281.637344 
L 231.1119 265.903834 
L 231.2607 263.876246 
L 231.5583 266.116456 
L 231.8559 259.208077 
L 232.0047 274.879659 
L 232.1535 263.225022 
L 232.3023 271.883738 
L 232.4511 271.400066 
L 232.7487 264.237138 
L 233.0463 262.73843 
L 233.1951 258.976188 
L 233.3439 269.556704 
L 233.4927 262.262377 
L 233.6415 264.693587 
L 233.7903 259.147774 
L 233.9391 257.981419 
L 234.0879 262.74199 
L 234.2367 260.230473 
L 234.3855 265.628345 
L 234.6831 261.066594 
L 234.8319 269.964763 
L 234.9807 261.614781 
L 235.1295 266.029436 
L 235.2783 265.15911 
L 235.4271 280.848587 
L 235.5759 281.332637 
L 235.7247 260.540015 
L 235.8735 272.816899 
L 236.3199 261.297525 
L 236.7663 270.71822 
L 236.9151 260.149322 
L 237.2127 258.040399 
L 237.3615 261.481003 
L 237.5103 261.998974 
L 237.6591 263.001393 
L 237.8079 270.630032 
L 238.1055 257.501197 
L 238.2543 277.778699 
L 238.4031 265.927303 
L 238.7007 279.904504 
L 238.8495 258.176928 
L 238.9983 274.812141 
L 239.1471 262.245704 
L 239.2959 264.326626 
L 239.5935 263.117439 
L 239.7423 260.56759 
L 239.8911 261.273598 
L 240.0399 277.660931 
L 240.1887 270.388764 
L 240.3375 368.74175 
L 240.4863 268.743529 
L 240.6351 272.019824 
L 240.9327 259.990875 
L 241.0815 258.035436 
L 241.2303 266.675803 
L 241.5279 260.80988 
L 241.6767 269.236242 
L 241.8255 261.976123 
L 241.9743 275.565033 
L 242.1231 258.615455 
L 242.2719 257.63762 
L 242.4207 264.15183 
L 242.5695 261.851551 
L 242.7183 261.601813 
L 242.8671 268.571458 
L 243.0159 252.298035 
L 243.1647 267.391117 
L 243.3135 263.18866 
L 243.4623 262.176002 
L 243.6111 268.110301 
L 243.9087 254.334876 
L 244.0575 278.169249 
L 244.2063 284.07781 
L 244.3551 258.885484 
L 244.5039 260.914464 
L 244.6527 256.638545 
L 244.8015 263.794313 
L 245.0991 256.088575 
L 245.2479 256.753354 
L 245.3967 261.545567 
L 245.5455 262.625402 
L 245.6943 262.019945 
L 245.8431 258.312229 
L 245.9919 268.062745 
L 246.1407 259.913447 
L 246.2895 269.246387 
L 246.5871 257.123481 
L 246.8847 272.734882 
L 247.0335 271.538479 
L 247.1823 257.195886 
L 247.4799 263.014875 
L 247.6287 260.803833 
L 247.7775 269.413801 
L 247.9263 259.039257 
L 248.0751 259.469722 
L 248.2239 269.227731 
L 248.5215 262.342928 
L 248.6703 262.774784 
L 248.8191 268.453382 
L 249.1167 250.617747 
L 249.4143 260.178948 
L 249.5631 260.576072 
L 249.8607 267.646995 
L 250.0095 260.230864 
L 250.1583 260.827157 
L 250.3071 256.605538 
L 250.4559 257.426771 
L 250.6047 253.08326 
L 250.7535 262.975532 
L 250.9023 263.276241 
L 251.0511 270.890261 
L 251.3487 254.770981 
L 251.4975 254.136489 
L 251.7951 256.032842 
L 251.9439 253.975874 
L 252.0927 253.529279 
L 252.3903 254.601022 
L 252.5391 268.084631 
L 252.6879 252.788986 
L 252.8367 267.753735 
L 253.1343 255.320776 
L 253.2831 264.759685 
L 253.4319 251.288042 
L 253.5807 254.116647 
L 253.7295 253.661493 
L 253.8783 262.902847 
L 254.0271 264.613621 
L 254.1759 261.353624 
L 254.3247 254.791568 
L 254.4735 269.612452 
L 254.6223 249.372054 
L 254.7711 262.223707 
L 254.9199 254.139863 
L 255.0687 259.706741 
L 255.2175 368.74175 
L 255.3663 252.636026 
L 255.8127 270.632855 
L 255.9615 254.744028 
L 256.1103 257.927776 
L 256.2591 268.458463 
L 256.7055 255.856674 
L 256.8543 254.604865 
L 257.0031 256.942886 
L 257.1519 266.415967 
L 257.3007 257.420541 
L 257.4495 262.451476 
L 257.5983 256.766574 
L 257.7471 257.805374 
L 258.0447 244.564644 
L 258.1935 270.61007 
L 258.4911 250.935331 
L 258.6399 254.105418 
L 258.7887 264.276017 
L 259.0863 250.186759 
L 259.2351 259.170687 
L 259.3839 251.919882 
L 259.5327 253.501173 
L 259.8303 269.041078 
L 259.9791 259.424186 
L 260.1279 261.472886 
L 260.2767 260.391181 
L 260.4255 257.646589 
L 260.5743 250.71723 
L 260.7231 263.882089 
L 261.1695 256.756502 
L 261.3183 258.084895 
L 261.4671 276.536446 
L 261.7647 249.89099 
L 261.9135 249.929982 
L 262.0623 251.645811 
L 262.2111 251.046813 
L 262.3599 246.238362 
L 262.5087 261.781044 
L 262.6575 248.02976 
L 262.8063 249.212686 
L 262.9551 255.986859 
L 263.2527 247.021391 
L 263.4015 251.446035 
L 263.5503 250.111931 
L 263.6991 245.914682 
L 263.8479 265.938803 
L 263.9967 251.248892 
L 264.1455 248.23995 
L 264.2943 239.844955 
L 264.4431 247.589236 
L 264.5919 241.50183 
L 264.7407 263.983014 
L 264.8895 254.411927 
L 265.0383 271.091249 
L 265.1871 254.829541 
L 265.3359 253.658316 
L 265.7823 247.76287 
L 265.9311 252.59375 
L 266.0799 249.448549 
L 266.2287 253.582561 
L 266.3775 245.946231 
L 266.5263 248.774735 
L 266.6751 258.954827 
L 266.8239 248.861825 
L 266.9727 252.145333 
L 267.1215 252.017072 
L 267.2703 248.276449 
L 267.4191 250.294747 
L 267.5679 243.407139 
L 267.7167 248.463424 
L 267.8655 246.078347 
L 268.0143 248.136012 
L 268.1631 257.264647 
L 268.3119 251.471619 
L 268.4607 269.420256 
L 268.6095 250.678341 
L 268.7583 252.548449 
L 268.9071 258.095726 
L 269.0559 245.933058 
L 269.2047 245.672118 
L 269.3535 270.249536 
L 269.5023 272.627355 
L 269.6511 257.726873 
L 269.7999 260.323046 
L 269.9487 253.45467 
L 270.0975 368.74175 
L 270.2463 242.879474 
L 270.3951 253.970718 
L 270.5439 248.280537 
L 270.6927 254.485204 
L 270.8415 251.453539 
L 270.9903 254.397771 
L 271.2879 245.895045 
L 271.4367 249.452274 
L 271.5855 247.207687 
L 271.7343 252.661037 
L 271.8831 241.204981 
L 272.1807 251.439796 
L 272.4783 246.534248 
L 272.6271 255.217557 
L 272.9247 239.301133 
L 273.2223 247.038368 
L 273.3711 252.745699 
L 273.5199 253.233452 
L 273.6687 255.155513 
L 273.8175 247.119978 
L 273.9663 246.103094 
L 274.1151 249.430541 
L 274.2639 244.260107 
L 274.4127 257.299388 
L 274.5615 242.796637 
L 274.7103 250.982246 
L 274.8591 243.720587 
L 275.0079 251.256755 
L 275.1567 243.662816 
L 275.3055 255.264187 
L 275.6031 236.70047 
L 275.7519 243.88449 
L 275.9007 237.476056 
L 276.0495 246.051096 
L 276.1983 247.871586 
L 276.3471 243.984309 
L 276.4959 250.426372 
L 276.6447 238.417084 
L 276.7935 250.60526 
L 276.9423 239.764834 
L 277.0911 248.926444 
L 277.3887 240.457943 
L 277.5375 238.838186 
L 277.6863 246.495106 
L 277.8351 246.572241 
L 277.9839 239.584867 
L 278.1327 268.40902 
L 278.2815 252.764433 
L 278.4303 269.781455 
L 278.5791 243.260411 
L 278.7279 246.01129 
L 278.8767 236.032618 
L 279.1743 243.812277 
L 279.3231 244.304397 
L 279.4719 241.094027 
L 279.6207 242.777459 
L 279.7695 241.654317 
L 279.9183 245.920802 
L 280.0671 240.15243 
L 280.2159 249.786289 
L 280.3647 243.900117 
L 280.5135 252.62887 
L 280.6623 241.97827 
L 280.8111 247.093072 
L 280.9599 242.324287 
L 281.1087 243.773944 
L 281.2575 235.860212 
L 281.4063 238.712716 
L 281.5551 246.910842 
L 281.7039 242.537154 
L 281.8527 233.887021 
L 282.0015 243.542481 
L 282.1503 245.580787 
L 282.2991 253.348925 
L 282.4479 253.517774 
L 282.5967 267.308344 
L 282.7455 244.296903 
L 282.8943 246.435731 
L 283.1919 235.135354 
L 283.3407 236.544323 
L 283.6383 249.909359 
L 283.9359 238.738774 
L 284.0847 240.295809 
L 284.2335 236.161456 
L 284.3823 250.514593 
L 284.5311 238.216571 
L 284.6799 236.545944 
L 284.8287 242.080058 
L 284.9775 368.74175 
L 285.1263 234.842222 
L 285.4239 243.888991 
L 285.5727 236.919978 
L 285.7215 236.136226 
L 285.8703 233.642645 
L 286.0191 250.178581 
L 286.4655 230.473201 
L 286.6143 235.102683 
L 286.7631 244.171529 
L 287.0607 231.747902 
L 287.2095 240.139829 
L 287.5071 239.418973 
L 287.6559 233.859618 
L 287.8047 237.420565 
L 287.9535 234.623515 
L 288.1023 250.010236 
L 288.2511 242.088769 
L 288.3999 240.11278 
L 288.5487 242.50536 
L 288.6975 236.776806 
L 288.8463 236.434857 
L 288.9951 267.927089 
L 289.1439 241.413836 
L 289.2927 245.553828 
L 289.4415 240.237361 
L 289.5903 252.622966 
L 289.7391 233.773484 
L 289.8879 235.941138 
L 290.0367 244.227883 
L 290.3343 233.973571 
L 290.4831 235.34531 
L 290.6319 238.940031 
L 290.7807 237.820807 
L 290.9295 230.559579 
L 291.0783 231.900275 
L 291.2271 234.458155 
L 291.3759 245.027332 
L 291.5247 232.669838 
L 291.6735 236.124483 
L 291.8223 247.002871 
L 291.9711 236.374347 
L 292.1199 247.860664 
L 292.2687 245.576002 
L 292.4175 237.639134 
L 292.5663 242.432716 
L 292.7151 241.159108 
L 292.8639 245.582752 
L 293.3103 228.760139 
L 293.4591 236.307851 
L 293.6079 232.635893 
L 293.7567 235.157581 
L 293.9055 232.336372 
L 294.0543 244.417867 
L 294.2031 238.793739 
L 294.3519 237.855523 
L 294.5007 229.997004 
L 294.6495 231.914476 
L 294.7983 237.650837 
L 294.9471 230.641026 
L 295.0959 234.301693 
L 295.2447 234.69347 
L 295.3935 236.610895 
L 295.5423 250.481928 
L 295.6911 252.068198 
L 295.8399 230.68471 
L 295.9887 234.254704 
L 296.1375 228.595173 
L 296.4351 227.638971 
L 296.5839 230.147407 
L 296.7327 237.893926 
L 296.8815 238.654193 
L 297.0303 230.948468 
L 297.1791 234.237329 
L 297.3279 229.919315 
L 297.4767 242.26495 
L 297.9231 227.963055 
L 298.0719 231.339979 
L 298.2207 229.652896 
L 298.3695 241.835074 
L 298.8159 230.59351 
L 298.9647 240.159245 
L 299.1135 223.113306 
L 299.2623 222.764288 
L 299.4111 231.588316 
L 299.5599 250.271389 
L 299.7087 240.834137 
L 299.8575 368.74175 
L 300.0063 228.459832 
L 300.1551 235.087763 
L 300.3039 230.806615 
L 300.4527 232.51738 
L 300.7503 242.856795 
L 300.8991 231.945772 
L 301.0479 232.809115 
L 301.1967 229.514339 
L 301.3455 236.860451 
L 301.4943 223.25187 
L 301.6431 235.20138 
L 301.7919 225.612991 
L 301.9407 226.967356 
L 302.0895 242.255525 
L 302.5359 230.04485 
L 302.6847 229.322033 
L 302.8335 234.678832 
L 302.9823 227.121308 
L 303.1311 238.61523 
L 303.2799 237.391357 
L 303.4287 230.059164 
L 303.7263 241.044757 
L 303.8751 233.209119 
L 304.0239 244.500288 
L 304.3215 228.356268 
L 304.4703 234.833456 
L 304.7679 223.371358 
L 305.0655 233.280358 
L 305.2143 227.961347 
L 305.3631 237.62721 
L 305.5119 235.559604 
L 305.6607 225.074287 
L 305.8095 227.934856 
L 305.9583 226.266237 
L 306.2559 236.241302 
L 306.4047 228.044716 
L 306.5535 226.814262 
L 306.7023 229.736107 
L 306.8511 227.623819 
L 307.4463 243.010627 
L 307.5951 228.490856 
L 307.7439 233.476654 
L 307.8927 220.894034 
L 308.3391 244.41218 
L 308.4879 240.470923 
L 308.6367 223.332229 
L 308.7855 237.195391 
L 308.9343 233.206181 
L 309.0831 240.193998 
L 309.2319 226.46953 
L 309.3807 240.928722 
L 309.5295 236.673582 
L 309.6783 222.839091 
L 309.8271 227.941617 
L 310.1247 217.33929 
L 310.2735 232.176407 
L 310.5711 217.700713 
L 310.8687 226.812453 
L 311.0175 242.345068 
L 311.1663 240.473614 
L 311.4639 225.065776 
L 311.6127 229.954789 
L 311.7615 256.285594 
L 311.9103 224.901553 
L 312.0591 233.109999 
L 312.2079 227.882462 
L 312.3567 228.083177 
L 312.5055 229.752554 
L 312.6543 226.138625 
L 312.8031 214.751145 
L 313.1007 230.104304 
L 313.3983 222.649421 
L 313.5471 229.061479 
L 313.6959 216.629366 
L 313.8447 243.970378 
L 313.9935 217.051719 
L 314.1423 232.489912 
L 314.2911 234.306523 
L 314.5887 222.174009 
L 314.7375 368.74175 
L 314.8863 230.18447 
L 315.0351 232.032809 
L 315.1839 228.193366 
L 315.3327 231.657873 
L 315.4815 220.715784 
L 315.6303 219.743939 
L 315.7791 223.126667 
L 315.9279 222.834769 
L 316.0767 221.791499 
L 316.2255 222.748136 
L 316.3743 214.491365 
L 316.5231 216.415611 
L 316.6719 224.072096 
L 316.8207 220.83963 
L 316.9695 214.696456 
L 317.2671 223.492176 
L 317.4159 229.695518 
L 317.5647 217.960523 
L 317.7135 229.500109 
L 317.8623 230.14662 
L 318.0111 211.370248 
L 318.1599 215.455531 
L 318.3087 228.726886 
L 318.4575 226.467613 
L 318.6063 237.530712 
L 318.9039 221.690496 
L 319.0527 224.897679 
L 319.2015 223.340999 
L 319.4991 231.632385 
L 319.6479 219.187306 
L 319.9455 220.437424 
L 320.0943 226.198703 
L 320.2431 218.511947 
L 320.5407 229.811952 
L 320.6895 225.609376 
L 320.8383 232.557804 
L 320.9871 233.644275 
L 321.1359 245.979114 
L 321.2847 240.699224 
L 321.4335 246.694448 
L 321.5823 225.247986 
L 321.7311 241.831207 
L 321.8799 220.27383 
L 322.0287 231.582016 
L 322.1775 222.081938 
L 322.3263 222.284974 
L 322.6239 241.035557 
L 322.7727 213.997829 
L 322.9215 214.067567 
L 323.2191 219.050662 
L 323.3679 223.905226 
L 323.5167 215.084638 
L 323.9631 226.911721 
L 324.1119 220.285588 
L 324.2607 226.61333 
L 324.4095 218.762518 
L 324.5583 221.773502 
L 324.7071 230.349876 
L 324.8559 221.060164 
L 325.1535 217.312564 
L 325.3023 222.649416 
L 325.4511 216.253664 
L 325.7487 222.335441 
L 326.0463 215.231046 
L 326.3439 232.09904 
L 326.4927 224.800631 
L 326.6415 223.48605 
L 326.7903 214.680095 
L 326.9391 214.084046 
L 327.0879 223.193122 
L 327.2367 213.045229 
L 327.3855 222.502131 
L 327.5343 214.072041 
L 327.6831 212.906305 
L 327.8319 213.896797 
L 328.1295 221.843096 
L 328.5759 214.273487 
L 328.8735 224.917201 
L 329.1711 213.42958 
L 329.3199 227.21986 
L 329.4687 217.083129 
L 329.6175 368.74175 
L 329.7663 216.73328 
L 329.9151 210.811953 
L 330.0639 226.980569 
L 330.2127 212.505603 
L 330.3615 215.125782 
L 330.5103 213.483117 
L 330.6591 223.603798 
L 330.8079 210.264752 
L 330.9567 231.955208 
L 331.2543 211.553991 
L 331.4031 220.917635 
L 331.5519 216.568083 
L 331.7007 206.220439 
L 331.8495 224.875233 
L 331.9983 213.073527 
L 332.1471 222.93592 
L 332.2959 219.778783 
L 332.4447 210.6942 
L 332.5935 223.047186 
L 332.8911 214.619834 
L 333.0399 223.427669 
L 333.1887 201.662067 
L 333.3375 207.190768 
L 333.4863 231.072752 
L 333.6351 206.306813 
L 333.7839 206.591384 
L 334.0815 219.562274 
L 334.2303 221.308499 
L 334.3791 217.023597 
L 334.5279 224.610525 
L 334.6767 207.341429 
L 334.8255 211.824905 
L 334.9743 224.985943 
L 335.1231 216.203846 
L 335.2719 215.341697 
L 335.4207 221.457461 
L 335.5695 214.417371 
L 335.7183 219.644263 
L 335.8671 232.63023 
L 336.1647 216.187709 
L 336.3135 218.534716 
L 336.4623 208.537182 
L 336.6111 208.303867 
L 336.7599 205.026221 
L 337.0575 218.795239 
L 337.3551 203.853952 
L 337.5039 219.03416 
L 337.6527 220.284239 
L 337.8015 198.122085 
L 337.9503 216.071686 
L 338.0991 209.560677 
L 338.2479 211.456763 
L 338.3967 203.00731 
L 338.5455 221.656372 
L 338.8431 197.280683 
L 338.9919 202.935766 
L 339.1407 213.80346 
L 339.2895 209.898329 
L 339.4383 211.512246 
L 339.5871 207.347059 
L 339.7359 221.298411 
L 339.8847 214.57309 
L 340.0335 220.129779 
L 340.3311 216.956672 
L 340.4799 216.875009 
L 340.6287 227.684842 
L 340.7775 201.262049 
L 341.0751 226.669806 
L 341.2239 200.418263 
L 341.3727 206.886143 
L 341.5215 221.662915 
L 341.6703 216.566741 
L 341.8191 199.505573 
L 341.9679 203.819591 
L 342.2655 226.200233 
L 342.5631 209.068924 
L 342.7119 205.990706 
L 342.8607 213.769891 
L 343.0095 204.064078 
L 343.1583 217.605685 
L 343.3071 218.72406 
L 343.7535 202.939743 
L 344.0511 219.915865 
L 344.1999 206.986857 
L 344.3487 221.262244 
L 344.4975 368.74175 
L 344.6463 206.631027 
L 344.7951 206.354124 
L 344.9439 201.371599 
L 345.0927 214.021314 
L 345.2415 209.019927 
L 345.3903 198.048176 
L 345.5391 218.115094 
L 345.6879 200.239098 
L 345.8367 210.526244 
L 345.9855 209.601894 
L 346.1343 200.326285 
L 346.2831 216.434149 
L 346.4319 212.810674 
L 346.5807 214.034969 
L 346.7295 213.441541 
L 346.8783 194.6515 
L 347.0271 200.279449 
L 347.1759 198.825361 
L 347.3247 206.976612 
L 347.4735 199.463003 
L 347.6223 216.605981 
L 347.7711 204.275328 
L 347.9199 204.64618 
L 348.0687 201.32875 
L 348.3663 206.375344 
L 348.6639 203.078132 
L 348.8127 220.581829 
L 348.9615 212.389369 
L 349.1103 197.285579 
L 349.2591 203.036362 
L 349.4079 198.807931 
L 349.7055 214.761176 
L 349.8543 215.470552 
L 350.3007 200.207058 
L 350.5983 216.265702 
L 350.7471 198.160167 
L 350.8959 199.18534 
L 351.0447 207.141997 
L 351.1935 202.549987 
L 351.3423 206.854733 
L 351.4911 205.389151 
L 351.6399 199.537712 
L 351.7887 210.881295 
L 351.9375 193.627504 
L 352.0863 218.899325 
L 352.2351 197.184279 
L 352.5327 211.264938 
L 352.6815 191.308314 
L 352.8303 209.687202 
L 352.9791 208.588539 
L 353.1279 191.884308 
L 353.4255 219.109272 
L 353.5743 194.24701 
L 353.7231 192.562238 
L 353.8719 195.408726 
L 354.0207 189.786943 
L 354.4671 209.695383 
L 354.6159 189.518671 
L 354.7647 203.468878 
L 354.9135 198.578289 
L 355.0623 211.42864 
L 355.2111 198.327664 
L 355.3599 204.302848 
L 355.5087 191.508498 
L 355.6575 199.932965 
L 355.8063 198.573705 
L 355.9551 203.168734 
L 356.1039 197.014356 
L 356.2527 230.132968 
L 356.4015 199.918254 
L 356.5503 195.732238 
L 356.6991 212.298413 
L 356.8479 200.158443 
L 357.1455 214.064856 
L 357.2943 186.105843 
L 357.4431 212.975315 
L 357.8895 189.60387 
L 358.0383 220.562346 
L 358.1871 193.513075 
L 358.3359 200.327066 
L 358.4847 191.026439 
L 358.6335 205.670747 
L 358.7823 189.741225 
L 358.9311 197.509819 
L 359.0799 196.197627 
L 359.2287 199.404492 
L 359.3775 368.74175 
L 359.5263 197.968536 
L 359.8239 185.064727 
L 359.9727 207.506056 
L 360.1215 196.111584 
L 360.2703 206.896498 
L 360.4191 195.305071 
L 360.5679 198.81685 
L 360.7167 222.449834 
L 361.0143 187.3325 
L 361.3119 192.586671 
L 361.4607 186.686337 
L 361.6095 207.414311 
L 362.0559 186.320002 
L 362.2047 194.492598 
L 362.3535 194.873521 
L 362.5023 210.084409 
L 362.6511 186.826929 
L 362.7999 218.755927 
L 362.9487 192.383128 
L 363.0975 193.129499 
L 363.2463 189.47021 
L 363.3951 196.11198 
L 363.5439 195.796402 
L 363.8415 183.368711 
L 363.9903 202.222554 
L 364.1391 197.008617 
L 364.2879 204.509441 
L 364.4367 198.053147 
L 364.5855 201.767793 
L 364.7343 179.784037 
L 365.0319 206.487737 
L 365.3295 187.38544 
L 365.4783 211.393577 
L 365.6271 195.183432 
L 365.7759 194.780485 
L 365.9247 212.896768 
L 366.0735 209.321969 
L 366.2223 183.843062 
L 366.5199 205.684767 
L 366.6687 204.989042 
L 366.8175 186.740206 
L 366.9663 215.76548 
L 367.2639 191.187976 
L 367.5615 203.78021 
L 367.7103 186.291562 
L 367.8591 195.706777 
L 368.0079 196.412377 
L 368.1567 192.703899 
L 368.3055 196.852608 
L 368.4543 188.976878 
L 368.6031 191.611989 
L 368.9007 180.968727 
L 369.0495 180.7963 
L 369.3471 197.112222 
L 369.6447 180.128413 
L 369.7935 195.082469 
L 370.0911 188.078921 
L 370.2399 193.559231 
L 370.3887 194.410137 
L 370.5375 187.938377 
L 370.6863 193.883237 
L 370.8351 193.946468 
L 370.9839 206.139969 
L 371.2815 185.22548 
L 371.4303 182.443946 
L 371.5791 195.364976 
L 371.7279 192.689529 
L 371.8767 185.137872 
L 372.0255 191.594146 
L 372.1743 205.229658 
L 372.3231 190.250041 
L 372.4719 197.038672 
L 372.6207 192.386421 
L 372.7695 179.086974 
L 372.9183 185.834766 
L 373.0671 178.828481 
L 373.2159 200.614897 
L 373.5135 176.321567 
L 373.6623 188.004395 
L 373.8111 181.392676 
L 374.1087 187.875798 
L 374.2575 368.74175 
L 374.4063 187.608626 
L 374.5551 178.41335 
L 374.7039 199.477022 
L 375.0015 179.554534 
L 375.2991 192.105526 
L 375.4479 176.151163 
L 375.5967 180.865943 
L 375.7455 191.098459 
L 375.8943 176.923761 
L 376.0431 193.295235 
L 376.1919 179.471585 
L 376.3407 195.472066 
L 376.6383 175.121167 
L 376.7871 184.015996 
L 376.9359 178.031928 
L 377.0847 210.072792 
L 377.2335 171.244882 
L 377.3823 170.698751 
L 377.6799 176.809803 
L 377.8287 191.938542 
L 377.9775 179.559294 
L 378.1263 187.647725 
L 378.2751 166.525197 
L 378.5727 174.179128 
L 378.7215 192.321359 
L 378.8703 190.475936 
L 379.1679 178.752627 
L 379.3167 188.134598 
L 379.4655 188.299783 
L 379.6143 196.651291 
L 379.7631 173.333166 
L 379.9119 168.934313 
L 380.2095 181.249269 
L 380.3583 186.046253 
L 380.5071 171.240581 
L 380.8047 179.330044 
L 380.9535 188.870869 
L 381.1023 178.540151 
L 381.2511 179.831903 
L 381.3999 167.695879 
L 381.5487 172.038974 
L 381.6975 170.535694 
L 381.8463 174.638741 
L 381.9951 191.286831 
L 382.1439 170.08024 
L 382.2927 206.579955 
L 382.5903 185.002595 
L 382.7391 188.038665 
L 382.8879 164.18096 
L 383.0367 167.623293 
L 383.1855 189.957238 
L 383.4831 173.130501 
L 383.6319 176.209964 
L 383.7807 167.307994 
L 383.9295 177.245174 
L 384.2271 169.705534 
L 384.3759 185.995227 
L 384.5247 183.014323 
L 384.6735 168.487389 
L 384.9711 178.774012 
L 385.1199 194.648556 
L 385.2687 163.863008 
L 385.4175 180.091405 
L 385.5663 166.138197 
L 385.7151 163.13942 
L 385.8639 199.261649 
L 386.0127 165.425718 
L 386.1615 173.476379 
L 386.3103 167.188596 
L 386.4591 170.201572 
L 386.6079 170.175428 
L 386.7567 207.795578 
L 386.9055 164.563637 
L 387.0543 187.780174 
L 387.2031 166.809518 
L 387.3519 178.279666 
L 387.5007 166.198469 
L 387.6495 181.526227 
L 387.7983 173.697374 
L 387.9471 175.416963 
L 388.0959 175.507247 
L 388.2447 164.782411 
L 388.3935 182.354524 
L 388.6911 157.153876 
L 388.8399 174.817132 
L 388.9887 159.707137 
L 389.1375 368.74175 
L 389.2863 181.276836 
L 389.5839 163.550576 
L 389.7327 163.968759 
L 390.0303 172.742516 
L 390.4767 158.610529 
L 390.6255 161.576224 
L 390.7743 186.733984 
L 390.9231 168.655557 
L 391.0719 185.169791 
L 391.5183 160.829743 
L 391.6671 179.906629 
L 391.8159 159.470484 
L 391.9647 184.173338 
L 392.2623 166.504505 
L 392.4111 170.626629 
L 392.5599 162.069512 
L 392.7087 170.910373 
L 392.8575 165.203989 
L 393.0063 166.218139 
L 393.1551 165.269238 
L 393.3039 183.776409 
L 393.6015 165.067254 
L 393.7503 157.303926 
L 393.8991 165.104968 
L 394.1967 163.127448 
L 394.3455 182.134092 
L 394.4943 178.987886 
L 394.6431 168.347491 
L 394.7919 178.407566 
L 394.9407 160.620294 
L 395.2383 186.969197 
L 395.5359 154.249568 
L 395.6847 195.655036 
L 395.8335 164.462454 
L 395.9823 167.447423 
L 396.1311 168.116459 
L 396.2799 166.567875 
L 396.4287 171.247478 
L 396.7263 204.980362 
L 396.8751 153.122652 
L 397.0239 152.225846 
L 397.1727 152.355996 
L 397.4703 172.246998 
L 397.6191 156.46687 
L 397.9167 168.192995 
L 398.0655 165.642424 
L 398.2143 153.432086 
L 398.3631 154.277146 
L 398.5119 168.425402 
L 398.6607 157.685331 
L 398.8095 172.754961 
L 398.9583 171.922508 
L 399.1071 148.253054 
L 399.2559 156.181535 
L 399.4047 180.449816 
L 399.5535 174.786639 
L 399.7023 153.419849 
L 399.9999 169.29811 
L 400.2975 152.96045 
L 400.4463 154.332301 
L 400.5951 171.206663 
L 400.7439 147.435523 
L 401.0415 172.257332 
L 401.1903 149.267319 
L 401.9343 189.324009 
L 402.0831 154.194267 
L 402.2319 151.586312 
L 402.3807 177.717513 
L 402.6783 148.312154 
L 402.8271 188.43089 
L 402.9759 154.280079 
L 403.1247 154.563041 
L 403.2735 143.403271 
L 403.4223 181.76144 
L 403.5711 148.420317 
L 403.7199 150.576238 
L 403.8687 176.473387 
L 404.0175 368.74175 
L 404.1663 155.468241 
L 404.3151 152.426791 
L 404.4639 146.721689 
L 404.6127 162.553934 
L 404.7615 153.655437 
L 405.0591 172.658511 
L 405.2079 166.87725 
L 405.3567 150.390934 
L 405.5055 154.267206 
L 405.6543 140.128012 
L 405.8031 138.439198 
L 405.9519 173.230046 
L 406.1007 179.324626 
L 406.3983 148.980628 
L 406.5471 140.514631 
L 406.6959 154.525026 
L 406.8447 150.04568 
L 406.9935 167.887449 
L 407.2911 134.162426 
L 407.4399 147.028441 
L 407.5887 137.682146 
L 407.7375 146.159056 
L 407.8863 148.271086 
L 408.0351 147.444097 
L 408.3327 156.347017 
L 408.4815 156.008398 
L 408.6303 131.900521 
L 408.7791 157.68242 
L 408.9279 140.85862 
L 409.0767 146.620866 
L 409.2255 140.452833 
L 409.3743 139.313186 
L 409.5231 134.104598 
L 409.8207 158.678301 
L 410.1183 134.172796 
L 410.4159 179.854298 
L 410.7135 142.683858 
L 410.8623 164.082784 
L 411.0111 165.047329 
L 411.1599 144.974546 
L 411.3087 153.938623 
L 411.4575 142.643604 
L 411.6063 150.737642 
L 411.7551 138.244638 
L 411.9039 138.296702 
L 412.0527 147.819697 
L 412.2015 132.009509 
L 412.3503 134.762448 
L 412.4991 150.44222 
L 412.7967 137.639584 
L 412.9455 138.849407 
L 413.0943 138.133205 
L 413.2431 144.490585 
L 413.3919 135.019956 
L 413.5407 153.632673 
L 413.6895 132.725422 
L 413.9871 126.165063 
L 414.1359 129.851375 
L 414.2847 138.406702 
L 414.4335 136.749402 
L 414.5823 136.972045 
L 414.7311 151.508998 
L 415.0287 130.096488 
L 415.1775 135.929865 
L 415.3263 129.835857 
L 415.4751 150.125778 
L 415.6239 136.156101 
L 415.7727 134.453852 
L 415.9215 168.288583 
L 416.0703 161.041799 
L 416.2191 147.987953 
L 416.3679 145.127718 
L 416.5167 160.235499 
L 416.6655 132.553613 
L 416.8143 152.803924 
L 417.1119 141.528471 
L 417.2607 139.178898 
L 417.4095 129.925497 
L 417.5583 137.884003 
L 417.8559 128.324425 
L 418.1535 151.464788 
L 418.3023 125.872095 
L 418.4511 130.341034 
L 418.5999 139.728466 
L 418.7487 132.085224 
L 418.8975 368.74175 
L 419.0463 135.275774 
L 419.1951 123.853402 
L 419.4927 160.99804 
L 419.6415 136.042453 
L 419.7903 133.939366 
L 419.9391 127.969846 
L 420.0879 155.948922 
L 420.3855 135.517341 
L 420.5343 134.988278 
L 420.6831 129.85867 
L 420.8319 128.620395 
L 420.9807 155.716337 
L 421.1295 123.751527 
L 421.2783 122.1691 
L 421.4271 134.07888 
L 421.5759 132.633248 
L 421.7247 143.937873 
L 421.8735 128.679695 
L 422.0223 137.369129 
L 422.1711 122.884433 
L 422.3199 124.824526 
L 422.4687 129.495109 
L 422.6175 127.246789 
L 422.7663 161.073683 
L 422.9151 149.41931 
L 423.0639 117.2773 
L 423.2127 122.269569 
L 423.3615 137.480948 
L 423.5103 124.931012 
L 423.6591 143.180799 
L 423.8079 143.104202 
L 423.9567 139.367189 
L 424.1055 128.337103 
L 424.2543 137.292281 
L 424.4031 136.395055 
L 424.5519 143.566274 
L 424.7007 125.369118 
L 424.8495 134.478484 
L 425.1471 118.049035 
L 425.2959 121.55848 
L 425.5935 114.018481 
L 425.7423 125.726688 
L 425.8911 147.777745 
L 426.0399 110.054802 
L 426.1887 136.231932 
L 426.3375 129.791391 
L 426.4863 144.554195 
L 426.6351 119.277879 
L 426.7839 126.364273 
L 426.9327 120.795518 
L 427.0815 137.130691 
L 427.2303 134.173298 
L 427.3791 112.596291 
L 427.5279 131.149595 
L 427.6767 113.284795 
L 427.8255 130.007563 
L 427.9743 111.244534 
L 428.1231 120.430533 
L 428.2719 121.156786 
L 428.5695 134.585903 
L 428.7183 128.084994 
L 428.8671 109.923482 
L 429.0159 132.207368 
L 429.1647 130.273984 
L 429.3135 113.737021 
L 429.4623 123.607325 
L 429.6111 119.481766 
L 429.7599 107.233219 
L 430.2063 135.360082 
L 430.5039 110.083241 
L 430.8015 134.212308 
L 430.9503 136.201148 
L 431.0991 118.99828 
L 431.2479 123.956362 
L 431.3967 112.518538 
L 431.5455 112.644396 
L 431.6943 110.218709 
L 431.9919 122.972494 
L 432.1407 131.888251 
L 432.2895 133.937807 
L 432.4383 113.982215 
L 432.5871 116.133216 
L 432.7359 161.977196 
L 432.8847 171.380038 
L 433.0335 151.030637 
L 433.1823 111.937165 
L 433.3311 120.972412 
L 433.4799 118.722581 
L 433.6287 127.106968 
L 433.7775 368.74175 
L 433.9263 105.822482 
L 434.0751 111.521837 
L 434.2239 110.802371 
L 434.3727 112.756407 
L 434.6703 125.518592 
L 434.8191 108.883263 
L 434.9679 115.180523 
L 435.1167 114.787024 
L 435.2655 116.740235 
L 435.7119 106.299172 
L 435.8607 106.015681 
L 436.0095 99.418194 
L 436.3071 152.488779 
L 436.4559 109.997843 
L 436.6047 117.269981 
L 436.7535 112.203793 
L 436.9023 116.015152 
L 437.1999 112.352086 
L 437.3487 117.747336 
L 437.4975 103.574572 
L 437.6463 118.074491 
L 437.7951 146.147717 
L 437.9439 106.435991 
L 438.2415 139.285165 
L 438.5391 96.358153 
L 438.9855 140.852522 
L 439.1343 99.6387 
L 439.2831 116.244292 
L 439.4319 104.095629 
L 439.5807 108.767587 
L 439.8783 110.35139 
L 440.0271 127.362655 
L 440.1759 101.233604 
L 440.3247 107.134645 
L 440.4735 125.391958 
L 440.7711 106.080698 
L 440.9199 102.593885 
L 441.0687 105.270361 
L 441.2175 111.965467 
L 441.3663 103.664514 
L 441.5151 102.207512 
L 441.6639 132.126564 
L 441.9615 96.112665 
L 442.1103 123.597293 
L 442.2591 96.876884 
L 442.4079 104.209408 
L 442.5567 101.601261 
L 442.7055 113.61571 
L 442.8543 140.020133 
L 443.0031 146.011672 
L 443.1519 110.603033 
L 443.3007 106.312169 
L 443.4495 108.267999 
L 443.5983 152.639 
L 443.8959 108.225078 
L 444.0447 99.490705 
L 444.3423 117.376581 
L 444.4911 96.916398 
L 444.6399 100.322021 
L 444.7887 120.427599 
L 444.9375 105.619513 
L 445.0863 119.788877 
L 445.2351 96.526277 
L 445.3839 94.93096 
L 445.5327 98.805121 
L 445.6815 109.825442 
L 445.8303 97.502541 
L 445.9791 117.221865 
L 446.1279 94.472728 
L 446.2767 116.130396 
L 446.4255 105.127157 
L 446.5743 102.856824 
L 446.7231 113.044428 
L 446.8719 94.596873 
L 447.0207 103.318465 
L 447.1695 103.600733 
L 447.3183 118.16893 
L 447.6159 89.989544 
L 447.7647 99.99906 
L 447.9135 89.305173 
L 448.0623 86.955372 
L 448.3599 98.839755 
L 448.5087 90.332189 
L 448.6575 368.74175 
L 448.8063 81.193688 
L 448.9551 88.523585 
L 449.1039 105.780726 
L 449.2527 94.168369 
L 449.4015 103.410456 
L 449.5503 94.045987 
L 449.6991 97.805058 
L 449.8479 86.203026 
L 449.9967 107.890317 
L 450.1455 113.012662 
L 450.2943 91.536736 
L 450.4431 105.743979 
L 450.7407 94.273738 
L 450.8895 90.622064 
L 451.0383 103.565636 
L 451.4847 93.570251 
L 451.6335 93.438014 
L 451.7823 110.384851 
L 451.9311 86.806485 
L 452.0799 122.124319 
L 452.3775 89.847984 
L 452.5263 91.017473 
L 452.6751 110.228527 
L 452.8239 88.597713 
L 452.9727 84.184472 
L 453.1215 94.368659 
L 453.2703 82.320915 
L 453.4191 81.92552 
L 453.5679 95.686191 
L 453.7167 86.755804 
L 453.8655 87.622128 
L 454.0143 85.810335 
L 454.3119 101.821749 
L 454.4607 102.277942 
L 454.6095 82.242615 
L 454.7583 82.520109 
L 454.9071 113.459556 
L 455.0559 81.346321 
L 455.3535 108.622126 
L 455.5023 82.465954 
L 455.6511 82.736338 
L 455.7999 75.827969 
L 456.0975 94.224447 
L 456.2463 80.882313 
L 456.3951 95.693234 
L 456.5439 84.483793 
L 456.6927 88.263577 
L 456.9903 78.734115 
L 457.1391 84.526445 
L 457.2879 77.258153 
L 457.4367 79.741896 
L 457.5855 74.706389 
L 457.7343 96.586073 
L 457.8831 90.060948 
L 458.1807 98.304181 
L 458.3295 87.925769 
L 458.4783 109.488041 
L 458.7759 79.45027 
L 458.9247 74.389234 
L 459.0735 98.059731 
L 459.5199 82.149334 
L 459.6687 117.064468 
L 459.8175 91.14938 
L 459.9663 93.500324 
L 460.1151 81.740915 
L 460.4127 103.516783 
L 460.5615 102.380943 
L 460.8591 77.77225 
L 461.0079 96.965912 
L 461.3055 75.804066 
L 461.4543 89.494667 
L 461.7519 84.082663 
L 461.9007 85.029257 
L 462.1983 70.031077 
L 462.3471 107.633541 
L 462.4959 80.608081 
L 462.6447 99.646744 
L 462.9423 80.179914 
L 463.0911 65.389504 
L 463.3887 108.73375 
L 463.5375 368.74175 
L 463.6863 102.859094 
L 463.9839 79.480595 
L 464.1327 71.633374 
L 464.2815 79.143058 
L 464.4303 73.185698 
L 464.8767 107.004419 
L 465.1743 67.924498 
L 465.3231 61.672797 
L 465.7695 98.816664 
L 465.9183 78.79495 
L 466.0671 78.785781 
L 466.2159 86.917629 
L 466.3647 69.538436 
L 466.5135 65.74266 
L 466.6623 77.122927 
L 466.8111 79.593574 
L 466.9599 66.07134 
L 467.1087 88.166579 
L 467.4063 73.631883 
L 467.7039 108.061053 
L 467.8527 69.45812 
L 468.0015 67.557797 
L 468.1503 70.509126 
L 468.2991 65.086187 
L 468.4479 66.287018 
L 468.5967 64.530687 
L 468.8943 94.223562 
L 469.0431 80.730351 
L 469.1919 80.960917 
L 469.4895 66.962757 
L 469.7871 81.893826 
L 470.0847 63.288097 
L 470.3823 74.050507 
L 470.5311 70.102971 
L 470.6799 84.485877 
L 470.8287 70.989871 
L 470.9775 119.43936 
L 471.1263 72.230409 
L 471.2751 69.239481 
L 471.4239 62.609927 
L 471.5727 63.769844 
L 471.7215 66.870501 
L 471.8703 77.337343 
L 472.0191 60.804033 
L 472.1679 78.561117 
L 472.6143 65.945921 
L 472.7631 64.594638 
L 472.9119 112.304737 
L 473.0607 66.911446 
L 473.3583 55.330957 
L 473.6559 69.384349 
L 473.8047 55.788602 
L 473.9535 52.89684 
L 474.1023 68.289442 
L 474.3999 58.271408 
L 474.5487 57.904496 
L 474.6975 59.625217 
L 474.9951 88.693598 
L 475.1439 86.286801 
L 475.2927 61.010146 
L 475.4415 64.219935 
L 475.5903 56.97506 
L 475.7391 91.656109 
L 475.8879 50.812351 
L 476.1855 59.654102 
L 476.3343 50.297267 
L 476.6319 46.348516 
L 476.7807 59.251809 
L 476.9295 59.789072 
L 477.0783 56.160035 
L 477.2271 61.467965 
L 477.3759 52.895667 
L 477.5247 67.936155 
L 477.6735 68.986219 
L 477.8223 49.665322 
L 478.1199 74.542454 
L 478.2687 67.13743 
L 478.4175 368.74175 
L 478.5663 53.216652 
L 478.7151 60.885196 
L 478.8639 49.361909 
L 479.0127 53.031174 
L 479.1615 50.420742 
L 479.3103 68.180395 
L 479.6079 54.436251 
L 479.7567 58.277031 
L 479.9055 54.096487 
L 480.0543 53.501953 
L 480.2031 44.785015 
L 480.3519 52.39137 
L 480.5007 51.52484 
L 480.6495 43.330415 
L 481.0959 63.479015 
L 481.3935 56.094042 
L 481.5423 66.002396 
L 481.6911 43.96527 
L 481.8399 49.876653 
L 481.9887 43.231992 
L 482.1375 48.631121 
L 482.2863 44.260114 
L 482.4351 43.344813 
L 482.5839 43.687145 
L 482.7327 54.534726 
L 482.8815 51.389188 
L 483.0303 60.667131 
L 483.1791 52.231633 
L 483.3279 60.097155 
L 483.4767 55.607368 
L 483.6255 61.121822 
L 483.9231 42.504751 
L 484.2207 59.36516 
L 484.3695 54.828454 
L 484.5183 44.325824 
L 484.6671 58.27433 
L 484.8159 48.806549 
L 484.9647 49.920168 
L 485.1135 57.784298 
L 485.2623 72.708583 
L 485.4111 40.928797 
L 485.7087 41.634297 
L 485.8575 48.814976 
L 486.0063 47.378436 
L 486.3039 90.448769 
L 486.4527 82.532935 
L 486.7503 39.432275 
L 486.8991 52.753464 
L 487.1967 41.73903 
L 487.3455 39.944562 
L 487.4943 60.826075 
L 487.6431 37.846798 
L 487.7919 44.939191 
L 487.9407 44.916809 
L 488.0895 49.17297 
L 488.2383 44.517826 
L 488.3871 44.45453 
L 488.5359 96.887052 
L 488.6847 54.002681 
L 488.8335 65.750063 
L 489.1311 35.62686 
L 489.2799 39.031929 
L 489.4287 45.343667 
L 489.7263 34.729216 
L 490.0239 45.815772 
L 490.3215 31.416781 
L 490.4703 48.67901 
L 490.6191 29.050075 
L 490.7679 48.739716 
L 490.9167 53.651447 
L 491.0655 49.790788 
L 491.2143 35.884564 
L 491.3631 46.636777 
L 491.5119 37.955617 
L 491.6607 52.156749 
L 491.8095 34.78718 
L 491.9583 34.192895 
L 492.1071 44.902069 
L 492.4047 33.306014 
L 492.5535 36.910257 
L 492.7023 55.746035 
L 492.8511 29.008938 
L 492.9999 39.841146 
L 493.1487 41.826365 
L 493.2975 368.74175 
L 493.2975 368.74175 
" style="fill:none;stroke:#0000ff;stroke-linecap:square;stroke-width:0.5;"/>
   </g>
   <g id="patch_3">
    <path d="M 46.8975 23.14175 
L 493.2975 23.14175 
" style="fill:none;stroke:#000000;stroke-linecap:square;stroke-linejoin:miter;"/>
   </g>
   <g id="patch_4">
    <path d="M 46.8975 368.74175 
L 46.8975 23.14175 
" style="fill:none;stroke:#000000;stroke-linecap:square;stroke-linejoin:miter;"/>
   </g>
   <g id="patch_5">
    <path d="M 46.8975 368.74175 
L 493.2975 368.74175 
" style="fill:none;stroke:#000000;stroke-linecap:square;stroke-linejoin:miter;"/>
   </g>
   <g id="patch_6">
    <path d="M 493.2975 368.74175 
L 493.2975 23.14175 
" style="fill:none;stroke:#000000;stroke-linecap:square;stroke-linejoin:miter;"/>
   </g>
   <g id="matplotlib.axis_1">
    <g id="xtick_1">
     <g id="line2d_2">
      <defs>
       <path d="M 0 0 
L 0 -4 
" id="m5c4ea06054" style="stroke:#000000;stroke-width:0.5;"/>
      </defs>
      <g>
       <use style="stroke:#000000;stroke-width:0.5;" x="46.8975" xlink:href="#m5c4ea06054" y="368.74175"/>
      </g>
     </g>
     <g id="line2d_3">
      <defs>
       <path d="M 0 0 
L 0 4 
" id="m9ddfa00f85" style="stroke:#000000;stroke-width:0.5;"/>
      </defs>
      <g>
       <use style="stroke:#000000;stroke-width:0.5;" x="46.8975" xlink:href="#m9ddfa00f85" y="23.14175"/>
      </g>
     </g>
     <g id="text_1">
      <!-- 0 -->
      <defs>
       <path d="M 31.78125 66.40625 
Q 24.171875 66.40625 20.328125 58.90625 
Q 16.5 51.421875 16.5 36.375 
Q 16.5 21.390625 20.328125 13.890625 
Q 24.171875 6.390625 31.78125 6.390625 
Q 39.453125 6.390625 43.28125 13.890625 
Q 47.125 21.390625 47.125 36.375 
Q 47.125 51.421875 43.28125 58.90625 
Q 39.453125 66.40625 31.78125 66.40625 
M 31.78125 74.21875 
Q 44.046875 74.21875 50.515625 64.515625 
Q 56.984375 54.828125 56.984375 36.375 
Q 56.984375 17.96875 50.515625 8.265625 
Q 44.046875 -1.421875 31.78125 -1.421875 
Q 19.53125 -1.421875 13.0625 8.265625 
Q 6.59375 17.96875 6.59375 36.375 
Q 6.59375 54.828125 13.0625 64.515625 
Q 19.53125 74.21875 31.78125 74.21875 
" id="BitstreamVeraSans-Roman-30"/>
      </defs>
      <g transform="translate(43.08 381.859875)scale(0.12 -0.12)">
       <use xlink:href="#BitstreamVeraSans-Roman-30"/>
      </g>
     </g>
    </g>
    <g id="xtick_2">
     <g id="line2d_4">
      <g>
       <use style="stroke:#000000;stroke-width:0.5;" x="121.2975" xlink:href="#m5c4ea06054" y="368.74175"/>
      </g>
     </g>
     <g id="line2d_5">
      <g>
       <use style="stroke:#000000;stroke-width:0.5;" x="121.2975" xlink:href="#m9ddfa00f85" y="23.14175"/>
      </g>
     </g>
     <g id="text_2">
      <!-- 500 -->
      <defs>
       <path d="M 10.796875 72.90625 
L 49.515625 72.90625 
L 49.515625 64.59375 
L 19.828125 64.59375 
L 19.828125 46.734375 
Q 21.96875 47.46875 24.109375 47.828125 
Q 26.265625 48.1875 28.421875 48.1875 
Q 40.625 48.1875 47.75 41.5 
Q 54.890625 34.8125 54.890625 23.390625 
Q 54.890625 11.625 47.5625 5.09375 
Q 40.234375 -1.421875 26.90625 -1.421875 
Q 22.3125 -1.421875 17.546875 -0.640625 
Q 12.796875 0.140625 7.71875 1.703125 
L 7.71875 11.625 
Q 12.109375 9.234375 16.796875 8.0625 
Q 21.484375 6.890625 26.703125 6.890625 
Q 35.15625 6.890625 40.078125 11.328125 
Q 45.015625 15.765625 45.015625 23.390625 
Q 45.015625 31 40.078125 35.4375 
Q 35.15625 39.890625 26.703125 39.890625 
Q 22.75 39.890625 18.8125 39.015625 
Q 14.890625 38.140625 10.796875 36.28125 
z
" id="BitstreamVeraSans-Roman-35"/>
      </defs>
      <g transform="translate(109.845 381.859875)scale(0.12 -0.12)">
       <use xlink:href="#BitstreamVeraSans-Roman-35"/>
       <use x="63.623046875" xlink:href="#BitstreamVeraSans-Roman-30"/>
       <use x="127.24609375" xlink:href="#BitstreamVeraSans-Roman-30"/>
      </g>
     </g>
    </g>
    <g id="xtick_3">
     <g id="line2d_6">
      <g>
       <use style="stroke:#000000;stroke-width:0.5;" x="195.6975" xlink:href="#m5c4ea06054" y="368.74175"/>
      </g>
     </g>
     <g id="line2d_7">
      <g>
       <use style="stroke:#000000;stroke-width:0.5;" x="195.6975" xlink:href="#m9ddfa00f85" y="23.14175"/>
      </g>
     </g>
     <g id="text_3">
      <!-- 1000 -->
      <defs>
       <path d="M 12.40625 8.296875 
L 28.515625 8.296875 
L 28.515625 63.921875 
L 10.984375 60.40625 
L 10.984375 69.390625 
L 28.421875 72.90625 
L 38.28125 72.90625 
L 38.28125 8.296875 
L 54.390625 8.296875 
L 54.390625 0 
L 12.40625 0 
z
" id="BitstreamVeraSans-Roman-31"/>
      </defs>
      <g transform="translate(180.4275 381.859875)scale(0.12 -0.12)">
       <use xlink:href="#BitstreamVeraSans-Roman-31"/>
       <use x="63.623046875" xlink:href="#BitstreamVeraSans-Roman-30"/>
       <use x="127.24609375" xlink:href="#BitstreamVeraSans-Roman-30"/>
       <use x="190.869140625" xlink:href="#BitstreamVeraSans-Roman-30"/>
      </g>
     </g>
    </g>
    <g id="xtick_4">
     <g id="line2d_8">
      <g>
       <use style="stroke:#000000;stroke-width:0.5;" x="270.0975" xlink:href="#m5c4ea06054" y="368.74175"/>
      </g>
     </g>
     <g id="line2d_9">
      <g>
       <use style="stroke:#000000;stroke-width:0.5;" x="270.0975" xlink:href="#m9ddfa00f85" y="23.14175"/>
      </g>
     </g>
     <g id="text_4">
      <!-- 1500 -->
      <g transform="translate(254.8275 381.859875)scale(0.12 -0.12)">
       <use xlink:href="#BitstreamVeraSans-Roman-31"/>
       <use x="63.623046875" xlink:href="#BitstreamVeraSans-Roman-35"/>
       <use x="127.24609375" xlink:href="#BitstreamVeraSans-Roman-30"/>
       <use x="190.869140625" xlink:href="#BitstreamVeraSans-Roman-30"/>
      </g>
     </g>
    </g>
    <g id="xtick_5">
     <g id="line2d_10">
      <g>
       <use style="stroke:#000000;stroke-width:0.5;" x="344.4975" xlink:href="#m5c4ea06054" y="368.74175"/>
      </g>
     </g>
     <g id="line2d_11">
      <g>
       <use style="stroke:#000000;stroke-width:0.5;" x="344.4975" xlink:href="#m9ddfa00f85" y="23.14175"/>
      </g>
     </g>
     <g id="text_5">
      <!-- 2000 -->
      <defs>
       <path d="M 19.1875 8.296875 
L 53.609375 8.296875 
L 53.609375 0 
L 7.328125 0 
L 7.328125 8.296875 
Q 12.9375 14.109375 22.625 23.890625 
Q 32.328125 33.6875 34.8125 36.53125 
Q 39.546875 41.84375 41.421875 45.53125 
Q 43.3125 49.21875 43.3125 52.78125 
Q 43.3125 58.59375 39.234375 62.25 
Q 35.15625 65.921875 28.609375 65.921875 
Q 23.96875 65.921875 18.8125 64.3125 
Q 13.671875 62.703125 7.8125 59.421875 
L 7.8125 69.390625 
Q 13.765625 71.78125 18.9375 73 
Q 24.125 74.21875 28.421875 74.21875 
Q 39.75 74.21875 46.484375 68.546875 
Q 53.21875 62.890625 53.21875 53.421875 
Q 53.21875 48.921875 51.53125 44.890625 
Q 49.859375 40.875 45.40625 35.40625 
Q 44.1875 33.984375 37.640625 27.21875 
Q 31.109375 20.453125 19.1875 8.296875 
" id="BitstreamVeraSans-Roman-32"/>
      </defs>
      <g transform="translate(329.2275 381.859875)scale(0.12 -0.12)">
       <use xlink:href="#BitstreamVeraSans-Roman-32"/>
       <use x="63.623046875" xlink:href="#BitstreamVeraSans-Roman-30"/>
       <use x="127.24609375" xlink:href="#BitstreamVeraSans-Roman-30"/>
       <use x="190.869140625" xlink:href="#BitstreamVeraSans-Roman-30"/>
      </g>
     </g>
    </g>
    <g id="xtick_6">
     <g id="line2d_12">
      <g>
       <use style="stroke:#000000;stroke-width:0.5;" x="418.8975" xlink:href="#m5c4ea06054" y="368.74175"/>
      </g>
     </g>
     <g id="line2d_13">
      <g>
       <use style="stroke:#000000;stroke-width:0.5;" x="418.8975" xlink:href="#m9ddfa00f85" y="23.14175"/>
      </g>
     </g>
     <g id="text_6">
      <!-- 2500 -->
      <g transform="translate(403.6275 381.859875)scale(0.12 -0.12)">
       <use xlink:href="#BitstreamVeraSans-Roman-32"/>
       <use x="63.623046875" xlink:href="#BitstreamVeraSans-Roman-35"/>
       <use x="127.24609375" xlink:href="#BitstreamVeraSans-Roman-30"/>
       <use x="190.869140625" xlink:href="#BitstreamVeraSans-Roman-30"/>
      </g>
     </g>
    </g>
    <g id="xtick_7">
     <g id="line2d_14">
      <g>
       <use style="stroke:#000000;stroke-width:0.5;" x="493.2975" xlink:href="#m5c4ea06054" y="368.74175"/>
      </g>
     </g>
     <g id="line2d_15">
      <g>
       <use style="stroke:#000000;stroke-width:0.5;" x="493.2975" xlink:href="#m9ddfa00f85" y="23.14175"/>
      </g>
     </g>
     <g id="text_7">
      <!-- 3000 -->
      <defs>
       <path d="M 40.578125 39.3125 
Q 47.65625 37.796875 51.625 33 
Q 55.609375 28.21875 55.609375 21.1875 
Q 55.609375 10.40625 48.1875 4.484375 
Q 40.765625 -1.421875 27.09375 -1.421875 
Q 22.515625 -1.421875 17.65625 -0.515625 
Q 12.796875 0.390625 7.625 2.203125 
L 7.625 11.71875 
Q 11.71875 9.328125 16.59375 8.109375 
Q 21.484375 6.890625 26.8125 6.890625 
Q 36.078125 6.890625 40.9375 10.546875 
Q 45.796875 14.203125 45.796875 21.1875 
Q 45.796875 27.640625 41.28125 31.265625 
Q 36.765625 34.90625 28.71875 34.90625 
L 20.21875 34.90625 
L 20.21875 43.015625 
L 29.109375 43.015625 
Q 36.375 43.015625 40.234375 45.921875 
Q 44.09375 48.828125 44.09375 54.296875 
Q 44.09375 59.90625 40.109375 62.90625 
Q 36.140625 65.921875 28.71875 65.921875 
Q 24.65625 65.921875 20.015625 65.03125 
Q 15.375 64.15625 9.8125 62.3125 
L 9.8125 71.09375 
Q 15.4375 72.65625 20.34375 73.4375 
Q 25.25 74.21875 29.59375 74.21875 
Q 40.828125 74.21875 47.359375 69.109375 
Q 53.90625 64.015625 53.90625 55.328125 
Q 53.90625 49.265625 50.4375 45.09375 
Q 46.96875 40.921875 40.578125 39.3125 
" id="BitstreamVeraSans-Roman-33"/>
      </defs>
      <g transform="translate(478.0275 381.859875)scale(0.12 -0.12)">
       <use xlink:href="#BitstreamVeraSans-Roman-33"/>
       <use x="63.623046875" xlink:href="#BitstreamVeraSans-Roman-30"/>
       <use x="127.24609375" xlink:href="#BitstreamVeraSans-Roman-30"/>
       <use x="190.869140625" xlink:href="#BitstreamVeraSans-Roman-30"/>
      </g>
     </g>
    </g>
    <g id="text_8">
     <!-- episode -->
     <defs>
      <path d="M 45.40625 46.390625 
L 45.40625 75.984375 
L 54.390625 75.984375 
L 54.390625 0 
L 45.40625 0 
L 45.40625 8.203125 
Q 42.578125 3.328125 38.25 0.953125 
Q 33.9375 -1.421875 27.875 -1.421875 
Q 17.96875 -1.421875 11.734375 6.484375 
Q 5.515625 14.40625 5.515625 27.296875 
Q 5.515625 40.1875 11.734375 48.09375 
Q 17.96875 56 27.875 56 
Q 33.9375 56 38.25 53.625 
Q 42.578125 51.265625 45.40625 46.390625 
M 14.796875 27.296875 
Q 14.796875 17.390625 18.875 11.75 
Q 22.953125 6.109375 30.078125 6.109375 
Q 37.203125 6.109375 41.296875 11.75 
Q 45.40625 17.390625 45.40625 27.296875 
Q 45.40625 37.203125 41.296875 42.84375 
Q 37.203125 48.484375 30.078125 48.484375 
Q 22.953125 48.484375 18.875 42.84375 
Q 14.796875 37.203125 14.796875 27.296875 
" id="BitstreamVeraSans-Roman-64"/>
      <path d="M 56.203125 29.59375 
L 56.203125 25.203125 
L 14.890625 25.203125 
Q 15.484375 15.921875 20.484375 11.0625 
Q 25.484375 6.203125 34.421875 6.203125 
Q 39.59375 6.203125 44.453125 7.46875 
Q 49.3125 8.734375 54.109375 11.28125 
L 54.109375 2.78125 
Q 49.265625 0.734375 44.1875 -0.34375 
Q 39.109375 -1.421875 33.890625 -1.421875 
Q 20.796875 -1.421875 13.15625 6.1875 
Q 5.515625 13.8125 5.515625 26.8125 
Q 5.515625 40.234375 12.765625 48.109375 
Q 20.015625 56 32.328125 56 
Q 43.359375 56 49.78125 48.890625 
Q 56.203125 41.796875 56.203125 29.59375 
M 47.21875 32.234375 
Q 47.125 39.59375 43.09375 43.984375 
Q 39.0625 48.390625 32.421875 48.390625 
Q 24.90625 48.390625 20.390625 44.140625 
Q 15.875 39.890625 15.1875 32.171875 
z
" id="BitstreamVeraSans-Roman-65"/>
      <path d="M 9.421875 54.6875 
L 18.40625 54.6875 
L 18.40625 0 
L 9.421875 0 
z
M 9.421875 75.984375 
L 18.40625 75.984375 
L 18.40625 64.59375 
L 9.421875 64.59375 
z
" id="BitstreamVeraSans-Roman-69"/>
      <path d="M 30.609375 48.390625 
Q 23.390625 48.390625 19.1875 42.75 
Q 14.984375 37.109375 14.984375 27.296875 
Q 14.984375 17.484375 19.15625 11.84375 
Q 23.34375 6.203125 30.609375 6.203125 
Q 37.796875 6.203125 41.984375 11.859375 
Q 46.1875 17.53125 46.1875 27.296875 
Q 46.1875 37.015625 41.984375 42.703125 
Q 37.796875 48.390625 30.609375 48.390625 
M 30.609375 56 
Q 42.328125 56 49.015625 48.375 
Q 55.71875 40.765625 55.71875 27.296875 
Q 55.71875 13.875 49.015625 6.21875 
Q 42.328125 -1.421875 30.609375 -1.421875 
Q 18.84375 -1.421875 12.171875 6.21875 
Q 5.515625 13.875 5.515625 27.296875 
Q 5.515625 40.765625 12.171875 48.375 
Q 18.84375 56 30.609375 56 
" id="BitstreamVeraSans-Roman-6f"/>
      <path d="M 18.109375 8.203125 
L 18.109375 -20.796875 
L 9.078125 -20.796875 
L 9.078125 54.6875 
L 18.109375 54.6875 
L 18.109375 46.390625 
Q 20.953125 51.265625 25.265625 53.625 
Q 29.59375 56 35.59375 56 
Q 45.5625 56 51.78125 48.09375 
Q 58.015625 40.1875 58.015625 27.296875 
Q 58.015625 14.40625 51.78125 6.484375 
Q 45.5625 -1.421875 35.59375 -1.421875 
Q 29.59375 -1.421875 25.265625 0.953125 
Q 20.953125 3.328125 18.109375 8.203125 
M 48.6875 27.296875 
Q 48.6875 37.203125 44.609375 42.84375 
Q 40.53125 48.484375 33.40625 48.484375 
Q 26.265625 48.484375 22.1875 42.84375 
Q 18.109375 37.203125 18.109375 27.296875 
Q 18.109375 17.390625 22.1875 11.75 
Q 26.265625 6.109375 33.40625 6.109375 
Q 40.53125 6.109375 44.609375 11.75 
Q 48.6875 17.390625 48.6875 27.296875 
" id="BitstreamVeraSans-Roman-70"/>
      <path d="M 44.28125 53.078125 
L 44.28125 44.578125 
Q 40.484375 46.53125 36.375 47.5 
Q 32.28125 48.484375 27.875 48.484375 
Q 21.1875 48.484375 17.84375 46.4375 
Q 14.5 44.390625 14.5 40.28125 
Q 14.5 37.15625 16.890625 35.375 
Q 19.28125 33.59375 26.515625 31.984375 
L 29.59375 31.296875 
Q 39.15625 29.25 43.1875 25.515625 
Q 47.21875 21.78125 47.21875 15.09375 
Q 47.21875 7.46875 41.1875 3.015625 
Q 35.15625 -1.421875 24.609375 -1.421875 
Q 20.21875 -1.421875 15.453125 -0.5625 
Q 10.6875 0.296875 5.421875 2 
L 5.421875 11.28125 
Q 10.40625 8.6875 15.234375 7.390625 
Q 20.0625 6.109375 24.8125 6.109375 
Q 31.15625 6.109375 34.5625 8.28125 
Q 37.984375 10.453125 37.984375 14.40625 
Q 37.984375 18.0625 35.515625 20.015625 
Q 33.0625 21.96875 24.703125 23.78125 
L 21.578125 24.515625 
Q 13.234375 26.265625 9.515625 29.90625 
Q 5.8125 33.546875 5.8125 39.890625 
Q 5.8125 47.609375 11.28125 51.796875 
Q 16.75 56 26.8125 56 
Q 31.78125 56 36.171875 55.265625 
Q 40.578125 54.546875 44.28125 53.078125 
" id="BitstreamVeraSans-Roman-73"/>
     </defs>
     <g transform="translate(246.631875 398.473625)scale(0.12 -0.12)">
      <use xlink:href="#BitstreamVeraSans-Roman-65"/>
      <use x="61.5234375" xlink:href="#BitstreamVeraSans-Roman-70"/>
      <use x="125.0" xlink:href="#BitstreamVeraSans-Roman-69"/>
      <use x="152.783203125" xlink:href="#BitstreamVeraSans-Roman-73"/>
      <use x="204.8828125" xlink:href="#BitstreamVeraSans-Roman-6f"/>
      <use x="266.064453125" xlink:href="#BitstreamVeraSans-Roman-64"/>
      <use x="329.541015625" xlink:href="#BitstreamVeraSans-Roman-65"/>
     </g>
    </g>
   </g>
   <g id="matplotlib.axis_2">
    <g id="ytick_1">
     <g id="line2d_16">
      <defs>
       <path d="M 0 0 
L 4 0 
" id="m85bd422549" style="stroke:#000000;stroke-width:0.5;"/>
      </defs>
      <g>
       <use style="stroke:#000000;stroke-width:0.5;" x="46.8975" xlink:href="#m85bd422549" y="368.74175"/>
      </g>
     </g>
     <g id="line2d_17">
      <defs>
       <path d="M 0 0 
L -4 0 
" id="m6273ffe0ee" style="stroke:#000000;stroke-width:0.5;"/>
      </defs>
      <g>
       <use style="stroke:#000000;stroke-width:0.5;" x="493.2975" xlink:href="#m6273ffe0ee" y="368.74175"/>
      </g>
     </g>
     <g id="text_9">
      <!-- 0.0 -->
      <defs>
       <path d="M 10.6875 12.40625 
L 21 12.40625 
L 21 0 
L 10.6875 0 
z
" id="BitstreamVeraSans-Roman-2e"/>
      </defs>
      <g transform="translate(23.81375 372.053)scale(0.12 -0.12)">
       <use xlink:href="#BitstreamVeraSans-Roman-30"/>
       <use x="63.623046875" xlink:href="#BitstreamVeraSans-Roman-2e"/>
       <use x="95.41015625" xlink:href="#BitstreamVeraSans-Roman-30"/>
      </g>
     </g>
    </g>
    <g id="ytick_2">
     <g id="line2d_18">
      <g>
       <use style="stroke:#000000;stroke-width:0.5;" x="46.8975" xlink:href="#m85bd422549" y="282.34175"/>
      </g>
     </g>
     <g id="line2d_19">
      <g>
       <use style="stroke:#000000;stroke-width:0.5;" x="493.2975" xlink:href="#m6273ffe0ee" y="282.34175"/>
      </g>
     </g>
     <g id="text_10">
      <!-- 0.5 -->
      <g transform="translate(23.81375 285.653)scale(0.12 -0.12)">
       <use xlink:href="#BitstreamVeraSans-Roman-30"/>
       <use x="63.623046875" xlink:href="#BitstreamVeraSans-Roman-2e"/>
       <use x="95.41015625" xlink:href="#BitstreamVeraSans-Roman-35"/>
      </g>
     </g>
    </g>
    <g id="ytick_3">
     <g id="line2d_20">
      <g>
       <use style="stroke:#000000;stroke-width:0.5;" x="46.8975" xlink:href="#m85bd422549" y="195.94175"/>
      </g>
     </g>
     <g id="line2d_21">
      <g>
       <use style="stroke:#000000;stroke-width:0.5;" x="493.2975" xlink:href="#m6273ffe0ee" y="195.94175"/>
      </g>
     </g>
     <g id="text_11">
      <!-- 1.0 -->
      <g transform="translate(23.81375 199.253)scale(0.12 -0.12)">
       <use xlink:href="#BitstreamVeraSans-Roman-31"/>
       <use x="63.623046875" xlink:href="#BitstreamVeraSans-Roman-2e"/>
       <use x="95.41015625" xlink:href="#BitstreamVeraSans-Roman-30"/>
      </g>
     </g>
    </g>
    <g id="ytick_4">
     <g id="line2d_22">
      <g>
       <use style="stroke:#000000;stroke-width:0.5;" x="46.8975" xlink:href="#m85bd422549" y="109.54175"/>
      </g>
     </g>
     <g id="line2d_23">
      <g>
       <use style="stroke:#000000;stroke-width:0.5;" x="493.2975" xlink:href="#m6273ffe0ee" y="109.54175"/>
      </g>
     </g>
     <g id="text_12">
      <!-- 1.5 -->
      <g transform="translate(23.81375 112.853)scale(0.12 -0.12)">
       <use xlink:href="#BitstreamVeraSans-Roman-31"/>
       <use x="63.623046875" xlink:href="#BitstreamVeraSans-Roman-2e"/>
       <use x="95.41015625" xlink:href="#BitstreamVeraSans-Roman-35"/>
      </g>
     </g>
    </g>
    <g id="ytick_5">
     <g id="line2d_24">
      <g>
       <use style="stroke:#000000;stroke-width:0.5;" x="46.8975" xlink:href="#m85bd422549" y="23.14175"/>
      </g>
     </g>
     <g id="line2d_25">
      <g>
       <use style="stroke:#000000;stroke-width:0.5;" x="493.2975" xlink:href="#m6273ffe0ee" y="23.14175"/>
      </g>
     </g>
     <g id="text_13">
      <!-- 2.0 -->
      <g transform="translate(23.81375 26.453)scale(0.12 -0.12)">
       <use xlink:href="#BitstreamVeraSans-Roman-32"/>
       <use x="63.623046875" xlink:href="#BitstreamVeraSans-Roman-2e"/>
       <use x="95.41015625" xlink:href="#BitstreamVeraSans-Roman-30"/>
      </g>
     </g>
    </g>
    <g id="text_14">
     <!-- average maxQ -->
     <defs>
      <path d="M 2.984375 54.6875 
L 12.5 54.6875 
L 29.59375 8.796875 
L 46.6875 54.6875 
L 56.203125 54.6875 
L 35.6875 0 
L 23.484375 0 
z
" id="BitstreamVeraSans-Roman-76"/>
      <path id="BitstreamVeraSans-Roman-20"/>
      <path d="M 52 44.1875 
Q 55.375 50.25 60.0625 53.125 
Q 64.75 56 71.09375 56 
Q 79.640625 56 84.28125 50.015625 
Q 88.921875 44.046875 88.921875 33.015625 
L 88.921875 0 
L 79.890625 0 
L 79.890625 32.71875 
Q 79.890625 40.578125 77.09375 44.375 
Q 74.3125 48.1875 68.609375 48.1875 
Q 61.625 48.1875 57.5625 43.546875 
Q 53.515625 38.921875 53.515625 30.90625 
L 53.515625 0 
L 44.484375 0 
L 44.484375 32.71875 
Q 44.484375 40.625 41.703125 44.40625 
Q 38.921875 48.1875 33.109375 48.1875 
Q 26.21875 48.1875 22.15625 43.53125 
Q 18.109375 38.875 18.109375 30.90625 
L 18.109375 0 
L 9.078125 0 
L 9.078125 54.6875 
L 18.109375 54.6875 
L 18.109375 46.1875 
Q 21.1875 51.21875 25.484375 53.609375 
Q 29.78125 56 35.6875 56 
Q 41.65625 56 45.828125 52.96875 
Q 50 49.953125 52 44.1875 
" id="BitstreamVeraSans-Roman-6d"/>
      <path d="M 54.890625 54.6875 
L 35.109375 28.078125 
L 55.90625 0 
L 45.3125 0 
L 29.390625 21.484375 
L 13.484375 0 
L 2.875 0 
L 24.125 28.609375 
L 4.6875 54.6875 
L 15.28125 54.6875 
L 29.78125 35.203125 
L 44.28125 54.6875 
z
" id="BitstreamVeraSans-Roman-78"/>
      <path d="M 41.109375 46.296875 
Q 39.59375 47.171875 37.8125 47.578125 
Q 36.03125 48 33.890625 48 
Q 26.265625 48 22.1875 43.046875 
Q 18.109375 38.09375 18.109375 28.8125 
L 18.109375 0 
L 9.078125 0 
L 9.078125 54.6875 
L 18.109375 54.6875 
L 18.109375 46.1875 
Q 20.953125 51.171875 25.484375 53.578125 
Q 30.03125 56 36.53125 56 
Q 37.453125 56 38.578125 55.875 
Q 39.703125 55.765625 41.0625 55.515625 
z
" id="BitstreamVeraSans-Roman-72"/>
      <path d="M 34.28125 27.484375 
Q 23.390625 27.484375 19.1875 25 
Q 14.984375 22.515625 14.984375 16.5 
Q 14.984375 11.71875 18.140625 8.90625 
Q 21.296875 6.109375 26.703125 6.109375 
Q 34.1875 6.109375 38.703125 11.40625 
Q 43.21875 16.703125 43.21875 25.484375 
L 43.21875 27.484375 
z
M 52.203125 31.203125 
L 52.203125 0 
L 43.21875 0 
L 43.21875 8.296875 
Q 40.140625 3.328125 35.546875 0.953125 
Q 30.953125 -1.421875 24.3125 -1.421875 
Q 15.921875 -1.421875 10.953125 3.296875 
Q 6 8.015625 6 15.921875 
Q 6 25.140625 12.171875 29.828125 
Q 18.359375 34.515625 30.609375 34.515625 
L 43.21875 34.515625 
L 43.21875 35.40625 
Q 43.21875 41.609375 39.140625 45 
Q 35.0625 48.390625 27.6875 48.390625 
Q 23 48.390625 18.546875 47.265625 
Q 14.109375 46.140625 10.015625 43.890625 
L 10.015625 52.203125 
Q 14.9375 54.109375 19.578125 55.046875 
Q 24.21875 56 28.609375 56 
Q 40.484375 56 46.34375 49.84375 
Q 52.203125 43.703125 52.203125 31.203125 
" id="BitstreamVeraSans-Roman-61"/>
      <path d="M 39.40625 66.21875 
Q 28.65625 66.21875 22.328125 58.203125 
Q 16.015625 50.203125 16.015625 36.375 
Q 16.015625 22.609375 22.328125 14.59375 
Q 28.65625 6.59375 39.40625 6.59375 
Q 50.140625 6.59375 56.421875 14.59375 
Q 62.703125 22.609375 62.703125 36.375 
Q 62.703125 50.203125 56.421875 58.203125 
Q 50.140625 66.21875 39.40625 66.21875 
M 53.21875 1.3125 
L 66.21875 -12.890625 
L 54.296875 -12.890625 
L 43.5 -1.21875 
Q 41.890625 -1.3125 41.03125 -1.359375 
Q 40.1875 -1.421875 39.40625 -1.421875 
Q 24.03125 -1.421875 14.8125 8.859375 
Q 5.609375 19.140625 5.609375 36.375 
Q 5.609375 53.65625 14.8125 63.9375 
Q 24.03125 74.21875 39.40625 74.21875 
Q 54.734375 74.21875 63.90625 63.9375 
Q 73.09375 53.65625 73.09375 36.375 
Q 73.09375 23.6875 67.984375 14.640625 
Q 62.890625 5.609375 53.21875 1.3125 
" id="BitstreamVeraSans-Roman-51"/>
      <path d="M 45.40625 27.984375 
Q 45.40625 37.75 41.375 43.109375 
Q 37.359375 48.484375 30.078125 48.484375 
Q 22.859375 48.484375 18.828125 43.109375 
Q 14.796875 37.75 14.796875 27.984375 
Q 14.796875 18.265625 18.828125 12.890625 
Q 22.859375 7.515625 30.078125 7.515625 
Q 37.359375 7.515625 41.375 12.890625 
Q 45.40625 18.265625 45.40625 27.984375 
M 54.390625 6.78125 
Q 54.390625 -7.171875 48.1875 -13.984375 
Q 42 -20.796875 29.203125 -20.796875 
Q 24.46875 -20.796875 20.265625 -20.09375 
Q 16.0625 -19.390625 12.109375 -17.921875 
L 12.109375 -9.1875 
Q 16.0625 -11.328125 19.921875 -12.34375 
Q 23.78125 -13.375 27.78125 -13.375 
Q 36.625 -13.375 41.015625 -8.765625 
Q 45.40625 -4.15625 45.40625 5.171875 
L 45.40625 9.625 
Q 42.625 4.78125 38.28125 2.390625 
Q 33.9375 0 27.875 0 
Q 17.828125 0 11.671875 7.65625 
Q 5.515625 15.328125 5.515625 27.984375 
Q 5.515625 40.671875 11.671875 48.328125 
Q 17.828125 56 27.875 56 
Q 33.9375 56 38.28125 53.609375 
Q 42.625 51.21875 45.40625 46.390625 
L 45.40625 54.6875 
L 54.390625 54.6875 
z
" id="BitstreamVeraSans-Roman-67"/>
     </defs>
     <g transform="translate(16.318125 240.208625)rotate(-90.0)scale(0.12 -0.12)">
      <use xlink:href="#BitstreamVeraSans-Roman-61"/>
      <use x="61.279296875" xlink:href="#BitstreamVeraSans-Roman-76"/>
      <use x="120.458984375" xlink:href="#BitstreamVeraSans-Roman-65"/>
      <use x="181.982421875" xlink:href="#BitstreamVeraSans-Roman-72"/>
      <use x="223.095703125" xlink:href="#BitstreamVeraSans-Roman-61"/>
      <use x="284.375" xlink:href="#BitstreamVeraSans-Roman-67"/>
      <use x="347.8515625" xlink:href="#BitstreamVeraSans-Roman-65"/>
      <use x="409.375" xlink:href="#BitstreamVeraSans-Roman-20"/>
      <use x="441.162109375" xlink:href="#BitstreamVeraSans-Roman-6d"/>
      <use x="538.57421875" xlink:href="#BitstreamVeraSans-Roman-61"/>
      <use x="599.853515625" xlink:href="#BitstreamVeraSans-Roman-78"/>
      <use x="659.033203125" xlink:href="#BitstreamVeraSans-Roman-51"/>
     </g>
    </g>
   </g>
   <g id="text_15">
    <!-- Average maxQ per episode, joint5 -->
    <defs>
     <path d="M 18.3125 70.21875 
L 18.3125 54.6875 
L 36.8125 54.6875 
L 36.8125 47.703125 
L 18.3125 47.703125 
L 18.3125 18.015625 
Q 18.3125 11.328125 20.140625 9.421875 
Q 21.96875 7.515625 27.59375 7.515625 
L 36.8125 7.515625 
L 36.8125 0 
L 27.59375 0 
Q 17.1875 0 13.234375 3.875 
Q 9.28125 7.765625 9.28125 18.015625 
L 9.28125 47.703125 
L 2.6875 47.703125 
L 2.6875 54.6875 
L 9.28125 54.6875 
L 9.28125 70.21875 
z
" id="BitstreamVeraSans-Roman-74"/>
     <path d="M 11.71875 12.40625 
L 22.015625 12.40625 
L 22.015625 4 
L 14.015625 -11.625 
L 7.71875 -11.625 
L 11.71875 4 
z
" id="BitstreamVeraSans-Roman-2c"/>
     <path d="M 9.421875 54.6875 
L 18.40625 54.6875 
L 18.40625 -0.984375 
Q 18.40625 -11.421875 14.421875 -16.109375 
Q 10.453125 -20.796875 1.609375 -20.796875 
L -1.8125 -20.796875 
L -1.8125 -13.1875 
L 0.59375 -13.1875 
Q 5.71875 -13.1875 7.5625 -10.8125 
Q 9.421875 -8.453125 9.421875 -0.984375 
z
M 9.421875 75.984375 
L 18.40625 75.984375 
L 18.40625 64.59375 
L 9.421875 64.59375 
z
" id="BitstreamVeraSans-Roman-6a"/>
     <path d="M 54.890625 33.015625 
L 54.890625 0 
L 45.90625 0 
L 45.90625 32.71875 
Q 45.90625 40.484375 42.875 44.328125 
Q 39.84375 48.1875 33.796875 48.1875 
Q 26.515625 48.1875 22.3125 43.546875 
Q 18.109375 38.921875 18.109375 30.90625 
L 18.109375 0 
L 9.078125 0 
L 9.078125 54.6875 
L 18.109375 54.6875 
L 18.109375 46.1875 
Q 21.34375 51.125 25.703125 53.5625 
Q 30.078125 56 35.796875 56 
Q 45.21875 56 50.046875 50.171875 
Q 54.890625 44.34375 54.890625 33.015625 
" id="BitstreamVeraSans-Roman-6e"/>
     <path d="M 34.1875 63.1875 
L 20.796875 26.90625 
L 47.609375 26.90625 
z
M 28.609375 72.90625 
L 39.796875 72.90625 
L 67.578125 0 
L 57.328125 0 
L 50.6875 18.703125 
L 17.828125 18.703125 
L 11.1875 0 
L 0.78125 0 
z
" id="BitstreamVeraSans-Roman-41"/>
    </defs>
    <g transform="translate(146.8245 18.14175)scale(0.144 -0.144)">
     <use xlink:href="#BitstreamVeraSans-Roman-41"/>
     <use x="68.330078125" xlink:href="#BitstreamVeraSans-Roman-76"/>
     <use x="127.509765625" xlink:href="#BitstreamVeraSans-Roman-65"/>
     <use x="189.033203125" xlink:href="#BitstreamVeraSans-Roman-72"/>
     <use x="230.146484375" xlink:href="#BitstreamVeraSans-Roman-61"/>
     <use x="291.42578125" xlink:href="#BitstreamVeraSans-Roman-67"/>
     <use x="354.90234375" xlink:href="#BitstreamVeraSans-Roman-65"/>
     <use x="416.42578125" xlink:href="#BitstreamVeraSans-Roman-20"/>
     <use x="448.212890625" xlink:href="#BitstreamVeraSans-Roman-6d"/>
     <use x="545.625" xlink:href="#BitstreamVeraSans-Roman-61"/>
     <use x="606.904296875" xlink:href="#BitstreamVeraSans-Roman-78"/>
     <use x="666.083984375" xlink:href="#BitstreamVeraSans-Roman-51"/>
     <use x="744.794921875" xlink:href="#BitstreamVeraSans-Roman-20"/>
     <use x="776.58203125" xlink:href="#BitstreamVeraSans-Roman-70"/>
     <use x="840.05859375" xlink:href="#BitstreamVeraSans-Roman-65"/>
     <use x="901.58203125" xlink:href="#BitstreamVeraSans-Roman-72"/>
     <use x="942.6953125" xlink:href="#BitstreamVeraSans-Roman-20"/>
     <use x="974.482421875" xlink:href="#BitstreamVeraSans-Roman-65"/>
     <use x="1036.005859375" xlink:href="#BitstreamVeraSans-Roman-70"/>
     <use x="1099.482421875" xlink:href="#BitstreamVeraSans-Roman-69"/>
     <use x="1127.265625" xlink:href="#BitstreamVeraSans-Roman-73"/>
     <use x="1179.365234375" xlink:href="#BitstreamVeraSans-Roman-6f"/>
     <use x="1240.546875" xlink:href="#BitstreamVeraSans-Roman-64"/>
     <use x="1304.0234375" xlink:href="#BitstreamVeraSans-Roman-65"/>
     <use x="1365.546875" xlink:href="#BitstreamVeraSans-Roman-2c"/>
     <use x="1397.333984375" xlink:href="#BitstreamVeraSans-Roman-20"/>
     <use x="1429.12109375" xlink:href="#BitstreamVeraSans-Roman-6a"/>
     <use x="1456.904296875" xlink:href="#BitstreamVeraSans-Roman-6f"/>
     <use x="1518.0859375" xlink:href="#BitstreamVeraSans-Roman-69"/>
     <use x="1545.869140625" xlink:href="#BitstreamVeraSans-Roman-6e"/>
     <use x="1609.248046875" xlink:href="#BitstreamVeraSans-Roman-74"/>
     <use x="1648.45703125" xlink:href="#BitstreamVeraSans-Roman-35"/>
    </g>
   </g>
  </g>
 </g>
 <defs>
  <clipPath id="p264ca4459a">
   <rect height="345.6" width="446.4" x="46.8975" y="23.14175"/>
  </clipPath>
 </defs>
</svg>
