<?xml version="1.0" encoding="utf-8" standalone="no"?>
<!DOCTYPE svg PUBLIC "-//W3C//DTD SVG 1.1//EN"
  "http://www.w3.org/Graphics/SVG/1.1/DTD/svg11.dtd">
<!-- Created with matplotlib (http://matplotlib.org/) -->
<svg height="408pt" version="1.1" viewBox="0 0 523 408" width="523pt" xmlns="http://www.w3.org/2000/svg" xmlns:xlink="http://www.w3.org/1999/xlink">
 <defs>
  <style type="text/css">
*{stroke-linecap:butt;stroke-linejoin:round;stroke-miterlimit:100000;}
  </style>
 </defs>
 <g id="figure_1">
  <g id="patch_1">
   <path d="M 0 408.16925 
L 523.4025 408.16925 
L 523.4025 0 
L 0 0 
z
" style="fill:#ffffff;"/>
  </g>
  <g id="axes_1">
   <g id="patch_2">
    <path d="M 54.5325 368.74175 
L 500.9325 368.74175 
L 500.9325 23.14175 
L 54.5325 23.14175 
z
" style="fill:#ffffff;"/>
   </g>
   <g id="line2d_1">
    <path clip-path="url(#pc49fa6df68)" d="M 54.7805 258.963002 
L 55.0285 259.095984 
L 55.2765 250.971944 
L 55.5245 255.22777 
L 55.7725 251.225136 
L 56.0205 254.180125 
L 56.2685 255.725438 
L 56.5165 252.535329 
L 57.0125 256.697208 
L 57.2605 251.409823 
L 57.5085 254.037529 
L 57.7565 251.138327 
L 58.0045 257.420005 
L 58.7485 253.460382 
L 58.9965 254.748585 
L 59.2445 258.573678 
L 59.4925 249.465517 
L 59.7405 251.498164 
L 59.9885 255.893487 
L 60.2365 255.653487 
L 60.7325 249.756266 
L 60.9805 255.093485 
L 61.4765 253.750363 
L 61.7245 255.823476 
L 61.9725 253.517249 
L 62.2205 253.350886 
L 62.7165 254.658344 
L 62.9645 254.160996 
L 63.2125 251.527469 
L 63.4605 259.060226 
L 63.7085 260.554661 
L 63.9565 258.935525 
L 64.2045 253.748408 
L 64.4525 256.710484 
L 64.7005 254.063557 
L 64.9485 255.44139 
L 65.1965 249.025573 
L 65.6925 259.592399 
L 65.9405 254.974983 
L 66.1885 252.696707 
L 66.4365 251.802886 
L 66.6845 255.931198 
L 66.9325 255.656545 
L 67.1805 254.617904 
L 67.4285 258.942313 
L 67.6765 253.292 
L 67.9245 259.539616 
L 68.1725 252.155333 
L 68.6685 257.439219 
L 68.9165 250.854831 
L 69.1645 250.678374 
L 69.4125 251.054322 
L 69.9085 254.253135 
L 70.1565 253.721067 
L 70.4045 253.652241 
L 70.6525 256.875203 
L 70.9005 250.49388 
L 71.1485 259.547846 
L 71.3965 252.046011 
L 71.6445 254.922951 
L 71.8925 253.133891 
L 72.1405 254.033733 
L 72.3885 253.784253 
L 72.6365 254.253831 
L 72.8845 251.860824 
L 73.1325 255.939672 
L 73.3805 249.312851 
L 73.6285 253.604396 
L 73.8765 261.020751 
L 74.1245 252.069794 
L 74.3725 253.916841 
L 74.6205 250.596315 
L 74.8685 253.66584 
L 75.1165 252.727871 
L 75.3645 248.487235 
L 75.6125 253.391219 
L 75.8605 255.956761 
L 76.1085 256.725115 
L 76.3565 250.451051 
L 76.6045 251.919271 
L 76.8525 260.487107 
L 77.3485 251.74465 
L 77.5965 250.201031 
L 77.8445 253.30747 
L 78.0925 258.53205 
L 78.3405 254.360819 
L 78.5885 255.115877 
L 78.8365 250.929386 
L 79.0845 253.838271 
L 79.3325 262.35992 
L 79.5805 251.951337 
L 79.8285 252.0167 
L 80.0765 257.806516 
L 80.3245 258.958261 
L 80.5725 257.383999 
L 80.8205 257.110721 
L 81.0685 251.918909 
L 81.3165 252.520356 
L 81.5645 252.017704 
L 81.8125 256.588255 
L 82.0605 254.674866 
L 82.3085 258.491409 
L 82.8045 250.484608 
L 83.0525 253.545651 
L 83.3005 248.690387 
L 83.5485 256.795252 
L 83.7965 258.93302 
L 84.2925 250.065257 
L 84.7885 253.801741 
L 85.0365 260.72155 
L 85.2845 252.738265 
L 85.5325 251.652051 
L 85.7805 254.447582 
L 86.0285 250.659703 
L 86.5245 254.479119 
L 86.7725 253.075696 
L 87.0205 252.636041 
L 87.2685 251.93881 
L 87.5165 253.406463 
L 87.7645 252.593482 
L 88.0125 251.142198 
L 88.2605 253.239843 
L 88.5085 251.614824 
L 88.7565 251.926226 
L 89.0045 254.342979 
L 89.2525 254.614158 
L 89.5005 250.504127 
L 89.7485 255.869276 
L 89.9965 250.835768 
L 90.2445 251.033191 
L 90.7405 254.099782 
L 90.9885 254.014229 
L 91.2365 254.049224 
L 91.4845 253.464824 
L 91.7325 254.148068 
L 91.9805 254.475742 
L 92.2285 253.063252 
L 92.4765 254.008862 
L 92.7245 250.378542 
L 92.9725 254.875814 
L 93.2205 255.688907 
L 93.4685 254.96532 
L 93.7165 253.497306 
L 93.9645 255.469638 
L 94.2125 250.652519 
L 94.4605 250.578212 
L 94.7085 253.633024 
L 94.9565 254.283169 
L 95.4525 254.349724 
L 95.7005 256.266647 
L 95.9485 256.636105 
L 96.1965 254.851425 
L 96.4445 258.492936 
L 96.6925 255.481054 
L 96.9405 261.623151 
L 97.1885 255.044431 
L 97.4365 260.611034 
L 97.9325 249.739123 
L 98.1805 257.772984 
L 98.4285 253.935238 
L 98.6765 258.353154 
L 98.9245 253.382157 
L 99.1725 251.11592 
L 99.4205 251.830639 
L 99.6685 251.669345 
L 99.9165 259.276138 
L 100.1645 247.877965 
L 100.4125 253.172572 
L 100.6605 254.889347 
L 100.9085 250.784573 
L 101.1565 254.770848 
L 101.4045 253.620633 
L 101.6525 254.719992 
L 101.9005 254.15002 
L 102.1485 251.044843 
L 102.3965 246.055124 
L 102.6445 250.07844 
L 102.8925 249.219483 
L 103.1405 254.706047 
L 103.3885 253.469241 
L 103.6365 256.334459 
L 103.8845 252.341563 
L 104.1325 252.625613 
L 104.3805 249.881888 
L 104.6285 257.392472 
L 104.8765 252.540974 
L 105.1245 256.207695 
L 105.3725 251.981145 
L 105.6205 253.69035 
L 105.8685 253.764676 
L 106.1165 255.586792 
L 106.3645 256.219398 
L 106.6125 256.449678 
L 106.8605 257.754725 
L 107.1085 257.16958 
L 107.3565 255.112865 
L 107.6045 257.623758 
L 108.1005 253.379213 
L 108.3485 257.777198 
L 108.5965 252.295968 
L 109.0925 256.045833 
L 109.3405 252.513959 
L 109.5885 251.252381 
L 110.0845 255.253117 
L 110.3325 249.171537 
L 110.8285 257.832713 
L 111.0765 253.218406 
L 111.3245 254.145043 
L 111.5725 254.349856 
L 111.8205 255.827835 
L 112.0685 259.424061 
L 112.3165 250.008782 
L 112.5645 259.15816 
L 112.8125 252.767179 
L 113.0605 253.704549 
L 113.3085 259.393486 
L 113.5565 249.409291 
L 113.8045 256.822636 
L 114.3005 254.688168 
L 114.5485 257.92095 
L 114.7965 256.038636 
L 115.0445 255.211854 
L 115.2925 252.381389 
L 115.5405 257.823464 
L 115.7885 251.567054 
L 116.0365 256.654986 
L 116.2845 258.670472 
L 116.5325 253.40679 
L 116.7805 257.635823 
L 117.0285 251.018261 
L 117.7725 256.650159 
L 118.0205 256.214549 
L 118.2685 252.95146 
L 118.5165 253.017668 
L 118.7645 259.14113 
L 119.0125 252.90816 
L 119.2605 255.17613 
L 119.5085 256.116546 
L 119.7565 250.924168 
L 120.0045 252.577488 
L 120.2525 252.469869 
L 120.5005 251.254799 
L 120.7485 248.520369 
L 120.9965 258.0552 
L 121.2445 259.247856 
L 121.4925 250.712701 
L 121.7405 254.768775 
L 121.9885 254.439038 
L 122.2365 251.133412 
L 122.4845 252.310867 
L 122.7325 250.737561 
L 122.9805 251.05446 
L 123.2285 253.733966 
L 123.4765 252.495934 
L 123.7245 250.616254 
L 124.2205 252.417045 
L 124.4685 259.026773 
L 124.7165 252.238033 
L 124.9645 253.893852 
L 125.2125 253.397425 
L 125.4605 253.824552 
L 125.7085 253.017771 
L 125.9565 251.351764 
L 126.2045 253.30214 
L 126.4525 251.795829 
L 126.7005 252.284197 
L 126.9485 253.091891 
L 127.1965 251.880297 
L 127.4445 255.729623 
L 127.9405 250.795561 
L 128.1885 253.433106 
L 128.4365 253.828097 
L 128.6845 254.884599 
L 128.9325 253.951635 
L 129.1805 251.748094 
L 129.4285 252.675564 
L 129.6765 252.124233 
L 129.9245 253.54801 
L 130.1725 250.081459 
L 130.4205 254.801424 
L 130.6685 256.400746 
L 130.9165 251.419567 
L 131.1645 250.439501 
L 131.4125 248.790721 
L 131.6605 250.277526 
L 131.9085 252.459065 
L 132.1565 256.225175 
L 132.4045 249.624313 
L 132.6525 256.751609 
L 132.9005 251.227914 
L 133.1485 248.689652 
L 133.3965 253.368291 
L 133.6445 252.808098 
L 133.8925 254.806999 
L 134.1405 250.22333 
L 134.3885 254.687174 
L 134.8845 252.445195 
L 135.1325 262.174674 
L 135.3805 254.719567 
L 135.6285 251.397184 
L 136.1245 257.148898 
L 136.3725 251.793941 
L 136.6205 257.789142 
L 136.8685 250.923321 
L 137.1165 257.566459 
L 137.6125 256.232875 
L 137.8605 253.307653 
L 138.1085 256.067683 
L 138.3565 253.484639 
L 138.6045 252.21243 
L 138.8525 254.757261 
L 139.1005 252.053367 
L 139.3485 251.306412 
L 139.5965 260.344977 
L 139.8445 259.965074 
L 140.0925 252.487337 
L 140.3405 255.800721 
L 140.8365 250.623534 
L 141.0845 252.967512 
L 141.3325 250.762688 
L 141.8285 254.866718 
L 142.5725 251.761665 
L 143.0685 258.651644 
L 143.3165 252.856663 
L 143.5645 253.655646 
L 143.8125 253.425086 
L 144.0605 254.966049 
L 144.5565 260.02808 
L 144.8045 257.064606 
L 145.0525 251.10823 
L 145.3005 253.409169 
L 146.0445 254.771678 
L 146.2925 251.992965 
L 146.5405 252.234401 
L 146.7885 253.191272 
L 147.0365 252.613436 
L 147.2845 255.730609 
L 147.5325 255.700651 
L 147.7805 257.871711 
L 148.0285 253.851693 
L 148.2765 253.50866 
L 148.5245 249.248672 
L 148.7725 258.420919 
L 149.0205 257.241458 
L 149.2685 253.21147 
L 149.5165 250.999645 
L 149.7645 250.773486 
L 150.0125 251.672881 
L 150.2605 253.128594 
L 150.5085 253.692488 
L 150.7565 250.56786 
L 151.0045 258.851338 
L 151.2525 249.689353 
L 151.5005 261.103629 
L 151.9965 248.720437 
L 152.2445 260.515712 
L 152.4925 254.465509 
L 152.7405 254.321554 
L 152.9885 253.884181 
L 153.2365 253.713654 
L 153.4845 255.008992 
L 153.7325 256.914262 
L 153.9805 255.787558 
L 154.2285 249.489127 
L 154.4765 256.652932 
L 154.7245 251.816857 
L 154.9725 257.410785 
L 155.2205 256.386747 
L 155.4685 253.945699 
L 155.7165 258.217759 
L 155.9645 258.567383 
L 156.2125 253.809223 
L 156.4605 252.467284 
L 156.7085 255.925752 
L 156.9565 257.297326 
L 157.2045 249.791793 
L 157.4525 255.393501 
L 157.7005 253.258368 
L 157.9485 256.123237 
L 158.1965 257.051514 
L 158.4445 252.940688 
L 158.6925 252.532714 
L 158.9405 257.159579 
L 159.1885 251.789528 
L 159.4365 252.643467 
L 159.6845 259.355467 
L 159.9325 253.386351 
L 160.1805 255.084665 
L 160.4285 251.432128 
L 160.6765 251.964534 
L 160.9245 258.606684 
L 161.1725 257.327548 
L 161.6685 251.23233 
L 161.9165 255.273387 
L 162.1645 253.744579 
L 162.4125 254.549215 
L 162.6605 259.086287 
L 162.9085 253.648503 
L 163.1565 257.002679 
L 163.4045 252.827779 
L 163.6525 260.262524 
L 164.1485 255.268107 
L 164.3965 252.927904 
L 164.6445 253.137715 
L 164.8925 256.913738 
L 165.3885 252.176601 
L 165.6365 252.079376 
L 165.8845 256.796043 
L 166.3805 253.079911 
L 166.8765 255.499475 
L 167.1245 253.248122 
L 167.3725 260.816752 
L 167.6205 256.578882 
L 167.8685 249.948738 
L 168.1165 249.288704 
L 168.3645 256.977743 
L 168.6125 252.887939 
L 168.8605 262.390314 
L 169.1085 254.314118 
L 169.3565 256.865112 
L 169.6045 248.656744 
L 170.1005 257.951563 
L 170.3485 256.590055 
L 170.5965 250.321336 
L 171.0925 254.015702 
L 171.3405 254.276917 
L 171.5885 255.541732 
L 171.8365 253.96188 
L 172.0845 257.456318 
L 172.3325 252.504775 
L 172.5805 251.992696 
L 172.8285 254.890675 
L 173.0765 254.775687 
L 173.3245 258.765377 
L 173.5725 253.375759 
L 173.8205 256.783972 
L 174.0685 251.795529 
L 174.3165 252.971793 
L 174.5645 259.80154 
L 174.8125 251.436257 
L 175.0605 248.394861 
L 175.3085 258.845429 
L 175.5565 253.620298 
L 175.8045 256.030794 
L 176.0525 249.840661 
L 176.3005 251.263396 
L 176.5485 251.432335 
L 176.7965 254.483723 
L 177.0445 250.167379 
L 177.2925 250.181974 
L 177.5405 255.954907 
L 177.7885 254.164811 
L 178.0365 260.89178 
L 178.2845 259.373189 
L 178.5325 253.969759 
L 178.7805 261.792181 
L 179.0285 356.058652 
L 179.2765 340.432179 
L 179.5245 354.507569 
L 179.7725 349.741408 
L 180.0205 339.196968 
L 180.2685 336.246534 
L 180.5165 331.966961 
L 180.7645 333.064448 
L 181.0125 332.881741 
L 181.2605 331.383415 
L 181.5085 328.389112 
L 181.7565 323.827805 
L 182.0045 322.752367 
L 182.2525 317.317451 
L 182.5005 319.667922 
L 182.7485 314.868649 
L 182.9965 324.724133 
L 183.2445 315.374488 
L 183.4925 323.136519 
L 183.7405 305.354484 
L 183.9885 316.614432 
L 184.2365 304.581133 
L 184.4845 313.391738 
L 184.7325 301.179047 
L 184.9805 299.640411 
L 185.2285 302.895566 
L 185.4765 312.631294 
L 185.7245 294.886091 
L 185.9725 288.620703 
L 186.2205 293.988423 
L 186.4685 314.106519 
L 186.7165 287.319873 
L 187.2125 290.810811 
L 187.4605 320.16878 
L 187.7085 276.787097 
L 187.9565 279.659233 
L 188.2045 290.982232 
L 188.4525 278.256128 
L 188.7005 279.189678 
L 188.9485 271.86638 
L 189.1965 272.036278 
L 189.4445 265.164865 
L 189.6925 272.333187 
L 189.9405 294.503407 
L 190.1885 293.204085 
L 190.4365 271.56367 
L 190.6845 263.731799 
L 190.9325 279.816291 
L 191.1805 266.747716 
L 191.4285 300.57215 
L 191.6765 268.719048 
L 191.9245 251.340918 
L 192.1725 262.894648 
L 192.4205 254.379164 
L 192.6685 250.03301 
L 192.9165 254.364573 
L 193.1645 279.80569 
L 193.4125 244.381992 
L 193.6605 244.775349 
L 193.9085 241.319925 
L 194.1565 233.744818 
L 194.4045 246.328379 
L 194.6525 272.752931 
L 194.9005 261.172012 
L 195.1485 242.008515 
L 195.3965 253.679265 
L 195.6445 249.667932 
L 195.8925 253.426827 
L 196.1405 285.727156 
L 196.3885 295.073998 
L 196.6365 290.177073 
L 196.8845 237.464332 
L 197.1325 223.803154 
L 197.3805 237.677595 
L 197.6285 239.851626 
L 197.8765 237.383294 
L 198.1245 244.037332 
L 198.3725 244.838096 
L 198.6205 264.363875 
L 198.8685 209.677928 
L 199.1165 229.747088 
L 199.3645 228.96549 
L 199.6125 244.046488 
L 199.8605 332.434551 
L 200.1085 238.386048 
L 200.3565 242.358322 
L 200.6045 234.807709 
L 200.8525 248.098291 
L 201.1005 233.52288 
L 201.3485 266.512712 
L 201.5965 225.608509 
L 201.8445 250.288857 
L 202.3405 215.360225 
L 202.5885 311.874796 
L 202.8365 219.634781 
L 203.0845 206.923328 
L 203.3325 229.340042 
L 203.5805 200.918737 
L 203.8285 229.417973 
L 204.0765 232.699372 
L 204.3245 249.65634 
L 204.5725 211.504708 
L 205.0685 233.909591 
L 205.3165 219.38128 
L 205.5645 213.648442 
L 205.8125 236.011663 
L 206.0605 203.294067 
L 206.3085 206.815087 
L 206.5565 224.49742 
L 206.8045 190.930316 
L 207.0525 259.31457 
L 207.3005 204.855758 
L 207.5485 214.229316 
L 207.7965 184.244128 
L 208.0445 185.837155 
L 208.2925 215.685432 
L 208.5405 169.1927 
L 208.7885 213.5006 
L 209.0365 223.791378 
L 209.2845 197.412741 
L 209.5325 201.502562 
L 209.7805 226.852554 
L 210.0285 175.886447 
L 210.2765 182.838009 
L 210.5245 199.880359 
L 210.7725 178.26362 
L 211.0205 205.291555 
L 211.2685 272.550035 
L 211.5165 204.616733 
L 211.7645 207.525791 
L 212.0125 269.293077 
L 212.2605 277.000131 
L 212.5085 223.909869 
L 212.7565 196.09205 
L 213.0045 197.103998 
L 213.2525 184.583637 
L 213.5005 162.734496 
L 213.7485 224.241662 
L 213.9965 163.133464 
L 214.2445 254.412767 
L 214.4925 192.121755 
L 214.7405 202.104008 
L 214.9885 151.451811 
L 215.2365 207.156692 
L 215.4845 214.323499 
L 215.7325 169.489867 
L 216.2285 287.513493 
L 216.4765 164.433173 
L 216.7245 184.132827 
L 216.9725 183.416808 
L 217.2205 264.069629 
L 217.4685 183.64985 
L 217.7165 203.250588 
L 217.9645 160.35401 
L 218.4605 202.2555 
L 218.9565 185.199945 
L 219.2045 166.250729 
L 219.4525 176.959288 
L 219.7005 157.911457 
L 219.9485 158.021485 
L 220.1965 180.211553 
L 220.4445 177.440892 
L 220.6925 177.390043 
L 220.9405 186.747462 
L 221.1885 167.851576 
L 221.9325 208.122532 
L 222.1805 186.545609 
L 222.4285 146.734738 
L 222.6765 182.690714 
L 222.9245 145.325382 
L 223.1725 168.600984 
L 223.6685 186.467879 
L 224.1645 132.986253 
L 224.4125 139.45857 
L 224.6605 165.079065 
L 224.9085 163.376232 
L 225.1565 171.694014 
L 225.4045 212.901091 
L 225.6525 206.128532 
L 225.9005 152.082953 
L 226.1485 150.807164 
L 226.3965 142.850745 
L 226.6445 185.93892 
L 226.8925 145.958317 
L 227.1405 163.19906 
L 227.3885 158.681 
L 227.6365 189.247997 
L 227.8845 175.170632 
L 228.1325 184.822444 
L 228.8765 140.106215 
L 229.1245 149.514067 
L 229.3725 197.918777 
L 229.6205 138.237676 
L 229.8685 181.109604 
L 230.1165 275.411025 
L 230.3645 153.009169 
L 230.6125 151.947148 
L 231.1085 174.202628 
L 231.3565 163.928777 
L 231.6045 123.874131 
L 231.8525 133.791549 
L 232.1005 161.509859 
L 232.3485 132.259533 
L 232.5965 171.437773 
L 232.8445 141.886146 
L 233.0925 179.609 
L 233.5885 149.276865 
L 233.8365 158.779403 
L 234.3325 121.618575 
L 234.5805 142.821405 
L 234.8285 140.748645 
L 235.0765 186.407233 
L 235.3245 186.40112 
L 235.5725 136.980152 
L 235.8205 116.64953 
L 236.3165 146.783644 
L 236.8125 131.66145 
L 237.0605 143.76289 
L 237.3085 134.211105 
L 237.5565 184.184157 
L 237.8045 117.808908 
L 238.0525 119.834568 
L 238.3005 112.876077 
L 238.5485 110.414094 
L 239.0445 125.350955 
L 239.2925 120.833761 
L 239.5405 191.888487 
L 239.7885 118.13546 
L 240.0365 169.588837 
L 240.2845 133.546824 
L 240.5325 164.652804 
L 240.7805 126.284823 
L 241.0285 135.228463 
L 241.2765 149.453695 
L 241.5245 114.107267 
L 241.7725 124.244706 
L 242.0205 115.380592 
L 242.2685 110.997229 
L 242.5165 112.77078 
L 242.7645 116.268495 
L 243.0125 126.98912 
L 243.2605 200.748925 
L 243.7565 111.800369 
L 244.0045 112.564785 
L 244.2525 126.595602 
L 244.5005 100.21377 
L 244.7485 113.83792 
L 244.9965 114.546359 
L 245.2445 97.606782 
L 245.4925 95.535612 
L 245.7405 143.920297 
L 246.4845 124.972362 
L 246.7325 98.632031 
L 246.9805 162.090856 
L 247.2285 113.211137 
L 247.4765 98.387478 
L 247.7245 108.523336 
L 247.9725 113.399958 
L 248.2205 150.194676 
L 248.4685 108.873061 
L 248.7165 98.443001 
L 248.9645 103.256085 
L 249.2125 93.572037 
L 249.4605 100.266653 
L 249.9565 170.978012 
L 250.4525 90.892578 
L 250.7005 89.575282 
L 250.9485 89.084289 
L 251.1965 112.917497 
L 251.4445 114.590713 
L 251.6925 96.110762 
L 251.9405 86.116218 
L 252.1885 96.655837 
L 252.4365 101.185903 
L 252.6845 128.771781 
L 252.9325 99.682246 
L 253.1805 95.854074 
L 253.4285 132.170636 
L 253.6765 116.237277 
L 253.9245 79.296378 
L 254.1725 103.63854 
L 254.4205 107.442987 
L 254.6685 75.489042 
L 254.9165 95.051005 
L 255.1645 88.855523 
L 255.4125 79.549845 
L 255.6605 139.091913 
L 255.9085 138.629535 
L 256.1565 83.804053 
L 256.4045 83.302099 
L 256.6525 129.52107 
L 256.9005 92.979761 
L 257.1485 87.218103 
L 257.3965 86.315864 
L 257.6445 134.693462 
L 257.8925 89.825292 
L 258.1405 87.740757 
L 258.3885 75.152396 
L 258.6365 106.793019 
L 258.8845 88.726114 
L 259.1325 93.971243 
L 259.3805 93.772039 
L 259.6285 94.322736 
L 259.8765 84.187658 
L 260.1245 144.733263 
L 260.3725 89.7232 
L 260.6205 94.479425 
L 260.8685 96.182774 
L 261.1165 153.108748 
L 261.3645 134.028294 
L 261.8605 74.68263 
L 262.1085 108.214177 
L 262.3565 123.444589 
L 262.6045 84.568214 
L 262.8525 77.630849 
L 263.1005 89.949177 
L 263.3485 89.531683 
L 263.5965 87.424247 
L 263.8445 92.451031 
L 264.0925 75.407412 
L 264.3405 68.441641 
L 264.5885 97.756984 
L 264.8365 75.688399 
L 265.0845 112.400039 
L 265.3325 98.037957 
L 265.5805 98.413966 
L 265.8285 88.935913 
L 266.0765 92.00824 
L 266.5725 102.506119 
L 266.8205 82.296956 
L 267.0685 107.089334 
L 267.3165 109.386655 
L 267.5645 126.011723 
L 267.8125 111.535393 
L 268.0605 76.585471 
L 268.3085 97.020155 
L 268.5565 77.856373 
L 268.8045 85.424311 
L 269.0525 134.963228 
L 269.3005 73.591537 
L 269.5485 69.466125 
L 269.7965 96.720619 
L 270.0445 97.031533 
L 270.2925 93.698859 
L 270.5405 98.60939 
L 271.0365 91.427789 
L 271.2845 61.496089 
L 271.7805 86.480416 
L 272.2765 132.364924 
L 272.5245 79.436379 
L 272.7725 95.345054 
L 273.0205 79.031065 
L 273.2685 104.482404 
L 273.5165 76.890117 
L 273.7645 105.568528 
L 274.0125 89.762859 
L 274.2605 86.101384 
L 274.5085 72.323934 
L 274.7565 71.503849 
L 275.0045 89.904279 
L 275.2525 90.641834 
L 275.5005 83.311972 
L 275.7485 123.495855 
L 275.9965 104.15678 
L 276.2445 135.382188 
L 276.4925 87.279067 
L 276.7405 94.880409 
L 276.9885 76.178177 
L 277.2365 115.696433 
L 277.4845 115.329544 
L 277.7325 103.817766 
L 277.9805 79.508316 
L 278.2285 84.190262 
L 278.4765 64.043346 
L 278.7245 78.457764 
L 279.2205 94.515347 
L 279.4685 109.428537 
L 279.7165 78.792328 
L 279.9645 125.714041 
L 280.2125 76.874294 
L 280.4605 107.829665 
L 280.7085 89.099168 
L 280.9565 95.139635 
L 281.2045 74.939469 
L 281.4525 93.119554 
L 281.7005 98.691477 
L 281.9485 77.938105 
L 282.1965 85.211666 
L 282.4445 102.674135 
L 282.6925 103.580979 
L 282.9405 128.544925 
L 283.1885 77.592173 
L 283.4365 83.239671 
L 283.6845 74.767312 
L 283.9325 91.634661 
L 284.1805 90.998167 
L 284.4285 109.400051 
L 284.6765 75.724713 
L 284.9245 140.747858 
L 285.1725 82.480378 
L 285.4205 65.817282 
L 285.6685 74.537106 
L 285.9165 66.228146 
L 286.1645 89.764049 
L 286.4125 68.149749 
L 286.6605 58.979746 
L 286.9085 88.977843 
L 287.1565 105.083883 
L 287.4045 110.837273 
L 287.6525 103.721928 
L 287.9005 100.120052 
L 288.1485 79.774596 
L 288.3965 95.596098 
L 288.6445 87.200609 
L 288.8925 72.036337 
L 289.1405 81.502574 
L 289.3885 103.461571 
L 289.6365 89.706063 
L 289.8845 69.043552 
L 290.1325 77.051323 
L 290.3805 70.512161 
L 290.6285 124.03451 
L 290.8765 92.070095 
L 291.1245 84.423284 
L 291.6205 94.258431 
L 291.8685 63.576091 
L 292.3645 115.579436 
L 292.6125 89.559675 
L 292.8605 89.672431 
L 293.1085 90.863435 
L 293.3565 75.497077 
L 293.6045 83.380166 
L 293.8525 102.134478 
L 294.1005 66.275222 
L 294.3485 72.601432 
L 294.5965 92.72949 
L 294.8445 86.958299 
L 295.0925 84.861465 
L 295.3405 107.426908 
L 295.8365 91.553149 
L 296.0845 93.38731 
L 296.3325 103.072791 
L 296.5805 104.639452 
L 296.8285 96.946677 
L 297.0765 81.056928 
L 297.3245 84.204661 
L 297.5725 97.741144 
L 297.8205 70.365045 
L 298.0685 111.444464 
L 298.3165 77.214987 
L 298.5645 75.489615 
L 298.8125 82.960093 
L 299.0605 76.707792 
L 299.3085 104.993793 
L 299.8045 78.531764 
L 300.0525 100.514073 
L 300.3005 87.711435 
L 300.5485 86.21288 
L 300.7965 124.772462 
L 301.0445 87.932708 
L 301.2925 101.415513 
L 301.5405 81.966528 
L 301.7885 91.494469 
L 302.0365 96.443545 
L 302.2845 129.572382 
L 302.5325 132.581319 
L 302.7805 114.289861 
L 303.0285 72.661102 
L 303.2765 119.562667 
L 303.5245 88.905057 
L 303.7725 78.109873 
L 304.0205 117.87621 
L 304.2685 92.836719 
L 304.5165 84.368536 
L 304.7645 90.890351 
L 305.0125 75.937641 
L 305.2605 136.404957 
L 305.7565 95.392728 
L 306.0045 86.838485 
L 306.2525 128.540916 
L 306.5005 102.302681 
L 306.7485 141.254297 
L 306.9965 105.140782 
L 307.2445 108.306141 
L 307.4925 85.489622 
L 307.7405 117.562547 
L 307.9885 111.420443 
L 308.2365 74.485509 
L 308.7325 94.471134 
L 308.9805 96.142521 
L 309.2285 144.809827 
L 309.4765 124.242162 
L 309.7245 90.191882 
L 309.9725 83.977777 
L 310.2205 93.643015 
L 310.4685 82.967852 
L 310.9645 118.466711 
L 311.2125 103.432193 
L 311.4605 158.259144 
L 311.7085 93.210833 
L 311.9565 113.758391 
L 312.2045 101.184174 
L 312.4525 142.564112 
L 312.7005 91.14488 
L 312.9485 83.766758 
L 313.1965 121.452465 
L 313.4445 125.789411 
L 313.6925 105.22558 
L 313.9405 94.766063 
L 314.1885 100.147408 
L 314.4365 88.721809 
L 314.6845 107.013691 
L 314.9325 96.604548 
L 315.1805 107.866872 
L 315.4285 124.281469 
L 315.6765 108.456873 
L 315.9245 105.630561 
L 316.1725 147.686842 
L 316.4205 86.892468 
L 316.6685 106.175979 
L 316.9165 89.831726 
L 317.1645 98.746072 
L 317.4125 103.048036 
L 317.6605 133.750896 
L 317.9085 108.06524 
L 318.1565 110.133014 
L 318.9005 119.407707 
L 319.1485 88.452377 
L 319.3965 88.128126 
L 319.6445 151.195979 
L 319.8925 103.751185 
L 320.1405 104.854713 
L 320.3885 89.320231 
L 320.6365 114.621363 
L 320.8845 114.285348 
L 321.1325 103.571987 
L 321.3805 110.902226 
L 321.6285 107.440888 
L 321.8765 101.673777 
L 322.1245 137.664809 
L 322.3725 134.744134 
L 322.6205 107.434929 
L 322.8685 111.042523 
L 323.1165 97.347401 
L 323.3645 117.063794 
L 323.6125 105.952173 
L 323.8605 155.220146 
L 324.1085 100.213662 
L 324.3565 90.021662 
L 324.6045 97.083808 
L 324.8525 93.405761 
L 325.1005 105.842743 
L 325.3485 154.432494 
L 325.5965 107.971142 
L 325.8445 89.555091 
L 326.0925 120.607196 
L 326.3405 103.530929 
L 326.5885 101.352702 
L 326.8365 101.921626 
L 327.0845 139.967117 
L 327.3325 100.586695 
L 327.5805 135.692864 
L 327.8285 128.692515 
L 328.0765 103.766893 
L 328.3245 90.959307 
L 328.5725 93.933445 
L 328.8205 112.425496 
L 329.0685 109.05638 
L 329.3165 122.962151 
L 329.5645 96.309862 
L 329.8125 113.103801 
L 330.0605 87.91174 
L 330.3085 128.422399 
L 330.5565 107.496909 
L 330.8045 101.588768 
L 331.0525 123.061894 
L 331.5485 127.339767 
L 331.7965 86.339423 
L 332.0445 118.311645 
L 332.2925 105.093474 
L 332.5405 112.204275 
L 332.7885 104.393288 
L 333.0365 106.271824 
L 333.2845 103.740736 
L 333.5325 103.671878 
L 333.7805 101.894364 
L 334.0285 115.687798 
L 334.2765 108.926 
L 334.5245 141.349831 
L 335.0205 106.526357 
L 335.2685 163.96597 
L 335.5165 119.277875 
L 335.7645 106.39823 
L 336.0125 140.982877 
L 336.2605 110.548282 
L 336.5085 105.428294 
L 337.0045 124.521838 
L 337.2525 102.938712 
L 337.5005 113.264335 
L 337.7485 107.071969 
L 337.9965 113.071033 
L 338.2445 179.989503 
L 338.4925 122.51422 
L 338.7405 150.96319 
L 339.2365 132.239855 
L 339.4845 96.087153 
L 339.9805 128.267666 
L 340.2285 128.92436 
L 340.4765 100.5052 
L 340.7245 105.29225 
L 340.9725 135.041684 
L 341.2205 95.949162 
L 341.4685 112.916801 
L 341.7165 103.961993 
L 341.9645 101.913886 
L 342.2125 118.803803 
L 342.4605 125.793704 
L 342.7085 124.282745 
L 342.9565 95.761405 
L 343.4525 146.617023 
L 343.7005 99.077907 
L 344.1965 122.70201 
L 344.4445 98.917524 
L 344.6925 100.862297 
L 344.9405 112.169123 
L 345.1885 116.068779 
L 345.4365 104.93215 
L 345.6845 121.613747 
L 345.9325 118.887146 
L 346.1805 140.979644 
L 346.4285 102.996013 
L 346.9245 119.265943 
L 347.1725 123.276426 
L 347.4205 100.831849 
L 347.6685 104.514524 
L 347.9165 114.330122 
L 348.1645 112.777787 
L 348.4125 104.983619 
L 348.6605 122.922852 
L 348.9085 104.827884 
L 349.1565 131.051742 
L 349.6525 110.215732 
L 349.9005 134.742888 
L 350.1485 112.788741 
L 350.3965 130.004566 
L 350.6445 116.71413 
L 351.1405 110.347271 
L 351.3885 105.012184 
L 351.8845 111.80091 
L 352.1325 122.708656 
L 352.3805 140.349973 
L 352.6285 127.259227 
L 352.8765 139.595541 
L 353.1245 112.761271 
L 353.3725 129.10165 
L 353.6205 117.388091 
L 353.8685 125.837748 
L 354.1165 124.952343 
L 354.3645 127.675396 
L 354.6125 166.431147 
L 355.1085 118.023065 
L 355.3565 105.960566 
L 355.8525 132.470641 
L 356.1005 114.648852 
L 356.3485 124.354479 
L 356.5965 123.289498 
L 356.8445 111.664493 
L 357.3405 121.28454 
L 357.5885 119.831593 
L 357.8365 116.287192 
L 358.0845 115.460113 
L 358.3325 120.328 
L 358.5805 120.991591 
L 358.8285 114.539735 
L 359.0765 120.340625 
L 359.3245 132.830196 
L 359.5725 114.008019 
L 359.8205 108.921698 
L 360.0685 115.71893 
L 360.3165 135.4371 
L 360.5645 130.158822 
L 360.8125 149.157912 
L 361.0605 130.335801 
L 361.3085 131.667828 
L 361.5565 108.375686 
L 361.8045 153.990456 
L 362.0525 146.570171 
L 362.3005 144.901972 
L 362.7965 111.764163 
L 363.0445 138.483251 
L 363.2925 130.332647 
L 363.5405 143.66333 
L 363.7885 118.450526 
L 364.0365 141.019337 
L 364.2845 132.078375 
L 364.5325 136.924061 
L 364.7805 135.035658 
L 365.0285 124.352278 
L 365.2765 140.067688 
L 365.5245 126.17166 
L 365.7725 133.69449 
L 366.0205 118.689326 
L 366.2685 143.326504 
L 366.5165 116.777535 
L 367.0125 136.197582 
L 367.2605 114.333735 
L 367.5085 136.828631 
L 367.7565 124.870592 
L 368.0045 119.677863 
L 368.2525 133.283924 
L 368.5005 127.842124 
L 368.7485 132.867364 
L 368.9965 124.215092 
L 369.2445 120.98267 
L 369.7405 135.998567 
L 369.9885 154.19159 
L 370.2365 149.962822 
L 370.4845 137.095474 
L 370.7325 130.439774 
L 370.9805 164.965104 
L 371.4765 124.289792 
L 371.7245 134.811998 
L 371.9725 130.814337 
L 372.2205 123.75249 
L 372.4685 138.758842 
L 372.7165 129.559322 
L 372.9645 133.263991 
L 373.2125 126.531311 
L 373.4605 123.113456 
L 373.7085 127.33662 
L 373.9565 133.667073 
L 374.2045 132.681709 
L 374.4525 124.484428 
L 374.9485 161.296138 
L 375.1965 132.743665 
L 375.4445 145.917847 
L 375.6925 122.449359 
L 375.9405 119.799609 
L 376.1885 141.90125 
L 376.4365 124.318174 
L 376.6845 148.511827 
L 376.9325 130.247738 
L 377.4285 147.797898 
L 377.6765 133.962004 
L 377.9245 141.119145 
L 378.4205 131.429886 
L 378.6685 131.810991 
L 378.9165 137.844456 
L 379.1645 135.462823 
L 379.4125 137.360077 
L 379.6605 131.813093 
L 379.9085 130.906282 
L 380.1565 142.971391 
L 380.4045 131.051122 
L 380.6525 138.201426 
L 380.9005 128.03688 
L 381.1485 151.29262 
L 381.3965 144.043368 
L 381.6445 142.952864 
L 381.8925 135.623553 
L 382.3885 130.030369 
L 382.6365 137.680986 
L 382.8845 134.016147 
L 383.1325 139.750338 
L 383.3805 139.048175 
L 383.6285 137.846017 
L 383.8765 143.58427 
L 384.1245 132.067002 
L 384.3725 150.40732 
L 384.6205 149.363928 
L 384.8685 144.666322 
L 385.1165 135.368871 
L 385.3645 151.728953 
L 385.6125 135.71114 
L 385.8605 151.235077 
L 386.1085 147.072546 
L 386.3565 176.226228 
L 386.6045 141.190993 
L 386.8525 141.747279 
L 387.1005 141.717619 
L 387.3485 161.805668 
L 387.5965 135.63832 
L 387.8445 167.748353 
L 388.0925 131.996887 
L 388.3405 158.91231 
L 388.5885 126.312494 
L 389.3325 152.631939 
L 389.5805 133.306752 
L 389.8285 155.417969 
L 390.3245 131.242075 
L 390.5725 126.663886 
L 390.8205 138.693906 
L 391.3165 146.017191 
L 391.5645 144.568544 
L 391.8125 144.645028 
L 392.0605 171.013899 
L 392.3085 129.302256 
L 392.5565 149.767095 
L 393.0525 140.803374 
L 393.3005 154.185628 
L 393.5485 150.669841 
L 393.7965 153.185568 
L 394.0445 146.154608 
L 394.2925 143.877497 
L 394.5405 172.574449 
L 394.7885 144.495585 
L 395.0365 179.529775 
L 395.5325 156.7822 
L 395.7805 159.779821 
L 396.0285 143.154101 
L 396.2765 171.812653 
L 396.5245 139.541753 
L 397.0205 151.767455 
L 397.2685 139.727916 
L 397.5165 144.644898 
L 397.7645 141.959804 
L 398.0125 161.027679 
L 398.2605 135.274743 
L 398.5085 171.623639 
L 398.7565 141.25613 
L 399.0045 148.930675 
L 399.2525 151.961768 
L 399.5005 151.323007 
L 399.7485 164.248786 
L 399.9965 187.396371 
L 400.2445 172.569271 
L 400.7405 136.360991 
L 401.2365 144.005727 
L 401.4845 145.612685 
L 401.7325 136.700117 
L 401.9805 146.472336 
L 402.2285 146.06302 
L 402.4765 145.258118 
L 402.7245 133.6783 
L 402.9725 148.142516 
L 403.2205 147.983215 
L 403.4685 156.193361 
L 403.7165 140.053579 
L 403.9645 167.012325 
L 404.4605 137.974661 
L 404.7085 146.150188 
L 404.9565 171.766091 
L 405.2045 172.266451 
L 405.4525 140.790492 
L 405.7005 149.283223 
L 405.9485 137.321999 
L 406.1965 143.953387 
L 406.4445 164.727092 
L 406.6925 146.603485 
L 406.9405 169.771913 
L 407.1885 154.555491 
L 407.4365 156.508778 
L 407.6845 145.832088 
L 407.9325 149.889799 
L 408.1805 141.626329 
L 408.4285 138.044136 
L 408.6765 144.65061 
L 408.9245 155.548785 
L 409.1725 148.760257 
L 409.4205 170.362074 
L 409.9165 139.325128 
L 410.1645 153.202605 
L 410.4125 138.145253 
L 410.6605 142.078102 
L 410.9085 150.956221 
L 411.1565 155.477946 
L 411.9005 138.574249 
L 412.3965 171.655114 
L 412.8925 148.142646 
L 413.1405 165.874307 
L 413.3885 172.309487 
L 413.6365 158.717298 
L 413.8845 152.662202 
L 414.1325 177.459983 
L 414.3805 135.681127 
L 414.6285 164.344315 
L 414.8765 145.264876 
L 415.1245 144.288354 
L 415.3725 162.846914 
L 415.8685 148.028905 
L 416.1165 169.693878 
L 416.6125 140.253378 
L 416.8605 148.662538 
L 417.1085 192.786867 
L 417.3565 141.404377 
L 417.8525 187.357788 
L 418.1005 187.760046 
L 418.3485 151.590144 
L 418.5965 158.776853 
L 418.8445 169.6797 
L 419.0925 160.709373 
L 419.3405 165.259148 
L 419.5885 152.9183 
L 419.8365 165.347511 
L 420.0845 163.961514 
L 420.3325 145.951218 
L 420.8285 177.21782 
L 421.0765 144.776216 
L 421.5725 150.849214 
L 421.8205 150.494044 
L 422.0685 152.227303 
L 422.3165 137.877736 
L 422.5645 167.177876 
L 422.8125 152.149898 
L 423.0605 154.592981 
L 423.3085 162.056991 
L 423.5565 141.725291 
L 423.8045 181.021495 
L 424.0525 151.75779 
L 424.3005 155.307882 
L 424.5485 178.182427 
L 424.7965 151.492279 
L 425.0445 147.401473 
L 425.5405 156.072687 
L 425.7885 169.875648 
L 426.0365 137.90649 
L 426.2845 158.771574 
L 426.5325 148.525098 
L 426.7805 150.64063 
L 427.0285 161.207958 
L 427.2765 141.576948 
L 427.5245 164.456832 
L 427.7725 155.33863 
L 428.0205 161.388176 
L 428.2685 142.541647 
L 428.5165 149.41719 
L 428.7645 181.19139 
L 429.0125 177.657428 
L 429.5085 151.569683 
L 429.7565 162.166565 
L 430.0045 149.040237 
L 430.7485 173.005911 
L 430.9965 149.852603 
L 431.2445 152.314007 
L 431.4925 145.91771 
L 431.7405 222.972769 
L 431.9885 163.856967 
L 432.2365 152.994594 
L 432.4845 162.928535 
L 432.7325 168.047807 
L 432.9805 146.183332 
L 433.2285 172.669039 
L 433.4765 148.556505 
L 433.7245 156.214779 
L 433.9725 155.883448 
L 434.2205 178.154456 
L 434.4685 152.401844 
L 434.7165 149.265594 
L 434.9645 149.678771 
L 435.2125 184.216116 
L 435.4605 158.931053 
L 435.7085 151.101954 
L 435.9565 155.726633 
L 436.2045 149.989766 
L 436.4525 156.718244 
L 436.7005 183.711228 
L 436.9485 184.306667 
L 437.1965 152.105119 
L 437.4445 152.471741 
L 437.6925 176.382847 
L 437.9405 141.99129 
L 438.1885 173.911751 
L 438.4365 183.507767 
L 438.6845 163.592025 
L 438.9325 170.142146 
L 439.1805 168.47847 
L 439.4285 164.330587 
L 439.6765 150.700973 
L 439.9245 146.393218 
L 440.1725 162.651657 
L 440.4205 161.618172 
L 440.6685 155.489252 
L 440.9165 154.311518 
L 441.1645 208.902842 
L 441.6605 164.174177 
L 441.9085 281.511931 
L 442.1565 161.911056 
L 442.4045 157.13594 
L 442.6525 158.422319 
L 442.9005 184.4484 
L 443.1485 155.505378 
L 443.3965 166.637507 
L 443.6445 142.417217 
L 443.8925 156.948994 
L 444.1405 104.161681 
L 444.3885 158.315139 
L 444.6365 156.465581 
L 444.8845 186.271708 
L 445.1325 145.5302 
L 445.3805 179.45988 
L 445.6285 181.76354 
L 445.8765 176.346545 
L 446.1245 176.015228 
L 446.6205 149.656184 
L 446.8685 146.760332 
L 447.1165 179.206924 
L 447.3645 161.643255 
L 447.6125 208.380053 
L 448.3565 157.86664 
L 448.6045 157.626808 
L 448.8525 155.701777 
L 449.1005 165.391363 
L 449.3485 152.420009 
L 449.5965 157.590694 
L 449.8445 183.332436 
L 450.0925 168.60331 
L 450.3405 173.968011 
L 450.5885 159.26478 
L 450.8365 196.509361 
L 451.0845 155.910324 
L 451.3325 195.427317 
L 451.5805 174.130495 
L 451.8285 167.076906 
L 452.0765 149.390139 
L 452.3245 219.091447 
L 452.8205 157.772484 
L 453.0685 166.324743 
L 453.3165 154.68086 
L 453.5645 159.240759 
L 453.8125 178.868461 
L 454.0605 163.701821 
L 454.3085 177.750222 
L 454.5565 150.252388 
L 454.8045 160.790517 
L 455.0525 160.069473 
L 455.3005 207.363196 
L 455.5485 154.366425 
L 455.7965 165.264341 
L 456.0445 153.672588 
L 456.2925 213.788344 
L 456.5405 163.287878 
L 456.7885 154.555428 
L 457.0365 158.223909 
L 457.2845 155.289119 
L 457.5325 164.272316 
L 457.7805 159.39519 
L 458.0285 58.287417 
L 458.2765 159.765546 
L 458.5245 181.56573 
L 458.7725 161.146773 
L 459.0205 165.254471 
L 459.2685 147.08877 
L 459.5165 171.467514 
L 459.7645 208.143261 
L 460.0125 171.795047 
L 460.2605 156.418092 
L 460.5085 171.920751 
L 460.7565 217.670731 
L 461.0045 168.69902 
L 461.2525 153.988424 
L 461.5005 155.8182 
L 461.7485 147.569733 
L 461.9965 159.888858 
L 462.2445 148.76456 
L 462.7405 189.812735 
L 462.9885 153.856515 
L 463.2365 172.285644 
L 463.4845 170.522061 
L 463.7325 161.312134 
L 463.9805 166.36327 
L 464.2285 176.551535 
L 464.4765 156.201521 
L 464.7245 172.690816 
L 464.9725 162.721019 
L 465.2205 164.219999 
L 465.4685 188.939043 
L 465.9645 168.692814 
L 466.2125 162.747055 
L 466.4605 162.546751 
L 466.7085 186.079873 
L 466.9565 153.449209 
L 467.2045 186.351757 
L 467.4525 157.227494 
L 467.7005 211.785288 
L 467.7005 211.785288 
" style="fill:none;stroke:#0000ff;stroke-linecap:square;stroke-width:0.5;"/>
   </g>
   <g id="patch_3">
    <path d="M 54.5325 23.14175 
L 500.9325 23.14175 
" style="fill:none;stroke:#000000;stroke-linecap:square;stroke-linejoin:miter;"/>
   </g>
   <g id="patch_4">
    <path d="M 500.9325 368.74175 
L 500.9325 23.14175 
" style="fill:none;stroke:#000000;stroke-linecap:square;stroke-linejoin:miter;"/>
   </g>
   <g id="patch_5">
    <path d="M 54.5325 368.74175 
L 500.9325 368.74175 
" style="fill:none;stroke:#000000;stroke-linecap:square;stroke-linejoin:miter;"/>
   </g>
   <g id="patch_6">
    <path d="M 54.5325 368.74175 
L 54.5325 23.14175 
" style="fill:none;stroke:#000000;stroke-linecap:square;stroke-linejoin:miter;"/>
   </g>
   <g id="matplotlib.axis_1">
    <g id="xtick_1">
     <g id="line2d_2">
      <defs>
       <path d="M 0 0 
L 0 -4 
" id="m395acc90d5" style="stroke:#000000;stroke-width:0.5;"/>
      </defs>
      <g>
       <use style="stroke:#000000;stroke-width:0.5;" x="54.5325" xlink:href="#m395acc90d5" y="368.74175"/>
      </g>
     </g>
     <g id="line2d_3">
      <defs>
       <path d="M 0 0 
L 0 4 
" id="m0e3a1f2e65" style="stroke:#000000;stroke-width:0.5;"/>
      </defs>
      <g>
       <use style="stroke:#000000;stroke-width:0.5;" x="54.5325" xlink:href="#m0e3a1f2e65" y="23.14175"/>
      </g>
     </g>
     <g id="text_1">
      <!-- 0 -->
      <defs>
       <path d="M 31.78125 66.40625 
Q 24.171875 66.40625 20.328125 58.90625 
Q 16.5 51.421875 16.5 36.375 
Q 16.5 21.390625 20.328125 13.890625 
Q 24.171875 6.390625 31.78125 6.390625 
Q 39.453125 6.390625 43.28125 13.890625 
Q 47.125 21.390625 47.125 36.375 
Q 47.125 51.421875 43.28125 58.90625 
Q 39.453125 66.40625 31.78125 66.40625 
M 31.78125 74.21875 
Q 44.046875 74.21875 50.515625 64.515625 
Q 56.984375 54.828125 56.984375 36.375 
Q 56.984375 17.96875 50.515625 8.265625 
Q 44.046875 -1.421875 31.78125 -1.421875 
Q 19.53125 -1.421875 13.0625 8.265625 
Q 6.59375 17.96875 6.59375 36.375 
Q 6.59375 54.828125 13.0625 64.515625 
Q 19.53125 74.21875 31.78125 74.21875 
" id="BitstreamVeraSans-Roman-30"/>
      </defs>
      <g transform="translate(50.715 381.859875)scale(0.12 -0.12)">
       <use xlink:href="#BitstreamVeraSans-Roman-30"/>
      </g>
     </g>
    </g>
    <g id="xtick_2">
     <g id="line2d_4">
      <g>
       <use style="stroke:#000000;stroke-width:0.5;" x="104.1325" xlink:href="#m395acc90d5" y="368.74175"/>
      </g>
     </g>
     <g id="line2d_5">
      <g>
       <use style="stroke:#000000;stroke-width:0.5;" x="104.1325" xlink:href="#m0e3a1f2e65" y="23.14175"/>
      </g>
     </g>
     <g id="text_2">
      <!-- 200 -->
      <defs>
       <path d="M 19.1875 8.296875 
L 53.609375 8.296875 
L 53.609375 0 
L 7.328125 0 
L 7.328125 8.296875 
Q 12.9375 14.109375 22.625 23.890625 
Q 32.328125 33.6875 34.8125 36.53125 
Q 39.546875 41.84375 41.421875 45.53125 
Q 43.3125 49.21875 43.3125 52.78125 
Q 43.3125 58.59375 39.234375 62.25 
Q 35.15625 65.921875 28.609375 65.921875 
Q 23.96875 65.921875 18.8125 64.3125 
Q 13.671875 62.703125 7.8125 59.421875 
L 7.8125 69.390625 
Q 13.765625 71.78125 18.9375 73 
Q 24.125 74.21875 28.421875 74.21875 
Q 39.75 74.21875 46.484375 68.546875 
Q 53.21875 62.890625 53.21875 53.421875 
Q 53.21875 48.921875 51.53125 44.890625 
Q 49.859375 40.875 45.40625 35.40625 
Q 44.1875 33.984375 37.640625 27.21875 
Q 31.109375 20.453125 19.1875 8.296875 
" id="BitstreamVeraSans-Roman-32"/>
      </defs>
      <g transform="translate(92.68 381.859875)scale(0.12 -0.12)">
       <use xlink:href="#BitstreamVeraSans-Roman-32"/>
       <use x="63.623046875" xlink:href="#BitstreamVeraSans-Roman-30"/>
       <use x="127.24609375" xlink:href="#BitstreamVeraSans-Roman-30"/>
      </g>
     </g>
    </g>
    <g id="xtick_3">
     <g id="line2d_6">
      <g>
       <use style="stroke:#000000;stroke-width:0.5;" x="153.7325" xlink:href="#m395acc90d5" y="368.74175"/>
      </g>
     </g>
     <g id="line2d_7">
      <g>
       <use style="stroke:#000000;stroke-width:0.5;" x="153.7325" xlink:href="#m0e3a1f2e65" y="23.14175"/>
      </g>
     </g>
     <g id="text_3">
      <!-- 400 -->
      <defs>
       <path d="M 37.796875 64.3125 
L 12.890625 25.390625 
L 37.796875 25.390625 
z
M 35.203125 72.90625 
L 47.609375 72.90625 
L 47.609375 25.390625 
L 58.015625 25.390625 
L 58.015625 17.1875 
L 47.609375 17.1875 
L 47.609375 0 
L 37.796875 0 
L 37.796875 17.1875 
L 4.890625 17.1875 
L 4.890625 26.703125 
z
" id="BitstreamVeraSans-Roman-34"/>
      </defs>
      <g transform="translate(142.28 381.859875)scale(0.12 -0.12)">
       <use xlink:href="#BitstreamVeraSans-Roman-34"/>
       <use x="63.623046875" xlink:href="#BitstreamVeraSans-Roman-30"/>
       <use x="127.24609375" xlink:href="#BitstreamVeraSans-Roman-30"/>
      </g>
     </g>
    </g>
    <g id="xtick_4">
     <g id="line2d_8">
      <g>
       <use style="stroke:#000000;stroke-width:0.5;" x="203.3325" xlink:href="#m395acc90d5" y="368.74175"/>
      </g>
     </g>
     <g id="line2d_9">
      <g>
       <use style="stroke:#000000;stroke-width:0.5;" x="203.3325" xlink:href="#m0e3a1f2e65" y="23.14175"/>
      </g>
     </g>
     <g id="text_4">
      <!-- 600 -->
      <defs>
       <path d="M 33.015625 40.375 
Q 26.375 40.375 22.484375 35.828125 
Q 18.609375 31.296875 18.609375 23.390625 
Q 18.609375 15.53125 22.484375 10.953125 
Q 26.375 6.390625 33.015625 6.390625 
Q 39.65625 6.390625 43.53125 10.953125 
Q 47.40625 15.53125 47.40625 23.390625 
Q 47.40625 31.296875 43.53125 35.828125 
Q 39.65625 40.375 33.015625 40.375 
M 52.59375 71.296875 
L 52.59375 62.3125 
Q 48.875 64.0625 45.09375 64.984375 
Q 41.3125 65.921875 37.59375 65.921875 
Q 27.828125 65.921875 22.671875 59.328125 
Q 17.53125 52.734375 16.796875 39.40625 
Q 19.671875 43.65625 24.015625 45.921875 
Q 28.375 48.1875 33.59375 48.1875 
Q 44.578125 48.1875 50.953125 41.515625 
Q 57.328125 34.859375 57.328125 23.390625 
Q 57.328125 12.15625 50.6875 5.359375 
Q 44.046875 -1.421875 33.015625 -1.421875 
Q 20.359375 -1.421875 13.671875 8.265625 
Q 6.984375 17.96875 6.984375 36.375 
Q 6.984375 53.65625 15.1875 63.9375 
Q 23.390625 74.21875 37.203125 74.21875 
Q 40.921875 74.21875 44.703125 73.484375 
Q 48.484375 72.75 52.59375 71.296875 
" id="BitstreamVeraSans-Roman-36"/>
      </defs>
      <g transform="translate(191.88 381.859875)scale(0.12 -0.12)">
       <use xlink:href="#BitstreamVeraSans-Roman-36"/>
       <use x="63.623046875" xlink:href="#BitstreamVeraSans-Roman-30"/>
       <use x="127.24609375" xlink:href="#BitstreamVeraSans-Roman-30"/>
      </g>
     </g>
    </g>
    <g id="xtick_5">
     <g id="line2d_10">
      <g>
       <use style="stroke:#000000;stroke-width:0.5;" x="252.9325" xlink:href="#m395acc90d5" y="368.74175"/>
      </g>
     </g>
     <g id="line2d_11">
      <g>
       <use style="stroke:#000000;stroke-width:0.5;" x="252.9325" xlink:href="#m0e3a1f2e65" y="23.14175"/>
      </g>
     </g>
     <g id="text_5">
      <!-- 800 -->
      <defs>
       <path d="M 31.78125 34.625 
Q 24.75 34.625 20.71875 30.859375 
Q 16.703125 27.09375 16.703125 20.515625 
Q 16.703125 13.921875 20.71875 10.15625 
Q 24.75 6.390625 31.78125 6.390625 
Q 38.8125 6.390625 42.859375 10.171875 
Q 46.921875 13.96875 46.921875 20.515625 
Q 46.921875 27.09375 42.890625 30.859375 
Q 38.875 34.625 31.78125 34.625 
M 21.921875 38.8125 
Q 15.578125 40.375 12.03125 44.71875 
Q 8.5 49.078125 8.5 55.328125 
Q 8.5 64.0625 14.71875 69.140625 
Q 20.953125 74.21875 31.78125 74.21875 
Q 42.671875 74.21875 48.875 69.140625 
Q 55.078125 64.0625 55.078125 55.328125 
Q 55.078125 49.078125 51.53125 44.71875 
Q 48 40.375 41.703125 38.8125 
Q 48.828125 37.15625 52.796875 32.3125 
Q 56.78125 27.484375 56.78125 20.515625 
Q 56.78125 9.90625 50.3125 4.234375 
Q 43.84375 -1.421875 31.78125 -1.421875 
Q 19.734375 -1.421875 13.25 4.234375 
Q 6.78125 9.90625 6.78125 20.515625 
Q 6.78125 27.484375 10.78125 32.3125 
Q 14.796875 37.15625 21.921875 38.8125 
M 18.3125 54.390625 
Q 18.3125 48.734375 21.84375 45.5625 
Q 25.390625 42.390625 31.78125 42.390625 
Q 38.140625 42.390625 41.71875 45.5625 
Q 45.3125 48.734375 45.3125 54.390625 
Q 45.3125 60.0625 41.71875 63.234375 
Q 38.140625 66.40625 31.78125 66.40625 
Q 25.390625 66.40625 21.84375 63.234375 
Q 18.3125 60.0625 18.3125 54.390625 
" id="BitstreamVeraSans-Roman-38"/>
      </defs>
      <g transform="translate(241.48 381.859875)scale(0.12 -0.12)">
       <use xlink:href="#BitstreamVeraSans-Roman-38"/>
       <use x="63.623046875" xlink:href="#BitstreamVeraSans-Roman-30"/>
       <use x="127.24609375" xlink:href="#BitstreamVeraSans-Roman-30"/>
      </g>
     </g>
    </g>
    <g id="xtick_6">
     <g id="line2d_12">
      <g>
       <use style="stroke:#000000;stroke-width:0.5;" x="302.5325" xlink:href="#m395acc90d5" y="368.74175"/>
      </g>
     </g>
     <g id="line2d_13">
      <g>
       <use style="stroke:#000000;stroke-width:0.5;" x="302.5325" xlink:href="#m0e3a1f2e65" y="23.14175"/>
      </g>
     </g>
     <g id="text_6">
      <!-- 1000 -->
      <defs>
       <path d="M 12.40625 8.296875 
L 28.515625 8.296875 
L 28.515625 63.921875 
L 10.984375 60.40625 
L 10.984375 69.390625 
L 28.421875 72.90625 
L 38.28125 72.90625 
L 38.28125 8.296875 
L 54.390625 8.296875 
L 54.390625 0 
L 12.40625 0 
z
" id="BitstreamVeraSans-Roman-31"/>
      </defs>
      <g transform="translate(287.2625 381.859875)scale(0.12 -0.12)">
       <use xlink:href="#BitstreamVeraSans-Roman-31"/>
       <use x="63.623046875" xlink:href="#BitstreamVeraSans-Roman-30"/>
       <use x="127.24609375" xlink:href="#BitstreamVeraSans-Roman-30"/>
       <use x="190.869140625" xlink:href="#BitstreamVeraSans-Roman-30"/>
      </g>
     </g>
    </g>
    <g id="xtick_7">
     <g id="line2d_14">
      <g>
       <use style="stroke:#000000;stroke-width:0.5;" x="352.1325" xlink:href="#m395acc90d5" y="368.74175"/>
      </g>
     </g>
     <g id="line2d_15">
      <g>
       <use style="stroke:#000000;stroke-width:0.5;" x="352.1325" xlink:href="#m0e3a1f2e65" y="23.14175"/>
      </g>
     </g>
     <g id="text_7">
      <!-- 1200 -->
      <g transform="translate(336.8625 381.859875)scale(0.12 -0.12)">
       <use xlink:href="#BitstreamVeraSans-Roman-31"/>
       <use x="63.623046875" xlink:href="#BitstreamVeraSans-Roman-32"/>
       <use x="127.24609375" xlink:href="#BitstreamVeraSans-Roman-30"/>
       <use x="190.869140625" xlink:href="#BitstreamVeraSans-Roman-30"/>
      </g>
     </g>
    </g>
    <g id="xtick_8">
     <g id="line2d_16">
      <g>
       <use style="stroke:#000000;stroke-width:0.5;" x="401.7325" xlink:href="#m395acc90d5" y="368.74175"/>
      </g>
     </g>
     <g id="line2d_17">
      <g>
       <use style="stroke:#000000;stroke-width:0.5;" x="401.7325" xlink:href="#m0e3a1f2e65" y="23.14175"/>
      </g>
     </g>
     <g id="text_8">
      <!-- 1400 -->
      <g transform="translate(386.4625 381.859875)scale(0.12 -0.12)">
       <use xlink:href="#BitstreamVeraSans-Roman-31"/>
       <use x="63.623046875" xlink:href="#BitstreamVeraSans-Roman-34"/>
       <use x="127.24609375" xlink:href="#BitstreamVeraSans-Roman-30"/>
       <use x="190.869140625" xlink:href="#BitstreamVeraSans-Roman-30"/>
      </g>
     </g>
    </g>
    <g id="xtick_9">
     <g id="line2d_18">
      <g>
       <use style="stroke:#000000;stroke-width:0.5;" x="451.3325" xlink:href="#m395acc90d5" y="368.74175"/>
      </g>
     </g>
     <g id="line2d_19">
      <g>
       <use style="stroke:#000000;stroke-width:0.5;" x="451.3325" xlink:href="#m0e3a1f2e65" y="23.14175"/>
      </g>
     </g>
     <g id="text_9">
      <!-- 1600 -->
      <g transform="translate(436.0625 381.859875)scale(0.12 -0.12)">
       <use xlink:href="#BitstreamVeraSans-Roman-31"/>
       <use x="63.623046875" xlink:href="#BitstreamVeraSans-Roman-36"/>
       <use x="127.24609375" xlink:href="#BitstreamVeraSans-Roman-30"/>
       <use x="190.869140625" xlink:href="#BitstreamVeraSans-Roman-30"/>
      </g>
     </g>
    </g>
    <g id="xtick_10">
     <g id="line2d_20">
      <g>
       <use style="stroke:#000000;stroke-width:0.5;" x="500.9325" xlink:href="#m395acc90d5" y="368.74175"/>
      </g>
     </g>
     <g id="line2d_21">
      <g>
       <use style="stroke:#000000;stroke-width:0.5;" x="500.9325" xlink:href="#m0e3a1f2e65" y="23.14175"/>
      </g>
     </g>
     <g id="text_10">
      <!-- 1800 -->
      <g transform="translate(485.6625 381.859875)scale(0.12 -0.12)">
       <use xlink:href="#BitstreamVeraSans-Roman-31"/>
       <use x="63.623046875" xlink:href="#BitstreamVeraSans-Roman-38"/>
       <use x="127.24609375" xlink:href="#BitstreamVeraSans-Roman-30"/>
       <use x="190.869140625" xlink:href="#BitstreamVeraSans-Roman-30"/>
      </g>
     </g>
    </g>
    <g id="text_11">
     <!-- episodes -->
     <defs>
      <path d="M 30.609375 48.390625 
Q 23.390625 48.390625 19.1875 42.75 
Q 14.984375 37.109375 14.984375 27.296875 
Q 14.984375 17.484375 19.15625 11.84375 
Q 23.34375 6.203125 30.609375 6.203125 
Q 37.796875 6.203125 41.984375 11.859375 
Q 46.1875 17.53125 46.1875 27.296875 
Q 46.1875 37.015625 41.984375 42.703125 
Q 37.796875 48.390625 30.609375 48.390625 
M 30.609375 56 
Q 42.328125 56 49.015625 48.375 
Q 55.71875 40.765625 55.71875 27.296875 
Q 55.71875 13.875 49.015625 6.21875 
Q 42.328125 -1.421875 30.609375 -1.421875 
Q 18.84375 -1.421875 12.171875 6.21875 
Q 5.515625 13.875 5.515625 27.296875 
Q 5.515625 40.765625 12.171875 48.375 
Q 18.84375 56 30.609375 56 
" id="BitstreamVeraSans-Roman-6f"/>
      <path d="M 44.28125 53.078125 
L 44.28125 44.578125 
Q 40.484375 46.53125 36.375 47.5 
Q 32.28125 48.484375 27.875 48.484375 
Q 21.1875 48.484375 17.84375 46.4375 
Q 14.5 44.390625 14.5 40.28125 
Q 14.5 37.15625 16.890625 35.375 
Q 19.28125 33.59375 26.515625 31.984375 
L 29.59375 31.296875 
Q 39.15625 29.25 43.1875 25.515625 
Q 47.21875 21.78125 47.21875 15.09375 
Q 47.21875 7.46875 41.1875 3.015625 
Q 35.15625 -1.421875 24.609375 -1.421875 
Q 20.21875 -1.421875 15.453125 -0.5625 
Q 10.6875 0.296875 5.421875 2 
L 5.421875 11.28125 
Q 10.40625 8.6875 15.234375 7.390625 
Q 20.0625 6.109375 24.8125 6.109375 
Q 31.15625 6.109375 34.5625 8.28125 
Q 37.984375 10.453125 37.984375 14.40625 
Q 37.984375 18.0625 35.515625 20.015625 
Q 33.0625 21.96875 24.703125 23.78125 
L 21.578125 24.515625 
Q 13.234375 26.265625 9.515625 29.90625 
Q 5.8125 33.546875 5.8125 39.890625 
Q 5.8125 47.609375 11.28125 51.796875 
Q 16.75 56 26.8125 56 
Q 31.78125 56 36.171875 55.265625 
Q 40.578125 54.546875 44.28125 53.078125 
" id="BitstreamVeraSans-Roman-73"/>
      <path d="M 45.40625 46.390625 
L 45.40625 75.984375 
L 54.390625 75.984375 
L 54.390625 0 
L 45.40625 0 
L 45.40625 8.203125 
Q 42.578125 3.328125 38.25 0.953125 
Q 33.9375 -1.421875 27.875 -1.421875 
Q 17.96875 -1.421875 11.734375 6.484375 
Q 5.515625 14.40625 5.515625 27.296875 
Q 5.515625 40.1875 11.734375 48.09375 
Q 17.96875 56 27.875 56 
Q 33.9375 56 38.25 53.625 
Q 42.578125 51.265625 45.40625 46.390625 
M 14.796875 27.296875 
Q 14.796875 17.390625 18.875 11.75 
Q 22.953125 6.109375 30.078125 6.109375 
Q 37.203125 6.109375 41.296875 11.75 
Q 45.40625 17.390625 45.40625 27.296875 
Q 45.40625 37.203125 41.296875 42.84375 
Q 37.203125 48.484375 30.078125 48.484375 
Q 22.953125 48.484375 18.875 42.84375 
Q 14.796875 37.203125 14.796875 27.296875 
" id="BitstreamVeraSans-Roman-64"/>
      <path d="M 56.203125 29.59375 
L 56.203125 25.203125 
L 14.890625 25.203125 
Q 15.484375 15.921875 20.484375 11.0625 
Q 25.484375 6.203125 34.421875 6.203125 
Q 39.59375 6.203125 44.453125 7.46875 
Q 49.3125 8.734375 54.109375 11.28125 
L 54.109375 2.78125 
Q 49.265625 0.734375 44.1875 -0.34375 
Q 39.109375 -1.421875 33.890625 -1.421875 
Q 20.796875 -1.421875 13.15625 6.1875 
Q 5.515625 13.8125 5.515625 26.8125 
Q 5.515625 40.234375 12.765625 48.109375 
Q 20.015625 56 32.328125 56 
Q 43.359375 56 49.78125 48.890625 
Q 56.203125 41.796875 56.203125 29.59375 
M 47.21875 32.234375 
Q 47.125 39.59375 43.09375 43.984375 
Q 39.0625 48.390625 32.421875 48.390625 
Q 24.90625 48.390625 20.390625 44.140625 
Q 15.875 39.890625 15.1875 32.171875 
z
" id="BitstreamVeraSans-Roman-65"/>
      <path d="M 9.421875 54.6875 
L 18.40625 54.6875 
L 18.40625 0 
L 9.421875 0 
z
M 9.421875 75.984375 
L 18.40625 75.984375 
L 18.40625 64.59375 
L 9.421875 64.59375 
z
" id="BitstreamVeraSans-Roman-69"/>
      <path d="M 18.109375 8.203125 
L 18.109375 -20.796875 
L 9.078125 -20.796875 
L 9.078125 54.6875 
L 18.109375 54.6875 
L 18.109375 46.390625 
Q 20.953125 51.265625 25.265625 53.625 
Q 29.59375 56 35.59375 56 
Q 45.5625 56 51.78125 48.09375 
Q 58.015625 40.1875 58.015625 27.296875 
Q 58.015625 14.40625 51.78125 6.484375 
Q 45.5625 -1.421875 35.59375 -1.421875 
Q 29.59375 -1.421875 25.265625 0.953125 
Q 20.953125 3.328125 18.109375 8.203125 
M 48.6875 27.296875 
Q 48.6875 37.203125 44.609375 42.84375 
Q 40.53125 48.484375 33.40625 48.484375 
Q 26.265625 48.484375 22.1875 42.84375 
Q 18.109375 37.203125 18.109375 27.296875 
Q 18.109375 17.390625 22.1875 11.75 
Q 26.265625 6.109375 33.40625 6.109375 
Q 40.53125 6.109375 44.609375 11.75 
Q 48.6875 17.390625 48.6875 27.296875 
" id="BitstreamVeraSans-Roman-70"/>
     </defs>
     <g transform="translate(251.14125 398.473625)scale(0.12 -0.12)">
      <use xlink:href="#BitstreamVeraSans-Roman-65"/>
      <use x="61.5234375" xlink:href="#BitstreamVeraSans-Roman-70"/>
      <use x="125.0" xlink:href="#BitstreamVeraSans-Roman-69"/>
      <use x="152.783203125" xlink:href="#BitstreamVeraSans-Roman-73"/>
      <use x="204.8828125" xlink:href="#BitstreamVeraSans-Roman-6f"/>
      <use x="266.064453125" xlink:href="#BitstreamVeraSans-Roman-64"/>
      <use x="329.541015625" xlink:href="#BitstreamVeraSans-Roman-65"/>
      <use x="391.064453125" xlink:href="#BitstreamVeraSans-Roman-73"/>
     </g>
    </g>
   </g>
   <g id="matplotlib.axis_2">
    <g id="ytick_1">
     <g id="line2d_22">
      <defs>
       <path d="M 0 0 
L 4 0 
" id="m46d7ded27b" style="stroke:#000000;stroke-width:0.5;"/>
      </defs>
      <g>
       <use style="stroke:#000000;stroke-width:0.5;" x="54.5325" xlink:href="#m46d7ded27b" y="368.74175"/>
      </g>
     </g>
     <g id="line2d_23">
      <defs>
       <path d="M 0 0 
L -4 0 
" id="m1c5d6d694b" style="stroke:#000000;stroke-width:0.5;"/>
      </defs>
      <g>
       <use style="stroke:#000000;stroke-width:0.5;" x="500.9325" xlink:href="#m1c5d6d694b" y="368.74175"/>
      </g>
     </g>
     <g id="text_12">
      <!-- 0.08 -->
      <defs>
       <path d="M 10.6875 12.40625 
L 21 12.40625 
L 21 0 
L 10.6875 0 
z
" id="BitstreamVeraSans-Roman-2e"/>
      </defs>
      <g transform="translate(23.81375 372.053)scale(0.12 -0.12)">
       <use xlink:href="#BitstreamVeraSans-Roman-30"/>
       <use x="63.623046875" xlink:href="#BitstreamVeraSans-Roman-2e"/>
       <use x="95.41015625" xlink:href="#BitstreamVeraSans-Roman-30"/>
       <use x="159.033203125" xlink:href="#BitstreamVeraSans-Roman-38"/>
      </g>
     </g>
    </g>
    <g id="ytick_2">
     <g id="line2d_24">
      <g>
       <use style="stroke:#000000;stroke-width:0.5;" x="54.5325" xlink:href="#m46d7ded27b" y="325.54175"/>
      </g>
     </g>
     <g id="line2d_25">
      <g>
       <use style="stroke:#000000;stroke-width:0.5;" x="500.9325" xlink:href="#m1c5d6d694b" y="325.54175"/>
      </g>
     </g>
     <g id="text_13">
      <!-- 0.10 -->
      <g transform="translate(23.81375 328.853)scale(0.12 -0.12)">
       <use xlink:href="#BitstreamVeraSans-Roman-30"/>
       <use x="63.623046875" xlink:href="#BitstreamVeraSans-Roman-2e"/>
       <use x="95.41015625" xlink:href="#BitstreamVeraSans-Roman-31"/>
       <use x="159.033203125" xlink:href="#BitstreamVeraSans-Roman-30"/>
      </g>
     </g>
    </g>
    <g id="ytick_3">
     <g id="line2d_26">
      <g>
       <use style="stroke:#000000;stroke-width:0.5;" x="54.5325" xlink:href="#m46d7ded27b" y="282.34175"/>
      </g>
     </g>
     <g id="line2d_27">
      <g>
       <use style="stroke:#000000;stroke-width:0.5;" x="500.9325" xlink:href="#m1c5d6d694b" y="282.34175"/>
      </g>
     </g>
     <g id="text_14">
      <!-- 0.12 -->
      <g transform="translate(23.81375 285.653)scale(0.12 -0.12)">
       <use xlink:href="#BitstreamVeraSans-Roman-30"/>
       <use x="63.623046875" xlink:href="#BitstreamVeraSans-Roman-2e"/>
       <use x="95.41015625" xlink:href="#BitstreamVeraSans-Roman-31"/>
       <use x="159.033203125" xlink:href="#BitstreamVeraSans-Roman-32"/>
      </g>
     </g>
    </g>
    <g id="ytick_4">
     <g id="line2d_28">
      <g>
       <use style="stroke:#000000;stroke-width:0.5;" x="54.5325" xlink:href="#m46d7ded27b" y="239.14175"/>
      </g>
     </g>
     <g id="line2d_29">
      <g>
       <use style="stroke:#000000;stroke-width:0.5;" x="500.9325" xlink:href="#m1c5d6d694b" y="239.14175"/>
      </g>
     </g>
     <g id="text_15">
      <!-- 0.14 -->
      <g transform="translate(23.81375 242.453)scale(0.12 -0.12)">
       <use xlink:href="#BitstreamVeraSans-Roman-30"/>
       <use x="63.623046875" xlink:href="#BitstreamVeraSans-Roman-2e"/>
       <use x="95.41015625" xlink:href="#BitstreamVeraSans-Roman-31"/>
       <use x="159.033203125" xlink:href="#BitstreamVeraSans-Roman-34"/>
      </g>
     </g>
    </g>
    <g id="ytick_5">
     <g id="line2d_30">
      <g>
       <use style="stroke:#000000;stroke-width:0.5;" x="54.5325" xlink:href="#m46d7ded27b" y="195.94175"/>
      </g>
     </g>
     <g id="line2d_31">
      <g>
       <use style="stroke:#000000;stroke-width:0.5;" x="500.9325" xlink:href="#m1c5d6d694b" y="195.94175"/>
      </g>
     </g>
     <g id="text_16">
      <!-- 0.16 -->
      <g transform="translate(23.81375 199.253)scale(0.12 -0.12)">
       <use xlink:href="#BitstreamVeraSans-Roman-30"/>
       <use x="63.623046875" xlink:href="#BitstreamVeraSans-Roman-2e"/>
       <use x="95.41015625" xlink:href="#BitstreamVeraSans-Roman-31"/>
       <use x="159.033203125" xlink:href="#BitstreamVeraSans-Roman-36"/>
      </g>
     </g>
    </g>
    <g id="ytick_6">
     <g id="line2d_32">
      <g>
       <use style="stroke:#000000;stroke-width:0.5;" x="54.5325" xlink:href="#m46d7ded27b" y="152.74175"/>
      </g>
     </g>
     <g id="line2d_33">
      <g>
       <use style="stroke:#000000;stroke-width:0.5;" x="500.9325" xlink:href="#m1c5d6d694b" y="152.74175"/>
      </g>
     </g>
     <g id="text_17">
      <!-- 0.18 -->
      <g transform="translate(23.81375 156.053)scale(0.12 -0.12)">
       <use xlink:href="#BitstreamVeraSans-Roman-30"/>
       <use x="63.623046875" xlink:href="#BitstreamVeraSans-Roman-2e"/>
       <use x="95.41015625" xlink:href="#BitstreamVeraSans-Roman-31"/>
       <use x="159.033203125" xlink:href="#BitstreamVeraSans-Roman-38"/>
      </g>
     </g>
    </g>
    <g id="ytick_7">
     <g id="line2d_34">
      <g>
       <use style="stroke:#000000;stroke-width:0.5;" x="54.5325" xlink:href="#m46d7ded27b" y="109.54175"/>
      </g>
     </g>
     <g id="line2d_35">
      <g>
       <use style="stroke:#000000;stroke-width:0.5;" x="500.9325" xlink:href="#m1c5d6d694b" y="109.54175"/>
      </g>
     </g>
     <g id="text_18">
      <!-- 0.20 -->
      <g transform="translate(23.81375 112.853)scale(0.12 -0.12)">
       <use xlink:href="#BitstreamVeraSans-Roman-30"/>
       <use x="63.623046875" xlink:href="#BitstreamVeraSans-Roman-2e"/>
       <use x="95.41015625" xlink:href="#BitstreamVeraSans-Roman-32"/>
       <use x="159.033203125" xlink:href="#BitstreamVeraSans-Roman-30"/>
      </g>
     </g>
    </g>
    <g id="ytick_8">
     <g id="line2d_36">
      <g>
       <use style="stroke:#000000;stroke-width:0.5;" x="54.5325" xlink:href="#m46d7ded27b" y="66.34175"/>
      </g>
     </g>
     <g id="line2d_37">
      <g>
       <use style="stroke:#000000;stroke-width:0.5;" x="500.9325" xlink:href="#m1c5d6d694b" y="66.34175"/>
      </g>
     </g>
     <g id="text_19">
      <!-- 0.22 -->
      <g transform="translate(23.81375 69.653)scale(0.12 -0.12)">
       <use xlink:href="#BitstreamVeraSans-Roman-30"/>
       <use x="63.623046875" xlink:href="#BitstreamVeraSans-Roman-2e"/>
       <use x="95.41015625" xlink:href="#BitstreamVeraSans-Roman-32"/>
       <use x="159.033203125" xlink:href="#BitstreamVeraSans-Roman-32"/>
      </g>
     </g>
    </g>
    <g id="ytick_9">
     <g id="line2d_38">
      <g>
       <use style="stroke:#000000;stroke-width:0.5;" x="54.5325" xlink:href="#m46d7ded27b" y="23.14175"/>
      </g>
     </g>
     <g id="line2d_39">
      <g>
       <use style="stroke:#000000;stroke-width:0.5;" x="500.9325" xlink:href="#m1c5d6d694b" y="23.14175"/>
      </g>
     </g>
     <g id="text_20">
      <!-- 0.24 -->
      <g transform="translate(23.81375 26.453)scale(0.12 -0.12)">
       <use xlink:href="#BitstreamVeraSans-Roman-30"/>
       <use x="63.623046875" xlink:href="#BitstreamVeraSans-Roman-2e"/>
       <use x="95.41015625" xlink:href="#BitstreamVeraSans-Roman-32"/>
       <use x="159.033203125" xlink:href="#BitstreamVeraSans-Roman-34"/>
      </g>
     </g>
    </g>
    <g id="text_21">
     <!-- average maxQ -->
     <defs>
      <path id="BitstreamVeraSans-Roman-20"/>
      <path d="M 52 44.1875 
Q 55.375 50.25 60.0625 53.125 
Q 64.75 56 71.09375 56 
Q 79.640625 56 84.28125 50.015625 
Q 88.921875 44.046875 88.921875 33.015625 
L 88.921875 0 
L 79.890625 0 
L 79.890625 32.71875 
Q 79.890625 40.578125 77.09375 44.375 
Q 74.3125 48.1875 68.609375 48.1875 
Q 61.625 48.1875 57.5625 43.546875 
Q 53.515625 38.921875 53.515625 30.90625 
L 53.515625 0 
L 44.484375 0 
L 44.484375 32.71875 
Q 44.484375 40.625 41.703125 44.40625 
Q 38.921875 48.1875 33.109375 48.1875 
Q 26.21875 48.1875 22.15625 43.53125 
Q 18.109375 38.875 18.109375 30.90625 
L 18.109375 0 
L 9.078125 0 
L 9.078125 54.6875 
L 18.109375 54.6875 
L 18.109375 46.1875 
Q 21.1875 51.21875 25.484375 53.609375 
Q 29.78125 56 35.6875 56 
Q 41.65625 56 45.828125 52.96875 
Q 50 49.953125 52 44.1875 
" id="BitstreamVeraSans-Roman-6d"/>
      <path d="M 54.890625 54.6875 
L 35.109375 28.078125 
L 55.90625 0 
L 45.3125 0 
L 29.390625 21.484375 
L 13.484375 0 
L 2.875 0 
L 24.125 28.609375 
L 4.6875 54.6875 
L 15.28125 54.6875 
L 29.78125 35.203125 
L 44.28125 54.6875 
z
" id="BitstreamVeraSans-Roman-78"/>
      <path d="M 34.28125 27.484375 
Q 23.390625 27.484375 19.1875 25 
Q 14.984375 22.515625 14.984375 16.5 
Q 14.984375 11.71875 18.140625 8.90625 
Q 21.296875 6.109375 26.703125 6.109375 
Q 34.1875 6.109375 38.703125 11.40625 
Q 43.21875 16.703125 43.21875 25.484375 
L 43.21875 27.484375 
z
M 52.203125 31.203125 
L 52.203125 0 
L 43.21875 0 
L 43.21875 8.296875 
Q 40.140625 3.328125 35.546875 0.953125 
Q 30.953125 -1.421875 24.3125 -1.421875 
Q 15.921875 -1.421875 10.953125 3.296875 
Q 6 8.015625 6 15.921875 
Q 6 25.140625 12.171875 29.828125 
Q 18.359375 34.515625 30.609375 34.515625 
L 43.21875 34.515625 
L 43.21875 35.40625 
Q 43.21875 41.609375 39.140625 45 
Q 35.0625 48.390625 27.6875 48.390625 
Q 23 48.390625 18.546875 47.265625 
Q 14.109375 46.140625 10.015625 43.890625 
L 10.015625 52.203125 
Q 14.9375 54.109375 19.578125 55.046875 
Q 24.21875 56 28.609375 56 
Q 40.484375 56 46.34375 49.84375 
Q 52.203125 43.703125 52.203125 31.203125 
" id="BitstreamVeraSans-Roman-61"/>
      <path d="M 2.984375 54.6875 
L 12.5 54.6875 
L 29.59375 8.796875 
L 46.6875 54.6875 
L 56.203125 54.6875 
L 35.6875 0 
L 23.484375 0 
z
" id="BitstreamVeraSans-Roman-76"/>
      <path d="M 41.109375 46.296875 
Q 39.59375 47.171875 37.8125 47.578125 
Q 36.03125 48 33.890625 48 
Q 26.265625 48 22.1875 43.046875 
Q 18.109375 38.09375 18.109375 28.8125 
L 18.109375 0 
L 9.078125 0 
L 9.078125 54.6875 
L 18.109375 54.6875 
L 18.109375 46.1875 
Q 20.953125 51.171875 25.484375 53.578125 
Q 30.03125 56 36.53125 56 
Q 37.453125 56 38.578125 55.875 
Q 39.703125 55.765625 41.0625 55.515625 
z
" id="BitstreamVeraSans-Roman-72"/>
      <path d="M 39.40625 66.21875 
Q 28.65625 66.21875 22.328125 58.203125 
Q 16.015625 50.203125 16.015625 36.375 
Q 16.015625 22.609375 22.328125 14.59375 
Q 28.65625 6.59375 39.40625 6.59375 
Q 50.140625 6.59375 56.421875 14.59375 
Q 62.703125 22.609375 62.703125 36.375 
Q 62.703125 50.203125 56.421875 58.203125 
Q 50.140625 66.21875 39.40625 66.21875 
M 53.21875 1.3125 
L 66.21875 -12.890625 
L 54.296875 -12.890625 
L 43.5 -1.21875 
Q 41.890625 -1.3125 41.03125 -1.359375 
Q 40.1875 -1.421875 39.40625 -1.421875 
Q 24.03125 -1.421875 14.8125 8.859375 
Q 5.609375 19.140625 5.609375 36.375 
Q 5.609375 53.65625 14.8125 63.9375 
Q 24.03125 74.21875 39.40625 74.21875 
Q 54.734375 74.21875 63.90625 63.9375 
Q 73.09375 53.65625 73.09375 36.375 
Q 73.09375 23.6875 67.984375 14.640625 
Q 62.890625 5.609375 53.21875 1.3125 
" id="BitstreamVeraSans-Roman-51"/>
      <path d="M 45.40625 27.984375 
Q 45.40625 37.75 41.375 43.109375 
Q 37.359375 48.484375 30.078125 48.484375 
Q 22.859375 48.484375 18.828125 43.109375 
Q 14.796875 37.75 14.796875 27.984375 
Q 14.796875 18.265625 18.828125 12.890625 
Q 22.859375 7.515625 30.078125 7.515625 
Q 37.359375 7.515625 41.375 12.890625 
Q 45.40625 18.265625 45.40625 27.984375 
M 54.390625 6.78125 
Q 54.390625 -7.171875 48.1875 -13.984375 
Q 42 -20.796875 29.203125 -20.796875 
Q 24.46875 -20.796875 20.265625 -20.09375 
Q 16.0625 -19.390625 12.109375 -17.921875 
L 12.109375 -9.1875 
Q 16.0625 -11.328125 19.921875 -12.34375 
Q 23.78125 -13.375 27.78125 -13.375 
Q 36.625 -13.375 41.015625 -8.765625 
Q 45.40625 -4.15625 45.40625 5.171875 
L 45.40625 9.625 
Q 42.625 4.78125 38.28125 2.390625 
Q 33.9375 0 27.875 0 
Q 17.828125 0 11.671875 7.65625 
Q 5.515625 15.328125 5.515625 27.984375 
Q 5.515625 40.671875 11.671875 48.328125 
Q 17.828125 56 27.875 56 
Q 33.9375 56 38.28125 53.609375 
Q 42.625 51.21875 45.40625 46.390625 
L 45.40625 54.6875 
L 54.390625 54.6875 
z
" id="BitstreamVeraSans-Roman-67"/>
     </defs>
     <g transform="translate(16.318125 240.208625)rotate(-90.0)scale(0.12 -0.12)">
      <use xlink:href="#BitstreamVeraSans-Roman-61"/>
      <use x="61.279296875" xlink:href="#BitstreamVeraSans-Roman-76"/>
      <use x="120.458984375" xlink:href="#BitstreamVeraSans-Roman-65"/>
      <use x="181.982421875" xlink:href="#BitstreamVeraSans-Roman-72"/>
      <use x="223.095703125" xlink:href="#BitstreamVeraSans-Roman-61"/>
      <use x="284.375" xlink:href="#BitstreamVeraSans-Roman-67"/>
      <use x="347.8515625" xlink:href="#BitstreamVeraSans-Roman-65"/>
      <use x="409.375" xlink:href="#BitstreamVeraSans-Roman-20"/>
      <use x="441.162109375" xlink:href="#BitstreamVeraSans-Roman-6d"/>
      <use x="538.57421875" xlink:href="#BitstreamVeraSans-Roman-61"/>
      <use x="599.853515625" xlink:href="#BitstreamVeraSans-Roman-78"/>
      <use x="659.033203125" xlink:href="#BitstreamVeraSans-Roman-51"/>
     </g>
    </g>
   </g>
   <g id="text_22">
    <!-- Average maxQ per episode, joint6 -->
    <defs>
     <path d="M 54.890625 33.015625 
L 54.890625 0 
L 45.90625 0 
L 45.90625 32.71875 
Q 45.90625 40.484375 42.875 44.328125 
Q 39.84375 48.1875 33.796875 48.1875 
Q 26.515625 48.1875 22.3125 43.546875 
Q 18.109375 38.921875 18.109375 30.90625 
L 18.109375 0 
L 9.078125 0 
L 9.078125 54.6875 
L 18.109375 54.6875 
L 18.109375 46.1875 
Q 21.34375 51.125 25.703125 53.5625 
Q 30.078125 56 35.796875 56 
Q 45.21875 56 50.046875 50.171875 
Q 54.890625 44.34375 54.890625 33.015625 
" id="BitstreamVeraSans-Roman-6e"/>
     <path d="M 9.421875 54.6875 
L 18.40625 54.6875 
L 18.40625 -0.984375 
Q 18.40625 -11.421875 14.421875 -16.109375 
Q 10.453125 -20.796875 1.609375 -20.796875 
L -1.8125 -20.796875 
L -1.8125 -13.1875 
L 0.59375 -13.1875 
Q 5.71875 -13.1875 7.5625 -10.8125 
Q 9.421875 -8.453125 9.421875 -0.984375 
z
M 9.421875 75.984375 
L 18.40625 75.984375 
L 18.40625 64.59375 
L 9.421875 64.59375 
z
" id="BitstreamVeraSans-Roman-6a"/>
     <path d="M 11.71875 12.40625 
L 22.015625 12.40625 
L 22.015625 4 
L 14.015625 -11.625 
L 7.71875 -11.625 
L 11.71875 4 
z
" id="BitstreamVeraSans-Roman-2c"/>
     <path d="M 18.3125 70.21875 
L 18.3125 54.6875 
L 36.8125 54.6875 
L 36.8125 47.703125 
L 18.3125 47.703125 
L 18.3125 18.015625 
Q 18.3125 11.328125 20.140625 9.421875 
Q 21.96875 7.515625 27.59375 7.515625 
L 36.8125 7.515625 
L 36.8125 0 
L 27.59375 0 
Q 17.1875 0 13.234375 3.875 
Q 9.28125 7.765625 9.28125 18.015625 
L 9.28125 47.703125 
L 2.6875 47.703125 
L 2.6875 54.6875 
L 9.28125 54.6875 
L 9.28125 70.21875 
z
" id="BitstreamVeraSans-Roman-74"/>
     <path d="M 34.1875 63.1875 
L 20.796875 26.90625 
L 47.609375 26.90625 
z
M 28.609375 72.90625 
L 39.796875 72.90625 
L 67.578125 0 
L 57.328125 0 
L 50.6875 18.703125 
L 17.828125 18.703125 
L 11.1875 0 
L 0.78125 0 
z
" id="BitstreamVeraSans-Roman-41"/>
    </defs>
    <g transform="translate(154.4595 18.14175)scale(0.144 -0.144)">
     <use xlink:href="#BitstreamVeraSans-Roman-41"/>
     <use x="68.330078125" xlink:href="#BitstreamVeraSans-Roman-76"/>
     <use x="127.509765625" xlink:href="#BitstreamVeraSans-Roman-65"/>
     <use x="189.033203125" xlink:href="#BitstreamVeraSans-Roman-72"/>
     <use x="230.146484375" xlink:href="#BitstreamVeraSans-Roman-61"/>
     <use x="291.42578125" xlink:href="#BitstreamVeraSans-Roman-67"/>
     <use x="354.90234375" xlink:href="#BitstreamVeraSans-Roman-65"/>
     <use x="416.42578125" xlink:href="#BitstreamVeraSans-Roman-20"/>
     <use x="448.212890625" xlink:href="#BitstreamVeraSans-Roman-6d"/>
     <use x="545.625" xlink:href="#BitstreamVeraSans-Roman-61"/>
     <use x="606.904296875" xlink:href="#BitstreamVeraSans-Roman-78"/>
     <use x="666.083984375" xlink:href="#BitstreamVeraSans-Roman-51"/>
     <use x="744.794921875" xlink:href="#BitstreamVeraSans-Roman-20"/>
     <use x="776.58203125" xlink:href="#BitstreamVeraSans-Roman-70"/>
     <use x="840.05859375" xlink:href="#BitstreamVeraSans-Roman-65"/>
     <use x="901.58203125" xlink:href="#BitstreamVeraSans-Roman-72"/>
     <use x="942.6953125" xlink:href="#BitstreamVeraSans-Roman-20"/>
     <use x="974.482421875" xlink:href="#BitstreamVeraSans-Roman-65"/>
     <use x="1036.005859375" xlink:href="#BitstreamVeraSans-Roman-70"/>
     <use x="1099.482421875" xlink:href="#BitstreamVeraSans-Roman-69"/>
     <use x="1127.265625" xlink:href="#BitstreamVeraSans-Roman-73"/>
     <use x="1179.365234375" xlink:href="#BitstreamVeraSans-Roman-6f"/>
     <use x="1240.546875" xlink:href="#BitstreamVeraSans-Roman-64"/>
     <use x="1304.0234375" xlink:href="#BitstreamVeraSans-Roman-65"/>
     <use x="1365.546875" xlink:href="#BitstreamVeraSans-Roman-2c"/>
     <use x="1397.333984375" xlink:href="#BitstreamVeraSans-Roman-20"/>
     <use x="1429.12109375" xlink:href="#BitstreamVeraSans-Roman-6a"/>
     <use x="1456.904296875" xlink:href="#BitstreamVeraSans-Roman-6f"/>
     <use x="1518.0859375" xlink:href="#BitstreamVeraSans-Roman-69"/>
     <use x="1545.869140625" xlink:href="#BitstreamVeraSans-Roman-6e"/>
     <use x="1609.248046875" xlink:href="#BitstreamVeraSans-Roman-74"/>
     <use x="1648.45703125" xlink:href="#BitstreamVeraSans-Roman-36"/>
    </g>
   </g>
  </g>
 </g>
 <defs>
  <clipPath id="pc49fa6df68">
   <rect height="345.6" width="446.4" x="54.5325" y="23.14175"/>
  </clipPath>
 </defs>
</svg>
