<?xml version="1.0" encoding="utf-8" standalone="no"?>
<!DOCTYPE svg PUBLIC "-//W3C//DTD SVG 1.1//EN"
  "http://www.w3.org/Graphics/SVG/1.1/DTD/svg11.dtd">
<!-- Created with matplotlib (http://matplotlib.org/) -->
<svg height="408pt" version="1.1" viewBox="0 0 515 408" width="515pt" xmlns="http://www.w3.org/2000/svg" xmlns:xlink="http://www.w3.org/1999/xlink">
 <defs>
  <style type="text/css">
*{stroke-linecap:butt;stroke-linejoin:round;stroke-miterlimit:100000;}
  </style>
 </defs>
 <g id="figure_1">
  <g id="patch_1">
   <path d="M 0 408.16925 
L 515.7675 408.16925 
L 515.7675 0 
L 0 0 
z
" style="fill:#ffffff;"/>
  </g>
  <g id="axes_1">
   <g id="patch_2">
    <path d="M 46.8975 368.74175 
L 493.2975 368.74175 
L 493.2975 23.14175 
L 46.8975 23.14175 
z
" style="fill:#ffffff;"/>
   </g>
   <g id="line2d_1">
    <path clip-path="url(#paabcc95e7f)" d="M 46.8975 342.659711 
L 47.3439 335.443824 
L 47.7903 348.159332 
L 48.2367 347.550629 
L 48.6831 348.54979 
L 49.1295 344.958935 
L 49.5759 337.237387 
L 50.0223 345.710101 
L 50.4687 350.063244 
L 50.9151 340.003926 
L 51.3615 336.164019 
L 51.8079 340.804487 
L 52.2543 350.559381 
L 52.7007 341.773438 
L 53.1471 342.048434 
L 53.5935 343.514704 
L 54.0399 353.9854 
L 54.4863 347.320843 
L 54.9327 352.505239 
L 55.3791 348.279116 
L 55.8255 336.143763 
L 56.2719 340.996824 
L 56.7183 339.571282 
L 57.1647 331.385443 
L 57.6111 346.121521 
L 58.0575 348.39575 
L 58.5039 352.46825 
L 58.9503 347.247583 
L 59.3967 344.635783 
L 59.8431 349.395888 
L 60.2895 326.107821 
L 60.7359 340.230864 
L 61.1823 343.684305 
L 61.6287 341.033307 
L 62.0751 344.760783 
L 62.5215 340.075388 
L 62.9679 344.307681 
L 63.4143 353.796578 
L 64.3071 334.337334 
L 64.7535 336.625426 
L 65.6463 345.364945 
L 66.0927 338.288652 
L 66.5391 325.463299 
L 66.9855 335.788243 
L 67.4319 343.500579 
L 67.8783 335.295329 
L 68.3247 351.29404 
L 68.7711 342.04264 
L 69.2175 347.272961 
L 69.6639 347.929281 
L 70.1103 346.213943 
L 70.5567 345.279483 
L 71.0031 354.102506 
L 71.4495 351.703555 
L 71.8959 340.710781 
L 72.3423 351.148266 
L 72.7887 347.80528 
L 73.2351 336.560759 
L 73.6815 341.182026 
L 74.1279 348.822011 
L 74.5743 333.015549 
L 75.0207 342.530067 
L 75.4671 346.882574 
L 75.9135 356.536244 
L 76.3599 347.85958 
L 76.8063 343.289293 
L 77.2527 346.000603 
L 77.6991 337.043657 
L 78.1455 347.391966 
L 78.5919 346.233142 
L 79.0383 354.836996 
L 79.4847 337.881175 
L 79.9311 347.40714 
L 80.3775 334.573099 
L 80.8239 348.348971 
L 81.2703 346.629284 
L 81.7167 347.273115 
L 82.1631 340.279939 
L 82.6095 347.489275 
L 83.0559 341.995815 
L 83.5023 358.679108 
L 83.9487 334.526913 
L 84.3951 349.757436 
L 84.8415 350.579618 
L 85.2879 346.441884 
L 85.7343 344.827302 
L 86.1807 346.474488 
L 86.6271 351.601836 
L 87.0735 342.661339 
L 87.5199 347.784572 
L 87.9663 344.912022 
L 88.4127 332.293362 
L 88.8591 351.405924 
L 89.3055 348.442317 
L 89.7519 335.504464 
L 90.1983 341.075719 
L 90.6447 342.252733 
L 91.0911 337.091613 
L 91.5375 349.884093 
L 91.9839 347.429149 
L 92.4303 351.479382 
L 92.8767 341.242208 
L 93.3231 355.403838 
L 93.7695 357.701268 
L 94.2159 350.773259 
L 94.6623 337.577944 
L 95.1087 340.653925 
L 95.5551 352.019008 
L 96.0015 346.817533 
L 96.4479 344.386169 
L 96.8943 350.001522 
L 97.3407 349.307335 
L 97.7871 343.882462 
L 98.6799 348.186211 
L 99.1263 341.423495 
L 99.5727 346.898303 
L 100.0191 346.793752 
L 100.4655 346.324883 
L 100.9119 350.029604 
L 101.3583 350.79577 
L 101.8047 353.345161 
L 102.2511 354.682498 
L 102.6975 343.190748 
L 103.1439 340.622728 
L 103.5903 344.397835 
L 104.0367 343.128008 
L 104.4831 348.839851 
L 104.9295 345.845693 
L 105.3759 352.998788 
L 105.8223 342.280333 
L 106.2687 337.217209 
L 106.7151 345.075537 
L 107.1615 343.864109 
L 107.6079 350.170073 
L 108.0543 345.087487 
L 108.5007 344.776833 
L 108.9471 350.840624 
L 109.8399 338.353839 
L 110.2863 346.613487 
L 110.7327 341.260238 
L 111.1791 337.613224 
L 111.6255 341.567544 
L 112.0719 352.98366 
L 112.5183 347.063972 
L 112.9647 343.252965 
L 113.4111 348.272887 
L 113.8575 341.384793 
L 114.3039 341.316589 
L 114.7503 343.399395 
L 115.1967 340.126988 
L 115.6431 345.649055 
L 116.0895 339.625733 
L 116.9823 342.320014 
L 117.8751 337.051059 
L 118.3215 339.85233 
L 118.7679 341.771048 
L 119.2143 337.799033 
L 119.6607 343.875084 
L 120.1071 346.556248 
L 120.5535 346.397724 
L 120.9999 342.454033 
L 121.4463 340.354873 
L 121.8927 340.204574 
L 122.3391 339.815787 
L 122.7855 337.567915 
L 123.2319 338.821688 
L 123.6783 346.110833 
L 124.1247 338.020968 
L 124.5711 338.89603 
L 125.0175 336.128626 
L 125.4639 339.653873 
L 125.9103 334.600237 
L 126.3567 332.511501 
L 126.8031 340.428787 
L 127.2495 339.776852 
L 127.6959 338.242497 
L 128.1423 338.218579 
L 128.5887 342.199105 
L 129.0351 333.864565 
L 129.4815 331.649573 
L 129.9279 335.027306 
L 130.8207 337.84793 
L 131.2671 338.26546 
L 131.7135 340.689595 
L 132.1599 336.648935 
L 132.6063 336.058042 
L 133.0527 330.470929 
L 133.4991 329.299793 
L 133.9455 335.760673 
L 134.3919 326.574275 
L 134.8383 335.058064 
L 135.2847 335.583679 
L 135.7311 331.906357 
L 136.1775 330.941189 
L 136.6239 328.614141 
L 137.0703 329.407552 
L 137.5167 328.213004 
L 137.9631 334.51956 
L 138.4095 332.276319 
L 138.8559 329.104331 
L 139.3023 331.810766 
L 140.1951 326.730795 
L 140.6415 330.620287 
L 141.0879 332.612185 
L 141.5343 324.807107 
L 141.9807 332.152695 
L 142.4271 322.521112 
L 142.8735 333.032803 
L 143.3199 326.838998 
L 143.7663 327.492799 
L 144.2127 324.920945 
L 144.6591 324.264149 
L 145.1055 325.921634 
L 145.5519 329.423213 
L 145.9983 328.906504 
L 146.4447 322.793162 
L 146.8911 326.826726 
L 147.3375 325.946728 
L 147.7839 324.335813 
L 148.2303 318.875604 
L 148.6767 318.610831 
L 149.1231 325.475672 
L 149.5695 319.255378 
L 150.0159 325.071739 
L 150.4623 322.69098 
L 150.9087 317.04265 
L 151.3551 323.337185 
L 151.8015 323.354962 
L 152.2479 317.461688 
L 152.6943 323.203601 
L 153.1407 324.680479 
L 153.5871 320.546556 
L 154.0335 319.521515 
L 154.4799 315.502839 
L 154.9263 314.538848 
L 155.3727 316.551389 
L 155.8191 319.410038 
L 156.2655 320.11548 
L 156.7119 311.343976 
L 157.1583 319.186916 
L 157.6047 316.590916 
L 158.0511 310.347475 
L 158.4975 316.696799 
L 158.9439 317.743992 
L 159.3903 317.420016 
L 159.8367 313.500647 
L 160.2831 314.144905 
L 160.7295 313.498785 
L 161.1759 313.237361 
L 161.6223 314.860082 
L 162.0687 314.140116 
L 162.5151 309.212407 
L 162.9615 310.185251 
L 163.4079 315.684748 
L 163.8543 308.616307 
L 164.3007 313.755467 
L 164.7471 304.382104 
L 165.1935 308.89115 
L 165.6399 307.984252 
L 166.0863 305.77546 
L 166.5327 308.778044 
L 166.9791 306.332312 
L 167.4255 306.776849 
L 167.8719 305.627144 
L 168.3183 301.817043 
L 168.7647 306.947628 
L 169.2111 305.913918 
L 169.6575 305.916822 
L 170.1039 306.292133 
L 170.5503 301.597286 
L 170.9967 299.350083 
L 171.4431 300.643678 
L 171.8895 297.143696 
L 172.3359 301.444698 
L 172.7823 301.195523 
L 173.2287 302.897398 
L 173.6751 297.737845 
L 174.1215 294.64366 
L 174.5679 296.531322 
L 175.0143 296.484399 
L 175.4607 295.482106 
L 175.9071 298.393854 
L 176.3535 296.640177 
L 176.7999 292.748013 
L 177.2463 294.994233 
L 177.6927 294.318996 
L 178.1391 290.744761 
L 178.5855 294.93875 
L 180.3711 289.093428 
L 180.8175 287.091067 
L 181.2639 289.053981 
L 181.7103 290.193477 
L 182.1567 288.968346 
L 182.6031 286.672699 
L 183.0495 285.803781 
L 183.4959 290.072168 
L 183.9423 280.277467 
L 184.3887 283.776233 
L 184.8351 282.826597 
L 185.2815 281.081404 
L 185.7279 277.98098 
L 186.1743 282.006239 
L 186.6207 281.492902 
L 187.0671 276.297836 
L 187.5135 278.385583 
L 187.9599 279.81588 
L 188.4063 278.675405 
L 188.8527 278.486462 
L 189.2991 277.438985 
L 189.7455 274.214336 
L 190.1919 288.253604 
L 190.6383 270.915025 
L 191.0847 272.662724 
L 191.5311 275.253376 
L 191.9775 271.703525 
L 192.4239 272.143663 
L 193.3167 266.294383 
L 194.2095 280.78568 
L 194.6559 270.835055 
L 195.1023 270.929687 
L 195.5487 274.787803 
L 195.9951 271.710377 
L 196.4415 274.629015 
L 196.8879 271.127575 
L 197.3343 264.146963 
L 197.7807 274.127256 
L 198.2271 266.789114 
L 198.6735 276.747653 
L 199.1199 259.379952 
L 199.5663 267.965998 
L 200.0127 261.0989 
L 200.4591 265.366956 
L 200.9055 259.432479 
L 201.3519 262.743838 
L 201.7983 272.835101 
L 202.2447 266.043508 
L 202.6911 281.13552 
L 203.1375 259.860514 
L 203.5839 262.655361 
L 204.0303 278.879753 
L 204.9231 244.871359 
L 205.3695 277.703696 
L 205.8159 279.40853 
L 206.2623 257.683527 
L 206.7087 264.252249 
L 207.1551 261.547776 
L 207.6015 272.635734 
L 208.0479 253.810734 
L 208.4943 259.663545 
L 208.9407 258.777647 
L 209.3871 252.801575 
L 209.8335 256.071598 
L 210.2799 248.530202 
L 210.7263 251.768448 
L 211.1727 245.139581 
L 211.6191 254.418497 
L 212.0655 255.633886 
L 212.5119 246.222661 
L 212.9583 257.910913 
L 213.4047 274.941378 
L 213.8511 251.889477 
L 214.2975 255.05567 
L 214.7439 250.562433 
L 215.1903 247.791004 
L 215.6367 241.642184 
L 216.0831 242.883237 
L 216.5295 246.624162 
L 216.9759 253.824323 
L 217.4223 250.805166 
L 217.8687 239.280269 
L 218.3151 242.585281 
L 218.7615 238.592701 
L 219.2079 265.108485 
L 219.6543 241.832143 
L 220.1007 249.738696 
L 220.5471 239.806231 
L 220.9935 240.52706 
L 222.3327 249.080412 
L 222.7791 234.530122 
L 223.2255 228.753311 
L 223.6719 239.773638 
L 224.1183 246.336175 
L 224.5647 229.740316 
L 225.0111 242.859797 
L 225.4575 233.628825 
L 225.9039 248.13362 
L 226.3503 246.218424 
L 226.7967 237.257573 
L 227.2431 240.456449 
L 227.6895 234.787064 
L 228.1359 232.142387 
L 228.5823 236.388377 
L 229.0287 231.60872 
L 229.4751 238.68102 
L 229.9215 243.022397 
L 230.3679 227.766782 
L 230.8143 231.341356 
L 231.2607 239.409874 
L 231.7071 240.175596 
L 232.1535 233.534755 
L 232.5999 224.511405 
L 233.0463 232.852675 
L 233.4927 227.621151 
L 233.9391 228.026122 
L 234.3855 215.961364 
L 234.8319 230.30985 
L 235.2783 229.267184 
L 235.7247 253.019968 
L 236.1711 224.442135 
L 237.0639 232.759279 
L 237.5103 225.188297 
L 237.9567 232.32195 
L 238.4031 219.844484 
L 238.8495 224.489446 
L 239.2959 213.068259 
L 239.7423 229.494721 
L 240.1887 222.69506 
L 240.6351 226.48818 
L 241.0815 224.489153 
L 241.5279 221.003832 
L 241.9743 227.099466 
L 242.4207 215.504715 
L 242.8671 219.097255 
L 243.3135 208.840823 
L 243.7599 229.230598 
L 244.2063 219.181179 
L 245.0991 211.863339 
L 245.5455 218.21741 
L 245.9919 208.670888 
L 246.4383 217.418384 
L 246.8847 209.447231 
L 247.3311 208.782678 
L 247.7775 223.579007 
L 248.2239 212.28359 
L 248.6703 215.222019 
L 249.1167 209.98826 
L 250.0095 211.844537 
L 250.4559 205.908315 
L 250.9023 211.103689 
L 251.3487 219.420908 
L 251.7951 219.461953 
L 252.2415 202.546075 
L 252.6879 205.977998 
L 253.1343 207.983017 
L 253.5807 200.466584 
L 254.0271 197.055963 
L 254.4735 212.018996 
L 254.9199 210.408217 
L 255.3663 211.421389 
L 255.8127 198.982489 
L 256.2591 204.975228 
L 256.7055 207.886848 
L 257.1519 197.298714 
L 257.5983 196.008005 
L 258.4911 200.429051 
L 258.9375 196.104795 
L 259.3839 193.513139 
L 259.8303 205.659666 
L 260.2767 194.159033 
L 260.7231 196.105156 
L 261.1695 200.513037 
L 261.6159 192.897271 
L 262.0623 193.472781 
L 262.5087 193.858336 
L 262.9551 200.324351 
L 263.8479 187.021444 
L 264.2943 192.338035 
L 264.7407 194.235815 
L 265.1871 200.909754 
L 266.0799 187.322905 
L 266.5263 227.341008 
L 266.9727 192.888419 
L 267.4191 182.557069 
L 268.3119 199.148984 
L 268.7583 195.363753 
L 269.2047 188.59718 
L 270.0975 181.938177 
L 270.5439 223.464993 
L 270.9903 185.187141 
L 271.4367 177.502026 
L 271.8831 188.175309 
L 272.3295 193.923221 
L 272.7759 189.377875 
L 273.2223 202.428136 
L 273.6687 179.704258 
L 274.1151 195.11461 
L 274.5615 170.876371 
L 275.0079 199.381351 
L 275.4543 180.572278 
L 275.9007 185.072519 
L 276.3471 184.625295 
L 276.7935 173.57898 
L 277.2399 175.637152 
L 277.6863 197.936747 
L 278.1327 176.614117 
L 278.5791 173.97366 
L 279.0255 181.721517 
L 279.4719 178.298907 
L 279.9183 171.183303 
L 280.3647 198.894108 
L 280.8111 184.693354 
L 281.2575 175.55296 
L 281.7039 188.417267 
L 282.1503 177.723025 
L 282.5967 178.975511 
L 283.0431 178.327287 
L 283.4895 217.240512 
L 283.9359 183.253707 
L 284.3823 219.992475 
L 284.8287 183.355634 
L 285.2751 172.40498 
L 285.7215 179.031402 
L 286.1679 174.373219 
L 286.6143 166.498893 
L 287.0607 186.605174 
L 287.5071 176.964894 
L 287.9535 180.093892 
L 288.3999 167.137493 
L 288.8463 175.842942 
L 289.2927 162.929195 
L 289.7391 170.277509 
L 290.6319 168.259079 
L 291.0783 183.567391 
L 291.5247 162.696216 
L 291.9711 174.454233 
L 292.4175 174.483649 
L 292.8639 172.878072 
L 293.3103 161.030649 
L 293.7567 170.646525 
L 294.2031 158.267977 
L 294.6495 165.34442 
L 295.0959 169.353789 
L 295.5423 167.408496 
L 295.9887 162.611487 
L 296.4351 172.627234 
L 296.8815 159.225494 
L 297.3279 175.352305 
L 298.2207 153.237549 
L 298.6671 178.831729 
L 299.1135 164.862439 
L 299.5599 167.883424 
L 300.0063 159.339164 
L 300.4527 163.240583 
L 300.8991 154.234988 
L 301.3455 151.718196 
L 301.7919 164.965266 
L 302.6847 162.488919 
L 303.1311 168.85597 
L 303.5775 157.070157 
L 304.0239 151.454946 
L 304.4703 159.281858 
L 304.9167 155.379647 
L 305.3631 157.02971 
L 305.8095 161.450026 
L 306.2559 146.909957 
L 306.7023 157.626272 
L 307.1487 151.812646 
L 307.5951 161.873835 
L 308.0415 154.852011 
L 308.9343 146.730752 
L 309.3807 151.443765 
L 309.8271 153.664532 
L 310.2735 146.957272 
L 310.7199 164.627194 
L 311.1663 149.484836 
L 311.6127 150.621925 
L 312.0591 153.568182 
L 312.5055 158.238027 
L 312.9519 158.362977 
L 313.3983 151.554231 
L 313.8447 156.961237 
L 314.2911 146.871839 
L 315.1839 161.227428 
L 315.6303 146.035763 
L 316.0767 159.082274 
L 316.9695 147.09743 
L 317.4159 156.014966 
L 317.8623 144.507821 
L 318.3087 178.707331 
L 318.7551 154.430043 
L 319.2015 145.933616 
L 319.6479 154.068977 
L 320.0943 141.782663 
L 320.5407 149.394548 
L 320.9871 150.467504 
L 321.4335 150.231702 
L 321.8799 157.53475 
L 322.3263 153.867194 
L 322.7727 139.449944 
L 323.2191 155.763149 
L 323.6655 148.772965 
L 324.1119 147.562406 
L 324.5583 152.783582 
L 325.0047 149.143177 
L 325.4511 138.471792 
L 325.8975 144.895546 
L 326.3439 149.261144 
L 326.7903 150.978359 
L 327.2367 147.794487 
L 327.6831 149.084673 
L 328.1295 145.005858 
L 328.5759 137.859998 
L 329.0223 142.12646 
L 329.4687 141.659847 
L 329.9151 140.148581 
L 330.3615 141.837969 
L 330.8079 135.969254 
L 331.2543 138.130324 
L 331.7007 138.740321 
L 332.1471 146.176997 
L 332.5935 142.858712 
L 333.0399 132.029571 
L 333.4863 147.593202 
L 333.9327 133.419082 
L 334.3791 148.730061 
L 334.8255 133.830722 
L 335.2719 138.706516 
L 335.7183 141.193038 
L 336.1647 130.769514 
L 336.6111 127.896487 
L 337.0575 138.252212 
L 337.5039 170.52726 
L 337.9503 140.845969 
L 338.3967 141.573003 
L 338.8431 137.598979 
L 339.7359 124.330536 
L 340.1823 134.422525 
L 340.6287 128.794431 
L 341.0751 135.932861 
L 341.5215 132.813537 
L 341.9679 135.873836 
L 342.4143 125.19253 
L 342.8607 129.548627 
L 343.3071 130.270562 
L 343.7535 134.50372 
L 344.1999 146.646344 
L 344.6463 132.125375 
L 345.0927 138.366358 
L 345.5391 138.363788 
L 345.9855 136.381402 
L 346.4319 142.236148 
L 346.8783 136.354345 
L 347.3247 138.402097 
L 347.7711 137.299919 
L 348.2175 131.708989 
L 348.6639 133.412161 
L 349.1103 140.88979 
L 349.5567 136.305437 
L 350.0031 136.625906 
L 350.8959 119.574585 
L 351.3423 131.833661 
L 351.7887 122.200539 
L 352.2351 134.311143 
L 352.6815 132.319353 
L 353.1279 150.036965 
L 353.5743 160.187423 
L 354.0207 128.180061 
L 354.4671 135.20931 
L 354.9135 125.879006 
L 355.3599 130.982925 
L 355.8063 132.131345 
L 356.2527 130.49475 
L 356.6991 127.153835 
L 357.1455 119.109162 
L 357.5919 136.240902 
L 358.0383 126.532766 
L 358.4847 122.325057 
L 359.3775 128.478173 
L 359.8239 126.378111 
L 360.2703 125.39365 
L 360.7167 128.556021 
L 361.1631 121.879892 
L 361.6095 121.869213 
L 362.0559 124.114712 
L 362.5023 127.761045 
L 362.9487 130.051151 
L 363.3951 131.053383 
L 363.8415 124.271663 
L 364.2879 115.384197 
L 364.7343 140.939651 
L 365.1807 124.107886 
L 365.6271 124.587306 
L 366.0735 121.186379 
L 366.5199 126.5345 
L 366.9663 127.002564 
L 367.4127 114.810032 
L 367.8591 125.781149 
L 368.3055 118.991264 
L 368.7519 114.016901 
L 369.1983 123.615494 
L 369.6447 126.754408 
L 370.0911 123.245361 
L 370.5375 121.362267 
L 370.9839 117.64081 
L 371.4303 120.831648 
L 371.8767 129.01822 
L 372.3231 119.276385 
L 372.7695 121.87155 
L 373.2159 117.519574 
L 373.6623 118.402224 
L 374.1087 122.317044 
L 374.5551 120.266166 
L 375.0015 157.015657 
L 375.4479 121.829979 
L 375.8943 129.121234 
L 376.3407 107.942294 
L 376.7871 117.90483 
L 377.6799 113.613671 
L 378.1263 126.399002 
L 378.5727 119.136297 
L 379.0191 125.615154 
L 379.9119 120.697793 
L 380.8047 111.946435 
L 381.2511 113.166461 
L 381.6975 120.435474 
L 382.1439 117.96569 
L 382.5903 117.930092 
L 383.0367 118.568223 
L 383.4831 112.530726 
L 383.9295 116.827985 
L 384.3759 115.525251 
L 384.8223 154.952224 
L 385.2687 112.724026 
L 385.7151 110.110429 
L 386.1615 117.611651 
L 386.6079 116.359529 
L 387.0543 113.555709 
L 387.5007 113.618005 
L 387.9471 112.678631 
L 388.3935 110.832604 
L 388.8399 115.550269 
L 389.2863 117.754355 
L 389.7327 110.71538 
L 390.1791 115.535726 
L 390.6255 144.745891 
L 391.0719 118.221562 
L 391.5183 115.401681 
L 391.9647 110.382175 
L 392.4111 109.584173 
L 392.8575 115.570917 
L 393.3039 116.410674 
L 393.7503 118.419156 
L 394.1967 116.101452 
L 394.6431 109.397465 
L 395.5359 117.255742 
L 395.9823 105.556989 
L 396.4287 113.487118 
L 397.3215 113.111091 
L 397.7679 115.354037 
L 398.2143 111.961229 
L 398.6607 116.695842 
L 399.1071 107.601931 
L 399.5535 110.499437 
L 399.9999 114.346333 
L 400.4463 116.958986 
L 400.8927 105.548927 
L 401.3391 110.889821 
L 401.7855 112.933006 
L 402.2319 107.329405 
L 402.6783 115.6127 
L 403.1247 107.185392 
L 403.5711 107.910558 
L 404.0175 108.208871 
L 404.4639 111.824571 
L 404.9103 103.738607 
L 405.3567 106.439379 
L 405.8031 108.321202 
L 406.2495 111.43412 
L 406.6959 116.10519 
L 407.1423 115.879818 
L 408.0351 103.011889 
L 408.4815 111.008354 
L 408.9279 110.485335 
L 409.3743 113.275763 
L 409.8207 103.950051 
L 410.2671 113.163716 
L 410.7135 105.377617 
L 411.1599 110.150737 
L 411.6063 98.158249 
L 412.4991 106.243993 
L 412.9455 98.160858 
L 413.3919 103.629455 
L 413.8383 104.515271 
L 414.2847 103.110469 
L 414.7311 111.058815 
L 415.1775 106.896952 
L 415.6239 100.426263 
L 416.0703 103.681319 
L 416.5167 103.662373 
L 416.9631 105.373712 
L 417.4095 98.858224 
L 417.8559 103.99732 
L 418.3023 105.732531 
L 418.7487 101.454772 
L 419.1951 105.099285 
L 419.6415 97.782708 
L 420.0879 108.248197 
L 420.5343 105.329337 
L 420.9807 103.405131 
L 421.4271 100.623652 
L 421.8735 103.613961 
L 422.3199 103.471531 
L 422.7663 98.252663 
L 423.2127 105.211373 
L 423.6591 100.127629 
L 424.1055 105.030625 
L 424.5519 105.402587 
L 424.9983 103.583664 
L 425.4447 104.502243 
L 425.8911 98.405195 
L 426.3375 94.100159 
L 426.7839 92.742744 
L 427.2303 102.552545 
L 427.6767 95.937261 
L 428.1231 92.391912 
L 428.5695 94.305758 
L 429.0159 95.370647 
L 429.4623 90.5913 
L 429.9087 96.565194 
L 430.3551 90.359774 
L 430.8015 93.280625 
L 431.2479 97.849916 
L 431.6943 91.78577 
L 432.1407 81.127378 
L 432.5871 89.639556 
L 433.0335 92.383812 
L 433.4799 93.290222 
L 433.9263 94.768748 
L 434.3727 88.854944 
L 434.8191 95.677446 
L 435.2655 95.260947 
L 435.7119 90.851657 
L 436.1583 94.847336 
L 436.6047 86.305196 
L 437.0511 97.26677 
L 437.4975 87.053251 
L 437.9439 91.353671 
L 438.3903 90.554683 
L 438.8367 93.272199 
L 439.2831 85.039455 
L 439.7295 91.565216 
L 440.1759 88.523982 
L 440.6223 92.907377 
L 441.0687 92.095532 
L 441.5151 93.792049 
L 441.9615 93.687617 
L 442.4079 90.110596 
L 442.8543 96.362047 
L 443.3007 92.399578 
L 443.7471 90.639398 
L 444.1935 95.43827 
L 444.6399 76.796856 
L 445.0863 83.643496 
L 445.5327 87.845685 
L 445.9791 82.296838 
L 446.4255 85.926423 
L 446.8719 90.630015 
L 447.3183 88.844864 
L 447.7647 85.861014 
L 448.2111 88.427177 
L 448.6575 88.445897 
L 449.1039 86.659844 
L 449.5503 87.799249 
L 449.9967 91.37598 
L 450.4431 82.198109 
L 450.8895 89.890822 
L 451.7823 79.399925 
L 452.2287 90.248594 
L 452.6751 85.638814 
L 453.1215 83.289533 
L 453.5679 85.669259 
L 454.0143 92.483246 
L 454.4607 87.857264 
L 454.9071 84.630046 
L 455.3535 87.298054 
L 455.7999 85.649392 
L 456.2463 86.259185 
L 456.6927 83.368078 
L 457.1391 90.032107 
L 457.5855 83.571267 
L 458.0319 83.191677 
L 458.9247 94.619339 
L 459.3711 79.366562 
L 459.8175 87.419721 
L 460.2639 79.089989 
L 460.7103 79.623709 
L 461.6031 94.569835 
L 462.0495 85.531767 
L 462.4959 81.891813 
L 462.9423 82.067527 
L 463.3887 79.242253 
L 463.8351 83.082207 
L 464.2815 84.542053 
L 464.7279 87.991057 
L 465.1743 92.920453 
L 465.6207 71.352147 
L 466.0671 80.94918 
L 466.5135 79.469568 
L 466.9599 77.091707 
L 467.4063 91.48293 
L 467.8527 83.249394 
L 468.2991 71.061516 
L 468.7455 80.061516 
L 469.1919 78.540382 
L 469.6383 87.540422 
L 470.0847 82.60867 
L 470.5311 80.312805 
L 470.9775 87.427699 
L 471.4239 78.110096 
L 471.8703 83.002817 
L 472.3167 92.57494 
L 473.2095 80.587609 
L 473.6559 77.638156 
L 474.1023 76.874165 
L 474.5487 87.492377 
L 475.4415 77.135515 
L 475.8879 70.37684 
L 476.3343 83.800469 
L 477.2271 79.860823 
L 477.6735 70.125193 
L 478.1199 91.201889 
L 478.5663 81.457954 
L 479.0127 79.687948 
L 479.4591 76.586017 
L 479.9055 87.710859 
L 480.3519 78.891332 
L 480.7983 76.068383 
L 481.2447 76.170714 
L 481.6911 81.740622 
L 482.1375 82.913418 
L 482.5839 76.112185 
L 483.0303 79.916162 
L 483.4767 69.726805 
L 483.9231 89.455986 
L 484.3695 79.268662 
L 484.8159 77.494826 
L 485.2623 73.525508 
L 485.7087 75.137098 
L 486.1551 92.154992 
L 486.6015 76.560828 
L 487.0479 75.002951 
L 487.4943 83.792727 
L 487.9407 87.443364 
L 488.3871 78.948817 
L 488.8335 67.958894 
L 489.2799 76.980027 
L 489.7263 81.569174 
L 490.1727 67.833348 
L 490.6191 79.73211 
L 491.0655 82.71499 
L 491.5119 80.900052 
L 491.9583 75.590105 
L 492.4047 82.307957 
L 492.8511 92.249754 
L 492.8511 92.249754 
" style="fill:none;stroke:#0000ff;stroke-linecap:square;stroke-width:0.5;"/>
   </g>
   <g id="patch_3">
    <path d="M 46.8975 368.74175 
L 46.8975 23.14175 
" style="fill:none;stroke:#000000;stroke-linecap:square;stroke-linejoin:miter;"/>
   </g>
   <g id="patch_4">
    <path d="M 46.8975 368.74175 
L 493.2975 368.74175 
" style="fill:none;stroke:#000000;stroke-linecap:square;stroke-linejoin:miter;"/>
   </g>
   <g id="patch_5">
    <path d="M 493.2975 368.74175 
L 493.2975 23.14175 
" style="fill:none;stroke:#000000;stroke-linecap:square;stroke-linejoin:miter;"/>
   </g>
   <g id="patch_6">
    <path d="M 46.8975 23.14175 
L 493.2975 23.14175 
" style="fill:none;stroke:#000000;stroke-linecap:square;stroke-linejoin:miter;"/>
   </g>
   <g id="matplotlib.axis_1">
    <g id="xtick_1">
     <g id="line2d_2">
      <defs>
       <path d="M 0 0 
L 0 -4 
" id="m0718b0e704" style="stroke:#000000;stroke-width:0.5;"/>
      </defs>
      <g>
       <use style="stroke:#000000;stroke-width:0.5;" x="46.8975" xlink:href="#m0718b0e704" y="368.74175"/>
      </g>
     </g>
     <g id="line2d_3">
      <defs>
       <path d="M 0 0 
L 0 4 
" id="mfa3569d29b" style="stroke:#000000;stroke-width:0.5;"/>
      </defs>
      <g>
       <use style="stroke:#000000;stroke-width:0.5;" x="46.8975" xlink:href="#mfa3569d29b" y="23.14175"/>
      </g>
     </g>
     <g id="text_1">
      <!-- 0 -->
      <defs>
       <path d="M 31.78125 66.40625 
Q 24.171875 66.40625 20.328125 58.90625 
Q 16.5 51.421875 16.5 36.375 
Q 16.5 21.390625 20.328125 13.890625 
Q 24.171875 6.390625 31.78125 6.390625 
Q 39.453125 6.390625 43.28125 13.890625 
Q 47.125 21.390625 47.125 36.375 
Q 47.125 51.421875 43.28125 58.90625 
Q 39.453125 66.40625 31.78125 66.40625 
M 31.78125 74.21875 
Q 44.046875 74.21875 50.515625 64.515625 
Q 56.984375 54.828125 56.984375 36.375 
Q 56.984375 17.96875 50.515625 8.265625 
Q 44.046875 -1.421875 31.78125 -1.421875 
Q 19.53125 -1.421875 13.0625 8.265625 
Q 6.59375 17.96875 6.59375 36.375 
Q 6.59375 54.828125 13.0625 64.515625 
Q 19.53125 74.21875 31.78125 74.21875 
" id="BitstreamVeraSans-Roman-30"/>
      </defs>
      <g transform="translate(43.08 381.859875)scale(0.12 -0.12)">
       <use xlink:href="#BitstreamVeraSans-Roman-30"/>
      </g>
     </g>
    </g>
    <g id="xtick_2">
     <g id="line2d_4">
      <g>
       <use style="stroke:#000000;stroke-width:0.5;" x="136.1775" xlink:href="#m0718b0e704" y="368.74175"/>
      </g>
     </g>
     <g id="line2d_5">
      <g>
       <use style="stroke:#000000;stroke-width:0.5;" x="136.1775" xlink:href="#mfa3569d29b" y="23.14175"/>
      </g>
     </g>
     <g id="text_2">
      <!-- 200 -->
      <defs>
       <path d="M 19.1875 8.296875 
L 53.609375 8.296875 
L 53.609375 0 
L 7.328125 0 
L 7.328125 8.296875 
Q 12.9375 14.109375 22.625 23.890625 
Q 32.328125 33.6875 34.8125 36.53125 
Q 39.546875 41.84375 41.421875 45.53125 
Q 43.3125 49.21875 43.3125 52.78125 
Q 43.3125 58.59375 39.234375 62.25 
Q 35.15625 65.921875 28.609375 65.921875 
Q 23.96875 65.921875 18.8125 64.3125 
Q 13.671875 62.703125 7.8125 59.421875 
L 7.8125 69.390625 
Q 13.765625 71.78125 18.9375 73 
Q 24.125 74.21875 28.421875 74.21875 
Q 39.75 74.21875 46.484375 68.546875 
Q 53.21875 62.890625 53.21875 53.421875 
Q 53.21875 48.921875 51.53125 44.890625 
Q 49.859375 40.875 45.40625 35.40625 
Q 44.1875 33.984375 37.640625 27.21875 
Q 31.109375 20.453125 19.1875 8.296875 
" id="BitstreamVeraSans-Roman-32"/>
      </defs>
      <g transform="translate(124.725 381.859875)scale(0.12 -0.12)">
       <use xlink:href="#BitstreamVeraSans-Roman-32"/>
       <use x="63.623046875" xlink:href="#BitstreamVeraSans-Roman-30"/>
       <use x="127.24609375" xlink:href="#BitstreamVeraSans-Roman-30"/>
      </g>
     </g>
    </g>
    <g id="xtick_3">
     <g id="line2d_6">
      <g>
       <use style="stroke:#000000;stroke-width:0.5;" x="225.4575" xlink:href="#m0718b0e704" y="368.74175"/>
      </g>
     </g>
     <g id="line2d_7">
      <g>
       <use style="stroke:#000000;stroke-width:0.5;" x="225.4575" xlink:href="#mfa3569d29b" y="23.14175"/>
      </g>
     </g>
     <g id="text_3">
      <!-- 400 -->
      <defs>
       <path d="M 37.796875 64.3125 
L 12.890625 25.390625 
L 37.796875 25.390625 
z
M 35.203125 72.90625 
L 47.609375 72.90625 
L 47.609375 25.390625 
L 58.015625 25.390625 
L 58.015625 17.1875 
L 47.609375 17.1875 
L 47.609375 0 
L 37.796875 0 
L 37.796875 17.1875 
L 4.890625 17.1875 
L 4.890625 26.703125 
z
" id="BitstreamVeraSans-Roman-34"/>
      </defs>
      <g transform="translate(214.005 381.859875)scale(0.12 -0.12)">
       <use xlink:href="#BitstreamVeraSans-Roman-34"/>
       <use x="63.623046875" xlink:href="#BitstreamVeraSans-Roman-30"/>
       <use x="127.24609375" xlink:href="#BitstreamVeraSans-Roman-30"/>
      </g>
     </g>
    </g>
    <g id="xtick_4">
     <g id="line2d_8">
      <g>
       <use style="stroke:#000000;stroke-width:0.5;" x="314.7375" xlink:href="#m0718b0e704" y="368.74175"/>
      </g>
     </g>
     <g id="line2d_9">
      <g>
       <use style="stroke:#000000;stroke-width:0.5;" x="314.7375" xlink:href="#mfa3569d29b" y="23.14175"/>
      </g>
     </g>
     <g id="text_4">
      <!-- 600 -->
      <defs>
       <path d="M 33.015625 40.375 
Q 26.375 40.375 22.484375 35.828125 
Q 18.609375 31.296875 18.609375 23.390625 
Q 18.609375 15.53125 22.484375 10.953125 
Q 26.375 6.390625 33.015625 6.390625 
Q 39.65625 6.390625 43.53125 10.953125 
Q 47.40625 15.53125 47.40625 23.390625 
Q 47.40625 31.296875 43.53125 35.828125 
Q 39.65625 40.375 33.015625 40.375 
M 52.59375 71.296875 
L 52.59375 62.3125 
Q 48.875 64.0625 45.09375 64.984375 
Q 41.3125 65.921875 37.59375 65.921875 
Q 27.828125 65.921875 22.671875 59.328125 
Q 17.53125 52.734375 16.796875 39.40625 
Q 19.671875 43.65625 24.015625 45.921875 
Q 28.375 48.1875 33.59375 48.1875 
Q 44.578125 48.1875 50.953125 41.515625 
Q 57.328125 34.859375 57.328125 23.390625 
Q 57.328125 12.15625 50.6875 5.359375 
Q 44.046875 -1.421875 33.015625 -1.421875 
Q 20.359375 -1.421875 13.671875 8.265625 
Q 6.984375 17.96875 6.984375 36.375 
Q 6.984375 53.65625 15.1875 63.9375 
Q 23.390625 74.21875 37.203125 74.21875 
Q 40.921875 74.21875 44.703125 73.484375 
Q 48.484375 72.75 52.59375 71.296875 
" id="BitstreamVeraSans-Roman-36"/>
      </defs>
      <g transform="translate(303.285 381.859875)scale(0.12 -0.12)">
       <use xlink:href="#BitstreamVeraSans-Roman-36"/>
       <use x="63.623046875" xlink:href="#BitstreamVeraSans-Roman-30"/>
       <use x="127.24609375" xlink:href="#BitstreamVeraSans-Roman-30"/>
      </g>
     </g>
    </g>
    <g id="xtick_5">
     <g id="line2d_10">
      <g>
       <use style="stroke:#000000;stroke-width:0.5;" x="404.0175" xlink:href="#m0718b0e704" y="368.74175"/>
      </g>
     </g>
     <g id="line2d_11">
      <g>
       <use style="stroke:#000000;stroke-width:0.5;" x="404.0175" xlink:href="#mfa3569d29b" y="23.14175"/>
      </g>
     </g>
     <g id="text_5">
      <!-- 800 -->
      <defs>
       <path d="M 31.78125 34.625 
Q 24.75 34.625 20.71875 30.859375 
Q 16.703125 27.09375 16.703125 20.515625 
Q 16.703125 13.921875 20.71875 10.15625 
Q 24.75 6.390625 31.78125 6.390625 
Q 38.8125 6.390625 42.859375 10.171875 
Q 46.921875 13.96875 46.921875 20.515625 
Q 46.921875 27.09375 42.890625 30.859375 
Q 38.875 34.625 31.78125 34.625 
M 21.921875 38.8125 
Q 15.578125 40.375 12.03125 44.71875 
Q 8.5 49.078125 8.5 55.328125 
Q 8.5 64.0625 14.71875 69.140625 
Q 20.953125 74.21875 31.78125 74.21875 
Q 42.671875 74.21875 48.875 69.140625 
Q 55.078125 64.0625 55.078125 55.328125 
Q 55.078125 49.078125 51.53125 44.71875 
Q 48 40.375 41.703125 38.8125 
Q 48.828125 37.15625 52.796875 32.3125 
Q 56.78125 27.484375 56.78125 20.515625 
Q 56.78125 9.90625 50.3125 4.234375 
Q 43.84375 -1.421875 31.78125 -1.421875 
Q 19.734375 -1.421875 13.25 4.234375 
Q 6.78125 9.90625 6.78125 20.515625 
Q 6.78125 27.484375 10.78125 32.3125 
Q 14.796875 37.15625 21.921875 38.8125 
M 18.3125 54.390625 
Q 18.3125 48.734375 21.84375 45.5625 
Q 25.390625 42.390625 31.78125 42.390625 
Q 38.140625 42.390625 41.71875 45.5625 
Q 45.3125 48.734375 45.3125 54.390625 
Q 45.3125 60.0625 41.71875 63.234375 
Q 38.140625 66.40625 31.78125 66.40625 
Q 25.390625 66.40625 21.84375 63.234375 
Q 18.3125 60.0625 18.3125 54.390625 
" id="BitstreamVeraSans-Roman-38"/>
      </defs>
      <g transform="translate(392.565 381.859875)scale(0.12 -0.12)">
       <use xlink:href="#BitstreamVeraSans-Roman-38"/>
       <use x="63.623046875" xlink:href="#BitstreamVeraSans-Roman-30"/>
       <use x="127.24609375" xlink:href="#BitstreamVeraSans-Roman-30"/>
      </g>
     </g>
    </g>
    <g id="xtick_6">
     <g id="line2d_12">
      <g>
       <use style="stroke:#000000;stroke-width:0.5;" x="493.2975" xlink:href="#m0718b0e704" y="368.74175"/>
      </g>
     </g>
     <g id="line2d_13">
      <g>
       <use style="stroke:#000000;stroke-width:0.5;" x="493.2975" xlink:href="#mfa3569d29b" y="23.14175"/>
      </g>
     </g>
     <g id="text_6">
      <!-- 1000 -->
      <defs>
       <path d="M 12.40625 8.296875 
L 28.515625 8.296875 
L 28.515625 63.921875 
L 10.984375 60.40625 
L 10.984375 69.390625 
L 28.421875 72.90625 
L 38.28125 72.90625 
L 38.28125 8.296875 
L 54.390625 8.296875 
L 54.390625 0 
L 12.40625 0 
z
" id="BitstreamVeraSans-Roman-31"/>
      </defs>
      <g transform="translate(478.0275 381.859875)scale(0.12 -0.12)">
       <use xlink:href="#BitstreamVeraSans-Roman-31"/>
       <use x="63.623046875" xlink:href="#BitstreamVeraSans-Roman-30"/>
       <use x="127.24609375" xlink:href="#BitstreamVeraSans-Roman-30"/>
       <use x="190.869140625" xlink:href="#BitstreamVeraSans-Roman-30"/>
      </g>
     </g>
    </g>
    <g id="text_7">
     <!-- episode -->
     <defs>
      <path d="M 56.203125 29.59375 
L 56.203125 25.203125 
L 14.890625 25.203125 
Q 15.484375 15.921875 20.484375 11.0625 
Q 25.484375 6.203125 34.421875 6.203125 
Q 39.59375 6.203125 44.453125 7.46875 
Q 49.3125 8.734375 54.109375 11.28125 
L 54.109375 2.78125 
Q 49.265625 0.734375 44.1875 -0.34375 
Q 39.109375 -1.421875 33.890625 -1.421875 
Q 20.796875 -1.421875 13.15625 6.1875 
Q 5.515625 13.8125 5.515625 26.8125 
Q 5.515625 40.234375 12.765625 48.109375 
Q 20.015625 56 32.328125 56 
Q 43.359375 56 49.78125 48.890625 
Q 56.203125 41.796875 56.203125 29.59375 
M 47.21875 32.234375 
Q 47.125 39.59375 43.09375 43.984375 
Q 39.0625 48.390625 32.421875 48.390625 
Q 24.90625 48.390625 20.390625 44.140625 
Q 15.875 39.890625 15.1875 32.171875 
z
" id="BitstreamVeraSans-Roman-65"/>
      <path d="M 18.109375 8.203125 
L 18.109375 -20.796875 
L 9.078125 -20.796875 
L 9.078125 54.6875 
L 18.109375 54.6875 
L 18.109375 46.390625 
Q 20.953125 51.265625 25.265625 53.625 
Q 29.59375 56 35.59375 56 
Q 45.5625 56 51.78125 48.09375 
Q 58.015625 40.1875 58.015625 27.296875 
Q 58.015625 14.40625 51.78125 6.484375 
Q 45.5625 -1.421875 35.59375 -1.421875 
Q 29.59375 -1.421875 25.265625 0.953125 
Q 20.953125 3.328125 18.109375 8.203125 
M 48.6875 27.296875 
Q 48.6875 37.203125 44.609375 42.84375 
Q 40.53125 48.484375 33.40625 48.484375 
Q 26.265625 48.484375 22.1875 42.84375 
Q 18.109375 37.203125 18.109375 27.296875 
Q 18.109375 17.390625 22.1875 11.75 
Q 26.265625 6.109375 33.40625 6.109375 
Q 40.53125 6.109375 44.609375 11.75 
Q 48.6875 17.390625 48.6875 27.296875 
" id="BitstreamVeraSans-Roman-70"/>
      <path d="M 9.421875 54.6875 
L 18.40625 54.6875 
L 18.40625 0 
L 9.421875 0 
z
M 9.421875 75.984375 
L 18.40625 75.984375 
L 18.40625 64.59375 
L 9.421875 64.59375 
z
" id="BitstreamVeraSans-Roman-69"/>
      <path d="M 44.28125 53.078125 
L 44.28125 44.578125 
Q 40.484375 46.53125 36.375 47.5 
Q 32.28125 48.484375 27.875 48.484375 
Q 21.1875 48.484375 17.84375 46.4375 
Q 14.5 44.390625 14.5 40.28125 
Q 14.5 37.15625 16.890625 35.375 
Q 19.28125 33.59375 26.515625 31.984375 
L 29.59375 31.296875 
Q 39.15625 29.25 43.1875 25.515625 
Q 47.21875 21.78125 47.21875 15.09375 
Q 47.21875 7.46875 41.1875 3.015625 
Q 35.15625 -1.421875 24.609375 -1.421875 
Q 20.21875 -1.421875 15.453125 -0.5625 
Q 10.6875 0.296875 5.421875 2 
L 5.421875 11.28125 
Q 10.40625 8.6875 15.234375 7.390625 
Q 20.0625 6.109375 24.8125 6.109375 
Q 31.15625 6.109375 34.5625 8.28125 
Q 37.984375 10.453125 37.984375 14.40625 
Q 37.984375 18.0625 35.515625 20.015625 
Q 33.0625 21.96875 24.703125 23.78125 
L 21.578125 24.515625 
Q 13.234375 26.265625 9.515625 29.90625 
Q 5.8125 33.546875 5.8125 39.890625 
Q 5.8125 47.609375 11.28125 51.796875 
Q 16.75 56 26.8125 56 
Q 31.78125 56 36.171875 55.265625 
Q 40.578125 54.546875 44.28125 53.078125 
" id="BitstreamVeraSans-Roman-73"/>
      <path d="M 45.40625 46.390625 
L 45.40625 75.984375 
L 54.390625 75.984375 
L 54.390625 0 
L 45.40625 0 
L 45.40625 8.203125 
Q 42.578125 3.328125 38.25 0.953125 
Q 33.9375 -1.421875 27.875 -1.421875 
Q 17.96875 -1.421875 11.734375 6.484375 
Q 5.515625 14.40625 5.515625 27.296875 
Q 5.515625 40.1875 11.734375 48.09375 
Q 17.96875 56 27.875 56 
Q 33.9375 56 38.25 53.625 
Q 42.578125 51.265625 45.40625 46.390625 
M 14.796875 27.296875 
Q 14.796875 17.390625 18.875 11.75 
Q 22.953125 6.109375 30.078125 6.109375 
Q 37.203125 6.109375 41.296875 11.75 
Q 45.40625 17.390625 45.40625 27.296875 
Q 45.40625 37.203125 41.296875 42.84375 
Q 37.203125 48.484375 30.078125 48.484375 
Q 22.953125 48.484375 18.875 42.84375 
Q 14.796875 37.203125 14.796875 27.296875 
" id="BitstreamVeraSans-Roman-64"/>
      <path d="M 30.609375 48.390625 
Q 23.390625 48.390625 19.1875 42.75 
Q 14.984375 37.109375 14.984375 27.296875 
Q 14.984375 17.484375 19.15625 11.84375 
Q 23.34375 6.203125 30.609375 6.203125 
Q 37.796875 6.203125 41.984375 11.859375 
Q 46.1875 17.53125 46.1875 27.296875 
Q 46.1875 37.015625 41.984375 42.703125 
Q 37.796875 48.390625 30.609375 48.390625 
M 30.609375 56 
Q 42.328125 56 49.015625 48.375 
Q 55.71875 40.765625 55.71875 27.296875 
Q 55.71875 13.875 49.015625 6.21875 
Q 42.328125 -1.421875 30.609375 -1.421875 
Q 18.84375 -1.421875 12.171875 6.21875 
Q 5.515625 13.875 5.515625 27.296875 
Q 5.515625 40.765625 12.171875 48.375 
Q 18.84375 56 30.609375 56 
" id="BitstreamVeraSans-Roman-6f"/>
     </defs>
     <g transform="translate(246.631875 398.473625)scale(0.12 -0.12)">
      <use xlink:href="#BitstreamVeraSans-Roman-65"/>
      <use x="61.5234375" xlink:href="#BitstreamVeraSans-Roman-70"/>
      <use x="125.0" xlink:href="#BitstreamVeraSans-Roman-69"/>
      <use x="152.783203125" xlink:href="#BitstreamVeraSans-Roman-73"/>
      <use x="204.8828125" xlink:href="#BitstreamVeraSans-Roman-6f"/>
      <use x="266.064453125" xlink:href="#BitstreamVeraSans-Roman-64"/>
      <use x="329.541015625" xlink:href="#BitstreamVeraSans-Roman-65"/>
     </g>
    </g>
   </g>
   <g id="matplotlib.axis_2">
    <g id="ytick_1">
     <g id="line2d_14">
      <defs>
       <path d="M 0 0 
L 4 0 
" id="mf3add178ae" style="stroke:#000000;stroke-width:0.5;"/>
      </defs>
      <g>
       <use style="stroke:#000000;stroke-width:0.5;" x="46.8975" xlink:href="#mf3add178ae" y="368.74175"/>
      </g>
     </g>
     <g id="line2d_15">
      <defs>
       <path d="M 0 0 
L -4 0 
" id="m25bdb14df7" style="stroke:#000000;stroke-width:0.5;"/>
      </defs>
      <g>
       <use style="stroke:#000000;stroke-width:0.5;" x="493.2975" xlink:href="#m25bdb14df7" y="368.74175"/>
      </g>
     </g>
     <g id="text_8">
      <!-- 0.2 -->
      <defs>
       <path d="M 10.6875 12.40625 
L 21 12.40625 
L 21 0 
L 10.6875 0 
z
" id="BitstreamVeraSans-Roman-2e"/>
      </defs>
      <g transform="translate(23.81375 372.053)scale(0.12 -0.12)">
       <use xlink:href="#BitstreamVeraSans-Roman-30"/>
       <use x="63.623046875" xlink:href="#BitstreamVeraSans-Roman-2e"/>
       <use x="95.41015625" xlink:href="#BitstreamVeraSans-Roman-32"/>
      </g>
     </g>
    </g>
    <g id="ytick_2">
     <g id="line2d_16">
      <g>
       <use style="stroke:#000000;stroke-width:0.5;" x="46.8975" xlink:href="#mf3add178ae" y="319.370321429"/>
      </g>
     </g>
     <g id="line2d_17">
      <g>
       <use style="stroke:#000000;stroke-width:0.5;" x="493.2975" xlink:href="#m25bdb14df7" y="319.370321429"/>
      </g>
     </g>
     <g id="text_9">
      <!-- 0.4 -->
      <g transform="translate(23.81375 322.681571429)scale(0.12 -0.12)">
       <use xlink:href="#BitstreamVeraSans-Roman-30"/>
       <use x="63.623046875" xlink:href="#BitstreamVeraSans-Roman-2e"/>
       <use x="95.41015625" xlink:href="#BitstreamVeraSans-Roman-34"/>
      </g>
     </g>
    </g>
    <g id="ytick_3">
     <g id="line2d_18">
      <g>
       <use style="stroke:#000000;stroke-width:0.5;" x="46.8975" xlink:href="#mf3add178ae" y="269.998892857"/>
      </g>
     </g>
     <g id="line2d_19">
      <g>
       <use style="stroke:#000000;stroke-width:0.5;" x="493.2975" xlink:href="#m25bdb14df7" y="269.998892857"/>
      </g>
     </g>
     <g id="text_10">
      <!-- 0.6 -->
      <g transform="translate(23.81375 273.310142857)scale(0.12 -0.12)">
       <use xlink:href="#BitstreamVeraSans-Roman-30"/>
       <use x="63.623046875" xlink:href="#BitstreamVeraSans-Roman-2e"/>
       <use x="95.41015625" xlink:href="#BitstreamVeraSans-Roman-36"/>
      </g>
     </g>
    </g>
    <g id="ytick_4">
     <g id="line2d_20">
      <g>
       <use style="stroke:#000000;stroke-width:0.5;" x="46.8975" xlink:href="#mf3add178ae" y="220.627464286"/>
      </g>
     </g>
     <g id="line2d_21">
      <g>
       <use style="stroke:#000000;stroke-width:0.5;" x="493.2975" xlink:href="#m25bdb14df7" y="220.627464286"/>
      </g>
     </g>
     <g id="text_11">
      <!-- 0.8 -->
      <g transform="translate(23.81375 223.938714286)scale(0.12 -0.12)">
       <use xlink:href="#BitstreamVeraSans-Roman-30"/>
       <use x="63.623046875" xlink:href="#BitstreamVeraSans-Roman-2e"/>
       <use x="95.41015625" xlink:href="#BitstreamVeraSans-Roman-38"/>
      </g>
     </g>
    </g>
    <g id="ytick_5">
     <g id="line2d_22">
      <g>
       <use style="stroke:#000000;stroke-width:0.5;" x="46.8975" xlink:href="#mf3add178ae" y="171.256035714"/>
      </g>
     </g>
     <g id="line2d_23">
      <g>
       <use style="stroke:#000000;stroke-width:0.5;" x="493.2975" xlink:href="#m25bdb14df7" y="171.256035714"/>
      </g>
     </g>
     <g id="text_12">
      <!-- 1.0 -->
      <g transform="translate(23.81375 174.567285714)scale(0.12 -0.12)">
       <use xlink:href="#BitstreamVeraSans-Roman-31"/>
       <use x="63.623046875" xlink:href="#BitstreamVeraSans-Roman-2e"/>
       <use x="95.41015625" xlink:href="#BitstreamVeraSans-Roman-30"/>
      </g>
     </g>
    </g>
    <g id="ytick_6">
     <g id="line2d_24">
      <g>
       <use style="stroke:#000000;stroke-width:0.5;" x="46.8975" xlink:href="#mf3add178ae" y="121.884607143"/>
      </g>
     </g>
     <g id="line2d_25">
      <g>
       <use style="stroke:#000000;stroke-width:0.5;" x="493.2975" xlink:href="#m25bdb14df7" y="121.884607143"/>
      </g>
     </g>
     <g id="text_13">
      <!-- 1.2 -->
      <g transform="translate(23.81375 125.195857143)scale(0.12 -0.12)">
       <use xlink:href="#BitstreamVeraSans-Roman-31"/>
       <use x="63.623046875" xlink:href="#BitstreamVeraSans-Roman-2e"/>
       <use x="95.41015625" xlink:href="#BitstreamVeraSans-Roman-32"/>
      </g>
     </g>
    </g>
    <g id="ytick_7">
     <g id="line2d_26">
      <g>
       <use style="stroke:#000000;stroke-width:0.5;" x="46.8975" xlink:href="#mf3add178ae" y="72.5131785714"/>
      </g>
     </g>
     <g id="line2d_27">
      <g>
       <use style="stroke:#000000;stroke-width:0.5;" x="493.2975" xlink:href="#m25bdb14df7" y="72.5131785714"/>
      </g>
     </g>
     <g id="text_14">
      <!-- 1.4 -->
      <g transform="translate(23.81375 75.8244285714)scale(0.12 -0.12)">
       <use xlink:href="#BitstreamVeraSans-Roman-31"/>
       <use x="63.623046875" xlink:href="#BitstreamVeraSans-Roman-2e"/>
       <use x="95.41015625" xlink:href="#BitstreamVeraSans-Roman-34"/>
      </g>
     </g>
    </g>
    <g id="ytick_8">
     <g id="line2d_28">
      <g>
       <use style="stroke:#000000;stroke-width:0.5;" x="46.8975" xlink:href="#mf3add178ae" y="23.14175"/>
      </g>
     </g>
     <g id="line2d_29">
      <g>
       <use style="stroke:#000000;stroke-width:0.5;" x="493.2975" xlink:href="#m25bdb14df7" y="23.14175"/>
      </g>
     </g>
     <g id="text_15">
      <!-- 1.6 -->
      <g transform="translate(23.81375 26.453)scale(0.12 -0.12)">
       <use xlink:href="#BitstreamVeraSans-Roman-31"/>
       <use x="63.623046875" xlink:href="#BitstreamVeraSans-Roman-2e"/>
       <use x="95.41015625" xlink:href="#BitstreamVeraSans-Roman-36"/>
      </g>
     </g>
    </g>
    <g id="text_16">
     <!-- average maxQ -->
     <defs>
      <path d="M 45.40625 27.984375 
Q 45.40625 37.75 41.375 43.109375 
Q 37.359375 48.484375 30.078125 48.484375 
Q 22.859375 48.484375 18.828125 43.109375 
Q 14.796875 37.75 14.796875 27.984375 
Q 14.796875 18.265625 18.828125 12.890625 
Q 22.859375 7.515625 30.078125 7.515625 
Q 37.359375 7.515625 41.375 12.890625 
Q 45.40625 18.265625 45.40625 27.984375 
M 54.390625 6.78125 
Q 54.390625 -7.171875 48.1875 -13.984375 
Q 42 -20.796875 29.203125 -20.796875 
Q 24.46875 -20.796875 20.265625 -20.09375 
Q 16.0625 -19.390625 12.109375 -17.921875 
L 12.109375 -9.1875 
Q 16.0625 -11.328125 19.921875 -12.34375 
Q 23.78125 -13.375 27.78125 -13.375 
Q 36.625 -13.375 41.015625 -8.765625 
Q 45.40625 -4.15625 45.40625 5.171875 
L 45.40625 9.625 
Q 42.625 4.78125 38.28125 2.390625 
Q 33.9375 0 27.875 0 
Q 17.828125 0 11.671875 7.65625 
Q 5.515625 15.328125 5.515625 27.984375 
Q 5.515625 40.671875 11.671875 48.328125 
Q 17.828125 56 27.875 56 
Q 33.9375 56 38.28125 53.609375 
Q 42.625 51.21875 45.40625 46.390625 
L 45.40625 54.6875 
L 54.390625 54.6875 
z
" id="BitstreamVeraSans-Roman-67"/>
      <path d="M 52 44.1875 
Q 55.375 50.25 60.0625 53.125 
Q 64.75 56 71.09375 56 
Q 79.640625 56 84.28125 50.015625 
Q 88.921875 44.046875 88.921875 33.015625 
L 88.921875 0 
L 79.890625 0 
L 79.890625 32.71875 
Q 79.890625 40.578125 77.09375 44.375 
Q 74.3125 48.1875 68.609375 48.1875 
Q 61.625 48.1875 57.5625 43.546875 
Q 53.515625 38.921875 53.515625 30.90625 
L 53.515625 0 
L 44.484375 0 
L 44.484375 32.71875 
Q 44.484375 40.625 41.703125 44.40625 
Q 38.921875 48.1875 33.109375 48.1875 
Q 26.21875 48.1875 22.15625 43.53125 
Q 18.109375 38.875 18.109375 30.90625 
L 18.109375 0 
L 9.078125 0 
L 9.078125 54.6875 
L 18.109375 54.6875 
L 18.109375 46.1875 
Q 21.1875 51.21875 25.484375 53.609375 
Q 29.78125 56 35.6875 56 
Q 41.65625 56 45.828125 52.96875 
Q 50 49.953125 52 44.1875 
" id="BitstreamVeraSans-Roman-6d"/>
      <path d="M 39.40625 66.21875 
Q 28.65625 66.21875 22.328125 58.203125 
Q 16.015625 50.203125 16.015625 36.375 
Q 16.015625 22.609375 22.328125 14.59375 
Q 28.65625 6.59375 39.40625 6.59375 
Q 50.140625 6.59375 56.421875 14.59375 
Q 62.703125 22.609375 62.703125 36.375 
Q 62.703125 50.203125 56.421875 58.203125 
Q 50.140625 66.21875 39.40625 66.21875 
M 53.21875 1.3125 
L 66.21875 -12.890625 
L 54.296875 -12.890625 
L 43.5 -1.21875 
Q 41.890625 -1.3125 41.03125 -1.359375 
Q 40.1875 -1.421875 39.40625 -1.421875 
Q 24.03125 -1.421875 14.8125 8.859375 
Q 5.609375 19.140625 5.609375 36.375 
Q 5.609375 53.65625 14.8125 63.9375 
Q 24.03125 74.21875 39.40625 74.21875 
Q 54.734375 74.21875 63.90625 63.9375 
Q 73.09375 53.65625 73.09375 36.375 
Q 73.09375 23.6875 67.984375 14.640625 
Q 62.890625 5.609375 53.21875 1.3125 
" id="BitstreamVeraSans-Roman-51"/>
      <path d="M 34.28125 27.484375 
Q 23.390625 27.484375 19.1875 25 
Q 14.984375 22.515625 14.984375 16.5 
Q 14.984375 11.71875 18.140625 8.90625 
Q 21.296875 6.109375 26.703125 6.109375 
Q 34.1875 6.109375 38.703125 11.40625 
Q 43.21875 16.703125 43.21875 25.484375 
L 43.21875 27.484375 
z
M 52.203125 31.203125 
L 52.203125 0 
L 43.21875 0 
L 43.21875 8.296875 
Q 40.140625 3.328125 35.546875 0.953125 
Q 30.953125 -1.421875 24.3125 -1.421875 
Q 15.921875 -1.421875 10.953125 3.296875 
Q 6 8.015625 6 15.921875 
Q 6 25.140625 12.171875 29.828125 
Q 18.359375 34.515625 30.609375 34.515625 
L 43.21875 34.515625 
L 43.21875 35.40625 
Q 43.21875 41.609375 39.140625 45 
Q 35.0625 48.390625 27.6875 48.390625 
Q 23 48.390625 18.546875 47.265625 
Q 14.109375 46.140625 10.015625 43.890625 
L 10.015625 52.203125 
Q 14.9375 54.109375 19.578125 55.046875 
Q 24.21875 56 28.609375 56 
Q 40.484375 56 46.34375 49.84375 
Q 52.203125 43.703125 52.203125 31.203125 
" id="BitstreamVeraSans-Roman-61"/>
      <path d="M 41.109375 46.296875 
Q 39.59375 47.171875 37.8125 47.578125 
Q 36.03125 48 33.890625 48 
Q 26.265625 48 22.1875 43.046875 
Q 18.109375 38.09375 18.109375 28.8125 
L 18.109375 0 
L 9.078125 0 
L 9.078125 54.6875 
L 18.109375 54.6875 
L 18.109375 46.1875 
Q 20.953125 51.171875 25.484375 53.578125 
Q 30.03125 56 36.53125 56 
Q 37.453125 56 38.578125 55.875 
Q 39.703125 55.765625 41.0625 55.515625 
z
" id="BitstreamVeraSans-Roman-72"/>
      <path d="M 54.890625 54.6875 
L 35.109375 28.078125 
L 55.90625 0 
L 45.3125 0 
L 29.390625 21.484375 
L 13.484375 0 
L 2.875 0 
L 24.125 28.609375 
L 4.6875 54.6875 
L 15.28125 54.6875 
L 29.78125 35.203125 
L 44.28125 54.6875 
z
" id="BitstreamVeraSans-Roman-78"/>
      <path id="BitstreamVeraSans-Roman-20"/>
      <path d="M 2.984375 54.6875 
L 12.5 54.6875 
L 29.59375 8.796875 
L 46.6875 54.6875 
L 56.203125 54.6875 
L 35.6875 0 
L 23.484375 0 
z
" id="BitstreamVeraSans-Roman-76"/>
     </defs>
     <g transform="translate(16.318125 240.208625)rotate(-90.0)scale(0.12 -0.12)">
      <use xlink:href="#BitstreamVeraSans-Roman-61"/>
      <use x="61.279296875" xlink:href="#BitstreamVeraSans-Roman-76"/>
      <use x="120.458984375" xlink:href="#BitstreamVeraSans-Roman-65"/>
      <use x="181.982421875" xlink:href="#BitstreamVeraSans-Roman-72"/>
      <use x="223.095703125" xlink:href="#BitstreamVeraSans-Roman-61"/>
      <use x="284.375" xlink:href="#BitstreamVeraSans-Roman-67"/>
      <use x="347.8515625" xlink:href="#BitstreamVeraSans-Roman-65"/>
      <use x="409.375" xlink:href="#BitstreamVeraSans-Roman-20"/>
      <use x="441.162109375" xlink:href="#BitstreamVeraSans-Roman-6d"/>
      <use x="538.57421875" xlink:href="#BitstreamVeraSans-Roman-61"/>
      <use x="599.853515625" xlink:href="#BitstreamVeraSans-Roman-78"/>
      <use x="659.033203125" xlink:href="#BitstreamVeraSans-Roman-51"/>
     </g>
    </g>
   </g>
   <g id="text_17">
    <!-- Average maxQ per episode, joint 1 -->
    <defs>
     <path d="M 9.421875 54.6875 
L 18.40625 54.6875 
L 18.40625 -0.984375 
Q 18.40625 -11.421875 14.421875 -16.109375 
Q 10.453125 -20.796875 1.609375 -20.796875 
L -1.8125 -20.796875 
L -1.8125 -13.1875 
L 0.59375 -13.1875 
Q 5.71875 -13.1875 7.5625 -10.8125 
Q 9.421875 -8.453125 9.421875 -0.984375 
z
M 9.421875 75.984375 
L 18.40625 75.984375 
L 18.40625 64.59375 
L 9.421875 64.59375 
z
" id="BitstreamVeraSans-Roman-6a"/>
     <path d="M 18.3125 70.21875 
L 18.3125 54.6875 
L 36.8125 54.6875 
L 36.8125 47.703125 
L 18.3125 47.703125 
L 18.3125 18.015625 
Q 18.3125 11.328125 20.140625 9.421875 
Q 21.96875 7.515625 27.59375 7.515625 
L 36.8125 7.515625 
L 36.8125 0 
L 27.59375 0 
Q 17.1875 0 13.234375 3.875 
Q 9.28125 7.765625 9.28125 18.015625 
L 9.28125 47.703125 
L 2.6875 47.703125 
L 2.6875 54.6875 
L 9.28125 54.6875 
L 9.28125 70.21875 
z
" id="BitstreamVeraSans-Roman-74"/>
     <path d="M 34.1875 63.1875 
L 20.796875 26.90625 
L 47.609375 26.90625 
z
M 28.609375 72.90625 
L 39.796875 72.90625 
L 67.578125 0 
L 57.328125 0 
L 50.6875 18.703125 
L 17.828125 18.703125 
L 11.1875 0 
L 0.78125 0 
z
" id="BitstreamVeraSans-Roman-41"/>
     <path d="M 11.71875 12.40625 
L 22.015625 12.40625 
L 22.015625 4 
L 14.015625 -11.625 
L 7.71875 -11.625 
L 11.71875 4 
z
" id="BitstreamVeraSans-Roman-2c"/>
     <path d="M 54.890625 33.015625 
L 54.890625 0 
L 45.90625 0 
L 45.90625 32.71875 
Q 45.90625 40.484375 42.875 44.328125 
Q 39.84375 48.1875 33.796875 48.1875 
Q 26.515625 48.1875 22.3125 43.546875 
Q 18.109375 38.921875 18.109375 30.90625 
L 18.109375 0 
L 9.078125 0 
L 9.078125 54.6875 
L 18.109375 54.6875 
L 18.109375 46.1875 
Q 21.34375 51.125 25.703125 53.5625 
Q 30.078125 56 35.796875 56 
Q 45.21875 56 50.046875 50.171875 
Q 54.890625 44.34375 54.890625 33.015625 
" id="BitstreamVeraSans-Roman-6e"/>
    </defs>
    <g transform="translate(144.53625 18.14175)scale(0.144 -0.144)">
     <use xlink:href="#BitstreamVeraSans-Roman-41"/>
     <use x="68.330078125" xlink:href="#BitstreamVeraSans-Roman-76"/>
     <use x="127.509765625" xlink:href="#BitstreamVeraSans-Roman-65"/>
     <use x="189.033203125" xlink:href="#BitstreamVeraSans-Roman-72"/>
     <use x="230.146484375" xlink:href="#BitstreamVeraSans-Roman-61"/>
     <use x="291.42578125" xlink:href="#BitstreamVeraSans-Roman-67"/>
     <use x="354.90234375" xlink:href="#BitstreamVeraSans-Roman-65"/>
     <use x="416.42578125" xlink:href="#BitstreamVeraSans-Roman-20"/>
     <use x="448.212890625" xlink:href="#BitstreamVeraSans-Roman-6d"/>
     <use x="545.625" xlink:href="#BitstreamVeraSans-Roman-61"/>
     <use x="606.904296875" xlink:href="#BitstreamVeraSans-Roman-78"/>
     <use x="666.083984375" xlink:href="#BitstreamVeraSans-Roman-51"/>
     <use x="744.794921875" xlink:href="#BitstreamVeraSans-Roman-20"/>
     <use x="776.58203125" xlink:href="#BitstreamVeraSans-Roman-70"/>
     <use x="840.05859375" xlink:href="#BitstreamVeraSans-Roman-65"/>
     <use x="901.58203125" xlink:href="#BitstreamVeraSans-Roman-72"/>
     <use x="942.6953125" xlink:href="#BitstreamVeraSans-Roman-20"/>
     <use x="974.482421875" xlink:href="#BitstreamVeraSans-Roman-65"/>
     <use x="1036.005859375" xlink:href="#BitstreamVeraSans-Roman-70"/>
     <use x="1099.482421875" xlink:href="#BitstreamVeraSans-Roman-69"/>
     <use x="1127.265625" xlink:href="#BitstreamVeraSans-Roman-73"/>
     <use x="1179.365234375" xlink:href="#BitstreamVeraSans-Roman-6f"/>
     <use x="1240.546875" xlink:href="#BitstreamVeraSans-Roman-64"/>
     <use x="1304.0234375" xlink:href="#BitstreamVeraSans-Roman-65"/>
     <use x="1365.546875" xlink:href="#BitstreamVeraSans-Roman-2c"/>
     <use x="1397.333984375" xlink:href="#BitstreamVeraSans-Roman-20"/>
     <use x="1429.12109375" xlink:href="#BitstreamVeraSans-Roman-6a"/>
     <use x="1456.904296875" xlink:href="#BitstreamVeraSans-Roman-6f"/>
     <use x="1518.0859375" xlink:href="#BitstreamVeraSans-Roman-69"/>
     <use x="1545.869140625" xlink:href="#BitstreamVeraSans-Roman-6e"/>
     <use x="1609.248046875" xlink:href="#BitstreamVeraSans-Roman-74"/>
     <use x="1648.45703125" xlink:href="#BitstreamVeraSans-Roman-20"/>
     <use x="1680.244140625" xlink:href="#BitstreamVeraSans-Roman-31"/>
    </g>
   </g>
  </g>
 </g>
 <defs>
  <clipPath id="paabcc95e7f">
   <rect height="345.6" width="446.4" x="46.8975" y="23.14175"/>
  </clipPath>
 </defs>
</svg>
