<?xml version="1.0" encoding="utf-8" standalone="no"?>
<!DOCTYPE svg PUBLIC "-//W3C//DTD SVG 1.1//EN"
  "http://www.w3.org/Graphics/SVG/1.1/DTD/svg11.dtd">
<!-- Created with matplotlib (http://matplotlib.org/) -->
<svg height="408pt" version="1.1" viewBox="0 0 515 408" width="515pt" xmlns="http://www.w3.org/2000/svg" xmlns:xlink="http://www.w3.org/1999/xlink">
 <defs>
  <style type="text/css">
*{stroke-linecap:butt;stroke-linejoin:round;stroke-miterlimit:100000;}
  </style>
 </defs>
 <g id="figure_1">
  <g id="patch_1">
   <path d="M 0 408.16925 
L 515.7675 408.16925 
L 515.7675 0 
L 0 0 
z
" style="fill:#ffffff;"/>
  </g>
  <g id="axes_1">
   <g id="patch_2">
    <path d="M 46.8975 368.74175 
L 493.2975 368.74175 
L 493.2975 23.14175 
L 46.8975 23.14175 
z
" style="fill:#ffffff;"/>
   </g>
   <g id="line2d_1">
    <path clip-path="url(#p409efb9188)" d="M 46.8975 337.38348 
L 47.2695 335.846999 
L 47.6415 338.343347 
L 48.0135 335.893698 
L 48.3855 337.542486 
L 48.7575 338.169381 
L 49.1295 339.843047 
L 49.5015 339.993715 
L 49.8735 341.336078 
L 50.2455 335.110429 
L 50.6175 333.235101 
L 50.9895 335.088115 
L 51.3615 339.724289 
L 51.7335 334.68147 
L 52.1055 340.204154 
L 52.4775 336.925904 
L 52.8495 336.307437 
L 53.2215 337.4047 
L 53.5935 342.249627 
L 53.9655 336.016444 
L 54.3375 340.154583 
L 54.7095 340.185646 
L 55.0815 339.383839 
L 55.4535 337.220673 
L 55.8255 343.893472 
L 56.5695 335.899758 
L 56.9415 336.524007 
L 57.6855 340.464655 
L 58.4295 338.817084 
L 58.8015 337.232654 
L 59.1735 338.428275 
L 59.5455 337.926772 
L 59.9175 336.557551 
L 60.2895 336.050966 
L 60.6615 340.657985 
L 61.0335 337.86915 
L 61.7775 335.491579 
L 62.1495 339.920289 
L 62.5215 338.632672 
L 62.8935 340.607734 
L 63.2655 336.98825 
L 63.6375 335.690176 
L 64.0095 341.914953 
L 64.3815 335.790317 
L 65.1255 338.664419 
L 65.4975 335.97791 
L 65.8695 335.227955 
L 66.2415 338.798269 
L 66.6135 336.026283 
L 66.9855 337.422638 
L 67.3575 332.098293 
L 67.7295 339.973058 
L 68.4735 335.778715 
L 68.8455 338.212455 
L 69.2175 338.440832 
L 69.5895 338.201476 
L 69.9615 339.746218 
L 70.7055 336.175722 
L 71.0775 341.168757 
L 71.4495 336.41514 
L 71.8215 338.120449 
L 72.1935 337.808372 
L 72.5655 335.577296 
L 72.9375 340.636895 
L 73.3095 339.01583 
L 73.6815 342.956236 
L 74.0535 339.984037 
L 74.4255 338.498804 
L 74.7975 333.990627 
L 75.1695 341.090871 
L 75.5415 341.544364 
L 76.2855 335.375361 
L 76.6575 338.903254 
L 77.0295 338.70492 
L 77.4015 338.784945 
L 77.7735 336.482962 
L 78.1455 335.708909 
L 78.5175 337.063176 
L 78.8895 341.480466 
L 79.2615 335.271785 
L 79.6335 337.83375 
L 80.0055 339.557778 
L 80.3775 335.821094 
L 81.1215 339.432365 
L 81.4935 339.992492 
L 81.8655 339.549439 
L 82.2375 337.814028 
L 82.6095 334.950215 
L 82.9815 336.015426 
L 83.3535 337.684145 
L 83.7255 335.826095 
L 84.0975 340.460501 
L 84.8415 337.749488 
L 85.2135 338.370233 
L 85.5855 338.620484 
L 85.9575 338.532192 
L 86.3295 338.157696 
L 86.7015 339.276624 
L 87.0735 339.316607 
L 87.4455 339.613539 
L 87.8175 339.449132 
L 88.1895 340.307243 
L 88.5615 340.345074 
L 89.3055 339.878033 
L 89.6775 340.152519 
L 90.4215 340.16029 
L 90.7935 339.743472 
L 91.1655 339.967405 
L 91.5375 339.644114 
L 92.6535 339.233978 
L 93.0255 339.504391 
L 93.3975 338.814192 
L 94.1415 338.956579 
L 94.8855 337.984802 
L 95.2575 338.285455 
L 95.6295 338.268882 
L 96.0015 337.778415 
L 96.3735 335.59279 
L 96.7455 334.591975 
L 97.1175 337.343647 
L 97.4895 336.817465 
L 97.8615 334.711377 
L 98.2335 333.981223 
L 98.6055 334.065663 
L 98.9775 334.390365 
L 99.3495 335.058306 
L 99.7215 335.400921 
L 100.0935 335.484783 
L 100.8375 332.343732 
L 101.2095 332.51057 
L 101.5815 331.597956 
L 101.9535 332.484307 
L 102.3255 335.638977 
L 103.0695 331.167596 
L 103.4415 331.381045 
L 103.8135 330.604279 
L 104.1855 333.936514 
L 104.5575 330.379711 
L 104.9295 332.861622 
L 105.3015 329.836689 
L 105.6735 330.41344 
L 106.0455 330.527206 
L 106.4175 330.820493 
L 106.7895 330.77417 
L 107.1615 332.748157 
L 107.5335 328.781141 
L 107.9055 330.153045 
L 108.2775 329.198568 
L 108.6495 330.924564 
L 109.0215 331.278898 
L 109.3935 330.641266 
L 109.7655 329.395839 
L 110.1375 326.940183 
L 110.5095 329.183889 
L 110.8815 328.318757 
L 111.2535 329.037847 
L 111.6255 328.720043 
L 111.9975 328.163451 
L 112.3695 330.422712 
L 112.7415 331.032167 
L 113.1135 326.516742 
L 113.4855 325.976811 
L 113.8575 328.761382 
L 114.2295 325.614005 
L 114.6015 327.001026 
L 114.9735 324.498507 
L 115.3455 327.326267 
L 115.7175 326.949407 
L 116.0895 323.943622 
L 116.4615 329.570471 
L 116.8335 326.06799 
L 117.2055 326.764123 
L 117.5775 325.12347 
L 117.9495 327.095061 
L 118.3215 324.702123 
L 118.6935 323.725677 
L 119.0655 321.708494 
L 119.4375 323.113365 
L 119.8095 321.601554 
L 120.1815 321.459643 
L 120.5535 322.101121 
L 120.9255 323.700316 
L 121.2975 319.845229 
L 121.6695 324.888778 
L 122.0415 320.319927 
L 122.4135 324.914405 
L 122.7855 323.090844 
L 123.1575 318.97896 
L 123.5295 319.310658 
L 123.9015 322.135481 
L 124.2735 323.245242 
L 124.6455 320.747984 
L 125.0175 320.222564 
L 125.3895 321.728321 
L 125.7615 320.487988 
L 126.1335 321.9332 
L 126.5055 319.21924 
L 126.8775 321.264813 
L 127.2495 317.841286 
L 127.6215 315.632647 
L 127.9935 319.316174 
L 128.3655 318.133885 
L 128.7375 313.943706 
L 129.1095 314.633509 
L 129.4815 317.593607 
L 129.8535 319.621821 
L 130.2255 317.23296 
L 130.5975 312.652918 
L 130.9695 316.190858 
L 131.3415 316.815152 
L 131.7135 314.056248 
L 132.0855 313.140094 
L 132.4575 313.690622 
L 132.8295 317.216455 
L 133.2015 316.917494 
L 133.5735 315.408347 
L 133.9455 316.023236 
L 134.3175 317.357678 
L 134.6895 316.712346 
L 135.0615 308.592618 
L 135.4335 312.284025 
L 135.8055 310.20127 
L 136.1775 315.525821 
L 136.5495 308.071102 
L 136.9215 308.52292 
L 137.2935 307.555101 
L 137.6655 312.828598 
L 138.0375 306.667325 
L 138.4095 307.239274 
L 138.7815 312.705435 
L 139.1535 308.208717 
L 139.5255 308.13627 
L 139.8975 305.213644 
L 140.2695 306.188477 
L 140.6415 312.452106 
L 141.0135 304.496754 
L 141.3855 312.789809 
L 141.7575 310.650813 
L 142.1295 303.534523 
L 142.8735 301.922516 
L 143.2455 308.369111 
L 143.6175 310.376357 
L 143.9895 302.550585 
L 144.3615 307.446441 
L 144.7335 302.160722 
L 145.1055 300.334701 
L 145.4775 299.200769 
L 145.8495 304.821709 
L 146.2215 301.270565 
L 146.5935 303.385616 
L 146.9655 299.850185 
L 147.3375 306.241439 
L 147.7095 296.516166 
L 148.0815 298.143685 
L 148.4535 296.990664 
L 148.8255 298.052683 
L 149.1975 296.47294 
L 149.5695 300.36941 
L 149.9415 297.409444 
L 150.3135 298.503599 
L 150.6855 295.508059 
L 151.0575 296.048838 
L 151.4295 298.039172 
L 151.8015 295.576694 
L 152.1735 295.165176 
L 152.5455 296.855063 
L 152.9175 291.203967 
L 153.2895 294.404479 
L 153.6615 292.163531 
L 154.0335 291.515507 
L 154.4055 289.372525 
L 154.7775 291.688667 
L 155.1495 292.276349 
L 155.8935 288.334591 
L 156.2655 298.067385 
L 156.6375 298.729668 
L 157.0095 296.223716 
L 157.3815 292.928232 
L 157.7535 291.857175 
L 158.1255 288.53233 
L 158.4975 292.306583 
L 158.8695 285.314317 
L 159.2415 286.244677 
L 159.6135 290.402396 
L 159.9855 285.961346 
L 160.3575 285.621974 
L 160.7295 285.830572 
L 161.1015 290.793616 
L 161.4735 284.160417 
L 161.8455 291.375973 
L 162.2175 283.674792 
L 162.5895 284.50136 
L 162.9615 288.784166 
L 163.3335 285.008125 
L 163.7055 282.433324 
L 164.0775 281.50902 
L 164.4495 284.490576 
L 165.1935 280.519643 
L 165.5655 286.789033 
L 165.9375 283.916506 
L 166.3095 287.485456 
L 166.6815 276.913285 
L 167.0535 280.046075 
L 167.4255 280.422813 
L 167.7975 281.881279 
L 168.1695 277.719872 
L 168.5415 277.476545 
L 168.9135 275.367192 
L 169.2855 279.72389 
L 169.6575 279.446658 
L 170.0295 280.008589 
L 170.4015 275.213991 
L 170.7735 275.659712 
L 171.1455 274.896753 
L 171.5175 279.728548 
L 171.8895 276.028424 
L 172.2615 276.770621 
L 173.0055 271.97595 
L 173.3775 270.3773 
L 173.7495 276.40218 
L 174.1215 268.928404 
L 174.4935 269.429425 
L 174.8655 277.467483 
L 175.2375 267.619155 
L 175.6095 273.708817 
L 175.9815 266.114161 
L 176.3535 263.888635 
L 176.7255 270.632848 
L 177.0975 268.925136 
L 177.4695 272.239265 
L 177.8415 270.552894 
L 178.2135 264.90371 
L 178.5855 269.166203 
L 178.9575 265.216634 
L 179.3295 264.116308 
L 179.7015 263.534338 
L 180.0735 264.339807 
L 180.4455 268.122261 
L 180.8175 262.145197 
L 181.1895 261.74783 
L 181.5615 259.218844 
L 181.9335 261.922516 
L 182.3055 263.299525 
L 182.6775 266.014527 
L 183.0495 264.219549 
L 183.4215 265.732236 
L 183.7935 264.863523 
L 184.1655 265.686799 
L 184.5375 259.203783 
L 184.9095 255.644031 
L 185.2815 256.134169 
L 185.6535 256.365173 
L 186.0255 264.783961 
L 186.3975 250.21668 
L 186.7695 259.391854 
L 187.1415 256.504034 
L 187.5135 258.870467 
L 187.8855 253.332194 
L 188.2575 258.772645 
L 189.0015 247.460886 
L 189.3735 251.060138 
L 189.7455 247.039028 
L 190.1175 251.243314 
L 190.4895 250.042908 
L 190.8615 247.426286 
L 191.2335 246.27574 
L 191.6055 244.635275 
L 191.9775 248.534867 
L 192.3495 244.371088 
L 192.7215 246.002886 
L 193.0935 249.290435 
L 193.4655 251.423845 
L 194.2095 239.087747 
L 194.5815 247.330676 
L 194.9535 251.657906 
L 195.6975 243.342766 
L 196.0695 247.677932 
L 196.4415 246.757025 
L 196.8135 252.911246 
L 197.5575 235.845534 
L 197.9295 248.511277 
L 198.3015 239.672265 
L 198.6735 248.237316 
L 199.0455 253.545623 
L 199.4175 245.865073 
L 199.7895 235.747065 
L 200.1615 242.24711 
L 200.9055 234.711735 
L 201.2775 241.571936 
L 201.6495 238.314184 
L 202.0215 245.033348 
L 202.3935 235.293914 
L 202.7655 232.848233 
L 203.1375 235.524064 
L 203.5095 240.652135 
L 204.2535 228.191321 
L 204.6255 226.795753 
L 204.9975 234.170086 
L 205.3695 230.95581 
L 205.7415 232.019558 
L 206.1135 224.310407 
L 206.4855 243.118375 
L 206.8575 224.870654 
L 207.2295 231.882234 
L 207.6015 226.356763 
L 207.9735 229.937298 
L 208.3455 229.973463 
L 208.7175 225.415984 
L 209.0895 229.778157 
L 209.4615 228.948162 
L 209.8335 221.872807 
L 210.2055 232.7397 
L 210.5775 224.3373 
L 210.9495 226.545037 
L 211.3215 226.223506 
L 211.6935 225.166675 
L 212.0655 232.46421 
L 212.4375 218.262351 
L 212.8095 218.414081 
L 213.1815 224.572439 
L 213.5535 222.636298 
L 214.2975 221.742379 
L 214.6695 222.92807 
L 215.0415 224.555151 
L 215.4135 218.838082 
L 215.7855 218.133552 
L 216.1575 218.399058 
L 216.5295 220.017574 
L 216.9015 222.658446 
L 217.2735 217.211617 
L 217.6455 216.713663 
L 218.0175 216.47407 
L 218.3895 217.458386 
L 218.7615 216.837714 
L 219.1335 214.17775 
L 219.5055 219.826812 
L 220.2495 214.826757 
L 220.6215 220.350799 
L 220.9935 214.366363 
L 221.3655 213.573033 
L 221.7375 213.889934 
L 222.1095 208.934022 
L 222.4815 216.139523 
L 222.8535 215.885948 
L 223.2255 214.862748 
L 223.5975 209.996275 
L 223.9695 209.537686 
L 224.3415 215.372414 
L 224.7135 210.079557 
L 225.4575 208.926611 
L 225.8295 209.26145 
L 226.2015 209.012418 
L 226.5735 207.70662 
L 226.9455 209.371814 
L 227.3175 207.226471 
L 227.6895 208.488338 
L 228.0615 207.961378 
L 228.4335 206.374552 
L 228.8055 208.72697 
L 229.1775 207.519664 
L 229.5495 208.915748 
L 229.9215 208.798455 
L 230.2935 211.865414 
L 231.0375 203.67258 
L 231.4095 204.627424 
L 231.7815 205.112152 
L 232.1535 207.853512 
L 232.5255 202.367963 
L 232.8975 202.068228 
L 233.2695 211.693051 
L 233.6415 202.748007 
L 234.0135 196.659828 
L 234.7575 201.671973 
L 235.1295 209.557761 
L 235.5015 196.399356 
L 235.8735 196.200033 
L 236.2455 197.694853 
L 236.6175 196.05195 
L 236.9895 208.114967 
L 237.3615 195.473144 
L 237.7335 193.523896 
L 238.1055 207.180861 
L 238.4775 193.32116 
L 238.8495 196.94857 
L 239.2215 204.736314 
L 239.5935 189.604531 
L 239.9655 189.898154 
L 240.3375 188.675333 
L 240.7095 204.732467 
L 241.0815 202.602343 
L 241.4535 192.968188 
L 241.8255 199.960427 
L 242.1975 189.033558 
L 242.9415 184.633671 
L 243.3135 186.492457 
L 243.6855 185.880422 
L 244.0575 198.190522 
L 244.4295 185.820096 
L 244.8015 189.526876 
L 245.1735 184.989692 
L 245.5455 183.849354 
L 245.9175 193.360348 
L 246.2895 184.510438 
L 246.6615 181.543287 
L 247.0335 197.800111 
L 247.4055 197.13957 
L 247.7775 182.214585 
L 248.1495 196.53537 
L 248.5215 196.011684 
L 248.8935 187.500606 
L 249.2655 193.006749 
L 249.6375 182.920227 
L 250.0095 188.545887 
L 250.3815 196.175959 
L 250.7535 176.740891 
L 251.1255 192.995961 
L 251.4975 176.239205 
L 251.8695 190.853184 
L 252.2415 188.441153 
L 252.6135 191.794911 
L 252.9855 189.084635 
L 253.3575 174.545087 
L 254.1015 171.58138 
L 254.4735 172.193283 
L 254.8455 171.399204 
L 255.2175 189.416244 
L 255.5895 175.712439 
L 255.9615 188.566202 
L 256.3335 187.516911 
L 256.7055 177.326708 
L 257.0775 193.923413 
L 257.4495 171.494464 
L 257.8215 170.218684 
L 258.1935 183.243093 
L 258.5655 184.210238 
L 258.9375 186.968516 
L 259.3095 178.824234 
L 259.6815 183.40205 
L 260.0535 166.343361 
L 260.4255 185.207642 
L 260.7975 186.867792 
L 261.1695 165.356695 
L 261.5415 165.443409 
L 261.9135 167.88027 
L 262.2855 179.003167 
L 262.6575 169.496462 
L 263.0295 170.456475 
L 263.4015 162.16803 
L 263.7735 162.569285 
L 264.1455 178.600162 
L 264.8895 162.166645 
L 265.2615 160.096082 
L 265.6335 159.737547 
L 266.0055 158.254492 
L 266.3775 163.809511 
L 266.7495 161.183148 
L 267.1215 176.07892 
L 267.4935 158.824378 
L 267.8655 156.641102 
L 268.2375 163.993404 
L 268.6095 166.712487 
L 268.9815 161.308285 
L 269.3535 172.720307 
L 269.7255 156.415993 
L 270.0975 157.707747 
L 270.4695 153.521452 
L 270.8415 153.029999 
L 271.2135 155.035378 
L 271.5855 154.228268 
L 271.9575 169.94092 
L 272.3295 160.561349 
L 272.7015 171.504646 
L 273.0735 153.561121 
L 273.4455 152.663125 
L 273.8175 172.642745 
L 274.1895 159.702056 
L 274.5615 171.46494 
L 274.9335 163.483428 
L 275.3055 161.976081 
L 275.6775 152.933167 
L 276.4215 148.096684 
L 276.7935 171.716567 
L 277.1655 148.553019 
L 277.5375 156.671487 
L 277.9095 145.797926 
L 278.2815 151.674241 
L 278.6535 147.576266 
L 279.0255 147.646971 
L 279.3975 145.117856 
L 279.7695 144.92815 
L 280.1415 145.515004 
L 280.5135 159.759413 
L 280.8855 144.604974 
L 281.2575 143.095308 
L 281.6295 143.692359 
L 282.0015 142.510938 
L 282.3735 144.972723 
L 282.7455 141.893847 
L 283.1175 141.705673 
L 283.4895 140.48198 
L 283.8615 146.40308 
L 284.2335 150.037619 
L 284.6055 141.710469 
L 284.9775 139.218445 
L 285.3495 147.306353 
L 285.7215 146.169643 
L 286.0935 141.303639 
L 286.4655 159.262134 
L 286.8375 138.26412 
L 287.2095 134.951634 
L 287.5815 137.538308 
L 287.9535 136.468117 
L 288.3255 138.108833 
L 288.6975 136.285592 
L 289.0695 153.20503 
L 289.4415 146.478337 
L 289.8135 134.427466 
L 290.1855 141.053818 
L 290.5575 134.760263 
L 290.9295 139.586665 
L 291.3015 141.643743 
L 291.6735 152.365512 
L 292.0455 137.321745 
L 292.4175 141.586266 
L 292.7895 152.85368 
L 293.1615 138.929567 
L 293.5335 135.718611 
L 293.9055 131.221388 
L 294.2775 136.020142 
L 294.6495 137.366847 
L 295.0215 137.677951 
L 295.3935 141.592819 
L 296.1375 136.212838 
L 296.5095 142.405833 
L 296.8815 129.349936 
L 297.2535 133.121156 
L 297.6255 128.946948 
L 297.9975 127.814104 
L 298.3695 125.401522 
L 298.7415 129.839354 
L 299.1135 135.737694 
L 299.4855 129.262189 
L 299.8575 127.751819 
L 300.2295 146.878155 
L 300.6015 148.823473 
L 300.9735 146.256509 
L 301.3455 129.593584 
L 301.7175 135.957867 
L 302.4615 129.371264 
L 302.8335 120.601455 
L 303.2055 126.413531 
L 303.5775 145.307876 
L 303.9495 126.935059 
L 304.3215 146.840613 
L 304.6935 126.886339 
L 305.0655 128.713196 
L 305.4375 137.312461 
L 306.5535 120.958596 
L 306.9255 134.154371 
L 307.2975 128.461032 
L 307.6695 128.815726 
L 308.0415 128.157158 
L 308.4135 118.726602 
L 308.7855 128.684938 
L 309.1575 129.299908 
L 309.5295 131.325459 
L 309.9015 128.099379 
L 310.2735 131.185725 
L 310.6455 131.017227 
L 311.0175 132.388267 
L 311.3895 137.351732 
L 311.7615 132.576559 
L 312.1335 136.141431 
L 312.5055 131.463243 
L 312.8775 131.157229 
L 313.2495 136.155974 
L 313.6215 130.438349 
L 313.9935 129.840695 
L 314.3655 127.213747 
L 314.7375 126.439005 
L 315.1095 128.14206 
L 315.4815 120.396408 
L 315.8535 133.377415 
L 316.2255 131.099435 
L 316.9695 121.553959 
L 317.3415 119.448178 
L 317.7135 121.183065 
L 318.0855 109.889156 
L 318.4575 125.39894 
L 318.8295 124.456421 
L 319.2015 117.00254 
L 319.5735 115.654469 
L 319.9455 126.326299 
L 320.3175 120.065386 
L 320.6895 123.70541 
L 321.0615 136.922852 
L 321.4335 118.020402 
L 321.8055 119.223371 
L 322.1775 119.909184 
L 322.5495 115.770135 
L 322.9215 125.538375 
L 323.2935 122.476183 
L 323.6655 124.992725 
L 324.0375 128.486077 
L 324.4095 125.237091 
L 324.7815 115.332 
L 325.1535 114.909068 
L 325.5255 128.174276 
L 325.8975 134.67015 
L 326.2695 113.865276 
L 327.0135 124.711255 
L 327.3855 122.378589 
L 327.7575 111.6808 
L 328.1295 112.585137 
L 328.5015 112.995333 
L 328.8735 111.905311 
L 329.2455 108.147261 
L 329.6175 116.030452 
L 329.9895 103.956043 
L 330.3615 119.89072 
L 330.7335 116.570619 
L 331.1055 126.10793 
L 331.4775 109.121295 
L 331.8495 111.231102 
L 332.2215 109.849088 
L 332.5935 109.0608 
L 332.9655 117.92669 
L 333.3375 110.520563 
L 334.0815 102.161006 
L 334.4535 125.956915 
L 334.8255 108.240288 
L 335.1975 111.252041 
L 335.5695 119.452626 
L 335.9415 93.982511 
L 336.3135 107.138605 
L 336.6855 106.512814 
L 337.0575 101.687601 
L 337.4295 92.870515 
L 337.8015 100.065308 
L 338.1735 100.489458 
L 338.5455 92.626544 
L 338.9175 93.231764 
L 339.2895 99.371069 
L 339.6615 112.306961 
L 340.0335 102.835893 
L 340.4055 125.124925 
L 340.7775 89.315022 
L 341.1495 100.28547 
L 341.5215 95.973692 
L 341.8935 100.823033 
L 342.2655 97.689939 
L 342.6375 98.758561 
L 343.0095 99.454133 
L 343.3815 96.322696 
L 343.7535 108.496085 
L 344.1255 102.256827 
L 344.4975 105.226306 
L 344.8695 90.170426 
L 345.2415 87.966239 
L 345.6135 98.92293 
L 345.9855 114.757815 
L 346.3575 104.77417 
L 346.7295 118.199598 
L 347.1015 94.403488 
L 347.4735 98.296599 
L 347.8455 90.369315 
L 348.2175 95.543746 
L 348.9615 114.746668 
L 349.3335 84.845842 
L 349.7055 111.119383 
L 350.0775 93.341109 
L 350.4495 96.001075 
L 350.8215 97.69609 
L 351.1935 83.891605 
L 351.5655 92.235821 
L 351.9375 86.492691 
L 352.3095 83.837361 
L 352.6815 94.964968 
L 353.0535 97.800378 
L 353.7975 91.239498 
L 354.1695 91.852329 
L 354.5415 92.747496 
L 354.9135 111.939759 
L 355.2855 80.034017 
L 356.0295 112.866458 
L 356.4015 88.798964 
L 356.7735 105.645394 
L 357.1455 88.779144 
L 357.5175 87.443078 
L 357.8895 110.642451 
L 358.2615 86.497656 
L 358.6335 91.650181 
L 359.0055 99.399285 
L 359.3775 93.257763 
L 359.7495 94.619959 
L 360.1215 76.986884 
L 360.4935 78.588638 
L 360.8655 106.680479 
L 361.2375 111.526844 
L 361.6095 76.279938 
L 361.9815 107.240357 
L 362.3535 85.061837 
L 362.7255 80.83069 
L 363.0975 103.605512 
L 363.4695 93.090609 
L 363.8415 78.863936 
L 364.2135 86.43286 
L 364.5855 73.558635 
L 364.9575 74.653363 
L 365.3295 80.226954 
L 365.7015 83.695473 
L 366.0735 104.062572 
L 366.4455 86.20597 
L 366.8175 86.746455 
L 367.1895 73.969313 
L 367.5615 84.616056 
L 367.9335 100.485433 
L 368.3055 101.81727 
L 368.6775 79.139478 
L 369.0495 101.759351 
L 369.4215 80.832614 
L 369.7935 73.377508 
L 370.1655 104.972912 
L 370.5375 95.463444 
L 370.9095 74.353483 
L 371.2815 94.412272 
L 371.6535 83.200944 
L 372.0255 89.317911 
L 372.3975 77.930446 
L 372.7695 84.19676 
L 373.1415 102.414897 
L 373.5135 78.030119 
L 373.8855 82.560987 
L 374.2575 74.638834 
L 374.6295 85.656298 
L 375.0015 89.579522 
L 375.3735 78.343888 
L 375.7455 96.580496 
L 376.1175 90.738391 
L 376.4895 79.102322 
L 376.8615 96.22227 
L 377.2335 97.646322 
L 377.6055 94.944572 
L 377.9775 87.994416 
L 378.3495 96.476576 
L 378.7215 97.674151 
L 379.0935 82.328173 
L 379.4655 94.305354 
L 379.8375 92.827218 
L 380.5815 64.137068 
L 380.9535 91.641368 
L 381.3255 80.279346 
L 381.6975 74.966875 
L 382.0695 83.674211 
L 382.4415 101.107821 
L 382.8135 92.480326 
L 383.1855 78.127047 
L 383.5575 74.085208 
L 383.9295 91.830997 
L 384.3015 74.708496 
L 384.6735 86.548072 
L 385.0455 57.89876 
L 385.4175 88.748273 
L 385.7895 81.767453 
L 386.1615 89.818793 
L 386.5335 65.284255 
L 386.9055 91.171297 
L 387.2775 63.212952 
L 387.6495 81.724898 
L 388.0215 66.460389 
L 388.3935 71.03466 
L 388.7655 68.643099 
L 389.1375 75.968929 
L 389.5095 72.469481 
L 389.8815 72.688498 
L 390.2535 72.612628 
L 390.6255 83.172677 
L 390.9975 61.176455 
L 391.3695 70.396983 
L 391.7415 71.712677 
L 392.1135 63.303616 
L 392.4855 61.153964 
L 392.8575 70.258336 
L 393.2295 58.641881 
L 393.6015 73.667761 
L 393.9735 71.933557 
L 394.3455 72.744456 
L 394.7175 65.789074 
L 395.0895 88.809856 
L 395.4615 64.994811 
L 395.8335 69.115644 
L 396.2055 60.426248 
L 396.5775 58.195767 
L 396.9495 77.662936 
L 397.3215 83.864897 
L 398.0655 64.729515 
L 398.4375 83.03951 
L 398.8095 59.350909 
L 399.1815 60.459465 
L 399.5535 76.310059 
L 399.9255 62.675208 
L 400.2975 73.377362 
L 400.6695 64.546321 
L 401.0415 68.48293 
L 401.4135 73.620744 
L 401.7855 71.584797 
L 402.1575 87.606731 
L 402.5295 83.053393 
L 402.9015 86.76249 
L 403.2735 55.788682 
L 403.6455 67.644169 
L 404.0175 68.953707 
L 404.3895 58.185508 
L 404.7615 56.19912 
L 405.1335 80.385528 
L 406.2495 63.620909 
L 406.6215 64.511761 
L 406.9935 81.939457 
L 407.3655 64.469172 
L 407.7375 77.896719 
L 408.1095 83.966816 
L 408.4815 64.775737 
L 409.2255 72.171228 
L 409.5975 69.679513 
L 409.9695 55.051375 
L 410.3415 60.852423 
L 410.7135 60.519664 
L 411.0855 63.426321 
L 411.4575 80.830382 
L 411.8295 56.939449 
L 412.2015 85.804046 
L 412.9455 57.820972 
L 413.3175 75.50483 
L 413.6895 55.383246 
L 414.0615 61.359867 
L 414.4335 55.238806 
L 414.8055 76.922645 
L 415.1775 59.709393 
L 415.5495 59.694677 
L 416.2935 69.581178 
L 416.6655 57.467518 
L 417.0375 72.446327 
L 417.4095 57.752765 
L 417.7815 58.96455 
L 418.1535 57.791555 
L 418.5255 57.540459 
L 418.8975 75.03731 
L 419.2695 76.686245 
L 419.6415 53.183089 
L 420.0135 55.892326 
L 420.3855 52.572596 
L 420.7575 75.129867 
L 421.1295 49.268449 
L 421.5015 52.977935 
L 422.2455 56.953793 
L 422.6175 70.910882 
L 422.9895 48.86144 
L 423.3615 50.187767 
L 423.7335 42.55229 
L 424.1055 58.9105 
L 424.4775 50.024479 
L 424.8495 56.838887 
L 425.2215 47.520599 
L 425.5935 71.244687 
L 426.3375 71.32457 
L 426.7095 73.351529 
L 427.0815 47.17573 
L 427.4535 67.599018 
L 427.8255 72.87035 
L 428.1975 45.59594 
L 428.9415 52.933434 
L 429.3135 50.055777 
L 429.6855 51.056057 
L 430.0575 50.904254 
L 430.4295 70.220532 
L 430.8015 48.026229 
L 431.1735 44.428297 
L 431.5455 48.198093 
L 431.9175 54.757456 
L 432.2895 47.395685 
L 432.6615 45.892075 
L 433.0335 47.262001 
L 433.4055 45.858049 
L 433.7775 45.480645 
L 434.1495 47.016771 
L 434.5215 47.704657 
L 434.8935 43.66462 
L 435.2655 44.753248 
L 435.6375 46.587046 
L 436.0095 41.888596 
L 436.3815 42.548456 
L 436.7535 46.787096 
L 437.1255 34.261894 
L 437.4975 57.750447 
L 437.8695 53.264313 
L 438.2415 41.49469 
L 438.6135 42.78057 
L 438.9855 66.052732 
L 439.3575 44.411969 
L 439.7295 44.002392 
L 440.1015 41.112419 
L 440.4735 65.693369 
L 440.8455 41.354543 
L 441.2175 44.197992 
L 441.5895 43.473833 
L 441.9615 64.814627 
L 442.3335 63.885528 
L 442.7055 40.502394 
L 443.4495 44.421305 
L 443.8215 39.204587 
L 444.1935 56.926461 
L 444.9375 38.09224 
L 445.3095 42.621425 
L 445.6815 36.136277 
L 446.0535 62.712978 
L 446.4255 36.339929 
L 446.7975 42.042059 
L 447.1695 33.547358 
L 447.5415 42.340158 
L 447.9135 61.514501 
L 448.2855 59.178326 
L 448.6575 41.812005 
L 449.0295 41.616465 
L 449.4015 61.445542 
L 449.7735 46.920793 
L 450.1455 58.203001 
L 450.5175 38.527954 
L 450.8895 59.266624 
L 451.2615 41.972925 
L 451.6335 36.978381 
L 452.0055 56.633785 
L 452.3775 36.746458 
L 452.7495 58.542348 
L 453.1215 31.977394 
L 453.4935 36.160515 
L 453.8655 58.245273 
L 454.2375 56.025874 
L 454.6095 55.892693 
L 454.9815 36.114639 
L 455.3535 35.961065 
L 455.7255 29.709209 
L 455.7255 29.709209 
" style="fill:none;stroke:#0000ff;stroke-linecap:square;stroke-width:0.5;"/>
   </g>
   <g id="patch_3">
    <path d="M 46.8975 23.14175 
L 493.2975 23.14175 
" style="fill:none;stroke:#000000;stroke-linecap:square;stroke-linejoin:miter;"/>
   </g>
   <g id="patch_4">
    <path d="M 46.8975 368.74175 
L 493.2975 368.74175 
" style="fill:none;stroke:#000000;stroke-linecap:square;stroke-linejoin:miter;"/>
   </g>
   <g id="patch_5">
    <path d="M 493.2975 368.74175 
L 493.2975 23.14175 
" style="fill:none;stroke:#000000;stroke-linecap:square;stroke-linejoin:miter;"/>
   </g>
   <g id="patch_6">
    <path d="M 46.8975 368.74175 
L 46.8975 23.14175 
" style="fill:none;stroke:#000000;stroke-linecap:square;stroke-linejoin:miter;"/>
   </g>
   <g id="matplotlib.axis_1">
    <g id="xtick_1">
     <g id="line2d_2">
      <defs>
       <path d="M 0 0 
L 0 -4 
" id="mfe48353bf8" style="stroke:#000000;stroke-width:0.5;"/>
      </defs>
      <g>
       <use style="stroke:#000000;stroke-width:0.5;" x="46.8975" xlink:href="#mfe48353bf8" y="368.74175"/>
      </g>
     </g>
     <g id="line2d_3">
      <defs>
       <path d="M 0 0 
L 0 4 
" id="m0c5369ca28" style="stroke:#000000;stroke-width:0.5;"/>
      </defs>
      <g>
       <use style="stroke:#000000;stroke-width:0.5;" x="46.8975" xlink:href="#m0c5369ca28" y="23.14175"/>
      </g>
     </g>
     <g id="text_1">
      <!-- 0 -->
      <defs>
       <path d="M 31.78125 66.40625 
Q 24.171875 66.40625 20.328125 58.90625 
Q 16.5 51.421875 16.5 36.375 
Q 16.5 21.390625 20.328125 13.890625 
Q 24.171875 6.390625 31.78125 6.390625 
Q 39.453125 6.390625 43.28125 13.890625 
Q 47.125 21.390625 47.125 36.375 
Q 47.125 51.421875 43.28125 58.90625 
Q 39.453125 66.40625 31.78125 66.40625 
M 31.78125 74.21875 
Q 44.046875 74.21875 50.515625 64.515625 
Q 56.984375 54.828125 56.984375 36.375 
Q 56.984375 17.96875 50.515625 8.265625 
Q 44.046875 -1.421875 31.78125 -1.421875 
Q 19.53125 -1.421875 13.0625 8.265625 
Q 6.59375 17.96875 6.59375 36.375 
Q 6.59375 54.828125 13.0625 64.515625 
Q 19.53125 74.21875 31.78125 74.21875 
" id="BitstreamVeraSans-Roman-30"/>
      </defs>
      <g transform="translate(43.08 381.859875)scale(0.12 -0.12)">
       <use xlink:href="#BitstreamVeraSans-Roman-30"/>
      </g>
     </g>
    </g>
    <g id="xtick_2">
     <g id="line2d_4">
      <g>
       <use style="stroke:#000000;stroke-width:0.5;" x="121.2975" xlink:href="#mfe48353bf8" y="368.74175"/>
      </g>
     </g>
     <g id="line2d_5">
      <g>
       <use style="stroke:#000000;stroke-width:0.5;" x="121.2975" xlink:href="#m0c5369ca28" y="23.14175"/>
      </g>
     </g>
     <g id="text_2">
      <!-- 200 -->
      <defs>
       <path d="M 19.1875 8.296875 
L 53.609375 8.296875 
L 53.609375 0 
L 7.328125 0 
L 7.328125 8.296875 
Q 12.9375 14.109375 22.625 23.890625 
Q 32.328125 33.6875 34.8125 36.53125 
Q 39.546875 41.84375 41.421875 45.53125 
Q 43.3125 49.21875 43.3125 52.78125 
Q 43.3125 58.59375 39.234375 62.25 
Q 35.15625 65.921875 28.609375 65.921875 
Q 23.96875 65.921875 18.8125 64.3125 
Q 13.671875 62.703125 7.8125 59.421875 
L 7.8125 69.390625 
Q 13.765625 71.78125 18.9375 73 
Q 24.125 74.21875 28.421875 74.21875 
Q 39.75 74.21875 46.484375 68.546875 
Q 53.21875 62.890625 53.21875 53.421875 
Q 53.21875 48.921875 51.53125 44.890625 
Q 49.859375 40.875 45.40625 35.40625 
Q 44.1875 33.984375 37.640625 27.21875 
Q 31.109375 20.453125 19.1875 8.296875 
" id="BitstreamVeraSans-Roman-32"/>
      </defs>
      <g transform="translate(109.845 381.859875)scale(0.12 -0.12)">
       <use xlink:href="#BitstreamVeraSans-Roman-32"/>
       <use x="63.623046875" xlink:href="#BitstreamVeraSans-Roman-30"/>
       <use x="127.24609375" xlink:href="#BitstreamVeraSans-Roman-30"/>
      </g>
     </g>
    </g>
    <g id="xtick_3">
     <g id="line2d_6">
      <g>
       <use style="stroke:#000000;stroke-width:0.5;" x="195.6975" xlink:href="#mfe48353bf8" y="368.74175"/>
      </g>
     </g>
     <g id="line2d_7">
      <g>
       <use style="stroke:#000000;stroke-width:0.5;" x="195.6975" xlink:href="#m0c5369ca28" y="23.14175"/>
      </g>
     </g>
     <g id="text_3">
      <!-- 400 -->
      <defs>
       <path d="M 37.796875 64.3125 
L 12.890625 25.390625 
L 37.796875 25.390625 
z
M 35.203125 72.90625 
L 47.609375 72.90625 
L 47.609375 25.390625 
L 58.015625 25.390625 
L 58.015625 17.1875 
L 47.609375 17.1875 
L 47.609375 0 
L 37.796875 0 
L 37.796875 17.1875 
L 4.890625 17.1875 
L 4.890625 26.703125 
z
" id="BitstreamVeraSans-Roman-34"/>
      </defs>
      <g transform="translate(184.245 381.859875)scale(0.12 -0.12)">
       <use xlink:href="#BitstreamVeraSans-Roman-34"/>
       <use x="63.623046875" xlink:href="#BitstreamVeraSans-Roman-30"/>
       <use x="127.24609375" xlink:href="#BitstreamVeraSans-Roman-30"/>
      </g>
     </g>
    </g>
    <g id="xtick_4">
     <g id="line2d_8">
      <g>
       <use style="stroke:#000000;stroke-width:0.5;" x="270.0975" xlink:href="#mfe48353bf8" y="368.74175"/>
      </g>
     </g>
     <g id="line2d_9">
      <g>
       <use style="stroke:#000000;stroke-width:0.5;" x="270.0975" xlink:href="#m0c5369ca28" y="23.14175"/>
      </g>
     </g>
     <g id="text_4">
      <!-- 600 -->
      <defs>
       <path d="M 33.015625 40.375 
Q 26.375 40.375 22.484375 35.828125 
Q 18.609375 31.296875 18.609375 23.390625 
Q 18.609375 15.53125 22.484375 10.953125 
Q 26.375 6.390625 33.015625 6.390625 
Q 39.65625 6.390625 43.53125 10.953125 
Q 47.40625 15.53125 47.40625 23.390625 
Q 47.40625 31.296875 43.53125 35.828125 
Q 39.65625 40.375 33.015625 40.375 
M 52.59375 71.296875 
L 52.59375 62.3125 
Q 48.875 64.0625 45.09375 64.984375 
Q 41.3125 65.921875 37.59375 65.921875 
Q 27.828125 65.921875 22.671875 59.328125 
Q 17.53125 52.734375 16.796875 39.40625 
Q 19.671875 43.65625 24.015625 45.921875 
Q 28.375 48.1875 33.59375 48.1875 
Q 44.578125 48.1875 50.953125 41.515625 
Q 57.328125 34.859375 57.328125 23.390625 
Q 57.328125 12.15625 50.6875 5.359375 
Q 44.046875 -1.421875 33.015625 -1.421875 
Q 20.359375 -1.421875 13.671875 8.265625 
Q 6.984375 17.96875 6.984375 36.375 
Q 6.984375 53.65625 15.1875 63.9375 
Q 23.390625 74.21875 37.203125 74.21875 
Q 40.921875 74.21875 44.703125 73.484375 
Q 48.484375 72.75 52.59375 71.296875 
" id="BitstreamVeraSans-Roman-36"/>
      </defs>
      <g transform="translate(258.645 381.859875)scale(0.12 -0.12)">
       <use xlink:href="#BitstreamVeraSans-Roman-36"/>
       <use x="63.623046875" xlink:href="#BitstreamVeraSans-Roman-30"/>
       <use x="127.24609375" xlink:href="#BitstreamVeraSans-Roman-30"/>
      </g>
     </g>
    </g>
    <g id="xtick_5">
     <g id="line2d_10">
      <g>
       <use style="stroke:#000000;stroke-width:0.5;" x="344.4975" xlink:href="#mfe48353bf8" y="368.74175"/>
      </g>
     </g>
     <g id="line2d_11">
      <g>
       <use style="stroke:#000000;stroke-width:0.5;" x="344.4975" xlink:href="#m0c5369ca28" y="23.14175"/>
      </g>
     </g>
     <g id="text_5">
      <!-- 800 -->
      <defs>
       <path d="M 31.78125 34.625 
Q 24.75 34.625 20.71875 30.859375 
Q 16.703125 27.09375 16.703125 20.515625 
Q 16.703125 13.921875 20.71875 10.15625 
Q 24.75 6.390625 31.78125 6.390625 
Q 38.8125 6.390625 42.859375 10.171875 
Q 46.921875 13.96875 46.921875 20.515625 
Q 46.921875 27.09375 42.890625 30.859375 
Q 38.875 34.625 31.78125 34.625 
M 21.921875 38.8125 
Q 15.578125 40.375 12.03125 44.71875 
Q 8.5 49.078125 8.5 55.328125 
Q 8.5 64.0625 14.71875 69.140625 
Q 20.953125 74.21875 31.78125 74.21875 
Q 42.671875 74.21875 48.875 69.140625 
Q 55.078125 64.0625 55.078125 55.328125 
Q 55.078125 49.078125 51.53125 44.71875 
Q 48 40.375 41.703125 38.8125 
Q 48.828125 37.15625 52.796875 32.3125 
Q 56.78125 27.484375 56.78125 20.515625 
Q 56.78125 9.90625 50.3125 4.234375 
Q 43.84375 -1.421875 31.78125 -1.421875 
Q 19.734375 -1.421875 13.25 4.234375 
Q 6.78125 9.90625 6.78125 20.515625 
Q 6.78125 27.484375 10.78125 32.3125 
Q 14.796875 37.15625 21.921875 38.8125 
M 18.3125 54.390625 
Q 18.3125 48.734375 21.84375 45.5625 
Q 25.390625 42.390625 31.78125 42.390625 
Q 38.140625 42.390625 41.71875 45.5625 
Q 45.3125 48.734375 45.3125 54.390625 
Q 45.3125 60.0625 41.71875 63.234375 
Q 38.140625 66.40625 31.78125 66.40625 
Q 25.390625 66.40625 21.84375 63.234375 
Q 18.3125 60.0625 18.3125 54.390625 
" id="BitstreamVeraSans-Roman-38"/>
      </defs>
      <g transform="translate(333.045 381.859875)scale(0.12 -0.12)">
       <use xlink:href="#BitstreamVeraSans-Roman-38"/>
       <use x="63.623046875" xlink:href="#BitstreamVeraSans-Roman-30"/>
       <use x="127.24609375" xlink:href="#BitstreamVeraSans-Roman-30"/>
      </g>
     </g>
    </g>
    <g id="xtick_6">
     <g id="line2d_12">
      <g>
       <use style="stroke:#000000;stroke-width:0.5;" x="418.8975" xlink:href="#mfe48353bf8" y="368.74175"/>
      </g>
     </g>
     <g id="line2d_13">
      <g>
       <use style="stroke:#000000;stroke-width:0.5;" x="418.8975" xlink:href="#m0c5369ca28" y="23.14175"/>
      </g>
     </g>
     <g id="text_6">
      <!-- 1000 -->
      <defs>
       <path d="M 12.40625 8.296875 
L 28.515625 8.296875 
L 28.515625 63.921875 
L 10.984375 60.40625 
L 10.984375 69.390625 
L 28.421875 72.90625 
L 38.28125 72.90625 
L 38.28125 8.296875 
L 54.390625 8.296875 
L 54.390625 0 
L 12.40625 0 
z
" id="BitstreamVeraSans-Roman-31"/>
      </defs>
      <g transform="translate(403.6275 381.859875)scale(0.12 -0.12)">
       <use xlink:href="#BitstreamVeraSans-Roman-31"/>
       <use x="63.623046875" xlink:href="#BitstreamVeraSans-Roman-30"/>
       <use x="127.24609375" xlink:href="#BitstreamVeraSans-Roman-30"/>
       <use x="190.869140625" xlink:href="#BitstreamVeraSans-Roman-30"/>
      </g>
     </g>
    </g>
    <g id="xtick_7">
     <g id="line2d_14">
      <g>
       <use style="stroke:#000000;stroke-width:0.5;" x="493.2975" xlink:href="#mfe48353bf8" y="368.74175"/>
      </g>
     </g>
     <g id="line2d_15">
      <g>
       <use style="stroke:#000000;stroke-width:0.5;" x="493.2975" xlink:href="#m0c5369ca28" y="23.14175"/>
      </g>
     </g>
     <g id="text_7">
      <!-- 1200 -->
      <g transform="translate(478.0275 381.859875)scale(0.12 -0.12)">
       <use xlink:href="#BitstreamVeraSans-Roman-31"/>
       <use x="63.623046875" xlink:href="#BitstreamVeraSans-Roman-32"/>
       <use x="127.24609375" xlink:href="#BitstreamVeraSans-Roman-30"/>
       <use x="190.869140625" xlink:href="#BitstreamVeraSans-Roman-30"/>
      </g>
     </g>
    </g>
    <g id="text_8">
     <!-- episode -->
     <defs>
      <path d="M 9.421875 54.6875 
L 18.40625 54.6875 
L 18.40625 0 
L 9.421875 0 
z
M 9.421875 75.984375 
L 18.40625 75.984375 
L 18.40625 64.59375 
L 9.421875 64.59375 
z
" id="BitstreamVeraSans-Roman-69"/>
      <path d="M 44.28125 53.078125 
L 44.28125 44.578125 
Q 40.484375 46.53125 36.375 47.5 
Q 32.28125 48.484375 27.875 48.484375 
Q 21.1875 48.484375 17.84375 46.4375 
Q 14.5 44.390625 14.5 40.28125 
Q 14.5 37.15625 16.890625 35.375 
Q 19.28125 33.59375 26.515625 31.984375 
L 29.59375 31.296875 
Q 39.15625 29.25 43.1875 25.515625 
Q 47.21875 21.78125 47.21875 15.09375 
Q 47.21875 7.46875 41.1875 3.015625 
Q 35.15625 -1.421875 24.609375 -1.421875 
Q 20.21875 -1.421875 15.453125 -0.5625 
Q 10.6875 0.296875 5.421875 2 
L 5.421875 11.28125 
Q 10.40625 8.6875 15.234375 7.390625 
Q 20.0625 6.109375 24.8125 6.109375 
Q 31.15625 6.109375 34.5625 8.28125 
Q 37.984375 10.453125 37.984375 14.40625 
Q 37.984375 18.0625 35.515625 20.015625 
Q 33.0625 21.96875 24.703125 23.78125 
L 21.578125 24.515625 
Q 13.234375 26.265625 9.515625 29.90625 
Q 5.8125 33.546875 5.8125 39.890625 
Q 5.8125 47.609375 11.28125 51.796875 
Q 16.75 56 26.8125 56 
Q 31.78125 56 36.171875 55.265625 
Q 40.578125 54.546875 44.28125 53.078125 
" id="BitstreamVeraSans-Roman-73"/>
      <path d="M 18.109375 8.203125 
L 18.109375 -20.796875 
L 9.078125 -20.796875 
L 9.078125 54.6875 
L 18.109375 54.6875 
L 18.109375 46.390625 
Q 20.953125 51.265625 25.265625 53.625 
Q 29.59375 56 35.59375 56 
Q 45.5625 56 51.78125 48.09375 
Q 58.015625 40.1875 58.015625 27.296875 
Q 58.015625 14.40625 51.78125 6.484375 
Q 45.5625 -1.421875 35.59375 -1.421875 
Q 29.59375 -1.421875 25.265625 0.953125 
Q 20.953125 3.328125 18.109375 8.203125 
M 48.6875 27.296875 
Q 48.6875 37.203125 44.609375 42.84375 
Q 40.53125 48.484375 33.40625 48.484375 
Q 26.265625 48.484375 22.1875 42.84375 
Q 18.109375 37.203125 18.109375 27.296875 
Q 18.109375 17.390625 22.1875 11.75 
Q 26.265625 6.109375 33.40625 6.109375 
Q 40.53125 6.109375 44.609375 11.75 
Q 48.6875 17.390625 48.6875 27.296875 
" id="BitstreamVeraSans-Roman-70"/>
      <path d="M 56.203125 29.59375 
L 56.203125 25.203125 
L 14.890625 25.203125 
Q 15.484375 15.921875 20.484375 11.0625 
Q 25.484375 6.203125 34.421875 6.203125 
Q 39.59375 6.203125 44.453125 7.46875 
Q 49.3125 8.734375 54.109375 11.28125 
L 54.109375 2.78125 
Q 49.265625 0.734375 44.1875 -0.34375 
Q 39.109375 -1.421875 33.890625 -1.421875 
Q 20.796875 -1.421875 13.15625 6.1875 
Q 5.515625 13.8125 5.515625 26.8125 
Q 5.515625 40.234375 12.765625 48.109375 
Q 20.015625 56 32.328125 56 
Q 43.359375 56 49.78125 48.890625 
Q 56.203125 41.796875 56.203125 29.59375 
M 47.21875 32.234375 
Q 47.125 39.59375 43.09375 43.984375 
Q 39.0625 48.390625 32.421875 48.390625 
Q 24.90625 48.390625 20.390625 44.140625 
Q 15.875 39.890625 15.1875 32.171875 
z
" id="BitstreamVeraSans-Roman-65"/>
      <path d="M 30.609375 48.390625 
Q 23.390625 48.390625 19.1875 42.75 
Q 14.984375 37.109375 14.984375 27.296875 
Q 14.984375 17.484375 19.15625 11.84375 
Q 23.34375 6.203125 30.609375 6.203125 
Q 37.796875 6.203125 41.984375 11.859375 
Q 46.1875 17.53125 46.1875 27.296875 
Q 46.1875 37.015625 41.984375 42.703125 
Q 37.796875 48.390625 30.609375 48.390625 
M 30.609375 56 
Q 42.328125 56 49.015625 48.375 
Q 55.71875 40.765625 55.71875 27.296875 
Q 55.71875 13.875 49.015625 6.21875 
Q 42.328125 -1.421875 30.609375 -1.421875 
Q 18.84375 -1.421875 12.171875 6.21875 
Q 5.515625 13.875 5.515625 27.296875 
Q 5.515625 40.765625 12.171875 48.375 
Q 18.84375 56 30.609375 56 
" id="BitstreamVeraSans-Roman-6f"/>
      <path d="M 45.40625 46.390625 
L 45.40625 75.984375 
L 54.390625 75.984375 
L 54.390625 0 
L 45.40625 0 
L 45.40625 8.203125 
Q 42.578125 3.328125 38.25 0.953125 
Q 33.9375 -1.421875 27.875 -1.421875 
Q 17.96875 -1.421875 11.734375 6.484375 
Q 5.515625 14.40625 5.515625 27.296875 
Q 5.515625 40.1875 11.734375 48.09375 
Q 17.96875 56 27.875 56 
Q 33.9375 56 38.25 53.625 
Q 42.578125 51.265625 45.40625 46.390625 
M 14.796875 27.296875 
Q 14.796875 17.390625 18.875 11.75 
Q 22.953125 6.109375 30.078125 6.109375 
Q 37.203125 6.109375 41.296875 11.75 
Q 45.40625 17.390625 45.40625 27.296875 
Q 45.40625 37.203125 41.296875 42.84375 
Q 37.203125 48.484375 30.078125 48.484375 
Q 22.953125 48.484375 18.875 42.84375 
Q 14.796875 37.203125 14.796875 27.296875 
" id="BitstreamVeraSans-Roman-64"/>
     </defs>
     <g transform="translate(246.631875 398.473625)scale(0.12 -0.12)">
      <use xlink:href="#BitstreamVeraSans-Roman-65"/>
      <use x="61.5234375" xlink:href="#BitstreamVeraSans-Roman-70"/>
      <use x="125.0" xlink:href="#BitstreamVeraSans-Roman-69"/>
      <use x="152.783203125" xlink:href="#BitstreamVeraSans-Roman-73"/>
      <use x="204.8828125" xlink:href="#BitstreamVeraSans-Roman-6f"/>
      <use x="266.064453125" xlink:href="#BitstreamVeraSans-Roman-64"/>
      <use x="329.541015625" xlink:href="#BitstreamVeraSans-Roman-65"/>
     </g>
    </g>
   </g>
   <g id="matplotlib.axis_2">
    <g id="ytick_1">
     <g id="line2d_16">
      <defs>
       <path d="M 0 0 
L 4 0 
" id="m22fd51df53" style="stroke:#000000;stroke-width:0.5;"/>
      </defs>
      <g>
       <use style="stroke:#000000;stroke-width:0.5;" x="46.8975" xlink:href="#m22fd51df53" y="368.74175"/>
      </g>
     </g>
     <g id="line2d_17">
      <defs>
       <path d="M 0 0 
L -4 0 
" id="m38a78f78a6" style="stroke:#000000;stroke-width:0.5;"/>
      </defs>
      <g>
       <use style="stroke:#000000;stroke-width:0.5;" x="493.2975" xlink:href="#m38a78f78a6" y="368.74175"/>
      </g>
     </g>
     <g id="text_9">
      <!-- 0.0 -->
      <defs>
       <path d="M 10.6875 12.40625 
L 21 12.40625 
L 21 0 
L 10.6875 0 
z
" id="BitstreamVeraSans-Roman-2e"/>
      </defs>
      <g transform="translate(23.81375 372.053)scale(0.12 -0.12)">
       <use xlink:href="#BitstreamVeraSans-Roman-30"/>
       <use x="63.623046875" xlink:href="#BitstreamVeraSans-Roman-2e"/>
       <use x="95.41015625" xlink:href="#BitstreamVeraSans-Roman-30"/>
      </g>
     </g>
    </g>
    <g id="ytick_2">
     <g id="line2d_18">
      <g>
       <use style="stroke:#000000;stroke-width:0.5;" x="46.8975" xlink:href="#m22fd51df53" y="325.54175"/>
      </g>
     </g>
     <g id="line2d_19">
      <g>
       <use style="stroke:#000000;stroke-width:0.5;" x="493.2975" xlink:href="#m38a78f78a6" y="325.54175"/>
      </g>
     </g>
     <g id="text_10">
      <!-- 0.2 -->
      <g transform="translate(23.81375 328.853)scale(0.12 -0.12)">
       <use xlink:href="#BitstreamVeraSans-Roman-30"/>
       <use x="63.623046875" xlink:href="#BitstreamVeraSans-Roman-2e"/>
       <use x="95.41015625" xlink:href="#BitstreamVeraSans-Roman-32"/>
      </g>
     </g>
    </g>
    <g id="ytick_3">
     <g id="line2d_20">
      <g>
       <use style="stroke:#000000;stroke-width:0.5;" x="46.8975" xlink:href="#m22fd51df53" y="282.34175"/>
      </g>
     </g>
     <g id="line2d_21">
      <g>
       <use style="stroke:#000000;stroke-width:0.5;" x="493.2975" xlink:href="#m38a78f78a6" y="282.34175"/>
      </g>
     </g>
     <g id="text_11">
      <!-- 0.4 -->
      <g transform="translate(23.81375 285.653)scale(0.12 -0.12)">
       <use xlink:href="#BitstreamVeraSans-Roman-30"/>
       <use x="63.623046875" xlink:href="#BitstreamVeraSans-Roman-2e"/>
       <use x="95.41015625" xlink:href="#BitstreamVeraSans-Roman-34"/>
      </g>
     </g>
    </g>
    <g id="ytick_4">
     <g id="line2d_22">
      <g>
       <use style="stroke:#000000;stroke-width:0.5;" x="46.8975" xlink:href="#m22fd51df53" y="239.14175"/>
      </g>
     </g>
     <g id="line2d_23">
      <g>
       <use style="stroke:#000000;stroke-width:0.5;" x="493.2975" xlink:href="#m38a78f78a6" y="239.14175"/>
      </g>
     </g>
     <g id="text_12">
      <!-- 0.6 -->
      <g transform="translate(23.81375 242.453)scale(0.12 -0.12)">
       <use xlink:href="#BitstreamVeraSans-Roman-30"/>
       <use x="63.623046875" xlink:href="#BitstreamVeraSans-Roman-2e"/>
       <use x="95.41015625" xlink:href="#BitstreamVeraSans-Roman-36"/>
      </g>
     </g>
    </g>
    <g id="ytick_5">
     <g id="line2d_24">
      <g>
       <use style="stroke:#000000;stroke-width:0.5;" x="46.8975" xlink:href="#m22fd51df53" y="195.94175"/>
      </g>
     </g>
     <g id="line2d_25">
      <g>
       <use style="stroke:#000000;stroke-width:0.5;" x="493.2975" xlink:href="#m38a78f78a6" y="195.94175"/>
      </g>
     </g>
     <g id="text_13">
      <!-- 0.8 -->
      <g transform="translate(23.81375 199.253)scale(0.12 -0.12)">
       <use xlink:href="#BitstreamVeraSans-Roman-30"/>
       <use x="63.623046875" xlink:href="#BitstreamVeraSans-Roman-2e"/>
       <use x="95.41015625" xlink:href="#BitstreamVeraSans-Roman-38"/>
      </g>
     </g>
    </g>
    <g id="ytick_6">
     <g id="line2d_26">
      <g>
       <use style="stroke:#000000;stroke-width:0.5;" x="46.8975" xlink:href="#m22fd51df53" y="152.74175"/>
      </g>
     </g>
     <g id="line2d_27">
      <g>
       <use style="stroke:#000000;stroke-width:0.5;" x="493.2975" xlink:href="#m38a78f78a6" y="152.74175"/>
      </g>
     </g>
     <g id="text_14">
      <!-- 1.0 -->
      <g transform="translate(23.81375 156.053)scale(0.12 -0.12)">
       <use xlink:href="#BitstreamVeraSans-Roman-31"/>
       <use x="63.623046875" xlink:href="#BitstreamVeraSans-Roman-2e"/>
       <use x="95.41015625" xlink:href="#BitstreamVeraSans-Roman-30"/>
      </g>
     </g>
    </g>
    <g id="ytick_7">
     <g id="line2d_28">
      <g>
       <use style="stroke:#000000;stroke-width:0.5;" x="46.8975" xlink:href="#m22fd51df53" y="109.54175"/>
      </g>
     </g>
     <g id="line2d_29">
      <g>
       <use style="stroke:#000000;stroke-width:0.5;" x="493.2975" xlink:href="#m38a78f78a6" y="109.54175"/>
      </g>
     </g>
     <g id="text_15">
      <!-- 1.2 -->
      <g transform="translate(23.81375 112.853)scale(0.12 -0.12)">
       <use xlink:href="#BitstreamVeraSans-Roman-31"/>
       <use x="63.623046875" xlink:href="#BitstreamVeraSans-Roman-2e"/>
       <use x="95.41015625" xlink:href="#BitstreamVeraSans-Roman-32"/>
      </g>
     </g>
    </g>
    <g id="ytick_8">
     <g id="line2d_30">
      <g>
       <use style="stroke:#000000;stroke-width:0.5;" x="46.8975" xlink:href="#m22fd51df53" y="66.34175"/>
      </g>
     </g>
     <g id="line2d_31">
      <g>
       <use style="stroke:#000000;stroke-width:0.5;" x="493.2975" xlink:href="#m38a78f78a6" y="66.34175"/>
      </g>
     </g>
     <g id="text_16">
      <!-- 1.4 -->
      <g transform="translate(23.81375 69.653)scale(0.12 -0.12)">
       <use xlink:href="#BitstreamVeraSans-Roman-31"/>
       <use x="63.623046875" xlink:href="#BitstreamVeraSans-Roman-2e"/>
       <use x="95.41015625" xlink:href="#BitstreamVeraSans-Roman-34"/>
      </g>
     </g>
    </g>
    <g id="ytick_9">
     <g id="line2d_32">
      <g>
       <use style="stroke:#000000;stroke-width:0.5;" x="46.8975" xlink:href="#m22fd51df53" y="23.14175"/>
      </g>
     </g>
     <g id="line2d_33">
      <g>
       <use style="stroke:#000000;stroke-width:0.5;" x="493.2975" xlink:href="#m38a78f78a6" y="23.14175"/>
      </g>
     </g>
     <g id="text_17">
      <!-- 1.6 -->
      <g transform="translate(23.81375 26.453)scale(0.12 -0.12)">
       <use xlink:href="#BitstreamVeraSans-Roman-31"/>
       <use x="63.623046875" xlink:href="#BitstreamVeraSans-Roman-2e"/>
       <use x="95.41015625" xlink:href="#BitstreamVeraSans-Roman-36"/>
      </g>
     </g>
    </g>
    <g id="text_18">
     <!-- average maxQ -->
     <defs>
      <path d="M 41.109375 46.296875 
Q 39.59375 47.171875 37.8125 47.578125 
Q 36.03125 48 33.890625 48 
Q 26.265625 48 22.1875 43.046875 
Q 18.109375 38.09375 18.109375 28.8125 
L 18.109375 0 
L 9.078125 0 
L 9.078125 54.6875 
L 18.109375 54.6875 
L 18.109375 46.1875 
Q 20.953125 51.171875 25.484375 53.578125 
Q 30.03125 56 36.53125 56 
Q 37.453125 56 38.578125 55.875 
Q 39.703125 55.765625 41.0625 55.515625 
z
" id="BitstreamVeraSans-Roman-72"/>
      <path id="BitstreamVeraSans-Roman-20"/>
      <path d="M 52 44.1875 
Q 55.375 50.25 60.0625 53.125 
Q 64.75 56 71.09375 56 
Q 79.640625 56 84.28125 50.015625 
Q 88.921875 44.046875 88.921875 33.015625 
L 88.921875 0 
L 79.890625 0 
L 79.890625 32.71875 
Q 79.890625 40.578125 77.09375 44.375 
Q 74.3125 48.1875 68.609375 48.1875 
Q 61.625 48.1875 57.5625 43.546875 
Q 53.515625 38.921875 53.515625 30.90625 
L 53.515625 0 
L 44.484375 0 
L 44.484375 32.71875 
Q 44.484375 40.625 41.703125 44.40625 
Q 38.921875 48.1875 33.109375 48.1875 
Q 26.21875 48.1875 22.15625 43.53125 
Q 18.109375 38.875 18.109375 30.90625 
L 18.109375 0 
L 9.078125 0 
L 9.078125 54.6875 
L 18.109375 54.6875 
L 18.109375 46.1875 
Q 21.1875 51.21875 25.484375 53.609375 
Q 29.78125 56 35.6875 56 
Q 41.65625 56 45.828125 52.96875 
Q 50 49.953125 52 44.1875 
" id="BitstreamVeraSans-Roman-6d"/>
      <path d="M 39.40625 66.21875 
Q 28.65625 66.21875 22.328125 58.203125 
Q 16.015625 50.203125 16.015625 36.375 
Q 16.015625 22.609375 22.328125 14.59375 
Q 28.65625 6.59375 39.40625 6.59375 
Q 50.140625 6.59375 56.421875 14.59375 
Q 62.703125 22.609375 62.703125 36.375 
Q 62.703125 50.203125 56.421875 58.203125 
Q 50.140625 66.21875 39.40625 66.21875 
M 53.21875 1.3125 
L 66.21875 -12.890625 
L 54.296875 -12.890625 
L 43.5 -1.21875 
Q 41.890625 -1.3125 41.03125 -1.359375 
Q 40.1875 -1.421875 39.40625 -1.421875 
Q 24.03125 -1.421875 14.8125 8.859375 
Q 5.609375 19.140625 5.609375 36.375 
Q 5.609375 53.65625 14.8125 63.9375 
Q 24.03125 74.21875 39.40625 74.21875 
Q 54.734375 74.21875 63.90625 63.9375 
Q 73.09375 53.65625 73.09375 36.375 
Q 73.09375 23.6875 67.984375 14.640625 
Q 62.890625 5.609375 53.21875 1.3125 
" id="BitstreamVeraSans-Roman-51"/>
      <path d="M 54.890625 54.6875 
L 35.109375 28.078125 
L 55.90625 0 
L 45.3125 0 
L 29.390625 21.484375 
L 13.484375 0 
L 2.875 0 
L 24.125 28.609375 
L 4.6875 54.6875 
L 15.28125 54.6875 
L 29.78125 35.203125 
L 44.28125 54.6875 
z
" id="BitstreamVeraSans-Roman-78"/>
      <path d="M 2.984375 54.6875 
L 12.5 54.6875 
L 29.59375 8.796875 
L 46.6875 54.6875 
L 56.203125 54.6875 
L 35.6875 0 
L 23.484375 0 
z
" id="BitstreamVeraSans-Roman-76"/>
      <path d="M 45.40625 27.984375 
Q 45.40625 37.75 41.375 43.109375 
Q 37.359375 48.484375 30.078125 48.484375 
Q 22.859375 48.484375 18.828125 43.109375 
Q 14.796875 37.75 14.796875 27.984375 
Q 14.796875 18.265625 18.828125 12.890625 
Q 22.859375 7.515625 30.078125 7.515625 
Q 37.359375 7.515625 41.375 12.890625 
Q 45.40625 18.265625 45.40625 27.984375 
M 54.390625 6.78125 
Q 54.390625 -7.171875 48.1875 -13.984375 
Q 42 -20.796875 29.203125 -20.796875 
Q 24.46875 -20.796875 20.265625 -20.09375 
Q 16.0625 -19.390625 12.109375 -17.921875 
L 12.109375 -9.1875 
Q 16.0625 -11.328125 19.921875 -12.34375 
Q 23.78125 -13.375 27.78125 -13.375 
Q 36.625 -13.375 41.015625 -8.765625 
Q 45.40625 -4.15625 45.40625 5.171875 
L 45.40625 9.625 
Q 42.625 4.78125 38.28125 2.390625 
Q 33.9375 0 27.875 0 
Q 17.828125 0 11.671875 7.65625 
Q 5.515625 15.328125 5.515625 27.984375 
Q 5.515625 40.671875 11.671875 48.328125 
Q 17.828125 56 27.875 56 
Q 33.9375 56 38.28125 53.609375 
Q 42.625 51.21875 45.40625 46.390625 
L 45.40625 54.6875 
L 54.390625 54.6875 
z
" id="BitstreamVeraSans-Roman-67"/>
      <path d="M 34.28125 27.484375 
Q 23.390625 27.484375 19.1875 25 
Q 14.984375 22.515625 14.984375 16.5 
Q 14.984375 11.71875 18.140625 8.90625 
Q 21.296875 6.109375 26.703125 6.109375 
Q 34.1875 6.109375 38.703125 11.40625 
Q 43.21875 16.703125 43.21875 25.484375 
L 43.21875 27.484375 
z
M 52.203125 31.203125 
L 52.203125 0 
L 43.21875 0 
L 43.21875 8.296875 
Q 40.140625 3.328125 35.546875 0.953125 
Q 30.953125 -1.421875 24.3125 -1.421875 
Q 15.921875 -1.421875 10.953125 3.296875 
Q 6 8.015625 6 15.921875 
Q 6 25.140625 12.171875 29.828125 
Q 18.359375 34.515625 30.609375 34.515625 
L 43.21875 34.515625 
L 43.21875 35.40625 
Q 43.21875 41.609375 39.140625 45 
Q 35.0625 48.390625 27.6875 48.390625 
Q 23 48.390625 18.546875 47.265625 
Q 14.109375 46.140625 10.015625 43.890625 
L 10.015625 52.203125 
Q 14.9375 54.109375 19.578125 55.046875 
Q 24.21875 56 28.609375 56 
Q 40.484375 56 46.34375 49.84375 
Q 52.203125 43.703125 52.203125 31.203125 
" id="BitstreamVeraSans-Roman-61"/>
     </defs>
     <g transform="translate(16.318125 240.208625)rotate(-90.0)scale(0.12 -0.12)">
      <use xlink:href="#BitstreamVeraSans-Roman-61"/>
      <use x="61.279296875" xlink:href="#BitstreamVeraSans-Roman-76"/>
      <use x="120.458984375" xlink:href="#BitstreamVeraSans-Roman-65"/>
      <use x="181.982421875" xlink:href="#BitstreamVeraSans-Roman-72"/>
      <use x="223.095703125" xlink:href="#BitstreamVeraSans-Roman-61"/>
      <use x="284.375" xlink:href="#BitstreamVeraSans-Roman-67"/>
      <use x="347.8515625" xlink:href="#BitstreamVeraSans-Roman-65"/>
      <use x="409.375" xlink:href="#BitstreamVeraSans-Roman-20"/>
      <use x="441.162109375" xlink:href="#BitstreamVeraSans-Roman-6d"/>
      <use x="538.57421875" xlink:href="#BitstreamVeraSans-Roman-61"/>
      <use x="599.853515625" xlink:href="#BitstreamVeraSans-Roman-78"/>
      <use x="659.033203125" xlink:href="#BitstreamVeraSans-Roman-51"/>
     </g>
    </g>
   </g>
   <g id="text_19">
    <!-- Average maxQ per episode, joint 6 -->
    <defs>
     <path d="M 54.890625 33.015625 
L 54.890625 0 
L 45.90625 0 
L 45.90625 32.71875 
Q 45.90625 40.484375 42.875 44.328125 
Q 39.84375 48.1875 33.796875 48.1875 
Q 26.515625 48.1875 22.3125 43.546875 
Q 18.109375 38.921875 18.109375 30.90625 
L 18.109375 0 
L 9.078125 0 
L 9.078125 54.6875 
L 18.109375 54.6875 
L 18.109375 46.1875 
Q 21.34375 51.125 25.703125 53.5625 
Q 30.078125 56 35.796875 56 
Q 45.21875 56 50.046875 50.171875 
Q 54.890625 44.34375 54.890625 33.015625 
" id="BitstreamVeraSans-Roman-6e"/>
     <path d="M 11.71875 12.40625 
L 22.015625 12.40625 
L 22.015625 4 
L 14.015625 -11.625 
L 7.71875 -11.625 
L 11.71875 4 
z
" id="BitstreamVeraSans-Roman-2c"/>
     <path d="M 9.421875 54.6875 
L 18.40625 54.6875 
L 18.40625 -0.984375 
Q 18.40625 -11.421875 14.421875 -16.109375 
Q 10.453125 -20.796875 1.609375 -20.796875 
L -1.8125 -20.796875 
L -1.8125 -13.1875 
L 0.59375 -13.1875 
Q 5.71875 -13.1875 7.5625 -10.8125 
Q 9.421875 -8.453125 9.421875 -0.984375 
z
M 9.421875 75.984375 
L 18.40625 75.984375 
L 18.40625 64.59375 
L 9.421875 64.59375 
z
" id="BitstreamVeraSans-Roman-6a"/>
     <path d="M 18.3125 70.21875 
L 18.3125 54.6875 
L 36.8125 54.6875 
L 36.8125 47.703125 
L 18.3125 47.703125 
L 18.3125 18.015625 
Q 18.3125 11.328125 20.140625 9.421875 
Q 21.96875 7.515625 27.59375 7.515625 
L 36.8125 7.515625 
L 36.8125 0 
L 27.59375 0 
Q 17.1875 0 13.234375 3.875 
Q 9.28125 7.765625 9.28125 18.015625 
L 9.28125 47.703125 
L 2.6875 47.703125 
L 2.6875 54.6875 
L 9.28125 54.6875 
L 9.28125 70.21875 
z
" id="BitstreamVeraSans-Roman-74"/>
     <path d="M 34.1875 63.1875 
L 20.796875 26.90625 
L 47.609375 26.90625 
z
M 28.609375 72.90625 
L 39.796875 72.90625 
L 67.578125 0 
L 57.328125 0 
L 50.6875 18.703125 
L 17.828125 18.703125 
L 11.1875 0 
L 0.78125 0 
z
" id="BitstreamVeraSans-Roman-41"/>
    </defs>
    <g transform="translate(144.53625 18.14175)scale(0.144 -0.144)">
     <use xlink:href="#BitstreamVeraSans-Roman-41"/>
     <use x="68.330078125" xlink:href="#BitstreamVeraSans-Roman-76"/>
     <use x="127.509765625" xlink:href="#BitstreamVeraSans-Roman-65"/>
     <use x="189.033203125" xlink:href="#BitstreamVeraSans-Roman-72"/>
     <use x="230.146484375" xlink:href="#BitstreamVeraSans-Roman-61"/>
     <use x="291.42578125" xlink:href="#BitstreamVeraSans-Roman-67"/>
     <use x="354.90234375" xlink:href="#BitstreamVeraSans-Roman-65"/>
     <use x="416.42578125" xlink:href="#BitstreamVeraSans-Roman-20"/>
     <use x="448.212890625" xlink:href="#BitstreamVeraSans-Roman-6d"/>
     <use x="545.625" xlink:href="#BitstreamVeraSans-Roman-61"/>
     <use x="606.904296875" xlink:href="#BitstreamVeraSans-Roman-78"/>
     <use x="666.083984375" xlink:href="#BitstreamVeraSans-Roman-51"/>
     <use x="744.794921875" xlink:href="#BitstreamVeraSans-Roman-20"/>
     <use x="776.58203125" xlink:href="#BitstreamVeraSans-Roman-70"/>
     <use x="840.05859375" xlink:href="#BitstreamVeraSans-Roman-65"/>
     <use x="901.58203125" xlink:href="#BitstreamVeraSans-Roman-72"/>
     <use x="942.6953125" xlink:href="#BitstreamVeraSans-Roman-20"/>
     <use x="974.482421875" xlink:href="#BitstreamVeraSans-Roman-65"/>
     <use x="1036.005859375" xlink:href="#BitstreamVeraSans-Roman-70"/>
     <use x="1099.482421875" xlink:href="#BitstreamVeraSans-Roman-69"/>
     <use x="1127.265625" xlink:href="#BitstreamVeraSans-Roman-73"/>
     <use x="1179.365234375" xlink:href="#BitstreamVeraSans-Roman-6f"/>
     <use x="1240.546875" xlink:href="#BitstreamVeraSans-Roman-64"/>
     <use x="1304.0234375" xlink:href="#BitstreamVeraSans-Roman-65"/>
     <use x="1365.546875" xlink:href="#BitstreamVeraSans-Roman-2c"/>
     <use x="1397.333984375" xlink:href="#BitstreamVeraSans-Roman-20"/>
     <use x="1429.12109375" xlink:href="#BitstreamVeraSans-Roman-6a"/>
     <use x="1456.904296875" xlink:href="#BitstreamVeraSans-Roman-6f"/>
     <use x="1518.0859375" xlink:href="#BitstreamVeraSans-Roman-69"/>
     <use x="1545.869140625" xlink:href="#BitstreamVeraSans-Roman-6e"/>
     <use x="1609.248046875" xlink:href="#BitstreamVeraSans-Roman-74"/>
     <use x="1648.45703125" xlink:href="#BitstreamVeraSans-Roman-20"/>
     <use x="1680.244140625" xlink:href="#BitstreamVeraSans-Roman-36"/>
    </g>
   </g>
  </g>
 </g>
 <defs>
  <clipPath id="p409efb9188">
   <rect height="345.6" width="446.4" x="46.8975" y="23.14175"/>
  </clipPath>
 </defs>
</svg>
