<?xml version="1.0" encoding="utf-8" standalone="no"?>
<!DOCTYPE svg PUBLIC "-//W3C//DTD SVG 1.1//EN"
  "http://www.w3.org/Graphics/SVG/1.1/DTD/svg11.dtd">
<!-- Created with matplotlib (http://matplotlib.org/) -->
<svg height="408pt" version="1.1" viewBox="0 0 511 408" width="511pt" xmlns="http://www.w3.org/2000/svg" xmlns:xlink="http://www.w3.org/1999/xlink">
 <defs>
  <style type="text/css">
*{stroke-linecap:butt;stroke-linejoin:round;stroke-miterlimit:100000;}
  </style>
 </defs>
 <g id="figure_1">
  <g id="patch_1">
   <path d="M 0 408.16925 
L 511.95 408.16925 
L 511.95 0 
L 0 0 
z
" style="fill:#ffffff;"/>
  </g>
  <g id="axes_1">
   <g id="patch_2">
    <path d="M 46.8975 368.74175 
L 493.2975 368.74175 
L 493.2975 23.14175 
L 46.8975 23.14175 
z
" style="fill:#ffffff;"/>
   </g>
   <g id="line2d_1">
    <path clip-path="url(#p447c92167f)" d="M 47.535214 303.323931 
L 48.172929 275.560295 
L 48.810643 293.166966 
L 49.448357 285.032578 
L 50.086071 292.924117 
L 50.723786 289.100032 
L 51.3615 298.617572 
L 51.999214 293.464267 
L 52.636929 285.394961 
L 53.274643 300.240138 
L 53.912357 297.631528 
L 54.550071 294.38191 
L 55.187786 287.494743 
L 55.8255 285.544282 
L 56.463214 268.090847 
L 57.100929 295.098003 
L 57.738643 298.290455 
L 58.376357 307.559379 
L 59.014071 294.450194 
L 59.651786 296.686238 
L 60.2895 303.787634 
L 60.927214 280.78169 
L 61.564929 290.223095 
L 62.202643 281.520234 
L 62.840357 288.572311 
L 63.478071 293.146071 
L 64.115786 290.113907 
L 64.7535 302.559542 
L 65.391214 267.707488 
L 66.028929 284.431444 
L 66.666643 293.472899 
L 67.304357 286.979178 
L 67.942071 289.134902 
L 68.579786 290.302108 
L 69.2175 300.085566 
L 69.855214 295.13376 
L 70.492929 285.704154 
L 71.130643 296.06087 
L 71.768357 285.058953 
L 72.406071 294.149329 
L 73.043786 289.820014 
L 73.6815 302.893245 
L 74.319214 292.268472 
L 74.956929 277.291777 
L 75.594643 302.199127 
L 76.232357 286.878574 
L 76.870071 296.908598 
L 77.507786 281.285628 
L 78.1455 296.761652 
L 78.783214 299.357898 
L 79.420929 289.960649 
L 80.058643 286.533752 
L 80.696357 293.02697 
L 81.334071 290.687217 
L 81.971786 271.076244 
L 82.6095 292.120464 
L 83.247214 291.236939 
L 83.884929 293.563859 
L 84.522643 301.55103 
L 85.160357 283.685005 
L 85.798071 279.533289 
L 86.435786 305.833129 
L 87.0735 280.166121 
L 87.711214 287.767864 
L 88.348929 293.118434 
L 88.986643 293.800839 
L 89.624357 278.301759 
L 90.262071 284.259983 
L 90.899786 287.754706 
L 91.5375 301.426845 
L 92.175214 288.806272 
L 92.812929 297.37956 
L 93.450643 300.952125 
L 94.088357 287.860101 
L 94.726071 277.174259 
L 95.363786 292.173957 
L 96.0015 282.270214 
L 96.639214 288.194311 
L 97.276929 295.779246 
L 97.914643 279.932509 
L 98.552357 267.336538 
L 99.190071 281.511178 
L 99.827786 282.909378 
L 100.4655 294.812089 
L 101.103214 289.719996 
L 101.740929 283.474435 
L 102.378643 280.683937 
L 103.016357 287.818847 
L 103.654071 296.565181 
L 104.291786 289.852374 
L 104.9295 296.601731 
L 105.567214 263.121089 
L 106.204929 291.048191 
L 106.842643 286.681661 
L 107.480357 298.957447 
L 108.118071 294.368581 
L 108.755786 287.478029 
L 109.3935 298.868915 
L 110.031214 305.236824 
L 110.668929 297.346811 
L 111.306643 285.14365 
L 111.944357 286.741505 
L 112.582071 281.647782 
L 113.219786 295.121283 
L 113.8575 287.508178 
L 114.495214 290.892222 
L 115.132929 295.690783 
L 116.408357 273.084751 
L 117.046071 286.618808 
L 117.683786 272.759673 
L 118.3215 298.663962 
L 118.959214 295.69307 
L 119.596929 286.623879 
L 120.234643 290.804649 
L 120.872357 292.156972 
L 121.510071 291.620824 
L 122.147786 294.297175 
L 122.7855 281.204613 
L 123.423214 296.614765 
L 124.060929 305.182903 
L 124.698643 276.43353 
L 125.336357 292.523922 
L 125.974071 280.073631 
L 126.611786 285.911312 
L 127.2495 283.146035 
L 127.887214 305.846597 
L 128.524929 280.099906 
L 129.162643 298.188806 
L 129.800357 280.573925 
L 130.438071 275.636356 
L 131.075786 286.513292 
L 131.7135 271.767953 
L 132.351214 291.992547 
L 132.988929 300.839091 
L 133.626643 297.29924 
L 134.264357 295.553967 
L 134.902071 282.929065 
L 135.539786 288.753894 
L 136.1775 289.587967 
L 136.815214 295.374084 
L 137.452929 279.185228 
L 138.090643 288.478571 
L 138.728357 295.236597 
L 139.366071 293.611996 
L 140.003786 298.301171 
L 140.6415 287.66307 
L 141.279214 291.830767 
L 141.916929 294.749018 
L 142.554643 291.122632 
L 143.192357 290.76079 
L 143.830071 287.31732 
L 144.467786 286.094548 
L 145.1055 297.456359 
L 145.743214 285.122637 
L 146.380929 286.515553 
L 147.018643 278.412306 
L 147.656357 300.278071 
L 148.294071 311.315344 
L 148.931786 283.742126 
L 149.5695 268.388851 
L 150.207214 286.948336 
L 150.844929 274.706837 
L 151.482643 284.238882 
L 152.120357 286.974417 
L 152.758071 279.906439 
L 153.395786 285.110022 
L 154.0335 293.164934 
L 154.671214 293.445799 
L 155.308929 283.398389 
L 155.946643 275.311939 
L 156.584357 289.523694 
L 157.222071 297.723092 
L 157.859786 281.068844 
L 158.4975 271.693244 
L 159.772929 293.538142 
L 160.410643 284.076842 
L 161.048357 290.575036 
L 161.686071 299.624946 
L 162.323786 298.004535 
L 162.9615 291.178693 
L 163.599214 281.383651 
L 164.236929 287.840707 
L 164.874643 292.034941 
L 165.512357 300.287177 
L 166.150071 287.527411 
L 166.787786 297.18761 
L 167.4255 296.768973 
L 168.063214 289.831875 
L 168.700929 287.067613 
L 169.338643 296.645017 
L 169.976357 298.377724 
L 170.614071 299.492955 
L 171.251786 288.528299 
L 171.8895 283.374202 
L 172.527214 264.637224 
L 173.164929 296.026542 
L 173.802643 295.134874 
L 174.440357 276.478242 
L 175.078071 295.758993 
L 175.715786 295.823324 
L 176.3535 283.853196 
L 176.991214 299.471896 
L 177.628929 282.019055 
L 178.266643 301.27272 
L 178.904357 286.815758 
L 179.542071 298.315392 
L 180.179786 284.581422 
L 180.8175 294.149649 
L 181.455214 275.269637 
L 182.092929 273.184809 
L 183.368357 300.941881 
L 184.006071 292.550744 
L 184.643786 267.507339 
L 185.2815 289.064415 
L 186.556929 299.608524 
L 187.194643 290.944704 
L 187.832357 290.370802 
L 188.470071 296.854394 
L 189.107786 295.152524 
L 189.7455 275.799636 
L 190.383214 274.655592 
L 191.020929 276.822915 
L 191.658643 280.6893 
L 192.296357 294.158206 
L 192.934071 300.337303 
L 193.571786 284.080513 
L 194.2095 281.755962 
L 194.847214 298.890589 
L 195.484929 297.447462 
L 196.122643 280.399374 
L 196.760357 269.781444 
L 197.398071 298.792811 
L 198.035786 305.202776 
L 198.6735 297.038933 
L 199.311214 305.847421 
L 199.948929 289.395128 
L 200.586643 299.912794 
L 201.224357 301.466265 
L 201.862071 280.260379 
L 202.499786 279.598083 
L 203.1375 301.928164 
L 203.775214 274.030703 
L 204.412929 302.405748 
L 205.050643 289.033934 
L 205.688357 291.420271 
L 206.326071 282.963879 
L 207.6015 355.151547 
L 208.239214 341.196214 
L 208.876929 330.550058 
L 209.514643 314.407712 
L 210.152357 335.754787 
L 210.790071 311.816926 
L 211.427786 332.259465 
L 212.0655 327.957373 
L 212.703214 324.542159 
L 213.340929 325.725769 
L 213.978643 336.082874 
L 214.616357 323.882419 
L 215.254071 332.349835 
L 215.891786 333.562005 
L 216.5295 331.671376 
L 217.167214 326.82487 
L 217.804929 328.99572 
L 218.442643 326.885945 
L 219.718071 325.310589 
L 220.355786 330.318457 
L 220.9935 327.783546 
L 221.631214 324.531716 
L 222.268929 328.430097 
L 222.906643 327.9948 
L 223.544357 326.321122 
L 224.819786 328.595439 
L 225.4575 327.944432 
L 226.095214 323.29725 
L 226.732929 316.660792 
L 227.370643 323.260501 
L 228.008357 324.763356 
L 228.646071 323.54822 
L 229.9215 318.811674 
L 230.559214 327.922641 
L 231.196929 321.272006 
L 231.834643 321.85636 
L 232.472357 319.358981 
L 233.110071 314.214076 
L 233.747786 318.593038 
L 234.3855 312.608688 
L 235.023214 313.417137 
L 235.660929 317.342577 
L 236.298643 319.403211 
L 236.936357 314.507093 
L 237.574071 313.072623 
L 238.211786 327.095728 
L 238.8495 307.565423 
L 239.487214 311.023148 
L 240.124929 311.472385 
L 240.762643 304.630975 
L 241.400357 315.578733 
L 242.038071 299.756493 
L 243.3135 310.342075 
L 243.951214 309.222138 
L 244.588929 304.459034 
L 245.226643 308.921308 
L 245.864357 298.105586 
L 246.502071 300.436767 
L 247.139786 300.539879 
L 247.7775 298.590958 
L 248.415214 306.409943 
L 249.052929 308.104818 
L 249.690643 301.797742 
L 250.328357 306.025021 
L 250.966071 305.841265 
L 251.603786 296.884398 
L 252.2415 294.271635 
L 252.879214 295.038863 
L 254.154643 290.617546 
L 254.792357 295.875097 
L 255.430071 291.483466 
L 256.067786 293.51894 
L 257.343214 288.889077 
L 257.980929 291.32108 
L 258.618643 289.34066 
L 259.256357 284.299752 
L 259.894071 283.795604 
L 260.531786 295.463665 
L 261.1695 288.976974 
L 261.807214 292.94548 
L 263.082643 285.048224 
L 263.720357 283.990465 
L 264.358071 296.584664 
L 264.995786 289.9846 
L 265.6335 280.743826 
L 266.271214 282.322779 
L 266.908929 279.894263 
L 267.546643 281.153186 
L 268.184357 280.502202 
L 268.822071 288.861851 
L 270.0975 278.023627 
L 270.735214 279.432508 
L 271.372929 277.921117 
L 272.648357 272.036882 
L 273.923786 279.34827 
L 274.5615 280.270335 
L 275.199214 275.000047 
L 275.836929 273.086038 
L 276.474643 258.963938 
L 277.112357 269.490442 
L 277.750071 278.17023 
L 278.387786 276.254523 
L 279.0255 272.01978 
L 279.663214 269.479122 
L 280.300929 267.784061 
L 281.576357 273.580792 
L 282.214071 273.622572 
L 282.851786 269.465832 
L 284.127214 273.467158 
L 284.764929 260.929823 
L 285.402643 270.532582 
L 286.040357 265.337673 
L 286.678071 258.592081 
L 287.315786 261.394693 
L 287.9535 273.782005 
L 288.591214 272.384703 
L 289.228929 259.811445 
L 289.866643 262.79388 
L 290.504357 257.270493 
L 291.142071 265.519948 
L 291.779786 259.78699 
L 292.4175 255.35934 
L 293.055214 257.643441 
L 293.692929 258.621095 
L 294.330643 253.266361 
L 294.968357 256.307366 
L 295.606071 248.660296 
L 296.243786 256.358144 
L 296.8815 253.152287 
L 297.519214 252.086794 
L 298.156929 249.280788 
L 298.794643 252.008979 
L 299.432357 250.076176 
L 300.070071 262.420868 
L 300.707786 263.824178 
L 301.3455 251.080143 
L 301.983214 251.030543 
L 302.620929 247.719528 
L 303.258643 248.774957 
L 303.896357 245.096831 
L 304.534071 251.710707 
L 305.171786 246.823027 
L 305.8095 242.798168 
L 306.447214 240.804934 
L 307.084929 246.371157 
L 307.722643 246.016098 
L 308.360357 242.227343 
L 308.998071 247.621796 
L 309.635786 250.08494 
L 310.2735 253.152791 
L 310.911214 240.04284 
L 311.548929 246.470604 
L 312.186643 241.212412 
L 312.824357 237.526884 
L 313.462071 212.730736 
L 314.099786 226.654807 
L 314.7375 244.740876 
L 315.375214 245.845055 
L 316.012929 239.192087 
L 316.650643 240.861713 
L 317.288357 232.037077 
L 317.926071 243.133479 
L 318.563786 231.911612 
L 319.2015 237.181646 
L 319.839214 234.313021 
L 320.476929 235.803968 
L 321.114643 210.500308 
L 321.752357 231.26404 
L 322.390071 234.790761 
L 323.027786 222.54096 
L 323.6655 221.991506 
L 324.303214 223.525987 
L 324.940929 235.65194 
L 325.578643 229.659644 
L 326.216357 210.102643 
L 326.854071 223.625888 
L 327.491786 199.014993 
L 328.1295 210.926838 
L 328.767214 207.731857 
L 329.404929 226.285378 
L 330.042643 229.481706 
L 330.680357 218.14823 
L 331.318071 221.767675 
L 331.955786 214.721102 
L 332.5935 221.429908 
L 333.231214 224.729019 
L 333.868929 213.565034 
L 334.506643 210.001643 
L 335.144357 210.18195 
L 335.782071 221.807087 
L 336.419786 220.357743 
L 337.0575 216.131594 
L 337.695214 220.082043 
L 338.332929 219.038502 
L 338.970643 223.343487 
L 339.608357 224.50035 
L 340.246071 214.934883 
L 340.883786 175.008969 
L 342.159214 240.226954 
L 342.796929 215.051352 
L 343.434643 208.344121 
L 344.072357 216.821163 
L 344.710071 209.706923 
L 345.347786 199.46311 
L 345.9855 203.196685 
L 346.623214 207.869405 
L 347.260929 199.595209 
L 347.898643 227.915303 
L 348.536357 184.258755 
L 349.174071 207.420975 
L 349.811786 210.205278 
L 350.4495 208.686847 
L 351.087214 196.323662 
L 351.724929 204.824676 
L 352.362643 198.060233 
L 353.000357 210.162473 
L 353.638071 204.725052 
L 354.275786 204.370248 
L 354.9135 208.292959 
L 355.551214 210.841055 
L 356.188929 204.470078 
L 356.826643 203.542281 
L 357.464357 162.229376 
L 358.102071 221.404207 
L 358.739786 201.444478 
L 359.3775 195.678904 
L 360.015214 203.707432 
L 360.652929 204.674857 
L 361.290643 207.549949 
L 361.928357 167.247198 
L 362.566071 195.18835 
L 363.203786 192.400201 
L 363.8415 197.94857 
L 364.479214 188.149446 
L 365.116929 199.2379 
L 365.754643 198.696957 
L 366.392357 195.923934 
L 367.030071 199.949789 
L 367.667786 190.193062 
L 368.943214 193.559899 
L 369.580929 166.133652 
L 370.218643 189.745814 
L 370.856357 190.634518 
L 372.131786 194.391771 
L 372.7695 188.917988 
L 373.407214 187.377255 
L 374.044929 186.785471 
L 374.682643 183.484994 
L 375.320357 181.412318 
L 375.958071 184.528293 
L 376.595786 156.470953 
L 377.2335 175.291269 
L 377.871214 183.20894 
L 378.508929 163.681882 
L 379.146643 180.67052 
L 379.784357 176.513622 
L 380.422071 187.797703 
L 381.059786 206.71479 
L 381.6975 141.477479 
L 382.335214 172.214846 
L 382.972929 180.109163 
L 383.610643 166.256537 
L 384.886071 167.493648 
L 385.523786 179.870613 
L 386.1615 189.77781 
L 386.799214 183.850642 
L 387.436929 173.477836 
L 388.074643 177.70623 
L 388.712357 179.190537 
L 389.350071 166.405485 
L 389.987786 172.825183 
L 390.6255 172.165061 
L 391.263214 182.923767 
L 391.900929 168.17715 
L 392.538643 172.375945 
L 393.176357 178.734835 
L 393.814071 174.580887 
L 394.451786 173.839151 
L 395.0895 125.879264 
L 395.727214 167.660621 
L 396.364929 140.245592 
L 397.002643 153.891838 
L 397.640357 120.35032 
L 398.278071 167.108817 
L 398.915786 157.193132 
L 399.5535 153.680794 
L 400.191214 162.598461 
L 400.828929 164.957485 
L 401.466643 153.508968 
L 402.104357 163.634905 
L 402.742071 165.428971 
L 403.379786 171.783819 
L 404.0175 164.169323 
L 404.655214 171.120477 
L 405.930643 125.991242 
L 407.206071 150.850783 
L 407.843786 136.506196 
L 408.4815 159.403308 
L 409.119214 151.775884 
L 409.756929 166.019208 
L 410.394643 140.695029 
L 411.032357 143.320741 
L 411.670071 142.955081 
L 412.307786 164.885969 
L 412.9455 114.6713 
L 413.583214 182.833403 
L 414.220929 126.835457 
L 414.858643 123.292094 
L 415.496357 146.146229 
L 416.134071 145.538068 
L 416.771786 144.626629 
L 417.4095 154.878754 
L 418.047214 154.752633 
L 418.684929 140.767475 
L 419.322643 110.610323 
L 419.960357 134.284276 
L 420.598071 137.430451 
L 421.235786 153.449835 
L 421.8735 127.991331 
L 422.511214 129.52466 
L 423.148929 150.311846 
L 423.786643 127.386691 
L 424.424357 130.108869 
L 425.062071 138.728615 
L 425.699786 141.445394 
L 426.3375 137.519057 
L 426.975214 144.564879 
L 427.612929 134.887863 
L 428.250643 133.752597 
L 428.888357 136.637356 
L 429.526071 143.4952 
L 430.163786 93.700919 
L 430.8015 90.939123 
L 431.439214 98.57505 
L 432.076929 81.133383 
L 432.714643 143.895099 
L 433.352357 117.979425 
L 433.990071 143.832424 
L 434.627786 149.680204 
L 435.2655 75.165882 
L 435.903214 132.674997 
L 436.540929 133.215091 
L 437.178643 86.746235 
L 437.816357 127.850385 
L 438.454071 119.324219 
L 439.091786 125.804025 
L 439.7295 67.925542 
L 440.367214 108.903797 
L 441.004929 120.885183 
L 441.642643 124.507246 
L 442.280357 97.89876 
L 442.918071 124.310292 
L 443.555786 135.631087 
L 444.1935 68.355563 
L 444.831214 95.884723 
L 445.468929 63.483746 
L 446.106643 52.381752 
L 446.744357 123.136263 
L 447.382071 47.666043 
L 448.019786 96.442885 
L 448.6575 89.122199 
L 449.295214 94.79738 
L 449.932929 105.416038 
L 450.570643 88.859906 
L 451.208357 104.948733 
L 451.846071 103.710212 
L 452.483786 77.184152 
L 453.1215 99.109854 
L 453.759214 116.155395 
L 454.396929 128.099828 
L 455.034643 65.468592 
L 455.672357 97.39608 
L 456.310071 100.568119 
L 456.947786 80.598894 
L 457.5855 117.694124 
L 458.223214 67.116355 
L 458.860929 90.206042 
L 459.498643 81.535515 
L 460.136357 106.263049 
L 460.774071 111.295393 
L 461.411786 102.878429 
L 462.0495 114.548438 
L 462.687214 88.21371 
L 463.324929 91.064372 
L 463.962643 30.641686 
L 464.600357 85.790987 
L 465.238071 76.573862 
L 465.875786 58.061543 
L 466.5135 119.551291 
L 467.151214 74.009744 
L 467.788929 99.422216 
L 468.426643 66.094406 
L 469.702071 114.248683 
L 470.339786 30.220308 
L 470.339786 30.220308 
" style="fill:none;stroke:#0000ff;stroke-linecap:square;stroke-width:0.5;"/>
   </g>
   <g id="patch_3">
    <path d="M 46.8975 368.74175 
L 493.2975 368.74175 
" style="fill:none;stroke:#000000;stroke-linecap:square;stroke-linejoin:miter;"/>
   </g>
   <g id="patch_4">
    <path d="M 46.8975 368.74175 
L 46.8975 23.14175 
" style="fill:none;stroke:#000000;stroke-linecap:square;stroke-linejoin:miter;"/>
   </g>
   <g id="patch_5">
    <path d="M 46.8975 23.14175 
L 493.2975 23.14175 
" style="fill:none;stroke:#000000;stroke-linecap:square;stroke-linejoin:miter;"/>
   </g>
   <g id="patch_6">
    <path d="M 493.2975 368.74175 
L 493.2975 23.14175 
" style="fill:none;stroke:#000000;stroke-linecap:square;stroke-linejoin:miter;"/>
   </g>
   <g id="matplotlib.axis_1">
    <g id="xtick_1">
     <g id="line2d_2">
      <defs>
       <path d="M 0 0 
L 0 -4 
" id="m86670f15ac" style="stroke:#000000;stroke-width:0.5;"/>
      </defs>
      <g>
       <use style="stroke:#000000;stroke-width:0.5;" x="46.8975" xlink:href="#m86670f15ac" y="368.74175"/>
      </g>
     </g>
     <g id="line2d_3">
      <defs>
       <path d="M 0 0 
L 0 4 
" id="m18d84ebfa9" style="stroke:#000000;stroke-width:0.5;"/>
      </defs>
      <g>
       <use style="stroke:#000000;stroke-width:0.5;" x="46.8975" xlink:href="#m18d84ebfa9" y="23.14175"/>
      </g>
     </g>
     <g id="text_1">
      <!-- 0 -->
      <defs>
       <path d="M 31.78125 66.40625 
Q 24.171875 66.40625 20.328125 58.90625 
Q 16.5 51.421875 16.5 36.375 
Q 16.5 21.390625 20.328125 13.890625 
Q 24.171875 6.390625 31.78125 6.390625 
Q 39.453125 6.390625 43.28125 13.890625 
Q 47.125 21.390625 47.125 36.375 
Q 47.125 51.421875 43.28125 58.90625 
Q 39.453125 66.40625 31.78125 66.40625 
M 31.78125 74.21875 
Q 44.046875 74.21875 50.515625 64.515625 
Q 56.984375 54.828125 56.984375 36.375 
Q 56.984375 17.96875 50.515625 8.265625 
Q 44.046875 -1.421875 31.78125 -1.421875 
Q 19.53125 -1.421875 13.0625 8.265625 
Q 6.59375 17.96875 6.59375 36.375 
Q 6.59375 54.828125 13.0625 64.515625 
Q 19.53125 74.21875 31.78125 74.21875 
" id="BitstreamVeraSans-Roman-30"/>
      </defs>
      <g transform="translate(43.08 381.859875)scale(0.12 -0.12)">
       <use xlink:href="#BitstreamVeraSans-Roman-30"/>
      </g>
     </g>
    </g>
    <g id="xtick_2">
     <g id="line2d_4">
      <g>
       <use style="stroke:#000000;stroke-width:0.5;" x="110.668928571" xlink:href="#m86670f15ac" y="368.74175"/>
      </g>
     </g>
     <g id="line2d_5">
      <g>
       <use style="stroke:#000000;stroke-width:0.5;" x="110.668928571" xlink:href="#m18d84ebfa9" y="23.14175"/>
      </g>
     </g>
     <g id="text_2">
      <!-- 100 -->
      <defs>
       <path d="M 12.40625 8.296875 
L 28.515625 8.296875 
L 28.515625 63.921875 
L 10.984375 60.40625 
L 10.984375 69.390625 
L 28.421875 72.90625 
L 38.28125 72.90625 
L 38.28125 8.296875 
L 54.390625 8.296875 
L 54.390625 0 
L 12.40625 0 
z
" id="BitstreamVeraSans-Roman-31"/>
      </defs>
      <g transform="translate(99.2164285714 381.859875)scale(0.12 -0.12)">
       <use xlink:href="#BitstreamVeraSans-Roman-31"/>
       <use x="63.623046875" xlink:href="#BitstreamVeraSans-Roman-30"/>
       <use x="127.24609375" xlink:href="#BitstreamVeraSans-Roman-30"/>
      </g>
     </g>
    </g>
    <g id="xtick_3">
     <g id="line2d_6">
      <g>
       <use style="stroke:#000000;stroke-width:0.5;" x="174.440357143" xlink:href="#m86670f15ac" y="368.74175"/>
      </g>
     </g>
     <g id="line2d_7">
      <g>
       <use style="stroke:#000000;stroke-width:0.5;" x="174.440357143" xlink:href="#m18d84ebfa9" y="23.14175"/>
      </g>
     </g>
     <g id="text_3">
      <!-- 200 -->
      <defs>
       <path d="M 19.1875 8.296875 
L 53.609375 8.296875 
L 53.609375 0 
L 7.328125 0 
L 7.328125 8.296875 
Q 12.9375 14.109375 22.625 23.890625 
Q 32.328125 33.6875 34.8125 36.53125 
Q 39.546875 41.84375 41.421875 45.53125 
Q 43.3125 49.21875 43.3125 52.78125 
Q 43.3125 58.59375 39.234375 62.25 
Q 35.15625 65.921875 28.609375 65.921875 
Q 23.96875 65.921875 18.8125 64.3125 
Q 13.671875 62.703125 7.8125 59.421875 
L 7.8125 69.390625 
Q 13.765625 71.78125 18.9375 73 
Q 24.125 74.21875 28.421875 74.21875 
Q 39.75 74.21875 46.484375 68.546875 
Q 53.21875 62.890625 53.21875 53.421875 
Q 53.21875 48.921875 51.53125 44.890625 
Q 49.859375 40.875 45.40625 35.40625 
Q 44.1875 33.984375 37.640625 27.21875 
Q 31.109375 20.453125 19.1875 8.296875 
" id="BitstreamVeraSans-Roman-32"/>
      </defs>
      <g transform="translate(162.987857143 381.859875)scale(0.12 -0.12)">
       <use xlink:href="#BitstreamVeraSans-Roman-32"/>
       <use x="63.623046875" xlink:href="#BitstreamVeraSans-Roman-30"/>
       <use x="127.24609375" xlink:href="#BitstreamVeraSans-Roman-30"/>
      </g>
     </g>
    </g>
    <g id="xtick_4">
     <g id="line2d_8">
      <g>
       <use style="stroke:#000000;stroke-width:0.5;" x="238.211785714" xlink:href="#m86670f15ac" y="368.74175"/>
      </g>
     </g>
     <g id="line2d_9">
      <g>
       <use style="stroke:#000000;stroke-width:0.5;" x="238.211785714" xlink:href="#m18d84ebfa9" y="23.14175"/>
      </g>
     </g>
     <g id="text_4">
      <!-- 300 -->
      <defs>
       <path d="M 40.578125 39.3125 
Q 47.65625 37.796875 51.625 33 
Q 55.609375 28.21875 55.609375 21.1875 
Q 55.609375 10.40625 48.1875 4.484375 
Q 40.765625 -1.421875 27.09375 -1.421875 
Q 22.515625 -1.421875 17.65625 -0.515625 
Q 12.796875 0.390625 7.625 2.203125 
L 7.625 11.71875 
Q 11.71875 9.328125 16.59375 8.109375 
Q 21.484375 6.890625 26.8125 6.890625 
Q 36.078125 6.890625 40.9375 10.546875 
Q 45.796875 14.203125 45.796875 21.1875 
Q 45.796875 27.640625 41.28125 31.265625 
Q 36.765625 34.90625 28.71875 34.90625 
L 20.21875 34.90625 
L 20.21875 43.015625 
L 29.109375 43.015625 
Q 36.375 43.015625 40.234375 45.921875 
Q 44.09375 48.828125 44.09375 54.296875 
Q 44.09375 59.90625 40.109375 62.90625 
Q 36.140625 65.921875 28.71875 65.921875 
Q 24.65625 65.921875 20.015625 65.03125 
Q 15.375 64.15625 9.8125 62.3125 
L 9.8125 71.09375 
Q 15.4375 72.65625 20.34375 73.4375 
Q 25.25 74.21875 29.59375 74.21875 
Q 40.828125 74.21875 47.359375 69.109375 
Q 53.90625 64.015625 53.90625 55.328125 
Q 53.90625 49.265625 50.4375 45.09375 
Q 46.96875 40.921875 40.578125 39.3125 
" id="BitstreamVeraSans-Roman-33"/>
      </defs>
      <g transform="translate(226.759285714 381.859875)scale(0.12 -0.12)">
       <use xlink:href="#BitstreamVeraSans-Roman-33"/>
       <use x="63.623046875" xlink:href="#BitstreamVeraSans-Roman-30"/>
       <use x="127.24609375" xlink:href="#BitstreamVeraSans-Roman-30"/>
      </g>
     </g>
    </g>
    <g id="xtick_5">
     <g id="line2d_10">
      <g>
       <use style="stroke:#000000;stroke-width:0.5;" x="301.983214286" xlink:href="#m86670f15ac" y="368.74175"/>
      </g>
     </g>
     <g id="line2d_11">
      <g>
       <use style="stroke:#000000;stroke-width:0.5;" x="301.983214286" xlink:href="#m18d84ebfa9" y="23.14175"/>
      </g>
     </g>
     <g id="text_5">
      <!-- 400 -->
      <defs>
       <path d="M 37.796875 64.3125 
L 12.890625 25.390625 
L 37.796875 25.390625 
z
M 35.203125 72.90625 
L 47.609375 72.90625 
L 47.609375 25.390625 
L 58.015625 25.390625 
L 58.015625 17.1875 
L 47.609375 17.1875 
L 47.609375 0 
L 37.796875 0 
L 37.796875 17.1875 
L 4.890625 17.1875 
L 4.890625 26.703125 
z
" id="BitstreamVeraSans-Roman-34"/>
      </defs>
      <g transform="translate(290.530714286 381.859875)scale(0.12 -0.12)">
       <use xlink:href="#BitstreamVeraSans-Roman-34"/>
       <use x="63.623046875" xlink:href="#BitstreamVeraSans-Roman-30"/>
       <use x="127.24609375" xlink:href="#BitstreamVeraSans-Roman-30"/>
      </g>
     </g>
    </g>
    <g id="xtick_6">
     <g id="line2d_12">
      <g>
       <use style="stroke:#000000;stroke-width:0.5;" x="365.754642857" xlink:href="#m86670f15ac" y="368.74175"/>
      </g>
     </g>
     <g id="line2d_13">
      <g>
       <use style="stroke:#000000;stroke-width:0.5;" x="365.754642857" xlink:href="#m18d84ebfa9" y="23.14175"/>
      </g>
     </g>
     <g id="text_6">
      <!-- 500 -->
      <defs>
       <path d="M 10.796875 72.90625 
L 49.515625 72.90625 
L 49.515625 64.59375 
L 19.828125 64.59375 
L 19.828125 46.734375 
Q 21.96875 47.46875 24.109375 47.828125 
Q 26.265625 48.1875 28.421875 48.1875 
Q 40.625 48.1875 47.75 41.5 
Q 54.890625 34.8125 54.890625 23.390625 
Q 54.890625 11.625 47.5625 5.09375 
Q 40.234375 -1.421875 26.90625 -1.421875 
Q 22.3125 -1.421875 17.546875 -0.640625 
Q 12.796875 0.140625 7.71875 1.703125 
L 7.71875 11.625 
Q 12.109375 9.234375 16.796875 8.0625 
Q 21.484375 6.890625 26.703125 6.890625 
Q 35.15625 6.890625 40.078125 11.328125 
Q 45.015625 15.765625 45.015625 23.390625 
Q 45.015625 31 40.078125 35.4375 
Q 35.15625 39.890625 26.703125 39.890625 
Q 22.75 39.890625 18.8125 39.015625 
Q 14.890625 38.140625 10.796875 36.28125 
z
" id="BitstreamVeraSans-Roman-35"/>
      </defs>
      <g transform="translate(354.302142857 381.859875)scale(0.12 -0.12)">
       <use xlink:href="#BitstreamVeraSans-Roman-35"/>
       <use x="63.623046875" xlink:href="#BitstreamVeraSans-Roman-30"/>
       <use x="127.24609375" xlink:href="#BitstreamVeraSans-Roman-30"/>
      </g>
     </g>
    </g>
    <g id="xtick_7">
     <g id="line2d_14">
      <g>
       <use style="stroke:#000000;stroke-width:0.5;" x="429.526071429" xlink:href="#m86670f15ac" y="368.74175"/>
      </g>
     </g>
     <g id="line2d_15">
      <g>
       <use style="stroke:#000000;stroke-width:0.5;" x="429.526071429" xlink:href="#m18d84ebfa9" y="23.14175"/>
      </g>
     </g>
     <g id="text_7">
      <!-- 600 -->
      <defs>
       <path d="M 33.015625 40.375 
Q 26.375 40.375 22.484375 35.828125 
Q 18.609375 31.296875 18.609375 23.390625 
Q 18.609375 15.53125 22.484375 10.953125 
Q 26.375 6.390625 33.015625 6.390625 
Q 39.65625 6.390625 43.53125 10.953125 
Q 47.40625 15.53125 47.40625 23.390625 
Q 47.40625 31.296875 43.53125 35.828125 
Q 39.65625 40.375 33.015625 40.375 
M 52.59375 71.296875 
L 52.59375 62.3125 
Q 48.875 64.0625 45.09375 64.984375 
Q 41.3125 65.921875 37.59375 65.921875 
Q 27.828125 65.921875 22.671875 59.328125 
Q 17.53125 52.734375 16.796875 39.40625 
Q 19.671875 43.65625 24.015625 45.921875 
Q 28.375 48.1875 33.59375 48.1875 
Q 44.578125 48.1875 50.953125 41.515625 
Q 57.328125 34.859375 57.328125 23.390625 
Q 57.328125 12.15625 50.6875 5.359375 
Q 44.046875 -1.421875 33.015625 -1.421875 
Q 20.359375 -1.421875 13.671875 8.265625 
Q 6.984375 17.96875 6.984375 36.375 
Q 6.984375 53.65625 15.1875 63.9375 
Q 23.390625 74.21875 37.203125 74.21875 
Q 40.921875 74.21875 44.703125 73.484375 
Q 48.484375 72.75 52.59375 71.296875 
" id="BitstreamVeraSans-Roman-36"/>
      </defs>
      <g transform="translate(418.073571429 381.859875)scale(0.12 -0.12)">
       <use xlink:href="#BitstreamVeraSans-Roman-36"/>
       <use x="63.623046875" xlink:href="#BitstreamVeraSans-Roman-30"/>
       <use x="127.24609375" xlink:href="#BitstreamVeraSans-Roman-30"/>
      </g>
     </g>
    </g>
    <g id="xtick_8">
     <g id="line2d_16">
      <g>
       <use style="stroke:#000000;stroke-width:0.5;" x="493.2975" xlink:href="#m86670f15ac" y="368.74175"/>
      </g>
     </g>
     <g id="line2d_17">
      <g>
       <use style="stroke:#000000;stroke-width:0.5;" x="493.2975" xlink:href="#m18d84ebfa9" y="23.14175"/>
      </g>
     </g>
     <g id="text_8">
      <!-- 700 -->
      <defs>
       <path d="M 8.203125 72.90625 
L 55.078125 72.90625 
L 55.078125 68.703125 
L 28.609375 0 
L 18.3125 0 
L 43.21875 64.59375 
L 8.203125 64.59375 
z
" id="BitstreamVeraSans-Roman-37"/>
      </defs>
      <g transform="translate(481.845 381.859875)scale(0.12 -0.12)">
       <use xlink:href="#BitstreamVeraSans-Roman-37"/>
       <use x="63.623046875" xlink:href="#BitstreamVeraSans-Roman-30"/>
       <use x="127.24609375" xlink:href="#BitstreamVeraSans-Roman-30"/>
      </g>
     </g>
    </g>
    <g id="text_9">
     <!-- episode -->
     <defs>
      <path d="M 30.609375 48.390625 
Q 23.390625 48.390625 19.1875 42.75 
Q 14.984375 37.109375 14.984375 27.296875 
Q 14.984375 17.484375 19.15625 11.84375 
Q 23.34375 6.203125 30.609375 6.203125 
Q 37.796875 6.203125 41.984375 11.859375 
Q 46.1875 17.53125 46.1875 27.296875 
Q 46.1875 37.015625 41.984375 42.703125 
Q 37.796875 48.390625 30.609375 48.390625 
M 30.609375 56 
Q 42.328125 56 49.015625 48.375 
Q 55.71875 40.765625 55.71875 27.296875 
Q 55.71875 13.875 49.015625 6.21875 
Q 42.328125 -1.421875 30.609375 -1.421875 
Q 18.84375 -1.421875 12.171875 6.21875 
Q 5.515625 13.875 5.515625 27.296875 
Q 5.515625 40.765625 12.171875 48.375 
Q 18.84375 56 30.609375 56 
" id="BitstreamVeraSans-Roman-6f"/>
      <path d="M 18.109375 8.203125 
L 18.109375 -20.796875 
L 9.078125 -20.796875 
L 9.078125 54.6875 
L 18.109375 54.6875 
L 18.109375 46.390625 
Q 20.953125 51.265625 25.265625 53.625 
Q 29.59375 56 35.59375 56 
Q 45.5625 56 51.78125 48.09375 
Q 58.015625 40.1875 58.015625 27.296875 
Q 58.015625 14.40625 51.78125 6.484375 
Q 45.5625 -1.421875 35.59375 -1.421875 
Q 29.59375 -1.421875 25.265625 0.953125 
Q 20.953125 3.328125 18.109375 8.203125 
M 48.6875 27.296875 
Q 48.6875 37.203125 44.609375 42.84375 
Q 40.53125 48.484375 33.40625 48.484375 
Q 26.265625 48.484375 22.1875 42.84375 
Q 18.109375 37.203125 18.109375 27.296875 
Q 18.109375 17.390625 22.1875 11.75 
Q 26.265625 6.109375 33.40625 6.109375 
Q 40.53125 6.109375 44.609375 11.75 
Q 48.6875 17.390625 48.6875 27.296875 
" id="BitstreamVeraSans-Roman-70"/>
      <path d="M 9.421875 54.6875 
L 18.40625 54.6875 
L 18.40625 0 
L 9.421875 0 
z
M 9.421875 75.984375 
L 18.40625 75.984375 
L 18.40625 64.59375 
L 9.421875 64.59375 
z
" id="BitstreamVeraSans-Roman-69"/>
      <path d="M 56.203125 29.59375 
L 56.203125 25.203125 
L 14.890625 25.203125 
Q 15.484375 15.921875 20.484375 11.0625 
Q 25.484375 6.203125 34.421875 6.203125 
Q 39.59375 6.203125 44.453125 7.46875 
Q 49.3125 8.734375 54.109375 11.28125 
L 54.109375 2.78125 
Q 49.265625 0.734375 44.1875 -0.34375 
Q 39.109375 -1.421875 33.890625 -1.421875 
Q 20.796875 -1.421875 13.15625 6.1875 
Q 5.515625 13.8125 5.515625 26.8125 
Q 5.515625 40.234375 12.765625 48.109375 
Q 20.015625 56 32.328125 56 
Q 43.359375 56 49.78125 48.890625 
Q 56.203125 41.796875 56.203125 29.59375 
M 47.21875 32.234375 
Q 47.125 39.59375 43.09375 43.984375 
Q 39.0625 48.390625 32.421875 48.390625 
Q 24.90625 48.390625 20.390625 44.140625 
Q 15.875 39.890625 15.1875 32.171875 
z
" id="BitstreamVeraSans-Roman-65"/>
      <path d="M 44.28125 53.078125 
L 44.28125 44.578125 
Q 40.484375 46.53125 36.375 47.5 
Q 32.28125 48.484375 27.875 48.484375 
Q 21.1875 48.484375 17.84375 46.4375 
Q 14.5 44.390625 14.5 40.28125 
Q 14.5 37.15625 16.890625 35.375 
Q 19.28125 33.59375 26.515625 31.984375 
L 29.59375 31.296875 
Q 39.15625 29.25 43.1875 25.515625 
Q 47.21875 21.78125 47.21875 15.09375 
Q 47.21875 7.46875 41.1875 3.015625 
Q 35.15625 -1.421875 24.609375 -1.421875 
Q 20.21875 -1.421875 15.453125 -0.5625 
Q 10.6875 0.296875 5.421875 2 
L 5.421875 11.28125 
Q 10.40625 8.6875 15.234375 7.390625 
Q 20.0625 6.109375 24.8125 6.109375 
Q 31.15625 6.109375 34.5625 8.28125 
Q 37.984375 10.453125 37.984375 14.40625 
Q 37.984375 18.0625 35.515625 20.015625 
Q 33.0625 21.96875 24.703125 23.78125 
L 21.578125 24.515625 
Q 13.234375 26.265625 9.515625 29.90625 
Q 5.8125 33.546875 5.8125 39.890625 
Q 5.8125 47.609375 11.28125 51.796875 
Q 16.75 56 26.8125 56 
Q 31.78125 56 36.171875 55.265625 
Q 40.578125 54.546875 44.28125 53.078125 
" id="BitstreamVeraSans-Roman-73"/>
      <path d="M 45.40625 46.390625 
L 45.40625 75.984375 
L 54.390625 75.984375 
L 54.390625 0 
L 45.40625 0 
L 45.40625 8.203125 
Q 42.578125 3.328125 38.25 0.953125 
Q 33.9375 -1.421875 27.875 -1.421875 
Q 17.96875 -1.421875 11.734375 6.484375 
Q 5.515625 14.40625 5.515625 27.296875 
Q 5.515625 40.1875 11.734375 48.09375 
Q 17.96875 56 27.875 56 
Q 33.9375 56 38.25 53.625 
Q 42.578125 51.265625 45.40625 46.390625 
M 14.796875 27.296875 
Q 14.796875 17.390625 18.875 11.75 
Q 22.953125 6.109375 30.078125 6.109375 
Q 37.203125 6.109375 41.296875 11.75 
Q 45.40625 17.390625 45.40625 27.296875 
Q 45.40625 37.203125 41.296875 42.84375 
Q 37.203125 48.484375 30.078125 48.484375 
Q 22.953125 48.484375 18.875 42.84375 
Q 14.796875 37.203125 14.796875 27.296875 
" id="BitstreamVeraSans-Roman-64"/>
     </defs>
     <g transform="translate(246.631875 398.473625)scale(0.12 -0.12)">
      <use xlink:href="#BitstreamVeraSans-Roman-65"/>
      <use x="61.5234375" xlink:href="#BitstreamVeraSans-Roman-70"/>
      <use x="125.0" xlink:href="#BitstreamVeraSans-Roman-69"/>
      <use x="152.783203125" xlink:href="#BitstreamVeraSans-Roman-73"/>
      <use x="204.8828125" xlink:href="#BitstreamVeraSans-Roman-6f"/>
      <use x="266.064453125" xlink:href="#BitstreamVeraSans-Roman-64"/>
      <use x="329.541015625" xlink:href="#BitstreamVeraSans-Roman-65"/>
     </g>
    </g>
   </g>
   <g id="matplotlib.axis_2">
    <g id="ytick_1">
     <g id="line2d_18">
      <defs>
       <path d="M 0 0 
L 4 0 
" id="mf9a0908df8" style="stroke:#000000;stroke-width:0.5;"/>
      </defs>
      <g>
       <use style="stroke:#000000;stroke-width:0.5;" x="46.8975" xlink:href="#mf9a0908df8" y="368.74175"/>
      </g>
     </g>
     <g id="line2d_19">
      <defs>
       <path d="M 0 0 
L -4 0 
" id="m1ccfdf4644" style="stroke:#000000;stroke-width:0.5;"/>
      </defs>
      <g>
       <use style="stroke:#000000;stroke-width:0.5;" x="493.2975" xlink:href="#m1ccfdf4644" y="368.74175"/>
      </g>
     </g>
     <g id="text_10">
      <!-- 0.0 -->
      <defs>
       <path d="M 10.6875 12.40625 
L 21 12.40625 
L 21 0 
L 10.6875 0 
z
" id="BitstreamVeraSans-Roman-2e"/>
      </defs>
      <g transform="translate(23.81375 372.053)scale(0.12 -0.12)">
       <use xlink:href="#BitstreamVeraSans-Roman-30"/>
       <use x="63.623046875" xlink:href="#BitstreamVeraSans-Roman-2e"/>
       <use x="95.41015625" xlink:href="#BitstreamVeraSans-Roman-30"/>
      </g>
     </g>
    </g>
    <g id="ytick_2">
     <g id="line2d_20">
      <g>
       <use style="stroke:#000000;stroke-width:0.5;" x="46.8975" xlink:href="#mf9a0908df8" y="319.370321429"/>
      </g>
     </g>
     <g id="line2d_21">
      <g>
       <use style="stroke:#000000;stroke-width:0.5;" x="493.2975" xlink:href="#m1ccfdf4644" y="319.370321429"/>
      </g>
     </g>
     <g id="text_11">
      <!-- 0.1 -->
      <g transform="translate(23.81375 322.681571429)scale(0.12 -0.12)">
       <use xlink:href="#BitstreamVeraSans-Roman-30"/>
       <use x="63.623046875" xlink:href="#BitstreamVeraSans-Roman-2e"/>
       <use x="95.41015625" xlink:href="#BitstreamVeraSans-Roman-31"/>
      </g>
     </g>
    </g>
    <g id="ytick_3">
     <g id="line2d_22">
      <g>
       <use style="stroke:#000000;stroke-width:0.5;" x="46.8975" xlink:href="#mf9a0908df8" y="269.998892857"/>
      </g>
     </g>
     <g id="line2d_23">
      <g>
       <use style="stroke:#000000;stroke-width:0.5;" x="493.2975" xlink:href="#m1ccfdf4644" y="269.998892857"/>
      </g>
     </g>
     <g id="text_12">
      <!-- 0.2 -->
      <g transform="translate(23.81375 273.310142857)scale(0.12 -0.12)">
       <use xlink:href="#BitstreamVeraSans-Roman-30"/>
       <use x="63.623046875" xlink:href="#BitstreamVeraSans-Roman-2e"/>
       <use x="95.41015625" xlink:href="#BitstreamVeraSans-Roman-32"/>
      </g>
     </g>
    </g>
    <g id="ytick_4">
     <g id="line2d_24">
      <g>
       <use style="stroke:#000000;stroke-width:0.5;" x="46.8975" xlink:href="#mf9a0908df8" y="220.627464286"/>
      </g>
     </g>
     <g id="line2d_25">
      <g>
       <use style="stroke:#000000;stroke-width:0.5;" x="493.2975" xlink:href="#m1ccfdf4644" y="220.627464286"/>
      </g>
     </g>
     <g id="text_13">
      <!-- 0.3 -->
      <g transform="translate(23.81375 223.938714286)scale(0.12 -0.12)">
       <use xlink:href="#BitstreamVeraSans-Roman-30"/>
       <use x="63.623046875" xlink:href="#BitstreamVeraSans-Roman-2e"/>
       <use x="95.41015625" xlink:href="#BitstreamVeraSans-Roman-33"/>
      </g>
     </g>
    </g>
    <g id="ytick_5">
     <g id="line2d_26">
      <g>
       <use style="stroke:#000000;stroke-width:0.5;" x="46.8975" xlink:href="#mf9a0908df8" y="171.256035714"/>
      </g>
     </g>
     <g id="line2d_27">
      <g>
       <use style="stroke:#000000;stroke-width:0.5;" x="493.2975" xlink:href="#m1ccfdf4644" y="171.256035714"/>
      </g>
     </g>
     <g id="text_14">
      <!-- 0.4 -->
      <g transform="translate(23.81375 174.567285714)scale(0.12 -0.12)">
       <use xlink:href="#BitstreamVeraSans-Roman-30"/>
       <use x="63.623046875" xlink:href="#BitstreamVeraSans-Roman-2e"/>
       <use x="95.41015625" xlink:href="#BitstreamVeraSans-Roman-34"/>
      </g>
     </g>
    </g>
    <g id="ytick_6">
     <g id="line2d_28">
      <g>
       <use style="stroke:#000000;stroke-width:0.5;" x="46.8975" xlink:href="#mf9a0908df8" y="121.884607143"/>
      </g>
     </g>
     <g id="line2d_29">
      <g>
       <use style="stroke:#000000;stroke-width:0.5;" x="493.2975" xlink:href="#m1ccfdf4644" y="121.884607143"/>
      </g>
     </g>
     <g id="text_15">
      <!-- 0.5 -->
      <g transform="translate(23.81375 125.195857143)scale(0.12 -0.12)">
       <use xlink:href="#BitstreamVeraSans-Roman-30"/>
       <use x="63.623046875" xlink:href="#BitstreamVeraSans-Roman-2e"/>
       <use x="95.41015625" xlink:href="#BitstreamVeraSans-Roman-35"/>
      </g>
     </g>
    </g>
    <g id="ytick_7">
     <g id="line2d_30">
      <g>
       <use style="stroke:#000000;stroke-width:0.5;" x="46.8975" xlink:href="#mf9a0908df8" y="72.5131785714"/>
      </g>
     </g>
     <g id="line2d_31">
      <g>
       <use style="stroke:#000000;stroke-width:0.5;" x="493.2975" xlink:href="#m1ccfdf4644" y="72.5131785714"/>
      </g>
     </g>
     <g id="text_16">
      <!-- 0.6 -->
      <g transform="translate(23.81375 75.8244285714)scale(0.12 -0.12)">
       <use xlink:href="#BitstreamVeraSans-Roman-30"/>
       <use x="63.623046875" xlink:href="#BitstreamVeraSans-Roman-2e"/>
       <use x="95.41015625" xlink:href="#BitstreamVeraSans-Roman-36"/>
      </g>
     </g>
    </g>
    <g id="ytick_8">
     <g id="line2d_32">
      <g>
       <use style="stroke:#000000;stroke-width:0.5;" x="46.8975" xlink:href="#mf9a0908df8" y="23.14175"/>
      </g>
     </g>
     <g id="line2d_33">
      <g>
       <use style="stroke:#000000;stroke-width:0.5;" x="493.2975" xlink:href="#m1ccfdf4644" y="23.14175"/>
      </g>
     </g>
     <g id="text_17">
      <!-- 0.7 -->
      <g transform="translate(23.81375 26.453)scale(0.12 -0.12)">
       <use xlink:href="#BitstreamVeraSans-Roman-30"/>
       <use x="63.623046875" xlink:href="#BitstreamVeraSans-Roman-2e"/>
       <use x="95.41015625" xlink:href="#BitstreamVeraSans-Roman-37"/>
      </g>
     </g>
    </g>
    <g id="text_18">
     <!-- average maxQ -->
     <defs>
      <path d="M 2.984375 54.6875 
L 12.5 54.6875 
L 29.59375 8.796875 
L 46.6875 54.6875 
L 56.203125 54.6875 
L 35.6875 0 
L 23.484375 0 
z
" id="BitstreamVeraSans-Roman-76"/>
      <path d="M 52 44.1875 
Q 55.375 50.25 60.0625 53.125 
Q 64.75 56 71.09375 56 
Q 79.640625 56 84.28125 50.015625 
Q 88.921875 44.046875 88.921875 33.015625 
L 88.921875 0 
L 79.890625 0 
L 79.890625 32.71875 
Q 79.890625 40.578125 77.09375 44.375 
Q 74.3125 48.1875 68.609375 48.1875 
Q 61.625 48.1875 57.5625 43.546875 
Q 53.515625 38.921875 53.515625 30.90625 
L 53.515625 0 
L 44.484375 0 
L 44.484375 32.71875 
Q 44.484375 40.625 41.703125 44.40625 
Q 38.921875 48.1875 33.109375 48.1875 
Q 26.21875 48.1875 22.15625 43.53125 
Q 18.109375 38.875 18.109375 30.90625 
L 18.109375 0 
L 9.078125 0 
L 9.078125 54.6875 
L 18.109375 54.6875 
L 18.109375 46.1875 
Q 21.1875 51.21875 25.484375 53.609375 
Q 29.78125 56 35.6875 56 
Q 41.65625 56 45.828125 52.96875 
Q 50 49.953125 52 44.1875 
" id="BitstreamVeraSans-Roman-6d"/>
      <path d="M 41.109375 46.296875 
Q 39.59375 47.171875 37.8125 47.578125 
Q 36.03125 48 33.890625 48 
Q 26.265625 48 22.1875 43.046875 
Q 18.109375 38.09375 18.109375 28.8125 
L 18.109375 0 
L 9.078125 0 
L 9.078125 54.6875 
L 18.109375 54.6875 
L 18.109375 46.1875 
Q 20.953125 51.171875 25.484375 53.578125 
Q 30.03125 56 36.53125 56 
Q 37.453125 56 38.578125 55.875 
Q 39.703125 55.765625 41.0625 55.515625 
z
" id="BitstreamVeraSans-Roman-72"/>
      <path d="M 45.40625 27.984375 
Q 45.40625 37.75 41.375 43.109375 
Q 37.359375 48.484375 30.078125 48.484375 
Q 22.859375 48.484375 18.828125 43.109375 
Q 14.796875 37.75 14.796875 27.984375 
Q 14.796875 18.265625 18.828125 12.890625 
Q 22.859375 7.515625 30.078125 7.515625 
Q 37.359375 7.515625 41.375 12.890625 
Q 45.40625 18.265625 45.40625 27.984375 
M 54.390625 6.78125 
Q 54.390625 -7.171875 48.1875 -13.984375 
Q 42 -20.796875 29.203125 -20.796875 
Q 24.46875 -20.796875 20.265625 -20.09375 
Q 16.0625 -19.390625 12.109375 -17.921875 
L 12.109375 -9.1875 
Q 16.0625 -11.328125 19.921875 -12.34375 
Q 23.78125 -13.375 27.78125 -13.375 
Q 36.625 -13.375 41.015625 -8.765625 
Q 45.40625 -4.15625 45.40625 5.171875 
L 45.40625 9.625 
Q 42.625 4.78125 38.28125 2.390625 
Q 33.9375 0 27.875 0 
Q 17.828125 0 11.671875 7.65625 
Q 5.515625 15.328125 5.515625 27.984375 
Q 5.515625 40.671875 11.671875 48.328125 
Q 17.828125 56 27.875 56 
Q 33.9375 56 38.28125 53.609375 
Q 42.625 51.21875 45.40625 46.390625 
L 45.40625 54.6875 
L 54.390625 54.6875 
z
" id="BitstreamVeraSans-Roman-67"/>
      <path d="M 54.890625 54.6875 
L 35.109375 28.078125 
L 55.90625 0 
L 45.3125 0 
L 29.390625 21.484375 
L 13.484375 0 
L 2.875 0 
L 24.125 28.609375 
L 4.6875 54.6875 
L 15.28125 54.6875 
L 29.78125 35.203125 
L 44.28125 54.6875 
z
" id="BitstreamVeraSans-Roman-78"/>
      <path d="M 34.28125 27.484375 
Q 23.390625 27.484375 19.1875 25 
Q 14.984375 22.515625 14.984375 16.5 
Q 14.984375 11.71875 18.140625 8.90625 
Q 21.296875 6.109375 26.703125 6.109375 
Q 34.1875 6.109375 38.703125 11.40625 
Q 43.21875 16.703125 43.21875 25.484375 
L 43.21875 27.484375 
z
M 52.203125 31.203125 
L 52.203125 0 
L 43.21875 0 
L 43.21875 8.296875 
Q 40.140625 3.328125 35.546875 0.953125 
Q 30.953125 -1.421875 24.3125 -1.421875 
Q 15.921875 -1.421875 10.953125 3.296875 
Q 6 8.015625 6 15.921875 
Q 6 25.140625 12.171875 29.828125 
Q 18.359375 34.515625 30.609375 34.515625 
L 43.21875 34.515625 
L 43.21875 35.40625 
Q 43.21875 41.609375 39.140625 45 
Q 35.0625 48.390625 27.6875 48.390625 
Q 23 48.390625 18.546875 47.265625 
Q 14.109375 46.140625 10.015625 43.890625 
L 10.015625 52.203125 
Q 14.9375 54.109375 19.578125 55.046875 
Q 24.21875 56 28.609375 56 
Q 40.484375 56 46.34375 49.84375 
Q 52.203125 43.703125 52.203125 31.203125 
" id="BitstreamVeraSans-Roman-61"/>
      <path id="BitstreamVeraSans-Roman-20"/>
      <path d="M 39.40625 66.21875 
Q 28.65625 66.21875 22.328125 58.203125 
Q 16.015625 50.203125 16.015625 36.375 
Q 16.015625 22.609375 22.328125 14.59375 
Q 28.65625 6.59375 39.40625 6.59375 
Q 50.140625 6.59375 56.421875 14.59375 
Q 62.703125 22.609375 62.703125 36.375 
Q 62.703125 50.203125 56.421875 58.203125 
Q 50.140625 66.21875 39.40625 66.21875 
M 53.21875 1.3125 
L 66.21875 -12.890625 
L 54.296875 -12.890625 
L 43.5 -1.21875 
Q 41.890625 -1.3125 41.03125 -1.359375 
Q 40.1875 -1.421875 39.40625 -1.421875 
Q 24.03125 -1.421875 14.8125 8.859375 
Q 5.609375 19.140625 5.609375 36.375 
Q 5.609375 53.65625 14.8125 63.9375 
Q 24.03125 74.21875 39.40625 74.21875 
Q 54.734375 74.21875 63.90625 63.9375 
Q 73.09375 53.65625 73.09375 36.375 
Q 73.09375 23.6875 67.984375 14.640625 
Q 62.890625 5.609375 53.21875 1.3125 
" id="BitstreamVeraSans-Roman-51"/>
     </defs>
     <g transform="translate(16.318125 240.208625)rotate(-90.0)scale(0.12 -0.12)">
      <use xlink:href="#BitstreamVeraSans-Roman-61"/>
      <use x="61.279296875" xlink:href="#BitstreamVeraSans-Roman-76"/>
      <use x="120.458984375" xlink:href="#BitstreamVeraSans-Roman-65"/>
      <use x="181.982421875" xlink:href="#BitstreamVeraSans-Roman-72"/>
      <use x="223.095703125" xlink:href="#BitstreamVeraSans-Roman-61"/>
      <use x="284.375" xlink:href="#BitstreamVeraSans-Roman-67"/>
      <use x="347.8515625" xlink:href="#BitstreamVeraSans-Roman-65"/>
      <use x="409.375" xlink:href="#BitstreamVeraSans-Roman-20"/>
      <use x="441.162109375" xlink:href="#BitstreamVeraSans-Roman-6d"/>
      <use x="538.57421875" xlink:href="#BitstreamVeraSans-Roman-61"/>
      <use x="599.853515625" xlink:href="#BitstreamVeraSans-Roman-78"/>
      <use x="659.033203125" xlink:href="#BitstreamVeraSans-Roman-51"/>
     </g>
    </g>
   </g>
   <g id="text_19">
    <!-- Average maxQ per episode, joint3 -->
    <defs>
     <path d="M 18.3125 70.21875 
L 18.3125 54.6875 
L 36.8125 54.6875 
L 36.8125 47.703125 
L 18.3125 47.703125 
L 18.3125 18.015625 
Q 18.3125 11.328125 20.140625 9.421875 
Q 21.96875 7.515625 27.59375 7.515625 
L 36.8125 7.515625 
L 36.8125 0 
L 27.59375 0 
Q 17.1875 0 13.234375 3.875 
Q 9.28125 7.765625 9.28125 18.015625 
L 9.28125 47.703125 
L 2.6875 47.703125 
L 2.6875 54.6875 
L 9.28125 54.6875 
L 9.28125 70.21875 
z
" id="BitstreamVeraSans-Roman-74"/>
     <path d="M 54.890625 33.015625 
L 54.890625 0 
L 45.90625 0 
L 45.90625 32.71875 
Q 45.90625 40.484375 42.875 44.328125 
Q 39.84375 48.1875 33.796875 48.1875 
Q 26.515625 48.1875 22.3125 43.546875 
Q 18.109375 38.921875 18.109375 30.90625 
L 18.109375 0 
L 9.078125 0 
L 9.078125 54.6875 
L 18.109375 54.6875 
L 18.109375 46.1875 
Q 21.34375 51.125 25.703125 53.5625 
Q 30.078125 56 35.796875 56 
Q 45.21875 56 50.046875 50.171875 
Q 54.890625 44.34375 54.890625 33.015625 
" id="BitstreamVeraSans-Roman-6e"/>
     <path d="M 34.1875 63.1875 
L 20.796875 26.90625 
L 47.609375 26.90625 
z
M 28.609375 72.90625 
L 39.796875 72.90625 
L 67.578125 0 
L 57.328125 0 
L 50.6875 18.703125 
L 17.828125 18.703125 
L 11.1875 0 
L 0.78125 0 
z
" id="BitstreamVeraSans-Roman-41"/>
     <path d="M 11.71875 12.40625 
L 22.015625 12.40625 
L 22.015625 4 
L 14.015625 -11.625 
L 7.71875 -11.625 
L 11.71875 4 
z
" id="BitstreamVeraSans-Roman-2c"/>
     <path d="M 9.421875 54.6875 
L 18.40625 54.6875 
L 18.40625 -0.984375 
Q 18.40625 -11.421875 14.421875 -16.109375 
Q 10.453125 -20.796875 1.609375 -20.796875 
L -1.8125 -20.796875 
L -1.8125 -13.1875 
L 0.59375 -13.1875 
Q 5.71875 -13.1875 7.5625 -10.8125 
Q 9.421875 -8.453125 9.421875 -0.984375 
z
M 9.421875 75.984375 
L 18.40625 75.984375 
L 18.40625 64.59375 
L 9.421875 64.59375 
z
" id="BitstreamVeraSans-Roman-6a"/>
    </defs>
    <g transform="translate(146.8245 18.14175)scale(0.144 -0.144)">
     <use xlink:href="#BitstreamVeraSans-Roman-41"/>
     <use x="68.330078125" xlink:href="#BitstreamVeraSans-Roman-76"/>
     <use x="127.509765625" xlink:href="#BitstreamVeraSans-Roman-65"/>
     <use x="189.033203125" xlink:href="#BitstreamVeraSans-Roman-72"/>
     <use x="230.146484375" xlink:href="#BitstreamVeraSans-Roman-61"/>
     <use x="291.42578125" xlink:href="#BitstreamVeraSans-Roman-67"/>
     <use x="354.90234375" xlink:href="#BitstreamVeraSans-Roman-65"/>
     <use x="416.42578125" xlink:href="#BitstreamVeraSans-Roman-20"/>
     <use x="448.212890625" xlink:href="#BitstreamVeraSans-Roman-6d"/>
     <use x="545.625" xlink:href="#BitstreamVeraSans-Roman-61"/>
     <use x="606.904296875" xlink:href="#BitstreamVeraSans-Roman-78"/>
     <use x="666.083984375" xlink:href="#BitstreamVeraSans-Roman-51"/>
     <use x="744.794921875" xlink:href="#BitstreamVeraSans-Roman-20"/>
     <use x="776.58203125" xlink:href="#BitstreamVeraSans-Roman-70"/>
     <use x="840.05859375" xlink:href="#BitstreamVeraSans-Roman-65"/>
     <use x="901.58203125" xlink:href="#BitstreamVeraSans-Roman-72"/>
     <use x="942.6953125" xlink:href="#BitstreamVeraSans-Roman-20"/>
     <use x="974.482421875" xlink:href="#BitstreamVeraSans-Roman-65"/>
     <use x="1036.005859375" xlink:href="#BitstreamVeraSans-Roman-70"/>
     <use x="1099.482421875" xlink:href="#BitstreamVeraSans-Roman-69"/>
     <use x="1127.265625" xlink:href="#BitstreamVeraSans-Roman-73"/>
     <use x="1179.365234375" xlink:href="#BitstreamVeraSans-Roman-6f"/>
     <use x="1240.546875" xlink:href="#BitstreamVeraSans-Roman-64"/>
     <use x="1304.0234375" xlink:href="#BitstreamVeraSans-Roman-65"/>
     <use x="1365.546875" xlink:href="#BitstreamVeraSans-Roman-2c"/>
     <use x="1397.333984375" xlink:href="#BitstreamVeraSans-Roman-20"/>
     <use x="1429.12109375" xlink:href="#BitstreamVeraSans-Roman-6a"/>
     <use x="1456.904296875" xlink:href="#BitstreamVeraSans-Roman-6f"/>
     <use x="1518.0859375" xlink:href="#BitstreamVeraSans-Roman-69"/>
     <use x="1545.869140625" xlink:href="#BitstreamVeraSans-Roman-6e"/>
     <use x="1609.248046875" xlink:href="#BitstreamVeraSans-Roman-74"/>
     <use x="1648.45703125" xlink:href="#BitstreamVeraSans-Roman-33"/>
    </g>
   </g>
  </g>
 </g>
 <defs>
  <clipPath id="p447c92167f">
   <rect height="345.6" width="446.4" x="46.8975" y="23.14175"/>
  </clipPath>
 </defs>
</svg>
