<?xml version="1.0" encoding="utf-8" standalone="no"?>
<!DOCTYPE svg PUBLIC "-//W3C//DTD SVG 1.1//EN"
  "http://www.w3.org/Graphics/SVG/1.1/DTD/svg11.dtd">
<!-- Created with matplotlib (http://matplotlib.org/) -->
<svg height="408pt" version="1.1" viewBox="0 0 525 408" width="525pt" xmlns="http://www.w3.org/2000/svg" xmlns:xlink="http://www.w3.org/1999/xlink">
 <defs>
  <style type="text/css">
*{stroke-linecap:butt;stroke-linejoin:round;stroke-miterlimit:100000;}
  </style>
 </defs>
 <g id="figure_1">
  <g id="patch_1">
   <path d="M 0 408.16925 
L 525.823125 408.16925 
L 525.823125 0 
L 0 0 
z
" style="fill:#ffffff;"/>
  </g>
  <g id="axes_1">
   <g id="patch_2">
    <path d="M 56.953125 368.74175 
L 503.353125 368.74175 
L 503.353125 23.14175 
L 56.953125 23.14175 
z
" style="fill:#ffffff;"/>
   </g>
   <g id="line2d_1">
    <path clip-path="url(#p55e8240b86)" d="M 56.953125 55.230869 
L 57.101925 51.788667 
L 57.399525 53.379481 
L 57.548325 52.961454 
L 57.845925 51.73965 
L 57.994725 52.417165 
L 58.292325 57.231038 
L 58.441125 52.897262 
L 58.589925 53.496869 
L 58.887525 49.546455 
L 59.036325 51.336551 
L 59.185125 54.543566 
L 59.333925 50.90473 
L 59.482725 55.735974 
L 59.631525 51.382402 
L 59.780325 52.050104 
L 60.077925 50.334611 
L 60.375525 49.351056 
L 60.524325 52.959352 
L 60.673125 53.500591 
L 60.821925 53.466305 
L 61.119525 49.736466 
L 61.268325 51.420972 
L 61.565925 55.881762 
L 61.714725 55.427197 
L 61.863525 56.321065 
L 62.012325 52.338403 
L 62.161125 51.33314 
L 62.309925 52.823766 
L 62.458725 52.875749 
L 62.607525 52.433436 
L 62.756325 52.891038 
L 62.905125 51.219534 
L 63.202725 55.446783 
L 63.500325 52.137387 
L 63.649125 50.972908 
L 63.797925 51.364595 
L 63.946725 55.032642 
L 64.244325 51.955314 
L 64.393125 52.239382 
L 64.541925 55.462846 
L 64.690725 51.471223 
L 64.839525 53.613384 
L 64.988325 51.641917 
L 65.137125 53.282788 
L 65.285925 52.983219 
L 65.434725 51.914512 
L 65.583525 52.565416 
L 65.881125 55.228102 
L 66.029925 53.904598 
L 66.178725 48.123274 
L 66.327525 54.142374 
L 66.476325 52.637491 
L 66.625125 49.840153 
L 66.773925 50.654036 
L 67.071525 54.268229 
L 67.369125 48.266343 
L 67.517925 51.263602 
L 67.666725 49.947647 
L 67.815525 55.010398 
L 67.964325 51.955917 
L 68.113125 53.67488 
L 68.410725 50.042202 
L 68.708325 53.491668 
L 68.857125 53.944705 
L 69.005925 53.395563 
L 69.154725 51.498459 
L 69.303525 52.107836 
L 69.452325 51.027356 
L 69.749925 53.742116 
L 69.898725 50.733893 
L 70.047525 54.765482 
L 70.196325 54.154599 
L 70.345125 49.747421 
L 70.791525 56.870096 
L 70.940325 52.815874 
L 71.089125 52.605367 
L 71.237925 51.899134 
L 71.535525 55.600836 
L 71.684325 53.772246 
L 71.833125 50.422972 
L 71.981925 50.63346 
L 72.130725 55.531594 
L 72.428325 51.482579 
L 72.577125 54.198284 
L 72.725925 52.153747 
L 73.023525 54.421456 
L 73.321125 52.073073 
L 73.618725 55.418309 
L 73.916325 54.643403 
L 74.065125 54.847072 
L 74.213925 53.244969 
L 74.362725 53.951389 
L 74.660325 58.209599 
L 74.809125 54.486268 
L 74.957925 55.930828 
L 75.255525 55.691027 
L 75.404325 58.04279 
L 75.553125 55.173445 
L 75.701925 56.286888 
L 75.850725 53.844086 
L 75.999525 54.96878 
L 76.148325 54.525517 
L 76.297125 56.427379 
L 76.445925 54.917304 
L 76.743525 55.899366 
L 76.892325 52.968685 
L 77.041125 56.835214 
L 77.338725 54.436093 
L 77.487525 57.361989 
L 77.636325 55.503459 
L 77.785125 55.61947 
L 77.933925 54.139478 
L 78.082725 56.955116 
L 78.231525 56.643926 
L 78.380325 54.594505 
L 78.529125 54.817412 
L 78.975525 57.199906 
L 79.124325 54.9651 
L 79.273125 56.280215 
L 79.421925 54.148806 
L 79.570725 57.68282 
L 79.719525 55.513755 
L 79.868325 55.125313 
L 80.017125 56.133851 
L 80.165925 56.365353 
L 80.314725 55.76877 
L 80.463525 54.621094 
L 81.058725 58.928162 
L 81.207525 57.159402 
L 81.356325 56.742225 
L 81.505125 57.539472 
L 81.653925 57.165991 
L 81.802725 57.288789 
L 81.951525 56.891188 
L 82.100325 54.890714 
L 82.249125 57.798163 
L 82.397925 57.653014 
L 82.546725 58.929655 
L 82.695525 56.391496 
L 82.993125 57.163257 
L 83.141925 58.416273 
L 83.290725 58.476103 
L 83.439525 58.019578 
L 83.588325 58.502805 
L 83.737125 58.515019 
L 83.885925 56.24072 
L 84.034725 59.511055 
L 84.183525 59.589332 
L 84.332325 61.36453 
L 84.481125 58.09665 
L 84.629925 60.635716 
L 84.927525 59.236002 
L 85.076325 58.591683 
L 85.373925 61.200587 
L 85.522725 60.211844 
L 85.671525 60.419427 
L 85.820325 61.39345 
L 85.969125 60.617187 
L 86.266725 61.466255 
L 86.415525 61.320236 
L 86.564325 61.638517 
L 86.713125 61.053774 
L 86.861925 62.062576 
L 87.010725 61.597361 
L 87.159525 62.316174 
L 87.308325 60.899383 
L 87.605925 61.57084 
L 87.903525 63.497913 
L 88.052325 63.219663 
L 88.201125 62.311287 
L 88.349925 62.553435 
L 88.498725 63.409814 
L 88.647525 62.945278 
L 88.796325 63.061378 
L 89.093925 63.7843 
L 89.242725 64.742107 
L 89.391525 64.068528 
L 89.540325 64.306604 
L 89.689125 63.699903 
L 89.837925 65.077189 
L 89.986725 64.712205 
L 90.135525 65.215323 
L 90.284325 65.062547 
L 90.433125 65.219196 
L 90.581925 64.104063 
L 90.730725 66.208337 
L 91.177125 65.361199 
L 91.474725 66.42541 
L 91.772325 66.771009 
L 91.921125 66.238083 
L 92.218725 68.234222 
L 92.367525 67.705209 
L 92.516325 66.109662 
L 92.962725 68.638788 
L 93.111525 68.487111 
L 93.260325 68.692595 
L 93.409125 68.182352 
L 93.855525 69.253977 
L 94.004325 69.177438 
L 94.153125 68.599808 
L 94.301925 70.296359 
L 94.450725 69.853737 
L 94.599525 69.883424 
L 94.748325 70.063351 
L 94.897125 69.83356 
L 95.045925 71.2395 
L 95.343525 69.755131 
L 95.492325 70.105985 
L 95.641125 70.834283 
L 95.789925 70.257707 
L 95.938725 71.810979 
L 96.236325 72.294429 
L 96.385125 71.535796 
L 96.682725 72.556996 
L 96.980325 73.066892 
L 97.129125 72.657747 
L 97.277925 72.98881 
L 97.426725 73.006542 
L 97.575525 72.345526 
L 97.724325 74.171553 
L 97.873125 72.865152 
L 98.021925 73.619291 
L 98.319525 73.294448 
L 98.468325 74.144837 
L 98.617125 73.363426 
L 98.765925 74.356799 
L 98.914725 73.883635 
L 99.063525 75.314698 
L 99.212325 74.401808 
L 99.361125 76.298811 
L 99.509925 73.630545 
L 99.807525 74.807209 
L 99.956325 76.149285 
L 100.105125 76.286097 
L 100.253925 75.875526 
L 100.402725 76.837844 
L 100.551525 76.973201 
L 100.700325 77.40861 
L 100.849125 75.70483 
L 100.997925 76.989272 
L 101.146725 77.109812 
L 101.295525 76.760717 
L 101.444325 77.223716 
L 101.593125 75.685078 
L 101.741925 76.993276 
L 101.890725 76.73546 
L 102.039525 78.28091 
L 102.188325 77.562469 
L 102.337125 79.288403 
L 102.485925 77.538124 
L 102.634725 77.339394 
L 102.783525 79.158431 
L 102.932325 78.294153 
L 103.081125 78.129831 
L 103.229925 79.182444 
L 103.378725 78.459405 
L 103.527525 80.791768 
L 103.825125 78.865149 
L 103.973925 80.058319 
L 104.122725 79.454017 
L 104.271525 81.979778 
L 104.420325 81.831483 
L 104.569125 81.984645 
L 104.717925 82.574732 
L 104.866725 80.591931 
L 105.015525 82.769308 
L 105.164325 82.136146 
L 105.313125 80.984489 
L 105.461925 82.736906 
L 105.610725 82.024566 
L 105.759525 83.111938 
L 105.908325 82.833455 
L 106.057125 83.675489 
L 106.205925 81.830983 
L 106.354725 84.13199 
L 106.503525 83.405645 
L 106.652325 84.661514 
L 106.801125 83.086657 
L 106.949925 82.95069 
L 107.396325 86.365843 
L 107.545125 84.869718 
L 107.693925 85.87254 
L 107.842725 84.775148 
L 107.991525 85.363178 
L 108.140325 86.416851 
L 108.289125 85.814127 
L 108.437925 86.437982 
L 108.586725 86.567665 
L 108.735525 85.189161 
L 108.884325 85.337448 
L 109.181925 88.442696 
L 109.330725 85.628215 
L 109.628325 87.511477 
L 109.777125 87.176617 
L 110.074725 88.633107 
L 110.372325 86.610292 
L 110.521125 88.767436 
L 110.669925 87.054235 
L 110.818725 87.59839 
L 110.967525 90.740302 
L 111.116325 90.529005 
L 111.265125 89.589298 
L 111.413925 90.061246 
L 111.562725 89.661493 
L 111.711525 88.774179 
L 111.860325 90.891969 
L 112.009125 89.327728 
L 112.157925 92.827466 
L 112.455525 91.232327 
L 112.604325 92.349682 
L 112.753125 91.565879 
L 112.901925 93.089159 
L 113.050725 90.591816 
L 113.199525 93.744406 
L 113.348325 91.235102 
L 113.645925 95.943518 
L 113.794725 93.935234 
L 113.943525 94.315659 
L 114.092325 93.645315 
L 114.241125 90.679939 
L 114.538725 95.022521 
L 114.836325 92.804179 
L 114.985125 95.18318 
L 115.133925 94.276846 
L 115.282725 92.516772 
L 115.580325 98.001393 
L 115.729125 94.045691 
L 115.877925 97.948102 
L 116.026725 95.230325 
L 116.175525 96.740707 
L 116.324325 96.599749 
L 116.621925 100.925224 
L 116.919525 96.75362 
L 117.217125 101.576076 
L 117.365925 101.207905 
L 117.514725 98.122299 
L 117.663525 99.656756 
L 117.812325 99.07668 
L 118.109925 103.274772 
L 118.258725 102.666602 
L 118.407525 97.423364 
L 118.556325 103.124392 
L 118.705125 98.139067 
L 118.853925 100.934275 
L 119.002725 101.068743 
L 119.151525 103.464217 
L 119.300325 101.014374 
L 119.449125 104.980821 
L 119.597925 101.462583 
L 119.746725 102.690438 
L 119.895525 102.039531 
L 120.044325 100.87465 
L 120.193125 103.514952 
L 120.341925 103.242899 
L 120.490725 104.796782 
L 120.639525 104.153829 
L 120.788325 104.116249 
L 120.937125 108.096634 
L 121.085925 107.734684 
L 121.383525 101.817758 
L 121.681125 107.640082 
L 121.829925 106.291952 
L 121.978725 103.536581 
L 122.127525 105.491223 
L 122.425125 105.440397 
L 122.722725 109.935424 
L 122.871525 108.23369 
L 123.020325 110.386688 
L 123.169125 104.872601 
L 123.317925 108.010246 
L 123.466725 107.709306 
L 123.615525 107.939024 
L 123.764325 112.26082 
L 124.061925 107.075253 
L 124.508325 112.375108 
L 124.657125 111.559572 
L 124.805925 109.081341 
L 124.954725 110.293431 
L 125.103525 108.195975 
L 125.549925 113.433963 
L 125.698725 109.48966 
L 125.847525 113.552273 
L 125.996325 108.425894 
L 126.145125 109.289222 
L 126.293925 111.672579 
L 126.442725 116.427329 
L 126.591525 114.797992 
L 126.740325 109.348762 
L 127.037925 116.354963 
L 127.186725 109.680926 
L 127.335525 111.552684 
L 127.484325 116.972178 
L 127.633125 115.140678 
L 127.781925 117.148319 
L 128.079525 116.266295 
L 128.377125 112.926025 
L 128.525925 120.029618 
L 128.674725 116.470459 
L 128.823525 116.965153 
L 128.972325 122.319502 
L 129.121125 121.038138 
L 129.418725 115.090447 
L 129.567525 117.208643 
L 129.716325 117.632391 
L 129.865125 120.941775 
L 130.013925 117.190593 
L 130.162725 116.967769 
L 130.311525 124.52077 
L 130.460325 116.939504 
L 130.609125 117.464715 
L 130.757925 123.783872 
L 130.906725 116.28555 
L 131.055525 115.113437 
L 131.204325 116.23857 
L 131.353125 122.927346 
L 131.501925 120.911909 
L 131.650725 127.494627 
L 131.948325 119.418693 
L 132.097125 125.517221 
L 132.245925 125.916077 
L 132.394725 121.019625 
L 132.692325 125.209867 
L 132.841125 122.842549 
L 132.989925 128.477858 
L 133.138725 121.707412 
L 133.287525 126.197439 
L 133.436325 125.934212 
L 133.585125 119.689687 
L 133.882725 126.650462 
L 134.180325 121.402755 
L 134.477925 124.436632 
L 134.626725 124.175955 
L 134.775525 127.235164 
L 134.924325 127.67343 
L 135.073125 126.631083 
L 135.221925 123.727688 
L 135.370725 127.351457 
L 135.519525 125.495026 
L 135.668325 126.071035 
L 135.817125 130.562916 
L 135.965925 127.008804 
L 136.114725 128.46046 
L 136.263525 127.727244 
L 136.412325 127.932635 
L 136.561125 131.28961 
L 136.709925 128.517753 
L 136.858725 129.596202 
L 137.156325 126.149626 
L 137.305125 131.205529 
L 137.453925 131.299721 
L 137.751525 126.944441 
L 137.900325 135.43487 
L 138.197925 130.945718 
L 138.346725 135.100528 
L 138.644325 132.610763 
L 138.793125 126.474005 
L 139.090725 139.527694 
L 139.388325 132.99861 
L 139.537125 137.144319 
L 139.685925 128.457456 
L 139.983525 135.958243 
L 140.132325 136.347215 
L 140.281125 131.758443 
L 140.429925 134.959637 
L 140.578725 134.167118 
L 140.727525 134.287354 
L 140.876325 139.793773 
L 141.025125 140.954929 
L 141.322725 135.853829 
L 141.471525 139.34562 
L 141.620325 139.232913 
L 141.769125 136.754888 
L 141.917925 139.653191 
L 142.066725 136.935352 
L 142.215525 139.560637 
L 142.364325 136.383915 
L 142.513125 137.534762 
L 142.661925 141.388018 
L 142.810725 139.513258 
L 142.959525 144.494825 
L 143.108325 137.887243 
L 143.257125 141.224253 
L 143.405925 137.884811 
L 143.554725 142.916136 
L 143.703525 136.553567 
L 143.852325 140.906442 
L 144.001125 139.121805 
L 144.149925 139.853607 
L 144.298725 138.366394 
L 144.447525 142.685896 
L 144.596325 139.902985 
L 144.745125 143.076734 
L 144.893925 136.902405 
L 145.042725 144.964252 
L 145.191525 144.671853 
L 145.340325 148.413863 
L 145.637925 144.071831 
L 145.786725 144.682295 
L 146.084325 149.059897 
L 146.233125 148.81931 
L 146.381925 147.500809 
L 146.530725 147.846325 
L 146.679525 144.262131 
L 146.977125 149.54252 
L 147.125925 145.472888 
L 147.274725 147.442693 
L 147.423525 142.875649 
L 147.572325 143.01808 
L 147.869925 145.405583 
L 148.018725 149.399111 
L 148.167525 150.279948 
L 148.316325 144.855324 
L 148.465125 144.682323 
L 148.613925 146.206417 
L 148.911525 150.429832 
L 149.060325 149.803826 
L 149.209125 147.270321 
L 149.357925 151.474789 
L 149.506725 150.48498 
L 149.655525 152.343535 
L 149.804325 149.590794 
L 149.953125 151.006991 
L 150.101925 148.554616 
L 150.399525 154.540149 
L 150.548325 153.956139 
L 150.697125 157.005115 
L 150.845925 156.194696 
L 150.994725 156.476132 
L 151.143525 154.465245 
L 151.292325 157.134943 
L 151.441125 156.256508 
L 151.589925 158.485956 
L 151.738725 154.613828 
L 151.887525 156.842228 
L 152.036325 157.021641 
L 152.185125 158.087394 
L 152.333925 156.688327 
L 152.631525 157.036485 
L 152.780325 160.004761 
L 153.077925 157.611127 
L 153.226725 157.364212 
L 153.375525 158.699233 
L 153.524325 156.870005 
L 153.673125 157.9386 
L 153.821925 154.19213 
L 153.970725 158.970797 
L 154.119525 157.884538 
L 154.268325 158.212705 
L 154.417125 157.194899 
L 154.565925 158.268201 
L 154.714725 157.212249 
L 154.863525 157.051012 
L 155.012325 159.99374 
L 155.161125 159.79763 
L 155.309925 162.672707 
L 155.458725 159.180447 
L 155.756325 161.639602 
L 155.905125 156.208004 
L 156.053925 161.72918 
L 156.202725 155.321394 
L 156.500325 164.684692 
L 156.649125 162.879854 
L 156.797925 163.020267 
L 156.946725 160.207496 
L 157.095525 162.168024 
L 157.244325 166.910212 
L 157.393125 166.114234 
L 157.541925 167.98984 
L 157.839525 162.492992 
L 157.988325 162.042017 
L 158.137125 161.005103 
L 158.285925 162.127203 
L 158.434725 161.039043 
L 158.732325 168.544386 
L 159.029925 165.764101 
L 159.178725 165.815012 
L 159.327525 158.800209 
L 159.476325 164.729983 
L 159.625125 164.577105 
L 159.922725 168.968503 
L 160.071525 163.983845 
L 160.220325 170.141063 
L 160.369125 171.661576 
L 160.517925 164.945928 
L 160.666725 169.650986 
L 160.815525 169.244038 
L 161.113125 165.279451 
L 161.261925 169.407529 
L 161.410725 169.979768 
L 161.559525 168.174956 
L 161.708325 168.737621 
L 161.857125 166.349102 
L 162.005925 171.491049 
L 162.303525 166.547433 
L 162.898725 175.115788 
L 163.047525 171.694739 
L 163.196325 173.720213 
L 163.345125 168.175213 
L 163.642725 173.601843 
L 163.940325 170.4199 
L 164.089125 171.553248 
L 164.237925 173.767345 
L 164.386725 168.879952 
L 164.535525 170.722484 
L 164.833125 177.323361 
L 164.981925 174.373384 
L 165.130725 168.738768 
L 165.279525 171.198533 
L 165.428325 169.623924 
L 165.577125 179.497324 
L 165.725925 173.237438 
L 166.023525 176.322432 
L 166.172325 172.009572 
L 166.321125 173.01144 
L 166.469925 175.846227 
L 166.618725 169.741839 
L 166.916325 175.858871 
L 167.065125 174.648941 
L 167.213925 169.976333 
L 167.362725 169.236416 
L 167.660325 178.971055 
L 167.809125 178.441134 
L 167.957925 176.341481 
L 168.106725 177.360219 
L 168.404325 172.062722 
L 168.553125 180.281575 
L 168.999525 176.39466 
L 169.148325 179.340403 
L 169.445925 172.723096 
L 169.594725 172.903491 
L 169.743525 178.244588 
L 169.892325 178.695545 
L 170.041125 184.20687 
L 170.189925 177.322953 
L 170.338725 178.287326 
L 170.487525 180.784753 
L 170.636325 180.315411 
L 170.785125 177.011881 
L 170.933925 178.272762 
L 171.082725 177.189609 
L 171.380325 180.461059 
L 171.529125 179.842978 
L 171.677925 177.97009 
L 171.826725 181.024992 
L 171.975525 173.162722 
L 172.273125 183.067947 
L 172.570725 178.510563 
L 172.719525 182.371489 
L 172.868325 180.759816 
L 173.017125 182.630404 
L 173.165925 176.889043 
L 173.314725 180.862865 
L 173.463525 180.854631 
L 173.612325 185.490473 
L 173.761125 182.707625 
L 173.909925 185.338674 
L 174.058725 184.509028 
L 174.207525 179.009299 
L 174.653925 184.250975 
L 174.802725 180.841729 
L 174.951525 182.539608 
L 175.100325 185.519556 
L 175.249125 180.543987 
L 175.397925 183.226507 
L 175.546725 180.111925 
L 175.844325 187.00319 
L 176.141925 184.149156 
L 176.290725 184.233451 
L 176.439525 190.897098 
L 176.588325 181.477594 
L 176.737125 183.595225 
L 176.885925 187.486709 
L 177.034725 185.089408 
L 177.183525 185.10435 
L 177.332325 178.553041 
L 177.481125 188.225778 
L 177.629925 182.813317 
L 177.778725 187.139006 
L 177.927525 184.527114 
L 178.076325 186.078425 
L 178.225125 185.17291 
L 178.373925 185.249189 
L 178.522725 184.771194 
L 178.820325 187.917118 
L 178.969125 186.871606 
L 179.117925 184.689109 
L 179.266725 185.724045 
L 179.415525 175.543716 
L 179.713125 191.549967 
L 179.861925 183.755609 
L 180.010725 190.847641 
L 180.159525 182.785146 
L 180.308325 187.456576 
L 180.457125 187.147901 
L 180.754725 185.219566 
L 180.903525 189.364034 
L 181.052325 188.693826 
L 181.201125 184.546474 
L 181.349925 187.284685 
L 181.498725 185.979068 
L 181.647525 187.290713 
L 181.796325 189.970195 
L 181.945125 186.980002 
L 182.093925 187.83897 
L 182.242725 191.103322 
L 182.391525 191.810718 
L 182.540325 189.612775 
L 182.689125 185.567271 
L 182.837925 184.818702 
L 183.135525 190.097157 
L 183.284325 186.502679 
L 183.433125 187.29044 
L 183.581925 189.754571 
L 183.730725 189.221769 
L 183.879525 183.282761 
L 184.028325 188.05559 
L 184.177125 186.917484 
L 184.623525 189.710536 
L 184.772325 189.257698 
L 185.069925 187.675746 
L 185.367525 189.234165 
L 185.516325 186.562965 
L 185.665125 188.151177 
L 185.813925 187.613688 
L 185.962725 190.140885 
L 186.260325 186.699138 
L 186.409125 188.308496 
L 186.557925 192.758145 
L 186.706725 192.281538 
L 186.855525 192.578155 
L 187.004325 190.118009 
L 187.153125 189.673245 
L 187.450725 191.882696 
L 187.748325 191.185023 
L 187.897125 190.934409 
L 188.045925 191.608848 
L 188.194725 193.25524 
L 188.343525 191.639102 
L 188.492325 192.479311 
L 188.641125 192.311502 
L 188.789925 192.813006 
L 188.938725 189.666727 
L 189.236325 192.171839 
L 189.385125 192.667209 
L 189.533925 192.072838 
L 189.682725 193.416125 
L 189.831525 192.638885 
L 189.980325 193.428359 
L 190.129125 195.118984 
L 190.575525 192.495025 
L 190.724325 193.157747 
L 190.873125 197.692896 
L 191.021925 194.323057 
L 191.170725 194.173218 
L 191.319525 197.579832 
L 191.617125 194.727621 
L 191.765925 193.565028 
L 192.063525 195.573321 
L 192.212325 194.254304 
L 192.361125 197.527992 
L 192.509925 197.348483 
L 192.658725 196.583356 
L 192.807525 200.078077 
L 193.105125 195.466024 
L 193.253925 200.511436 
L 193.402725 196.663223 
L 193.551525 195.976121 
L 193.700325 196.592293 
L 193.849125 193.964966 
L 193.997925 196.701525 
L 194.146725 194.426752 
L 194.295525 198.306497 
L 194.444325 196.392971 
L 194.593125 198.722462 
L 194.741925 194.392244 
L 194.890725 197.04068 
L 195.039525 196.606495 
L 195.188325 197.738247 
L 195.337125 194.626339 
L 195.634725 199.574666 
L 195.783525 196.763454 
L 195.932325 202.297625 
L 196.081125 195.95907 
L 196.378725 199.463908 
L 196.676325 198.884115 
L 196.825125 197.347061 
L 196.973925 199.246545 
L 197.271525 198.226686 
L 197.420325 199.228831 
L 197.569125 198.352295 
L 197.717925 198.913655 
L 197.866725 197.418097 
L 198.015525 197.596601 
L 198.164325 201.273792 
L 198.313125 201.109397 
L 198.461925 202.221759 
L 198.759525 199.530237 
L 199.057125 202.301704 
L 199.205925 199.667321 
L 199.354725 202.892277 
L 199.503525 203.318937 
L 199.652325 200.28314 
L 199.949925 203.801016 
L 200.098725 200.794318 
L 200.247525 200.708129 
L 200.396325 203.812752 
L 200.545125 203.321609 
L 200.693925 203.597254 
L 200.842725 200.356193 
L 200.991525 204.414149 
L 201.140325 203.692782 
L 201.289125 205.247439 
L 201.437925 204.628671 
L 201.586725 199.80562 
L 201.884325 204.376538 
L 202.033125 200.824622 
L 202.181925 201.533141 
L 202.330725 205.133873 
L 202.479525 204.578675 
L 202.628325 201.695019 
L 202.925925 204.592012 
L 203.074725 203.586545 
L 203.372325 208.245519 
L 203.521125 203.126554 
L 203.669925 206.538669 
L 203.818725 203.991187 
L 203.967525 206.182308 
L 204.116325 205.233712 
L 204.265125 203.213264 
L 204.413925 204.330836 
L 204.562725 203.301808 
L 204.860325 206.138946 
L 205.009125 204.913561 
L 205.157925 205.615346 
L 205.306725 205.500234 
L 205.455525 206.764868 
L 205.604325 206.3756 
L 205.753125 206.416974 
L 205.901925 205.962355 
L 206.050725 204.545012 
L 206.199525 205.115155 
L 206.348325 208.086491 
L 206.497125 207.82644 
L 206.645925 208.871357 
L 206.794725 206.517179 
L 207.092325 208.296738 
L 207.241125 207.3572 
L 207.389925 210.66308 
L 207.687525 204.383237 
L 207.836325 207.016341 
L 207.985125 207.044153 
L 208.133925 206.336345 
L 208.282725 208.906822 
L 208.431525 208.998378 
L 208.580325 210.183382 
L 208.729125 208.736323 
L 208.877925 209.303406 
L 209.175525 207.410898 
L 209.324325 209.91894 
L 209.473125 209.043829 
L 209.621925 210.092171 
L 209.770725 200.716445 
L 209.919525 210.905315 
L 210.068325 208.459494 
L 210.365925 211.966013 
L 210.514725 210.879594 
L 210.663525 211.644155 
L 210.812325 207.349217 
L 210.961125 211.645916 
L 211.109925 212.008191 
L 211.258725 206.671154 
L 211.407525 211.879689 
L 211.556325 208.775289 
L 211.705125 209.712238 
L 212.002725 212.890298 
L 212.151525 208.062942 
L 212.300325 208.163319 
L 212.449125 212.242772 
L 212.746725 209.119235 
L 212.895525 217.02373 
L 213.193125 213.844047 
L 213.341925 214.373805 
L 213.490725 210.951219 
L 213.639525 213.010719 
L 213.788325 213.318585 
L 213.937125 213.957563 
L 214.085925 202.950843 
L 214.234725 217.406037 
L 214.532325 212.332207 
L 214.681125 211.459076 
L 214.978725 214.802406 
L 215.127525 211.924625 
L 215.276325 215.242136 
L 215.425125 214.315229 
L 215.573925 215.35783 
L 215.722725 217.409264 
L 215.871525 210.4744 
L 216.020325 215.7886 
L 216.169125 215.374504 
L 216.317925 215.664293 
L 216.466725 215.119568 
L 216.615525 217.31515 
L 216.764325 214.502236 
L 216.913125 214.761558 
L 217.061925 213.860214 
L 217.359525 214.523994 
L 217.508325 215.478444 
L 217.657125 217.268924 
L 217.805925 217.364162 
L 217.954725 215.904889 
L 218.103525 215.857349 
L 218.252325 217.295696 
L 218.401125 216.745425 
L 218.549925 213.639884 
L 218.698725 217.18353 
L 218.847525 216.83797 
L 218.996325 215.394088 
L 219.145125 217.52243 
L 219.293925 217.64884 
L 219.442725 219.464131 
L 219.591525 217.595293 
L 219.889125 217.144398 
L 220.186725 219.529961 
L 220.335525 217.473035 
L 220.484325 219.218988 
L 220.633125 216.894367 
L 220.930725 219.071512 
L 221.079525 219.869755 
L 221.228325 218.949862 
L 221.377125 219.157195 
L 221.525925 219.119679 
L 221.674725 218.332154 
L 221.823525 220.373936 
L 222.121125 219.045009 
L 222.269925 221.440216 
L 222.418725 218.383517 
L 222.567525 220.292423 
L 222.716325 219.875722 
L 222.865125 219.060224 
L 223.013925 223.173894 
L 223.162725 219.142748 
L 223.609125 221.858218 
L 223.757925 218.817695 
L 223.906725 220.900479 
L 224.204325 221.388148 
L 224.353125 223.776992 
L 224.799525 222.403367 
L 224.948325 221.255759 
L 225.097125 225.00685 
L 225.245925 222.85833 
L 225.394725 224.425934 
L 225.543525 221.566793 
L 225.841125 223.824359 
L 225.989925 223.595895 
L 226.138725 221.940263 
L 226.287525 223.117407 
L 226.436325 220.652315 
L 226.585125 222.446197 
L 226.733925 222.271743 
L 226.882725 225.351086 
L 227.031525 221.59271 
L 227.180325 226.196859 
L 227.329125 222.706307 
L 227.477925 226.192828 
L 227.775525 224.051564 
L 227.924325 223.485685 
L 228.073125 224.259247 
L 228.221925 222.312445 
L 228.370725 225.837173 
L 228.519525 226.147892 
L 228.668325 224.120202 
L 228.817125 225.28352 
L 228.965925 231.764141 
L 229.114725 226.303847 
L 229.263525 226.906087 
L 229.412325 227.998484 
L 229.561125 225.038577 
L 229.709925 225.065146 
L 229.858725 225.589584 
L 230.156325 230.329209 
L 230.305125 224.942415 
L 230.453925 224.405539 
L 230.602725 229.182741 
L 230.751525 228.658237 
L 230.900325 226.187337 
L 231.049125 226.824665 
L 231.197925 229.06171 
L 231.346725 227.754505 
L 231.495525 228.621935 
L 231.644325 227.809244 
L 231.941925 230.044168 
L 232.239525 227.922132 
L 232.388325 230.457873 
L 232.537125 229.425056 
L 232.834725 230.782277 
L 232.983525 227.825037 
L 233.281125 230.943388 
L 233.429925 228.666468 
L 233.578725 229.829902 
L 233.727525 227.766319 
L 234.025125 231.746743 
L 234.173925 230.188681 
L 234.322725 231.65872 
L 234.471525 229.761594 
L 234.620325 231.153992 
L 234.769125 229.634043 
L 234.917925 231.806168 
L 235.066725 231.523237 
L 235.215525 231.733725 
L 235.513125 233.238984 
L 235.661925 232.669064 
L 235.810725 232.890193 
L 235.959525 230.95039 
L 236.257125 233.685337 
L 236.405925 232.982221 
L 236.554725 238.168234 
L 236.703525 233.817376 
L 236.852325 234.055091 
L 237.149925 238.960021 
L 237.298725 233.129716 
L 237.447525 232.622655 
L 237.596325 232.816797 
L 237.893925 234.893694 
L 238.042725 233.487217 
L 238.191525 233.432382 
L 238.340325 233.716655 
L 238.489125 236.271819 
L 238.637925 235.325648 
L 238.935525 234.802599 
L 239.084325 235.809531 
L 239.233125 234.188458 
L 239.381925 234.565094 
L 239.679525 239.718283 
L 239.828325 241.091921 
L 240.125925 237.568418 
L 240.274725 240.663702 
L 240.572325 235.439667 
L 240.721125 238.524488 
L 240.869925 238.936891 
L 241.167525 237.508759 
L 241.316325 244.403758 
L 241.465125 238.044851 
L 241.762725 239.141585 
L 241.911525 238.531227 
L 242.060325 236.159469 
L 242.209125 238.071598 
L 242.357925 236.583107 
L 242.506725 238.504566 
L 242.655525 238.918588 
L 242.804325 240.188086 
L 242.953125 236.075615 
L 243.101925 237.420602 
L 243.250725 237.33795 
L 243.548325 239.147823 
L 243.697125 239.590856 
L 243.845925 241.236136 
L 243.994725 239.187622 
L 244.292325 241.083218 
L 244.441125 238.330312 
L 244.589925 238.794292 
L 244.738725 240.180361 
L 244.887525 243.228262 
L 245.036325 239.278121 
L 245.333925 242.052099 
L 245.482725 242.058179 
L 245.631525 242.498525 
L 245.929125 239.286663 
L 246.077925 243.018895 
L 246.226725 250.38258 
L 246.375525 239.977901 
L 246.673125 243.326529 
L 246.821925 241.855485 
L 246.970725 241.507208 
L 247.119525 242.667136 
L 247.268325 241.994784 
L 247.417125 243.80633 
L 247.565925 242.787703 
L 247.714725 244.589825 
L 247.863525 243.676604 
L 248.012325 244.757638 
L 248.161125 244.875105 
L 248.309925 248.285031 
L 248.458725 245.719647 
L 248.607525 246.420902 
L 248.756325 246.5851 
L 248.905125 246.274593 
L 249.053925 253.921343 
L 249.202725 246.571959 
L 249.351525 246.525745 
L 249.500325 245.857973 
L 249.649125 250.176631 
L 249.797925 245.203244 
L 249.946725 249.516873 
L 250.095525 247.797705 
L 250.244325 244.217805 
L 250.393125 251.697255 
L 250.541925 246.707542 
L 250.690725 246.445835 
L 250.839525 246.817618 
L 250.988325 251.487467 
L 251.285925 245.233217 
L 251.434725 244.82524 
L 251.732325 248.276234 
L 251.881125 252.54629 
L 252.029925 247.805712 
L 252.178725 247.980047 
L 252.327525 251.990372 
L 252.476325 248.755182 
L 252.625125 248.801863 
L 252.773925 250.235158 
L 252.922725 249.655985 
L 253.071525 257.47955 
L 253.220325 248.651646 
L 253.369125 248.81375 
L 253.517925 250.203622 
L 253.666725 247.723975 
L 253.815525 248.704837 
L 253.964325 247.250481 
L 254.113125 249.544554 
L 254.261925 249.41379 
L 254.559525 250.089226 
L 254.708325 248.64276 
L 254.857125 250.959731 
L 255.005925 249.259114 
L 255.154725 249.824269 
L 255.303525 248.795738 
L 255.452325 249.721584 
L 255.601125 249.07958 
L 255.749925 259.181769 
L 255.898725 251.947629 
L 256.047525 250.722013 
L 256.196325 261.189199 
L 256.345125 249.820909 
L 256.940325 252.156496 
L 257.237925 256.1224 
L 257.386725 247.16756 
L 257.535525 247.913801 
L 257.684325 251.393042 
L 257.833125 251.938282 
L 257.981925 252.924872 
L 258.130725 252.788105 
L 258.279525 251.328888 
L 258.428325 253.461563 
L 258.577125 252.257292 
L 258.725925 254.484929 
L 258.874725 253.274074 
L 259.023525 255.076152 
L 259.172325 255.184721 
L 259.321125 254.918826 
L 259.469925 254.997014 
L 259.618725 255.751467 
L 259.767525 253.509119 
L 259.916325 255.860412 
L 260.065125 254.145704 
L 260.362725 254.213586 
L 260.511525 255.583594 
L 260.660325 255.340433 
L 260.809125 257.339346 
L 260.957925 256.849438 
L 261.106725 252.402437 
L 261.255525 257.631912 
L 261.404325 256.423415 
L 261.553125 256.391733 
L 261.701925 255.090209 
L 261.850725 256.415235 
L 261.999525 255.62778 
L 262.148325 263.345136 
L 262.297125 254.558792 
L 262.445925 255.468913 
L 262.594725 257.533593 
L 262.743525 257.834947 
L 262.892325 256.462708 
L 263.041125 257.192785 
L 263.189925 257.079431 
L 263.338725 257.681567 
L 263.487525 256.620685 
L 263.785125 258.80179 
L 263.933925 252.80269 
L 264.082725 258.95612 
L 264.231525 256.301452 
L 264.380325 255.947963 
L 264.677925 260.522947 
L 264.826725 258.638056 
L 264.975525 259.660184 
L 265.124325 257.614904 
L 265.273125 259.588501 
L 265.421925 259.981839 
L 265.570725 258.268247 
L 265.719525 260.978054 
L 265.868325 259.054595 
L 266.017125 258.818331 
L 266.165925 261.111769 
L 266.314725 259.029609 
L 266.463525 259.073331 
L 266.761125 262.80767 
L 267.058725 260.983664 
L 267.207525 262.22766 
L 267.356325 261.817232 
L 267.505125 262.162118 
L 267.653925 263.787694 
L 267.802725 267.733235 
L 267.951525 260.358314 
L 268.100325 261.439801 
L 268.249125 263.486733 
L 268.397925 263.042032 
L 268.546725 258.020916 
L 268.695525 261.562539 
L 268.993125 259.540496 
L 269.141925 264.223851 
L 269.290725 262.914333 
L 269.588325 269.976188 
L 269.885925 256.733749 
L 270.034725 264.334916 
L 270.183525 264.175702 
L 270.332325 265.681021 
L 270.481125 264.305479 
L 270.629925 265.153453 
L 270.778725 268.974915 
L 270.927525 265.803138 
L 271.225125 266.134083 
L 271.373925 263.235109 
L 271.522725 270.90734 
L 271.671525 265.583077 
L 271.820325 264.98647 
L 271.969125 265.456017 
L 272.117925 267.025161 
L 272.266725 265.93896 
L 272.415525 265.784614 
L 272.564325 268.530822 
L 272.713125 264.939871 
L 273.010725 267.937243 
L 273.159525 278.242346 
L 273.308325 263.308914 
L 273.457125 272.139914 
L 273.605925 265.701288 
L 273.754725 265.856299 
L 273.903525 269.071736 
L 274.201125 266.220093 
L 274.349925 266.502172 
L 274.498725 266.032345 
L 274.647525 266.072084 
L 274.796325 267.703312 
L 274.945125 271.040771 
L 275.093925 267.22122 
L 275.242725 268.305724 
L 275.391525 268.122811 
L 275.689125 266.889282 
L 275.837925 267.651865 
L 275.986725 264.182084 
L 276.135525 269.982361 
L 276.284325 269.125343 
L 276.433125 269.77832 
L 276.581925 269.908815 
L 276.730725 274.02262 
L 276.879525 270.055297 
L 277.177125 271.059583 
L 277.325925 272.405387 
L 277.474725 268.78286 
L 277.623525 272.489196 
L 277.921125 270.90506 
L 278.367525 272.574382 
L 278.516325 273.999505 
L 278.665125 273.021812 
L 278.962725 273.574606 
L 279.260325 271.976673 
L 279.409125 272.235064 
L 279.557925 272.163224 
L 279.706725 272.344582 
L 279.855525 271.326782 
L 280.004325 273.617523 
L 280.301925 269.756879 
L 280.599525 274.715561 
L 280.748325 271.678085 
L 280.897125 271.769047 
L 281.194725 279.960084 
L 281.343525 273.401938 
L 281.492325 273.47052 
L 281.641125 269.533202 
L 281.789925 269.602857 
L 281.938725 276.496356 
L 282.087525 272.801099 
L 282.385125 274.269947 
L 282.533925 275.50529 
L 282.682725 277.918256 
L 282.831525 276.792475 
L 282.980325 272.811457 
L 283.129125 273.953381 
L 283.277925 278.979658 
L 283.426725 278.04465 
L 283.575525 280.689198 
L 283.724325 272.883097 
L 283.873125 275.421055 
L 284.021925 273.267466 
L 284.170725 274.856913 
L 284.468325 280.407881 
L 284.617125 277.953212 
L 284.765925 280.530757 
L 284.914725 277.332725 
L 285.063525 279.89333 
L 285.212325 285.031861 
L 285.361125 282.358409 
L 285.509925 270.497192 
L 285.658725 277.087875 
L 285.807525 277.471947 
L 285.956325 272.826032 
L 286.105125 279.300452 
L 286.253925 273.414325 
L 286.402725 274.651547 
L 286.551525 270.385923 
L 286.700325 278.655174 
L 286.849125 273.501896 
L 286.997925 275.350497 
L 287.146725 273.116452 
L 287.444325 293.360432 
L 287.741925 279.538769 
L 287.890725 270.914634 
L 288.039525 272.206947 
L 288.337125 276.947258 
L 288.485925 285.818834 
L 288.783525 275.428125 
L 288.932325 276.35644 
L 289.081125 275.182078 
L 289.378725 286.402738 
L 289.527525 280.411896 
L 289.676325 283.237303 
L 289.825125 276.221087 
L 289.973925 285.687361 
L 290.271525 277.075305 
L 290.420325 287.132168 
L 290.569125 280.217476 
L 290.717925 279.758953 
L 290.866725 275.717498 
L 291.164325 285.837789 
L 291.313125 276.266223 
L 291.461925 280.465181 
L 291.610725 288.842883 
L 291.908325 284.547415 
L 292.205925 273.559315 
L 292.503525 285.247065 
L 292.949925 277.886916 
L 293.098725 282.96898 
L 293.247525 278.207838 
L 293.396325 286.952225 
L 293.545125 279.404625 
L 293.693925 283.510567 
L 293.842725 283.759795 
L 293.991525 278.632979 
L 294.140325 278.557526 
L 294.437925 286.534777 
L 294.735525 282.096795 
L 294.884325 282.927046 
L 295.033125 282.702464 
L 295.181925 283.530898 
L 295.330725 275.906631 
L 295.479525 287.273009 
L 295.628325 266.383825 
L 295.925925 288.399273 
L 296.223525 288.672973 
L 296.372325 281.160458 
L 296.521125 284.484952 
L 296.669925 280.26593 
L 296.818725 280.40081 
L 296.967525 287.169378 
L 297.116325 287.879515 
L 297.265125 285.118159 
L 297.413925 286.055031 
L 297.562725 290.498329 
L 297.711525 285.747467 
L 297.860325 286.366092 
L 298.009125 284.517612 
L 298.157925 286.20281 
L 298.306725 286.229956 
L 298.455525 283.696224 
L 298.604325 286.03275 
L 298.753125 278.679803 
L 298.901925 285.997389 
L 299.050725 283.770667 
L 299.199525 288.651555 
L 299.348325 283.49813 
L 299.497125 285.902451 
L 299.645925 283.100165 
L 299.794725 282.701487 
L 299.943525 279.975001 
L 300.092325 284.429337 
L 300.241125 283.398063 
L 300.389925 279.849561 
L 300.538725 286.760971 
L 300.687525 280.980797 
L 300.985125 289.397611 
L 301.133925 284.082987 
L 301.282725 285.390018 
L 301.431525 288.529621 
L 301.580325 271.197753 
L 301.877925 290.699339 
L 302.026725 279.604504 
L 302.175525 285.274588 
L 302.324325 282.203157 
L 302.473125 284.111521 
L 302.770725 280.492175 
L 302.919525 290.154648 
L 303.068325 284.72401 
L 303.217125 295.269299 
L 303.365925 288.619675 
L 303.514725 293.809504 
L 303.663525 284.66848 
L 303.961125 292.783574 
L 304.109925 280.296197 
L 304.258725 295.131255 
L 304.407525 296.160796 
L 304.705125 283.141118 
L 304.853925 288.501111 
L 305.002725 282.068848 
L 305.151525 289.099049 
L 305.449125 277.642743 
L 305.597925 290.910319 
L 305.746725 286.304084 
L 305.895525 294.286665 
L 306.044325 292.339446 
L 306.193125 293.60958 
L 306.341925 293.172877 
L 306.490725 290.418556 
L 306.639525 290.635086 
L 306.788325 291.767121 
L 306.937125 286.542778 
L 307.085925 288.194336 
L 307.383525 286.767771 
L 307.532325 280.677376 
L 307.681125 287.655926 
L 307.829925 286.673391 
L 307.978725 299.849436 
L 308.276325 289.44916 
L 308.425125 293.63886 
L 308.573925 292.356106 
L 308.871525 286.21189 
L 309.020325 290.841827 
L 309.317925 287.199164 
L 309.466725 292.147645 
L 309.615525 289.128678 
L 309.764325 290.048914 
L 309.913125 289.893265 
L 310.061925 293.427927 
L 310.210725 283.869465 
L 310.359525 292.104509 
L 310.508325 292.055034 
L 310.657125 289.612988 
L 310.805925 296.227706 
L 310.954725 292.339594 
L 311.252325 293.712107 
L 311.401125 290.406746 
L 311.549925 291.025049 
L 311.698725 291.064588 
L 311.847525 290.785381 
L 311.996325 289.044925 
L 312.145125 297.413332 
L 312.293925 293.561306 
L 312.442725 285.84277 
L 312.740325 294.652714 
L 312.889125 290.32487 
L 313.037925 289.36814 
L 313.186725 305.344828 
L 313.484325 287.673778 
L 313.633125 289.739683 
L 313.781925 287.581489 
L 313.930725 293.504803 
L 314.228325 295.204509 
L 314.377125 288.611362 
L 314.674725 295.763538 
L 314.823525 290.085188 
L 314.972325 297.582858 
L 315.121125 289.835924 
L 315.418725 297.071418 
L 315.567525 290.516572 
L 315.865125 293.653255 
L 316.013925 294.235897 
L 316.162725 289.267121 
L 316.311525 296.289788 
L 316.460325 295.632096 
L 316.609125 293.505096 
L 316.757925 275.338882 
L 316.906725 291.494531 
L 317.055525 291.773241 
L 317.204325 296.253682 
L 317.353125 293.45419 
L 317.501925 294.976612 
L 317.650725 292.409737 
L 317.799525 298.926536 
L 318.245925 291.946664 
L 318.543525 297.785267 
L 318.692325 294.21538 
L 319.138725 292.283516 
L 319.436325 297.318866 
L 319.585125 292.729883 
L 319.733925 298.539549 
L 319.882725 294.406976 
L 320.031525 294.522454 
L 320.180325 295.259709 
L 320.329125 297.085886 
L 320.477925 292.442788 
L 320.626725 296.726094 
L 320.775525 297.687434 
L 320.924325 301.871969 
L 321.221925 296.755163 
L 321.370725 299.731046 
L 321.519525 292.893985 
L 321.668325 293.730594 
L 321.817125 290.795994 
L 321.965925 297.339086 
L 322.114725 291.405056 
L 322.263525 299.015925 
L 322.412325 294.925978 
L 322.561125 295.252326 
L 322.709925 294.239023 
L 322.858725 296.299173 
L 323.007525 300.843633 
L 323.156325 301.056952 
L 323.305125 298.061321 
L 323.453925 299.881909 
L 323.602725 293.025874 
L 323.751525 296.405471 
L 323.900325 292.517564 
L 324.049125 295.997368 
L 324.197925 295.377761 
L 324.346725 296.270446 
L 324.495525 302.242193 
L 324.644325 297.28655 
L 324.793125 296.369603 
L 324.941925 302.212476 
L 325.090725 303.376454 
L 325.239525 303.561627 
L 325.388325 296.211937 
L 325.685925 301.4964 
L 325.834725 300.956135 
L 325.983525 300.842774 
L 326.132325 294.566741 
L 326.281125 296.169113 
L 326.578725 304.019442 
L 326.727525 297.790618 
L 326.876325 296.643048 
L 327.025125 298.146799 
L 327.173925 294.53624 
L 327.322725 294.331796 
L 327.769125 302.139337 
L 328.066725 299.838123 
L 328.215525 299.755516 
L 328.364325 298.209309 
L 328.513125 301.113986 
L 328.661925 300.347512 
L 328.810725 301.486936 
L 328.959525 301.487056 
L 329.108325 300.772508 
L 329.257125 297.913706 
L 329.405925 302.94277 
L 329.554725 297.559216 
L 329.703525 297.152568 
L 329.852325 302.603543 
L 330.001125 296.400148 
L 330.149925 301.465694 
L 330.298725 300.354122 
L 330.447525 303.499529 
L 330.596325 297.614401 
L 330.745125 297.609851 
L 330.893925 296.103724 
L 331.042725 297.256763 
L 331.191525 306.821522 
L 331.340325 299.355365 
L 331.489125 300.149103 
L 331.637925 301.750903 
L 331.786725 298.804448 
L 332.084325 299.990275 
L 332.233125 304.412388 
L 332.530725 293.994071 
L 332.828325 304.793485 
L 332.977125 299.908966 
L 333.125925 298.834656 
L 333.572325 308.791297 
L 333.721125 304.965054 
L 334.018725 303.432626 
L 334.167525 304.287262 
L 334.465125 298.939254 
L 334.762725 307.134661 
L 335.060325 304.141553 
L 335.209125 302.412349 
L 335.506725 307.988415 
L 335.804325 302.108445 
L 335.953125 306.517603 
L 336.250725 303.576964 
L 336.399525 306.730134 
L 336.548325 306.347533 
L 336.697125 308.850726 
L 336.845925 299.983047 
L 336.994725 303.103791 
L 337.143525 302.398813 
L 337.292325 305.027839 
L 337.441125 303.360936 
L 337.589925 306.364085 
L 337.738725 305.092153 
L 338.036325 301.376523 
L 338.185125 305.765722 
L 338.333925 304.235711 
L 338.482725 305.334013 
L 338.631525 299.878249 
L 338.929125 307.387456 
L 339.077925 303.832897 
L 339.226725 307.69844 
L 339.375525 306.275728 
L 339.524325 307.306378 
L 339.821925 306.450584 
L 339.970725 309.059696 
L 340.119525 302.924288 
L 340.268325 306.191878 
L 340.417125 304.20549 
L 340.565925 310.031275 
L 340.714725 303.575779 
L 341.161125 308.124765 
L 341.309925 303.982494 
L 341.607525 307.129437 
L 341.756325 306.550214 
L 341.905125 307.07616 
L 342.053925 304.834994 
L 342.202725 305.625881 
L 342.351525 309.10171 
L 342.500325 308.194326 
L 342.649125 308.672068 
L 342.797925 307.073564 
L 342.946725 309.883455 
L 343.095525 307.514342 
L 343.244325 306.96415 
L 343.393125 307.444458 
L 343.541925 310.384057 
L 343.690725 307.500415 
L 343.839525 309.847732 
L 343.988325 314.268379 
L 344.137125 307.691457 
L 344.434725 311.699909 
L 344.583525 310.218734 
L 344.732325 305.577791 
L 344.881125 313.577302 
L 345.029925 310.040708 
L 345.178725 312.392586 
L 345.327525 310.247464 
L 345.476325 313.949658 
L 345.625125 311.549155 
L 345.773925 311.651126 
L 345.922725 308.991869 
L 346.220325 312.377486 
L 346.517925 310.992736 
L 346.666725 308.539739 
L 346.964325 312.316945 
L 347.113125 310.155064 
L 347.261925 311.384603 
L 347.410725 315.401752 
L 347.708325 311.088461 
L 347.857125 313.551297 
L 348.005925 313.122561 
L 348.154725 311.175358 
L 348.303525 311.571829 
L 348.601125 315.42731 
L 348.749925 315.412419 
L 348.898725 315.599999 
L 349.047525 315.367033 
L 349.196325 311.822875 
L 349.345125 313.079223 
L 349.493925 313.174139 
L 349.642725 313.736514 
L 349.791525 311.304502 
L 349.940325 315.082644 
L 350.089125 310.721176 
L 350.237925 311.326149 
L 350.386725 315.745167 
L 350.535525 315.941241 
L 350.684325 314.099585 
L 350.833125 314.31782 
L 351.130725 310.613504 
L 351.279525 315.731548 
L 351.874725 312.361259 
L 352.023525 316.27645 
L 352.172325 312.945837 
L 352.469925 316.079326 
L 352.618725 315.568722 
L 352.767525 318.477048 
L 352.916325 314.109093 
L 353.065125 317.08531 
L 353.213925 316.636024 
L 353.362725 317.078379 
L 353.511525 316.9806 
L 353.660325 310.818996 
L 353.809125 319.187897 
L 353.957925 316.996646 
L 354.106725 312.032268 
L 354.255525 318.821376 
L 354.404325 316.741544 
L 354.553125 317.585577 
L 354.701925 314.881494 
L 354.850725 317.98619 
L 354.999525 313.242899 
L 355.148325 315.441302 
L 355.297125 314.710435 
L 355.445925 315.955352 
L 355.594725 315.367811 
L 355.743525 318.10892 
L 355.892325 316.555886 
L 356.041125 316.372757 
L 356.189925 316.678902 
L 356.338725 317.681005 
L 356.487525 315.582113 
L 356.636325 316.095861 
L 356.785125 320.064567 
L 357.082725 314.375595 
L 357.231525 319.385394 
L 357.380325 318.987538 
L 357.529125 320.549237 
L 357.677925 316.248152 
L 357.826725 317.069041 
L 357.975525 315.941535 
L 358.124325 305.928955 
L 358.273125 318.451874 
L 358.421925 314.636694 
L 358.719525 318.960926 
L 358.868325 321.222258 
L 359.017125 320.307764 
L 359.165925 305.395869 
L 359.314725 317.713568 
L 359.612325 320.657536 
L 359.761125 313.248631 
L 359.909925 317.971456 
L 360.058725 317.675877 
L 360.207525 317.972578 
L 360.505125 320.847823 
L 360.653925 318.335701 
L 360.802725 321.06574 
L 360.951525 319.920937 
L 361.100325 307.56471 
L 361.249125 321.369831 
L 361.546725 320.121174 
L 361.695525 319.981738 
L 361.844325 322.094752 
L 361.993125 320.242358 
L 362.141925 322.034938 
L 362.290725 317.880488 
L 362.439525 320.982223 
L 362.588325 320.540126 
L 362.737125 321.180028 
L 362.885925 321.254108 
L 363.034725 322.833565 
L 363.183525 321.870984 
L 363.332325 322.486643 
L 363.481125 317.944338 
L 363.629925 319.243704 
L 363.778725 318.687611 
L 363.927525 324.630919 
L 364.076325 322.881218 
L 364.225125 322.878084 
L 364.373925 324.472271 
L 364.522725 321.81259 
L 364.820325 323.246874 
L 364.969125 322.252488 
L 365.117925 324.001668 
L 365.266725 323.694155 
L 365.415525 320.904752 
L 365.564325 320.755559 
L 365.713125 321.407364 
L 365.861925 322.913239 
L 366.010725 316.997485 
L 366.308325 324.181531 
L 366.457125 321.079888 
L 366.754725 326.376629 
L 366.903525 325.708058 
L 367.201125 328.725696 
L 367.349925 330.539293 
L 367.498725 325.065335 
L 367.647525 325.48662 
L 367.796325 324.92641 
L 367.945125 325.356203 
L 368.093925 326.229347 
L 368.242725 325.489602 
L 368.391525 327.106594 
L 368.540325 327.152416 
L 368.837925 320.343551 
L 369.135525 327.520359 
L 369.284325 326.445702 
L 369.433125 323.671369 
L 369.581925 323.225178 
L 369.879525 329.204552 
L 370.028325 326.754387 
L 370.177125 314.457875 
L 370.325925 327.518659 
L 370.474725 326.326479 
L 370.623525 326.602288 
L 370.921125 323.802955 
L 371.218725 324.393134 
L 371.367525 318.79386 
L 371.516325 326.59566 
L 371.665125 324.956114 
L 371.813925 311.640003 
L 371.962725 324.61179 
L 372.111525 324.795955 
L 372.409125 329.269335 
L 372.557925 324.189769 
L 372.706725 327.449626 
L 372.855525 322.795971 
L 373.004325 327.086374 
L 373.153125 326.283859 
L 373.301925 327.643396 
L 373.450725 325.324103 
L 373.599525 327.962578 
L 373.748325 325.889853 
L 373.897125 311.480643 
L 374.045925 327.516575 
L 374.194725 326.881308 
L 374.343525 317.133517 
L 374.492325 330.28387 
L 374.641125 330.68288 
L 374.789925 326.705556 
L 375.087525 330.098436 
L 375.236325 329.026079 
L 375.533925 330.262849 
L 375.682725 326.698437 
L 375.831525 329.41336 
L 376.129125 323.260285 
L 376.277925 319.654773 
L 376.426725 326.99093 
L 376.575525 326.562204 
L 376.724325 328.275636 
L 376.873125 328.552625 
L 377.021925 327.938731 
L 377.170725 328.264824 
L 377.319525 325.975944 
L 377.468325 331.236239 
L 377.617125 331.104283 
L 377.765925 318.147886 
L 377.914725 317.853916 
L 378.063525 329.498212 
L 378.212325 319.915476 
L 378.509925 327.660263 
L 378.658725 323.34731 
L 378.807525 327.385772 
L 378.956325 326.621874 
L 379.105125 329.621555 
L 379.253925 330.093893 
L 379.402725 331.037181 
L 379.551525 328.371545 
L 379.700325 329.060489 
L 379.849125 315.744544 
L 379.997925 324.641503 
L 380.146725 322.736245 
L 380.295525 326.720311 
L 380.444325 321.930799 
L 380.741925 327.177237 
L 380.890725 313.614081 
L 381.039525 318.51993 
L 381.188325 328.690032 
L 381.337125 330.150845 
L 381.485925 329.330339 
L 381.634725 312.772209 
L 381.932325 326.582585 
L 382.081125 326.618995 
L 382.229925 330.328563 
L 382.378725 329.805163 
L 382.527525 322.83779 
L 382.676325 323.099203 
L 382.825125 319.351568 
L 382.973925 328.689469 
L 383.122725 327.720988 
L 383.271525 330.06849 
L 383.420325 325.87023 
L 383.569125 329.739181 
L 383.717925 329.84929 
L 383.866725 325.336002 
L 384.015525 333.496216 
L 384.313125 328.65971 
L 384.461925 320.373863 
L 384.610725 324.960568 
L 384.759525 334.195589 
L 384.908325 334.279677 
L 385.057125 324.341348 
L 385.354725 329.071597 
L 385.503525 320.913845 
L 385.652325 322.364825 
L 385.801125 330.460809 
L 385.949925 327.363197 
L 386.098725 336.372484 
L 386.396325 321.832121 
L 386.545125 331.935903 
L 386.693925 320.246066 
L 386.842725 322.565029 
L 386.991525 320.526782 
L 387.140325 333.247331 
L 387.289125 326.868278 
L 387.586725 338.379959 
L 387.735525 328.284106 
L 387.884325 336.320039 
L 388.181925 324.643056 
L 388.330725 323.73117 
L 388.479525 328.606878 
L 388.628325 320.654784 
L 388.777125 330.573937 
L 388.925925 323.663803 
L 389.223525 332.271207 
L 389.372325 326.836059 
L 389.521125 328.459455 
L 389.669925 335.13797 
L 389.818725 324.575183 
L 389.967525 336.513905 
L 390.116325 333.124628 
L 390.265125 337.145622 
L 390.413925 329.226915 
L 390.562725 334.234705 
L 390.711525 333.446116 
L 391.157925 323.085004 
L 391.306725 322.153187 
L 391.604325 338.586097 
L 391.753125 328.326362 
L 391.901925 338.382341 
L 392.050725 337.311509 
L 392.199525 326.945569 
L 392.348325 326.635718 
L 392.497125 337.565029 
L 392.645925 328.571219 
L 392.794725 330.042346 
L 393.092325 335.945775 
L 393.241125 327.338661 
L 393.538725 339.045871 
L 393.687525 326.619612 
L 393.985125 334.965968 
L 394.133925 335.516351 
L 394.431525 335.72054 
L 394.580325 339.449842 
L 394.877925 333.362382 
L 395.026725 340.160817 
L 395.175525 341.222613 
L 395.324325 325.696858 
L 395.473125 341.487042 
L 395.770725 327.743442 
L 395.919525 333.688636 
L 396.068325 333.538923 
L 396.217125 339.577471 
L 396.514725 332.056102 
L 396.663525 339.733983 
L 396.812325 322.893061 
L 397.258725 340.719577 
L 397.407525 340.410742 
L 397.705125 322.665365 
L 397.853925 338.590625 
L 398.002725 332.920099 
L 398.151525 332.931761 
L 398.300325 331.542091 
L 398.449125 334.205484 
L 398.597925 333.378033 
L 398.746725 342.383851 
L 398.895525 336.747768 
L 399.044325 338.163292 
L 399.193125 340.660154 
L 399.341925 328.999967 
L 399.490725 344.911764 
L 399.639525 332.292701 
L 399.937125 343.161086 
L 400.085925 345.14038 
L 400.383525 341.843067 
L 400.532325 342.357392 
L 400.681125 342.03743 
L 400.829925 342.264442 
L 400.978725 342.94918 
L 401.127525 344.533555 
L 401.276325 338.142409 
L 401.425125 343.359799 
L 401.573925 342.405038 
L 401.722725 330.746533 
L 401.871525 341.304541 
L 402.020325 343.120986 
L 402.169125 340.727717 
L 402.317925 342.784364 
L 402.466725 343.099082 
L 402.615525 342.2698 
L 402.764325 339.421389 
L 402.913125 343.364405 
L 403.061925 329.674779 
L 403.210725 342.918502 
L 403.359525 341.709283 
L 403.508325 343.457502 
L 403.657125 342.538159 
L 403.805925 339.680945 
L 404.103525 344.488209 
L 404.252325 345.840955 
L 404.401125 345.121894 
L 404.549925 337.330479 
L 404.698725 344.475446 
L 404.847525 345.003961 
L 404.996325 346.9109 
L 405.145125 344.37486 
L 405.293925 346.162552 
L 405.442725 336.932286 
L 405.591525 347.325379 
L 405.740325 340.407567 
L 405.889125 342.352587 
L 406.037925 348.889984 
L 406.335525 344.959407 
L 406.484325 344.156385 
L 406.633125 345.794482 
L 406.781925 345.028632 
L 406.930725 341.90786 
L 407.079525 345.463294 
L 407.228325 345.208654 
L 407.525925 343.988508 
L 407.674725 344.911731 
L 407.823525 344.283878 
L 407.972325 345.761838 
L 408.121125 345.690573 
L 408.269925 332.495421 
L 408.418725 345.071965 
L 408.567525 346.308808 
L 408.716325 349.072062 
L 408.865125 346.527339 
L 409.013925 346.27911 
L 409.162725 348.349597 
L 409.609125 344.074999 
L 409.757925 343.422765 
L 410.055525 347.300495 
L 410.353125 345.491979 
L 410.501925 343.994232 
L 410.650725 347.889928 
L 410.799525 348.181012 
L 411.097125 346.440914 
L 411.245925 347.215495 
L 411.394725 346.739284 
L 411.692325 347.31619 
L 411.841125 344.371593 
L 411.989925 346.766397 
L 412.138725 345.268397 
L 412.436325 347.6809 
L 412.585125 346.977384 
L 412.882725 349.381038 
L 413.329125 347.492366 
L 413.477925 348.722101 
L 413.626725 348.61114 
L 413.775525 348.874397 
L 413.924325 349.47706 
L 414.073125 349.416581 
L 414.221925 343.267735 
L 414.370725 349.051858 
L 414.519525 349.249471 
L 414.668325 346.432853 
L 414.965925 348.910466 
L 415.263525 348.865489 
L 415.412325 344.329413 
L 415.561125 349.2015 
L 415.709925 349.214426 
L 415.858725 349.71453 
L 416.007525 348.715642 
L 416.156325 349.812361 
L 416.453925 346.545213 
L 416.602725 349.606882 
L 416.751525 343.514831 
L 416.900325 348.837432 
L 417.049125 349.07519 
L 417.197925 348.061345 
L 417.346725 346.23198 
L 417.644325 350.508664 
L 417.793125 349.46966 
L 417.941925 349.217666 
L 418.239525 344.143297 
L 418.537125 351.866955 
L 418.685925 348.520502 
L 418.983525 350.119989 
L 419.281125 345.793005 
L 419.578725 351.230047 
L 419.727525 352.082998 
L 420.025125 349.735703 
L 420.173925 348.925228 
L 420.322725 346.586334 
L 420.471525 350.696279 
L 420.620325 350.81277 
L 420.769125 349.588406 
L 420.917925 350.055838 
L 421.066725 346.865152 
L 421.364325 353.124422 
L 421.513125 352.09956 
L 421.661925 352.888014 
L 421.810725 352.62117 
L 421.959525 351.212268 
L 422.108325 347.103784 
L 422.257125 347.682319 
L 422.405925 351.238756 
L 422.554725 348.384129 
L 422.703525 351.59611 
L 423.001125 347.604567 
L 423.149925 352.700022 
L 423.298725 352.257782 
L 423.447525 348.255507 
L 423.596325 350.642374 
L 423.745125 349.494082 
L 423.893925 350.716584 
L 424.042725 347.381407 
L 424.191525 348.497235 
L 424.340325 350.731025 
L 424.489125 350.307813 
L 424.637925 349.186462 
L 424.786725 352.817963 
L 424.935525 349.843746 
L 425.084325 349.291015 
L 425.233125 351.987112 
L 425.381925 352.20048 
L 425.530725 352.10335 
L 425.977125 348.070339 
L 426.125925 351.583469 
L 426.274725 352.013784 
L 426.423525 348.901136 
L 426.572325 348.965148 
L 426.721125 352.040803 
L 426.869925 349.147647 
L 427.018725 351.118927 
L 427.167525 349.425491 
L 427.316325 352.656009 
L 427.465125 351.460595 
L 427.613925 352.852264 
L 427.911525 349.706467 
L 428.209125 353.111141 
L 428.357925 352.410031 
L 428.506725 354.368141 
L 428.804325 348.987758 
L 428.953125 351.59631 
L 429.101925 348.55138 
L 429.250725 348.885958 
L 429.399525 352.5112 
L 429.548325 351.629028 
L 429.697125 352.808943 
L 429.845925 352.322313 
L 430.143525 349.52835 
L 430.292325 351.378576 
L 430.589925 349.212277 
L 430.738725 356.680656 
L 430.887525 350.968076 
L 431.036325 350.180776 
L 431.185125 351.10247 
L 431.333925 348.813032 
L 431.482725 350.181459 
L 431.631525 350.422194 
L 431.780325 350.448767 
L 432.077925 349.687135 
L 432.226725 349.902654 
L 432.375525 353.647039 
L 432.524325 350.646948 
L 432.673125 352.325568 
L 432.821925 350.432665 
L 432.970725 351.40582 
L 433.119525 351.431267 
L 433.268325 351.33139 
L 433.417125 352.013314 
L 433.565925 355.123798 
L 433.714725 354.512671 
L 433.863525 354.584278 
L 434.012325 352.831864 
L 434.161125 352.58447 
L 434.309925 353.435952 
L 434.458725 353.623579 
L 434.756325 351.884552 
L 434.905125 352.876797 
L 435.053925 352.183785 
L 435.202725 355.24836 
L 435.351525 354.661013 
L 435.649125 351.485186 
L 435.797925 352.273314 
L 435.946725 351.941863 
L 436.095525 356.02295 
L 436.244325 354.162677 
L 436.393125 355.530199 
L 436.541925 354.423449 
L 436.690725 354.578829 
L 436.839525 352.097293 
L 436.988325 351.723341 
L 437.137125 351.730259 
L 437.434725 354.103943 
L 437.583525 352.116942 
L 437.732325 352.280318 
L 438.029925 351.795773 
L 438.178725 355.961608 
L 438.476325 352.151376 
L 438.625125 352.305088 
L 438.773925 351.636131 
L 438.922725 355.371409 
L 439.071525 351.373994 
L 439.220325 352.42339 
L 439.369125 355.431281 
L 439.517925 355.86833 
L 439.666725 352.438545 
L 439.815525 352.301387 
L 439.964325 351.281083 
L 440.113125 352.424097 
L 440.261925 354.790057 
L 440.410725 352.014032 
L 440.559525 351.857815 
L 440.708325 351.923615 
L 440.857125 355.14201 
L 441.005925 353.78676 
L 441.303525 355.944313 
L 441.452325 352.655301 
L 441.601125 352.646075 
L 441.749925 352.975688 
L 441.898725 352.917561 
L 442.196325 353.870021 
L 442.345125 355.093131 
L 442.642725 351.96231 
L 442.791525 353.615016 
L 442.940325 353.611177 
L 443.089125 353.187229 
L 443.237925 352.380039 
L 443.386725 353.264346 
L 443.535525 356.226271 
L 443.684325 353.406142 
L 443.684325 353.406142 
" style="fill:none;stroke:#0000ff;stroke-linecap:square;stroke-width:0.5;"/>
   </g>
   <g id="patch_3">
    <path d="M 56.953125 368.74175 
L 56.953125 23.14175 
" style="fill:none;stroke:#000000;stroke-linecap:square;stroke-linejoin:miter;"/>
   </g>
   <g id="patch_4">
    <path d="M 56.953125 368.74175 
L 503.353125 368.74175 
" style="fill:none;stroke:#000000;stroke-linecap:square;stroke-linejoin:miter;"/>
   </g>
   <g id="patch_5">
    <path d="M 503.353125 368.74175 
L 503.353125 23.14175 
" style="fill:none;stroke:#000000;stroke-linecap:square;stroke-linejoin:miter;"/>
   </g>
   <g id="patch_6">
    <path d="M 56.953125 23.14175 
L 503.353125 23.14175 
" style="fill:none;stroke:#000000;stroke-linecap:square;stroke-linejoin:miter;"/>
   </g>
   <g id="matplotlib.axis_1">
    <g id="xtick_1">
     <g id="line2d_2">
      <defs>
       <path d="M 0 0 
L 0 -4 
" id="m4f8ae99c76" style="stroke:#000000;stroke-width:0.5;"/>
      </defs>
      <g>
       <use style="stroke:#000000;stroke-width:0.5;" x="56.953125" xlink:href="#m4f8ae99c76" y="368.74175"/>
      </g>
     </g>
     <g id="line2d_3">
      <defs>
       <path d="M 0 0 
L 0 4 
" id="mdd48928fd3" style="stroke:#000000;stroke-width:0.5;"/>
      </defs>
      <g>
       <use style="stroke:#000000;stroke-width:0.5;" x="56.953125" xlink:href="#mdd48928fd3" y="23.14175"/>
      </g>
     </g>
     <g id="text_1">
      <!-- 0 -->
      <defs>
       <path d="M 31.78125 66.40625 
Q 24.171875 66.40625 20.328125 58.90625 
Q 16.5 51.421875 16.5 36.375 
Q 16.5 21.390625 20.328125 13.890625 
Q 24.171875 6.390625 31.78125 6.390625 
Q 39.453125 6.390625 43.28125 13.890625 
Q 47.125 21.390625 47.125 36.375 
Q 47.125 51.421875 43.28125 58.90625 
Q 39.453125 66.40625 31.78125 66.40625 
M 31.78125 74.21875 
Q 44.046875 74.21875 50.515625 64.515625 
Q 56.984375 54.828125 56.984375 36.375 
Q 56.984375 17.96875 50.515625 8.265625 
Q 44.046875 -1.421875 31.78125 -1.421875 
Q 19.53125 -1.421875 13.0625 8.265625 
Q 6.59375 17.96875 6.59375 36.375 
Q 6.59375 54.828125 13.0625 64.515625 
Q 19.53125 74.21875 31.78125 74.21875 
" id="BitstreamVeraSans-Roman-30"/>
      </defs>
      <g transform="translate(53.135625 381.859875)scale(0.12 -0.12)">
       <use xlink:href="#BitstreamVeraSans-Roman-30"/>
      </g>
     </g>
    </g>
    <g id="xtick_2">
     <g id="line2d_4">
      <g>
       <use style="stroke:#000000;stroke-width:0.5;" x="131.353125" xlink:href="#m4f8ae99c76" y="368.74175"/>
      </g>
     </g>
     <g id="line2d_5">
      <g>
       <use style="stroke:#000000;stroke-width:0.5;" x="131.353125" xlink:href="#mdd48928fd3" y="23.14175"/>
      </g>
     </g>
     <g id="text_2">
      <!-- 500 -->
      <defs>
       <path d="M 10.796875 72.90625 
L 49.515625 72.90625 
L 49.515625 64.59375 
L 19.828125 64.59375 
L 19.828125 46.734375 
Q 21.96875 47.46875 24.109375 47.828125 
Q 26.265625 48.1875 28.421875 48.1875 
Q 40.625 48.1875 47.75 41.5 
Q 54.890625 34.8125 54.890625 23.390625 
Q 54.890625 11.625 47.5625 5.09375 
Q 40.234375 -1.421875 26.90625 -1.421875 
Q 22.3125 -1.421875 17.546875 -0.640625 
Q 12.796875 0.140625 7.71875 1.703125 
L 7.71875 11.625 
Q 12.109375 9.234375 16.796875 8.0625 
Q 21.484375 6.890625 26.703125 6.890625 
Q 35.15625 6.890625 40.078125 11.328125 
Q 45.015625 15.765625 45.015625 23.390625 
Q 45.015625 31 40.078125 35.4375 
Q 35.15625 39.890625 26.703125 39.890625 
Q 22.75 39.890625 18.8125 39.015625 
Q 14.890625 38.140625 10.796875 36.28125 
z
" id="BitstreamVeraSans-Roman-35"/>
      </defs>
      <g transform="translate(119.900625 381.859875)scale(0.12 -0.12)">
       <use xlink:href="#BitstreamVeraSans-Roman-35"/>
       <use x="63.623046875" xlink:href="#BitstreamVeraSans-Roman-30"/>
       <use x="127.24609375" xlink:href="#BitstreamVeraSans-Roman-30"/>
      </g>
     </g>
    </g>
    <g id="xtick_3">
     <g id="line2d_6">
      <g>
       <use style="stroke:#000000;stroke-width:0.5;" x="205.753125" xlink:href="#m4f8ae99c76" y="368.74175"/>
      </g>
     </g>
     <g id="line2d_7">
      <g>
       <use style="stroke:#000000;stroke-width:0.5;" x="205.753125" xlink:href="#mdd48928fd3" y="23.14175"/>
      </g>
     </g>
     <g id="text_3">
      <!-- 1000 -->
      <defs>
       <path d="M 12.40625 8.296875 
L 28.515625 8.296875 
L 28.515625 63.921875 
L 10.984375 60.40625 
L 10.984375 69.390625 
L 28.421875 72.90625 
L 38.28125 72.90625 
L 38.28125 8.296875 
L 54.390625 8.296875 
L 54.390625 0 
L 12.40625 0 
z
" id="BitstreamVeraSans-Roman-31"/>
      </defs>
      <g transform="translate(190.483125 381.859875)scale(0.12 -0.12)">
       <use xlink:href="#BitstreamVeraSans-Roman-31"/>
       <use x="63.623046875" xlink:href="#BitstreamVeraSans-Roman-30"/>
       <use x="127.24609375" xlink:href="#BitstreamVeraSans-Roman-30"/>
       <use x="190.869140625" xlink:href="#BitstreamVeraSans-Roman-30"/>
      </g>
     </g>
    </g>
    <g id="xtick_4">
     <g id="line2d_8">
      <g>
       <use style="stroke:#000000;stroke-width:0.5;" x="280.153125" xlink:href="#m4f8ae99c76" y="368.74175"/>
      </g>
     </g>
     <g id="line2d_9">
      <g>
       <use style="stroke:#000000;stroke-width:0.5;" x="280.153125" xlink:href="#mdd48928fd3" y="23.14175"/>
      </g>
     </g>
     <g id="text_4">
      <!-- 1500 -->
      <g transform="translate(264.883125 381.859875)scale(0.12 -0.12)">
       <use xlink:href="#BitstreamVeraSans-Roman-31"/>
       <use x="63.623046875" xlink:href="#BitstreamVeraSans-Roman-35"/>
       <use x="127.24609375" xlink:href="#BitstreamVeraSans-Roman-30"/>
       <use x="190.869140625" xlink:href="#BitstreamVeraSans-Roman-30"/>
      </g>
     </g>
    </g>
    <g id="xtick_5">
     <g id="line2d_10">
      <g>
       <use style="stroke:#000000;stroke-width:0.5;" x="354.553125" xlink:href="#m4f8ae99c76" y="368.74175"/>
      </g>
     </g>
     <g id="line2d_11">
      <g>
       <use style="stroke:#000000;stroke-width:0.5;" x="354.553125" xlink:href="#mdd48928fd3" y="23.14175"/>
      </g>
     </g>
     <g id="text_5">
      <!-- 2000 -->
      <defs>
       <path d="M 19.1875 8.296875 
L 53.609375 8.296875 
L 53.609375 0 
L 7.328125 0 
L 7.328125 8.296875 
Q 12.9375 14.109375 22.625 23.890625 
Q 32.328125 33.6875 34.8125 36.53125 
Q 39.546875 41.84375 41.421875 45.53125 
Q 43.3125 49.21875 43.3125 52.78125 
Q 43.3125 58.59375 39.234375 62.25 
Q 35.15625 65.921875 28.609375 65.921875 
Q 23.96875 65.921875 18.8125 64.3125 
Q 13.671875 62.703125 7.8125 59.421875 
L 7.8125 69.390625 
Q 13.765625 71.78125 18.9375 73 
Q 24.125 74.21875 28.421875 74.21875 
Q 39.75 74.21875 46.484375 68.546875 
Q 53.21875 62.890625 53.21875 53.421875 
Q 53.21875 48.921875 51.53125 44.890625 
Q 49.859375 40.875 45.40625 35.40625 
Q 44.1875 33.984375 37.640625 27.21875 
Q 31.109375 20.453125 19.1875 8.296875 
" id="BitstreamVeraSans-Roman-32"/>
      </defs>
      <g transform="translate(339.283125 381.859875)scale(0.12 -0.12)">
       <use xlink:href="#BitstreamVeraSans-Roman-32"/>
       <use x="63.623046875" xlink:href="#BitstreamVeraSans-Roman-30"/>
       <use x="127.24609375" xlink:href="#BitstreamVeraSans-Roman-30"/>
       <use x="190.869140625" xlink:href="#BitstreamVeraSans-Roman-30"/>
      </g>
     </g>
    </g>
    <g id="xtick_6">
     <g id="line2d_12">
      <g>
       <use style="stroke:#000000;stroke-width:0.5;" x="428.953125" xlink:href="#m4f8ae99c76" y="368.74175"/>
      </g>
     </g>
     <g id="line2d_13">
      <g>
       <use style="stroke:#000000;stroke-width:0.5;" x="428.953125" xlink:href="#mdd48928fd3" y="23.14175"/>
      </g>
     </g>
     <g id="text_6">
      <!-- 2500 -->
      <g transform="translate(413.683125 381.859875)scale(0.12 -0.12)">
       <use xlink:href="#BitstreamVeraSans-Roman-32"/>
       <use x="63.623046875" xlink:href="#BitstreamVeraSans-Roman-35"/>
       <use x="127.24609375" xlink:href="#BitstreamVeraSans-Roman-30"/>
       <use x="190.869140625" xlink:href="#BitstreamVeraSans-Roman-30"/>
      </g>
     </g>
    </g>
    <g id="xtick_7">
     <g id="line2d_14">
      <g>
       <use style="stroke:#000000;stroke-width:0.5;" x="503.353125" xlink:href="#m4f8ae99c76" y="368.74175"/>
      </g>
     </g>
     <g id="line2d_15">
      <g>
       <use style="stroke:#000000;stroke-width:0.5;" x="503.353125" xlink:href="#mdd48928fd3" y="23.14175"/>
      </g>
     </g>
     <g id="text_7">
      <!-- 3000 -->
      <defs>
       <path d="M 40.578125 39.3125 
Q 47.65625 37.796875 51.625 33 
Q 55.609375 28.21875 55.609375 21.1875 
Q 55.609375 10.40625 48.1875 4.484375 
Q 40.765625 -1.421875 27.09375 -1.421875 
Q 22.515625 -1.421875 17.65625 -0.515625 
Q 12.796875 0.390625 7.625 2.203125 
L 7.625 11.71875 
Q 11.71875 9.328125 16.59375 8.109375 
Q 21.484375 6.890625 26.8125 6.890625 
Q 36.078125 6.890625 40.9375 10.546875 
Q 45.796875 14.203125 45.796875 21.1875 
Q 45.796875 27.640625 41.28125 31.265625 
Q 36.765625 34.90625 28.71875 34.90625 
L 20.21875 34.90625 
L 20.21875 43.015625 
L 29.109375 43.015625 
Q 36.375 43.015625 40.234375 45.921875 
Q 44.09375 48.828125 44.09375 54.296875 
Q 44.09375 59.90625 40.109375 62.90625 
Q 36.140625 65.921875 28.71875 65.921875 
Q 24.65625 65.921875 20.015625 65.03125 
Q 15.375 64.15625 9.8125 62.3125 
L 9.8125 71.09375 
Q 15.4375 72.65625 20.34375 73.4375 
Q 25.25 74.21875 29.59375 74.21875 
Q 40.828125 74.21875 47.359375 69.109375 
Q 53.90625 64.015625 53.90625 55.328125 
Q 53.90625 49.265625 50.4375 45.09375 
Q 46.96875 40.921875 40.578125 39.3125 
" id="BitstreamVeraSans-Roman-33"/>
      </defs>
      <g transform="translate(488.083125 381.859875)scale(0.12 -0.12)">
       <use xlink:href="#BitstreamVeraSans-Roman-33"/>
       <use x="63.623046875" xlink:href="#BitstreamVeraSans-Roman-30"/>
       <use x="127.24609375" xlink:href="#BitstreamVeraSans-Roman-30"/>
       <use x="190.869140625" xlink:href="#BitstreamVeraSans-Roman-30"/>
      </g>
     </g>
    </g>
    <g id="text_8">
     <!-- episode -->
     <defs>
      <path d="M 44.28125 53.078125 
L 44.28125 44.578125 
Q 40.484375 46.53125 36.375 47.5 
Q 32.28125 48.484375 27.875 48.484375 
Q 21.1875 48.484375 17.84375 46.4375 
Q 14.5 44.390625 14.5 40.28125 
Q 14.5 37.15625 16.890625 35.375 
Q 19.28125 33.59375 26.515625 31.984375 
L 29.59375 31.296875 
Q 39.15625 29.25 43.1875 25.515625 
Q 47.21875 21.78125 47.21875 15.09375 
Q 47.21875 7.46875 41.1875 3.015625 
Q 35.15625 -1.421875 24.609375 -1.421875 
Q 20.21875 -1.421875 15.453125 -0.5625 
Q 10.6875 0.296875 5.421875 2 
L 5.421875 11.28125 
Q 10.40625 8.6875 15.234375 7.390625 
Q 20.0625 6.109375 24.8125 6.109375 
Q 31.15625 6.109375 34.5625 8.28125 
Q 37.984375 10.453125 37.984375 14.40625 
Q 37.984375 18.0625 35.515625 20.015625 
Q 33.0625 21.96875 24.703125 23.78125 
L 21.578125 24.515625 
Q 13.234375 26.265625 9.515625 29.90625 
Q 5.8125 33.546875 5.8125 39.890625 
Q 5.8125 47.609375 11.28125 51.796875 
Q 16.75 56 26.8125 56 
Q 31.78125 56 36.171875 55.265625 
Q 40.578125 54.546875 44.28125 53.078125 
" id="BitstreamVeraSans-Roman-73"/>
      <path d="M 30.609375 48.390625 
Q 23.390625 48.390625 19.1875 42.75 
Q 14.984375 37.109375 14.984375 27.296875 
Q 14.984375 17.484375 19.15625 11.84375 
Q 23.34375 6.203125 30.609375 6.203125 
Q 37.796875 6.203125 41.984375 11.859375 
Q 46.1875 17.53125 46.1875 27.296875 
Q 46.1875 37.015625 41.984375 42.703125 
Q 37.796875 48.390625 30.609375 48.390625 
M 30.609375 56 
Q 42.328125 56 49.015625 48.375 
Q 55.71875 40.765625 55.71875 27.296875 
Q 55.71875 13.875 49.015625 6.21875 
Q 42.328125 -1.421875 30.609375 -1.421875 
Q 18.84375 -1.421875 12.171875 6.21875 
Q 5.515625 13.875 5.515625 27.296875 
Q 5.515625 40.765625 12.171875 48.375 
Q 18.84375 56 30.609375 56 
" id="BitstreamVeraSans-Roman-6f"/>
      <path d="M 9.421875 54.6875 
L 18.40625 54.6875 
L 18.40625 0 
L 9.421875 0 
z
M 9.421875 75.984375 
L 18.40625 75.984375 
L 18.40625 64.59375 
L 9.421875 64.59375 
z
" id="BitstreamVeraSans-Roman-69"/>
      <path d="M 18.109375 8.203125 
L 18.109375 -20.796875 
L 9.078125 -20.796875 
L 9.078125 54.6875 
L 18.109375 54.6875 
L 18.109375 46.390625 
Q 20.953125 51.265625 25.265625 53.625 
Q 29.59375 56 35.59375 56 
Q 45.5625 56 51.78125 48.09375 
Q 58.015625 40.1875 58.015625 27.296875 
Q 58.015625 14.40625 51.78125 6.484375 
Q 45.5625 -1.421875 35.59375 -1.421875 
Q 29.59375 -1.421875 25.265625 0.953125 
Q 20.953125 3.328125 18.109375 8.203125 
M 48.6875 27.296875 
Q 48.6875 37.203125 44.609375 42.84375 
Q 40.53125 48.484375 33.40625 48.484375 
Q 26.265625 48.484375 22.1875 42.84375 
Q 18.109375 37.203125 18.109375 27.296875 
Q 18.109375 17.390625 22.1875 11.75 
Q 26.265625 6.109375 33.40625 6.109375 
Q 40.53125 6.109375 44.609375 11.75 
Q 48.6875 17.390625 48.6875 27.296875 
" id="BitstreamVeraSans-Roman-70"/>
      <path d="M 45.40625 46.390625 
L 45.40625 75.984375 
L 54.390625 75.984375 
L 54.390625 0 
L 45.40625 0 
L 45.40625 8.203125 
Q 42.578125 3.328125 38.25 0.953125 
Q 33.9375 -1.421875 27.875 -1.421875 
Q 17.96875 -1.421875 11.734375 6.484375 
Q 5.515625 14.40625 5.515625 27.296875 
Q 5.515625 40.1875 11.734375 48.09375 
Q 17.96875 56 27.875 56 
Q 33.9375 56 38.25 53.625 
Q 42.578125 51.265625 45.40625 46.390625 
M 14.796875 27.296875 
Q 14.796875 17.390625 18.875 11.75 
Q 22.953125 6.109375 30.078125 6.109375 
Q 37.203125 6.109375 41.296875 11.75 
Q 45.40625 17.390625 45.40625 27.296875 
Q 45.40625 37.203125 41.296875 42.84375 
Q 37.203125 48.484375 30.078125 48.484375 
Q 22.953125 48.484375 18.875 42.84375 
Q 14.796875 37.203125 14.796875 27.296875 
" id="BitstreamVeraSans-Roman-64"/>
      <path d="M 56.203125 29.59375 
L 56.203125 25.203125 
L 14.890625 25.203125 
Q 15.484375 15.921875 20.484375 11.0625 
Q 25.484375 6.203125 34.421875 6.203125 
Q 39.59375 6.203125 44.453125 7.46875 
Q 49.3125 8.734375 54.109375 11.28125 
L 54.109375 2.78125 
Q 49.265625 0.734375 44.1875 -0.34375 
Q 39.109375 -1.421875 33.890625 -1.421875 
Q 20.796875 -1.421875 13.15625 6.1875 
Q 5.515625 13.8125 5.515625 26.8125 
Q 5.515625 40.234375 12.765625 48.109375 
Q 20.015625 56 32.328125 56 
Q 43.359375 56 49.78125 48.890625 
Q 56.203125 41.796875 56.203125 29.59375 
M 47.21875 32.234375 
Q 47.125 39.59375 43.09375 43.984375 
Q 39.0625 48.390625 32.421875 48.390625 
Q 24.90625 48.390625 20.390625 44.140625 
Q 15.875 39.890625 15.1875 32.171875 
z
" id="BitstreamVeraSans-Roman-65"/>
     </defs>
     <g transform="translate(256.6875 398.473625)scale(0.12 -0.12)">
      <use xlink:href="#BitstreamVeraSans-Roman-65"/>
      <use x="61.5234375" xlink:href="#BitstreamVeraSans-Roman-70"/>
      <use x="125.0" xlink:href="#BitstreamVeraSans-Roman-69"/>
      <use x="152.783203125" xlink:href="#BitstreamVeraSans-Roman-73"/>
      <use x="204.8828125" xlink:href="#BitstreamVeraSans-Roman-6f"/>
      <use x="266.064453125" xlink:href="#BitstreamVeraSans-Roman-64"/>
      <use x="329.541015625" xlink:href="#BitstreamVeraSans-Roman-65"/>
     </g>
    </g>
   </g>
   <g id="matplotlib.axis_2">
    <g id="ytick_1">
     <g id="line2d_16">
      <defs>
       <path d="M 0 0 
L 4 0 
" id="m72a7ca3196" style="stroke:#000000;stroke-width:0.5;"/>
      </defs>
      <g>
       <use style="stroke:#000000;stroke-width:0.5;" x="56.953125" xlink:href="#m72a7ca3196" y="368.74175"/>
      </g>
     </g>
     <g id="line2d_17">
      <defs>
       <path d="M 0 0 
L -4 0 
" id="m94814d1d35" style="stroke:#000000;stroke-width:0.5;"/>
      </defs>
      <g>
       <use style="stroke:#000000;stroke-width:0.5;" x="503.353125" xlink:href="#m94814d1d35" y="368.74175"/>
      </g>
     </g>
     <g id="text_9">
      <!-- 2.5 -->
      <defs>
       <path d="M 10.59375 35.5 
L 73.1875 35.5 
L 73.1875 27.203125 
L 10.59375 27.203125 
z
" id="BitstreamVeraSans-Roman-2212"/>
       <path d="M 10.6875 12.40625 
L 21 12.40625 
L 21 0 
L 10.6875 0 
z
" id="BitstreamVeraSans-Roman-2e"/>
      </defs>
      <g transform="translate(23.81375 372.053)scale(0.12 -0.12)">
       <use xlink:href="#BitstreamVeraSans-Roman-2212"/>
       <use x="83.7890625" xlink:href="#BitstreamVeraSans-Roman-32"/>
       <use x="147.412109375" xlink:href="#BitstreamVeraSans-Roman-2e"/>
       <use x="179.19921875" xlink:href="#BitstreamVeraSans-Roman-35"/>
      </g>
     </g>
    </g>
    <g id="ytick_2">
     <g id="line2d_18">
      <g>
       <use style="stroke:#000000;stroke-width:0.5;" x="56.953125" xlink:href="#m72a7ca3196" y="311.14175"/>
      </g>
     </g>
     <g id="line2d_19">
      <g>
       <use style="stroke:#000000;stroke-width:0.5;" x="503.353125" xlink:href="#m94814d1d35" y="311.14175"/>
      </g>
     </g>
     <g id="text_10">
      <!-- 2.0 -->
      <g transform="translate(23.81375 314.453)scale(0.12 -0.12)">
       <use xlink:href="#BitstreamVeraSans-Roman-2212"/>
       <use x="83.7890625" xlink:href="#BitstreamVeraSans-Roman-32"/>
       <use x="147.412109375" xlink:href="#BitstreamVeraSans-Roman-2e"/>
       <use x="179.19921875" xlink:href="#BitstreamVeraSans-Roman-30"/>
      </g>
     </g>
    </g>
    <g id="ytick_3">
     <g id="line2d_20">
      <g>
       <use style="stroke:#000000;stroke-width:0.5;" x="56.953125" xlink:href="#m72a7ca3196" y="253.54175"/>
      </g>
     </g>
     <g id="line2d_21">
      <g>
       <use style="stroke:#000000;stroke-width:0.5;" x="503.353125" xlink:href="#m94814d1d35" y="253.54175"/>
      </g>
     </g>
     <g id="text_11">
      <!-- 1.5 -->
      <g transform="translate(23.81375 256.853)scale(0.12 -0.12)">
       <use xlink:href="#BitstreamVeraSans-Roman-2212"/>
       <use x="83.7890625" xlink:href="#BitstreamVeraSans-Roman-31"/>
       <use x="147.412109375" xlink:href="#BitstreamVeraSans-Roman-2e"/>
       <use x="179.19921875" xlink:href="#BitstreamVeraSans-Roman-35"/>
      </g>
     </g>
    </g>
    <g id="ytick_4">
     <g id="line2d_22">
      <g>
       <use style="stroke:#000000;stroke-width:0.5;" x="56.953125" xlink:href="#m72a7ca3196" y="195.94175"/>
      </g>
     </g>
     <g id="line2d_23">
      <g>
       <use style="stroke:#000000;stroke-width:0.5;" x="503.353125" xlink:href="#m94814d1d35" y="195.94175"/>
      </g>
     </g>
     <g id="text_12">
      <!-- 1.0 -->
      <g transform="translate(23.81375 199.253)scale(0.12 -0.12)">
       <use xlink:href="#BitstreamVeraSans-Roman-2212"/>
       <use x="83.7890625" xlink:href="#BitstreamVeraSans-Roman-31"/>
       <use x="147.412109375" xlink:href="#BitstreamVeraSans-Roman-2e"/>
       <use x="179.19921875" xlink:href="#BitstreamVeraSans-Roman-30"/>
      </g>
     </g>
    </g>
    <g id="ytick_5">
     <g id="line2d_24">
      <g>
       <use style="stroke:#000000;stroke-width:0.5;" x="56.953125" xlink:href="#m72a7ca3196" y="138.34175"/>
      </g>
     </g>
     <g id="line2d_25">
      <g>
       <use style="stroke:#000000;stroke-width:0.5;" x="503.353125" xlink:href="#m94814d1d35" y="138.34175"/>
      </g>
     </g>
     <g id="text_13">
      <!-- 0.5 -->
      <g transform="translate(23.81375 141.653)scale(0.12 -0.12)">
       <use xlink:href="#BitstreamVeraSans-Roman-2212"/>
       <use x="83.7890625" xlink:href="#BitstreamVeraSans-Roman-30"/>
       <use x="147.412109375" xlink:href="#BitstreamVeraSans-Roman-2e"/>
       <use x="179.19921875" xlink:href="#BitstreamVeraSans-Roman-35"/>
      </g>
     </g>
    </g>
    <g id="ytick_6">
     <g id="line2d_26">
      <g>
       <use style="stroke:#000000;stroke-width:0.5;" x="56.953125" xlink:href="#m72a7ca3196" y="80.74175"/>
      </g>
     </g>
     <g id="line2d_27">
      <g>
       <use style="stroke:#000000;stroke-width:0.5;" x="503.353125" xlink:href="#m94814d1d35" y="80.74175"/>
      </g>
     </g>
     <g id="text_14">
      <!-- 0.0 -->
      <g transform="translate(33.869375 84.053)scale(0.12 -0.12)">
       <use xlink:href="#BitstreamVeraSans-Roman-30"/>
       <use x="63.623046875" xlink:href="#BitstreamVeraSans-Roman-2e"/>
       <use x="95.41015625" xlink:href="#BitstreamVeraSans-Roman-30"/>
      </g>
     </g>
    </g>
    <g id="ytick_7">
     <g id="line2d_28">
      <g>
       <use style="stroke:#000000;stroke-width:0.5;" x="56.953125" xlink:href="#m72a7ca3196" y="23.14175"/>
      </g>
     </g>
     <g id="line2d_29">
      <g>
       <use style="stroke:#000000;stroke-width:0.5;" x="503.353125" xlink:href="#m94814d1d35" y="23.14175"/>
      </g>
     </g>
     <g id="text_15">
      <!-- 0.5 -->
      <g transform="translate(33.869375 26.453)scale(0.12 -0.12)">
       <use xlink:href="#BitstreamVeraSans-Roman-30"/>
       <use x="63.623046875" xlink:href="#BitstreamVeraSans-Roman-2e"/>
       <use x="95.41015625" xlink:href="#BitstreamVeraSans-Roman-35"/>
      </g>
     </g>
    </g>
    <g id="text_16">
     <!-- average maxQ -->
     <defs>
      <path d="M 39.40625 66.21875 
Q 28.65625 66.21875 22.328125 58.203125 
Q 16.015625 50.203125 16.015625 36.375 
Q 16.015625 22.609375 22.328125 14.59375 
Q 28.65625 6.59375 39.40625 6.59375 
Q 50.140625 6.59375 56.421875 14.59375 
Q 62.703125 22.609375 62.703125 36.375 
Q 62.703125 50.203125 56.421875 58.203125 
Q 50.140625 66.21875 39.40625 66.21875 
M 53.21875 1.3125 
L 66.21875 -12.890625 
L 54.296875 -12.890625 
L 43.5 -1.21875 
Q 41.890625 -1.3125 41.03125 -1.359375 
Q 40.1875 -1.421875 39.40625 -1.421875 
Q 24.03125 -1.421875 14.8125 8.859375 
Q 5.609375 19.140625 5.609375 36.375 
Q 5.609375 53.65625 14.8125 63.9375 
Q 24.03125 74.21875 39.40625 74.21875 
Q 54.734375 74.21875 63.90625 63.9375 
Q 73.09375 53.65625 73.09375 36.375 
Q 73.09375 23.6875 67.984375 14.640625 
Q 62.890625 5.609375 53.21875 1.3125 
" id="BitstreamVeraSans-Roman-51"/>
      <path d="M 45.40625 27.984375 
Q 45.40625 37.75 41.375 43.109375 
Q 37.359375 48.484375 30.078125 48.484375 
Q 22.859375 48.484375 18.828125 43.109375 
Q 14.796875 37.75 14.796875 27.984375 
Q 14.796875 18.265625 18.828125 12.890625 
Q 22.859375 7.515625 30.078125 7.515625 
Q 37.359375 7.515625 41.375 12.890625 
Q 45.40625 18.265625 45.40625 27.984375 
M 54.390625 6.78125 
Q 54.390625 -7.171875 48.1875 -13.984375 
Q 42 -20.796875 29.203125 -20.796875 
Q 24.46875 -20.796875 20.265625 -20.09375 
Q 16.0625 -19.390625 12.109375 -17.921875 
L 12.109375 -9.1875 
Q 16.0625 -11.328125 19.921875 -12.34375 
Q 23.78125 -13.375 27.78125 -13.375 
Q 36.625 -13.375 41.015625 -8.765625 
Q 45.40625 -4.15625 45.40625 5.171875 
L 45.40625 9.625 
Q 42.625 4.78125 38.28125 2.390625 
Q 33.9375 0 27.875 0 
Q 17.828125 0 11.671875 7.65625 
Q 5.515625 15.328125 5.515625 27.984375 
Q 5.515625 40.671875 11.671875 48.328125 
Q 17.828125 56 27.875 56 
Q 33.9375 56 38.28125 53.609375 
Q 42.625 51.21875 45.40625 46.390625 
L 45.40625 54.6875 
L 54.390625 54.6875 
z
" id="BitstreamVeraSans-Roman-67"/>
      <path d="M 54.890625 54.6875 
L 35.109375 28.078125 
L 55.90625 0 
L 45.3125 0 
L 29.390625 21.484375 
L 13.484375 0 
L 2.875 0 
L 24.125 28.609375 
L 4.6875 54.6875 
L 15.28125 54.6875 
L 29.78125 35.203125 
L 44.28125 54.6875 
z
" id="BitstreamVeraSans-Roman-78"/>
      <path id="BitstreamVeraSans-Roman-20"/>
      <path d="M 2.984375 54.6875 
L 12.5 54.6875 
L 29.59375 8.796875 
L 46.6875 54.6875 
L 56.203125 54.6875 
L 35.6875 0 
L 23.484375 0 
z
" id="BitstreamVeraSans-Roman-76"/>
      <path d="M 52 44.1875 
Q 55.375 50.25 60.0625 53.125 
Q 64.75 56 71.09375 56 
Q 79.640625 56 84.28125 50.015625 
Q 88.921875 44.046875 88.921875 33.015625 
L 88.921875 0 
L 79.890625 0 
L 79.890625 32.71875 
Q 79.890625 40.578125 77.09375 44.375 
Q 74.3125 48.1875 68.609375 48.1875 
Q 61.625 48.1875 57.5625 43.546875 
Q 53.515625 38.921875 53.515625 30.90625 
L 53.515625 0 
L 44.484375 0 
L 44.484375 32.71875 
Q 44.484375 40.625 41.703125 44.40625 
Q 38.921875 48.1875 33.109375 48.1875 
Q 26.21875 48.1875 22.15625 43.53125 
Q 18.109375 38.875 18.109375 30.90625 
L 18.109375 0 
L 9.078125 0 
L 9.078125 54.6875 
L 18.109375 54.6875 
L 18.109375 46.1875 
Q 21.1875 51.21875 25.484375 53.609375 
Q 29.78125 56 35.6875 56 
Q 41.65625 56 45.828125 52.96875 
Q 50 49.953125 52 44.1875 
" id="BitstreamVeraSans-Roman-6d"/>
      <path d="M 41.109375 46.296875 
Q 39.59375 47.171875 37.8125 47.578125 
Q 36.03125 48 33.890625 48 
Q 26.265625 48 22.1875 43.046875 
Q 18.109375 38.09375 18.109375 28.8125 
L 18.109375 0 
L 9.078125 0 
L 9.078125 54.6875 
L 18.109375 54.6875 
L 18.109375 46.1875 
Q 20.953125 51.171875 25.484375 53.578125 
Q 30.03125 56 36.53125 56 
Q 37.453125 56 38.578125 55.875 
Q 39.703125 55.765625 41.0625 55.515625 
z
" id="BitstreamVeraSans-Roman-72"/>
      <path d="M 34.28125 27.484375 
Q 23.390625 27.484375 19.1875 25 
Q 14.984375 22.515625 14.984375 16.5 
Q 14.984375 11.71875 18.140625 8.90625 
Q 21.296875 6.109375 26.703125 6.109375 
Q 34.1875 6.109375 38.703125 11.40625 
Q 43.21875 16.703125 43.21875 25.484375 
L 43.21875 27.484375 
z
M 52.203125 31.203125 
L 52.203125 0 
L 43.21875 0 
L 43.21875 8.296875 
Q 40.140625 3.328125 35.546875 0.953125 
Q 30.953125 -1.421875 24.3125 -1.421875 
Q 15.921875 -1.421875 10.953125 3.296875 
Q 6 8.015625 6 15.921875 
Q 6 25.140625 12.171875 29.828125 
Q 18.359375 34.515625 30.609375 34.515625 
L 43.21875 34.515625 
L 43.21875 35.40625 
Q 43.21875 41.609375 39.140625 45 
Q 35.0625 48.390625 27.6875 48.390625 
Q 23 48.390625 18.546875 47.265625 
Q 14.109375 46.140625 10.015625 43.890625 
L 10.015625 52.203125 
Q 14.9375 54.109375 19.578125 55.046875 
Q 24.21875 56 28.609375 56 
Q 40.484375 56 46.34375 49.84375 
Q 52.203125 43.703125 52.203125 31.203125 
" id="BitstreamVeraSans-Roman-61"/>
     </defs>
     <g transform="translate(16.318125 240.208625)rotate(-90.0)scale(0.12 -0.12)">
      <use xlink:href="#BitstreamVeraSans-Roman-61"/>
      <use x="61.279296875" xlink:href="#BitstreamVeraSans-Roman-76"/>
      <use x="120.458984375" xlink:href="#BitstreamVeraSans-Roman-65"/>
      <use x="181.982421875" xlink:href="#BitstreamVeraSans-Roman-72"/>
      <use x="223.095703125" xlink:href="#BitstreamVeraSans-Roman-61"/>
      <use x="284.375" xlink:href="#BitstreamVeraSans-Roman-67"/>
      <use x="347.8515625" xlink:href="#BitstreamVeraSans-Roman-65"/>
      <use x="409.375" xlink:href="#BitstreamVeraSans-Roman-20"/>
      <use x="441.162109375" xlink:href="#BitstreamVeraSans-Roman-6d"/>
      <use x="538.57421875" xlink:href="#BitstreamVeraSans-Roman-61"/>
      <use x="599.853515625" xlink:href="#BitstreamVeraSans-Roman-78"/>
      <use x="659.033203125" xlink:href="#BitstreamVeraSans-Roman-51"/>
     </g>
    </g>
   </g>
   <g id="text_17">
    <!-- Average maxQ per episode, joint 3 -->
    <defs>
     <path d="M 9.421875 54.6875 
L 18.40625 54.6875 
L 18.40625 -0.984375 
Q 18.40625 -11.421875 14.421875 -16.109375 
Q 10.453125 -20.796875 1.609375 -20.796875 
L -1.8125 -20.796875 
L -1.8125 -13.1875 
L 0.59375 -13.1875 
Q 5.71875 -13.1875 7.5625 -10.8125 
Q 9.421875 -8.453125 9.421875 -0.984375 
z
M 9.421875 75.984375 
L 18.40625 75.984375 
L 18.40625 64.59375 
L 9.421875 64.59375 
z
" id="BitstreamVeraSans-Roman-6a"/>
     <path d="M 34.1875 63.1875 
L 20.796875 26.90625 
L 47.609375 26.90625 
z
M 28.609375 72.90625 
L 39.796875 72.90625 
L 67.578125 0 
L 57.328125 0 
L 50.6875 18.703125 
L 17.828125 18.703125 
L 11.1875 0 
L 0.78125 0 
z
" id="BitstreamVeraSans-Roman-41"/>
     <path d="M 18.3125 70.21875 
L 18.3125 54.6875 
L 36.8125 54.6875 
L 36.8125 47.703125 
L 18.3125 47.703125 
L 18.3125 18.015625 
Q 18.3125 11.328125 20.140625 9.421875 
Q 21.96875 7.515625 27.59375 7.515625 
L 36.8125 7.515625 
L 36.8125 0 
L 27.59375 0 
Q 17.1875 0 13.234375 3.875 
Q 9.28125 7.765625 9.28125 18.015625 
L 9.28125 47.703125 
L 2.6875 47.703125 
L 2.6875 54.6875 
L 9.28125 54.6875 
L 9.28125 70.21875 
z
" id="BitstreamVeraSans-Roman-74"/>
     <path d="M 11.71875 12.40625 
L 22.015625 12.40625 
L 22.015625 4 
L 14.015625 -11.625 
L 7.71875 -11.625 
L 11.71875 4 
z
" id="BitstreamVeraSans-Roman-2c"/>
     <path d="M 54.890625 33.015625 
L 54.890625 0 
L 45.90625 0 
L 45.90625 32.71875 
Q 45.90625 40.484375 42.875 44.328125 
Q 39.84375 48.1875 33.796875 48.1875 
Q 26.515625 48.1875 22.3125 43.546875 
Q 18.109375 38.921875 18.109375 30.90625 
L 18.109375 0 
L 9.078125 0 
L 9.078125 54.6875 
L 18.109375 54.6875 
L 18.109375 46.1875 
Q 21.34375 51.125 25.703125 53.5625 
Q 30.078125 56 35.796875 56 
Q 45.21875 56 50.046875 50.171875 
Q 54.890625 44.34375 54.890625 33.015625 
" id="BitstreamVeraSans-Roman-6e"/>
    </defs>
    <g transform="translate(154.591875 18.14175)scale(0.144 -0.144)">
     <use xlink:href="#BitstreamVeraSans-Roman-41"/>
     <use x="68.330078125" xlink:href="#BitstreamVeraSans-Roman-76"/>
     <use x="127.509765625" xlink:href="#BitstreamVeraSans-Roman-65"/>
     <use x="189.033203125" xlink:href="#BitstreamVeraSans-Roman-72"/>
     <use x="230.146484375" xlink:href="#BitstreamVeraSans-Roman-61"/>
     <use x="291.42578125" xlink:href="#BitstreamVeraSans-Roman-67"/>
     <use x="354.90234375" xlink:href="#BitstreamVeraSans-Roman-65"/>
     <use x="416.42578125" xlink:href="#BitstreamVeraSans-Roman-20"/>
     <use x="448.212890625" xlink:href="#BitstreamVeraSans-Roman-6d"/>
     <use x="545.625" xlink:href="#BitstreamVeraSans-Roman-61"/>
     <use x="606.904296875" xlink:href="#BitstreamVeraSans-Roman-78"/>
     <use x="666.083984375" xlink:href="#BitstreamVeraSans-Roman-51"/>
     <use x="744.794921875" xlink:href="#BitstreamVeraSans-Roman-20"/>
     <use x="776.58203125" xlink:href="#BitstreamVeraSans-Roman-70"/>
     <use x="840.05859375" xlink:href="#BitstreamVeraSans-Roman-65"/>
     <use x="901.58203125" xlink:href="#BitstreamVeraSans-Roman-72"/>
     <use x="942.6953125" xlink:href="#BitstreamVeraSans-Roman-20"/>
     <use x="974.482421875" xlink:href="#BitstreamVeraSans-Roman-65"/>
     <use x="1036.005859375" xlink:href="#BitstreamVeraSans-Roman-70"/>
     <use x="1099.482421875" xlink:href="#BitstreamVeraSans-Roman-69"/>
     <use x="1127.265625" xlink:href="#BitstreamVeraSans-Roman-73"/>
     <use x="1179.365234375" xlink:href="#BitstreamVeraSans-Roman-6f"/>
     <use x="1240.546875" xlink:href="#BitstreamVeraSans-Roman-64"/>
     <use x="1304.0234375" xlink:href="#BitstreamVeraSans-Roman-65"/>
     <use x="1365.546875" xlink:href="#BitstreamVeraSans-Roman-2c"/>
     <use x="1397.333984375" xlink:href="#BitstreamVeraSans-Roman-20"/>
     <use x="1429.12109375" xlink:href="#BitstreamVeraSans-Roman-6a"/>
     <use x="1456.904296875" xlink:href="#BitstreamVeraSans-Roman-6f"/>
     <use x="1518.0859375" xlink:href="#BitstreamVeraSans-Roman-69"/>
     <use x="1545.869140625" xlink:href="#BitstreamVeraSans-Roman-6e"/>
     <use x="1609.248046875" xlink:href="#BitstreamVeraSans-Roman-74"/>
     <use x="1648.45703125" xlink:href="#BitstreamVeraSans-Roman-20"/>
     <use x="1680.244140625" xlink:href="#BitstreamVeraSans-Roman-33"/>
    </g>
   </g>
  </g>
 </g>
 <defs>
  <clipPath id="p55e8240b86">
   <rect height="345.6" width="446.4" x="56.953125" y="23.14175"/>
  </clipPath>
 </defs>
</svg>
