<?xml version="1.0" encoding="utf-8" standalone="no"?>
<!DOCTYPE svg PUBLIC "-//W3C//DTD SVG 1.1//EN"
  "http://www.w3.org/Graphics/SVG/1.1/DTD/svg11.dtd">
<!-- Created with matplotlib (http://matplotlib.org/) -->
<svg height="325pt" version="1.1" viewBox="0 0 411 325" width="411pt" xmlns="http://www.w3.org/2000/svg" xmlns:xlink="http://www.w3.org/1999/xlink">
 <defs>
  <style type="text/css">
*{stroke-linecap:butt;stroke-linejoin:round;}
  </style>
 </defs>
 <g id="figure_1">
  <g id="patch_1">
   <path d="M 0 325.986375 
L 411.60125 325.986375 
L 411.60125 0 
L 0 0 
z
" style="fill:#ffffff;"/>
  </g>
  <g id="axes_1">
   <g id="patch_2">
    <path d="M 43.78125 288.430125 
L 400.90125 288.430125 
L 400.90125 22.318125 
L 43.78125 22.318125 
z
" style="fill:#ffffff;"/>
   </g>
   <g id="matplotlib.axis_1">
    <g id="xtick_1">
     <g id="line2d_1">
      <defs>
       <path d="M 0 0 
L 0 3.5 
" id="m8e93d1baa3" style="stroke:#000000;stroke-width:0.8;"/>
      </defs>
      <g>
       <use style="stroke:#000000;stroke-width:0.8;" x="59.200307" xlink:href="#m8e93d1baa3" y="288.430125"/>
      </g>
     </g>
     <g id="text_1">
      <!-- 0 -->
      <defs>
       <path d="M 31.78125 66.40625 
Q 24.171875 66.40625 20.328125 58.90625 
Q 16.5 51.421875 16.5 36.375 
Q 16.5 21.390625 20.328125 13.890625 
Q 24.171875 6.390625 31.78125 6.390625 
Q 39.453125 6.390625 43.28125 13.890625 
Q 47.125 21.390625 47.125 36.375 
Q 47.125 51.421875 43.28125 58.90625 
Q 39.453125 66.40625 31.78125 66.40625 
z
M 31.78125 74.21875 
Q 44.046875 74.21875 50.515625 64.515625 
Q 56.984375 54.828125 56.984375 36.375 
Q 56.984375 17.96875 50.515625 8.265625 
Q 44.046875 -1.421875 31.78125 -1.421875 
Q 19.53125 -1.421875 13.0625 8.265625 
Q 6.59375 17.96875 6.59375 36.375 
Q 6.59375 54.828125 13.0625 64.515625 
Q 19.53125 74.21875 31.78125 74.21875 
z
" id="DejaVuSans-30"/>
      </defs>
      <g transform="translate(56.019057 303.028562)scale(0.1 -0.1)">
       <use xlink:href="#DejaVuSans-30"/>
      </g>
     </g>
    </g>
    <g id="xtick_2">
     <g id="line2d_2">
      <g>
       <use style="stroke:#000000;stroke-width:0.8;" x="99.883834" xlink:href="#m8e93d1baa3" y="288.430125"/>
      </g>
     </g>
     <g id="text_2">
      <!-- 50 -->
      <defs>
       <path d="M 10.796875 72.90625 
L 49.515625 72.90625 
L 49.515625 64.59375 
L 19.828125 64.59375 
L 19.828125 46.734375 
Q 21.96875 47.46875 24.109375 47.828125 
Q 26.265625 48.1875 28.421875 48.1875 
Q 40.625 48.1875 47.75 41.5 
Q 54.890625 34.8125 54.890625 23.390625 
Q 54.890625 11.625 47.5625 5.09375 
Q 40.234375 -1.421875 26.90625 -1.421875 
Q 22.3125 -1.421875 17.546875 -0.640625 
Q 12.796875 0.140625 7.71875 1.703125 
L 7.71875 11.625 
Q 12.109375 9.234375 16.796875 8.0625 
Q 21.484375 6.890625 26.703125 6.890625 
Q 35.15625 6.890625 40.078125 11.328125 
Q 45.015625 15.765625 45.015625 23.390625 
Q 45.015625 31 40.078125 35.4375 
Q 35.15625 39.890625 26.703125 39.890625 
Q 22.75 39.890625 18.8125 39.015625 
Q 14.890625 38.140625 10.796875 36.28125 
z
" id="DejaVuSans-35"/>
      </defs>
      <g transform="translate(93.521334 303.028562)scale(0.1 -0.1)">
       <use xlink:href="#DejaVuSans-35"/>
       <use x="63.623047" xlink:href="#DejaVuSans-30"/>
      </g>
     </g>
    </g>
    <g id="xtick_3">
     <g id="line2d_3">
      <g>
       <use style="stroke:#000000;stroke-width:0.8;" x="140.567361" xlink:href="#m8e93d1baa3" y="288.430125"/>
      </g>
     </g>
     <g id="text_3">
      <!-- 100 -->
      <defs>
       <path d="M 12.40625 8.296875 
L 28.515625 8.296875 
L 28.515625 63.921875 
L 10.984375 60.40625 
L 10.984375 69.390625 
L 28.421875 72.90625 
L 38.28125 72.90625 
L 38.28125 8.296875 
L 54.390625 8.296875 
L 54.390625 0 
L 12.40625 0 
z
" id="DejaVuSans-31"/>
      </defs>
      <g transform="translate(131.023611 303.028562)scale(0.1 -0.1)">
       <use xlink:href="#DejaVuSans-31"/>
       <use x="63.623047" xlink:href="#DejaVuSans-30"/>
       <use x="127.246094" xlink:href="#DejaVuSans-30"/>
      </g>
     </g>
    </g>
    <g id="xtick_4">
     <g id="line2d_4">
      <g>
       <use style="stroke:#000000;stroke-width:0.8;" x="181.250888" xlink:href="#m8e93d1baa3" y="288.430125"/>
      </g>
     </g>
     <g id="text_4">
      <!-- 150 -->
      <g transform="translate(171.707138 303.028562)scale(0.1 -0.1)">
       <use xlink:href="#DejaVuSans-31"/>
       <use x="63.623047" xlink:href="#DejaVuSans-35"/>
       <use x="127.246094" xlink:href="#DejaVuSans-30"/>
      </g>
     </g>
    </g>
    <g id="xtick_5">
     <g id="line2d_5">
      <g>
       <use style="stroke:#000000;stroke-width:0.8;" x="221.934415" xlink:href="#m8e93d1baa3" y="288.430125"/>
      </g>
     </g>
     <g id="text_5">
      <!-- 200 -->
      <defs>
       <path d="M 19.1875 8.296875 
L 53.609375 8.296875 
L 53.609375 0 
L 7.328125 0 
L 7.328125 8.296875 
Q 12.9375 14.109375 22.625 23.890625 
Q 32.328125 33.6875 34.8125 36.53125 
Q 39.546875 41.84375 41.421875 45.53125 
Q 43.3125 49.21875 43.3125 52.78125 
Q 43.3125 58.59375 39.234375 62.25 
Q 35.15625 65.921875 28.609375 65.921875 
Q 23.96875 65.921875 18.8125 64.3125 
Q 13.671875 62.703125 7.8125 59.421875 
L 7.8125 69.390625 
Q 13.765625 71.78125 18.9375 73 
Q 24.125 74.21875 28.421875 74.21875 
Q 39.75 74.21875 46.484375 68.546875 
Q 53.21875 62.890625 53.21875 53.421875 
Q 53.21875 48.921875 51.53125 44.890625 
Q 49.859375 40.875 45.40625 35.40625 
Q 44.1875 33.984375 37.640625 27.21875 
Q 31.109375 20.453125 19.1875 8.296875 
z
" id="DejaVuSans-32"/>
      </defs>
      <g transform="translate(212.390665 303.028562)scale(0.1 -0.1)">
       <use xlink:href="#DejaVuSans-32"/>
       <use x="63.623047" xlink:href="#DejaVuSans-30"/>
       <use x="127.246094" xlink:href="#DejaVuSans-30"/>
      </g>
     </g>
    </g>
    <g id="xtick_6">
     <g id="line2d_6">
      <g>
       <use style="stroke:#000000;stroke-width:0.8;" x="262.617942" xlink:href="#m8e93d1baa3" y="288.430125"/>
      </g>
     </g>
     <g id="text_6">
      <!-- 250 -->
      <g transform="translate(253.074192 303.028562)scale(0.1 -0.1)">
       <use xlink:href="#DejaVuSans-32"/>
       <use x="63.623047" xlink:href="#DejaVuSans-35"/>
       <use x="127.246094" xlink:href="#DejaVuSans-30"/>
      </g>
     </g>
    </g>
    <g id="xtick_7">
     <g id="line2d_7">
      <g>
       <use style="stroke:#000000;stroke-width:0.8;" x="303.301469" xlink:href="#m8e93d1baa3" y="288.430125"/>
      </g>
     </g>
     <g id="text_7">
      <!-- 300 -->
      <defs>
       <path d="M 40.578125 39.3125 
Q 47.65625 37.796875 51.625 33 
Q 55.609375 28.21875 55.609375 21.1875 
Q 55.609375 10.40625 48.1875 4.484375 
Q 40.765625 -1.421875 27.09375 -1.421875 
Q 22.515625 -1.421875 17.65625 -0.515625 
Q 12.796875 0.390625 7.625 2.203125 
L 7.625 11.71875 
Q 11.71875 9.328125 16.59375 8.109375 
Q 21.484375 6.890625 26.8125 6.890625 
Q 36.078125 6.890625 40.9375 10.546875 
Q 45.796875 14.203125 45.796875 21.1875 
Q 45.796875 27.640625 41.28125 31.265625 
Q 36.765625 34.90625 28.71875 34.90625 
L 20.21875 34.90625 
L 20.21875 43.015625 
L 29.109375 43.015625 
Q 36.375 43.015625 40.234375 45.921875 
Q 44.09375 48.828125 44.09375 54.296875 
Q 44.09375 59.90625 40.109375 62.90625 
Q 36.140625 65.921875 28.71875 65.921875 
Q 24.65625 65.921875 20.015625 65.03125 
Q 15.375 64.15625 9.8125 62.3125 
L 9.8125 71.09375 
Q 15.4375 72.65625 20.34375 73.4375 
Q 25.25 74.21875 29.59375 74.21875 
Q 40.828125 74.21875 47.359375 69.109375 
Q 53.90625 64.015625 53.90625 55.328125 
Q 53.90625 49.265625 50.4375 45.09375 
Q 46.96875 40.921875 40.578125 39.3125 
z
" id="DejaVuSans-33"/>
      </defs>
      <g transform="translate(293.757719 303.028562)scale(0.1 -0.1)">
       <use xlink:href="#DejaVuSans-33"/>
       <use x="63.623047" xlink:href="#DejaVuSans-30"/>
       <use x="127.246094" xlink:href="#DejaVuSans-30"/>
      </g>
     </g>
    </g>
    <g id="xtick_8">
     <g id="line2d_8">
      <g>
       <use style="stroke:#000000;stroke-width:0.8;" x="343.984996" xlink:href="#m8e93d1baa3" y="288.430125"/>
      </g>
     </g>
     <g id="text_8">
      <!-- 350 -->
      <g transform="translate(334.441246 303.028562)scale(0.1 -0.1)">
       <use xlink:href="#DejaVuSans-33"/>
       <use x="63.623047" xlink:href="#DejaVuSans-35"/>
       <use x="127.246094" xlink:href="#DejaVuSans-30"/>
      </g>
     </g>
    </g>
    <g id="xtick_9">
     <g id="line2d_9">
      <g>
       <use style="stroke:#000000;stroke-width:0.8;" x="384.668523" xlink:href="#m8e93d1baa3" y="288.430125"/>
      </g>
     </g>
     <g id="text_9">
      <!-- 400 -->
      <defs>
       <path d="M 37.796875 64.3125 
L 12.890625 25.390625 
L 37.796875 25.390625 
z
M 35.203125 72.90625 
L 47.609375 72.90625 
L 47.609375 25.390625 
L 58.015625 25.390625 
L 58.015625 17.1875 
L 47.609375 17.1875 
L 47.609375 0 
L 37.796875 0 
L 37.796875 17.1875 
L 4.890625 17.1875 
L 4.890625 26.703125 
z
" id="DejaVuSans-34"/>
      </defs>
      <g transform="translate(375.124773 303.028562)scale(0.1 -0.1)">
       <use xlink:href="#DejaVuSans-34"/>
       <use x="63.623047" xlink:href="#DejaVuSans-30"/>
       <use x="127.246094" xlink:href="#DejaVuSans-30"/>
      </g>
     </g>
    </g>
    <g id="text_10">
     <!-- episode -->
     <defs>
      <path d="M 56.203125 29.59375 
L 56.203125 25.203125 
L 14.890625 25.203125 
Q 15.484375 15.921875 20.484375 11.0625 
Q 25.484375 6.203125 34.421875 6.203125 
Q 39.59375 6.203125 44.453125 7.46875 
Q 49.3125 8.734375 54.109375 11.28125 
L 54.109375 2.78125 
Q 49.265625 0.734375 44.1875 -0.34375 
Q 39.109375 -1.421875 33.890625 -1.421875 
Q 20.796875 -1.421875 13.15625 6.1875 
Q 5.515625 13.8125 5.515625 26.8125 
Q 5.515625 40.234375 12.765625 48.109375 
Q 20.015625 56 32.328125 56 
Q 43.359375 56 49.78125 48.890625 
Q 56.203125 41.796875 56.203125 29.59375 
z
M 47.21875 32.234375 
Q 47.125 39.59375 43.09375 43.984375 
Q 39.0625 48.390625 32.421875 48.390625 
Q 24.90625 48.390625 20.390625 44.140625 
Q 15.875 39.890625 15.1875 32.171875 
z
" id="DejaVuSans-65"/>
      <path d="M 18.109375 8.203125 
L 18.109375 -20.796875 
L 9.078125 -20.796875 
L 9.078125 54.6875 
L 18.109375 54.6875 
L 18.109375 46.390625 
Q 20.953125 51.265625 25.265625 53.625 
Q 29.59375 56 35.59375 56 
Q 45.5625 56 51.78125 48.09375 
Q 58.015625 40.1875 58.015625 27.296875 
Q 58.015625 14.40625 51.78125 6.484375 
Q 45.5625 -1.421875 35.59375 -1.421875 
Q 29.59375 -1.421875 25.265625 0.953125 
Q 20.953125 3.328125 18.109375 8.203125 
z
M 48.6875 27.296875 
Q 48.6875 37.203125 44.609375 42.84375 
Q 40.53125 48.484375 33.40625 48.484375 
Q 26.265625 48.484375 22.1875 42.84375 
Q 18.109375 37.203125 18.109375 27.296875 
Q 18.109375 17.390625 22.1875 11.75 
Q 26.265625 6.109375 33.40625 6.109375 
Q 40.53125 6.109375 44.609375 11.75 
Q 48.6875 17.390625 48.6875 27.296875 
z
" id="DejaVuSans-70"/>
      <path d="M 9.421875 54.6875 
L 18.40625 54.6875 
L 18.40625 0 
L 9.421875 0 
z
M 9.421875 75.984375 
L 18.40625 75.984375 
L 18.40625 64.59375 
L 9.421875 64.59375 
z
" id="DejaVuSans-69"/>
      <path d="M 44.28125 53.078125 
L 44.28125 44.578125 
Q 40.484375 46.53125 36.375 47.5 
Q 32.28125 48.484375 27.875 48.484375 
Q 21.1875 48.484375 17.84375 46.4375 
Q 14.5 44.390625 14.5 40.28125 
Q 14.5 37.15625 16.890625 35.375 
Q 19.28125 33.59375 26.515625 31.984375 
L 29.59375 31.296875 
Q 39.15625 29.25 43.1875 25.515625 
Q 47.21875 21.78125 47.21875 15.09375 
Q 47.21875 7.46875 41.1875 3.015625 
Q 35.15625 -1.421875 24.609375 -1.421875 
Q 20.21875 -1.421875 15.453125 -0.5625 
Q 10.6875 0.296875 5.421875 2 
L 5.421875 11.28125 
Q 10.40625 8.6875 15.234375 7.390625 
Q 20.0625 6.109375 24.8125 6.109375 
Q 31.15625 6.109375 34.5625 8.28125 
Q 37.984375 10.453125 37.984375 14.40625 
Q 37.984375 18.0625 35.515625 20.015625 
Q 33.0625 21.96875 24.703125 23.78125 
L 21.578125 24.515625 
Q 13.234375 26.265625 9.515625 29.90625 
Q 5.8125 33.546875 5.8125 39.890625 
Q 5.8125 47.609375 11.28125 51.796875 
Q 16.75 56 26.8125 56 
Q 31.78125 56 36.171875 55.265625 
Q 40.578125 54.546875 44.28125 53.078125 
z
" id="DejaVuSans-73"/>
      <path d="M 30.609375 48.390625 
Q 23.390625 48.390625 19.1875 42.75 
Q 14.984375 37.109375 14.984375 27.296875 
Q 14.984375 17.484375 19.15625 11.84375 
Q 23.34375 6.203125 30.609375 6.203125 
Q 37.796875 6.203125 41.984375 11.859375 
Q 46.1875 17.53125 46.1875 27.296875 
Q 46.1875 37.015625 41.984375 42.703125 
Q 37.796875 48.390625 30.609375 48.390625 
z
M 30.609375 56 
Q 42.328125 56 49.015625 48.375 
Q 55.71875 40.765625 55.71875 27.296875 
Q 55.71875 13.875 49.015625 6.21875 
Q 42.328125 -1.421875 30.609375 -1.421875 
Q 18.84375 -1.421875 12.171875 6.21875 
Q 5.515625 13.875 5.515625 27.296875 
Q 5.515625 40.765625 12.171875 48.375 
Q 18.84375 56 30.609375 56 
z
" id="DejaVuSans-6f"/>
      <path d="M 45.40625 46.390625 
L 45.40625 75.984375 
L 54.390625 75.984375 
L 54.390625 0 
L 45.40625 0 
L 45.40625 8.203125 
Q 42.578125 3.328125 38.25 0.953125 
Q 33.9375 -1.421875 27.875 -1.421875 
Q 17.96875 -1.421875 11.734375 6.484375 
Q 5.515625 14.40625 5.515625 27.296875 
Q 5.515625 40.1875 11.734375 48.09375 
Q 17.96875 56 27.875 56 
Q 33.9375 56 38.25 53.625 
Q 42.578125 51.265625 45.40625 46.390625 
z
M 14.796875 27.296875 
Q 14.796875 17.390625 18.875 11.75 
Q 22.953125 6.109375 30.078125 6.109375 
Q 37.203125 6.109375 41.296875 11.75 
Q 45.40625 17.390625 45.40625 27.296875 
Q 45.40625 37.203125 41.296875 42.84375 
Q 37.203125 48.484375 30.078125 48.484375 
Q 22.953125 48.484375 18.875 42.84375 
Q 14.796875 37.203125 14.796875 27.296875 
z
" id="DejaVuSans-64"/>
     </defs>
     <g transform="translate(202.786563 316.706687)scale(0.1 -0.1)">
      <use xlink:href="#DejaVuSans-65"/>
      <use x="61.523438" xlink:href="#DejaVuSans-70"/>
      <use x="125" xlink:href="#DejaVuSans-69"/>
      <use x="152.783203" xlink:href="#DejaVuSans-73"/>
      <use x="204.882812" xlink:href="#DejaVuSans-6f"/>
      <use x="266.064453" xlink:href="#DejaVuSans-64"/>
      <use x="329.541016" xlink:href="#DejaVuSans-65"/>
     </g>
    </g>
   </g>
   <g id="matplotlib.axis_2">
    <g id="ytick_1">
     <g id="line2d_10">
      <defs>
       <path d="M 0 0 
L -3.5 0 
" id="m6c3a1b0b36" style="stroke:#000000;stroke-width:0.8;"/>
      </defs>
      <g>
       <use style="stroke:#000000;stroke-width:0.8;" x="43.78125" xlink:href="#m6c3a1b0b36" y="276.334125"/>
      </g>
     </g>
     <g id="text_11">
      <!-- 0.0 -->
      <defs>
       <path d="M 10.6875 12.40625 
L 21 12.40625 
L 21 0 
L 10.6875 0 
z
" id="DejaVuSans-2e"/>
      </defs>
      <g transform="translate(20.878125 280.133344)scale(0.1 -0.1)">
       <use xlink:href="#DejaVuSans-30"/>
       <use x="63.623047" xlink:href="#DejaVuSans-2e"/>
       <use x="95.410156" xlink:href="#DejaVuSans-30"/>
      </g>
     </g>
    </g>
    <g id="ytick_2">
     <g id="line2d_11">
      <g>
       <use style="stroke:#000000;stroke-width:0.8;" x="43.78125" xlink:href="#m6c3a1b0b36" y="244.442643"/>
      </g>
     </g>
     <g id="text_12">
      <!-- 0.1 -->
      <g transform="translate(20.878125 248.241862)scale(0.1 -0.1)">
       <use xlink:href="#DejaVuSans-30"/>
       <use x="63.623047" xlink:href="#DejaVuSans-2e"/>
       <use x="95.410156" xlink:href="#DejaVuSans-31"/>
      </g>
     </g>
    </g>
    <g id="ytick_3">
     <g id="line2d_12">
      <g>
       <use style="stroke:#000000;stroke-width:0.8;" x="43.78125" xlink:href="#m6c3a1b0b36" y="212.551161"/>
      </g>
     </g>
     <g id="text_13">
      <!-- 0.2 -->
      <g transform="translate(20.878125 216.35038)scale(0.1 -0.1)">
       <use xlink:href="#DejaVuSans-30"/>
       <use x="63.623047" xlink:href="#DejaVuSans-2e"/>
       <use x="95.410156" xlink:href="#DejaVuSans-32"/>
      </g>
     </g>
    </g>
    <g id="ytick_4">
     <g id="line2d_13">
      <g>
       <use style="stroke:#000000;stroke-width:0.8;" x="43.78125" xlink:href="#m6c3a1b0b36" y="180.659679"/>
      </g>
     </g>
     <g id="text_14">
      <!-- 0.3 -->
      <g transform="translate(20.878125 184.458897)scale(0.1 -0.1)">
       <use xlink:href="#DejaVuSans-30"/>
       <use x="63.623047" xlink:href="#DejaVuSans-2e"/>
       <use x="95.410156" xlink:href="#DejaVuSans-33"/>
      </g>
     </g>
    </g>
    <g id="ytick_5">
     <g id="line2d_14">
      <g>
       <use style="stroke:#000000;stroke-width:0.8;" x="43.78125" xlink:href="#m6c3a1b0b36" y="148.768197"/>
      </g>
     </g>
     <g id="text_15">
      <!-- 0.4 -->
      <g transform="translate(20.878125 152.567415)scale(0.1 -0.1)">
       <use xlink:href="#DejaVuSans-30"/>
       <use x="63.623047" xlink:href="#DejaVuSans-2e"/>
       <use x="95.410156" xlink:href="#DejaVuSans-34"/>
      </g>
     </g>
    </g>
    <g id="ytick_6">
     <g id="line2d_15">
      <g>
       <use style="stroke:#000000;stroke-width:0.8;" x="43.78125" xlink:href="#m6c3a1b0b36" y="116.876714"/>
      </g>
     </g>
     <g id="text_16">
      <!-- 0.5 -->
      <g transform="translate(20.878125 120.675933)scale(0.1 -0.1)">
       <use xlink:href="#DejaVuSans-30"/>
       <use x="63.623047" xlink:href="#DejaVuSans-2e"/>
       <use x="95.410156" xlink:href="#DejaVuSans-35"/>
      </g>
     </g>
    </g>
    <g id="ytick_7">
     <g id="line2d_16">
      <g>
       <use style="stroke:#000000;stroke-width:0.8;" x="43.78125" xlink:href="#m6c3a1b0b36" y="84.985232"/>
      </g>
     </g>
     <g id="text_17">
      <!-- 0.6 -->
      <defs>
       <path d="M 33.015625 40.375 
Q 26.375 40.375 22.484375 35.828125 
Q 18.609375 31.296875 18.609375 23.390625 
Q 18.609375 15.53125 22.484375 10.953125 
Q 26.375 6.390625 33.015625 6.390625 
Q 39.65625 6.390625 43.53125 10.953125 
Q 47.40625 15.53125 47.40625 23.390625 
Q 47.40625 31.296875 43.53125 35.828125 
Q 39.65625 40.375 33.015625 40.375 
z
M 52.59375 71.296875 
L 52.59375 62.3125 
Q 48.875 64.0625 45.09375 64.984375 
Q 41.3125 65.921875 37.59375 65.921875 
Q 27.828125 65.921875 22.671875 59.328125 
Q 17.53125 52.734375 16.796875 39.40625 
Q 19.671875 43.65625 24.015625 45.921875 
Q 28.375 48.1875 33.59375 48.1875 
Q 44.578125 48.1875 50.953125 41.515625 
Q 57.328125 34.859375 57.328125 23.390625 
Q 57.328125 12.15625 50.6875 5.359375 
Q 44.046875 -1.421875 33.015625 -1.421875 
Q 20.359375 -1.421875 13.671875 8.265625 
Q 6.984375 17.96875 6.984375 36.375 
Q 6.984375 53.65625 15.1875 63.9375 
Q 23.390625 74.21875 37.203125 74.21875 
Q 40.921875 74.21875 44.703125 73.484375 
Q 48.484375 72.75 52.59375 71.296875 
z
" id="DejaVuSans-36"/>
      </defs>
      <g transform="translate(20.878125 88.784451)scale(0.1 -0.1)">
       <use xlink:href="#DejaVuSans-30"/>
       <use x="63.623047" xlink:href="#DejaVuSans-2e"/>
       <use x="95.410156" xlink:href="#DejaVuSans-36"/>
      </g>
     </g>
    </g>
    <g id="ytick_8">
     <g id="line2d_17">
      <g>
       <use style="stroke:#000000;stroke-width:0.8;" x="43.78125" xlink:href="#m6c3a1b0b36" y="53.09375"/>
      </g>
     </g>
     <g id="text_18">
      <!-- 0.7 -->
      <defs>
       <path d="M 8.203125 72.90625 
L 55.078125 72.90625 
L 55.078125 68.703125 
L 28.609375 0 
L 18.3125 0 
L 43.21875 64.59375 
L 8.203125 64.59375 
z
" id="DejaVuSans-37"/>
      </defs>
      <g transform="translate(20.878125 56.892969)scale(0.1 -0.1)">
       <use xlink:href="#DejaVuSans-30"/>
       <use x="63.623047" xlink:href="#DejaVuSans-2e"/>
       <use x="95.410156" xlink:href="#DejaVuSans-37"/>
      </g>
     </g>
    </g>
    <g id="text_19">
     <!-- undisc. return -->
     <defs>
      <path d="M 8.5 21.578125 
L 8.5 54.6875 
L 17.484375 54.6875 
L 17.484375 21.921875 
Q 17.484375 14.15625 20.5 10.265625 
Q 23.53125 6.390625 29.59375 6.390625 
Q 36.859375 6.390625 41.078125 11.03125 
Q 45.3125 15.671875 45.3125 23.6875 
L 45.3125 54.6875 
L 54.296875 54.6875 
L 54.296875 0 
L 45.3125 0 
L 45.3125 8.40625 
Q 42.046875 3.421875 37.71875 1 
Q 33.40625 -1.421875 27.6875 -1.421875 
Q 18.265625 -1.421875 13.375 4.4375 
Q 8.5 10.296875 8.5 21.578125 
z
M 31.109375 56 
z
" id="DejaVuSans-75"/>
      <path d="M 54.890625 33.015625 
L 54.890625 0 
L 45.90625 0 
L 45.90625 32.71875 
Q 45.90625 40.484375 42.875 44.328125 
Q 39.84375 48.1875 33.796875 48.1875 
Q 26.515625 48.1875 22.3125 43.546875 
Q 18.109375 38.921875 18.109375 30.90625 
L 18.109375 0 
L 9.078125 0 
L 9.078125 54.6875 
L 18.109375 54.6875 
L 18.109375 46.1875 
Q 21.34375 51.125 25.703125 53.5625 
Q 30.078125 56 35.796875 56 
Q 45.21875 56 50.046875 50.171875 
Q 54.890625 44.34375 54.890625 33.015625 
z
" id="DejaVuSans-6e"/>
      <path d="M 48.78125 52.59375 
L 48.78125 44.1875 
Q 44.96875 46.296875 41.140625 47.34375 
Q 37.3125 48.390625 33.40625 48.390625 
Q 24.65625 48.390625 19.8125 42.84375 
Q 14.984375 37.3125 14.984375 27.296875 
Q 14.984375 17.28125 19.8125 11.734375 
Q 24.65625 6.203125 33.40625 6.203125 
Q 37.3125 6.203125 41.140625 7.25 
Q 44.96875 8.296875 48.78125 10.40625 
L 48.78125 2.09375 
Q 45.015625 0.34375 40.984375 -0.53125 
Q 36.96875 -1.421875 32.421875 -1.421875 
Q 20.0625 -1.421875 12.78125 6.34375 
Q 5.515625 14.109375 5.515625 27.296875 
Q 5.515625 40.671875 12.859375 48.328125 
Q 20.21875 56 33.015625 56 
Q 37.15625 56 41.109375 55.140625 
Q 45.0625 54.296875 48.78125 52.59375 
z
" id="DejaVuSans-63"/>
      <path id="DejaVuSans-20"/>
      <path d="M 41.109375 46.296875 
Q 39.59375 47.171875 37.8125 47.578125 
Q 36.03125 48 33.890625 48 
Q 26.265625 48 22.1875 43.046875 
Q 18.109375 38.09375 18.109375 28.8125 
L 18.109375 0 
L 9.078125 0 
L 9.078125 54.6875 
L 18.109375 54.6875 
L 18.109375 46.1875 
Q 20.953125 51.171875 25.484375 53.578125 
Q 30.03125 56 36.53125 56 
Q 37.453125 56 38.578125 55.875 
Q 39.703125 55.765625 41.0625 55.515625 
z
" id="DejaVuSans-72"/>
      <path d="M 18.3125 70.21875 
L 18.3125 54.6875 
L 36.8125 54.6875 
L 36.8125 47.703125 
L 18.3125 47.703125 
L 18.3125 18.015625 
Q 18.3125 11.328125 20.140625 9.421875 
Q 21.96875 7.515625 27.59375 7.515625 
L 36.8125 7.515625 
L 36.8125 0 
L 27.59375 0 
Q 17.1875 0 13.234375 3.875 
Q 9.28125 7.765625 9.28125 18.015625 
L 9.28125 47.703125 
L 2.6875 47.703125 
L 2.6875 54.6875 
L 9.28125 54.6875 
L 9.28125 70.21875 
z
" id="DejaVuSans-74"/>
     </defs>
     <g transform="translate(14.798438 190.28975)rotate(-90)scale(0.1 -0.1)">
      <use xlink:href="#DejaVuSans-75"/>
      <use x="63.378906" xlink:href="#DejaVuSans-6e"/>
      <use x="126.757812" xlink:href="#DejaVuSans-64"/>
      <use x="190.234375" xlink:href="#DejaVuSans-69"/>
      <use x="218.017578" xlink:href="#DejaVuSans-73"/>
      <use x="270.117188" xlink:href="#DejaVuSans-63"/>
      <use x="325.097656" xlink:href="#DejaVuSans-2e"/>
      <use x="356.884766" xlink:href="#DejaVuSans-20"/>
      <use x="388.671875" xlink:href="#DejaVuSans-72"/>
      <use x="429.753906" xlink:href="#DejaVuSans-65"/>
      <use x="491.277344" xlink:href="#DejaVuSans-74"/>
      <use x="530.486328" xlink:href="#DejaVuSans-75"/>
      <use x="593.865234" xlink:href="#DejaVuSans-72"/>
      <use x="634.962891" xlink:href="#DejaVuSans-6e"/>
     </g>
    </g>
   </g>
   <g id="line2d_18">
    <path clip-path="url(#p8abb2a4d30)" d="M 60.013977 113.430973 
L 60.827648 121.312698 
L 61.641318 105.433653 
L 62.454989 72.278313 
L 63.268659 74.891512 
L 64.08233 79.16542 
L 64.896001 61.029653 
L 65.709671 77.520071 
L 66.523342 139.240782 
L 67.337012 136.068346 
L 68.150683 107.691875 
L 68.964353 100.789433 
L 69.778024 165.809717 
L 70.591694 188.726393 
L 71.405365 78.957483 
L 72.219035 76.464937 
L 73.032706 102.619928 
L 73.846376 90.51605 
L 74.660047 94.727051 
L 75.473718 70.547929 
L 76.287388 144.053621 
L 77.101059 190.527017 
L 77.914729 69.446649 
L 78.7284 196.610098 
L 79.54207 85.853941 
L 80.355741 132.083624 
L 81.169411 189.218114 
L 81.983082 84.354997 
L 82.796752 110.798713 
L 83.610423 125.913916 
L 84.424093 190.833352 
L 85.237764 172.275164 
L 86.051435 129.549062 
L 86.865105 79.796085 
L 87.678776 147.33687 
L 88.492446 165.691981 
L 89.306117 110.017944 
L 90.119787 143.894205 
L 90.933458 56.698796 
L 91.747128 146.666462 
L 92.560799 69.059219 
L 93.374469 66.1317 
L 94.18814 162.71272 
L 95.00181 98.109072 
L 95.815481 99.331962 
L 96.629152 116.108728 
L 97.442822 96.462572 
L 98.256493 145.073633 
L 99.070163 156.451134 
L 99.883834 96.884491 
L 100.697504 126.216758 
L 101.511175 105.302109 
L 102.324845 120.339561 
L 103.138516 124.975315 
L 103.952186 61.348814 
L 104.765857 175.574768 
L 105.579528 98.384242 
L 106.393198 138.659499 
L 107.206869 66.913525 
L 108.020539 172.057038 
L 108.83421 196.357512 
L 109.64788 129.158842 
L 110.461551 75.69711 
L 111.275221 223.371294 
L 112.088892 142.631265 
L 112.902562 91.056237 
L 113.716233 139.086034 
L 114.529903 53.960132 
L 115.343574 58.010437 
L 116.157245 138.595857 
L 116.970915 63.069546 
L 117.784586 145.802843 
L 118.598256 171.23185 
L 119.411927 82.889053 
L 120.225597 155.586339 
L 121.039268 56.616344 
L 121.852938 94.601816 
L 122.666609 87.951232 
L 123.480279 176.058679 
L 124.29395 47.782412 
L 125.10762 67.784595 
L 125.921291 123.102614 
L 126.734962 213.018278 
L 127.548632 180.88657 
L 128.362303 50.528067 
L 129.175973 170.591778 
L 129.989644 106.148014 
L 130.803314 120.761054 
L 131.616985 80.933819 
L 132.430655 156.840093 
L 133.244326 183.612327 
L 134.057996 64.629465 
L 134.871667 148.947978 
L 135.685337 56.649333 
L 136.499008 107.170022 
L 137.312679 197.204141 
L 138.126349 89.444738 
L 138.94002 56.456828 
L 140.567361 276.334125 
L 141.381031 107.664841 
L 142.194702 121.125976 
L 143.008372 72.99902 
L 143.822043 132.09484 
L 144.635713 94.973539 
L 145.449384 116.276226 
L 146.263055 67.957497 
L 147.076725 79.989619 
L 147.890396 176.410104 
L 148.704066 88.622157 
L 149.517737 116.23626 
L 150.331407 95.001153 
L 151.145078 172.621095 
L 151.958748 150.105584 
L 152.772419 204.962465 
L 153.586089 53.939529 
L 154.39976 92.352377 
L 155.21343 180.504086 
L 156.027101 52.418374 
L 156.840772 131.141609 
L 157.654442 139.108511 
L 158.468113 139.819961 
L 159.281783 94.885226 
L 160.095454 62.189328 
L 160.909124 128.549441 
L 161.722795 114.812535 
L 162.536465 172.06902 
L 163.350136 148.010554 
L 164.163806 60.328164 
L 164.977477 170.152642 
L 165.791147 193.246974 
L 166.604818 57.593224 
L 167.418489 62.464433 
L 168.232159 216.325115 
L 169.04583 191.509583 
L 169.8595 182.033421 
L 170.673171 102.844728 
L 171.486841 188.795873 
L 172.300512 175.326228 
L 173.114182 106.465892 
L 174.741523 130.045424 
L 175.555194 77.07777 
L 176.368864 95.336224 
L 177.182535 134.008993 
L 177.996206 73.013734 
L 178.809876 166.510058 
L 179.623547 184.608491 
L 180.437217 181.866113 
L 181.250888 91.429239 
L 182.064558 116.507775 
L 182.878229 186.079384 
L 183.691899 114.832871 
L 184.50557 55.080863 
L 185.31924 64.453063 
L 186.132911 104.958968 
L 186.946582 138.132548 
L 187.760252 150.922173 
L 188.573923 139.314548 
L 189.387593 81.806835 
L 190.201264 72.030668 
L 191.014934 86.822221 
L 191.828605 116.159785 
L 192.642275 200.740291 
L 193.455946 78.886895 
L 194.269616 109.518234 
L 195.083287 84.769371 
L 195.896957 97.031829 
L 196.710628 78.982206 
L 197.524299 165.348283 
L 198.337969 144.931919 
L 199.96531 67.379004 
L 200.778981 219.480059 
L 201.592651 128.117839 
L 202.406322 159.923874 
L 203.219992 185.737812 
L 204.033663 108.445216 
L 204.847333 88.783501 
L 205.661004 207.449625 
L 206.474674 193.401258 
L 207.288345 177.279054 
L 208.102016 106.483202 
L 208.915686 153.472569 
L 209.729357 58.84697 
L 210.543027 112.444728 
L 211.356698 124.583117 
L 212.170368 178.415185 
L 212.984039 68.138477 
L 213.797709 67.04441 
L 214.61138 91.162546 
L 215.42505 60.223762 
L 216.238721 152.851686 
L 217.052391 211.718098 
L 217.866062 97.498675 
L 218.679733 114.521042 
L 219.493403 111.200675 
L 220.307074 74.776591 
L 221.120744 205.951674 
L 221.934415 276.334125 
L 222.748085 173.22298 
L 223.561756 162.987326 
L 224.375426 172.384083 
L 225.189097 68.355375 
L 226.002767 120.559698 
L 226.816438 74.445245 
L 227.630109 55.052613 
L 228.443779 153.436616 
L 229.25745 70.175567 
L 230.07112 64.232406 
L 230.884791 104.851978 
L 231.698461 212.748015 
L 232.512132 69.472716 
L 233.325802 189.329117 
L 234.139473 67.893408 
L 234.953143 152.395596 
L 235.766814 183.684497 
L 236.580484 203.30476 
L 237.394155 91.099468 
L 238.207826 144.407958 
L 239.021496 86.565133 
L 239.835167 127.999989 
L 240.648837 142.522938 
L 241.462508 82.555652 
L 242.276178 61.676993 
L 243.089849 160.095606 
L 243.903519 108.473448 
L 244.71719 121.936489 
L 245.53086 65.652329 
L 246.344531 112.304696 
L 247.158201 183.390339 
L 247.971872 117.31062 
L 248.785543 196.873201 
L 249.599213 77.817883 
L 250.412884 84.280483 
L 251.226554 149.835037 
L 252.040225 137.948662 
L 252.853895 151.442072 
L 253.667566 189.902617 
L 254.481236 129.178084 
L 255.294907 105.280415 
L 256.108577 86.382953 
L 256.922248 119.251243 
L 257.735918 191.626133 
L 258.549589 95.982569 
L 259.36326 94.31018 
L 260.17693 94.760516 
L 260.990601 144.485028 
L 261.804271 88.389445 
L 262.617942 111.500151 
L 263.431612 79.20177 
L 264.245283 147.122163 
L 265.058953 160.411272 
L 265.872624 99.683283 
L 266.686294 64.907195 
L 267.499965 177.620388 
L 268.313636 101.73453 
L 269.127306 71.195481 
L 270.754647 200.586751 
L 271.568318 152.182497 
L 272.381988 172.008641 
L 273.195659 204.716727 
L 274.009329 196.868769 
L 274.823 181.923326 
L 275.63667 171.114998 
L 276.450341 137.126522 
L 277.264011 162.110587 
L 278.077682 103.887338 
L 278.891353 140.447468 
L 279.705023 82.758311 
L 280.518694 210.429818 
L 281.332364 129.745032 
L 282.146035 186.878466 
L 282.959705 70.127406 
L 283.773376 184.486648 
L 284.587046 110.342675 
L 285.400717 162.79644 
L 286.214387 126.814825 
L 287.028058 170.694156 
L 287.841728 119.783925 
L 288.655399 135.226482 
L 289.46907 107.564868 
L 290.28274 91.052613 
L 291.096411 189.969978 
L 291.910081 90.991207 
L 292.723752 189.295761 
L 293.537422 95.079505 
L 294.351093 116.466197 
L 295.164763 131.997218 
L 295.978434 102.952254 
L 296.792104 137.614415 
L 297.605775 133.20877 
L 298.419445 78.123352 
L 299.233116 121.391214 
L 300.046787 89.352931 
L 300.860457 100.317594 
L 301.674128 68.197557 
L 302.487798 88.405202 
L 303.301469 276.334125 
L 304.115139 58.072083 
L 304.92881 85.178874 
L 305.74248 38.840928 
L 306.556151 63.508527 
L 307.369821 70.70929 
L 308.183492 69.528708 
L 308.997163 105.664318 
L 309.810833 56.660691 
L 310.624504 57.356761 
L 311.438174 65.724131 
L 312.251845 75.813563 
L 313.065515 49.823045 
L 313.879186 42.959122 
L 314.692856 78.577245 
L 315.506527 74.697138 
L 316.320197 50.438789 
L 317.133868 60.565977 
L 317.947538 48.84009 
L 318.761209 66.042615 
L 319.57488 48.197759 
L 320.38855 48.330906 
L 321.202221 40.24801 
L 322.015891 62.209322 
L 322.829562 38.816642 
L 323.643232 47.929777 
L 324.456903 81.490676 
L 325.270573 41.964714 
L 326.084244 39.54026 
L 326.897914 36.398101 
L 327.711585 38.574938 
L 328.525255 46.73498 
L 329.338926 37.531201 
L 330.152597 49.595759 
L 330.966267 52.654624 
L 331.779938 37.319672 
L 332.593608 45.916876 
L 333.407279 84.401045 
L 334.220949 49.318928 
L 335.03462 39.722358 
L 335.84829 52.647788 
L 336.661961 36.39559 
L 337.475631 42.743212 
L 338.289302 58.692043 
L 339.102972 45.192734 
L 339.916643 43.115986 
L 340.730314 51.638104 
L 341.543984 48.281731 
L 342.357655 40.275494 
L 343.171325 45.850515 
L 343.984996 37.148854 
L 344.798666 38.213703 
L 345.612337 43.565459 
L 346.426007 45.004186 
L 347.239678 42.13686 
L 348.053348 35.370223 
L 348.867019 39.864392 
L 349.68069 37.810641 
L 350.49436 47.298704 
L 351.308031 45.391743 
L 352.121701 36.065748 
L 352.935372 39.374463 
L 353.749042 46.023064 
L 354.562713 36.580386 
L 355.376383 37.695362 
L 356.190054 40.857921 
L 357.003724 44.76757 
L 357.817395 35.28227 
L 358.631065 36.437374 
L 359.444736 43.393465 
L 360.258407 40.206985 
L 361.072077 40.013184 
L 361.885748 42.023465 
L 362.699418 35.347427 
L 363.513089 37.300464 
L 364.326759 36.624329 
L 365.14043 42.864106 
L 365.9541 34.999016 
L 366.767771 35.617466 
L 367.581441 42.756567 
L 368.395112 34.414125 
L 369.208782 43.896318 
L 370.022453 37.436946 
L 370.836124 36.890068 
L 371.649794 44.031317 
L 372.463465 40.952611 
L 373.277135 45.807948 
L 374.090806 37.571949 
L 374.904476 41.06401 
L 375.718147 40.206771 
L 376.531817 86.424567 
L 377.345488 37.115142 
L 378.159158 51.101561 
L 378.972829 35.503339 
L 379.786499 37.669158 
L 380.60017 36.459743 
L 381.413841 36.143235 
L 382.227511 36.013408 
L 383.041182 36.310607 
L 383.854852 35.357896 
L 384.668523 276.334125 
L 384.668523 276.334125 
" style="fill:none;stroke:#1f77b4;stroke-linecap:square;stroke-width:0.5;"/>
   </g>
   <g id="patch_3">
    <path d="M 43.78125 288.430125 
L 43.78125 22.318125 
" style="fill:none;stroke:#000000;stroke-linecap:square;stroke-linejoin:miter;stroke-width:0.8;"/>
   </g>
   <g id="patch_4">
    <path d="M 400.90125 288.430125 
L 400.90125 22.318125 
" style="fill:none;stroke:#000000;stroke-linecap:square;stroke-linejoin:miter;stroke-width:0.8;"/>
   </g>
   <g id="patch_5">
    <path d="M 43.78125 288.430125 
L 400.90125 288.430125 
" style="fill:none;stroke:#000000;stroke-linecap:square;stroke-linejoin:miter;stroke-width:0.8;"/>
   </g>
   <g id="patch_6">
    <path d="M 43.78125 22.318125 
L 400.90125 22.318125 
" style="fill:none;stroke:#000000;stroke-linecap:square;stroke-linejoin:miter;stroke-width:0.8;"/>
   </g>
   <g id="text_20">
    <!-- Undiscounted return obtained -->
    <defs>
     <path d="M 8.6875 72.90625 
L 18.609375 72.90625 
L 18.609375 28.609375 
Q 18.609375 16.890625 22.84375 11.734375 
Q 27.09375 6.59375 36.625 6.59375 
Q 46.09375 6.59375 50.34375 11.734375 
Q 54.59375 16.890625 54.59375 28.609375 
L 54.59375 72.90625 
L 64.5 72.90625 
L 64.5 27.390625 
Q 64.5 13.140625 57.4375 5.859375 
Q 50.390625 -1.421875 36.625 -1.421875 
Q 22.796875 -1.421875 15.734375 5.859375 
Q 8.6875 13.140625 8.6875 27.390625 
z
" id="DejaVuSans-55"/>
     <path d="M 48.6875 27.296875 
Q 48.6875 37.203125 44.609375 42.84375 
Q 40.53125 48.484375 33.40625 48.484375 
Q 26.265625 48.484375 22.1875 42.84375 
Q 18.109375 37.203125 18.109375 27.296875 
Q 18.109375 17.390625 22.1875 11.75 
Q 26.265625 6.109375 33.40625 6.109375 
Q 40.53125 6.109375 44.609375 11.75 
Q 48.6875 17.390625 48.6875 27.296875 
z
M 18.109375 46.390625 
Q 20.953125 51.265625 25.265625 53.625 
Q 29.59375 56 35.59375 56 
Q 45.5625 56 51.78125 48.09375 
Q 58.015625 40.1875 58.015625 27.296875 
Q 58.015625 14.40625 51.78125 6.484375 
Q 45.5625 -1.421875 35.59375 -1.421875 
Q 29.59375 -1.421875 25.265625 0.953125 
Q 20.953125 3.328125 18.109375 8.203125 
L 18.109375 0 
L 9.078125 0 
L 9.078125 75.984375 
L 18.109375 75.984375 
z
" id="DejaVuSans-62"/>
     <path d="M 34.28125 27.484375 
Q 23.390625 27.484375 19.1875 25 
Q 14.984375 22.515625 14.984375 16.5 
Q 14.984375 11.71875 18.140625 8.90625 
Q 21.296875 6.109375 26.703125 6.109375 
Q 34.1875 6.109375 38.703125 11.40625 
Q 43.21875 16.703125 43.21875 25.484375 
L 43.21875 27.484375 
z
M 52.203125 31.203125 
L 52.203125 0 
L 43.21875 0 
L 43.21875 8.296875 
Q 40.140625 3.328125 35.546875 0.953125 
Q 30.953125 -1.421875 24.3125 -1.421875 
Q 15.921875 -1.421875 10.953125 3.296875 
Q 6 8.015625 6 15.921875 
Q 6 25.140625 12.171875 29.828125 
Q 18.359375 34.515625 30.609375 34.515625 
L 43.21875 34.515625 
L 43.21875 35.40625 
Q 43.21875 41.609375 39.140625 45 
Q 35.0625 48.390625 27.6875 48.390625 
Q 23 48.390625 18.546875 47.265625 
Q 14.109375 46.140625 10.015625 43.890625 
L 10.015625 52.203125 
Q 14.9375 54.109375 19.578125 55.046875 
Q 24.21875 56 28.609375 56 
Q 40.484375 56 46.34375 49.84375 
Q 52.203125 43.703125 52.203125 31.203125 
z
" id="DejaVuSans-61"/>
    </defs>
    <g transform="translate(132.244687 16.318125)scale(0.12 -0.12)">
     <use xlink:href="#DejaVuSans-55"/>
     <use x="73.193359" xlink:href="#DejaVuSans-6e"/>
     <use x="136.572266" xlink:href="#DejaVuSans-64"/>
     <use x="200.048828" xlink:href="#DejaVuSans-69"/>
     <use x="227.832031" xlink:href="#DejaVuSans-73"/>
     <use x="279.931641" xlink:href="#DejaVuSans-63"/>
     <use x="334.912109" xlink:href="#DejaVuSans-6f"/>
     <use x="396.09375" xlink:href="#DejaVuSans-75"/>
     <use x="459.472656" xlink:href="#DejaVuSans-6e"/>
     <use x="522.851562" xlink:href="#DejaVuSans-74"/>
     <use x="562.060547" xlink:href="#DejaVuSans-65"/>
     <use x="623.583984" xlink:href="#DejaVuSans-64"/>
     <use x="687.060547" xlink:href="#DejaVuSans-20"/>
     <use x="718.847656" xlink:href="#DejaVuSans-72"/>
     <use x="759.929688" xlink:href="#DejaVuSans-65"/>
     <use x="821.453125" xlink:href="#DejaVuSans-74"/>
     <use x="860.662109" xlink:href="#DejaVuSans-75"/>
     <use x="924.041016" xlink:href="#DejaVuSans-72"/>
     <use x="965.138672" xlink:href="#DejaVuSans-6e"/>
     <use x="1028.517578" xlink:href="#DejaVuSans-20"/>
     <use x="1060.304688" xlink:href="#DejaVuSans-6f"/>
     <use x="1121.486328" xlink:href="#DejaVuSans-62"/>
     <use x="1184.962891" xlink:href="#DejaVuSans-74"/>
     <use x="1224.171875" xlink:href="#DejaVuSans-61"/>
     <use x="1285.451172" xlink:href="#DejaVuSans-69"/>
     <use x="1313.234375" xlink:href="#DejaVuSans-6e"/>
     <use x="1376.613281" xlink:href="#DejaVuSans-65"/>
     <use x="1438.136719" xlink:href="#DejaVuSans-64"/>
    </g>
   </g>
  </g>
 </g>
 <defs>
  <clipPath id="p8abb2a4d30">
   <rect height="266.112" width="357.12" x="43.78125" y="22.318125"/>
  </clipPath>
 </defs>
</svg>
