<?xml version="1.0" encoding="utf-8" standalone="no"?>
<!DOCTYPE svg PUBLIC "-//W3C//DTD SVG 1.1//EN"
  "http://www.w3.org/Graphics/SVG/1.1/DTD/svg11.dtd">
<!-- Created with matplotlib (http://matplotlib.org/) -->
<svg height="408pt" version="1.1" viewBox="0 0 510 408" width="510pt" xmlns="http://www.w3.org/2000/svg" xmlns:xlink="http://www.w3.org/1999/xlink">
 <defs>
  <style type="text/css">
*{stroke-linecap:butt;stroke-linejoin:round;stroke-miterlimit:100000;}
  </style>
 </defs>
 <g id="figure_1">
  <g id="patch_1">
   <path d="M 0 408.16925 
L 510.039375 408.16925 
L 510.039375 0 
L 0 0 
z
" style="fill:#ffffff;"/>
  </g>
  <g id="axes_1">
   <g id="patch_2">
    <path d="M 46.8975 368.74175 
L 493.2975 368.74175 
L 493.2975 23.14175 
L 46.8975 23.14175 
z
" style="fill:#ffffff;"/>
   </g>
   <g id="PathCollection_1">
    <defs>
     <path d="M 0 2.236068 
C 0.593012 2.236068 1.161816 2.000462 1.581139 1.581139 
C 2.000462 1.161816 2.236068 0.593012 2.236068 0 
C 2.236068 -0.593012 2.000462 -1.161816 1.581139 -1.581139 
C 1.161816 -2.000462 0.593012 -2.236068 0 -2.236068 
C -0.593012 -2.236068 -1.161816 -2.000462 -1.581139 -1.581139 
C -2.000462 -1.161816 -2.236068 -0.593012 -2.236068 0 
C -2.236068 0.593012 -2.000462 1.161816 -1.581139 1.581139 
C -1.161816 2.000462 -0.593012 2.236068 0 2.236068 
z
" id="mcd0f383d34" style="stroke:#000000;"/>
    </defs>
    <g clip-path="url(#pde98644524)">
     <use style="fill:#0000ff;stroke:#000000;" x="337.94828634" xlink:href="#mcd0f383d34" y="243.156666992"/>
     <use style="fill:#0000ff;stroke:#000000;" x="270.098290884" xlink:href="#mcd0f383d34" y="229.01909375"/>
     <use style="fill:#0000ff;stroke:#000000;" x="270.732361153" xlink:href="#mcd0f383d34" y="227.483058594"/>
     <use style="fill:#0000ff;stroke:#000000;" x="276.439404944" xlink:href="#mcd0f383d34" y="225.237233398"/>
     <use style="fill:#0000ff;stroke:#000000;" x="282.139745783" xlink:href="#mcd0f383d34" y="217.86954541"/>
     <use style="fill:#0000ff;stroke:#000000;" x="287.825531293" xlink:href="#mcd0f383d34" y="211.817213867"/>
     <use style="fill:#0000ff;stroke:#000000;" x="292.894185404" xlink:href="#mcd0f383d34" y="217.136977051"/>
     <use style="fill:#0000ff;stroke:#000000;" x="293.542254438" xlink:href="#mcd0f383d34" y="202.20959668"/>
     <use style="fill:#0000ff;stroke:#000000;" x="299.295952715" xlink:href="#mcd0f383d34" y="196.722694824"/>
     <use style="fill:#0000ff;stroke:#000000;" x="305.063686054" xlink:href="#mcd0f383d34" y="174.07423291"/>
     <use style="fill:#0000ff;stroke:#000000;" x="310.841147144" xlink:href="#mcd0f383d34" y="153.39565625"/>
     <use style="fill:#0000ff;stroke:#000000;" x="316.60579519" xlink:href="#mcd0f383d34" y="136.766859863"/>
     <use style="fill:#0000ff;stroke:#000000;" x="322.384998563" xlink:href="#mcd0f383d34" y="110.306544922"/>
     <use style="fill:#0000ff;stroke:#000000;" x="328.176204336" xlink:href="#mcd0f383d34" y="114.665626953"/>
     <use style="fill:#0000ff;stroke:#000000;" x="333.967845679" xlink:href="#mcd0f383d34" y="95.0868183594"/>
     <use style="fill:#0000ff;stroke:#000000;" x="339.753969791" xlink:href="#mcd0f383d34" y="85.2279072266"/>
     <use style="fill:#0000ff;stroke:#000000;" x="345.547595402" xlink:href="#mcd0f383d34" y="105.88985791"/>
     <use style="fill:#0000ff;stroke:#000000;" x="351.367064887" xlink:href="#mcd0f383d34" y="135.861952637"/>
     <use style="fill:#0000ff;stroke:#000000;" x="350.37168854" xlink:href="#mcd0f383d34" y="140.199501465"/>
     <use style="fill:#0000ff;stroke:#000000;" x="348.695587438" xlink:href="#mcd0f383d34" y="135.001759766"/>
     <use style="fill:#0000ff;stroke:#000000;" x="345.18948351" xlink:href="#mcd0f383d34" y="139.174257324"/>
     <use style="fill:#0000ff;stroke:#000000;" x="340.356993532" xlink:href="#mcd0f383d34" y="130.486452148"/>
     <use style="fill:#0000ff;stroke:#000000;" x="334.471656044" xlink:href="#mcd0f383d34" y="118.365016602"/>
     <use style="fill:#0000ff;stroke:#000000;" x="333.583720524" xlink:href="#mcd0f383d34" y="113.76284375"/>
     <use style="fill:#0000ff;stroke:#000000;" x="334.964310954" xlink:href="#mcd0f383d34" y="116.238393066"/>
     <use style="fill:#0000ff;stroke:#000000;" x="336.887767942" xlink:href="#mcd0f383d34" y="119.769655273"/>
     <use style="fill:#0000ff;stroke:#000000;" x="339.435906225" xlink:href="#mcd0f383d34" y="123.241994141"/>
     <use style="fill:#0000ff;stroke:#000000;" x="341.908255168" xlink:href="#mcd0f383d34" y="126.616151855"/>
     <use style="fill:#0000ff;stroke:#000000;" x="346.322960037" xlink:href="#mcd0f383d34" y="126.929738281"/>
     <use style="fill:#0000ff;stroke:#000000;" x="350.855898213" xlink:href="#mcd0f383d34" y="129.111513184"/>
     <use style="fill:#0000ff;stroke:#000000;" x="355.653227938" xlink:href="#mcd0f383d34" y="126.774501465"/>
     <use style="fill:#0000ff;stroke:#000000;" x="354.636798996" xlink:href="#mcd0f383d34" y="127.389955566"/>
     <use style="fill:#0000ff;stroke:#000000;" x="353.241229766" xlink:href="#mcd0f383d34" y="128.68517041"/>
     <use style="fill:#0000ff;stroke:#000000;" x="357.804609509" xlink:href="#mcd0f383d34" y="127.985451172"/>
     <use style="fill:#0000ff;stroke:#000000;" x="356.721876994" xlink:href="#mcd0f383d34" y="128.92826123"/>
     <use style="fill:#0000ff;stroke:#000000;" x="356.858404279" xlink:href="#mcd0f383d34" y="126.264772461"/>
     <use style="fill:#0000ff;stroke:#000000;" x="355.816083066" xlink:href="#mcd0f383d34" y="127.131740234"/>
     <use style="fill:#0000ff;stroke:#000000;" x="348.721939479" xlink:href="#mcd0f383d34" y="128.580470703"/>
     <use style="fill:#0000ff;stroke:#000000;" x="349.015006113" xlink:href="#mcd0f383d34" y="125.714796875"/>
     <use style="fill:#0000ff;stroke:#000000;" x="353.807084789" xlink:href="#mcd0f383d34" y="128.379933594"/>
     <use style="fill:#0000ff;stroke:#000000;" x="358.35836534" xlink:href="#mcd0f383d34" y="126.182887695"/>
     <use style="fill:#0000ff;stroke:#000000;" x="357.256854878" xlink:href="#mcd0f383d34" y="127.055019043"/>
     <use style="fill:#0000ff;stroke:#000000;" x="351.256405675" xlink:href="#mcd0f383d34" y="131.947487305"/>
     <use style="fill:#0000ff;stroke:#000000;" x="346.823140645" xlink:href="#mcd0f383d34" y="123.984669922"/>
     <use style="fill:#0000ff;stroke:#000000;" x="346.133002719" xlink:href="#mcd0f383d34" y="124.40647168"/>
     <use style="fill:#0000ff;stroke:#000000;" x="345.270862677" xlink:href="#mcd0f383d34" y="125.848097656"/>
     <use style="fill:#0000ff;stroke:#000000;" x="347.129008225" xlink:href="#mcd0f383d34" y="125.216127441"/>
     <use style="fill:#0000ff;stroke:#000000;" x="349.606826003" xlink:href="#mcd0f383d34" y="131.299293945"/>
     <use style="fill:#0000ff;stroke:#000000;" x="353.900200172" xlink:href="#mcd0f383d34" y="125.879958008"/>
     <use style="fill:#0000ff;stroke:#000000;" x="359.662948645" xlink:href="#mcd0f383d34" y="113.332436035"/>
     <use style="fill:#0000ff;stroke:#000000;" x="358.10312078" xlink:href="#mcd0f383d34" y="125.486061523"/>
     <use style="fill:#0000ff;stroke:#000000;" x="351.053840998" xlink:href="#mcd0f383d34" y="123.923476074"/>
     <use style="fill:#0000ff;stroke:#000000;" x="344.582031464" xlink:href="#mcd0f383d34" y="126.830055664"/>
     <use style="fill:#0000ff;stroke:#000000;" x="344.103290625" xlink:href="#mcd0f383d34" y="128.559230469"/>
     <use style="fill:#0000ff;stroke:#000000;" x="348.562326935" xlink:href="#mcd0f383d34" y="124.562916992"/>
     <use style="fill:#0000ff;stroke:#000000;" x="354.320622904" xlink:href="#mcd0f383d34" y="112.939125488"/>
     <use style="fill:#0000ff;stroke:#000000;" x="353.298289556" xlink:href="#mcd0f383d34" y="123.852064941"/>
     <use style="fill:#0000ff;stroke:#000000;" x="351.93592051" xlink:href="#mcd0f383d34" y="133.365236328"/>
     <use style="fill:#0000ff;stroke:#000000;" x="357.752437792" xlink:href="#mcd0f383d34" y="130.355495117"/>
     <use style="fill:#0000ff;stroke:#000000;" x="363.605252652" xlink:href="#mcd0f383d34" y="127.294813965"/>
     <use style="fill:#0000ff;stroke:#000000;" x="369.149441315" xlink:href="#mcd0f383d34" y="151.525709961"/>
     <use style="fill:#0000ff;stroke:#000000;" x="375.024954259" xlink:href="#mcd0f383d34" y="148.107863281"/>
     <use style="fill:#0000ff;stroke:#000000;" x="378.128082491" xlink:href="#mcd0f383d34" y="141.79742627"/>
     <use style="fill:#0000ff;stroke:#000000;" x="374.549456004" xlink:href="#mcd0f383d34" y="150.078334473"/>
     <use style="fill:#0000ff;stroke:#000000;" x="374.881119062" xlink:href="#mcd0f383d34" y="145.776747559"/>
     <use style="fill:#0000ff;stroke:#000000;" x="369.324831206" xlink:href="#mcd0f383d34" y="143.163393066"/>
     <use style="fill:#0000ff;stroke:#000000;" x="369.96691114" xlink:href="#mcd0f383d34" y="136.771950195"/>
     <use style="fill:#0000ff;stroke:#000000;" x="372.777311515" xlink:href="#mcd0f383d34" y="133.110866211"/>
     <use style="fill:#0000ff;stroke:#000000;" x="371.323327384" xlink:href="#mcd0f383d34" y="142.79890332"/>
     <use style="fill:#0000ff;stroke:#000000;" x="376.0249283" xlink:href="#mcd0f383d34" y="147.665443848"/>
     <use style="fill:#0000ff;stroke:#000000;" x="381.860901084" xlink:href="#mcd0f383d34" y="142.445436523"/>
     <use style="fill:#0000ff;stroke:#000000;" x="387.271175888" xlink:href="#mcd0f383d34" y="142.000783203"/>
     <use style="fill:#0000ff;stroke:#000000;" x="392.721474819" xlink:href="#mcd0f383d34" y="132.918239258"/>
     <use style="fill:#0000ff;stroke:#000000;" x="398.456104769" xlink:href="#mcd0f383d34" y="107.516200684"/>
     <use style="fill:#0000ff;stroke:#000000;" x="404.656505223" xlink:href="#mcd0f383d34" y="88.3253925781"/>
     <use style="fill:#0000ff;stroke:#000000;" x="410.170058732" xlink:href="#mcd0f383d34" y="99.1607685547"/>
     <use style="fill:#0000ff;stroke:#000000;" x="415.079741556" xlink:href="#mcd0f383d34" y="113.829201172"/>
     <use style="fill:#0000ff;stroke:#000000;" x="420.508528124" xlink:href="#mcd0f383d34" y="113.058656738"/>
     <use style="fill:#0000ff;stroke:#000000;" x="426.07693937" xlink:href="#mcd0f383d34" y="93.1724140625"/>
     <use style="fill:#0000ff;stroke:#000000;" x="119.466695696" xlink:href="#mcd0f383d34" y="145.897230957"/>
     <use style="fill:#0000ff;stroke:#000000;" x="124.011733064" xlink:href="#mcd0f383d34" y="120.382179688"/>
     <use style="fill:#0000ff;stroke:#000000;" x="128.63050291" xlink:href="#mcd0f383d34" y="112.182570313"/>
     <use style="fill:#0000ff;stroke:#000000;" x="141.652331157" xlink:href="#mcd0f383d34" y="84.3823261719"/>
     <use style="fill:#0000ff;stroke:#000000;" x="147.158625151" xlink:href="#mcd0f383d34" y="62.9848408203"/>
     <use style="fill:#0000ff;stroke:#000000;" x="152.668548902" xlink:href="#mcd0f383d34" y="82.4018574219"/>
     <use style="fill:#0000ff;stroke:#000000;" x="161.687915959" xlink:href="#mcd0f383d34" y="117.57780957"/>
     <use style="fill:#0000ff;stroke:#000000;" x="167.852212423" xlink:href="#mcd0f383d34" y="164.173646973"/>
     <use style="fill:#0000ff;stroke:#000000;" x="172.727412549" xlink:href="#mcd0f383d34" y="175.991530273"/>
     <use style="fill:#0000ff;stroke:#000000;" x="170.374410038" xlink:href="#mcd0f383d34" y="173.723952148"/>
     <use style="fill:#0000ff;stroke:#000000;" x="166.811343113" xlink:href="#mcd0f383d34" y="115.251161621"/>
     <use style="fill:#0000ff;stroke:#000000;" x="170.903531914" xlink:href="#mcd0f383d34" y="118.315578125"/>
     <use style="fill:#0000ff;stroke:#000000;" x="174.666574289" xlink:href="#mcd0f383d34" y="137.158449219"/>
     <use style="fill:#0000ff;stroke:#000000;" x="177.971589642" xlink:href="#mcd0f383d34" y="150.750478027"/>
     <use style="fill:#0000ff;stroke:#000000;" x="181.465207204" xlink:href="#mcd0f383d34" y="152.639760254"/>
     <use style="fill:#0000ff;stroke:#000000;" x="184.698401752" xlink:href="#mcd0f383d34" y="168.697047852"/>
     <use style="fill:#0000ff;stroke:#000000;" x="186.705899729" xlink:href="#mcd0f383d34" y="189.253529785"/>
     <use style="fill:#0000ff;stroke:#000000;" x="187.083491321" xlink:href="#mcd0f383d34" y="192.021681641"/>
     <use style="fill:#0000ff;stroke:#000000;" x="188.106865199" xlink:href="#mcd0f383d34" y="198.11004834"/>
     <use style="fill:#0000ff;stroke:#000000;" x="187.575638065" xlink:href="#mcd0f383d34" y="198.940651367"/>
     <use style="fill:#0000ff;stroke:#000000;" x="184.96535833" xlink:href="#mcd0f383d34" y="199.369557617"/>
     <use style="fill:#0000ff;stroke:#000000;" x="180.253327911" xlink:href="#mcd0f383d34" y="185.624306152"/>
     <use style="fill:#0000ff;stroke:#000000;" x="176.910538879" xlink:href="#mcd0f383d34" y="180.216908691"/>
     <use style="fill:#0000ff;stroke:#000000;" x="175.261273786" xlink:href="#mcd0f383d34" y="184.671791504"/>
     <use style="fill:#0000ff;stroke:#000000;" x="174.237488535" xlink:href="#mcd0f383d34" y="187.961427734"/>
     <use style="fill:#0000ff;stroke:#000000;" x="169.607950408" xlink:href="#mcd0f383d34" y="177.482008789"/>
     <use style="fill:#0000ff;stroke:#000000;" x="164.673657827" xlink:href="#mcd0f383d34" y="159.92669873"/>
     <use style="fill:#0000ff;stroke:#000000;" x="160.512552027" xlink:href="#mcd0f383d34" y="147.99232373"/>
     <use style="fill:#0000ff;stroke:#000000;" x="161.141613231" xlink:href="#mcd0f383d34" y="160.701051758"/>
     <use style="fill:#0000ff;stroke:#000000;" x="162.524212127" xlink:href="#mcd0f383d34" y="176.193935059"/>
     <use style="fill:#0000ff;stroke:#000000;" x="164.475957026" xlink:href="#mcd0f383d34" y="179.132118652"/>
     <use style="fill:#0000ff;stroke:#000000;" x="160.183163618" xlink:href="#mcd0f383d34" y="166.722841309"/>
     <use style="fill:#0000ff;stroke:#000000;" x="154.528243147" xlink:href="#mcd0f383d34" y="171.794643066"/>
     <use style="fill:#0000ff;stroke:#000000;" x="148.609802269" xlink:href="#mcd0f383d34" y="164.724391602"/>
     <use style="fill:#0000ff;stroke:#000000;" x="152.94448308" xlink:href="#mcd0f383d34" y="176.861867188"/>
     <use style="fill:#0000ff;stroke:#000000;" x="149.597144753" xlink:href="#mcd0f383d34" y="196.2651875"/>
     <use style="fill:#0000ff;stroke:#000000;" x="150.689363035" xlink:href="#mcd0f383d34" y="203.001967285"/>
     <use style="fill:#0000ff;stroke:#000000;" x="149.843919878" xlink:href="#mcd0f383d34" y="196.267128418"/>
     <use style="fill:#0000ff;stroke:#000000;" x="145.955675061" xlink:href="#mcd0f383d34" y="194.179469727"/>
     <use style="fill:#0000ff;stroke:#000000;" x="140.820632683" xlink:href="#mcd0f383d34" y="193.686256836"/>
     <use style="fill:#0000ff;stroke:#000000;" x="135.674676833" xlink:href="#mcd0f383d34" y="187.762172363"/>
     <use style="fill:#0000ff;stroke:#000000;" x="130.480566197" xlink:href="#mcd0f383d34" y="178.698488281"/>
     <use style="fill:#0000ff;stroke:#000000;" x="125.282850003" xlink:href="#mcd0f383d34" y="170.511806152"/>
     <use style="fill:#0000ff;stroke:#000000;" x="119.993712312" xlink:href="#mcd0f383d34" y="177.149196289"/>
     <use style="fill:#0000ff;stroke:#000000;" x="114.262954104" xlink:href="#mcd0f383d34" y="215.771046875"/>
     <use style="fill:#0000ff;stroke:#000000;" x="427.07243671" xlink:href="#mcd0f383d34" y="344.993849609"/>
     <use style="fill:#0000ff;stroke:#000000;" x="420.91585953" xlink:href="#mcd0f383d34" y="336.371156738"/>
     <use style="fill:#0000ff;stroke:#000000;" x="414.694769457" xlink:href="#mcd0f383d34" y="306.31062207"/>
     <use style="fill:#0000ff;stroke:#000000;" x="408.356994774" xlink:href="#mcd0f383d34" y="281.131679199"/>
     <use style="fill:#0000ff;stroke:#000000;" x="402.470374772" xlink:href="#mcd0f383d34" y="265.384499023"/>
     <use style="fill:#0000ff;stroke:#000000;" x="397.118272884" xlink:href="#mcd0f383d34" y="250.395119141"/>
     <use style="fill:#0000ff;stroke:#000000;" x="391.970961924" xlink:href="#mcd0f383d34" y="234.969362305"/>
     <use style="fill:#0000ff;stroke:#000000;" x="387.009446161" xlink:href="#mcd0f383d34" y="219.227602051"/>
     <use style="fill:#0000ff;stroke:#000000;" x="382.131729403" xlink:href="#mcd0f383d34" y="203.799757813"/>
     <use style="fill:#0000ff;stroke:#000000;" x="381.941191323" xlink:href="#mcd0f383d34" y="194.769325684"/>
     <use style="fill:#0000ff;stroke:#000000;" x="386.504329083" xlink:href="#mcd0f383d34" y="191.310976074"/>
     <use style="fill:#0000ff;stroke:#000000;" x="392.833585935" xlink:href="#mcd0f383d34" y="193.224281738"/>
     <use style="fill:#0000ff;stroke:#000000;" x="398.23439917" xlink:href="#mcd0f383d34" y="195.716603516"/>
     <use style="fill:#0000ff;stroke:#000000;" x="410.27793513" xlink:href="#mcd0f383d34" y="208.026051758"/>
     <use style="fill:#0000ff;stroke:#000000;" x="111.843744813" xlink:href="#mcd0f383d34" y="105.603480957"/>
     <use style="fill:#0000ff;stroke:#000000;" x="117.151273276" xlink:href="#mcd0f383d34" y="102.431911133"/>
     <use style="fill:#0000ff;stroke:#000000;" x="123.200772605" xlink:href="#mcd0f383d34" y="99.1168964844"/>
     <use style="fill:#0000ff;stroke:#000000;" x="129.159189214" xlink:href="#mcd0f383d34" y="91.6371845703"/>
     <use style="fill:#0000ff;stroke:#000000;" x="133.66875175" xlink:href="#mcd0f383d34" y="108.134364746"/>
     <use style="fill:#0000ff;stroke:#000000;" x="128.079118521" xlink:href="#mcd0f383d34" y="124.245888184"/>
     <use style="fill:#0000ff;stroke:#000000;" x="122.670416612" xlink:href="#mcd0f383d34" y="147.322267578"/>
     <use style="fill:#0000ff;stroke:#000000;" x="117.447219519" xlink:href="#mcd0f383d34" y="162.063209961"/>
     <use style="fill:#0000ff;stroke:#000000;" x="112.390604104" xlink:href="#mcd0f383d34" y="153.450880859"/>
     <use style="fill:#0000ff;stroke:#000000;" x="426.10585644" xlink:href="#mcd0f383d34" y="263.545424316"/>
     <use style="fill:#0000ff;stroke:#000000;" x="420.721231923" xlink:href="#mcd0f383d34" y="247.420973633"/>
     <use style="fill:#0000ff;stroke:#000000;" x="415.356643669" xlink:href="#mcd0f383d34" y="235.078419922"/>
     <use style="fill:#0000ff;stroke:#000000;" x="410.23764482" xlink:href="#mcd0f383d34" y="226.916566895"/>
     <use style="fill:#0000ff;stroke:#000000;" x="405.118839557" xlink:href="#mcd0f383d34" y="212.676747559"/>
     <use style="fill:#0000ff;stroke:#000000;" x="400.963250989" xlink:href="#mcd0f383d34" y="199.055897949"/>
     <use style="fill:#0000ff;stroke:#000000;" x="403.105606563" xlink:href="#mcd0f383d34" y="192.593300293"/>
     <use style="fill:#0000ff;stroke:#000000;" x="406.061753807" xlink:href="#mcd0f383d34" y="187.957436035"/>
     <use style="fill:#0000ff;stroke:#000000;" x="400.512435086" xlink:href="#mcd0f383d34" y="181.377467773"/>
     <use style="fill:#0000ff;stroke:#000000;" x="394.576837553" xlink:href="#mcd0f383d34" y="159.609193848"/>
     <use style="fill:#0000ff;stroke:#000000;" x="398.159868146" xlink:href="#mcd0f383d34" y="170.161562012"/>
     <use style="fill:#0000ff;stroke:#000000;" x="404.578392838" xlink:href="#mcd0f383d34" y="188.001088379"/>
     <use style="fill:#0000ff;stroke:#000000;" x="405.975849542" xlink:href="#mcd0f383d34" y="192.01497998"/>
     <use style="fill:#0000ff;stroke:#000000;" x="416.787494144" xlink:href="#mcd0f383d34" y="211.063917969"/>
     <use style="fill:#0000ff;stroke:#000000;" x="428.738495482" xlink:href="#mcd0f383d34" y="234.915895508"/>
     <use style="fill:#0000ff;stroke:#000000;" x="115.355027196" xlink:href="#mcd0f383d34" y="57.1891132813"/>
     <use style="fill:#0000ff;stroke:#000000;" x="119.497113065" xlink:href="#mcd0f383d34" y="60.0912617188"/>
     <use style="fill:#0000ff;stroke:#000000;" x="125.364011384" xlink:href="#mcd0f383d34" y="75.5329853516"/>
     <use style="fill:#0000ff;stroke:#000000;" x="131.565428171" xlink:href="#mcd0f383d34" y="95.2442890625"/>
     <use style="fill:#0000ff;stroke:#000000;" x="136.16917082" xlink:href="#mcd0f383d34" y="113.620644043"/>
     <use style="fill:#0000ff;stroke:#000000;" x="134.407092858" xlink:href="#mcd0f383d34" y="124.821461914"/>
     <use style="fill:#0000ff;stroke:#000000;" x="136.910222146" xlink:href="#mcd0f383d34" y="132.025636719"/>
     <use style="fill:#0000ff;stroke:#000000;" x="134.660014373" xlink:href="#mcd0f383d34" y="151.656190918"/>
     <use style="fill:#0000ff;stroke:#000000;" x="135.126220448" xlink:href="#mcd0f383d34" y="160.246840332"/>
     <use style="fill:#0000ff;stroke:#000000;" x="130.410536073" xlink:href="#mcd0f383d34" y="159.443849609"/>
     <use style="fill:#0000ff;stroke:#000000;" x="125.311525088" xlink:href="#mcd0f383d34" y="156.696608398"/>
     <use style="fill:#0000ff;stroke:#000000;" x="120.141516044" xlink:href="#mcd0f383d34" y="148.02747998"/>
     <use style="fill:#0000ff;stroke:#000000;" x="115.012474865" xlink:href="#mcd0f383d34" y="140.770131348"/>
     <use style="fill:#0000ff;stroke:#000000;" x="428.836668328" xlink:href="#mcd0f383d34" y="251.576479004"/>
     <use style="fill:#0000ff;stroke:#000000;" x="423.788667538" xlink:href="#mcd0f383d34" y="239.816786621"/>
     <use style="fill:#0000ff;stroke:#000000;" x="418.977641527" xlink:href="#mcd0f383d34" y="229.455543945"/>
     <use style="fill:#0000ff;stroke:#000000;" x="420.183592217" xlink:href="#mcd0f383d34" y="225.096864746"/>
     <use style="fill:#0000ff;stroke:#000000;" x="421.693619806" xlink:href="#mcd0f383d34" y="220.496120117"/>
     <use style="fill:#0000ff;stroke:#000000;" x="419.581536411" xlink:href="#mcd0f383d34" y="216.998439453"/>
     <use style="fill:#0000ff;stroke:#000000;" x="413.633525107" xlink:href="#mcd0f383d34" y="220.49319043"/>
     <use style="fill:#0000ff;stroke:#000000;" x="407.699016501" xlink:href="#mcd0f383d34" y="200.56095166"/>
     <use style="fill:#0000ff;stroke:#000000;" x="404.135610799" xlink:href="#mcd0f383d34" y="189.119350098"/>
     <use style="fill:#0000ff;stroke:#000000;" x="415.014381719" xlink:href="#mcd0f383d34" y="212.423292969"/>
     <use style="fill:#0000ff;stroke:#000000;" x="427.771673228" xlink:href="#mcd0f383d34" y="237.764320801"/>
     <use style="fill:#0000ff;stroke:#000000;" x="115.11350312" xlink:href="#mcd0f383d34" y="43.4865253906"/>
     <use style="fill:#0000ff;stroke:#000000;" x="120.64801243" xlink:href="#mcd0f383d34" y="45.8522480469"/>
     <use style="fill:#0000ff;stroke:#000000;" x="126.313410801" xlink:href="#mcd0f383d34" y="58.7061787109"/>
     <use style="fill:#0000ff;stroke:#000000;" x="131.643637349" xlink:href="#mcd0f383d34" y="75.4457539063"/>
     <use style="fill:#0000ff;stroke:#000000;" x="134.311315652" xlink:href="#mcd0f383d34" y="91.8145771484"/>
     <use style="fill:#0000ff;stroke:#000000;" x="134.162931158" xlink:href="#mcd0f383d34" y="109.504542969"/>
     <use style="fill:#0000ff;stroke:#000000;" x="135.573503387" xlink:href="#mcd0f383d34" y="131.66473584"/>
     <use style="fill:#0000ff;stroke:#000000;" x="135.594023617" xlink:href="#mcd0f383d34" y="150.01695752"/>
     <use style="fill:#0000ff;stroke:#000000;" x="136.032159567" xlink:href="#mcd0f383d34" y="158.994582031"/>
     <use style="fill:#0000ff;stroke:#000000;" x="138.492312524" xlink:href="#mcd0f383d34" y="151.541969727"/>
     <use style="fill:#0000ff;stroke:#000000;" x="136.049437213" xlink:href="#mcd0f383d34" y="141.998292969"/>
     <use style="fill:#0000ff;stroke:#000000;" x="130.739924482" xlink:href="#mcd0f383d34" y="143.77188916"/>
     <use style="fill:#0000ff;stroke:#000000;" x="125.404858257" xlink:href="#mcd0f383d34" y="156.896742676"/>
     <use style="fill:#0000ff;stroke:#000000;" x="120.231340447" xlink:href="#mcd0f383d34" y="148.394313477"/>
    </g>
   </g>
   <g id="patch_3">
    <path d="M 493.2975 368.74175 
L 493.2975 23.14175 
" style="fill:none;stroke:#000000;stroke-linecap:square;stroke-linejoin:miter;"/>
   </g>
   <g id="patch_4">
    <path d="M 46.8975 368.74175 
L 46.8975 23.14175 
" style="fill:none;stroke:#000000;stroke-linecap:square;stroke-linejoin:miter;"/>
   </g>
   <g id="patch_5">
    <path d="M 46.8975 368.74175 
L 493.2975 368.74175 
" style="fill:none;stroke:#000000;stroke-linecap:square;stroke-linejoin:miter;"/>
   </g>
   <g id="patch_6">
    <path d="M 46.8975 23.14175 
L 493.2975 23.14175 
" style="fill:none;stroke:#000000;stroke-linecap:square;stroke-linejoin:miter;"/>
   </g>
   <g id="matplotlib.axis_1">
    <g id="xtick_1">
     <g id="line2d_1">
      <defs>
       <path d="M 0 0 
L 0 -4 
" id="mb25d3174da" style="stroke:#000000;stroke-width:0.5;"/>
      </defs>
      <g>
       <use style="stroke:#000000;stroke-width:0.5;" x="46.8975" xlink:href="#mb25d3174da" y="368.74175"/>
      </g>
     </g>
     <g id="line2d_2">
      <defs>
       <path d="M 0 0 
L 0 4 
" id="m811cec6a37" style="stroke:#000000;stroke-width:0.5;"/>
      </defs>
      <g>
       <use style="stroke:#000000;stroke-width:0.5;" x="46.8975" xlink:href="#m811cec6a37" y="23.14175"/>
      </g>
     </g>
     <g id="text_1">
      <!-- −0.2 -->
      <defs>
       <path d="M 10.59375 35.5 
L 73.1875 35.5 
L 73.1875 27.203125 
L 10.59375 27.203125 
z
" id="BitstreamVeraSans-Roman-2212"/>
       <path d="M 10.6875 12.40625 
L 21 12.40625 
L 21 0 
L 10.6875 0 
z
" id="BitstreamVeraSans-Roman-2e"/>
       <path d="M 31.78125 66.40625 
Q 24.171875 66.40625 20.328125 58.90625 
Q 16.5 51.421875 16.5 36.375 
Q 16.5 21.390625 20.328125 13.890625 
Q 24.171875 6.390625 31.78125 6.390625 
Q 39.453125 6.390625 43.28125 13.890625 
Q 47.125 21.390625 47.125 36.375 
Q 47.125 51.421875 43.28125 58.90625 
Q 39.453125 66.40625 31.78125 66.40625 
M 31.78125 74.21875 
Q 44.046875 74.21875 50.515625 64.515625 
Q 56.984375 54.828125 56.984375 36.375 
Q 56.984375 17.96875 50.515625 8.265625 
Q 44.046875 -1.421875 31.78125 -1.421875 
Q 19.53125 -1.421875 13.0625 8.265625 
Q 6.59375 17.96875 6.59375 36.375 
Q 6.59375 54.828125 13.0625 64.515625 
Q 19.53125 74.21875 31.78125 74.21875 
" id="BitstreamVeraSans-Roman-30"/>
       <path d="M 19.1875 8.296875 
L 53.609375 8.296875 
L 53.609375 0 
L 7.328125 0 
L 7.328125 8.296875 
Q 12.9375 14.109375 22.625 23.890625 
Q 32.328125 33.6875 34.8125 36.53125 
Q 39.546875 41.84375 41.421875 45.53125 
Q 43.3125 49.21875 43.3125 52.78125 
Q 43.3125 58.59375 39.234375 62.25 
Q 35.15625 65.921875 28.609375 65.921875 
Q 23.96875 65.921875 18.8125 64.3125 
Q 13.671875 62.703125 7.8125 59.421875 
L 7.8125 69.390625 
Q 13.765625 71.78125 18.9375 73 
Q 24.125 74.21875 28.421875 74.21875 
Q 39.75 74.21875 46.484375 68.546875 
Q 53.21875 62.890625 53.21875 53.421875 
Q 53.21875 48.921875 51.53125 44.890625 
Q 49.859375 40.875 45.40625 35.40625 
Q 44.1875 33.984375 37.640625 27.21875 
Q 31.109375 20.453125 19.1875 8.296875 
" id="BitstreamVeraSans-Roman-32"/>
      </defs>
      <g transform="translate(32.3278125 381.859875)scale(0.12 -0.12)">
       <use xlink:href="#BitstreamVeraSans-Roman-2212"/>
       <use x="83.7890625" xlink:href="#BitstreamVeraSans-Roman-30"/>
       <use x="147.412109375" xlink:href="#BitstreamVeraSans-Roman-2e"/>
       <use x="179.19921875" xlink:href="#BitstreamVeraSans-Roman-32"/>
      </g>
     </g>
    </g>
    <g id="xtick_2">
     <g id="line2d_3">
      <g>
       <use style="stroke:#000000;stroke-width:0.5;" x="110.668928571" xlink:href="#mb25d3174da" y="368.74175"/>
      </g>
     </g>
     <g id="line2d_4">
      <g>
       <use style="stroke:#000000;stroke-width:0.5;" x="110.668928571" xlink:href="#m811cec6a37" y="23.14175"/>
      </g>
     </g>
     <g id="text_2">
      <!-- 0.0 -->
      <g transform="translate(101.127053571 381.859875)scale(0.12 -0.12)">
       <use xlink:href="#BitstreamVeraSans-Roman-30"/>
       <use x="63.623046875" xlink:href="#BitstreamVeraSans-Roman-2e"/>
       <use x="95.41015625" xlink:href="#BitstreamVeraSans-Roman-30"/>
      </g>
     </g>
    </g>
    <g id="xtick_3">
     <g id="line2d_5">
      <g>
       <use style="stroke:#000000;stroke-width:0.5;" x="174.440357143" xlink:href="#mb25d3174da" y="368.74175"/>
      </g>
     </g>
     <g id="line2d_6">
      <g>
       <use style="stroke:#000000;stroke-width:0.5;" x="174.440357143" xlink:href="#m811cec6a37" y="23.14175"/>
      </g>
     </g>
     <g id="text_3">
      <!-- 0.2 -->
      <g transform="translate(164.898482143 381.859875)scale(0.12 -0.12)">
       <use xlink:href="#BitstreamVeraSans-Roman-30"/>
       <use x="63.623046875" xlink:href="#BitstreamVeraSans-Roman-2e"/>
       <use x="95.41015625" xlink:href="#BitstreamVeraSans-Roman-32"/>
      </g>
     </g>
    </g>
    <g id="xtick_4">
     <g id="line2d_7">
      <g>
       <use style="stroke:#000000;stroke-width:0.5;" x="238.211785714" xlink:href="#mb25d3174da" y="368.74175"/>
      </g>
     </g>
     <g id="line2d_8">
      <g>
       <use style="stroke:#000000;stroke-width:0.5;" x="238.211785714" xlink:href="#m811cec6a37" y="23.14175"/>
      </g>
     </g>
     <g id="text_4">
      <!-- 0.4 -->
      <defs>
       <path d="M 37.796875 64.3125 
L 12.890625 25.390625 
L 37.796875 25.390625 
z
M 35.203125 72.90625 
L 47.609375 72.90625 
L 47.609375 25.390625 
L 58.015625 25.390625 
L 58.015625 17.1875 
L 47.609375 17.1875 
L 47.609375 0 
L 37.796875 0 
L 37.796875 17.1875 
L 4.890625 17.1875 
L 4.890625 26.703125 
z
" id="BitstreamVeraSans-Roman-34"/>
      </defs>
      <g transform="translate(228.669910714 381.859875)scale(0.12 -0.12)">
       <use xlink:href="#BitstreamVeraSans-Roman-30"/>
       <use x="63.623046875" xlink:href="#BitstreamVeraSans-Roman-2e"/>
       <use x="95.41015625" xlink:href="#BitstreamVeraSans-Roman-34"/>
      </g>
     </g>
    </g>
    <g id="xtick_5">
     <g id="line2d_9">
      <g>
       <use style="stroke:#000000;stroke-width:0.5;" x="301.983214286" xlink:href="#mb25d3174da" y="368.74175"/>
      </g>
     </g>
     <g id="line2d_10">
      <g>
       <use style="stroke:#000000;stroke-width:0.5;" x="301.983214286" xlink:href="#m811cec6a37" y="23.14175"/>
      </g>
     </g>
     <g id="text_5">
      <!-- 0.6 -->
      <defs>
       <path d="M 33.015625 40.375 
Q 26.375 40.375 22.484375 35.828125 
Q 18.609375 31.296875 18.609375 23.390625 
Q 18.609375 15.53125 22.484375 10.953125 
Q 26.375 6.390625 33.015625 6.390625 
Q 39.65625 6.390625 43.53125 10.953125 
Q 47.40625 15.53125 47.40625 23.390625 
Q 47.40625 31.296875 43.53125 35.828125 
Q 39.65625 40.375 33.015625 40.375 
M 52.59375 71.296875 
L 52.59375 62.3125 
Q 48.875 64.0625 45.09375 64.984375 
Q 41.3125 65.921875 37.59375 65.921875 
Q 27.828125 65.921875 22.671875 59.328125 
Q 17.53125 52.734375 16.796875 39.40625 
Q 19.671875 43.65625 24.015625 45.921875 
Q 28.375 48.1875 33.59375 48.1875 
Q 44.578125 48.1875 50.953125 41.515625 
Q 57.328125 34.859375 57.328125 23.390625 
Q 57.328125 12.15625 50.6875 5.359375 
Q 44.046875 -1.421875 33.015625 -1.421875 
Q 20.359375 -1.421875 13.671875 8.265625 
Q 6.984375 17.96875 6.984375 36.375 
Q 6.984375 53.65625 15.1875 63.9375 
Q 23.390625 74.21875 37.203125 74.21875 
Q 40.921875 74.21875 44.703125 73.484375 
Q 48.484375 72.75 52.59375 71.296875 
" id="BitstreamVeraSans-Roman-36"/>
      </defs>
      <g transform="translate(292.441339286 381.859875)scale(0.12 -0.12)">
       <use xlink:href="#BitstreamVeraSans-Roman-30"/>
       <use x="63.623046875" xlink:href="#BitstreamVeraSans-Roman-2e"/>
       <use x="95.41015625" xlink:href="#BitstreamVeraSans-Roman-36"/>
      </g>
     </g>
    </g>
    <g id="xtick_6">
     <g id="line2d_11">
      <g>
       <use style="stroke:#000000;stroke-width:0.5;" x="365.754642857" xlink:href="#mb25d3174da" y="368.74175"/>
      </g>
     </g>
     <g id="line2d_12">
      <g>
       <use style="stroke:#000000;stroke-width:0.5;" x="365.754642857" xlink:href="#m811cec6a37" y="23.14175"/>
      </g>
     </g>
     <g id="text_6">
      <!-- 0.8 -->
      <defs>
       <path d="M 31.78125 34.625 
Q 24.75 34.625 20.71875 30.859375 
Q 16.703125 27.09375 16.703125 20.515625 
Q 16.703125 13.921875 20.71875 10.15625 
Q 24.75 6.390625 31.78125 6.390625 
Q 38.8125 6.390625 42.859375 10.171875 
Q 46.921875 13.96875 46.921875 20.515625 
Q 46.921875 27.09375 42.890625 30.859375 
Q 38.875 34.625 31.78125 34.625 
M 21.921875 38.8125 
Q 15.578125 40.375 12.03125 44.71875 
Q 8.5 49.078125 8.5 55.328125 
Q 8.5 64.0625 14.71875 69.140625 
Q 20.953125 74.21875 31.78125 74.21875 
Q 42.671875 74.21875 48.875 69.140625 
Q 55.078125 64.0625 55.078125 55.328125 
Q 55.078125 49.078125 51.53125 44.71875 
Q 48 40.375 41.703125 38.8125 
Q 48.828125 37.15625 52.796875 32.3125 
Q 56.78125 27.484375 56.78125 20.515625 
Q 56.78125 9.90625 50.3125 4.234375 
Q 43.84375 -1.421875 31.78125 -1.421875 
Q 19.734375 -1.421875 13.25 4.234375 
Q 6.78125 9.90625 6.78125 20.515625 
Q 6.78125 27.484375 10.78125 32.3125 
Q 14.796875 37.15625 21.921875 38.8125 
M 18.3125 54.390625 
Q 18.3125 48.734375 21.84375 45.5625 
Q 25.390625 42.390625 31.78125 42.390625 
Q 38.140625 42.390625 41.71875 45.5625 
Q 45.3125 48.734375 45.3125 54.390625 
Q 45.3125 60.0625 41.71875 63.234375 
Q 38.140625 66.40625 31.78125 66.40625 
Q 25.390625 66.40625 21.84375 63.234375 
Q 18.3125 60.0625 18.3125 54.390625 
" id="BitstreamVeraSans-Roman-38"/>
      </defs>
      <g transform="translate(356.212767857 381.859875)scale(0.12 -0.12)">
       <use xlink:href="#BitstreamVeraSans-Roman-30"/>
       <use x="63.623046875" xlink:href="#BitstreamVeraSans-Roman-2e"/>
       <use x="95.41015625" xlink:href="#BitstreamVeraSans-Roman-38"/>
      </g>
     </g>
    </g>
    <g id="xtick_7">
     <g id="line2d_13">
      <g>
       <use style="stroke:#000000;stroke-width:0.5;" x="429.526071429" xlink:href="#mb25d3174da" y="368.74175"/>
      </g>
     </g>
     <g id="line2d_14">
      <g>
       <use style="stroke:#000000;stroke-width:0.5;" x="429.526071429" xlink:href="#m811cec6a37" y="23.14175"/>
      </g>
     </g>
     <g id="text_7">
      <!-- 1.0 -->
      <defs>
       <path d="M 12.40625 8.296875 
L 28.515625 8.296875 
L 28.515625 63.921875 
L 10.984375 60.40625 
L 10.984375 69.390625 
L 28.421875 72.90625 
L 38.28125 72.90625 
L 38.28125 8.296875 
L 54.390625 8.296875 
L 54.390625 0 
L 12.40625 0 
z
" id="BitstreamVeraSans-Roman-31"/>
      </defs>
      <g transform="translate(419.984196429 381.859875)scale(0.12 -0.12)">
       <use xlink:href="#BitstreamVeraSans-Roman-31"/>
       <use x="63.623046875" xlink:href="#BitstreamVeraSans-Roman-2e"/>
       <use x="95.41015625" xlink:href="#BitstreamVeraSans-Roman-30"/>
      </g>
     </g>
    </g>
    <g id="xtick_8">
     <g id="line2d_15">
      <g>
       <use style="stroke:#000000;stroke-width:0.5;" x="493.2975" xlink:href="#mb25d3174da" y="368.74175"/>
      </g>
     </g>
     <g id="line2d_16">
      <g>
       <use style="stroke:#000000;stroke-width:0.5;" x="493.2975" xlink:href="#m811cec6a37" y="23.14175"/>
      </g>
     </g>
     <g id="text_8">
      <!-- 1.2 -->
      <g transform="translate(483.755625 381.859875)scale(0.12 -0.12)">
       <use xlink:href="#BitstreamVeraSans-Roman-31"/>
       <use x="63.623046875" xlink:href="#BitstreamVeraSans-Roman-2e"/>
       <use x="95.41015625" xlink:href="#BitstreamVeraSans-Roman-32"/>
      </g>
     </g>
    </g>
    <g id="text_9">
     <!-- normalized angle -->
     <defs>
      <path d="M 45.40625 46.390625 
L 45.40625 75.984375 
L 54.390625 75.984375 
L 54.390625 0 
L 45.40625 0 
L 45.40625 8.203125 
Q 42.578125 3.328125 38.25 0.953125 
Q 33.9375 -1.421875 27.875 -1.421875 
Q 17.96875 -1.421875 11.734375 6.484375 
Q 5.515625 14.40625 5.515625 27.296875 
Q 5.515625 40.1875 11.734375 48.09375 
Q 17.96875 56 27.875 56 
Q 33.9375 56 38.25 53.625 
Q 42.578125 51.265625 45.40625 46.390625 
M 14.796875 27.296875 
Q 14.796875 17.390625 18.875 11.75 
Q 22.953125 6.109375 30.078125 6.109375 
Q 37.203125 6.109375 41.296875 11.75 
Q 45.40625 17.390625 45.40625 27.296875 
Q 45.40625 37.203125 41.296875 42.84375 
Q 37.203125 48.484375 30.078125 48.484375 
Q 22.953125 48.484375 18.875 42.84375 
Q 14.796875 37.203125 14.796875 27.296875 
" id="BitstreamVeraSans-Roman-64"/>
      <path id="BitstreamVeraSans-Roman-20"/>
      <path d="M 52 44.1875 
Q 55.375 50.25 60.0625 53.125 
Q 64.75 56 71.09375 56 
Q 79.640625 56 84.28125 50.015625 
Q 88.921875 44.046875 88.921875 33.015625 
L 88.921875 0 
L 79.890625 0 
L 79.890625 32.71875 
Q 79.890625 40.578125 77.09375 44.375 
Q 74.3125 48.1875 68.609375 48.1875 
Q 61.625 48.1875 57.5625 43.546875 
Q 53.515625 38.921875 53.515625 30.90625 
L 53.515625 0 
L 44.484375 0 
L 44.484375 32.71875 
Q 44.484375 40.625 41.703125 44.40625 
Q 38.921875 48.1875 33.109375 48.1875 
Q 26.21875 48.1875 22.15625 43.53125 
Q 18.109375 38.875 18.109375 30.90625 
L 18.109375 0 
L 9.078125 0 
L 9.078125 54.6875 
L 18.109375 54.6875 
L 18.109375 46.1875 
Q 21.1875 51.21875 25.484375 53.609375 
Q 29.78125 56 35.6875 56 
Q 41.65625 56 45.828125 52.96875 
Q 50 49.953125 52 44.1875 
" id="BitstreamVeraSans-Roman-6d"/>
      <path d="M 56.203125 29.59375 
L 56.203125 25.203125 
L 14.890625 25.203125 
Q 15.484375 15.921875 20.484375 11.0625 
Q 25.484375 6.203125 34.421875 6.203125 
Q 39.59375 6.203125 44.453125 7.46875 
Q 49.3125 8.734375 54.109375 11.28125 
L 54.109375 2.78125 
Q 49.265625 0.734375 44.1875 -0.34375 
Q 39.109375 -1.421875 33.890625 -1.421875 
Q 20.796875 -1.421875 13.15625 6.1875 
Q 5.515625 13.8125 5.515625 26.8125 
Q 5.515625 40.234375 12.765625 48.109375 
Q 20.015625 56 32.328125 56 
Q 43.359375 56 49.78125 48.890625 
Q 56.203125 41.796875 56.203125 29.59375 
M 47.21875 32.234375 
Q 47.125 39.59375 43.09375 43.984375 
Q 39.0625 48.390625 32.421875 48.390625 
Q 24.90625 48.390625 20.390625 44.140625 
Q 15.875 39.890625 15.1875 32.171875 
z
" id="BitstreamVeraSans-Roman-65"/>
      <path d="M 5.515625 54.6875 
L 48.1875 54.6875 
L 48.1875 46.484375 
L 14.40625 7.171875 
L 48.1875 7.171875 
L 48.1875 0 
L 4.296875 0 
L 4.296875 8.203125 
L 38.09375 47.515625 
L 5.515625 47.515625 
z
" id="BitstreamVeraSans-Roman-7a"/>
      <path d="M 45.40625 27.984375 
Q 45.40625 37.75 41.375 43.109375 
Q 37.359375 48.484375 30.078125 48.484375 
Q 22.859375 48.484375 18.828125 43.109375 
Q 14.796875 37.75 14.796875 27.984375 
Q 14.796875 18.265625 18.828125 12.890625 
Q 22.859375 7.515625 30.078125 7.515625 
Q 37.359375 7.515625 41.375 12.890625 
Q 45.40625 18.265625 45.40625 27.984375 
M 54.390625 6.78125 
Q 54.390625 -7.171875 48.1875 -13.984375 
Q 42 -20.796875 29.203125 -20.796875 
Q 24.46875 -20.796875 20.265625 -20.09375 
Q 16.0625 -19.390625 12.109375 -17.921875 
L 12.109375 -9.1875 
Q 16.0625 -11.328125 19.921875 -12.34375 
Q 23.78125 -13.375 27.78125 -13.375 
Q 36.625 -13.375 41.015625 -8.765625 
Q 45.40625 -4.15625 45.40625 5.171875 
L 45.40625 9.625 
Q 42.625 4.78125 38.28125 2.390625 
Q 33.9375 0 27.875 0 
Q 17.828125 0 11.671875 7.65625 
Q 5.515625 15.328125 5.515625 27.984375 
Q 5.515625 40.671875 11.671875 48.328125 
Q 17.828125 56 27.875 56 
Q 33.9375 56 38.28125 53.609375 
Q 42.625 51.21875 45.40625 46.390625 
L 45.40625 54.6875 
L 54.390625 54.6875 
z
" id="BitstreamVeraSans-Roman-67"/>
      <path d="M 34.28125 27.484375 
Q 23.390625 27.484375 19.1875 25 
Q 14.984375 22.515625 14.984375 16.5 
Q 14.984375 11.71875 18.140625 8.90625 
Q 21.296875 6.109375 26.703125 6.109375 
Q 34.1875 6.109375 38.703125 11.40625 
Q 43.21875 16.703125 43.21875 25.484375 
L 43.21875 27.484375 
z
M 52.203125 31.203125 
L 52.203125 0 
L 43.21875 0 
L 43.21875 8.296875 
Q 40.140625 3.328125 35.546875 0.953125 
Q 30.953125 -1.421875 24.3125 -1.421875 
Q 15.921875 -1.421875 10.953125 3.296875 
Q 6 8.015625 6 15.921875 
Q 6 25.140625 12.171875 29.828125 
Q 18.359375 34.515625 30.609375 34.515625 
L 43.21875 34.515625 
L 43.21875 35.40625 
Q 43.21875 41.609375 39.140625 45 
Q 35.0625 48.390625 27.6875 48.390625 
Q 23 48.390625 18.546875 47.265625 
Q 14.109375 46.140625 10.015625 43.890625 
L 10.015625 52.203125 
Q 14.9375 54.109375 19.578125 55.046875 
Q 24.21875 56 28.609375 56 
Q 40.484375 56 46.34375 49.84375 
Q 52.203125 43.703125 52.203125 31.203125 
" id="BitstreamVeraSans-Roman-61"/>
      <path d="M 54.890625 33.015625 
L 54.890625 0 
L 45.90625 0 
L 45.90625 32.71875 
Q 45.90625 40.484375 42.875 44.328125 
Q 39.84375 48.1875 33.796875 48.1875 
Q 26.515625 48.1875 22.3125 43.546875 
Q 18.109375 38.921875 18.109375 30.90625 
L 18.109375 0 
L 9.078125 0 
L 9.078125 54.6875 
L 18.109375 54.6875 
L 18.109375 46.1875 
Q 21.34375 51.125 25.703125 53.5625 
Q 30.078125 56 35.796875 56 
Q 45.21875 56 50.046875 50.171875 
Q 54.890625 44.34375 54.890625 33.015625 
" id="BitstreamVeraSans-Roman-6e"/>
      <path d="M 30.609375 48.390625 
Q 23.390625 48.390625 19.1875 42.75 
Q 14.984375 37.109375 14.984375 27.296875 
Q 14.984375 17.484375 19.15625 11.84375 
Q 23.34375 6.203125 30.609375 6.203125 
Q 37.796875 6.203125 41.984375 11.859375 
Q 46.1875 17.53125 46.1875 27.296875 
Q 46.1875 37.015625 41.984375 42.703125 
Q 37.796875 48.390625 30.609375 48.390625 
M 30.609375 56 
Q 42.328125 56 49.015625 48.375 
Q 55.71875 40.765625 55.71875 27.296875 
Q 55.71875 13.875 49.015625 6.21875 
Q 42.328125 -1.421875 30.609375 -1.421875 
Q 18.84375 -1.421875 12.171875 6.21875 
Q 5.515625 13.875 5.515625 27.296875 
Q 5.515625 40.765625 12.171875 48.375 
Q 18.84375 56 30.609375 56 
" id="BitstreamVeraSans-Roman-6f"/>
      <path d="M 9.421875 75.984375 
L 18.40625 75.984375 
L 18.40625 0 
L 9.421875 0 
z
" id="BitstreamVeraSans-Roman-6c"/>
      <path d="M 9.421875 54.6875 
L 18.40625 54.6875 
L 18.40625 0 
L 9.421875 0 
z
M 9.421875 75.984375 
L 18.40625 75.984375 
L 18.40625 64.59375 
L 9.421875 64.59375 
z
" id="BitstreamVeraSans-Roman-69"/>
      <path d="M 41.109375 46.296875 
Q 39.59375 47.171875 37.8125 47.578125 
Q 36.03125 48 33.890625 48 
Q 26.265625 48 22.1875 43.046875 
Q 18.109375 38.09375 18.109375 28.8125 
L 18.109375 0 
L 9.078125 0 
L 9.078125 54.6875 
L 18.109375 54.6875 
L 18.109375 46.1875 
Q 20.953125 51.171875 25.484375 53.578125 
Q 30.03125 56 36.53125 56 
Q 37.453125 56 38.578125 55.875 
Q 39.703125 55.765625 41.0625 55.515625 
z
" id="BitstreamVeraSans-Roman-72"/>
     </defs>
     <g transform="translate(218.0990625 398.473625)scale(0.12 -0.12)">
      <use xlink:href="#BitstreamVeraSans-Roman-6e"/>
      <use x="63.37890625" xlink:href="#BitstreamVeraSans-Roman-6f"/>
      <use x="124.560546875" xlink:href="#BitstreamVeraSans-Roman-72"/>
      <use x="165.658203125" xlink:href="#BitstreamVeraSans-Roman-6d"/>
      <use x="263.0703125" xlink:href="#BitstreamVeraSans-Roman-61"/>
      <use x="324.349609375" xlink:href="#BitstreamVeraSans-Roman-6c"/>
      <use x="352.1328125" xlink:href="#BitstreamVeraSans-Roman-69"/>
      <use x="379.916015625" xlink:href="#BitstreamVeraSans-Roman-7a"/>
      <use x="432.40625" xlink:href="#BitstreamVeraSans-Roman-65"/>
      <use x="493.9296875" xlink:href="#BitstreamVeraSans-Roman-64"/>
      <use x="557.40625" xlink:href="#BitstreamVeraSans-Roman-20"/>
      <use x="589.193359375" xlink:href="#BitstreamVeraSans-Roman-61"/>
      <use x="650.47265625" xlink:href="#BitstreamVeraSans-Roman-6e"/>
      <use x="713.8515625" xlink:href="#BitstreamVeraSans-Roman-67"/>
      <use x="777.328125" xlink:href="#BitstreamVeraSans-Roman-6c"/>
      <use x="805.111328125" xlink:href="#BitstreamVeraSans-Roman-65"/>
     </g>
    </g>
   </g>
   <g id="matplotlib.axis_2">
    <g id="ytick_1">
     <g id="line2d_17">
      <defs>
       <path d="M 0 0 
L 4 0 
" id="m5511bfa840" style="stroke:#000000;stroke-width:0.5;"/>
      </defs>
      <g>
       <use style="stroke:#000000;stroke-width:0.5;" x="46.8975" xlink:href="#m5511bfa840" y="368.74175"/>
      </g>
     </g>
     <g id="line2d_18">
      <defs>
       <path d="M 0 0 
L -4 0 
" id="m14d06cadd6" style="stroke:#000000;stroke-width:0.5;"/>
      </defs>
      <g>
       <use style="stroke:#000000;stroke-width:0.5;" x="493.2975" xlink:href="#m14d06cadd6" y="368.74175"/>
      </g>
     </g>
     <g id="text_10">
      <!-- 4.5 -->
      <defs>
       <path d="M 10.796875 72.90625 
L 49.515625 72.90625 
L 49.515625 64.59375 
L 19.828125 64.59375 
L 19.828125 46.734375 
Q 21.96875 47.46875 24.109375 47.828125 
Q 26.265625 48.1875 28.421875 48.1875 
Q 40.625 48.1875 47.75 41.5 
Q 54.890625 34.8125 54.890625 23.390625 
Q 54.890625 11.625 47.5625 5.09375 
Q 40.234375 -1.421875 26.90625 -1.421875 
Q 22.3125 -1.421875 17.546875 -0.640625 
Q 12.796875 0.140625 7.71875 1.703125 
L 7.71875 11.625 
Q 12.109375 9.234375 16.796875 8.0625 
Q 21.484375 6.890625 26.703125 6.890625 
Q 35.15625 6.890625 40.078125 11.328125 
Q 45.015625 15.765625 45.015625 23.390625 
Q 45.015625 31 40.078125 35.4375 
Q 35.15625 39.890625 26.703125 39.890625 
Q 22.75 39.890625 18.8125 39.015625 
Q 14.890625 38.140625 10.796875 36.28125 
z
" id="BitstreamVeraSans-Roman-35"/>
      </defs>
      <g transform="translate(23.81375 372.053)scale(0.12 -0.12)">
       <use xlink:href="#BitstreamVeraSans-Roman-34"/>
       <use x="63.623046875" xlink:href="#BitstreamVeraSans-Roman-2e"/>
       <use x="95.41015625" xlink:href="#BitstreamVeraSans-Roman-35"/>
      </g>
     </g>
    </g>
    <g id="ytick_2">
     <g id="line2d_19">
      <g>
       <use style="stroke:#000000;stroke-width:0.5;" x="46.8975" xlink:href="#m5511bfa840" y="330.34175"/>
      </g>
     </g>
     <g id="line2d_20">
      <g>
       <use style="stroke:#000000;stroke-width:0.5;" x="493.2975" xlink:href="#m14d06cadd6" y="330.34175"/>
      </g>
     </g>
     <g id="text_11">
      <!-- 5.0 -->
      <g transform="translate(23.81375 333.653)scale(0.12 -0.12)">
       <use xlink:href="#BitstreamVeraSans-Roman-35"/>
       <use x="63.623046875" xlink:href="#BitstreamVeraSans-Roman-2e"/>
       <use x="95.41015625" xlink:href="#BitstreamVeraSans-Roman-30"/>
      </g>
     </g>
    </g>
    <g id="ytick_3">
     <g id="line2d_21">
      <g>
       <use style="stroke:#000000;stroke-width:0.5;" x="46.8975" xlink:href="#m5511bfa840" y="291.94175"/>
      </g>
     </g>
     <g id="line2d_22">
      <g>
       <use style="stroke:#000000;stroke-width:0.5;" x="493.2975" xlink:href="#m14d06cadd6" y="291.94175"/>
      </g>
     </g>
     <g id="text_12">
      <!-- 5.5 -->
      <g transform="translate(23.81375 295.253)scale(0.12 -0.12)">
       <use xlink:href="#BitstreamVeraSans-Roman-35"/>
       <use x="63.623046875" xlink:href="#BitstreamVeraSans-Roman-2e"/>
       <use x="95.41015625" xlink:href="#BitstreamVeraSans-Roman-35"/>
      </g>
     </g>
    </g>
    <g id="ytick_4">
     <g id="line2d_23">
      <g>
       <use style="stroke:#000000;stroke-width:0.5;" x="46.8975" xlink:href="#m5511bfa840" y="253.54175"/>
      </g>
     </g>
     <g id="line2d_24">
      <g>
       <use style="stroke:#000000;stroke-width:0.5;" x="493.2975" xlink:href="#m14d06cadd6" y="253.54175"/>
      </g>
     </g>
     <g id="text_13">
      <!-- 6.0 -->
      <g transform="translate(23.81375 256.853)scale(0.12 -0.12)">
       <use xlink:href="#BitstreamVeraSans-Roman-36"/>
       <use x="63.623046875" xlink:href="#BitstreamVeraSans-Roman-2e"/>
       <use x="95.41015625" xlink:href="#BitstreamVeraSans-Roman-30"/>
      </g>
     </g>
    </g>
    <g id="ytick_5">
     <g id="line2d_25">
      <g>
       <use style="stroke:#000000;stroke-width:0.5;" x="46.8975" xlink:href="#m5511bfa840" y="215.14175"/>
      </g>
     </g>
     <g id="line2d_26">
      <g>
       <use style="stroke:#000000;stroke-width:0.5;" x="493.2975" xlink:href="#m14d06cadd6" y="215.14175"/>
      </g>
     </g>
     <g id="text_14">
      <!-- 6.5 -->
      <g transform="translate(23.81375 218.453)scale(0.12 -0.12)">
       <use xlink:href="#BitstreamVeraSans-Roman-36"/>
       <use x="63.623046875" xlink:href="#BitstreamVeraSans-Roman-2e"/>
       <use x="95.41015625" xlink:href="#BitstreamVeraSans-Roman-35"/>
      </g>
     </g>
    </g>
    <g id="ytick_6">
     <g id="line2d_27">
      <g>
       <use style="stroke:#000000;stroke-width:0.5;" x="46.8975" xlink:href="#m5511bfa840" y="176.74175"/>
      </g>
     </g>
     <g id="line2d_28">
      <g>
       <use style="stroke:#000000;stroke-width:0.5;" x="493.2975" xlink:href="#m14d06cadd6" y="176.74175"/>
      </g>
     </g>
     <g id="text_15">
      <!-- 7.0 -->
      <defs>
       <path d="M 8.203125 72.90625 
L 55.078125 72.90625 
L 55.078125 68.703125 
L 28.609375 0 
L 18.3125 0 
L 43.21875 64.59375 
L 8.203125 64.59375 
z
" id="BitstreamVeraSans-Roman-37"/>
      </defs>
      <g transform="translate(23.81375 180.053)scale(0.12 -0.12)">
       <use xlink:href="#BitstreamVeraSans-Roman-37"/>
       <use x="63.623046875" xlink:href="#BitstreamVeraSans-Roman-2e"/>
       <use x="95.41015625" xlink:href="#BitstreamVeraSans-Roman-30"/>
      </g>
     </g>
    </g>
    <g id="ytick_7">
     <g id="line2d_29">
      <g>
       <use style="stroke:#000000;stroke-width:0.5;" x="46.8975" xlink:href="#m5511bfa840" y="138.34175"/>
      </g>
     </g>
     <g id="line2d_30">
      <g>
       <use style="stroke:#000000;stroke-width:0.5;" x="493.2975" xlink:href="#m14d06cadd6" y="138.34175"/>
      </g>
     </g>
     <g id="text_16">
      <!-- 7.5 -->
      <g transform="translate(23.81375 141.653)scale(0.12 -0.12)">
       <use xlink:href="#BitstreamVeraSans-Roman-37"/>
       <use x="63.623046875" xlink:href="#BitstreamVeraSans-Roman-2e"/>
       <use x="95.41015625" xlink:href="#BitstreamVeraSans-Roman-35"/>
      </g>
     </g>
    </g>
    <g id="ytick_8">
     <g id="line2d_31">
      <g>
       <use style="stroke:#000000;stroke-width:0.5;" x="46.8975" xlink:href="#m5511bfa840" y="99.94175"/>
      </g>
     </g>
     <g id="line2d_32">
      <g>
       <use style="stroke:#000000;stroke-width:0.5;" x="493.2975" xlink:href="#m14d06cadd6" y="99.94175"/>
      </g>
     </g>
     <g id="text_17">
      <!-- 8.0 -->
      <g transform="translate(23.81375 103.253)scale(0.12 -0.12)">
       <use xlink:href="#BitstreamVeraSans-Roman-38"/>
       <use x="63.623046875" xlink:href="#BitstreamVeraSans-Roman-2e"/>
       <use x="95.41015625" xlink:href="#BitstreamVeraSans-Roman-30"/>
      </g>
     </g>
    </g>
    <g id="ytick_9">
     <g id="line2d_33">
      <g>
       <use style="stroke:#000000;stroke-width:0.5;" x="46.8975" xlink:href="#m5511bfa840" y="61.54175"/>
      </g>
     </g>
     <g id="line2d_34">
      <g>
       <use style="stroke:#000000;stroke-width:0.5;" x="493.2975" xlink:href="#m14d06cadd6" y="61.54175"/>
      </g>
     </g>
     <g id="text_18">
      <!-- 8.5 -->
      <g transform="translate(23.81375 64.853)scale(0.12 -0.12)">
       <use xlink:href="#BitstreamVeraSans-Roman-38"/>
       <use x="63.623046875" xlink:href="#BitstreamVeraSans-Roman-2e"/>
       <use x="95.41015625" xlink:href="#BitstreamVeraSans-Roman-35"/>
      </g>
     </g>
    </g>
    <g id="ytick_10">
     <g id="line2d_35">
      <g>
       <use style="stroke:#000000;stroke-width:0.5;" x="46.8975" xlink:href="#m5511bfa840" y="23.14175"/>
      </g>
     </g>
     <g id="line2d_36">
      <g>
       <use style="stroke:#000000;stroke-width:0.5;" x="493.2975" xlink:href="#m14d06cadd6" y="23.14175"/>
      </g>
     </g>
     <g id="text_19">
      <!-- 9.0 -->
      <defs>
       <path d="M 10.984375 1.515625 
L 10.984375 10.5 
Q 14.703125 8.734375 18.5 7.8125 
Q 22.3125 6.890625 25.984375 6.890625 
Q 35.75 6.890625 40.890625 13.453125 
Q 46.046875 20.015625 46.78125 33.40625 
Q 43.953125 29.203125 39.59375 26.953125 
Q 35.25 24.703125 29.984375 24.703125 
Q 19.046875 24.703125 12.671875 31.3125 
Q 6.296875 37.9375 6.296875 49.421875 
Q 6.296875 60.640625 12.9375 67.421875 
Q 19.578125 74.21875 30.609375 74.21875 
Q 43.265625 74.21875 49.921875 64.515625 
Q 56.59375 54.828125 56.59375 36.375 
Q 56.59375 19.140625 48.40625 8.859375 
Q 40.234375 -1.421875 26.421875 -1.421875 
Q 22.703125 -1.421875 18.890625 -0.6875 
Q 15.09375 0.046875 10.984375 1.515625 
M 30.609375 32.421875 
Q 37.25 32.421875 41.125 36.953125 
Q 45.015625 41.5 45.015625 49.421875 
Q 45.015625 57.28125 41.125 61.84375 
Q 37.25 66.40625 30.609375 66.40625 
Q 23.96875 66.40625 20.09375 61.84375 
Q 16.21875 57.28125 16.21875 49.421875 
Q 16.21875 41.5 20.09375 36.953125 
Q 23.96875 32.421875 30.609375 32.421875 
" id="BitstreamVeraSans-Roman-39"/>
      </defs>
      <g transform="translate(23.81375 26.453)scale(0.12 -0.12)">
       <use xlink:href="#BitstreamVeraSans-Roman-39"/>
       <use x="63.623046875" xlink:href="#BitstreamVeraSans-Roman-2e"/>
       <use x="95.41015625" xlink:href="#BitstreamVeraSans-Roman-30"/>
      </g>
     </g>
    </g>
    <g id="text_20">
     <!-- max Q-value -->
     <defs>
      <path d="M 2.984375 54.6875 
L 12.5 54.6875 
L 29.59375 8.796875 
L 46.6875 54.6875 
L 56.203125 54.6875 
L 35.6875 0 
L 23.484375 0 
z
" id="BitstreamVeraSans-Roman-76"/>
      <path d="M 4.890625 31.390625 
L 31.203125 31.390625 
L 31.203125 23.390625 
L 4.890625 23.390625 
z
" id="BitstreamVeraSans-Roman-2d"/>
      <path d="M 39.40625 66.21875 
Q 28.65625 66.21875 22.328125 58.203125 
Q 16.015625 50.203125 16.015625 36.375 
Q 16.015625 22.609375 22.328125 14.59375 
Q 28.65625 6.59375 39.40625 6.59375 
Q 50.140625 6.59375 56.421875 14.59375 
Q 62.703125 22.609375 62.703125 36.375 
Q 62.703125 50.203125 56.421875 58.203125 
Q 50.140625 66.21875 39.40625 66.21875 
M 53.21875 1.3125 
L 66.21875 -12.890625 
L 54.296875 -12.890625 
L 43.5 -1.21875 
Q 41.890625 -1.3125 41.03125 -1.359375 
Q 40.1875 -1.421875 39.40625 -1.421875 
Q 24.03125 -1.421875 14.8125 8.859375 
Q 5.609375 19.140625 5.609375 36.375 
Q 5.609375 53.65625 14.8125 63.9375 
Q 24.03125 74.21875 39.40625 74.21875 
Q 54.734375 74.21875 63.90625 63.9375 
Q 73.09375 53.65625 73.09375 36.375 
Q 73.09375 23.6875 67.984375 14.640625 
Q 62.890625 5.609375 53.21875 1.3125 
" id="BitstreamVeraSans-Roman-51"/>
      <path d="M 8.5 21.578125 
L 8.5 54.6875 
L 17.484375 54.6875 
L 17.484375 21.921875 
Q 17.484375 14.15625 20.5 10.265625 
Q 23.53125 6.390625 29.59375 6.390625 
Q 36.859375 6.390625 41.078125 11.03125 
Q 45.3125 15.671875 45.3125 23.6875 
L 45.3125 54.6875 
L 54.296875 54.6875 
L 54.296875 0 
L 45.3125 0 
L 45.3125 8.40625 
Q 42.046875 3.421875 37.71875 1 
Q 33.40625 -1.421875 27.6875 -1.421875 
Q 18.265625 -1.421875 13.375 4.4375 
Q 8.5 10.296875 8.5 21.578125 
" id="BitstreamVeraSans-Roman-75"/>
      <path d="M 54.890625 54.6875 
L 35.109375 28.078125 
L 55.90625 0 
L 45.3125 0 
L 29.390625 21.484375 
L 13.484375 0 
L 2.875 0 
L 24.125 28.609375 
L 4.6875 54.6875 
L 15.28125 54.6875 
L 29.78125 35.203125 
L 44.28125 54.6875 
z
" id="BitstreamVeraSans-Roman-78"/>
     </defs>
     <g transform="translate(16.318125 234.1983125)rotate(-90.0)scale(0.12 -0.12)">
      <use xlink:href="#BitstreamVeraSans-Roman-6d"/>
      <use x="97.412109375" xlink:href="#BitstreamVeraSans-Roman-61"/>
      <use x="158.69140625" xlink:href="#BitstreamVeraSans-Roman-78"/>
      <use x="217.87109375" xlink:href="#BitstreamVeraSans-Roman-20"/>
      <use x="249.658203125" xlink:href="#BitstreamVeraSans-Roman-51"/>
      <use x="328.400390625" xlink:href="#BitstreamVeraSans-Roman-2d"/>
      <use x="364.453125" xlink:href="#BitstreamVeraSans-Roman-76"/>
      <use x="423.6328125" xlink:href="#BitstreamVeraSans-Roman-61"/>
      <use x="484.912109375" xlink:href="#BitstreamVeraSans-Roman-6c"/>
      <use x="512.6953125" xlink:href="#BitstreamVeraSans-Roman-75"/>
      <use x="576.07421875" xlink:href="#BitstreamVeraSans-Roman-65"/>
     </g>
    </g>
   </g>
   <g id="text_21">
    <!-- Max Q-values for angles observed, joint5 -->
    <defs>
     <path d="M 9.8125 72.90625 
L 24.515625 72.90625 
L 43.109375 23.296875 
L 61.8125 72.90625 
L 76.515625 72.90625 
L 76.515625 0 
L 66.890625 0 
L 66.890625 64.015625 
L 48.09375 14.015625 
L 38.1875 14.015625 
L 19.390625 64.015625 
L 19.390625 0 
L 9.8125 0 
z
" id="BitstreamVeraSans-Roman-4d"/>
     <path d="M 48.6875 27.296875 
Q 48.6875 37.203125 44.609375 42.84375 
Q 40.53125 48.484375 33.40625 48.484375 
Q 26.265625 48.484375 22.1875 42.84375 
Q 18.109375 37.203125 18.109375 27.296875 
Q 18.109375 17.390625 22.1875 11.75 
Q 26.265625 6.109375 33.40625 6.109375 
Q 40.53125 6.109375 44.609375 11.75 
Q 48.6875 17.390625 48.6875 27.296875 
M 18.109375 46.390625 
Q 20.953125 51.265625 25.265625 53.625 
Q 29.59375 56 35.59375 56 
Q 45.5625 56 51.78125 48.09375 
Q 58.015625 40.1875 58.015625 27.296875 
Q 58.015625 14.40625 51.78125 6.484375 
Q 45.5625 -1.421875 35.59375 -1.421875 
Q 29.59375 -1.421875 25.265625 0.953125 
Q 20.953125 3.328125 18.109375 8.203125 
L 18.109375 0 
L 9.078125 0 
L 9.078125 75.984375 
L 18.109375 75.984375 
z
" id="BitstreamVeraSans-Roman-62"/>
     <path d="M 18.3125 70.21875 
L 18.3125 54.6875 
L 36.8125 54.6875 
L 36.8125 47.703125 
L 18.3125 47.703125 
L 18.3125 18.015625 
Q 18.3125 11.328125 20.140625 9.421875 
Q 21.96875 7.515625 27.59375 7.515625 
L 36.8125 7.515625 
L 36.8125 0 
L 27.59375 0 
Q 17.1875 0 13.234375 3.875 
Q 9.28125 7.765625 9.28125 18.015625 
L 9.28125 47.703125 
L 2.6875 47.703125 
L 2.6875 54.6875 
L 9.28125 54.6875 
L 9.28125 70.21875 
z
" id="BitstreamVeraSans-Roman-74"/>
     <path d="M 37.109375 75.984375 
L 37.109375 68.5 
L 28.515625 68.5 
Q 23.6875 68.5 21.796875 66.546875 
Q 19.921875 64.59375 19.921875 59.515625 
L 19.921875 54.6875 
L 34.71875 54.6875 
L 34.71875 47.703125 
L 19.921875 47.703125 
L 19.921875 0 
L 10.890625 0 
L 10.890625 47.703125 
L 2.296875 47.703125 
L 2.296875 54.6875 
L 10.890625 54.6875 
L 10.890625 58.5 
Q 10.890625 67.625 15.140625 71.796875 
Q 19.390625 75.984375 28.609375 75.984375 
z
" id="BitstreamVeraSans-Roman-66"/>
     <path d="M 11.71875 12.40625 
L 22.015625 12.40625 
L 22.015625 4 
L 14.015625 -11.625 
L 7.71875 -11.625 
L 11.71875 4 
z
" id="BitstreamVeraSans-Roman-2c"/>
     <path d="M 9.421875 54.6875 
L 18.40625 54.6875 
L 18.40625 -0.984375 
Q 18.40625 -11.421875 14.421875 -16.109375 
Q 10.453125 -20.796875 1.609375 -20.796875 
L -1.8125 -20.796875 
L -1.8125 -13.1875 
L 0.59375 -13.1875 
Q 5.71875 -13.1875 7.5625 -10.8125 
Q 9.421875 -8.453125 9.421875 -0.984375 
z
M 9.421875 75.984375 
L 18.40625 75.984375 
L 18.40625 64.59375 
L 9.421875 64.59375 
z
" id="BitstreamVeraSans-Roman-6a"/>
     <path d="M 44.28125 53.078125 
L 44.28125 44.578125 
Q 40.484375 46.53125 36.375 47.5 
Q 32.28125 48.484375 27.875 48.484375 
Q 21.1875 48.484375 17.84375 46.4375 
Q 14.5 44.390625 14.5 40.28125 
Q 14.5 37.15625 16.890625 35.375 
Q 19.28125 33.59375 26.515625 31.984375 
L 29.59375 31.296875 
Q 39.15625 29.25 43.1875 25.515625 
Q 47.21875 21.78125 47.21875 15.09375 
Q 47.21875 7.46875 41.1875 3.015625 
Q 35.15625 -1.421875 24.609375 -1.421875 
Q 20.21875 -1.421875 15.453125 -0.5625 
Q 10.6875 0.296875 5.421875 2 
L 5.421875 11.28125 
Q 10.40625 8.6875 15.234375 7.390625 
Q 20.0625 6.109375 24.8125 6.109375 
Q 31.15625 6.109375 34.5625 8.28125 
Q 37.984375 10.453125 37.984375 14.40625 
Q 37.984375 18.0625 35.515625 20.015625 
Q 33.0625 21.96875 24.703125 23.78125 
L 21.578125 24.515625 
Q 13.234375 26.265625 9.515625 29.90625 
Q 5.8125 33.546875 5.8125 39.890625 
Q 5.8125 47.609375 11.28125 51.796875 
Q 16.75 56 26.8125 56 
Q 31.78125 56 36.171875 55.265625 
Q 40.578125 54.546875 44.28125 53.078125 
" id="BitstreamVeraSans-Roman-73"/>
    </defs>
    <g transform="translate(122.41875 18.14175)scale(0.144 -0.144)">
     <use xlink:href="#BitstreamVeraSans-Roman-4d"/>
     <use x="86.279296875" xlink:href="#BitstreamVeraSans-Roman-61"/>
     <use x="147.55859375" xlink:href="#BitstreamVeraSans-Roman-78"/>
     <use x="206.73828125" xlink:href="#BitstreamVeraSans-Roman-20"/>
     <use x="238.525390625" xlink:href="#BitstreamVeraSans-Roman-51"/>
     <use x="317.267578125" xlink:href="#BitstreamVeraSans-Roman-2d"/>
     <use x="353.3203125" xlink:href="#BitstreamVeraSans-Roman-76"/>
     <use x="412.5" xlink:href="#BitstreamVeraSans-Roman-61"/>
     <use x="473.779296875" xlink:href="#BitstreamVeraSans-Roman-6c"/>
     <use x="501.5625" xlink:href="#BitstreamVeraSans-Roman-75"/>
     <use x="564.94140625" xlink:href="#BitstreamVeraSans-Roman-65"/>
     <use x="626.46484375" xlink:href="#BitstreamVeraSans-Roman-73"/>
     <use x="678.564453125" xlink:href="#BitstreamVeraSans-Roman-20"/>
     <use x="710.3515625" xlink:href="#BitstreamVeraSans-Roman-66"/>
     <use x="745.556640625" xlink:href="#BitstreamVeraSans-Roman-6f"/>
     <use x="806.73828125" xlink:href="#BitstreamVeraSans-Roman-72"/>
     <use x="847.8515625" xlink:href="#BitstreamVeraSans-Roman-20"/>
     <use x="879.638671875" xlink:href="#BitstreamVeraSans-Roman-61"/>
     <use x="940.91796875" xlink:href="#BitstreamVeraSans-Roman-6e"/>
     <use x="1004.296875" xlink:href="#BitstreamVeraSans-Roman-67"/>
     <use x="1067.7734375" xlink:href="#BitstreamVeraSans-Roman-6c"/>
     <use x="1095.556640625" xlink:href="#BitstreamVeraSans-Roman-65"/>
     <use x="1157.080078125" xlink:href="#BitstreamVeraSans-Roman-73"/>
     <use x="1209.1796875" xlink:href="#BitstreamVeraSans-Roman-20"/>
     <use x="1240.966796875" xlink:href="#BitstreamVeraSans-Roman-6f"/>
     <use x="1302.1484375" xlink:href="#BitstreamVeraSans-Roman-62"/>
     <use x="1365.625" xlink:href="#BitstreamVeraSans-Roman-73"/>
     <use x="1417.724609375" xlink:href="#BitstreamVeraSans-Roman-65"/>
     <use x="1479.248046875" xlink:href="#BitstreamVeraSans-Roman-72"/>
     <use x="1520.361328125" xlink:href="#BitstreamVeraSans-Roman-76"/>
     <use x="1579.541015625" xlink:href="#BitstreamVeraSans-Roman-65"/>
     <use x="1641.064453125" xlink:href="#BitstreamVeraSans-Roman-64"/>
     <use x="1704.541015625" xlink:href="#BitstreamVeraSans-Roman-2c"/>
     <use x="1736.328125" xlink:href="#BitstreamVeraSans-Roman-20"/>
     <use x="1768.115234375" xlink:href="#BitstreamVeraSans-Roman-6a"/>
     <use x="1795.8984375" xlink:href="#BitstreamVeraSans-Roman-6f"/>
     <use x="1857.080078125" xlink:href="#BitstreamVeraSans-Roman-69"/>
     <use x="1884.86328125" xlink:href="#BitstreamVeraSans-Roman-6e"/>
     <use x="1948.2421875" xlink:href="#BitstreamVeraSans-Roman-74"/>
     <use x="1987.451171875" xlink:href="#BitstreamVeraSans-Roman-35"/>
    </g>
   </g>
  </g>
 </g>
 <defs>
  <clipPath id="pde98644524">
   <rect height="345.6" width="446.4" x="46.8975" y="23.14175"/>
  </clipPath>
 </defs>
</svg>
