<?xml version="1.0" encoding="utf-8" standalone="no"?>
<!DOCTYPE svg PUBLIC "-//W3C//DTD SVG 1.1//EN"
  "http://www.w3.org/Graphics/SVG/1.1/DTD/svg11.dtd">
<!-- Created with matplotlib (http://matplotlib.org/) -->
<svg height="408pt" version="1.1" viewBox="0 0 533 408" width="533pt" xmlns="http://www.w3.org/2000/svg" xmlns:xlink="http://www.w3.org/1999/xlink">
 <defs>
  <style type="text/css">
*{stroke-linecap:butt;stroke-linejoin:round;stroke-miterlimit:100000;}
  </style>
 </defs>
 <g id="figure_1">
  <g id="patch_1">
   <path d="M 0 408.16925 
L 533.458125 408.16925 
L 533.458125 0 
L 0 0 
z
" style="fill:#ffffff;"/>
  </g>
  <g id="axes_1">
   <g id="patch_2">
    <path d="M 64.588125 368.74175 
L 510.988125 368.74175 
L 510.988125 23.14175 
L 64.588125 23.14175 
z
" style="fill:#ffffff;"/>
   </g>
   <g id="line2d_1">
    <path clip-path="url(#p738faf1a02)" d="M 64.906982 317.044886 
L 65.225839 288.380422 
L 65.544696 324.412033 
L 65.863554 321.416956 
L 66.182411 292.581239 
L 66.820125 263.149151 
L 67.138982 295.313338 
L 67.457839 303.138564 
L 67.776696 264.882131 
L 68.095554 320.203831 
L 68.733268 265.970119 
L 69.052125 307.206348 
L 69.370982 307.801654 
L 69.689839 309.412 
L 70.008696 315.487238 
L 70.327554 316.57976 
L 70.646411 296.206748 
L 70.965268 309.304825 
L 71.284125 288.97053 
L 71.602982 328.202475 
L 71.921839 277.900543 
L 72.240696 301.854281 
L 72.559554 300.98061 
L 72.878411 283.228571 
L 73.197268 308.449656 
L 73.516125 320.573775 
L 73.834982 299.947755 
L 74.153839 316.769767 
L 74.472696 285.350109 
L 75.110411 297.469902 
L 75.429268 283.749369 
L 75.748125 331.247411 
L 76.704696 299.160927 
L 77.023554 276.74279 
L 77.342411 285.700952 
L 77.661268 284.570267 
L 77.980125 312.376663 
L 78.617839 289.538497 
L 78.936696 286.221653 
L 79.255554 279.411954 
L 79.574411 323.908015 
L 79.893268 297.879642 
L 80.212125 313.959789 
L 80.849839 220.243767 
L 81.168696 226.443689 
L 81.487554 223.037404 
L 81.806411 214.819517 
L 82.125268 215.743242 
L 82.444125 220.045951 
L 82.762982 219.35304 
L 83.081839 221.260611 
L 83.400696 218.181944 
L 83.719554 218.267656 
L 84.038411 219.041668 
L 84.357268 215.059504 
L 84.676125 213.73726 
L 85.313839 217.895454 
L 85.632696 215.487581 
L 85.951554 224.097697 
L 86.270411 220.64361 
L 86.589268 230.666148 
L 86.908125 220.154439 
L 87.226982 214.679897 
L 87.545839 218.064675 
L 87.864696 213.617687 
L 88.183554 218.94202 
L 88.502411 212.974431 
L 89.140125 221.424481 
L 89.458982 212.046894 
L 89.777839 219.402754 
L 90.096696 221.700586 
L 90.415554 218.069064 
L 90.734411 220.294442 
L 91.053268 218.506016 
L 91.372125 222.370609 
L 92.009839 215.424098 
L 92.328696 224.743446 
L 92.647554 217.006942 
L 93.285268 222.681446 
L 93.604125 216.597933 
L 93.922982 214.951343 
L 94.241839 220.006314 
L 94.560696 216.133712 
L 94.879554 219.983011 
L 95.198411 218.380136 
L 95.836125 216.851086 
L 96.154982 212.377232 
L 96.473839 216.821353 
L 96.792696 223.965719 
L 97.111554 221.186792 
L 97.430411 213.328471 
L 97.749268 221.588214 
L 98.068125 217.322028 
L 98.386982 227.183318 
L 98.705839 221.24441 
L 99.024696 219.5544 
L 99.343554 214.555499 
L 99.662411 212.796329 
L 99.981268 221.250012 
L 100.300125 212.023709 
L 100.618982 213.590782 
L 100.937839 223.667618 
L 101.256696 216.382745 
L 101.575554 216.536479 
L 101.894411 218.521457 
L 102.213268 215.501004 
L 102.532125 223.116457 
L 102.850982 218.063936 
L 103.169839 223.879803 
L 103.488696 215.176872 
L 103.807554 214.872736 
L 104.126411 222.344357 
L 104.445268 219.490654 
L 104.764125 222.324221 
L 105.082982 218.166982 
L 105.401839 220.516669 
L 105.720696 221.821478 
L 106.039554 218.874304 
L 106.358411 224.638195 
L 106.677268 226.463906 
L 106.996125 219.397068 
L 107.314982 215.31781 
L 107.633839 212.95128 
L 107.952696 222.586296 
L 108.271554 218.07214 
L 108.590411 217.706613 
L 108.909268 222.109608 
L 109.228125 218.662026 
L 109.546982 220.478158 
L 109.865839 215.156261 
L 110.184696 218.42693 
L 110.503554 218.986473 
L 110.822411 211.957288 
L 111.141268 220.078483 
L 111.460125 213.973726 
L 111.778982 214.760987 
L 112.097839 222.064846 
L 112.416696 215.949462 
L 112.735554 226.966969 
L 113.054411 216.6173 
L 113.373268 215.428465 
L 113.692125 227.375308 
L 114.010982 216.13843 
L 114.329839 217.459294 
L 114.648696 218.189035 
L 114.967554 220.004028 
L 115.286411 218.760754 
L 115.605268 215.643938 
L 115.924125 213.906786 
L 116.242982 219.681759 
L 116.561839 218.461717 
L 116.880696 223.270229 
L 117.199554 216.896291 
L 117.518411 217.232645 
L 117.837268 222.778833 
L 118.156125 217.103712 
L 118.474982 217.551688 
L 118.793839 219.179693 
L 119.112696 220.137199 
L 119.431554 222.731794 
L 119.750411 222.309687 
L 120.069268 224.044926 
L 120.388125 214.578162 
L 120.706982 216.728147 
L 121.344696 213.787091 
L 121.663554 220.092397 
L 121.982411 218.746074 
L 122.301268 220.25696 
L 122.620125 214.849005 
L 122.938982 223.841895 
L 123.257839 212.619838 
L 123.895554 219.884427 
L 124.214411 218.030511 
L 124.533268 213.408611 
L 124.852125 218.497408 
L 125.170982 216.034733 
L 125.489839 212.376559 
L 125.808696 221.809797 
L 126.127554 217.602784 
L 126.446411 218.228088 
L 126.765268 220.014635 
L 127.084125 215.300298 
L 127.402982 226.936827 
L 127.721839 223.86596 
L 128.040696 217.939883 
L 128.359554 216.643817 
L 128.678411 221.058598 
L 128.997268 217.253292 
L 129.316125 215.426544 
L 129.634982 225.598814 
L 129.953839 215.331686 
L 130.272696 215.082681 
L 130.591554 226.365392 
L 130.910411 219.896543 
L 131.229268 223.53576 
L 131.548125 213.036378 
L 131.866982 216.193275 
L 132.504696 232.234499 
L 133.142411 212.732629 
L 133.461268 216.082609 
L 134.098982 227.536156 
L 134.417839 220.114431 
L 134.736696 222.950392 
L 135.055554 211.498727 
L 135.374411 226.634084 
L 135.693268 214.422121 
L 136.012125 218.942505 
L 136.330982 218.943912 
L 136.649839 213.927599 
L 136.968696 215.713302 
L 137.287554 211.614543 
L 137.606411 220.467331 
L 137.925268 214.072248 
L 138.244125 214.877855 
L 138.562982 214.517247 
L 138.881839 218.695623 
L 139.200696 219.253508 
L 139.519554 224.568103 
L 139.838411 215.265877 
L 140.157268 216.004649 
L 140.794982 229.190357 
L 141.432696 213.611393 
L 141.751554 214.954085 
L 142.070411 218.207892 
L 142.389268 220.058458 
L 142.708125 219.675846 
L 143.026982 217.196286 
L 143.345839 217.732045 
L 143.664696 222.41667 
L 143.983554 216.747189 
L 144.302411 223.835026 
L 144.621268 215.03634 
L 144.940125 218.72589 
L 145.258982 224.949017 
L 146.215554 217.074242 
L 146.534411 218.486948 
L 146.853268 214.841526 
L 147.172125 218.143903 
L 147.490982 219.572465 
L 147.809839 219.088327 
L 148.128696 216.658295 
L 148.447554 229.355874 
L 148.766411 226.469806 
L 149.085268 216.533146 
L 149.404125 217.587464 
L 149.722982 216.325687 
L 150.041839 216.856291 
L 150.360696 212.63487 
L 150.679554 223.899649 
L 150.998411 223.061727 
L 151.317268 217.516024 
L 151.636125 221.902664 
L 151.954982 219.319584 
L 152.273839 223.569634 
L 152.592696 218.715635 
L 153.230411 227.76976 
L 153.549268 220.317493 
L 154.186982 214.644926 
L 154.505839 228.053567 
L 154.824696 222.714082 
L 155.143554 222.703308 
L 155.462411 213.483942 
L 156.100125 224.943422 
L 156.418982 214.863173 
L 156.737839 216.356114 
L 157.056696 214.959158 
L 157.375554 218.141687 
L 157.694411 227.924962 
L 158.013268 215.575972 
L 158.332125 221.322835 
L 158.650982 215.479966 
L 158.969839 220.018038 
L 159.288696 219.802214 
L 159.607554 220.097571 
L 159.926411 224.968607 
L 160.245268 227.979354 
L 160.564125 224.077233 
L 160.882982 209.90176 
L 161.201839 223.749625 
L 161.520696 220.030984 
L 161.839554 225.23215 
L 162.158411 217.805814 
L 162.477268 228.742937 
L 162.796125 218.467853 
L 163.114982 213.843976 
L 163.433839 213.681056 
L 164.071554 219.018835 
L 164.390411 223.966047 
L 164.709268 216.655096 
L 165.028125 217.058399 
L 165.346982 226.598474 
L 165.665839 224.062606 
L 165.984696 213.901609 
L 166.303554 215.171392 
L 166.622411 219.754246 
L 166.941268 216.121254 
L 167.260125 217.563035 
L 167.578982 218.066229 
L 167.897839 221.700136 
L 168.216696 221.354433 
L 168.535554 214.749837 
L 168.854411 224.774007 
L 169.173268 218.823836 
L 169.492125 218.387658 
L 169.810982 220.054043 
L 170.129839 214.646892 
L 170.448696 214.731329 
L 171.086411 216.254187 
L 171.405268 220.262844 
L 171.724125 215.124537 
L 172.042982 228.351592 
L 172.361839 217.649175 
L 172.680696 223.20155 
L 172.999554 214.708669 
L 173.318411 222.815515 
L 173.637268 224.692757 
L 173.956125 215.269816 
L 174.274982 219.765101 
L 174.593839 218.328296 
L 174.912696 227.371062 
L 175.231554 218.208819 
L 175.550411 214.68787 
L 175.869268 229.817134 
L 176.188125 224.281026 
L 176.506982 213.234694 
L 176.825839 214.242326 
L 177.144696 225.68905 
L 177.463554 212.927153 
L 177.782411 215.367885 
L 178.101268 222.367853 
L 178.420125 226.916343 
L 178.738982 225.282528 
L 179.057839 217.405091 
L 179.376696 213.902379 
L 179.695554 220.433509 
L 180.014411 220.29869 
L 180.333268 218.741136 
L 180.970982 211.981845 
L 181.289839 226.259666 
L 181.608696 215.472693 
L 181.927554 213.953237 
L 182.246411 214.924648 
L 182.565268 214.472947 
L 182.884125 223.18318 
L 183.202982 227.697541 
L 183.521839 222.273204 
L 183.840696 220.027161 
L 184.159554 234.41646 
L 184.478411 217.586735 
L 184.797268 217.687227 
L 185.116125 221.315559 
L 185.434982 217.098981 
L 185.753839 218.054758 
L 186.072696 227.016417 
L 186.391554 218.26205 
L 186.710411 215.928587 
L 187.348125 224.796173 
L 187.666982 220.286887 
L 187.985839 218.822397 
L 188.304696 218.74047 
L 188.623554 221.350347 
L 188.942411 215.816636 
L 189.261268 223.255099 
L 189.898982 214.237706 
L 190.217839 229.066295 
L 190.536696 214.433727 
L 190.855554 226.688467 
L 191.174411 212.996046 
L 191.493268 226.298978 
L 191.812125 216.451165 
L 192.130982 219.384111 
L 192.449839 216.579526 
L 192.768696 219.307351 
L 193.087554 217.139619 
L 193.725268 224.509522 
L 194.044125 226.60341 
L 194.362982 218.658339 
L 194.681839 234.603616 
L 195.000696 216.192507 
L 195.319554 219.401573 
L 195.638411 216.475409 
L 195.957268 232.837127 
L 196.276125 220.780789 
L 196.594982 229.780248 
L 196.913839 215.801852 
L 197.232696 220.16511 
L 197.551554 217.598845 
L 197.870411 220.367329 
L 198.189268 207.498579 
L 198.508125 211.924691 
L 198.826982 208.736991 
L 199.145839 208.923227 
L 199.464696 205.396646 
L 199.783554 213.408194 
L 200.102411 213.869747 
L 200.421268 205.73809 
L 200.740125 206.350718 
L 201.058982 204.168893 
L 201.377839 207.30893 
L 201.696696 197.42225 
L 202.015554 199.921787 
L 202.334411 200.397382 
L 202.653268 199.401814 
L 202.972125 196.296924 
L 203.290982 198.922823 
L 203.609839 196.671817 
L 203.928696 196.315446 
L 204.247554 192.563637 
L 204.566411 194.215837 
L 204.885268 198.805108 
L 205.204125 196.078414 
L 205.522982 190.465905 
L 205.841839 192.758634 
L 206.160696 188.905561 
L 206.479554 195.034188 
L 206.798411 192.024961 
L 207.117268 186.554919 
L 207.436125 185.868931 
L 207.754982 191.555378 
L 208.392696 177.816433 
L 208.711554 186.648162 
L 209.030411 178.526657 
L 209.349268 182.750336 
L 209.668125 176.457391 
L 209.986982 183.286579 
L 210.305839 178.002483 
L 210.624696 175.979376 
L 210.943554 184.068787 
L 211.262411 168.455946 
L 211.581268 180.116613 
L 211.900125 180.358819 
L 212.218982 171.599489 
L 212.537839 181.159633 
L 212.856696 176.626442 
L 213.175554 178.240924 
L 213.494411 173.43226 
L 213.813268 173.059124 
L 214.132125 164.978865 
L 214.450982 166.259506 
L 214.769839 163.711475 
L 215.088696 167.789178 
L 215.407554 156.505689 
L 215.726411 164.433064 
L 216.045268 156.095485 
L 216.364125 172.282821 
L 216.682982 162.337423 
L 217.001839 163.311648 
L 217.320696 185.498991 
L 217.639554 163.457693 
L 217.958411 171.062518 
L 218.277268 158.092387 
L 218.596125 158.122982 
L 218.914982 156.788387 
L 219.233839 156.285932 
L 219.552696 163.977239 
L 219.871554 148.984067 
L 220.190411 150.672534 
L 220.509268 156.646633 
L 220.828125 158.918254 
L 221.465839 150.933305 
L 221.784696 156.89146 
L 222.103554 143.660271 
L 222.422411 157.399787 
L 222.741268 148.315802 
L 223.060125 143.398443 
L 223.378982 155.894357 
L 223.697839 146.147161 
L 224.016696 155.904656 
L 224.335554 137.810385 
L 224.654411 156.001607 
L 224.973268 139.959684 
L 225.292125 138.173665 
L 225.610982 146.626482 
L 225.929839 142.334063 
L 226.248696 140.378472 
L 226.567554 142.827954 
L 226.886411 157.117749 
L 227.205268 149.603349 
L 227.524125 157.360494 
L 228.161839 133.512952 
L 228.480696 140.193411 
L 228.799554 135.516527 
L 229.118411 133.516488 
L 229.437268 147.280736 
L 229.756125 137.623284 
L 230.074982 135.723181 
L 230.393839 134.708143 
L 230.712696 126.034362 
L 231.031554 144.868753 
L 231.350411 127.602514 
L 231.669268 128.949484 
L 231.988125 150.894111 
L 232.306982 127.681251 
L 232.625839 125.554719 
L 232.944696 126.638136 
L 233.263554 157.267139 
L 233.582411 129.13139 
L 233.901268 139.258993 
L 234.220125 122.892597 
L 234.538982 133.299351 
L 234.857839 120.60241 
L 235.176696 121.318202 
L 235.814411 127.088534 
L 236.133268 125.573326 
L 236.452125 118.102881 
L 236.770982 134.193022 
L 237.089839 118.336288 
L 237.408696 128.025085 
L 237.727554 120.097464 
L 238.046411 139.290409 
L 238.365268 122.921151 
L 238.684125 119.75091 
L 239.002982 121.483406 
L 239.321839 122.049086 
L 239.640696 118.110301 
L 239.959554 129.006964 
L 240.278411 114.892236 
L 240.597268 133.763011 
L 240.916125 128.015452 
L 241.553839 109.488235 
L 241.872696 125.353063 
L 242.191554 114.772946 
L 242.510411 134.88445 
L 242.829268 116.608169 
L 243.148125 111.789071 
L 243.466982 121.781371 
L 243.785839 119.860681 
L 244.104696 123.890185 
L 244.423554 119.764387 
L 244.742411 112.020315 
L 245.061268 113.139616 
L 245.380125 119.545347 
L 245.698982 118.522224 
L 246.017839 111.908072 
L 246.336696 111.600724 
L 246.655554 133.43014 
L 246.974411 128.09925 
L 247.293268 119.685675 
L 247.612125 128.441866 
L 248.249839 109.656351 
L 248.568696 121.112273 
L 248.887554 109.692179 
L 249.206411 110.130389 
L 249.525268 130.41661 
L 249.844125 96.32394 
L 250.162982 108.102379 
L 250.481839 126.00972 
L 250.800696 107.301913 
L 251.119554 107.357236 
L 251.438411 108.456545 
L 251.757268 100.49223 
L 252.394982 113.5374 
L 252.713839 116.842012 
L 253.032696 108.793792 
L 253.351554 109.84651 
L 253.670411 113.0442 
L 253.989268 153.683048 
L 254.308125 107.603207 
L 254.626982 112.210553 
L 254.945839 137.116111 
L 255.264696 95.02988 
L 255.583554 115.1976 
L 255.902411 115.70804 
L 256.221268 122.765913 
L 256.540125 120.451709 
L 256.858982 123.839972 
L 257.177839 105.370293 
L 257.496696 114.681473 
L 257.815554 107.323888 
L 258.134411 95.632306 
L 258.453268 110.261387 
L 258.772125 99.053011 
L 259.090982 104.425563 
L 259.409839 107.294192 
L 259.728696 99.186628 
L 260.047554 132.107277 
L 260.366411 114.626263 
L 260.685268 107.957651 
L 261.004125 119.48023 
L 261.322982 103.659223 
L 261.641839 119.865044 
L 261.960696 96.653467 
L 262.279554 116.111193 
L 262.598411 95.754702 
L 262.917268 101.716447 
L 263.236125 136.017614 
L 263.554982 104.677666 
L 263.873839 93.770677 
L 264.192696 96.895352 
L 264.511554 124.095394 
L 265.149268 92.431973 
L 265.468125 109.062437 
L 265.786982 91.772748 
L 266.105839 117.019168 
L 266.424696 88.736485 
L 266.743554 118.415823 
L 267.062411 96.419053 
L 267.381268 90.490188 
L 267.700125 124.255013 
L 268.337839 89.76452 
L 268.975554 113.867377 
L 269.294411 86.906281 
L 269.613268 103.641776 
L 269.932125 97.904354 
L 270.250982 103.131551 
L 270.569839 118.043171 
L 270.888696 140.138503 
L 271.207554 125.657432 
L 271.526411 79.583818 
L 271.845268 86.208037 
L 272.164125 115.049924 
L 272.482982 105.115696 
L 272.801839 113.747666 
L 273.120696 112.091733 
L 273.439554 98.734482 
L 273.758411 105.362042 
L 274.077268 94.173456 
L 274.396125 99.213299 
L 274.714982 109.853854 
L 275.033839 127.608752 
L 275.352696 105.877153 
L 275.671554 105.096748 
L 275.990411 114.535927 
L 276.309268 116.475676 
L 276.628125 101.220531 
L 276.946982 91.700973 
L 277.265839 92.560504 
L 277.584696 131.0861 
L 277.903554 101.011152 
L 278.222411 99.453958 
L 278.541268 129.991994 
L 278.860125 94.504474 
L 279.178982 96.492995 
L 279.497839 93.280778 
L 279.816696 99.579105 
L 280.135554 127.360623 
L 280.454411 95.039505 
L 280.773268 84.283018 
L 281.092125 87.313731 
L 281.410982 119.297656 
L 281.729839 115.404452 
L 282.048696 99.092519 
L 282.367554 113.415951 
L 283.005268 98.67375 
L 283.324125 111.238082 
L 283.642982 117.46398 
L 284.280696 91.963105 
L 284.599554 112.931954 
L 284.918411 112.500127 
L 285.237268 128.881127 
L 285.556125 86.434865 
L 286.193839 120.413916 
L 286.512696 91.827679 
L 286.831554 117.276849 
L 287.150411 97.778225 
L 287.469268 94.690919 
L 287.788125 97.872942 
L 288.106982 103.103239 
L 288.425839 106.296661 
L 288.744696 103.094417 
L 289.382411 90.985711 
L 289.701268 98.304195 
L 290.020125 100.324994 
L 290.338982 99.783314 
L 290.657839 105.843566 
L 290.976696 95.618983 
L 291.295554 97.790407 
L 291.614411 80.268733 
L 291.933268 103.693451 
L 292.252125 93.352033 
L 292.570982 93.159188 
L 292.889839 108.329041 
L 293.208696 98.253549 
L 293.527554 111.308109 
L 293.846411 110.491796 
L 294.484125 95.389213 
L 294.802982 114.240195 
L 295.121839 97.758003 
L 295.440696 95.357324 
L 295.759554 83.51988 
L 296.078411 90.909919 
L 296.397268 110.290792 
L 296.716125 106.551389 
L 297.034982 104.498214 
L 297.353839 99.238422 
L 297.672696 91.973754 
L 297.991554 90.581168 
L 298.310411 94.538265 
L 298.629268 88.536608 
L 298.948125 108.385489 
L 299.266982 84.182328 
L 299.585839 95.796379 
L 299.904696 116.328234 
L 300.542411 89.402674 
L 300.861268 112.039756 
L 301.180125 92.049216 
L 301.498982 93.637292 
L 301.817839 115.512388 
L 302.136696 98.776354 
L 302.455554 91.884978 
L 302.774411 119.231227 
L 303.412125 102.808345 
L 303.730982 98.337614 
L 304.049839 110.036423 
L 304.368696 91.24738 
L 304.687554 84.660621 
L 305.006411 105.415067 
L 305.325268 103.954702 
L 305.644125 107.899564 
L 305.962982 94.656062 
L 306.281839 89.682425 
L 306.600696 119.00353 
L 306.919554 92.987967 
L 307.238411 100.200535 
L 307.557268 100.249649 
L 307.876125 88.985619 
L 308.194982 110.806167 
L 308.832696 86.338192 
L 309.151554 115.021728 
L 309.470411 117.420342 
L 309.789268 103.175281 
L 310.108125 104.992279 
L 310.745839 88.529655 
L 311.064696 109.995809 
L 311.383554 100.601019 
L 311.702411 98.582187 
L 312.021268 95.754265 
L 312.340125 97.183681 
L 312.658982 102.316815 
L 312.977839 127.514709 
L 313.296696 97.421954 
L 313.615554 112.140813 
L 313.934411 114.143119 
L 314.253268 96.371039 
L 314.572125 104.799146 
L 314.890982 96.933518 
L 315.209839 100.116041 
L 315.528696 122.94413 
L 315.847554 103.52909 
L 316.166411 142.163713 
L 316.485268 115.0414 
L 317.122982 87.063842 
L 317.441839 98.177663 
L 317.760696 119.948984 
L 318.079554 128.538049 
L 318.398411 99.889555 
L 319.036125 114.568009 
L 319.354982 99.667874 
L 319.673839 97.703597 
L 319.992696 90.009394 
L 320.311554 119.80492 
L 320.630411 96.173725 
L 320.949268 90.591929 
L 321.268125 101.756134 
L 321.586982 106.563744 
L 321.905839 99.083023 
L 322.224696 107.219985 
L 322.543554 112.501384 
L 322.862411 129.402792 
L 323.181268 108.867082 
L 323.818982 126.21457 
L 324.137839 125.743727 
L 324.456696 98.55505 
L 324.775554 96.810145 
L 325.094411 114.439972 
L 325.413268 106.814241 
L 325.732125 112.192254 
L 326.050982 100.392502 
L 326.369839 124.506205 
L 326.688696 93.997616 
L 327.007554 122.749886 
L 327.326411 102.204694 
L 327.645268 103.008559 
L 327.964125 104.522345 
L 328.282982 96.178053 
L 328.601839 113.666542 
L 328.920696 91.317097 
L 329.239554 95.264693 
L 329.558411 112.650731 
L 329.877268 138.04068 
L 330.196125 107.061449 
L 330.514982 108.432732 
L 330.833839 90.925217 
L 331.152696 148.505616 
L 331.471554 118.718892 
L 331.790411 99.653633 
L 332.109268 104.93119 
L 332.428125 105.641066 
L 332.746982 106.682794 
L 333.065839 109.360702 
L 333.384696 110.263134 
L 333.703554 107.126588 
L 334.341268 95.435945 
L 334.660125 125.05868 
L 334.978982 97.968941 
L 335.616696 105.2275 
L 335.935554 104.2235 
L 336.254411 100.739859 
L 336.573268 113.910287 
L 336.892125 107.754164 
L 337.210982 114.322963 
L 337.529839 111.689647 
L 337.848696 116.203903 
L 338.167554 110.635062 
L 338.805268 125.923778 
L 339.442982 102.305824 
L 339.761839 126.643211 
L 340.080696 107.568821 
L 340.399554 104.340328 
L 340.718411 108.727555 
L 341.037268 98.576423 
L 341.356125 130.784264 
L 341.674982 114.59025 
L 342.312696 101.658161 
L 342.631554 108.200707 
L 342.950411 122.445886 
L 343.269268 101.196057 
L 343.588125 102.634087 
L 343.906982 120.034223 
L 344.225839 90.007187 
L 344.544696 85.492994 
L 344.863554 95.088344 
L 345.182411 116.791067 
L 345.501268 97.824657 
L 345.820125 99.642858 
L 346.138982 114.148672 
L 346.457839 109.725185 
L 346.776696 125.088701 
L 347.095554 106.41269 
L 347.414411 102.992382 
L 347.733268 100.779976 
L 348.052125 110.082759 
L 348.370982 94.534487 
L 348.689839 110.226148 
L 349.008696 100.921265 
L 349.327554 102.509398 
L 349.646411 98.519673 
L 349.965268 130.978914 
L 350.284125 106.206516 
L 350.602982 95.398022 
L 350.921839 129.429045 
L 351.240696 93.717325 
L 351.559554 96.303753 
L 351.878411 116.399378 
L 352.197268 115.973697 
L 352.516125 116.850814 
L 352.834982 103.219509 
L 353.472696 114.587647 
L 353.791554 110.673096 
L 354.110411 134.269781 
L 354.429268 99.627091 
L 354.748125 96.050081 
L 355.066982 110.768853 
L 355.385839 118.638456 
L 355.704696 122.321114 
L 356.023554 110.228869 
L 356.342411 107.944734 
L 356.661268 102.256281 
L 357.298982 122.892417 
L 357.617839 119.567171 
L 357.936696 110.233207 
L 358.255554 110.969868 
L 358.574411 110.310041 
L 358.893268 104.237969 
L 359.212125 114.665679 
L 359.530982 119.447815 
L 359.849839 110.434834 
L 360.168696 121.08399 
L 360.487554 98.723182 
L 360.806411 123.514094 
L 361.125268 105.202655 
L 361.444125 97.436266 
L 361.762982 96.612573 
L 362.081839 104.028774 
L 362.400696 130.183103 
L 362.719554 107.778086 
L 363.038411 110.099777 
L 363.676125 95.137226 
L 363.994982 150.387974 
L 364.313839 98.849727 
L 364.632696 119.636695 
L 364.951554 122.080873 
L 365.270411 134.08038 
L 365.589268 106.65023 
L 365.908125 100.301768 
L 366.226982 101.716843 
L 366.545839 108.784794 
L 366.864696 109.772945 
L 367.183554 118.141428 
L 367.502411 119.447522 
L 367.821268 101.236681 
L 368.458982 118.420423 
L 368.777839 111.171749 
L 369.096696 121.494975 
L 369.415554 112.28109 
L 369.734411 110.697037 
L 370.053268 116.592021 
L 370.372125 103.142422 
L 370.690982 117.478191 
L 371.009839 111.40729 
L 371.328696 130.983651 
L 371.647554 109.251354 
L 371.966411 110.334667 
L 372.285268 102.0906 
L 372.604125 107.963868 
L 372.922982 110.959472 
L 373.241839 122.911095 
L 373.560696 110.077521 
L 373.879554 101.901609 
L 374.198411 124.994571 
L 374.517268 118.595676 
L 374.836125 115.662879 
L 375.154982 101.523161 
L 375.473839 124.033857 
L 375.792696 111.377339 
L 376.111554 132.003137 
L 376.430411 126.043773 
L 376.749268 98.465097 
L 377.068125 104.682772 
L 377.705839 132.198344 
L 378.024696 112.663055 
L 378.343554 120.563742 
L 378.662411 124.590163 
L 378.981268 104.179596 
L 379.300125 107.195472 
L 379.618982 96.188695 
L 379.937839 111.94808 
L 380.256696 115.470808 
L 380.575554 122.475544 
L 380.894411 109.865397 
L 381.213268 103.614314 
L 381.532125 112.159774 
L 381.850982 111.909833 
L 382.169839 121.530102 
L 382.807554 104.811173 
L 383.445268 118.119193 
L 383.764125 130.597473 
L 384.082982 115.008127 
L 384.401839 119.837894 
L 384.720696 103.79218 
L 385.039554 109.14205 
L 385.358411 101.580595 
L 385.677268 103.950938 
L 385.996125 115.457497 
L 386.314982 113.599349 
L 386.633839 101.721037 
L 386.952696 108.15165 
L 387.271554 107.784918 
L 387.590411 100.958557 
L 387.909268 101.530091 
L 388.228125 117.950274 
L 388.546982 122.835811 
L 388.865839 118.223063 
L 389.503554 102.711641 
L 389.822411 102.45825 
L 390.141268 106.968738 
L 390.460125 128.549318 
L 390.778982 132.110386 
L 391.097839 111.965758 
L 391.416696 106.970745 
L 391.735554 109.978482 
L 392.054411 120.001794 
L 392.373268 105.175672 
L 392.692125 116.242799 
L 393.010982 111.690146 
L 393.329839 122.032345 
L 393.648696 106.538795 
L 393.967554 116.269469 
L 394.286411 110.578459 
L 394.605268 118.813242 
L 394.924125 115.903005 
L 395.561839 102.826663 
L 395.880696 106.948716 
L 396.199554 107.813309 
L 396.518411 107.685908 
L 396.837268 118.105283 
L 397.156125 106.413238 
L 397.474982 101.612967 
L 397.793839 104.102418 
L 398.112696 103.154526 
L 398.431554 122.098287 
L 398.750411 126.628137 
L 399.069268 102.578344 
L 399.388125 111.160145 
L 399.706982 112.078951 
L 400.025839 142.670983 
L 400.344696 102.861851 
L 400.663554 115.343538 
L 400.982411 115.524897 
L 401.620125 104.734698 
L 401.938982 106.071296 
L 402.257839 129.703913 
L 402.576696 104.355208 
L 402.895554 106.629076 
L 403.214411 107.763825 
L 403.533268 98.313469 
L 403.852125 100.032096 
L 404.170982 107.963265 
L 404.489839 100.367707 
L 404.808696 112.726464 
L 405.127554 112.220936 
L 405.446411 107.137582 
L 405.765268 100.160089 
L 406.084125 107.915305 
L 406.402982 106.298966 
L 406.721839 111.822331 
L 407.040696 103.904353 
L 407.359554 104.455767 
L 407.997268 108.782232 
L 408.316125 102.599357 
L 408.634982 115.364 
L 408.953839 113.104892 
L 409.272696 100.78533 
L 409.591554 101.674746 
L 409.910411 99.913351 
L 410.229268 109.866158 
L 410.548125 104.381162 
L 410.866982 145.923357 
L 411.185839 96.019158 
L 411.504696 107.407589 
L 411.823554 110.490785 
L 412.142411 118.675677 
L 412.461268 102.356671 
L 412.780125 101.938382 
L 413.098982 98.678921 
L 413.417839 97.983785 
L 413.736696 116.280128 
L 414.055554 101.064087 
L 414.374411 108.294334 
L 414.693268 111.822812 
L 415.012125 127.024145 
L 415.330982 114.254036 
L 415.649839 118.939043 
L 415.968696 96.79426 
L 416.287554 113.007537 
L 416.606411 110.476093 
L 417.244125 107.811426 
L 417.562982 129.665171 
L 417.881839 98.148512 
L 418.200696 104.665832 
L 418.519554 119.663662 
L 418.838411 120.458058 
L 419.476125 114.735285 
L 419.794982 98.708523 
L 420.113839 113.893586 
L 420.432696 108.972514 
L 420.751554 140.811137 
L 421.070411 109.829206 
L 421.389268 122.517504 
L 421.708125 114.311683 
L 422.026982 102.235796 
L 422.345839 114.754703 
L 422.664696 117.10819 
L 422.983554 100.762651 
L 423.302411 107.628365 
L 423.621268 122.934277 
L 423.940125 117.439771 
L 424.258982 102.666674 
L 424.577839 99.768791 
L 424.896696 103.109027 
L 425.215554 135.131859 
L 425.534411 104.405232 
L 425.853268 96.862518 
L 426.172125 105.632494 
L 426.490982 95.221656 
L 426.809839 101.758428 
L 427.128696 155.450338 
L 427.447554 125.372776 
L 427.766411 113.120892 
L 428.404125 99.974736 
L 428.722982 109.610316 
L 429.041839 100.469912 
L 429.360696 122.848744 
L 429.679554 103.910425 
L 429.998411 102.607766 
L 430.317268 123.408718 
L 430.636125 99.470074 
L 430.954982 133.390231 
L 431.273839 107.73816 
L 431.592696 119.089024 
L 431.911554 104.168236 
L 432.230411 105.552164 
L 432.549268 108.097582 
L 432.868125 115.269076 
L 433.186982 103.578296 
L 433.505839 115.220484 
L 433.824696 102.868383 
L 434.143554 111.774561 
L 434.462411 115.04649 
L 434.781268 101.503683 
L 435.100125 101.343972 
L 435.418982 117.188233 
L 435.737839 100.757351 
L 436.056696 103.907756 
L 436.375554 100.176479 
L 436.694411 103.198253 
L 437.013268 120.042699 
L 437.332125 103.923951 
L 437.650982 111.583666 
L 437.969839 109.612887 
L 438.288696 111.401746 
L 438.607554 106.953854 
L 438.926411 128.268122 
L 439.245268 112.025076 
L 439.564125 117.505232 
L 439.882982 95.596369 
L 440.520696 117.302558 
L 440.839554 104.719946 
L 441.158411 102.718878 
L 441.477268 96.360813 
L 441.796125 115.216285 
L 442.114982 104.201678 
L 442.433839 119.102203 
L 442.752696 105.385676 
L 443.071554 121.544454 
L 443.709268 100.168383 
L 444.028125 104.973702 
L 444.346982 105.721587 
L 444.665839 127.426912 
L 444.984696 100.273441 
L 445.303554 109.519981 
L 445.622411 106.011103 
L 445.941268 107.957992 
L 446.260125 119.3255 
L 446.578982 108.526042 
L 446.897839 108.43437 
L 447.216696 107.537695 
L 447.535554 103.911559 
L 447.854411 103.570337 
L 448.173268 119.431403 
L 448.492125 106.285689 
L 448.810982 105.854572 
L 449.129839 118.707269 
L 449.448696 107.644649 
L 449.767554 121.418425 
L 450.086411 100.278638 
L 450.405268 119.411134 
L 450.724125 119.738018 
L 451.042982 99.688217 
L 451.361839 89.441253 
L 451.680696 109.140213 
L 451.999554 107.652225 
L 452.318411 127.447591 
L 452.637268 120.406604 
L 452.956125 99.592962 
L 453.593839 105.912939 
L 453.912696 105.859011 
L 454.550411 113.729315 
L 454.869268 110.202472 
L 455.188125 109.919792 
L 455.506982 113.873372 
L 455.825839 116.361366 
L 456.463554 100.681537 
L 456.782411 106.557955 
L 457.101268 129.547708 
L 457.420125 100.304762 
L 458.057839 127.665018 
L 458.376696 110.889806 
L 458.695554 115.312526 
L 459.014411 108.56452 
L 459.333268 119.609192 
L 459.652125 114.437071 
L 459.970982 113.198258 
L 460.608696 119.385315 
L 460.927554 112.040869 
L 461.246411 112.488008 
L 461.565268 122.437328 
L 461.884125 116.110745 
L 462.202982 113.366473 
L 462.521839 126.065202 
L 462.840696 119.224397 
L 463.159554 100.861193 
L 463.478411 106.323813 
L 463.797268 117.042046 
L 464.116125 103.988206 
L 464.434982 109.872328 
L 464.753839 125.053311 
L 465.072696 106.826474 
L 465.391554 103.431669 
L 465.710411 98.349025 
L 466.029268 104.211028 
L 466.666982 107.870673 
L 467.304696 126.892703 
L 467.623554 105.946965 
L 467.942411 104.074109 
L 468.261268 125.696433 
L 468.580125 99.431825 
L 468.898982 112.502624 
L 469.217839 101.283079 
L 469.536696 117.503028 
L 469.855554 118.172462 
L 470.174411 109.393049 
L 470.493268 108.192237 
L 470.812125 106.08126 
L 471.130982 106.614418 
L 471.449839 118.513527 
L 471.768696 118.938427 
L 472.087554 104.925041 
L 472.406411 105.145968 
L 472.725268 115.157698 
L 473.044125 102.587637 
L 473.362982 107.830338 
L 473.681839 108.358184 
L 474.000696 107.336119 
L 474.319554 105.865891 
L 474.638411 105.944984 
L 474.957268 106.798868 
L 475.276125 109.686376 
L 475.594982 109.834332 
L 475.913839 108.647156 
L 476.232696 106.780919 
L 476.551554 110.437662 
L 476.870411 106.968758 
L 477.189268 107.300091 
L 477.508125 105.757887 
L 477.826982 102.982108 
L 478.145839 115.44086 
L 478.464696 115.956057 
L 478.783554 114.808323 
L 479.102411 104.771447 
L 479.421268 104.333125 
L 479.740125 108.038504 
L 480.058982 105.506432 
L 480.696696 112.63701 
L 481.015554 109.528591 
L 481.334411 117.043907 
L 481.653268 115.966207 
L 481.972125 140.732998 
L 482.609839 104.50967 
L 482.928696 124.306546 
L 483.247554 116.252455 
L 483.566411 103.534428 
L 483.885268 128.303088 
L 484.204125 108.255515 
L 484.522982 105.910201 
L 484.841839 114.32785 
L 485.160696 116.198842 
L 485.479554 111.765492 
L 486.117268 120.410558 
L 486.436125 104.798011 
L 486.754982 113.319375 
L 487.073839 106.861295 
L 487.392696 110.878582 
L 487.711554 111.054133 
L 488.030411 113.608271 
L 488.349268 111.382567 
L 488.668125 119.246331 
L 488.986982 94.728055 
L 489.624696 115.61516 
L 489.943554 105.366051 
L 490.262411 99.036696 
L 490.581268 111.050663 
L 490.900125 111.565227 
L 491.218982 104.178534 
L 491.537839 115.344806 
L 491.856696 146.011383 
L 492.175554 106.169407 
L 492.494411 104.519895 
L 492.813268 107.64691 
L 493.132125 118.513203 
L 493.769839 99.857115 
L 494.088696 115.467137 
L 494.407554 115.370627 
L 494.726411 103.157411 
L 495.045268 111.107397 
L 495.682982 100.482924 
L 496.001839 109.771441 
L 496.320696 104.193394 
L 496.639554 124.995924 
L 496.958411 112.878543 
L 497.277268 109.279622 
L 497.596125 111.617406 
L 497.914982 96.981461 
L 498.233839 127.151463 
L 498.552696 111.462052 
L 498.871554 114.065246 
L 499.190411 111.180559 
L 499.509268 114.146164 
L 499.828125 131.307458 
L 500.465839 91.497716 
L 500.784696 106.150535 
L 501.103554 108.495464 
L 501.422411 116.123699 
L 501.741268 107.768008 
L 502.060125 104.171073 
L 502.378982 116.879952 
L 502.697839 103.346785 
L 503.016696 122.476001 
L 503.335554 112.62077 
L 503.654411 138.370445 
L 503.973268 111.366558 
L 504.292125 117.984767 
L 504.610982 108.422958 
L 504.929839 107.330966 
L 505.248696 99.030652 
L 505.567554 117.273801 
L 505.886411 110.620629 
L 506.205268 116.263496 
L 506.524125 96.998159 
L 506.842982 117.172614 
L 507.161839 110.93316 
L 507.161839 110.93316 
" style="fill:none;stroke:#0000ff;stroke-linecap:square;stroke-width:0.5;"/>
   </g>
   <g id="patch_3">
    <path d="M 64.588125 368.74175 
L 64.588125 23.14175 
" style="fill:none;stroke:#000000;stroke-linecap:square;stroke-linejoin:miter;"/>
   </g>
   <g id="patch_4">
    <path d="M 510.988125 368.74175 
L 510.988125 23.14175 
" style="fill:none;stroke:#000000;stroke-linecap:square;stroke-linejoin:miter;"/>
   </g>
   <g id="patch_5">
    <path d="M 64.588125 368.74175 
L 510.988125 368.74175 
" style="fill:none;stroke:#000000;stroke-linecap:square;stroke-linejoin:miter;"/>
   </g>
   <g id="patch_6">
    <path d="M 64.588125 23.14175 
L 510.988125 23.14175 
" style="fill:none;stroke:#000000;stroke-linecap:square;stroke-linejoin:miter;"/>
   </g>
   <g id="matplotlib.axis_1">
    <g id="xtick_1">
     <g id="line2d_2">
      <defs>
       <path d="M 0 0 
L 0 -4 
" id="m288e6ce4a8" style="stroke:#000000;stroke-width:0.5;"/>
      </defs>
      <g>
       <use style="stroke:#000000;stroke-width:0.5;" x="64.588125" xlink:href="#m288e6ce4a8" y="368.74175"/>
      </g>
     </g>
     <g id="line2d_3">
      <defs>
       <path d="M 0 0 
L 0 4 
" id="m80de6e2835" style="stroke:#000000;stroke-width:0.5;"/>
      </defs>
      <g>
       <use style="stroke:#000000;stroke-width:0.5;" x="64.588125" xlink:href="#m80de6e2835" y="23.14175"/>
      </g>
     </g>
     <g id="text_1">
      <!-- 0 -->
      <defs>
       <path d="M 31.78125 66.40625 
Q 24.171875 66.40625 20.328125 58.90625 
Q 16.5 51.421875 16.5 36.375 
Q 16.5 21.390625 20.328125 13.890625 
Q 24.171875 6.390625 31.78125 6.390625 
Q 39.453125 6.390625 43.28125 13.890625 
Q 47.125 21.390625 47.125 36.375 
Q 47.125 51.421875 43.28125 58.90625 
Q 39.453125 66.40625 31.78125 66.40625 
M 31.78125 74.21875 
Q 44.046875 74.21875 50.515625 64.515625 
Q 56.984375 54.828125 56.984375 36.375 
Q 56.984375 17.96875 50.515625 8.265625 
Q 44.046875 -1.421875 31.78125 -1.421875 
Q 19.53125 -1.421875 13.0625 8.265625 
Q 6.59375 17.96875 6.59375 36.375 
Q 6.59375 54.828125 13.0625 64.515625 
Q 19.53125 74.21875 31.78125 74.21875 
" id="BitstreamVeraSans-Roman-30"/>
      </defs>
      <g transform="translate(60.770625 381.859875)scale(0.12 -0.12)">
       <use xlink:href="#BitstreamVeraSans-Roman-30"/>
      </g>
     </g>
    </g>
    <g id="xtick_2">
     <g id="line2d_4">
      <g>
       <use style="stroke:#000000;stroke-width:0.5;" x="128.359553571" xlink:href="#m288e6ce4a8" y="368.74175"/>
      </g>
     </g>
     <g id="line2d_5">
      <g>
       <use style="stroke:#000000;stroke-width:0.5;" x="128.359553571" xlink:href="#m80de6e2835" y="23.14175"/>
      </g>
     </g>
     <g id="text_2">
      <!-- 200 -->
      <defs>
       <path d="M 19.1875 8.296875 
L 53.609375 8.296875 
L 53.609375 0 
L 7.328125 0 
L 7.328125 8.296875 
Q 12.9375 14.109375 22.625 23.890625 
Q 32.328125 33.6875 34.8125 36.53125 
Q 39.546875 41.84375 41.421875 45.53125 
Q 43.3125 49.21875 43.3125 52.78125 
Q 43.3125 58.59375 39.234375 62.25 
Q 35.15625 65.921875 28.609375 65.921875 
Q 23.96875 65.921875 18.8125 64.3125 
Q 13.671875 62.703125 7.8125 59.421875 
L 7.8125 69.390625 
Q 13.765625 71.78125 18.9375 73 
Q 24.125 74.21875 28.421875 74.21875 
Q 39.75 74.21875 46.484375 68.546875 
Q 53.21875 62.890625 53.21875 53.421875 
Q 53.21875 48.921875 51.53125 44.890625 
Q 49.859375 40.875 45.40625 35.40625 
Q 44.1875 33.984375 37.640625 27.21875 
Q 31.109375 20.453125 19.1875 8.296875 
" id="BitstreamVeraSans-Roman-32"/>
      </defs>
      <g transform="translate(116.907053571 381.859875)scale(0.12 -0.12)">
       <use xlink:href="#BitstreamVeraSans-Roman-32"/>
       <use x="63.623046875" xlink:href="#BitstreamVeraSans-Roman-30"/>
       <use x="127.24609375" xlink:href="#BitstreamVeraSans-Roman-30"/>
      </g>
     </g>
    </g>
    <g id="xtick_3">
     <g id="line2d_6">
      <g>
       <use style="stroke:#000000;stroke-width:0.5;" x="192.130982143" xlink:href="#m288e6ce4a8" y="368.74175"/>
      </g>
     </g>
     <g id="line2d_7">
      <g>
       <use style="stroke:#000000;stroke-width:0.5;" x="192.130982143" xlink:href="#m80de6e2835" y="23.14175"/>
      </g>
     </g>
     <g id="text_3">
      <!-- 400 -->
      <defs>
       <path d="M 37.796875 64.3125 
L 12.890625 25.390625 
L 37.796875 25.390625 
z
M 35.203125 72.90625 
L 47.609375 72.90625 
L 47.609375 25.390625 
L 58.015625 25.390625 
L 58.015625 17.1875 
L 47.609375 17.1875 
L 47.609375 0 
L 37.796875 0 
L 37.796875 17.1875 
L 4.890625 17.1875 
L 4.890625 26.703125 
z
" id="BitstreamVeraSans-Roman-34"/>
      </defs>
      <g transform="translate(180.678482143 381.859875)scale(0.12 -0.12)">
       <use xlink:href="#BitstreamVeraSans-Roman-34"/>
       <use x="63.623046875" xlink:href="#BitstreamVeraSans-Roman-30"/>
       <use x="127.24609375" xlink:href="#BitstreamVeraSans-Roman-30"/>
      </g>
     </g>
    </g>
    <g id="xtick_4">
     <g id="line2d_8">
      <g>
       <use style="stroke:#000000;stroke-width:0.5;" x="255.902410714" xlink:href="#m288e6ce4a8" y="368.74175"/>
      </g>
     </g>
     <g id="line2d_9">
      <g>
       <use style="stroke:#000000;stroke-width:0.5;" x="255.902410714" xlink:href="#m80de6e2835" y="23.14175"/>
      </g>
     </g>
     <g id="text_4">
      <!-- 600 -->
      <defs>
       <path d="M 33.015625 40.375 
Q 26.375 40.375 22.484375 35.828125 
Q 18.609375 31.296875 18.609375 23.390625 
Q 18.609375 15.53125 22.484375 10.953125 
Q 26.375 6.390625 33.015625 6.390625 
Q 39.65625 6.390625 43.53125 10.953125 
Q 47.40625 15.53125 47.40625 23.390625 
Q 47.40625 31.296875 43.53125 35.828125 
Q 39.65625 40.375 33.015625 40.375 
M 52.59375 71.296875 
L 52.59375 62.3125 
Q 48.875 64.0625 45.09375 64.984375 
Q 41.3125 65.921875 37.59375 65.921875 
Q 27.828125 65.921875 22.671875 59.328125 
Q 17.53125 52.734375 16.796875 39.40625 
Q 19.671875 43.65625 24.015625 45.921875 
Q 28.375 48.1875 33.59375 48.1875 
Q 44.578125 48.1875 50.953125 41.515625 
Q 57.328125 34.859375 57.328125 23.390625 
Q 57.328125 12.15625 50.6875 5.359375 
Q 44.046875 -1.421875 33.015625 -1.421875 
Q 20.359375 -1.421875 13.671875 8.265625 
Q 6.984375 17.96875 6.984375 36.375 
Q 6.984375 53.65625 15.1875 63.9375 
Q 23.390625 74.21875 37.203125 74.21875 
Q 40.921875 74.21875 44.703125 73.484375 
Q 48.484375 72.75 52.59375 71.296875 
" id="BitstreamVeraSans-Roman-36"/>
      </defs>
      <g transform="translate(244.449910714 381.859875)scale(0.12 -0.12)">
       <use xlink:href="#BitstreamVeraSans-Roman-36"/>
       <use x="63.623046875" xlink:href="#BitstreamVeraSans-Roman-30"/>
       <use x="127.24609375" xlink:href="#BitstreamVeraSans-Roman-30"/>
      </g>
     </g>
    </g>
    <g id="xtick_5">
     <g id="line2d_10">
      <g>
       <use style="stroke:#000000;stroke-width:0.5;" x="319.673839286" xlink:href="#m288e6ce4a8" y="368.74175"/>
      </g>
     </g>
     <g id="line2d_11">
      <g>
       <use style="stroke:#000000;stroke-width:0.5;" x="319.673839286" xlink:href="#m80de6e2835" y="23.14175"/>
      </g>
     </g>
     <g id="text_5">
      <!-- 800 -->
      <defs>
       <path d="M 31.78125 34.625 
Q 24.75 34.625 20.71875 30.859375 
Q 16.703125 27.09375 16.703125 20.515625 
Q 16.703125 13.921875 20.71875 10.15625 
Q 24.75 6.390625 31.78125 6.390625 
Q 38.8125 6.390625 42.859375 10.171875 
Q 46.921875 13.96875 46.921875 20.515625 
Q 46.921875 27.09375 42.890625 30.859375 
Q 38.875 34.625 31.78125 34.625 
M 21.921875 38.8125 
Q 15.578125 40.375 12.03125 44.71875 
Q 8.5 49.078125 8.5 55.328125 
Q 8.5 64.0625 14.71875 69.140625 
Q 20.953125 74.21875 31.78125 74.21875 
Q 42.671875 74.21875 48.875 69.140625 
Q 55.078125 64.0625 55.078125 55.328125 
Q 55.078125 49.078125 51.53125 44.71875 
Q 48 40.375 41.703125 38.8125 
Q 48.828125 37.15625 52.796875 32.3125 
Q 56.78125 27.484375 56.78125 20.515625 
Q 56.78125 9.90625 50.3125 4.234375 
Q 43.84375 -1.421875 31.78125 -1.421875 
Q 19.734375 -1.421875 13.25 4.234375 
Q 6.78125 9.90625 6.78125 20.515625 
Q 6.78125 27.484375 10.78125 32.3125 
Q 14.796875 37.15625 21.921875 38.8125 
M 18.3125 54.390625 
Q 18.3125 48.734375 21.84375 45.5625 
Q 25.390625 42.390625 31.78125 42.390625 
Q 38.140625 42.390625 41.71875 45.5625 
Q 45.3125 48.734375 45.3125 54.390625 
Q 45.3125 60.0625 41.71875 63.234375 
Q 38.140625 66.40625 31.78125 66.40625 
Q 25.390625 66.40625 21.84375 63.234375 
Q 18.3125 60.0625 18.3125 54.390625 
" id="BitstreamVeraSans-Roman-38"/>
      </defs>
      <g transform="translate(308.221339286 381.859875)scale(0.12 -0.12)">
       <use xlink:href="#BitstreamVeraSans-Roman-38"/>
       <use x="63.623046875" xlink:href="#BitstreamVeraSans-Roman-30"/>
       <use x="127.24609375" xlink:href="#BitstreamVeraSans-Roman-30"/>
      </g>
     </g>
    </g>
    <g id="xtick_6">
     <g id="line2d_12">
      <g>
       <use style="stroke:#000000;stroke-width:0.5;" x="383.445267857" xlink:href="#m288e6ce4a8" y="368.74175"/>
      </g>
     </g>
     <g id="line2d_13">
      <g>
       <use style="stroke:#000000;stroke-width:0.5;" x="383.445267857" xlink:href="#m80de6e2835" y="23.14175"/>
      </g>
     </g>
     <g id="text_6">
      <!-- 1000 -->
      <defs>
       <path d="M 12.40625 8.296875 
L 28.515625 8.296875 
L 28.515625 63.921875 
L 10.984375 60.40625 
L 10.984375 69.390625 
L 28.421875 72.90625 
L 38.28125 72.90625 
L 38.28125 8.296875 
L 54.390625 8.296875 
L 54.390625 0 
L 12.40625 0 
z
" id="BitstreamVeraSans-Roman-31"/>
      </defs>
      <g transform="translate(368.175267857 381.859875)scale(0.12 -0.12)">
       <use xlink:href="#BitstreamVeraSans-Roman-31"/>
       <use x="63.623046875" xlink:href="#BitstreamVeraSans-Roman-30"/>
       <use x="127.24609375" xlink:href="#BitstreamVeraSans-Roman-30"/>
       <use x="190.869140625" xlink:href="#BitstreamVeraSans-Roman-30"/>
      </g>
     </g>
    </g>
    <g id="xtick_7">
     <g id="line2d_14">
      <g>
       <use style="stroke:#000000;stroke-width:0.5;" x="447.216696429" xlink:href="#m288e6ce4a8" y="368.74175"/>
      </g>
     </g>
     <g id="line2d_15">
      <g>
       <use style="stroke:#000000;stroke-width:0.5;" x="447.216696429" xlink:href="#m80de6e2835" y="23.14175"/>
      </g>
     </g>
     <g id="text_7">
      <!-- 1200 -->
      <g transform="translate(431.946696429 381.859875)scale(0.12 -0.12)">
       <use xlink:href="#BitstreamVeraSans-Roman-31"/>
       <use x="63.623046875" xlink:href="#BitstreamVeraSans-Roman-32"/>
       <use x="127.24609375" xlink:href="#BitstreamVeraSans-Roman-30"/>
       <use x="190.869140625" xlink:href="#BitstreamVeraSans-Roman-30"/>
      </g>
     </g>
    </g>
    <g id="xtick_8">
     <g id="line2d_16">
      <g>
       <use style="stroke:#000000;stroke-width:0.5;" x="510.988125" xlink:href="#m288e6ce4a8" y="368.74175"/>
      </g>
     </g>
     <g id="line2d_17">
      <g>
       <use style="stroke:#000000;stroke-width:0.5;" x="510.988125" xlink:href="#m80de6e2835" y="23.14175"/>
      </g>
     </g>
     <g id="text_8">
      <!-- 1400 -->
      <g transform="translate(495.718125 381.859875)scale(0.12 -0.12)">
       <use xlink:href="#BitstreamVeraSans-Roman-31"/>
       <use x="63.623046875" xlink:href="#BitstreamVeraSans-Roman-34"/>
       <use x="127.24609375" xlink:href="#BitstreamVeraSans-Roman-30"/>
       <use x="190.869140625" xlink:href="#BitstreamVeraSans-Roman-30"/>
      </g>
     </g>
    </g>
    <g id="text_9">
     <!-- episodes -->
     <defs>
      <path d="M 9.421875 54.6875 
L 18.40625 54.6875 
L 18.40625 0 
L 9.421875 0 
z
M 9.421875 75.984375 
L 18.40625 75.984375 
L 18.40625 64.59375 
L 9.421875 64.59375 
z
" id="BitstreamVeraSans-Roman-69"/>
      <path d="M 44.28125 53.078125 
L 44.28125 44.578125 
Q 40.484375 46.53125 36.375 47.5 
Q 32.28125 48.484375 27.875 48.484375 
Q 21.1875 48.484375 17.84375 46.4375 
Q 14.5 44.390625 14.5 40.28125 
Q 14.5 37.15625 16.890625 35.375 
Q 19.28125 33.59375 26.515625 31.984375 
L 29.59375 31.296875 
Q 39.15625 29.25 43.1875 25.515625 
Q 47.21875 21.78125 47.21875 15.09375 
Q 47.21875 7.46875 41.1875 3.015625 
Q 35.15625 -1.421875 24.609375 -1.421875 
Q 20.21875 -1.421875 15.453125 -0.5625 
Q 10.6875 0.296875 5.421875 2 
L 5.421875 11.28125 
Q 10.40625 8.6875 15.234375 7.390625 
Q 20.0625 6.109375 24.8125 6.109375 
Q 31.15625 6.109375 34.5625 8.28125 
Q 37.984375 10.453125 37.984375 14.40625 
Q 37.984375 18.0625 35.515625 20.015625 
Q 33.0625 21.96875 24.703125 23.78125 
L 21.578125 24.515625 
Q 13.234375 26.265625 9.515625 29.90625 
Q 5.8125 33.546875 5.8125 39.890625 
Q 5.8125 47.609375 11.28125 51.796875 
Q 16.75 56 26.8125 56 
Q 31.78125 56 36.171875 55.265625 
Q 40.578125 54.546875 44.28125 53.078125 
" id="BitstreamVeraSans-Roman-73"/>
      <path d="M 18.109375 8.203125 
L 18.109375 -20.796875 
L 9.078125 -20.796875 
L 9.078125 54.6875 
L 18.109375 54.6875 
L 18.109375 46.390625 
Q 20.953125 51.265625 25.265625 53.625 
Q 29.59375 56 35.59375 56 
Q 45.5625 56 51.78125 48.09375 
Q 58.015625 40.1875 58.015625 27.296875 
Q 58.015625 14.40625 51.78125 6.484375 
Q 45.5625 -1.421875 35.59375 -1.421875 
Q 29.59375 -1.421875 25.265625 0.953125 
Q 20.953125 3.328125 18.109375 8.203125 
M 48.6875 27.296875 
Q 48.6875 37.203125 44.609375 42.84375 
Q 40.53125 48.484375 33.40625 48.484375 
Q 26.265625 48.484375 22.1875 42.84375 
Q 18.109375 37.203125 18.109375 27.296875 
Q 18.109375 17.390625 22.1875 11.75 
Q 26.265625 6.109375 33.40625 6.109375 
Q 40.53125 6.109375 44.609375 11.75 
Q 48.6875 17.390625 48.6875 27.296875 
" id="BitstreamVeraSans-Roman-70"/>
      <path d="M 30.609375 48.390625 
Q 23.390625 48.390625 19.1875 42.75 
Q 14.984375 37.109375 14.984375 27.296875 
Q 14.984375 17.484375 19.15625 11.84375 
Q 23.34375 6.203125 30.609375 6.203125 
Q 37.796875 6.203125 41.984375 11.859375 
Q 46.1875 17.53125 46.1875 27.296875 
Q 46.1875 37.015625 41.984375 42.703125 
Q 37.796875 48.390625 30.609375 48.390625 
M 30.609375 56 
Q 42.328125 56 49.015625 48.375 
Q 55.71875 40.765625 55.71875 27.296875 
Q 55.71875 13.875 49.015625 6.21875 
Q 42.328125 -1.421875 30.609375 -1.421875 
Q 18.84375 -1.421875 12.171875 6.21875 
Q 5.515625 13.875 5.515625 27.296875 
Q 5.515625 40.765625 12.171875 48.375 
Q 18.84375 56 30.609375 56 
" id="BitstreamVeraSans-Roman-6f"/>
      <path d="M 56.203125 29.59375 
L 56.203125 25.203125 
L 14.890625 25.203125 
Q 15.484375 15.921875 20.484375 11.0625 
Q 25.484375 6.203125 34.421875 6.203125 
Q 39.59375 6.203125 44.453125 7.46875 
Q 49.3125 8.734375 54.109375 11.28125 
L 54.109375 2.78125 
Q 49.265625 0.734375 44.1875 -0.34375 
Q 39.109375 -1.421875 33.890625 -1.421875 
Q 20.796875 -1.421875 13.15625 6.1875 
Q 5.515625 13.8125 5.515625 26.8125 
Q 5.515625 40.234375 12.765625 48.109375 
Q 20.015625 56 32.328125 56 
Q 43.359375 56 49.78125 48.890625 
Q 56.203125 41.796875 56.203125 29.59375 
M 47.21875 32.234375 
Q 47.125 39.59375 43.09375 43.984375 
Q 39.0625 48.390625 32.421875 48.390625 
Q 24.90625 48.390625 20.390625 44.140625 
Q 15.875 39.890625 15.1875 32.171875 
z
" id="BitstreamVeraSans-Roman-65"/>
      <path d="M 45.40625 46.390625 
L 45.40625 75.984375 
L 54.390625 75.984375 
L 54.390625 0 
L 45.40625 0 
L 45.40625 8.203125 
Q 42.578125 3.328125 38.25 0.953125 
Q 33.9375 -1.421875 27.875 -1.421875 
Q 17.96875 -1.421875 11.734375 6.484375 
Q 5.515625 14.40625 5.515625 27.296875 
Q 5.515625 40.1875 11.734375 48.09375 
Q 17.96875 56 27.875 56 
Q 33.9375 56 38.25 53.625 
Q 42.578125 51.265625 45.40625 46.390625 
M 14.796875 27.296875 
Q 14.796875 17.390625 18.875 11.75 
Q 22.953125 6.109375 30.078125 6.109375 
Q 37.203125 6.109375 41.296875 11.75 
Q 45.40625 17.390625 45.40625 27.296875 
Q 45.40625 37.203125 41.296875 42.84375 
Q 37.203125 48.484375 30.078125 48.484375 
Q 22.953125 48.484375 18.875 42.84375 
Q 14.796875 37.203125 14.796875 27.296875 
" id="BitstreamVeraSans-Roman-64"/>
     </defs>
     <g transform="translate(261.196875 398.473625)scale(0.12 -0.12)">
      <use xlink:href="#BitstreamVeraSans-Roman-65"/>
      <use x="61.5234375" xlink:href="#BitstreamVeraSans-Roman-70"/>
      <use x="125.0" xlink:href="#BitstreamVeraSans-Roman-69"/>
      <use x="152.783203125" xlink:href="#BitstreamVeraSans-Roman-73"/>
      <use x="204.8828125" xlink:href="#BitstreamVeraSans-Roman-6f"/>
      <use x="266.064453125" xlink:href="#BitstreamVeraSans-Roman-64"/>
      <use x="329.541015625" xlink:href="#BitstreamVeraSans-Roman-65"/>
      <use x="391.064453125" xlink:href="#BitstreamVeraSans-Roman-73"/>
     </g>
    </g>
   </g>
   <g id="matplotlib.axis_2">
    <g id="ytick_1">
     <g id="line2d_18">
      <defs>
       <path d="M 0 0 
L 4 0 
" id="m07f98e7d6c" style="stroke:#000000;stroke-width:0.5;"/>
      </defs>
      <g>
       <use style="stroke:#000000;stroke-width:0.5;" x="64.588125" xlink:href="#m07f98e7d6c" y="368.74175"/>
      </g>
     </g>
     <g id="line2d_19">
      <defs>
       <path d="M 0 0 
L -4 0 
" id="m267720bd37" style="stroke:#000000;stroke-width:0.5;"/>
      </defs>
      <g>
       <use style="stroke:#000000;stroke-width:0.5;" x="510.988125" xlink:href="#m267720bd37" y="368.74175"/>
      </g>
     </g>
     <g id="text_10">
      <!-- 0.10 -->
      <defs>
       <path d="M 10.59375 35.5 
L 73.1875 35.5 
L 73.1875 27.203125 
L 10.59375 27.203125 
z
" id="BitstreamVeraSans-Roman-2212"/>
       <path d="M 10.6875 12.40625 
L 21 12.40625 
L 21 0 
L 10.6875 0 
z
" id="BitstreamVeraSans-Roman-2e"/>
      </defs>
      <g transform="translate(23.81375 372.053)scale(0.12 -0.12)">
       <use xlink:href="#BitstreamVeraSans-Roman-2212"/>
       <use x="83.7890625" xlink:href="#BitstreamVeraSans-Roman-30"/>
       <use x="147.412109375" xlink:href="#BitstreamVeraSans-Roman-2e"/>
       <use x="179.19921875" xlink:href="#BitstreamVeraSans-Roman-31"/>
       <use x="242.822265625" xlink:href="#BitstreamVeraSans-Roman-30"/>
      </g>
     </g>
    </g>
    <g id="ytick_2">
     <g id="line2d_20">
      <g>
       <use style="stroke:#000000;stroke-width:0.5;" x="64.588125" xlink:href="#m07f98e7d6c" y="299.62175"/>
      </g>
     </g>
     <g id="line2d_21">
      <g>
       <use style="stroke:#000000;stroke-width:0.5;" x="510.988125" xlink:href="#m267720bd37" y="299.62175"/>
      </g>
     </g>
     <g id="text_11">
      <!-- 0.05 -->
      <defs>
       <path d="M 10.796875 72.90625 
L 49.515625 72.90625 
L 49.515625 64.59375 
L 19.828125 64.59375 
L 19.828125 46.734375 
Q 21.96875 47.46875 24.109375 47.828125 
Q 26.265625 48.1875 28.421875 48.1875 
Q 40.625 48.1875 47.75 41.5 
Q 54.890625 34.8125 54.890625 23.390625 
Q 54.890625 11.625 47.5625 5.09375 
Q 40.234375 -1.421875 26.90625 -1.421875 
Q 22.3125 -1.421875 17.546875 -0.640625 
Q 12.796875 0.140625 7.71875 1.703125 
L 7.71875 11.625 
Q 12.109375 9.234375 16.796875 8.0625 
Q 21.484375 6.890625 26.703125 6.890625 
Q 35.15625 6.890625 40.078125 11.328125 
Q 45.015625 15.765625 45.015625 23.390625 
Q 45.015625 31 40.078125 35.4375 
Q 35.15625 39.890625 26.703125 39.890625 
Q 22.75 39.890625 18.8125 39.015625 
Q 14.890625 38.140625 10.796875 36.28125 
z
" id="BitstreamVeraSans-Roman-35"/>
      </defs>
      <g transform="translate(23.81375 302.933)scale(0.12 -0.12)">
       <use xlink:href="#BitstreamVeraSans-Roman-2212"/>
       <use x="83.7890625" xlink:href="#BitstreamVeraSans-Roman-30"/>
       <use x="147.412109375" xlink:href="#BitstreamVeraSans-Roman-2e"/>
       <use x="179.19921875" xlink:href="#BitstreamVeraSans-Roman-30"/>
       <use x="242.822265625" xlink:href="#BitstreamVeraSans-Roman-35"/>
      </g>
     </g>
    </g>
    <g id="ytick_3">
     <g id="line2d_22">
      <g>
       <use style="stroke:#000000;stroke-width:0.5;" x="64.588125" xlink:href="#m07f98e7d6c" y="230.50175"/>
      </g>
     </g>
     <g id="line2d_23">
      <g>
       <use style="stroke:#000000;stroke-width:0.5;" x="510.988125" xlink:href="#m267720bd37" y="230.50175"/>
      </g>
     </g>
     <g id="text_12">
      <!-- 0.00 -->
      <g transform="translate(33.869375 233.813)scale(0.12 -0.12)">
       <use xlink:href="#BitstreamVeraSans-Roman-30"/>
       <use x="63.623046875" xlink:href="#BitstreamVeraSans-Roman-2e"/>
       <use x="95.41015625" xlink:href="#BitstreamVeraSans-Roman-30"/>
       <use x="159.033203125" xlink:href="#BitstreamVeraSans-Roman-30"/>
      </g>
     </g>
    </g>
    <g id="ytick_4">
     <g id="line2d_24">
      <g>
       <use style="stroke:#000000;stroke-width:0.5;" x="64.588125" xlink:href="#m07f98e7d6c" y="161.38175"/>
      </g>
     </g>
     <g id="line2d_25">
      <g>
       <use style="stroke:#000000;stroke-width:0.5;" x="510.988125" xlink:href="#m267720bd37" y="161.38175"/>
      </g>
     </g>
     <g id="text_13">
      <!-- 0.05 -->
      <g transform="translate(33.869375 164.693)scale(0.12 -0.12)">
       <use xlink:href="#BitstreamVeraSans-Roman-30"/>
       <use x="63.623046875" xlink:href="#BitstreamVeraSans-Roman-2e"/>
       <use x="95.41015625" xlink:href="#BitstreamVeraSans-Roman-30"/>
       <use x="159.033203125" xlink:href="#BitstreamVeraSans-Roman-35"/>
      </g>
     </g>
    </g>
    <g id="ytick_5">
     <g id="line2d_26">
      <g>
       <use style="stroke:#000000;stroke-width:0.5;" x="64.588125" xlink:href="#m07f98e7d6c" y="92.26175"/>
      </g>
     </g>
     <g id="line2d_27">
      <g>
       <use style="stroke:#000000;stroke-width:0.5;" x="510.988125" xlink:href="#m267720bd37" y="92.26175"/>
      </g>
     </g>
     <g id="text_14">
      <!-- 0.10 -->
      <g transform="translate(33.869375 95.573)scale(0.12 -0.12)">
       <use xlink:href="#BitstreamVeraSans-Roman-30"/>
       <use x="63.623046875" xlink:href="#BitstreamVeraSans-Roman-2e"/>
       <use x="95.41015625" xlink:href="#BitstreamVeraSans-Roman-31"/>
       <use x="159.033203125" xlink:href="#BitstreamVeraSans-Roman-30"/>
      </g>
     </g>
    </g>
    <g id="ytick_6">
     <g id="line2d_28">
      <g>
       <use style="stroke:#000000;stroke-width:0.5;" x="64.588125" xlink:href="#m07f98e7d6c" y="23.14175"/>
      </g>
     </g>
     <g id="line2d_29">
      <g>
       <use style="stroke:#000000;stroke-width:0.5;" x="510.988125" xlink:href="#m267720bd37" y="23.14175"/>
      </g>
     </g>
     <g id="text_15">
      <!-- 0.15 -->
      <g transform="translate(33.869375 26.453)scale(0.12 -0.12)">
       <use xlink:href="#BitstreamVeraSans-Roman-30"/>
       <use x="63.623046875" xlink:href="#BitstreamVeraSans-Roman-2e"/>
       <use x="95.41015625" xlink:href="#BitstreamVeraSans-Roman-31"/>
       <use x="159.033203125" xlink:href="#BitstreamVeraSans-Roman-35"/>
      </g>
     </g>
    </g>
    <g id="text_16">
     <!-- average maxQ -->
     <defs>
      <path d="M 52 44.1875 
Q 55.375 50.25 60.0625 53.125 
Q 64.75 56 71.09375 56 
Q 79.640625 56 84.28125 50.015625 
Q 88.921875 44.046875 88.921875 33.015625 
L 88.921875 0 
L 79.890625 0 
L 79.890625 32.71875 
Q 79.890625 40.578125 77.09375 44.375 
Q 74.3125 48.1875 68.609375 48.1875 
Q 61.625 48.1875 57.5625 43.546875 
Q 53.515625 38.921875 53.515625 30.90625 
L 53.515625 0 
L 44.484375 0 
L 44.484375 32.71875 
Q 44.484375 40.625 41.703125 44.40625 
Q 38.921875 48.1875 33.109375 48.1875 
Q 26.21875 48.1875 22.15625 43.53125 
Q 18.109375 38.875 18.109375 30.90625 
L 18.109375 0 
L 9.078125 0 
L 9.078125 54.6875 
L 18.109375 54.6875 
L 18.109375 46.1875 
Q 21.1875 51.21875 25.484375 53.609375 
Q 29.78125 56 35.6875 56 
Q 41.65625 56 45.828125 52.96875 
Q 50 49.953125 52 44.1875 
" id="BitstreamVeraSans-Roman-6d"/>
      <path d="M 39.40625 66.21875 
Q 28.65625 66.21875 22.328125 58.203125 
Q 16.015625 50.203125 16.015625 36.375 
Q 16.015625 22.609375 22.328125 14.59375 
Q 28.65625 6.59375 39.40625 6.59375 
Q 50.140625 6.59375 56.421875 14.59375 
Q 62.703125 22.609375 62.703125 36.375 
Q 62.703125 50.203125 56.421875 58.203125 
Q 50.140625 66.21875 39.40625 66.21875 
M 53.21875 1.3125 
L 66.21875 -12.890625 
L 54.296875 -12.890625 
L 43.5 -1.21875 
Q 41.890625 -1.3125 41.03125 -1.359375 
Q 40.1875 -1.421875 39.40625 -1.421875 
Q 24.03125 -1.421875 14.8125 8.859375 
Q 5.609375 19.140625 5.609375 36.375 
Q 5.609375 53.65625 14.8125 63.9375 
Q 24.03125 74.21875 39.40625 74.21875 
Q 54.734375 74.21875 63.90625 63.9375 
Q 73.09375 53.65625 73.09375 36.375 
Q 73.09375 23.6875 67.984375 14.640625 
Q 62.890625 5.609375 53.21875 1.3125 
" id="BitstreamVeraSans-Roman-51"/>
      <path d="M 2.984375 54.6875 
L 12.5 54.6875 
L 29.59375 8.796875 
L 46.6875 54.6875 
L 56.203125 54.6875 
L 35.6875 0 
L 23.484375 0 
z
" id="BitstreamVeraSans-Roman-76"/>
      <path d="M 45.40625 27.984375 
Q 45.40625 37.75 41.375 43.109375 
Q 37.359375 48.484375 30.078125 48.484375 
Q 22.859375 48.484375 18.828125 43.109375 
Q 14.796875 37.75 14.796875 27.984375 
Q 14.796875 18.265625 18.828125 12.890625 
Q 22.859375 7.515625 30.078125 7.515625 
Q 37.359375 7.515625 41.375 12.890625 
Q 45.40625 18.265625 45.40625 27.984375 
M 54.390625 6.78125 
Q 54.390625 -7.171875 48.1875 -13.984375 
Q 42 -20.796875 29.203125 -20.796875 
Q 24.46875 -20.796875 20.265625 -20.09375 
Q 16.0625 -19.390625 12.109375 -17.921875 
L 12.109375 -9.1875 
Q 16.0625 -11.328125 19.921875 -12.34375 
Q 23.78125 -13.375 27.78125 -13.375 
Q 36.625 -13.375 41.015625 -8.765625 
Q 45.40625 -4.15625 45.40625 5.171875 
L 45.40625 9.625 
Q 42.625 4.78125 38.28125 2.390625 
Q 33.9375 0 27.875 0 
Q 17.828125 0 11.671875 7.65625 
Q 5.515625 15.328125 5.515625 27.984375 
Q 5.515625 40.671875 11.671875 48.328125 
Q 17.828125 56 27.875 56 
Q 33.9375 56 38.28125 53.609375 
Q 42.625 51.21875 45.40625 46.390625 
L 45.40625 54.6875 
L 54.390625 54.6875 
z
" id="BitstreamVeraSans-Roman-67"/>
      <path d="M 54.890625 54.6875 
L 35.109375 28.078125 
L 55.90625 0 
L 45.3125 0 
L 29.390625 21.484375 
L 13.484375 0 
L 2.875 0 
L 24.125 28.609375 
L 4.6875 54.6875 
L 15.28125 54.6875 
L 29.78125 35.203125 
L 44.28125 54.6875 
z
" id="BitstreamVeraSans-Roman-78"/>
      <path d="M 41.109375 46.296875 
Q 39.59375 47.171875 37.8125 47.578125 
Q 36.03125 48 33.890625 48 
Q 26.265625 48 22.1875 43.046875 
Q 18.109375 38.09375 18.109375 28.8125 
L 18.109375 0 
L 9.078125 0 
L 9.078125 54.6875 
L 18.109375 54.6875 
L 18.109375 46.1875 
Q 20.953125 51.171875 25.484375 53.578125 
Q 30.03125 56 36.53125 56 
Q 37.453125 56 38.578125 55.875 
Q 39.703125 55.765625 41.0625 55.515625 
z
" id="BitstreamVeraSans-Roman-72"/>
      <path d="M 34.28125 27.484375 
Q 23.390625 27.484375 19.1875 25 
Q 14.984375 22.515625 14.984375 16.5 
Q 14.984375 11.71875 18.140625 8.90625 
Q 21.296875 6.109375 26.703125 6.109375 
Q 34.1875 6.109375 38.703125 11.40625 
Q 43.21875 16.703125 43.21875 25.484375 
L 43.21875 27.484375 
z
M 52.203125 31.203125 
L 52.203125 0 
L 43.21875 0 
L 43.21875 8.296875 
Q 40.140625 3.328125 35.546875 0.953125 
Q 30.953125 -1.421875 24.3125 -1.421875 
Q 15.921875 -1.421875 10.953125 3.296875 
Q 6 8.015625 6 15.921875 
Q 6 25.140625 12.171875 29.828125 
Q 18.359375 34.515625 30.609375 34.515625 
L 43.21875 34.515625 
L 43.21875 35.40625 
Q 43.21875 41.609375 39.140625 45 
Q 35.0625 48.390625 27.6875 48.390625 
Q 23 48.390625 18.546875 47.265625 
Q 14.109375 46.140625 10.015625 43.890625 
L 10.015625 52.203125 
Q 14.9375 54.109375 19.578125 55.046875 
Q 24.21875 56 28.609375 56 
Q 40.484375 56 46.34375 49.84375 
Q 52.203125 43.703125 52.203125 31.203125 
" id="BitstreamVeraSans-Roman-61"/>
      <path id="BitstreamVeraSans-Roman-20"/>
     </defs>
     <g transform="translate(16.318125 240.208625)rotate(-90.0)scale(0.12 -0.12)">
      <use xlink:href="#BitstreamVeraSans-Roman-61"/>
      <use x="61.279296875" xlink:href="#BitstreamVeraSans-Roman-76"/>
      <use x="120.458984375" xlink:href="#BitstreamVeraSans-Roman-65"/>
      <use x="181.982421875" xlink:href="#BitstreamVeraSans-Roman-72"/>
      <use x="223.095703125" xlink:href="#BitstreamVeraSans-Roman-61"/>
      <use x="284.375" xlink:href="#BitstreamVeraSans-Roman-67"/>
      <use x="347.8515625" xlink:href="#BitstreamVeraSans-Roman-65"/>
      <use x="409.375" xlink:href="#BitstreamVeraSans-Roman-20"/>
      <use x="441.162109375" xlink:href="#BitstreamVeraSans-Roman-6d"/>
      <use x="538.57421875" xlink:href="#BitstreamVeraSans-Roman-61"/>
      <use x="599.853515625" xlink:href="#BitstreamVeraSans-Roman-78"/>
      <use x="659.033203125" xlink:href="#BitstreamVeraSans-Roman-51"/>
     </g>
    </g>
   </g>
   <g id="text_17">
    <!-- Average maxQ per episode, joint1 -->
    <defs>
     <path d="M 11.71875 12.40625 
L 22.015625 12.40625 
L 22.015625 4 
L 14.015625 -11.625 
L 7.71875 -11.625 
L 11.71875 4 
z
" id="BitstreamVeraSans-Roman-2c"/>
     <path d="M 34.1875 63.1875 
L 20.796875 26.90625 
L 47.609375 26.90625 
z
M 28.609375 72.90625 
L 39.796875 72.90625 
L 67.578125 0 
L 57.328125 0 
L 50.6875 18.703125 
L 17.828125 18.703125 
L 11.1875 0 
L 0.78125 0 
z
" id="BitstreamVeraSans-Roman-41"/>
     <path d="M 54.890625 33.015625 
L 54.890625 0 
L 45.90625 0 
L 45.90625 32.71875 
Q 45.90625 40.484375 42.875 44.328125 
Q 39.84375 48.1875 33.796875 48.1875 
Q 26.515625 48.1875 22.3125 43.546875 
Q 18.109375 38.921875 18.109375 30.90625 
L 18.109375 0 
L 9.078125 0 
L 9.078125 54.6875 
L 18.109375 54.6875 
L 18.109375 46.1875 
Q 21.34375 51.125 25.703125 53.5625 
Q 30.078125 56 35.796875 56 
Q 45.21875 56 50.046875 50.171875 
Q 54.890625 44.34375 54.890625 33.015625 
" id="BitstreamVeraSans-Roman-6e"/>
     <path d="M 9.421875 54.6875 
L 18.40625 54.6875 
L 18.40625 -0.984375 
Q 18.40625 -11.421875 14.421875 -16.109375 
Q 10.453125 -20.796875 1.609375 -20.796875 
L -1.8125 -20.796875 
L -1.8125 -13.1875 
L 0.59375 -13.1875 
Q 5.71875 -13.1875 7.5625 -10.8125 
Q 9.421875 -8.453125 9.421875 -0.984375 
z
M 9.421875 75.984375 
L 18.40625 75.984375 
L 18.40625 64.59375 
L 9.421875 64.59375 
z
" id="BitstreamVeraSans-Roman-6a"/>
     <path d="M 18.3125 70.21875 
L 18.3125 54.6875 
L 36.8125 54.6875 
L 36.8125 47.703125 
L 18.3125 47.703125 
L 18.3125 18.015625 
Q 18.3125 11.328125 20.140625 9.421875 
Q 21.96875 7.515625 27.59375 7.515625 
L 36.8125 7.515625 
L 36.8125 0 
L 27.59375 0 
Q 17.1875 0 13.234375 3.875 
Q 9.28125 7.765625 9.28125 18.015625 
L 9.28125 47.703125 
L 2.6875 47.703125 
L 2.6875 54.6875 
L 9.28125 54.6875 
L 9.28125 70.21875 
z
" id="BitstreamVeraSans-Roman-74"/>
    </defs>
    <g transform="translate(164.515125 18.14175)scale(0.144 -0.144)">
     <use xlink:href="#BitstreamVeraSans-Roman-41"/>
     <use x="68.330078125" xlink:href="#BitstreamVeraSans-Roman-76"/>
     <use x="127.509765625" xlink:href="#BitstreamVeraSans-Roman-65"/>
     <use x="189.033203125" xlink:href="#BitstreamVeraSans-Roman-72"/>
     <use x="230.146484375" xlink:href="#BitstreamVeraSans-Roman-61"/>
     <use x="291.42578125" xlink:href="#BitstreamVeraSans-Roman-67"/>
     <use x="354.90234375" xlink:href="#BitstreamVeraSans-Roman-65"/>
     <use x="416.42578125" xlink:href="#BitstreamVeraSans-Roman-20"/>
     <use x="448.212890625" xlink:href="#BitstreamVeraSans-Roman-6d"/>
     <use x="545.625" xlink:href="#BitstreamVeraSans-Roman-61"/>
     <use x="606.904296875" xlink:href="#BitstreamVeraSans-Roman-78"/>
     <use x="666.083984375" xlink:href="#BitstreamVeraSans-Roman-51"/>
     <use x="744.794921875" xlink:href="#BitstreamVeraSans-Roman-20"/>
     <use x="776.58203125" xlink:href="#BitstreamVeraSans-Roman-70"/>
     <use x="840.05859375" xlink:href="#BitstreamVeraSans-Roman-65"/>
     <use x="901.58203125" xlink:href="#BitstreamVeraSans-Roman-72"/>
     <use x="942.6953125" xlink:href="#BitstreamVeraSans-Roman-20"/>
     <use x="974.482421875" xlink:href="#BitstreamVeraSans-Roman-65"/>
     <use x="1036.005859375" xlink:href="#BitstreamVeraSans-Roman-70"/>
     <use x="1099.482421875" xlink:href="#BitstreamVeraSans-Roman-69"/>
     <use x="1127.265625" xlink:href="#BitstreamVeraSans-Roman-73"/>
     <use x="1179.365234375" xlink:href="#BitstreamVeraSans-Roman-6f"/>
     <use x="1240.546875" xlink:href="#BitstreamVeraSans-Roman-64"/>
     <use x="1304.0234375" xlink:href="#BitstreamVeraSans-Roman-65"/>
     <use x="1365.546875" xlink:href="#BitstreamVeraSans-Roman-2c"/>
     <use x="1397.333984375" xlink:href="#BitstreamVeraSans-Roman-20"/>
     <use x="1429.12109375" xlink:href="#BitstreamVeraSans-Roman-6a"/>
     <use x="1456.904296875" xlink:href="#BitstreamVeraSans-Roman-6f"/>
     <use x="1518.0859375" xlink:href="#BitstreamVeraSans-Roman-69"/>
     <use x="1545.869140625" xlink:href="#BitstreamVeraSans-Roman-6e"/>
     <use x="1609.248046875" xlink:href="#BitstreamVeraSans-Roman-74"/>
     <use x="1648.45703125" xlink:href="#BitstreamVeraSans-Roman-31"/>
    </g>
   </g>
  </g>
 </g>
 <defs>
  <clipPath id="p738faf1a02">
   <rect height="345.6" width="446.4" x="64.588125" y="23.14175"/>
  </clipPath>
 </defs>
</svg>
