<?xml version="1.0" encoding="utf-8" standalone="no"?>
<!DOCTYPE svg PUBLIC "-//W3C//DTD SVG 1.1//EN"
  "http://www.w3.org/Graphics/SVG/1.1/DTD/svg11.dtd">
<!-- Created with matplotlib (http://matplotlib.org/) -->
<svg height="408pt" version="1.1" viewBox="0 0 519 408" width="519pt" xmlns="http://www.w3.org/2000/svg" xmlns:xlink="http://www.w3.org/1999/xlink">
 <defs>
  <style type="text/css">
*{stroke-linecap:butt;stroke-linejoin:round;stroke-miterlimit:100000;}
  </style>
 </defs>
 <g id="figure_1">
  <g id="patch_1">
   <path d="M 0 408.16925 
L 519.58875 408.16925 
L 519.58875 0 
L 0 0 
z
" style="fill:#ffffff;"/>
  </g>
  <g id="axes_1">
   <g id="patch_2">
    <path d="M 50.71875 368.74175 
L 497.11875 368.74175 
L 497.11875 23.14175 
L 50.71875 23.14175 
z
" style="fill:#ffffff;"/>
   </g>
   <g id="line2d_1">
    <path clip-path="url(#pfc9b0c132f)" d="M 50.71875 368.74175 
L 52.95075 368.74175 
L 53.32275 368.30975 
L 62.25075 368.30975 
L 62.62275 367.87775 
L 66.71475 367.87775 
L 67.08675 367.44575 
L 71.92275 367.44575 
L 72.29475 367.01375 
L 79.36275 367.01375 
L 79.73475 366.58175 
L 80.10675 366.58175 
L 80.47875 366.14975 
L 81.96675 366.14975 
L 82.33875 365.71775 
L 93.87075 365.71775 
L 94.24275 365.28575 
L 96.10275 365.28575 
L 96.47475 364.85375 
L 97.59075 364.85375 
L 97.96275 364.42175 
L 104.28675 364.42175 
L 105.03075 363.55775 
L 106.14675 363.55775 
L 106.51875 363.12575 
L 109.12275 363.12575 
L 109.49475 362.69375 
L 110.23875 362.69375 
L 110.61075 362.26175 
L 122.14275 362.26175 
L 122.51475 361.82975 
L 123.25875 361.82975 
L 123.63075 361.39775 
L 126.97875 361.39775 
L 127.35075 360.96575 
L 130.69875 360.96575 
L 131.07075 360.53375 
L 133.30275 360.53375 
L 133.67475 360.10175 
L 137.02275 360.10175 
L 137.39475 359.66975 
L 138.13875 359.66975 
L 138.51075 359.23775 
L 140.37075 359.23775 
L 140.74275 358.80575 
L 141.11475 358.80575 
L 141.48675 358.37375 
L 144.83475 358.37375 
L 145.20675 357.94175 
L 146.69475 357.94175 
L 147.06675 357.50975 
L 149.67075 357.50975 
L 150.04275 357.07775 
L 150.41475 357.07775 
L 150.78675 356.64575 
L 154.13475 356.64575 
L 154.50675 356.21375 
L 156.36675 356.21375 
L 156.73875 355.78175 
L 158.22675 355.78175 
L 158.59875 355.34975 
L 158.97075 355.34975 
L 159.34275 354.91775 
L 159.71475 354.91775 
L 160.08675 354.48575 
L 161.57475 354.48575 
L 161.94675 354.05375 
L 164.92275 354.05375 
L 165.29475 353.62175 
L 166.03875 353.62175 
L 166.41075 353.18975 
L 167.89875 353.18975 
L 168.64275 352.32575 
L 170.50275 352.32575 
L 170.87475 351.89375 
L 171.61875 351.89375 
L 171.99075 351.46175 
L 172.36275 351.46175 
L 172.73475 351.02975 
L 174.96675 351.02975 
L 176.08275 349.73375 
L 176.45475 349.73375 
L 176.82675 349.30175 
L 177.19875 349.30175 
L 177.94275 348.43775 
L 178.31475 348.43775 
L 178.68675 348.00575 
L 180.17475 348.00575 
L 181.29075 346.70975 
L 181.66275 346.70975 
L 182.03475 346.27775 
L 182.77875 346.27775 
L 183.15075 345.84575 
L 183.52275 345.84575 
L 183.89475 345.41375 
L 184.26675 345.41375 
L 184.63875 344.98175 
L 185.01075 344.98175 
L 185.38275 344.54975 
L 186.12675 344.54975 
L 187.98675 342.38975 
L 188.35875 342.38975 
L 188.73075 341.95775 
L 189.10275 341.95775 
L 189.47475 341.52575 
L 190.96275 341.52575 
L 192.45075 339.79775 
L 192.82275 339.79775 
L 193.19475 339.36575 
L 196.17075 339.36575 
L 196.54275 338.93375 
L 197.28675 338.93375 
L 199.14675 336.77375 
L 199.51875 336.77375 
L 199.89075 336.34175 
L 200.26275 336.34175 
L 201.37875 335.04575 
L 201.75075 335.04575 
L 202.12275 334.61375 
L 202.49475 334.61375 
L 203.61075 333.31775 
L 204.72675 333.31775 
L 205.47075 332.45375 
L 205.84275 332.45375 
L 206.95875 331.15775 
L 209.56275 331.15775 
L 210.67875 329.86175 
L 211.05075 329.86175 
L 211.42275 329.42975 
L 211.79475 329.42975 
L 212.91075 328.13375 
L 213.28275 328.13375 
L 213.65475 327.70175 
L 214.02675 327.70175 
L 214.39875 327.26975 
L 215.14275 327.26975 
L 216.63075 325.54175 
L 217.00275 325.54175 
L 218.11875 324.24575 
L 218.86275 324.24575 
L 221.09475 321.65375 
L 222.21075 321.65375 
L 223.69875 319.92575 
L 224.44275 319.92575 
L 225.18675 319.06175 
L 225.55875 319.06175 
L 226.30275 318.19775 
L 226.67475 318.19775 
L 227.41875 317.33375 
L 227.79075 317.33375 
L 230.02275 314.74175 
L 230.39475 314.74175 
L 230.76675 314.30975 
L 231.13875 314.30975 
L 231.88275 313.44575 
L 232.25475 313.44575 
L 232.62675 313.01375 
L 232.99875 313.01375 
L 234.48675 311.28575 
L 234.85875 311.28575 
L 235.60275 310.42175 
L 236.34675 310.42175 
L 238.20675 308.26175 
L 238.57875 308.26175 
L 239.32275 307.39775 
L 239.69475 307.39775 
L 240.81075 306.10175 
L 241.18275 306.10175 
L 244.15875 302.64575 
L 245.27475 302.64575 
L 245.64675 302.21375 
L 246.01875 302.21375 
L 247.50675 300.48575 
L 247.87875 300.48575 
L 251.59875 296.16575 
L 252.34275 296.16575 
L 252.71475 295.73375 
L 253.08675 295.73375 
L 253.45875 295.30175 
L 254.20275 295.30175 
L 254.94675 294.43775 
L 255.31875 294.43775 
L 256.43475 293.14175 
L 256.80675 293.14175 
L 257.92275 291.84575 
L 258.29475 291.84575 
L 258.66675 291.41375 
L 259.41075 291.41375 
L 263.87475 286.22975 
L 264.24675 286.22975 
L 264.99075 285.36575 
L 265.36275 285.36575 
L 265.73475 284.93375 
L 266.10675 284.93375 
L 267.96675 282.77375 
L 268.33875 282.77375 
L 275.03475 274.99775 
L 275.40675 274.99775 
L 275.77875 274.56575 
L 276.15075 274.56575 
L 278.75475 271.54175 
L 279.12675 271.54175 
L 280.98675 269.38175 
L 281.35875 269.38175 
L 283.59075 266.78975 
L 283.96275 266.78975 
L 284.70675 265.92575 
L 285.45075 265.92575 
L 288.42675 262.46975 
L 288.79875 262.46975 
L 292.14675 258.58175 
L 293.26275 258.58175 
L 293.63475 258.14975 
L 294.75075 258.14975 
L 297.35475 255.12575 
L 297.72675 255.12575 
L 299.58675 252.96575 
L 299.95875 252.96575 
L 300.70275 252.10175 
L 301.07475 252.10175 
L 302.93475 249.94175 
L 303.30675 249.94175 
L 303.67875 249.50975 
L 304.05075 249.50975 
L 304.42275 249.07775 
L 304.79475 249.07775 
L 306.65475 246.91775 
L 307.02675 246.91775 
L 309.63075 243.89375 
L 310.00275 243.89375 
L 312.23475 241.30175 
L 312.60675 241.30175 
L 312.97875 240.86975 
L 313.35075 240.86975 
L 313.72275 240.43775 
L 314.46675 240.43775 
L 314.83875 240.00575 
L 315.21075 240.00575 
L 316.32675 238.70975 
L 316.69875 238.70975 
L 320.04675 234.82175 
L 320.41875 234.82175 
L 324.51075 230.06975 
L 324.88275 230.06975 
L 325.25475 229.63775 
L 325.62675 229.63775 
L 325.99875 229.20575 
L 326.37075 229.20575 
L 326.74275 228.77375 
L 327.11475 228.77375 
L 327.85875 227.90975 
L 328.23075 227.90975 
L 330.46275 225.31775 
L 330.83475 225.31775 
L 337.90275 217.10975 
L 338.27475 217.10975 
L 342.36675 212.35775 
L 342.73875 212.35775 
L 346.08675 208.46975 
L 346.45875 208.46975 
L 348.69075 205.87775 
L 349.06275 205.87775 
L 352.41075 201.98975 
L 352.78275 201.98975 
L 357.99075 195.94175 
L 358.36275 195.94175 
L 358.73475 195.50975 
L 359.10675 195.50975 
L 359.85075 194.64575 
L 360.22275 194.64575 
L 360.59475 194.21375 
L 360.96675 194.21375 
L 361.71075 193.34975 
L 362.08275 193.34975 
L 362.45475 192.91775 
L 362.82675 192.91775 
L 363.19875 192.48575 
L 363.57075 192.48575 
L 366.54675 189.02975 
L 366.91875 189.02975 
L 371.38275 183.84575 
L 372.49875 183.84575 
L 372.87075 183.41375 
L 373.24275 183.41375 
L 375.47475 180.82175 
L 375.84675 180.82175 
L 376.59075 179.95775 
L 377.33475 179.95775 
L 381.42675 175.20575 
L 381.79875 175.20575 
L 382.54275 174.34175 
L 382.91475 174.34175 
L 383.28675 173.90975 
L 384.03075 173.90975 
L 391.84275 164.83775 
L 392.21475 164.83775 
L 393.33075 163.54175 
L 393.70275 163.54175 
L 394.81875 162.24575 
L 395.19075 162.24575 
L 397.79475 159.22175 
L 398.53875 159.22175 
L 401.14275 156.19775 
L 401.51475 156.19775 
L 403.00275 154.46975 
L 403.37475 154.46975 
L 403.74675 154.03775 
L 404.11875 154.03775 
L 405.23475 152.74175 
L 405.60675 152.74175 
L 406.72275 151.44575 
L 407.46675 151.44575 
L 408.21075 150.58175 
L 408.95475 150.58175 
L 410.07075 149.28575 
L 410.44275 149.28575 
L 416.39475 142.37375 
L 416.76675 142.37375 
L 419.74275 138.91775 
L 420.11475 138.91775 
L 420.48675 138.48575 
L 421.97475 138.48575 
L 422.71875 137.62175 
L 423.09075 137.62175 
L 426.43875 133.73375 
L 427.18275 133.73375 
L 429.04275 131.57375 
L 429.41475 131.57375 
L 432.01875 128.54975 
L 432.39075 128.54975 
L 441.69075 117.74975 
L 442.06275 117.74975 
L 443.92275 115.58975 
L 444.29475 115.58975 
L 444.66675 115.15775 
L 445.03875 115.15775 
L 446.15475 113.86175 
L 446.52675 113.86175 
L 448.75875 111.26975 
L 449.13075 111.26975 
L 455.82675 103.49375 
L 456.19875 103.49375 
L 462.89475 95.71775 
L 463.26675 95.71775 
L 465.87075 92.69375 
L 466.24275 92.69375 
L 466.61475 92.26175 
L 466.98675 92.26175 
L 467.35875 91.82975 
L 467.73075 91.82975 
L 468.47475 90.96575 
L 468.84675 90.96575 
L 469.21875 90.53375 
L 469.59075 90.53375 
L 471.07875 88.80575 
L 471.82275 88.80575 
L 472.56675 87.94175 
L 472.93875 87.94175 
L 474.05475 86.64575 
L 474.42675 86.64575 
L 477.03075 83.62175 
L 477.40275 83.62175 
L 482.23875 78.00575 
L 482.61075 78.00575 
L 484.84275 75.41375 
L 485.21475 75.41375 
L 488.56275 71.52575 
L 488.93475 71.52575 
L 489.67875 70.66175 
L 490.79475 70.66175 
L 491.16675 70.22975 
L 491.53875 70.22975 
L 496.37475 64.61375 
L 496.74675 64.61375 
L 496.74675 64.61375 
" style="fill:none;stroke:#0000ff;stroke-linecap:square;stroke-width:0.5;"/>
   </g>
   <g id="patch_3">
    <path d="M 50.71875 368.74175 
L 50.71875 23.14175 
" style="fill:none;stroke:#000000;stroke-linecap:square;stroke-linejoin:miter;"/>
   </g>
   <g id="patch_4">
    <path d="M 497.11875 368.74175 
L 497.11875 23.14175 
" style="fill:none;stroke:#000000;stroke-linecap:square;stroke-linejoin:miter;"/>
   </g>
   <g id="patch_5">
    <path d="M 50.71875 368.74175 
L 497.11875 368.74175 
" style="fill:none;stroke:#000000;stroke-linecap:square;stroke-linejoin:miter;"/>
   </g>
   <g id="patch_6">
    <path d="M 50.71875 23.14175 
L 497.11875 23.14175 
" style="fill:none;stroke:#000000;stroke-linecap:square;stroke-linejoin:miter;"/>
   </g>
   <g id="matplotlib.axis_1">
    <g id="xtick_1">
     <g id="line2d_2">
      <defs>
       <path d="M 0 0 
L 0 -4 
" id="mef8953660d" style="stroke:#000000;stroke-width:0.5;"/>
      </defs>
      <g>
       <use style="stroke:#000000;stroke-width:0.5;" x="50.71875" xlink:href="#mef8953660d" y="368.74175"/>
      </g>
     </g>
     <g id="line2d_3">
      <defs>
       <path d="M 0 0 
L 0 4 
" id="m07867d1043" style="stroke:#000000;stroke-width:0.5;"/>
      </defs>
      <g>
       <use style="stroke:#000000;stroke-width:0.5;" x="50.71875" xlink:href="#m07867d1043" y="23.14175"/>
      </g>
     </g>
     <g id="text_1">
      <!-- 0 -->
      <defs>
       <path d="M 31.78125 66.40625 
Q 24.171875 66.40625 20.328125 58.90625 
Q 16.5 51.421875 16.5 36.375 
Q 16.5 21.390625 20.328125 13.890625 
Q 24.171875 6.390625 31.78125 6.390625 
Q 39.453125 6.390625 43.28125 13.890625 
Q 47.125 21.390625 47.125 36.375 
Q 47.125 51.421875 43.28125 58.90625 
Q 39.453125 66.40625 31.78125 66.40625 
M 31.78125 74.21875 
Q 44.046875 74.21875 50.515625 64.515625 
Q 56.984375 54.828125 56.984375 36.375 
Q 56.984375 17.96875 50.515625 8.265625 
Q 44.046875 -1.421875 31.78125 -1.421875 
Q 19.53125 -1.421875 13.0625 8.265625 
Q 6.59375 17.96875 6.59375 36.375 
Q 6.59375 54.828125 13.0625 64.515625 
Q 19.53125 74.21875 31.78125 74.21875 
" id="BitstreamVeraSans-Roman-30"/>
      </defs>
      <g transform="translate(46.90125 381.859875)scale(0.12 -0.12)">
       <use xlink:href="#BitstreamVeraSans-Roman-30"/>
      </g>
     </g>
    </g>
    <g id="xtick_2">
     <g id="line2d_4">
      <g>
       <use style="stroke:#000000;stroke-width:0.5;" x="125.11875" xlink:href="#mef8953660d" y="368.74175"/>
      </g>
     </g>
     <g id="line2d_5">
      <g>
       <use style="stroke:#000000;stroke-width:0.5;" x="125.11875" xlink:href="#m07867d1043" y="23.14175"/>
      </g>
     </g>
     <g id="text_2">
      <!-- 200 -->
      <defs>
       <path d="M 19.1875 8.296875 
L 53.609375 8.296875 
L 53.609375 0 
L 7.328125 0 
L 7.328125 8.296875 
Q 12.9375 14.109375 22.625 23.890625 
Q 32.328125 33.6875 34.8125 36.53125 
Q 39.546875 41.84375 41.421875 45.53125 
Q 43.3125 49.21875 43.3125 52.78125 
Q 43.3125 58.59375 39.234375 62.25 
Q 35.15625 65.921875 28.609375 65.921875 
Q 23.96875 65.921875 18.8125 64.3125 
Q 13.671875 62.703125 7.8125 59.421875 
L 7.8125 69.390625 
Q 13.765625 71.78125 18.9375 73 
Q 24.125 74.21875 28.421875 74.21875 
Q 39.75 74.21875 46.484375 68.546875 
Q 53.21875 62.890625 53.21875 53.421875 
Q 53.21875 48.921875 51.53125 44.890625 
Q 49.859375 40.875 45.40625 35.40625 
Q 44.1875 33.984375 37.640625 27.21875 
Q 31.109375 20.453125 19.1875 8.296875 
" id="BitstreamVeraSans-Roman-32"/>
      </defs>
      <g transform="translate(113.66625 381.859875)scale(0.12 -0.12)">
       <use xlink:href="#BitstreamVeraSans-Roman-32"/>
       <use x="63.623046875" xlink:href="#BitstreamVeraSans-Roman-30"/>
       <use x="127.24609375" xlink:href="#BitstreamVeraSans-Roman-30"/>
      </g>
     </g>
    </g>
    <g id="xtick_3">
     <g id="line2d_6">
      <g>
       <use style="stroke:#000000;stroke-width:0.5;" x="199.51875" xlink:href="#mef8953660d" y="368.74175"/>
      </g>
     </g>
     <g id="line2d_7">
      <g>
       <use style="stroke:#000000;stroke-width:0.5;" x="199.51875" xlink:href="#m07867d1043" y="23.14175"/>
      </g>
     </g>
     <g id="text_3">
      <!-- 400 -->
      <defs>
       <path d="M 37.796875 64.3125 
L 12.890625 25.390625 
L 37.796875 25.390625 
z
M 35.203125 72.90625 
L 47.609375 72.90625 
L 47.609375 25.390625 
L 58.015625 25.390625 
L 58.015625 17.1875 
L 47.609375 17.1875 
L 47.609375 0 
L 37.796875 0 
L 37.796875 17.1875 
L 4.890625 17.1875 
L 4.890625 26.703125 
z
" id="BitstreamVeraSans-Roman-34"/>
      </defs>
      <g transform="translate(188.06625 381.859875)scale(0.12 -0.12)">
       <use xlink:href="#BitstreamVeraSans-Roman-34"/>
       <use x="63.623046875" xlink:href="#BitstreamVeraSans-Roman-30"/>
       <use x="127.24609375" xlink:href="#BitstreamVeraSans-Roman-30"/>
      </g>
     </g>
    </g>
    <g id="xtick_4">
     <g id="line2d_8">
      <g>
       <use style="stroke:#000000;stroke-width:0.5;" x="273.91875" xlink:href="#mef8953660d" y="368.74175"/>
      </g>
     </g>
     <g id="line2d_9">
      <g>
       <use style="stroke:#000000;stroke-width:0.5;" x="273.91875" xlink:href="#m07867d1043" y="23.14175"/>
      </g>
     </g>
     <g id="text_4">
      <!-- 600 -->
      <defs>
       <path d="M 33.015625 40.375 
Q 26.375 40.375 22.484375 35.828125 
Q 18.609375 31.296875 18.609375 23.390625 
Q 18.609375 15.53125 22.484375 10.953125 
Q 26.375 6.390625 33.015625 6.390625 
Q 39.65625 6.390625 43.53125 10.953125 
Q 47.40625 15.53125 47.40625 23.390625 
Q 47.40625 31.296875 43.53125 35.828125 
Q 39.65625 40.375 33.015625 40.375 
M 52.59375 71.296875 
L 52.59375 62.3125 
Q 48.875 64.0625 45.09375 64.984375 
Q 41.3125 65.921875 37.59375 65.921875 
Q 27.828125 65.921875 22.671875 59.328125 
Q 17.53125 52.734375 16.796875 39.40625 
Q 19.671875 43.65625 24.015625 45.921875 
Q 28.375 48.1875 33.59375 48.1875 
Q 44.578125 48.1875 50.953125 41.515625 
Q 57.328125 34.859375 57.328125 23.390625 
Q 57.328125 12.15625 50.6875 5.359375 
Q 44.046875 -1.421875 33.015625 -1.421875 
Q 20.359375 -1.421875 13.671875 8.265625 
Q 6.984375 17.96875 6.984375 36.375 
Q 6.984375 53.65625 15.1875 63.9375 
Q 23.390625 74.21875 37.203125 74.21875 
Q 40.921875 74.21875 44.703125 73.484375 
Q 48.484375 72.75 52.59375 71.296875 
" id="BitstreamVeraSans-Roman-36"/>
      </defs>
      <g transform="translate(262.46625 381.859875)scale(0.12 -0.12)">
       <use xlink:href="#BitstreamVeraSans-Roman-36"/>
       <use x="63.623046875" xlink:href="#BitstreamVeraSans-Roman-30"/>
       <use x="127.24609375" xlink:href="#BitstreamVeraSans-Roman-30"/>
      </g>
     </g>
    </g>
    <g id="xtick_5">
     <g id="line2d_10">
      <g>
       <use style="stroke:#000000;stroke-width:0.5;" x="348.31875" xlink:href="#mef8953660d" y="368.74175"/>
      </g>
     </g>
     <g id="line2d_11">
      <g>
       <use style="stroke:#000000;stroke-width:0.5;" x="348.31875" xlink:href="#m07867d1043" y="23.14175"/>
      </g>
     </g>
     <g id="text_5">
      <!-- 800 -->
      <defs>
       <path d="M 31.78125 34.625 
Q 24.75 34.625 20.71875 30.859375 
Q 16.703125 27.09375 16.703125 20.515625 
Q 16.703125 13.921875 20.71875 10.15625 
Q 24.75 6.390625 31.78125 6.390625 
Q 38.8125 6.390625 42.859375 10.171875 
Q 46.921875 13.96875 46.921875 20.515625 
Q 46.921875 27.09375 42.890625 30.859375 
Q 38.875 34.625 31.78125 34.625 
M 21.921875 38.8125 
Q 15.578125 40.375 12.03125 44.71875 
Q 8.5 49.078125 8.5 55.328125 
Q 8.5 64.0625 14.71875 69.140625 
Q 20.953125 74.21875 31.78125 74.21875 
Q 42.671875 74.21875 48.875 69.140625 
Q 55.078125 64.0625 55.078125 55.328125 
Q 55.078125 49.078125 51.53125 44.71875 
Q 48 40.375 41.703125 38.8125 
Q 48.828125 37.15625 52.796875 32.3125 
Q 56.78125 27.484375 56.78125 20.515625 
Q 56.78125 9.90625 50.3125 4.234375 
Q 43.84375 -1.421875 31.78125 -1.421875 
Q 19.734375 -1.421875 13.25 4.234375 
Q 6.78125 9.90625 6.78125 20.515625 
Q 6.78125 27.484375 10.78125 32.3125 
Q 14.796875 37.15625 21.921875 38.8125 
M 18.3125 54.390625 
Q 18.3125 48.734375 21.84375 45.5625 
Q 25.390625 42.390625 31.78125 42.390625 
Q 38.140625 42.390625 41.71875 45.5625 
Q 45.3125 48.734375 45.3125 54.390625 
Q 45.3125 60.0625 41.71875 63.234375 
Q 38.140625 66.40625 31.78125 66.40625 
Q 25.390625 66.40625 21.84375 63.234375 
Q 18.3125 60.0625 18.3125 54.390625 
" id="BitstreamVeraSans-Roman-38"/>
      </defs>
      <g transform="translate(336.86625 381.859875)scale(0.12 -0.12)">
       <use xlink:href="#BitstreamVeraSans-Roman-38"/>
       <use x="63.623046875" xlink:href="#BitstreamVeraSans-Roman-30"/>
       <use x="127.24609375" xlink:href="#BitstreamVeraSans-Roman-30"/>
      </g>
     </g>
    </g>
    <g id="xtick_6">
     <g id="line2d_12">
      <g>
       <use style="stroke:#000000;stroke-width:0.5;" x="422.71875" xlink:href="#mef8953660d" y="368.74175"/>
      </g>
     </g>
     <g id="line2d_13">
      <g>
       <use style="stroke:#000000;stroke-width:0.5;" x="422.71875" xlink:href="#m07867d1043" y="23.14175"/>
      </g>
     </g>
     <g id="text_6">
      <!-- 1000 -->
      <defs>
       <path d="M 12.40625 8.296875 
L 28.515625 8.296875 
L 28.515625 63.921875 
L 10.984375 60.40625 
L 10.984375 69.390625 
L 28.421875 72.90625 
L 38.28125 72.90625 
L 38.28125 8.296875 
L 54.390625 8.296875 
L 54.390625 0 
L 12.40625 0 
z
" id="BitstreamVeraSans-Roman-31"/>
      </defs>
      <g transform="translate(407.44875 381.859875)scale(0.12 -0.12)">
       <use xlink:href="#BitstreamVeraSans-Roman-31"/>
       <use x="63.623046875" xlink:href="#BitstreamVeraSans-Roman-30"/>
       <use x="127.24609375" xlink:href="#BitstreamVeraSans-Roman-30"/>
       <use x="190.869140625" xlink:href="#BitstreamVeraSans-Roman-30"/>
      </g>
     </g>
    </g>
    <g id="xtick_7">
     <g id="line2d_14">
      <g>
       <use style="stroke:#000000;stroke-width:0.5;" x="497.11875" xlink:href="#mef8953660d" y="368.74175"/>
      </g>
     </g>
     <g id="line2d_15">
      <g>
       <use style="stroke:#000000;stroke-width:0.5;" x="497.11875" xlink:href="#m07867d1043" y="23.14175"/>
      </g>
     </g>
     <g id="text_7">
      <!-- 1200 -->
      <g transform="translate(481.84875 381.859875)scale(0.12 -0.12)">
       <use xlink:href="#BitstreamVeraSans-Roman-31"/>
       <use x="63.623046875" xlink:href="#BitstreamVeraSans-Roman-32"/>
       <use x="127.24609375" xlink:href="#BitstreamVeraSans-Roman-30"/>
       <use x="190.869140625" xlink:href="#BitstreamVeraSans-Roman-30"/>
      </g>
     </g>
    </g>
    <g id="text_8">
     <!-- episode -->
     <defs>
      <path d="M 56.203125 29.59375 
L 56.203125 25.203125 
L 14.890625 25.203125 
Q 15.484375 15.921875 20.484375 11.0625 
Q 25.484375 6.203125 34.421875 6.203125 
Q 39.59375 6.203125 44.453125 7.46875 
Q 49.3125 8.734375 54.109375 11.28125 
L 54.109375 2.78125 
Q 49.265625 0.734375 44.1875 -0.34375 
Q 39.109375 -1.421875 33.890625 -1.421875 
Q 20.796875 -1.421875 13.15625 6.1875 
Q 5.515625 13.8125 5.515625 26.8125 
Q 5.515625 40.234375 12.765625 48.109375 
Q 20.015625 56 32.328125 56 
Q 43.359375 56 49.78125 48.890625 
Q 56.203125 41.796875 56.203125 29.59375 
M 47.21875 32.234375 
Q 47.125 39.59375 43.09375 43.984375 
Q 39.0625 48.390625 32.421875 48.390625 
Q 24.90625 48.390625 20.390625 44.140625 
Q 15.875 39.890625 15.1875 32.171875 
z
" id="BitstreamVeraSans-Roman-65"/>
      <path d="M 18.109375 8.203125 
L 18.109375 -20.796875 
L 9.078125 -20.796875 
L 9.078125 54.6875 
L 18.109375 54.6875 
L 18.109375 46.390625 
Q 20.953125 51.265625 25.265625 53.625 
Q 29.59375 56 35.59375 56 
Q 45.5625 56 51.78125 48.09375 
Q 58.015625 40.1875 58.015625 27.296875 
Q 58.015625 14.40625 51.78125 6.484375 
Q 45.5625 -1.421875 35.59375 -1.421875 
Q 29.59375 -1.421875 25.265625 0.953125 
Q 20.953125 3.328125 18.109375 8.203125 
M 48.6875 27.296875 
Q 48.6875 37.203125 44.609375 42.84375 
Q 40.53125 48.484375 33.40625 48.484375 
Q 26.265625 48.484375 22.1875 42.84375 
Q 18.109375 37.203125 18.109375 27.296875 
Q 18.109375 17.390625 22.1875 11.75 
Q 26.265625 6.109375 33.40625 6.109375 
Q 40.53125 6.109375 44.609375 11.75 
Q 48.6875 17.390625 48.6875 27.296875 
" id="BitstreamVeraSans-Roman-70"/>
      <path d="M 45.40625 46.390625 
L 45.40625 75.984375 
L 54.390625 75.984375 
L 54.390625 0 
L 45.40625 0 
L 45.40625 8.203125 
Q 42.578125 3.328125 38.25 0.953125 
Q 33.9375 -1.421875 27.875 -1.421875 
Q 17.96875 -1.421875 11.734375 6.484375 
Q 5.515625 14.40625 5.515625 27.296875 
Q 5.515625 40.1875 11.734375 48.09375 
Q 17.96875 56 27.875 56 
Q 33.9375 56 38.25 53.625 
Q 42.578125 51.265625 45.40625 46.390625 
M 14.796875 27.296875 
Q 14.796875 17.390625 18.875 11.75 
Q 22.953125 6.109375 30.078125 6.109375 
Q 37.203125 6.109375 41.296875 11.75 
Q 45.40625 17.390625 45.40625 27.296875 
Q 45.40625 37.203125 41.296875 42.84375 
Q 37.203125 48.484375 30.078125 48.484375 
Q 22.953125 48.484375 18.875 42.84375 
Q 14.796875 37.203125 14.796875 27.296875 
" id="BitstreamVeraSans-Roman-64"/>
      <path d="M 9.421875 54.6875 
L 18.40625 54.6875 
L 18.40625 0 
L 9.421875 0 
z
M 9.421875 75.984375 
L 18.40625 75.984375 
L 18.40625 64.59375 
L 9.421875 64.59375 
z
" id="BitstreamVeraSans-Roman-69"/>
      <path d="M 30.609375 48.390625 
Q 23.390625 48.390625 19.1875 42.75 
Q 14.984375 37.109375 14.984375 27.296875 
Q 14.984375 17.484375 19.15625 11.84375 
Q 23.34375 6.203125 30.609375 6.203125 
Q 37.796875 6.203125 41.984375 11.859375 
Q 46.1875 17.53125 46.1875 27.296875 
Q 46.1875 37.015625 41.984375 42.703125 
Q 37.796875 48.390625 30.609375 48.390625 
M 30.609375 56 
Q 42.328125 56 49.015625 48.375 
Q 55.71875 40.765625 55.71875 27.296875 
Q 55.71875 13.875 49.015625 6.21875 
Q 42.328125 -1.421875 30.609375 -1.421875 
Q 18.84375 -1.421875 12.171875 6.21875 
Q 5.515625 13.875 5.515625 27.296875 
Q 5.515625 40.765625 12.171875 48.375 
Q 18.84375 56 30.609375 56 
" id="BitstreamVeraSans-Roman-6f"/>
      <path d="M 44.28125 53.078125 
L 44.28125 44.578125 
Q 40.484375 46.53125 36.375 47.5 
Q 32.28125 48.484375 27.875 48.484375 
Q 21.1875 48.484375 17.84375 46.4375 
Q 14.5 44.390625 14.5 40.28125 
Q 14.5 37.15625 16.890625 35.375 
Q 19.28125 33.59375 26.515625 31.984375 
L 29.59375 31.296875 
Q 39.15625 29.25 43.1875 25.515625 
Q 47.21875 21.78125 47.21875 15.09375 
Q 47.21875 7.46875 41.1875 3.015625 
Q 35.15625 -1.421875 24.609375 -1.421875 
Q 20.21875 -1.421875 15.453125 -0.5625 
Q 10.6875 0.296875 5.421875 2 
L 5.421875 11.28125 
Q 10.40625 8.6875 15.234375 7.390625 
Q 20.0625 6.109375 24.8125 6.109375 
Q 31.15625 6.109375 34.5625 8.28125 
Q 37.984375 10.453125 37.984375 14.40625 
Q 37.984375 18.0625 35.515625 20.015625 
Q 33.0625 21.96875 24.703125 23.78125 
L 21.578125 24.515625 
Q 13.234375 26.265625 9.515625 29.90625 
Q 5.8125 33.546875 5.8125 39.890625 
Q 5.8125 47.609375 11.28125 51.796875 
Q 16.75 56 26.8125 56 
Q 31.78125 56 36.171875 55.265625 
Q 40.578125 54.546875 44.28125 53.078125 
" id="BitstreamVeraSans-Roman-73"/>
     </defs>
     <g transform="translate(250.453125 398.473625)scale(0.12 -0.12)">
      <use xlink:href="#BitstreamVeraSans-Roman-65"/>
      <use x="61.5234375" xlink:href="#BitstreamVeraSans-Roman-70"/>
      <use x="125.0" xlink:href="#BitstreamVeraSans-Roman-69"/>
      <use x="152.783203125" xlink:href="#BitstreamVeraSans-Roman-73"/>
      <use x="204.8828125" xlink:href="#BitstreamVeraSans-Roman-6f"/>
      <use x="266.064453125" xlink:href="#BitstreamVeraSans-Roman-64"/>
      <use x="329.541015625" xlink:href="#BitstreamVeraSans-Roman-65"/>
     </g>
    </g>
   </g>
   <g id="matplotlib.axis_2">
    <g id="ytick_1">
     <g id="line2d_16">
      <defs>
       <path d="M 0 0 
L 4 0 
" id="m368932f33b" style="stroke:#000000;stroke-width:0.5;"/>
      </defs>
      <g>
       <use style="stroke:#000000;stroke-width:0.5;" x="50.71875" xlink:href="#m368932f33b" y="368.74175"/>
      </g>
     </g>
     <g id="line2d_17">
      <defs>
       <path d="M 0 0 
L -4 0 
" id="m0fcaeceeae" style="stroke:#000000;stroke-width:0.5;"/>
      </defs>
      <g>
       <use style="stroke:#000000;stroke-width:0.5;" x="497.11875" xlink:href="#m0fcaeceeae" y="368.74175"/>
      </g>
     </g>
     <g id="text_9">
      <!-- 0 -->
      <g transform="translate(39.08375 372.053)scale(0.12 -0.12)">
       <use xlink:href="#BitstreamVeraSans-Roman-30"/>
      </g>
     </g>
    </g>
    <g id="ytick_2">
     <g id="line2d_18">
      <g>
       <use style="stroke:#000000;stroke-width:0.5;" x="50.71875" xlink:href="#m368932f33b" y="325.54175"/>
      </g>
     </g>
     <g id="line2d_19">
      <g>
       <use style="stroke:#000000;stroke-width:0.5;" x="497.11875" xlink:href="#m0fcaeceeae" y="325.54175"/>
      </g>
     </g>
     <g id="text_10">
      <!-- 100 -->
      <g transform="translate(23.81375 328.853)scale(0.12 -0.12)">
       <use xlink:href="#BitstreamVeraSans-Roman-31"/>
       <use x="63.623046875" xlink:href="#BitstreamVeraSans-Roman-30"/>
       <use x="127.24609375" xlink:href="#BitstreamVeraSans-Roman-30"/>
      </g>
     </g>
    </g>
    <g id="ytick_3">
     <g id="line2d_20">
      <g>
       <use style="stroke:#000000;stroke-width:0.5;" x="50.71875" xlink:href="#m368932f33b" y="282.34175"/>
      </g>
     </g>
     <g id="line2d_21">
      <g>
       <use style="stroke:#000000;stroke-width:0.5;" x="497.11875" xlink:href="#m0fcaeceeae" y="282.34175"/>
      </g>
     </g>
     <g id="text_11">
      <!-- 200 -->
      <g transform="translate(23.81375 285.653)scale(0.12 -0.12)">
       <use xlink:href="#BitstreamVeraSans-Roman-32"/>
       <use x="63.623046875" xlink:href="#BitstreamVeraSans-Roman-30"/>
       <use x="127.24609375" xlink:href="#BitstreamVeraSans-Roman-30"/>
      </g>
     </g>
    </g>
    <g id="ytick_4">
     <g id="line2d_22">
      <g>
       <use style="stroke:#000000;stroke-width:0.5;" x="50.71875" xlink:href="#m368932f33b" y="239.14175"/>
      </g>
     </g>
     <g id="line2d_23">
      <g>
       <use style="stroke:#000000;stroke-width:0.5;" x="497.11875" xlink:href="#m0fcaeceeae" y="239.14175"/>
      </g>
     </g>
     <g id="text_12">
      <!-- 300 -->
      <defs>
       <path d="M 40.578125 39.3125 
Q 47.65625 37.796875 51.625 33 
Q 55.609375 28.21875 55.609375 21.1875 
Q 55.609375 10.40625 48.1875 4.484375 
Q 40.765625 -1.421875 27.09375 -1.421875 
Q 22.515625 -1.421875 17.65625 -0.515625 
Q 12.796875 0.390625 7.625 2.203125 
L 7.625 11.71875 
Q 11.71875 9.328125 16.59375 8.109375 
Q 21.484375 6.890625 26.8125 6.890625 
Q 36.078125 6.890625 40.9375 10.546875 
Q 45.796875 14.203125 45.796875 21.1875 
Q 45.796875 27.640625 41.28125 31.265625 
Q 36.765625 34.90625 28.71875 34.90625 
L 20.21875 34.90625 
L 20.21875 43.015625 
L 29.109375 43.015625 
Q 36.375 43.015625 40.234375 45.921875 
Q 44.09375 48.828125 44.09375 54.296875 
Q 44.09375 59.90625 40.109375 62.90625 
Q 36.140625 65.921875 28.71875 65.921875 
Q 24.65625 65.921875 20.015625 65.03125 
Q 15.375 64.15625 9.8125 62.3125 
L 9.8125 71.09375 
Q 15.4375 72.65625 20.34375 73.4375 
Q 25.25 74.21875 29.59375 74.21875 
Q 40.828125 74.21875 47.359375 69.109375 
Q 53.90625 64.015625 53.90625 55.328125 
Q 53.90625 49.265625 50.4375 45.09375 
Q 46.96875 40.921875 40.578125 39.3125 
" id="BitstreamVeraSans-Roman-33"/>
      </defs>
      <g transform="translate(23.81375 242.453)scale(0.12 -0.12)">
       <use xlink:href="#BitstreamVeraSans-Roman-33"/>
       <use x="63.623046875" xlink:href="#BitstreamVeraSans-Roman-30"/>
       <use x="127.24609375" xlink:href="#BitstreamVeraSans-Roman-30"/>
      </g>
     </g>
    </g>
    <g id="ytick_5">
     <g id="line2d_24">
      <g>
       <use style="stroke:#000000;stroke-width:0.5;" x="50.71875" xlink:href="#m368932f33b" y="195.94175"/>
      </g>
     </g>
     <g id="line2d_25">
      <g>
       <use style="stroke:#000000;stroke-width:0.5;" x="497.11875" xlink:href="#m0fcaeceeae" y="195.94175"/>
      </g>
     </g>
     <g id="text_13">
      <!-- 400 -->
      <g transform="translate(23.81375 199.253)scale(0.12 -0.12)">
       <use xlink:href="#BitstreamVeraSans-Roman-34"/>
       <use x="63.623046875" xlink:href="#BitstreamVeraSans-Roman-30"/>
       <use x="127.24609375" xlink:href="#BitstreamVeraSans-Roman-30"/>
      </g>
     </g>
    </g>
    <g id="ytick_6">
     <g id="line2d_26">
      <g>
       <use style="stroke:#000000;stroke-width:0.5;" x="50.71875" xlink:href="#m368932f33b" y="152.74175"/>
      </g>
     </g>
     <g id="line2d_27">
      <g>
       <use style="stroke:#000000;stroke-width:0.5;" x="497.11875" xlink:href="#m0fcaeceeae" y="152.74175"/>
      </g>
     </g>
     <g id="text_14">
      <!-- 500 -->
      <defs>
       <path d="M 10.796875 72.90625 
L 49.515625 72.90625 
L 49.515625 64.59375 
L 19.828125 64.59375 
L 19.828125 46.734375 
Q 21.96875 47.46875 24.109375 47.828125 
Q 26.265625 48.1875 28.421875 48.1875 
Q 40.625 48.1875 47.75 41.5 
Q 54.890625 34.8125 54.890625 23.390625 
Q 54.890625 11.625 47.5625 5.09375 
Q 40.234375 -1.421875 26.90625 -1.421875 
Q 22.3125 -1.421875 17.546875 -0.640625 
Q 12.796875 0.140625 7.71875 1.703125 
L 7.71875 11.625 
Q 12.109375 9.234375 16.796875 8.0625 
Q 21.484375 6.890625 26.703125 6.890625 
Q 35.15625 6.890625 40.078125 11.328125 
Q 45.015625 15.765625 45.015625 23.390625 
Q 45.015625 31 40.078125 35.4375 
Q 35.15625 39.890625 26.703125 39.890625 
Q 22.75 39.890625 18.8125 39.015625 
Q 14.890625 38.140625 10.796875 36.28125 
z
" id="BitstreamVeraSans-Roman-35"/>
      </defs>
      <g transform="translate(23.81375 156.053)scale(0.12 -0.12)">
       <use xlink:href="#BitstreamVeraSans-Roman-35"/>
       <use x="63.623046875" xlink:href="#BitstreamVeraSans-Roman-30"/>
       <use x="127.24609375" xlink:href="#BitstreamVeraSans-Roman-30"/>
      </g>
     </g>
    </g>
    <g id="ytick_7">
     <g id="line2d_28">
      <g>
       <use style="stroke:#000000;stroke-width:0.5;" x="50.71875" xlink:href="#m368932f33b" y="109.54175"/>
      </g>
     </g>
     <g id="line2d_29">
      <g>
       <use style="stroke:#000000;stroke-width:0.5;" x="497.11875" xlink:href="#m0fcaeceeae" y="109.54175"/>
      </g>
     </g>
     <g id="text_15">
      <!-- 600 -->
      <g transform="translate(23.81375 112.853)scale(0.12 -0.12)">
       <use xlink:href="#BitstreamVeraSans-Roman-36"/>
       <use x="63.623046875" xlink:href="#BitstreamVeraSans-Roman-30"/>
       <use x="127.24609375" xlink:href="#BitstreamVeraSans-Roman-30"/>
      </g>
     </g>
    </g>
    <g id="ytick_8">
     <g id="line2d_30">
      <g>
       <use style="stroke:#000000;stroke-width:0.5;" x="50.71875" xlink:href="#m368932f33b" y="66.34175"/>
      </g>
     </g>
     <g id="line2d_31">
      <g>
       <use style="stroke:#000000;stroke-width:0.5;" x="497.11875" xlink:href="#m0fcaeceeae" y="66.34175"/>
      </g>
     </g>
     <g id="text_16">
      <!-- 700 -->
      <defs>
       <path d="M 8.203125 72.90625 
L 55.078125 72.90625 
L 55.078125 68.703125 
L 28.609375 0 
L 18.3125 0 
L 43.21875 64.59375 
L 8.203125 64.59375 
z
" id="BitstreamVeraSans-Roman-37"/>
      </defs>
      <g transform="translate(23.81375 69.653)scale(0.12 -0.12)">
       <use xlink:href="#BitstreamVeraSans-Roman-37"/>
       <use x="63.623046875" xlink:href="#BitstreamVeraSans-Roman-30"/>
       <use x="127.24609375" xlink:href="#BitstreamVeraSans-Roman-30"/>
      </g>
     </g>
    </g>
    <g id="ytick_9">
     <g id="line2d_32">
      <g>
       <use style="stroke:#000000;stroke-width:0.5;" x="50.71875" xlink:href="#m368932f33b" y="23.14175"/>
      </g>
     </g>
     <g id="line2d_33">
      <g>
       <use style="stroke:#000000;stroke-width:0.5;" x="497.11875" xlink:href="#m0fcaeceeae" y="23.14175"/>
      </g>
     </g>
     <g id="text_17">
      <!-- 800 -->
      <g transform="translate(23.81375 26.453)scale(0.12 -0.12)">
       <use xlink:href="#BitstreamVeraSans-Roman-38"/>
       <use x="63.623046875" xlink:href="#BitstreamVeraSans-Roman-30"/>
       <use x="127.24609375" xlink:href="#BitstreamVeraSans-Roman-30"/>
      </g>
     </g>
    </g>
    <g id="text_18">
     <!-- successes -->
     <defs>
      <path d="M 8.5 21.578125 
L 8.5 54.6875 
L 17.484375 54.6875 
L 17.484375 21.921875 
Q 17.484375 14.15625 20.5 10.265625 
Q 23.53125 6.390625 29.59375 6.390625 
Q 36.859375 6.390625 41.078125 11.03125 
Q 45.3125 15.671875 45.3125 23.6875 
L 45.3125 54.6875 
L 54.296875 54.6875 
L 54.296875 0 
L 45.3125 0 
L 45.3125 8.40625 
Q 42.046875 3.421875 37.71875 1 
Q 33.40625 -1.421875 27.6875 -1.421875 
Q 18.265625 -1.421875 13.375 4.4375 
Q 8.5 10.296875 8.5 21.578125 
" id="BitstreamVeraSans-Roman-75"/>
      <path d="M 48.78125 52.59375 
L 48.78125 44.1875 
Q 44.96875 46.296875 41.140625 47.34375 
Q 37.3125 48.390625 33.40625 48.390625 
Q 24.65625 48.390625 19.8125 42.84375 
Q 14.984375 37.3125 14.984375 27.296875 
Q 14.984375 17.28125 19.8125 11.734375 
Q 24.65625 6.203125 33.40625 6.203125 
Q 37.3125 6.203125 41.140625 7.25 
Q 44.96875 8.296875 48.78125 10.40625 
L 48.78125 2.09375 
Q 45.015625 0.34375 40.984375 -0.53125 
Q 36.96875 -1.421875 32.421875 -1.421875 
Q 20.0625 -1.421875 12.78125 6.34375 
Q 5.515625 14.109375 5.515625 27.296875 
Q 5.515625 40.671875 12.859375 48.328125 
Q 20.21875 56 33.015625 56 
Q 37.15625 56 41.109375 55.140625 
Q 45.0625 54.296875 48.78125 52.59375 
" id="BitstreamVeraSans-Roman-63"/>
     </defs>
     <g transform="translate(16.318125 226.228625)rotate(-90.0)scale(0.12 -0.12)">
      <use xlink:href="#BitstreamVeraSans-Roman-73"/>
      <use x="52.099609375" xlink:href="#BitstreamVeraSans-Roman-75"/>
      <use x="115.478515625" xlink:href="#BitstreamVeraSans-Roman-63"/>
      <use x="170.458984375" xlink:href="#BitstreamVeraSans-Roman-63"/>
      <use x="225.439453125" xlink:href="#BitstreamVeraSans-Roman-65"/>
      <use x="286.962890625" xlink:href="#BitstreamVeraSans-Roman-73"/>
      <use x="339.0625" xlink:href="#BitstreamVeraSans-Roman-73"/>
      <use x="391.162109375" xlink:href="#BitstreamVeraSans-Roman-65"/>
      <use x="452.685546875" xlink:href="#BitstreamVeraSans-Roman-73"/>
     </g>
    </g>
   </g>
   <g id="text_19">
    <!-- Number of successes -->
    <defs>
     <path d="M 41.109375 46.296875 
Q 39.59375 47.171875 37.8125 47.578125 
Q 36.03125 48 33.890625 48 
Q 26.265625 48 22.1875 43.046875 
Q 18.109375 38.09375 18.109375 28.8125 
L 18.109375 0 
L 9.078125 0 
L 9.078125 54.6875 
L 18.109375 54.6875 
L 18.109375 46.1875 
Q 20.953125 51.171875 25.484375 53.578125 
Q 30.03125 56 36.53125 56 
Q 37.453125 56 38.578125 55.875 
Q 39.703125 55.765625 41.0625 55.515625 
z
" id="BitstreamVeraSans-Roman-72"/>
     <path d="M 52 44.1875 
Q 55.375 50.25 60.0625 53.125 
Q 64.75 56 71.09375 56 
Q 79.640625 56 84.28125 50.015625 
Q 88.921875 44.046875 88.921875 33.015625 
L 88.921875 0 
L 79.890625 0 
L 79.890625 32.71875 
Q 79.890625 40.578125 77.09375 44.375 
Q 74.3125 48.1875 68.609375 48.1875 
Q 61.625 48.1875 57.5625 43.546875 
Q 53.515625 38.921875 53.515625 30.90625 
L 53.515625 0 
L 44.484375 0 
L 44.484375 32.71875 
Q 44.484375 40.625 41.703125 44.40625 
Q 38.921875 48.1875 33.109375 48.1875 
Q 26.21875 48.1875 22.15625 43.53125 
Q 18.109375 38.875 18.109375 30.90625 
L 18.109375 0 
L 9.078125 0 
L 9.078125 54.6875 
L 18.109375 54.6875 
L 18.109375 46.1875 
Q 21.1875 51.21875 25.484375 53.609375 
Q 29.78125 56 35.6875 56 
Q 41.65625 56 45.828125 52.96875 
Q 50 49.953125 52 44.1875 
" id="BitstreamVeraSans-Roman-6d"/>
     <path d="M 48.6875 27.296875 
Q 48.6875 37.203125 44.609375 42.84375 
Q 40.53125 48.484375 33.40625 48.484375 
Q 26.265625 48.484375 22.1875 42.84375 
Q 18.109375 37.203125 18.109375 27.296875 
Q 18.109375 17.390625 22.1875 11.75 
Q 26.265625 6.109375 33.40625 6.109375 
Q 40.53125 6.109375 44.609375 11.75 
Q 48.6875 17.390625 48.6875 27.296875 
M 18.109375 46.390625 
Q 20.953125 51.265625 25.265625 53.625 
Q 29.59375 56 35.59375 56 
Q 45.5625 56 51.78125 48.09375 
Q 58.015625 40.1875 58.015625 27.296875 
Q 58.015625 14.40625 51.78125 6.484375 
Q 45.5625 -1.421875 35.59375 -1.421875 
Q 29.59375 -1.421875 25.265625 0.953125 
Q 20.953125 3.328125 18.109375 8.203125 
L 18.109375 0 
L 9.078125 0 
L 9.078125 75.984375 
L 18.109375 75.984375 
z
" id="BitstreamVeraSans-Roman-62"/>
     <path d="M 37.109375 75.984375 
L 37.109375 68.5 
L 28.515625 68.5 
Q 23.6875 68.5 21.796875 66.546875 
Q 19.921875 64.59375 19.921875 59.515625 
L 19.921875 54.6875 
L 34.71875 54.6875 
L 34.71875 47.703125 
L 19.921875 47.703125 
L 19.921875 0 
L 10.890625 0 
L 10.890625 47.703125 
L 2.296875 47.703125 
L 2.296875 54.6875 
L 10.890625 54.6875 
L 10.890625 58.5 
Q 10.890625 67.625 15.140625 71.796875 
Q 19.390625 75.984375 28.609375 75.984375 
z
" id="BitstreamVeraSans-Roman-66"/>
     <path d="M 9.8125 72.90625 
L 23.09375 72.90625 
L 55.421875 11.921875 
L 55.421875 72.90625 
L 64.984375 72.90625 
L 64.984375 0 
L 51.703125 0 
L 19.390625 60.984375 
L 19.390625 0 
L 9.8125 0 
z
" id="BitstreamVeraSans-Roman-4e"/>
     <path id="BitstreamVeraSans-Roman-20"/>
    </defs>
    <g transform="translate(197.134125 18.14175)scale(0.144 -0.144)">
     <use xlink:href="#BitstreamVeraSans-Roman-4e"/>
     <use x="74.8046875" xlink:href="#BitstreamVeraSans-Roman-75"/>
     <use x="138.18359375" xlink:href="#BitstreamVeraSans-Roman-6d"/>
     <use x="235.595703125" xlink:href="#BitstreamVeraSans-Roman-62"/>
     <use x="299.072265625" xlink:href="#BitstreamVeraSans-Roman-65"/>
     <use x="360.595703125" xlink:href="#BitstreamVeraSans-Roman-72"/>
     <use x="401.708984375" xlink:href="#BitstreamVeraSans-Roman-20"/>
     <use x="433.49609375" xlink:href="#BitstreamVeraSans-Roman-6f"/>
     <use x="494.677734375" xlink:href="#BitstreamVeraSans-Roman-66"/>
     <use x="529.8828125" xlink:href="#BitstreamVeraSans-Roman-20"/>
     <use x="561.669921875" xlink:href="#BitstreamVeraSans-Roman-73"/>
     <use x="613.76953125" xlink:href="#BitstreamVeraSans-Roman-75"/>
     <use x="677.1484375" xlink:href="#BitstreamVeraSans-Roman-63"/>
     <use x="732.12890625" xlink:href="#BitstreamVeraSans-Roman-63"/>
     <use x="787.109375" xlink:href="#BitstreamVeraSans-Roman-65"/>
     <use x="848.6328125" xlink:href="#BitstreamVeraSans-Roman-73"/>
     <use x="900.732421875" xlink:href="#BitstreamVeraSans-Roman-73"/>
     <use x="952.83203125" xlink:href="#BitstreamVeraSans-Roman-65"/>
     <use x="1014.35546875" xlink:href="#BitstreamVeraSans-Roman-73"/>
    </g>
   </g>
  </g>
 </g>
 <defs>
  <clipPath id="pfc9b0c132f">
   <rect height="345.6" width="446.4" x="50.71875" y="23.14175"/>
  </clipPath>
 </defs>
</svg>
