<?xml version="1.0" encoding="utf-8" standalone="no"?>
<!DOCTYPE svg PUBLIC "-//W3C//DTD SVG 1.1//EN"
  "http://www.w3.org/Graphics/SVG/1.1/DTD/svg11.dtd">
<!-- Created with matplotlib (http://matplotlib.org/) -->
<svg height="408pt" version="1.1" viewBox="0 0 525 408" width="525pt" xmlns="http://www.w3.org/2000/svg" xmlns:xlink="http://www.w3.org/1999/xlink">
 <defs>
  <style type="text/css">
*{stroke-linecap:butt;stroke-linejoin:round;stroke-miterlimit:100000;}
  </style>
 </defs>
 <g id="figure_1">
  <g id="patch_1">
   <path d="M 0 408.16925 
L 525.823125 408.16925 
L 525.823125 0 
L 0 0 
z
" style="fill:#ffffff;"/>
  </g>
  <g id="axes_1">
   <g id="patch_2">
    <path d="M 56.953125 368.74175 
L 503.353125 368.74175 
L 503.353125 23.14175 
L 56.953125 23.14175 
z
" style="fill:#ffffff;"/>
   </g>
   <g id="line2d_1">
    <path clip-path="url(#p340b872fa5)" d="M 57.399525 269.820355 
L 57.845925 268.052816 
L 58.292325 267.619845 
L 58.738725 272.749189 
L 59.185125 266.807801 
L 59.631525 269.418961 
L 60.077925 270.161817 
L 60.524325 264.219486 
L 60.970725 270.922012 
L 61.417125 269.076065 
L 61.863525 267.886258 
L 62.309925 272.801235 
L 62.756325 268.415159 
L 63.202725 266.172376 
L 63.649125 262.4904 
L 64.095525 267.157011 
L 64.541925 270.558024 
L 64.988325 267.507473 
L 65.881125 266.099341 
L 66.327525 270.455305 
L 66.773925 272.471337 
L 67.220325 265.445303 
L 67.666725 271.885528 
L 68.113125 264.590782 
L 68.559525 272.300822 
L 69.005925 270.942247 
L 69.452325 274.753959 
L 69.898725 271.663714 
L 70.345125 269.782558 
L 70.791525 269.281665 
L 71.237925 265.441017 
L 71.684325 273.059486 
L 72.130725 266.407924 
L 73.023525 275.084845 
L 73.469925 266.655142 
L 73.916325 267.311486 
L 74.362725 269.268853 
L 74.809125 269.042543 
L 75.255525 266.890379 
L 75.701925 271.232469 
L 76.148325 273.525003 
L 76.594725 272.036653 
L 77.041125 265.352087 
L 77.487525 261.457763 
L 77.933925 272.514764 
L 78.826725 269.555801 
L 79.273125 264.386439 
L 79.719525 269.575751 
L 80.165925 266.737657 
L 80.612325 269.698914 
L 81.505125 269.842736 
L 81.951525 266.81632 
L 82.397925 267.077942 
L 82.844325 270.299207 
L 83.290725 268.689944 
L 83.737125 269.408656 
L 84.183525 271.794633 
L 84.629925 269.039597 
L 85.076325 273.097232 
L 85.522725 267.511792 
L 85.969125 271.243359 
L 86.415525 270.50833 
L 86.861925 274.805914 
L 87.308325 264.653672 
L 88.201125 271.845723 
L 88.647525 264.081275 
L 89.093925 273.617497 
L 89.540325 267.373935 
L 89.986725 273.876906 
L 90.433125 269.923432 
L 90.879525 274.731046 
L 91.325925 269.357885 
L 91.772325 272.401144 
L 92.218725 267.94269 
L 92.665125 270.500823 
L 93.111525 271.711211 
L 93.557925 260.748078 
L 94.004325 264.70776 
L 94.450725 272.847077 
L 94.897125 271.913829 
L 95.343525 273.754822 
L 95.789925 266.452535 
L 96.236325 269.941237 
L 96.682725 266.500864 
L 97.129125 264.449203 
L 97.575525 271.082807 
L 98.021925 270.287881 
L 98.914725 267.302037 
L 99.361125 269.229416 
L 99.807525 268.680925 
L 100.253925 271.352413 
L 100.700325 261.467198 
L 101.146725 266.879562 
L 101.593125 266.16722 
L 102.039525 272.008292 
L 102.485925 267.77468 
L 102.932325 269.634779 
L 103.378725 265.55585 
L 103.825125 272.431066 
L 104.271525 266.978777 
L 104.717925 271.297608 
L 105.164325 270.853415 
L 105.610725 267.561893 
L 106.057125 270.372379 
L 106.503525 270.792671 
L 106.949925 265.800123 
L 107.396325 266.033778 
L 107.842725 267.915673 
L 108.289125 273.851698 
L 108.735525 268.870173 
L 109.628325 272.594749 
L 110.074725 266.337656 
L 110.521125 274.421556 
L 110.967525 267.098623 
L 111.860325 270.217073 
L 112.306725 273.873786 
L 112.753125 269.980469 
L 113.199525 272.042185 
L 113.645925 269.811763 
L 114.092325 264.446642 
L 114.538725 274.018828 
L 114.985125 262.707852 
L 115.431525 270.10047 
L 115.877925 268.113274 
L 116.324325 262.115954 
L 116.770725 268.36056 
L 117.217125 268.526125 
L 117.663525 270.780925 
L 118.109925 270.938906 
L 118.556325 269.867707 
L 119.002725 265.956288 
L 119.449125 266.917482 
L 119.895525 274.78139 
L 120.341925 272.463418 
L 120.788325 265.200597 
L 121.234725 267.28953 
L 122.127525 269.110559 
L 122.573925 270.666661 
L 123.020325 274.906436 
L 123.466725 267.633477 
L 123.913125 271.752312 
L 124.359525 268.063629 
L 124.805925 265.963563 
L 125.252325 273.400286 
L 125.698725 264.842994 
L 126.145125 267.776514 
L 126.591525 274.723847 
L 127.037925 267.773237 
L 127.484325 273.775989 
L 127.930725 265.411243 
L 128.377125 269.264813 
L 128.823525 266.680826 
L 129.269925 262.780292 
L 129.716325 271.435331 
L 130.162725 261.071491 
L 130.609125 269.512363 
L 131.055525 273.825138 
L 131.501925 268.032308 
L 131.948325 267.366156 
L 132.394725 267.634991 
L 132.841125 271.6693 
L 133.287525 271.337843 
L 133.733925 265.05167 
L 134.626725 272.007609 
L 135.073125 266.793419 
L 135.965925 271.830143 
L 136.412325 261.890064 
L 137.305125 274.239265 
L 137.751525 271.723579 
L 138.197925 273.533132 
L 138.644325 271.823619 
L 139.090725 261.473778 
L 139.537125 271.844465 
L 139.983525 269.877073 
L 140.429925 269.635343 
L 140.876325 265.068795 
L 141.322725 272.194897 
L 142.215525 268.598777 
L 142.661925 269.876617 
L 143.108325 262.432792 
L 143.554725 269.698005 
L 144.001125 269.139762 
L 144.447525 269.446876 
L 145.340325 267.445214 
L 145.786725 274.524166 
L 146.233125 268.422065 
L 146.679525 270.674989 
L 147.125925 269.901282 
L 147.572325 269.537353 
L 148.018725 274.817696 
L 148.465125 268.013287 
L 148.911525 273.279189 
L 149.357925 270.641149 
L 149.804325 265.722834 
L 150.250725 267.62517 
L 150.697125 263.641445 
L 151.143525 268.104393 
L 151.589925 270.065773 
L 152.036325 276.813873 
L 152.482725 269.242001 
L 152.929125 265.125441 
L 153.375525 270.320801 
L 153.821925 264.084506 
L 154.268325 267.997481 
L 154.714725 274.785032 
L 155.161125 269.935062 
L 155.607525 270.167109 
L 156.053925 267.223502 
L 156.500325 266.684828 
L 156.946725 267.692334 
L 157.393125 273.413845 
L 158.285925 266.700826 
L 158.732325 267.829373 
L 159.178725 274.526616 
L 159.625125 271.821232 
L 160.071525 265.077952 
L 160.517925 267.76638 
L 160.964325 269.175449 
L 161.857125 269.847976 
L 162.303525 265.596581 
L 162.749925 265.558261 
L 163.196325 268.496158 
L 163.642725 270.0967 
L 164.089125 269.286965 
L 164.535525 273.400556 
L 164.981925 265.542116 
L 165.428325 265.452927 
L 165.874725 271.967129 
L 166.321125 270.006225 
L 166.767525 270.883862 
L 167.213925 263.461418 
L 167.660325 272.658411 
L 168.106725 270.150658 
L 168.553125 265.273105 
L 169.445925 306.154184 
L 169.892325 307.150307 
L 170.338725 296.364577 
L 170.785125 302.786397 
L 171.231525 332.341045 
L 171.677925 325.661975 
L 172.124325 296.220279 
L 172.570725 326.650593 
L 173.017125 310.977681 
L 173.463525 315.514161 
L 173.909925 317.117624 
L 174.356325 322.573801 
L 174.802725 309.074249 
L 175.249125 308.532473 
L 176.141925 308.227283 
L 176.588325 313.748952 
L 177.034725 314.104722 
L 177.481125 314.654413 
L 177.927525 311.37495 
L 178.373925 310.732677 
L 178.820325 311.531769 
L 179.266725 309.224922 
L 179.713125 310.241674 
L 180.159525 310.563544 
L 180.605925 309.321578 
L 181.052325 310.085331 
L 181.498725 309.943944 
L 181.945125 309.434643 
L 182.391525 309.348111 
L 182.837925 308.654301 
L 183.284325 309.268096 
L 183.730725 309.62422 
L 184.177125 309.535223 
L 185.069925 309.001601 
L 185.516325 309.113303 
L 185.962725 309.612227 
L 186.409125 309.02187 
L 186.855525 309.052524 
L 187.301925 308.928608 
L 187.748325 308.591254 
L 188.194725 308.51579 
L 188.641125 308.699028 
L 189.980325 307.94303 
L 190.426725 308.055156 
L 190.873125 308.024426 
L 191.319525 308.249473 
L 191.765925 307.717019 
L 192.212325 307.634034 
L 192.658725 307.014364 
L 193.105125 307.510708 
L 193.551525 307.657755 
L 193.997925 306.921826 
L 194.444325 307.376012 
L 194.890725 306.462025 
L 195.337125 307.178547 
L 195.783525 306.468668 
L 196.229925 305.528962 
L 196.676325 306.12465 
L 197.122725 306.297603 
L 197.569125 305.783654 
L 198.015525 306.512699 
L 198.461925 305.244815 
L 198.908325 306.408876 
L 199.354725 305.930565 
L 199.801125 304.954273 
L 200.247525 305.880221 
L 200.693925 304.123235 
L 201.140325 303.660402 
L 201.586725 305.144215 
L 202.033125 305.378469 
L 202.479525 303.678852 
L 202.925925 304.315075 
L 203.372325 303.698511 
L 203.818725 303.701766 
L 204.265125 302.329741 
L 204.711525 303.523814 
L 205.157925 304.226349 
L 205.604325 304.446637 
L 206.050725 303.447696 
L 206.497125 302.77196 
L 206.943525 303.070328 
L 207.389925 300.370214 
L 207.836325 301.614203 
L 208.282725 300.660359 
L 208.729125 303.908505 
L 209.175525 302.427129 
L 209.621925 303.4137 
L 210.514725 301.714938 
L 210.961125 302.946853 
L 211.407525 301.151081 
L 211.853925 300.250198 
L 212.300325 297.935691 
L 212.746725 300.150555 
L 213.193125 301.525531 
L 213.639525 299.934839 
L 214.085925 299.808722 
L 214.532325 299.539666 
L 215.425125 301.349578 
L 215.871525 297.913953 
L 216.764325 301.870936 
L 217.210725 299.328708 
L 217.657125 297.455171 
L 218.103525 299.466474 
L 218.549925 296.931867 
L 218.996325 297.813628 
L 219.442725 294.560294 
L 219.889125 298.249225 
L 220.335525 296.385989 
L 220.781925 296.43761 
L 221.228325 298.306365 
L 221.674725 298.893424 
L 222.121125 296.460185 
L 222.567525 297.151952 
L 223.013925 299.997681 
L 223.460325 297.908558 
L 223.906725 294.173499 
L 224.353125 294.354535 
L 224.799525 292.4871 
L 225.245925 294.163319 
L 225.692325 296.466573 
L 226.138725 296.595872 
L 227.031525 292.466509 
L 227.477925 293.189855 
L 227.924325 294.952252 
L 228.370725 293.614532 
L 228.817125 296.657407 
L 229.263525 294.787238 
L 229.709925 294.299956 
L 230.156325 292.276821 
L 230.602725 293.610259 
L 231.049125 295.374137 
L 231.495525 292.033886 
L 231.941925 291.534609 
L 232.388325 293.572019 
L 232.834725 289.736003 
L 233.281125 290.274857 
L 233.727525 290.061397 
L 234.173925 292.788429 
L 234.620325 292.196062 
L 235.066725 291.011633 
L 235.513125 290.619253 
L 235.959525 291.624606 
L 236.405925 290.666018 
L 237.298725 290.638401 
L 237.745125 290.26771 
L 238.637925 286.061557 
L 239.084325 289.388193 
L 239.530725 284.857461 
L 240.423525 290.308537 
L 240.869925 291.452278 
L 241.762725 285.453469 
L 242.209125 283.868002 
L 242.655525 287.637813 
L 243.101925 286.086455 
L 243.548325 288.551611 
L 243.994725 286.899638 
L 244.441125 286.344383 
L 244.887525 284.747007 
L 245.333925 285.588861 
L 245.780325 284.320708 
L 246.226725 287.534598 
L 246.673125 285.222044 
L 247.119525 288.274046 
L 247.565925 284.292189 
L 248.012325 286.321619 
L 248.458725 283.671893 
L 248.905125 283.755416 
L 249.351525 281.799462 
L 249.797925 283.770806 
L 250.244325 284.729265 
L 250.690725 279.092554 
L 251.137125 280.803981 
L 251.583525 283.714402 
L 252.029925 281.38939 
L 252.476325 281.277111 
L 252.922725 284.464945 
L 253.369125 280.454981 
L 253.815525 278.431439 
L 254.261925 278.024792 
L 254.708325 277.77659 
L 255.154725 281.522472 
L 255.601125 279.500655 
L 256.047525 279.500708 
L 256.493925 277.466935 
L 256.940325 277.732613 
L 257.386725 281.903483 
L 257.833125 276.782535 
L 258.279525 277.864499 
L 258.725925 274.137535 
L 259.172325 274.517922 
L 259.618725 277.662498 
L 260.065125 275.072477 
L 260.511525 276.339629 
L 260.957925 277.155105 
L 261.404325 273.806707 
L 261.850725 272.850563 
L 262.297125 275.258762 
L 262.743525 278.68265 
L 264.082725 271.054381 
L 264.529125 271.771626 
L 264.975525 268.662984 
L 265.421925 270.959974 
L 265.868325 272.120527 
L 266.314725 274.726865 
L 266.761125 270.502746 
L 267.207525 271.07745 
L 267.653925 267.000529 
L 268.100325 274.523598 
L 268.546725 263.248697 
L 268.993125 272.495297 
L 269.439525 270.090304 
L 269.885925 266.49403 
L 270.332325 274.431323 
L 270.778725 264.857266 
L 271.225125 267.377521 
L 271.671525 266.839533 
L 272.117925 261.86258 
L 272.564325 261.316447 
L 273.010725 259.419868 
L 273.457125 266.069553 
L 273.903525 270.943578 
L 274.349925 268.81724 
L 274.796325 263.810158 
L 275.242725 269.041501 
L 275.689125 258.194053 
L 276.135525 263.631638 
L 277.028325 269.325681 
L 277.474725 260.994164 
L 277.921125 258.096458 
L 278.367525 258.22216 
L 278.813925 256.286671 
L 279.260325 261.452327 
L 279.706725 268.198472 
L 280.153125 261.725786 
L 280.599525 258.635941 
L 281.045925 269.254001 
L 281.492325 251.061633 
L 281.938725 257.119435 
L 282.385125 253.637121 
L 282.831525 253.063148 
L 283.277925 255.985094 
L 283.724325 253.44519 
L 284.170725 253.616643 
L 284.617125 255.2318 
L 285.063525 254.791897 
L 285.509925 248.778683 
L 285.956325 256.296882 
L 286.402725 245.284876 
L 286.849125 248.766267 
L 287.295525 251.265998 
L 287.741925 244.202654 
L 288.188325 251.602255 
L 288.634725 263.447888 
L 289.081125 251.909574 
L 289.527525 248.048481 
L 289.973925 256.075008 
L 290.420325 258.83495 
L 290.866725 246.756303 
L 291.313125 251.809441 
L 291.759525 251.017824 
L 292.205925 243.188834 
L 292.652325 246.057656 
L 293.098725 246.387364 
L 293.545125 251.83872 
L 293.991525 253.494599 
L 294.437925 247.80248 
L 294.884325 263.240694 
L 295.330725 238.707962 
L 296.223525 242.444853 
L 296.669925 245.947047 
L 297.116325 245.903711 
L 297.562725 254.855449 
L 298.009125 236.825146 
L 298.455525 258.927946 
L 298.901925 239.411489 
L 299.348325 235.569392 
L 299.794725 235.284256 
L 300.241125 247.452768 
L 300.687525 244.867543 
L 301.133925 239.094389 
L 301.580325 239.029753 
L 302.026725 246.024776 
L 302.473125 241.593282 
L 302.919525 251.023695 
L 303.365925 234.837321 
L 303.812325 233.326844 
L 304.258725 233.64944 
L 304.705125 231.429685 
L 305.151525 231.370337 
L 305.597925 230.220602 
L 306.044325 231.80117 
L 306.490725 234.239305 
L 306.937125 228.488454 
L 307.383525 228.397175 
L 307.829925 232.239964 
L 308.276325 239.609939 
L 308.722725 227.37752 
L 309.169125 227.480367 
L 309.615525 235.416218 
L 310.061925 238.319027 
L 310.508325 224.675855 
L 310.954725 225.96719 
L 311.401125 232.041299 
L 311.847525 223.926185 
L 312.293925 224.240866 
L 312.740325 223.581432 
L 313.186725 233.764231 
L 313.633125 231.542079 
L 314.079525 224.21936 
L 314.525925 223.631896 
L 314.972325 223.466565 
L 315.418725 224.355579 
L 315.865125 239.705224 
L 316.311525 242.048346 
L 316.757925 219.689118 
L 317.204325 216.422938 
L 317.650725 230.9845 
L 318.097125 221.723878 
L 318.543525 220.282295 
L 318.989925 219.913002 
L 319.436325 223.815594 
L 319.882725 220.452202 
L 320.329125 219.093191 
L 320.775525 213.591422 
L 321.221925 218.793822 
L 321.668325 208.72869 
L 322.114725 219.22336 
L 322.561125 223.291618 
L 323.007525 212.534853 
L 323.453925 211.311168 
L 323.900325 202.158898 
L 324.346725 216.671877 
L 324.793125 210.098175 
L 325.239525 212.62331 
L 325.685925 207.871467 
L 326.132325 212.913047 
L 327.025125 215.459566 
L 327.471525 211.706269 
L 327.917925 217.300907 
L 328.364325 215.233531 
L 328.810725 204.895747 
L 329.257125 212.250579 
L 329.703525 214.214137 
L 330.596325 211.367718 
L 331.042725 206.129999 
L 331.489125 205.753658 
L 331.935525 232.42953 
L 332.381925 216.64097 
L 332.828325 206.162299 
L 333.721125 194.70205 
L 334.167525 198.093991 
L 334.613925 206.075379 
L 335.060325 202.798726 
L 335.506725 195.621561 
L 335.953125 212.916418 
L 336.399525 200.952686 
L 336.845925 201.106432 
L 337.292325 204.235453 
L 337.738725 202.803122 
L 338.185125 197.360033 
L 338.631525 199.827082 
L 339.077925 197.974307 
L 339.524325 200.388128 
L 339.970725 199.111548 
L 340.417125 197.187268 
L 340.863525 193.977351 
L 341.309925 193.005706 
L 341.756325 197.161338 
L 342.202725 193.965164 
L 342.649125 193.144821 
L 343.095525 202.412811 
L 343.541925 192.673934 
L 343.988325 194.222884 
L 344.434725 192.924768 
L 344.881125 195.980295 
L 345.327525 188.209304 
L 345.773925 200.277313 
L 346.220325 192.835978 
L 346.666725 189.087101 
L 347.113125 189.573645 
L 347.559525 179.874744 
L 348.005925 203.990572 
L 348.452325 186.995669 
L 348.898725 194.294728 
L 349.345125 186.187715 
L 349.791525 190.004517 
L 350.237925 187.463836 
L 350.684325 191.49522 
L 351.130725 185.367885 
L 351.577125 189.545735 
L 352.469925 182.779954 
L 352.916325 195.079866 
L 353.362725 181.503361 
L 353.809125 181.338313 
L 354.255525 191.134953 
L 354.701925 183.820891 
L 355.148325 185.513146 
L 355.594725 177.697993 
L 356.041125 184.554752 
L 356.487525 186.509492 
L 357.380325 180.232752 
L 357.826725 177.353468 
L 358.273125 181.729238 
L 358.719525 178.813224 
L 359.165925 173.181888 
L 359.612325 176.656763 
L 360.058725 178.015983 
L 360.505125 186.04738 
L 360.951525 181.116132 
L 361.397925 171.889469 
L 361.844325 169.653378 
L 362.290725 181.10878 
L 362.737125 177.13632 
L 363.183525 176.13068 
L 363.629925 171.689708 
L 364.076325 170.080188 
L 364.522725 174.982992 
L 364.969125 171.344719 
L 365.415525 176.79902 
L 365.861925 176.928567 
L 366.308325 167.61408 
L 366.754725 166.800601 
L 367.201125 167.756069 
L 368.540325 187.852673 
L 368.986725 174.472884 
L 369.433125 164.571286 
L 369.879525 158.47297 
L 370.325925 162.811906 
L 370.772325 168.812685 
L 371.218725 166.752542 
L 371.665125 163.804879 
L 372.111525 159.514419 
L 372.557925 159.749021 
L 373.004325 168.552843 
L 373.450725 163.433119 
L 373.897125 161.186147 
L 374.343525 165.312419 
L 374.789925 162.36966 
L 375.236325 161.458094 
L 375.682725 158.448521 
L 376.129125 161.488237 
L 376.575525 162.562183 
L 377.021925 151.947923 
L 377.468325 156.10648 
L 377.914725 150.741007 
L 378.361125 167.212322 
L 378.807525 160.161376 
L 379.253925 159.477749 
L 379.700325 173.162631 
L 380.146725 159.17464 
L 380.593125 154.229738 
L 381.039525 157.048104 
L 381.485925 156.289025 
L 381.932325 152.864691 
L 382.378725 164.405147 
L 382.825125 164.37362 
L 383.271525 153.280937 
L 383.717925 151.093362 
L 384.164325 151.819406 
L 384.610725 151.89257 
L 385.057125 147.615129 
L 385.503525 151.640646 
L 385.949925 150.540408 
L 386.396325 148.719765 
L 386.842725 158.592848 
L 387.289125 157.465957 
L 387.735525 149.883425 
L 388.181925 146.98303 
L 388.628325 141.584724 
L 389.074725 143.061691 
L 389.521125 146.212304 
L 389.967525 146.917557 
L 390.413925 147.357217 
L 390.860325 149.756425 
L 391.306725 144.077631 
L 391.753125 143.44245 
L 392.199525 155.428039 
L 392.645925 141.921 
L 393.092325 146.75068 
L 393.538725 143.94682 
L 393.985125 142.902405 
L 394.431525 139.633655 
L 394.877925 140.937677 
L 395.324325 145.886602 
L 395.770725 146.371411 
L 396.663525 133.928783 
L 397.556325 144.396269 
L 398.002725 138.153612 
L 398.449125 139.830897 
L 398.895525 132.586694 
L 399.341925 136.237456 
L 399.788325 135.142316 
L 400.234725 146.445599 
L 400.681125 135.319909 
L 401.127525 141.824362 
L 401.573925 138.8408 
L 402.020325 203.182293 
L 402.466725 137.631336 
L 402.913125 138.254217 
L 403.359525 135.297152 
L 403.805925 136.839287 
L 404.252325 135.565656 
L 404.698725 135.006224 
L 405.145125 125.376006 
L 405.591525 139.386485 
L 406.037925 127.962731 
L 406.484325 138.446715 
L 406.930725 126.557327 
L 407.377125 130.034244 
L 407.823525 126.1742 
L 408.269925 128.584794 
L 408.716325 138.745344 
L 409.162725 125.837516 
L 409.609125 130.799235 
L 410.055525 128.184136 
L 410.501925 127.351818 
L 410.948325 130.079268 
L 411.394725 123.375755 
L 411.841125 123.997939 
L 412.287525 130.022993 
L 412.733925 123.237887 
L 413.180325 126.30406 
L 413.626725 143.047027 
L 414.073125 123.476475 
L 414.519525 130.215227 
L 414.965925 121.68121 
L 415.412325 126.141729 
L 415.858725 118.369154 
L 416.305125 119.150839 
L 416.751525 124.95936 
L 417.197925 126.088474 
L 417.644325 118.846083 
L 418.090725 126.870701 
L 418.537125 128.840527 
L 418.983525 119.238288 
L 419.429925 118.529288 
L 419.876325 118.792205 
L 420.322725 123.122771 
L 420.769125 123.967775 
L 421.215525 117.237145 
L 421.661925 116.390401 
L 422.108325 114.284243 
L 422.554725 116.361696 
L 423.001125 124.045071 
L 423.447525 118.667233 
L 423.893925 123.718259 
L 424.340325 115.271837 
L 424.786725 112.777163 
L 425.233125 115.784336 
L 425.679525 114.325387 
L 426.125925 118.7119 
L 426.572325 124.87405 
L 427.465125 115.069299 
L 427.911525 113.785708 
L 428.357925 116.524044 
L 428.804325 122.488938 
L 429.250725 109.615213 
L 429.697125 108.105194 
L 430.143525 108.689647 
L 430.589925 115.482939 
L 431.036325 112.907446 
L 431.482725 103.696831 
L 431.929125 105.440789 
L 432.375525 105.818287 
L 432.821925 112.624923 
L 433.268325 104.672863 
L 433.714725 107.180394 
L 434.161125 106.358852 
L 434.607525 107.01585 
L 435.053925 101.997785 
L 435.500325 113.04931 
L 435.946725 110.209886 
L 436.839525 97.096206 
L 437.285925 99.552651 
L 437.732325 106.509107 
L 438.178725 97.16261 
L 438.625125 97.397585 
L 439.071525 99.043292 
L 439.517925 104.429466 
L 439.964325 97.50566 
L 440.410725 92.871161 
L 440.857125 103.634914 
L 441.303525 103.139736 
L 441.749925 99.587224 
L 442.196325 99.45554 
L 442.642725 107.687753 
L 443.089125 97.389502 
L 443.535525 94.649756 
L 443.981925 96.202191 
L 444.428325 107.9058 
L 444.874725 97.632584 
L 445.321125 95.429353 
L 445.767525 96.335497 
L 446.213925 94.375607 
L 446.660325 99.260493 
L 447.106725 92.900422 
L 447.553125 100.14455 
L 447.999525 96.857051 
L 448.445925 96.045599 
L 448.892325 98.288648 
L 449.338725 95.91496 
L 449.785125 97.002161 
L 450.231525 96.079006 
L 450.677925 102.962916 
L 451.124325 91.860391 
L 451.570725 90.346808 
L 452.017125 90.766267 
L 452.463525 93.625345 
L 452.909925 88.239386 
L 453.356325 88.453131 
L 453.802725 84.489645 
L 454.249125 87.397442 
L 454.695525 95.605681 
L 455.141925 88.614544 
L 455.588325 89.305423 
L 456.034725 88.138079 
L 456.481125 94.736625 
L 456.927525 86.796747 
L 457.373925 81.624779 
L 457.820325 88.446478 
L 458.266725 89.93668 
L 458.713125 82.311636 
L 459.159525 89.309017 
L 459.605925 83.297045 
L 460.052325 83.380661 
L 460.498725 92.660604 
L 460.945125 85.510343 
L 461.391525 83.695512 
L 461.837925 77.444153 
L 462.284325 84.623171 
L 462.730725 82.61033 
L 463.177125 78.048737 
L 463.623525 80.737371 
L 464.069925 75.760342 
L 464.516325 87.548203 
L 464.962725 86.546204 
L 465.409125 76.512119 
L 465.855525 74.755981 
L 466.301925 89.250823 
L 466.748325 76.811359 
L 467.194725 79.417033 
L 467.641125 74.187178 
L 468.087525 79.359794 
L 468.533925 74.657483 
L 468.980325 73.082719 
L 469.426725 75.431135 
L 469.873125 76.359379 
L 470.319525 73.874672 
L 470.765925 77.221342 
L 471.212325 68.096247 
L 471.658725 70.878499 
L 472.105125 75.650114 
L 472.551525 73.178328 
L 472.997925 73.6525 
L 473.444325 71.909428 
L 473.890725 74.488742 
L 474.337125 72.180929 
L 474.783525 67.99663 
L 475.229925 73.248108 
L 475.676325 72.127486 
L 476.122725 68.646984 
L 476.569125 71.694044 
L 477.015525 64.659761 
L 477.461925 66.027583 
L 477.908325 58.394523 
L 478.354725 67.22968 
L 478.801125 69.785763 
L 479.247525 66.921637 
L 479.693925 70.579676 
L 480.140325 67.471737 
L 480.586725 68.061393 
L 481.033125 67.082903 
L 481.479525 65.428444 
L 481.925925 66.001995 
L 482.372325 61.429659 
L 482.818725 62.78643 
L 483.265125 65.078438 
L 483.711525 60.306723 
L 484.604325 76.993772 
L 485.050725 73.004425 
L 485.497125 58.592504 
L 485.943525 64.309439 
L 486.389925 64.666268 
L 486.836325 58.091004 
L 487.282725 62.136999 
L 487.729125 55.999131 
L 488.175525 62.762324 
L 488.621925 57.585592 
L 489.068325 55.869406 
L 489.514725 58.216223 
L 489.961125 58.177809 
L 490.407525 61.04314 
L 490.853925 52.828296 
L 491.300325 64.29457 
L 491.746725 49.357413 
L 492.193125 57.745753 
L 492.639525 57.892801 
L 493.085925 51.670627 
L 493.532325 53.243346 
L 493.978725 51.37196 
L 494.425125 58.971259 
L 494.871525 49.89763 
L 495.317925 46.77053 
L 495.764325 51.724574 
L 496.210725 52.867823 
L 496.657125 48.134508 
L 497.103525 55.845525 
L 497.996325 48.029829 
L 498.442725 48.273054 
L 498.889125 50.447333 
L 499.335525 49.969831 
L 499.781925 52.282602 
L 500.228325 52.416712 
L 500.674725 60.207051 
L 501.121125 53.640962 
L 501.567525 51.058685 
L 502.013925 44.849132 
L 502.460325 43.176299 
L 502.906725 59.366753 
L 502.906725 59.366753 
" style="fill:none;stroke:#0000ff;stroke-linecap:square;stroke-width:0.5;"/>
   </g>
   <g id="patch_3">
    <path d="M 56.953125 368.74175 
L 503.353125 368.74175 
" style="fill:none;stroke:#000000;stroke-linecap:square;stroke-linejoin:miter;"/>
   </g>
   <g id="patch_4">
    <path d="M 56.953125 23.14175 
L 503.353125 23.14175 
" style="fill:none;stroke:#000000;stroke-linecap:square;stroke-linejoin:miter;"/>
   </g>
   <g id="patch_5">
    <path d="M 503.353125 368.74175 
L 503.353125 23.14175 
" style="fill:none;stroke:#000000;stroke-linecap:square;stroke-linejoin:miter;"/>
   </g>
   <g id="patch_6">
    <path d="M 56.953125 368.74175 
L 56.953125 23.14175 
" style="fill:none;stroke:#000000;stroke-linecap:square;stroke-linejoin:miter;"/>
   </g>
   <g id="matplotlib.axis_1">
    <g id="xtick_1">
     <g id="line2d_2">
      <defs>
       <path d="M 0 0 
L 0 -4 
" id="m2b3483627e" style="stroke:#000000;stroke-width:0.5;"/>
      </defs>
      <g>
       <use style="stroke:#000000;stroke-width:0.5;" x="56.953125" xlink:href="#m2b3483627e" y="368.74175"/>
      </g>
     </g>
     <g id="line2d_3">
      <defs>
       <path d="M 0 0 
L 0 4 
" id="m61c4dd43f4" style="stroke:#000000;stroke-width:0.5;"/>
      </defs>
      <g>
       <use style="stroke:#000000;stroke-width:0.5;" x="56.953125" xlink:href="#m61c4dd43f4" y="23.14175"/>
      </g>
     </g>
     <g id="text_1">
      <!-- 0 -->
      <defs>
       <path d="M 31.78125 66.40625 
Q 24.171875 66.40625 20.328125 58.90625 
Q 16.5 51.421875 16.5 36.375 
Q 16.5 21.390625 20.328125 13.890625 
Q 24.171875 6.390625 31.78125 6.390625 
Q 39.453125 6.390625 43.28125 13.890625 
Q 47.125 21.390625 47.125 36.375 
Q 47.125 51.421875 43.28125 58.90625 
Q 39.453125 66.40625 31.78125 66.40625 
M 31.78125 74.21875 
Q 44.046875 74.21875 50.515625 64.515625 
Q 56.984375 54.828125 56.984375 36.375 
Q 56.984375 17.96875 50.515625 8.265625 
Q 44.046875 -1.421875 31.78125 -1.421875 
Q 19.53125 -1.421875 13.0625 8.265625 
Q 6.59375 17.96875 6.59375 36.375 
Q 6.59375 54.828125 13.0625 64.515625 
Q 19.53125 74.21875 31.78125 74.21875 
" id="BitstreamVeraSans-Roman-30"/>
      </defs>
      <g transform="translate(53.135625 381.859875)scale(0.12 -0.12)">
       <use xlink:href="#BitstreamVeraSans-Roman-30"/>
      </g>
     </g>
    </g>
    <g id="xtick_2">
     <g id="line2d_4">
      <g>
       <use style="stroke:#000000;stroke-width:0.5;" x="146.233125" xlink:href="#m2b3483627e" y="368.74175"/>
      </g>
     </g>
     <g id="line2d_5">
      <g>
       <use style="stroke:#000000;stroke-width:0.5;" x="146.233125" xlink:href="#m61c4dd43f4" y="23.14175"/>
      </g>
     </g>
     <g id="text_2">
      <!-- 200 -->
      <defs>
       <path d="M 19.1875 8.296875 
L 53.609375 8.296875 
L 53.609375 0 
L 7.328125 0 
L 7.328125 8.296875 
Q 12.9375 14.109375 22.625 23.890625 
Q 32.328125 33.6875 34.8125 36.53125 
Q 39.546875 41.84375 41.421875 45.53125 
Q 43.3125 49.21875 43.3125 52.78125 
Q 43.3125 58.59375 39.234375 62.25 
Q 35.15625 65.921875 28.609375 65.921875 
Q 23.96875 65.921875 18.8125 64.3125 
Q 13.671875 62.703125 7.8125 59.421875 
L 7.8125 69.390625 
Q 13.765625 71.78125 18.9375 73 
Q 24.125 74.21875 28.421875 74.21875 
Q 39.75 74.21875 46.484375 68.546875 
Q 53.21875 62.890625 53.21875 53.421875 
Q 53.21875 48.921875 51.53125 44.890625 
Q 49.859375 40.875 45.40625 35.40625 
Q 44.1875 33.984375 37.640625 27.21875 
Q 31.109375 20.453125 19.1875 8.296875 
" id="BitstreamVeraSans-Roman-32"/>
      </defs>
      <g transform="translate(134.780625 381.859875)scale(0.12 -0.12)">
       <use xlink:href="#BitstreamVeraSans-Roman-32"/>
       <use x="63.623046875" xlink:href="#BitstreamVeraSans-Roman-30"/>
       <use x="127.24609375" xlink:href="#BitstreamVeraSans-Roman-30"/>
      </g>
     </g>
    </g>
    <g id="xtick_3">
     <g id="line2d_6">
      <g>
       <use style="stroke:#000000;stroke-width:0.5;" x="235.513125" xlink:href="#m2b3483627e" y="368.74175"/>
      </g>
     </g>
     <g id="line2d_7">
      <g>
       <use style="stroke:#000000;stroke-width:0.5;" x="235.513125" xlink:href="#m61c4dd43f4" y="23.14175"/>
      </g>
     </g>
     <g id="text_3">
      <!-- 400 -->
      <defs>
       <path d="M 37.796875 64.3125 
L 12.890625 25.390625 
L 37.796875 25.390625 
z
M 35.203125 72.90625 
L 47.609375 72.90625 
L 47.609375 25.390625 
L 58.015625 25.390625 
L 58.015625 17.1875 
L 47.609375 17.1875 
L 47.609375 0 
L 37.796875 0 
L 37.796875 17.1875 
L 4.890625 17.1875 
L 4.890625 26.703125 
z
" id="BitstreamVeraSans-Roman-34"/>
      </defs>
      <g transform="translate(224.060625 381.859875)scale(0.12 -0.12)">
       <use xlink:href="#BitstreamVeraSans-Roman-34"/>
       <use x="63.623046875" xlink:href="#BitstreamVeraSans-Roman-30"/>
       <use x="127.24609375" xlink:href="#BitstreamVeraSans-Roman-30"/>
      </g>
     </g>
    </g>
    <g id="xtick_4">
     <g id="line2d_8">
      <g>
       <use style="stroke:#000000;stroke-width:0.5;" x="324.793125" xlink:href="#m2b3483627e" y="368.74175"/>
      </g>
     </g>
     <g id="line2d_9">
      <g>
       <use style="stroke:#000000;stroke-width:0.5;" x="324.793125" xlink:href="#m61c4dd43f4" y="23.14175"/>
      </g>
     </g>
     <g id="text_4">
      <!-- 600 -->
      <defs>
       <path d="M 33.015625 40.375 
Q 26.375 40.375 22.484375 35.828125 
Q 18.609375 31.296875 18.609375 23.390625 
Q 18.609375 15.53125 22.484375 10.953125 
Q 26.375 6.390625 33.015625 6.390625 
Q 39.65625 6.390625 43.53125 10.953125 
Q 47.40625 15.53125 47.40625 23.390625 
Q 47.40625 31.296875 43.53125 35.828125 
Q 39.65625 40.375 33.015625 40.375 
M 52.59375 71.296875 
L 52.59375 62.3125 
Q 48.875 64.0625 45.09375 64.984375 
Q 41.3125 65.921875 37.59375 65.921875 
Q 27.828125 65.921875 22.671875 59.328125 
Q 17.53125 52.734375 16.796875 39.40625 
Q 19.671875 43.65625 24.015625 45.921875 
Q 28.375 48.1875 33.59375 48.1875 
Q 44.578125 48.1875 50.953125 41.515625 
Q 57.328125 34.859375 57.328125 23.390625 
Q 57.328125 12.15625 50.6875 5.359375 
Q 44.046875 -1.421875 33.015625 -1.421875 
Q 20.359375 -1.421875 13.671875 8.265625 
Q 6.984375 17.96875 6.984375 36.375 
Q 6.984375 53.65625 15.1875 63.9375 
Q 23.390625 74.21875 37.203125 74.21875 
Q 40.921875 74.21875 44.703125 73.484375 
Q 48.484375 72.75 52.59375 71.296875 
" id="BitstreamVeraSans-Roman-36"/>
      </defs>
      <g transform="translate(313.340625 381.859875)scale(0.12 -0.12)">
       <use xlink:href="#BitstreamVeraSans-Roman-36"/>
       <use x="63.623046875" xlink:href="#BitstreamVeraSans-Roman-30"/>
       <use x="127.24609375" xlink:href="#BitstreamVeraSans-Roman-30"/>
      </g>
     </g>
    </g>
    <g id="xtick_5">
     <g id="line2d_10">
      <g>
       <use style="stroke:#000000;stroke-width:0.5;" x="414.073125" xlink:href="#m2b3483627e" y="368.74175"/>
      </g>
     </g>
     <g id="line2d_11">
      <g>
       <use style="stroke:#000000;stroke-width:0.5;" x="414.073125" xlink:href="#m61c4dd43f4" y="23.14175"/>
      </g>
     </g>
     <g id="text_5">
      <!-- 800 -->
      <defs>
       <path d="M 31.78125 34.625 
Q 24.75 34.625 20.71875 30.859375 
Q 16.703125 27.09375 16.703125 20.515625 
Q 16.703125 13.921875 20.71875 10.15625 
Q 24.75 6.390625 31.78125 6.390625 
Q 38.8125 6.390625 42.859375 10.171875 
Q 46.921875 13.96875 46.921875 20.515625 
Q 46.921875 27.09375 42.890625 30.859375 
Q 38.875 34.625 31.78125 34.625 
M 21.921875 38.8125 
Q 15.578125 40.375 12.03125 44.71875 
Q 8.5 49.078125 8.5 55.328125 
Q 8.5 64.0625 14.71875 69.140625 
Q 20.953125 74.21875 31.78125 74.21875 
Q 42.671875 74.21875 48.875 69.140625 
Q 55.078125 64.0625 55.078125 55.328125 
Q 55.078125 49.078125 51.53125 44.71875 
Q 48 40.375 41.703125 38.8125 
Q 48.828125 37.15625 52.796875 32.3125 
Q 56.78125 27.484375 56.78125 20.515625 
Q 56.78125 9.90625 50.3125 4.234375 
Q 43.84375 -1.421875 31.78125 -1.421875 
Q 19.734375 -1.421875 13.25 4.234375 
Q 6.78125 9.90625 6.78125 20.515625 
Q 6.78125 27.484375 10.78125 32.3125 
Q 14.796875 37.15625 21.921875 38.8125 
M 18.3125 54.390625 
Q 18.3125 48.734375 21.84375 45.5625 
Q 25.390625 42.390625 31.78125 42.390625 
Q 38.140625 42.390625 41.71875 45.5625 
Q 45.3125 48.734375 45.3125 54.390625 
Q 45.3125 60.0625 41.71875 63.234375 
Q 38.140625 66.40625 31.78125 66.40625 
Q 25.390625 66.40625 21.84375 63.234375 
Q 18.3125 60.0625 18.3125 54.390625 
" id="BitstreamVeraSans-Roman-38"/>
      </defs>
      <g transform="translate(402.620625 381.859875)scale(0.12 -0.12)">
       <use xlink:href="#BitstreamVeraSans-Roman-38"/>
       <use x="63.623046875" xlink:href="#BitstreamVeraSans-Roman-30"/>
       <use x="127.24609375" xlink:href="#BitstreamVeraSans-Roman-30"/>
      </g>
     </g>
    </g>
    <g id="xtick_6">
     <g id="line2d_12">
      <g>
       <use style="stroke:#000000;stroke-width:0.5;" x="503.353125" xlink:href="#m2b3483627e" y="368.74175"/>
      </g>
     </g>
     <g id="line2d_13">
      <g>
       <use style="stroke:#000000;stroke-width:0.5;" x="503.353125" xlink:href="#m61c4dd43f4" y="23.14175"/>
      </g>
     </g>
     <g id="text_6">
      <!-- 1000 -->
      <defs>
       <path d="M 12.40625 8.296875 
L 28.515625 8.296875 
L 28.515625 63.921875 
L 10.984375 60.40625 
L 10.984375 69.390625 
L 28.421875 72.90625 
L 38.28125 72.90625 
L 38.28125 8.296875 
L 54.390625 8.296875 
L 54.390625 0 
L 12.40625 0 
z
" id="BitstreamVeraSans-Roman-31"/>
      </defs>
      <g transform="translate(488.083125 381.859875)scale(0.12 -0.12)">
       <use xlink:href="#BitstreamVeraSans-Roman-31"/>
       <use x="63.623046875" xlink:href="#BitstreamVeraSans-Roman-30"/>
       <use x="127.24609375" xlink:href="#BitstreamVeraSans-Roman-30"/>
       <use x="190.869140625" xlink:href="#BitstreamVeraSans-Roman-30"/>
      </g>
     </g>
    </g>
    <g id="text_7">
     <!-- episode -->
     <defs>
      <path d="M 56.203125 29.59375 
L 56.203125 25.203125 
L 14.890625 25.203125 
Q 15.484375 15.921875 20.484375 11.0625 
Q 25.484375 6.203125 34.421875 6.203125 
Q 39.59375 6.203125 44.453125 7.46875 
Q 49.3125 8.734375 54.109375 11.28125 
L 54.109375 2.78125 
Q 49.265625 0.734375 44.1875 -0.34375 
Q 39.109375 -1.421875 33.890625 -1.421875 
Q 20.796875 -1.421875 13.15625 6.1875 
Q 5.515625 13.8125 5.515625 26.8125 
Q 5.515625 40.234375 12.765625 48.109375 
Q 20.015625 56 32.328125 56 
Q 43.359375 56 49.78125 48.890625 
Q 56.203125 41.796875 56.203125 29.59375 
M 47.21875 32.234375 
Q 47.125 39.59375 43.09375 43.984375 
Q 39.0625 48.390625 32.421875 48.390625 
Q 24.90625 48.390625 20.390625 44.140625 
Q 15.875 39.890625 15.1875 32.171875 
z
" id="BitstreamVeraSans-Roman-65"/>
      <path d="M 45.40625 46.390625 
L 45.40625 75.984375 
L 54.390625 75.984375 
L 54.390625 0 
L 45.40625 0 
L 45.40625 8.203125 
Q 42.578125 3.328125 38.25 0.953125 
Q 33.9375 -1.421875 27.875 -1.421875 
Q 17.96875 -1.421875 11.734375 6.484375 
Q 5.515625 14.40625 5.515625 27.296875 
Q 5.515625 40.1875 11.734375 48.09375 
Q 17.96875 56 27.875 56 
Q 33.9375 56 38.25 53.625 
Q 42.578125 51.265625 45.40625 46.390625 
M 14.796875 27.296875 
Q 14.796875 17.390625 18.875 11.75 
Q 22.953125 6.109375 30.078125 6.109375 
Q 37.203125 6.109375 41.296875 11.75 
Q 45.40625 17.390625 45.40625 27.296875 
Q 45.40625 37.203125 41.296875 42.84375 
Q 37.203125 48.484375 30.078125 48.484375 
Q 22.953125 48.484375 18.875 42.84375 
Q 14.796875 37.203125 14.796875 27.296875 
" id="BitstreamVeraSans-Roman-64"/>
      <path d="M 9.421875 54.6875 
L 18.40625 54.6875 
L 18.40625 0 
L 9.421875 0 
z
M 9.421875 75.984375 
L 18.40625 75.984375 
L 18.40625 64.59375 
L 9.421875 64.59375 
z
" id="BitstreamVeraSans-Roman-69"/>
      <path d="M 44.28125 53.078125 
L 44.28125 44.578125 
Q 40.484375 46.53125 36.375 47.5 
Q 32.28125 48.484375 27.875 48.484375 
Q 21.1875 48.484375 17.84375 46.4375 
Q 14.5 44.390625 14.5 40.28125 
Q 14.5 37.15625 16.890625 35.375 
Q 19.28125 33.59375 26.515625 31.984375 
L 29.59375 31.296875 
Q 39.15625 29.25 43.1875 25.515625 
Q 47.21875 21.78125 47.21875 15.09375 
Q 47.21875 7.46875 41.1875 3.015625 
Q 35.15625 -1.421875 24.609375 -1.421875 
Q 20.21875 -1.421875 15.453125 -0.5625 
Q 10.6875 0.296875 5.421875 2 
L 5.421875 11.28125 
Q 10.40625 8.6875 15.234375 7.390625 
Q 20.0625 6.109375 24.8125 6.109375 
Q 31.15625 6.109375 34.5625 8.28125 
Q 37.984375 10.453125 37.984375 14.40625 
Q 37.984375 18.0625 35.515625 20.015625 
Q 33.0625 21.96875 24.703125 23.78125 
L 21.578125 24.515625 
Q 13.234375 26.265625 9.515625 29.90625 
Q 5.8125 33.546875 5.8125 39.890625 
Q 5.8125 47.609375 11.28125 51.796875 
Q 16.75 56 26.8125 56 
Q 31.78125 56 36.171875 55.265625 
Q 40.578125 54.546875 44.28125 53.078125 
" id="BitstreamVeraSans-Roman-73"/>
      <path d="M 18.109375 8.203125 
L 18.109375 -20.796875 
L 9.078125 -20.796875 
L 9.078125 54.6875 
L 18.109375 54.6875 
L 18.109375 46.390625 
Q 20.953125 51.265625 25.265625 53.625 
Q 29.59375 56 35.59375 56 
Q 45.5625 56 51.78125 48.09375 
Q 58.015625 40.1875 58.015625 27.296875 
Q 58.015625 14.40625 51.78125 6.484375 
Q 45.5625 -1.421875 35.59375 -1.421875 
Q 29.59375 -1.421875 25.265625 0.953125 
Q 20.953125 3.328125 18.109375 8.203125 
M 48.6875 27.296875 
Q 48.6875 37.203125 44.609375 42.84375 
Q 40.53125 48.484375 33.40625 48.484375 
Q 26.265625 48.484375 22.1875 42.84375 
Q 18.109375 37.203125 18.109375 27.296875 
Q 18.109375 17.390625 22.1875 11.75 
Q 26.265625 6.109375 33.40625 6.109375 
Q 40.53125 6.109375 44.609375 11.75 
Q 48.6875 17.390625 48.6875 27.296875 
" id="BitstreamVeraSans-Roman-70"/>
      <path d="M 30.609375 48.390625 
Q 23.390625 48.390625 19.1875 42.75 
Q 14.984375 37.109375 14.984375 27.296875 
Q 14.984375 17.484375 19.15625 11.84375 
Q 23.34375 6.203125 30.609375 6.203125 
Q 37.796875 6.203125 41.984375 11.859375 
Q 46.1875 17.53125 46.1875 27.296875 
Q 46.1875 37.015625 41.984375 42.703125 
Q 37.796875 48.390625 30.609375 48.390625 
M 30.609375 56 
Q 42.328125 56 49.015625 48.375 
Q 55.71875 40.765625 55.71875 27.296875 
Q 55.71875 13.875 49.015625 6.21875 
Q 42.328125 -1.421875 30.609375 -1.421875 
Q 18.84375 -1.421875 12.171875 6.21875 
Q 5.515625 13.875 5.515625 27.296875 
Q 5.515625 40.765625 12.171875 48.375 
Q 18.84375 56 30.609375 56 
" id="BitstreamVeraSans-Roman-6f"/>
     </defs>
     <g transform="translate(256.6875 398.473625)scale(0.12 -0.12)">
      <use xlink:href="#BitstreamVeraSans-Roman-65"/>
      <use x="61.5234375" xlink:href="#BitstreamVeraSans-Roman-70"/>
      <use x="125.0" xlink:href="#BitstreamVeraSans-Roman-69"/>
      <use x="152.783203125" xlink:href="#BitstreamVeraSans-Roman-73"/>
      <use x="204.8828125" xlink:href="#BitstreamVeraSans-Roman-6f"/>
      <use x="266.064453125" xlink:href="#BitstreamVeraSans-Roman-64"/>
      <use x="329.541015625" xlink:href="#BitstreamVeraSans-Roman-65"/>
     </g>
    </g>
   </g>
   <g id="matplotlib.axis_2">
    <g id="ytick_1">
     <g id="line2d_14">
      <defs>
       <path d="M 0 0 
L 4 0 
" id="m80201ba234" style="stroke:#000000;stroke-width:0.5;"/>
      </defs>
      <g>
       <use style="stroke:#000000;stroke-width:0.5;" x="56.953125" xlink:href="#m80201ba234" y="368.74175"/>
      </g>
     </g>
     <g id="line2d_15">
      <defs>
       <path d="M 0 0 
L -4 0 
" id="mf39fe1140a" style="stroke:#000000;stroke-width:0.5;"/>
      </defs>
      <g>
       <use style="stroke:#000000;stroke-width:0.5;" x="503.353125" xlink:href="#mf39fe1140a" y="368.74175"/>
      </g>
     </g>
     <g id="text_8">
      <!-- −0.1 -->
      <defs>
       <path d="M 10.6875 12.40625 
L 21 12.40625 
L 21 0 
L 10.6875 0 
z
" id="BitstreamVeraSans-Roman-2e"/>
       <path d="M 10.59375 35.5 
L 73.1875 35.5 
L 73.1875 27.203125 
L 10.59375 27.203125 
z
" id="BitstreamVeraSans-Roman-2212"/>
      </defs>
      <g transform="translate(23.81375 372.053)scale(0.12 -0.12)">
       <use xlink:href="#BitstreamVeraSans-Roman-2212"/>
       <use x="83.7890625" xlink:href="#BitstreamVeraSans-Roman-30"/>
       <use x="147.412109375" xlink:href="#BitstreamVeraSans-Roman-2e"/>
       <use x="179.19921875" xlink:href="#BitstreamVeraSans-Roman-31"/>
      </g>
     </g>
    </g>
    <g id="ytick_2">
     <g id="line2d_16">
      <g>
       <use style="stroke:#000000;stroke-width:0.5;" x="56.953125" xlink:href="#m80201ba234" y="330.34175"/>
      </g>
     </g>
     <g id="line2d_17">
      <g>
       <use style="stroke:#000000;stroke-width:0.5;" x="503.353125" xlink:href="#mf39fe1140a" y="330.34175"/>
      </g>
     </g>
     <g id="text_9">
      <!-- 0.0 -->
      <g transform="translate(33.869375 333.653)scale(0.12 -0.12)">
       <use xlink:href="#BitstreamVeraSans-Roman-30"/>
       <use x="63.623046875" xlink:href="#BitstreamVeraSans-Roman-2e"/>
       <use x="95.41015625" xlink:href="#BitstreamVeraSans-Roman-30"/>
      </g>
     </g>
    </g>
    <g id="ytick_3">
     <g id="line2d_18">
      <g>
       <use style="stroke:#000000;stroke-width:0.5;" x="56.953125" xlink:href="#m80201ba234" y="291.94175"/>
      </g>
     </g>
     <g id="line2d_19">
      <g>
       <use style="stroke:#000000;stroke-width:0.5;" x="503.353125" xlink:href="#mf39fe1140a" y="291.94175"/>
      </g>
     </g>
     <g id="text_10">
      <!-- 0.1 -->
      <g transform="translate(33.869375 295.253)scale(0.12 -0.12)">
       <use xlink:href="#BitstreamVeraSans-Roman-30"/>
       <use x="63.623046875" xlink:href="#BitstreamVeraSans-Roman-2e"/>
       <use x="95.41015625" xlink:href="#BitstreamVeraSans-Roman-31"/>
      </g>
     </g>
    </g>
    <g id="ytick_4">
     <g id="line2d_20">
      <g>
       <use style="stroke:#000000;stroke-width:0.5;" x="56.953125" xlink:href="#m80201ba234" y="253.54175"/>
      </g>
     </g>
     <g id="line2d_21">
      <g>
       <use style="stroke:#000000;stroke-width:0.5;" x="503.353125" xlink:href="#mf39fe1140a" y="253.54175"/>
      </g>
     </g>
     <g id="text_11">
      <!-- 0.2 -->
      <g transform="translate(33.869375 256.853)scale(0.12 -0.12)">
       <use xlink:href="#BitstreamVeraSans-Roman-30"/>
       <use x="63.623046875" xlink:href="#BitstreamVeraSans-Roman-2e"/>
       <use x="95.41015625" xlink:href="#BitstreamVeraSans-Roman-32"/>
      </g>
     </g>
    </g>
    <g id="ytick_5">
     <g id="line2d_22">
      <g>
       <use style="stroke:#000000;stroke-width:0.5;" x="56.953125" xlink:href="#m80201ba234" y="215.14175"/>
      </g>
     </g>
     <g id="line2d_23">
      <g>
       <use style="stroke:#000000;stroke-width:0.5;" x="503.353125" xlink:href="#mf39fe1140a" y="215.14175"/>
      </g>
     </g>
     <g id="text_12">
      <!-- 0.3 -->
      <defs>
       <path d="M 40.578125 39.3125 
Q 47.65625 37.796875 51.625 33 
Q 55.609375 28.21875 55.609375 21.1875 
Q 55.609375 10.40625 48.1875 4.484375 
Q 40.765625 -1.421875 27.09375 -1.421875 
Q 22.515625 -1.421875 17.65625 -0.515625 
Q 12.796875 0.390625 7.625 2.203125 
L 7.625 11.71875 
Q 11.71875 9.328125 16.59375 8.109375 
Q 21.484375 6.890625 26.8125 6.890625 
Q 36.078125 6.890625 40.9375 10.546875 
Q 45.796875 14.203125 45.796875 21.1875 
Q 45.796875 27.640625 41.28125 31.265625 
Q 36.765625 34.90625 28.71875 34.90625 
L 20.21875 34.90625 
L 20.21875 43.015625 
L 29.109375 43.015625 
Q 36.375 43.015625 40.234375 45.921875 
Q 44.09375 48.828125 44.09375 54.296875 
Q 44.09375 59.90625 40.109375 62.90625 
Q 36.140625 65.921875 28.71875 65.921875 
Q 24.65625 65.921875 20.015625 65.03125 
Q 15.375 64.15625 9.8125 62.3125 
L 9.8125 71.09375 
Q 15.4375 72.65625 20.34375 73.4375 
Q 25.25 74.21875 29.59375 74.21875 
Q 40.828125 74.21875 47.359375 69.109375 
Q 53.90625 64.015625 53.90625 55.328125 
Q 53.90625 49.265625 50.4375 45.09375 
Q 46.96875 40.921875 40.578125 39.3125 
" id="BitstreamVeraSans-Roman-33"/>
      </defs>
      <g transform="translate(33.869375 218.453)scale(0.12 -0.12)">
       <use xlink:href="#BitstreamVeraSans-Roman-30"/>
       <use x="63.623046875" xlink:href="#BitstreamVeraSans-Roman-2e"/>
       <use x="95.41015625" xlink:href="#BitstreamVeraSans-Roman-33"/>
      </g>
     </g>
    </g>
    <g id="ytick_6">
     <g id="line2d_24">
      <g>
       <use style="stroke:#000000;stroke-width:0.5;" x="56.953125" xlink:href="#m80201ba234" y="176.74175"/>
      </g>
     </g>
     <g id="line2d_25">
      <g>
       <use style="stroke:#000000;stroke-width:0.5;" x="503.353125" xlink:href="#mf39fe1140a" y="176.74175"/>
      </g>
     </g>
     <g id="text_13">
      <!-- 0.4 -->
      <g transform="translate(33.869375 180.053)scale(0.12 -0.12)">
       <use xlink:href="#BitstreamVeraSans-Roman-30"/>
       <use x="63.623046875" xlink:href="#BitstreamVeraSans-Roman-2e"/>
       <use x="95.41015625" xlink:href="#BitstreamVeraSans-Roman-34"/>
      </g>
     </g>
    </g>
    <g id="ytick_7">
     <g id="line2d_26">
      <g>
       <use style="stroke:#000000;stroke-width:0.5;" x="56.953125" xlink:href="#m80201ba234" y="138.34175"/>
      </g>
     </g>
     <g id="line2d_27">
      <g>
       <use style="stroke:#000000;stroke-width:0.5;" x="503.353125" xlink:href="#mf39fe1140a" y="138.34175"/>
      </g>
     </g>
     <g id="text_14">
      <!-- 0.5 -->
      <defs>
       <path d="M 10.796875 72.90625 
L 49.515625 72.90625 
L 49.515625 64.59375 
L 19.828125 64.59375 
L 19.828125 46.734375 
Q 21.96875 47.46875 24.109375 47.828125 
Q 26.265625 48.1875 28.421875 48.1875 
Q 40.625 48.1875 47.75 41.5 
Q 54.890625 34.8125 54.890625 23.390625 
Q 54.890625 11.625 47.5625 5.09375 
Q 40.234375 -1.421875 26.90625 -1.421875 
Q 22.3125 -1.421875 17.546875 -0.640625 
Q 12.796875 0.140625 7.71875 1.703125 
L 7.71875 11.625 
Q 12.109375 9.234375 16.796875 8.0625 
Q 21.484375 6.890625 26.703125 6.890625 
Q 35.15625 6.890625 40.078125 11.328125 
Q 45.015625 15.765625 45.015625 23.390625 
Q 45.015625 31 40.078125 35.4375 
Q 35.15625 39.890625 26.703125 39.890625 
Q 22.75 39.890625 18.8125 39.015625 
Q 14.890625 38.140625 10.796875 36.28125 
z
" id="BitstreamVeraSans-Roman-35"/>
      </defs>
      <g transform="translate(33.869375 141.653)scale(0.12 -0.12)">
       <use xlink:href="#BitstreamVeraSans-Roman-30"/>
       <use x="63.623046875" xlink:href="#BitstreamVeraSans-Roman-2e"/>
       <use x="95.41015625" xlink:href="#BitstreamVeraSans-Roman-35"/>
      </g>
     </g>
    </g>
    <g id="ytick_8">
     <g id="line2d_28">
      <g>
       <use style="stroke:#000000;stroke-width:0.5;" x="56.953125" xlink:href="#m80201ba234" y="99.94175"/>
      </g>
     </g>
     <g id="line2d_29">
      <g>
       <use style="stroke:#000000;stroke-width:0.5;" x="503.353125" xlink:href="#mf39fe1140a" y="99.94175"/>
      </g>
     </g>
     <g id="text_15">
      <!-- 0.6 -->
      <g transform="translate(33.869375 103.253)scale(0.12 -0.12)">
       <use xlink:href="#BitstreamVeraSans-Roman-30"/>
       <use x="63.623046875" xlink:href="#BitstreamVeraSans-Roman-2e"/>
       <use x="95.41015625" xlink:href="#BitstreamVeraSans-Roman-36"/>
      </g>
     </g>
    </g>
    <g id="ytick_9">
     <g id="line2d_30">
      <g>
       <use style="stroke:#000000;stroke-width:0.5;" x="56.953125" xlink:href="#m80201ba234" y="61.54175"/>
      </g>
     </g>
     <g id="line2d_31">
      <g>
       <use style="stroke:#000000;stroke-width:0.5;" x="503.353125" xlink:href="#mf39fe1140a" y="61.54175"/>
      </g>
     </g>
     <g id="text_16">
      <!-- 0.7 -->
      <defs>
       <path d="M 8.203125 72.90625 
L 55.078125 72.90625 
L 55.078125 68.703125 
L 28.609375 0 
L 18.3125 0 
L 43.21875 64.59375 
L 8.203125 64.59375 
z
" id="BitstreamVeraSans-Roman-37"/>
      </defs>
      <g transform="translate(33.869375 64.853)scale(0.12 -0.12)">
       <use xlink:href="#BitstreamVeraSans-Roman-30"/>
       <use x="63.623046875" xlink:href="#BitstreamVeraSans-Roman-2e"/>
       <use x="95.41015625" xlink:href="#BitstreamVeraSans-Roman-37"/>
      </g>
     </g>
    </g>
    <g id="ytick_10">
     <g id="line2d_32">
      <g>
       <use style="stroke:#000000;stroke-width:0.5;" x="56.953125" xlink:href="#m80201ba234" y="23.14175"/>
      </g>
     </g>
     <g id="line2d_33">
      <g>
       <use style="stroke:#000000;stroke-width:0.5;" x="503.353125" xlink:href="#mf39fe1140a" y="23.14175"/>
      </g>
     </g>
     <g id="text_17">
      <!-- 0.8 -->
      <g transform="translate(33.869375 26.453)scale(0.12 -0.12)">
       <use xlink:href="#BitstreamVeraSans-Roman-30"/>
       <use x="63.623046875" xlink:href="#BitstreamVeraSans-Roman-2e"/>
       <use x="95.41015625" xlink:href="#BitstreamVeraSans-Roman-38"/>
      </g>
     </g>
    </g>
    <g id="text_18">
     <!-- average maxQ -->
     <defs>
      <path d="M 2.984375 54.6875 
L 12.5 54.6875 
L 29.59375 8.796875 
L 46.6875 54.6875 
L 56.203125 54.6875 
L 35.6875 0 
L 23.484375 0 
z
" id="BitstreamVeraSans-Roman-76"/>
      <path id="BitstreamVeraSans-Roman-20"/>
      <path d="M 39.40625 66.21875 
Q 28.65625 66.21875 22.328125 58.203125 
Q 16.015625 50.203125 16.015625 36.375 
Q 16.015625 22.609375 22.328125 14.59375 
Q 28.65625 6.59375 39.40625 6.59375 
Q 50.140625 6.59375 56.421875 14.59375 
Q 62.703125 22.609375 62.703125 36.375 
Q 62.703125 50.203125 56.421875 58.203125 
Q 50.140625 66.21875 39.40625 66.21875 
M 53.21875 1.3125 
L 66.21875 -12.890625 
L 54.296875 -12.890625 
L 43.5 -1.21875 
Q 41.890625 -1.3125 41.03125 -1.359375 
Q 40.1875 -1.421875 39.40625 -1.421875 
Q 24.03125 -1.421875 14.8125 8.859375 
Q 5.609375 19.140625 5.609375 36.375 
Q 5.609375 53.65625 14.8125 63.9375 
Q 24.03125 74.21875 39.40625 74.21875 
Q 54.734375 74.21875 63.90625 63.9375 
Q 73.09375 53.65625 73.09375 36.375 
Q 73.09375 23.6875 67.984375 14.640625 
Q 62.890625 5.609375 53.21875 1.3125 
" id="BitstreamVeraSans-Roman-51"/>
      <path d="M 54.890625 54.6875 
L 35.109375 28.078125 
L 55.90625 0 
L 45.3125 0 
L 29.390625 21.484375 
L 13.484375 0 
L 2.875 0 
L 24.125 28.609375 
L 4.6875 54.6875 
L 15.28125 54.6875 
L 29.78125 35.203125 
L 44.28125 54.6875 
z
" id="BitstreamVeraSans-Roman-78"/>
      <path d="M 45.40625 27.984375 
Q 45.40625 37.75 41.375 43.109375 
Q 37.359375 48.484375 30.078125 48.484375 
Q 22.859375 48.484375 18.828125 43.109375 
Q 14.796875 37.75 14.796875 27.984375 
Q 14.796875 18.265625 18.828125 12.890625 
Q 22.859375 7.515625 30.078125 7.515625 
Q 37.359375 7.515625 41.375 12.890625 
Q 45.40625 18.265625 45.40625 27.984375 
M 54.390625 6.78125 
Q 54.390625 -7.171875 48.1875 -13.984375 
Q 42 -20.796875 29.203125 -20.796875 
Q 24.46875 -20.796875 20.265625 -20.09375 
Q 16.0625 -19.390625 12.109375 -17.921875 
L 12.109375 -9.1875 
Q 16.0625 -11.328125 19.921875 -12.34375 
Q 23.78125 -13.375 27.78125 -13.375 
Q 36.625 -13.375 41.015625 -8.765625 
Q 45.40625 -4.15625 45.40625 5.171875 
L 45.40625 9.625 
Q 42.625 4.78125 38.28125 2.390625 
Q 33.9375 0 27.875 0 
Q 17.828125 0 11.671875 7.65625 
Q 5.515625 15.328125 5.515625 27.984375 
Q 5.515625 40.671875 11.671875 48.328125 
Q 17.828125 56 27.875 56 
Q 33.9375 56 38.28125 53.609375 
Q 42.625 51.21875 45.40625 46.390625 
L 45.40625 54.6875 
L 54.390625 54.6875 
z
" id="BitstreamVeraSans-Roman-67"/>
      <path d="M 34.28125 27.484375 
Q 23.390625 27.484375 19.1875 25 
Q 14.984375 22.515625 14.984375 16.5 
Q 14.984375 11.71875 18.140625 8.90625 
Q 21.296875 6.109375 26.703125 6.109375 
Q 34.1875 6.109375 38.703125 11.40625 
Q 43.21875 16.703125 43.21875 25.484375 
L 43.21875 27.484375 
z
M 52.203125 31.203125 
L 52.203125 0 
L 43.21875 0 
L 43.21875 8.296875 
Q 40.140625 3.328125 35.546875 0.953125 
Q 30.953125 -1.421875 24.3125 -1.421875 
Q 15.921875 -1.421875 10.953125 3.296875 
Q 6 8.015625 6 15.921875 
Q 6 25.140625 12.171875 29.828125 
Q 18.359375 34.515625 30.609375 34.515625 
L 43.21875 34.515625 
L 43.21875 35.40625 
Q 43.21875 41.609375 39.140625 45 
Q 35.0625 48.390625 27.6875 48.390625 
Q 23 48.390625 18.546875 47.265625 
Q 14.109375 46.140625 10.015625 43.890625 
L 10.015625 52.203125 
Q 14.9375 54.109375 19.578125 55.046875 
Q 24.21875 56 28.609375 56 
Q 40.484375 56 46.34375 49.84375 
Q 52.203125 43.703125 52.203125 31.203125 
" id="BitstreamVeraSans-Roman-61"/>
      <path d="M 52 44.1875 
Q 55.375 50.25 60.0625 53.125 
Q 64.75 56 71.09375 56 
Q 79.640625 56 84.28125 50.015625 
Q 88.921875 44.046875 88.921875 33.015625 
L 88.921875 0 
L 79.890625 0 
L 79.890625 32.71875 
Q 79.890625 40.578125 77.09375 44.375 
Q 74.3125 48.1875 68.609375 48.1875 
Q 61.625 48.1875 57.5625 43.546875 
Q 53.515625 38.921875 53.515625 30.90625 
L 53.515625 0 
L 44.484375 0 
L 44.484375 32.71875 
Q 44.484375 40.625 41.703125 44.40625 
Q 38.921875 48.1875 33.109375 48.1875 
Q 26.21875 48.1875 22.15625 43.53125 
Q 18.109375 38.875 18.109375 30.90625 
L 18.109375 0 
L 9.078125 0 
L 9.078125 54.6875 
L 18.109375 54.6875 
L 18.109375 46.1875 
Q 21.1875 51.21875 25.484375 53.609375 
Q 29.78125 56 35.6875 56 
Q 41.65625 56 45.828125 52.96875 
Q 50 49.953125 52 44.1875 
" id="BitstreamVeraSans-Roman-6d"/>
      <path d="M 41.109375 46.296875 
Q 39.59375 47.171875 37.8125 47.578125 
Q 36.03125 48 33.890625 48 
Q 26.265625 48 22.1875 43.046875 
Q 18.109375 38.09375 18.109375 28.8125 
L 18.109375 0 
L 9.078125 0 
L 9.078125 54.6875 
L 18.109375 54.6875 
L 18.109375 46.1875 
Q 20.953125 51.171875 25.484375 53.578125 
Q 30.03125 56 36.53125 56 
Q 37.453125 56 38.578125 55.875 
Q 39.703125 55.765625 41.0625 55.515625 
z
" id="BitstreamVeraSans-Roman-72"/>
     </defs>
     <g transform="translate(16.318125 240.208625)rotate(-90.0)scale(0.12 -0.12)">
      <use xlink:href="#BitstreamVeraSans-Roman-61"/>
      <use x="61.279296875" xlink:href="#BitstreamVeraSans-Roman-76"/>
      <use x="120.458984375" xlink:href="#BitstreamVeraSans-Roman-65"/>
      <use x="181.982421875" xlink:href="#BitstreamVeraSans-Roman-72"/>
      <use x="223.095703125" xlink:href="#BitstreamVeraSans-Roman-61"/>
      <use x="284.375" xlink:href="#BitstreamVeraSans-Roman-67"/>
      <use x="347.8515625" xlink:href="#BitstreamVeraSans-Roman-65"/>
      <use x="409.375" xlink:href="#BitstreamVeraSans-Roman-20"/>
      <use x="441.162109375" xlink:href="#BitstreamVeraSans-Roman-6d"/>
      <use x="538.57421875" xlink:href="#BitstreamVeraSans-Roman-61"/>
      <use x="599.853515625" xlink:href="#BitstreamVeraSans-Roman-78"/>
      <use x="659.033203125" xlink:href="#BitstreamVeraSans-Roman-51"/>
     </g>
    </g>
   </g>
   <g id="text_19">
    <!-- Average maxQ per episode, joint4 -->
    <defs>
     <path d="M 54.890625 33.015625 
L 54.890625 0 
L 45.90625 0 
L 45.90625 32.71875 
Q 45.90625 40.484375 42.875 44.328125 
Q 39.84375 48.1875 33.796875 48.1875 
Q 26.515625 48.1875 22.3125 43.546875 
Q 18.109375 38.921875 18.109375 30.90625 
L 18.109375 0 
L 9.078125 0 
L 9.078125 54.6875 
L 18.109375 54.6875 
L 18.109375 46.1875 
Q 21.34375 51.125 25.703125 53.5625 
Q 30.078125 56 35.796875 56 
Q 45.21875 56 50.046875 50.171875 
Q 54.890625 44.34375 54.890625 33.015625 
" id="BitstreamVeraSans-Roman-6e"/>
     <path d="M 11.71875 12.40625 
L 22.015625 12.40625 
L 22.015625 4 
L 14.015625 -11.625 
L 7.71875 -11.625 
L 11.71875 4 
z
" id="BitstreamVeraSans-Roman-2c"/>
     <path d="M 9.421875 54.6875 
L 18.40625 54.6875 
L 18.40625 -0.984375 
Q 18.40625 -11.421875 14.421875 -16.109375 
Q 10.453125 -20.796875 1.609375 -20.796875 
L -1.8125 -20.796875 
L -1.8125 -13.1875 
L 0.59375 -13.1875 
Q 5.71875 -13.1875 7.5625 -10.8125 
Q 9.421875 -8.453125 9.421875 -0.984375 
z
M 9.421875 75.984375 
L 18.40625 75.984375 
L 18.40625 64.59375 
L 9.421875 64.59375 
z
" id="BitstreamVeraSans-Roman-6a"/>
     <path d="M 18.3125 70.21875 
L 18.3125 54.6875 
L 36.8125 54.6875 
L 36.8125 47.703125 
L 18.3125 47.703125 
L 18.3125 18.015625 
Q 18.3125 11.328125 20.140625 9.421875 
Q 21.96875 7.515625 27.59375 7.515625 
L 36.8125 7.515625 
L 36.8125 0 
L 27.59375 0 
Q 17.1875 0 13.234375 3.875 
Q 9.28125 7.765625 9.28125 18.015625 
L 9.28125 47.703125 
L 2.6875 47.703125 
L 2.6875 54.6875 
L 9.28125 54.6875 
L 9.28125 70.21875 
z
" id="BitstreamVeraSans-Roman-74"/>
     <path d="M 34.1875 63.1875 
L 20.796875 26.90625 
L 47.609375 26.90625 
z
M 28.609375 72.90625 
L 39.796875 72.90625 
L 67.578125 0 
L 57.328125 0 
L 50.6875 18.703125 
L 17.828125 18.703125 
L 11.1875 0 
L 0.78125 0 
z
" id="BitstreamVeraSans-Roman-41"/>
    </defs>
    <g transform="translate(156.880125 18.14175)scale(0.144 -0.144)">
     <use xlink:href="#BitstreamVeraSans-Roman-41"/>
     <use x="68.330078125" xlink:href="#BitstreamVeraSans-Roman-76"/>
     <use x="127.509765625" xlink:href="#BitstreamVeraSans-Roman-65"/>
     <use x="189.033203125" xlink:href="#BitstreamVeraSans-Roman-72"/>
     <use x="230.146484375" xlink:href="#BitstreamVeraSans-Roman-61"/>
     <use x="291.42578125" xlink:href="#BitstreamVeraSans-Roman-67"/>
     <use x="354.90234375" xlink:href="#BitstreamVeraSans-Roman-65"/>
     <use x="416.42578125" xlink:href="#BitstreamVeraSans-Roman-20"/>
     <use x="448.212890625" xlink:href="#BitstreamVeraSans-Roman-6d"/>
     <use x="545.625" xlink:href="#BitstreamVeraSans-Roman-61"/>
     <use x="606.904296875" xlink:href="#BitstreamVeraSans-Roman-78"/>
     <use x="666.083984375" xlink:href="#BitstreamVeraSans-Roman-51"/>
     <use x="744.794921875" xlink:href="#BitstreamVeraSans-Roman-20"/>
     <use x="776.58203125" xlink:href="#BitstreamVeraSans-Roman-70"/>
     <use x="840.05859375" xlink:href="#BitstreamVeraSans-Roman-65"/>
     <use x="901.58203125" xlink:href="#BitstreamVeraSans-Roman-72"/>
     <use x="942.6953125" xlink:href="#BitstreamVeraSans-Roman-20"/>
     <use x="974.482421875" xlink:href="#BitstreamVeraSans-Roman-65"/>
     <use x="1036.005859375" xlink:href="#BitstreamVeraSans-Roman-70"/>
     <use x="1099.482421875" xlink:href="#BitstreamVeraSans-Roman-69"/>
     <use x="1127.265625" xlink:href="#BitstreamVeraSans-Roman-73"/>
     <use x="1179.365234375" xlink:href="#BitstreamVeraSans-Roman-6f"/>
     <use x="1240.546875" xlink:href="#BitstreamVeraSans-Roman-64"/>
     <use x="1304.0234375" xlink:href="#BitstreamVeraSans-Roman-65"/>
     <use x="1365.546875" xlink:href="#BitstreamVeraSans-Roman-2c"/>
     <use x="1397.333984375" xlink:href="#BitstreamVeraSans-Roman-20"/>
     <use x="1429.12109375" xlink:href="#BitstreamVeraSans-Roman-6a"/>
     <use x="1456.904296875" xlink:href="#BitstreamVeraSans-Roman-6f"/>
     <use x="1518.0859375" xlink:href="#BitstreamVeraSans-Roman-69"/>
     <use x="1545.869140625" xlink:href="#BitstreamVeraSans-Roman-6e"/>
     <use x="1609.248046875" xlink:href="#BitstreamVeraSans-Roman-74"/>
     <use x="1648.45703125" xlink:href="#BitstreamVeraSans-Roman-34"/>
    </g>
   </g>
  </g>
 </g>
 <defs>
  <clipPath id="p340b872fa5">
   <rect height="345.6" width="446.4" x="56.953125" y="23.14175"/>
  </clipPath>
 </defs>
</svg>
