<?xml version="1.0" encoding="utf-8" standalone="no"?>
<!DOCTYPE svg PUBLIC "-//W3C//DTD SVG 1.1//EN"
  "http://www.w3.org/Graphics/SVG/1.1/DTD/svg11.dtd">
<!-- Created with matplotlib (http://matplotlib.org/) -->
<svg height="408pt" version="1.1" viewBox="0 0 511 408" width="511pt" xmlns="http://www.w3.org/2000/svg" xmlns:xlink="http://www.w3.org/1999/xlink">
 <defs>
  <style type="text/css">
*{stroke-linecap:butt;stroke-linejoin:round;stroke-miterlimit:100000;}
  </style>
 </defs>
 <g id="figure_1">
  <g id="patch_1">
   <path d="M 0 408.16925 
L 511.95 408.16925 
L 511.95 0 
L 0 0 
z
" style="fill:#ffffff;"/>
  </g>
  <g id="axes_1">
   <g id="patch_2">
    <path d="M 46.8975 368.74175 
L 493.2975 368.74175 
L 493.2975 23.14175 
L 46.8975 23.14175 
z
" style="fill:#ffffff;"/>
   </g>
   <g id="line2d_1">
    <path clip-path="url(#p25f33f907d)" d="M 46.8975 341.786979 
L 47.535214 341.236848 
L 48.172929 339.255273 
L 48.810643 347.600313 
L 49.448357 344.213736 
L 50.086071 339.145946 
L 50.723786 345.787299 
L 51.3615 338.289159 
L 51.999214 334.682498 
L 52.636929 331.730994 
L 53.274643 342.687814 
L 53.912357 340.015832 
L 54.550071 344.072562 
L 55.187786 342.726866 
L 55.8255 339.062836 
L 56.463214 340.434466 
L 57.738643 350.885614 
L 58.376357 339.692905 
L 59.014071 335.881754 
L 60.2895 336.610129 
L 60.927214 335.196867 
L 61.564929 336.733908 
L 62.202643 335.447424 
L 62.840357 331.690786 
L 63.478071 341.631044 
L 64.115786 341.503351 
L 64.7535 328.980268 
L 65.391214 345.975477 
L 66.028929 328.88123 
L 66.666643 332.625246 
L 67.304357 345.42813 
L 67.942071 329.902535 
L 68.579786 343.87435 
L 69.2175 345.881097 
L 69.855214 334.172621 
L 70.492929 334.040074 
L 71.130643 342.819142 
L 71.768357 346.282293 
L 72.406071 341.611419 
L 73.043786 342.962214 
L 73.6815 343.276205 
L 74.319214 332.94301 
L 74.956929 332.593054 
L 75.594643 342.029262 
L 76.232357 339.866954 
L 76.870071 339.395573 
L 77.507786 341.50303 
L 78.1455 337.489163 
L 78.783214 339.90334 
L 79.420929 341.772714 
L 80.058643 338.868765 
L 80.696357 344.727478 
L 81.334071 341.138376 
L 81.971786 343.364134 
L 82.6095 345.060729 
L 83.247214 334.248757 
L 83.884929 342.86558 
L 84.522643 339.952143 
L 85.160357 340.486717 
L 85.798071 346.234746 
L 86.435786 345.440013 
L 87.0735 342.547445 
L 87.711214 336.13989 
L 88.348929 337.880515 
L 88.986643 341.553911 
L 89.624357 341.361478 
L 90.262071 333.350117 
L 90.899786 335.256011 
L 91.5375 330.436319 
L 92.812929 333.263246 
L 93.450643 336.438561 
L 94.088357 345.407795 
L 94.726071 334.831676 
L 95.363786 344.776688 
L 96.0015 331.787819 
L 96.639214 330.418535 
L 97.276929 339.239706 
L 97.914643 334.55308 
L 98.552357 346.885992 
L 99.190071 332.358536 
L 99.827786 346.189093 
L 100.4655 341.528466 
L 101.740929 333.378446 
L 102.378643 340.15033 
L 103.016357 339.114138 
L 103.654071 346.648292 
L 104.291786 343.130296 
L 104.9295 331.709046 
L 105.567214 334.430024 
L 106.204929 332.537887 
L 106.842643 340.83767 
L 107.480357 347.422493 
L 108.118071 345.615906 
L 108.755786 339.978486 
L 109.3935 339.240683 
L 110.031214 345.339886 
L 110.668929 333.396447 
L 111.306643 335.818444 
L 111.944357 341.909532 
L 112.582071 332.630712 
L 113.219786 332.453253 
L 113.8575 330.031942 
L 114.495214 334.25012 
L 115.132929 330.791796 
L 115.770643 331.257926 
L 116.408357 328.687738 
L 117.046071 330.294408 
L 117.683786 326.988066 
L 118.3215 327.957256 
L 118.959214 327.191061 
L 119.596929 328.242692 
L 120.234643 330.540475 
L 120.872357 327.262543 
L 121.510071 326.836395 
L 122.147786 327.26902 
L 122.7855 329.00365 
L 123.423214 328.041524 
L 124.060929 328.185323 
L 124.698643 327.794716 
L 125.336357 326.763108 
L 125.974071 328.674124 
L 126.611786 331.33256 
L 127.2495 325.722236 
L 127.887214 326.459267 
L 128.524929 325.642443 
L 129.162643 329.594022 
L 129.800357 327.748619 
L 130.438071 326.332961 
L 131.075786 325.24618 
L 131.7135 333.489811 
L 132.351214 334.071323 
L 132.988929 327.171712 
L 133.626643 330.929162 
L 134.902071 332.912609 
L 135.539786 332.893675 
L 136.1775 329.064378 
L 136.815214 329.584179 
L 137.452929 330.937767 
L 138.090643 330.271372 
L 138.728357 328.269748 
L 139.366071 330.995965 
L 140.003786 329.434195 
L 140.6415 330.717498 
L 141.279214 328.970194 
L 141.916929 330.980905 
L 142.554643 324.081862 
L 143.192357 328.366694 
L 143.830071 327.187853 
L 144.467786 328.830642 
L 145.1055 327.592444 
L 145.743214 327.473634 
L 146.380929 327.742132 
L 147.018643 327.221484 
L 147.656357 323.866384 
L 148.294071 323.548117 
L 148.931786 324.365538 
L 149.5695 321.886539 
L 150.207214 327.107516 
L 150.844929 322.851917 
L 151.482643 321.869649 
L 152.120357 324.168654 
L 152.758071 324.766465 
L 153.395786 325.17892 
L 154.0335 319.000568 
L 154.671214 320.962003 
L 155.946643 322.386691 
L 156.584357 317.626624 
L 157.222071 320.586154 
L 157.859786 318.855145 
L 158.4975 319.166908 
L 159.135214 327.60682 
L 159.772929 324.831274 
L 160.410643 315.769921 
L 161.048357 315.457301 
L 161.686071 318.942356 
L 162.323786 317.27616 
L 162.9615 322.604303 
L 163.599214 317.144298 
L 164.236929 316.920945 
L 164.874643 320.016227 
L 165.512357 314.10401 
L 166.150071 322.086042 
L 166.787786 314.631978 
L 167.4255 318.408098 
L 168.063214 315.749077 
L 168.700929 322.599937 
L 169.338643 309.714929 
L 169.976357 315.791532 
L 170.614071 310.771282 
L 171.251786 312.705122 
L 171.8895 310.732681 
L 172.527214 306.766208 
L 173.164929 307.746328 
L 173.802643 316.590581 
L 174.440357 309.079006 
L 175.078071 318.6996 
L 175.715786 309.063198 
L 176.3535 314.167242 
L 176.991214 313.065059 
L 177.628929 305.967699 
L 178.266643 306.570147 
L 178.904357 312.143202 
L 179.542071 311.627501 
L 180.179786 306.175935 
L 180.8175 308.058155 
L 181.455214 313.092984 
L 182.092929 305.515081 
L 182.730643 312.15701 
L 183.368357 305.631977 
L 184.006071 305.744158 
L 184.643786 303.959855 
L 185.2815 301.619569 
L 185.919214 307.455745 
L 186.556929 302.889262 
L 187.194643 299.744492 
L 187.832357 297.192093 
L 188.470071 302.084491 
L 189.107786 310.272924 
L 190.383214 297.468186 
L 191.020929 303.920975 
L 191.658643 301.095044 
L 192.296357 298.829376 
L 192.934071 297.222262 
L 193.571786 298.295888 
L 194.2095 304.053304 
L 194.847214 303.824603 
L 195.484929 303.974683 
L 196.122643 304.4449 
L 197.398071 301.945615 
L 198.035786 290.853969 
L 198.6735 295.648775 
L 199.311214 290.139508 
L 199.948929 304.40145 
L 200.586643 288.527389 
L 201.224357 288.428722 
L 201.862071 288.211135 
L 202.499786 297.575351 
L 203.1375 285.676079 
L 203.775214 286.455925 
L 204.412929 294.562881 
L 205.050643 290.680988 
L 205.688357 290.889302 
L 206.326071 284.331267 
L 206.963786 284.101764 
L 207.6015 294.539059 
L 208.239214 282.819078 
L 208.876929 296.37185 
L 209.514643 298.016123 
L 210.152357 280.349578 
L 210.790071 279.147132 
L 211.427786 279.518051 
L 212.0655 286.977496 
L 212.703214 299.472014 
L 213.340929 279.412686 
L 213.978643 291.379835 
L 214.616357 278.307664 
L 215.254071 275.94592 
L 215.891786 274.149515 
L 216.5295 284.974087 
L 217.167214 280.415589 
L 217.804929 280.477379 
L 218.442643 275.762554 
L 219.080357 288.177283 
L 219.718071 272.421249 
L 220.355786 270.890947 
L 220.9935 269.668303 
L 221.631214 270.630757 
L 222.268929 269.286036 
L 222.906643 274.606893 
L 223.544357 271.432779 
L 224.182071 272.298364 
L 224.819786 266.8789 
L 225.4575 266.517986 
L 226.095214 271.557522 
L 226.732929 267.226814 
L 227.370643 267.795573 
L 228.008357 269.953436 
L 228.646071 264.985602 
L 229.283786 265.52681 
L 230.559214 260.221377 
L 231.196929 262.161569 
L 231.834643 261.053269 
L 232.472357 260.907555 
L 233.110071 262.97336 
L 233.747786 261.588527 
L 234.3855 280.658231 
L 235.023214 278.855684 
L 236.298643 264.46067 
L 236.936357 262.610232 
L 237.574071 255.160328 
L 238.211786 269.233875 
L 238.8495 258.243014 
L 239.487214 256.213362 
L 240.124929 264.292326 
L 240.762643 261.898119 
L 241.400357 254.298893 
L 242.038071 252.849982 
L 242.675786 266.294665 
L 243.3135 256.636581 
L 243.951214 267.872297 
L 244.588929 252.193994 
L 245.226643 253.773267 
L 245.864357 263.394294 
L 246.502071 254.203592 
L 247.139786 248.542465 
L 247.7775 246.583915 
L 248.415214 258.636474 
L 249.052929 250.432939 
L 249.690643 252.564925 
L 250.328357 259.48113 
L 250.966071 253.475885 
L 251.603786 266.741643 
L 252.2415 245.404682 
L 252.879214 249.085735 
L 253.516929 248.622719 
L 254.154643 250.582605 
L 254.792357 244.205241 
L 255.430071 243.401646 
L 256.067786 241.70303 
L 256.7055 253.009487 
L 257.343214 246.596964 
L 257.980929 250.539246 
L 258.618643 239.286126 
L 259.256357 242.870663 
L 259.894071 240.227228 
L 260.531786 251.953857 
L 261.1695 244.169393 
L 261.807214 250.476844 
L 262.444929 239.837613 
L 263.082643 236.981271 
L 263.720357 237.030633 
L 264.358071 247.415391 
L 264.995786 235.074792 
L 265.6335 233.896225 
L 266.271214 250.546569 
L 266.908929 237.651247 
L 267.546643 240.338891 
L 268.184357 231.69603 
L 268.822071 234.091595 
L 269.459786 238.489397 
L 270.0975 237.77814 
L 270.735214 242.404391 
L 271.372929 243.019294 
L 272.010643 229.293181 
L 272.648357 239.290937 
L 273.286071 230.81636 
L 273.923786 233.264092 
L 274.5615 235.000743 
L 275.199214 231.920842 
L 275.836929 236.649546 
L 276.474643 227.489421 
L 277.112357 232.431828 
L 277.750071 223.279196 
L 278.387786 227.774687 
L 279.0255 228.764477 
L 279.663214 236.049538 
L 280.300929 230.210012 
L 280.938643 235.171213 
L 281.576357 232.035926 
L 282.214071 234.069285 
L 282.851786 226.493675 
L 283.4895 220.745781 
L 284.127214 220.363135 
L 284.764929 219.476453 
L 285.402643 234.162217 
L 286.040357 215.024425 
L 286.678071 225.951882 
L 287.315786 223.61883 
L 287.9535 225.567922 
L 288.591214 216.487036 
L 289.228929 224.621213 
L 289.866643 216.844766 
L 290.504357 215.186874 
L 291.142071 214.96831 
L 291.779786 212.798024 
L 292.4175 213.883848 
L 293.055214 213.51225 
L 293.692929 211.212052 
L 294.330643 215.784394 
L 294.968357 209.26483 
L 295.606071 211.222994 
L 296.243786 209.497733 
L 296.8815 211.699664 
L 298.156929 218.008505 
L 298.794643 208.825324 
L 299.432357 204.556492 
L 300.070071 210.626768 
L 300.707786 219.154475 
L 301.3455 214.970742 
L 301.983214 209.144999 
L 302.620929 212.22198 
L 303.258643 210.598376 
L 303.896357 219.911245 
L 305.171786 200.230126 
L 305.8095 212.901056 
L 306.447214 203.127796 
L 307.084929 214.905112 
L 307.722643 220.331152 
L 308.360357 211.116908 
L 308.998071 198.751571 
L 309.635786 207.031145 
L 310.2735 199.951068 
L 310.911214 199.251037 
L 311.548929 204.318939 
L 312.186643 201.522158 
L 312.824357 210.887921 
L 313.462071 198.904148 
L 314.099786 196.049424 
L 314.7375 196.437963 
L 315.375214 205.826283 
L 316.012929 197.16032 
L 317.288357 190.716474 
L 317.926071 197.60945 
L 318.563786 195.847213 
L 319.839214 188.430737 
L 320.476929 206.245846 
L 321.114643 189.004857 
L 321.752357 193.796094 
L 322.390071 188.15699 
L 323.027786 192.098491 
L 323.6655 189.930512 
L 324.303214 188.17108 
L 324.940929 189.205909 
L 325.578643 186.596772 
L 326.216357 184.760283 
L 326.854071 194.816594 
L 327.491786 185.828772 
L 328.1295 185.098616 
L 328.767214 183.416524 
L 329.404929 183.916983 
L 330.042643 194.34783 
L 330.680357 182.242725 
L 331.318071 180.115507 
L 331.955786 183.363016 
L 332.5935 179.933293 
L 333.231214 185.34357 
L 333.868929 179.199114 
L 334.506643 183.142266 
L 335.144357 183.525795 
L 335.782071 179.63587 
L 336.419786 178.288097 
L 337.0575 176.00701 
L 337.695214 177.094082 
L 338.332929 182.188336 
L 338.970643 175.046805 
L 339.608357 175.70251 
L 340.246071 173.788374 
L 340.883786 176.812175 
L 341.5215 173.976438 
L 342.159214 172.80012 
L 342.796929 178.147925 
L 343.434643 176.052078 
L 344.072357 173.320098 
L 344.710071 181.119159 
L 345.347786 170.209856 
L 346.623214 172.005254 
L 347.260929 165.889208 
L 347.898643 174.042123 
L 348.536357 174.415025 
L 349.174071 172.73814 
L 350.4495 167.204452 
L 351.087214 172.897755 
L 351.724929 166.070398 
L 352.362643 167.575215 
L 353.000357 166.261894 
L 353.638071 166.964267 
L 354.275786 165.751637 
L 354.9135 165.547941 
L 355.551214 167.312906 
L 356.188929 163.762086 
L 356.826643 164.505445 
L 357.464357 163.478344 
L 358.102071 160.458796 
L 358.739786 162.8386 
L 359.3775 161.598671 
L 360.015214 163.959931 
L 360.652929 163.820227 
L 361.290643 174.454837 
L 361.928357 161.626996 
L 362.566071 155.980856 
L 363.203786 158.652255 
L 363.8415 158.842474 
L 364.479214 163.243609 
L 365.116929 156.313074 
L 365.754643 155.041566 
L 366.392357 172.253863 
L 367.030071 155.776801 
L 367.667786 153.187679 
L 368.3055 153.37477 
L 368.943214 154.527068 
L 369.580929 170.318797 
L 370.218643 150.957283 
L 370.856357 149.100089 
L 371.494071 152.144086 
L 372.131786 150.583006 
L 372.7695 167.39873 
L 373.407214 148.596634 
L 374.044929 147.513739 
L 374.682643 167.329396 
L 375.320357 146.428591 
L 375.958071 150.427487 
L 376.595786 165.487181 
L 377.2335 142.805291 
L 377.871214 143.357038 
L 378.508929 141.618554 
L 379.146643 165.701452 
L 379.784357 163.146068 
L 380.422071 149.680427 
L 381.059786 161.816067 
L 381.6975 142.234749 
L 382.335214 139.628507 
L 382.972929 137.792153 
L 383.610643 140.435036 
L 384.248357 138.906761 
L 384.886071 156.069435 
L 385.523786 138.758253 
L 386.1615 143.687359 
L 386.799214 138.834668 
L 387.436929 136.954057 
L 388.074643 153.410408 
L 388.712357 139.002602 
L 389.350071 134.797124 
L 389.987786 157.362266 
L 390.6255 158.296147 
L 391.263214 135.518775 
L 391.900929 157.104249 
L 392.538643 155.30314 
L 393.176357 142.176328 
L 393.814071 154.240506 
L 394.451786 138.417573 
L 395.727214 156.344607 
L 396.364929 131.469237 
L 397.002643 153.212455 
L 397.640357 129.990533 
L 398.278071 151.497491 
L 398.915786 146.495508 
L 399.5535 152.700618 
L 400.191214 149.921507 
L 400.828929 127.478719 
L 401.466643 126.123465 
L 402.104357 125.306062 
L 402.742071 125.708574 
L 403.379786 125.205417 
L 404.0175 149.122114 
L 404.655214 130.483076 
L 405.292929 150.242467 
L 405.930643 149.054126 
L 406.568357 136.47963 
L 407.206071 151.648766 
L 407.843786 124.43604 
L 408.4815 125.366731 
L 409.119214 145.58949 
L 409.756929 145.368159 
L 410.394643 147.739837 
L 411.032357 138.978393 
L 411.670071 145.349802 
L 412.307786 119.985232 
L 412.9455 145.147125 
L 413.583214 147.204866 
L 414.220929 117.586162 
L 414.858643 119.044322 
L 415.496357 121.784298 
L 416.134071 141.876249 
L 416.771786 124.339815 
L 417.4095 124.570011 
L 418.047214 115.731042 
L 418.684929 115.780672 
L 419.322643 140.794108 
L 420.598071 117.174132 
L 421.235786 114.095492 
L 421.8735 113.897288 
L 422.511214 111.216238 
L 423.148929 117.284081 
L 423.786643 116.230149 
L 424.424357 138.172001 
L 425.062071 111.836809 
L 425.699786 109.805556 
L 426.3375 121.81509 
L 426.975214 125.077768 
L 427.612929 114.402406 
L 428.250643 134.591977 
L 428.888357 111.737614 
L 429.526071 112.210272 
L 430.163786 106.808491 
L 430.8015 106.49101 
L 431.439214 110.562416 
L 432.076929 108.236807 
L 432.714643 131.363114 
L 433.352357 113.246369 
L 433.990071 131.514249 
L 434.627786 107.183819 
L 435.2655 107.154765 
L 435.903214 133.678487 
L 436.540929 118.831197 
L 437.178643 127.262066 
L 437.816357 122.204346 
L 438.454071 121.864781 
L 439.091786 107.919605 
L 439.7295 103.481558 
L 440.367214 101.452629 
L 441.004929 130.144586 
L 441.642643 102.670228 
L 442.280357 113.435841 
L 442.918071 98.636875 
L 443.555786 108.054457 
L 444.1935 100.297071 
L 444.831214 103.199065 
L 445.468929 99.573434 
L 446.106643 97.864892 
L 446.744357 98.691994 
L 447.382071 120.200315 
L 448.019786 98.294876 
L 448.6575 96.764952 
L 449.295214 97.387886 
L 449.932929 97.141483 
L 450.570643 97.904353 
L 451.208357 94.292767 
L 451.846071 93.987948 
L 452.483786 92.338177 
L 453.1215 99.77299 
L 453.759214 105.72974 
L 454.396929 95.843042 
L 455.034643 92.508989 
L 455.672357 101.972457 
L 456.310071 99.7175 
L 456.947786 95.183165 
L 457.5855 115.004027 
L 458.223214 90.080118 
L 458.860929 86.21863 
L 459.498643 91.426348 
L 460.136357 88.364312 
L 460.774071 89.178978 
L 461.411786 87.851779 
L 462.0495 109.764884 
L 462.687214 102.493177 
L 463.324929 85.128046 
L 463.962643 96.110349 
L 464.600357 88.392453 
L 465.238071 94.012081 
L 465.875786 97.160412 
L 466.5135 112.214663 
L 467.151214 89.677329 
L 467.788929 95.814948 
L 468.426643 112.385142 
L 469.064357 93.532594 
L 469.702071 90.588238 
L 470.339786 82.837428 
L 470.9775 88.336581 
L 472.252929 91.814327 
L 472.890643 96.92336 
L 473.528357 93.665465 
L 474.166071 88.482837 
L 474.803786 100.471395 
L 475.4415 80.706792 
L 476.079214 86.234313 
L 476.716929 79.414607 
L 477.354643 78.95838 
L 477.992357 74.885567 
L 478.630071 83.665728 
L 479.267786 89.136997 
L 479.9055 79.601488 
L 480.543214 80.250761 
L 481.180929 106.36992 
L 481.818643 108.150647 
L 482.456357 103.776038 
L 483.094071 81.481452 
L 483.731786 90.590466 
L 484.3695 86.334095 
L 485.007214 79.464874 
L 485.644929 69.131209 
L 486.282643 75.257376 
L 486.920357 102.292151 
L 487.558071 77.743563 
L 488.195786 103.819867 
L 488.8335 77.598646 
L 489.471214 80.065149 
L 490.108929 90.561455 
L 490.746643 84.396687 
L 491.384357 79.856779 
L 492.022071 71.986286 
L 492.659786 86.887219 
L 492.659786 86.887219 
" style="fill:none;stroke:#0000ff;stroke-linecap:square;stroke-width:0.5;"/>
   </g>
   <g id="patch_3">
    <path d="M 46.8975 23.14175 
L 493.2975 23.14175 
" style="fill:none;stroke:#000000;stroke-linecap:square;stroke-linejoin:miter;"/>
   </g>
   <g id="patch_4">
    <path d="M 46.8975 368.74175 
L 493.2975 368.74175 
" style="fill:none;stroke:#000000;stroke-linecap:square;stroke-linejoin:miter;"/>
   </g>
   <g id="patch_5">
    <path d="M 493.2975 368.74175 
L 493.2975 23.14175 
" style="fill:none;stroke:#000000;stroke-linecap:square;stroke-linejoin:miter;"/>
   </g>
   <g id="patch_6">
    <path d="M 46.8975 368.74175 
L 46.8975 23.14175 
" style="fill:none;stroke:#000000;stroke-linecap:square;stroke-linejoin:miter;"/>
   </g>
   <g id="matplotlib.axis_1">
    <g id="xtick_1">
     <g id="line2d_2">
      <defs>
       <path d="M 0 0 
L 0 -4 
" id="ma34780e0c7" style="stroke:#000000;stroke-width:0.5;"/>
      </defs>
      <g>
       <use style="stroke:#000000;stroke-width:0.5;" x="46.8975" xlink:href="#ma34780e0c7" y="368.74175"/>
      </g>
     </g>
     <g id="line2d_3">
      <defs>
       <path d="M 0 0 
L 0 4 
" id="m819525b9a4" style="stroke:#000000;stroke-width:0.5;"/>
      </defs>
      <g>
       <use style="stroke:#000000;stroke-width:0.5;" x="46.8975" xlink:href="#m819525b9a4" y="23.14175"/>
      </g>
     </g>
     <g id="text_1">
      <!-- 0 -->
      <defs>
       <path d="M 31.78125 66.40625 
Q 24.171875 66.40625 20.328125 58.90625 
Q 16.5 51.421875 16.5 36.375 
Q 16.5 21.390625 20.328125 13.890625 
Q 24.171875 6.390625 31.78125 6.390625 
Q 39.453125 6.390625 43.28125 13.890625 
Q 47.125 21.390625 47.125 36.375 
Q 47.125 51.421875 43.28125 58.90625 
Q 39.453125 66.40625 31.78125 66.40625 
M 31.78125 74.21875 
Q 44.046875 74.21875 50.515625 64.515625 
Q 56.984375 54.828125 56.984375 36.375 
Q 56.984375 17.96875 50.515625 8.265625 
Q 44.046875 -1.421875 31.78125 -1.421875 
Q 19.53125 -1.421875 13.0625 8.265625 
Q 6.59375 17.96875 6.59375 36.375 
Q 6.59375 54.828125 13.0625 64.515625 
Q 19.53125 74.21875 31.78125 74.21875 
" id="BitstreamVeraSans-Roman-30"/>
      </defs>
      <g transform="translate(43.08 381.859875)scale(0.12 -0.12)">
       <use xlink:href="#BitstreamVeraSans-Roman-30"/>
      </g>
     </g>
    </g>
    <g id="xtick_2">
     <g id="line2d_4">
      <g>
       <use style="stroke:#000000;stroke-width:0.5;" x="110.668928571" xlink:href="#ma34780e0c7" y="368.74175"/>
      </g>
     </g>
     <g id="line2d_5">
      <g>
       <use style="stroke:#000000;stroke-width:0.5;" x="110.668928571" xlink:href="#m819525b9a4" y="23.14175"/>
      </g>
     </g>
     <g id="text_2">
      <!-- 100 -->
      <defs>
       <path d="M 12.40625 8.296875 
L 28.515625 8.296875 
L 28.515625 63.921875 
L 10.984375 60.40625 
L 10.984375 69.390625 
L 28.421875 72.90625 
L 38.28125 72.90625 
L 38.28125 8.296875 
L 54.390625 8.296875 
L 54.390625 0 
L 12.40625 0 
z
" id="BitstreamVeraSans-Roman-31"/>
      </defs>
      <g transform="translate(99.2164285714 381.859875)scale(0.12 -0.12)">
       <use xlink:href="#BitstreamVeraSans-Roman-31"/>
       <use x="63.623046875" xlink:href="#BitstreamVeraSans-Roman-30"/>
       <use x="127.24609375" xlink:href="#BitstreamVeraSans-Roman-30"/>
      </g>
     </g>
    </g>
    <g id="xtick_3">
     <g id="line2d_6">
      <g>
       <use style="stroke:#000000;stroke-width:0.5;" x="174.440357143" xlink:href="#ma34780e0c7" y="368.74175"/>
      </g>
     </g>
     <g id="line2d_7">
      <g>
       <use style="stroke:#000000;stroke-width:0.5;" x="174.440357143" xlink:href="#m819525b9a4" y="23.14175"/>
      </g>
     </g>
     <g id="text_3">
      <!-- 200 -->
      <defs>
       <path d="M 19.1875 8.296875 
L 53.609375 8.296875 
L 53.609375 0 
L 7.328125 0 
L 7.328125 8.296875 
Q 12.9375 14.109375 22.625 23.890625 
Q 32.328125 33.6875 34.8125 36.53125 
Q 39.546875 41.84375 41.421875 45.53125 
Q 43.3125 49.21875 43.3125 52.78125 
Q 43.3125 58.59375 39.234375 62.25 
Q 35.15625 65.921875 28.609375 65.921875 
Q 23.96875 65.921875 18.8125 64.3125 
Q 13.671875 62.703125 7.8125 59.421875 
L 7.8125 69.390625 
Q 13.765625 71.78125 18.9375 73 
Q 24.125 74.21875 28.421875 74.21875 
Q 39.75 74.21875 46.484375 68.546875 
Q 53.21875 62.890625 53.21875 53.421875 
Q 53.21875 48.921875 51.53125 44.890625 
Q 49.859375 40.875 45.40625 35.40625 
Q 44.1875 33.984375 37.640625 27.21875 
Q 31.109375 20.453125 19.1875 8.296875 
" id="BitstreamVeraSans-Roman-32"/>
      </defs>
      <g transform="translate(162.987857143 381.859875)scale(0.12 -0.12)">
       <use xlink:href="#BitstreamVeraSans-Roman-32"/>
       <use x="63.623046875" xlink:href="#BitstreamVeraSans-Roman-30"/>
       <use x="127.24609375" xlink:href="#BitstreamVeraSans-Roman-30"/>
      </g>
     </g>
    </g>
    <g id="xtick_4">
     <g id="line2d_8">
      <g>
       <use style="stroke:#000000;stroke-width:0.5;" x="238.211785714" xlink:href="#ma34780e0c7" y="368.74175"/>
      </g>
     </g>
     <g id="line2d_9">
      <g>
       <use style="stroke:#000000;stroke-width:0.5;" x="238.211785714" xlink:href="#m819525b9a4" y="23.14175"/>
      </g>
     </g>
     <g id="text_4">
      <!-- 300 -->
      <defs>
       <path d="M 40.578125 39.3125 
Q 47.65625 37.796875 51.625 33 
Q 55.609375 28.21875 55.609375 21.1875 
Q 55.609375 10.40625 48.1875 4.484375 
Q 40.765625 -1.421875 27.09375 -1.421875 
Q 22.515625 -1.421875 17.65625 -0.515625 
Q 12.796875 0.390625 7.625 2.203125 
L 7.625 11.71875 
Q 11.71875 9.328125 16.59375 8.109375 
Q 21.484375 6.890625 26.8125 6.890625 
Q 36.078125 6.890625 40.9375 10.546875 
Q 45.796875 14.203125 45.796875 21.1875 
Q 45.796875 27.640625 41.28125 31.265625 
Q 36.765625 34.90625 28.71875 34.90625 
L 20.21875 34.90625 
L 20.21875 43.015625 
L 29.109375 43.015625 
Q 36.375 43.015625 40.234375 45.921875 
Q 44.09375 48.828125 44.09375 54.296875 
Q 44.09375 59.90625 40.109375 62.90625 
Q 36.140625 65.921875 28.71875 65.921875 
Q 24.65625 65.921875 20.015625 65.03125 
Q 15.375 64.15625 9.8125 62.3125 
L 9.8125 71.09375 
Q 15.4375 72.65625 20.34375 73.4375 
Q 25.25 74.21875 29.59375 74.21875 
Q 40.828125 74.21875 47.359375 69.109375 
Q 53.90625 64.015625 53.90625 55.328125 
Q 53.90625 49.265625 50.4375 45.09375 
Q 46.96875 40.921875 40.578125 39.3125 
" id="BitstreamVeraSans-Roman-33"/>
      </defs>
      <g transform="translate(226.759285714 381.859875)scale(0.12 -0.12)">
       <use xlink:href="#BitstreamVeraSans-Roman-33"/>
       <use x="63.623046875" xlink:href="#BitstreamVeraSans-Roman-30"/>
       <use x="127.24609375" xlink:href="#BitstreamVeraSans-Roman-30"/>
      </g>
     </g>
    </g>
    <g id="xtick_5">
     <g id="line2d_10">
      <g>
       <use style="stroke:#000000;stroke-width:0.5;" x="301.983214286" xlink:href="#ma34780e0c7" y="368.74175"/>
      </g>
     </g>
     <g id="line2d_11">
      <g>
       <use style="stroke:#000000;stroke-width:0.5;" x="301.983214286" xlink:href="#m819525b9a4" y="23.14175"/>
      </g>
     </g>
     <g id="text_5">
      <!-- 400 -->
      <defs>
       <path d="M 37.796875 64.3125 
L 12.890625 25.390625 
L 37.796875 25.390625 
z
M 35.203125 72.90625 
L 47.609375 72.90625 
L 47.609375 25.390625 
L 58.015625 25.390625 
L 58.015625 17.1875 
L 47.609375 17.1875 
L 47.609375 0 
L 37.796875 0 
L 37.796875 17.1875 
L 4.890625 17.1875 
L 4.890625 26.703125 
z
" id="BitstreamVeraSans-Roman-34"/>
      </defs>
      <g transform="translate(290.530714286 381.859875)scale(0.12 -0.12)">
       <use xlink:href="#BitstreamVeraSans-Roman-34"/>
       <use x="63.623046875" xlink:href="#BitstreamVeraSans-Roman-30"/>
       <use x="127.24609375" xlink:href="#BitstreamVeraSans-Roman-30"/>
      </g>
     </g>
    </g>
    <g id="xtick_6">
     <g id="line2d_12">
      <g>
       <use style="stroke:#000000;stroke-width:0.5;" x="365.754642857" xlink:href="#ma34780e0c7" y="368.74175"/>
      </g>
     </g>
     <g id="line2d_13">
      <g>
       <use style="stroke:#000000;stroke-width:0.5;" x="365.754642857" xlink:href="#m819525b9a4" y="23.14175"/>
      </g>
     </g>
     <g id="text_6">
      <!-- 500 -->
      <defs>
       <path d="M 10.796875 72.90625 
L 49.515625 72.90625 
L 49.515625 64.59375 
L 19.828125 64.59375 
L 19.828125 46.734375 
Q 21.96875 47.46875 24.109375 47.828125 
Q 26.265625 48.1875 28.421875 48.1875 
Q 40.625 48.1875 47.75 41.5 
Q 54.890625 34.8125 54.890625 23.390625 
Q 54.890625 11.625 47.5625 5.09375 
Q 40.234375 -1.421875 26.90625 -1.421875 
Q 22.3125 -1.421875 17.546875 -0.640625 
Q 12.796875 0.140625 7.71875 1.703125 
L 7.71875 11.625 
Q 12.109375 9.234375 16.796875 8.0625 
Q 21.484375 6.890625 26.703125 6.890625 
Q 35.15625 6.890625 40.078125 11.328125 
Q 45.015625 15.765625 45.015625 23.390625 
Q 45.015625 31 40.078125 35.4375 
Q 35.15625 39.890625 26.703125 39.890625 
Q 22.75 39.890625 18.8125 39.015625 
Q 14.890625 38.140625 10.796875 36.28125 
z
" id="BitstreamVeraSans-Roman-35"/>
      </defs>
      <g transform="translate(354.302142857 381.859875)scale(0.12 -0.12)">
       <use xlink:href="#BitstreamVeraSans-Roman-35"/>
       <use x="63.623046875" xlink:href="#BitstreamVeraSans-Roman-30"/>
       <use x="127.24609375" xlink:href="#BitstreamVeraSans-Roman-30"/>
      </g>
     </g>
    </g>
    <g id="xtick_7">
     <g id="line2d_14">
      <g>
       <use style="stroke:#000000;stroke-width:0.5;" x="429.526071429" xlink:href="#ma34780e0c7" y="368.74175"/>
      </g>
     </g>
     <g id="line2d_15">
      <g>
       <use style="stroke:#000000;stroke-width:0.5;" x="429.526071429" xlink:href="#m819525b9a4" y="23.14175"/>
      </g>
     </g>
     <g id="text_7">
      <!-- 600 -->
      <defs>
       <path d="M 33.015625 40.375 
Q 26.375 40.375 22.484375 35.828125 
Q 18.609375 31.296875 18.609375 23.390625 
Q 18.609375 15.53125 22.484375 10.953125 
Q 26.375 6.390625 33.015625 6.390625 
Q 39.65625 6.390625 43.53125 10.953125 
Q 47.40625 15.53125 47.40625 23.390625 
Q 47.40625 31.296875 43.53125 35.828125 
Q 39.65625 40.375 33.015625 40.375 
M 52.59375 71.296875 
L 52.59375 62.3125 
Q 48.875 64.0625 45.09375 64.984375 
Q 41.3125 65.921875 37.59375 65.921875 
Q 27.828125 65.921875 22.671875 59.328125 
Q 17.53125 52.734375 16.796875 39.40625 
Q 19.671875 43.65625 24.015625 45.921875 
Q 28.375 48.1875 33.59375 48.1875 
Q 44.578125 48.1875 50.953125 41.515625 
Q 57.328125 34.859375 57.328125 23.390625 
Q 57.328125 12.15625 50.6875 5.359375 
Q 44.046875 -1.421875 33.015625 -1.421875 
Q 20.359375 -1.421875 13.671875 8.265625 
Q 6.984375 17.96875 6.984375 36.375 
Q 6.984375 53.65625 15.1875 63.9375 
Q 23.390625 74.21875 37.203125 74.21875 
Q 40.921875 74.21875 44.703125 73.484375 
Q 48.484375 72.75 52.59375 71.296875 
" id="BitstreamVeraSans-Roman-36"/>
      </defs>
      <g transform="translate(418.073571429 381.859875)scale(0.12 -0.12)">
       <use xlink:href="#BitstreamVeraSans-Roman-36"/>
       <use x="63.623046875" xlink:href="#BitstreamVeraSans-Roman-30"/>
       <use x="127.24609375" xlink:href="#BitstreamVeraSans-Roman-30"/>
      </g>
     </g>
    </g>
    <g id="xtick_8">
     <g id="line2d_16">
      <g>
       <use style="stroke:#000000;stroke-width:0.5;" x="493.2975" xlink:href="#ma34780e0c7" y="368.74175"/>
      </g>
     </g>
     <g id="line2d_17">
      <g>
       <use style="stroke:#000000;stroke-width:0.5;" x="493.2975" xlink:href="#m819525b9a4" y="23.14175"/>
      </g>
     </g>
     <g id="text_8">
      <!-- 700 -->
      <defs>
       <path d="M 8.203125 72.90625 
L 55.078125 72.90625 
L 55.078125 68.703125 
L 28.609375 0 
L 18.3125 0 
L 43.21875 64.59375 
L 8.203125 64.59375 
z
" id="BitstreamVeraSans-Roman-37"/>
      </defs>
      <g transform="translate(481.845 381.859875)scale(0.12 -0.12)">
       <use xlink:href="#BitstreamVeraSans-Roman-37"/>
       <use x="63.623046875" xlink:href="#BitstreamVeraSans-Roman-30"/>
       <use x="127.24609375" xlink:href="#BitstreamVeraSans-Roman-30"/>
      </g>
     </g>
    </g>
    <g id="text_9">
     <!-- episode -->
     <defs>
      <path d="M 9.421875 54.6875 
L 18.40625 54.6875 
L 18.40625 0 
L 9.421875 0 
z
M 9.421875 75.984375 
L 18.40625 75.984375 
L 18.40625 64.59375 
L 9.421875 64.59375 
z
" id="BitstreamVeraSans-Roman-69"/>
      <path d="M 44.28125 53.078125 
L 44.28125 44.578125 
Q 40.484375 46.53125 36.375 47.5 
Q 32.28125 48.484375 27.875 48.484375 
Q 21.1875 48.484375 17.84375 46.4375 
Q 14.5 44.390625 14.5 40.28125 
Q 14.5 37.15625 16.890625 35.375 
Q 19.28125 33.59375 26.515625 31.984375 
L 29.59375 31.296875 
Q 39.15625 29.25 43.1875 25.515625 
Q 47.21875 21.78125 47.21875 15.09375 
Q 47.21875 7.46875 41.1875 3.015625 
Q 35.15625 -1.421875 24.609375 -1.421875 
Q 20.21875 -1.421875 15.453125 -0.5625 
Q 10.6875 0.296875 5.421875 2 
L 5.421875 11.28125 
Q 10.40625 8.6875 15.234375 7.390625 
Q 20.0625 6.109375 24.8125 6.109375 
Q 31.15625 6.109375 34.5625 8.28125 
Q 37.984375 10.453125 37.984375 14.40625 
Q 37.984375 18.0625 35.515625 20.015625 
Q 33.0625 21.96875 24.703125 23.78125 
L 21.578125 24.515625 
Q 13.234375 26.265625 9.515625 29.90625 
Q 5.8125 33.546875 5.8125 39.890625 
Q 5.8125 47.609375 11.28125 51.796875 
Q 16.75 56 26.8125 56 
Q 31.78125 56 36.171875 55.265625 
Q 40.578125 54.546875 44.28125 53.078125 
" id="BitstreamVeraSans-Roman-73"/>
      <path d="M 18.109375 8.203125 
L 18.109375 -20.796875 
L 9.078125 -20.796875 
L 9.078125 54.6875 
L 18.109375 54.6875 
L 18.109375 46.390625 
Q 20.953125 51.265625 25.265625 53.625 
Q 29.59375 56 35.59375 56 
Q 45.5625 56 51.78125 48.09375 
Q 58.015625 40.1875 58.015625 27.296875 
Q 58.015625 14.40625 51.78125 6.484375 
Q 45.5625 -1.421875 35.59375 -1.421875 
Q 29.59375 -1.421875 25.265625 0.953125 
Q 20.953125 3.328125 18.109375 8.203125 
M 48.6875 27.296875 
Q 48.6875 37.203125 44.609375 42.84375 
Q 40.53125 48.484375 33.40625 48.484375 
Q 26.265625 48.484375 22.1875 42.84375 
Q 18.109375 37.203125 18.109375 27.296875 
Q 18.109375 17.390625 22.1875 11.75 
Q 26.265625 6.109375 33.40625 6.109375 
Q 40.53125 6.109375 44.609375 11.75 
Q 48.6875 17.390625 48.6875 27.296875 
" id="BitstreamVeraSans-Roman-70"/>
      <path d="M 56.203125 29.59375 
L 56.203125 25.203125 
L 14.890625 25.203125 
Q 15.484375 15.921875 20.484375 11.0625 
Q 25.484375 6.203125 34.421875 6.203125 
Q 39.59375 6.203125 44.453125 7.46875 
Q 49.3125 8.734375 54.109375 11.28125 
L 54.109375 2.78125 
Q 49.265625 0.734375 44.1875 -0.34375 
Q 39.109375 -1.421875 33.890625 -1.421875 
Q 20.796875 -1.421875 13.15625 6.1875 
Q 5.515625 13.8125 5.515625 26.8125 
Q 5.515625 40.234375 12.765625 48.109375 
Q 20.015625 56 32.328125 56 
Q 43.359375 56 49.78125 48.890625 
Q 56.203125 41.796875 56.203125 29.59375 
M 47.21875 32.234375 
Q 47.125 39.59375 43.09375 43.984375 
Q 39.0625 48.390625 32.421875 48.390625 
Q 24.90625 48.390625 20.390625 44.140625 
Q 15.875 39.890625 15.1875 32.171875 
z
" id="BitstreamVeraSans-Roman-65"/>
      <path d="M 30.609375 48.390625 
Q 23.390625 48.390625 19.1875 42.75 
Q 14.984375 37.109375 14.984375 27.296875 
Q 14.984375 17.484375 19.15625 11.84375 
Q 23.34375 6.203125 30.609375 6.203125 
Q 37.796875 6.203125 41.984375 11.859375 
Q 46.1875 17.53125 46.1875 27.296875 
Q 46.1875 37.015625 41.984375 42.703125 
Q 37.796875 48.390625 30.609375 48.390625 
M 30.609375 56 
Q 42.328125 56 49.015625 48.375 
Q 55.71875 40.765625 55.71875 27.296875 
Q 55.71875 13.875 49.015625 6.21875 
Q 42.328125 -1.421875 30.609375 -1.421875 
Q 18.84375 -1.421875 12.171875 6.21875 
Q 5.515625 13.875 5.515625 27.296875 
Q 5.515625 40.765625 12.171875 48.375 
Q 18.84375 56 30.609375 56 
" id="BitstreamVeraSans-Roman-6f"/>
      <path d="M 45.40625 46.390625 
L 45.40625 75.984375 
L 54.390625 75.984375 
L 54.390625 0 
L 45.40625 0 
L 45.40625 8.203125 
Q 42.578125 3.328125 38.25 0.953125 
Q 33.9375 -1.421875 27.875 -1.421875 
Q 17.96875 -1.421875 11.734375 6.484375 
Q 5.515625 14.40625 5.515625 27.296875 
Q 5.515625 40.1875 11.734375 48.09375 
Q 17.96875 56 27.875 56 
Q 33.9375 56 38.25 53.625 
Q 42.578125 51.265625 45.40625 46.390625 
M 14.796875 27.296875 
Q 14.796875 17.390625 18.875 11.75 
Q 22.953125 6.109375 30.078125 6.109375 
Q 37.203125 6.109375 41.296875 11.75 
Q 45.40625 17.390625 45.40625 27.296875 
Q 45.40625 37.203125 41.296875 42.84375 
Q 37.203125 48.484375 30.078125 48.484375 
Q 22.953125 48.484375 18.875 42.84375 
Q 14.796875 37.203125 14.796875 27.296875 
" id="BitstreamVeraSans-Roman-64"/>
     </defs>
     <g transform="translate(246.631875 398.473625)scale(0.12 -0.12)">
      <use xlink:href="#BitstreamVeraSans-Roman-65"/>
      <use x="61.5234375" xlink:href="#BitstreamVeraSans-Roman-70"/>
      <use x="125.0" xlink:href="#BitstreamVeraSans-Roman-69"/>
      <use x="152.783203125" xlink:href="#BitstreamVeraSans-Roman-73"/>
      <use x="204.8828125" xlink:href="#BitstreamVeraSans-Roman-6f"/>
      <use x="266.064453125" xlink:href="#BitstreamVeraSans-Roman-64"/>
      <use x="329.541015625" xlink:href="#BitstreamVeraSans-Roman-65"/>
     </g>
    </g>
   </g>
   <g id="matplotlib.axis_2">
    <g id="ytick_1">
     <g id="line2d_18">
      <defs>
       <path d="M 0 0 
L 4 0 
" id="mc33d76d572" style="stroke:#000000;stroke-width:0.5;"/>
      </defs>
      <g>
       <use style="stroke:#000000;stroke-width:0.5;" x="46.8975" xlink:href="#mc33d76d572" y="368.74175"/>
      </g>
     </g>
     <g id="line2d_19">
      <defs>
       <path d="M 0 0 
L -4 0 
" id="m80a938fe2b" style="stroke:#000000;stroke-width:0.5;"/>
      </defs>
      <g>
       <use style="stroke:#000000;stroke-width:0.5;" x="493.2975" xlink:href="#m80a938fe2b" y="368.74175"/>
      </g>
     </g>
     <g id="text_10">
      <!-- 0.0 -->
      <defs>
       <path d="M 10.6875 12.40625 
L 21 12.40625 
L 21 0 
L 10.6875 0 
z
" id="BitstreamVeraSans-Roman-2e"/>
      </defs>
      <g transform="translate(23.81375 372.053)scale(0.12 -0.12)">
       <use xlink:href="#BitstreamVeraSans-Roman-30"/>
       <use x="63.623046875" xlink:href="#BitstreamVeraSans-Roman-2e"/>
       <use x="95.41015625" xlink:href="#BitstreamVeraSans-Roman-30"/>
      </g>
     </g>
    </g>
    <g id="ytick_2">
     <g id="line2d_20">
      <g>
       <use style="stroke:#000000;stroke-width:0.5;" x="46.8975" xlink:href="#mc33d76d572" y="319.370321429"/>
      </g>
     </g>
     <g id="line2d_21">
      <g>
       <use style="stroke:#000000;stroke-width:0.5;" x="493.2975" xlink:href="#m80a938fe2b" y="319.370321429"/>
      </g>
     </g>
     <g id="text_11">
      <!-- 0.2 -->
      <g transform="translate(23.81375 322.681571429)scale(0.12 -0.12)">
       <use xlink:href="#BitstreamVeraSans-Roman-30"/>
       <use x="63.623046875" xlink:href="#BitstreamVeraSans-Roman-2e"/>
       <use x="95.41015625" xlink:href="#BitstreamVeraSans-Roman-32"/>
      </g>
     </g>
    </g>
    <g id="ytick_3">
     <g id="line2d_22">
      <g>
       <use style="stroke:#000000;stroke-width:0.5;" x="46.8975" xlink:href="#mc33d76d572" y="269.998892857"/>
      </g>
     </g>
     <g id="line2d_23">
      <g>
       <use style="stroke:#000000;stroke-width:0.5;" x="493.2975" xlink:href="#m80a938fe2b" y="269.998892857"/>
      </g>
     </g>
     <g id="text_12">
      <!-- 0.4 -->
      <g transform="translate(23.81375 273.310142857)scale(0.12 -0.12)">
       <use xlink:href="#BitstreamVeraSans-Roman-30"/>
       <use x="63.623046875" xlink:href="#BitstreamVeraSans-Roman-2e"/>
       <use x="95.41015625" xlink:href="#BitstreamVeraSans-Roman-34"/>
      </g>
     </g>
    </g>
    <g id="ytick_4">
     <g id="line2d_24">
      <g>
       <use style="stroke:#000000;stroke-width:0.5;" x="46.8975" xlink:href="#mc33d76d572" y="220.627464286"/>
      </g>
     </g>
     <g id="line2d_25">
      <g>
       <use style="stroke:#000000;stroke-width:0.5;" x="493.2975" xlink:href="#m80a938fe2b" y="220.627464286"/>
      </g>
     </g>
     <g id="text_13">
      <!-- 0.6 -->
      <g transform="translate(23.81375 223.938714286)scale(0.12 -0.12)">
       <use xlink:href="#BitstreamVeraSans-Roman-30"/>
       <use x="63.623046875" xlink:href="#BitstreamVeraSans-Roman-2e"/>
       <use x="95.41015625" xlink:href="#BitstreamVeraSans-Roman-36"/>
      </g>
     </g>
    </g>
    <g id="ytick_5">
     <g id="line2d_26">
      <g>
       <use style="stroke:#000000;stroke-width:0.5;" x="46.8975" xlink:href="#mc33d76d572" y="171.256035714"/>
      </g>
     </g>
     <g id="line2d_27">
      <g>
       <use style="stroke:#000000;stroke-width:0.5;" x="493.2975" xlink:href="#m80a938fe2b" y="171.256035714"/>
      </g>
     </g>
     <g id="text_14">
      <!-- 0.8 -->
      <defs>
       <path d="M 31.78125 34.625 
Q 24.75 34.625 20.71875 30.859375 
Q 16.703125 27.09375 16.703125 20.515625 
Q 16.703125 13.921875 20.71875 10.15625 
Q 24.75 6.390625 31.78125 6.390625 
Q 38.8125 6.390625 42.859375 10.171875 
Q 46.921875 13.96875 46.921875 20.515625 
Q 46.921875 27.09375 42.890625 30.859375 
Q 38.875 34.625 31.78125 34.625 
M 21.921875 38.8125 
Q 15.578125 40.375 12.03125 44.71875 
Q 8.5 49.078125 8.5 55.328125 
Q 8.5 64.0625 14.71875 69.140625 
Q 20.953125 74.21875 31.78125 74.21875 
Q 42.671875 74.21875 48.875 69.140625 
Q 55.078125 64.0625 55.078125 55.328125 
Q 55.078125 49.078125 51.53125 44.71875 
Q 48 40.375 41.703125 38.8125 
Q 48.828125 37.15625 52.796875 32.3125 
Q 56.78125 27.484375 56.78125 20.515625 
Q 56.78125 9.90625 50.3125 4.234375 
Q 43.84375 -1.421875 31.78125 -1.421875 
Q 19.734375 -1.421875 13.25 4.234375 
Q 6.78125 9.90625 6.78125 20.515625 
Q 6.78125 27.484375 10.78125 32.3125 
Q 14.796875 37.15625 21.921875 38.8125 
M 18.3125 54.390625 
Q 18.3125 48.734375 21.84375 45.5625 
Q 25.390625 42.390625 31.78125 42.390625 
Q 38.140625 42.390625 41.71875 45.5625 
Q 45.3125 48.734375 45.3125 54.390625 
Q 45.3125 60.0625 41.71875 63.234375 
Q 38.140625 66.40625 31.78125 66.40625 
Q 25.390625 66.40625 21.84375 63.234375 
Q 18.3125 60.0625 18.3125 54.390625 
" id="BitstreamVeraSans-Roman-38"/>
      </defs>
      <g transform="translate(23.81375 174.567285714)scale(0.12 -0.12)">
       <use xlink:href="#BitstreamVeraSans-Roman-30"/>
       <use x="63.623046875" xlink:href="#BitstreamVeraSans-Roman-2e"/>
       <use x="95.41015625" xlink:href="#BitstreamVeraSans-Roman-38"/>
      </g>
     </g>
    </g>
    <g id="ytick_6">
     <g id="line2d_28">
      <g>
       <use style="stroke:#000000;stroke-width:0.5;" x="46.8975" xlink:href="#mc33d76d572" y="121.884607143"/>
      </g>
     </g>
     <g id="line2d_29">
      <g>
       <use style="stroke:#000000;stroke-width:0.5;" x="493.2975" xlink:href="#m80a938fe2b" y="121.884607143"/>
      </g>
     </g>
     <g id="text_15">
      <!-- 1.0 -->
      <g transform="translate(23.81375 125.195857143)scale(0.12 -0.12)">
       <use xlink:href="#BitstreamVeraSans-Roman-31"/>
       <use x="63.623046875" xlink:href="#BitstreamVeraSans-Roman-2e"/>
       <use x="95.41015625" xlink:href="#BitstreamVeraSans-Roman-30"/>
      </g>
     </g>
    </g>
    <g id="ytick_7">
     <g id="line2d_30">
      <g>
       <use style="stroke:#000000;stroke-width:0.5;" x="46.8975" xlink:href="#mc33d76d572" y="72.5131785714"/>
      </g>
     </g>
     <g id="line2d_31">
      <g>
       <use style="stroke:#000000;stroke-width:0.5;" x="493.2975" xlink:href="#m80a938fe2b" y="72.5131785714"/>
      </g>
     </g>
     <g id="text_16">
      <!-- 1.2 -->
      <g transform="translate(23.81375 75.8244285714)scale(0.12 -0.12)">
       <use xlink:href="#BitstreamVeraSans-Roman-31"/>
       <use x="63.623046875" xlink:href="#BitstreamVeraSans-Roman-2e"/>
       <use x="95.41015625" xlink:href="#BitstreamVeraSans-Roman-32"/>
      </g>
     </g>
    </g>
    <g id="ytick_8">
     <g id="line2d_32">
      <g>
       <use style="stroke:#000000;stroke-width:0.5;" x="46.8975" xlink:href="#mc33d76d572" y="23.14175"/>
      </g>
     </g>
     <g id="line2d_33">
      <g>
       <use style="stroke:#000000;stroke-width:0.5;" x="493.2975" xlink:href="#m80a938fe2b" y="23.14175"/>
      </g>
     </g>
     <g id="text_17">
      <!-- 1.4 -->
      <g transform="translate(23.81375 26.453)scale(0.12 -0.12)">
       <use xlink:href="#BitstreamVeraSans-Roman-31"/>
       <use x="63.623046875" xlink:href="#BitstreamVeraSans-Roman-2e"/>
       <use x="95.41015625" xlink:href="#BitstreamVeraSans-Roman-34"/>
      </g>
     </g>
    </g>
    <g id="text_18">
     <!-- average maxQ -->
     <defs>
      <path d="M 41.109375 46.296875 
Q 39.59375 47.171875 37.8125 47.578125 
Q 36.03125 48 33.890625 48 
Q 26.265625 48 22.1875 43.046875 
Q 18.109375 38.09375 18.109375 28.8125 
L 18.109375 0 
L 9.078125 0 
L 9.078125 54.6875 
L 18.109375 54.6875 
L 18.109375 46.1875 
Q 20.953125 51.171875 25.484375 53.578125 
Q 30.03125 56 36.53125 56 
Q 37.453125 56 38.578125 55.875 
Q 39.703125 55.765625 41.0625 55.515625 
z
" id="BitstreamVeraSans-Roman-72"/>
      <path id="BitstreamVeraSans-Roman-20"/>
      <path d="M 52 44.1875 
Q 55.375 50.25 60.0625 53.125 
Q 64.75 56 71.09375 56 
Q 79.640625 56 84.28125 50.015625 
Q 88.921875 44.046875 88.921875 33.015625 
L 88.921875 0 
L 79.890625 0 
L 79.890625 32.71875 
Q 79.890625 40.578125 77.09375 44.375 
Q 74.3125 48.1875 68.609375 48.1875 
Q 61.625 48.1875 57.5625 43.546875 
Q 53.515625 38.921875 53.515625 30.90625 
L 53.515625 0 
L 44.484375 0 
L 44.484375 32.71875 
Q 44.484375 40.625 41.703125 44.40625 
Q 38.921875 48.1875 33.109375 48.1875 
Q 26.21875 48.1875 22.15625 43.53125 
Q 18.109375 38.875 18.109375 30.90625 
L 18.109375 0 
L 9.078125 0 
L 9.078125 54.6875 
L 18.109375 54.6875 
L 18.109375 46.1875 
Q 21.1875 51.21875 25.484375 53.609375 
Q 29.78125 56 35.6875 56 
Q 41.65625 56 45.828125 52.96875 
Q 50 49.953125 52 44.1875 
" id="BitstreamVeraSans-Roman-6d"/>
      <path d="M 39.40625 66.21875 
Q 28.65625 66.21875 22.328125 58.203125 
Q 16.015625 50.203125 16.015625 36.375 
Q 16.015625 22.609375 22.328125 14.59375 
Q 28.65625 6.59375 39.40625 6.59375 
Q 50.140625 6.59375 56.421875 14.59375 
Q 62.703125 22.609375 62.703125 36.375 
Q 62.703125 50.203125 56.421875 58.203125 
Q 50.140625 66.21875 39.40625 66.21875 
M 53.21875 1.3125 
L 66.21875 -12.890625 
L 54.296875 -12.890625 
L 43.5 -1.21875 
Q 41.890625 -1.3125 41.03125 -1.359375 
Q 40.1875 -1.421875 39.40625 -1.421875 
Q 24.03125 -1.421875 14.8125 8.859375 
Q 5.609375 19.140625 5.609375 36.375 
Q 5.609375 53.65625 14.8125 63.9375 
Q 24.03125 74.21875 39.40625 74.21875 
Q 54.734375 74.21875 63.90625 63.9375 
Q 73.09375 53.65625 73.09375 36.375 
Q 73.09375 23.6875 67.984375 14.640625 
Q 62.890625 5.609375 53.21875 1.3125 
" id="BitstreamVeraSans-Roman-51"/>
      <path d="M 54.890625 54.6875 
L 35.109375 28.078125 
L 55.90625 0 
L 45.3125 0 
L 29.390625 21.484375 
L 13.484375 0 
L 2.875 0 
L 24.125 28.609375 
L 4.6875 54.6875 
L 15.28125 54.6875 
L 29.78125 35.203125 
L 44.28125 54.6875 
z
" id="BitstreamVeraSans-Roman-78"/>
      <path d="M 2.984375 54.6875 
L 12.5 54.6875 
L 29.59375 8.796875 
L 46.6875 54.6875 
L 56.203125 54.6875 
L 35.6875 0 
L 23.484375 0 
z
" id="BitstreamVeraSans-Roman-76"/>
      <path d="M 45.40625 27.984375 
Q 45.40625 37.75 41.375 43.109375 
Q 37.359375 48.484375 30.078125 48.484375 
Q 22.859375 48.484375 18.828125 43.109375 
Q 14.796875 37.75 14.796875 27.984375 
Q 14.796875 18.265625 18.828125 12.890625 
Q 22.859375 7.515625 30.078125 7.515625 
Q 37.359375 7.515625 41.375 12.890625 
Q 45.40625 18.265625 45.40625 27.984375 
M 54.390625 6.78125 
Q 54.390625 -7.171875 48.1875 -13.984375 
Q 42 -20.796875 29.203125 -20.796875 
Q 24.46875 -20.796875 20.265625 -20.09375 
Q 16.0625 -19.390625 12.109375 -17.921875 
L 12.109375 -9.1875 
Q 16.0625 -11.328125 19.921875 -12.34375 
Q 23.78125 -13.375 27.78125 -13.375 
Q 36.625 -13.375 41.015625 -8.765625 
Q 45.40625 -4.15625 45.40625 5.171875 
L 45.40625 9.625 
Q 42.625 4.78125 38.28125 2.390625 
Q 33.9375 0 27.875 0 
Q 17.828125 0 11.671875 7.65625 
Q 5.515625 15.328125 5.515625 27.984375 
Q 5.515625 40.671875 11.671875 48.328125 
Q 17.828125 56 27.875 56 
Q 33.9375 56 38.28125 53.609375 
Q 42.625 51.21875 45.40625 46.390625 
L 45.40625 54.6875 
L 54.390625 54.6875 
z
" id="BitstreamVeraSans-Roman-67"/>
      <path d="M 34.28125 27.484375 
Q 23.390625 27.484375 19.1875 25 
Q 14.984375 22.515625 14.984375 16.5 
Q 14.984375 11.71875 18.140625 8.90625 
Q 21.296875 6.109375 26.703125 6.109375 
Q 34.1875 6.109375 38.703125 11.40625 
Q 43.21875 16.703125 43.21875 25.484375 
L 43.21875 27.484375 
z
M 52.203125 31.203125 
L 52.203125 0 
L 43.21875 0 
L 43.21875 8.296875 
Q 40.140625 3.328125 35.546875 0.953125 
Q 30.953125 -1.421875 24.3125 -1.421875 
Q 15.921875 -1.421875 10.953125 3.296875 
Q 6 8.015625 6 15.921875 
Q 6 25.140625 12.171875 29.828125 
Q 18.359375 34.515625 30.609375 34.515625 
L 43.21875 34.515625 
L 43.21875 35.40625 
Q 43.21875 41.609375 39.140625 45 
Q 35.0625 48.390625 27.6875 48.390625 
Q 23 48.390625 18.546875 47.265625 
Q 14.109375 46.140625 10.015625 43.890625 
L 10.015625 52.203125 
Q 14.9375 54.109375 19.578125 55.046875 
Q 24.21875 56 28.609375 56 
Q 40.484375 56 46.34375 49.84375 
Q 52.203125 43.703125 52.203125 31.203125 
" id="BitstreamVeraSans-Roman-61"/>
     </defs>
     <g transform="translate(16.318125 240.208625)rotate(-90.0)scale(0.12 -0.12)">
      <use xlink:href="#BitstreamVeraSans-Roman-61"/>
      <use x="61.279296875" xlink:href="#BitstreamVeraSans-Roman-76"/>
      <use x="120.458984375" xlink:href="#BitstreamVeraSans-Roman-65"/>
      <use x="181.982421875" xlink:href="#BitstreamVeraSans-Roman-72"/>
      <use x="223.095703125" xlink:href="#BitstreamVeraSans-Roman-61"/>
      <use x="284.375" xlink:href="#BitstreamVeraSans-Roman-67"/>
      <use x="347.8515625" xlink:href="#BitstreamVeraSans-Roman-65"/>
      <use x="409.375" xlink:href="#BitstreamVeraSans-Roman-20"/>
      <use x="441.162109375" xlink:href="#BitstreamVeraSans-Roman-6d"/>
      <use x="538.57421875" xlink:href="#BitstreamVeraSans-Roman-61"/>
      <use x="599.853515625" xlink:href="#BitstreamVeraSans-Roman-78"/>
      <use x="659.033203125" xlink:href="#BitstreamVeraSans-Roman-51"/>
     </g>
    </g>
   </g>
   <g id="text_19">
    <!-- Average maxQ per episode, joint 3 -->
    <defs>
     <path d="M 54.890625 33.015625 
L 54.890625 0 
L 45.90625 0 
L 45.90625 32.71875 
Q 45.90625 40.484375 42.875 44.328125 
Q 39.84375 48.1875 33.796875 48.1875 
Q 26.515625 48.1875 22.3125 43.546875 
Q 18.109375 38.921875 18.109375 30.90625 
L 18.109375 0 
L 9.078125 0 
L 9.078125 54.6875 
L 18.109375 54.6875 
L 18.109375 46.1875 
Q 21.34375 51.125 25.703125 53.5625 
Q 30.078125 56 35.796875 56 
Q 45.21875 56 50.046875 50.171875 
Q 54.890625 44.34375 54.890625 33.015625 
" id="BitstreamVeraSans-Roman-6e"/>
     <path d="M 11.71875 12.40625 
L 22.015625 12.40625 
L 22.015625 4 
L 14.015625 -11.625 
L 7.71875 -11.625 
L 11.71875 4 
z
" id="BitstreamVeraSans-Roman-2c"/>
     <path d="M 9.421875 54.6875 
L 18.40625 54.6875 
L 18.40625 -0.984375 
Q 18.40625 -11.421875 14.421875 -16.109375 
Q 10.453125 -20.796875 1.609375 -20.796875 
L -1.8125 -20.796875 
L -1.8125 -13.1875 
L 0.59375 -13.1875 
Q 5.71875 -13.1875 7.5625 -10.8125 
Q 9.421875 -8.453125 9.421875 -0.984375 
z
M 9.421875 75.984375 
L 18.40625 75.984375 
L 18.40625 64.59375 
L 9.421875 64.59375 
z
" id="BitstreamVeraSans-Roman-6a"/>
     <path d="M 18.3125 70.21875 
L 18.3125 54.6875 
L 36.8125 54.6875 
L 36.8125 47.703125 
L 18.3125 47.703125 
L 18.3125 18.015625 
Q 18.3125 11.328125 20.140625 9.421875 
Q 21.96875 7.515625 27.59375 7.515625 
L 36.8125 7.515625 
L 36.8125 0 
L 27.59375 0 
Q 17.1875 0 13.234375 3.875 
Q 9.28125 7.765625 9.28125 18.015625 
L 9.28125 47.703125 
L 2.6875 47.703125 
L 2.6875 54.6875 
L 9.28125 54.6875 
L 9.28125 70.21875 
z
" id="BitstreamVeraSans-Roman-74"/>
     <path d="M 34.1875 63.1875 
L 20.796875 26.90625 
L 47.609375 26.90625 
z
M 28.609375 72.90625 
L 39.796875 72.90625 
L 67.578125 0 
L 57.328125 0 
L 50.6875 18.703125 
L 17.828125 18.703125 
L 11.1875 0 
L 0.78125 0 
z
" id="BitstreamVeraSans-Roman-41"/>
    </defs>
    <g transform="translate(144.53625 18.14175)scale(0.144 -0.144)">
     <use xlink:href="#BitstreamVeraSans-Roman-41"/>
     <use x="68.330078125" xlink:href="#BitstreamVeraSans-Roman-76"/>
     <use x="127.509765625" xlink:href="#BitstreamVeraSans-Roman-65"/>
     <use x="189.033203125" xlink:href="#BitstreamVeraSans-Roman-72"/>
     <use x="230.146484375" xlink:href="#BitstreamVeraSans-Roman-61"/>
     <use x="291.42578125" xlink:href="#BitstreamVeraSans-Roman-67"/>
     <use x="354.90234375" xlink:href="#BitstreamVeraSans-Roman-65"/>
     <use x="416.42578125" xlink:href="#BitstreamVeraSans-Roman-20"/>
     <use x="448.212890625" xlink:href="#BitstreamVeraSans-Roman-6d"/>
     <use x="545.625" xlink:href="#BitstreamVeraSans-Roman-61"/>
     <use x="606.904296875" xlink:href="#BitstreamVeraSans-Roman-78"/>
     <use x="666.083984375" xlink:href="#BitstreamVeraSans-Roman-51"/>
     <use x="744.794921875" xlink:href="#BitstreamVeraSans-Roman-20"/>
     <use x="776.58203125" xlink:href="#BitstreamVeraSans-Roman-70"/>
     <use x="840.05859375" xlink:href="#BitstreamVeraSans-Roman-65"/>
     <use x="901.58203125" xlink:href="#BitstreamVeraSans-Roman-72"/>
     <use x="942.6953125" xlink:href="#BitstreamVeraSans-Roman-20"/>
     <use x="974.482421875" xlink:href="#BitstreamVeraSans-Roman-65"/>
     <use x="1036.005859375" xlink:href="#BitstreamVeraSans-Roman-70"/>
     <use x="1099.482421875" xlink:href="#BitstreamVeraSans-Roman-69"/>
     <use x="1127.265625" xlink:href="#BitstreamVeraSans-Roman-73"/>
     <use x="1179.365234375" xlink:href="#BitstreamVeraSans-Roman-6f"/>
     <use x="1240.546875" xlink:href="#BitstreamVeraSans-Roman-64"/>
     <use x="1304.0234375" xlink:href="#BitstreamVeraSans-Roman-65"/>
     <use x="1365.546875" xlink:href="#BitstreamVeraSans-Roman-2c"/>
     <use x="1397.333984375" xlink:href="#BitstreamVeraSans-Roman-20"/>
     <use x="1429.12109375" xlink:href="#BitstreamVeraSans-Roman-6a"/>
     <use x="1456.904296875" xlink:href="#BitstreamVeraSans-Roman-6f"/>
     <use x="1518.0859375" xlink:href="#BitstreamVeraSans-Roman-69"/>
     <use x="1545.869140625" xlink:href="#BitstreamVeraSans-Roman-6e"/>
     <use x="1609.248046875" xlink:href="#BitstreamVeraSans-Roman-74"/>
     <use x="1648.45703125" xlink:href="#BitstreamVeraSans-Roman-20"/>
     <use x="1680.244140625" xlink:href="#BitstreamVeraSans-Roman-33"/>
    </g>
   </g>
  </g>
 </g>
 <defs>
  <clipPath id="p25f33f907d">
   <rect height="345.6" width="446.4" x="46.8975" y="23.14175"/>
  </clipPath>
 </defs>
</svg>
