<?xml version="1.0" encoding="utf-8" standalone="no"?>
<!DOCTYPE svg PUBLIC "-//W3C//DTD SVG 1.1//EN"
  "http://www.w3.org/Graphics/SVG/1.1/DTD/svg11.dtd">
<!-- Created with matplotlib (http://matplotlib.org/) -->
<svg height="408pt" version="1.1" viewBox="0 0 515 408" width="515pt" xmlns="http://www.w3.org/2000/svg" xmlns:xlink="http://www.w3.org/1999/xlink">
 <defs>
  <style type="text/css">
*{stroke-linecap:butt;stroke-linejoin:round;stroke-miterlimit:100000;}
  </style>
 </defs>
 <g id="figure_1">
  <g id="patch_1">
   <path d="M 0 408.16925 
L 515.7675 408.16925 
L 515.7675 0 
L 0 0 
z
" style="fill:#ffffff;"/>
  </g>
  <g id="axes_1">
   <g id="patch_2">
    <path d="M 46.8975 368.74175 
L 493.2975 368.74175 
L 493.2975 23.14175 
L 46.8975 23.14175 
z
" style="fill:#ffffff;"/>
   </g>
   <g id="line2d_1">
    <path clip-path="url(#p983783a21c)" d="M 47.216357 220.479938 
L 47.535214 202.903764 
L 48.172929 259.551346 
L 48.491786 198.764625 
L 48.810643 237.839289 
L 49.1295 260.731643 
L 49.448357 234.814718 
L 49.767214 273.33685 
L 50.086071 216.529508 
L 50.723786 263.235214 
L 51.042643 252.83426 
L 51.680357 225.8331 
L 51.999214 229.457005 
L 52.318071 206.736471 
L 52.636929 265.776785 
L 52.955786 200.229189 
L 53.274643 274.040317 
L 53.912357 198.972008 
L 54.550071 252.957469 
L 54.868929 222.194116 
L 55.187786 240.144996 
L 55.506643 230.263678 
L 55.8255 232.277298 
L 56.144357 249.944969 
L 56.463214 243.32223 
L 56.782071 250.348164 
L 57.100929 216.336221 
L 57.419786 210.777166 
L 57.738643 190.828252 
L 58.0575 255.002838 
L 58.376357 280.06345 
L 58.695214 195.810803 
L 59.014071 246.645791 
L 59.332929 258.277403 
L 59.651786 244.989714 
L 59.970643 256.925243 
L 60.2895 245.815945 
L 60.608357 222.932076 
L 60.927214 247.118001 
L 61.246071 225.757898 
L 61.564929 255.316313 
L 61.883786 217.877523 
L 62.202643 230.109092 
L 62.5215 214.596689 
L 62.840357 249.006453 
L 63.159214 214.380411 
L 63.478071 210.189325 
L 63.796929 226.680985 
L 64.115786 189.853407 
L 64.434643 227.984989 
L 64.7535 242.679906 
L 65.072357 199.65739 
L 65.391214 242.958337 
L 65.710071 225.508155 
L 66.028929 229.33613 
L 66.347786 262.027567 
L 66.9855 213.152073 
L 67.304357 248.24366 
L 67.623214 211.417582 
L 67.942071 218.593081 
L 68.260929 253.682573 
L 68.579786 244.541077 
L 68.898643 256.77278 
L 69.2175 226.908602 
L 69.536357 255.577913 
L 69.855214 216.915341 
L 70.174071 261.941571 
L 70.492929 234.521703 
L 70.811786 176.394851 
L 71.4495 259.329939 
L 71.768357 243.390968 
L 72.087214 213.862907 
L 72.406071 262.021831 
L 72.724929 253.187417 
L 73.043786 248.071431 
L 73.362643 223.112416 
L 73.6815 218.557837 
L 74.000357 259.398989 
L 74.319214 241.094195 
L 74.638071 245.341644 
L 74.956929 243.544877 
L 75.275786 226.58121 
L 75.594643 231.178272 
L 75.9135 258.96056 
L 76.232357 182.282928 
L 76.551214 257.156343 
L 76.870071 209.802115 
L 77.188929 248.46617 
L 77.507786 256.834372 
L 77.826643 233.378283 
L 78.1455 231.522106 
L 78.464357 223.536128 
L 78.783214 233.038628 
L 79.102071 183.364053 
L 79.739786 266.652823 
L 80.058643 244.001717 
L 80.3775 233.899181 
L 80.696357 213.652663 
L 81.015214 240.573998 
L 81.334071 252.643819 
L 81.652929 205.640164 
L 81.971786 239.746317 
L 82.290643 238.1975 
L 82.6095 241.886902 
L 82.928357 260.500457 
L 83.247214 158.852636 
L 83.566071 197.065183 
L 83.884929 197.164453 
L 84.203786 244.720877 
L 84.522643 198.761474 
L 84.8415 255.338178 
L 85.160357 247.725598 
L 85.479214 167.807931 
L 85.798071 217.653261 
L 86.435786 264.928088 
L 86.754643 187.061521 
L 87.0735 230.917855 
L 87.392357 199.826575 
L 87.711214 234.70314 
L 88.030071 254.246198 
L 88.348929 231.831858 
L 88.667786 154.385272 
L 88.986643 254.168941 
L 89.3055 260.607198 
L 89.624357 239.208029 
L 89.943214 206.485027 
L 90.262071 258.257936 
L 90.580929 177.961576 
L 90.899786 257.55836 
L 91.218643 237.961056 
L 91.5375 181.160581 
L 91.856357 258.553854 
L 92.175214 183.146467 
L 92.494071 226.178646 
L 92.812929 224.544367 
L 93.131786 218.771572 
L 93.450643 257.344218 
L 93.7695 243.492795 
L 94.088357 254.717924 
L 94.407214 244.88262 
L 94.726071 211.747806 
L 95.363786 226.800498 
L 95.682643 193.955115 
L 96.0015 247.803067 
L 96.320357 235.061002 
L 96.639214 242.557353 
L 96.958071 193.261532 
L 97.276929 210.222689 
L 97.595786 233.87579 
L 97.914643 208.268723 
L 98.2335 226.281042 
L 98.552357 266.679153 
L 98.871214 179.955284 
L 99.508929 214.63455 
L 100.146643 245.202642 
L 100.4655 250.017316 
L 100.784357 217.192311 
L 101.103214 224.999032 
L 101.422071 228.350844 
L 101.740929 217.18585 
L 102.059786 221.280136 
L 102.378643 255.257511 
L 102.6975 241.323938 
L 103.016357 194.012376 
L 103.335214 207.986827 
L 103.654071 231.151622 
L 103.972929 202.596756 
L 104.291786 263.51752 
L 104.610643 253.317002 
L 104.9295 234.470565 
L 105.248357 250.536128 
L 105.567214 174.958887 
L 105.886071 259.381582 
L 106.204929 260.497771 
L 106.523786 215.739688 
L 106.842643 266.583906 
L 107.1615 244.377956 
L 107.480357 247.557921 
L 107.799214 245.204167 
L 108.436929 236.642504 
L 108.755786 257.018711 
L 109.074643 222.271172 
L 109.3935 250.292385 
L 109.712357 184.348682 
L 110.031214 266.004533 
L 110.350071 251.934748 
L 110.668929 223.032997 
L 110.987786 239.334503 
L 111.306643 249.227591 
L 111.6255 254.817265 
L 111.944357 170.847499 
L 112.582071 237.578165 
L 112.900929 253.903046 
L 113.219786 255.681353 
L 113.538643 254.574866 
L 113.8575 238.478809 
L 114.176357 261.308953 
L 114.814071 228.180534 
L 115.132929 252.417559 
L 115.451786 251.175698 
L 115.770643 224.120398 
L 116.0895 263.008475 
L 116.408357 228.956584 
L 116.727214 219.604489 
L 117.046071 247.897432 
L 117.364929 256.62572 
L 117.683786 247.405901 
L 118.002643 166.825072 
L 118.3215 170.877184 
L 118.640357 240.103213 
L 119.278071 181.906084 
L 119.596929 227.403392 
L 119.915786 190.272732 
L 120.234643 231.960565 
L 120.5535 249.78827 
L 120.872357 205.911757 
L 121.191214 262.479592 
L 122.466643 180.095841 
L 122.7855 252.933956 
L 123.104357 215.649215 
L 123.423214 245.915935 
L 123.742071 231.605378 
L 124.060929 204.600481 
L 124.379786 228.201324 
L 124.698643 260.418469 
L 125.0175 206.338542 
L 125.336357 215.456437 
L 125.655214 217.835952 
L 125.974071 250.469739 
L 126.292929 258.935977 
L 126.611786 247.116951 
L 126.930643 282.697654 
L 127.2495 348.263168 
L 127.568357 336.607323 
L 128.206071 329.147825 
L 128.524929 328.72794 
L 128.843786 327.647681 
L 129.162643 328.924394 
L 129.4815 327.163892 
L 129.800357 327.948895 
L 130.119214 325.640423 
L 130.438071 325.855003 
L 130.756929 325.256622 
L 131.075786 326.809479 
L 131.394643 324.403571 
L 131.7135 324.853784 
L 132.032357 323.788312 
L 132.351214 323.484195 
L 132.670071 323.372133 
L 132.988929 323.842354 
L 133.307786 322.53447 
L 133.626643 325.166642 
L 133.9455 323.553127 
L 134.264357 319.125822 
L 134.583214 319.160451 
L 134.902071 322.586396 
L 135.220929 321.214776 
L 135.539786 323.002017 
L 135.858643 319.429069 
L 136.1775 319.232151 
L 136.496357 321.491987 
L 137.134071 322.182889 
L 137.452929 320.322261 
L 137.771786 321.196583 
L 138.090643 319.373895 
L 138.4095 319.451835 
L 138.728357 317.066349 
L 139.047214 320.548829 
L 139.366071 316.461753 
L 139.684929 318.698412 
L 140.322643 321.225559 
L 140.6415 319.068824 
L 140.960357 322.426065 
L 141.279214 320.770992 
L 141.598071 317.334054 
L 142.235786 315.817284 
L 142.554643 319.824073 
L 142.8735 319.905215 
L 143.192357 319.557225 
L 143.511214 317.143671 
L 143.830071 316.525965 
L 144.148929 318.877767 
L 144.467786 318.200524 
L 144.786643 319.267814 
L 145.1055 317.068168 
L 145.424357 320.606517 
L 145.743214 314.731969 
L 146.062071 316.5285 
L 146.699786 316.721035 
L 147.018643 320.470165 
L 147.3375 317.472053 
L 147.656357 318.663707 
L 147.975214 317.472709 
L 148.294071 315.122659 
L 148.612929 320.341725 
L 148.931786 315.200677 
L 149.250643 316.752241 
L 149.5695 319.76942 
L 150.207214 313.651895 
L 150.526071 316.061969 
L 150.844929 313.779037 
L 151.163786 313.029988 
L 151.8015 316.23005 
L 152.120357 316.826135 
L 152.439214 319.410709 
L 152.758071 320.787313 
L 153.076929 319.148652 
L 153.395786 314.163484 
L 153.714643 317.286594 
L 154.0335 316.747546 
L 154.352357 313.661152 
L 154.671214 318.446287 
L 154.990071 319.228647 
L 155.308929 309.54768 
L 155.627786 315.982983 
L 155.946643 317.430718 
L 156.2655 312.460448 
L 156.584357 315.46767 
L 156.903214 310.243683 
L 157.222071 316.862669 
L 157.540929 315.484616 
L 157.859786 317.267437 
L 158.178643 316.22731 
L 158.4975 319.45524 
L 158.816357 310.31371 
L 159.135214 313.506151 
L 159.454071 311.940236 
L 159.772929 316.731071 
L 160.091786 317.856517 
L 160.410643 314.368178 
L 160.7295 313.585118 
L 161.048357 311.383543 
L 161.367214 317.589931 
L 161.686071 319.061476 
L 162.004929 316.09872 
L 162.642643 315.515824 
L 162.9615 313.772677 
L 163.280357 318.652614 
L 163.599214 309.025088 
L 163.918071 313.548822 
L 164.236929 316.037029 
L 164.555786 311.720397 
L 164.874643 315.375521 
L 165.1935 313.47633 
L 165.512357 310.742992 
L 165.831214 306.271229 
L 166.150071 312.291522 
L 166.468929 308.880086 
L 166.787786 308.525625 
L 167.106643 314.959007 
L 167.4255 309.818286 
L 167.744357 309.944658 
L 168.063214 310.430967 
L 168.382071 309.042445 
L 168.700929 312.262746 
L 169.019786 317.175402 
L 169.338643 310.330755 
L 169.6575 310.618201 
L 169.976357 310.286468 
L 170.295214 309.752065 
L 170.614071 308.365478 
L 170.932929 312.855562 
L 171.251786 305.218269 
L 171.570643 306.650925 
L 171.8895 309.170037 
L 172.208357 313.145113 
L 172.527214 313.449035 
L 172.846071 308.002389 
L 173.164929 308.825873 
L 173.483786 310.21946 
L 173.802643 313.185882 
L 174.1215 312.085411 
L 174.440357 312.571587 
L 174.759214 308.948833 
L 175.078071 310.398878 
L 175.396929 308.128505 
L 175.715786 311.409087 
L 176.3535 299.945468 
L 176.672357 317.916988 
L 176.991214 301.141397 
L 177.310071 311.311406 
L 177.628929 311.54639 
L 177.947786 309.528269 
L 178.266643 309.765179 
L 178.5855 306.696049 
L 179.223214 302.895846 
L 179.542071 306.88992 
L 179.860929 312.836383 
L 180.498643 306.808373 
L 180.8175 306.373339 
L 181.136357 305.649244 
L 181.455214 301.913303 
L 181.774071 303.180814 
L 182.092929 307.602383 
L 182.411786 306.436164 
L 182.730643 307.755535 
L 183.368357 306.484911 
L 183.687214 304.722759 
L 184.006071 301.212492 
L 184.324929 310.83217 
L 184.643786 306.49117 
L 185.2815 304.812914 
L 185.600357 303.150766 
L 185.919214 306.154313 
L 186.238071 303.810387 
L 186.556929 307.120062 
L 186.875786 292.19791 
L 187.194643 304.625351 
L 187.5135 305.707217 
L 187.832357 305.508587 
L 188.151214 308.61994 
L 188.470071 302.085241 
L 188.788929 304.352285 
L 189.107786 307.943305 
L 189.426643 303.488344 
L 189.7455 308.501996 
L 190.064357 303.883931 
L 190.383214 310.177306 
L 190.702071 297.685306 
L 191.020929 302.514784 
L 191.339786 295.323198 
L 191.9775 312.473643 
L 192.296357 281.531968 
L 192.615214 291.81154 
L 192.934071 308.841409 
L 193.252929 297.272725 
L 193.571786 309.534709 
L 193.890643 301.861464 
L 194.528357 306.444226 
L 194.847214 296.382887 
L 195.166071 294.900922 
L 195.484929 294.817652 
L 195.803786 301.117271 
L 196.122643 299.867745 
L 196.4415 302.77729 
L 196.760357 287.755675 
L 197.079214 305.962647 
L 197.398071 290.16046 
L 197.716929 281.003915 
L 198.035786 281.714463 
L 198.354643 300.007571 
L 198.6735 296.976134 
L 198.992357 299.873583 
L 199.311214 280.766267 
L 199.948929 304.477993 
L 200.267786 288.491568 
L 200.586643 291.029375 
L 200.9055 277.092929 
L 201.224357 295.506154 
L 201.543214 295.902972 
L 201.862071 287.785167 
L 202.180929 285.420072 
L 202.499786 301.258501 
L 202.818643 288.985904 
L 203.1375 302.81714 
L 203.456357 289.479594 
L 203.775214 287.907536 
L 204.094071 275.087314 
L 204.412929 300.887103 
L 204.731786 271.694303 
L 205.050643 303.131929 
L 205.3695 269.932896 
L 205.688357 298.766114 
L 206.007214 276.140469 
L 206.326071 297.474525 
L 206.644929 302.19968 
L 206.963786 296.541038 
L 207.282643 306.892099 
L 207.6015 300.047669 
L 207.920357 274.913759 
L 208.239214 284.27456 
L 208.558071 272.073919 
L 208.876929 294.325613 
L 209.195786 298.913063 
L 209.514643 295.764845 
L 209.8335 295.842019 
L 210.152357 296.452397 
L 210.471214 265.617966 
L 210.790071 295.765709 
L 211.108929 291.382052 
L 211.427786 295.818492 
L 211.746643 281.477536 
L 212.0655 301.817845 
L 212.384357 273.351574 
L 213.340929 297.252059 
L 213.978643 289.329575 
L 214.2975 294.177761 
L 214.616357 296.165652 
L 214.935214 294.645357 
L 215.254071 284.728582 
L 215.572929 289.920712 
L 215.891786 293.072893 
L 216.210643 288.052622 
L 216.5295 296.025456 
L 216.848357 265.513984 
L 217.167214 296.677391 
L 217.486071 287.32212 
L 217.804929 265.842439 
L 218.123786 297.341433 
L 218.442643 263.863208 
L 218.7615 286.203663 
L 219.080357 295.346081 
L 219.399214 297.651483 
L 219.718071 262.970927 
L 220.036929 300.257529 
L 220.355786 287.646197 
L 220.674643 289.911502 
L 220.9935 293.103817 
L 221.312357 274.057329 
L 221.631214 289.752638 
L 221.950071 260.530702 
L 222.268929 281.554194 
L 222.587786 291.912936 
L 222.906643 295.554028 
L 223.2255 257.918529 
L 223.544357 289.051821 
L 223.863214 292.92549 
L 224.182071 282.282234 
L 224.500929 278.644116 
L 224.819786 285.391822 
L 225.138643 283.406388 
L 225.4575 287.522276 
L 225.776357 269.000252 
L 226.095214 273.961626 
L 226.414071 295.036823 
L 226.732929 272.098513 
L 227.051786 285.727096 
L 227.370643 281.00102 
L 227.6895 302.805188 
L 228.327214 265.66479 
L 228.646071 274.574983 
L 228.964929 259.261049 
L 229.283786 268.321293 
L 229.602643 289.624026 
L 229.9215 281.378422 
L 230.240357 298.728523 
L 230.559214 247.186879 
L 230.878071 291.510219 
L 231.196929 267.702828 
L 231.515786 263.636035 
L 232.1535 249.88182 
L 232.472357 283.199307 
L 232.791214 268.183928 
L 233.110071 267.081366 
L 233.428929 243.112287 
L 233.747786 261.26323 
L 234.066643 267.37321 
L 234.704357 286.891586 
L 235.023214 245.682828 
L 235.342071 256.68698 
L 235.660929 246.550223 
L 235.979786 251.80647 
L 236.298643 244.942458 
L 236.6175 249.513808 
L 236.936357 286.23331 
L 237.255214 246.260953 
L 237.574071 287.881277 
L 237.892929 247.813869 
L 238.211786 246.643725 
L 238.530643 243.527358 
L 238.8495 274.752213 
L 239.168357 269.342325 
L 239.487214 257.00377 
L 239.806071 269.755361 
L 240.124929 246.258307 
L 240.443786 250.10995 
L 240.762643 250.029568 
L 241.0815 271.777225 
L 241.400357 275.940247 
L 241.719214 243.497854 
L 242.038071 245.958359 
L 242.356929 250.41452 
L 242.675786 264.032759 
L 242.994643 287.031253 
L 243.3135 242.103752 
L 243.632357 236.145958 
L 244.588929 282.291287 
L 244.907786 249.157283 
L 245.226643 243.107365 
L 245.5455 251.926506 
L 245.864357 244.524629 
L 246.183214 232.552513 
L 246.502071 243.583181 
L 246.820929 248.25099 
L 247.139786 279.686494 
L 247.458643 242.426971 
L 247.7775 237.302294 
L 248.096357 241.645566 
L 248.415214 241.094409 
L 248.734071 241.132952 
L 249.052929 237.775763 
L 249.371786 278.190435 
L 249.690643 246.846159 
L 250.0095 237.274076 
L 250.328357 244.357834 
L 250.647214 232.628715 
L 251.284929 244.328958 
L 251.603786 235.439281 
L 251.922643 285.306425 
L 252.2415 237.210127 
L 252.560357 241.582286 
L 253.198071 234.067271 
L 253.516929 237.143771 
L 253.835786 280.485028 
L 254.154643 239.195405 
L 254.4735 231.940099 
L 254.792357 240.581382 
L 255.111214 222.67045 
L 255.430071 239.495714 
L 255.748929 233.670493 
L 256.067786 225.448547 
L 256.386643 224.976586 
L 256.7055 245.022522 
L 257.024357 225.084034 
L 257.343214 231.102134 
L 257.662071 224.830982 
L 257.980929 232.070212 
L 258.299786 273.10691 
L 258.618643 239.411447 
L 258.9375 248.393347 
L 259.256357 226.424921 
L 259.575214 236.080096 
L 259.894071 218.787372 
L 260.212929 223.242644 
L 260.531786 221.033664 
L 260.850643 238.756234 
L 261.488357 225.772737 
L 261.807214 232.761233 
L 262.126071 228.26041 
L 262.444929 237.764546 
L 262.763786 229.56531 
L 263.082643 228.467339 
L 263.4015 218.80193 
L 263.720357 219.591207 
L 264.039214 222.416696 
L 264.358071 229.284334 
L 264.676929 225.183039 
L 264.995786 228.533635 
L 265.314643 222.253431 
L 265.6335 224.204967 
L 265.952357 220.276941 
L 266.271214 227.112767 
L 266.590071 225.185412 
L 266.908929 220.702379 
L 267.227786 226.038075 
L 267.546643 215.8795 
L 268.184357 237.648378 
L 268.503214 220.885117 
L 268.822071 217.098891 
L 269.140929 224.096206 
L 269.459786 213.667436 
L 269.778643 234.541107 
L 270.0975 219.411245 
L 270.416357 219.988739 
L 270.735214 215.112245 
L 271.054071 250.037892 
L 271.372929 233.968019 
L 271.691786 208.738434 
L 272.010643 236.049332 
L 272.3295 235.901793 
L 272.648357 225.110051 
L 272.967214 220.413813 
L 273.286071 213.607032 
L 273.604929 220.923643 
L 273.923786 217.75131 
L 274.242643 218.991105 
L 274.5615 209.889479 
L 274.880357 268.637253 
L 275.199214 211.251283 
L 275.518071 217.820935 
L 275.836929 247.60357 
L 276.155786 209.089012 
L 276.7935 204.849855 
L 277.112357 213.463469 
L 277.431214 216.079975 
L 277.750071 230.292782 
L 278.068929 208.468529 
L 278.387786 205.256292 
L 278.706643 215.180061 
L 279.0255 215.912646 
L 279.344357 214.899741 
L 279.663214 212.422911 
L 279.982071 205.909057 
L 280.300929 227.93836 
L 280.619786 214.624369 
L 280.938643 220.403742 
L 281.2575 230.278934 
L 281.576357 204.371319 
L 281.895214 214.77041 
L 282.214071 209.118297 
L 282.532929 225.466599 
L 282.851786 209.407914 
L 283.170643 203.492606 
L 283.4895 206.838404 
L 283.808357 238.528912 
L 284.127214 202.369671 
L 284.446071 199.44163 
L 284.764929 203.301739 
L 285.083786 210.051087 
L 285.402643 204.697013 
L 285.7215 230.602926 
L 286.040357 204.223862 
L 286.359214 207.313861 
L 286.678071 202.232792 
L 286.996929 227.50689 
L 287.315786 204.908889 
L 287.634643 195.042519 
L 287.9535 203.188678 
L 288.272357 206.794753 
L 288.591214 194.008492 
L 288.910071 197.40809 
L 289.228929 205.821823 
L 289.547786 227.816824 
L 289.866643 208.36129 
L 290.1855 205.053944 
L 290.504357 192.653611 
L 290.823214 191.569113 
L 291.460929 201.202199 
L 291.779786 196.004064 
L 292.098643 207.046238 
L 292.4175 196.336306 
L 292.736357 199.318288 
L 293.055214 198.304328 
L 293.374071 194.922662 
L 293.692929 200.16474 
L 294.011786 200.588379 
L 294.6495 189.803788 
L 294.968357 192.391057 
L 295.287214 190.93177 
L 295.606071 194.885407 
L 295.924929 210.499499 
L 296.243786 186.890768 
L 296.562643 188.404132 
L 297.200357 195.508603 
L 297.519214 192.532081 
L 297.838071 200.164443 
L 298.156929 189.70053 
L 298.475786 200.543683 
L 298.794643 192.465028 
L 299.1135 201.215594 
L 299.432357 183.282213 
L 299.751214 185.328692 
L 300.070071 186.470299 
L 300.388929 182.929933 
L 300.707786 187.856883 
L 301.026643 181.139918 
L 301.664357 198.759991 
L 301.983214 195.75134 
L 302.302071 194.829167 
L 302.620929 184.980449 
L 302.939786 184.163043 
L 303.258643 229.441558 
L 303.5775 192.89101 
L 303.896357 192.237512 
L 304.215214 180.692511 
L 304.534071 190.322456 
L 304.852929 186.309879 
L 305.171786 185.046766 
L 305.490643 188.967874 
L 305.8095 186.351212 
L 306.128357 188.501706 
L 306.447214 186.343334 
L 306.766071 182.809945 
L 307.084929 192.906641 
L 307.722643 182.884101 
L 308.0415 204.218356 
L 308.360357 214.995942 
L 308.679214 184.715016 
L 308.998071 183.673783 
L 309.635786 173.678921 
L 309.954643 173.249993 
L 310.2735 194.086824 
L 310.592357 182.988397 
L 311.548929 171.530232 
L 311.867786 177.43924 
L 312.186643 177.69358 
L 312.5055 186.727389 
L 312.824357 171.2852 
L 313.143214 176.90098 
L 313.462071 178.239889 
L 313.780929 175.236028 
L 314.099786 187.562447 
L 314.418643 194.277845 
L 314.7375 174.195801 
L 315.056357 178.148983 
L 315.375214 170.62851 
L 315.694071 175.558249 
L 316.012929 168.210481 
L 316.331786 183.639113 
L 316.650643 192.160023 
L 316.9695 170.278197 
L 317.288357 173.182121 
L 317.607214 180.141432 
L 317.926071 178.964032 
L 318.244929 171.616817 
L 318.563786 176.73394 
L 318.882643 172.419639 
L 319.2015 185.710932 
L 319.520357 210.438146 
L 319.839214 172.09852 
L 320.158071 177.705203 
L 320.476929 179.619442 
L 320.795786 185.836455 
L 321.114643 164.580562 
L 321.752357 180.682389 
L 322.071214 175.90747 
L 322.390071 167.527523 
L 322.708929 169.554384 
L 323.027786 166.287559 
L 323.346643 167.303586 
L 323.6655 170.344868 
L 323.984357 169.891046 
L 324.303214 169.636923 
L 324.622071 175.563021 
L 324.940929 171.368242 
L 325.259786 206.361233 
L 325.578643 161.113436 
L 325.8975 161.376447 
L 326.216357 162.619347 
L 326.535214 161.343758 
L 326.854071 162.948027 
L 327.172929 172.485636 
L 327.491786 195.576854 
L 328.1295 161.206289 
L 328.448357 160.333974 
L 328.767214 167.25095 
L 329.086071 157.574798 
L 329.723786 190.146776 
L 330.042643 166.011687 
L 330.3615 160.879504 
L 330.680357 172.186002 
L 330.999214 161.787732 
L 331.318071 156.314128 
L 331.636929 158.922254 
L 331.955786 174.260002 
L 332.274643 174.865289 
L 332.5935 161.411481 
L 332.912357 171.236253 
L 333.231214 159.040418 
L 333.550071 167.840838 
L 333.868929 155.871109 
L 334.187786 168.826077 
L 334.506643 157.545091 
L 334.8255 158.109802 
L 335.144357 153.539339 
L 335.463214 163.747288 
L 335.782071 158.244528 
L 336.100929 157.995972 
L 336.419786 162.776009 
L 336.738643 156.09935 
L 337.0575 178.60771 
L 337.376357 155.909687 
L 337.695214 150.638646 
L 338.014071 151.669748 
L 338.332929 174.339709 
L 338.970643 160.215783 
L 339.2895 156.9509 
L 339.608357 149.203035 
L 339.927214 159.35258 
L 340.246071 163.753811 
L 340.564929 158.766678 
L 340.883786 157.810657 
L 341.202643 151.103398 
L 341.5215 156.742146 
L 341.840357 150.11951 
L 342.159214 151.491047 
L 342.478071 153.760098 
L 342.796929 149.541691 
L 343.115786 151.069871 
L 343.434643 149.413142 
L 343.7535 152.32122 
L 344.072357 145.616743 
L 344.391214 143.572249 
L 344.710071 149.521643 
L 345.028929 152.294018 
L 345.347786 145.565585 
L 345.666643 148.92607 
L 345.9855 149.224276 
L 346.304357 151.449631 
L 346.623214 177.691794 
L 346.942071 151.351266 
L 347.260929 155.153849 
L 347.579786 144.455089 
L 347.898643 143.420394 
L 348.536357 159.439457 
L 348.855214 143.439399 
L 349.174071 145.631435 
L 349.492929 140.418469 
L 349.811786 184.379092 
L 350.130643 141.355158 
L 350.4495 141.73782 
L 350.768357 149.655333 
L 351.087214 143.806267 
L 351.724929 143.124745 
L 352.043786 146.772023 
L 352.362643 156.926431 
L 352.6815 137.59254 
L 353.000357 145.66364 
L 353.319214 142.286974 
L 353.956929 150.951353 
L 354.275786 140.984586 
L 354.594643 152.789484 
L 354.9135 154.721499 
L 355.232357 145.155886 
L 355.551214 139.749633 
L 355.870071 145.440178 
L 356.188929 137.087893 
L 356.826643 154.498029 
L 357.1455 139.160233 
L 357.464357 160.771575 
L 357.783214 133.679511 
L 358.102071 142.274675 
L 358.420929 133.593886 
L 358.739786 143.610753 
L 359.058643 135.843976 
L 359.3775 132.925427 
L 359.696357 138.521146 
L 360.015214 154.03358 
L 360.334071 131.695473 
L 360.652929 146.019791 
L 360.971786 130.894873 
L 361.6095 166.4402 
L 361.928357 134.172489 
L 362.247214 146.510785 
L 362.566071 129.749061 
L 362.884929 136.612332 
L 363.203786 129.609897 
L 363.522643 134.39653 
L 363.8415 133.153994 
L 364.160357 142.602064 
L 364.479214 131.866909 
L 364.798071 139.583566 
L 365.116929 129.264251 
L 365.435786 133.306624 
L 365.754643 146.437193 
L 366.0735 126.793335 
L 366.392357 126.352457 
L 366.711214 130.146352 
L 367.030071 139.585386 
L 367.348929 145.577852 
L 367.667786 131.362043 
L 368.3055 126.284943 
L 368.624357 132.528718 
L 368.943214 133.33928 
L 369.262071 127.635313 
L 369.580929 131.490804 
L 369.899786 124.900603 
L 370.218643 131.993346 
L 370.856357 126.158737 
L 371.175214 136.325958 
L 371.494071 122.24182 
L 371.812929 127.441672 
L 372.131786 125.19637 
L 372.450643 121.14781 
L 372.7695 125.258345 
L 373.088357 126.111176 
L 373.407214 137.132779 
L 373.726071 130.486828 
L 374.044929 129.668719 
L 374.363786 117.902243 
L 374.682643 138.346382 
L 375.0015 121.658477 
L 375.320357 125.189579 
L 375.639214 122.603982 
L 376.276929 129.293451 
L 376.595786 116.075962 
L 377.2335 123.179532 
L 377.552357 121.019986 
L 377.871214 122.404495 
L 378.190071 118.026394 
L 378.508929 127.08829 
L 378.827786 122.385497 
L 379.146643 127.150629 
L 379.4655 121.319635 
L 379.784357 113.054822 
L 380.422071 129.039107 
L 380.740929 183.564381 
L 381.059786 117.047406 
L 381.378643 115.889145 
L 381.6975 120.403442 
L 382.016357 111.047312 
L 382.335214 121.810912 
L 382.654071 116.651004 
L 382.972929 119.380669 
L 383.291786 114.598933 
L 383.610643 121.409686 
L 383.9295 114.53342 
L 384.248357 118.685706 
L 384.567214 119.716135 
L 384.886071 116.337694 
L 385.204929 118.918512 
L 385.523786 118.831829 
L 385.842643 125.19229 
L 386.799214 113.660924 
L 387.118071 107.923947 
L 387.436929 116.730783 
L 387.755786 111.432428 
L 388.074643 109.846491 
L 388.3935 118.464521 
L 389.031214 111.625323 
L 389.350071 112.482895 
L 389.668929 108.145641 
L 389.987786 106.391035 
L 390.306643 112.990073 
L 390.6255 114.731079 
L 390.944357 108.641615 
L 391.263214 116.892976 
L 391.900929 108.006113 
L 392.219786 114.942061 
L 392.538643 107.096127 
L 392.8575 110.76307 
L 393.176357 111.80578 
L 393.495214 107.228181 
L 393.814071 108.075025 
L 394.132929 99.034335 
L 394.451786 106.309572 
L 394.770643 109.218229 
L 395.0895 106.565615 
L 395.408357 108.652569 
L 396.046071 105.827158 
L 396.364929 119.001209 
L 396.683786 110.244068 
L 397.640357 101.183366 
L 397.959214 124.16622 
L 398.278071 120.274777 
L 398.596929 101.6573 
L 398.915786 101.462766 
L 399.234643 100.164312 
L 399.5535 111.785633 
L 399.872357 100.708251 
L 400.191214 99.953269 
L 400.510071 107.971285 
L 400.828929 104.955105 
L 401.147786 111.062646 
L 401.466643 101.120008 
L 401.7855 127.916352 
L 402.104357 105.194745 
L 402.423214 104.396003 
L 402.742071 104.11647 
L 403.379786 93.480389 
L 403.698643 103.048552 
L 404.0175 104.070798 
L 404.336357 103.84296 
L 404.655214 107.52954 
L 404.974071 96.444338 
L 405.611786 101.214975 
L 405.930643 96.874321 
L 406.2495 121.534394 
L 406.887214 101.286454 
L 407.206071 104.565366 
L 407.843786 92.236406 
L 408.162643 93.172419 
L 408.4815 97.99891 
L 408.800357 101.063527 
L 409.119214 102.662328 
L 409.438071 109.442034 
L 409.756929 101.250181 
L 410.075786 111.359041 
L 410.394643 106.770237 
L 410.7135 95.766676 
L 411.032357 102.384834 
L 411.351214 94.137388 
L 411.670071 98.454105 
L 411.988929 96.157807 
L 412.307786 92.948148 
L 412.626643 93.910572 
L 412.9455 93.049321 
L 413.264357 90.159779 
L 413.583214 104.522601 
L 413.902071 100.866047 
L 414.539786 85.803386 
L 414.858643 88.988693 
L 415.1775 98.503888 
L 415.496357 94.545519 
L 415.815214 92.679338 
L 416.134071 96.957003 
L 416.452929 105.766844 
L 416.771786 94.168793 
L 417.090643 95.026 
L 417.4095 92.83311 
L 417.728357 88.292197 
L 418.047214 81.638972 
L 418.366071 98.950226 
L 418.684929 93.139336 
L 419.003786 95.90862 
L 419.322643 94.360906 
L 419.6415 87.745307 
L 419.960357 87.95098 
L 420.279214 93.573112 
L 420.598071 96.514173 
L 420.916929 90.633911 
L 421.235786 90.872775 
L 421.554643 88.634579 
L 421.8735 103.486238 
L 422.192357 92.411133 
L 422.511214 85.87346 
L 422.830071 83.662204 
L 423.148929 85.096223 
L 423.467786 89.326575 
L 423.786643 80.188752 
L 424.1055 149.834561 
L 424.424357 79.788079 
L 424.743214 79.644531 
L 425.062071 84.453408 
L 425.380929 95.06333 
L 425.699786 100.174853 
L 426.018643 87.007384 
L 426.3375 81.825843 
L 426.656357 82.66043 
L 426.975214 96.065474 
L 427.294071 90.49388 
L 427.612929 96.974588 
L 427.931786 87.419102 
L 428.250643 87.977584 
L 428.5695 84.412858 
L 428.888357 118.828929 
L 429.207214 80.011156 
L 429.526071 77.915569 
L 429.844929 78.660886 
L 430.163786 83.689107 
L 430.482643 76.781988 
L 430.8015 82.69956 
L 431.120357 91.237388 
L 431.439214 80.782909 
L 431.758071 88.429299 
L 432.076929 84.078259 
L 432.395786 87.486813 
L 432.714643 83.538079 
L 433.0335 73.408146 
L 433.352357 81.257387 
L 433.671214 79.661913 
L 433.990071 79.026762 
L 434.308929 81.025296 
L 434.627786 75.113638 
L 434.946643 71.729305 
L 435.2655 87.706332 
L 435.584357 85.10594 
L 435.903214 71.718679 
L 436.222071 81.91018 
L 436.540929 71.302633 
L 436.859786 72.285442 
L 437.178643 74.731871 
L 437.4975 81.306521 
L 437.816357 73.817302 
L 438.135214 73.407135 
L 438.454071 79.832281 
L 438.772929 73.437493 
L 439.091786 73.976499 
L 439.7295 88.808234 
L 440.048357 73.929457 
L 440.367214 74.042942 
L 440.686071 136.152847 
L 441.004929 83.1584 
L 441.323786 76.608157 
L 441.642643 82.787003 
L 441.9615 91.146546 
L 442.280357 82.06563 
L 442.599214 65.652846 
L 442.918071 77.978083 
L 443.236929 69.843319 
L 443.555786 71.060887 
L 443.874643 74.015917 
L 444.1935 72.620732 
L 444.512357 86.608362 
L 444.831214 71.793511 
L 445.150071 71.498305 
L 445.468929 74.591261 
L 445.787786 75.422862 
L 446.106643 64.954267 
L 446.4255 81.22828 
L 446.744357 67.252265 
L 447.063214 70.076255 
L 447.382071 65.469155 
L 447.700929 87.315867 
L 448.019786 65.370165 
L 448.338643 81.23618 
L 448.6575 69.853687 
L 448.976357 66.32053 
L 449.295214 72.250499 
L 449.614071 67.175962 
L 449.932929 72.646245 
L 450.251786 62.200822 
L 450.570643 67.320988 
L 450.8895 70.528883 
L 451.208357 68.5588 
L 451.527214 65.763758 
L 451.846071 68.984498 
L 452.164929 100.380372 
L 452.483786 65.780445 
L 452.802643 73.108253 
L 453.1215 68.659188 
L 453.440357 104.448028 
L 453.759214 58.973951 
L 454.078071 61.665986 
L 454.396929 70.346144 
L 454.715786 61.263651 
L 455.034643 60.439222 
L 455.3535 65.883018 
L 455.672357 57.389778 
L 455.991214 72.997411 
L 456.310071 60.81139 
L 456.628929 64.876871 
L 456.947786 72.782516 
L 457.266643 69.32284 
L 457.904357 50.861279 
L 458.542071 71.952311 
L 458.860929 67.868215 
L 459.179786 102.542406 
L 459.498643 54.447345 
L 459.8175 60.419063 
L 460.136357 78.631345 
L 460.455214 64.525064 
L 460.774071 58.061789 
L 461.092929 65.091699 
L 461.411786 54.645708 
L 461.730643 50.743008 
L 462.0495 53.650449 
L 462.368357 66.420915 
L 462.687214 65.932943 
L 463.006071 54.031104 
L 463.324929 58.905062 
L 463.643786 49.381934 
L 463.962643 57.184749 
L 464.2815 60.971986 
L 464.600357 76.200611 
L 464.919214 62.89268 
L 465.238071 60.632392 
L 465.556929 48.330197 
L 465.875786 55.055359 
L 466.194643 68.481611 
L 466.5135 51.597047 
L 466.832357 55.684692 
L 467.151214 61.971374 
L 467.470071 50.036042 
L 467.788929 77.119578 
L 468.107786 52.685721 
L 468.426643 66.245385 
L 468.7455 50.687024 
L 469.064357 57.272049 
L 469.383214 54.093037 
L 470.020929 56.028729 
L 470.339786 88.345203 
L 470.658643 57.339826 
L 470.9775 51.383131 
L 471.296357 70.094317 
L 471.615214 46.338593 
L 471.615214 46.338593 
" style="fill:none;stroke:#0000ff;stroke-linecap:square;stroke-width:0.5;"/>
   </g>
   <g id="patch_3">
    <path d="M 46.8975 368.74175 
L 493.2975 368.74175 
" style="fill:none;stroke:#000000;stroke-linecap:square;stroke-linejoin:miter;"/>
   </g>
   <g id="patch_4">
    <path d="M 46.8975 23.14175 
L 493.2975 23.14175 
" style="fill:none;stroke:#000000;stroke-linecap:square;stroke-linejoin:miter;"/>
   </g>
   <g id="patch_5">
    <path d="M 493.2975 368.74175 
L 493.2975 23.14175 
" style="fill:none;stroke:#000000;stroke-linecap:square;stroke-linejoin:miter;"/>
   </g>
   <g id="patch_6">
    <path d="M 46.8975 368.74175 
L 46.8975 23.14175 
" style="fill:none;stroke:#000000;stroke-linecap:square;stroke-linejoin:miter;"/>
   </g>
   <g id="matplotlib.axis_1">
    <g id="xtick_1">
     <g id="line2d_2">
      <defs>
       <path d="M 0 0 
L 0 -4 
" id="maf45589be4" style="stroke:#000000;stroke-width:0.5;"/>
      </defs>
      <g>
       <use style="stroke:#000000;stroke-width:0.5;" x="46.8975" xlink:href="#maf45589be4" y="368.74175"/>
      </g>
     </g>
     <g id="line2d_3">
      <defs>
       <path d="M 0 0 
L 0 4 
" id="md1227c08f2" style="stroke:#000000;stroke-width:0.5;"/>
      </defs>
      <g>
       <use style="stroke:#000000;stroke-width:0.5;" x="46.8975" xlink:href="#md1227c08f2" y="23.14175"/>
      </g>
     </g>
     <g id="text_1">
      <!-- 0 -->
      <defs>
       <path d="M 31.78125 66.40625 
Q 24.171875 66.40625 20.328125 58.90625 
Q 16.5 51.421875 16.5 36.375 
Q 16.5 21.390625 20.328125 13.890625 
Q 24.171875 6.390625 31.78125 6.390625 
Q 39.453125 6.390625 43.28125 13.890625 
Q 47.125 21.390625 47.125 36.375 
Q 47.125 51.421875 43.28125 58.90625 
Q 39.453125 66.40625 31.78125 66.40625 
M 31.78125 74.21875 
Q 44.046875 74.21875 50.515625 64.515625 
Q 56.984375 54.828125 56.984375 36.375 
Q 56.984375 17.96875 50.515625 8.265625 
Q 44.046875 -1.421875 31.78125 -1.421875 
Q 19.53125 -1.421875 13.0625 8.265625 
Q 6.59375 17.96875 6.59375 36.375 
Q 6.59375 54.828125 13.0625 64.515625 
Q 19.53125 74.21875 31.78125 74.21875 
" id="BitstreamVeraSans-Roman-30"/>
      </defs>
      <g transform="translate(43.08 381.859875)scale(0.12 -0.12)">
       <use xlink:href="#BitstreamVeraSans-Roman-30"/>
      </g>
     </g>
    </g>
    <g id="xtick_2">
     <g id="line2d_4">
      <g>
       <use style="stroke:#000000;stroke-width:0.5;" x="110.668928571" xlink:href="#maf45589be4" y="368.74175"/>
      </g>
     </g>
     <g id="line2d_5">
      <g>
       <use style="stroke:#000000;stroke-width:0.5;" x="110.668928571" xlink:href="#md1227c08f2" y="23.14175"/>
      </g>
     </g>
     <g id="text_2">
      <!-- 200 -->
      <defs>
       <path d="M 19.1875 8.296875 
L 53.609375 8.296875 
L 53.609375 0 
L 7.328125 0 
L 7.328125 8.296875 
Q 12.9375 14.109375 22.625 23.890625 
Q 32.328125 33.6875 34.8125 36.53125 
Q 39.546875 41.84375 41.421875 45.53125 
Q 43.3125 49.21875 43.3125 52.78125 
Q 43.3125 58.59375 39.234375 62.25 
Q 35.15625 65.921875 28.609375 65.921875 
Q 23.96875 65.921875 18.8125 64.3125 
Q 13.671875 62.703125 7.8125 59.421875 
L 7.8125 69.390625 
Q 13.765625 71.78125 18.9375 73 
Q 24.125 74.21875 28.421875 74.21875 
Q 39.75 74.21875 46.484375 68.546875 
Q 53.21875 62.890625 53.21875 53.421875 
Q 53.21875 48.921875 51.53125 44.890625 
Q 49.859375 40.875 45.40625 35.40625 
Q 44.1875 33.984375 37.640625 27.21875 
Q 31.109375 20.453125 19.1875 8.296875 
" id="BitstreamVeraSans-Roman-32"/>
      </defs>
      <g transform="translate(99.2164285714 381.859875)scale(0.12 -0.12)">
       <use xlink:href="#BitstreamVeraSans-Roman-32"/>
       <use x="63.623046875" xlink:href="#BitstreamVeraSans-Roman-30"/>
       <use x="127.24609375" xlink:href="#BitstreamVeraSans-Roman-30"/>
      </g>
     </g>
    </g>
    <g id="xtick_3">
     <g id="line2d_6">
      <g>
       <use style="stroke:#000000;stroke-width:0.5;" x="174.440357143" xlink:href="#maf45589be4" y="368.74175"/>
      </g>
     </g>
     <g id="line2d_7">
      <g>
       <use style="stroke:#000000;stroke-width:0.5;" x="174.440357143" xlink:href="#md1227c08f2" y="23.14175"/>
      </g>
     </g>
     <g id="text_3">
      <!-- 400 -->
      <defs>
       <path d="M 37.796875 64.3125 
L 12.890625 25.390625 
L 37.796875 25.390625 
z
M 35.203125 72.90625 
L 47.609375 72.90625 
L 47.609375 25.390625 
L 58.015625 25.390625 
L 58.015625 17.1875 
L 47.609375 17.1875 
L 47.609375 0 
L 37.796875 0 
L 37.796875 17.1875 
L 4.890625 17.1875 
L 4.890625 26.703125 
z
" id="BitstreamVeraSans-Roman-34"/>
      </defs>
      <g transform="translate(162.987857143 381.859875)scale(0.12 -0.12)">
       <use xlink:href="#BitstreamVeraSans-Roman-34"/>
       <use x="63.623046875" xlink:href="#BitstreamVeraSans-Roman-30"/>
       <use x="127.24609375" xlink:href="#BitstreamVeraSans-Roman-30"/>
      </g>
     </g>
    </g>
    <g id="xtick_4">
     <g id="line2d_8">
      <g>
       <use style="stroke:#000000;stroke-width:0.5;" x="238.211785714" xlink:href="#maf45589be4" y="368.74175"/>
      </g>
     </g>
     <g id="line2d_9">
      <g>
       <use style="stroke:#000000;stroke-width:0.5;" x="238.211785714" xlink:href="#md1227c08f2" y="23.14175"/>
      </g>
     </g>
     <g id="text_4">
      <!-- 600 -->
      <defs>
       <path d="M 33.015625 40.375 
Q 26.375 40.375 22.484375 35.828125 
Q 18.609375 31.296875 18.609375 23.390625 
Q 18.609375 15.53125 22.484375 10.953125 
Q 26.375 6.390625 33.015625 6.390625 
Q 39.65625 6.390625 43.53125 10.953125 
Q 47.40625 15.53125 47.40625 23.390625 
Q 47.40625 31.296875 43.53125 35.828125 
Q 39.65625 40.375 33.015625 40.375 
M 52.59375 71.296875 
L 52.59375 62.3125 
Q 48.875 64.0625 45.09375 64.984375 
Q 41.3125 65.921875 37.59375 65.921875 
Q 27.828125 65.921875 22.671875 59.328125 
Q 17.53125 52.734375 16.796875 39.40625 
Q 19.671875 43.65625 24.015625 45.921875 
Q 28.375 48.1875 33.59375 48.1875 
Q 44.578125 48.1875 50.953125 41.515625 
Q 57.328125 34.859375 57.328125 23.390625 
Q 57.328125 12.15625 50.6875 5.359375 
Q 44.046875 -1.421875 33.015625 -1.421875 
Q 20.359375 -1.421875 13.671875 8.265625 
Q 6.984375 17.96875 6.984375 36.375 
Q 6.984375 53.65625 15.1875 63.9375 
Q 23.390625 74.21875 37.203125 74.21875 
Q 40.921875 74.21875 44.703125 73.484375 
Q 48.484375 72.75 52.59375 71.296875 
" id="BitstreamVeraSans-Roman-36"/>
      </defs>
      <g transform="translate(226.759285714 381.859875)scale(0.12 -0.12)">
       <use xlink:href="#BitstreamVeraSans-Roman-36"/>
       <use x="63.623046875" xlink:href="#BitstreamVeraSans-Roman-30"/>
       <use x="127.24609375" xlink:href="#BitstreamVeraSans-Roman-30"/>
      </g>
     </g>
    </g>
    <g id="xtick_5">
     <g id="line2d_10">
      <g>
       <use style="stroke:#000000;stroke-width:0.5;" x="301.983214286" xlink:href="#maf45589be4" y="368.74175"/>
      </g>
     </g>
     <g id="line2d_11">
      <g>
       <use style="stroke:#000000;stroke-width:0.5;" x="301.983214286" xlink:href="#md1227c08f2" y="23.14175"/>
      </g>
     </g>
     <g id="text_5">
      <!-- 800 -->
      <defs>
       <path d="M 31.78125 34.625 
Q 24.75 34.625 20.71875 30.859375 
Q 16.703125 27.09375 16.703125 20.515625 
Q 16.703125 13.921875 20.71875 10.15625 
Q 24.75 6.390625 31.78125 6.390625 
Q 38.8125 6.390625 42.859375 10.171875 
Q 46.921875 13.96875 46.921875 20.515625 
Q 46.921875 27.09375 42.890625 30.859375 
Q 38.875 34.625 31.78125 34.625 
M 21.921875 38.8125 
Q 15.578125 40.375 12.03125 44.71875 
Q 8.5 49.078125 8.5 55.328125 
Q 8.5 64.0625 14.71875 69.140625 
Q 20.953125 74.21875 31.78125 74.21875 
Q 42.671875 74.21875 48.875 69.140625 
Q 55.078125 64.0625 55.078125 55.328125 
Q 55.078125 49.078125 51.53125 44.71875 
Q 48 40.375 41.703125 38.8125 
Q 48.828125 37.15625 52.796875 32.3125 
Q 56.78125 27.484375 56.78125 20.515625 
Q 56.78125 9.90625 50.3125 4.234375 
Q 43.84375 -1.421875 31.78125 -1.421875 
Q 19.734375 -1.421875 13.25 4.234375 
Q 6.78125 9.90625 6.78125 20.515625 
Q 6.78125 27.484375 10.78125 32.3125 
Q 14.796875 37.15625 21.921875 38.8125 
M 18.3125 54.390625 
Q 18.3125 48.734375 21.84375 45.5625 
Q 25.390625 42.390625 31.78125 42.390625 
Q 38.140625 42.390625 41.71875 45.5625 
Q 45.3125 48.734375 45.3125 54.390625 
Q 45.3125 60.0625 41.71875 63.234375 
Q 38.140625 66.40625 31.78125 66.40625 
Q 25.390625 66.40625 21.84375 63.234375 
Q 18.3125 60.0625 18.3125 54.390625 
" id="BitstreamVeraSans-Roman-38"/>
      </defs>
      <g transform="translate(290.530714286 381.859875)scale(0.12 -0.12)">
       <use xlink:href="#BitstreamVeraSans-Roman-38"/>
       <use x="63.623046875" xlink:href="#BitstreamVeraSans-Roman-30"/>
       <use x="127.24609375" xlink:href="#BitstreamVeraSans-Roman-30"/>
      </g>
     </g>
    </g>
    <g id="xtick_6">
     <g id="line2d_12">
      <g>
       <use style="stroke:#000000;stroke-width:0.5;" x="365.754642857" xlink:href="#maf45589be4" y="368.74175"/>
      </g>
     </g>
     <g id="line2d_13">
      <g>
       <use style="stroke:#000000;stroke-width:0.5;" x="365.754642857" xlink:href="#md1227c08f2" y="23.14175"/>
      </g>
     </g>
     <g id="text_6">
      <!-- 1000 -->
      <defs>
       <path d="M 12.40625 8.296875 
L 28.515625 8.296875 
L 28.515625 63.921875 
L 10.984375 60.40625 
L 10.984375 69.390625 
L 28.421875 72.90625 
L 38.28125 72.90625 
L 38.28125 8.296875 
L 54.390625 8.296875 
L 54.390625 0 
L 12.40625 0 
z
" id="BitstreamVeraSans-Roman-31"/>
      </defs>
      <g transform="translate(350.484642857 381.859875)scale(0.12 -0.12)">
       <use xlink:href="#BitstreamVeraSans-Roman-31"/>
       <use x="63.623046875" xlink:href="#BitstreamVeraSans-Roman-30"/>
       <use x="127.24609375" xlink:href="#BitstreamVeraSans-Roman-30"/>
       <use x="190.869140625" xlink:href="#BitstreamVeraSans-Roman-30"/>
      </g>
     </g>
    </g>
    <g id="xtick_7">
     <g id="line2d_14">
      <g>
       <use style="stroke:#000000;stroke-width:0.5;" x="429.526071429" xlink:href="#maf45589be4" y="368.74175"/>
      </g>
     </g>
     <g id="line2d_15">
      <g>
       <use style="stroke:#000000;stroke-width:0.5;" x="429.526071429" xlink:href="#md1227c08f2" y="23.14175"/>
      </g>
     </g>
     <g id="text_7">
      <!-- 1200 -->
      <g transform="translate(414.256071429 381.859875)scale(0.12 -0.12)">
       <use xlink:href="#BitstreamVeraSans-Roman-31"/>
       <use x="63.623046875" xlink:href="#BitstreamVeraSans-Roman-32"/>
       <use x="127.24609375" xlink:href="#BitstreamVeraSans-Roman-30"/>
       <use x="190.869140625" xlink:href="#BitstreamVeraSans-Roman-30"/>
      </g>
     </g>
    </g>
    <g id="xtick_8">
     <g id="line2d_16">
      <g>
       <use style="stroke:#000000;stroke-width:0.5;" x="493.2975" xlink:href="#maf45589be4" y="368.74175"/>
      </g>
     </g>
     <g id="line2d_17">
      <g>
       <use style="stroke:#000000;stroke-width:0.5;" x="493.2975" xlink:href="#md1227c08f2" y="23.14175"/>
      </g>
     </g>
     <g id="text_8">
      <!-- 1400 -->
      <g transform="translate(478.0275 381.859875)scale(0.12 -0.12)">
       <use xlink:href="#BitstreamVeraSans-Roman-31"/>
       <use x="63.623046875" xlink:href="#BitstreamVeraSans-Roman-34"/>
       <use x="127.24609375" xlink:href="#BitstreamVeraSans-Roman-30"/>
       <use x="190.869140625" xlink:href="#BitstreamVeraSans-Roman-30"/>
      </g>
     </g>
    </g>
    <g id="text_9">
     <!-- episode -->
     <defs>
      <path d="M 56.203125 29.59375 
L 56.203125 25.203125 
L 14.890625 25.203125 
Q 15.484375 15.921875 20.484375 11.0625 
Q 25.484375 6.203125 34.421875 6.203125 
Q 39.59375 6.203125 44.453125 7.46875 
Q 49.3125 8.734375 54.109375 11.28125 
L 54.109375 2.78125 
Q 49.265625 0.734375 44.1875 -0.34375 
Q 39.109375 -1.421875 33.890625 -1.421875 
Q 20.796875 -1.421875 13.15625 6.1875 
Q 5.515625 13.8125 5.515625 26.8125 
Q 5.515625 40.234375 12.765625 48.109375 
Q 20.015625 56 32.328125 56 
Q 43.359375 56 49.78125 48.890625 
Q 56.203125 41.796875 56.203125 29.59375 
M 47.21875 32.234375 
Q 47.125 39.59375 43.09375 43.984375 
Q 39.0625 48.390625 32.421875 48.390625 
Q 24.90625 48.390625 20.390625 44.140625 
Q 15.875 39.890625 15.1875 32.171875 
z
" id="BitstreamVeraSans-Roman-65"/>
      <path d="M 45.40625 46.390625 
L 45.40625 75.984375 
L 54.390625 75.984375 
L 54.390625 0 
L 45.40625 0 
L 45.40625 8.203125 
Q 42.578125 3.328125 38.25 0.953125 
Q 33.9375 -1.421875 27.875 -1.421875 
Q 17.96875 -1.421875 11.734375 6.484375 
Q 5.515625 14.40625 5.515625 27.296875 
Q 5.515625 40.1875 11.734375 48.09375 
Q 17.96875 56 27.875 56 
Q 33.9375 56 38.25 53.625 
Q 42.578125 51.265625 45.40625 46.390625 
M 14.796875 27.296875 
Q 14.796875 17.390625 18.875 11.75 
Q 22.953125 6.109375 30.078125 6.109375 
Q 37.203125 6.109375 41.296875 11.75 
Q 45.40625 17.390625 45.40625 27.296875 
Q 45.40625 37.203125 41.296875 42.84375 
Q 37.203125 48.484375 30.078125 48.484375 
Q 22.953125 48.484375 18.875 42.84375 
Q 14.796875 37.203125 14.796875 27.296875 
" id="BitstreamVeraSans-Roman-64"/>
      <path d="M 9.421875 54.6875 
L 18.40625 54.6875 
L 18.40625 0 
L 9.421875 0 
z
M 9.421875 75.984375 
L 18.40625 75.984375 
L 18.40625 64.59375 
L 9.421875 64.59375 
z
" id="BitstreamVeraSans-Roman-69"/>
      <path d="M 44.28125 53.078125 
L 44.28125 44.578125 
Q 40.484375 46.53125 36.375 47.5 
Q 32.28125 48.484375 27.875 48.484375 
Q 21.1875 48.484375 17.84375 46.4375 
Q 14.5 44.390625 14.5 40.28125 
Q 14.5 37.15625 16.890625 35.375 
Q 19.28125 33.59375 26.515625 31.984375 
L 29.59375 31.296875 
Q 39.15625 29.25 43.1875 25.515625 
Q 47.21875 21.78125 47.21875 15.09375 
Q 47.21875 7.46875 41.1875 3.015625 
Q 35.15625 -1.421875 24.609375 -1.421875 
Q 20.21875 -1.421875 15.453125 -0.5625 
Q 10.6875 0.296875 5.421875 2 
L 5.421875 11.28125 
Q 10.40625 8.6875 15.234375 7.390625 
Q 20.0625 6.109375 24.8125 6.109375 
Q 31.15625 6.109375 34.5625 8.28125 
Q 37.984375 10.453125 37.984375 14.40625 
Q 37.984375 18.0625 35.515625 20.015625 
Q 33.0625 21.96875 24.703125 23.78125 
L 21.578125 24.515625 
Q 13.234375 26.265625 9.515625 29.90625 
Q 5.8125 33.546875 5.8125 39.890625 
Q 5.8125 47.609375 11.28125 51.796875 
Q 16.75 56 26.8125 56 
Q 31.78125 56 36.171875 55.265625 
Q 40.578125 54.546875 44.28125 53.078125 
" id="BitstreamVeraSans-Roman-73"/>
      <path d="M 18.109375 8.203125 
L 18.109375 -20.796875 
L 9.078125 -20.796875 
L 9.078125 54.6875 
L 18.109375 54.6875 
L 18.109375 46.390625 
Q 20.953125 51.265625 25.265625 53.625 
Q 29.59375 56 35.59375 56 
Q 45.5625 56 51.78125 48.09375 
Q 58.015625 40.1875 58.015625 27.296875 
Q 58.015625 14.40625 51.78125 6.484375 
Q 45.5625 -1.421875 35.59375 -1.421875 
Q 29.59375 -1.421875 25.265625 0.953125 
Q 20.953125 3.328125 18.109375 8.203125 
M 48.6875 27.296875 
Q 48.6875 37.203125 44.609375 42.84375 
Q 40.53125 48.484375 33.40625 48.484375 
Q 26.265625 48.484375 22.1875 42.84375 
Q 18.109375 37.203125 18.109375 27.296875 
Q 18.109375 17.390625 22.1875 11.75 
Q 26.265625 6.109375 33.40625 6.109375 
Q 40.53125 6.109375 44.609375 11.75 
Q 48.6875 17.390625 48.6875 27.296875 
" id="BitstreamVeraSans-Roman-70"/>
      <path d="M 30.609375 48.390625 
Q 23.390625 48.390625 19.1875 42.75 
Q 14.984375 37.109375 14.984375 27.296875 
Q 14.984375 17.484375 19.15625 11.84375 
Q 23.34375 6.203125 30.609375 6.203125 
Q 37.796875 6.203125 41.984375 11.859375 
Q 46.1875 17.53125 46.1875 27.296875 
Q 46.1875 37.015625 41.984375 42.703125 
Q 37.796875 48.390625 30.609375 48.390625 
M 30.609375 56 
Q 42.328125 56 49.015625 48.375 
Q 55.71875 40.765625 55.71875 27.296875 
Q 55.71875 13.875 49.015625 6.21875 
Q 42.328125 -1.421875 30.609375 -1.421875 
Q 18.84375 -1.421875 12.171875 6.21875 
Q 5.515625 13.875 5.515625 27.296875 
Q 5.515625 40.765625 12.171875 48.375 
Q 18.84375 56 30.609375 56 
" id="BitstreamVeraSans-Roman-6f"/>
     </defs>
     <g transform="translate(246.631875 398.473625)scale(0.12 -0.12)">
      <use xlink:href="#BitstreamVeraSans-Roman-65"/>
      <use x="61.5234375" xlink:href="#BitstreamVeraSans-Roman-70"/>
      <use x="125.0" xlink:href="#BitstreamVeraSans-Roman-69"/>
      <use x="152.783203125" xlink:href="#BitstreamVeraSans-Roman-73"/>
      <use x="204.8828125" xlink:href="#BitstreamVeraSans-Roman-6f"/>
      <use x="266.064453125" xlink:href="#BitstreamVeraSans-Roman-64"/>
      <use x="329.541015625" xlink:href="#BitstreamVeraSans-Roman-65"/>
     </g>
    </g>
   </g>
   <g id="matplotlib.axis_2">
    <g id="ytick_1">
     <g id="line2d_18">
      <defs>
       <path d="M 0 0 
L 4 0 
" id="mcda35de607" style="stroke:#000000;stroke-width:0.5;"/>
      </defs>
      <g>
       <use style="stroke:#000000;stroke-width:0.5;" x="46.8975" xlink:href="#mcda35de607" y="368.74175"/>
      </g>
     </g>
     <g id="line2d_19">
      <defs>
       <path d="M 0 0 
L -4 0 
" id="m8f39788929" style="stroke:#000000;stroke-width:0.5;"/>
      </defs>
      <g>
       <use style="stroke:#000000;stroke-width:0.5;" x="493.2975" xlink:href="#m8f39788929" y="368.74175"/>
      </g>
     </g>
     <g id="text_10">
      <!-- 0.0 -->
      <defs>
       <path d="M 10.6875 12.40625 
L 21 12.40625 
L 21 0 
L 10.6875 0 
z
" id="BitstreamVeraSans-Roman-2e"/>
      </defs>
      <g transform="translate(23.81375 372.053)scale(0.12 -0.12)">
       <use xlink:href="#BitstreamVeraSans-Roman-30"/>
       <use x="63.623046875" xlink:href="#BitstreamVeraSans-Roman-2e"/>
       <use x="95.41015625" xlink:href="#BitstreamVeraSans-Roman-30"/>
      </g>
     </g>
    </g>
    <g id="ytick_2">
     <g id="line2d_20">
      <g>
       <use style="stroke:#000000;stroke-width:0.5;" x="46.8975" xlink:href="#mcda35de607" y="282.34175"/>
      </g>
     </g>
     <g id="line2d_21">
      <g>
       <use style="stroke:#000000;stroke-width:0.5;" x="493.2975" xlink:href="#m8f39788929" y="282.34175"/>
      </g>
     </g>
     <g id="text_11">
      <!-- 0.5 -->
      <defs>
       <path d="M 10.796875 72.90625 
L 49.515625 72.90625 
L 49.515625 64.59375 
L 19.828125 64.59375 
L 19.828125 46.734375 
Q 21.96875 47.46875 24.109375 47.828125 
Q 26.265625 48.1875 28.421875 48.1875 
Q 40.625 48.1875 47.75 41.5 
Q 54.890625 34.8125 54.890625 23.390625 
Q 54.890625 11.625 47.5625 5.09375 
Q 40.234375 -1.421875 26.90625 -1.421875 
Q 22.3125 -1.421875 17.546875 -0.640625 
Q 12.796875 0.140625 7.71875 1.703125 
L 7.71875 11.625 
Q 12.109375 9.234375 16.796875 8.0625 
Q 21.484375 6.890625 26.703125 6.890625 
Q 35.15625 6.890625 40.078125 11.328125 
Q 45.015625 15.765625 45.015625 23.390625 
Q 45.015625 31 40.078125 35.4375 
Q 35.15625 39.890625 26.703125 39.890625 
Q 22.75 39.890625 18.8125 39.015625 
Q 14.890625 38.140625 10.796875 36.28125 
z
" id="BitstreamVeraSans-Roman-35"/>
      </defs>
      <g transform="translate(23.81375 285.653)scale(0.12 -0.12)">
       <use xlink:href="#BitstreamVeraSans-Roman-30"/>
       <use x="63.623046875" xlink:href="#BitstreamVeraSans-Roman-2e"/>
       <use x="95.41015625" xlink:href="#BitstreamVeraSans-Roman-35"/>
      </g>
     </g>
    </g>
    <g id="ytick_3">
     <g id="line2d_22">
      <g>
       <use style="stroke:#000000;stroke-width:0.5;" x="46.8975" xlink:href="#mcda35de607" y="195.94175"/>
      </g>
     </g>
     <g id="line2d_23">
      <g>
       <use style="stroke:#000000;stroke-width:0.5;" x="493.2975" xlink:href="#m8f39788929" y="195.94175"/>
      </g>
     </g>
     <g id="text_12">
      <!-- 1.0 -->
      <g transform="translate(23.81375 199.253)scale(0.12 -0.12)">
       <use xlink:href="#BitstreamVeraSans-Roman-31"/>
       <use x="63.623046875" xlink:href="#BitstreamVeraSans-Roman-2e"/>
       <use x="95.41015625" xlink:href="#BitstreamVeraSans-Roman-30"/>
      </g>
     </g>
    </g>
    <g id="ytick_4">
     <g id="line2d_24">
      <g>
       <use style="stroke:#000000;stroke-width:0.5;" x="46.8975" xlink:href="#mcda35de607" y="109.54175"/>
      </g>
     </g>
     <g id="line2d_25">
      <g>
       <use style="stroke:#000000;stroke-width:0.5;" x="493.2975" xlink:href="#m8f39788929" y="109.54175"/>
      </g>
     </g>
     <g id="text_13">
      <!-- 1.5 -->
      <g transform="translate(23.81375 112.853)scale(0.12 -0.12)">
       <use xlink:href="#BitstreamVeraSans-Roman-31"/>
       <use x="63.623046875" xlink:href="#BitstreamVeraSans-Roman-2e"/>
       <use x="95.41015625" xlink:href="#BitstreamVeraSans-Roman-35"/>
      </g>
     </g>
    </g>
    <g id="ytick_5">
     <g id="line2d_26">
      <g>
       <use style="stroke:#000000;stroke-width:0.5;" x="46.8975" xlink:href="#mcda35de607" y="23.14175"/>
      </g>
     </g>
     <g id="line2d_27">
      <g>
       <use style="stroke:#000000;stroke-width:0.5;" x="493.2975" xlink:href="#m8f39788929" y="23.14175"/>
      </g>
     </g>
     <g id="text_14">
      <!-- 2.0 -->
      <g transform="translate(23.81375 26.453)scale(0.12 -0.12)">
       <use xlink:href="#BitstreamVeraSans-Roman-32"/>
       <use x="63.623046875" xlink:href="#BitstreamVeraSans-Roman-2e"/>
       <use x="95.41015625" xlink:href="#BitstreamVeraSans-Roman-30"/>
      </g>
     </g>
    </g>
    <g id="text_15">
     <!-- average maxQ -->
     <defs>
      <path d="M 2.984375 54.6875 
L 12.5 54.6875 
L 29.59375 8.796875 
L 46.6875 54.6875 
L 56.203125 54.6875 
L 35.6875 0 
L 23.484375 0 
z
" id="BitstreamVeraSans-Roman-76"/>
      <path id="BitstreamVeraSans-Roman-20"/>
      <path d="M 39.40625 66.21875 
Q 28.65625 66.21875 22.328125 58.203125 
Q 16.015625 50.203125 16.015625 36.375 
Q 16.015625 22.609375 22.328125 14.59375 
Q 28.65625 6.59375 39.40625 6.59375 
Q 50.140625 6.59375 56.421875 14.59375 
Q 62.703125 22.609375 62.703125 36.375 
Q 62.703125 50.203125 56.421875 58.203125 
Q 50.140625 66.21875 39.40625 66.21875 
M 53.21875 1.3125 
L 66.21875 -12.890625 
L 54.296875 -12.890625 
L 43.5 -1.21875 
Q 41.890625 -1.3125 41.03125 -1.359375 
Q 40.1875 -1.421875 39.40625 -1.421875 
Q 24.03125 -1.421875 14.8125 8.859375 
Q 5.609375 19.140625 5.609375 36.375 
Q 5.609375 53.65625 14.8125 63.9375 
Q 24.03125 74.21875 39.40625 74.21875 
Q 54.734375 74.21875 63.90625 63.9375 
Q 73.09375 53.65625 73.09375 36.375 
Q 73.09375 23.6875 67.984375 14.640625 
Q 62.890625 5.609375 53.21875 1.3125 
" id="BitstreamVeraSans-Roman-51"/>
      <path d="M 54.890625 54.6875 
L 35.109375 28.078125 
L 55.90625 0 
L 45.3125 0 
L 29.390625 21.484375 
L 13.484375 0 
L 2.875 0 
L 24.125 28.609375 
L 4.6875 54.6875 
L 15.28125 54.6875 
L 29.78125 35.203125 
L 44.28125 54.6875 
z
" id="BitstreamVeraSans-Roman-78"/>
      <path d="M 45.40625 27.984375 
Q 45.40625 37.75 41.375 43.109375 
Q 37.359375 48.484375 30.078125 48.484375 
Q 22.859375 48.484375 18.828125 43.109375 
Q 14.796875 37.75 14.796875 27.984375 
Q 14.796875 18.265625 18.828125 12.890625 
Q 22.859375 7.515625 30.078125 7.515625 
Q 37.359375 7.515625 41.375 12.890625 
Q 45.40625 18.265625 45.40625 27.984375 
M 54.390625 6.78125 
Q 54.390625 -7.171875 48.1875 -13.984375 
Q 42 -20.796875 29.203125 -20.796875 
Q 24.46875 -20.796875 20.265625 -20.09375 
Q 16.0625 -19.390625 12.109375 -17.921875 
L 12.109375 -9.1875 
Q 16.0625 -11.328125 19.921875 -12.34375 
Q 23.78125 -13.375 27.78125 -13.375 
Q 36.625 -13.375 41.015625 -8.765625 
Q 45.40625 -4.15625 45.40625 5.171875 
L 45.40625 9.625 
Q 42.625 4.78125 38.28125 2.390625 
Q 33.9375 0 27.875 0 
Q 17.828125 0 11.671875 7.65625 
Q 5.515625 15.328125 5.515625 27.984375 
Q 5.515625 40.671875 11.671875 48.328125 
Q 17.828125 56 27.875 56 
Q 33.9375 56 38.28125 53.609375 
Q 42.625 51.21875 45.40625 46.390625 
L 45.40625 54.6875 
L 54.390625 54.6875 
z
" id="BitstreamVeraSans-Roman-67"/>
      <path d="M 34.28125 27.484375 
Q 23.390625 27.484375 19.1875 25 
Q 14.984375 22.515625 14.984375 16.5 
Q 14.984375 11.71875 18.140625 8.90625 
Q 21.296875 6.109375 26.703125 6.109375 
Q 34.1875 6.109375 38.703125 11.40625 
Q 43.21875 16.703125 43.21875 25.484375 
L 43.21875 27.484375 
z
M 52.203125 31.203125 
L 52.203125 0 
L 43.21875 0 
L 43.21875 8.296875 
Q 40.140625 3.328125 35.546875 0.953125 
Q 30.953125 -1.421875 24.3125 -1.421875 
Q 15.921875 -1.421875 10.953125 3.296875 
Q 6 8.015625 6 15.921875 
Q 6 25.140625 12.171875 29.828125 
Q 18.359375 34.515625 30.609375 34.515625 
L 43.21875 34.515625 
L 43.21875 35.40625 
Q 43.21875 41.609375 39.140625 45 
Q 35.0625 48.390625 27.6875 48.390625 
Q 23 48.390625 18.546875 47.265625 
Q 14.109375 46.140625 10.015625 43.890625 
L 10.015625 52.203125 
Q 14.9375 54.109375 19.578125 55.046875 
Q 24.21875 56 28.609375 56 
Q 40.484375 56 46.34375 49.84375 
Q 52.203125 43.703125 52.203125 31.203125 
" id="BitstreamVeraSans-Roman-61"/>
      <path d="M 52 44.1875 
Q 55.375 50.25 60.0625 53.125 
Q 64.75 56 71.09375 56 
Q 79.640625 56 84.28125 50.015625 
Q 88.921875 44.046875 88.921875 33.015625 
L 88.921875 0 
L 79.890625 0 
L 79.890625 32.71875 
Q 79.890625 40.578125 77.09375 44.375 
Q 74.3125 48.1875 68.609375 48.1875 
Q 61.625 48.1875 57.5625 43.546875 
Q 53.515625 38.921875 53.515625 30.90625 
L 53.515625 0 
L 44.484375 0 
L 44.484375 32.71875 
Q 44.484375 40.625 41.703125 44.40625 
Q 38.921875 48.1875 33.109375 48.1875 
Q 26.21875 48.1875 22.15625 43.53125 
Q 18.109375 38.875 18.109375 30.90625 
L 18.109375 0 
L 9.078125 0 
L 9.078125 54.6875 
L 18.109375 54.6875 
L 18.109375 46.1875 
Q 21.1875 51.21875 25.484375 53.609375 
Q 29.78125 56 35.6875 56 
Q 41.65625 56 45.828125 52.96875 
Q 50 49.953125 52 44.1875 
" id="BitstreamVeraSans-Roman-6d"/>
      <path d="M 41.109375 46.296875 
Q 39.59375 47.171875 37.8125 47.578125 
Q 36.03125 48 33.890625 48 
Q 26.265625 48 22.1875 43.046875 
Q 18.109375 38.09375 18.109375 28.8125 
L 18.109375 0 
L 9.078125 0 
L 9.078125 54.6875 
L 18.109375 54.6875 
L 18.109375 46.1875 
Q 20.953125 51.171875 25.484375 53.578125 
Q 30.03125 56 36.53125 56 
Q 37.453125 56 38.578125 55.875 
Q 39.703125 55.765625 41.0625 55.515625 
z
" id="BitstreamVeraSans-Roman-72"/>
     </defs>
     <g transform="translate(16.318125 240.208625)rotate(-90.0)scale(0.12 -0.12)">
      <use xlink:href="#BitstreamVeraSans-Roman-61"/>
      <use x="61.279296875" xlink:href="#BitstreamVeraSans-Roman-76"/>
      <use x="120.458984375" xlink:href="#BitstreamVeraSans-Roman-65"/>
      <use x="181.982421875" xlink:href="#BitstreamVeraSans-Roman-72"/>
      <use x="223.095703125" xlink:href="#BitstreamVeraSans-Roman-61"/>
      <use x="284.375" xlink:href="#BitstreamVeraSans-Roman-67"/>
      <use x="347.8515625" xlink:href="#BitstreamVeraSans-Roman-65"/>
      <use x="409.375" xlink:href="#BitstreamVeraSans-Roman-20"/>
      <use x="441.162109375" xlink:href="#BitstreamVeraSans-Roman-6d"/>
      <use x="538.57421875" xlink:href="#BitstreamVeraSans-Roman-61"/>
      <use x="599.853515625" xlink:href="#BitstreamVeraSans-Roman-78"/>
      <use x="659.033203125" xlink:href="#BitstreamVeraSans-Roman-51"/>
     </g>
    </g>
   </g>
   <g id="text_16">
    <!-- Average maxQ per episode, joint3 -->
    <defs>
     <path d="M 11.71875 12.40625 
L 22.015625 12.40625 
L 22.015625 4 
L 14.015625 -11.625 
L 7.71875 -11.625 
L 11.71875 4 
z
" id="BitstreamVeraSans-Roman-2c"/>
     <path d="M 9.421875 54.6875 
L 18.40625 54.6875 
L 18.40625 -0.984375 
Q 18.40625 -11.421875 14.421875 -16.109375 
Q 10.453125 -20.796875 1.609375 -20.796875 
L -1.8125 -20.796875 
L -1.8125 -13.1875 
L 0.59375 -13.1875 
Q 5.71875 -13.1875 7.5625 -10.8125 
Q 9.421875 -8.453125 9.421875 -0.984375 
z
M 9.421875 75.984375 
L 18.40625 75.984375 
L 18.40625 64.59375 
L 9.421875 64.59375 
z
" id="BitstreamVeraSans-Roman-6a"/>
     <path d="M 34.1875 63.1875 
L 20.796875 26.90625 
L 47.609375 26.90625 
z
M 28.609375 72.90625 
L 39.796875 72.90625 
L 67.578125 0 
L 57.328125 0 
L 50.6875 18.703125 
L 17.828125 18.703125 
L 11.1875 0 
L 0.78125 0 
z
" id="BitstreamVeraSans-Roman-41"/>
     <path d="M 54.890625 33.015625 
L 54.890625 0 
L 45.90625 0 
L 45.90625 32.71875 
Q 45.90625 40.484375 42.875 44.328125 
Q 39.84375 48.1875 33.796875 48.1875 
Q 26.515625 48.1875 22.3125 43.546875 
Q 18.109375 38.921875 18.109375 30.90625 
L 18.109375 0 
L 9.078125 0 
L 9.078125 54.6875 
L 18.109375 54.6875 
L 18.109375 46.1875 
Q 21.34375 51.125 25.703125 53.5625 
Q 30.078125 56 35.796875 56 
Q 45.21875 56 50.046875 50.171875 
Q 54.890625 44.34375 54.890625 33.015625 
" id="BitstreamVeraSans-Roman-6e"/>
     <path d="M 18.3125 70.21875 
L 18.3125 54.6875 
L 36.8125 54.6875 
L 36.8125 47.703125 
L 18.3125 47.703125 
L 18.3125 18.015625 
Q 18.3125 11.328125 20.140625 9.421875 
Q 21.96875 7.515625 27.59375 7.515625 
L 36.8125 7.515625 
L 36.8125 0 
L 27.59375 0 
Q 17.1875 0 13.234375 3.875 
Q 9.28125 7.765625 9.28125 18.015625 
L 9.28125 47.703125 
L 2.6875 47.703125 
L 2.6875 54.6875 
L 9.28125 54.6875 
L 9.28125 70.21875 
z
" id="BitstreamVeraSans-Roman-74"/>
     <path d="M 40.578125 39.3125 
Q 47.65625 37.796875 51.625 33 
Q 55.609375 28.21875 55.609375 21.1875 
Q 55.609375 10.40625 48.1875 4.484375 
Q 40.765625 -1.421875 27.09375 -1.421875 
Q 22.515625 -1.421875 17.65625 -0.515625 
Q 12.796875 0.390625 7.625 2.203125 
L 7.625 11.71875 
Q 11.71875 9.328125 16.59375 8.109375 
Q 21.484375 6.890625 26.8125 6.890625 
Q 36.078125 6.890625 40.9375 10.546875 
Q 45.796875 14.203125 45.796875 21.1875 
Q 45.796875 27.640625 41.28125 31.265625 
Q 36.765625 34.90625 28.71875 34.90625 
L 20.21875 34.90625 
L 20.21875 43.015625 
L 29.109375 43.015625 
Q 36.375 43.015625 40.234375 45.921875 
Q 44.09375 48.828125 44.09375 54.296875 
Q 44.09375 59.90625 40.109375 62.90625 
Q 36.140625 65.921875 28.71875 65.921875 
Q 24.65625 65.921875 20.015625 65.03125 
Q 15.375 64.15625 9.8125 62.3125 
L 9.8125 71.09375 
Q 15.4375 72.65625 20.34375 73.4375 
Q 25.25 74.21875 29.59375 74.21875 
Q 40.828125 74.21875 47.359375 69.109375 
Q 53.90625 64.015625 53.90625 55.328125 
Q 53.90625 49.265625 50.4375 45.09375 
Q 46.96875 40.921875 40.578125 39.3125 
" id="BitstreamVeraSans-Roman-33"/>
    </defs>
    <g transform="translate(146.8245 18.14175)scale(0.144 -0.144)">
     <use xlink:href="#BitstreamVeraSans-Roman-41"/>
     <use x="68.330078125" xlink:href="#BitstreamVeraSans-Roman-76"/>
     <use x="127.509765625" xlink:href="#BitstreamVeraSans-Roman-65"/>
     <use x="189.033203125" xlink:href="#BitstreamVeraSans-Roman-72"/>
     <use x="230.146484375" xlink:href="#BitstreamVeraSans-Roman-61"/>
     <use x="291.42578125" xlink:href="#BitstreamVeraSans-Roman-67"/>
     <use x="354.90234375" xlink:href="#BitstreamVeraSans-Roman-65"/>
     <use x="416.42578125" xlink:href="#BitstreamVeraSans-Roman-20"/>
     <use x="448.212890625" xlink:href="#BitstreamVeraSans-Roman-6d"/>
     <use x="545.625" xlink:href="#BitstreamVeraSans-Roman-61"/>
     <use x="606.904296875" xlink:href="#BitstreamVeraSans-Roman-78"/>
     <use x="666.083984375" xlink:href="#BitstreamVeraSans-Roman-51"/>
     <use x="744.794921875" xlink:href="#BitstreamVeraSans-Roman-20"/>
     <use x="776.58203125" xlink:href="#BitstreamVeraSans-Roman-70"/>
     <use x="840.05859375" xlink:href="#BitstreamVeraSans-Roman-65"/>
     <use x="901.58203125" xlink:href="#BitstreamVeraSans-Roman-72"/>
     <use x="942.6953125" xlink:href="#BitstreamVeraSans-Roman-20"/>
     <use x="974.482421875" xlink:href="#BitstreamVeraSans-Roman-65"/>
     <use x="1036.005859375" xlink:href="#BitstreamVeraSans-Roman-70"/>
     <use x="1099.482421875" xlink:href="#BitstreamVeraSans-Roman-69"/>
     <use x="1127.265625" xlink:href="#BitstreamVeraSans-Roman-73"/>
     <use x="1179.365234375" xlink:href="#BitstreamVeraSans-Roman-6f"/>
     <use x="1240.546875" xlink:href="#BitstreamVeraSans-Roman-64"/>
     <use x="1304.0234375" xlink:href="#BitstreamVeraSans-Roman-65"/>
     <use x="1365.546875" xlink:href="#BitstreamVeraSans-Roman-2c"/>
     <use x="1397.333984375" xlink:href="#BitstreamVeraSans-Roman-20"/>
     <use x="1429.12109375" xlink:href="#BitstreamVeraSans-Roman-6a"/>
     <use x="1456.904296875" xlink:href="#BitstreamVeraSans-Roman-6f"/>
     <use x="1518.0859375" xlink:href="#BitstreamVeraSans-Roman-69"/>
     <use x="1545.869140625" xlink:href="#BitstreamVeraSans-Roman-6e"/>
     <use x="1609.248046875" xlink:href="#BitstreamVeraSans-Roman-74"/>
     <use x="1648.45703125" xlink:href="#BitstreamVeraSans-Roman-33"/>
    </g>
   </g>
  </g>
 </g>
 <defs>
  <clipPath id="p983783a21c">
   <rect height="345.6" width="446.4" x="46.8975" y="23.14175"/>
  </clipPath>
 </defs>
</svg>
