<?xml version="1.0" encoding="utf-8" standalone="no"?>
<!DOCTYPE svg PUBLIC "-//W3C//DTD SVG 1.1//EN"
  "http://www.w3.org/Graphics/SVG/1.1/DTD/svg11.dtd">
<!-- Created with matplotlib (http://matplotlib.org/) -->
<svg height="408pt" version="1.1" viewBox="0 0 522 408" width="522pt" xmlns="http://www.w3.org/2000/svg" xmlns:xlink="http://www.w3.org/1999/xlink">
 <defs>
  <style type="text/css">
*{stroke-linecap:butt;stroke-linejoin:round;stroke-miterlimit:100000;}
  </style>
 </defs>
 <g id="figure_1">
  <g id="patch_1">
   <path d="M 0 408.16925 
L 522.005625 408.16925 
L 522.005625 0 
L 0 0 
z
" style="fill:#ffffff;"/>
  </g>
  <g id="axes_1">
   <g id="patch_2">
    <path d="M 56.953125 368.74175 
L 503.353125 368.74175 
L 503.353125 23.14175 
L 56.953125 23.14175 
z
" style="fill:#ffffff;"/>
   </g>
   <g id="line2d_1">
    <path clip-path="url(#p7b0204e98d)" d="M 56.953125 58.288177 
L 57.697125 59.699564 
L 58.441125 68.829839 
L 59.185125 56.399696 
L 59.929125 66.126286 
L 60.673125 62.032707 
L 61.417125 65.039399 
L 62.161125 68.895069 
L 63.649125 53.761396 
L 64.393125 64.417893 
L 65.137125 60.578618 
L 65.881125 61.623667 
L 66.625125 72.613006 
L 67.369125 61.755791 
L 68.113125 68.728766 
L 68.857125 69.884541 
L 69.601125 58.587298 
L 70.345125 69.349504 
L 71.089125 75.742215 
L 71.833125 73.345245 
L 72.577125 62.998227 
L 73.321125 70.557349 
L 74.065125 73.408801 
L 74.809125 65.015267 
L 75.553125 60.537828 
L 76.297125 60.816416 
L 77.785125 70.533034 
L 79.273125 58.957855 
L 80.017125 58.731303 
L 80.761125 65.602451 
L 81.505125 65.906863 
L 82.249125 68.136051 
L 82.993125 63.44374 
L 84.481125 63.208527 
L 85.225125 59.233134 
L 85.969125 67.672771 
L 86.713125 66.344783 
L 87.457125 73.336991 
L 88.201125 72.548259 
L 88.945125 66.523134 
L 89.689125 64.332231 
L 90.433125 65.624896 
L 91.177125 69.533128 
L 91.921125 57.280231 
L 92.665125 58.732978 
L 93.409125 65.738001 
L 94.153125 64.596651 
L 94.897125 58.115971 
L 95.641125 64.714133 
L 96.385125 64.369739 
L 97.129125 66.7518 
L 97.873125 71.728642 
L 98.617125 65.545637 
L 99.361125 64.275284 
L 100.849125 76.140592 
L 101.593125 66.483026 
L 102.337125 62.671426 
L 103.081125 71.858046 
L 103.825125 64.057439 
L 104.569125 65.444049 
L 105.313125 69.477852 
L 106.057125 77.067983 
L 106.801125 71.891981 
L 107.545125 58.300178 
L 108.289125 63.634143 
L 109.033125 71.939687 
L 109.777125 63.43461 
L 110.521125 67.832005 
L 111.265125 59.415609 
L 112.009125 58.533789 
L 112.753125 66.153667 
L 113.497125 69.547494 
L 114.241125 70.007744 
L 114.985125 69.034256 
L 115.729125 64.56893 
L 116.473125 57.040982 
L 117.217125 68.090867 
L 117.961125 63.678577 
L 118.705125 65.935341 
L 119.449125 73.447999 
L 120.193125 61.539928 
L 120.937125 66.669802 
L 121.681125 66.221578 
L 122.425125 62.539833 
L 123.169125 64.50625 
L 123.913125 71.118398 
L 124.657125 64.699117 
L 125.401125 52.294227 
L 126.145125 58.87882 
L 126.889125 60.592464 
L 127.633125 64.363236 
L 128.377125 64.636215 
L 129.121125 71.281217 
L 129.865125 60.814027 
L 130.609125 62.034225 
L 131.353125 68.579945 
L 132.097125 69.868001 
L 132.841125 55.199195 
L 133.585125 70.844826 
L 134.329125 59.567709 
L 135.073125 56.197853 
L 135.817125 63.015159 
L 136.561125 55.926786 
L 137.305125 62.579004 
L 138.049125 60.575051 
L 138.793125 64.861794 
L 139.537125 64.945775 
L 140.281125 56.811324 
L 141.025125 57.947939 
L 141.769125 64.159615 
L 142.513125 58.751626 
L 143.257125 69.563231 
L 144.001125 61.131371 
L 144.745125 59.998542 
L 145.489125 56.242167 
L 146.233125 57.715793 
L 146.977125 58.113988 
L 147.721125 59.771946 
L 148.465125 63.277613 
L 149.209125 56.646581 
L 149.953125 63.908437 
L 150.697125 65.012183 
L 151.441125 52.992064 
L 152.185125 54.322143 
L 152.929125 52.677798 
L 153.673125 54.501401 
L 154.417125 55.927145 
L 155.161125 55.496256 
L 155.905125 53.423523 
L 156.649125 65.47243 
L 157.393125 57.535331 
L 158.881125 48.517608 
L 159.625125 56.538995 
L 160.369125 53.652483 
L 161.113125 54.322823 
L 161.857125 52.551593 
L 162.601125 58.026991 
L 163.345125 51.200731 
L 164.089125 53.841079 
L 164.833125 54.264331 
L 165.577125 51.579248 
L 166.321125 53.724305 
L 167.065125 48.859303 
L 167.809125 52.851645 
L 168.553125 55.319937 
L 169.297125 50.984301 
L 170.041125 56.718076 
L 170.785125 66.072073 
L 171.529125 52.609349 
L 172.273125 61.070897 
L 173.017125 56.410547 
L 173.761125 56.915925 
L 174.505125 60.502404 
L 175.249125 60.147732 
L 175.993125 61.402168 
L 176.737125 55.111673 
L 177.481125 53.690931 
L 178.225125 53.949244 
L 178.969125 65.119838 
L 179.713125 54.634284 
L 180.457125 49.955673 
L 181.201125 53.490474 
L 181.945125 58.176708 
L 182.689125 63.848813 
L 183.433125 62.079067 
L 184.177125 60.868771 
L 184.921125 53.694164 
L 185.665125 64.922415 
L 186.409125 57.930869 
L 187.153125 53.546127 
L 187.897125 57.444736 
L 188.641125 62.030531 
L 189.385125 62.34815 
L 190.129125 58.130322 
L 190.873125 55.631846 
L 191.617125 64.797185 
L 192.361125 54.329393 
L 193.105125 56.883495 
L 193.849125 55.541783 
L 194.593125 57.349916 
L 195.337125 60.446665 
L 196.081125 60.299248 
L 196.825125 61.360963 
L 197.569125 67.320381 
L 199.057125 55.275721 
L 199.801125 62.558457 
L 200.545125 62.864138 
L 201.289125 67.609044 
L 202.033125 63.774984 
L 202.777125 56.364533 
L 203.521125 58.707739 
L 204.265125 61.467166 
L 205.009125 60.766839 
L 205.753125 60.857778 
L 206.497125 63.275712 
L 207.241125 71.31077 
L 207.985125 67.09138 
L 208.729125 70.081133 
L 209.473125 68.897203 
L 210.217125 63.298701 
L 210.961125 70.129471 
L 211.705125 62.480424 
L 212.449125 71.786586 
L 213.193125 67.755305 
L 213.937125 70.360536 
L 214.681125 71.24715 
L 215.425125 74.304575 
L 216.169125 66.096821 
L 216.913125 71.804399 
L 217.657125 74.999889 
L 218.401125 67.62814 
L 219.145125 75.944729 
L 219.889125 72.54261 
L 220.633125 71.527806 
L 221.377125 72.089484 
L 222.121125 75.665057 
L 222.865125 72.410194 
L 223.609125 74.576982 
L 224.353125 74.353914 
L 225.097125 75.935737 
L 225.841125 74.293831 
L 226.585125 74.322955 
L 227.329125 80.809331 
L 228.073125 74.875909 
L 228.817125 74.867414 
L 229.561125 81.366397 
L 230.305125 73.936973 
L 231.049125 82.949807 
L 231.793125 76.747705 
L 232.537125 80.014162 
L 233.281125 78.073545 
L 234.025125 74.997066 
L 234.769125 82.483828 
L 235.513125 80.071807 
L 236.257125 79.251107 
L 237.001125 84.005111 
L 237.745125 80.756274 
L 238.489125 83.62908 
L 239.233125 82.945963 
L 240.721125 83.521862 
L 241.465125 83.155597 
L 242.209125 87.259711 
L 242.953125 80.648405 
L 243.697125 87.00653 
L 244.441125 81.467553 
L 245.185125 86.399868 
L 246.673125 84.690772 
L 247.417125 85.87299 
L 248.161125 85.181993 
L 248.905125 81.182018 
L 249.649125 84.778361 
L 250.393125 86.573017 
L 251.137125 84.173174 
L 251.881125 89.15377 
L 253.369125 88.409087 
L 254.113125 89.34797 
L 254.857125 91.489441 
L 255.601125 89.579241 
L 256.345125 90.716633 
L 257.089125 90.229705 
L 257.833125 88.353859 
L 258.577125 88.823446 
L 259.321125 94.106782 
L 260.065125 91.72053 
L 260.809125 96.237585 
L 261.553125 91.836164 
L 262.297125 95.46994 
L 263.041125 93.334059 
L 263.785125 95.982979 
L 264.529125 90.500638 
L 265.273125 95.74256 
L 266.017125 96.690221 
L 266.761125 92.598609 
L 267.505125 93.557193 
L 268.249125 98.281526 
L 268.993125 96.132653 
L 269.737125 95.518225 
L 270.481125 94.075918 
L 271.225125 95.280457 
L 271.969125 99.138297 
L 272.713125 99.052626 
L 273.457125 97.071408 
L 274.201125 102.186446 
L 275.689125 105.144843 
L 276.433125 96.30178 
L 277.177125 102.075324 
L 277.921125 100.568771 
L 278.665125 103.340461 
L 279.409125 101.843517 
L 280.153125 103.334621 
L 280.897125 108.342293 
L 281.641125 105.065484 
L 282.385125 106.085341 
L 283.129125 106.060369 
L 283.873125 112.521925 
L 284.617125 103.98026 
L 285.361125 110.773702 
L 286.105125 108.729409 
L 286.849125 104.319536 
L 287.593125 111.726426 
L 288.337125 109.133145 
L 289.081125 105.086928 
L 289.825125 111.885823 
L 290.569125 112.295149 
L 291.313125 108.469256 
L 292.057125 111.813112 
L 292.801125 111.331208 
L 293.545125 117.40202 
L 294.289125 118.746518 
L 295.033125 116.905376 
L 295.777125 115.866127 
L 296.521125 115.59367 
L 297.265125 118.463591 
L 298.009125 118.803024 
L 298.753125 117.4334 
L 299.497125 115.712576 
L 300.241125 119.552959 
L 300.985125 118.278601 
L 302.473125 123.595517 
L 303.961125 123.172873 
L 304.705125 124.776833 
L 306.193125 119.413909 
L 306.937125 124.517933 
L 307.681125 128.126561 
L 308.425125 126.438182 
L 309.169125 125.90852 
L 309.913125 115.079502 
L 310.657125 128.525012 
L 311.401125 127.409706 
L 312.145125 132.464819 
L 312.889125 128.960746 
L 313.633125 128.542322 
L 314.377125 133.445453 
L 315.121125 130.761858 
L 315.865125 128.573437 
L 316.609125 132.53636 
L 317.353125 132.042128 
L 318.097125 134.303511 
L 318.841125 131.008272 
L 319.585125 132.589176 
L 320.329125 132.237429 
L 321.073125 138.569573 
L 321.817125 136.327847 
L 322.561125 136.56131 
L 323.305125 133.83896 
L 324.049125 136.954318 
L 324.793125 138.920315 
L 325.537125 135.042231 
L 326.281125 135.851747 
L 327.769125 143.428221 
L 328.513125 142.452049 
L 329.257125 138.244673 
L 330.001125 142.010863 
L 330.745125 142.632317 
L 331.489125 142.475746 
L 332.233125 143.571142 
L 332.977125 146.557766 
L 333.721125 143.075486 
L 334.465125 146.942223 
L 335.209125 149.904283 
L 335.953125 148.407685 
L 336.697125 148.910051 
L 337.441125 129.063138 
L 338.185125 153.051731 
L 338.929125 146.088335 
L 339.673125 155.64659 
L 340.417125 156.706264 
L 341.161125 151.952172 
L 341.905125 153.734427 
L 342.649125 153.247713 
L 343.393125 127.066359 
L 344.137125 143.946147 
L 344.881125 154.153206 
L 345.625125 157.308286 
L 346.369125 148.090253 
L 347.113125 163.101668 
L 348.601125 149.225029 
L 349.345125 154.32245 
L 350.089125 160.257062 
L 350.833125 157.975098 
L 351.577125 161.322178 
L 352.321125 157.050031 
L 353.065125 158.007763 
L 353.809125 163.401888 
L 354.553125 163.661895 
L 355.297125 171.649539 
L 356.041125 164.478304 
L 356.785125 165.309274 
L 357.529125 161.031547 
L 358.273125 172.569874 
L 359.017125 167.441479 
L 359.761125 163.364464 
L 360.505125 163.641436 
L 361.249125 170.331926 
L 361.993125 172.429643 
L 362.737125 175.102948 
L 363.481125 174.609308 
L 364.225125 160.659364 
L 364.969125 179.813513 
L 365.713125 160.712765 
L 366.457125 173.61676 
L 367.201125 169.137924 
L 367.945125 181.636758 
L 368.689125 173.618197 
L 369.433125 182.667468 
L 370.177125 177.571809 
L 370.921125 177.64148 
L 371.665125 176.836472 
L 372.409125 170.443029 
L 373.153125 180.918729 
L 373.897125 181.281462 
L 374.641125 182.247325 
L 375.385125 180.621768 
L 376.129125 184.802072 
L 376.873125 192.146999 
L 377.617125 190.079077 
L 379.105125 174.880769 
L 379.849125 189.925498 
L 380.593125 190.904169 
L 381.337125 181.8191 
L 382.081125 184.241814 
L 382.825125 185.162598 
L 383.569125 186.928415 
L 384.313125 183.218767 
L 385.057125 194.030402 
L 385.801125 197.501894 
L 386.545125 193.940803 
L 387.289125 200.101896 
L 388.033125 188.623945 
L 388.777125 189.955584 
L 389.521125 195.398887 
L 390.265125 190.486979 
L 391.009125 205.924268 
L 391.753125 204.025351 
L 392.497125 193.634904 
L 393.241125 196.376236 
L 393.985125 206.868062 
L 394.729125 208.486735 
L 395.473125 208.565283 
L 396.217125 194.246822 
L 396.961125 200.872649 
L 397.705125 192.499006 
L 399.193125 208.23711 
L 399.937125 210.776068 
L 400.681125 197.700742 
L 401.425125 211.859058 
L 402.169125 201.571423 
L 402.913125 197.299183 
L 403.657125 207.447309 
L 404.401125 220.904825 
L 405.145125 218.613087 
L 405.889125 199.504312 
L 407.377125 223.669776 
L 408.121125 200.255705 
L 408.865125 204.331576 
L 409.609125 221.892157 
L 410.353125 217.716556 
L 411.097125 225.81515 
L 411.841125 224.451669 
L 412.585125 221.617616 
L 413.329125 210.488854 
L 414.073125 212.34277 
L 414.817125 236.91554 
L 415.561125 220.715441 
L 416.305125 225.235282 
L 417.049125 240.000774 
L 417.793125 234.273898 
L 418.537125 222.383375 
L 419.281125 215.099212 
L 420.025125 228.839621 
L 420.769125 224.548684 
L 421.513125 235.847531 
L 422.257125 224.026674 
L 423.001125 221.265432 
L 423.745125 246.071381 
L 424.489125 221.251988 
L 425.233125 224.491081 
L 425.977125 245.713661 
L 426.721125 223.14323 
L 427.465125 214.10698 
L 428.209125 220.885019 
L 428.953125 239.404706 
L 429.697125 235.286033 
L 430.441125 257.028912 
L 431.185125 240.525724 
L 431.929125 228.468486 
L 432.673125 249.793994 
L 433.417125 257.051864 
L 434.161125 234.095314 
L 434.905125 243.201003 
L 435.649125 247.642911 
L 436.393125 239.310952 
L 437.137125 259.337999 
L 437.881125 237.398877 
L 438.625125 258.67123 
L 439.369125 249.530616 
L 440.113125 232.974334 
L 440.857125 240.883722 
L 441.601125 254.851575 
L 442.345125 240.405564 
L 443.089125 236.120165 
L 443.833125 237.665834 
L 444.577125 246.281197 
L 445.321125 245.083621 
L 446.065125 257.352939 
L 446.809125 259.189901 
L 447.553125 253.019286 
L 448.297125 240.562217 
L 449.041125 254.141113 
L 449.785125 248.636331 
L 450.529125 251.841519 
L 451.273125 272.40258 
L 452.017125 253.779228 
L 452.761125 259.632431 
L 453.505125 257.756239 
L 454.249125 258.740352 
L 454.993125 270.574866 
L 455.737125 257.586572 
L 456.481125 266.241668 
L 457.225125 255.288382 
L 457.969125 251.870723 
L 458.713125 269.175341 
L 459.457125 268.801747 
L 460.945125 254.384126 
L 461.689125 280.252941 
L 462.433125 273.091705 
L 463.177125 263.273728 
L 463.921125 281.114592 
L 464.665125 272.496983 
L 465.409125 272.596251 
L 466.153125 238.953778 
L 466.897125 271.889508 
L 467.641125 296.405355 
L 468.385125 280.263529 
L 469.129125 271.13006 
L 469.873125 292.140826 
L 470.617125 257.308539 
L 471.361125 273.749624 
L 472.105125 282.88737 
L 472.849125 288.573563 
L 473.593125 267.440619 
L 474.337125 280.143895 
L 475.081125 277.192855 
L 475.825125 276.102295 
L 476.569125 297.93135 
L 477.313125 300.124714 
L 478.801125 284.999152 
L 479.545125 296.503925 
L 480.289125 295.855616 
L 481.033125 290.424622 
L 481.777125 291.151071 
L 482.521125 282.799668 
L 483.265125 298.801084 
L 484.009125 282.401951 
L 484.753125 287.878055 
L 485.497125 301.629222 
L 486.241125 295.550759 
L 486.985125 311.569259 
L 487.729125 286.864988 
L 488.473125 301.367018 
L 489.217125 288.84093 
L 489.961125 306.261211 
L 490.705125 280.551043 
L 491.449125 302.354312 
L 492.193125 294.427413 
L 492.937125 292.6511 
L 493.681125 290.293863 
L 494.425125 307.063133 
L 495.169125 294.200039 
L 495.913125 301.477215 
L 496.657125 284.584523 
L 497.401125 317.023103 
L 498.145125 314.903313 
L 498.889125 327.62005 
L 499.633125 323.782847 
L 500.377125 308.316824 
L 501.865125 320.484763 
L 502.609125 333.060971 
L 502.609125 333.060971 
" style="fill:none;stroke:#0000ff;stroke-linecap:square;stroke-width:0.5;"/>
   </g>
   <g id="patch_3">
    <path d="M 56.953125 368.74175 
L 56.953125 23.14175 
" style="fill:none;stroke:#000000;stroke-linecap:square;stroke-linejoin:miter;"/>
   </g>
   <g id="patch_4">
    <path d="M 56.953125 368.74175 
L 503.353125 368.74175 
" style="fill:none;stroke:#000000;stroke-linecap:square;stroke-linejoin:miter;"/>
   </g>
   <g id="patch_5">
    <path d="M 503.353125 368.74175 
L 503.353125 23.14175 
" style="fill:none;stroke:#000000;stroke-linecap:square;stroke-linejoin:miter;"/>
   </g>
   <g id="patch_6">
    <path d="M 56.953125 23.14175 
L 503.353125 23.14175 
" style="fill:none;stroke:#000000;stroke-linecap:square;stroke-linejoin:miter;"/>
   </g>
   <g id="matplotlib.axis_1">
    <g id="xtick_1">
     <g id="line2d_2">
      <defs>
       <path d="M 0 0 
L 0 -4 
" id="m682190c291" style="stroke:#000000;stroke-width:0.5;"/>
      </defs>
      <g>
       <use style="stroke:#000000;stroke-width:0.5;" x="56.953125" xlink:href="#m682190c291" y="368.74175"/>
      </g>
     </g>
     <g id="line2d_3">
      <defs>
       <path d="M 0 0 
L 0 4 
" id="m19933c6116" style="stroke:#000000;stroke-width:0.5;"/>
      </defs>
      <g>
       <use style="stroke:#000000;stroke-width:0.5;" x="56.953125" xlink:href="#m19933c6116" y="23.14175"/>
      </g>
     </g>
     <g id="text_1">
      <!-- 0 -->
      <defs>
       <path d="M 31.78125 66.40625 
Q 24.171875 66.40625 20.328125 58.90625 
Q 16.5 51.421875 16.5 36.375 
Q 16.5 21.390625 20.328125 13.890625 
Q 24.171875 6.390625 31.78125 6.390625 
Q 39.453125 6.390625 43.28125 13.890625 
Q 47.125 21.390625 47.125 36.375 
Q 47.125 51.421875 43.28125 58.90625 
Q 39.453125 66.40625 31.78125 66.40625 
M 31.78125 74.21875 
Q 44.046875 74.21875 50.515625 64.515625 
Q 56.984375 54.828125 56.984375 36.375 
Q 56.984375 17.96875 50.515625 8.265625 
Q 44.046875 -1.421875 31.78125 -1.421875 
Q 19.53125 -1.421875 13.0625 8.265625 
Q 6.59375 17.96875 6.59375 36.375 
Q 6.59375 54.828125 13.0625 64.515625 
Q 19.53125 74.21875 31.78125 74.21875 
" id="BitstreamVeraSans-Roman-30"/>
      </defs>
      <g transform="translate(53.135625 381.859875)scale(0.12 -0.12)">
       <use xlink:href="#BitstreamVeraSans-Roman-30"/>
      </g>
     </g>
    </g>
    <g id="xtick_2">
     <g id="line2d_4">
      <g>
       <use style="stroke:#000000;stroke-width:0.5;" x="131.353125" xlink:href="#m682190c291" y="368.74175"/>
      </g>
     </g>
     <g id="line2d_5">
      <g>
       <use style="stroke:#000000;stroke-width:0.5;" x="131.353125" xlink:href="#m19933c6116" y="23.14175"/>
      </g>
     </g>
     <g id="text_2">
      <!-- 100 -->
      <defs>
       <path d="M 12.40625 8.296875 
L 28.515625 8.296875 
L 28.515625 63.921875 
L 10.984375 60.40625 
L 10.984375 69.390625 
L 28.421875 72.90625 
L 38.28125 72.90625 
L 38.28125 8.296875 
L 54.390625 8.296875 
L 54.390625 0 
L 12.40625 0 
z
" id="BitstreamVeraSans-Roman-31"/>
      </defs>
      <g transform="translate(119.900625 381.859875)scale(0.12 -0.12)">
       <use xlink:href="#BitstreamVeraSans-Roman-31"/>
       <use x="63.623046875" xlink:href="#BitstreamVeraSans-Roman-30"/>
       <use x="127.24609375" xlink:href="#BitstreamVeraSans-Roman-30"/>
      </g>
     </g>
    </g>
    <g id="xtick_3">
     <g id="line2d_6">
      <g>
       <use style="stroke:#000000;stroke-width:0.5;" x="205.753125" xlink:href="#m682190c291" y="368.74175"/>
      </g>
     </g>
     <g id="line2d_7">
      <g>
       <use style="stroke:#000000;stroke-width:0.5;" x="205.753125" xlink:href="#m19933c6116" y="23.14175"/>
      </g>
     </g>
     <g id="text_3">
      <!-- 200 -->
      <defs>
       <path d="M 19.1875 8.296875 
L 53.609375 8.296875 
L 53.609375 0 
L 7.328125 0 
L 7.328125 8.296875 
Q 12.9375 14.109375 22.625 23.890625 
Q 32.328125 33.6875 34.8125 36.53125 
Q 39.546875 41.84375 41.421875 45.53125 
Q 43.3125 49.21875 43.3125 52.78125 
Q 43.3125 58.59375 39.234375 62.25 
Q 35.15625 65.921875 28.609375 65.921875 
Q 23.96875 65.921875 18.8125 64.3125 
Q 13.671875 62.703125 7.8125 59.421875 
L 7.8125 69.390625 
Q 13.765625 71.78125 18.9375 73 
Q 24.125 74.21875 28.421875 74.21875 
Q 39.75 74.21875 46.484375 68.546875 
Q 53.21875 62.890625 53.21875 53.421875 
Q 53.21875 48.921875 51.53125 44.890625 
Q 49.859375 40.875 45.40625 35.40625 
Q 44.1875 33.984375 37.640625 27.21875 
Q 31.109375 20.453125 19.1875 8.296875 
" id="BitstreamVeraSans-Roman-32"/>
      </defs>
      <g transform="translate(194.300625 381.859875)scale(0.12 -0.12)">
       <use xlink:href="#BitstreamVeraSans-Roman-32"/>
       <use x="63.623046875" xlink:href="#BitstreamVeraSans-Roman-30"/>
       <use x="127.24609375" xlink:href="#BitstreamVeraSans-Roman-30"/>
      </g>
     </g>
    </g>
    <g id="xtick_4">
     <g id="line2d_8">
      <g>
       <use style="stroke:#000000;stroke-width:0.5;" x="280.153125" xlink:href="#m682190c291" y="368.74175"/>
      </g>
     </g>
     <g id="line2d_9">
      <g>
       <use style="stroke:#000000;stroke-width:0.5;" x="280.153125" xlink:href="#m19933c6116" y="23.14175"/>
      </g>
     </g>
     <g id="text_4">
      <!-- 300 -->
      <defs>
       <path d="M 40.578125 39.3125 
Q 47.65625 37.796875 51.625 33 
Q 55.609375 28.21875 55.609375 21.1875 
Q 55.609375 10.40625 48.1875 4.484375 
Q 40.765625 -1.421875 27.09375 -1.421875 
Q 22.515625 -1.421875 17.65625 -0.515625 
Q 12.796875 0.390625 7.625 2.203125 
L 7.625 11.71875 
Q 11.71875 9.328125 16.59375 8.109375 
Q 21.484375 6.890625 26.8125 6.890625 
Q 36.078125 6.890625 40.9375 10.546875 
Q 45.796875 14.203125 45.796875 21.1875 
Q 45.796875 27.640625 41.28125 31.265625 
Q 36.765625 34.90625 28.71875 34.90625 
L 20.21875 34.90625 
L 20.21875 43.015625 
L 29.109375 43.015625 
Q 36.375 43.015625 40.234375 45.921875 
Q 44.09375 48.828125 44.09375 54.296875 
Q 44.09375 59.90625 40.109375 62.90625 
Q 36.140625 65.921875 28.71875 65.921875 
Q 24.65625 65.921875 20.015625 65.03125 
Q 15.375 64.15625 9.8125 62.3125 
L 9.8125 71.09375 
Q 15.4375 72.65625 20.34375 73.4375 
Q 25.25 74.21875 29.59375 74.21875 
Q 40.828125 74.21875 47.359375 69.109375 
Q 53.90625 64.015625 53.90625 55.328125 
Q 53.90625 49.265625 50.4375 45.09375 
Q 46.96875 40.921875 40.578125 39.3125 
" id="BitstreamVeraSans-Roman-33"/>
      </defs>
      <g transform="translate(268.700625 381.859875)scale(0.12 -0.12)">
       <use xlink:href="#BitstreamVeraSans-Roman-33"/>
       <use x="63.623046875" xlink:href="#BitstreamVeraSans-Roman-30"/>
       <use x="127.24609375" xlink:href="#BitstreamVeraSans-Roman-30"/>
      </g>
     </g>
    </g>
    <g id="xtick_5">
     <g id="line2d_10">
      <g>
       <use style="stroke:#000000;stroke-width:0.5;" x="354.553125" xlink:href="#m682190c291" y="368.74175"/>
      </g>
     </g>
     <g id="line2d_11">
      <g>
       <use style="stroke:#000000;stroke-width:0.5;" x="354.553125" xlink:href="#m19933c6116" y="23.14175"/>
      </g>
     </g>
     <g id="text_5">
      <!-- 400 -->
      <defs>
       <path d="M 37.796875 64.3125 
L 12.890625 25.390625 
L 37.796875 25.390625 
z
M 35.203125 72.90625 
L 47.609375 72.90625 
L 47.609375 25.390625 
L 58.015625 25.390625 
L 58.015625 17.1875 
L 47.609375 17.1875 
L 47.609375 0 
L 37.796875 0 
L 37.796875 17.1875 
L 4.890625 17.1875 
L 4.890625 26.703125 
z
" id="BitstreamVeraSans-Roman-34"/>
      </defs>
      <g transform="translate(343.100625 381.859875)scale(0.12 -0.12)">
       <use xlink:href="#BitstreamVeraSans-Roman-34"/>
       <use x="63.623046875" xlink:href="#BitstreamVeraSans-Roman-30"/>
       <use x="127.24609375" xlink:href="#BitstreamVeraSans-Roman-30"/>
      </g>
     </g>
    </g>
    <g id="xtick_6">
     <g id="line2d_12">
      <g>
       <use style="stroke:#000000;stroke-width:0.5;" x="428.953125" xlink:href="#m682190c291" y="368.74175"/>
      </g>
     </g>
     <g id="line2d_13">
      <g>
       <use style="stroke:#000000;stroke-width:0.5;" x="428.953125" xlink:href="#m19933c6116" y="23.14175"/>
      </g>
     </g>
     <g id="text_6">
      <!-- 500 -->
      <defs>
       <path d="M 10.796875 72.90625 
L 49.515625 72.90625 
L 49.515625 64.59375 
L 19.828125 64.59375 
L 19.828125 46.734375 
Q 21.96875 47.46875 24.109375 47.828125 
Q 26.265625 48.1875 28.421875 48.1875 
Q 40.625 48.1875 47.75 41.5 
Q 54.890625 34.8125 54.890625 23.390625 
Q 54.890625 11.625 47.5625 5.09375 
Q 40.234375 -1.421875 26.90625 -1.421875 
Q 22.3125 -1.421875 17.546875 -0.640625 
Q 12.796875 0.140625 7.71875 1.703125 
L 7.71875 11.625 
Q 12.109375 9.234375 16.796875 8.0625 
Q 21.484375 6.890625 26.703125 6.890625 
Q 35.15625 6.890625 40.078125 11.328125 
Q 45.015625 15.765625 45.015625 23.390625 
Q 45.015625 31 40.078125 35.4375 
Q 35.15625 39.890625 26.703125 39.890625 
Q 22.75 39.890625 18.8125 39.015625 
Q 14.890625 38.140625 10.796875 36.28125 
z
" id="BitstreamVeraSans-Roman-35"/>
      </defs>
      <g transform="translate(417.500625 381.859875)scale(0.12 -0.12)">
       <use xlink:href="#BitstreamVeraSans-Roman-35"/>
       <use x="63.623046875" xlink:href="#BitstreamVeraSans-Roman-30"/>
       <use x="127.24609375" xlink:href="#BitstreamVeraSans-Roman-30"/>
      </g>
     </g>
    </g>
    <g id="xtick_7">
     <g id="line2d_14">
      <g>
       <use style="stroke:#000000;stroke-width:0.5;" x="503.353125" xlink:href="#m682190c291" y="368.74175"/>
      </g>
     </g>
     <g id="line2d_15">
      <g>
       <use style="stroke:#000000;stroke-width:0.5;" x="503.353125" xlink:href="#m19933c6116" y="23.14175"/>
      </g>
     </g>
     <g id="text_7">
      <!-- 600 -->
      <defs>
       <path d="M 33.015625 40.375 
Q 26.375 40.375 22.484375 35.828125 
Q 18.609375 31.296875 18.609375 23.390625 
Q 18.609375 15.53125 22.484375 10.953125 
Q 26.375 6.390625 33.015625 6.390625 
Q 39.65625 6.390625 43.53125 10.953125 
Q 47.40625 15.53125 47.40625 23.390625 
Q 47.40625 31.296875 43.53125 35.828125 
Q 39.65625 40.375 33.015625 40.375 
M 52.59375 71.296875 
L 52.59375 62.3125 
Q 48.875 64.0625 45.09375 64.984375 
Q 41.3125 65.921875 37.59375 65.921875 
Q 27.828125 65.921875 22.671875 59.328125 
Q 17.53125 52.734375 16.796875 39.40625 
Q 19.671875 43.65625 24.015625 45.921875 
Q 28.375 48.1875 33.59375 48.1875 
Q 44.578125 48.1875 50.953125 41.515625 
Q 57.328125 34.859375 57.328125 23.390625 
Q 57.328125 12.15625 50.6875 5.359375 
Q 44.046875 -1.421875 33.015625 -1.421875 
Q 20.359375 -1.421875 13.671875 8.265625 
Q 6.984375 17.96875 6.984375 36.375 
Q 6.984375 53.65625 15.1875 63.9375 
Q 23.390625 74.21875 37.203125 74.21875 
Q 40.921875 74.21875 44.703125 73.484375 
Q 48.484375 72.75 52.59375 71.296875 
" id="BitstreamVeraSans-Roman-36"/>
      </defs>
      <g transform="translate(491.900625 381.859875)scale(0.12 -0.12)">
       <use xlink:href="#BitstreamVeraSans-Roman-36"/>
       <use x="63.623046875" xlink:href="#BitstreamVeraSans-Roman-30"/>
       <use x="127.24609375" xlink:href="#BitstreamVeraSans-Roman-30"/>
      </g>
     </g>
    </g>
    <g id="text_8">
     <!-- episode -->
     <defs>
      <path d="M 44.28125 53.078125 
L 44.28125 44.578125 
Q 40.484375 46.53125 36.375 47.5 
Q 32.28125 48.484375 27.875 48.484375 
Q 21.1875 48.484375 17.84375 46.4375 
Q 14.5 44.390625 14.5 40.28125 
Q 14.5 37.15625 16.890625 35.375 
Q 19.28125 33.59375 26.515625 31.984375 
L 29.59375 31.296875 
Q 39.15625 29.25 43.1875 25.515625 
Q 47.21875 21.78125 47.21875 15.09375 
Q 47.21875 7.46875 41.1875 3.015625 
Q 35.15625 -1.421875 24.609375 -1.421875 
Q 20.21875 -1.421875 15.453125 -0.5625 
Q 10.6875 0.296875 5.421875 2 
L 5.421875 11.28125 
Q 10.40625 8.6875 15.234375 7.390625 
Q 20.0625 6.109375 24.8125 6.109375 
Q 31.15625 6.109375 34.5625 8.28125 
Q 37.984375 10.453125 37.984375 14.40625 
Q 37.984375 18.0625 35.515625 20.015625 
Q 33.0625 21.96875 24.703125 23.78125 
L 21.578125 24.515625 
Q 13.234375 26.265625 9.515625 29.90625 
Q 5.8125 33.546875 5.8125 39.890625 
Q 5.8125 47.609375 11.28125 51.796875 
Q 16.75 56 26.8125 56 
Q 31.78125 56 36.171875 55.265625 
Q 40.578125 54.546875 44.28125 53.078125 
" id="BitstreamVeraSans-Roman-73"/>
      <path d="M 30.609375 48.390625 
Q 23.390625 48.390625 19.1875 42.75 
Q 14.984375 37.109375 14.984375 27.296875 
Q 14.984375 17.484375 19.15625 11.84375 
Q 23.34375 6.203125 30.609375 6.203125 
Q 37.796875 6.203125 41.984375 11.859375 
Q 46.1875 17.53125 46.1875 27.296875 
Q 46.1875 37.015625 41.984375 42.703125 
Q 37.796875 48.390625 30.609375 48.390625 
M 30.609375 56 
Q 42.328125 56 49.015625 48.375 
Q 55.71875 40.765625 55.71875 27.296875 
Q 55.71875 13.875 49.015625 6.21875 
Q 42.328125 -1.421875 30.609375 -1.421875 
Q 18.84375 -1.421875 12.171875 6.21875 
Q 5.515625 13.875 5.515625 27.296875 
Q 5.515625 40.765625 12.171875 48.375 
Q 18.84375 56 30.609375 56 
" id="BitstreamVeraSans-Roman-6f"/>
      <path d="M 9.421875 54.6875 
L 18.40625 54.6875 
L 18.40625 0 
L 9.421875 0 
z
M 9.421875 75.984375 
L 18.40625 75.984375 
L 18.40625 64.59375 
L 9.421875 64.59375 
z
" id="BitstreamVeraSans-Roman-69"/>
      <path d="M 18.109375 8.203125 
L 18.109375 -20.796875 
L 9.078125 -20.796875 
L 9.078125 54.6875 
L 18.109375 54.6875 
L 18.109375 46.390625 
Q 20.953125 51.265625 25.265625 53.625 
Q 29.59375 56 35.59375 56 
Q 45.5625 56 51.78125 48.09375 
Q 58.015625 40.1875 58.015625 27.296875 
Q 58.015625 14.40625 51.78125 6.484375 
Q 45.5625 -1.421875 35.59375 -1.421875 
Q 29.59375 -1.421875 25.265625 0.953125 
Q 20.953125 3.328125 18.109375 8.203125 
M 48.6875 27.296875 
Q 48.6875 37.203125 44.609375 42.84375 
Q 40.53125 48.484375 33.40625 48.484375 
Q 26.265625 48.484375 22.1875 42.84375 
Q 18.109375 37.203125 18.109375 27.296875 
Q 18.109375 17.390625 22.1875 11.75 
Q 26.265625 6.109375 33.40625 6.109375 
Q 40.53125 6.109375 44.609375 11.75 
Q 48.6875 17.390625 48.6875 27.296875 
" id="BitstreamVeraSans-Roman-70"/>
      <path d="M 45.40625 46.390625 
L 45.40625 75.984375 
L 54.390625 75.984375 
L 54.390625 0 
L 45.40625 0 
L 45.40625 8.203125 
Q 42.578125 3.328125 38.25 0.953125 
Q 33.9375 -1.421875 27.875 -1.421875 
Q 17.96875 -1.421875 11.734375 6.484375 
Q 5.515625 14.40625 5.515625 27.296875 
Q 5.515625 40.1875 11.734375 48.09375 
Q 17.96875 56 27.875 56 
Q 33.9375 56 38.25 53.625 
Q 42.578125 51.265625 45.40625 46.390625 
M 14.796875 27.296875 
Q 14.796875 17.390625 18.875 11.75 
Q 22.953125 6.109375 30.078125 6.109375 
Q 37.203125 6.109375 41.296875 11.75 
Q 45.40625 17.390625 45.40625 27.296875 
Q 45.40625 37.203125 41.296875 42.84375 
Q 37.203125 48.484375 30.078125 48.484375 
Q 22.953125 48.484375 18.875 42.84375 
Q 14.796875 37.203125 14.796875 27.296875 
" id="BitstreamVeraSans-Roman-64"/>
      <path d="M 56.203125 29.59375 
L 56.203125 25.203125 
L 14.890625 25.203125 
Q 15.484375 15.921875 20.484375 11.0625 
Q 25.484375 6.203125 34.421875 6.203125 
Q 39.59375 6.203125 44.453125 7.46875 
Q 49.3125 8.734375 54.109375 11.28125 
L 54.109375 2.78125 
Q 49.265625 0.734375 44.1875 -0.34375 
Q 39.109375 -1.421875 33.890625 -1.421875 
Q 20.796875 -1.421875 13.15625 6.1875 
Q 5.515625 13.8125 5.515625 26.8125 
Q 5.515625 40.234375 12.765625 48.109375 
Q 20.015625 56 32.328125 56 
Q 43.359375 56 49.78125 48.890625 
Q 56.203125 41.796875 56.203125 29.59375 
M 47.21875 32.234375 
Q 47.125 39.59375 43.09375 43.984375 
Q 39.0625 48.390625 32.421875 48.390625 
Q 24.90625 48.390625 20.390625 44.140625 
Q 15.875 39.890625 15.1875 32.171875 
z
" id="BitstreamVeraSans-Roman-65"/>
     </defs>
     <g transform="translate(256.6875 398.473625)scale(0.12 -0.12)">
      <use xlink:href="#BitstreamVeraSans-Roman-65"/>
      <use x="61.5234375" xlink:href="#BitstreamVeraSans-Roman-70"/>
      <use x="125.0" xlink:href="#BitstreamVeraSans-Roman-69"/>
      <use x="152.783203125" xlink:href="#BitstreamVeraSans-Roman-73"/>
      <use x="204.8828125" xlink:href="#BitstreamVeraSans-Roman-6f"/>
      <use x="266.064453125" xlink:href="#BitstreamVeraSans-Roman-64"/>
      <use x="329.541015625" xlink:href="#BitstreamVeraSans-Roman-65"/>
     </g>
    </g>
   </g>
   <g id="matplotlib.axis_2">
    <g id="ytick_1">
     <g id="line2d_16">
      <defs>
       <path d="M 0 0 
L 4 0 
" id="m7842550863" style="stroke:#000000;stroke-width:0.5;"/>
      </defs>
      <g>
       <use style="stroke:#000000;stroke-width:0.5;" x="56.953125" xlink:href="#m7842550863" y="330.34175"/>
      </g>
     </g>
     <g id="line2d_17">
      <defs>
       <path d="M 0 0 
L -4 0 
" id="mebdd30ef32" style="stroke:#000000;stroke-width:0.5;"/>
      </defs>
      <g>
       <use style="stroke:#000000;stroke-width:0.5;" x="503.353125" xlink:href="#mebdd30ef32" y="330.34175"/>
      </g>
     </g>
     <g id="text_9">
      <!-- −0.6 -->
      <defs>
       <path d="M 10.59375 35.5 
L 73.1875 35.5 
L 73.1875 27.203125 
L 10.59375 27.203125 
z
" id="BitstreamVeraSans-Roman-2212"/>
       <path d="M 10.6875 12.40625 
L 21 12.40625 
L 21 0 
L 10.6875 0 
z
" id="BitstreamVeraSans-Roman-2e"/>
      </defs>
      <g transform="translate(23.81375 333.653)scale(0.12 -0.12)">
       <use xlink:href="#BitstreamVeraSans-Roman-2212"/>
       <use x="83.7890625" xlink:href="#BitstreamVeraSans-Roman-30"/>
       <use x="147.412109375" xlink:href="#BitstreamVeraSans-Roman-2e"/>
       <use x="179.19921875" xlink:href="#BitstreamVeraSans-Roman-36"/>
      </g>
     </g>
    </g>
    <g id="ytick_2">
     <g id="line2d_18">
      <g>
       <use style="stroke:#000000;stroke-width:0.5;" x="56.953125" xlink:href="#m7842550863" y="253.54175"/>
      </g>
     </g>
     <g id="line2d_19">
      <g>
       <use style="stroke:#000000;stroke-width:0.5;" x="503.353125" xlink:href="#mebdd30ef32" y="253.54175"/>
      </g>
     </g>
     <g id="text_10">
      <!-- −0.4 -->
      <g transform="translate(23.81375 256.853)scale(0.12 -0.12)">
       <use xlink:href="#BitstreamVeraSans-Roman-2212"/>
       <use x="83.7890625" xlink:href="#BitstreamVeraSans-Roman-30"/>
       <use x="147.412109375" xlink:href="#BitstreamVeraSans-Roman-2e"/>
       <use x="179.19921875" xlink:href="#BitstreamVeraSans-Roman-34"/>
      </g>
     </g>
    </g>
    <g id="ytick_3">
     <g id="line2d_20">
      <g>
       <use style="stroke:#000000;stroke-width:0.5;" x="56.953125" xlink:href="#m7842550863" y="176.74175"/>
      </g>
     </g>
     <g id="line2d_21">
      <g>
       <use style="stroke:#000000;stroke-width:0.5;" x="503.353125" xlink:href="#mebdd30ef32" y="176.74175"/>
      </g>
     </g>
     <g id="text_11">
      <!-- −0.2 -->
      <g transform="translate(23.81375 180.053)scale(0.12 -0.12)">
       <use xlink:href="#BitstreamVeraSans-Roman-2212"/>
       <use x="83.7890625" xlink:href="#BitstreamVeraSans-Roman-30"/>
       <use x="147.412109375" xlink:href="#BitstreamVeraSans-Roman-2e"/>
       <use x="179.19921875" xlink:href="#BitstreamVeraSans-Roman-32"/>
      </g>
     </g>
    </g>
    <g id="ytick_4">
     <g id="line2d_22">
      <g>
       <use style="stroke:#000000;stroke-width:0.5;" x="56.953125" xlink:href="#m7842550863" y="99.94175"/>
      </g>
     </g>
     <g id="line2d_23">
      <g>
       <use style="stroke:#000000;stroke-width:0.5;" x="503.353125" xlink:href="#mebdd30ef32" y="99.94175"/>
      </g>
     </g>
     <g id="text_12">
      <!-- 0.0 -->
      <g transform="translate(33.869375 103.253)scale(0.12 -0.12)">
       <use xlink:href="#BitstreamVeraSans-Roman-30"/>
       <use x="63.623046875" xlink:href="#BitstreamVeraSans-Roman-2e"/>
       <use x="95.41015625" xlink:href="#BitstreamVeraSans-Roman-30"/>
      </g>
     </g>
    </g>
    <g id="ytick_5">
     <g id="line2d_24">
      <g>
       <use style="stroke:#000000;stroke-width:0.5;" x="56.953125" xlink:href="#m7842550863" y="23.14175"/>
      </g>
     </g>
     <g id="line2d_25">
      <g>
       <use style="stroke:#000000;stroke-width:0.5;" x="503.353125" xlink:href="#mebdd30ef32" y="23.14175"/>
      </g>
     </g>
     <g id="text_13">
      <!-- 0.2 -->
      <g transform="translate(33.869375 26.453)scale(0.12 -0.12)">
       <use xlink:href="#BitstreamVeraSans-Roman-30"/>
       <use x="63.623046875" xlink:href="#BitstreamVeraSans-Roman-2e"/>
       <use x="95.41015625" xlink:href="#BitstreamVeraSans-Roman-32"/>
      </g>
     </g>
    </g>
    <g id="text_14">
     <!-- average maxQ -->
     <defs>
      <path d="M 39.40625 66.21875 
Q 28.65625 66.21875 22.328125 58.203125 
Q 16.015625 50.203125 16.015625 36.375 
Q 16.015625 22.609375 22.328125 14.59375 
Q 28.65625 6.59375 39.40625 6.59375 
Q 50.140625 6.59375 56.421875 14.59375 
Q 62.703125 22.609375 62.703125 36.375 
Q 62.703125 50.203125 56.421875 58.203125 
Q 50.140625 66.21875 39.40625 66.21875 
M 53.21875 1.3125 
L 66.21875 -12.890625 
L 54.296875 -12.890625 
L 43.5 -1.21875 
Q 41.890625 -1.3125 41.03125 -1.359375 
Q 40.1875 -1.421875 39.40625 -1.421875 
Q 24.03125 -1.421875 14.8125 8.859375 
Q 5.609375 19.140625 5.609375 36.375 
Q 5.609375 53.65625 14.8125 63.9375 
Q 24.03125 74.21875 39.40625 74.21875 
Q 54.734375 74.21875 63.90625 63.9375 
Q 73.09375 53.65625 73.09375 36.375 
Q 73.09375 23.6875 67.984375 14.640625 
Q 62.890625 5.609375 53.21875 1.3125 
" id="BitstreamVeraSans-Roman-51"/>
      <path d="M 45.40625 27.984375 
Q 45.40625 37.75 41.375 43.109375 
Q 37.359375 48.484375 30.078125 48.484375 
Q 22.859375 48.484375 18.828125 43.109375 
Q 14.796875 37.75 14.796875 27.984375 
Q 14.796875 18.265625 18.828125 12.890625 
Q 22.859375 7.515625 30.078125 7.515625 
Q 37.359375 7.515625 41.375 12.890625 
Q 45.40625 18.265625 45.40625 27.984375 
M 54.390625 6.78125 
Q 54.390625 -7.171875 48.1875 -13.984375 
Q 42 -20.796875 29.203125 -20.796875 
Q 24.46875 -20.796875 20.265625 -20.09375 
Q 16.0625 -19.390625 12.109375 -17.921875 
L 12.109375 -9.1875 
Q 16.0625 -11.328125 19.921875 -12.34375 
Q 23.78125 -13.375 27.78125 -13.375 
Q 36.625 -13.375 41.015625 -8.765625 
Q 45.40625 -4.15625 45.40625 5.171875 
L 45.40625 9.625 
Q 42.625 4.78125 38.28125 2.390625 
Q 33.9375 0 27.875 0 
Q 17.828125 0 11.671875 7.65625 
Q 5.515625 15.328125 5.515625 27.984375 
Q 5.515625 40.671875 11.671875 48.328125 
Q 17.828125 56 27.875 56 
Q 33.9375 56 38.28125 53.609375 
Q 42.625 51.21875 45.40625 46.390625 
L 45.40625 54.6875 
L 54.390625 54.6875 
z
" id="BitstreamVeraSans-Roman-67"/>
      <path d="M 54.890625 54.6875 
L 35.109375 28.078125 
L 55.90625 0 
L 45.3125 0 
L 29.390625 21.484375 
L 13.484375 0 
L 2.875 0 
L 24.125 28.609375 
L 4.6875 54.6875 
L 15.28125 54.6875 
L 29.78125 35.203125 
L 44.28125 54.6875 
z
" id="BitstreamVeraSans-Roman-78"/>
      <path id="BitstreamVeraSans-Roman-20"/>
      <path d="M 2.984375 54.6875 
L 12.5 54.6875 
L 29.59375 8.796875 
L 46.6875 54.6875 
L 56.203125 54.6875 
L 35.6875 0 
L 23.484375 0 
z
" id="BitstreamVeraSans-Roman-76"/>
      <path d="M 52 44.1875 
Q 55.375 50.25 60.0625 53.125 
Q 64.75 56 71.09375 56 
Q 79.640625 56 84.28125 50.015625 
Q 88.921875 44.046875 88.921875 33.015625 
L 88.921875 0 
L 79.890625 0 
L 79.890625 32.71875 
Q 79.890625 40.578125 77.09375 44.375 
Q 74.3125 48.1875 68.609375 48.1875 
Q 61.625 48.1875 57.5625 43.546875 
Q 53.515625 38.921875 53.515625 30.90625 
L 53.515625 0 
L 44.484375 0 
L 44.484375 32.71875 
Q 44.484375 40.625 41.703125 44.40625 
Q 38.921875 48.1875 33.109375 48.1875 
Q 26.21875 48.1875 22.15625 43.53125 
Q 18.109375 38.875 18.109375 30.90625 
L 18.109375 0 
L 9.078125 0 
L 9.078125 54.6875 
L 18.109375 54.6875 
L 18.109375 46.1875 
Q 21.1875 51.21875 25.484375 53.609375 
Q 29.78125 56 35.6875 56 
Q 41.65625 56 45.828125 52.96875 
Q 50 49.953125 52 44.1875 
" id="BitstreamVeraSans-Roman-6d"/>
      <path d="M 41.109375 46.296875 
Q 39.59375 47.171875 37.8125 47.578125 
Q 36.03125 48 33.890625 48 
Q 26.265625 48 22.1875 43.046875 
Q 18.109375 38.09375 18.109375 28.8125 
L 18.109375 0 
L 9.078125 0 
L 9.078125 54.6875 
L 18.109375 54.6875 
L 18.109375 46.1875 
Q 20.953125 51.171875 25.484375 53.578125 
Q 30.03125 56 36.53125 56 
Q 37.453125 56 38.578125 55.875 
Q 39.703125 55.765625 41.0625 55.515625 
z
" id="BitstreamVeraSans-Roman-72"/>
      <path d="M 34.28125 27.484375 
Q 23.390625 27.484375 19.1875 25 
Q 14.984375 22.515625 14.984375 16.5 
Q 14.984375 11.71875 18.140625 8.90625 
Q 21.296875 6.109375 26.703125 6.109375 
Q 34.1875 6.109375 38.703125 11.40625 
Q 43.21875 16.703125 43.21875 25.484375 
L 43.21875 27.484375 
z
M 52.203125 31.203125 
L 52.203125 0 
L 43.21875 0 
L 43.21875 8.296875 
Q 40.140625 3.328125 35.546875 0.953125 
Q 30.953125 -1.421875 24.3125 -1.421875 
Q 15.921875 -1.421875 10.953125 3.296875 
Q 6 8.015625 6 15.921875 
Q 6 25.140625 12.171875 29.828125 
Q 18.359375 34.515625 30.609375 34.515625 
L 43.21875 34.515625 
L 43.21875 35.40625 
Q 43.21875 41.609375 39.140625 45 
Q 35.0625 48.390625 27.6875 48.390625 
Q 23 48.390625 18.546875 47.265625 
Q 14.109375 46.140625 10.015625 43.890625 
L 10.015625 52.203125 
Q 14.9375 54.109375 19.578125 55.046875 
Q 24.21875 56 28.609375 56 
Q 40.484375 56 46.34375 49.84375 
Q 52.203125 43.703125 52.203125 31.203125 
" id="BitstreamVeraSans-Roman-61"/>
     </defs>
     <g transform="translate(16.318125 240.208625)rotate(-90.0)scale(0.12 -0.12)">
      <use xlink:href="#BitstreamVeraSans-Roman-61"/>
      <use x="61.279296875" xlink:href="#BitstreamVeraSans-Roman-76"/>
      <use x="120.458984375" xlink:href="#BitstreamVeraSans-Roman-65"/>
      <use x="181.982421875" xlink:href="#BitstreamVeraSans-Roman-72"/>
      <use x="223.095703125" xlink:href="#BitstreamVeraSans-Roman-61"/>
      <use x="284.375" xlink:href="#BitstreamVeraSans-Roman-67"/>
      <use x="347.8515625" xlink:href="#BitstreamVeraSans-Roman-65"/>
      <use x="409.375" xlink:href="#BitstreamVeraSans-Roman-20"/>
      <use x="441.162109375" xlink:href="#BitstreamVeraSans-Roman-6d"/>
      <use x="538.57421875" xlink:href="#BitstreamVeraSans-Roman-61"/>
      <use x="599.853515625" xlink:href="#BitstreamVeraSans-Roman-78"/>
      <use x="659.033203125" xlink:href="#BitstreamVeraSans-Roman-51"/>
     </g>
    </g>
   </g>
   <g id="text_15">
    <!-- Average maxQ per episode, joint 2 -->
    <defs>
     <path d="M 9.421875 54.6875 
L 18.40625 54.6875 
L 18.40625 -0.984375 
Q 18.40625 -11.421875 14.421875 -16.109375 
Q 10.453125 -20.796875 1.609375 -20.796875 
L -1.8125 -20.796875 
L -1.8125 -13.1875 
L 0.59375 -13.1875 
Q 5.71875 -13.1875 7.5625 -10.8125 
Q 9.421875 -8.453125 9.421875 -0.984375 
z
M 9.421875 75.984375 
L 18.40625 75.984375 
L 18.40625 64.59375 
L 9.421875 64.59375 
z
" id="BitstreamVeraSans-Roman-6a"/>
     <path d="M 34.1875 63.1875 
L 20.796875 26.90625 
L 47.609375 26.90625 
z
M 28.609375 72.90625 
L 39.796875 72.90625 
L 67.578125 0 
L 57.328125 0 
L 50.6875 18.703125 
L 17.828125 18.703125 
L 11.1875 0 
L 0.78125 0 
z
" id="BitstreamVeraSans-Roman-41"/>
     <path d="M 18.3125 70.21875 
L 18.3125 54.6875 
L 36.8125 54.6875 
L 36.8125 47.703125 
L 18.3125 47.703125 
L 18.3125 18.015625 
Q 18.3125 11.328125 20.140625 9.421875 
Q 21.96875 7.515625 27.59375 7.515625 
L 36.8125 7.515625 
L 36.8125 0 
L 27.59375 0 
Q 17.1875 0 13.234375 3.875 
Q 9.28125 7.765625 9.28125 18.015625 
L 9.28125 47.703125 
L 2.6875 47.703125 
L 2.6875 54.6875 
L 9.28125 54.6875 
L 9.28125 70.21875 
z
" id="BitstreamVeraSans-Roman-74"/>
     <path d="M 11.71875 12.40625 
L 22.015625 12.40625 
L 22.015625 4 
L 14.015625 -11.625 
L 7.71875 -11.625 
L 11.71875 4 
z
" id="BitstreamVeraSans-Roman-2c"/>
     <path d="M 54.890625 33.015625 
L 54.890625 0 
L 45.90625 0 
L 45.90625 32.71875 
Q 45.90625 40.484375 42.875 44.328125 
Q 39.84375 48.1875 33.796875 48.1875 
Q 26.515625 48.1875 22.3125 43.546875 
Q 18.109375 38.921875 18.109375 30.90625 
L 18.109375 0 
L 9.078125 0 
L 9.078125 54.6875 
L 18.109375 54.6875 
L 18.109375 46.1875 
Q 21.34375 51.125 25.703125 53.5625 
Q 30.078125 56 35.796875 56 
Q 45.21875 56 50.046875 50.171875 
Q 54.890625 44.34375 54.890625 33.015625 
" id="BitstreamVeraSans-Roman-6e"/>
    </defs>
    <g transform="translate(154.591875 18.14175)scale(0.144 -0.144)">
     <use xlink:href="#BitstreamVeraSans-Roman-41"/>
     <use x="68.330078125" xlink:href="#BitstreamVeraSans-Roman-76"/>
     <use x="127.509765625" xlink:href="#BitstreamVeraSans-Roman-65"/>
     <use x="189.033203125" xlink:href="#BitstreamVeraSans-Roman-72"/>
     <use x="230.146484375" xlink:href="#BitstreamVeraSans-Roman-61"/>
     <use x="291.42578125" xlink:href="#BitstreamVeraSans-Roman-67"/>
     <use x="354.90234375" xlink:href="#BitstreamVeraSans-Roman-65"/>
     <use x="416.42578125" xlink:href="#BitstreamVeraSans-Roman-20"/>
     <use x="448.212890625" xlink:href="#BitstreamVeraSans-Roman-6d"/>
     <use x="545.625" xlink:href="#BitstreamVeraSans-Roman-61"/>
     <use x="606.904296875" xlink:href="#BitstreamVeraSans-Roman-78"/>
     <use x="666.083984375" xlink:href="#BitstreamVeraSans-Roman-51"/>
     <use x="744.794921875" xlink:href="#BitstreamVeraSans-Roman-20"/>
     <use x="776.58203125" xlink:href="#BitstreamVeraSans-Roman-70"/>
     <use x="840.05859375" xlink:href="#BitstreamVeraSans-Roman-65"/>
     <use x="901.58203125" xlink:href="#BitstreamVeraSans-Roman-72"/>
     <use x="942.6953125" xlink:href="#BitstreamVeraSans-Roman-20"/>
     <use x="974.482421875" xlink:href="#BitstreamVeraSans-Roman-65"/>
     <use x="1036.005859375" xlink:href="#BitstreamVeraSans-Roman-70"/>
     <use x="1099.482421875" xlink:href="#BitstreamVeraSans-Roman-69"/>
     <use x="1127.265625" xlink:href="#BitstreamVeraSans-Roman-73"/>
     <use x="1179.365234375" xlink:href="#BitstreamVeraSans-Roman-6f"/>
     <use x="1240.546875" xlink:href="#BitstreamVeraSans-Roman-64"/>
     <use x="1304.0234375" xlink:href="#BitstreamVeraSans-Roman-65"/>
     <use x="1365.546875" xlink:href="#BitstreamVeraSans-Roman-2c"/>
     <use x="1397.333984375" xlink:href="#BitstreamVeraSans-Roman-20"/>
     <use x="1429.12109375" xlink:href="#BitstreamVeraSans-Roman-6a"/>
     <use x="1456.904296875" xlink:href="#BitstreamVeraSans-Roman-6f"/>
     <use x="1518.0859375" xlink:href="#BitstreamVeraSans-Roman-69"/>
     <use x="1545.869140625" xlink:href="#BitstreamVeraSans-Roman-6e"/>
     <use x="1609.248046875" xlink:href="#BitstreamVeraSans-Roman-74"/>
     <use x="1648.45703125" xlink:href="#BitstreamVeraSans-Roman-20"/>
     <use x="1680.244140625" xlink:href="#BitstreamVeraSans-Roman-32"/>
    </g>
   </g>
  </g>
 </g>
 <defs>
  <clipPath id="p7b0204e98d">
   <rect height="345.6" width="446.4" x="56.953125" y="23.14175"/>
  </clipPath>
 </defs>
</svg>
