<?xml version="1.0" encoding="utf-8" standalone="no"?>
<!DOCTYPE svg PUBLIC "-//W3C//DTD SVG 1.1//EN"
  "http://www.w3.org/Graphics/SVG/1.1/DTD/svg11.dtd">
<!-- Created with matplotlib (http://matplotlib.org/) -->
<svg height="325pt" version="1.1" viewBox="0 0 411 325" width="411pt" xmlns="http://www.w3.org/2000/svg" xmlns:xlink="http://www.w3.org/1999/xlink">
 <defs>
  <style type="text/css">
*{stroke-linecap:butt;stroke-linejoin:round;}
  </style>
 </defs>
 <g id="figure_1">
  <g id="patch_1">
   <path d="M 0 325.986375 
L 411.60125 325.986375 
L 411.60125 0 
L 0 0 
z
" style="fill:#ffffff;"/>
  </g>
  <g id="axes_1">
   <g id="patch_2">
    <path d="M 43.78125 288.430125 
L 400.90125 288.430125 
L 400.90125 22.318125 
L 43.78125 22.318125 
z
" style="fill:#ffffff;"/>
   </g>
   <g id="matplotlib.axis_1">
    <g id="xtick_1">
     <g id="line2d_1">
      <defs>
       <path d="M 0 0 
L 0 3.5 
" id="md96a32858c" style="stroke:#000000;stroke-width:0.8;"/>
      </defs>
      <g>
       <use style="stroke:#000000;stroke-width:0.8;" x="60.013977" xlink:href="#md96a32858c" y="288.430125"/>
      </g>
     </g>
     <g id="text_1">
      <!-- 0 -->
      <defs>
       <path d="M 31.78125 66.40625 
Q 24.171875 66.40625 20.328125 58.90625 
Q 16.5 51.421875 16.5 36.375 
Q 16.5 21.390625 20.328125 13.890625 
Q 24.171875 6.390625 31.78125 6.390625 
Q 39.453125 6.390625 43.28125 13.890625 
Q 47.125 21.390625 47.125 36.375 
Q 47.125 51.421875 43.28125 58.90625 
Q 39.453125 66.40625 31.78125 66.40625 
z
M 31.78125 74.21875 
Q 44.046875 74.21875 50.515625 64.515625 
Q 56.984375 54.828125 56.984375 36.375 
Q 56.984375 17.96875 50.515625 8.265625 
Q 44.046875 -1.421875 31.78125 -1.421875 
Q 19.53125 -1.421875 13.0625 8.265625 
Q 6.59375 17.96875 6.59375 36.375 
Q 6.59375 54.828125 13.0625 64.515625 
Q 19.53125 74.21875 31.78125 74.21875 
z
" id="DejaVuSans-30"/>
      </defs>
      <g transform="translate(56.832727 303.028562)scale(0.1 -0.1)">
       <use xlink:href="#DejaVuSans-30"/>
      </g>
     </g>
    </g>
    <g id="xtick_2">
     <g id="line2d_2">
      <g>
       <use style="stroke:#000000;stroke-width:0.8;" x="100.621175" xlink:href="#md96a32858c" y="288.430125"/>
      </g>
     </g>
     <g id="text_2">
      <!-- 200 -->
      <defs>
       <path d="M 19.1875 8.296875 
L 53.609375 8.296875 
L 53.609375 0 
L 7.328125 0 
L 7.328125 8.296875 
Q 12.9375 14.109375 22.625 23.890625 
Q 32.328125 33.6875 34.8125 36.53125 
Q 39.546875 41.84375 41.421875 45.53125 
Q 43.3125 49.21875 43.3125 52.78125 
Q 43.3125 58.59375 39.234375 62.25 
Q 35.15625 65.921875 28.609375 65.921875 
Q 23.96875 65.921875 18.8125 64.3125 
Q 13.671875 62.703125 7.8125 59.421875 
L 7.8125 69.390625 
Q 13.765625 71.78125 18.9375 73 
Q 24.125 74.21875 28.421875 74.21875 
Q 39.75 74.21875 46.484375 68.546875 
Q 53.21875 62.890625 53.21875 53.421875 
Q 53.21875 48.921875 51.53125 44.890625 
Q 49.859375 40.875 45.40625 35.40625 
Q 44.1875 33.984375 37.640625 27.21875 
Q 31.109375 20.453125 19.1875 8.296875 
z
" id="DejaVuSans-32"/>
      </defs>
      <g transform="translate(91.077425 303.028562)scale(0.1 -0.1)">
       <use xlink:href="#DejaVuSans-32"/>
       <use x="63.623047" xlink:href="#DejaVuSans-30"/>
       <use x="127.246094" xlink:href="#DejaVuSans-30"/>
      </g>
     </g>
    </g>
    <g id="xtick_3">
     <g id="line2d_3">
      <g>
       <use style="stroke:#000000;stroke-width:0.8;" x="141.228373" xlink:href="#md96a32858c" y="288.430125"/>
      </g>
     </g>
     <g id="text_3">
      <!-- 400 -->
      <defs>
       <path d="M 37.796875 64.3125 
L 12.890625 25.390625 
L 37.796875 25.390625 
z
M 35.203125 72.90625 
L 47.609375 72.90625 
L 47.609375 25.390625 
L 58.015625 25.390625 
L 58.015625 17.1875 
L 47.609375 17.1875 
L 47.609375 0 
L 37.796875 0 
L 37.796875 17.1875 
L 4.890625 17.1875 
L 4.890625 26.703125 
z
" id="DejaVuSans-34"/>
      </defs>
      <g transform="translate(131.684623 303.028562)scale(0.1 -0.1)">
       <use xlink:href="#DejaVuSans-34"/>
       <use x="63.623047" xlink:href="#DejaVuSans-30"/>
       <use x="127.246094" xlink:href="#DejaVuSans-30"/>
      </g>
     </g>
    </g>
    <g id="xtick_4">
     <g id="line2d_4">
      <g>
       <use style="stroke:#000000;stroke-width:0.8;" x="181.83557" xlink:href="#md96a32858c" y="288.430125"/>
      </g>
     </g>
     <g id="text_4">
      <!-- 600 -->
      <defs>
       <path d="M 33.015625 40.375 
Q 26.375 40.375 22.484375 35.828125 
Q 18.609375 31.296875 18.609375 23.390625 
Q 18.609375 15.53125 22.484375 10.953125 
Q 26.375 6.390625 33.015625 6.390625 
Q 39.65625 6.390625 43.53125 10.953125 
Q 47.40625 15.53125 47.40625 23.390625 
Q 47.40625 31.296875 43.53125 35.828125 
Q 39.65625 40.375 33.015625 40.375 
z
M 52.59375 71.296875 
L 52.59375 62.3125 
Q 48.875 64.0625 45.09375 64.984375 
Q 41.3125 65.921875 37.59375 65.921875 
Q 27.828125 65.921875 22.671875 59.328125 
Q 17.53125 52.734375 16.796875 39.40625 
Q 19.671875 43.65625 24.015625 45.921875 
Q 28.375 48.1875 33.59375 48.1875 
Q 44.578125 48.1875 50.953125 41.515625 
Q 57.328125 34.859375 57.328125 23.390625 
Q 57.328125 12.15625 50.6875 5.359375 
Q 44.046875 -1.421875 33.015625 -1.421875 
Q 20.359375 -1.421875 13.671875 8.265625 
Q 6.984375 17.96875 6.984375 36.375 
Q 6.984375 53.65625 15.1875 63.9375 
Q 23.390625 74.21875 37.203125 74.21875 
Q 40.921875 74.21875 44.703125 73.484375 
Q 48.484375 72.75 52.59375 71.296875 
z
" id="DejaVuSans-36"/>
      </defs>
      <g transform="translate(172.29182 303.028562)scale(0.1 -0.1)">
       <use xlink:href="#DejaVuSans-36"/>
       <use x="63.623047" xlink:href="#DejaVuSans-30"/>
       <use x="127.246094" xlink:href="#DejaVuSans-30"/>
      </g>
     </g>
    </g>
    <g id="xtick_5">
     <g id="line2d_5">
      <g>
       <use style="stroke:#000000;stroke-width:0.8;" x="222.442768" xlink:href="#md96a32858c" y="288.430125"/>
      </g>
     </g>
     <g id="text_5">
      <!-- 800 -->
      <defs>
       <path d="M 31.78125 34.625 
Q 24.75 34.625 20.71875 30.859375 
Q 16.703125 27.09375 16.703125 20.515625 
Q 16.703125 13.921875 20.71875 10.15625 
Q 24.75 6.390625 31.78125 6.390625 
Q 38.8125 6.390625 42.859375 10.171875 
Q 46.921875 13.96875 46.921875 20.515625 
Q 46.921875 27.09375 42.890625 30.859375 
Q 38.875 34.625 31.78125 34.625 
z
M 21.921875 38.8125 
Q 15.578125 40.375 12.03125 44.71875 
Q 8.5 49.078125 8.5 55.328125 
Q 8.5 64.0625 14.71875 69.140625 
Q 20.953125 74.21875 31.78125 74.21875 
Q 42.671875 74.21875 48.875 69.140625 
Q 55.078125 64.0625 55.078125 55.328125 
Q 55.078125 49.078125 51.53125 44.71875 
Q 48 40.375 41.703125 38.8125 
Q 48.828125 37.15625 52.796875 32.3125 
Q 56.78125 27.484375 56.78125 20.515625 
Q 56.78125 9.90625 50.3125 4.234375 
Q 43.84375 -1.421875 31.78125 -1.421875 
Q 19.734375 -1.421875 13.25 4.234375 
Q 6.78125 9.90625 6.78125 20.515625 
Q 6.78125 27.484375 10.78125 32.3125 
Q 14.796875 37.15625 21.921875 38.8125 
z
M 18.3125 54.390625 
Q 18.3125 48.734375 21.84375 45.5625 
Q 25.390625 42.390625 31.78125 42.390625 
Q 38.140625 42.390625 41.71875 45.5625 
Q 45.3125 48.734375 45.3125 54.390625 
Q 45.3125 60.0625 41.71875 63.234375 
Q 38.140625 66.40625 31.78125 66.40625 
Q 25.390625 66.40625 21.84375 63.234375 
Q 18.3125 60.0625 18.3125 54.390625 
z
" id="DejaVuSans-38"/>
      </defs>
      <g transform="translate(212.899018 303.028562)scale(0.1 -0.1)">
       <use xlink:href="#DejaVuSans-38"/>
       <use x="63.623047" xlink:href="#DejaVuSans-30"/>
       <use x="127.246094" xlink:href="#DejaVuSans-30"/>
      </g>
     </g>
    </g>
    <g id="xtick_6">
     <g id="line2d_6">
      <g>
       <use style="stroke:#000000;stroke-width:0.8;" x="263.049966" xlink:href="#md96a32858c" y="288.430125"/>
      </g>
     </g>
     <g id="text_6">
      <!-- 1000 -->
      <defs>
       <path d="M 12.40625 8.296875 
L 28.515625 8.296875 
L 28.515625 63.921875 
L 10.984375 60.40625 
L 10.984375 69.390625 
L 28.421875 72.90625 
L 38.28125 72.90625 
L 38.28125 8.296875 
L 54.390625 8.296875 
L 54.390625 0 
L 12.40625 0 
z
" id="DejaVuSans-31"/>
      </defs>
      <g transform="translate(250.324966 303.028562)scale(0.1 -0.1)">
       <use xlink:href="#DejaVuSans-31"/>
       <use x="63.623047" xlink:href="#DejaVuSans-30"/>
       <use x="127.246094" xlink:href="#DejaVuSans-30"/>
       <use x="190.869141" xlink:href="#DejaVuSans-30"/>
      </g>
     </g>
    </g>
    <g id="xtick_7">
     <g id="line2d_7">
      <g>
       <use style="stroke:#000000;stroke-width:0.8;" x="303.657163" xlink:href="#md96a32858c" y="288.430125"/>
      </g>
     </g>
     <g id="text_7">
      <!-- 1200 -->
      <g transform="translate(290.932163 303.028562)scale(0.1 -0.1)">
       <use xlink:href="#DejaVuSans-31"/>
       <use x="63.623047" xlink:href="#DejaVuSans-32"/>
       <use x="127.246094" xlink:href="#DejaVuSans-30"/>
       <use x="190.869141" xlink:href="#DejaVuSans-30"/>
      </g>
     </g>
    </g>
    <g id="xtick_8">
     <g id="line2d_8">
      <g>
       <use style="stroke:#000000;stroke-width:0.8;" x="344.264361" xlink:href="#md96a32858c" y="288.430125"/>
      </g>
     </g>
     <g id="text_8">
      <!-- 1400 -->
      <g transform="translate(331.539361 303.028562)scale(0.1 -0.1)">
       <use xlink:href="#DejaVuSans-31"/>
       <use x="63.623047" xlink:href="#DejaVuSans-34"/>
       <use x="127.246094" xlink:href="#DejaVuSans-30"/>
       <use x="190.869141" xlink:href="#DejaVuSans-30"/>
      </g>
     </g>
    </g>
    <g id="xtick_9">
     <g id="line2d_9">
      <g>
       <use style="stroke:#000000;stroke-width:0.8;" x="384.871559" xlink:href="#md96a32858c" y="288.430125"/>
      </g>
     </g>
     <g id="text_9">
      <!-- 1600 -->
      <g transform="translate(372.146559 303.028562)scale(0.1 -0.1)">
       <use xlink:href="#DejaVuSans-31"/>
       <use x="63.623047" xlink:href="#DejaVuSans-36"/>
       <use x="127.246094" xlink:href="#DejaVuSans-30"/>
       <use x="190.869141" xlink:href="#DejaVuSans-30"/>
      </g>
     </g>
    </g>
    <g id="text_10">
     <!-- episode -->
     <defs>
      <path d="M 56.203125 29.59375 
L 56.203125 25.203125 
L 14.890625 25.203125 
Q 15.484375 15.921875 20.484375 11.0625 
Q 25.484375 6.203125 34.421875 6.203125 
Q 39.59375 6.203125 44.453125 7.46875 
Q 49.3125 8.734375 54.109375 11.28125 
L 54.109375 2.78125 
Q 49.265625 0.734375 44.1875 -0.34375 
Q 39.109375 -1.421875 33.890625 -1.421875 
Q 20.796875 -1.421875 13.15625 6.1875 
Q 5.515625 13.8125 5.515625 26.8125 
Q 5.515625 40.234375 12.765625 48.109375 
Q 20.015625 56 32.328125 56 
Q 43.359375 56 49.78125 48.890625 
Q 56.203125 41.796875 56.203125 29.59375 
z
M 47.21875 32.234375 
Q 47.125 39.59375 43.09375 43.984375 
Q 39.0625 48.390625 32.421875 48.390625 
Q 24.90625 48.390625 20.390625 44.140625 
Q 15.875 39.890625 15.1875 32.171875 
z
" id="DejaVuSans-65"/>
      <path d="M 18.109375 8.203125 
L 18.109375 -20.796875 
L 9.078125 -20.796875 
L 9.078125 54.6875 
L 18.109375 54.6875 
L 18.109375 46.390625 
Q 20.953125 51.265625 25.265625 53.625 
Q 29.59375 56 35.59375 56 
Q 45.5625 56 51.78125 48.09375 
Q 58.015625 40.1875 58.015625 27.296875 
Q 58.015625 14.40625 51.78125 6.484375 
Q 45.5625 -1.421875 35.59375 -1.421875 
Q 29.59375 -1.421875 25.265625 0.953125 
Q 20.953125 3.328125 18.109375 8.203125 
z
M 48.6875 27.296875 
Q 48.6875 37.203125 44.609375 42.84375 
Q 40.53125 48.484375 33.40625 48.484375 
Q 26.265625 48.484375 22.1875 42.84375 
Q 18.109375 37.203125 18.109375 27.296875 
Q 18.109375 17.390625 22.1875 11.75 
Q 26.265625 6.109375 33.40625 6.109375 
Q 40.53125 6.109375 44.609375 11.75 
Q 48.6875 17.390625 48.6875 27.296875 
z
" id="DejaVuSans-70"/>
      <path d="M 9.421875 54.6875 
L 18.40625 54.6875 
L 18.40625 0 
L 9.421875 0 
z
M 9.421875 75.984375 
L 18.40625 75.984375 
L 18.40625 64.59375 
L 9.421875 64.59375 
z
" id="DejaVuSans-69"/>
      <path d="M 44.28125 53.078125 
L 44.28125 44.578125 
Q 40.484375 46.53125 36.375 47.5 
Q 32.28125 48.484375 27.875 48.484375 
Q 21.1875 48.484375 17.84375 46.4375 
Q 14.5 44.390625 14.5 40.28125 
Q 14.5 37.15625 16.890625 35.375 
Q 19.28125 33.59375 26.515625 31.984375 
L 29.59375 31.296875 
Q 39.15625 29.25 43.1875 25.515625 
Q 47.21875 21.78125 47.21875 15.09375 
Q 47.21875 7.46875 41.1875 3.015625 
Q 35.15625 -1.421875 24.609375 -1.421875 
Q 20.21875 -1.421875 15.453125 -0.5625 
Q 10.6875 0.296875 5.421875 2 
L 5.421875 11.28125 
Q 10.40625 8.6875 15.234375 7.390625 
Q 20.0625 6.109375 24.8125 6.109375 
Q 31.15625 6.109375 34.5625 8.28125 
Q 37.984375 10.453125 37.984375 14.40625 
Q 37.984375 18.0625 35.515625 20.015625 
Q 33.0625 21.96875 24.703125 23.78125 
L 21.578125 24.515625 
Q 13.234375 26.265625 9.515625 29.90625 
Q 5.8125 33.546875 5.8125 39.890625 
Q 5.8125 47.609375 11.28125 51.796875 
Q 16.75 56 26.8125 56 
Q 31.78125 56 36.171875 55.265625 
Q 40.578125 54.546875 44.28125 53.078125 
z
" id="DejaVuSans-73"/>
      <path d="M 30.609375 48.390625 
Q 23.390625 48.390625 19.1875 42.75 
Q 14.984375 37.109375 14.984375 27.296875 
Q 14.984375 17.484375 19.15625 11.84375 
Q 23.34375 6.203125 30.609375 6.203125 
Q 37.796875 6.203125 41.984375 11.859375 
Q 46.1875 17.53125 46.1875 27.296875 
Q 46.1875 37.015625 41.984375 42.703125 
Q 37.796875 48.390625 30.609375 48.390625 
z
M 30.609375 56 
Q 42.328125 56 49.015625 48.375 
Q 55.71875 40.765625 55.71875 27.296875 
Q 55.71875 13.875 49.015625 6.21875 
Q 42.328125 -1.421875 30.609375 -1.421875 
Q 18.84375 -1.421875 12.171875 6.21875 
Q 5.515625 13.875 5.515625 27.296875 
Q 5.515625 40.765625 12.171875 48.375 
Q 18.84375 56 30.609375 56 
z
" id="DejaVuSans-6f"/>
      <path d="M 45.40625 46.390625 
L 45.40625 75.984375 
L 54.390625 75.984375 
L 54.390625 0 
L 45.40625 0 
L 45.40625 8.203125 
Q 42.578125 3.328125 38.25 0.953125 
Q 33.9375 -1.421875 27.875 -1.421875 
Q 17.96875 -1.421875 11.734375 6.484375 
Q 5.515625 14.40625 5.515625 27.296875 
Q 5.515625 40.1875 11.734375 48.09375 
Q 17.96875 56 27.875 56 
Q 33.9375 56 38.25 53.625 
Q 42.578125 51.265625 45.40625 46.390625 
z
M 14.796875 27.296875 
Q 14.796875 17.390625 18.875 11.75 
Q 22.953125 6.109375 30.078125 6.109375 
Q 37.203125 6.109375 41.296875 11.75 
Q 45.40625 17.390625 45.40625 27.296875 
Q 45.40625 37.203125 41.296875 42.84375 
Q 37.203125 48.484375 30.078125 48.484375 
Q 22.953125 48.484375 18.875 42.84375 
Q 14.796875 37.203125 14.796875 27.296875 
z
" id="DejaVuSans-64"/>
     </defs>
     <g transform="translate(202.786563 316.706687)scale(0.1 -0.1)">
      <use xlink:href="#DejaVuSans-65"/>
      <use x="61.523438" xlink:href="#DejaVuSans-70"/>
      <use x="125" xlink:href="#DejaVuSans-69"/>
      <use x="152.783203" xlink:href="#DejaVuSans-73"/>
      <use x="204.882812" xlink:href="#DejaVuSans-6f"/>
      <use x="266.064453" xlink:href="#DejaVuSans-64"/>
      <use x="329.541016" xlink:href="#DejaVuSans-65"/>
     </g>
    </g>
   </g>
   <g id="matplotlib.axis_2">
    <g id="ytick_1">
     <g id="line2d_10">
      <defs>
       <path d="M 0 0 
L -3.5 0 
" id="mdc0d4ad34e" style="stroke:#000000;stroke-width:0.8;"/>
      </defs>
      <g>
       <use style="stroke:#000000;stroke-width:0.8;" x="43.78125" xlink:href="#mdc0d4ad34e" y="273.045657"/>
      </g>
     </g>
     <g id="text_11">
      <!-- 0.2 -->
      <defs>
       <path d="M 10.6875 12.40625 
L 21 12.40625 
L 21 0 
L 10.6875 0 
z
" id="DejaVuSans-2e"/>
      </defs>
      <g transform="translate(20.878125 276.844876)scale(0.1 -0.1)">
       <use xlink:href="#DejaVuSans-30"/>
       <use x="63.623047" xlink:href="#DejaVuSans-2e"/>
       <use x="95.410156" xlink:href="#DejaVuSans-32"/>
      </g>
     </g>
    </g>
    <g id="ytick_2">
     <g id="line2d_11">
      <g>
       <use style="stroke:#000000;stroke-width:0.8;" x="43.78125" xlink:href="#mdc0d4ad34e" y="236.896835"/>
      </g>
     </g>
     <g id="text_12">
      <!-- 0.3 -->
      <defs>
       <path d="M 40.578125 39.3125 
Q 47.65625 37.796875 51.625 33 
Q 55.609375 28.21875 55.609375 21.1875 
Q 55.609375 10.40625 48.1875 4.484375 
Q 40.765625 -1.421875 27.09375 -1.421875 
Q 22.515625 -1.421875 17.65625 -0.515625 
Q 12.796875 0.390625 7.625 2.203125 
L 7.625 11.71875 
Q 11.71875 9.328125 16.59375 8.109375 
Q 21.484375 6.890625 26.8125 6.890625 
Q 36.078125 6.890625 40.9375 10.546875 
Q 45.796875 14.203125 45.796875 21.1875 
Q 45.796875 27.640625 41.28125 31.265625 
Q 36.765625 34.90625 28.71875 34.90625 
L 20.21875 34.90625 
L 20.21875 43.015625 
L 29.109375 43.015625 
Q 36.375 43.015625 40.234375 45.921875 
Q 44.09375 48.828125 44.09375 54.296875 
Q 44.09375 59.90625 40.109375 62.90625 
Q 36.140625 65.921875 28.71875 65.921875 
Q 24.65625 65.921875 20.015625 65.03125 
Q 15.375 64.15625 9.8125 62.3125 
L 9.8125 71.09375 
Q 15.4375 72.65625 20.34375 73.4375 
Q 25.25 74.21875 29.59375 74.21875 
Q 40.828125 74.21875 47.359375 69.109375 
Q 53.90625 64.015625 53.90625 55.328125 
Q 53.90625 49.265625 50.4375 45.09375 
Q 46.96875 40.921875 40.578125 39.3125 
z
" id="DejaVuSans-33"/>
      </defs>
      <g transform="translate(20.878125 240.696054)scale(0.1 -0.1)">
       <use xlink:href="#DejaVuSans-30"/>
       <use x="63.623047" xlink:href="#DejaVuSans-2e"/>
       <use x="95.410156" xlink:href="#DejaVuSans-33"/>
      </g>
     </g>
    </g>
    <g id="ytick_3">
     <g id="line2d_12">
      <g>
       <use style="stroke:#000000;stroke-width:0.8;" x="43.78125" xlink:href="#mdc0d4ad34e" y="200.748012"/>
      </g>
     </g>
     <g id="text_13">
      <!-- 0.4 -->
      <g transform="translate(20.878125 204.547231)scale(0.1 -0.1)">
       <use xlink:href="#DejaVuSans-30"/>
       <use x="63.623047" xlink:href="#DejaVuSans-2e"/>
       <use x="95.410156" xlink:href="#DejaVuSans-34"/>
      </g>
     </g>
    </g>
    <g id="ytick_4">
     <g id="line2d_13">
      <g>
       <use style="stroke:#000000;stroke-width:0.8;" x="43.78125" xlink:href="#mdc0d4ad34e" y="164.59919"/>
      </g>
     </g>
     <g id="text_14">
      <!-- 0.5 -->
      <defs>
       <path d="M 10.796875 72.90625 
L 49.515625 72.90625 
L 49.515625 64.59375 
L 19.828125 64.59375 
L 19.828125 46.734375 
Q 21.96875 47.46875 24.109375 47.828125 
Q 26.265625 48.1875 28.421875 48.1875 
Q 40.625 48.1875 47.75 41.5 
Q 54.890625 34.8125 54.890625 23.390625 
Q 54.890625 11.625 47.5625 5.09375 
Q 40.234375 -1.421875 26.90625 -1.421875 
Q 22.3125 -1.421875 17.546875 -0.640625 
Q 12.796875 0.140625 7.71875 1.703125 
L 7.71875 11.625 
Q 12.109375 9.234375 16.796875 8.0625 
Q 21.484375 6.890625 26.703125 6.890625 
Q 35.15625 6.890625 40.078125 11.328125 
Q 45.015625 15.765625 45.015625 23.390625 
Q 45.015625 31 40.078125 35.4375 
Q 35.15625 39.890625 26.703125 39.890625 
Q 22.75 39.890625 18.8125 39.015625 
Q 14.890625 38.140625 10.796875 36.28125 
z
" id="DejaVuSans-35"/>
      </defs>
      <g transform="translate(20.878125 168.398408)scale(0.1 -0.1)">
       <use xlink:href="#DejaVuSans-30"/>
       <use x="63.623047" xlink:href="#DejaVuSans-2e"/>
       <use x="95.410156" xlink:href="#DejaVuSans-35"/>
      </g>
     </g>
    </g>
    <g id="ytick_5">
     <g id="line2d_14">
      <g>
       <use style="stroke:#000000;stroke-width:0.8;" x="43.78125" xlink:href="#mdc0d4ad34e" y="128.450367"/>
      </g>
     </g>
     <g id="text_15">
      <!-- 0.6 -->
      <g transform="translate(20.878125 132.249586)scale(0.1 -0.1)">
       <use xlink:href="#DejaVuSans-30"/>
       <use x="63.623047" xlink:href="#DejaVuSans-2e"/>
       <use x="95.410156" xlink:href="#DejaVuSans-36"/>
      </g>
     </g>
    </g>
    <g id="ytick_6">
     <g id="line2d_15">
      <g>
       <use style="stroke:#000000;stroke-width:0.8;" x="43.78125" xlink:href="#mdc0d4ad34e" y="92.301544"/>
      </g>
     </g>
     <g id="text_16">
      <!-- 0.7 -->
      <defs>
       <path d="M 8.203125 72.90625 
L 55.078125 72.90625 
L 55.078125 68.703125 
L 28.609375 0 
L 18.3125 0 
L 43.21875 64.59375 
L 8.203125 64.59375 
z
" id="DejaVuSans-37"/>
      </defs>
      <g transform="translate(20.878125 96.100763)scale(0.1 -0.1)">
       <use xlink:href="#DejaVuSans-30"/>
       <use x="63.623047" xlink:href="#DejaVuSans-2e"/>
       <use x="95.410156" xlink:href="#DejaVuSans-37"/>
      </g>
     </g>
    </g>
    <g id="ytick_7">
     <g id="line2d_16">
      <g>
       <use style="stroke:#000000;stroke-width:0.8;" x="43.78125" xlink:href="#mdc0d4ad34e" y="56.152722"/>
      </g>
     </g>
     <g id="text_17">
      <!-- 0.8 -->
      <g transform="translate(20.878125 59.951941)scale(0.1 -0.1)">
       <use xlink:href="#DejaVuSans-30"/>
       <use x="63.623047" xlink:href="#DejaVuSans-2e"/>
       <use x="95.410156" xlink:href="#DejaVuSans-38"/>
      </g>
     </g>
    </g>
    <g id="text_18">
     <!-- average maxQ -->
     <defs>
      <path d="M 34.28125 27.484375 
Q 23.390625 27.484375 19.1875 25 
Q 14.984375 22.515625 14.984375 16.5 
Q 14.984375 11.71875 18.140625 8.90625 
Q 21.296875 6.109375 26.703125 6.109375 
Q 34.1875 6.109375 38.703125 11.40625 
Q 43.21875 16.703125 43.21875 25.484375 
L 43.21875 27.484375 
z
M 52.203125 31.203125 
L 52.203125 0 
L 43.21875 0 
L 43.21875 8.296875 
Q 40.140625 3.328125 35.546875 0.953125 
Q 30.953125 -1.421875 24.3125 -1.421875 
Q 15.921875 -1.421875 10.953125 3.296875 
Q 6 8.015625 6 15.921875 
Q 6 25.140625 12.171875 29.828125 
Q 18.359375 34.515625 30.609375 34.515625 
L 43.21875 34.515625 
L 43.21875 35.40625 
Q 43.21875 41.609375 39.140625 45 
Q 35.0625 48.390625 27.6875 48.390625 
Q 23 48.390625 18.546875 47.265625 
Q 14.109375 46.140625 10.015625 43.890625 
L 10.015625 52.203125 
Q 14.9375 54.109375 19.578125 55.046875 
Q 24.21875 56 28.609375 56 
Q 40.484375 56 46.34375 49.84375 
Q 52.203125 43.703125 52.203125 31.203125 
z
" id="DejaVuSans-61"/>
      <path d="M 2.984375 54.6875 
L 12.5 54.6875 
L 29.59375 8.796875 
L 46.6875 54.6875 
L 56.203125 54.6875 
L 35.6875 0 
L 23.484375 0 
z
" id="DejaVuSans-76"/>
      <path d="M 41.109375 46.296875 
Q 39.59375 47.171875 37.8125 47.578125 
Q 36.03125 48 33.890625 48 
Q 26.265625 48 22.1875 43.046875 
Q 18.109375 38.09375 18.109375 28.8125 
L 18.109375 0 
L 9.078125 0 
L 9.078125 54.6875 
L 18.109375 54.6875 
L 18.109375 46.1875 
Q 20.953125 51.171875 25.484375 53.578125 
Q 30.03125 56 36.53125 56 
Q 37.453125 56 38.578125 55.875 
Q 39.703125 55.765625 41.0625 55.515625 
z
" id="DejaVuSans-72"/>
      <path d="M 45.40625 27.984375 
Q 45.40625 37.75 41.375 43.109375 
Q 37.359375 48.484375 30.078125 48.484375 
Q 22.859375 48.484375 18.828125 43.109375 
Q 14.796875 37.75 14.796875 27.984375 
Q 14.796875 18.265625 18.828125 12.890625 
Q 22.859375 7.515625 30.078125 7.515625 
Q 37.359375 7.515625 41.375 12.890625 
Q 45.40625 18.265625 45.40625 27.984375 
z
M 54.390625 6.78125 
Q 54.390625 -7.171875 48.1875 -13.984375 
Q 42 -20.796875 29.203125 -20.796875 
Q 24.46875 -20.796875 20.265625 -20.09375 
Q 16.0625 -19.390625 12.109375 -17.921875 
L 12.109375 -9.1875 
Q 16.0625 -11.328125 19.921875 -12.34375 
Q 23.78125 -13.375 27.78125 -13.375 
Q 36.625 -13.375 41.015625 -8.765625 
Q 45.40625 -4.15625 45.40625 5.171875 
L 45.40625 9.625 
Q 42.625 4.78125 38.28125 2.390625 
Q 33.9375 0 27.875 0 
Q 17.828125 0 11.671875 7.65625 
Q 5.515625 15.328125 5.515625 27.984375 
Q 5.515625 40.671875 11.671875 48.328125 
Q 17.828125 56 27.875 56 
Q 33.9375 56 38.28125 53.609375 
Q 42.625 51.21875 45.40625 46.390625 
L 45.40625 54.6875 
L 54.390625 54.6875 
z
" id="DejaVuSans-67"/>
      <path id="DejaVuSans-20"/>
      <path d="M 52 44.1875 
Q 55.375 50.25 60.0625 53.125 
Q 64.75 56 71.09375 56 
Q 79.640625 56 84.28125 50.015625 
Q 88.921875 44.046875 88.921875 33.015625 
L 88.921875 0 
L 79.890625 0 
L 79.890625 32.71875 
Q 79.890625 40.578125 77.09375 44.375 
Q 74.3125 48.1875 68.609375 48.1875 
Q 61.625 48.1875 57.5625 43.546875 
Q 53.515625 38.921875 53.515625 30.90625 
L 53.515625 0 
L 44.484375 0 
L 44.484375 32.71875 
Q 44.484375 40.625 41.703125 44.40625 
Q 38.921875 48.1875 33.109375 48.1875 
Q 26.21875 48.1875 22.15625 43.53125 
Q 18.109375 38.875 18.109375 30.90625 
L 18.109375 0 
L 9.078125 0 
L 9.078125 54.6875 
L 18.109375 54.6875 
L 18.109375 46.1875 
Q 21.1875 51.21875 25.484375 53.609375 
Q 29.78125 56 35.6875 56 
Q 41.65625 56 45.828125 52.96875 
Q 50 49.953125 52 44.1875 
z
" id="DejaVuSans-6d"/>
      <path d="M 54.890625 54.6875 
L 35.109375 28.078125 
L 55.90625 0 
L 45.3125 0 
L 29.390625 21.484375 
L 13.484375 0 
L 2.875 0 
L 24.125 28.609375 
L 4.6875 54.6875 
L 15.28125 54.6875 
L 29.78125 35.203125 
L 44.28125 54.6875 
z
" id="DejaVuSans-78"/>
      <path d="M 39.40625 66.21875 
Q 28.65625 66.21875 22.328125 58.203125 
Q 16.015625 50.203125 16.015625 36.375 
Q 16.015625 22.609375 22.328125 14.59375 
Q 28.65625 6.59375 39.40625 6.59375 
Q 50.140625 6.59375 56.421875 14.59375 
Q 62.703125 22.609375 62.703125 36.375 
Q 62.703125 50.203125 56.421875 58.203125 
Q 50.140625 66.21875 39.40625 66.21875 
z
M 53.21875 1.3125 
L 66.21875 -12.890625 
L 54.296875 -12.890625 
L 43.5 -1.21875 
Q 41.890625 -1.3125 41.03125 -1.359375 
Q 40.1875 -1.421875 39.40625 -1.421875 
Q 24.03125 -1.421875 14.8125 8.859375 
Q 5.609375 19.140625 5.609375 36.375 
Q 5.609375 53.65625 14.8125 63.9375 
Q 24.03125 74.21875 39.40625 74.21875 
Q 54.734375 74.21875 63.90625 63.9375 
Q 73.09375 53.65625 73.09375 36.375 
Q 73.09375 23.6875 67.984375 14.640625 
Q 62.890625 5.609375 53.21875 1.3125 
z
" id="DejaVuSans-51"/>
     </defs>
     <g transform="translate(14.798438 192.263187)rotate(-90)scale(0.1 -0.1)">
      <use xlink:href="#DejaVuSans-61"/>
      <use x="61.279297" xlink:href="#DejaVuSans-76"/>
      <use x="120.458984" xlink:href="#DejaVuSans-65"/>
      <use x="181.982422" xlink:href="#DejaVuSans-72"/>
      <use x="223.095703" xlink:href="#DejaVuSans-61"/>
      <use x="284.375" xlink:href="#DejaVuSans-67"/>
      <use x="347.851562" xlink:href="#DejaVuSans-65"/>
      <use x="409.375" xlink:href="#DejaVuSans-20"/>
      <use x="441.162109" xlink:href="#DejaVuSans-6d"/>
      <use x="538.574219" xlink:href="#DejaVuSans-61"/>
      <use x="599.853516" xlink:href="#DejaVuSans-78"/>
      <use x="659.033203" xlink:href="#DejaVuSans-51"/>
     </g>
    </g>
   </g>
   <g id="line2d_17">
    <path clip-path="url(#p10881bcf2b)" d="M 60.013977 264.530321 
L 60.217013 244.845631 
L 60.420049 254.786863 
L 60.623085 253.180335 
L 60.826121 262.906855 
L 61.638265 252.106385 
L 61.841301 264.755383 
L 62.044337 254.27688 
L 62.247373 263.187395 
L 62.450409 264.337919 
L 62.653445 268.481951 
L 62.856481 267.875592 
L 63.262553 261.516305 
L 63.668625 270.881286 
L 63.871661 251.237714 
L 64.074697 252.649047 
L 64.277733 256.480639 
L 64.480769 267.091009 
L 64.683805 250.723032 
L 64.886841 259.645733 
L 65.089877 256.766562 
L 65.292913 258.09502 
L 65.495949 252.317171 
L 65.698985 255.166139 
L 65.902021 265.759424 
L 66.105057 257.104131 
L 66.308093 261.777386 
L 66.511129 248.434516 
L 66.714165 267.577917 
L 67.120237 262.625859 
L 67.323273 269.146472 
L 67.729345 265.47133 
L 67.932381 273.919001 
L 68.135417 256.635735 
L 68.338453 270.631766 
L 68.541489 256.230076 
L 68.744525 252.927689 
L 69.150597 264.47326 
L 69.353633 257.014275 
L 69.556669 267.54511 
L 69.759705 269.666026 
L 69.962741 264.875532 
L 70.165777 265.573696 
L 70.368813 258.612527 
L 70.571849 261.767694 
L 70.774885 247.845309 
L 70.977921 263.160732 
L 71.383993 265.882799 
L 71.790065 255.813503 
L 71.993101 271.49124 
L 72.196137 256.605074 
L 72.399173 268.455957 
L 72.602209 267.021835 
L 73.211317 253.417092 
L 73.414353 265.450032 
L 73.617388 262.675028 
L 73.820424 264.608753 
L 74.02346 259.424678 
L 74.226496 249.756148 
L 74.632568 259.083997 
L 74.835604 258.408543 
L 75.03864 249.049778 
L 75.444712 266.418714 
L 75.647748 258.323671 
L 75.850784 264.674016 
L 76.05382 258.050295 
L 76.459892 260.872057 
L 76.662928 254.042058 
L 76.865964 264.905392 
L 77.069 264.304442 
L 77.272036 268.654161 
L 77.475072 265.419086 
L 77.678108 254.162285 
L 78.08418 248.877941 
L 78.287216 269.453606 
L 78.490252 258.189639 
L 78.693288 253.460155 
L 78.896324 271.055296 
L 79.09936 255.721545 
L 79.302396 259.458483 
L 79.505432 266.705594 
L 79.708468 262.245724 
L 79.911504 250.136867 
L 80.11454 263.715717 
L 80.317576 261.070181 
L 80.520612 265.158253 
L 80.723648 262.194772 
L 80.926684 265.545378 
L 81.332756 260.940497 
L 81.535792 269.727221 
L 81.738828 254.783131 
L 81.941864 270.409411 
L 82.1449 270.58006 
L 82.347936 264.224685 
L 82.550972 261.801929 
L 82.754008 269.760114 
L 83.16008 264.105992 
L 83.363116 269.963411 
L 83.566152 264.164711 
L 83.769188 273.463512 
L 83.972224 276.334125 
L 84.17526 269.268298 
L 84.378296 272.210498 
L 84.581332 270.744675 
L 84.784368 257.71843 
L 84.987404 266.426034 
L 85.19044 265.655934 
L 85.393476 270.624235 
L 85.596512 271.440466 
L 85.799548 264.55566 
L 86.002584 271.915527 
L 86.408656 263.217056 
L 86.611692 263.426068 
L 86.814728 273.802858 
L 87.017764 265.765854 
L 87.2208 275.955366 
L 87.423836 256.331439 
L 87.626872 267.700883 
L 87.829908 269.61872 
L 88.032944 268.364313 
L 88.23598 270.961302 
L 88.439016 268.039287 
L 88.642052 268.755766 
L 88.845088 267.908682 
L 89.048124 266.1619 
L 89.25116 270.428653 
L 89.454196 263.91503 
L 89.657232 267.634309 
L 89.860268 266.045814 
L 90.26634 265.748932 
L 90.469376 266.437698 
L 90.672412 263.897768 
L 90.875448 265.257059 
L 91.078483 262.487269 
L 91.281519 264.834102 
L 91.484555 264.726051 
L 91.687591 267.350361 
L 91.890627 263.662491 
L 92.093663 262.659267 
L 92.296699 263.842041 
L 92.499735 262.519216 
L 92.702771 264.01902 
L 92.905807 261.413212 
L 93.108843 262.055805 
L 93.311879 261.642747 
L 93.514915 263.218246 
L 93.717951 262.919843 
L 93.920987 260.198624 
L 94.124023 263.545847 
L 94.327059 262.473869 
L 94.530095 257.212322 
L 94.733131 259.826861 
L 94.936167 265.7854 
L 95.545275 256.596009 
L 95.748311 256.20549 
L 95.951347 257.864447 
L 96.154383 258.180419 
L 96.357419 257.795051 
L 96.560455 257.759989 
L 96.763491 259.935356 
L 96.966527 256.134655 
L 97.169563 258.003179 
L 97.372599 255.333464 
L 97.778671 253.482393 
L 97.981707 254.543771 
L 98.387779 250.629847 
L 98.590815 254.051919 
L 98.996887 251.420084 
L 99.199923 251.277712 
L 99.402959 252.694787 
L 99.605995 248.791575 
L 99.809031 248.970328 
L 100.012067 251.143482 
L 100.215103 250.313688 
L 100.418139 250.131461 
L 100.621175 251.606937 
L 100.824211 247.58496 
L 101.027247 253.474338 
L 101.230283 249.685423 
L 101.433319 253.347077 
L 101.839391 242.785793 
L 102.042427 246.719386 
L 102.245463 240.829551 
L 102.448499 244.115825 
L 102.651535 245.113935 
L 102.854571 242.237097 
L 103.057607 243.742338 
L 103.260643 241.693192 
L 103.463679 237.672869 
L 103.666715 242.520826 
L 103.869751 240.047887 
L 104.072787 241.777982 
L 104.275823 244.50197 
L 104.478859 241.817142 
L 104.681895 237.324489 
L 104.884931 236.086211 
L 105.087967 237.716809 
L 105.291003 236.478613 
L 105.494039 238.310905 
L 105.697075 238.781897 
L 105.900111 236.682671 
L 106.103147 232.458588 
L 106.306183 236.686355 
L 106.509219 235.533168 
L 106.915291 232.388672 
L 107.118327 233.415048 
L 107.321363 233.353079 
L 107.524399 232.753863 
L 107.727435 234.466321 
L 107.930471 234.899427 
L 108.133507 228.325583 
L 108.336543 226.582754 
L 108.539579 223.818411 
L 108.742614 228.286341 
L 108.94565 229.027087 
L 109.148686 224.382691 
L 109.351722 229.904336 
L 109.554758 222.19036 
L 109.757794 224.903868 
L 109.96083 225.066686 
L 110.163866 223.430268 
L 110.366902 219.926434 
L 110.772974 222.698717 
L 110.97601 225.709405 
L 111.179046 215.320527 
L 111.585118 222.861929 
L 111.788154 217.56399 
L 111.99119 226.604473 
L 112.194226 219.617015 
L 112.397262 218.96024 
L 112.600298 217.403966 
L 112.803334 221.302776 
L 113.00637 219.90126 
L 113.209406 220.267293 
L 113.412442 215.969629 
L 113.615478 221.421129 
L 113.818514 221.13431 
L 114.02155 210.87766 
L 114.224586 214.508455 
L 114.427622 215.665637 
L 114.630658 215.133361 
L 114.833694 212.080321 
L 115.03673 216.30068 
L 115.239766 209.092622 
L 115.645838 215.15949 
L 115.848874 211.983367 
L 116.05191 204.594896 
L 116.254946 204.523278 
L 116.457982 213.177971 
L 116.864054 207.145329 
L 117.06709 206.047242 
L 117.270126 209.722248 
L 117.676198 200.993288 
L 117.879234 209.302621 
L 118.08227 203.273891 
L 118.285306 203.390352 
L 118.488342 201.47788 
L 118.691378 202.633107 
L 118.894414 202.062794 
L 119.09745 197.457893 
L 119.300486 208.206221 
L 119.503522 204.645244 
L 119.706558 198.908975 
L 119.909594 201.059954 
L 120.11263 194.958885 
L 120.315666 197.25737 
L 120.924774 193.385498 
L 121.12781 197.16318 
L 121.330846 192.743107 
L 121.533882 194.27026 
L 121.736918 196.69502 
L 121.939954 196.657405 
L 122.14299 191.836535 
L 122.346026 198.85552 
L 122.549062 200.800032 
L 122.752098 189.60522 
L 122.955134 192.857714 
L 123.15817 191.993639 
L 123.361206 187.956583 
L 123.564242 195.133194 
L 123.767278 190.334506 
L 123.970314 190.378523 
L 124.17335 191.364188 
L 124.376386 190.535468 
L 124.579422 190.743439 
L 124.782458 185.484161 
L 124.985494 191.727912 
L 125.18853 182.734895 
L 125.391566 181.735149 
L 125.594602 190.957721 
L 125.797638 183.138935 
L 126.000674 183.778028 
L 126.203709 187.243043 
L 126.406745 185.53176 
L 126.609781 185.452 
L 126.812817 190.997801 
L 127.015853 193.351684 
L 127.218889 184.134638 
L 127.421925 184.646468 
L 127.624961 180.72677 
L 127.827997 191.915025 
L 128.437105 183.235963 
L 128.640141 186.087504 
L 129.046213 182.299786 
L 129.249249 177.110394 
L 129.452285 182.868991 
L 129.655321 184.733187 
L 129.858357 184.115034 
L 130.061393 176.73402 
L 130.467465 179.800193 
L 130.670501 177.609994 
L 130.873537 178.470994 
L 131.076573 176.266436 
L 131.279609 178.072011 
L 131.482645 171.001855 
L 131.685681 183.209547 
L 132.091753 173.658369 
L 132.294789 172.911691 
L 132.497825 178.046398 
L 132.700861 171.741027 
L 132.903897 170.801777 
L 133.106933 171.233139 
L 133.309969 166.849106 
L 133.513005 167.304901 
L 133.716041 178.087407 
L 133.919077 173.898876 
L 134.122113 177.497361 
L 134.325149 171.373102 
L 134.528185 171.943873 
L 134.731221 178.237246 
L 134.934257 170.165057 
L 135.137293 166.912788 
L 135.340329 175.193102 
L 135.543365 173.625405 
L 135.746401 168.670642 
L 135.949437 167.998242 
L 136.152473 162.402809 
L 136.558545 167.67362 
L 136.964617 162.348723 
L 137.167653 169.592677 
L 137.370689 171.477335 
L 137.573725 161.272981 
L 137.776761 166.090435 
L 137.979797 167.433848 
L 138.182833 160.748599 
L 138.385869 162.377818 
L 138.588905 157.926613 
L 138.994977 164.611724 
L 139.198013 163.605986 
L 139.401049 164.43323 
L 139.604085 159.800783 
L 139.807121 167.179186 
L 140.010157 151.13449 
L 140.213193 170.4926 
L 140.416229 160.60884 
L 140.619265 166.550761 
L 140.822301 157.99823 
L 141.025337 166.215309 
L 141.228373 159.349305 
L 141.431409 159.18896 
L 141.634445 159.885166 
L 141.837481 162.519799 
L 142.040517 156.542622 
L 142.243553 153.861861 
L 142.446589 157.03434 
L 142.649625 151.901617 
L 142.852661 153.391216 
L 143.055697 160.127995 
L 143.258733 159.32041 
L 143.461769 151.274682 
L 143.664804 156.586304 
L 143.86784 155.3688 
L 144.273912 154.6475 
L 144.476948 157.948088 
L 144.679984 152.991676 
L 144.88302 154.026261 
L 145.086056 152.849438 
L 145.289092 154.525918 
L 145.492128 146.376764 
L 145.695164 152.9974 
L 145.8982 148.832445 
L 146.101236 154.694431 
L 146.304272 155.546708 
L 146.710344 137.833872 
L 146.91338 151.540729 
L 147.116416 151.610965 
L 147.522488 157.207512 
L 147.725524 146.356483 
L 147.92856 152.720829 
L 148.131596 146.091505 
L 148.334632 154.649559 
L 148.537668 138.764466 
L 148.740704 147.122201 
L 148.94374 143.805226 
L 149.146776 149.218645 
L 149.552848 145.558809 
L 149.755884 141.171764 
L 150.161956 149.801078 
L 150.568028 144.38547 
L 150.771064 143.229027 
L 150.9741 140.398588 
L 151.177136 148.143401 
L 151.380172 143.763595 
L 151.583208 142.366 
L 151.786244 142.770067 
L 151.98928 135.309973 
L 152.192316 156.280001 
L 152.395352 136.590276 
L 152.801424 143.66717 
L 153.00446 143.930725 
L 153.207496 149.823003 
L 153.410532 143.834128 
L 153.613568 148.736239 
L 153.816604 141.589773 
L 154.01964 143.435529 
L 154.222676 141.497678 
L 154.425712 136.719847 
L 154.831784 140.686151 
L 155.03482 129.29978 
L 155.237856 142.896482 
L 155.440892 143.162025 
L 155.643928 138.997518 
L 155.846964 139.180925 
L 156.05 136.193284 
L 156.253036 142.73152 
L 156.456072 145.17409 
L 156.862144 131.296711 
L 157.06518 141.037041 
L 157.268216 141.708843 
L 157.471252 139.465316 
L 157.674288 135.614398 
L 157.877324 142.106162 
L 158.08036 133.725887 
L 158.283396 138.106792 
L 158.486432 136.3777 
L 158.689468 131.913059 
L 158.892504 132.529111 
L 159.09554 139.269774 
L 159.298576 133.834332 
L 159.501612 144.816769 
L 159.704648 128.48874 
L 159.907684 135.571215 
L 160.11072 137.630458 
L 160.516792 120.310902 
L 160.719828 142.079188 
L 160.922864 141.20694 
L 161.125899 129.594967 
L 161.328935 128.729622 
L 161.531971 131.396955 
L 161.735007 138.926024 
L 161.938043 129.023586 
L 162.141079 131.772232 
L 162.344115 138.436644 
L 162.547151 127.694564 
L 162.953223 136.323239 
L 163.156259 128.236262 
L 163.359295 138.240325 
L 163.765367 130.540232 
L 163.968403 123.979876 
L 164.171439 129.168554 
L 164.374475 126.354194 
L 164.577511 129.815971 
L 164.780547 125.420197 
L 164.983583 131.693094 
L 165.186619 129.345195 
L 165.389655 136.068896 
L 165.592691 130.176202 
L 165.795727 135.596068 
L 165.998763 125.019016 
L 166.201799 136.740669 
L 166.404835 132.800542 
L 166.607871 125.893601 
L 166.810907 126.06437 
L 167.013943 124.368529 
L 167.216979 123.858733 
L 167.420015 131.183676 
L 167.623051 131.276812 
L 167.826087 126.212396 
L 168.029123 132.950221 
L 168.232159 116.386592 
L 168.435195 130.755495 
L 168.638231 135.465412 
L 168.841267 121.487007 
L 169.044303 124.695849 
L 169.247339 124.875151 
L 169.450375 119.987036 
L 169.856447 129.947628 
L 170.059483 116.172496 
L 170.262519 127.592332 
L 170.465555 114.119844 
L 170.871627 124.320946 
L 171.074663 117.307073 
L 171.277699 122.302694 
L 171.480735 124.167205 
L 171.683771 122.912834 
L 171.886807 115.604039 
L 172.292879 118.848963 
L 172.495915 127.509714 
L 172.698951 127.092511 
L 172.901987 120.512765 
L 173.105023 123.957749 
L 173.714131 119.477009 
L 173.917167 119.165409 
L 174.323239 119.212619 
L 174.729311 124.235971 
L 174.932347 115.126072 
L 175.135383 130.742951 
L 175.541455 116.503943 
L 175.744491 100.043732 
L 175.947527 116.449584 
L 176.150563 120.807735 
L 176.556635 109.048849 
L 176.759671 118.963576 
L 176.962707 113.926286 
L 177.165743 116.40151 
L 177.368779 120.623584 
L 177.571815 114.051518 
L 177.977887 118.243349 
L 178.180923 110.629035 
L 178.383959 110.613213 
L 178.586994 119.244931 
L 178.79003 121.603973 
L 178.993066 121.767139 
L 179.399138 107.459778 
L 179.602174 118.980547 
L 179.80521 108.891869 
L 180.008246 113.296078 
L 180.211282 121.796787 
L 180.617354 112.919859 
L 180.82039 118.06174 
L 181.023426 111.603313 
L 181.226462 111.117462 
L 181.429498 115.166609 
L 181.632534 114.311405 
L 181.83557 95.559414 
L 182.038606 119.297947 
L 182.241642 106.32669 
L 182.647714 117.622309 
L 182.85075 112.260519 
L 183.053786 111.23663 
L 183.256822 111.144162 
L 183.459858 106.775472 
L 183.662894 115.364658 
L 183.86593 106.431092 
L 184.068966 103.902838 
L 184.272002 114.656055 
L 184.475038 117.989825 
L 184.88111 112.499365 
L 185.084146 115.482958 
L 185.490218 110.538836 
L 185.693254 108.563199 
L 185.89629 92.161753 
L 186.099326 112.439386 
L 186.302362 112.242277 
L 186.505398 110.712057 
L 186.708434 104.056385 
L 187.114506 113.969299 
L 187.317542 109.68433 
L 187.520578 96.413721 
L 187.723614 110.767772 
L 187.92665 101.416028 
L 188.129686 103.522981 
L 188.332722 101.386128 
L 188.535758 105.287605 
L 188.738794 104.282658 
L 188.94183 101.467555 
L 189.144866 108.872186 
L 189.347902 111.826364 
L 189.550938 110.291411 
L 189.95701 101.752706 
L 190.160046 113.303792 
L 190.363082 96.070257 
L 190.566118 106.634132 
L 190.769154 104.191662 
L 190.97219 99.24292 
L 191.175226 100.140945 
L 191.378262 103.564039 
L 191.581298 103.97841 
L 191.98737 112.13734 
L 192.190406 104.784594 
L 192.393442 101.9453 
L 192.596478 104.516352 
L 192.799514 98.467257 
L 193.00255 110.870445 
L 193.205586 104.206903 
L 193.408622 104.117914 
L 193.611658 108.99499 
L 193.814694 105.457445 
L 194.01773 111.05365 
L 194.220766 97.200835 
L 194.626838 106.897156 
L 194.829874 106.13681 
L 195.03291 97.57803 
L 195.235946 101.543347 
L 195.438982 96.430691 
L 195.642018 105.898177 
L 195.845054 98.929721 
L 196.04809 99.727263 
L 196.251125 97.696235 
L 196.454161 92.968655 
L 196.657197 99.157459 
L 196.860233 98.072349 
L 197.266305 102.766545 
L 197.469341 99.787368 
L 197.672377 104.638185 
L 197.875413 103.435411 
L 198.078449 103.808056 
L 198.281485 105.646658 
L 198.484521 100.154591 
L 198.687557 104.141362 
L 198.890593 101.208562 
L 199.093629 91.772142 
L 199.702737 105.685548 
L 199.905773 94.502711 
L 200.514881 107.852851 
L 200.920953 99.02202 
L 201.123989 106.197378 
L 201.327025 95.202713 
L 201.530061 104.016755 
L 201.733097 102.660844 
L 201.936133 93.389156 
L 202.139169 101.147664 
L 202.342205 102.826341 
L 202.545241 97.259619 
L 202.748277 102.065296 
L 203.154349 98.678949 
L 203.357385 102.345576 
L 203.560421 77.38087 
L 203.966493 101.760924 
L 204.169529 87.444037 
L 204.372565 104.123146 
L 204.778637 91.848338 
L 204.981673 93.635898 
L 205.184709 100.514933 
L 205.387745 96.155372 
L 205.590781 98.808562 
L 205.793817 99.334775 
L 205.996853 97.271787 
L 206.199889 110.023458 
L 206.402925 94.565254 
L 206.808997 99.360156 
L 207.215069 94.528303 
L 207.418105 93.566886 
L 207.621141 93.765065 
L 207.824177 102.505151 
L 208.027213 102.784891 
L 208.230249 97.895192 
L 208.433285 96.046736 
L 208.636321 104.53083 
L 208.839357 96.551153 
L 209.042393 95.984573 
L 209.245429 93.216809 
L 209.448465 101.519637 
L 209.854537 92.622041 
L 210.057573 89.544229 
L 210.260609 94.820552 
L 210.463645 91.433731 
L 210.666681 96.69055 
L 210.869717 93.609278 
L 211.072753 99.365509 
L 211.275789 86.703398 
L 211.478825 86.228006 
L 211.681861 100.102449 
L 211.884897 83.70671 
L 212.290969 95.519648 
L 212.494005 86.809096 
L 212.697041 83.653536 
L 213.306149 93.692335 
L 213.509185 90.976534 
L 213.71222 90.596288 
L 213.915256 88.447237 
L 214.118292 99.847133 
L 214.321328 93.306728 
L 214.524364 92.766877 
L 214.7274 79.787575 
L 214.930436 74.840407 
L 215.133472 88.517177 
L 215.336508 86.669835 
L 215.539544 94.172646 
L 215.74258 92.812258 
L 215.945616 94.174086 
L 216.351688 85.024329 
L 216.554724 90.248356 
L 216.75776 91.900683 
L 216.960796 92.502905 
L 217.163832 78.969513 
L 217.366868 85.778904 
L 217.569904 72.115766 
L 217.975976 94.164414 
L 218.179012 87.211679 
L 218.382048 89.74722 
L 218.585084 89.970242 
L 218.78812 86.653321 
L 218.991156 87.730241 
L 219.194192 86.724827 
L 219.397228 82.588006 
L 219.600264 95.974772 
L 219.8033 88.337977 
L 220.006336 93.040349 
L 220.209372 102.334885 
L 220.412408 91.769356 
L 220.615444 93.294545 
L 220.81848 90.922549 
L 221.021516 83.630337 
L 221.630624 91.656821 
L 221.83366 82.616135 
L 222.036696 81.060092 
L 222.239732 87.042546 
L 222.442768 87.539579 
L 222.645804 77.771515 
L 222.84884 84.99408 
L 223.051876 79.080726 
L 223.254912 86.800562 
L 223.457948 81.407849 
L 223.660984 83.231515 
L 223.86402 87.790115 
L 224.270092 84.439954 
L 224.473128 90.632302 
L 224.676164 91.781575 
L 224.8792 84.376882 
L 225.082236 87.308049 
L 225.285272 79.103992 
L 225.488308 90.377511 
L 225.691344 90.680122 
L 225.89438 91.939064 
L 226.097416 84.979649 
L 226.300452 84.841706 
L 226.503488 90.686317 
L 226.706524 88.546918 
L 226.90956 78.732819 
L 227.315632 85.767498 
L 227.518668 82.659559 
L 227.721704 85.188024 
L 228.127776 81.477986 
L 228.330812 83.504745 
L 228.533848 89.803207 
L 228.736884 88.280625 
L 228.93992 87.995478 
L 229.142956 86.926382 
L 229.345992 81.581029 
L 229.549028 80.03455 
L 229.752064 90.633245 
L 229.9551 83.533871 
L 230.158136 86.056963 
L 230.361172 83.159205 
L 230.564208 89.957625 
L 230.97028 76.60992 
L 231.173315 84.860752 
L 231.376351 84.713247 
L 231.579387 88.030402 
L 231.782423 83.078591 
L 231.985459 82.948454 
L 232.188495 82.235495 
L 232.391531 80.818835 
L 232.594567 83.174498 
L 232.797603 83.414632 
L 233.000639 82.472999 
L 233.203675 94.15839 
L 233.406711 81.640632 
L 233.609747 83.207789 
L 233.812783 78.710788 
L 234.015819 85.869778 
L 234.218855 77.591086 
L 234.421891 85.084468 
L 234.624927 83.651995 
L 234.827963 78.295071 
L 235.030999 79.473603 
L 235.234035 81.603787 
L 235.437071 76.500798 
L 235.640107 87.431687 
L 236.046179 83.017449 
L 236.249215 84.652802 
L 236.452251 80.421671 
L 236.655287 73.860753 
L 236.858323 83.126283 
L 237.061359 77.409177 
L 237.264395 82.647808 
L 237.467431 81.684806 
L 237.670467 76.350558 
L 237.873503 89.633386 
L 238.279575 74.468324 
L 238.482611 75.648258 
L 238.685647 81.80944 
L 238.888683 79.270599 
L 239.091719 78.69825 
L 239.294755 74.220006 
L 239.700827 87.699676 
L 240.106899 76.251841 
L 240.309935 69.090782 
L 240.716007 85.999382 
L 241.325115 70.723368 
L 241.528151 82.980452 
L 241.731187 85.257284 
L 241.934223 77.261655 
L 242.340295 69.969119 
L 242.543331 72.38149 
L 242.746367 81.281848 
L 242.949403 80.094437 
L 243.152439 86.066322 
L 243.355475 75.123617 
L 243.761547 82.630209 
L 244.370655 73.560443 
L 244.573691 67.830932 
L 244.776727 74.9744 
L 244.979763 78.125301 
L 245.182799 77.541085 
L 245.385835 84.03486 
L 245.588871 79.09368 
L 245.791907 80.770959 
L 245.994943 78.39844 
L 246.197979 80.37218 
L 246.401015 80.099648 
L 246.604051 76.563298 
L 246.807087 83.731961 
L 247.010123 79.366101 
L 247.213159 78.55521 
L 247.416195 81.78972 
L 247.619231 82.062588 
L 248.025303 54.76452 
L 248.228339 82.608832 
L 248.431375 81.061985 
L 248.63441 74.324837 
L 249.040482 82.413901 
L 249.446554 79.30122 
L 249.64959 79.21481 
L 249.852626 80.754904 
L 250.055662 73.362729 
L 250.258698 79.661254 
L 250.461734 81.982202 
L 250.66477 67.755839 
L 251.070842 83.91695 
L 251.273878 71.034452 
L 251.476914 67.233483 
L 251.882986 81.711388 
L 252.086022 81.706448 
L 252.492094 74.984207 
L 252.69513 73.27851 
L 252.898166 77.518746 
L 253.101202 74.146343 
L 253.507274 80.144942 
L 253.71031 84.991156 
L 254.116382 76.005223 
L 254.319418 78.329489 
L 254.522454 77.126097 
L 254.72549 80.160769 
L 254.928526 75.134416 
L 255.131562 75.495365 
L 255.334598 68.284347 
L 255.537634 81.42287 
L 255.74067 70.591558 
L 255.943706 74.648642 
L 256.146742 75.637087 
L 256.349778 77.95276 
L 256.552814 78.111824 
L 256.75585 71.104465 
L 256.958886 74.102318 
L 257.161922 66.099025 
L 257.364958 73.505934 
L 257.567994 72.433602 
L 257.77103 76.446723 
L 257.974066 66.761553 
L 258.177102 65.039687 
L 258.380138 78.381953 
L 258.583174 78.811739 
L 258.78621 78.526399 
L 258.989246 83.678368 
L 259.395318 70.165133 
L 259.598354 76.832738 
L 260.004426 67.983669 
L 260.410498 73.049928 
L 260.613534 75.798677 
L 261.019606 71.665912 
L 261.425678 74.495079 
L 261.628714 77.756137 
L 261.83175 84.136911 
L 262.034786 67.236145 
L 262.237822 73.252624 
L 262.440858 72.910171 
L 262.643894 71.178772 
L 262.84693 76.747995 
L 263.253002 70.097089 
L 263.456038 72.096768 
L 263.659074 71.896363 
L 263.86211 66.275197 
L 264.065146 74.942871 
L 264.268182 92.183444 
L 264.471218 70.104433 
L 264.674254 76.757896 
L 265.080326 64.425034 
L 265.283362 70.187671 
L 265.486398 72.096887 
L 265.689434 72.359342 
L 266.095506 69.344632 
L 266.298541 63.59448 
L 266.501577 62.398672 
L 266.704613 68.597858 
L 266.907649 65.056141 
L 267.110685 74.861478 
L 267.313721 64.479102 
L 267.719793 67.614837 
L 267.922829 70.379053 
L 268.125865 68.620562 
L 268.328901 65.175125 
L 268.531937 68.629652 
L 268.734973 68.944934 
L 269.141045 81.364738 
L 269.344081 59.359047 
L 269.547117 86.635086 
L 269.750153 66.999349 
L 269.953189 67.590682 
L 270.156225 63.592062 
L 270.359261 77.574605 
L 270.765333 60.593925 
L 270.968369 73.601017 
L 271.171405 74.624212 
L 271.374441 74.802338 
L 271.577477 73.308002 
L 271.780513 74.731692 
L 271.983549 67.534209 
L 272.186585 66.21227 
L 272.389621 73.831293 
L 272.592657 64.787271 
L 272.795693 67.57231 
L 272.998729 63.480632 
L 273.201765 68.876202 
L 273.607837 71.583436 
L 273.810873 69.251248 
L 274.013909 84.784318 
L 274.216945 70.803076 
L 274.623017 63.01176 
L 274.826053 67.603964 
L 275.029089 62.316299 
L 275.232125 75.574122 
L 275.435161 77.742614 
L 275.841233 62.590485 
L 276.044269 64.643511 
L 276.247305 68.136803 
L 276.450341 65.842592 
L 276.653377 69.886963 
L 276.856413 66.458591 
L 277.059449 67.066251 
L 277.262485 76.253336 
L 277.668557 71.568132 
L 277.871593 75.798983 
L 278.074629 62.184263 
L 278.277665 66.767993 
L 278.480701 67.800389 
L 278.683737 67.709747 
L 279.089809 65.162346 
L 279.292845 65.871791 
L 279.495881 70.832252 
L 279.698917 70.727514 
L 279.901953 75.47787 
L 280.104989 60.960834 
L 280.308025 69.02998 
L 280.511061 58.204795 
L 280.714097 60.915938 
L 281.120169 76.291205 
L 281.323205 71.008321 
L 281.526241 60.215387 
L 281.932313 62.688029 
L 282.338385 84.860467 
L 282.541421 63.924918 
L 282.744457 59.678636 
L 282.947493 68.656456 
L 283.150529 63.722079 
L 283.353565 68.099542 
L 283.556601 53.667445 
L 283.759636 70.234829 
L 283.962672 75.161401 
L 284.165708 63.667418 
L 284.368744 62.095055 
L 284.57178 65.041787 
L 284.774816 75.046009 
L 284.977852 64.070281 
L 285.180888 74.215268 
L 285.383924 65.692429 
L 285.58696 76.245645 
L 285.789996 64.879398 
L 285.993032 60.462484 
L 286.196068 61.124885 
L 286.60214 71.216315 
L 287.008212 65.048757 
L 287.211248 75.084185 
L 287.414284 71.879137 
L 287.61732 73.18452 
L 287.820356 59.512495 
L 288.023392 71.593625 
L 288.226428 67.982695 
L 288.429464 80.717856 
L 288.6325 62.331814 
L 288.835536 68.645777 
L 289.038572 63.12535 
L 289.241608 67.251219 
L 289.444644 56.129826 
L 289.850716 71.28188 
L 290.256788 63.262965 
L 290.459824 78.138143 
L 290.66286 61.815531 
L 290.865896 64.051968 
L 291.068932 63.103094 
L 291.271968 67.199927 
L 291.475004 61.650702 
L 291.67804 72.203056 
L 291.881076 63.566053 
L 292.084112 62.72487 
L 292.287148 81.284706 
L 292.490184 59.08393 
L 292.69322 74.414596 
L 292.896256 76.928693 
L 293.099292 75.177787 
L 293.302328 64.047391 
L 293.505364 64.571924 
L 293.911436 60.875533 
L 294.114472 72.974801 
L 294.317508 59.882805 
L 294.72358 70.251535 
L 294.926616 73.818445 
L 295.129652 58.997469 
L 295.332688 68.054356 
L 295.73876 60.231206 
L 296.144832 73.367182 
L 296.347868 72.198083 
L 296.550904 66.134503 
L 296.75394 67.313118 
L 296.956976 70.938136 
L 297.160012 62.21311 
L 297.363048 75.298936 
L 297.566084 58.782264 
L 297.76912 67.54009 
L 297.972156 66.282667 
L 298.175192 61.75579 
L 298.378228 65.686951 
L 298.581264 72.575591 
L 298.7843 70.313988 
L 298.987336 62.029728 
L 299.190372 62.286727 
L 299.393408 63.051769 
L 299.596444 64.676977 
L 299.79948 68.823233 
L 300.205552 60.301256 
L 300.408588 64.418506 
L 300.81466 67.576197 
L 301.017696 70.171238 
L 301.220731 64.26873 
L 301.423767 64.629555 
L 301.626803 69.958757 
L 301.829839 59.649499 
L 302.032875 57.692061 
L 302.235911 67.329699 
L 302.438947 65.12099 
L 302.641983 61.529797 
L 302.845019 69.037374 
L 303.048055 63.022861 
L 303.251091 61.570412 
L 303.454127 61.989874 
L 303.657163 62.132661 
L 303.860199 58.425105 
L 304.063235 71.116131 
L 304.266271 70.997234 
L 304.469307 57.416544 
L 304.672343 54.222828 
L 305.078415 62.207107 
L 305.281451 57.47792 
L 305.687523 72.103941 
L 306.296631 58.559154 
L 306.499667 59.426864 
L 306.905739 65.624828 
L 307.108775 74.034206 
L 307.311811 64.992858 
L 307.514847 60.907615 
L 307.717883 59.991605 
L 307.920919 53.800022 
L 308.123955 62.323177 
L 308.326991 58.254195 
L 308.530027 56.526184 
L 308.936099 63.959822 
L 309.139135 58.956115 
L 309.342171 61.091262 
L 309.748243 56.645634 
L 309.951279 60.167561 
L 310.154315 57.708479 
L 310.357351 61.369929 
L 310.560387 62.389758 
L 310.763423 57.10168 
L 310.966459 63.161258 
L 311.169495 63.533418 
L 311.372531 59.851936 
L 311.575567 63.416515 
L 311.778603 53.551892 
L 312.184675 63.178729 
L 312.387711 60.997124 
L 312.590747 64.112538 
L 312.793783 64.501801 
L 312.996819 54.175753 
L 313.199855 56.973364 
L 313.402891 57.475665 
L 313.605927 66.604485 
L 313.808963 58.429822 
L 314.011999 63.887656 
L 314.215035 59.256084 
L 314.418071 71.006297 
L 314.621107 61.558218 
L 314.824143 60.386892 
L 315.027179 54.253056 
L 315.230215 56.448707 
L 315.433251 57.41115 
L 315.636287 64.276726 
L 315.839323 62.406576 
L 316.042359 58.593078 
L 316.245395 64.60922 
L 316.448431 57.348043 
L 316.651467 60.937207 
L 316.854503 59.826296 
L 317.463611 67.344765 
L 317.666647 58.094733 
L 317.869683 65.735195 
L 318.072719 55.964947 
L 318.275755 64.968573 
L 318.478791 58.549257 
L 318.681826 63.129009 
L 318.884862 64.628235 
L 319.087898 60.568502 
L 319.290934 59.70557 
L 319.49397 52.567477 
L 319.697006 59.904105 
L 319.900042 59.73428 
L 320.103078 53.444082 
L 320.306114 61.883451 
L 320.50915 55.375269 
L 320.915222 58.769772 
L 321.118258 62.336948 
L 321.321294 56.138568 
L 321.52433 64.316294 
L 321.727366 59.343821 
L 321.930402 57.875533 
L 322.133438 63.752754 
L 322.336474 55.71057 
L 322.53951 55.65692 
L 322.945582 62.843912 
L 323.148618 62.104355 
L 323.351654 55.403894 
L 323.55469 59.547817 
L 323.757726 51.538649 
L 323.960762 60.905527 
L 324.163798 57.872382 
L 324.366834 47.725962 
L 324.56987 62.150823 
L 324.975942 53.804131 
L 325.178978 54.107511 
L 325.788086 66.177989 
L 326.194158 54.005417 
L 326.397194 59.183034 
L 326.60023 57.744095 
L 326.803266 61.120746 
L 327.006302 57.279913 
L 327.209338 57.669001 
L 327.412374 59.376243 
L 327.61541 65.597697 
L 327.818446 56.126753 
L 328.021482 63.046685 
L 328.224518 59.342765 
L 328.427554 53.180419 
L 328.63059 54.610515 
L 328.833626 62.48118 
L 329.036662 64.97761 
L 329.239698 56.997495 
L 329.442734 54.032081 
L 329.64577 60.599439 
L 329.848806 58.341213 
L 330.051842 58.707925 
L 330.254878 62.661249 
L 330.457914 54.082071 
L 330.66095 56.755074 
L 331.067022 53.903126 
L 331.473094 64.903671 
L 331.67613 54.191035 
L 331.879166 56.52274 
L 332.082202 60.583417 
L 332.285238 54.874545 
L 332.488274 58.177629 
L 332.69131 54.22014 
L 332.894346 58.542592 
L 333.097382 58.39143 
L 333.300418 57.91473 
L 333.503454 53.256988 
L 333.70649 56.343522 
L 334.112562 55.36118 
L 334.315598 55.895326 
L 334.518634 56.798689 
L 334.72167 58.536454 
L 335.127742 54.158398 
L 335.330778 56.953914 
L 335.533814 57.663358 
L 335.73685 52.826776 
L 335.939886 51.132414 
L 336.142921 58.386543 
L 336.345957 56.942174 
L 336.548993 45.632837 
L 336.752029 55.398723 
L 336.955065 53.806444 
L 337.361137 56.438841 
L 337.564173 49.377595 
L 337.767209 57.473467 
L 337.970245 56.243112 
L 338.376317 52.593649 
L 338.782389 58.723982 
L 338.985425 54.15579 
L 339.188461 52.54358 
L 339.391497 59.462644 
L 339.594533 50.253797 
L 339.797569 51.144766 
L 340.000605 56.534152 
L 340.203641 47.304937 
L 340.609713 59.096619 
L 340.812749 60.019439 
L 341.015785 53.349323 
L 341.218821 56.344454 
L 341.421857 48.734187 
L 341.827929 56.432901 
L 342.030965 55.386014 
L 342.234001 52.926463 
L 342.437037 57.831244 
L 342.640073 48.32262 
L 342.843109 57.47892 
L 343.046145 53.063499 
L 343.249181 57.147206 
L 343.452217 57.649531 
L 343.655253 57.013772 
L 343.858289 59.675966 
L 344.061325 55.488596 
L 344.264361 57.913504 
L 344.467397 53.649258 
L 344.670433 56.872581 
L 344.873469 51.415551 
L 345.076505 57.053439 
L 345.279541 53.339656 
L 345.482577 39.879578 
L 345.685613 52.737834 
L 345.888649 56.935489 
L 346.294721 51.299336 
L 346.497757 60.549312 
L 346.700793 53.626216 
L 346.903829 51.433275 
L 347.106865 50.629976 
L 347.309901 52.110839 
L 347.512937 46.307429 
L 347.715973 54.369441 
L 347.919009 50.643001 
L 348.122045 52.553493 
L 348.528117 51.236626 
L 348.731153 49.648318 
L 348.934189 56.710556 
L 349.137225 46.704624 
L 349.340261 45.791539 
L 349.543297 45.492822 
L 349.746333 51.259494 
L 349.949369 49.814166 
L 350.152405 54.472433 
L 350.355441 45.566731 
L 350.558477 57.079407 
L 350.761513 49.240195 
L 350.964549 51.633401 
L 351.167585 50.815562 
L 351.370621 55.589643 
L 351.573657 54.2104 
L 351.776693 50.066495 
L 351.979729 48.925155 
L 352.182765 49.958378 
L 352.385801 38.125407 
L 352.588837 49.611357 
L 352.791873 52.807806 
L 353.197945 49.564315 
L 353.604017 54.828816 
L 353.807052 41.384838 
L 354.010088 44.168418 
L 354.41616 55.727491 
L 354.619196 52.663212 
L 354.822232 53.573751 
L 355.025268 52.712797 
L 355.228304 52.883306 
L 355.43134 43.739236 
L 355.634376 52.872073 
L 355.837412 47.099792 
L 356.040448 49.950881 
L 356.243484 47.968461 
L 356.44652 52.904845 
L 356.649556 47.820639 
L 356.852592 50.297112 
L 357.055628 50.128074 
L 357.258664 53.279923 
L 357.4617 47.33841 
L 357.664736 49.051664 
L 357.867772 43.235622 
L 358.070808 50.627608 
L 358.273844 45.455193 
L 358.47688 46.877763 
L 358.679916 56.63221 
L 358.882952 49.723863 
L 359.085988 52.998123 
L 359.289024 52.404731 
L 359.49206 45.209347 
L 359.898132 49.189508 
L 360.101168 49.463717 
L 360.304204 50.594968 
L 360.50724 48.962552 
L 360.710276 51.599121 
L 360.913312 50.887612 
L 361.116348 51.278627 
L 361.319384 46.634259 
L 361.52242 50.796524 
L 361.725456 50.688964 
L 361.928492 39.632352 
L 362.131528 50.168435 
L 362.334564 44.411921 
L 362.740636 46.015199 
L 362.943672 50.057562 
L 363.146708 47.466774 
L 363.349744 46.82354 
L 363.55278 39.847265 
L 363.755816 51.914751 
L 363.958852 51.477854 
L 364.161888 48.57476 
L 364.364924 48.301027 
L 364.770996 46.900468 
L 365.177068 40.64256 
L 365.58314 51.294505 
L 365.786176 43.806171 
L 365.989212 47.313913 
L 366.192248 48.662944 
L 366.395284 50.909521 
L 366.59832 50.144909 
L 366.801356 50.976907 
L 367.004392 47.119927 
L 367.207428 49.246954 
L 367.410464 44.110329 
L 367.6135 46.373454 
L 368.019572 53.302945 
L 368.222608 51.084239 
L 368.425644 50.279144 
L 368.62868 44.90239 
L 368.831716 43.816983 
L 369.034752 51.922734 
L 369.237788 45.569499 
L 369.440824 50.358028 
L 369.64386 50.468327 
L 369.846896 45.840982 
L 370.252968 42.524167 
L 370.456004 51.016353 
L 370.65904 44.794508 
L 370.862076 42.380476 
L 371.065112 37.567474 
L 371.268147 51.14003 
L 371.471183 46.432941 
L 371.674219 52.329733 
L 371.877255 45.388351 
L 372.080291 46.171781 
L 372.283327 45.083861 
L 372.486363 42.171425 
L 372.689399 48.224675 
L 373.095471 36.518628 
L 373.298507 49.190952 
L 373.501543 45.895717 
L 373.704579 40.043599 
L 373.907615 47.246675 
L 374.313687 43.437574 
L 374.516723 45.954813 
L 374.719759 42.497236 
L 374.922795 43.592926 
L 375.125831 45.965448 
L 375.328867 51.111112 
L 375.531903 41.436487 
L 375.734939 50.847939 
L 376.141011 44.199641 
L 376.344047 46.276206 
L 376.547083 36.46169 
L 376.750119 47.270769 
L 377.156191 44.589948 
L 377.359227 48.39856 
L 377.562263 49.259903 
L 377.765299 48.838503 
L 377.968335 46.742802 
L 378.171371 46.168467 
L 378.374407 46.579802 
L 378.577443 41.993516 
L 378.780479 42.876227 
L 378.983515 38.20214 
L 379.186551 44.501247 
L 379.389587 43.510872 
L 379.592623 47.345804 
L 379.795659 43.5169 
L 379.998695 44.505914 
L 380.201731 47.706151 
L 380.404767 44.359453 
L 380.607803 38.689953 
L 380.810839 44.445532 
L 381.013875 45.198487 
L 381.216911 47.886482 
L 381.419947 47.487637 
L 381.622983 47.348479 
L 381.826019 47.959334 
L 382.029055 41.702492 
L 382.232091 47.855028 
L 382.435127 45.662382 
L 382.638163 48.265758 
L 382.841199 48.284456 
L 383.044235 45.302655 
L 383.247271 48.616991 
L 383.653343 44.588448 
L 383.856379 46.252252 
L 384.059415 45.661717 
L 384.262451 40.431328 
L 384.465487 43.603362 
L 384.668523 34.414125 
L 384.668523 34.414125 
" style="fill:none;stroke:#1f77b4;stroke-linecap:square;stroke-width:0.5;"/>
   </g>
   <g id="patch_3">
    <path d="M 43.78125 288.430125 
L 43.78125 22.318125 
" style="fill:none;stroke:#000000;stroke-linecap:square;stroke-linejoin:miter;stroke-width:0.8;"/>
   </g>
   <g id="patch_4">
    <path d="M 400.90125 288.430125 
L 400.90125 22.318125 
" style="fill:none;stroke:#000000;stroke-linecap:square;stroke-linejoin:miter;stroke-width:0.8;"/>
   </g>
   <g id="patch_5">
    <path d="M 43.78125 288.430125 
L 400.90125 288.430125 
" style="fill:none;stroke:#000000;stroke-linecap:square;stroke-linejoin:miter;stroke-width:0.8;"/>
   </g>
   <g id="patch_6">
    <path d="M 43.78125 22.318125 
L 400.90125 22.318125 
" style="fill:none;stroke:#000000;stroke-linecap:square;stroke-linejoin:miter;stroke-width:0.8;"/>
   </g>
   <g id="text_19">
    <!-- Average maxQ per episode, joint 4 -->
    <defs>
     <path d="M 34.1875 63.1875 
L 20.796875 26.90625 
L 47.609375 26.90625 
z
M 28.609375 72.90625 
L 39.796875 72.90625 
L 67.578125 0 
L 57.328125 0 
L 50.6875 18.703125 
L 17.828125 18.703125 
L 11.1875 0 
L 0.78125 0 
z
" id="DejaVuSans-41"/>
     <path d="M 11.71875 12.40625 
L 22.015625 12.40625 
L 22.015625 4 
L 14.015625 -11.625 
L 7.71875 -11.625 
L 11.71875 4 
z
" id="DejaVuSans-2c"/>
     <path d="M 9.421875 54.6875 
L 18.40625 54.6875 
L 18.40625 -0.984375 
Q 18.40625 -11.421875 14.421875 -16.109375 
Q 10.453125 -20.796875 1.609375 -20.796875 
L -1.8125 -20.796875 
L -1.8125 -13.1875 
L 0.59375 -13.1875 
Q 5.71875 -13.1875 7.5625 -10.8125 
Q 9.421875 -8.453125 9.421875 -0.984375 
z
M 9.421875 75.984375 
L 18.40625 75.984375 
L 18.40625 64.59375 
L 9.421875 64.59375 
z
" id="DejaVuSans-6a"/>
     <path d="M 54.890625 33.015625 
L 54.890625 0 
L 45.90625 0 
L 45.90625 32.71875 
Q 45.90625 40.484375 42.875 44.328125 
Q 39.84375 48.1875 33.796875 48.1875 
Q 26.515625 48.1875 22.3125 43.546875 
Q 18.109375 38.921875 18.109375 30.90625 
L 18.109375 0 
L 9.078125 0 
L 9.078125 54.6875 
L 18.109375 54.6875 
L 18.109375 46.1875 
Q 21.34375 51.125 25.703125 53.5625 
Q 30.078125 56 35.796875 56 
Q 45.21875 56 50.046875 50.171875 
Q 54.890625 44.34375 54.890625 33.015625 
z
" id="DejaVuSans-6e"/>
     <path d="M 18.3125 70.21875 
L 18.3125 54.6875 
L 36.8125 54.6875 
L 36.8125 47.703125 
L 18.3125 47.703125 
L 18.3125 18.015625 
Q 18.3125 11.328125 20.140625 9.421875 
Q 21.96875 7.515625 27.59375 7.515625 
L 36.8125 7.515625 
L 36.8125 0 
L 27.59375 0 
Q 17.1875 0 13.234375 3.875 
Q 9.28125 7.765625 9.28125 18.015625 
L 9.28125 47.703125 
L 2.6875 47.703125 
L 2.6875 54.6875 
L 9.28125 54.6875 
L 9.28125 70.21875 
z
" id="DejaVuSans-74"/>
    </defs>
    <g transform="translate(117.706875 16.318125)scale(0.12 -0.12)">
     <use xlink:href="#DejaVuSans-41"/>
     <use x="68.330078" xlink:href="#DejaVuSans-76"/>
     <use x="127.509766" xlink:href="#DejaVuSans-65"/>
     <use x="189.033203" xlink:href="#DejaVuSans-72"/>
     <use x="230.146484" xlink:href="#DejaVuSans-61"/>
     <use x="291.425781" xlink:href="#DejaVuSans-67"/>
     <use x="354.902344" xlink:href="#DejaVuSans-65"/>
     <use x="416.425781" xlink:href="#DejaVuSans-20"/>
     <use x="448.212891" xlink:href="#DejaVuSans-6d"/>
     <use x="545.625" xlink:href="#DejaVuSans-61"/>
     <use x="606.904297" xlink:href="#DejaVuSans-78"/>
     <use x="666.083984" xlink:href="#DejaVuSans-51"/>
     <use x="744.794922" xlink:href="#DejaVuSans-20"/>
     <use x="776.582031" xlink:href="#DejaVuSans-70"/>
     <use x="840.058594" xlink:href="#DejaVuSans-65"/>
     <use x="901.582031" xlink:href="#DejaVuSans-72"/>
     <use x="942.695312" xlink:href="#DejaVuSans-20"/>
     <use x="974.482422" xlink:href="#DejaVuSans-65"/>
     <use x="1036.005859" xlink:href="#DejaVuSans-70"/>
     <use x="1099.482422" xlink:href="#DejaVuSans-69"/>
     <use x="1127.265625" xlink:href="#DejaVuSans-73"/>
     <use x="1179.365234" xlink:href="#DejaVuSans-6f"/>
     <use x="1240.546875" xlink:href="#DejaVuSans-64"/>
     <use x="1304.023438" xlink:href="#DejaVuSans-65"/>
     <use x="1365.546875" xlink:href="#DejaVuSans-2c"/>
     <use x="1397.333984" xlink:href="#DejaVuSans-20"/>
     <use x="1429.121094" xlink:href="#DejaVuSans-6a"/>
     <use x="1456.904297" xlink:href="#DejaVuSans-6f"/>
     <use x="1518.085938" xlink:href="#DejaVuSans-69"/>
     <use x="1545.869141" xlink:href="#DejaVuSans-6e"/>
     <use x="1609.248047" xlink:href="#DejaVuSans-74"/>
     <use x="1648.457031" xlink:href="#DejaVuSans-20"/>
     <use x="1680.244141" xlink:href="#DejaVuSans-34"/>
    </g>
   </g>
  </g>
 </g>
 <defs>
  <clipPath id="p10881bcf2b">
   <rect height="266.112" width="357.12" x="43.78125" y="22.318125"/>
  </clipPath>
 </defs>
</svg>
