<?xml version="1.0" encoding="utf-8" standalone="no"?>
<!DOCTYPE svg PUBLIC "-//W3C//DTD SVG 1.1//EN"
  "http://www.w3.org/Graphics/SVG/1.1/DTD/svg11.dtd">
<!-- Created with matplotlib (http://matplotlib.org/) -->
<svg height="325pt" version="1.1" viewBox="0 0 417 325" width="417pt" xmlns="http://www.w3.org/2000/svg" xmlns:xlink="http://www.w3.org/1999/xlink">
 <defs>
  <style type="text/css">
*{stroke-linecap:butt;stroke-linejoin:round;}
  </style>
 </defs>
 <g id="figure_1">
  <g id="patch_1">
   <path d="M 0 325.986375 
L 417.96375 325.986375 
L 417.96375 0 
L 0 0 
z
" style="fill:#ffffff;"/>
  </g>
  <g id="axes_1">
   <g id="patch_2">
    <path d="M 50.14375 288.430125 
L 407.26375 288.430125 
L 407.26375 22.318125 
L 50.14375 22.318125 
z
" style="fill:#ffffff;"/>
   </g>
   <g id="matplotlib.axis_1">
    <g id="xtick_1">
     <g id="line2d_1">
      <defs>
       <path d="M 0 0 
L 0 3.5 
" id="mccc3531c02" style="stroke:#000000;stroke-width:0.8;"/>
      </defs>
      <g>
       <use style="stroke:#000000;stroke-width:0.8;" x="65.869205" xlink:href="#mccc3531c02" y="288.430125"/>
      </g>
     </g>
     <g id="text_1">
      <!-- 0 -->
      <defs>
       <path d="M 31.78125 66.40625 
Q 24.171875 66.40625 20.328125 58.90625 
Q 16.5 51.421875 16.5 36.375 
Q 16.5 21.390625 20.328125 13.890625 
Q 24.171875 6.390625 31.78125 6.390625 
Q 39.453125 6.390625 43.28125 13.890625 
Q 47.125 21.390625 47.125 36.375 
Q 47.125 51.421875 43.28125 58.90625 
Q 39.453125 66.40625 31.78125 66.40625 
z
M 31.78125 74.21875 
Q 44.046875 74.21875 50.515625 64.515625 
Q 56.984375 54.828125 56.984375 36.375 
Q 56.984375 17.96875 50.515625 8.265625 
Q 44.046875 -1.421875 31.78125 -1.421875 
Q 19.53125 -1.421875 13.0625 8.265625 
Q 6.59375 17.96875 6.59375 36.375 
Q 6.59375 54.828125 13.0625 64.515625 
Q 19.53125 74.21875 31.78125 74.21875 
z
" id="DejaVuSans-30"/>
      </defs>
      <g transform="translate(62.687955 303.028562)scale(0.1 -0.1)">
       <use xlink:href="#DejaVuSans-30"/>
      </g>
     </g>
    </g>
    <g id="xtick_2">
     <g id="line2d_2">
      <g>
       <use style="stroke:#000000;stroke-width:0.8;" x="116.596477" xlink:href="#mccc3531c02" y="288.430125"/>
      </g>
     </g>
     <g id="text_2">
      <!-- 100 -->
      <defs>
       <path d="M 12.40625 8.296875 
L 28.515625 8.296875 
L 28.515625 63.921875 
L 10.984375 60.40625 
L 10.984375 69.390625 
L 28.421875 72.90625 
L 38.28125 72.90625 
L 38.28125 8.296875 
L 54.390625 8.296875 
L 54.390625 0 
L 12.40625 0 
z
" id="DejaVuSans-31"/>
      </defs>
      <g transform="translate(107.052727 303.028562)scale(0.1 -0.1)">
       <use xlink:href="#DejaVuSans-31"/>
       <use x="63.623047" xlink:href="#DejaVuSans-30"/>
       <use x="127.246094" xlink:href="#DejaVuSans-30"/>
      </g>
     </g>
    </g>
    <g id="xtick_3">
     <g id="line2d_3">
      <g>
       <use style="stroke:#000000;stroke-width:0.8;" x="167.32375" xlink:href="#mccc3531c02" y="288.430125"/>
      </g>
     </g>
     <g id="text_3">
      <!-- 200 -->
      <defs>
       <path d="M 19.1875 8.296875 
L 53.609375 8.296875 
L 53.609375 0 
L 7.328125 0 
L 7.328125 8.296875 
Q 12.9375 14.109375 22.625 23.890625 
Q 32.328125 33.6875 34.8125 36.53125 
Q 39.546875 41.84375 41.421875 45.53125 
Q 43.3125 49.21875 43.3125 52.78125 
Q 43.3125 58.59375 39.234375 62.25 
Q 35.15625 65.921875 28.609375 65.921875 
Q 23.96875 65.921875 18.8125 64.3125 
Q 13.671875 62.703125 7.8125 59.421875 
L 7.8125 69.390625 
Q 13.765625 71.78125 18.9375 73 
Q 24.125 74.21875 28.421875 74.21875 
Q 39.75 74.21875 46.484375 68.546875 
Q 53.21875 62.890625 53.21875 53.421875 
Q 53.21875 48.921875 51.53125 44.890625 
Q 49.859375 40.875 45.40625 35.40625 
Q 44.1875 33.984375 37.640625 27.21875 
Q 31.109375 20.453125 19.1875 8.296875 
z
" id="DejaVuSans-32"/>
      </defs>
      <g transform="translate(157.78 303.028562)scale(0.1 -0.1)">
       <use xlink:href="#DejaVuSans-32"/>
       <use x="63.623047" xlink:href="#DejaVuSans-30"/>
       <use x="127.246094" xlink:href="#DejaVuSans-30"/>
      </g>
     </g>
    </g>
    <g id="xtick_4">
     <g id="line2d_4">
      <g>
       <use style="stroke:#000000;stroke-width:0.8;" x="218.051023" xlink:href="#mccc3531c02" y="288.430125"/>
      </g>
     </g>
     <g id="text_4">
      <!-- 300 -->
      <defs>
       <path d="M 40.578125 39.3125 
Q 47.65625 37.796875 51.625 33 
Q 55.609375 28.21875 55.609375 21.1875 
Q 55.609375 10.40625 48.1875 4.484375 
Q 40.765625 -1.421875 27.09375 -1.421875 
Q 22.515625 -1.421875 17.65625 -0.515625 
Q 12.796875 0.390625 7.625 2.203125 
L 7.625 11.71875 
Q 11.71875 9.328125 16.59375 8.109375 
Q 21.484375 6.890625 26.8125 6.890625 
Q 36.078125 6.890625 40.9375 10.546875 
Q 45.796875 14.203125 45.796875 21.1875 
Q 45.796875 27.640625 41.28125 31.265625 
Q 36.765625 34.90625 28.71875 34.90625 
L 20.21875 34.90625 
L 20.21875 43.015625 
L 29.109375 43.015625 
Q 36.375 43.015625 40.234375 45.921875 
Q 44.09375 48.828125 44.09375 54.296875 
Q 44.09375 59.90625 40.109375 62.90625 
Q 36.140625 65.921875 28.71875 65.921875 
Q 24.65625 65.921875 20.015625 65.03125 
Q 15.375 64.15625 9.8125 62.3125 
L 9.8125 71.09375 
Q 15.4375 72.65625 20.34375 73.4375 
Q 25.25 74.21875 29.59375 74.21875 
Q 40.828125 74.21875 47.359375 69.109375 
Q 53.90625 64.015625 53.90625 55.328125 
Q 53.90625 49.265625 50.4375 45.09375 
Q 46.96875 40.921875 40.578125 39.3125 
z
" id="DejaVuSans-33"/>
      </defs>
      <g transform="translate(208.507273 303.028562)scale(0.1 -0.1)">
       <use xlink:href="#DejaVuSans-33"/>
       <use x="63.623047" xlink:href="#DejaVuSans-30"/>
       <use x="127.246094" xlink:href="#DejaVuSans-30"/>
      </g>
     </g>
    </g>
    <g id="xtick_5">
     <g id="line2d_5">
      <g>
       <use style="stroke:#000000;stroke-width:0.8;" x="268.778295" xlink:href="#mccc3531c02" y="288.430125"/>
      </g>
     </g>
     <g id="text_5">
      <!-- 400 -->
      <defs>
       <path d="M 37.796875 64.3125 
L 12.890625 25.390625 
L 37.796875 25.390625 
z
M 35.203125 72.90625 
L 47.609375 72.90625 
L 47.609375 25.390625 
L 58.015625 25.390625 
L 58.015625 17.1875 
L 47.609375 17.1875 
L 47.609375 0 
L 37.796875 0 
L 37.796875 17.1875 
L 4.890625 17.1875 
L 4.890625 26.703125 
z
" id="DejaVuSans-34"/>
      </defs>
      <g transform="translate(259.234545 303.028562)scale(0.1 -0.1)">
       <use xlink:href="#DejaVuSans-34"/>
       <use x="63.623047" xlink:href="#DejaVuSans-30"/>
       <use x="127.246094" xlink:href="#DejaVuSans-30"/>
      </g>
     </g>
    </g>
    <g id="xtick_6">
     <g id="line2d_6">
      <g>
       <use style="stroke:#000000;stroke-width:0.8;" x="319.505568" xlink:href="#mccc3531c02" y="288.430125"/>
      </g>
     </g>
     <g id="text_6">
      <!-- 500 -->
      <defs>
       <path d="M 10.796875 72.90625 
L 49.515625 72.90625 
L 49.515625 64.59375 
L 19.828125 64.59375 
L 19.828125 46.734375 
Q 21.96875 47.46875 24.109375 47.828125 
Q 26.265625 48.1875 28.421875 48.1875 
Q 40.625 48.1875 47.75 41.5 
Q 54.890625 34.8125 54.890625 23.390625 
Q 54.890625 11.625 47.5625 5.09375 
Q 40.234375 -1.421875 26.90625 -1.421875 
Q 22.3125 -1.421875 17.546875 -0.640625 
Q 12.796875 0.140625 7.71875 1.703125 
L 7.71875 11.625 
Q 12.109375 9.234375 16.796875 8.0625 
Q 21.484375 6.890625 26.703125 6.890625 
Q 35.15625 6.890625 40.078125 11.328125 
Q 45.015625 15.765625 45.015625 23.390625 
Q 45.015625 31 40.078125 35.4375 
Q 35.15625 39.890625 26.703125 39.890625 
Q 22.75 39.890625 18.8125 39.015625 
Q 14.890625 38.140625 10.796875 36.28125 
z
" id="DejaVuSans-35"/>
      </defs>
      <g transform="translate(309.961818 303.028562)scale(0.1 -0.1)">
       <use xlink:href="#DejaVuSans-35"/>
       <use x="63.623047" xlink:href="#DejaVuSans-30"/>
       <use x="127.246094" xlink:href="#DejaVuSans-30"/>
      </g>
     </g>
    </g>
    <g id="xtick_7">
     <g id="line2d_7">
      <g>
       <use style="stroke:#000000;stroke-width:0.8;" x="370.232841" xlink:href="#mccc3531c02" y="288.430125"/>
      </g>
     </g>
     <g id="text_7">
      <!-- 600 -->
      <defs>
       <path d="M 33.015625 40.375 
Q 26.375 40.375 22.484375 35.828125 
Q 18.609375 31.296875 18.609375 23.390625 
Q 18.609375 15.53125 22.484375 10.953125 
Q 26.375 6.390625 33.015625 6.390625 
Q 39.65625 6.390625 43.53125 10.953125 
Q 47.40625 15.53125 47.40625 23.390625 
Q 47.40625 31.296875 43.53125 35.828125 
Q 39.65625 40.375 33.015625 40.375 
z
M 52.59375 71.296875 
L 52.59375 62.3125 
Q 48.875 64.0625 45.09375 64.984375 
Q 41.3125 65.921875 37.59375 65.921875 
Q 27.828125 65.921875 22.671875 59.328125 
Q 17.53125 52.734375 16.796875 39.40625 
Q 19.671875 43.65625 24.015625 45.921875 
Q 28.375 48.1875 33.59375 48.1875 
Q 44.578125 48.1875 50.953125 41.515625 
Q 57.328125 34.859375 57.328125 23.390625 
Q 57.328125 12.15625 50.6875 5.359375 
Q 44.046875 -1.421875 33.015625 -1.421875 
Q 20.359375 -1.421875 13.671875 8.265625 
Q 6.984375 17.96875 6.984375 36.375 
Q 6.984375 53.65625 15.1875 63.9375 
Q 23.390625 74.21875 37.203125 74.21875 
Q 40.921875 74.21875 44.703125 73.484375 
Q 48.484375 72.75 52.59375 71.296875 
z
" id="DejaVuSans-36"/>
      </defs>
      <g transform="translate(360.689091 303.028562)scale(0.1 -0.1)">
       <use xlink:href="#DejaVuSans-36"/>
       <use x="63.623047" xlink:href="#DejaVuSans-30"/>
       <use x="127.246094" xlink:href="#DejaVuSans-30"/>
      </g>
     </g>
    </g>
    <g id="text_8">
     <!-- episodes -->
     <defs>
      <path d="M 56.203125 29.59375 
L 56.203125 25.203125 
L 14.890625 25.203125 
Q 15.484375 15.921875 20.484375 11.0625 
Q 25.484375 6.203125 34.421875 6.203125 
Q 39.59375 6.203125 44.453125 7.46875 
Q 49.3125 8.734375 54.109375 11.28125 
L 54.109375 2.78125 
Q 49.265625 0.734375 44.1875 -0.34375 
Q 39.109375 -1.421875 33.890625 -1.421875 
Q 20.796875 -1.421875 13.15625 6.1875 
Q 5.515625 13.8125 5.515625 26.8125 
Q 5.515625 40.234375 12.765625 48.109375 
Q 20.015625 56 32.328125 56 
Q 43.359375 56 49.78125 48.890625 
Q 56.203125 41.796875 56.203125 29.59375 
z
M 47.21875 32.234375 
Q 47.125 39.59375 43.09375 43.984375 
Q 39.0625 48.390625 32.421875 48.390625 
Q 24.90625 48.390625 20.390625 44.140625 
Q 15.875 39.890625 15.1875 32.171875 
z
" id="DejaVuSans-65"/>
      <path d="M 18.109375 8.203125 
L 18.109375 -20.796875 
L 9.078125 -20.796875 
L 9.078125 54.6875 
L 18.109375 54.6875 
L 18.109375 46.390625 
Q 20.953125 51.265625 25.265625 53.625 
Q 29.59375 56 35.59375 56 
Q 45.5625 56 51.78125 48.09375 
Q 58.015625 40.1875 58.015625 27.296875 
Q 58.015625 14.40625 51.78125 6.484375 
Q 45.5625 -1.421875 35.59375 -1.421875 
Q 29.59375 -1.421875 25.265625 0.953125 
Q 20.953125 3.328125 18.109375 8.203125 
z
M 48.6875 27.296875 
Q 48.6875 37.203125 44.609375 42.84375 
Q 40.53125 48.484375 33.40625 48.484375 
Q 26.265625 48.484375 22.1875 42.84375 
Q 18.109375 37.203125 18.109375 27.296875 
Q 18.109375 17.390625 22.1875 11.75 
Q 26.265625 6.109375 33.40625 6.109375 
Q 40.53125 6.109375 44.609375 11.75 
Q 48.6875 17.390625 48.6875 27.296875 
z
" id="DejaVuSans-70"/>
      <path d="M 9.421875 54.6875 
L 18.40625 54.6875 
L 18.40625 0 
L 9.421875 0 
z
M 9.421875 75.984375 
L 18.40625 75.984375 
L 18.40625 64.59375 
L 9.421875 64.59375 
z
" id="DejaVuSans-69"/>
      <path d="M 44.28125 53.078125 
L 44.28125 44.578125 
Q 40.484375 46.53125 36.375 47.5 
Q 32.28125 48.484375 27.875 48.484375 
Q 21.1875 48.484375 17.84375 46.4375 
Q 14.5 44.390625 14.5 40.28125 
Q 14.5 37.15625 16.890625 35.375 
Q 19.28125 33.59375 26.515625 31.984375 
L 29.59375 31.296875 
Q 39.15625 29.25 43.1875 25.515625 
Q 47.21875 21.78125 47.21875 15.09375 
Q 47.21875 7.46875 41.1875 3.015625 
Q 35.15625 -1.421875 24.609375 -1.421875 
Q 20.21875 -1.421875 15.453125 -0.5625 
Q 10.6875 0.296875 5.421875 2 
L 5.421875 11.28125 
Q 10.40625 8.6875 15.234375 7.390625 
Q 20.0625 6.109375 24.8125 6.109375 
Q 31.15625 6.109375 34.5625 8.28125 
Q 37.984375 10.453125 37.984375 14.40625 
Q 37.984375 18.0625 35.515625 20.015625 
Q 33.0625 21.96875 24.703125 23.78125 
L 21.578125 24.515625 
Q 13.234375 26.265625 9.515625 29.90625 
Q 5.8125 33.546875 5.8125 39.890625 
Q 5.8125 47.609375 11.28125 51.796875 
Q 16.75 56 26.8125 56 
Q 31.78125 56 36.171875 55.265625 
Q 40.578125 54.546875 44.28125 53.078125 
z
" id="DejaVuSans-73"/>
      <path d="M 30.609375 48.390625 
Q 23.390625 48.390625 19.1875 42.75 
Q 14.984375 37.109375 14.984375 27.296875 
Q 14.984375 17.484375 19.15625 11.84375 
Q 23.34375 6.203125 30.609375 6.203125 
Q 37.796875 6.203125 41.984375 11.859375 
Q 46.1875 17.53125 46.1875 27.296875 
Q 46.1875 37.015625 41.984375 42.703125 
Q 37.796875 48.390625 30.609375 48.390625 
z
M 30.609375 56 
Q 42.328125 56 49.015625 48.375 
Q 55.71875 40.765625 55.71875 27.296875 
Q 55.71875 13.875 49.015625 6.21875 
Q 42.328125 -1.421875 30.609375 -1.421875 
Q 18.84375 -1.421875 12.171875 6.21875 
Q 5.515625 13.875 5.515625 27.296875 
Q 5.515625 40.765625 12.171875 48.375 
Q 18.84375 56 30.609375 56 
z
" id="DejaVuSans-6f"/>
      <path d="M 45.40625 46.390625 
L 45.40625 75.984375 
L 54.390625 75.984375 
L 54.390625 0 
L 45.40625 0 
L 45.40625 8.203125 
Q 42.578125 3.328125 38.25 0.953125 
Q 33.9375 -1.421875 27.875 -1.421875 
Q 17.96875 -1.421875 11.734375 6.484375 
Q 5.515625 14.40625 5.515625 27.296875 
Q 5.515625 40.1875 11.734375 48.09375 
Q 17.96875 56 27.875 56 
Q 33.9375 56 38.25 53.625 
Q 42.578125 51.265625 45.40625 46.390625 
z
M 14.796875 27.296875 
Q 14.796875 17.390625 18.875 11.75 
Q 22.953125 6.109375 30.078125 6.109375 
Q 37.203125 6.109375 41.296875 11.75 
Q 45.40625 17.390625 45.40625 27.296875 
Q 45.40625 37.203125 41.296875 42.84375 
Q 37.203125 48.484375 30.078125 48.484375 
Q 22.953125 48.484375 18.875 42.84375 
Q 14.796875 37.203125 14.796875 27.296875 
z
" id="DejaVuSans-64"/>
     </defs>
     <g transform="translate(206.544375 316.706687)scale(0.1 -0.1)">
      <use xlink:href="#DejaVuSans-65"/>
      <use x="61.523438" xlink:href="#DejaVuSans-70"/>
      <use x="125" xlink:href="#DejaVuSans-69"/>
      <use x="152.783203" xlink:href="#DejaVuSans-73"/>
      <use x="204.882812" xlink:href="#DejaVuSans-6f"/>
      <use x="266.064453" xlink:href="#DejaVuSans-64"/>
      <use x="329.541016" xlink:href="#DejaVuSans-65"/>
      <use x="391.064453" xlink:href="#DejaVuSans-73"/>
     </g>
    </g>
   </g>
   <g id="matplotlib.axis_2">
    <g id="ytick_1">
     <g id="line2d_8">
      <defs>
       <path d="M 0 0 
L -3.5 0 
" id="m4f41ccbcc8" style="stroke:#000000;stroke-width:0.8;"/>
      </defs>
      <g>
       <use style="stroke:#000000;stroke-width:0.8;" x="50.14375" xlink:href="#m4f41ccbcc8" y="282.116077"/>
      </g>
     </g>
     <g id="text_9">
      <!-- 0.25 -->
      <defs>
       <path d="M 10.6875 12.40625 
L 21 12.40625 
L 21 0 
L 10.6875 0 
z
" id="DejaVuSans-2e"/>
      </defs>
      <g transform="translate(20.878125 285.915296)scale(0.1 -0.1)">
       <use xlink:href="#DejaVuSans-30"/>
       <use x="63.623047" xlink:href="#DejaVuSans-2e"/>
       <use x="95.410156" xlink:href="#DejaVuSans-32"/>
       <use x="159.033203" xlink:href="#DejaVuSans-35"/>
      </g>
     </g>
    </g>
    <g id="ytick_2">
     <g id="line2d_9">
      <g>
       <use style="stroke:#000000;stroke-width:0.8;" x="50.14375" xlink:href="#m4f41ccbcc8" y="248.057745"/>
      </g>
     </g>
     <g id="text_10">
      <!-- 0.50 -->
      <g transform="translate(20.878125 251.856963)scale(0.1 -0.1)">
       <use xlink:href="#DejaVuSans-30"/>
       <use x="63.623047" xlink:href="#DejaVuSans-2e"/>
       <use x="95.410156" xlink:href="#DejaVuSans-35"/>
       <use x="159.033203" xlink:href="#DejaVuSans-30"/>
      </g>
     </g>
    </g>
    <g id="ytick_3">
     <g id="line2d_10">
      <g>
       <use style="stroke:#000000;stroke-width:0.8;" x="50.14375" xlink:href="#m4f41ccbcc8" y="213.999412"/>
      </g>
     </g>
     <g id="text_11">
      <!-- 0.75 -->
      <defs>
       <path d="M 8.203125 72.90625 
L 55.078125 72.90625 
L 55.078125 68.703125 
L 28.609375 0 
L 18.3125 0 
L 43.21875 64.59375 
L 8.203125 64.59375 
z
" id="DejaVuSans-37"/>
      </defs>
      <g transform="translate(20.878125 217.798631)scale(0.1 -0.1)">
       <use xlink:href="#DejaVuSans-30"/>
       <use x="63.623047" xlink:href="#DejaVuSans-2e"/>
       <use x="95.410156" xlink:href="#DejaVuSans-37"/>
       <use x="159.033203" xlink:href="#DejaVuSans-35"/>
      </g>
     </g>
    </g>
    <g id="ytick_4">
     <g id="line2d_11">
      <g>
       <use style="stroke:#000000;stroke-width:0.8;" x="50.14375" xlink:href="#m4f41ccbcc8" y="179.941079"/>
      </g>
     </g>
     <g id="text_12">
      <!-- 1.00 -->
      <g transform="translate(20.878125 183.740298)scale(0.1 -0.1)">
       <use xlink:href="#DejaVuSans-31"/>
       <use x="63.623047" xlink:href="#DejaVuSans-2e"/>
       <use x="95.410156" xlink:href="#DejaVuSans-30"/>
       <use x="159.033203" xlink:href="#DejaVuSans-30"/>
      </g>
     </g>
    </g>
    <g id="ytick_5">
     <g id="line2d_12">
      <g>
       <use style="stroke:#000000;stroke-width:0.8;" x="50.14375" xlink:href="#m4f41ccbcc8" y="145.882747"/>
      </g>
     </g>
     <g id="text_13">
      <!-- 1.25 -->
      <g transform="translate(20.878125 149.681965)scale(0.1 -0.1)">
       <use xlink:href="#DejaVuSans-31"/>
       <use x="63.623047" xlink:href="#DejaVuSans-2e"/>
       <use x="95.410156" xlink:href="#DejaVuSans-32"/>
       <use x="159.033203" xlink:href="#DejaVuSans-35"/>
      </g>
     </g>
    </g>
    <g id="ytick_6">
     <g id="line2d_13">
      <g>
       <use style="stroke:#000000;stroke-width:0.8;" x="50.14375" xlink:href="#m4f41ccbcc8" y="111.824414"/>
      </g>
     </g>
     <g id="text_14">
      <!-- 1.50 -->
      <g transform="translate(20.878125 115.623633)scale(0.1 -0.1)">
       <use xlink:href="#DejaVuSans-31"/>
       <use x="63.623047" xlink:href="#DejaVuSans-2e"/>
       <use x="95.410156" xlink:href="#DejaVuSans-35"/>
       <use x="159.033203" xlink:href="#DejaVuSans-30"/>
      </g>
     </g>
    </g>
    <g id="ytick_7">
     <g id="line2d_14">
      <g>
       <use style="stroke:#000000;stroke-width:0.8;" x="50.14375" xlink:href="#m4f41ccbcc8" y="77.766081"/>
      </g>
     </g>
     <g id="text_15">
      <!-- 1.75 -->
      <g transform="translate(20.878125 81.5653)scale(0.1 -0.1)">
       <use xlink:href="#DejaVuSans-31"/>
       <use x="63.623047" xlink:href="#DejaVuSans-2e"/>
       <use x="95.410156" xlink:href="#DejaVuSans-37"/>
       <use x="159.033203" xlink:href="#DejaVuSans-35"/>
      </g>
     </g>
    </g>
    <g id="ytick_8">
     <g id="line2d_15">
      <g>
       <use style="stroke:#000000;stroke-width:0.8;" x="50.14375" xlink:href="#m4f41ccbcc8" y="43.707749"/>
      </g>
     </g>
     <g id="text_16">
      <!-- 2.00 -->
      <g transform="translate(20.878125 47.506968)scale(0.1 -0.1)">
       <use xlink:href="#DejaVuSans-32"/>
       <use x="63.623047" xlink:href="#DejaVuSans-2e"/>
       <use x="95.410156" xlink:href="#DejaVuSans-30"/>
       <use x="159.033203" xlink:href="#DejaVuSans-30"/>
      </g>
     </g>
    </g>
    <g id="text_17">
     <!-- average maxQ -->
     <defs>
      <path d="M 34.28125 27.484375 
Q 23.390625 27.484375 19.1875 25 
Q 14.984375 22.515625 14.984375 16.5 
Q 14.984375 11.71875 18.140625 8.90625 
Q 21.296875 6.109375 26.703125 6.109375 
Q 34.1875 6.109375 38.703125 11.40625 
Q 43.21875 16.703125 43.21875 25.484375 
L 43.21875 27.484375 
z
M 52.203125 31.203125 
L 52.203125 0 
L 43.21875 0 
L 43.21875 8.296875 
Q 40.140625 3.328125 35.546875 0.953125 
Q 30.953125 -1.421875 24.3125 -1.421875 
Q 15.921875 -1.421875 10.953125 3.296875 
Q 6 8.015625 6 15.921875 
Q 6 25.140625 12.171875 29.828125 
Q 18.359375 34.515625 30.609375 34.515625 
L 43.21875 34.515625 
L 43.21875 35.40625 
Q 43.21875 41.609375 39.140625 45 
Q 35.0625 48.390625 27.6875 48.390625 
Q 23 48.390625 18.546875 47.265625 
Q 14.109375 46.140625 10.015625 43.890625 
L 10.015625 52.203125 
Q 14.9375 54.109375 19.578125 55.046875 
Q 24.21875 56 28.609375 56 
Q 40.484375 56 46.34375 49.84375 
Q 52.203125 43.703125 52.203125 31.203125 
z
" id="DejaVuSans-61"/>
      <path d="M 2.984375 54.6875 
L 12.5 54.6875 
L 29.59375 8.796875 
L 46.6875 54.6875 
L 56.203125 54.6875 
L 35.6875 0 
L 23.484375 0 
z
" id="DejaVuSans-76"/>
      <path d="M 41.109375 46.296875 
Q 39.59375 47.171875 37.8125 47.578125 
Q 36.03125 48 33.890625 48 
Q 26.265625 48 22.1875 43.046875 
Q 18.109375 38.09375 18.109375 28.8125 
L 18.109375 0 
L 9.078125 0 
L 9.078125 54.6875 
L 18.109375 54.6875 
L 18.109375 46.1875 
Q 20.953125 51.171875 25.484375 53.578125 
Q 30.03125 56 36.53125 56 
Q 37.453125 56 38.578125 55.875 
Q 39.703125 55.765625 41.0625 55.515625 
z
" id="DejaVuSans-72"/>
      <path d="M 45.40625 27.984375 
Q 45.40625 37.75 41.375 43.109375 
Q 37.359375 48.484375 30.078125 48.484375 
Q 22.859375 48.484375 18.828125 43.109375 
Q 14.796875 37.75 14.796875 27.984375 
Q 14.796875 18.265625 18.828125 12.890625 
Q 22.859375 7.515625 30.078125 7.515625 
Q 37.359375 7.515625 41.375 12.890625 
Q 45.40625 18.265625 45.40625 27.984375 
z
M 54.390625 6.78125 
Q 54.390625 -7.171875 48.1875 -13.984375 
Q 42 -20.796875 29.203125 -20.796875 
Q 24.46875 -20.796875 20.265625 -20.09375 
Q 16.0625 -19.390625 12.109375 -17.921875 
L 12.109375 -9.1875 
Q 16.0625 -11.328125 19.921875 -12.34375 
Q 23.78125 -13.375 27.78125 -13.375 
Q 36.625 -13.375 41.015625 -8.765625 
Q 45.40625 -4.15625 45.40625 5.171875 
L 45.40625 9.625 
Q 42.625 4.78125 38.28125 2.390625 
Q 33.9375 0 27.875 0 
Q 17.828125 0 11.671875 7.65625 
Q 5.515625 15.328125 5.515625 27.984375 
Q 5.515625 40.671875 11.671875 48.328125 
Q 17.828125 56 27.875 56 
Q 33.9375 56 38.28125 53.609375 
Q 42.625 51.21875 45.40625 46.390625 
L 45.40625 54.6875 
L 54.390625 54.6875 
z
" id="DejaVuSans-67"/>
      <path id="DejaVuSans-20"/>
      <path d="M 52 44.1875 
Q 55.375 50.25 60.0625 53.125 
Q 64.75 56 71.09375 56 
Q 79.640625 56 84.28125 50.015625 
Q 88.921875 44.046875 88.921875 33.015625 
L 88.921875 0 
L 79.890625 0 
L 79.890625 32.71875 
Q 79.890625 40.578125 77.09375 44.375 
Q 74.3125 48.1875 68.609375 48.1875 
Q 61.625 48.1875 57.5625 43.546875 
Q 53.515625 38.921875 53.515625 30.90625 
L 53.515625 0 
L 44.484375 0 
L 44.484375 32.71875 
Q 44.484375 40.625 41.703125 44.40625 
Q 38.921875 48.1875 33.109375 48.1875 
Q 26.21875 48.1875 22.15625 43.53125 
Q 18.109375 38.875 18.109375 30.90625 
L 18.109375 0 
L 9.078125 0 
L 9.078125 54.6875 
L 18.109375 54.6875 
L 18.109375 46.1875 
Q 21.1875 51.21875 25.484375 53.609375 
Q 29.78125 56 35.6875 56 
Q 41.65625 56 45.828125 52.96875 
Q 50 49.953125 52 44.1875 
z
" id="DejaVuSans-6d"/>
      <path d="M 54.890625 54.6875 
L 35.109375 28.078125 
L 55.90625 0 
L 45.3125 0 
L 29.390625 21.484375 
L 13.484375 0 
L 2.875 0 
L 24.125 28.609375 
L 4.6875 54.6875 
L 15.28125 54.6875 
L 29.78125 35.203125 
L 44.28125 54.6875 
z
" id="DejaVuSans-78"/>
      <path d="M 39.40625 66.21875 
Q 28.65625 66.21875 22.328125 58.203125 
Q 16.015625 50.203125 16.015625 36.375 
Q 16.015625 22.609375 22.328125 14.59375 
Q 28.65625 6.59375 39.40625 6.59375 
Q 50.140625 6.59375 56.421875 14.59375 
Q 62.703125 22.609375 62.703125 36.375 
Q 62.703125 50.203125 56.421875 58.203125 
Q 50.140625 66.21875 39.40625 66.21875 
z
M 53.21875 1.3125 
L 66.21875 -12.890625 
L 54.296875 -12.890625 
L 43.5 -1.21875 
Q 41.890625 -1.3125 41.03125 -1.359375 
Q 40.1875 -1.421875 39.40625 -1.421875 
Q 24.03125 -1.421875 14.8125 8.859375 
Q 5.609375 19.140625 5.609375 36.375 
Q 5.609375 53.65625 14.8125 63.9375 
Q 24.03125 74.21875 39.40625 74.21875 
Q 54.734375 74.21875 63.90625 63.9375 
Q 73.09375 53.65625 73.09375 36.375 
Q 73.09375 23.6875 67.984375 14.640625 
Q 62.890625 5.609375 53.21875 1.3125 
z
" id="DejaVuSans-51"/>
     </defs>
     <g transform="translate(14.798438 192.263187)rotate(-90)scale(0.1 -0.1)">
      <use xlink:href="#DejaVuSans-61"/>
      <use x="61.279297" xlink:href="#DejaVuSans-76"/>
      <use x="120.458984" xlink:href="#DejaVuSans-65"/>
      <use x="181.982422" xlink:href="#DejaVuSans-72"/>
      <use x="223.095703" xlink:href="#DejaVuSans-61"/>
      <use x="284.375" xlink:href="#DejaVuSans-67"/>
      <use x="347.851562" xlink:href="#DejaVuSans-65"/>
      <use x="409.375" xlink:href="#DejaVuSans-20"/>
      <use x="441.162109" xlink:href="#DejaVuSans-6d"/>
      <use x="538.574219" xlink:href="#DejaVuSans-61"/>
      <use x="599.853516" xlink:href="#DejaVuSans-78"/>
      <use x="659.033203" xlink:href="#DejaVuSans-51"/>
     </g>
    </g>
   </g>
   <g id="line2d_16">
    <path clip-path="url(#pf83a6637f4)" d="M 66.376477 260.827372 
L 66.88375 264.813285 
L 67.391023 268.449199 
L 67.898295 268.595809 
L 68.912841 264.706357 
L 69.420114 271.588719 
L 69.927386 275.07506 
L 70.434659 270.172577 
L 70.941932 258.746176 
L 71.449205 267.006617 
L 71.956477 268.938716 
L 72.46375 261.362757 
L 72.971023 263.676006 
L 73.478295 261.533724 
L 73.985568 263.02666 
L 74.492841 263.425179 
L 75.000114 272.249195 
L 76.014659 250.865887 
L 76.521932 262.639004 
L 77.029205 271.644078 
L 77.536477 264.554711 
L 78.04375 267.955744 
L 78.551023 267.448421 
L 79.058295 266.041078 
L 79.565568 264.247019 
L 80.072841 270.250719 
L 81.087386 262.413293 
L 81.594659 273.99245 
L 82.101932 271.732473 
L 82.609205 264.105042 
L 83.116477 259.14678 
L 83.62375 259.997341 
L 84.131023 263.337078 
L 84.638295 270.221175 
L 85.145568 266.344032 
L 85.652841 270.4152 
L 86.160114 260.195273 
L 86.667386 269.997514 
L 87.174659 259.933624 
L 87.681932 267.997881 
L 88.189205 263.968263 
L 88.696477 265.163217 
L 89.20375 262.635527 
L 89.711023 275.673419 
L 90.218295 266.278103 
L 90.725568 262.685346 
L 91.232841 267.907524 
L 91.740114 263.262404 
L 92.754659 267.926098 
L 93.261932 261.157519 
L 93.769205 262.497776 
L 94.276477 267.582569 
L 94.78375 261.977618 
L 95.291023 260.231866 
L 95.798295 262.17251 
L 96.305568 265.150392 
L 97.320114 276.334125 
L 97.827386 260.01362 
L 98.334659 261.084751 
L 98.841932 271.978543 
L 99.349205 257.321797 
L 100.36375 254.778275 
L 100.871023 254.400506 
L 101.378295 253.46781 
L 102.392841 250.059398 
L 102.900114 247.164352 
L 103.407386 248.509142 
L 103.914659 243.080479 
L 104.421932 243.49492 
L 104.929205 241.960004 
L 105.436477 239.234657 
L 105.94375 237.176544 
L 106.451023 237.188282 
L 106.958295 235.647945 
L 107.972841 229.895467 
L 108.480114 228.027817 
L 108.987386 225.696004 
L 110.001932 224.975931 
L 110.509205 219.867432 
L 111.016477 221.14036 
L 111.52375 221.584824 
L 112.031023 216.691411 
L 112.538295 217.582108 
L 113.045568 220.746147 
L 113.552841 211.128358 
L 114.060114 213.666231 
L 114.567386 208.621213 
L 115.074659 207.258236 
L 115.581932 208.612946 
L 116.089205 206.580774 
L 116.596477 210.532281 
L 117.10375 201.37607 
L 117.611023 201.631694 
L 118.118295 202.011753 
L 118.625568 201.82741 
L 119.132841 198.986633 
L 120.147386 195.139166 
L 120.654659 202.002312 
L 121.161932 201.561171 
L 121.669205 190.541758 
L 122.176477 193.070681 
L 122.68375 194.980006 
L 123.191023 186.580056 
L 123.698295 187.382018 
L 124.205568 185.387453 
L 124.712841 183.943021 
L 125.220114 195.446859 
L 125.727386 178.651354 
L 126.234659 184.055497 
L 126.741932 186.439931 
L 127.249205 179.321341 
L 127.756477 174.846683 
L 128.771023 180.444746 
L 129.278295 170.970552 
L 129.785568 171.06571 
L 130.292841 182.373754 
L 130.800114 171.530387 
L 131.307386 176.503499 
L 131.814659 172.819971 
L 132.321932 171.25788 
L 132.829205 168.856047 
L 133.336477 167.66062 
L 133.84375 176.217537 
L 134.858295 161.976589 
L 135.365568 162.655718 
L 135.872841 160.21829 
L 136.380114 159.81065 
L 136.887386 163.161605 
L 137.394659 156.057352 
L 137.901932 155.160206 
L 138.409205 154.684763 
L 138.916477 154.793902 
L 139.42375 152.414884 
L 139.931023 152.338616 
L 140.438295 172.250735 
L 140.945568 155.865399 
L 141.452841 155.432551 
L 141.960114 149.77997 
L 142.467386 149.784242 
L 142.974659 149.579871 
L 143.481932 147.717309 
L 143.989205 150.725693 
L 144.496477 146.823347 
L 145.00375 179.523068 
L 145.511023 149.620021 
L 146.018295 144.429023 
L 146.525568 143.9237 
L 147.032841 139.714363 
L 147.540114 145.316387 
L 148.047386 153.297378 
L 148.554659 137.534249 
L 149.061932 139.979075 
L 150.076477 135.909509 
L 150.58375 139.027695 
L 151.091023 168.889982 
L 151.598295 140.329132 
L 152.105568 207.293159 
L 152.612841 180.385718 
L 153.120114 165.581419 
L 153.627386 135.742849 
L 154.134659 146.129227 
L 154.641932 150.175487 
L 155.149205 139.697207 
L 155.656477 152.346017 
L 156.16375 184.875476 
L 156.671023 131.835728 
L 157.178295 137.847398 
L 157.685568 138.118533 
L 158.192841 126.724085 
L 158.700114 146.359083 
L 159.207386 137.631123 
L 159.714659 134.812685 
L 160.221932 134.654654 
L 160.729205 149.986488 
L 161.236477 118.359024 
L 161.74375 124.731424 
L 162.251023 148.353792 
L 162.758295 124.540842 
L 163.265568 119.04565 
L 163.772841 141.115298 
L 164.280114 130.331597 
L 164.787386 125.486199 
L 165.294659 119.423043 
L 165.801932 163.703407 
L 166.309205 152.655781 
L 166.816477 137.887274 
L 167.32375 115.391068 
L 167.831023 137.014023 
L 168.338295 134.228767 
L 168.845568 123.42611 
L 169.352841 108.017764 
L 169.860114 129.330874 
L 170.367386 116.868049 
L 170.874659 123.286653 
L 171.381932 119.390572 
L 171.889205 116.917256 
L 172.396477 109.564217 
L 172.90375 114.439223 
L 173.411023 114.828306 
L 173.918295 109.79632 
L 174.425568 138.438688 
L 174.932841 109.756777 
L 175.440114 131.363067 
L 175.947386 107.354988 
L 176.454659 131.670609 
L 176.961932 116.661396 
L 177.469205 110.875641 
L 177.976477 106.84029 
L 178.48375 110.675643 
L 178.991023 101.529926 
L 179.498295 122.552958 
L 180.005568 111.277554 
L 180.512841 127.197335 
L 181.020114 98.041262 
L 181.527386 102.344888 
L 182.034659 120.000197 
L 182.541932 102.971659 
L 183.049205 126.31623 
L 183.556477 104.148093 
L 184.06375 100.885097 
L 184.571023 102.660092 
L 185.078295 152.498247 
L 185.585568 105.507157 
L 186.092841 104.153551 
L 186.600114 97.750276 
L 187.107386 116.891715 
L 188.121932 101.506101 
L 188.629205 111.861655 
L 189.64375 90.573066 
L 190.151023 101.837666 
L 190.658295 88.934009 
L 191.165568 114.204582 
L 191.672841 96.762691 
L 192.180114 100.530561 
L 192.687386 95.325579 
L 193.194659 112.922078 
L 193.701932 116.987375 
L 194.209205 111.160984 
L 194.716477 95.869273 
L 195.22375 98.447943 
L 195.731023 108.138902 
L 196.238295 93.046224 
L 196.745568 88.802762 
L 197.252841 90.774399 
L 197.760114 86.340441 
L 198.267386 88.546338 
L 198.774659 92.693153 
L 199.281932 136.412894 
L 199.789205 87.405522 
L 200.296477 90.800214 
L 200.80375 96.228836 
L 201.311023 98.888976 
L 201.818295 92.96626 
L 202.325568 89.960196 
L 202.832841 90.531486 
L 203.340114 88.33292 
L 203.847386 89.582141 
L 204.354659 93.283197 
L 204.861932 102.311819 
L 205.369205 97.730227 
L 205.876477 100.766548 
L 206.38375 107.15375 
L 206.891023 98.350742 
L 207.398295 91.495032 
L 207.905568 105.153882 
L 208.412841 92.378486 
L 208.920114 90.280102 
L 209.427386 91.298576 
L 209.934659 124.203444 
L 210.441932 87.631424 
L 210.949205 96.073124 
L 211.456477 95.684813 
L 211.96375 87.402401 
L 212.471023 91.995239 
L 212.978295 85.94635 
L 213.485568 87.121031 
L 213.992841 84.350143 
L 214.500114 86.421912 
L 215.007386 84.066442 
L 215.514659 94.070295 
L 216.021932 80.709539 
L 216.529205 89.423802 
L 217.54375 85.005767 
L 218.051023 88.667982 
L 218.558295 89.793831 
L 219.065568 129.378663 
L 219.572841 90.991105 
L 220.080114 85.259715 
L 220.587386 82.065986 
L 221.094659 85.514504 
L 221.601932 82.291537 
L 222.109205 96.408359 
L 222.616477 80.919115 
L 223.12375 77.841585 
L 223.631023 80.931057 
L 224.138295 93.133412 
L 224.645568 95.680441 
L 225.152841 90.47008 
L 225.660114 81.557232 
L 226.167386 80.8363 
L 226.674659 81.793116 
L 227.181932 76.599099 
L 228.196477 89.639358 
L 228.70375 81.330018 
L 229.211023 86.835489 
L 229.718295 78.477605 
L 230.225568 86.154217 
L 230.732841 101.484869 
L 231.240114 73.285178 
L 231.747386 81.836314 
L 232.254659 77.244296 
L 232.761932 82.680303 
L 233.269205 79.414654 
L 233.776477 80.153276 
L 234.28375 84.422086 
L 234.791023 69.211749 
L 235.298295 75.988844 
L 235.805568 77.012155 
L 236.312841 102.478012 
L 236.820114 85.918329 
L 237.327386 88.962704 
L 237.834659 74.174468 
L 238.341932 77.748866 
L 238.849205 74.519478 
L 239.356477 110.663947 
L 239.86375 75.256296 
L 240.371023 80.346654 
L 240.878295 67.74192 
L 241.385568 80.886895 
L 242.907386 90.779196 
L 243.414659 82.351153 
L 243.921932 89.281577 
L 244.429205 101.9314 
L 244.936477 84.850095 
L 245.44375 140.802295 
L 245.951023 94.485899 
L 246.458295 76.95115 
L 246.965568 84.997676 
L 247.472841 78.569768 
L 247.980114 77.322911 
L 248.487386 74.177359 
L 248.994659 83.939332 
L 249.501932 76.518008 
L 250.009205 86.606396 
L 250.516477 73.853486 
L 251.02375 89.233073 
L 251.531023 78.720345 
L 252.038295 74.282132 
L 252.545568 77.657587 
L 253.052841 83.414443 
L 253.560114 72.292742 
L 254.067386 74.278279 
L 254.574659 93.081532 
L 255.081932 73.380492 
L 255.589205 82.807401 
L 256.096477 73.098682 
L 256.60375 83.248638 
L 257.111023 81.048747 
L 257.618295 87.402959 
L 258.125568 79.823905 
L 258.632841 74.763048 
L 259.140114 75.707565 
L 259.647386 88.970998 
L 260.154659 83.81518 
L 260.661932 97.838588 
L 261.169205 93.844737 
L 261.676477 71.820423 
L 262.691023 87.548935 
L 263.705568 70.332136 
L 264.212841 73.499521 
L 264.720114 75.19766 
L 265.227386 89.939184 
L 265.734659 89.362241 
L 266.241932 76.983536 
L 266.749205 85.331746 
L 267.256477 98.663817 
L 267.76375 69.09877 
L 269.285568 77.486715 
L 269.792841 75.21217 
L 270.300114 76.217224 
L 270.807386 78.901231 
L 271.314659 76.141842 
L 271.821932 72.705478 
L 272.329205 83.063933 
L 272.836477 76.902614 
L 273.34375 77.675498 
L 273.851023 83.073733 
L 274.358295 77.495648 
L 274.865568 73.905917 
L 275.372841 71.770718 
L 275.880114 75.847854 
L 276.387386 83.477883 
L 276.894659 76.686391 
L 277.401932 76.29149 
L 277.909205 75.037981 
L 278.416477 94.171358 
L 278.92375 72.0547 
L 279.938295 80.94672 
L 280.445568 70.569402 
L 280.952841 85.68625 
L 281.460114 89.83721 
L 281.967386 83.4381 
L 282.474659 85.297832 
L 282.981932 78.296673 
L 283.489205 79.859028 
L 283.996477 72.410563 
L 284.50375 85.592067 
L 285.011023 70.348861 
L 285.518295 94.902877 
L 286.025568 77.227078 
L 286.532841 68.360116 
L 287.040114 71.378452 
L 287.547386 69.739926 
L 288.054659 69.102248 
L 288.561932 104.692816 
L 289.069205 70.583647 
L 289.576477 81.663765 
L 290.08375 72.559227 
L 290.591023 88.496283 
L 291.098295 75.025146 
L 291.605568 78.311413 
L 292.112841 67.005633 
L 292.620114 76.763552 
L 293.127386 84.27653 
L 293.634659 67.762675 
L 294.141932 79.033805 
L 294.649205 70.125938 
L 295.156477 96.820047 
L 295.66375 69.558491 
L 296.171023 82.970187 
L 296.678295 77.214909 
L 297.185568 75.433414 
L 297.692841 69.490323 
L 298.200114 66.697582 
L 299.214659 76.415651 
L 299.721932 74.857673 
L 300.229205 74.968575 
L 300.736477 75.215244 
L 301.24375 74.478216 
L 302.258295 82.772046 
L 302.765568 85.909681 
L 303.272841 74.172892 
L 303.780114 75.493333 
L 304.287386 82.74574 
L 304.794659 74.688863 
L 305.301932 81.403705 
L 305.809205 73.611282 
L 306.316477 76.640303 
L 306.82375 86.683456 
L 307.331023 73.358527 
L 307.838295 68.308903 
L 308.345568 75.669232 
L 308.852841 72.988343 
L 309.360114 79.575387 
L 309.867386 73.393221 
L 310.374659 72.277017 
L 310.881932 75.771047 
L 311.389205 72.505541 
L 311.896477 80.25001 
L 312.40375 86.1723 
L 312.911023 74.600773 
L 313.418295 80.286101 
L 313.925568 80.099076 
L 314.432841 69.251876 
L 314.940114 72.968019 
L 315.447386 93.408635 
L 315.954659 75.911302 
L 316.461932 71.197882 
L 316.969205 75.955632 
L 317.476477 73.184489 
L 317.98375 71.837793 
L 318.998295 83.778215 
L 319.505568 65.862534 
L 320.012841 82.285277 
L 321.027386 71.235451 
L 322.041932 89.827675 
L 322.549205 83.974951 
L 323.056477 74.332225 
L 323.56375 75.498187 
L 324.071023 92.711602 
L 324.578295 84.218388 
L 325.085568 72.113459 
L 325.592841 78.128536 
L 326.100114 80.966898 
L 326.607386 85.905586 
L 327.114659 81.066691 
L 327.621932 73.96199 
L 328.129205 71.318265 
L 328.636477 75.080465 
L 329.14375 87.801492 
L 329.651023 77.891943 
L 330.158295 84.277012 
L 330.665568 73.152307 
L 331.172841 75.290948 
L 331.680114 71.173174 
L 332.694659 80.133126 
L 333.201932 80.693121 
L 333.709205 80.605103 
L 334.216477 88.157765 
L 334.72375 77.443862 
L 335.231023 91.513054 
L 335.738295 73.944306 
L 336.245568 74.522718 
L 336.752841 71.766889 
L 337.260114 89.335287 
L 337.767386 74.531644 
L 338.274659 76.583307 
L 338.781932 79.337773 
L 339.289205 80.482286 
L 339.796477 71.601071 
L 340.811023 88.096644 
L 341.318295 81.927577 
L 341.825568 88.635583 
L 342.332841 74.48807 
L 342.840114 84.814328 
L 343.347386 71.909735 
L 343.854659 96.417064 
L 344.361932 80.660192 
L 344.869205 70.689877 
L 345.376477 82.491819 
L 345.88375 80.906284 
L 346.391023 87.572162 
L 346.898295 85.876007 
L 347.405568 77.591795 
L 347.912841 84.534369 
L 348.420114 81.960962 
L 348.927386 76.567005 
L 349.434659 81.492552 
L 349.941932 77.713882 
L 350.449205 80.148218 
L 350.956477 75.763306 
L 351.46375 83.555964 
L 351.971023 78.02755 
L 352.478295 80.002088 
L 352.985568 77.826211 
L 353.492841 71.15291 
L 354.000114 82.443848 
L 354.507386 73.663896 
L 355.014659 78.201066 
L 355.521932 74.481507 
L 356.029205 72.35826 
L 356.536477 34.414125 
L 357.04375 82.043576 
L 357.551023 86.520165 
L 358.058295 76.352319 
L 358.565568 96.321261 
L 359.072841 75.371526 
L 359.580114 89.335206 
L 360.087386 94.158763 
L 360.594659 76.521086 
L 361.101932 80.314554 
L 361.609205 91.806393 
L 362.116477 78.073505 
L 362.62375 88.28822 
L 363.131023 92.998631 
L 363.638295 81.986199 
L 364.145568 87.897803 
L 364.652841 74.211887 
L 365.160114 82.535139 
L 365.667386 85.605131 
L 366.174659 82.433834 
L 366.681932 76.247353 
L 367.189205 85.849543 
L 367.696477 91.413952 
L 368.20375 88.643528 
L 368.711023 76.788761 
L 369.725568 95.289428 
L 370.232841 80.776085 
L 370.740114 91.53847 
L 371.247386 78.042356 
L 371.754659 75.304786 
L 372.261932 90.968257 
L 372.769205 97.580239 
L 373.276477 82.033147 
L 373.78375 80.632425 
L 374.291023 86.305034 
L 374.798295 85.430234 
L 375.305568 86.889739 
L 375.812841 85.167409 
L 376.320114 77.94556 
L 376.827386 84.396336 
L 377.334659 79.175559 
L 377.841932 80.47645 
L 378.349205 80.107337 
L 378.856477 78.166843 
L 379.36375 83.968181 
L 379.871023 79.003914 
L 380.378295 83.41368 
L 380.885568 84.329899 
L 381.392841 76.577892 
L 381.900114 90.463785 
L 382.407386 79.947399 
L 382.914659 76.845465 
L 383.421932 120.190834 
L 383.929205 80.051624 
L 384.436477 76.979997 
L 384.94375 89.928049 
L 385.451023 79.866952 
L 385.958295 86.824407 
L 386.465568 77.62852 
L 386.972841 86.517669 
L 387.480114 78.866367 
L 387.987386 78.307201 
L 388.494659 84.041816 
L 389.001932 96.830095 
L 390.016477 78.869846 
L 390.52375 87.988418 
L 391.031023 77.41423 
L 391.031023 77.41423 
" style="fill:none;stroke:#1f77b4;stroke-linecap:square;stroke-width:0.5;"/>
   </g>
   <g id="patch_3">
    <path d="M 50.14375 288.430125 
L 50.14375 22.318125 
" style="fill:none;stroke:#000000;stroke-linecap:square;stroke-linejoin:miter;stroke-width:0.8;"/>
   </g>
   <g id="patch_4">
    <path d="M 407.26375 288.430125 
L 407.26375 22.318125 
" style="fill:none;stroke:#000000;stroke-linecap:square;stroke-linejoin:miter;stroke-width:0.8;"/>
   </g>
   <g id="patch_5">
    <path d="M 50.14375 288.430125 
L 407.26375 288.430125 
" style="fill:none;stroke:#000000;stroke-linecap:square;stroke-linejoin:miter;stroke-width:0.8;"/>
   </g>
   <g id="patch_6">
    <path d="M 50.14375 22.318125 
L 407.26375 22.318125 
" style="fill:none;stroke:#000000;stroke-linecap:square;stroke-linejoin:miter;stroke-width:0.8;"/>
   </g>
   <g id="text_18">
    <!-- Average maxQ per episode, joint4 -->
    <defs>
     <path d="M 34.1875 63.1875 
L 20.796875 26.90625 
L 47.609375 26.90625 
z
M 28.609375 72.90625 
L 39.796875 72.90625 
L 67.578125 0 
L 57.328125 0 
L 50.6875 18.703125 
L 17.828125 18.703125 
L 11.1875 0 
L 0.78125 0 
z
" id="DejaVuSans-41"/>
     <path d="M 11.71875 12.40625 
L 22.015625 12.40625 
L 22.015625 4 
L 14.015625 -11.625 
L 7.71875 -11.625 
L 11.71875 4 
z
" id="DejaVuSans-2c"/>
     <path d="M 9.421875 54.6875 
L 18.40625 54.6875 
L 18.40625 -0.984375 
Q 18.40625 -11.421875 14.421875 -16.109375 
Q 10.453125 -20.796875 1.609375 -20.796875 
L -1.8125 -20.796875 
L -1.8125 -13.1875 
L 0.59375 -13.1875 
Q 5.71875 -13.1875 7.5625 -10.8125 
Q 9.421875 -8.453125 9.421875 -0.984375 
z
M 9.421875 75.984375 
L 18.40625 75.984375 
L 18.40625 64.59375 
L 9.421875 64.59375 
z
" id="DejaVuSans-6a"/>
     <path d="M 54.890625 33.015625 
L 54.890625 0 
L 45.90625 0 
L 45.90625 32.71875 
Q 45.90625 40.484375 42.875 44.328125 
Q 39.84375 48.1875 33.796875 48.1875 
Q 26.515625 48.1875 22.3125 43.546875 
Q 18.109375 38.921875 18.109375 30.90625 
L 18.109375 0 
L 9.078125 0 
L 9.078125 54.6875 
L 18.109375 54.6875 
L 18.109375 46.1875 
Q 21.34375 51.125 25.703125 53.5625 
Q 30.078125 56 35.796875 56 
Q 45.21875 56 50.046875 50.171875 
Q 54.890625 44.34375 54.890625 33.015625 
z
" id="DejaVuSans-6e"/>
     <path d="M 18.3125 70.21875 
L 18.3125 54.6875 
L 36.8125 54.6875 
L 36.8125 47.703125 
L 18.3125 47.703125 
L 18.3125 18.015625 
Q 18.3125 11.328125 20.140625 9.421875 
Q 21.96875 7.515625 27.59375 7.515625 
L 36.8125 7.515625 
L 36.8125 0 
L 27.59375 0 
Q 17.1875 0 13.234375 3.875 
Q 9.28125 7.765625 9.28125 18.015625 
L 9.28125 47.703125 
L 2.6875 47.703125 
L 2.6875 54.6875 
L 9.28125 54.6875 
L 9.28125 70.21875 
z
" id="DejaVuSans-74"/>
    </defs>
    <g transform="translate(125.97625 16.318125)scale(0.12 -0.12)">
     <use xlink:href="#DejaVuSans-41"/>
     <use x="68.330078" xlink:href="#DejaVuSans-76"/>
     <use x="127.509766" xlink:href="#DejaVuSans-65"/>
     <use x="189.033203" xlink:href="#DejaVuSans-72"/>
     <use x="230.146484" xlink:href="#DejaVuSans-61"/>
     <use x="291.425781" xlink:href="#DejaVuSans-67"/>
     <use x="354.902344" xlink:href="#DejaVuSans-65"/>
     <use x="416.425781" xlink:href="#DejaVuSans-20"/>
     <use x="448.212891" xlink:href="#DejaVuSans-6d"/>
     <use x="545.625" xlink:href="#DejaVuSans-61"/>
     <use x="606.904297" xlink:href="#DejaVuSans-78"/>
     <use x="666.083984" xlink:href="#DejaVuSans-51"/>
     <use x="744.794922" xlink:href="#DejaVuSans-20"/>
     <use x="776.582031" xlink:href="#DejaVuSans-70"/>
     <use x="840.058594" xlink:href="#DejaVuSans-65"/>
     <use x="901.582031" xlink:href="#DejaVuSans-72"/>
     <use x="942.695312" xlink:href="#DejaVuSans-20"/>
     <use x="974.482422" xlink:href="#DejaVuSans-65"/>
     <use x="1036.005859" xlink:href="#DejaVuSans-70"/>
     <use x="1099.482422" xlink:href="#DejaVuSans-69"/>
     <use x="1127.265625" xlink:href="#DejaVuSans-73"/>
     <use x="1179.365234" xlink:href="#DejaVuSans-6f"/>
     <use x="1240.546875" xlink:href="#DejaVuSans-64"/>
     <use x="1304.023438" xlink:href="#DejaVuSans-65"/>
     <use x="1365.546875" xlink:href="#DejaVuSans-2c"/>
     <use x="1397.333984" xlink:href="#DejaVuSans-20"/>
     <use x="1429.121094" xlink:href="#DejaVuSans-6a"/>
     <use x="1456.904297" xlink:href="#DejaVuSans-6f"/>
     <use x="1518.085938" xlink:href="#DejaVuSans-69"/>
     <use x="1545.869141" xlink:href="#DejaVuSans-6e"/>
     <use x="1609.248047" xlink:href="#DejaVuSans-74"/>
     <use x="1648.457031" xlink:href="#DejaVuSans-34"/>
    </g>
   </g>
  </g>
 </g>
 <defs>
  <clipPath id="pf83a6637f4">
   <rect height="266.112" width="357.12" x="50.14375" y="22.318125"/>
  </clipPath>
 </defs>
</svg>
