<?xml version="1.0" encoding="utf-8" standalone="no"?>
<!DOCTYPE svg PUBLIC "-//W3C//DTD SVG 1.1//EN"
  "http://www.w3.org/Graphics/SVG/1.1/DTD/svg11.dtd">
<!-- Created with matplotlib (http://matplotlib.org/) -->
<svg height="408pt" version="1.1" viewBox="0 0 515 408" width="515pt" xmlns="http://www.w3.org/2000/svg" xmlns:xlink="http://www.w3.org/1999/xlink">
 <defs>
  <style type="text/css">
*{stroke-linecap:butt;stroke-linejoin:round;stroke-miterlimit:100000;}
  </style>
 </defs>
 <g id="figure_1">
  <g id="patch_1">
   <path d="M 0 408.16925 
L 515.7675 408.16925 
L 515.7675 0 
L 0 0 
z
" style="fill:#ffffff;"/>
  </g>
  <g id="axes_1">
   <g id="patch_2">
    <path d="M 46.8975 368.74175 
L 493.2975 368.74175 
L 493.2975 23.14175 
L 46.8975 23.14175 
z
" style="fill:#ffffff;"/>
   </g>
   <g id="line2d_1">
    <path clip-path="url(#pe159ae0e9e)" d="M 47.3439 286.751499 
L 47.7903 261.718044 
L 48.2367 293.92817 
L 48.6831 259.461806 
L 49.1295 303.273501 
L 49.5759 262.576209 
L 50.0223 163.649749 
L 50.4687 281.302365 
L 50.9151 299.69766 
L 51.8079 251.564495 
L 52.2543 265.824141 
L 52.7007 143.969645 
L 53.1471 280.865032 
L 53.5935 277.596581 
L 54.0399 202.453261 
L 54.4863 279.074857 
L 54.9327 276.66502 
L 55.3791 261.632252 
L 55.8255 262.125512 
L 56.2719 226.676667 
L 56.7183 156.077494 
L 57.1647 288.164522 
L 57.6111 274.099061 
L 58.0575 174.720568 
L 58.5039 100.090865 
L 58.9503 295.270416 
L 59.3967 288.688523 
L 59.8431 268.857512 
L 60.2895 298.46742 
L 61.1823 285.152129 
L 61.6287 147.633556 
L 62.0751 304.428726 
L 62.5215 292.832893 
L 62.9679 311.517006 
L 63.4143 297.719078 
L 63.8607 211.707004 
L 64.3071 213.015303 
L 64.7535 279.830278 
L 65.1999 253.471207 
L 65.6463 304.330336 
L 66.0927 226.307378 
L 66.5391 227.69391 
L 66.9855 279.495071 
L 67.4319 252.625013 
L 67.8783 240.697061 
L 68.3247 271.539887 
L 68.7711 290.729371 
L 69.2175 282.08539 
L 69.6639 247.530693 
L 70.1103 301.670183 
L 70.5567 213.246849 
L 71.0031 182.828547 
L 71.4495 282.212536 
L 71.8959 300.250053 
L 72.3423 235.866346 
L 72.7887 128.193401 
L 73.2351 295.599777 
L 73.6815 273.234642 
L 74.1279 259.870631 
L 74.5743 153.52648 
L 75.0207 87.485814 
L 75.4671 248.524864 
L 75.9135 289.135004 
L 76.3599 246.849435 
L 76.8063 137.648521 
L 77.6991 267.156056 
L 78.1455 126.156959 
L 78.5919 276.37311 
L 79.0383 124.273451 
L 79.4847 273.324412 
L 79.9311 131.668718 
L 80.3775 280.636139 
L 81.2703 122.945539 
L 81.7167 271.591515 
L 82.1631 104.653542 
L 82.6095 248.881232 
L 83.0559 275.853396 
L 83.5023 264.723656 
L 83.9487 211.762837 
L 84.3951 259.109517 
L 84.8415 244.212145 
L 85.2879 156.109332 
L 85.7343 239.38957 
L 86.1807 290.683631 
L 86.6271 289.024829 
L 87.0735 261.93216 
L 87.5199 260.553741 
L 87.9663 111.207123 
L 88.4127 297.384255 
L 88.8591 318.696557 
L 89.3055 138.560334 
L 89.7519 256.851556 
L 90.1983 268.852663 
L 90.6447 292.710948 
L 91.0911 289.801344 
L 91.5375 269.73498 
L 91.9839 278.616732 
L 92.4303 294.873933 
L 92.8767 272.260216 
L 93.3231 221.103124 
L 93.7695 274.058328 
L 94.2159 242.97158 
L 94.6623 239.895381 
L 95.1087 235.521756 
L 95.5551 258.070839 
L 96.0015 273.989401 
L 96.4479 300.587408 
L 96.8943 233.926271 
L 97.3407 234.553581 
L 97.7871 151.797352 
L 98.6799 305.073583 
L 99.1263 158.790119 
L 99.5727 285.282528 
L 100.0191 186.741319 
L 100.4655 279.294793 
L 101.3583 162.126648 
L 101.8047 156.331345 
L 102.2511 259.414501 
L 102.6975 238.02318 
L 103.1439 268.928656 
L 103.5903 278.60933 
L 104.0367 280.325465 
L 104.4831 209.64819 
L 104.9295 281.813962 
L 105.3759 301.537106 
L 105.8223 276.921695 
L 106.2687 140.399985 
L 106.7151 271.435993 
L 107.6079 219.774313 
L 108.0543 164.497567 
L 108.5007 311.776644 
L 108.9471 294.290046 
L 109.3935 260.978629 
L 109.8399 306.227202 
L 110.2863 283.785625 
L 110.7327 289.170058 
L 111.1791 280.624126 
L 111.6255 282.351582 
L 112.0719 299.037517 
L 112.5183 309.649165 
L 112.9647 275.069051 
L 113.4111 256.202609 
L 113.8575 280.707159 
L 114.3039 238.715631 
L 114.7503 308.407112 
L 115.1967 303.071674 
L 115.6431 288.324793 
L 116.0895 256.250481 
L 116.5359 295.98247 
L 116.9823 304.31261 
L 117.4287 191.125353 
L 117.8751 313.811297 
L 118.3215 213.614251 
L 118.7679 306.376427 
L 119.2143 273.799027 
L 119.6607 103.737566 
L 120.1071 261.919658 
L 120.5535 256.377693 
L 120.9999 307.11681 
L 121.8927 268.455359 
L 122.3391 239.758777 
L 122.7855 282.416655 
L 123.2319 263.084383 
L 123.6783 251.347966 
L 124.1247 156.915181 
L 124.5711 286.862582 
L 125.0175 191.25467 
L 125.4639 234.238223 
L 125.9103 123.814324 
L 126.3567 176.531377 
L 126.8031 290.271333 
L 127.2495 126.95693 
L 127.6959 283.435125 
L 128.1423 255.089277 
L 128.5887 247.062654 
L 129.0351 265.733478 
L 129.4815 186.489209 
L 129.9279 253.116031 
L 130.3743 280.891733 
L 130.8207 236.900121 
L 131.2671 241.970715 
L 131.7135 267.989263 
L 132.1599 269.472768 
L 132.6063 202.327391 
L 133.0527 242.062133 
L 133.4991 257.99553 
L 133.9455 222.162981 
L 134.3919 290.845293 
L 134.8383 288.963882 
L 135.2847 280.410604 
L 135.7311 305.398741 
L 136.1775 220.293639 
L 136.6239 305.451195 
L 137.0703 163.583166 
L 137.5167 259.618432 
L 138.4095 297.142097 
L 138.8559 285.656282 
L 139.3023 247.182479 
L 139.7487 274.562347 
L 140.1951 288.527322 
L 140.6415 235.293063 
L 141.5343 286.518485 
L 141.9807 146.410381 
L 142.4271 211.820662 
L 142.8735 100.224479 
L 143.3199 162.806373 
L 143.7663 275.551645 
L 144.2127 221.7468 
L 144.6591 189.629376 
L 145.1055 304.201729 
L 145.5519 260.215652 
L 145.9983 192.031139 
L 146.4447 258.050601 
L 146.8911 118.859957 
L 147.3375 290.687617 
L 147.7839 285.308301 
L 148.2303 252.948447 
L 148.6767 266.948163 
L 149.1231 292.200045 
L 149.5695 246.00489 
L 150.0159 271.007769 
L 150.4623 287.295122 
L 150.9087 279.150366 
L 151.3551 185.986294 
L 151.8015 133.387343 
L 152.2479 292.384553 
L 152.6943 311.764449 
L 153.1407 130.869691 
L 153.5871 266.447951 
L 154.0335 272.551632 
L 154.4799 175.303373 
L 154.9263 283.854952 
L 155.3727 295.558105 
L 155.8191 157.652083 
L 156.2655 279.211009 
L 156.7119 169.418935 
L 157.1583 181.808243 
L 157.6047 162.06724 
L 158.0511 265.782684 
L 158.4975 263.393669 
L 158.9439 350.865005 
L 159.3903 337.196961 
L 159.8367 342.452852 
L 160.2831 341.077835 
L 160.7295 341.252773 
L 161.6223 328.889927 
L 162.0687 334.821981 
L 162.5151 332.684986 
L 162.9615 331.470995 
L 163.4079 330.613491 
L 163.8543 326.432557 
L 164.3007 333.282544 
L 164.7471 331.373065 
L 165.1935 328.018721 
L 165.6399 328.500133 
L 166.0863 330.048294 
L 166.5327 327.694694 
L 166.9791 326.941476 
L 167.4255 328.984864 
L 167.8719 328.628718 
L 168.3183 327.870574 
L 168.7647 324.626436 
L 169.2111 327.118082 
L 169.6575 322.464482 
L 170.1039 320.336991 
L 170.5503 324.323792 
L 170.9967 318.243821 
L 171.8895 324.96149 
L 172.3359 320.869033 
L 172.7823 323.364084 
L 173.2287 323.016006 
L 173.6751 324.073722 
L 174.1215 318.899631 
L 174.5679 321.671681 
L 175.0143 325.69187 
L 175.4607 322.430725 
L 175.9071 324.354459 
L 176.3535 313.563689 
L 176.7999 323.941209 
L 177.2463 316.857678 
L 177.6927 322.641623 
L 178.1391 323.632325 
L 178.5855 323.870799 
L 179.0319 319.163888 
L 179.4783 322.365945 
L 179.9247 320.200353 
L 180.3711 312.130846 
L 180.8175 312.735968 
L 181.2639 321.720342 
L 181.7103 312.05015 
L 182.1567 321.35951 
L 182.6031 320.843932 
L 183.4959 323.456042 
L 183.9423 320.493749 
L 184.3887 315.14959 
L 184.8351 318.321019 
L 185.2815 324.164938 
L 185.7279 315.375288 
L 186.1743 322.917884 
L 186.6207 323.299737 
L 187.0671 318.789827 
L 187.5135 323.550565 
L 187.9599 323.884754 
L 188.4063 323.63814 
L 189.2991 318.249317 
L 189.7455 321.870632 
L 190.1919 322.895145 
L 190.6383 322.017082 
L 191.0847 319.798281 
L 191.5311 313.004267 
L 191.9775 318.902296 
L 192.4239 318.982725 
L 192.8703 322.287406 
L 193.3167 321.031781 
L 193.7631 318.720889 
L 194.2095 318.118122 
L 194.6559 319.482118 
L 195.1023 321.752311 
L 195.5487 306.797546 
L 195.9951 314.858539 
L 196.4415 319.766531 
L 196.8879 323.242558 
L 197.3343 319.304833 
L 197.7807 317.790068 
L 198.2271 320.454442 
L 198.6735 311.543298 
L 199.1199 315.088222 
L 199.5663 321.917271 
L 200.0127 311.859486 
L 200.4591 318.348729 
L 200.9055 306.91263 
L 201.3519 317.214068 
L 201.7983 311.1434 
L 202.2447 310.085173 
L 202.6911 315.07444 
L 203.1375 317.375135 
L 203.5839 314.193686 
L 204.0303 313.673464 
L 204.4767 322.011432 
L 204.9231 302.175271 
L 205.3695 315.508926 
L 205.8159 314.044215 
L 206.2623 298.030154 
L 206.7087 302.929074 
L 207.1551 318.777492 
L 207.6015 305.450357 
L 208.0479 319.370382 
L 208.4943 308.040043 
L 208.9407 307.172609 
L 209.3871 317.771675 
L 209.8335 313.369367 
L 210.2799 321.617581 
L 210.7263 309.563071 
L 211.1727 308.201017 
L 211.6191 320.569592 
L 212.0655 302.671638 
L 212.5119 315.617676 
L 212.9583 314.630633 
L 213.4047 298.579764 
L 213.8511 310.657377 
L 214.2975 318.770217 
L 214.7439 299.958668 
L 215.1903 320.160181 
L 215.6367 313.00813 
L 216.0831 299.454878 
L 216.9759 317.742733 
L 217.4223 307.153963 
L 217.8687 313.612699 
L 218.3151 302.132249 
L 218.7615 308.610179 
L 219.2079 294.898987 
L 219.6543 303.3798 
L 220.1007 307.502814 
L 220.5471 313.689609 
L 220.9935 312.248849 
L 221.4399 316.050046 
L 221.8863 309.802552 
L 222.3327 310.799786 
L 222.7791 315.596835 
L 223.2255 300.810106 
L 223.6719 299.375841 
L 224.1183 313.921522 
L 224.5647 308.913324 
L 225.0111 300.440392 
L 225.4575 315.117128 
L 225.9039 311.742743 
L 226.3503 310.864126 
L 226.7967 306.629889 
L 227.2431 304.158237 
L 227.6895 318.333639 
L 228.1359 318.001053 
L 228.5823 306.03432 
L 229.0287 313.023037 
L 229.4751 311.84563 
L 229.9215 299.058519 
L 230.3679 311.210532 
L 230.8143 311.358841 
L 231.2607 296.922672 
L 231.7071 310.67758 
L 232.1535 307.744728 
L 232.5999 303.876525 
L 233.0463 313.985219 
L 233.4927 309.881411 
L 233.9391 301.619039 
L 234.3855 317.466921 
L 234.8319 314.234645 
L 235.2783 315.297295 
L 235.7247 314.021403 
L 236.1711 303.212867 
L 236.6175 311.612486 
L 237.0639 316.880297 
L 237.5103 289.647907 
L 237.9567 307.354742 
L 238.4031 299.180481 
L 238.8495 296.866156 
L 239.2959 311.267453 
L 239.7423 306.263597 
L 240.1887 305.532584 
L 240.6351 309.208343 
L 241.0815 310.03876 
L 241.5279 312.144197 
L 241.9743 309.679655 
L 242.4207 311.006456 
L 242.8671 316.272211 
L 243.3135 306.375827 
L 243.7599 303.589901 
L 244.2063 310.647822 
L 244.6527 305.62475 
L 245.0991 306.6429 
L 245.5455 316.597439 
L 245.9919 308.178955 
L 246.4383 294.511269 
L 246.8847 296.712751 
L 247.3311 304.064899 
L 247.7775 315.0692 
L 248.2239 300.67041 
L 248.6703 307.906434 
L 249.1167 308.806384 
L 249.5631 296.279871 
L 250.4559 317.92581 
L 250.9023 295.246247 
L 251.3487 285.032423 
L 251.7951 308.934025 
L 252.2415 300.732544 
L 252.6879 313.97646 
L 253.1343 300.126492 
L 253.5807 304.37453 
L 254.0271 291.959468 
L 254.4735 313.353122 
L 255.3663 286.18203 
L 255.8127 306.419476 
L 256.2591 307.912212 
L 256.7055 311.091252 
L 257.1519 285.21738 
L 257.5983 305.846486 
L 258.0447 311.678781 
L 258.4911 305.921614 
L 258.9375 293.892991 
L 259.3839 312.501031 
L 259.8303 302.363743 
L 260.2767 297.422574 
L 260.7231 304.351694 
L 261.1695 292.548501 
L 261.6159 314.688085 
L 262.0623 289.561149 
L 262.5087 293.614952 
L 262.9551 301.068421 
L 263.4015 300.739921 
L 263.8479 298.797135 
L 264.2943 308.935721 
L 264.7407 302.350441 
L 265.1871 297.540753 
L 266.0799 305.615357 
L 266.5263 314.833414 
L 266.9727 292.686135 
L 267.8655 308.47508 
L 268.3119 305.368645 
L 268.7583 286.592612 
L 269.2047 300.87993 
L 269.6511 304.367592 
L 270.0975 284.604334 
L 270.5439 283.660932 
L 270.9903 290.793019 
L 271.4367 302.445434 
L 271.8831 282.785384 
L 272.3295 299.433431 
L 272.7759 287.825025 
L 273.2223 299.77995 
L 273.6687 296.359976 
L 274.1151 303.858926 
L 274.5615 308.893629 
L 275.0079 293.943049 
L 275.4543 304.126131 
L 275.9007 303.84567 
L 276.3471 282.531167 
L 277.2399 304.350569 
L 277.6863 296.195829 
L 278.1327 312.187144 
L 278.5791 281.873183 
L 279.0255 303.326646 
L 279.4719 298.470825 
L 279.9183 287.871647 
L 280.8111 312.816935 
L 281.2575 300.736285 
L 281.7039 295.098567 
L 282.1503 292.690789 
L 282.5967 296.463899 
L 283.0431 287.675911 
L 283.4895 292.288899 
L 283.9359 287.156763 
L 284.3823 306.151079 
L 284.8287 279.873698 
L 285.2751 281.076398 
L 285.7215 288.960111 
L 286.1679 306.457278 
L 286.6143 289.695892 
L 287.5071 296.903942 
L 287.9535 298.877971 
L 288.3999 275.746606 
L 288.8463 272.099475 
L 289.2927 313.806436 
L 290.1855 291.747578 
L 290.6319 300.450463 
L 291.0783 297.08839 
L 291.5247 283.178368 
L 291.9711 285.223418 
L 292.4175 281.955049 
L 292.8639 295.202796 
L 293.3103 278.846008 
L 293.7567 305.088422 
L 294.2031 289.438784 
L 294.6495 297.916092 
L 295.0959 287.364753 
L 295.5423 303.17317 
L 295.9887 296.430008 
L 296.4351 300.140622 
L 296.8815 278.836714 
L 297.3279 299.172552 
L 297.7743 292.485858 
L 298.2207 262.519489 
L 298.6671 289.383966 
L 299.1135 297.957358 
L 300.0063 273.6271 
L 300.4527 313.196614 
L 300.8991 284.271841 
L 301.3455 291.048287 
L 301.7919 279.063095 
L 302.6847 301.410251 
L 303.1311 292.662257 
L 303.5775 301.797995 
L 304.0239 268.577244 
L 304.4703 282.282435 
L 304.9167 290.173404 
L 305.3631 300.194765 
L 305.8095 280.35627 
L 306.2559 293.652501 
L 306.7023 292.811062 
L 307.1487 289.409477 
L 307.5951 290.705311 
L 308.0415 284.16101 
L 308.4879 286.106183 
L 308.9343 301.413917 
L 309.3807 277.450179 
L 309.8271 279.931328 
L 310.2735 275.630195 
L 310.7199 262.058184 
L 311.1663 286.75531 
L 312.0591 301.863323 
L 312.5055 285.950123 
L 312.9519 282.683841 
L 313.3983 295.376965 
L 313.8447 302.940583 
L 314.7375 281.898039 
L 315.1839 294.441966 
L 315.6303 285.349049 
L 316.0767 281.886009 
L 316.5231 268.956004 
L 316.9695 283.339258 
L 317.4159 265.43733 
L 317.8623 285.458359 
L 318.3087 293.319972 
L 318.7551 273.903062 
L 319.2015 294.031468 
L 319.6479 271.228564 
L 320.5407 298.31588 
L 320.9871 293.546463 
L 321.4335 294.266335 
L 321.8799 286.906187 
L 322.3263 286.528728 
L 322.7727 298.596835 
L 323.2191 305.123585 
L 323.6655 270.558629 
L 324.1119 294.117018 
L 324.5583 288.535958 
L 325.0047 289.426631 
L 325.4511 289.093462 
L 325.8975 274.850931 
L 326.3439 294.284824 
L 326.7903 276.307 
L 327.6831 283.373779 
L 328.1295 290.905058 
L 329.0223 268.427603 
L 329.4687 273.073239 
L 329.9151 296.35481 
L 330.3615 281.117006 
L 330.8079 287.289299 
L 331.2543 283.047152 
L 331.7007 282.900492 
L 332.1471 302.164976 
L 332.5935 289.8936 
L 333.0399 302.152165 
L 333.4863 263.118612 
L 333.9327 284.051619 
L 334.3791 290.447262 
L 334.8255 274.564179 
L 335.2719 278.902393 
L 335.7183 279.499727 
L 336.1647 282.266283 
L 336.6111 278.492776 
L 337.0575 287.689643 
L 337.5039 267.415802 
L 337.9503 282.36602 
L 338.3967 290.213785 
L 338.8431 284.079349 
L 339.2895 296.906096 
L 339.7359 290.433977 
L 340.1823 288.425694 
L 340.6287 289.97587 
L 341.0751 278.880565 
L 341.5215 293.456678 
L 341.9679 276.230144 
L 342.4143 270.385946 
L 342.8607 273.896895 
L 343.3071 281.492468 
L 343.7535 264.238476 
L 344.1999 279.032481 
L 344.6463 256.718013 
L 345.0927 280.176272 
L 345.5391 287.209411 
L 345.9855 282.703813 
L 346.4319 285.563043 
L 346.8783 284.611253 
L 347.3247 280.086655 
L 347.7711 258.778568 
L 348.6639 276.61062 
L 349.1103 279.344545 
L 349.5567 262.306071 
L 350.0031 269.249695 
L 350.4495 267.750439 
L 350.8959 275.243357 
L 351.3423 285.205097 
L 351.7887 271.941162 
L 352.2351 272.179815 
L 352.6815 266.050898 
L 353.1279 267.399723 
L 353.5743 274.481662 
L 354.0207 251.950418 
L 354.4671 258.858946 
L 355.3599 308.34185 
L 355.8063 271.555585 
L 356.2527 258.769125 
L 356.6991 258.89028 
L 357.5919 288.914528 
L 358.0383 282.314557 
L 358.4847 301.33284 
L 358.9311 294.767143 
L 359.8239 272.653355 
L 360.2703 264.869314 
L 360.7167 279.294942 
L 361.1631 288.631846 
L 361.6095 270.835311 
L 362.0559 269.072918 
L 362.5023 285.800097 
L 362.9487 284.285512 
L 363.8415 267.76827 
L 364.2879 255.746875 
L 364.7343 296.317437 
L 365.1807 278.735827 
L 365.6271 282.087673 
L 366.0735 292.050593 
L 366.5199 279.575601 
L 366.9663 289.872577 
L 367.4127 274.767396 
L 367.8591 278.776631 
L 368.3055 279.767971 
L 368.7519 273.429936 
L 369.1983 265.279863 
L 369.6447 262.605362 
L 370.0911 278.712165 
L 370.5375 261.825708 
L 370.9839 283.640185 
L 371.4303 280.375614 
L 371.8767 265.88752 
L 372.3231 280.728757 
L 372.7695 279.502556 
L 373.2159 280.849828 
L 373.6623 270.882863 
L 374.1087 294.505103 
L 374.5551 264.48572 
L 375.0015 256.020244 
L 375.4479 287.010797 
L 375.8943 272.958512 
L 376.3407 273.464552 
L 376.7871 251.476447 
L 377.2335 271.483106 
L 377.6799 272.883254 
L 378.1263 259.704605 
L 378.5727 278.402271 
L 379.0191 265.454069 
L 379.4655 243.42668 
L 379.9119 286.358337 
L 380.3583 260.269484 
L 380.8047 240.689806 
L 381.2511 272.941777 
L 381.6975 284.295651 
L 382.1439 273.470859 
L 382.5903 285.210066 
L 383.0367 261.17195 
L 383.4831 262.260685 
L 383.9295 270.119448 
L 384.3759 253.566193 
L 384.8223 270.422589 
L 385.2687 249.538657 
L 385.7151 279.690666 
L 386.1615 263.910044 
L 386.6079 294.377374 
L 387.5007 267.151054 
L 387.9471 270.591305 
L 388.3935 246.864542 
L 388.8399 277.419396 
L 389.2863 274.88994 
L 390.1791 255.097682 
L 390.6255 276.266133 
L 391.0719 263.057287 
L 391.5183 272.833311 
L 391.9647 241.224461 
L 392.4111 282.419267 
L 392.8575 247.929806 
L 393.3039 268.359283 
L 393.7503 270.235778 
L 394.1967 267.947383 
L 394.6431 255.964928 
L 395.0895 270.34353 
L 395.5359 257.022787 
L 395.9823 268.555923 
L 396.4287 264.634593 
L 396.8751 274.480126 
L 397.3215 259.127708 
L 397.7679 267.683712 
L 398.2143 255.664666 
L 398.6607 247.445537 
L 399.1071 279.974068 
L 399.5535 269.459238 
L 399.9999 284.882274 
L 400.4463 265.426233 
L 400.8927 262.852294 
L 401.3391 287.657337 
L 401.7855 263.54077 
L 402.2319 262.85074 
L 402.6783 275.532295 
L 403.1247 276.82282 
L 404.0175 262.127619 
L 404.4639 277.068571 
L 404.9103 265.110723 
L 405.3567 274.007228 
L 405.8031 246.659219 
L 406.2495 278.728978 
L 407.1423 261.724464 
L 407.5887 266.213603 
L 408.0351 283.167055 
L 408.4815 279.434242 
L 408.9279 273.692176 
L 409.3743 259.934888 
L 409.8207 268.757751 
L 410.2671 255.693636 
L 410.7135 267.155751 
L 411.1599 274.739042 
L 411.6063 255.909616 
L 412.0527 248.850529 
L 412.4991 259.509586 
L 412.9455 286.36555 
L 413.3919 256.397636 
L 413.8383 242.361505 
L 414.2847 266.913249 
L 414.7311 265.72512 
L 415.1775 272.069602 
L 415.6239 270.276066 
L 416.0703 281.95649 
L 416.5167 278.990378 
L 416.9631 260.969964 
L 417.4095 283.182868 
L 417.8559 266.12566 
L 418.3023 268.336156 
L 418.7487 263.418067 
L 419.1951 247.474142 
L 419.6415 251.945975 
L 420.0879 262.582741 
L 420.5343 265.142236 
L 420.9807 257.863136 
L 421.4271 256.195032 
L 421.8735 210.12979 
L 422.3199 249.823277 
L 422.7663 238.913869 
L 423.2127 246.837154 
L 423.6591 258.19122 
L 424.1055 264.422183 
L 424.5519 233.385995 
L 424.9983 249.593608 
L 425.4447 238.561739 
L 425.8911 241.979652 
L 426.3375 231.598734 
L 426.7839 243.657922 
L 427.2303 274.054937 
L 427.6767 254.039377 
L 428.1231 266.244037 
L 428.5695 249.025631 
L 429.0159 236.928686 
L 429.4623 263.799518 
L 429.9087 256.507286 
L 430.3551 270.591638 
L 430.8015 237.707093 
L 431.2479 218.145482 
L 431.6943 266.286978 
L 432.1407 247.735173 
L 432.5871 267.502324 
L 433.0335 254.188668 
L 433.4799 224.489341 
L 433.9263 210.02041 
L 434.3727 258.88924 
L 434.8191 269.51891 
L 435.2655 266.98086 
L 435.7119 208.809892 
L 436.6047 255.240453 
L 437.0511 265.982096 
L 437.4975 222.834872 
L 438.3903 256.887792 
L 438.8367 233.841476 
L 439.2831 236.0397 
L 439.7295 237.452681 
L 440.1759 222.821884 
L 440.6223 265.908731 
L 441.0687 266.664482 
L 441.5151 242.102322 
L 441.9615 265.534792 
L 442.4079 260.617835 
L 442.8543 272.070811 
L 443.3007 247.102731 
L 443.7471 229.002673 
L 444.1935 272.203993 
L 445.0863 251.096415 
L 445.5327 254.880529 
L 445.9791 241.897132 
L 446.4255 210.657203 
L 446.8719 239.799256 
L 447.3183 219.279235 
L 447.7647 242.625837 
L 448.2111 243.029996 
L 448.6575 245.407827 
L 449.1039 253.133041 
L 449.5503 265.389268 
L 449.9967 243.898167 
L 450.8895 271.274438 
L 451.3359 222.741489 
L 451.7823 210.353391 
L 452.2287 244.654885 
L 452.6751 240.183414 
L 453.1215 257.933521 
L 453.5679 253.627935 
L 454.0143 244.990434 
L 454.4607 263.889938 
L 454.9071 252.298159 
L 455.3535 236.629099 
L 455.7999 210.38835 
L 456.2463 222.672668 
L 456.6927 263.001433 
L 457.1391 217.774273 
L 457.5855 196.366886 
L 458.0319 202.613463 
L 458.9247 236.512529 
L 459.3711 230.215741 
L 459.8175 212.000393 
L 460.2639 205.118236 
L 460.7103 218.164764 
L 461.1567 213.108513 
L 461.6031 211.307597 
L 462.0495 261.479421 
L 462.4959 225.748953 
L 462.9423 248.173827 
L 463.3887 230.81855 
L 463.8351 226.702324 
L 464.2815 239.826007 
L 464.7279 242.728527 
L 465.1743 256.107217 
L 465.6207 247.733199 
L 466.0671 283.5941 
L 466.5135 242.998703 
L 466.9599 269.43863 
L 467.4063 260.669248 
L 467.8527 266.596312 
L 468.2991 247.244522 
L 468.7455 257.061086 
L 469.1919 241.612676 
L 469.6383 240.035416 
L 470.0847 242.421833 
L 470.5311 268.537642 
L 470.9775 204.237907 
L 471.4239 200.400747 
L 471.8703 249.205777 
L 472.3167 228.440708 
L 472.7631 222.160046 
L 473.2095 218.288458 
L 473.6559 223.501048 
L 474.1023 230.576312 
L 474.5487 256.948921 
L 474.9951 220.431837 
L 475.4415 243.148093 
L 475.8879 184.377679 
L 476.3343 272.259337 
L 476.7807 192.318593 
L 477.2271 265.411887 
L 477.6735 176.321597 
L 478.1199 233.938247 
L 478.5663 239.465875 
L 479.0127 231.222002 
L 479.4591 251.528338 
L 479.9055 250.751592 
L 480.3519 230.731657 
L 480.7983 230.197009 
L 481.2447 210.717096 
L 481.6911 243.525958 
L 482.1375 216.900363 
L 482.5839 241.172045 
L 483.0303 180.688599 
L 483.4767 242.044229 
L 483.9231 265.676473 
L 484.3695 247.808644 
L 484.8159 236.51732 
L 485.2623 197.999286 
L 485.7087 234.123452 
L 486.1551 184.147804 
L 486.6015 244.785385 
L 487.0479 219.982402 
L 487.4943 248.781861 
L 487.9407 231.505003 
L 488.3871 260.910819 
L 488.8335 245.219743 
L 489.2799 182.236931 
L 489.7263 230.487065 
L 490.6191 253.83648 
L 491.0655 253.639674 
L 491.5119 205.859822 
L 491.9583 225.866764 
L 492.4047 238.462699 
L 492.8511 211.93887 
L 492.8511 211.93887 
" style="fill:none;stroke:#0000ff;stroke-linecap:square;stroke-width:0.5;"/>
   </g>
   <g id="patch_3">
    <path d="M 46.8975 368.74175 
L 493.2975 368.74175 
" style="fill:none;stroke:#000000;stroke-linecap:square;stroke-linejoin:miter;"/>
   </g>
   <g id="patch_4">
    <path d="M 46.8975 23.14175 
L 493.2975 23.14175 
" style="fill:none;stroke:#000000;stroke-linecap:square;stroke-linejoin:miter;"/>
   </g>
   <g id="patch_5">
    <path d="M 493.2975 368.74175 
L 493.2975 23.14175 
" style="fill:none;stroke:#000000;stroke-linecap:square;stroke-linejoin:miter;"/>
   </g>
   <g id="patch_6">
    <path d="M 46.8975 368.74175 
L 46.8975 23.14175 
" style="fill:none;stroke:#000000;stroke-linecap:square;stroke-linejoin:miter;"/>
   </g>
   <g id="matplotlib.axis_1">
    <g id="xtick_1">
     <g id="line2d_2">
      <defs>
       <path d="M 0 0 
L 0 -4 
" id="m6c367cb61c" style="stroke:#000000;stroke-width:0.5;"/>
      </defs>
      <g>
       <use style="stroke:#000000;stroke-width:0.5;" x="46.8975" xlink:href="#m6c367cb61c" y="368.74175"/>
      </g>
     </g>
     <g id="line2d_3">
      <defs>
       <path d="M 0 0 
L 0 4 
" id="m9689df4bc4" style="stroke:#000000;stroke-width:0.5;"/>
      </defs>
      <g>
       <use style="stroke:#000000;stroke-width:0.5;" x="46.8975" xlink:href="#m9689df4bc4" y="23.14175"/>
      </g>
     </g>
     <g id="text_1">
      <!-- 0 -->
      <defs>
       <path d="M 31.78125 66.40625 
Q 24.171875 66.40625 20.328125 58.90625 
Q 16.5 51.421875 16.5 36.375 
Q 16.5 21.390625 20.328125 13.890625 
Q 24.171875 6.390625 31.78125 6.390625 
Q 39.453125 6.390625 43.28125 13.890625 
Q 47.125 21.390625 47.125 36.375 
Q 47.125 51.421875 43.28125 58.90625 
Q 39.453125 66.40625 31.78125 66.40625 
M 31.78125 74.21875 
Q 44.046875 74.21875 50.515625 64.515625 
Q 56.984375 54.828125 56.984375 36.375 
Q 56.984375 17.96875 50.515625 8.265625 
Q 44.046875 -1.421875 31.78125 -1.421875 
Q 19.53125 -1.421875 13.0625 8.265625 
Q 6.59375 17.96875 6.59375 36.375 
Q 6.59375 54.828125 13.0625 64.515625 
Q 19.53125 74.21875 31.78125 74.21875 
" id="BitstreamVeraSans-Roman-30"/>
      </defs>
      <g transform="translate(43.08 381.859875)scale(0.12 -0.12)">
       <use xlink:href="#BitstreamVeraSans-Roman-30"/>
      </g>
     </g>
    </g>
    <g id="xtick_2">
     <g id="line2d_4">
      <g>
       <use style="stroke:#000000;stroke-width:0.5;" x="136.1775" xlink:href="#m6c367cb61c" y="368.74175"/>
      </g>
     </g>
     <g id="line2d_5">
      <g>
       <use style="stroke:#000000;stroke-width:0.5;" x="136.1775" xlink:href="#m9689df4bc4" y="23.14175"/>
      </g>
     </g>
     <g id="text_2">
      <!-- 200 -->
      <defs>
       <path d="M 19.1875 8.296875 
L 53.609375 8.296875 
L 53.609375 0 
L 7.328125 0 
L 7.328125 8.296875 
Q 12.9375 14.109375 22.625 23.890625 
Q 32.328125 33.6875 34.8125 36.53125 
Q 39.546875 41.84375 41.421875 45.53125 
Q 43.3125 49.21875 43.3125 52.78125 
Q 43.3125 58.59375 39.234375 62.25 
Q 35.15625 65.921875 28.609375 65.921875 
Q 23.96875 65.921875 18.8125 64.3125 
Q 13.671875 62.703125 7.8125 59.421875 
L 7.8125 69.390625 
Q 13.765625 71.78125 18.9375 73 
Q 24.125 74.21875 28.421875 74.21875 
Q 39.75 74.21875 46.484375 68.546875 
Q 53.21875 62.890625 53.21875 53.421875 
Q 53.21875 48.921875 51.53125 44.890625 
Q 49.859375 40.875 45.40625 35.40625 
Q 44.1875 33.984375 37.640625 27.21875 
Q 31.109375 20.453125 19.1875 8.296875 
" id="BitstreamVeraSans-Roman-32"/>
      </defs>
      <g transform="translate(124.725 381.859875)scale(0.12 -0.12)">
       <use xlink:href="#BitstreamVeraSans-Roman-32"/>
       <use x="63.623046875" xlink:href="#BitstreamVeraSans-Roman-30"/>
       <use x="127.24609375" xlink:href="#BitstreamVeraSans-Roman-30"/>
      </g>
     </g>
    </g>
    <g id="xtick_3">
     <g id="line2d_6">
      <g>
       <use style="stroke:#000000;stroke-width:0.5;" x="225.4575" xlink:href="#m6c367cb61c" y="368.74175"/>
      </g>
     </g>
     <g id="line2d_7">
      <g>
       <use style="stroke:#000000;stroke-width:0.5;" x="225.4575" xlink:href="#m9689df4bc4" y="23.14175"/>
      </g>
     </g>
     <g id="text_3">
      <!-- 400 -->
      <defs>
       <path d="M 37.796875 64.3125 
L 12.890625 25.390625 
L 37.796875 25.390625 
z
M 35.203125 72.90625 
L 47.609375 72.90625 
L 47.609375 25.390625 
L 58.015625 25.390625 
L 58.015625 17.1875 
L 47.609375 17.1875 
L 47.609375 0 
L 37.796875 0 
L 37.796875 17.1875 
L 4.890625 17.1875 
L 4.890625 26.703125 
z
" id="BitstreamVeraSans-Roman-34"/>
      </defs>
      <g transform="translate(214.005 381.859875)scale(0.12 -0.12)">
       <use xlink:href="#BitstreamVeraSans-Roman-34"/>
       <use x="63.623046875" xlink:href="#BitstreamVeraSans-Roman-30"/>
       <use x="127.24609375" xlink:href="#BitstreamVeraSans-Roman-30"/>
      </g>
     </g>
    </g>
    <g id="xtick_4">
     <g id="line2d_8">
      <g>
       <use style="stroke:#000000;stroke-width:0.5;" x="314.7375" xlink:href="#m6c367cb61c" y="368.74175"/>
      </g>
     </g>
     <g id="line2d_9">
      <g>
       <use style="stroke:#000000;stroke-width:0.5;" x="314.7375" xlink:href="#m9689df4bc4" y="23.14175"/>
      </g>
     </g>
     <g id="text_4">
      <!-- 600 -->
      <defs>
       <path d="M 33.015625 40.375 
Q 26.375 40.375 22.484375 35.828125 
Q 18.609375 31.296875 18.609375 23.390625 
Q 18.609375 15.53125 22.484375 10.953125 
Q 26.375 6.390625 33.015625 6.390625 
Q 39.65625 6.390625 43.53125 10.953125 
Q 47.40625 15.53125 47.40625 23.390625 
Q 47.40625 31.296875 43.53125 35.828125 
Q 39.65625 40.375 33.015625 40.375 
M 52.59375 71.296875 
L 52.59375 62.3125 
Q 48.875 64.0625 45.09375 64.984375 
Q 41.3125 65.921875 37.59375 65.921875 
Q 27.828125 65.921875 22.671875 59.328125 
Q 17.53125 52.734375 16.796875 39.40625 
Q 19.671875 43.65625 24.015625 45.921875 
Q 28.375 48.1875 33.59375 48.1875 
Q 44.578125 48.1875 50.953125 41.515625 
Q 57.328125 34.859375 57.328125 23.390625 
Q 57.328125 12.15625 50.6875 5.359375 
Q 44.046875 -1.421875 33.015625 -1.421875 
Q 20.359375 -1.421875 13.671875 8.265625 
Q 6.984375 17.96875 6.984375 36.375 
Q 6.984375 53.65625 15.1875 63.9375 
Q 23.390625 74.21875 37.203125 74.21875 
Q 40.921875 74.21875 44.703125 73.484375 
Q 48.484375 72.75 52.59375 71.296875 
" id="BitstreamVeraSans-Roman-36"/>
      </defs>
      <g transform="translate(303.285 381.859875)scale(0.12 -0.12)">
       <use xlink:href="#BitstreamVeraSans-Roman-36"/>
       <use x="63.623046875" xlink:href="#BitstreamVeraSans-Roman-30"/>
       <use x="127.24609375" xlink:href="#BitstreamVeraSans-Roman-30"/>
      </g>
     </g>
    </g>
    <g id="xtick_5">
     <g id="line2d_10">
      <g>
       <use style="stroke:#000000;stroke-width:0.5;" x="404.0175" xlink:href="#m6c367cb61c" y="368.74175"/>
      </g>
     </g>
     <g id="line2d_11">
      <g>
       <use style="stroke:#000000;stroke-width:0.5;" x="404.0175" xlink:href="#m9689df4bc4" y="23.14175"/>
      </g>
     </g>
     <g id="text_5">
      <!-- 800 -->
      <defs>
       <path d="M 31.78125 34.625 
Q 24.75 34.625 20.71875 30.859375 
Q 16.703125 27.09375 16.703125 20.515625 
Q 16.703125 13.921875 20.71875 10.15625 
Q 24.75 6.390625 31.78125 6.390625 
Q 38.8125 6.390625 42.859375 10.171875 
Q 46.921875 13.96875 46.921875 20.515625 
Q 46.921875 27.09375 42.890625 30.859375 
Q 38.875 34.625 31.78125 34.625 
M 21.921875 38.8125 
Q 15.578125 40.375 12.03125 44.71875 
Q 8.5 49.078125 8.5 55.328125 
Q 8.5 64.0625 14.71875 69.140625 
Q 20.953125 74.21875 31.78125 74.21875 
Q 42.671875 74.21875 48.875 69.140625 
Q 55.078125 64.0625 55.078125 55.328125 
Q 55.078125 49.078125 51.53125 44.71875 
Q 48 40.375 41.703125 38.8125 
Q 48.828125 37.15625 52.796875 32.3125 
Q 56.78125 27.484375 56.78125 20.515625 
Q 56.78125 9.90625 50.3125 4.234375 
Q 43.84375 -1.421875 31.78125 -1.421875 
Q 19.734375 -1.421875 13.25 4.234375 
Q 6.78125 9.90625 6.78125 20.515625 
Q 6.78125 27.484375 10.78125 32.3125 
Q 14.796875 37.15625 21.921875 38.8125 
M 18.3125 54.390625 
Q 18.3125 48.734375 21.84375 45.5625 
Q 25.390625 42.390625 31.78125 42.390625 
Q 38.140625 42.390625 41.71875 45.5625 
Q 45.3125 48.734375 45.3125 54.390625 
Q 45.3125 60.0625 41.71875 63.234375 
Q 38.140625 66.40625 31.78125 66.40625 
Q 25.390625 66.40625 21.84375 63.234375 
Q 18.3125 60.0625 18.3125 54.390625 
" id="BitstreamVeraSans-Roman-38"/>
      </defs>
      <g transform="translate(392.565 381.859875)scale(0.12 -0.12)">
       <use xlink:href="#BitstreamVeraSans-Roman-38"/>
       <use x="63.623046875" xlink:href="#BitstreamVeraSans-Roman-30"/>
       <use x="127.24609375" xlink:href="#BitstreamVeraSans-Roman-30"/>
      </g>
     </g>
    </g>
    <g id="xtick_6">
     <g id="line2d_12">
      <g>
       <use style="stroke:#000000;stroke-width:0.5;" x="493.2975" xlink:href="#m6c367cb61c" y="368.74175"/>
      </g>
     </g>
     <g id="line2d_13">
      <g>
       <use style="stroke:#000000;stroke-width:0.5;" x="493.2975" xlink:href="#m9689df4bc4" y="23.14175"/>
      </g>
     </g>
     <g id="text_6">
      <!-- 1000 -->
      <defs>
       <path d="M 12.40625 8.296875 
L 28.515625 8.296875 
L 28.515625 63.921875 
L 10.984375 60.40625 
L 10.984375 69.390625 
L 28.421875 72.90625 
L 38.28125 72.90625 
L 38.28125 8.296875 
L 54.390625 8.296875 
L 54.390625 0 
L 12.40625 0 
z
" id="BitstreamVeraSans-Roman-31"/>
      </defs>
      <g transform="translate(478.0275 381.859875)scale(0.12 -0.12)">
       <use xlink:href="#BitstreamVeraSans-Roman-31"/>
       <use x="63.623046875" xlink:href="#BitstreamVeraSans-Roman-30"/>
       <use x="127.24609375" xlink:href="#BitstreamVeraSans-Roman-30"/>
       <use x="190.869140625" xlink:href="#BitstreamVeraSans-Roman-30"/>
      </g>
     </g>
    </g>
    <g id="text_7">
     <!-- episode -->
     <defs>
      <path d="M 56.203125 29.59375 
L 56.203125 25.203125 
L 14.890625 25.203125 
Q 15.484375 15.921875 20.484375 11.0625 
Q 25.484375 6.203125 34.421875 6.203125 
Q 39.59375 6.203125 44.453125 7.46875 
Q 49.3125 8.734375 54.109375 11.28125 
L 54.109375 2.78125 
Q 49.265625 0.734375 44.1875 -0.34375 
Q 39.109375 -1.421875 33.890625 -1.421875 
Q 20.796875 -1.421875 13.15625 6.1875 
Q 5.515625 13.8125 5.515625 26.8125 
Q 5.515625 40.234375 12.765625 48.109375 
Q 20.015625 56 32.328125 56 
Q 43.359375 56 49.78125 48.890625 
Q 56.203125 41.796875 56.203125 29.59375 
M 47.21875 32.234375 
Q 47.125 39.59375 43.09375 43.984375 
Q 39.0625 48.390625 32.421875 48.390625 
Q 24.90625 48.390625 20.390625 44.140625 
Q 15.875 39.890625 15.1875 32.171875 
z
" id="BitstreamVeraSans-Roman-65"/>
      <path d="M 45.40625 46.390625 
L 45.40625 75.984375 
L 54.390625 75.984375 
L 54.390625 0 
L 45.40625 0 
L 45.40625 8.203125 
Q 42.578125 3.328125 38.25 0.953125 
Q 33.9375 -1.421875 27.875 -1.421875 
Q 17.96875 -1.421875 11.734375 6.484375 
Q 5.515625 14.40625 5.515625 27.296875 
Q 5.515625 40.1875 11.734375 48.09375 
Q 17.96875 56 27.875 56 
Q 33.9375 56 38.25 53.625 
Q 42.578125 51.265625 45.40625 46.390625 
M 14.796875 27.296875 
Q 14.796875 17.390625 18.875 11.75 
Q 22.953125 6.109375 30.078125 6.109375 
Q 37.203125 6.109375 41.296875 11.75 
Q 45.40625 17.390625 45.40625 27.296875 
Q 45.40625 37.203125 41.296875 42.84375 
Q 37.203125 48.484375 30.078125 48.484375 
Q 22.953125 48.484375 18.875 42.84375 
Q 14.796875 37.203125 14.796875 27.296875 
" id="BitstreamVeraSans-Roman-64"/>
      <path d="M 9.421875 54.6875 
L 18.40625 54.6875 
L 18.40625 0 
L 9.421875 0 
z
M 9.421875 75.984375 
L 18.40625 75.984375 
L 18.40625 64.59375 
L 9.421875 64.59375 
z
" id="BitstreamVeraSans-Roman-69"/>
      <path d="M 44.28125 53.078125 
L 44.28125 44.578125 
Q 40.484375 46.53125 36.375 47.5 
Q 32.28125 48.484375 27.875 48.484375 
Q 21.1875 48.484375 17.84375 46.4375 
Q 14.5 44.390625 14.5 40.28125 
Q 14.5 37.15625 16.890625 35.375 
Q 19.28125 33.59375 26.515625 31.984375 
L 29.59375 31.296875 
Q 39.15625 29.25 43.1875 25.515625 
Q 47.21875 21.78125 47.21875 15.09375 
Q 47.21875 7.46875 41.1875 3.015625 
Q 35.15625 -1.421875 24.609375 -1.421875 
Q 20.21875 -1.421875 15.453125 -0.5625 
Q 10.6875 0.296875 5.421875 2 
L 5.421875 11.28125 
Q 10.40625 8.6875 15.234375 7.390625 
Q 20.0625 6.109375 24.8125 6.109375 
Q 31.15625 6.109375 34.5625 8.28125 
Q 37.984375 10.453125 37.984375 14.40625 
Q 37.984375 18.0625 35.515625 20.015625 
Q 33.0625 21.96875 24.703125 23.78125 
L 21.578125 24.515625 
Q 13.234375 26.265625 9.515625 29.90625 
Q 5.8125 33.546875 5.8125 39.890625 
Q 5.8125 47.609375 11.28125 51.796875 
Q 16.75 56 26.8125 56 
Q 31.78125 56 36.171875 55.265625 
Q 40.578125 54.546875 44.28125 53.078125 
" id="BitstreamVeraSans-Roman-73"/>
      <path d="M 18.109375 8.203125 
L 18.109375 -20.796875 
L 9.078125 -20.796875 
L 9.078125 54.6875 
L 18.109375 54.6875 
L 18.109375 46.390625 
Q 20.953125 51.265625 25.265625 53.625 
Q 29.59375 56 35.59375 56 
Q 45.5625 56 51.78125 48.09375 
Q 58.015625 40.1875 58.015625 27.296875 
Q 58.015625 14.40625 51.78125 6.484375 
Q 45.5625 -1.421875 35.59375 -1.421875 
Q 29.59375 -1.421875 25.265625 0.953125 
Q 20.953125 3.328125 18.109375 8.203125 
M 48.6875 27.296875 
Q 48.6875 37.203125 44.609375 42.84375 
Q 40.53125 48.484375 33.40625 48.484375 
Q 26.265625 48.484375 22.1875 42.84375 
Q 18.109375 37.203125 18.109375 27.296875 
Q 18.109375 17.390625 22.1875 11.75 
Q 26.265625 6.109375 33.40625 6.109375 
Q 40.53125 6.109375 44.609375 11.75 
Q 48.6875 17.390625 48.6875 27.296875 
" id="BitstreamVeraSans-Roman-70"/>
      <path d="M 30.609375 48.390625 
Q 23.390625 48.390625 19.1875 42.75 
Q 14.984375 37.109375 14.984375 27.296875 
Q 14.984375 17.484375 19.15625 11.84375 
Q 23.34375 6.203125 30.609375 6.203125 
Q 37.796875 6.203125 41.984375 11.859375 
Q 46.1875 17.53125 46.1875 27.296875 
Q 46.1875 37.015625 41.984375 42.703125 
Q 37.796875 48.390625 30.609375 48.390625 
M 30.609375 56 
Q 42.328125 56 49.015625 48.375 
Q 55.71875 40.765625 55.71875 27.296875 
Q 55.71875 13.875 49.015625 6.21875 
Q 42.328125 -1.421875 30.609375 -1.421875 
Q 18.84375 -1.421875 12.171875 6.21875 
Q 5.515625 13.875 5.515625 27.296875 
Q 5.515625 40.765625 12.171875 48.375 
Q 18.84375 56 30.609375 56 
" id="BitstreamVeraSans-Roman-6f"/>
     </defs>
     <g transform="translate(246.631875 398.473625)scale(0.12 -0.12)">
      <use xlink:href="#BitstreamVeraSans-Roman-65"/>
      <use x="61.5234375" xlink:href="#BitstreamVeraSans-Roman-70"/>
      <use x="125.0" xlink:href="#BitstreamVeraSans-Roman-69"/>
      <use x="152.783203125" xlink:href="#BitstreamVeraSans-Roman-73"/>
      <use x="204.8828125" xlink:href="#BitstreamVeraSans-Roman-6f"/>
      <use x="266.064453125" xlink:href="#BitstreamVeraSans-Roman-64"/>
      <use x="329.541015625" xlink:href="#BitstreamVeraSans-Roman-65"/>
     </g>
    </g>
   </g>
   <g id="matplotlib.axis_2">
    <g id="ytick_1">
     <g id="line2d_14">
      <defs>
       <path d="M 0 0 
L 4 0 
" id="mcb151679b3" style="stroke:#000000;stroke-width:0.5;"/>
      </defs>
      <g>
       <use style="stroke:#000000;stroke-width:0.5;" x="46.8975" xlink:href="#mcb151679b3" y="368.74175"/>
      </g>
     </g>
     <g id="line2d_15">
      <defs>
       <path d="M 0 0 
L -4 0 
" id="m7eb5e80788" style="stroke:#000000;stroke-width:0.5;"/>
      </defs>
      <g>
       <use style="stroke:#000000;stroke-width:0.5;" x="493.2975" xlink:href="#m7eb5e80788" y="368.74175"/>
      </g>
     </g>
     <g id="text_8">
      <!-- 0.0 -->
      <defs>
       <path d="M 10.6875 12.40625 
L 21 12.40625 
L 21 0 
L 10.6875 0 
z
" id="BitstreamVeraSans-Roman-2e"/>
      </defs>
      <g transform="translate(23.81375 372.053)scale(0.12 -0.12)">
       <use xlink:href="#BitstreamVeraSans-Roman-30"/>
       <use x="63.623046875" xlink:href="#BitstreamVeraSans-Roman-2e"/>
       <use x="95.41015625" xlink:href="#BitstreamVeraSans-Roman-30"/>
      </g>
     </g>
    </g>
    <g id="ytick_2">
     <g id="line2d_16">
      <g>
       <use style="stroke:#000000;stroke-width:0.5;" x="46.8975" xlink:href="#mcb151679b3" y="299.62175"/>
      </g>
     </g>
     <g id="line2d_17">
      <g>
       <use style="stroke:#000000;stroke-width:0.5;" x="493.2975" xlink:href="#m7eb5e80788" y="299.62175"/>
      </g>
     </g>
     <g id="text_9">
      <!-- 0.5 -->
      <defs>
       <path d="M 10.796875 72.90625 
L 49.515625 72.90625 
L 49.515625 64.59375 
L 19.828125 64.59375 
L 19.828125 46.734375 
Q 21.96875 47.46875 24.109375 47.828125 
Q 26.265625 48.1875 28.421875 48.1875 
Q 40.625 48.1875 47.75 41.5 
Q 54.890625 34.8125 54.890625 23.390625 
Q 54.890625 11.625 47.5625 5.09375 
Q 40.234375 -1.421875 26.90625 -1.421875 
Q 22.3125 -1.421875 17.546875 -0.640625 
Q 12.796875 0.140625 7.71875 1.703125 
L 7.71875 11.625 
Q 12.109375 9.234375 16.796875 8.0625 
Q 21.484375 6.890625 26.703125 6.890625 
Q 35.15625 6.890625 40.078125 11.328125 
Q 45.015625 15.765625 45.015625 23.390625 
Q 45.015625 31 40.078125 35.4375 
Q 35.15625 39.890625 26.703125 39.890625 
Q 22.75 39.890625 18.8125 39.015625 
Q 14.890625 38.140625 10.796875 36.28125 
z
" id="BitstreamVeraSans-Roman-35"/>
      </defs>
      <g transform="translate(23.81375 302.933)scale(0.12 -0.12)">
       <use xlink:href="#BitstreamVeraSans-Roman-30"/>
       <use x="63.623046875" xlink:href="#BitstreamVeraSans-Roman-2e"/>
       <use x="95.41015625" xlink:href="#BitstreamVeraSans-Roman-35"/>
      </g>
     </g>
    </g>
    <g id="ytick_3">
     <g id="line2d_18">
      <g>
       <use style="stroke:#000000;stroke-width:0.5;" x="46.8975" xlink:href="#mcb151679b3" y="230.50175"/>
      </g>
     </g>
     <g id="line2d_19">
      <g>
       <use style="stroke:#000000;stroke-width:0.5;" x="493.2975" xlink:href="#m7eb5e80788" y="230.50175"/>
      </g>
     </g>
     <g id="text_10">
      <!-- 1.0 -->
      <g transform="translate(23.81375 233.813)scale(0.12 -0.12)">
       <use xlink:href="#BitstreamVeraSans-Roman-31"/>
       <use x="63.623046875" xlink:href="#BitstreamVeraSans-Roman-2e"/>
       <use x="95.41015625" xlink:href="#BitstreamVeraSans-Roman-30"/>
      </g>
     </g>
    </g>
    <g id="ytick_4">
     <g id="line2d_20">
      <g>
       <use style="stroke:#000000;stroke-width:0.5;" x="46.8975" xlink:href="#mcb151679b3" y="161.38175"/>
      </g>
     </g>
     <g id="line2d_21">
      <g>
       <use style="stroke:#000000;stroke-width:0.5;" x="493.2975" xlink:href="#m7eb5e80788" y="161.38175"/>
      </g>
     </g>
     <g id="text_11">
      <!-- 1.5 -->
      <g transform="translate(23.81375 164.693)scale(0.12 -0.12)">
       <use xlink:href="#BitstreamVeraSans-Roman-31"/>
       <use x="63.623046875" xlink:href="#BitstreamVeraSans-Roman-2e"/>
       <use x="95.41015625" xlink:href="#BitstreamVeraSans-Roman-35"/>
      </g>
     </g>
    </g>
    <g id="ytick_5">
     <g id="line2d_22">
      <g>
       <use style="stroke:#000000;stroke-width:0.5;" x="46.8975" xlink:href="#mcb151679b3" y="92.26175"/>
      </g>
     </g>
     <g id="line2d_23">
      <g>
       <use style="stroke:#000000;stroke-width:0.5;" x="493.2975" xlink:href="#m7eb5e80788" y="92.26175"/>
      </g>
     </g>
     <g id="text_12">
      <!-- 2.0 -->
      <g transform="translate(23.81375 95.573)scale(0.12 -0.12)">
       <use xlink:href="#BitstreamVeraSans-Roman-32"/>
       <use x="63.623046875" xlink:href="#BitstreamVeraSans-Roman-2e"/>
       <use x="95.41015625" xlink:href="#BitstreamVeraSans-Roman-30"/>
      </g>
     </g>
    </g>
    <g id="ytick_6">
     <g id="line2d_24">
      <g>
       <use style="stroke:#000000;stroke-width:0.5;" x="46.8975" xlink:href="#mcb151679b3" y="23.14175"/>
      </g>
     </g>
     <g id="line2d_25">
      <g>
       <use style="stroke:#000000;stroke-width:0.5;" x="493.2975" xlink:href="#m7eb5e80788" y="23.14175"/>
      </g>
     </g>
     <g id="text_13">
      <!-- 2.5 -->
      <g transform="translate(23.81375 26.453)scale(0.12 -0.12)">
       <use xlink:href="#BitstreamVeraSans-Roman-32"/>
       <use x="63.623046875" xlink:href="#BitstreamVeraSans-Roman-2e"/>
       <use x="95.41015625" xlink:href="#BitstreamVeraSans-Roman-35"/>
      </g>
     </g>
    </g>
    <g id="text_14">
     <!-- average maxQ -->
     <defs>
      <path d="M 2.984375 54.6875 
L 12.5 54.6875 
L 29.59375 8.796875 
L 46.6875 54.6875 
L 56.203125 54.6875 
L 35.6875 0 
L 23.484375 0 
z
" id="BitstreamVeraSans-Roman-76"/>
      <path id="BitstreamVeraSans-Roman-20"/>
      <path d="M 39.40625 66.21875 
Q 28.65625 66.21875 22.328125 58.203125 
Q 16.015625 50.203125 16.015625 36.375 
Q 16.015625 22.609375 22.328125 14.59375 
Q 28.65625 6.59375 39.40625 6.59375 
Q 50.140625 6.59375 56.421875 14.59375 
Q 62.703125 22.609375 62.703125 36.375 
Q 62.703125 50.203125 56.421875 58.203125 
Q 50.140625 66.21875 39.40625 66.21875 
M 53.21875 1.3125 
L 66.21875 -12.890625 
L 54.296875 -12.890625 
L 43.5 -1.21875 
Q 41.890625 -1.3125 41.03125 -1.359375 
Q 40.1875 -1.421875 39.40625 -1.421875 
Q 24.03125 -1.421875 14.8125 8.859375 
Q 5.609375 19.140625 5.609375 36.375 
Q 5.609375 53.65625 14.8125 63.9375 
Q 24.03125 74.21875 39.40625 74.21875 
Q 54.734375 74.21875 63.90625 63.9375 
Q 73.09375 53.65625 73.09375 36.375 
Q 73.09375 23.6875 67.984375 14.640625 
Q 62.890625 5.609375 53.21875 1.3125 
" id="BitstreamVeraSans-Roman-51"/>
      <path d="M 54.890625 54.6875 
L 35.109375 28.078125 
L 55.90625 0 
L 45.3125 0 
L 29.390625 21.484375 
L 13.484375 0 
L 2.875 0 
L 24.125 28.609375 
L 4.6875 54.6875 
L 15.28125 54.6875 
L 29.78125 35.203125 
L 44.28125 54.6875 
z
" id="BitstreamVeraSans-Roman-78"/>
      <path d="M 45.40625 27.984375 
Q 45.40625 37.75 41.375 43.109375 
Q 37.359375 48.484375 30.078125 48.484375 
Q 22.859375 48.484375 18.828125 43.109375 
Q 14.796875 37.75 14.796875 27.984375 
Q 14.796875 18.265625 18.828125 12.890625 
Q 22.859375 7.515625 30.078125 7.515625 
Q 37.359375 7.515625 41.375 12.890625 
Q 45.40625 18.265625 45.40625 27.984375 
M 54.390625 6.78125 
Q 54.390625 -7.171875 48.1875 -13.984375 
Q 42 -20.796875 29.203125 -20.796875 
Q 24.46875 -20.796875 20.265625 -20.09375 
Q 16.0625 -19.390625 12.109375 -17.921875 
L 12.109375 -9.1875 
Q 16.0625 -11.328125 19.921875 -12.34375 
Q 23.78125 -13.375 27.78125 -13.375 
Q 36.625 -13.375 41.015625 -8.765625 
Q 45.40625 -4.15625 45.40625 5.171875 
L 45.40625 9.625 
Q 42.625 4.78125 38.28125 2.390625 
Q 33.9375 0 27.875 0 
Q 17.828125 0 11.671875 7.65625 
Q 5.515625 15.328125 5.515625 27.984375 
Q 5.515625 40.671875 11.671875 48.328125 
Q 17.828125 56 27.875 56 
Q 33.9375 56 38.28125 53.609375 
Q 42.625 51.21875 45.40625 46.390625 
L 45.40625 54.6875 
L 54.390625 54.6875 
z
" id="BitstreamVeraSans-Roman-67"/>
      <path d="M 34.28125 27.484375 
Q 23.390625 27.484375 19.1875 25 
Q 14.984375 22.515625 14.984375 16.5 
Q 14.984375 11.71875 18.140625 8.90625 
Q 21.296875 6.109375 26.703125 6.109375 
Q 34.1875 6.109375 38.703125 11.40625 
Q 43.21875 16.703125 43.21875 25.484375 
L 43.21875 27.484375 
z
M 52.203125 31.203125 
L 52.203125 0 
L 43.21875 0 
L 43.21875 8.296875 
Q 40.140625 3.328125 35.546875 0.953125 
Q 30.953125 -1.421875 24.3125 -1.421875 
Q 15.921875 -1.421875 10.953125 3.296875 
Q 6 8.015625 6 15.921875 
Q 6 25.140625 12.171875 29.828125 
Q 18.359375 34.515625 30.609375 34.515625 
L 43.21875 34.515625 
L 43.21875 35.40625 
Q 43.21875 41.609375 39.140625 45 
Q 35.0625 48.390625 27.6875 48.390625 
Q 23 48.390625 18.546875 47.265625 
Q 14.109375 46.140625 10.015625 43.890625 
L 10.015625 52.203125 
Q 14.9375 54.109375 19.578125 55.046875 
Q 24.21875 56 28.609375 56 
Q 40.484375 56 46.34375 49.84375 
Q 52.203125 43.703125 52.203125 31.203125 
" id="BitstreamVeraSans-Roman-61"/>
      <path d="M 52 44.1875 
Q 55.375 50.25 60.0625 53.125 
Q 64.75 56 71.09375 56 
Q 79.640625 56 84.28125 50.015625 
Q 88.921875 44.046875 88.921875 33.015625 
L 88.921875 0 
L 79.890625 0 
L 79.890625 32.71875 
Q 79.890625 40.578125 77.09375 44.375 
Q 74.3125 48.1875 68.609375 48.1875 
Q 61.625 48.1875 57.5625 43.546875 
Q 53.515625 38.921875 53.515625 30.90625 
L 53.515625 0 
L 44.484375 0 
L 44.484375 32.71875 
Q 44.484375 40.625 41.703125 44.40625 
Q 38.921875 48.1875 33.109375 48.1875 
Q 26.21875 48.1875 22.15625 43.53125 
Q 18.109375 38.875 18.109375 30.90625 
L 18.109375 0 
L 9.078125 0 
L 9.078125 54.6875 
L 18.109375 54.6875 
L 18.109375 46.1875 
Q 21.1875 51.21875 25.484375 53.609375 
Q 29.78125 56 35.6875 56 
Q 41.65625 56 45.828125 52.96875 
Q 50 49.953125 52 44.1875 
" id="BitstreamVeraSans-Roman-6d"/>
      <path d="M 41.109375 46.296875 
Q 39.59375 47.171875 37.8125 47.578125 
Q 36.03125 48 33.890625 48 
Q 26.265625 48 22.1875 43.046875 
Q 18.109375 38.09375 18.109375 28.8125 
L 18.109375 0 
L 9.078125 0 
L 9.078125 54.6875 
L 18.109375 54.6875 
L 18.109375 46.1875 
Q 20.953125 51.171875 25.484375 53.578125 
Q 30.03125 56 36.53125 56 
Q 37.453125 56 38.578125 55.875 
Q 39.703125 55.765625 41.0625 55.515625 
z
" id="BitstreamVeraSans-Roman-72"/>
     </defs>
     <g transform="translate(16.318125 240.208625)rotate(-90.0)scale(0.12 -0.12)">
      <use xlink:href="#BitstreamVeraSans-Roman-61"/>
      <use x="61.279296875" xlink:href="#BitstreamVeraSans-Roman-76"/>
      <use x="120.458984375" xlink:href="#BitstreamVeraSans-Roman-65"/>
      <use x="181.982421875" xlink:href="#BitstreamVeraSans-Roman-72"/>
      <use x="223.095703125" xlink:href="#BitstreamVeraSans-Roman-61"/>
      <use x="284.375" xlink:href="#BitstreamVeraSans-Roman-67"/>
      <use x="347.8515625" xlink:href="#BitstreamVeraSans-Roman-65"/>
      <use x="409.375" xlink:href="#BitstreamVeraSans-Roman-20"/>
      <use x="441.162109375" xlink:href="#BitstreamVeraSans-Roman-6d"/>
      <use x="538.57421875" xlink:href="#BitstreamVeraSans-Roman-61"/>
      <use x="599.853515625" xlink:href="#BitstreamVeraSans-Roman-78"/>
      <use x="659.033203125" xlink:href="#BitstreamVeraSans-Roman-51"/>
     </g>
    </g>
   </g>
   <g id="text_15">
    <!-- Average maxQ per episode, joint6 -->
    <defs>
     <path d="M 54.890625 33.015625 
L 54.890625 0 
L 45.90625 0 
L 45.90625 32.71875 
Q 45.90625 40.484375 42.875 44.328125 
Q 39.84375 48.1875 33.796875 48.1875 
Q 26.515625 48.1875 22.3125 43.546875 
Q 18.109375 38.921875 18.109375 30.90625 
L 18.109375 0 
L 9.078125 0 
L 9.078125 54.6875 
L 18.109375 54.6875 
L 18.109375 46.1875 
Q 21.34375 51.125 25.703125 53.5625 
Q 30.078125 56 35.796875 56 
Q 45.21875 56 50.046875 50.171875 
Q 54.890625 44.34375 54.890625 33.015625 
" id="BitstreamVeraSans-Roman-6e"/>
     <path d="M 11.71875 12.40625 
L 22.015625 12.40625 
L 22.015625 4 
L 14.015625 -11.625 
L 7.71875 -11.625 
L 11.71875 4 
z
" id="BitstreamVeraSans-Roman-2c"/>
     <path d="M 9.421875 54.6875 
L 18.40625 54.6875 
L 18.40625 -0.984375 
Q 18.40625 -11.421875 14.421875 -16.109375 
Q 10.453125 -20.796875 1.609375 -20.796875 
L -1.8125 -20.796875 
L -1.8125 -13.1875 
L 0.59375 -13.1875 
Q 5.71875 -13.1875 7.5625 -10.8125 
Q 9.421875 -8.453125 9.421875 -0.984375 
z
M 9.421875 75.984375 
L 18.40625 75.984375 
L 18.40625 64.59375 
L 9.421875 64.59375 
z
" id="BitstreamVeraSans-Roman-6a"/>
     <path d="M 18.3125 70.21875 
L 18.3125 54.6875 
L 36.8125 54.6875 
L 36.8125 47.703125 
L 18.3125 47.703125 
L 18.3125 18.015625 
Q 18.3125 11.328125 20.140625 9.421875 
Q 21.96875 7.515625 27.59375 7.515625 
L 36.8125 7.515625 
L 36.8125 0 
L 27.59375 0 
Q 17.1875 0 13.234375 3.875 
Q 9.28125 7.765625 9.28125 18.015625 
L 9.28125 47.703125 
L 2.6875 47.703125 
L 2.6875 54.6875 
L 9.28125 54.6875 
L 9.28125 70.21875 
z
" id="BitstreamVeraSans-Roman-74"/>
     <path d="M 34.1875 63.1875 
L 20.796875 26.90625 
L 47.609375 26.90625 
z
M 28.609375 72.90625 
L 39.796875 72.90625 
L 67.578125 0 
L 57.328125 0 
L 50.6875 18.703125 
L 17.828125 18.703125 
L 11.1875 0 
L 0.78125 0 
z
" id="BitstreamVeraSans-Roman-41"/>
    </defs>
    <g transform="translate(146.8245 18.14175)scale(0.144 -0.144)">
     <use xlink:href="#BitstreamVeraSans-Roman-41"/>
     <use x="68.330078125" xlink:href="#BitstreamVeraSans-Roman-76"/>
     <use x="127.509765625" xlink:href="#BitstreamVeraSans-Roman-65"/>
     <use x="189.033203125" xlink:href="#BitstreamVeraSans-Roman-72"/>
     <use x="230.146484375" xlink:href="#BitstreamVeraSans-Roman-61"/>
     <use x="291.42578125" xlink:href="#BitstreamVeraSans-Roman-67"/>
     <use x="354.90234375" xlink:href="#BitstreamVeraSans-Roman-65"/>
     <use x="416.42578125" xlink:href="#BitstreamVeraSans-Roman-20"/>
     <use x="448.212890625" xlink:href="#BitstreamVeraSans-Roman-6d"/>
     <use x="545.625" xlink:href="#BitstreamVeraSans-Roman-61"/>
     <use x="606.904296875" xlink:href="#BitstreamVeraSans-Roman-78"/>
     <use x="666.083984375" xlink:href="#BitstreamVeraSans-Roman-51"/>
     <use x="744.794921875" xlink:href="#BitstreamVeraSans-Roman-20"/>
     <use x="776.58203125" xlink:href="#BitstreamVeraSans-Roman-70"/>
     <use x="840.05859375" xlink:href="#BitstreamVeraSans-Roman-65"/>
     <use x="901.58203125" xlink:href="#BitstreamVeraSans-Roman-72"/>
     <use x="942.6953125" xlink:href="#BitstreamVeraSans-Roman-20"/>
     <use x="974.482421875" xlink:href="#BitstreamVeraSans-Roman-65"/>
     <use x="1036.005859375" xlink:href="#BitstreamVeraSans-Roman-70"/>
     <use x="1099.482421875" xlink:href="#BitstreamVeraSans-Roman-69"/>
     <use x="1127.265625" xlink:href="#BitstreamVeraSans-Roman-73"/>
     <use x="1179.365234375" xlink:href="#BitstreamVeraSans-Roman-6f"/>
     <use x="1240.546875" xlink:href="#BitstreamVeraSans-Roman-64"/>
     <use x="1304.0234375" xlink:href="#BitstreamVeraSans-Roman-65"/>
     <use x="1365.546875" xlink:href="#BitstreamVeraSans-Roman-2c"/>
     <use x="1397.333984375" xlink:href="#BitstreamVeraSans-Roman-20"/>
     <use x="1429.12109375" xlink:href="#BitstreamVeraSans-Roman-6a"/>
     <use x="1456.904296875" xlink:href="#BitstreamVeraSans-Roman-6f"/>
     <use x="1518.0859375" xlink:href="#BitstreamVeraSans-Roman-69"/>
     <use x="1545.869140625" xlink:href="#BitstreamVeraSans-Roman-6e"/>
     <use x="1609.248046875" xlink:href="#BitstreamVeraSans-Roman-74"/>
     <use x="1648.45703125" xlink:href="#BitstreamVeraSans-Roman-36"/>
    </g>
   </g>
  </g>
 </g>
 <defs>
  <clipPath id="pe159ae0e9e">
   <rect height="345.6" width="446.4" x="46.8975" y="23.14175"/>
  </clipPath>
 </defs>
</svg>
