<?xml version="1.0" encoding="utf-8" standalone="no"?>
<!DOCTYPE svg PUBLIC "-//W3C//DTD SVG 1.1//EN"
  "http://www.w3.org/Graphics/SVG/1.1/DTD/svg11.dtd">
<!-- Created with matplotlib (http://matplotlib.org/) -->
<svg height="408pt" version="1.1" viewBox="0 0 525 408" width="525pt" xmlns="http://www.w3.org/2000/svg" xmlns:xlink="http://www.w3.org/1999/xlink">
 <defs>
  <style type="text/css">
*{stroke-linecap:butt;stroke-linejoin:round;stroke-miterlimit:100000;}
  </style>
 </defs>
 <g id="figure_1">
  <g id="patch_1">
   <path d="M 0 408.16925 
L 525.823125 408.16925 
L 525.823125 0 
L 0 0 
z
" style="fill:#ffffff;"/>
  </g>
  <g id="axes_1">
   <g id="patch_2">
    <path d="M 56.953125 368.74175 
L 503.353125 368.74175 
L 503.353125 23.14175 
L 56.953125 23.14175 
z
" style="fill:#ffffff;"/>
   </g>
   <g id="line2d_1">
    <path clip-path="url(#p4e2f6c04f9)" d="M 56.953125 61.648693 
L 57.176325 57.51805 
L 57.622725 59.427027 
L 57.845925 58.925395 
L 58.292325 57.45923 
L 58.515525 58.272248 
L 58.961925 64.048896 
L 59.185125 58.848364 
L 59.408325 59.567893 
L 59.854725 54.827396 
L 60.077925 56.975511 
L 60.301125 60.823929 
L 60.524325 56.457326 
L 60.747525 62.254818 
L 60.970725 57.030533 
L 61.193925 57.831775 
L 61.640325 55.773183 
L 62.086725 54.592918 
L 62.309925 58.922873 
L 62.533125 59.572359 
L 62.756325 59.531216 
L 63.202725 55.055409 
L 63.425925 57.076816 
L 63.649125 60.992127 
L 63.872325 62.429765 
L 64.095525 61.884287 
L 64.318725 62.956928 
L 64.541925 58.177734 
L 64.765125 56.971418 
L 64.988325 58.76017 
L 65.211525 58.822549 
L 65.434725 58.291773 
L 65.657925 58.840896 
L 65.881125 56.835091 
L 66.327525 61.90779 
L 66.773925 57.936514 
L 66.997125 56.53914 
L 67.220325 57.009164 
L 67.443525 61.410821 
L 67.889925 57.718027 
L 68.113125 58.058909 
L 68.336325 61.927065 
L 68.559525 57.137118 
L 68.782725 59.707711 
L 69.005925 57.34195 
L 69.229125 59.310995 
L 69.452325 58.951513 
L 69.675525 57.669064 
L 69.898725 58.450149 
L 70.345125 61.645372 
L 70.568325 60.057168 
L 70.791525 53.119579 
L 71.014725 60.342498 
L 71.237925 58.536639 
L 71.461125 55.179834 
L 71.684325 56.156494 
L 72.130725 60.493525 
L 72.577125 53.291262 
L 72.800325 56.887973 
L 73.023525 55.308827 
L 73.246725 61.384128 
L 73.469925 57.71875 
L 73.693125 59.781506 
L 74.139525 55.422292 
L 74.585925 59.561652 
L 74.809125 60.105295 
L 75.032325 59.446325 
L 75.255525 57.169801 
L 75.478725 57.901054 
L 75.701925 56.604477 
L 76.148325 59.862189 
L 76.371525 56.252322 
L 76.594725 61.090229 
L 76.817925 60.357168 
L 77.041125 55.068555 
L 77.487525 62.046921 
L 77.710725 63.615765 
L 77.933925 58.750699 
L 78.157125 58.49809 
L 78.380325 57.650611 
L 78.603525 60.957782 
L 78.826725 62.092653 
L 79.049925 59.898346 
L 79.273125 55.879217 
L 79.496325 56.131802 
L 79.719525 62.009563 
L 80.165925 57.150745 
L 80.389125 60.409591 
L 80.612325 57.956146 
L 81.058725 60.677398 
L 81.281925 58.688295 
L 81.505125 57.859338 
L 81.951525 61.873621 
L 82.397925 60.943733 
L 82.621125 61.188136 
L 82.844325 59.265613 
L 83.067525 60.113317 
L 83.290725 63.799259 
L 83.513925 65.223169 
L 83.737125 60.755171 
L 83.960325 62.488644 
L 84.406725 62.200882 
L 84.629925 65.022998 
L 84.853125 61.579784 
L 85.076325 62.915916 
L 85.299525 59.984553 
L 85.522725 61.334186 
L 85.745925 60.802271 
L 85.969125 63.084505 
L 86.192325 61.272414 
L 86.638725 62.45089 
L 86.861925 58.934072 
L 87.085125 63.573907 
L 87.308325 62.485037 
L 87.531525 60.694962 
L 87.754725 64.206037 
L 87.977925 61.9758 
L 88.201125 62.115013 
L 88.424325 60.339024 
L 88.647525 63.717789 
L 88.870725 63.344361 
L 89.093925 60.885056 
L 89.317125 61.152545 
L 89.986725 64.011537 
L 90.209925 61.32977 
L 90.433125 62.907908 
L 90.656325 60.350217 
L 90.879525 64.591034 
L 91.102725 61.988156 
L 91.325925 61.522025 
L 91.549125 62.732271 
L 91.772325 63.010074 
L 91.995525 62.294173 
L 92.218725 60.916963 
L 93.111525 66.085444 
L 93.334725 63.962932 
L 93.557925 63.462319 
L 93.781125 64.419016 
L 94.004325 63.970839 
L 94.227525 64.118197 
L 94.450725 63.641076 
L 94.673925 61.240507 
L 94.897125 64.729446 
L 95.120325 64.555266 
L 95.343525 66.087236 
L 95.566725 63.041445 
L 96.013125 63.967558 
L 96.236325 65.471178 
L 96.459525 65.542974 
L 96.682725 64.995144 
L 96.905925 65.575016 
L 97.129125 65.589673 
L 97.352325 62.860514 
L 97.575525 66.784916 
L 97.798725 66.878849 
L 98.021925 69.009086 
L 98.245125 65.08763 
L 98.468325 68.13451 
L 98.691525 66.972355 
L 99.137925 65.68167 
L 99.361125 67.803675 
L 99.584325 68.812355 
L 99.807525 67.625863 
L 100.030725 67.874963 
L 100.253925 69.04379 
L 100.477125 68.112275 
L 100.923525 69.131156 
L 101.146725 68.955934 
L 101.369925 69.337871 
L 101.593125 68.636179 
L 101.816325 69.846741 
L 102.039525 69.288483 
L 102.262725 70.151058 
L 102.485925 68.45091 
L 102.709125 68.748583 
L 102.932325 69.256658 
L 103.378725 71.569145 
L 103.601925 71.235246 
L 103.825125 70.145195 
L 104.048325 70.435772 
L 104.271525 71.463427 
L 104.494725 70.905984 
L 104.717925 71.045303 
L 104.941125 71.357084 
L 105.164325 71.91281 
L 105.387525 73.062178 
L 105.610725 72.253884 
L 105.833925 72.539575 
L 106.057125 71.811533 
L 106.280325 73.464277 
L 106.503525 73.026296 
L 106.726725 73.630038 
L 106.949925 73.446706 
L 107.173125 73.634686 
L 107.396325 72.296526 
L 107.619525 74.821654 
L 108.289125 73.805089 
L 108.512325 74.798056 
L 109.181925 75.496861 
L 109.405125 74.85735 
L 109.851525 77.252716 
L 110.074725 76.617901 
L 110.297925 74.703244 
L 110.967525 77.738196 
L 111.190725 77.556183 
L 111.413925 77.802764 
L 111.637125 77.190472 
L 112.306725 78.476422 
L 112.529925 78.384575 
L 112.753125 77.691419 
L 112.976325 79.727281 
L 113.199525 79.196135 
L 113.422725 79.231759 
L 113.645925 79.447671 
L 113.869125 79.171921 
L 114.092325 80.85905 
L 114.315525 79.433972 
L 114.538725 79.077807 
L 114.761925 79.498832 
L 114.985125 80.37279 
L 115.208325 79.680899 
L 115.431525 81.544824 
L 115.654725 81.740729 
L 115.877925 82.124965 
L 116.101125 81.214605 
L 116.324325 82.163628 
L 116.993925 83.051921 
L 117.217125 82.560946 
L 117.440325 82.958222 
L 117.663525 82.9795 
L 117.886725 82.186281 
L 118.109925 84.377514 
L 118.333125 82.809832 
L 118.556325 83.714799 
L 119.002725 83.324987 
L 119.225925 84.345455 
L 119.449125 83.407761 
L 119.672325 84.599809 
L 119.895525 84.032012 
L 120.118725 85.749287 
L 120.341925 84.65382 
L 120.565125 86.930223 
L 120.788325 83.728304 
L 121.234725 85.140301 
L 121.457925 86.750792 
L 121.681125 86.914967 
L 121.904325 86.422282 
L 122.127525 87.577063 
L 122.350725 87.739491 
L 122.573925 88.261981 
L 122.797125 86.217445 
L 123.020325 87.758777 
L 123.243525 87.903425 
L 123.466725 87.48451 
L 123.689925 88.04011 
L 123.913125 86.193744 
L 124.136325 87.763581 
L 124.359525 87.454202 
L 124.582725 89.308741 
L 124.805925 88.446613 
L 125.029125 90.517733 
L 125.252325 88.417398 
L 125.475525 88.178922 
L 125.698725 90.361767 
L 125.921925 89.324634 
L 126.145125 89.127448 
L 126.368325 90.390582 
L 126.591525 89.522936 
L 126.814725 92.321772 
L 127.261125 90.009829 
L 127.484325 91.441632 
L 127.707525 90.71647 
L 127.930725 93.747384 
L 128.153925 93.56943 
L 128.377125 93.753224 
L 128.600325 94.461328 
L 128.823525 92.081968 
L 129.046725 94.69482 
L 129.269925 93.935025 
L 129.493125 92.553037 
L 129.716325 94.655937 
L 129.939525 93.801129 
L 130.162725 95.105975 
L 130.385925 94.771796 
L 130.609125 95.782237 
L 130.832325 93.56883 
L 131.055525 96.330038 
L 131.278725 95.458424 
L 131.501925 96.965467 
L 131.725125 95.075638 
L 131.948325 94.912478 
L 132.617925 99.010661 
L 132.841125 97.215311 
L 133.064325 98.418698 
L 133.287525 97.101827 
L 133.510725 97.807464 
L 133.733925 99.071871 
L 133.957125 98.348602 
L 134.180325 99.097228 
L 134.403525 99.252848 
L 134.626725 97.598643 
L 134.849925 97.776588 
L 135.296325 101.502885 
L 135.519525 98.125508 
L 135.965925 100.385423 
L 136.189125 99.98359 
L 136.635525 101.731378 
L 137.081925 99.304 
L 137.305125 101.892573 
L 137.528325 99.836732 
L 137.751525 100.489718 
L 137.974725 104.260013 
L 138.197925 104.006457 
L 138.421125 102.878808 
L 138.644325 103.445146 
L 138.867525 102.965442 
L 139.090725 101.900665 
L 139.313925 104.442012 
L 139.537125 102.564924 
L 139.760325 106.764609 
L 139.983525 105.270858 
L 140.206725 104.850442 
L 140.429925 106.191268 
L 140.653125 105.250705 
L 140.876325 107.078641 
L 141.099525 104.081829 
L 141.322725 107.864937 
L 141.545925 104.853773 
L 141.992325 110.503872 
L 142.215525 108.093931 
L 142.438725 108.550441 
L 142.661925 107.746028 
L 142.885125 104.187576 
L 143.331525 109.398675 
L 143.777925 106.736665 
L 144.001125 109.591466 
L 144.224325 108.503865 
L 144.447525 106.391777 
L 144.670725 111.298251 
L 144.893925 112.973322 
L 145.117125 108.226479 
L 145.340325 112.909373 
L 145.563525 109.64804 
L 145.786725 111.460499 
L 146.009925 111.291348 
L 146.456325 116.481919 
L 146.902725 111.475994 
L 147.125925 113.73385 
L 147.349125 117.262942 
L 147.572325 116.821136 
L 147.795525 113.118409 
L 148.018725 114.959757 
L 148.241925 114.263666 
L 148.688325 119.301376 
L 148.911525 118.571572 
L 149.134725 112.279687 
L 149.357925 119.120921 
L 149.581125 113.138531 
L 149.804325 116.49278 
L 150.027525 116.654141 
L 150.250725 119.52871 
L 150.473925 116.588899 
L 150.697125 121.348635 
L 150.920325 117.12675 
L 151.143525 118.600176 
L 151.366725 117.819087 
L 151.589925 116.42123 
L 151.813125 119.589593 
L 152.036325 119.263129 
L 152.259525 121.127789 
L 152.482725 120.356245 
L 152.705925 120.311149 
L 152.929125 125.087611 
L 153.152325 124.653271 
L 153.375525 119.556743 
L 153.598725 117.552959 
L 153.821925 123.026111 
L 154.045125 124.539748 
L 154.268325 122.921992 
L 154.491525 119.615547 
L 154.714725 121.961118 
L 154.937925 121.855341 
L 155.161125 121.900126 
L 155.607525 127.294158 
L 155.830725 125.252078 
L 156.053925 127.835676 
L 156.277125 121.218771 
L 156.500325 124.983945 
L 156.723525 124.622817 
L 156.946725 124.898478 
L 157.169925 130.084634 
L 157.393125 127.800094 
L 157.616325 123.861954 
L 157.839525 126.201712 
L 158.062725 129.750535 
L 158.285925 130.22178 
L 158.509125 129.243136 
L 158.732325 126.26926 
L 158.955525 127.723767 
L 159.178725 125.20682 
L 159.625125 130.783371 
L 159.848325 131.492406 
L 160.071525 126.759242 
L 160.294725 131.634378 
L 160.517925 125.482723 
L 160.741125 126.518716 
L 160.964325 129.378745 
L 161.187525 135.084445 
L 161.410725 133.12924 
L 161.633925 126.590165 
L 162.080325 134.997606 
L 162.303525 126.988762 
L 162.526725 129.234871 
L 162.749925 135.738264 
L 162.973125 133.540464 
L 163.196325 135.949632 
L 163.419525 135.56767 
L 163.642725 134.891203 
L 163.865925 131.748955 
L 164.089125 130.882879 
L 164.312325 139.407192 
L 164.535525 135.1362 
L 164.758725 135.729834 
L 164.981925 142.155052 
L 165.205125 140.617416 
L 165.428325 135.656843 
L 165.651525 133.480186 
L 165.874725 136.022022 
L 166.097925 136.530519 
L 166.321125 140.50178 
L 166.544325 136.000361 
L 166.767525 135.732973 
L 166.990725 144.796574 
L 167.213925 135.699055 
L 167.437125 136.329308 
L 167.660325 143.912296 
L 167.883525 134.91431 
L 168.106725 133.507774 
L 168.329925 134.857934 
L 168.553125 142.884465 
L 168.776325 140.465941 
L 168.999525 148.365202 
L 169.445925 138.674081 
L 169.669125 145.992315 
L 169.892325 146.470943 
L 170.115525 140.595199 
L 170.561925 145.623491 
L 170.785125 142.782709 
L 171.008325 149.54508 
L 171.231525 141.420545 
L 171.454725 146.808577 
L 171.677925 146.492704 
L 171.901125 138.999274 
L 172.347525 147.352205 
L 172.793925 141.054955 
L 173.017125 142.399649 
L 173.240325 144.695608 
L 173.463525 144.382796 
L 173.686725 148.053847 
L 173.909925 148.579766 
L 174.133125 147.328949 
L 174.356325 143.844875 
L 174.579525 148.193399 
L 174.802725 145.965682 
L 175.025925 146.656892 
L 175.249125 152.047149 
L 175.472325 147.782214 
L 175.695525 149.524202 
L 175.918725 148.644343 
L 176.141925 148.890813 
L 176.365125 152.919182 
L 176.588325 149.592954 
L 176.811525 150.887093 
L 177.257925 146.751201 
L 177.481125 152.818285 
L 177.704325 152.931315 
L 178.150725 147.704979 
L 178.373925 157.893494 
L 178.820325 152.506511 
L 179.043525 157.492284 
L 179.266725 155.204601 
L 179.489925 154.504565 
L 179.713125 147.140457 
L 180.159525 162.804883 
L 180.382725 157.168415 
L 180.605925 154.969982 
L 180.829125 159.944833 
L 181.052325 149.520597 
L 181.275525 155.736423 
L 181.498725 158.521541 
L 181.721925 158.988308 
L 181.945125 153.481781 
L 182.168325 157.323214 
L 182.391525 156.372192 
L 182.614725 156.516475 
L 182.837925 163.124178 
L 183.061125 164.517565 
L 183.507525 158.396245 
L 183.730725 162.586394 
L 183.953925 162.451146 
L 184.177125 159.477516 
L 184.400325 162.95548 
L 184.623525 159.694072 
L 184.846725 162.844414 
L 185.069925 159.032348 
L 185.293125 160.413364 
L 185.516325 165.037272 
L 185.739525 162.787559 
L 185.962725 168.76544 
L 186.185925 160.836341 
L 186.409125 164.840754 
L 186.632325 160.833424 
L 186.855525 166.871013 
L 187.078725 159.235931 
L 187.301925 164.45938 
L 187.525125 162.317816 
L 187.748325 163.195978 
L 187.971525 161.411323 
L 188.194725 166.594726 
L 188.417925 163.255232 
L 188.641125 167.063731 
L 188.864325 159.654536 
L 189.087525 169.328753 
L 189.310725 168.977874 
L 189.533925 173.468286 
L 189.757125 171.513527 
L 189.980325 168.257847 
L 190.203525 168.990404 
L 190.649925 174.243527 
L 190.873125 173.954822 
L 191.096325 172.372621 
L 191.319525 172.78724 
L 191.542725 168.486207 
L 191.765925 173.49004 
L 191.989125 174.822674 
L 192.212325 169.939115 
L 192.435525 172.302881 
L 192.658725 166.822429 
L 192.881925 166.993346 
L 193.328325 169.85835 
L 193.551525 174.650583 
L 193.774725 175.707588 
L 193.997925 169.198038 
L 194.221125 168.990438 
L 194.444325 170.81935 
L 194.667525 174.651326 
L 194.890725 175.887449 
L 195.113925 175.136242 
L 195.337125 172.096035 
L 195.560325 177.141397 
L 195.783525 175.953626 
L 196.006725 178.183892 
L 196.229925 174.880602 
L 196.453125 176.580039 
L 196.676325 173.637189 
L 197.122725 180.819829 
L 197.345925 180.119017 
L 197.569125 183.777788 
L 197.792325 182.805285 
L 198.015525 183.143008 
L 198.238725 180.729944 
L 198.461925 183.933582 
L 198.685125 182.87946 
L 198.908325 185.554797 
L 199.131525 180.908244 
L 199.354725 183.582324 
L 199.577925 183.797619 
L 199.801125 185.076523 
L 200.024325 183.397642 
L 200.470725 183.815432 
L 200.693925 187.377363 
L 201.140325 184.505003 
L 201.363525 184.208705 
L 201.586725 185.810729 
L 201.809925 183.615656 
L 202.033125 184.89797 
L 202.256325 180.402206 
L 202.479525 186.136606 
L 202.702725 184.833096 
L 202.925925 185.226896 
L 203.149125 184.005529 
L 203.372325 185.293491 
L 203.595525 184.026349 
L 203.818725 183.832865 
L 204.041925 187.364138 
L 204.265125 187.128806 
L 204.488325 190.578898 
L 204.711525 186.388187 
L 205.157925 189.339172 
L 205.381125 182.821254 
L 205.604325 189.446666 
L 205.827525 181.757322 
L 206.273925 192.99328 
L 206.497125 190.827474 
L 206.720325 190.995971 
L 206.943525 187.620645 
L 207.166725 189.973279 
L 207.389925 195.663904 
L 207.613125 194.70873 
L 207.836325 196.959458 
L 208.059525 192.470549 
L 208.282725 190.363241 
L 208.505925 189.82207 
L 208.729125 188.577774 
L 208.952325 189.924294 
L 209.175525 188.618502 
L 209.621925 197.624914 
L 210.068325 194.288571 
L 210.291525 194.349665 
L 210.514725 185.931901 
L 210.737925 193.04763 
L 210.961125 192.864176 
L 211.407525 198.133853 
L 211.630725 192.152264 
L 211.853925 199.540926 
L 212.077125 201.365541 
L 212.300325 193.306763 
L 212.523525 198.952834 
L 212.746725 198.464495 
L 212.969925 194.983954 
L 213.193125 193.706991 
L 213.416325 198.660685 
L 213.639525 199.347372 
L 213.862725 197.181597 
L 214.085925 197.856795 
L 214.309125 194.990572 
L 214.532325 201.160909 
L 214.978725 195.22857 
L 215.425125 200.835985 
L 215.871525 205.510596 
L 216.094725 201.405337 
L 216.317925 203.835906 
L 216.541125 197.181906 
L 216.764325 201.862046 
L 216.987525 203.693861 
L 217.210725 202.180692 
L 217.433925 199.87553 
L 217.657125 201.235548 
L 217.880325 203.892463 
L 218.103525 198.027593 
L 218.326725 200.238631 
L 218.549925 206.293248 
L 218.773125 208.159683 
L 218.996325 204.619711 
L 219.219525 197.858172 
L 219.442725 200.809889 
L 219.665925 198.920359 
L 219.889125 210.768439 
L 220.112325 203.256576 
L 220.558725 206.958568 
L 220.781925 201.783137 
L 221.005125 202.985377 
L 221.228325 206.387123 
L 221.451525 199.061857 
L 221.897925 206.402295 
L 222.121125 204.950379 
L 222.344325 199.34325 
L 222.567525 198.455349 
L 223.013925 210.136916 
L 223.237125 209.50101 
L 223.460325 206.981427 
L 223.683525 208.203912 
L 223.906725 205.690275 
L 224.129925 201.846916 
L 224.353125 211.70954 
L 225.022725 207.045242 
L 225.245925 210.580133 
L 225.469125 204.541501 
L 225.692325 202.639365 
L 225.915525 202.855839 
L 226.138725 209.265156 
L 226.361925 209.806304 
L 226.585125 216.419894 
L 226.808325 208.159194 
L 227.031525 209.316441 
L 227.254725 212.313353 
L 227.477925 211.750144 
L 227.701125 207.785907 
L 227.924325 209.298964 
L 228.147525 207.999181 
L 228.593925 211.924921 
L 228.817125 211.183224 
L 229.040325 208.935757 
L 229.263525 212.60164 
L 229.486725 203.166916 
L 229.933125 215.053186 
L 230.379525 209.584325 
L 230.602725 214.217437 
L 230.825925 212.28343 
L 231.049125 214.528135 
L 231.272325 207.638502 
L 231.495525 212.407087 
L 231.718725 212.397207 
L 231.941925 217.960217 
L 232.165125 214.6208 
L 232.388325 217.778059 
L 232.611525 216.782483 
L 232.834725 210.182809 
L 233.504325 216.47282 
L 233.727525 212.381725 
L 233.950725 214.41918 
L 234.173925 217.995117 
L 234.397125 212.024434 
L 234.620325 215.243458 
L 234.843525 211.50596 
L 235.289925 219.775478 
L 235.513125 217.138655 
L 235.736325 216.350638 
L 235.959525 216.451791 
L 236.182725 224.448168 
L 236.405925 213.144763 
L 236.629125 215.68592 
L 236.852325 220.355701 
L 237.075525 217.478939 
L 237.298725 217.496869 
L 237.521925 209.635299 
L 237.745125 221.242584 
L 237.968325 214.74763 
L 238.191525 219.938457 
L 238.414725 216.804187 
L 238.637925 218.66576 
L 238.861125 217.579141 
L 239.084325 217.670676 
L 239.307525 217.097082 
L 239.753925 220.872192 
L 239.977125 219.617577 
L 240.200325 216.998581 
L 240.423525 218.240504 
L 240.646725 206.024109 
L 241.093125 225.23161 
L 241.316325 215.878381 
L 241.539525 224.388819 
L 241.762725 214.713826 
L 241.985925 220.319541 
L 242.209125 219.949131 
L 242.432325 218.216751 
L 242.655525 217.635129 
L 242.878725 222.608491 
L 243.101925 221.804241 
L 243.325125 216.827418 
L 243.548325 220.113272 
L 243.771525 218.546532 
L 243.994725 220.120505 
L 244.217925 223.335884 
L 244.441125 219.747652 
L 244.664325 220.778414 
L 244.887525 224.695637 
L 245.110725 225.544512 
L 245.333925 222.90698 
L 245.557125 218.052375 
L 245.780325 217.154092 
L 246.226725 223.488239 
L 246.449925 219.174864 
L 246.673125 220.120178 
L 246.896325 223.077135 
L 247.119525 222.437773 
L 247.342725 215.310963 
L 247.565925 221.038358 
L 247.789125 219.672631 
L 248.458725 223.024294 
L 248.681925 222.480888 
L 248.905125 221.058042 
L 249.128325 220.582545 
L 249.351525 221.29451 
L 249.574725 222.452648 
L 249.797925 219.247208 
L 250.021125 221.153063 
L 250.244325 220.508076 
L 250.467525 223.540712 
L 250.913925 219.410615 
L 251.137125 221.341845 
L 251.360325 226.681425 
L 251.583525 226.109495 
L 251.806725 226.465436 
L 252.029925 223.513261 
L 252.253125 222.979544 
L 252.699525 225.630885 
L 252.922725 225.338854 
L 253.369125 224.492941 
L 253.592325 225.302267 
L 253.815525 227.277938 
L 254.038725 225.338572 
L 254.261925 226.346823 
L 254.485125 226.145452 
L 254.708325 226.747257 
L 254.931525 222.971722 
L 255.377925 225.977857 
L 255.601125 226.572301 
L 255.824325 225.859055 
L 256.047525 227.471 
L 256.270725 226.538313 
L 256.493925 227.485681 
L 256.717125 229.514431 
L 257.386725 226.36568 
L 257.609925 227.160946 
L 257.833125 232.603126 
L 258.056325 228.559318 
L 258.279525 228.379511 
L 258.502725 232.467448 
L 258.949125 229.044796 
L 259.172325 227.649683 
L 259.395525 229.515545 
L 259.618725 230.059635 
L 259.841925 228.476815 
L 260.065125 232.405241 
L 260.288325 232.189829 
L 260.511525 231.271678 
L 260.734725 235.465342 
L 261.181125 229.930879 
L 261.404325 235.985374 
L 261.627525 231.367518 
L 261.850725 230.542995 
L 262.073925 231.282401 
L 262.297125 228.129609 
L 262.520325 231.41348 
L 262.743525 228.683753 
L 262.966725 233.339446 
L 263.189925 231.043215 
L 263.413125 233.838604 
L 263.636325 228.642342 
L 263.859525 231.820466 
L 264.082725 231.299444 
L 264.305925 232.657546 
L 264.529125 228.923256 
L 264.975525 234.861249 
L 265.198725 231.487794 
L 265.421925 238.128799 
L 265.645125 230.522534 
L 266.091525 234.728339 
L 266.537925 234.032588 
L 266.761125 232.188123 
L 266.984325 234.467504 
L 267.430725 233.243674 
L 267.653925 234.446247 
L 267.877125 233.394404 
L 268.100325 234.068036 
L 268.323525 232.273366 
L 268.546725 232.487571 
L 268.769925 236.9002 
L 268.993125 236.702927 
L 269.216325 238.037761 
L 269.662725 234.807934 
L 270.109125 238.133695 
L 270.332325 234.972435 
L 270.555525 238.842383 
L 270.778725 239.354374 
L 271.001925 235.711418 
L 271.225125 238.757968 
L 271.448325 239.932869 
L 271.671525 236.324832 
L 271.894725 236.221405 
L 272.117925 239.946953 
L 272.341125 239.357581 
L 272.564325 239.688355 
L 272.787525 235.799082 
L 273.010725 240.668629 
L 273.233925 239.802988 
L 273.457125 241.668577 
L 273.680325 240.926055 
L 273.903525 235.138394 
L 274.349925 240.623495 
L 274.573125 236.361197 
L 274.796325 237.211419 
L 275.019525 241.532298 
L 275.242725 240.866061 
L 275.465925 237.405673 
L 275.912325 240.882064 
L 276.135525 239.675504 
L 276.581925 245.266273 
L 276.805125 239.123515 
L 277.028325 243.218052 
L 277.251525 240.161074 
L 277.474725 242.790419 
L 277.697925 241.652104 
L 277.921125 239.227567 
L 278.144325 240.568653 
L 278.367525 239.33382 
L 278.590725 242.002944 
L 278.813925 242.738385 
L 279.037125 241.267923 
L 279.260325 242.110066 
L 279.483525 241.97193 
L 279.706725 243.489491 
L 279.929925 243.022369 
L 280.153125 243.072018 
L 280.376325 242.526476 
L 280.599525 240.825665 
L 280.822725 241.509836 
L 281.045925 245.075439 
L 281.269125 244.763378 
L 281.492325 246.017279 
L 281.715525 243.192264 
L 281.938725 244.727448 
L 282.161925 245.327736 
L 282.385125 244.20029 
L 282.608325 248.167346 
L 283.054725 240.631534 
L 283.277925 243.791259 
L 283.501125 243.824633 
L 283.724325 242.975264 
L 283.947525 246.059837 
L 284.170725 246.169703 
L 284.393925 247.591708 
L 284.617125 245.855237 
L 284.840325 246.535738 
L 285.286725 244.264728 
L 285.509925 247.274378 
L 285.733125 246.224245 
L 285.956325 247.482255 
L 286.179525 236.231384 
L 286.402725 248.458028 
L 286.625925 245.523043 
L 287.072325 249.730866 
L 287.295525 248.427163 
L 287.518725 249.344636 
L 287.741925 244.190711 
L 287.965125 249.346749 
L 288.188325 249.781479 
L 288.411525 243.377035 
L 288.634725 249.627277 
L 288.857925 245.901996 
L 289.081125 247.026335 
L 289.304325 249.693373 
L 289.527525 250.840008 
L 289.750725 245.04718 
L 289.973925 245.167633 
L 290.197125 250.062976 
L 290.643525 246.314732 
L 290.866725 255.800126 
L 291.313125 251.984506 
L 291.536325 252.620216 
L 291.759525 248.513113 
L 291.982725 250.984513 
L 292.205925 251.353953 
L 292.429125 252.120725 
L 292.652325 238.912662 
L 292.875525 256.258894 
L 293.098725 251.562586 
L 293.545125 249.122541 
L 293.991525 253.134537 
L 294.214725 249.6812 
L 294.437925 253.662213 
L 294.661125 252.549925 
L 294.884325 253.801047 
L 295.107525 256.262766 
L 295.330725 247.940931 
L 295.553925 254.31797 
L 295.777125 253.821055 
L 296.000325 254.168801 
L 296.223525 253.515132 
L 296.446725 256.149829 
L 296.669925 252.774333 
L 296.893125 253.08552 
L 297.116325 252.003907 
L 297.562725 252.800443 
L 297.785925 253.945783 
L 298.009125 256.094359 
L 298.232325 256.208644 
L 298.455525 254.457517 
L 298.678725 254.400469 
L 298.901925 256.126485 
L 299.125125 255.46616 
L 299.348325 251.739511 
L 299.571525 255.991887 
L 299.794725 255.577214 
L 300.017925 253.844555 
L 300.241125 256.398566 
L 300.464325 256.550258 
L 300.687525 258.728607 
L 300.910725 256.486001 
L 301.357125 255.944928 
L 301.803525 258.807603 
L 302.026725 256.339292 
L 302.249925 258.434435 
L 302.473125 255.644891 
L 302.696325 257.399782 
L 303.142725 259.215356 
L 303.365925 258.111485 
L 303.589125 258.360284 
L 303.812325 258.315264 
L 304.035525 257.370235 
L 304.258725 259.820373 
L 304.705125 258.225661 
L 304.928325 261.099909 
L 305.151525 257.43187 
L 305.374725 259.722557 
L 305.597925 259.222516 
L 305.821125 258.243919 
L 306.044325 263.180322 
L 306.267525 258.342948 
L 306.713925 261.582351 
L 306.937125 261.601512 
L 307.160325 257.952883 
L 307.383525 260.452225 
L 307.606725 260.886959 
L 307.829925 261.037428 
L 308.053125 263.90404 
L 308.499525 262.885313 
L 308.722725 262.25569 
L 308.945925 260.878561 
L 309.169125 265.37987 
L 309.392325 262.801646 
L 309.615525 264.682771 
L 309.838725 261.251802 
L 310.061925 263.14488 
L 310.285125 263.960881 
L 310.508325 263.686724 
L 310.731525 261.699966 
L 310.954725 263.112539 
L 311.177925 260.154429 
L 311.401125 262.307086 
L 311.624325 262.097741 
L 311.847525 265.792953 
L 312.070725 261.282902 
L 312.293925 266.807881 
L 312.517125 262.619219 
L 312.740325 266.803044 
L 312.963525 265.035998 
L 313.409925 263.554472 
L 313.633125 264.482746 
L 313.856325 262.146584 
L 314.079525 266.376258 
L 314.302725 266.74912 
L 314.525925 264.315892 
L 314.749125 265.711874 
L 314.972325 273.488619 
L 315.195525 266.936267 
L 315.418725 267.658955 
L 315.641925 268.969831 
L 315.865125 265.417942 
L 316.088325 265.449826 
L 316.311525 266.079151 
L 316.757925 271.7667 
L 316.981125 265.302548 
L 317.204325 264.658296 
L 317.427525 270.390939 
L 317.650725 269.761535 
L 317.873925 266.796454 
L 318.097125 267.561248 
L 318.320325 270.245702 
L 318.543525 268.677057 
L 318.766725 269.717972 
L 318.989925 268.742743 
L 319.436325 271.424652 
L 319.659525 269.518473 
L 319.882725 268.878208 
L 320.105925 271.921098 
L 320.329125 270.681717 
L 320.775525 272.310382 
L 320.998725 268.761694 
L 321.445125 272.503716 
L 321.668325 269.771412 
L 321.891525 271.167532 
L 322.114725 268.691233 
L 322.561125 273.467741 
L 322.784325 271.598067 
L 323.007525 273.362114 
L 323.230725 271.085562 
L 323.453925 272.75644 
L 323.677125 270.932502 
L 323.900325 273.539051 
L 324.123525 273.199535 
L 324.346725 273.452119 
L 324.569925 274.159668 
L 324.793125 275.25843 
L 325.016325 274.574527 
L 325.239525 274.839882 
L 325.462725 272.512118 
L 325.909125 275.794055 
L 326.132325 274.950315 
L 326.355525 281.173531 
L 326.578725 275.952501 
L 326.801925 276.237759 
L 327.025125 278.489086 
L 327.248325 282.123675 
L 327.471525 275.127309 
L 327.694725 274.518836 
L 327.917925 274.751807 
L 328.364325 277.244083 
L 328.587525 275.556311 
L 328.810725 275.490508 
L 329.033925 275.831636 
L 329.257125 278.897833 
L 329.480325 277.762428 
L 329.926725 277.134768 
L 330.149925 278.343088 
L 330.373125 276.397799 
L 330.596325 276.849763 
L 331.042725 283.03359 
L 331.265925 284.681955 
L 331.712325 280.453752 
L 331.935525 284.168092 
L 332.381925 277.899251 
L 332.605125 281.601036 
L 332.828325 282.09592 
L 333.274725 280.382161 
L 333.497925 288.65616 
L 333.721125 281.025471 
L 334.167525 282.341552 
L 334.390725 281.609122 
L 334.613925 278.763012 
L 334.837125 281.057568 
L 335.060325 279.271378 
L 335.283525 281.577129 
L 335.506725 282.073955 
L 335.729925 283.597353 
L 335.953125 278.662389 
L 336.176325 280.276373 
L 336.399525 280.17719 
L 336.622725 281.683196 
L 337.069125 282.880677 
L 337.292325 284.855013 
L 337.515525 282.396796 
L 337.961925 284.671511 
L 338.185125 281.368024 
L 338.408325 281.924801 
L 338.631525 283.588084 
L 338.854725 287.245565 
L 339.077925 282.505395 
L 339.524325 285.834168 
L 339.747525 285.841465 
L 339.970725 286.36988 
L 340.193925 283.758029 
L 340.417125 282.515645 
L 340.640325 286.994325 
L 340.863525 295.830746 
L 341.086725 283.345132 
L 341.309925 284.812458 
L 341.533125 287.363485 
L 341.756325 285.598232 
L 341.979525 285.1803 
L 342.202725 286.572213 
L 342.425925 285.76539 
L 342.649125 287.939245 
L 342.872325 286.716894 
L 343.095525 288.87944 
L 343.318725 287.783575 
L 343.541925 289.080815 
L 343.765125 289.221776 
L 343.988325 293.313687 
L 344.211525 290.235226 
L 344.434725 291.076733 
L 344.657925 291.273769 
L 344.881125 290.901161 
L 345.104325 300.077262 
L 345.327525 291.258001 
L 345.550725 291.202544 
L 345.773925 290.401218 
L 345.997125 295.583607 
L 346.220325 289.615543 
L 346.443525 294.791897 
L 346.666725 292.728896 
L 346.889925 288.433016 
L 347.113125 297.408356 
L 347.336325 291.420701 
L 347.559525 291.106651 
L 347.782725 291.552791 
L 348.005925 297.15661 
L 348.229125 291.856918 
L 348.452325 289.65151 
L 348.675525 289.161938 
L 348.898725 290.744836 
L 349.121925 293.30313 
L 349.345125 298.427198 
L 349.568325 292.738504 
L 349.791525 292.947707 
L 350.014725 297.760096 
L 350.237925 293.877868 
L 350.461125 293.933886 
L 350.684325 295.65384 
L 350.907525 294.958832 
L 351.130725 304.34711 
L 351.353925 293.753626 
L 351.577125 293.94815 
L 351.800325 295.615997 
L 352.023525 292.64042 
L 352.246725 293.817454 
L 352.469925 292.072227 
L 352.693125 294.825114 
L 352.916325 294.668198 
L 353.362725 295.478722 
L 353.585925 293.742961 
L 353.809125 296.523327 
L 354.032325 294.482587 
L 354.255525 295.160773 
L 354.478725 293.926536 
L 354.701925 295.037551 
L 354.925125 294.267146 
L 355.148325 306.389773 
L 355.371525 297.708805 
L 355.594725 296.238066 
L 355.817925 308.798689 
L 356.041125 295.156741 
L 356.487525 297.070233 
L 356.710725 296.967215 
L 356.933925 297.959445 
L 357.157125 301.700061 
L 357.380325 302.71853 
L 357.603525 291.972722 
L 357.826725 292.868211 
L 358.049925 297.043301 
L 358.273125 297.697589 
L 358.496325 298.881497 
L 358.719525 298.717376 
L 358.942725 296.966316 
L 359.165925 299.525526 
L 359.389125 298.080401 
L 359.612325 300.753565 
L 359.835525 299.300539 
L 360.058725 301.463033 
L 360.281925 301.593316 
L 360.505125 301.274241 
L 360.728325 301.368067 
L 360.951525 302.27341 
L 361.174725 299.582593 
L 361.397925 302.404145 
L 361.621125 300.346495 
L 361.844325 300.327846 
L 362.067525 300.427953 
L 362.290725 302.071963 
L 362.513925 301.780169 
L 362.737125 304.178865 
L 362.960325 303.590976 
L 363.183525 298.254575 
L 363.406725 304.529945 
L 363.629925 303.079749 
L 363.853125 303.041729 
L 364.076325 301.479901 
L 364.299525 303.069932 
L 364.522725 302.124986 
L 364.745925 311.385813 
L 364.969125 300.8422 
L 365.192325 301.934345 
L 365.415525 304.411962 
L 365.638725 304.773586 
L 365.861925 303.1269 
L 366.085125 304.002992 
L 366.308325 303.866968 
L 366.531525 304.58953 
L 366.754725 303.316472 
L 367.201125 305.933798 
L 367.424325 298.734878 
L 367.647525 306.118994 
L 367.870725 302.933392 
L 368.093925 302.509206 
L 368.540325 307.999187 
L 368.763525 305.737318 
L 368.986725 306.96387 
L 369.209925 304.509535 
L 369.433125 306.877851 
L 369.656325 307.349857 
L 369.879525 305.293546 
L 370.102725 308.545315 
L 370.325925 306.237164 
L 370.549125 305.953648 
L 370.772325 308.705773 
L 370.995525 306.207181 
L 371.218725 306.259647 
L 371.665125 310.740854 
L 371.888325 309.061618 
L 372.111525 308.552046 
L 372.334725 310.044842 
L 372.557925 309.552329 
L 372.781125 309.966191 
L 373.004325 311.916883 
L 373.227525 316.651532 
L 373.450725 307.801627 
L 373.673925 309.099411 
L 373.897125 311.555729 
L 374.120325 311.022088 
L 374.343525 304.996749 
L 374.566725 309.246697 
L 374.789925 308.280874 
L 375.013125 306.820245 
L 375.236325 312.440271 
L 375.459525 310.86885 
L 375.905925 319.343076 
L 376.352325 303.452149 
L 376.575525 312.573549 
L 376.798725 312.382492 
L 377.021925 314.188875 
L 377.245125 312.538225 
L 377.468325 313.555793 
L 377.691525 318.141548 
L 377.914725 314.335415 
L 378.137925 314.459217 
L 378.361125 314.732549 
L 378.584325 311.25378 
L 378.807525 320.460458 
L 379.030725 314.071343 
L 379.253925 313.355414 
L 379.477125 313.91887 
L 379.700325 315.801843 
L 379.923525 314.498402 
L 380.146725 314.313187 
L 380.369925 317.608637 
L 380.593125 313.299495 
L 380.816325 314.658647 
L 381.039525 316.896342 
L 381.262725 329.262465 
L 381.485925 311.342347 
L 381.709125 321.939547 
L 381.932325 314.213195 
L 382.155525 314.399209 
L 382.378725 318.257733 
L 382.825125 314.835761 
L 383.048325 315.174256 
L 383.271525 314.610464 
L 383.494725 314.658151 
L 383.717925 316.615624 
L 383.941125 320.620575 
L 384.164325 316.037114 
L 384.387525 317.338518 
L 384.610725 317.119023 
L 384.833925 316.067147 
L 385.057125 315.638788 
L 385.280325 316.553888 
L 385.503525 312.390151 
L 385.726725 319.350483 
L 385.949925 318.322062 
L 386.173125 319.105633 
L 386.396325 319.262228 
L 386.619525 324.198794 
L 386.842725 319.438006 
L 387.289125 320.64315 
L 387.512325 322.258115 
L 387.735525 317.911082 
L 387.958725 322.358685 
L 388.181925 320.963543 
L 388.405125 320.457722 
L 388.628325 321.148139 
L 388.851525 322.226694 
L 389.074725 322.460908 
L 389.297925 324.171056 
L 389.521125 322.997824 
L 389.744325 323.45891 
L 389.967525 323.661178 
L 390.413925 321.743657 
L 390.637125 322.053727 
L 390.860325 321.967519 
L 391.083525 322.185149 
L 391.306725 320.963788 
L 391.529925 323.712678 
L 391.753125 320.326264 
L 391.976325 319.079905 
L 392.422725 325.030324 
L 392.645925 321.385352 
L 392.869125 321.494506 
L 393.315525 331.32375 
L 393.538725 323.453975 
L 393.761925 323.536275 
L 393.985125 318.811493 
L 394.208325 318.895079 
L 394.431525 327.167277 
L 394.654725 322.732969 
L 394.877925 323.41126 
L 395.324325 325.977997 
L 395.547525 328.873557 
L 395.770725 327.52262 
L 395.993925 322.745398 
L 396.217125 324.115707 
L 396.440325 330.14724 
L 396.663525 329.02523 
L 396.886725 332.198688 
L 397.109925 322.831366 
L 397.333125 325.876916 
L 397.556325 323.292609 
L 397.779525 325.199945 
L 398.225925 331.861107 
L 398.449125 328.915504 
L 398.672325 332.008558 
L 398.895525 328.170921 
L 399.118725 331.243646 
L 399.341925 337.409883 
L 399.565125 334.201741 
L 399.788325 319.96828 
L 400.011525 327.8771 
L 400.234725 328.337987 
L 400.457925 322.762889 
L 400.681125 330.532192 
L 400.904325 323.468841 
L 401.127525 324.953507 
L 401.350725 319.834757 
L 401.573925 329.757859 
L 401.797125 323.573926 
L 402.020325 325.792247 
L 402.243525 323.111392 
L 402.689925 347.404168 
L 402.913125 334.300264 
L 403.136325 330.818172 
L 403.359525 320.469211 
L 403.582725 322.019987 
L 404.029125 327.70836 
L 404.252325 338.354251 
L 404.698725 325.8854 
L 404.921925 326.999378 
L 405.145125 325.590144 
L 405.368325 334.740864 
L 405.591525 339.054935 
L 405.814725 331.865925 
L 406.037925 335.256413 
L 406.261125 326.836954 
L 406.484325 338.196483 
L 406.930725 327.862016 
L 407.153925 339.930252 
L 407.377125 331.632621 
L 407.600325 331.082393 
L 407.823525 326.232648 
L 408.269925 338.376996 
L 408.493125 326.891117 
L 408.716325 331.929868 
L 408.939525 341.983109 
L 409.385925 336.828548 
L 409.609125 327.833606 
L 409.832325 323.642828 
L 410.278725 337.668128 
L 410.948325 328.835949 
L 411.171525 334.934426 
L 411.394725 329.221056 
L 411.617925 339.71432 
L 411.841125 330.6572 
L 412.064325 335.58433 
L 412.287525 335.883404 
L 412.510725 329.731225 
L 412.733925 329.640681 
L 413.180325 339.213382 
L 413.626725 333.887804 
L 413.849925 334.884105 
L 414.073125 334.614607 
L 414.296325 335.608728 
L 414.519525 326.459607 
L 414.742725 340.099261 
L 414.965925 315.03224 
L 415.189125 335.040014 
L 415.412325 341.450777 
L 415.858725 341.779218 
L 416.081925 332.7642 
L 416.305125 336.753592 
L 416.528325 331.690766 
L 416.751525 331.852622 
L 416.974725 339.974904 
L 417.197925 340.827068 
L 417.421125 337.513441 
L 417.644325 338.637687 
L 417.867525 343.969645 
L 418.090725 338.268611 
L 418.313925 339.01096 
L 418.537125 336.792785 
L 418.760325 338.815022 
L 418.983525 338.847597 
L 419.206725 335.807118 
L 419.429925 338.61095 
L 419.653125 329.787414 
L 419.876325 338.568517 
L 420.099525 335.896451 
L 420.322725 341.753516 
L 420.545925 335.569407 
L 420.769125 338.454591 
L 420.992325 335.091848 
L 421.215525 334.613434 
L 421.438725 331.341651 
L 421.661925 336.686854 
L 421.885125 335.449326 
L 422.108325 331.191124 
L 422.331525 339.484815 
L 422.554725 332.548606 
L 423.001125 342.648783 
L 423.224325 336.271235 
L 423.447525 337.839672 
L 423.670725 341.607195 
L 423.893925 320.808953 
L 424.340325 344.210857 
L 424.563525 330.897055 
L 424.786725 337.701156 
L 425.009925 334.015439 
L 425.233125 336.305476 
L 425.679525 331.962261 
L 425.902725 343.557227 
L 426.125925 337.040462 
L 426.349125 349.694808 
L 426.572325 341.71526 
L 426.795525 347.943054 
L 427.018725 336.973826 
L 427.465125 346.711939 
L 427.688325 331.727086 
L 427.911525 349.529156 
L 428.134725 350.764605 
L 428.581125 335.140991 
L 428.804325 341.572984 
L 429.027525 333.854268 
L 429.250725 342.290509 
L 429.697125 328.542942 
L 429.920325 344.464033 
L 430.143525 338.93655 
L 430.366725 348.515648 
L 430.589925 346.178985 
L 430.813125 347.703147 
L 431.036325 347.179102 
L 431.259525 343.873918 
L 431.482725 344.133753 
L 431.705925 345.492195 
L 431.929125 339.222983 
L 432.152325 341.204853 
L 432.375525 339.837665 
L 432.598725 339.492975 
L 432.821925 332.184501 
L 433.045125 340.558761 
L 433.268325 339.37972 
L 433.491525 355.190974 
L 433.714725 346.665124 
L 433.937925 342.710642 
L 434.161125 347.738282 
L 434.384325 346.198977 
L 434.607525 343.274027 
L 434.830725 338.825918 
L 435.053925 344.381843 
L 435.500325 340.010646 
L 435.723525 345.948824 
L 435.946725 342.326064 
L 436.169925 343.430346 
L 436.393125 343.243568 
L 436.616325 347.485162 
L 436.839525 336.015008 
L 437.062725 345.897061 
L 437.285925 345.837691 
L 437.509125 342.907236 
L 437.732325 350.844897 
L 437.955525 346.179163 
L 438.401925 347.826179 
L 438.625125 343.859745 
L 438.848325 344.601709 
L 439.071525 344.649155 
L 439.294725 344.314107 
L 439.517925 342.225561 
L 439.741125 352.267649 
L 439.964325 347.645217 
L 440.187525 338.382974 
L 440.633925 348.954907 
L 440.857125 343.761494 
L 441.080325 342.613418 
L 441.303525 361.785444 
L 441.749925 340.580184 
L 441.973125 343.05927 
L 442.196325 340.469437 
L 442.419525 347.577413 
L 442.865925 349.617061 
L 443.089125 341.705284 
L 443.535525 350.287895 
L 443.758725 343.473876 
L 443.981925 352.47108 
L 444.205125 343.174759 
L 444.428325 346.573478 
L 444.651525 351.857352 
L 444.874725 343.991536 
L 445.321125 347.755555 
L 445.544325 348.454727 
L 445.767525 342.492195 
L 445.990725 350.919395 
L 446.213925 350.130166 
L 446.437125 347.577765 
L 446.660325 325.778308 
L 446.883525 345.165087 
L 447.106725 345.499539 
L 447.329925 350.876068 
L 447.553125 347.516678 
L 447.776325 349.343584 
L 447.999525 346.263335 
L 448.222725 354.083493 
L 448.892325 345.707647 
L 449.338725 352.71397 
L 449.561925 348.430106 
L 450.231525 346.111869 
L 450.677925 352.154289 
L 450.901125 346.647509 
L 451.124325 353.619109 
L 451.347525 348.660021 
L 451.570725 348.798595 
L 451.793925 349.683301 
L 452.017125 351.874713 
L 452.240325 346.302995 
L 452.463525 351.442963 
L 452.686725 352.596571 
L 452.909925 357.618012 
L 453.133125 353.362061 
L 453.356325 351.477845 
L 453.579525 355.048905 
L 453.802725 346.844432 
L 454.025925 347.848362 
L 454.249125 344.326842 
L 454.472325 352.178553 
L 454.695525 345.057717 
L 454.918725 354.19076 
L 455.141925 349.282823 
L 455.365125 349.674441 
L 455.588325 348.458477 
L 455.811525 350.930657 
L 456.034725 356.384009 
L 456.257925 356.639993 
L 456.481125 353.045235 
L 456.704325 355.229941 
L 456.927525 347.002699 
L 457.150725 351.058215 
L 457.373925 346.392727 
L 457.597125 350.568492 
L 457.820325 349.824963 
L 458.043525 350.896186 
L 458.266725 358.062281 
L 458.489925 352.11551 
L 458.713125 351.015174 
L 458.936325 358.026621 
L 459.159525 359.423395 
L 459.382725 359.645603 
L 459.605925 350.825975 
L 460.052325 357.167331 
L 460.275525 356.519013 
L 460.498725 356.382979 
L 460.721925 348.851739 
L 460.945125 350.774586 
L 461.391525 360.194981 
L 461.614725 352.720392 
L 461.837925 351.343308 
L 462.061125 353.147809 
L 462.284325 348.815138 
L 462.507525 348.569805 
L 463.177125 357.938854 
L 463.623525 355.177398 
L 463.846725 355.078269 
L 464.069925 353.222821 
L 464.293125 356.708433 
L 464.516325 355.788664 
L 464.739525 357.155974 
L 464.962725 357.156117 
L 465.185925 356.298659 
L 465.409125 352.868097 
L 465.632325 358.902973 
L 465.855525 352.442709 
L 466.078725 351.954732 
L 466.301925 358.495901 
L 466.525125 351.051828 
L 466.748325 357.130483 
L 466.971525 355.796596 
L 467.194725 359.571085 
L 467.417925 352.508932 
L 467.641125 352.503471 
L 467.864325 350.696119 
L 468.087525 352.079766 
L 468.310725 363.557477 
L 468.533925 354.598088 
L 468.757125 355.550573 
L 468.980325 357.472734 
L 469.203525 353.936987 
L 469.426725 354.898294 
L 469.649925 355.35998 
L 469.873125 360.666516 
L 470.319525 348.164536 
L 470.765925 361.123832 
L 470.989125 355.262409 
L 471.212325 353.973237 
L 471.881925 365.921207 
L 472.105125 361.329714 
L 472.551525 359.490801 
L 472.774725 360.516365 
L 473.221125 354.098755 
L 473.667525 363.933243 
L 473.890725 361.159254 
L 474.113925 360.341514 
L 474.337125 358.266469 
L 474.560325 360.898327 
L 474.783525 364.957748 
L 475.229925 357.901784 
L 475.453125 363.192773 
L 475.899525 359.664007 
L 476.122725 363.447811 
L 476.345925 362.988689 
L 476.569125 365.992521 
L 476.792325 355.351307 
L 477.015525 359.096199 
L 477.238725 358.250225 
L 477.461925 361.405057 
L 477.685125 359.404773 
L 477.908325 363.008552 
L 478.131525 361.482234 
L 478.354725 358.231695 
L 478.577925 357.023478 
L 478.801125 362.290516 
L 479.024325 360.454503 
L 479.247525 361.772465 
L 479.470725 355.225549 
L 479.693925 361.452155 
L 479.917125 364.236597 
L 480.140325 359.971126 
L 480.363525 364.609778 
L 480.586725 362.902524 
L 480.809925 364.139303 
L 480.809925 364.139303 
" style="fill:none;stroke:#0000ff;stroke-linecap:square;stroke-width:0.5;"/>
   </g>
   <g id="patch_3">
    <path d="M 56.953125 368.74175 
L 56.953125 23.14175 
" style="fill:none;stroke:#000000;stroke-linecap:square;stroke-linejoin:miter;"/>
   </g>
   <g id="patch_4">
    <path d="M 56.953125 368.74175 
L 503.353125 368.74175 
" style="fill:none;stroke:#000000;stroke-linecap:square;stroke-linejoin:miter;"/>
   </g>
   <g id="patch_5">
    <path d="M 503.353125 368.74175 
L 503.353125 23.14175 
" style="fill:none;stroke:#000000;stroke-linecap:square;stroke-linejoin:miter;"/>
   </g>
   <g id="patch_6">
    <path d="M 56.953125 23.14175 
L 503.353125 23.14175 
" style="fill:none;stroke:#000000;stroke-linecap:square;stroke-linejoin:miter;"/>
   </g>
   <g id="matplotlib.axis_1">
    <g id="xtick_1">
     <g id="line2d_2">
      <defs>
       <path d="M 0 0 
L 0 -4 
" id="m9c9e30fe43" style="stroke:#000000;stroke-width:0.5;"/>
      </defs>
      <g>
       <use style="stroke:#000000;stroke-width:0.5;" x="56.953125" xlink:href="#m9c9e30fe43" y="368.74175"/>
      </g>
     </g>
     <g id="line2d_3">
      <defs>
       <path d="M 0 0 
L 0 4 
" id="m40462766dc" style="stroke:#000000;stroke-width:0.5;"/>
      </defs>
      <g>
       <use style="stroke:#000000;stroke-width:0.5;" x="56.953125" xlink:href="#m40462766dc" y="23.14175"/>
      </g>
     </g>
     <g id="text_1">
      <!-- 0 -->
      <defs>
       <path d="M 31.78125 66.40625 
Q 24.171875 66.40625 20.328125 58.90625 
Q 16.5 51.421875 16.5 36.375 
Q 16.5 21.390625 20.328125 13.890625 
Q 24.171875 6.390625 31.78125 6.390625 
Q 39.453125 6.390625 43.28125 13.890625 
Q 47.125 21.390625 47.125 36.375 
Q 47.125 51.421875 43.28125 58.90625 
Q 39.453125 66.40625 31.78125 66.40625 
M 31.78125 74.21875 
Q 44.046875 74.21875 50.515625 64.515625 
Q 56.984375 54.828125 56.984375 36.375 
Q 56.984375 17.96875 50.515625 8.265625 
Q 44.046875 -1.421875 31.78125 -1.421875 
Q 19.53125 -1.421875 13.0625 8.265625 
Q 6.59375 17.96875 6.59375 36.375 
Q 6.59375 54.828125 13.0625 64.515625 
Q 19.53125 74.21875 31.78125 74.21875 
" id="BitstreamVeraSans-Roman-30"/>
      </defs>
      <g transform="translate(53.135625 381.859875)scale(0.12 -0.12)">
       <use xlink:href="#BitstreamVeraSans-Roman-30"/>
      </g>
     </g>
    </g>
    <g id="xtick_2">
     <g id="line2d_4">
      <g>
       <use style="stroke:#000000;stroke-width:0.5;" x="168.553125" xlink:href="#m9c9e30fe43" y="368.74175"/>
      </g>
     </g>
     <g id="line2d_5">
      <g>
       <use style="stroke:#000000;stroke-width:0.5;" x="168.553125" xlink:href="#m40462766dc" y="23.14175"/>
      </g>
     </g>
     <g id="text_2">
      <!-- 500 -->
      <defs>
       <path d="M 10.796875 72.90625 
L 49.515625 72.90625 
L 49.515625 64.59375 
L 19.828125 64.59375 
L 19.828125 46.734375 
Q 21.96875 47.46875 24.109375 47.828125 
Q 26.265625 48.1875 28.421875 48.1875 
Q 40.625 48.1875 47.75 41.5 
Q 54.890625 34.8125 54.890625 23.390625 
Q 54.890625 11.625 47.5625 5.09375 
Q 40.234375 -1.421875 26.90625 -1.421875 
Q 22.3125 -1.421875 17.546875 -0.640625 
Q 12.796875 0.140625 7.71875 1.703125 
L 7.71875 11.625 
Q 12.109375 9.234375 16.796875 8.0625 
Q 21.484375 6.890625 26.703125 6.890625 
Q 35.15625 6.890625 40.078125 11.328125 
Q 45.015625 15.765625 45.015625 23.390625 
Q 45.015625 31 40.078125 35.4375 
Q 35.15625 39.890625 26.703125 39.890625 
Q 22.75 39.890625 18.8125 39.015625 
Q 14.890625 38.140625 10.796875 36.28125 
z
" id="BitstreamVeraSans-Roman-35"/>
      </defs>
      <g transform="translate(157.100625 381.859875)scale(0.12 -0.12)">
       <use xlink:href="#BitstreamVeraSans-Roman-35"/>
       <use x="63.623046875" xlink:href="#BitstreamVeraSans-Roman-30"/>
       <use x="127.24609375" xlink:href="#BitstreamVeraSans-Roman-30"/>
      </g>
     </g>
    </g>
    <g id="xtick_3">
     <g id="line2d_6">
      <g>
       <use style="stroke:#000000;stroke-width:0.5;" x="280.153125" xlink:href="#m9c9e30fe43" y="368.74175"/>
      </g>
     </g>
     <g id="line2d_7">
      <g>
       <use style="stroke:#000000;stroke-width:0.5;" x="280.153125" xlink:href="#m40462766dc" y="23.14175"/>
      </g>
     </g>
     <g id="text_3">
      <!-- 1000 -->
      <defs>
       <path d="M 12.40625 8.296875 
L 28.515625 8.296875 
L 28.515625 63.921875 
L 10.984375 60.40625 
L 10.984375 69.390625 
L 28.421875 72.90625 
L 38.28125 72.90625 
L 38.28125 8.296875 
L 54.390625 8.296875 
L 54.390625 0 
L 12.40625 0 
z
" id="BitstreamVeraSans-Roman-31"/>
      </defs>
      <g transform="translate(264.883125 381.859875)scale(0.12 -0.12)">
       <use xlink:href="#BitstreamVeraSans-Roman-31"/>
       <use x="63.623046875" xlink:href="#BitstreamVeraSans-Roman-30"/>
       <use x="127.24609375" xlink:href="#BitstreamVeraSans-Roman-30"/>
       <use x="190.869140625" xlink:href="#BitstreamVeraSans-Roman-30"/>
      </g>
     </g>
    </g>
    <g id="xtick_4">
     <g id="line2d_8">
      <g>
       <use style="stroke:#000000;stroke-width:0.5;" x="391.753125" xlink:href="#m9c9e30fe43" y="368.74175"/>
      </g>
     </g>
     <g id="line2d_9">
      <g>
       <use style="stroke:#000000;stroke-width:0.5;" x="391.753125" xlink:href="#m40462766dc" y="23.14175"/>
      </g>
     </g>
     <g id="text_4">
      <!-- 1500 -->
      <g transform="translate(376.483125 381.859875)scale(0.12 -0.12)">
       <use xlink:href="#BitstreamVeraSans-Roman-31"/>
       <use x="63.623046875" xlink:href="#BitstreamVeraSans-Roman-35"/>
       <use x="127.24609375" xlink:href="#BitstreamVeraSans-Roman-30"/>
       <use x="190.869140625" xlink:href="#BitstreamVeraSans-Roman-30"/>
      </g>
     </g>
    </g>
    <g id="xtick_5">
     <g id="line2d_10">
      <g>
       <use style="stroke:#000000;stroke-width:0.5;" x="503.353125" xlink:href="#m9c9e30fe43" y="368.74175"/>
      </g>
     </g>
     <g id="line2d_11">
      <g>
       <use style="stroke:#000000;stroke-width:0.5;" x="503.353125" xlink:href="#m40462766dc" y="23.14175"/>
      </g>
     </g>
     <g id="text_5">
      <!-- 2000 -->
      <defs>
       <path d="M 19.1875 8.296875 
L 53.609375 8.296875 
L 53.609375 0 
L 7.328125 0 
L 7.328125 8.296875 
Q 12.9375 14.109375 22.625 23.890625 
Q 32.328125 33.6875 34.8125 36.53125 
Q 39.546875 41.84375 41.421875 45.53125 
Q 43.3125 49.21875 43.3125 52.78125 
Q 43.3125 58.59375 39.234375 62.25 
Q 35.15625 65.921875 28.609375 65.921875 
Q 23.96875 65.921875 18.8125 64.3125 
Q 13.671875 62.703125 7.8125 59.421875 
L 7.8125 69.390625 
Q 13.765625 71.78125 18.9375 73 
Q 24.125 74.21875 28.421875 74.21875 
Q 39.75 74.21875 46.484375 68.546875 
Q 53.21875 62.890625 53.21875 53.421875 
Q 53.21875 48.921875 51.53125 44.890625 
Q 49.859375 40.875 45.40625 35.40625 
Q 44.1875 33.984375 37.640625 27.21875 
Q 31.109375 20.453125 19.1875 8.296875 
" id="BitstreamVeraSans-Roman-32"/>
      </defs>
      <g transform="translate(488.083125 381.859875)scale(0.12 -0.12)">
       <use xlink:href="#BitstreamVeraSans-Roman-32"/>
       <use x="63.623046875" xlink:href="#BitstreamVeraSans-Roman-30"/>
       <use x="127.24609375" xlink:href="#BitstreamVeraSans-Roman-30"/>
       <use x="190.869140625" xlink:href="#BitstreamVeraSans-Roman-30"/>
      </g>
     </g>
    </g>
    <g id="text_6">
     <!-- episode -->
     <defs>
      <path d="M 44.28125 53.078125 
L 44.28125 44.578125 
Q 40.484375 46.53125 36.375 47.5 
Q 32.28125 48.484375 27.875 48.484375 
Q 21.1875 48.484375 17.84375 46.4375 
Q 14.5 44.390625 14.5 40.28125 
Q 14.5 37.15625 16.890625 35.375 
Q 19.28125 33.59375 26.515625 31.984375 
L 29.59375 31.296875 
Q 39.15625 29.25 43.1875 25.515625 
Q 47.21875 21.78125 47.21875 15.09375 
Q 47.21875 7.46875 41.1875 3.015625 
Q 35.15625 -1.421875 24.609375 -1.421875 
Q 20.21875 -1.421875 15.453125 -0.5625 
Q 10.6875 0.296875 5.421875 2 
L 5.421875 11.28125 
Q 10.40625 8.6875 15.234375 7.390625 
Q 20.0625 6.109375 24.8125 6.109375 
Q 31.15625 6.109375 34.5625 8.28125 
Q 37.984375 10.453125 37.984375 14.40625 
Q 37.984375 18.0625 35.515625 20.015625 
Q 33.0625 21.96875 24.703125 23.78125 
L 21.578125 24.515625 
Q 13.234375 26.265625 9.515625 29.90625 
Q 5.8125 33.546875 5.8125 39.890625 
Q 5.8125 47.609375 11.28125 51.796875 
Q 16.75 56 26.8125 56 
Q 31.78125 56 36.171875 55.265625 
Q 40.578125 54.546875 44.28125 53.078125 
" id="BitstreamVeraSans-Roman-73"/>
      <path d="M 30.609375 48.390625 
Q 23.390625 48.390625 19.1875 42.75 
Q 14.984375 37.109375 14.984375 27.296875 
Q 14.984375 17.484375 19.15625 11.84375 
Q 23.34375 6.203125 30.609375 6.203125 
Q 37.796875 6.203125 41.984375 11.859375 
Q 46.1875 17.53125 46.1875 27.296875 
Q 46.1875 37.015625 41.984375 42.703125 
Q 37.796875 48.390625 30.609375 48.390625 
M 30.609375 56 
Q 42.328125 56 49.015625 48.375 
Q 55.71875 40.765625 55.71875 27.296875 
Q 55.71875 13.875 49.015625 6.21875 
Q 42.328125 -1.421875 30.609375 -1.421875 
Q 18.84375 -1.421875 12.171875 6.21875 
Q 5.515625 13.875 5.515625 27.296875 
Q 5.515625 40.765625 12.171875 48.375 
Q 18.84375 56 30.609375 56 
" id="BitstreamVeraSans-Roman-6f"/>
      <path d="M 9.421875 54.6875 
L 18.40625 54.6875 
L 18.40625 0 
L 9.421875 0 
z
M 9.421875 75.984375 
L 18.40625 75.984375 
L 18.40625 64.59375 
L 9.421875 64.59375 
z
" id="BitstreamVeraSans-Roman-69"/>
      <path d="M 18.109375 8.203125 
L 18.109375 -20.796875 
L 9.078125 -20.796875 
L 9.078125 54.6875 
L 18.109375 54.6875 
L 18.109375 46.390625 
Q 20.953125 51.265625 25.265625 53.625 
Q 29.59375 56 35.59375 56 
Q 45.5625 56 51.78125 48.09375 
Q 58.015625 40.1875 58.015625 27.296875 
Q 58.015625 14.40625 51.78125 6.484375 
Q 45.5625 -1.421875 35.59375 -1.421875 
Q 29.59375 -1.421875 25.265625 0.953125 
Q 20.953125 3.328125 18.109375 8.203125 
M 48.6875 27.296875 
Q 48.6875 37.203125 44.609375 42.84375 
Q 40.53125 48.484375 33.40625 48.484375 
Q 26.265625 48.484375 22.1875 42.84375 
Q 18.109375 37.203125 18.109375 27.296875 
Q 18.109375 17.390625 22.1875 11.75 
Q 26.265625 6.109375 33.40625 6.109375 
Q 40.53125 6.109375 44.609375 11.75 
Q 48.6875 17.390625 48.6875 27.296875 
" id="BitstreamVeraSans-Roman-70"/>
      <path d="M 45.40625 46.390625 
L 45.40625 75.984375 
L 54.390625 75.984375 
L 54.390625 0 
L 45.40625 0 
L 45.40625 8.203125 
Q 42.578125 3.328125 38.25 0.953125 
Q 33.9375 -1.421875 27.875 -1.421875 
Q 17.96875 -1.421875 11.734375 6.484375 
Q 5.515625 14.40625 5.515625 27.296875 
Q 5.515625 40.1875 11.734375 48.09375 
Q 17.96875 56 27.875 56 
Q 33.9375 56 38.25 53.625 
Q 42.578125 51.265625 45.40625 46.390625 
M 14.796875 27.296875 
Q 14.796875 17.390625 18.875 11.75 
Q 22.953125 6.109375 30.078125 6.109375 
Q 37.203125 6.109375 41.296875 11.75 
Q 45.40625 17.390625 45.40625 27.296875 
Q 45.40625 37.203125 41.296875 42.84375 
Q 37.203125 48.484375 30.078125 48.484375 
Q 22.953125 48.484375 18.875 42.84375 
Q 14.796875 37.203125 14.796875 27.296875 
" id="BitstreamVeraSans-Roman-64"/>
      <path d="M 56.203125 29.59375 
L 56.203125 25.203125 
L 14.890625 25.203125 
Q 15.484375 15.921875 20.484375 11.0625 
Q 25.484375 6.203125 34.421875 6.203125 
Q 39.59375 6.203125 44.453125 7.46875 
Q 49.3125 8.734375 54.109375 11.28125 
L 54.109375 2.78125 
Q 49.265625 0.734375 44.1875 -0.34375 
Q 39.109375 -1.421875 33.890625 -1.421875 
Q 20.796875 -1.421875 13.15625 6.1875 
Q 5.515625 13.8125 5.515625 26.8125 
Q 5.515625 40.234375 12.765625 48.109375 
Q 20.015625 56 32.328125 56 
Q 43.359375 56 49.78125 48.890625 
Q 56.203125 41.796875 56.203125 29.59375 
M 47.21875 32.234375 
Q 47.125 39.59375 43.09375 43.984375 
Q 39.0625 48.390625 32.421875 48.390625 
Q 24.90625 48.390625 20.390625 44.140625 
Q 15.875 39.890625 15.1875 32.171875 
z
" id="BitstreamVeraSans-Roman-65"/>
     </defs>
     <g transform="translate(256.6875 398.473625)scale(0.12 -0.12)">
      <use xlink:href="#BitstreamVeraSans-Roman-65"/>
      <use x="61.5234375" xlink:href="#BitstreamVeraSans-Roman-70"/>
      <use x="125.0" xlink:href="#BitstreamVeraSans-Roman-69"/>
      <use x="152.783203125" xlink:href="#BitstreamVeraSans-Roman-73"/>
      <use x="204.8828125" xlink:href="#BitstreamVeraSans-Roman-6f"/>
      <use x="266.064453125" xlink:href="#BitstreamVeraSans-Roman-64"/>
      <use x="329.541015625" xlink:href="#BitstreamVeraSans-Roman-65"/>
     </g>
    </g>
   </g>
   <g id="matplotlib.axis_2">
    <g id="ytick_1">
     <g id="line2d_12">
      <defs>
       <path d="M 0 0 
L 4 0 
" id="m7adc0e66b3" style="stroke:#000000;stroke-width:0.5;"/>
      </defs>
      <g>
       <use style="stroke:#000000;stroke-width:0.5;" x="56.953125" xlink:href="#m7adc0e66b3" y="368.74175"/>
      </g>
     </g>
     <g id="line2d_13">
      <defs>
       <path d="M 0 0 
L -4 0 
" id="m99da983f58" style="stroke:#000000;stroke-width:0.5;"/>
      </defs>
      <g>
       <use style="stroke:#000000;stroke-width:0.5;" x="503.353125" xlink:href="#m99da983f58" y="368.74175"/>
      </g>
     </g>
     <g id="text_7">
      <!-- 2.0 -->
      <defs>
       <path d="M 10.59375 35.5 
L 73.1875 35.5 
L 73.1875 27.203125 
L 10.59375 27.203125 
z
" id="BitstreamVeraSans-Roman-2212"/>
       <path d="M 10.6875 12.40625 
L 21 12.40625 
L 21 0 
L 10.6875 0 
z
" id="BitstreamVeraSans-Roman-2e"/>
      </defs>
      <g transform="translate(23.81375 372.053)scale(0.12 -0.12)">
       <use xlink:href="#BitstreamVeraSans-Roman-2212"/>
       <use x="83.7890625" xlink:href="#BitstreamVeraSans-Roman-32"/>
       <use x="147.412109375" xlink:href="#BitstreamVeraSans-Roman-2e"/>
       <use x="179.19921875" xlink:href="#BitstreamVeraSans-Roman-30"/>
      </g>
     </g>
    </g>
    <g id="ytick_2">
     <g id="line2d_14">
      <g>
       <use style="stroke:#000000;stroke-width:0.5;" x="56.953125" xlink:href="#m7adc0e66b3" y="299.62175"/>
      </g>
     </g>
     <g id="line2d_15">
      <g>
       <use style="stroke:#000000;stroke-width:0.5;" x="503.353125" xlink:href="#m99da983f58" y="299.62175"/>
      </g>
     </g>
     <g id="text_8">
      <!-- 1.5 -->
      <g transform="translate(23.81375 302.933)scale(0.12 -0.12)">
       <use xlink:href="#BitstreamVeraSans-Roman-2212"/>
       <use x="83.7890625" xlink:href="#BitstreamVeraSans-Roman-31"/>
       <use x="147.412109375" xlink:href="#BitstreamVeraSans-Roman-2e"/>
       <use x="179.19921875" xlink:href="#BitstreamVeraSans-Roman-35"/>
      </g>
     </g>
    </g>
    <g id="ytick_3">
     <g id="line2d_16">
      <g>
       <use style="stroke:#000000;stroke-width:0.5;" x="56.953125" xlink:href="#m7adc0e66b3" y="230.50175"/>
      </g>
     </g>
     <g id="line2d_17">
      <g>
       <use style="stroke:#000000;stroke-width:0.5;" x="503.353125" xlink:href="#m99da983f58" y="230.50175"/>
      </g>
     </g>
     <g id="text_9">
      <!-- 1.0 -->
      <g transform="translate(23.81375 233.813)scale(0.12 -0.12)">
       <use xlink:href="#BitstreamVeraSans-Roman-2212"/>
       <use x="83.7890625" xlink:href="#BitstreamVeraSans-Roman-31"/>
       <use x="147.412109375" xlink:href="#BitstreamVeraSans-Roman-2e"/>
       <use x="179.19921875" xlink:href="#BitstreamVeraSans-Roman-30"/>
      </g>
     </g>
    </g>
    <g id="ytick_4">
     <g id="line2d_18">
      <g>
       <use style="stroke:#000000;stroke-width:0.5;" x="56.953125" xlink:href="#m7adc0e66b3" y="161.38175"/>
      </g>
     </g>
     <g id="line2d_19">
      <g>
       <use style="stroke:#000000;stroke-width:0.5;" x="503.353125" xlink:href="#m99da983f58" y="161.38175"/>
      </g>
     </g>
     <g id="text_10">
      <!-- 0.5 -->
      <g transform="translate(23.81375 164.693)scale(0.12 -0.12)">
       <use xlink:href="#BitstreamVeraSans-Roman-2212"/>
       <use x="83.7890625" xlink:href="#BitstreamVeraSans-Roman-30"/>
       <use x="147.412109375" xlink:href="#BitstreamVeraSans-Roman-2e"/>
       <use x="179.19921875" xlink:href="#BitstreamVeraSans-Roman-35"/>
      </g>
     </g>
    </g>
    <g id="ytick_5">
     <g id="line2d_20">
      <g>
       <use style="stroke:#000000;stroke-width:0.5;" x="56.953125" xlink:href="#m7adc0e66b3" y="92.26175"/>
      </g>
     </g>
     <g id="line2d_21">
      <g>
       <use style="stroke:#000000;stroke-width:0.5;" x="503.353125" xlink:href="#m99da983f58" y="92.26175"/>
      </g>
     </g>
     <g id="text_11">
      <!-- 0.0 -->
      <g transform="translate(33.869375 95.573)scale(0.12 -0.12)">
       <use xlink:href="#BitstreamVeraSans-Roman-30"/>
       <use x="63.623046875" xlink:href="#BitstreamVeraSans-Roman-2e"/>
       <use x="95.41015625" xlink:href="#BitstreamVeraSans-Roman-30"/>
      </g>
     </g>
    </g>
    <g id="ytick_6">
     <g id="line2d_22">
      <g>
       <use style="stroke:#000000;stroke-width:0.5;" x="56.953125" xlink:href="#m7adc0e66b3" y="23.14175"/>
      </g>
     </g>
     <g id="line2d_23">
      <g>
       <use style="stroke:#000000;stroke-width:0.5;" x="503.353125" xlink:href="#m99da983f58" y="23.14175"/>
      </g>
     </g>
     <g id="text_12">
      <!-- 0.5 -->
      <g transform="translate(33.869375 26.453)scale(0.12 -0.12)">
       <use xlink:href="#BitstreamVeraSans-Roman-30"/>
       <use x="63.623046875" xlink:href="#BitstreamVeraSans-Roman-2e"/>
       <use x="95.41015625" xlink:href="#BitstreamVeraSans-Roman-35"/>
      </g>
     </g>
    </g>
    <g id="text_13">
     <!-- average maxQ -->
     <defs>
      <path d="M 39.40625 66.21875 
Q 28.65625 66.21875 22.328125 58.203125 
Q 16.015625 50.203125 16.015625 36.375 
Q 16.015625 22.609375 22.328125 14.59375 
Q 28.65625 6.59375 39.40625 6.59375 
Q 50.140625 6.59375 56.421875 14.59375 
Q 62.703125 22.609375 62.703125 36.375 
Q 62.703125 50.203125 56.421875 58.203125 
Q 50.140625 66.21875 39.40625 66.21875 
M 53.21875 1.3125 
L 66.21875 -12.890625 
L 54.296875 -12.890625 
L 43.5 -1.21875 
Q 41.890625 -1.3125 41.03125 -1.359375 
Q 40.1875 -1.421875 39.40625 -1.421875 
Q 24.03125 -1.421875 14.8125 8.859375 
Q 5.609375 19.140625 5.609375 36.375 
Q 5.609375 53.65625 14.8125 63.9375 
Q 24.03125 74.21875 39.40625 74.21875 
Q 54.734375 74.21875 63.90625 63.9375 
Q 73.09375 53.65625 73.09375 36.375 
Q 73.09375 23.6875 67.984375 14.640625 
Q 62.890625 5.609375 53.21875 1.3125 
" id="BitstreamVeraSans-Roman-51"/>
      <path d="M 45.40625 27.984375 
Q 45.40625 37.75 41.375 43.109375 
Q 37.359375 48.484375 30.078125 48.484375 
Q 22.859375 48.484375 18.828125 43.109375 
Q 14.796875 37.75 14.796875 27.984375 
Q 14.796875 18.265625 18.828125 12.890625 
Q 22.859375 7.515625 30.078125 7.515625 
Q 37.359375 7.515625 41.375 12.890625 
Q 45.40625 18.265625 45.40625 27.984375 
M 54.390625 6.78125 
Q 54.390625 -7.171875 48.1875 -13.984375 
Q 42 -20.796875 29.203125 -20.796875 
Q 24.46875 -20.796875 20.265625 -20.09375 
Q 16.0625 -19.390625 12.109375 -17.921875 
L 12.109375 -9.1875 
Q 16.0625 -11.328125 19.921875 -12.34375 
Q 23.78125 -13.375 27.78125 -13.375 
Q 36.625 -13.375 41.015625 -8.765625 
Q 45.40625 -4.15625 45.40625 5.171875 
L 45.40625 9.625 
Q 42.625 4.78125 38.28125 2.390625 
Q 33.9375 0 27.875 0 
Q 17.828125 0 11.671875 7.65625 
Q 5.515625 15.328125 5.515625 27.984375 
Q 5.515625 40.671875 11.671875 48.328125 
Q 17.828125 56 27.875 56 
Q 33.9375 56 38.28125 53.609375 
Q 42.625 51.21875 45.40625 46.390625 
L 45.40625 54.6875 
L 54.390625 54.6875 
z
" id="BitstreamVeraSans-Roman-67"/>
      <path d="M 54.890625 54.6875 
L 35.109375 28.078125 
L 55.90625 0 
L 45.3125 0 
L 29.390625 21.484375 
L 13.484375 0 
L 2.875 0 
L 24.125 28.609375 
L 4.6875 54.6875 
L 15.28125 54.6875 
L 29.78125 35.203125 
L 44.28125 54.6875 
z
" id="BitstreamVeraSans-Roman-78"/>
      <path id="BitstreamVeraSans-Roman-20"/>
      <path d="M 2.984375 54.6875 
L 12.5 54.6875 
L 29.59375 8.796875 
L 46.6875 54.6875 
L 56.203125 54.6875 
L 35.6875 0 
L 23.484375 0 
z
" id="BitstreamVeraSans-Roman-76"/>
      <path d="M 52 44.1875 
Q 55.375 50.25 60.0625 53.125 
Q 64.75 56 71.09375 56 
Q 79.640625 56 84.28125 50.015625 
Q 88.921875 44.046875 88.921875 33.015625 
L 88.921875 0 
L 79.890625 0 
L 79.890625 32.71875 
Q 79.890625 40.578125 77.09375 44.375 
Q 74.3125 48.1875 68.609375 48.1875 
Q 61.625 48.1875 57.5625 43.546875 
Q 53.515625 38.921875 53.515625 30.90625 
L 53.515625 0 
L 44.484375 0 
L 44.484375 32.71875 
Q 44.484375 40.625 41.703125 44.40625 
Q 38.921875 48.1875 33.109375 48.1875 
Q 26.21875 48.1875 22.15625 43.53125 
Q 18.109375 38.875 18.109375 30.90625 
L 18.109375 0 
L 9.078125 0 
L 9.078125 54.6875 
L 18.109375 54.6875 
L 18.109375 46.1875 
Q 21.1875 51.21875 25.484375 53.609375 
Q 29.78125 56 35.6875 56 
Q 41.65625 56 45.828125 52.96875 
Q 50 49.953125 52 44.1875 
" id="BitstreamVeraSans-Roman-6d"/>
      <path d="M 41.109375 46.296875 
Q 39.59375 47.171875 37.8125 47.578125 
Q 36.03125 48 33.890625 48 
Q 26.265625 48 22.1875 43.046875 
Q 18.109375 38.09375 18.109375 28.8125 
L 18.109375 0 
L 9.078125 0 
L 9.078125 54.6875 
L 18.109375 54.6875 
L 18.109375 46.1875 
Q 20.953125 51.171875 25.484375 53.578125 
Q 30.03125 56 36.53125 56 
Q 37.453125 56 38.578125 55.875 
Q 39.703125 55.765625 41.0625 55.515625 
z
" id="BitstreamVeraSans-Roman-72"/>
      <path d="M 34.28125 27.484375 
Q 23.390625 27.484375 19.1875 25 
Q 14.984375 22.515625 14.984375 16.5 
Q 14.984375 11.71875 18.140625 8.90625 
Q 21.296875 6.109375 26.703125 6.109375 
Q 34.1875 6.109375 38.703125 11.40625 
Q 43.21875 16.703125 43.21875 25.484375 
L 43.21875 27.484375 
z
M 52.203125 31.203125 
L 52.203125 0 
L 43.21875 0 
L 43.21875 8.296875 
Q 40.140625 3.328125 35.546875 0.953125 
Q 30.953125 -1.421875 24.3125 -1.421875 
Q 15.921875 -1.421875 10.953125 3.296875 
Q 6 8.015625 6 15.921875 
Q 6 25.140625 12.171875 29.828125 
Q 18.359375 34.515625 30.609375 34.515625 
L 43.21875 34.515625 
L 43.21875 35.40625 
Q 43.21875 41.609375 39.140625 45 
Q 35.0625 48.390625 27.6875 48.390625 
Q 23 48.390625 18.546875 47.265625 
Q 14.109375 46.140625 10.015625 43.890625 
L 10.015625 52.203125 
Q 14.9375 54.109375 19.578125 55.046875 
Q 24.21875 56 28.609375 56 
Q 40.484375 56 46.34375 49.84375 
Q 52.203125 43.703125 52.203125 31.203125 
" id="BitstreamVeraSans-Roman-61"/>
     </defs>
     <g transform="translate(16.318125 240.208625)rotate(-90.0)scale(0.12 -0.12)">
      <use xlink:href="#BitstreamVeraSans-Roman-61"/>
      <use x="61.279296875" xlink:href="#BitstreamVeraSans-Roman-76"/>
      <use x="120.458984375" xlink:href="#BitstreamVeraSans-Roman-65"/>
      <use x="181.982421875" xlink:href="#BitstreamVeraSans-Roman-72"/>
      <use x="223.095703125" xlink:href="#BitstreamVeraSans-Roman-61"/>
      <use x="284.375" xlink:href="#BitstreamVeraSans-Roman-67"/>
      <use x="347.8515625" xlink:href="#BitstreamVeraSans-Roman-65"/>
      <use x="409.375" xlink:href="#BitstreamVeraSans-Roman-20"/>
      <use x="441.162109375" xlink:href="#BitstreamVeraSans-Roman-6d"/>
      <use x="538.57421875" xlink:href="#BitstreamVeraSans-Roman-61"/>
      <use x="599.853515625" xlink:href="#BitstreamVeraSans-Roman-78"/>
      <use x="659.033203125" xlink:href="#BitstreamVeraSans-Roman-51"/>
     </g>
    </g>
   </g>
   <g id="text_14">
    <!-- Average maxQ per episode, joint 3 -->
    <defs>
     <path d="M 34.1875 63.1875 
L 20.796875 26.90625 
L 47.609375 26.90625 
z
M 28.609375 72.90625 
L 39.796875 72.90625 
L 67.578125 0 
L 57.328125 0 
L 50.6875 18.703125 
L 17.828125 18.703125 
L 11.1875 0 
L 0.78125 0 
z
" id="BitstreamVeraSans-Roman-41"/>
     <path d="M 18.3125 70.21875 
L 18.3125 54.6875 
L 36.8125 54.6875 
L 36.8125 47.703125 
L 18.3125 47.703125 
L 18.3125 18.015625 
Q 18.3125 11.328125 20.140625 9.421875 
Q 21.96875 7.515625 27.59375 7.515625 
L 36.8125 7.515625 
L 36.8125 0 
L 27.59375 0 
Q 17.1875 0 13.234375 3.875 
Q 9.28125 7.765625 9.28125 18.015625 
L 9.28125 47.703125 
L 2.6875 47.703125 
L 2.6875 54.6875 
L 9.28125 54.6875 
L 9.28125 70.21875 
z
" id="BitstreamVeraSans-Roman-74"/>
     <path d="M 54.890625 33.015625 
L 54.890625 0 
L 45.90625 0 
L 45.90625 32.71875 
Q 45.90625 40.484375 42.875 44.328125 
Q 39.84375 48.1875 33.796875 48.1875 
Q 26.515625 48.1875 22.3125 43.546875 
Q 18.109375 38.921875 18.109375 30.90625 
L 18.109375 0 
L 9.078125 0 
L 9.078125 54.6875 
L 18.109375 54.6875 
L 18.109375 46.1875 
Q 21.34375 51.125 25.703125 53.5625 
Q 30.078125 56 35.796875 56 
Q 45.21875 56 50.046875 50.171875 
Q 54.890625 44.34375 54.890625 33.015625 
" id="BitstreamVeraSans-Roman-6e"/>
     <path d="M 40.578125 39.3125 
Q 47.65625 37.796875 51.625 33 
Q 55.609375 28.21875 55.609375 21.1875 
Q 55.609375 10.40625 48.1875 4.484375 
Q 40.765625 -1.421875 27.09375 -1.421875 
Q 22.515625 -1.421875 17.65625 -0.515625 
Q 12.796875 0.390625 7.625 2.203125 
L 7.625 11.71875 
Q 11.71875 9.328125 16.59375 8.109375 
Q 21.484375 6.890625 26.8125 6.890625 
Q 36.078125 6.890625 40.9375 10.546875 
Q 45.796875 14.203125 45.796875 21.1875 
Q 45.796875 27.640625 41.28125 31.265625 
Q 36.765625 34.90625 28.71875 34.90625 
L 20.21875 34.90625 
L 20.21875 43.015625 
L 29.109375 43.015625 
Q 36.375 43.015625 40.234375 45.921875 
Q 44.09375 48.828125 44.09375 54.296875 
Q 44.09375 59.90625 40.109375 62.90625 
Q 36.140625 65.921875 28.71875 65.921875 
Q 24.65625 65.921875 20.015625 65.03125 
Q 15.375 64.15625 9.8125 62.3125 
L 9.8125 71.09375 
Q 15.4375 72.65625 20.34375 73.4375 
Q 25.25 74.21875 29.59375 74.21875 
Q 40.828125 74.21875 47.359375 69.109375 
Q 53.90625 64.015625 53.90625 55.328125 
Q 53.90625 49.265625 50.4375 45.09375 
Q 46.96875 40.921875 40.578125 39.3125 
" id="BitstreamVeraSans-Roman-33"/>
     <path d="M 9.421875 54.6875 
L 18.40625 54.6875 
L 18.40625 -0.984375 
Q 18.40625 -11.421875 14.421875 -16.109375 
Q 10.453125 -20.796875 1.609375 -20.796875 
L -1.8125 -20.796875 
L -1.8125 -13.1875 
L 0.59375 -13.1875 
Q 5.71875 -13.1875 7.5625 -10.8125 
Q 9.421875 -8.453125 9.421875 -0.984375 
z
M 9.421875 75.984375 
L 18.40625 75.984375 
L 18.40625 64.59375 
L 9.421875 64.59375 
z
" id="BitstreamVeraSans-Roman-6a"/>
     <path d="M 11.71875 12.40625 
L 22.015625 12.40625 
L 22.015625 4 
L 14.015625 -11.625 
L 7.71875 -11.625 
L 11.71875 4 
z
" id="BitstreamVeraSans-Roman-2c"/>
    </defs>
    <g transform="translate(154.591875 18.14175)scale(0.144 -0.144)">
     <use xlink:href="#BitstreamVeraSans-Roman-41"/>
     <use x="68.330078125" xlink:href="#BitstreamVeraSans-Roman-76"/>
     <use x="127.509765625" xlink:href="#BitstreamVeraSans-Roman-65"/>
     <use x="189.033203125" xlink:href="#BitstreamVeraSans-Roman-72"/>
     <use x="230.146484375" xlink:href="#BitstreamVeraSans-Roman-61"/>
     <use x="291.42578125" xlink:href="#BitstreamVeraSans-Roman-67"/>
     <use x="354.90234375" xlink:href="#BitstreamVeraSans-Roman-65"/>
     <use x="416.42578125" xlink:href="#BitstreamVeraSans-Roman-20"/>
     <use x="448.212890625" xlink:href="#BitstreamVeraSans-Roman-6d"/>
     <use x="545.625" xlink:href="#BitstreamVeraSans-Roman-61"/>
     <use x="606.904296875" xlink:href="#BitstreamVeraSans-Roman-78"/>
     <use x="666.083984375" xlink:href="#BitstreamVeraSans-Roman-51"/>
     <use x="744.794921875" xlink:href="#BitstreamVeraSans-Roman-20"/>
     <use x="776.58203125" xlink:href="#BitstreamVeraSans-Roman-70"/>
     <use x="840.05859375" xlink:href="#BitstreamVeraSans-Roman-65"/>
     <use x="901.58203125" xlink:href="#BitstreamVeraSans-Roman-72"/>
     <use x="942.6953125" xlink:href="#BitstreamVeraSans-Roman-20"/>
     <use x="974.482421875" xlink:href="#BitstreamVeraSans-Roman-65"/>
     <use x="1036.005859375" xlink:href="#BitstreamVeraSans-Roman-70"/>
     <use x="1099.482421875" xlink:href="#BitstreamVeraSans-Roman-69"/>
     <use x="1127.265625" xlink:href="#BitstreamVeraSans-Roman-73"/>
     <use x="1179.365234375" xlink:href="#BitstreamVeraSans-Roman-6f"/>
     <use x="1240.546875" xlink:href="#BitstreamVeraSans-Roman-64"/>
     <use x="1304.0234375" xlink:href="#BitstreamVeraSans-Roman-65"/>
     <use x="1365.546875" xlink:href="#BitstreamVeraSans-Roman-2c"/>
     <use x="1397.333984375" xlink:href="#BitstreamVeraSans-Roman-20"/>
     <use x="1429.12109375" xlink:href="#BitstreamVeraSans-Roman-6a"/>
     <use x="1456.904296875" xlink:href="#BitstreamVeraSans-Roman-6f"/>
     <use x="1518.0859375" xlink:href="#BitstreamVeraSans-Roman-69"/>
     <use x="1545.869140625" xlink:href="#BitstreamVeraSans-Roman-6e"/>
     <use x="1609.248046875" xlink:href="#BitstreamVeraSans-Roman-74"/>
     <use x="1648.45703125" xlink:href="#BitstreamVeraSans-Roman-20"/>
     <use x="1680.244140625" xlink:href="#BitstreamVeraSans-Roman-33"/>
    </g>
   </g>
  </g>
 </g>
 <defs>
  <clipPath id="p4e2f6c04f9">
   <rect height="345.6" width="446.4" x="56.953125" y="23.14175"/>
  </clipPath>
 </defs>
</svg>
