<?xml version="1.0" encoding="utf-8" standalone="no"?>
<!DOCTYPE svg PUBLIC "-//W3C//DTD SVG 1.1//EN"
  "http://www.w3.org/Graphics/SVG/1.1/DTD/svg11.dtd">
<!-- Created with matplotlib (http://matplotlib.org/) -->
<svg height="408pt" version="1.1" viewBox="0 0 529 408" width="529pt" xmlns="http://www.w3.org/2000/svg" xmlns:xlink="http://www.w3.org/1999/xlink">
 <defs>
  <style type="text/css">
*{stroke-linecap:butt;stroke-linejoin:round;stroke-miterlimit:100000;}
  </style>
 </defs>
 <g id="figure_1">
  <g id="patch_1">
   <path d="M 0 408.16925 
L 529.640625 408.16925 
L 529.640625 0 
L 0 0 
z
" style="fill:#ffffff;"/>
  </g>
  <g id="axes_1">
   <g id="patch_2">
    <path d="M 64.588125 368.74175 
L 510.988125 368.74175 
L 510.988125 23.14175 
L 64.588125 23.14175 
z
" style="fill:#ffffff;"/>
   </g>
   <g id="line2d_1">
    <path clip-path="url(#p86c50d4b2a)" d="M 65.580125 318.231085 
L 66.572125 318.945266 
L 67.564125 299.820764 
L 68.556125 331.012316 
L 69.548125 331.169536 
L 70.540125 280.905523 
L 71.532125 287.552135 
L 72.524125 319.302686 
L 73.516125 297.582919 
L 74.508125 306.803865 
L 75.500125 285.578597 
L 76.492125 303.760213 
L 77.484125 313.322191 
L 78.476125 316.49598 
L 79.468125 331.945358 
L 80.460125 334.445057 
L 81.452125 283.73214 
L 82.444125 292.287759 
L 83.436125 318.786807 
L 84.428125 316.734137 
L 85.420125 307.643213 
L 86.412125 310.725205 
L 87.404125 298.151409 
L 88.396125 289.076412 
L 89.388125 306.290141 
L 90.380125 282.124043 
L 91.372125 275.502525 
L 92.364125 303.919474 
L 93.356125 262.42873 
L 94.348125 280.804921 
L 95.340125 289.356256 
L 96.332125 270.396887 
L 97.324125 293.725384 
L 98.316125 310.062308 
L 99.308125 274.569281 
L 100.300125 226.094138 
L 101.292125 281.116659 
L 102.284125 268.288452 
L 103.276125 267.61101 
L 104.268125 262.904668 
L 105.260125 235.304185 
L 106.252125 290.644878 
L 107.244125 287.725404 
L 108.236125 284.37426 
L 109.228125 286.64957 
L 110.220125 290.452146 
L 111.212125 295.396727 
L 112.204125 282.707775 
L 113.196125 297.40197 
L 114.188125 286.09901 
L 115.180125 325.037404 
L 116.172125 303.150386 
L 117.164125 288.59273 
L 118.156125 283.806777 
L 119.148125 317.914183 
L 120.140125 303.066735 
L 121.132125 295.586674 
L 122.124125 281.467503 
L 123.116125 282.565081 
L 124.108125 278.849355 
L 125.100125 290.754181 
L 126.092125 293.239655 
L 127.084125 287.16305 
L 128.076125 291.969353 
L 129.068125 274.058608 
L 130.060125 275.683745 
L 131.052125 274.807156 
L 132.044125 298.791945 
L 133.036125 291.684383 
L 134.028125 281.930031 
L 135.020125 274.368136 
L 136.012125 271.795895 
L 137.004125 273.961768 
L 137.996125 270.378967 
L 138.988125 263.116026 
L 139.980125 269.144249 
L 140.972125 271.824001 
L 141.964125 262.746351 
L 142.956125 274.009137 
L 143.948125 278.336049 
L 144.940125 269.808423 
L 145.932125 279.766705 
L 146.924125 268.158535 
L 147.916125 266.160644 
L 148.908125 282.542249 
L 149.900125 291.339459 
L 150.892125 282.491166 
L 151.884125 259.00064 
L 152.876125 284.265606 
L 153.868125 256.290272 
L 154.860125 270.382219 
L 155.852125 264.239214 
L 156.844125 258.999767 
L 157.836125 245.812781 
L 158.828125 254.678133 
L 159.820125 268.683822 
L 160.812125 269.480189 
L 161.804125 264.42107 
L 162.796125 268.066018 
L 163.788125 269.332294 
L 164.780125 265.209413 
L 165.772125 231.967402 
L 166.764125 273.30999 
L 168.748125 265.39983 
L 169.740125 251.453254 
L 170.732125 270.289325 
L 171.724125 257.30025 
L 172.716125 259.422855 
L 173.708125 259.81523 
L 174.700125 273.016566 
L 175.692125 244.002705 
L 176.684125 255.801777 
L 177.676125 264.516486 
L 178.668125 263.219448 
L 179.660125 261.378152 
L 180.652125 257.017195 
L 181.644125 264.446091 
L 182.636125 256.802139 
L 183.628125 233.98847 
L 184.620125 246.400535 
L 185.612125 255.275229 
L 186.604125 247.795895 
L 187.596125 264.315632 
L 188.588125 263.221869 
L 189.580125 252.851949 
L 190.572125 255.169227 
L 191.564125 256.339348 
L 192.556125 219.203318 
L 193.548125 228.516433 
L 194.540125 254.550862 
L 195.532125 226.292529 
L 196.524125 222.245451 
L 197.516125 245.956499 
L 198.508125 255.319032 
L 199.500125 241.683178 
L 200.492125 204.824376 
L 201.484125 252.253663 
L 202.476125 227.872169 
L 203.468125 213.860323 
L 204.460125 242.92665 
L 205.452125 251.449662 
L 206.444125 228.264732 
L 207.436125 217.60563 
L 208.428125 265.590184 
L 210.412125 225.13152 
L 211.404125 230.522572 
L 212.396125 209.983014 
L 213.388125 250.760408 
L 214.380125 248.205139 
L 215.372125 234.484994 
L 216.364125 238.899136 
L 217.356125 233.741628 
L 218.348125 261.32027 
L 219.340125 249.35507 
L 220.332125 217.432754 
L 221.324125 245.017494 
L 222.316125 222.844034 
L 223.308125 218.804212 
L 224.300125 217.493781 
L 225.292125 208.555949 
L 226.284125 205.229968 
L 227.276125 235.807922 
L 228.268125 236.743933 
L 229.260125 239.421145 
L 230.252125 202.77941 
L 231.244125 213.820768 
L 232.236125 206.734952 
L 233.228125 250.267088 
L 234.220125 233.228161 
L 235.212125 226.527918 
L 236.204125 233.387347 
L 237.196125 235.324233 
L 238.188125 189.714091 
L 239.180125 216.286046 
L 240.172125 204.485175 
L 241.164125 215.087815 
L 242.156125 238.7988 
L 243.148125 234.638106 
L 244.140125 202.199936 
L 245.132125 242.862187 
L 247.116125 207.680665 
L 248.108125 194.414177 
L 249.100125 241.32361 
L 250.092125 210.429397 
L 251.084125 227.812482 
L 252.076125 217.190755 
L 253.068125 210.78733 
L 254.060125 193.741623 
L 255.052125 238.256136 
L 256.044125 207.035102 
L 257.036125 225.644003 
L 258.028125 225.216443 
L 259.020125 228.836697 
L 260.012125 175.412884 
L 261.004125 188.265183 
L 261.996125 184.10126 
L 262.988125 184.66292 
L 263.980125 202.068653 
L 264.972125 201.15588 
L 265.964125 228.686946 
L 266.956125 186.062861 
L 267.948125 191.4792 
L 268.940125 186.524276 
L 269.932125 202.233039 
L 270.924125 176.611928 
L 271.916125 171.077469 
L 272.908125 171.227163 
L 273.900125 193.290943 
L 274.892125 199.354503 
L 275.884125 181.366052 
L 276.876125 179.258374 
L 277.868125 168.602644 
L 278.860125 225.558516 
L 279.852125 217.389197 
L 280.844125 179.365387 
L 281.836125 227.44999 
L 282.828125 174.97672 
L 283.820125 189.508827 
L 284.812125 209.755071 
L 285.804125 184.362113 
L 286.796125 203.167788 
L 287.788125 203.730109 
L 289.772125 170.206609 
L 290.764125 210.083755 
L 291.756125 161.496193 
L 292.748125 184.799827 
L 293.740125 178.224929 
L 294.732125 168.636598 
L 295.724125 190.942754 
L 296.716125 186.355862 
L 297.708125 179.893322 
L 298.700125 190.397393 
L 299.692125 198.467451 
L 300.684125 185.128464 
L 301.676125 197.889574 
L 302.668125 175.432404 
L 303.660125 185.977502 
L 304.652125 186.30523 
L 305.644125 179.570375 
L 306.636125 182.490467 
L 307.628125 190.334336 
L 308.620125 197.113144 
L 309.612125 181.715906 
L 310.604125 181.931133 
L 311.596125 171.73763 
L 312.588125 186.392173 
L 313.580125 177.764411 
L 314.572125 181.600646 
L 315.564125 178.87874 
L 316.556125 174.405439 
L 317.548125 173.163176 
L 318.540125 201.652506 
L 319.532125 179.160793 
L 320.524125 160.110586 
L 321.516125 183.610328 
L 322.508125 177.013317 
L 323.500125 176.457824 
L 324.492125 172.093163 
L 325.484125 185.526019 
L 326.476125 183.758385 
L 327.468125 158.420598 
L 328.460125 163.389564 
L 329.452125 151.582001 
L 330.444125 180.210811 
L 331.436125 184.613057 
L 333.420125 151.208593 
L 334.412125 165.559851 
L 335.404125 174.159015 
L 336.396125 188.93319 
L 337.388125 169.091836 
L 339.372125 159.973387 
L 340.364125 155.558241 
L 341.356125 165.609047 
L 342.348125 164.123787 
L 343.340125 177.218908 
L 344.332125 183.579964 
L 345.324125 158.809206 
L 346.316125 182.794598 
L 347.308125 158.086867 
L 348.300125 157.189119 
L 349.292125 152.428382 
L 350.284125 149.403578 
L 351.276125 152.508389 
L 352.268125 159.29539 
L 353.260125 171.075073 
L 354.252125 147.759235 
L 355.244125 166.289554 
L 356.236125 149.457828 
L 357.228125 184.821892 
L 358.220125 158.278557 
L 359.212125 138.852562 
L 360.204125 136.031775 
L 361.196125 142.032161 
L 362.188125 136.433336 
L 363.180125 146.430502 
L 364.172125 151.448526 
L 365.164125 151.993522 
L 366.156125 121.956638 
L 367.148125 146.73213 
L 368.140125 128.577132 
L 369.132125 158.126213 
L 370.124125 167.988886 
L 371.116125 164.751726 
L 372.108125 165.790748 
L 373.100125 147.822871 
L 374.092125 141.021178 
L 375.084125 135.625264 
L 376.076125 122.484606 
L 377.068125 163.192262 
L 378.060125 134.12953 
L 379.052125 150.174128 
L 380.044125 114.174016 
L 381.036125 125.538307 
L 382.028125 121.20344 
L 383.020125 144.037049 
L 384.012125 114.975279 
L 385.004125 134.303488 
L 385.996125 145.470162 
L 386.988125 121.184299 
L 387.980125 129.708559 
L 388.972125 108.758689 
L 389.964125 115.370469 
L 390.956125 110.672558 
L 391.948125 142.536682 
L 392.940125 111.753135 
L 393.932125 121.427721 
L 394.924125 121.399803 
L 395.916125 119.092044 
L 396.908125 105.966329 
L 397.900125 111.908266 
L 398.892125 151.743273 
L 399.884125 109.757127 
L 400.876125 111.665142 
L 401.868125 123.924594 
L 402.860125 130.732879 
L 403.852125 106.771528 
L 404.844125 138.592467 
L 405.836125 118.288332 
L 406.828125 123.556269 
L 407.820125 122.843488 
L 408.812125 122.949562 
L 409.804125 117.394253 
L 410.796125 134.657383 
L 411.788125 114.458787 
L 412.780125 153.561333 
L 413.772125 117.284648 
L 414.764125 123.493745 
L 415.756125 112.178801 
L 416.748125 110.249005 
L 417.740125 116.352907 
L 418.732125 107.616363 
L 419.724125 113.6599 
L 420.716125 112.752252 
L 421.708125 99.027584 
L 422.700125 109.979226 
L 423.692125 97.601311 
L 424.684125 101.626998 
L 425.676125 115.493042 
L 426.668125 109.877923 
L 427.660125 93.866402 
L 428.652125 98.323106 
L 430.636125 116.194154 
L 431.628125 105.679847 
L 432.620125 105.44829 
L 433.612125 123.660333 
L 434.604125 108.248588 
L 435.596125 110.163013 
L 436.588125 112.643878 
L 437.580125 89.853065 
L 438.572125 122.070719 
L 439.564125 116.704865 
L 440.556125 106.285371 
L 441.548125 113.247119 
L 442.540125 69.19769 
L 443.532125 103.045082 
L 444.524125 92.090121 
L 445.516125 119.708135 
L 446.508125 85.61105 
L 447.500125 96.357457 
L 448.492125 90.549933 
L 449.484125 82.521543 
L 450.476125 88.74467 
L 451.468125 87.741621 
L 452.460125 65.725019 
L 453.452125 118.850826 
L 454.444125 85.488847 
L 455.436125 111.152668 
L 456.428125 85.047884 
L 457.420125 82.665992 
L 458.412125 92.806683 
L 459.404125 61.170466 
L 460.396125 87.4454 
L 461.388125 89.230801 
L 462.380125 52.381625 
L 463.372125 83.703063 
L 464.364125 92.382735 
L 465.356125 111.272584 
L 466.348125 109.136603 
L 467.340125 67.584188 
L 468.332125 56.348578 
L 469.324125 98.120218 
L 470.316125 96.027596 
L 471.308125 118.518984 
L 472.300125 77.794833 
L 473.292125 113.417508 
L 474.284125 82.370195 
L 475.276125 106.313197 
L 475.276125 106.313197 
" style="fill:none;stroke:#0000ff;stroke-linecap:square;stroke-width:0.5;"/>
   </g>
   <g id="patch_3">
    <path d="M 64.588125 368.74175 
L 64.588125 23.14175 
" style="fill:none;stroke:#000000;stroke-linecap:square;stroke-linejoin:miter;"/>
   </g>
   <g id="patch_4">
    <path d="M 64.588125 368.74175 
L 510.988125 368.74175 
" style="fill:none;stroke:#000000;stroke-linecap:square;stroke-linejoin:miter;"/>
   </g>
   <g id="patch_5">
    <path d="M 510.988125 368.74175 
L 510.988125 23.14175 
" style="fill:none;stroke:#000000;stroke-linecap:square;stroke-linejoin:miter;"/>
   </g>
   <g id="patch_6">
    <path d="M 64.588125 23.14175 
L 510.988125 23.14175 
" style="fill:none;stroke:#000000;stroke-linecap:square;stroke-linejoin:miter;"/>
   </g>
   <g id="matplotlib.axis_1">
    <g id="xtick_1">
     <g id="line2d_2">
      <defs>
       <path d="M 0 0 
L 0 -4 
" id="m017654556d" style="stroke:#000000;stroke-width:0.5;"/>
      </defs>
      <g>
       <use style="stroke:#000000;stroke-width:0.5;" x="64.588125" xlink:href="#m017654556d" y="368.74175"/>
      </g>
     </g>
     <g id="line2d_3">
      <defs>
       <path d="M 0 0 
L 0 4 
" id="m3b1d926158" style="stroke:#000000;stroke-width:0.5;"/>
      </defs>
      <g>
       <use style="stroke:#000000;stroke-width:0.5;" x="64.588125" xlink:href="#m3b1d926158" y="23.14175"/>
      </g>
     </g>
     <g id="text_1">
      <!-- 0 -->
      <defs>
       <path d="M 31.78125 66.40625 
Q 24.171875 66.40625 20.328125 58.90625 
Q 16.5 51.421875 16.5 36.375 
Q 16.5 21.390625 20.328125 13.890625 
Q 24.171875 6.390625 31.78125 6.390625 
Q 39.453125 6.390625 43.28125 13.890625 
Q 47.125 21.390625 47.125 36.375 
Q 47.125 51.421875 43.28125 58.90625 
Q 39.453125 66.40625 31.78125 66.40625 
M 31.78125 74.21875 
Q 44.046875 74.21875 50.515625 64.515625 
Q 56.984375 54.828125 56.984375 36.375 
Q 56.984375 17.96875 50.515625 8.265625 
Q 44.046875 -1.421875 31.78125 -1.421875 
Q 19.53125 -1.421875 13.0625 8.265625 
Q 6.59375 17.96875 6.59375 36.375 
Q 6.59375 54.828125 13.0625 64.515625 
Q 19.53125 74.21875 31.78125 74.21875 
" id="BitstreamVeraSans-Roman-30"/>
      </defs>
      <g transform="translate(60.770625 381.859875)scale(0.12 -0.12)">
       <use xlink:href="#BitstreamVeraSans-Roman-30"/>
      </g>
     </g>
    </g>
    <g id="xtick_2">
     <g id="line2d_4">
      <g>
       <use style="stroke:#000000;stroke-width:0.5;" x="114.188125" xlink:href="#m017654556d" y="368.74175"/>
      </g>
     </g>
     <g id="line2d_5">
      <g>
       <use style="stroke:#000000;stroke-width:0.5;" x="114.188125" xlink:href="#m3b1d926158" y="23.14175"/>
      </g>
     </g>
     <g id="text_2">
      <!-- 50 -->
      <defs>
       <path d="M 10.796875 72.90625 
L 49.515625 72.90625 
L 49.515625 64.59375 
L 19.828125 64.59375 
L 19.828125 46.734375 
Q 21.96875 47.46875 24.109375 47.828125 
Q 26.265625 48.1875 28.421875 48.1875 
Q 40.625 48.1875 47.75 41.5 
Q 54.890625 34.8125 54.890625 23.390625 
Q 54.890625 11.625 47.5625 5.09375 
Q 40.234375 -1.421875 26.90625 -1.421875 
Q 22.3125 -1.421875 17.546875 -0.640625 
Q 12.796875 0.140625 7.71875 1.703125 
L 7.71875 11.625 
Q 12.109375 9.234375 16.796875 8.0625 
Q 21.484375 6.890625 26.703125 6.890625 
Q 35.15625 6.890625 40.078125 11.328125 
Q 45.015625 15.765625 45.015625 23.390625 
Q 45.015625 31 40.078125 35.4375 
Q 35.15625 39.890625 26.703125 39.890625 
Q 22.75 39.890625 18.8125 39.015625 
Q 14.890625 38.140625 10.796875 36.28125 
z
" id="BitstreamVeraSans-Roman-35"/>
      </defs>
      <g transform="translate(106.553125 381.859875)scale(0.12 -0.12)">
       <use xlink:href="#BitstreamVeraSans-Roman-35"/>
       <use x="63.623046875" xlink:href="#BitstreamVeraSans-Roman-30"/>
      </g>
     </g>
    </g>
    <g id="xtick_3">
     <g id="line2d_6">
      <g>
       <use style="stroke:#000000;stroke-width:0.5;" x="163.788125" xlink:href="#m017654556d" y="368.74175"/>
      </g>
     </g>
     <g id="line2d_7">
      <g>
       <use style="stroke:#000000;stroke-width:0.5;" x="163.788125" xlink:href="#m3b1d926158" y="23.14175"/>
      </g>
     </g>
     <g id="text_3">
      <!-- 100 -->
      <defs>
       <path d="M 12.40625 8.296875 
L 28.515625 8.296875 
L 28.515625 63.921875 
L 10.984375 60.40625 
L 10.984375 69.390625 
L 28.421875 72.90625 
L 38.28125 72.90625 
L 38.28125 8.296875 
L 54.390625 8.296875 
L 54.390625 0 
L 12.40625 0 
z
" id="BitstreamVeraSans-Roman-31"/>
      </defs>
      <g transform="translate(152.335625 381.859875)scale(0.12 -0.12)">
       <use xlink:href="#BitstreamVeraSans-Roman-31"/>
       <use x="63.623046875" xlink:href="#BitstreamVeraSans-Roman-30"/>
       <use x="127.24609375" xlink:href="#BitstreamVeraSans-Roman-30"/>
      </g>
     </g>
    </g>
    <g id="xtick_4">
     <g id="line2d_8">
      <g>
       <use style="stroke:#000000;stroke-width:0.5;" x="213.388125" xlink:href="#m017654556d" y="368.74175"/>
      </g>
     </g>
     <g id="line2d_9">
      <g>
       <use style="stroke:#000000;stroke-width:0.5;" x="213.388125" xlink:href="#m3b1d926158" y="23.14175"/>
      </g>
     </g>
     <g id="text_4">
      <!-- 150 -->
      <g transform="translate(201.935625 381.859875)scale(0.12 -0.12)">
       <use xlink:href="#BitstreamVeraSans-Roman-31"/>
       <use x="63.623046875" xlink:href="#BitstreamVeraSans-Roman-35"/>
       <use x="127.24609375" xlink:href="#BitstreamVeraSans-Roman-30"/>
      </g>
     </g>
    </g>
    <g id="xtick_5">
     <g id="line2d_10">
      <g>
       <use style="stroke:#000000;stroke-width:0.5;" x="262.988125" xlink:href="#m017654556d" y="368.74175"/>
      </g>
     </g>
     <g id="line2d_11">
      <g>
       <use style="stroke:#000000;stroke-width:0.5;" x="262.988125" xlink:href="#m3b1d926158" y="23.14175"/>
      </g>
     </g>
     <g id="text_5">
      <!-- 200 -->
      <defs>
       <path d="M 19.1875 8.296875 
L 53.609375 8.296875 
L 53.609375 0 
L 7.328125 0 
L 7.328125 8.296875 
Q 12.9375 14.109375 22.625 23.890625 
Q 32.328125 33.6875 34.8125 36.53125 
Q 39.546875 41.84375 41.421875 45.53125 
Q 43.3125 49.21875 43.3125 52.78125 
Q 43.3125 58.59375 39.234375 62.25 
Q 35.15625 65.921875 28.609375 65.921875 
Q 23.96875 65.921875 18.8125 64.3125 
Q 13.671875 62.703125 7.8125 59.421875 
L 7.8125 69.390625 
Q 13.765625 71.78125 18.9375 73 
Q 24.125 74.21875 28.421875 74.21875 
Q 39.75 74.21875 46.484375 68.546875 
Q 53.21875 62.890625 53.21875 53.421875 
Q 53.21875 48.921875 51.53125 44.890625 
Q 49.859375 40.875 45.40625 35.40625 
Q 44.1875 33.984375 37.640625 27.21875 
Q 31.109375 20.453125 19.1875 8.296875 
" id="BitstreamVeraSans-Roman-32"/>
      </defs>
      <g transform="translate(251.535625 381.859875)scale(0.12 -0.12)">
       <use xlink:href="#BitstreamVeraSans-Roman-32"/>
       <use x="63.623046875" xlink:href="#BitstreamVeraSans-Roman-30"/>
       <use x="127.24609375" xlink:href="#BitstreamVeraSans-Roman-30"/>
      </g>
     </g>
    </g>
    <g id="xtick_6">
     <g id="line2d_12">
      <g>
       <use style="stroke:#000000;stroke-width:0.5;" x="312.588125" xlink:href="#m017654556d" y="368.74175"/>
      </g>
     </g>
     <g id="line2d_13">
      <g>
       <use style="stroke:#000000;stroke-width:0.5;" x="312.588125" xlink:href="#m3b1d926158" y="23.14175"/>
      </g>
     </g>
     <g id="text_6">
      <!-- 250 -->
      <g transform="translate(301.135625 381.859875)scale(0.12 -0.12)">
       <use xlink:href="#BitstreamVeraSans-Roman-32"/>
       <use x="63.623046875" xlink:href="#BitstreamVeraSans-Roman-35"/>
       <use x="127.24609375" xlink:href="#BitstreamVeraSans-Roman-30"/>
      </g>
     </g>
    </g>
    <g id="xtick_7">
     <g id="line2d_14">
      <g>
       <use style="stroke:#000000;stroke-width:0.5;" x="362.188125" xlink:href="#m017654556d" y="368.74175"/>
      </g>
     </g>
     <g id="line2d_15">
      <g>
       <use style="stroke:#000000;stroke-width:0.5;" x="362.188125" xlink:href="#m3b1d926158" y="23.14175"/>
      </g>
     </g>
     <g id="text_7">
      <!-- 300 -->
      <defs>
       <path d="M 40.578125 39.3125 
Q 47.65625 37.796875 51.625 33 
Q 55.609375 28.21875 55.609375 21.1875 
Q 55.609375 10.40625 48.1875 4.484375 
Q 40.765625 -1.421875 27.09375 -1.421875 
Q 22.515625 -1.421875 17.65625 -0.515625 
Q 12.796875 0.390625 7.625 2.203125 
L 7.625 11.71875 
Q 11.71875 9.328125 16.59375 8.109375 
Q 21.484375 6.890625 26.8125 6.890625 
Q 36.078125 6.890625 40.9375 10.546875 
Q 45.796875 14.203125 45.796875 21.1875 
Q 45.796875 27.640625 41.28125 31.265625 
Q 36.765625 34.90625 28.71875 34.90625 
L 20.21875 34.90625 
L 20.21875 43.015625 
L 29.109375 43.015625 
Q 36.375 43.015625 40.234375 45.921875 
Q 44.09375 48.828125 44.09375 54.296875 
Q 44.09375 59.90625 40.109375 62.90625 
Q 36.140625 65.921875 28.71875 65.921875 
Q 24.65625 65.921875 20.015625 65.03125 
Q 15.375 64.15625 9.8125 62.3125 
L 9.8125 71.09375 
Q 15.4375 72.65625 20.34375 73.4375 
Q 25.25 74.21875 29.59375 74.21875 
Q 40.828125 74.21875 47.359375 69.109375 
Q 53.90625 64.015625 53.90625 55.328125 
Q 53.90625 49.265625 50.4375 45.09375 
Q 46.96875 40.921875 40.578125 39.3125 
" id="BitstreamVeraSans-Roman-33"/>
      </defs>
      <g transform="translate(350.735625 381.859875)scale(0.12 -0.12)">
       <use xlink:href="#BitstreamVeraSans-Roman-33"/>
       <use x="63.623046875" xlink:href="#BitstreamVeraSans-Roman-30"/>
       <use x="127.24609375" xlink:href="#BitstreamVeraSans-Roman-30"/>
      </g>
     </g>
    </g>
    <g id="xtick_8">
     <g id="line2d_16">
      <g>
       <use style="stroke:#000000;stroke-width:0.5;" x="411.788125" xlink:href="#m017654556d" y="368.74175"/>
      </g>
     </g>
     <g id="line2d_17">
      <g>
       <use style="stroke:#000000;stroke-width:0.5;" x="411.788125" xlink:href="#m3b1d926158" y="23.14175"/>
      </g>
     </g>
     <g id="text_8">
      <!-- 350 -->
      <g transform="translate(400.335625 381.859875)scale(0.12 -0.12)">
       <use xlink:href="#BitstreamVeraSans-Roman-33"/>
       <use x="63.623046875" xlink:href="#BitstreamVeraSans-Roman-35"/>
       <use x="127.24609375" xlink:href="#BitstreamVeraSans-Roman-30"/>
      </g>
     </g>
    </g>
    <g id="xtick_9">
     <g id="line2d_18">
      <g>
       <use style="stroke:#000000;stroke-width:0.5;" x="461.388125" xlink:href="#m017654556d" y="368.74175"/>
      </g>
     </g>
     <g id="line2d_19">
      <g>
       <use style="stroke:#000000;stroke-width:0.5;" x="461.388125" xlink:href="#m3b1d926158" y="23.14175"/>
      </g>
     </g>
     <g id="text_9">
      <!-- 400 -->
      <defs>
       <path d="M 37.796875 64.3125 
L 12.890625 25.390625 
L 37.796875 25.390625 
z
M 35.203125 72.90625 
L 47.609375 72.90625 
L 47.609375 25.390625 
L 58.015625 25.390625 
L 58.015625 17.1875 
L 47.609375 17.1875 
L 47.609375 0 
L 37.796875 0 
L 37.796875 17.1875 
L 4.890625 17.1875 
L 4.890625 26.703125 
z
" id="BitstreamVeraSans-Roman-34"/>
      </defs>
      <g transform="translate(449.935625 381.859875)scale(0.12 -0.12)">
       <use xlink:href="#BitstreamVeraSans-Roman-34"/>
       <use x="63.623046875" xlink:href="#BitstreamVeraSans-Roman-30"/>
       <use x="127.24609375" xlink:href="#BitstreamVeraSans-Roman-30"/>
      </g>
     </g>
    </g>
    <g id="xtick_10">
     <g id="line2d_20">
      <g>
       <use style="stroke:#000000;stroke-width:0.5;" x="510.988125" xlink:href="#m017654556d" y="368.74175"/>
      </g>
     </g>
     <g id="line2d_21">
      <g>
       <use style="stroke:#000000;stroke-width:0.5;" x="510.988125" xlink:href="#m3b1d926158" y="23.14175"/>
      </g>
     </g>
     <g id="text_10">
      <!-- 450 -->
      <g transform="translate(499.535625 381.859875)scale(0.12 -0.12)">
       <use xlink:href="#BitstreamVeraSans-Roman-34"/>
       <use x="63.623046875" xlink:href="#BitstreamVeraSans-Roman-35"/>
       <use x="127.24609375" xlink:href="#BitstreamVeraSans-Roman-30"/>
      </g>
     </g>
    </g>
    <g id="text_11">
     <!-- episodes -->
     <defs>
      <path d="M 45.40625 46.390625 
L 45.40625 75.984375 
L 54.390625 75.984375 
L 54.390625 0 
L 45.40625 0 
L 45.40625 8.203125 
Q 42.578125 3.328125 38.25 0.953125 
Q 33.9375 -1.421875 27.875 -1.421875 
Q 17.96875 -1.421875 11.734375 6.484375 
Q 5.515625 14.40625 5.515625 27.296875 
Q 5.515625 40.1875 11.734375 48.09375 
Q 17.96875 56 27.875 56 
Q 33.9375 56 38.25 53.625 
Q 42.578125 51.265625 45.40625 46.390625 
M 14.796875 27.296875 
Q 14.796875 17.390625 18.875 11.75 
Q 22.953125 6.109375 30.078125 6.109375 
Q 37.203125 6.109375 41.296875 11.75 
Q 45.40625 17.390625 45.40625 27.296875 
Q 45.40625 37.203125 41.296875 42.84375 
Q 37.203125 48.484375 30.078125 48.484375 
Q 22.953125 48.484375 18.875 42.84375 
Q 14.796875 37.203125 14.796875 27.296875 
" id="BitstreamVeraSans-Roman-64"/>
      <path d="M 44.28125 53.078125 
L 44.28125 44.578125 
Q 40.484375 46.53125 36.375 47.5 
Q 32.28125 48.484375 27.875 48.484375 
Q 21.1875 48.484375 17.84375 46.4375 
Q 14.5 44.390625 14.5 40.28125 
Q 14.5 37.15625 16.890625 35.375 
Q 19.28125 33.59375 26.515625 31.984375 
L 29.59375 31.296875 
Q 39.15625 29.25 43.1875 25.515625 
Q 47.21875 21.78125 47.21875 15.09375 
Q 47.21875 7.46875 41.1875 3.015625 
Q 35.15625 -1.421875 24.609375 -1.421875 
Q 20.21875 -1.421875 15.453125 -0.5625 
Q 10.6875 0.296875 5.421875 2 
L 5.421875 11.28125 
Q 10.40625 8.6875 15.234375 7.390625 
Q 20.0625 6.109375 24.8125 6.109375 
Q 31.15625 6.109375 34.5625 8.28125 
Q 37.984375 10.453125 37.984375 14.40625 
Q 37.984375 18.0625 35.515625 20.015625 
Q 33.0625 21.96875 24.703125 23.78125 
L 21.578125 24.515625 
Q 13.234375 26.265625 9.515625 29.90625 
Q 5.8125 33.546875 5.8125 39.890625 
Q 5.8125 47.609375 11.28125 51.796875 
Q 16.75 56 26.8125 56 
Q 31.78125 56 36.171875 55.265625 
Q 40.578125 54.546875 44.28125 53.078125 
" id="BitstreamVeraSans-Roman-73"/>
      <path d="M 56.203125 29.59375 
L 56.203125 25.203125 
L 14.890625 25.203125 
Q 15.484375 15.921875 20.484375 11.0625 
Q 25.484375 6.203125 34.421875 6.203125 
Q 39.59375 6.203125 44.453125 7.46875 
Q 49.3125 8.734375 54.109375 11.28125 
L 54.109375 2.78125 
Q 49.265625 0.734375 44.1875 -0.34375 
Q 39.109375 -1.421875 33.890625 -1.421875 
Q 20.796875 -1.421875 13.15625 6.1875 
Q 5.515625 13.8125 5.515625 26.8125 
Q 5.515625 40.234375 12.765625 48.109375 
Q 20.015625 56 32.328125 56 
Q 43.359375 56 49.78125 48.890625 
Q 56.203125 41.796875 56.203125 29.59375 
M 47.21875 32.234375 
Q 47.125 39.59375 43.09375 43.984375 
Q 39.0625 48.390625 32.421875 48.390625 
Q 24.90625 48.390625 20.390625 44.140625 
Q 15.875 39.890625 15.1875 32.171875 
z
" id="BitstreamVeraSans-Roman-65"/>
      <path d="M 9.421875 54.6875 
L 18.40625 54.6875 
L 18.40625 0 
L 9.421875 0 
z
M 9.421875 75.984375 
L 18.40625 75.984375 
L 18.40625 64.59375 
L 9.421875 64.59375 
z
" id="BitstreamVeraSans-Roman-69"/>
      <path d="M 18.109375 8.203125 
L 18.109375 -20.796875 
L 9.078125 -20.796875 
L 9.078125 54.6875 
L 18.109375 54.6875 
L 18.109375 46.390625 
Q 20.953125 51.265625 25.265625 53.625 
Q 29.59375 56 35.59375 56 
Q 45.5625 56 51.78125 48.09375 
Q 58.015625 40.1875 58.015625 27.296875 
Q 58.015625 14.40625 51.78125 6.484375 
Q 45.5625 -1.421875 35.59375 -1.421875 
Q 29.59375 -1.421875 25.265625 0.953125 
Q 20.953125 3.328125 18.109375 8.203125 
M 48.6875 27.296875 
Q 48.6875 37.203125 44.609375 42.84375 
Q 40.53125 48.484375 33.40625 48.484375 
Q 26.265625 48.484375 22.1875 42.84375 
Q 18.109375 37.203125 18.109375 27.296875 
Q 18.109375 17.390625 22.1875 11.75 
Q 26.265625 6.109375 33.40625 6.109375 
Q 40.53125 6.109375 44.609375 11.75 
Q 48.6875 17.390625 48.6875 27.296875 
" id="BitstreamVeraSans-Roman-70"/>
      <path d="M 30.609375 48.390625 
Q 23.390625 48.390625 19.1875 42.75 
Q 14.984375 37.109375 14.984375 27.296875 
Q 14.984375 17.484375 19.15625 11.84375 
Q 23.34375 6.203125 30.609375 6.203125 
Q 37.796875 6.203125 41.984375 11.859375 
Q 46.1875 17.53125 46.1875 27.296875 
Q 46.1875 37.015625 41.984375 42.703125 
Q 37.796875 48.390625 30.609375 48.390625 
M 30.609375 56 
Q 42.328125 56 49.015625 48.375 
Q 55.71875 40.765625 55.71875 27.296875 
Q 55.71875 13.875 49.015625 6.21875 
Q 42.328125 -1.421875 30.609375 -1.421875 
Q 18.84375 -1.421875 12.171875 6.21875 
Q 5.515625 13.875 5.515625 27.296875 
Q 5.515625 40.765625 12.171875 48.375 
Q 18.84375 56 30.609375 56 
" id="BitstreamVeraSans-Roman-6f"/>
     </defs>
     <g transform="translate(261.196875 398.473625)scale(0.12 -0.12)">
      <use xlink:href="#BitstreamVeraSans-Roman-65"/>
      <use x="61.5234375" xlink:href="#BitstreamVeraSans-Roman-70"/>
      <use x="125.0" xlink:href="#BitstreamVeraSans-Roman-69"/>
      <use x="152.783203125" xlink:href="#BitstreamVeraSans-Roman-73"/>
      <use x="204.8828125" xlink:href="#BitstreamVeraSans-Roman-6f"/>
      <use x="266.064453125" xlink:href="#BitstreamVeraSans-Roman-64"/>
      <use x="329.541015625" xlink:href="#BitstreamVeraSans-Roman-65"/>
      <use x="391.064453125" xlink:href="#BitstreamVeraSans-Roman-73"/>
     </g>
    </g>
   </g>
   <g id="matplotlib.axis_2">
    <g id="ytick_1">
     <g id="line2d_22">
      <defs>
       <path d="M 0 0 
L 4 0 
" id="m49a108fd9e" style="stroke:#000000;stroke-width:0.5;"/>
      </defs>
      <g>
       <use style="stroke:#000000;stroke-width:0.5;" x="64.588125" xlink:href="#m49a108fd9e" y="368.74175"/>
      </g>
     </g>
     <g id="line2d_23">
      <defs>
       <path d="M 0 0 
L -4 0 
" id="m93b7aea064" style="stroke:#000000;stroke-width:0.5;"/>
      </defs>
      <g>
       <use style="stroke:#000000;stroke-width:0.5;" x="510.988125" xlink:href="#m93b7aea064" y="368.74175"/>
      </g>
     </g>
     <g id="text_12">
      <!-- −0.05 -->
      <defs>
       <path d="M 10.59375 35.5 
L 73.1875 35.5 
L 73.1875 27.203125 
L 10.59375 27.203125 
z
" id="BitstreamVeraSans-Roman-2212"/>
       <path d="M 10.6875 12.40625 
L 21 12.40625 
L 21 0 
L 10.6875 0 
z
" id="BitstreamVeraSans-Roman-2e"/>
      </defs>
      <g transform="translate(23.81375 372.053)scale(0.12 -0.12)">
       <use xlink:href="#BitstreamVeraSans-Roman-2212"/>
       <use x="83.7890625" xlink:href="#BitstreamVeraSans-Roman-30"/>
       <use x="147.412109375" xlink:href="#BitstreamVeraSans-Roman-2e"/>
       <use x="179.19921875" xlink:href="#BitstreamVeraSans-Roman-30"/>
       <use x="242.822265625" xlink:href="#BitstreamVeraSans-Roman-35"/>
      </g>
     </g>
    </g>
    <g id="ytick_2">
     <g id="line2d_24">
      <g>
       <use style="stroke:#000000;stroke-width:0.5;" x="64.588125" xlink:href="#m49a108fd9e" y="311.14175"/>
      </g>
     </g>
     <g id="line2d_25">
      <g>
       <use style="stroke:#000000;stroke-width:0.5;" x="510.988125" xlink:href="#m93b7aea064" y="311.14175"/>
      </g>
     </g>
     <g id="text_13">
      <!-- 0.00 -->
      <g transform="translate(33.869375 314.453)scale(0.12 -0.12)">
       <use xlink:href="#BitstreamVeraSans-Roman-30"/>
       <use x="63.623046875" xlink:href="#BitstreamVeraSans-Roman-2e"/>
       <use x="95.41015625" xlink:href="#BitstreamVeraSans-Roman-30"/>
       <use x="159.033203125" xlink:href="#BitstreamVeraSans-Roman-30"/>
      </g>
     </g>
    </g>
    <g id="ytick_3">
     <g id="line2d_26">
      <g>
       <use style="stroke:#000000;stroke-width:0.5;" x="64.588125" xlink:href="#m49a108fd9e" y="253.54175"/>
      </g>
     </g>
     <g id="line2d_27">
      <g>
       <use style="stroke:#000000;stroke-width:0.5;" x="510.988125" xlink:href="#m93b7aea064" y="253.54175"/>
      </g>
     </g>
     <g id="text_14">
      <!-- 0.05 -->
      <g transform="translate(33.869375 256.853)scale(0.12 -0.12)">
       <use xlink:href="#BitstreamVeraSans-Roman-30"/>
       <use x="63.623046875" xlink:href="#BitstreamVeraSans-Roman-2e"/>
       <use x="95.41015625" xlink:href="#BitstreamVeraSans-Roman-30"/>
       <use x="159.033203125" xlink:href="#BitstreamVeraSans-Roman-35"/>
      </g>
     </g>
    </g>
    <g id="ytick_4">
     <g id="line2d_28">
      <g>
       <use style="stroke:#000000;stroke-width:0.5;" x="64.588125" xlink:href="#m49a108fd9e" y="195.94175"/>
      </g>
     </g>
     <g id="line2d_29">
      <g>
       <use style="stroke:#000000;stroke-width:0.5;" x="510.988125" xlink:href="#m93b7aea064" y="195.94175"/>
      </g>
     </g>
     <g id="text_15">
      <!-- 0.10 -->
      <g transform="translate(33.869375 199.253)scale(0.12 -0.12)">
       <use xlink:href="#BitstreamVeraSans-Roman-30"/>
       <use x="63.623046875" xlink:href="#BitstreamVeraSans-Roman-2e"/>
       <use x="95.41015625" xlink:href="#BitstreamVeraSans-Roman-31"/>
       <use x="159.033203125" xlink:href="#BitstreamVeraSans-Roman-30"/>
      </g>
     </g>
    </g>
    <g id="ytick_5">
     <g id="line2d_30">
      <g>
       <use style="stroke:#000000;stroke-width:0.5;" x="64.588125" xlink:href="#m49a108fd9e" y="138.34175"/>
      </g>
     </g>
     <g id="line2d_31">
      <g>
       <use style="stroke:#000000;stroke-width:0.5;" x="510.988125" xlink:href="#m93b7aea064" y="138.34175"/>
      </g>
     </g>
     <g id="text_16">
      <!-- 0.15 -->
      <g transform="translate(33.869375 141.653)scale(0.12 -0.12)">
       <use xlink:href="#BitstreamVeraSans-Roman-30"/>
       <use x="63.623046875" xlink:href="#BitstreamVeraSans-Roman-2e"/>
       <use x="95.41015625" xlink:href="#BitstreamVeraSans-Roman-31"/>
       <use x="159.033203125" xlink:href="#BitstreamVeraSans-Roman-35"/>
      </g>
     </g>
    </g>
    <g id="ytick_6">
     <g id="line2d_32">
      <g>
       <use style="stroke:#000000;stroke-width:0.5;" x="64.588125" xlink:href="#m49a108fd9e" y="80.74175"/>
      </g>
     </g>
     <g id="line2d_33">
      <g>
       <use style="stroke:#000000;stroke-width:0.5;" x="510.988125" xlink:href="#m93b7aea064" y="80.74175"/>
      </g>
     </g>
     <g id="text_17">
      <!-- 0.20 -->
      <g transform="translate(33.869375 84.053)scale(0.12 -0.12)">
       <use xlink:href="#BitstreamVeraSans-Roman-30"/>
       <use x="63.623046875" xlink:href="#BitstreamVeraSans-Roman-2e"/>
       <use x="95.41015625" xlink:href="#BitstreamVeraSans-Roman-32"/>
       <use x="159.033203125" xlink:href="#BitstreamVeraSans-Roman-30"/>
      </g>
     </g>
    </g>
    <g id="ytick_7">
     <g id="line2d_34">
      <g>
       <use style="stroke:#000000;stroke-width:0.5;" x="64.588125" xlink:href="#m49a108fd9e" y="23.14175"/>
      </g>
     </g>
     <g id="line2d_35">
      <g>
       <use style="stroke:#000000;stroke-width:0.5;" x="510.988125" xlink:href="#m93b7aea064" y="23.14175"/>
      </g>
     </g>
     <g id="text_18">
      <!-- 0.25 -->
      <g transform="translate(33.869375 26.453)scale(0.12 -0.12)">
       <use xlink:href="#BitstreamVeraSans-Roman-30"/>
       <use x="63.623046875" xlink:href="#BitstreamVeraSans-Roman-2e"/>
       <use x="95.41015625" xlink:href="#BitstreamVeraSans-Roman-32"/>
       <use x="159.033203125" xlink:href="#BitstreamVeraSans-Roman-35"/>
      </g>
     </g>
    </g>
    <g id="text_19">
     <!-- average maxQ -->
     <defs>
      <path d="M 54.890625 54.6875 
L 35.109375 28.078125 
L 55.90625 0 
L 45.3125 0 
L 29.390625 21.484375 
L 13.484375 0 
L 2.875 0 
L 24.125 28.609375 
L 4.6875 54.6875 
L 15.28125 54.6875 
L 29.78125 35.203125 
L 44.28125 54.6875 
z
" id="BitstreamVeraSans-Roman-78"/>
      <path d="M 45.40625 27.984375 
Q 45.40625 37.75 41.375 43.109375 
Q 37.359375 48.484375 30.078125 48.484375 
Q 22.859375 48.484375 18.828125 43.109375 
Q 14.796875 37.75 14.796875 27.984375 
Q 14.796875 18.265625 18.828125 12.890625 
Q 22.859375 7.515625 30.078125 7.515625 
Q 37.359375 7.515625 41.375 12.890625 
Q 45.40625 18.265625 45.40625 27.984375 
M 54.390625 6.78125 
Q 54.390625 -7.171875 48.1875 -13.984375 
Q 42 -20.796875 29.203125 -20.796875 
Q 24.46875 -20.796875 20.265625 -20.09375 
Q 16.0625 -19.390625 12.109375 -17.921875 
L 12.109375 -9.1875 
Q 16.0625 -11.328125 19.921875 -12.34375 
Q 23.78125 -13.375 27.78125 -13.375 
Q 36.625 -13.375 41.015625 -8.765625 
Q 45.40625 -4.15625 45.40625 5.171875 
L 45.40625 9.625 
Q 42.625 4.78125 38.28125 2.390625 
Q 33.9375 0 27.875 0 
Q 17.828125 0 11.671875 7.65625 
Q 5.515625 15.328125 5.515625 27.984375 
Q 5.515625 40.671875 11.671875 48.328125 
Q 17.828125 56 27.875 56 
Q 33.9375 56 38.28125 53.609375 
Q 42.625 51.21875 45.40625 46.390625 
L 45.40625 54.6875 
L 54.390625 54.6875 
z
" id="BitstreamVeraSans-Roman-67"/>
      <path d="M 2.984375 54.6875 
L 12.5 54.6875 
L 29.59375 8.796875 
L 46.6875 54.6875 
L 56.203125 54.6875 
L 35.6875 0 
L 23.484375 0 
z
" id="BitstreamVeraSans-Roman-76"/>
      <path d="M 39.40625 66.21875 
Q 28.65625 66.21875 22.328125 58.203125 
Q 16.015625 50.203125 16.015625 36.375 
Q 16.015625 22.609375 22.328125 14.59375 
Q 28.65625 6.59375 39.40625 6.59375 
Q 50.140625 6.59375 56.421875 14.59375 
Q 62.703125 22.609375 62.703125 36.375 
Q 62.703125 50.203125 56.421875 58.203125 
Q 50.140625 66.21875 39.40625 66.21875 
M 53.21875 1.3125 
L 66.21875 -12.890625 
L 54.296875 -12.890625 
L 43.5 -1.21875 
Q 41.890625 -1.3125 41.03125 -1.359375 
Q 40.1875 -1.421875 39.40625 -1.421875 
Q 24.03125 -1.421875 14.8125 8.859375 
Q 5.609375 19.140625 5.609375 36.375 
Q 5.609375 53.65625 14.8125 63.9375 
Q 24.03125 74.21875 39.40625 74.21875 
Q 54.734375 74.21875 63.90625 63.9375 
Q 73.09375 53.65625 73.09375 36.375 
Q 73.09375 23.6875 67.984375 14.640625 
Q 62.890625 5.609375 53.21875 1.3125 
" id="BitstreamVeraSans-Roman-51"/>
      <path id="BitstreamVeraSans-Roman-20"/>
      <path d="M 41.109375 46.296875 
Q 39.59375 47.171875 37.8125 47.578125 
Q 36.03125 48 33.890625 48 
Q 26.265625 48 22.1875 43.046875 
Q 18.109375 38.09375 18.109375 28.8125 
L 18.109375 0 
L 9.078125 0 
L 9.078125 54.6875 
L 18.109375 54.6875 
L 18.109375 46.1875 
Q 20.953125 51.171875 25.484375 53.578125 
Q 30.03125 56 36.53125 56 
Q 37.453125 56 38.578125 55.875 
Q 39.703125 55.765625 41.0625 55.515625 
z
" id="BitstreamVeraSans-Roman-72"/>
      <path d="M 34.28125 27.484375 
Q 23.390625 27.484375 19.1875 25 
Q 14.984375 22.515625 14.984375 16.5 
Q 14.984375 11.71875 18.140625 8.90625 
Q 21.296875 6.109375 26.703125 6.109375 
Q 34.1875 6.109375 38.703125 11.40625 
Q 43.21875 16.703125 43.21875 25.484375 
L 43.21875 27.484375 
z
M 52.203125 31.203125 
L 52.203125 0 
L 43.21875 0 
L 43.21875 8.296875 
Q 40.140625 3.328125 35.546875 0.953125 
Q 30.953125 -1.421875 24.3125 -1.421875 
Q 15.921875 -1.421875 10.953125 3.296875 
Q 6 8.015625 6 15.921875 
Q 6 25.140625 12.171875 29.828125 
Q 18.359375 34.515625 30.609375 34.515625 
L 43.21875 34.515625 
L 43.21875 35.40625 
Q 43.21875 41.609375 39.140625 45 
Q 35.0625 48.390625 27.6875 48.390625 
Q 23 48.390625 18.546875 47.265625 
Q 14.109375 46.140625 10.015625 43.890625 
L 10.015625 52.203125 
Q 14.9375 54.109375 19.578125 55.046875 
Q 24.21875 56 28.609375 56 
Q 40.484375 56 46.34375 49.84375 
Q 52.203125 43.703125 52.203125 31.203125 
" id="BitstreamVeraSans-Roman-61"/>
      <path d="M 52 44.1875 
Q 55.375 50.25 60.0625 53.125 
Q 64.75 56 71.09375 56 
Q 79.640625 56 84.28125 50.015625 
Q 88.921875 44.046875 88.921875 33.015625 
L 88.921875 0 
L 79.890625 0 
L 79.890625 32.71875 
Q 79.890625 40.578125 77.09375 44.375 
Q 74.3125 48.1875 68.609375 48.1875 
Q 61.625 48.1875 57.5625 43.546875 
Q 53.515625 38.921875 53.515625 30.90625 
L 53.515625 0 
L 44.484375 0 
L 44.484375 32.71875 
Q 44.484375 40.625 41.703125 44.40625 
Q 38.921875 48.1875 33.109375 48.1875 
Q 26.21875 48.1875 22.15625 43.53125 
Q 18.109375 38.875 18.109375 30.90625 
L 18.109375 0 
L 9.078125 0 
L 9.078125 54.6875 
L 18.109375 54.6875 
L 18.109375 46.1875 
Q 21.1875 51.21875 25.484375 53.609375 
Q 29.78125 56 35.6875 56 
Q 41.65625 56 45.828125 52.96875 
Q 50 49.953125 52 44.1875 
" id="BitstreamVeraSans-Roman-6d"/>
     </defs>
     <g transform="translate(16.318125 240.208625)rotate(-90.0)scale(0.12 -0.12)">
      <use xlink:href="#BitstreamVeraSans-Roman-61"/>
      <use x="61.279296875" xlink:href="#BitstreamVeraSans-Roman-76"/>
      <use x="120.458984375" xlink:href="#BitstreamVeraSans-Roman-65"/>
      <use x="181.982421875" xlink:href="#BitstreamVeraSans-Roman-72"/>
      <use x="223.095703125" xlink:href="#BitstreamVeraSans-Roman-61"/>
      <use x="284.375" xlink:href="#BitstreamVeraSans-Roman-67"/>
      <use x="347.8515625" xlink:href="#BitstreamVeraSans-Roman-65"/>
      <use x="409.375" xlink:href="#BitstreamVeraSans-Roman-20"/>
      <use x="441.162109375" xlink:href="#BitstreamVeraSans-Roman-6d"/>
      <use x="538.57421875" xlink:href="#BitstreamVeraSans-Roman-61"/>
      <use x="599.853515625" xlink:href="#BitstreamVeraSans-Roman-78"/>
      <use x="659.033203125" xlink:href="#BitstreamVeraSans-Roman-51"/>
     </g>
    </g>
   </g>
   <g id="text_20">
    <!-- Average maxQ per episode, joint3 -->
    <defs>
     <path d="M 34.1875 63.1875 
L 20.796875 26.90625 
L 47.609375 26.90625 
z
M 28.609375 72.90625 
L 39.796875 72.90625 
L 67.578125 0 
L 57.328125 0 
L 50.6875 18.703125 
L 17.828125 18.703125 
L 11.1875 0 
L 0.78125 0 
z
" id="BitstreamVeraSans-Roman-41"/>
     <path d="M 11.71875 12.40625 
L 22.015625 12.40625 
L 22.015625 4 
L 14.015625 -11.625 
L 7.71875 -11.625 
L 11.71875 4 
z
" id="BitstreamVeraSans-Roman-2c"/>
     <path d="M 9.421875 54.6875 
L 18.40625 54.6875 
L 18.40625 -0.984375 
Q 18.40625 -11.421875 14.421875 -16.109375 
Q 10.453125 -20.796875 1.609375 -20.796875 
L -1.8125 -20.796875 
L -1.8125 -13.1875 
L 0.59375 -13.1875 
Q 5.71875 -13.1875 7.5625 -10.8125 
Q 9.421875 -8.453125 9.421875 -0.984375 
z
M 9.421875 75.984375 
L 18.40625 75.984375 
L 18.40625 64.59375 
L 9.421875 64.59375 
z
" id="BitstreamVeraSans-Roman-6a"/>
     <path d="M 18.3125 70.21875 
L 18.3125 54.6875 
L 36.8125 54.6875 
L 36.8125 47.703125 
L 18.3125 47.703125 
L 18.3125 18.015625 
Q 18.3125 11.328125 20.140625 9.421875 
Q 21.96875 7.515625 27.59375 7.515625 
L 36.8125 7.515625 
L 36.8125 0 
L 27.59375 0 
Q 17.1875 0 13.234375 3.875 
Q 9.28125 7.765625 9.28125 18.015625 
L 9.28125 47.703125 
L 2.6875 47.703125 
L 2.6875 54.6875 
L 9.28125 54.6875 
L 9.28125 70.21875 
z
" id="BitstreamVeraSans-Roman-74"/>
     <path d="M 54.890625 33.015625 
L 54.890625 0 
L 45.90625 0 
L 45.90625 32.71875 
Q 45.90625 40.484375 42.875 44.328125 
Q 39.84375 48.1875 33.796875 48.1875 
Q 26.515625 48.1875 22.3125 43.546875 
Q 18.109375 38.921875 18.109375 30.90625 
L 18.109375 0 
L 9.078125 0 
L 9.078125 54.6875 
L 18.109375 54.6875 
L 18.109375 46.1875 
Q 21.34375 51.125 25.703125 53.5625 
Q 30.078125 56 35.796875 56 
Q 45.21875 56 50.046875 50.171875 
Q 54.890625 44.34375 54.890625 33.015625 
" id="BitstreamVeraSans-Roman-6e"/>
    </defs>
    <g transform="translate(164.515125 18.14175)scale(0.144 -0.144)">
     <use xlink:href="#BitstreamVeraSans-Roman-41"/>
     <use x="68.330078125" xlink:href="#BitstreamVeraSans-Roman-76"/>
     <use x="127.509765625" xlink:href="#BitstreamVeraSans-Roman-65"/>
     <use x="189.033203125" xlink:href="#BitstreamVeraSans-Roman-72"/>
     <use x="230.146484375" xlink:href="#BitstreamVeraSans-Roman-61"/>
     <use x="291.42578125" xlink:href="#BitstreamVeraSans-Roman-67"/>
     <use x="354.90234375" xlink:href="#BitstreamVeraSans-Roman-65"/>
     <use x="416.42578125" xlink:href="#BitstreamVeraSans-Roman-20"/>
     <use x="448.212890625" xlink:href="#BitstreamVeraSans-Roman-6d"/>
     <use x="545.625" xlink:href="#BitstreamVeraSans-Roman-61"/>
     <use x="606.904296875" xlink:href="#BitstreamVeraSans-Roman-78"/>
     <use x="666.083984375" xlink:href="#BitstreamVeraSans-Roman-51"/>
     <use x="744.794921875" xlink:href="#BitstreamVeraSans-Roman-20"/>
     <use x="776.58203125" xlink:href="#BitstreamVeraSans-Roman-70"/>
     <use x="840.05859375" xlink:href="#BitstreamVeraSans-Roman-65"/>
     <use x="901.58203125" xlink:href="#BitstreamVeraSans-Roman-72"/>
     <use x="942.6953125" xlink:href="#BitstreamVeraSans-Roman-20"/>
     <use x="974.482421875" xlink:href="#BitstreamVeraSans-Roman-65"/>
     <use x="1036.005859375" xlink:href="#BitstreamVeraSans-Roman-70"/>
     <use x="1099.482421875" xlink:href="#BitstreamVeraSans-Roman-69"/>
     <use x="1127.265625" xlink:href="#BitstreamVeraSans-Roman-73"/>
     <use x="1179.365234375" xlink:href="#BitstreamVeraSans-Roman-6f"/>
     <use x="1240.546875" xlink:href="#BitstreamVeraSans-Roman-64"/>
     <use x="1304.0234375" xlink:href="#BitstreamVeraSans-Roman-65"/>
     <use x="1365.546875" xlink:href="#BitstreamVeraSans-Roman-2c"/>
     <use x="1397.333984375" xlink:href="#BitstreamVeraSans-Roman-20"/>
     <use x="1429.12109375" xlink:href="#BitstreamVeraSans-Roman-6a"/>
     <use x="1456.904296875" xlink:href="#BitstreamVeraSans-Roman-6f"/>
     <use x="1518.0859375" xlink:href="#BitstreamVeraSans-Roman-69"/>
     <use x="1545.869140625" xlink:href="#BitstreamVeraSans-Roman-6e"/>
     <use x="1609.248046875" xlink:href="#BitstreamVeraSans-Roman-74"/>
     <use x="1648.45703125" xlink:href="#BitstreamVeraSans-Roman-33"/>
    </g>
   </g>
  </g>
 </g>
 <defs>
  <clipPath id="p86c50d4b2a">
   <rect height="345.6" width="446.4" x="64.588125" y="23.14175"/>
  </clipPath>
 </defs>
</svg>
