<?xml version="1.0" encoding="utf-8" standalone="no"?>
<!DOCTYPE svg PUBLIC "-//W3C//DTD SVG 1.1//EN"
  "http://www.w3.org/Graphics/SVG/1.1/DTD/svg11.dtd">
<!-- Created with matplotlib (http://matplotlib.org/) -->
<svg height="408pt" version="1.1" viewBox="0 0 517 408" width="517pt" xmlns="http://www.w3.org/2000/svg" xmlns:xlink="http://www.w3.org/1999/xlink">
 <defs>
  <style type="text/css">
*{stroke-linecap:butt;stroke-linejoin:round;stroke-miterlimit:100000;}
  </style>
 </defs>
 <g id="figure_1">
  <g id="patch_1">
   <path d="M 0 408.16925 
L 517.674375 408.16925 
L 517.674375 0 
L 0 0 
z
" style="fill:#ffffff;"/>
  </g>
  <g id="axes_1">
   <g id="patch_2">
    <path d="M 54.5325 368.74175 
L 500.9325 368.74175 
L 500.9325 23.14175 
L 54.5325 23.14175 
z
" style="fill:#ffffff;"/>
   </g>
   <g id="PathCollection_1">
    <defs>
     <path d="M 0 2.236068 
C 0.593012 2.236068 1.161816 2.000462 1.581139 1.581139 
C 2.000462 1.161816 2.236068 0.593012 2.236068 0 
C 2.236068 -0.593012 2.000462 -1.161816 1.581139 -1.581139 
C 1.161816 -2.000462 0.593012 -2.236068 0 -2.236068 
C -0.593012 -2.236068 -1.161816 -2.000462 -1.581139 -1.581139 
C -2.000462 -1.161816 -2.236068 -0.593012 -2.236068 0 
C -2.236068 0.593012 -2.000462 1.161816 -1.581139 1.581139 
C -1.161816 2.000462 -0.593012 2.236068 0 2.236068 
z
" id="md49b6866d2" style="stroke:#000000;"/>
    </defs>
    <g clip-path="url(#p5568664034)">
     <use style="fill:#0000ff;stroke:#000000;" x="277.756073663" xlink:href="#md49b6866d2" y="331.470267914"/>
     <use style="fill:#0000ff;stroke:#000000;" x="277.754549165" xlink:href="#md49b6866d2" y="305.922832153"/>
     <use style="fill:#0000ff;stroke:#000000;" x="272.889052591" xlink:href="#md49b6866d2" y="206.646114014"/>
     <use style="fill:#0000ff;stroke:#000000;" x="250.1331701" xlink:href="#md49b6866d2" y="107.419246338"/>
     <use style="fill:#0000ff;stroke:#000000;" x="227.250754256" xlink:href="#md49b6866d2" y="82.5074039917"/>
     <use style="fill:#0000ff;stroke:#000000;" x="204.466402366" xlink:href="#md49b6866d2" y="76.1382175903"/>
     <use style="fill:#0000ff;stroke:#000000;" x="182.91622858" xlink:href="#md49b6866d2" y="96.4301716309"/>
     <use style="fill:#0000ff;stroke:#000000;" x="161.597379251" xlink:href="#md49b6866d2" y="101.826656006"/>
     <use style="fill:#0000ff;stroke:#000000;" x="139.526589322" xlink:href="#md49b6866d2" y="116.33554425"/>
     <use style="fill:#0000ff;stroke:#000000;" x="118.527557942" xlink:href="#md49b6866d2" y="119.889827393"/>
     <use style="fill:#0000ff;stroke:#000000;" x="415.056210175" xlink:href="#md49b6866d2" y="121.51511731"/>
     <use style="fill:#0000ff;stroke:#000000;" x="363.033627862" xlink:href="#md49b6866d2" y="96.4241978149"/>
     <use style="fill:#0000ff;stroke:#000000;" x="340.312627342" xlink:href="#md49b6866d2" y="81.8265949707"/>
     <use style="fill:#0000ff;stroke:#000000;" x="317.565468368" xlink:href="#md49b6866d2" y="59.7494312744"/>
     <use style="fill:#0000ff;stroke:#000000;" x="294.725145615" xlink:href="#md49b6866d2" y="62.1986271362"/>
     <use style="fill:#0000ff;stroke:#000000;" x="271.842403093" xlink:href="#md49b6866d2" y="69.5291859131"/>
     <use style="fill:#0000ff;stroke:#000000;" x="248.947210502" xlink:href="#md49b6866d2" y="60.3918568115"/>
     <use style="fill:#0000ff;stroke:#000000;" x="226.03795865" xlink:href="#md49b6866d2" y="55.866862915"/>
     <use style="fill:#0000ff;stroke:#000000;" x="203.096147872" xlink:href="#md49b6866d2" y="55.0590931396"/>
     <use style="fill:#0000ff;stroke:#000000;" x="180.08038683" xlink:href="#md49b6866d2" y="66.0754276733"/>
     <use style="fill:#0000ff;stroke:#000000;" x="161.597176791" xlink:href="#md49b6866d2" y="76.017367981"/>
     <use style="fill:#0000ff;stroke:#000000;" x="139.34472959" xlink:href="#md49b6866d2" y="103.750911377"/>
     <use style="fill:#0000ff;stroke:#000000;" x="436.143980257" xlink:href="#md49b6866d2" y="125.414920471"/>
     <use style="fill:#0000ff;stroke:#000000;" x="412.572382324" xlink:href="#md49b6866d2" y="82.5310932617"/>
     <use style="fill:#0000ff;stroke:#000000;" x="389.457311113" xlink:href="#md49b6866d2" y="62.8555408936"/>
     <use style="fill:#0000ff;stroke:#000000;" x="366.807429645" xlink:href="#md49b6866d2" y="61.618274353"/>
     <use style="fill:#0000ff;stroke:#000000;" x="344.139496182" xlink:href="#md49b6866d2" y="63.7816883545"/>
     <use style="fill:#0000ff;stroke:#000000;" x="321.449638983" xlink:href="#md49b6866d2" y="60.3138538818"/>
     <use style="fill:#0000ff;stroke:#000000;" x="298.729920978" xlink:href="#md49b6866d2" y="58.2874943237"/>
     <use style="fill:#0000ff;stroke:#000000;" x="275.966597483" xlink:href="#md49b6866d2" y="57.385928772"/>
     <use style="fill:#0000ff;stroke:#000000;" x="253.18498001" xlink:href="#md49b6866d2" y="54.8518635254"/>
     <use style="fill:#0000ff;stroke:#000000;" x="230.372678986" xlink:href="#md49b6866d2" y="60.7879139404"/>
     <use style="fill:#0000ff;stroke:#000000;" x="207.524612749" xlink:href="#md49b6866d2" y="76.1091724854"/>
     <use style="fill:#0000ff;stroke:#000000;" x="185.068705531" xlink:href="#md49b6866d2" y="79.2499577026"/>
     <use style="fill:#0000ff;stroke:#000000;" x="277.756073663" xlink:href="#md49b6866d2" y="331.470267914"/>
     <use style="fill:#0000ff;stroke:#000000;" x="277.754549165" xlink:href="#md49b6866d2" y="305.922832153"/>
     <use style="fill:#0000ff;stroke:#000000;" x="272.888750111" xlink:href="#md49b6866d2" y="206.922523163"/>
     <use style="fill:#0000ff;stroke:#000000;" x="250.128027943" xlink:href="#md49b6866d2" y="108.130920074"/>
     <use style="fill:#0000ff;stroke:#000000;" x="227.248467509" xlink:href="#md49b6866d2" y="82.5582844238"/>
     <use style="fill:#0000ff;stroke:#000000;" x="204.38320832" xlink:href="#md49b6866d2" y="76.9974857788"/>
     <use style="fill:#0000ff;stroke:#000000;" x="277.756073663" xlink:href="#md49b6866d2" y="331.470267914"/>
     <use style="fill:#0000ff;stroke:#000000;" x="277.754549165" xlink:href="#md49b6866d2" y="305.922832153"/>
     <use style="fill:#0000ff;stroke:#000000;" x="272.888750111" xlink:href="#md49b6866d2" y="206.922523163"/>
     <use style="fill:#0000ff;stroke:#000000;" x="250.128027943" xlink:href="#md49b6866d2" y="108.130920074"/>
     <use style="fill:#0000ff;stroke:#000000;" x="227.248467509" xlink:href="#md49b6866d2" y="82.5582844238"/>
     <use style="fill:#0000ff;stroke:#000000;" x="204.38320832" xlink:href="#md49b6866d2" y="76.9974857788"/>
     <use style="fill:#0000ff;stroke:#000000;" x="277.756073663" xlink:href="#md49b6866d2" y="331.470267914"/>
     <use style="fill:#0000ff;stroke:#000000;" x="277.754549165" xlink:href="#md49b6866d2" y="305.922832153"/>
     <use style="fill:#0000ff;stroke:#000000;" x="272.888750111" xlink:href="#md49b6866d2" y="206.922523163"/>
     <use style="fill:#0000ff;stroke:#000000;" x="250.128027943" xlink:href="#md49b6866d2" y="108.130920074"/>
     <use style="fill:#0000ff;stroke:#000000;" x="227.248467509" xlink:href="#md49b6866d2" y="82.5582844238"/>
     <use style="fill:#0000ff;stroke:#000000;" x="204.38320832" xlink:href="#md49b6866d2" y="76.9974857788"/>
     <use style="fill:#0000ff;stroke:#000000;" x="277.756073663" xlink:href="#md49b6866d2" y="331.470267914"/>
     <use style="fill:#0000ff;stroke:#000000;" x="277.754549165" xlink:href="#md49b6866d2" y="305.922832153"/>
     <use style="fill:#0000ff;stroke:#000000;" x="272.888750111" xlink:href="#md49b6866d2" y="206.922523163"/>
     <use style="fill:#0000ff;stroke:#000000;" x="250.128040042" xlink:href="#md49b6866d2" y="107.927707336"/>
     <use style="fill:#0000ff;stroke:#000000;" x="227.24604767" xlink:href="#md49b6866d2" y="82.4741703491"/>
     <use style="fill:#0000ff;stroke:#000000;" x="277.756073663" xlink:href="#md49b6866d2" y="331.470267914"/>
     <use style="fill:#0000ff;stroke:#000000;" x="277.754549165" xlink:href="#md49b6866d2" y="305.922832153"/>
     <use style="fill:#0000ff;stroke:#000000;" x="272.888750111" xlink:href="#md49b6866d2" y="206.922523163"/>
     <use style="fill:#0000ff;stroke:#000000;" x="250.128027943" xlink:href="#md49b6866d2" y="108.130920074"/>
     <use style="fill:#0000ff;stroke:#000000;" x="227.248467509" xlink:href="#md49b6866d2" y="82.5582844238"/>
     <use style="fill:#0000ff;stroke:#000000;" x="204.38320832" xlink:href="#md49b6866d2" y="76.9974857788"/>
     <use style="fill:#0000ff;stroke:#000000;" x="277.756073663" xlink:href="#md49b6866d2" y="331.470267914"/>
     <use style="fill:#0000ff;stroke:#000000;" x="277.754549165" xlink:href="#md49b6866d2" y="305.922832153"/>
     <use style="fill:#0000ff;stroke:#000000;" x="272.888750111" xlink:href="#md49b6866d2" y="206.922523163"/>
     <use style="fill:#0000ff;stroke:#000000;" x="250.128027943" xlink:href="#md49b6866d2" y="108.130920074"/>
     <use style="fill:#0000ff;stroke:#000000;" x="227.248467509" xlink:href="#md49b6866d2" y="82.5582844238"/>
     <use style="fill:#0000ff;stroke:#000000;" x="204.38320832" xlink:href="#md49b6866d2" y="76.9974857788"/>
     <use style="fill:#0000ff;stroke:#000000;" x="277.756073663" xlink:href="#md49b6866d2" y="331.470267914"/>
     <use style="fill:#0000ff;stroke:#000000;" x="277.754549165" xlink:href="#md49b6866d2" y="305.922832153"/>
     <use style="fill:#0000ff;stroke:#000000;" x="272.888750111" xlink:href="#md49b6866d2" y="206.922523163"/>
     <use style="fill:#0000ff;stroke:#000000;" x="250.128027943" xlink:href="#md49b6866d2" y="108.130920074"/>
     <use style="fill:#0000ff;stroke:#000000;" x="227.248467509" xlink:href="#md49b6866d2" y="82.5582844238"/>
     <use style="fill:#0000ff;stroke:#000000;" x="204.38320832" xlink:href="#md49b6866d2" y="76.9974857788"/>
     <use style="fill:#0000ff;stroke:#000000;" x="277.756073663" xlink:href="#md49b6866d2" y="331.470267914"/>
     <use style="fill:#0000ff;stroke:#000000;" x="277.754549165" xlink:href="#md49b6866d2" y="305.922832153"/>
     <use style="fill:#0000ff;stroke:#000000;" x="272.888750111" xlink:href="#md49b6866d2" y="206.922523163"/>
     <use style="fill:#0000ff;stroke:#000000;" x="250.128027943" xlink:href="#md49b6866d2" y="108.130920074"/>
     <use style="fill:#0000ff;stroke:#000000;" x="227.248467509" xlink:href="#md49b6866d2" y="82.5582844238"/>
     <use style="fill:#0000ff;stroke:#000000;" x="204.38320832" xlink:href="#md49b6866d2" y="76.9974857788"/>
     <use style="fill:#0000ff;stroke:#000000;" x="277.756073663" xlink:href="#md49b6866d2" y="331.470267914"/>
     <use style="fill:#0000ff;stroke:#000000;" x="277.754549165" xlink:href="#md49b6866d2" y="305.922832153"/>
     <use style="fill:#0000ff;stroke:#000000;" x="272.888750111" xlink:href="#md49b6866d2" y="206.922523163"/>
     <use style="fill:#0000ff;stroke:#000000;" x="250.128027943" xlink:href="#md49b6866d2" y="108.130920074"/>
     <use style="fill:#0000ff;stroke:#000000;" x="227.248467509" xlink:href="#md49b6866d2" y="82.5582844238"/>
     <use style="fill:#0000ff;stroke:#000000;" x="204.38320832" xlink:href="#md49b6866d2" y="76.9974857788"/>
     <use style="fill:#0000ff;stroke:#000000;" x="277.756073663" xlink:href="#md49b6866d2" y="331.470267914"/>
     <use style="fill:#0000ff;stroke:#000000;" x="277.754549165" xlink:href="#md49b6866d2" y="305.922832153"/>
     <use style="fill:#0000ff;stroke:#000000;" x="272.888750111" xlink:href="#md49b6866d2" y="206.922523163"/>
     <use style="fill:#0000ff;stroke:#000000;" x="250.128027943" xlink:href="#md49b6866d2" y="108.130920074"/>
     <use style="fill:#0000ff;stroke:#000000;" x="227.248467509" xlink:href="#md49b6866d2" y="82.5582844238"/>
     <use style="fill:#0000ff;stroke:#000000;" x="204.38320832" xlink:href="#md49b6866d2" y="76.9974857788"/>
     <use style="fill:#0000ff;stroke:#000000;" x="277.756073663" xlink:href="#md49b6866d2" y="331.470267914"/>
     <use style="fill:#0000ff;stroke:#000000;" x="277.754549165" xlink:href="#md49b6866d2" y="305.922832153"/>
     <use style="fill:#0000ff;stroke:#000000;" x="272.888750111" xlink:href="#md49b6866d2" y="206.922523163"/>
     <use style="fill:#0000ff;stroke:#000000;" x="250.128027943" xlink:href="#md49b6866d2" y="108.130920074"/>
     <use style="fill:#0000ff;stroke:#000000;" x="227.237989608" xlink:href="#md49b6866d2" y="95.1867252808"/>
     <use style="fill:#0000ff;stroke:#000000;" x="218.300038016" xlink:href="#md49b6866d2" y="89.814960144"/>
     <use style="fill:#0000ff;stroke:#000000;" x="217.672513411" xlink:href="#md49b6866d2" y="103.90410199"/>
     <use style="fill:#0000ff;stroke:#000000;" x="195.415480616" xlink:href="#md49b6866d2" y="90.9335743408"/>
     <use style="fill:#0000ff;stroke:#000000;" x="173.262065303" xlink:href="#md49b6866d2" y="82.8912388306"/>
     <use style="fill:#0000ff;stroke:#000000;" x="151.098595562" xlink:href="#md49b6866d2" y="88.1446949463"/>
     <use style="fill:#0000ff;stroke:#000000;" x="277.756073663" xlink:href="#md49b6866d2" y="331.470267914"/>
     <use style="fill:#0000ff;stroke:#000000;" x="277.754549165" xlink:href="#md49b6866d2" y="305.922832153"/>
     <use style="fill:#0000ff;stroke:#000000;" x="272.888750111" xlink:href="#md49b6866d2" y="206.922523163"/>
     <use style="fill:#0000ff;stroke:#000000;" x="250.129407251" xlink:href="#md49b6866d2" y="106.423747681"/>
     <use style="fill:#0000ff;stroke:#000000;" x="227.192218364" xlink:href="#md49b6866d2" y="64.6392399292"/>
     <use style="fill:#0000ff;stroke:#000000;" x="204.194061647" xlink:href="#md49b6866d2" y="57.5135761719"/>
     <use style="fill:#0000ff;stroke:#000000;" x="181.196534089" xlink:href="#md49b6866d2" y="70.7119328003"/>
     <use style="fill:#0000ff;stroke:#000000;" x="162.967249797" xlink:href="#md49b6866d2" y="84.890338562"/>
     <use style="fill:#0000ff;stroke:#000000;" x="152.650026586" xlink:href="#md49b6866d2" y="110.254817627"/>
     <use style="fill:#0000ff;stroke:#000000;" x="133.726635834" xlink:href="#md49b6866d2" y="109.305667542"/>
     <use style="fill:#0000ff;stroke:#000000;" x="429.379076663" xlink:href="#md49b6866d2" y="105.845592163"/>
     <use style="fill:#0000ff;stroke:#000000;" x="389.660283936" xlink:href="#md49b6866d2" y="85.9474293213"/>
     <use style="fill:#0000ff;stroke:#000000;" x="359.119563369" xlink:href="#md49b6866d2" y="71.7858463745"/>
     <use style="fill:#0000ff;stroke:#000000;" x="336.377219874" xlink:href="#md49b6866d2" y="85.5999866943"/>
     <use style="fill:#0000ff;stroke:#000000;" x="313.589806888" xlink:href="#md49b6866d2" y="70.6678501587"/>
     <use style="fill:#0000ff;stroke:#000000;" x="290.764547629" xlink:href="#md49b6866d2" y="67.7419163208"/>
     <use style="fill:#0000ff;stroke:#000000;" x="267.9238498" xlink:href="#md49b6866d2" y="60.0880161743"/>
     <use style="fill:#0000ff;stroke:#000000;" x="245.072782963" xlink:href="#md49b6866d2" y="54.4289585571"/>
     <use style="fill:#0000ff;stroke:#000000;" x="222.247233323" xlink:href="#md49b6866d2" y="55.4586521606"/>
     <use style="fill:#0000ff;stroke:#000000;" x="199.356916707" xlink:href="#md49b6866d2" y="62.8452412109"/>
     <use style="fill:#0000ff;stroke:#000000;" x="176.401167659" xlink:href="#md49b6866d2" y="65.9254642944"/>
     <use style="fill:#0000ff;stroke:#000000;" x="153.606434662" xlink:href="#md49b6866d2" y="77.4620701294"/>
     <use style="fill:#0000ff;stroke:#000000;" x="133.727147226" xlink:href="#md49b6866d2" y="90.0688129883"/>
     <use style="fill:#0000ff;stroke:#000000;" x="122.005207796" xlink:href="#md49b6866d2" y="114.860080383"/>
     <use style="fill:#0000ff;stroke:#000000;" x="418.796206814" xlink:href="#md49b6866d2" y="126.07849469"/>
     <use style="fill:#0000ff;stroke:#000000;" x="392.111777098" xlink:href="#md49b6866d2" y="96.7809101562"/>
     <use style="fill:#0000ff;stroke:#000000;" x="369.307558333" xlink:href="#md49b6866d2" y="63.4323231201"/>
     <use style="fill:#0000ff;stroke:#000000;" x="346.629171169" xlink:href="#md49b6866d2" y="55.8946720581"/>
     <use style="fill:#0000ff;stroke:#000000;" x="323.90950156" xlink:href="#md49b6866d2" y="69.1235844116"/>
     <use style="fill:#0000ff;stroke:#000000;" x="301.147242794" xlink:href="#md49b6866d2" y="60.767039917"/>
     <use style="fill:#0000ff;stroke:#000000;" x="278.346556994" xlink:href="#md49b6866d2" y="55.5532719116"/>
     <use style="fill:#0000ff;stroke:#000000;" x="255.569875992" xlink:href="#md49b6866d2" y="53.5183979492"/>
     <use style="fill:#0000ff;stroke:#000000;" x="232.773449107" xlink:href="#md49b6866d2" y="52.7975574951"/>
     <use style="fill:#0000ff;stroke:#000000;" x="209.920204416" xlink:href="#md49b6866d2" y="61.6394230347"/>
     <use style="fill:#0000ff;stroke:#000000;" x="187.131811396" xlink:href="#md49b6866d2" y="78.2158695679"/>
     <use style="fill:#0000ff;stroke:#000000;" x="164.720284015" xlink:href="#md49b6866d2" y="85.5390812378"/>
     <use style="fill:#0000ff;stroke:#000000;" x="150.16877909" xlink:href="#md49b6866d2" y="97.3863255005"/>
     <use style="fill:#0000ff;stroke:#000000;" x="141.63507361" xlink:href="#md49b6866d2" y="117.856704376"/>
     <use style="fill:#0000ff;stroke:#000000;" x="124.171051128" xlink:href="#md49b6866d2" y="161.521556519"/>
     <use style="fill:#0000ff;stroke:#000000;" x="420.102692918" xlink:href="#md49b6866d2" y="127.527110718"/>
     <use style="fill:#0000ff;stroke:#000000;" x="396.731264022" xlink:href="#md49b6866d2" y="64.7832294922"/>
     <use style="fill:#0000ff;stroke:#000000;" x="373.966343434" xlink:href="#md49b6866d2" y="66.3456226807"/>
     <use style="fill:#0000ff;stroke:#000000;" x="356.343627947" xlink:href="#md49b6866d2" y="62.5565067749"/>
     <use style="fill:#0000ff;stroke:#000000;" x="351.549540806" xlink:href="#md49b6866d2" y="78.4042164307"/>
     <use style="fill:#0000ff;stroke:#000000;" x="328.872557147" xlink:href="#md49b6866d2" y="75.4668156128"/>
     <use style="fill:#0000ff;stroke:#000000;" x="306.178150652" xlink:href="#md49b6866d2" y="64.5843082886"/>
     <use style="fill:#0000ff;stroke:#000000;" x="283.480066002" xlink:href="#md49b6866d2" y="58.606303833"/>
     <use style="fill:#0000ff;stroke:#000000;" x="260.790886358" xlink:href="#md49b6866d2" y="55.0943867187"/>
     <use style="fill:#0000ff;stroke:#000000;" x="238.015270084" xlink:href="#md49b6866d2" y="58.3134495239"/>
     <use style="fill:#0000ff;stroke:#000000;" x="215.187094919" xlink:href="#md49b6866d2" y="73.7082478027"/>
     <use style="fill:#0000ff;stroke:#000000;" x="192.679887126" xlink:href="#md49b6866d2" y="79.722987793"/>
     <use style="fill:#0000ff;stroke:#000000;" x="170.366943964" xlink:href="#md49b6866d2" y="79.768375061"/>
     <use style="fill:#0000ff;stroke:#000000;" x="148.182252239" xlink:href="#md49b6866d2" y="72.3223911743"/>
     <use style="fill:#0000ff;stroke:#000000;" x="129.377881241" xlink:href="#md49b6866d2" y="81.7157703857"/>
     <use style="fill:#0000ff;stroke:#000000;" x="144.205780113" xlink:href="#md49b6866d2" y="86.526477478"/>
     <use style="fill:#0000ff;stroke:#000000;" x="134.728337638" xlink:href="#md49b6866d2" y="92.0856281738"/>
     <use style="fill:#0000ff;stroke:#000000;" x="119.477451005" xlink:href="#md49b6866d2" y="98.3435093384"/>
     <use style="fill:#0000ff;stroke:#000000;" x="144.69923357" xlink:href="#md49b6866d2" y="132.418223999"/>
     <use style="fill:#0000ff;stroke:#000000;" x="119.463125561" xlink:href="#md49b6866d2" y="124.947864197"/>
     <use style="fill:#0000ff;stroke:#000000;" x="415.292795359" xlink:href="#md49b6866d2" y="114.511676453"/>
     <use style="fill:#0000ff;stroke:#000000;" x="389.167929085" xlink:href="#md49b6866d2" y="87.2741657715"/>
     <use style="fill:#0000ff;stroke:#000000;" x="366.708246919" xlink:href="#md49b6866d2" y="83.5993076782"/>
     <use style="fill:#0000ff;stroke:#000000;" x="343.978801163" xlink:href="#md49b6866d2" y="54.2661549072"/>
     <use style="fill:#0000ff;stroke:#000000;" x="321.216542398" xlink:href="#md49b6866d2" y="53.7274815063"/>
     <use style="fill:#0000ff;stroke:#000000;" x="298.433860196" xlink:href="#md49b6866d2" y="62.1609302979"/>
     <use style="fill:#0000ff;stroke:#000000;" x="275.641885814" xlink:href="#md49b6866d2" y="58.9530598145"/>
     <use style="fill:#0000ff;stroke:#000000;" x="252.837909034" xlink:href="#md49b6866d2" y="54.9028812866"/>
     <use style="fill:#0000ff;stroke:#000000;" x="230.012831262" xlink:href="#md49b6866d2" y="48.9305073242"/>
     <use style="fill:#0000ff;stroke:#000000;" x="207.131516445" xlink:href="#md49b6866d2" y="49.8373600464"/>
     <use style="fill:#0000ff;stroke:#000000;" x="184.283982573" xlink:href="#md49b6866d2" y="62.78653302"/>
     <use style="fill:#0000ff;stroke:#000000;" x="163.78407917" xlink:href="#md49b6866d2" y="76.4268833618"/>
     <use style="fill:#0000ff;stroke:#000000;" x="143.38958393" xlink:href="#md49b6866d2" y="85.589343689"/>
     <use style="fill:#0000ff;stroke:#000000;" x="121.441552406" xlink:href="#md49b6866d2" y="98.6700779419"/>
     <use style="fill:#0000ff;stroke:#000000;" x="420.534616335" xlink:href="#md49b6866d2" y="139.950107239"/>
     <use style="fill:#0000ff;stroke:#000000;" x="392.066959269" xlink:href="#md49b6866d2" y="121.669681213"/>
     <use style="fill:#0000ff;stroke:#000000;" x="369.301409523" xlink:href="#md49b6866d2" y="68.0653950195"/>
     <use style="fill:#0000ff;stroke:#000000;" x="346.640590386" xlink:href="#md49b6866d2" y="54.7419315796"/>
     <use style="fill:#0000ff;stroke:#000000;" x="323.930793718" xlink:href="#md49b6866d2" y="70.5285297852"/>
     <use style="fill:#0000ff;stroke:#000000;" x="301.168438159" xlink:href="#md49b6866d2" y="64.8308826904"/>
     <use style="fill:#0000ff;stroke:#000000;" x="278.367849152" xlink:href="#md49b6866d2" y="57.5060230713"/>
     <use style="fill:#0000ff;stroke:#000000;" x="255.571422268" xlink:href="#md49b6866d2" y="51.1047703247"/>
     <use style="fill:#0000ff;stroke:#000000;" x="232.771317229" xlink:href="#md49b6866d2" y="46.1751362305"/>
     <use style="fill:#0000ff;stroke:#000000;" x="209.921750692" xlink:href="#md49b6866d2" y="50.2183109741"/>
     <use style="fill:#0000ff;stroke:#000000;" x="187.139746045" xlink:href="#md49b6866d2" y="66.8276478271"/>
     <use style="fill:#0000ff;stroke:#000000;" x="164.628085749" xlink:href="#md49b6866d2" y="66.8131596069"/>
     <use style="fill:#0000ff;stroke:#000000;" x="142.194634632" xlink:href="#md49b6866d2" y="75.9920994263"/>
     <use style="fill:#0000ff;stroke:#000000;" x="124.582663228" xlink:href="#md49b6866d2" y="83.4831959229"/>
     <use style="fill:#0000ff;stroke:#000000;" x="137.24074136" xlink:href="#md49b6866d2" y="111.149585388"/>
     <use style="fill:#0000ff;stroke:#000000;" x="126.083447034" xlink:href="#md49b6866d2" y="138.430286072"/>
     <use style="fill:#0000ff;stroke:#000000;" x="428.891737331" xlink:href="#md49b6866d2" y="119.912624023"/>
     <use style="fill:#0000ff;stroke:#000000;" x="405.862231607" xlink:href="#md49b6866d2" y="78.6375385742"/>
     <use style="fill:#0000ff;stroke:#000000;" x="383.031346223" xlink:href="#md49b6866d2" y="67.453456543"/>
     <use style="fill:#0000ff;stroke:#000000;" x="360.448252297" xlink:href="#md49b6866d2" y="81.6359821777"/>
     <use style="fill:#0000ff;stroke:#000000;" x="337.647372909" xlink:href="#md49b6866d2" y="100.54736676"/>
     <use style="fill:#0000ff;stroke:#000000;" x="314.858302334" xlink:href="#md49b6866d2" y="90.1410480957"/>
     <use style="fill:#0000ff;stroke:#000000;" x="292.088784053" xlink:href="#md49b6866d2" y="82.6280476074"/>
     <use style="fill:#0000ff;stroke:#000000;" x="269.349078182" xlink:href="#md49b6866d2" y="94.0801960449"/>
     <use style="fill:#0000ff;stroke:#000000;" x="246.619245252" xlink:href="#md49b6866d2" y="97.9674335937"/>
     <use style="fill:#0000ff;stroke:#000000;" x="223.88089449" xlink:href="#md49b6866d2" y="82.7514378052"/>
     <use style="fill:#0000ff;stroke:#000000;" x="201.195780175" xlink:href="#md49b6866d2" y="80.4864002686"/>
     <use style="fill:#0000ff;stroke:#000000;" x="178.452396149" xlink:href="#md49b6866d2" y="90.4495579224"/>
     <use style="fill:#0000ff;stroke:#000000;" x="155.687911132" xlink:href="#md49b6866d2" y="104.805255554"/>
     <use style="fill:#0000ff;stroke:#000000;" x="132.948205261" xlink:href="#md49b6866d2" y="122.566165588"/>
     <use style="fill:#0000ff;stroke:#000000;" x="429.100875095" xlink:href="#md49b6866d2" y="133.026317261"/>
     <use style="fill:#0000ff;stroke:#000000;" x="406.367944771" xlink:href="#md49b6866d2" y="79.572887085"/>
     <use style="fill:#0000ff;stroke:#000000;" x="383.705867318" xlink:href="#md49b6866d2" y="80.6731678467"/>
     <use style="fill:#0000ff;stroke:#000000;" x="360.974098517" xlink:href="#md49b6866d2" y="95.9876972656"/>
     <use style="fill:#0000ff;stroke:#000000;" x="338.200514907" xlink:href="#md49b6866d2" y="98.4310566406"/>
     <use style="fill:#0000ff;stroke:#000000;" x="315.409895635" xlink:href="#md49b6866d2" y="92.643664978"/>
     <use style="fill:#0000ff;stroke:#000000;" x="292.632440284" xlink:href="#md49b6866d2" y="85.1647221069"/>
     <use style="fill:#0000ff;stroke:#000000;" x="269.887313975" xlink:href="#md49b6866d2" y="98.3956257324"/>
     <use style="fill:#0000ff;stroke:#000000;" x="247.159223329" xlink:href="#md49b6866d2" y="101.983142517"/>
     <use style="fill:#0000ff;stroke:#000000;" x="224.421066154" xlink:href="#md49b6866d2" y="86.4935871582"/>
     <use style="fill:#0000ff;stroke:#000000;" x="201.690458876" xlink:href="#md49b6866d2" y="83.5146442871"/>
     <use style="fill:#0000ff;stroke:#000000;" x="178.920553421" xlink:href="#md49b6866d2" y="93.8273731689"/>
     <use style="fill:#0000ff;stroke:#000000;" x="156.356431027" xlink:href="#md49b6866d2" y="107.854167603"/>
     <use style="fill:#0000ff;stroke:#000000;" x="133.970795918" xlink:href="#md49b6866d2" y="90.2898441772"/>
     <use style="fill:#0000ff;stroke:#000000;" x="430.816701071" xlink:href="#md49b6866d2" y="131.19984021"/>
     <use style="fill:#0000ff;stroke:#000000;" x="405.858680897" xlink:href="#md49b6866d2" y="120.567546509"/>
     <use style="fill:#0000ff;stroke:#000000;" x="383.121878832" xlink:href="#md49b6866d2" y="80.7653843384"/>
     <use style="fill:#0000ff;stroke:#000000;" x="360.378494806" xlink:href="#md49b6866d2" y="79.3598209839"/>
     <use style="fill:#0000ff;stroke:#000000;" x="337.589230644" xlink:href="#md49b6866d2" y="94.8179279785"/>
     <use style="fill:#0000ff;stroke:#000000;" x="314.775961684" xlink:href="#md49b6866d2" y="99.7991291504"/>
     <use style="fill:#0000ff;stroke:#000000;" x="291.966177291" xlink:href="#md49b6866d2" y="81.5040089111"/>
     <use style="fill:#0000ff;stroke:#000000;" x="269.176138781" xlink:href="#md49b6866d2" y="75.6668354492"/>
     <use style="fill:#0000ff;stroke:#000000;" x="246.414751157" xlink:href="#md49b6866d2" y="76.5241810303"/>
     <use style="fill:#0000ff;stroke:#000000;" x="223.640393199" xlink:href="#md49b6866d2" y="106.283706329"/>
     <use style="fill:#0000ff;stroke:#000000;" x="200.828672936" xlink:href="#md49b6866d2" y="81.4374042969"/>
     <use style="fill:#0000ff;stroke:#000000;" x="178.226026714" xlink:href="#md49b6866d2" y="65.6658436279"/>
     <use style="fill:#0000ff;stroke:#000000;" x="156.187299645" xlink:href="#md49b6866d2" y="70.2844959717"/>
     <use style="fill:#0000ff;stroke:#000000;" x="133.223613527" xlink:href="#md49b6866d2" y="85.983546875"/>
     <use style="fill:#0000ff;stroke:#000000;" x="436.352000054" xlink:href="#md49b6866d2" y="113.682277344"/>
     <use style="fill:#0000ff;stroke:#000000;" x="419.508956515" xlink:href="#md49b6866d2" y="95.9585834961"/>
     <use style="fill:#0000ff;stroke:#000000;" x="398.185920866" xlink:href="#md49b6866d2" y="86.7584263306"/>
     <use style="fill:#0000ff;stroke:#000000;" x="375.602439765" xlink:href="#md49b6866d2" y="85.6943317871"/>
     <use style="fill:#0000ff;stroke:#000000;" x="352.807561577" xlink:href="#md49b6866d2" y="93.95790448"/>
     <use style="fill:#0000ff;stroke:#000000;" x="329.985774786" xlink:href="#md49b6866d2" y="79.6717640381"/>
     <use style="fill:#0000ff;stroke:#000000;" x="307.13185254" xlink:href="#md49b6866d2" y="61.7357593994"/>
     <use style="fill:#0000ff;stroke:#000000;" x="284.269799637" xlink:href="#md49b6866d2" y="69.6975513916"/>
     <use style="fill:#0000ff;stroke:#000000;" x="261.412005649" xlink:href="#md49b6866d2" y="62.3800388794"/>
     <use style="fill:#0000ff;stroke:#000000;" x="238.557502642" xlink:href="#md49b6866d2" y="57.342670105"/>
     <use style="fill:#0000ff;stroke:#000000;" x="215.68944854" xlink:href="#md49b6866d2" y="55.677486084"/>
     <use style="fill:#0000ff;stroke:#000000;" x="192.763705489" xlink:href="#md49b6866d2" y="63.3074909668"/>
     <use style="fill:#0000ff;stroke:#000000;" x="169.811053834" xlink:href="#md49b6866d2" y="73.0488621216"/>
     <use style="fill:#0000ff;stroke:#000000;" x="149.802861604" xlink:href="#md49b6866d2" y="92.031039856"/>
     <use style="fill:#0000ff;stroke:#000000;" x="133.703386024" xlink:href="#md49b6866d2" y="110.242114685"/>
     <use style="fill:#0000ff;stroke:#000000;" x="430.713646604" xlink:href="#md49b6866d2" y="123.625728271"/>
     <use style="fill:#0000ff;stroke:#000000;" x="404.829312272" xlink:href="#md49b6866d2" y="103.196513794"/>
     <use style="fill:#0000ff;stroke:#000000;" x="382.125420009" xlink:href="#md49b6866d2" y="54.3468357544"/>
     <use style="fill:#0000ff;stroke:#000000;" x="359.46702071" xlink:href="#md49b6866d2" y="62.0843693237"/>
     <use style="fill:#0000ff;stroke:#000000;" x="336.790037052" xlink:href="#md49b6866d2" y="74.5776783447"/>
     <use style="fill:#0000ff;stroke:#000000;" x="314.099695885" xlink:href="#md49b6866d2" y="67.1288792114"/>
     <use style="fill:#0000ff;stroke:#000000;" x="291.397739494" xlink:href="#md49b6866d2" y="57.8450199585"/>
     <use style="fill:#0000ff;stroke:#000000;" x="268.671971892" xlink:href="#md49b6866d2" y="52.3570744019"/>
     <use style="fill:#0000ff;stroke:#000000;" x="245.926651996" xlink:href="#md49b6866d2" y="52.532992981"/>
     <use style="fill:#0000ff;stroke:#000000;" x="223.155972193" xlink:href="#md49b6866d2" y="66.775394104"/>
     <use style="fill:#0000ff;stroke:#000000;" x="200.530482696" xlink:href="#md49b6866d2" y="77.4571949463"/>
     <use style="fill:#0000ff;stroke:#000000;" x="177.963650084" xlink:href="#md49b6866d2" y="75.5940510254"/>
     <use style="fill:#0000ff;stroke:#000000;" x="155.456248704" xlink:href="#md49b6866d2" y="76.7403370361"/>
     <use style="fill:#0000ff;stroke:#000000;" x="140.018453749" xlink:href="#md49b6866d2" y="88.6490360718"/>
     <use style="fill:#0000ff;stroke:#000000;" x="138.281590504" xlink:href="#md49b6866d2" y="107.383884094"/>
     <use style="fill:#0000ff;stroke:#000000;" x="128.23868018" xlink:href="#md49b6866d2" y="130.026637695"/>
     <use style="fill:#0000ff;stroke:#000000;" x="423.962361054" xlink:href="#md49b6866d2" y="110.538402222"/>
     <use style="fill:#0000ff;stroke:#000000;" x="386.692396439" xlink:href="#md49b6866d2" y="82.2356296997"/>
     <use style="fill:#0000ff;stroke:#000000;" x="357.856439961" xlink:href="#md49b6866d2" y="71.9003101807"/>
     <use style="fill:#0000ff;stroke:#000000;" x="335.112281587" xlink:href="#md49b6866d2" y="82.4968296509"/>
     <use style="fill:#0000ff;stroke:#000000;" x="312.323211012" xlink:href="#md49b6866d2" y="57.8061558228"/>
     <use style="fill:#0000ff;stroke:#000000;" x="289.499294762" xlink:href="#md49b6866d2" y="62.936633728"/>
     <use style="fill:#0000ff;stroke:#000000;" x="266.661440244" xlink:href="#md49b6866d2" y="58.2894855957"/>
     <use style="fill:#0000ff;stroke:#000000;" x="243.828618989" xlink:href="#md49b6866d2" y="56.4325214844"/>
     <use style="fill:#0000ff;stroke:#000000;" x="220.982633813" xlink:href="#md49b6866d2" y="54.1075397949"/>
     <use style="fill:#0000ff;stroke:#000000;" x="198.077023818" xlink:href="#md49b6866d2" y="58.4134937744"/>
     <use style="fill:#0000ff;stroke:#000000;" x="175.114886397" xlink:href="#md49b6866d2" y="68.2856022339"/>
     <use style="fill:#0000ff;stroke:#000000;" x="152.471780477" xlink:href="#md49b6866d2" y="82.087932251"/>
     <use style="fill:#0000ff;stroke:#000000;" x="141.69091622" xlink:href="#md49b6866d2" y="96.9557987671"/>
     <use style="fill:#0000ff;stroke:#000000;" x="135.906534392" xlink:href="#md49b6866d2" y="115.040393494"/>
     <use style="fill:#0000ff;stroke:#000000;" x="435.152144937" xlink:href="#md49b6866d2" y="129.385104797"/>
     <use style="fill:#0000ff;stroke:#000000;" x="405.245651929" xlink:href="#md49b6866d2" y="97.956241272"/>
     <use style="fill:#0000ff;stroke:#000000;" x="382.552600543" xlink:href="#md49b6866d2" y="64.432765625"/>
     <use style="fill:#0000ff;stroke:#000000;" x="359.896330702" xlink:href="#md49b6866d2" y="68.1474491577"/>
     <use style="fill:#0000ff;stroke:#000000;" x="337.224573894" xlink:href="#md49b6866d2" y="72.6429172974"/>
     <use style="fill:#0000ff;stroke:#000000;" x="314.536168598" xlink:href="#md49b6866d2" y="68.8586765747"/>
     <use style="fill:#0000ff;stroke:#000000;" x="291.827630246" xlink:href="#md49b6866d2" y="59.7766224365"/>
     <use style="fill:#0000ff;stroke:#000000;" x="269.113671456" xlink:href="#md49b6866d2" y="54.2844196777"/>
     <use style="fill:#0000ff;stroke:#000000;" x="246.364479819" xlink:href="#md49b6866d2" y="51.9684330444"/>
     <use style="fill:#0000ff;stroke:#000000;" x="223.589734687" xlink:href="#md49b6866d2" y="61.6727253418"/>
     <use style="fill:#0000ff;stroke:#000000;" x="200.935013542" xlink:href="#md49b6866d2" y="73.8181797485"/>
     <use style="fill:#0000ff;stroke:#000000;" x="178.521889068" xlink:href="#md49b6866d2" y="77.5417210083"/>
     <use style="fill:#0000ff;stroke:#000000;" x="156.328679512" xlink:href="#md49b6866d2" y="84.7445637207"/>
     <use style="fill:#0000ff;stroke:#000000;" x="134.367387273" xlink:href="#md49b6866d2" y="101.74961438"/>
     <use style="fill:#0000ff;stroke:#000000;" x="431.236522875" xlink:href="#md49b6866d2" y="91.7269932251"/>
     <use style="fill:#0000ff;stroke:#000000;" x="408.832303406" xlink:href="#md49b6866d2" y="91.8752399902"/>
     <use style="fill:#0000ff;stroke:#000000;" x="386.471060269" xlink:href="#md49b6866d2" y="88.5768696289"/>
     <use style="fill:#0000ff;stroke:#000000;" x="363.854282191" xlink:href="#md49b6866d2" y="93.7925602417"/>
     <use style="fill:#0000ff;stroke:#000000;" x="341.14303362" xlink:href="#md49b6866d2" y="91.1058536987"/>
     <use style="fill:#0000ff;stroke:#000000;" x="318.352027174" xlink:href="#md49b6866d2" y="63.2188450317"/>
     <use style="fill:#0000ff;stroke:#000000;" x="295.542049194" xlink:href="#md49b6866d2" y="61.8802982788"/>
     <use style="fill:#0000ff;stroke:#000000;" x="272.708840765" xlink:href="#md49b6866d2" y="65.8429295044"/>
     <use style="fill:#0000ff;stroke:#000000;" x="249.847755798" xlink:href="#md49b6866d2" y="60.4548908691"/>
     <use style="fill:#0000ff;stroke:#000000;" x="226.969247993" xlink:href="#md49b6866d2" y="53.1756245117"/>
     <use style="fill:#0000ff;stroke:#000000;" x="277.756073663" xlink:href="#md49b6866d2" y="331.470267914"/>
     <use style="fill:#0000ff;stroke:#000000;" x="277.754549165" xlink:href="#md49b6866d2" y="305.922832153"/>
     <use style="fill:#0000ff;stroke:#000000;" x="272.888750111" xlink:href="#md49b6866d2" y="206.922523163"/>
     <use style="fill:#0000ff;stroke:#000000;" x="250.128027943" xlink:href="#md49b6866d2" y="108.130920074"/>
     <use style="fill:#0000ff;stroke:#000000;" x="227.248467509" xlink:href="#md49b6866d2" y="82.5582844238"/>
     <use style="fill:#0000ff;stroke:#000000;" x="204.38320832" xlink:href="#md49b6866d2" y="76.9974857788"/>
     <use style="fill:#0000ff;stroke:#000000;" x="277.756073663" xlink:href="#md49b6866d2" y="331.470267914"/>
     <use style="fill:#0000ff;stroke:#000000;" x="277.754549165" xlink:href="#md49b6866d2" y="305.922832153"/>
     <use style="fill:#0000ff;stroke:#000000;" x="272.888750111" xlink:href="#md49b6866d2" y="206.922523163"/>
     <use style="fill:#0000ff;stroke:#000000;" x="250.149322521" xlink:href="#md49b6866d2" y="109.045394562"/>
     <use style="fill:#0000ff;stroke:#000000;" x="227.366846006" xlink:href="#md49b6866d2" y="65.3811604004"/>
     <use style="fill:#0000ff;stroke:#000000;" x="204.582034346" xlink:href="#md49b6866d2" y="68.3004337769"/>
     <use style="fill:#0000ff;stroke:#000000;" x="195.018590812" xlink:href="#md49b6866d2" y="75.2652851562"/>
     <use style="fill:#0000ff;stroke:#000000;" x="277.756073663" xlink:href="#md49b6866d2" y="331.470267914"/>
     <use style="fill:#0000ff;stroke:#000000;" x="277.754549165" xlink:href="#md49b6866d2" y="305.922832153"/>
     <use style="fill:#0000ff;stroke:#000000;" x="272.888750111" xlink:href="#md49b6866d2" y="206.922523163"/>
     <use style="fill:#0000ff;stroke:#000000;" x="250.128027943" xlink:href="#md49b6866d2" y="108.130920074"/>
     <use style="fill:#0000ff;stroke:#000000;" x="227.248467509" xlink:href="#md49b6866d2" y="82.5582844238"/>
     <use style="fill:#0000ff;stroke:#000000;" x="204.38320832" xlink:href="#md49b6866d2" y="76.9974857788"/>
     <use style="fill:#0000ff;stroke:#000000;" x="277.756073663" xlink:href="#md49b6866d2" y="331.470267914"/>
     <use style="fill:#0000ff;stroke:#000000;" x="277.754549165" xlink:href="#md49b6866d2" y="305.922832153"/>
     <use style="fill:#0000ff;stroke:#000000;" x="272.888750111" xlink:href="#md49b6866d2" y="206.922523163"/>
     <use style="fill:#0000ff;stroke:#000000;" x="250.128027943" xlink:href="#md49b6866d2" y="108.130920074"/>
     <use style="fill:#0000ff;stroke:#000000;" x="227.248467509" xlink:href="#md49b6866d2" y="82.5582844238"/>
     <use style="fill:#0000ff;stroke:#000000;" x="204.38320832" xlink:href="#md49b6866d2" y="76.9974857788"/>
     <use style="fill:#0000ff;stroke:#000000;" x="277.756073663" xlink:href="#md49b6866d2" y="331.470267914"/>
     <use style="fill:#0000ff;stroke:#000000;" x="277.754549165" xlink:href="#md49b6866d2" y="305.922832153"/>
     <use style="fill:#0000ff;stroke:#000000;" x="272.888750111" xlink:href="#md49b6866d2" y="206.922523163"/>
     <use style="fill:#0000ff;stroke:#000000;" x="250.128027943" xlink:href="#md49b6866d2" y="108.130920074"/>
     <use style="fill:#0000ff;stroke:#000000;" x="227.248467509" xlink:href="#md49b6866d2" y="82.5582844238"/>
     <use style="fill:#0000ff;stroke:#000000;" x="204.38320832" xlink:href="#md49b6866d2" y="76.9974857788"/>
     <use style="fill:#0000ff;stroke:#000000;" x="277.756073663" xlink:href="#md49b6866d2" y="331.470267914"/>
     <use style="fill:#0000ff;stroke:#000000;" x="277.754549165" xlink:href="#md49b6866d2" y="305.922832153"/>
     <use style="fill:#0000ff;stroke:#000000;" x="272.888750111" xlink:href="#md49b6866d2" y="206.922523163"/>
     <use style="fill:#0000ff;stroke:#000000;" x="250.128027943" xlink:href="#md49b6866d2" y="108.130920074"/>
     <use style="fill:#0000ff;stroke:#000000;" x="227.248467509" xlink:href="#md49b6866d2" y="82.5582844238"/>
     <use style="fill:#0000ff;stroke:#000000;" x="204.38320832" xlink:href="#md49b6866d2" y="76.9974857788"/>
    </g>
   </g>
   <g id="patch_3">
    <path d="M 54.5325 23.14175 
L 500.9325 23.14175 
" style="fill:none;stroke:#000000;stroke-linecap:square;stroke-linejoin:miter;"/>
   </g>
   <g id="patch_4">
    <path d="M 54.5325 368.74175 
L 54.5325 23.14175 
" style="fill:none;stroke:#000000;stroke-linecap:square;stroke-linejoin:miter;"/>
   </g>
   <g id="patch_5">
    <path d="M 54.5325 368.74175 
L 500.9325 368.74175 
" style="fill:none;stroke:#000000;stroke-linecap:square;stroke-linejoin:miter;"/>
   </g>
   <g id="patch_6">
    <path d="M 500.9325 368.74175 
L 500.9325 23.14175 
" style="fill:none;stroke:#000000;stroke-linecap:square;stroke-linejoin:miter;"/>
   </g>
   <g id="matplotlib.axis_1">
    <g id="xtick_1">
     <g id="line2d_1">
      <defs>
       <path d="M 0 0 
L 0 -4 
" id="mc2a9b386ce" style="stroke:#000000;stroke-width:0.5;"/>
      </defs>
      <g>
       <use style="stroke:#000000;stroke-width:0.5;" x="54.5325" xlink:href="#mc2a9b386ce" y="368.74175"/>
      </g>
     </g>
     <g id="line2d_2">
      <defs>
       <path d="M 0 0 
L 0 4 
" id="m3dcc3dd3e3" style="stroke:#000000;stroke-width:0.5;"/>
      </defs>
      <g>
       <use style="stroke:#000000;stroke-width:0.5;" x="54.5325" xlink:href="#m3dcc3dd3e3" y="23.14175"/>
      </g>
     </g>
     <g id="text_1">
      <!-- −0.2 -->
      <defs>
       <path d="M 19.1875 8.296875 
L 53.609375 8.296875 
L 53.609375 0 
L 7.328125 0 
L 7.328125 8.296875 
Q 12.9375 14.109375 22.625 23.890625 
Q 32.328125 33.6875 34.8125 36.53125 
Q 39.546875 41.84375 41.421875 45.53125 
Q 43.3125 49.21875 43.3125 52.78125 
Q 43.3125 58.59375 39.234375 62.25 
Q 35.15625 65.921875 28.609375 65.921875 
Q 23.96875 65.921875 18.8125 64.3125 
Q 13.671875 62.703125 7.8125 59.421875 
L 7.8125 69.390625 
Q 13.765625 71.78125 18.9375 73 
Q 24.125 74.21875 28.421875 74.21875 
Q 39.75 74.21875 46.484375 68.546875 
Q 53.21875 62.890625 53.21875 53.421875 
Q 53.21875 48.921875 51.53125 44.890625 
Q 49.859375 40.875 45.40625 35.40625 
Q 44.1875 33.984375 37.640625 27.21875 
Q 31.109375 20.453125 19.1875 8.296875 
" id="BitstreamVeraSans-Roman-32"/>
       <path d="M 31.78125 66.40625 
Q 24.171875 66.40625 20.328125 58.90625 
Q 16.5 51.421875 16.5 36.375 
Q 16.5 21.390625 20.328125 13.890625 
Q 24.171875 6.390625 31.78125 6.390625 
Q 39.453125 6.390625 43.28125 13.890625 
Q 47.125 21.390625 47.125 36.375 
Q 47.125 51.421875 43.28125 58.90625 
Q 39.453125 66.40625 31.78125 66.40625 
M 31.78125 74.21875 
Q 44.046875 74.21875 50.515625 64.515625 
Q 56.984375 54.828125 56.984375 36.375 
Q 56.984375 17.96875 50.515625 8.265625 
Q 44.046875 -1.421875 31.78125 -1.421875 
Q 19.53125 -1.421875 13.0625 8.265625 
Q 6.59375 17.96875 6.59375 36.375 
Q 6.59375 54.828125 13.0625 64.515625 
Q 19.53125 74.21875 31.78125 74.21875 
" id="BitstreamVeraSans-Roman-30"/>
       <path d="M 10.59375 35.5 
L 73.1875 35.5 
L 73.1875 27.203125 
L 10.59375 27.203125 
z
" id="BitstreamVeraSans-Roman-2212"/>
       <path d="M 10.6875 12.40625 
L 21 12.40625 
L 21 0 
L 10.6875 0 
z
" id="BitstreamVeraSans-Roman-2e"/>
      </defs>
      <g transform="translate(39.9628125 381.859875)scale(0.12 -0.12)">
       <use xlink:href="#BitstreamVeraSans-Roman-2212"/>
       <use x="83.7890625" xlink:href="#BitstreamVeraSans-Roman-30"/>
       <use x="147.412109375" xlink:href="#BitstreamVeraSans-Roman-2e"/>
       <use x="179.19921875" xlink:href="#BitstreamVeraSans-Roman-32"/>
      </g>
     </g>
    </g>
    <g id="xtick_2">
     <g id="line2d_3">
      <g>
       <use style="stroke:#000000;stroke-width:0.5;" x="118.303928571" xlink:href="#mc2a9b386ce" y="368.74175"/>
      </g>
     </g>
     <g id="line2d_4">
      <g>
       <use style="stroke:#000000;stroke-width:0.5;" x="118.303928571" xlink:href="#m3dcc3dd3e3" y="23.14175"/>
      </g>
     </g>
     <g id="text_2">
      <!-- 0.0 -->
      <g transform="translate(108.762053571 381.859875)scale(0.12 -0.12)">
       <use xlink:href="#BitstreamVeraSans-Roman-30"/>
       <use x="63.623046875" xlink:href="#BitstreamVeraSans-Roman-2e"/>
       <use x="95.41015625" xlink:href="#BitstreamVeraSans-Roman-30"/>
      </g>
     </g>
    </g>
    <g id="xtick_3">
     <g id="line2d_5">
      <g>
       <use style="stroke:#000000;stroke-width:0.5;" x="182.075357143" xlink:href="#mc2a9b386ce" y="368.74175"/>
      </g>
     </g>
     <g id="line2d_6">
      <g>
       <use style="stroke:#000000;stroke-width:0.5;" x="182.075357143" xlink:href="#m3dcc3dd3e3" y="23.14175"/>
      </g>
     </g>
     <g id="text_3">
      <!-- 0.2 -->
      <g transform="translate(172.533482143 381.859875)scale(0.12 -0.12)">
       <use xlink:href="#BitstreamVeraSans-Roman-30"/>
       <use x="63.623046875" xlink:href="#BitstreamVeraSans-Roman-2e"/>
       <use x="95.41015625" xlink:href="#BitstreamVeraSans-Roman-32"/>
      </g>
     </g>
    </g>
    <g id="xtick_4">
     <g id="line2d_7">
      <g>
       <use style="stroke:#000000;stroke-width:0.5;" x="245.846785714" xlink:href="#mc2a9b386ce" y="368.74175"/>
      </g>
     </g>
     <g id="line2d_8">
      <g>
       <use style="stroke:#000000;stroke-width:0.5;" x="245.846785714" xlink:href="#m3dcc3dd3e3" y="23.14175"/>
      </g>
     </g>
     <g id="text_4">
      <!-- 0.4 -->
      <defs>
       <path d="M 37.796875 64.3125 
L 12.890625 25.390625 
L 37.796875 25.390625 
z
M 35.203125 72.90625 
L 47.609375 72.90625 
L 47.609375 25.390625 
L 58.015625 25.390625 
L 58.015625 17.1875 
L 47.609375 17.1875 
L 47.609375 0 
L 37.796875 0 
L 37.796875 17.1875 
L 4.890625 17.1875 
L 4.890625 26.703125 
z
" id="BitstreamVeraSans-Roman-34"/>
      </defs>
      <g transform="translate(236.304910714 381.859875)scale(0.12 -0.12)">
       <use xlink:href="#BitstreamVeraSans-Roman-30"/>
       <use x="63.623046875" xlink:href="#BitstreamVeraSans-Roman-2e"/>
       <use x="95.41015625" xlink:href="#BitstreamVeraSans-Roman-34"/>
      </g>
     </g>
    </g>
    <g id="xtick_5">
     <g id="line2d_9">
      <g>
       <use style="stroke:#000000;stroke-width:0.5;" x="309.618214286" xlink:href="#mc2a9b386ce" y="368.74175"/>
      </g>
     </g>
     <g id="line2d_10">
      <g>
       <use style="stroke:#000000;stroke-width:0.5;" x="309.618214286" xlink:href="#m3dcc3dd3e3" y="23.14175"/>
      </g>
     </g>
     <g id="text_5">
      <!-- 0.6 -->
      <defs>
       <path d="M 33.015625 40.375 
Q 26.375 40.375 22.484375 35.828125 
Q 18.609375 31.296875 18.609375 23.390625 
Q 18.609375 15.53125 22.484375 10.953125 
Q 26.375 6.390625 33.015625 6.390625 
Q 39.65625 6.390625 43.53125 10.953125 
Q 47.40625 15.53125 47.40625 23.390625 
Q 47.40625 31.296875 43.53125 35.828125 
Q 39.65625 40.375 33.015625 40.375 
M 52.59375 71.296875 
L 52.59375 62.3125 
Q 48.875 64.0625 45.09375 64.984375 
Q 41.3125 65.921875 37.59375 65.921875 
Q 27.828125 65.921875 22.671875 59.328125 
Q 17.53125 52.734375 16.796875 39.40625 
Q 19.671875 43.65625 24.015625 45.921875 
Q 28.375 48.1875 33.59375 48.1875 
Q 44.578125 48.1875 50.953125 41.515625 
Q 57.328125 34.859375 57.328125 23.390625 
Q 57.328125 12.15625 50.6875 5.359375 
Q 44.046875 -1.421875 33.015625 -1.421875 
Q 20.359375 -1.421875 13.671875 8.265625 
Q 6.984375 17.96875 6.984375 36.375 
Q 6.984375 53.65625 15.1875 63.9375 
Q 23.390625 74.21875 37.203125 74.21875 
Q 40.921875 74.21875 44.703125 73.484375 
Q 48.484375 72.75 52.59375 71.296875 
" id="BitstreamVeraSans-Roman-36"/>
      </defs>
      <g transform="translate(300.076339286 381.859875)scale(0.12 -0.12)">
       <use xlink:href="#BitstreamVeraSans-Roman-30"/>
       <use x="63.623046875" xlink:href="#BitstreamVeraSans-Roman-2e"/>
       <use x="95.41015625" xlink:href="#BitstreamVeraSans-Roman-36"/>
      </g>
     </g>
    </g>
    <g id="xtick_6">
     <g id="line2d_11">
      <g>
       <use style="stroke:#000000;stroke-width:0.5;" x="373.389642857" xlink:href="#mc2a9b386ce" y="368.74175"/>
      </g>
     </g>
     <g id="line2d_12">
      <g>
       <use style="stroke:#000000;stroke-width:0.5;" x="373.389642857" xlink:href="#m3dcc3dd3e3" y="23.14175"/>
      </g>
     </g>
     <g id="text_6">
      <!-- 0.8 -->
      <defs>
       <path d="M 31.78125 34.625 
Q 24.75 34.625 20.71875 30.859375 
Q 16.703125 27.09375 16.703125 20.515625 
Q 16.703125 13.921875 20.71875 10.15625 
Q 24.75 6.390625 31.78125 6.390625 
Q 38.8125 6.390625 42.859375 10.171875 
Q 46.921875 13.96875 46.921875 20.515625 
Q 46.921875 27.09375 42.890625 30.859375 
Q 38.875 34.625 31.78125 34.625 
M 21.921875 38.8125 
Q 15.578125 40.375 12.03125 44.71875 
Q 8.5 49.078125 8.5 55.328125 
Q 8.5 64.0625 14.71875 69.140625 
Q 20.953125 74.21875 31.78125 74.21875 
Q 42.671875 74.21875 48.875 69.140625 
Q 55.078125 64.0625 55.078125 55.328125 
Q 55.078125 49.078125 51.53125 44.71875 
Q 48 40.375 41.703125 38.8125 
Q 48.828125 37.15625 52.796875 32.3125 
Q 56.78125 27.484375 56.78125 20.515625 
Q 56.78125 9.90625 50.3125 4.234375 
Q 43.84375 -1.421875 31.78125 -1.421875 
Q 19.734375 -1.421875 13.25 4.234375 
Q 6.78125 9.90625 6.78125 20.515625 
Q 6.78125 27.484375 10.78125 32.3125 
Q 14.796875 37.15625 21.921875 38.8125 
M 18.3125 54.390625 
Q 18.3125 48.734375 21.84375 45.5625 
Q 25.390625 42.390625 31.78125 42.390625 
Q 38.140625 42.390625 41.71875 45.5625 
Q 45.3125 48.734375 45.3125 54.390625 
Q 45.3125 60.0625 41.71875 63.234375 
Q 38.140625 66.40625 31.78125 66.40625 
Q 25.390625 66.40625 21.84375 63.234375 
Q 18.3125 60.0625 18.3125 54.390625 
" id="BitstreamVeraSans-Roman-38"/>
      </defs>
      <g transform="translate(363.847767857 381.859875)scale(0.12 -0.12)">
       <use xlink:href="#BitstreamVeraSans-Roman-30"/>
       <use x="63.623046875" xlink:href="#BitstreamVeraSans-Roman-2e"/>
       <use x="95.41015625" xlink:href="#BitstreamVeraSans-Roman-38"/>
      </g>
     </g>
    </g>
    <g id="xtick_7">
     <g id="line2d_13">
      <g>
       <use style="stroke:#000000;stroke-width:0.5;" x="437.161071429" xlink:href="#mc2a9b386ce" y="368.74175"/>
      </g>
     </g>
     <g id="line2d_14">
      <g>
       <use style="stroke:#000000;stroke-width:0.5;" x="437.161071429" xlink:href="#m3dcc3dd3e3" y="23.14175"/>
      </g>
     </g>
     <g id="text_7">
      <!-- 1.0 -->
      <defs>
       <path d="M 12.40625 8.296875 
L 28.515625 8.296875 
L 28.515625 63.921875 
L 10.984375 60.40625 
L 10.984375 69.390625 
L 28.421875 72.90625 
L 38.28125 72.90625 
L 38.28125 8.296875 
L 54.390625 8.296875 
L 54.390625 0 
L 12.40625 0 
z
" id="BitstreamVeraSans-Roman-31"/>
      </defs>
      <g transform="translate(427.619196429 381.859875)scale(0.12 -0.12)">
       <use xlink:href="#BitstreamVeraSans-Roman-31"/>
       <use x="63.623046875" xlink:href="#BitstreamVeraSans-Roman-2e"/>
       <use x="95.41015625" xlink:href="#BitstreamVeraSans-Roman-30"/>
      </g>
     </g>
    </g>
    <g id="xtick_8">
     <g id="line2d_15">
      <g>
       <use style="stroke:#000000;stroke-width:0.5;" x="500.9325" xlink:href="#mc2a9b386ce" y="368.74175"/>
      </g>
     </g>
     <g id="line2d_16">
      <g>
       <use style="stroke:#000000;stroke-width:0.5;" x="500.9325" xlink:href="#m3dcc3dd3e3" y="23.14175"/>
      </g>
     </g>
     <g id="text_8">
      <!-- 1.2 -->
      <g transform="translate(491.390625 381.859875)scale(0.12 -0.12)">
       <use xlink:href="#BitstreamVeraSans-Roman-31"/>
       <use x="63.623046875" xlink:href="#BitstreamVeraSans-Roman-2e"/>
       <use x="95.41015625" xlink:href="#BitstreamVeraSans-Roman-32"/>
      </g>
     </g>
    </g>
    <g id="text_9">
     <!-- normalized angle -->
     <defs>
      <path d="M 30.609375 48.390625 
Q 23.390625 48.390625 19.1875 42.75 
Q 14.984375 37.109375 14.984375 27.296875 
Q 14.984375 17.484375 19.15625 11.84375 
Q 23.34375 6.203125 30.609375 6.203125 
Q 37.796875 6.203125 41.984375 11.859375 
Q 46.1875 17.53125 46.1875 27.296875 
Q 46.1875 37.015625 41.984375 42.703125 
Q 37.796875 48.390625 30.609375 48.390625 
M 30.609375 56 
Q 42.328125 56 49.015625 48.375 
Q 55.71875 40.765625 55.71875 27.296875 
Q 55.71875 13.875 49.015625 6.21875 
Q 42.328125 -1.421875 30.609375 -1.421875 
Q 18.84375 -1.421875 12.171875 6.21875 
Q 5.515625 13.875 5.515625 27.296875 
Q 5.515625 40.765625 12.171875 48.375 
Q 18.84375 56 30.609375 56 
" id="BitstreamVeraSans-Roman-6f"/>
      <path d="M 9.421875 75.984375 
L 18.40625 75.984375 
L 18.40625 0 
L 9.421875 0 
z
" id="BitstreamVeraSans-Roman-6c"/>
      <path d="M 54.890625 33.015625 
L 54.890625 0 
L 45.90625 0 
L 45.90625 32.71875 
Q 45.90625 40.484375 42.875 44.328125 
Q 39.84375 48.1875 33.796875 48.1875 
Q 26.515625 48.1875 22.3125 43.546875 
Q 18.109375 38.921875 18.109375 30.90625 
L 18.109375 0 
L 9.078125 0 
L 9.078125 54.6875 
L 18.109375 54.6875 
L 18.109375 46.1875 
Q 21.34375 51.125 25.703125 53.5625 
Q 30.078125 56 35.796875 56 
Q 45.21875 56 50.046875 50.171875 
Q 54.890625 44.34375 54.890625 33.015625 
" id="BitstreamVeraSans-Roman-6e"/>
      <path d="M 9.421875 54.6875 
L 18.40625 54.6875 
L 18.40625 0 
L 9.421875 0 
z
M 9.421875 75.984375 
L 18.40625 75.984375 
L 18.40625 64.59375 
L 9.421875 64.59375 
z
" id="BitstreamVeraSans-Roman-69"/>
      <path d="M 5.515625 54.6875 
L 48.1875 54.6875 
L 48.1875 46.484375 
L 14.40625 7.171875 
L 48.1875 7.171875 
L 48.1875 0 
L 4.296875 0 
L 4.296875 8.203125 
L 38.09375 47.515625 
L 5.515625 47.515625 
z
" id="BitstreamVeraSans-Roman-7a"/>
      <path d="M 45.40625 46.390625 
L 45.40625 75.984375 
L 54.390625 75.984375 
L 54.390625 0 
L 45.40625 0 
L 45.40625 8.203125 
Q 42.578125 3.328125 38.25 0.953125 
Q 33.9375 -1.421875 27.875 -1.421875 
Q 17.96875 -1.421875 11.734375 6.484375 
Q 5.515625 14.40625 5.515625 27.296875 
Q 5.515625 40.1875 11.734375 48.09375 
Q 17.96875 56 27.875 56 
Q 33.9375 56 38.25 53.625 
Q 42.578125 51.265625 45.40625 46.390625 
M 14.796875 27.296875 
Q 14.796875 17.390625 18.875 11.75 
Q 22.953125 6.109375 30.078125 6.109375 
Q 37.203125 6.109375 41.296875 11.75 
Q 45.40625 17.390625 45.40625 27.296875 
Q 45.40625 37.203125 41.296875 42.84375 
Q 37.203125 48.484375 30.078125 48.484375 
Q 22.953125 48.484375 18.875 42.84375 
Q 14.796875 37.203125 14.796875 27.296875 
" id="BitstreamVeraSans-Roman-64"/>
      <path d="M 56.203125 29.59375 
L 56.203125 25.203125 
L 14.890625 25.203125 
Q 15.484375 15.921875 20.484375 11.0625 
Q 25.484375 6.203125 34.421875 6.203125 
Q 39.59375 6.203125 44.453125 7.46875 
Q 49.3125 8.734375 54.109375 11.28125 
L 54.109375 2.78125 
Q 49.265625 0.734375 44.1875 -0.34375 
Q 39.109375 -1.421875 33.890625 -1.421875 
Q 20.796875 -1.421875 13.15625 6.1875 
Q 5.515625 13.8125 5.515625 26.8125 
Q 5.515625 40.234375 12.765625 48.109375 
Q 20.015625 56 32.328125 56 
Q 43.359375 56 49.78125 48.890625 
Q 56.203125 41.796875 56.203125 29.59375 
M 47.21875 32.234375 
Q 47.125 39.59375 43.09375 43.984375 
Q 39.0625 48.390625 32.421875 48.390625 
Q 24.90625 48.390625 20.390625 44.140625 
Q 15.875 39.890625 15.1875 32.171875 
z
" id="BitstreamVeraSans-Roman-65"/>
      <path id="BitstreamVeraSans-Roman-20"/>
      <path d="M 52 44.1875 
Q 55.375 50.25 60.0625 53.125 
Q 64.75 56 71.09375 56 
Q 79.640625 56 84.28125 50.015625 
Q 88.921875 44.046875 88.921875 33.015625 
L 88.921875 0 
L 79.890625 0 
L 79.890625 32.71875 
Q 79.890625 40.578125 77.09375 44.375 
Q 74.3125 48.1875 68.609375 48.1875 
Q 61.625 48.1875 57.5625 43.546875 
Q 53.515625 38.921875 53.515625 30.90625 
L 53.515625 0 
L 44.484375 0 
L 44.484375 32.71875 
Q 44.484375 40.625 41.703125 44.40625 
Q 38.921875 48.1875 33.109375 48.1875 
Q 26.21875 48.1875 22.15625 43.53125 
Q 18.109375 38.875 18.109375 30.90625 
L 18.109375 0 
L 9.078125 0 
L 9.078125 54.6875 
L 18.109375 54.6875 
L 18.109375 46.1875 
Q 21.1875 51.21875 25.484375 53.609375 
Q 29.78125 56 35.6875 56 
Q 41.65625 56 45.828125 52.96875 
Q 50 49.953125 52 44.1875 
" id="BitstreamVeraSans-Roman-6d"/>
      <path d="M 41.109375 46.296875 
Q 39.59375 47.171875 37.8125 47.578125 
Q 36.03125 48 33.890625 48 
Q 26.265625 48 22.1875 43.046875 
Q 18.109375 38.09375 18.109375 28.8125 
L 18.109375 0 
L 9.078125 0 
L 9.078125 54.6875 
L 18.109375 54.6875 
L 18.109375 46.1875 
Q 20.953125 51.171875 25.484375 53.578125 
Q 30.03125 56 36.53125 56 
Q 37.453125 56 38.578125 55.875 
Q 39.703125 55.765625 41.0625 55.515625 
z
" id="BitstreamVeraSans-Roman-72"/>
      <path d="M 34.28125 27.484375 
Q 23.390625 27.484375 19.1875 25 
Q 14.984375 22.515625 14.984375 16.5 
Q 14.984375 11.71875 18.140625 8.90625 
Q 21.296875 6.109375 26.703125 6.109375 
Q 34.1875 6.109375 38.703125 11.40625 
Q 43.21875 16.703125 43.21875 25.484375 
L 43.21875 27.484375 
z
M 52.203125 31.203125 
L 52.203125 0 
L 43.21875 0 
L 43.21875 8.296875 
Q 40.140625 3.328125 35.546875 0.953125 
Q 30.953125 -1.421875 24.3125 -1.421875 
Q 15.921875 -1.421875 10.953125 3.296875 
Q 6 8.015625 6 15.921875 
Q 6 25.140625 12.171875 29.828125 
Q 18.359375 34.515625 30.609375 34.515625 
L 43.21875 34.515625 
L 43.21875 35.40625 
Q 43.21875 41.609375 39.140625 45 
Q 35.0625 48.390625 27.6875 48.390625 
Q 23 48.390625 18.546875 47.265625 
Q 14.109375 46.140625 10.015625 43.890625 
L 10.015625 52.203125 
Q 14.9375 54.109375 19.578125 55.046875 
Q 24.21875 56 28.609375 56 
Q 40.484375 56 46.34375 49.84375 
Q 52.203125 43.703125 52.203125 31.203125 
" id="BitstreamVeraSans-Roman-61"/>
      <path d="M 45.40625 27.984375 
Q 45.40625 37.75 41.375 43.109375 
Q 37.359375 48.484375 30.078125 48.484375 
Q 22.859375 48.484375 18.828125 43.109375 
Q 14.796875 37.75 14.796875 27.984375 
Q 14.796875 18.265625 18.828125 12.890625 
Q 22.859375 7.515625 30.078125 7.515625 
Q 37.359375 7.515625 41.375 12.890625 
Q 45.40625 18.265625 45.40625 27.984375 
M 54.390625 6.78125 
Q 54.390625 -7.171875 48.1875 -13.984375 
Q 42 -20.796875 29.203125 -20.796875 
Q 24.46875 -20.796875 20.265625 -20.09375 
Q 16.0625 -19.390625 12.109375 -17.921875 
L 12.109375 -9.1875 
Q 16.0625 -11.328125 19.921875 -12.34375 
Q 23.78125 -13.375 27.78125 -13.375 
Q 36.625 -13.375 41.015625 -8.765625 
Q 45.40625 -4.15625 45.40625 5.171875 
L 45.40625 9.625 
Q 42.625 4.78125 38.28125 2.390625 
Q 33.9375 0 27.875 0 
Q 17.828125 0 11.671875 7.65625 
Q 5.515625 15.328125 5.515625 27.984375 
Q 5.515625 40.671875 11.671875 48.328125 
Q 17.828125 56 27.875 56 
Q 33.9375 56 38.28125 53.609375 
Q 42.625 51.21875 45.40625 46.390625 
L 45.40625 54.6875 
L 54.390625 54.6875 
z
" id="BitstreamVeraSans-Roman-67"/>
     </defs>
     <g transform="translate(225.7340625 398.473625)scale(0.12 -0.12)">
      <use xlink:href="#BitstreamVeraSans-Roman-6e"/>
      <use x="63.37890625" xlink:href="#BitstreamVeraSans-Roman-6f"/>
      <use x="124.560546875" xlink:href="#BitstreamVeraSans-Roman-72"/>
      <use x="165.658203125" xlink:href="#BitstreamVeraSans-Roman-6d"/>
      <use x="263.0703125" xlink:href="#BitstreamVeraSans-Roman-61"/>
      <use x="324.349609375" xlink:href="#BitstreamVeraSans-Roman-6c"/>
      <use x="352.1328125" xlink:href="#BitstreamVeraSans-Roman-69"/>
      <use x="379.916015625" xlink:href="#BitstreamVeraSans-Roman-7a"/>
      <use x="432.40625" xlink:href="#BitstreamVeraSans-Roman-65"/>
      <use x="493.9296875" xlink:href="#BitstreamVeraSans-Roman-64"/>
      <use x="557.40625" xlink:href="#BitstreamVeraSans-Roman-20"/>
      <use x="589.193359375" xlink:href="#BitstreamVeraSans-Roman-61"/>
      <use x="650.47265625" xlink:href="#BitstreamVeraSans-Roman-6e"/>
      <use x="713.8515625" xlink:href="#BitstreamVeraSans-Roman-67"/>
      <use x="777.328125" xlink:href="#BitstreamVeraSans-Roman-6c"/>
      <use x="805.111328125" xlink:href="#BitstreamVeraSans-Roman-65"/>
     </g>
    </g>
   </g>
   <g id="matplotlib.axis_2">
    <g id="ytick_1">
     <g id="line2d_17">
      <defs>
       <path d="M 0 0 
L 4 0 
" id="mfd696b5499" style="stroke:#000000;stroke-width:0.5;"/>
      </defs>
      <g>
       <use style="stroke:#000000;stroke-width:0.5;" x="54.5325" xlink:href="#mfd696b5499" y="368.74175"/>
      </g>
     </g>
     <g id="line2d_18">
      <defs>
       <path d="M 0 0 
L -4 0 
" id="ma5773b924a" style="stroke:#000000;stroke-width:0.5;"/>
      </defs>
      <g>
       <use style="stroke:#000000;stroke-width:0.5;" x="500.9325" xlink:href="#ma5773b924a" y="368.74175"/>
      </g>
     </g>
     <g id="text_10">
      <!-- 0.20 -->
      <g transform="translate(23.81375 372.053)scale(0.12 -0.12)">
       <use xlink:href="#BitstreamVeraSans-Roman-30"/>
       <use x="63.623046875" xlink:href="#BitstreamVeraSans-Roman-2e"/>
       <use x="95.41015625" xlink:href="#BitstreamVeraSans-Roman-32"/>
       <use x="159.033203125" xlink:href="#BitstreamVeraSans-Roman-30"/>
      </g>
     </g>
    </g>
    <g id="ytick_2">
     <g id="line2d_19">
      <g>
       <use style="stroke:#000000;stroke-width:0.5;" x="54.5325" xlink:href="#mfd696b5499" y="311.14175"/>
      </g>
     </g>
     <g id="line2d_20">
      <g>
       <use style="stroke:#000000;stroke-width:0.5;" x="500.9325" xlink:href="#ma5773b924a" y="311.14175"/>
      </g>
     </g>
     <g id="text_11">
      <!-- 0.25 -->
      <defs>
       <path d="M 10.796875 72.90625 
L 49.515625 72.90625 
L 49.515625 64.59375 
L 19.828125 64.59375 
L 19.828125 46.734375 
Q 21.96875 47.46875 24.109375 47.828125 
Q 26.265625 48.1875 28.421875 48.1875 
Q 40.625 48.1875 47.75 41.5 
Q 54.890625 34.8125 54.890625 23.390625 
Q 54.890625 11.625 47.5625 5.09375 
Q 40.234375 -1.421875 26.90625 -1.421875 
Q 22.3125 -1.421875 17.546875 -0.640625 
Q 12.796875 0.140625 7.71875 1.703125 
L 7.71875 11.625 
Q 12.109375 9.234375 16.796875 8.0625 
Q 21.484375 6.890625 26.703125 6.890625 
Q 35.15625 6.890625 40.078125 11.328125 
Q 45.015625 15.765625 45.015625 23.390625 
Q 45.015625 31 40.078125 35.4375 
Q 35.15625 39.890625 26.703125 39.890625 
Q 22.75 39.890625 18.8125 39.015625 
Q 14.890625 38.140625 10.796875 36.28125 
z
" id="BitstreamVeraSans-Roman-35"/>
      </defs>
      <g transform="translate(23.81375 314.453)scale(0.12 -0.12)">
       <use xlink:href="#BitstreamVeraSans-Roman-30"/>
       <use x="63.623046875" xlink:href="#BitstreamVeraSans-Roman-2e"/>
       <use x="95.41015625" xlink:href="#BitstreamVeraSans-Roman-32"/>
       <use x="159.033203125" xlink:href="#BitstreamVeraSans-Roman-35"/>
      </g>
     </g>
    </g>
    <g id="ytick_3">
     <g id="line2d_21">
      <g>
       <use style="stroke:#000000;stroke-width:0.5;" x="54.5325" xlink:href="#mfd696b5499" y="253.54175"/>
      </g>
     </g>
     <g id="line2d_22">
      <g>
       <use style="stroke:#000000;stroke-width:0.5;" x="500.9325" xlink:href="#ma5773b924a" y="253.54175"/>
      </g>
     </g>
     <g id="text_12">
      <!-- 0.30 -->
      <defs>
       <path d="M 40.578125 39.3125 
Q 47.65625 37.796875 51.625 33 
Q 55.609375 28.21875 55.609375 21.1875 
Q 55.609375 10.40625 48.1875 4.484375 
Q 40.765625 -1.421875 27.09375 -1.421875 
Q 22.515625 -1.421875 17.65625 -0.515625 
Q 12.796875 0.390625 7.625 2.203125 
L 7.625 11.71875 
Q 11.71875 9.328125 16.59375 8.109375 
Q 21.484375 6.890625 26.8125 6.890625 
Q 36.078125 6.890625 40.9375 10.546875 
Q 45.796875 14.203125 45.796875 21.1875 
Q 45.796875 27.640625 41.28125 31.265625 
Q 36.765625 34.90625 28.71875 34.90625 
L 20.21875 34.90625 
L 20.21875 43.015625 
L 29.109375 43.015625 
Q 36.375 43.015625 40.234375 45.921875 
Q 44.09375 48.828125 44.09375 54.296875 
Q 44.09375 59.90625 40.109375 62.90625 
Q 36.140625 65.921875 28.71875 65.921875 
Q 24.65625 65.921875 20.015625 65.03125 
Q 15.375 64.15625 9.8125 62.3125 
L 9.8125 71.09375 
Q 15.4375 72.65625 20.34375 73.4375 
Q 25.25 74.21875 29.59375 74.21875 
Q 40.828125 74.21875 47.359375 69.109375 
Q 53.90625 64.015625 53.90625 55.328125 
Q 53.90625 49.265625 50.4375 45.09375 
Q 46.96875 40.921875 40.578125 39.3125 
" id="BitstreamVeraSans-Roman-33"/>
      </defs>
      <g transform="translate(23.81375 256.853)scale(0.12 -0.12)">
       <use xlink:href="#BitstreamVeraSans-Roman-30"/>
       <use x="63.623046875" xlink:href="#BitstreamVeraSans-Roman-2e"/>
       <use x="95.41015625" xlink:href="#BitstreamVeraSans-Roman-33"/>
       <use x="159.033203125" xlink:href="#BitstreamVeraSans-Roman-30"/>
      </g>
     </g>
    </g>
    <g id="ytick_4">
     <g id="line2d_23">
      <g>
       <use style="stroke:#000000;stroke-width:0.5;" x="54.5325" xlink:href="#mfd696b5499" y="195.94175"/>
      </g>
     </g>
     <g id="line2d_24">
      <g>
       <use style="stroke:#000000;stroke-width:0.5;" x="500.9325" xlink:href="#ma5773b924a" y="195.94175"/>
      </g>
     </g>
     <g id="text_13">
      <!-- 0.35 -->
      <g transform="translate(23.81375 199.253)scale(0.12 -0.12)">
       <use xlink:href="#BitstreamVeraSans-Roman-30"/>
       <use x="63.623046875" xlink:href="#BitstreamVeraSans-Roman-2e"/>
       <use x="95.41015625" xlink:href="#BitstreamVeraSans-Roman-33"/>
       <use x="159.033203125" xlink:href="#BitstreamVeraSans-Roman-35"/>
      </g>
     </g>
    </g>
    <g id="ytick_5">
     <g id="line2d_25">
      <g>
       <use style="stroke:#000000;stroke-width:0.5;" x="54.5325" xlink:href="#mfd696b5499" y="138.34175"/>
      </g>
     </g>
     <g id="line2d_26">
      <g>
       <use style="stroke:#000000;stroke-width:0.5;" x="500.9325" xlink:href="#ma5773b924a" y="138.34175"/>
      </g>
     </g>
     <g id="text_14">
      <!-- 0.40 -->
      <g transform="translate(23.81375 141.653)scale(0.12 -0.12)">
       <use xlink:href="#BitstreamVeraSans-Roman-30"/>
       <use x="63.623046875" xlink:href="#BitstreamVeraSans-Roman-2e"/>
       <use x="95.41015625" xlink:href="#BitstreamVeraSans-Roman-34"/>
       <use x="159.033203125" xlink:href="#BitstreamVeraSans-Roman-30"/>
      </g>
     </g>
    </g>
    <g id="ytick_6">
     <g id="line2d_27">
      <g>
       <use style="stroke:#000000;stroke-width:0.5;" x="54.5325" xlink:href="#mfd696b5499" y="80.74175"/>
      </g>
     </g>
     <g id="line2d_28">
      <g>
       <use style="stroke:#000000;stroke-width:0.5;" x="500.9325" xlink:href="#ma5773b924a" y="80.74175"/>
      </g>
     </g>
     <g id="text_15">
      <!-- 0.45 -->
      <g transform="translate(23.81375 84.053)scale(0.12 -0.12)">
       <use xlink:href="#BitstreamVeraSans-Roman-30"/>
       <use x="63.623046875" xlink:href="#BitstreamVeraSans-Roman-2e"/>
       <use x="95.41015625" xlink:href="#BitstreamVeraSans-Roman-34"/>
       <use x="159.033203125" xlink:href="#BitstreamVeraSans-Roman-35"/>
      </g>
     </g>
    </g>
    <g id="ytick_7">
     <g id="line2d_29">
      <g>
       <use style="stroke:#000000;stroke-width:0.5;" x="54.5325" xlink:href="#mfd696b5499" y="23.14175"/>
      </g>
     </g>
     <g id="line2d_30">
      <g>
       <use style="stroke:#000000;stroke-width:0.5;" x="500.9325" xlink:href="#ma5773b924a" y="23.14175"/>
      </g>
     </g>
     <g id="text_16">
      <!-- 0.50 -->
      <g transform="translate(23.81375 26.453)scale(0.12 -0.12)">
       <use xlink:href="#BitstreamVeraSans-Roman-30"/>
       <use x="63.623046875" xlink:href="#BitstreamVeraSans-Roman-2e"/>
       <use x="95.41015625" xlink:href="#BitstreamVeraSans-Roman-35"/>
       <use x="159.033203125" xlink:href="#BitstreamVeraSans-Roman-30"/>
      </g>
     </g>
    </g>
    <g id="text_17">
     <!-- max Q-value -->
     <defs>
      <path d="M 4.890625 31.390625 
L 31.203125 31.390625 
L 31.203125 23.390625 
L 4.890625 23.390625 
z
" id="BitstreamVeraSans-Roman-2d"/>
      <path d="M 2.984375 54.6875 
L 12.5 54.6875 
L 29.59375 8.796875 
L 46.6875 54.6875 
L 56.203125 54.6875 
L 35.6875 0 
L 23.484375 0 
z
" id="BitstreamVeraSans-Roman-76"/>
      <path d="M 54.890625 54.6875 
L 35.109375 28.078125 
L 55.90625 0 
L 45.3125 0 
L 29.390625 21.484375 
L 13.484375 0 
L 2.875 0 
L 24.125 28.609375 
L 4.6875 54.6875 
L 15.28125 54.6875 
L 29.78125 35.203125 
L 44.28125 54.6875 
z
" id="BitstreamVeraSans-Roman-78"/>
      <path d="M 39.40625 66.21875 
Q 28.65625 66.21875 22.328125 58.203125 
Q 16.015625 50.203125 16.015625 36.375 
Q 16.015625 22.609375 22.328125 14.59375 
Q 28.65625 6.59375 39.40625 6.59375 
Q 50.140625 6.59375 56.421875 14.59375 
Q 62.703125 22.609375 62.703125 36.375 
Q 62.703125 50.203125 56.421875 58.203125 
Q 50.140625 66.21875 39.40625 66.21875 
M 53.21875 1.3125 
L 66.21875 -12.890625 
L 54.296875 -12.890625 
L 43.5 -1.21875 
Q 41.890625 -1.3125 41.03125 -1.359375 
Q 40.1875 -1.421875 39.40625 -1.421875 
Q 24.03125 -1.421875 14.8125 8.859375 
Q 5.609375 19.140625 5.609375 36.375 
Q 5.609375 53.65625 14.8125 63.9375 
Q 24.03125 74.21875 39.40625 74.21875 
Q 54.734375 74.21875 63.90625 63.9375 
Q 73.09375 53.65625 73.09375 36.375 
Q 73.09375 23.6875 67.984375 14.640625 
Q 62.890625 5.609375 53.21875 1.3125 
" id="BitstreamVeraSans-Roman-51"/>
      <path d="M 8.5 21.578125 
L 8.5 54.6875 
L 17.484375 54.6875 
L 17.484375 21.921875 
Q 17.484375 14.15625 20.5 10.265625 
Q 23.53125 6.390625 29.59375 6.390625 
Q 36.859375 6.390625 41.078125 11.03125 
Q 45.3125 15.671875 45.3125 23.6875 
L 45.3125 54.6875 
L 54.296875 54.6875 
L 54.296875 0 
L 45.3125 0 
L 45.3125 8.40625 
Q 42.046875 3.421875 37.71875 1 
Q 33.40625 -1.421875 27.6875 -1.421875 
Q 18.265625 -1.421875 13.375 4.4375 
Q 8.5 10.296875 8.5 21.578125 
" id="BitstreamVeraSans-Roman-75"/>
     </defs>
     <g transform="translate(16.318125 234.1983125)rotate(-90.0)scale(0.12 -0.12)">
      <use xlink:href="#BitstreamVeraSans-Roman-6d"/>
      <use x="97.412109375" xlink:href="#BitstreamVeraSans-Roman-61"/>
      <use x="158.69140625" xlink:href="#BitstreamVeraSans-Roman-78"/>
      <use x="217.87109375" xlink:href="#BitstreamVeraSans-Roman-20"/>
      <use x="249.658203125" xlink:href="#BitstreamVeraSans-Roman-51"/>
      <use x="328.400390625" xlink:href="#BitstreamVeraSans-Roman-2d"/>
      <use x="364.453125" xlink:href="#BitstreamVeraSans-Roman-76"/>
      <use x="423.6328125" xlink:href="#BitstreamVeraSans-Roman-61"/>
      <use x="484.912109375" xlink:href="#BitstreamVeraSans-Roman-6c"/>
      <use x="512.6953125" xlink:href="#BitstreamVeraSans-Roman-75"/>
      <use x="576.07421875" xlink:href="#BitstreamVeraSans-Roman-65"/>
     </g>
    </g>
   </g>
   <g id="text_18">
    <!-- Max Q-values for angles observed, joint5 -->
    <defs>
     <path d="M 48.6875 27.296875 
Q 48.6875 37.203125 44.609375 42.84375 
Q 40.53125 48.484375 33.40625 48.484375 
Q 26.265625 48.484375 22.1875 42.84375 
Q 18.109375 37.203125 18.109375 27.296875 
Q 18.109375 17.390625 22.1875 11.75 
Q 26.265625 6.109375 33.40625 6.109375 
Q 40.53125 6.109375 44.609375 11.75 
Q 48.6875 17.390625 48.6875 27.296875 
M 18.109375 46.390625 
Q 20.953125 51.265625 25.265625 53.625 
Q 29.59375 56 35.59375 56 
Q 45.5625 56 51.78125 48.09375 
Q 58.015625 40.1875 58.015625 27.296875 
Q 58.015625 14.40625 51.78125 6.484375 
Q 45.5625 -1.421875 35.59375 -1.421875 
Q 29.59375 -1.421875 25.265625 0.953125 
Q 20.953125 3.328125 18.109375 8.203125 
L 18.109375 0 
L 9.078125 0 
L 9.078125 75.984375 
L 18.109375 75.984375 
z
" id="BitstreamVeraSans-Roman-62"/>
     <path d="M 18.3125 70.21875 
L 18.3125 54.6875 
L 36.8125 54.6875 
L 36.8125 47.703125 
L 18.3125 47.703125 
L 18.3125 18.015625 
Q 18.3125 11.328125 20.140625 9.421875 
Q 21.96875 7.515625 27.59375 7.515625 
L 36.8125 7.515625 
L 36.8125 0 
L 27.59375 0 
Q 17.1875 0 13.234375 3.875 
Q 9.28125 7.765625 9.28125 18.015625 
L 9.28125 47.703125 
L 2.6875 47.703125 
L 2.6875 54.6875 
L 9.28125 54.6875 
L 9.28125 70.21875 
z
" id="BitstreamVeraSans-Roman-74"/>
     <path d="M 9.421875 54.6875 
L 18.40625 54.6875 
L 18.40625 -0.984375 
Q 18.40625 -11.421875 14.421875 -16.109375 
Q 10.453125 -20.796875 1.609375 -20.796875 
L -1.8125 -20.796875 
L -1.8125 -13.1875 
L 0.59375 -13.1875 
Q 5.71875 -13.1875 7.5625 -10.8125 
Q 9.421875 -8.453125 9.421875 -0.984375 
z
M 9.421875 75.984375 
L 18.40625 75.984375 
L 18.40625 64.59375 
L 9.421875 64.59375 
z
" id="BitstreamVeraSans-Roman-6a"/>
     <path d="M 9.8125 72.90625 
L 24.515625 72.90625 
L 43.109375 23.296875 
L 61.8125 72.90625 
L 76.515625 72.90625 
L 76.515625 0 
L 66.890625 0 
L 66.890625 64.015625 
L 48.09375 14.015625 
L 38.1875 14.015625 
L 19.390625 64.015625 
L 19.390625 0 
L 9.8125 0 
z
" id="BitstreamVeraSans-Roman-4d"/>
     <path d="M 11.71875 12.40625 
L 22.015625 12.40625 
L 22.015625 4 
L 14.015625 -11.625 
L 7.71875 -11.625 
L 11.71875 4 
z
" id="BitstreamVeraSans-Roman-2c"/>
     <path d="M 44.28125 53.078125 
L 44.28125 44.578125 
Q 40.484375 46.53125 36.375 47.5 
Q 32.28125 48.484375 27.875 48.484375 
Q 21.1875 48.484375 17.84375 46.4375 
Q 14.5 44.390625 14.5 40.28125 
Q 14.5 37.15625 16.890625 35.375 
Q 19.28125 33.59375 26.515625 31.984375 
L 29.59375 31.296875 
Q 39.15625 29.25 43.1875 25.515625 
Q 47.21875 21.78125 47.21875 15.09375 
Q 47.21875 7.46875 41.1875 3.015625 
Q 35.15625 -1.421875 24.609375 -1.421875 
Q 20.21875 -1.421875 15.453125 -0.5625 
Q 10.6875 0.296875 5.421875 2 
L 5.421875 11.28125 
Q 10.40625 8.6875 15.234375 7.390625 
Q 20.0625 6.109375 24.8125 6.109375 
Q 31.15625 6.109375 34.5625 8.28125 
Q 37.984375 10.453125 37.984375 14.40625 
Q 37.984375 18.0625 35.515625 20.015625 
Q 33.0625 21.96875 24.703125 23.78125 
L 21.578125 24.515625 
Q 13.234375 26.265625 9.515625 29.90625 
Q 5.8125 33.546875 5.8125 39.890625 
Q 5.8125 47.609375 11.28125 51.796875 
Q 16.75 56 26.8125 56 
Q 31.78125 56 36.171875 55.265625 
Q 40.578125 54.546875 44.28125 53.078125 
" id="BitstreamVeraSans-Roman-73"/>
     <path d="M 37.109375 75.984375 
L 37.109375 68.5 
L 28.515625 68.5 
Q 23.6875 68.5 21.796875 66.546875 
Q 19.921875 64.59375 19.921875 59.515625 
L 19.921875 54.6875 
L 34.71875 54.6875 
L 34.71875 47.703125 
L 19.921875 47.703125 
L 19.921875 0 
L 10.890625 0 
L 10.890625 47.703125 
L 2.296875 47.703125 
L 2.296875 54.6875 
L 10.890625 54.6875 
L 10.890625 58.5 
Q 10.890625 67.625 15.140625 71.796875 
Q 19.390625 75.984375 28.609375 75.984375 
z
" id="BitstreamVeraSans-Roman-66"/>
    </defs>
    <g transform="translate(130.05375 18.14175)scale(0.144 -0.144)">
     <use xlink:href="#BitstreamVeraSans-Roman-4d"/>
     <use x="86.279296875" xlink:href="#BitstreamVeraSans-Roman-61"/>
     <use x="147.55859375" xlink:href="#BitstreamVeraSans-Roman-78"/>
     <use x="206.73828125" xlink:href="#BitstreamVeraSans-Roman-20"/>
     <use x="238.525390625" xlink:href="#BitstreamVeraSans-Roman-51"/>
     <use x="317.267578125" xlink:href="#BitstreamVeraSans-Roman-2d"/>
     <use x="353.3203125" xlink:href="#BitstreamVeraSans-Roman-76"/>
     <use x="412.5" xlink:href="#BitstreamVeraSans-Roman-61"/>
     <use x="473.779296875" xlink:href="#BitstreamVeraSans-Roman-6c"/>
     <use x="501.5625" xlink:href="#BitstreamVeraSans-Roman-75"/>
     <use x="564.94140625" xlink:href="#BitstreamVeraSans-Roman-65"/>
     <use x="626.46484375" xlink:href="#BitstreamVeraSans-Roman-73"/>
     <use x="678.564453125" xlink:href="#BitstreamVeraSans-Roman-20"/>
     <use x="710.3515625" xlink:href="#BitstreamVeraSans-Roman-66"/>
     <use x="745.556640625" xlink:href="#BitstreamVeraSans-Roman-6f"/>
     <use x="806.73828125" xlink:href="#BitstreamVeraSans-Roman-72"/>
     <use x="847.8515625" xlink:href="#BitstreamVeraSans-Roman-20"/>
     <use x="879.638671875" xlink:href="#BitstreamVeraSans-Roman-61"/>
     <use x="940.91796875" xlink:href="#BitstreamVeraSans-Roman-6e"/>
     <use x="1004.296875" xlink:href="#BitstreamVeraSans-Roman-67"/>
     <use x="1067.7734375" xlink:href="#BitstreamVeraSans-Roman-6c"/>
     <use x="1095.556640625" xlink:href="#BitstreamVeraSans-Roman-65"/>
     <use x="1157.080078125" xlink:href="#BitstreamVeraSans-Roman-73"/>
     <use x="1209.1796875" xlink:href="#BitstreamVeraSans-Roman-20"/>
     <use x="1240.966796875" xlink:href="#BitstreamVeraSans-Roman-6f"/>
     <use x="1302.1484375" xlink:href="#BitstreamVeraSans-Roman-62"/>
     <use x="1365.625" xlink:href="#BitstreamVeraSans-Roman-73"/>
     <use x="1417.724609375" xlink:href="#BitstreamVeraSans-Roman-65"/>
     <use x="1479.248046875" xlink:href="#BitstreamVeraSans-Roman-72"/>
     <use x="1520.361328125" xlink:href="#BitstreamVeraSans-Roman-76"/>
     <use x="1579.541015625" xlink:href="#BitstreamVeraSans-Roman-65"/>
     <use x="1641.064453125" xlink:href="#BitstreamVeraSans-Roman-64"/>
     <use x="1704.541015625" xlink:href="#BitstreamVeraSans-Roman-2c"/>
     <use x="1736.328125" xlink:href="#BitstreamVeraSans-Roman-20"/>
     <use x="1768.115234375" xlink:href="#BitstreamVeraSans-Roman-6a"/>
     <use x="1795.8984375" xlink:href="#BitstreamVeraSans-Roman-6f"/>
     <use x="1857.080078125" xlink:href="#BitstreamVeraSans-Roman-69"/>
     <use x="1884.86328125" xlink:href="#BitstreamVeraSans-Roman-6e"/>
     <use x="1948.2421875" xlink:href="#BitstreamVeraSans-Roman-74"/>
     <use x="1987.451171875" xlink:href="#BitstreamVeraSans-Roman-35"/>
    </g>
   </g>
  </g>
 </g>
 <defs>
  <clipPath id="p5568664034">
   <rect height="345.6" width="446.4" x="54.5325" y="23.14175"/>
  </clipPath>
 </defs>
</svg>
