<?xml version="1.0" encoding="utf-8" standalone="no"?>
<!DOCTYPE svg PUBLIC "-//W3C//DTD SVG 1.1//EN"
  "http://www.w3.org/Graphics/SVG/1.1/DTD/svg11.dtd">
<!-- Created with matplotlib (http://matplotlib.org/) -->
<svg height="408pt" version="1.1" viewBox="0 0 515 408" width="515pt" xmlns="http://www.w3.org/2000/svg" xmlns:xlink="http://www.w3.org/1999/xlink">
 <defs>
  <style type="text/css">
*{stroke-linecap:butt;stroke-linejoin:round;stroke-miterlimit:100000;}
  </style>
 </defs>
 <g id="figure_1">
  <g id="patch_1">
   <path d="M 0 408.16925 
L 515.7675 408.16925 
L 515.7675 0 
L 0 0 
z
" style="fill:#ffffff;"/>
  </g>
  <g id="axes_1">
   <g id="patch_2">
    <path d="M 46.8975 368.74175 
L 493.2975 368.74175 
L 493.2975 23.14175 
L 46.8975 23.14175 
z
" style="fill:#ffffff;"/>
   </g>
   <g id="line2d_1">
    <path clip-path="url(#p413282396a)" d="M 46.8975 341.904008 
L 47.3439 345.728704 
L 47.7903 339.763343 
L 48.2367 342.883828 
L 48.6831 340.846531 
L 49.1295 351.232655 
L 49.5759 344.995571 
L 50.0223 341.707493 
L 50.4687 347.093213 
L 51.3615 350.003869 
L 51.8079 345.437438 
L 52.2543 343.729856 
L 52.7007 346.792996 
L 53.1471 341.412831 
L 53.5935 346.924727 
L 54.0399 344.480898 
L 54.4863 347.705118 
L 54.9327 342.462819 
L 55.8255 347.935619 
L 56.2719 341.969419 
L 56.7183 341.266565 
L 57.1647 350.61454 
L 57.6111 342.603659 
L 58.0575 340.678547 
L 58.5039 341.363217 
L 58.9503 342.463525 
L 59.8431 349.239123 
L 60.2895 340.35262 
L 60.7359 339.956946 
L 61.1823 347.788018 
L 62.0751 346.774557 
L 62.5215 344.363566 
L 62.9679 347.24028 
L 63.4143 345.644385 
L 63.8607 340.98397 
L 64.3071 341.533556 
L 65.1999 346.538393 
L 65.6463 347.351127 
L 66.0927 341.58305 
L 66.5391 341.532154 
L 66.9855 345.024804 
L 67.4319 349.809534 
L 67.8783 339.62694 
L 68.3247 345.539016 
L 68.7711 340.042171 
L 69.2175 346.572332 
L 69.6639 350.802234 
L 70.1103 345.884711 
L 70.5567 346.802064 
L 71.0031 342.384138 
L 71.4495 348.03701 
L 72.3423 340.880983 
L 72.7887 341.965033 
L 73.2351 345.582227 
L 73.6815 347.64544 
L 74.1279 346.445914 
L 74.5743 344.82644 
L 75.0207 342.305961 
L 75.4671 341.04403 
L 75.9135 345.869666 
L 76.3599 341.441354 
L 76.8063 345.200482 
L 77.2527 344.87915 
L 77.6991 345.976172 
L 78.1455 345.159314 
L 78.5919 347.010316 
L 79.0383 347.778891 
L 79.4847 344.943272 
L 79.9311 350.506031 
L 80.3775 342.455542 
L 80.8239 341.994209 
L 81.2703 344.013615 
L 81.7167 342.987799 
L 82.1631 349.209367 
L 82.6095 349.172001 
L 83.0559 345.572657 
L 83.5023 345.018673 
L 83.9487 345.827819 
L 84.3951 347.083808 
L 84.8415 344.160566 
L 85.2879 345.0805 
L 85.7343 340.118472 
L 86.1807 342.47657 
L 86.6271 346.483047 
L 87.0735 344.753907 
L 87.5199 341.140341 
L 87.9663 347.667193 
L 88.4127 346.376049 
L 88.8591 346.426182 
L 89.3055 351.006851 
L 89.7519 345.316405 
L 90.1983 345.259836 
L 90.6447 346.041602 
L 91.0911 342.931913 
L 91.5375 343.572398 
L 91.9839 341.939621 
L 92.4303 348.44547 
L 92.8767 341.933097 
L 93.3231 341.749111 
L 93.7695 346.642945 
L 94.2159 346.032343 
L 95.1087 348.590193 
L 95.5551 351.257461 
L 96.0015 345.81799 
L 96.4479 350.633978 
L 96.8943 351.582394 
L 97.3407 351.121475 
L 97.7871 346.669798 
L 98.2335 347.403679 
L 98.6799 351.659931 
L 99.1263 351.571438 
L 99.5727 352.606395 
L 100.0191 353.934126 
L 100.4655 351.207748 
L 100.9119 346.914107 
L 101.3583 350.155666 
L 101.8047 359.345084 
L 102.2511 352.628669 
L 102.6975 349.77457 
L 103.1439 348.836407 
L 103.5903 354.060682 
L 104.0367 351.688821 
L 104.4831 354.237058 
L 104.9295 352.965617 
L 105.3759 351.062811 
L 105.8223 351.357372 
L 106.2687 352.236321 
L 106.7151 350.934035 
L 107.1615 353.688401 
L 107.6079 351.412908 
L 108.0543 348.49271 
L 108.9471 352.204034 
L 109.3935 349.944501 
L 109.8399 349.07078 
L 110.2863 350.210196 
L 110.7327 347.652909 
L 111.1791 351.826641 
L 111.6255 350.481879 
L 112.0719 350.386641 
L 112.9647 348.571896 
L 113.8575 349.12133 
L 114.3039 350.33168 
L 115.1967 350.369669 
L 115.6431 344.288548 
L 116.0895 350.114721 
L 116.5359 347.071972 
L 116.9823 350.060146 
L 117.4287 347.630172 
L 117.8751 347.762893 
L 118.3215 348.363508 
L 118.7679 348.709688 
L 119.6607 345.717137 
L 120.1071 345.466129 
L 120.5535 346.875212 
L 120.9999 348.805292 
L 121.4463 347.417177 
L 121.8927 345.360081 
L 122.3391 344.150648 
L 122.7855 345.765437 
L 123.2319 346.224404 
L 123.6783 345.347251 
L 124.1247 344.207062 
L 124.5711 342.107821 
L 125.0175 343.083459 
L 125.4639 344.839463 
L 125.9103 345.423 
L 126.3567 344.03282 
L 126.8031 343.401379 
L 127.2495 343.19442 
L 127.6959 341.154146 
L 128.1423 343.193547 
L 128.5887 342.048041 
L 129.0351 342.150817 
L 129.4815 342.119014 
L 129.9279 342.290259 
L 130.3743 343.080734 
L 130.8207 340.928193 
L 131.2671 339.502156 
L 131.7135 337.152262 
L 132.1599 341.982437 
L 132.6063 339.830246 
L 133.4991 341.733623 
L 133.9455 339.357024 
L 134.3919 340.102794 
L 134.8383 338.949922 
L 135.2847 340.570338 
L 135.7311 339.500116 
L 136.1775 339.829003 
L 136.6239 340.339067 
L 137.0703 335.143559 
L 137.5167 334.363571 
L 137.9631 335.885791 
L 138.4095 338.566523 
L 138.8559 335.557106 
L 139.3023 338.5504 
L 139.7487 335.625709 
L 140.1951 335.80984 
L 140.6415 334.399026 
L 141.0879 335.669845 
L 141.9807 334.541752 
L 142.4271 335.842852 
L 142.8735 330.361998 
L 143.3199 333.626845 
L 143.7663 332.810902 
L 144.2127 332.490408 
L 144.6591 329.890233 
L 145.1055 332.338702 
L 145.5519 332.30057 
L 145.9983 331.833312 
L 146.4447 329.908128 
L 146.8911 327.481478 
L 147.3375 331.315284 
L 147.7839 330.253018 
L 148.2303 325.796126 
L 148.6767 340.029508 
L 149.1231 329.495919 
L 149.5695 327.645868 
L 150.0159 329.146841 
L 150.4623 329.548006 
L 150.9087 328.816421 
L 151.3551 329.994352 
L 151.8015 327.272985 
L 152.2479 327.305913 
L 152.6943 325.818502 
L 153.1407 324.821964 
L 153.5871 327.555084 
L 154.4799 321.297872 
L 154.9263 325.551373 
L 155.3727 325.94504 
L 155.8191 321.966966 
L 156.2655 323.789324 
L 156.7119 326.142478 
L 157.1583 319.538608 
L 157.6047 321.571219 
L 158.0511 322.716093 
L 158.4975 321.306172 
L 158.9439 323.466331 
L 159.3903 319.398797 
L 159.8367 321.412972 
L 160.2831 322.766708 
L 160.7295 318.491127 
L 161.1759 312.283361 
L 161.6223 319.322913 
L 162.0687 316.501185 
L 162.5151 320.071157 
L 162.9615 315.820892 
L 163.4079 315.801576 
L 163.8543 316.345392 
L 164.3007 318.760769 
L 164.7471 314.936272 
L 165.1935 318.397369 
L 165.6399 312.246469 
L 166.0863 310.444956 
L 166.5327 314.619864 
L 166.9791 314.186826 
L 167.4255 316.171614 
L 167.8719 309.805555 
L 168.3183 313.377601 
L 168.7647 308.962449 
L 169.2111 306.066256 
L 169.6575 310.681481 
L 170.1039 307.583925 
L 170.5503 312.976216 
L 170.9967 309.979533 
L 171.4431 303.701577 
L 171.8895 314.487617 
L 172.3359 310.816435 
L 172.7823 310.624451 
L 173.2287 303.25331 
L 173.6751 304.294893 
L 174.1215 303.317944 
L 175.0143 305.746308 
L 175.4607 309.610578 
L 175.9071 300.755368 
L 176.3535 306.605544 
L 176.7999 305.728273 
L 177.2463 301.438681 
L 177.6927 301.421843 
L 178.1391 298.271039 
L 178.5855 302.310872 
L 179.0319 300.441322 
L 179.4783 306.326202 
L 179.9247 302.925148 
L 180.3711 295.167142 
L 180.8175 296.873866 
L 181.2639 295.73829 
L 181.7103 296.714117 
L 182.1567 304.369648 
L 183.0495 299.291073 
L 183.4959 295.016523 
L 183.9423 293.048401 
L 184.8351 294.856463 
L 185.2815 295.19312 
L 185.7279 293.242723 
L 186.1743 296.022484 
L 186.6207 293.612675 
L 187.0671 290.181854 
L 187.5135 297.1979 
L 187.9599 295.86399 
L 188.4063 289.041227 
L 188.8527 288.729559 
L 189.2991 294.481448 
L 189.7455 285.302579 
L 190.1919 295.082548 
L 190.6383 296.245109 
L 191.0847 289.32894 
L 191.9775 281.465368 
L 192.4239 290.683059 
L 192.8703 294.685763 
L 193.3167 285.157771 
L 193.7631 290.207748 
L 194.2095 288.712047 
L 194.6559 289.213838 
L 195.1023 281.135776 
L 195.5487 287.977194 
L 195.9951 299.493555 
L 196.4415 289.899972 
L 196.8879 283.455603 
L 197.3343 275.235651 
L 197.7807 280.437112 
L 198.2271 298.111272 
L 198.6735 278.726898 
L 199.1199 279.026544 
L 199.5663 278.385875 
L 200.0127 291.27461 
L 200.4591 277.032905 
L 200.9055 280.011234 
L 201.3519 274.783538 
L 201.7983 273.990555 
L 202.2447 275.11878 
L 202.6911 277.131629 
L 203.1375 273.569707 
L 203.5839 280.420685 
L 204.0303 278.969608 
L 204.4767 283.861844 
L 204.9231 269.126934 
L 205.3695 272.511728 
L 205.8159 277.567113 
L 206.2623 271.839137 
L 206.7087 278.04143 
L 207.1551 268.857783 
L 207.6015 273.516577 
L 208.0479 257.562242 
L 208.9407 276.428843 
L 209.3871 266.584234 
L 209.8335 271.374063 
L 210.2799 270.551686 
L 210.7263 269.416667 
L 211.1727 268.607483 
L 211.6191 264.65081 
L 212.0655 267.388326 
L 212.5119 271.6356 
L 212.9583 268.851566 
L 213.4047 261.228546 
L 213.8511 261.795331 
L 214.2975 270.683833 
L 214.7439 266.840991 
L 215.1903 271.106638 
L 215.6367 262.771592 
L 216.5295 255.55023 
L 216.9759 260.650914 
L 217.4223 262.291929 
L 217.8687 255.473014 
L 218.3151 252.668847 
L 218.7615 256.462405 
L 219.2079 262.201626 
L 219.6543 255.692763 
L 220.1007 263.373331 
L 220.5471 249.597885 
L 220.9935 253.581976 
L 221.4399 262.099887 
L 221.8863 253.722035 
L 222.3327 254.694687 
L 222.7791 260.051793 
L 223.2255 252.948422 
L 223.6719 256.991393 
L 224.1183 254.623779 
L 224.5647 253.781492 
L 225.0111 250.064437 
L 225.4575 251.812557 
L 225.9039 254.378218 
L 226.3503 246.235026 
L 226.7967 248.367623 
L 227.2431 254.123471 
L 227.6895 255.376237 
L 228.1359 253.484547 
L 228.5823 245.800216 
L 229.0287 252.41467 
L 229.4751 247.394835 
L 229.9215 250.670704 
L 230.3679 235.687875 
L 230.8143 246.54077 
L 231.2607 239.203779 
L 231.7071 248.086237 
L 232.1535 241.252142 
L 232.5999 247.055001 
L 233.0463 242.589067 
L 233.9391 229.678611 
L 234.3855 237.675404 
L 234.8319 242.681765 
L 235.2783 245.503954 
L 235.7247 244.479085 
L 236.1711 238.473823 
L 236.6175 239.176167 
L 237.0639 246.149133 
L 237.5103 238.649913 
L 237.9567 241.583198 
L 238.4031 232.346523 
L 238.8495 228.285283 
L 239.2959 240.253752 
L 239.7423 243.071767 
L 240.1887 241.394659 
L 240.6351 237.328607 
L 241.0815 228.480322 
L 241.5279 237.962181 
L 241.9743 252.260874 
L 242.4207 235.140734 
L 242.8671 230.895147 
L 243.3135 229.760045 
L 243.7599 229.855872 
L 244.2063 232.558839 
L 244.6527 226.700377 
L 245.0991 232.674677 
L 245.5455 229.65253 
L 245.9919 224.022911 
L 246.4383 234.122665 
L 246.8847 228.819766 
L 247.3311 236.640536 
L 247.7775 250.018811 
L 248.2239 221.189425 
L 248.6703 225.080996 
L 249.1167 247.696113 
L 249.5631 220.785661 
L 250.0095 222.306554 
L 250.4559 224.364137 
L 250.9023 229.471044 
L 251.3487 231.621145 
L 251.7951 219.369145 
L 252.2415 229.5837 
L 252.6879 221.585195 
L 253.1343 224.6526 
L 253.5807 222.322757 
L 254.0271 221.757279 
L 254.4735 220.807247 
L 254.9199 225.416733 
L 255.3663 228.337842 
L 255.8127 219.186554 
L 256.2591 214.963853 
L 256.7055 214.867177 
L 257.1519 215.433272 
L 257.5983 212.53594 
L 258.0447 214.171423 
L 258.4911 212.548317 
L 258.9375 216.778389 
L 259.3839 217.126371 
L 259.8303 220.033203 
L 260.2767 215.169757 
L 260.7231 212.012151 
L 261.1695 219.017998 
L 261.6159 216.094557 
L 262.0623 217.438302 
L 262.5087 235.504832 
L 262.9551 221.03514 
L 263.4015 215.891658 
L 263.8479 214.777804 
L 264.2943 212.896693 
L 264.7407 200.198789 
L 265.1871 222.327546 
L 265.6335 214.099949 
L 266.0799 213.760937 
L 266.5263 208.024183 
L 266.9727 205.568323 
L 267.4191 217.810157 
L 267.8655 219.003421 
L 268.3119 215.054635 
L 268.7583 199.868552 
L 269.2047 209.417227 
L 269.6511 208.314156 
L 270.0975 211.689906 
L 270.5439 209.876369 
L 270.9903 218.103398 
L 271.4367 222.298737 
L 272.3295 190.255934 
L 272.7759 220.369149 
L 273.2223 206.935293 
L 273.6687 198.866173 
L 274.1151 198.457676 
L 274.5615 221.448256 
L 275.0079 203.465946 
L 275.9007 209.437357 
L 276.7935 200.213536 
L 277.2399 198.735536 
L 277.6863 197.885477 
L 278.1327 203.173171 
L 278.5791 200.696895 
L 279.0255 205.334694 
L 279.4719 194.194193 
L 279.9183 210.912536 
L 280.3647 202.638377 
L 280.8111 203.51389 
L 281.2575 206.031754 
L 281.7039 200.063729 
L 282.1503 197.232573 
L 282.5967 203.093151 
L 283.0431 198.708454 
L 283.4895 204.509469 
L 283.9359 196.470515 
L 284.3823 215.850323 
L 284.8287 199.504032 
L 285.7215 186.608943 
L 286.1679 193.86456 
L 286.6143 196.771388 
L 287.0607 208.267606 
L 287.5071 187.533508 
L 287.9535 194.011393 
L 288.3999 196.383628 
L 288.8463 194.073197 
L 289.2927 189.839001 
L 289.7391 197.648028 
L 290.1855 195.028562 
L 290.6319 195.984497 
L 291.5247 186.400572 
L 291.9711 182.352033 
L 292.4175 203.20639 
L 292.8639 187.915145 
L 293.3103 189.462247 
L 293.7567 188.46668 
L 294.2031 182.648407 
L 294.6495 187.49621 
L 295.0959 189.2309 
L 295.5423 179.401808 
L 295.9887 178.302475 
L 296.4351 179.664049 
L 296.8815 189.261389 
L 297.3279 177.847358 
L 297.7743 181.209023 
L 298.2207 182.916337 
L 298.6671 196.599143 
L 299.5599 183.132579 
L 300.0063 186.447421 
L 300.4527 187.970174 
L 300.8991 176.593477 
L 301.3455 193.485465 
L 301.7919 197.962354 
L 302.2383 185.808851 
L 303.1311 175.492021 
L 303.5775 182.545665 
L 304.0239 194.021947 
L 304.4703 182.230765 
L 305.3631 180.271073 
L 305.8095 169.954765 
L 306.2559 172.253676 
L 306.7023 173.250644 
L 307.1487 183.041108 
L 307.5951 163.65725 
L 308.0415 184.59572 
L 308.4879 181.551803 
L 308.9343 180.169777 
L 309.3807 179.546466 
L 309.8271 178.146646 
L 310.2735 181.670064 
L 310.7199 165.928299 
L 311.1663 173.924326 
L 311.6127 171.836534 
L 312.0591 164.432056 
L 312.5055 174.895556 
L 312.9519 170.37779 
L 313.3983 164.164594 
L 313.8447 174.512729 
L 314.2911 170.10864 
L 314.7375 173.5152 
L 315.1839 165.599324 
L 315.6303 164.524774 
L 316.0767 167.534889 
L 316.5231 178.793351 
L 316.9695 166.183083 
L 317.4159 187.624246 
L 317.8623 169.217729 
L 318.3087 170.09218 
L 318.7551 161.101497 
L 319.2015 163.13909 
L 319.6479 162.373469 
L 320.0943 163.093043 
L 320.5407 167.113917 
L 320.9871 162.959449 
L 321.4335 173.46397 
L 321.8799 166.226647 
L 322.3263 162.955057 
L 322.7727 158.736475 
L 323.2191 171.539145 
L 323.6655 160.414786 
L 324.1119 162.639614 
L 324.5583 159.413566 
L 325.0047 168.228875 
L 325.4511 156.830797 
L 325.8975 176.79696 
L 326.3439 161.513141 
L 326.7903 160.937096 
L 327.2367 163.273354 
L 327.6831 161.176136 
L 328.1295 161.840961 
L 328.5759 152.240258 
L 329.0223 154.470507 
L 329.4687 170.659045 
L 329.9151 150.278136 
L 330.8079 158.948012 
L 331.2543 145.732854 
L 331.7007 150.213405 
L 332.1471 150.138202 
L 332.5935 151.136851 
L 333.0399 181.529935 
L 333.4863 147.421052 
L 333.9327 152.241935 
L 334.3791 151.070131 
L 334.8255 152.396255 
L 335.2719 149.120115 
L 335.7183 150.255029 
L 336.1647 166.334181 
L 336.6111 154.549035 
L 337.0575 165.539547 
L 337.9503 146.373913 
L 338.3967 161.678559 
L 338.8431 148.397015 
L 339.2895 143.579678 
L 339.7359 146.679258 
L 340.1823 144.015752 
L 340.6287 148.518894 
L 341.0751 142.8381 
L 341.5215 139.223123 
L 341.9679 147.297427 
L 342.4143 141.919112 
L 342.8607 145.553334 
L 343.3071 163.782032 
L 343.7535 140.205094 
L 344.6463 144.055765 
L 345.0927 143.510796 
L 345.5391 139.068726 
L 345.9855 140.631714 
L 346.4319 138.987567 
L 346.8783 138.208264 
L 347.3247 154.615241 
L 347.7711 148.55157 
L 348.2175 137.508519 
L 348.6639 144.111526 
L 349.1103 141.073961 
L 349.5567 140.274757 
L 350.0031 144.177027 
L 350.4495 136.660326 
L 350.8959 137.379031 
L 351.3423 138.818419 
L 351.7887 144.184834 
L 352.2351 140.04403 
L 352.6815 137.316383 
L 353.1279 139.419324 
L 353.5743 138.953243 
L 354.0207 139.643449 
L 354.4671 135.911274 
L 354.9135 126.645753 
L 355.3599 135.09479 
L 355.8063 154.086807 
L 356.2527 138.878989 
L 356.6991 136.698878 
L 357.1455 132.855782 
L 357.5919 135.479456 
L 358.0383 133.933231 
L 358.4847 136.837998 
L 358.9311 130.104502 
L 359.3775 134.396018 
L 360.2703 139.110787 
L 360.7167 150.266306 
L 361.1631 141.726 
L 361.6095 140.775381 
L 362.0559 143.483658 
L 362.5023 138.18291 
L 363.3951 134.87557 
L 363.8415 137.116493 
L 364.2879 147.674036 
L 364.7343 137.731579 
L 365.1807 136.093769 
L 365.6271 149.346277 
L 366.0735 137.520982 
L 366.5199 136.202594 
L 366.9663 135.675938 
L 367.4127 139.536372 
L 368.3055 132.602478 
L 368.7519 138.438786 
L 370.0911 122.111572 
L 370.5375 135.93383 
L 370.9839 129.806526 
L 371.4303 133.940714 
L 371.8767 127.535044 
L 372.3231 128.906274 
L 372.7695 123.439876 
L 373.2159 133.404824 
L 373.6623 133.764902 
L 374.1087 129.405917 
L 374.5551 128.049916 
L 375.0015 128.449961 
L 375.8943 130.902471 
L 376.3407 130.117757 
L 376.7871 127.715638 
L 377.2335 134.993981 
L 377.6799 129.80805 
L 378.1263 133.136462 
L 378.5727 130.534405 
L 379.0191 124.842757 
L 379.4655 126.599479 
L 379.9119 129.219245 
L 380.3583 121.998298 
L 380.8047 128.297452 
L 381.2511 127.15145 
L 381.6975 126.816332 
L 382.1439 115.908205 
L 382.5903 125.538907 
L 383.0367 128.041776 
L 383.4831 129.206082 
L 383.9295 129.55625 
L 384.3759 119.995706 
L 384.8223 128.921721 
L 385.2687 126.911518 
L 385.7151 131.541648 
L 386.1615 127.421364 
L 386.6079 132.348067 
L 387.0543 131.609801 
L 387.5007 126.71743 
L 387.9471 127.249719 
L 388.3935 128.826623 
L 388.8399 116.618992 
L 389.2863 116.609383 
L 389.7327 118.10014 
L 390.1791 121.393481 
L 390.6255 117.79319 
L 391.0719 122.485719 
L 391.5183 115.178728 
L 391.9647 120.270151 
L 392.4111 126.752754 
L 392.8575 119.275923 
L 393.3039 117.954928 
L 393.7503 118.685806 
L 394.1967 122.822243 
L 394.6431 124.38092 
L 395.0895 118.508342 
L 395.5359 125.099852 
L 395.9823 122.159208 
L 396.8751 118.475912 
L 397.3215 112.917119 
L 397.7679 116.264345 
L 398.2143 111.925673 
L 398.6607 116.571668 
L 399.1071 113.766244 
L 399.5535 115.982633 
L 399.9999 116.245627 
L 400.4463 112.404181 
L 400.8927 113.044242 
L 401.3391 117.118351 
L 401.7855 115.559306 
L 402.2319 118.807324 
L 402.6783 116.618917 
L 403.1247 117.722047 
L 403.5711 117.666401 
L 404.0175 113.826281 
L 404.4639 111.708284 
L 404.9103 114.342704 
L 405.3567 109.682728 
L 405.8031 116.676613 
L 406.2495 120.258241 
L 406.6959 111.14262 
L 407.1423 116.918979 
L 407.5887 117.602487 
L 408.0351 112.019205 
L 408.4815 111.939711 
L 408.9279 111.689436 
L 409.3743 109.430098 
L 409.8207 110.905419 
L 410.2671 111.657243 
L 411.1599 111.147394 
L 411.6063 103.886396 
L 412.0527 110.619453 
L 412.4991 109.6379 
L 412.9455 111.406158 
L 413.3919 111.804495 
L 413.8383 106.202873 
L 414.2847 104.603196 
L 414.7311 108.370299 
L 415.1775 104.051951 
L 415.6239 103.750961 
L 416.0703 108.484161 
L 416.5167 111.764822 
L 416.9631 103.102354 
L 417.4095 106.927814 
L 417.8559 104.949602 
L 418.7487 105.913402 
L 419.1951 109.801933 
L 419.6415 108.640357 
L 420.0879 101.914505 
L 420.5343 107.029322 
L 420.9807 102.518885 
L 421.4271 101.686791 
L 421.8735 102.973288 
L 422.3199 104.653403 
L 422.7663 105.855314 
L 423.2127 103.786413 
L 423.6591 99.531694 
L 424.1055 104.028742 
L 424.5519 105.109588 
L 424.9983 103.085712 
L 425.4447 100.333622 
L 425.8911 103.452885 
L 426.3375 87.82047 
L 426.7839 102.001245 
L 427.2303 102.624639 
L 427.6767 94.117531 
L 428.1231 99.691705 
L 428.5695 101.385537 
L 429.0159 59.789144 
L 429.9087 96.32912 
L 430.3551 99.639648 
L 430.8015 97.818856 
L 431.2479 93.975963 
L 431.6943 96.093223 
L 432.1407 95.756324 
L 432.5871 93.42005 
L 433.0335 82.192077 
L 433.4799 100.284354 
L 433.9263 102.931262 
L 434.3727 99.468051 
L 434.8191 101.912954 
L 435.7119 96.212866 
L 436.1583 94.405863 
L 436.6047 98.687603 
L 437.0511 94.615901 
L 437.4975 100.576599 
L 437.9439 98.0666 
L 438.3903 97.735753 
L 438.8367 100.658609 
L 439.2831 98.68078 
L 439.7295 103.909192 
L 440.1759 96.491828 
L 440.6223 98.73147 
L 441.0687 97.221434 
L 441.5151 98.861883 
L 441.9615 93.334185 
L 442.4079 99.789468 
L 442.8543 95.776595 
L 443.3007 96.542279 
L 443.7471 100.17538 
L 444.1935 94.494551 
L 444.6399 95.925825 
L 445.0863 96.391732 
L 445.5327 90.992577 
L 445.9791 94.807699 
L 446.4255 89.265822 
L 446.8719 96.972648 
L 447.3183 91.290389 
L 447.7647 91.811527 
L 448.2111 89.735347 
L 448.6575 91.535672 
L 449.1039 95.016003 
L 449.5503 94.068675 
L 449.9967 89.17105 
L 450.4431 88.80157 
L 450.8895 93.747025 
L 451.3359 87.286869 
L 451.7823 89.632633 
L 452.2287 81.08383 
L 452.6751 89.622853 
L 453.1215 84.307101 
L 453.5679 91.064279 
L 454.0143 81.652759 
L 454.4607 75.539652 
L 454.9071 82.193172 
L 455.3535 82.524083 
L 455.7999 83.280953 
L 456.2463 80.594129 
L 456.6927 89.532449 
L 457.1391 88.4733 
L 457.5855 83.114169 
L 458.0319 83.39433 
L 458.4783 83.524279 
L 458.9247 86.977972 
L 459.3711 88.367051 
L 459.8175 88.842912 
L 460.2639 87.452325 
L 460.7103 87.23255 
L 461.1567 85.954848 
L 461.6031 64.245199 
L 462.4959 75.733092 
L 462.9423 73.23349 
L 463.3887 75.099856 
L 463.8351 87.833172 
L 464.2815 85.829068 
L 464.7279 84.446128 
L 465.1743 79.813519 
L 465.6207 84.173259 
L 466.0671 85.656568 
L 466.5135 78.590432 
L 466.9599 84.345989 
L 467.4063 80.324583 
L 467.8527 82.447023 
L 468.2991 80.427574 
L 468.7455 83.986604 
L 469.1919 79.280589 
L 469.6383 71.753336 
L 470.0847 69.586715 
L 470.5311 76.863136 
L 470.9775 72.72605 
L 471.4239 75.186436 
L 471.8703 76.874189 
L 472.3167 71.059493 
L 472.7631 70.841623 
L 473.2095 72.214105 
L 473.6559 76.667874 
L 474.1023 72.87946 
L 474.5487 79.067996 
L 474.9951 76.948236 
L 475.4415 58.468607 
L 475.8879 65.3352 
L 476.3343 35.055212 
L 476.7807 76.142058 
L 477.2271 55.592202 
L 477.6735 49.658377 
L 478.1199 56.829574 
L 478.5663 52.118546 
L 479.4591 72.641994 
L 479.9055 73.52884 
L 480.3519 51.693965 
L 480.7983 50.307134 
L 481.2447 53.846213 
L 481.6911 55.345916 
L 482.1375 63.066588 
L 482.5839 79.619301 
L 483.0303 71.026472 
L 483.4767 57.306133 
L 483.9231 62.727941 
L 484.3695 51.521946 
L 484.8159 71.822396 
L 485.2623 47.482568 
L 486.1551 71.812974 
L 486.6015 51.930963 
L 487.0479 50.535279 
L 487.4943 73.244811 
L 488.3871 58.548348 
L 488.8335 53.609215 
L 489.2799 43.614281 
L 489.7263 39.150048 
L 490.1727 55.955975 
L 490.6191 67.263103 
L 491.0655 39.740006 
L 491.5119 65.501536 
L 491.9583 49.504165 
L 492.4047 60.986781 
L 492.8511 63.980841 
L 492.8511 63.980841 
" style="fill:none;stroke:#0000ff;stroke-linecap:square;stroke-width:0.5;"/>
   </g>
   <g id="patch_3">
    <path d="M 46.8975 23.14175 
L 493.2975 23.14175 
" style="fill:none;stroke:#000000;stroke-linecap:square;stroke-linejoin:miter;"/>
   </g>
   <g id="patch_4">
    <path d="M 46.8975 368.74175 
L 46.8975 23.14175 
" style="fill:none;stroke:#000000;stroke-linecap:square;stroke-linejoin:miter;"/>
   </g>
   <g id="patch_5">
    <path d="M 46.8975 368.74175 
L 493.2975 368.74175 
" style="fill:none;stroke:#000000;stroke-linecap:square;stroke-linejoin:miter;"/>
   </g>
   <g id="patch_6">
    <path d="M 493.2975 368.74175 
L 493.2975 23.14175 
" style="fill:none;stroke:#000000;stroke-linecap:square;stroke-linejoin:miter;"/>
   </g>
   <g id="matplotlib.axis_1">
    <g id="xtick_1">
     <g id="line2d_2">
      <defs>
       <path d="M 0 0 
L 0 -4 
" id="me7a9651314" style="stroke:#000000;stroke-width:0.5;"/>
      </defs>
      <g>
       <use style="stroke:#000000;stroke-width:0.5;" x="46.8975" xlink:href="#me7a9651314" y="368.74175"/>
      </g>
     </g>
     <g id="line2d_3">
      <defs>
       <path d="M 0 0 
L 0 4 
" id="m26c129e828" style="stroke:#000000;stroke-width:0.5;"/>
      </defs>
      <g>
       <use style="stroke:#000000;stroke-width:0.5;" x="46.8975" xlink:href="#m26c129e828" y="23.14175"/>
      </g>
     </g>
     <g id="text_1">
      <!-- 0 -->
      <defs>
       <path d="M 31.78125 66.40625 
Q 24.171875 66.40625 20.328125 58.90625 
Q 16.5 51.421875 16.5 36.375 
Q 16.5 21.390625 20.328125 13.890625 
Q 24.171875 6.390625 31.78125 6.390625 
Q 39.453125 6.390625 43.28125 13.890625 
Q 47.125 21.390625 47.125 36.375 
Q 47.125 51.421875 43.28125 58.90625 
Q 39.453125 66.40625 31.78125 66.40625 
M 31.78125 74.21875 
Q 44.046875 74.21875 50.515625 64.515625 
Q 56.984375 54.828125 56.984375 36.375 
Q 56.984375 17.96875 50.515625 8.265625 
Q 44.046875 -1.421875 31.78125 -1.421875 
Q 19.53125 -1.421875 13.0625 8.265625 
Q 6.59375 17.96875 6.59375 36.375 
Q 6.59375 54.828125 13.0625 64.515625 
Q 19.53125 74.21875 31.78125 74.21875 
" id="BitstreamVeraSans-Roman-30"/>
      </defs>
      <g transform="translate(43.08 381.859875)scale(0.12 -0.12)">
       <use xlink:href="#BitstreamVeraSans-Roman-30"/>
      </g>
     </g>
    </g>
    <g id="xtick_2">
     <g id="line2d_4">
      <g>
       <use style="stroke:#000000;stroke-width:0.5;" x="136.1775" xlink:href="#me7a9651314" y="368.74175"/>
      </g>
     </g>
     <g id="line2d_5">
      <g>
       <use style="stroke:#000000;stroke-width:0.5;" x="136.1775" xlink:href="#m26c129e828" y="23.14175"/>
      </g>
     </g>
     <g id="text_2">
      <!-- 200 -->
      <defs>
       <path d="M 19.1875 8.296875 
L 53.609375 8.296875 
L 53.609375 0 
L 7.328125 0 
L 7.328125 8.296875 
Q 12.9375 14.109375 22.625 23.890625 
Q 32.328125 33.6875 34.8125 36.53125 
Q 39.546875 41.84375 41.421875 45.53125 
Q 43.3125 49.21875 43.3125 52.78125 
Q 43.3125 58.59375 39.234375 62.25 
Q 35.15625 65.921875 28.609375 65.921875 
Q 23.96875 65.921875 18.8125 64.3125 
Q 13.671875 62.703125 7.8125 59.421875 
L 7.8125 69.390625 
Q 13.765625 71.78125 18.9375 73 
Q 24.125 74.21875 28.421875 74.21875 
Q 39.75 74.21875 46.484375 68.546875 
Q 53.21875 62.890625 53.21875 53.421875 
Q 53.21875 48.921875 51.53125 44.890625 
Q 49.859375 40.875 45.40625 35.40625 
Q 44.1875 33.984375 37.640625 27.21875 
Q 31.109375 20.453125 19.1875 8.296875 
" id="BitstreamVeraSans-Roman-32"/>
      </defs>
      <g transform="translate(124.725 381.859875)scale(0.12 -0.12)">
       <use xlink:href="#BitstreamVeraSans-Roman-32"/>
       <use x="63.623046875" xlink:href="#BitstreamVeraSans-Roman-30"/>
       <use x="127.24609375" xlink:href="#BitstreamVeraSans-Roman-30"/>
      </g>
     </g>
    </g>
    <g id="xtick_3">
     <g id="line2d_6">
      <g>
       <use style="stroke:#000000;stroke-width:0.5;" x="225.4575" xlink:href="#me7a9651314" y="368.74175"/>
      </g>
     </g>
     <g id="line2d_7">
      <g>
       <use style="stroke:#000000;stroke-width:0.5;" x="225.4575" xlink:href="#m26c129e828" y="23.14175"/>
      </g>
     </g>
     <g id="text_3">
      <!-- 400 -->
      <defs>
       <path d="M 37.796875 64.3125 
L 12.890625 25.390625 
L 37.796875 25.390625 
z
M 35.203125 72.90625 
L 47.609375 72.90625 
L 47.609375 25.390625 
L 58.015625 25.390625 
L 58.015625 17.1875 
L 47.609375 17.1875 
L 47.609375 0 
L 37.796875 0 
L 37.796875 17.1875 
L 4.890625 17.1875 
L 4.890625 26.703125 
z
" id="BitstreamVeraSans-Roman-34"/>
      </defs>
      <g transform="translate(214.005 381.859875)scale(0.12 -0.12)">
       <use xlink:href="#BitstreamVeraSans-Roman-34"/>
       <use x="63.623046875" xlink:href="#BitstreamVeraSans-Roman-30"/>
       <use x="127.24609375" xlink:href="#BitstreamVeraSans-Roman-30"/>
      </g>
     </g>
    </g>
    <g id="xtick_4">
     <g id="line2d_8">
      <g>
       <use style="stroke:#000000;stroke-width:0.5;" x="314.7375" xlink:href="#me7a9651314" y="368.74175"/>
      </g>
     </g>
     <g id="line2d_9">
      <g>
       <use style="stroke:#000000;stroke-width:0.5;" x="314.7375" xlink:href="#m26c129e828" y="23.14175"/>
      </g>
     </g>
     <g id="text_4">
      <!-- 600 -->
      <defs>
       <path d="M 33.015625 40.375 
Q 26.375 40.375 22.484375 35.828125 
Q 18.609375 31.296875 18.609375 23.390625 
Q 18.609375 15.53125 22.484375 10.953125 
Q 26.375 6.390625 33.015625 6.390625 
Q 39.65625 6.390625 43.53125 10.953125 
Q 47.40625 15.53125 47.40625 23.390625 
Q 47.40625 31.296875 43.53125 35.828125 
Q 39.65625 40.375 33.015625 40.375 
M 52.59375 71.296875 
L 52.59375 62.3125 
Q 48.875 64.0625 45.09375 64.984375 
Q 41.3125 65.921875 37.59375 65.921875 
Q 27.828125 65.921875 22.671875 59.328125 
Q 17.53125 52.734375 16.796875 39.40625 
Q 19.671875 43.65625 24.015625 45.921875 
Q 28.375 48.1875 33.59375 48.1875 
Q 44.578125 48.1875 50.953125 41.515625 
Q 57.328125 34.859375 57.328125 23.390625 
Q 57.328125 12.15625 50.6875 5.359375 
Q 44.046875 -1.421875 33.015625 -1.421875 
Q 20.359375 -1.421875 13.671875 8.265625 
Q 6.984375 17.96875 6.984375 36.375 
Q 6.984375 53.65625 15.1875 63.9375 
Q 23.390625 74.21875 37.203125 74.21875 
Q 40.921875 74.21875 44.703125 73.484375 
Q 48.484375 72.75 52.59375 71.296875 
" id="BitstreamVeraSans-Roman-36"/>
      </defs>
      <g transform="translate(303.285 381.859875)scale(0.12 -0.12)">
       <use xlink:href="#BitstreamVeraSans-Roman-36"/>
       <use x="63.623046875" xlink:href="#BitstreamVeraSans-Roman-30"/>
       <use x="127.24609375" xlink:href="#BitstreamVeraSans-Roman-30"/>
      </g>
     </g>
    </g>
    <g id="xtick_5">
     <g id="line2d_10">
      <g>
       <use style="stroke:#000000;stroke-width:0.5;" x="404.0175" xlink:href="#me7a9651314" y="368.74175"/>
      </g>
     </g>
     <g id="line2d_11">
      <g>
       <use style="stroke:#000000;stroke-width:0.5;" x="404.0175" xlink:href="#m26c129e828" y="23.14175"/>
      </g>
     </g>
     <g id="text_5">
      <!-- 800 -->
      <defs>
       <path d="M 31.78125 34.625 
Q 24.75 34.625 20.71875 30.859375 
Q 16.703125 27.09375 16.703125 20.515625 
Q 16.703125 13.921875 20.71875 10.15625 
Q 24.75 6.390625 31.78125 6.390625 
Q 38.8125 6.390625 42.859375 10.171875 
Q 46.921875 13.96875 46.921875 20.515625 
Q 46.921875 27.09375 42.890625 30.859375 
Q 38.875 34.625 31.78125 34.625 
M 21.921875 38.8125 
Q 15.578125 40.375 12.03125 44.71875 
Q 8.5 49.078125 8.5 55.328125 
Q 8.5 64.0625 14.71875 69.140625 
Q 20.953125 74.21875 31.78125 74.21875 
Q 42.671875 74.21875 48.875 69.140625 
Q 55.078125 64.0625 55.078125 55.328125 
Q 55.078125 49.078125 51.53125 44.71875 
Q 48 40.375 41.703125 38.8125 
Q 48.828125 37.15625 52.796875 32.3125 
Q 56.78125 27.484375 56.78125 20.515625 
Q 56.78125 9.90625 50.3125 4.234375 
Q 43.84375 -1.421875 31.78125 -1.421875 
Q 19.734375 -1.421875 13.25 4.234375 
Q 6.78125 9.90625 6.78125 20.515625 
Q 6.78125 27.484375 10.78125 32.3125 
Q 14.796875 37.15625 21.921875 38.8125 
M 18.3125 54.390625 
Q 18.3125 48.734375 21.84375 45.5625 
Q 25.390625 42.390625 31.78125 42.390625 
Q 38.140625 42.390625 41.71875 45.5625 
Q 45.3125 48.734375 45.3125 54.390625 
Q 45.3125 60.0625 41.71875 63.234375 
Q 38.140625 66.40625 31.78125 66.40625 
Q 25.390625 66.40625 21.84375 63.234375 
Q 18.3125 60.0625 18.3125 54.390625 
" id="BitstreamVeraSans-Roman-38"/>
      </defs>
      <g transform="translate(392.565 381.859875)scale(0.12 -0.12)">
       <use xlink:href="#BitstreamVeraSans-Roman-38"/>
       <use x="63.623046875" xlink:href="#BitstreamVeraSans-Roman-30"/>
       <use x="127.24609375" xlink:href="#BitstreamVeraSans-Roman-30"/>
      </g>
     </g>
    </g>
    <g id="xtick_6">
     <g id="line2d_12">
      <g>
       <use style="stroke:#000000;stroke-width:0.5;" x="493.2975" xlink:href="#me7a9651314" y="368.74175"/>
      </g>
     </g>
     <g id="line2d_13">
      <g>
       <use style="stroke:#000000;stroke-width:0.5;" x="493.2975" xlink:href="#m26c129e828" y="23.14175"/>
      </g>
     </g>
     <g id="text_6">
      <!-- 1000 -->
      <defs>
       <path d="M 12.40625 8.296875 
L 28.515625 8.296875 
L 28.515625 63.921875 
L 10.984375 60.40625 
L 10.984375 69.390625 
L 28.421875 72.90625 
L 38.28125 72.90625 
L 38.28125 8.296875 
L 54.390625 8.296875 
L 54.390625 0 
L 12.40625 0 
z
" id="BitstreamVeraSans-Roman-31"/>
      </defs>
      <g transform="translate(478.0275 381.859875)scale(0.12 -0.12)">
       <use xlink:href="#BitstreamVeraSans-Roman-31"/>
       <use x="63.623046875" xlink:href="#BitstreamVeraSans-Roman-30"/>
       <use x="127.24609375" xlink:href="#BitstreamVeraSans-Roman-30"/>
       <use x="190.869140625" xlink:href="#BitstreamVeraSans-Roman-30"/>
      </g>
     </g>
    </g>
    <g id="text_7">
     <!-- episode -->
     <defs>
      <path d="M 18.109375 8.203125 
L 18.109375 -20.796875 
L 9.078125 -20.796875 
L 9.078125 54.6875 
L 18.109375 54.6875 
L 18.109375 46.390625 
Q 20.953125 51.265625 25.265625 53.625 
Q 29.59375 56 35.59375 56 
Q 45.5625 56 51.78125 48.09375 
Q 58.015625 40.1875 58.015625 27.296875 
Q 58.015625 14.40625 51.78125 6.484375 
Q 45.5625 -1.421875 35.59375 -1.421875 
Q 29.59375 -1.421875 25.265625 0.953125 
Q 20.953125 3.328125 18.109375 8.203125 
M 48.6875 27.296875 
Q 48.6875 37.203125 44.609375 42.84375 
Q 40.53125 48.484375 33.40625 48.484375 
Q 26.265625 48.484375 22.1875 42.84375 
Q 18.109375 37.203125 18.109375 27.296875 
Q 18.109375 17.390625 22.1875 11.75 
Q 26.265625 6.109375 33.40625 6.109375 
Q 40.53125 6.109375 44.609375 11.75 
Q 48.6875 17.390625 48.6875 27.296875 
" id="BitstreamVeraSans-Roman-70"/>
      <path d="M 45.40625 46.390625 
L 45.40625 75.984375 
L 54.390625 75.984375 
L 54.390625 0 
L 45.40625 0 
L 45.40625 8.203125 
Q 42.578125 3.328125 38.25 0.953125 
Q 33.9375 -1.421875 27.875 -1.421875 
Q 17.96875 -1.421875 11.734375 6.484375 
Q 5.515625 14.40625 5.515625 27.296875 
Q 5.515625 40.1875 11.734375 48.09375 
Q 17.96875 56 27.875 56 
Q 33.9375 56 38.25 53.625 
Q 42.578125 51.265625 45.40625 46.390625 
M 14.796875 27.296875 
Q 14.796875 17.390625 18.875 11.75 
Q 22.953125 6.109375 30.078125 6.109375 
Q 37.203125 6.109375 41.296875 11.75 
Q 45.40625 17.390625 45.40625 27.296875 
Q 45.40625 37.203125 41.296875 42.84375 
Q 37.203125 48.484375 30.078125 48.484375 
Q 22.953125 48.484375 18.875 42.84375 
Q 14.796875 37.203125 14.796875 27.296875 
" id="BitstreamVeraSans-Roman-64"/>
      <path d="M 30.609375 48.390625 
Q 23.390625 48.390625 19.1875 42.75 
Q 14.984375 37.109375 14.984375 27.296875 
Q 14.984375 17.484375 19.15625 11.84375 
Q 23.34375 6.203125 30.609375 6.203125 
Q 37.796875 6.203125 41.984375 11.859375 
Q 46.1875 17.53125 46.1875 27.296875 
Q 46.1875 37.015625 41.984375 42.703125 
Q 37.796875 48.390625 30.609375 48.390625 
M 30.609375 56 
Q 42.328125 56 49.015625 48.375 
Q 55.71875 40.765625 55.71875 27.296875 
Q 55.71875 13.875 49.015625 6.21875 
Q 42.328125 -1.421875 30.609375 -1.421875 
Q 18.84375 -1.421875 12.171875 6.21875 
Q 5.515625 13.875 5.515625 27.296875 
Q 5.515625 40.765625 12.171875 48.375 
Q 18.84375 56 30.609375 56 
" id="BitstreamVeraSans-Roman-6f"/>
      <path d="M 56.203125 29.59375 
L 56.203125 25.203125 
L 14.890625 25.203125 
Q 15.484375 15.921875 20.484375 11.0625 
Q 25.484375 6.203125 34.421875 6.203125 
Q 39.59375 6.203125 44.453125 7.46875 
Q 49.3125 8.734375 54.109375 11.28125 
L 54.109375 2.78125 
Q 49.265625 0.734375 44.1875 -0.34375 
Q 39.109375 -1.421875 33.890625 -1.421875 
Q 20.796875 -1.421875 13.15625 6.1875 
Q 5.515625 13.8125 5.515625 26.8125 
Q 5.515625 40.234375 12.765625 48.109375 
Q 20.015625 56 32.328125 56 
Q 43.359375 56 49.78125 48.890625 
Q 56.203125 41.796875 56.203125 29.59375 
M 47.21875 32.234375 
Q 47.125 39.59375 43.09375 43.984375 
Q 39.0625 48.390625 32.421875 48.390625 
Q 24.90625 48.390625 20.390625 44.140625 
Q 15.875 39.890625 15.1875 32.171875 
z
" id="BitstreamVeraSans-Roman-65"/>
      <path d="M 9.421875 54.6875 
L 18.40625 54.6875 
L 18.40625 0 
L 9.421875 0 
z
M 9.421875 75.984375 
L 18.40625 75.984375 
L 18.40625 64.59375 
L 9.421875 64.59375 
z
" id="BitstreamVeraSans-Roman-69"/>
      <path d="M 44.28125 53.078125 
L 44.28125 44.578125 
Q 40.484375 46.53125 36.375 47.5 
Q 32.28125 48.484375 27.875 48.484375 
Q 21.1875 48.484375 17.84375 46.4375 
Q 14.5 44.390625 14.5 40.28125 
Q 14.5 37.15625 16.890625 35.375 
Q 19.28125 33.59375 26.515625 31.984375 
L 29.59375 31.296875 
Q 39.15625 29.25 43.1875 25.515625 
Q 47.21875 21.78125 47.21875 15.09375 
Q 47.21875 7.46875 41.1875 3.015625 
Q 35.15625 -1.421875 24.609375 -1.421875 
Q 20.21875 -1.421875 15.453125 -0.5625 
Q 10.6875 0.296875 5.421875 2 
L 5.421875 11.28125 
Q 10.40625 8.6875 15.234375 7.390625 
Q 20.0625 6.109375 24.8125 6.109375 
Q 31.15625 6.109375 34.5625 8.28125 
Q 37.984375 10.453125 37.984375 14.40625 
Q 37.984375 18.0625 35.515625 20.015625 
Q 33.0625 21.96875 24.703125 23.78125 
L 21.578125 24.515625 
Q 13.234375 26.265625 9.515625 29.90625 
Q 5.8125 33.546875 5.8125 39.890625 
Q 5.8125 47.609375 11.28125 51.796875 
Q 16.75 56 26.8125 56 
Q 31.78125 56 36.171875 55.265625 
Q 40.578125 54.546875 44.28125 53.078125 
" id="BitstreamVeraSans-Roman-73"/>
     </defs>
     <g transform="translate(246.631875 398.473625)scale(0.12 -0.12)">
      <use xlink:href="#BitstreamVeraSans-Roman-65"/>
      <use x="61.5234375" xlink:href="#BitstreamVeraSans-Roman-70"/>
      <use x="125.0" xlink:href="#BitstreamVeraSans-Roman-69"/>
      <use x="152.783203125" xlink:href="#BitstreamVeraSans-Roman-73"/>
      <use x="204.8828125" xlink:href="#BitstreamVeraSans-Roman-6f"/>
      <use x="266.064453125" xlink:href="#BitstreamVeraSans-Roman-64"/>
      <use x="329.541015625" xlink:href="#BitstreamVeraSans-Roman-65"/>
     </g>
    </g>
   </g>
   <g id="matplotlib.axis_2">
    <g id="ytick_1">
     <g id="line2d_14">
      <defs>
       <path d="M 0 0 
L 4 0 
" id="m1faaf67975" style="stroke:#000000;stroke-width:0.5;"/>
      </defs>
      <g>
       <use style="stroke:#000000;stroke-width:0.5;" x="46.8975" xlink:href="#m1faaf67975" y="368.74175"/>
      </g>
     </g>
     <g id="line2d_15">
      <defs>
       <path d="M 0 0 
L -4 0 
" id="m1cb96a2ca8" style="stroke:#000000;stroke-width:0.5;"/>
      </defs>
      <g>
       <use style="stroke:#000000;stroke-width:0.5;" x="493.2975" xlink:href="#m1cb96a2ca8" y="368.74175"/>
      </g>
     </g>
     <g id="text_8">
      <!-- 0.2 -->
      <defs>
       <path d="M 10.6875 12.40625 
L 21 12.40625 
L 21 0 
L 10.6875 0 
z
" id="BitstreamVeraSans-Roman-2e"/>
      </defs>
      <g transform="translate(23.81375 372.053)scale(0.12 -0.12)">
       <use xlink:href="#BitstreamVeraSans-Roman-30"/>
       <use x="63.623046875" xlink:href="#BitstreamVeraSans-Roman-2e"/>
       <use x="95.41015625" xlink:href="#BitstreamVeraSans-Roman-32"/>
      </g>
     </g>
    </g>
    <g id="ytick_2">
     <g id="line2d_16">
      <g>
       <use style="stroke:#000000;stroke-width:0.5;" x="46.8975" xlink:href="#m1faaf67975" y="325.54175"/>
      </g>
     </g>
     <g id="line2d_17">
      <g>
       <use style="stroke:#000000;stroke-width:0.5;" x="493.2975" xlink:href="#m1cb96a2ca8" y="325.54175"/>
      </g>
     </g>
     <g id="text_9">
      <!-- 0.4 -->
      <g transform="translate(23.81375 328.853)scale(0.12 -0.12)">
       <use xlink:href="#BitstreamVeraSans-Roman-30"/>
       <use x="63.623046875" xlink:href="#BitstreamVeraSans-Roman-2e"/>
       <use x="95.41015625" xlink:href="#BitstreamVeraSans-Roman-34"/>
      </g>
     </g>
    </g>
    <g id="ytick_3">
     <g id="line2d_18">
      <g>
       <use style="stroke:#000000;stroke-width:0.5;" x="46.8975" xlink:href="#m1faaf67975" y="282.34175"/>
      </g>
     </g>
     <g id="line2d_19">
      <g>
       <use style="stroke:#000000;stroke-width:0.5;" x="493.2975" xlink:href="#m1cb96a2ca8" y="282.34175"/>
      </g>
     </g>
     <g id="text_10">
      <!-- 0.6 -->
      <g transform="translate(23.81375 285.653)scale(0.12 -0.12)">
       <use xlink:href="#BitstreamVeraSans-Roman-30"/>
       <use x="63.623046875" xlink:href="#BitstreamVeraSans-Roman-2e"/>
       <use x="95.41015625" xlink:href="#BitstreamVeraSans-Roman-36"/>
      </g>
     </g>
    </g>
    <g id="ytick_4">
     <g id="line2d_20">
      <g>
       <use style="stroke:#000000;stroke-width:0.5;" x="46.8975" xlink:href="#m1faaf67975" y="239.14175"/>
      </g>
     </g>
     <g id="line2d_21">
      <g>
       <use style="stroke:#000000;stroke-width:0.5;" x="493.2975" xlink:href="#m1cb96a2ca8" y="239.14175"/>
      </g>
     </g>
     <g id="text_11">
      <!-- 0.8 -->
      <g transform="translate(23.81375 242.453)scale(0.12 -0.12)">
       <use xlink:href="#BitstreamVeraSans-Roman-30"/>
       <use x="63.623046875" xlink:href="#BitstreamVeraSans-Roman-2e"/>
       <use x="95.41015625" xlink:href="#BitstreamVeraSans-Roman-38"/>
      </g>
     </g>
    </g>
    <g id="ytick_5">
     <g id="line2d_22">
      <g>
       <use style="stroke:#000000;stroke-width:0.5;" x="46.8975" xlink:href="#m1faaf67975" y="195.94175"/>
      </g>
     </g>
     <g id="line2d_23">
      <g>
       <use style="stroke:#000000;stroke-width:0.5;" x="493.2975" xlink:href="#m1cb96a2ca8" y="195.94175"/>
      </g>
     </g>
     <g id="text_12">
      <!-- 1.0 -->
      <g transform="translate(23.81375 199.253)scale(0.12 -0.12)">
       <use xlink:href="#BitstreamVeraSans-Roman-31"/>
       <use x="63.623046875" xlink:href="#BitstreamVeraSans-Roman-2e"/>
       <use x="95.41015625" xlink:href="#BitstreamVeraSans-Roman-30"/>
      </g>
     </g>
    </g>
    <g id="ytick_6">
     <g id="line2d_24">
      <g>
       <use style="stroke:#000000;stroke-width:0.5;" x="46.8975" xlink:href="#m1faaf67975" y="152.74175"/>
      </g>
     </g>
     <g id="line2d_25">
      <g>
       <use style="stroke:#000000;stroke-width:0.5;" x="493.2975" xlink:href="#m1cb96a2ca8" y="152.74175"/>
      </g>
     </g>
     <g id="text_13">
      <!-- 1.2 -->
      <g transform="translate(23.81375 156.053)scale(0.12 -0.12)">
       <use xlink:href="#BitstreamVeraSans-Roman-31"/>
       <use x="63.623046875" xlink:href="#BitstreamVeraSans-Roman-2e"/>
       <use x="95.41015625" xlink:href="#BitstreamVeraSans-Roman-32"/>
      </g>
     </g>
    </g>
    <g id="ytick_7">
     <g id="line2d_26">
      <g>
       <use style="stroke:#000000;stroke-width:0.5;" x="46.8975" xlink:href="#m1faaf67975" y="109.54175"/>
      </g>
     </g>
     <g id="line2d_27">
      <g>
       <use style="stroke:#000000;stroke-width:0.5;" x="493.2975" xlink:href="#m1cb96a2ca8" y="109.54175"/>
      </g>
     </g>
     <g id="text_14">
      <!-- 1.4 -->
      <g transform="translate(23.81375 112.853)scale(0.12 -0.12)">
       <use xlink:href="#BitstreamVeraSans-Roman-31"/>
       <use x="63.623046875" xlink:href="#BitstreamVeraSans-Roman-2e"/>
       <use x="95.41015625" xlink:href="#BitstreamVeraSans-Roman-34"/>
      </g>
     </g>
    </g>
    <g id="ytick_8">
     <g id="line2d_28">
      <g>
       <use style="stroke:#000000;stroke-width:0.5;" x="46.8975" xlink:href="#m1faaf67975" y="66.34175"/>
      </g>
     </g>
     <g id="line2d_29">
      <g>
       <use style="stroke:#000000;stroke-width:0.5;" x="493.2975" xlink:href="#m1cb96a2ca8" y="66.34175"/>
      </g>
     </g>
     <g id="text_15">
      <!-- 1.6 -->
      <g transform="translate(23.81375 69.653)scale(0.12 -0.12)">
       <use xlink:href="#BitstreamVeraSans-Roman-31"/>
       <use x="63.623046875" xlink:href="#BitstreamVeraSans-Roman-2e"/>
       <use x="95.41015625" xlink:href="#BitstreamVeraSans-Roman-36"/>
      </g>
     </g>
    </g>
    <g id="ytick_9">
     <g id="line2d_30">
      <g>
       <use style="stroke:#000000;stroke-width:0.5;" x="46.8975" xlink:href="#m1faaf67975" y="23.14175"/>
      </g>
     </g>
     <g id="line2d_31">
      <g>
       <use style="stroke:#000000;stroke-width:0.5;" x="493.2975" xlink:href="#m1cb96a2ca8" y="23.14175"/>
      </g>
     </g>
     <g id="text_16">
      <!-- 1.8 -->
      <g transform="translate(23.81375 26.453)scale(0.12 -0.12)">
       <use xlink:href="#BitstreamVeraSans-Roman-31"/>
       <use x="63.623046875" xlink:href="#BitstreamVeraSans-Roman-2e"/>
       <use x="95.41015625" xlink:href="#BitstreamVeraSans-Roman-38"/>
      </g>
     </g>
    </g>
    <g id="text_17">
     <!-- average maxQ -->
     <defs>
      <path d="M 45.40625 27.984375 
Q 45.40625 37.75 41.375 43.109375 
Q 37.359375 48.484375 30.078125 48.484375 
Q 22.859375 48.484375 18.828125 43.109375 
Q 14.796875 37.75 14.796875 27.984375 
Q 14.796875 18.265625 18.828125 12.890625 
Q 22.859375 7.515625 30.078125 7.515625 
Q 37.359375 7.515625 41.375 12.890625 
Q 45.40625 18.265625 45.40625 27.984375 
M 54.390625 6.78125 
Q 54.390625 -7.171875 48.1875 -13.984375 
Q 42 -20.796875 29.203125 -20.796875 
Q 24.46875 -20.796875 20.265625 -20.09375 
Q 16.0625 -19.390625 12.109375 -17.921875 
L 12.109375 -9.1875 
Q 16.0625 -11.328125 19.921875 -12.34375 
Q 23.78125 -13.375 27.78125 -13.375 
Q 36.625 -13.375 41.015625 -8.765625 
Q 45.40625 -4.15625 45.40625 5.171875 
L 45.40625 9.625 
Q 42.625 4.78125 38.28125 2.390625 
Q 33.9375 0 27.875 0 
Q 17.828125 0 11.671875 7.65625 
Q 5.515625 15.328125 5.515625 27.984375 
Q 5.515625 40.671875 11.671875 48.328125 
Q 17.828125 56 27.875 56 
Q 33.9375 56 38.28125 53.609375 
Q 42.625 51.21875 45.40625 46.390625 
L 45.40625 54.6875 
L 54.390625 54.6875 
z
" id="BitstreamVeraSans-Roman-67"/>
      <path id="BitstreamVeraSans-Roman-20"/>
      <path d="M 52 44.1875 
Q 55.375 50.25 60.0625 53.125 
Q 64.75 56 71.09375 56 
Q 79.640625 56 84.28125 50.015625 
Q 88.921875 44.046875 88.921875 33.015625 
L 88.921875 0 
L 79.890625 0 
L 79.890625 32.71875 
Q 79.890625 40.578125 77.09375 44.375 
Q 74.3125 48.1875 68.609375 48.1875 
Q 61.625 48.1875 57.5625 43.546875 
Q 53.515625 38.921875 53.515625 30.90625 
L 53.515625 0 
L 44.484375 0 
L 44.484375 32.71875 
Q 44.484375 40.625 41.703125 44.40625 
Q 38.921875 48.1875 33.109375 48.1875 
Q 26.21875 48.1875 22.15625 43.53125 
Q 18.109375 38.875 18.109375 30.90625 
L 18.109375 0 
L 9.078125 0 
L 9.078125 54.6875 
L 18.109375 54.6875 
L 18.109375 46.1875 
Q 21.1875 51.21875 25.484375 53.609375 
Q 29.78125 56 35.6875 56 
Q 41.65625 56 45.828125 52.96875 
Q 50 49.953125 52 44.1875 
" id="BitstreamVeraSans-Roman-6d"/>
      <path d="M 39.40625 66.21875 
Q 28.65625 66.21875 22.328125 58.203125 
Q 16.015625 50.203125 16.015625 36.375 
Q 16.015625 22.609375 22.328125 14.59375 
Q 28.65625 6.59375 39.40625 6.59375 
Q 50.140625 6.59375 56.421875 14.59375 
Q 62.703125 22.609375 62.703125 36.375 
Q 62.703125 50.203125 56.421875 58.203125 
Q 50.140625 66.21875 39.40625 66.21875 
M 53.21875 1.3125 
L 66.21875 -12.890625 
L 54.296875 -12.890625 
L 43.5 -1.21875 
Q 41.890625 -1.3125 41.03125 -1.359375 
Q 40.1875 -1.421875 39.40625 -1.421875 
Q 24.03125 -1.421875 14.8125 8.859375 
Q 5.609375 19.140625 5.609375 36.375 
Q 5.609375 53.65625 14.8125 63.9375 
Q 24.03125 74.21875 39.40625 74.21875 
Q 54.734375 74.21875 63.90625 63.9375 
Q 73.09375 53.65625 73.09375 36.375 
Q 73.09375 23.6875 67.984375 14.640625 
Q 62.890625 5.609375 53.21875 1.3125 
" id="BitstreamVeraSans-Roman-51"/>
      <path d="M 54.890625 54.6875 
L 35.109375 28.078125 
L 55.90625 0 
L 45.3125 0 
L 29.390625 21.484375 
L 13.484375 0 
L 2.875 0 
L 24.125 28.609375 
L 4.6875 54.6875 
L 15.28125 54.6875 
L 29.78125 35.203125 
L 44.28125 54.6875 
z
" id="BitstreamVeraSans-Roman-78"/>
      <path d="M 34.28125 27.484375 
Q 23.390625 27.484375 19.1875 25 
Q 14.984375 22.515625 14.984375 16.5 
Q 14.984375 11.71875 18.140625 8.90625 
Q 21.296875 6.109375 26.703125 6.109375 
Q 34.1875 6.109375 38.703125 11.40625 
Q 43.21875 16.703125 43.21875 25.484375 
L 43.21875 27.484375 
z
M 52.203125 31.203125 
L 52.203125 0 
L 43.21875 0 
L 43.21875 8.296875 
Q 40.140625 3.328125 35.546875 0.953125 
Q 30.953125 -1.421875 24.3125 -1.421875 
Q 15.921875 -1.421875 10.953125 3.296875 
Q 6 8.015625 6 15.921875 
Q 6 25.140625 12.171875 29.828125 
Q 18.359375 34.515625 30.609375 34.515625 
L 43.21875 34.515625 
L 43.21875 35.40625 
Q 43.21875 41.609375 39.140625 45 
Q 35.0625 48.390625 27.6875 48.390625 
Q 23 48.390625 18.546875 47.265625 
Q 14.109375 46.140625 10.015625 43.890625 
L 10.015625 52.203125 
Q 14.9375 54.109375 19.578125 55.046875 
Q 24.21875 56 28.609375 56 
Q 40.484375 56 46.34375 49.84375 
Q 52.203125 43.703125 52.203125 31.203125 
" id="BitstreamVeraSans-Roman-61"/>
      <path d="M 2.984375 54.6875 
L 12.5 54.6875 
L 29.59375 8.796875 
L 46.6875 54.6875 
L 56.203125 54.6875 
L 35.6875 0 
L 23.484375 0 
z
" id="BitstreamVeraSans-Roman-76"/>
      <path d="M 41.109375 46.296875 
Q 39.59375 47.171875 37.8125 47.578125 
Q 36.03125 48 33.890625 48 
Q 26.265625 48 22.1875 43.046875 
Q 18.109375 38.09375 18.109375 28.8125 
L 18.109375 0 
L 9.078125 0 
L 9.078125 54.6875 
L 18.109375 54.6875 
L 18.109375 46.1875 
Q 20.953125 51.171875 25.484375 53.578125 
Q 30.03125 56 36.53125 56 
Q 37.453125 56 38.578125 55.875 
Q 39.703125 55.765625 41.0625 55.515625 
z
" id="BitstreamVeraSans-Roman-72"/>
     </defs>
     <g transform="translate(16.318125 240.208625)rotate(-90.0)scale(0.12 -0.12)">
      <use xlink:href="#BitstreamVeraSans-Roman-61"/>
      <use x="61.279296875" xlink:href="#BitstreamVeraSans-Roman-76"/>
      <use x="120.458984375" xlink:href="#BitstreamVeraSans-Roman-65"/>
      <use x="181.982421875" xlink:href="#BitstreamVeraSans-Roman-72"/>
      <use x="223.095703125" xlink:href="#BitstreamVeraSans-Roman-61"/>
      <use x="284.375" xlink:href="#BitstreamVeraSans-Roman-67"/>
      <use x="347.8515625" xlink:href="#BitstreamVeraSans-Roman-65"/>
      <use x="409.375" xlink:href="#BitstreamVeraSans-Roman-20"/>
      <use x="441.162109375" xlink:href="#BitstreamVeraSans-Roman-6d"/>
      <use x="538.57421875" xlink:href="#BitstreamVeraSans-Roman-61"/>
      <use x="599.853515625" xlink:href="#BitstreamVeraSans-Roman-78"/>
      <use x="659.033203125" xlink:href="#BitstreamVeraSans-Roman-51"/>
     </g>
    </g>
   </g>
   <g id="text_18">
    <!-- Average maxQ per episode, joint 1 -->
    <defs>
     <path d="M 11.71875 12.40625 
L 22.015625 12.40625 
L 22.015625 4 
L 14.015625 -11.625 
L 7.71875 -11.625 
L 11.71875 4 
z
" id="BitstreamVeraSans-Roman-2c"/>
     <path d="M 9.421875 54.6875 
L 18.40625 54.6875 
L 18.40625 -0.984375 
Q 18.40625 -11.421875 14.421875 -16.109375 
Q 10.453125 -20.796875 1.609375 -20.796875 
L -1.8125 -20.796875 
L -1.8125 -13.1875 
L 0.59375 -13.1875 
Q 5.71875 -13.1875 7.5625 -10.8125 
Q 9.421875 -8.453125 9.421875 -0.984375 
z
M 9.421875 75.984375 
L 18.40625 75.984375 
L 18.40625 64.59375 
L 9.421875 64.59375 
z
" id="BitstreamVeraSans-Roman-6a"/>
     <path d="M 18.3125 70.21875 
L 18.3125 54.6875 
L 36.8125 54.6875 
L 36.8125 47.703125 
L 18.3125 47.703125 
L 18.3125 18.015625 
Q 18.3125 11.328125 20.140625 9.421875 
Q 21.96875 7.515625 27.59375 7.515625 
L 36.8125 7.515625 
L 36.8125 0 
L 27.59375 0 
Q 17.1875 0 13.234375 3.875 
Q 9.28125 7.765625 9.28125 18.015625 
L 9.28125 47.703125 
L 2.6875 47.703125 
L 2.6875 54.6875 
L 9.28125 54.6875 
L 9.28125 70.21875 
z
" id="BitstreamVeraSans-Roman-74"/>
     <path d="M 54.890625 33.015625 
L 54.890625 0 
L 45.90625 0 
L 45.90625 32.71875 
Q 45.90625 40.484375 42.875 44.328125 
Q 39.84375 48.1875 33.796875 48.1875 
Q 26.515625 48.1875 22.3125 43.546875 
Q 18.109375 38.921875 18.109375 30.90625 
L 18.109375 0 
L 9.078125 0 
L 9.078125 54.6875 
L 18.109375 54.6875 
L 18.109375 46.1875 
Q 21.34375 51.125 25.703125 53.5625 
Q 30.078125 56 35.796875 56 
Q 45.21875 56 50.046875 50.171875 
Q 54.890625 44.34375 54.890625 33.015625 
" id="BitstreamVeraSans-Roman-6e"/>
     <path d="M 34.1875 63.1875 
L 20.796875 26.90625 
L 47.609375 26.90625 
z
M 28.609375 72.90625 
L 39.796875 72.90625 
L 67.578125 0 
L 57.328125 0 
L 50.6875 18.703125 
L 17.828125 18.703125 
L 11.1875 0 
L 0.78125 0 
z
" id="BitstreamVeraSans-Roman-41"/>
    </defs>
    <g transform="translate(144.53625 18.14175)scale(0.144 -0.144)">
     <use xlink:href="#BitstreamVeraSans-Roman-41"/>
     <use x="68.330078125" xlink:href="#BitstreamVeraSans-Roman-76"/>
     <use x="127.509765625" xlink:href="#BitstreamVeraSans-Roman-65"/>
     <use x="189.033203125" xlink:href="#BitstreamVeraSans-Roman-72"/>
     <use x="230.146484375" xlink:href="#BitstreamVeraSans-Roman-61"/>
     <use x="291.42578125" xlink:href="#BitstreamVeraSans-Roman-67"/>
     <use x="354.90234375" xlink:href="#BitstreamVeraSans-Roman-65"/>
     <use x="416.42578125" xlink:href="#BitstreamVeraSans-Roman-20"/>
     <use x="448.212890625" xlink:href="#BitstreamVeraSans-Roman-6d"/>
     <use x="545.625" xlink:href="#BitstreamVeraSans-Roman-61"/>
     <use x="606.904296875" xlink:href="#BitstreamVeraSans-Roman-78"/>
     <use x="666.083984375" xlink:href="#BitstreamVeraSans-Roman-51"/>
     <use x="744.794921875" xlink:href="#BitstreamVeraSans-Roman-20"/>
     <use x="776.58203125" xlink:href="#BitstreamVeraSans-Roman-70"/>
     <use x="840.05859375" xlink:href="#BitstreamVeraSans-Roman-65"/>
     <use x="901.58203125" xlink:href="#BitstreamVeraSans-Roman-72"/>
     <use x="942.6953125" xlink:href="#BitstreamVeraSans-Roman-20"/>
     <use x="974.482421875" xlink:href="#BitstreamVeraSans-Roman-65"/>
     <use x="1036.005859375" xlink:href="#BitstreamVeraSans-Roman-70"/>
     <use x="1099.482421875" xlink:href="#BitstreamVeraSans-Roman-69"/>
     <use x="1127.265625" xlink:href="#BitstreamVeraSans-Roman-73"/>
     <use x="1179.365234375" xlink:href="#BitstreamVeraSans-Roman-6f"/>
     <use x="1240.546875" xlink:href="#BitstreamVeraSans-Roman-64"/>
     <use x="1304.0234375" xlink:href="#BitstreamVeraSans-Roman-65"/>
     <use x="1365.546875" xlink:href="#BitstreamVeraSans-Roman-2c"/>
     <use x="1397.333984375" xlink:href="#BitstreamVeraSans-Roman-20"/>
     <use x="1429.12109375" xlink:href="#BitstreamVeraSans-Roman-6a"/>
     <use x="1456.904296875" xlink:href="#BitstreamVeraSans-Roman-6f"/>
     <use x="1518.0859375" xlink:href="#BitstreamVeraSans-Roman-69"/>
     <use x="1545.869140625" xlink:href="#BitstreamVeraSans-Roman-6e"/>
     <use x="1609.248046875" xlink:href="#BitstreamVeraSans-Roman-74"/>
     <use x="1648.45703125" xlink:href="#BitstreamVeraSans-Roman-20"/>
     <use x="1680.244140625" xlink:href="#BitstreamVeraSans-Roman-31"/>
    </g>
   </g>
  </g>
 </g>
 <defs>
  <clipPath id="p413282396a">
   <rect height="345.6" width="446.4" x="46.8975" y="23.14175"/>
  </clipPath>
 </defs>
</svg>
