<?xml version="1.0" encoding="utf-8" standalone="no"?>
<!DOCTYPE svg PUBLIC "-//W3C//DTD SVG 1.1//EN"
  "http://www.w3.org/Graphics/SVG/1.1/DTD/svg11.dtd">
<!-- Created with matplotlib (http://matplotlib.org/) -->
<svg height="408pt" version="1.1" viewBox="0 0 511 408" width="511pt" xmlns="http://www.w3.org/2000/svg" xmlns:xlink="http://www.w3.org/1999/xlink">
 <defs>
  <style type="text/css">
*{stroke-linecap:butt;stroke-linejoin:round;stroke-miterlimit:100000;}
  </style>
 </defs>
 <g id="figure_1">
  <g id="patch_1">
   <path d="M 0 408.16925 
L 511.95375 408.16925 
L 511.95375 0 
L 0 0 
z
" style="fill:#ffffff;"/>
  </g>
  <g id="axes_1">
   <g id="patch_2">
    <path d="M 43.08375 368.74175 
L 489.48375 368.74175 
L 489.48375 23.14175 
L 43.08375 23.14175 
z
" style="fill:#ffffff;"/>
   </g>
   <g id="line2d_1">
    <path clip-path="url(#p39d57c922c)" d="M 43.08375 58.696696 
L 43.53015 303.980652 
L 43.97655 202.170359 
L 44.42295 230.336132 
L 44.86935 222.038268 
L 45.31575 229.708846 
L 45.76215 288.68324 
L 46.20855 203.602398 
L 46.65495 309.381793 
L 47.10135 174.697042 
L 47.54775 229.869193 
L 47.99415 258.362568 
L 48.44055 227.660361 
L 48.88695 239.134043 
L 49.33335 37.74888 
L 49.77975 264.370738 
L 50.22615 292.985125 
L 50.67255 152.18949 
L 51.11895 162.260539 
L 52.01175 292.748096 
L 52.45815 153.511822 
L 53.35095 278.582559 
L 53.79735 234.680613 
L 54.24375 249.060281 
L 54.69015 296.539639 
L 55.13655 283.846717 
L 55.58295 178.094473 
L 56.02935 269.241065 
L 56.47575 282.22771 
L 56.92215 195.784091 
L 57.36855 240.270651 
L 57.81495 258.446543 
L 58.26135 152.289566 
L 58.70775 277.182784 
L 59.15415 263.884218 
L 59.60055 97.550218 
L 60.04695 140.886958 
L 60.49335 281.222808 
L 60.93975 258.070436 
L 61.38615 282.87738 
L 61.83255 254.877166 
L 62.72535 310.855227 
L 63.17175 279.237111 
L 63.61815 228.315436 
L 64.06455 196.168625 
L 64.51095 226.555266 
L 64.95735 298.844992 
L 65.40375 99.419152 
L 65.85015 333.922375 
L 66.29655 187.375783 
L 66.74295 334.728763 
L 67.18935 262.488556 
L 67.63575 277.581855 
L 68.08215 303.993665 
L 68.52855 295.211106 
L 68.97495 301.079338 
L 69.42135 211.187703 
L 69.86775 224.198404 
L 70.31415 223.261886 
L 70.76055 295.159057 
L 71.20695 266.476897 
L 71.65335 219.111223 
L 72.09975 245.733578 
L 72.54615 219.736248 
L 72.99255 288.225697 
L 73.43895 201.284723 
L 73.88535 266.564875 
L 74.33175 221.732562 
L 74.77815 198.674361 
L 75.22455 148.237113 
L 75.67095 250.280454 
L 76.11735 285.677172 
L 76.56375 250.977475 
L 77.01015 248.133123 
L 77.45655 315.578203 
L 77.90295 303.932262 
L 78.34935 233.489961 
L 78.79575 268.649111 
L 79.24215 254.216511 
L 79.68855 278.684029 
L 80.13495 251.178135 
L 80.58135 163.519868 
L 81.02775 196.013561 
L 81.47415 194.042209 
L 81.92055 225.046111 
L 82.36695 286.660645 
L 82.81335 232.552266 
L 83.25975 291.981609 
L 83.70615 176.973942 
L 84.15255 159.419771 
L 84.59895 249.001029 
L 85.04535 288.454145 
L 85.49175 208.062959 
L 85.93815 260.039564 
L 86.38455 271.484385 
L 86.83095 277.222417 
L 87.27735 286.991614 
L 87.72375 315.083792 
L 88.17015 190.629523 
L 88.61655 246.720958 
L 89.06295 271.914611 
L 89.50935 164.840174 
L 89.95575 315.904768 
L 90.40215 306.146318 
L 90.84855 81.285314 
L 91.29495 233.30103 
L 91.74135 130.374639 
L 92.18775 264.012558 
L 92.63415 140.247273 
L 93.08055 310.234397 
L 93.52695 247.034464 
L 93.97335 281.307364 
L 94.41975 266.825615 
L 94.86615 165.764625 
L 95.31255 206.299672 
L 95.75895 288.62066 
L 96.20535 226.449657 
L 96.65175 294.985429 
L 97.09815 286.263018 
L 97.54455 196.454582 
L 97.99095 346.511337 
L 98.43735 229.487234 
L 98.88375 253.47501 
L 99.33015 226.082536 
L 99.77655 222.981953 
L 100.22295 163.231505 
L 100.66935 228.794662 
L 101.11575 207.652078 
L 101.56215 225.51382 
L 102.00855 205.962223 
L 102.45495 232.152776 
L 102.90135 244.434624 
L 103.34775 280.363474 
L 103.79415 224.810817 
L 104.24055 297.278433 
L 104.68695 232.122449 
L 105.13335 212.864809 
L 105.57975 245.490485 
L 106.02615 189.500744 
L 106.47255 171.605591 
L 106.91895 259.212718 
L 107.36535 258.702479 
L 107.81175 165.442035 
L 108.25815 230.851152 
L 108.70455 260.260295 
L 109.15095 207.385599 
L 109.59735 275.091939 
L 110.04375 194.907041 
L 110.49015 243.089857 
L 110.93655 182.266708 
L 111.38295 278.340263 
L 111.82935 243.207552 
L 112.27575 255.123757 
L 112.72215 221.620521 
L 113.16855 249.441078 
L 113.61495 191.241656 
L 114.06135 245.017364 
L 114.50775 183.995918 
L 114.95415 256.886103 
L 115.40055 231.640729 
L 115.84695 247.088099 
L 116.29335 180.368089 
L 116.73975 329.091336 
L 117.18615 248.591501 
L 117.63255 251.189963 
L 118.07895 236.722428 
L 118.52535 211.426061 
L 118.97175 220.087822 
L 119.41815 206.658161 
L 119.86455 218.61023 
L 120.31095 239.504742 
L 120.75735 235.877825 
L 121.20375 217.337796 
L 121.65015 226.418538 
L 122.09655 193.6613 
L 122.54295 200.710062 
L 122.98935 329.593603 
L 123.43575 233.548562 
L 123.88215 245.825348 
L 124.32855 249.47934 
L 124.77495 205.417007 
L 125.22135 193.821952 
L 125.66775 225.865062 
L 126.11415 208.063751 
L 126.56055 216.285979 
L 127.00695 179.597369 
L 127.45335 219.515139 
L 127.89975 170.706809 
L 128.34615 238.170497 
L 128.79255 194.303382 
L 129.23895 201.237912 
L 130.57815 249.372414 
L 131.02455 186.027707 
L 131.47095 235.272504 
L 131.91735 236.399148 
L 132.36375 222.083811 
L 132.81015 353.551672 
L 133.25655 191.10632 
L 133.70295 208.699685 
L 134.14935 188.615756 
L 134.59575 200.214245 
L 135.04215 202.751692 
L 135.48855 216.77575 
L 135.93495 238.334412 
L 136.38135 207.380478 
L 136.82775 186.5544 
L 137.27415 179.60258 
L 137.72055 236.327899 
L 138.16695 208.9334 
L 138.61335 242.709288 
L 139.05975 325.622369 
L 139.50615 241.067176 
L 139.95255 228.0653 
L 140.39895 202.424482 
L 140.84535 208.100936 
L 141.29175 223.340761 
L 141.73815 206.803577 
L 142.18455 212.769072 
L 142.63095 337.714303 
L 143.07735 191.715347 
L 143.52375 197.979236 
L 143.97015 230.282739 
L 144.41655 156.255235 
L 144.86295 353.78005 
L 145.30935 218.553009 
L 145.75575 192.667434 
L 146.20215 217.833561 
L 146.64855 222.933925 
L 147.09495 185.528306 
L 147.54135 225.194539 
L 147.98775 193.349794 
L 148.43415 183.627876 
L 148.88055 245.32491 
L 149.32695 159.793916 
L 149.77335 243.769712 
L 150.66615 155.734176 
L 151.11255 208.812559 
L 151.55895 224.408243 
L 152.00535 172.319001 
L 152.45175 186.194053 
L 152.89815 259.659868 
L 153.34455 172.814271 
L 153.79095 188.566947 
L 154.23735 177.498764 
L 154.68375 204.603688 
L 155.13015 198.574505 
L 155.57655 217.688555 
L 156.02295 224.851378 
L 156.46935 176.550414 
L 156.91575 173.330027 
L 157.36215 220.159906 
L 157.80855 233.043068 
L 158.25495 160.375785 
L 158.70135 197.172983 
L 159.14775 204.621009 
L 159.59415 229.631259 
L 160.04055 191.067776 
L 160.48695 227.098601 
L 160.93335 223.781014 
L 161.37975 206.482304 
L 161.82615 222.142022 
L 162.27255 217.831049 
L 162.71895 168.93941 
L 163.16535 201.450858 
L 163.61175 355.172075 
L 164.05815 238.665582 
L 164.50455 250.596665 
L 164.95095 236.276673 
L 165.39735 245.857138 
L 166.29015 180.476971 
L 166.73655 250.646588 
L 167.18295 191.166899 
L 167.62935 207.582459 
L 168.07575 228.421229 
L 168.52215 213.967013 
L 168.96855 178.599388 
L 169.41495 298.093305 
L 169.86135 170.195704 
L 170.30775 189.373816 
L 170.75415 186.846757 
L 171.20055 169.531351 
L 172.09335 239.679535 
L 172.53975 200.407902 
L 172.98615 218.455799 
L 173.43255 151.549302 
L 173.87895 213.510899 
L 174.32535 250.66134 
L 174.77175 179.296276 
L 175.21815 199.735998 
L 175.66455 178.33554 
L 176.11095 201.258414 
L 176.55735 298.386226 
L 177.00375 208.715683 
L 177.89655 152.481223 
L 178.34295 238.223583 
L 178.78935 185.4813 
L 179.23575 183.604023 
L 179.68215 201.613084 
L 180.12855 252.212601 
L 180.57495 190.969709 
L 181.02135 181.680198 
L 181.46775 244.661712 
L 181.91415 200.48772 
L 182.36055 227.31378 
L 182.80695 215.614082 
L 183.25335 231.610334 
L 183.69975 201.000977 
L 184.14615 314.046578 
L 184.59255 189.637294 
L 185.03895 263.824047 
L 185.48535 243.657782 
L 185.93175 175.342606 
L 186.37815 285.319604 
L 186.82455 205.143206 
L 187.27095 238.948023 
L 187.71735 189.427618 
L 188.16375 326.568656 
L 188.61015 223.658224 
L 189.05655 219.314989 
L 189.50295 242.442768 
L 189.94935 184.894915 
L 190.39575 233.0262 
L 190.84215 232.976708 
L 191.28855 197.409584 
L 191.73495 287.355042 
L 192.18135 347.089686 
L 192.62775 216.614757 
L 193.07415 198.439317 
L 193.52055 222.978827 
L 193.96695 161.302675 
L 194.41335 325.18095 
L 194.85975 207.399817 
L 195.30615 333.055279 
L 195.75255 169.683796 
L 196.19895 178.114174 
L 196.64535 190.052506 
L 197.09175 210.29134 
L 197.53815 180.844957 
L 197.98455 229.536339 
L 198.43095 252.249703 
L 198.87735 181.043629 
L 199.32375 199.551241 
L 199.77015 196.837411 
L 200.66295 228.041131 
L 201.10935 187.673826 
L 201.55575 158.394177 
L 202.00215 183.50364 
L 202.44855 259.588576 
L 202.89495 204.859931 
L 203.34135 175.343386 
L 203.78775 203.033871 
L 204.23415 311.676004 
L 204.68055 166.465596 
L 205.12695 167.71867 
L 205.57335 199.925757 
L 206.01975 242.617752 
L 206.46615 205.169258 
L 206.91255 231.175137 
L 207.35895 165.615576 
L 207.80535 187.396678 
L 208.25175 234.816111 
L 208.69815 230.995518 
L 209.14455 209.545239 
L 209.59095 237.692439 
L 210.03735 310.975339 
L 210.48375 224.787011 
L 210.93015 204.554318 
L 211.37655 156.235615 
L 211.82295 194.694461 
L 212.26935 250.726823 
L 212.71575 207.051582 
L 213.16215 224.238487 
L 213.60855 197.482135 
L 214.05495 219.344465 
L 214.94775 163.120282 
L 215.39415 147.552646 
L 215.84055 179.335544 
L 216.28695 229.456712 
L 216.73335 206.312186 
L 217.17975 202.544632 
L 217.62615 255.313837 
L 218.07255 213.850991 
L 218.51895 161.032965 
L 218.96535 220.553796 
L 219.41175 243.761712 
L 219.85815 171.554292 
L 220.30455 140.951561 
L 220.75095 206.127008 
L 221.19735 184.862577 
L 221.64375 213.030667 
L 222.09015 175.676741 
L 222.53655 181.426151 
L 222.98295 150.23647 
L 223.42935 194.052426 
L 223.87575 178.634915 
L 224.32215 216.91543 
L 224.76855 198.754254 
L 225.21495 209.032229 
L 225.66135 254.941796 
L 226.10775 251.882109 
L 226.55415 228.931553 
L 227.00055 159.176865 
L 227.44695 169.808979 
L 227.89335 200.642319 
L 228.33975 198.314019 
L 228.78615 222.69721 
L 229.23255 188.04834 
L 229.67895 255.349006 
L 230.12535 271.4676 
L 231.01815 190.922985 
L 231.46455 223.976991 
L 231.91095 161.974657 
L 232.35735 125.935256 
L 232.80375 234.975322 
L 233.25015 231.354981 
L 233.69655 193.157158 
L 234.14295 217.228877 
L 234.58935 220.905259 
L 235.03575 219.612298 
L 235.48215 207.972929 
L 235.92855 263.992635 
L 236.37495 213.983527 
L 236.82135 219.774016 
L 237.26775 194.506452 
L 237.71415 204.692102 
L 238.16055 93.610282 
L 238.60695 196.412299 
L 239.05335 165.672806 
L 239.49975 185.441821 
L 239.94615 197.663329 
L 240.39255 292.446236 
L 240.83895 198.428413 
L 241.28535 216.419305 
L 241.73175 126.61328 
L 242.17815 245.308717 
L 242.62455 220.95581 
L 243.07095 226.560268 
L 243.51735 192.274833 
L 243.96375 174.243406 
L 244.41015 191.129007 
L 244.85655 223.878859 
L 245.30295 241.053219 
L 245.74935 135.377949 
L 246.64215 225.58938 
L 247.08855 321.858212 
L 247.53495 204.009291 
L 247.98135 192.051533 
L 248.42775 188.678058 
L 248.87415 205.431602 
L 249.32055 186.519546 
L 249.76695 120.009808 
L 250.21335 99.191422 
L 250.65975 349.330056 
L 251.10615 106.900431 
L 251.55255 223.661914 
L 251.99895 119.742372 
L 252.44535 148.875343 
L 252.89175 206.725261 
L 253.33815 193.196361 
L 253.78455 222.35384 
L 254.23095 238.098306 
L 254.67735 221.620795 
L 255.12375 181.084058 
L 255.57015 230.630505 
L 256.01655 106.018391 
L 256.46295 211.706473 
L 256.90935 152.039286 
L 257.35575 233.569545 
L 257.80215 189.351068 
L 258.24855 160.364498 
L 258.69495 351.92145 
L 259.58775 70.981368 
L 260.03415 130.905507 
L 260.48055 217.086184 
L 260.92695 256.285357 
L 261.37335 257.723154 
L 261.81975 148.951664 
L 262.26615 126.212945 
L 262.71255 155.703999 
L 263.15895 175.088162 
L 263.60535 243.782712 
L 264.05175 219.654257 
L 264.49815 334.705853 
L 264.94455 191.126502 
L 265.39095 170.036167 
L 265.83735 215.439548 
L 266.28375 149.720766 
L 266.73015 207.711914 
L 267.17655 215.669233 
L 267.62295 220.891954 
L 268.06935 227.424865 
L 268.51575 205.899307 
L 268.96215 142.462809 
L 269.40855 147.92669 
L 269.85495 217.780452 
L 270.30135 215.327588 
L 270.74775 348.627684 
L 271.19415 156.987375 
L 271.64055 141.200973 
L 272.08695 225.668064 
L 272.97975 102.123769 
L 273.42615 169.491711 
L 273.87255 197.256778 
L 274.76535 112.748086 
L 275.21175 288.724352 
L 275.65815 241.179077 
L 276.10455 215.823403 
L 276.55095 208.620217 
L 276.99735 255.673819 
L 277.44375 221.605817 
L 277.89015 142.429832 
L 278.33655 254.458751 
L 278.78295 176.610115 
L 279.22935 198.894984 
L 279.67575 213.719838 
L 280.12215 204.021698 
L 280.56855 301.13482 
L 281.46135 110.869924 
L 281.90775 208.693646 
L 282.35415 221.913388 
L 282.80055 149.188366 
L 283.24695 324.941157 
L 283.69335 169.603806 
L 284.13975 159.952628 
L 284.58615 223.696547 
L 285.03255 211.872029 
L 285.47895 162.982013 
L 285.92535 208.814359 
L 286.37175 152.249033 
L 286.81815 220.596691 
L 287.26455 130.095642 
L 287.71095 164.720863 
L 288.15735 190.154554 
L 288.60375 167.58423 
L 289.05015 204.267189 
L 289.49655 119.340157 
L 289.94295 120.361347 
L 290.38935 145.01246 
L 290.83575 122.932977 
L 291.28215 152.879301 
L 291.72855 203.455496 
L 292.17495 358.402753 
L 292.62135 181.237911 
L 293.06775 209.386543 
L 293.51415 206.482547 
L 293.96055 200.846439 
L 294.40695 126.895078 
L 294.85335 349.935998 
L 295.29975 176.512745 
L 296.19255 228.399195 
L 296.63895 168.303934 
L 297.08535 185.259388 
L 297.53175 330.305366 
L 297.97815 229.139875 
L 298.42455 188.551175 
L 299.31735 77.097537 
L 300.21015 240.257935 
L 300.65655 194.992586 
L 301.10295 343.367126 
L 301.54935 162.382823 
L 301.99575 138.069128 
L 302.44215 180.956974 
L 302.88855 126.9914 
L 303.33495 206.156486 
L 303.78135 244.07223 
L 304.22775 156.490705 
L 305.12055 250.441309 
L 305.56695 217.288849 
L 306.01335 146.402613 
L 306.45975 177.552974 
L 306.90615 165.372364 
L 307.35255 114.407395 
L 308.24535 232.261383 
L 308.69175 167.887482 
L 309.13815 160.360424 
L 309.58455 326.333911 
L 310.03095 169.837685 
L 310.47735 122.791622 
L 310.92375 146.268001 
L 311.37015 198.65151 
L 311.81655 218.280299 
L 312.26295 105.778944 
L 312.70935 285.001193 
L 313.15575 81.602369 
L 313.60215 306.97975 
L 314.04855 140.068912 
L 314.49495 253.229102 
L 314.94135 152.989667 
L 315.38775 103.751039 
L 315.83415 203.865811 
L 316.28055 222.734916 
L 316.72695 139.689582 
L 317.17335 201.006884 
L 317.61975 279.119904 
L 318.06615 65.854137 
L 318.51255 160.493573 
L 318.95895 86.565894 
L 319.40535 277.105743 
L 319.85175 146.642229 
L 320.29815 201.292524 
L 320.74455 119.670238 
L 321.19095 209.779003 
L 321.63735 175.659191 
L 322.08375 278.251288 
L 322.53015 147.939821 
L 322.97655 321.431111 
L 323.86935 181.935427 
L 324.31575 177.334975 
L 324.76215 106.832911 
L 325.20855 142.538045 
L 325.65495 285.321601 
L 326.10135 209.337266 
L 326.99415 158.165934 
L 327.44055 152.31937 
L 327.88695 161.404741 
L 328.33335 124.696266 
L 328.77975 115.489591 
L 329.22615 352.144426 
L 329.67255 206.869088 
L 330.56535 100.836126 
L 331.01175 204.803765 
L 331.45815 81.671277 
L 331.90455 124.811944 
L 332.35095 298.813407 
L 332.79735 202.154188 
L 333.24375 211.571062 
L 333.69015 159.723963 
L 334.58295 176.741484 
L 335.02935 142.231926 
L 335.47575 169.424196 
L 335.92215 173.457321 
L 336.36855 122.523489 
L 336.81495 220.997599 
L 337.26135 141.66153 
L 337.70775 209.337655 
L 338.15415 138.673093 
L 338.60055 104.169996 
L 339.04695 201.933453 
L 339.49335 345.01891 
L 339.93975 125.851828 
L 340.38615 195.428336 
L 340.83255 126.601633 
L 341.27895 161.071706 
L 341.72535 161.000946 
L 342.17175 125.90198 
L 342.61815 151.763258 
L 343.06455 273.331868 
L 343.51095 206.80909 
L 343.95735 160.035654 
L 344.40375 164.223577 
L 344.85015 171.568768 
L 345.29655 172.2392 
L 345.74295 140.922811 
L 346.18935 132.127905 
L 346.63575 101.598265 
L 347.08215 117.036488 
L 347.52855 114.592753 
L 347.97495 149.585808 
L 348.42135 120.296127 
L 348.86775 124.796343 
L 349.31415 107.90828 
L 349.76055 124.105745 
L 350.20695 127.54218 
L 350.65335 166.929302 
L 351.09975 228.095823 
L 351.54615 122.399752 
L 351.99255 204.84226 
L 352.88535 114.215029 
L 353.33175 130.30818 
L 353.77815 177.324054 
L 354.22455 172.817955 
L 354.67095 176.400311 
L 355.11735 184.234326 
L 355.56375 211.872168 
L 356.01015 172.811807 
L 356.45655 161.247872 
L 356.90295 181.702023 
L 357.79575 160.361675 
L 358.24215 203.790256 
L 358.68855 190.846852 
L 359.13495 155.061716 
L 359.58135 169.816598 
L 360.02775 165.532434 
L 360.47415 187.810079 
L 360.92055 177.920402 
L 361.36695 177.78915 
L 361.81335 228.76684 
L 362.25975 177.347339 
L 362.70615 183.779355 
L 363.15255 173.905405 
L 363.59895 222.583181 
L 364.04535 172.954121 
L 364.49175 222.993228 
L 364.93815 166.838709 
L 365.38455 185.072933 
L 365.83095 240.598363 
L 366.27735 246.781129 
L 366.72375 171.14075 
L 367.17015 170.748161 
L 367.61655 175.463765 
L 368.06295 232.599871 
L 368.50935 180.700628 
L 368.95575 232.970052 
L 369.40215 169.558836 
L 369.84855 141.9027 
L 370.29495 153.101815 
L 370.74135 174.93361 
L 371.18775 179.882283 
L 371.63415 145.761954 
L 372.08055 151.354986 
L 372.52695 171.39507 
L 372.97335 162.871811 
L 373.41975 162.012972 
L 373.86615 147.603987 
L 374.31255 160.951589 
L 374.75895 155.080029 
L 375.20535 215.1725 
L 375.65175 137.073529 
L 376.09815 141.492302 
L 376.54455 174.071188 
L 376.99095 234.329342 
L 377.43735 192.033985 
L 377.88375 131.482027 
L 378.33015 224.812804 
L 378.77655 190.335315 
L 379.22295 145.609419 
L 379.66935 154.334601 
L 380.11575 153.780398 
L 380.56215 138.907881 
L 381.00855 186.041357 
L 381.45495 146.723289 
L 381.90135 162.96708 
L 382.34775 141.279255 
L 382.79415 152.299958 
L 383.24055 170.932152 
L 383.68695 175.385445 
L 384.13335 161.670779 
L 384.57975 154.517455 
L 385.02615 163.418593 
L 385.47255 157.869802 
L 385.91895 172.369278 
L 386.36535 152.746373 
L 386.81175 158.502606 
L 387.25815 136.530262 
L 387.70455 143.480045 
L 388.15095 167.819114 
L 388.59735 162.241586 
L 389.04375 212.669324 
L 389.49015 247.193811 
L 389.93655 153.579197 
L 390.38295 151.992069 
L 390.82935 163.903349 
L 391.27575 167.223979 
L 391.72215 223.907422 
L 392.16855 190.39108 
L 392.61495 144.701269 
L 393.06135 168.369528 
L 393.50775 168.771359 
L 393.95415 174.607266 
L 394.40055 162.695305 
L 394.84695 135.409844 
L 395.29335 175.872713 
L 395.73975 142.595174 
L 396.18615 161.936992 
L 396.63255 132.338291 
L 397.07895 130.750427 
L 397.52535 159.451419 
L 397.97175 155.120727 
L 398.41815 148.698705 
L 398.86455 167.494954 
L 399.31095 141.962673 
L 399.75735 138.460831 
L 400.20375 138.8042 
L 400.65015 129.132222 
L 401.09655 149.178804 
L 401.54295 145.716233 
L 401.98935 136.425072 
L 402.43575 192.544118 
L 402.88215 160.687155 
L 403.32855 177.074718 
L 403.77495 164.429178 
L 404.22135 144.130862 
L 404.66775 153.355599 
L 405.11415 142.385093 
L 405.56055 146.141068 
L 406.00695 176.560792 
L 406.89975 135.310022 
L 407.34615 165.548361 
L 407.79255 152.327531 
L 408.23895 172.209516 
L 408.68535 147.13224 
L 409.13175 164.711479 
L 409.57815 162.428399 
L 410.47095 146.111816 
L 410.91735 131.256788 
L 411.36375 150.499415 
L 411.81015 154.582267 
L 412.25655 140.180838 
L 412.70295 146.978137 
L 413.14935 132.612457 
L 413.59575 140.41004 
L 414.04215 140.064123 
L 414.48855 145.170047 
L 414.93495 141.48616 
L 415.38135 143.075071 
L 415.82775 135.226055 
L 416.27415 163.521976 
L 416.72055 141.148936 
L 417.16695 132.447831 
L 417.61335 151.587543 
L 418.05975 128.531448 
L 418.95255 134.968074 
L 419.39895 130.331234 
L 419.84535 145.370079 
L 420.29175 165.090366 
L 420.73815 149.087325 
L 421.18455 143.023866 
L 421.63095 138.764524 
L 422.07735 137.378822 
L 422.52375 304.893209 
L 422.97015 160.552466 
L 423.41655 145.865194 
L 423.86295 135.336799 
L 424.30935 152.020317 
L 424.75575 141.37271 
L 425.20215 318.648685 
L 425.64855 156.850114 
L 426.09495 125.826787 
L 426.54135 159.490313 
L 426.98775 154.342516 
L 427.43415 130.120045 
L 427.88055 119.576959 
L 428.32695 161.296178 
L 428.77335 162.928614 
L 429.21975 102.232342 
L 429.66615 147.215616 
L 430.11255 145.879183 
L 430.55895 148.414608 
L 431.00535 147.126014 
L 431.45175 148.164246 
L 431.89815 147.913945 
L 432.34455 137.085718 
L 432.79095 163.928973 
L 433.23735 154.567966 
L 433.68375 156.086834 
L 434.57655 145.067226 
L 435.02295 195.047298 
L 435.46935 170.572161 
L 435.91575 262.429276 
L 436.36215 137.043132 
L 436.80855 170.609788 
L 437.25495 143.107627 
L 437.70135 162.540519 
L 438.14775 150.783721 
L 439.04055 174.898364 
L 439.48695 151.447692 
L 439.93335 207.870518 
L 440.37975 155.27917 
L 440.82615 157.446725 
L 441.27255 169.882049 
L 441.71895 143.334588 
L 442.16535 144.587264 
L 442.61175 141.254177 
L 443.05815 162.356714 
L 443.50455 153.741271 
L 443.95095 183.2349 
L 444.39735 114.872926 
L 444.84375 158.11764 
L 445.29015 159.660235 
L 445.73655 146.884307 
L 446.18295 128.968122 
L 446.62935 150.133065 
L 447.07575 204.81687 
L 447.52215 137.556867 
L 447.96855 145.049807 
L 448.41495 120.785075 
L 448.86135 138.355995 
L 449.30775 168.235513 
L 449.75415 160.900471 
L 450.20055 123.257658 
L 450.64695 120.306584 
L 451.09335 126.90567 
L 451.53975 152.656056 
L 451.98615 130.255222 
L 452.43255 156.651943 
L 452.87895 166.232296 
L 453.32535 162.834186 
L 453.77175 174.3904 
L 454.21815 125.714098 
L 454.66455 139.688966 
L 455.11095 179.193533 
L 455.55735 177.722455 
L 456.00375 173.080115 
L 456.89655 151.866165 
L 457.34295 175.221555 
L 457.78935 160.729516 
L 458.23575 96.121809 
L 458.68215 126.394301 
L 459.57495 101.826417 
L 460.02135 178.69871 
L 460.46775 192.292061 
L 461.36055 131.094294 
L 461.80695 146.2358 
L 462.25335 165.335292 
L 462.69975 127.959063 
L 463.14615 153.772207 
L 463.59255 140.274601 
L 464.03895 165.184621 
L 464.48535 171.838299 
L 464.93175 152.510622 
L 465.37815 153.98033 
L 465.82455 119.221297 
L 466.27095 195.91963 
L 466.71735 131.299152 
L 467.16375 156.535317 
L 467.61015 143.737012 
L 468.05655 166.491909 
L 468.50295 156.67034 
L 468.94935 129.794678 
L 469.39575 130.858543 
L 469.84215 139.574916 
L 470.28855 129.027857 
L 470.73495 169.549228 
L 471.18135 173.142711 
L 471.62775 116.022454 
L 472.07415 105.472812 
L 472.52055 240.973231 
L 473.41335 73.516777 
L 473.85975 122.232452 
L 474.30615 138.64716 
L 474.75255 136.302232 
L 475.19895 113.564509 
L 475.64535 162.445559 
L 476.09175 170.146145 
L 476.53815 146.202295 
L 476.98455 138.242489 
L 477.43095 144.982738 
L 477.87735 125.723212 
L 478.32375 198.18669 
L 478.77015 174.964515 
L 479.21655 131.150026 
L 479.66295 164.133928 
L 480.10935 148.308311 
L 480.55575 138.992523 
L 481.00215 157.787806 
L 481.44855 117.797319 
L 481.89495 156.228993 
L 482.34135 160.268169 
L 482.78775 115.887804 
L 483.23415 135.409247 
L 483.68055 189.095752 
L 484.12695 158.479627 
L 484.57335 171.625906 
L 485.46615 60.237858 
L 485.91255 109.091508 
L 486.35895 97.770736 
L 486.80535 189.752279 
L 487.25175 227.505273 
L 487.69815 132.214064 
L 488.14455 149.834006 
L 488.59095 149.695869 
L 489.03735 162.665311 
L 489.03735 162.665311 
" style="fill:none;stroke:#0000ff;stroke-linecap:square;stroke-width:0.5;"/>
   </g>
   <g id="patch_3">
    <path d="M 43.08375 23.14175 
L 489.48375 23.14175 
" style="fill:none;stroke:#000000;stroke-linecap:square;stroke-linejoin:miter;"/>
   </g>
   <g id="patch_4">
    <path d="M 43.08375 368.74175 
L 43.08375 23.14175 
" style="fill:none;stroke:#000000;stroke-linecap:square;stroke-linejoin:miter;"/>
   </g>
   <g id="patch_5">
    <path d="M 43.08375 368.74175 
L 489.48375 368.74175 
" style="fill:none;stroke:#000000;stroke-linecap:square;stroke-linejoin:miter;"/>
   </g>
   <g id="patch_6">
    <path d="M 489.48375 368.74175 
L 489.48375 23.14175 
" style="fill:none;stroke:#000000;stroke-linecap:square;stroke-linejoin:miter;"/>
   </g>
   <g id="matplotlib.axis_1">
    <g id="xtick_1">
     <g id="line2d_2">
      <defs>
       <path d="M 0 0 
L 0 -4 
" id="mcbed05f0b5" style="stroke:#000000;stroke-width:0.5;"/>
      </defs>
      <g>
       <use style="stroke:#000000;stroke-width:0.5;" x="43.08375" xlink:href="#mcbed05f0b5" y="368.74175"/>
      </g>
     </g>
     <g id="line2d_3">
      <defs>
       <path d="M 0 0 
L 0 4 
" id="mb3afbadf0b" style="stroke:#000000;stroke-width:0.5;"/>
      </defs>
      <g>
       <use style="stroke:#000000;stroke-width:0.5;" x="43.08375" xlink:href="#mb3afbadf0b" y="23.14175"/>
      </g>
     </g>
     <g id="text_1">
      <!-- 0 -->
      <defs>
       <path d="M 31.78125 66.40625 
Q 24.171875 66.40625 20.328125 58.90625 
Q 16.5 51.421875 16.5 36.375 
Q 16.5 21.390625 20.328125 13.890625 
Q 24.171875 6.390625 31.78125 6.390625 
Q 39.453125 6.390625 43.28125 13.890625 
Q 47.125 21.390625 47.125 36.375 
Q 47.125 51.421875 43.28125 58.90625 
Q 39.453125 66.40625 31.78125 66.40625 
M 31.78125 74.21875 
Q 44.046875 74.21875 50.515625 64.515625 
Q 56.984375 54.828125 56.984375 36.375 
Q 56.984375 17.96875 50.515625 8.265625 
Q 44.046875 -1.421875 31.78125 -1.421875 
Q 19.53125 -1.421875 13.0625 8.265625 
Q 6.59375 17.96875 6.59375 36.375 
Q 6.59375 54.828125 13.0625 64.515625 
Q 19.53125 74.21875 31.78125 74.21875 
" id="BitstreamVeraSans-Roman-30"/>
      </defs>
      <g transform="translate(39.26625 381.859875)scale(0.12 -0.12)">
       <use xlink:href="#BitstreamVeraSans-Roman-30"/>
      </g>
     </g>
    </g>
    <g id="xtick_2">
     <g id="line2d_4">
      <g>
       <use style="stroke:#000000;stroke-width:0.5;" x="132.36375" xlink:href="#mcbed05f0b5" y="368.74175"/>
      </g>
     </g>
     <g id="line2d_5">
      <g>
       <use style="stroke:#000000;stroke-width:0.5;" x="132.36375" xlink:href="#mb3afbadf0b" y="23.14175"/>
      </g>
     </g>
     <g id="text_2">
      <!-- 200 -->
      <defs>
       <path d="M 19.1875 8.296875 
L 53.609375 8.296875 
L 53.609375 0 
L 7.328125 0 
L 7.328125 8.296875 
Q 12.9375 14.109375 22.625 23.890625 
Q 32.328125 33.6875 34.8125 36.53125 
Q 39.546875 41.84375 41.421875 45.53125 
Q 43.3125 49.21875 43.3125 52.78125 
Q 43.3125 58.59375 39.234375 62.25 
Q 35.15625 65.921875 28.609375 65.921875 
Q 23.96875 65.921875 18.8125 64.3125 
Q 13.671875 62.703125 7.8125 59.421875 
L 7.8125 69.390625 
Q 13.765625 71.78125 18.9375 73 
Q 24.125 74.21875 28.421875 74.21875 
Q 39.75 74.21875 46.484375 68.546875 
Q 53.21875 62.890625 53.21875 53.421875 
Q 53.21875 48.921875 51.53125 44.890625 
Q 49.859375 40.875 45.40625 35.40625 
Q 44.1875 33.984375 37.640625 27.21875 
Q 31.109375 20.453125 19.1875 8.296875 
" id="BitstreamVeraSans-Roman-32"/>
      </defs>
      <g transform="translate(120.91125 381.859875)scale(0.12 -0.12)">
       <use xlink:href="#BitstreamVeraSans-Roman-32"/>
       <use x="63.623046875" xlink:href="#BitstreamVeraSans-Roman-30"/>
       <use x="127.24609375" xlink:href="#BitstreamVeraSans-Roman-30"/>
      </g>
     </g>
    </g>
    <g id="xtick_3">
     <g id="line2d_6">
      <g>
       <use style="stroke:#000000;stroke-width:0.5;" x="221.64375" xlink:href="#mcbed05f0b5" y="368.74175"/>
      </g>
     </g>
     <g id="line2d_7">
      <g>
       <use style="stroke:#000000;stroke-width:0.5;" x="221.64375" xlink:href="#mb3afbadf0b" y="23.14175"/>
      </g>
     </g>
     <g id="text_3">
      <!-- 400 -->
      <defs>
       <path d="M 37.796875 64.3125 
L 12.890625 25.390625 
L 37.796875 25.390625 
z
M 35.203125 72.90625 
L 47.609375 72.90625 
L 47.609375 25.390625 
L 58.015625 25.390625 
L 58.015625 17.1875 
L 47.609375 17.1875 
L 47.609375 0 
L 37.796875 0 
L 37.796875 17.1875 
L 4.890625 17.1875 
L 4.890625 26.703125 
z
" id="BitstreamVeraSans-Roman-34"/>
      </defs>
      <g transform="translate(210.19125 381.859875)scale(0.12 -0.12)">
       <use xlink:href="#BitstreamVeraSans-Roman-34"/>
       <use x="63.623046875" xlink:href="#BitstreamVeraSans-Roman-30"/>
       <use x="127.24609375" xlink:href="#BitstreamVeraSans-Roman-30"/>
      </g>
     </g>
    </g>
    <g id="xtick_4">
     <g id="line2d_8">
      <g>
       <use style="stroke:#000000;stroke-width:0.5;" x="310.92375" xlink:href="#mcbed05f0b5" y="368.74175"/>
      </g>
     </g>
     <g id="line2d_9">
      <g>
       <use style="stroke:#000000;stroke-width:0.5;" x="310.92375" xlink:href="#mb3afbadf0b" y="23.14175"/>
      </g>
     </g>
     <g id="text_4">
      <!-- 600 -->
      <defs>
       <path d="M 33.015625 40.375 
Q 26.375 40.375 22.484375 35.828125 
Q 18.609375 31.296875 18.609375 23.390625 
Q 18.609375 15.53125 22.484375 10.953125 
Q 26.375 6.390625 33.015625 6.390625 
Q 39.65625 6.390625 43.53125 10.953125 
Q 47.40625 15.53125 47.40625 23.390625 
Q 47.40625 31.296875 43.53125 35.828125 
Q 39.65625 40.375 33.015625 40.375 
M 52.59375 71.296875 
L 52.59375 62.3125 
Q 48.875 64.0625 45.09375 64.984375 
Q 41.3125 65.921875 37.59375 65.921875 
Q 27.828125 65.921875 22.671875 59.328125 
Q 17.53125 52.734375 16.796875 39.40625 
Q 19.671875 43.65625 24.015625 45.921875 
Q 28.375 48.1875 33.59375 48.1875 
Q 44.578125 48.1875 50.953125 41.515625 
Q 57.328125 34.859375 57.328125 23.390625 
Q 57.328125 12.15625 50.6875 5.359375 
Q 44.046875 -1.421875 33.015625 -1.421875 
Q 20.359375 -1.421875 13.671875 8.265625 
Q 6.984375 17.96875 6.984375 36.375 
Q 6.984375 53.65625 15.1875 63.9375 
Q 23.390625 74.21875 37.203125 74.21875 
Q 40.921875 74.21875 44.703125 73.484375 
Q 48.484375 72.75 52.59375 71.296875 
" id="BitstreamVeraSans-Roman-36"/>
      </defs>
      <g transform="translate(299.47125 381.859875)scale(0.12 -0.12)">
       <use xlink:href="#BitstreamVeraSans-Roman-36"/>
       <use x="63.623046875" xlink:href="#BitstreamVeraSans-Roman-30"/>
       <use x="127.24609375" xlink:href="#BitstreamVeraSans-Roman-30"/>
      </g>
     </g>
    </g>
    <g id="xtick_5">
     <g id="line2d_10">
      <g>
       <use style="stroke:#000000;stroke-width:0.5;" x="400.20375" xlink:href="#mcbed05f0b5" y="368.74175"/>
      </g>
     </g>
     <g id="line2d_11">
      <g>
       <use style="stroke:#000000;stroke-width:0.5;" x="400.20375" xlink:href="#mb3afbadf0b" y="23.14175"/>
      </g>
     </g>
     <g id="text_5">
      <!-- 800 -->
      <defs>
       <path d="M 31.78125 34.625 
Q 24.75 34.625 20.71875 30.859375 
Q 16.703125 27.09375 16.703125 20.515625 
Q 16.703125 13.921875 20.71875 10.15625 
Q 24.75 6.390625 31.78125 6.390625 
Q 38.8125 6.390625 42.859375 10.171875 
Q 46.921875 13.96875 46.921875 20.515625 
Q 46.921875 27.09375 42.890625 30.859375 
Q 38.875 34.625 31.78125 34.625 
M 21.921875 38.8125 
Q 15.578125 40.375 12.03125 44.71875 
Q 8.5 49.078125 8.5 55.328125 
Q 8.5 64.0625 14.71875 69.140625 
Q 20.953125 74.21875 31.78125 74.21875 
Q 42.671875 74.21875 48.875 69.140625 
Q 55.078125 64.0625 55.078125 55.328125 
Q 55.078125 49.078125 51.53125 44.71875 
Q 48 40.375 41.703125 38.8125 
Q 48.828125 37.15625 52.796875 32.3125 
Q 56.78125 27.484375 56.78125 20.515625 
Q 56.78125 9.90625 50.3125 4.234375 
Q 43.84375 -1.421875 31.78125 -1.421875 
Q 19.734375 -1.421875 13.25 4.234375 
Q 6.78125 9.90625 6.78125 20.515625 
Q 6.78125 27.484375 10.78125 32.3125 
Q 14.796875 37.15625 21.921875 38.8125 
M 18.3125 54.390625 
Q 18.3125 48.734375 21.84375 45.5625 
Q 25.390625 42.390625 31.78125 42.390625 
Q 38.140625 42.390625 41.71875 45.5625 
Q 45.3125 48.734375 45.3125 54.390625 
Q 45.3125 60.0625 41.71875 63.234375 
Q 38.140625 66.40625 31.78125 66.40625 
Q 25.390625 66.40625 21.84375 63.234375 
Q 18.3125 60.0625 18.3125 54.390625 
" id="BitstreamVeraSans-Roman-38"/>
      </defs>
      <g transform="translate(388.75125 381.859875)scale(0.12 -0.12)">
       <use xlink:href="#BitstreamVeraSans-Roman-38"/>
       <use x="63.623046875" xlink:href="#BitstreamVeraSans-Roman-30"/>
       <use x="127.24609375" xlink:href="#BitstreamVeraSans-Roman-30"/>
      </g>
     </g>
    </g>
    <g id="xtick_6">
     <g id="line2d_12">
      <g>
       <use style="stroke:#000000;stroke-width:0.5;" x="489.48375" xlink:href="#mcbed05f0b5" y="368.74175"/>
      </g>
     </g>
     <g id="line2d_13">
      <g>
       <use style="stroke:#000000;stroke-width:0.5;" x="489.48375" xlink:href="#mb3afbadf0b" y="23.14175"/>
      </g>
     </g>
     <g id="text_6">
      <!-- 1000 -->
      <defs>
       <path d="M 12.40625 8.296875 
L 28.515625 8.296875 
L 28.515625 63.921875 
L 10.984375 60.40625 
L 10.984375 69.390625 
L 28.421875 72.90625 
L 38.28125 72.90625 
L 38.28125 8.296875 
L 54.390625 8.296875 
L 54.390625 0 
L 12.40625 0 
z
" id="BitstreamVeraSans-Roman-31"/>
      </defs>
      <g transform="translate(474.21375 381.859875)scale(0.12 -0.12)">
       <use xlink:href="#BitstreamVeraSans-Roman-31"/>
       <use x="63.623046875" xlink:href="#BitstreamVeraSans-Roman-30"/>
       <use x="127.24609375" xlink:href="#BitstreamVeraSans-Roman-30"/>
       <use x="190.869140625" xlink:href="#BitstreamVeraSans-Roman-30"/>
      </g>
     </g>
    </g>
    <g id="text_7">
     <!-- episode -->
     <defs>
      <path d="M 18.109375 8.203125 
L 18.109375 -20.796875 
L 9.078125 -20.796875 
L 9.078125 54.6875 
L 18.109375 54.6875 
L 18.109375 46.390625 
Q 20.953125 51.265625 25.265625 53.625 
Q 29.59375 56 35.59375 56 
Q 45.5625 56 51.78125 48.09375 
Q 58.015625 40.1875 58.015625 27.296875 
Q 58.015625 14.40625 51.78125 6.484375 
Q 45.5625 -1.421875 35.59375 -1.421875 
Q 29.59375 -1.421875 25.265625 0.953125 
Q 20.953125 3.328125 18.109375 8.203125 
M 48.6875 27.296875 
Q 48.6875 37.203125 44.609375 42.84375 
Q 40.53125 48.484375 33.40625 48.484375 
Q 26.265625 48.484375 22.1875 42.84375 
Q 18.109375 37.203125 18.109375 27.296875 
Q 18.109375 17.390625 22.1875 11.75 
Q 26.265625 6.109375 33.40625 6.109375 
Q 40.53125 6.109375 44.609375 11.75 
Q 48.6875 17.390625 48.6875 27.296875 
" id="BitstreamVeraSans-Roman-70"/>
      <path d="M 45.40625 46.390625 
L 45.40625 75.984375 
L 54.390625 75.984375 
L 54.390625 0 
L 45.40625 0 
L 45.40625 8.203125 
Q 42.578125 3.328125 38.25 0.953125 
Q 33.9375 -1.421875 27.875 -1.421875 
Q 17.96875 -1.421875 11.734375 6.484375 
Q 5.515625 14.40625 5.515625 27.296875 
Q 5.515625 40.1875 11.734375 48.09375 
Q 17.96875 56 27.875 56 
Q 33.9375 56 38.25 53.625 
Q 42.578125 51.265625 45.40625 46.390625 
M 14.796875 27.296875 
Q 14.796875 17.390625 18.875 11.75 
Q 22.953125 6.109375 30.078125 6.109375 
Q 37.203125 6.109375 41.296875 11.75 
Q 45.40625 17.390625 45.40625 27.296875 
Q 45.40625 37.203125 41.296875 42.84375 
Q 37.203125 48.484375 30.078125 48.484375 
Q 22.953125 48.484375 18.875 42.84375 
Q 14.796875 37.203125 14.796875 27.296875 
" id="BitstreamVeraSans-Roman-64"/>
      <path d="M 30.609375 48.390625 
Q 23.390625 48.390625 19.1875 42.75 
Q 14.984375 37.109375 14.984375 27.296875 
Q 14.984375 17.484375 19.15625 11.84375 
Q 23.34375 6.203125 30.609375 6.203125 
Q 37.796875 6.203125 41.984375 11.859375 
Q 46.1875 17.53125 46.1875 27.296875 
Q 46.1875 37.015625 41.984375 42.703125 
Q 37.796875 48.390625 30.609375 48.390625 
M 30.609375 56 
Q 42.328125 56 49.015625 48.375 
Q 55.71875 40.765625 55.71875 27.296875 
Q 55.71875 13.875 49.015625 6.21875 
Q 42.328125 -1.421875 30.609375 -1.421875 
Q 18.84375 -1.421875 12.171875 6.21875 
Q 5.515625 13.875 5.515625 27.296875 
Q 5.515625 40.765625 12.171875 48.375 
Q 18.84375 56 30.609375 56 
" id="BitstreamVeraSans-Roman-6f"/>
      <path d="M 56.203125 29.59375 
L 56.203125 25.203125 
L 14.890625 25.203125 
Q 15.484375 15.921875 20.484375 11.0625 
Q 25.484375 6.203125 34.421875 6.203125 
Q 39.59375 6.203125 44.453125 7.46875 
Q 49.3125 8.734375 54.109375 11.28125 
L 54.109375 2.78125 
Q 49.265625 0.734375 44.1875 -0.34375 
Q 39.109375 -1.421875 33.890625 -1.421875 
Q 20.796875 -1.421875 13.15625 6.1875 
Q 5.515625 13.8125 5.515625 26.8125 
Q 5.515625 40.234375 12.765625 48.109375 
Q 20.015625 56 32.328125 56 
Q 43.359375 56 49.78125 48.890625 
Q 56.203125 41.796875 56.203125 29.59375 
M 47.21875 32.234375 
Q 47.125 39.59375 43.09375 43.984375 
Q 39.0625 48.390625 32.421875 48.390625 
Q 24.90625 48.390625 20.390625 44.140625 
Q 15.875 39.890625 15.1875 32.171875 
z
" id="BitstreamVeraSans-Roman-65"/>
      <path d="M 9.421875 54.6875 
L 18.40625 54.6875 
L 18.40625 0 
L 9.421875 0 
z
M 9.421875 75.984375 
L 18.40625 75.984375 
L 18.40625 64.59375 
L 9.421875 64.59375 
z
" id="BitstreamVeraSans-Roman-69"/>
      <path d="M 44.28125 53.078125 
L 44.28125 44.578125 
Q 40.484375 46.53125 36.375 47.5 
Q 32.28125 48.484375 27.875 48.484375 
Q 21.1875 48.484375 17.84375 46.4375 
Q 14.5 44.390625 14.5 40.28125 
Q 14.5 37.15625 16.890625 35.375 
Q 19.28125 33.59375 26.515625 31.984375 
L 29.59375 31.296875 
Q 39.15625 29.25 43.1875 25.515625 
Q 47.21875 21.78125 47.21875 15.09375 
Q 47.21875 7.46875 41.1875 3.015625 
Q 35.15625 -1.421875 24.609375 -1.421875 
Q 20.21875 -1.421875 15.453125 -0.5625 
Q 10.6875 0.296875 5.421875 2 
L 5.421875 11.28125 
Q 10.40625 8.6875 15.234375 7.390625 
Q 20.0625 6.109375 24.8125 6.109375 
Q 31.15625 6.109375 34.5625 8.28125 
Q 37.984375 10.453125 37.984375 14.40625 
Q 37.984375 18.0625 35.515625 20.015625 
Q 33.0625 21.96875 24.703125 23.78125 
L 21.578125 24.515625 
Q 13.234375 26.265625 9.515625 29.90625 
Q 5.8125 33.546875 5.8125 39.890625 
Q 5.8125 47.609375 11.28125 51.796875 
Q 16.75 56 26.8125 56 
Q 31.78125 56 36.171875 55.265625 
Q 40.578125 54.546875 44.28125 53.078125 
" id="BitstreamVeraSans-Roman-73"/>
     </defs>
     <g transform="translate(242.818125 398.473625)scale(0.12 -0.12)">
      <use xlink:href="#BitstreamVeraSans-Roman-65"/>
      <use x="61.5234375" xlink:href="#BitstreamVeraSans-Roman-70"/>
      <use x="125.0" xlink:href="#BitstreamVeraSans-Roman-69"/>
      <use x="152.783203125" xlink:href="#BitstreamVeraSans-Roman-73"/>
      <use x="204.8828125" xlink:href="#BitstreamVeraSans-Roman-6f"/>
      <use x="266.064453125" xlink:href="#BitstreamVeraSans-Roman-64"/>
      <use x="329.541015625" xlink:href="#BitstreamVeraSans-Roman-65"/>
     </g>
    </g>
   </g>
   <g id="matplotlib.axis_2">
    <g id="ytick_1">
     <g id="line2d_14">
      <defs>
       <path d="M 0 0 
L 4 0 
" id="mb8e357b562" style="stroke:#000000;stroke-width:0.5;"/>
      </defs>
      <g>
       <use style="stroke:#000000;stroke-width:0.5;" x="43.08375" xlink:href="#mb8e357b562" y="368.74175"/>
      </g>
     </g>
     <g id="line2d_15">
      <defs>
       <path d="M 0 0 
L -4 0 
" id="m347f0da99a" style="stroke:#000000;stroke-width:0.5;"/>
      </defs>
      <g>
       <use style="stroke:#000000;stroke-width:0.5;" x="489.48375" xlink:href="#m347f0da99a" y="368.74175"/>
      </g>
     </g>
     <g id="text_8">
      <!-- 0 -->
      <g transform="translate(31.44875 372.053)scale(0.12 -0.12)">
       <use xlink:href="#BitstreamVeraSans-Roman-30"/>
      </g>
     </g>
    </g>
    <g id="ytick_2">
     <g id="line2d_16">
      <g>
       <use style="stroke:#000000;stroke-width:0.5;" x="43.08375" xlink:href="#mb8e357b562" y="282.34175"/>
      </g>
     </g>
     <g id="line2d_17">
      <g>
       <use style="stroke:#000000;stroke-width:0.5;" x="489.48375" xlink:href="#m347f0da99a" y="282.34175"/>
      </g>
     </g>
     <g id="text_9">
      <!-- 5 -->
      <defs>
       <path d="M 10.796875 72.90625 
L 49.515625 72.90625 
L 49.515625 64.59375 
L 19.828125 64.59375 
L 19.828125 46.734375 
Q 21.96875 47.46875 24.109375 47.828125 
Q 26.265625 48.1875 28.421875 48.1875 
Q 40.625 48.1875 47.75 41.5 
Q 54.890625 34.8125 54.890625 23.390625 
Q 54.890625 11.625 47.5625 5.09375 
Q 40.234375 -1.421875 26.90625 -1.421875 
Q 22.3125 -1.421875 17.546875 -0.640625 
Q 12.796875 0.140625 7.71875 1.703125 
L 7.71875 11.625 
Q 12.109375 9.234375 16.796875 8.0625 
Q 21.484375 6.890625 26.703125 6.890625 
Q 35.15625 6.890625 40.078125 11.328125 
Q 45.015625 15.765625 45.015625 23.390625 
Q 45.015625 31 40.078125 35.4375 
Q 35.15625 39.890625 26.703125 39.890625 
Q 22.75 39.890625 18.8125 39.015625 
Q 14.890625 38.140625 10.796875 36.28125 
z
" id="BitstreamVeraSans-Roman-35"/>
      </defs>
      <g transform="translate(31.44875 285.653)scale(0.12 -0.12)">
       <use xlink:href="#BitstreamVeraSans-Roman-35"/>
      </g>
     </g>
    </g>
    <g id="ytick_3">
     <g id="line2d_18">
      <g>
       <use style="stroke:#000000;stroke-width:0.5;" x="43.08375" xlink:href="#mb8e357b562" y="195.94175"/>
      </g>
     </g>
     <g id="line2d_19">
      <g>
       <use style="stroke:#000000;stroke-width:0.5;" x="489.48375" xlink:href="#m347f0da99a" y="195.94175"/>
      </g>
     </g>
     <g id="text_10">
      <!-- 10 -->
      <g transform="translate(23.81375 199.253)scale(0.12 -0.12)">
       <use xlink:href="#BitstreamVeraSans-Roman-31"/>
       <use x="63.623046875" xlink:href="#BitstreamVeraSans-Roman-30"/>
      </g>
     </g>
    </g>
    <g id="ytick_4">
     <g id="line2d_20">
      <g>
       <use style="stroke:#000000;stroke-width:0.5;" x="43.08375" xlink:href="#mb8e357b562" y="109.54175"/>
      </g>
     </g>
     <g id="line2d_21">
      <g>
       <use style="stroke:#000000;stroke-width:0.5;" x="489.48375" xlink:href="#m347f0da99a" y="109.54175"/>
      </g>
     </g>
     <g id="text_11">
      <!-- 15 -->
      <g transform="translate(23.81375 112.853)scale(0.12 -0.12)">
       <use xlink:href="#BitstreamVeraSans-Roman-31"/>
       <use x="63.623046875" xlink:href="#BitstreamVeraSans-Roman-35"/>
      </g>
     </g>
    </g>
    <g id="ytick_5">
     <g id="line2d_22">
      <g>
       <use style="stroke:#000000;stroke-width:0.5;" x="43.08375" xlink:href="#mb8e357b562" y="23.14175"/>
      </g>
     </g>
     <g id="line2d_23">
      <g>
       <use style="stroke:#000000;stroke-width:0.5;" x="489.48375" xlink:href="#m347f0da99a" y="23.14175"/>
      </g>
     </g>
     <g id="text_12">
      <!-- 20 -->
      <g transform="translate(23.81375 26.453)scale(0.12 -0.12)">
       <use xlink:href="#BitstreamVeraSans-Roman-32"/>
       <use x="63.623046875" xlink:href="#BitstreamVeraSans-Roman-30"/>
      </g>
     </g>
    </g>
    <g id="text_13">
     <!-- undisc. return -->
     <defs>
      <path id="BitstreamVeraSans-Roman-20"/>
      <path d="M 10.6875 12.40625 
L 21 12.40625 
L 21 0 
L 10.6875 0 
z
" id="BitstreamVeraSans-Roman-2e"/>
      <path d="M 18.3125 70.21875 
L 18.3125 54.6875 
L 36.8125 54.6875 
L 36.8125 47.703125 
L 18.3125 47.703125 
L 18.3125 18.015625 
Q 18.3125 11.328125 20.140625 9.421875 
Q 21.96875 7.515625 27.59375 7.515625 
L 36.8125 7.515625 
L 36.8125 0 
L 27.59375 0 
Q 17.1875 0 13.234375 3.875 
Q 9.28125 7.765625 9.28125 18.015625 
L 9.28125 47.703125 
L 2.6875 47.703125 
L 2.6875 54.6875 
L 9.28125 54.6875 
L 9.28125 70.21875 
z
" id="BitstreamVeraSans-Roman-74"/>
      <path d="M 54.890625 33.015625 
L 54.890625 0 
L 45.90625 0 
L 45.90625 32.71875 
Q 45.90625 40.484375 42.875 44.328125 
Q 39.84375 48.1875 33.796875 48.1875 
Q 26.515625 48.1875 22.3125 43.546875 
Q 18.109375 38.921875 18.109375 30.90625 
L 18.109375 0 
L 9.078125 0 
L 9.078125 54.6875 
L 18.109375 54.6875 
L 18.109375 46.1875 
Q 21.34375 51.125 25.703125 53.5625 
Q 30.078125 56 35.796875 56 
Q 45.21875 56 50.046875 50.171875 
Q 54.890625 44.34375 54.890625 33.015625 
" id="BitstreamVeraSans-Roman-6e"/>
      <path d="M 48.78125 52.59375 
L 48.78125 44.1875 
Q 44.96875 46.296875 41.140625 47.34375 
Q 37.3125 48.390625 33.40625 48.390625 
Q 24.65625 48.390625 19.8125 42.84375 
Q 14.984375 37.3125 14.984375 27.296875 
Q 14.984375 17.28125 19.8125 11.734375 
Q 24.65625 6.203125 33.40625 6.203125 
Q 37.3125 6.203125 41.140625 7.25 
Q 44.96875 8.296875 48.78125 10.40625 
L 48.78125 2.09375 
Q 45.015625 0.34375 40.984375 -0.53125 
Q 36.96875 -1.421875 32.421875 -1.421875 
Q 20.0625 -1.421875 12.78125 6.34375 
Q 5.515625 14.109375 5.515625 27.296875 
Q 5.515625 40.671875 12.859375 48.328125 
Q 20.21875 56 33.015625 56 
Q 37.15625 56 41.109375 55.140625 
Q 45.0625 54.296875 48.78125 52.59375 
" id="BitstreamVeraSans-Roman-63"/>
      <path d="M 41.109375 46.296875 
Q 39.59375 47.171875 37.8125 47.578125 
Q 36.03125 48 33.890625 48 
Q 26.265625 48 22.1875 43.046875 
Q 18.109375 38.09375 18.109375 28.8125 
L 18.109375 0 
L 9.078125 0 
L 9.078125 54.6875 
L 18.109375 54.6875 
L 18.109375 46.1875 
Q 20.953125 51.171875 25.484375 53.578125 
Q 30.03125 56 36.53125 56 
Q 37.453125 56 38.578125 55.875 
Q 39.703125 55.765625 41.0625 55.515625 
z
" id="BitstreamVeraSans-Roman-72"/>
      <path d="M 8.5 21.578125 
L 8.5 54.6875 
L 17.484375 54.6875 
L 17.484375 21.921875 
Q 17.484375 14.15625 20.5 10.265625 
Q 23.53125 6.390625 29.59375 6.390625 
Q 36.859375 6.390625 41.078125 11.03125 
Q 45.3125 15.671875 45.3125 23.6875 
L 45.3125 54.6875 
L 54.296875 54.6875 
L 54.296875 0 
L 45.3125 0 
L 45.3125 8.40625 
Q 42.046875 3.421875 37.71875 1 
Q 33.40625 -1.421875 27.6875 -1.421875 
Q 18.265625 -1.421875 13.375 4.4375 
Q 8.5 10.296875 8.5 21.578125 
" id="BitstreamVeraSans-Roman-75"/>
     </defs>
     <g transform="translate(16.318125 237.8405)rotate(-90.0)scale(0.12 -0.12)">
      <use xlink:href="#BitstreamVeraSans-Roman-75"/>
      <use x="63.37890625" xlink:href="#BitstreamVeraSans-Roman-6e"/>
      <use x="126.7578125" xlink:href="#BitstreamVeraSans-Roman-64"/>
      <use x="190.234375" xlink:href="#BitstreamVeraSans-Roman-69"/>
      <use x="218.017578125" xlink:href="#BitstreamVeraSans-Roman-73"/>
      <use x="270.1171875" xlink:href="#BitstreamVeraSans-Roman-63"/>
      <use x="325.09765625" xlink:href="#BitstreamVeraSans-Roman-2e"/>
      <use x="356.884765625" xlink:href="#BitstreamVeraSans-Roman-20"/>
      <use x="388.671875" xlink:href="#BitstreamVeraSans-Roman-72"/>
      <use x="429.75390625" xlink:href="#BitstreamVeraSans-Roman-65"/>
      <use x="491.27734375" xlink:href="#BitstreamVeraSans-Roman-74"/>
      <use x="530.486328125" xlink:href="#BitstreamVeraSans-Roman-75"/>
      <use x="593.865234375" xlink:href="#BitstreamVeraSans-Roman-72"/>
      <use x="634.962890625" xlink:href="#BitstreamVeraSans-Roman-6e"/>
     </g>
    </g>
   </g>
   <g id="text_14">
    <!-- Undiscounted return obtained -->
    <defs>
     <path d="M 48.6875 27.296875 
Q 48.6875 37.203125 44.609375 42.84375 
Q 40.53125 48.484375 33.40625 48.484375 
Q 26.265625 48.484375 22.1875 42.84375 
Q 18.109375 37.203125 18.109375 27.296875 
Q 18.109375 17.390625 22.1875 11.75 
Q 26.265625 6.109375 33.40625 6.109375 
Q 40.53125 6.109375 44.609375 11.75 
Q 48.6875 17.390625 48.6875 27.296875 
M 18.109375 46.390625 
Q 20.953125 51.265625 25.265625 53.625 
Q 29.59375 56 35.59375 56 
Q 45.5625 56 51.78125 48.09375 
Q 58.015625 40.1875 58.015625 27.296875 
Q 58.015625 14.40625 51.78125 6.484375 
Q 45.5625 -1.421875 35.59375 -1.421875 
Q 29.59375 -1.421875 25.265625 0.953125 
Q 20.953125 3.328125 18.109375 8.203125 
L 18.109375 0 
L 9.078125 0 
L 9.078125 75.984375 
L 18.109375 75.984375 
z
" id="BitstreamVeraSans-Roman-62"/>
     <path d="M 34.28125 27.484375 
Q 23.390625 27.484375 19.1875 25 
Q 14.984375 22.515625 14.984375 16.5 
Q 14.984375 11.71875 18.140625 8.90625 
Q 21.296875 6.109375 26.703125 6.109375 
Q 34.1875 6.109375 38.703125 11.40625 
Q 43.21875 16.703125 43.21875 25.484375 
L 43.21875 27.484375 
z
M 52.203125 31.203125 
L 52.203125 0 
L 43.21875 0 
L 43.21875 8.296875 
Q 40.140625 3.328125 35.546875 0.953125 
Q 30.953125 -1.421875 24.3125 -1.421875 
Q 15.921875 -1.421875 10.953125 3.296875 
Q 6 8.015625 6 15.921875 
Q 6 25.140625 12.171875 29.828125 
Q 18.359375 34.515625 30.609375 34.515625 
L 43.21875 34.515625 
L 43.21875 35.40625 
Q 43.21875 41.609375 39.140625 45 
Q 35.0625 48.390625 27.6875 48.390625 
Q 23 48.390625 18.546875 47.265625 
Q 14.109375 46.140625 10.015625 43.890625 
L 10.015625 52.203125 
Q 14.9375 54.109375 19.578125 55.046875 
Q 24.21875 56 28.609375 56 
Q 40.484375 56 46.34375 49.84375 
Q 52.203125 43.703125 52.203125 31.203125 
" id="BitstreamVeraSans-Roman-61"/>
     <path d="M 8.6875 72.90625 
L 18.609375 72.90625 
L 18.609375 28.609375 
Q 18.609375 16.890625 22.84375 11.734375 
Q 27.09375 6.59375 36.625 6.59375 
Q 46.09375 6.59375 50.34375 11.734375 
Q 54.59375 16.890625 54.59375 28.609375 
L 54.59375 72.90625 
L 64.5 72.90625 
L 64.5 27.390625 
Q 64.5 13.140625 57.4375 5.859375 
Q 50.390625 -1.421875 36.625 -1.421875 
Q 22.796875 -1.421875 15.734375 5.859375 
Q 8.6875 13.140625 8.6875 27.390625 
z
" id="BitstreamVeraSans-Roman-55"/>
    </defs>
    <g transform="translate(158.167875 18.14175)scale(0.144 -0.144)">
     <use xlink:href="#BitstreamVeraSans-Roman-55"/>
     <use x="73.193359375" xlink:href="#BitstreamVeraSans-Roman-6e"/>
     <use x="136.572265625" xlink:href="#BitstreamVeraSans-Roman-64"/>
     <use x="200.048828125" xlink:href="#BitstreamVeraSans-Roman-69"/>
     <use x="227.83203125" xlink:href="#BitstreamVeraSans-Roman-73"/>
     <use x="279.931640625" xlink:href="#BitstreamVeraSans-Roman-63"/>
     <use x="334.912109375" xlink:href="#BitstreamVeraSans-Roman-6f"/>
     <use x="396.09375" xlink:href="#BitstreamVeraSans-Roman-75"/>
     <use x="459.47265625" xlink:href="#BitstreamVeraSans-Roman-6e"/>
     <use x="522.8515625" xlink:href="#BitstreamVeraSans-Roman-74"/>
     <use x="562.060546875" xlink:href="#BitstreamVeraSans-Roman-65"/>
     <use x="623.583984375" xlink:href="#BitstreamVeraSans-Roman-64"/>
     <use x="687.060546875" xlink:href="#BitstreamVeraSans-Roman-20"/>
     <use x="718.84765625" xlink:href="#BitstreamVeraSans-Roman-72"/>
     <use x="759.9296875" xlink:href="#BitstreamVeraSans-Roman-65"/>
     <use x="821.453125" xlink:href="#BitstreamVeraSans-Roman-74"/>
     <use x="860.662109375" xlink:href="#BitstreamVeraSans-Roman-75"/>
     <use x="924.041015625" xlink:href="#BitstreamVeraSans-Roman-72"/>
     <use x="965.138671875" xlink:href="#BitstreamVeraSans-Roman-6e"/>
     <use x="1028.517578125" xlink:href="#BitstreamVeraSans-Roman-20"/>
     <use x="1060.3046875" xlink:href="#BitstreamVeraSans-Roman-6f"/>
     <use x="1121.486328125" xlink:href="#BitstreamVeraSans-Roman-62"/>
     <use x="1184.962890625" xlink:href="#BitstreamVeraSans-Roman-74"/>
     <use x="1224.171875" xlink:href="#BitstreamVeraSans-Roman-61"/>
     <use x="1285.451171875" xlink:href="#BitstreamVeraSans-Roman-69"/>
     <use x="1313.234375" xlink:href="#BitstreamVeraSans-Roman-6e"/>
     <use x="1376.61328125" xlink:href="#BitstreamVeraSans-Roman-65"/>
     <use x="1438.13671875" xlink:href="#BitstreamVeraSans-Roman-64"/>
    </g>
   </g>
  </g>
 </g>
 <defs>
  <clipPath id="p39d57c922c">
   <rect height="345.6" width="446.4" x="43.08375" y="23.14175"/>
  </clipPath>
 </defs>
</svg>
