<?xml version="1.0" encoding="utf-8" standalone="no"?>
<!DOCTYPE svg PUBLIC "-//W3C//DTD SVG 1.1//EN"
  "http://www.w3.org/Graphics/SVG/1.1/DTD/svg11.dtd">
<!-- Created with matplotlib (http://matplotlib.org/) -->
<svg height="408pt" version="1.1" viewBox="0 0 519 408" width="519pt" xmlns="http://www.w3.org/2000/svg" xmlns:xlink="http://www.w3.org/1999/xlink">
 <defs>
  <style type="text/css">
*{stroke-linecap:butt;stroke-linejoin:round;stroke-miterlimit:100000;}
  </style>
 </defs>
 <g id="figure_1">
  <g id="patch_1">
   <path d="M 0 408.16925 
L 519.585 408.16925 
L 519.585 0 
L 0 0 
z
" style="fill:#ffffff;"/>
  </g>
  <g id="axes_1">
   <g id="patch_2">
    <path d="M 46.8975 368.74175 
L 493.2975 368.74175 
L 493.2975 23.14175 
L 46.8975 23.14175 
z
" style="fill:#ffffff;"/>
   </g>
   <g id="line2d_1">
    <path clip-path="url(#pe761e03e57)" d="M 47.3439 351.508869 
L 47.7903 347.839186 
L 48.2367 354.893361 
L 48.6831 354.700225 
L 49.1295 351.135045 
L 49.5759 349.291701 
L 50.0223 351.186049 
L 50.4687 347.050152 
L 50.9151 351.923794 
L 51.3615 347.26633 
L 51.8079 350.775035 
L 52.2543 353.025689 
L 52.7007 353.885894 
L 53.1471 350.617077 
L 53.5935 350.206683 
L 54.0399 353.234716 
L 54.4863 347.395752 
L 54.9327 352.032244 
L 55.3791 341.563764 
L 55.8255 349.715532 
L 56.7183 347.257049 
L 57.1647 346.983814 
L 57.6111 348.951061 
L 58.0575 345.350711 
L 58.5039 349.534648 
L 58.9503 352.347324 
L 59.3967 343.172398 
L 59.8431 345.692519 
L 60.2895 346.374498 
L 60.7359 349.291675 
L 61.1823 349.413902 
L 61.6287 349.186518 
L 62.0751 344.706383 
L 62.5215 343.946831 
L 62.9679 348.291555 
L 63.4143 350.483159 
L 63.8607 349.888614 
L 64.7535 341.652772 
L 65.1999 347.139557 
L 65.6463 354.755435 
L 66.0927 340.562204 
L 66.5391 343.185482 
L 66.9855 347.182553 
L 67.4319 348.634104 
L 67.8783 354.448903 
L 68.3247 352.632741 
L 68.7711 348.151941 
L 69.2175 348.257918 
L 69.6639 350.984499 
L 70.1103 352.678047 
L 70.5567 351.657852 
L 71.0031 344.232572 
L 71.4495 350.243386 
L 71.8959 349.92034 
L 72.3423 346.436559 
L 72.7887 345.374421 
L 73.6815 351.239122 
L 74.1279 346.75749 
L 74.5743 345.054753 
L 75.0207 347.332175 
L 75.4671 352.188017 
L 75.9135 339.012075 
L 76.3599 351.789587 
L 76.8063 349.18522 
L 77.2527 347.436343 
L 77.6991 348.55256 
L 78.1455 347.410502 
L 79.0383 346.975627 
L 79.4847 352.398133 
L 79.9311 352.823284 
L 80.3775 347.946313 
L 80.8239 347.000546 
L 81.2703 345.341367 
L 81.7167 355.957772 
L 82.1631 350.394022 
L 82.6095 333.916618 
L 83.5023 355.288588 
L 83.9487 354.774681 
L 84.3951 339.957118 
L 84.8415 347.904397 
L 85.2879 347.913148 
L 85.7343 327.603274 
L 86.1807 347.370706 
L 86.6271 351.195627 
L 87.0735 348.991759 
L 87.5199 352.741758 
L 87.9663 353.728183 
L 88.4127 343.171634 
L 88.8591 335.679046 
L 89.3055 348.755746 
L 89.7519 352.077341 
L 90.1983 346.304485 
L 90.6447 345.317216 
L 91.0911 351.720104 
L 91.5375 351.252714 
L 91.9839 342.718916 
L 92.4303 349.755893 
L 92.8767 348.672513 
L 93.3231 352.035479 
L 93.7695 337.142474 
L 94.2159 347.506402 
L 94.6623 329.287387 
L 95.1087 344.69217 
L 96.0015 348.049748 
L 96.4479 338.309007 
L 96.8943 347.247598 
L 97.3407 350.742071 
L 97.7871 343.118403 
L 98.2335 348.765228 
L 98.6799 335.565713 
L 99.1263 349.57794 
L 99.5727 348.115508 
L 100.0191 348.254094 
L 100.4655 346.900744 
L 100.9119 341.678504 
L 101.3583 329.785733 
L 101.8047 349.023951 
L 102.2511 341.631786 
L 102.6975 347.041994 
L 103.1439 349.174492 
L 103.5903 349.275886 
L 104.0367 345.589422 
L 104.4831 323.120279 
L 104.9295 342.37407 
L 105.3759 335.358262 
L 105.8223 352.286954 
L 106.2687 336.166968 
L 106.7151 348.373622 
L 107.1615 345.494683 
L 107.6079 351.606408 
L 108.0543 345.043089 
L 108.5007 352.752214 
L 108.9471 351.003255 
L 109.3935 351.091423 
L 109.8399 329.32798 
L 110.2863 341.518818 
L 110.7327 348.103489 
L 111.1791 350.228359 
L 111.6255 326.198912 
L 112.5183 341.709972 
L 112.9647 305.233502 
L 113.4111 349.609271 
L 113.8575 315.794586 
L 114.3039 334.856107 
L 114.7503 320.136083 
L 115.1967 346.519586 
L 115.6431 347.838618 
L 116.0895 346.483323 
L 116.5359 345.756518 
L 116.9823 326.571871 
L 117.4287 341.919515 
L 117.8751 351.818507 
L 118.3215 278.063224 
L 118.7679 322.964889 
L 119.2143 231.503982 
L 119.6607 320.824711 
L 120.1071 350.668075 
L 120.5535 349.053769 
L 120.9999 306.744136 
L 121.4463 283.07612 
L 121.8927 315.081531 
L 122.3391 332.160206 
L 122.7855 316.149385 
L 123.2319 323.761407 
L 123.6783 311.584508 
L 124.1247 319.078481 
L 124.5711 312.7337 
L 125.0175 326.871168 
L 125.4639 324.571083 
L 125.9103 299.783497 
L 126.3567 339.776717 
L 126.8031 288.985471 
L 127.2495 283.653212 
L 127.6959 318.993903 
L 128.1423 324.268047 
L 128.5887 281.871669 
L 129.0351 297.297292 
L 129.4815 318.349875 
L 129.9279 288.051927 
L 130.3743 350.35113 
L 130.8207 314.253547 
L 131.2671 294.376287 
L 131.7135 228.327097 
L 132.1599 351.384244 
L 132.6063 296.650124 
L 133.0527 312.054358 
L 133.4991 258.509806 
L 133.9455 293.836502 
L 134.3919 274.339848 
L 134.8383 273.252323 
L 135.7311 317.725237 
L 136.1775 273.021159 
L 136.6239 305.58898 
L 137.0703 286.966929 
L 137.5167 235.461172 
L 138.4095 316.900493 
L 138.8559 235.533315 
L 139.3023 224.444504 
L 139.7487 288.006594 
L 140.1951 273.820854 
L 140.6415 291.746443 
L 141.5343 265.498112 
L 141.9807 277.597868 
L 142.4271 304.680663 
L 142.8735 305.44254 
L 143.3199 307.270653 
L 143.7663 320.225311 
L 144.2127 276.044409 
L 144.6591 282.848944 
L 145.1055 253.219959 
L 145.5519 292.545439 
L 145.9983 274.310684 
L 146.4447 262.1197 
L 146.8911 211.714822 
L 147.3375 247.65007 
L 147.7839 253.217311 
L 148.6767 319.840886 
L 149.1231 254.604331 
L 149.5695 303.990987 
L 150.0159 301.196926 
L 150.4623 282.488831 
L 150.9087 272.320436 
L 151.3551 315.67213 
L 152.2479 256.382435 
L 152.6943 249.758857 
L 153.1407 239.597351 
L 153.5871 194.10517 
L 154.0335 287.997636 
L 154.4799 276.494059 
L 154.9263 284.807388 
L 155.3727 211.327267 
L 155.8191 277.915313 
L 156.2655 295.953192 
L 156.7119 283.919441 
L 157.1583 244.990318 
L 157.6047 260.539364 
L 158.0511 283.684643 
L 158.4975 207.258679 
L 158.9439 271.664629 
L 159.3903 286.435051 
L 160.2831 271.10549 
L 160.7295 317.799002 
L 161.1759 287.51758 
L 161.6223 204.761401 
L 162.0687 273.74516 
L 162.5151 266.532052 
L 162.9615 291.83698 
L 163.4079 231.569799 
L 163.8543 261.50587 
L 164.3007 208.051009 
L 164.7471 220.764516 
L 165.1935 248.419004 
L 165.6399 255.1675 
L 166.0863 240.460961 
L 166.5327 236.096 
L 166.9791 253.490683 
L 167.8719 235.287923 
L 168.3183 261.340021 
L 169.2111 222.34488 
L 169.6575 248.081812 
L 170.1039 267.291588 
L 170.5503 268.640625 
L 170.9967 260.916997 
L 171.4431 274.480537 
L 171.8895 300.583401 
L 172.3359 243.048457 
L 172.7823 307.331808 
L 173.2287 266.39579 
L 173.6751 313.726575 
L 174.1215 291.569735 
L 174.5679 301.949623 
L 175.0143 273.791876 
L 175.4607 259.926883 
L 175.9071 291.061419 
L 176.3535 297.212144 
L 176.7999 266.035049 
L 177.2463 301.952491 
L 177.6927 289.729071 
L 178.5855 321.866439 
L 179.0319 304.904432 
L 179.4783 300.24228 
L 179.9247 298.648373 
L 180.3711 270.273535 
L 180.8175 266.078917 
L 181.7103 276.439616 
L 182.1567 252.919589 
L 182.6031 295.207295 
L 183.0495 249.16365 
L 183.4959 287.28764 
L 183.9423 277.122559 
L 184.3887 233.585119 
L 184.8351 268.941379 
L 185.2815 292.674794 
L 185.7279 230.18464 
L 186.1743 277.152068 
L 186.6207 219.681562 
L 187.0671 304.634983 
L 187.5135 249.919379 
L 187.9599 278.330273 
L 188.4063 284.545854 
L 188.8527 269.998052 
L 189.2991 273.238718 
L 189.7455 273.63333 
L 190.1919 317.292208 
L 190.6383 260.786645 
L 191.0847 290.240177 
L 191.5311 268.765183 
L 191.9775 287.008538 
L 192.4239 299.128855 
L 192.8703 288.881167 
L 193.3167 263.797938 
L 193.7631 310.948547 
L 194.2095 280.456484 
L 194.6559 319.750031 
L 195.1023 263.491706 
L 195.5487 267.443725 
L 195.9951 216.581387 
L 196.4415 321.760651 
L 196.8879 302.158655 
L 197.3343 291.884101 
L 197.7807 246.561611 
L 198.2271 270.821763 
L 198.6735 238.450337 
L 199.1199 296.532357 
L 199.5663 275.481842 
L 200.0127 227.156018 
L 200.4591 224.422182 
L 200.9055 238.504917 
L 201.3519 213.854163 
L 201.7983 276.582081 
L 202.2447 209.625826 
L 202.6911 249.099218 
L 203.5839 275.512747 
L 204.0303 221.824959 
L 204.4767 241.496793 
L 204.9231 218.822676 
L 205.3695 320.680339 
L 205.8159 230.605798 
L 206.2623 310.865332 
L 206.7087 234.752423 
L 207.1551 261.631441 
L 207.6015 207.44628 
L 208.0479 299.29169 
L 208.4943 149.060716 
L 208.9407 250.547615 
L 209.3871 175.634218 
L 209.8335 175.956548 
L 210.2799 152.386561 
L 210.7263 267.955725 
L 211.1727 216.799183 
L 211.6191 151.691691 
L 212.0655 279.693107 
L 212.5119 296.374245 
L 213.4047 174.54166 
L 213.8511 204.560623 
L 214.2975 215.315523 
L 214.7439 193.491909 
L 215.1903 185.865674 
L 215.6367 191.83745 
L 216.0831 157.164484 
L 216.5295 173.466344 
L 216.9759 149.478445 
L 217.4223 317.538565 
L 217.8687 274.867287 
L 218.3151 323.614056 
L 219.2079 136.029816 
L 219.6543 171.209899 
L 220.1007 159.766025 
L 220.5471 307.592429 
L 220.9935 199.469465 
L 221.4399 202.295394 
L 221.8863 172.702821 
L 222.3327 234.105397 
L 222.7791 249.182151 
L 223.2255 171.956053 
L 223.6719 189.918343 
L 224.1183 166.825567 
L 224.5647 169.406932 
L 225.0111 203.063546 
L 225.4575 215.702746 
L 225.9039 191.467748 
L 226.7967 207.248475 
L 227.2431 167.002723 
L 228.1359 243.238191 
L 228.5823 192.661269 
L 229.0287 215.703339 
L 229.4751 167.774551 
L 230.3679 183.355927 
L 230.8143 209.217793 
L 231.7071 185.422741 
L 232.1535 199.860185 
L 232.5999 179.82123 
L 233.0463 174.448083 
L 233.4927 185.756134 
L 233.9391 183.576792 
L 234.3855 187.818674 
L 234.8319 205.560682 
L 235.2783 170.203143 
L 235.7247 205.851086 
L 236.1711 167.787844 
L 236.6175 199.255574 
L 237.0639 203.447118 
L 237.5103 198.463165 
L 237.9567 208.258042 
L 238.4031 223.088596 
L 238.8495 180.092653 
L 239.2959 225.035916 
L 239.7423 212.579306 
L 240.1887 159.855368 
L 240.6351 195.992677 
L 241.0815 140.130555 
L 241.5279 211.291679 
L 241.9743 177.67846 
L 242.4207 178.251206 
L 242.8671 162.121127 
L 243.3135 164.005446 
L 243.7599 203.807449 
L 244.2063 182.126911 
L 244.6527 177.622413 
L 245.0991 180.752657 
L 245.5455 171.201267 
L 245.9919 175.908008 
L 246.4383 212.116742 
L 246.8847 175.68734 
L 247.3311 180.178946 
L 247.7775 186.692788 
L 248.2239 229.513969 
L 248.6703 151.168124 
L 249.1167 205.113188 
L 249.5631 186.489426 
L 250.0095 200.420051 
L 250.4559 247.122512 
L 250.9023 194.558704 
L 251.3487 234.490267 
L 251.7951 239.403098 
L 252.6879 209.029531 
L 253.1343 195.417842 
L 253.5807 161.669037 
L 254.0271 227.731766 
L 254.4735 203.483689 
L 254.9199 225.07042 
L 255.3663 238.906845 
L 255.8127 210.739233 
L 256.2591 219.240347 
L 256.7055 199.670409 
L 257.1519 232.575854 
L 257.5983 189.433067 
L 258.0447 199.45031 
L 258.4911 228.069583 
L 258.9375 213.535922 
L 259.3839 189.84516 
L 259.8303 197.293559 
L 260.2767 221.115171 
L 260.7231 212.646062 
L 261.1695 195.52419 
L 261.6159 222.233275 
L 262.0623 210.024562 
L 262.5087 226.363208 
L 262.9551 223.883311 
L 263.4015 186.745489 
L 263.8479 184.201378 
L 264.7407 220.579413 
L 265.1871 185.943976 
L 265.6335 183.550285 
L 266.0799 187.595416 
L 266.5263 189.281497 
L 266.9727 215.386055 
L 267.4191 188.771695 
L 267.8655 176.654903 
L 268.3119 168.171554 
L 268.7583 180.298165 
L 269.2047 216.7416 
L 269.6511 175.689272 
L 270.0975 175.42581 
L 270.5439 181.744202 
L 270.9903 209.968783 
L 271.8831 178.807163 
L 272.3295 203.909562 
L 272.7759 172.585606 
L 273.2223 188.461695 
L 273.6687 226.943592 
L 274.1151 176.537307 
L 274.5615 197.561747 
L 275.0079 191.749338 
L 275.4543 136.087317 
L 275.9007 186.615418 
L 276.3471 192.412071 
L 276.7935 183.818583 
L 277.2399 194.833188 
L 277.6863 173.638989 
L 278.1327 189.563748 
L 278.5791 163.733739 
L 279.0255 205.45081 
L 279.4719 149.925589 
L 279.9183 188.565392 
L 280.3647 175.799979 
L 280.8111 174.586294 
L 281.7039 156.347909 
L 282.1503 174.129211 
L 282.5967 170.578034 
L 283.0431 170.193553 
L 283.4895 183.304137 
L 283.9359 167.316561 
L 284.3823 193.779589 
L 284.8287 172.189454 
L 285.2751 178.283871 
L 285.7215 195.079538 
L 286.6143 133.752429 
L 287.0607 151.767556 
L 287.5071 202.12957 
L 287.9535 185.603906 
L 288.3999 173.39368 
L 288.8463 187.420696 
L 289.2927 191.354889 
L 289.7391 160.828019 
L 290.1855 175.987148 
L 290.6319 176.965983 
L 291.0783 151.624166 
L 291.5247 137.539036 
L 291.9711 136.606998 
L 292.4175 150.06011 
L 292.8639 145.120611 
L 293.3103 148.568327 
L 293.7567 169.252364 
L 294.2031 146.788922 
L 294.6495 168.046144 
L 295.0959 140.397933 
L 295.5423 158.44329 
L 295.9887 221.201286 
L 296.4351 120.419836 
L 296.8815 127.603702 
L 297.3279 126.704485 
L 297.7743 157.258187 
L 298.2207 132.855582 
L 299.1135 152.106235 
L 299.5599 179.742471 
L 300.0063 135.96739 
L 300.4527 142.327795 
L 301.3455 169.941252 
L 301.7919 142.731948 
L 302.2383 152.154259 
L 302.6847 145.735681 
L 303.1311 209.929213 
L 303.5775 146.761707 
L 304.0239 170.127302 
L 304.9167 143.827936 
L 305.3631 148.018271 
L 305.8095 128.229061 
L 306.2559 224.194497 
L 306.7023 169.502283 
L 307.1487 160.291938 
L 307.5951 169.981745 
L 308.0415 145.185269 
L 308.4879 109.177172 
L 308.9343 161.206085 
L 309.3807 150.162035 
L 309.8271 166.41948 
L 310.2735 133.095708 
L 310.7199 277.225982 
L 311.1663 147.369996 
L 311.6127 184.581181 
L 312.0591 180.118431 
L 312.5055 113.135342 
L 312.9519 198.665672 
L 313.3983 323.051548 
L 313.8447 137.063745 
L 314.2911 199.98108 
L 314.7375 231.406234 
L 315.1839 151.753534 
L 315.6303 216.105797 
L 316.0767 191.899055 
L 316.5231 176.059238 
L 316.9695 181.859194 
L 317.4159 161.286131 
L 317.8623 170.542287 
L 318.3087 143.579353 
L 318.7551 215.363456 
L 319.2015 156.481033 
L 319.6479 195.288647 
L 320.0943 194.364087 
L 320.5407 149.402952 
L 320.9871 190.214438 
L 321.4335 185.60279 
L 321.8799 209.750095 
L 322.3263 261.556212 
L 322.7727 257.361854 
L 323.2191 175.936783 
L 323.6655 165.900388 
L 324.1119 256.218755 
L 324.5583 270.399097 
L 325.0047 193.496273 
L 325.4511 255.640094 
L 325.8975 296.922121 
L 326.3439 187.245939 
L 326.7903 184.216288 
L 327.2367 176.139236 
L 327.6831 215.037139 
L 328.1295 171.65375 
L 328.5759 322.955609 
L 329.0223 206.313112 
L 329.4687 289.301244 
L 329.9151 202.610971 
L 330.3615 206.235255 
L 330.8079 128.672525 
L 331.2543 259.876911 
L 331.7007 187.020681 
L 332.1471 212.701774 
L 332.5935 197.522057 
L 333.0399 209.085358 
L 333.4863 224.728483 
L 333.9327 124.376719 
L 334.3791 220.032906 
L 334.8255 141.846852 
L 335.7183 244.91419 
L 336.1647 225.575595 
L 336.6111 139.010528 
L 337.0575 146.486608 
L 337.5039 183.809722 
L 337.9503 127.318342 
L 338.3967 129.538509 
L 338.8431 204.503625 
L 339.2895 127.93838 
L 339.7359 162.755834 
L 340.1823 150.635996 
L 340.6287 153.98968 
L 341.0751 227.022819 
L 341.5215 141.543561 
L 341.9679 166.527123 
L 342.4143 121.154571 
L 342.8607 176.306448 
L 343.3071 175.966377 
L 343.7535 109.068954 
L 344.1999 150.406578 
L 344.6463 172.713729 
L 345.0927 126.028538 
L 345.5391 119.679325 
L 345.9855 125.552321 
L 346.4319 162.214664 
L 347.3247 101.946193 
L 347.7711 218.298682 
L 348.2175 133.456095 
L 348.6639 155.425158 
L 349.1103 157.591826 
L 349.5567 108.119798 
L 350.0031 189.746135 
L 350.4495 153.800717 
L 350.8959 89.018489 
L 351.3423 83.399292 
L 351.7887 79.693913 
L 352.2351 105.226669 
L 352.6815 71.808601 
L 353.1279 93.848383 
L 353.5743 125.577937 
L 354.0207 103.955922 
L 354.4671 100.793128 
L 354.9135 157.479343 
L 355.3599 117.886895 
L 355.8063 124.515279 
L 356.2527 150.400077 
L 356.6991 111.097065 
L 357.1455 144.613513 
L 357.5919 124.96123 
L 358.0383 123.815329 
L 358.4847 118.363247 
L 358.9311 97.34088 
L 359.3775 68.508206 
L 359.8239 105.498761 
L 360.2703 124.249436 
L 360.7167 162.592195 
L 361.1631 130.296186 
L 361.6095 107.699404 
L 362.0559 206.952827 
L 362.5023 152.469502 
L 362.9487 144.233505 
L 363.3951 98.276278 
L 363.8415 133.30085 
L 364.2879 87.583229 
L 364.7343 133.671542 
L 365.1807 117.303662 
L 365.6271 55.771458 
L 366.0735 153.39933 
L 366.5199 151.334437 
L 366.9663 107.876763 
L 367.4127 124.985741 
L 367.8591 105.551334 
L 368.3055 176.814463 
L 368.7519 177.964536 
L 369.1983 115.22497 
L 369.6447 169.042216 
L 370.0911 191.631746 
L 370.9839 96.407411 
L 371.4303 137.303112 
L 371.8767 160.166758 
L 372.3231 171.776879 
L 372.7695 174.077337 
L 373.2159 162.90582 
L 373.6623 169.543399 
L 374.1087 170.492149 
L 374.5551 159.291483 
L 375.0015 170.748357 
L 375.4479 114.611139 
L 375.8943 118.869968 
L 376.3407 150.325315 
L 376.7871 212.095318 
L 377.2335 170.88382 
L 377.6799 181.586269 
L 378.1263 96.88079 
L 378.5727 163.706553 
L 379.0191 144.529379 
L 379.4655 145.478579 
L 379.9119 161.986012 
L 380.3583 110.030742 
L 380.8047 157.204245 
L 381.2511 130.370599 
L 381.6975 128.360611 
L 382.1439 174.554857 
L 382.5903 177.652986 
L 383.0367 174.252198 
L 383.4831 139.407646 
L 383.9295 138.659744 
L 384.3759 161.40596 
L 384.8223 96.553705 
L 385.2687 178.978954 
L 385.7151 120.131615 
L 386.1615 118.974055 
L 386.6079 125.924471 
L 387.0543 146.141613 
L 387.5007 139.372943 
L 387.9471 100.703713 
L 388.3935 160.98627 
L 388.8399 69.409197 
L 389.2863 130.371665 
L 389.7327 134.070455 
L 390.1791 126.551676 
L 390.6255 142.963785 
L 391.0719 128.253541 
L 391.5183 79.556301 
L 391.9647 119.797308 
L 392.4111 88.40017 
L 392.8575 121.493153 
L 393.7503 92.563376 
L 394.1967 99.894681 
L 394.6431 100.135906 
L 395.0895 94.71573 
L 395.5359 123.770137 
L 396.4287 80.772943 
L 397.3215 137.937662 
L 397.7679 131.910971 
L 398.2143 112.222894 
L 398.6607 70.943815 
L 399.1071 77.245344 
L 399.5535 104.04285 
L 399.9999 219.89885 
L 400.4463 130.967805 
L 400.8927 161.713084 
L 401.3391 75.545886 
L 401.7855 88.697147 
L 402.2319 118.070897 
L 402.6783 118.118115 
L 403.1247 98.264513 
L 403.5711 92.244686 
L 404.0175 202.493439 
L 404.4639 101.874454 
L 404.9103 82.224608 
L 405.3567 87.557598 
L 405.8031 103.478309 
L 406.2495 100.055911 
L 406.6959 120.262092 
L 407.1423 97.884622 
L 407.5887 96.382577 
L 408.0351 117.36885 
L 408.4815 116.826275 
L 408.9279 122.693199 
L 409.3743 276.107742 
L 409.8207 122.38316 
L 410.2671 87.157781 
L 410.7135 94.410263 
L 411.1599 265.056041 
L 411.6063 102.094393 
L 412.0527 119.345832 
L 412.4991 69.006156 
L 412.9455 159.880885 
L 413.3919 94.769933 
L 413.8383 117.112983 
L 414.2847 113.069464 
L 415.1775 322.09955 
L 415.6239 150.795345 
L 416.0703 196.656467 
L 416.5167 101.575816 
L 416.9631 118.679713 
L 417.4095 195.541073 
L 417.8559 116.65252 
L 418.3023 97.280547 
L 418.7487 119.251154 
L 419.1951 169.156941 
L 419.6415 109.751017 
L 420.0879 94.786699 
L 420.5343 99.957364 
L 421.4271 94.633625 
L 421.8735 105.280891 
L 422.3199 221.181726 
L 422.7663 166.935584 
L 423.2127 266.721946 
L 423.6591 123.41903 
L 424.1055 172.514913 
L 424.5519 115.645756 
L 424.9983 96.016351 
L 425.8911 113.979767 
L 426.3375 105.737011 
L 426.7839 102.118293 
L 427.2303 103.857574 
L 427.6767 108.746314 
L 428.1231 150.374121 
L 428.5695 115.390695 
L 429.0159 146.206262 
L 429.4623 60.404831 
L 429.9087 120.388598 
L 430.3551 113.096311 
L 430.8015 96.479766 
L 431.2479 87.588547 
L 431.6943 138.708411 
L 432.1407 128.885058 
L 432.5871 105.781122 
L 433.0335 106.438636 
L 433.4799 147.761041 
L 433.9263 139.197326 
L 434.3727 106.450415 
L 434.8191 177.770297 
L 435.2655 109.193104 
L 435.7119 108.541535 
L 436.1583 131.756567 
L 436.6047 94.334393 
L 437.0511 93.051149 
L 437.4975 139.335122 
L 437.9439 91.788277 
L 438.3903 87.32875 
L 438.8367 115.410098 
L 439.2831 118.378292 
L 439.7295 125.905577 
L 440.1759 130.498459 
L 440.6223 86.644603 
L 441.0687 134.391214 
L 441.9615 68.881391 
L 442.4079 188.240854 
L 442.8543 121.176912 
L 443.3007 139.970316 
L 443.7471 143.255153 
L 444.1935 107.20906 
L 444.6399 107.41434 
L 445.0863 62.266734 
L 445.5327 132.732903 
L 445.9791 84.757808 
L 446.8719 120.82077 
L 447.3183 77.545095 
L 447.7647 133.000356 
L 448.2111 138.100214 
L 448.6575 109.647453 
L 449.1039 105.363486 
L 449.5503 89.924535 
L 449.9967 108.825945 
L 450.4431 148.433653 
L 450.8895 118.610565 
L 451.3359 179.117578 
L 452.2287 100.026595 
L 452.6751 121.756352 
L 453.1215 98.369592 
L 453.5679 139.231652 
L 454.0143 79.761808 
L 454.4607 80.129136 
L 454.9071 198.331143 
L 455.3535 147.737137 
L 455.7999 191.775082 
L 456.2463 111.808887 
L 456.6927 120.23067 
L 457.1391 111.007577 
L 457.5855 125.739791 
L 458.0319 125.308603 
L 458.4783 136.883685 
L 458.9247 212.305253 
L 459.3711 114.521025 
L 459.8175 125.940717 
L 460.2639 193.68634 
L 460.7103 117.412509 
L 461.1567 128.367911 
L 461.6031 104.600194 
L 462.0495 87.498272 
L 462.9423 162.091861 
L 463.3887 75.387247 
L 463.8351 128.773498 
L 464.2815 94.999209 
L 464.7279 177.465774 
L 465.1743 124.320631 
L 465.6207 146.347904 
L 466.5135 103.142674 
L 466.9599 153.705694 
L 467.4063 113.577217 
L 467.8527 120.215315 
L 468.2991 86.02996 
L 468.7455 149.901938 
L 469.6383 47.983753 
L 470.0847 94.165963 
L 470.5311 90.909662 
L 470.9775 119.625861 
L 471.8703 102.491265 
L 472.3167 134.890944 
L 472.7631 106.941332 
L 473.2095 123.060909 
L 473.6559 81.412694 
L 474.1023 163.031516 
L 474.5487 113.751629 
L 474.9951 113.193761 
L 475.8879 144.871582 
L 476.3343 116.244054 
L 476.7807 120.261777 
L 477.2271 275.683163 
L 477.6735 101.686759 
L 478.1199 96.101635 
L 478.5663 120.861615 
L 479.0127 116.450479 
L 479.4591 137.790334 
L 479.9055 116.224937 
L 480.3519 122.257886 
L 480.7983 144.206326 
L 481.2447 117.677674 
L 481.6911 103.371627 
L 482.5839 200.675428 
L 483.0303 166.065196 
L 483.4767 116.77571 
L 483.9231 106.461103 
L 484.8159 96.10497 
L 485.2623 148.343403 
L 485.7087 113.956704 
L 486.1551 106.140722 
L 486.6015 107.036965 
L 487.0479 122.647906 
L 487.4943 97.810041 
L 487.9407 101.271189 
L 488.3871 105.93522 
L 488.8335 96.644573 
L 489.2799 121.361651 
L 489.7263 111.55255 
L 490.1727 123.887012 
L 491.0655 99.620289 
L 491.5119 117.787611 
L 491.9583 129.977272 
L 492.4047 118.613873 
L 492.8511 115.135398 
L 493.2975 89.334801 
L 493.2975 89.334801 
" style="fill:none;stroke:#0000ff;stroke-linecap:square;stroke-width:0.5;"/>
   </g>
   <g id="line2d_2">
    <path clip-path="url(#pe761e03e57)" d="M 493.2975 368.74175 
L 493.2975 23.14175 
" style="fill:none;stroke:#008000;stroke-dasharray:1.000000,3.000000;stroke-dashoffset:0.0;stroke-width:0.5;"/>
   </g>
   <g id="patch_3">
    <path d="M 46.8975 368.74175 
L 46.8975 23.14175 
" style="fill:none;stroke:#000000;stroke-linecap:square;stroke-linejoin:miter;"/>
   </g>
   <g id="patch_4">
    <path d="M 493.2975 368.74175 
L 493.2975 23.14175 
" style="fill:none;stroke:#000000;stroke-linecap:square;stroke-linejoin:miter;"/>
   </g>
   <g id="patch_5">
    <path d="M 46.8975 23.14175 
L 493.2975 23.14175 
" style="fill:none;stroke:#000000;stroke-linecap:square;stroke-linejoin:miter;"/>
   </g>
   <g id="patch_6">
    <path d="M 46.8975 368.74175 
L 493.2975 368.74175 
" style="fill:none;stroke:#000000;stroke-linecap:square;stroke-linejoin:miter;"/>
   </g>
   <g id="matplotlib.axis_1">
    <g id="xtick_1">
     <g id="line2d_3">
      <defs>
       <path d="M 0 0 
L 0 -4 
" id="m25a2eb9cec" style="stroke:#000000;stroke-width:0.5;"/>
      </defs>
      <g>
       <use style="stroke:#000000;stroke-width:0.5;" x="46.8975" xlink:href="#m25a2eb9cec" y="368.74175"/>
      </g>
     </g>
     <g id="line2d_4">
      <defs>
       <path d="M 0 0 
L 0 4 
" id="m136b9572eb" style="stroke:#000000;stroke-width:0.5;"/>
      </defs>
      <g>
       <use style="stroke:#000000;stroke-width:0.5;" x="46.8975" xlink:href="#m136b9572eb" y="23.14175"/>
      </g>
     </g>
     <g id="text_1">
      <!-- 0 -->
      <defs>
       <path d="M 31.78125 66.40625 
Q 24.171875 66.40625 20.328125 58.90625 
Q 16.5 51.421875 16.5 36.375 
Q 16.5 21.390625 20.328125 13.890625 
Q 24.171875 6.390625 31.78125 6.390625 
Q 39.453125 6.390625 43.28125 13.890625 
Q 47.125 21.390625 47.125 36.375 
Q 47.125 51.421875 43.28125 58.90625 
Q 39.453125 66.40625 31.78125 66.40625 
M 31.78125 74.21875 
Q 44.046875 74.21875 50.515625 64.515625 
Q 56.984375 54.828125 56.984375 36.375 
Q 56.984375 17.96875 50.515625 8.265625 
Q 44.046875 -1.421875 31.78125 -1.421875 
Q 19.53125 -1.421875 13.0625 8.265625 
Q 6.59375 17.96875 6.59375 36.375 
Q 6.59375 54.828125 13.0625 64.515625 
Q 19.53125 74.21875 31.78125 74.21875 
" id="BitstreamVeraSans-Roman-30"/>
      </defs>
      <g transform="translate(43.08 381.859875)scale(0.12 -0.12)">
       <use xlink:href="#BitstreamVeraSans-Roman-30"/>
      </g>
     </g>
    </g>
    <g id="xtick_2">
     <g id="line2d_5">
      <g>
       <use style="stroke:#000000;stroke-width:0.5;" x="136.1775" xlink:href="#m25a2eb9cec" y="368.74175"/>
      </g>
     </g>
     <g id="line2d_6">
      <g>
       <use style="stroke:#000000;stroke-width:0.5;" x="136.1775" xlink:href="#m136b9572eb" y="23.14175"/>
      </g>
     </g>
     <g id="text_2">
      <!-- 10000 -->
      <defs>
       <path d="M 12.40625 8.296875 
L 28.515625 8.296875 
L 28.515625 63.921875 
L 10.984375 60.40625 
L 10.984375 69.390625 
L 28.421875 72.90625 
L 38.28125 72.90625 
L 38.28125 8.296875 
L 54.390625 8.296875 
L 54.390625 0 
L 12.40625 0 
z
" id="BitstreamVeraSans-Roman-31"/>
      </defs>
      <g transform="translate(117.09 381.859875)scale(0.12 -0.12)">
       <use xlink:href="#BitstreamVeraSans-Roman-31"/>
       <use x="63.623046875" xlink:href="#BitstreamVeraSans-Roman-30"/>
       <use x="127.24609375" xlink:href="#BitstreamVeraSans-Roman-30"/>
       <use x="190.869140625" xlink:href="#BitstreamVeraSans-Roman-30"/>
       <use x="254.4921875" xlink:href="#BitstreamVeraSans-Roman-30"/>
      </g>
     </g>
    </g>
    <g id="xtick_3">
     <g id="line2d_7">
      <g>
       <use style="stroke:#000000;stroke-width:0.5;" x="225.4575" xlink:href="#m25a2eb9cec" y="368.74175"/>
      </g>
     </g>
     <g id="line2d_8">
      <g>
       <use style="stroke:#000000;stroke-width:0.5;" x="225.4575" xlink:href="#m136b9572eb" y="23.14175"/>
      </g>
     </g>
     <g id="text_3">
      <!-- 20000 -->
      <defs>
       <path d="M 19.1875 8.296875 
L 53.609375 8.296875 
L 53.609375 0 
L 7.328125 0 
L 7.328125 8.296875 
Q 12.9375 14.109375 22.625 23.890625 
Q 32.328125 33.6875 34.8125 36.53125 
Q 39.546875 41.84375 41.421875 45.53125 
Q 43.3125 49.21875 43.3125 52.78125 
Q 43.3125 58.59375 39.234375 62.25 
Q 35.15625 65.921875 28.609375 65.921875 
Q 23.96875 65.921875 18.8125 64.3125 
Q 13.671875 62.703125 7.8125 59.421875 
L 7.8125 69.390625 
Q 13.765625 71.78125 18.9375 73 
Q 24.125 74.21875 28.421875 74.21875 
Q 39.75 74.21875 46.484375 68.546875 
Q 53.21875 62.890625 53.21875 53.421875 
Q 53.21875 48.921875 51.53125 44.890625 
Q 49.859375 40.875 45.40625 35.40625 
Q 44.1875 33.984375 37.640625 27.21875 
Q 31.109375 20.453125 19.1875 8.296875 
" id="BitstreamVeraSans-Roman-32"/>
      </defs>
      <g transform="translate(206.37 381.859875)scale(0.12 -0.12)">
       <use xlink:href="#BitstreamVeraSans-Roman-32"/>
       <use x="63.623046875" xlink:href="#BitstreamVeraSans-Roman-30"/>
       <use x="127.24609375" xlink:href="#BitstreamVeraSans-Roman-30"/>
       <use x="190.869140625" xlink:href="#BitstreamVeraSans-Roman-30"/>
       <use x="254.4921875" xlink:href="#BitstreamVeraSans-Roman-30"/>
      </g>
     </g>
    </g>
    <g id="xtick_4">
     <g id="line2d_9">
      <g>
       <use style="stroke:#000000;stroke-width:0.5;" x="314.7375" xlink:href="#m25a2eb9cec" y="368.74175"/>
      </g>
     </g>
     <g id="line2d_10">
      <g>
       <use style="stroke:#000000;stroke-width:0.5;" x="314.7375" xlink:href="#m136b9572eb" y="23.14175"/>
      </g>
     </g>
     <g id="text_4">
      <!-- 30000 -->
      <defs>
       <path d="M 40.578125 39.3125 
Q 47.65625 37.796875 51.625 33 
Q 55.609375 28.21875 55.609375 21.1875 
Q 55.609375 10.40625 48.1875 4.484375 
Q 40.765625 -1.421875 27.09375 -1.421875 
Q 22.515625 -1.421875 17.65625 -0.515625 
Q 12.796875 0.390625 7.625 2.203125 
L 7.625 11.71875 
Q 11.71875 9.328125 16.59375 8.109375 
Q 21.484375 6.890625 26.8125 6.890625 
Q 36.078125 6.890625 40.9375 10.546875 
Q 45.796875 14.203125 45.796875 21.1875 
Q 45.796875 27.640625 41.28125 31.265625 
Q 36.765625 34.90625 28.71875 34.90625 
L 20.21875 34.90625 
L 20.21875 43.015625 
L 29.109375 43.015625 
Q 36.375 43.015625 40.234375 45.921875 
Q 44.09375 48.828125 44.09375 54.296875 
Q 44.09375 59.90625 40.109375 62.90625 
Q 36.140625 65.921875 28.71875 65.921875 
Q 24.65625 65.921875 20.015625 65.03125 
Q 15.375 64.15625 9.8125 62.3125 
L 9.8125 71.09375 
Q 15.4375 72.65625 20.34375 73.4375 
Q 25.25 74.21875 29.59375 74.21875 
Q 40.828125 74.21875 47.359375 69.109375 
Q 53.90625 64.015625 53.90625 55.328125 
Q 53.90625 49.265625 50.4375 45.09375 
Q 46.96875 40.921875 40.578125 39.3125 
" id="BitstreamVeraSans-Roman-33"/>
      </defs>
      <g transform="translate(295.65 381.859875)scale(0.12 -0.12)">
       <use xlink:href="#BitstreamVeraSans-Roman-33"/>
       <use x="63.623046875" xlink:href="#BitstreamVeraSans-Roman-30"/>
       <use x="127.24609375" xlink:href="#BitstreamVeraSans-Roman-30"/>
       <use x="190.869140625" xlink:href="#BitstreamVeraSans-Roman-30"/>
       <use x="254.4921875" xlink:href="#BitstreamVeraSans-Roman-30"/>
      </g>
     </g>
    </g>
    <g id="xtick_5">
     <g id="line2d_11">
      <g>
       <use style="stroke:#000000;stroke-width:0.5;" x="404.0175" xlink:href="#m25a2eb9cec" y="368.74175"/>
      </g>
     </g>
     <g id="line2d_12">
      <g>
       <use style="stroke:#000000;stroke-width:0.5;" x="404.0175" xlink:href="#m136b9572eb" y="23.14175"/>
      </g>
     </g>
     <g id="text_5">
      <!-- 40000 -->
      <defs>
       <path d="M 37.796875 64.3125 
L 12.890625 25.390625 
L 37.796875 25.390625 
z
M 35.203125 72.90625 
L 47.609375 72.90625 
L 47.609375 25.390625 
L 58.015625 25.390625 
L 58.015625 17.1875 
L 47.609375 17.1875 
L 47.609375 0 
L 37.796875 0 
L 37.796875 17.1875 
L 4.890625 17.1875 
L 4.890625 26.703125 
z
" id="BitstreamVeraSans-Roman-34"/>
      </defs>
      <g transform="translate(384.93 381.859875)scale(0.12 -0.12)">
       <use xlink:href="#BitstreamVeraSans-Roman-34"/>
       <use x="63.623046875" xlink:href="#BitstreamVeraSans-Roman-30"/>
       <use x="127.24609375" xlink:href="#BitstreamVeraSans-Roman-30"/>
       <use x="190.869140625" xlink:href="#BitstreamVeraSans-Roman-30"/>
       <use x="254.4921875" xlink:href="#BitstreamVeraSans-Roman-30"/>
      </g>
     </g>
    </g>
    <g id="xtick_6">
     <g id="line2d_13">
      <g>
       <use style="stroke:#000000;stroke-width:0.5;" x="493.2975" xlink:href="#m25a2eb9cec" y="368.74175"/>
      </g>
     </g>
     <g id="line2d_14">
      <g>
       <use style="stroke:#000000;stroke-width:0.5;" x="493.2975" xlink:href="#m136b9572eb" y="23.14175"/>
      </g>
     </g>
     <g id="text_6">
      <!-- 50000 -->
      <defs>
       <path d="M 10.796875 72.90625 
L 49.515625 72.90625 
L 49.515625 64.59375 
L 19.828125 64.59375 
L 19.828125 46.734375 
Q 21.96875 47.46875 24.109375 47.828125 
Q 26.265625 48.1875 28.421875 48.1875 
Q 40.625 48.1875 47.75 41.5 
Q 54.890625 34.8125 54.890625 23.390625 
Q 54.890625 11.625 47.5625 5.09375 
Q 40.234375 -1.421875 26.90625 -1.421875 
Q 22.3125 -1.421875 17.546875 -0.640625 
Q 12.796875 0.140625 7.71875 1.703125 
L 7.71875 11.625 
Q 12.109375 9.234375 16.796875 8.0625 
Q 21.484375 6.890625 26.703125 6.890625 
Q 35.15625 6.890625 40.078125 11.328125 
Q 45.015625 15.765625 45.015625 23.390625 
Q 45.015625 31 40.078125 35.4375 
Q 35.15625 39.890625 26.703125 39.890625 
Q 22.75 39.890625 18.8125 39.015625 
Q 14.890625 38.140625 10.796875 36.28125 
z
" id="BitstreamVeraSans-Roman-35"/>
      </defs>
      <g transform="translate(474.21 381.859875)scale(0.12 -0.12)">
       <use xlink:href="#BitstreamVeraSans-Roman-35"/>
       <use x="63.623046875" xlink:href="#BitstreamVeraSans-Roman-30"/>
       <use x="127.24609375" xlink:href="#BitstreamVeraSans-Roman-30"/>
       <use x="190.869140625" xlink:href="#BitstreamVeraSans-Roman-30"/>
       <use x="254.4921875" xlink:href="#BitstreamVeraSans-Roman-30"/>
      </g>
     </g>
    </g>
    <g id="text_7">
     <!-- transitions -->
     <defs>
      <path d="M 41.109375 46.296875 
Q 39.59375 47.171875 37.8125 47.578125 
Q 36.03125 48 33.890625 48 
Q 26.265625 48 22.1875 43.046875 
Q 18.109375 38.09375 18.109375 28.8125 
L 18.109375 0 
L 9.078125 0 
L 9.078125 54.6875 
L 18.109375 54.6875 
L 18.109375 46.1875 
Q 20.953125 51.171875 25.484375 53.578125 
Q 30.03125 56 36.53125 56 
Q 37.453125 56 38.578125 55.875 
Q 39.703125 55.765625 41.0625 55.515625 
z
" id="BitstreamVeraSans-Roman-72"/>
      <path d="M 9.421875 54.6875 
L 18.40625 54.6875 
L 18.40625 0 
L 9.421875 0 
z
M 9.421875 75.984375 
L 18.40625 75.984375 
L 18.40625 64.59375 
L 9.421875 64.59375 
z
" id="BitstreamVeraSans-Roman-69"/>
      <path d="M 54.890625 33.015625 
L 54.890625 0 
L 45.90625 0 
L 45.90625 32.71875 
Q 45.90625 40.484375 42.875 44.328125 
Q 39.84375 48.1875 33.796875 48.1875 
Q 26.515625 48.1875 22.3125 43.546875 
Q 18.109375 38.921875 18.109375 30.90625 
L 18.109375 0 
L 9.078125 0 
L 9.078125 54.6875 
L 18.109375 54.6875 
L 18.109375 46.1875 
Q 21.34375 51.125 25.703125 53.5625 
Q 30.078125 56 35.796875 56 
Q 45.21875 56 50.046875 50.171875 
Q 54.890625 44.34375 54.890625 33.015625 
" id="BitstreamVeraSans-Roman-6e"/>
      <path d="M 18.3125 70.21875 
L 18.3125 54.6875 
L 36.8125 54.6875 
L 36.8125 47.703125 
L 18.3125 47.703125 
L 18.3125 18.015625 
Q 18.3125 11.328125 20.140625 9.421875 
Q 21.96875 7.515625 27.59375 7.515625 
L 36.8125 7.515625 
L 36.8125 0 
L 27.59375 0 
Q 17.1875 0 13.234375 3.875 
Q 9.28125 7.765625 9.28125 18.015625 
L 9.28125 47.703125 
L 2.6875 47.703125 
L 2.6875 54.6875 
L 9.28125 54.6875 
L 9.28125 70.21875 
z
" id="BitstreamVeraSans-Roman-74"/>
      <path d="M 34.28125 27.484375 
Q 23.390625 27.484375 19.1875 25 
Q 14.984375 22.515625 14.984375 16.5 
Q 14.984375 11.71875 18.140625 8.90625 
Q 21.296875 6.109375 26.703125 6.109375 
Q 34.1875 6.109375 38.703125 11.40625 
Q 43.21875 16.703125 43.21875 25.484375 
L 43.21875 27.484375 
z
M 52.203125 31.203125 
L 52.203125 0 
L 43.21875 0 
L 43.21875 8.296875 
Q 40.140625 3.328125 35.546875 0.953125 
Q 30.953125 -1.421875 24.3125 -1.421875 
Q 15.921875 -1.421875 10.953125 3.296875 
Q 6 8.015625 6 15.921875 
Q 6 25.140625 12.171875 29.828125 
Q 18.359375 34.515625 30.609375 34.515625 
L 43.21875 34.515625 
L 43.21875 35.40625 
Q 43.21875 41.609375 39.140625 45 
Q 35.0625 48.390625 27.6875 48.390625 
Q 23 48.390625 18.546875 47.265625 
Q 14.109375 46.140625 10.015625 43.890625 
L 10.015625 52.203125 
Q 14.9375 54.109375 19.578125 55.046875 
Q 24.21875 56 28.609375 56 
Q 40.484375 56 46.34375 49.84375 
Q 52.203125 43.703125 52.203125 31.203125 
" id="BitstreamVeraSans-Roman-61"/>
      <path d="M 30.609375 48.390625 
Q 23.390625 48.390625 19.1875 42.75 
Q 14.984375 37.109375 14.984375 27.296875 
Q 14.984375 17.484375 19.15625 11.84375 
Q 23.34375 6.203125 30.609375 6.203125 
Q 37.796875 6.203125 41.984375 11.859375 
Q 46.1875 17.53125 46.1875 27.296875 
Q 46.1875 37.015625 41.984375 42.703125 
Q 37.796875 48.390625 30.609375 48.390625 
M 30.609375 56 
Q 42.328125 56 49.015625 48.375 
Q 55.71875 40.765625 55.71875 27.296875 
Q 55.71875 13.875 49.015625 6.21875 
Q 42.328125 -1.421875 30.609375 -1.421875 
Q 18.84375 -1.421875 12.171875 6.21875 
Q 5.515625 13.875 5.515625 27.296875 
Q 5.515625 40.765625 12.171875 48.375 
Q 18.84375 56 30.609375 56 
" id="BitstreamVeraSans-Roman-6f"/>
      <path d="M 44.28125 53.078125 
L 44.28125 44.578125 
Q 40.484375 46.53125 36.375 47.5 
Q 32.28125 48.484375 27.875 48.484375 
Q 21.1875 48.484375 17.84375 46.4375 
Q 14.5 44.390625 14.5 40.28125 
Q 14.5 37.15625 16.890625 35.375 
Q 19.28125 33.59375 26.515625 31.984375 
L 29.59375 31.296875 
Q 39.15625 29.25 43.1875 25.515625 
Q 47.21875 21.78125 47.21875 15.09375 
Q 47.21875 7.46875 41.1875 3.015625 
Q 35.15625 -1.421875 24.609375 -1.421875 
Q 20.21875 -1.421875 15.453125 -0.5625 
Q 10.6875 0.296875 5.421875 2 
L 5.421875 11.28125 
Q 10.40625 8.6875 15.234375 7.390625 
Q 20.0625 6.109375 24.8125 6.109375 
Q 31.15625 6.109375 34.5625 8.28125 
Q 37.984375 10.453125 37.984375 14.40625 
Q 37.984375 18.0625 35.515625 20.015625 
Q 33.0625 21.96875 24.703125 23.78125 
L 21.578125 24.515625 
Q 13.234375 26.265625 9.515625 29.90625 
Q 5.8125 33.546875 5.8125 39.890625 
Q 5.8125 47.609375 11.28125 51.796875 
Q 16.75 56 26.8125 56 
Q 31.78125 56 36.171875 55.265625 
Q 40.578125 54.546875 44.28125 53.078125 
" id="BitstreamVeraSans-Roman-73"/>
     </defs>
     <g transform="translate(238.3884375 398.473625)scale(0.12 -0.12)">
      <use xlink:href="#BitstreamVeraSans-Roman-74"/>
      <use x="39.208984375" xlink:href="#BitstreamVeraSans-Roman-72"/>
      <use x="80.322265625" xlink:href="#BitstreamVeraSans-Roman-61"/>
      <use x="141.6015625" xlink:href="#BitstreamVeraSans-Roman-6e"/>
      <use x="204.98046875" xlink:href="#BitstreamVeraSans-Roman-73"/>
      <use x="257.080078125" xlink:href="#BitstreamVeraSans-Roman-69"/>
      <use x="284.86328125" xlink:href="#BitstreamVeraSans-Roman-74"/>
      <use x="324.072265625" xlink:href="#BitstreamVeraSans-Roman-69"/>
      <use x="351.85546875" xlink:href="#BitstreamVeraSans-Roman-6f"/>
      <use x="413.037109375" xlink:href="#BitstreamVeraSans-Roman-6e"/>
      <use x="476.416015625" xlink:href="#BitstreamVeraSans-Roman-73"/>
     </g>
    </g>
   </g>
   <g id="matplotlib.axis_2">
    <g id="ytick_1">
     <g id="line2d_15">
      <defs>
       <path d="M 0 0 
L 4 0 
" id="me8bcfe460f" style="stroke:#000000;stroke-width:0.5;"/>
      </defs>
      <g>
       <use style="stroke:#000000;stroke-width:0.5;" x="46.8975" xlink:href="#me8bcfe460f" y="368.74175"/>
      </g>
     </g>
     <g id="line2d_16">
      <defs>
       <path d="M 0 0 
L -4 0 
" id="mc5c2b4327d" style="stroke:#000000;stroke-width:0.5;"/>
      </defs>
      <g>
       <use style="stroke:#000000;stroke-width:0.5;" x="493.2975" xlink:href="#mc5c2b4327d" y="368.74175"/>
      </g>
     </g>
     <g id="text_8">
      <!-- 0.0 -->
      <defs>
       <path d="M 10.6875 12.40625 
L 21 12.40625 
L 21 0 
L 10.6875 0 
z
" id="BitstreamVeraSans-Roman-2e"/>
      </defs>
      <g transform="translate(23.81375 372.053)scale(0.12 -0.12)">
       <use xlink:href="#BitstreamVeraSans-Roman-30"/>
       <use x="63.623046875" xlink:href="#BitstreamVeraSans-Roman-2e"/>
       <use x="95.41015625" xlink:href="#BitstreamVeraSans-Roman-30"/>
      </g>
     </g>
    </g>
    <g id="ytick_2">
     <g id="line2d_17">
      <g>
       <use style="stroke:#000000;stroke-width:0.5;" x="46.8975" xlink:href="#me8bcfe460f" y="319.370321429"/>
      </g>
     </g>
     <g id="line2d_18">
      <g>
       <use style="stroke:#000000;stroke-width:0.5;" x="493.2975" xlink:href="#mc5c2b4327d" y="319.370321429"/>
      </g>
     </g>
     <g id="text_9">
      <!-- 0.5 -->
      <g transform="translate(23.81375 322.681571429)scale(0.12 -0.12)">
       <use xlink:href="#BitstreamVeraSans-Roman-30"/>
       <use x="63.623046875" xlink:href="#BitstreamVeraSans-Roman-2e"/>
       <use x="95.41015625" xlink:href="#BitstreamVeraSans-Roman-35"/>
      </g>
     </g>
    </g>
    <g id="ytick_3">
     <g id="line2d_19">
      <g>
       <use style="stroke:#000000;stroke-width:0.5;" x="46.8975" xlink:href="#me8bcfe460f" y="269.998892857"/>
      </g>
     </g>
     <g id="line2d_20">
      <g>
       <use style="stroke:#000000;stroke-width:0.5;" x="493.2975" xlink:href="#mc5c2b4327d" y="269.998892857"/>
      </g>
     </g>
     <g id="text_10">
      <!-- 1.0 -->
      <g transform="translate(23.81375 273.310142857)scale(0.12 -0.12)">
       <use xlink:href="#BitstreamVeraSans-Roman-31"/>
       <use x="63.623046875" xlink:href="#BitstreamVeraSans-Roman-2e"/>
       <use x="95.41015625" xlink:href="#BitstreamVeraSans-Roman-30"/>
      </g>
     </g>
    </g>
    <g id="ytick_4">
     <g id="line2d_21">
      <g>
       <use style="stroke:#000000;stroke-width:0.5;" x="46.8975" xlink:href="#me8bcfe460f" y="220.627464286"/>
      </g>
     </g>
     <g id="line2d_22">
      <g>
       <use style="stroke:#000000;stroke-width:0.5;" x="493.2975" xlink:href="#mc5c2b4327d" y="220.627464286"/>
      </g>
     </g>
     <g id="text_11">
      <!-- 1.5 -->
      <g transform="translate(23.81375 223.938714286)scale(0.12 -0.12)">
       <use xlink:href="#BitstreamVeraSans-Roman-31"/>
       <use x="63.623046875" xlink:href="#BitstreamVeraSans-Roman-2e"/>
       <use x="95.41015625" xlink:href="#BitstreamVeraSans-Roman-35"/>
      </g>
     </g>
    </g>
    <g id="ytick_5">
     <g id="line2d_23">
      <g>
       <use style="stroke:#000000;stroke-width:0.5;" x="46.8975" xlink:href="#me8bcfe460f" y="171.256035714"/>
      </g>
     </g>
     <g id="line2d_24">
      <g>
       <use style="stroke:#000000;stroke-width:0.5;" x="493.2975" xlink:href="#mc5c2b4327d" y="171.256035714"/>
      </g>
     </g>
     <g id="text_12">
      <!-- 2.0 -->
      <g transform="translate(23.81375 174.567285714)scale(0.12 -0.12)">
       <use xlink:href="#BitstreamVeraSans-Roman-32"/>
       <use x="63.623046875" xlink:href="#BitstreamVeraSans-Roman-2e"/>
       <use x="95.41015625" xlink:href="#BitstreamVeraSans-Roman-30"/>
      </g>
     </g>
    </g>
    <g id="ytick_6">
     <g id="line2d_25">
      <g>
       <use style="stroke:#000000;stroke-width:0.5;" x="46.8975" xlink:href="#me8bcfe460f" y="121.884607143"/>
      </g>
     </g>
     <g id="line2d_26">
      <g>
       <use style="stroke:#000000;stroke-width:0.5;" x="493.2975" xlink:href="#mc5c2b4327d" y="121.884607143"/>
      </g>
     </g>
     <g id="text_13">
      <!-- 2.5 -->
      <g transform="translate(23.81375 125.195857143)scale(0.12 -0.12)">
       <use xlink:href="#BitstreamVeraSans-Roman-32"/>
       <use x="63.623046875" xlink:href="#BitstreamVeraSans-Roman-2e"/>
       <use x="95.41015625" xlink:href="#BitstreamVeraSans-Roman-35"/>
      </g>
     </g>
    </g>
    <g id="ytick_7">
     <g id="line2d_27">
      <g>
       <use style="stroke:#000000;stroke-width:0.5;" x="46.8975" xlink:href="#me8bcfe460f" y="72.5131785714"/>
      </g>
     </g>
     <g id="line2d_28">
      <g>
       <use style="stroke:#000000;stroke-width:0.5;" x="493.2975" xlink:href="#mc5c2b4327d" y="72.5131785714"/>
      </g>
     </g>
     <g id="text_14">
      <!-- 3.0 -->
      <g transform="translate(23.81375 75.8244285714)scale(0.12 -0.12)">
       <use xlink:href="#BitstreamVeraSans-Roman-33"/>
       <use x="63.623046875" xlink:href="#BitstreamVeraSans-Roman-2e"/>
       <use x="95.41015625" xlink:href="#BitstreamVeraSans-Roman-30"/>
      </g>
     </g>
    </g>
    <g id="ytick_8">
     <g id="line2d_29">
      <g>
       <use style="stroke:#000000;stroke-width:0.5;" x="46.8975" xlink:href="#me8bcfe460f" y="23.14175"/>
      </g>
     </g>
     <g id="line2d_30">
      <g>
       <use style="stroke:#000000;stroke-width:0.5;" x="493.2975" xlink:href="#mc5c2b4327d" y="23.14175"/>
      </g>
     </g>
     <g id="text_15">
      <!-- 3.5 -->
      <g transform="translate(23.81375 26.453)scale(0.12 -0.12)">
       <use xlink:href="#BitstreamVeraSans-Roman-33"/>
       <use x="63.623046875" xlink:href="#BitstreamVeraSans-Roman-2e"/>
       <use x="95.41015625" xlink:href="#BitstreamVeraSans-Roman-35"/>
      </g>
     </g>
    </g>
    <g id="text_16">
     <!-- returns -->
     <defs>
      <path d="M 8.5 21.578125 
L 8.5 54.6875 
L 17.484375 54.6875 
L 17.484375 21.921875 
Q 17.484375 14.15625 20.5 10.265625 
Q 23.53125 6.390625 29.59375 6.390625 
Q 36.859375 6.390625 41.078125 11.03125 
Q 45.3125 15.671875 45.3125 23.6875 
L 45.3125 54.6875 
L 54.296875 54.6875 
L 54.296875 0 
L 45.3125 0 
L 45.3125 8.40625 
Q 42.046875 3.421875 37.71875 1 
Q 33.40625 -1.421875 27.6875 -1.421875 
Q 18.265625 -1.421875 13.375 4.4375 
Q 8.5 10.296875 8.5 21.578125 
" id="BitstreamVeraSans-Roman-75"/>
      <path d="M 56.203125 29.59375 
L 56.203125 25.203125 
L 14.890625 25.203125 
Q 15.484375 15.921875 20.484375 11.0625 
Q 25.484375 6.203125 34.421875 6.203125 
Q 39.59375 6.203125 44.453125 7.46875 
Q 49.3125 8.734375 54.109375 11.28125 
L 54.109375 2.78125 
Q 49.265625 0.734375 44.1875 -0.34375 
Q 39.109375 -1.421875 33.890625 -1.421875 
Q 20.796875 -1.421875 13.15625 6.1875 
Q 5.515625 13.8125 5.515625 26.8125 
Q 5.515625 40.234375 12.765625 48.109375 
Q 20.015625 56 32.328125 56 
Q 43.359375 56 49.78125 48.890625 
Q 56.203125 41.796875 56.203125 29.59375 
M 47.21875 32.234375 
Q 47.125 39.59375 43.09375 43.984375 
Q 39.0625 48.390625 32.421875 48.390625 
Q 24.90625 48.390625 20.390625 44.140625 
Q 15.875 39.890625 15.1875 32.171875 
z
" id="BitstreamVeraSans-Roman-65"/>
     </defs>
     <g transform="translate(16.318125 217.64675)rotate(-90.0)scale(0.12 -0.12)">
      <use xlink:href="#BitstreamVeraSans-Roman-72"/>
      <use x="41.08203125" xlink:href="#BitstreamVeraSans-Roman-65"/>
      <use x="102.60546875" xlink:href="#BitstreamVeraSans-Roman-74"/>
      <use x="141.814453125" xlink:href="#BitstreamVeraSans-Roman-75"/>
      <use x="205.193359375" xlink:href="#BitstreamVeraSans-Roman-72"/>
      <use x="246.291015625" xlink:href="#BitstreamVeraSans-Roman-6e"/>
      <use x="309.669921875" xlink:href="#BitstreamVeraSans-Roman-73"/>
     </g>
    </g>
   </g>
   <g id="text_17">
    <!-- Undiscounted returns during training -->
    <defs>
     <path d="M 45.40625 27.984375 
Q 45.40625 37.75 41.375 43.109375 
Q 37.359375 48.484375 30.078125 48.484375 
Q 22.859375 48.484375 18.828125 43.109375 
Q 14.796875 37.75 14.796875 27.984375 
Q 14.796875 18.265625 18.828125 12.890625 
Q 22.859375 7.515625 30.078125 7.515625 
Q 37.359375 7.515625 41.375 12.890625 
Q 45.40625 18.265625 45.40625 27.984375 
M 54.390625 6.78125 
Q 54.390625 -7.171875 48.1875 -13.984375 
Q 42 -20.796875 29.203125 -20.796875 
Q 24.46875 -20.796875 20.265625 -20.09375 
Q 16.0625 -19.390625 12.109375 -17.921875 
L 12.109375 -9.1875 
Q 16.0625 -11.328125 19.921875 -12.34375 
Q 23.78125 -13.375 27.78125 -13.375 
Q 36.625 -13.375 41.015625 -8.765625 
Q 45.40625 -4.15625 45.40625 5.171875 
L 45.40625 9.625 
Q 42.625 4.78125 38.28125 2.390625 
Q 33.9375 0 27.875 0 
Q 17.828125 0 11.671875 7.65625 
Q 5.515625 15.328125 5.515625 27.984375 
Q 5.515625 40.671875 11.671875 48.328125 
Q 17.828125 56 27.875 56 
Q 33.9375 56 38.28125 53.609375 
Q 42.625 51.21875 45.40625 46.390625 
L 45.40625 54.6875 
L 54.390625 54.6875 
z
" id="BitstreamVeraSans-Roman-67"/>
     <path d="M 8.6875 72.90625 
L 18.609375 72.90625 
L 18.609375 28.609375 
Q 18.609375 16.890625 22.84375 11.734375 
Q 27.09375 6.59375 36.625 6.59375 
Q 46.09375 6.59375 50.34375 11.734375 
Q 54.59375 16.890625 54.59375 28.609375 
L 54.59375 72.90625 
L 64.5 72.90625 
L 64.5 27.390625 
Q 64.5 13.140625 57.4375 5.859375 
Q 50.390625 -1.421875 36.625 -1.421875 
Q 22.796875 -1.421875 15.734375 5.859375 
Q 8.6875 13.140625 8.6875 27.390625 
z
" id="BitstreamVeraSans-Roman-55"/>
     <path d="M 48.78125 52.59375 
L 48.78125 44.1875 
Q 44.96875 46.296875 41.140625 47.34375 
Q 37.3125 48.390625 33.40625 48.390625 
Q 24.65625 48.390625 19.8125 42.84375 
Q 14.984375 37.3125 14.984375 27.296875 
Q 14.984375 17.28125 19.8125 11.734375 
Q 24.65625 6.203125 33.40625 6.203125 
Q 37.3125 6.203125 41.140625 7.25 
Q 44.96875 8.296875 48.78125 10.40625 
L 48.78125 2.09375 
Q 45.015625 0.34375 40.984375 -0.53125 
Q 36.96875 -1.421875 32.421875 -1.421875 
Q 20.0625 -1.421875 12.78125 6.34375 
Q 5.515625 14.109375 5.515625 27.296875 
Q 5.515625 40.671875 12.859375 48.328125 
Q 20.21875 56 33.015625 56 
Q 37.15625 56 41.109375 55.140625 
Q 45.0625 54.296875 48.78125 52.59375 
" id="BitstreamVeraSans-Roman-63"/>
     <path id="BitstreamVeraSans-Roman-20"/>
     <path d="M 45.40625 46.390625 
L 45.40625 75.984375 
L 54.390625 75.984375 
L 54.390625 0 
L 45.40625 0 
L 45.40625 8.203125 
Q 42.578125 3.328125 38.25 0.953125 
Q 33.9375 -1.421875 27.875 -1.421875 
Q 17.96875 -1.421875 11.734375 6.484375 
Q 5.515625 14.40625 5.515625 27.296875 
Q 5.515625 40.1875 11.734375 48.09375 
Q 17.96875 56 27.875 56 
Q 33.9375 56 38.25 53.625 
Q 42.578125 51.265625 45.40625 46.390625 
M 14.796875 27.296875 
Q 14.796875 17.390625 18.875 11.75 
Q 22.953125 6.109375 30.078125 6.109375 
Q 37.203125 6.109375 41.296875 11.75 
Q 45.40625 17.390625 45.40625 27.296875 
Q 45.40625 37.203125 41.296875 42.84375 
Q 37.203125 48.484375 30.078125 48.484375 
Q 22.953125 48.484375 18.875 42.84375 
Q 14.796875 37.203125 14.796875 27.296875 
" id="BitstreamVeraSans-Roman-64"/>
    </defs>
    <g transform="translate(136.59825 18.14175)scale(0.144 -0.144)">
     <use xlink:href="#BitstreamVeraSans-Roman-55"/>
     <use x="73.193359375" xlink:href="#BitstreamVeraSans-Roman-6e"/>
     <use x="136.572265625" xlink:href="#BitstreamVeraSans-Roman-64"/>
     <use x="200.048828125" xlink:href="#BitstreamVeraSans-Roman-69"/>
     <use x="227.83203125" xlink:href="#BitstreamVeraSans-Roman-73"/>
     <use x="279.931640625" xlink:href="#BitstreamVeraSans-Roman-63"/>
     <use x="334.912109375" xlink:href="#BitstreamVeraSans-Roman-6f"/>
     <use x="396.09375" xlink:href="#BitstreamVeraSans-Roman-75"/>
     <use x="459.47265625" xlink:href="#BitstreamVeraSans-Roman-6e"/>
     <use x="522.8515625" xlink:href="#BitstreamVeraSans-Roman-74"/>
     <use x="562.060546875" xlink:href="#BitstreamVeraSans-Roman-65"/>
     <use x="623.583984375" xlink:href="#BitstreamVeraSans-Roman-64"/>
     <use x="687.060546875" xlink:href="#BitstreamVeraSans-Roman-20"/>
     <use x="718.84765625" xlink:href="#BitstreamVeraSans-Roman-72"/>
     <use x="759.9296875" xlink:href="#BitstreamVeraSans-Roman-65"/>
     <use x="821.453125" xlink:href="#BitstreamVeraSans-Roman-74"/>
     <use x="860.662109375" xlink:href="#BitstreamVeraSans-Roman-75"/>
     <use x="924.041015625" xlink:href="#BitstreamVeraSans-Roman-72"/>
     <use x="965.138671875" xlink:href="#BitstreamVeraSans-Roman-6e"/>
     <use x="1028.517578125" xlink:href="#BitstreamVeraSans-Roman-73"/>
     <use x="1080.6171875" xlink:href="#BitstreamVeraSans-Roman-20"/>
     <use x="1112.404296875" xlink:href="#BitstreamVeraSans-Roman-64"/>
     <use x="1175.880859375" xlink:href="#BitstreamVeraSans-Roman-75"/>
     <use x="1239.259765625" xlink:href="#BitstreamVeraSans-Roman-72"/>
     <use x="1280.373046875" xlink:href="#BitstreamVeraSans-Roman-69"/>
     <use x="1308.15625" xlink:href="#BitstreamVeraSans-Roman-6e"/>
     <use x="1371.53515625" xlink:href="#BitstreamVeraSans-Roman-67"/>
     <use x="1435.01171875" xlink:href="#BitstreamVeraSans-Roman-20"/>
     <use x="1466.798828125" xlink:href="#BitstreamVeraSans-Roman-74"/>
     <use x="1506.0078125" xlink:href="#BitstreamVeraSans-Roman-72"/>
     <use x="1547.12109375" xlink:href="#BitstreamVeraSans-Roman-61"/>
     <use x="1608.400390625" xlink:href="#BitstreamVeraSans-Roman-69"/>
     <use x="1636.18359375" xlink:href="#BitstreamVeraSans-Roman-6e"/>
     <use x="1699.5625" xlink:href="#BitstreamVeraSans-Roman-69"/>
     <use x="1727.345703125" xlink:href="#BitstreamVeraSans-Roman-6e"/>
     <use x="1790.724609375" xlink:href="#BitstreamVeraSans-Roman-67"/>
    </g>
   </g>
  </g>
 </g>
 <defs>
  <clipPath id="pe761e03e57">
   <rect height="345.6" width="446.4" x="46.8975" y="23.14175"/>
  </clipPath>
 </defs>
</svg>
