<?xml version="1.0" encoding="utf-8" standalone="no"?>
<!DOCTYPE svg PUBLIC "-//W3C//DTD SVG 1.1//EN"
  "http://www.w3.org/Graphics/SVG/1.1/DTD/svg11.dtd">
<!-- Created with matplotlib (http://matplotlib.org/) -->
<svg height="408pt" version="1.1" viewBox="0 0 500 408" width="500pt" xmlns="http://www.w3.org/2000/svg" xmlns:xlink="http://www.w3.org/1999/xlink">
 <defs>
  <style type="text/css">
*{stroke-linecap:butt;stroke-linejoin:round;stroke-miterlimit:100000;}
  </style>
 </defs>
 <g id="figure_1">
  <g id="patch_1">
   <path d="M 0 408.16925 
L 500.4975 408.16925 
L 500.4975 0 
L 0 0 
z
" style="fill:#ffffff;"/>
  </g>
  <g id="axes_1">
   <g id="patch_2">
    <path d="M 46.8975 368.74175 
L 493.2975 368.74175 
L 493.2975 23.14175 
L 46.8975 23.14175 
z
" style="fill:#ffffff;"/>
   </g>
   <g id="PathCollection_1">
    <defs>
     <path d="M 0 2.236068 
C 0.593012 2.236068 1.161816 2.000462 1.581139 1.581139 
C 2.000462 1.161816 2.236068 0.593012 2.236068 0 
C 2.236068 -0.593012 2.000462 -1.161816 1.581139 -1.581139 
C 1.161816 -2.000462 0.593012 -2.236068 0 -2.236068 
C -0.593012 -2.236068 -1.161816 -2.000462 -1.581139 -1.581139 
C -2.000462 -1.161816 -2.236068 -0.593012 -2.236068 0 
C -2.236068 0.593012 -2.000462 1.161816 -1.581139 1.581139 
C -1.161816 2.000462 -0.593012 2.236068 0 2.236068 
z
" id="m8404a2d19e" style="stroke:#000000;"/>
    </defs>
    <g clip-path="url(#p4d635b4368)">
     <use style="fill:#0000ff;stroke:#000000;" x="163.866839235" xlink:href="#m8404a2d19e" y="149.220618103"/>
     <use style="fill:#0000ff;stroke:#000000;" x="146.097513802" xlink:href="#m8404a2d19e" y="113.416902588"/>
     <use style="fill:#0000ff;stroke:#000000;" x="153.991779661" xlink:href="#m8404a2d19e" y="114.823344849"/>
     <use style="fill:#0000ff;stroke:#000000;" x="173.727444308" xlink:href="#m8404a2d19e" y="112.527174805"/>
     <use style="fill:#0000ff;stroke:#000000;" x="193.463184238" xlink:href="#m8404a2d19e" y="117.17509198"/>
     <use style="fill:#0000ff;stroke:#000000;" x="213.198698317" xlink:href="#m8404a2d19e" y="130.816074036"/>
     <use style="fill:#0000ff;stroke:#000000;" x="232.934362964" xlink:href="#m8404a2d19e" y="137.737048767"/>
     <use style="fill:#0000ff;stroke:#000000;" x="252.669726475" xlink:href="#m8404a2d19e" y="168.770157288"/>
     <use style="fill:#0000ff;stroke:#000000;" x="272.40516527" xlink:href="#m8404a2d19e" y="177.38542981"/>
     <use style="fill:#0000ff;stroke:#000000;" x="284.245848861" xlink:href="#m8404a2d19e" y="162.049202393"/>
     <use style="fill:#0000ff;stroke:#000000;" x="284.245698293" xlink:href="#m8404a2d19e" y="156.658101318"/>
     <use style="fill:#0000ff;stroke:#000000;" x="284.245547725" xlink:href="#m8404a2d19e" y="152.456613586"/>
     <use style="fill:#0000ff;stroke:#000000;" x="276.351319509" xlink:href="#m8404a2d19e" y="148.207706116"/>
     <use style="fill:#0000ff;stroke:#000000;" x="256.615767788" xlink:href="#m8404a2d19e" y="131.180270813"/>
     <use style="fill:#0000ff;stroke:#000000;" x="236.880216067" xlink:href="#m8404a2d19e" y="120.152194641"/>
     <use style="fill:#0000ff;stroke:#000000;" x="217.144701988" xlink:href="#m8404a2d19e" y="121.864413879"/>
     <use style="fill:#0000ff;stroke:#000000;" x="197.409037342" xlink:href="#m8404a2d19e" y="127.838106201"/>
     <use style="fill:#0000ff;stroke:#000000;" x="177.673598547" xlink:href="#m8404a2d19e" y="138.475824402"/>
     <use style="fill:#0000ff;stroke:#000000;" x="173.726503259" xlink:href="#m8404a2d19e" y="143.954884766"/>
     <use style="fill:#0000ff;stroke:#000000;" x="185.56775148" xlink:href="#m8404a2d19e" y="141.978911255"/>
     <use style="fill:#0000ff;stroke:#000000;" x="185.567299776" xlink:href="#m8404a2d19e" y="148.473067139"/>
     <use style="fill:#0000ff;stroke:#000000;" x="185.566772789" xlink:href="#m8404a2d19e" y="147.554170654"/>
     <use style="fill:#0000ff;stroke:#000000;" x="193.460586945" xlink:href="#m8404a2d19e" y="153.765662048"/>
     <use style="fill:#0000ff;stroke:#000000;" x="213.196590369" xlink:href="#m8404a2d19e" y="149.384218262"/>
     <use style="fill:#0000ff;stroke:#000000;" x="232.932593793" xlink:href="#m8404a2d19e" y="137.134517334"/>
     <use style="fill:#0000ff;stroke:#000000;" x="252.668371365" xlink:href="#m8404a2d19e" y="131.163379333"/>
     <use style="fill:#0000ff;stroke:#000000;" x="272.404036012" xlink:href="#m8404a2d19e" y="143.508166931"/>
     <use style="fill:#0000ff;stroke:#000000;" x="292.139060745" xlink:href="#m8404a2d19e" y="172.287416504"/>
     <use style="fill:#0000ff;stroke:#000000;" x="311.873972553" xlink:href="#m8404a2d19e" y="182.488716553"/>
     <use style="fill:#0000ff;stroke:#000000;" x="331.609034929" xlink:href="#m8404a2d19e" y="177.412868164"/>
     <use style="fill:#0000ff;stroke:#000000;" x="335.555866723" xlink:href="#m8404a2d19e" y="188.985879944"/>
     <use style="fill:#0000ff;stroke:#000000;" x="315.820653779" xlink:href="#m8404a2d19e" y="209.606380127"/>
     <use style="fill:#0000ff;stroke:#000000;" x="303.980158398" xlink:href="#m8404a2d19e" y="238.610368774"/>
     <use style="fill:#0000ff;stroke:#000000;" x="303.980459533" xlink:href="#m8404a2d19e" y="260.392137573"/>
     <use style="fill:#0000ff;stroke:#000000;" x="303.980685385" xlink:href="#m8404a2d19e" y="253.780894897"/>
     <use style="fill:#0000ff;stroke:#000000;" x="303.981061804" xlink:href="#m8404a2d19e" y="236.220677612"/>
     <use style="fill:#0000ff;stroke:#000000;" x="303.981212372" xlink:href="#m8404a2d19e" y="233.621449707"/>
     <use style="fill:#0000ff;stroke:#000000;" x="303.981513507" xlink:href="#m8404a2d19e" y="265.475072144"/>
     <use style="fill:#0000ff;stroke:#000000;" x="303.981588791" xlink:href="#m8404a2d19e" y="236.511623047"/>
     <use style="fill:#0000ff;stroke:#000000;" x="303.982416914" xlink:href="#m8404a2d19e" y="228.443263672"/>
     <use style="fill:#0000ff;stroke:#000000;" x="303.983470888" xlink:href="#m8404a2d19e" y="223.4058125"/>
     <use style="fill:#0000ff;stroke:#000000;" x="303.984825997" xlink:href="#m8404a2d19e" y="225.61027417"/>
     <use style="fill:#0000ff;stroke:#000000;" x="303.986105823" xlink:href="#m8404a2d19e" y="220.443129395"/>
     <use style="fill:#0000ff;stroke:#000000;" x="303.98663281" xlink:href="#m8404a2d19e" y="234.62867627"/>
     <use style="fill:#0000ff;stroke:#000000;" x="303.987084513" xlink:href="#m8404a2d19e" y="237.590205811"/>
     <use style="fill:#0000ff;stroke:#000000;" x="303.986933946" xlink:href="#m8404a2d19e" y="240.983333252"/>
     <use style="fill:#0000ff;stroke:#000000;" x="303.986933946" xlink:href="#m8404a2d19e" y="240.905138062"/>
     <use style="fill:#0000ff;stroke:#000000;" x="303.987385649" xlink:href="#m8404a2d19e" y="248.791110657"/>
     <use style="fill:#0000ff;stroke:#000000;" x="311.881275088" xlink:href="#m8404a2d19e" y="266.201076172"/>
     <use style="fill:#0000ff;stroke:#000000;" x="331.616638599" xlink:href="#m8404a2d19e" y="181.246245239"/>
     <use style="fill:#0000ff;stroke:#000000;" x="351.35237853" xlink:href="#m8404a2d19e" y="182.591713379"/>
     <use style="fill:#0000ff;stroke:#000000;" x="371.087591473" xlink:href="#m8404a2d19e" y="198.458127258"/>
     <use style="fill:#0000ff;stroke:#000000;" x="390.822804416" xlink:href="#m8404a2d19e" y="203.937476013"/>
     <use style="fill:#0000ff;stroke:#000000;" x="410.558243211" xlink:href="#m8404a2d19e" y="183.011816833"/>
     <use style="fill:#0000ff;stroke:#000000;" x="430.293832574" xlink:href="#m8404a2d19e" y="156.796776245"/>
     <use style="fill:#0000ff;stroke:#000000;" x="450.029271369" xlink:href="#m8404a2d19e" y="113.526985596"/>
     <use style="fill:#0000ff;stroke:#000000;" x="453.976479582" xlink:href="#m8404a2d19e" y="93.4684772949"/>
     <use style="fill:#0000ff;stroke:#000000;" x="434.241266639" xlink:href="#m8404a2d19e" y="87.488234375"/>
     <use style="fill:#0000ff;stroke:#000000;" x="422.400319554" xlink:href="#m8404a2d19e" y="77.6442097168"/>
     <use style="fill:#0000ff;stroke:#000000;" x="414.506505399" xlink:href="#m8404a2d19e" y="68.8085651855"/>
     <use style="fill:#0000ff;stroke:#000000;" x="394.771292455" xlink:href="#m8404a2d19e" y="71.2646687012"/>
     <use style="fill:#0000ff;stroke:#000000;" x="375.036305363" xlink:href="#m8404a2d19e" y="98.7121693115"/>
     <use style="fill:#0000ff;stroke:#000000;" x="355.301167704" xlink:href="#m8404a2d19e" y="135.500328491"/>
     <use style="fill:#0000ff;stroke:#000000;" x="335.565804193" xlink:href="#m8404a2d19e" y="148.111012695"/>
     <use style="fill:#0000ff;stroke:#000000;" x="323.724104269" xlink:href="#m8404a2d19e" y="143.966008423"/>
     <use style="fill:#0000ff;stroke:#000000;" x="323.724480689" xlink:href="#m8404a2d19e" y="135.428065918"/>
     <use style="fill:#0000ff;stroke:#000000;" x="323.724104269" xlink:href="#m8404a2d19e" y="125.981279419"/>
     <use style="fill:#0000ff;stroke:#000000;" x="323.72372785" xlink:href="#m8404a2d19e" y="117.333995483"/>
     <use style="fill:#0000ff;stroke:#000000;" x="323.723803134" xlink:href="#m8404a2d19e" y="114.273094604"/>
     <use style="fill:#0000ff;stroke:#000000;" x="323.724179553" xlink:href="#m8404a2d19e" y="118.913966797"/>
     <use style="fill:#0000ff;stroke:#000000;" x="323.725158243" xlink:href="#m8404a2d19e" y="125.681805847"/>
     <use style="fill:#0000ff;stroke:#000000;" x="331.619800521" xlink:href="#m8404a2d19e" y="121.402782104"/>
     <use style="fill:#0000ff;stroke:#000000;" x="351.355239316" xlink:href="#m8404a2d19e" y="104.090581177"/>
     <use style="fill:#0000ff;stroke:#000000;" x="371.09045226" xlink:href="#m8404a2d19e" y="100.324522827"/>
     <use style="fill:#0000ff;stroke:#000000;" x="375.037585189" xlink:href="#m8404a2d19e" y="111.190605591"/>
     <use style="fill:#0000ff;stroke:#000000;" x="371.090602828" xlink:href="#m8404a2d19e" y="116.194273804"/>
     <use style="fill:#0000ff;stroke:#000000;" x="390.826116906" xlink:href="#m8404a2d19e" y="118.245970581"/>
     <use style="fill:#0000ff;stroke:#000000;" x="410.561555701" xlink:href="#m8404a2d19e" y="116.666081665"/>
     <use style="fill:#0000ff;stroke:#000000;" x="414.508613347" xlink:href="#m8404a2d19e" y="266.86054425"/>
     <use style="fill:#0000ff;stroke:#000000;" x="394.773249836" xlink:href="#m8404a2d19e" y="248.120024536"/>
     <use style="fill:#0000ff;stroke:#000000;" x="382.932453319" xlink:href="#m8404a2d19e" y="123.871080444"/>
     <use style="fill:#0000ff;stroke:#000000;" x="390.827020313" xlink:href="#m8404a2d19e" y="119.697237061"/>
     <use style="fill:#0000ff;stroke:#000000;" x="410.562383824" xlink:href="#m8404a2d19e" y="270.080843018"/>
     <use style="fill:#0000ff;stroke:#000000;" x="414.509742605" xlink:href="#m8404a2d19e" y="253.723546265"/>
     <use style="fill:#0000ff;stroke:#000000;" x="394.774228526" xlink:href="#m8404a2d19e" y="124.697732971"/>
     <use style="fill:#0000ff;stroke:#000000;" x="390.827246164" xlink:href="#m8404a2d19e" y="119.724098633"/>
     <use style="fill:#0000ff;stroke:#000000;" x="410.562684959" xlink:href="#m8404a2d19e" y="270.162251709"/>
     <use style="fill:#0000ff;stroke:#000000;" x="414.509968456" xlink:href="#m8404a2d19e" y="252.791301392"/>
     <use style="fill:#0000ff;stroke:#000000;" x="394.774454377" xlink:href="#m8404a2d19e" y="125.007877014"/>
     <use style="fill:#0000ff;stroke:#000000;" x="390.827321448" xlink:href="#m8404a2d19e" y="119.743297241"/>
     <use style="fill:#0000ff;stroke:#000000;" x="410.562986095" xlink:href="#m8404a2d19e" y="270.246791504"/>
     <use style="fill:#0000ff;stroke:#000000;" x="414.509817889" xlink:href="#m8404a2d19e" y="251.872899292"/>
     <use style="fill:#0000ff;stroke:#000000;" x="394.774454377" xlink:href="#m8404a2d19e" y="125.295485352"/>
     <use style="fill:#0000ff;stroke:#000000;" x="390.827321448" xlink:href="#m8404a2d19e" y="119.746016357"/>
     <use style="fill:#0000ff;stroke:#000000;" x="410.562684959" xlink:href="#m8404a2d19e" y="270.347234009"/>
     <use style="fill:#0000ff;stroke:#000000;" x="414.509968456" xlink:href="#m8404a2d19e" y="250.786571167"/>
     <use style="fill:#0000ff;stroke:#000000;" x="394.774228526" xlink:href="#m8404a2d19e" y="125.646910522"/>
     <use style="fill:#0000ff;stroke:#000000;" x="390.827020313" xlink:href="#m8404a2d19e" y="119.75697522"/>
     <use style="fill:#0000ff;stroke:#000000;" x="410.562383824" xlink:href="#m8404a2d19e" y="270.452290771"/>
     <use style="fill:#0000ff;stroke:#000000;" x="414.509667321" xlink:href="#m8404a2d19e" y="249.693651245"/>
     <use style="fill:#0000ff;stroke:#000000;" x="394.774153242" xlink:href="#m8404a2d19e" y="125.993021057"/>
     <use style="fill:#0000ff;stroke:#000000;" x="390.827020313" xlink:href="#m8404a2d19e" y="119.754420898"/>
     <use style="fill:#0000ff;stroke:#000000;" x="410.562835527" xlink:href="#m8404a2d19e" y="270.563115356"/>
     <use style="fill:#0000ff;stroke:#000000;" x="414.510119024" xlink:href="#m8404a2d19e" y="248.969871948"/>
     <use style="fill:#0000ff;stroke:#000000;" x="394.774529661" xlink:href="#m8404a2d19e" y="126.44530072"/>
     <use style="fill:#0000ff;stroke:#000000;" x="390.8275473" xlink:href="#m8404a2d19e" y="119.76216626"/>
     <use style="fill:#0000ff;stroke:#000000;" x="410.563061379" xlink:href="#m8404a2d19e" y="270.647655151"/>
     <use style="fill:#0000ff;stroke:#000000;" x="414.510344876" xlink:href="#m8404a2d19e" y="248.605139587"/>
     <use style="fill:#0000ff;stroke:#000000;" x="394.774981365" xlink:href="#m8404a2d19e" y="255.655684326"/>
     <use style="fill:#0000ff;stroke:#000000;" x="382.933958996" xlink:href="#m8404a2d19e" y="123.453160522"/>
     <use style="fill:#0000ff;stroke:#000000;" x="390.828375422" xlink:href="#m8404a2d19e" y="117.844118164"/>
     <use style="fill:#0000ff;stroke:#000000;" x="410.563889501" xlink:href="#m8404a2d19e" y="117.654686401"/>
     <use style="fill:#0000ff;stroke:#000000;" x="414.511097714" xlink:href="#m8404a2d19e" y="270.548448608"/>
     <use style="fill:#0000ff;stroke:#000000;" x="394.775809487" xlink:href="#m8404a2d19e" y="258.685191772"/>
     <use style="fill:#0000ff;stroke:#000000;" x="382.934711835" xlink:href="#m8404a2d19e" y="280.629942749"/>
     <use style="fill:#0000ff;stroke:#000000;" x="382.935464673" xlink:href="#m8404a2d19e" y="286.131538818"/>
     <use style="fill:#0000ff;stroke:#000000;" x="382.935464673" xlink:href="#m8404a2d19e" y="259.319405029"/>
     <use style="fill:#0000ff;stroke:#000000;" x="382.936142228" xlink:href="#m8404a2d19e" y="246.690428589"/>
     <use style="fill:#0000ff;stroke:#000000;" x="382.936518647" xlink:href="#m8404a2d19e" y="243.698494385"/>
     <use style="fill:#0000ff;stroke:#000000;" x="382.937422054" xlink:href="#m8404a2d19e" y="248.746410034"/>
     <use style="fill:#0000ff;stroke:#000000;" x="382.93697035" xlink:href="#m8404a2d19e" y="276.163135193"/>
     <use style="fill:#0000ff;stroke:#000000;" x="375.042403356" xlink:href="#m8404a2d19e" y="260.829008911"/>
     <use style="fill:#0000ff;stroke:#000000;" x="355.307039845" xlink:href="#m8404a2d19e" y="242.022653625"/>
     <use style="fill:#0000ff;stroke:#000000;" x="335.571676334" xlink:href="#m8404a2d19e" y="300.221092651"/>
     <use style="fill:#0000ff;stroke:#000000;" x="315.836162255" xlink:href="#m8404a2d19e" y="252.286658142"/>
     <use style="fill:#0000ff;stroke:#000000;" x="296.100798744" xlink:href="#m8404a2d19e" y="174.012860535"/>
     <use style="fill:#0000ff;stroke:#000000;" x="276.365510517" xlink:href="#m8404a2d19e" y="182.60271344"/>
     <use style="fill:#0000ff;stroke:#000000;" x="272.418189378" xlink:href="#m8404a2d19e" y="215.70300946"/>
     <use style="fill:#0000ff;stroke:#000000;" x="276.365585801" xlink:href="#m8404a2d19e" y="214.00677533"/>
     <use style="fill:#0000ff;stroke:#000000;" x="272.418866933" xlink:href="#m8404a2d19e" y="236.643582581"/>
     <use style="fill:#0000ff;stroke:#000000;" x="276.367053836" xlink:href="#m8404a2d19e" y="259.853175781"/>
     <use style="fill:#0000ff;stroke:#000000;" x="272.420523178" xlink:href="#m8404a2d19e" y="277.408366821"/>
     <use style="fill:#0000ff;stroke:#000000;" x="284.260980917" xlink:href="#m8404a2d19e" y="284.637755249"/>
     <use style="fill:#0000ff;stroke:#000000;" x="284.260002227" xlink:href="#m8404a2d19e" y="287.815454529"/>
     <use style="fill:#0000ff;stroke:#000000;" x="292.153364679" xlink:href="#m8404a2d19e" y="297.638673828"/>
     <use style="fill:#0000ff;stroke:#000000;" x="303.994537616" xlink:href="#m8404a2d19e" y="315.823793457"/>
     <use style="fill:#0000ff;stroke:#000000;" x="303.99559159" xlink:href="#m8404a2d19e" y="307.832310913"/>
     <use style="fill:#0000ff;stroke:#000000;" x="303.996419712" xlink:href="#m8404a2d19e" y="262.311174438"/>
     <use style="fill:#0000ff;stroke:#000000;" x="296.102680841" xlink:href="#m8404a2d19e" y="257.555275391"/>
     <use style="fill:#0000ff;stroke:#000000;" x="276.367957242" xlink:href="#m8404a2d19e" y="243.940990112"/>
     <use style="fill:#0000ff;stroke:#000000;" x="264.527273651" xlink:href="#m8404a2d19e" y="233.841450928"/>
     <use style="fill:#0000ff;stroke:#000000;" x="256.632894867" xlink:href="#m8404a2d19e" y="227.188515137"/>
     <use style="fill:#0000ff;stroke:#000000;" x="236.897907775" xlink:href="#m8404a2d19e" y="227.840649841"/>
     <use style="fill:#0000ff;stroke:#000000;" x="217.162807757" xlink:href="#m8404a2d19e" y="225.119473694"/>
     <use style="fill:#0000ff;stroke:#000000;" x="195.454555336" xlink:href="#m8404a2d19e" y="222.993948792"/>
     <use style="fill:#0000ff;stroke:#000000;" x="175.71968117" xlink:href="#m8404a2d19e" y="248.708012817"/>
     <use style="fill:#0000ff;stroke:#000000;" x="163.878884653" xlink:href="#m8404a2d19e" y="290.472649048"/>
     <use style="fill:#0000ff;stroke:#000000;" x="163.879110505" xlink:href="#m8404a2d19e" y="294.194954346"/>
     <use style="fill:#0000ff;stroke:#000000;" x="163.878997579" xlink:href="#m8404a2d19e" y="268.441875122"/>
     <use style="fill:#0000ff;stroke:#000000;" x="163.878922295" xlink:href="#m8404a2d19e" y="264.609651611"/>
     <use style="fill:#0000ff;stroke:#000000;" x="163.878847011" xlink:href="#m8404a2d19e" y="278.414110229"/>
     <use style="fill:#0000ff;stroke:#000000;" x="163.878734086" xlink:href="#m8404a2d19e" y="278.667400024"/>
     <use style="fill:#0000ff;stroke:#000000;" x="163.878771727" xlink:href="#m8404a2d19e" y="278.45563855"/>
     <use style="fill:#0000ff;stroke:#000000;" x="163.878884653" xlink:href="#m8404a2d19e" y="258.602629517"/>
     <use style="fill:#0000ff;stroke:#000000;" x="163.878696444" xlink:href="#m8404a2d19e" y="237.417747925"/>
     <use style="fill:#0000ff;stroke:#000000;" x="163.878809369" xlink:href="#m8404a2d19e" y="250.410097168"/>
     <use style="fill:#0000ff;stroke:#000000;" x="163.878809369" xlink:href="#m8404a2d19e" y="254.572981689"/>
     <use style="fill:#0000ff;stroke:#000000;" x="163.878997579" xlink:href="#m8404a2d19e" y="255.104939697"/>
     <use style="fill:#0000ff;stroke:#000000;" x="163.878997579" xlink:href="#m8404a2d19e" y="240.492573975"/>
     <use style="fill:#0000ff;stroke:#000000;" x="163.878997579" xlink:href="#m8404a2d19e" y="223.932661865"/>
     <use style="fill:#0000ff;stroke:#000000;" x="163.878922295" xlink:href="#m8404a2d19e" y="217.965355347"/>
     <use style="fill:#0000ff;stroke:#000000;" x="163.878094173" xlink:href="#m8404a2d19e" y="214.700026367"/>
     <use style="fill:#0000ff;stroke:#000000;" x="163.877868321" xlink:href="#m8404a2d19e" y="209.860823486"/>
     <use style="fill:#0000ff;stroke:#000000;" x="163.878320024" xlink:href="#m8404a2d19e" y="207.154149292"/>
     <use style="fill:#0000ff;stroke:#000000;" x="163.878207098" xlink:href="#m8404a2d19e" y="207.24832959"/>
     <use style="fill:#0000ff;stroke:#000000;" x="163.878658802" xlink:href="#m8404a2d19e" y="191.314473389"/>
     <use style="fill:#0000ff;stroke:#000000;" x="163.878696444" xlink:href="#m8404a2d19e" y="194.438161133"/>
     <use style="fill:#0000ff;stroke:#000000;" x="163.878959937" xlink:href="#m8404a2d19e" y="212.282732056"/>
     <use style="fill:#0000ff;stroke:#000000;" x="163.87862116" xlink:href="#m8404a2d19e" y="215.757515381"/>
     <use style="fill:#0000ff;stroke:#000000;" x="163.878771727" xlink:href="#m8404a2d19e" y="202.73426709"/>
     <use style="fill:#0000ff;stroke:#000000;" x="163.878658802" xlink:href="#m8404a2d19e" y="198.209410522"/>
     <use style="fill:#0000ff;stroke:#000000;" x="163.878395308" xlink:href="#m8404a2d19e" y="223.206163452"/>
     <use style="fill:#0000ff;stroke:#000000;" x="163.877943605" xlink:href="#m8404a2d19e" y="262.956346558"/>
     <use style="fill:#0000ff;stroke:#000000;" x="163.877717753" xlink:href="#m8404a2d19e" y="270.741258667"/>
     <use style="fill:#0000ff;stroke:#000000;" x="163.877868321" xlink:href="#m8404a2d19e" y="258.386583374"/>
     <use style="fill:#0000ff;stroke:#000000;" x="163.877491902" xlink:href="#m8404a2d19e" y="270.593602417"/>
     <use style="fill:#0000ff;stroke:#000000;" x="163.87764247" xlink:href="#m8404a2d19e" y="310.479082153"/>
     <use style="fill:#0000ff;stroke:#000000;" x="163.877378976" xlink:href="#m8404a2d19e" y="291.494047974"/>
     <use style="fill:#0000ff;stroke:#000000;" x="163.877190766" xlink:href="#m8404a2d19e" y="213.550622986"/>
     <use style="fill:#0000ff;stroke:#000000;" x="171.770891996" xlink:href="#m8404a2d19e" y="218.968091248"/>
     <use style="fill:#0000ff;stroke:#000000;" x="191.505276817" xlink:href="#m8404a2d19e" y="282.581938599"/>
     <use style="fill:#0000ff;stroke:#000000;" x="195.451958043" xlink:href="#m8404a2d19e" y="255.991453979"/>
     <use style="fill:#0000ff;stroke:#000000;" x="175.716142829" xlink:href="#m8404a2d19e" y="237.515636108"/>
     <use style="fill:#0000ff;stroke:#000000;" x="155.981080453" xlink:href="#m8404a2d19e" y="180.550604675"/>
     <use style="fill:#0000ff;stroke:#000000;" x="136.246131003" xlink:href="#m8404a2d19e" y="141.940060852"/>
     <use style="fill:#0000ff;stroke:#000000;" x="116.510353431" xlink:href="#m8404a2d19e" y="173.269841431"/>
     <use style="fill:#0000ff;stroke:#000000;" x="96.7754416229" xlink:href="#m8404a2d19e" y="197.41052594"/>
     <use style="fill:#0000ff;stroke:#000000;" x="92.8283086936" xlink:href="#m8404a2d19e" y="209.90680127"/>
     <use style="fill:#0000ff;stroke:#000000;" x="112.563258143" xlink:href="#m8404a2d19e" y="210.891203735"/>
     <use style="fill:#0000ff;stroke:#000000;" x="116.50993937" xlink:href="#m8404a2d19e" y="223.503206299"/>
     <use style="fill:#0000ff;stroke:#000000;" x="112.562542947" xlink:href="#m8404a2d19e" y="205.405015991"/>
     <use style="fill:#0000ff;stroke:#000000;" x="132.297191261" xlink:href="#m8404a2d19e" y="214.99167218"/>
     <use style="fill:#0000ff;stroke:#000000;" x="152.032027785" xlink:href="#m8404a2d19e" y="229.751117371"/>
     <use style="fill:#0000ff;stroke:#000000;" x="171.767052519" xlink:href="#m8404a2d19e" y="221.319179199"/>
     <use style="fill:#0000ff;stroke:#000000;" x="183.60811253" xlink:href="#m8404a2d19e" y="213.615016602"/>
     <use style="fill:#0000ff;stroke:#000000;" x="183.608677159" xlink:href="#m8404a2d19e" y="241.047026489"/>
     <use style="fill:#0000ff;stroke:#000000;" x="183.608752442" xlink:href="#m8404a2d19e" y="256.078960083"/>
     <use style="fill:#0000ff;stroke:#000000;" x="183.608827726" xlink:href="#m8404a2d19e" y="248.661540649"/>
     <use style="fill:#0000ff;stroke:#000000;" x="183.608827726" xlink:href="#m8404a2d19e" y="239.757671021"/>
     <use style="fill:#0000ff;stroke:#000000;" x="183.609015936" xlink:href="#m8404a2d19e" y="221.490401123"/>
    </g>
   </g>
   <g id="patch_3">
    <path d="M 493.2975 368.74175 
L 493.2975 23.14175 
" style="fill:none;stroke:#000000;stroke-linecap:square;stroke-linejoin:miter;"/>
   </g>
   <g id="patch_4">
    <path d="M 46.8975 368.74175 
L 46.8975 23.14175 
" style="fill:none;stroke:#000000;stroke-linecap:square;stroke-linejoin:miter;"/>
   </g>
   <g id="patch_5">
    <path d="M 46.8975 368.74175 
L 493.2975 368.74175 
" style="fill:none;stroke:#000000;stroke-linecap:square;stroke-linejoin:miter;"/>
   </g>
   <g id="patch_6">
    <path d="M 46.8975 23.14175 
L 493.2975 23.14175 
" style="fill:none;stroke:#000000;stroke-linecap:square;stroke-linejoin:miter;"/>
   </g>
   <g id="matplotlib.axis_1">
    <g id="xtick_1">
     <g id="line2d_1">
      <defs>
       <path d="M 0 0 
L 0 -4 
" id="mc0e1501816" style="stroke:#000000;stroke-width:0.5;"/>
      </defs>
      <g>
       <use style="stroke:#000000;stroke-width:0.5;" x="46.8975" xlink:href="#mc0e1501816" y="368.74175"/>
      </g>
     </g>
     <g id="line2d_2">
      <defs>
       <path d="M 0 0 
L 0 4 
" id="m0870efaefb" style="stroke:#000000;stroke-width:0.5;"/>
      </defs>
      <g>
       <use style="stroke:#000000;stroke-width:0.5;" x="46.8975" xlink:href="#m0870efaefb" y="23.14175"/>
      </g>
     </g>
     <g id="text_1">
      <!-- 0.4 -->
      <defs>
       <path d="M 37.796875 64.3125 
L 12.890625 25.390625 
L 37.796875 25.390625 
z
M 35.203125 72.90625 
L 47.609375 72.90625 
L 47.609375 25.390625 
L 58.015625 25.390625 
L 58.015625 17.1875 
L 47.609375 17.1875 
L 47.609375 0 
L 37.796875 0 
L 37.796875 17.1875 
L 4.890625 17.1875 
L 4.890625 26.703125 
z
" id="BitstreamVeraSans-Roman-34"/>
       <path d="M 10.6875 12.40625 
L 21 12.40625 
L 21 0 
L 10.6875 0 
z
" id="BitstreamVeraSans-Roman-2e"/>
       <path d="M 31.78125 66.40625 
Q 24.171875 66.40625 20.328125 58.90625 
Q 16.5 51.421875 16.5 36.375 
Q 16.5 21.390625 20.328125 13.890625 
Q 24.171875 6.390625 31.78125 6.390625 
Q 39.453125 6.390625 43.28125 13.890625 
Q 47.125 21.390625 47.125 36.375 
Q 47.125 51.421875 43.28125 58.90625 
Q 39.453125 66.40625 31.78125 66.40625 
M 31.78125 74.21875 
Q 44.046875 74.21875 50.515625 64.515625 
Q 56.984375 54.828125 56.984375 36.375 
Q 56.984375 17.96875 50.515625 8.265625 
Q 44.046875 -1.421875 31.78125 -1.421875 
Q 19.53125 -1.421875 13.0625 8.265625 
Q 6.59375 17.96875 6.59375 36.375 
Q 6.59375 54.828125 13.0625 64.515625 
Q 19.53125 74.21875 31.78125 74.21875 
" id="BitstreamVeraSans-Roman-30"/>
      </defs>
      <g transform="translate(37.355625 381.859875)scale(0.12 -0.12)">
       <use xlink:href="#BitstreamVeraSans-Roman-30"/>
       <use x="63.623046875" xlink:href="#BitstreamVeraSans-Roman-2e"/>
       <use x="95.41015625" xlink:href="#BitstreamVeraSans-Roman-34"/>
      </g>
     </g>
    </g>
    <g id="xtick_2">
     <g id="line2d_3">
      <g>
       <use style="stroke:#000000;stroke-width:0.5;" x="146.0975" xlink:href="#mc0e1501816" y="368.74175"/>
      </g>
     </g>
     <g id="line2d_4">
      <g>
       <use style="stroke:#000000;stroke-width:0.5;" x="146.0975" xlink:href="#m0870efaefb" y="23.14175"/>
      </g>
     </g>
     <g id="text_2">
      <!-- 0.5 -->
      <defs>
       <path d="M 10.796875 72.90625 
L 49.515625 72.90625 
L 49.515625 64.59375 
L 19.828125 64.59375 
L 19.828125 46.734375 
Q 21.96875 47.46875 24.109375 47.828125 
Q 26.265625 48.1875 28.421875 48.1875 
Q 40.625 48.1875 47.75 41.5 
Q 54.890625 34.8125 54.890625 23.390625 
Q 54.890625 11.625 47.5625 5.09375 
Q 40.234375 -1.421875 26.90625 -1.421875 
Q 22.3125 -1.421875 17.546875 -0.640625 
Q 12.796875 0.140625 7.71875 1.703125 
L 7.71875 11.625 
Q 12.109375 9.234375 16.796875 8.0625 
Q 21.484375 6.890625 26.703125 6.890625 
Q 35.15625 6.890625 40.078125 11.328125 
Q 45.015625 15.765625 45.015625 23.390625 
Q 45.015625 31 40.078125 35.4375 
Q 35.15625 39.890625 26.703125 39.890625 
Q 22.75 39.890625 18.8125 39.015625 
Q 14.890625 38.140625 10.796875 36.28125 
z
" id="BitstreamVeraSans-Roman-35"/>
      </defs>
      <g transform="translate(136.555625 381.859875)scale(0.12 -0.12)">
       <use xlink:href="#BitstreamVeraSans-Roman-30"/>
       <use x="63.623046875" xlink:href="#BitstreamVeraSans-Roman-2e"/>
       <use x="95.41015625" xlink:href="#BitstreamVeraSans-Roman-35"/>
      </g>
     </g>
    </g>
    <g id="xtick_3">
     <g id="line2d_5">
      <g>
       <use style="stroke:#000000;stroke-width:0.5;" x="245.2975" xlink:href="#mc0e1501816" y="368.74175"/>
      </g>
     </g>
     <g id="line2d_6">
      <g>
       <use style="stroke:#000000;stroke-width:0.5;" x="245.2975" xlink:href="#m0870efaefb" y="23.14175"/>
      </g>
     </g>
     <g id="text_3">
      <!-- 0.6 -->
      <defs>
       <path d="M 33.015625 40.375 
Q 26.375 40.375 22.484375 35.828125 
Q 18.609375 31.296875 18.609375 23.390625 
Q 18.609375 15.53125 22.484375 10.953125 
Q 26.375 6.390625 33.015625 6.390625 
Q 39.65625 6.390625 43.53125 10.953125 
Q 47.40625 15.53125 47.40625 23.390625 
Q 47.40625 31.296875 43.53125 35.828125 
Q 39.65625 40.375 33.015625 40.375 
M 52.59375 71.296875 
L 52.59375 62.3125 
Q 48.875 64.0625 45.09375 64.984375 
Q 41.3125 65.921875 37.59375 65.921875 
Q 27.828125 65.921875 22.671875 59.328125 
Q 17.53125 52.734375 16.796875 39.40625 
Q 19.671875 43.65625 24.015625 45.921875 
Q 28.375 48.1875 33.59375 48.1875 
Q 44.578125 48.1875 50.953125 41.515625 
Q 57.328125 34.859375 57.328125 23.390625 
Q 57.328125 12.15625 50.6875 5.359375 
Q 44.046875 -1.421875 33.015625 -1.421875 
Q 20.359375 -1.421875 13.671875 8.265625 
Q 6.984375 17.96875 6.984375 36.375 
Q 6.984375 53.65625 15.1875 63.9375 
Q 23.390625 74.21875 37.203125 74.21875 
Q 40.921875 74.21875 44.703125 73.484375 
Q 48.484375 72.75 52.59375 71.296875 
" id="BitstreamVeraSans-Roman-36"/>
      </defs>
      <g transform="translate(235.755625 381.859875)scale(0.12 -0.12)">
       <use xlink:href="#BitstreamVeraSans-Roman-30"/>
       <use x="63.623046875" xlink:href="#BitstreamVeraSans-Roman-2e"/>
       <use x="95.41015625" xlink:href="#BitstreamVeraSans-Roman-36"/>
      </g>
     </g>
    </g>
    <g id="xtick_4">
     <g id="line2d_7">
      <g>
       <use style="stroke:#000000;stroke-width:0.5;" x="344.4975" xlink:href="#mc0e1501816" y="368.74175"/>
      </g>
     </g>
     <g id="line2d_8">
      <g>
       <use style="stroke:#000000;stroke-width:0.5;" x="344.4975" xlink:href="#m0870efaefb" y="23.14175"/>
      </g>
     </g>
     <g id="text_4">
      <!-- 0.7 -->
      <defs>
       <path d="M 8.203125 72.90625 
L 55.078125 72.90625 
L 55.078125 68.703125 
L 28.609375 0 
L 18.3125 0 
L 43.21875 64.59375 
L 8.203125 64.59375 
z
" id="BitstreamVeraSans-Roman-37"/>
      </defs>
      <g transform="translate(334.955625 381.859875)scale(0.12 -0.12)">
       <use xlink:href="#BitstreamVeraSans-Roman-30"/>
       <use x="63.623046875" xlink:href="#BitstreamVeraSans-Roman-2e"/>
       <use x="95.41015625" xlink:href="#BitstreamVeraSans-Roman-37"/>
      </g>
     </g>
    </g>
    <g id="xtick_5">
     <g id="line2d_9">
      <g>
       <use style="stroke:#000000;stroke-width:0.5;" x="443.6975" xlink:href="#mc0e1501816" y="368.74175"/>
      </g>
     </g>
     <g id="line2d_10">
      <g>
       <use style="stroke:#000000;stroke-width:0.5;" x="443.6975" xlink:href="#m0870efaefb" y="23.14175"/>
      </g>
     </g>
     <g id="text_5">
      <!-- 0.8 -->
      <defs>
       <path d="M 31.78125 34.625 
Q 24.75 34.625 20.71875 30.859375 
Q 16.703125 27.09375 16.703125 20.515625 
Q 16.703125 13.921875 20.71875 10.15625 
Q 24.75 6.390625 31.78125 6.390625 
Q 38.8125 6.390625 42.859375 10.171875 
Q 46.921875 13.96875 46.921875 20.515625 
Q 46.921875 27.09375 42.890625 30.859375 
Q 38.875 34.625 31.78125 34.625 
M 21.921875 38.8125 
Q 15.578125 40.375 12.03125 44.71875 
Q 8.5 49.078125 8.5 55.328125 
Q 8.5 64.0625 14.71875 69.140625 
Q 20.953125 74.21875 31.78125 74.21875 
Q 42.671875 74.21875 48.875 69.140625 
Q 55.078125 64.0625 55.078125 55.328125 
Q 55.078125 49.078125 51.53125 44.71875 
Q 48 40.375 41.703125 38.8125 
Q 48.828125 37.15625 52.796875 32.3125 
Q 56.78125 27.484375 56.78125 20.515625 
Q 56.78125 9.90625 50.3125 4.234375 
Q 43.84375 -1.421875 31.78125 -1.421875 
Q 19.734375 -1.421875 13.25 4.234375 
Q 6.78125 9.90625 6.78125 20.515625 
Q 6.78125 27.484375 10.78125 32.3125 
Q 14.796875 37.15625 21.921875 38.8125 
M 18.3125 54.390625 
Q 18.3125 48.734375 21.84375 45.5625 
Q 25.390625 42.390625 31.78125 42.390625 
Q 38.140625 42.390625 41.71875 45.5625 
Q 45.3125 48.734375 45.3125 54.390625 
Q 45.3125 60.0625 41.71875 63.234375 
Q 38.140625 66.40625 31.78125 66.40625 
Q 25.390625 66.40625 21.84375 63.234375 
Q 18.3125 60.0625 18.3125 54.390625 
" id="BitstreamVeraSans-Roman-38"/>
      </defs>
      <g transform="translate(434.155625 381.859875)scale(0.12 -0.12)">
       <use xlink:href="#BitstreamVeraSans-Roman-30"/>
       <use x="63.623046875" xlink:href="#BitstreamVeraSans-Roman-2e"/>
       <use x="95.41015625" xlink:href="#BitstreamVeraSans-Roman-38"/>
      </g>
     </g>
    </g>
    <g id="text_6">
     <!-- normalized angle -->
     <defs>
      <path d="M 45.40625 46.390625 
L 45.40625 75.984375 
L 54.390625 75.984375 
L 54.390625 0 
L 45.40625 0 
L 45.40625 8.203125 
Q 42.578125 3.328125 38.25 0.953125 
Q 33.9375 -1.421875 27.875 -1.421875 
Q 17.96875 -1.421875 11.734375 6.484375 
Q 5.515625 14.40625 5.515625 27.296875 
Q 5.515625 40.1875 11.734375 48.09375 
Q 17.96875 56 27.875 56 
Q 33.9375 56 38.25 53.625 
Q 42.578125 51.265625 45.40625 46.390625 
M 14.796875 27.296875 
Q 14.796875 17.390625 18.875 11.75 
Q 22.953125 6.109375 30.078125 6.109375 
Q 37.203125 6.109375 41.296875 11.75 
Q 45.40625 17.390625 45.40625 27.296875 
Q 45.40625 37.203125 41.296875 42.84375 
Q 37.203125 48.484375 30.078125 48.484375 
Q 22.953125 48.484375 18.875 42.84375 
Q 14.796875 37.203125 14.796875 27.296875 
" id="BitstreamVeraSans-Roman-64"/>
      <path id="BitstreamVeraSans-Roman-20"/>
      <path d="M 52 44.1875 
Q 55.375 50.25 60.0625 53.125 
Q 64.75 56 71.09375 56 
Q 79.640625 56 84.28125 50.015625 
Q 88.921875 44.046875 88.921875 33.015625 
L 88.921875 0 
L 79.890625 0 
L 79.890625 32.71875 
Q 79.890625 40.578125 77.09375 44.375 
Q 74.3125 48.1875 68.609375 48.1875 
Q 61.625 48.1875 57.5625 43.546875 
Q 53.515625 38.921875 53.515625 30.90625 
L 53.515625 0 
L 44.484375 0 
L 44.484375 32.71875 
Q 44.484375 40.625 41.703125 44.40625 
Q 38.921875 48.1875 33.109375 48.1875 
Q 26.21875 48.1875 22.15625 43.53125 
Q 18.109375 38.875 18.109375 30.90625 
L 18.109375 0 
L 9.078125 0 
L 9.078125 54.6875 
L 18.109375 54.6875 
L 18.109375 46.1875 
Q 21.1875 51.21875 25.484375 53.609375 
Q 29.78125 56 35.6875 56 
Q 41.65625 56 45.828125 52.96875 
Q 50 49.953125 52 44.1875 
" id="BitstreamVeraSans-Roman-6d"/>
      <path d="M 56.203125 29.59375 
L 56.203125 25.203125 
L 14.890625 25.203125 
Q 15.484375 15.921875 20.484375 11.0625 
Q 25.484375 6.203125 34.421875 6.203125 
Q 39.59375 6.203125 44.453125 7.46875 
Q 49.3125 8.734375 54.109375 11.28125 
L 54.109375 2.78125 
Q 49.265625 0.734375 44.1875 -0.34375 
Q 39.109375 -1.421875 33.890625 -1.421875 
Q 20.796875 -1.421875 13.15625 6.1875 
Q 5.515625 13.8125 5.515625 26.8125 
Q 5.515625 40.234375 12.765625 48.109375 
Q 20.015625 56 32.328125 56 
Q 43.359375 56 49.78125 48.890625 
Q 56.203125 41.796875 56.203125 29.59375 
M 47.21875 32.234375 
Q 47.125 39.59375 43.09375 43.984375 
Q 39.0625 48.390625 32.421875 48.390625 
Q 24.90625 48.390625 20.390625 44.140625 
Q 15.875 39.890625 15.1875 32.171875 
z
" id="BitstreamVeraSans-Roman-65"/>
      <path d="M 5.515625 54.6875 
L 48.1875 54.6875 
L 48.1875 46.484375 
L 14.40625 7.171875 
L 48.1875 7.171875 
L 48.1875 0 
L 4.296875 0 
L 4.296875 8.203125 
L 38.09375 47.515625 
L 5.515625 47.515625 
z
" id="BitstreamVeraSans-Roman-7a"/>
      <path d="M 45.40625 27.984375 
Q 45.40625 37.75 41.375 43.109375 
Q 37.359375 48.484375 30.078125 48.484375 
Q 22.859375 48.484375 18.828125 43.109375 
Q 14.796875 37.75 14.796875 27.984375 
Q 14.796875 18.265625 18.828125 12.890625 
Q 22.859375 7.515625 30.078125 7.515625 
Q 37.359375 7.515625 41.375 12.890625 
Q 45.40625 18.265625 45.40625 27.984375 
M 54.390625 6.78125 
Q 54.390625 -7.171875 48.1875 -13.984375 
Q 42 -20.796875 29.203125 -20.796875 
Q 24.46875 -20.796875 20.265625 -20.09375 
Q 16.0625 -19.390625 12.109375 -17.921875 
L 12.109375 -9.1875 
Q 16.0625 -11.328125 19.921875 -12.34375 
Q 23.78125 -13.375 27.78125 -13.375 
Q 36.625 -13.375 41.015625 -8.765625 
Q 45.40625 -4.15625 45.40625 5.171875 
L 45.40625 9.625 
Q 42.625 4.78125 38.28125 2.390625 
Q 33.9375 0 27.875 0 
Q 17.828125 0 11.671875 7.65625 
Q 5.515625 15.328125 5.515625 27.984375 
Q 5.515625 40.671875 11.671875 48.328125 
Q 17.828125 56 27.875 56 
Q 33.9375 56 38.28125 53.609375 
Q 42.625 51.21875 45.40625 46.390625 
L 45.40625 54.6875 
L 54.390625 54.6875 
z
" id="BitstreamVeraSans-Roman-67"/>
      <path d="M 34.28125 27.484375 
Q 23.390625 27.484375 19.1875 25 
Q 14.984375 22.515625 14.984375 16.5 
Q 14.984375 11.71875 18.140625 8.90625 
Q 21.296875 6.109375 26.703125 6.109375 
Q 34.1875 6.109375 38.703125 11.40625 
Q 43.21875 16.703125 43.21875 25.484375 
L 43.21875 27.484375 
z
M 52.203125 31.203125 
L 52.203125 0 
L 43.21875 0 
L 43.21875 8.296875 
Q 40.140625 3.328125 35.546875 0.953125 
Q 30.953125 -1.421875 24.3125 -1.421875 
Q 15.921875 -1.421875 10.953125 3.296875 
Q 6 8.015625 6 15.921875 
Q 6 25.140625 12.171875 29.828125 
Q 18.359375 34.515625 30.609375 34.515625 
L 43.21875 34.515625 
L 43.21875 35.40625 
Q 43.21875 41.609375 39.140625 45 
Q 35.0625 48.390625 27.6875 48.390625 
Q 23 48.390625 18.546875 47.265625 
Q 14.109375 46.140625 10.015625 43.890625 
L 10.015625 52.203125 
Q 14.9375 54.109375 19.578125 55.046875 
Q 24.21875 56 28.609375 56 
Q 40.484375 56 46.34375 49.84375 
Q 52.203125 43.703125 52.203125 31.203125 
" id="BitstreamVeraSans-Roman-61"/>
      <path d="M 54.890625 33.015625 
L 54.890625 0 
L 45.90625 0 
L 45.90625 32.71875 
Q 45.90625 40.484375 42.875 44.328125 
Q 39.84375 48.1875 33.796875 48.1875 
Q 26.515625 48.1875 22.3125 43.546875 
Q 18.109375 38.921875 18.109375 30.90625 
L 18.109375 0 
L 9.078125 0 
L 9.078125 54.6875 
L 18.109375 54.6875 
L 18.109375 46.1875 
Q 21.34375 51.125 25.703125 53.5625 
Q 30.078125 56 35.796875 56 
Q 45.21875 56 50.046875 50.171875 
Q 54.890625 44.34375 54.890625 33.015625 
" id="BitstreamVeraSans-Roman-6e"/>
      <path d="M 30.609375 48.390625 
Q 23.390625 48.390625 19.1875 42.75 
Q 14.984375 37.109375 14.984375 27.296875 
Q 14.984375 17.484375 19.15625 11.84375 
Q 23.34375 6.203125 30.609375 6.203125 
Q 37.796875 6.203125 41.984375 11.859375 
Q 46.1875 17.53125 46.1875 27.296875 
Q 46.1875 37.015625 41.984375 42.703125 
Q 37.796875 48.390625 30.609375 48.390625 
M 30.609375 56 
Q 42.328125 56 49.015625 48.375 
Q 55.71875 40.765625 55.71875 27.296875 
Q 55.71875 13.875 49.015625 6.21875 
Q 42.328125 -1.421875 30.609375 -1.421875 
Q 18.84375 -1.421875 12.171875 6.21875 
Q 5.515625 13.875 5.515625 27.296875 
Q 5.515625 40.765625 12.171875 48.375 
Q 18.84375 56 30.609375 56 
" id="BitstreamVeraSans-Roman-6f"/>
      <path d="M 9.421875 75.984375 
L 18.40625 75.984375 
L 18.40625 0 
L 9.421875 0 
z
" id="BitstreamVeraSans-Roman-6c"/>
      <path d="M 9.421875 54.6875 
L 18.40625 54.6875 
L 18.40625 0 
L 9.421875 0 
z
M 9.421875 75.984375 
L 18.40625 75.984375 
L 18.40625 64.59375 
L 9.421875 64.59375 
z
" id="BitstreamVeraSans-Roman-69"/>
      <path d="M 41.109375 46.296875 
Q 39.59375 47.171875 37.8125 47.578125 
Q 36.03125 48 33.890625 48 
Q 26.265625 48 22.1875 43.046875 
Q 18.109375 38.09375 18.109375 28.8125 
L 18.109375 0 
L 9.078125 0 
L 9.078125 54.6875 
L 18.109375 54.6875 
L 18.109375 46.1875 
Q 20.953125 51.171875 25.484375 53.578125 
Q 30.03125 56 36.53125 56 
Q 37.453125 56 38.578125 55.875 
Q 39.703125 55.765625 41.0625 55.515625 
z
" id="BitstreamVeraSans-Roman-72"/>
     </defs>
     <g transform="translate(218.0990625 398.473625)scale(0.12 -0.12)">
      <use xlink:href="#BitstreamVeraSans-Roman-6e"/>
      <use x="63.37890625" xlink:href="#BitstreamVeraSans-Roman-6f"/>
      <use x="124.560546875" xlink:href="#BitstreamVeraSans-Roman-72"/>
      <use x="165.658203125" xlink:href="#BitstreamVeraSans-Roman-6d"/>
      <use x="263.0703125" xlink:href="#BitstreamVeraSans-Roman-61"/>
      <use x="324.349609375" xlink:href="#BitstreamVeraSans-Roman-6c"/>
      <use x="352.1328125" xlink:href="#BitstreamVeraSans-Roman-69"/>
      <use x="379.916015625" xlink:href="#BitstreamVeraSans-Roman-7a"/>
      <use x="432.40625" xlink:href="#BitstreamVeraSans-Roman-65"/>
      <use x="493.9296875" xlink:href="#BitstreamVeraSans-Roman-64"/>
      <use x="557.40625" xlink:href="#BitstreamVeraSans-Roman-20"/>
      <use x="589.193359375" xlink:href="#BitstreamVeraSans-Roman-61"/>
      <use x="650.47265625" xlink:href="#BitstreamVeraSans-Roman-6e"/>
      <use x="713.8515625" xlink:href="#BitstreamVeraSans-Roman-67"/>
      <use x="777.328125" xlink:href="#BitstreamVeraSans-Roman-6c"/>
      <use x="805.111328125" xlink:href="#BitstreamVeraSans-Roman-65"/>
     </g>
    </g>
   </g>
   <g id="matplotlib.axis_2">
    <g id="ytick_1">
     <g id="line2d_11">
      <defs>
       <path d="M 0 0 
L 4 0 
" id="mfc475287fe" style="stroke:#000000;stroke-width:0.5;"/>
      </defs>
      <g>
       <use style="stroke:#000000;stroke-width:0.5;" x="46.8975" xlink:href="#mfc475287fe" y="368.74175"/>
      </g>
     </g>
     <g id="line2d_12">
      <defs>
       <path d="M 0 0 
L -4 0 
" id="mc3843c225d" style="stroke:#000000;stroke-width:0.5;"/>
      </defs>
      <g>
       <use style="stroke:#000000;stroke-width:0.5;" x="493.2975" xlink:href="#mc3843c225d" y="368.74175"/>
      </g>
     </g>
     <g id="text_7">
      <!-- 5.0 -->
      <g transform="translate(23.81375 372.053)scale(0.12 -0.12)">
       <use xlink:href="#BitstreamVeraSans-Roman-35"/>
       <use x="63.623046875" xlink:href="#BitstreamVeraSans-Roman-2e"/>
       <use x="95.41015625" xlink:href="#BitstreamVeraSans-Roman-30"/>
      </g>
     </g>
    </g>
    <g id="ytick_2">
     <g id="line2d_13">
      <g>
       <use style="stroke:#000000;stroke-width:0.5;" x="46.8975" xlink:href="#mfc475287fe" y="325.54175"/>
      </g>
     </g>
     <g id="line2d_14">
      <g>
       <use style="stroke:#000000;stroke-width:0.5;" x="493.2975" xlink:href="#mc3843c225d" y="325.54175"/>
      </g>
     </g>
     <g id="text_8">
      <!-- 5.5 -->
      <g transform="translate(23.81375 328.853)scale(0.12 -0.12)">
       <use xlink:href="#BitstreamVeraSans-Roman-35"/>
       <use x="63.623046875" xlink:href="#BitstreamVeraSans-Roman-2e"/>
       <use x="95.41015625" xlink:href="#BitstreamVeraSans-Roman-35"/>
      </g>
     </g>
    </g>
    <g id="ytick_3">
     <g id="line2d_15">
      <g>
       <use style="stroke:#000000;stroke-width:0.5;" x="46.8975" xlink:href="#mfc475287fe" y="282.34175"/>
      </g>
     </g>
     <g id="line2d_16">
      <g>
       <use style="stroke:#000000;stroke-width:0.5;" x="493.2975" xlink:href="#mc3843c225d" y="282.34175"/>
      </g>
     </g>
     <g id="text_9">
      <!-- 6.0 -->
      <g transform="translate(23.81375 285.653)scale(0.12 -0.12)">
       <use xlink:href="#BitstreamVeraSans-Roman-36"/>
       <use x="63.623046875" xlink:href="#BitstreamVeraSans-Roman-2e"/>
       <use x="95.41015625" xlink:href="#BitstreamVeraSans-Roman-30"/>
      </g>
     </g>
    </g>
    <g id="ytick_4">
     <g id="line2d_17">
      <g>
       <use style="stroke:#000000;stroke-width:0.5;" x="46.8975" xlink:href="#mfc475287fe" y="239.14175"/>
      </g>
     </g>
     <g id="line2d_18">
      <g>
       <use style="stroke:#000000;stroke-width:0.5;" x="493.2975" xlink:href="#mc3843c225d" y="239.14175"/>
      </g>
     </g>
     <g id="text_10">
      <!-- 6.5 -->
      <g transform="translate(23.81375 242.453)scale(0.12 -0.12)">
       <use xlink:href="#BitstreamVeraSans-Roman-36"/>
       <use x="63.623046875" xlink:href="#BitstreamVeraSans-Roman-2e"/>
       <use x="95.41015625" xlink:href="#BitstreamVeraSans-Roman-35"/>
      </g>
     </g>
    </g>
    <g id="ytick_5">
     <g id="line2d_19">
      <g>
       <use style="stroke:#000000;stroke-width:0.5;" x="46.8975" xlink:href="#mfc475287fe" y="195.94175"/>
      </g>
     </g>
     <g id="line2d_20">
      <g>
       <use style="stroke:#000000;stroke-width:0.5;" x="493.2975" xlink:href="#mc3843c225d" y="195.94175"/>
      </g>
     </g>
     <g id="text_11">
      <!-- 7.0 -->
      <g transform="translate(23.81375 199.253)scale(0.12 -0.12)">
       <use xlink:href="#BitstreamVeraSans-Roman-37"/>
       <use x="63.623046875" xlink:href="#BitstreamVeraSans-Roman-2e"/>
       <use x="95.41015625" xlink:href="#BitstreamVeraSans-Roman-30"/>
      </g>
     </g>
    </g>
    <g id="ytick_6">
     <g id="line2d_21">
      <g>
       <use style="stroke:#000000;stroke-width:0.5;" x="46.8975" xlink:href="#mfc475287fe" y="152.74175"/>
      </g>
     </g>
     <g id="line2d_22">
      <g>
       <use style="stroke:#000000;stroke-width:0.5;" x="493.2975" xlink:href="#mc3843c225d" y="152.74175"/>
      </g>
     </g>
     <g id="text_12">
      <!-- 7.5 -->
      <g transform="translate(23.81375 156.053)scale(0.12 -0.12)">
       <use xlink:href="#BitstreamVeraSans-Roman-37"/>
       <use x="63.623046875" xlink:href="#BitstreamVeraSans-Roman-2e"/>
       <use x="95.41015625" xlink:href="#BitstreamVeraSans-Roman-35"/>
      </g>
     </g>
    </g>
    <g id="ytick_7">
     <g id="line2d_23">
      <g>
       <use style="stroke:#000000;stroke-width:0.5;" x="46.8975" xlink:href="#mfc475287fe" y="109.54175"/>
      </g>
     </g>
     <g id="line2d_24">
      <g>
       <use style="stroke:#000000;stroke-width:0.5;" x="493.2975" xlink:href="#mc3843c225d" y="109.54175"/>
      </g>
     </g>
     <g id="text_13">
      <!-- 8.0 -->
      <g transform="translate(23.81375 112.853)scale(0.12 -0.12)">
       <use xlink:href="#BitstreamVeraSans-Roman-38"/>
       <use x="63.623046875" xlink:href="#BitstreamVeraSans-Roman-2e"/>
       <use x="95.41015625" xlink:href="#BitstreamVeraSans-Roman-30"/>
      </g>
     </g>
    </g>
    <g id="ytick_8">
     <g id="line2d_25">
      <g>
       <use style="stroke:#000000;stroke-width:0.5;" x="46.8975" xlink:href="#mfc475287fe" y="66.34175"/>
      </g>
     </g>
     <g id="line2d_26">
      <g>
       <use style="stroke:#000000;stroke-width:0.5;" x="493.2975" xlink:href="#mc3843c225d" y="66.34175"/>
      </g>
     </g>
     <g id="text_14">
      <!-- 8.5 -->
      <g transform="translate(23.81375 69.653)scale(0.12 -0.12)">
       <use xlink:href="#BitstreamVeraSans-Roman-38"/>
       <use x="63.623046875" xlink:href="#BitstreamVeraSans-Roman-2e"/>
       <use x="95.41015625" xlink:href="#BitstreamVeraSans-Roman-35"/>
      </g>
     </g>
    </g>
    <g id="ytick_9">
     <g id="line2d_27">
      <g>
       <use style="stroke:#000000;stroke-width:0.5;" x="46.8975" xlink:href="#mfc475287fe" y="23.14175"/>
      </g>
     </g>
     <g id="line2d_28">
      <g>
       <use style="stroke:#000000;stroke-width:0.5;" x="493.2975" xlink:href="#mc3843c225d" y="23.14175"/>
      </g>
     </g>
     <g id="text_15">
      <!-- 9.0 -->
      <defs>
       <path d="M 10.984375 1.515625 
L 10.984375 10.5 
Q 14.703125 8.734375 18.5 7.8125 
Q 22.3125 6.890625 25.984375 6.890625 
Q 35.75 6.890625 40.890625 13.453125 
Q 46.046875 20.015625 46.78125 33.40625 
Q 43.953125 29.203125 39.59375 26.953125 
Q 35.25 24.703125 29.984375 24.703125 
Q 19.046875 24.703125 12.671875 31.3125 
Q 6.296875 37.9375 6.296875 49.421875 
Q 6.296875 60.640625 12.9375 67.421875 
Q 19.578125 74.21875 30.609375 74.21875 
Q 43.265625 74.21875 49.921875 64.515625 
Q 56.59375 54.828125 56.59375 36.375 
Q 56.59375 19.140625 48.40625 8.859375 
Q 40.234375 -1.421875 26.421875 -1.421875 
Q 22.703125 -1.421875 18.890625 -0.6875 
Q 15.09375 0.046875 10.984375 1.515625 
M 30.609375 32.421875 
Q 37.25 32.421875 41.125 36.953125 
Q 45.015625 41.5 45.015625 49.421875 
Q 45.015625 57.28125 41.125 61.84375 
Q 37.25 66.40625 30.609375 66.40625 
Q 23.96875 66.40625 20.09375 61.84375 
Q 16.21875 57.28125 16.21875 49.421875 
Q 16.21875 41.5 20.09375 36.953125 
Q 23.96875 32.421875 30.609375 32.421875 
" id="BitstreamVeraSans-Roman-39"/>
      </defs>
      <g transform="translate(23.81375 26.453)scale(0.12 -0.12)">
       <use xlink:href="#BitstreamVeraSans-Roman-39"/>
       <use x="63.623046875" xlink:href="#BitstreamVeraSans-Roman-2e"/>
       <use x="95.41015625" xlink:href="#BitstreamVeraSans-Roman-30"/>
      </g>
     </g>
    </g>
    <g id="text_16">
     <!-- max Q-value -->
     <defs>
      <path d="M 2.984375 54.6875 
L 12.5 54.6875 
L 29.59375 8.796875 
L 46.6875 54.6875 
L 56.203125 54.6875 
L 35.6875 0 
L 23.484375 0 
z
" id="BitstreamVeraSans-Roman-76"/>
      <path d="M 4.890625 31.390625 
L 31.203125 31.390625 
L 31.203125 23.390625 
L 4.890625 23.390625 
z
" id="BitstreamVeraSans-Roman-2d"/>
      <path d="M 39.40625 66.21875 
Q 28.65625 66.21875 22.328125 58.203125 
Q 16.015625 50.203125 16.015625 36.375 
Q 16.015625 22.609375 22.328125 14.59375 
Q 28.65625 6.59375 39.40625 6.59375 
Q 50.140625 6.59375 56.421875 14.59375 
Q 62.703125 22.609375 62.703125 36.375 
Q 62.703125 50.203125 56.421875 58.203125 
Q 50.140625 66.21875 39.40625 66.21875 
M 53.21875 1.3125 
L 66.21875 -12.890625 
L 54.296875 -12.890625 
L 43.5 -1.21875 
Q 41.890625 -1.3125 41.03125 -1.359375 
Q 40.1875 -1.421875 39.40625 -1.421875 
Q 24.03125 -1.421875 14.8125 8.859375 
Q 5.609375 19.140625 5.609375 36.375 
Q 5.609375 53.65625 14.8125 63.9375 
Q 24.03125 74.21875 39.40625 74.21875 
Q 54.734375 74.21875 63.90625 63.9375 
Q 73.09375 53.65625 73.09375 36.375 
Q 73.09375 23.6875 67.984375 14.640625 
Q 62.890625 5.609375 53.21875 1.3125 
" id="BitstreamVeraSans-Roman-51"/>
      <path d="M 8.5 21.578125 
L 8.5 54.6875 
L 17.484375 54.6875 
L 17.484375 21.921875 
Q 17.484375 14.15625 20.5 10.265625 
Q 23.53125 6.390625 29.59375 6.390625 
Q 36.859375 6.390625 41.078125 11.03125 
Q 45.3125 15.671875 45.3125 23.6875 
L 45.3125 54.6875 
L 54.296875 54.6875 
L 54.296875 0 
L 45.3125 0 
L 45.3125 8.40625 
Q 42.046875 3.421875 37.71875 1 
Q 33.40625 -1.421875 27.6875 -1.421875 
Q 18.265625 -1.421875 13.375 4.4375 
Q 8.5 10.296875 8.5 21.578125 
" id="BitstreamVeraSans-Roman-75"/>
      <path d="M 54.890625 54.6875 
L 35.109375 28.078125 
L 55.90625 0 
L 45.3125 0 
L 29.390625 21.484375 
L 13.484375 0 
L 2.875 0 
L 24.125 28.609375 
L 4.6875 54.6875 
L 15.28125 54.6875 
L 29.78125 35.203125 
L 44.28125 54.6875 
z
" id="BitstreamVeraSans-Roman-78"/>
     </defs>
     <g transform="translate(16.318125 234.1983125)rotate(-90.0)scale(0.12 -0.12)">
      <use xlink:href="#BitstreamVeraSans-Roman-6d"/>
      <use x="97.412109375" xlink:href="#BitstreamVeraSans-Roman-61"/>
      <use x="158.69140625" xlink:href="#BitstreamVeraSans-Roman-78"/>
      <use x="217.87109375" xlink:href="#BitstreamVeraSans-Roman-20"/>
      <use x="249.658203125" xlink:href="#BitstreamVeraSans-Roman-51"/>
      <use x="328.400390625" xlink:href="#BitstreamVeraSans-Roman-2d"/>
      <use x="364.453125" xlink:href="#BitstreamVeraSans-Roman-76"/>
      <use x="423.6328125" xlink:href="#BitstreamVeraSans-Roman-61"/>
      <use x="484.912109375" xlink:href="#BitstreamVeraSans-Roman-6c"/>
      <use x="512.6953125" xlink:href="#BitstreamVeraSans-Roman-75"/>
      <use x="576.07421875" xlink:href="#BitstreamVeraSans-Roman-65"/>
     </g>
    </g>
   </g>
   <g id="text_17">
    <!-- Max Q-values for angles observed, joint3 -->
    <defs>
     <path d="M 9.8125 72.90625 
L 24.515625 72.90625 
L 43.109375 23.296875 
L 61.8125 72.90625 
L 76.515625 72.90625 
L 76.515625 0 
L 66.890625 0 
L 66.890625 64.015625 
L 48.09375 14.015625 
L 38.1875 14.015625 
L 19.390625 64.015625 
L 19.390625 0 
L 9.8125 0 
z
" id="BitstreamVeraSans-Roman-4d"/>
     <path d="M 48.6875 27.296875 
Q 48.6875 37.203125 44.609375 42.84375 
Q 40.53125 48.484375 33.40625 48.484375 
Q 26.265625 48.484375 22.1875 42.84375 
Q 18.109375 37.203125 18.109375 27.296875 
Q 18.109375 17.390625 22.1875 11.75 
Q 26.265625 6.109375 33.40625 6.109375 
Q 40.53125 6.109375 44.609375 11.75 
Q 48.6875 17.390625 48.6875 27.296875 
M 18.109375 46.390625 
Q 20.953125 51.265625 25.265625 53.625 
Q 29.59375 56 35.59375 56 
Q 45.5625 56 51.78125 48.09375 
Q 58.015625 40.1875 58.015625 27.296875 
Q 58.015625 14.40625 51.78125 6.484375 
Q 45.5625 -1.421875 35.59375 -1.421875 
Q 29.59375 -1.421875 25.265625 0.953125 
Q 20.953125 3.328125 18.109375 8.203125 
L 18.109375 0 
L 9.078125 0 
L 9.078125 75.984375 
L 18.109375 75.984375 
z
" id="BitstreamVeraSans-Roman-62"/>
     <path d="M 18.3125 70.21875 
L 18.3125 54.6875 
L 36.8125 54.6875 
L 36.8125 47.703125 
L 18.3125 47.703125 
L 18.3125 18.015625 
Q 18.3125 11.328125 20.140625 9.421875 
Q 21.96875 7.515625 27.59375 7.515625 
L 36.8125 7.515625 
L 36.8125 0 
L 27.59375 0 
Q 17.1875 0 13.234375 3.875 
Q 9.28125 7.765625 9.28125 18.015625 
L 9.28125 47.703125 
L 2.6875 47.703125 
L 2.6875 54.6875 
L 9.28125 54.6875 
L 9.28125 70.21875 
z
" id="BitstreamVeraSans-Roman-74"/>
     <path d="M 37.109375 75.984375 
L 37.109375 68.5 
L 28.515625 68.5 
Q 23.6875 68.5 21.796875 66.546875 
Q 19.921875 64.59375 19.921875 59.515625 
L 19.921875 54.6875 
L 34.71875 54.6875 
L 34.71875 47.703125 
L 19.921875 47.703125 
L 19.921875 0 
L 10.890625 0 
L 10.890625 47.703125 
L 2.296875 47.703125 
L 2.296875 54.6875 
L 10.890625 54.6875 
L 10.890625 58.5 
Q 10.890625 67.625 15.140625 71.796875 
Q 19.390625 75.984375 28.609375 75.984375 
z
" id="BitstreamVeraSans-Roman-66"/>
     <path d="M 40.578125 39.3125 
Q 47.65625 37.796875 51.625 33 
Q 55.609375 28.21875 55.609375 21.1875 
Q 55.609375 10.40625 48.1875 4.484375 
Q 40.765625 -1.421875 27.09375 -1.421875 
Q 22.515625 -1.421875 17.65625 -0.515625 
Q 12.796875 0.390625 7.625 2.203125 
L 7.625 11.71875 
Q 11.71875 9.328125 16.59375 8.109375 
Q 21.484375 6.890625 26.8125 6.890625 
Q 36.078125 6.890625 40.9375 10.546875 
Q 45.796875 14.203125 45.796875 21.1875 
Q 45.796875 27.640625 41.28125 31.265625 
Q 36.765625 34.90625 28.71875 34.90625 
L 20.21875 34.90625 
L 20.21875 43.015625 
L 29.109375 43.015625 
Q 36.375 43.015625 40.234375 45.921875 
Q 44.09375 48.828125 44.09375 54.296875 
Q 44.09375 59.90625 40.109375 62.90625 
Q 36.140625 65.921875 28.71875 65.921875 
Q 24.65625 65.921875 20.015625 65.03125 
Q 15.375 64.15625 9.8125 62.3125 
L 9.8125 71.09375 
Q 15.4375 72.65625 20.34375 73.4375 
Q 25.25 74.21875 29.59375 74.21875 
Q 40.828125 74.21875 47.359375 69.109375 
Q 53.90625 64.015625 53.90625 55.328125 
Q 53.90625 49.265625 50.4375 45.09375 
Q 46.96875 40.921875 40.578125 39.3125 
" id="BitstreamVeraSans-Roman-33"/>
     <path d="M 11.71875 12.40625 
L 22.015625 12.40625 
L 22.015625 4 
L 14.015625 -11.625 
L 7.71875 -11.625 
L 11.71875 4 
z
" id="BitstreamVeraSans-Roman-2c"/>
     <path d="M 9.421875 54.6875 
L 18.40625 54.6875 
L 18.40625 -0.984375 
Q 18.40625 -11.421875 14.421875 -16.109375 
Q 10.453125 -20.796875 1.609375 -20.796875 
L -1.8125 -20.796875 
L -1.8125 -13.1875 
L 0.59375 -13.1875 
Q 5.71875 -13.1875 7.5625 -10.8125 
Q 9.421875 -8.453125 9.421875 -0.984375 
z
M 9.421875 75.984375 
L 18.40625 75.984375 
L 18.40625 64.59375 
L 9.421875 64.59375 
z
" id="BitstreamVeraSans-Roman-6a"/>
     <path d="M 44.28125 53.078125 
L 44.28125 44.578125 
Q 40.484375 46.53125 36.375 47.5 
Q 32.28125 48.484375 27.875 48.484375 
Q 21.1875 48.484375 17.84375 46.4375 
Q 14.5 44.390625 14.5 40.28125 
Q 14.5 37.15625 16.890625 35.375 
Q 19.28125 33.59375 26.515625 31.984375 
L 29.59375 31.296875 
Q 39.15625 29.25 43.1875 25.515625 
Q 47.21875 21.78125 47.21875 15.09375 
Q 47.21875 7.46875 41.1875 3.015625 
Q 35.15625 -1.421875 24.609375 -1.421875 
Q 20.21875 -1.421875 15.453125 -0.5625 
Q 10.6875 0.296875 5.421875 2 
L 5.421875 11.28125 
Q 10.40625 8.6875 15.234375 7.390625 
Q 20.0625 6.109375 24.8125 6.109375 
Q 31.15625 6.109375 34.5625 8.28125 
Q 37.984375 10.453125 37.984375 14.40625 
Q 37.984375 18.0625 35.515625 20.015625 
Q 33.0625 21.96875 24.703125 23.78125 
L 21.578125 24.515625 
Q 13.234375 26.265625 9.515625 29.90625 
Q 5.8125 33.546875 5.8125 39.890625 
Q 5.8125 47.609375 11.28125 51.796875 
Q 16.75 56 26.8125 56 
Q 31.78125 56 36.171875 55.265625 
Q 40.578125 54.546875 44.28125 53.078125 
" id="BitstreamVeraSans-Roman-73"/>
    </defs>
    <g transform="translate(122.41875 18.14175)scale(0.144 -0.144)">
     <use xlink:href="#BitstreamVeraSans-Roman-4d"/>
     <use x="86.279296875" xlink:href="#BitstreamVeraSans-Roman-61"/>
     <use x="147.55859375" xlink:href="#BitstreamVeraSans-Roman-78"/>
     <use x="206.73828125" xlink:href="#BitstreamVeraSans-Roman-20"/>
     <use x="238.525390625" xlink:href="#BitstreamVeraSans-Roman-51"/>
     <use x="317.267578125" xlink:href="#BitstreamVeraSans-Roman-2d"/>
     <use x="353.3203125" xlink:href="#BitstreamVeraSans-Roman-76"/>
     <use x="412.5" xlink:href="#BitstreamVeraSans-Roman-61"/>
     <use x="473.779296875" xlink:href="#BitstreamVeraSans-Roman-6c"/>
     <use x="501.5625" xlink:href="#BitstreamVeraSans-Roman-75"/>
     <use x="564.94140625" xlink:href="#BitstreamVeraSans-Roman-65"/>
     <use x="626.46484375" xlink:href="#BitstreamVeraSans-Roman-73"/>
     <use x="678.564453125" xlink:href="#BitstreamVeraSans-Roman-20"/>
     <use x="710.3515625" xlink:href="#BitstreamVeraSans-Roman-66"/>
     <use x="745.556640625" xlink:href="#BitstreamVeraSans-Roman-6f"/>
     <use x="806.73828125" xlink:href="#BitstreamVeraSans-Roman-72"/>
     <use x="847.8515625" xlink:href="#BitstreamVeraSans-Roman-20"/>
     <use x="879.638671875" xlink:href="#BitstreamVeraSans-Roman-61"/>
     <use x="940.91796875" xlink:href="#BitstreamVeraSans-Roman-6e"/>
     <use x="1004.296875" xlink:href="#BitstreamVeraSans-Roman-67"/>
     <use x="1067.7734375" xlink:href="#BitstreamVeraSans-Roman-6c"/>
     <use x="1095.556640625" xlink:href="#BitstreamVeraSans-Roman-65"/>
     <use x="1157.080078125" xlink:href="#BitstreamVeraSans-Roman-73"/>
     <use x="1209.1796875" xlink:href="#BitstreamVeraSans-Roman-20"/>
     <use x="1240.966796875" xlink:href="#BitstreamVeraSans-Roman-6f"/>
     <use x="1302.1484375" xlink:href="#BitstreamVeraSans-Roman-62"/>
     <use x="1365.625" xlink:href="#BitstreamVeraSans-Roman-73"/>
     <use x="1417.724609375" xlink:href="#BitstreamVeraSans-Roman-65"/>
     <use x="1479.248046875" xlink:href="#BitstreamVeraSans-Roman-72"/>
     <use x="1520.361328125" xlink:href="#BitstreamVeraSans-Roman-76"/>
     <use x="1579.541015625" xlink:href="#BitstreamVeraSans-Roman-65"/>
     <use x="1641.064453125" xlink:href="#BitstreamVeraSans-Roman-64"/>
     <use x="1704.541015625" xlink:href="#BitstreamVeraSans-Roman-2c"/>
     <use x="1736.328125" xlink:href="#BitstreamVeraSans-Roman-20"/>
     <use x="1768.115234375" xlink:href="#BitstreamVeraSans-Roman-6a"/>
     <use x="1795.8984375" xlink:href="#BitstreamVeraSans-Roman-6f"/>
     <use x="1857.080078125" xlink:href="#BitstreamVeraSans-Roman-69"/>
     <use x="1884.86328125" xlink:href="#BitstreamVeraSans-Roman-6e"/>
     <use x="1948.2421875" xlink:href="#BitstreamVeraSans-Roman-74"/>
     <use x="1987.451171875" xlink:href="#BitstreamVeraSans-Roman-33"/>
    </g>
   </g>
  </g>
 </g>
 <defs>
  <clipPath id="p4d635b4368">
   <rect height="345.6" width="446.4" x="46.8975" y="23.14175"/>
  </clipPath>
 </defs>
</svg>
