<?xml version="1.0" encoding="utf-8" standalone="no"?>
<!DOCTYPE svg PUBLIC "-//W3C//DTD SVG 1.1//EN"
  "http://www.w3.org/Graphics/SVG/1.1/DTD/svg11.dtd">
<!-- Created with matplotlib (http://matplotlib.org/) -->
<svg height="408pt" version="1.1" viewBox="0 0 515 408" width="515pt" xmlns="http://www.w3.org/2000/svg" xmlns:xlink="http://www.w3.org/1999/xlink">
 <defs>
  <style type="text/css">
*{stroke-linecap:butt;stroke-linejoin:round;stroke-miterlimit:100000;}
  </style>
 </defs>
 <g id="figure_1">
  <g id="patch_1">
   <path d="M 0 408.16925 
L 515.7675 408.16925 
L 515.7675 0 
L 0 0 
z
" style="fill:#ffffff;"/>
  </g>
  <g id="axes_1">
   <g id="patch_2">
    <path d="M 46.8975 368.74175 
L 493.2975 368.74175 
L 493.2975 23.14175 
L 46.8975 23.14175 
z
" style="fill:#ffffff;"/>
   </g>
   <g id="line2d_1">
    <path clip-path="url(#paf501e51b2)" d="M 47.1455 354.9167 
L 47.3935 357.247738 
L 47.6415 353.161133 
L 47.8895 355.870595 
L 48.1375 356.974776 
L 48.6335 353.840616 
L 48.8815 355.080369 
L 49.1295 359.703398 
L 49.3775 353.630789 
L 49.6255 359.160326 
L 50.1215 355.563186 
L 50.3695 359.485288 
L 50.6175 360.893416 
L 50.8655 356.891231 
L 51.1135 360.074417 
L 51.6095 355.497209 
L 51.8575 355.552673 
L 52.1055 354.479699 
L 52.3535 357.816929 
L 52.6015 356.036244 
L 52.8495 356.736128 
L 53.0975 354.886282 
L 53.3455 360.850303 
L 53.5935 364.135044 
L 53.8415 362.27968 
L 54.0895 358.481704 
L 54.3375 358.12252 
L 54.5855 360.269574 
L 54.8335 356.307623 
L 55.0815 359.456776 
L 55.3295 360.097351 
L 55.5775 357.824691 
L 55.8255 352.054738 
L 56.0735 360.360352 
L 56.3215 356.844395 
L 56.5695 358.66389 
L 56.8175 355.866162 
L 57.0655 359.431136 
L 57.3135 361.125138 
L 57.5615 356.505704 
L 57.8095 364.807085 
L 58.0575 355.183589 
L 58.3055 360.10586 
L 58.5535 356.971384 
L 58.8015 364.099269 
L 59.0495 357.82229 
L 59.2975 357.05307 
L 59.5455 357.613111 
L 59.7935 352.549289 
L 60.0415 354.207017 
L 60.2895 359.283207 
L 60.5375 353.466704 
L 60.7855 357.557035 
L 61.0335 351.84428 
L 61.2815 353.229357 
L 61.5295 357.926191 
L 61.7775 359.570564 
L 62.2735 352.392819 
L 62.5215 352.701014 
L 62.7695 356.956455 
L 63.0175 363.919844 
L 63.2655 357.791703 
L 63.5135 359.810962 
L 64.0095 353.256763 
L 64.2575 359.47539 
L 64.5055 355.092651 
L 64.7535 357.672904 
L 65.0015 357.252983 
L 65.2495 353.337666 
L 65.4975 356.046461 
L 65.7455 356.227551 
L 65.9935 356.051506 
L 66.2415 358.378938 
L 66.4895 355.472316 
L 66.7375 359.906475 
L 66.9855 359.307099 
L 67.4815 355.457207 
L 67.7295 358.518506 
L 67.9775 356.961682 
L 68.2255 360.658832 
L 68.4735 353.321435 
L 68.7215 357.269714 
L 68.9695 355.26133 
L 69.2175 357.702973 
L 69.4655 362.368725 
L 69.9615 353.283903 
L 70.2095 353.633925 
L 70.4575 356.615769 
L 70.7055 358.150276 
L 70.9535 354.66445 
L 71.2015 354.259508 
L 71.4495 354.261452 
L 71.6975 353.953394 
L 71.9455 358.007476 
L 72.1935 360.0642 
L 72.4415 352.525987 
L 72.6895 355.561437 
L 72.9375 354.700925 
L 73.4335 358.362343 
L 73.9295 356.565863 
L 74.1775 363.935217 
L 74.4255 357.355072 
L 74.6735 357.875535 
L 74.9215 354.649105 
L 75.1695 358.328215 
L 75.4175 350.937154 
L 75.6655 357.475565 
L 75.9135 355.200833 
L 76.1615 354.21773 
L 76.4095 358.290797 
L 76.6575 360.108703 
L 76.9055 359.199342 
L 77.1535 355.790651 
L 77.4015 357.995384 
L 77.8975 351.966767 
L 78.6415 361.883578 
L 78.8895 356.958453 
L 79.1375 360.534631 
L 79.3855 355.072377 
L 79.6335 352.400356 
L 79.8815 353.354273 
L 80.1295 354.774667 
L 80.3775 353.324164 
L 80.6255 360.77564 
L 80.8735 353.090298 
L 81.1215 362.212879 
L 81.3695 354.030149 
L 81.6175 359.396945 
L 81.8655 359.410554 
L 82.1135 354.729958 
L 82.3615 359.800032 
L 82.6095 359.636557 
L 83.1055 353.697909 
L 83.3535 358.816133 
L 83.6015 352.203985 
L 83.8495 354.908177 
L 84.0975 352.345485 
L 84.3455 359.686199 
L 84.5935 357.072988 
L 84.8415 352.429179 
L 85.0895 358.703231 
L 85.3375 354.69492 
L 85.5855 354.801196 
L 85.8335 353.38964 
L 86.0815 352.63836 
L 86.3295 353.799583 
L 86.5775 356.58636 
L 86.8255 354.141173 
L 87.3215 358.020533 
L 87.5695 359.688625 
L 88.0655 351.817222 
L 88.3135 361.464107 
L 88.5615 357.236362 
L 88.8095 359.679048 
L 89.0575 359.297888 
L 89.3055 350.489242 
L 89.5535 353.737887 
L 89.8015 350.802617 
L 90.0495 357.609571 
L 90.5455 350.308612 
L 90.7935 354.374102 
L 91.0415 351.186386 
L 91.2895 349.637143 
L 91.5375 355.458145 
L 91.7855 349.475712 
L 92.0335 348.80875 
L 92.2815 348.473294 
L 92.5295 343.637735 
L 92.7775 346.801308 
L 93.0255 347.064401 
L 93.2735 346.589717 
L 93.5215 349.448676 
L 94.0175 343.873269 
L 94.2655 348.057794 
L 94.5135 344.220071 
L 94.7615 343.74899 
L 95.0095 341.225347 
L 95.2575 341.881272 
L 95.5055 342.910306 
L 95.7535 352.819285 
L 96.0015 343.288402 
L 96.2495 339.456084 
L 96.4975 347.383174 
L 96.7455 340.412856 
L 96.9935 339.863353 
L 97.4895 338.381444 
L 97.7375 341.751552 
L 97.9855 336.419428 
L 98.2335 341.737561 
L 98.4815 336.411854 
L 98.7295 335.064979 
L 98.9775 336.446511 
L 99.2255 336.320849 
L 99.4735 337.769899 
L 99.7215 335.805794 
L 99.9695 329.334908 
L 100.2175 329.906102 
L 100.4655 337.872186 
L 100.7135 333.971456 
L 100.9615 332.113715 
L 101.2095 334.22715 
L 101.4575 333.19777 
L 101.7055 334.398779 
L 101.9535 330.440542 
L 102.2015 330.90169 
L 102.4495 328.520339 
L 102.6975 331.754226 
L 102.9455 332.252862 
L 103.1935 334.871215 
L 103.4415 323.365102 
L 103.6895 333.794102 
L 103.9375 334.189461 
L 104.1855 328.794295 
L 104.4335 330.765924 
L 104.6815 329.961085 
L 104.9295 322.984758 
L 105.1775 327.511376 
L 105.4255 328.182744 
L 105.6735 327.125179 
L 105.9215 327.762368 
L 106.1695 327.069694 
L 106.4175 326.920977 
L 106.6655 332.904846 
L 106.9135 327.712095 
L 107.1615 327.403343 
L 107.4095 328.649173 
L 107.6575 325.05314 
L 107.9055 327.803554 
L 108.1535 321.569716 
L 108.4015 326.941089 
L 108.8975 324.086633 
L 109.1455 320.969007 
L 109.3935 324.605309 
L 109.6415 320.824825 
L 109.8895 324.731997 
L 110.1375 322.865905 
L 110.3855 319.559762 
L 110.6335 323.106014 
L 110.8815 319.224374 
L 111.1295 312.688403 
L 111.3775 326.093777 
L 111.6255 310.30411 
L 112.1215 335.115502 
L 112.3695 321.208071 
L 112.6175 315.549003 
L 113.1135 320.096126 
L 113.3615 317.142655 
L 113.6095 307.971354 
L 114.1055 323.012011 
L 114.3535 309.406161 
L 114.6015 315.815365 
L 114.8495 314.497783 
L 115.0975 319.75816 
L 115.3455 318.5304 
L 115.5935 311.809563 
L 115.8415 314.136173 
L 116.0895 317.634051 
L 116.3375 317.632498 
L 116.5855 313.075405 
L 116.8335 312.070321 
L 117.0815 315.647332 
L 117.3295 308.949916 
L 117.5775 318.551258 
L 117.8255 309.42487 
L 118.0735 322.038269 
L 118.3215 311.238281 
L 118.5695 312.621351 
L 118.8175 308.558761 
L 119.0655 306.683401 
L 119.3135 310.726083 
L 119.5615 310.088648 
L 119.8095 321.997696 
L 120.0575 314.881254 
L 120.3055 314.316567 
L 120.8015 310.371667 
L 121.0495 311.928431 
L 121.2975 315.012621 
L 121.5455 310.438755 
L 121.7935 317.9313 
L 122.0415 312.664678 
L 122.2895 316.51923 
L 122.7855 310.21608 
L 123.0335 312.500793 
L 123.2815 310.277051 
L 123.5295 315.108218 
L 123.7775 313.779593 
L 124.0255 311.736504 
L 124.2735 311.357053 
L 124.5215 313.721545 
L 124.7695 311.497704 
L 125.0175 316.397375 
L 125.2655 311.003921 
L 125.5135 320.243914 
L 125.7615 311.844431 
L 126.0095 310.289214 
L 126.2575 307.724471 
L 126.5055 308.79774 
L 126.7535 308.626709 
L 127.0015 308.766529 
L 127.2495 314.117689 
L 127.4975 307.938635 
L 127.9935 315.785049 
L 128.2415 309.720731 
L 128.7375 314.282879 
L 128.9855 310.810419 
L 129.2335 309.393436 
L 129.4815 310.098191 
L 129.7295 312.498141 
L 130.2255 309.783072 
L 130.4735 307.085834 
L 130.7215 309.366887 
L 130.9695 308.060376 
L 131.2175 311.674389 
L 131.4655 309.498395 
L 131.7135 309.782835 
L 131.9615 309.233748 
L 132.2095 313.577548 
L 132.4575 308.779074 
L 132.7055 312.329071 
L 132.9535 310.067999 
L 133.4495 309.768434 
L 133.6975 308.28338 
L 133.9455 309.685824 
L 134.1935 311.726875 
L 134.4415 309.506739 
L 134.6895 309.525638 
L 134.9375 308.70458 
L 135.1855 308.60438 
L 135.6815 314.259063 
L 135.9295 311.901658 
L 136.1775 310.982617 
L 136.4255 309.327384 
L 136.6735 309.504327 
L 136.9215 313.392465 
L 137.1695 308.649652 
L 137.9135 310.638836 
L 138.1615 309.968561 
L 138.4095 310.59969 
L 138.9055 313.138182 
L 139.1535 308.728408 
L 139.4015 310.38912 
L 139.6495 310.965452 
L 139.8975 308.574149 
L 140.1455 308.902014 
L 140.3935 311.095991 
L 140.6415 309.223923 
L 140.8895 311.814808 
L 141.1375 310.234043 
L 141.3855 315.956254 
L 141.8815 309.245098 
L 142.1295 310.576955 
L 142.3775 314.184924 
L 142.6255 311.008372 
L 142.8735 310.110275 
L 143.1215 313.121169 
L 143.3695 310.16882 
L 143.6175 311.947107 
L 143.8655 310.403703 
L 144.1135 312.672652 
L 144.3615 310.66778 
L 144.6095 309.753141 
L 144.8575 309.981008 
L 145.1055 313.845948 
L 145.3535 310.977658 
L 145.6015 310.888388 
L 146.0975 309.486913 
L 146.3455 310.05656 
L 146.8415 311.572949 
L 147.0895 311.171651 
L 147.3375 309.239345 
L 147.5855 308.322383 
L 147.8335 311.858375 
L 148.0815 312.101392 
L 148.3295 308.370121 
L 148.8255 313.851614 
L 149.0735 311.060566 
L 149.3215 310.192497 
L 149.5695 312.712197 
L 149.8175 310.28813 
L 150.0655 310.808081 
L 150.3135 311.712333 
L 150.5615 311.892391 
L 150.8095 310.589939 
L 151.0575 311.421253 
L 151.3055 310.395275 
L 151.5535 303.003648 
L 151.8015 311.918297 
L 152.0495 313.479373 
L 152.2975 310.95004 
L 152.5455 316.617835 
L 152.7935 310.45059 
L 153.0415 311.533478 
L 153.2895 310.396868 
L 153.5375 310.995401 
L 153.7855 311.013151 
L 154.0335 310.768822 
L 154.2815 311.555526 
L 154.5295 310.952269 
L 154.7775 313.073849 
L 155.0255 311.349089 
L 155.2735 313.609251 
L 155.5215 312.030707 
L 155.7695 312.329844 
L 156.0175 313.168019 
L 156.2655 312.11423 
L 156.7615 312.756935 
L 157.0095 313.359949 
L 157.2575 313.496765 
L 157.5055 312.203759 
L 157.7535 311.806641 
L 158.0015 316.724398 
L 158.2495 314.444279 
L 158.4975 310.237227 
L 158.7455 311.171408 
L 158.9935 318.569266 
L 159.2415 301.945461 
L 159.4895 312.857783 
L 159.7375 312.153936 
L 159.9855 314.754552 
L 160.2335 314.185699 
L 160.4815 312.938508 
L 160.7295 310.769651 
L 160.9775 316.1872 
L 161.2255 312.446459 
L 161.4735 312.902484 
L 161.7215 312.005853 
L 161.9695 313.765261 
L 162.4655 311.760984 
L 162.7135 310.699045 
L 162.9615 315.403126 
L 163.4575 310.70994 
L 163.7055 311.307166 
L 163.9535 314.500293 
L 164.2015 312.461281 
L 164.4495 312.913403 
L 164.6975 314.144189 
L 164.9455 309.926991 
L 165.1935 316.728058 
L 165.6895 308.796435 
L 165.9375 315.10332 
L 166.1855 312.706284 
L 166.4335 313.274388 
L 166.6815 310.674699 
L 166.9295 314.156509 
L 167.4255 309.678497 
L 167.6735 314.810915 
L 167.9215 314.749034 
L 168.1695 317.38374 
L 168.4175 324.114931 
L 168.6655 313.177777 
L 168.9135 312.980307 
L 169.1615 309.654063 
L 169.6575 311.773275 
L 169.9055 305.586757 
L 170.1535 308.60964 
L 170.4015 306.345213 
L 170.6495 311.121722 
L 170.8975 312.828721 
L 171.1455 311.025427 
L 171.3935 310.760427 
L 171.6415 312.723 
L 171.8895 321.933597 
L 172.1375 311.257666 
L 172.3855 314.528432 
L 172.6335 311.795958 
L 172.8815 320.110958 
L 173.1295 312.35336 
L 173.3775 324.497947 
L 173.6255 315.045527 
L 174.1215 310.420388 
L 174.3695 309.251085 
L 174.6175 313.503294 
L 174.8655 310.162981 
L 175.1135 314.314013 
L 175.3615 313.667297 
L 175.6095 313.634989 
L 175.8575 310.544761 
L 176.1055 311.516919 
L 176.3535 300.409821 
L 176.6015 311.024287 
L 177.0975 315.85936 
L 177.3455 315.255022 
L 177.5935 310.598191 
L 177.8415 311.667654 
L 178.0895 313.429325 
L 178.3375 313.954358 
L 178.5855 309.225121 
L 178.8335 309.643057 
L 179.0815 306.664191 
L 179.3295 313.382493 
L 179.5775 307.857384 
L 179.8255 312.919596 
L 180.0735 307.658882 
L 180.3215 314.075273 
L 180.5695 313.292339 
L 180.8175 309.558801 
L 181.0655 312.677013 
L 181.3135 310.635748 
L 181.5615 310.537094 
L 181.8095 309.909856 
L 182.0575 315.089407 
L 182.3055 315.458556 
L 182.5535 299.931259 
L 183.0495 317.867057 
L 183.5455 311.827965 
L 183.7935 312.540313 
L 184.0415 308.108931 
L 184.2895 309.65954 
L 184.5375 314.939113 
L 184.7855 309.796835 
L 185.0335 310.705347 
L 185.2815 304.83233 
L 185.5295 307.322027 
L 186.0255 301.146985 
L 186.2735 310.892844 
L 186.5215 309.031314 
L 186.7695 309.069618 
L 187.0175 309.339663 
L 187.2655 309.881179 
L 187.5135 302.210854 
L 187.7615 308.446872 
L 188.0095 307.453023 
L 188.2575 305.38485 
L 188.5055 302.231247 
L 188.7535 309.614434 
L 189.0015 308.189937 
L 189.2495 311.126154 
L 189.7455 302.860345 
L 189.9935 295.515552 
L 190.2415 310.021035 
L 190.4895 306.145163 
L 190.7375 308.52192 
L 190.9855 294.150161 
L 191.2335 306.378346 
L 191.4815 311.297859 
L 191.7295 310.331651 
L 191.9775 294.727479 
L 192.2255 307.550676 
L 192.4735 312.334891 
L 192.7215 309.212158 
L 192.9695 308.546275 
L 193.2175 310.093427 
L 193.7135 288.008387 
L 193.9615 298.748958 
L 194.2095 286.877525 
L 194.4575 304.889086 
L 194.7055 289.140564 
L 194.9535 300.900903 
L 195.2015 285.650311 
L 195.4495 288.062018 
L 195.6975 284.798411 
L 195.9455 283.553329 
L 196.1935 283.902282 
L 196.4415 283.764106 
L 196.6895 280.669534 
L 196.9375 303.229224 
L 197.1855 279.751384 
L 197.4335 280.026307 
L 197.9295 283.284233 
L 198.1775 288.372834 
L 198.4255 272.432106 
L 198.6735 273.472402 
L 198.9215 273.018419 
L 199.1695 273.617828 
L 199.4175 277.979287 
L 199.6655 278.528076 
L 200.1615 272.265808 
L 200.4095 279.391476 
L 200.6575 303.759258 
L 200.9055 291.880882 
L 201.1535 263.746988 
L 201.4015 262.871981 
L 201.6495 277.456516 
L 202.3935 249.681313 
L 202.6415 265.01989 
L 202.8895 255.630302 
L 203.1375 259.969118 
L 203.3855 243.89163 
L 203.6335 270.577593 
L 203.8815 236.136027 
L 204.1295 251.508725 
L 204.3775 254.816366 
L 204.6255 238.581924 
L 204.8735 242.240008 
L 205.1215 239.993303 
L 205.3695 239.58001 
L 205.6175 233.287575 
L 205.8655 247.860101 
L 206.1135 241.934454 
L 206.6095 211.22098 
L 206.8575 213.953885 
L 207.1055 212.821171 
L 207.3535 206.797009 
L 207.6015 211.691056 
L 207.8495 212.80505 
L 208.0975 198.119896 
L 208.3455 201.055646 
L 208.5935 195.691496 
L 208.8415 185.855795 
L 209.0895 222.71976 
L 209.5855 196.629856 
L 210.0815 183.544285 
L 210.3295 203.838571 
L 210.8255 214.989304 
L 211.0735 201.310587 
L 211.3215 204.534135 
L 211.5695 196.69051 
L 211.8175 198.273485 
L 212.0655 163.073867 
L 212.3135 171.52079 
L 212.5615 165.185537 
L 212.8095 175.391446 
L 213.0575 173.046523 
L 213.3055 147.592371 
L 213.5535 151.19781 
L 213.8015 162.571094 
L 214.0495 165.304368 
L 214.2975 149.713265 
L 214.5455 185.485594 
L 214.7935 167.627314 
L 215.0415 167.109885 
L 215.2895 172.925781 
L 215.5375 174.33774 
L 215.7855 154.423776 
L 216.0335 183.943271 
L 216.2815 139.578533 
L 216.5295 159.962551 
L 216.7775 163.133288 
L 217.0255 138.315131 
L 217.2735 149.807437 
L 217.5215 140.746556 
L 217.7695 159.702031 
L 218.0175 148.918447 
L 218.2655 148.784849 
L 218.5135 137.685053 
L 218.7615 161.644033 
L 219.0095 141.923685 
L 219.2575 139.202601 
L 219.5055 151.228689 
L 220.0015 123.420317 
L 220.2495 140.672364 
L 220.4975 141.837599 
L 220.7455 138.135683 
L 220.9935 137.148453 
L 221.2415 121.137744 
L 221.4895 153.70667 
L 221.9855 109.400116 
L 222.4815 151.149181 
L 222.7295 105.332602 
L 222.9775 120.734961 
L 223.2255 107.273391 
L 223.4735 116.97234 
L 223.7215 103.563584 
L 224.2175 117.432776 
L 224.4655 90.013726 
L 224.7135 113.047802 
L 224.9615 77.900825 
L 225.2095 106.96828 
L 225.4575 104.295962 
L 225.7055 152.258938 
L 225.9535 77.462978 
L 226.2015 97.220127 
L 226.4495 93.253825 
L 226.6975 133.714367 
L 226.9455 110.452661 
L 227.1935 115.458006 
L 227.4415 86.63776 
L 227.6895 98.611256 
L 227.9375 126.101564 
L 228.1855 108.403737 
L 228.4335 81.957657 
L 228.6815 77.296456 
L 228.9295 99.497191 
L 229.1775 76.427215 
L 229.4255 99.504753 
L 229.6735 96.982249 
L 229.9215 102.070848 
L 230.1695 137.507194 
L 230.4175 91.768629 
L 230.9135 77.868672 
L 231.1615 105.733288 
L 231.4095 102.749207 
L 231.6575 114.192704 
L 231.9055 78.28269 
L 232.1535 111.794944 
L 232.4015 128.357489 
L 232.6495 118.689542 
L 232.8975 118.965607 
L 233.1455 122.513677 
L 233.3935 103.078919 
L 234.1375 172.497909 
L 234.3855 121.364019 
L 234.6335 102.22703 
L 234.8815 106.050044 
L 235.1295 135.529557 
L 235.3775 120.467275 
L 235.6255 88.059463 
L 235.8735 130.81935 
L 236.1215 148.307614 
L 236.3695 121.264123 
L 236.6175 109.063631 
L 236.8655 154.97592 
L 237.1135 158.196923 
L 237.3615 143.785391 
L 237.6095 90.098976 
L 237.8575 135.499484 
L 238.1055 148.7627 
L 238.3535 110.125123 
L 238.6015 152.342157 
L 238.8495 137.634267 
L 239.0975 110.563047 
L 239.3455 148.959276 
L 239.5935 133.944459 
L 239.8415 109.863395 
L 240.0895 132.987576 
L 240.3375 121.131888 
L 240.5855 114.814359 
L 240.8335 136.409843 
L 241.0815 96.564818 
L 241.3295 146.094912 
L 241.5775 99.277473 
L 241.8255 111.757514 
L 242.0735 106.737368 
L 242.3215 90.957213 
L 242.5695 136.118343 
L 242.8175 126.720062 
L 243.0655 107.196648 
L 243.3135 116.21187 
L 243.5615 107.76354 
L 243.8095 130.061116 
L 244.0575 111.953432 
L 244.3055 120.7586 
L 244.5535 124.209193 
L 245.0495 104.444313 
L 245.2975 110.892672 
L 245.7935 105.70014 
L 246.0415 89.753599 
L 246.2895 106.598978 
L 246.5375 113.093357 
L 246.7855 128.183578 
L 247.0335 107.913867 
L 247.2815 109.171851 
L 247.5295 100.999607 
L 247.7775 97.725221 
L 248.0255 108.157204 
L 248.2735 99.931279 
L 248.5215 121.744789 
L 248.7695 111.410858 
L 249.0175 110.887582 
L 249.2655 113.800194 
L 249.5135 103.795804 
L 249.7615 111.598713 
L 250.0095 170.296509 
L 250.2575 106.646692 
L 250.5055 109.474956 
L 250.7535 131.680191 
L 251.2495 148.992024 
L 251.4975 142.563871 
L 251.7455 157.125029 
L 251.9935 145.455439 
L 252.2415 122.69452 
L 252.4895 120.877506 
L 252.7375 148.663853 
L 252.9855 126.132847 
L 253.2335 134.492963 
L 253.4815 147.045193 
L 253.7295 144.36499 
L 253.9775 155.899323 
L 254.2255 120.91443 
L 254.4735 131.124583 
L 254.7215 100.064438 
L 254.9695 117.882642 
L 255.2175 122.256928 
L 255.4655 135.569149 
L 255.7135 122.378338 
L 255.9615 132.964017 
L 256.2095 115.9628 
L 256.4575 118.590468 
L 256.7055 143.392211 
L 256.9535 145.175266 
L 257.2015 119.210085 
L 257.4495 121.289404 
L 257.6975 117.794318 
L 257.9455 120.164095 
L 258.1935 138.798349 
L 258.9375 120.709994 
L 259.1855 136.362849 
L 259.4335 159.211111 
L 259.6815 125.282015 
L 259.9295 166.238669 
L 260.1775 154.009101 
L 260.4255 132.82613 
L 260.6735 123.589704 
L 260.9215 121.069752 
L 261.1695 111.220728 
L 261.4175 149.516886 
L 261.6655 163.803941 
L 261.9135 135.391414 
L 262.1615 149.324272 
L 262.4095 134.675277 
L 262.6575 138.22627 
L 262.9055 125.542167 
L 263.1535 127.843667 
L 263.4015 127.965954 
L 263.6495 139.213541 
L 263.8975 140.769802 
L 264.1455 129.066769 
L 264.3935 151.11284 
L 264.6415 158.938779 
L 264.8895 126.785458 
L 265.1375 151.486866 
L 265.3855 149.31345 
L 265.6335 135.375736 
L 265.8815 156.971871 
L 266.1295 137.476312 
L 266.3775 154.954845 
L 266.6255 143.858675 
L 266.8735 142.208514 
L 267.1215 146.382854 
L 267.3695 139.805284 
L 267.6175 138.379577 
L 267.8655 135.510488 
L 268.1135 114.992943 
L 268.3615 145.852236 
L 268.6095 113.361823 
L 269.1055 130.388121 
L 269.3535 147.496597 
L 269.8495 139.679017 
L 270.0975 144.574995 
L 270.3455 141.667262 
L 270.5935 140.939932 
L 270.8415 150.876795 
L 271.3375 137.486948 
L 271.5855 153.099899 
L 271.8335 149.041177 
L 272.0815 117.609765 
L 272.3295 136.8533 
L 272.5775 128.535673 
L 272.8255 129.860788 
L 273.0735 120.687883 
L 273.5695 114.940524 
L 273.8175 135.797129 
L 274.0655 124.342646 
L 274.3135 100.633971 
L 274.5615 122.716493 
L 274.8095 121.120943 
L 275.0575 122.628685 
L 275.3055 119.223836 
L 275.5535 130.920367 
L 275.8015 103.197559 
L 276.0495 113.455868 
L 276.2975 117.853734 
L 276.5455 113.065882 
L 276.7935 122.400402 
L 277.2895 108.349034 
L 277.5375 122.011649 
L 277.7855 120.237242 
L 278.0335 129.292683 
L 278.2815 103.602223 
L 278.5295 114.026319 
L 279.0255 95.552657 
L 279.5215 124.862114 
L 279.7695 95.681536 
L 280.0175 96.390787 
L 280.2655 105.746608 
L 280.5135 105.582664 
L 280.7615 86.393868 
L 281.0095 97.917771 
L 281.2575 99.536719 
L 281.5055 104.213346 
L 281.7535 101.672586 
L 282.0015 126.829558 
L 282.2495 92.243903 
L 282.4975 114.237791 
L 282.7455 95.331038 
L 282.9935 101.847319 
L 283.2415 103.644784 
L 283.4895 146.223764 
L 283.7375 86.136291 
L 283.9855 99.718511 
L 284.2335 129.377499 
L 284.4815 95.895848 
L 284.7295 124.063754 
L 284.9775 93.4613 
L 285.2255 99.88892 
L 285.4735 121.834148 
L 285.7215 94.186296 
L 285.9695 127.752242 
L 286.2175 116.487762 
L 286.4655 91.763067 
L 286.7135 112.18274 
L 286.9615 94.303082 
L 287.2095 92.582399 
L 287.4575 101.714083 
L 287.7055 92.85075 
L 287.9535 102.678865 
L 288.2015 117.543604 
L 288.4495 121.488021 
L 288.6975 95.939213 
L 288.9455 93.107068 
L 289.1935 114.099413 
L 289.4415 113.894934 
L 289.6895 93.958567 
L 289.9375 113.30847 
L 290.1855 120.849365 
L 290.4335 115.199509 
L 290.6815 122.263166 
L 290.9295 122.555591 
L 291.1775 121.545293 
L 291.4255 115.191624 
L 291.6735 86.86867 
L 291.9215 131.877593 
L 292.4175 89.909824 
L 292.6655 115.574711 
L 292.9135 98.394137 
L 293.1615 122.100254 
L 293.4095 83.018263 
L 293.6575 103.146431 
L 293.9055 114.016059 
L 294.1535 104.476125 
L 294.4015 67.320444 
L 294.6495 102.206448 
L 294.8975 66.417919 
L 295.1455 113.908225 
L 295.3935 110.322708 
L 295.6415 93.887219 
L 295.8895 127.149087 
L 296.1375 72.415569 
L 296.6335 108.536254 
L 296.8815 105.205889 
L 297.1295 95.131263 
L 297.3775 106.394153 
L 297.6255 94.014653 
L 297.8735 96.558076 
L 298.3695 108.949325 
L 298.6175 100.797774 
L 298.8655 111.391245 
L 299.1135 113.378958 
L 299.3615 134.018502 
L 299.6095 113.823021 
L 299.8575 105.231328 
L 300.1055 133.252646 
L 300.3535 105.272108 
L 300.6015 114.057783 
L 300.8495 109.184398 
L 301.0975 112.871928 
L 301.3455 126.21995 
L 301.5935 124.992718 
L 302.0895 89.821082 
L 302.3375 120.387628 
L 302.5855 99.607234 
L 302.8335 64.499004 
L 303.0815 121.391135 
L 303.3295 82.256001 
L 303.8255 138.883276 
L 304.0735 157.16385 
L 304.3215 128.478553 
L 304.5695 65.630808 
L 304.8175 122.093646 
L 305.0655 97.953818 
L 305.3135 91.897055 
L 305.5615 159.335072 
L 305.8095 109.430185 
L 306.0575 127.905816 
L 306.5535 118.808734 
L 306.8015 110.451153 
L 307.0495 111.234115 
L 307.2975 110.209855 
L 307.5455 75.390797 
L 307.7935 114.790472 
L 308.0415 126.653704 
L 308.2895 74.600661 
L 308.5375 106.614728 
L 308.7855 88.882979 
L 309.0335 123.481801 
L 309.2815 124.693616 
L 309.5295 138.147501 
L 309.7775 99.955954 
L 310.2735 125.492509 
L 310.7695 94.762447 
L 311.0175 94.748067 
L 311.2655 123.878029 
L 311.5135 113.53236 
L 311.7615 52.676902 
L 312.0095 47.444126 
L 312.2575 140.31669 
L 312.5055 145.31724 
L 312.7535 154.880656 
L 313.2495 105.189529 
L 313.4975 113.040786 
L 313.7455 135.540311 
L 313.9935 112.483754 
L 314.2415 54.454659 
L 314.4895 108.470524 
L 314.7375 107.137679 
L 314.9855 53.952129 
L 315.2335 110.734456 
L 315.4815 114.102554 
L 315.7295 89.418766 
L 315.9775 124.720992 
L 316.2255 104.02235 
L 316.4735 102.744452 
L 316.7215 135.586016 
L 316.9695 112.255494 
L 317.2175 104.150648 
L 317.4655 100.643456 
L 317.7135 77.17639 
L 317.9615 76.507117 
L 318.2095 114.831555 
L 318.4575 130.506031 
L 318.7055 60.174147 
L 318.9535 80.466919 
L 319.2015 114.442863 
L 319.4495 118.01321 
L 319.6975 130.360351 
L 319.9455 117.368184 
L 320.1935 116.12287 
L 320.4415 93.737089 
L 320.6895 94.811543 
L 320.9375 88.465432 
L 321.1855 96.791659 
L 321.4335 70.400808 
L 321.6815 110.731363 
L 321.9295 84.788638 
L 322.1775 114.24785 
L 322.4255 62.398651 
L 322.6735 63.947041 
L 322.9215 79.539157 
L 323.1695 81.288345 
L 323.4175 130.646322 
L 323.6655 119.757057 
L 323.9135 96.386677 
L 324.1615 90.575461 
L 324.4095 113.694034 
L 324.6575 88.864285 
L 324.9055 97.470888 
L 325.1535 76.153829 
L 325.4015 92.000716 
L 325.6495 95.562132 
L 326.1455 148.037579 
L 326.3935 93.931656 
L 326.6415 115.584682 
L 326.8895 78.914849 
L 327.1375 75.920859 
L 327.3855 89.578918 
L 327.8815 129.188862 
L 328.1295 115.97768 
L 328.3775 92.77631 
L 328.6255 94.910207 
L 328.8735 108.999908 
L 329.3695 72.321485 
L 329.8655 95.813541 
L 330.1135 67.029458 
L 330.3615 97.212243 
L 330.6095 86.695023 
L 330.8575 82.062066 
L 331.1055 82.649277 
L 331.3535 68.53856 
L 331.6015 90.856453 
L 331.8495 126.012716 
L 332.0975 87.793051 
L 332.3455 99.433959 
L 332.5935 88.163796 
L 332.8415 98.64289 
L 333.0895 92.392299 
L 333.3375 82.573834 
L 333.5855 99.26404 
L 333.8335 101.441741 
L 334.5775 75.309708 
L 334.8255 79.617737 
L 335.0735 86.081696 
L 335.3215 81.104501 
L 335.5695 99.39858 
L 335.8175 91.641809 
L 336.0655 97.839447 
L 336.3135 85.320466 
L 336.5615 113.359278 
L 336.8095 97.020799 
L 337.0575 104.728984 
L 337.5535 81.076169 
L 337.8015 84.270307 
L 338.0495 96.281 
L 338.2975 96.869678 
L 338.5455 85.060978 
L 338.7935 91.824172 
L 339.0415 88.033878 
L 339.2895 77.028049 
L 339.5375 74.791198 
L 339.7855 96.642918 
L 340.2815 63.9608 
L 340.5295 89.799743 
L 341.0255 95.146951 
L 341.2735 79.277644 
L 341.5215 84.051633 
L 341.7695 64.459733 
L 342.0175 79.8916 
L 342.2655 82.810295 
L 342.5135 104.619876 
L 342.7615 83.801151 
L 343.0095 97.393819 
L 343.5055 71.75363 
L 343.7535 82.177887 
L 344.0015 78.384211 
L 344.2495 78.015611 
L 344.4975 74.979967 
L 344.7455 127.386803 
L 344.9935 101.411214 
L 345.7375 61.658748 
L 345.9855 55.238246 
L 346.2335 67.678614 
L 346.4815 63.736646 
L 346.7295 90.662163 
L 346.9775 87.656302 
L 347.2255 61.370794 
L 347.4735 100.434738 
L 347.7215 73.447543 
L 347.9695 75.134172 
L 348.4655 91.739199 
L 348.7135 67.972572 
L 348.9615 63.354129 
L 349.2095 125.348404 
L 349.4575 114.96228 
L 349.7055 76.087926 
L 349.9535 86.285923 
L 350.2015 68.929819 
L 350.4495 65.433038 
L 350.6975 55.454489 
L 350.9455 62.582302 
L 351.1935 83.642548 
L 351.4415 58.985288 
L 351.6895 101.129005 
L 351.9375 77.267842 
L 352.1855 67.34327 
L 352.4335 76.271056 
L 352.6815 69.473516 
L 352.9295 85.06493 
L 353.1775 76.769811 
L 353.4255 73.049484 
L 353.6735 83.56188 
L 353.9215 48.847619 
L 354.1695 80.880481 
L 354.4175 62.135027 
L 354.6655 77.484885 
L 354.9135 79.204432 
L 355.4095 62.598457 
L 355.6575 84.315885 
L 355.9055 79.496849 
L 356.1535 80.512817 
L 356.6495 77.588322 
L 356.8975 82.743037 
L 357.1455 81.241516 
L 357.3935 63.041301 
L 357.6415 63.188629 
L 357.8895 66.411757 
L 358.1375 62.630915 
L 358.3855 80.014003 
L 358.6335 89.163579 
L 358.8815 84.43884 
L 359.1295 97.283568 
L 359.3775 64.669943 
L 359.6255 58.255259 
L 359.8735 80.09107 
L 360.1215 91.418807 
L 360.3695 60.795028 
L 360.6175 78.240735 
L 360.8655 72.89385 
L 361.1135 71.854307 
L 361.3615 80.871249 
L 361.6095 78.435255 
L 361.8575 90.29058 
L 362.1055 60.467503 
L 362.3535 86.990354 
L 362.6015 88.288132 
L 362.8495 83.079712 
L 363.0975 71.159191 
L 363.3455 83.528809 
L 363.5935 76.029234 
L 363.8415 79.640436 
L 364.0895 89.816062 
L 364.3375 73.582297 
L 364.5855 80.065299 
L 364.8335 69.202206 
L 365.0815 70.139768 
L 365.3295 65.744176 
L 365.5775 67.635999 
L 365.8255 83.693714 
L 366.3215 59.687564 
L 366.5695 95.171627 
L 366.8175 89.906492 
L 367.0655 72.796017 
L 367.5615 68.931931 
L 367.8095 76.205285 
L 368.0575 72.04902 
L 368.5535 55.835232 
L 368.8015 58.75819 
L 369.0495 76.490969 
L 369.2975 79.466185 
L 369.5455 80.400235 
L 369.7935 77.088587 
L 370.0415 76.743366 
L 370.2895 107.591917 
L 370.5375 56.074562 
L 370.7855 60.405885 
L 371.0335 52.71736 
L 371.2815 73.56075 
L 371.5295 54.751404 
L 371.7775 72.931167 
L 372.0255 75.243026 
L 372.2735 68.680182 
L 372.7695 63.859886 
L 373.0175 70.051117 
L 373.2655 90.005577 
L 373.5135 90.828982 
L 373.7615 69.846466 
L 374.0095 60.969504 
L 374.5055 93.350791 
L 375.0015 58.172789 
L 375.4975 74.525097 
L 375.7455 74.146011 
L 375.9935 62.806336 
L 376.2415 80.099575 
L 376.4895 68.216435 
L 376.7375 70.301197 
L 376.9855 77.662069 
L 377.2335 76.292903 
L 377.4815 70.691404 
L 378.2255 90.92555 
L 378.4735 66.961047 
L 378.7215 55.673858 
L 378.9695 88.530309 
L 379.4655 55.701004 
L 379.7135 65.64551 
L 379.9615 67.477309 
L 380.2095 64.636501 
L 380.4575 70.567788 
L 380.7055 101.003033 
L 380.9535 97.304767 
L 381.4495 72.99609 
L 381.6975 66.576625 
L 381.9455 82.387335 
L 382.1935 72.675924 
L 382.4415 74.777609 
L 382.6895 88.912996 
L 382.9375 70.575637 
L 383.1855 92.042374 
L 383.4335 84.038412 
L 383.6815 98.393519 
L 384.1775 73.745165 
L 384.4255 74.170994 
L 384.6735 80.3719 
L 384.9215 81.746105 
L 385.1695 73.227617 
L 385.4175 76.393547 
L 385.6655 74.95012 
L 385.9135 72.446249 
L 386.1615 72.141448 
L 386.4095 72.816907 
L 386.6575 82.345431 
L 386.9055 81.485564 
L 387.1535 89.837134 
L 387.4015 76.247179 
L 387.6495 99.633018 
L 388.1455 78.355754 
L 388.3935 89.305342 
L 388.6415 59.457121 
L 388.8895 59.374523 
L 389.1375 66.18814 
L 389.3855 66.269328 
L 389.6335 86.373321 
L 389.8815 70.956006 
L 390.1295 66.413189 
L 390.3775 67.114355 
L 390.6255 80.612041 
L 390.8735 65.821627 
L 391.1215 74.637418 
L 391.3695 71.048642 
L 391.6175 75.517686 
L 391.8655 95.785047 
L 392.1135 68.842348 
L 392.3615 85.076507 
L 392.6095 81.229478 
L 392.8575 93.370379 
L 393.1055 84.563744 
L 393.3535 81.599722 
L 393.6015 60.521707 
L 393.8495 71.331734 
L 394.0975 67.192925 
L 394.3455 80.856239 
L 394.5935 81.957051 
L 394.8415 64.709283 
L 395.0895 73.534444 
L 395.3375 59.576426 
L 395.5855 59.022687 
L 395.8335 80.954376 
L 396.0815 51.73688 
L 396.3295 87.062169 
L 396.5775 71.565881 
L 396.8255 75.107897 
L 397.0735 68.294709 
L 397.3215 76.913213 
L 397.5695 62.094007 
L 397.8175 83.138351 
L 398.3135 69.936171 
L 398.8095 73.998159 
L 399.0575 63.074075 
L 399.5535 67.002893 
L 399.8015 66.123357 
L 400.0495 66.749768 
L 400.2975 78.53502 
L 400.5455 80.84145 
L 401.0415 58.496322 
L 401.2895 77.765604 
L 401.5375 110.057787 
L 401.7855 59.527052 
L 402.0335 84.009954 
L 402.2815 73.232936 
L 402.5295 71.143378 
L 402.7775 74.571158 
L 403.0255 56.140508 
L 403.2735 80.207733 
L 403.5215 71.906593 
L 403.7695 59.293039 
L 404.2655 76.629683 
L 404.5135 98.619786 
L 404.7615 74.215881 
L 405.0095 76.278308 
L 405.2575 90.383111 
L 405.5055 89.371412 
L 405.7535 68.377984 
L 406.0015 60.869328 
L 406.2495 82.946538 
L 406.4975 87.846459 
L 406.7455 71.838388 
L 406.9935 70.5729 
L 407.2415 111.601536 
L 407.4895 86.556086 
L 407.7375 84.495542 
L 407.9855 85.341532 
L 408.2335 79.82437 
L 408.4815 79.366983 
L 408.7295 62.328166 
L 408.9775 67.762428 
L 409.2255 88.244726 
L 409.4735 81.460256 
L 409.7215 67.580179 
L 409.9695 61.452508 
L 410.2175 73.82655 
L 410.4655 77.578879 
L 410.7135 73.844632 
L 410.9615 92.940225 
L 411.2095 74.173745 
L 411.4575 78.124535 
L 411.7055 93.628687 
L 411.9535 69.482344 
L 412.4495 86.372266 
L 412.6975 75.944944 
L 412.9455 83.942795 
L 413.1935 71.267112 
L 413.4415 83.459611 
L 413.6895 78.057543 
L 413.9375 88.414461 
L 414.1855 72.458084 
L 414.4335 68.518836 
L 414.9295 96.127169 
L 415.1775 66.980987 
L 415.4255 102.327884 
L 415.6735 94.226773 
L 415.9215 64.480268 
L 416.1695 60.609014 
L 416.4175 86.925238 
L 416.6655 68.916269 
L 416.9135 86.740182 
L 417.1615 40.323765 
L 417.4095 73.613957 
L 417.6575 87.653608 
L 417.9055 71.41382 
L 418.1535 72.878583 
L 418.4015 66.931144 
L 418.6495 75.05289 
L 418.8975 98.597143 
L 419.1455 77.621753 
L 419.3935 96.032207 
L 419.6415 73.420184 
L 419.8895 63.799006 
L 420.1375 88.355274 
L 420.3855 63.038001 
L 420.6335 87.312806 
L 421.1295 79.617047 
L 421.3775 69.079323 
L 421.6255 74.188736 
L 422.1215 67.043616 
L 422.3695 83.215103 
L 422.6175 66.217119 
L 422.8655 72.988915 
L 423.1135 83.910418 
L 423.3615 103.154819 
L 423.6095 80.255773 
L 424.1055 82.986235 
L 424.3535 69.792236 
L 424.6015 84.368888 
L 424.8495 62.787367 
L 425.0975 92.930611 
L 425.3455 92.645157 
L 425.5935 67.503259 
L 425.8415 78.045575 
L 426.0895 68.907749 
L 426.5855 71.580113 
L 426.8335 104.366977 
L 427.0815 68.247108 
L 427.3295 62.029728 
L 427.5775 91.647686 
L 427.8255 68.365645 
L 428.0735 98.541735 
L 428.3215 71.791178 
L 428.5695 64.122314 
L 428.8175 68.074151 
L 429.0655 77.227342 
L 429.3135 62.922519 
L 429.5615 67.620878 
L 429.8095 59.92119 
L 430.0575 62.052299 
L 430.3055 84.369669 
L 430.5535 84.733459 
L 431.0495 64.188685 
L 431.2975 70.972019 
L 431.5455 62.248229 
L 431.7935 61.015507 
L 432.0415 81.022554 
L 432.2895 79.571134 
L 432.5375 68.72935 
L 432.7855 71.19522 
L 433.0335 84.074456 
L 433.2815 62.066092 
L 433.7775 78.412447 
L 434.0255 62.295407 
L 434.2735 60.273022 
L 434.5215 71.789328 
L 434.7695 68.702061 
L 435.0175 61.505584 
L 435.2655 58.898188 
L 435.5135 99.892164 
L 435.7615 74.083079 
L 436.0095 66.565717 
L 436.2575 65.655104 
L 436.5055 72.675484 
L 436.7535 66.320897 
L 437.0015 65.090226 
L 437.2495 55.760688 
L 437.4975 78.13339 
L 437.7455 80.067869 
L 437.9935 87.040527 
L 438.2415 82.176481 
L 438.4895 65.674858 
L 438.9855 79.276088 
L 439.2335 69.997468 
L 439.4815 77.036436 
L 439.7295 73.246781 
L 439.9775 80.192547 
L 440.2255 94.221607 
L 440.7215 74.149406 
L 440.9695 79.538455 
L 441.2175 78.201007 
L 441.4655 90.285505 
L 441.7135 66.00962 
L 441.9615 66.249078 
L 442.2095 71.07581 
L 442.4575 95.578419 
L 442.7055 69.156825 
L 442.9535 77.815821 
L 443.2015 80.756535 
L 443.4495 69.005995 
L 443.6975 86.055597 
L 443.9455 72.45787 
L 444.1935 82.028148 
L 444.4415 84.253172 
L 444.6895 62.554013 
L 444.9375 76.945586 
L 445.1855 70.277504 
L 445.4335 75.822093 
L 445.6815 76.935262 
L 446.1775 80.970491 
L 446.4255 71.868458 
L 446.6735 69.352165 
L 446.9215 78.23524 
L 447.1695 70.079715 
L 447.4175 66.110852 
L 447.6655 66.206975 
L 447.9135 73.098401 
L 448.1615 63.016114 
L 448.4095 67.830856 
L 448.6575 85.708343 
L 448.9055 65.165954 
L 449.1535 66.075052 
L 449.6495 75.666152 
L 449.8975 64.803148 
L 450.1455 74.501482 
L 450.3935 70.414855 
L 450.6415 85.377031 
L 450.8895 59.585933 
L 451.1375 57.224864 
L 451.3855 69.697626 
L 451.6335 59.621474 
L 451.8815 59.66713 
L 452.1295 64.231422 
L 452.3775 84.306476 
L 452.6255 82.580779 
L 452.8735 66.776715 
L 453.1215 59.901303 
L 453.3695 67.03763 
L 453.6175 60.801512 
L 453.8655 60.831563 
L 454.1135 77.014233 
L 454.6095 56.654234 
L 454.8575 76.82963 
L 455.1055 49.057036 
L 455.3535 47.349616 
L 455.6015 60.178041 
L 455.8495 59.237034 
L 456.0975 60.685357 
L 456.3455 67.400861 
L 456.5935 62.805783 
L 456.8415 63.525598 
L 457.0895 74.578147 
L 457.3375 71.808132 
L 457.5855 77.127941 
L 458.0815 57.031229 
L 458.3295 51.107794 
L 458.5775 67.674737 
L 458.8255 70.275706 
L 459.0735 56.895652 
L 459.3215 59.126005 
L 459.5695 70.516121 
L 459.8175 67.373392 
L 460.0655 53.795225 
L 460.0655 53.795225 
" style="fill:none;stroke:#0000ff;stroke-linecap:square;stroke-width:0.5;"/>
   </g>
   <g id="patch_3">
    <path d="M 46.8975 368.74175 
L 46.8975 23.14175 
" style="fill:none;stroke:#000000;stroke-linecap:square;stroke-linejoin:miter;"/>
   </g>
   <g id="patch_4">
    <path d="M 493.2975 368.74175 
L 493.2975 23.14175 
" style="fill:none;stroke:#000000;stroke-linecap:square;stroke-linejoin:miter;"/>
   </g>
   <g id="patch_5">
    <path d="M 46.8975 368.74175 
L 493.2975 368.74175 
" style="fill:none;stroke:#000000;stroke-linecap:square;stroke-linejoin:miter;"/>
   </g>
   <g id="patch_6">
    <path d="M 46.8975 23.14175 
L 493.2975 23.14175 
" style="fill:none;stroke:#000000;stroke-linecap:square;stroke-linejoin:miter;"/>
   </g>
   <g id="matplotlib.axis_1">
    <g id="xtick_1">
     <g id="line2d_2">
      <defs>
       <path d="M 0 0 
L 0 -4 
" id="m78f953eb3b" style="stroke:#000000;stroke-width:0.5;"/>
      </defs>
      <g>
       <use style="stroke:#000000;stroke-width:0.5;" x="46.8975" xlink:href="#m78f953eb3b" y="368.74175"/>
      </g>
     </g>
     <g id="line2d_3">
      <defs>
       <path d="M 0 0 
L 0 4 
" id="m4a1c45551d" style="stroke:#000000;stroke-width:0.5;"/>
      </defs>
      <g>
       <use style="stroke:#000000;stroke-width:0.5;" x="46.8975" xlink:href="#m4a1c45551d" y="23.14175"/>
      </g>
     </g>
     <g id="text_1">
      <!-- 0 -->
      <defs>
       <path d="M 31.78125 66.40625 
Q 24.171875 66.40625 20.328125 58.90625 
Q 16.5 51.421875 16.5 36.375 
Q 16.5 21.390625 20.328125 13.890625 
Q 24.171875 6.390625 31.78125 6.390625 
Q 39.453125 6.390625 43.28125 13.890625 
Q 47.125 21.390625 47.125 36.375 
Q 47.125 51.421875 43.28125 58.90625 
Q 39.453125 66.40625 31.78125 66.40625 
M 31.78125 74.21875 
Q 44.046875 74.21875 50.515625 64.515625 
Q 56.984375 54.828125 56.984375 36.375 
Q 56.984375 17.96875 50.515625 8.265625 
Q 44.046875 -1.421875 31.78125 -1.421875 
Q 19.53125 -1.421875 13.0625 8.265625 
Q 6.59375 17.96875 6.59375 36.375 
Q 6.59375 54.828125 13.0625 64.515625 
Q 19.53125 74.21875 31.78125 74.21875 
" id="BitstreamVeraSans-Roman-30"/>
      </defs>
      <g transform="translate(43.08 381.859875)scale(0.12 -0.12)">
       <use xlink:href="#BitstreamVeraSans-Roman-30"/>
      </g>
     </g>
    </g>
    <g id="xtick_2">
     <g id="line2d_4">
      <g>
       <use style="stroke:#000000;stroke-width:0.5;" x="96.4975" xlink:href="#m78f953eb3b" y="368.74175"/>
      </g>
     </g>
     <g id="line2d_5">
      <g>
       <use style="stroke:#000000;stroke-width:0.5;" x="96.4975" xlink:href="#m4a1c45551d" y="23.14175"/>
      </g>
     </g>
     <g id="text_2">
      <!-- 200 -->
      <defs>
       <path d="M 19.1875 8.296875 
L 53.609375 8.296875 
L 53.609375 0 
L 7.328125 0 
L 7.328125 8.296875 
Q 12.9375 14.109375 22.625 23.890625 
Q 32.328125 33.6875 34.8125 36.53125 
Q 39.546875 41.84375 41.421875 45.53125 
Q 43.3125 49.21875 43.3125 52.78125 
Q 43.3125 58.59375 39.234375 62.25 
Q 35.15625 65.921875 28.609375 65.921875 
Q 23.96875 65.921875 18.8125 64.3125 
Q 13.671875 62.703125 7.8125 59.421875 
L 7.8125 69.390625 
Q 13.765625 71.78125 18.9375 73 
Q 24.125 74.21875 28.421875 74.21875 
Q 39.75 74.21875 46.484375 68.546875 
Q 53.21875 62.890625 53.21875 53.421875 
Q 53.21875 48.921875 51.53125 44.890625 
Q 49.859375 40.875 45.40625 35.40625 
Q 44.1875 33.984375 37.640625 27.21875 
Q 31.109375 20.453125 19.1875 8.296875 
" id="BitstreamVeraSans-Roman-32"/>
      </defs>
      <g transform="translate(85.045 381.859875)scale(0.12 -0.12)">
       <use xlink:href="#BitstreamVeraSans-Roman-32"/>
       <use x="63.623046875" xlink:href="#BitstreamVeraSans-Roman-30"/>
       <use x="127.24609375" xlink:href="#BitstreamVeraSans-Roman-30"/>
      </g>
     </g>
    </g>
    <g id="xtick_3">
     <g id="line2d_6">
      <g>
       <use style="stroke:#000000;stroke-width:0.5;" x="146.0975" xlink:href="#m78f953eb3b" y="368.74175"/>
      </g>
     </g>
     <g id="line2d_7">
      <g>
       <use style="stroke:#000000;stroke-width:0.5;" x="146.0975" xlink:href="#m4a1c45551d" y="23.14175"/>
      </g>
     </g>
     <g id="text_3">
      <!-- 400 -->
      <defs>
       <path d="M 37.796875 64.3125 
L 12.890625 25.390625 
L 37.796875 25.390625 
z
M 35.203125 72.90625 
L 47.609375 72.90625 
L 47.609375 25.390625 
L 58.015625 25.390625 
L 58.015625 17.1875 
L 47.609375 17.1875 
L 47.609375 0 
L 37.796875 0 
L 37.796875 17.1875 
L 4.890625 17.1875 
L 4.890625 26.703125 
z
" id="BitstreamVeraSans-Roman-34"/>
      </defs>
      <g transform="translate(134.645 381.859875)scale(0.12 -0.12)">
       <use xlink:href="#BitstreamVeraSans-Roman-34"/>
       <use x="63.623046875" xlink:href="#BitstreamVeraSans-Roman-30"/>
       <use x="127.24609375" xlink:href="#BitstreamVeraSans-Roman-30"/>
      </g>
     </g>
    </g>
    <g id="xtick_4">
     <g id="line2d_8">
      <g>
       <use style="stroke:#000000;stroke-width:0.5;" x="195.6975" xlink:href="#m78f953eb3b" y="368.74175"/>
      </g>
     </g>
     <g id="line2d_9">
      <g>
       <use style="stroke:#000000;stroke-width:0.5;" x="195.6975" xlink:href="#m4a1c45551d" y="23.14175"/>
      </g>
     </g>
     <g id="text_4">
      <!-- 600 -->
      <defs>
       <path d="M 33.015625 40.375 
Q 26.375 40.375 22.484375 35.828125 
Q 18.609375 31.296875 18.609375 23.390625 
Q 18.609375 15.53125 22.484375 10.953125 
Q 26.375 6.390625 33.015625 6.390625 
Q 39.65625 6.390625 43.53125 10.953125 
Q 47.40625 15.53125 47.40625 23.390625 
Q 47.40625 31.296875 43.53125 35.828125 
Q 39.65625 40.375 33.015625 40.375 
M 52.59375 71.296875 
L 52.59375 62.3125 
Q 48.875 64.0625 45.09375 64.984375 
Q 41.3125 65.921875 37.59375 65.921875 
Q 27.828125 65.921875 22.671875 59.328125 
Q 17.53125 52.734375 16.796875 39.40625 
Q 19.671875 43.65625 24.015625 45.921875 
Q 28.375 48.1875 33.59375 48.1875 
Q 44.578125 48.1875 50.953125 41.515625 
Q 57.328125 34.859375 57.328125 23.390625 
Q 57.328125 12.15625 50.6875 5.359375 
Q 44.046875 -1.421875 33.015625 -1.421875 
Q 20.359375 -1.421875 13.671875 8.265625 
Q 6.984375 17.96875 6.984375 36.375 
Q 6.984375 53.65625 15.1875 63.9375 
Q 23.390625 74.21875 37.203125 74.21875 
Q 40.921875 74.21875 44.703125 73.484375 
Q 48.484375 72.75 52.59375 71.296875 
" id="BitstreamVeraSans-Roman-36"/>
      </defs>
      <g transform="translate(184.245 381.859875)scale(0.12 -0.12)">
       <use xlink:href="#BitstreamVeraSans-Roman-36"/>
       <use x="63.623046875" xlink:href="#BitstreamVeraSans-Roman-30"/>
       <use x="127.24609375" xlink:href="#BitstreamVeraSans-Roman-30"/>
      </g>
     </g>
    </g>
    <g id="xtick_5">
     <g id="line2d_10">
      <g>
       <use style="stroke:#000000;stroke-width:0.5;" x="245.2975" xlink:href="#m78f953eb3b" y="368.74175"/>
      </g>
     </g>
     <g id="line2d_11">
      <g>
       <use style="stroke:#000000;stroke-width:0.5;" x="245.2975" xlink:href="#m4a1c45551d" y="23.14175"/>
      </g>
     </g>
     <g id="text_5">
      <!-- 800 -->
      <defs>
       <path d="M 31.78125 34.625 
Q 24.75 34.625 20.71875 30.859375 
Q 16.703125 27.09375 16.703125 20.515625 
Q 16.703125 13.921875 20.71875 10.15625 
Q 24.75 6.390625 31.78125 6.390625 
Q 38.8125 6.390625 42.859375 10.171875 
Q 46.921875 13.96875 46.921875 20.515625 
Q 46.921875 27.09375 42.890625 30.859375 
Q 38.875 34.625 31.78125 34.625 
M 21.921875 38.8125 
Q 15.578125 40.375 12.03125 44.71875 
Q 8.5 49.078125 8.5 55.328125 
Q 8.5 64.0625 14.71875 69.140625 
Q 20.953125 74.21875 31.78125 74.21875 
Q 42.671875 74.21875 48.875 69.140625 
Q 55.078125 64.0625 55.078125 55.328125 
Q 55.078125 49.078125 51.53125 44.71875 
Q 48 40.375 41.703125 38.8125 
Q 48.828125 37.15625 52.796875 32.3125 
Q 56.78125 27.484375 56.78125 20.515625 
Q 56.78125 9.90625 50.3125 4.234375 
Q 43.84375 -1.421875 31.78125 -1.421875 
Q 19.734375 -1.421875 13.25 4.234375 
Q 6.78125 9.90625 6.78125 20.515625 
Q 6.78125 27.484375 10.78125 32.3125 
Q 14.796875 37.15625 21.921875 38.8125 
M 18.3125 54.390625 
Q 18.3125 48.734375 21.84375 45.5625 
Q 25.390625 42.390625 31.78125 42.390625 
Q 38.140625 42.390625 41.71875 45.5625 
Q 45.3125 48.734375 45.3125 54.390625 
Q 45.3125 60.0625 41.71875 63.234375 
Q 38.140625 66.40625 31.78125 66.40625 
Q 25.390625 66.40625 21.84375 63.234375 
Q 18.3125 60.0625 18.3125 54.390625 
" id="BitstreamVeraSans-Roman-38"/>
      </defs>
      <g transform="translate(233.845 381.859875)scale(0.12 -0.12)">
       <use xlink:href="#BitstreamVeraSans-Roman-38"/>
       <use x="63.623046875" xlink:href="#BitstreamVeraSans-Roman-30"/>
       <use x="127.24609375" xlink:href="#BitstreamVeraSans-Roman-30"/>
      </g>
     </g>
    </g>
    <g id="xtick_6">
     <g id="line2d_12">
      <g>
       <use style="stroke:#000000;stroke-width:0.5;" x="294.8975" xlink:href="#m78f953eb3b" y="368.74175"/>
      </g>
     </g>
     <g id="line2d_13">
      <g>
       <use style="stroke:#000000;stroke-width:0.5;" x="294.8975" xlink:href="#m4a1c45551d" y="23.14175"/>
      </g>
     </g>
     <g id="text_6">
      <!-- 1000 -->
      <defs>
       <path d="M 12.40625 8.296875 
L 28.515625 8.296875 
L 28.515625 63.921875 
L 10.984375 60.40625 
L 10.984375 69.390625 
L 28.421875 72.90625 
L 38.28125 72.90625 
L 38.28125 8.296875 
L 54.390625 8.296875 
L 54.390625 0 
L 12.40625 0 
z
" id="BitstreamVeraSans-Roman-31"/>
      </defs>
      <g transform="translate(279.6275 381.859875)scale(0.12 -0.12)">
       <use xlink:href="#BitstreamVeraSans-Roman-31"/>
       <use x="63.623046875" xlink:href="#BitstreamVeraSans-Roman-30"/>
       <use x="127.24609375" xlink:href="#BitstreamVeraSans-Roman-30"/>
       <use x="190.869140625" xlink:href="#BitstreamVeraSans-Roman-30"/>
      </g>
     </g>
    </g>
    <g id="xtick_7">
     <g id="line2d_14">
      <g>
       <use style="stroke:#000000;stroke-width:0.5;" x="344.4975" xlink:href="#m78f953eb3b" y="368.74175"/>
      </g>
     </g>
     <g id="line2d_15">
      <g>
       <use style="stroke:#000000;stroke-width:0.5;" x="344.4975" xlink:href="#m4a1c45551d" y="23.14175"/>
      </g>
     </g>
     <g id="text_7">
      <!-- 1200 -->
      <g transform="translate(329.2275 381.859875)scale(0.12 -0.12)">
       <use xlink:href="#BitstreamVeraSans-Roman-31"/>
       <use x="63.623046875" xlink:href="#BitstreamVeraSans-Roman-32"/>
       <use x="127.24609375" xlink:href="#BitstreamVeraSans-Roman-30"/>
       <use x="190.869140625" xlink:href="#BitstreamVeraSans-Roman-30"/>
      </g>
     </g>
    </g>
    <g id="xtick_8">
     <g id="line2d_16">
      <g>
       <use style="stroke:#000000;stroke-width:0.5;" x="394.0975" xlink:href="#m78f953eb3b" y="368.74175"/>
      </g>
     </g>
     <g id="line2d_17">
      <g>
       <use style="stroke:#000000;stroke-width:0.5;" x="394.0975" xlink:href="#m4a1c45551d" y="23.14175"/>
      </g>
     </g>
     <g id="text_8">
      <!-- 1400 -->
      <g transform="translate(378.8275 381.859875)scale(0.12 -0.12)">
       <use xlink:href="#BitstreamVeraSans-Roman-31"/>
       <use x="63.623046875" xlink:href="#BitstreamVeraSans-Roman-34"/>
       <use x="127.24609375" xlink:href="#BitstreamVeraSans-Roman-30"/>
       <use x="190.869140625" xlink:href="#BitstreamVeraSans-Roman-30"/>
      </g>
     </g>
    </g>
    <g id="xtick_9">
     <g id="line2d_18">
      <g>
       <use style="stroke:#000000;stroke-width:0.5;" x="443.6975" xlink:href="#m78f953eb3b" y="368.74175"/>
      </g>
     </g>
     <g id="line2d_19">
      <g>
       <use style="stroke:#000000;stroke-width:0.5;" x="443.6975" xlink:href="#m4a1c45551d" y="23.14175"/>
      </g>
     </g>
     <g id="text_9">
      <!-- 1600 -->
      <g transform="translate(428.4275 381.859875)scale(0.12 -0.12)">
       <use xlink:href="#BitstreamVeraSans-Roman-31"/>
       <use x="63.623046875" xlink:href="#BitstreamVeraSans-Roman-36"/>
       <use x="127.24609375" xlink:href="#BitstreamVeraSans-Roman-30"/>
       <use x="190.869140625" xlink:href="#BitstreamVeraSans-Roman-30"/>
      </g>
     </g>
    </g>
    <g id="xtick_10">
     <g id="line2d_20">
      <g>
       <use style="stroke:#000000;stroke-width:0.5;" x="493.2975" xlink:href="#m78f953eb3b" y="368.74175"/>
      </g>
     </g>
     <g id="line2d_21">
      <g>
       <use style="stroke:#000000;stroke-width:0.5;" x="493.2975" xlink:href="#m4a1c45551d" y="23.14175"/>
      </g>
     </g>
     <g id="text_10">
      <!-- 1800 -->
      <g transform="translate(478.0275 381.859875)scale(0.12 -0.12)">
       <use xlink:href="#BitstreamVeraSans-Roman-31"/>
       <use x="63.623046875" xlink:href="#BitstreamVeraSans-Roman-38"/>
       <use x="127.24609375" xlink:href="#BitstreamVeraSans-Roman-30"/>
       <use x="190.869140625" xlink:href="#BitstreamVeraSans-Roman-30"/>
      </g>
     </g>
    </g>
    <g id="text_11">
     <!-- episodes -->
     <defs>
      <path d="M 9.421875 54.6875 
L 18.40625 54.6875 
L 18.40625 0 
L 9.421875 0 
z
M 9.421875 75.984375 
L 18.40625 75.984375 
L 18.40625 64.59375 
L 9.421875 64.59375 
z
" id="BitstreamVeraSans-Roman-69"/>
      <path d="M 44.28125 53.078125 
L 44.28125 44.578125 
Q 40.484375 46.53125 36.375 47.5 
Q 32.28125 48.484375 27.875 48.484375 
Q 21.1875 48.484375 17.84375 46.4375 
Q 14.5 44.390625 14.5 40.28125 
Q 14.5 37.15625 16.890625 35.375 
Q 19.28125 33.59375 26.515625 31.984375 
L 29.59375 31.296875 
Q 39.15625 29.25 43.1875 25.515625 
Q 47.21875 21.78125 47.21875 15.09375 
Q 47.21875 7.46875 41.1875 3.015625 
Q 35.15625 -1.421875 24.609375 -1.421875 
Q 20.21875 -1.421875 15.453125 -0.5625 
Q 10.6875 0.296875 5.421875 2 
L 5.421875 11.28125 
Q 10.40625 8.6875 15.234375 7.390625 
Q 20.0625 6.109375 24.8125 6.109375 
Q 31.15625 6.109375 34.5625 8.28125 
Q 37.984375 10.453125 37.984375 14.40625 
Q 37.984375 18.0625 35.515625 20.015625 
Q 33.0625 21.96875 24.703125 23.78125 
L 21.578125 24.515625 
Q 13.234375 26.265625 9.515625 29.90625 
Q 5.8125 33.546875 5.8125 39.890625 
Q 5.8125 47.609375 11.28125 51.796875 
Q 16.75 56 26.8125 56 
Q 31.78125 56 36.171875 55.265625 
Q 40.578125 54.546875 44.28125 53.078125 
" id="BitstreamVeraSans-Roman-73"/>
      <path d="M 18.109375 8.203125 
L 18.109375 -20.796875 
L 9.078125 -20.796875 
L 9.078125 54.6875 
L 18.109375 54.6875 
L 18.109375 46.390625 
Q 20.953125 51.265625 25.265625 53.625 
Q 29.59375 56 35.59375 56 
Q 45.5625 56 51.78125 48.09375 
Q 58.015625 40.1875 58.015625 27.296875 
Q 58.015625 14.40625 51.78125 6.484375 
Q 45.5625 -1.421875 35.59375 -1.421875 
Q 29.59375 -1.421875 25.265625 0.953125 
Q 20.953125 3.328125 18.109375 8.203125 
M 48.6875 27.296875 
Q 48.6875 37.203125 44.609375 42.84375 
Q 40.53125 48.484375 33.40625 48.484375 
Q 26.265625 48.484375 22.1875 42.84375 
Q 18.109375 37.203125 18.109375 27.296875 
Q 18.109375 17.390625 22.1875 11.75 
Q 26.265625 6.109375 33.40625 6.109375 
Q 40.53125 6.109375 44.609375 11.75 
Q 48.6875 17.390625 48.6875 27.296875 
" id="BitstreamVeraSans-Roman-70"/>
      <path d="M 30.609375 48.390625 
Q 23.390625 48.390625 19.1875 42.75 
Q 14.984375 37.109375 14.984375 27.296875 
Q 14.984375 17.484375 19.15625 11.84375 
Q 23.34375 6.203125 30.609375 6.203125 
Q 37.796875 6.203125 41.984375 11.859375 
Q 46.1875 17.53125 46.1875 27.296875 
Q 46.1875 37.015625 41.984375 42.703125 
Q 37.796875 48.390625 30.609375 48.390625 
M 30.609375 56 
Q 42.328125 56 49.015625 48.375 
Q 55.71875 40.765625 55.71875 27.296875 
Q 55.71875 13.875 49.015625 6.21875 
Q 42.328125 -1.421875 30.609375 -1.421875 
Q 18.84375 -1.421875 12.171875 6.21875 
Q 5.515625 13.875 5.515625 27.296875 
Q 5.515625 40.765625 12.171875 48.375 
Q 18.84375 56 30.609375 56 
" id="BitstreamVeraSans-Roman-6f"/>
      <path d="M 56.203125 29.59375 
L 56.203125 25.203125 
L 14.890625 25.203125 
Q 15.484375 15.921875 20.484375 11.0625 
Q 25.484375 6.203125 34.421875 6.203125 
Q 39.59375 6.203125 44.453125 7.46875 
Q 49.3125 8.734375 54.109375 11.28125 
L 54.109375 2.78125 
Q 49.265625 0.734375 44.1875 -0.34375 
Q 39.109375 -1.421875 33.890625 -1.421875 
Q 20.796875 -1.421875 13.15625 6.1875 
Q 5.515625 13.8125 5.515625 26.8125 
Q 5.515625 40.234375 12.765625 48.109375 
Q 20.015625 56 32.328125 56 
Q 43.359375 56 49.78125 48.890625 
Q 56.203125 41.796875 56.203125 29.59375 
M 47.21875 32.234375 
Q 47.125 39.59375 43.09375 43.984375 
Q 39.0625 48.390625 32.421875 48.390625 
Q 24.90625 48.390625 20.390625 44.140625 
Q 15.875 39.890625 15.1875 32.171875 
z
" id="BitstreamVeraSans-Roman-65"/>
      <path d="M 45.40625 46.390625 
L 45.40625 75.984375 
L 54.390625 75.984375 
L 54.390625 0 
L 45.40625 0 
L 45.40625 8.203125 
Q 42.578125 3.328125 38.25 0.953125 
Q 33.9375 -1.421875 27.875 -1.421875 
Q 17.96875 -1.421875 11.734375 6.484375 
Q 5.515625 14.40625 5.515625 27.296875 
Q 5.515625 40.1875 11.734375 48.09375 
Q 17.96875 56 27.875 56 
Q 33.9375 56 38.25 53.625 
Q 42.578125 51.265625 45.40625 46.390625 
M 14.796875 27.296875 
Q 14.796875 17.390625 18.875 11.75 
Q 22.953125 6.109375 30.078125 6.109375 
Q 37.203125 6.109375 41.296875 11.75 
Q 45.40625 17.390625 45.40625 27.296875 
Q 45.40625 37.203125 41.296875 42.84375 
Q 37.203125 48.484375 30.078125 48.484375 
Q 22.953125 48.484375 18.875 42.84375 
Q 14.796875 37.203125 14.796875 27.296875 
" id="BitstreamVeraSans-Roman-64"/>
     </defs>
     <g transform="translate(243.50625 398.473625)scale(0.12 -0.12)">
      <use xlink:href="#BitstreamVeraSans-Roman-65"/>
      <use x="61.5234375" xlink:href="#BitstreamVeraSans-Roman-70"/>
      <use x="125.0" xlink:href="#BitstreamVeraSans-Roman-69"/>
      <use x="152.783203125" xlink:href="#BitstreamVeraSans-Roman-73"/>
      <use x="204.8828125" xlink:href="#BitstreamVeraSans-Roman-6f"/>
      <use x="266.064453125" xlink:href="#BitstreamVeraSans-Roman-64"/>
      <use x="329.541015625" xlink:href="#BitstreamVeraSans-Roman-65"/>
      <use x="391.064453125" xlink:href="#BitstreamVeraSans-Roman-73"/>
     </g>
    </g>
   </g>
   <g id="matplotlib.axis_2">
    <g id="ytick_1">
     <g id="line2d_22">
      <defs>
       <path d="M 0 0 
L 4 0 
" id="m6dd7e31b71" style="stroke:#000000;stroke-width:0.5;"/>
      </defs>
      <g>
       <use style="stroke:#000000;stroke-width:0.5;" x="46.8975" xlink:href="#m6dd7e31b71" y="368.74175"/>
      </g>
     </g>
     <g id="line2d_23">
      <defs>
       <path d="M 0 0 
L -4 0 
" id="m852c9b05ab" style="stroke:#000000;stroke-width:0.5;"/>
      </defs>
      <g>
       <use style="stroke:#000000;stroke-width:0.5;" x="493.2975" xlink:href="#m852c9b05ab" y="368.74175"/>
      </g>
     </g>
     <g id="text_12">
      <!-- 0.0 -->
      <defs>
       <path d="M 10.6875 12.40625 
L 21 12.40625 
L 21 0 
L 10.6875 0 
z
" id="BitstreamVeraSans-Roman-2e"/>
      </defs>
      <g transform="translate(23.81375 372.053)scale(0.12 -0.12)">
       <use xlink:href="#BitstreamVeraSans-Roman-30"/>
       <use x="63.623046875" xlink:href="#BitstreamVeraSans-Roman-2e"/>
       <use x="95.41015625" xlink:href="#BitstreamVeraSans-Roman-30"/>
      </g>
     </g>
    </g>
    <g id="ytick_2">
     <g id="line2d_24">
      <g>
       <use style="stroke:#000000;stroke-width:0.5;" x="46.8975" xlink:href="#m6dd7e31b71" y="319.370321429"/>
      </g>
     </g>
     <g id="line2d_25">
      <g>
       <use style="stroke:#000000;stroke-width:0.5;" x="493.2975" xlink:href="#m852c9b05ab" y="319.370321429"/>
      </g>
     </g>
     <g id="text_13">
      <!-- 0.2 -->
      <g transform="translate(23.81375 322.681571429)scale(0.12 -0.12)">
       <use xlink:href="#BitstreamVeraSans-Roman-30"/>
       <use x="63.623046875" xlink:href="#BitstreamVeraSans-Roman-2e"/>
       <use x="95.41015625" xlink:href="#BitstreamVeraSans-Roman-32"/>
      </g>
     </g>
    </g>
    <g id="ytick_3">
     <g id="line2d_26">
      <g>
       <use style="stroke:#000000;stroke-width:0.5;" x="46.8975" xlink:href="#m6dd7e31b71" y="269.998892857"/>
      </g>
     </g>
     <g id="line2d_27">
      <g>
       <use style="stroke:#000000;stroke-width:0.5;" x="493.2975" xlink:href="#m852c9b05ab" y="269.998892857"/>
      </g>
     </g>
     <g id="text_14">
      <!-- 0.4 -->
      <g transform="translate(23.81375 273.310142857)scale(0.12 -0.12)">
       <use xlink:href="#BitstreamVeraSans-Roman-30"/>
       <use x="63.623046875" xlink:href="#BitstreamVeraSans-Roman-2e"/>
       <use x="95.41015625" xlink:href="#BitstreamVeraSans-Roman-34"/>
      </g>
     </g>
    </g>
    <g id="ytick_4">
     <g id="line2d_28">
      <g>
       <use style="stroke:#000000;stroke-width:0.5;" x="46.8975" xlink:href="#m6dd7e31b71" y="220.627464286"/>
      </g>
     </g>
     <g id="line2d_29">
      <g>
       <use style="stroke:#000000;stroke-width:0.5;" x="493.2975" xlink:href="#m852c9b05ab" y="220.627464286"/>
      </g>
     </g>
     <g id="text_15">
      <!-- 0.6 -->
      <g transform="translate(23.81375 223.938714286)scale(0.12 -0.12)">
       <use xlink:href="#BitstreamVeraSans-Roman-30"/>
       <use x="63.623046875" xlink:href="#BitstreamVeraSans-Roman-2e"/>
       <use x="95.41015625" xlink:href="#BitstreamVeraSans-Roman-36"/>
      </g>
     </g>
    </g>
    <g id="ytick_5">
     <g id="line2d_30">
      <g>
       <use style="stroke:#000000;stroke-width:0.5;" x="46.8975" xlink:href="#m6dd7e31b71" y="171.256035714"/>
      </g>
     </g>
     <g id="line2d_31">
      <g>
       <use style="stroke:#000000;stroke-width:0.5;" x="493.2975" xlink:href="#m852c9b05ab" y="171.256035714"/>
      </g>
     </g>
     <g id="text_16">
      <!-- 0.8 -->
      <g transform="translate(23.81375 174.567285714)scale(0.12 -0.12)">
       <use xlink:href="#BitstreamVeraSans-Roman-30"/>
       <use x="63.623046875" xlink:href="#BitstreamVeraSans-Roman-2e"/>
       <use x="95.41015625" xlink:href="#BitstreamVeraSans-Roman-38"/>
      </g>
     </g>
    </g>
    <g id="ytick_6">
     <g id="line2d_32">
      <g>
       <use style="stroke:#000000;stroke-width:0.5;" x="46.8975" xlink:href="#m6dd7e31b71" y="121.884607143"/>
      </g>
     </g>
     <g id="line2d_33">
      <g>
       <use style="stroke:#000000;stroke-width:0.5;" x="493.2975" xlink:href="#m852c9b05ab" y="121.884607143"/>
      </g>
     </g>
     <g id="text_17">
      <!-- 1.0 -->
      <g transform="translate(23.81375 125.195857143)scale(0.12 -0.12)">
       <use xlink:href="#BitstreamVeraSans-Roman-31"/>
       <use x="63.623046875" xlink:href="#BitstreamVeraSans-Roman-2e"/>
       <use x="95.41015625" xlink:href="#BitstreamVeraSans-Roman-30"/>
      </g>
     </g>
    </g>
    <g id="ytick_7">
     <g id="line2d_34">
      <g>
       <use style="stroke:#000000;stroke-width:0.5;" x="46.8975" xlink:href="#m6dd7e31b71" y="72.5131785714"/>
      </g>
     </g>
     <g id="line2d_35">
      <g>
       <use style="stroke:#000000;stroke-width:0.5;" x="493.2975" xlink:href="#m852c9b05ab" y="72.5131785714"/>
      </g>
     </g>
     <g id="text_18">
      <!-- 1.2 -->
      <g transform="translate(23.81375 75.8244285714)scale(0.12 -0.12)">
       <use xlink:href="#BitstreamVeraSans-Roman-31"/>
       <use x="63.623046875" xlink:href="#BitstreamVeraSans-Roman-2e"/>
       <use x="95.41015625" xlink:href="#BitstreamVeraSans-Roman-32"/>
      </g>
     </g>
    </g>
    <g id="ytick_8">
     <g id="line2d_36">
      <g>
       <use style="stroke:#000000;stroke-width:0.5;" x="46.8975" xlink:href="#m6dd7e31b71" y="23.14175"/>
      </g>
     </g>
     <g id="line2d_37">
      <g>
       <use style="stroke:#000000;stroke-width:0.5;" x="493.2975" xlink:href="#m852c9b05ab" y="23.14175"/>
      </g>
     </g>
     <g id="text_19">
      <!-- 1.4 -->
      <g transform="translate(23.81375 26.453)scale(0.12 -0.12)">
       <use xlink:href="#BitstreamVeraSans-Roman-31"/>
       <use x="63.623046875" xlink:href="#BitstreamVeraSans-Roman-2e"/>
       <use x="95.41015625" xlink:href="#BitstreamVeraSans-Roman-34"/>
      </g>
     </g>
    </g>
    <g id="text_20">
     <!-- average maxQ -->
     <defs>
      <path d="M 52 44.1875 
Q 55.375 50.25 60.0625 53.125 
Q 64.75 56 71.09375 56 
Q 79.640625 56 84.28125 50.015625 
Q 88.921875 44.046875 88.921875 33.015625 
L 88.921875 0 
L 79.890625 0 
L 79.890625 32.71875 
Q 79.890625 40.578125 77.09375 44.375 
Q 74.3125 48.1875 68.609375 48.1875 
Q 61.625 48.1875 57.5625 43.546875 
Q 53.515625 38.921875 53.515625 30.90625 
L 53.515625 0 
L 44.484375 0 
L 44.484375 32.71875 
Q 44.484375 40.625 41.703125 44.40625 
Q 38.921875 48.1875 33.109375 48.1875 
Q 26.21875 48.1875 22.15625 43.53125 
Q 18.109375 38.875 18.109375 30.90625 
L 18.109375 0 
L 9.078125 0 
L 9.078125 54.6875 
L 18.109375 54.6875 
L 18.109375 46.1875 
Q 21.1875 51.21875 25.484375 53.609375 
Q 29.78125 56 35.6875 56 
Q 41.65625 56 45.828125 52.96875 
Q 50 49.953125 52 44.1875 
" id="BitstreamVeraSans-Roman-6d"/>
      <path d="M 39.40625 66.21875 
Q 28.65625 66.21875 22.328125 58.203125 
Q 16.015625 50.203125 16.015625 36.375 
Q 16.015625 22.609375 22.328125 14.59375 
Q 28.65625 6.59375 39.40625 6.59375 
Q 50.140625 6.59375 56.421875 14.59375 
Q 62.703125 22.609375 62.703125 36.375 
Q 62.703125 50.203125 56.421875 58.203125 
Q 50.140625 66.21875 39.40625 66.21875 
M 53.21875 1.3125 
L 66.21875 -12.890625 
L 54.296875 -12.890625 
L 43.5 -1.21875 
Q 41.890625 -1.3125 41.03125 -1.359375 
Q 40.1875 -1.421875 39.40625 -1.421875 
Q 24.03125 -1.421875 14.8125 8.859375 
Q 5.609375 19.140625 5.609375 36.375 
Q 5.609375 53.65625 14.8125 63.9375 
Q 24.03125 74.21875 39.40625 74.21875 
Q 54.734375 74.21875 63.90625 63.9375 
Q 73.09375 53.65625 73.09375 36.375 
Q 73.09375 23.6875 67.984375 14.640625 
Q 62.890625 5.609375 53.21875 1.3125 
" id="BitstreamVeraSans-Roman-51"/>
      <path d="M 2.984375 54.6875 
L 12.5 54.6875 
L 29.59375 8.796875 
L 46.6875 54.6875 
L 56.203125 54.6875 
L 35.6875 0 
L 23.484375 0 
z
" id="BitstreamVeraSans-Roman-76"/>
      <path d="M 45.40625 27.984375 
Q 45.40625 37.75 41.375 43.109375 
Q 37.359375 48.484375 30.078125 48.484375 
Q 22.859375 48.484375 18.828125 43.109375 
Q 14.796875 37.75 14.796875 27.984375 
Q 14.796875 18.265625 18.828125 12.890625 
Q 22.859375 7.515625 30.078125 7.515625 
Q 37.359375 7.515625 41.375 12.890625 
Q 45.40625 18.265625 45.40625 27.984375 
M 54.390625 6.78125 
Q 54.390625 -7.171875 48.1875 -13.984375 
Q 42 -20.796875 29.203125 -20.796875 
Q 24.46875 -20.796875 20.265625 -20.09375 
Q 16.0625 -19.390625 12.109375 -17.921875 
L 12.109375 -9.1875 
Q 16.0625 -11.328125 19.921875 -12.34375 
Q 23.78125 -13.375 27.78125 -13.375 
Q 36.625 -13.375 41.015625 -8.765625 
Q 45.40625 -4.15625 45.40625 5.171875 
L 45.40625 9.625 
Q 42.625 4.78125 38.28125 2.390625 
Q 33.9375 0 27.875 0 
Q 17.828125 0 11.671875 7.65625 
Q 5.515625 15.328125 5.515625 27.984375 
Q 5.515625 40.671875 11.671875 48.328125 
Q 17.828125 56 27.875 56 
Q 33.9375 56 38.28125 53.609375 
Q 42.625 51.21875 45.40625 46.390625 
L 45.40625 54.6875 
L 54.390625 54.6875 
z
" id="BitstreamVeraSans-Roman-67"/>
      <path d="M 54.890625 54.6875 
L 35.109375 28.078125 
L 55.90625 0 
L 45.3125 0 
L 29.390625 21.484375 
L 13.484375 0 
L 2.875 0 
L 24.125 28.609375 
L 4.6875 54.6875 
L 15.28125 54.6875 
L 29.78125 35.203125 
L 44.28125 54.6875 
z
" id="BitstreamVeraSans-Roman-78"/>
      <path d="M 41.109375 46.296875 
Q 39.59375 47.171875 37.8125 47.578125 
Q 36.03125 48 33.890625 48 
Q 26.265625 48 22.1875 43.046875 
Q 18.109375 38.09375 18.109375 28.8125 
L 18.109375 0 
L 9.078125 0 
L 9.078125 54.6875 
L 18.109375 54.6875 
L 18.109375 46.1875 
Q 20.953125 51.171875 25.484375 53.578125 
Q 30.03125 56 36.53125 56 
Q 37.453125 56 38.578125 55.875 
Q 39.703125 55.765625 41.0625 55.515625 
z
" id="BitstreamVeraSans-Roman-72"/>
      <path d="M 34.28125 27.484375 
Q 23.390625 27.484375 19.1875 25 
Q 14.984375 22.515625 14.984375 16.5 
Q 14.984375 11.71875 18.140625 8.90625 
Q 21.296875 6.109375 26.703125 6.109375 
Q 34.1875 6.109375 38.703125 11.40625 
Q 43.21875 16.703125 43.21875 25.484375 
L 43.21875 27.484375 
z
M 52.203125 31.203125 
L 52.203125 0 
L 43.21875 0 
L 43.21875 8.296875 
Q 40.140625 3.328125 35.546875 0.953125 
Q 30.953125 -1.421875 24.3125 -1.421875 
Q 15.921875 -1.421875 10.953125 3.296875 
Q 6 8.015625 6 15.921875 
Q 6 25.140625 12.171875 29.828125 
Q 18.359375 34.515625 30.609375 34.515625 
L 43.21875 34.515625 
L 43.21875 35.40625 
Q 43.21875 41.609375 39.140625 45 
Q 35.0625 48.390625 27.6875 48.390625 
Q 23 48.390625 18.546875 47.265625 
Q 14.109375 46.140625 10.015625 43.890625 
L 10.015625 52.203125 
Q 14.9375 54.109375 19.578125 55.046875 
Q 24.21875 56 28.609375 56 
Q 40.484375 56 46.34375 49.84375 
Q 52.203125 43.703125 52.203125 31.203125 
" id="BitstreamVeraSans-Roman-61"/>
      <path id="BitstreamVeraSans-Roman-20"/>
     </defs>
     <g transform="translate(16.318125 240.208625)rotate(-90.0)scale(0.12 -0.12)">
      <use xlink:href="#BitstreamVeraSans-Roman-61"/>
      <use x="61.279296875" xlink:href="#BitstreamVeraSans-Roman-76"/>
      <use x="120.458984375" xlink:href="#BitstreamVeraSans-Roman-65"/>
      <use x="181.982421875" xlink:href="#BitstreamVeraSans-Roman-72"/>
      <use x="223.095703125" xlink:href="#BitstreamVeraSans-Roman-61"/>
      <use x="284.375" xlink:href="#BitstreamVeraSans-Roman-67"/>
      <use x="347.8515625" xlink:href="#BitstreamVeraSans-Roman-65"/>
      <use x="409.375" xlink:href="#BitstreamVeraSans-Roman-20"/>
      <use x="441.162109375" xlink:href="#BitstreamVeraSans-Roman-6d"/>
      <use x="538.57421875" xlink:href="#BitstreamVeraSans-Roman-61"/>
      <use x="599.853515625" xlink:href="#BitstreamVeraSans-Roman-78"/>
      <use x="659.033203125" xlink:href="#BitstreamVeraSans-Roman-51"/>
     </g>
    </g>
   </g>
   <g id="text_21">
    <!-- Average maxQ per episode, joint2 -->
    <defs>
     <path d="M 11.71875 12.40625 
L 22.015625 12.40625 
L 22.015625 4 
L 14.015625 -11.625 
L 7.71875 -11.625 
L 11.71875 4 
z
" id="BitstreamVeraSans-Roman-2c"/>
     <path d="M 34.1875 63.1875 
L 20.796875 26.90625 
L 47.609375 26.90625 
z
M 28.609375 72.90625 
L 39.796875 72.90625 
L 67.578125 0 
L 57.328125 0 
L 50.6875 18.703125 
L 17.828125 18.703125 
L 11.1875 0 
L 0.78125 0 
z
" id="BitstreamVeraSans-Roman-41"/>
     <path d="M 54.890625 33.015625 
L 54.890625 0 
L 45.90625 0 
L 45.90625 32.71875 
Q 45.90625 40.484375 42.875 44.328125 
Q 39.84375 48.1875 33.796875 48.1875 
Q 26.515625 48.1875 22.3125 43.546875 
Q 18.109375 38.921875 18.109375 30.90625 
L 18.109375 0 
L 9.078125 0 
L 9.078125 54.6875 
L 18.109375 54.6875 
L 18.109375 46.1875 
Q 21.34375 51.125 25.703125 53.5625 
Q 30.078125 56 35.796875 56 
Q 45.21875 56 50.046875 50.171875 
Q 54.890625 44.34375 54.890625 33.015625 
" id="BitstreamVeraSans-Roman-6e"/>
     <path d="M 9.421875 54.6875 
L 18.40625 54.6875 
L 18.40625 -0.984375 
Q 18.40625 -11.421875 14.421875 -16.109375 
Q 10.453125 -20.796875 1.609375 -20.796875 
L -1.8125 -20.796875 
L -1.8125 -13.1875 
L 0.59375 -13.1875 
Q 5.71875 -13.1875 7.5625 -10.8125 
Q 9.421875 -8.453125 9.421875 -0.984375 
z
M 9.421875 75.984375 
L 18.40625 75.984375 
L 18.40625 64.59375 
L 9.421875 64.59375 
z
" id="BitstreamVeraSans-Roman-6a"/>
     <path d="M 18.3125 70.21875 
L 18.3125 54.6875 
L 36.8125 54.6875 
L 36.8125 47.703125 
L 18.3125 47.703125 
L 18.3125 18.015625 
Q 18.3125 11.328125 20.140625 9.421875 
Q 21.96875 7.515625 27.59375 7.515625 
L 36.8125 7.515625 
L 36.8125 0 
L 27.59375 0 
Q 17.1875 0 13.234375 3.875 
Q 9.28125 7.765625 9.28125 18.015625 
L 9.28125 47.703125 
L 2.6875 47.703125 
L 2.6875 54.6875 
L 9.28125 54.6875 
L 9.28125 70.21875 
z
" id="BitstreamVeraSans-Roman-74"/>
    </defs>
    <g transform="translate(146.8245 18.14175)scale(0.144 -0.144)">
     <use xlink:href="#BitstreamVeraSans-Roman-41"/>
     <use x="68.330078125" xlink:href="#BitstreamVeraSans-Roman-76"/>
     <use x="127.509765625" xlink:href="#BitstreamVeraSans-Roman-65"/>
     <use x="189.033203125" xlink:href="#BitstreamVeraSans-Roman-72"/>
     <use x="230.146484375" xlink:href="#BitstreamVeraSans-Roman-61"/>
     <use x="291.42578125" xlink:href="#BitstreamVeraSans-Roman-67"/>
     <use x="354.90234375" xlink:href="#BitstreamVeraSans-Roman-65"/>
     <use x="416.42578125" xlink:href="#BitstreamVeraSans-Roman-20"/>
     <use x="448.212890625" xlink:href="#BitstreamVeraSans-Roman-6d"/>
     <use x="545.625" xlink:href="#BitstreamVeraSans-Roman-61"/>
     <use x="606.904296875" xlink:href="#BitstreamVeraSans-Roman-78"/>
     <use x="666.083984375" xlink:href="#BitstreamVeraSans-Roman-51"/>
     <use x="744.794921875" xlink:href="#BitstreamVeraSans-Roman-20"/>
     <use x="776.58203125" xlink:href="#BitstreamVeraSans-Roman-70"/>
     <use x="840.05859375" xlink:href="#BitstreamVeraSans-Roman-65"/>
     <use x="901.58203125" xlink:href="#BitstreamVeraSans-Roman-72"/>
     <use x="942.6953125" xlink:href="#BitstreamVeraSans-Roman-20"/>
     <use x="974.482421875" xlink:href="#BitstreamVeraSans-Roman-65"/>
     <use x="1036.005859375" xlink:href="#BitstreamVeraSans-Roman-70"/>
     <use x="1099.482421875" xlink:href="#BitstreamVeraSans-Roman-69"/>
     <use x="1127.265625" xlink:href="#BitstreamVeraSans-Roman-73"/>
     <use x="1179.365234375" xlink:href="#BitstreamVeraSans-Roman-6f"/>
     <use x="1240.546875" xlink:href="#BitstreamVeraSans-Roman-64"/>
     <use x="1304.0234375" xlink:href="#BitstreamVeraSans-Roman-65"/>
     <use x="1365.546875" xlink:href="#BitstreamVeraSans-Roman-2c"/>
     <use x="1397.333984375" xlink:href="#BitstreamVeraSans-Roman-20"/>
     <use x="1429.12109375" xlink:href="#BitstreamVeraSans-Roman-6a"/>
     <use x="1456.904296875" xlink:href="#BitstreamVeraSans-Roman-6f"/>
     <use x="1518.0859375" xlink:href="#BitstreamVeraSans-Roman-69"/>
     <use x="1545.869140625" xlink:href="#BitstreamVeraSans-Roman-6e"/>
     <use x="1609.248046875" xlink:href="#BitstreamVeraSans-Roman-74"/>
     <use x="1648.45703125" xlink:href="#BitstreamVeraSans-Roman-32"/>
    </g>
   </g>
  </g>
 </g>
 <defs>
  <clipPath id="paf501e51b2">
   <rect height="345.6" width="446.4" x="46.8975" y="23.14175"/>
  </clipPath>
 </defs>
</svg>
