<?xml version="1.0" encoding="utf-8" standalone="no"?>
<!DOCTYPE svg PUBLIC "-//W3C//DTD SVG 1.1//EN"
  "http://www.w3.org/Graphics/SVG/1.1/DTD/svg11.dtd">
<!-- Created with matplotlib (http://matplotlib.org/) -->
<svg height="408pt" version="1.1" viewBox="0 0 515 408" width="515pt" xmlns="http://www.w3.org/2000/svg" xmlns:xlink="http://www.w3.org/1999/xlink">
 <defs>
  <style type="text/css">
*{stroke-linecap:butt;stroke-linejoin:round;stroke-miterlimit:100000;}
  </style>
 </defs>
 <g id="figure_1">
  <g id="patch_1">
   <path d="M 0 408.16925 
L 515.7675 408.16925 
L 515.7675 0 
L 0 0 
z
" style="fill:#ffffff;"/>
  </g>
  <g id="axes_1">
   <g id="patch_2">
    <path d="M 46.8975 368.74175 
L 493.2975 368.74175 
L 493.2975 23.14175 
L 46.8975 23.14175 
z
" style="fill:#ffffff;"/>
   </g>
   <g id="line2d_1">
    <path clip-path="url(#pac2b0ed3ec)" d="M 46.8975 301.9073 
L 47.1207 304.576195 
L 47.3439 304.403182 
L 47.5671 303.84567 
L 47.7903 302.509363 
L 48.2367 305.918667 
L 48.4599 305.27641 
L 48.6831 302.918498 
L 48.9063 303.173581 
L 49.1295 304.124861 
L 49.3527 304.419938 
L 49.5759 304.455529 
L 50.0223 301.498471 
L 50.2455 304.372511 
L 50.4687 301.231637 
L 50.6919 300.873232 
L 50.9151 305.226787 
L 51.1383 303.248175 
L 51.3615 305.185643 
L 51.5847 305.041673 
L 51.8079 300.320985 
L 52.0311 301.367937 
L 52.2543 303.62559 
L 52.4775 300.988203 
L 52.7007 304.87175 
L 52.9239 304.182871 
L 53.1471 305.859888 
L 53.5935 302.514023 
L 53.8167 301.699927 
L 54.0399 303.389684 
L 54.2631 301.934243 
L 54.4863 303.926795 
L 54.7095 303.534747 
L 54.9327 306.493683 
L 55.1559 302.477242 
L 55.6023 304.503793 
L 55.8255 302.296651 
L 56.0487 302.337738 
L 56.2719 303.629364 
L 56.4951 301.244843 
L 56.7183 302.582044 
L 56.9415 302.801539 
L 57.1647 304.255087 
L 57.3879 302.457076 
L 57.6111 302.49928 
L 57.8343 302.236627 
L 58.0575 305.220176 
L 58.2807 304.173701 
L 58.5039 302.106975 
L 58.7271 304.059737 
L 58.9503 300.809651 
L 59.3967 303.956195 
L 59.8431 301.470968 
L 60.0663 301.091186 
L 60.2895 304.542562 
L 60.5127 301.693647 
L 60.7359 304.261707 
L 60.9591 304.745948 
L 61.1823 302.13362 
L 61.4055 303.09866 
L 61.6287 300.163744 
L 63.1911 305.712567 
L 63.6375 299.910418 
L 63.8607 301.577806 
L 64.0839 301.998169 
L 64.3071 303.385139 
L 64.5303 301.750634 
L 64.7535 304.618062 
L 64.9767 302.30692 
L 65.1999 304.764086 
L 65.4231 301.094054 
L 65.6463 303.348585 
L 66.3159 303.989856 
L 66.5391 304.610657 
L 66.7623 302.340464 
L 66.9855 303.556054 
L 67.2087 302.067661 
L 67.4319 299.28864 
L 68.1015 305.792526 
L 68.3247 303.021136 
L 68.5479 302.53508 
L 68.9943 304.531133 
L 69.2175 368.74175 
L 69.4407 303.968796 
L 69.6639 305.564524 
L 69.8871 302.678138 
L 70.1103 303.734628 
L 70.3335 303.207504 
L 70.5567 301.104912 
L 70.7799 303.509768 
L 71.0031 298.798294 
L 71.4495 303.069945 
L 71.6727 302.792732 
L 71.8959 300.834592 
L 72.1191 305.75795 
L 72.3423 303.48254 
L 72.5655 303.105105 
L 72.7887 307.468177 
L 73.0119 302.35294 
L 73.2351 304.991755 
L 73.4583 301.359772 
L 73.6815 303.039435 
L 73.9047 303.686838 
L 74.1279 303.694736 
L 74.5743 301.176329 
L 74.7975 302.319109 
L 75.0207 305.022283 
L 75.2439 303.070196 
L 75.4671 303.118469 
L 75.6903 303.557697 
L 75.9135 303.623125 
L 76.1367 304.65844 
L 76.3599 302.963502 
L 76.5831 304.079879 
L 77.0295 301.101876 
L 77.2527 303.599553 
L 77.4759 303.576488 
L 77.6991 304.769387 
L 77.9223 303.23152 
L 78.1455 304.056403 
L 78.3687 302.529065 
L 78.5919 299.661265 
L 78.8151 303.389339 
L 79.0383 305.143937 
L 79.2615 303.149815 
L 79.4847 304.441626 
L 79.9311 300.389736 
L 80.1543 303.627418 
L 80.3775 299.493613 
L 80.6007 298.117187 
L 80.8239 302.934712 
L 81.0471 303.47204 
L 81.2703 303.01119 
L 81.4935 300.634495 
L 81.7167 303.671846 
L 81.9399 302.707424 
L 82.1631 302.822359 
L 82.3863 304.389216 
L 82.6095 302.964424 
L 82.8327 303.578243 
L 83.0559 303.452327 
L 83.5023 304.558519 
L 83.7255 301.738878 
L 83.9487 303.9077 
L 84.1719 300.552572 
L 84.3951 303.084786 
L 84.6183 303.399463 
L 84.8415 302.61476 
L 85.0647 303.503165 
L 85.5111 303.693757 
L 85.7343 302.871324 
L 85.9575 305.299387 
L 86.1807 305.566272 
L 86.4039 302.152141 
L 86.8503 304.615755 
L 87.0735 301.61191 
L 87.2967 300.126518 
L 87.5199 306.177069 
L 87.9663 299.810799 
L 88.1895 304.452812 
L 88.4127 303.211758 
L 88.6359 304.381428 
L 88.8591 304.784929 
L 89.0823 302.900733 
L 89.3055 303.102712 
L 89.5287 304.534669 
L 89.7519 303.876803 
L 89.9751 304.985637 
L 90.1983 302.66265 
L 90.6447 304.102964 
L 90.8679 303.636532 
L 91.0911 304.159053 
L 91.3143 304.397127 
L 91.5375 368.74175 
L 91.7607 301.065509 
L 91.9839 303.212565 
L 92.2071 301.768459 
L 92.4303 303.141368 
L 92.8767 300.286853 
L 93.0999 304.812144 
L 93.3231 304.51829 
L 93.7695 302.633232 
L 93.9927 302.220606 
L 94.2159 304.872247 
L 94.4391 303.70963 
L 94.6623 303.838449 
L 94.8855 303.274305 
L 95.1087 300.113902 
L 95.3319 303.306133 
L 95.7783 303.000594 
L 96.0015 301.919495 
L 96.2247 304.242188 
L 96.4479 299.875364 
L 96.6711 303.167935 
L 96.8943 301.542557 
L 97.1175 303.780228 
L 97.3407 302.468359 
L 97.5639 299.481531 
L 98.0103 305.653305 
L 98.2335 303.054529 
L 98.4567 305.724041 
L 98.6799 303.156207 
L 98.9031 303.456826 
L 99.1263 303.486687 
L 99.3495 300.656317 
L 99.5727 300.563939 
L 99.7959 302.082902 
L 100.0191 304.734161 
L 100.2423 302.96915 
L 100.6887 302.358815 
L 100.9119 304.174883 
L 101.1351 303.517609 
L 101.3583 299.481194 
L 101.5815 302.911382 
L 101.8047 309.896794 
L 102.0279 305.146853 
L 102.2511 304.890992 
L 102.4743 300.936449 
L 102.9207 304.470038 
L 103.1439 301.920639 
L 103.3671 304.385652 
L 103.5903 305.123296 
L 104.0367 301.804329 
L 104.2599 304.738617 
L 104.4831 303.696675 
L 104.7063 304.430413 
L 104.9295 302.586688 
L 105.1527 303.342726 
L 105.3759 301.994886 
L 105.5991 303.932326 
L 105.8223 313.148744 
L 106.0455 346.122124 
L 106.2687 326.406106 
L 106.4919 331.798947 
L 106.7151 345.058562 
L 106.9383 339.745796 
L 107.3847 334.054206 
L 107.6079 330.811221 
L 108.0543 341.156511 
L 108.2775 341.436641 
L 108.5007 334.59337 
L 108.7239 333.810397 
L 108.9471 337.413342 
L 109.1703 337.323861 
L 109.3935 337.595717 
L 109.6167 338.086109 
L 109.8399 336.877661 
L 110.0631 336.88919 
L 110.2863 335.575234 
L 110.5095 337.10237 
L 110.9559 336.233021 
L 111.1791 336.862515 
L 111.4023 335.66963 
L 111.6255 336.578274 
L 111.8487 334.462063 
L 112.0719 334.545589 
L 112.2951 335.18472 
L 112.5183 337.390302 
L 112.7415 335.198902 
L 112.9647 336.481026 
L 113.1879 335.941726 
L 113.4111 333.60122 
L 113.6343 335.749336 
L 113.8575 368.74175 
L 114.0807 334.386006 
L 114.3039 334.713988 
L 114.5271 335.464015 
L 114.7503 333.975301 
L 114.9735 335.200622 
L 115.1967 334.462298 
L 115.4199 335.518042 
L 115.6431 334.762269 
L 115.8663 334.402618 
L 116.0895 334.704145 
L 116.3127 335.284446 
L 116.5359 335.060807 
L 116.7591 334.133231 
L 116.9823 334.507917 
L 117.2055 333.922967 
L 117.4287 334.235106 
L 117.6519 331.968045 
L 117.8751 334.918099 
L 118.0983 333.059427 
L 118.5447 333.062722 
L 118.7679 332.578754 
L 118.9911 333.53199 
L 119.2143 332.836471 
L 119.4375 333.099815 
L 119.6607 332.522994 
L 119.8839 331.210642 
L 120.3303 332.419254 
L 120.5535 333.589956 
L 120.9999 332.50163 
L 121.2231 332.648519 
L 121.4463 331.161552 
L 121.6695 330.969469 
L 121.8927 332.066005 
L 122.1159 331.310253 
L 122.3391 331.032159 
L 122.5623 331.512756 
L 122.7855 330.78157 
L 123.0087 331.435513 
L 123.2319 329.941397 
L 123.4551 330.603433 
L 123.6783 330.16171 
L 123.9015 330.456868 
L 124.3479 329.466349 
L 124.5711 330.408493 
L 124.7943 329.083353 
L 125.0175 331.315812 
L 125.2407 325.830469 
L 125.4639 327.073384 
L 125.9103 326.898376 
L 126.1335 326.829844 
L 126.5799 328.646616 
L 127.0263 326.161233 
L 127.2495 328.053783 
L 127.4727 326.86559 
L 127.6959 326.581357 
L 128.1423 329.053629 
L 128.3655 326.985992 
L 128.5887 327.636652 
L 128.8119 326.725143 
L 129.0351 327.532835 
L 129.4815 326.01792 
L 129.7047 328.25908 
L 130.1511 322.39008 
L 130.3743 323.465947 
L 130.5975 321.530471 
L 130.8207 323.55896 
L 131.0439 328.710536 
L 131.2671 324.196911 
L 131.4903 325.272685 
L 131.7135 322.893299 
L 132.1599 324.429293 
L 132.3831 323.200939 
L 132.6063 324.337016 
L 132.8295 321.544099 
L 133.0527 325.39007 
L 133.2759 321.69091 
L 133.4991 323.80214 
L 133.7223 320.211327 
L 133.9455 326.544374 
L 134.1687 318.294041 
L 134.3919 322.644018 
L 134.6151 320.988569 
L 135.0615 322.52303 
L 135.2847 318.507148 
L 135.5079 323.383496 
L 135.9543 319.747979 
L 136.1775 368.74175 
L 136.4007 318.883154 
L 136.6239 321.094097 
L 136.8471 319.529292 
L 137.0703 319.004047 
L 137.2935 320.986115 
L 137.7399 318.491152 
L 137.9631 319.015021 
L 138.1863 316.471821 
L 138.4095 318.46614 
L 138.6327 317.885082 
L 138.8559 315.585328 
L 139.0791 319.185356 
L 139.3023 318.590792 
L 139.5255 318.534455 
L 139.7487 318.169913 
L 139.9719 318.406536 
L 140.1951 317.830684 
L 140.4183 314.188684 
L 140.6415 316.145606 
L 140.8647 319.101704 
L 141.0879 313.954657 
L 141.3111 315.540797 
L 141.5343 324.566616 
L 141.7575 313.402577 
L 141.9807 314.856221 
L 142.2039 314.102846 
L 142.4271 317.925492 
L 142.6503 316.164821 
L 142.8735 312.784227 
L 143.0967 317.546418 
L 143.3199 315.17727 
L 143.5431 328.384113 
L 143.7663 314.9331 
L 143.9895 315.371149 
L 144.2127 313.114727 
L 144.4359 317.315559 
L 144.6591 314.073708 
L 144.8823 313.118626 
L 145.1055 313.966516 
L 145.3287 313.928907 
L 145.5519 314.742645 
L 145.7751 312.685272 
L 145.9983 313.591081 
L 146.2215 312.634417 
L 146.4447 313.834729 
L 146.6679 310.678221 
L 146.8911 313.290552 
L 147.1143 312.927914 
L 147.3375 316.990892 
L 147.5607 306.596219 
L 147.7839 311.687186 
L 148.0071 322.390812 
L 148.2303 306.497204 
L 148.4535 308.823535 
L 148.6767 308.220847 
L 149.1231 310.288319 
L 149.3463 306.749452 
L 149.7927 317.082889 
L 150.0159 306.177662 
L 150.2391 306.548257 
L 150.4623 307.740234 
L 150.6855 311.203842 
L 150.9087 306.663669 
L 151.1319 308.780766 
L 151.3551 315.224293 
L 151.5783 308.194287 
L 151.8015 308.908184 
L 152.0247 312.581695 
L 152.2479 308.007168 
L 152.4711 307.355317 
L 152.6943 307.271398 
L 152.9175 315.439531 
L 153.1407 306.49011 
L 153.3639 305.306468 
L 153.5871 307.109323 
L 153.8103 304.662429 
L 154.0335 305.543644 
L 154.2567 316.727651 
L 154.7031 301.538401 
L 155.1495 303.640951 
L 155.3727 302.299799 
L 155.5959 304.370526 
L 155.8191 308.915458 
L 156.0423 301.110594 
L 156.2655 304.521312 
L 156.4887 304.262982 
L 156.7119 303.271415 
L 156.9351 321.042995 
L 157.1583 305.787125 
L 157.3815 307.777953 
L 157.6047 300.649494 
L 157.8279 305.860285 
L 158.0511 305.672895 
L 158.2743 304.155384 
L 158.4975 368.74175 
L 158.7207 297.906683 
L 158.9439 295.829131 
L 159.3903 303.317813 
L 159.6135 303.728289 
L 159.8367 298.686039 
L 160.0599 298.520619 
L 160.2831 306.390139 
L 160.5063 303.728287 
L 160.7295 299.265469 
L 160.9527 301.546549 
L 161.1759 300.927149 
L 161.3991 292.719647 
L 161.6223 293.245621 
L 161.8455 305.31395 
L 162.0687 301.375664 
L 162.2919 310.169401 
L 162.5151 305.306923 
L 162.7383 294.881686 
L 162.9615 298.30662 
L 163.1847 293.610188 
L 163.4079 300.716177 
L 163.6311 302.661387 
L 163.8543 298.558493 
L 164.0775 300.702356 
L 164.3007 300.417938 
L 164.5239 292.498148 
L 164.7471 306.571062 
L 164.9703 293.447869 
L 165.1935 295.555828 
L 165.4167 293.194258 
L 165.6399 297.357924 
L 165.8631 298.685903 
L 166.0863 296.511054 
L 166.3095 298.06657 
L 166.7559 295.776696 
L 166.9791 300.108958 
L 167.2023 295.456395 
L 167.4255 293.809864 
L 167.6487 287.853935 
L 167.8719 297.196079 
L 168.0951 289.893362 
L 168.3183 293.100225 
L 168.5415 284.304524 
L 168.7647 296.485406 
L 168.9879 290.211334 
L 169.2111 293.920466 
L 169.4343 285.723412 
L 169.6575 297.846609 
L 169.8807 295.630763 
L 170.1039 295.653878 
L 170.3271 286.447999 
L 170.5503 294.402521 
L 170.7735 290.800812 
L 170.9967 290.579685 
L 171.2199 310.500633 
L 171.4431 288.989617 
L 171.6663 294.760794 
L 171.8895 294.584409 
L 172.1127 288.334201 
L 172.3359 289.522952 
L 172.5591 297.164801 
L 172.7823 295.923627 
L 173.0055 308.481796 
L 173.2287 286.812083 
L 173.4519 286.731617 
L 173.6751 293.701334 
L 173.8983 295.941045 
L 174.3447 282.322767 
L 174.7911 293.65692 
L 175.0143 295.501437 
L 175.2375 298.966793 
L 175.4607 294.849173 
L 175.6839 278.646916 
L 175.9071 281.38626 
L 176.1303 281.069 
L 176.3535 283.887512 
L 176.5767 280.443645 
L 176.7999 292.18728 
L 177.0231 288.354753 
L 177.4695 298.988173 
L 177.6927 298.886148 
L 178.1391 285.300385 
L 178.3623 299.677843 
L 178.5855 294.414203 
L 179.0319 279.516772 
L 179.2551 282.316562 
L 179.4783 275.91031 
L 179.9247 295.385567 
L 180.1479 289.231102 
L 180.3711 287.671937 
L 180.5943 285.150606 
L 180.8175 368.74175 
L 181.0407 285.214314 
L 181.2639 284.490407 
L 181.4871 286.578973 
L 181.9335 294.127356 
L 182.1567 294.868672 
L 182.3799 289.621547 
L 182.6031 275.098176 
L 182.8263 279.980987 
L 183.0495 290.575237 
L 183.2727 277.262755 
L 183.7191 283.381721 
L 183.9423 300.143958 
L 184.1655 271.630949 
L 184.3887 294.553438 
L 184.6119 293.345637 
L 184.8351 275.555178 
L 185.0583 285.306587 
L 185.2815 269.012692 
L 185.5047 273.043298 
L 185.7279 284.908908 
L 185.9511 275.225593 
L 186.1743 271.606276 
L 186.3975 278.2733 
L 186.6207 276.807196 
L 186.8439 272.985496 
L 187.0671 274.664117 
L 187.2903 267.397688 
L 187.5135 275.083729 
L 187.7367 271.856735 
L 187.9599 279.9127 
L 188.1831 278.022979 
L 188.4063 278.127749 
L 188.6295 276.892157 
L 188.8527 293.914435 
L 189.0759 275.589561 
L 189.2991 268.929963 
L 189.5223 269.104206 
L 189.7455 301.204295 
L 190.1919 268.487221 
L 190.4151 284.493595 
L 190.6383 280.402964 
L 190.8615 288.172686 
L 191.0847 288.433035 
L 191.3079 293.938576 
L 191.5311 289.875637 
L 191.7543 277.801557 
L 191.9775 273.417762 
L 192.4239 284.98674 
L 192.6471 283.766123 
L 192.8703 275.915524 
L 193.0935 292.265674 
L 193.3167 296.483084 
L 193.7631 272.820705 
L 193.9863 273.186996 
L 194.2095 281.717493 
L 194.4327 279.875848 
L 194.6559 289.542508 
L 194.8791 284.406191 
L 195.1023 292.320449 
L 195.3255 278.29728 
L 195.5487 278.47874 
L 195.7719 261.612305 
L 195.9951 285.043945 
L 196.2183 262.685479 
L 196.4415 266.3865 
L 196.6647 275.925353 
L 196.8879 277.354713 
L 197.1111 270.309381 
L 197.3343 271.755893 
L 197.5575 280.848748 
L 197.7807 267.207835 
L 198.0039 279.600466 
L 198.2271 284.656429 
L 198.4503 297.809092 
L 198.6735 270.040079 
L 198.8967 262.13438 
L 199.1199 264.972884 
L 199.3431 271.35409 
L 199.5663 263.652482 
L 199.7895 265.658006 
L 200.0127 269.514542 
L 200.2359 268.559015 
L 200.4591 282.003114 
L 200.6823 279.972197 
L 200.9055 268.875387 
L 201.3519 260.124509 
L 201.5751 274.079396 
L 201.7983 270.60776 
L 202.0215 259.41724 
L 202.2447 281.630831 
L 202.4679 279.944904 
L 202.9143 258.005949 
L 203.1375 368.74175 
L 203.3607 260.861 
L 203.5839 281.286759 
L 203.8071 278.790504 
L 204.0303 258.843142 
L 204.2535 254.512561 
L 204.4767 261.994325 
L 204.6999 263.234643 
L 204.9231 301.987759 
L 205.1463 286.140425 
L 205.3695 260.197204 
L 205.5927 257.997531 
L 205.8159 263.975042 
L 206.0391 288.97653 
L 206.2623 297.689457 
L 206.4855 260.296889 
L 206.7087 266.56837 
L 206.9319 281.81768 
L 207.1551 260.458258 
L 207.3783 257.17947 
L 207.6015 263.086567 
L 207.8247 263.235035 
L 208.0479 287.505716 
L 208.2711 270.689688 
L 208.4943 273.630319 
L 208.7175 271.670629 
L 208.9407 263.189487 
L 209.1639 287.723938 
L 209.3871 264.18639 
L 209.6103 259.0185 
L 209.8335 270.7927 
L 210.0567 260.509936 
L 210.2799 271.366681 
L 210.9495 248.911327 
L 211.1727 258.115245 
L 211.3959 258.617862 
L 211.6191 295.934566 
L 211.8423 263.53298 
L 212.0655 263.199422 
L 212.5119 253.026732 
L 212.7351 253.817522 
L 212.9583 253.296506 
L 213.1815 274.841167 
L 213.6279 252.864526 
L 213.8511 259.799223 
L 214.0743 260.717656 
L 214.2975 289.309376 
L 214.5207 264.624991 
L 214.7439 282.41117 
L 214.9671 264.599347 
L 215.1903 256.793068 
L 215.4135 263.990433 
L 215.6367 255.35182 
L 215.8599 273.327378 
L 216.3063 251.305956 
L 216.5295 258.763669 
L 216.7527 274.982809 
L 216.9759 277.386506 
L 217.1991 256.619329 
L 217.4223 250.227144 
L 217.6455 261.68435 
L 217.8687 258.990831 
L 218.0919 250.858941 
L 218.5383 279.771333 
L 218.7615 257.061025 
L 218.9847 282.899451 
L 219.4311 277.127205 
L 219.6543 259.516427 
L 219.8775 257.589699 
L 220.1007 259.93422 
L 220.3239 268.333535 
L 220.5471 266.688968 
L 220.7703 267.712354 
L 220.9935 258.814445 
L 221.2167 259.08484 
L 221.4399 270.910274 
L 221.6631 272.067247 
L 221.8863 259.612532 
L 222.1095 257.834356 
L 222.5559 277.286608 
L 222.7791 271.358803 
L 223.0023 280.509323 
L 223.2255 273.542324 
L 223.4487 256.06365 
L 223.6719 271.714768 
L 223.8951 252.732961 
L 224.1183 252.171813 
L 224.3415 288.21973 
L 224.5647 247.845422 
L 224.7879 258.88067 
L 225.0111 251.662789 
L 225.2343 248.239294 
L 225.4575 368.74175 
L 225.6807 263.921181 
L 225.9039 254.324182 
L 226.1271 250.900163 
L 226.3503 254.794271 
L 226.5735 280.575168 
L 226.7967 254.68229 
L 227.0199 263.815006 
L 227.2431 250.576528 
L 227.4663 264.960164 
L 227.9127 253.766787 
L 228.1359 258.536115 
L 228.3591 256.177785 
L 228.5823 258.929771 
L 229.2519 243.876203 
L 229.4751 285.833354 
L 229.6983 249.795779 
L 229.9215 265.81756 
L 230.5911 244.516315 
L 230.8143 247.987928 
L 231.0375 241.367836 
L 231.2607 253.367111 
L 231.7071 241.050943 
L 231.9303 242.599939 
L 232.1535 261.52497 
L 232.3767 264.423246 
L 232.5999 261.664512 
L 232.8231 246.350136 
L 233.0463 260.30043 
L 233.2695 241.642699 
L 233.4927 271.258812 
L 233.7159 241.974021 
L 233.9391 240.553463 
L 234.1623 246.712591 
L 234.3855 263.657028 
L 234.6087 250.465007 
L 234.8319 253.010959 
L 235.0551 291.926488 
L 235.2783 256.497488 
L 235.5015 249.993852 
L 235.7247 249.401795 
L 235.9479 253.172907 
L 236.1711 254.952213 
L 236.3943 253.977268 
L 236.6175 259.429015 
L 236.8407 281.826993 
L 237.0639 251.830483 
L 237.2871 244.954146 
L 237.5103 255.034036 
L 237.7335 242.271241 
L 237.9567 282.353413 
L 238.1799 276.713037 
L 238.4031 242.924534 
L 238.6263 252.364527 
L 238.8495 241.211089 
L 239.0727 266.961656 
L 239.2959 268.654368 
L 239.5191 258.573826 
L 239.7423 275.364915 
L 239.9655 269.959331 
L 240.1887 253.633196 
L 240.4119 259.366418 
L 240.6351 272.886236 
L 240.8583 242.35582 
L 241.0815 255.747962 
L 241.3047 237.563762 
L 241.5279 239.903224 
L 241.7511 240.353636 
L 241.9743 248.109866 
L 242.1975 241.289818 
L 242.4207 261.903407 
L 242.6439 244.346728 
L 242.8671 245.647599 
L 243.0903 245.510404 
L 243.3135 243.597149 
L 243.5367 276.944436 
L 243.7599 240.675712 
L 243.9831 239.855907 
L 244.2063 245.222174 
L 244.4295 264.216043 
L 244.6527 247.055111 
L 244.8759 249.184349 
L 245.0991 235.632809 
L 245.3223 240.203887 
L 245.5455 247.342507 
L 245.7687 236.930883 
L 245.9919 235.599501 
L 246.2151 235.446175 
L 246.4383 234.470305 
L 246.6615 237.236363 
L 246.8847 232.316646 
L 247.1079 258.989212 
L 247.3311 240.7525 
L 247.5543 252.252505 
L 247.7775 368.74175 
L 248.0007 236.372291 
L 248.2239 241.863917 
L 248.4471 252.605403 
L 248.6703 251.212505 
L 248.8935 284.712132 
L 249.3399 235.119138 
L 249.5631 235.080002 
L 249.7863 240.459968 
L 250.0095 239.491275 
L 250.4559 253.897296 
L 250.6791 264.134396 
L 250.9023 257.801959 
L 251.1255 266.902858 
L 251.5719 233.127362 
L 251.7951 268.000209 
L 252.0183 232.647442 
L 252.2415 229.133101 
L 252.4647 244.331029 
L 252.6879 247.150185 
L 252.9111 231.850984 
L 253.1343 232.668647 
L 253.3575 234.377568 
L 253.5807 229.087969 
L 253.8039 238.321725 
L 254.0271 236.260573 
L 254.2503 244.034146 
L 254.4735 229.805255 
L 254.6967 255.986343 
L 254.9199 231.394136 
L 255.1431 235.964104 
L 255.3663 230.898922 
L 255.5895 236.332108 
L 255.8127 229.165033 
L 256.0359 238.321027 
L 256.2591 232.154911 
L 256.4823 236.216695 
L 256.7055 232.204563 
L 256.9287 258.20838 
L 257.1519 234.162762 
L 257.3751 269.72296 
L 257.5983 228.80133 
L 257.8215 234.267795 
L 258.0447 234.478124 
L 258.2679 233.724637 
L 258.4911 240.744923 
L 258.7143 226.701217 
L 258.9375 229.953326 
L 259.1607 229.547477 
L 259.3839 237.047451 
L 259.6071 274.266176 
L 259.8303 234.755993 
L 260.0535 269.894582 
L 260.2767 232.221696 
L 260.4999 225.161232 
L 260.7231 229.426438 
L 260.9463 228.107371 
L 261.1695 227.901003 
L 261.3927 228.791889 
L 261.6159 236.018605 
L 261.8391 261.869016 
L 262.0623 272.586023 
L 262.2855 269.13716 
L 262.5087 229.244327 
L 262.7319 234.357464 
L 262.9551 234.185473 
L 263.1783 230.440532 
L 263.4015 261.538262 
L 263.6247 253.281765 
L 263.8479 228.71373 
L 264.0711 224.198342 
L 264.2943 245.191196 
L 264.5175 222.138691 
L 264.7407 228.54819 
L 264.9639 257.911034 
L 265.1871 264.389989 
L 265.4103 226.76329 
L 265.6335 247.250791 
L 265.8567 241.673584 
L 266.0799 225.483874 
L 266.3031 243.800383 
L 266.5263 225.732156 
L 266.7495 224.789825 
L 266.9727 235.50615 
L 267.1959 259.149266 
L 267.4191 225.843972 
L 267.6423 225.764868 
L 267.8655 222.973259 
L 268.0887 262.925477 
L 268.3119 224.089688 
L 268.5351 250.621968 
L 268.7583 220.803496 
L 268.9815 231.588002 
L 269.2047 223.945772 
L 269.4279 260.825786 
L 269.6511 221.109539 
L 269.8743 229.118796 
L 270.0975 368.74175 
L 270.3207 242.832592 
L 270.5439 225.773229 
L 270.7671 223.465314 
L 270.9903 219.205008 
L 271.2135 218.132783 
L 271.4367 262.029796 
L 271.8831 222.046645 
L 272.1063 230.95406 
L 272.3295 220.899978 
L 272.5527 225.566429 
L 272.7759 222.492492 
L 273.2223 262.300192 
L 273.4455 220.804043 
L 273.6687 217.585478 
L 273.8919 223.066849 
L 274.1151 222.346387 
L 274.3383 232.229797 
L 274.5615 219.46817 
L 274.7847 215.946022 
L 275.0079 239.197747 
L 275.2311 238.683423 
L 275.4543 247.595259 
L 275.6775 222.356785 
L 275.9007 221.730715 
L 276.1239 258.14844 
L 276.3471 228.782083 
L 276.5703 218.586711 
L 276.7935 215.563394 
L 277.0167 216.138197 
L 277.2399 234.77624 
L 277.4631 212.297439 
L 277.6863 215.115199 
L 277.9095 220.173214 
L 278.1327 231.043956 
L 278.3559 259.798883 
L 278.5791 230.344032 
L 278.8023 245.138338 
L 279.0255 235.725138 
L 279.2487 213.886256 
L 279.4719 218.066982 
L 279.6951 216.241015 
L 279.9183 216.39892 
L 280.1415 252.900652 
L 280.3647 219.686223 
L 280.5879 237.662129 
L 280.8111 214.863706 
L 281.0343 223.430162 
L 281.2575 218.73488 
L 281.4807 238.082838 
L 281.7039 211.982741 
L 281.9271 245.294672 
L 282.1503 224.911827 
L 282.5967 210.63832 
L 282.8199 220.407772 
L 283.0431 211.121016 
L 283.2663 219.410824 
L 283.4895 255.498723 
L 283.7127 253.455907 
L 283.9359 256.685063 
L 284.1591 213.242451 
L 284.3823 224.987753 
L 284.6055 214.924473 
L 284.8287 211.947501 
L 285.0519 210.541568 
L 285.2751 214.645887 
L 285.4983 210.780804 
L 285.7215 225.162097 
L 285.9447 220.130347 
L 286.1679 210.644085 
L 286.3911 256.300818 
L 286.6143 254.84329 
L 286.8375 232.14625 
L 287.0607 226.30273 
L 287.2839 214.007316 
L 287.5071 249.599803 
L 287.7303 243.464183 
L 287.9535 253.566514 
L 288.1767 225.584081 
L 288.3999 222.922503 
L 288.6231 217.915265 
L 288.8463 226.950952 
L 289.0695 248.157638 
L 289.2927 226.554391 
L 289.5159 256.460913 
L 289.7391 213.542346 
L 289.9623 211.427077 
L 290.1855 212.660146 
L 290.4087 209.944373 
L 290.6319 210.942254 
L 291.0783 207.081513 
L 291.3015 214.250803 
L 291.5247 247.534435 
L 291.7479 209.708498 
L 291.9711 213.760172 
L 292.1943 219.992701 
L 292.4175 368.74175 
L 292.6407 218.718924 
L 292.8639 242.991234 
L 293.0871 241.769396 
L 293.3103 211.520811 
L 293.5335 235.752193 
L 293.7567 208.130842 
L 293.9799 205.858528 
L 294.2031 227.547806 
L 294.4263 207.139338 
L 294.6495 220.656365 
L 294.8727 216.459188 
L 295.0959 244.145938 
L 295.3191 252.785396 
L 295.5423 209.911777 
L 295.7655 211.514692 
L 295.9887 206.851698 
L 296.2119 230.340688 
L 296.4351 206.940639 
L 296.6583 252.774878 
L 296.8815 207.46479 
L 297.1047 214.562261 
L 297.3279 217.49054 
L 297.5511 261.920981 
L 297.7743 205.915253 
L 297.9975 206.921951 
L 298.2207 219.910424 
L 298.6671 205.319266 
L 299.1135 222.867539 
L 299.3367 209.758178 
L 299.7831 200.241739 
L 300.0063 201.569085 
L 300.2295 206.809893 
L 300.4527 202.015275 
L 300.6759 205.238082 
L 300.8991 224.274141 
L 301.1223 206.217351 
L 301.3455 205.450825 
L 301.5687 203.895824 
L 301.7919 241.732933 
L 302.0151 204.529025 
L 302.2383 202.533064 
L 302.4615 239.017777 
L 302.6847 231.679917 
L 302.9079 209.424858 
L 303.1311 204.056332 
L 303.3543 219.657454 
L 303.5775 244.168375 
L 303.8007 207.844105 
L 304.0239 209.044168 
L 304.2471 200.979536 
L 304.4703 202.483692 
L 304.6935 198.203759 
L 304.9167 200.469684 
L 305.1399 213.414375 
L 305.3631 202.023315 
L 305.5863 209.955633 
L 305.8095 198.819878 
L 306.0327 197.664799 
L 306.2559 200.347434 
L 306.4791 243.012976 
L 306.7023 216.434688 
L 306.9255 217.356388 
L 307.1487 205.924538 
L 307.3719 237.383081 
L 307.5951 200.755872 
L 307.8183 201.919826 
L 308.0415 201.48553 
L 308.2647 241.143155 
L 308.4879 231.977941 
L 308.7111 228.626566 
L 308.9343 216.898484 
L 309.1575 230.654845 
L 309.3807 210.269339 
L 309.6039 201.615349 
L 309.8271 226.075721 
L 310.0503 204.592072 
L 310.2735 201.120978 
L 310.4967 200.451204 
L 310.7199 226.968476 
L 310.9431 220.468815 
L 311.1663 197.941704 
L 311.3895 221.633732 
L 311.6127 199.797773 
L 311.8359 205.942881 
L 312.0591 191.879735 
L 312.2823 210.283328 
L 312.5055 238.074269 
L 312.7287 233.8063 
L 312.9519 194.43888 
L 313.1751 204.814238 
L 313.3983 195.594166 
L 313.6215 195.462838 
L 313.8447 189.797785 
L 314.0679 199.556501 
L 314.2911 203.462223 
L 314.5143 229.73409 
L 314.7375 368.74175 
L 314.9607 212.926898 
L 315.4071 194.250316 
L 315.6303 207.302957 
L 315.8535 201.874992 
L 316.0767 218.745453 
L 316.2999 211.885077 
L 316.5231 209.551563 
L 316.7463 196.421727 
L 316.9695 199.556873 
L 317.1927 199.652003 
L 317.4159 194.952731 
L 317.6391 221.054175 
L 317.8623 196.242749 
L 318.0855 189.580087 
L 318.3087 200.964683 
L 318.5319 195.87327 
L 318.7551 203.622928 
L 318.9783 224.109397 
L 319.2015 218.867254 
L 319.4247 187.005673 
L 319.6479 206.755441 
L 319.8711 194.88054 
L 320.0943 197.123475 
L 320.3175 216.134243 
L 320.5407 191.663703 
L 320.7639 221.884812 
L 320.9871 232.527509 
L 321.2103 231.045004 
L 321.4335 230.762539 
L 321.6567 227.853651 
L 321.8799 228.671723 
L 322.1031 226.710508 
L 322.3263 199.868484 
L 322.5495 194.044935 
L 322.7727 235.978353 
L 322.9959 204.791168 
L 323.2191 196.212273 
L 323.4423 227.528454 
L 323.6655 224.789555 
L 323.8887 191.840498 
L 324.3351 194.78031 
L 324.5583 196.803226 
L 324.7815 191.196543 
L 325.0047 190.769637 
L 325.2279 199.963952 
L 325.4511 188.226742 
L 325.6743 187.119911 
L 325.8975 194.046453 
L 326.1207 192.502543 
L 326.3439 238.986059 
L 326.7903 188.193395 
L 327.0135 226.334955 
L 327.2367 225.306032 
L 327.4599 188.341589 
L 327.6831 190.066255 
L 327.9063 189.82828 
L 328.1295 188.990115 
L 328.3527 184.271879 
L 328.5759 193.832684 
L 328.7991 239.337618 
L 329.0223 189.106959 
L 329.2455 188.566278 
L 329.6919 208.900526 
L 329.9151 194.470316 
L 330.1383 206.952209 
L 330.3615 193.396079 
L 330.5847 212.60322 
L 330.8079 204.485984 
L 331.0311 186.169425 
L 331.2543 188.298347 
L 331.4775 185.436116 
L 331.7007 193.645608 
L 331.9239 189.649417 
L 332.1471 194.976371 
L 332.5935 192.589483 
L 332.8167 179.783757 
L 333.0399 189.300667 
L 333.2631 189.117029 
L 333.4863 221.930408 
L 333.7095 230.501543 
L 334.1559 198.521677 
L 334.3791 179.991077 
L 334.6023 193.8473 
L 334.8255 186.629537 
L 335.0487 192.625242 
L 335.2719 181.089569 
L 335.4951 183.513218 
L 335.7183 220.179616 
L 335.9415 184.006278 
L 336.1647 212.195578 
L 336.3879 194.818492 
L 336.6111 207.33946 
L 336.8343 194.272499 
L 337.0575 368.74175 
L 337.2807 186.617824 
L 337.5039 196.624466 
L 337.7271 180.118199 
L 337.9503 205.546396 
L 338.1735 199.95925 
L 338.3967 186.44556 
L 338.6199 190.144606 
L 338.8431 180.724657 
L 339.0663 183.562352 
L 339.2895 223.560102 
L 339.5127 185.603148 
L 339.7359 187.61047 
L 339.9591 184.885983 
L 340.1823 221.363577 
L 340.4055 176.774749 
L 340.8519 194.510896 
L 341.0751 180.22467 
L 341.2983 183.167191 
L 341.5215 174.665883 
L 341.7447 180.950365 
L 341.9679 178.105877 
L 342.4143 185.446449 
L 342.6375 200.275747 
L 342.8607 169.924225 
L 343.0839 190.273401 
L 343.5303 188.230369 
L 343.7535 205.659316 
L 344.4231 174.520468 
L 344.6463 208.969614 
L 344.8695 204.82717 
L 345.0927 174.137267 
L 345.3159 177.605746 
L 345.5391 228.09077 
L 345.7623 227.209338 
L 345.9855 189.115567 
L 346.2087 223.989027 
L 346.4319 225.443173 
L 346.6551 224.878103 
L 346.8783 178.266773 
L 347.1015 199.684027 
L 347.5479 177.214556 
L 347.7711 182.648358 
L 347.9943 204.799096 
L 348.2175 168.363146 
L 348.4407 178.255142 
L 348.6639 172.095055 
L 348.8871 172.836025 
L 349.1103 179.644724 
L 349.3335 177.81089 
L 349.5567 184.351415 
L 350.0031 214.542365 
L 350.2263 172.332837 
L 350.4495 181.225866 
L 350.6727 169.261329 
L 350.8959 189.334434 
L 351.1191 186.446594 
L 351.3423 188.820794 
L 351.5655 199.567188 
L 351.7887 175.632035 
L 352.0119 164.472665 
L 352.2351 169.357447 
L 352.4583 230.967837 
L 352.6815 171.54202 
L 352.9047 171.790547 
L 353.1279 164.006018 
L 353.3511 177.827574 
L 353.5743 172.728223 
L 353.7975 186.944876 
L 354.0207 180.719498 
L 354.2439 189.563517 
L 354.4671 170.959679 
L 354.9135 181.616255 
L 355.1367 168.348664 
L 355.3599 197.286054 
L 355.5831 170.45144 
L 355.8063 169.19402 
L 356.0295 180.842502 
L 356.2527 181.521046 
L 356.4759 171.647417 
L 356.6991 183.781046 
L 356.9223 177.241636 
L 357.1455 175.715707 
L 357.3687 184.25661 
L 357.5919 175.80835 
L 358.0383 170.159204 
L 358.2615 158.958415 
L 358.4847 167.743602 
L 358.7079 167.907792 
L 358.9311 165.369444 
L 359.1543 166.452281 
L 359.3775 368.74175 
L 359.6007 180.005773 
L 359.8239 208.747499 
L 360.4935 205.231758 
L 360.7167 161.201378 
L 360.9399 182.388792 
L 361.1631 174.116894 
L 361.3863 197.881773 
L 361.6095 192.434127 
L 361.8327 157.56916 
L 362.0559 171.754188 
L 362.5023 180.270369 
L 362.7255 177.081488 
L 362.9487 184.836964 
L 363.1719 201.312643 
L 363.6183 162.773004 
L 363.8415 168.271524 
L 364.0647 158.739002 
L 364.2879 197.737311 
L 364.7343 173.745356 
L 364.9575 174.770171 
L 365.1807 183.238373 
L 365.4039 166.788343 
L 365.6271 164.024583 
L 365.8503 177.555893 
L 366.0735 172.48277 
L 366.2967 149.071502 
L 366.5199 160.645351 
L 366.7431 162.255472 
L 366.9663 156.236019 
L 367.1895 161.563486 
L 367.4127 187.85596 
L 367.6359 158.785959 
L 367.8591 163.3965 
L 368.0823 161.077996 
L 368.3055 165.777361 
L 368.5287 231.165617 
L 368.7519 201.233296 
L 368.9751 149.215748 
L 369.1983 150.242245 
L 369.4215 166.589292 
L 369.6447 153.986963 
L 369.8679 164.019884 
L 370.0911 151.252393 
L 370.3143 163.440498 
L 370.5375 184.110913 
L 370.7607 158.765108 
L 370.9839 149.168718 
L 371.2071 189.940986 
L 371.4303 155.470122 
L 371.6535 150.101753 
L 371.8767 166.019624 
L 372.0999 147.19452 
L 372.3231 181.72733 
L 372.9927 208.319994 
L 373.2159 190.006259 
L 373.4391 197.728073 
L 373.6623 192.074387 
L 373.8855 160.94154 
L 374.1087 181.96162 
L 374.5551 152.60886 
L 374.7783 158.705968 
L 375.0015 155.87264 
L 375.2247 151.567408 
L 375.4479 174.121492 
L 375.6711 164.961239 
L 375.8943 185.295288 
L 376.1175 177.641338 
L 376.3407 154.176207 
L 376.5639 150.699662 
L 376.7871 164.173421 
L 377.0103 189.25481 
L 377.2335 179.662501 
L 377.4567 145.029533 
L 377.6799 203.994227 
L 377.9031 159.993632 
L 378.1263 196.348115 
L 378.3495 145.817761 
L 378.5727 195.857214 
L 379.0191 143.999108 
L 379.2423 150.478991 
L 379.4655 172.90601 
L 379.6887 154.716382 
L 379.9119 192.793856 
L 380.1351 204.899544 
L 380.3583 165.104593 
L 380.5815 163.384849 
L 380.8047 192.014792 
L 381.0279 195.080136 
L 381.2511 183.233541 
L 381.4743 148.449509 
L 381.6975 368.74175 
L 381.9207 148.776159 
L 382.1439 167.943114 
L 382.3671 167.108745 
L 382.5903 175.443457 
L 382.8135 158.962985 
L 383.2599 153.081853 
L 383.4831 141.201602 
L 383.9295 157.18773 
L 384.1527 144.876099 
L 384.3759 160.510621 
L 384.5991 166.016755 
L 384.8223 189.86513 
L 385.0455 160.974761 
L 385.2687 152.594425 
L 385.4919 154.269052 
L 385.7151 147.644017 
L 385.9383 154.292828 
L 386.1615 143.775907 
L 386.3847 153.586752 
L 386.6079 149.817422 
L 386.8311 189.856206 
L 387.2775 139.584196 
L 387.5007 148.898531 
L 387.7239 135.495917 
L 388.1703 147.162788 
L 388.3935 180.245533 
L 388.6167 188.954853 
L 388.8399 169.259383 
L 389.0631 193.752248 
L 389.2863 144.402616 
L 389.5095 150.075705 
L 389.7327 145.0722 
L 389.9559 135.227801 
L 390.1791 132.812682 
L 390.6255 169.298408 
L 390.8487 138.856692 
L 391.0719 136.127011 
L 391.2951 181.691671 
L 391.5183 142.658174 
L 391.7415 140.053631 
L 391.9647 130.391619 
L 392.1879 188.253297 
L 392.4111 136.449298 
L 392.6343 206.092732 
L 392.8575 131.445958 
L 393.0807 161.076959 
L 393.3039 140.582147 
L 393.5271 142.044674 
L 393.7503 141.73477 
L 393.9735 130.547427 
L 394.1967 141.950165 
L 394.4199 137.425752 
L 394.6431 195.316696 
L 394.8663 190.301533 
L 395.0895 143.982558 
L 395.3127 141.119496 
L 395.5359 130.562613 
L 395.7591 162.336102 
L 396.2055 128.579497 
L 396.4287 171.134499 
L 396.6519 126.69113 
L 396.8751 132.049989 
L 397.0983 172.048057 
L 397.5447 126.278862 
L 397.7679 149.075198 
L 397.9911 129.997886 
L 398.2143 159.259899 
L 398.4375 161.588395 
L 398.6607 129.180178 
L 398.8839 144.682356 
L 399.1071 139.860074 
L 399.3303 122.405278 
L 399.5535 183.267976 
L 399.7767 122.879168 
L 399.9999 134.358615 
L 400.2231 137.120757 
L 400.4463 157.483867 
L 400.6695 122.239523 
L 400.8927 141.214406 
L 401.1159 222.166993 
L 401.3391 144.866036 
L 401.7855 133.678105 
L 402.0087 149.898159 
L 402.2319 208.924197 
L 402.4551 181.218232 
L 402.6783 135.535674 
L 402.9015 130.323279 
L 403.1247 174.133332 
L 403.3479 136.528187 
L 403.5711 135.409303 
L 403.7943 173.010034 
L 404.0175 368.74175 
L 404.2407 117.289337 
L 404.4639 133.341048 
L 404.6871 136.631005 
L 404.9103 120.547093 
L 405.1335 140.357299 
L 405.3567 147.8756 
L 405.5799 127.847239 
L 405.8031 135.53582 
L 406.0263 127.01915 
L 406.2495 141.884781 
L 406.4727 142.702119 
L 406.6959 119.443513 
L 406.9191 130.541969 
L 407.1423 135.383749 
L 407.3655 114.142206 
L 407.5887 150.144543 
L 407.8119 126.389436 
L 408.0351 129.574959 
L 408.2583 139.601185 
L 408.4815 137.69379 
L 408.7047 114.916604 
L 408.9279 137.428916 
L 409.1511 114.7783 
L 409.3743 140.16959 
L 409.5975 145.922921 
L 409.8207 117.488102 
L 410.0439 140.45914 
L 410.2671 114.364985 
L 410.4903 166.874196 
L 410.7135 170.759034 
L 410.9367 165.618746 
L 411.1599 163.569661 
L 411.3831 169.679968 
L 411.6063 161.822552 
L 411.8295 119.320492 
L 412.0527 155.437985 
L 412.2759 120.884785 
L 412.4991 107.806202 
L 412.7223 160.881861 
L 412.9455 142.028116 
L 413.3919 218.150397 
L 413.6151 120.478004 
L 413.8383 135.648346 
L 414.0615 115.641917 
L 414.2847 139.13898 
L 414.5079 130.810728 
L 414.7311 129.559585 
L 414.9543 122.278367 
L 415.1775 135.157805 
L 415.4007 110.387482 
L 415.6239 135.581359 
L 415.8471 182.782608 
L 416.0703 111.093496 
L 416.2935 141.63634 
L 416.5167 108.181671 
L 416.9631 127.11741 
L 417.1863 107.380914 
L 417.6327 143.555927 
L 417.8559 133.4113 
L 418.0791 164.128088 
L 418.7487 125.579881 
L 418.9719 133.54577 
L 419.1951 112.039501 
L 419.4183 108.865807 
L 419.6415 145.68245 
L 419.8647 148.733331 
L 420.0879 143.908961 
L 420.3111 125.468069 
L 420.5343 153.928459 
L 420.7575 166.235201 
L 420.9807 102.091902 
L 421.2039 111.770379 
L 421.4271 129.289742 
L 421.6503 126.54077 
L 421.8735 125.596555 
L 422.0967 172.320024 
L 422.3199 121.997801 
L 422.5431 123.180982 
L 422.7663 175.815849 
L 422.9895 115.013434 
L 423.2127 109.184581 
L 423.4359 118.383928 
L 423.6591 142.285181 
L 423.8823 111.068942 
L 424.1055 136.759908 
L 424.3287 113.58753 
L 424.5519 157.365632 
L 424.7751 154.444855 
L 425.2215 103.297538 
L 425.4447 124.891526 
L 425.6679 117.505395 
L 425.8911 118.810741 
L 426.1143 104.730126 
L 426.3375 368.74175 
L 426.5607 98.414897 
L 426.7839 133.51687 
L 427.0071 102.207008 
L 427.2303 156.616638 
L 427.4535 105.770012 
L 427.6767 104.797669 
L 427.8999 122.00823 
L 428.1231 121.935136 
L 428.3463 95.210136 
L 428.5695 104.728585 
L 428.7927 124.251091 
L 429.0159 102.387481 
L 429.4623 184.895934 
L 429.6855 101.313973 
L 429.9087 92.640538 
L 430.3551 108.752617 
L 430.5783 100.382656 
L 430.8015 135.198669 
L 431.0247 109.239526 
L 431.2479 97.300098 
L 431.4711 97.586517 
L 431.6943 131.395707 
L 431.9175 101.10676 
L 432.1407 110.102114 
L 432.3639 126.009935 
L 432.5871 85.727786 
L 432.8103 123.986779 
L 433.0335 100.923758 
L 433.2567 111.004097 
L 433.4799 115.322504 
L 433.7031 93.476671 
L 433.9263 103.632697 
L 434.1495 94.053857 
L 434.3727 90.507906 
L 434.5959 157.369608 
L 434.8191 149.473249 
L 435.0423 101.25454 
L 435.2655 102.268676 
L 435.4887 95.593808 
L 435.7119 93.492968 
L 435.9351 125.958128 
L 436.1583 107.473635 
L 436.3815 98.991139 
L 436.6047 109.73955 
L 436.8279 163.596167 
L 437.0511 118.77851 
L 437.2743 98.232274 
L 437.7207 83.633533 
L 437.9439 89.297964 
L 438.1671 169.212512 
L 438.3903 146.727949 
L 438.6135 148.834889 
L 438.8367 130.251843 
L 439.0599 85.835594 
L 439.2831 99.250583 
L 439.5063 97.291247 
L 439.7295 117.602375 
L 439.9527 126.767094 
L 440.3991 104.254631 
L 440.6223 118.572053 
L 440.8455 111.825697 
L 441.0687 79.985388 
L 441.2919 82.038854 
L 441.5151 89.368944 
L 441.7383 82.560714 
L 441.9615 91.398127 
L 442.4079 138.797718 
L 443.0775 80.250732 
L 443.3007 101.054355 
L 443.5239 110.086051 
L 443.9703 88.78691 
L 444.1935 135.340978 
L 444.6399 122.075666 
L 444.8631 105.08778 
L 445.0863 125.494218 
L 445.3095 88.50161 
L 445.5327 129.588564 
L 445.7559 135.181733 
L 445.9791 76.691196 
L 446.2023 93.36125 
L 446.4255 99.210124 
L 446.6487 88.858024 
L 447.0951 82.279432 
L 447.3183 69.385266 
L 447.5415 103.944111 
L 447.7647 82.442746 
L 447.9879 89.525147 
L 448.2111 89.060364 
L 448.4343 104.874274 
L 448.6575 368.74175 
L 448.8807 75.78034 
L 449.1039 77.991604 
L 449.3271 106.946471 
L 449.5503 117.514958 
L 449.7735 90.152943 
L 449.9967 114.165863 
L 450.2199 72.442927 
L 450.4431 147.655544 
L 450.8895 99.761434 
L 451.1127 76.451413 
L 451.3359 97.667872 
L 451.5591 79.893956 
L 451.7823 97.272228 
L 452.0055 96.395699 
L 452.2287 68.789527 
L 452.4519 92.591394 
L 452.6751 72.048779 
L 452.8983 67.551394 
L 453.1215 79.985808 
L 453.5679 70.434878 
L 453.7911 116.174757 
L 454.0143 72.656995 
L 454.2375 91.817883 
L 454.4607 80.771499 
L 454.6839 98.880491 
L 454.9071 78.416905 
L 455.1303 114.853369 
L 455.3535 66.424794 
L 455.5767 57.905874 
L 455.7999 70.745718 
L 456.0231 156.175707 
L 456.2463 154.176 
L 456.4695 128.164619 
L 456.9159 136.340349 
L 457.1391 126.020181 
L 457.3623 73.328005 
L 457.5855 88.770392 
L 457.8087 64.818306 
L 458.0319 139.869723 
L 458.2551 139.278323 
L 458.4783 65.430707 
L 458.7015 84.328391 
L 458.9247 66.466695 
L 459.1479 81.766276 
L 459.3711 64.035665 
L 459.8175 112.062366 
L 460.0407 70.2333 
L 460.2639 84.20342 
L 460.4871 72.483684 
L 460.7103 77.235617 
L 460.9335 65.738864 
L 461.1567 88.998075 
L 461.3799 81.384095 
L 461.6031 83.223443 
L 461.8263 79.200161 
L 462.0495 90.960966 
L 462.2727 120.388453 
L 462.4959 72.911821 
L 462.7191 83.674525 
L 462.9423 56.153574 
L 463.1655 101.203631 
L 463.3887 70.773945 
L 463.6119 62.277199 
L 463.8351 99.273793 
L 464.0583 59.259135 
L 464.2815 57.343081 
L 464.5047 123.406336 
L 464.7279 77.175873 
L 464.9511 74.858865 
L 465.1743 79.827295 
L 465.3975 63.402215 
L 465.6207 72.728633 
L 465.8439 103.678223 
L 466.2903 55.801176 
L 466.5135 53.684664 
L 466.7367 86.446054 
L 466.9599 49.96862 
L 467.1831 65.065689 
L 467.4063 57.59596 
L 467.6295 70.293358 
L 467.8527 96.94472 
L 468.0759 62.120532 
L 468.5223 76.760008 
L 468.7455 77.127614 
L 468.9687 111.102726 
L 469.1919 51.097228 
L 469.6383 125.045546 
L 469.8615 44.006667 
L 470.3079 53.876308 
L 470.5311 48.183214 
L 470.7543 50.451122 
L 470.9775 368.74175 
L 471.2007 62.77244 
L 471.4239 65.843655 
L 471.6471 55.254375 
L 471.8703 50.809986 
L 472.0935 51.331692 
L 472.3167 79.563577 
L 472.5399 48.265977 
L 472.7631 58.600434 
L 472.9863 56.074399 
L 473.2095 58.437004 
L 473.4327 57.240184 
L 473.6559 67.834505 
L 473.8791 104.185066 
L 474.1023 66.821123 
L 474.3255 53.627625 
L 474.5487 51.740202 
L 474.7719 129.429595 
L 474.9951 45.635525 
L 475.2183 58.235366 
L 475.4415 49.800747 
L 475.6647 56.086225 
L 475.8879 83.798282 
L 476.1111 53.04972 
L 476.3343 52.337046 
L 476.5575 75.44939 
L 476.7807 51.809675 
L 477.0039 57.695498 
L 477.2271 104.712162 
L 477.4503 48.318584 
L 477.6735 48.022107 
L 477.8967 61.102147 
L 478.3431 34.703406 
L 478.5663 48.24004 
L 478.7895 36.552588 
L 479.2359 81.281425 
L 479.4591 40.949714 
L 479.9055 94.323246 
L 480.1287 36.457123 
L 480.3519 31.710248 
L 480.5751 62.965667 
L 480.7983 56.613655 
L 481.0215 33.895738 
L 481.2447 40.689841 
L 481.4679 32.086973 
L 481.6911 50.190979 
L 481.9143 127.363997 
L 482.1375 47.744886 
L 482.3607 34.341373 
L 482.5839 67.556022 
L 482.8071 33.364134 
L 483.0303 79.04462 
L 483.2535 43.419074 
L 483.4767 33.332623 
L 483.6999 35.041021 
L 483.9231 62.092021 
L 484.1463 55.184333 
L 484.3695 25.561553 
L 484.5927 38.972475 
L 484.8159 43.231303 
L 485.0391 72.590364 
L 485.2623 35.108443 
L 485.4855 35.533994 
L 485.7087 43.52338 
L 485.9319 85.257921 
L 486.1551 37.942726 
L 486.3783 48.936839 
L 486.8247 79.911659 
L 487.0479 74.616568 
L 487.2711 86.863149 
L 487.4943 33.012499 
L 487.7175 30.885644 
L 487.9407 53.568554 
L 488.1639 37.554685 
L 488.3871 60.12588 
L 488.6103 34.094335 
L 488.8335 40.537032 
L 489.0567 23.461533 
L 489.2799 35.662023 
L 489.5031 56.354519 
L 489.7263 25.373155 
L 489.9495 44.226211 
L 490.1727 29.337264 
L 490.3959 49.296427 
L 490.6191 45.652248 
L 490.8423 30.340559 
L 491.0655 74.889363 
L 491.2887 38.492861 
L 491.5119 33.314371 
L 491.7351 39.374761 
L 491.9583 27.5355 
L 492.1815 55.909801 
L 492.4047 36.229872 
L 492.6279 45.691028 
L 492.8511 24.308525 
L 493.0743 113.057821 
L 493.0743 113.057821 
" style="fill:none;stroke:#0000ff;stroke-linecap:square;stroke-width:0.5;"/>
   </g>
   <g id="patch_3">
    <path d="M 46.8975 23.14175 
L 493.2975 23.14175 
" style="fill:none;stroke:#000000;stroke-linecap:square;stroke-linejoin:miter;"/>
   </g>
   <g id="patch_4">
    <path d="M 493.2975 368.74175 
L 493.2975 23.14175 
" style="fill:none;stroke:#000000;stroke-linecap:square;stroke-linejoin:miter;"/>
   </g>
   <g id="patch_5">
    <path d="M 46.8975 368.74175 
L 46.8975 23.14175 
" style="fill:none;stroke:#000000;stroke-linecap:square;stroke-linejoin:miter;"/>
   </g>
   <g id="patch_6">
    <path d="M 46.8975 368.74175 
L 493.2975 368.74175 
" style="fill:none;stroke:#000000;stroke-linecap:square;stroke-linejoin:miter;"/>
   </g>
   <g id="matplotlib.axis_1">
    <g id="xtick_1">
     <g id="line2d_2">
      <defs>
       <path d="M 0 0 
L 0 -4 
" id="m5f8abe58b3" style="stroke:#000000;stroke-width:0.5;"/>
      </defs>
      <g>
       <use style="stroke:#000000;stroke-width:0.5;" x="46.8975" xlink:href="#m5f8abe58b3" y="368.74175"/>
      </g>
     </g>
     <g id="line2d_3">
      <defs>
       <path d="M 0 0 
L 0 4 
" id="mc0c00a57ed" style="stroke:#000000;stroke-width:0.5;"/>
      </defs>
      <g>
       <use style="stroke:#000000;stroke-width:0.5;" x="46.8975" xlink:href="#mc0c00a57ed" y="23.14175"/>
      </g>
     </g>
     <g id="text_1">
      <!-- 0 -->
      <defs>
       <path d="M 31.78125 66.40625 
Q 24.171875 66.40625 20.328125 58.90625 
Q 16.5 51.421875 16.5 36.375 
Q 16.5 21.390625 20.328125 13.890625 
Q 24.171875 6.390625 31.78125 6.390625 
Q 39.453125 6.390625 43.28125 13.890625 
Q 47.125 21.390625 47.125 36.375 
Q 47.125 51.421875 43.28125 58.90625 
Q 39.453125 66.40625 31.78125 66.40625 
M 31.78125 74.21875 
Q 44.046875 74.21875 50.515625 64.515625 
Q 56.984375 54.828125 56.984375 36.375 
Q 56.984375 17.96875 50.515625 8.265625 
Q 44.046875 -1.421875 31.78125 -1.421875 
Q 19.53125 -1.421875 13.0625 8.265625 
Q 6.59375 17.96875 6.59375 36.375 
Q 6.59375 54.828125 13.0625 64.515625 
Q 19.53125 74.21875 31.78125 74.21875 
" id="BitstreamVeraSans-Roman-30"/>
      </defs>
      <g transform="translate(43.08 381.859875)scale(0.12 -0.12)">
       <use xlink:href="#BitstreamVeraSans-Roman-30"/>
      </g>
     </g>
    </g>
    <g id="xtick_2">
     <g id="line2d_4">
      <g>
       <use style="stroke:#000000;stroke-width:0.5;" x="158.4975" xlink:href="#m5f8abe58b3" y="368.74175"/>
      </g>
     </g>
     <g id="line2d_5">
      <g>
       <use style="stroke:#000000;stroke-width:0.5;" x="158.4975" xlink:href="#mc0c00a57ed" y="23.14175"/>
      </g>
     </g>
     <g id="text_2">
      <!-- 500 -->
      <defs>
       <path d="M 10.796875 72.90625 
L 49.515625 72.90625 
L 49.515625 64.59375 
L 19.828125 64.59375 
L 19.828125 46.734375 
Q 21.96875 47.46875 24.109375 47.828125 
Q 26.265625 48.1875 28.421875 48.1875 
Q 40.625 48.1875 47.75 41.5 
Q 54.890625 34.8125 54.890625 23.390625 
Q 54.890625 11.625 47.5625 5.09375 
Q 40.234375 -1.421875 26.90625 -1.421875 
Q 22.3125 -1.421875 17.546875 -0.640625 
Q 12.796875 0.140625 7.71875 1.703125 
L 7.71875 11.625 
Q 12.109375 9.234375 16.796875 8.0625 
Q 21.484375 6.890625 26.703125 6.890625 
Q 35.15625 6.890625 40.078125 11.328125 
Q 45.015625 15.765625 45.015625 23.390625 
Q 45.015625 31 40.078125 35.4375 
Q 35.15625 39.890625 26.703125 39.890625 
Q 22.75 39.890625 18.8125 39.015625 
Q 14.890625 38.140625 10.796875 36.28125 
z
" id="BitstreamVeraSans-Roman-35"/>
      </defs>
      <g transform="translate(147.045 381.859875)scale(0.12 -0.12)">
       <use xlink:href="#BitstreamVeraSans-Roman-35"/>
       <use x="63.623046875" xlink:href="#BitstreamVeraSans-Roman-30"/>
       <use x="127.24609375" xlink:href="#BitstreamVeraSans-Roman-30"/>
      </g>
     </g>
    </g>
    <g id="xtick_3">
     <g id="line2d_6">
      <g>
       <use style="stroke:#000000;stroke-width:0.5;" x="270.0975" xlink:href="#m5f8abe58b3" y="368.74175"/>
      </g>
     </g>
     <g id="line2d_7">
      <g>
       <use style="stroke:#000000;stroke-width:0.5;" x="270.0975" xlink:href="#mc0c00a57ed" y="23.14175"/>
      </g>
     </g>
     <g id="text_3">
      <!-- 1000 -->
      <defs>
       <path d="M 12.40625 8.296875 
L 28.515625 8.296875 
L 28.515625 63.921875 
L 10.984375 60.40625 
L 10.984375 69.390625 
L 28.421875 72.90625 
L 38.28125 72.90625 
L 38.28125 8.296875 
L 54.390625 8.296875 
L 54.390625 0 
L 12.40625 0 
z
" id="BitstreamVeraSans-Roman-31"/>
      </defs>
      <g transform="translate(254.8275 381.859875)scale(0.12 -0.12)">
       <use xlink:href="#BitstreamVeraSans-Roman-31"/>
       <use x="63.623046875" xlink:href="#BitstreamVeraSans-Roman-30"/>
       <use x="127.24609375" xlink:href="#BitstreamVeraSans-Roman-30"/>
       <use x="190.869140625" xlink:href="#BitstreamVeraSans-Roman-30"/>
      </g>
     </g>
    </g>
    <g id="xtick_4">
     <g id="line2d_8">
      <g>
       <use style="stroke:#000000;stroke-width:0.5;" x="381.6975" xlink:href="#m5f8abe58b3" y="368.74175"/>
      </g>
     </g>
     <g id="line2d_9">
      <g>
       <use style="stroke:#000000;stroke-width:0.5;" x="381.6975" xlink:href="#mc0c00a57ed" y="23.14175"/>
      </g>
     </g>
     <g id="text_4">
      <!-- 1500 -->
      <g transform="translate(366.4275 381.859875)scale(0.12 -0.12)">
       <use xlink:href="#BitstreamVeraSans-Roman-31"/>
       <use x="63.623046875" xlink:href="#BitstreamVeraSans-Roman-35"/>
       <use x="127.24609375" xlink:href="#BitstreamVeraSans-Roman-30"/>
       <use x="190.869140625" xlink:href="#BitstreamVeraSans-Roman-30"/>
      </g>
     </g>
    </g>
    <g id="xtick_5">
     <g id="line2d_10">
      <g>
       <use style="stroke:#000000;stroke-width:0.5;" x="493.2975" xlink:href="#m5f8abe58b3" y="368.74175"/>
      </g>
     </g>
     <g id="line2d_11">
      <g>
       <use style="stroke:#000000;stroke-width:0.5;" x="493.2975" xlink:href="#mc0c00a57ed" y="23.14175"/>
      </g>
     </g>
     <g id="text_5">
      <!-- 2000 -->
      <defs>
       <path d="M 19.1875 8.296875 
L 53.609375 8.296875 
L 53.609375 0 
L 7.328125 0 
L 7.328125 8.296875 
Q 12.9375 14.109375 22.625 23.890625 
Q 32.328125 33.6875 34.8125 36.53125 
Q 39.546875 41.84375 41.421875 45.53125 
Q 43.3125 49.21875 43.3125 52.78125 
Q 43.3125 58.59375 39.234375 62.25 
Q 35.15625 65.921875 28.609375 65.921875 
Q 23.96875 65.921875 18.8125 64.3125 
Q 13.671875 62.703125 7.8125 59.421875 
L 7.8125 69.390625 
Q 13.765625 71.78125 18.9375 73 
Q 24.125 74.21875 28.421875 74.21875 
Q 39.75 74.21875 46.484375 68.546875 
Q 53.21875 62.890625 53.21875 53.421875 
Q 53.21875 48.921875 51.53125 44.890625 
Q 49.859375 40.875 45.40625 35.40625 
Q 44.1875 33.984375 37.640625 27.21875 
Q 31.109375 20.453125 19.1875 8.296875 
" id="BitstreamVeraSans-Roman-32"/>
      </defs>
      <g transform="translate(478.0275 381.859875)scale(0.12 -0.12)">
       <use xlink:href="#BitstreamVeraSans-Roman-32"/>
       <use x="63.623046875" xlink:href="#BitstreamVeraSans-Roman-30"/>
       <use x="127.24609375" xlink:href="#BitstreamVeraSans-Roman-30"/>
       <use x="190.869140625" xlink:href="#BitstreamVeraSans-Roman-30"/>
      </g>
     </g>
    </g>
    <g id="text_6">
     <!-- episode -->
     <defs>
      <path d="M 56.203125 29.59375 
L 56.203125 25.203125 
L 14.890625 25.203125 
Q 15.484375 15.921875 20.484375 11.0625 
Q 25.484375 6.203125 34.421875 6.203125 
Q 39.59375 6.203125 44.453125 7.46875 
Q 49.3125 8.734375 54.109375 11.28125 
L 54.109375 2.78125 
Q 49.265625 0.734375 44.1875 -0.34375 
Q 39.109375 -1.421875 33.890625 -1.421875 
Q 20.796875 -1.421875 13.15625 6.1875 
Q 5.515625 13.8125 5.515625 26.8125 
Q 5.515625 40.234375 12.765625 48.109375 
Q 20.015625 56 32.328125 56 
Q 43.359375 56 49.78125 48.890625 
Q 56.203125 41.796875 56.203125 29.59375 
M 47.21875 32.234375 
Q 47.125 39.59375 43.09375 43.984375 
Q 39.0625 48.390625 32.421875 48.390625 
Q 24.90625 48.390625 20.390625 44.140625 
Q 15.875 39.890625 15.1875 32.171875 
z
" id="BitstreamVeraSans-Roman-65"/>
      <path d="M 45.40625 46.390625 
L 45.40625 75.984375 
L 54.390625 75.984375 
L 54.390625 0 
L 45.40625 0 
L 45.40625 8.203125 
Q 42.578125 3.328125 38.25 0.953125 
Q 33.9375 -1.421875 27.875 -1.421875 
Q 17.96875 -1.421875 11.734375 6.484375 
Q 5.515625 14.40625 5.515625 27.296875 
Q 5.515625 40.1875 11.734375 48.09375 
Q 17.96875 56 27.875 56 
Q 33.9375 56 38.25 53.625 
Q 42.578125 51.265625 45.40625 46.390625 
M 14.796875 27.296875 
Q 14.796875 17.390625 18.875 11.75 
Q 22.953125 6.109375 30.078125 6.109375 
Q 37.203125 6.109375 41.296875 11.75 
Q 45.40625 17.390625 45.40625 27.296875 
Q 45.40625 37.203125 41.296875 42.84375 
Q 37.203125 48.484375 30.078125 48.484375 
Q 22.953125 48.484375 18.875 42.84375 
Q 14.796875 37.203125 14.796875 27.296875 
" id="BitstreamVeraSans-Roman-64"/>
      <path d="M 9.421875 54.6875 
L 18.40625 54.6875 
L 18.40625 0 
L 9.421875 0 
z
M 9.421875 75.984375 
L 18.40625 75.984375 
L 18.40625 64.59375 
L 9.421875 64.59375 
z
" id="BitstreamVeraSans-Roman-69"/>
      <path d="M 30.609375 48.390625 
Q 23.390625 48.390625 19.1875 42.75 
Q 14.984375 37.109375 14.984375 27.296875 
Q 14.984375 17.484375 19.15625 11.84375 
Q 23.34375 6.203125 30.609375 6.203125 
Q 37.796875 6.203125 41.984375 11.859375 
Q 46.1875 17.53125 46.1875 27.296875 
Q 46.1875 37.015625 41.984375 42.703125 
Q 37.796875 48.390625 30.609375 48.390625 
M 30.609375 56 
Q 42.328125 56 49.015625 48.375 
Q 55.71875 40.765625 55.71875 27.296875 
Q 55.71875 13.875 49.015625 6.21875 
Q 42.328125 -1.421875 30.609375 -1.421875 
Q 18.84375 -1.421875 12.171875 6.21875 
Q 5.515625 13.875 5.515625 27.296875 
Q 5.515625 40.765625 12.171875 48.375 
Q 18.84375 56 30.609375 56 
" id="BitstreamVeraSans-Roman-6f"/>
      <path d="M 44.28125 53.078125 
L 44.28125 44.578125 
Q 40.484375 46.53125 36.375 47.5 
Q 32.28125 48.484375 27.875 48.484375 
Q 21.1875 48.484375 17.84375 46.4375 
Q 14.5 44.390625 14.5 40.28125 
Q 14.5 37.15625 16.890625 35.375 
Q 19.28125 33.59375 26.515625 31.984375 
L 29.59375 31.296875 
Q 39.15625 29.25 43.1875 25.515625 
Q 47.21875 21.78125 47.21875 15.09375 
Q 47.21875 7.46875 41.1875 3.015625 
Q 35.15625 -1.421875 24.609375 -1.421875 
Q 20.21875 -1.421875 15.453125 -0.5625 
Q 10.6875 0.296875 5.421875 2 
L 5.421875 11.28125 
Q 10.40625 8.6875 15.234375 7.390625 
Q 20.0625 6.109375 24.8125 6.109375 
Q 31.15625 6.109375 34.5625 8.28125 
Q 37.984375 10.453125 37.984375 14.40625 
Q 37.984375 18.0625 35.515625 20.015625 
Q 33.0625 21.96875 24.703125 23.78125 
L 21.578125 24.515625 
Q 13.234375 26.265625 9.515625 29.90625 
Q 5.8125 33.546875 5.8125 39.890625 
Q 5.8125 47.609375 11.28125 51.796875 
Q 16.75 56 26.8125 56 
Q 31.78125 56 36.171875 55.265625 
Q 40.578125 54.546875 44.28125 53.078125 
" id="BitstreamVeraSans-Roman-73"/>
      <path d="M 18.109375 8.203125 
L 18.109375 -20.796875 
L 9.078125 -20.796875 
L 9.078125 54.6875 
L 18.109375 54.6875 
L 18.109375 46.390625 
Q 20.953125 51.265625 25.265625 53.625 
Q 29.59375 56 35.59375 56 
Q 45.5625 56 51.78125 48.09375 
Q 58.015625 40.1875 58.015625 27.296875 
Q 58.015625 14.40625 51.78125 6.484375 
Q 45.5625 -1.421875 35.59375 -1.421875 
Q 29.59375 -1.421875 25.265625 0.953125 
Q 20.953125 3.328125 18.109375 8.203125 
M 48.6875 27.296875 
Q 48.6875 37.203125 44.609375 42.84375 
Q 40.53125 48.484375 33.40625 48.484375 
Q 26.265625 48.484375 22.1875 42.84375 
Q 18.109375 37.203125 18.109375 27.296875 
Q 18.109375 17.390625 22.1875 11.75 
Q 26.265625 6.109375 33.40625 6.109375 
Q 40.53125 6.109375 44.609375 11.75 
Q 48.6875 17.390625 48.6875 27.296875 
" id="BitstreamVeraSans-Roman-70"/>
     </defs>
     <g transform="translate(246.631875 398.473625)scale(0.12 -0.12)">
      <use xlink:href="#BitstreamVeraSans-Roman-65"/>
      <use x="61.5234375" xlink:href="#BitstreamVeraSans-Roman-70"/>
      <use x="125.0" xlink:href="#BitstreamVeraSans-Roman-69"/>
      <use x="152.783203125" xlink:href="#BitstreamVeraSans-Roman-73"/>
      <use x="204.8828125" xlink:href="#BitstreamVeraSans-Roman-6f"/>
      <use x="266.064453125" xlink:href="#BitstreamVeraSans-Roman-64"/>
      <use x="329.541015625" xlink:href="#BitstreamVeraSans-Roman-65"/>
     </g>
    </g>
   </g>
   <g id="matplotlib.axis_2">
    <g id="ytick_1">
     <g id="line2d_12">
      <defs>
       <path d="M 0 0 
L 4 0 
" id="ma62f9196db" style="stroke:#000000;stroke-width:0.5;"/>
      </defs>
      <g>
       <use style="stroke:#000000;stroke-width:0.5;" x="46.8975" xlink:href="#ma62f9196db" y="368.74175"/>
      </g>
     </g>
     <g id="line2d_13">
      <defs>
       <path d="M 0 0 
L -4 0 
" id="m373bcda71b" style="stroke:#000000;stroke-width:0.5;"/>
      </defs>
      <g>
       <use style="stroke:#000000;stroke-width:0.5;" x="493.2975" xlink:href="#m373bcda71b" y="368.74175"/>
      </g>
     </g>
     <g id="text_7">
      <!-- 0.0 -->
      <defs>
       <path d="M 10.6875 12.40625 
L 21 12.40625 
L 21 0 
L 10.6875 0 
z
" id="BitstreamVeraSans-Roman-2e"/>
      </defs>
      <g transform="translate(23.81375 372.053)scale(0.12 -0.12)">
       <use xlink:href="#BitstreamVeraSans-Roman-30"/>
       <use x="63.623046875" xlink:href="#BitstreamVeraSans-Roman-2e"/>
       <use x="95.41015625" xlink:href="#BitstreamVeraSans-Roman-30"/>
      </g>
     </g>
    </g>
    <g id="ytick_2">
     <g id="line2d_14">
      <g>
       <use style="stroke:#000000;stroke-width:0.5;" x="46.8975" xlink:href="#ma62f9196db" y="319.370321429"/>
      </g>
     </g>
     <g id="line2d_15">
      <g>
       <use style="stroke:#000000;stroke-width:0.5;" x="493.2975" xlink:href="#m373bcda71b" y="319.370321429"/>
      </g>
     </g>
     <g id="text_8">
      <!-- 0.2 -->
      <g transform="translate(23.81375 322.681571429)scale(0.12 -0.12)">
       <use xlink:href="#BitstreamVeraSans-Roman-30"/>
       <use x="63.623046875" xlink:href="#BitstreamVeraSans-Roman-2e"/>
       <use x="95.41015625" xlink:href="#BitstreamVeraSans-Roman-32"/>
      </g>
     </g>
    </g>
    <g id="ytick_3">
     <g id="line2d_16">
      <g>
       <use style="stroke:#000000;stroke-width:0.5;" x="46.8975" xlink:href="#ma62f9196db" y="269.998892857"/>
      </g>
     </g>
     <g id="line2d_17">
      <g>
       <use style="stroke:#000000;stroke-width:0.5;" x="493.2975" xlink:href="#m373bcda71b" y="269.998892857"/>
      </g>
     </g>
     <g id="text_9">
      <!-- 0.4 -->
      <defs>
       <path d="M 37.796875 64.3125 
L 12.890625 25.390625 
L 37.796875 25.390625 
z
M 35.203125 72.90625 
L 47.609375 72.90625 
L 47.609375 25.390625 
L 58.015625 25.390625 
L 58.015625 17.1875 
L 47.609375 17.1875 
L 47.609375 0 
L 37.796875 0 
L 37.796875 17.1875 
L 4.890625 17.1875 
L 4.890625 26.703125 
z
" id="BitstreamVeraSans-Roman-34"/>
      </defs>
      <g transform="translate(23.81375 273.310142857)scale(0.12 -0.12)">
       <use xlink:href="#BitstreamVeraSans-Roman-30"/>
       <use x="63.623046875" xlink:href="#BitstreamVeraSans-Roman-2e"/>
       <use x="95.41015625" xlink:href="#BitstreamVeraSans-Roman-34"/>
      </g>
     </g>
    </g>
    <g id="ytick_4">
     <g id="line2d_18">
      <g>
       <use style="stroke:#000000;stroke-width:0.5;" x="46.8975" xlink:href="#ma62f9196db" y="220.627464286"/>
      </g>
     </g>
     <g id="line2d_19">
      <g>
       <use style="stroke:#000000;stroke-width:0.5;" x="493.2975" xlink:href="#m373bcda71b" y="220.627464286"/>
      </g>
     </g>
     <g id="text_10">
      <!-- 0.6 -->
      <defs>
       <path d="M 33.015625 40.375 
Q 26.375 40.375 22.484375 35.828125 
Q 18.609375 31.296875 18.609375 23.390625 
Q 18.609375 15.53125 22.484375 10.953125 
Q 26.375 6.390625 33.015625 6.390625 
Q 39.65625 6.390625 43.53125 10.953125 
Q 47.40625 15.53125 47.40625 23.390625 
Q 47.40625 31.296875 43.53125 35.828125 
Q 39.65625 40.375 33.015625 40.375 
M 52.59375 71.296875 
L 52.59375 62.3125 
Q 48.875 64.0625 45.09375 64.984375 
Q 41.3125 65.921875 37.59375 65.921875 
Q 27.828125 65.921875 22.671875 59.328125 
Q 17.53125 52.734375 16.796875 39.40625 
Q 19.671875 43.65625 24.015625 45.921875 
Q 28.375 48.1875 33.59375 48.1875 
Q 44.578125 48.1875 50.953125 41.515625 
Q 57.328125 34.859375 57.328125 23.390625 
Q 57.328125 12.15625 50.6875 5.359375 
Q 44.046875 -1.421875 33.015625 -1.421875 
Q 20.359375 -1.421875 13.671875 8.265625 
Q 6.984375 17.96875 6.984375 36.375 
Q 6.984375 53.65625 15.1875 63.9375 
Q 23.390625 74.21875 37.203125 74.21875 
Q 40.921875 74.21875 44.703125 73.484375 
Q 48.484375 72.75 52.59375 71.296875 
" id="BitstreamVeraSans-Roman-36"/>
      </defs>
      <g transform="translate(23.81375 223.938714286)scale(0.12 -0.12)">
       <use xlink:href="#BitstreamVeraSans-Roman-30"/>
       <use x="63.623046875" xlink:href="#BitstreamVeraSans-Roman-2e"/>
       <use x="95.41015625" xlink:href="#BitstreamVeraSans-Roman-36"/>
      </g>
     </g>
    </g>
    <g id="ytick_5">
     <g id="line2d_20">
      <g>
       <use style="stroke:#000000;stroke-width:0.5;" x="46.8975" xlink:href="#ma62f9196db" y="171.256035714"/>
      </g>
     </g>
     <g id="line2d_21">
      <g>
       <use style="stroke:#000000;stroke-width:0.5;" x="493.2975" xlink:href="#m373bcda71b" y="171.256035714"/>
      </g>
     </g>
     <g id="text_11">
      <!-- 0.8 -->
      <defs>
       <path d="M 31.78125 34.625 
Q 24.75 34.625 20.71875 30.859375 
Q 16.703125 27.09375 16.703125 20.515625 
Q 16.703125 13.921875 20.71875 10.15625 
Q 24.75 6.390625 31.78125 6.390625 
Q 38.8125 6.390625 42.859375 10.171875 
Q 46.921875 13.96875 46.921875 20.515625 
Q 46.921875 27.09375 42.890625 30.859375 
Q 38.875 34.625 31.78125 34.625 
M 21.921875 38.8125 
Q 15.578125 40.375 12.03125 44.71875 
Q 8.5 49.078125 8.5 55.328125 
Q 8.5 64.0625 14.71875 69.140625 
Q 20.953125 74.21875 31.78125 74.21875 
Q 42.671875 74.21875 48.875 69.140625 
Q 55.078125 64.0625 55.078125 55.328125 
Q 55.078125 49.078125 51.53125 44.71875 
Q 48 40.375 41.703125 38.8125 
Q 48.828125 37.15625 52.796875 32.3125 
Q 56.78125 27.484375 56.78125 20.515625 
Q 56.78125 9.90625 50.3125 4.234375 
Q 43.84375 -1.421875 31.78125 -1.421875 
Q 19.734375 -1.421875 13.25 4.234375 
Q 6.78125 9.90625 6.78125 20.515625 
Q 6.78125 27.484375 10.78125 32.3125 
Q 14.796875 37.15625 21.921875 38.8125 
M 18.3125 54.390625 
Q 18.3125 48.734375 21.84375 45.5625 
Q 25.390625 42.390625 31.78125 42.390625 
Q 38.140625 42.390625 41.71875 45.5625 
Q 45.3125 48.734375 45.3125 54.390625 
Q 45.3125 60.0625 41.71875 63.234375 
Q 38.140625 66.40625 31.78125 66.40625 
Q 25.390625 66.40625 21.84375 63.234375 
Q 18.3125 60.0625 18.3125 54.390625 
" id="BitstreamVeraSans-Roman-38"/>
      </defs>
      <g transform="translate(23.81375 174.567285714)scale(0.12 -0.12)">
       <use xlink:href="#BitstreamVeraSans-Roman-30"/>
       <use x="63.623046875" xlink:href="#BitstreamVeraSans-Roman-2e"/>
       <use x="95.41015625" xlink:href="#BitstreamVeraSans-Roman-38"/>
      </g>
     </g>
    </g>
    <g id="ytick_6">
     <g id="line2d_22">
      <g>
       <use style="stroke:#000000;stroke-width:0.5;" x="46.8975" xlink:href="#ma62f9196db" y="121.884607143"/>
      </g>
     </g>
     <g id="line2d_23">
      <g>
       <use style="stroke:#000000;stroke-width:0.5;" x="493.2975" xlink:href="#m373bcda71b" y="121.884607143"/>
      </g>
     </g>
     <g id="text_12">
      <!-- 1.0 -->
      <g transform="translate(23.81375 125.195857143)scale(0.12 -0.12)">
       <use xlink:href="#BitstreamVeraSans-Roman-31"/>
       <use x="63.623046875" xlink:href="#BitstreamVeraSans-Roman-2e"/>
       <use x="95.41015625" xlink:href="#BitstreamVeraSans-Roman-30"/>
      </g>
     </g>
    </g>
    <g id="ytick_7">
     <g id="line2d_24">
      <g>
       <use style="stroke:#000000;stroke-width:0.5;" x="46.8975" xlink:href="#ma62f9196db" y="72.5131785714"/>
      </g>
     </g>
     <g id="line2d_25">
      <g>
       <use style="stroke:#000000;stroke-width:0.5;" x="493.2975" xlink:href="#m373bcda71b" y="72.5131785714"/>
      </g>
     </g>
     <g id="text_13">
      <!-- 1.2 -->
      <g transform="translate(23.81375 75.8244285714)scale(0.12 -0.12)">
       <use xlink:href="#BitstreamVeraSans-Roman-31"/>
       <use x="63.623046875" xlink:href="#BitstreamVeraSans-Roman-2e"/>
       <use x="95.41015625" xlink:href="#BitstreamVeraSans-Roman-32"/>
      </g>
     </g>
    </g>
    <g id="ytick_8">
     <g id="line2d_26">
      <g>
       <use style="stroke:#000000;stroke-width:0.5;" x="46.8975" xlink:href="#ma62f9196db" y="23.14175"/>
      </g>
     </g>
     <g id="line2d_27">
      <g>
       <use style="stroke:#000000;stroke-width:0.5;" x="493.2975" xlink:href="#m373bcda71b" y="23.14175"/>
      </g>
     </g>
     <g id="text_14">
      <!-- 1.4 -->
      <g transform="translate(23.81375 26.453)scale(0.12 -0.12)">
       <use xlink:href="#BitstreamVeraSans-Roman-31"/>
       <use x="63.623046875" xlink:href="#BitstreamVeraSans-Roman-2e"/>
       <use x="95.41015625" xlink:href="#BitstreamVeraSans-Roman-34"/>
      </g>
     </g>
    </g>
    <g id="text_15">
     <!-- average maxQ -->
     <defs>
      <path d="M 2.984375 54.6875 
L 12.5 54.6875 
L 29.59375 8.796875 
L 46.6875 54.6875 
L 56.203125 54.6875 
L 35.6875 0 
L 23.484375 0 
z
" id="BitstreamVeraSans-Roman-76"/>
      <path d="M 41.109375 46.296875 
Q 39.59375 47.171875 37.8125 47.578125 
Q 36.03125 48 33.890625 48 
Q 26.265625 48 22.1875 43.046875 
Q 18.109375 38.09375 18.109375 28.8125 
L 18.109375 0 
L 9.078125 0 
L 9.078125 54.6875 
L 18.109375 54.6875 
L 18.109375 46.1875 
Q 20.953125 51.171875 25.484375 53.578125 
Q 30.03125 56 36.53125 56 
Q 37.453125 56 38.578125 55.875 
Q 39.703125 55.765625 41.0625 55.515625 
z
" id="BitstreamVeraSans-Roman-72"/>
      <path d="M 52 44.1875 
Q 55.375 50.25 60.0625 53.125 
Q 64.75 56 71.09375 56 
Q 79.640625 56 84.28125 50.015625 
Q 88.921875 44.046875 88.921875 33.015625 
L 88.921875 0 
L 79.890625 0 
L 79.890625 32.71875 
Q 79.890625 40.578125 77.09375 44.375 
Q 74.3125 48.1875 68.609375 48.1875 
Q 61.625 48.1875 57.5625 43.546875 
Q 53.515625 38.921875 53.515625 30.90625 
L 53.515625 0 
L 44.484375 0 
L 44.484375 32.71875 
Q 44.484375 40.625 41.703125 44.40625 
Q 38.921875 48.1875 33.109375 48.1875 
Q 26.21875 48.1875 22.15625 43.53125 
Q 18.109375 38.875 18.109375 30.90625 
L 18.109375 0 
L 9.078125 0 
L 9.078125 54.6875 
L 18.109375 54.6875 
L 18.109375 46.1875 
Q 21.1875 51.21875 25.484375 53.609375 
Q 29.78125 56 35.6875 56 
Q 41.65625 56 45.828125 52.96875 
Q 50 49.953125 52 44.1875 
" id="BitstreamVeraSans-Roman-6d"/>
      <path d="M 39.40625 66.21875 
Q 28.65625 66.21875 22.328125 58.203125 
Q 16.015625 50.203125 16.015625 36.375 
Q 16.015625 22.609375 22.328125 14.59375 
Q 28.65625 6.59375 39.40625 6.59375 
Q 50.140625 6.59375 56.421875 14.59375 
Q 62.703125 22.609375 62.703125 36.375 
Q 62.703125 50.203125 56.421875 58.203125 
Q 50.140625 66.21875 39.40625 66.21875 
M 53.21875 1.3125 
L 66.21875 -12.890625 
L 54.296875 -12.890625 
L 43.5 -1.21875 
Q 41.890625 -1.3125 41.03125 -1.359375 
Q 40.1875 -1.421875 39.40625 -1.421875 
Q 24.03125 -1.421875 14.8125 8.859375 
Q 5.609375 19.140625 5.609375 36.375 
Q 5.609375 53.65625 14.8125 63.9375 
Q 24.03125 74.21875 39.40625 74.21875 
Q 54.734375 74.21875 63.90625 63.9375 
Q 73.09375 53.65625 73.09375 36.375 
Q 73.09375 23.6875 67.984375 14.640625 
Q 62.890625 5.609375 53.21875 1.3125 
" id="BitstreamVeraSans-Roman-51"/>
      <path d="M 54.890625 54.6875 
L 35.109375 28.078125 
L 55.90625 0 
L 45.3125 0 
L 29.390625 21.484375 
L 13.484375 0 
L 2.875 0 
L 24.125 28.609375 
L 4.6875 54.6875 
L 15.28125 54.6875 
L 29.78125 35.203125 
L 44.28125 54.6875 
z
" id="BitstreamVeraSans-Roman-78"/>
      <path d="M 34.28125 27.484375 
Q 23.390625 27.484375 19.1875 25 
Q 14.984375 22.515625 14.984375 16.5 
Q 14.984375 11.71875 18.140625 8.90625 
Q 21.296875 6.109375 26.703125 6.109375 
Q 34.1875 6.109375 38.703125 11.40625 
Q 43.21875 16.703125 43.21875 25.484375 
L 43.21875 27.484375 
z
M 52.203125 31.203125 
L 52.203125 0 
L 43.21875 0 
L 43.21875 8.296875 
Q 40.140625 3.328125 35.546875 0.953125 
Q 30.953125 -1.421875 24.3125 -1.421875 
Q 15.921875 -1.421875 10.953125 3.296875 
Q 6 8.015625 6 15.921875 
Q 6 25.140625 12.171875 29.828125 
Q 18.359375 34.515625 30.609375 34.515625 
L 43.21875 34.515625 
L 43.21875 35.40625 
Q 43.21875 41.609375 39.140625 45 
Q 35.0625 48.390625 27.6875 48.390625 
Q 23 48.390625 18.546875 47.265625 
Q 14.109375 46.140625 10.015625 43.890625 
L 10.015625 52.203125 
Q 14.9375 54.109375 19.578125 55.046875 
Q 24.21875 56 28.609375 56 
Q 40.484375 56 46.34375 49.84375 
Q 52.203125 43.703125 52.203125 31.203125 
" id="BitstreamVeraSans-Roman-61"/>
      <path id="BitstreamVeraSans-Roman-20"/>
      <path d="M 45.40625 27.984375 
Q 45.40625 37.75 41.375 43.109375 
Q 37.359375 48.484375 30.078125 48.484375 
Q 22.859375 48.484375 18.828125 43.109375 
Q 14.796875 37.75 14.796875 27.984375 
Q 14.796875 18.265625 18.828125 12.890625 
Q 22.859375 7.515625 30.078125 7.515625 
Q 37.359375 7.515625 41.375 12.890625 
Q 45.40625 18.265625 45.40625 27.984375 
M 54.390625 6.78125 
Q 54.390625 -7.171875 48.1875 -13.984375 
Q 42 -20.796875 29.203125 -20.796875 
Q 24.46875 -20.796875 20.265625 -20.09375 
Q 16.0625 -19.390625 12.109375 -17.921875 
L 12.109375 -9.1875 
Q 16.0625 -11.328125 19.921875 -12.34375 
Q 23.78125 -13.375 27.78125 -13.375 
Q 36.625 -13.375 41.015625 -8.765625 
Q 45.40625 -4.15625 45.40625 5.171875 
L 45.40625 9.625 
Q 42.625 4.78125 38.28125 2.390625 
Q 33.9375 0 27.875 0 
Q 17.828125 0 11.671875 7.65625 
Q 5.515625 15.328125 5.515625 27.984375 
Q 5.515625 40.671875 11.671875 48.328125 
Q 17.828125 56 27.875 56 
Q 33.9375 56 38.28125 53.609375 
Q 42.625 51.21875 45.40625 46.390625 
L 45.40625 54.6875 
L 54.390625 54.6875 
z
" id="BitstreamVeraSans-Roman-67"/>
     </defs>
     <g transform="translate(16.318125 240.208625)rotate(-90.0)scale(0.12 -0.12)">
      <use xlink:href="#BitstreamVeraSans-Roman-61"/>
      <use x="61.279296875" xlink:href="#BitstreamVeraSans-Roman-76"/>
      <use x="120.458984375" xlink:href="#BitstreamVeraSans-Roman-65"/>
      <use x="181.982421875" xlink:href="#BitstreamVeraSans-Roman-72"/>
      <use x="223.095703125" xlink:href="#BitstreamVeraSans-Roman-61"/>
      <use x="284.375" xlink:href="#BitstreamVeraSans-Roman-67"/>
      <use x="347.8515625" xlink:href="#BitstreamVeraSans-Roman-65"/>
      <use x="409.375" xlink:href="#BitstreamVeraSans-Roman-20"/>
      <use x="441.162109375" xlink:href="#BitstreamVeraSans-Roman-6d"/>
      <use x="538.57421875" xlink:href="#BitstreamVeraSans-Roman-61"/>
      <use x="599.853515625" xlink:href="#BitstreamVeraSans-Roman-78"/>
      <use x="659.033203125" xlink:href="#BitstreamVeraSans-Roman-51"/>
     </g>
    </g>
   </g>
   <g id="text_16">
    <!-- Average maxQ per episode, joint 2 -->
    <defs>
     <path d="M 54.890625 33.015625 
L 54.890625 0 
L 45.90625 0 
L 45.90625 32.71875 
Q 45.90625 40.484375 42.875 44.328125 
Q 39.84375 48.1875 33.796875 48.1875 
Q 26.515625 48.1875 22.3125 43.546875 
Q 18.109375 38.921875 18.109375 30.90625 
L 18.109375 0 
L 9.078125 0 
L 9.078125 54.6875 
L 18.109375 54.6875 
L 18.109375 46.1875 
Q 21.34375 51.125 25.703125 53.5625 
Q 30.078125 56 35.796875 56 
Q 45.21875 56 50.046875 50.171875 
Q 54.890625 44.34375 54.890625 33.015625 
" id="BitstreamVeraSans-Roman-6e"/>
     <path d="M 9.421875 54.6875 
L 18.40625 54.6875 
L 18.40625 -0.984375 
Q 18.40625 -11.421875 14.421875 -16.109375 
Q 10.453125 -20.796875 1.609375 -20.796875 
L -1.8125 -20.796875 
L -1.8125 -13.1875 
L 0.59375 -13.1875 
Q 5.71875 -13.1875 7.5625 -10.8125 
Q 9.421875 -8.453125 9.421875 -0.984375 
z
M 9.421875 75.984375 
L 18.40625 75.984375 
L 18.40625 64.59375 
L 9.421875 64.59375 
z
" id="BitstreamVeraSans-Roman-6a"/>
     <path d="M 34.1875 63.1875 
L 20.796875 26.90625 
L 47.609375 26.90625 
z
M 28.609375 72.90625 
L 39.796875 72.90625 
L 67.578125 0 
L 57.328125 0 
L 50.6875 18.703125 
L 17.828125 18.703125 
L 11.1875 0 
L 0.78125 0 
z
" id="BitstreamVeraSans-Roman-41"/>
     <path d="M 18.3125 70.21875 
L 18.3125 54.6875 
L 36.8125 54.6875 
L 36.8125 47.703125 
L 18.3125 47.703125 
L 18.3125 18.015625 
Q 18.3125 11.328125 20.140625 9.421875 
Q 21.96875 7.515625 27.59375 7.515625 
L 36.8125 7.515625 
L 36.8125 0 
L 27.59375 0 
Q 17.1875 0 13.234375 3.875 
Q 9.28125 7.765625 9.28125 18.015625 
L 9.28125 47.703125 
L 2.6875 47.703125 
L 2.6875 54.6875 
L 9.28125 54.6875 
L 9.28125 70.21875 
z
" id="BitstreamVeraSans-Roman-74"/>
     <path d="M 11.71875 12.40625 
L 22.015625 12.40625 
L 22.015625 4 
L 14.015625 -11.625 
L 7.71875 -11.625 
L 11.71875 4 
z
" id="BitstreamVeraSans-Roman-2c"/>
    </defs>
    <g transform="translate(144.53625 18.14175)scale(0.144 -0.144)">
     <use xlink:href="#BitstreamVeraSans-Roman-41"/>
     <use x="68.330078125" xlink:href="#BitstreamVeraSans-Roman-76"/>
     <use x="127.509765625" xlink:href="#BitstreamVeraSans-Roman-65"/>
     <use x="189.033203125" xlink:href="#BitstreamVeraSans-Roman-72"/>
     <use x="230.146484375" xlink:href="#BitstreamVeraSans-Roman-61"/>
     <use x="291.42578125" xlink:href="#BitstreamVeraSans-Roman-67"/>
     <use x="354.90234375" xlink:href="#BitstreamVeraSans-Roman-65"/>
     <use x="416.42578125" xlink:href="#BitstreamVeraSans-Roman-20"/>
     <use x="448.212890625" xlink:href="#BitstreamVeraSans-Roman-6d"/>
     <use x="545.625" xlink:href="#BitstreamVeraSans-Roman-61"/>
     <use x="606.904296875" xlink:href="#BitstreamVeraSans-Roman-78"/>
     <use x="666.083984375" xlink:href="#BitstreamVeraSans-Roman-51"/>
     <use x="744.794921875" xlink:href="#BitstreamVeraSans-Roman-20"/>
     <use x="776.58203125" xlink:href="#BitstreamVeraSans-Roman-70"/>
     <use x="840.05859375" xlink:href="#BitstreamVeraSans-Roman-65"/>
     <use x="901.58203125" xlink:href="#BitstreamVeraSans-Roman-72"/>
     <use x="942.6953125" xlink:href="#BitstreamVeraSans-Roman-20"/>
     <use x="974.482421875" xlink:href="#BitstreamVeraSans-Roman-65"/>
     <use x="1036.005859375" xlink:href="#BitstreamVeraSans-Roman-70"/>
     <use x="1099.482421875" xlink:href="#BitstreamVeraSans-Roman-69"/>
     <use x="1127.265625" xlink:href="#BitstreamVeraSans-Roman-73"/>
     <use x="1179.365234375" xlink:href="#BitstreamVeraSans-Roman-6f"/>
     <use x="1240.546875" xlink:href="#BitstreamVeraSans-Roman-64"/>
     <use x="1304.0234375" xlink:href="#BitstreamVeraSans-Roman-65"/>
     <use x="1365.546875" xlink:href="#BitstreamVeraSans-Roman-2c"/>
     <use x="1397.333984375" xlink:href="#BitstreamVeraSans-Roman-20"/>
     <use x="1429.12109375" xlink:href="#BitstreamVeraSans-Roman-6a"/>
     <use x="1456.904296875" xlink:href="#BitstreamVeraSans-Roman-6f"/>
     <use x="1518.0859375" xlink:href="#BitstreamVeraSans-Roman-69"/>
     <use x="1545.869140625" xlink:href="#BitstreamVeraSans-Roman-6e"/>
     <use x="1609.248046875" xlink:href="#BitstreamVeraSans-Roman-74"/>
     <use x="1648.45703125" xlink:href="#BitstreamVeraSans-Roman-20"/>
     <use x="1680.244140625" xlink:href="#BitstreamVeraSans-Roman-32"/>
    </g>
   </g>
  </g>
 </g>
 <defs>
  <clipPath id="pac2b0ed3ec">
   <rect height="345.6" width="446.4" x="46.8975" y="23.14175"/>
  </clipPath>
 </defs>
</svg>
