<?xml version="1.0" encoding="utf-8" standalone="no"?>
<!DOCTYPE svg PUBLIC "-//W3C//DTD SVG 1.1//EN"
  "http://www.w3.org/Graphics/SVG/1.1/DTD/svg11.dtd">
<!-- Created with matplotlib (http://matplotlib.org/) -->
<svg height="408pt" version="1.1" viewBox="0 0 523 408" width="523pt" xmlns="http://www.w3.org/2000/svg" xmlns:xlink="http://www.w3.org/1999/xlink">
 <defs>
  <style type="text/css">
*{stroke-linecap:butt;stroke-linejoin:round;stroke-miterlimit:100000;}
  </style>
 </defs>
 <g id="figure_1">
  <g id="patch_1">
   <path d="M 0 408.16925 
L 523.4025 408.16925 
L 523.4025 0 
L 0 0 
z
" style="fill:#ffffff;"/>
  </g>
  <g id="axes_1">
   <g id="patch_2">
    <path d="M 54.5325 368.74175 
L 500.9325 368.74175 
L 500.9325 23.14175 
L 54.5325 23.14175 
z
" style="fill:#ffffff;"/>
   </g>
   <g id="line2d_1">
    <path clip-path="url(#p42ad2cdcf0)" d="M 54.7805 100.442753 
L 55.0285 101.791033 
L 55.2765 100.052977 
L 55.5245 101.377588 
L 55.7725 99.622146 
L 56.0205 101.455593 
L 56.2685 100.935701 
L 56.5165 99.315102 
L 56.7645 100.471798 
L 57.0125 100.170084 
L 57.2605 101.063839 
L 57.5085 102.606042 
L 57.7565 101.321383 
L 58.0045 100.853 
L 58.2525 102.191423 
L 58.5005 99.655038 
L 58.7485 101.686048 
L 58.9965 100.17905 
L 59.2445 102.535772 
L 59.4925 101.204378 
L 59.7405 99.083349 
L 59.9885 101.714784 
L 60.2365 100.783894 
L 60.4845 100.637731 
L 60.7325 100.810658 
L 60.9805 99.826842 
L 61.2285 101.36097 
L 61.4765 101.282919 
L 61.7245 101.679101 
L 61.9725 100.642247 
L 62.2205 102.121668 
L 62.4685 99.89294 
L 62.7165 101.47905 
L 62.9645 101.29 
L 63.2125 100.875046 
L 63.4605 100.045005 
L 63.7085 100.560566 
L 63.9565 101.760984 
L 64.2045 101.684369 
L 64.4525 100.797196 
L 64.7005 98.038678 
L 65.1965 103.141754 
L 65.4445 101.796801 
L 65.6925 103.590794 
L 65.9405 99.793821 
L 66.1885 101.299022 
L 66.4365 102.095914 
L 66.6845 101.30326 
L 66.9325 101.887912 
L 67.1805 85.878471 
L 67.6765 88.877342 
L 67.9245 89.432902 
L 68.1725 86.639283 
L 68.4205 85.58268 
L 68.6685 91.91664 
L 68.9165 88.748787 
L 69.1645 89.529441 
L 69.4125 87.491123 
L 69.6605 86.644551 
L 70.1565 86.058798 
L 70.4045 86.37059 
L 70.6525 88.922651 
L 70.9005 87.963724 
L 71.1485 86.45307 
L 71.3965 87.741514 
L 71.6445 86.223717 
L 71.8925 87.391119 
L 72.1405 91.018502 
L 72.3885 90.793634 
L 72.6365 89.460629 
L 72.8845 89.70743 
L 73.1325 87.673021 
L 73.3805 89.172372 
L 73.6285 86.665599 
L 73.8765 89.824836 
L 74.1245 85.83239 
L 74.3725 88.355684 
L 74.6205 87.72196 
L 74.8685 88.124018 
L 75.1165 88.839527 
L 75.3645 90.829688 
L 75.6125 45.020454 
L 76.1085 75.272723 
L 76.3565 115.940052 
L 76.6045 135.888276 
L 76.8525 55.0592 
L 77.1005 75.3501 
L 77.5965 160.734608 
L 77.8445 164.078768 
L 78.3405 87.52727 
L 78.5885 92.184143 
L 78.8365 153.241671 
L 79.0845 158.220707 
L 79.3325 125.60857 
L 79.5805 135.924619 
L 79.8285 161.195346 
L 80.0765 133.29271 
L 80.8205 168.940192 
L 81.0685 167.708646 
L 81.3165 144.442806 
L 81.8125 185.217164 
L 82.0605 184.447371 
L 82.3085 173.158618 
L 82.5565 181.444308 
L 82.8045 175.384665 
L 83.0525 179.640615 
L 83.3005 192.487538 
L 83.5485 187.167494 
L 83.7965 195.487204 
L 84.2925 199.801237 
L 84.5405 204.558737 
L 84.7885 193.178559 
L 85.0365 211.113579 
L 85.2845 206.218889 
L 85.5325 198.87278 
L 85.7805 178.151173 
L 86.0285 200.407898 
L 86.5245 211.734189 
L 86.7725 203.145837 
L 87.0205 200.071094 
L 87.2685 188.838919 
L 87.5165 208.717399 
L 87.7645 203.439445 
L 88.0125 200.900009 
L 88.5085 211.528334 
L 88.7565 212.827858 
L 89.0045 216.058117 
L 89.2525 210.124119 
L 89.5005 208.645726 
L 89.7485 223.412183 
L 89.9965 204.018722 
L 90.2445 228.382583 
L 90.4925 215.692813 
L 90.7405 216.240135 
L 90.9885 219.631216 
L 91.2365 220.319209 
L 91.4845 224.25661 
L 91.7325 224.145219 
L 91.9805 224.515621 
L 92.2285 214.856468 
L 92.4765 231.467951 
L 92.7245 229.135407 
L 92.9725 232.141885 
L 93.2205 232.878513 
L 93.4685 236.426767 
L 93.9645 232.115379 
L 94.2125 219.458876 
L 94.4605 234.592844 
L 94.7085 242.373492 
L 94.9565 230.872168 
L 95.4525 242.234503 
L 95.7005 229.534155 
L 95.9485 248.433431 
L 96.1965 245.150536 
L 96.4445 230.264551 
L 96.6925 248.856882 
L 96.9405 246.339614 
L 97.1885 251.628048 
L 97.4365 245.242435 
L 97.6845 246.413578 
L 98.1805 236.423527 
L 98.4285 247.492475 
L 98.6765 248.283547 
L 98.9245 254.085024 
L 99.1725 255.329898 
L 99.4205 244.060433 
L 99.6685 243.529088 
L 99.9165 265.69526 
L 100.1645 245.54163 
L 100.4125 265.832799 
L 100.6605 257.043756 
L 100.9085 261.078444 
L 101.1565 259.823269 
L 101.4045 251.511604 
L 101.6525 267.707567 
L 102.1485 248.026818 
L 102.3965 255.262082 
L 102.6445 258.386346 
L 102.8925 269.314114 
L 103.1405 257.294006 
L 103.3885 254.374659 
L 103.6365 249.735718 
L 104.1325 267.131461 
L 104.3805 268.839345 
L 104.6285 266.566621 
L 104.8765 265.683651 
L 105.1245 272.180943 
L 105.3725 266.970256 
L 105.6205 253.846355 
L 105.8685 268.671365 
L 106.1165 253.866032 
L 106.6125 279.837662 
L 106.8605 255.407302 
L 107.1085 262.838473 
L 107.8525 272.586843 
L 108.1005 274.852297 
L 108.3485 261.372438 
L 108.5965 274.160473 
L 108.8445 279.430928 
L 109.0925 261.068645 
L 109.3405 285.756025 
L 109.8365 270.654246 
L 110.0845 277.707645 
L 110.3325 277.513623 
L 110.5805 271.667183 
L 110.8285 271.003809 
L 111.0765 273.656393 
L 111.3245 272.348207 
L 111.5725 277.014481 
L 111.8205 272.496977 
L 112.0685 278.890827 
L 112.3165 275.864806 
L 112.5645 279.67612 
L 113.0605 268.808409 
L 113.5565 288.219514 
L 113.8045 288.785862 
L 114.0525 281.825558 
L 114.3005 280.852864 
L 114.5485 275.902218 
L 114.7965 286.644641 
L 115.0445 287.94314 
L 115.2925 275.806211 
L 115.5405 285.59849 
L 115.7885 268.345164 
L 116.2845 295.536547 
L 116.5325 276.981186 
L 116.7805 274.586289 
L 117.0285 284.000004 
L 117.2765 283.220653 
L 117.5245 287.037619 
L 117.7725 275.316607 
L 118.0205 294.910469 
L 118.7645 276.271972 
L 119.0125 284.491632 
L 119.2605 269.134555 
L 119.5085 287.865564 
L 119.7565 290.203266 
L 120.0045 287.288411 
L 120.2525 282.17978 
L 120.5005 296.629537 
L 120.7485 277.573641 
L 120.9965 288.897942 
L 121.2445 292.474029 
L 121.4925 290.068314 
L 121.7405 268.466069 
L 121.9885 305.770886 
L 122.2365 300.424887 
L 122.4845 303.874573 
L 122.9805 282.01933 
L 123.2285 292.446185 
L 123.4765 284.28942 
L 123.7245 294.446296 
L 123.9725 289.302743 
L 124.2205 295.552213 
L 124.4685 281.05018 
L 124.7165 293.999808 
L 124.9645 296.661336 
L 125.2125 285.223566 
L 125.4605 285.602112 
L 125.9565 296.437029 
L 126.2045 296.999064 
L 126.4525 302.50348 
L 126.7005 304.542443 
L 126.9485 298.257873 
L 127.1965 314.816739 
L 127.6925 296.595644 
L 127.9405 316.614704 
L 128.1885 292.803247 
L 128.4365 302.994475 
L 128.6845 283.324781 
L 128.9325 293.378184 
L 129.1805 291.705482 
L 129.6765 310.328104 
L 129.9245 301.311252 
L 130.1725 301.705522 
L 130.4205 298.790764 
L 130.6685 305.295878 
L 130.9165 296.324849 
L 131.1645 301.822753 
L 131.4125 311.77577 
L 131.9085 297.562876 
L 132.1565 307.860647 
L 132.4045 309.287731 
L 132.6525 291.533573 
L 132.9005 292.674883 
L 133.1485 300.800604 
L 133.3965 295.553058 
L 133.6445 304.405738 
L 133.8925 304.444261 
L 134.1405 294.751037 
L 134.3885 291.039908 
L 134.6365 315.804402 
L 134.8845 310.641766 
L 135.1325 292.647334 
L 135.3805 296.733793 
L 135.6285 290.538411 
L 135.8765 319.496977 
L 136.1245 292.934425 
L 136.3725 303.936649 
L 136.6205 297.666238 
L 136.8685 308.885997 
L 137.1165 294.722706 
L 137.6125 307.421745 
L 137.8605 296.535687 
L 138.1085 321.307491 
L 138.3565 306.788469 
L 138.6045 299.878999 
L 138.8525 297.037305 
L 139.1005 308.21103 
L 139.3485 295.574688 
L 139.5965 310.145857 
L 140.3405 299.047269 
L 140.8365 315.426786 
L 141.0845 294.254523 
L 141.3325 320.553547 
L 141.5805 307.851016 
L 141.8285 304.674755 
L 142.3245 295.258258 
L 142.5725 310.411581 
L 142.8205 308.279956 
L 143.0685 310.31738 
L 143.5645 290.491298 
L 143.8125 304.656284 
L 144.0605 291.145691 
L 144.3085 317.727955 
L 144.8045 293.672849 
L 145.0525 316.245699 
L 145.3005 316.066145 
L 145.5485 318.103863 
L 145.7965 318.696735 
L 146.2925 298.0284 
L 146.7885 310.260779 
L 147.0365 298.773225 
L 147.2845 307.037506 
L 147.5325 299.170538 
L 147.7805 295.262088 
L 148.2765 331.017669 
L 148.5245 295.457076 
L 149.2685 320.626739 
L 149.7645 299.190751 
L 150.0125 315.982785 
L 150.2605 305.736063 
L 150.5085 307.287414 
L 150.7565 307.453867 
L 151.0045 310.16972 
L 151.2525 308.590267 
L 151.5005 313.589076 
L 151.7485 306.020772 
L 151.9965 303.629431 
L 152.2445 307.09777 
L 152.4925 293.06402 
L 152.7405 304.915794 
L 152.9885 323.743271 
L 153.2365 298.123493 
L 153.4845 315.787307 
L 153.7325 313.560541 
L 153.9805 309.782862 
L 154.2285 313.441222 
L 154.4765 312.256655 
L 154.7245 314.78892 
L 154.9725 334.206299 
L 155.2205 311.458052 
L 155.4685 308.71164 
L 155.7165 316.892881 
L 155.9645 316.011029 
L 156.2125 307.517228 
L 156.4605 322.552661 
L 156.7085 304.898348 
L 156.9565 309.382591 
L 157.2045 324.950298 
L 157.4525 310.247607 
L 157.7005 320.812437 
L 157.9485 314.136484 
L 158.1965 328.167124 
L 158.6925 307.661383 
L 158.9405 313.344892 
L 159.1885 309.773376 
L 159.4365 319.157445 
L 159.6845 315.551417 
L 159.9325 314.455465 
L 160.1805 319.371725 
L 160.4285 315.080422 
L 160.6765 316.065779 
L 160.9245 303.213447 
L 161.1725 307.422248 
L 161.4205 317.470415 
L 161.6685 320.301781 
L 161.9165 310.425665 
L 162.1645 319.521569 
L 162.4125 313.960995 
L 162.6605 320.388484 
L 162.9085 311.926489 
L 163.1565 326.024777 
L 163.4045 309.303239 
L 163.6525 318.043779 
L 163.9005 320.430843 
L 164.1485 320.238214 
L 164.6445 309.576421 
L 164.8925 318.853249 
L 165.1405 312.468571 
L 165.6365 322.393714 
L 165.8845 320.174426 
L 166.3805 317.954952 
L 166.6285 325.552122 
L 166.8765 315.101884 
L 167.3725 316.725477 
L 167.6205 315.514767 
L 167.8685 322.657854 
L 168.1165 334.357678 
L 168.3645 319.778733 
L 168.6125 335.248243 
L 168.8605 313.374112 
L 169.1085 324.224451 
L 169.3565 316.372846 
L 169.6045 314.274574 
L 170.1005 328.653518 
L 170.3485 317.311946 
L 170.5965 317.504818 
L 170.8445 315.926641 
L 171.0925 321.992894 
L 171.3405 322.744003 
L 171.5885 319.520113 
L 171.8365 327.055618 
L 172.0845 319.170147 
L 172.5805 326.709206 
L 172.8285 324.72886 
L 173.3245 318.204696 
L 173.5725 318.677447 
L 173.8205 325.455609 
L 174.0685 315.585361 
L 174.3165 325.746062 
L 174.5645 328.019514 
L 175.0605 314.544472 
L 175.3085 325.271499 
L 175.5565 320.722111 
L 175.8045 319.215018 
L 176.0525 326.603753 
L 176.3005 313.475795 
L 176.5485 333.316689 
L 176.7965 321.827643 
L 177.0445 327.509834 
L 177.2925 327.875959 
L 177.5405 333.491091 
L 177.7885 325.909086 
L 178.0365 326.514007 
L 178.2845 323.041878 
L 178.5325 334.772987 
L 178.7805 330.003379 
L 179.0285 319.910456 
L 179.2765 321.148356 
L 179.5245 327.899757 
L 179.7725 327.683121 
L 180.0205 326.563975 
L 180.2685 320.74724 
L 180.5165 325.122561 
L 180.7645 332.552844 
L 181.0125 319.992917 
L 181.2605 320.179496 
L 181.5085 329.327653 
L 181.7565 325.577413 
L 182.0045 328.768906 
L 182.2525 334.570467 
L 182.5005 333.595865 
L 182.7485 327.549771 
L 182.9965 327.351502 
L 183.2445 329.191226 
L 183.4925 327.680072 
L 183.7405 340.091877 
L 183.9885 323.774023 
L 184.2365 330.976594 
L 184.4845 328.850186 
L 184.7325 320.817983 
L 185.2285 337.801424 
L 185.4765 335.645754 
L 185.9725 330.362779 
L 186.4685 339.747672 
L 186.7165 326.616682 
L 186.9645 336.686171 
L 187.2125 325.213321 
L 187.4605 337.565085 
L 187.7085 330.496348 
L 187.9565 329.184964 
L 188.2045 326.791501 
L 188.4525 332.685028 
L 188.7005 329.815016 
L 188.9485 319.220626 
L 189.1965 332.224454 
L 189.4445 337.161049 
L 189.9405 324.857048 
L 190.1885 332.099663 
L 190.4365 327.192807 
L 190.6845 325.912482 
L 190.9325 330.266153 
L 191.1805 329.132474 
L 191.4285 323.095591 
L 191.6765 329.083963 
L 191.9245 327.744502 
L 192.1725 330.527582 
L 192.4205 328.676937 
L 192.6685 336.243815 
L 193.1645 327.638135 
L 193.4125 330.158511 
L 193.6605 329.043508 
L 193.9085 332.088383 
L 194.1565 329.186476 
L 194.4045 328.193318 
L 194.6525 332.84937 
L 194.9005 330.98557 
L 195.1485 330.648984 
L 195.3965 324.073335 
L 195.6445 329.884722 
L 195.8925 324.418572 
L 196.1405 340.040647 
L 196.3885 326.198633 
L 196.6365 330.695817 
L 196.8845 325.536072 
L 197.1325 328.423936 
L 197.3805 339.01235 
L 197.6285 330.234566 
L 197.8765 329.806122 
L 198.1245 327.217856 
L 198.3725 329.664976 
L 198.6205 336.473285 
L 198.8685 333.94609 
L 199.1165 328.188248 
L 199.3645 329.853959 
L 199.6125 328.10573 
L 199.8605 337.839767 
L 200.1085 327.793351 
L 200.3565 335.998158 
L 200.6045 331.373183 
L 200.8525 331.195148 
L 201.1005 336.664756 
L 201.3485 338.078104 
L 201.5965 326.527775 
L 201.8445 325.635763 
L 202.0925 327.900555 
L 202.3405 341.163655 
L 202.5885 328.529778 
L 202.8365 332.957073 
L 203.0845 330.817938 
L 203.3325 327.585202 
L 203.5805 329.598192 
L 203.8285 337.862998 
L 204.0765 326.815494 
L 204.3245 323.066152 
L 204.5725 338.364888 
L 204.8205 326.45475 
L 205.0685 330.558725 
L 205.3165 328.68915 
L 205.5645 333.582334 
L 205.8125 328.366242 
L 206.0605 330.654044 
L 206.3085 330.490475 
L 206.5565 328.889428 
L 206.8045 331.945477 
L 207.0525 338.320025 
L 207.3005 338.715003 
L 207.7965 328.53001 
L 208.0445 333.026972 
L 208.2925 332.470439 
L 208.5405 337.704259 
L 208.7885 331.394006 
L 209.0365 334.54719 
L 209.2845 342.067992 
L 209.5325 326.746643 
L 209.7805 330.431164 
L 210.0285 331.299873 
L 210.2765 330.748355 
L 210.5245 330.639138 
L 210.7725 331.723501 
L 211.0205 329.448391 
L 211.2685 329.582681 
L 211.5165 333.256962 
L 211.7645 341.826985 
L 212.0125 326.585378 
L 212.2605 325.282298 
L 212.5085 338.695019 
L 212.7565 328.582263 
L 213.0045 340.588206 
L 213.2525 340.89482 
L 213.5005 332.55347 
L 213.7485 341.869237 
L 213.9965 331.128723 
L 214.2445 336.548632 
L 214.4925 328.829367 
L 214.7405 331.266033 
L 214.9885 326.876571 
L 215.4845 334.762286 
L 215.7325 336.247366 
L 215.9805 328.510718 
L 216.2285 326.828917 
L 216.4765 330.515786 
L 216.7245 340.676634 
L 216.9725 331.156053 
L 217.2205 334.518207 
L 217.4685 340.728568 
L 217.7165 331.89899 
L 217.9645 337.972138 
L 218.2125 328.974956 
L 218.4605 341.639085 
L 218.7085 332.509326 
L 218.9565 337.020867 
L 219.2045 322.299879 
L 219.7005 338.425731 
L 219.9485 339.839569 
L 220.1965 333.930015 
L 220.4445 333.178573 
L 220.6925 335.328228 
L 220.9405 333.494457 
L 221.1885 333.823344 
L 221.4365 326.959646 
L 221.6845 344.536167 
L 221.9325 333.141077 
L 222.1805 328.964396 
L 222.6765 345.98858 
L 222.9245 335.380434 
L 223.1725 333.03009 
L 223.4205 343.63238 
L 223.6685 339.831857 
L 223.9165 340.870284 
L 224.1645 330.018296 
L 224.4125 335.688449 
L 224.6605 335.760601 
L 224.9085 324.900386 
L 225.4045 334.366714 
L 225.6525 329.699719 
L 225.9005 328.774488 
L 226.1485 335.054581 
L 226.3965 337.026836 
L 226.6445 333.160521 
L 226.8925 337.032326 
L 227.1405 334.938261 
L 227.3885 336.938653 
L 227.6365 331.225694 
L 227.8845 337.086311 
L 228.1325 337.422684 
L 228.3805 337.080539 
L 228.6285 334.872284 
L 228.8765 346.390378 
L 229.1245 330.9078 
L 229.3725 331.289462 
L 229.6205 327.247241 
L 229.8685 334.102553 
L 230.1165 335.147986 
L 230.3645 333.120547 
L 230.6125 325.960718 
L 230.8605 337.142483 
L 231.1085 331.193479 
L 231.3565 341.10387 
L 231.6045 331.379311 
L 231.8525 337.189272 
L 232.1005 331.098225 
L 232.3485 336.043417 
L 232.5965 332.217819 
L 232.8445 339.239347 
L 233.0925 335.749706 
L 233.3405 336.911397 
L 233.5885 331.279919 
L 233.8365 333.408645 
L 234.0845 329.748488 
L 234.3325 329.75612 
L 234.5805 342.601719 
L 234.8285 343.585324 
L 235.0765 341.94651 
L 235.3245 336.611476 
L 235.5725 337.362953 
L 235.8205 330.432495 
L 236.0685 335.635802 
L 236.3165 336.380235 
L 236.5645 329.633147 
L 236.8125 339.183644 
L 237.0605 340.842062 
L 237.3085 332.06019 
L 237.5565 332.558471 
L 237.8045 338.028859 
L 238.0525 325.091999 
L 238.3005 334.747063 
L 238.5485 326.096069 
L 238.7965 336.11501 
L 239.0445 335.853141 
L 239.2925 332.261889 
L 239.5405 348.677718 
L 239.7885 327.014543 
L 240.0365 330.866385 
L 240.2845 332.926674 
L 240.5325 330.522671 
L 240.7805 342.833419 
L 241.0285 334.420589 
L 241.2765 333.222004 
L 241.5245 340.64667 
L 241.7725 338.243803 
L 242.0205 339.744263 
L 242.2685 335.938113 
L 242.5165 336.329769 
L 242.7645 333.335801 
L 243.0125 339.364251 
L 243.2605 334.37493 
L 243.7565 331.353621 
L 244.0045 331.41252 
L 244.2525 327.376999 
L 244.5005 331.404417 
L 244.7485 332.561398 
L 244.9965 329.836198 
L 245.2445 332.454477 
L 245.4925 331.810984 
L 245.9885 338.726912 
L 246.7325 328.295566 
L 246.9805 337.553546 
L 247.2285 325.081527 
L 247.4765 339.030778 
L 247.7245 331.86971 
L 247.9725 340.979319 
L 248.2205 338.417594 
L 248.4685 327.118353 
L 248.7165 325.538331 
L 248.9645 336.14844 
L 249.2125 324.667564 
L 249.4605 335.041585 
L 249.7085 334.918676 
L 249.9565 330.226646 
L 250.2045 336.56643 
L 250.4525 329.971932 
L 250.7005 334.471248 
L 250.9485 333.987376 
L 251.1965 333.755206 
L 251.4445 329.171927 
L 251.6925 335.101146 
L 251.9405 330.462127 
L 252.1885 332.065605 
L 252.4365 325.643192 
L 252.6845 332.51713 
L 252.9325 335.617757 
L 253.1805 333.420871 
L 253.4285 335.061819 
L 253.6765 337.957999 
L 253.9245 333.395685 
L 254.1725 336.275744 
L 254.6685 330.040013 
L 254.9165 336.740729 
L 255.1645 333.009064 
L 255.4125 332.011009 
L 255.6605 331.949672 
L 255.9085 338.660404 
L 256.1565 333.348085 
L 256.4045 336.402436 
L 256.6525 327.856068 
L 256.9005 331.438336 
L 257.1485 331.89119 
L 257.3965 333.744572 
L 257.6445 337.262511 
L 257.8925 338.145237 
L 258.1405 330.127725 
L 258.3885 338.853428 
L 258.6365 337.919427 
L 258.8845 331.970158 
L 259.1325 332.689714 
L 259.3805 332.781139 
L 259.6285 327.037169 
L 259.8765 343.685158 
L 260.1245 328.328234 
L 260.3725 332.163197 
L 260.6205 327.361918 
L 260.8685 334.642897 
L 261.1165 333.579218 
L 261.3645 330.305765 
L 262.1085 343.957696 
L 262.6045 329.915714 
L 262.8525 331.208105 
L 263.1005 334.215942 
L 263.5965 331.533191 
L 263.8445 335.740738 
L 264.0925 330.238431 
L 264.3405 329.650314 
L 264.5885 329.597067 
L 264.8365 324.641347 
L 265.0845 336.397865 
L 265.3325 328.317865 
L 265.5805 332.469551 
L 265.8285 342.714063 
L 266.0765 335.19443 
L 266.3245 331.084365 
L 266.5725 333.297944 
L 266.8205 328.17234 
L 267.0685 336.156379 
L 267.3165 328.154321 
L 267.5645 337.812493 
L 267.8125 337.697513 
L 268.0605 335.403436 
L 268.3085 330.410552 
L 268.8045 334.897462 
L 269.0525 332.060754 
L 269.3005 333.313242 
L 269.5485 325.7544 
L 269.7965 331.022093 
L 270.0445 328.772199 
L 270.2925 329.5462 
L 270.5405 341.990675 
L 271.0365 329.700576 
L 271.2845 333.237068 
L 271.5325 331.260427 
L 271.7805 331.827528 
L 272.0285 334.935591 
L 272.2765 335.129696 
L 272.5245 330.640786 
L 273.2685 331.651663 
L 273.5165 331.485774 
L 273.7645 330.678436 
L 274.0125 333.598963 
L 274.2605 332.372384 
L 274.5085 332.89267 
L 274.7565 330.05298 
L 275.0045 335.798359 
L 275.2525 331.893793 
L 275.5005 331.005809 
L 275.7485 331.836185 
L 275.9965 330.684134 
L 276.2445 334.063823 
L 276.4925 332.54685 
L 276.7405 329.129225 
L 276.9885 333.818464 
L 277.2365 330.635682 
L 277.4845 334.675153 
L 277.7325 332.559513 
L 277.9805 334.563378 
L 278.2285 329.913054 
L 278.7245 334.208001 
L 278.9725 334.005138 
L 279.2205 330.706026 
L 279.7165 339.143135 
L 279.9645 329.555119 
L 280.2125 337.983764 
L 280.4605 333.664865 
L 280.7085 331.716021 
L 280.9565 334.760679 
L 281.2045 329.077644 
L 281.4525 333.601543 
L 281.7005 346.941341 
L 281.9485 333.273621 
L 282.1965 333.815755 
L 282.4445 336.014012 
L 282.6925 330.623613 
L 282.9405 340.691669 
L 283.1885 329.571472 
L 283.4365 329.396391 
L 283.6845 342.472559 
L 283.9325 331.035454 
L 284.1805 332.37098 
L 284.4285 338.363972 
L 284.6765 336.22309 
L 284.9245 330.152122 
L 285.1725 333.536191 
L 285.4205 335.109341 
L 285.6685 331.446893 
L 285.9165 332.795551 
L 286.1645 338.440063 
L 286.4125 334.303232 
L 286.6605 334.337437 
L 286.9085 332.017068 
L 287.1565 334.782762 
L 287.6525 331.794448 
L 288.1485 336.157466 
L 288.3965 333.558263 
L 288.6445 339.258986 
L 288.8925 332.184407 
L 289.1405 333.083178 
L 289.3885 332.681459 
L 289.6365 342.075058 
L 290.1325 329.719136 
L 290.3805 332.68227 
L 290.6285 330.333711 
L 290.8765 332.201056 
L 291.1245 330.311008 
L 291.3725 330.521322 
L 291.6205 333.639672 
L 291.8685 333.01547 
L 292.1165 338.527729 
L 292.3645 327.782732 
L 292.6125 344.269956 
L 292.8605 334.799754 
L 293.3565 331.336748 
L 293.6045 332.103737 
L 293.8525 335.213412 
L 294.1005 348.79153 
L 294.3485 333.226395 
L 294.5965 337.757179 
L 294.8445 335.247834 
L 295.0925 337.097003 
L 295.3405 333.350732 
L 295.5885 333.184673 
L 295.8365 335.025064 
L 296.0845 333.972282 
L 296.3325 335.117494 
L 296.5805 331.793181 
L 296.8285 332.033282 
L 297.0765 332.787788 
L 297.3245 329.940647 
L 297.5725 331.439001 
L 297.8205 336.852776 
L 298.0685 338.847802 
L 298.3165 335.582439 
L 298.5645 329.42565 
L 298.8125 332.320079 
L 299.0605 331.201897 
L 299.3085 343.861752 
L 299.5565 331.500013 
L 299.8045 333.966759 
L 300.0525 333.339944 
L 300.3005 333.761708 
L 300.5485 333.909959 
L 300.7965 330.136037 
L 301.2925 336.511605 
L 301.5405 336.383595 
L 301.7885 337.482666 
L 302.0365 334.109992 
L 302.5325 332.827527 
L 302.7805 333.503 
L 303.0285 339.076226 
L 303.2765 333.916785 
L 303.5245 335.744595 
L 303.7725 336.04128 
L 304.0205 330.264651 
L 304.2685 331.929672 
L 304.5165 337.011961 
L 304.7645 336.302843 
L 305.0125 337.176539 
L 305.2605 332.801319 
L 305.5085 331.234562 
L 305.7565 331.090877 
L 306.0045 335.621743 
L 306.2525 334.632837 
L 306.5005 337.75775 
L 306.7485 331.983192 
L 306.9965 332.377819 
L 307.2445 333.918124 
L 307.4925 328.800397 
L 307.7405 345.726409 
L 308.2365 334.78615 
L 308.7325 333.32152 
L 308.9805 334.852709 
L 309.2285 338.913509 
L 309.4765 339.441586 
L 309.9725 330.192605 
L 310.2205 334.581081 
L 310.4685 333.133422 
L 310.7165 334.73649 
L 310.9645 332.598516 
L 311.2125 333.816126 
L 311.4605 331.617335 
L 311.9565 333.730883 
L 312.2045 330.020523 
L 312.4525 333.187155 
L 312.7005 338.670565 
L 312.9485 337.12391 
L 313.1965 337.078422 
L 313.4445 336.098186 
L 313.6925 330.376637 
L 314.1885 339.845671 
L 314.4365 333.130152 
L 314.6845 336.026629 
L 314.9325 333.260863 
L 315.1805 333.005974 
L 315.4285 334.438961 
L 315.6765 333.488218 
L 315.9245 329.711255 
L 316.4205 334.406898 
L 316.6685 332.801613 
L 316.9165 332.679958 
L 317.1645 331.575641 
L 317.4125 338.269037 
L 317.6605 333.297931 
L 317.9085 333.382664 
L 318.1565 329.582789 
L 318.4045 336.014426 
L 318.6525 331.881068 
L 318.9005 333.590159 
L 319.1485 334.425432 
L 319.3965 334.502139 
L 319.8925 331.094152 
L 320.1405 337.498134 
L 320.3885 337.090153 
L 320.6365 329.865624 
L 320.8845 330.431334 
L 321.1325 337.113495 
L 321.3805 333.014801 
L 321.6285 337.429126 
L 321.8765 334.630568 
L 322.3725 331.280911 
L 322.6205 338.54838 
L 322.8685 342.056933 
L 323.1165 332.947948 
L 323.3645 343.071841 
L 323.8605 330.939466 
L 324.1085 330.820144 
L 324.3565 332.500388 
L 324.6045 336.80505 
L 324.8525 338.423311 
L 325.1005 332.005411 
L 325.3485 337.736113 
L 325.8445 333.600139 
L 326.0925 331.29377 
L 326.3405 330.202405 
L 326.5885 333.339066 
L 326.8365 331.058075 
L 327.0845 331.333671 
L 327.3325 337.866852 
L 328.0765 327.512638 
L 328.3245 329.830229 
L 328.5725 333.424486 
L 328.8205 333.707949 
L 329.0685 331.9203 
L 329.3165 332.234919 
L 329.8125 338.064658 
L 330.0605 335.731844 
L 330.3085 337.42358 
L 330.5565 331.245838 
L 330.8045 332.73913 
L 331.0525 332.127388 
L 331.3005 330.509843 
L 331.5485 333.208728 
L 331.7965 331.799714 
L 332.0445 339.288811 
L 332.2925 334.302158 
L 332.5405 337.068115 
L 332.7885 333.44036 
L 333.0365 333.620136 
L 333.2845 334.985377 
L 333.5325 328.523408 
L 333.7805 342.317077 
L 334.0285 340.393735 
L 334.2765 332.386656 
L 334.5245 333.16307 
L 334.7725 333.411328 
L 335.0205 339.92048 
L 335.2685 342.40986 
L 335.5165 329.112235 
L 336.0125 340.181876 
L 336.2605 334.475213 
L 336.5085 332.426812 
L 336.7565 341.718962 
L 337.2525 331.556543 
L 337.5005 333.336679 
L 337.7485 326.603982 
L 338.2445 333.940855 
L 338.4925 333.936532 
L 338.7405 340.996009 
L 338.9885 331.212088 
L 339.2365 330.130331 
L 339.7325 343.511441 
L 339.9805 333.618905 
L 340.4765 338.422258 
L 340.7245 329.840305 
L 340.9725 332.296982 
L 341.4685 341.248122 
L 341.7165 329.28311 
L 342.2125 333.598015 
L 342.4605 342.096064 
L 342.7085 331.304386 
L 342.9565 331.162416 
L 343.2045 332.641463 
L 343.4525 338.771594 
L 343.7005 338.074157 
L 344.1965 330.002934 
L 344.4445 338.809289 
L 344.6925 331.793366 
L 344.9405 339.464897 
L 345.1885 333.05077 
L 345.4365 331.83653 
L 345.6845 336.861431 
L 345.9325 336.788282 
L 346.1805 333.827466 
L 346.4285 332.891542 
L 346.6765 334.282084 
L 346.9245 337.379335 
L 347.1725 337.083126 
L 347.6685 330.137525 
L 347.9165 333.867267 
L 348.1645 330.521036 
L 348.6605 334.229937 
L 348.9085 333.603561 
L 349.1565 337.53357 
L 349.4045 327.428497 
L 349.6525 330.546456 
L 349.9005 331.062125 
L 350.1485 333.302445 
L 350.6445 339.977275 
L 350.8925 341.854812 
L 351.1405 327.986709 
L 351.3885 329.024462 
L 351.6365 336.413196 
L 351.8845 340.196061 
L 352.1325 329.936879 
L 352.3805 332.587742 
L 352.6285 336.725967 
L 352.8765 337.523842 
L 353.1245 330.402137 
L 353.3725 334.698183 
L 353.6205 329.676686 
L 353.8685 336.448071 
L 354.1165 333.580482 
L 354.3645 333.702557 
L 354.6125 332.159003 
L 354.8605 332.470761 
L 355.1085 330.897456 
L 355.3565 330.310374 
L 355.6045 335.926814 
L 355.8525 337.59456 
L 356.1005 334.471861 
L 356.3485 329.926685 
L 356.5965 333.336962 
L 356.8445 334.3757 
L 357.0925 332.538396 
L 357.3405 333.198951 
L 357.5885 337.519336 
L 357.8365 337.927255 
L 358.0845 329.992614 
L 358.3325 331.077124 
L 358.5805 329.352805 
L 358.8285 333.84271 
L 359.0765 331.219203 
L 359.3245 333.763062 
L 359.5725 347.387573 
L 360.0685 329.011826 
L 360.3165 337.696212 
L 360.5645 332.057043 
L 360.8125 335.026983 
L 361.3085 331.979291 
L 361.5565 332.770559 
L 361.8045 330.600079 
L 362.0525 337.379518 
L 362.3005 331.963365 
L 362.5485 334.640685 
L 362.7965 333.868902 
L 363.0445 334.697135 
L 363.2925 328.700601 
L 363.5405 336.470509 
L 363.7885 331.345498 
L 364.0365 333.727248 
L 364.2845 330.971568 
L 364.5325 340.58566 
L 364.7805 327.615037 
L 365.0285 331.123609 
L 365.2765 337.161968 
L 365.5245 332.144457 
L 365.7725 337.844394 
L 366.0205 333.40726 
L 366.2685 339.45262 
L 366.5165 329.620025 
L 366.7645 331.946644 
L 367.0125 332.376776 
L 367.2605 332.347561 
L 367.5085 342.091118 
L 367.7565 333.674539 
L 368.0045 336.65295 
L 368.2525 332.620011 
L 368.5005 332.406128 
L 368.7485 345.424051 
L 368.9965 336.307218 
L 369.2445 345.009157 
L 369.4925 332.436085 
L 369.7405 339.777673 
L 369.9885 332.299858 
L 370.2365 338.630177 
L 370.4845 332.932292 
L 370.7325 330.81123 
L 370.9805 332.536285 
L 371.2285 336.874105 
L 371.4765 329.386328 
L 371.9725 333.155927 
L 372.2205 332.610095 
L 372.4685 332.976594 
L 372.7165 328.449914 
L 372.9645 334.253574 
L 373.2125 335.530575 
L 373.4605 334.586473 
L 373.7085 335.011371 
L 373.9565 330.189088 
L 374.2045 334.381334 
L 374.4525 332.460521 
L 374.7005 332.077656 
L 374.9485 337.637314 
L 375.1965 339.165665 
L 375.4445 331.854304 
L 375.6925 332.399232 
L 375.9405 343.067046 
L 376.1885 334.880686 
L 376.4365 342.189827 
L 376.9325 335.284369 
L 377.1805 339.667991 
L 377.4285 333.234768 
L 377.9245 343.970146 
L 378.1725 341.481026 
L 378.4205 332.459939 
L 378.6685 333.342186 
L 378.9165 331.962268 
L 379.1645 331.482924 
L 379.4125 334.251314 
L 379.6605 339.758379 
L 379.9085 332.325149 
L 380.1565 330.628887 
L 380.4045 330.717655 
L 380.6525 333.215469 
L 380.9005 337.710065 
L 381.3965 330.183776 
L 381.6445 337.967645 
L 381.8925 336.501251 
L 382.1405 333.211522 
L 382.3885 337.740972 
L 382.6365 330.19585 
L 382.8845 338.327652 
L 383.1325 342.051582 
L 383.3805 332.229195 
L 383.6285 336.839843 
L 383.8765 334.771898 
L 384.3725 328.784783 
L 384.6205 331.022572 
L 384.8685 341.374126 
L 385.1165 330.819928 
L 385.3645 336.354447 
L 385.6125 335.603191 
L 385.8605 332.319688 
L 386.1085 337.201776 
L 386.3565 347.660486 
L 386.6045 333.049737 
L 386.8525 332.252101 
L 387.1005 330.968784 
L 387.3485 338.18951 
L 387.5965 332.088141 
L 388.0925 337.534559 
L 388.3405 337.165861 
L 388.5885 334.893692 
L 388.8365 338.330845 
L 389.0845 328.724205 
L 389.3325 329.8546 
L 389.5805 335.807163 
L 389.8285 334.244364 
L 390.0765 334.74835 
L 390.3245 339.100587 
L 390.5725 335.218912 
L 390.8205 335.335268 
L 391.0685 336.863076 
L 391.3165 331.928115 
L 391.5645 330.722053 
L 391.8125 333.793351 
L 392.0605 334.922433 
L 392.3085 337.358532 
L 392.5565 336.353803 
L 392.8045 331.946118 
L 393.0525 331.372135 
L 393.3005 330.047627 
L 393.7965 343.186541 
L 394.2925 332.799202 
L 394.5405 339.297589 
L 394.7885 331.324556 
L 395.0365 333.663516 
L 395.2845 343.286494 
L 395.5325 344.38142 
L 395.7805 332.95396 
L 396.0285 328.48266 
L 396.2765 331.235698 
L 396.5245 336.166326 
L 396.7725 336.616867 
L 397.0205 333.645509 
L 397.2685 332.923818 
L 397.5165 334.397541 
L 397.7645 339.98765 
L 398.0125 334.448882 
L 398.2605 341.329304 
L 398.5085 334.626879 
L 398.7565 332.92327 
L 399.0045 335.335705 
L 399.2525 342.476074 
L 399.5005 337.360296 
L 399.7485 336.572682 
L 400.2445 330.679422 
L 400.4925 332.600189 
L 400.7405 341.023723 
L 400.9885 332.722279 
L 401.2365 338.514097 
L 401.4845 331.426082 
L 401.7325 334.050583 
L 401.9805 341.277991 
L 402.2285 331.09212 
L 402.4765 334.008944 
L 402.7245 331.019198 
L 402.9725 345.55616 
L 403.2205 337.86702 
L 403.4685 339.772206 
L 403.7165 339.809362 
L 403.9645 330.599484 
L 404.2125 337.431941 
L 404.4605 329.252906 
L 404.7085 341.065857 
L 405.2045 334.647051 
L 405.4525 333.205304 
L 405.7005 333.006561 
L 405.9485 336.661135 
L 406.4445 332.774164 
L 406.6925 336.314868 
L 406.9405 346.551923 
L 407.1885 334.702638 
L 407.4365 328.999454 
L 407.6845 338.921414 
L 407.9325 335.025404 
L 408.1805 334.303592 
L 408.4285 341.300576 
L 408.6765 332.901929 
L 408.9245 334.104474 
L 409.1725 337.804784 
L 409.4205 334.54969 
L 409.6685 333.743828 
L 409.9165 336.455425 
L 410.1645 336.502852 
L 410.4125 330.581302 
L 410.6605 342.993028 
L 410.9085 333.7733 
L 411.1565 335.191937 
L 411.4045 331.064793 
L 411.6525 344.81904 
L 411.9005 339.684054 
L 412.1485 347.659391 
L 412.3965 331.835438 
L 412.6445 335.132078 
L 412.8925 336.879033 
L 413.1405 333.68874 
L 413.6365 339.825898 
L 413.8845 333.476479 
L 414.1325 346.673279 
L 414.3805 332.851744 
L 414.6285 338.353548 
L 414.8765 332.751245 
L 415.1245 331.732336 
L 415.3725 337.189656 
L 415.6205 330.483914 
L 415.8685 332.645189 
L 416.1165 333.358527 
L 416.3645 335.029975 
L 416.6125 334.396591 
L 416.8605 337.38072 
L 417.1085 338.623181 
L 417.6045 335.873243 
L 417.8525 336.517421 
L 418.3485 338.874339 
L 418.5965 332.708926 
L 418.8445 332.590693 
L 419.0925 336.005767 
L 419.3405 332.724038 
L 419.5885 339.204482 
L 419.8365 332.330103 
L 420.0845 335.243245 
L 420.3325 339.745417 
L 420.5805 337.020625 
L 420.8285 332.560049 
L 421.0765 334.583736 
L 421.3245 331.274059 
L 421.5725 336.574659 
L 421.8205 339.430074 
L 422.0685 338.620194 
L 422.3165 334.808096 
L 422.5645 334.614856 
L 422.8125 339.990801 
L 423.0605 332.805454 
L 423.3085 342.384695 
L 423.5565 329.711051 
L 423.8045 335.14803 
L 424.0525 343.813163 
L 424.3005 335.943325 
L 424.5485 332.116305 
L 424.7965 330.716318 
L 425.0445 332.790945 
L 425.2925 331.13645 
L 425.5405 333.402347 
L 425.7885 331.351816 
L 426.0365 331.141865 
L 426.2845 331.328946 
L 426.5325 336.091511 
L 426.7805 343.156504 
L 427.0285 329.22797 
L 427.2765 328.392625 
L 427.7725 342.331283 
L 428.0205 335.603744 
L 428.2685 335.650276 
L 428.5165 339.069379 
L 428.7645 331.778561 
L 429.0125 339.420989 
L 429.2605 336.538616 
L 429.5085 332.186953 
L 429.7565 332.93462 
L 430.0045 339.333795 
L 430.2525 332.340068 
L 430.5005 334.055372 
L 430.9965 330.232797 
L 431.2445 336.604042 
L 431.4925 339.527766 
L 431.7405 335.859506 
L 431.9885 338.986381 
L 432.2365 336.895865 
L 432.4845 338.501998 
L 432.7325 332.564944 
L 432.9805 333.986509 
L 433.2285 328.163848 
L 433.4765 332.704857 
L 433.7245 331.689257 
L 433.9725 328.119789 
L 434.2205 339.214231 
L 434.4685 341.208808 
L 434.7165 331.228766 
L 434.9645 339.9166 
L 435.2125 334.761655 
L 435.4605 334.405495 
L 435.7085 337.930919 
L 435.9565 327.899201 
L 436.2045 341.449947 
L 436.4525 327.079742 
L 436.7005 335.889347 
L 436.9485 330.899779 
L 437.1965 335.046789 
L 437.4445 343.726252 
L 438.1885 334.587583 
L 438.4365 338.308407 
L 438.6845 338.975379 
L 438.9325 330.590415 
L 439.1805 333.622152 
L 439.4285 338.264049 
L 439.6765 340.277861 
L 439.9245 334.75709 
L 440.1725 339.177876 
L 440.4205 333.63068 
L 440.6685 331.258342 
L 440.9165 337.263646 
L 441.1645 334.178914 
L 441.4125 329.339588 
L 441.6605 337.925017 
L 442.1565 345.119678 
L 442.4045 335.736443 
L 442.6525 331.122533 
L 442.9005 345.677218 
L 443.1485 330.324099 
L 443.3965 331.321033 
L 443.6445 331.287124 
L 444.1405 346.692795 
L 444.3885 328.584639 
L 444.6365 333.163479 
L 444.8845 339.99153 
L 445.1325 338.90747 
L 445.3805 342.737268 
L 445.6285 337.59596 
L 445.8765 345.358901 
L 446.1245 333.37916 
L 446.3725 343.093161 
L 446.6205 330.253839 
L 446.8685 337.371368 
L 447.1165 334.638793 
L 447.3645 333.383143 
L 447.6125 332.904303 
L 447.8605 334.88348 
L 448.1085 334.179968 
L 448.3565 336.770487 
L 448.6045 332.920152 
L 448.8525 333.370657 
L 449.1005 330.598711 
L 449.3485 333.447758 
L 449.5965 347.212349 
L 449.8445 336.359939 
L 450.0925 330.926221 
L 450.3405 338.749491 
L 450.5885 333.196518 
L 450.8365 341.261334 
L 451.0845 338.038947 
L 451.3325 330.934733 
L 451.5805 331.168966 
L 451.8285 333.459443 
L 452.0765 333.833824 
L 452.3245 332.396894 
L 452.5725 336.532016 
L 452.8205 333.070746 
L 453.0685 345.142376 
L 453.3165 335.801341 
L 453.5645 338.86038 
L 453.8125 331.108965 
L 454.0605 329.652786 
L 454.3085 338.61058 
L 454.5565 327.451213 
L 454.8045 338.99365 
L 455.0525 333.406891 
L 455.3005 337.35621 
L 455.5485 330.315565 
L 455.7965 341.829485 
L 456.0445 332.444028 
L 456.2925 331.919416 
L 456.5405 335.593218 
L 456.7885 332.822063 
L 457.0365 337.947937 
L 457.2845 334.219001 
L 457.5325 337.742582 
L 457.7805 331.127961 
L 458.0285 332.252462 
L 458.2765 334.967443 
L 458.5245 332.810071 
L 458.7725 333.644974 
L 459.2685 326.824678 
L 459.5165 339.221606 
L 459.7645 330.829146 
L 460.0125 344.192451 
L 460.2605 340.848955 
L 460.5085 334.514561 
L 460.7565 339.462595 
L 461.0045 335.585112 
L 461.2525 334.590964 
L 461.5005 340.05615 
L 461.7485 339.494836 
L 461.9965 333.580328 
L 462.2445 339.295439 
L 462.4925 334.1736 
L 462.7405 335.740959 
L 462.9885 330.001224 
L 463.2365 342.973801 
L 463.4845 332.926883 
L 463.7325 337.271958 
L 463.9805 352.109732 
L 464.2285 335.154737 
L 464.4765 330.887898 
L 464.7245 339.360515 
L 464.9725 339.071689 
L 465.2205 334.253932 
L 465.4685 341.177881 
L 465.7165 329.641235 
L 465.9645 339.835387 
L 466.2125 330.512995 
L 466.4605 334.161992 
L 466.7085 333.924808 
L 466.9565 332.504912 
L 467.2045 329.318778 
L 467.4525 339.999947 
L 467.7005 335.621303 
L 467.7005 335.621303 
" style="fill:none;stroke:#0000ff;stroke-linecap:square;stroke-width:0.5;"/>
   </g>
   <g id="patch_3">
    <path d="M 54.5325 23.14175 
L 500.9325 23.14175 
" style="fill:none;stroke:#000000;stroke-linecap:square;stroke-linejoin:miter;"/>
   </g>
   <g id="patch_4">
    <path d="M 54.5325 368.74175 
L 500.9325 368.74175 
" style="fill:none;stroke:#000000;stroke-linecap:square;stroke-linejoin:miter;"/>
   </g>
   <g id="patch_5">
    <path d="M 500.9325 368.74175 
L 500.9325 23.14175 
" style="fill:none;stroke:#000000;stroke-linecap:square;stroke-linejoin:miter;"/>
   </g>
   <g id="patch_6">
    <path d="M 54.5325 368.74175 
L 54.5325 23.14175 
" style="fill:none;stroke:#000000;stroke-linecap:square;stroke-linejoin:miter;"/>
   </g>
   <g id="matplotlib.axis_1">
    <g id="xtick_1">
     <g id="line2d_2">
      <defs>
       <path d="M 0 0 
L 0 -4 
" id="me235adfa85" style="stroke:#000000;stroke-width:0.5;"/>
      </defs>
      <g>
       <use style="stroke:#000000;stroke-width:0.5;" x="54.5325" xlink:href="#me235adfa85" y="368.74175"/>
      </g>
     </g>
     <g id="line2d_3">
      <defs>
       <path d="M 0 0 
L 0 4 
" id="mcef3714238" style="stroke:#000000;stroke-width:0.5;"/>
      </defs>
      <g>
       <use style="stroke:#000000;stroke-width:0.5;" x="54.5325" xlink:href="#mcef3714238" y="23.14175"/>
      </g>
     </g>
     <g id="text_1">
      <!-- 0 -->
      <defs>
       <path d="M 31.78125 66.40625 
Q 24.171875 66.40625 20.328125 58.90625 
Q 16.5 51.421875 16.5 36.375 
Q 16.5 21.390625 20.328125 13.890625 
Q 24.171875 6.390625 31.78125 6.390625 
Q 39.453125 6.390625 43.28125 13.890625 
Q 47.125 21.390625 47.125 36.375 
Q 47.125 51.421875 43.28125 58.90625 
Q 39.453125 66.40625 31.78125 66.40625 
M 31.78125 74.21875 
Q 44.046875 74.21875 50.515625 64.515625 
Q 56.984375 54.828125 56.984375 36.375 
Q 56.984375 17.96875 50.515625 8.265625 
Q 44.046875 -1.421875 31.78125 -1.421875 
Q 19.53125 -1.421875 13.0625 8.265625 
Q 6.59375 17.96875 6.59375 36.375 
Q 6.59375 54.828125 13.0625 64.515625 
Q 19.53125 74.21875 31.78125 74.21875 
" id="BitstreamVeraSans-Roman-30"/>
      </defs>
      <g transform="translate(50.715 381.859875)scale(0.12 -0.12)">
       <use xlink:href="#BitstreamVeraSans-Roman-30"/>
      </g>
     </g>
    </g>
    <g id="xtick_2">
     <g id="line2d_4">
      <g>
       <use style="stroke:#000000;stroke-width:0.5;" x="104.1325" xlink:href="#me235adfa85" y="368.74175"/>
      </g>
     </g>
     <g id="line2d_5">
      <g>
       <use style="stroke:#000000;stroke-width:0.5;" x="104.1325" xlink:href="#mcef3714238" y="23.14175"/>
      </g>
     </g>
     <g id="text_2">
      <!-- 200 -->
      <defs>
       <path d="M 19.1875 8.296875 
L 53.609375 8.296875 
L 53.609375 0 
L 7.328125 0 
L 7.328125 8.296875 
Q 12.9375 14.109375 22.625 23.890625 
Q 32.328125 33.6875 34.8125 36.53125 
Q 39.546875 41.84375 41.421875 45.53125 
Q 43.3125 49.21875 43.3125 52.78125 
Q 43.3125 58.59375 39.234375 62.25 
Q 35.15625 65.921875 28.609375 65.921875 
Q 23.96875 65.921875 18.8125 64.3125 
Q 13.671875 62.703125 7.8125 59.421875 
L 7.8125 69.390625 
Q 13.765625 71.78125 18.9375 73 
Q 24.125 74.21875 28.421875 74.21875 
Q 39.75 74.21875 46.484375 68.546875 
Q 53.21875 62.890625 53.21875 53.421875 
Q 53.21875 48.921875 51.53125 44.890625 
Q 49.859375 40.875 45.40625 35.40625 
Q 44.1875 33.984375 37.640625 27.21875 
Q 31.109375 20.453125 19.1875 8.296875 
" id="BitstreamVeraSans-Roman-32"/>
      </defs>
      <g transform="translate(92.68 381.859875)scale(0.12 -0.12)">
       <use xlink:href="#BitstreamVeraSans-Roman-32"/>
       <use x="63.623046875" xlink:href="#BitstreamVeraSans-Roman-30"/>
       <use x="127.24609375" xlink:href="#BitstreamVeraSans-Roman-30"/>
      </g>
     </g>
    </g>
    <g id="xtick_3">
     <g id="line2d_6">
      <g>
       <use style="stroke:#000000;stroke-width:0.5;" x="153.7325" xlink:href="#me235adfa85" y="368.74175"/>
      </g>
     </g>
     <g id="line2d_7">
      <g>
       <use style="stroke:#000000;stroke-width:0.5;" x="153.7325" xlink:href="#mcef3714238" y="23.14175"/>
      </g>
     </g>
     <g id="text_3">
      <!-- 400 -->
      <defs>
       <path d="M 37.796875 64.3125 
L 12.890625 25.390625 
L 37.796875 25.390625 
z
M 35.203125 72.90625 
L 47.609375 72.90625 
L 47.609375 25.390625 
L 58.015625 25.390625 
L 58.015625 17.1875 
L 47.609375 17.1875 
L 47.609375 0 
L 37.796875 0 
L 37.796875 17.1875 
L 4.890625 17.1875 
L 4.890625 26.703125 
z
" id="BitstreamVeraSans-Roman-34"/>
      </defs>
      <g transform="translate(142.28 381.859875)scale(0.12 -0.12)">
       <use xlink:href="#BitstreamVeraSans-Roman-34"/>
       <use x="63.623046875" xlink:href="#BitstreamVeraSans-Roman-30"/>
       <use x="127.24609375" xlink:href="#BitstreamVeraSans-Roman-30"/>
      </g>
     </g>
    </g>
    <g id="xtick_4">
     <g id="line2d_8">
      <g>
       <use style="stroke:#000000;stroke-width:0.5;" x="203.3325" xlink:href="#me235adfa85" y="368.74175"/>
      </g>
     </g>
     <g id="line2d_9">
      <g>
       <use style="stroke:#000000;stroke-width:0.5;" x="203.3325" xlink:href="#mcef3714238" y="23.14175"/>
      </g>
     </g>
     <g id="text_4">
      <!-- 600 -->
      <defs>
       <path d="M 33.015625 40.375 
Q 26.375 40.375 22.484375 35.828125 
Q 18.609375 31.296875 18.609375 23.390625 
Q 18.609375 15.53125 22.484375 10.953125 
Q 26.375 6.390625 33.015625 6.390625 
Q 39.65625 6.390625 43.53125 10.953125 
Q 47.40625 15.53125 47.40625 23.390625 
Q 47.40625 31.296875 43.53125 35.828125 
Q 39.65625 40.375 33.015625 40.375 
M 52.59375 71.296875 
L 52.59375 62.3125 
Q 48.875 64.0625 45.09375 64.984375 
Q 41.3125 65.921875 37.59375 65.921875 
Q 27.828125 65.921875 22.671875 59.328125 
Q 17.53125 52.734375 16.796875 39.40625 
Q 19.671875 43.65625 24.015625 45.921875 
Q 28.375 48.1875 33.59375 48.1875 
Q 44.578125 48.1875 50.953125 41.515625 
Q 57.328125 34.859375 57.328125 23.390625 
Q 57.328125 12.15625 50.6875 5.359375 
Q 44.046875 -1.421875 33.015625 -1.421875 
Q 20.359375 -1.421875 13.671875 8.265625 
Q 6.984375 17.96875 6.984375 36.375 
Q 6.984375 53.65625 15.1875 63.9375 
Q 23.390625 74.21875 37.203125 74.21875 
Q 40.921875 74.21875 44.703125 73.484375 
Q 48.484375 72.75 52.59375 71.296875 
" id="BitstreamVeraSans-Roman-36"/>
      </defs>
      <g transform="translate(191.88 381.859875)scale(0.12 -0.12)">
       <use xlink:href="#BitstreamVeraSans-Roman-36"/>
       <use x="63.623046875" xlink:href="#BitstreamVeraSans-Roman-30"/>
       <use x="127.24609375" xlink:href="#BitstreamVeraSans-Roman-30"/>
      </g>
     </g>
    </g>
    <g id="xtick_5">
     <g id="line2d_10">
      <g>
       <use style="stroke:#000000;stroke-width:0.5;" x="252.9325" xlink:href="#me235adfa85" y="368.74175"/>
      </g>
     </g>
     <g id="line2d_11">
      <g>
       <use style="stroke:#000000;stroke-width:0.5;" x="252.9325" xlink:href="#mcef3714238" y="23.14175"/>
      </g>
     </g>
     <g id="text_5">
      <!-- 800 -->
      <defs>
       <path d="M 31.78125 34.625 
Q 24.75 34.625 20.71875 30.859375 
Q 16.703125 27.09375 16.703125 20.515625 
Q 16.703125 13.921875 20.71875 10.15625 
Q 24.75 6.390625 31.78125 6.390625 
Q 38.8125 6.390625 42.859375 10.171875 
Q 46.921875 13.96875 46.921875 20.515625 
Q 46.921875 27.09375 42.890625 30.859375 
Q 38.875 34.625 31.78125 34.625 
M 21.921875 38.8125 
Q 15.578125 40.375 12.03125 44.71875 
Q 8.5 49.078125 8.5 55.328125 
Q 8.5 64.0625 14.71875 69.140625 
Q 20.953125 74.21875 31.78125 74.21875 
Q 42.671875 74.21875 48.875 69.140625 
Q 55.078125 64.0625 55.078125 55.328125 
Q 55.078125 49.078125 51.53125 44.71875 
Q 48 40.375 41.703125 38.8125 
Q 48.828125 37.15625 52.796875 32.3125 
Q 56.78125 27.484375 56.78125 20.515625 
Q 56.78125 9.90625 50.3125 4.234375 
Q 43.84375 -1.421875 31.78125 -1.421875 
Q 19.734375 -1.421875 13.25 4.234375 
Q 6.78125 9.90625 6.78125 20.515625 
Q 6.78125 27.484375 10.78125 32.3125 
Q 14.796875 37.15625 21.921875 38.8125 
M 18.3125 54.390625 
Q 18.3125 48.734375 21.84375 45.5625 
Q 25.390625 42.390625 31.78125 42.390625 
Q 38.140625 42.390625 41.71875 45.5625 
Q 45.3125 48.734375 45.3125 54.390625 
Q 45.3125 60.0625 41.71875 63.234375 
Q 38.140625 66.40625 31.78125 66.40625 
Q 25.390625 66.40625 21.84375 63.234375 
Q 18.3125 60.0625 18.3125 54.390625 
" id="BitstreamVeraSans-Roman-38"/>
      </defs>
      <g transform="translate(241.48 381.859875)scale(0.12 -0.12)">
       <use xlink:href="#BitstreamVeraSans-Roman-38"/>
       <use x="63.623046875" xlink:href="#BitstreamVeraSans-Roman-30"/>
       <use x="127.24609375" xlink:href="#BitstreamVeraSans-Roman-30"/>
      </g>
     </g>
    </g>
    <g id="xtick_6">
     <g id="line2d_12">
      <g>
       <use style="stroke:#000000;stroke-width:0.5;" x="302.5325" xlink:href="#me235adfa85" y="368.74175"/>
      </g>
     </g>
     <g id="line2d_13">
      <g>
       <use style="stroke:#000000;stroke-width:0.5;" x="302.5325" xlink:href="#mcef3714238" y="23.14175"/>
      </g>
     </g>
     <g id="text_6">
      <!-- 1000 -->
      <defs>
       <path d="M 12.40625 8.296875 
L 28.515625 8.296875 
L 28.515625 63.921875 
L 10.984375 60.40625 
L 10.984375 69.390625 
L 28.421875 72.90625 
L 38.28125 72.90625 
L 38.28125 8.296875 
L 54.390625 8.296875 
L 54.390625 0 
L 12.40625 0 
z
" id="BitstreamVeraSans-Roman-31"/>
      </defs>
      <g transform="translate(287.2625 381.859875)scale(0.12 -0.12)">
       <use xlink:href="#BitstreamVeraSans-Roman-31"/>
       <use x="63.623046875" xlink:href="#BitstreamVeraSans-Roman-30"/>
       <use x="127.24609375" xlink:href="#BitstreamVeraSans-Roman-30"/>
       <use x="190.869140625" xlink:href="#BitstreamVeraSans-Roman-30"/>
      </g>
     </g>
    </g>
    <g id="xtick_7">
     <g id="line2d_14">
      <g>
       <use style="stroke:#000000;stroke-width:0.5;" x="352.1325" xlink:href="#me235adfa85" y="368.74175"/>
      </g>
     </g>
     <g id="line2d_15">
      <g>
       <use style="stroke:#000000;stroke-width:0.5;" x="352.1325" xlink:href="#mcef3714238" y="23.14175"/>
      </g>
     </g>
     <g id="text_7">
      <!-- 1200 -->
      <g transform="translate(336.8625 381.859875)scale(0.12 -0.12)">
       <use xlink:href="#BitstreamVeraSans-Roman-31"/>
       <use x="63.623046875" xlink:href="#BitstreamVeraSans-Roman-32"/>
       <use x="127.24609375" xlink:href="#BitstreamVeraSans-Roman-30"/>
       <use x="190.869140625" xlink:href="#BitstreamVeraSans-Roman-30"/>
      </g>
     </g>
    </g>
    <g id="xtick_8">
     <g id="line2d_16">
      <g>
       <use style="stroke:#000000;stroke-width:0.5;" x="401.7325" xlink:href="#me235adfa85" y="368.74175"/>
      </g>
     </g>
     <g id="line2d_17">
      <g>
       <use style="stroke:#000000;stroke-width:0.5;" x="401.7325" xlink:href="#mcef3714238" y="23.14175"/>
      </g>
     </g>
     <g id="text_8">
      <!-- 1400 -->
      <g transform="translate(386.4625 381.859875)scale(0.12 -0.12)">
       <use xlink:href="#BitstreamVeraSans-Roman-31"/>
       <use x="63.623046875" xlink:href="#BitstreamVeraSans-Roman-34"/>
       <use x="127.24609375" xlink:href="#BitstreamVeraSans-Roman-30"/>
       <use x="190.869140625" xlink:href="#BitstreamVeraSans-Roman-30"/>
      </g>
     </g>
    </g>
    <g id="xtick_9">
     <g id="line2d_18">
      <g>
       <use style="stroke:#000000;stroke-width:0.5;" x="451.3325" xlink:href="#me235adfa85" y="368.74175"/>
      </g>
     </g>
     <g id="line2d_19">
      <g>
       <use style="stroke:#000000;stroke-width:0.5;" x="451.3325" xlink:href="#mcef3714238" y="23.14175"/>
      </g>
     </g>
     <g id="text_9">
      <!-- 1600 -->
      <g transform="translate(436.0625 381.859875)scale(0.12 -0.12)">
       <use xlink:href="#BitstreamVeraSans-Roman-31"/>
       <use x="63.623046875" xlink:href="#BitstreamVeraSans-Roman-36"/>
       <use x="127.24609375" xlink:href="#BitstreamVeraSans-Roman-30"/>
       <use x="190.869140625" xlink:href="#BitstreamVeraSans-Roman-30"/>
      </g>
     </g>
    </g>
    <g id="xtick_10">
     <g id="line2d_20">
      <g>
       <use style="stroke:#000000;stroke-width:0.5;" x="500.9325" xlink:href="#me235adfa85" y="368.74175"/>
      </g>
     </g>
     <g id="line2d_21">
      <g>
       <use style="stroke:#000000;stroke-width:0.5;" x="500.9325" xlink:href="#mcef3714238" y="23.14175"/>
      </g>
     </g>
     <g id="text_10">
      <!-- 1800 -->
      <g transform="translate(485.6625 381.859875)scale(0.12 -0.12)">
       <use xlink:href="#BitstreamVeraSans-Roman-31"/>
       <use x="63.623046875" xlink:href="#BitstreamVeraSans-Roman-38"/>
       <use x="127.24609375" xlink:href="#BitstreamVeraSans-Roman-30"/>
       <use x="190.869140625" xlink:href="#BitstreamVeraSans-Roman-30"/>
      </g>
     </g>
    </g>
    <g id="text_11">
     <!-- episodes -->
     <defs>
      <path d="M 30.609375 48.390625 
Q 23.390625 48.390625 19.1875 42.75 
Q 14.984375 37.109375 14.984375 27.296875 
Q 14.984375 17.484375 19.15625 11.84375 
Q 23.34375 6.203125 30.609375 6.203125 
Q 37.796875 6.203125 41.984375 11.859375 
Q 46.1875 17.53125 46.1875 27.296875 
Q 46.1875 37.015625 41.984375 42.703125 
Q 37.796875 48.390625 30.609375 48.390625 
M 30.609375 56 
Q 42.328125 56 49.015625 48.375 
Q 55.71875 40.765625 55.71875 27.296875 
Q 55.71875 13.875 49.015625 6.21875 
Q 42.328125 -1.421875 30.609375 -1.421875 
Q 18.84375 -1.421875 12.171875 6.21875 
Q 5.515625 13.875 5.515625 27.296875 
Q 5.515625 40.765625 12.171875 48.375 
Q 18.84375 56 30.609375 56 
" id="BitstreamVeraSans-Roman-6f"/>
      <path d="M 45.40625 46.390625 
L 45.40625 75.984375 
L 54.390625 75.984375 
L 54.390625 0 
L 45.40625 0 
L 45.40625 8.203125 
Q 42.578125 3.328125 38.25 0.953125 
Q 33.9375 -1.421875 27.875 -1.421875 
Q 17.96875 -1.421875 11.734375 6.484375 
Q 5.515625 14.40625 5.515625 27.296875 
Q 5.515625 40.1875 11.734375 48.09375 
Q 17.96875 56 27.875 56 
Q 33.9375 56 38.25 53.625 
Q 42.578125 51.265625 45.40625 46.390625 
M 14.796875 27.296875 
Q 14.796875 17.390625 18.875 11.75 
Q 22.953125 6.109375 30.078125 6.109375 
Q 37.203125 6.109375 41.296875 11.75 
Q 45.40625 17.390625 45.40625 27.296875 
Q 45.40625 37.203125 41.296875 42.84375 
Q 37.203125 48.484375 30.078125 48.484375 
Q 22.953125 48.484375 18.875 42.84375 
Q 14.796875 37.203125 14.796875 27.296875 
" id="BitstreamVeraSans-Roman-64"/>
      <path d="M 18.109375 8.203125 
L 18.109375 -20.796875 
L 9.078125 -20.796875 
L 9.078125 54.6875 
L 18.109375 54.6875 
L 18.109375 46.390625 
Q 20.953125 51.265625 25.265625 53.625 
Q 29.59375 56 35.59375 56 
Q 45.5625 56 51.78125 48.09375 
Q 58.015625 40.1875 58.015625 27.296875 
Q 58.015625 14.40625 51.78125 6.484375 
Q 45.5625 -1.421875 35.59375 -1.421875 
Q 29.59375 -1.421875 25.265625 0.953125 
Q 20.953125 3.328125 18.109375 8.203125 
M 48.6875 27.296875 
Q 48.6875 37.203125 44.609375 42.84375 
Q 40.53125 48.484375 33.40625 48.484375 
Q 26.265625 48.484375 22.1875 42.84375 
Q 18.109375 37.203125 18.109375 27.296875 
Q 18.109375 17.390625 22.1875 11.75 
Q 26.265625 6.109375 33.40625 6.109375 
Q 40.53125 6.109375 44.609375 11.75 
Q 48.6875 17.390625 48.6875 27.296875 
" id="BitstreamVeraSans-Roman-70"/>
      <path d="M 44.28125 53.078125 
L 44.28125 44.578125 
Q 40.484375 46.53125 36.375 47.5 
Q 32.28125 48.484375 27.875 48.484375 
Q 21.1875 48.484375 17.84375 46.4375 
Q 14.5 44.390625 14.5 40.28125 
Q 14.5 37.15625 16.890625 35.375 
Q 19.28125 33.59375 26.515625 31.984375 
L 29.59375 31.296875 
Q 39.15625 29.25 43.1875 25.515625 
Q 47.21875 21.78125 47.21875 15.09375 
Q 47.21875 7.46875 41.1875 3.015625 
Q 35.15625 -1.421875 24.609375 -1.421875 
Q 20.21875 -1.421875 15.453125 -0.5625 
Q 10.6875 0.296875 5.421875 2 
L 5.421875 11.28125 
Q 10.40625 8.6875 15.234375 7.390625 
Q 20.0625 6.109375 24.8125 6.109375 
Q 31.15625 6.109375 34.5625 8.28125 
Q 37.984375 10.453125 37.984375 14.40625 
Q 37.984375 18.0625 35.515625 20.015625 
Q 33.0625 21.96875 24.703125 23.78125 
L 21.578125 24.515625 
Q 13.234375 26.265625 9.515625 29.90625 
Q 5.8125 33.546875 5.8125 39.890625 
Q 5.8125 47.609375 11.28125 51.796875 
Q 16.75 56 26.8125 56 
Q 31.78125 56 36.171875 55.265625 
Q 40.578125 54.546875 44.28125 53.078125 
" id="BitstreamVeraSans-Roman-73"/>
      <path d="M 9.421875 54.6875 
L 18.40625 54.6875 
L 18.40625 0 
L 9.421875 0 
z
M 9.421875 75.984375 
L 18.40625 75.984375 
L 18.40625 64.59375 
L 9.421875 64.59375 
z
" id="BitstreamVeraSans-Roman-69"/>
      <path d="M 56.203125 29.59375 
L 56.203125 25.203125 
L 14.890625 25.203125 
Q 15.484375 15.921875 20.484375 11.0625 
Q 25.484375 6.203125 34.421875 6.203125 
Q 39.59375 6.203125 44.453125 7.46875 
Q 49.3125 8.734375 54.109375 11.28125 
L 54.109375 2.78125 
Q 49.265625 0.734375 44.1875 -0.34375 
Q 39.109375 -1.421875 33.890625 -1.421875 
Q 20.796875 -1.421875 13.15625 6.1875 
Q 5.515625 13.8125 5.515625 26.8125 
Q 5.515625 40.234375 12.765625 48.109375 
Q 20.015625 56 32.328125 56 
Q 43.359375 56 49.78125 48.890625 
Q 56.203125 41.796875 56.203125 29.59375 
M 47.21875 32.234375 
Q 47.125 39.59375 43.09375 43.984375 
Q 39.0625 48.390625 32.421875 48.390625 
Q 24.90625 48.390625 20.390625 44.140625 
Q 15.875 39.890625 15.1875 32.171875 
z
" id="BitstreamVeraSans-Roman-65"/>
     </defs>
     <g transform="translate(251.14125 398.473625)scale(0.12 -0.12)">
      <use xlink:href="#BitstreamVeraSans-Roman-65"/>
      <use x="61.5234375" xlink:href="#BitstreamVeraSans-Roman-70"/>
      <use x="125.0" xlink:href="#BitstreamVeraSans-Roman-69"/>
      <use x="152.783203125" xlink:href="#BitstreamVeraSans-Roman-73"/>
      <use x="204.8828125" xlink:href="#BitstreamVeraSans-Roman-6f"/>
      <use x="266.064453125" xlink:href="#BitstreamVeraSans-Roman-64"/>
      <use x="329.541015625" xlink:href="#BitstreamVeraSans-Roman-65"/>
      <use x="391.064453125" xlink:href="#BitstreamVeraSans-Roman-73"/>
     </g>
    </g>
   </g>
   <g id="matplotlib.axis_2">
    <g id="ytick_1">
     <g id="line2d_22">
      <defs>
       <path d="M 0 0 
L 4 0 
" id="m4b0237f2a3" style="stroke:#000000;stroke-width:0.5;"/>
      </defs>
      <g>
       <use style="stroke:#000000;stroke-width:0.5;" x="54.5325" xlink:href="#m4b0237f2a3" y="368.74175"/>
      </g>
     </g>
     <g id="line2d_23">
      <defs>
       <path d="M 0 0 
L -4 0 
" id="m88806148ca" style="stroke:#000000;stroke-width:0.5;"/>
      </defs>
      <g>
       <use style="stroke:#000000;stroke-width:0.5;" x="500.9325" xlink:href="#m88806148ca" y="368.74175"/>
      </g>
     </g>
     <g id="text_12">
      <!-- 0.00 -->
      <defs>
       <path d="M 10.6875 12.40625 
L 21 12.40625 
L 21 0 
L 10.6875 0 
z
" id="BitstreamVeraSans-Roman-2e"/>
      </defs>
      <g transform="translate(23.81375 372.053)scale(0.12 -0.12)">
       <use xlink:href="#BitstreamVeraSans-Roman-30"/>
       <use x="63.623046875" xlink:href="#BitstreamVeraSans-Roman-2e"/>
       <use x="95.41015625" xlink:href="#BitstreamVeraSans-Roman-30"/>
       <use x="159.033203125" xlink:href="#BitstreamVeraSans-Roman-30"/>
      </g>
     </g>
    </g>
    <g id="ytick_2">
     <g id="line2d_24">
      <g>
       <use style="stroke:#000000;stroke-width:0.5;" x="54.5325" xlink:href="#m4b0237f2a3" y="282.34175"/>
      </g>
     </g>
     <g id="line2d_25">
      <g>
       <use style="stroke:#000000;stroke-width:0.5;" x="500.9325" xlink:href="#m88806148ca" y="282.34175"/>
      </g>
     </g>
     <g id="text_13">
      <!-- 0.05 -->
      <defs>
       <path d="M 10.796875 72.90625 
L 49.515625 72.90625 
L 49.515625 64.59375 
L 19.828125 64.59375 
L 19.828125 46.734375 
Q 21.96875 47.46875 24.109375 47.828125 
Q 26.265625 48.1875 28.421875 48.1875 
Q 40.625 48.1875 47.75 41.5 
Q 54.890625 34.8125 54.890625 23.390625 
Q 54.890625 11.625 47.5625 5.09375 
Q 40.234375 -1.421875 26.90625 -1.421875 
Q 22.3125 -1.421875 17.546875 -0.640625 
Q 12.796875 0.140625 7.71875 1.703125 
L 7.71875 11.625 
Q 12.109375 9.234375 16.796875 8.0625 
Q 21.484375 6.890625 26.703125 6.890625 
Q 35.15625 6.890625 40.078125 11.328125 
Q 45.015625 15.765625 45.015625 23.390625 
Q 45.015625 31 40.078125 35.4375 
Q 35.15625 39.890625 26.703125 39.890625 
Q 22.75 39.890625 18.8125 39.015625 
Q 14.890625 38.140625 10.796875 36.28125 
z
" id="BitstreamVeraSans-Roman-35"/>
      </defs>
      <g transform="translate(23.81375 285.653)scale(0.12 -0.12)">
       <use xlink:href="#BitstreamVeraSans-Roman-30"/>
       <use x="63.623046875" xlink:href="#BitstreamVeraSans-Roman-2e"/>
       <use x="95.41015625" xlink:href="#BitstreamVeraSans-Roman-30"/>
       <use x="159.033203125" xlink:href="#BitstreamVeraSans-Roman-35"/>
      </g>
     </g>
    </g>
    <g id="ytick_3">
     <g id="line2d_26">
      <g>
       <use style="stroke:#000000;stroke-width:0.5;" x="54.5325" xlink:href="#m4b0237f2a3" y="195.94175"/>
      </g>
     </g>
     <g id="line2d_27">
      <g>
       <use style="stroke:#000000;stroke-width:0.5;" x="500.9325" xlink:href="#m88806148ca" y="195.94175"/>
      </g>
     </g>
     <g id="text_14">
      <!-- 0.10 -->
      <g transform="translate(23.81375 199.253)scale(0.12 -0.12)">
       <use xlink:href="#BitstreamVeraSans-Roman-30"/>
       <use x="63.623046875" xlink:href="#BitstreamVeraSans-Roman-2e"/>
       <use x="95.41015625" xlink:href="#BitstreamVeraSans-Roman-31"/>
       <use x="159.033203125" xlink:href="#BitstreamVeraSans-Roman-30"/>
      </g>
     </g>
    </g>
    <g id="ytick_4">
     <g id="line2d_28">
      <g>
       <use style="stroke:#000000;stroke-width:0.5;" x="54.5325" xlink:href="#m4b0237f2a3" y="109.54175"/>
      </g>
     </g>
     <g id="line2d_29">
      <g>
       <use style="stroke:#000000;stroke-width:0.5;" x="500.9325" xlink:href="#m88806148ca" y="109.54175"/>
      </g>
     </g>
     <g id="text_15">
      <!-- 0.15 -->
      <g transform="translate(23.81375 112.853)scale(0.12 -0.12)">
       <use xlink:href="#BitstreamVeraSans-Roman-30"/>
       <use x="63.623046875" xlink:href="#BitstreamVeraSans-Roman-2e"/>
       <use x="95.41015625" xlink:href="#BitstreamVeraSans-Roman-31"/>
       <use x="159.033203125" xlink:href="#BitstreamVeraSans-Roman-35"/>
      </g>
     </g>
    </g>
    <g id="ytick_5">
     <g id="line2d_30">
      <g>
       <use style="stroke:#000000;stroke-width:0.5;" x="54.5325" xlink:href="#m4b0237f2a3" y="23.14175"/>
      </g>
     </g>
     <g id="line2d_31">
      <g>
       <use style="stroke:#000000;stroke-width:0.5;" x="500.9325" xlink:href="#m88806148ca" y="23.14175"/>
      </g>
     </g>
     <g id="text_16">
      <!-- 0.20 -->
      <g transform="translate(23.81375 26.453)scale(0.12 -0.12)">
       <use xlink:href="#BitstreamVeraSans-Roman-30"/>
       <use x="63.623046875" xlink:href="#BitstreamVeraSans-Roman-2e"/>
       <use x="95.41015625" xlink:href="#BitstreamVeraSans-Roman-32"/>
       <use x="159.033203125" xlink:href="#BitstreamVeraSans-Roman-30"/>
      </g>
     </g>
    </g>
    <g id="text_17">
     <!-- average maxQ -->
     <defs>
      <path d="M 45.40625 27.984375 
Q 45.40625 37.75 41.375 43.109375 
Q 37.359375 48.484375 30.078125 48.484375 
Q 22.859375 48.484375 18.828125 43.109375 
Q 14.796875 37.75 14.796875 27.984375 
Q 14.796875 18.265625 18.828125 12.890625 
Q 22.859375 7.515625 30.078125 7.515625 
Q 37.359375 7.515625 41.375 12.890625 
Q 45.40625 18.265625 45.40625 27.984375 
M 54.390625 6.78125 
Q 54.390625 -7.171875 48.1875 -13.984375 
Q 42 -20.796875 29.203125 -20.796875 
Q 24.46875 -20.796875 20.265625 -20.09375 
Q 16.0625 -19.390625 12.109375 -17.921875 
L 12.109375 -9.1875 
Q 16.0625 -11.328125 19.921875 -12.34375 
Q 23.78125 -13.375 27.78125 -13.375 
Q 36.625 -13.375 41.015625 -8.765625 
Q 45.40625 -4.15625 45.40625 5.171875 
L 45.40625 9.625 
Q 42.625 4.78125 38.28125 2.390625 
Q 33.9375 0 27.875 0 
Q 17.828125 0 11.671875 7.65625 
Q 5.515625 15.328125 5.515625 27.984375 
Q 5.515625 40.671875 11.671875 48.328125 
Q 17.828125 56 27.875 56 
Q 33.9375 56 38.28125 53.609375 
Q 42.625 51.21875 45.40625 46.390625 
L 45.40625 54.6875 
L 54.390625 54.6875 
z
" id="BitstreamVeraSans-Roman-67"/>
      <path d="M 52 44.1875 
Q 55.375 50.25 60.0625 53.125 
Q 64.75 56 71.09375 56 
Q 79.640625 56 84.28125 50.015625 
Q 88.921875 44.046875 88.921875 33.015625 
L 88.921875 0 
L 79.890625 0 
L 79.890625 32.71875 
Q 79.890625 40.578125 77.09375 44.375 
Q 74.3125 48.1875 68.609375 48.1875 
Q 61.625 48.1875 57.5625 43.546875 
Q 53.515625 38.921875 53.515625 30.90625 
L 53.515625 0 
L 44.484375 0 
L 44.484375 32.71875 
Q 44.484375 40.625 41.703125 44.40625 
Q 38.921875 48.1875 33.109375 48.1875 
Q 26.21875 48.1875 22.15625 43.53125 
Q 18.109375 38.875 18.109375 30.90625 
L 18.109375 0 
L 9.078125 0 
L 9.078125 54.6875 
L 18.109375 54.6875 
L 18.109375 46.1875 
Q 21.1875 51.21875 25.484375 53.609375 
Q 29.78125 56 35.6875 56 
Q 41.65625 56 45.828125 52.96875 
Q 50 49.953125 52 44.1875 
" id="BitstreamVeraSans-Roman-6d"/>
      <path d="M 2.984375 54.6875 
L 12.5 54.6875 
L 29.59375 8.796875 
L 46.6875 54.6875 
L 56.203125 54.6875 
L 35.6875 0 
L 23.484375 0 
z
" id="BitstreamVeraSans-Roman-76"/>
      <path d="M 39.40625 66.21875 
Q 28.65625 66.21875 22.328125 58.203125 
Q 16.015625 50.203125 16.015625 36.375 
Q 16.015625 22.609375 22.328125 14.59375 
Q 28.65625 6.59375 39.40625 6.59375 
Q 50.140625 6.59375 56.421875 14.59375 
Q 62.703125 22.609375 62.703125 36.375 
Q 62.703125 50.203125 56.421875 58.203125 
Q 50.140625 66.21875 39.40625 66.21875 
M 53.21875 1.3125 
L 66.21875 -12.890625 
L 54.296875 -12.890625 
L 43.5 -1.21875 
Q 41.890625 -1.3125 41.03125 -1.359375 
Q 40.1875 -1.421875 39.40625 -1.421875 
Q 24.03125 -1.421875 14.8125 8.859375 
Q 5.609375 19.140625 5.609375 36.375 
Q 5.609375 53.65625 14.8125 63.9375 
Q 24.03125 74.21875 39.40625 74.21875 
Q 54.734375 74.21875 63.90625 63.9375 
Q 73.09375 53.65625 73.09375 36.375 
Q 73.09375 23.6875 67.984375 14.640625 
Q 62.890625 5.609375 53.21875 1.3125 
" id="BitstreamVeraSans-Roman-51"/>
      <path id="BitstreamVeraSans-Roman-20"/>
      <path d="M 41.109375 46.296875 
Q 39.59375 47.171875 37.8125 47.578125 
Q 36.03125 48 33.890625 48 
Q 26.265625 48 22.1875 43.046875 
Q 18.109375 38.09375 18.109375 28.8125 
L 18.109375 0 
L 9.078125 0 
L 9.078125 54.6875 
L 18.109375 54.6875 
L 18.109375 46.1875 
Q 20.953125 51.171875 25.484375 53.578125 
Q 30.03125 56 36.53125 56 
Q 37.453125 56 38.578125 55.875 
Q 39.703125 55.765625 41.0625 55.515625 
z
" id="BitstreamVeraSans-Roman-72"/>
      <path d="M 54.890625 54.6875 
L 35.109375 28.078125 
L 55.90625 0 
L 45.3125 0 
L 29.390625 21.484375 
L 13.484375 0 
L 2.875 0 
L 24.125 28.609375 
L 4.6875 54.6875 
L 15.28125 54.6875 
L 29.78125 35.203125 
L 44.28125 54.6875 
z
" id="BitstreamVeraSans-Roman-78"/>
      <path d="M 34.28125 27.484375 
Q 23.390625 27.484375 19.1875 25 
Q 14.984375 22.515625 14.984375 16.5 
Q 14.984375 11.71875 18.140625 8.90625 
Q 21.296875 6.109375 26.703125 6.109375 
Q 34.1875 6.109375 38.703125 11.40625 
Q 43.21875 16.703125 43.21875 25.484375 
L 43.21875 27.484375 
z
M 52.203125 31.203125 
L 52.203125 0 
L 43.21875 0 
L 43.21875 8.296875 
Q 40.140625 3.328125 35.546875 0.953125 
Q 30.953125 -1.421875 24.3125 -1.421875 
Q 15.921875 -1.421875 10.953125 3.296875 
Q 6 8.015625 6 15.921875 
Q 6 25.140625 12.171875 29.828125 
Q 18.359375 34.515625 30.609375 34.515625 
L 43.21875 34.515625 
L 43.21875 35.40625 
Q 43.21875 41.609375 39.140625 45 
Q 35.0625 48.390625 27.6875 48.390625 
Q 23 48.390625 18.546875 47.265625 
Q 14.109375 46.140625 10.015625 43.890625 
L 10.015625 52.203125 
Q 14.9375 54.109375 19.578125 55.046875 
Q 24.21875 56 28.609375 56 
Q 40.484375 56 46.34375 49.84375 
Q 52.203125 43.703125 52.203125 31.203125 
" id="BitstreamVeraSans-Roman-61"/>
     </defs>
     <g transform="translate(16.318125 240.208625)rotate(-90.0)scale(0.12 -0.12)">
      <use xlink:href="#BitstreamVeraSans-Roman-61"/>
      <use x="61.279296875" xlink:href="#BitstreamVeraSans-Roman-76"/>
      <use x="120.458984375" xlink:href="#BitstreamVeraSans-Roman-65"/>
      <use x="181.982421875" xlink:href="#BitstreamVeraSans-Roman-72"/>
      <use x="223.095703125" xlink:href="#BitstreamVeraSans-Roman-61"/>
      <use x="284.375" xlink:href="#BitstreamVeraSans-Roman-67"/>
      <use x="347.8515625" xlink:href="#BitstreamVeraSans-Roman-65"/>
      <use x="409.375" xlink:href="#BitstreamVeraSans-Roman-20"/>
      <use x="441.162109375" xlink:href="#BitstreamVeraSans-Roman-6d"/>
      <use x="538.57421875" xlink:href="#BitstreamVeraSans-Roman-61"/>
      <use x="599.853515625" xlink:href="#BitstreamVeraSans-Roman-78"/>
      <use x="659.033203125" xlink:href="#BitstreamVeraSans-Roman-51"/>
     </g>
    </g>
   </g>
   <g id="text_18">
    <!-- Average maxQ per episode, joint3 -->
    <defs>
     <path d="M 54.890625 33.015625 
L 54.890625 0 
L 45.90625 0 
L 45.90625 32.71875 
Q 45.90625 40.484375 42.875 44.328125 
Q 39.84375 48.1875 33.796875 48.1875 
Q 26.515625 48.1875 22.3125 43.546875 
Q 18.109375 38.921875 18.109375 30.90625 
L 18.109375 0 
L 9.078125 0 
L 9.078125 54.6875 
L 18.109375 54.6875 
L 18.109375 46.1875 
Q 21.34375 51.125 25.703125 53.5625 
Q 30.078125 56 35.796875 56 
Q 45.21875 56 50.046875 50.171875 
Q 54.890625 44.34375 54.890625 33.015625 
" id="BitstreamVeraSans-Roman-6e"/>
     <path d="M 18.3125 70.21875 
L 18.3125 54.6875 
L 36.8125 54.6875 
L 36.8125 47.703125 
L 18.3125 47.703125 
L 18.3125 18.015625 
Q 18.3125 11.328125 20.140625 9.421875 
Q 21.96875 7.515625 27.59375 7.515625 
L 36.8125 7.515625 
L 36.8125 0 
L 27.59375 0 
Q 17.1875 0 13.234375 3.875 
Q 9.28125 7.765625 9.28125 18.015625 
L 9.28125 47.703125 
L 2.6875 47.703125 
L 2.6875 54.6875 
L 9.28125 54.6875 
L 9.28125 70.21875 
z
" id="BitstreamVeraSans-Roman-74"/>
     <path d="M 9.421875 54.6875 
L 18.40625 54.6875 
L 18.40625 -0.984375 
Q 18.40625 -11.421875 14.421875 -16.109375 
Q 10.453125 -20.796875 1.609375 -20.796875 
L -1.8125 -20.796875 
L -1.8125 -13.1875 
L 0.59375 -13.1875 
Q 5.71875 -13.1875 7.5625 -10.8125 
Q 9.421875 -8.453125 9.421875 -0.984375 
z
M 9.421875 75.984375 
L 18.40625 75.984375 
L 18.40625 64.59375 
L 9.421875 64.59375 
z
" id="BitstreamVeraSans-Roman-6a"/>
     <path d="M 34.1875 63.1875 
L 20.796875 26.90625 
L 47.609375 26.90625 
z
M 28.609375 72.90625 
L 39.796875 72.90625 
L 67.578125 0 
L 57.328125 0 
L 50.6875 18.703125 
L 17.828125 18.703125 
L 11.1875 0 
L 0.78125 0 
z
" id="BitstreamVeraSans-Roman-41"/>
     <path d="M 11.71875 12.40625 
L 22.015625 12.40625 
L 22.015625 4 
L 14.015625 -11.625 
L 7.71875 -11.625 
L 11.71875 4 
z
" id="BitstreamVeraSans-Roman-2c"/>
     <path d="M 40.578125 39.3125 
Q 47.65625 37.796875 51.625 33 
Q 55.609375 28.21875 55.609375 21.1875 
Q 55.609375 10.40625 48.1875 4.484375 
Q 40.765625 -1.421875 27.09375 -1.421875 
Q 22.515625 -1.421875 17.65625 -0.515625 
Q 12.796875 0.390625 7.625 2.203125 
L 7.625 11.71875 
Q 11.71875 9.328125 16.59375 8.109375 
Q 21.484375 6.890625 26.8125 6.890625 
Q 36.078125 6.890625 40.9375 10.546875 
Q 45.796875 14.203125 45.796875 21.1875 
Q 45.796875 27.640625 41.28125 31.265625 
Q 36.765625 34.90625 28.71875 34.90625 
L 20.21875 34.90625 
L 20.21875 43.015625 
L 29.109375 43.015625 
Q 36.375 43.015625 40.234375 45.921875 
Q 44.09375 48.828125 44.09375 54.296875 
Q 44.09375 59.90625 40.109375 62.90625 
Q 36.140625 65.921875 28.71875 65.921875 
Q 24.65625 65.921875 20.015625 65.03125 
Q 15.375 64.15625 9.8125 62.3125 
L 9.8125 71.09375 
Q 15.4375 72.65625 20.34375 73.4375 
Q 25.25 74.21875 29.59375 74.21875 
Q 40.828125 74.21875 47.359375 69.109375 
Q 53.90625 64.015625 53.90625 55.328125 
Q 53.90625 49.265625 50.4375 45.09375 
Q 46.96875 40.921875 40.578125 39.3125 
" id="BitstreamVeraSans-Roman-33"/>
    </defs>
    <g transform="translate(154.4595 18.14175)scale(0.144 -0.144)">
     <use xlink:href="#BitstreamVeraSans-Roman-41"/>
     <use x="68.330078125" xlink:href="#BitstreamVeraSans-Roman-76"/>
     <use x="127.509765625" xlink:href="#BitstreamVeraSans-Roman-65"/>
     <use x="189.033203125" xlink:href="#BitstreamVeraSans-Roman-72"/>
     <use x="230.146484375" xlink:href="#BitstreamVeraSans-Roman-61"/>
     <use x="291.42578125" xlink:href="#BitstreamVeraSans-Roman-67"/>
     <use x="354.90234375" xlink:href="#BitstreamVeraSans-Roman-65"/>
     <use x="416.42578125" xlink:href="#BitstreamVeraSans-Roman-20"/>
     <use x="448.212890625" xlink:href="#BitstreamVeraSans-Roman-6d"/>
     <use x="545.625" xlink:href="#BitstreamVeraSans-Roman-61"/>
     <use x="606.904296875" xlink:href="#BitstreamVeraSans-Roman-78"/>
     <use x="666.083984375" xlink:href="#BitstreamVeraSans-Roman-51"/>
     <use x="744.794921875" xlink:href="#BitstreamVeraSans-Roman-20"/>
     <use x="776.58203125" xlink:href="#BitstreamVeraSans-Roman-70"/>
     <use x="840.05859375" xlink:href="#BitstreamVeraSans-Roman-65"/>
     <use x="901.58203125" xlink:href="#BitstreamVeraSans-Roman-72"/>
     <use x="942.6953125" xlink:href="#BitstreamVeraSans-Roman-20"/>
     <use x="974.482421875" xlink:href="#BitstreamVeraSans-Roman-65"/>
     <use x="1036.005859375" xlink:href="#BitstreamVeraSans-Roman-70"/>
     <use x="1099.482421875" xlink:href="#BitstreamVeraSans-Roman-69"/>
     <use x="1127.265625" xlink:href="#BitstreamVeraSans-Roman-73"/>
     <use x="1179.365234375" xlink:href="#BitstreamVeraSans-Roman-6f"/>
     <use x="1240.546875" xlink:href="#BitstreamVeraSans-Roman-64"/>
     <use x="1304.0234375" xlink:href="#BitstreamVeraSans-Roman-65"/>
     <use x="1365.546875" xlink:href="#BitstreamVeraSans-Roman-2c"/>
     <use x="1397.333984375" xlink:href="#BitstreamVeraSans-Roman-20"/>
     <use x="1429.12109375" xlink:href="#BitstreamVeraSans-Roman-6a"/>
     <use x="1456.904296875" xlink:href="#BitstreamVeraSans-Roman-6f"/>
     <use x="1518.0859375" xlink:href="#BitstreamVeraSans-Roman-69"/>
     <use x="1545.869140625" xlink:href="#BitstreamVeraSans-Roman-6e"/>
     <use x="1609.248046875" xlink:href="#BitstreamVeraSans-Roman-74"/>
     <use x="1648.45703125" xlink:href="#BitstreamVeraSans-Roman-33"/>
    </g>
   </g>
  </g>
 </g>
 <defs>
  <clipPath id="p42ad2cdcf0">
   <rect height="345.6" width="446.4" x="54.5325" y="23.14175"/>
  </clipPath>
 </defs>
</svg>
