<?xml version="1.0" encoding="utf-8" standalone="no"?>
<!DOCTYPE svg PUBLIC "-//W3C//DTD SVG 1.1//EN"
  "http://www.w3.org/Graphics/SVG/1.1/DTD/svg11.dtd">
<!-- Created with matplotlib (http://matplotlib.org/) -->
<svg height="408pt" version="1.1" viewBox="0 0 515 408" width="515pt" xmlns="http://www.w3.org/2000/svg" xmlns:xlink="http://www.w3.org/1999/xlink">
 <defs>
  <style type="text/css">
*{stroke-linecap:butt;stroke-linejoin:round;stroke-miterlimit:100000;}
  </style>
 </defs>
 <g id="figure_1">
  <g id="patch_1">
   <path d="M 0 408.16925 
L 515.7675 408.16925 
L 515.7675 0 
L 0 0 
z
" style="fill:#ffffff;"/>
  </g>
  <g id="axes_1">
   <g id="patch_2">
    <path d="M 46.8975 368.74175 
L 493.2975 368.74175 
L 493.2975 23.14175 
L 46.8975 23.14175 
z
" style="fill:#ffffff;"/>
   </g>
   <g id="line2d_1">
    <path clip-path="url(#pdf6fb321e5)" d="M 47.3439 327.089204 
L 50.0223 327.448076 
L 50.4687 327.173704 
L 50.9151 327.133462 
L 51.3615 327.252486 
L 52.2543 327.11963 
L 53.1471 327.063501 
L 53.5935 327.433954 
L 54.0399 327.12807 
L 54.9327 327.100195 
L 55.3791 327.024632 
L 55.8255 327.405221 
L 56.2719 326.79287 
L 56.7183 327.144897 
L 57.6111 327.207055 
L 58.0575 326.895724 
L 58.5039 327.178918 
L 58.9503 327.242338 
L 59.3967 326.94862 
L 59.8431 327.168858 
L 60.2895 327.056164 
L 60.7359 327.336562 
L 61.1823 327.235993 
L 61.6287 327.343597 
L 62.0751 327.02053 
L 63.4143 327.353064 
L 64.3071 327.035549 
L 64.7535 327.026381 
L 65.1999 327.15959 
L 66.9855 326.94344 
L 67.4319 327.177743 
L 68.3247 327.232408 
L 68.7711 327.126558 
L 69.2175 327.263582 
L 69.6639 327.106282 
L 70.1103 365.145276 
L 70.5567 347.386185 
L 71.0031 350.025075 
L 71.8959 351.86296 
L 72.3423 352.220259 
L 72.7887 352.101306 
L 73.2351 352.098475 
L 73.6815 352.388088 
L 74.5743 351.901647 
L 75.4671 352.050631 
L 76.3599 351.664402 
L 76.8063 351.923521 
L 77.2527 351.5593 
L 77.6991 351.816671 
L 78.5919 351.385451 
L 79.4847 351.570974 
L 80.8239 351.083374 
L 81.2703 351.292413 
L 81.7167 351.824883 
L 82.1631 350.879874 
L 82.6095 351.196488 
L 83.0559 350.895064 
L 83.5023 351.397405 
L 83.9487 351.18802 
L 84.3951 350.582817 
L 84.8415 350.725823 
L 85.7343 350.695891 
L 86.1807 350.501418 
L 86.6271 350.113968 
L 87.0735 350.615264 
L 87.9663 351.239676 
L 88.4127 349.982072 
L 88.8591 349.791329 
L 89.7519 350.874951 
L 90.1983 349.718917 
L 90.6447 349.470167 
L 91.0911 351.258692 
L 91.5375 349.798344 
L 92.4303 349.421235 
L 92.8767 349.073412 
L 93.3231 350.258299 
L 93.7695 348.665689 
L 94.2159 348.62956 
L 94.6623 348.197274 
L 95.1087 349.535616 
L 95.5551 348.644666 
L 96.0015 349.092363 
L 96.4479 348.663222 
L 96.8943 349.121594 
L 97.3407 348.938486 
L 97.7871 348.067242 
L 98.2335 349.06629 
L 98.6799 347.333899 
L 99.1263 347.922236 
L 99.5727 352.549827 
L 100.0191 348.315264 
L 100.4655 349.113109 
L 100.9119 347.623424 
L 101.3583 346.921078 
L 101.8047 348.759971 
L 102.2511 347.598824 
L 102.6975 348.637347 
L 103.1439 348.336181 
L 103.5903 347.750234 
L 104.0367 347.529637 
L 104.4831 346.613157 
L 104.9295 348.237224 
L 105.3759 346.117398 
L 105.8223 348.374082 
L 106.2687 346.890957 
L 106.7151 347.968914 
L 107.1615 348.410272 
L 107.6079 348.008539 
L 108.0543 346.856444 
L 108.5007 348.642666 
L 108.9471 347.801543 
L 109.3935 347.908371 
L 109.8399 344.603553 
L 110.2863 344.867737 
L 110.7327 348.304092 
L 111.1791 346.690804 
L 111.6255 346.447596 
L 112.0719 346.523986 
L 112.5183 345.145901 
L 113.4111 346.948307 
L 113.8575 343.014025 
L 114.3039 346.620527 
L 114.7503 344.012343 
L 115.1967 347.656683 
L 115.6431 347.811524 
L 116.0895 345.105163 
L 116.5359 346.371233 
L 116.9823 341.996626 
L 117.8751 347.302723 
L 118.3215 343.768074 
L 118.7679 344.903436 
L 119.2143 341.257428 
L 119.6607 340.978863 
L 120.1071 349.088544 
L 120.5535 346.768862 
L 120.9999 339.722348 
L 121.4463 339.197413 
L 121.8927 343.404065 
L 122.3391 341.537597 
L 122.7855 342.65889 
L 123.2319 340.888984 
L 123.6783 341.517433 
L 124.1247 337.886153 
L 124.5711 339.604131 
L 125.0175 342.689865 
L 125.4639 340.715911 
L 125.9103 339.842385 
L 126.3567 339.623628 
L 126.8031 335.781498 
L 127.2495 337.523894 
L 127.6959 336.209213 
L 128.1423 334.484169 
L 128.5887 335.989195 
L 129.0351 332.389146 
L 129.4815 338.987924 
L 129.9279 331.23857 
L 130.3743 348.119293 
L 130.8207 334.600048 
L 131.2671 332.457016 
L 131.7135 326.080125 
L 132.1599 349.038846 
L 132.6063 327.987177 
L 133.0527 332.149827 
L 133.4991 324.801087 
L 133.9455 329.659392 
L 134.3919 323.462511 
L 134.8383 325.594623 
L 135.2847 329.474234 
L 135.7311 328.300697 
L 136.1775 322.159594 
L 136.6239 322.353841 
L 137.0703 321.771762 
L 137.5167 322.934229 
L 137.9631 322.134755 
L 138.4095 325.366004 
L 138.8559 320.662897 
L 139.3023 313.606661 
L 139.7487 319.662973 
L 140.1951 314.184468 
L 140.6415 317.887093 
L 141.0879 318.55195 
L 141.9807 314.573483 
L 142.4271 316.684723 
L 142.8735 314.72684 
L 143.3199 316.494177 
L 143.7663 315.998761 
L 144.2127 311.988137 
L 144.6591 310.882791 
L 145.1055 311.658104 
L 145.5519 315.918317 
L 145.9983 311.230039 
L 146.4447 309.47699 
L 146.8911 304.883305 
L 147.3375 306.742541 
L 147.7839 311.984836 
L 148.2303 307.084873 
L 148.6767 310.035506 
L 149.1231 310.189404 
L 149.5695 316.660328 
L 150.0159 306.904597 
L 150.4623 311.942207 
L 150.9087 305.766805 
L 151.3551 304.23463 
L 151.8015 305.046176 
L 152.2479 297.300054 
L 152.6943 296.890767 
L 153.1407 295.969747 
L 153.5871 302.240985 
L 154.0335 298.879308 
L 154.4799 304.530263 
L 154.9263 302.841164 
L 155.3727 293.759223 
L 155.8191 293.288489 
L 156.2655 306.389259 
L 156.7119 291.924267 
L 157.1583 293.500407 
L 157.6047 292.186009 
L 158.0511 285.461492 
L 158.4975 291.752943 
L 159.3903 282.091569 
L 159.8367 290.673618 
L 160.2831 287.304361 
L 160.7295 282.878981 
L 161.1759 296.206247 
L 161.6223 294.761801 
L 162.0687 286.283343 
L 162.5151 289.627774 
L 162.9615 285.294021 
L 163.4079 292.592382 
L 163.8543 284.269999 
L 164.3007 284.288867 
L 164.7471 283.371605 
L 165.1935 288.277125 
L 165.6399 277.105848 
L 166.0863 277.190721 
L 166.5327 282.521519 
L 166.9791 279.404585 
L 167.4255 280.562749 
L 167.8719 278.037672 
L 168.3183 276.677661 
L 168.7647 275.819782 
L 169.2111 279.246375 
L 170.1039 276.21974 
L 170.5503 283.498655 
L 170.9967 276.828433 
L 171.4431 274.299476 
L 171.8895 281.041157 
L 172.3359 271.758703 
L 172.7823 277.412192 
L 173.2287 275.676849 
L 173.6751 269.322381 
L 174.1215 274.228668 
L 174.5679 281.385736 
L 175.0143 272.800077 
L 175.4607 277.615783 
L 175.9071 263.048615 
L 176.3535 263.982482 
L 176.7999 279.37036 
L 177.2463 270.266407 
L 177.6927 267.673302 
L 178.1391 290.012979 
L 178.5855 277.336763 
L 179.0319 280.558643 
L 179.4783 273.783514 
L 179.9247 272.408081 
L 180.3711 275.339834 
L 180.8175 277.243388 
L 181.2639 269.807783 
L 181.7103 277.257616 
L 182.6031 257.294939 
L 183.0495 270.041713 
L 183.4959 268.346315 
L 183.9423 272.057742 
L 184.3887 264.834143 
L 184.8351 266.637287 
L 185.2815 262.267446 
L 185.7279 255.89432 
L 186.1743 268.698977 
L 187.0671 265.734024 
L 187.5135 266.456067 
L 187.9599 255.89311 
L 188.4063 250.972828 
L 188.8527 264.690471 
L 189.2991 261.041174 
L 189.7455 274.196291 
L 190.1919 259.261316 
L 190.6383 267.21507 
L 191.0847 251.450118 
L 191.5311 255.104129 
L 191.9775 261.013405 
L 192.4239 260.048712 
L 192.8703 255.877421 
L 193.7631 260.245704 
L 194.2095 260.541585 
L 194.6559 262.932509 
L 195.1023 253.152158 
L 195.5487 256.913937 
L 195.9951 265.729136 
L 196.4415 257.195205 
L 196.8879 259.895979 
L 197.3343 256.113725 
L 197.7807 260.240833 
L 198.2271 261.001585 
L 198.6735 250.051491 
L 199.1199 253.301271 
L 199.5663 250.403295 
L 200.4591 256.426476 
L 200.9055 250.903302 
L 201.3519 264.929683 
L 201.7983 251.109813 
L 202.2447 252.895172 
L 202.6911 258.135984 
L 203.1375 251.12367 
L 203.5839 259.070281 
L 204.0303 263.326724 
L 204.4767 258.807119 
L 204.9231 270.722703 
L 205.3695 264.219995 
L 205.8159 269.173253 
L 206.2623 250.652566 
L 206.7087 258.867945 
L 207.1551 253.023432 
L 207.6015 249.471104 
L 208.0479 249.589422 
L 208.4943 258.711544 
L 208.9407 254.010807 
L 209.3871 257.466308 
L 209.8335 257.206532 
L 210.2799 261.896745 
L 210.7263 247.12822 
L 211.1727 250.697743 
L 211.6191 257.15614 
L 212.5119 248.183994 
L 212.9583 253.411305 
L 213.4047 254.517874 
L 213.8511 250.769772 
L 214.2975 252.219042 
L 214.7439 255.59755 
L 215.1903 253.317071 
L 215.6367 263.170114 
L 216.0831 250.371749 
L 216.5295 249.99339 
L 216.9759 257.60003 
L 217.4223 254.134272 
L 217.8687 248.773714 
L 218.7615 243.552048 
L 219.2079 246.544736 
L 219.6543 251.824101 
L 220.1007 249.716935 
L 220.5471 256.905549 
L 221.4399 249.950107 
L 221.8863 245.342434 
L 222.3327 249.604178 
L 222.7791 252.420379 
L 223.2255 248.120804 
L 223.6719 268.86937 
L 224.1183 243.323103 
L 224.5647 247.110822 
L 225.0111 240.917053 
L 225.4575 255.698876 
L 225.9039 248.969325 
L 226.3503 250.000545 
L 226.7967 236.787837 
L 227.2431 239.465213 
L 227.6895 250.958841 
L 228.1359 242.239328 
L 228.5823 249.931053 
L 229.0287 250.318886 
L 229.4751 242.41927 
L 229.9215 238.722238 
L 230.3679 244.386166 
L 230.8143 245.111408 
L 231.2607 243.980364 
L 231.7071 235.841781 
L 232.1535 240.408592 
L 233.0463 239.372711 
L 233.4927 238.024401 
L 233.9391 235.058288 
L 234.3855 235.244841 
L 234.8319 240.191436 
L 235.2783 240.041799 
L 235.7247 233.376617 
L 236.1711 231.486725 
L 236.6175 234.344143 
L 237.0639 229.907387 
L 237.5103 228.4169 
L 237.9567 240.350617 
L 238.4031 226.979238 
L 238.8495 227.663387 
L 239.2959 239.210585 
L 239.7423 232.90947 
L 240.1887 230.542495 
L 240.6351 227.124072 
L 241.0815 230.701617 
L 241.5279 235.892053 
L 241.9743 228.653315 
L 242.4207 231.074607 
L 242.8671 219.82471 
L 243.3135 221.73726 
L 243.7599 216.855159 
L 244.2063 224.39574 
L 244.6527 217.116896 
L 245.0991 228.709477 
L 245.5455 217.364719 
L 245.9919 217.738562 
L 246.4383 232.270506 
L 246.8847 214.482948 
L 247.3311 218.52482 
L 247.7775 208.717057 
L 248.2239 212.124747 
L 248.6703 208.291792 
L 249.1167 203.109913 
L 249.5631 206.86891 
L 250.0095 216.191935 
L 250.4559 247.661149 
L 250.9023 218.84711 
L 251.3487 226.383703 
L 251.7951 203.883645 
L 252.2415 216.282965 
L 252.6879 218.092423 
L 253.1343 210.486984 
L 253.5807 212.255516 
L 254.0271 212.73161 
L 254.4735 208.061081 
L 254.9199 195.557041 
L 255.3663 193.252892 
L 255.8127 203.799804 
L 256.2591 198.333627 
L 256.7055 202.060796 
L 257.1519 207.83069 
L 258.0447 202.368049 
L 258.4911 213.081334 
L 258.9375 193.856723 
L 259.3839 197.479415 
L 259.8303 212.18923 
L 260.2767 205.053375 
L 260.7231 205.818842 
L 261.1695 190.626702 
L 261.6159 217.577757 
L 262.0623 210.585079 
L 262.5087 188.163141 
L 262.9551 204.561489 
L 263.4015 200.52382 
L 263.8479 187.878488 
L 264.2943 202.254587 
L 264.7407 205.630223 
L 265.1871 187.727768 
L 265.6335 188.469892 
L 266.0799 185.418915 
L 266.5263 186.243449 
L 266.9727 200.499682 
L 267.4191 184.167788 
L 267.8655 154.991943 
L 268.3119 156.104451 
L 268.7583 166.27602 
L 269.2047 203.652299 
L 269.6511 171.491067 
L 270.0975 196.351829 
L 270.5439 168.823656 
L 270.9903 208.733149 
L 271.8831 155.375458 
L 272.3295 197.226251 
L 273.2223 154.085859 
L 273.6687 204.272813 
L 274.1151 155.68666 
L 274.5615 164.08852 
L 275.0079 170.220145 
L 275.4543 167.656081 
L 275.9007 165.941304 
L 276.3471 169.184987 
L 276.7935 169.5603 
L 277.2399 153.078096 
L 277.6863 164.427545 
L 278.1327 179.787472 
L 278.5791 130.670674 
L 279.0255 190.079455 
L 279.4719 155.887133 
L 279.9183 169.58501 
L 280.3647 172.672443 
L 280.8111 174.455389 
L 281.2575 147.157653 
L 281.7039 158.590072 
L 282.1503 162.339512 
L 282.5967 171.854349 
L 283.0431 157.814111 
L 283.4895 167.376799 
L 283.9359 160.756416 
L 284.3823 181.995206 
L 284.8287 150.319186 
L 285.2751 169.38525 
L 285.7215 172.54593 
L 286.1679 147.172739 
L 286.6143 147.923887 
L 287.0607 173.921967 
L 287.5071 191.931595 
L 287.9535 158.377081 
L 288.3999 162.36456 
L 288.8463 176.765546 
L 289.2927 170.536399 
L 289.7391 157.257719 
L 290.1855 164.631344 
L 290.6319 152.192478 
L 291.0783 155.081902 
L 291.5247 151.66179 
L 291.9711 152.48572 
L 292.4175 149.042043 
L 292.8639 150.595462 
L 293.3103 153.932931 
L 293.7567 166.889775 
L 294.2031 142.628052 
L 294.6495 172.503887 
L 295.0959 140.611046 
L 295.5423 144.517773 
L 295.9887 166.549571 
L 296.4351 132.820478 
L 296.8815 150.511868 
L 297.3279 129.79786 
L 297.7743 147.51787 
L 298.2207 129.09531 
L 298.6671 140.515321 
L 299.1135 144.693794 
L 299.5599 141.601789 
L 300.0063 145.885679 
L 300.4527 129.91251 
L 300.8991 134.269325 
L 301.3455 126.09919 
L 301.7919 134.973709 
L 302.2383 117.54768 
L 303.1311 152.486046 
L 303.5775 148.991919 
L 304.0239 151.77006 
L 304.4703 132.105302 
L 304.9167 141.00006 
L 305.3631 142.564592 
L 305.8095 128.541678 
L 306.2559 105.000896 
L 306.7023 106.957644 
L 307.1487 136.518701 
L 307.5951 138.020772 
L 308.4879 112.443514 
L 308.9343 107.8688 
L 309.3807 127.644414 
L 309.8271 108.97908 
L 310.2735 103.050424 
L 310.7199 103.642372 
L 311.1663 116.244753 
L 311.6127 100.203733 
L 312.0591 126.498905 
L 312.5055 100.7531 
L 312.9519 117.264511 
L 313.3983 138.172363 
L 313.8447 116.81851 
L 314.2911 106.523018 
L 314.7375 99.560192 
L 315.1839 115.326448 
L 315.6303 90.094224 
L 316.0767 137.534836 
L 316.5231 112.964687 
L 316.9695 127.725487 
L 317.4159 96.135024 
L 317.8623 101.452682 
L 318.3087 109.220907 
L 318.7551 92.435202 
L 319.2015 113.71399 
L 319.6479 100.172943 
L 320.0943 109.32817 
L 320.5407 112.757413 
L 320.9871 113.0513 
L 321.4335 100.486757 
L 321.8799 105.662619 
L 322.3263 108.805408 
L 322.7727 108.05436 
L 323.2191 112.227557 
L 323.6655 111.466529 
L 324.1119 106.850014 
L 324.5583 108.479307 
L 325.0047 100.123546 
L 325.4511 111.12753 
L 325.8975 113.624231 
L 326.3439 122.001499 
L 326.7903 125.972813 
L 327.2367 123.424659 
L 327.6831 116.592063 
L 328.1295 126.77454 
L 328.5759 131.478126 
L 329.0223 128.941923 
L 329.4687 125.599269 
L 329.9151 123.514061 
L 330.3615 122.070529 
L 330.8079 122.424802 
L 331.2543 127.532821 
L 331.7007 125.848076 
L 332.1471 115.473549 
L 332.5935 136.647138 
L 333.0399 117.246438 
L 333.4863 118.18585 
L 333.9327 124.19236 
L 334.3791 113.123376 
L 334.8255 129.674841 
L 335.2719 140.055436 
L 335.7183 133.151812 
L 336.1647 116.930379 
L 336.6111 122.58369 
L 337.0575 138.286538 
L 337.5039 139.314898 
L 337.9503 166.94728 
L 338.3967 153.729058 
L 338.8431 188.630776 
L 339.2895 157.818036 
L 340.1823 136.106634 
L 340.6287 130.741294 
L 341.0751 148.8636 
L 341.5215 132.914698 
L 341.9679 142.365006 
L 342.4143 141.659649 
L 342.8607 138.070326 
L 343.3071 147.31611 
L 343.7535 124.136897 
L 344.1999 130.351518 
L 344.6463 151.201538 
L 345.0927 138.86694 
L 345.5391 140.892496 
L 345.9855 141.43961 
L 346.4319 144.421391 
L 347.3247 130.480057 
L 347.7711 139.268444 
L 348.2175 133.778022 
L 348.6639 132.860479 
L 349.1103 140.664745 
L 349.5567 139.922698 
L 350.0031 132.845658 
L 350.4495 136.640438 
L 350.8959 135.33666 
L 351.3423 140.283787 
L 351.7887 169.664952 
L 352.2351 129.942822 
L 352.6815 129.249771 
L 353.1279 143.731293 
L 353.5743 133.051785 
L 354.0207 146.578723 
L 354.4671 131.32129 
L 354.9135 142.923883 
L 355.3599 134.883311 
L 355.8063 137.346173 
L 356.2527 138.756047 
L 357.1455 130.119111 
L 357.5919 135.448788 
L 358.0383 131.155168 
L 358.4847 131.554527 
L 358.9311 132.510646 
L 359.3775 139.015377 
L 359.8239 139.878275 
L 361.1631 151.097207 
L 361.6095 138.377574 
L 362.0559 187.998558 
L 362.5023 178.469467 
L 362.9487 174.350644 
L 363.3951 131.152806 
L 363.8415 140.093524 
L 364.2879 129.103281 
L 364.7343 133.531342 
L 365.1807 157.133869 
L 365.6271 132.214222 
L 366.0735 146.933779 
L 366.5199 151.458501 
L 366.9663 151.486408 
L 367.4127 137.732843 
L 367.8591 188.952141 
L 368.3055 152.206247 
L 368.7519 148.367091 
L 369.1983 154.274461 
L 369.6447 187.153308 
L 370.0911 150.685055 
L 370.5375 139.109577 
L 370.9839 130.9257 
L 371.4303 129.145585 
L 371.8767 141.8105 
L 372.3231 134.980538 
L 372.7695 155.083195 
L 373.2159 182.670198 
L 373.6623 143.465887 
L 374.1087 148.364305 
L 374.5551 132.287493 
L 375.0015 136.386086 
L 375.4479 132.604012 
L 375.8943 171.511896 
L 376.3407 135.596478 
L 376.7871 174.661145 
L 377.2335 149.337707 
L 377.6799 154.457641 
L 378.1263 129.551378 
L 378.5727 134.65358 
L 379.4655 127.489735 
L 379.9119 141.299636 
L 380.3583 125.020851 
L 380.8047 133.989807 
L 381.2511 124.311458 
L 381.6975 119.732438 
L 382.1439 138.753355 
L 382.5903 177.540881 
L 383.0367 132.359758 
L 383.4831 121.109362 
L 383.9295 139.815187 
L 384.3759 148.512327 
L 384.8223 117.218988 
L 385.2687 134.295016 
L 386.1615 117.416597 
L 386.6079 115.896314 
L 387.0543 117.231485 
L 387.5007 131.405161 
L 387.9471 115.051658 
L 388.3935 135.215096 
L 388.8399 118.0089 
L 389.2863 108.900407 
L 389.7327 134.670628 
L 390.1791 102.423059 
L 390.6255 118.102639 
L 391.0719 100.271262 
L 391.5183 100.541308 
L 391.9647 102.343309 
L 392.4111 126.234356 
L 392.8575 119.660616 
L 393.3039 106.338028 
L 393.7503 115.722893 
L 394.1967 128.839084 
L 394.6431 123.83945 
L 395.0895 100.932553 
L 395.5359 118.694142 
L 395.9823 124.790485 
L 396.4287 114.526983 
L 396.8751 121.079458 
L 397.3215 110.267318 
L 397.7679 105.830864 
L 398.2143 135.851531 
L 398.6607 136.502239 
L 399.1071 110.376624 
L 399.5535 117.83535 
L 399.9999 109.80083 
L 400.4463 139.026765 
L 400.8927 152.281558 
L 401.3391 134.516834 
L 401.7855 130.794904 
L 402.2319 120.609988 
L 402.6783 119.460215 
L 403.1247 100.445535 
L 403.5711 128.510732 
L 404.0175 141.282198 
L 404.4639 95.477478 
L 404.9103 99.674 
L 405.8031 123.503241 
L 406.2495 110.299553 
L 406.6959 118.165083 
L 407.1423 161.534119 
L 407.5887 111.084915 
L 408.0351 138.177941 
L 408.4815 134.993081 
L 408.9279 152.149297 
L 409.3743 142.324352 
L 409.8207 105.217754 
L 410.2671 112.298201 
L 410.7135 95.618829 
L 411.1599 139.476607 
L 412.0527 104.046223 
L 412.4991 142.590415 
L 412.9455 170.172779 
L 413.8383 93.114692 
L 414.2847 79.060061 
L 414.7311 114.575959 
L 415.1775 171.857144 
L 415.6239 114.596698 
L 416.0703 105.064749 
L 416.5167 142.264671 
L 416.9631 99.330916 
L 417.4095 99.545182 
L 417.8559 117.172803 
L 418.3023 143.636579 
L 418.7487 122.435815 
L 419.1951 133.937456 
L 420.0879 113.231519 
L 420.5343 108.393064 
L 420.9807 76.670029 
L 421.4271 119.058029 
L 421.8735 123.390366 
L 422.3199 96.667803 
L 422.7663 174.295242 
L 423.2127 116.822193 
L 423.6591 120.623344 
L 424.1055 96.317496 
L 424.5519 103.788466 
L 424.9983 131.472249 
L 425.4447 107.042489 
L 425.8911 100.225388 
L 426.3375 91.427666 
L 426.7839 88.157565 
L 427.2303 94.023661 
L 427.6767 110.901759 
L 428.1231 137.492002 
L 428.5695 115.565467 
L 429.0159 167.946556 
L 429.9087 94.855021 
L 430.3551 84.790397 
L 430.8015 90.960727 
L 431.2479 92.282156 
L 431.6943 143.756458 
L 432.1407 112.000516 
L 432.5871 106.858597 
L 433.0335 70.958937 
L 433.4799 81.103118 
L 433.9263 139.701474 
L 434.3727 101.073308 
L 434.8191 124.660365 
L 435.2655 83.690947 
L 435.7119 72.016641 
L 436.1583 131.777516 
L 436.6047 126.984855 
L 437.0511 77.024132 
L 437.4975 109.084619 
L 437.9439 119.783764 
L 438.3903 97.833225 
L 438.8367 97.842645 
L 439.2831 103.525466 
L 439.7295 133.852842 
L 440.1759 126.923399 
L 440.6223 83.849429 
L 441.0687 91.588579 
L 441.5151 125.968849 
L 441.9615 86.89385 
L 442.4079 138.364174 
L 442.8543 84.514317 
L 443.3007 124.289552 
L 443.7471 125.744047 
L 444.1935 86.050532 
L 444.6399 84.636413 
L 445.0863 96.915937 
L 445.5327 129.504527 
L 445.9791 86.487191 
L 446.4255 78.226843 
L 446.8719 99.014705 
L 447.3183 108.330077 
L 447.7647 131.550412 
L 448.2111 89.663681 
L 448.6575 76.483581 
L 449.1039 73.851114 
L 449.5503 87.397826 
L 449.9967 78.201419 
L 450.4431 92.909685 
L 450.8895 98.582048 
L 451.3359 121.206344 
L 451.7823 76.349919 
L 452.2287 91.227814 
L 452.6751 94.735836 
L 453.1215 84.558291 
L 453.5679 81.110718 
L 454.0143 85.501411 
L 454.4607 87.28872 
L 454.9071 118.543843 
L 455.3535 84.910116 
L 455.7999 108.978785 
L 456.2463 83.022472 
L 456.6927 77.895978 
L 457.1391 101.711696 
L 457.5855 93.291806 
L 458.0319 94.393005 
L 458.4783 85.838895 
L 458.9247 141.337924 
L 459.3711 89.417164 
L 459.8175 80.39425 
L 460.2639 82.280192 
L 460.7103 84.849505 
L 461.1567 86.288233 
L 461.6031 113.742134 
L 462.0495 80.327084 
L 462.4959 94.333126 
L 462.9423 79.231299 
L 463.3887 93.226861 
L 463.8351 78.612849 
L 464.2815 81.617315 
L 464.7279 99.802806 
L 465.1743 83.355225 
L 465.6207 129.545197 
L 466.0671 89.539185 
L 466.5135 75.320101 
L 466.9599 137.290673 
L 468.2991 80.48083 
L 468.7455 72.275317 
L 469.1919 79.243264 
L 469.6383 89.410265 
L 470.0847 81.884167 
L 470.5311 79.500576 
L 470.9775 89.874621 
L 471.4239 77.335032 
L 471.8703 81.390051 
L 472.3167 69.004078 
L 472.7631 72.534265 
L 473.2095 104.240369 
L 473.6559 101.275119 
L 474.5487 82.968701 
L 474.9951 74.658058 
L 475.4415 83.715096 
L 475.8879 72.313182 
L 476.3343 103.518566 
L 476.7807 91.55397 
L 477.2271 73.370616 
L 477.6735 112.400683 
L 478.1199 78.773927 
L 478.5663 69.27811 
L 479.0127 81.069748 
L 479.4591 75.004664 
L 479.9055 77.437644 
L 480.3519 75.870433 
L 480.7983 85.295361 
L 481.2447 79.94205 
L 481.6911 80.688536 
L 482.1375 78.064475 
L 482.5839 112.384005 
L 483.0303 90.076933 
L 483.4767 79.377014 
L 483.9231 78.49296 
L 484.3695 125.479426 
L 484.8159 99.278692 
L 485.2623 85.198741 
L 485.7087 83.976031 
L 486.1551 93.025858 
L 486.6015 74.967809 
L 487.0479 73.93034 
L 487.4943 75.479348 
L 487.9407 74.368175 
L 488.3871 80.854305 
L 488.8335 83.753243 
L 489.2799 75.902716 
L 489.7263 85.489851 
L 490.1727 76.536842 
L 490.6191 70.956558 
L 491.0655 77.000884 
L 491.5119 116.355614 
L 491.9583 76.495985 
L 492.4047 81.163023 
L 492.8511 76.708878 
L 493.2975 83.97921 
L 493.2975 83.97921 
" style="fill:none;stroke:#0000ff;stroke-linecap:square;stroke-width:0.5;"/>
   </g>
   <g id="patch_3">
    <path d="M 46.8975 368.74175 
L 46.8975 23.14175 
" style="fill:none;stroke:#000000;stroke-linecap:square;stroke-linejoin:miter;"/>
   </g>
   <g id="patch_4">
    <path d="M 493.2975 368.74175 
L 493.2975 23.14175 
" style="fill:none;stroke:#000000;stroke-linecap:square;stroke-linejoin:miter;"/>
   </g>
   <g id="patch_5">
    <path d="M 46.8975 23.14175 
L 493.2975 23.14175 
" style="fill:none;stroke:#000000;stroke-linecap:square;stroke-linejoin:miter;"/>
   </g>
   <g id="patch_6">
    <path d="M 46.8975 368.74175 
L 493.2975 368.74175 
" style="fill:none;stroke:#000000;stroke-linecap:square;stroke-linejoin:miter;"/>
   </g>
   <g id="matplotlib.axis_1">
    <g id="xtick_1">
     <g id="line2d_2">
      <defs>
       <path d="M 0 0 
L 0 -4 
" id="mfb6ca4f9ac" style="stroke:#000000;stroke-width:0.5;"/>
      </defs>
      <g>
       <use style="stroke:#000000;stroke-width:0.5;" x="46.8975" xlink:href="#mfb6ca4f9ac" y="368.74175"/>
      </g>
     </g>
     <g id="line2d_3">
      <defs>
       <path d="M 0 0 
L 0 4 
" id="m9821b33eac" style="stroke:#000000;stroke-width:0.5;"/>
      </defs>
      <g>
       <use style="stroke:#000000;stroke-width:0.5;" x="46.8975" xlink:href="#m9821b33eac" y="23.14175"/>
      </g>
     </g>
     <g id="text_1">
      <!-- 0 -->
      <defs>
       <path d="M 31.78125 66.40625 
Q 24.171875 66.40625 20.328125 58.90625 
Q 16.5 51.421875 16.5 36.375 
Q 16.5 21.390625 20.328125 13.890625 
Q 24.171875 6.390625 31.78125 6.390625 
Q 39.453125 6.390625 43.28125 13.890625 
Q 47.125 21.390625 47.125 36.375 
Q 47.125 51.421875 43.28125 58.90625 
Q 39.453125 66.40625 31.78125 66.40625 
M 31.78125 74.21875 
Q 44.046875 74.21875 50.515625 64.515625 
Q 56.984375 54.828125 56.984375 36.375 
Q 56.984375 17.96875 50.515625 8.265625 
Q 44.046875 -1.421875 31.78125 -1.421875 
Q 19.53125 -1.421875 13.0625 8.265625 
Q 6.59375 17.96875 6.59375 36.375 
Q 6.59375 54.828125 13.0625 64.515625 
Q 19.53125 74.21875 31.78125 74.21875 
" id="BitstreamVeraSans-Roman-30"/>
      </defs>
      <g transform="translate(43.08 381.859875)scale(0.12 -0.12)">
       <use xlink:href="#BitstreamVeraSans-Roman-30"/>
      </g>
     </g>
    </g>
    <g id="xtick_2">
     <g id="line2d_4">
      <g>
       <use style="stroke:#000000;stroke-width:0.5;" x="136.1775" xlink:href="#mfb6ca4f9ac" y="368.74175"/>
      </g>
     </g>
     <g id="line2d_5">
      <g>
       <use style="stroke:#000000;stroke-width:0.5;" x="136.1775" xlink:href="#m9821b33eac" y="23.14175"/>
      </g>
     </g>
     <g id="text_2">
      <!-- 200 -->
      <defs>
       <path d="M 19.1875 8.296875 
L 53.609375 8.296875 
L 53.609375 0 
L 7.328125 0 
L 7.328125 8.296875 
Q 12.9375 14.109375 22.625 23.890625 
Q 32.328125 33.6875 34.8125 36.53125 
Q 39.546875 41.84375 41.421875 45.53125 
Q 43.3125 49.21875 43.3125 52.78125 
Q 43.3125 58.59375 39.234375 62.25 
Q 35.15625 65.921875 28.609375 65.921875 
Q 23.96875 65.921875 18.8125 64.3125 
Q 13.671875 62.703125 7.8125 59.421875 
L 7.8125 69.390625 
Q 13.765625 71.78125 18.9375 73 
Q 24.125 74.21875 28.421875 74.21875 
Q 39.75 74.21875 46.484375 68.546875 
Q 53.21875 62.890625 53.21875 53.421875 
Q 53.21875 48.921875 51.53125 44.890625 
Q 49.859375 40.875 45.40625 35.40625 
Q 44.1875 33.984375 37.640625 27.21875 
Q 31.109375 20.453125 19.1875 8.296875 
" id="BitstreamVeraSans-Roman-32"/>
      </defs>
      <g transform="translate(124.725 381.859875)scale(0.12 -0.12)">
       <use xlink:href="#BitstreamVeraSans-Roman-32"/>
       <use x="63.623046875" xlink:href="#BitstreamVeraSans-Roman-30"/>
       <use x="127.24609375" xlink:href="#BitstreamVeraSans-Roman-30"/>
      </g>
     </g>
    </g>
    <g id="xtick_3">
     <g id="line2d_6">
      <g>
       <use style="stroke:#000000;stroke-width:0.5;" x="225.4575" xlink:href="#mfb6ca4f9ac" y="368.74175"/>
      </g>
     </g>
     <g id="line2d_7">
      <g>
       <use style="stroke:#000000;stroke-width:0.5;" x="225.4575" xlink:href="#m9821b33eac" y="23.14175"/>
      </g>
     </g>
     <g id="text_3">
      <!-- 400 -->
      <defs>
       <path d="M 37.796875 64.3125 
L 12.890625 25.390625 
L 37.796875 25.390625 
z
M 35.203125 72.90625 
L 47.609375 72.90625 
L 47.609375 25.390625 
L 58.015625 25.390625 
L 58.015625 17.1875 
L 47.609375 17.1875 
L 47.609375 0 
L 37.796875 0 
L 37.796875 17.1875 
L 4.890625 17.1875 
L 4.890625 26.703125 
z
" id="BitstreamVeraSans-Roman-34"/>
      </defs>
      <g transform="translate(214.005 381.859875)scale(0.12 -0.12)">
       <use xlink:href="#BitstreamVeraSans-Roman-34"/>
       <use x="63.623046875" xlink:href="#BitstreamVeraSans-Roman-30"/>
       <use x="127.24609375" xlink:href="#BitstreamVeraSans-Roman-30"/>
      </g>
     </g>
    </g>
    <g id="xtick_4">
     <g id="line2d_8">
      <g>
       <use style="stroke:#000000;stroke-width:0.5;" x="314.7375" xlink:href="#mfb6ca4f9ac" y="368.74175"/>
      </g>
     </g>
     <g id="line2d_9">
      <g>
       <use style="stroke:#000000;stroke-width:0.5;" x="314.7375" xlink:href="#m9821b33eac" y="23.14175"/>
      </g>
     </g>
     <g id="text_4">
      <!-- 600 -->
      <defs>
       <path d="M 33.015625 40.375 
Q 26.375 40.375 22.484375 35.828125 
Q 18.609375 31.296875 18.609375 23.390625 
Q 18.609375 15.53125 22.484375 10.953125 
Q 26.375 6.390625 33.015625 6.390625 
Q 39.65625 6.390625 43.53125 10.953125 
Q 47.40625 15.53125 47.40625 23.390625 
Q 47.40625 31.296875 43.53125 35.828125 
Q 39.65625 40.375 33.015625 40.375 
M 52.59375 71.296875 
L 52.59375 62.3125 
Q 48.875 64.0625 45.09375 64.984375 
Q 41.3125 65.921875 37.59375 65.921875 
Q 27.828125 65.921875 22.671875 59.328125 
Q 17.53125 52.734375 16.796875 39.40625 
Q 19.671875 43.65625 24.015625 45.921875 
Q 28.375 48.1875 33.59375 48.1875 
Q 44.578125 48.1875 50.953125 41.515625 
Q 57.328125 34.859375 57.328125 23.390625 
Q 57.328125 12.15625 50.6875 5.359375 
Q 44.046875 -1.421875 33.015625 -1.421875 
Q 20.359375 -1.421875 13.671875 8.265625 
Q 6.984375 17.96875 6.984375 36.375 
Q 6.984375 53.65625 15.1875 63.9375 
Q 23.390625 74.21875 37.203125 74.21875 
Q 40.921875 74.21875 44.703125 73.484375 
Q 48.484375 72.75 52.59375 71.296875 
" id="BitstreamVeraSans-Roman-36"/>
      </defs>
      <g transform="translate(303.285 381.859875)scale(0.12 -0.12)">
       <use xlink:href="#BitstreamVeraSans-Roman-36"/>
       <use x="63.623046875" xlink:href="#BitstreamVeraSans-Roman-30"/>
       <use x="127.24609375" xlink:href="#BitstreamVeraSans-Roman-30"/>
      </g>
     </g>
    </g>
    <g id="xtick_5">
     <g id="line2d_10">
      <g>
       <use style="stroke:#000000;stroke-width:0.5;" x="404.0175" xlink:href="#mfb6ca4f9ac" y="368.74175"/>
      </g>
     </g>
     <g id="line2d_11">
      <g>
       <use style="stroke:#000000;stroke-width:0.5;" x="404.0175" xlink:href="#m9821b33eac" y="23.14175"/>
      </g>
     </g>
     <g id="text_5">
      <!-- 800 -->
      <defs>
       <path d="M 31.78125 34.625 
Q 24.75 34.625 20.71875 30.859375 
Q 16.703125 27.09375 16.703125 20.515625 
Q 16.703125 13.921875 20.71875 10.15625 
Q 24.75 6.390625 31.78125 6.390625 
Q 38.8125 6.390625 42.859375 10.171875 
Q 46.921875 13.96875 46.921875 20.515625 
Q 46.921875 27.09375 42.890625 30.859375 
Q 38.875 34.625 31.78125 34.625 
M 21.921875 38.8125 
Q 15.578125 40.375 12.03125 44.71875 
Q 8.5 49.078125 8.5 55.328125 
Q 8.5 64.0625 14.71875 69.140625 
Q 20.953125 74.21875 31.78125 74.21875 
Q 42.671875 74.21875 48.875 69.140625 
Q 55.078125 64.0625 55.078125 55.328125 
Q 55.078125 49.078125 51.53125 44.71875 
Q 48 40.375 41.703125 38.8125 
Q 48.828125 37.15625 52.796875 32.3125 
Q 56.78125 27.484375 56.78125 20.515625 
Q 56.78125 9.90625 50.3125 4.234375 
Q 43.84375 -1.421875 31.78125 -1.421875 
Q 19.734375 -1.421875 13.25 4.234375 
Q 6.78125 9.90625 6.78125 20.515625 
Q 6.78125 27.484375 10.78125 32.3125 
Q 14.796875 37.15625 21.921875 38.8125 
M 18.3125 54.390625 
Q 18.3125 48.734375 21.84375 45.5625 
Q 25.390625 42.390625 31.78125 42.390625 
Q 38.140625 42.390625 41.71875 45.5625 
Q 45.3125 48.734375 45.3125 54.390625 
Q 45.3125 60.0625 41.71875 63.234375 
Q 38.140625 66.40625 31.78125 66.40625 
Q 25.390625 66.40625 21.84375 63.234375 
Q 18.3125 60.0625 18.3125 54.390625 
" id="BitstreamVeraSans-Roman-38"/>
      </defs>
      <g transform="translate(392.565 381.859875)scale(0.12 -0.12)">
       <use xlink:href="#BitstreamVeraSans-Roman-38"/>
       <use x="63.623046875" xlink:href="#BitstreamVeraSans-Roman-30"/>
       <use x="127.24609375" xlink:href="#BitstreamVeraSans-Roman-30"/>
      </g>
     </g>
    </g>
    <g id="xtick_6">
     <g id="line2d_12">
      <g>
       <use style="stroke:#000000;stroke-width:0.5;" x="493.2975" xlink:href="#mfb6ca4f9ac" y="368.74175"/>
      </g>
     </g>
     <g id="line2d_13">
      <g>
       <use style="stroke:#000000;stroke-width:0.5;" x="493.2975" xlink:href="#m9821b33eac" y="23.14175"/>
      </g>
     </g>
     <g id="text_6">
      <!-- 1000 -->
      <defs>
       <path d="M 12.40625 8.296875 
L 28.515625 8.296875 
L 28.515625 63.921875 
L 10.984375 60.40625 
L 10.984375 69.390625 
L 28.421875 72.90625 
L 38.28125 72.90625 
L 38.28125 8.296875 
L 54.390625 8.296875 
L 54.390625 0 
L 12.40625 0 
z
" id="BitstreamVeraSans-Roman-31"/>
      </defs>
      <g transform="translate(478.0275 381.859875)scale(0.12 -0.12)">
       <use xlink:href="#BitstreamVeraSans-Roman-31"/>
       <use x="63.623046875" xlink:href="#BitstreamVeraSans-Roman-30"/>
       <use x="127.24609375" xlink:href="#BitstreamVeraSans-Roman-30"/>
       <use x="190.869140625" xlink:href="#BitstreamVeraSans-Roman-30"/>
      </g>
     </g>
    </g>
    <g id="text_7">
     <!-- episodes -->
     <defs>
      <path d="M 9.421875 54.6875 
L 18.40625 54.6875 
L 18.40625 0 
L 9.421875 0 
z
M 9.421875 75.984375 
L 18.40625 75.984375 
L 18.40625 64.59375 
L 9.421875 64.59375 
z
" id="BitstreamVeraSans-Roman-69"/>
      <path d="M 30.609375 48.390625 
Q 23.390625 48.390625 19.1875 42.75 
Q 14.984375 37.109375 14.984375 27.296875 
Q 14.984375 17.484375 19.15625 11.84375 
Q 23.34375 6.203125 30.609375 6.203125 
Q 37.796875 6.203125 41.984375 11.859375 
Q 46.1875 17.53125 46.1875 27.296875 
Q 46.1875 37.015625 41.984375 42.703125 
Q 37.796875 48.390625 30.609375 48.390625 
M 30.609375 56 
Q 42.328125 56 49.015625 48.375 
Q 55.71875 40.765625 55.71875 27.296875 
Q 55.71875 13.875 49.015625 6.21875 
Q 42.328125 -1.421875 30.609375 -1.421875 
Q 18.84375 -1.421875 12.171875 6.21875 
Q 5.515625 13.875 5.515625 27.296875 
Q 5.515625 40.765625 12.171875 48.375 
Q 18.84375 56 30.609375 56 
" id="BitstreamVeraSans-Roman-6f"/>
      <path d="M 18.109375 8.203125 
L 18.109375 -20.796875 
L 9.078125 -20.796875 
L 9.078125 54.6875 
L 18.109375 54.6875 
L 18.109375 46.390625 
Q 20.953125 51.265625 25.265625 53.625 
Q 29.59375 56 35.59375 56 
Q 45.5625 56 51.78125 48.09375 
Q 58.015625 40.1875 58.015625 27.296875 
Q 58.015625 14.40625 51.78125 6.484375 
Q 45.5625 -1.421875 35.59375 -1.421875 
Q 29.59375 -1.421875 25.265625 0.953125 
Q 20.953125 3.328125 18.109375 8.203125 
M 48.6875 27.296875 
Q 48.6875 37.203125 44.609375 42.84375 
Q 40.53125 48.484375 33.40625 48.484375 
Q 26.265625 48.484375 22.1875 42.84375 
Q 18.109375 37.203125 18.109375 27.296875 
Q 18.109375 17.390625 22.1875 11.75 
Q 26.265625 6.109375 33.40625 6.109375 
Q 40.53125 6.109375 44.609375 11.75 
Q 48.6875 17.390625 48.6875 27.296875 
" id="BitstreamVeraSans-Roman-70"/>
      <path d="M 56.203125 29.59375 
L 56.203125 25.203125 
L 14.890625 25.203125 
Q 15.484375 15.921875 20.484375 11.0625 
Q 25.484375 6.203125 34.421875 6.203125 
Q 39.59375 6.203125 44.453125 7.46875 
Q 49.3125 8.734375 54.109375 11.28125 
L 54.109375 2.78125 
Q 49.265625 0.734375 44.1875 -0.34375 
Q 39.109375 -1.421875 33.890625 -1.421875 
Q 20.796875 -1.421875 13.15625 6.1875 
Q 5.515625 13.8125 5.515625 26.8125 
Q 5.515625 40.234375 12.765625 48.109375 
Q 20.015625 56 32.328125 56 
Q 43.359375 56 49.78125 48.890625 
Q 56.203125 41.796875 56.203125 29.59375 
M 47.21875 32.234375 
Q 47.125 39.59375 43.09375 43.984375 
Q 39.0625 48.390625 32.421875 48.390625 
Q 24.90625 48.390625 20.390625 44.140625 
Q 15.875 39.890625 15.1875 32.171875 
z
" id="BitstreamVeraSans-Roman-65"/>
      <path d="M 44.28125 53.078125 
L 44.28125 44.578125 
Q 40.484375 46.53125 36.375 47.5 
Q 32.28125 48.484375 27.875 48.484375 
Q 21.1875 48.484375 17.84375 46.4375 
Q 14.5 44.390625 14.5 40.28125 
Q 14.5 37.15625 16.890625 35.375 
Q 19.28125 33.59375 26.515625 31.984375 
L 29.59375 31.296875 
Q 39.15625 29.25 43.1875 25.515625 
Q 47.21875 21.78125 47.21875 15.09375 
Q 47.21875 7.46875 41.1875 3.015625 
Q 35.15625 -1.421875 24.609375 -1.421875 
Q 20.21875 -1.421875 15.453125 -0.5625 
Q 10.6875 0.296875 5.421875 2 
L 5.421875 11.28125 
Q 10.40625 8.6875 15.234375 7.390625 
Q 20.0625 6.109375 24.8125 6.109375 
Q 31.15625 6.109375 34.5625 8.28125 
Q 37.984375 10.453125 37.984375 14.40625 
Q 37.984375 18.0625 35.515625 20.015625 
Q 33.0625 21.96875 24.703125 23.78125 
L 21.578125 24.515625 
Q 13.234375 26.265625 9.515625 29.90625 
Q 5.8125 33.546875 5.8125 39.890625 
Q 5.8125 47.609375 11.28125 51.796875 
Q 16.75 56 26.8125 56 
Q 31.78125 56 36.171875 55.265625 
Q 40.578125 54.546875 44.28125 53.078125 
" id="BitstreamVeraSans-Roman-73"/>
      <path d="M 45.40625 46.390625 
L 45.40625 75.984375 
L 54.390625 75.984375 
L 54.390625 0 
L 45.40625 0 
L 45.40625 8.203125 
Q 42.578125 3.328125 38.25 0.953125 
Q 33.9375 -1.421875 27.875 -1.421875 
Q 17.96875 -1.421875 11.734375 6.484375 
Q 5.515625 14.40625 5.515625 27.296875 
Q 5.515625 40.1875 11.734375 48.09375 
Q 17.96875 56 27.875 56 
Q 33.9375 56 38.25 53.625 
Q 42.578125 51.265625 45.40625 46.390625 
M 14.796875 27.296875 
Q 14.796875 17.390625 18.875 11.75 
Q 22.953125 6.109375 30.078125 6.109375 
Q 37.203125 6.109375 41.296875 11.75 
Q 45.40625 17.390625 45.40625 27.296875 
Q 45.40625 37.203125 41.296875 42.84375 
Q 37.203125 48.484375 30.078125 48.484375 
Q 22.953125 48.484375 18.875 42.84375 
Q 14.796875 37.203125 14.796875 27.296875 
" id="BitstreamVeraSans-Roman-64"/>
     </defs>
     <g transform="translate(243.50625 398.473625)scale(0.12 -0.12)">
      <use xlink:href="#BitstreamVeraSans-Roman-65"/>
      <use x="61.5234375" xlink:href="#BitstreamVeraSans-Roman-70"/>
      <use x="125.0" xlink:href="#BitstreamVeraSans-Roman-69"/>
      <use x="152.783203125" xlink:href="#BitstreamVeraSans-Roman-73"/>
      <use x="204.8828125" xlink:href="#BitstreamVeraSans-Roman-6f"/>
      <use x="266.064453125" xlink:href="#BitstreamVeraSans-Roman-64"/>
      <use x="329.541015625" xlink:href="#BitstreamVeraSans-Roman-65"/>
      <use x="391.064453125" xlink:href="#BitstreamVeraSans-Roman-73"/>
     </g>
    </g>
   </g>
   <g id="matplotlib.axis_2">
    <g id="ytick_1">
     <g id="line2d_14">
      <defs>
       <path d="M 0 0 
L 4 0 
" id="m348f4a4073" style="stroke:#000000;stroke-width:0.5;"/>
      </defs>
      <g>
       <use style="stroke:#000000;stroke-width:0.5;" x="46.8975" xlink:href="#m348f4a4073" y="368.74175"/>
      </g>
     </g>
     <g id="line2d_15">
      <defs>
       <path d="M 0 0 
L -4 0 
" id="mc7fc7cfc9f" style="stroke:#000000;stroke-width:0.5;"/>
      </defs>
      <g>
       <use style="stroke:#000000;stroke-width:0.5;" x="493.2975" xlink:href="#mc7fc7cfc9f" y="368.74175"/>
      </g>
     </g>
     <g id="text_8">
      <!-- 0.0 -->
      <defs>
       <path d="M 10.6875 12.40625 
L 21 12.40625 
L 21 0 
L 10.6875 0 
z
" id="BitstreamVeraSans-Roman-2e"/>
      </defs>
      <g transform="translate(23.81375 372.053)scale(0.12 -0.12)">
       <use xlink:href="#BitstreamVeraSans-Roman-30"/>
       <use x="63.623046875" xlink:href="#BitstreamVeraSans-Roman-2e"/>
       <use x="95.41015625" xlink:href="#BitstreamVeraSans-Roman-30"/>
      </g>
     </g>
    </g>
    <g id="ytick_2">
     <g id="line2d_16">
      <g>
       <use style="stroke:#000000;stroke-width:0.5;" x="46.8975" xlink:href="#m348f4a4073" y="299.62175"/>
      </g>
     </g>
     <g id="line2d_17">
      <g>
       <use style="stroke:#000000;stroke-width:0.5;" x="493.2975" xlink:href="#mc7fc7cfc9f" y="299.62175"/>
      </g>
     </g>
     <g id="text_9">
      <!-- 0.5 -->
      <defs>
       <path d="M 10.796875 72.90625 
L 49.515625 72.90625 
L 49.515625 64.59375 
L 19.828125 64.59375 
L 19.828125 46.734375 
Q 21.96875 47.46875 24.109375 47.828125 
Q 26.265625 48.1875 28.421875 48.1875 
Q 40.625 48.1875 47.75 41.5 
Q 54.890625 34.8125 54.890625 23.390625 
Q 54.890625 11.625 47.5625 5.09375 
Q 40.234375 -1.421875 26.90625 -1.421875 
Q 22.3125 -1.421875 17.546875 -0.640625 
Q 12.796875 0.140625 7.71875 1.703125 
L 7.71875 11.625 
Q 12.109375 9.234375 16.796875 8.0625 
Q 21.484375 6.890625 26.703125 6.890625 
Q 35.15625 6.890625 40.078125 11.328125 
Q 45.015625 15.765625 45.015625 23.390625 
Q 45.015625 31 40.078125 35.4375 
Q 35.15625 39.890625 26.703125 39.890625 
Q 22.75 39.890625 18.8125 39.015625 
Q 14.890625 38.140625 10.796875 36.28125 
z
" id="BitstreamVeraSans-Roman-35"/>
      </defs>
      <g transform="translate(23.81375 302.933)scale(0.12 -0.12)">
       <use xlink:href="#BitstreamVeraSans-Roman-30"/>
       <use x="63.623046875" xlink:href="#BitstreamVeraSans-Roman-2e"/>
       <use x="95.41015625" xlink:href="#BitstreamVeraSans-Roman-35"/>
      </g>
     </g>
    </g>
    <g id="ytick_3">
     <g id="line2d_18">
      <g>
       <use style="stroke:#000000;stroke-width:0.5;" x="46.8975" xlink:href="#m348f4a4073" y="230.50175"/>
      </g>
     </g>
     <g id="line2d_19">
      <g>
       <use style="stroke:#000000;stroke-width:0.5;" x="493.2975" xlink:href="#mc7fc7cfc9f" y="230.50175"/>
      </g>
     </g>
     <g id="text_10">
      <!-- 1.0 -->
      <g transform="translate(23.81375 233.813)scale(0.12 -0.12)">
       <use xlink:href="#BitstreamVeraSans-Roman-31"/>
       <use x="63.623046875" xlink:href="#BitstreamVeraSans-Roman-2e"/>
       <use x="95.41015625" xlink:href="#BitstreamVeraSans-Roman-30"/>
      </g>
     </g>
    </g>
    <g id="ytick_4">
     <g id="line2d_20">
      <g>
       <use style="stroke:#000000;stroke-width:0.5;" x="46.8975" xlink:href="#m348f4a4073" y="161.38175"/>
      </g>
     </g>
     <g id="line2d_21">
      <g>
       <use style="stroke:#000000;stroke-width:0.5;" x="493.2975" xlink:href="#mc7fc7cfc9f" y="161.38175"/>
      </g>
     </g>
     <g id="text_11">
      <!-- 1.5 -->
      <g transform="translate(23.81375 164.693)scale(0.12 -0.12)">
       <use xlink:href="#BitstreamVeraSans-Roman-31"/>
       <use x="63.623046875" xlink:href="#BitstreamVeraSans-Roman-2e"/>
       <use x="95.41015625" xlink:href="#BitstreamVeraSans-Roman-35"/>
      </g>
     </g>
    </g>
    <g id="ytick_5">
     <g id="line2d_22">
      <g>
       <use style="stroke:#000000;stroke-width:0.5;" x="46.8975" xlink:href="#m348f4a4073" y="92.26175"/>
      </g>
     </g>
     <g id="line2d_23">
      <g>
       <use style="stroke:#000000;stroke-width:0.5;" x="493.2975" xlink:href="#mc7fc7cfc9f" y="92.26175"/>
      </g>
     </g>
     <g id="text_12">
      <!-- 2.0 -->
      <g transform="translate(23.81375 95.573)scale(0.12 -0.12)">
       <use xlink:href="#BitstreamVeraSans-Roman-32"/>
       <use x="63.623046875" xlink:href="#BitstreamVeraSans-Roman-2e"/>
       <use x="95.41015625" xlink:href="#BitstreamVeraSans-Roman-30"/>
      </g>
     </g>
    </g>
    <g id="ytick_6">
     <g id="line2d_24">
      <g>
       <use style="stroke:#000000;stroke-width:0.5;" x="46.8975" xlink:href="#m348f4a4073" y="23.14175"/>
      </g>
     </g>
     <g id="line2d_25">
      <g>
       <use style="stroke:#000000;stroke-width:0.5;" x="493.2975" xlink:href="#mc7fc7cfc9f" y="23.14175"/>
      </g>
     </g>
     <g id="text_13">
      <!-- 2.5 -->
      <g transform="translate(23.81375 26.453)scale(0.12 -0.12)">
       <use xlink:href="#BitstreamVeraSans-Roman-32"/>
       <use x="63.623046875" xlink:href="#BitstreamVeraSans-Roman-2e"/>
       <use x="95.41015625" xlink:href="#BitstreamVeraSans-Roman-35"/>
      </g>
     </g>
    </g>
    <g id="text_14">
     <!-- average maxQ -->
     <defs>
      <path d="M 41.109375 46.296875 
Q 39.59375 47.171875 37.8125 47.578125 
Q 36.03125 48 33.890625 48 
Q 26.265625 48 22.1875 43.046875 
Q 18.109375 38.09375 18.109375 28.8125 
L 18.109375 0 
L 9.078125 0 
L 9.078125 54.6875 
L 18.109375 54.6875 
L 18.109375 46.1875 
Q 20.953125 51.171875 25.484375 53.578125 
Q 30.03125 56 36.53125 56 
Q 37.453125 56 38.578125 55.875 
Q 39.703125 55.765625 41.0625 55.515625 
z
" id="BitstreamVeraSans-Roman-72"/>
      <path d="M 52 44.1875 
Q 55.375 50.25 60.0625 53.125 
Q 64.75 56 71.09375 56 
Q 79.640625 56 84.28125 50.015625 
Q 88.921875 44.046875 88.921875 33.015625 
L 88.921875 0 
L 79.890625 0 
L 79.890625 32.71875 
Q 79.890625 40.578125 77.09375 44.375 
Q 74.3125 48.1875 68.609375 48.1875 
Q 61.625 48.1875 57.5625 43.546875 
Q 53.515625 38.921875 53.515625 30.90625 
L 53.515625 0 
L 44.484375 0 
L 44.484375 32.71875 
Q 44.484375 40.625 41.703125 44.40625 
Q 38.921875 48.1875 33.109375 48.1875 
Q 26.21875 48.1875 22.15625 43.53125 
Q 18.109375 38.875 18.109375 30.90625 
L 18.109375 0 
L 9.078125 0 
L 9.078125 54.6875 
L 18.109375 54.6875 
L 18.109375 46.1875 
Q 21.1875 51.21875 25.484375 53.609375 
Q 29.78125 56 35.6875 56 
Q 41.65625 56 45.828125 52.96875 
Q 50 49.953125 52 44.1875 
" id="BitstreamVeraSans-Roman-6d"/>
      <path d="M 34.28125 27.484375 
Q 23.390625 27.484375 19.1875 25 
Q 14.984375 22.515625 14.984375 16.5 
Q 14.984375 11.71875 18.140625 8.90625 
Q 21.296875 6.109375 26.703125 6.109375 
Q 34.1875 6.109375 38.703125 11.40625 
Q 43.21875 16.703125 43.21875 25.484375 
L 43.21875 27.484375 
z
M 52.203125 31.203125 
L 52.203125 0 
L 43.21875 0 
L 43.21875 8.296875 
Q 40.140625 3.328125 35.546875 0.953125 
Q 30.953125 -1.421875 24.3125 -1.421875 
Q 15.921875 -1.421875 10.953125 3.296875 
Q 6 8.015625 6 15.921875 
Q 6 25.140625 12.171875 29.828125 
Q 18.359375 34.515625 30.609375 34.515625 
L 43.21875 34.515625 
L 43.21875 35.40625 
Q 43.21875 41.609375 39.140625 45 
Q 35.0625 48.390625 27.6875 48.390625 
Q 23 48.390625 18.546875 47.265625 
Q 14.109375 46.140625 10.015625 43.890625 
L 10.015625 52.203125 
Q 14.9375 54.109375 19.578125 55.046875 
Q 24.21875 56 28.609375 56 
Q 40.484375 56 46.34375 49.84375 
Q 52.203125 43.703125 52.203125 31.203125 
" id="BitstreamVeraSans-Roman-61"/>
      <path id="BitstreamVeraSans-Roman-20"/>
      <path d="M 39.40625 66.21875 
Q 28.65625 66.21875 22.328125 58.203125 
Q 16.015625 50.203125 16.015625 36.375 
Q 16.015625 22.609375 22.328125 14.59375 
Q 28.65625 6.59375 39.40625 6.59375 
Q 50.140625 6.59375 56.421875 14.59375 
Q 62.703125 22.609375 62.703125 36.375 
Q 62.703125 50.203125 56.421875 58.203125 
Q 50.140625 66.21875 39.40625 66.21875 
M 53.21875 1.3125 
L 66.21875 -12.890625 
L 54.296875 -12.890625 
L 43.5 -1.21875 
Q 41.890625 -1.3125 41.03125 -1.359375 
Q 40.1875 -1.421875 39.40625 -1.421875 
Q 24.03125 -1.421875 14.8125 8.859375 
Q 5.609375 19.140625 5.609375 36.375 
Q 5.609375 53.65625 14.8125 63.9375 
Q 24.03125 74.21875 39.40625 74.21875 
Q 54.734375 74.21875 63.90625 63.9375 
Q 73.09375 53.65625 73.09375 36.375 
Q 73.09375 23.6875 67.984375 14.640625 
Q 62.890625 5.609375 53.21875 1.3125 
" id="BitstreamVeraSans-Roman-51"/>
      <path d="M 45.40625 27.984375 
Q 45.40625 37.75 41.375 43.109375 
Q 37.359375 48.484375 30.078125 48.484375 
Q 22.859375 48.484375 18.828125 43.109375 
Q 14.796875 37.75 14.796875 27.984375 
Q 14.796875 18.265625 18.828125 12.890625 
Q 22.859375 7.515625 30.078125 7.515625 
Q 37.359375 7.515625 41.375 12.890625 
Q 45.40625 18.265625 45.40625 27.984375 
M 54.390625 6.78125 
Q 54.390625 -7.171875 48.1875 -13.984375 
Q 42 -20.796875 29.203125 -20.796875 
Q 24.46875 -20.796875 20.265625 -20.09375 
Q 16.0625 -19.390625 12.109375 -17.921875 
L 12.109375 -9.1875 
Q 16.0625 -11.328125 19.921875 -12.34375 
Q 23.78125 -13.375 27.78125 -13.375 
Q 36.625 -13.375 41.015625 -8.765625 
Q 45.40625 -4.15625 45.40625 5.171875 
L 45.40625 9.625 
Q 42.625 4.78125 38.28125 2.390625 
Q 33.9375 0 27.875 0 
Q 17.828125 0 11.671875 7.65625 
Q 5.515625 15.328125 5.515625 27.984375 
Q 5.515625 40.671875 11.671875 48.328125 
Q 17.828125 56 27.875 56 
Q 33.9375 56 38.28125 53.609375 
Q 42.625 51.21875 45.40625 46.390625 
L 45.40625 54.6875 
L 54.390625 54.6875 
z
" id="BitstreamVeraSans-Roman-67"/>
      <path d="M 2.984375 54.6875 
L 12.5 54.6875 
L 29.59375 8.796875 
L 46.6875 54.6875 
L 56.203125 54.6875 
L 35.6875 0 
L 23.484375 0 
z
" id="BitstreamVeraSans-Roman-76"/>
      <path d="M 54.890625 54.6875 
L 35.109375 28.078125 
L 55.90625 0 
L 45.3125 0 
L 29.390625 21.484375 
L 13.484375 0 
L 2.875 0 
L 24.125 28.609375 
L 4.6875 54.6875 
L 15.28125 54.6875 
L 29.78125 35.203125 
L 44.28125 54.6875 
z
" id="BitstreamVeraSans-Roman-78"/>
     </defs>
     <g transform="translate(16.318125 240.208625)rotate(-90.0)scale(0.12 -0.12)">
      <use xlink:href="#BitstreamVeraSans-Roman-61"/>
      <use x="61.279296875" xlink:href="#BitstreamVeraSans-Roman-76"/>
      <use x="120.458984375" xlink:href="#BitstreamVeraSans-Roman-65"/>
      <use x="181.982421875" xlink:href="#BitstreamVeraSans-Roman-72"/>
      <use x="223.095703125" xlink:href="#BitstreamVeraSans-Roman-61"/>
      <use x="284.375" xlink:href="#BitstreamVeraSans-Roman-67"/>
      <use x="347.8515625" xlink:href="#BitstreamVeraSans-Roman-65"/>
      <use x="409.375" xlink:href="#BitstreamVeraSans-Roman-20"/>
      <use x="441.162109375" xlink:href="#BitstreamVeraSans-Roman-6d"/>
      <use x="538.57421875" xlink:href="#BitstreamVeraSans-Roman-61"/>
      <use x="599.853515625" xlink:href="#BitstreamVeraSans-Roman-78"/>
      <use x="659.033203125" xlink:href="#BitstreamVeraSans-Roman-51"/>
     </g>
    </g>
   </g>
   <g id="text_15">
    <!-- Average maxQ per episode, joint5 -->
    <defs>
     <path d="M 34.1875 63.1875 
L 20.796875 26.90625 
L 47.609375 26.90625 
z
M 28.609375 72.90625 
L 39.796875 72.90625 
L 67.578125 0 
L 57.328125 0 
L 50.6875 18.703125 
L 17.828125 18.703125 
L 11.1875 0 
L 0.78125 0 
z
" id="BitstreamVeraSans-Roman-41"/>
     <path d="M 54.890625 33.015625 
L 54.890625 0 
L 45.90625 0 
L 45.90625 32.71875 
Q 45.90625 40.484375 42.875 44.328125 
Q 39.84375 48.1875 33.796875 48.1875 
Q 26.515625 48.1875 22.3125 43.546875 
Q 18.109375 38.921875 18.109375 30.90625 
L 18.109375 0 
L 9.078125 0 
L 9.078125 54.6875 
L 18.109375 54.6875 
L 18.109375 46.1875 
Q 21.34375 51.125 25.703125 53.5625 
Q 30.078125 56 35.796875 56 
Q 45.21875 56 50.046875 50.171875 
Q 54.890625 44.34375 54.890625 33.015625 
" id="BitstreamVeraSans-Roman-6e"/>
     <path d="M 18.3125 70.21875 
L 18.3125 54.6875 
L 36.8125 54.6875 
L 36.8125 47.703125 
L 18.3125 47.703125 
L 18.3125 18.015625 
Q 18.3125 11.328125 20.140625 9.421875 
Q 21.96875 7.515625 27.59375 7.515625 
L 36.8125 7.515625 
L 36.8125 0 
L 27.59375 0 
Q 17.1875 0 13.234375 3.875 
Q 9.28125 7.765625 9.28125 18.015625 
L 9.28125 47.703125 
L 2.6875 47.703125 
L 2.6875 54.6875 
L 9.28125 54.6875 
L 9.28125 70.21875 
z
" id="BitstreamVeraSans-Roman-74"/>
     <path d="M 9.421875 54.6875 
L 18.40625 54.6875 
L 18.40625 -0.984375 
Q 18.40625 -11.421875 14.421875 -16.109375 
Q 10.453125 -20.796875 1.609375 -20.796875 
L -1.8125 -20.796875 
L -1.8125 -13.1875 
L 0.59375 -13.1875 
Q 5.71875 -13.1875 7.5625 -10.8125 
Q 9.421875 -8.453125 9.421875 -0.984375 
z
M 9.421875 75.984375 
L 18.40625 75.984375 
L 18.40625 64.59375 
L 9.421875 64.59375 
z
" id="BitstreamVeraSans-Roman-6a"/>
     <path d="M 11.71875 12.40625 
L 22.015625 12.40625 
L 22.015625 4 
L 14.015625 -11.625 
L 7.71875 -11.625 
L 11.71875 4 
z
" id="BitstreamVeraSans-Roman-2c"/>
    </defs>
    <g transform="translate(146.8245 18.14175)scale(0.144 -0.144)">
     <use xlink:href="#BitstreamVeraSans-Roman-41"/>
     <use x="68.330078125" xlink:href="#BitstreamVeraSans-Roman-76"/>
     <use x="127.509765625" xlink:href="#BitstreamVeraSans-Roman-65"/>
     <use x="189.033203125" xlink:href="#BitstreamVeraSans-Roman-72"/>
     <use x="230.146484375" xlink:href="#BitstreamVeraSans-Roman-61"/>
     <use x="291.42578125" xlink:href="#BitstreamVeraSans-Roman-67"/>
     <use x="354.90234375" xlink:href="#BitstreamVeraSans-Roman-65"/>
     <use x="416.42578125" xlink:href="#BitstreamVeraSans-Roman-20"/>
     <use x="448.212890625" xlink:href="#BitstreamVeraSans-Roman-6d"/>
     <use x="545.625" xlink:href="#BitstreamVeraSans-Roman-61"/>
     <use x="606.904296875" xlink:href="#BitstreamVeraSans-Roman-78"/>
     <use x="666.083984375" xlink:href="#BitstreamVeraSans-Roman-51"/>
     <use x="744.794921875" xlink:href="#BitstreamVeraSans-Roman-20"/>
     <use x="776.58203125" xlink:href="#BitstreamVeraSans-Roman-70"/>
     <use x="840.05859375" xlink:href="#BitstreamVeraSans-Roman-65"/>
     <use x="901.58203125" xlink:href="#BitstreamVeraSans-Roman-72"/>
     <use x="942.6953125" xlink:href="#BitstreamVeraSans-Roman-20"/>
     <use x="974.482421875" xlink:href="#BitstreamVeraSans-Roman-65"/>
     <use x="1036.005859375" xlink:href="#BitstreamVeraSans-Roman-70"/>
     <use x="1099.482421875" xlink:href="#BitstreamVeraSans-Roman-69"/>
     <use x="1127.265625" xlink:href="#BitstreamVeraSans-Roman-73"/>
     <use x="1179.365234375" xlink:href="#BitstreamVeraSans-Roman-6f"/>
     <use x="1240.546875" xlink:href="#BitstreamVeraSans-Roman-64"/>
     <use x="1304.0234375" xlink:href="#BitstreamVeraSans-Roman-65"/>
     <use x="1365.546875" xlink:href="#BitstreamVeraSans-Roman-2c"/>
     <use x="1397.333984375" xlink:href="#BitstreamVeraSans-Roman-20"/>
     <use x="1429.12109375" xlink:href="#BitstreamVeraSans-Roman-6a"/>
     <use x="1456.904296875" xlink:href="#BitstreamVeraSans-Roman-6f"/>
     <use x="1518.0859375" xlink:href="#BitstreamVeraSans-Roman-69"/>
     <use x="1545.869140625" xlink:href="#BitstreamVeraSans-Roman-6e"/>
     <use x="1609.248046875" xlink:href="#BitstreamVeraSans-Roman-74"/>
     <use x="1648.45703125" xlink:href="#BitstreamVeraSans-Roman-35"/>
    </g>
   </g>
  </g>
 </g>
 <defs>
  <clipPath id="pdf6fb321e5">
   <rect height="345.6" width="446.4" x="46.8975" y="23.14175"/>
  </clipPath>
 </defs>
</svg>
