<?xml version="1.0" encoding="utf-8" standalone="no"?>
<!DOCTYPE svg PUBLIC "-//W3C//DTD SVG 1.1//EN"
  "http://www.w3.org/Graphics/SVG/1.1/DTD/svg11.dtd">
<!-- Created with matplotlib (http://matplotlib.org/) -->
<svg height="408pt" version="1.1" viewBox="0 0 515 408" width="515pt" xmlns="http://www.w3.org/2000/svg" xmlns:xlink="http://www.w3.org/1999/xlink">
 <defs>
  <style type="text/css">
*{stroke-linecap:butt;stroke-linejoin:round;stroke-miterlimit:100000;}
  </style>
 </defs>
 <g id="figure_1">
  <g id="patch_1">
   <path d="M 0 408.16925 
L 515.7675 408.16925 
L 515.7675 0 
L 0 0 
z
" style="fill:#ffffff;"/>
  </g>
  <g id="axes_1">
   <g id="patch_2">
    <path d="M 46.8975 368.74175 
L 493.2975 368.74175 
L 493.2975 23.14175 
L 46.8975 23.14175 
z
" style="fill:#ffffff;"/>
   </g>
   <g id="line2d_1">
    <path clip-path="url(#pcca8da38bd)" d="M 47.3439 216.760827 
L 47.7903 219.14221 
L 48.2367 221.324603 
L 48.6831 254.396977 
L 49.1295 213.066121 
L 49.5759 201.765901 
L 50.0223 253.932141 
L 50.4687 243.421493 
L 50.9151 269.827194 
L 51.3615 118.106875 
L 51.8079 265.908892 
L 52.2543 246.055472 
L 52.7007 258.467718 
L 53.1471 231.487988 
L 53.5935 269.244233 
L 54.0399 266.229719 
L 54.4863 235.684844 
L 54.9327 249.682841 
L 55.3791 254.427797 
L 55.8255 243.787141 
L 56.2719 256.043713 
L 56.7183 241.740886 
L 57.1647 160.57633 
L 57.6111 258.082302 
L 58.0575 143.584305 
L 58.5039 243.442364 
L 58.9503 191.00757 
L 59.3967 220.769512 
L 59.8431 234.116247 
L 60.2895 237.032756 
L 60.7359 181.103052 
L 61.1823 243.250397 
L 61.6287 209.202494 
L 62.0751 262.451096 
L 62.5215 251.882029 
L 62.9679 149.340503 
L 63.4143 152.14802 
L 63.8607 207.48445 
L 64.3071 231.318944 
L 64.7535 224.556443 
L 65.1999 200.231831 
L 66.0927 235.747027 
L 66.5391 219.870601 
L 66.9855 150.116697 
L 67.8783 231.355821 
L 68.3247 253.218147 
L 68.7711 258.944253 
L 69.2175 251.340719 
L 70.1103 213.225545 
L 71.0031 250.098248 
L 71.4495 237.070723 
L 71.8959 253.494266 
L 72.3423 148.214802 
L 72.7887 202.567558 
L 73.2351 208.340775 
L 73.6815 228.304703 
L 74.1279 258.877464 
L 74.5743 215.226288 
L 75.0207 261.535424 
L 75.4671 157.106824 
L 75.9135 255.191063 
L 76.3599 158.846888 
L 76.8063 252.377924 
L 77.2527 245.966537 
L 77.6991 243.076294 
L 78.1455 193.24791 
L 78.5919 248.282861 
L 79.0383 218.869013 
L 79.4847 243.888876 
L 79.9311 238.580499 
L 80.3775 175.682101 
L 80.8239 228.757899 
L 81.2703 138.011831 
L 81.7167 221.134512 
L 82.1631 242.961553 
L 82.6095 214.625214 
L 83.0559 264.764879 
L 83.5023 248.283334 
L 83.9487 152.374071 
L 84.8415 203.687306 
L 85.2879 199.267629 
L 85.7343 204.871908 
L 86.1807 244.574963 
L 86.6271 252.049496 
L 87.0735 245.770252 
L 87.5199 251.623746 
L 87.9663 164.748151 
L 88.4127 148.241661 
L 88.8591 170.601756 
L 89.3055 240.413307 
L 89.7519 244.514551 
L 90.1983 238.659095 
L 90.6447 230.07083 
L 91.0911 258.508038 
L 91.5375 368.74175 
L 91.9839 243.272053 
L 92.4303 276.047168 
L 92.8767 229.830016 
L 93.3231 238.134493 
L 93.7695 251.762962 
L 94.2159 259.16796 
L 94.6623 183.954782 
L 95.1087 235.14774 
L 95.5551 243.907094 
L 96.0015 222.406298 
L 96.4479 225.243124 
L 96.8943 265.155534 
L 97.3407 268.765806 
L 97.7871 233.847946 
L 98.2335 250.381163 
L 98.6799 233.558712 
L 99.1263 225.514231 
L 99.5727 252.188092 
L 100.4655 220.562986 
L 100.9119 195.058781 
L 101.3583 235.57347 
L 102.2511 194.316811 
L 102.6975 240.914008 
L 103.1439 209.198042 
L 103.5903 260.496231 
L 104.0367 184.202057 
L 104.4831 248.111508 
L 104.9295 191.487998 
L 106.2687 263.104114 
L 106.7151 214.304713 
L 107.1615 240.536515 
L 107.6079 221.739222 
L 108.0543 179.057525 
L 108.5007 243.789571 
L 108.9471 213.038383 
L 109.3935 224.878188 
L 109.8399 242.538156 
L 110.2863 246.799757 
L 110.7327 267.407958 
L 111.1791 252.123869 
L 111.6255 182.535765 
L 112.5183 205.630068 
L 112.9647 156.976748 
L 113.4111 244.316363 
L 113.8575 141.861196 
L 114.3039 219.765573 
L 114.7503 231.275614 
L 115.1967 152.974183 
L 115.6431 133.292445 
L 116.0895 196.152884 
L 116.5359 204.664364 
L 116.9823 194.268611 
L 117.4287 237.287248 
L 117.8751 243.575549 
L 118.3215 225.401895 
L 118.7679 242.036645 
L 119.2143 188.513967 
L 119.6607 257.794415 
L 120.1071 141.252421 
L 120.5535 245.840424 
L 120.9999 161.031571 
L 121.4463 254.496397 
L 121.8927 235.620148 
L 122.3391 149.992843 
L 122.7855 230.739034 
L 123.2319 227.502293 
L 123.6783 236.591437 
L 124.1247 229.7783 
L 124.5711 186.369141 
L 125.4639 255.180128 
L 125.9103 210.594898 
L 126.3567 257.738973 
L 126.8031 258.645703 
L 127.2495 246.481724 
L 127.6959 200.052411 
L 128.1423 236.558468 
L 128.5887 258.306611 
L 129.0351 211.560692 
L 129.4815 240.670421 
L 129.9279 195.172706 
L 130.3743 250.510888 
L 130.8207 178.897349 
L 131.2671 220.417302 
L 131.7135 175.748793 
L 132.1599 238.181528 
L 132.6063 257.149966 
L 133.0527 249.035578 
L 133.4991 243.499435 
L 133.9455 220.797673 
L 134.3919 248.061073 
L 134.8383 116.897867 
L 135.2847 168.765393 
L 135.7311 244.450281 
L 136.1775 368.74175 
L 136.6239 238.343845 
L 137.0703 224.670609 
L 137.5167 241.393624 
L 137.9631 236.621528 
L 138.4095 125.268675 
L 138.8559 219.876578 
L 139.3023 222.465357 
L 139.7487 198.120796 
L 140.1951 233.949867 
L 140.6415 186.347316 
L 141.0879 235.878374 
L 141.5343 228.32095 
L 141.9807 228.630053 
L 142.4271 252.191281 
L 142.8735 188.913596 
L 143.3199 237.101202 
L 143.7663 206.129154 
L 144.2127 164.108686 
L 144.6591 218.981082 
L 145.1055 248.983825 
L 145.5519 211.277536 
L 145.9983 236.868535 
L 146.4447 210.779754 
L 146.8911 162.792255 
L 147.7839 247.868385 
L 148.2303 219.999048 
L 148.6767 209.298854 
L 149.1231 222.153474 
L 149.5695 215.361397 
L 150.0159 161.462427 
L 150.4623 240.105844 
L 150.9087 246.762703 
L 151.8015 224.129071 
L 152.2479 149.527148 
L 152.6943 227.817703 
L 153.1407 239.97319 
L 153.5871 204.83185 
L 154.0335 249.331428 
L 154.4799 211.852706 
L 154.9263 237.010784 
L 155.3727 217.945888 
L 155.8191 238.722934 
L 156.2655 236.470201 
L 156.7119 247.981986 
L 157.1583 210.590678 
L 157.6047 255.781722 
L 159.3903 137.066516 
L 159.8367 246.68651 
L 160.2831 207.597152 
L 160.7295 242.152902 
L 161.1759 318.462368 
L 161.6223 343.609472 
L 162.0687 338.764439 
L 162.5151 327.644075 
L 162.9615 332.843216 
L 163.4079 335.946272 
L 163.8543 330.654838 
L 164.3007 327.294044 
L 164.7471 326.805827 
L 165.1935 328.671543 
L 165.6399 328.981279 
L 166.0863 326.934197 
L 166.5327 327.587655 
L 166.9791 324.177086 
L 167.8719 328.529492 
L 168.3183 326.654658 
L 168.7647 322.641936 
L 169.2111 326.928623 
L 169.6575 325.233565 
L 170.1039 324.522323 
L 170.5503 321.151013 
L 170.9967 321.22017 
L 171.4431 313.791514 
L 171.8895 322.987206 
L 172.3359 326.788245 
L 172.7823 318.716578 
L 173.2287 322.036161 
L 173.6751 320.237052 
L 174.1215 319.990178 
L 174.5679 322.394494 
L 175.0143 322.282168 
L 175.4607 318.679118 
L 176.3535 317.240422 
L 176.7999 319.989774 
L 177.2463 321.585441 
L 177.6927 319.2811 
L 178.1391 318.280493 
L 178.5855 319.034074 
L 179.0319 319.381332 
L 179.4783 319.035118 
L 179.9247 314.123762 
L 180.3711 318.692002 
L 180.8175 368.74175 
L 181.2639 312.284933 
L 181.7103 317.117921 
L 182.1567 314.341839 
L 182.6031 319.080845 
L 183.0495 316.840185 
L 183.4959 319.285274 
L 183.9423 316.817815 
L 184.8351 321.729688 
L 185.2815 315.985235 
L 185.7279 320.512903 
L 186.1743 312.459862 
L 186.6207 316.211215 
L 187.0671 317.38349 
L 187.5135 315.278649 
L 188.4063 323.390403 
L 188.8527 315.360307 
L 189.2991 319.735805 
L 189.7455 316.454298 
L 190.1919 319.844414 
L 190.6383 314.662509 
L 191.0847 319.361586 
L 191.5311 316.914327 
L 191.9775 319.986919 
L 192.4239 319.492168 
L 193.3167 310.094065 
L 193.7631 312.205094 
L 194.2095 316.323607 
L 195.1023 313.27029 
L 195.5487 314.684956 
L 195.9951 311.133154 
L 196.4415 318.444341 
L 196.8879 315.203321 
L 197.3343 316.503479 
L 197.7807 310.058194 
L 198.2271 312.60297 
L 198.6735 311.53936 
L 199.1199 317.593434 
L 200.0127 317.514504 
L 200.4591 311.952745 
L 200.9055 315.912475 
L 201.3519 306.29932 
L 201.7983 310.759565 
L 202.2447 307.158047 
L 202.6911 314.400566 
L 203.1375 312.129597 
L 204.0303 315.563141 
L 204.4767 313.789237 
L 204.9231 304.629031 
L 205.3695 313.922528 
L 205.8159 314.753779 
L 206.2623 312.397646 
L 206.7087 316.864686 
L 207.1551 316.41377 
L 207.6015 312.415219 
L 208.0479 319.045134 
L 208.4943 313.791207 
L 208.9407 311.868318 
L 209.3871 316.329511 
L 209.8335 308.101476 
L 210.2799 310.776567 
L 210.7263 311.199792 
L 211.1727 307.347241 
L 211.6191 313.91463 
L 212.0655 310.387424 
L 212.9583 309.815632 
L 213.4047 307.756841 
L 213.8511 299.365816 
L 214.2975 299.453996 
L 214.7439 311.211605 
L 215.1903 302.652418 
L 215.6367 309.553735 
L 216.0831 306.764437 
L 216.5295 307.430159 
L 216.9759 306.365628 
L 217.4223 310.365606 
L 217.8687 293.454039 
L 218.3151 307.26939 
L 218.7615 303.850207 
L 219.2079 308.024721 
L 219.6543 309.325548 
L 220.1007 306.15767 
L 220.5471 307.14762 
L 220.9935 306.647794 
L 221.8863 316.95946 
L 222.3327 314.495031 
L 222.7791 300.523598 
L 223.2255 308.314494 
L 223.6719 298.03578 
L 224.1183 303.021051 
L 224.5647 309.703423 
L 225.0111 291.722487 
L 225.4575 368.74175 
L 225.9039 299.569828 
L 226.3503 295.420827 
L 226.7967 309.370336 
L 227.2431 309.17063 
L 227.6895 284.562503 
L 229.0287 310.768436 
L 229.4751 314.694855 
L 229.9215 302.133889 
L 230.8143 306.359903 
L 231.2607 300.100295 
L 231.7071 289.1486 
L 232.1535 305.561471 
L 232.5999 282.177609 
L 233.0463 306.930274 
L 233.4927 307.143525 
L 233.9391 309.963584 
L 234.3855 296.781288 
L 234.8319 287.065264 
L 235.2783 298.760397 
L 235.7247 300.955162 
L 236.1711 278.592509 
L 236.6175 299.546296 
L 237.0639 297.195585 
L 237.5103 279.6715 
L 237.9567 283.835719 
L 238.4031 272.294724 
L 238.8495 299.361255 
L 239.2959 298.272409 
L 239.7423 300.059468 
L 240.1887 291.525183 
L 240.6351 280.506937 
L 241.0815 286.240973 
L 241.5279 297.040828 
L 241.9743 277.556373 
L 242.4207 295.918492 
L 242.8671 307.217791 
L 243.3135 308.740077 
L 244.2063 289.273472 
L 244.6527 298.509857 
L 245.0991 278.304772 
L 245.5455 281.233202 
L 245.9919 293.76887 
L 246.4383 266.570246 
L 246.8847 311.626345 
L 247.3311 300.23427 
L 247.7775 303.666793 
L 248.2239 301.275666 
L 248.6703 283.267416 
L 249.1167 280.312556 
L 249.5631 307.946938 
L 250.0095 298.751922 
L 250.4559 295.21416 
L 250.9023 307.828949 
L 251.3487 295.375269 
L 251.7951 292.114119 
L 252.2415 272.485442 
L 252.6879 308.762366 
L 253.1343 267.709404 
L 253.5807 287.841526 
L 254.0271 277.670702 
L 254.4735 285.6264 
L 254.9199 314.407605 
L 255.3663 296.353289 
L 255.8127 289.123264 
L 256.2591 289.627197 
L 256.7055 291.158598 
L 257.1519 305.123948 
L 257.5983 287.296398 
L 258.0447 290.537918 
L 258.4911 268.457407 
L 258.9375 284.233178 
L 259.3839 264.943467 
L 259.8303 264.643291 
L 260.2767 257.312512 
L 260.7231 296.062347 
L 262.0623 283.989451 
L 262.5087 267.595778 
L 262.9551 306.951036 
L 263.8479 262.995232 
L 264.2943 288.101947 
L 264.7407 280.409496 
L 265.1871 293.755201 
L 265.6335 287.507568 
L 266.0799 277.918535 
L 266.5263 303.349871 
L 267.4191 262.626969 
L 267.8655 256.668041 
L 268.3119 281.216233 
L 268.7583 262.188435 
L 269.6511 295.860566 
L 270.0975 368.74175 
L 270.5439 293.29511 
L 270.9903 290.710065 
L 271.4367 255.20665 
L 271.8831 292.127939 
L 272.3295 279.196392 
L 272.7759 253.726977 
L 273.2223 260.432834 
L 273.6687 262.703491 
L 274.1151 285.943491 
L 274.5615 275.799368 
L 275.0079 276.186754 
L 275.4543 248.590099 
L 275.9007 295.721878 
L 276.3471 280.182978 
L 276.7935 272.935439 
L 277.2399 272.894346 
L 277.6863 256.104882 
L 278.1327 294.299352 
L 278.5791 287.325258 
L 279.0255 238.296249 
L 279.4719 282.131869 
L 279.9183 266.091077 
L 280.3647 290.395476 
L 280.8111 291.836442 
L 281.2575 257.905422 
L 281.7039 276.828855 
L 282.1503 275.898012 
L 282.5967 247.516266 
L 283.0431 269.068224 
L 283.4895 254.961622 
L 283.9359 259.769317 
L 284.3823 258.10008 
L 284.8287 287.128415 
L 285.2751 285.482178 
L 285.7215 294.486069 
L 286.1679 288.980299 
L 286.6143 250.486778 
L 287.0607 284.585319 
L 287.5071 280.733272 
L 287.9535 281.62534 
L 288.3999 287.296615 
L 288.8463 255.878789 
L 289.2927 280.867345 
L 289.7391 293.4955 
L 290.1855 262.110324 
L 290.6319 283.76665 
L 291.0783 289.348335 
L 291.5247 232.294273 
L 291.9711 280.369081 
L 292.4175 263.495454 
L 292.8639 279.83396 
L 293.3103 230.215364 
L 293.7567 285.463289 
L 294.2031 282.722576 
L 294.6495 289.265884 
L 295.0959 259.988121 
L 295.5423 238.560645 
L 295.9887 298.059264 
L 296.4351 228.788408 
L 296.8815 254.948431 
L 297.3279 269.722287 
L 297.7743 254.225062 
L 298.2207 265.444808 
L 298.6671 272.26706 
L 299.1135 245.933519 
L 299.5599 247.686643 
L 300.0063 234.851092 
L 300.4527 303.872584 
L 300.8991 236.012624 
L 301.3455 232.434863 
L 301.7919 252.30895 
L 302.2383 282.128 
L 302.6847 281.786453 
L 303.1311 213.154179 
L 303.5775 231.222314 
L 304.0239 254.646606 
L 304.4703 240.144411 
L 304.9167 245.749848 
L 305.3631 238.737501 
L 305.8095 276.367847 
L 306.2559 238.77074 
L 306.7023 295.466788 
L 307.5951 249.803842 
L 308.0415 250.695864 
L 308.4879 270.09334 
L 308.9343 269.543501 
L 309.3807 261.188646 
L 309.8271 268.880061 
L 310.2735 268.432131 
L 310.7199 246.491122 
L 311.1663 287.539202 
L 312.5055 245.021488 
L 312.9519 269.048686 
L 313.3983 276.041463 
L 313.8447 233.950739 
L 314.2911 265.887472 
L 314.7375 368.74175 
L 315.1839 247.926837 
L 315.6303 238.261292 
L 316.0767 257.262567 
L 316.5231 250.444975 
L 316.9695 240.517076 
L 317.4159 280.356465 
L 317.8623 256.695378 
L 318.3087 268.398414 
L 319.2015 208.077844 
L 319.6479 215.787511 
L 320.0943 226.791835 
L 320.5407 256.598544 
L 320.9871 241.127645 
L 321.4335 231.702273 
L 321.8799 269.27002 
L 322.3263 283.230136 
L 322.7727 287.367548 
L 323.2191 273.885228 
L 323.6655 278.292492 
L 324.1119 280.497201 
L 324.5583 273.125046 
L 325.0047 234.492931 
L 325.4511 226.537893 
L 325.8975 235.502016 
L 326.3439 200.273057 
L 326.7903 208.652536 
L 327.2367 221.848412 
L 327.6831 216.463417 
L 328.1295 230.244863 
L 328.5759 264.773899 
L 329.0223 268.832525 
L 329.4687 261.063305 
L 329.9151 249.232484 
L 330.3615 265.609432 
L 330.8079 269.112362 
L 331.2543 201.591049 
L 331.7007 210.150709 
L 332.1471 198.031303 
L 332.5935 210.385217 
L 333.0399 265.608734 
L 333.4863 254.049142 
L 333.9327 216.275517 
L 334.3791 227.555268 
L 334.8255 271.937161 
L 335.2719 221.925695 
L 335.7183 244.902122 
L 336.1647 202.720861 
L 336.6111 214.195857 
L 337.0575 245.591822 
L 337.5039 237.734902 
L 337.9503 206.735832 
L 338.3967 186.011581 
L 338.8431 276.425515 
L 339.2895 260.267884 
L 339.7359 189.09504 
L 340.1823 202.976034 
L 340.6287 183.386787 
L 341.0751 276.656522 
L 341.5215 217.519105 
L 341.9679 263.975812 
L 342.4143 244.793594 
L 342.8607 281.136819 
L 343.3071 224.538405 
L 343.7535 217.894655 
L 344.1999 193.425928 
L 345.0927 187.95375 
L 345.5391 198.495232 
L 345.9855 218.295928 
L 346.4319 211.362436 
L 346.8783 261.251375 
L 347.3247 208.742719 
L 347.7711 215.663155 
L 348.2175 245.849892 
L 348.6639 224.396289 
L 349.1103 218.312869 
L 349.5567 225.255027 
L 350.0031 271.634399 
L 350.4495 287.134359 
L 350.8959 246.823732 
L 351.3423 244.983568 
L 351.7887 226.311542 
L 352.2351 194.139487 
L 352.6815 203.905739 
L 353.1279 196.091316 
L 353.5743 190.925923 
L 354.0207 231.799843 
L 354.4671 206.217617 
L 354.9135 259.164672 
L 355.3599 278.196692 
L 355.8063 255.903339 
L 356.2527 196.249373 
L 356.6991 185.742187 
L 357.1455 258.749143 
L 357.5919 301.8833 
L 358.0383 179.097764 
L 358.4847 185.198201 
L 358.9311 260.427918 
L 359.3775 368.74175 
L 359.8239 186.327814 
L 360.2703 247.650339 
L 360.7167 220.246429 
L 361.1631 212.070823 
L 361.6095 199.830798 
L 362.0559 235.030884 
L 362.5023 203.329183 
L 362.9487 237.721858 
L 363.3951 173.511988 
L 363.8415 250.38201 
L 364.2879 226.997598 
L 364.7343 190.631827 
L 365.1807 187.45896 
L 365.6271 182.78498 
L 366.0735 175.21742 
L 366.9663 243.221164 
L 367.4127 196.438442 
L 367.8591 205.643671 
L 368.3055 194.416261 
L 368.7519 209.675877 
L 369.1983 184.927846 
L 369.6447 189.587404 
L 370.0911 189.68384 
L 370.5375 183.819817 
L 370.9839 186.980699 
L 371.4303 230.346274 
L 371.8767 224.344437 
L 372.3231 182.534375 
L 372.7695 263.939413 
L 373.2159 215.912674 
L 373.6623 233.203803 
L 374.1087 237.299884 
L 374.5551 235.06395 
L 375.0015 173.932637 
L 375.4479 166.748058 
L 375.8943 157.266383 
L 376.3407 171.617832 
L 376.7871 200.272595 
L 377.2335 204.330689 
L 377.6799 226.952869 
L 378.1263 206.008209 
L 378.5727 166.087362 
L 379.0191 225.71588 
L 379.4655 220.346773 
L 379.9119 245.886111 
L 380.3583 214.00362 
L 380.8047 248.927792 
L 381.2511 167.663193 
L 381.6975 161.740846 
L 382.1439 229.528642 
L 382.5903 181.736962 
L 383.0367 176.82774 
L 383.4831 252.974744 
L 383.9295 196.146741 
L 384.3759 188.889146 
L 384.8223 147.695639 
L 385.2687 233.313034 
L 385.7151 234.60382 
L 386.1615 223.444437 
L 386.6079 198.637875 
L 387.0543 212.57065 
L 387.5007 165.250727 
L 387.9471 226.756172 
L 388.3935 187.432379 
L 388.8399 205.810564 
L 389.2863 202.242504 
L 389.7327 204.018616 
L 390.1791 212.570168 
L 390.6255 225.691845 
L 391.0719 207.782495 
L 391.5183 195.68662 
L 391.9647 165.025288 
L 392.4111 152.719215 
L 392.8575 160.88804 
L 393.3039 149.132019 
L 393.7503 159.972461 
L 394.1967 165.595675 
L 394.6431 257.427778 
L 395.0895 232.052735 
L 395.5359 157.762317 
L 395.9823 160.152344 
L 396.4287 157.612326 
L 396.8751 185.794756 
L 397.3215 152.034105 
L 397.7679 181.217864 
L 398.2143 149.087217 
L 398.6607 155.473712 
L 399.1071 186.826286 
L 399.5535 173.841868 
L 399.9999 164.207205 
L 400.4463 224.88156 
L 400.8927 139.724346 
L 401.3391 225.301634 
L 401.7855 161.89398 
L 402.2319 209.911398 
L 402.6783 212.906738 
L 403.1247 180.4078 
L 403.5711 235.57626 
L 404.0175 368.74175 
L 404.4639 174.731631 
L 404.9103 164.405064 
L 405.3567 159.412284 
L 405.8031 227.883752 
L 406.2495 216.78588 
L 406.6959 153.506675 
L 407.1423 189.875477 
L 407.5887 192.62837 
L 408.0351 150.785696 
L 408.4815 159.731958 
L 408.9279 213.087092 
L 409.3743 205.383845 
L 409.8207 213.239364 
L 410.2671 153.865101 
L 410.7135 195.924703 
L 411.1599 133.774344 
L 411.6063 180.729847 
L 412.0527 156.110116 
L 412.4991 138.92447 
L 412.9455 158.035676 
L 413.3919 191.216231 
L 413.8383 185.784526 
L 414.2847 164.988746 
L 414.7311 164.36868 
L 415.1775 157.38951 
L 415.6239 132.968075 
L 416.0703 154.107139 
L 416.5167 160.111296 
L 416.9631 148.871289 
L 417.4095 247.824166 
L 417.8559 134.920566 
L 418.3023 210.520302 
L 418.7487 149.899851 
L 419.1951 151.662168 
L 419.6415 162.826079 
L 420.0879 137.362767 
L 420.5343 140.542624 
L 420.9807 188.615107 
L 421.4271 184.774904 
L 421.8735 151.971345 
L 422.3199 143.790381 
L 422.7663 128.326619 
L 423.2127 136.702924 
L 423.6591 126.932564 
L 424.1055 204.311619 
L 424.5519 123.55585 
L 424.9983 185.008102 
L 425.4447 121.334078 
L 425.8911 187.091919 
L 426.3375 122.057439 
L 426.7839 219.501915 
L 427.2303 117.45623 
L 427.6767 189.820651 
L 428.1231 229.316057 
L 428.5695 145.104427 
L 429.0159 147.071416 
L 429.4623 129.760149 
L 429.9087 151.310794 
L 430.3551 185.014056 
L 430.8015 162.531354 
L 431.2479 157.62018 
L 431.6943 170.809058 
L 432.1407 127.777482 
L 432.5871 162.809724 
L 433.0335 182.784508 
L 433.4799 149.691971 
L 433.9263 154.18662 
L 434.3727 166.324378 
L 434.8191 190.130394 
L 435.2655 141.892993 
L 435.7119 128.430565 
L 436.1583 107.560493 
L 436.6047 157.88214 
L 437.0511 107.632283 
L 437.4975 249.972249 
L 437.9439 135.385504 
L 438.3903 147.220159 
L 438.8367 120.944067 
L 439.2831 129.538088 
L 439.7295 131.540498 
L 440.1759 131.622558 
L 440.6223 125.935724 
L 441.0687 166.979358 
L 441.5151 125.894719 
L 441.9615 119.148731 
L 442.4079 188.512976 
L 442.8543 128.359074 
L 443.3007 107.026311 
L 443.7471 155.372997 
L 444.1935 114.736948 
L 444.6399 240.224849 
L 445.0863 148.18227 
L 445.5327 120.281792 
L 445.9791 214.423384 
L 446.4255 100.391328 
L 446.8719 154.283105 
L 447.3183 149.745024 
L 447.7647 152.476171 
L 448.2111 134.78117 
L 448.6575 368.74175 
L 449.1039 135.567719 
L 449.5503 174.918182 
L 449.9967 182.15273 
L 450.4431 234.101694 
L 450.8895 132.542949 
L 451.3359 117.576896 
L 451.7823 132.649728 
L 452.2287 139.588427 
L 452.6751 163.150846 
L 453.1215 139.749581 
L 453.5679 130.826474 
L 454.0143 130.809801 
L 454.4607 150.333307 
L 454.9071 117.624726 
L 455.3535 154.342739 
L 455.7999 179.89165 
L 456.2463 165.063276 
L 456.6927 164.221555 
L 457.1391 142.400089 
L 457.5855 144.807771 
L 458.0319 139.00126 
L 458.4783 124.770591 
L 458.9247 153.82616 
L 459.3711 138.993022 
L 459.8175 114.370946 
L 460.2639 114.901014 
L 460.7103 206.49393 
L 461.6031 108.019208 
L 462.0495 106.523916 
L 462.4959 121.747452 
L 462.9423 129.851194 
L 463.3887 127.66776 
L 463.8351 140.755288 
L 464.2815 141.769937 
L 464.7279 117.704391 
L 465.1743 115.917485 
L 465.6207 94.914801 
L 466.0671 81.543434 
L 466.5135 134.362164 
L 466.9599 125.434784 
L 467.4063 147.531037 
L 467.8527 110.230814 
L 468.2991 108.143318 
L 468.7455 117.230949 
L 469.1919 113.809079 
L 469.6383 96.369135 
L 470.0847 85.59986 
L 470.5311 111.490312 
L 471.4239 148.969438 
L 471.8703 125.342633 
L 472.3167 117.614263 
L 472.7631 122.224097 
L 473.2095 75.476398 
L 473.6559 86.152534 
L 474.1023 224.126774 
L 474.5487 92.987974 
L 474.9951 160.436778 
L 475.4415 133.540862 
L 475.8879 157.293457 
L 476.3343 93.267556 
L 476.7807 131.165569 
L 477.2271 134.115973 
L 477.6735 90.982986 
L 478.1199 85.915354 
L 478.5663 109.621954 
L 479.0127 100.173808 
L 479.4591 189.860954 
L 479.9055 146.892733 
L 480.3519 132.935552 
L 480.7983 142.455223 
L 481.6911 95.031494 
L 482.1375 134.956668 
L 482.5839 118.946532 
L 483.0303 82.761124 
L 483.4767 89.90977 
L 483.9231 93.236092 
L 484.3695 90.23872 
L 484.8159 85.268337 
L 485.2623 99.254245 
L 485.7087 75.473375 
L 486.1551 170.487678 
L 486.6015 151.209681 
L 487.0479 114.388946 
L 487.4943 116.696305 
L 487.9407 124.139496 
L 488.3871 234.346309 
L 488.8335 75.419667 
L 489.2799 57.520864 
L 489.7263 70.082898 
L 490.1727 101.306337 
L 490.6191 105.955128 
L 491.0655 129.505899 
L 491.5119 90.748052 
L 491.9583 150.13285 
L 492.4047 77.20868 
L 492.8511 96.967713 
L 492.8511 96.967713 
" style="fill:none;stroke:#0000ff;stroke-linecap:square;stroke-width:0.5;"/>
   </g>
   <g id="patch_3">
    <path d="M 46.8975 368.74175 
L 46.8975 23.14175 
" style="fill:none;stroke:#000000;stroke-linecap:square;stroke-linejoin:miter;"/>
   </g>
   <g id="patch_4">
    <path d="M 493.2975 368.74175 
L 493.2975 23.14175 
" style="fill:none;stroke:#000000;stroke-linecap:square;stroke-linejoin:miter;"/>
   </g>
   <g id="patch_5">
    <path d="M 46.8975 368.74175 
L 493.2975 368.74175 
" style="fill:none;stroke:#000000;stroke-linecap:square;stroke-linejoin:miter;"/>
   </g>
   <g id="patch_6">
    <path d="M 46.8975 23.14175 
L 493.2975 23.14175 
" style="fill:none;stroke:#000000;stroke-linecap:square;stroke-linejoin:miter;"/>
   </g>
   <g id="matplotlib.axis_1">
    <g id="xtick_1">
     <g id="line2d_2">
      <defs>
       <path d="M 0 0 
L 0 -4 
" id="mbb62ee132c" style="stroke:#000000;stroke-width:0.5;"/>
      </defs>
      <g>
       <use style="stroke:#000000;stroke-width:0.5;" x="46.8975" xlink:href="#mbb62ee132c" y="368.74175"/>
      </g>
     </g>
     <g id="line2d_3">
      <defs>
       <path d="M 0 0 
L 0 4 
" id="m17d18bd05e" style="stroke:#000000;stroke-width:0.5;"/>
      </defs>
      <g>
       <use style="stroke:#000000;stroke-width:0.5;" x="46.8975" xlink:href="#m17d18bd05e" y="23.14175"/>
      </g>
     </g>
     <g id="text_1">
      <!-- 0 -->
      <defs>
       <path d="M 31.78125 66.40625 
Q 24.171875 66.40625 20.328125 58.90625 
Q 16.5 51.421875 16.5 36.375 
Q 16.5 21.390625 20.328125 13.890625 
Q 24.171875 6.390625 31.78125 6.390625 
Q 39.453125 6.390625 43.28125 13.890625 
Q 47.125 21.390625 47.125 36.375 
Q 47.125 51.421875 43.28125 58.90625 
Q 39.453125 66.40625 31.78125 66.40625 
M 31.78125 74.21875 
Q 44.046875 74.21875 50.515625 64.515625 
Q 56.984375 54.828125 56.984375 36.375 
Q 56.984375 17.96875 50.515625 8.265625 
Q 44.046875 -1.421875 31.78125 -1.421875 
Q 19.53125 -1.421875 13.0625 8.265625 
Q 6.59375 17.96875 6.59375 36.375 
Q 6.59375 54.828125 13.0625 64.515625 
Q 19.53125 74.21875 31.78125 74.21875 
" id="BitstreamVeraSans-Roman-30"/>
      </defs>
      <g transform="translate(43.08 381.859875)scale(0.12 -0.12)">
       <use xlink:href="#BitstreamVeraSans-Roman-30"/>
      </g>
     </g>
    </g>
    <g id="xtick_2">
     <g id="line2d_4">
      <g>
       <use style="stroke:#000000;stroke-width:0.5;" x="136.1775" xlink:href="#mbb62ee132c" y="368.74175"/>
      </g>
     </g>
     <g id="line2d_5">
      <g>
       <use style="stroke:#000000;stroke-width:0.5;" x="136.1775" xlink:href="#m17d18bd05e" y="23.14175"/>
      </g>
     </g>
     <g id="text_2">
      <!-- 200 -->
      <defs>
       <path d="M 19.1875 8.296875 
L 53.609375 8.296875 
L 53.609375 0 
L 7.328125 0 
L 7.328125 8.296875 
Q 12.9375 14.109375 22.625 23.890625 
Q 32.328125 33.6875 34.8125 36.53125 
Q 39.546875 41.84375 41.421875 45.53125 
Q 43.3125 49.21875 43.3125 52.78125 
Q 43.3125 58.59375 39.234375 62.25 
Q 35.15625 65.921875 28.609375 65.921875 
Q 23.96875 65.921875 18.8125 64.3125 
Q 13.671875 62.703125 7.8125 59.421875 
L 7.8125 69.390625 
Q 13.765625 71.78125 18.9375 73 
Q 24.125 74.21875 28.421875 74.21875 
Q 39.75 74.21875 46.484375 68.546875 
Q 53.21875 62.890625 53.21875 53.421875 
Q 53.21875 48.921875 51.53125 44.890625 
Q 49.859375 40.875 45.40625 35.40625 
Q 44.1875 33.984375 37.640625 27.21875 
Q 31.109375 20.453125 19.1875 8.296875 
" id="BitstreamVeraSans-Roman-32"/>
      </defs>
      <g transform="translate(124.725 381.859875)scale(0.12 -0.12)">
       <use xlink:href="#BitstreamVeraSans-Roman-32"/>
       <use x="63.623046875" xlink:href="#BitstreamVeraSans-Roman-30"/>
       <use x="127.24609375" xlink:href="#BitstreamVeraSans-Roman-30"/>
      </g>
     </g>
    </g>
    <g id="xtick_3">
     <g id="line2d_6">
      <g>
       <use style="stroke:#000000;stroke-width:0.5;" x="225.4575" xlink:href="#mbb62ee132c" y="368.74175"/>
      </g>
     </g>
     <g id="line2d_7">
      <g>
       <use style="stroke:#000000;stroke-width:0.5;" x="225.4575" xlink:href="#m17d18bd05e" y="23.14175"/>
      </g>
     </g>
     <g id="text_3">
      <!-- 400 -->
      <defs>
       <path d="M 37.796875 64.3125 
L 12.890625 25.390625 
L 37.796875 25.390625 
z
M 35.203125 72.90625 
L 47.609375 72.90625 
L 47.609375 25.390625 
L 58.015625 25.390625 
L 58.015625 17.1875 
L 47.609375 17.1875 
L 47.609375 0 
L 37.796875 0 
L 37.796875 17.1875 
L 4.890625 17.1875 
L 4.890625 26.703125 
z
" id="BitstreamVeraSans-Roman-34"/>
      </defs>
      <g transform="translate(214.005 381.859875)scale(0.12 -0.12)">
       <use xlink:href="#BitstreamVeraSans-Roman-34"/>
       <use x="63.623046875" xlink:href="#BitstreamVeraSans-Roman-30"/>
       <use x="127.24609375" xlink:href="#BitstreamVeraSans-Roman-30"/>
      </g>
     </g>
    </g>
    <g id="xtick_4">
     <g id="line2d_8">
      <g>
       <use style="stroke:#000000;stroke-width:0.5;" x="314.7375" xlink:href="#mbb62ee132c" y="368.74175"/>
      </g>
     </g>
     <g id="line2d_9">
      <g>
       <use style="stroke:#000000;stroke-width:0.5;" x="314.7375" xlink:href="#m17d18bd05e" y="23.14175"/>
      </g>
     </g>
     <g id="text_4">
      <!-- 600 -->
      <defs>
       <path d="M 33.015625 40.375 
Q 26.375 40.375 22.484375 35.828125 
Q 18.609375 31.296875 18.609375 23.390625 
Q 18.609375 15.53125 22.484375 10.953125 
Q 26.375 6.390625 33.015625 6.390625 
Q 39.65625 6.390625 43.53125 10.953125 
Q 47.40625 15.53125 47.40625 23.390625 
Q 47.40625 31.296875 43.53125 35.828125 
Q 39.65625 40.375 33.015625 40.375 
M 52.59375 71.296875 
L 52.59375 62.3125 
Q 48.875 64.0625 45.09375 64.984375 
Q 41.3125 65.921875 37.59375 65.921875 
Q 27.828125 65.921875 22.671875 59.328125 
Q 17.53125 52.734375 16.796875 39.40625 
Q 19.671875 43.65625 24.015625 45.921875 
Q 28.375 48.1875 33.59375 48.1875 
Q 44.578125 48.1875 50.953125 41.515625 
Q 57.328125 34.859375 57.328125 23.390625 
Q 57.328125 12.15625 50.6875 5.359375 
Q 44.046875 -1.421875 33.015625 -1.421875 
Q 20.359375 -1.421875 13.671875 8.265625 
Q 6.984375 17.96875 6.984375 36.375 
Q 6.984375 53.65625 15.1875 63.9375 
Q 23.390625 74.21875 37.203125 74.21875 
Q 40.921875 74.21875 44.703125 73.484375 
Q 48.484375 72.75 52.59375 71.296875 
" id="BitstreamVeraSans-Roman-36"/>
      </defs>
      <g transform="translate(303.285 381.859875)scale(0.12 -0.12)">
       <use xlink:href="#BitstreamVeraSans-Roman-36"/>
       <use x="63.623046875" xlink:href="#BitstreamVeraSans-Roman-30"/>
       <use x="127.24609375" xlink:href="#BitstreamVeraSans-Roman-30"/>
      </g>
     </g>
    </g>
    <g id="xtick_5">
     <g id="line2d_10">
      <g>
       <use style="stroke:#000000;stroke-width:0.5;" x="404.0175" xlink:href="#mbb62ee132c" y="368.74175"/>
      </g>
     </g>
     <g id="line2d_11">
      <g>
       <use style="stroke:#000000;stroke-width:0.5;" x="404.0175" xlink:href="#m17d18bd05e" y="23.14175"/>
      </g>
     </g>
     <g id="text_5">
      <!-- 800 -->
      <defs>
       <path d="M 31.78125 34.625 
Q 24.75 34.625 20.71875 30.859375 
Q 16.703125 27.09375 16.703125 20.515625 
Q 16.703125 13.921875 20.71875 10.15625 
Q 24.75 6.390625 31.78125 6.390625 
Q 38.8125 6.390625 42.859375 10.171875 
Q 46.921875 13.96875 46.921875 20.515625 
Q 46.921875 27.09375 42.890625 30.859375 
Q 38.875 34.625 31.78125 34.625 
M 21.921875 38.8125 
Q 15.578125 40.375 12.03125 44.71875 
Q 8.5 49.078125 8.5 55.328125 
Q 8.5 64.0625 14.71875 69.140625 
Q 20.953125 74.21875 31.78125 74.21875 
Q 42.671875 74.21875 48.875 69.140625 
Q 55.078125 64.0625 55.078125 55.328125 
Q 55.078125 49.078125 51.53125 44.71875 
Q 48 40.375 41.703125 38.8125 
Q 48.828125 37.15625 52.796875 32.3125 
Q 56.78125 27.484375 56.78125 20.515625 
Q 56.78125 9.90625 50.3125 4.234375 
Q 43.84375 -1.421875 31.78125 -1.421875 
Q 19.734375 -1.421875 13.25 4.234375 
Q 6.78125 9.90625 6.78125 20.515625 
Q 6.78125 27.484375 10.78125 32.3125 
Q 14.796875 37.15625 21.921875 38.8125 
M 18.3125 54.390625 
Q 18.3125 48.734375 21.84375 45.5625 
Q 25.390625 42.390625 31.78125 42.390625 
Q 38.140625 42.390625 41.71875 45.5625 
Q 45.3125 48.734375 45.3125 54.390625 
Q 45.3125 60.0625 41.71875 63.234375 
Q 38.140625 66.40625 31.78125 66.40625 
Q 25.390625 66.40625 21.84375 63.234375 
Q 18.3125 60.0625 18.3125 54.390625 
" id="BitstreamVeraSans-Roman-38"/>
      </defs>
      <g transform="translate(392.565 381.859875)scale(0.12 -0.12)">
       <use xlink:href="#BitstreamVeraSans-Roman-38"/>
       <use x="63.623046875" xlink:href="#BitstreamVeraSans-Roman-30"/>
       <use x="127.24609375" xlink:href="#BitstreamVeraSans-Roman-30"/>
      </g>
     </g>
    </g>
    <g id="xtick_6">
     <g id="line2d_12">
      <g>
       <use style="stroke:#000000;stroke-width:0.5;" x="493.2975" xlink:href="#mbb62ee132c" y="368.74175"/>
      </g>
     </g>
     <g id="line2d_13">
      <g>
       <use style="stroke:#000000;stroke-width:0.5;" x="493.2975" xlink:href="#m17d18bd05e" y="23.14175"/>
      </g>
     </g>
     <g id="text_6">
      <!-- 1000 -->
      <defs>
       <path d="M 12.40625 8.296875 
L 28.515625 8.296875 
L 28.515625 63.921875 
L 10.984375 60.40625 
L 10.984375 69.390625 
L 28.421875 72.90625 
L 38.28125 72.90625 
L 38.28125 8.296875 
L 54.390625 8.296875 
L 54.390625 0 
L 12.40625 0 
z
" id="BitstreamVeraSans-Roman-31"/>
      </defs>
      <g transform="translate(478.0275 381.859875)scale(0.12 -0.12)">
       <use xlink:href="#BitstreamVeraSans-Roman-31"/>
       <use x="63.623046875" xlink:href="#BitstreamVeraSans-Roman-30"/>
       <use x="127.24609375" xlink:href="#BitstreamVeraSans-Roman-30"/>
       <use x="190.869140625" xlink:href="#BitstreamVeraSans-Roman-30"/>
      </g>
     </g>
    </g>
    <g id="text_7">
     <!-- episode -->
     <defs>
      <path d="M 30.609375 48.390625 
Q 23.390625 48.390625 19.1875 42.75 
Q 14.984375 37.109375 14.984375 27.296875 
Q 14.984375 17.484375 19.15625 11.84375 
Q 23.34375 6.203125 30.609375 6.203125 
Q 37.796875 6.203125 41.984375 11.859375 
Q 46.1875 17.53125 46.1875 27.296875 
Q 46.1875 37.015625 41.984375 42.703125 
Q 37.796875 48.390625 30.609375 48.390625 
M 30.609375 56 
Q 42.328125 56 49.015625 48.375 
Q 55.71875 40.765625 55.71875 27.296875 
Q 55.71875 13.875 49.015625 6.21875 
Q 42.328125 -1.421875 30.609375 -1.421875 
Q 18.84375 -1.421875 12.171875 6.21875 
Q 5.515625 13.875 5.515625 27.296875 
Q 5.515625 40.765625 12.171875 48.375 
Q 18.84375 56 30.609375 56 
" id="BitstreamVeraSans-Roman-6f"/>
      <path d="M 56.203125 29.59375 
L 56.203125 25.203125 
L 14.890625 25.203125 
Q 15.484375 15.921875 20.484375 11.0625 
Q 25.484375 6.203125 34.421875 6.203125 
Q 39.59375 6.203125 44.453125 7.46875 
Q 49.3125 8.734375 54.109375 11.28125 
L 54.109375 2.78125 
Q 49.265625 0.734375 44.1875 -0.34375 
Q 39.109375 -1.421875 33.890625 -1.421875 
Q 20.796875 -1.421875 13.15625 6.1875 
Q 5.515625 13.8125 5.515625 26.8125 
Q 5.515625 40.234375 12.765625 48.109375 
Q 20.015625 56 32.328125 56 
Q 43.359375 56 49.78125 48.890625 
Q 56.203125 41.796875 56.203125 29.59375 
M 47.21875 32.234375 
Q 47.125 39.59375 43.09375 43.984375 
Q 39.0625 48.390625 32.421875 48.390625 
Q 24.90625 48.390625 20.390625 44.140625 
Q 15.875 39.890625 15.1875 32.171875 
z
" id="BitstreamVeraSans-Roman-65"/>
      <path d="M 44.28125 53.078125 
L 44.28125 44.578125 
Q 40.484375 46.53125 36.375 47.5 
Q 32.28125 48.484375 27.875 48.484375 
Q 21.1875 48.484375 17.84375 46.4375 
Q 14.5 44.390625 14.5 40.28125 
Q 14.5 37.15625 16.890625 35.375 
Q 19.28125 33.59375 26.515625 31.984375 
L 29.59375 31.296875 
Q 39.15625 29.25 43.1875 25.515625 
Q 47.21875 21.78125 47.21875 15.09375 
Q 47.21875 7.46875 41.1875 3.015625 
Q 35.15625 -1.421875 24.609375 -1.421875 
Q 20.21875 -1.421875 15.453125 -0.5625 
Q 10.6875 0.296875 5.421875 2 
L 5.421875 11.28125 
Q 10.40625 8.6875 15.234375 7.390625 
Q 20.0625 6.109375 24.8125 6.109375 
Q 31.15625 6.109375 34.5625 8.28125 
Q 37.984375 10.453125 37.984375 14.40625 
Q 37.984375 18.0625 35.515625 20.015625 
Q 33.0625 21.96875 24.703125 23.78125 
L 21.578125 24.515625 
Q 13.234375 26.265625 9.515625 29.90625 
Q 5.8125 33.546875 5.8125 39.890625 
Q 5.8125 47.609375 11.28125 51.796875 
Q 16.75 56 26.8125 56 
Q 31.78125 56 36.171875 55.265625 
Q 40.578125 54.546875 44.28125 53.078125 
" id="BitstreamVeraSans-Roman-73"/>
      <path d="M 18.109375 8.203125 
L 18.109375 -20.796875 
L 9.078125 -20.796875 
L 9.078125 54.6875 
L 18.109375 54.6875 
L 18.109375 46.390625 
Q 20.953125 51.265625 25.265625 53.625 
Q 29.59375 56 35.59375 56 
Q 45.5625 56 51.78125 48.09375 
Q 58.015625 40.1875 58.015625 27.296875 
Q 58.015625 14.40625 51.78125 6.484375 
Q 45.5625 -1.421875 35.59375 -1.421875 
Q 29.59375 -1.421875 25.265625 0.953125 
Q 20.953125 3.328125 18.109375 8.203125 
M 48.6875 27.296875 
Q 48.6875 37.203125 44.609375 42.84375 
Q 40.53125 48.484375 33.40625 48.484375 
Q 26.265625 48.484375 22.1875 42.84375 
Q 18.109375 37.203125 18.109375 27.296875 
Q 18.109375 17.390625 22.1875 11.75 
Q 26.265625 6.109375 33.40625 6.109375 
Q 40.53125 6.109375 44.609375 11.75 
Q 48.6875 17.390625 48.6875 27.296875 
" id="BitstreamVeraSans-Roman-70"/>
      <path d="M 9.421875 54.6875 
L 18.40625 54.6875 
L 18.40625 0 
L 9.421875 0 
z
M 9.421875 75.984375 
L 18.40625 75.984375 
L 18.40625 64.59375 
L 9.421875 64.59375 
z
" id="BitstreamVeraSans-Roman-69"/>
      <path d="M 45.40625 46.390625 
L 45.40625 75.984375 
L 54.390625 75.984375 
L 54.390625 0 
L 45.40625 0 
L 45.40625 8.203125 
Q 42.578125 3.328125 38.25 0.953125 
Q 33.9375 -1.421875 27.875 -1.421875 
Q 17.96875 -1.421875 11.734375 6.484375 
Q 5.515625 14.40625 5.515625 27.296875 
Q 5.515625 40.1875 11.734375 48.09375 
Q 17.96875 56 27.875 56 
Q 33.9375 56 38.25 53.625 
Q 42.578125 51.265625 45.40625 46.390625 
M 14.796875 27.296875 
Q 14.796875 17.390625 18.875 11.75 
Q 22.953125 6.109375 30.078125 6.109375 
Q 37.203125 6.109375 41.296875 11.75 
Q 45.40625 17.390625 45.40625 27.296875 
Q 45.40625 37.203125 41.296875 42.84375 
Q 37.203125 48.484375 30.078125 48.484375 
Q 22.953125 48.484375 18.875 42.84375 
Q 14.796875 37.203125 14.796875 27.296875 
" id="BitstreamVeraSans-Roman-64"/>
     </defs>
     <g transform="translate(246.631875 398.473625)scale(0.12 -0.12)">
      <use xlink:href="#BitstreamVeraSans-Roman-65"/>
      <use x="61.5234375" xlink:href="#BitstreamVeraSans-Roman-70"/>
      <use x="125.0" xlink:href="#BitstreamVeraSans-Roman-69"/>
      <use x="152.783203125" xlink:href="#BitstreamVeraSans-Roman-73"/>
      <use x="204.8828125" xlink:href="#BitstreamVeraSans-Roman-6f"/>
      <use x="266.064453125" xlink:href="#BitstreamVeraSans-Roman-64"/>
      <use x="329.541015625" xlink:href="#BitstreamVeraSans-Roman-65"/>
     </g>
    </g>
   </g>
   <g id="matplotlib.axis_2">
    <g id="ytick_1">
     <g id="line2d_14">
      <defs>
       <path d="M 0 0 
L 4 0 
" id="mdc0d0b0aa7" style="stroke:#000000;stroke-width:0.5;"/>
      </defs>
      <g>
       <use style="stroke:#000000;stroke-width:0.5;" x="46.8975" xlink:href="#mdc0d0b0aa7" y="368.74175"/>
      </g>
     </g>
     <g id="line2d_15">
      <defs>
       <path d="M 0 0 
L -4 0 
" id="mf53108e99a" style="stroke:#000000;stroke-width:0.5;"/>
      </defs>
      <g>
       <use style="stroke:#000000;stroke-width:0.5;" x="493.2975" xlink:href="#mf53108e99a" y="368.74175"/>
      </g>
     </g>
     <g id="text_8">
      <!-- 0.0 -->
      <defs>
       <path d="M 10.6875 12.40625 
L 21 12.40625 
L 21 0 
L 10.6875 0 
z
" id="BitstreamVeraSans-Roman-2e"/>
      </defs>
      <g transform="translate(23.81375 372.053)scale(0.12 -0.12)">
       <use xlink:href="#BitstreamVeraSans-Roman-30"/>
       <use x="63.623046875" xlink:href="#BitstreamVeraSans-Roman-2e"/>
       <use x="95.41015625" xlink:href="#BitstreamVeraSans-Roman-30"/>
      </g>
     </g>
    </g>
    <g id="ytick_2">
     <g id="line2d_16">
      <g>
       <use style="stroke:#000000;stroke-width:0.5;" x="46.8975" xlink:href="#mdc0d0b0aa7" y="311.14175"/>
      </g>
     </g>
     <g id="line2d_17">
      <g>
       <use style="stroke:#000000;stroke-width:0.5;" x="493.2975" xlink:href="#mf53108e99a" y="311.14175"/>
      </g>
     </g>
     <g id="text_9">
      <!-- 0.2 -->
      <g transform="translate(23.81375 314.453)scale(0.12 -0.12)">
       <use xlink:href="#BitstreamVeraSans-Roman-30"/>
       <use x="63.623046875" xlink:href="#BitstreamVeraSans-Roman-2e"/>
       <use x="95.41015625" xlink:href="#BitstreamVeraSans-Roman-32"/>
      </g>
     </g>
    </g>
    <g id="ytick_3">
     <g id="line2d_18">
      <g>
       <use style="stroke:#000000;stroke-width:0.5;" x="46.8975" xlink:href="#mdc0d0b0aa7" y="253.54175"/>
      </g>
     </g>
     <g id="line2d_19">
      <g>
       <use style="stroke:#000000;stroke-width:0.5;" x="493.2975" xlink:href="#mf53108e99a" y="253.54175"/>
      </g>
     </g>
     <g id="text_10">
      <!-- 0.4 -->
      <g transform="translate(23.81375 256.853)scale(0.12 -0.12)">
       <use xlink:href="#BitstreamVeraSans-Roman-30"/>
       <use x="63.623046875" xlink:href="#BitstreamVeraSans-Roman-2e"/>
       <use x="95.41015625" xlink:href="#BitstreamVeraSans-Roman-34"/>
      </g>
     </g>
    </g>
    <g id="ytick_4">
     <g id="line2d_20">
      <g>
       <use style="stroke:#000000;stroke-width:0.5;" x="46.8975" xlink:href="#mdc0d0b0aa7" y="195.94175"/>
      </g>
     </g>
     <g id="line2d_21">
      <g>
       <use style="stroke:#000000;stroke-width:0.5;" x="493.2975" xlink:href="#mf53108e99a" y="195.94175"/>
      </g>
     </g>
     <g id="text_11">
      <!-- 0.6 -->
      <g transform="translate(23.81375 199.253)scale(0.12 -0.12)">
       <use xlink:href="#BitstreamVeraSans-Roman-30"/>
       <use x="63.623046875" xlink:href="#BitstreamVeraSans-Roman-2e"/>
       <use x="95.41015625" xlink:href="#BitstreamVeraSans-Roman-36"/>
      </g>
     </g>
    </g>
    <g id="ytick_5">
     <g id="line2d_22">
      <g>
       <use style="stroke:#000000;stroke-width:0.5;" x="46.8975" xlink:href="#mdc0d0b0aa7" y="138.34175"/>
      </g>
     </g>
     <g id="line2d_23">
      <g>
       <use style="stroke:#000000;stroke-width:0.5;" x="493.2975" xlink:href="#mf53108e99a" y="138.34175"/>
      </g>
     </g>
     <g id="text_12">
      <!-- 0.8 -->
      <g transform="translate(23.81375 141.653)scale(0.12 -0.12)">
       <use xlink:href="#BitstreamVeraSans-Roman-30"/>
       <use x="63.623046875" xlink:href="#BitstreamVeraSans-Roman-2e"/>
       <use x="95.41015625" xlink:href="#BitstreamVeraSans-Roman-38"/>
      </g>
     </g>
    </g>
    <g id="ytick_6">
     <g id="line2d_24">
      <g>
       <use style="stroke:#000000;stroke-width:0.5;" x="46.8975" xlink:href="#mdc0d0b0aa7" y="80.74175"/>
      </g>
     </g>
     <g id="line2d_25">
      <g>
       <use style="stroke:#000000;stroke-width:0.5;" x="493.2975" xlink:href="#mf53108e99a" y="80.74175"/>
      </g>
     </g>
     <g id="text_13">
      <!-- 1.0 -->
      <g transform="translate(23.81375 84.053)scale(0.12 -0.12)">
       <use xlink:href="#BitstreamVeraSans-Roman-31"/>
       <use x="63.623046875" xlink:href="#BitstreamVeraSans-Roman-2e"/>
       <use x="95.41015625" xlink:href="#BitstreamVeraSans-Roman-30"/>
      </g>
     </g>
    </g>
    <g id="ytick_7">
     <g id="line2d_26">
      <g>
       <use style="stroke:#000000;stroke-width:0.5;" x="46.8975" xlink:href="#mdc0d0b0aa7" y="23.14175"/>
      </g>
     </g>
     <g id="line2d_27">
      <g>
       <use style="stroke:#000000;stroke-width:0.5;" x="493.2975" xlink:href="#mf53108e99a" y="23.14175"/>
      </g>
     </g>
     <g id="text_14">
      <!-- 1.2 -->
      <g transform="translate(23.81375 26.453)scale(0.12 -0.12)">
       <use xlink:href="#BitstreamVeraSans-Roman-31"/>
       <use x="63.623046875" xlink:href="#BitstreamVeraSans-Roman-2e"/>
       <use x="95.41015625" xlink:href="#BitstreamVeraSans-Roman-32"/>
      </g>
     </g>
    </g>
    <g id="text_15">
     <!-- average maxQ -->
     <defs>
      <path d="M 2.984375 54.6875 
L 12.5 54.6875 
L 29.59375 8.796875 
L 46.6875 54.6875 
L 56.203125 54.6875 
L 35.6875 0 
L 23.484375 0 
z
" id="BitstreamVeraSans-Roman-76"/>
      <path d="M 41.109375 46.296875 
Q 39.59375 47.171875 37.8125 47.578125 
Q 36.03125 48 33.890625 48 
Q 26.265625 48 22.1875 43.046875 
Q 18.109375 38.09375 18.109375 28.8125 
L 18.109375 0 
L 9.078125 0 
L 9.078125 54.6875 
L 18.109375 54.6875 
L 18.109375 46.1875 
Q 20.953125 51.171875 25.484375 53.578125 
Q 30.03125 56 36.53125 56 
Q 37.453125 56 38.578125 55.875 
Q 39.703125 55.765625 41.0625 55.515625 
z
" id="BitstreamVeraSans-Roman-72"/>
      <path d="M 45.40625 27.984375 
Q 45.40625 37.75 41.375 43.109375 
Q 37.359375 48.484375 30.078125 48.484375 
Q 22.859375 48.484375 18.828125 43.109375 
Q 14.796875 37.75 14.796875 27.984375 
Q 14.796875 18.265625 18.828125 12.890625 
Q 22.859375 7.515625 30.078125 7.515625 
Q 37.359375 7.515625 41.375 12.890625 
Q 45.40625 18.265625 45.40625 27.984375 
M 54.390625 6.78125 
Q 54.390625 -7.171875 48.1875 -13.984375 
Q 42 -20.796875 29.203125 -20.796875 
Q 24.46875 -20.796875 20.265625 -20.09375 
Q 16.0625 -19.390625 12.109375 -17.921875 
L 12.109375 -9.1875 
Q 16.0625 -11.328125 19.921875 -12.34375 
Q 23.78125 -13.375 27.78125 -13.375 
Q 36.625 -13.375 41.015625 -8.765625 
Q 45.40625 -4.15625 45.40625 5.171875 
L 45.40625 9.625 
Q 42.625 4.78125 38.28125 2.390625 
Q 33.9375 0 27.875 0 
Q 17.828125 0 11.671875 7.65625 
Q 5.515625 15.328125 5.515625 27.984375 
Q 5.515625 40.671875 11.671875 48.328125 
Q 17.828125 56 27.875 56 
Q 33.9375 56 38.28125 53.609375 
Q 42.625 51.21875 45.40625 46.390625 
L 45.40625 54.6875 
L 54.390625 54.6875 
z
" id="BitstreamVeraSans-Roman-67"/>
      <path id="BitstreamVeraSans-Roman-20"/>
      <path d="M 52 44.1875 
Q 55.375 50.25 60.0625 53.125 
Q 64.75 56 71.09375 56 
Q 79.640625 56 84.28125 50.015625 
Q 88.921875 44.046875 88.921875 33.015625 
L 88.921875 0 
L 79.890625 0 
L 79.890625 32.71875 
Q 79.890625 40.578125 77.09375 44.375 
Q 74.3125 48.1875 68.609375 48.1875 
Q 61.625 48.1875 57.5625 43.546875 
Q 53.515625 38.921875 53.515625 30.90625 
L 53.515625 0 
L 44.484375 0 
L 44.484375 32.71875 
Q 44.484375 40.625 41.703125 44.40625 
Q 38.921875 48.1875 33.109375 48.1875 
Q 26.21875 48.1875 22.15625 43.53125 
Q 18.109375 38.875 18.109375 30.90625 
L 18.109375 0 
L 9.078125 0 
L 9.078125 54.6875 
L 18.109375 54.6875 
L 18.109375 46.1875 
Q 21.1875 51.21875 25.484375 53.609375 
Q 29.78125 56 35.6875 56 
Q 41.65625 56 45.828125 52.96875 
Q 50 49.953125 52 44.1875 
" id="BitstreamVeraSans-Roman-6d"/>
      <path d="M 54.890625 54.6875 
L 35.109375 28.078125 
L 55.90625 0 
L 45.3125 0 
L 29.390625 21.484375 
L 13.484375 0 
L 2.875 0 
L 24.125 28.609375 
L 4.6875 54.6875 
L 15.28125 54.6875 
L 29.78125 35.203125 
L 44.28125 54.6875 
z
" id="BitstreamVeraSans-Roman-78"/>
      <path d="M 39.40625 66.21875 
Q 28.65625 66.21875 22.328125 58.203125 
Q 16.015625 50.203125 16.015625 36.375 
Q 16.015625 22.609375 22.328125 14.59375 
Q 28.65625 6.59375 39.40625 6.59375 
Q 50.140625 6.59375 56.421875 14.59375 
Q 62.703125 22.609375 62.703125 36.375 
Q 62.703125 50.203125 56.421875 58.203125 
Q 50.140625 66.21875 39.40625 66.21875 
M 53.21875 1.3125 
L 66.21875 -12.890625 
L 54.296875 -12.890625 
L 43.5 -1.21875 
Q 41.890625 -1.3125 41.03125 -1.359375 
Q 40.1875 -1.421875 39.40625 -1.421875 
Q 24.03125 -1.421875 14.8125 8.859375 
Q 5.609375 19.140625 5.609375 36.375 
Q 5.609375 53.65625 14.8125 63.9375 
Q 24.03125 74.21875 39.40625 74.21875 
Q 54.734375 74.21875 63.90625 63.9375 
Q 73.09375 53.65625 73.09375 36.375 
Q 73.09375 23.6875 67.984375 14.640625 
Q 62.890625 5.609375 53.21875 1.3125 
" id="BitstreamVeraSans-Roman-51"/>
      <path d="M 34.28125 27.484375 
Q 23.390625 27.484375 19.1875 25 
Q 14.984375 22.515625 14.984375 16.5 
Q 14.984375 11.71875 18.140625 8.90625 
Q 21.296875 6.109375 26.703125 6.109375 
Q 34.1875 6.109375 38.703125 11.40625 
Q 43.21875 16.703125 43.21875 25.484375 
L 43.21875 27.484375 
z
M 52.203125 31.203125 
L 52.203125 0 
L 43.21875 0 
L 43.21875 8.296875 
Q 40.140625 3.328125 35.546875 0.953125 
Q 30.953125 -1.421875 24.3125 -1.421875 
Q 15.921875 -1.421875 10.953125 3.296875 
Q 6 8.015625 6 15.921875 
Q 6 25.140625 12.171875 29.828125 
Q 18.359375 34.515625 30.609375 34.515625 
L 43.21875 34.515625 
L 43.21875 35.40625 
Q 43.21875 41.609375 39.140625 45 
Q 35.0625 48.390625 27.6875 48.390625 
Q 23 48.390625 18.546875 47.265625 
Q 14.109375 46.140625 10.015625 43.890625 
L 10.015625 52.203125 
Q 14.9375 54.109375 19.578125 55.046875 
Q 24.21875 56 28.609375 56 
Q 40.484375 56 46.34375 49.84375 
Q 52.203125 43.703125 52.203125 31.203125 
" id="BitstreamVeraSans-Roman-61"/>
     </defs>
     <g transform="translate(16.318125 240.208625)rotate(-90.0)scale(0.12 -0.12)">
      <use xlink:href="#BitstreamVeraSans-Roman-61"/>
      <use x="61.279296875" xlink:href="#BitstreamVeraSans-Roman-76"/>
      <use x="120.458984375" xlink:href="#BitstreamVeraSans-Roman-65"/>
      <use x="181.982421875" xlink:href="#BitstreamVeraSans-Roman-72"/>
      <use x="223.095703125" xlink:href="#BitstreamVeraSans-Roman-61"/>
      <use x="284.375" xlink:href="#BitstreamVeraSans-Roman-67"/>
      <use x="347.8515625" xlink:href="#BitstreamVeraSans-Roman-65"/>
      <use x="409.375" xlink:href="#BitstreamVeraSans-Roman-20"/>
      <use x="441.162109375" xlink:href="#BitstreamVeraSans-Roman-6d"/>
      <use x="538.57421875" xlink:href="#BitstreamVeraSans-Roman-61"/>
      <use x="599.853515625" xlink:href="#BitstreamVeraSans-Roman-78"/>
      <use x="659.033203125" xlink:href="#BitstreamVeraSans-Roman-51"/>
     </g>
    </g>
   </g>
   <g id="text_16">
    <!-- Average maxQ per episode, joint5 -->
    <defs>
     <path d="M 34.1875 63.1875 
L 20.796875 26.90625 
L 47.609375 26.90625 
z
M 28.609375 72.90625 
L 39.796875 72.90625 
L 67.578125 0 
L 57.328125 0 
L 50.6875 18.703125 
L 17.828125 18.703125 
L 11.1875 0 
L 0.78125 0 
z
" id="BitstreamVeraSans-Roman-41"/>
     <path d="M 18.3125 70.21875 
L 18.3125 54.6875 
L 36.8125 54.6875 
L 36.8125 47.703125 
L 18.3125 47.703125 
L 18.3125 18.015625 
Q 18.3125 11.328125 20.140625 9.421875 
Q 21.96875 7.515625 27.59375 7.515625 
L 36.8125 7.515625 
L 36.8125 0 
L 27.59375 0 
Q 17.1875 0 13.234375 3.875 
Q 9.28125 7.765625 9.28125 18.015625 
L 9.28125 47.703125 
L 2.6875 47.703125 
L 2.6875 54.6875 
L 9.28125 54.6875 
L 9.28125 70.21875 
z
" id="BitstreamVeraSans-Roman-74"/>
     <path d="M 54.890625 33.015625 
L 54.890625 0 
L 45.90625 0 
L 45.90625 32.71875 
Q 45.90625 40.484375 42.875 44.328125 
Q 39.84375 48.1875 33.796875 48.1875 
Q 26.515625 48.1875 22.3125 43.546875 
Q 18.109375 38.921875 18.109375 30.90625 
L 18.109375 0 
L 9.078125 0 
L 9.078125 54.6875 
L 18.109375 54.6875 
L 18.109375 46.1875 
Q 21.34375 51.125 25.703125 53.5625 
Q 30.078125 56 35.796875 56 
Q 45.21875 56 50.046875 50.171875 
Q 54.890625 44.34375 54.890625 33.015625 
" id="BitstreamVeraSans-Roman-6e"/>
     <path d="M 9.421875 54.6875 
L 18.40625 54.6875 
L 18.40625 -0.984375 
Q 18.40625 -11.421875 14.421875 -16.109375 
Q 10.453125 -20.796875 1.609375 -20.796875 
L -1.8125 -20.796875 
L -1.8125 -13.1875 
L 0.59375 -13.1875 
Q 5.71875 -13.1875 7.5625 -10.8125 
Q 9.421875 -8.453125 9.421875 -0.984375 
z
M 9.421875 75.984375 
L 18.40625 75.984375 
L 18.40625 64.59375 
L 9.421875 64.59375 
z
" id="BitstreamVeraSans-Roman-6a"/>
     <path d="M 11.71875 12.40625 
L 22.015625 12.40625 
L 22.015625 4 
L 14.015625 -11.625 
L 7.71875 -11.625 
L 11.71875 4 
z
" id="BitstreamVeraSans-Roman-2c"/>
     <path d="M 10.796875 72.90625 
L 49.515625 72.90625 
L 49.515625 64.59375 
L 19.828125 64.59375 
L 19.828125 46.734375 
Q 21.96875 47.46875 24.109375 47.828125 
Q 26.265625 48.1875 28.421875 48.1875 
Q 40.625 48.1875 47.75 41.5 
Q 54.890625 34.8125 54.890625 23.390625 
Q 54.890625 11.625 47.5625 5.09375 
Q 40.234375 -1.421875 26.90625 -1.421875 
Q 22.3125 -1.421875 17.546875 -0.640625 
Q 12.796875 0.140625 7.71875 1.703125 
L 7.71875 11.625 
Q 12.109375 9.234375 16.796875 8.0625 
Q 21.484375 6.890625 26.703125 6.890625 
Q 35.15625 6.890625 40.078125 11.328125 
Q 45.015625 15.765625 45.015625 23.390625 
Q 45.015625 31 40.078125 35.4375 
Q 35.15625 39.890625 26.703125 39.890625 
Q 22.75 39.890625 18.8125 39.015625 
Q 14.890625 38.140625 10.796875 36.28125 
z
" id="BitstreamVeraSans-Roman-35"/>
    </defs>
    <g transform="translate(146.8245 18.14175)scale(0.144 -0.144)">
     <use xlink:href="#BitstreamVeraSans-Roman-41"/>
     <use x="68.330078125" xlink:href="#BitstreamVeraSans-Roman-76"/>
     <use x="127.509765625" xlink:href="#BitstreamVeraSans-Roman-65"/>
     <use x="189.033203125" xlink:href="#BitstreamVeraSans-Roman-72"/>
     <use x="230.146484375" xlink:href="#BitstreamVeraSans-Roman-61"/>
     <use x="291.42578125" xlink:href="#BitstreamVeraSans-Roman-67"/>
     <use x="354.90234375" xlink:href="#BitstreamVeraSans-Roman-65"/>
     <use x="416.42578125" xlink:href="#BitstreamVeraSans-Roman-20"/>
     <use x="448.212890625" xlink:href="#BitstreamVeraSans-Roman-6d"/>
     <use x="545.625" xlink:href="#BitstreamVeraSans-Roman-61"/>
     <use x="606.904296875" xlink:href="#BitstreamVeraSans-Roman-78"/>
     <use x="666.083984375" xlink:href="#BitstreamVeraSans-Roman-51"/>
     <use x="744.794921875" xlink:href="#BitstreamVeraSans-Roman-20"/>
     <use x="776.58203125" xlink:href="#BitstreamVeraSans-Roman-70"/>
     <use x="840.05859375" xlink:href="#BitstreamVeraSans-Roman-65"/>
     <use x="901.58203125" xlink:href="#BitstreamVeraSans-Roman-72"/>
     <use x="942.6953125" xlink:href="#BitstreamVeraSans-Roman-20"/>
     <use x="974.482421875" xlink:href="#BitstreamVeraSans-Roman-65"/>
     <use x="1036.005859375" xlink:href="#BitstreamVeraSans-Roman-70"/>
     <use x="1099.482421875" xlink:href="#BitstreamVeraSans-Roman-69"/>
     <use x="1127.265625" xlink:href="#BitstreamVeraSans-Roman-73"/>
     <use x="1179.365234375" xlink:href="#BitstreamVeraSans-Roman-6f"/>
     <use x="1240.546875" xlink:href="#BitstreamVeraSans-Roman-64"/>
     <use x="1304.0234375" xlink:href="#BitstreamVeraSans-Roman-65"/>
     <use x="1365.546875" xlink:href="#BitstreamVeraSans-Roman-2c"/>
     <use x="1397.333984375" xlink:href="#BitstreamVeraSans-Roman-20"/>
     <use x="1429.12109375" xlink:href="#BitstreamVeraSans-Roman-6a"/>
     <use x="1456.904296875" xlink:href="#BitstreamVeraSans-Roman-6f"/>
     <use x="1518.0859375" xlink:href="#BitstreamVeraSans-Roman-69"/>
     <use x="1545.869140625" xlink:href="#BitstreamVeraSans-Roman-6e"/>
     <use x="1609.248046875" xlink:href="#BitstreamVeraSans-Roman-74"/>
     <use x="1648.45703125" xlink:href="#BitstreamVeraSans-Roman-35"/>
    </g>
   </g>
  </g>
 </g>
 <defs>
  <clipPath id="pcca8da38bd">
   <rect height="345.6" width="446.4" x="46.8975" y="23.14175"/>
  </clipPath>
 </defs>
</svg>
