<?xml version="1.0" encoding="utf-8" standalone="no"?>
<!DOCTYPE svg PUBLIC "-//W3C//DTD SVG 1.1//EN"
  "http://www.w3.org/Graphics/SVG/1.1/DTD/svg11.dtd">
<!-- Created with matplotlib (http://matplotlib.org/) -->
<svg height="325pt" version="1.1" viewBox="0 0 411 325" width="411pt" xmlns="http://www.w3.org/2000/svg" xmlns:xlink="http://www.w3.org/1999/xlink">
 <defs>
  <style type="text/css">
*{stroke-linecap:butt;stroke-linejoin:round;}
  </style>
 </defs>
 <g id="figure_1">
  <g id="patch_1">
   <path d="M 0 325.986375 
L 411.60125 325.986375 
L 411.60125 0 
L 0 0 
z
" style="fill:#ffffff;"/>
  </g>
  <g id="axes_1">
   <g id="patch_2">
    <path d="M 43.78125 288.430125 
L 400.90125 288.430125 
L 400.90125 22.318125 
L 43.78125 22.318125 
z
" style="fill:#ffffff;"/>
   </g>
   <g id="matplotlib.axis_1">
    <g id="xtick_1">
     <g id="line2d_1">
      <defs>
       <path d="M 0 0 
L 0 3.5 
" id="m888d472f7a" style="stroke:#000000;stroke-width:0.8;"/>
      </defs>
      <g>
       <use style="stroke:#000000;stroke-width:0.8;" x="59.809148" xlink:href="#m888d472f7a" y="288.430125"/>
      </g>
     </g>
     <g id="text_1">
      <!-- 0 -->
      <defs>
       <path d="M 31.78125 66.40625 
Q 24.171875 66.40625 20.328125 58.90625 
Q 16.5 51.421875 16.5 36.375 
Q 16.5 21.390625 20.328125 13.890625 
Q 24.171875 6.390625 31.78125 6.390625 
Q 39.453125 6.390625 43.28125 13.890625 
Q 47.125 21.390625 47.125 36.375 
Q 47.125 51.421875 43.28125 58.90625 
Q 39.453125 66.40625 31.78125 66.40625 
z
M 31.78125 74.21875 
Q 44.046875 74.21875 50.515625 64.515625 
Q 56.984375 54.828125 56.984375 36.375 
Q 56.984375 17.96875 50.515625 8.265625 
Q 44.046875 -1.421875 31.78125 -1.421875 
Q 19.53125 -1.421875 13.0625 8.265625 
Q 6.59375 17.96875 6.59375 36.375 
Q 6.59375 54.828125 13.0625 64.515625 
Q 19.53125 74.21875 31.78125 74.21875 
z
" id="DejaVuSans-30"/>
      </defs>
      <g transform="translate(56.627898 303.028562)scale(0.1 -0.1)">
       <use xlink:href="#DejaVuSans-30"/>
      </g>
     </g>
    </g>
    <g id="xtick_2">
     <g id="line2d_2">
      <g>
       <use style="stroke:#000000;stroke-width:0.8;" x="100.775021" xlink:href="#m888d472f7a" y="288.430125"/>
      </g>
     </g>
     <g id="text_2">
      <!-- 200 -->
      <defs>
       <path d="M 19.1875 8.296875 
L 53.609375 8.296875 
L 53.609375 0 
L 7.328125 0 
L 7.328125 8.296875 
Q 12.9375 14.109375 22.625 23.890625 
Q 32.328125 33.6875 34.8125 36.53125 
Q 39.546875 41.84375 41.421875 45.53125 
Q 43.3125 49.21875 43.3125 52.78125 
Q 43.3125 58.59375 39.234375 62.25 
Q 35.15625 65.921875 28.609375 65.921875 
Q 23.96875 65.921875 18.8125 64.3125 
Q 13.671875 62.703125 7.8125 59.421875 
L 7.8125 69.390625 
Q 13.765625 71.78125 18.9375 73 
Q 24.125 74.21875 28.421875 74.21875 
Q 39.75 74.21875 46.484375 68.546875 
Q 53.21875 62.890625 53.21875 53.421875 
Q 53.21875 48.921875 51.53125 44.890625 
Q 49.859375 40.875 45.40625 35.40625 
Q 44.1875 33.984375 37.640625 27.21875 
Q 31.109375 20.453125 19.1875 8.296875 
z
" id="DejaVuSans-32"/>
      </defs>
      <g transform="translate(91.231271 303.028562)scale(0.1 -0.1)">
       <use xlink:href="#DejaVuSans-32"/>
       <use x="63.623047" xlink:href="#DejaVuSans-30"/>
       <use x="127.246094" xlink:href="#DejaVuSans-30"/>
      </g>
     </g>
    </g>
    <g id="xtick_3">
     <g id="line2d_3">
      <g>
       <use style="stroke:#000000;stroke-width:0.8;" x="141.740894" xlink:href="#m888d472f7a" y="288.430125"/>
      </g>
     </g>
     <g id="text_3">
      <!-- 400 -->
      <defs>
       <path d="M 37.796875 64.3125 
L 12.890625 25.390625 
L 37.796875 25.390625 
z
M 35.203125 72.90625 
L 47.609375 72.90625 
L 47.609375 25.390625 
L 58.015625 25.390625 
L 58.015625 17.1875 
L 47.609375 17.1875 
L 47.609375 0 
L 37.796875 0 
L 37.796875 17.1875 
L 4.890625 17.1875 
L 4.890625 26.703125 
z
" id="DejaVuSans-34"/>
      </defs>
      <g transform="translate(132.197144 303.028562)scale(0.1 -0.1)">
       <use xlink:href="#DejaVuSans-34"/>
       <use x="63.623047" xlink:href="#DejaVuSans-30"/>
       <use x="127.246094" xlink:href="#DejaVuSans-30"/>
      </g>
     </g>
    </g>
    <g id="xtick_4">
     <g id="line2d_4">
      <g>
       <use style="stroke:#000000;stroke-width:0.8;" x="182.706768" xlink:href="#m888d472f7a" y="288.430125"/>
      </g>
     </g>
     <g id="text_4">
      <!-- 600 -->
      <defs>
       <path d="M 33.015625 40.375 
Q 26.375 40.375 22.484375 35.828125 
Q 18.609375 31.296875 18.609375 23.390625 
Q 18.609375 15.53125 22.484375 10.953125 
Q 26.375 6.390625 33.015625 6.390625 
Q 39.65625 6.390625 43.53125 10.953125 
Q 47.40625 15.53125 47.40625 23.390625 
Q 47.40625 31.296875 43.53125 35.828125 
Q 39.65625 40.375 33.015625 40.375 
z
M 52.59375 71.296875 
L 52.59375 62.3125 
Q 48.875 64.0625 45.09375 64.984375 
Q 41.3125 65.921875 37.59375 65.921875 
Q 27.828125 65.921875 22.671875 59.328125 
Q 17.53125 52.734375 16.796875 39.40625 
Q 19.671875 43.65625 24.015625 45.921875 
Q 28.375 48.1875 33.59375 48.1875 
Q 44.578125 48.1875 50.953125 41.515625 
Q 57.328125 34.859375 57.328125 23.390625 
Q 57.328125 12.15625 50.6875 5.359375 
Q 44.046875 -1.421875 33.015625 -1.421875 
Q 20.359375 -1.421875 13.671875 8.265625 
Q 6.984375 17.96875 6.984375 36.375 
Q 6.984375 53.65625 15.1875 63.9375 
Q 23.390625 74.21875 37.203125 74.21875 
Q 40.921875 74.21875 44.703125 73.484375 
Q 48.484375 72.75 52.59375 71.296875 
z
" id="DejaVuSans-36"/>
      </defs>
      <g transform="translate(173.163018 303.028562)scale(0.1 -0.1)">
       <use xlink:href="#DejaVuSans-36"/>
       <use x="63.623047" xlink:href="#DejaVuSans-30"/>
       <use x="127.246094" xlink:href="#DejaVuSans-30"/>
      </g>
     </g>
    </g>
    <g id="xtick_5">
     <g id="line2d_5">
      <g>
       <use style="stroke:#000000;stroke-width:0.8;" x="223.672641" xlink:href="#m888d472f7a" y="288.430125"/>
      </g>
     </g>
     <g id="text_5">
      <!-- 800 -->
      <defs>
       <path d="M 31.78125 34.625 
Q 24.75 34.625 20.71875 30.859375 
Q 16.703125 27.09375 16.703125 20.515625 
Q 16.703125 13.921875 20.71875 10.15625 
Q 24.75 6.390625 31.78125 6.390625 
Q 38.8125 6.390625 42.859375 10.171875 
Q 46.921875 13.96875 46.921875 20.515625 
Q 46.921875 27.09375 42.890625 30.859375 
Q 38.875 34.625 31.78125 34.625 
z
M 21.921875 38.8125 
Q 15.578125 40.375 12.03125 44.71875 
Q 8.5 49.078125 8.5 55.328125 
Q 8.5 64.0625 14.71875 69.140625 
Q 20.953125 74.21875 31.78125 74.21875 
Q 42.671875 74.21875 48.875 69.140625 
Q 55.078125 64.0625 55.078125 55.328125 
Q 55.078125 49.078125 51.53125 44.71875 
Q 48 40.375 41.703125 38.8125 
Q 48.828125 37.15625 52.796875 32.3125 
Q 56.78125 27.484375 56.78125 20.515625 
Q 56.78125 9.90625 50.3125 4.234375 
Q 43.84375 -1.421875 31.78125 -1.421875 
Q 19.734375 -1.421875 13.25 4.234375 
Q 6.78125 9.90625 6.78125 20.515625 
Q 6.78125 27.484375 10.78125 32.3125 
Q 14.796875 37.15625 21.921875 38.8125 
z
M 18.3125 54.390625 
Q 18.3125 48.734375 21.84375 45.5625 
Q 25.390625 42.390625 31.78125 42.390625 
Q 38.140625 42.390625 41.71875 45.5625 
Q 45.3125 48.734375 45.3125 54.390625 
Q 45.3125 60.0625 41.71875 63.234375 
Q 38.140625 66.40625 31.78125 66.40625 
Q 25.390625 66.40625 21.84375 63.234375 
Q 18.3125 60.0625 18.3125 54.390625 
z
" id="DejaVuSans-38"/>
      </defs>
      <g transform="translate(214.128891 303.028562)scale(0.1 -0.1)">
       <use xlink:href="#DejaVuSans-38"/>
       <use x="63.623047" xlink:href="#DejaVuSans-30"/>
       <use x="127.246094" xlink:href="#DejaVuSans-30"/>
      </g>
     </g>
    </g>
    <g id="xtick_6">
     <g id="line2d_6">
      <g>
       <use style="stroke:#000000;stroke-width:0.8;" x="264.638514" xlink:href="#m888d472f7a" y="288.430125"/>
      </g>
     </g>
     <g id="text_6">
      <!-- 1000 -->
      <defs>
       <path d="M 12.40625 8.296875 
L 28.515625 8.296875 
L 28.515625 63.921875 
L 10.984375 60.40625 
L 10.984375 69.390625 
L 28.421875 72.90625 
L 38.28125 72.90625 
L 38.28125 8.296875 
L 54.390625 8.296875 
L 54.390625 0 
L 12.40625 0 
z
" id="DejaVuSans-31"/>
      </defs>
      <g transform="translate(251.913514 303.028562)scale(0.1 -0.1)">
       <use xlink:href="#DejaVuSans-31"/>
       <use x="63.623047" xlink:href="#DejaVuSans-30"/>
       <use x="127.246094" xlink:href="#DejaVuSans-30"/>
       <use x="190.869141" xlink:href="#DejaVuSans-30"/>
      </g>
     </g>
    </g>
    <g id="xtick_7">
     <g id="line2d_7">
      <g>
       <use style="stroke:#000000;stroke-width:0.8;" x="305.604387" xlink:href="#m888d472f7a" y="288.430125"/>
      </g>
     </g>
     <g id="text_7">
      <!-- 1200 -->
      <g transform="translate(292.879387 303.028562)scale(0.1 -0.1)">
       <use xlink:href="#DejaVuSans-31"/>
       <use x="63.623047" xlink:href="#DejaVuSans-32"/>
       <use x="127.246094" xlink:href="#DejaVuSans-30"/>
       <use x="190.869141" xlink:href="#DejaVuSans-30"/>
      </g>
     </g>
    </g>
    <g id="xtick_8">
     <g id="line2d_8">
      <g>
       <use style="stroke:#000000;stroke-width:0.8;" x="346.570261" xlink:href="#m888d472f7a" y="288.430125"/>
      </g>
     </g>
     <g id="text_8">
      <!-- 1400 -->
      <g transform="translate(333.845261 303.028562)scale(0.1 -0.1)">
       <use xlink:href="#DejaVuSans-31"/>
       <use x="63.623047" xlink:href="#DejaVuSans-34"/>
       <use x="127.246094" xlink:href="#DejaVuSans-30"/>
       <use x="190.869141" xlink:href="#DejaVuSans-30"/>
      </g>
     </g>
    </g>
    <g id="xtick_9">
     <g id="line2d_9">
      <g>
       <use style="stroke:#000000;stroke-width:0.8;" x="387.536134" xlink:href="#m888d472f7a" y="288.430125"/>
      </g>
     </g>
     <g id="text_9">
      <!-- 1600 -->
      <g transform="translate(374.811134 303.028562)scale(0.1 -0.1)">
       <use xlink:href="#DejaVuSans-31"/>
       <use x="63.623047" xlink:href="#DejaVuSans-36"/>
       <use x="127.246094" xlink:href="#DejaVuSans-30"/>
       <use x="190.869141" xlink:href="#DejaVuSans-30"/>
      </g>
     </g>
    </g>
    <g id="text_10">
     <!-- episodes -->
     <defs>
      <path d="M 56.203125 29.59375 
L 56.203125 25.203125 
L 14.890625 25.203125 
Q 15.484375 15.921875 20.484375 11.0625 
Q 25.484375 6.203125 34.421875 6.203125 
Q 39.59375 6.203125 44.453125 7.46875 
Q 49.3125 8.734375 54.109375 11.28125 
L 54.109375 2.78125 
Q 49.265625 0.734375 44.1875 -0.34375 
Q 39.109375 -1.421875 33.890625 -1.421875 
Q 20.796875 -1.421875 13.15625 6.1875 
Q 5.515625 13.8125 5.515625 26.8125 
Q 5.515625 40.234375 12.765625 48.109375 
Q 20.015625 56 32.328125 56 
Q 43.359375 56 49.78125 48.890625 
Q 56.203125 41.796875 56.203125 29.59375 
z
M 47.21875 32.234375 
Q 47.125 39.59375 43.09375 43.984375 
Q 39.0625 48.390625 32.421875 48.390625 
Q 24.90625 48.390625 20.390625 44.140625 
Q 15.875 39.890625 15.1875 32.171875 
z
" id="DejaVuSans-65"/>
      <path d="M 18.109375 8.203125 
L 18.109375 -20.796875 
L 9.078125 -20.796875 
L 9.078125 54.6875 
L 18.109375 54.6875 
L 18.109375 46.390625 
Q 20.953125 51.265625 25.265625 53.625 
Q 29.59375 56 35.59375 56 
Q 45.5625 56 51.78125 48.09375 
Q 58.015625 40.1875 58.015625 27.296875 
Q 58.015625 14.40625 51.78125 6.484375 
Q 45.5625 -1.421875 35.59375 -1.421875 
Q 29.59375 -1.421875 25.265625 0.953125 
Q 20.953125 3.328125 18.109375 8.203125 
z
M 48.6875 27.296875 
Q 48.6875 37.203125 44.609375 42.84375 
Q 40.53125 48.484375 33.40625 48.484375 
Q 26.265625 48.484375 22.1875 42.84375 
Q 18.109375 37.203125 18.109375 27.296875 
Q 18.109375 17.390625 22.1875 11.75 
Q 26.265625 6.109375 33.40625 6.109375 
Q 40.53125 6.109375 44.609375 11.75 
Q 48.6875 17.390625 48.6875 27.296875 
z
" id="DejaVuSans-70"/>
      <path d="M 9.421875 54.6875 
L 18.40625 54.6875 
L 18.40625 0 
L 9.421875 0 
z
M 9.421875 75.984375 
L 18.40625 75.984375 
L 18.40625 64.59375 
L 9.421875 64.59375 
z
" id="DejaVuSans-69"/>
      <path d="M 44.28125 53.078125 
L 44.28125 44.578125 
Q 40.484375 46.53125 36.375 47.5 
Q 32.28125 48.484375 27.875 48.484375 
Q 21.1875 48.484375 17.84375 46.4375 
Q 14.5 44.390625 14.5 40.28125 
Q 14.5 37.15625 16.890625 35.375 
Q 19.28125 33.59375 26.515625 31.984375 
L 29.59375 31.296875 
Q 39.15625 29.25 43.1875 25.515625 
Q 47.21875 21.78125 47.21875 15.09375 
Q 47.21875 7.46875 41.1875 3.015625 
Q 35.15625 -1.421875 24.609375 -1.421875 
Q 20.21875 -1.421875 15.453125 -0.5625 
Q 10.6875 0.296875 5.421875 2 
L 5.421875 11.28125 
Q 10.40625 8.6875 15.234375 7.390625 
Q 20.0625 6.109375 24.8125 6.109375 
Q 31.15625 6.109375 34.5625 8.28125 
Q 37.984375 10.453125 37.984375 14.40625 
Q 37.984375 18.0625 35.515625 20.015625 
Q 33.0625 21.96875 24.703125 23.78125 
L 21.578125 24.515625 
Q 13.234375 26.265625 9.515625 29.90625 
Q 5.8125 33.546875 5.8125 39.890625 
Q 5.8125 47.609375 11.28125 51.796875 
Q 16.75 56 26.8125 56 
Q 31.78125 56 36.171875 55.265625 
Q 40.578125 54.546875 44.28125 53.078125 
z
" id="DejaVuSans-73"/>
      <path d="M 30.609375 48.390625 
Q 23.390625 48.390625 19.1875 42.75 
Q 14.984375 37.109375 14.984375 27.296875 
Q 14.984375 17.484375 19.15625 11.84375 
Q 23.34375 6.203125 30.609375 6.203125 
Q 37.796875 6.203125 41.984375 11.859375 
Q 46.1875 17.53125 46.1875 27.296875 
Q 46.1875 37.015625 41.984375 42.703125 
Q 37.796875 48.390625 30.609375 48.390625 
z
M 30.609375 56 
Q 42.328125 56 49.015625 48.375 
Q 55.71875 40.765625 55.71875 27.296875 
Q 55.71875 13.875 49.015625 6.21875 
Q 42.328125 -1.421875 30.609375 -1.421875 
Q 18.84375 -1.421875 12.171875 6.21875 
Q 5.515625 13.875 5.515625 27.296875 
Q 5.515625 40.765625 12.171875 48.375 
Q 18.84375 56 30.609375 56 
z
" id="DejaVuSans-6f"/>
      <path d="M 45.40625 46.390625 
L 45.40625 75.984375 
L 54.390625 75.984375 
L 54.390625 0 
L 45.40625 0 
L 45.40625 8.203125 
Q 42.578125 3.328125 38.25 0.953125 
Q 33.9375 -1.421875 27.875 -1.421875 
Q 17.96875 -1.421875 11.734375 6.484375 
Q 5.515625 14.40625 5.515625 27.296875 
Q 5.515625 40.1875 11.734375 48.09375 
Q 17.96875 56 27.875 56 
Q 33.9375 56 38.25 53.625 
Q 42.578125 51.265625 45.40625 46.390625 
z
M 14.796875 27.296875 
Q 14.796875 17.390625 18.875 11.75 
Q 22.953125 6.109375 30.078125 6.109375 
Q 37.203125 6.109375 41.296875 11.75 
Q 45.40625 17.390625 45.40625 27.296875 
Q 45.40625 37.203125 41.296875 42.84375 
Q 37.203125 48.484375 30.078125 48.484375 
Q 22.953125 48.484375 18.875 42.84375 
Q 14.796875 37.203125 14.796875 27.296875 
z
" id="DejaVuSans-64"/>
     </defs>
     <g transform="translate(200.181875 316.706687)scale(0.1 -0.1)">
      <use xlink:href="#DejaVuSans-65"/>
      <use x="61.523438" xlink:href="#DejaVuSans-70"/>
      <use x="125" xlink:href="#DejaVuSans-69"/>
      <use x="152.783203" xlink:href="#DejaVuSans-73"/>
      <use x="204.882812" xlink:href="#DejaVuSans-6f"/>
      <use x="266.064453" xlink:href="#DejaVuSans-64"/>
      <use x="329.541016" xlink:href="#DejaVuSans-65"/>
      <use x="391.064453" xlink:href="#DejaVuSans-73"/>
     </g>
    </g>
   </g>
   <g id="matplotlib.axis_2">
    <g id="ytick_1">
     <g id="line2d_10">
      <defs>
       <path d="M 0 0 
L -3.5 0 
" id="m4385e19ad7" style="stroke:#000000;stroke-width:0.8;"/>
      </defs>
      <g>
       <use style="stroke:#000000;stroke-width:0.8;" x="43.78125" xlink:href="#m4385e19ad7" y="268.365382"/>
      </g>
     </g>
     <g id="text_11">
      <!-- 0.2 -->
      <defs>
       <path d="M 10.6875 12.40625 
L 21 12.40625 
L 21 0 
L 10.6875 0 
z
" id="DejaVuSans-2e"/>
      </defs>
      <g transform="translate(20.878125 272.1646)scale(0.1 -0.1)">
       <use xlink:href="#DejaVuSans-30"/>
       <use x="63.623047" xlink:href="#DejaVuSans-2e"/>
       <use x="95.410156" xlink:href="#DejaVuSans-32"/>
      </g>
     </g>
    </g>
    <g id="ytick_2">
     <g id="line2d_11">
      <g>
       <use style="stroke:#000000;stroke-width:0.8;" x="43.78125" xlink:href="#m4385e19ad7" y="229.502705"/>
      </g>
     </g>
     <g id="text_12">
      <!-- 0.4 -->
      <g transform="translate(20.878125 233.301924)scale(0.1 -0.1)">
       <use xlink:href="#DejaVuSans-30"/>
       <use x="63.623047" xlink:href="#DejaVuSans-2e"/>
       <use x="95.410156" xlink:href="#DejaVuSans-34"/>
      </g>
     </g>
    </g>
    <g id="ytick_3">
     <g id="line2d_12">
      <g>
       <use style="stroke:#000000;stroke-width:0.8;" x="43.78125" xlink:href="#m4385e19ad7" y="190.640029"/>
      </g>
     </g>
     <g id="text_13">
      <!-- 0.6 -->
      <g transform="translate(20.878125 194.439248)scale(0.1 -0.1)">
       <use xlink:href="#DejaVuSans-30"/>
       <use x="63.623047" xlink:href="#DejaVuSans-2e"/>
       <use x="95.410156" xlink:href="#DejaVuSans-36"/>
      </g>
     </g>
    </g>
    <g id="ytick_4">
     <g id="line2d_13">
      <g>
       <use style="stroke:#000000;stroke-width:0.8;" x="43.78125" xlink:href="#m4385e19ad7" y="151.777353"/>
      </g>
     </g>
     <g id="text_14">
      <!-- 0.8 -->
      <g transform="translate(20.878125 155.576572)scale(0.1 -0.1)">
       <use xlink:href="#DejaVuSans-30"/>
       <use x="63.623047" xlink:href="#DejaVuSans-2e"/>
       <use x="95.410156" xlink:href="#DejaVuSans-38"/>
      </g>
     </g>
    </g>
    <g id="ytick_5">
     <g id="line2d_14">
      <g>
       <use style="stroke:#000000;stroke-width:0.8;" x="43.78125" xlink:href="#m4385e19ad7" y="112.914677"/>
      </g>
     </g>
     <g id="text_15">
      <!-- 1.0 -->
      <g transform="translate(20.878125 116.713895)scale(0.1 -0.1)">
       <use xlink:href="#DejaVuSans-31"/>
       <use x="63.623047" xlink:href="#DejaVuSans-2e"/>
       <use x="95.410156" xlink:href="#DejaVuSans-30"/>
      </g>
     </g>
    </g>
    <g id="ytick_6">
     <g id="line2d_15">
      <g>
       <use style="stroke:#000000;stroke-width:0.8;" x="43.78125" xlink:href="#m4385e19ad7" y="74.052"/>
      </g>
     </g>
     <g id="text_16">
      <!-- 1.2 -->
      <g transform="translate(20.878125 77.851219)scale(0.1 -0.1)">
       <use xlink:href="#DejaVuSans-31"/>
       <use x="63.623047" xlink:href="#DejaVuSans-2e"/>
       <use x="95.410156" xlink:href="#DejaVuSans-32"/>
      </g>
     </g>
    </g>
    <g id="ytick_7">
     <g id="line2d_16">
      <g>
       <use style="stroke:#000000;stroke-width:0.8;" x="43.78125" xlink:href="#m4385e19ad7" y="35.189324"/>
      </g>
     </g>
     <g id="text_17">
      <!-- 1.4 -->
      <g transform="translate(20.878125 38.988543)scale(0.1 -0.1)">
       <use xlink:href="#DejaVuSans-31"/>
       <use x="63.623047" xlink:href="#DejaVuSans-2e"/>
       <use x="95.410156" xlink:href="#DejaVuSans-34"/>
      </g>
     </g>
    </g>
    <g id="text_18">
     <!-- average maxQ -->
     <defs>
      <path d="M 34.28125 27.484375 
Q 23.390625 27.484375 19.1875 25 
Q 14.984375 22.515625 14.984375 16.5 
Q 14.984375 11.71875 18.140625 8.90625 
Q 21.296875 6.109375 26.703125 6.109375 
Q 34.1875 6.109375 38.703125 11.40625 
Q 43.21875 16.703125 43.21875 25.484375 
L 43.21875 27.484375 
z
M 52.203125 31.203125 
L 52.203125 0 
L 43.21875 0 
L 43.21875 8.296875 
Q 40.140625 3.328125 35.546875 0.953125 
Q 30.953125 -1.421875 24.3125 -1.421875 
Q 15.921875 -1.421875 10.953125 3.296875 
Q 6 8.015625 6 15.921875 
Q 6 25.140625 12.171875 29.828125 
Q 18.359375 34.515625 30.609375 34.515625 
L 43.21875 34.515625 
L 43.21875 35.40625 
Q 43.21875 41.609375 39.140625 45 
Q 35.0625 48.390625 27.6875 48.390625 
Q 23 48.390625 18.546875 47.265625 
Q 14.109375 46.140625 10.015625 43.890625 
L 10.015625 52.203125 
Q 14.9375 54.109375 19.578125 55.046875 
Q 24.21875 56 28.609375 56 
Q 40.484375 56 46.34375 49.84375 
Q 52.203125 43.703125 52.203125 31.203125 
z
" id="DejaVuSans-61"/>
      <path d="M 2.984375 54.6875 
L 12.5 54.6875 
L 29.59375 8.796875 
L 46.6875 54.6875 
L 56.203125 54.6875 
L 35.6875 0 
L 23.484375 0 
z
" id="DejaVuSans-76"/>
      <path d="M 41.109375 46.296875 
Q 39.59375 47.171875 37.8125 47.578125 
Q 36.03125 48 33.890625 48 
Q 26.265625 48 22.1875 43.046875 
Q 18.109375 38.09375 18.109375 28.8125 
L 18.109375 0 
L 9.078125 0 
L 9.078125 54.6875 
L 18.109375 54.6875 
L 18.109375 46.1875 
Q 20.953125 51.171875 25.484375 53.578125 
Q 30.03125 56 36.53125 56 
Q 37.453125 56 38.578125 55.875 
Q 39.703125 55.765625 41.0625 55.515625 
z
" id="DejaVuSans-72"/>
      <path d="M 45.40625 27.984375 
Q 45.40625 37.75 41.375 43.109375 
Q 37.359375 48.484375 30.078125 48.484375 
Q 22.859375 48.484375 18.828125 43.109375 
Q 14.796875 37.75 14.796875 27.984375 
Q 14.796875 18.265625 18.828125 12.890625 
Q 22.859375 7.515625 30.078125 7.515625 
Q 37.359375 7.515625 41.375 12.890625 
Q 45.40625 18.265625 45.40625 27.984375 
z
M 54.390625 6.78125 
Q 54.390625 -7.171875 48.1875 -13.984375 
Q 42 -20.796875 29.203125 -20.796875 
Q 24.46875 -20.796875 20.265625 -20.09375 
Q 16.0625 -19.390625 12.109375 -17.921875 
L 12.109375 -9.1875 
Q 16.0625 -11.328125 19.921875 -12.34375 
Q 23.78125 -13.375 27.78125 -13.375 
Q 36.625 -13.375 41.015625 -8.765625 
Q 45.40625 -4.15625 45.40625 5.171875 
L 45.40625 9.625 
Q 42.625 4.78125 38.28125 2.390625 
Q 33.9375 0 27.875 0 
Q 17.828125 0 11.671875 7.65625 
Q 5.515625 15.328125 5.515625 27.984375 
Q 5.515625 40.671875 11.671875 48.328125 
Q 17.828125 56 27.875 56 
Q 33.9375 56 38.28125 53.609375 
Q 42.625 51.21875 45.40625 46.390625 
L 45.40625 54.6875 
L 54.390625 54.6875 
z
" id="DejaVuSans-67"/>
      <path id="DejaVuSans-20"/>
      <path d="M 52 44.1875 
Q 55.375 50.25 60.0625 53.125 
Q 64.75 56 71.09375 56 
Q 79.640625 56 84.28125 50.015625 
Q 88.921875 44.046875 88.921875 33.015625 
L 88.921875 0 
L 79.890625 0 
L 79.890625 32.71875 
Q 79.890625 40.578125 77.09375 44.375 
Q 74.3125 48.1875 68.609375 48.1875 
Q 61.625 48.1875 57.5625 43.546875 
Q 53.515625 38.921875 53.515625 30.90625 
L 53.515625 0 
L 44.484375 0 
L 44.484375 32.71875 
Q 44.484375 40.625 41.703125 44.40625 
Q 38.921875 48.1875 33.109375 48.1875 
Q 26.21875 48.1875 22.15625 43.53125 
Q 18.109375 38.875 18.109375 30.90625 
L 18.109375 0 
L 9.078125 0 
L 9.078125 54.6875 
L 18.109375 54.6875 
L 18.109375 46.1875 
Q 21.1875 51.21875 25.484375 53.609375 
Q 29.78125 56 35.6875 56 
Q 41.65625 56 45.828125 52.96875 
Q 50 49.953125 52 44.1875 
z
" id="DejaVuSans-6d"/>
      <path d="M 54.890625 54.6875 
L 35.109375 28.078125 
L 55.90625 0 
L 45.3125 0 
L 29.390625 21.484375 
L 13.484375 0 
L 2.875 0 
L 24.125 28.609375 
L 4.6875 54.6875 
L 15.28125 54.6875 
L 29.78125 35.203125 
L 44.28125 54.6875 
z
" id="DejaVuSans-78"/>
      <path d="M 39.40625 66.21875 
Q 28.65625 66.21875 22.328125 58.203125 
Q 16.015625 50.203125 16.015625 36.375 
Q 16.015625 22.609375 22.328125 14.59375 
Q 28.65625 6.59375 39.40625 6.59375 
Q 50.140625 6.59375 56.421875 14.59375 
Q 62.703125 22.609375 62.703125 36.375 
Q 62.703125 50.203125 56.421875 58.203125 
Q 50.140625 66.21875 39.40625 66.21875 
z
M 53.21875 1.3125 
L 66.21875 -12.890625 
L 54.296875 -12.890625 
L 43.5 -1.21875 
Q 41.890625 -1.3125 41.03125 -1.359375 
Q 40.1875 -1.421875 39.40625 -1.421875 
Q 24.03125 -1.421875 14.8125 8.859375 
Q 5.609375 19.140625 5.609375 36.375 
Q 5.609375 53.65625 14.8125 63.9375 
Q 24.03125 74.21875 39.40625 74.21875 
Q 54.734375 74.21875 63.90625 63.9375 
Q 73.09375 53.65625 73.09375 36.375 
Q 73.09375 23.6875 67.984375 14.640625 
Q 62.890625 5.609375 53.21875 1.3125 
z
" id="DejaVuSans-51"/>
     </defs>
     <g transform="translate(14.798438 192.263187)rotate(-90)scale(0.1 -0.1)">
      <use xlink:href="#DejaVuSans-61"/>
      <use x="61.279297" xlink:href="#DejaVuSans-76"/>
      <use x="120.458984" xlink:href="#DejaVuSans-65"/>
      <use x="181.982422" xlink:href="#DejaVuSans-72"/>
      <use x="223.095703" xlink:href="#DejaVuSans-61"/>
      <use x="284.375" xlink:href="#DejaVuSans-67"/>
      <use x="347.851562" xlink:href="#DejaVuSans-65"/>
      <use x="409.375" xlink:href="#DejaVuSans-20"/>
      <use x="441.162109" xlink:href="#DejaVuSans-6d"/>
      <use x="538.574219" xlink:href="#DejaVuSans-61"/>
      <use x="599.853516" xlink:href="#DejaVuSans-78"/>
      <use x="659.033203" xlink:href="#DejaVuSans-51"/>
     </g>
    </g>
   </g>
   <g id="line2d_17">
    <path clip-path="url(#p74e696bc8f)" d="M 60.013977 172.953145 
L 60.218807 151.383415 
L 60.423636 130.180555 
L 60.628465 227.044378 
L 60.833295 75.719879 
L 61.038124 94.818703 
L 61.242953 132.638577 
L 61.447783 133.980045 
L 61.652612 151.403187 
L 61.857442 70.928785 
L 62.062271 234.22144 
L 62.2671 204.241524 
L 62.47193 243.906171 
L 62.676759 230.104002 
L 62.881588 185.760968 
L 63.086418 201.584611 
L 63.496076 116.589191 
L 63.700906 135.527155 
L 63.905735 194.760408 
L 64.110565 168.306432 
L 64.315394 226.614972 
L 64.520223 63.666749 
L 64.725053 187.664202 
L 64.929882 209.018234 
L 65.134711 70.775217 
L 65.339541 229.20585 
L 65.54437 228.769189 
L 65.7492 250.274451 
L 65.954029 56.629382 
L 66.158858 127.819216 
L 66.363688 106.469457 
L 66.568517 196.88488 
L 66.773346 123.885374 
L 66.978176 117.020237 
L 67.183005 173.08122 
L 67.387834 131.783959 
L 67.592664 140.097457 
L 67.797493 111.51786 
L 68.002323 105.106774 
L 68.207152 34.414125 
L 68.411981 149.940743 
L 68.616811 90.101754 
L 68.82164 78.283772 
L 69.026469 223.155346 
L 69.231299 41.517576 
L 69.436128 199.118352 
L 69.640957 159.179468 
L 69.845787 208.752314 
L 70.050616 121.3482 
L 70.255446 245.220152 
L 70.460275 216.89706 
L 70.665104 204.961647 
L 70.869934 259.613402 
L 71.279592 203.665774 
L 71.484422 218.455018 
L 71.689251 246.252148 
L 71.894081 195.585215 
L 72.09891 239.332573 
L 72.303739 215.457276 
L 72.508569 220.129879 
L 72.713398 215.870465 
L 72.918227 194.866157 
L 73.123057 224.356333 
L 73.327886 226.375777 
L 73.532715 204.084203 
L 73.737545 244.627773 
L 74.147204 194.989602 
L 74.352033 236.53372 
L 74.556862 208.347988 
L 74.761692 223.000142 
L 74.966521 216.18447 
L 75.17135 216.819841 
L 75.37618 243.627919 
L 75.581009 225.733049 
L 75.785838 194.271815 
L 75.990668 232.338174 
L 76.195497 229.36084 
L 76.400327 206.620315 
L 76.605156 226.621904 
L 76.809985 223.506349 
L 77.014815 208.043762 
L 77.219644 216.935252 
L 77.424473 231.28136 
L 77.629303 209.210823 
L 77.834132 212.553937 
L 78.038961 209.479226 
L 78.243791 225.099711 
L 78.65345 214.978564 
L 78.858279 231.415026 
L 79.267938 212.616728 
L 79.677596 231.842716 
L 79.882426 238.11026 
L 80.087255 214.594821 
L 80.292085 225.831802 
L 80.496914 245.640096 
L 80.701743 222.248656 
L 81.111402 198.881912 
L 81.316231 238.117755 
L 81.521061 234.745352 
L 81.72589 203.278713 
L 81.930719 230.267792 
L 82.135549 226.762205 
L 82.340378 231.75694 
L 82.545208 243.980123 
L 82.750037 233.046584 
L 82.954866 228.413232 
L 83.159696 238.692424 
L 83.364525 220.11145 
L 83.569354 232.487139 
L 83.774184 204.635337 
L 83.979013 215.02762 
L 84.183842 218.745106 
L 84.388672 235.938429 
L 84.593501 221.702114 
L 84.798331 231.729612 
L 85.00316 224.696381 
L 85.207989 234.184832 
L 85.412819 211.68544 
L 85.617648 221.027271 
L 85.822477 202.981232 
L 86.027307 212.411406 
L 86.232136 198.627973 
L 86.436966 217.903993 
L 86.641795 193.561098 
L 87.051454 214.430028 
L 87.256283 228.825121 
L 87.461112 235.369297 
L 87.665942 204.085068 
L 87.870771 231.918386 
L 88.0756 219.413372 
L 88.28043 226.067299 
L 88.485259 209.774636 
L 88.690089 216.463093 
L 88.894918 261.602864 
L 89.099747 276.334125 
L 89.304577 198.285518 
L 89.714235 212.301043 
L 89.919065 229.221166 
L 90.123894 197.809772 
L 90.328723 233.069419 
L 90.533553 206.982589 
L 90.943212 235.76073 
L 91.148041 224.871506 
L 91.35287 232.090857 
L 91.762529 215.801447 
L 91.967358 225.527643 
L 92.377017 206.68357 
L 92.581847 205.862823 
L 92.786676 210.393789 
L 92.991505 229.474273 
L 93.196335 214.445639 
L 93.401164 262.013869 
L 93.810823 213.232673 
L 94.015652 247.539998 
L 94.220481 210.585637 
L 94.425311 224.483744 
L 94.63014 219.566277 
L 95.039799 226.6957 
L 95.244628 204.668406 
L 95.859116 238.389727 
L 96.063946 189.38147 
L 96.268775 216.803886 
L 96.473604 200.444836 
L 97.088093 229.156979 
L 97.292922 216.623471 
L 97.497751 192.634764 
L 97.702581 237.388322 
L 97.90741 200.238933 
L 98.112239 205.238299 
L 98.317069 201.527431 
L 98.521898 232.14139 
L 98.726727 225.612602 
L 98.931557 232.638587 
L 99.136386 235.246267 
L 99.546045 195.196576 
L 99.750874 234.086789 
L 99.955704 203.685508 
L 100.160533 216.524031 
L 100.365362 219.269066 
L 100.570192 209.142517 
L 100.775021 223.636875 
L 100.979851 228.50775 
L 101.18468 239.533083 
L 101.389509 213.137595 
L 101.594339 215.54545 
L 102.003997 227.971142 
L 102.618485 244.333468 
L 103.028144 204.170822 
L 103.232974 226.635954 
L 103.437803 193.171705 
L 103.847462 240.61318 
L 104.052291 229.488678 
L 104.25712 194.173659 
L 104.46195 224.844488 
L 104.666779 235.439618 
L 104.871608 195.925474 
L 105.076438 228.913512 
L 105.281267 222.415639 
L 105.486097 226.533121 
L 105.690926 225.636985 
L 105.895755 251.653657 
L 106.100585 218.798533 
L 106.305414 218.681726 
L 106.510243 217.155229 
L 106.715073 217.140353 
L 107.124732 249.11841 
L 107.329561 204.568244 
L 107.53439 225.166126 
L 107.73922 226.048079 
L 107.944049 202.000303 
L 108.148878 191.68951 
L 108.353708 228.264114 
L 108.558537 231.199327 
L 108.968196 211.110005 
L 109.173025 216.965298 
L 109.377855 185.280345 
L 109.582684 215.232951 
L 109.787513 228.053316 
L 109.992343 217.08814 
L 110.197172 216.070877 
L 110.402001 216.997289 
L 110.606831 200.962059 
L 110.81166 202.323837 
L 111.016489 211.504892 
L 111.221319 209.269033 
L 111.426148 196.584787 
L 111.630978 206.954571 
L 111.835807 206.407534 
L 112.040636 178.260893 
L 112.245466 202.045191 
L 112.450295 181.104512 
L 112.655124 173.26566 
L 113.064783 196.817392 
L 113.269612 186.740915 
L 113.474442 205.759829 
L 113.679271 181.146003 
L 113.884101 209.641552 
L 114.08893 190.773287 
L 114.293759 192.616472 
L 114.498589 184.100951 
L 114.703418 217.165811 
L 115.113077 177.950592 
L 115.317906 210.586763 
L 115.522736 183.190135 
L 115.727565 190.981837 
L 115.932394 179.117211 
L 116.137224 194.402745 
L 116.342053 174.551629 
L 116.546882 183.690553 
L 116.751712 203.052817 
L 116.956541 209.079961 
L 117.16137 193.718177 
L 117.3662 192.867328 
L 117.571029 175.399562 
L 117.775859 170.25139 
L 117.980688 177.286971 
L 118.185517 173.937121 
L 118.390347 203.690718 
L 118.595176 176.147136 
L 118.800005 174.447438 
L 119.004835 161.480201 
L 119.209664 173.184121 
L 119.414493 171.318317 
L 119.619323 165.839841 
L 120.028982 189.326492 
L 120.233811 169.367008 
L 120.43864 170.167068 
L 120.64347 167.986639 
L 120.848299 173.667622 
L 121.053128 168.509198 
L 121.257958 170.115382 
L 121.462787 179.045562 
L 121.667617 172.634624 
L 121.872446 169.963793 
L 122.077275 172.993112 
L 122.282105 183.895706 
L 122.486934 183.130657 
L 122.691763 158.385678 
L 122.896593 170.191645 
L 123.101422 159.196655 
L 123.306251 188.553986 
L 123.511081 151.937945 
L 123.71591 163.320421 
L 123.92074 163.897232 
L 124.125569 165.209464 
L 124.330398 163.118704 
L 124.535228 168.774093 
L 124.740057 157.782202 
L 124.944886 155.769368 
L 125.149716 158.591655 
L 125.559374 153.531421 
L 125.764204 155.987513 
L 125.969033 154.602988 
L 126.173863 154.671931 
L 126.378692 170.131791 
L 126.583521 159.92042 
L 126.788351 155.584744 
L 126.99318 157.689371 
L 127.402839 145.442028 
L 127.607668 153.373193 
L 127.812497 147.755485 
L 128.222156 154.636251 
L 128.631815 138.57613 
L 128.836644 148.868743 
L 129.041474 151.021564 
L 129.246303 147.399774 
L 129.451132 178.656022 
L 129.655962 144.990833 
L 129.860791 148.56649 
L 130.065621 166.523868 
L 130.27045 149.304981 
L 130.680109 142.036418 
L 130.884938 141.304063 
L 131.089767 164.846656 
L 131.294597 138.769526 
L 131.499426 167.242242 
L 131.704255 145.560954 
L 131.909085 145.064918 
L 132.113914 131.882046 
L 132.318744 133.252463 
L 132.523573 151.844446 
L 132.728402 151.948992 
L 132.933232 141.076086 
L 133.138061 137.783224 
L 133.34289 154.941097 
L 133.54772 148.426151 
L 133.752549 148.399584 
L 133.957378 132.759655 
L 134.162208 130.093413 
L 134.571867 136.439046 
L 134.981525 162.506305 
L 135.186355 140.456931 
L 135.391184 144.646961 
L 135.596013 131.197554 
L 135.800843 129.867643 
L 136.005672 132.54159 
L 136.210502 139.422993 
L 136.415331 138.198091 
L 136.62016 132.907832 
L 136.82499 162.07618 
L 137.029819 136.941608 
L 137.234648 153.073638 
L 137.644307 116.45235 
L 138.053966 137.028244 
L 138.258795 132.940947 
L 138.463625 133.266138 
L 138.668454 162.315891 
L 138.873283 135.035805 
L 139.078113 147.009253 
L 139.282942 128.409483 
L 139.487771 124.304487 
L 139.692601 125.168545 
L 140.102259 111.686063 
L 140.307089 128.985587 
L 140.511918 125.049946 
L 140.716748 142.078418 
L 140.921577 127.582239 
L 141.126406 130.093634 
L 141.331236 131.234167 
L 141.536065 134.046189 
L 141.740894 120.3521 
L 141.945724 114.530138 
L 142.150553 131.021194 
L 142.355382 127.666348 
L 142.765041 117.77978 
L 142.969871 113.394812 
L 143.1747 112.213194 
L 143.379529 136.261523 
L 143.584359 114.842637 
L 143.789188 121.896812 
L 143.994017 133.964968 
L 144.198847 110.713492 
L 144.403676 128.137367 
L 144.608506 127.134834 
L 144.813335 125.239931 
L 145.018164 142.987684 
L 145.222994 143.965537 
L 145.632652 117.075559 
L 146.042311 111.602383 
L 146.24714 119.114661 
L 146.45197 132.685526 
L 146.656799 103.746186 
L 147.066458 119.4118 
L 147.271287 118.179101 
L 147.476117 98.019885 
L 147.680946 129.634132 
L 147.885775 103.549247 
L 148.090605 121.021307 
L 148.295434 106.191368 
L 148.500263 104.337371 
L 148.705093 114.731484 
L 148.909922 106.935587 
L 149.114752 110.380345 
L 149.319581 115.885674 
L 149.52441 110.600481 
L 149.72924 102.058547 
L 149.934069 106.436593 
L 150.138898 94.509207 
L 150.343728 133.288056 
L 150.548557 121.740494 
L 150.958216 93.326491 
L 151.163045 108.390035 
L 151.367875 110.203989 
L 151.572704 99.873859 
L 151.777533 103.694116 
L 151.982363 113.103656 
L 152.187192 104.203812 
L 152.392021 109.191452 
L 152.80168 91.035951 
L 153.416168 167.770423 
L 153.620998 101.029986 
L 153.825827 98.520014 
L 154.030656 102.429831 
L 154.235486 89.132667 
L 154.645144 111.681941 
L 154.849974 110.102255 
L 155.054803 111.220327 
L 155.464462 97.404451 
L 155.669291 99.701048 
L 155.874121 91.017017 
L 156.07895 106.469256 
L 156.283779 101.055333 
L 156.488609 92.367972 
L 156.693438 96.838617 
L 156.898267 94.546943 
L 157.103097 134.59792 
L 157.307926 90.536946 
L 157.512756 96.471543 
L 157.717585 79.437987 
L 157.922414 93.061389 
L 158.127244 97.21116 
L 158.332073 97.323415 
L 158.536902 93.138466 
L 158.741732 92.574076 
L 158.946561 97.937489 
L 159.151391 108.105978 
L 159.35622 89.399761 
L 159.561049 93.267274 
L 159.970708 86.088424 
L 160.175537 101.209595 
L 160.380367 91.369309 
L 160.585196 90.465128 
L 160.790025 98.558593 
L 160.994855 89.384858 
L 161.199684 86.838865 
L 161.404514 108.535087 
L 161.814172 84.190183 
L 162.223831 105.786759 
L 162.42866 86.978086 
L 162.63349 94.707618 
L 162.838319 89.015565 
L 163.247978 98.809731 
L 163.452807 140.124346 
L 163.862466 83.641075 
L 164.067295 88.723084 
L 164.272125 83.76672 
L 164.476954 87.810617 
L 164.681783 85.512928 
L 164.886613 89.712582 
L 165.091442 84.957298 
L 165.296272 88.809906 
L 165.501101 85.952542 
L 165.91076 92.105485 
L 166.115589 92.172365 
L 166.320418 104.733831 
L 166.525248 79.587351 
L 166.730077 76.435927 
L 167.139736 96.817242 
L 167.344565 84.998588 
L 167.549395 89.282555 
L 167.754224 85.927695 
L 167.959053 97.687494 
L 168.163883 89.696457 
L 168.368712 74.695637 
L 168.573541 95.760146 
L 168.778371 81.036151 
L 168.9832 79.293592 
L 169.188029 89.59477 
L 169.392859 86.446146 
L 169.597688 74.846006 
L 169.802518 85.946681 
L 170.007347 80.200979 
L 170.417006 86.913607 
L 170.621835 76.138398 
L 170.826664 93.802056 
L 171.031494 77.51729 
L 171.236323 90.239278 
L 171.441152 84.273861 
L 171.645982 73.065659 
L 172.055641 93.11877 
L 172.26047 87.90961 
L 172.465299 94.44177 
L 172.670129 94.438693 
L 172.874958 75.668654 
L 173.079787 77.058166 
L 173.284617 91.57416 
L 173.694276 80.164358 
L 173.899105 93.941905 
L 174.103934 92.71067 
L 174.308764 75.735874 
L 174.513593 90.10214 
L 174.718422 81.760261 
L 174.923252 85.415665 
L 175.128081 80.480068 
L 175.33291 84.211177 
L 175.53774 78.042954 
L 175.742569 90.291765 
L 175.947399 89.522578 
L 176.152228 78.148891 
L 176.357057 76.019072 
L 176.561887 77.598333 
L 176.766716 94.01009 
L 177.176375 69.927798 
L 177.381204 71.136811 
L 177.586033 83.898389 
L 177.995692 76.870845 
L 178.200522 77.465954 
L 178.405351 75.623244 
L 178.61018 84.066915 
L 178.81501 80.692236 
L 179.019839 84.148397 
L 179.224668 71.103153 
L 179.429498 91.834774 
L 179.839157 79.103627 
L 180.043986 71.742914 
L 180.248815 83.006627 
L 180.658474 74.169133 
L 180.863303 73.309421 
L 181.272962 78.710033 
L 181.477791 78.331755 
L 181.682621 86.070188 
L 182.09228 70.111005 
L 182.297109 88.550484 
L 182.501938 68.019924 
L 182.706768 83.372203 
L 182.911597 80.464826 
L 183.116426 79.605105 
L 183.321256 73.46785 
L 183.526085 89.419012 
L 183.730914 74.294628 
L 183.935744 78.028261 
L 184.140573 75.13442 
L 184.345403 100.632279 
L 184.755061 75.520858 
L 184.959891 79.345846 
L 185.16472 78.863197 
L 185.369549 76.079274 
L 185.779208 74.342196 
L 185.984037 78.919484 
L 186.188867 86.324282 
L 186.393696 88.100284 
L 186.598526 75.315872 
L 186.803355 91.149527 
L 187.008184 91.316892 
L 187.213014 80.259151 
L 187.417843 83.996452 
L 187.827502 71.684009 
L 188.032331 87.895439 
L 188.237161 77.010513 
L 188.44199 125.996169 
L 188.646819 75.890633 
L 188.851649 78.194725 
L 189.056478 79.09158 
L 189.261307 67.157168 
L 189.466137 77.117049 
L 189.670966 71.51006 
L 189.875795 74.988185 
L 190.080625 76.416761 
L 190.285454 78.695363 
L 190.490284 74.446835 
L 190.695113 74.069569 
L 190.899942 87.371536 
L 191.104772 80.421353 
L 191.309601 89.145944 
L 191.51443 69.484787 
L 191.71926 88.155106 
L 192.128918 74.506747 
L 192.333748 74.804117 
L 192.538577 76.328034 
L 192.743407 75.102864 
L 192.948236 82.475462 
L 193.153065 75.489764 
L 193.357895 82.07021 
L 193.562724 76.636397 
L 193.767553 79.700149 
L 193.972383 78.910131 
L 194.177212 77.280198 
L 194.382042 76.681882 
L 194.586871 89.429247 
L 194.7917 73.834825 
L 194.99653 71.754406 
L 195.611018 91.942477 
L 195.815847 73.909678 
L 196.020676 68.301653 
L 196.225506 80.425761 
L 196.430335 83.447355 
L 196.635165 74.579376 
L 196.839994 85.381949 
L 197.044823 79.895256 
L 197.249653 80.407155 
L 197.454482 72.670205 
L 197.659311 71.553638 
L 197.864141 80.245044 
L 198.06897 78.617814 
L 198.273799 70.782834 
L 198.478629 74.07655 
L 198.683458 73.433901 
L 198.888288 70.899986 
L 199.093117 72.521938 
L 199.297946 79.075075 
L 199.502776 69.548603 
L 199.707605 77.61433 
L 199.912434 77.062111 
L 200.117264 80.10341 
L 200.322093 80.013414 
L 200.526922 72.27839 
L 200.731752 78.747171 
L 200.936581 79.998676 
L 201.141411 69.2406 
L 201.551069 72.657795 
L 201.755899 103.250697 
L 201.960728 75.150145 
L 202.165557 76.274577 
L 202.370387 72.966378 
L 202.575216 71.587461 
L 202.780046 74.728045 
L 202.984875 90.608201 
L 203.189704 77.734443 
L 203.394534 76.925839 
L 203.599363 75.207773 
L 203.804192 81.520661 
L 204.009022 83.708981 
L 204.213851 74.328456 
L 204.41868 77.021789 
L 204.62351 77.583786 
L 204.828339 80.591166 
L 205.033169 86.913826 
L 205.237998 73.938811 
L 205.442827 76.466657 
L 205.647657 80.861003 
L 205.852486 62.989438 
L 206.057315 74.225906 
L 206.262145 78.109597 
L 206.466974 73.435337 
L 206.671803 73.970811 
L 206.876633 76.479812 
L 207.081462 71.133353 
L 207.286292 71.926074 
L 207.491121 80.268821 
L 207.69595 64.559735 
L 207.90078 75.109042 
L 208.105609 79.268238 
L 208.310438 67.344751 
L 208.720097 79.484083 
L 209.129756 69.153759 
L 209.334585 68.345978 
L 209.539415 78.166607 
L 209.744244 81.094246 
L 209.949073 68.346969 
L 210.153903 68.204177 
L 210.358732 80.780321 
L 210.563561 74.842892 
L 210.768391 74.549208 
L 211.17805 85.598439 
L 211.792538 67.388159 
L 211.997367 75.07108 
L 212.202196 89.58934 
L 212.611855 75.933621 
L 212.816684 82.710049 
L 213.021514 78.931561 
L 213.226343 71.142945 
L 213.636002 85.40085 
L 213.840831 77.357147 
L 214.045661 82.290477 
L 214.25049 69.3315 
L 214.864978 73.076894 
L 215.069807 84.147778 
L 215.274637 75.150241 
L 215.479466 74.013735 
L 215.684296 76.672093 
L 215.889125 73.037068 
L 216.093954 65.498588 
L 216.298784 85.655093 
L 216.708442 74.276224 
L 216.913272 79.410296 
L 217.118101 79.813442 
L 217.322931 67.520529 
L 217.52776 77.369685 
L 217.732589 97.770349 
L 217.937419 75.944297 
L 218.142248 80.972026 
L 218.347077 73.092759 
L 218.551907 78.107545 
L 218.756736 77.823427 
L 218.961565 78.760324 
L 219.166395 82.373978 
L 219.371224 67.095099 
L 219.576054 81.306448 
L 219.780883 68.755287 
L 219.985712 68.92433 
L 220.190542 77.836743 
L 220.395371 62.53694 
L 220.6002 73.484259 
L 220.80503 66.515231 
L 221.009859 67.121377 
L 221.214688 82.95783 
L 221.419518 83.010101 
L 221.624347 77.582267 
L 221.829177 77.29496 
L 222.034006 67.229834 
L 222.238835 74.297742 
L 222.443665 70.952683 
L 222.853323 87.461216 
L 223.058153 73.298765 
L 223.262982 76.297342 
L 223.467812 76.970418 
L 223.672641 72.303053 
L 223.87747 76.011047 
L 224.0823 75.151643 
L 224.287129 79.360765 
L 224.491958 86.515021 
L 224.901617 67.908505 
L 225.311276 79.928322 
L 225.516105 74.174505 
L 225.720935 76.831523 
L 225.925764 74.419389 
L 226.130593 67.539586 
L 226.335423 65.40086 
L 226.745081 81.544584 
L 226.949911 67.652469 
L 227.359569 73.563554 
L 227.564399 66.846379 
L 227.769228 73.332111 
L 227.974058 67.855872 
L 228.178887 66.782089 
L 228.383716 74.287474 
L 228.588546 75.770852 
L 228.793375 72.673322 
L 229.203034 62.322574 
L 229.407863 63.325314 
L 229.612693 80.998556 
L 229.817522 63.018613 
L 230.227181 76.147272 
L 230.43201 66.694034 
L 230.636839 68.780174 
L 231.046498 90.293863 
L 231.251327 90.826401 
L 231.456157 88.540439 
L 231.660986 73.561032 
L 231.865816 81.816903 
L 232.070645 80.806815 
L 232.275474 82.242652 
L 232.480304 78.524716 
L 232.685133 63.702872 
L 232.889962 81.308184 
L 233.094792 67.440634 
L 233.299621 61.340992 
L 233.50445 85.185491 
L 233.70928 90.075518 
L 233.914109 70.027281 
L 234.118939 80.591319 
L 234.733427 64.392008 
L 234.938256 78.259121 
L 235.143085 63.6149 
L 235.552744 77.321788 
L 235.757573 79.954049 
L 235.962403 79.083613 
L 236.167232 79.23651 
L 236.372062 79.564874 
L 236.576891 65.545975 
L 236.78172 76.082139 
L 236.98655 64.868274 
L 237.191379 75.128663 
L 237.396208 68.13303 
L 237.601038 66.857241 
L 237.805867 64.059394 
L 238.010697 66.500541 
L 238.215526 66.757697 
L 238.420355 79.302404 
L 238.830014 68.299026 
L 239.034843 69.493873 
L 239.239673 66.651417 
L 239.444502 84.293019 
L 239.649331 63.020863 
L 239.854161 75.320527 
L 240.05899 71.997163 
L 240.26382 86.972861 
L 240.468649 68.660633 
L 240.673478 68.003279 
L 240.878308 74.125858 
L 241.083137 72.948665 
L 241.287966 75.125819 
L 241.492796 80.744818 
L 241.697625 76.811382 
L 241.902454 76.027066 
L 242.312113 65.840806 
L 242.516943 70.306139 
L 242.721772 65.174964 
L 242.926601 75.974082 
L 243.131431 69.16449 
L 243.33626 66.724681 
L 243.541089 66.42355 
L 243.950748 76.67163 
L 244.155578 71.414479 
L 244.360407 81.366985 
L 244.565236 70.684548 
L 244.770066 80.736886 
L 244.974895 67.107197 
L 245.179724 69.360244 
L 245.384554 73.878769 
L 245.589383 74.987512 
L 245.794212 78.770545 
L 245.999042 70.112802 
L 246.203871 67.672118 
L 246.408701 85.025917 
L 246.818359 71.375233 
L 247.023189 80.872721 
L 247.228018 66.267452 
L 247.432847 88.377787 
L 247.637677 69.531045 
L 247.842506 76.13081 
L 248.047335 77.40814 
L 248.252165 77.270873 
L 248.456994 89.511557 
L 248.661824 71.210586 
L 248.866653 67.815719 
L 249.071482 75.615592 
L 249.481141 73.895462 
L 249.68597 69.80252 
L 250.095629 80.577554 
L 250.300458 72.231385 
L 250.505288 72.131056 
L 250.710117 78.084252 
L 250.914947 77.636769 
L 251.119776 81.323963 
L 251.324605 73.18027 
L 251.529435 69.7361 
L 251.734264 73.613898 
L 251.939093 64.519744 
L 252.143923 81.076924 
L 252.348752 74.363275 
L 252.553582 89.841359 
L 252.96324 67.693616 
L 253.16807 70.299705 
L 253.372899 83.975202 
L 253.782558 61.533272 
L 253.987387 75.403334 
L 254.192216 72.278362 
L 254.397046 64.622213 
L 254.806705 78.336774 
L 255.011534 75.13877 
L 255.216363 68.275896 
L 255.421193 71.133609 
L 255.626022 78.257317 
L 255.830851 71.32205 
L 256.035681 72.529848 
L 256.24051 70.589767 
L 256.445339 88.806317 
L 256.650169 73.479739 
L 256.854998 70.702421 
L 257.059828 80.222078 
L 257.264657 79.312759 
L 257.469486 71.293794 
L 257.674316 75.573135 
L 257.879145 87.291329 
L 258.083974 82.621468 
L 258.288804 64.674383 
L 258.493633 78.389147 
L 258.698463 72.092325 
L 258.903292 75.658708 
L 259.108121 71.475586 
L 259.312951 78.473026 
L 259.722609 71.476944 
L 259.927439 87.019921 
L 260.132268 71.774861 
L 260.337097 90.611421 
L 260.541927 69.313651 
L 260.746756 77.211939 
L 260.951586 92.581133 
L 261.156415 71.954922 
L 261.361244 84.016123 
L 261.566074 75.126239 
L 261.770903 83.614143 
L 261.975732 82.18476 
L 262.180562 73.223092 
L 262.385391 75.373396 
L 262.59022 75.258896 
L 262.79505 73.358577 
L 262.999879 69.643537 
L 263.204709 75.867541 
L 263.409538 75.513978 
L 263.614367 72.763405 
L 263.819197 81.56472 
L 264.228855 67.466937 
L 264.843343 76.741064 
L 265.048173 71.307556 
L 265.253002 70.642412 
L 265.457832 78.144218 
L 265.662661 68.146731 
L 266.277149 83.210092 
L 266.686808 72.934705 
L 266.891637 74.716059 
L 267.096467 73.545784 
L 267.301296 66.222596 
L 267.506125 81.686486 
L 267.710955 65.855908 
L 267.915784 72.186556 
L 268.120613 70.169602 
L 268.325443 69.508241 
L 268.735101 75.565772 
L 268.939931 88.32702 
L 269.14476 76.480635 
L 269.34959 75.715382 
L 269.554419 78.370513 
L 269.759248 75.931163 
L 269.964078 71.762156 
L 270.168907 84.078943 
L 270.373736 79.847316 
L 270.578566 72.425401 
L 270.783395 82.282719 
L 270.988224 72.865161 
L 271.193054 81.126 
L 271.397883 79.106429 
L 271.602713 66.633759 
L 271.807542 76.295063 
L 272.012371 71.920364 
L 272.217201 72.878812 
L 272.42203 76.386701 
L 272.626859 73.690325 
L 272.831689 73.37034 
L 273.036518 65.159995 
L 273.241348 80.122453 
L 273.446177 75.52822 
L 273.651006 82.272275 
L 273.855836 76.309817 
L 274.060665 66.209503 
L 274.675153 79.253307 
L 274.879982 73.494629 
L 275.084812 73.163729 
L 275.289641 84.476185 
L 275.494471 73.00111 
L 275.6993 92.932276 
L 275.904129 77.466735 
L 276.108959 75.393057 
L 276.518617 84.496699 
L 276.723447 71.754345 
L 276.928276 70.546759 
L 277.542764 79.855165 
L 277.747594 71.127758 
L 277.952423 76.425012 
L 278.157252 84.832072 
L 278.566911 70.881095 
L 278.77174 80.967828 
L 278.97657 72.503184 
L 279.181399 81.815556 
L 279.386228 72.015116 
L 279.795887 79.247872 
L 280.000717 84.307202 
L 280.205546 73.154762 
L 280.410375 73.200531 
L 280.615205 71.948467 
L 280.820034 92.681646 
L 281.024863 95.007871 
L 281.434522 71.418892 
L 281.639352 74.710684 
L 281.844181 68.086802 
L 282.04901 76.036823 
L 282.458669 78.463779 
L 282.663498 82.702743 
L 282.868328 74.087842 
L 283.073157 91.71634 
L 283.277986 76.71306 
L 283.482816 78.782151 
L 283.687645 82.020701 
L 283.892475 76.716553 
L 284.097304 76.351414 
L 284.302133 77.849853 
L 284.506963 76.485008 
L 284.711792 85.288849 
L 284.916621 82.507436 
L 285.121451 87.711163 
L 285.32628 78.799535 
L 285.531109 78.259647 
L 285.735939 71.755799 
L 285.940768 74.059075 
L 286.145598 79.63229 
L 286.350427 71.42666 
L 286.555256 72.612035 
L 286.760086 80.916063 
L 286.964915 79.881821 
L 287.169744 94.749117 
L 287.374574 74.640652 
L 287.579403 76.993228 
L 287.989062 87.505372 
L 288.193891 75.790963 
L 288.398721 80.74899 
L 288.808379 74.240412 
L 289.218038 78.930187 
L 289.422867 81.647378 
L 289.627697 81.659619 
L 289.832526 79.506609 
L 290.037356 73.046941 
L 290.242185 91.235962 
L 290.651844 67.848833 
L 290.856673 82.624331 
L 291.061502 82.46988 
L 291.266332 82.937029 
L 291.471161 85.930858 
L 291.67599 76.556604 
L 291.88082 76.683608 
L 292.085649 73.108189 
L 292.290479 84.59349 
L 292.495308 77.057665 
L 292.904967 80.543878 
L 293.109796 79.243577 
L 293.314625 74.455012 
L 293.519455 84.584109 
L 293.724284 88.21854 
L 294.133943 74.607115 
L 294.338772 75.449628 
L 294.543602 85.485311 
L 294.748431 78.537232 
L 294.95326 82.983518 
L 295.15809 75.782907 
L 295.362919 87.219963 
L 295.567748 76.16285 
L 295.772578 77.713671 
L 295.977407 73.529927 
L 296.182237 79.209439 
L 296.387066 75.889711 
L 296.591895 77.443067 
L 296.796725 83.420162 
L 297.001554 71.534245 
L 297.206383 72.2298 
L 297.411213 79.363601 
L 297.616042 71.276229 
L 297.820871 82.915787 
L 298.025701 86.290464 
L 298.23053 85.376297 
L 298.43536 71.894616 
L 298.640189 68.122913 
L 298.845018 70.577543 
L 299.049848 81.711367 
L 299.254677 78.296414 
L 299.459506 78.636574 
L 299.664336 86.074466 
L 299.869165 79.661051 
L 300.073994 83.908706 
L 300.278824 83.505904 
L 300.483653 77.067475 
L 300.688483 78.13895 
L 300.893312 84.13335 
L 301.098141 70.052512 
L 301.302971 82.835337 
L 301.5078 76.551873 
L 301.712629 88.220771 
L 301.917459 85.476771 
L 302.122288 69.943011 
L 302.327118 81.978656 
L 302.531947 82.366123 
L 302.736776 80.733599 
L 302.941606 73.41299 
L 303.146435 78.762981 
L 303.351264 73.254121 
L 303.760923 81.663105 
L 303.965752 79.979534 
L 304.170582 96.231082 
L 304.375411 76.734842 
L 304.580241 83.82305 
L 304.78507 84.291258 
L 304.989899 78.478517 
L 305.399558 85.744471 
L 305.809217 74.999772 
L 306.014046 81.424092 
L 306.218875 77.14402 
L 306.833364 87.026958 
L 307.038193 78.446474 
L 307.243022 104.127919 
L 307.447852 74.902942 
L 307.652681 86.05704 
L 307.85751 80.42562 
L 308.06234 83.620075 
L 308.267169 78.017696 
L 308.471998 85.770821 
L 308.676828 78.007918 
L 308.881657 75.673387 
L 309.086487 83.060337 
L 309.291316 85.529312 
L 309.496145 83.801554 
L 309.905804 77.388563 
L 310.110633 82.841361 
L 310.315463 91.571957 
L 310.725122 78.247719 
L 310.929951 74.654682 
L 311.13478 82.726853 
L 311.33961 73.02356 
L 311.749268 76.561216 
L 311.954098 82.983766 
L 312.158927 79.968899 
L 312.363756 82.109978 
L 312.568586 82.922661 
L 312.978245 76.530182 
L 313.183074 88.045711 
L 313.387903 79.357683 
L 313.592733 79.425468 
L 313.797562 76.935315 
L 314.002391 101.780308 
L 314.207221 77.022343 
L 314.41205 80.075313 
L 314.616879 76.501814 
L 314.821709 94.953619 
L 315.026538 76.61386 
L 315.231368 84.5561 
L 315.436197 76.299734 
L 315.641026 81.736745 
L 315.845856 91.119695 
L 316.050685 75.696211 
L 316.255514 78.206473 
L 316.460344 79.322827 
L 316.665173 85.310324 
L 316.870003 76.815986 
L 317.074832 83.658177 
L 317.279661 74.922665 
L 317.484491 78.415818 
L 317.68932 74.925757 
L 317.894149 79.766274 
L 318.098979 75.992207 
L 318.303808 97.500265 
L 318.508637 74.77431 
L 318.713467 77.952348 
L 318.918296 79.081837 
L 319.123126 77.571036 
L 319.532784 85.399827 
L 319.737614 85.466254 
L 319.942443 76.009124 
L 320.352102 94.179567 
L 320.556931 91.659571 
L 320.76176 77.877992 
L 320.96659 84.157274 
L 321.171419 76.545458 
L 321.376249 87.132824 
L 321.581078 73.386702 
L 321.990737 85.154483 
L 322.195566 79.345321 
L 322.400395 84.454298 
L 322.605225 82.355825 
L 322.810054 74.667647 
L 323.014883 74.842121 
L 323.424542 83.051352 
L 323.629372 94.102976 
L 323.834201 84.149529 
L 324.24386 79.113152 
L 324.448689 82.752534 
L 324.653518 81.333115 
L 324.858348 88.140197 
L 325.063177 81.192358 
L 325.268007 83.443664 
L 325.472836 87.739975 
L 325.677665 80.099756 
L 325.882495 78.398314 
L 326.087324 79.002008 
L 326.292153 77.047574 
L 326.496983 79.783251 
L 326.701812 86.068495 
L 326.906641 77.888266 
L 327.111471 82.772522 
L 327.3163 83.366242 
L 327.52113 89.639392 
L 327.725959 79.89636 
L 328.340447 88.481693 
L 328.545276 77.696291 
L 328.750106 87.867045 
L 329.159764 79.564291 
L 329.364594 87.510765 
L 329.774253 80.277669 
L 329.979082 82.164392 
L 330.388741 73.177542 
L 330.59357 83.194351 
L 330.798399 77.099262 
L 331.003229 82.896436 
L 331.208058 85.200665 
L 331.412888 75.870543 
L 331.617717 79.426954 
L 331.822546 77.530637 
L 332.027376 76.986712 
L 332.232205 79.833227 
L 332.437034 75.710838 
L 332.641864 84.507622 
L 332.846693 82.035132 
L 333.051522 83.763746 
L 333.256352 86.436909 
L 333.461181 77.398841 
L 333.666011 84.806858 
L 333.87084 79.246418 
L 334.075669 80.432055 
L 334.485328 78.059033 
L 334.690157 73.438148 
L 334.894987 88.270958 
L 335.099816 83.995964 
L 335.304645 86.606108 
L 335.509475 78.240218 
L 335.714304 79.184045 
L 335.919134 97.461512 
L 336.123963 94.971777 
L 336.328792 84.061895 
L 336.533622 79.977896 
L 336.738451 80.819603 
L 336.94328 80.66938 
L 337.14811 78.473047 
L 337.352939 91.209781 
L 337.762598 87.780899 
L 337.967427 81.994575 
L 338.172257 84.229761 
L 338.581915 77.501957 
L 338.991574 86.969791 
L 339.196403 88.301772 
L 339.401233 92.024644 
L 339.606062 90.337306 
L 339.810892 81.678602 
L 340.015721 87.820389 
L 340.22055 82.989046 
L 340.42538 82.29617 
L 340.630209 80.639314 
L 340.835038 84.047825 
L 341.039868 82.308602 
L 341.244697 88.871132 
L 341.449526 86.279593 
L 341.654356 77.140077 
L 341.859185 78.222355 
L 342.064015 78.041161 
L 342.268844 79.377668 
L 342.473673 81.659801 
L 342.678503 80.569599 
L 342.883332 81.916152 
L 343.088161 81.296803 
L 343.49782 94.117384 
L 343.702649 77.286883 
L 343.907479 78.73261 
L 344.112308 79.283165 
L 344.317138 96.411588 
L 344.521967 80.257654 
L 344.726796 79.941124 
L 344.931626 77.175587 
L 345.136455 76.888575 
L 345.341284 76.805286 
L 345.546114 89.419956 
L 345.750943 91.23313 
L 345.955773 90.035963 
L 346.160602 75.830339 
L 346.570261 80.121197 
L 346.77509 92.808654 
L 346.979919 87.652361 
L 347.184749 98.639787 
L 347.389578 91.671015 
L 347.594407 89.937656 
L 347.799237 81.773333 
L 348.004066 80.356167 
L 348.208896 92.037067 
L 348.413725 91.521259 
L 348.618554 86.180334 
L 348.823384 98.458827 
L 349.028213 87.145538 
L 349.233042 91.513045 
L 349.437872 81.75865 
L 349.642701 93.560509 
L 349.84753 90.2514 
L 350.05236 79.965465 
L 350.257189 78.456117 
L 350.462019 92.087724 
L 350.666848 87.074511 
L 350.871677 94.530378 
L 351.076507 81.28699 
L 351.281336 85.866813 
L 351.486165 81.432582 
L 351.690995 89.33384 
L 351.895824 87.880782 
L 352.100653 79.304382 
L 352.305483 79.463833 
L 352.510312 79.233013 
L 352.715142 86.026941 
L 352.919971 81.278694 
L 353.32963 94.149885 
L 353.534459 84.853507 
L 353.739288 82.295927 
L 353.944118 86.163755 
L 354.148947 76.130131 
L 354.353777 85.438317 
L 354.558606 83.433889 
L 354.763435 86.646198 
L 354.968265 85.412055 
L 355.173094 77.186569 
L 355.377923 86.177077 
L 355.582753 85.397307 
L 355.787582 96.768447 
L 355.992411 91.93364 
L 356.197241 82.9675 
L 356.40207 86.452842 
L 356.6069 82.52336 
L 356.811729 96.220179 
L 357.016558 80.946283 
L 357.426217 82.376322 
L 357.631046 82.260937 
L 357.835876 89.369209 
L 358.040705 83.978953 
L 358.245534 94.672632 
L 358.450364 80.33482 
L 358.655193 78.659153 
L 359.064852 87.698737 
L 359.269681 79.653529 
L 359.474511 82.240189 
L 359.67934 77.249868 
L 359.884169 77.087077 
L 360.088999 89.335632 
L 360.293828 81.382163 
L 360.498658 90.426293 
L 360.703487 76.097892 
L 360.908316 87.129712 
L 361.113146 86.922889 
L 361.522804 78.919731 
L 361.727634 89.406869 
L 361.932463 92.347523 
L 362.137292 90.536024 
L 362.342122 82.482946 
L 362.546951 83.475403 
L 362.751781 88.642277 
L 362.95661 86.907599 
L 363.161439 95.960116 
L 363.571098 86.509474 
L 363.775927 89.069539 
L 363.980757 84.61244 
L 364.185586 86.26264 
L 364.390415 86.11658 
L 364.595245 79.685659 
L 364.800074 77.902456 
L 365.004904 80.716763 
L 365.414562 93.566004 
L 365.619392 77.122776 
L 365.824221 80.155024 
L 366.02905 86.276576 
L 366.23388 84.379703 
L 366.438709 86.712236 
L 366.643539 84.515323 
L 366.848368 93.522143 
L 367.053197 84.200768 
L 367.258027 88.391138 
L 367.462856 80.488781 
L 367.667685 90.430616 
L 367.872515 79.13685 
L 368.077344 89.835393 
L 368.487003 85.01047 
L 368.691832 81.384463 
L 368.896662 88.035051 
L 369.30632 82.791575 
L 369.51115 85.596444 
L 369.715979 84.709172 
L 369.920808 82.804084 
L 370.125638 78.481735 
L 370.330467 90.579134 
L 370.535296 79.101267 
L 370.740126 86.49412 
L 370.944955 89.698398 
L 371.354614 81.574439 
L 371.559443 78.143819 
L 371.764273 82.464103 
L 371.969102 84.015685 
L 372.173931 81.915237 
L 372.378761 81.89288 
L 372.58359 88.068441 
L 372.788419 85.38203 
L 372.993249 93.795728 
L 373.198078 91.884365 
L 373.402908 87.257286 
L 373.607737 87.606956 
L 373.812566 78.794515 
L 374.017396 82.419111 
L 374.222225 90.63541 
L 374.427054 86.426385 
L 374.631884 78.530786 
L 374.836713 88.70513 
L 375.041543 81.899696 
L 375.246372 93.988317 
L 375.451201 81.037372 
L 375.656031 78.182984 
L 375.86086 78.513176 
L 376.065689 90.675108 
L 376.475348 87.447102 
L 376.680177 80.708595 
L 376.885007 85.106834 
L 377.089836 81.333117 
L 377.294666 82.588503 
L 377.499495 84.876828 
L 377.704324 88.485622 
L 377.909154 83.676213 
L 378.113983 87.460993 
L 378.318812 81.094243 
L 378.523642 82.895058 
L 378.728471 97.039341 
L 378.9333 81.704512 
L 379.13813 85.339761 
L 379.342959 83.297457 
L 379.547789 82.480603 
L 379.752618 78.235327 
L 379.957447 96.271693 
L 380.162277 89.835511 
L 380.367106 89.707431 
L 380.571935 90.798985 
L 380.776765 84.602199 
L 380.981594 92.378586 
L 381.186424 83.214791 
L 381.391253 87.93167 
L 381.596082 87.397375 
L 381.800912 95.242175 
L 382.005741 91.543911 
L 382.21057 90.065404 
L 382.620229 81.648233 
L 382.825058 94.747626 
L 383.029888 92.467951 
L 383.234717 83.456378 
L 383.439547 95.686945 
L 383.644376 85.613183 
L 383.849205 87.736015 
L 384.054035 85.866142 
L 384.258864 95.032618 
L 384.668523 81.810568 
L 384.668523 81.810568 
" style="fill:none;stroke:#1f77b4;stroke-linecap:square;stroke-width:0.5;"/>
   </g>
   <g id="patch_3">
    <path d="M 43.78125 288.430125 
L 43.78125 22.318125 
" style="fill:none;stroke:#000000;stroke-linecap:square;stroke-linejoin:miter;stroke-width:0.8;"/>
   </g>
   <g id="patch_4">
    <path d="M 400.90125 288.430125 
L 400.90125 22.318125 
" style="fill:none;stroke:#000000;stroke-linecap:square;stroke-linejoin:miter;stroke-width:0.8;"/>
   </g>
   <g id="patch_5">
    <path d="M 43.78125 288.430125 
L 400.90125 288.430125 
" style="fill:none;stroke:#000000;stroke-linecap:square;stroke-linejoin:miter;stroke-width:0.8;"/>
   </g>
   <g id="patch_6">
    <path d="M 43.78125 22.318125 
L 400.90125 22.318125 
" style="fill:none;stroke:#000000;stroke-linecap:square;stroke-linejoin:miter;stroke-width:0.8;"/>
   </g>
   <g id="text_19">
    <!-- Average maxQ per episode, joint1 -->
    <defs>
     <path d="M 34.1875 63.1875 
L 20.796875 26.90625 
L 47.609375 26.90625 
z
M 28.609375 72.90625 
L 39.796875 72.90625 
L 67.578125 0 
L 57.328125 0 
L 50.6875 18.703125 
L 17.828125 18.703125 
L 11.1875 0 
L 0.78125 0 
z
" id="DejaVuSans-41"/>
     <path d="M 11.71875 12.40625 
L 22.015625 12.40625 
L 22.015625 4 
L 14.015625 -11.625 
L 7.71875 -11.625 
L 11.71875 4 
z
" id="DejaVuSans-2c"/>
     <path d="M 9.421875 54.6875 
L 18.40625 54.6875 
L 18.40625 -0.984375 
Q 18.40625 -11.421875 14.421875 -16.109375 
Q 10.453125 -20.796875 1.609375 -20.796875 
L -1.8125 -20.796875 
L -1.8125 -13.1875 
L 0.59375 -13.1875 
Q 5.71875 -13.1875 7.5625 -10.8125 
Q 9.421875 -8.453125 9.421875 -0.984375 
z
M 9.421875 75.984375 
L 18.40625 75.984375 
L 18.40625 64.59375 
L 9.421875 64.59375 
z
" id="DejaVuSans-6a"/>
     <path d="M 54.890625 33.015625 
L 54.890625 0 
L 45.90625 0 
L 45.90625 32.71875 
Q 45.90625 40.484375 42.875 44.328125 
Q 39.84375 48.1875 33.796875 48.1875 
Q 26.515625 48.1875 22.3125 43.546875 
Q 18.109375 38.921875 18.109375 30.90625 
L 18.109375 0 
L 9.078125 0 
L 9.078125 54.6875 
L 18.109375 54.6875 
L 18.109375 46.1875 
Q 21.34375 51.125 25.703125 53.5625 
Q 30.078125 56 35.796875 56 
Q 45.21875 56 50.046875 50.171875 
Q 54.890625 44.34375 54.890625 33.015625 
z
" id="DejaVuSans-6e"/>
     <path d="M 18.3125 70.21875 
L 18.3125 54.6875 
L 36.8125 54.6875 
L 36.8125 47.703125 
L 18.3125 47.703125 
L 18.3125 18.015625 
Q 18.3125 11.328125 20.140625 9.421875 
Q 21.96875 7.515625 27.59375 7.515625 
L 36.8125 7.515625 
L 36.8125 0 
L 27.59375 0 
Q 17.1875 0 13.234375 3.875 
Q 9.28125 7.765625 9.28125 18.015625 
L 9.28125 47.703125 
L 2.6875 47.703125 
L 2.6875 54.6875 
L 9.28125 54.6875 
L 9.28125 70.21875 
z
" id="DejaVuSans-74"/>
    </defs>
    <g transform="translate(119.61375 16.318125)scale(0.12 -0.12)">
     <use xlink:href="#DejaVuSans-41"/>
     <use x="68.330078" xlink:href="#DejaVuSans-76"/>
     <use x="127.509766" xlink:href="#DejaVuSans-65"/>
     <use x="189.033203" xlink:href="#DejaVuSans-72"/>
     <use x="230.146484" xlink:href="#DejaVuSans-61"/>
     <use x="291.425781" xlink:href="#DejaVuSans-67"/>
     <use x="354.902344" xlink:href="#DejaVuSans-65"/>
     <use x="416.425781" xlink:href="#DejaVuSans-20"/>
     <use x="448.212891" xlink:href="#DejaVuSans-6d"/>
     <use x="545.625" xlink:href="#DejaVuSans-61"/>
     <use x="606.904297" xlink:href="#DejaVuSans-78"/>
     <use x="666.083984" xlink:href="#DejaVuSans-51"/>
     <use x="744.794922" xlink:href="#DejaVuSans-20"/>
     <use x="776.582031" xlink:href="#DejaVuSans-70"/>
     <use x="840.058594" xlink:href="#DejaVuSans-65"/>
     <use x="901.582031" xlink:href="#DejaVuSans-72"/>
     <use x="942.695312" xlink:href="#DejaVuSans-20"/>
     <use x="974.482422" xlink:href="#DejaVuSans-65"/>
     <use x="1036.005859" xlink:href="#DejaVuSans-70"/>
     <use x="1099.482422" xlink:href="#DejaVuSans-69"/>
     <use x="1127.265625" xlink:href="#DejaVuSans-73"/>
     <use x="1179.365234" xlink:href="#DejaVuSans-6f"/>
     <use x="1240.546875" xlink:href="#DejaVuSans-64"/>
     <use x="1304.023438" xlink:href="#DejaVuSans-65"/>
     <use x="1365.546875" xlink:href="#DejaVuSans-2c"/>
     <use x="1397.333984" xlink:href="#DejaVuSans-20"/>
     <use x="1429.121094" xlink:href="#DejaVuSans-6a"/>
     <use x="1456.904297" xlink:href="#DejaVuSans-6f"/>
     <use x="1518.085938" xlink:href="#DejaVuSans-69"/>
     <use x="1545.869141" xlink:href="#DejaVuSans-6e"/>
     <use x="1609.248047" xlink:href="#DejaVuSans-74"/>
     <use x="1648.457031" xlink:href="#DejaVuSans-31"/>
    </g>
   </g>
  </g>
 </g>
 <defs>
  <clipPath id="p74e696bc8f">
   <rect height="266.112" width="357.12" x="43.78125" y="22.318125"/>
  </clipPath>
 </defs>
</svg>
