<?xml version="1.0" encoding="utf-8" standalone="no"?>
<!DOCTYPE svg PUBLIC "-//W3C//DTD SVG 1.1//EN"
  "http://www.w3.org/Graphics/SVG/1.1/DTD/svg11.dtd">
<!-- Created with matplotlib (http://matplotlib.org/) -->
<svg height="325pt" version="1.1" viewBox="0 0 411 325" width="411pt" xmlns="http://www.w3.org/2000/svg" xmlns:xlink="http://www.w3.org/1999/xlink">
 <defs>
  <style type="text/css">
*{stroke-linecap:butt;stroke-linejoin:round;}
  </style>
 </defs>
 <g id="figure_1">
  <g id="patch_1">
   <path d="M 0 325.986375 
L 411.60125 325.986375 
L 411.60125 0 
L 0 0 
z
" style="fill:#ffffff;"/>
  </g>
  <g id="axes_1">
   <g id="patch_2">
    <path d="M 43.78125 288.430125 
L 400.90125 288.430125 
L 400.90125 22.318125 
L 43.78125 22.318125 
z
" style="fill:#ffffff;"/>
   </g>
   <g id="matplotlib.axis_1">
    <g id="xtick_1">
     <g id="line2d_1">
      <defs>
       <path d="M 0 0 
L 0 3.5 
" id="mdf5ab760df" style="stroke:#000000;stroke-width:0.8;"/>
      </defs>
      <g>
       <use style="stroke:#000000;stroke-width:0.8;" x="59.760341" xlink:href="#mdf5ab760df" y="288.430125"/>
      </g>
     </g>
     <g id="text_1">
      <!-- 0 -->
      <defs>
       <path d="M 31.78125 66.40625 
Q 24.171875 66.40625 20.328125 58.90625 
Q 16.5 51.421875 16.5 36.375 
Q 16.5 21.390625 20.328125 13.890625 
Q 24.171875 6.390625 31.78125 6.390625 
Q 39.453125 6.390625 43.28125 13.890625 
Q 47.125 21.390625 47.125 36.375 
Q 47.125 51.421875 43.28125 58.90625 
Q 39.453125 66.40625 31.78125 66.40625 
z
M 31.78125 74.21875 
Q 44.046875 74.21875 50.515625 64.515625 
Q 56.984375 54.828125 56.984375 36.375 
Q 56.984375 17.96875 50.515625 8.265625 
Q 44.046875 -1.421875 31.78125 -1.421875 
Q 19.53125 -1.421875 13.0625 8.265625 
Q 6.59375 17.96875 6.59375 36.375 
Q 6.59375 54.828125 13.0625 64.515625 
Q 19.53125 74.21875 31.78125 74.21875 
z
" id="DejaVuSans-30"/>
      </defs>
      <g transform="translate(56.579091 303.028562)scale(0.1 -0.1)">
       <use xlink:href="#DejaVuSans-30"/>
      </g>
     </g>
    </g>
    <g id="xtick_2">
     <g id="line2d_2">
      <g>
       <use style="stroke:#000000;stroke-width:0.8;" x="110.487614" xlink:href="#mdf5ab760df" y="288.430125"/>
      </g>
     </g>
     <g id="text_2">
      <!-- 200 -->
      <defs>
       <path d="M 19.1875 8.296875 
L 53.609375 8.296875 
L 53.609375 0 
L 7.328125 0 
L 7.328125 8.296875 
Q 12.9375 14.109375 22.625 23.890625 
Q 32.328125 33.6875 34.8125 36.53125 
Q 39.546875 41.84375 41.421875 45.53125 
Q 43.3125 49.21875 43.3125 52.78125 
Q 43.3125 58.59375 39.234375 62.25 
Q 35.15625 65.921875 28.609375 65.921875 
Q 23.96875 65.921875 18.8125 64.3125 
Q 13.671875 62.703125 7.8125 59.421875 
L 7.8125 69.390625 
Q 13.765625 71.78125 18.9375 73 
Q 24.125 74.21875 28.421875 74.21875 
Q 39.75 74.21875 46.484375 68.546875 
Q 53.21875 62.890625 53.21875 53.421875 
Q 53.21875 48.921875 51.53125 44.890625 
Q 49.859375 40.875 45.40625 35.40625 
Q 44.1875 33.984375 37.640625 27.21875 
Q 31.109375 20.453125 19.1875 8.296875 
z
" id="DejaVuSans-32"/>
      </defs>
      <g transform="translate(100.943864 303.028562)scale(0.1 -0.1)">
       <use xlink:href="#DejaVuSans-32"/>
       <use x="63.623047" xlink:href="#DejaVuSans-30"/>
       <use x="127.246094" xlink:href="#DejaVuSans-30"/>
      </g>
     </g>
    </g>
    <g id="xtick_3">
     <g id="line2d_3">
      <g>
       <use style="stroke:#000000;stroke-width:0.8;" x="161.214886" xlink:href="#mdf5ab760df" y="288.430125"/>
      </g>
     </g>
     <g id="text_3">
      <!-- 400 -->
      <defs>
       <path d="M 37.796875 64.3125 
L 12.890625 25.390625 
L 37.796875 25.390625 
z
M 35.203125 72.90625 
L 47.609375 72.90625 
L 47.609375 25.390625 
L 58.015625 25.390625 
L 58.015625 17.1875 
L 47.609375 17.1875 
L 47.609375 0 
L 37.796875 0 
L 37.796875 17.1875 
L 4.890625 17.1875 
L 4.890625 26.703125 
z
" id="DejaVuSans-34"/>
      </defs>
      <g transform="translate(151.671136 303.028562)scale(0.1 -0.1)">
       <use xlink:href="#DejaVuSans-34"/>
       <use x="63.623047" xlink:href="#DejaVuSans-30"/>
       <use x="127.246094" xlink:href="#DejaVuSans-30"/>
      </g>
     </g>
    </g>
    <g id="xtick_4">
     <g id="line2d_4">
      <g>
       <use style="stroke:#000000;stroke-width:0.8;" x="211.942159" xlink:href="#mdf5ab760df" y="288.430125"/>
      </g>
     </g>
     <g id="text_4">
      <!-- 600 -->
      <defs>
       <path d="M 33.015625 40.375 
Q 26.375 40.375 22.484375 35.828125 
Q 18.609375 31.296875 18.609375 23.390625 
Q 18.609375 15.53125 22.484375 10.953125 
Q 26.375 6.390625 33.015625 6.390625 
Q 39.65625 6.390625 43.53125 10.953125 
Q 47.40625 15.53125 47.40625 23.390625 
Q 47.40625 31.296875 43.53125 35.828125 
Q 39.65625 40.375 33.015625 40.375 
z
M 52.59375 71.296875 
L 52.59375 62.3125 
Q 48.875 64.0625 45.09375 64.984375 
Q 41.3125 65.921875 37.59375 65.921875 
Q 27.828125 65.921875 22.671875 59.328125 
Q 17.53125 52.734375 16.796875 39.40625 
Q 19.671875 43.65625 24.015625 45.921875 
Q 28.375 48.1875 33.59375 48.1875 
Q 44.578125 48.1875 50.953125 41.515625 
Q 57.328125 34.859375 57.328125 23.390625 
Q 57.328125 12.15625 50.6875 5.359375 
Q 44.046875 -1.421875 33.015625 -1.421875 
Q 20.359375 -1.421875 13.671875 8.265625 
Q 6.984375 17.96875 6.984375 36.375 
Q 6.984375 53.65625 15.1875 63.9375 
Q 23.390625 74.21875 37.203125 74.21875 
Q 40.921875 74.21875 44.703125 73.484375 
Q 48.484375 72.75 52.59375 71.296875 
z
" id="DejaVuSans-36"/>
      </defs>
      <g transform="translate(202.398409 303.028562)scale(0.1 -0.1)">
       <use xlink:href="#DejaVuSans-36"/>
       <use x="63.623047" xlink:href="#DejaVuSans-30"/>
       <use x="127.246094" xlink:href="#DejaVuSans-30"/>
      </g>
     </g>
    </g>
    <g id="xtick_5">
     <g id="line2d_5">
      <g>
       <use style="stroke:#000000;stroke-width:0.8;" x="262.669432" xlink:href="#mdf5ab760df" y="288.430125"/>
      </g>
     </g>
     <g id="text_5">
      <!-- 800 -->
      <defs>
       <path d="M 31.78125 34.625 
Q 24.75 34.625 20.71875 30.859375 
Q 16.703125 27.09375 16.703125 20.515625 
Q 16.703125 13.921875 20.71875 10.15625 
Q 24.75 6.390625 31.78125 6.390625 
Q 38.8125 6.390625 42.859375 10.171875 
Q 46.921875 13.96875 46.921875 20.515625 
Q 46.921875 27.09375 42.890625 30.859375 
Q 38.875 34.625 31.78125 34.625 
z
M 21.921875 38.8125 
Q 15.578125 40.375 12.03125 44.71875 
Q 8.5 49.078125 8.5 55.328125 
Q 8.5 64.0625 14.71875 69.140625 
Q 20.953125 74.21875 31.78125 74.21875 
Q 42.671875 74.21875 48.875 69.140625 
Q 55.078125 64.0625 55.078125 55.328125 
Q 55.078125 49.078125 51.53125 44.71875 
Q 48 40.375 41.703125 38.8125 
Q 48.828125 37.15625 52.796875 32.3125 
Q 56.78125 27.484375 56.78125 20.515625 
Q 56.78125 9.90625 50.3125 4.234375 
Q 43.84375 -1.421875 31.78125 -1.421875 
Q 19.734375 -1.421875 13.25 4.234375 
Q 6.78125 9.90625 6.78125 20.515625 
Q 6.78125 27.484375 10.78125 32.3125 
Q 14.796875 37.15625 21.921875 38.8125 
z
M 18.3125 54.390625 
Q 18.3125 48.734375 21.84375 45.5625 
Q 25.390625 42.390625 31.78125 42.390625 
Q 38.140625 42.390625 41.71875 45.5625 
Q 45.3125 48.734375 45.3125 54.390625 
Q 45.3125 60.0625 41.71875 63.234375 
Q 38.140625 66.40625 31.78125 66.40625 
Q 25.390625 66.40625 21.84375 63.234375 
Q 18.3125 60.0625 18.3125 54.390625 
z
" id="DejaVuSans-38"/>
      </defs>
      <g transform="translate(253.125682 303.028562)scale(0.1 -0.1)">
       <use xlink:href="#DejaVuSans-38"/>
       <use x="63.623047" xlink:href="#DejaVuSans-30"/>
       <use x="127.246094" xlink:href="#DejaVuSans-30"/>
      </g>
     </g>
    </g>
    <g id="xtick_6">
     <g id="line2d_6">
      <g>
       <use style="stroke:#000000;stroke-width:0.8;" x="313.396705" xlink:href="#mdf5ab760df" y="288.430125"/>
      </g>
     </g>
     <g id="text_6">
      <!-- 1000 -->
      <defs>
       <path d="M 12.40625 8.296875 
L 28.515625 8.296875 
L 28.515625 63.921875 
L 10.984375 60.40625 
L 10.984375 69.390625 
L 28.421875 72.90625 
L 38.28125 72.90625 
L 38.28125 8.296875 
L 54.390625 8.296875 
L 54.390625 0 
L 12.40625 0 
z
" id="DejaVuSans-31"/>
      </defs>
      <g transform="translate(300.671705 303.028562)scale(0.1 -0.1)">
       <use xlink:href="#DejaVuSans-31"/>
       <use x="63.623047" xlink:href="#DejaVuSans-30"/>
       <use x="127.246094" xlink:href="#DejaVuSans-30"/>
       <use x="190.869141" xlink:href="#DejaVuSans-30"/>
      </g>
     </g>
    </g>
    <g id="xtick_7">
     <g id="line2d_7">
      <g>
       <use style="stroke:#000000;stroke-width:0.8;" x="364.123977" xlink:href="#mdf5ab760df" y="288.430125"/>
      </g>
     </g>
     <g id="text_7">
      <!-- 1200 -->
      <g transform="translate(351.398977 303.028562)scale(0.1 -0.1)">
       <use xlink:href="#DejaVuSans-31"/>
       <use x="63.623047" xlink:href="#DejaVuSans-32"/>
       <use x="127.246094" xlink:href="#DejaVuSans-30"/>
       <use x="190.869141" xlink:href="#DejaVuSans-30"/>
      </g>
     </g>
    </g>
    <g id="text_8">
     <!-- episodes -->
     <defs>
      <path d="M 56.203125 29.59375 
L 56.203125 25.203125 
L 14.890625 25.203125 
Q 15.484375 15.921875 20.484375 11.0625 
Q 25.484375 6.203125 34.421875 6.203125 
Q 39.59375 6.203125 44.453125 7.46875 
Q 49.3125 8.734375 54.109375 11.28125 
L 54.109375 2.78125 
Q 49.265625 0.734375 44.1875 -0.34375 
Q 39.109375 -1.421875 33.890625 -1.421875 
Q 20.796875 -1.421875 13.15625 6.1875 
Q 5.515625 13.8125 5.515625 26.8125 
Q 5.515625 40.234375 12.765625 48.109375 
Q 20.015625 56 32.328125 56 
Q 43.359375 56 49.78125 48.890625 
Q 56.203125 41.796875 56.203125 29.59375 
z
M 47.21875 32.234375 
Q 47.125 39.59375 43.09375 43.984375 
Q 39.0625 48.390625 32.421875 48.390625 
Q 24.90625 48.390625 20.390625 44.140625 
Q 15.875 39.890625 15.1875 32.171875 
z
" id="DejaVuSans-65"/>
      <path d="M 18.109375 8.203125 
L 18.109375 -20.796875 
L 9.078125 -20.796875 
L 9.078125 54.6875 
L 18.109375 54.6875 
L 18.109375 46.390625 
Q 20.953125 51.265625 25.265625 53.625 
Q 29.59375 56 35.59375 56 
Q 45.5625 56 51.78125 48.09375 
Q 58.015625 40.1875 58.015625 27.296875 
Q 58.015625 14.40625 51.78125 6.484375 
Q 45.5625 -1.421875 35.59375 -1.421875 
Q 29.59375 -1.421875 25.265625 0.953125 
Q 20.953125 3.328125 18.109375 8.203125 
z
M 48.6875 27.296875 
Q 48.6875 37.203125 44.609375 42.84375 
Q 40.53125 48.484375 33.40625 48.484375 
Q 26.265625 48.484375 22.1875 42.84375 
Q 18.109375 37.203125 18.109375 27.296875 
Q 18.109375 17.390625 22.1875 11.75 
Q 26.265625 6.109375 33.40625 6.109375 
Q 40.53125 6.109375 44.609375 11.75 
Q 48.6875 17.390625 48.6875 27.296875 
z
" id="DejaVuSans-70"/>
      <path d="M 9.421875 54.6875 
L 18.40625 54.6875 
L 18.40625 0 
L 9.421875 0 
z
M 9.421875 75.984375 
L 18.40625 75.984375 
L 18.40625 64.59375 
L 9.421875 64.59375 
z
" id="DejaVuSans-69"/>
      <path d="M 44.28125 53.078125 
L 44.28125 44.578125 
Q 40.484375 46.53125 36.375 47.5 
Q 32.28125 48.484375 27.875 48.484375 
Q 21.1875 48.484375 17.84375 46.4375 
Q 14.5 44.390625 14.5 40.28125 
Q 14.5 37.15625 16.890625 35.375 
Q 19.28125 33.59375 26.515625 31.984375 
L 29.59375 31.296875 
Q 39.15625 29.25 43.1875 25.515625 
Q 47.21875 21.78125 47.21875 15.09375 
Q 47.21875 7.46875 41.1875 3.015625 
Q 35.15625 -1.421875 24.609375 -1.421875 
Q 20.21875 -1.421875 15.453125 -0.5625 
Q 10.6875 0.296875 5.421875 2 
L 5.421875 11.28125 
Q 10.40625 8.6875 15.234375 7.390625 
Q 20.0625 6.109375 24.8125 6.109375 
Q 31.15625 6.109375 34.5625 8.28125 
Q 37.984375 10.453125 37.984375 14.40625 
Q 37.984375 18.0625 35.515625 20.015625 
Q 33.0625 21.96875 24.703125 23.78125 
L 21.578125 24.515625 
Q 13.234375 26.265625 9.515625 29.90625 
Q 5.8125 33.546875 5.8125 39.890625 
Q 5.8125 47.609375 11.28125 51.796875 
Q 16.75 56 26.8125 56 
Q 31.78125 56 36.171875 55.265625 
Q 40.578125 54.546875 44.28125 53.078125 
z
" id="DejaVuSans-73"/>
      <path d="M 30.609375 48.390625 
Q 23.390625 48.390625 19.1875 42.75 
Q 14.984375 37.109375 14.984375 27.296875 
Q 14.984375 17.484375 19.15625 11.84375 
Q 23.34375 6.203125 30.609375 6.203125 
Q 37.796875 6.203125 41.984375 11.859375 
Q 46.1875 17.53125 46.1875 27.296875 
Q 46.1875 37.015625 41.984375 42.703125 
Q 37.796875 48.390625 30.609375 48.390625 
z
M 30.609375 56 
Q 42.328125 56 49.015625 48.375 
Q 55.71875 40.765625 55.71875 27.296875 
Q 55.71875 13.875 49.015625 6.21875 
Q 42.328125 -1.421875 30.609375 -1.421875 
Q 18.84375 -1.421875 12.171875 6.21875 
Q 5.515625 13.875 5.515625 27.296875 
Q 5.515625 40.765625 12.171875 48.375 
Q 18.84375 56 30.609375 56 
z
" id="DejaVuSans-6f"/>
      <path d="M 45.40625 46.390625 
L 45.40625 75.984375 
L 54.390625 75.984375 
L 54.390625 0 
L 45.40625 0 
L 45.40625 8.203125 
Q 42.578125 3.328125 38.25 0.953125 
Q 33.9375 -1.421875 27.875 -1.421875 
Q 17.96875 -1.421875 11.734375 6.484375 
Q 5.515625 14.40625 5.515625 27.296875 
Q 5.515625 40.1875 11.734375 48.09375 
Q 17.96875 56 27.875 56 
Q 33.9375 56 38.25 53.625 
Q 42.578125 51.265625 45.40625 46.390625 
z
M 14.796875 27.296875 
Q 14.796875 17.390625 18.875 11.75 
Q 22.953125 6.109375 30.078125 6.109375 
Q 37.203125 6.109375 41.296875 11.75 
Q 45.40625 17.390625 45.40625 27.296875 
Q 45.40625 37.203125 41.296875 42.84375 
Q 37.203125 48.484375 30.078125 48.484375 
Q 22.953125 48.484375 18.875 42.84375 
Q 14.796875 37.203125 14.796875 27.296875 
z
" id="DejaVuSans-64"/>
     </defs>
     <g transform="translate(200.181875 316.706687)scale(0.1 -0.1)">
      <use xlink:href="#DejaVuSans-65"/>
      <use x="61.523438" xlink:href="#DejaVuSans-70"/>
      <use x="125" xlink:href="#DejaVuSans-69"/>
      <use x="152.783203" xlink:href="#DejaVuSans-73"/>
      <use x="204.882812" xlink:href="#DejaVuSans-6f"/>
      <use x="266.064453" xlink:href="#DejaVuSans-64"/>
      <use x="329.541016" xlink:href="#DejaVuSans-65"/>
      <use x="391.064453" xlink:href="#DejaVuSans-73"/>
     </g>
    </g>
   </g>
   <g id="matplotlib.axis_2">
    <g id="ytick_1">
     <g id="line2d_8">
      <defs>
       <path d="M 0 0 
L -3.5 0 
" id="m1846ce9a4c" style="stroke:#000000;stroke-width:0.8;"/>
      </defs>
      <g>
       <use style="stroke:#000000;stroke-width:0.8;" x="43.78125" xlink:href="#m1846ce9a4c" y="251.931043"/>
      </g>
     </g>
     <g id="text_9">
      <!-- 0.5 -->
      <defs>
       <path d="M 10.6875 12.40625 
L 21 12.40625 
L 21 0 
L 10.6875 0 
z
" id="DejaVuSans-2e"/>
       <path d="M 10.796875 72.90625 
L 49.515625 72.90625 
L 49.515625 64.59375 
L 19.828125 64.59375 
L 19.828125 46.734375 
Q 21.96875 47.46875 24.109375 47.828125 
Q 26.265625 48.1875 28.421875 48.1875 
Q 40.625 48.1875 47.75 41.5 
Q 54.890625 34.8125 54.890625 23.390625 
Q 54.890625 11.625 47.5625 5.09375 
Q 40.234375 -1.421875 26.90625 -1.421875 
Q 22.3125 -1.421875 17.546875 -0.640625 
Q 12.796875 0.140625 7.71875 1.703125 
L 7.71875 11.625 
Q 12.109375 9.234375 16.796875 8.0625 
Q 21.484375 6.890625 26.703125 6.890625 
Q 35.15625 6.890625 40.078125 11.328125 
Q 45.015625 15.765625 45.015625 23.390625 
Q 45.015625 31 40.078125 35.4375 
Q 35.15625 39.890625 26.703125 39.890625 
Q 22.75 39.890625 18.8125 39.015625 
Q 14.890625 38.140625 10.796875 36.28125 
z
" id="DejaVuSans-35"/>
      </defs>
      <g transform="translate(20.878125 255.730262)scale(0.1 -0.1)">
       <use xlink:href="#DejaVuSans-30"/>
       <use x="63.623047" xlink:href="#DejaVuSans-2e"/>
       <use x="95.410156" xlink:href="#DejaVuSans-35"/>
      </g>
     </g>
    </g>
    <g id="ytick_2">
     <g id="line2d_9">
      <g>
       <use style="stroke:#000000;stroke-width:0.8;" x="43.78125" xlink:href="#m1846ce9a4c" y="209.638375"/>
      </g>
     </g>
     <g id="text_10">
      <!-- 1.0 -->
      <g transform="translate(20.878125 213.437594)scale(0.1 -0.1)">
       <use xlink:href="#DejaVuSans-31"/>
       <use x="63.623047" xlink:href="#DejaVuSans-2e"/>
       <use x="95.410156" xlink:href="#DejaVuSans-30"/>
      </g>
     </g>
    </g>
    <g id="ytick_3">
     <g id="line2d_10">
      <g>
       <use style="stroke:#000000;stroke-width:0.8;" x="43.78125" xlink:href="#m1846ce9a4c" y="167.345707"/>
      </g>
     </g>
     <g id="text_11">
      <!-- 1.5 -->
      <g transform="translate(20.878125 171.144926)scale(0.1 -0.1)">
       <use xlink:href="#DejaVuSans-31"/>
       <use x="63.623047" xlink:href="#DejaVuSans-2e"/>
       <use x="95.410156" xlink:href="#DejaVuSans-35"/>
      </g>
     </g>
    </g>
    <g id="ytick_4">
     <g id="line2d_11">
      <g>
       <use style="stroke:#000000;stroke-width:0.8;" x="43.78125" xlink:href="#m1846ce9a4c" y="125.053039"/>
      </g>
     </g>
     <g id="text_12">
      <!-- 2.0 -->
      <g transform="translate(20.878125 128.852258)scale(0.1 -0.1)">
       <use xlink:href="#DejaVuSans-32"/>
       <use x="63.623047" xlink:href="#DejaVuSans-2e"/>
       <use x="95.410156" xlink:href="#DejaVuSans-30"/>
      </g>
     </g>
    </g>
    <g id="ytick_5">
     <g id="line2d_12">
      <g>
       <use style="stroke:#000000;stroke-width:0.8;" x="43.78125" xlink:href="#m1846ce9a4c" y="82.760371"/>
      </g>
     </g>
     <g id="text_13">
      <!-- 2.5 -->
      <g transform="translate(20.878125 86.55959)scale(0.1 -0.1)">
       <use xlink:href="#DejaVuSans-32"/>
       <use x="63.623047" xlink:href="#DejaVuSans-2e"/>
       <use x="95.410156" xlink:href="#DejaVuSans-35"/>
      </g>
     </g>
    </g>
    <g id="ytick_6">
     <g id="line2d_13">
      <g>
       <use style="stroke:#000000;stroke-width:0.8;" x="43.78125" xlink:href="#m1846ce9a4c" y="40.467704"/>
      </g>
     </g>
     <g id="text_14">
      <!-- 3.0 -->
      <defs>
       <path d="M 40.578125 39.3125 
Q 47.65625 37.796875 51.625 33 
Q 55.609375 28.21875 55.609375 21.1875 
Q 55.609375 10.40625 48.1875 4.484375 
Q 40.765625 -1.421875 27.09375 -1.421875 
Q 22.515625 -1.421875 17.65625 -0.515625 
Q 12.796875 0.390625 7.625 2.203125 
L 7.625 11.71875 
Q 11.71875 9.328125 16.59375 8.109375 
Q 21.484375 6.890625 26.8125 6.890625 
Q 36.078125 6.890625 40.9375 10.546875 
Q 45.796875 14.203125 45.796875 21.1875 
Q 45.796875 27.640625 41.28125 31.265625 
Q 36.765625 34.90625 28.71875 34.90625 
L 20.21875 34.90625 
L 20.21875 43.015625 
L 29.109375 43.015625 
Q 36.375 43.015625 40.234375 45.921875 
Q 44.09375 48.828125 44.09375 54.296875 
Q 44.09375 59.90625 40.109375 62.90625 
Q 36.140625 65.921875 28.71875 65.921875 
Q 24.65625 65.921875 20.015625 65.03125 
Q 15.375 64.15625 9.8125 62.3125 
L 9.8125 71.09375 
Q 15.4375 72.65625 20.34375 73.4375 
Q 25.25 74.21875 29.59375 74.21875 
Q 40.828125 74.21875 47.359375 69.109375 
Q 53.90625 64.015625 53.90625 55.328125 
Q 53.90625 49.265625 50.4375 45.09375 
Q 46.96875 40.921875 40.578125 39.3125 
z
" id="DejaVuSans-33"/>
      </defs>
      <g transform="translate(20.878125 44.266922)scale(0.1 -0.1)">
       <use xlink:href="#DejaVuSans-33"/>
       <use x="63.623047" xlink:href="#DejaVuSans-2e"/>
       <use x="95.410156" xlink:href="#DejaVuSans-30"/>
      </g>
     </g>
    </g>
    <g id="text_15">
     <!-- average maxQ -->
     <defs>
      <path d="M 34.28125 27.484375 
Q 23.390625 27.484375 19.1875 25 
Q 14.984375 22.515625 14.984375 16.5 
Q 14.984375 11.71875 18.140625 8.90625 
Q 21.296875 6.109375 26.703125 6.109375 
Q 34.1875 6.109375 38.703125 11.40625 
Q 43.21875 16.703125 43.21875 25.484375 
L 43.21875 27.484375 
z
M 52.203125 31.203125 
L 52.203125 0 
L 43.21875 0 
L 43.21875 8.296875 
Q 40.140625 3.328125 35.546875 0.953125 
Q 30.953125 -1.421875 24.3125 -1.421875 
Q 15.921875 -1.421875 10.953125 3.296875 
Q 6 8.015625 6 15.921875 
Q 6 25.140625 12.171875 29.828125 
Q 18.359375 34.515625 30.609375 34.515625 
L 43.21875 34.515625 
L 43.21875 35.40625 
Q 43.21875 41.609375 39.140625 45 
Q 35.0625 48.390625 27.6875 48.390625 
Q 23 48.390625 18.546875 47.265625 
Q 14.109375 46.140625 10.015625 43.890625 
L 10.015625 52.203125 
Q 14.9375 54.109375 19.578125 55.046875 
Q 24.21875 56 28.609375 56 
Q 40.484375 56 46.34375 49.84375 
Q 52.203125 43.703125 52.203125 31.203125 
z
" id="DejaVuSans-61"/>
      <path d="M 2.984375 54.6875 
L 12.5 54.6875 
L 29.59375 8.796875 
L 46.6875 54.6875 
L 56.203125 54.6875 
L 35.6875 0 
L 23.484375 0 
z
" id="DejaVuSans-76"/>
      <path d="M 41.109375 46.296875 
Q 39.59375 47.171875 37.8125 47.578125 
Q 36.03125 48 33.890625 48 
Q 26.265625 48 22.1875 43.046875 
Q 18.109375 38.09375 18.109375 28.8125 
L 18.109375 0 
L 9.078125 0 
L 9.078125 54.6875 
L 18.109375 54.6875 
L 18.109375 46.1875 
Q 20.953125 51.171875 25.484375 53.578125 
Q 30.03125 56 36.53125 56 
Q 37.453125 56 38.578125 55.875 
Q 39.703125 55.765625 41.0625 55.515625 
z
" id="DejaVuSans-72"/>
      <path d="M 45.40625 27.984375 
Q 45.40625 37.75 41.375 43.109375 
Q 37.359375 48.484375 30.078125 48.484375 
Q 22.859375 48.484375 18.828125 43.109375 
Q 14.796875 37.75 14.796875 27.984375 
Q 14.796875 18.265625 18.828125 12.890625 
Q 22.859375 7.515625 30.078125 7.515625 
Q 37.359375 7.515625 41.375 12.890625 
Q 45.40625 18.265625 45.40625 27.984375 
z
M 54.390625 6.78125 
Q 54.390625 -7.171875 48.1875 -13.984375 
Q 42 -20.796875 29.203125 -20.796875 
Q 24.46875 -20.796875 20.265625 -20.09375 
Q 16.0625 -19.390625 12.109375 -17.921875 
L 12.109375 -9.1875 
Q 16.0625 -11.328125 19.921875 -12.34375 
Q 23.78125 -13.375 27.78125 -13.375 
Q 36.625 -13.375 41.015625 -8.765625 
Q 45.40625 -4.15625 45.40625 5.171875 
L 45.40625 9.625 
Q 42.625 4.78125 38.28125 2.390625 
Q 33.9375 0 27.875 0 
Q 17.828125 0 11.671875 7.65625 
Q 5.515625 15.328125 5.515625 27.984375 
Q 5.515625 40.671875 11.671875 48.328125 
Q 17.828125 56 27.875 56 
Q 33.9375 56 38.28125 53.609375 
Q 42.625 51.21875 45.40625 46.390625 
L 45.40625 54.6875 
L 54.390625 54.6875 
z
" id="DejaVuSans-67"/>
      <path id="DejaVuSans-20"/>
      <path d="M 52 44.1875 
Q 55.375 50.25 60.0625 53.125 
Q 64.75 56 71.09375 56 
Q 79.640625 56 84.28125 50.015625 
Q 88.921875 44.046875 88.921875 33.015625 
L 88.921875 0 
L 79.890625 0 
L 79.890625 32.71875 
Q 79.890625 40.578125 77.09375 44.375 
Q 74.3125 48.1875 68.609375 48.1875 
Q 61.625 48.1875 57.5625 43.546875 
Q 53.515625 38.921875 53.515625 30.90625 
L 53.515625 0 
L 44.484375 0 
L 44.484375 32.71875 
Q 44.484375 40.625 41.703125 44.40625 
Q 38.921875 48.1875 33.109375 48.1875 
Q 26.21875 48.1875 22.15625 43.53125 
Q 18.109375 38.875 18.109375 30.90625 
L 18.109375 0 
L 9.078125 0 
L 9.078125 54.6875 
L 18.109375 54.6875 
L 18.109375 46.1875 
Q 21.1875 51.21875 25.484375 53.609375 
Q 29.78125 56 35.6875 56 
Q 41.65625 56 45.828125 52.96875 
Q 50 49.953125 52 44.1875 
z
" id="DejaVuSans-6d"/>
      <path d="M 54.890625 54.6875 
L 35.109375 28.078125 
L 55.90625 0 
L 45.3125 0 
L 29.390625 21.484375 
L 13.484375 0 
L 2.875 0 
L 24.125 28.609375 
L 4.6875 54.6875 
L 15.28125 54.6875 
L 29.78125 35.203125 
L 44.28125 54.6875 
z
" id="DejaVuSans-78"/>
      <path d="M 39.40625 66.21875 
Q 28.65625 66.21875 22.328125 58.203125 
Q 16.015625 50.203125 16.015625 36.375 
Q 16.015625 22.609375 22.328125 14.59375 
Q 28.65625 6.59375 39.40625 6.59375 
Q 50.140625 6.59375 56.421875 14.59375 
Q 62.703125 22.609375 62.703125 36.375 
Q 62.703125 50.203125 56.421875 58.203125 
Q 50.140625 66.21875 39.40625 66.21875 
z
M 53.21875 1.3125 
L 66.21875 -12.890625 
L 54.296875 -12.890625 
L 43.5 -1.21875 
Q 41.890625 -1.3125 41.03125 -1.359375 
Q 40.1875 -1.421875 39.40625 -1.421875 
Q 24.03125 -1.421875 14.8125 8.859375 
Q 5.609375 19.140625 5.609375 36.375 
Q 5.609375 53.65625 14.8125 63.9375 
Q 24.03125 74.21875 39.40625 74.21875 
Q 54.734375 74.21875 63.90625 63.9375 
Q 73.09375 53.65625 73.09375 36.375 
Q 73.09375 23.6875 67.984375 14.640625 
Q 62.890625 5.609375 53.21875 1.3125 
z
" id="DejaVuSans-51"/>
     </defs>
     <g transform="translate(14.798438 192.263187)rotate(-90)scale(0.1 -0.1)">
      <use xlink:href="#DejaVuSans-61"/>
      <use x="61.279297" xlink:href="#DejaVuSans-76"/>
      <use x="120.458984" xlink:href="#DejaVuSans-65"/>
      <use x="181.982422" xlink:href="#DejaVuSans-72"/>
      <use x="223.095703" xlink:href="#DejaVuSans-61"/>
      <use x="284.375" xlink:href="#DejaVuSans-67"/>
      <use x="347.851562" xlink:href="#DejaVuSans-65"/>
      <use x="409.375" xlink:href="#DejaVuSans-20"/>
      <use x="441.162109" xlink:href="#DejaVuSans-6d"/>
      <use x="538.574219" xlink:href="#DejaVuSans-61"/>
      <use x="599.853516" xlink:href="#DejaVuSans-78"/>
      <use x="659.033203" xlink:href="#DejaVuSans-51"/>
     </g>
    </g>
   </g>
   <g id="line2d_14">
    <path clip-path="url(#p24fec20fee)" d="M 60.013977 100.588969 
L 60.267614 93.624582 
L 60.52125 95.759716 
L 60.774886 53.434812 
L 61.028523 45.291691 
L 61.535795 99.953595 
L 61.789432 62.843789 
L 62.043068 50.430352 
L 62.296705 62.440121 
L 62.550341 62.611736 
L 62.803977 59.39318 
L 63.057614 77.800741 
L 63.31125 54.839192 
L 63.564886 55.841652 
L 63.818523 47.433804 
L 64.072159 48.964772 
L 64.325795 63.007599 
L 64.579432 91.439866 
L 64.833068 54.689494 
L 65.086705 67.845394 
L 65.340341 53.123021 
L 65.593977 108.684239 
L 65.847614 58.120982 
L 66.10125 85.40582 
L 66.354886 71.63608 
L 66.608523 115.038102 
L 66.862159 55.660414 
L 67.115795 87.823628 
L 67.369432 100.724706 
L 67.623068 79.146594 
L 67.876705 95.17069 
L 68.383977 55.276872 
L 68.637614 67.209153 
L 68.89125 63.772394 
L 69.144886 110.252784 
L 69.652159 54.897743 
L 69.905795 69.541705 
L 70.413068 57.22499 
L 70.666705 81.171374 
L 70.920341 74.97392 
L 71.173977 60.913653 
L 71.427614 109.881453 
L 71.68125 88.35606 
L 71.934886 34.414125 
L 72.188523 56.797653 
L 72.442159 68.424295 
L 72.695795 63.277474 
L 72.949432 88.603069 
L 73.203068 57.327302 
L 73.456705 61.385143 
L 73.710341 75.848481 
L 73.963977 58.215373 
L 74.724886 96.209035 
L 74.978523 101.579459 
L 75.232159 55.558359 
L 75.485795 73.714184 
L 75.739432 49.106512 
L 76.246705 69.161571 
L 76.500341 39.355804 
L 76.753977 63.35562 
L 77.007614 73.816093 
L 77.26125 44.262917 
L 77.514886 108.423847 
L 77.768523 88.006574 
L 78.022159 37.678397 
L 78.275795 122.99749 
L 78.529432 56.726938 
L 78.783068 77.699791 
L 79.036705 60.79367 
L 79.290341 108.62253 
L 79.543977 67.785244 
L 80.05125 38.047611 
L 80.304886 100.774877 
L 80.558523 69.710055 
L 80.812159 106.671075 
L 81.065795 76.622511 
L 81.319432 64.230235 
L 81.573068 68.7654 
L 81.826705 63.679869 
L 82.080341 69.028075 
L 82.333977 44.921646 
L 82.587614 80.028463 
L 82.84125 83.418782 
L 83.094886 72.619163 
L 83.348523 49.628729 
L 83.602159 124.974335 
L 83.855795 46.025407 
L 84.109432 72.012519 
L 84.363068 48.53323 
L 84.616705 51.980729 
L 84.870341 96.628815 
L 85.123977 58.087027 
L 85.63125 113.233886 
L 85.884886 52.514553 
L 86.138523 48.264113 
L 86.392159 92.065316 
L 86.645795 89.525766 
L 86.899432 51.644807 
L 87.153068 107.974804 
L 87.406705 59.056558 
L 87.660341 109.071508 
L 87.913977 60.789001 
L 88.167614 100.562719 
L 88.42125 51.97016 
L 88.674886 64.240377 
L 88.928523 47.371036 
L 89.182159 60.449818 
L 89.435795 83.628324 
L 89.689432 72.467655 
L 89.943068 107.175842 
L 90.196705 49.912343 
L 90.450341 51.717431 
L 90.703977 45.899059 
L 90.957614 114.662042 
L 91.21125 68.046049 
L 91.464886 66.317789 
L 91.718523 54.463532 
L 91.972159 64.529494 
L 92.225795 66.246147 
L 92.479432 59.344624 
L 92.733068 110.77483 
L 93.240341 71.4813 
L 93.493977 61.276912 
L 93.747614 83.695106 
L 94.00125 64.077545 
L 94.254886 110.055823 
L 94.508523 68.257835 
L 94.762159 82.056232 
L 95.015795 106.968337 
L 95.269432 68.194971 
L 95.523068 111.254193 
L 95.776705 59.681061 
L 96.030341 63.485925 
L 96.283977 60.895097 
L 96.537614 54.370477 
L 96.79125 73.17768 
L 97.044886 60.028196 
L 97.298523 72.279704 
L 97.552159 54.891467 
L 97.805795 53.879386 
L 98.059432 104.493552 
L 98.313068 70.611229 
L 98.820341 52.826943 
L 99.073977 72.994659 
L 99.327614 73.420503 
L 99.58125 68.185042 
L 99.834886 59.079297 
L 100.088523 62.068782 
L 100.342159 47.988292 
L 100.595795 52.275013 
L 100.849432 82.497674 
L 101.103068 77.232951 
L 101.356705 93.731699 
L 101.610341 68.119333 
L 101.863977 73.614385 
L 102.117614 63.232873 
L 102.37125 79.824218 
L 102.624886 50.846103 
L 102.878523 76.595878 
L 103.132159 74.582291 
L 103.385795 57.87743 
L 103.639432 57.685796 
L 103.893068 63.786787 
L 104.146705 64.143504 
L 104.400341 81.245211 
L 104.653977 80.75294 
L 104.907614 65.327933 
L 105.16125 72.549594 
L 105.414886 65.658103 
L 105.668523 80.986092 
L 105.922159 72.299661 
L 106.175795 93.246271 
L 106.683068 60.050659 
L 106.936705 63.292788 
L 107.443977 73.989828 
L 107.697614 61.279851 
L 107.95125 77.06358 
L 108.204886 63.930141 
L 108.458523 93.45631 
L 108.965795 63.82152 
L 109.219432 72.497922 
L 109.473068 69.953868 
L 109.726705 69.3242 
L 109.980341 65.634481 
L 110.233977 112.70079 
L 110.74125 70.13524 
L 110.994886 71.191671 
L 111.248523 69.457998 
L 111.502159 81.158541 
L 111.755795 120.897875 
L 112.009432 78.549213 
L 112.263068 63.81606 
L 112.516705 77.688813 
L 112.770341 82.835058 
L 113.023977 83.985013 
L 113.277614 77.511144 
L 113.53125 78.258223 
L 113.784886 68.285484 
L 114.038523 80.215296 
L 114.292159 73.252989 
L 114.545795 81.038812 
L 114.799432 71.376684 
L 115.053068 79.66942 
L 115.306705 73.915525 
L 115.560341 87.270724 
L 115.813977 81.124873 
L 116.067614 79.94298 
L 116.574886 87.780539 
L 116.828523 71.987601 
L 117.082159 87.840777 
L 117.335795 77.936178 
L 117.589432 81.443064 
L 117.843068 71.326675 
L 118.096705 70.187572 
L 118.350341 81.563679 
L 118.603977 78.359679 
L 118.857614 78.158962 
L 119.11125 78.554824 
L 119.364886 81.273701 
L 119.618523 88.522477 
L 119.872159 76.119827 
L 120.125795 88.120709 
L 120.379432 85.315593 
L 120.633068 83.870087 
L 120.886705 78.201603 
L 121.140341 82.248183 
L 121.393977 76.41439 
L 122.154886 84.436571 
L 122.408523 84.20519 
L 122.662159 84.900737 
L 122.915795 77.095118 
L 123.169432 78.891763 
L 123.423068 93.346084 
L 123.676705 87.412066 
L 123.930341 95.452842 
L 124.183977 92.20444 
L 124.437614 91.642324 
L 124.944886 85.582809 
L 125.198523 90.727957 
L 125.452159 89.386658 
L 125.705795 102.043443 
L 125.959432 90.131146 
L 126.213068 97.287156 
L 126.466705 91.284355 
L 126.720341 88.112887 
L 126.973977 97.883048 
L 127.48125 86.685001 
L 127.734886 90.906217 
L 127.988523 90.125201 
L 128.242159 90.379603 
L 128.495795 91.81697 
L 128.749432 98.854789 
L 129.003068 91.149729 
L 129.256705 88.78423 
L 129.510341 95.826411 
L 129.763977 93.197009 
L 130.017614 94.123741 
L 130.27125 88.2103 
L 130.524886 91.270071 
L 130.778523 89.039632 
L 131.032159 94.33073 
L 131.285795 90.58247 
L 131.539432 95.552543 
L 131.793068 96.785173 
L 132.046705 94.856319 
L 132.553977 96.888159 
L 132.807614 97.36284 
L 133.06125 94.210197 
L 133.314886 98.149998 
L 133.568523 98.862282 
L 133.822159 97.532629 
L 134.075795 97.737245 
L 134.329432 103.66685 
L 134.583068 91.629256 
L 135.090341 101.336433 
L 135.343977 103.063224 
L 135.597614 89.872391 
L 135.85125 95.010264 
L 136.104886 106.331412 
L 136.865795 99.855456 
L 137.119432 102.108255 
L 137.373068 96.53395 
L 137.626705 104.153693 
L 137.880341 105.621925 
L 138.387614 98.241323 
L 138.64125 100.262963 
L 138.894886 105.134574 
L 139.148523 96.963074 
L 139.655795 112.142431 
L 139.909432 112.674881 
L 140.163068 104.111567 
L 140.416705 103.738053 
L 140.670341 101.872737 
L 140.923977 107.209869 
L 141.177614 107.191841 
L 141.43125 102.464532 
L 141.938523 104.441583 
L 142.192159 99.048906 
L 142.445795 113.52551 
L 142.699432 110.399097 
L 142.953068 115.677369 
L 143.206705 103.817704 
L 143.460341 108.453839 
L 143.713977 122.812602 
L 143.967614 109.748263 
L 144.22125 106.381091 
L 144.474886 106.499714 
L 144.728523 107.619956 
L 144.982159 105.99448 
L 145.235795 109.419238 
L 145.743068 104.203787 
L 146.250341 114.421854 
L 146.503977 105.721779 
L 146.757614 121.010155 
L 147.01125 112.126201 
L 147.264886 115.524537 
L 147.518523 107.249804 
L 147.772159 107.374891 
L 148.025795 106.232737 
L 148.279432 107.294676 
L 148.533068 120.887681 
L 148.786705 113.05009 
L 149.040341 112.758913 
L 149.293977 108.034112 
L 149.547614 107.391884 
L 149.80125 123.86926 
L 150.054886 108.362475 
L 150.308523 108.803504 
L 150.562159 121.895799 
L 150.815795 108.501011 
L 151.069432 115.437796 
L 151.323068 112.819296 
L 151.576705 116.649835 
L 151.830341 109.43578 
L 152.083977 115.582496 
L 152.337614 110.925734 
L 152.59125 116.278017 
L 152.844886 112.071775 
L 153.098523 112.695791 
L 153.352159 113.673885 
L 153.605795 117.281733 
L 153.859432 118.674395 
L 154.113068 116.030422 
L 154.366705 122.468773 
L 154.873977 126.676729 
L 155.127614 123.688685 
L 155.38125 116.605086 
L 155.634886 113.452606 
L 155.888523 121.133873 
L 156.142159 123.001068 
L 156.395795 116.137736 
L 156.649432 123.613 
L 156.903068 122.275398 
L 157.156705 116.027392 
L 157.410341 121.47364 
L 157.663977 114.587126 
L 158.17125 125.173212 
L 158.424886 119.650458 
L 158.678523 121.944488 
L 158.932159 116.779157 
L 159.185795 117.716747 
L 159.439432 123.370764 
L 159.693068 120.293145 
L 159.946705 119.281395 
L 160.200341 123.443371 
L 160.453977 125.746095 
L 160.707614 126.97784 
L 160.96125 118.467377 
L 161.214886 125.487192 
L 161.468523 116.105901 
L 161.722159 122.027011 
L 161.975795 122.233656 
L 162.483068 118.801786 
L 162.736705 122.123847 
L 162.990341 123.00127 
L 163.243977 120.146157 
L 163.497614 127.626905 
L 163.75125 114.213551 
L 164.004886 129.08137 
L 164.258523 124.563364 
L 164.512159 124.351169 
L 165.019432 121.63708 
L 165.273068 124.984356 
L 165.526705 126.257563 
L 165.780341 120.484333 
L 166.033977 125.525909 
L 166.287614 125.618318 
L 166.54125 129.972615 
L 166.794886 123.289101 
L 167.048523 124.29075 
L 167.302159 119.045491 
L 167.555795 125.035755 
L 167.809432 125.241952 
L 168.063068 138.681668 
L 168.316705 127.024517 
L 168.570341 126.437952 
L 168.823977 127.381383 
L 169.077614 123.108294 
L 169.33125 122.204454 
L 169.584886 137.140257 
L 170.092159 121.830105 
L 170.599432 129.780504 
L 170.853068 131.404127 
L 171.106705 123.609481 
L 171.360341 122.890191 
L 171.613977 134.649467 
L 171.867614 124.348396 
L 172.628523 133.433001 
L 172.882159 125.802031 
L 173.135795 132.5549 
L 173.389432 131.862513 
L 173.643068 134.938813 
L 174.150341 124.668477 
L 174.403977 127.289041 
L 174.657614 125.465707 
L 174.91125 131.721231 
L 175.164886 129.546324 
L 175.418523 131.928817 
L 175.672159 135.859247 
L 175.925795 127.734106 
L 176.179432 132.975598 
L 176.433068 125.321446 
L 176.686705 126.55416 
L 177.447614 136.148382 
L 177.70125 135.43972 
L 177.954886 130.330624 
L 178.208523 131.823963 
L 178.462159 132.155411 
L 178.715795 133.741108 
L 178.969432 126.509965 
L 179.223068 132.952601 
L 179.476705 132.885351 
L 179.730341 132.667125 
L 179.983977 134.836508 
L 180.237614 130.712902 
L 180.49125 131.258847 
L 180.744886 128.626436 
L 180.998523 131.527628 
L 181.252159 131.708817 
L 181.505795 129.626435 
L 181.759432 135.746798 
L 182.013068 135.836266 
L 182.266705 133.597255 
L 182.520341 133.291629 
L 182.773977 133.595092 
L 183.027614 131.393204 
L 183.28125 142.869018 
L 183.534886 134.488216 
L 183.788523 134.287116 
L 184.042159 135.701665 
L 184.295795 142.361272 
L 184.549432 144.893505 
L 184.803068 133.954564 
L 185.056705 140.308625 
L 185.310341 139.906581 
L 185.563977 138.365843 
L 185.817614 139.790737 
L 186.07125 146.521051 
L 186.324886 133.91121 
L 186.578523 142.290894 
L 186.832159 134.465809 
L 187.085795 144.075952 
L 187.339432 133.038559 
L 187.593068 132.451532 
L 187.846705 132.410994 
L 188.100341 131.117683 
L 188.353977 135.083703 
L 188.607614 136.884146 
L 188.86125 136.904524 
L 189.114886 141.004424 
L 189.368523 149.630189 
L 189.622159 136.774336 
L 189.875795 140.169049 
L 190.129432 140.224055 
L 190.383068 134.331485 
L 190.636705 136.799173 
L 190.890341 136.197968 
L 191.143977 137.445041 
L 191.397614 148.749922 
L 191.65125 138.150035 
L 191.904886 138.403148 
L 192.158523 139.683194 
L 192.412159 135.483911 
L 192.665795 142.545088 
L 192.919432 134.135186 
L 193.173068 138.102331 
L 193.426705 140.064492 
L 193.680341 137.45311 
L 193.933977 137.86878 
L 194.187614 138.831871 
L 194.44125 136.85645 
L 194.694886 140.669374 
L 194.948523 141.33834 
L 195.455795 138.162543 
L 195.709432 151.812089 
L 195.963068 144.02803 
L 196.216705 150.458438 
L 196.470341 153.207165 
L 196.723977 148.991107 
L 196.977614 139.615159 
L 197.23125 153.763457 
L 197.484886 136.979657 
L 197.992159 146.762604 
L 198.245795 140.559365 
L 198.499432 144.16784 
L 198.753068 142.600499 
L 199.006705 139.414217 
L 199.260341 144.839521 
L 199.513977 137.96499 
L 199.767614 139.991329 
L 200.02125 137.930748 
L 200.274886 148.538482 
L 200.528523 138.35891 
L 200.782159 141.798631 
L 201.035795 161.980179 
L 201.289432 143.194448 
L 201.543068 141.18312 
L 201.796705 142.6818 
L 202.050341 140.234966 
L 202.303977 145.787321 
L 202.557614 144.893455 
L 202.81125 139.755804 
L 203.064886 149.119394 
L 203.318523 148.687579 
L 203.572159 143.484535 
L 203.825795 145.733928 
L 204.079432 151.180293 
L 204.333068 141.787681 
L 204.586705 144.891052 
L 204.840341 139.592934 
L 205.093977 141.954588 
L 205.347614 141.790703 
L 205.60125 195.326789 
L 205.854886 140.629377 
L 206.108523 141.042986 
L 206.362159 138.107501 
L 206.869432 151.869232 
L 207.123068 152.188776 
L 207.376705 144.406902 
L 207.630341 141.389714 
L 207.883977 146.845462 
L 208.137614 142.887663 
L 208.39125 148.760161 
L 208.644886 140.083188 
L 208.898523 138.712204 
L 209.152159 145.305983 
L 209.405795 142.258144 
L 209.913068 147.919864 
L 210.166705 154.958309 
L 210.420341 143.315773 
L 210.673977 143.36013 
L 210.927614 141.944295 
L 211.18125 139.624447 
L 211.434886 149.7693 
L 211.942159 141.460935 
L 212.195795 142.440722 
L 212.449432 144.715899 
L 212.703068 143.957932 
L 212.956705 147.315541 
L 213.210341 142.760461 
L 213.463977 141.940604 
L 213.717614 158.959093 
L 213.97125 147.75441 
L 214.224886 143.043738 
L 214.732159 150.112575 
L 215.239432 143.259635 
L 215.493068 149.14613 
L 215.746705 143.891898 
L 216.000341 147.858343 
L 216.253977 158.114589 
L 216.507614 147.201818 
L 216.76125 144.122811 
L 217.522159 145.721406 
L 218.029432 143.413358 
L 218.283068 145.785964 
L 218.536705 144.856845 
L 218.790341 152.091819 
L 219.043977 140.208502 
L 219.297614 147.504075 
L 219.55125 142.122885 
L 219.804886 153.152113 
L 220.058523 147.254752 
L 220.312159 151.281386 
L 220.565795 149.146129 
L 220.819432 145.532472 
L 221.073068 146.180409 
L 221.326705 147.183413 
L 221.580341 144.899271 
L 221.833977 145.900111 
L 222.087614 144.979955 
L 222.34125 151.942405 
L 222.594886 153.978678 
L 222.848523 145.889623 
L 223.102159 143.644267 
L 223.355795 145.77079 
L 223.609432 157.46038 
L 223.863068 143.967804 
L 224.116705 142.921692 
L 224.370341 144.068969 
L 224.877614 151.694033 
L 225.13125 145.67304 
L 225.384886 143.628211 
L 225.638523 149.627651 
L 225.892159 148.232861 
L 226.145795 145.081972 
L 226.399432 154.651607 
L 226.653068 145.111713 
L 226.906705 148.89129 
L 227.160341 148.342714 
L 227.413977 147.370785 
L 227.667614 148.345388 
L 227.92125 153.636419 
L 228.174886 146.485088 
L 228.682159 149.994973 
L 228.935795 146.809579 
L 229.189432 150.637889 
L 229.443068 146.470573 
L 229.696705 146.211759 
L 229.950341 145.335746 
L 230.203977 151.461575 
L 230.457614 149.209077 
L 230.71125 159.013844 
L 231.218523 152.788926 
L 231.472159 150.103911 
L 231.725795 150.869179 
L 231.979432 145.038417 
L 232.233068 150.005406 
L 232.486705 143.689192 
L 232.740341 150.016593 
L 232.993977 145.713517 
L 233.247614 149.580234 
L 233.50125 149.43787 
L 233.754886 147.150292 
L 234.008523 151.403351 
L 234.262159 151.242964 
L 234.515795 147.94416 
L 234.769432 152.046651 
L 235.023068 146.7575 
L 235.276705 148.855054 
L 235.530341 149.024402 
L 235.783977 145.652409 
L 236.037614 147.394653 
L 236.29125 154.434299 
L 236.544886 148.335732 
L 236.798523 148.087361 
L 237.052159 151.072842 
L 237.305795 157.84607 
L 237.559432 149.484302 
L 237.813068 149.474846 
L 238.066705 149.282357 
L 238.320341 146.971911 
L 238.573977 151.337068 
L 239.08125 146.673108 
L 239.334886 147.082415 
L 239.588523 149.035771 
L 239.842159 145.025768 
L 240.095795 150.602638 
L 240.349432 148.830728 
L 240.603068 148.132506 
L 241.363977 154.775102 
L 241.617614 151.608822 
L 241.87125 150.971129 
L 242.124886 149.18305 
L 242.378523 149.90184 
L 242.632159 152.814774 
L 242.885795 153.688922 
L 243.139432 157.824535 
L 243.393068 145.739669 
L 243.646705 151.02581 
L 244.153977 148.232803 
L 244.407614 151.866469 
L 244.66125 148.087427 
L 244.914886 152.528722 
L 245.168523 145.541334 
L 245.422159 147.340469 
L 245.675795 151.906082 
L 245.929432 150.235891 
L 246.436705 150.951194 
L 246.690341 149.64715 
L 246.943977 151.950216 
L 247.197614 151.592999 
L 247.45125 147.642796 
L 247.958523 154.975062 
L 248.212159 148.376153 
L 248.465795 147.060726 
L 248.719432 159.631824 
L 248.973068 151.16175 
L 249.226705 147.859828 
L 249.480341 147.614315 
L 249.733977 155.918586 
L 249.987614 188.735377 
L 250.24125 149.612388 
L 250.494886 149.432795 
L 250.748523 155.621848 
L 251.002159 149.437325 
L 251.255795 150.088258 
L 251.509432 149.8441 
L 251.763068 148.013492 
L 252.016705 153.686971 
L 252.270341 150.673153 
L 252.523977 149.752679 
L 252.777614 163.231105 
L 253.03125 151.597997 
L 253.284886 151.228033 
L 253.792159 149.781193 
L 254.045795 148.282902 
L 254.553068 153.837833 
L 254.806705 150.828121 
L 255.060341 149.391319 
L 255.567614 154.435696 
L 255.82125 152.938557 
L 256.074886 150.580304 
L 256.582159 151.766839 
L 256.835795 155.087144 
L 257.089432 155.007318 
L 257.596705 149.879742 
L 257.850341 149.970155 
L 258.103977 153.077726 
L 258.357614 153.651944 
L 258.61125 154.694971 
L 259.118523 149.234611 
L 259.372159 150.159764 
L 259.625795 153.356925 
L 259.879432 152.196387 
L 260.133068 154.956135 
L 260.386705 155.110304 
L 260.640341 155.131917 
L 260.893977 150.899605 
L 261.147614 153.222739 
L 261.654886 150.166048 
L 261.908523 150.563985 
L 262.162159 149.530172 
L 262.415795 150.059551 
L 262.669432 157.434398 
L 262.923068 149.169138 
L 263.176705 156.233284 
L 263.430341 150.808739 
L 263.683977 151.843889 
L 263.937614 151.84718 
L 264.19125 154.203628 
L 264.444886 158.729879 
L 265.205795 149.153874 
L 265.459432 154.501915 
L 265.713068 152.620567 
L 265.966705 156.378906 
L 266.220341 152.184478 
L 266.473977 152.534779 
L 266.727614 157.050335 
L 266.98125 155.327118 
L 267.234886 159.368041 
L 267.488523 151.72749 
L 267.742159 153.629085 
L 267.995795 156.476644 
L 268.249432 152.267805 
L 268.503068 153.517675 
L 268.756705 152.922375 
L 269.010341 154.866786 
L 269.263977 154.311368 
L 269.517614 151.235989 
L 269.77125 153.424979 
L 270.024886 150.052984 
L 270.278523 155.113475 
L 270.532159 153.929093 
L 270.785795 156.465914 
L 271.039432 153.017575 
L 271.293068 153.75575 
L 271.546705 153.123233 
L 272.053977 157.760765 
L 272.307614 151.156644 
L 272.56125 151.752226 
L 272.814886 151.851 
L 273.068523 150.848648 
L 273.322159 154.474447 
L 273.575795 153.328151 
L 273.829432 155.225441 
L 274.083068 152.885225 
L 274.336705 153.172409 
L 274.590341 149.642697 
L 274.843977 150.807228 
L 275.35125 154.202167 
L 275.604886 151.040958 
L 275.858523 158.678353 
L 276.112159 153.497134 
L 276.365795 158.956481 
L 276.619432 201.738998 
L 276.873068 153.782731 
L 277.126705 154.452234 
L 277.380341 164.206256 
L 277.633977 149.926136 
L 277.887614 154.223839 
L 278.14125 151.516967 
L 278.394886 152.040972 
L 278.648523 152.92627 
L 278.902159 154.304303 
L 279.155795 153.226921 
L 279.409432 153.14885 
L 279.663068 156.194948 
L 279.916705 152.624098 
L 280.170341 154.952874 
L 280.423977 153.972602 
L 280.677614 162.542063 
L 280.93125 155.148128 
L 281.184886 152.015199 
L 281.438523 197.885032 
L 281.692159 162.804745 
L 281.945795 158.029539 
L 282.199432 157.990772 
L 282.453068 153.533817 
L 282.706705 152.00504 
L 282.960341 159.461748 
L 283.213977 151.974145 
L 283.467614 156.41388 
L 283.72125 153.022428 
L 283.974886 154.557264 
L 284.228523 159.063175 
L 284.482159 156.170142 
L 284.735795 155.196443 
L 284.989432 152.777415 
L 285.496705 162.183344 
L 285.750341 160.500924 
L 286.003977 156.136269 
L 286.257614 154.610793 
L 286.51125 151.520411 
L 286.764886 152.027361 
L 287.018523 160.318574 
L 287.779432 153.41205 
L 288.033068 157.769432 
L 288.286705 153.271434 
L 288.540341 154.363727 
L 288.793977 157.393926 
L 289.047614 154.49937 
L 289.30125 154.227092 
L 289.554886 163.816793 
L 289.808523 155.18352 
L 290.062159 155.302079 
L 290.315795 156.001067 
L 290.569432 154.27069 
L 291.076705 156.596212 
L 291.330341 162.980055 
L 291.583977 154.095612 
L 291.837614 158.488351 
L 292.09125 153.787312 
L 292.344886 156.12561 
L 292.598523 155.696586 
L 292.852159 167.44696 
L 293.359432 153.608589 
L 293.613068 161.364797 
L 293.866705 153.244458 
L 294.120341 166.229927 
L 294.373977 164.007111 
L 294.627614 154.344624 
L 294.88125 155.05804 
L 295.134886 161.018462 
L 295.388523 154.78658 
L 295.642159 153.927296 
L 295.895795 157.607933 
L 296.149432 153.796935 
L 296.403068 162.142345 
L 296.656705 156.117452 
L 297.163977 157.225872 
L 297.417614 154.27486 
L 297.67125 157.38638 
L 297.924886 155.706795 
L 298.178523 158.742691 
L 298.432159 154.792378 
L 298.685795 159.551998 
L 298.939432 154.125264 
L 299.193068 157.843552 
L 299.446705 158.535065 
L 299.700341 155.065098 
L 299.953977 154.257416 
L 300.207614 156.076624 
L 300.46125 154.820776 
L 300.714886 160.101402 
L 300.968523 161.004996 
L 301.222159 156.166796 
L 301.475795 158.555046 
L 301.729432 155.092184 
L 301.983068 155.15357 
L 302.490341 155.846372 
L 302.743977 153.999139 
L 302.997614 162.468507 
L 303.25125 155.752998 
L 303.504886 155.744356 
L 304.012159 158.296347 
L 304.265795 157.267371 
L 304.519432 155.674723 
L 304.773068 156.144046 
L 305.026705 154.631006 
L 305.533977 158.866865 
L 305.787614 156.970205 
L 306.04125 156.532678 
L 306.294886 175.090525 
L 306.548523 160.921706 
L 306.802159 157.923765 
L 307.055795 160.865028 
L 307.309432 156.430423 
L 307.563068 159.585795 
L 307.816705 154.826475 
L 308.070341 155.584148 
L 308.323977 159.049914 
L 308.577614 164.677564 
L 308.83125 154.839963 
L 309.084886 155.992 
L 309.338523 156.433769 
L 309.592159 164.53439 
L 309.845795 162.720915 
L 310.353068 156.546546 
L 310.606705 162.286465 
L 310.860341 157.813177 
L 311.113977 158.585086 
L 311.367614 156.051546 
L 311.62125 156.663733 
L 311.874886 160.319924 
L 312.128523 155.050882 
L 312.382159 156.268798 
L 312.635795 161.945257 
L 312.889432 155.560097 
L 313.143068 175.103814 
L 313.396705 157.433793 
L 313.650341 193.264815 
L 313.903977 160.726194 
L 314.157614 156.636993 
L 314.41125 159.11064 
L 314.664886 159.055504 
L 314.918523 159.196459 
L 315.172159 160.988007 
L 315.425795 154.9735 
L 315.679432 160.76087 
L 315.933068 156.537858 
L 316.186705 155.738657 
L 316.440341 160.223123 
L 316.693977 159.903171 
L 316.947614 155.317821 
L 317.20125 157.551659 
L 317.454886 158.214283 
L 317.708523 155.358876 
L 317.962159 157.628482 
L 318.215795 177.743971 
L 318.469432 156.542214 
L 318.723068 158.415753 
L 318.976705 158.250384 
L 319.230341 153.885919 
L 319.483977 158.07862 
L 319.737614 160.191402 
L 320.244886 160.922198 
L 320.498523 156.779094 
L 320.752159 155.748108 
L 321.005795 158.333968 
L 321.259432 158.635026 
L 321.513068 158.193134 
L 321.766705 155.404806 
L 322.020341 157.470056 
L 322.527614 155.949929 
L 322.78125 156.025312 
L 323.034886 158.864048 
L 323.288523 155.591153 
L 323.542159 161.475722 
L 323.795795 162.317864 
L 324.049432 157.519965 
L 324.303068 158.279229 
L 324.556705 161.38027 
L 324.810341 155.440812 
L 325.063977 156.066408 
L 325.317614 155.911611 
L 325.57125 154.550216 
L 325.824886 160.300666 
L 326.078523 157.841831 
L 326.332159 157.963183 
L 326.585795 160.818626 
L 326.839432 165.341977 
L 327.093068 157.201041 
L 327.600341 158.331112 
L 327.853977 158.365906 
L 328.107614 162.621008 
L 328.36125 158.712523 
L 328.614886 163.050346 
L 329.122159 157.717714 
L 329.375795 156.285804 
L 329.629432 160.142927 
L 330.136705 158.824185 
L 330.390341 155.484264 
L 330.643977 156.515361 
L 330.897614 160.418373 
L 331.15125 157.735423 
L 331.404886 157.374718 
L 331.658523 159.998749 
L 332.165795 158.629369 
L 332.419432 155.135483 
L 332.926705 156.809613 
L 333.180341 160.509736 
L 333.433977 156.680999 
L 333.687614 156.271125 
L 333.94125 156.983946 
L 334.194886 158.212944 
L 334.448523 158.10712 
L 334.702159 157.014665 
L 334.955795 159.621552 
L 335.209432 158.361172 
L 335.463068 159.906114 
L 335.716705 207.75238 
L 335.970341 159.969392 
L 336.223977 158.330442 
L 336.477614 163.91571 
L 336.73125 166.306682 
L 336.984886 158.680405 
L 337.238523 157.063301 
L 337.492159 157.587764 
L 337.999432 175.931517 
L 338.253068 156.953358 
L 338.506705 158.223163 
L 338.760341 157.276413 
L 339.013977 157.171359 
L 339.267614 161.471905 
L 339.52125 160.27726 
L 339.774886 154.804395 
L 340.028523 172.283899 
L 340.535795 157.099998 
L 341.043068 155.10349 
L 341.296705 158.600178 
L 341.550341 159.172808 
L 342.057614 155.977442 
L 342.31125 161.977712 
L 342.564886 163.920502 
L 342.818523 162.773116 
L 343.072159 157.757397 
L 343.579432 163.979395 
L 343.833068 160.79797 
L 344.086705 161.727584 
L 344.340341 158.792371 
L 344.593977 159.389027 
L 344.847614 160.974512 
L 345.10125 160.710508 
L 345.354886 168.892938 
L 345.608523 172.628729 
L 345.862159 157.369575 
L 346.115795 160.60239 
L 346.369432 157.595967 
L 346.623068 182.965972 
L 346.876705 160.328889 
L 347.130341 161.376766 
L 347.383977 157.518668 
L 347.637614 157.072601 
L 347.89125 161.382954 
L 348.144886 161.448366 
L 348.398523 157.765051 
L 348.652159 161.006694 
L 348.905795 157.449481 
L 349.159432 157.786725 
L 349.413068 161.761967 
L 349.666705 159.803512 
L 349.920341 159.149454 
L 350.173977 162.088068 
L 350.427614 169.498949 
L 350.68125 158.490571 
L 350.934886 158.814371 
L 351.188523 159.966547 
L 351.442159 156.475229 
L 351.695795 156.249041 
L 351.949432 173.546602 
L 352.203068 158.947083 
L 352.456705 157.114479 
L 352.710341 159.167102 
L 352.963977 157.000197 
L 353.217614 158.158886 
L 353.47125 158.391213 
L 353.724886 166.429221 
L 353.978523 168.785908 
L 354.232159 156.563916 
L 354.485795 157.177555 
L 354.739432 162.623699 
L 354.993068 161.723378 
L 355.246705 168.757497 
L 355.500341 160.990758 
L 355.753977 160.310563 
L 356.007614 171.973672 
L 356.26125 157.29315 
L 356.514886 156.130328 
L 356.768523 159.317368 
L 357.022159 156.871916 
L 357.275795 169.863221 
L 357.529432 194.210281 
L 357.783068 158.342379 
L 358.036705 159.992577 
L 358.290341 162.588031 
L 358.543977 156.634303 
L 358.797614 160.880803 
L 359.05125 156.886914 
L 359.304886 159.501902 
L 359.558523 159.195128 
L 360.065795 162.105175 
L 360.573068 170.292337 
L 360.826705 276.334125 
L 361.080341 158.707509 
L 361.333977 162.912596 
L 361.587614 183.698619 
L 361.84125 157.128944 
L 362.094886 158.172131 
L 362.348523 164.893421 
L 362.602159 160.497436 
L 362.855795 159.811597 
L 363.109432 160.165906 
L 363.363068 157.748947 
L 363.616705 162.159086 
L 363.870341 158.09581 
L 364.123977 160.705638 
L 364.63125 156.219312 
L 364.884886 157.470666 
L 365.138523 159.832115 
L 365.392159 160.336953 
L 365.645795 164.801018 
L 365.899432 158.354347 
L 366.153068 162.151474 
L 366.406705 157.643011 
L 366.660341 171.738782 
L 366.913977 161.454171 
L 367.167614 167.574216 
L 367.674886 158.930191 
L 367.928523 159.08266 
L 368.182159 158.176439 
L 368.435795 180.085506 
L 368.689432 160.360747 
L 368.943068 163.446826 
L 369.196705 157.699081 
L 369.450341 157.343862 
L 369.703977 163.135579 
L 369.957614 158.990331 
L 370.21125 175.604395 
L 370.464886 158.276114 
L 370.718523 162.416522 
L 370.972159 159.322222 
L 371.225795 192.071107 
L 371.479432 171.55603 
L 371.733068 161.482488 
L 371.986705 162.638832 
L 372.240341 156.157589 
L 372.493977 159.400719 
L 372.747614 159.063528 
L 373.00125 159.265441 
L 373.254886 156.767867 
L 373.508523 159.550708 
L 373.762159 159.007509 
L 374.015795 156.431799 
L 374.523068 163.005893 
L 374.776705 162.302091 
L 375.030341 159.333997 
L 375.283977 162.759279 
L 375.537614 161.888834 
L 375.79125 164.1271 
L 376.044886 159.744813 
L 376.298523 160.419081 
L 376.552159 160.376986 
L 376.805795 159.080599 
L 377.059432 160.017916 
L 377.313068 162.398726 
L 377.566705 158.556418 
L 377.820341 159.429163 
L 378.073977 159.640274 
L 378.327614 160.43281 
L 378.58125 183.680234 
L 378.834886 236.913818 
L 379.088523 163.391417 
L 379.595795 160.226674 
L 379.849432 162.235863 
L 380.103068 161.748489 
L 380.356705 188.912007 
L 380.610341 159.749467 
L 380.863977 167.416417 
L 381.117614 158.65455 
L 381.37125 184.929696 
L 381.624886 161.323442 
L 381.878523 163.197083 
L 382.132159 180.610111 
L 382.639432 162.969414 
L 382.893068 167.780484 
L 383.400341 161.746407 
L 383.653977 161.462048 
L 383.907614 158.718947 
L 384.16125 162.751893 
L 384.414886 169.893669 
L 384.668523 169.393907 
L 384.668523 169.393907 
" style="fill:none;stroke:#1f77b4;stroke-linecap:square;stroke-width:0.5;"/>
   </g>
   <g id="patch_3">
    <path d="M 43.78125 288.430125 
L 43.78125 22.318125 
" style="fill:none;stroke:#000000;stroke-linecap:square;stroke-linejoin:miter;stroke-width:0.8;"/>
   </g>
   <g id="patch_4">
    <path d="M 400.90125 288.430125 
L 400.90125 22.318125 
" style="fill:none;stroke:#000000;stroke-linecap:square;stroke-linejoin:miter;stroke-width:0.8;"/>
   </g>
   <g id="patch_5">
    <path d="M 43.78125 288.430125 
L 400.90125 288.430125 
" style="fill:none;stroke:#000000;stroke-linecap:square;stroke-linejoin:miter;stroke-width:0.8;"/>
   </g>
   <g id="patch_6">
    <path d="M 43.78125 22.318125 
L 400.90125 22.318125 
" style="fill:none;stroke:#000000;stroke-linecap:square;stroke-linejoin:miter;stroke-width:0.8;"/>
   </g>
   <g id="text_16">
    <!-- Average maxQ per episode, joint5 -->
    <defs>
     <path d="M 34.1875 63.1875 
L 20.796875 26.90625 
L 47.609375 26.90625 
z
M 28.609375 72.90625 
L 39.796875 72.90625 
L 67.578125 0 
L 57.328125 0 
L 50.6875 18.703125 
L 17.828125 18.703125 
L 11.1875 0 
L 0.78125 0 
z
" id="DejaVuSans-41"/>
     <path d="M 11.71875 12.40625 
L 22.015625 12.40625 
L 22.015625 4 
L 14.015625 -11.625 
L 7.71875 -11.625 
L 11.71875 4 
z
" id="DejaVuSans-2c"/>
     <path d="M 9.421875 54.6875 
L 18.40625 54.6875 
L 18.40625 -0.984375 
Q 18.40625 -11.421875 14.421875 -16.109375 
Q 10.453125 -20.796875 1.609375 -20.796875 
L -1.8125 -20.796875 
L -1.8125 -13.1875 
L 0.59375 -13.1875 
Q 5.71875 -13.1875 7.5625 -10.8125 
Q 9.421875 -8.453125 9.421875 -0.984375 
z
M 9.421875 75.984375 
L 18.40625 75.984375 
L 18.40625 64.59375 
L 9.421875 64.59375 
z
" id="DejaVuSans-6a"/>
     <path d="M 54.890625 33.015625 
L 54.890625 0 
L 45.90625 0 
L 45.90625 32.71875 
Q 45.90625 40.484375 42.875 44.328125 
Q 39.84375 48.1875 33.796875 48.1875 
Q 26.515625 48.1875 22.3125 43.546875 
Q 18.109375 38.921875 18.109375 30.90625 
L 18.109375 0 
L 9.078125 0 
L 9.078125 54.6875 
L 18.109375 54.6875 
L 18.109375 46.1875 
Q 21.34375 51.125 25.703125 53.5625 
Q 30.078125 56 35.796875 56 
Q 45.21875 56 50.046875 50.171875 
Q 54.890625 44.34375 54.890625 33.015625 
z
" id="DejaVuSans-6e"/>
     <path d="M 18.3125 70.21875 
L 18.3125 54.6875 
L 36.8125 54.6875 
L 36.8125 47.703125 
L 18.3125 47.703125 
L 18.3125 18.015625 
Q 18.3125 11.328125 20.140625 9.421875 
Q 21.96875 7.515625 27.59375 7.515625 
L 36.8125 7.515625 
L 36.8125 0 
L 27.59375 0 
Q 17.1875 0 13.234375 3.875 
Q 9.28125 7.765625 9.28125 18.015625 
L 9.28125 47.703125 
L 2.6875 47.703125 
L 2.6875 54.6875 
L 9.28125 54.6875 
L 9.28125 70.21875 
z
" id="DejaVuSans-74"/>
    </defs>
    <g transform="translate(119.61375 16.318125)scale(0.12 -0.12)">
     <use xlink:href="#DejaVuSans-41"/>
     <use x="68.330078" xlink:href="#DejaVuSans-76"/>
     <use x="127.509766" xlink:href="#DejaVuSans-65"/>
     <use x="189.033203" xlink:href="#DejaVuSans-72"/>
     <use x="230.146484" xlink:href="#DejaVuSans-61"/>
     <use x="291.425781" xlink:href="#DejaVuSans-67"/>
     <use x="354.902344" xlink:href="#DejaVuSans-65"/>
     <use x="416.425781" xlink:href="#DejaVuSans-20"/>
     <use x="448.212891" xlink:href="#DejaVuSans-6d"/>
     <use x="545.625" xlink:href="#DejaVuSans-61"/>
     <use x="606.904297" xlink:href="#DejaVuSans-78"/>
     <use x="666.083984" xlink:href="#DejaVuSans-51"/>
     <use x="744.794922" xlink:href="#DejaVuSans-20"/>
     <use x="776.582031" xlink:href="#DejaVuSans-70"/>
     <use x="840.058594" xlink:href="#DejaVuSans-65"/>
     <use x="901.582031" xlink:href="#DejaVuSans-72"/>
     <use x="942.695312" xlink:href="#DejaVuSans-20"/>
     <use x="974.482422" xlink:href="#DejaVuSans-65"/>
     <use x="1036.005859" xlink:href="#DejaVuSans-70"/>
     <use x="1099.482422" xlink:href="#DejaVuSans-69"/>
     <use x="1127.265625" xlink:href="#DejaVuSans-73"/>
     <use x="1179.365234" xlink:href="#DejaVuSans-6f"/>
     <use x="1240.546875" xlink:href="#DejaVuSans-64"/>
     <use x="1304.023438" xlink:href="#DejaVuSans-65"/>
     <use x="1365.546875" xlink:href="#DejaVuSans-2c"/>
     <use x="1397.333984" xlink:href="#DejaVuSans-20"/>
     <use x="1429.121094" xlink:href="#DejaVuSans-6a"/>
     <use x="1456.904297" xlink:href="#DejaVuSans-6f"/>
     <use x="1518.085938" xlink:href="#DejaVuSans-69"/>
     <use x="1545.869141" xlink:href="#DejaVuSans-6e"/>
     <use x="1609.248047" xlink:href="#DejaVuSans-74"/>
     <use x="1648.457031" xlink:href="#DejaVuSans-35"/>
    </g>
   </g>
  </g>
 </g>
 <defs>
  <clipPath id="p24fec20fee">
   <rect height="266.112" width="357.12" x="43.78125" y="22.318125"/>
  </clipPath>
 </defs>
</svg>
