<?xml version="1.0" encoding="utf-8" standalone="no"?>
<!DOCTYPE svg PUBLIC "-//W3C//DTD SVG 1.1//EN"
  "http://www.w3.org/Graphics/SVG/1.1/DTD/svg11.dtd">
<!-- Created with matplotlib (http://matplotlib.org/) -->
<svg height="325pt" version="1.1" viewBox="0 0 411 325" width="411pt" xmlns="http://www.w3.org/2000/svg" xmlns:xlink="http://www.w3.org/1999/xlink">
 <defs>
  <style type="text/css">
*{stroke-linecap:butt;stroke-linejoin:round;}
  </style>
 </defs>
 <g id="figure_1">
  <g id="patch_1">
   <path d="M 0 325.986375 
L 411.60125 325.986375 
L 411.60125 0 
L 0 0 
z
" style="fill:#ffffff;"/>
  </g>
  <g id="axes_1">
   <g id="patch_2">
    <path d="M 43.78125 288.430125 
L 400.90125 288.430125 
L 400.90125 22.318125 
L 43.78125 22.318125 
z
" style="fill:#ffffff;"/>
   </g>
   <g id="matplotlib.axis_1">
    <g id="xtick_1">
     <g id="line2d_1">
      <defs>
       <path d="M 0 0 
L 0 3.5 
" id="m20a5a5d40e" style="stroke:#000000;stroke-width:0.8;"/>
      </defs>
      <g>
       <use style="stroke:#000000;stroke-width:0.8;" x="60.013977" xlink:href="#m20a5a5d40e" y="288.430125"/>
      </g>
     </g>
     <g id="text_1">
      <!-- 0 -->
      <defs>
       <path d="M 31.78125 66.40625 
Q 24.171875 66.40625 20.328125 58.90625 
Q 16.5 51.421875 16.5 36.375 
Q 16.5 21.390625 20.328125 13.890625 
Q 24.171875 6.390625 31.78125 6.390625 
Q 39.453125 6.390625 43.28125 13.890625 
Q 47.125 21.390625 47.125 36.375 
Q 47.125 51.421875 43.28125 58.90625 
Q 39.453125 66.40625 31.78125 66.40625 
z
M 31.78125 74.21875 
Q 44.046875 74.21875 50.515625 64.515625 
Q 56.984375 54.828125 56.984375 36.375 
Q 56.984375 17.96875 50.515625 8.265625 
Q 44.046875 -1.421875 31.78125 -1.421875 
Q 19.53125 -1.421875 13.0625 8.265625 
Q 6.59375 17.96875 6.59375 36.375 
Q 6.59375 54.828125 13.0625 64.515625 
Q 19.53125 74.21875 31.78125 74.21875 
z
" id="DejaVuSans-30"/>
      </defs>
      <g transform="translate(56.832727 303.028562)scale(0.1 -0.1)">
       <use xlink:href="#DejaVuSans-30"/>
      </g>
     </g>
    </g>
    <g id="xtick_2">
     <g id="line2d_2">
      <g>
       <use style="stroke:#000000;stroke-width:0.8;" x="103.330127" xlink:href="#m20a5a5d40e" y="288.430125"/>
      </g>
     </g>
     <g id="text_2">
      <!-- 200 -->
      <defs>
       <path d="M 19.1875 8.296875 
L 53.609375 8.296875 
L 53.609375 0 
L 7.328125 0 
L 7.328125 8.296875 
Q 12.9375 14.109375 22.625 23.890625 
Q 32.328125 33.6875 34.8125 36.53125 
Q 39.546875 41.84375 41.421875 45.53125 
Q 43.3125 49.21875 43.3125 52.78125 
Q 43.3125 58.59375 39.234375 62.25 
Q 35.15625 65.921875 28.609375 65.921875 
Q 23.96875 65.921875 18.8125 64.3125 
Q 13.671875 62.703125 7.8125 59.421875 
L 7.8125 69.390625 
Q 13.765625 71.78125 18.9375 73 
Q 24.125 74.21875 28.421875 74.21875 
Q 39.75 74.21875 46.484375 68.546875 
Q 53.21875 62.890625 53.21875 53.421875 
Q 53.21875 48.921875 51.53125 44.890625 
Q 49.859375 40.875 45.40625 35.40625 
Q 44.1875 33.984375 37.640625 27.21875 
Q 31.109375 20.453125 19.1875 8.296875 
z
" id="DejaVuSans-32"/>
      </defs>
      <g transform="translate(93.786377 303.028562)scale(0.1 -0.1)">
       <use xlink:href="#DejaVuSans-32"/>
       <use x="63.623047" xlink:href="#DejaVuSans-30"/>
       <use x="127.246094" xlink:href="#DejaVuSans-30"/>
      </g>
     </g>
    </g>
    <g id="xtick_3">
     <g id="line2d_3">
      <g>
       <use style="stroke:#000000;stroke-width:0.8;" x="146.646278" xlink:href="#m20a5a5d40e" y="288.430125"/>
      </g>
     </g>
     <g id="text_3">
      <!-- 400 -->
      <defs>
       <path d="M 37.796875 64.3125 
L 12.890625 25.390625 
L 37.796875 25.390625 
z
M 35.203125 72.90625 
L 47.609375 72.90625 
L 47.609375 25.390625 
L 58.015625 25.390625 
L 58.015625 17.1875 
L 47.609375 17.1875 
L 47.609375 0 
L 37.796875 0 
L 37.796875 17.1875 
L 4.890625 17.1875 
L 4.890625 26.703125 
z
" id="DejaVuSans-34"/>
      </defs>
      <g transform="translate(137.102528 303.028562)scale(0.1 -0.1)">
       <use xlink:href="#DejaVuSans-34"/>
       <use x="63.623047" xlink:href="#DejaVuSans-30"/>
       <use x="127.246094" xlink:href="#DejaVuSans-30"/>
      </g>
     </g>
    </g>
    <g id="xtick_4">
     <g id="line2d_4">
      <g>
       <use style="stroke:#000000;stroke-width:0.8;" x="189.962428" xlink:href="#m20a5a5d40e" y="288.430125"/>
      </g>
     </g>
     <g id="text_4">
      <!-- 600 -->
      <defs>
       <path d="M 33.015625 40.375 
Q 26.375 40.375 22.484375 35.828125 
Q 18.609375 31.296875 18.609375 23.390625 
Q 18.609375 15.53125 22.484375 10.953125 
Q 26.375 6.390625 33.015625 6.390625 
Q 39.65625 6.390625 43.53125 10.953125 
Q 47.40625 15.53125 47.40625 23.390625 
Q 47.40625 31.296875 43.53125 35.828125 
Q 39.65625 40.375 33.015625 40.375 
z
M 52.59375 71.296875 
L 52.59375 62.3125 
Q 48.875 64.0625 45.09375 64.984375 
Q 41.3125 65.921875 37.59375 65.921875 
Q 27.828125 65.921875 22.671875 59.328125 
Q 17.53125 52.734375 16.796875 39.40625 
Q 19.671875 43.65625 24.015625 45.921875 
Q 28.375 48.1875 33.59375 48.1875 
Q 44.578125 48.1875 50.953125 41.515625 
Q 57.328125 34.859375 57.328125 23.390625 
Q 57.328125 12.15625 50.6875 5.359375 
Q 44.046875 -1.421875 33.015625 -1.421875 
Q 20.359375 -1.421875 13.671875 8.265625 
Q 6.984375 17.96875 6.984375 36.375 
Q 6.984375 53.65625 15.1875 63.9375 
Q 23.390625 74.21875 37.203125 74.21875 
Q 40.921875 74.21875 44.703125 73.484375 
Q 48.484375 72.75 52.59375 71.296875 
z
" id="DejaVuSans-36"/>
      </defs>
      <g transform="translate(180.418678 303.028562)scale(0.1 -0.1)">
       <use xlink:href="#DejaVuSans-36"/>
       <use x="63.623047" xlink:href="#DejaVuSans-30"/>
       <use x="127.246094" xlink:href="#DejaVuSans-30"/>
      </g>
     </g>
    </g>
    <g id="xtick_5">
     <g id="line2d_5">
      <g>
       <use style="stroke:#000000;stroke-width:0.8;" x="233.278578" xlink:href="#m20a5a5d40e" y="288.430125"/>
      </g>
     </g>
     <g id="text_5">
      <!-- 800 -->
      <defs>
       <path d="M 31.78125 34.625 
Q 24.75 34.625 20.71875 30.859375 
Q 16.703125 27.09375 16.703125 20.515625 
Q 16.703125 13.921875 20.71875 10.15625 
Q 24.75 6.390625 31.78125 6.390625 
Q 38.8125 6.390625 42.859375 10.171875 
Q 46.921875 13.96875 46.921875 20.515625 
Q 46.921875 27.09375 42.890625 30.859375 
Q 38.875 34.625 31.78125 34.625 
z
M 21.921875 38.8125 
Q 15.578125 40.375 12.03125 44.71875 
Q 8.5 49.078125 8.5 55.328125 
Q 8.5 64.0625 14.71875 69.140625 
Q 20.953125 74.21875 31.78125 74.21875 
Q 42.671875 74.21875 48.875 69.140625 
Q 55.078125 64.0625 55.078125 55.328125 
Q 55.078125 49.078125 51.53125 44.71875 
Q 48 40.375 41.703125 38.8125 
Q 48.828125 37.15625 52.796875 32.3125 
Q 56.78125 27.484375 56.78125 20.515625 
Q 56.78125 9.90625 50.3125 4.234375 
Q 43.84375 -1.421875 31.78125 -1.421875 
Q 19.734375 -1.421875 13.25 4.234375 
Q 6.78125 9.90625 6.78125 20.515625 
Q 6.78125 27.484375 10.78125 32.3125 
Q 14.796875 37.15625 21.921875 38.8125 
z
M 18.3125 54.390625 
Q 18.3125 48.734375 21.84375 45.5625 
Q 25.390625 42.390625 31.78125 42.390625 
Q 38.140625 42.390625 41.71875 45.5625 
Q 45.3125 48.734375 45.3125 54.390625 
Q 45.3125 60.0625 41.71875 63.234375 
Q 38.140625 66.40625 31.78125 66.40625 
Q 25.390625 66.40625 21.84375 63.234375 
Q 18.3125 60.0625 18.3125 54.390625 
z
" id="DejaVuSans-38"/>
      </defs>
      <g transform="translate(223.734828 303.028562)scale(0.1 -0.1)">
       <use xlink:href="#DejaVuSans-38"/>
       <use x="63.623047" xlink:href="#DejaVuSans-30"/>
       <use x="127.246094" xlink:href="#DejaVuSans-30"/>
      </g>
     </g>
    </g>
    <g id="xtick_6">
     <g id="line2d_6">
      <g>
       <use style="stroke:#000000;stroke-width:0.8;" x="276.594728" xlink:href="#m20a5a5d40e" y="288.430125"/>
      </g>
     </g>
     <g id="text_6">
      <!-- 1000 -->
      <defs>
       <path d="M 12.40625 8.296875 
L 28.515625 8.296875 
L 28.515625 63.921875 
L 10.984375 60.40625 
L 10.984375 69.390625 
L 28.421875 72.90625 
L 38.28125 72.90625 
L 38.28125 8.296875 
L 54.390625 8.296875 
L 54.390625 0 
L 12.40625 0 
z
" id="DejaVuSans-31"/>
      </defs>
      <g transform="translate(263.869728 303.028562)scale(0.1 -0.1)">
       <use xlink:href="#DejaVuSans-31"/>
       <use x="63.623047" xlink:href="#DejaVuSans-30"/>
       <use x="127.246094" xlink:href="#DejaVuSans-30"/>
       <use x="190.869141" xlink:href="#DejaVuSans-30"/>
      </g>
     </g>
    </g>
    <g id="xtick_7">
     <g id="line2d_7">
      <g>
       <use style="stroke:#000000;stroke-width:0.8;" x="319.910878" xlink:href="#m20a5a5d40e" y="288.430125"/>
      </g>
     </g>
     <g id="text_7">
      <!-- 1200 -->
      <g transform="translate(307.185878 303.028562)scale(0.1 -0.1)">
       <use xlink:href="#DejaVuSans-31"/>
       <use x="63.623047" xlink:href="#DejaVuSans-32"/>
       <use x="127.246094" xlink:href="#DejaVuSans-30"/>
       <use x="190.869141" xlink:href="#DejaVuSans-30"/>
      </g>
     </g>
    </g>
    <g id="xtick_8">
     <g id="line2d_8">
      <g>
       <use style="stroke:#000000;stroke-width:0.8;" x="363.227028" xlink:href="#m20a5a5d40e" y="288.430125"/>
      </g>
     </g>
     <g id="text_8">
      <!-- 1400 -->
      <g transform="translate(350.502028 303.028562)scale(0.1 -0.1)">
       <use xlink:href="#DejaVuSans-31"/>
       <use x="63.623047" xlink:href="#DejaVuSans-34"/>
       <use x="127.246094" xlink:href="#DejaVuSans-30"/>
       <use x="190.869141" xlink:href="#DejaVuSans-30"/>
      </g>
     </g>
    </g>
    <g id="text_9">
     <!-- episode -->
     <defs>
      <path d="M 56.203125 29.59375 
L 56.203125 25.203125 
L 14.890625 25.203125 
Q 15.484375 15.921875 20.484375 11.0625 
Q 25.484375 6.203125 34.421875 6.203125 
Q 39.59375 6.203125 44.453125 7.46875 
Q 49.3125 8.734375 54.109375 11.28125 
L 54.109375 2.78125 
Q 49.265625 0.734375 44.1875 -0.34375 
Q 39.109375 -1.421875 33.890625 -1.421875 
Q 20.796875 -1.421875 13.15625 6.1875 
Q 5.515625 13.8125 5.515625 26.8125 
Q 5.515625 40.234375 12.765625 48.109375 
Q 20.015625 56 32.328125 56 
Q 43.359375 56 49.78125 48.890625 
Q 56.203125 41.796875 56.203125 29.59375 
z
M 47.21875 32.234375 
Q 47.125 39.59375 43.09375 43.984375 
Q 39.0625 48.390625 32.421875 48.390625 
Q 24.90625 48.390625 20.390625 44.140625 
Q 15.875 39.890625 15.1875 32.171875 
z
" id="DejaVuSans-65"/>
      <path d="M 18.109375 8.203125 
L 18.109375 -20.796875 
L 9.078125 -20.796875 
L 9.078125 54.6875 
L 18.109375 54.6875 
L 18.109375 46.390625 
Q 20.953125 51.265625 25.265625 53.625 
Q 29.59375 56 35.59375 56 
Q 45.5625 56 51.78125 48.09375 
Q 58.015625 40.1875 58.015625 27.296875 
Q 58.015625 14.40625 51.78125 6.484375 
Q 45.5625 -1.421875 35.59375 -1.421875 
Q 29.59375 -1.421875 25.265625 0.953125 
Q 20.953125 3.328125 18.109375 8.203125 
z
M 48.6875 27.296875 
Q 48.6875 37.203125 44.609375 42.84375 
Q 40.53125 48.484375 33.40625 48.484375 
Q 26.265625 48.484375 22.1875 42.84375 
Q 18.109375 37.203125 18.109375 27.296875 
Q 18.109375 17.390625 22.1875 11.75 
Q 26.265625 6.109375 33.40625 6.109375 
Q 40.53125 6.109375 44.609375 11.75 
Q 48.6875 17.390625 48.6875 27.296875 
z
" id="DejaVuSans-70"/>
      <path d="M 9.421875 54.6875 
L 18.40625 54.6875 
L 18.40625 0 
L 9.421875 0 
z
M 9.421875 75.984375 
L 18.40625 75.984375 
L 18.40625 64.59375 
L 9.421875 64.59375 
z
" id="DejaVuSans-69"/>
      <path d="M 44.28125 53.078125 
L 44.28125 44.578125 
Q 40.484375 46.53125 36.375 47.5 
Q 32.28125 48.484375 27.875 48.484375 
Q 21.1875 48.484375 17.84375 46.4375 
Q 14.5 44.390625 14.5 40.28125 
Q 14.5 37.15625 16.890625 35.375 
Q 19.28125 33.59375 26.515625 31.984375 
L 29.59375 31.296875 
Q 39.15625 29.25 43.1875 25.515625 
Q 47.21875 21.78125 47.21875 15.09375 
Q 47.21875 7.46875 41.1875 3.015625 
Q 35.15625 -1.421875 24.609375 -1.421875 
Q 20.21875 -1.421875 15.453125 -0.5625 
Q 10.6875 0.296875 5.421875 2 
L 5.421875 11.28125 
Q 10.40625 8.6875 15.234375 7.390625 
Q 20.0625 6.109375 24.8125 6.109375 
Q 31.15625 6.109375 34.5625 8.28125 
Q 37.984375 10.453125 37.984375 14.40625 
Q 37.984375 18.0625 35.515625 20.015625 
Q 33.0625 21.96875 24.703125 23.78125 
L 21.578125 24.515625 
Q 13.234375 26.265625 9.515625 29.90625 
Q 5.8125 33.546875 5.8125 39.890625 
Q 5.8125 47.609375 11.28125 51.796875 
Q 16.75 56 26.8125 56 
Q 31.78125 56 36.171875 55.265625 
Q 40.578125 54.546875 44.28125 53.078125 
z
" id="DejaVuSans-73"/>
      <path d="M 30.609375 48.390625 
Q 23.390625 48.390625 19.1875 42.75 
Q 14.984375 37.109375 14.984375 27.296875 
Q 14.984375 17.484375 19.15625 11.84375 
Q 23.34375 6.203125 30.609375 6.203125 
Q 37.796875 6.203125 41.984375 11.859375 
Q 46.1875 17.53125 46.1875 27.296875 
Q 46.1875 37.015625 41.984375 42.703125 
Q 37.796875 48.390625 30.609375 48.390625 
z
M 30.609375 56 
Q 42.328125 56 49.015625 48.375 
Q 55.71875 40.765625 55.71875 27.296875 
Q 55.71875 13.875 49.015625 6.21875 
Q 42.328125 -1.421875 30.609375 -1.421875 
Q 18.84375 -1.421875 12.171875 6.21875 
Q 5.515625 13.875 5.515625 27.296875 
Q 5.515625 40.765625 12.171875 48.375 
Q 18.84375 56 30.609375 56 
z
" id="DejaVuSans-6f"/>
      <path d="M 45.40625 46.390625 
L 45.40625 75.984375 
L 54.390625 75.984375 
L 54.390625 0 
L 45.40625 0 
L 45.40625 8.203125 
Q 42.578125 3.328125 38.25 0.953125 
Q 33.9375 -1.421875 27.875 -1.421875 
Q 17.96875 -1.421875 11.734375 6.484375 
Q 5.515625 14.40625 5.515625 27.296875 
Q 5.515625 40.1875 11.734375 48.09375 
Q 17.96875 56 27.875 56 
Q 33.9375 56 38.25 53.625 
Q 42.578125 51.265625 45.40625 46.390625 
z
M 14.796875 27.296875 
Q 14.796875 17.390625 18.875 11.75 
Q 22.953125 6.109375 30.078125 6.109375 
Q 37.203125 6.109375 41.296875 11.75 
Q 45.40625 17.390625 45.40625 27.296875 
Q 45.40625 37.203125 41.296875 42.84375 
Q 37.203125 48.484375 30.078125 48.484375 
Q 22.953125 48.484375 18.875 42.84375 
Q 14.796875 37.203125 14.796875 27.296875 
z
" id="DejaVuSans-64"/>
     </defs>
     <g transform="translate(202.786563 316.706687)scale(0.1 -0.1)">
      <use xlink:href="#DejaVuSans-65"/>
      <use x="61.523438" xlink:href="#DejaVuSans-70"/>
      <use x="125" xlink:href="#DejaVuSans-69"/>
      <use x="152.783203" xlink:href="#DejaVuSans-73"/>
      <use x="204.882812" xlink:href="#DejaVuSans-6f"/>
      <use x="266.064453" xlink:href="#DejaVuSans-64"/>
      <use x="329.541016" xlink:href="#DejaVuSans-65"/>
     </g>
    </g>
   </g>
   <g id="matplotlib.axis_2">
    <g id="ytick_1">
     <g id="line2d_9">
      <defs>
       <path d="M 0 0 
L -3.5 0 
" id="mac8f3c50d2" style="stroke:#000000;stroke-width:0.8;"/>
      </defs>
      <g>
       <use style="stroke:#000000;stroke-width:0.8;" x="43.78125" xlink:href="#mac8f3c50d2" y="284.610009"/>
      </g>
     </g>
     <g id="text_10">
      <!-- 0.1 -->
      <defs>
       <path d="M 10.6875 12.40625 
L 21 12.40625 
L 21 0 
L 10.6875 0 
z
" id="DejaVuSans-2e"/>
      </defs>
      <g transform="translate(20.878125 288.409228)scale(0.1 -0.1)">
       <use xlink:href="#DejaVuSans-30"/>
       <use x="63.623047" xlink:href="#DejaVuSans-2e"/>
       <use x="95.410156" xlink:href="#DejaVuSans-31"/>
      </g>
     </g>
    </g>
    <g id="ytick_2">
     <g id="line2d_10">
      <g>
       <use style="stroke:#000000;stroke-width:0.8;" x="43.78125" xlink:href="#mac8f3c50d2" y="252.282096"/>
      </g>
     </g>
     <g id="text_11">
      <!-- 0.2 -->
      <g transform="translate(20.878125 256.081314)scale(0.1 -0.1)">
       <use xlink:href="#DejaVuSans-30"/>
       <use x="63.623047" xlink:href="#DejaVuSans-2e"/>
       <use x="95.410156" xlink:href="#DejaVuSans-32"/>
      </g>
     </g>
    </g>
    <g id="ytick_3">
     <g id="line2d_11">
      <g>
       <use style="stroke:#000000;stroke-width:0.8;" x="43.78125" xlink:href="#mac8f3c50d2" y="219.954182"/>
      </g>
     </g>
     <g id="text_12">
      <!-- 0.3 -->
      <defs>
       <path d="M 40.578125 39.3125 
Q 47.65625 37.796875 51.625 33 
Q 55.609375 28.21875 55.609375 21.1875 
Q 55.609375 10.40625 48.1875 4.484375 
Q 40.765625 -1.421875 27.09375 -1.421875 
Q 22.515625 -1.421875 17.65625 -0.515625 
Q 12.796875 0.390625 7.625 2.203125 
L 7.625 11.71875 
Q 11.71875 9.328125 16.59375 8.109375 
Q 21.484375 6.890625 26.8125 6.890625 
Q 36.078125 6.890625 40.9375 10.546875 
Q 45.796875 14.203125 45.796875 21.1875 
Q 45.796875 27.640625 41.28125 31.265625 
Q 36.765625 34.90625 28.71875 34.90625 
L 20.21875 34.90625 
L 20.21875 43.015625 
L 29.109375 43.015625 
Q 36.375 43.015625 40.234375 45.921875 
Q 44.09375 48.828125 44.09375 54.296875 
Q 44.09375 59.90625 40.109375 62.90625 
Q 36.140625 65.921875 28.71875 65.921875 
Q 24.65625 65.921875 20.015625 65.03125 
Q 15.375 64.15625 9.8125 62.3125 
L 9.8125 71.09375 
Q 15.4375 72.65625 20.34375 73.4375 
Q 25.25 74.21875 29.59375 74.21875 
Q 40.828125 74.21875 47.359375 69.109375 
Q 53.90625 64.015625 53.90625 55.328125 
Q 53.90625 49.265625 50.4375 45.09375 
Q 46.96875 40.921875 40.578125 39.3125 
z
" id="DejaVuSans-33"/>
      </defs>
      <g transform="translate(20.878125 223.753401)scale(0.1 -0.1)">
       <use xlink:href="#DejaVuSans-30"/>
       <use x="63.623047" xlink:href="#DejaVuSans-2e"/>
       <use x="95.410156" xlink:href="#DejaVuSans-33"/>
      </g>
     </g>
    </g>
    <g id="ytick_4">
     <g id="line2d_12">
      <g>
       <use style="stroke:#000000;stroke-width:0.8;" x="43.78125" xlink:href="#mac8f3c50d2" y="187.626269"/>
      </g>
     </g>
     <g id="text_13">
      <!-- 0.4 -->
      <g transform="translate(20.878125 191.425487)scale(0.1 -0.1)">
       <use xlink:href="#DejaVuSans-30"/>
       <use x="63.623047" xlink:href="#DejaVuSans-2e"/>
       <use x="95.410156" xlink:href="#DejaVuSans-34"/>
      </g>
     </g>
    </g>
    <g id="ytick_5">
     <g id="line2d_13">
      <g>
       <use style="stroke:#000000;stroke-width:0.8;" x="43.78125" xlink:href="#mac8f3c50d2" y="155.298355"/>
      </g>
     </g>
     <g id="text_14">
      <!-- 0.5 -->
      <defs>
       <path d="M 10.796875 72.90625 
L 49.515625 72.90625 
L 49.515625 64.59375 
L 19.828125 64.59375 
L 19.828125 46.734375 
Q 21.96875 47.46875 24.109375 47.828125 
Q 26.265625 48.1875 28.421875 48.1875 
Q 40.625 48.1875 47.75 41.5 
Q 54.890625 34.8125 54.890625 23.390625 
Q 54.890625 11.625 47.5625 5.09375 
Q 40.234375 -1.421875 26.90625 -1.421875 
Q 22.3125 -1.421875 17.546875 -0.640625 
Q 12.796875 0.140625 7.71875 1.703125 
L 7.71875 11.625 
Q 12.109375 9.234375 16.796875 8.0625 
Q 21.484375 6.890625 26.703125 6.890625 
Q 35.15625 6.890625 40.078125 11.328125 
Q 45.015625 15.765625 45.015625 23.390625 
Q 45.015625 31 40.078125 35.4375 
Q 35.15625 39.890625 26.703125 39.890625 
Q 22.75 39.890625 18.8125 39.015625 
Q 14.890625 38.140625 10.796875 36.28125 
z
" id="DejaVuSans-35"/>
      </defs>
      <g transform="translate(20.878125 159.097574)scale(0.1 -0.1)">
       <use xlink:href="#DejaVuSans-30"/>
       <use x="63.623047" xlink:href="#DejaVuSans-2e"/>
       <use x="95.410156" xlink:href="#DejaVuSans-35"/>
      </g>
     </g>
    </g>
    <g id="ytick_6">
     <g id="line2d_14">
      <g>
       <use style="stroke:#000000;stroke-width:0.8;" x="43.78125" xlink:href="#mac8f3c50d2" y="122.970442"/>
      </g>
     </g>
     <g id="text_15">
      <!-- 0.6 -->
      <g transform="translate(20.878125 126.769661)scale(0.1 -0.1)">
       <use xlink:href="#DejaVuSans-30"/>
       <use x="63.623047" xlink:href="#DejaVuSans-2e"/>
       <use x="95.410156" xlink:href="#DejaVuSans-36"/>
      </g>
     </g>
    </g>
    <g id="ytick_7">
     <g id="line2d_15">
      <g>
       <use style="stroke:#000000;stroke-width:0.8;" x="43.78125" xlink:href="#mac8f3c50d2" y="90.642528"/>
      </g>
     </g>
     <g id="text_16">
      <!-- 0.7 -->
      <defs>
       <path d="M 8.203125 72.90625 
L 55.078125 72.90625 
L 55.078125 68.703125 
L 28.609375 0 
L 18.3125 0 
L 43.21875 64.59375 
L 8.203125 64.59375 
z
" id="DejaVuSans-37"/>
      </defs>
      <g transform="translate(20.878125 94.441747)scale(0.1 -0.1)">
       <use xlink:href="#DejaVuSans-30"/>
       <use x="63.623047" xlink:href="#DejaVuSans-2e"/>
       <use x="95.410156" xlink:href="#DejaVuSans-37"/>
      </g>
     </g>
    </g>
    <g id="ytick_8">
     <g id="line2d_16">
      <g>
       <use style="stroke:#000000;stroke-width:0.8;" x="43.78125" xlink:href="#mac8f3c50d2" y="58.314615"/>
      </g>
     </g>
     <g id="text_17">
      <!-- 0.8 -->
      <g transform="translate(20.878125 62.113834)scale(0.1 -0.1)">
       <use xlink:href="#DejaVuSans-30"/>
       <use x="63.623047" xlink:href="#DejaVuSans-2e"/>
       <use x="95.410156" xlink:href="#DejaVuSans-38"/>
      </g>
     </g>
    </g>
    <g id="ytick_9">
     <g id="line2d_17">
      <g>
       <use style="stroke:#000000;stroke-width:0.8;" x="43.78125" xlink:href="#mac8f3c50d2" y="25.986701"/>
      </g>
     </g>
     <g id="text_18">
      <!-- 0.9 -->
      <defs>
       <path d="M 10.984375 1.515625 
L 10.984375 10.5 
Q 14.703125 8.734375 18.5 7.8125 
Q 22.3125 6.890625 25.984375 6.890625 
Q 35.75 6.890625 40.890625 13.453125 
Q 46.046875 20.015625 46.78125 33.40625 
Q 43.953125 29.203125 39.59375 26.953125 
Q 35.25 24.703125 29.984375 24.703125 
Q 19.046875 24.703125 12.671875 31.3125 
Q 6.296875 37.9375 6.296875 49.421875 
Q 6.296875 60.640625 12.9375 67.421875 
Q 19.578125 74.21875 30.609375 74.21875 
Q 43.265625 74.21875 49.921875 64.515625 
Q 56.59375 54.828125 56.59375 36.375 
Q 56.59375 19.140625 48.40625 8.859375 
Q 40.234375 -1.421875 26.421875 -1.421875 
Q 22.703125 -1.421875 18.890625 -0.6875 
Q 15.09375 0.046875 10.984375 1.515625 
z
M 30.609375 32.421875 
Q 37.25 32.421875 41.125 36.953125 
Q 45.015625 41.5 45.015625 49.421875 
Q 45.015625 57.28125 41.125 61.84375 
Q 37.25 66.40625 30.609375 66.40625 
Q 23.96875 66.40625 20.09375 61.84375 
Q 16.21875 57.28125 16.21875 49.421875 
Q 16.21875 41.5 20.09375 36.953125 
Q 23.96875 32.421875 30.609375 32.421875 
z
" id="DejaVuSans-39"/>
      </defs>
      <g transform="translate(20.878125 29.78592)scale(0.1 -0.1)">
       <use xlink:href="#DejaVuSans-30"/>
       <use x="63.623047" xlink:href="#DejaVuSans-2e"/>
       <use x="95.410156" xlink:href="#DejaVuSans-39"/>
      </g>
     </g>
    </g>
    <g id="text_19">
     <!-- average maxQ -->
     <defs>
      <path d="M 34.28125 27.484375 
Q 23.390625 27.484375 19.1875 25 
Q 14.984375 22.515625 14.984375 16.5 
Q 14.984375 11.71875 18.140625 8.90625 
Q 21.296875 6.109375 26.703125 6.109375 
Q 34.1875 6.109375 38.703125 11.40625 
Q 43.21875 16.703125 43.21875 25.484375 
L 43.21875 27.484375 
z
M 52.203125 31.203125 
L 52.203125 0 
L 43.21875 0 
L 43.21875 8.296875 
Q 40.140625 3.328125 35.546875 0.953125 
Q 30.953125 -1.421875 24.3125 -1.421875 
Q 15.921875 -1.421875 10.953125 3.296875 
Q 6 8.015625 6 15.921875 
Q 6 25.140625 12.171875 29.828125 
Q 18.359375 34.515625 30.609375 34.515625 
L 43.21875 34.515625 
L 43.21875 35.40625 
Q 43.21875 41.609375 39.140625 45 
Q 35.0625 48.390625 27.6875 48.390625 
Q 23 48.390625 18.546875 47.265625 
Q 14.109375 46.140625 10.015625 43.890625 
L 10.015625 52.203125 
Q 14.9375 54.109375 19.578125 55.046875 
Q 24.21875 56 28.609375 56 
Q 40.484375 56 46.34375 49.84375 
Q 52.203125 43.703125 52.203125 31.203125 
z
" id="DejaVuSans-61"/>
      <path d="M 2.984375 54.6875 
L 12.5 54.6875 
L 29.59375 8.796875 
L 46.6875 54.6875 
L 56.203125 54.6875 
L 35.6875 0 
L 23.484375 0 
z
" id="DejaVuSans-76"/>
      <path d="M 41.109375 46.296875 
Q 39.59375 47.171875 37.8125 47.578125 
Q 36.03125 48 33.890625 48 
Q 26.265625 48 22.1875 43.046875 
Q 18.109375 38.09375 18.109375 28.8125 
L 18.109375 0 
L 9.078125 0 
L 9.078125 54.6875 
L 18.109375 54.6875 
L 18.109375 46.1875 
Q 20.953125 51.171875 25.484375 53.578125 
Q 30.03125 56 36.53125 56 
Q 37.453125 56 38.578125 55.875 
Q 39.703125 55.765625 41.0625 55.515625 
z
" id="DejaVuSans-72"/>
      <path d="M 45.40625 27.984375 
Q 45.40625 37.75 41.375 43.109375 
Q 37.359375 48.484375 30.078125 48.484375 
Q 22.859375 48.484375 18.828125 43.109375 
Q 14.796875 37.75 14.796875 27.984375 
Q 14.796875 18.265625 18.828125 12.890625 
Q 22.859375 7.515625 30.078125 7.515625 
Q 37.359375 7.515625 41.375 12.890625 
Q 45.40625 18.265625 45.40625 27.984375 
z
M 54.390625 6.78125 
Q 54.390625 -7.171875 48.1875 -13.984375 
Q 42 -20.796875 29.203125 -20.796875 
Q 24.46875 -20.796875 20.265625 -20.09375 
Q 16.0625 -19.390625 12.109375 -17.921875 
L 12.109375 -9.1875 
Q 16.0625 -11.328125 19.921875 -12.34375 
Q 23.78125 -13.375 27.78125 -13.375 
Q 36.625 -13.375 41.015625 -8.765625 
Q 45.40625 -4.15625 45.40625 5.171875 
L 45.40625 9.625 
Q 42.625 4.78125 38.28125 2.390625 
Q 33.9375 0 27.875 0 
Q 17.828125 0 11.671875 7.65625 
Q 5.515625 15.328125 5.515625 27.984375 
Q 5.515625 40.671875 11.671875 48.328125 
Q 17.828125 56 27.875 56 
Q 33.9375 56 38.28125 53.609375 
Q 42.625 51.21875 45.40625 46.390625 
L 45.40625 54.6875 
L 54.390625 54.6875 
z
" id="DejaVuSans-67"/>
      <path id="DejaVuSans-20"/>
      <path d="M 52 44.1875 
Q 55.375 50.25 60.0625 53.125 
Q 64.75 56 71.09375 56 
Q 79.640625 56 84.28125 50.015625 
Q 88.921875 44.046875 88.921875 33.015625 
L 88.921875 0 
L 79.890625 0 
L 79.890625 32.71875 
Q 79.890625 40.578125 77.09375 44.375 
Q 74.3125 48.1875 68.609375 48.1875 
Q 61.625 48.1875 57.5625 43.546875 
Q 53.515625 38.921875 53.515625 30.90625 
L 53.515625 0 
L 44.484375 0 
L 44.484375 32.71875 
Q 44.484375 40.625 41.703125 44.40625 
Q 38.921875 48.1875 33.109375 48.1875 
Q 26.21875 48.1875 22.15625 43.53125 
Q 18.109375 38.875 18.109375 30.90625 
L 18.109375 0 
L 9.078125 0 
L 9.078125 54.6875 
L 18.109375 54.6875 
L 18.109375 46.1875 
Q 21.1875 51.21875 25.484375 53.609375 
Q 29.78125 56 35.6875 56 
Q 41.65625 56 45.828125 52.96875 
Q 50 49.953125 52 44.1875 
z
" id="DejaVuSans-6d"/>
      <path d="M 54.890625 54.6875 
L 35.109375 28.078125 
L 55.90625 0 
L 45.3125 0 
L 29.390625 21.484375 
L 13.484375 0 
L 2.875 0 
L 24.125 28.609375 
L 4.6875 54.6875 
L 15.28125 54.6875 
L 29.78125 35.203125 
L 44.28125 54.6875 
z
" id="DejaVuSans-78"/>
      <path d="M 39.40625 66.21875 
Q 28.65625 66.21875 22.328125 58.203125 
Q 16.015625 50.203125 16.015625 36.375 
Q 16.015625 22.609375 22.328125 14.59375 
Q 28.65625 6.59375 39.40625 6.59375 
Q 50.140625 6.59375 56.421875 14.59375 
Q 62.703125 22.609375 62.703125 36.375 
Q 62.703125 50.203125 56.421875 58.203125 
Q 50.140625 66.21875 39.40625 66.21875 
z
M 53.21875 1.3125 
L 66.21875 -12.890625 
L 54.296875 -12.890625 
L 43.5 -1.21875 
Q 41.890625 -1.3125 41.03125 -1.359375 
Q 40.1875 -1.421875 39.40625 -1.421875 
Q 24.03125 -1.421875 14.8125 8.859375 
Q 5.609375 19.140625 5.609375 36.375 
Q 5.609375 53.65625 14.8125 63.9375 
Q 24.03125 74.21875 39.40625 74.21875 
Q 54.734375 74.21875 63.90625 63.9375 
Q 73.09375 53.65625 73.09375 36.375 
Q 73.09375 23.6875 67.984375 14.640625 
Q 62.890625 5.609375 53.21875 1.3125 
z
" id="DejaVuSans-51"/>
     </defs>
     <g transform="translate(14.798438 192.263187)rotate(-90)scale(0.1 -0.1)">
      <use xlink:href="#DejaVuSans-61"/>
      <use x="61.279297" xlink:href="#DejaVuSans-76"/>
      <use x="120.458984" xlink:href="#DejaVuSans-65"/>
      <use x="181.982422" xlink:href="#DejaVuSans-72"/>
      <use x="223.095703" xlink:href="#DejaVuSans-61"/>
      <use x="284.375" xlink:href="#DejaVuSans-67"/>
      <use x="347.851562" xlink:href="#DejaVuSans-65"/>
      <use x="409.375" xlink:href="#DejaVuSans-20"/>
      <use x="441.162109" xlink:href="#DejaVuSans-6d"/>
      <use x="538.574219" xlink:href="#DejaVuSans-61"/>
      <use x="599.853516" xlink:href="#DejaVuSans-78"/>
      <use x="659.033203" xlink:href="#DejaVuSans-51"/>
     </g>
    </g>
   </g>
   <g id="line2d_18">
    <path clip-path="url(#pe8e5b73787)" d="M 60.013977 254.678147 
L 60.230558 261.028081 
L 60.447139 259.816078 
L 60.66372 269.696745 
L 60.8803 262.163558 
L 61.096881 241.884213 
L 61.313462 256.926797 
L 61.530043 260.156958 
L 61.746623 252.695575 
L 61.963204 254.140663 
L 62.179785 274.45496 
L 62.612946 248.467162 
L 62.829527 257.378914 
L 63.046108 257.866261 
L 63.262689 260.948227 
L 63.479269 261.706584 
L 63.69585 243.842167 
L 64.345592 262.404378 
L 64.562173 266.468737 
L 64.778754 261.061378 
L 64.995335 264.139417 
L 65.211915 271.460268 
L 65.428496 253.976604 
L 65.645077 257.279599 
L 65.861658 266.764352 
L 66.078238 254.603919 
L 66.294819 250.589651 
L 66.5114 257.2037 
L 66.727981 254.910646 
L 66.944561 256.350715 
L 67.161142 269.185365 
L 67.377723 263.040816 
L 67.594304 268.965849 
L 67.810884 268.108411 
L 68.027465 252.885169 
L 68.244046 265.778176 
L 68.460627 265.888631 
L 68.677207 256.42998 
L 68.893788 235.994563 
L 69.32695 275.598347 
L 69.760111 247.920893 
L 69.976692 259.159432 
L 70.193273 245.9921 
L 70.409853 268.175783 
L 70.626434 269.924108 
L 71.059596 250.55625 
L 71.276176 246.945041 
L 71.925919 265.381829 
L 72.142499 237.081264 
L 72.35908 263.036381 
L 72.575661 264.271239 
L 72.792242 251.4219 
L 73.008822 268.518945 
L 73.441984 253.836464 
L 73.875145 258.264476 
L 74.091726 245.534191 
L 74.308307 266.629931 
L 74.524888 246.062793 
L 74.741468 262.641846 
L 74.958049 250.257076 
L 75.17463 268.448153 
L 75.391211 260.585947 
L 75.607791 262.403175 
L 75.824372 259.73994 
L 76.040953 269.624346 
L 76.257534 267.330476 
L 76.474114 263.598289 
L 76.690695 265.614865 
L 76.907276 252.308128 
L 77.123857 254.622107 
L 77.340437 264.763269 
L 77.557018 261.664967 
L 77.773599 261.459281 
L 77.99018 247.378436 
L 78.20676 276.334125 
L 78.639922 240.163987 
L 78.856503 267.560417 
L 79.073083 257.955785 
L 79.289664 266.642651 
L 79.506245 247.47942 
L 79.722826 258.921741 
L 79.939406 259.140823 
L 80.155987 258.053951 
L 80.372568 258.435917 
L 80.589149 243.837181 
L 80.805729 261.582505 
L 81.02231 255.450323 
L 81.238891 271.713357 
L 81.455472 265.203993 
L 81.672052 246.821711 
L 82.105214 269.277942 
L 82.321795 247.764856 
L 82.538375 246.57589 
L 82.754956 269.608091 
L 82.971537 265.139224 
L 83.188118 265.736911 
L 83.404698 261.141982 
L 83.621279 263.512532 
L 83.83786 256.60457 
L 84.054441 260.839131 
L 84.271021 254.223177 
L 84.487602 256.33869 
L 84.704183 255.736534 
L 84.920764 237.355933 
L 85.137344 259.233767 
L 85.353925 260.974887 
L 85.570506 248.480885 
L 85.787087 252.099494 
L 86.003667 243.723275 
L 86.436829 259.282202 
L 86.86999 250.809042 
L 87.086571 262.212446 
L 87.303152 252.018439 
L 87.519733 256.888738 
L 87.736313 248.314644 
L 87.952894 261.736011 
L 88.169475 244.679041 
L 88.386056 257.994798 
L 88.602636 236.841776 
L 88.819217 255.579711 
L 89.035798 240.565488 
L 89.252379 261.208452 
L 89.468959 255.935385 
L 89.68554 244.443784 
L 89.902121 252.616962 
L 90.118702 246.435446 
L 90.335282 255.560636 
L 90.551863 255.548058 
L 90.768444 253.719501 
L 90.985025 245.758327 
L 91.201605 243.791585 
L 91.418186 252.995165 
L 91.634767 249.540555 
L 91.851348 242.180118 
L 92.067928 257.033363 
L 92.284509 262.383905 
L 92.50109 261.423877 
L 92.717671 244.049701 
L 92.934251 244.969749 
L 93.150832 241.421845 
L 93.367413 250.340624 
L 93.583994 247.039658 
L 93.800574 247.460748 
L 94.017155 247.414663 
L 94.233736 247.047475 
L 94.666897 232.472526 
L 94.883478 237.049366 
L 95.100059 244.795803 
L 95.31664 237.094503 
L 95.53322 245.120302 
L 95.966382 235.32141 
L 96.399543 245.66191 
L 96.616124 237.347511 
L 96.832705 235.723194 
L 97.049286 238.230786 
L 97.265866 235.805705 
L 97.482447 227.769475 
L 97.699028 236.309552 
L 97.915609 239.97061 
L 98.132189 235.07628 
L 98.34877 236.690583 
L 98.565351 230.074566 
L 98.781932 236.200153 
L 98.998512 232.780245 
L 99.215093 243.936423 
L 99.431674 236.268327 
L 99.648255 240.17447 
L 100.081416 241.421429 
L 100.297997 241.148861 
L 100.514578 240.006886 
L 100.731158 230.101073 
L 100.947739 230.823016 
L 101.16432 234.191865 
L 101.380901 228.401157 
L 101.597481 226.201301 
L 101.814062 225.281733 
L 102.030643 236.493786 
L 102.247224 235.537513 
L 102.463804 238.528246 
L 102.680385 226.050287 
L 102.896966 228.082637 
L 103.113547 232.617659 
L 103.330127 233.585372 
L 103.546708 220.958989 
L 103.763289 217.014108 
L 103.97987 228.15268 
L 104.19645 229.729199 
L 104.413031 227.241867 
L 104.629612 227.587701 
L 104.846193 235.009616 
L 105.279354 222.09557 
L 105.495935 228.593819 
L 105.712516 229.291044 
L 105.929096 230.928811 
L 106.145677 221.324771 
L 106.362258 232.865685 
L 106.578839 227.615016 
L 106.795419 214.709541 
L 107.012 233.447589 
L 107.445162 222.124585 
L 107.661742 226.693103 
L 107.878323 216.496806 
L 108.094904 220.956847 
L 108.311485 215.862509 
L 108.744646 219.896138 
L 108.961227 216.203383 
L 109.177808 223.055224 
L 109.394388 217.801872 
L 109.610969 218.539349 
L 109.82755 214.084716 
L 110.044131 216.994133 
L 110.477292 212.02541 
L 110.693873 215.598609 
L 110.910454 211.476068 
L 111.343615 209.504484 
L 111.560196 211.551291 
L 111.776777 216.602225 
L 111.993357 216.424924 
L 112.209938 219.170395 
L 112.426519 207.046749 
L 112.6431 207.995085 
L 112.85968 213.428582 
L 113.076261 212.654059 
L 113.292842 207.571461 
L 113.509423 214.837925 
L 113.726003 211.411315 
L 113.942584 212.669828 
L 114.159165 196.832265 
L 114.375746 212.101386 
L 114.808907 202.495871 
L 115.025488 208.277492 
L 115.458649 203.76813 
L 115.67523 199.983925 
L 115.891811 207.34849 
L 116.108392 205.352563 
L 116.324972 207.760046 
L 116.758134 200.054522 
L 116.974715 202.069329 
L 117.191295 201.292065 
L 117.407876 208.137461 
L 117.624457 201.552522 
L 117.841038 202.956629 
L 118.057618 199.439142 
L 118.274199 202.839539 
L 118.49078 200.145563 
L 118.707361 201.477062 
L 118.923941 200.33481 
L 119.140522 196.81479 
L 119.357103 202.3408 
L 119.573684 192.846932 
L 119.790264 189.503173 
L 120.223426 192.334582 
L 120.440007 198.0423 
L 120.656587 190.390736 
L 120.873168 197.09423 
L 121.089749 195.726141 
L 121.30633 189.728606 
L 121.522911 187.278258 
L 121.739491 192.874848 
L 121.956072 188.961883 
L 122.172653 187.738705 
L 122.389234 189.494368 
L 122.605814 184.698156 
L 122.822395 188.022029 
L 123.038976 182.973498 
L 123.472137 192.996511 
L 123.688718 186.237071 
L 123.905299 185.463455 
L 124.12188 180.708577 
L 124.33846 180.168226 
L 124.555041 177.427342 
L 124.771622 183.198481 
L 124.988203 180.396961 
L 125.204783 183.973978 
L 125.421364 175.975585 
L 125.637945 179.603311 
L 125.854526 179.091774 
L 126.071106 177.302168 
L 126.287687 178.257186 
L 126.504268 184.381058 
L 126.720849 186.137288 
L 126.937429 176.740175 
L 127.15401 182.040621 
L 127.370591 179.471758 
L 127.587172 174.493411 
L 127.803752 181.32401 
L 128.020333 178.223873 
L 128.453495 177.024134 
L 128.670075 171.597943 
L 128.886656 175.009479 
L 129.103237 172.23362 
L 129.319818 175.473361 
L 129.536398 166.097462 
L 129.752979 171.432193 
L 129.96956 170.140101 
L 130.186141 172.01637 
L 130.402721 167.507896 
L 130.619302 171.18956 
L 131.052464 170.35801 
L 131.269044 172.230225 
L 131.485625 176.902461 
L 131.918787 165.947437 
L 132.135367 164.804396 
L 132.351948 172.750706 
L 132.568529 172.32139 
L 132.78511 173.409778 
L 133.00169 165.480284 
L 133.218271 166.425359 
L 133.434852 168.837931 
L 133.868013 160.483686 
L 134.301175 169.130067 
L 134.517756 167.083156 
L 134.734336 162.263586 
L 134.950917 161.402583 
L 135.167498 165.519455 
L 135.384079 165.17661 
L 135.600659 159.811586 
L 135.81724 160.252267 
L 136.250402 161.660193 
L 136.466982 166.763662 
L 136.683563 158.819829 
L 136.900144 160.235091 
L 137.116725 160.178231 
L 137.333305 152.66951 
L 137.549886 153.103458 
L 137.766467 155.22475 
L 137.983048 155.492381 
L 138.199628 150.432469 
L 138.416209 150.683749 
L 138.63279 162.477315 
L 138.849371 153.912468 
L 139.065951 162.048684 
L 139.282532 156.516771 
L 139.499113 156.633315 
L 139.715694 158.265106 
L 139.932274 157.149514 
L 140.148855 150.08683 
L 140.365436 158.763527 
L 140.582017 153.237613 
L 140.798597 156.267487 
L 141.015178 149.908972 
L 141.231759 149.378464 
L 141.44834 149.390702 
L 141.66492 155.481401 
L 142.098082 144.302249 
L 142.314663 156.861058 
L 142.531243 156.182291 
L 142.747824 146.195988 
L 143.180986 148.916173 
L 143.397566 144.262919 
L 143.830728 145.979526 
L 144.047309 149.65407 
L 144.263889 150.13056 
L 144.48047 151.56435 
L 144.697051 150.61485 
L 144.913632 147.174166 
L 145.130212 151.867453 
L 145.346793 135.459762 
L 145.563374 152.72196 
L 145.779955 144.599163 
L 145.996535 152.571614 
L 146.213116 142.838601 
L 146.429697 150.161881 
L 146.646278 146.010164 
L 146.862858 147.094946 
L 147.079439 150.920791 
L 147.29602 145.068693 
L 147.729181 140.871313 
L 147.945762 142.449251 
L 148.162343 138.89593 
L 148.378924 138.371283 
L 148.595504 145.376606 
L 148.812085 142.510795 
L 149.028666 135.459758 
L 149.245247 143.197931 
L 149.461827 141.17372 
L 149.678408 140.42723 
L 149.894989 140.103457 
L 150.11157 141.137326 
L 150.32815 137.235682 
L 150.544731 139.191907 
L 150.761312 142.307716 
L 150.977893 137.51557 
L 151.194473 135.425869 
L 151.411054 136.772449 
L 151.627635 133.170474 
L 151.844216 138.572951 
L 152.060796 140.834411 
L 152.493958 127.129004 
L 152.710539 137.078504 
L 153.1437 140.045176 
L 153.360281 140.673157 
L 153.576862 134.053832 
L 153.793442 138.59257 
L 154.010023 129.671133 
L 154.226604 137.584524 
L 154.443185 123.734808 
L 154.659765 130.192981 
L 154.876346 130.344423 
L 155.092927 134.948089 
L 155.309508 133.506811 
L 155.526088 129.631193 
L 155.742669 128.694288 
L 156.175831 135.891775 
L 156.392411 129.755433 
L 156.608992 128.89322 
L 156.825573 128.80764 
L 157.042154 130.262127 
L 157.258734 134.221417 
L 157.475315 129.243653 
L 157.691896 126.99222 
L 157.908477 127.275461 
L 158.125057 124.845037 
L 158.341638 141.088337 
L 158.558219 123.84845 
L 158.7748 127.190605 
L 158.99138 132.330653 
L 159.207961 128.488274 
L 159.424542 135.562854 
L 159.641123 129.115387 
L 159.857703 134.555946 
L 160.074284 129.511455 
L 160.290865 129.946188 
L 160.507446 128.001823 
L 160.724026 124.271719 
L 161.157188 128.118275 
L 161.373769 117.637595 
L 161.590349 129.833389 
L 161.80693 129.487415 
L 162.023511 128.727096 
L 162.240092 126.629273 
L 162.456672 119.95745 
L 162.673253 124.226059 
L 162.889834 130.888841 
L 163.322995 120.680649 
L 163.539576 128.627507 
L 163.972738 126.51256 
L 164.189318 120.829759 
L 164.405899 124.806358 
L 164.62248 117.259967 
L 164.839061 126.185967 
L 165.272222 118.784737 
L 165.488803 119.568915 
L 165.705384 123.771505 
L 165.921964 119.729476 
L 166.138545 129.523022 
L 166.355126 116.17596 
L 166.571707 125.031392 
L 166.788287 125.628428 
L 167.004868 117.771976 
L 167.221449 115.915579 
L 167.43803 126.646689 
L 167.65461 125.997079 
L 167.871191 118.340584 
L 168.087772 117.244083 
L 168.304353 122.609051 
L 168.520933 122.248808 
L 168.737514 118.892866 
L 168.954095 118.388134 
L 169.170676 124.886768 
L 169.387256 117.228135 
L 169.820418 122.624072 
L 170.036999 116.070834 
L 170.253579 124.669139 
L 170.47016 122.397413 
L 170.903322 112.846008 
L 171.119902 114.815014 
L 171.336483 115.572965 
L 171.553064 118.92716 
L 171.769645 112.009796 
L 171.986225 118.646357 
L 172.202806 118.023735 
L 172.419387 123.44534 
L 172.635968 118.658528 
L 172.852548 124.439604 
L 173.069129 114.979863 
L 173.28571 123.560385 
L 173.502291 120.068792 
L 173.718871 114.3222 
L 174.152033 111.390479 
L 174.368614 109.242974 
L 174.585194 118.247227 
L 174.801775 118.086412 
L 175.018356 113.810824 
L 175.234937 118.516831 
L 175.451517 105.545798 
L 175.668098 117.400663 
L 175.884679 123.15541 
L 176.10126 111.028667 
L 176.31784 110.708019 
L 176.534421 109.844123 
L 176.751002 108.062294 
L 176.967583 114.322047 
L 177.184163 116.450213 
L 177.400744 107.040283 
L 177.617325 113.799256 
L 177.833906 101.318075 
L 178.050486 109.428551 
L 178.267067 109.534474 
L 178.483648 108.879611 
L 178.700229 111.786248 
L 178.916809 112.215809 
L 179.13339 110.547942 
L 179.349971 104.889185 
L 179.566552 107.698531 
L 179.783132 103.521395 
L 179.999713 113.053507 
L 180.216294 116.036444 
L 180.432875 108.916547 
L 180.649455 111.922528 
L 181.082617 107.229605 
L 181.515778 108.200912 
L 181.732359 106.091542 
L 181.94894 105.166491 
L 182.382101 112.238751 
L 182.598682 103.070647 
L 182.815263 115.682593 
L 183.031844 112.164421 
L 183.248424 105.593533 
L 183.465005 90.311328 
L 183.898167 110.290617 
L 184.114747 102.348024 
L 184.331328 99.583872 
L 184.547909 109.088312 
L 184.76449 103.148688 
L 184.98107 103.902897 
L 185.197651 108.711525 
L 185.414232 103.65595 
L 185.630813 101.246152 
L 185.847393 108.004424 
L 186.063974 98.706341 
L 186.280555 100.773076 
L 186.497136 107.190294 
L 186.713716 108.891345 
L 186.930297 108.731991 
L 187.363459 96.449467 
L 187.580039 106.9479 
L 187.79662 99.74811 
L 188.013201 102.677733 
L 188.229782 111.015932 
L 188.662943 98.859817 
L 188.879524 106.636143 
L 189.096105 100.214826 
L 189.312686 101.785561 
L 189.529266 105.242035 
L 189.745847 103.265638 
L 189.962428 87.932218 
L 190.179009 108.736405 
L 190.395589 94.292306 
L 190.61217 102.933887 
L 190.828751 105.852231 
L 191.045332 100.450774 
L 191.478493 96.735755 
L 191.695074 93.135787 
L 191.911655 104.074775 
L 192.128235 94.410817 
L 192.344816 93.822944 
L 192.561397 102.505675 
L 192.777978 100.010718 
L 192.994558 102.232482 
L 193.211139 102.558585 
L 193.42772 103.894536 
L 193.860881 99.58265 
L 194.077462 93.760923 
L 194.294043 84.538626 
L 194.510624 100.602914 
L 194.943785 99.685197 
L 195.160366 90.98126 
L 195.593527 104.072819 
L 196.026689 87.867895 
L 196.24327 101.32712 
L 196.45985 88.611188 
L 196.676431 92.836129 
L 196.893012 91.686839 
L 197.109593 93.206296 
L 197.542754 90.453873 
L 197.975916 100.414278 
L 198.625658 90.58638 
L 198.842239 100.896504 
L 199.058819 83.646223 
L 199.2754 95.157444 
L 199.491981 92.990875 
L 199.708562 88.456494 
L 199.925142 90.119162 
L 200.141723 90.674401 
L 200.358304 92.99493 
L 200.791465 100.567581 
L 201.008046 91.985135 
L 201.224627 92.136083 
L 201.441208 95.903134 
L 201.657788 85.999441 
L 201.874369 101.657473 
L 202.09095 92.931168 
L 202.524111 97.669845 
L 202.740692 92.770228 
L 202.957273 99.90562 
L 203.173854 87.355984 
L 203.390434 94.095677 
L 203.607015 95.877719 
L 203.823596 94.651325 
L 204.040177 86.824872 
L 204.256757 90.990829 
L 204.473338 85.917207 
L 204.689919 93.849273 
L 204.9065 86.287103 
L 205.12308 88.4789 
L 205.556242 84.956415 
L 205.772823 95.245349 
L 205.989403 88.059575 
L 206.205984 88.676195 
L 206.422565 92.306264 
L 206.639146 90.171119 
L 206.855726 93.047902 
L 207.072307 91.539321 
L 207.288888 92.372657 
L 207.505469 94.399405 
L 207.722049 88.851949 
L 207.93863 94.215497 
L 208.155211 92.401758 
L 208.371792 82.521562 
L 208.804953 91.760405 
L 209.021534 95.756259 
L 209.238115 83.045771 
L 209.671276 91.209654 
L 209.887857 97.567543 
L 210.104438 91.444137 
L 210.321018 89.337169 
L 210.537599 95.743178 
L 210.75418 86.369683 
L 210.970761 93.23407 
L 211.187341 93.11587 
L 211.403922 84.120381 
L 211.620503 93.075127 
L 211.837084 91.744602 
L 212.053664 86.823623 
L 212.270245 91.097291 
L 212.486826 90.507015 
L 212.703407 88.221969 
L 212.919987 91.708594 
L 213.136568 69.028315 
L 213.56973 90.698136 
L 213.78631 77.109833 
L 214.002891 93.300273 
L 214.219472 89.805461 
L 214.436053 89.406181 
L 214.652633 81.163069 
L 214.869214 89.665859 
L 215.302376 83.899357 
L 215.518956 89.236128 
L 215.735537 87.523369 
L 215.952118 99.180338 
L 216.168699 86.687336 
L 216.385279 86.710387 
L 216.60186 89.072637 
L 216.818441 87.874212 
L 217.035022 84.165184 
L 217.251602 84.626404 
L 217.468183 83.10653 
L 217.684764 90.807048 
L 217.901345 93.675949 
L 218.117925 86.095683 
L 218.334506 88.002716 
L 218.551087 94.334203 
L 218.767668 86.422041 
L 218.984248 85.803131 
L 219.200829 83.948241 
L 219.41741 91.239986 
L 219.850571 83.519435 
L 220.067152 80.510826 
L 220.283733 86.152314 
L 220.500314 82.15333 
L 220.716894 88.120432 
L 220.933475 84.810339 
L 221.150056 89.686453 
L 221.366637 78.350926 
L 221.583217 77.451213 
L 221.799798 85.933563 
L 222.016379 75.452254 
L 222.44954 87.413009 
L 222.882702 75.393359 
L 223.315863 84.106673 
L 223.749025 82.792735 
L 224.182186 79.134481 
L 224.398767 89.565098 
L 224.615348 89.914012 
L 225.048509 72.346019 
L 225.26509 69.952092 
L 225.481671 78.128977 
L 225.698252 77.0914 
L 225.914832 84.795489 
L 226.131413 80.899044 
L 226.347994 84.876217 
L 226.564575 77.930128 
L 226.781155 75.679744 
L 226.997736 80.367609 
L 227.430898 84.093843 
L 227.647478 69.906284 
L 227.864059 75.388732 
L 228.08064 71.470077 
L 228.297221 74.624833 
L 228.513801 85.467518 
L 228.730382 77.297568 
L 228.946963 81.687955 
L 229.163544 77.543399 
L 229.380124 76.169189 
L 229.596705 79.726751 
L 229.813286 78.470078 
L 230.029867 74.364301 
L 230.246447 87.281241 
L 230.463028 78.986218 
L 230.679609 84.222682 
L 230.89619 92.684138 
L 231.11277 83.858233 
L 231.329351 83.937867 
L 231.545932 81.717482 
L 231.762513 74.93295 
L 231.979093 77.315334 
L 232.195674 82.417885 
L 232.412255 80.600965 
L 232.628836 74.120505 
L 232.845416 71.068474 
L 233.061997 79.636924 
L 233.278578 77.315528 
L 233.495159 66.879797 
L 233.711739 74.920944 
L 233.92832 72.481522 
L 234.144901 76.022598 
L 234.361482 73.529003 
L 234.578062 74.221065 
L 234.794643 77.873883 
L 235.011224 75.969489 
L 235.227805 76.321706 
L 235.444385 80.713392 
L 235.660966 82.271997 
L 235.877547 75.180181 
L 236.094128 78.633748 
L 236.310708 68.203217 
L 236.527289 82.081579 
L 236.74387 81.583374 
L 236.960451 83.562354 
L 237.177031 76.236796 
L 237.393612 76.04501 
L 237.610193 77.221429 
L 237.826774 80.584439 
L 238.043354 69.220309 
L 238.259935 74.587038 
L 238.476516 76.474436 
L 238.693097 73.684725 
L 238.909677 77.439676 
L 239.342839 70.966087 
L 239.55942 74.052249 
L 239.776 81.205118 
L 239.992581 78.477869 
L 240.209162 80.184763 
L 240.425743 78.159541 
L 240.642323 73.219278 
L 240.858904 71.34994 
L 241.075485 82.752333 
L 241.292066 74.683731 
L 241.508646 77.075016 
L 241.725227 75.633275 
L 241.941808 80.420176 
L 242.374969 67.041316 
L 242.59155 76.889371 
L 242.808131 73.900676 
L 243.024712 79.385654 
L 243.241292 73.55565 
L 243.457873 75.565849 
L 243.891035 71.590687 
L 244.107615 72.718514 
L 244.324196 72.768462 
L 244.540777 71.685085 
L 244.757358 83.607188 
L 244.973938 73.058017 
L 245.190519 75.301395 
L 245.4071 70.283024 
L 245.623681 76.718692 
L 245.840261 68.664204 
L 246.056842 76.056975 
L 246.273423 74.22273 
L 246.490004 68.291268 
L 246.923165 73.811573 
L 247.139746 67.068616 
L 247.356327 78.734134 
L 247.789488 72.526114 
L 248.006069 74.81859 
L 248.43923 66.938849 
L 248.655811 73.830398 
L 248.872392 68.236148 
L 249.088973 75.223269 
L 249.305553 73.675036 
L 249.522134 66.743859 
L 249.738715 81.328151 
L 250.171876 66.62253 
L 250.388457 67.322037 
L 250.605038 73.062569 
L 250.821619 69.99317 
L 251.25478 67.817761 
L 251.687942 79.125124 
L 252.121103 66.516596 
L 252.337684 62.996763 
L 252.770845 76.533855 
L 253.420588 62.800913 
L 253.637168 74.866849 
L 253.853749 78.354812 
L 254.07033 68.086317 
L 254.286911 67.256211 
L 254.503491 62.47202 
L 254.720072 63.782765 
L 254.936653 72.616736 
L 255.153234 69.737171 
L 255.369814 80.093282 
L 255.586395 67.462956 
L 255.802976 69.75506 
L 256.019557 75.168618 
L 256.669299 64.397906 
L 256.88588 62.173026 
L 257.319041 69.447988 
L 257.535622 68.322985 
L 257.752203 74.208845 
L 257.968784 70.27368 
L 258.185364 72.11321 
L 258.401945 70.243078 
L 258.618526 73.156309 
L 259.051687 69.666399 
L 259.268268 75.312715 
L 259.484849 71.545076 
L 259.70143 69.939176 
L 259.91801 73.998187 
L 260.134591 73.785225 
L 260.567753 47.44944 
L 260.784333 73.241086 
L 261.000914 73.25026 
L 261.217495 66.421023 
L 261.650656 74.797808 
L 262.083818 70.556 
L 262.300399 71.486663 
L 262.516979 71.377385 
L 262.73356 64.721234 
L 262.950141 71.007404 
L 263.166722 72.515305 
L 263.383302 56.673076 
L 263.816464 75.067402 
L 264.033045 62.892343 
L 264.249625 61.325436 
L 264.466206 65.757536 
L 264.682787 72.667266 
L 264.899368 75.132354 
L 265.332529 67.133088 
L 265.54911 64.507233 
L 265.765691 70.482125 
L 265.982271 66.549502 
L 266.415433 72.293049 
L 266.632014 77.774873 
L 267.065175 67.687417 
L 267.281756 69.381743 
L 267.498337 68.947575 
L 267.714917 73.463959 
L 267.931498 66.702384 
L 268.148079 67.377559 
L 268.36466 59.149047 
L 268.58124 73.390836 
L 268.797821 63.399293 
L 269.664144 69.807125 
L 269.880725 62.793004 
L 270.097306 65.058409 
L 270.313886 57.285035 
L 270.530467 64.14163 
L 270.747048 64.443914 
L 270.963629 68.180163 
L 271.180209 58.590469 
L 271.39679 58.668572 
L 271.613371 69.658038 
L 271.829952 69.781516 
L 272.046532 70.065214 
L 272.263113 75.746085 
L 272.696275 63.469175 
L 272.912855 69.015449 
L 273.346017 60.378734 
L 273.562598 62.196719 
L 273.779178 66.407011 
L 273.995759 67.474231 
L 274.428921 64.44893 
L 274.645501 64.695306 
L 275.078663 68.884967 
L 275.295244 78.600592 
L 275.511824 59.514043 
L 275.728405 64.841714 
L 275.944986 64.181975 
L 276.161567 62.138763 
L 276.378147 68.846492 
L 276.594728 66.137262 
L 276.811309 61.231929 
L 277.02789 64.190364 
L 277.24447 64.515619 
L 277.461051 57.297191 
L 277.677632 66.874182 
L 277.894213 87.13495 
L 278.110793 62.191491 
L 278.327374 69.047408 
L 278.760536 55.81304 
L 278.977116 62.730386 
L 279.410278 64.989057 
L 279.843439 62.286935 
L 280.06002 54.77861 
L 280.276601 55.021437 
L 280.493182 62.174302 
L 280.709762 58.180863 
L 280.926343 66.199411 
L 281.142924 57.236403 
L 281.359505 56.579292 
L 281.792666 62.700495 
L 282.009247 63.431621 
L 282.225828 57.270168 
L 282.442408 60.445662 
L 282.658989 59.743013 
L 283.092151 76.806313 
L 283.308731 51.672078 
L 283.525312 80.868321 
L 283.741893 59.661457 
L 283.958474 59.202192 
L 284.175054 53.939941 
L 284.391635 71.473036 
L 284.824797 54.247314 
L 285.041377 67.602092 
L 285.257958 67.973002 
L 285.474539 66.670284 
L 285.9077 68.260185 
L 286.124281 60.15422 
L 286.340862 58.254082 
L 286.557443 66.282047 
L 286.774023 55.291263 
L 286.990604 61.025088 
L 287.207185 54.41502 
L 287.423766 62.114946 
L 287.640346 62.612818 
L 287.856927 63.793337 
L 288.073508 63.175855 
L 288.290089 79.211115 
L 288.506669 62.121657 
L 288.939831 55.82242 
L 289.156412 60.688561 
L 289.372992 53.57638 
L 289.589573 68.720899 
L 289.806154 72.334559 
L 290.239315 55.618468 
L 290.672477 61.962042 
L 290.889058 56.626413 
L 291.105638 61.889974 
L 291.5388 58.930712 
L 291.755381 68.209527 
L 292.188542 64.942263 
L 292.405123 67.987782 
L 292.621704 55.82387 
L 292.838284 58.963666 
L 293.054865 58.999662 
L 293.271446 60.417761 
L 293.488027 59.756931 
L 293.704607 57.861412 
L 293.921188 57.38195 
L 294.137769 63.93872 
L 294.35435 63.791358 
L 294.57093 68.229293 
L 294.787511 52.839691 
L 295.004092 61.919356 
L 295.220673 50.880559 
L 295.437253 52.960513 
L 295.870415 70.510188 
L 296.303576 53.337254 
L 296.736738 55.752928 
L 297.169899 79.833152 
L 297.38648 56.482739 
L 297.603061 52.830906 
L 297.819642 61.317687 
L 298.036222 56.596164 
L 298.252803 62.617591 
L 298.469384 46.054884 
L 298.685965 64.022285 
L 298.902545 70.449625 
L 299.119126 57.020679 
L 299.335707 56.354097 
L 299.552288 58.8944 
L 299.768868 69.831309 
L 299.985449 57.71447 
L 300.20203 69.326331 
L 300.418611 58.596233 
L 300.635191 70.741931 
L 300.851772 58.244489 
L 301.068353 53.6967 
L 301.284934 55.600116 
L 301.718095 64.228994 
L 302.151257 58.781598 
L 302.367837 69.09204 
L 302.584418 65.884499 
L 302.800999 69.331977 
L 303.01758 54.285162 
L 303.23416 65.89993 
L 303.450741 60.802459 
L 303.667322 75.616996 
L 303.883903 55.259969 
L 304.100483 62.077159 
L 304.317064 56.520915 
L 304.533645 61.866879 
L 304.750226 48.082787 
L 305.183387 66.442576 
L 305.616549 56.700457 
L 305.833129 73.605297 
L 306.04971 54.679519 
L 306.266291 57.49165 
L 306.482872 57.210037 
L 306.699452 60.945741 
L 306.916033 55.40727 
L 307.132614 66.033717 
L 307.349195 56.008469 
L 307.565775 56.063091 
L 307.782356 75.108237 
L 307.998937 53.58699 
L 308.215518 68.100057 
L 308.432098 71.824336 
L 308.648679 68.971423 
L 308.86526 57.137095 
L 309.081841 57.228065 
L 309.298421 55.113607 
L 309.515002 54.685818 
L 309.731583 66.302585 
L 309.948164 54.584132 
L 310.381325 65.149265 
L 310.597906 68.061529 
L 310.814487 51.642063 
L 311.031067 63.415267 
L 311.247648 56.949379 
L 311.464229 55.17516 
L 311.89739 67.088393 
L 312.113971 67.185329 
L 312.330552 60.244666 
L 312.547133 60.795252 
L 312.763713 64.97796 
L 312.980294 56.134349 
L 313.196875 69.698442 
L 313.413456 53.965607 
L 313.630036 60.814586 
L 313.846617 60.746684 
L 314.063198 55.994633 
L 314.496359 67.901454 
L 314.71294 65.542537 
L 314.929521 56.241456 
L 315.146102 55.132787 
L 315.579263 58.573336 
L 315.795844 63.113536 
L 316.229005 53.834872 
L 316.445586 59.189264 
L 316.662167 59.345884 
L 316.878748 60.952684 
L 317.095328 64.502256 
L 317.311909 58.161941 
L 317.52849 59.514106 
L 317.745071 63.828729 
L 317.961651 53.268388 
L 318.178232 51.825299 
L 318.394813 61.537096 
L 318.611394 59.786539 
L 318.827974 53.999049 
L 319.044555 64.272343 
L 319.261136 58.019107 
L 319.477717 56.389145 
L 319.694297 57.322742 
L 319.910878 56.163721 
L 320.127459 54.02354 
L 320.34404 65.543613 
L 320.56062 65.954876 
L 320.777201 51.770478 
L 320.993782 47.837502 
L 321.426943 56.264172 
L 321.643524 50.718934 
L 322.076686 66.27186 
L 322.726428 52.093183 
L 323.37617 59.02692 
L 323.592751 68.387496 
L 323.809332 59.21195 
L 324.242493 53.949329 
L 324.459074 48.045929 
L 324.675655 56.126969 
L 325.108816 50.966281 
L 325.541978 58.023939 
L 325.758559 52.888295 
L 325.975139 56.235352 
L 326.408301 52.027346 
L 326.624882 55.134199 
L 326.841462 52.896244 
L 327.274624 57.67166 
L 327.491205 52.156626 
L 327.707785 57.839382 
L 327.924366 58.44927 
L 328.140947 53.939186 
L 328.357528 57.117767 
L 328.574108 48.318781 
L 329.00727 58.336505 
L 329.223851 55.870479 
L 329.440431 58.569516 
L 329.657012 59.08177 
L 329.873593 49.552354 
L 330.090174 52.627111 
L 330.306754 51.673521 
L 330.523335 61.412164 
L 330.739916 52.445894 
L 330.956497 59.273859 
L 331.173077 53.861594 
L 331.389658 65.300796 
L 331.606239 56.744813 
L 331.82282 55.031287 
L 332.0394 47.964419 
L 332.255981 50.184974 
L 332.472562 50.345435 
L 332.689143 59.196393 
L 332.905723 56.982699 
L 333.122304 51.512308 
L 333.338885 59.377909 
L 333.555466 51.888891 
L 333.772046 55.817398 
L 333.988627 55.22544 
L 334.205208 57.889889 
L 334.421789 59.028025 
L 334.638369 61.39973 
L 334.85495 52.973352 
L 335.071531 59.795401 
L 335.288112 50.486963 
L 335.504692 59.325486 
L 335.721273 52.243002 
L 335.937854 58.234349 
L 336.154435 59.558748 
L 336.371015 54.870353 
L 336.587596 53.656848 
L 336.804177 47.128513 
L 337.020758 55.204949 
L 337.237338 54.05713 
L 337.453919 48.564286 
L 337.6705 57.227634 
L 337.887081 49.256391 
L 338.103661 50.202373 
L 338.536823 57.226296 
L 338.753404 50.69507 
L 338.969984 59.154045 
L 339.186565 53.519925 
L 339.403146 52.458077 
L 339.619727 58.220642 
L 339.836307 50.06256 
L 340.052888 49.986719 
L 340.48605 56.381318 
L 340.70263 56.160257 
L 340.919211 50.437768 
L 341.135792 54.534403 
L 341.352373 46.157987 
L 341.568953 55.841142 
L 341.785534 52.816323 
L 342.002115 43.156244 
L 342.218696 56.499857 
L 342.651857 49.72674 
L 342.868438 49.076916 
L 343.301599 56.458619 
L 343.51818 59.9411 
L 343.734761 56.044208 
L 343.951342 48.584743 
L 344.167922 53.817876 
L 344.384503 51.248555 
L 344.601084 55.761624 
L 344.817665 51.561095 
L 345.034245 52.169911 
L 345.250826 53.429733 
L 345.467407 59.586122 
L 345.683988 51.320788 
L 345.900568 57.320657 
L 346.117149 54.138337 
L 346.33373 48.33713 
L 346.550311 49.867362 
L 346.766891 57.058196 
L 346.983472 59.281515 
L 347.416634 49.355223 
L 347.633214 55.385466 
L 347.849795 53.41601 
L 348.066376 53.164838 
L 348.282957 56.458024 
L 348.499537 49.157657 
L 348.716118 51.328601 
L 348.932699 50.644312 
L 349.14928 48.999623 
L 349.582441 59.484084 
L 349.799022 49.37368 
L 350.015603 51.77949 
L 350.232183 55.474152 
L 350.448764 50.461834 
L 350.665345 52.84258 
L 350.881926 49.028276 
L 351.098506 53.412234 
L 351.315087 52.935339 
L 351.531668 53.214415 
L 351.748249 48.456269 
L 351.964829 51.427265 
L 352.18141 50.131383 
L 352.397991 50.676644 
L 352.614572 50.652336 
L 352.831152 51.428066 
L 353.047733 52.875915 
L 353.264314 51.599383 
L 353.480895 49.242043 
L 353.914056 53.064328 
L 354.130637 47.744646 
L 354.347218 46.534778 
L 354.563798 52.732282 
L 354.780379 51.841656 
L 354.99696 40.539605 
L 355.213541 50.025891 
L 355.430121 49.004386 
L 355.646702 49.142552 
L 355.863283 50.777988 
L 356.079864 44.850217 
L 356.296444 52.101915 
L 356.946187 47.350304 
L 357.162767 51.01253 
L 357.379348 52.784604 
L 357.81251 47.332916 
L 358.02909 54.341921 
L 358.245671 44.912614 
L 358.462252 46.024712 
L 358.678833 51.441543 
L 358.895413 42.843977 
L 359.328575 53.641025 
L 359.545156 53.330988 
L 359.761736 48.323248 
L 359.978317 50.906752 
L 360.194898 43.919642 
L 360.628059 50.569481 
L 360.84464 50.399953 
L 361.061221 47.255682 
L 361.277802 52.663766 
L 361.494382 43.54852 
L 361.710963 50.920827 
L 361.927544 48.170695 
L 362.144125 51.623878 
L 362.360705 51.941328 
L 362.577286 50.282834 
L 362.793867 54.114138 
L 363.010448 49.902015 
L 363.227028 51.935957 
L 363.443609 48.587055 
L 363.66019 51.839141 
L 363.876771 46.816174 
L 364.093351 51.626617 
L 364.309932 48.751945 
L 364.526513 36.008628 
L 364.743094 47.905769 
L 364.959674 51.760723 
L 365.176255 47.629317 
L 365.392836 46.294251 
L 365.609417 53.953517 
L 365.825997 48.107631 
L 366.042578 45.889495 
L 366.259159 45.958548 
L 366.47574 46.54372 
L 366.69232 40.566532 
L 366.908901 49.466957 
L 367.125482 45.043325 
L 367.342063 47.13387 
L 367.558643 46.448 
L 367.775224 44.785468 
L 367.991805 44.313716 
L 368.208386 49.648038 
L 368.424966 41.226912 
L 368.641547 40.317175 
L 368.858128 40.134649 
L 369.074709 46.133038 
L 369.291289 44.704136 
L 369.50787 49.605219 
L 369.724451 39.99404 
L 369.941032 51.344235 
L 370.157612 41.660581 
L 370.374193 46.805995 
L 370.590774 44.618373 
L 370.807355 50.051597 
L 371.023935 49.149669 
L 371.240516 43.926109 
L 371.457097 43.920688 
L 371.673678 44.423291 
L 371.890258 35.017291 
L 372.106839 44.9999 
L 372.32342 48.019515 
L 372.540001 46.170129 
L 372.756581 42.705817 
L 372.973162 47.441793 
L 373.189743 49.138274 
L 373.406324 36.061415 
L 373.622904 38.026956 
L 374.056066 49.748022 
L 374.272647 45.835735 
L 374.489227 48.144117 
L 374.705808 48.082799 
L 374.922389 47.354443 
L 375.13897 38.216709 
L 375.35555 47.419429 
L 375.572131 40.450796 
L 375.788712 44.863491 
L 376.005293 42.428927 
L 376.221873 45.495599 
L 376.438454 42.54909 
L 376.655035 45.18112 
L 376.871616 44.271851 
L 377.088196 47.707523 
L 377.304777 41.605593 
L 377.521358 43.575205 
L 377.737939 37.539555 
L 377.954519 45.455528 
L 378.1711 40.203122 
L 378.387681 39.741496 
L 378.604262 50.384181 
L 378.820842 44.602798 
L 379.037423 47.174942 
L 379.254004 46.565998 
L 379.470585 39.821998 
L 379.687165 41.543323 
L 379.903746 42.256183 
L 380.120327 43.913407 
L 380.336908 43.328931 
L 380.553488 43.768756 
L 380.770069 46.077093 
L 380.98665 46.340188 
L 381.203231 45.821431 
L 381.419811 41.020501 
L 381.636392 45.214176 
L 381.852973 44.847812 
L 382.069554 34.414125 
L 382.286134 44.644061 
L 382.502715 39.299122 
L 382.719296 39.672491 
L 382.935877 40.355746 
L 383.152457 44.818943 
L 383.369038 42.288519 
L 383.585619 41.843478 
L 383.8022 34.595815 
L 384.01878 46.043784 
L 384.235361 46.914497 
L 384.451942 42.771815 
L 384.668523 41.192611 
L 384.668523 41.192611 
" style="fill:none;stroke:#1f77b4;stroke-linecap:square;stroke-width:0.5;"/>
   </g>
   <g id="patch_3">
    <path d="M 43.78125 288.430125 
L 43.78125 22.318125 
" style="fill:none;stroke:#000000;stroke-linecap:square;stroke-linejoin:miter;stroke-width:0.8;"/>
   </g>
   <g id="patch_4">
    <path d="M 400.90125 288.430125 
L 400.90125 22.318125 
" style="fill:none;stroke:#000000;stroke-linecap:square;stroke-linejoin:miter;stroke-width:0.8;"/>
   </g>
   <g id="patch_5">
    <path d="M 43.78125 288.430125 
L 400.90125 288.430125 
" style="fill:none;stroke:#000000;stroke-linecap:square;stroke-linejoin:miter;stroke-width:0.8;"/>
   </g>
   <g id="patch_6">
    <path d="M 43.78125 22.318125 
L 400.90125 22.318125 
" style="fill:none;stroke:#000000;stroke-linecap:square;stroke-linejoin:miter;stroke-width:0.8;"/>
   </g>
   <g id="text_20">
    <!-- Average maxQ per episode, joint 2 -->
    <defs>
     <path d="M 34.1875 63.1875 
L 20.796875 26.90625 
L 47.609375 26.90625 
z
M 28.609375 72.90625 
L 39.796875 72.90625 
L 67.578125 0 
L 57.328125 0 
L 50.6875 18.703125 
L 17.828125 18.703125 
L 11.1875 0 
L 0.78125 0 
z
" id="DejaVuSans-41"/>
     <path d="M 11.71875 12.40625 
L 22.015625 12.40625 
L 22.015625 4 
L 14.015625 -11.625 
L 7.71875 -11.625 
L 11.71875 4 
z
" id="DejaVuSans-2c"/>
     <path d="M 9.421875 54.6875 
L 18.40625 54.6875 
L 18.40625 -0.984375 
Q 18.40625 -11.421875 14.421875 -16.109375 
Q 10.453125 -20.796875 1.609375 -20.796875 
L -1.8125 -20.796875 
L -1.8125 -13.1875 
L 0.59375 -13.1875 
Q 5.71875 -13.1875 7.5625 -10.8125 
Q 9.421875 -8.453125 9.421875 -0.984375 
z
M 9.421875 75.984375 
L 18.40625 75.984375 
L 18.40625 64.59375 
L 9.421875 64.59375 
z
" id="DejaVuSans-6a"/>
     <path d="M 54.890625 33.015625 
L 54.890625 0 
L 45.90625 0 
L 45.90625 32.71875 
Q 45.90625 40.484375 42.875 44.328125 
Q 39.84375 48.1875 33.796875 48.1875 
Q 26.515625 48.1875 22.3125 43.546875 
Q 18.109375 38.921875 18.109375 30.90625 
L 18.109375 0 
L 9.078125 0 
L 9.078125 54.6875 
L 18.109375 54.6875 
L 18.109375 46.1875 
Q 21.34375 51.125 25.703125 53.5625 
Q 30.078125 56 35.796875 56 
Q 45.21875 56 50.046875 50.171875 
Q 54.890625 44.34375 54.890625 33.015625 
z
" id="DejaVuSans-6e"/>
     <path d="M 18.3125 70.21875 
L 18.3125 54.6875 
L 36.8125 54.6875 
L 36.8125 47.703125 
L 18.3125 47.703125 
L 18.3125 18.015625 
Q 18.3125 11.328125 20.140625 9.421875 
Q 21.96875 7.515625 27.59375 7.515625 
L 36.8125 7.515625 
L 36.8125 0 
L 27.59375 0 
Q 17.1875 0 13.234375 3.875 
Q 9.28125 7.765625 9.28125 18.015625 
L 9.28125 47.703125 
L 2.6875 47.703125 
L 2.6875 54.6875 
L 9.28125 54.6875 
L 9.28125 70.21875 
z
" id="DejaVuSans-74"/>
    </defs>
    <g transform="translate(117.706875 16.318125)scale(0.12 -0.12)">
     <use xlink:href="#DejaVuSans-41"/>
     <use x="68.330078" xlink:href="#DejaVuSans-76"/>
     <use x="127.509766" xlink:href="#DejaVuSans-65"/>
     <use x="189.033203" xlink:href="#DejaVuSans-72"/>
     <use x="230.146484" xlink:href="#DejaVuSans-61"/>
     <use x="291.425781" xlink:href="#DejaVuSans-67"/>
     <use x="354.902344" xlink:href="#DejaVuSans-65"/>
     <use x="416.425781" xlink:href="#DejaVuSans-20"/>
     <use x="448.212891" xlink:href="#DejaVuSans-6d"/>
     <use x="545.625" xlink:href="#DejaVuSans-61"/>
     <use x="606.904297" xlink:href="#DejaVuSans-78"/>
     <use x="666.083984" xlink:href="#DejaVuSans-51"/>
     <use x="744.794922" xlink:href="#DejaVuSans-20"/>
     <use x="776.582031" xlink:href="#DejaVuSans-70"/>
     <use x="840.058594" xlink:href="#DejaVuSans-65"/>
     <use x="901.582031" xlink:href="#DejaVuSans-72"/>
     <use x="942.695312" xlink:href="#DejaVuSans-20"/>
     <use x="974.482422" xlink:href="#DejaVuSans-65"/>
     <use x="1036.005859" xlink:href="#DejaVuSans-70"/>
     <use x="1099.482422" xlink:href="#DejaVuSans-69"/>
     <use x="1127.265625" xlink:href="#DejaVuSans-73"/>
     <use x="1179.365234" xlink:href="#DejaVuSans-6f"/>
     <use x="1240.546875" xlink:href="#DejaVuSans-64"/>
     <use x="1304.023438" xlink:href="#DejaVuSans-65"/>
     <use x="1365.546875" xlink:href="#DejaVuSans-2c"/>
     <use x="1397.333984" xlink:href="#DejaVuSans-20"/>
     <use x="1429.121094" xlink:href="#DejaVuSans-6a"/>
     <use x="1456.904297" xlink:href="#DejaVuSans-6f"/>
     <use x="1518.085938" xlink:href="#DejaVuSans-69"/>
     <use x="1545.869141" xlink:href="#DejaVuSans-6e"/>
     <use x="1609.248047" xlink:href="#DejaVuSans-74"/>
     <use x="1648.457031" xlink:href="#DejaVuSans-20"/>
     <use x="1680.244141" xlink:href="#DejaVuSans-32"/>
    </g>
   </g>
  </g>
 </g>
 <defs>
  <clipPath id="pe8e5b73787">
   <rect height="266.112" width="357.12" x="43.78125" y="22.318125"/>
  </clipPath>
 </defs>
</svg>
