<?xml version="1.0" encoding="utf-8" standalone="no"?>
<!DOCTYPE svg PUBLIC "-//W3C//DTD SVG 1.1//EN"
  "http://www.w3.org/Graphics/SVG/1.1/DTD/svg11.dtd">
<!-- Created with matplotlib (http://matplotlib.org/) -->
<svg height="325pt" version="1.1" viewBox="0 0 411 325" width="411pt" xmlns="http://www.w3.org/2000/svg" xmlns:xlink="http://www.w3.org/1999/xlink">
 <defs>
  <style type="text/css">
*{stroke-linecap:butt;stroke-linejoin:round;}
  </style>
 </defs>
 <g id="figure_1">
  <g id="patch_1">
   <path d="M 0 325.986375 
L 411.60125 325.986375 
L 411.60125 0 
L 0 0 
z
" style="fill:#ffffff;"/>
  </g>
  <g id="axes_1">
   <g id="patch_2">
    <path d="M 43.78125 288.430125 
L 400.90125 288.430125 
L 400.90125 22.318125 
L 43.78125 22.318125 
z
" style="fill:#ffffff;"/>
   </g>
   <g id="matplotlib.axis_1">
    <g id="xtick_1">
     <g id="line2d_1">
      <defs>
       <path d="M 0 0 
L 0 3.5 
" id="m0b987d7b93" style="stroke:#000000;stroke-width:0.8;"/>
      </defs>
      <g>
       <use style="stroke:#000000;stroke-width:0.8;" x="59.760539" xlink:href="#m0b987d7b93" y="288.430125"/>
      </g>
     </g>
     <g id="text_1">
      <!-- 0 -->
      <defs>
       <path d="M 31.78125 66.40625 
Q 24.171875 66.40625 20.328125 58.90625 
Q 16.5 51.421875 16.5 36.375 
Q 16.5 21.390625 20.328125 13.890625 
Q 24.171875 6.390625 31.78125 6.390625 
Q 39.453125 6.390625 43.28125 13.890625 
Q 47.125 21.390625 47.125 36.375 
Q 47.125 51.421875 43.28125 58.90625 
Q 39.453125 66.40625 31.78125 66.40625 
z
M 31.78125 74.21875 
Q 44.046875 74.21875 50.515625 64.515625 
Q 56.984375 54.828125 56.984375 36.375 
Q 56.984375 17.96875 50.515625 8.265625 
Q 44.046875 -1.421875 31.78125 -1.421875 
Q 19.53125 -1.421875 13.0625 8.265625 
Q 6.59375 17.96875 6.59375 36.375 
Q 6.59375 54.828125 13.0625 64.515625 
Q 19.53125 74.21875 31.78125 74.21875 
z
" id="DejaVuSans-30"/>
      </defs>
      <g transform="translate(56.579289 303.028562)scale(0.1 -0.1)">
       <use xlink:href="#DejaVuSans-30"/>
      </g>
     </g>
    </g>
    <g id="xtick_2">
     <g id="line2d_2">
      <g>
       <use style="stroke:#000000;stroke-width:0.8;" x="110.448212" xlink:href="#m0b987d7b93" y="288.430125"/>
      </g>
     </g>
     <g id="text_2">
      <!-- 200 -->
      <defs>
       <path d="M 19.1875 8.296875 
L 53.609375 8.296875 
L 53.609375 0 
L 7.328125 0 
L 7.328125 8.296875 
Q 12.9375 14.109375 22.625 23.890625 
Q 32.328125 33.6875 34.8125 36.53125 
Q 39.546875 41.84375 41.421875 45.53125 
Q 43.3125 49.21875 43.3125 52.78125 
Q 43.3125 58.59375 39.234375 62.25 
Q 35.15625 65.921875 28.609375 65.921875 
Q 23.96875 65.921875 18.8125 64.3125 
Q 13.671875 62.703125 7.8125 59.421875 
L 7.8125 69.390625 
Q 13.765625 71.78125 18.9375 73 
Q 24.125 74.21875 28.421875 74.21875 
Q 39.75 74.21875 46.484375 68.546875 
Q 53.21875 62.890625 53.21875 53.421875 
Q 53.21875 48.921875 51.53125 44.890625 
Q 49.859375 40.875 45.40625 35.40625 
Q 44.1875 33.984375 37.640625 27.21875 
Q 31.109375 20.453125 19.1875 8.296875 
z
" id="DejaVuSans-32"/>
      </defs>
      <g transform="translate(100.904462 303.028562)scale(0.1 -0.1)">
       <use xlink:href="#DejaVuSans-32"/>
       <use x="63.623047" xlink:href="#DejaVuSans-30"/>
       <use x="127.246094" xlink:href="#DejaVuSans-30"/>
      </g>
     </g>
    </g>
    <g id="xtick_3">
     <g id="line2d_3">
      <g>
       <use style="stroke:#000000;stroke-width:0.8;" x="161.135885" xlink:href="#m0b987d7b93" y="288.430125"/>
      </g>
     </g>
     <g id="text_3">
      <!-- 400 -->
      <defs>
       <path d="M 37.796875 64.3125 
L 12.890625 25.390625 
L 37.796875 25.390625 
z
M 35.203125 72.90625 
L 47.609375 72.90625 
L 47.609375 25.390625 
L 58.015625 25.390625 
L 58.015625 17.1875 
L 47.609375 17.1875 
L 47.609375 0 
L 37.796875 0 
L 37.796875 17.1875 
L 4.890625 17.1875 
L 4.890625 26.703125 
z
" id="DejaVuSans-34"/>
      </defs>
      <g transform="translate(151.592135 303.028562)scale(0.1 -0.1)">
       <use xlink:href="#DejaVuSans-34"/>
       <use x="63.623047" xlink:href="#DejaVuSans-30"/>
       <use x="127.246094" xlink:href="#DejaVuSans-30"/>
      </g>
     </g>
    </g>
    <g id="xtick_4">
     <g id="line2d_4">
      <g>
       <use style="stroke:#000000;stroke-width:0.8;" x="211.823558" xlink:href="#m0b987d7b93" y="288.430125"/>
      </g>
     </g>
     <g id="text_4">
      <!-- 600 -->
      <defs>
       <path d="M 33.015625 40.375 
Q 26.375 40.375 22.484375 35.828125 
Q 18.609375 31.296875 18.609375 23.390625 
Q 18.609375 15.53125 22.484375 10.953125 
Q 26.375 6.390625 33.015625 6.390625 
Q 39.65625 6.390625 43.53125 10.953125 
Q 47.40625 15.53125 47.40625 23.390625 
Q 47.40625 31.296875 43.53125 35.828125 
Q 39.65625 40.375 33.015625 40.375 
z
M 52.59375 71.296875 
L 52.59375 62.3125 
Q 48.875 64.0625 45.09375 64.984375 
Q 41.3125 65.921875 37.59375 65.921875 
Q 27.828125 65.921875 22.671875 59.328125 
Q 17.53125 52.734375 16.796875 39.40625 
Q 19.671875 43.65625 24.015625 45.921875 
Q 28.375 48.1875 33.59375 48.1875 
Q 44.578125 48.1875 50.953125 41.515625 
Q 57.328125 34.859375 57.328125 23.390625 
Q 57.328125 12.15625 50.6875 5.359375 
Q 44.046875 -1.421875 33.015625 -1.421875 
Q 20.359375 -1.421875 13.671875 8.265625 
Q 6.984375 17.96875 6.984375 36.375 
Q 6.984375 53.65625 15.1875 63.9375 
Q 23.390625 74.21875 37.203125 74.21875 
Q 40.921875 74.21875 44.703125 73.484375 
Q 48.484375 72.75 52.59375 71.296875 
z
" id="DejaVuSans-36"/>
      </defs>
      <g transform="translate(202.279808 303.028562)scale(0.1 -0.1)">
       <use xlink:href="#DejaVuSans-36"/>
       <use x="63.623047" xlink:href="#DejaVuSans-30"/>
       <use x="127.246094" xlink:href="#DejaVuSans-30"/>
      </g>
     </g>
    </g>
    <g id="xtick_5">
     <g id="line2d_5">
      <g>
       <use style="stroke:#000000;stroke-width:0.8;" x="262.511231" xlink:href="#m0b987d7b93" y="288.430125"/>
      </g>
     </g>
     <g id="text_5">
      <!-- 800 -->
      <defs>
       <path d="M 31.78125 34.625 
Q 24.75 34.625 20.71875 30.859375 
Q 16.703125 27.09375 16.703125 20.515625 
Q 16.703125 13.921875 20.71875 10.15625 
Q 24.75 6.390625 31.78125 6.390625 
Q 38.8125 6.390625 42.859375 10.171875 
Q 46.921875 13.96875 46.921875 20.515625 
Q 46.921875 27.09375 42.890625 30.859375 
Q 38.875 34.625 31.78125 34.625 
z
M 21.921875 38.8125 
Q 15.578125 40.375 12.03125 44.71875 
Q 8.5 49.078125 8.5 55.328125 
Q 8.5 64.0625 14.71875 69.140625 
Q 20.953125 74.21875 31.78125 74.21875 
Q 42.671875 74.21875 48.875 69.140625 
Q 55.078125 64.0625 55.078125 55.328125 
Q 55.078125 49.078125 51.53125 44.71875 
Q 48 40.375 41.703125 38.8125 
Q 48.828125 37.15625 52.796875 32.3125 
Q 56.78125 27.484375 56.78125 20.515625 
Q 56.78125 9.90625 50.3125 4.234375 
Q 43.84375 -1.421875 31.78125 -1.421875 
Q 19.734375 -1.421875 13.25 4.234375 
Q 6.78125 9.90625 6.78125 20.515625 
Q 6.78125 27.484375 10.78125 32.3125 
Q 14.796875 37.15625 21.921875 38.8125 
z
M 18.3125 54.390625 
Q 18.3125 48.734375 21.84375 45.5625 
Q 25.390625 42.390625 31.78125 42.390625 
Q 38.140625 42.390625 41.71875 45.5625 
Q 45.3125 48.734375 45.3125 54.390625 
Q 45.3125 60.0625 41.71875 63.234375 
Q 38.140625 66.40625 31.78125 66.40625 
Q 25.390625 66.40625 21.84375 63.234375 
Q 18.3125 60.0625 18.3125 54.390625 
z
" id="DejaVuSans-38"/>
      </defs>
      <g transform="translate(252.967481 303.028562)scale(0.1 -0.1)">
       <use xlink:href="#DejaVuSans-38"/>
       <use x="63.623047" xlink:href="#DejaVuSans-30"/>
       <use x="127.246094" xlink:href="#DejaVuSans-30"/>
      </g>
     </g>
    </g>
    <g id="xtick_6">
     <g id="line2d_6">
      <g>
       <use style="stroke:#000000;stroke-width:0.8;" x="313.198904" xlink:href="#m0b987d7b93" y="288.430125"/>
      </g>
     </g>
     <g id="text_6">
      <!-- 1000 -->
      <defs>
       <path d="M 12.40625 8.296875 
L 28.515625 8.296875 
L 28.515625 63.921875 
L 10.984375 60.40625 
L 10.984375 69.390625 
L 28.421875 72.90625 
L 38.28125 72.90625 
L 38.28125 8.296875 
L 54.390625 8.296875 
L 54.390625 0 
L 12.40625 0 
z
" id="DejaVuSans-31"/>
      </defs>
      <g transform="translate(300.473904 303.028562)scale(0.1 -0.1)">
       <use xlink:href="#DejaVuSans-31"/>
       <use x="63.623047" xlink:href="#DejaVuSans-30"/>
       <use x="127.246094" xlink:href="#DejaVuSans-30"/>
       <use x="190.869141" xlink:href="#DejaVuSans-30"/>
      </g>
     </g>
    </g>
    <g id="xtick_7">
     <g id="line2d_7">
      <g>
       <use style="stroke:#000000;stroke-width:0.8;" x="363.886577" xlink:href="#m0b987d7b93" y="288.430125"/>
      </g>
     </g>
     <g id="text_7">
      <!-- 1200 -->
      <g transform="translate(351.161577 303.028562)scale(0.1 -0.1)">
       <use xlink:href="#DejaVuSans-31"/>
       <use x="63.623047" xlink:href="#DejaVuSans-32"/>
       <use x="127.246094" xlink:href="#DejaVuSans-30"/>
       <use x="190.869141" xlink:href="#DejaVuSans-30"/>
      </g>
     </g>
    </g>
    <g id="text_8">
     <!-- episodes -->
     <defs>
      <path d="M 56.203125 29.59375 
L 56.203125 25.203125 
L 14.890625 25.203125 
Q 15.484375 15.921875 20.484375 11.0625 
Q 25.484375 6.203125 34.421875 6.203125 
Q 39.59375 6.203125 44.453125 7.46875 
Q 49.3125 8.734375 54.109375 11.28125 
L 54.109375 2.78125 
Q 49.265625 0.734375 44.1875 -0.34375 
Q 39.109375 -1.421875 33.890625 -1.421875 
Q 20.796875 -1.421875 13.15625 6.1875 
Q 5.515625 13.8125 5.515625 26.8125 
Q 5.515625 40.234375 12.765625 48.109375 
Q 20.015625 56 32.328125 56 
Q 43.359375 56 49.78125 48.890625 
Q 56.203125 41.796875 56.203125 29.59375 
z
M 47.21875 32.234375 
Q 47.125 39.59375 43.09375 43.984375 
Q 39.0625 48.390625 32.421875 48.390625 
Q 24.90625 48.390625 20.390625 44.140625 
Q 15.875 39.890625 15.1875 32.171875 
z
" id="DejaVuSans-65"/>
      <path d="M 18.109375 8.203125 
L 18.109375 -20.796875 
L 9.078125 -20.796875 
L 9.078125 54.6875 
L 18.109375 54.6875 
L 18.109375 46.390625 
Q 20.953125 51.265625 25.265625 53.625 
Q 29.59375 56 35.59375 56 
Q 45.5625 56 51.78125 48.09375 
Q 58.015625 40.1875 58.015625 27.296875 
Q 58.015625 14.40625 51.78125 6.484375 
Q 45.5625 -1.421875 35.59375 -1.421875 
Q 29.59375 -1.421875 25.265625 0.953125 
Q 20.953125 3.328125 18.109375 8.203125 
z
M 48.6875 27.296875 
Q 48.6875 37.203125 44.609375 42.84375 
Q 40.53125 48.484375 33.40625 48.484375 
Q 26.265625 48.484375 22.1875 42.84375 
Q 18.109375 37.203125 18.109375 27.296875 
Q 18.109375 17.390625 22.1875 11.75 
Q 26.265625 6.109375 33.40625 6.109375 
Q 40.53125 6.109375 44.609375 11.75 
Q 48.6875 17.390625 48.6875 27.296875 
z
" id="DejaVuSans-70"/>
      <path d="M 9.421875 54.6875 
L 18.40625 54.6875 
L 18.40625 0 
L 9.421875 0 
z
M 9.421875 75.984375 
L 18.40625 75.984375 
L 18.40625 64.59375 
L 9.421875 64.59375 
z
" id="DejaVuSans-69"/>
      <path d="M 44.28125 53.078125 
L 44.28125 44.578125 
Q 40.484375 46.53125 36.375 47.5 
Q 32.28125 48.484375 27.875 48.484375 
Q 21.1875 48.484375 17.84375 46.4375 
Q 14.5 44.390625 14.5 40.28125 
Q 14.5 37.15625 16.890625 35.375 
Q 19.28125 33.59375 26.515625 31.984375 
L 29.59375 31.296875 
Q 39.15625 29.25 43.1875 25.515625 
Q 47.21875 21.78125 47.21875 15.09375 
Q 47.21875 7.46875 41.1875 3.015625 
Q 35.15625 -1.421875 24.609375 -1.421875 
Q 20.21875 -1.421875 15.453125 -0.5625 
Q 10.6875 0.296875 5.421875 2 
L 5.421875 11.28125 
Q 10.40625 8.6875 15.234375 7.390625 
Q 20.0625 6.109375 24.8125 6.109375 
Q 31.15625 6.109375 34.5625 8.28125 
Q 37.984375 10.453125 37.984375 14.40625 
Q 37.984375 18.0625 35.515625 20.015625 
Q 33.0625 21.96875 24.703125 23.78125 
L 21.578125 24.515625 
Q 13.234375 26.265625 9.515625 29.90625 
Q 5.8125 33.546875 5.8125 39.890625 
Q 5.8125 47.609375 11.28125 51.796875 
Q 16.75 56 26.8125 56 
Q 31.78125 56 36.171875 55.265625 
Q 40.578125 54.546875 44.28125 53.078125 
z
" id="DejaVuSans-73"/>
      <path d="M 30.609375 48.390625 
Q 23.390625 48.390625 19.1875 42.75 
Q 14.984375 37.109375 14.984375 27.296875 
Q 14.984375 17.484375 19.15625 11.84375 
Q 23.34375 6.203125 30.609375 6.203125 
Q 37.796875 6.203125 41.984375 11.859375 
Q 46.1875 17.53125 46.1875 27.296875 
Q 46.1875 37.015625 41.984375 42.703125 
Q 37.796875 48.390625 30.609375 48.390625 
z
M 30.609375 56 
Q 42.328125 56 49.015625 48.375 
Q 55.71875 40.765625 55.71875 27.296875 
Q 55.71875 13.875 49.015625 6.21875 
Q 42.328125 -1.421875 30.609375 -1.421875 
Q 18.84375 -1.421875 12.171875 6.21875 
Q 5.515625 13.875 5.515625 27.296875 
Q 5.515625 40.765625 12.171875 48.375 
Q 18.84375 56 30.609375 56 
z
" id="DejaVuSans-6f"/>
      <path d="M 45.40625 46.390625 
L 45.40625 75.984375 
L 54.390625 75.984375 
L 54.390625 0 
L 45.40625 0 
L 45.40625 8.203125 
Q 42.578125 3.328125 38.25 0.953125 
Q 33.9375 -1.421875 27.875 -1.421875 
Q 17.96875 -1.421875 11.734375 6.484375 
Q 5.515625 14.40625 5.515625 27.296875 
Q 5.515625 40.1875 11.734375 48.09375 
Q 17.96875 56 27.875 56 
Q 33.9375 56 38.25 53.625 
Q 42.578125 51.265625 45.40625 46.390625 
z
M 14.796875 27.296875 
Q 14.796875 17.390625 18.875 11.75 
Q 22.953125 6.109375 30.078125 6.109375 
Q 37.203125 6.109375 41.296875 11.75 
Q 45.40625 17.390625 45.40625 27.296875 
Q 45.40625 37.203125 41.296875 42.84375 
Q 37.203125 48.484375 30.078125 48.484375 
Q 22.953125 48.484375 18.875 42.84375 
Q 14.796875 37.203125 14.796875 27.296875 
z
" id="DejaVuSans-64"/>
     </defs>
     <g transform="translate(200.181875 316.706687)scale(0.1 -0.1)">
      <use xlink:href="#DejaVuSans-65"/>
      <use x="61.523438" xlink:href="#DejaVuSans-70"/>
      <use x="125" xlink:href="#DejaVuSans-69"/>
      <use x="152.783203" xlink:href="#DejaVuSans-73"/>
      <use x="204.882812" xlink:href="#DejaVuSans-6f"/>
      <use x="266.064453" xlink:href="#DejaVuSans-64"/>
      <use x="329.541016" xlink:href="#DejaVuSans-65"/>
      <use x="391.064453" xlink:href="#DejaVuSans-73"/>
     </g>
    </g>
   </g>
   <g id="matplotlib.axis_2">
    <g id="ytick_1">
     <g id="line2d_8">
      <defs>
       <path d="M 0 0 
L -3.5 0 
" id="m1d9060a6a1" style="stroke:#000000;stroke-width:0.8;"/>
      </defs>
      <g>
       <use style="stroke:#000000;stroke-width:0.8;" x="43.78125" xlink:href="#m1d9060a6a1" y="263.447094"/>
      </g>
     </g>
     <g id="text_9">
      <!-- 0.5 -->
      <defs>
       <path d="M 10.6875 12.40625 
L 21 12.40625 
L 21 0 
L 10.6875 0 
z
" id="DejaVuSans-2e"/>
       <path d="M 10.796875 72.90625 
L 49.515625 72.90625 
L 49.515625 64.59375 
L 19.828125 64.59375 
L 19.828125 46.734375 
Q 21.96875 47.46875 24.109375 47.828125 
Q 26.265625 48.1875 28.421875 48.1875 
Q 40.625 48.1875 47.75 41.5 
Q 54.890625 34.8125 54.890625 23.390625 
Q 54.890625 11.625 47.5625 5.09375 
Q 40.234375 -1.421875 26.90625 -1.421875 
Q 22.3125 -1.421875 17.546875 -0.640625 
Q 12.796875 0.140625 7.71875 1.703125 
L 7.71875 11.625 
Q 12.109375 9.234375 16.796875 8.0625 
Q 21.484375 6.890625 26.703125 6.890625 
Q 35.15625 6.890625 40.078125 11.328125 
Q 45.015625 15.765625 45.015625 23.390625 
Q 45.015625 31 40.078125 35.4375 
Q 35.15625 39.890625 26.703125 39.890625 
Q 22.75 39.890625 18.8125 39.015625 
Q 14.890625 38.140625 10.796875 36.28125 
z
" id="DejaVuSans-35"/>
      </defs>
      <g transform="translate(20.878125 267.246313)scale(0.1 -0.1)">
       <use xlink:href="#DejaVuSans-30"/>
       <use x="63.623047" xlink:href="#DejaVuSans-2e"/>
       <use x="95.410156" xlink:href="#DejaVuSans-35"/>
      </g>
     </g>
    </g>
    <g id="ytick_2">
     <g id="line2d_9">
      <g>
       <use style="stroke:#000000;stroke-width:0.8;" x="43.78125" xlink:href="#m1d9060a6a1" y="218.352956"/>
      </g>
     </g>
     <g id="text_10">
      <!-- 1.0 -->
      <g transform="translate(20.878125 222.152174)scale(0.1 -0.1)">
       <use xlink:href="#DejaVuSans-31"/>
       <use x="63.623047" xlink:href="#DejaVuSans-2e"/>
       <use x="95.410156" xlink:href="#DejaVuSans-30"/>
      </g>
     </g>
    </g>
    <g id="ytick_3">
     <g id="line2d_10">
      <g>
       <use style="stroke:#000000;stroke-width:0.8;" x="43.78125" xlink:href="#m1d9060a6a1" y="173.258817"/>
      </g>
     </g>
     <g id="text_11">
      <!-- 1.5 -->
      <g transform="translate(20.878125 177.058036)scale(0.1 -0.1)">
       <use xlink:href="#DejaVuSans-31"/>
       <use x="63.623047" xlink:href="#DejaVuSans-2e"/>
       <use x="95.410156" xlink:href="#DejaVuSans-35"/>
      </g>
     </g>
    </g>
    <g id="ytick_4">
     <g id="line2d_11">
      <g>
       <use style="stroke:#000000;stroke-width:0.8;" x="43.78125" xlink:href="#m1d9060a6a1" y="128.164678"/>
      </g>
     </g>
     <g id="text_12">
      <!-- 2.0 -->
      <g transform="translate(20.878125 131.963897)scale(0.1 -0.1)">
       <use xlink:href="#DejaVuSans-32"/>
       <use x="63.623047" xlink:href="#DejaVuSans-2e"/>
       <use x="95.410156" xlink:href="#DejaVuSans-30"/>
      </g>
     </g>
    </g>
    <g id="ytick_5">
     <g id="line2d_12">
      <g>
       <use style="stroke:#000000;stroke-width:0.8;" x="43.78125" xlink:href="#m1d9060a6a1" y="83.07054"/>
      </g>
     </g>
     <g id="text_13">
      <!-- 2.5 -->
      <g transform="translate(20.878125 86.869758)scale(0.1 -0.1)">
       <use xlink:href="#DejaVuSans-32"/>
       <use x="63.623047" xlink:href="#DejaVuSans-2e"/>
       <use x="95.410156" xlink:href="#DejaVuSans-35"/>
      </g>
     </g>
    </g>
    <g id="ytick_6">
     <g id="line2d_13">
      <g>
       <use style="stroke:#000000;stroke-width:0.8;" x="43.78125" xlink:href="#m1d9060a6a1" y="37.976401"/>
      </g>
     </g>
     <g id="text_14">
      <!-- 3.0 -->
      <defs>
       <path d="M 40.578125 39.3125 
Q 47.65625 37.796875 51.625 33 
Q 55.609375 28.21875 55.609375 21.1875 
Q 55.609375 10.40625 48.1875 4.484375 
Q 40.765625 -1.421875 27.09375 -1.421875 
Q 22.515625 -1.421875 17.65625 -0.515625 
Q 12.796875 0.390625 7.625 2.203125 
L 7.625 11.71875 
Q 11.71875 9.328125 16.59375 8.109375 
Q 21.484375 6.890625 26.8125 6.890625 
Q 36.078125 6.890625 40.9375 10.546875 
Q 45.796875 14.203125 45.796875 21.1875 
Q 45.796875 27.640625 41.28125 31.265625 
Q 36.765625 34.90625 28.71875 34.90625 
L 20.21875 34.90625 
L 20.21875 43.015625 
L 29.109375 43.015625 
Q 36.375 43.015625 40.234375 45.921875 
Q 44.09375 48.828125 44.09375 54.296875 
Q 44.09375 59.90625 40.109375 62.90625 
Q 36.140625 65.921875 28.71875 65.921875 
Q 24.65625 65.921875 20.015625 65.03125 
Q 15.375 64.15625 9.8125 62.3125 
L 9.8125 71.09375 
Q 15.4375 72.65625 20.34375 73.4375 
Q 25.25 74.21875 29.59375 74.21875 
Q 40.828125 74.21875 47.359375 69.109375 
Q 53.90625 64.015625 53.90625 55.328125 
Q 53.90625 49.265625 50.4375 45.09375 
Q 46.96875 40.921875 40.578125 39.3125 
z
" id="DejaVuSans-33"/>
      </defs>
      <g transform="translate(20.878125 41.77562)scale(0.1 -0.1)">
       <use xlink:href="#DejaVuSans-33"/>
       <use x="63.623047" xlink:href="#DejaVuSans-2e"/>
       <use x="95.410156" xlink:href="#DejaVuSans-30"/>
      </g>
     </g>
    </g>
    <g id="text_15">
     <!-- average maxQ -->
     <defs>
      <path d="M 34.28125 27.484375 
Q 23.390625 27.484375 19.1875 25 
Q 14.984375 22.515625 14.984375 16.5 
Q 14.984375 11.71875 18.140625 8.90625 
Q 21.296875 6.109375 26.703125 6.109375 
Q 34.1875 6.109375 38.703125 11.40625 
Q 43.21875 16.703125 43.21875 25.484375 
L 43.21875 27.484375 
z
M 52.203125 31.203125 
L 52.203125 0 
L 43.21875 0 
L 43.21875 8.296875 
Q 40.140625 3.328125 35.546875 0.953125 
Q 30.953125 -1.421875 24.3125 -1.421875 
Q 15.921875 -1.421875 10.953125 3.296875 
Q 6 8.015625 6 15.921875 
Q 6 25.140625 12.171875 29.828125 
Q 18.359375 34.515625 30.609375 34.515625 
L 43.21875 34.515625 
L 43.21875 35.40625 
Q 43.21875 41.609375 39.140625 45 
Q 35.0625 48.390625 27.6875 48.390625 
Q 23 48.390625 18.546875 47.265625 
Q 14.109375 46.140625 10.015625 43.890625 
L 10.015625 52.203125 
Q 14.9375 54.109375 19.578125 55.046875 
Q 24.21875 56 28.609375 56 
Q 40.484375 56 46.34375 49.84375 
Q 52.203125 43.703125 52.203125 31.203125 
z
" id="DejaVuSans-61"/>
      <path d="M 2.984375 54.6875 
L 12.5 54.6875 
L 29.59375 8.796875 
L 46.6875 54.6875 
L 56.203125 54.6875 
L 35.6875 0 
L 23.484375 0 
z
" id="DejaVuSans-76"/>
      <path d="M 41.109375 46.296875 
Q 39.59375 47.171875 37.8125 47.578125 
Q 36.03125 48 33.890625 48 
Q 26.265625 48 22.1875 43.046875 
Q 18.109375 38.09375 18.109375 28.8125 
L 18.109375 0 
L 9.078125 0 
L 9.078125 54.6875 
L 18.109375 54.6875 
L 18.109375 46.1875 
Q 20.953125 51.171875 25.484375 53.578125 
Q 30.03125 56 36.53125 56 
Q 37.453125 56 38.578125 55.875 
Q 39.703125 55.765625 41.0625 55.515625 
z
" id="DejaVuSans-72"/>
      <path d="M 45.40625 27.984375 
Q 45.40625 37.75 41.375 43.109375 
Q 37.359375 48.484375 30.078125 48.484375 
Q 22.859375 48.484375 18.828125 43.109375 
Q 14.796875 37.75 14.796875 27.984375 
Q 14.796875 18.265625 18.828125 12.890625 
Q 22.859375 7.515625 30.078125 7.515625 
Q 37.359375 7.515625 41.375 12.890625 
Q 45.40625 18.265625 45.40625 27.984375 
z
M 54.390625 6.78125 
Q 54.390625 -7.171875 48.1875 -13.984375 
Q 42 -20.796875 29.203125 -20.796875 
Q 24.46875 -20.796875 20.265625 -20.09375 
Q 16.0625 -19.390625 12.109375 -17.921875 
L 12.109375 -9.1875 
Q 16.0625 -11.328125 19.921875 -12.34375 
Q 23.78125 -13.375 27.78125 -13.375 
Q 36.625 -13.375 41.015625 -8.765625 
Q 45.40625 -4.15625 45.40625 5.171875 
L 45.40625 9.625 
Q 42.625 4.78125 38.28125 2.390625 
Q 33.9375 0 27.875 0 
Q 17.828125 0 11.671875 7.65625 
Q 5.515625 15.328125 5.515625 27.984375 
Q 5.515625 40.671875 11.671875 48.328125 
Q 17.828125 56 27.875 56 
Q 33.9375 56 38.28125 53.609375 
Q 42.625 51.21875 45.40625 46.390625 
L 45.40625 54.6875 
L 54.390625 54.6875 
z
" id="DejaVuSans-67"/>
      <path id="DejaVuSans-20"/>
      <path d="M 52 44.1875 
Q 55.375 50.25 60.0625 53.125 
Q 64.75 56 71.09375 56 
Q 79.640625 56 84.28125 50.015625 
Q 88.921875 44.046875 88.921875 33.015625 
L 88.921875 0 
L 79.890625 0 
L 79.890625 32.71875 
Q 79.890625 40.578125 77.09375 44.375 
Q 74.3125 48.1875 68.609375 48.1875 
Q 61.625 48.1875 57.5625 43.546875 
Q 53.515625 38.921875 53.515625 30.90625 
L 53.515625 0 
L 44.484375 0 
L 44.484375 32.71875 
Q 44.484375 40.625 41.703125 44.40625 
Q 38.921875 48.1875 33.109375 48.1875 
Q 26.21875 48.1875 22.15625 43.53125 
Q 18.109375 38.875 18.109375 30.90625 
L 18.109375 0 
L 9.078125 0 
L 9.078125 54.6875 
L 18.109375 54.6875 
L 18.109375 46.1875 
Q 21.1875 51.21875 25.484375 53.609375 
Q 29.78125 56 35.6875 56 
Q 41.65625 56 45.828125 52.96875 
Q 50 49.953125 52 44.1875 
z
" id="DejaVuSans-6d"/>
      <path d="M 54.890625 54.6875 
L 35.109375 28.078125 
L 55.90625 0 
L 45.3125 0 
L 29.390625 21.484375 
L 13.484375 0 
L 2.875 0 
L 24.125 28.609375 
L 4.6875 54.6875 
L 15.28125 54.6875 
L 29.78125 35.203125 
L 44.28125 54.6875 
z
" id="DejaVuSans-78"/>
      <path d="M 39.40625 66.21875 
Q 28.65625 66.21875 22.328125 58.203125 
Q 16.015625 50.203125 16.015625 36.375 
Q 16.015625 22.609375 22.328125 14.59375 
Q 28.65625 6.59375 39.40625 6.59375 
Q 50.140625 6.59375 56.421875 14.59375 
Q 62.703125 22.609375 62.703125 36.375 
Q 62.703125 50.203125 56.421875 58.203125 
Q 50.140625 66.21875 39.40625 66.21875 
z
M 53.21875 1.3125 
L 66.21875 -12.890625 
L 54.296875 -12.890625 
L 43.5 -1.21875 
Q 41.890625 -1.3125 41.03125 -1.359375 
Q 40.1875 -1.421875 39.40625 -1.421875 
Q 24.03125 -1.421875 14.8125 8.859375 
Q 5.609375 19.140625 5.609375 36.375 
Q 5.609375 53.65625 14.8125 63.9375 
Q 24.03125 74.21875 39.40625 74.21875 
Q 54.734375 74.21875 63.90625 63.9375 
Q 73.09375 53.65625 73.09375 36.375 
Q 73.09375 23.6875 67.984375 14.640625 
Q 62.890625 5.609375 53.21875 1.3125 
z
" id="DejaVuSans-51"/>
     </defs>
     <g transform="translate(14.798438 192.263187)rotate(-90)scale(0.1 -0.1)">
      <use xlink:href="#DejaVuSans-61"/>
      <use x="61.279297" xlink:href="#DejaVuSans-76"/>
      <use x="120.458984" xlink:href="#DejaVuSans-65"/>
      <use x="181.982422" xlink:href="#DejaVuSans-72"/>
      <use x="223.095703" xlink:href="#DejaVuSans-61"/>
      <use x="284.375" xlink:href="#DejaVuSans-67"/>
      <use x="347.851562" xlink:href="#DejaVuSans-65"/>
      <use x="409.375" xlink:href="#DejaVuSans-20"/>
      <use x="441.162109" xlink:href="#DejaVuSans-6d"/>
      <use x="538.574219" xlink:href="#DejaVuSans-61"/>
      <use x="599.853516" xlink:href="#DejaVuSans-78"/>
      <use x="659.033203" xlink:href="#DejaVuSans-51"/>
     </g>
    </g>
   </g>
   <g id="line2d_14">
    <path clip-path="url(#pf7e21d8626)" d="M 60.013977 112.480945 
L 60.267416 108.506211 
L 60.520854 106.725962 
L 60.774292 59.091795 
L 61.027731 46.660569 
L 61.534607 114.390319 
L 61.788046 67.869028 
L 62.041484 58.120005 
L 62.294923 71.814464 
L 62.801799 66.691053 
L 63.055238 88.141579 
L 63.308676 68.163746 
L 63.562114 67.295175 
L 63.815553 53.586385 
L 64.068991 52.825485 
L 64.322429 61.49671 
L 64.575868 102.325504 
L 64.829306 61.666608 
L 65.082745 74.374155 
L 65.336183 63.566212 
L 65.589621 122.242095 
L 65.84306 63.981171 
L 66.096498 92.973077 
L 66.349936 76.827907 
L 66.603375 131.655795 
L 66.856813 62.092244 
L 67.110251 97.720008 
L 67.36369 105.931484 
L 67.617128 86.801308 
L 67.870567 104.774914 
L 68.377443 60.282441 
L 68.630882 76.109954 
L 68.88432 74.939391 
L 69.137758 121.377668 
L 69.644635 60.942405 
L 69.898074 81.597669 
L 70.151512 70.094282 
L 70.40495 67.250044 
L 70.658389 90.949738 
L 70.911827 87.195289 
L 71.165265 74.316832 
L 71.418704 123.073849 
L 71.672142 98.517067 
L 71.92558 34.414125 
L 72.179019 64.784966 
L 72.432457 78.473993 
L 72.685896 68.89042 
L 72.939334 94.129797 
L 73.192772 69.015845 
L 73.446211 65.710907 
L 73.699649 85.654349 
L 73.953087 65.892537 
L 74.206526 78.026798 
L 74.459964 97.716303 
L 74.713402 101.298015 
L 74.966841 108.394334 
L 75.220279 65.896514 
L 75.473718 84.01338 
L 75.727156 55.576143 
L 76.234033 80.531545 
L 76.487471 47.912003 
L 76.740909 79.807401 
L 76.994348 88.246296 
L 77.247786 49.685257 
L 77.501224 125.802929 
L 77.754663 97.058269 
L 78.008101 43.144003 
L 78.26154 129.109015 
L 78.514978 64.845416 
L 78.768416 85.213491 
L 79.021855 68.261753 
L 79.275293 117.862772 
L 79.528731 74.879771 
L 80.035608 43.036713 
L 80.289046 112.750552 
L 80.542485 76.061964 
L 80.795923 118.805037 
L 81.049362 88.671512 
L 81.3028 73.422955 
L 81.556238 78.886986 
L 81.809677 69.829482 
L 82.063115 75.03205 
L 82.316553 50.725657 
L 82.569992 94.544154 
L 82.82343 99.099784 
L 83.076868 80.90113 
L 83.330307 51.471312 
L 83.583745 141.237382 
L 83.837184 51.307135 
L 84.090622 79.739622 
L 84.34406 48.053487 
L 84.597499 59.247866 
L 84.850937 106.313311 
L 85.104375 64.827742 
L 85.611252 117.596594 
L 85.86469 64.278528 
L 86.118129 53.675329 
L 86.371567 99.578927 
L 86.625006 100.549946 
L 86.878444 59.48639 
L 87.131882 118.905535 
L 87.385321 63.76811 
L 87.638759 123.337279 
L 87.892197 67.434192 
L 88.145636 117.939411 
L 88.399074 56.954591 
L 88.652513 77.479313 
L 88.905951 56.122765 
L 89.159389 63.190568 
L 89.412828 91.824885 
L 89.666266 84.019694 
L 89.919704 115.665456 
L 90.173143 56.429255 
L 90.426581 58.510062 
L 90.680019 54.739927 
L 90.933458 121.55273 
L 91.186896 79.752446 
L 91.440335 75.012096 
L 91.693773 62.197261 
L 91.947211 80.337632 
L 92.20065 75.293115 
L 92.454088 65.967998 
L 92.707526 124.705053 
L 92.960965 97.731017 
L 93.467841 67.811398 
L 93.72128 91.997211 
L 93.974718 75.930053 
L 94.228157 120.252084 
L 94.481595 74.065856 
L 94.988472 105.4648 
L 95.24191 75.751773 
L 95.495348 126.590031 
L 95.748787 63.841812 
L 96.002225 70.866371 
L 96.509102 55.322611 
L 96.76254 73.112872 
L 97.015979 65.650526 
L 97.269417 75.692429 
L 97.522855 59.374762 
L 97.776294 58.029154 
L 98.029732 108.208398 
L 98.28317 77.258585 
L 98.536609 62.333986 
L 98.790047 56.052484 
L 99.043485 77.362005 
L 99.296924 78.358046 
L 99.550362 73.002195 
L 99.803801 63.081119 
L 100.057239 67.028046 
L 100.310677 50.137036 
L 100.564116 54.416867 
L 100.817554 84.260168 
L 101.070992 83.414616 
L 101.324431 98.050535 
L 101.577869 70.2734 
L 101.831307 77.542959 
L 102.084746 66.085317 
L 102.338184 80.423806 
L 102.591623 50.726467 
L 102.845061 76.756603 
L 103.098499 74.137155 
L 103.351938 57.789607 
L 103.605376 57.287316 
L 103.858814 66.296322 
L 104.112253 62.389867 
L 104.365691 84.974404 
L 104.619129 82.742762 
L 104.872568 65.170371 
L 105.126006 74.898098 
L 105.379445 66.644335 
L 105.632883 84.385232 
L 105.886321 75.308742 
L 106.13976 98.018909 
L 106.646636 58.173246 
L 107.406952 74.482374 
L 107.66039 59.554707 
L 107.913828 77.052846 
L 108.167267 60.909251 
L 108.420705 91.695365 
L 108.927582 64.088844 
L 109.18102 71.431695 
L 109.687897 64.49541 
L 109.941335 64.202846 
L 110.194774 114.195157 
L 110.70165 68.013675 
L 110.955089 69.670049 
L 111.208527 68.088935 
L 111.461965 80.449243 
L 111.715404 122.85024 
L 111.968842 76.426177 
L 112.22228 59.277186 
L 112.475719 75.736027 
L 112.982596 81.171151 
L 113.236034 73.606361 
L 113.489472 77.23342 
L 113.742911 63.48555 
L 113.996349 77.21446 
L 114.249787 69.842742 
L 114.503226 78.029813 
L 114.756664 67.175446 
L 115.010102 76.922004 
L 115.263541 69.372625 
L 115.516979 85.297588 
L 115.770418 78.714748 
L 116.023856 75.698305 
L 116.277294 79.280154 
L 116.530733 85.23333 
L 116.784171 67.766059 
L 117.037609 83.85013 
L 117.291048 72.678583 
L 117.544486 79.954992 
L 117.797924 66.808616 
L 118.051363 66.268468 
L 118.304801 78.711246 
L 118.55824 74.903115 
L 118.811678 73.233422 
L 119.065116 74.016775 
L 119.318555 77.02318 
L 119.571993 84.253286 
L 119.825431 71.68423 
L 120.07887 83.827218 
L 120.585746 79.833929 
L 120.839185 71.286727 
L 121.092623 77.975295 
L 121.346062 71.981697 
L 121.852938 75.809304 
L 122.106377 80.050981 
L 122.359815 78.994866 
L 122.613253 80.119732 
L 122.866692 71.380634 
L 123.12013 73.970555 
L 123.373569 88.759232 
L 123.627007 81.123127 
L 123.880445 89.170278 
L 124.387322 87.311125 
L 124.894199 80.582397 
L 125.147637 86.162229 
L 125.401075 81.884963 
L 125.654514 97.285141 
L 125.907952 82.766646 
L 126.161391 92.944216 
L 126.414829 86.158701 
L 126.668267 82.908588 
L 126.921706 92.747931 
L 127.428582 80.217553 
L 127.682021 84.389879 
L 127.935459 85.180058 
L 128.188897 83.042829 
L 128.442336 85.91105 
L 128.695774 92.782258 
L 128.949213 85.113117 
L 129.202651 82.793449 
L 129.456089 91.448886 
L 129.709528 84.528047 
L 129.962966 88.109666 
L 130.216404 81.604123 
L 130.469843 86.227334 
L 130.723281 81.68594 
L 130.976719 88.25876 
L 131.230158 82.562499 
L 131.737035 89.987689 
L 131.990473 87.235015 
L 132.243911 87.807964 
L 132.49735 90.128363 
L 132.750788 89.846544 
L 133.004226 87.655681 
L 133.511103 92.015611 
L 133.764541 90.527117 
L 134.01798 91.717442 
L 134.271418 96.889669 
L 134.524857 82.779957 
L 135.031733 94.782627 
L 135.285172 94.25654 
L 135.53861 81.823185 
L 135.792048 86.853409 
L 136.045487 99.186018 
L 136.298925 93.309988 
L 136.552363 92.880974 
L 136.805802 92.09001 
L 137.05924 95.434772 
L 137.312679 87.505923 
L 137.566117 96.051381 
L 137.819555 98.53895 
L 138.326432 90.049658 
L 138.57987 91.304875 
L 138.833309 96.299339 
L 139.086747 88.832502 
L 139.593624 105.458657 
L 139.847062 105.324578 
L 140.100501 96.729654 
L 140.353939 96.622266 
L 140.607377 92.237673 
L 140.860816 100.592301 
L 141.114254 100.202315 
L 141.367692 93.760646 
L 141.874569 96.068552 
L 142.128008 88.608327 
L 142.381446 106.827905 
L 142.634884 100.414765 
L 142.888323 106.757708 
L 143.141761 94.647034 
L 143.395199 100.041186 
L 143.648638 113.313378 
L 143.902076 99.101096 
L 144.155514 96.604695 
L 144.662391 99.424106 
L 144.91583 96.99995 
L 145.169268 99.169216 
L 145.422706 96.634402 
L 145.676145 95.550145 
L 146.183021 107.654803 
L 146.43646 95.894384 
L 146.689898 114.755906 
L 146.943336 103.119157 
L 147.196775 107.081609 
L 147.450213 98.66376 
L 147.95709 97.014624 
L 148.210528 99.226073 
L 148.463967 113.674037 
L 148.717405 105.617663 
L 148.970843 104.621859 
L 149.224282 98.630938 
L 149.47772 98.756632 
L 149.731158 117.653756 
L 149.984597 97.853435 
L 150.238035 99.882255 
L 150.491474 111.236083 
L 150.744912 100.281643 
L 150.99835 106.221049 
L 151.251789 105.401599 
L 151.505227 110.407902 
L 151.758665 100.812884 
L 152.012104 106.8327 
L 152.265542 102.928023 
L 152.51898 109.140603 
L 152.772419 104.078892 
L 153.279296 106.241021 
L 153.532734 109.882133 
L 153.786172 109.997983 
L 154.039611 108.483424 
L 154.293049 115.313479 
L 154.546487 118.339256 
L 154.799926 118.477255 
L 155.306802 108.272446 
L 155.560241 105.131212 
L 155.813679 113.938887 
L 156.067118 116.060906 
L 156.320556 108.422692 
L 156.573994 116.465127 
L 156.827433 115.019699 
L 157.080871 107.627415 
L 157.334309 114.968181 
L 157.587748 106.394126 
L 158.094624 117.851886 
L 158.348063 111.13527 
L 158.601501 114.85594 
L 158.85494 108.333135 
L 159.108378 110.739221 
L 159.361816 116.686488 
L 159.615255 113.537804 
L 159.868693 112.051249 
L 160.37557 118.927519 
L 160.629008 118.434443 
L 160.882447 111.245413 
L 161.135885 118.256195 
L 161.389323 107.793207 
L 161.642762 115.798939 
L 161.8962 115.337154 
L 162.403077 110.847812 
L 162.656515 115.731566 
L 162.909953 116.423765 
L 163.163392 111.787729 
L 163.41683 122.044439 
L 163.670269 106.857594 
L 163.923707 123.386409 
L 164.430584 115.230573 
L 164.684022 115.786969 
L 164.93746 114.847482 
L 165.190899 118.212531 
L 165.444337 118.921769 
L 165.697775 113.392084 
L 165.951214 118.423412 
L 166.204652 118.318312 
L 166.458091 124.192813 
L 166.711529 116.828943 
L 166.964967 117.21841 
L 167.218406 110.944787 
L 167.471844 119.080116 
L 167.725282 118.964553 
L 167.978721 133.472505 
L 168.232159 121.837948 
L 168.485597 117.67874 
L 168.739036 120.578631 
L 168.992474 116.475615 
L 169.245913 114.542043 
L 169.499351 129.57658 
L 169.752789 124.821933 
L 170.006228 114.760238 
L 170.766543 125.080841 
L 171.019981 116.689283 
L 171.273419 115.949512 
L 171.526858 129.253161 
L 171.780296 117.30228 
L 172.540611 127.212027 
L 172.79405 119.5669 
L 173.047488 128.191805 
L 173.300926 126.184135 
L 173.554365 129.562775 
L 174.061241 117.513779 
L 174.31468 120.554606 
L 174.568118 120.668666 
L 174.821557 126.154461 
L 175.074995 125.046319 
L 175.328433 126.372986 
L 175.581872 130.981523 
L 175.83531 121.888058 
L 176.088748 127.038034 
L 176.342187 118.475689 
L 176.595625 119.546748 
L 177.102502 128.586369 
L 177.35594 131.749917 
L 177.609379 130.557627 
L 177.862817 124.18862 
L 178.116255 123.326467 
L 178.369694 125.481038 
L 178.623132 129.048769 
L 178.87657 120.020256 
L 179.130009 127.600742 
L 179.383447 128.377682 
L 179.636886 128.329313 
L 179.890324 130.585269 
L 180.143762 125.690837 
L 180.397201 125.095481 
L 180.650639 122.843842 
L 180.904077 127.113952 
L 181.157516 125.646111 
L 181.410954 122.540789 
L 181.664392 130.274815 
L 181.917831 129.321399 
L 182.171269 127.524484 
L 182.424708 126.596027 
L 182.678146 127.783828 
L 182.931584 125.730724 
L 183.185023 137.072991 
L 183.438461 128.763843 
L 183.945338 130.95702 
L 184.198776 138.579254 
L 184.452214 142.34347 
L 184.705653 130.788345 
L 184.959091 136.40237 
L 185.21253 135.383933 
L 185.465968 135.510143 
L 185.719406 132.912656 
L 185.972845 143.863609 
L 186.226283 129.897079 
L 186.479721 139.569745 
L 186.73316 129.904095 
L 186.986598 140.131599 
L 187.240036 126.516062 
L 187.493475 126.550156 
L 187.746913 127.237071 
L 188.000352 126.814431 
L 188.25379 128.893224 
L 188.507228 132.102091 
L 188.760667 132.859279 
L 189.014105 137.035114 
L 189.267543 144.907045 
L 189.520982 131.343845 
L 189.77442 137.250609 
L 190.027858 135.358475 
L 190.281297 130.047168 
L 190.534735 131.851557 
L 190.788174 130.881916 
L 191.041612 132.021133 
L 191.29505 142.804183 
L 191.548489 132.593131 
L 191.801927 131.691404 
L 192.055365 134.952182 
L 192.308804 130.753515 
L 192.562242 138.249201 
L 192.81568 129.094419 
L 193.069119 134.114935 
L 193.322557 136.444953 
L 193.575996 133.712047 
L 193.829434 133.683412 
L 194.082872 134.550356 
L 194.336311 131.618069 
L 194.589749 136.039839 
L 194.843187 137.826311 
L 195.096626 134.358171 
L 195.350064 132.651842 
L 195.603503 147.243739 
L 195.856941 139.204298 
L 196.110379 147.058708 
L 196.363818 151.038157 
L 196.617256 146.184203 
L 196.870694 134.423782 
L 197.124133 150.362259 
L 197.377571 132.32116 
L 197.884448 144.78905 
L 198.137886 136.48247 
L 198.391325 140.477933 
L 198.644763 138.707701 
L 198.898201 134.903968 
L 199.15164 140.46042 
L 199.405078 133.248429 
L 199.658516 136.114764 
L 199.911955 134.512102 
L 200.165393 145.171079 
L 200.418831 134.877708 
L 200.67227 138.320773 
L 200.925708 157.400795 
L 201.179147 138.730587 
L 201.432585 137.981819 
L 201.686023 139.16566 
L 201.939462 137.355914 
L 202.1929 142.803724 
L 202.446338 141.53646 
L 202.699777 136.815725 
L 202.953215 147.000062 
L 203.206653 144.000603 
L 203.460092 139.416612 
L 203.71353 142.876455 
L 203.966969 149.977733 
L 204.220407 136.780442 
L 204.473845 141.673878 
L 204.727284 136.130571 
L 204.980722 137.582899 
L 205.23416 137.921418 
L 205.487599 185.895041 
L 205.741037 136.45903 
L 205.994475 137.477544 
L 206.247914 134.390836 
L 206.754791 150.346664 
L 207.515106 138.482836 
L 207.768544 144.41266 
L 208.021982 139.622982 
L 208.275421 146.33845 
L 208.528859 136.692396 
L 208.782297 135.113745 
L 209.035736 141.621121 
L 209.289174 139.31783 
L 209.796051 144.120755 
L 210.049489 153.443936 
L 210.302928 141.046367 
L 211.063243 137.331575 
L 211.316681 147.145709 
L 211.570119 143.955352 
L 211.823558 138.715674 
L 212.076996 140.096414 
L 212.330435 142.8835 
L 212.583873 142.307256 
L 212.837311 145.536663 
L 213.09075 140.527911 
L 213.344188 139.503284 
L 213.597626 157.238951 
L 213.851065 146.449326 
L 214.104503 140.697669 
L 214.61138 149.232931 
L 214.864818 143.239611 
L 215.118257 141.071637 
L 215.371695 147.685968 
L 215.625133 142.852021 
L 215.878572 146.116593 
L 216.13201 153.87966 
L 216.385448 145.387656 
L 216.638887 142.048855 
L 217.145764 143.964773 
L 217.399202 144.260623 
L 217.906079 141.288469 
L 218.159517 143.541487 
L 218.412955 142.614985 
L 218.666394 151.313185 
L 218.919832 138.769904 
L 219.17327 145.828541 
L 219.426709 140.151626 
L 219.680147 153.0029 
L 219.933586 146.135238 
L 220.187024 150.45016 
L 220.440462 149.53629 
L 220.693901 144.738768 
L 220.947339 145.026971 
L 221.200777 147.714727 
L 221.454216 143.05164 
L 221.707654 144.571426 
L 221.961092 143.298281 
L 222.214531 151.967426 
L 222.467969 153.769109 
L 222.721408 144.558121 
L 222.974846 142.198743 
L 223.228284 145.106461 
L 223.481723 152.792736 
L 223.735161 142.607534 
L 223.988599 140.323624 
L 224.242038 141.895378 
L 224.748914 149.614019 
L 225.002353 143.065184 
L 225.255791 142.557076 
L 225.50923 149.4138 
L 225.762668 147.444358 
L 226.016106 143.239807 
L 226.269545 154.077617 
L 226.522983 142.441808 
L 226.776421 147.864192 
L 227.02986 146.272573 
L 227.283298 145.881458 
L 227.536736 147.111307 
L 227.790175 151.034337 
L 228.043613 145.231506 
L 228.297052 147.737062 
L 228.55049 148.730163 
L 228.803928 145.868203 
L 229.057367 149.837375 
L 229.310805 145.607212 
L 229.564243 145.814044 
L 229.817682 144.13419 
L 230.07112 150.561318 
L 230.324558 147.205863 
L 230.577997 158.400647 
L 230.831435 154.799936 
L 231.59175 149.246853 
L 231.845189 143.952954 
L 232.098627 150.215575 
L 232.352065 141.983287 
L 232.605504 149.055797 
L 232.858942 144.373597 
L 233.112381 148.707072 
L 233.365819 146.18502 
L 233.619257 146.397053 
L 233.872696 151.311707 
L 234.126134 149.962432 
L 234.379572 146.979485 
L 234.633011 151.16967 
L 234.886449 145.526348 
L 235.393326 149.498768 
L 235.646764 144.536396 
L 235.900203 147.002462 
L 236.153641 154.596375 
L 236.407079 146.901373 
L 236.660518 146.80408 
L 237.167394 153.021445 
L 237.420833 148.10923 
L 237.674271 148.918995 
L 237.927709 149.34569 
L 238.181148 146.525586 
L 238.434586 150.55018 
L 238.941463 146.102332 
L 239.194901 146.84115 
L 239.44834 149.015027 
L 239.701778 144.27394 
L 239.955216 151.246179 
L 240.208655 147.392101 
L 240.462093 147.725105 
L 240.96897 153.78168 
L 241.222408 154.485784 
L 241.475847 150.80529 
L 241.729285 151.486043 
L 241.982723 148.177274 
L 242.4896 152.714625 
L 242.743038 153.860948 
L 242.996477 157.526167 
L 243.249915 145.279956 
L 243.503353 151.153208 
L 244.01023 148.759015 
L 244.263669 152.356715 
L 244.517107 147.536582 
L 244.770545 150.091852 
L 245.023984 145.651574 
L 245.277422 147.33786 
L 245.53086 152.684682 
L 245.784299 150.63991 
L 246.291175 152.211146 
L 246.544614 150.10729 
L 246.798052 152.514856 
L 247.051491 151.379471 
L 247.304929 147.648458 
L 247.811806 155.284341 
L 248.065244 148.075791 
L 248.318682 146.779587 
L 248.572121 156.640693 
L 248.825559 151.157695 
L 249.078997 148.247738 
L 249.332436 147.798491 
L 249.585874 156.629878 
L 249.839313 178.358357 
L 250.092751 149.840847 
L 250.346189 149.239074 
L 250.599628 154.041116 
L 250.853066 149.43598 
L 251.106504 150.182761 
L 251.613381 147.64254 
L 251.86682 154.886456 
L 252.120258 152.06179 
L 252.373696 150.57772 
L 252.627135 163.740163 
L 252.880573 152.213631 
L 253.134011 152.05306 
L 253.38745 149.837862 
L 253.640888 149.958686 
L 253.894326 148.094007 
L 254.147765 152.43725 
L 254.401203 154.624977 
L 254.654642 149.512688 
L 254.90808 150.304433 
L 255.161518 152.409581 
L 255.414957 156.338438 
L 255.668395 153.75313 
L 255.921833 149.382011 
L 256.175272 152.088169 
L 256.42871 152.868436 
L 256.935587 156.925548 
L 257.442464 150.941422 
L 257.695902 150.45334 
L 257.94934 155.206465 
L 258.202779 154.886971 
L 258.456217 153.360893 
L 258.709655 153.570245 
L 258.963094 149.628668 
L 259.216532 150.897153 
L 259.46997 153.54778 
L 259.723409 152.599481 
L 259.976847 153.837529 
L 260.483724 157.856493 
L 260.737162 151.365064 
L 260.990601 154.879685 
L 261.244039 151.426788 
L 261.497477 151.109528 
L 261.750916 151.379434 
L 262.004354 150.016779 
L 262.257792 151.044563 
L 262.511231 159.045157 
L 262.764669 150.285763 
L 263.018108 157.775926 
L 263.271546 152.134608 
L 263.524984 153.347227 
L 263.778423 152.987277 
L 264.031861 154.490815 
L 264.285299 161.270946 
L 264.538738 156.777073 
L 264.792176 154.801453 
L 265.045614 150.616471 
L 265.299053 156.741307 
L 265.552491 154.574252 
L 265.80593 157.293237 
L 266.059368 153.71909 
L 266.312806 153.154329 
L 266.566245 159.168333 
L 266.819683 157.279804 
L 267.073121 160.921536 
L 267.32656 153.512353 
L 267.579998 155.675567 
L 267.833437 158.802204 
L 268.086875 153.279402 
L 268.340313 155.663059 
L 268.593752 154.715216 
L 268.84719 157.194291 
L 269.100628 155.790795 
L 269.354067 152.44517 
L 269.607505 155.712979 
L 269.860943 151.118681 
L 270.114382 156.342408 
L 270.36782 155.233125 
L 270.621259 156.703784 
L 270.874697 155.194575 
L 271.128135 156.38162 
L 271.381574 154.915284 
L 271.88845 159.989218 
L 272.141889 152.099837 
L 272.395327 153.945074 
L 272.648765 153.979349 
L 272.902204 152.107472 
L 273.155642 157.091667 
L 273.409081 155.331887 
L 273.662519 156.591006 
L 273.915957 154.714445 
L 274.169396 155.289634 
L 274.422834 152.155961 
L 274.676272 152.595476 
L 275.183149 155.740765 
L 275.436587 153.233866 
L 275.690026 161.400908 
L 275.943464 154.234569 
L 276.196903 158.930213 
L 276.450341 189.936752 
L 276.703779 155.746181 
L 276.957218 155.85531 
L 277.210656 166.138289 
L 277.464094 151.501194 
L 277.717533 156.065414 
L 277.970971 153.942338 
L 278.224409 154.606171 
L 278.477848 154.339067 
L 278.731286 156.488462 
L 278.984725 155.522148 
L 279.238163 155.436857 
L 279.491601 157.78048 
L 279.74504 154.610271 
L 279.998478 158.105213 
L 280.251916 155.733268 
L 280.505355 164.327243 
L 280.758793 157.398496 
L 281.012231 154.637504 
L 281.26567 185.078649 
L 281.519108 166.341817 
L 281.772547 160.181417 
L 282.025985 158.817497 
L 282.279423 154.134245 
L 282.532862 153.28793 
L 282.7863 161.539089 
L 283.039738 154.403456 
L 283.293177 158.301453 
L 283.546615 155.306535 
L 283.800053 155.330482 
L 284.053492 161.099933 
L 284.30693 157.284511 
L 284.560369 157.582911 
L 284.813807 155.355139 
L 285.320684 164.203828 
L 285.574122 161.696582 
L 285.82756 156.537067 
L 286.080999 156.33226 
L 286.334437 154.508844 
L 286.587876 154.587875 
L 286.841314 161.81521 
L 287.094752 160.481855 
L 287.601629 157.002953 
L 287.855067 159.824637 
L 288.108506 155.88596 
L 288.361944 155.969264 
L 288.615382 157.411752 
L 288.868821 156.302338 
L 289.122259 156.636571 
L 289.375698 166.626559 
L 289.629136 157.771149 
L 289.882574 157.995652 
L 290.136013 157.773968 
L 290.389451 156.801335 
L 290.642889 157.886029 
L 290.896328 159.969031 
L 291.149766 166.428787 
L 291.403204 157.663022 
L 291.656643 161.30875 
L 291.910081 156.877082 
L 292.16352 159.198047 
L 292.416958 158.739553 
L 292.670396 164.214756 
L 292.923835 163.212338 
L 293.177273 156.293477 
L 293.430711 165.573759 
L 293.68415 156.155761 
L 293.937588 170.486154 
L 294.444465 157.957919 
L 294.697903 158.219668 
L 294.951342 160.35503 
L 295.20478 157.668592 
L 295.458218 157.842729 
L 295.711657 161.166374 
L 295.965095 156.749468 
L 296.218533 165.52151 
L 296.471972 159.77218 
L 296.72541 159.015789 
L 296.978848 161.912831 
L 297.232287 157.811445 
L 297.485725 161.221924 
L 297.739164 159.015248 
L 297.992602 161.467325 
L 298.24604 158.352296 
L 298.499479 162.595154 
L 298.752917 157.104922 
L 299.006355 161.660543 
L 299.259794 161.173141 
L 299.513232 157.833764 
L 299.76667 157.135523 
L 300.020109 159.760682 
L 300.273547 157.443825 
L 300.780424 162.362581 
L 301.033862 159.720051 
L 301.287301 162.493358 
L 301.540739 157.677036 
L 301.794177 159.108817 
L 302.047616 159.319772 
L 302.301054 158.790922 
L 302.554492 157.043075 
L 302.807931 162.557373 
L 303.061369 159.423883 
L 303.314808 157.755459 
L 303.568246 161.555767 
L 303.821684 161.179123 
L 304.075123 161.309204 
L 304.328561 158.562262 
L 304.581999 160.100904 
L 304.835438 158.671531 
L 305.342315 162.773849 
L 305.595753 160.654494 
L 305.849191 159.851359 
L 306.10263 179.811052 
L 306.356068 164.344031 
L 306.609506 162.300243 
L 306.862945 164.931267 
L 307.116383 160.116717 
L 307.369821 163.034942 
L 307.62326 158.64554 
L 308.130137 162.580594 
L 308.383575 168.980467 
L 308.637013 158.59129 
L 308.890452 160.339834 
L 309.14389 160.403654 
L 309.397328 163.749029 
L 309.650767 160.106104 
L 309.904205 160.539442 
L 310.157643 159.22524 
L 310.411082 166.23035 
L 310.66452 162.086433 
L 310.917959 162.886723 
L 311.171397 160.055884 
L 311.424835 160.127884 
L 311.678274 164.074437 
L 311.931712 159.781634 
L 312.18515 160.340307 
L 312.438589 163.375229 
L 312.692027 159.640562 
L 312.945465 170.833733 
L 313.198904 161.509058 
L 313.452342 178.86537 
L 313.705781 163.709805 
L 313.959219 160.429835 
L 314.212657 162.726415 
L 314.466096 163.411983 
L 314.719534 162.976717 
L 314.972972 166.08373 
L 315.226411 158.371572 
L 315.479849 164.975276 
L 315.733287 161.057314 
L 315.986726 159.387474 
L 316.493603 162.782819 
L 316.747041 159.415504 
L 317.000479 161.595493 
L 317.253918 161.167444 
L 317.507356 158.607653 
L 317.760794 161.328542 
L 318.014233 173.500228 
L 318.267671 159.429004 
L 318.521109 163.325266 
L 318.774548 162.061303 
L 319.027986 158.736137 
L 319.534863 164.366517 
L 319.788301 164.230086 
L 320.04174 164.503117 
L 320.295178 160.746913 
L 320.548616 160.234369 
L 320.802055 162.489117 
L 321.308931 163.328978 
L 321.56237 159.603491 
L 321.815808 161.692566 
L 322.069247 161.54768 
L 322.322685 160.013549 
L 322.576123 160.307187 
L 322.829562 162.747541 
L 323.083 160.045913 
L 323.336438 162.695226 
L 323.589877 166.859286 
L 323.843315 161.733067 
L 324.096754 160.644343 
L 324.350192 165.20073 
L 324.60363 160.03223 
L 324.857069 160.352305 
L 325.110507 160.358889 
L 325.363945 159.922564 
L 325.617384 162.328301 
L 325.870822 161.310661 
L 326.377699 164.785598 
L 326.631137 169.209878 
L 326.884576 161.998318 
L 327.138014 162.612557 
L 327.391452 162.313717 
L 327.644891 164.243343 
L 327.898329 167.028846 
L 328.151767 161.668624 
L 328.405206 161.786843 
L 328.658644 164.28251 
L 329.165521 160.679287 
L 329.418959 165.098327 
L 329.672398 162.920184 
L 329.925836 163.66017 
L 330.179274 160.076117 
L 330.432713 161.688089 
L 330.686151 164.63903 
L 330.939589 160.845134 
L 331.193028 161.966993 
L 331.446466 164.480201 
L 331.699904 164.142945 
L 331.953343 163.217561 
L 332.206781 159.736599 
L 332.713658 161.235415 
L 332.967096 165.760463 
L 333.220535 161.842091 
L 333.473973 160.690437 
L 333.727411 161.090515 
L 333.98085 163.103397 
L 334.487726 161.863479 
L 334.741165 163.482347 
L 334.994603 161.99346 
L 335.248042 164.748915 
L 335.50148 208.785297 
L 335.754918 164.40826 
L 336.008357 163.335551 
L 336.515233 171.625275 
L 336.768672 161.922938 
L 337.275548 161.308778 
L 337.528987 164.592553 
L 337.782425 169.756616 
L 338.035864 162.720288 
L 338.289302 162.192301 
L 338.54274 162.683161 
L 338.796179 161.871694 
L 339.049617 165.778603 
L 339.556494 160.782767 
L 339.809932 169.467189 
L 340.063371 170.535188 
L 340.316809 161.252425 
L 340.570247 161.594621 
L 340.823686 160.622256 
L 341.330562 164.712795 
L 341.837439 160.744348 
L 342.090877 167.576354 
L 342.344316 168.858662 
L 342.597754 164.809018 
L 342.851193 163.78472 
L 343.358069 169.130434 
L 343.611508 165.446093 
L 343.864946 166.079979 
L 344.371823 163.318983 
L 344.625261 166.070427 
L 344.878699 166.923389 
L 345.132138 174.893428 
L 345.639015 162.522004 
L 345.892453 164.048345 
L 346.145891 163.020064 
L 346.39933 175.506436 
L 346.652768 166.111167 
L 346.906206 166.472032 
L 347.159645 162.543155 
L 347.413083 163.355911 
L 347.666521 167.158211 
L 347.91996 167.307615 
L 348.173398 163.548594 
L 348.426837 166.430811 
L 348.680275 162.626004 
L 348.933713 163.372005 
L 349.187152 165.419862 
L 349.694028 163.740849 
L 349.947467 167.082942 
L 350.200905 166.535657 
L 350.454343 164.384922 
L 350.707782 164.681155 
L 350.96122 166.21589 
L 351.214659 163.04319 
L 351.468097 161.6124 
L 351.721535 164.890538 
L 351.974974 164.937097 
L 352.228412 163.90451 
L 352.48185 163.838114 
L 352.735289 162.794802 
L 352.988727 163.543935 
L 353.242165 162.398837 
L 353.495604 172.09567 
L 353.749042 174.403809 
L 354.002481 162.424165 
L 354.255919 162.61799 
L 354.509357 168.474721 
L 354.762796 166.639772 
L 355.016234 162.601058 
L 355.269672 167.410653 
L 355.523111 165.735499 
L 355.776549 177.287529 
L 356.029987 162.929401 
L 356.283426 161.51133 
L 356.536864 164.047681 
L 356.790303 161.861115 
L 357.043741 160.798741 
L 357.297179 182.078877 
L 357.550618 163.659062 
L 357.804056 164.737016 
L 358.057494 164.887532 
L 358.310933 161.951052 
L 358.564371 166.197867 
L 358.81781 162.442126 
L 359.071248 164.958786 
L 359.324686 164.317029 
L 359.831563 167.454231 
L 360.085001 160.609072 
L 360.33844 159.138436 
L 360.591878 276.334125 
L 360.845316 164.669296 
L 361.352193 174.264084 
L 361.605632 162.616941 
L 361.85907 163.874838 
L 362.112508 170.301269 
L 362.365947 166.095725 
L 362.872823 164.694917 
L 363.126262 163.662048 
L 363.3797 166.536833 
L 363.633138 163.813374 
L 363.886577 166.106342 
L 364.140015 162.670944 
L 364.393454 161.819372 
L 364.90033 165.29785 
L 365.153769 165.995939 
L 365.407207 170.788213 
L 365.660645 164.263926 
L 365.914084 166.063513 
L 366.167522 164.068424 
L 366.42096 179.210183 
L 366.674399 167.258825 
L 366.927837 168.546702 
L 367.181276 154.927521 
L 367.434714 164.713619 
L 367.688152 165.47536 
L 367.941591 163.743642 
L 368.195029 172.907491 
L 368.448467 166.606802 
L 368.701906 168.772661 
L 368.955344 164.202988 
L 369.208782 163.744076 
L 369.462221 167.966807 
L 369.715659 164.165161 
L 369.969098 169.54158 
L 370.222536 164.565449 
L 370.475974 168.382223 
L 370.729413 165.281425 
L 370.982851 182.844151 
L 371.236289 177.23688 
L 371.489728 167.660973 
L 371.743166 167.310237 
L 371.996604 163.270972 
L 372.250043 164.871699 
L 372.503481 165.50843 
L 372.75692 165.523854 
L 373.010358 162.562004 
L 373.263796 165.516633 
L 373.517235 164.98053 
L 373.770673 162.532236 
L 374.024111 164.536057 
L 374.27755 168.084959 
L 374.530988 168.484816 
L 374.784426 165.410897 
L 375.037865 166.277624 
L 375.291303 166.470648 
L 375.544742 170.058456 
L 375.79818 165.521526 
L 376.051618 166.342484 
L 376.305057 165.775011 
L 376.558495 164.704296 
L 377.065372 168.233622 
L 377.31881 165.492558 
L 377.825687 165.820261 
L 378.079125 165.959669 
L 378.332564 190.21479 
L 378.586002 241.137973 
L 378.83944 167.119717 
L 379.092879 168.125322 
L 379.346317 166.228142 
L 379.599755 167.974938 
L 379.853194 166.877943 
L 380.106632 195.753509 
L 380.360071 165.953606 
L 380.613509 165.908499 
L 380.866947 164.960457 
L 381.120386 173.642818 
L 381.373824 168.2425 
L 381.627262 169.148758 
L 381.880701 187.916792 
L 382.134139 171.305539 
L 382.387577 168.91473 
L 382.641016 175.41529 
L 382.894454 167.943425 
L 383.147893 167.943184 
L 383.401331 167.482906 
L 383.654769 165.994621 
L 383.908208 167.825627 
L 384.161646 176.595978 
L 384.415084 173.547372 
L 384.668523 166.164353 
L 384.668523 166.164353 
" style="fill:none;stroke:#1f77b4;stroke-linecap:square;stroke-width:0.5;"/>
   </g>
   <g id="patch_3">
    <path d="M 43.78125 288.430125 
L 43.78125 22.318125 
" style="fill:none;stroke:#000000;stroke-linecap:square;stroke-linejoin:miter;stroke-width:0.8;"/>
   </g>
   <g id="patch_4">
    <path d="M 400.90125 288.430125 
L 400.90125 22.318125 
" style="fill:none;stroke:#000000;stroke-linecap:square;stroke-linejoin:miter;stroke-width:0.8;"/>
   </g>
   <g id="patch_5">
    <path d="M 43.78125 288.430125 
L 400.90125 288.430125 
" style="fill:none;stroke:#000000;stroke-linecap:square;stroke-linejoin:miter;stroke-width:0.8;"/>
   </g>
   <g id="patch_6">
    <path d="M 43.78125 22.318125 
L 400.90125 22.318125 
" style="fill:none;stroke:#000000;stroke-linecap:square;stroke-linejoin:miter;stroke-width:0.8;"/>
   </g>
   <g id="text_16">
    <!-- Average maxQ per episode, joint3 -->
    <defs>
     <path d="M 34.1875 63.1875 
L 20.796875 26.90625 
L 47.609375 26.90625 
z
M 28.609375 72.90625 
L 39.796875 72.90625 
L 67.578125 0 
L 57.328125 0 
L 50.6875 18.703125 
L 17.828125 18.703125 
L 11.1875 0 
L 0.78125 0 
z
" id="DejaVuSans-41"/>
     <path d="M 11.71875 12.40625 
L 22.015625 12.40625 
L 22.015625 4 
L 14.015625 -11.625 
L 7.71875 -11.625 
L 11.71875 4 
z
" id="DejaVuSans-2c"/>
     <path d="M 9.421875 54.6875 
L 18.40625 54.6875 
L 18.40625 -0.984375 
Q 18.40625 -11.421875 14.421875 -16.109375 
Q 10.453125 -20.796875 1.609375 -20.796875 
L -1.8125 -20.796875 
L -1.8125 -13.1875 
L 0.59375 -13.1875 
Q 5.71875 -13.1875 7.5625 -10.8125 
Q 9.421875 -8.453125 9.421875 -0.984375 
z
M 9.421875 75.984375 
L 18.40625 75.984375 
L 18.40625 64.59375 
L 9.421875 64.59375 
z
" id="DejaVuSans-6a"/>
     <path d="M 54.890625 33.015625 
L 54.890625 0 
L 45.90625 0 
L 45.90625 32.71875 
Q 45.90625 40.484375 42.875 44.328125 
Q 39.84375 48.1875 33.796875 48.1875 
Q 26.515625 48.1875 22.3125 43.546875 
Q 18.109375 38.921875 18.109375 30.90625 
L 18.109375 0 
L 9.078125 0 
L 9.078125 54.6875 
L 18.109375 54.6875 
L 18.109375 46.1875 
Q 21.34375 51.125 25.703125 53.5625 
Q 30.078125 56 35.796875 56 
Q 45.21875 56 50.046875 50.171875 
Q 54.890625 44.34375 54.890625 33.015625 
z
" id="DejaVuSans-6e"/>
     <path d="M 18.3125 70.21875 
L 18.3125 54.6875 
L 36.8125 54.6875 
L 36.8125 47.703125 
L 18.3125 47.703125 
L 18.3125 18.015625 
Q 18.3125 11.328125 20.140625 9.421875 
Q 21.96875 7.515625 27.59375 7.515625 
L 36.8125 7.515625 
L 36.8125 0 
L 27.59375 0 
Q 17.1875 0 13.234375 3.875 
Q 9.28125 7.765625 9.28125 18.015625 
L 9.28125 47.703125 
L 2.6875 47.703125 
L 2.6875 54.6875 
L 9.28125 54.6875 
L 9.28125 70.21875 
z
" id="DejaVuSans-74"/>
    </defs>
    <g transform="translate(119.61375 16.318125)scale(0.12 -0.12)">
     <use xlink:href="#DejaVuSans-41"/>
     <use x="68.330078" xlink:href="#DejaVuSans-76"/>
     <use x="127.509766" xlink:href="#DejaVuSans-65"/>
     <use x="189.033203" xlink:href="#DejaVuSans-72"/>
     <use x="230.146484" xlink:href="#DejaVuSans-61"/>
     <use x="291.425781" xlink:href="#DejaVuSans-67"/>
     <use x="354.902344" xlink:href="#DejaVuSans-65"/>
     <use x="416.425781" xlink:href="#DejaVuSans-20"/>
     <use x="448.212891" xlink:href="#DejaVuSans-6d"/>
     <use x="545.625" xlink:href="#DejaVuSans-61"/>
     <use x="606.904297" xlink:href="#DejaVuSans-78"/>
     <use x="666.083984" xlink:href="#DejaVuSans-51"/>
     <use x="744.794922" xlink:href="#DejaVuSans-20"/>
     <use x="776.582031" xlink:href="#DejaVuSans-70"/>
     <use x="840.058594" xlink:href="#DejaVuSans-65"/>
     <use x="901.582031" xlink:href="#DejaVuSans-72"/>
     <use x="942.695312" xlink:href="#DejaVuSans-20"/>
     <use x="974.482422" xlink:href="#DejaVuSans-65"/>
     <use x="1036.005859" xlink:href="#DejaVuSans-70"/>
     <use x="1099.482422" xlink:href="#DejaVuSans-69"/>
     <use x="1127.265625" xlink:href="#DejaVuSans-73"/>
     <use x="1179.365234" xlink:href="#DejaVuSans-6f"/>
     <use x="1240.546875" xlink:href="#DejaVuSans-64"/>
     <use x="1304.023438" xlink:href="#DejaVuSans-65"/>
     <use x="1365.546875" xlink:href="#DejaVuSans-2c"/>
     <use x="1397.333984" xlink:href="#DejaVuSans-20"/>
     <use x="1429.121094" xlink:href="#DejaVuSans-6a"/>
     <use x="1456.904297" xlink:href="#DejaVuSans-6f"/>
     <use x="1518.085938" xlink:href="#DejaVuSans-69"/>
     <use x="1545.869141" xlink:href="#DejaVuSans-6e"/>
     <use x="1609.248047" xlink:href="#DejaVuSans-74"/>
     <use x="1648.457031" xlink:href="#DejaVuSans-33"/>
    </g>
   </g>
  </g>
 </g>
 <defs>
  <clipPath id="pf7e21d8626">
   <rect height="266.112" width="357.12" x="43.78125" y="22.318125"/>
  </clipPath>
 </defs>
</svg>
