<?xml version="1.0" encoding="utf-8" standalone="no"?>
<!DOCTYPE svg PUBLIC "-//W3C//DTD SVG 1.1//EN"
  "http://www.w3.org/Graphics/SVG/1.1/DTD/svg11.dtd">
<!-- Created with matplotlib (http://matplotlib.org/) -->
<svg height="408pt" version="1.1" viewBox="0 0 508 408" width="508pt" xmlns="http://www.w3.org/2000/svg" xmlns:xlink="http://www.w3.org/1999/xlink">
 <defs>
  <style type="text/css">
*{stroke-linecap:butt;stroke-linejoin:round;stroke-miterlimit:100000;}
  </style>
 </defs>
 <g id="figure_1">
  <g id="patch_1">
   <path d="M 0 408.16925 
L 508.13625 408.16925 
L 508.13625 0 
L 0 0 
z
" style="fill:#ffffff;"/>
  </g>
  <g id="axes_1">
   <g id="patch_2">
    <path d="M 43.08375 368.74175 
L 489.48375 368.74175 
L 489.48375 23.14175 
L 43.08375 23.14175 
z
" style="fill:#ffffff;"/>
   </g>
   <g id="line2d_1">
    <path clip-path="url(#pfc55e83e01)" d="M 43.97655 323.552399 
L 44.86935 347.749734 
L 45.76215 342.16436 
L 46.65495 347.769131 
L 47.54775 352.181735 
L 48.44055 335.684145 
L 49.33335 342.672421 
L 50.22615 355.51351 
L 51.11895 317.677006 
L 52.01175 351.102981 
L 52.90455 222.542454 
L 53.79735 336.387974 
L 54.69015 342.351662 
L 55.58295 301.593702 
L 56.47575 359.109066 
L 57.36855 352.367314 
L 58.26135 357.513182 
L 59.15415 319.365828 
L 60.04695 358.850423 
L 60.93975 355.519493 
L 61.83255 325.524546 
L 62.72535 335.935718 
L 63.61815 314.011095 
L 64.51095 359.532593 
L 65.40375 335.904386 
L 66.29655 346.27204 
L 67.18935 344.055478 
L 68.08215 349.668524 
L 68.97495 324.135011 
L 69.86775 359.535054 
L 70.76055 352.265613 
L 71.65335 350.683217 
L 72.54615 339.92396 
L 73.43895 333.399058 
L 74.33175 357.055674 
L 75.22455 355.888672 
L 76.11735 345.287222 
L 77.01015 361.373425 
L 77.90295 345.453341 
L 78.79575 351.309149 
L 79.68855 341.753313 
L 80.58135 346.250977 
L 81.47415 308.191127 
L 82.36695 285.728855 
L 83.25975 360.554375 
L 84.15255 343.486486 
L 85.04535 339.870778 
L 85.93815 342.749711 
L 86.83095 354.626584 
L 87.72375 320.412813 
L 88.61655 344.973249 
L 89.50935 346.576767 
L 90.40215 343.554142 
L 91.29495 283.215972 
L 92.18775 340.274824 
L 93.08055 324.289138 
L 93.97335 264.03541 
L 94.86615 345.188908 
L 95.75895 279.579685 
L 96.65175 351.124617 
L 97.54455 330.102823 
L 98.43735 330.887063 
L 99.33015 345.872116 
L 100.22295 342.15091 
L 101.11575 324.283841 
L 102.00855 349.353746 
L 102.90135 360.271874 
L 103.79415 340.885868 
L 104.68695 273.572077 
L 105.57975 358.700343 
L 106.47255 342.990177 
L 107.36535 347.283777 
L 108.25815 342.138331 
L 109.15095 358.04289 
L 110.04375 259.514093 
L 110.93655 313.179585 
L 111.82935 297.303011 
L 112.72215 277.519357 
L 113.61495 328.796393 
L 114.50775 309.460491 
L 115.40055 326.547398 
L 116.29335 354.542547 
L 117.18615 350.805716 
L 118.07895 356.618014 
L 118.97175 348.919537 
L 119.86455 357.848609 
L 120.75735 259.786264 
L 121.65015 343.556135 
L 122.54295 342.166416 
L 123.43575 340.176578 
L 124.32855 353.13554 
L 125.22135 343.462896 
L 126.11415 340.931734 
L 127.00695 242.356033 
L 127.89975 351.683495 
L 128.79255 338.762823 
L 129.68535 354.372015 
L 130.57815 343.496187 
L 131.47095 336.877449 
L 132.36375 343.986561 
L 133.25655 349.637048 
L 134.14935 348.527553 
L 135.04215 359.43321 
L 136.82775 240.766141 
L 137.72055 330.064062 
L 138.61335 280.395856 
L 139.50615 349.420225 
L 140.39895 339.433027 
L 141.29175 346.75726 
L 142.18455 346.913344 
L 143.07735 244.566922 
L 143.97015 255.86456 
L 144.86295 318.877759 
L 145.75575 338.709802 
L 146.64855 301.982696 
L 148.43415 335.199971 
L 149.32695 339.438443 
L 150.21975 261.378798 
L 151.11255 356.064889 
L 152.00535 359.027367 
L 152.89815 355.380346 
L 153.79095 340.306786 
L 154.68375 344.47291 
L 155.57655 326.417749 
L 156.46935 289.253754 
L 157.36215 352.99094 
L 158.25495 340.794019 
L 159.14775 326.837794 
L 160.04055 351.314958 
L 160.93335 328.652842 
L 161.82615 354.921265 
L 162.71895 346.830207 
L 163.61175 346.416785 
L 164.50455 359.424009 
L 165.39735 350.598678 
L 166.29015 324.639133 
L 167.18295 317.22243 
L 168.07575 321.586434 
L 168.96855 356.833931 
L 169.86135 320.164556 
L 170.75415 351.669559 
L 171.64695 341.300142 
L 172.53975 352.405295 
L 173.43255 356.640789 
L 174.32535 361.623861 
L 175.21815 350.654854 
L 176.11095 346.211923 
L 177.00375 352.922864 
L 177.89655 338.894855 
L 178.78935 357.411819 
L 179.68215 357.439065 
L 180.57495 315.610419 
L 181.46775 267.255776 
L 182.36055 341.375373 
L 183.25335 343.541869 
L 184.14615 349.501582 
L 185.03895 339.730813 
L 185.93175 216.708145 
L 186.82455 359.868065 
L 187.71735 337.015212 
L 188.61015 352.151334 
L 189.50295 352.662862 
L 190.39575 346.527315 
L 191.28855 350.993258 
L 192.18135 348.868787 
L 193.07415 326.186627 
L 193.96695 350.182362 
L 194.85975 330.012358 
L 195.75255 349.237241 
L 196.64535 348.232269 
L 197.53815 347.953943 
L 198.43095 251.940661 
L 199.32375 348.69018 
L 200.21655 351.432991 
L 201.10935 348.119605 
L 202.00215 277.122463 
L 202.89495 356.629393 
L 203.78775 340.4874 
L 204.68055 335.675873 
L 205.57335 356.359585 
L 206.46615 351.336781 
L 207.35895 328.718151 
L 208.25175 346.359628 
L 209.14455 338.320236 
L 210.03735 335.384722 
L 210.93015 338.662706 
L 211.82295 339.251691 
L 212.71575 333.01971 
L 214.50135 350.45712 
L 215.39415 349.612497 
L 216.28695 358.405032 
L 217.17975 355.689247 
L 218.07255 351.767178 
L 218.96535 304.366021 
L 219.85815 357.089551 
L 220.75095 353.269755 
L 221.64375 350.065049 
L 222.53655 342.746984 
L 223.42935 362.009909 
L 224.32215 343.320581 
L 225.21495 356.676741 
L 226.10775 343.699567 
L 227.00055 360.271757 
L 227.89335 346.014978 
L 228.78615 297.497753 
L 229.67895 324.905333 
L 230.57175 346.070024 
L 231.46455 340.235032 
L 232.35735 330.258246 
L 233.25015 276.982487 
L 234.14295 337.293855 
L 235.03575 285.378361 
L 235.92855 345.49541 
L 236.82135 296.67287 
L 237.71415 345.74233 
L 238.60695 359.367608 
L 239.49975 351.962031 
L 240.39255 348.680926 
L 241.28535 342.786484 
L 242.17815 354.780436 
L 243.07095 357.346937 
L 243.96375 334.287739 
L 244.85655 314.760111 
L 245.74935 353.253303 
L 246.64215 331.538105 
L 247.53495 340.93343 
L 248.42775 302.831039 
L 249.32055 238.967591 
L 250.21335 342.828619 
L 251.10615 351.227822 
L 251.99895 361.592817 
L 252.89175 352.141798 
L 253.78455 300.934731 
L 254.67735 360.042515 
L 255.57015 352.908369 
L 256.46295 352.167173 
L 257.35575 347.018245 
L 258.24855 340.006041 
L 259.14135 356.096823 
L 260.03415 314.338599 
L 260.92695 297.374138 
L 261.81975 348.318201 
L 262.71255 328.016649 
L 263.60535 358.138543 
L 264.49815 306.062424 
L 265.39095 359.083417 
L 266.28375 345.375514 
L 267.17655 349.503569 
L 268.06935 345.236106 
L 268.96215 350.234717 
L 269.85495 267.989721 
L 270.74775 342.357711 
L 271.64055 322.249956 
L 272.53335 218.310789 
L 273.42615 345.349012 
L 274.31895 342.306348 
L 275.21175 336.07117 
L 276.10455 257.230148 
L 276.99735 229.683816 
L 277.89015 318.557219 
L 278.78295 316.131991 
L 279.67575 332.206055 
L 280.56855 255.240154 
L 281.46135 213.648992 
L 282.35415 257.598559 
L 283.24695 255.266881 
L 284.13975 269.30605 
L 285.03255 347.958369 
L 285.92535 257.036876 
L 286.81815 346.493236 
L 287.71095 249.768144 
L 288.60375 202.381619 
L 289.49655 194.456956 
L 290.38935 345.245981 
L 291.28215 226.931917 
L 292.17495 329.08085 
L 293.06775 327.055644 
L 293.96055 334.69124 
L 294.85335 265.235458 
L 295.74615 206.393379 
L 296.63895 224.063912 
L 297.53175 205.603949 
L 298.42455 345.992304 
L 299.31735 193.467408 
L 300.21015 336.132675 
L 301.10295 188.800843 
L 301.99575 155.641786 
L 302.88855 259.352557 
L 303.78135 346.217413 
L 304.67415 327.272902 
L 305.56695 263.838636 
L 306.45975 333.237199 
L 307.35255 316.295463 
L 308.24535 146.56269 
L 309.13815 251.945084 
L 310.03095 304.7874 
L 310.92375 277.730849 
L 311.81655 351.541512 
L 312.70935 258.25324 
L 313.60215 177.138886 
L 314.49495 352.561058 
L 315.38775 350.234403 
L 316.28055 192.197535 
L 317.17335 242.38068 
L 318.06615 197.46188 
L 318.95895 200.529004 
L 319.85175 337.683278 
L 320.74455 239.791507 
L 321.63735 253.076002 
L 322.53015 332.256593 
L 323.42295 346.611743 
L 324.31575 253.292108 
L 325.20855 353.125055 
L 326.10135 226.155684 
L 326.99415 167.892759 
L 327.88695 227.986763 
L 328.77975 266.752202 
L 329.67255 198.01486 
L 330.56535 181.156919 
L 331.45815 216.361265 
L 332.35095 350.047786 
L 333.24375 186.398984 
L 334.13655 173.845028 
L 335.92215 216.754113 
L 336.81495 147.727975 
L 337.70775 165.894787 
L 338.60055 180.680777 
L 339.49335 165.431008 
L 340.38615 193.014194 
L 341.27895 188.869255 
L 342.17175 166.834413 
L 343.06455 221.35631 
L 343.95735 210.448899 
L 344.85015 164.630536 
L 345.74295 179.861095 
L 346.63575 178.362328 
L 347.52855 210.359425 
L 348.42135 99.821307 
L 349.31415 208.157575 
L 350.20695 189.009482 
L 351.09975 206.105115 
L 351.99255 192.881204 
L 352.88535 204.233846 
L 353.77815 211.693337 
L 354.67095 222.995865 
L 355.56375 129.329673 
L 356.45655 125.651716 
L 358.24215 244.305303 
L 359.13495 192.114448 
L 360.02775 159.395515 
L 360.92055 170.70377 
L 361.81335 120.565022 
L 362.70615 167.412896 
L 363.59895 225.443806 
L 364.49175 149.734618 
L 365.38455 96.494454 
L 366.27735 120.785091 
L 367.17015 101.522612 
L 368.06295 99.65602 
L 368.95575 210.653487 
L 369.84855 136.164925 
L 370.74135 220.559729 
L 371.63415 206.864758 
L 373.41975 157.156062 
L 374.31255 185.238826 
L 375.20535 94.643354 
L 376.09815 227.246888 
L 376.99095 195.481764 
L 377.88375 182.37892 
L 378.77655 223.965264 
L 379.66935 180.235682 
L 380.56215 181.5223 
L 381.45495 140.255134 
L 382.34775 156.139888 
L 383.24055 87.986359 
L 384.13335 161.773494 
L 385.02615 196.230417 
L 385.91895 90.938661 
L 386.81175 120.677711 
L 387.70455 157.762769 
L 388.59735 228.435729 
L 389.49015 223.206643 
L 390.38295 186.492329 
L 391.27575 215.100985 
L 392.16855 176.673063 
L 393.06135 186.721648 
L 393.95415 202.777886 
L 394.84695 205.301644 
L 395.73975 244.008707 
L 396.63255 212.362746 
L 397.52535 110.4481 
L 398.41815 96.778039 
L 399.31095 254.679164 
L 400.20375 91.95568 
L 401.09655 194.993264 
L 401.98935 250.868344 
L 402.88215 213.555479 
L 403.77495 232.813849 
L 404.66775 217.222468 
L 405.56055 194.138283 
L 406.45335 185.922121 
L 407.34615 146.637148 
L 408.23895 245.312874 
L 409.13175 91.385387 
L 410.02455 209.169373 
L 410.91735 186.398962 
L 411.81015 203.841788 
L 412.70295 23.703158 
L 413.59575 163.222004 
L 414.48855 159.870346 
L 415.38135 245.47859 
L 416.27415 283.284418 
L 417.16695 172.161409 
L 418.05975 224.470405 
L 418.95255 217.90073 
L 420.73815 91.231033 
L 421.63095 167.322182 
L 422.52375 142.136302 
L 423.41655 124.651713 
L 424.30935 247.399899 
L 425.20215 197.612623 
L 426.09495 185.983961 
L 427.88055 188.687585 
L 428.77335 114.892958 
L 429.66615 188.593575 
L 430.55895 233.642794 
L 431.45175 144.117448 
L 432.34455 120.70567 
L 433.23735 108.604719 
L 434.13015 164.439281 
L 435.02295 89.07986 
L 435.91575 196.619621 
L 436.80855 108.554277 
L 437.70135 88.897753 
L 438.59415 152.659414 
L 439.48695 196.169601 
L 440.37975 231.164624 
L 441.27255 249.816184 
L 442.16535 234.175039 
L 443.05815 131.02336 
L 443.95095 151.238011 
L 444.84375 280.638259 
L 445.73655 190.82981 
L 446.62935 222.216662 
L 447.52215 167.311134 
L 448.41495 212.884966 
L 449.30775 42.669154 
L 450.20055 121.838438 
L 451.98615 216.748164 
L 452.87895 88.045723 
L 453.77175 185.119998 
L 454.66455 178.957327 
L 455.55735 147.755371 
L 456.45015 172.657773 
L 457.34295 129.979534 
L 458.23575 226.330874 
L 459.12855 79.687102 
L 460.02135 104.075092 
L 460.91415 79.753202 
L 461.80695 147.698819 
L 462.69975 105.070907 
L 463.59255 145.087884 
L 464.48535 97.550464 
L 466.27095 93.462712 
L 467.16375 96.006438 
L 468.05655 176.711734 
L 468.94935 121.985427 
L 469.84215 45.052793 
L 470.73495 205.963678 
L 471.62775 258.913765 
L 472.52055 101.92524 
L 473.41335 190.987581 
L 474.30615 153.411588 
L 475.19895 160.887775 
L 476.98455 283.971553 
L 477.87735 181.100297 
L 478.77015 223.915657 
L 480.55575 124.951614 
L 481.44855 65.907573 
L 482.34135 183.393075 
L 483.23415 146.560685 
L 484.12695 186.798335 
L 485.01975 170.263617 
L 485.91255 174.623941 
L 486.80535 195.238453 
L 487.69815 189.222351 
L 488.59095 104.661678 
L 489.48375 167.356669 
L 489.48375 167.356669 
" style="fill:none;stroke:#0000ff;stroke-linecap:square;stroke-width:0.5;"/>
   </g>
   <g id="patch_3">
    <path d="M 43.08375 23.14175 
L 489.48375 23.14175 
" style="fill:none;stroke:#000000;stroke-linecap:square;stroke-linejoin:miter;"/>
   </g>
   <g id="patch_4">
    <path d="M 43.08375 368.74175 
L 489.48375 368.74175 
" style="fill:none;stroke:#000000;stroke-linecap:square;stroke-linejoin:miter;"/>
   </g>
   <g id="patch_5">
    <path d="M 43.08375 368.74175 
L 43.08375 23.14175 
" style="fill:none;stroke:#000000;stroke-linecap:square;stroke-linejoin:miter;"/>
   </g>
   <g id="patch_6">
    <path d="M 489.48375 368.74175 
L 489.48375 23.14175 
" style="fill:none;stroke:#000000;stroke-linecap:square;stroke-linejoin:miter;"/>
   </g>
   <g id="matplotlib.axis_1">
    <g id="xtick_1">
     <g id="line2d_2">
      <defs>
       <path d="M 0 0 
L 0 -4 
" id="m8cbe84142d" style="stroke:#000000;stroke-width:0.5;"/>
      </defs>
      <g>
       <use style="stroke:#000000;stroke-width:0.5;" x="43.08375" xlink:href="#m8cbe84142d" y="368.74175"/>
      </g>
     </g>
     <g id="line2d_3">
      <defs>
       <path d="M 0 0 
L 0 4 
" id="ma51ae42c84" style="stroke:#000000;stroke-width:0.5;"/>
      </defs>
      <g>
       <use style="stroke:#000000;stroke-width:0.5;" x="43.08375" xlink:href="#ma51ae42c84" y="23.14175"/>
      </g>
     </g>
     <g id="text_1">
      <!-- 0 -->
      <defs>
       <path d="M 31.78125 66.40625 
Q 24.171875 66.40625 20.328125 58.90625 
Q 16.5 51.421875 16.5 36.375 
Q 16.5 21.390625 20.328125 13.890625 
Q 24.171875 6.390625 31.78125 6.390625 
Q 39.453125 6.390625 43.28125 13.890625 
Q 47.125 21.390625 47.125 36.375 
Q 47.125 51.421875 43.28125 58.90625 
Q 39.453125 66.40625 31.78125 66.40625 
M 31.78125 74.21875 
Q 44.046875 74.21875 50.515625 64.515625 
Q 56.984375 54.828125 56.984375 36.375 
Q 56.984375 17.96875 50.515625 8.265625 
Q 44.046875 -1.421875 31.78125 -1.421875 
Q 19.53125 -1.421875 13.0625 8.265625 
Q 6.59375 17.96875 6.59375 36.375 
Q 6.59375 54.828125 13.0625 64.515625 
Q 19.53125 74.21875 31.78125 74.21875 
" id="BitstreamVeraSans-Roman-30"/>
      </defs>
      <g transform="translate(39.26625 381.859875)scale(0.12 -0.12)">
       <use xlink:href="#BitstreamVeraSans-Roman-30"/>
      </g>
     </g>
    </g>
    <g id="xtick_2">
     <g id="line2d_4">
      <g>
       <use style="stroke:#000000;stroke-width:0.5;" x="132.36375" xlink:href="#m8cbe84142d" y="368.74175"/>
      </g>
     </g>
     <g id="line2d_5">
      <g>
       <use style="stroke:#000000;stroke-width:0.5;" x="132.36375" xlink:href="#ma51ae42c84" y="23.14175"/>
      </g>
     </g>
     <g id="text_2">
      <!-- 100 -->
      <defs>
       <path d="M 12.40625 8.296875 
L 28.515625 8.296875 
L 28.515625 63.921875 
L 10.984375 60.40625 
L 10.984375 69.390625 
L 28.421875 72.90625 
L 38.28125 72.90625 
L 38.28125 8.296875 
L 54.390625 8.296875 
L 54.390625 0 
L 12.40625 0 
z
" id="BitstreamVeraSans-Roman-31"/>
      </defs>
      <g transform="translate(120.91125 381.859875)scale(0.12 -0.12)">
       <use xlink:href="#BitstreamVeraSans-Roman-31"/>
       <use x="63.623046875" xlink:href="#BitstreamVeraSans-Roman-30"/>
       <use x="127.24609375" xlink:href="#BitstreamVeraSans-Roman-30"/>
      </g>
     </g>
    </g>
    <g id="xtick_3">
     <g id="line2d_6">
      <g>
       <use style="stroke:#000000;stroke-width:0.5;" x="221.64375" xlink:href="#m8cbe84142d" y="368.74175"/>
      </g>
     </g>
     <g id="line2d_7">
      <g>
       <use style="stroke:#000000;stroke-width:0.5;" x="221.64375" xlink:href="#ma51ae42c84" y="23.14175"/>
      </g>
     </g>
     <g id="text_3">
      <!-- 200 -->
      <defs>
       <path d="M 19.1875 8.296875 
L 53.609375 8.296875 
L 53.609375 0 
L 7.328125 0 
L 7.328125 8.296875 
Q 12.9375 14.109375 22.625 23.890625 
Q 32.328125 33.6875 34.8125 36.53125 
Q 39.546875 41.84375 41.421875 45.53125 
Q 43.3125 49.21875 43.3125 52.78125 
Q 43.3125 58.59375 39.234375 62.25 
Q 35.15625 65.921875 28.609375 65.921875 
Q 23.96875 65.921875 18.8125 64.3125 
Q 13.671875 62.703125 7.8125 59.421875 
L 7.8125 69.390625 
Q 13.765625 71.78125 18.9375 73 
Q 24.125 74.21875 28.421875 74.21875 
Q 39.75 74.21875 46.484375 68.546875 
Q 53.21875 62.890625 53.21875 53.421875 
Q 53.21875 48.921875 51.53125 44.890625 
Q 49.859375 40.875 45.40625 35.40625 
Q 44.1875 33.984375 37.640625 27.21875 
Q 31.109375 20.453125 19.1875 8.296875 
" id="BitstreamVeraSans-Roman-32"/>
      </defs>
      <g transform="translate(210.19125 381.859875)scale(0.12 -0.12)">
       <use xlink:href="#BitstreamVeraSans-Roman-32"/>
       <use x="63.623046875" xlink:href="#BitstreamVeraSans-Roman-30"/>
       <use x="127.24609375" xlink:href="#BitstreamVeraSans-Roman-30"/>
      </g>
     </g>
    </g>
    <g id="xtick_4">
     <g id="line2d_8">
      <g>
       <use style="stroke:#000000;stroke-width:0.5;" x="310.92375" xlink:href="#m8cbe84142d" y="368.74175"/>
      </g>
     </g>
     <g id="line2d_9">
      <g>
       <use style="stroke:#000000;stroke-width:0.5;" x="310.92375" xlink:href="#ma51ae42c84" y="23.14175"/>
      </g>
     </g>
     <g id="text_4">
      <!-- 300 -->
      <defs>
       <path d="M 40.578125 39.3125 
Q 47.65625 37.796875 51.625 33 
Q 55.609375 28.21875 55.609375 21.1875 
Q 55.609375 10.40625 48.1875 4.484375 
Q 40.765625 -1.421875 27.09375 -1.421875 
Q 22.515625 -1.421875 17.65625 -0.515625 
Q 12.796875 0.390625 7.625 2.203125 
L 7.625 11.71875 
Q 11.71875 9.328125 16.59375 8.109375 
Q 21.484375 6.890625 26.8125 6.890625 
Q 36.078125 6.890625 40.9375 10.546875 
Q 45.796875 14.203125 45.796875 21.1875 
Q 45.796875 27.640625 41.28125 31.265625 
Q 36.765625 34.90625 28.71875 34.90625 
L 20.21875 34.90625 
L 20.21875 43.015625 
L 29.109375 43.015625 
Q 36.375 43.015625 40.234375 45.921875 
Q 44.09375 48.828125 44.09375 54.296875 
Q 44.09375 59.90625 40.109375 62.90625 
Q 36.140625 65.921875 28.71875 65.921875 
Q 24.65625 65.921875 20.015625 65.03125 
Q 15.375 64.15625 9.8125 62.3125 
L 9.8125 71.09375 
Q 15.4375 72.65625 20.34375 73.4375 
Q 25.25 74.21875 29.59375 74.21875 
Q 40.828125 74.21875 47.359375 69.109375 
Q 53.90625 64.015625 53.90625 55.328125 
Q 53.90625 49.265625 50.4375 45.09375 
Q 46.96875 40.921875 40.578125 39.3125 
" id="BitstreamVeraSans-Roman-33"/>
      </defs>
      <g transform="translate(299.47125 381.859875)scale(0.12 -0.12)">
       <use xlink:href="#BitstreamVeraSans-Roman-33"/>
       <use x="63.623046875" xlink:href="#BitstreamVeraSans-Roman-30"/>
       <use x="127.24609375" xlink:href="#BitstreamVeraSans-Roman-30"/>
      </g>
     </g>
    </g>
    <g id="xtick_5">
     <g id="line2d_10">
      <g>
       <use style="stroke:#000000;stroke-width:0.5;" x="400.20375" xlink:href="#m8cbe84142d" y="368.74175"/>
      </g>
     </g>
     <g id="line2d_11">
      <g>
       <use style="stroke:#000000;stroke-width:0.5;" x="400.20375" xlink:href="#ma51ae42c84" y="23.14175"/>
      </g>
     </g>
     <g id="text_5">
      <!-- 400 -->
      <defs>
       <path d="M 37.796875 64.3125 
L 12.890625 25.390625 
L 37.796875 25.390625 
z
M 35.203125 72.90625 
L 47.609375 72.90625 
L 47.609375 25.390625 
L 58.015625 25.390625 
L 58.015625 17.1875 
L 47.609375 17.1875 
L 47.609375 0 
L 37.796875 0 
L 37.796875 17.1875 
L 4.890625 17.1875 
L 4.890625 26.703125 
z
" id="BitstreamVeraSans-Roman-34"/>
      </defs>
      <g transform="translate(388.75125 381.859875)scale(0.12 -0.12)">
       <use xlink:href="#BitstreamVeraSans-Roman-34"/>
       <use x="63.623046875" xlink:href="#BitstreamVeraSans-Roman-30"/>
       <use x="127.24609375" xlink:href="#BitstreamVeraSans-Roman-30"/>
      </g>
     </g>
    </g>
    <g id="xtick_6">
     <g id="line2d_12">
      <g>
       <use style="stroke:#000000;stroke-width:0.5;" x="489.48375" xlink:href="#m8cbe84142d" y="368.74175"/>
      </g>
     </g>
     <g id="line2d_13">
      <g>
       <use style="stroke:#000000;stroke-width:0.5;" x="489.48375" xlink:href="#ma51ae42c84" y="23.14175"/>
      </g>
     </g>
     <g id="text_6">
      <!-- 500 -->
      <defs>
       <path d="M 10.796875 72.90625 
L 49.515625 72.90625 
L 49.515625 64.59375 
L 19.828125 64.59375 
L 19.828125 46.734375 
Q 21.96875 47.46875 24.109375 47.828125 
Q 26.265625 48.1875 28.421875 48.1875 
Q 40.625 48.1875 47.75 41.5 
Q 54.890625 34.8125 54.890625 23.390625 
Q 54.890625 11.625 47.5625 5.09375 
Q 40.234375 -1.421875 26.90625 -1.421875 
Q 22.3125 -1.421875 17.546875 -0.640625 
Q 12.796875 0.140625 7.71875 1.703125 
L 7.71875 11.625 
Q 12.109375 9.234375 16.796875 8.0625 
Q 21.484375 6.890625 26.703125 6.890625 
Q 35.15625 6.890625 40.078125 11.328125 
Q 45.015625 15.765625 45.015625 23.390625 
Q 45.015625 31 40.078125 35.4375 
Q 35.15625 39.890625 26.703125 39.890625 
Q 22.75 39.890625 18.8125 39.015625 
Q 14.890625 38.140625 10.796875 36.28125 
z
" id="BitstreamVeraSans-Roman-35"/>
      </defs>
      <g transform="translate(478.03125 381.859875)scale(0.12 -0.12)">
       <use xlink:href="#BitstreamVeraSans-Roman-35"/>
       <use x="63.623046875" xlink:href="#BitstreamVeraSans-Roman-30"/>
       <use x="127.24609375" xlink:href="#BitstreamVeraSans-Roman-30"/>
      </g>
     </g>
    </g>
    <g id="text_7">
     <!-- episodes -->
     <defs>
      <path d="M 18.109375 8.203125 
L 18.109375 -20.796875 
L 9.078125 -20.796875 
L 9.078125 54.6875 
L 18.109375 54.6875 
L 18.109375 46.390625 
Q 20.953125 51.265625 25.265625 53.625 
Q 29.59375 56 35.59375 56 
Q 45.5625 56 51.78125 48.09375 
Q 58.015625 40.1875 58.015625 27.296875 
Q 58.015625 14.40625 51.78125 6.484375 
Q 45.5625 -1.421875 35.59375 -1.421875 
Q 29.59375 -1.421875 25.265625 0.953125 
Q 20.953125 3.328125 18.109375 8.203125 
M 48.6875 27.296875 
Q 48.6875 37.203125 44.609375 42.84375 
Q 40.53125 48.484375 33.40625 48.484375 
Q 26.265625 48.484375 22.1875 42.84375 
Q 18.109375 37.203125 18.109375 27.296875 
Q 18.109375 17.390625 22.1875 11.75 
Q 26.265625 6.109375 33.40625 6.109375 
Q 40.53125 6.109375 44.609375 11.75 
Q 48.6875 17.390625 48.6875 27.296875 
" id="BitstreamVeraSans-Roman-70"/>
      <path d="M 56.203125 29.59375 
L 56.203125 25.203125 
L 14.890625 25.203125 
Q 15.484375 15.921875 20.484375 11.0625 
Q 25.484375 6.203125 34.421875 6.203125 
Q 39.59375 6.203125 44.453125 7.46875 
Q 49.3125 8.734375 54.109375 11.28125 
L 54.109375 2.78125 
Q 49.265625 0.734375 44.1875 -0.34375 
Q 39.109375 -1.421875 33.890625 -1.421875 
Q 20.796875 -1.421875 13.15625 6.1875 
Q 5.515625 13.8125 5.515625 26.8125 
Q 5.515625 40.234375 12.765625 48.109375 
Q 20.015625 56 32.328125 56 
Q 43.359375 56 49.78125 48.890625 
Q 56.203125 41.796875 56.203125 29.59375 
M 47.21875 32.234375 
Q 47.125 39.59375 43.09375 43.984375 
Q 39.0625 48.390625 32.421875 48.390625 
Q 24.90625 48.390625 20.390625 44.140625 
Q 15.875 39.890625 15.1875 32.171875 
z
" id="BitstreamVeraSans-Roman-65"/>
      <path d="M 44.28125 53.078125 
L 44.28125 44.578125 
Q 40.484375 46.53125 36.375 47.5 
Q 32.28125 48.484375 27.875 48.484375 
Q 21.1875 48.484375 17.84375 46.4375 
Q 14.5 44.390625 14.5 40.28125 
Q 14.5 37.15625 16.890625 35.375 
Q 19.28125 33.59375 26.515625 31.984375 
L 29.59375 31.296875 
Q 39.15625 29.25 43.1875 25.515625 
Q 47.21875 21.78125 47.21875 15.09375 
Q 47.21875 7.46875 41.1875 3.015625 
Q 35.15625 -1.421875 24.609375 -1.421875 
Q 20.21875 -1.421875 15.453125 -0.5625 
Q 10.6875 0.296875 5.421875 2 
L 5.421875 11.28125 
Q 10.40625 8.6875 15.234375 7.390625 
Q 20.0625 6.109375 24.8125 6.109375 
Q 31.15625 6.109375 34.5625 8.28125 
Q 37.984375 10.453125 37.984375 14.40625 
Q 37.984375 18.0625 35.515625 20.015625 
Q 33.0625 21.96875 24.703125 23.78125 
L 21.578125 24.515625 
Q 13.234375 26.265625 9.515625 29.90625 
Q 5.8125 33.546875 5.8125 39.890625 
Q 5.8125 47.609375 11.28125 51.796875 
Q 16.75 56 26.8125 56 
Q 31.78125 56 36.171875 55.265625 
Q 40.578125 54.546875 44.28125 53.078125 
" id="BitstreamVeraSans-Roman-73"/>
      <path d="M 9.421875 54.6875 
L 18.40625 54.6875 
L 18.40625 0 
L 9.421875 0 
z
M 9.421875 75.984375 
L 18.40625 75.984375 
L 18.40625 64.59375 
L 9.421875 64.59375 
z
" id="BitstreamVeraSans-Roman-69"/>
      <path d="M 30.609375 48.390625 
Q 23.390625 48.390625 19.1875 42.75 
Q 14.984375 37.109375 14.984375 27.296875 
Q 14.984375 17.484375 19.15625 11.84375 
Q 23.34375 6.203125 30.609375 6.203125 
Q 37.796875 6.203125 41.984375 11.859375 
Q 46.1875 17.53125 46.1875 27.296875 
Q 46.1875 37.015625 41.984375 42.703125 
Q 37.796875 48.390625 30.609375 48.390625 
M 30.609375 56 
Q 42.328125 56 49.015625 48.375 
Q 55.71875 40.765625 55.71875 27.296875 
Q 55.71875 13.875 49.015625 6.21875 
Q 42.328125 -1.421875 30.609375 -1.421875 
Q 18.84375 -1.421875 12.171875 6.21875 
Q 5.515625 13.875 5.515625 27.296875 
Q 5.515625 40.765625 12.171875 48.375 
Q 18.84375 56 30.609375 56 
" id="BitstreamVeraSans-Roman-6f"/>
      <path d="M 45.40625 46.390625 
L 45.40625 75.984375 
L 54.390625 75.984375 
L 54.390625 0 
L 45.40625 0 
L 45.40625 8.203125 
Q 42.578125 3.328125 38.25 0.953125 
Q 33.9375 -1.421875 27.875 -1.421875 
Q 17.96875 -1.421875 11.734375 6.484375 
Q 5.515625 14.40625 5.515625 27.296875 
Q 5.515625 40.1875 11.734375 48.09375 
Q 17.96875 56 27.875 56 
Q 33.9375 56 38.25 53.625 
Q 42.578125 51.265625 45.40625 46.390625 
M 14.796875 27.296875 
Q 14.796875 17.390625 18.875 11.75 
Q 22.953125 6.109375 30.078125 6.109375 
Q 37.203125 6.109375 41.296875 11.75 
Q 45.40625 17.390625 45.40625 27.296875 
Q 45.40625 37.203125 41.296875 42.84375 
Q 37.203125 48.484375 30.078125 48.484375 
Q 22.953125 48.484375 18.875 42.84375 
Q 14.796875 37.203125 14.796875 27.296875 
" id="BitstreamVeraSans-Roman-64"/>
     </defs>
     <g transform="translate(239.6925 398.473625)scale(0.12 -0.12)">
      <use xlink:href="#BitstreamVeraSans-Roman-65"/>
      <use x="61.5234375" xlink:href="#BitstreamVeraSans-Roman-70"/>
      <use x="125.0" xlink:href="#BitstreamVeraSans-Roman-69"/>
      <use x="152.783203125" xlink:href="#BitstreamVeraSans-Roman-73"/>
      <use x="204.8828125" xlink:href="#BitstreamVeraSans-Roman-6f"/>
      <use x="266.064453125" xlink:href="#BitstreamVeraSans-Roman-64"/>
      <use x="329.541015625" xlink:href="#BitstreamVeraSans-Roman-65"/>
      <use x="391.064453125" xlink:href="#BitstreamVeraSans-Roman-73"/>
     </g>
    </g>
   </g>
   <g id="matplotlib.axis_2">
    <g id="ytick_1">
     <g id="line2d_14">
      <defs>
       <path d="M 0 0 
L 4 0 
" id="m5db537e94e" style="stroke:#000000;stroke-width:0.5;"/>
      </defs>
      <g>
       <use style="stroke:#000000;stroke-width:0.5;" x="43.08375" xlink:href="#m5db537e94e" y="368.74175"/>
      </g>
     </g>
     <g id="line2d_15">
      <defs>
       <path d="M 0 0 
L -4 0 
" id="mb6166d7c6e" style="stroke:#000000;stroke-width:0.5;"/>
      </defs>
      <g>
       <use style="stroke:#000000;stroke-width:0.5;" x="489.48375" xlink:href="#mb6166d7c6e" y="368.74175"/>
      </g>
     </g>
     <g id="text_8">
      <!-- 0 -->
      <g transform="translate(31.44875 372.053)scale(0.12 -0.12)">
       <use xlink:href="#BitstreamVeraSans-Roman-30"/>
      </g>
     </g>
    </g>
    <g id="ytick_2">
     <g id="line2d_16">
      <g>
       <use style="stroke:#000000;stroke-width:0.5;" x="43.08375" xlink:href="#m5db537e94e" y="325.54175"/>
      </g>
     </g>
     <g id="line2d_17">
      <g>
       <use style="stroke:#000000;stroke-width:0.5;" x="489.48375" xlink:href="#mb6166d7c6e" y="325.54175"/>
      </g>
     </g>
     <g id="text_9">
      <!-- 2 -->
      <g transform="translate(31.44875 328.853)scale(0.12 -0.12)">
       <use xlink:href="#BitstreamVeraSans-Roman-32"/>
      </g>
     </g>
    </g>
    <g id="ytick_3">
     <g id="line2d_18">
      <g>
       <use style="stroke:#000000;stroke-width:0.5;" x="43.08375" xlink:href="#m5db537e94e" y="282.34175"/>
      </g>
     </g>
     <g id="line2d_19">
      <g>
       <use style="stroke:#000000;stroke-width:0.5;" x="489.48375" xlink:href="#mb6166d7c6e" y="282.34175"/>
      </g>
     </g>
     <g id="text_10">
      <!-- 4 -->
      <g transform="translate(31.44875 285.653)scale(0.12 -0.12)">
       <use xlink:href="#BitstreamVeraSans-Roman-34"/>
      </g>
     </g>
    </g>
    <g id="ytick_4">
     <g id="line2d_20">
      <g>
       <use style="stroke:#000000;stroke-width:0.5;" x="43.08375" xlink:href="#m5db537e94e" y="239.14175"/>
      </g>
     </g>
     <g id="line2d_21">
      <g>
       <use style="stroke:#000000;stroke-width:0.5;" x="489.48375" xlink:href="#mb6166d7c6e" y="239.14175"/>
      </g>
     </g>
     <g id="text_11">
      <!-- 6 -->
      <defs>
       <path d="M 33.015625 40.375 
Q 26.375 40.375 22.484375 35.828125 
Q 18.609375 31.296875 18.609375 23.390625 
Q 18.609375 15.53125 22.484375 10.953125 
Q 26.375 6.390625 33.015625 6.390625 
Q 39.65625 6.390625 43.53125 10.953125 
Q 47.40625 15.53125 47.40625 23.390625 
Q 47.40625 31.296875 43.53125 35.828125 
Q 39.65625 40.375 33.015625 40.375 
M 52.59375 71.296875 
L 52.59375 62.3125 
Q 48.875 64.0625 45.09375 64.984375 
Q 41.3125 65.921875 37.59375 65.921875 
Q 27.828125 65.921875 22.671875 59.328125 
Q 17.53125 52.734375 16.796875 39.40625 
Q 19.671875 43.65625 24.015625 45.921875 
Q 28.375 48.1875 33.59375 48.1875 
Q 44.578125 48.1875 50.953125 41.515625 
Q 57.328125 34.859375 57.328125 23.390625 
Q 57.328125 12.15625 50.6875 5.359375 
Q 44.046875 -1.421875 33.015625 -1.421875 
Q 20.359375 -1.421875 13.671875 8.265625 
Q 6.984375 17.96875 6.984375 36.375 
Q 6.984375 53.65625 15.1875 63.9375 
Q 23.390625 74.21875 37.203125 74.21875 
Q 40.921875 74.21875 44.703125 73.484375 
Q 48.484375 72.75 52.59375 71.296875 
" id="BitstreamVeraSans-Roman-36"/>
      </defs>
      <g transform="translate(31.44875 242.453)scale(0.12 -0.12)">
       <use xlink:href="#BitstreamVeraSans-Roman-36"/>
      </g>
     </g>
    </g>
    <g id="ytick_5">
     <g id="line2d_22">
      <g>
       <use style="stroke:#000000;stroke-width:0.5;" x="43.08375" xlink:href="#m5db537e94e" y="195.94175"/>
      </g>
     </g>
     <g id="line2d_23">
      <g>
       <use style="stroke:#000000;stroke-width:0.5;" x="489.48375" xlink:href="#mb6166d7c6e" y="195.94175"/>
      </g>
     </g>
     <g id="text_12">
      <!-- 8 -->
      <defs>
       <path d="M 31.78125 34.625 
Q 24.75 34.625 20.71875 30.859375 
Q 16.703125 27.09375 16.703125 20.515625 
Q 16.703125 13.921875 20.71875 10.15625 
Q 24.75 6.390625 31.78125 6.390625 
Q 38.8125 6.390625 42.859375 10.171875 
Q 46.921875 13.96875 46.921875 20.515625 
Q 46.921875 27.09375 42.890625 30.859375 
Q 38.875 34.625 31.78125 34.625 
M 21.921875 38.8125 
Q 15.578125 40.375 12.03125 44.71875 
Q 8.5 49.078125 8.5 55.328125 
Q 8.5 64.0625 14.71875 69.140625 
Q 20.953125 74.21875 31.78125 74.21875 
Q 42.671875 74.21875 48.875 69.140625 
Q 55.078125 64.0625 55.078125 55.328125 
Q 55.078125 49.078125 51.53125 44.71875 
Q 48 40.375 41.703125 38.8125 
Q 48.828125 37.15625 52.796875 32.3125 
Q 56.78125 27.484375 56.78125 20.515625 
Q 56.78125 9.90625 50.3125 4.234375 
Q 43.84375 -1.421875 31.78125 -1.421875 
Q 19.734375 -1.421875 13.25 4.234375 
Q 6.78125 9.90625 6.78125 20.515625 
Q 6.78125 27.484375 10.78125 32.3125 
Q 14.796875 37.15625 21.921875 38.8125 
M 18.3125 54.390625 
Q 18.3125 48.734375 21.84375 45.5625 
Q 25.390625 42.390625 31.78125 42.390625 
Q 38.140625 42.390625 41.71875 45.5625 
Q 45.3125 48.734375 45.3125 54.390625 
Q 45.3125 60.0625 41.71875 63.234375 
Q 38.140625 66.40625 31.78125 66.40625 
Q 25.390625 66.40625 21.84375 63.234375 
Q 18.3125 60.0625 18.3125 54.390625 
" id="BitstreamVeraSans-Roman-38"/>
      </defs>
      <g transform="translate(31.44875 199.253)scale(0.12 -0.12)">
       <use xlink:href="#BitstreamVeraSans-Roman-38"/>
      </g>
     </g>
    </g>
    <g id="ytick_6">
     <g id="line2d_24">
      <g>
       <use style="stroke:#000000;stroke-width:0.5;" x="43.08375" xlink:href="#m5db537e94e" y="152.74175"/>
      </g>
     </g>
     <g id="line2d_25">
      <g>
       <use style="stroke:#000000;stroke-width:0.5;" x="489.48375" xlink:href="#mb6166d7c6e" y="152.74175"/>
      </g>
     </g>
     <g id="text_13">
      <!-- 10 -->
      <g transform="translate(23.81375 156.053)scale(0.12 -0.12)">
       <use xlink:href="#BitstreamVeraSans-Roman-31"/>
       <use x="63.623046875" xlink:href="#BitstreamVeraSans-Roman-30"/>
      </g>
     </g>
    </g>
    <g id="ytick_7">
     <g id="line2d_26">
      <g>
       <use style="stroke:#000000;stroke-width:0.5;" x="43.08375" xlink:href="#m5db537e94e" y="109.54175"/>
      </g>
     </g>
     <g id="line2d_27">
      <g>
       <use style="stroke:#000000;stroke-width:0.5;" x="489.48375" xlink:href="#mb6166d7c6e" y="109.54175"/>
      </g>
     </g>
     <g id="text_14">
      <!-- 12 -->
      <g transform="translate(23.81375 112.853)scale(0.12 -0.12)">
       <use xlink:href="#BitstreamVeraSans-Roman-31"/>
       <use x="63.623046875" xlink:href="#BitstreamVeraSans-Roman-32"/>
      </g>
     </g>
    </g>
    <g id="ytick_8">
     <g id="line2d_28">
      <g>
       <use style="stroke:#000000;stroke-width:0.5;" x="43.08375" xlink:href="#m5db537e94e" y="66.34175"/>
      </g>
     </g>
     <g id="line2d_29">
      <g>
       <use style="stroke:#000000;stroke-width:0.5;" x="489.48375" xlink:href="#mb6166d7c6e" y="66.34175"/>
      </g>
     </g>
     <g id="text_15">
      <!-- 14 -->
      <g transform="translate(23.81375 69.653)scale(0.12 -0.12)">
       <use xlink:href="#BitstreamVeraSans-Roman-31"/>
       <use x="63.623046875" xlink:href="#BitstreamVeraSans-Roman-34"/>
      </g>
     </g>
    </g>
    <g id="ytick_9">
     <g id="line2d_30">
      <g>
       <use style="stroke:#000000;stroke-width:0.5;" x="43.08375" xlink:href="#m5db537e94e" y="23.14175"/>
      </g>
     </g>
     <g id="line2d_31">
      <g>
       <use style="stroke:#000000;stroke-width:0.5;" x="489.48375" xlink:href="#mb6166d7c6e" y="23.14175"/>
      </g>
     </g>
     <g id="text_16">
      <!-- 16 -->
      <g transform="translate(23.81375 26.453)scale(0.12 -0.12)">
       <use xlink:href="#BitstreamVeraSans-Roman-31"/>
       <use x="63.623046875" xlink:href="#BitstreamVeraSans-Roman-36"/>
      </g>
     </g>
    </g>
    <g id="text_17">
     <!-- undisc. return -->
     <defs>
      <path d="M 54.890625 33.015625 
L 54.890625 0 
L 45.90625 0 
L 45.90625 32.71875 
Q 45.90625 40.484375 42.875 44.328125 
Q 39.84375 48.1875 33.796875 48.1875 
Q 26.515625 48.1875 22.3125 43.546875 
Q 18.109375 38.921875 18.109375 30.90625 
L 18.109375 0 
L 9.078125 0 
L 9.078125 54.6875 
L 18.109375 54.6875 
L 18.109375 46.1875 
Q 21.34375 51.125 25.703125 53.5625 
Q 30.078125 56 35.796875 56 
Q 45.21875 56 50.046875 50.171875 
Q 54.890625 44.34375 54.890625 33.015625 
" id="BitstreamVeraSans-Roman-6e"/>
      <path d="M 41.109375 46.296875 
Q 39.59375 47.171875 37.8125 47.578125 
Q 36.03125 48 33.890625 48 
Q 26.265625 48 22.1875 43.046875 
Q 18.109375 38.09375 18.109375 28.8125 
L 18.109375 0 
L 9.078125 0 
L 9.078125 54.6875 
L 18.109375 54.6875 
L 18.109375 46.1875 
Q 20.953125 51.171875 25.484375 53.578125 
Q 30.03125 56 36.53125 56 
Q 37.453125 56 38.578125 55.875 
Q 39.703125 55.765625 41.0625 55.515625 
z
" id="BitstreamVeraSans-Roman-72"/>
      <path id="BitstreamVeraSans-Roman-20"/>
      <path d="M 10.6875 12.40625 
L 21 12.40625 
L 21 0 
L 10.6875 0 
z
" id="BitstreamVeraSans-Roman-2e"/>
      <path d="M 48.78125 52.59375 
L 48.78125 44.1875 
Q 44.96875 46.296875 41.140625 47.34375 
Q 37.3125 48.390625 33.40625 48.390625 
Q 24.65625 48.390625 19.8125 42.84375 
Q 14.984375 37.3125 14.984375 27.296875 
Q 14.984375 17.28125 19.8125 11.734375 
Q 24.65625 6.203125 33.40625 6.203125 
Q 37.3125 6.203125 41.140625 7.25 
Q 44.96875 8.296875 48.78125 10.40625 
L 48.78125 2.09375 
Q 45.015625 0.34375 40.984375 -0.53125 
Q 36.96875 -1.421875 32.421875 -1.421875 
Q 20.0625 -1.421875 12.78125 6.34375 
Q 5.515625 14.109375 5.515625 27.296875 
Q 5.515625 40.671875 12.859375 48.328125 
Q 20.21875 56 33.015625 56 
Q 37.15625 56 41.109375 55.140625 
Q 45.0625 54.296875 48.78125 52.59375 
" id="BitstreamVeraSans-Roman-63"/>
      <path d="M 18.3125 70.21875 
L 18.3125 54.6875 
L 36.8125 54.6875 
L 36.8125 47.703125 
L 18.3125 47.703125 
L 18.3125 18.015625 
Q 18.3125 11.328125 20.140625 9.421875 
Q 21.96875 7.515625 27.59375 7.515625 
L 36.8125 7.515625 
L 36.8125 0 
L 27.59375 0 
Q 17.1875 0 13.234375 3.875 
Q 9.28125 7.765625 9.28125 18.015625 
L 9.28125 47.703125 
L 2.6875 47.703125 
L 2.6875 54.6875 
L 9.28125 54.6875 
L 9.28125 70.21875 
z
" id="BitstreamVeraSans-Roman-74"/>
      <path d="M 8.5 21.578125 
L 8.5 54.6875 
L 17.484375 54.6875 
L 17.484375 21.921875 
Q 17.484375 14.15625 20.5 10.265625 
Q 23.53125 6.390625 29.59375 6.390625 
Q 36.859375 6.390625 41.078125 11.03125 
Q 45.3125 15.671875 45.3125 23.6875 
L 45.3125 54.6875 
L 54.296875 54.6875 
L 54.296875 0 
L 45.3125 0 
L 45.3125 8.40625 
Q 42.046875 3.421875 37.71875 1 
Q 33.40625 -1.421875 27.6875 -1.421875 
Q 18.265625 -1.421875 13.375 4.4375 
Q 8.5 10.296875 8.5 21.578125 
" id="BitstreamVeraSans-Roman-75"/>
     </defs>
     <g transform="translate(16.318125 237.8405)rotate(-90.0)scale(0.12 -0.12)">
      <use xlink:href="#BitstreamVeraSans-Roman-75"/>
      <use x="63.37890625" xlink:href="#BitstreamVeraSans-Roman-6e"/>
      <use x="126.7578125" xlink:href="#BitstreamVeraSans-Roman-64"/>
      <use x="190.234375" xlink:href="#BitstreamVeraSans-Roman-69"/>
      <use x="218.017578125" xlink:href="#BitstreamVeraSans-Roman-73"/>
      <use x="270.1171875" xlink:href="#BitstreamVeraSans-Roman-63"/>
      <use x="325.09765625" xlink:href="#BitstreamVeraSans-Roman-2e"/>
      <use x="356.884765625" xlink:href="#BitstreamVeraSans-Roman-20"/>
      <use x="388.671875" xlink:href="#BitstreamVeraSans-Roman-72"/>
      <use x="429.75390625" xlink:href="#BitstreamVeraSans-Roman-65"/>
      <use x="491.27734375" xlink:href="#BitstreamVeraSans-Roman-74"/>
      <use x="530.486328125" xlink:href="#BitstreamVeraSans-Roman-75"/>
      <use x="593.865234375" xlink:href="#BitstreamVeraSans-Roman-72"/>
      <use x="634.962890625" xlink:href="#BitstreamVeraSans-Roman-6e"/>
     </g>
    </g>
   </g>
   <g id="text_18">
    <!-- Undiscounted return obtained -->
    <defs>
     <path d="M 48.6875 27.296875 
Q 48.6875 37.203125 44.609375 42.84375 
Q 40.53125 48.484375 33.40625 48.484375 
Q 26.265625 48.484375 22.1875 42.84375 
Q 18.109375 37.203125 18.109375 27.296875 
Q 18.109375 17.390625 22.1875 11.75 
Q 26.265625 6.109375 33.40625 6.109375 
Q 40.53125 6.109375 44.609375 11.75 
Q 48.6875 17.390625 48.6875 27.296875 
M 18.109375 46.390625 
Q 20.953125 51.265625 25.265625 53.625 
Q 29.59375 56 35.59375 56 
Q 45.5625 56 51.78125 48.09375 
Q 58.015625 40.1875 58.015625 27.296875 
Q 58.015625 14.40625 51.78125 6.484375 
Q 45.5625 -1.421875 35.59375 -1.421875 
Q 29.59375 -1.421875 25.265625 0.953125 
Q 20.953125 3.328125 18.109375 8.203125 
L 18.109375 0 
L 9.078125 0 
L 9.078125 75.984375 
L 18.109375 75.984375 
z
" id="BitstreamVeraSans-Roman-62"/>
     <path d="M 34.28125 27.484375 
Q 23.390625 27.484375 19.1875 25 
Q 14.984375 22.515625 14.984375 16.5 
Q 14.984375 11.71875 18.140625 8.90625 
Q 21.296875 6.109375 26.703125 6.109375 
Q 34.1875 6.109375 38.703125 11.40625 
Q 43.21875 16.703125 43.21875 25.484375 
L 43.21875 27.484375 
z
M 52.203125 31.203125 
L 52.203125 0 
L 43.21875 0 
L 43.21875 8.296875 
Q 40.140625 3.328125 35.546875 0.953125 
Q 30.953125 -1.421875 24.3125 -1.421875 
Q 15.921875 -1.421875 10.953125 3.296875 
Q 6 8.015625 6 15.921875 
Q 6 25.140625 12.171875 29.828125 
Q 18.359375 34.515625 30.609375 34.515625 
L 43.21875 34.515625 
L 43.21875 35.40625 
Q 43.21875 41.609375 39.140625 45 
Q 35.0625 48.390625 27.6875 48.390625 
Q 23 48.390625 18.546875 47.265625 
Q 14.109375 46.140625 10.015625 43.890625 
L 10.015625 52.203125 
Q 14.9375 54.109375 19.578125 55.046875 
Q 24.21875 56 28.609375 56 
Q 40.484375 56 46.34375 49.84375 
Q 52.203125 43.703125 52.203125 31.203125 
" id="BitstreamVeraSans-Roman-61"/>
     <path d="M 8.6875 72.90625 
L 18.609375 72.90625 
L 18.609375 28.609375 
Q 18.609375 16.890625 22.84375 11.734375 
Q 27.09375 6.59375 36.625 6.59375 
Q 46.09375 6.59375 50.34375 11.734375 
Q 54.59375 16.890625 54.59375 28.609375 
L 54.59375 72.90625 
L 64.5 72.90625 
L 64.5 27.390625 
Q 64.5 13.140625 57.4375 5.859375 
Q 50.390625 -1.421875 36.625 -1.421875 
Q 22.796875 -1.421875 15.734375 5.859375 
Q 8.6875 13.140625 8.6875 27.390625 
z
" id="BitstreamVeraSans-Roman-55"/>
    </defs>
    <g transform="translate(158.167875 18.14175)scale(0.144 -0.144)">
     <use xlink:href="#BitstreamVeraSans-Roman-55"/>
     <use x="73.193359375" xlink:href="#BitstreamVeraSans-Roman-6e"/>
     <use x="136.572265625" xlink:href="#BitstreamVeraSans-Roman-64"/>
     <use x="200.048828125" xlink:href="#BitstreamVeraSans-Roman-69"/>
     <use x="227.83203125" xlink:href="#BitstreamVeraSans-Roman-73"/>
     <use x="279.931640625" xlink:href="#BitstreamVeraSans-Roman-63"/>
     <use x="334.912109375" xlink:href="#BitstreamVeraSans-Roman-6f"/>
     <use x="396.09375" xlink:href="#BitstreamVeraSans-Roman-75"/>
     <use x="459.47265625" xlink:href="#BitstreamVeraSans-Roman-6e"/>
     <use x="522.8515625" xlink:href="#BitstreamVeraSans-Roman-74"/>
     <use x="562.060546875" xlink:href="#BitstreamVeraSans-Roman-65"/>
     <use x="623.583984375" xlink:href="#BitstreamVeraSans-Roman-64"/>
     <use x="687.060546875" xlink:href="#BitstreamVeraSans-Roman-20"/>
     <use x="718.84765625" xlink:href="#BitstreamVeraSans-Roman-72"/>
     <use x="759.9296875" xlink:href="#BitstreamVeraSans-Roman-65"/>
     <use x="821.453125" xlink:href="#BitstreamVeraSans-Roman-74"/>
     <use x="860.662109375" xlink:href="#BitstreamVeraSans-Roman-75"/>
     <use x="924.041015625" xlink:href="#BitstreamVeraSans-Roman-72"/>
     <use x="965.138671875" xlink:href="#BitstreamVeraSans-Roman-6e"/>
     <use x="1028.517578125" xlink:href="#BitstreamVeraSans-Roman-20"/>
     <use x="1060.3046875" xlink:href="#BitstreamVeraSans-Roman-6f"/>
     <use x="1121.486328125" xlink:href="#BitstreamVeraSans-Roman-62"/>
     <use x="1184.962890625" xlink:href="#BitstreamVeraSans-Roman-74"/>
     <use x="1224.171875" xlink:href="#BitstreamVeraSans-Roman-61"/>
     <use x="1285.451171875" xlink:href="#BitstreamVeraSans-Roman-69"/>
     <use x="1313.234375" xlink:href="#BitstreamVeraSans-Roman-6e"/>
     <use x="1376.61328125" xlink:href="#BitstreamVeraSans-Roman-65"/>
     <use x="1438.13671875" xlink:href="#BitstreamVeraSans-Roman-64"/>
    </g>
   </g>
  </g>
 </g>
 <defs>
  <clipPath id="pfc55e83e01">
   <rect height="345.6" width="446.4" x="43.08375" y="23.14175"/>
  </clipPath>
 </defs>
</svg>
