<?xml version="1.0" encoding="utf-8" standalone="no"?>
<!DOCTYPE svg PUBLIC "-//W3C//DTD SVG 1.1//EN"
  "http://www.w3.org/Graphics/SVG/1.1/DTD/svg11.dtd">
<!-- Created with matplotlib (http://matplotlib.org/) -->
<svg height="408pt" version="1.1" viewBox="0 0 510 408" width="510pt" xmlns="http://www.w3.org/2000/svg" xmlns:xlink="http://www.w3.org/1999/xlink">
 <defs>
  <style type="text/css">
*{stroke-linecap:butt;stroke-linejoin:round;stroke-miterlimit:100000;}
  </style>
 </defs>
 <g id="figure_1">
  <g id="patch_1">
   <path d="M 0 408.16925 
L 510.039375 408.16925 
L 510.039375 0 
L 0 0 
z
" style="fill:#ffffff;"/>
  </g>
  <g id="axes_1">
   <g id="patch_2">
    <path d="M 46.8975 368.74175 
L 493.2975 368.74175 
L 493.2975 23.14175 
L 46.8975 23.14175 
z
" style="fill:#ffffff;"/>
   </g>
   <g id="PathCollection_1">
    <defs>
     <path d="M 0 2.236068 
C 0.593012 2.236068 1.161816 2.000462 1.581139 1.581139 
C 2.000462 1.161816 2.236068 0.593012 2.236068 0 
C 2.236068 -0.593012 2.000462 -1.161816 1.581139 -1.581139 
C 1.161816 -2.000462 0.593012 -2.236068 0 -2.236068 
C -0.593012 -2.236068 -1.161816 -2.000462 -1.581139 -1.581139 
C -2.000462 -1.161816 -2.236068 -0.593012 -2.236068 0 
C -2.236068 0.593012 -2.000462 1.161816 -1.581139 1.581139 
C -1.161816 2.000462 -0.593012 2.236068 0 2.236068 
z
" id="mbf4cf82376" style="stroke:#000000;"/>
    </defs>
    <g clip-path="url(#p5ee5fedffc)">
     <use style="fill:#0000ff;stroke:#000000;" x="90.6694858319" xlink:href="#mbf4cf82376" y="340.556841553"/>
     <use style="fill:#0000ff;stroke:#000000;" x="418.897510352" xlink:href="#mbf4cf82376" y="45.534809082"/>
     <use style="fill:#0000ff;stroke:#000000;" x="417.417335503" xlink:href="#mbf4cf82376" y="47.4801142578"/>
     <use style="fill:#0000ff;stroke:#000000;" x="407.056111564" xlink:href="#mbf4cf82376" y="55.8367329102"/>
     <use style="fill:#0000ff;stroke:#000000;" x="396.694887624" xlink:href="#mbf4cf82376" y="61.8671064453"/>
     <use style="fill:#0000ff;stroke:#000000;" x="386.333663685" xlink:href="#mbf4cf82376" y="68.2116450195"/>
     <use style="fill:#0000ff;stroke:#000000;" x="375.972439746" xlink:href="#mbf4cf82376" y="74.8562421875"/>
     <use style="fill:#0000ff;stroke:#000000;" x="365.611244038" xlink:href="#mbf4cf82376" y="81.6232490234"/>
     <use style="fill:#0000ff;stroke:#000000;" x="355.250076561" xlink:href="#mbf4cf82376" y="86.0648017578"/>
     <use style="fill:#0000ff;stroke:#000000;" x="344.889050242" xlink:href="#mbf4cf82376" y="88.9524702148"/>
     <use style="fill:#0000ff;stroke:#000000;" x="336.008227002" xlink:href="#mbf4cf82376" y="91.0597358398"/>
     <use style="fill:#0000ff;stroke:#000000;" x="334.528080385" xlink:href="#mbf4cf82376" y="93.9437128906"/>
     <use style="fill:#0000ff;stroke:#000000;" x="324.167082297" xlink:href="#mbf4cf82376" y="100.575587891"/>
     <use style="fill:#0000ff;stroke:#000000;" x="313.806197135" xlink:href="#mbf4cf82376" y="105.844213379"/>
     <use style="fill:#0000ff;stroke:#000000;" x="303.445170816" xlink:href="#mbf4cf82376" y="108.010739258"/>
     <use style="fill:#0000ff;stroke:#000000;" x="293.084144497" xlink:href="#mbf4cf82376" y="108.189442871"/>
     <use style="fill:#0000ff;stroke:#000000;" x="282.723089946" xlink:href="#mbf4cf82376" y="107.995248535"/>
     <use style="fill:#0000ff;stroke:#000000;" x="272.361922469" xlink:href="#mbf4cf82376" y="109.346303223"/>
     <use style="fill:#0000ff;stroke:#000000;" x="262.000952613" xlink:href="#mbf4cf82376" y="107.156969727"/>
     <use style="fill:#0000ff;stroke:#000000;" x="251.639756905" xlink:href="#mbf4cf82376" y="107.110958984"/>
     <use style="fill:#0000ff;stroke:#000000;" x="241.278730586" xlink:href="#mbf4cf82376" y="106.987692383"/>
     <use style="fill:#0000ff;stroke:#000000;" x="230.917478415" xlink:href="#mbf4cf82376" y="112.950236328"/>
     <use style="fill:#0000ff;stroke:#000000;" x="220.556508558" xlink:href="#mbf4cf82376" y="111.551127441"/>
     <use style="fill:#0000ff;stroke:#000000;" x="210.195397545" xlink:href="#mbf4cf82376" y="118.155250977"/>
     <use style="fill:#0000ff;stroke:#000000;" x="201.314659" xlink:href="#mbf4cf82376" y="123.573378418"/>
     <use style="fill:#0000ff;stroke:#000000;" x="199.834766466" xlink:href="#mbf4cf82376" y="118.337711914"/>
     <use style="fill:#0000ff;stroke:#000000;" x="192.434118075" xlink:href="#mbf4cf82376" y="120.316041992"/>
     <use style="fill:#0000ff;stroke:#000000;" x="199.834879391" xlink:href="#mbf4cf82376" y="126.131391113"/>
     <use style="fill:#0000ff;stroke:#000000;" x="189.473853072" xlink:href="#mbf4cf82376" y="121.859247559"/>
     <use style="fill:#0000ff;stroke:#000000;" x="179.11277029" xlink:href="#mbf4cf82376" y="127.316068848"/>
     <use style="fill:#0000ff;stroke:#000000;" x="168.751659276" xlink:href="#mbf4cf82376" y="127.805905273"/>
     <use style="fill:#0000ff;stroke:#000000;" x="158.39068942" xlink:href="#mbf4cf82376" y="120.668834961"/>
     <use style="fill:#0000ff;stroke:#000000;" x="148.029578406" xlink:href="#mbf4cf82376" y="125.04664502"/>
     <use style="fill:#0000ff;stroke:#000000;" x="137.668439161" xlink:href="#mbf4cf82376" y="130.553366211"/>
     <use style="fill:#0000ff;stroke:#000000;" x="128.787559459" xlink:href="#mbf4cf82376" y="125.153827637"/>
     <use style="fill:#0000ff;stroke:#000000;" x="127.307469305" xlink:href="#mbf4cf82376" y="119.291215332"/>
     <use style="fill:#0000ff;stroke:#000000;" x="116.94652768" xlink:href="#mbf4cf82376" y="120.647213867"/>
     <use style="fill:#0000ff;stroke:#000000;" x="106.585529592" xlink:href="#mbf4cf82376" y="119.680131348"/>
     <use style="fill:#0000ff;stroke:#000000;" x="96.2246161984" xlink:href="#mbf4cf82376" y="114.379865234"/>
     <use style="fill:#0000ff;stroke:#000000;" x="91.4906539765" xlink:href="#mbf4cf82376" y="113.818310059"/>
     <use style="fill:#0000ff;stroke:#000000;" x="91.4110977544" xlink:href="#mbf4cf82376" y="114.402277344"/>
     <use style="fill:#0000ff;stroke:#000000;" x="91.4136385848" xlink:href="#mbf4cf82376" y="115.272592285"/>
     <use style="fill:#0000ff;stroke:#000000;" x="91.4215998533" xlink:href="#mbf4cf82376" y="120.219472168"/>
     <use style="fill:#0000ff;stroke:#000000;" x="92.7975441936" xlink:href="#mbf4cf82376" y="121.626425293"/>
     <use style="fill:#0000ff;stroke:#000000;" x="100.187210551" xlink:href="#mbf4cf82376" y="122.174665039"/>
     <use style="fill:#0000ff;stroke:#000000;" x="91.7172678141" xlink:href="#mbf4cf82376" y="121.656747559"/>
     <use style="fill:#0000ff;stroke:#000000;" x="91.3208418133" xlink:href="#mbf4cf82376" y="121.937558105"/>
     <use style="fill:#0000ff;stroke:#000000;" x="91.0910095905" xlink:href="#mbf4cf82376" y="123.508646973"/>
     <use style="fill:#0000ff;stroke:#000000;" x="91.2452097626" xlink:href="#mbf4cf82376" y="123.891498535"/>
     <use style="fill:#0000ff;stroke:#000000;" x="92.3047924903" xlink:href="#mbf4cf82376" y="128.213805664"/>
     <use style="fill:#0000ff;stroke:#000000;" x="99.6862999591" xlink:href="#mbf4cf82376" y="139.456840332"/>
     <use style="fill:#0000ff;stroke:#000000;" x="91.5372923295" xlink:href="#mbf4cf82376" y="135.409213379"/>
     <use style="fill:#0000ff;stroke:#000000;" x="91.2224269836" xlink:href="#mbf4cf82376" y="128.629682129"/>
     <use style="fill:#0000ff;stroke:#000000;" x="91.14264491" xlink:href="#mbf4cf82376" y="126.342460449"/>
     <use style="fill:#0000ff;stroke:#000000;" x="90.9772086213" xlink:href="#mbf4cf82376" y="126.79155957"/>
     <use style="fill:#0000ff;stroke:#000000;" x="91.1368010001" xlink:href="#mbf4cf82376" y="132.042123535"/>
     <use style="fill:#0000ff;stroke:#000000;" x="91.0588539706" xlink:href="#mbf4cf82376" y="131.945949219"/>
     <use style="fill:#0000ff;stroke:#000000;" x="92.5030337222" xlink:href="#mbf4cf82376" y="129.916796387"/>
     <use style="fill:#0000ff;stroke:#000000;" x="99.8825085266" xlink:href="#mbf4cf82376" y="130.175722168"/>
     <use style="fill:#0000ff;stroke:#000000;" x="91.4115212261" xlink:href="#mbf4cf82376" y="130.476901367"/>
     <use style="fill:#0000ff;stroke:#000000;" x="91.1505214841" xlink:href="#mbf4cf82376" y="125.924804199"/>
     <use style="fill:#0000ff;stroke:#000000;" x="92.0961620854" xlink:href="#mbf4cf82376" y="127.857584961"/>
     <use style="fill:#0000ff;stroke:#000000;" x="92.2851434021" xlink:href="#mbf4cf82376" y="128.63680127"/>
     <use style="fill:#0000ff;stroke:#000000;" x="92.501198678" xlink:href="#mbf4cf82376" y="124.511061523"/>
     <use style="fill:#0000ff;stroke:#000000;" x="91.8792880975" xlink:href="#mbf4cf82376" y="122.903915527"/>
     <use style="fill:#0000ff;stroke:#000000;" x="92.5265505188" xlink:href="#mbf4cf82376" y="125.883671387"/>
     <use style="fill:#0000ff;stroke:#000000;" x="92.641988912" xlink:href="#mbf4cf82376" y="129.56037793"/>
     <use style="fill:#0000ff;stroke:#000000;" x="93.0288726832" xlink:href="#mbf4cf82376" y="134.528153809"/>
     <use style="fill:#0000ff;stroke:#000000;" x="92.7742532486" xlink:href="#mbf4cf82376" y="135.461156738"/>
     <use style="fill:#0000ff;stroke:#000000;" x="92.7330353337" xlink:href="#mbf4cf82376" y="129.834135254"/>
     <use style="fill:#0000ff;stroke:#000000;" x="92.766348443" xlink:href="#mbf4cf82376" y="130.591269043"/>
     <use style="fill:#0000ff;stroke:#000000;" x="92.6579396805" xlink:href="#mbf4cf82376" y="135.946642578"/>
     <use style="fill:#0000ff;stroke:#000000;" x="92.8770439528" xlink:href="#mbf4cf82376" y="137.731964844"/>
     <use style="fill:#0000ff;stroke:#000000;" x="92.7382016887" xlink:href="#mbf4cf82376" y="132.235526855"/>
     <use style="fill:#0000ff;stroke:#000000;" x="92.6887401909" xlink:href="#mbf4cf82376" y="132.99055127"/>
     <use style="fill:#0000ff;stroke:#000000;" x="92.731482604" xlink:href="#mbf4cf82376" y="138.824950684"/>
     <use style="fill:#0000ff;stroke:#000000;" x="92.7306074291" xlink:href="#mbf4cf82376" y="144.853083008"/>
     <use style="fill:#0000ff;stroke:#000000;" x="92.844577787" xlink:href="#mbf4cf82376" y="140.400126465"/>
     <use style="fill:#0000ff;stroke:#000000;" x="92.6987058922" xlink:href="#mbf4cf82376" y="134.781344727"/>
     <use style="fill:#0000ff;stroke:#000000;" x="92.752317413" xlink:href="#mbf4cf82376" y="135.734188965"/>
     <use style="fill:#0000ff;stroke:#000000;" x="92.5017350755" xlink:href="#mbf4cf82376" y="141.42383252"/>
     <use style="fill:#0000ff;stroke:#000000;" x="92.5444210258" xlink:href="#mbf4cf82376" y="149.055419434"/>
     <use style="fill:#0000ff;stroke:#000000;" x="92.3439495095" xlink:href="#mbf4cf82376" y="146.56062207"/>
     <use style="fill:#0000ff;stroke:#000000;" x="92.4312411485" xlink:href="#mbf4cf82376" y="142.527365234"/>
     <use style="fill:#0000ff;stroke:#000000;" x="92.5390005876" xlink:href="#mbf4cf82376" y="143.669525879"/>
     <use style="fill:#0000ff;stroke:#000000;" x="93.8367720469" xlink:href="#mbf4cf82376" y="146.279811523"/>
     <use style="fill:#0000ff;stroke:#000000;" x="101.232931637" xlink:href="#mbf4cf82376" y="143.648498047"/>
     <use style="fill:#0000ff;stroke:#000000;" x="94.2545692543" xlink:href="#mbf4cf82376" y="144.412355469"/>
     <use style="fill:#0000ff;stroke:#000000;" x="101.653975461" xlink:href="#mbf4cf82376" y="148.757997559"/>
     <use style="fill:#0000ff;stroke:#000000;" x="92.775918904" xlink:href="#mbf4cf82376" y="162.586730469"/>
     <use style="fill:#0000ff;stroke:#000000;" x="91.6135737035" xlink:href="#mbf4cf82376" y="179.454281738"/>
     <use style="fill:#0000ff;stroke:#000000;" x="91.0243833719" xlink:href="#mbf4cf82376" y="195.165005615"/>
     <use style="fill:#0000ff;stroke:#000000;" x="91.0153493084" xlink:href="#mbf4cf82376" y="203.3511604"/>
     <use style="fill:#0000ff;stroke:#000000;" x="91.0169867324" xlink:href="#mbf4cf82376" y="210.755528076"/>
     <use style="fill:#0000ff;stroke:#000000;" x="90.9665371338" xlink:href="#mbf4cf82376" y="208.988168457"/>
     <use style="fill:#0000ff;stroke:#000000;" x="90.9592251886" xlink:href="#mbf4cf82376" y="210.636414307"/>
     <use style="fill:#0000ff;stroke:#000000;" x="90.907956878" xlink:href="#mbf4cf82376" y="208.077775391"/>
     <use style="fill:#0000ff;stroke:#000000;" x="90.6945271268" xlink:href="#mbf4cf82376" y="199.806586426"/>
     <use style="fill:#0000ff;stroke:#000000;" x="90.9601285949" xlink:href="#mbf4cf82376" y="200.534320801"/>
     <use style="fill:#0000ff;stroke:#000000;" x="90.974921874" xlink:href="#mbf4cf82376" y="207.457553223"/>
     <use style="fill:#0000ff;stroke:#000000;" x="90.9525061038" xlink:href="#mbf4cf82376" y="213.666630371"/>
     <use style="fill:#0000ff;stroke:#000000;" x="90.9001649982" xlink:href="#mbf4cf82376" y="219.151862305"/>
     <use style="fill:#0000ff;stroke:#000000;" x="90.9462951852" xlink:href="#mbf4cf82376" y="224.90607251"/>
     <use style="fill:#0000ff;stroke:#000000;" x="90.9358777806" xlink:href="#mbf4cf82376" y="230.764729736"/>
     <use style="fill:#0000ff;stroke:#000000;" x="90.9106670971" xlink:href="#mbf4cf82376" y="238.775608643"/>
     <use style="fill:#0000ff;stroke:#000000;" x="90.8671059719" xlink:href="#mbf4cf82376" y="236.627803467"/>
     <use style="fill:#0000ff;stroke:#000000;" x="90.8513810551" xlink:href="#mbf4cf82376" y="237.800780762"/>
     <use style="fill:#0000ff;stroke:#000000;" x="90.7994351897" xlink:href="#mbf4cf82376" y="237.726820801"/>
     <use style="fill:#0000ff;stroke:#000000;" x="90.8892958905" xlink:href="#mbf4cf82376" y="239.29655835"/>
     <use style="fill:#0000ff;stroke:#000000;" x="91.2918481156" xlink:href="#mbf4cf82376" y="242.529669922"/>
     <use style="fill:#0000ff;stroke:#000000;" x="91.2444757449" xlink:href="#mbf4cf82376" y="243.823310059"/>
     <use style="fill:#0000ff;stroke:#000000;" x="91.192868657" xlink:href="#mbf4cf82376" y="247.134864014"/>
     <use style="fill:#0000ff;stroke:#000000;" x="91.0386967163" xlink:href="#mbf4cf82376" y="245.891453369"/>
     <use style="fill:#0000ff;stroke:#000000;" x="91.1234757564" xlink:href="#mbf4cf82376" y="243.810521973"/>
     <use style="fill:#0000ff;stroke:#000000;" x="90.9840124004" xlink:href="#mbf4cf82376" y="243.661382568"/>
     <use style="fill:#0000ff;stroke:#000000;" x="90.8778903853" xlink:href="#mbf4cf82376" y="240.690789307"/>
     <use style="fill:#0000ff;stroke:#000000;" x="90.8350632778" xlink:href="#mbf4cf82376" y="240.353124512"/>
     <use style="fill:#0000ff;stroke:#000000;" x="90.7283484022" xlink:href="#mbf4cf82376" y="238.978273438"/>
     <use style="fill:#0000ff;stroke:#000000;" x="90.4890021812" xlink:href="#mbf4cf82376" y="233.864324463"/>
     <use style="fill:#0000ff;stroke:#000000;" x="90.5828717477" xlink:href="#mbf4cf82376" y="227.201797607"/>
     <use style="fill:#0000ff;stroke:#000000;" x="90.5060822076" xlink:href="#mbf4cf82376" y="220.440591553"/>
     <use style="fill:#0000ff;stroke:#000000;" x="90.3886111501" xlink:href="#mbf4cf82376" y="212.696845215"/>
     <use style="fill:#0000ff;stroke:#000000;" x="92.0981947497" xlink:href="#mbf4cf82376" y="200.152227295"/>
     <use style="fill:#0000ff;stroke:#000000;" x="92.1971459769" xlink:href="#mbf4cf82376" y="189.637124756"/>
     <use style="fill:#0000ff;stroke:#000000;" x="92.1916690759" xlink:href="#mbf4cf82376" y="180.239661377"/>
     <use style="fill:#0000ff;stroke:#000000;" x="92.3168190874" xlink:href="#mbf4cf82376" y="187.023839844"/>
     <use style="fill:#0000ff;stroke:#000000;" x="92.2567425648" xlink:href="#mbf4cf82376" y="193.51109082"/>
     <use style="fill:#0000ff;stroke:#000000;" x="92.6725635708" xlink:href="#mbf4cf82376" y="193.681192139"/>
     <use style="fill:#0000ff;stroke:#000000;" x="92.2284264219" xlink:href="#mbf4cf82376" y="205.435025146"/>
     <use style="fill:#0000ff;stroke:#000000;" x="92.4738988672" xlink:href="#mbf4cf82376" y="208.231660889"/>
     <use style="fill:#0000ff;stroke:#000000;" x="92.2950526406" xlink:href="#mbf4cf82376" y="191.976586426"/>
     <use style="fill:#0000ff;stroke:#000000;" x="92.6013356261" xlink:href="#mbf4cf82376" y="174.711945313"/>
     <use style="fill:#0000ff;stroke:#000000;" x="92.2671317379" xlink:href="#mbf4cf82376" y="184.739551514"/>
     <use style="fill:#0000ff;stroke:#000000;" x="92.01186298" xlink:href="#mbf4cf82376" y="204.013767822"/>
     <use style="fill:#0000ff;stroke:#000000;" x="92.0739721668" xlink:href="#mbf4cf82376" y="216.614119385"/>
     <use style="fill:#0000ff;stroke:#000000;" x="92.2998802183" xlink:href="#mbf4cf82376" y="218.651083496"/>
     <use style="fill:#0000ff;stroke:#000000;" x="92.196835431" xlink:href="#mbf4cf82376" y="210.758955811"/>
     <use style="fill:#0000ff;stroke:#000000;" x="93.4219673731" xlink:href="#mbf4cf82376" y="212.256710938"/>
     <use style="fill:#0000ff;stroke:#000000;" x="100.815896679" xlink:href="#mbf4cf82376" y="211.893074463"/>
     <use style="fill:#0000ff;stroke:#000000;" x="91.4961873404" xlink:href="#mbf4cf82376" y="194.766300781"/>
     <use style="fill:#0000ff;stroke:#000000;" x="90.643371742" xlink:href="#mbf4cf82376" y="203.175258301"/>
     <use style="fill:#0000ff;stroke:#000000;" x="90.620588963" xlink:href="#mbf4cf82376" y="217.826218994"/>
     <use style="fill:#0000ff;stroke:#000000;" x="90.6150273676" xlink:href="#mbf4cf82376" y="222.704741943"/>
     <use style="fill:#0000ff;stroke:#000000;" x="90.6526598886" xlink:href="#mbf4cf82376" y="211.312534912"/>
     <use style="fill:#0000ff;stroke:#000000;" x="90.6773059432" xlink:href="#mbf4cf82376" y="209.674967773"/>
     <use style="fill:#0000ff;stroke:#000000;" x="90.6774753319" xlink:href="#mbf4cf82376" y="211.326377686"/>
     <use style="fill:#0000ff;stroke:#000000;" x="90.6208712775" xlink:href="#mbf4cf82376" y="215.985130127"/>
     <use style="fill:#0000ff;stroke:#000000;" x="90.1140320813" xlink:href="#mbf4cf82376" y="224.975022705"/>
     <use style="fill:#0000ff;stroke:#000000;" x="91.3338282797" xlink:href="#mbf4cf82376" y="235.722057617"/>
     <use style="fill:#0000ff;stroke:#000000;" x="98.6891651956" xlink:href="#mbf4cf82376" y="237.772139404"/>
     <use style="fill:#0000ff;stroke:#000000;" x="91.5698431897" xlink:href="#mbf4cf82376" y="218.762880371"/>
     <use style="fill:#0000ff;stroke:#000000;" x="91.3972643446" xlink:href="#mbf4cf82376" y="225.909574707"/>
     <use style="fill:#0000ff;stroke:#000000;" x="91.27790178" xlink:href="#mbf4cf82376" y="239.366068848"/>
     <use style="fill:#0000ff;stroke:#000000;" x="92.3728302814" xlink:href="#mbf4cf82376" y="248.831988037"/>
     <use style="fill:#0000ff;stroke:#000000;" x="90.9525907982" xlink:href="#mbf4cf82376" y="257.320969971"/>
     <use style="fill:#0000ff;stroke:#000000;" x="90.7876626756" xlink:href="#mbf4cf82376" y="260.693465088"/>
     <use style="fill:#0000ff;stroke:#000000;" x="90.6631055246" xlink:href="#mbf4cf82376" y="253.948738525"/>
     <use style="fill:#0000ff;stroke:#000000;" x="90.6925791569" xlink:href="#mbf4cf82376" y="248.343700684"/>
     <use style="fill:#0000ff;stroke:#000000;" x="91.9653940156" xlink:href="#mbf4cf82376" y="246.210792969"/>
     <use style="fill:#0000ff;stroke:#000000;" x="99.3331245375" xlink:href="#mbf4cf82376" y="239.630037354"/>
     <use style="fill:#0000ff;stroke:#000000;" x="90.9967730152" xlink:href="#mbf4cf82376" y="237.469444092"/>
     <use style="fill:#0000ff;stroke:#000000;" x="90.5264653135" xlink:href="#mbf4cf82376" y="249.905758789"/>
     <use style="fill:#0000ff;stroke:#000000;" x="90.5631379652" xlink:href="#mbf4cf82376" y="255.936099365"/>
     <use style="fill:#0000ff;stroke:#000000;" x="90.6076589596" xlink:href="#mbf4cf82376" y="255.290564697"/>
     <use style="fill:#0000ff;stroke:#000000;" x="90.6055698324" xlink:href="#mbf4cf82376" y="256.514661377"/>
     <use style="fill:#0000ff;stroke:#000000;" x="90.6209559718" xlink:href="#mbf4cf82376" y="267.122840088"/>
     <use style="fill:#0000ff;stroke:#000000;" x="90.492700501" xlink:href="#mbf4cf82376" y="275.9052229"/>
     <use style="fill:#0000ff;stroke:#000000;" x="90.690320641" xlink:href="#mbf4cf82376" y="282.938802002"/>
     <use style="fill:#0000ff;stroke:#000000;" x="90.7286024852" xlink:href="#mbf4cf82376" y="290.107447021"/>
     <use style="fill:#0000ff;stroke:#000000;" x="90.7885943134" xlink:href="#mbf4cf82376" y="293.868495605"/>
     <use style="fill:#0000ff;stroke:#000000;" x="90.8018630943" xlink:href="#mbf4cf82376" y="294.983695801"/>
     <use style="fill:#0000ff;stroke:#000000;" x="90.7456825116" xlink:href="#mbf4cf82376" y="293.014890869"/>
     <use style="fill:#0000ff;stroke:#000000;" x="90.7643717306" xlink:href="#mbf4cf82376" y="292.015969971"/>
     <use style="fill:#0000ff;stroke:#000000;" x="90.6830369272" xlink:href="#mbf4cf82376" y="290.082332275"/>
     <use style="fill:#0000ff;stroke:#000000;" x="90.682077058" xlink:href="#mbf4cf82376" y="287.336156738"/>
     <use style="fill:#0000ff;stroke:#000000;" x="90.6747086499" xlink:href="#mbf4cf82376" y="283.934262207"/>
     <use style="fill:#0000ff;stroke:#000000;" x="90.602464373" xlink:href="#mbf4cf82376" y="280.448322266"/>
     <use style="fill:#0000ff;stroke:#000000;" x="90.6031136963" xlink:href="#mbf4cf82376" y="278.150553711"/>
     <use style="fill:#0000ff;stroke:#000000;" x="90.5674009139" xlink:href="#mbf4cf82376" y="280.541826904"/>
     <use style="fill:#0000ff;stroke:#000000;" x="90.8560110126" xlink:href="#mbf4cf82376" y="280.953715332"/>
     <use style="fill:#0000ff;stroke:#000000;" x="90.9898845417" xlink:href="#mbf4cf82376" y="279.526887939"/>
     <use style="fill:#0000ff;stroke:#000000;" x="90.9020565052" xlink:href="#mbf4cf82376" y="289.275331543"/>
     <use style="fill:#0000ff;stroke:#000000;" x="90.8456783024" xlink:href="#mbf4cf82376" y="297.322465332"/>
     <use style="fill:#0000ff;stroke:#000000;" x="90.8298686913" xlink:href="#mbf4cf82376" y="305.006292236"/>
     <use style="fill:#0000ff;stroke:#000000;" x="90.7798143329" xlink:href="#mbf4cf82376" y="307.134552734"/>
     <use style="fill:#0000ff;stroke:#000000;" x="90.6130229348" xlink:href="#mbf4cf82376" y="306.150661133"/>
     <use style="fill:#0000ff;stroke:#000000;" x="90.5388871508" xlink:href="#mbf4cf82376" y="311.038775146"/>
     <use style="fill:#0000ff;stroke:#000000;" x="90.5314622799" xlink:href="#mbf4cf82376" y="314.801438721"/>
     <use style="fill:#0000ff;stroke:#000000;" x="90.3572177793" xlink:href="#mbf4cf82376" y="314.596499756"/>
     <use style="fill:#0000ff;stroke:#000000;" x="90.3861267826" xlink:href="#mbf4cf82376" y="319.642750977"/>
     <use style="fill:#0000ff;stroke:#000000;" x="93.0268964818" xlink:href="#mbf4cf82376" y="323.330399902"/>
     <use style="fill:#0000ff;stroke:#000000;" x="100.413175065" xlink:href="#mbf4cf82376" y="317.195875977"/>
     <use style="fill:#0000ff;stroke:#000000;" x="91.3974337333" xlink:href="#mbf4cf82376" y="307.674289063"/>
     <use style="fill:#0000ff;stroke:#000000;" x="90.769058151" xlink:href="#mbf4cf82376" y="314.849229248"/>
     <use style="fill:#0000ff;stroke:#000000;" x="90.8030488151" xlink:href="#mbf4cf82376" y="323.300539063"/>
     <use style="fill:#0000ff;stroke:#000000;" x="90.9259685422" xlink:href="#mbf4cf82376" y="318.974639404"/>
     <use style="fill:#0000ff;stroke:#000000;" x="91.052332506" xlink:href="#mbf4cf82376" y="305.058004883"/>
     <use style="fill:#0000ff;stroke:#000000;" x="91.0929575605" xlink:href="#mbf4cf82376" y="297.912530029"/>
     <use style="fill:#0000ff;stroke:#000000;" x="91.1041089827" xlink:href="#mbf4cf82376" y="292.664998291"/>
     <use style="fill:#0000ff;stroke:#000000;" x="91.0265007305" xlink:href="#mbf4cf82376" y="287.2945625"/>
    </g>
   </g>
   <g id="patch_3">
    <path d="M 493.2975 368.74175 
L 493.2975 23.14175 
" style="fill:none;stroke:#000000;stroke-linecap:square;stroke-linejoin:miter;"/>
   </g>
   <g id="patch_4">
    <path d="M 46.8975 368.74175 
L 46.8975 23.14175 
" style="fill:none;stroke:#000000;stroke-linecap:square;stroke-linejoin:miter;"/>
   </g>
   <g id="patch_5">
    <path d="M 46.8975 368.74175 
L 493.2975 368.74175 
" style="fill:none;stroke:#000000;stroke-linecap:square;stroke-linejoin:miter;"/>
   </g>
   <g id="patch_6">
    <path d="M 46.8975 23.14175 
L 493.2975 23.14175 
" style="fill:none;stroke:#000000;stroke-linecap:square;stroke-linejoin:miter;"/>
   </g>
   <g id="matplotlib.axis_1">
    <g id="xtick_1">
     <g id="line2d_1">
      <defs>
       <path d="M 0 0 
L 0 -4 
" id="m0f10d26305" style="stroke:#000000;stroke-width:0.5;"/>
      </defs>
      <g>
       <use style="stroke:#000000;stroke-width:0.5;" x="46.8975" xlink:href="#m0f10d26305" y="368.74175"/>
      </g>
     </g>
     <g id="line2d_2">
      <defs>
       <path d="M 0 0 
L 0 4 
" id="m638d8991d1" style="stroke:#000000;stroke-width:0.5;"/>
      </defs>
      <g>
       <use style="stroke:#000000;stroke-width:0.5;" x="46.8975" xlink:href="#m638d8991d1" y="23.14175"/>
      </g>
     </g>
     <g id="text_1">
      <!-- 0.0 -->
      <defs>
       <path d="M 10.6875 12.40625 
L 21 12.40625 
L 21 0 
L 10.6875 0 
z
" id="BitstreamVeraSans-Roman-2e"/>
       <path d="M 31.78125 66.40625 
Q 24.171875 66.40625 20.328125 58.90625 
Q 16.5 51.421875 16.5 36.375 
Q 16.5 21.390625 20.328125 13.890625 
Q 24.171875 6.390625 31.78125 6.390625 
Q 39.453125 6.390625 43.28125 13.890625 
Q 47.125 21.390625 47.125 36.375 
Q 47.125 51.421875 43.28125 58.90625 
Q 39.453125 66.40625 31.78125 66.40625 
M 31.78125 74.21875 
Q 44.046875 74.21875 50.515625 64.515625 
Q 56.984375 54.828125 56.984375 36.375 
Q 56.984375 17.96875 50.515625 8.265625 
Q 44.046875 -1.421875 31.78125 -1.421875 
Q 19.53125 -1.421875 13.0625 8.265625 
Q 6.59375 17.96875 6.59375 36.375 
Q 6.59375 54.828125 13.0625 64.515625 
Q 19.53125 74.21875 31.78125 74.21875 
" id="BitstreamVeraSans-Roman-30"/>
      </defs>
      <g transform="translate(37.355625 381.859875)scale(0.12 -0.12)">
       <use xlink:href="#BitstreamVeraSans-Roman-30"/>
       <use x="63.623046875" xlink:href="#BitstreamVeraSans-Roman-2e"/>
       <use x="95.41015625" xlink:href="#BitstreamVeraSans-Roman-30"/>
      </g>
     </g>
    </g>
    <g id="xtick_2">
     <g id="line2d_3">
      <g>
       <use style="stroke:#000000;stroke-width:0.5;" x="121.2975" xlink:href="#m0f10d26305" y="368.74175"/>
      </g>
     </g>
     <g id="line2d_4">
      <g>
       <use style="stroke:#000000;stroke-width:0.5;" x="121.2975" xlink:href="#m638d8991d1" y="23.14175"/>
      </g>
     </g>
     <g id="text_2">
      <!-- 0.1 -->
      <defs>
       <path d="M 12.40625 8.296875 
L 28.515625 8.296875 
L 28.515625 63.921875 
L 10.984375 60.40625 
L 10.984375 69.390625 
L 28.421875 72.90625 
L 38.28125 72.90625 
L 38.28125 8.296875 
L 54.390625 8.296875 
L 54.390625 0 
L 12.40625 0 
z
" id="BitstreamVeraSans-Roman-31"/>
      </defs>
      <g transform="translate(111.755625 381.859875)scale(0.12 -0.12)">
       <use xlink:href="#BitstreamVeraSans-Roman-30"/>
       <use x="63.623046875" xlink:href="#BitstreamVeraSans-Roman-2e"/>
       <use x="95.41015625" xlink:href="#BitstreamVeraSans-Roman-31"/>
      </g>
     </g>
    </g>
    <g id="xtick_3">
     <g id="line2d_5">
      <g>
       <use style="stroke:#000000;stroke-width:0.5;" x="195.6975" xlink:href="#m0f10d26305" y="368.74175"/>
      </g>
     </g>
     <g id="line2d_6">
      <g>
       <use style="stroke:#000000;stroke-width:0.5;" x="195.6975" xlink:href="#m638d8991d1" y="23.14175"/>
      </g>
     </g>
     <g id="text_3">
      <!-- 0.2 -->
      <defs>
       <path d="M 19.1875 8.296875 
L 53.609375 8.296875 
L 53.609375 0 
L 7.328125 0 
L 7.328125 8.296875 
Q 12.9375 14.109375 22.625 23.890625 
Q 32.328125 33.6875 34.8125 36.53125 
Q 39.546875 41.84375 41.421875 45.53125 
Q 43.3125 49.21875 43.3125 52.78125 
Q 43.3125 58.59375 39.234375 62.25 
Q 35.15625 65.921875 28.609375 65.921875 
Q 23.96875 65.921875 18.8125 64.3125 
Q 13.671875 62.703125 7.8125 59.421875 
L 7.8125 69.390625 
Q 13.765625 71.78125 18.9375 73 
Q 24.125 74.21875 28.421875 74.21875 
Q 39.75 74.21875 46.484375 68.546875 
Q 53.21875 62.890625 53.21875 53.421875 
Q 53.21875 48.921875 51.53125 44.890625 
Q 49.859375 40.875 45.40625 35.40625 
Q 44.1875 33.984375 37.640625 27.21875 
Q 31.109375 20.453125 19.1875 8.296875 
" id="BitstreamVeraSans-Roman-32"/>
      </defs>
      <g transform="translate(186.155625 381.859875)scale(0.12 -0.12)">
       <use xlink:href="#BitstreamVeraSans-Roman-30"/>
       <use x="63.623046875" xlink:href="#BitstreamVeraSans-Roman-2e"/>
       <use x="95.41015625" xlink:href="#BitstreamVeraSans-Roman-32"/>
      </g>
     </g>
    </g>
    <g id="xtick_4">
     <g id="line2d_7">
      <g>
       <use style="stroke:#000000;stroke-width:0.5;" x="270.0975" xlink:href="#m0f10d26305" y="368.74175"/>
      </g>
     </g>
     <g id="line2d_8">
      <g>
       <use style="stroke:#000000;stroke-width:0.5;" x="270.0975" xlink:href="#m638d8991d1" y="23.14175"/>
      </g>
     </g>
     <g id="text_4">
      <!-- 0.3 -->
      <defs>
       <path d="M 40.578125 39.3125 
Q 47.65625 37.796875 51.625 33 
Q 55.609375 28.21875 55.609375 21.1875 
Q 55.609375 10.40625 48.1875 4.484375 
Q 40.765625 -1.421875 27.09375 -1.421875 
Q 22.515625 -1.421875 17.65625 -0.515625 
Q 12.796875 0.390625 7.625 2.203125 
L 7.625 11.71875 
Q 11.71875 9.328125 16.59375 8.109375 
Q 21.484375 6.890625 26.8125 6.890625 
Q 36.078125 6.890625 40.9375 10.546875 
Q 45.796875 14.203125 45.796875 21.1875 
Q 45.796875 27.640625 41.28125 31.265625 
Q 36.765625 34.90625 28.71875 34.90625 
L 20.21875 34.90625 
L 20.21875 43.015625 
L 29.109375 43.015625 
Q 36.375 43.015625 40.234375 45.921875 
Q 44.09375 48.828125 44.09375 54.296875 
Q 44.09375 59.90625 40.109375 62.90625 
Q 36.140625 65.921875 28.71875 65.921875 
Q 24.65625 65.921875 20.015625 65.03125 
Q 15.375 64.15625 9.8125 62.3125 
L 9.8125 71.09375 
Q 15.4375 72.65625 20.34375 73.4375 
Q 25.25 74.21875 29.59375 74.21875 
Q 40.828125 74.21875 47.359375 69.109375 
Q 53.90625 64.015625 53.90625 55.328125 
Q 53.90625 49.265625 50.4375 45.09375 
Q 46.96875 40.921875 40.578125 39.3125 
" id="BitstreamVeraSans-Roman-33"/>
      </defs>
      <g transform="translate(260.555625 381.859875)scale(0.12 -0.12)">
       <use xlink:href="#BitstreamVeraSans-Roman-30"/>
       <use x="63.623046875" xlink:href="#BitstreamVeraSans-Roman-2e"/>
       <use x="95.41015625" xlink:href="#BitstreamVeraSans-Roman-33"/>
      </g>
     </g>
    </g>
    <g id="xtick_5">
     <g id="line2d_9">
      <g>
       <use style="stroke:#000000;stroke-width:0.5;" x="344.4975" xlink:href="#m0f10d26305" y="368.74175"/>
      </g>
     </g>
     <g id="line2d_10">
      <g>
       <use style="stroke:#000000;stroke-width:0.5;" x="344.4975" xlink:href="#m638d8991d1" y="23.14175"/>
      </g>
     </g>
     <g id="text_5">
      <!-- 0.4 -->
      <defs>
       <path d="M 37.796875 64.3125 
L 12.890625 25.390625 
L 37.796875 25.390625 
z
M 35.203125 72.90625 
L 47.609375 72.90625 
L 47.609375 25.390625 
L 58.015625 25.390625 
L 58.015625 17.1875 
L 47.609375 17.1875 
L 47.609375 0 
L 37.796875 0 
L 37.796875 17.1875 
L 4.890625 17.1875 
L 4.890625 26.703125 
z
" id="BitstreamVeraSans-Roman-34"/>
      </defs>
      <g transform="translate(334.955625 381.859875)scale(0.12 -0.12)">
       <use xlink:href="#BitstreamVeraSans-Roman-30"/>
       <use x="63.623046875" xlink:href="#BitstreamVeraSans-Roman-2e"/>
       <use x="95.41015625" xlink:href="#BitstreamVeraSans-Roman-34"/>
      </g>
     </g>
    </g>
    <g id="xtick_6">
     <g id="line2d_11">
      <g>
       <use style="stroke:#000000;stroke-width:0.5;" x="418.8975" xlink:href="#m0f10d26305" y="368.74175"/>
      </g>
     </g>
     <g id="line2d_12">
      <g>
       <use style="stroke:#000000;stroke-width:0.5;" x="418.8975" xlink:href="#m638d8991d1" y="23.14175"/>
      </g>
     </g>
     <g id="text_6">
      <!-- 0.5 -->
      <defs>
       <path d="M 10.796875 72.90625 
L 49.515625 72.90625 
L 49.515625 64.59375 
L 19.828125 64.59375 
L 19.828125 46.734375 
Q 21.96875 47.46875 24.109375 47.828125 
Q 26.265625 48.1875 28.421875 48.1875 
Q 40.625 48.1875 47.75 41.5 
Q 54.890625 34.8125 54.890625 23.390625 
Q 54.890625 11.625 47.5625 5.09375 
Q 40.234375 -1.421875 26.90625 -1.421875 
Q 22.3125 -1.421875 17.546875 -0.640625 
Q 12.796875 0.140625 7.71875 1.703125 
L 7.71875 11.625 
Q 12.109375 9.234375 16.796875 8.0625 
Q 21.484375 6.890625 26.703125 6.890625 
Q 35.15625 6.890625 40.078125 11.328125 
Q 45.015625 15.765625 45.015625 23.390625 
Q 45.015625 31 40.078125 35.4375 
Q 35.15625 39.890625 26.703125 39.890625 
Q 22.75 39.890625 18.8125 39.015625 
Q 14.890625 38.140625 10.796875 36.28125 
z
" id="BitstreamVeraSans-Roman-35"/>
      </defs>
      <g transform="translate(409.355625 381.859875)scale(0.12 -0.12)">
       <use xlink:href="#BitstreamVeraSans-Roman-30"/>
       <use x="63.623046875" xlink:href="#BitstreamVeraSans-Roman-2e"/>
       <use x="95.41015625" xlink:href="#BitstreamVeraSans-Roman-35"/>
      </g>
     </g>
    </g>
    <g id="xtick_7">
     <g id="line2d_13">
      <g>
       <use style="stroke:#000000;stroke-width:0.5;" x="493.2975" xlink:href="#m0f10d26305" y="368.74175"/>
      </g>
     </g>
     <g id="line2d_14">
      <g>
       <use style="stroke:#000000;stroke-width:0.5;" x="493.2975" xlink:href="#m638d8991d1" y="23.14175"/>
      </g>
     </g>
     <g id="text_7">
      <!-- 0.6 -->
      <defs>
       <path d="M 33.015625 40.375 
Q 26.375 40.375 22.484375 35.828125 
Q 18.609375 31.296875 18.609375 23.390625 
Q 18.609375 15.53125 22.484375 10.953125 
Q 26.375 6.390625 33.015625 6.390625 
Q 39.65625 6.390625 43.53125 10.953125 
Q 47.40625 15.53125 47.40625 23.390625 
Q 47.40625 31.296875 43.53125 35.828125 
Q 39.65625 40.375 33.015625 40.375 
M 52.59375 71.296875 
L 52.59375 62.3125 
Q 48.875 64.0625 45.09375 64.984375 
Q 41.3125 65.921875 37.59375 65.921875 
Q 27.828125 65.921875 22.671875 59.328125 
Q 17.53125 52.734375 16.796875 39.40625 
Q 19.671875 43.65625 24.015625 45.921875 
Q 28.375 48.1875 33.59375 48.1875 
Q 44.578125 48.1875 50.953125 41.515625 
Q 57.328125 34.859375 57.328125 23.390625 
Q 57.328125 12.15625 50.6875 5.359375 
Q 44.046875 -1.421875 33.015625 -1.421875 
Q 20.359375 -1.421875 13.671875 8.265625 
Q 6.984375 17.96875 6.984375 36.375 
Q 6.984375 53.65625 15.1875 63.9375 
Q 23.390625 74.21875 37.203125 74.21875 
Q 40.921875 74.21875 44.703125 73.484375 
Q 48.484375 72.75 52.59375 71.296875 
" id="BitstreamVeraSans-Roman-36"/>
      </defs>
      <g transform="translate(483.755625 381.859875)scale(0.12 -0.12)">
       <use xlink:href="#BitstreamVeraSans-Roman-30"/>
       <use x="63.623046875" xlink:href="#BitstreamVeraSans-Roman-2e"/>
       <use x="95.41015625" xlink:href="#BitstreamVeraSans-Roman-36"/>
      </g>
     </g>
    </g>
    <g id="text_8">
     <!-- normalized angle -->
     <defs>
      <path d="M 45.40625 46.390625 
L 45.40625 75.984375 
L 54.390625 75.984375 
L 54.390625 0 
L 45.40625 0 
L 45.40625 8.203125 
Q 42.578125 3.328125 38.25 0.953125 
Q 33.9375 -1.421875 27.875 -1.421875 
Q 17.96875 -1.421875 11.734375 6.484375 
Q 5.515625 14.40625 5.515625 27.296875 
Q 5.515625 40.1875 11.734375 48.09375 
Q 17.96875 56 27.875 56 
Q 33.9375 56 38.25 53.625 
Q 42.578125 51.265625 45.40625 46.390625 
M 14.796875 27.296875 
Q 14.796875 17.390625 18.875 11.75 
Q 22.953125 6.109375 30.078125 6.109375 
Q 37.203125 6.109375 41.296875 11.75 
Q 45.40625 17.390625 45.40625 27.296875 
Q 45.40625 37.203125 41.296875 42.84375 
Q 37.203125 48.484375 30.078125 48.484375 
Q 22.953125 48.484375 18.875 42.84375 
Q 14.796875 37.203125 14.796875 27.296875 
" id="BitstreamVeraSans-Roman-64"/>
      <path id="BitstreamVeraSans-Roman-20"/>
      <path d="M 52 44.1875 
Q 55.375 50.25 60.0625 53.125 
Q 64.75 56 71.09375 56 
Q 79.640625 56 84.28125 50.015625 
Q 88.921875 44.046875 88.921875 33.015625 
L 88.921875 0 
L 79.890625 0 
L 79.890625 32.71875 
Q 79.890625 40.578125 77.09375 44.375 
Q 74.3125 48.1875 68.609375 48.1875 
Q 61.625 48.1875 57.5625 43.546875 
Q 53.515625 38.921875 53.515625 30.90625 
L 53.515625 0 
L 44.484375 0 
L 44.484375 32.71875 
Q 44.484375 40.625 41.703125 44.40625 
Q 38.921875 48.1875 33.109375 48.1875 
Q 26.21875 48.1875 22.15625 43.53125 
Q 18.109375 38.875 18.109375 30.90625 
L 18.109375 0 
L 9.078125 0 
L 9.078125 54.6875 
L 18.109375 54.6875 
L 18.109375 46.1875 
Q 21.1875 51.21875 25.484375 53.609375 
Q 29.78125 56 35.6875 56 
Q 41.65625 56 45.828125 52.96875 
Q 50 49.953125 52 44.1875 
" id="BitstreamVeraSans-Roman-6d"/>
      <path d="M 56.203125 29.59375 
L 56.203125 25.203125 
L 14.890625 25.203125 
Q 15.484375 15.921875 20.484375 11.0625 
Q 25.484375 6.203125 34.421875 6.203125 
Q 39.59375 6.203125 44.453125 7.46875 
Q 49.3125 8.734375 54.109375 11.28125 
L 54.109375 2.78125 
Q 49.265625 0.734375 44.1875 -0.34375 
Q 39.109375 -1.421875 33.890625 -1.421875 
Q 20.796875 -1.421875 13.15625 6.1875 
Q 5.515625 13.8125 5.515625 26.8125 
Q 5.515625 40.234375 12.765625 48.109375 
Q 20.015625 56 32.328125 56 
Q 43.359375 56 49.78125 48.890625 
Q 56.203125 41.796875 56.203125 29.59375 
M 47.21875 32.234375 
Q 47.125 39.59375 43.09375 43.984375 
Q 39.0625 48.390625 32.421875 48.390625 
Q 24.90625 48.390625 20.390625 44.140625 
Q 15.875 39.890625 15.1875 32.171875 
z
" id="BitstreamVeraSans-Roman-65"/>
      <path d="M 5.515625 54.6875 
L 48.1875 54.6875 
L 48.1875 46.484375 
L 14.40625 7.171875 
L 48.1875 7.171875 
L 48.1875 0 
L 4.296875 0 
L 4.296875 8.203125 
L 38.09375 47.515625 
L 5.515625 47.515625 
z
" id="BitstreamVeraSans-Roman-7a"/>
      <path d="M 45.40625 27.984375 
Q 45.40625 37.75 41.375 43.109375 
Q 37.359375 48.484375 30.078125 48.484375 
Q 22.859375 48.484375 18.828125 43.109375 
Q 14.796875 37.75 14.796875 27.984375 
Q 14.796875 18.265625 18.828125 12.890625 
Q 22.859375 7.515625 30.078125 7.515625 
Q 37.359375 7.515625 41.375 12.890625 
Q 45.40625 18.265625 45.40625 27.984375 
M 54.390625 6.78125 
Q 54.390625 -7.171875 48.1875 -13.984375 
Q 42 -20.796875 29.203125 -20.796875 
Q 24.46875 -20.796875 20.265625 -20.09375 
Q 16.0625 -19.390625 12.109375 -17.921875 
L 12.109375 -9.1875 
Q 16.0625 -11.328125 19.921875 -12.34375 
Q 23.78125 -13.375 27.78125 -13.375 
Q 36.625 -13.375 41.015625 -8.765625 
Q 45.40625 -4.15625 45.40625 5.171875 
L 45.40625 9.625 
Q 42.625 4.78125 38.28125 2.390625 
Q 33.9375 0 27.875 0 
Q 17.828125 0 11.671875 7.65625 
Q 5.515625 15.328125 5.515625 27.984375 
Q 5.515625 40.671875 11.671875 48.328125 
Q 17.828125 56 27.875 56 
Q 33.9375 56 38.28125 53.609375 
Q 42.625 51.21875 45.40625 46.390625 
L 45.40625 54.6875 
L 54.390625 54.6875 
z
" id="BitstreamVeraSans-Roman-67"/>
      <path d="M 34.28125 27.484375 
Q 23.390625 27.484375 19.1875 25 
Q 14.984375 22.515625 14.984375 16.5 
Q 14.984375 11.71875 18.140625 8.90625 
Q 21.296875 6.109375 26.703125 6.109375 
Q 34.1875 6.109375 38.703125 11.40625 
Q 43.21875 16.703125 43.21875 25.484375 
L 43.21875 27.484375 
z
M 52.203125 31.203125 
L 52.203125 0 
L 43.21875 0 
L 43.21875 8.296875 
Q 40.140625 3.328125 35.546875 0.953125 
Q 30.953125 -1.421875 24.3125 -1.421875 
Q 15.921875 -1.421875 10.953125 3.296875 
Q 6 8.015625 6 15.921875 
Q 6 25.140625 12.171875 29.828125 
Q 18.359375 34.515625 30.609375 34.515625 
L 43.21875 34.515625 
L 43.21875 35.40625 
Q 43.21875 41.609375 39.140625 45 
Q 35.0625 48.390625 27.6875 48.390625 
Q 23 48.390625 18.546875 47.265625 
Q 14.109375 46.140625 10.015625 43.890625 
L 10.015625 52.203125 
Q 14.9375 54.109375 19.578125 55.046875 
Q 24.21875 56 28.609375 56 
Q 40.484375 56 46.34375 49.84375 
Q 52.203125 43.703125 52.203125 31.203125 
" id="BitstreamVeraSans-Roman-61"/>
      <path d="M 54.890625 33.015625 
L 54.890625 0 
L 45.90625 0 
L 45.90625 32.71875 
Q 45.90625 40.484375 42.875 44.328125 
Q 39.84375 48.1875 33.796875 48.1875 
Q 26.515625 48.1875 22.3125 43.546875 
Q 18.109375 38.921875 18.109375 30.90625 
L 18.109375 0 
L 9.078125 0 
L 9.078125 54.6875 
L 18.109375 54.6875 
L 18.109375 46.1875 
Q 21.34375 51.125 25.703125 53.5625 
Q 30.078125 56 35.796875 56 
Q 45.21875 56 50.046875 50.171875 
Q 54.890625 44.34375 54.890625 33.015625 
" id="BitstreamVeraSans-Roman-6e"/>
      <path d="M 30.609375 48.390625 
Q 23.390625 48.390625 19.1875 42.75 
Q 14.984375 37.109375 14.984375 27.296875 
Q 14.984375 17.484375 19.15625 11.84375 
Q 23.34375 6.203125 30.609375 6.203125 
Q 37.796875 6.203125 41.984375 11.859375 
Q 46.1875 17.53125 46.1875 27.296875 
Q 46.1875 37.015625 41.984375 42.703125 
Q 37.796875 48.390625 30.609375 48.390625 
M 30.609375 56 
Q 42.328125 56 49.015625 48.375 
Q 55.71875 40.765625 55.71875 27.296875 
Q 55.71875 13.875 49.015625 6.21875 
Q 42.328125 -1.421875 30.609375 -1.421875 
Q 18.84375 -1.421875 12.171875 6.21875 
Q 5.515625 13.875 5.515625 27.296875 
Q 5.515625 40.765625 12.171875 48.375 
Q 18.84375 56 30.609375 56 
" id="BitstreamVeraSans-Roman-6f"/>
      <path d="M 9.421875 75.984375 
L 18.40625 75.984375 
L 18.40625 0 
L 9.421875 0 
z
" id="BitstreamVeraSans-Roman-6c"/>
      <path d="M 9.421875 54.6875 
L 18.40625 54.6875 
L 18.40625 0 
L 9.421875 0 
z
M 9.421875 75.984375 
L 18.40625 75.984375 
L 18.40625 64.59375 
L 9.421875 64.59375 
z
" id="BitstreamVeraSans-Roman-69"/>
      <path d="M 41.109375 46.296875 
Q 39.59375 47.171875 37.8125 47.578125 
Q 36.03125 48 33.890625 48 
Q 26.265625 48 22.1875 43.046875 
Q 18.109375 38.09375 18.109375 28.8125 
L 18.109375 0 
L 9.078125 0 
L 9.078125 54.6875 
L 18.109375 54.6875 
L 18.109375 46.1875 
Q 20.953125 51.171875 25.484375 53.578125 
Q 30.03125 56 36.53125 56 
Q 37.453125 56 38.578125 55.875 
Q 39.703125 55.765625 41.0625 55.515625 
z
" id="BitstreamVeraSans-Roman-72"/>
     </defs>
     <g transform="translate(218.0990625 398.473625)scale(0.12 -0.12)">
      <use xlink:href="#BitstreamVeraSans-Roman-6e"/>
      <use x="63.37890625" xlink:href="#BitstreamVeraSans-Roman-6f"/>
      <use x="124.560546875" xlink:href="#BitstreamVeraSans-Roman-72"/>
      <use x="165.658203125" xlink:href="#BitstreamVeraSans-Roman-6d"/>
      <use x="263.0703125" xlink:href="#BitstreamVeraSans-Roman-61"/>
      <use x="324.349609375" xlink:href="#BitstreamVeraSans-Roman-6c"/>
      <use x="352.1328125" xlink:href="#BitstreamVeraSans-Roman-69"/>
      <use x="379.916015625" xlink:href="#BitstreamVeraSans-Roman-7a"/>
      <use x="432.40625" xlink:href="#BitstreamVeraSans-Roman-65"/>
      <use x="493.9296875" xlink:href="#BitstreamVeraSans-Roman-64"/>
      <use x="557.40625" xlink:href="#BitstreamVeraSans-Roman-20"/>
      <use x="589.193359375" xlink:href="#BitstreamVeraSans-Roman-61"/>
      <use x="650.47265625" xlink:href="#BitstreamVeraSans-Roman-6e"/>
      <use x="713.8515625" xlink:href="#BitstreamVeraSans-Roman-67"/>
      <use x="777.328125" xlink:href="#BitstreamVeraSans-Roman-6c"/>
      <use x="805.111328125" xlink:href="#BitstreamVeraSans-Roman-65"/>
     </g>
    </g>
   </g>
   <g id="matplotlib.axis_2">
    <g id="ytick_1">
     <g id="line2d_15">
      <defs>
       <path d="M 0 0 
L 4 0 
" id="m42cd7c84c8" style="stroke:#000000;stroke-width:0.5;"/>
      </defs>
      <g>
       <use style="stroke:#000000;stroke-width:0.5;" x="46.8975" xlink:href="#m42cd7c84c8" y="368.74175"/>
      </g>
     </g>
     <g id="line2d_16">
      <defs>
       <path d="M 0 0 
L -4 0 
" id="m5433fc95d2" style="stroke:#000000;stroke-width:0.5;"/>
      </defs>
      <g>
       <use style="stroke:#000000;stroke-width:0.5;" x="493.2975" xlink:href="#m5433fc95d2" y="368.74175"/>
      </g>
     </g>
     <g id="text_9">
      <!-- 2.5 -->
      <g transform="translate(23.81375 372.053)scale(0.12 -0.12)">
       <use xlink:href="#BitstreamVeraSans-Roman-32"/>
       <use x="63.623046875" xlink:href="#BitstreamVeraSans-Roman-2e"/>
       <use x="95.41015625" xlink:href="#BitstreamVeraSans-Roman-35"/>
      </g>
     </g>
    </g>
    <g id="ytick_2">
     <g id="line2d_17">
      <g>
       <use style="stroke:#000000;stroke-width:0.5;" x="46.8975" xlink:href="#m42cd7c84c8" y="299.62175"/>
      </g>
     </g>
     <g id="line2d_18">
      <g>
       <use style="stroke:#000000;stroke-width:0.5;" x="493.2975" xlink:href="#m5433fc95d2" y="299.62175"/>
      </g>
     </g>
     <g id="text_10">
      <!-- 3.0 -->
      <g transform="translate(23.81375 302.933)scale(0.12 -0.12)">
       <use xlink:href="#BitstreamVeraSans-Roman-33"/>
       <use x="63.623046875" xlink:href="#BitstreamVeraSans-Roman-2e"/>
       <use x="95.41015625" xlink:href="#BitstreamVeraSans-Roman-30"/>
      </g>
     </g>
    </g>
    <g id="ytick_3">
     <g id="line2d_19">
      <g>
       <use style="stroke:#000000;stroke-width:0.5;" x="46.8975" xlink:href="#m42cd7c84c8" y="230.50175"/>
      </g>
     </g>
     <g id="line2d_20">
      <g>
       <use style="stroke:#000000;stroke-width:0.5;" x="493.2975" xlink:href="#m5433fc95d2" y="230.50175"/>
      </g>
     </g>
     <g id="text_11">
      <!-- 3.5 -->
      <g transform="translate(23.81375 233.813)scale(0.12 -0.12)">
       <use xlink:href="#BitstreamVeraSans-Roman-33"/>
       <use x="63.623046875" xlink:href="#BitstreamVeraSans-Roman-2e"/>
       <use x="95.41015625" xlink:href="#BitstreamVeraSans-Roman-35"/>
      </g>
     </g>
    </g>
    <g id="ytick_4">
     <g id="line2d_21">
      <g>
       <use style="stroke:#000000;stroke-width:0.5;" x="46.8975" xlink:href="#m42cd7c84c8" y="161.38175"/>
      </g>
     </g>
     <g id="line2d_22">
      <g>
       <use style="stroke:#000000;stroke-width:0.5;" x="493.2975" xlink:href="#m5433fc95d2" y="161.38175"/>
      </g>
     </g>
     <g id="text_12">
      <!-- 4.0 -->
      <g transform="translate(23.81375 164.693)scale(0.12 -0.12)">
       <use xlink:href="#BitstreamVeraSans-Roman-34"/>
       <use x="63.623046875" xlink:href="#BitstreamVeraSans-Roman-2e"/>
       <use x="95.41015625" xlink:href="#BitstreamVeraSans-Roman-30"/>
      </g>
     </g>
    </g>
    <g id="ytick_5">
     <g id="line2d_23">
      <g>
       <use style="stroke:#000000;stroke-width:0.5;" x="46.8975" xlink:href="#m42cd7c84c8" y="92.26175"/>
      </g>
     </g>
     <g id="line2d_24">
      <g>
       <use style="stroke:#000000;stroke-width:0.5;" x="493.2975" xlink:href="#m5433fc95d2" y="92.26175"/>
      </g>
     </g>
     <g id="text_13">
      <!-- 4.5 -->
      <g transform="translate(23.81375 95.573)scale(0.12 -0.12)">
       <use xlink:href="#BitstreamVeraSans-Roman-34"/>
       <use x="63.623046875" xlink:href="#BitstreamVeraSans-Roman-2e"/>
       <use x="95.41015625" xlink:href="#BitstreamVeraSans-Roman-35"/>
      </g>
     </g>
    </g>
    <g id="ytick_6">
     <g id="line2d_25">
      <g>
       <use style="stroke:#000000;stroke-width:0.5;" x="46.8975" xlink:href="#m42cd7c84c8" y="23.14175"/>
      </g>
     </g>
     <g id="line2d_26">
      <g>
       <use style="stroke:#000000;stroke-width:0.5;" x="493.2975" xlink:href="#m5433fc95d2" y="23.14175"/>
      </g>
     </g>
     <g id="text_14">
      <!-- 5.0 -->
      <g transform="translate(23.81375 26.453)scale(0.12 -0.12)">
       <use xlink:href="#BitstreamVeraSans-Roman-35"/>
       <use x="63.623046875" xlink:href="#BitstreamVeraSans-Roman-2e"/>
       <use x="95.41015625" xlink:href="#BitstreamVeraSans-Roman-30"/>
      </g>
     </g>
    </g>
    <g id="text_15">
     <!-- max Q-value -->
     <defs>
      <path d="M 2.984375 54.6875 
L 12.5 54.6875 
L 29.59375 8.796875 
L 46.6875 54.6875 
L 56.203125 54.6875 
L 35.6875 0 
L 23.484375 0 
z
" id="BitstreamVeraSans-Roman-76"/>
      <path d="M 4.890625 31.390625 
L 31.203125 31.390625 
L 31.203125 23.390625 
L 4.890625 23.390625 
z
" id="BitstreamVeraSans-Roman-2d"/>
      <path d="M 39.40625 66.21875 
Q 28.65625 66.21875 22.328125 58.203125 
Q 16.015625 50.203125 16.015625 36.375 
Q 16.015625 22.609375 22.328125 14.59375 
Q 28.65625 6.59375 39.40625 6.59375 
Q 50.140625 6.59375 56.421875 14.59375 
Q 62.703125 22.609375 62.703125 36.375 
Q 62.703125 50.203125 56.421875 58.203125 
Q 50.140625 66.21875 39.40625 66.21875 
M 53.21875 1.3125 
L 66.21875 -12.890625 
L 54.296875 -12.890625 
L 43.5 -1.21875 
Q 41.890625 -1.3125 41.03125 -1.359375 
Q 40.1875 -1.421875 39.40625 -1.421875 
Q 24.03125 -1.421875 14.8125 8.859375 
Q 5.609375 19.140625 5.609375 36.375 
Q 5.609375 53.65625 14.8125 63.9375 
Q 24.03125 74.21875 39.40625 74.21875 
Q 54.734375 74.21875 63.90625 63.9375 
Q 73.09375 53.65625 73.09375 36.375 
Q 73.09375 23.6875 67.984375 14.640625 
Q 62.890625 5.609375 53.21875 1.3125 
" id="BitstreamVeraSans-Roman-51"/>
      <path d="M 8.5 21.578125 
L 8.5 54.6875 
L 17.484375 54.6875 
L 17.484375 21.921875 
Q 17.484375 14.15625 20.5 10.265625 
Q 23.53125 6.390625 29.59375 6.390625 
Q 36.859375 6.390625 41.078125 11.03125 
Q 45.3125 15.671875 45.3125 23.6875 
L 45.3125 54.6875 
L 54.296875 54.6875 
L 54.296875 0 
L 45.3125 0 
L 45.3125 8.40625 
Q 42.046875 3.421875 37.71875 1 
Q 33.40625 -1.421875 27.6875 -1.421875 
Q 18.265625 -1.421875 13.375 4.4375 
Q 8.5 10.296875 8.5 21.578125 
" id="BitstreamVeraSans-Roman-75"/>
      <path d="M 54.890625 54.6875 
L 35.109375 28.078125 
L 55.90625 0 
L 45.3125 0 
L 29.390625 21.484375 
L 13.484375 0 
L 2.875 0 
L 24.125 28.609375 
L 4.6875 54.6875 
L 15.28125 54.6875 
L 29.78125 35.203125 
L 44.28125 54.6875 
z
" id="BitstreamVeraSans-Roman-78"/>
     </defs>
     <g transform="translate(16.318125 234.1983125)rotate(-90.0)scale(0.12 -0.12)">
      <use xlink:href="#BitstreamVeraSans-Roman-6d"/>
      <use x="97.412109375" xlink:href="#BitstreamVeraSans-Roman-61"/>
      <use x="158.69140625" xlink:href="#BitstreamVeraSans-Roman-78"/>
      <use x="217.87109375" xlink:href="#BitstreamVeraSans-Roman-20"/>
      <use x="249.658203125" xlink:href="#BitstreamVeraSans-Roman-51"/>
      <use x="328.400390625" xlink:href="#BitstreamVeraSans-Roman-2d"/>
      <use x="364.453125" xlink:href="#BitstreamVeraSans-Roman-76"/>
      <use x="423.6328125" xlink:href="#BitstreamVeraSans-Roman-61"/>
      <use x="484.912109375" xlink:href="#BitstreamVeraSans-Roman-6c"/>
      <use x="512.6953125" xlink:href="#BitstreamVeraSans-Roman-75"/>
      <use x="576.07421875" xlink:href="#BitstreamVeraSans-Roman-65"/>
     </g>
    </g>
   </g>
   <g id="text_16">
    <!-- Max Q-values for angles observed, joint3 -->
    <defs>
     <path d="M 9.8125 72.90625 
L 24.515625 72.90625 
L 43.109375 23.296875 
L 61.8125 72.90625 
L 76.515625 72.90625 
L 76.515625 0 
L 66.890625 0 
L 66.890625 64.015625 
L 48.09375 14.015625 
L 38.1875 14.015625 
L 19.390625 64.015625 
L 19.390625 0 
L 9.8125 0 
z
" id="BitstreamVeraSans-Roman-4d"/>
     <path d="M 48.6875 27.296875 
Q 48.6875 37.203125 44.609375 42.84375 
Q 40.53125 48.484375 33.40625 48.484375 
Q 26.265625 48.484375 22.1875 42.84375 
Q 18.109375 37.203125 18.109375 27.296875 
Q 18.109375 17.390625 22.1875 11.75 
Q 26.265625 6.109375 33.40625 6.109375 
Q 40.53125 6.109375 44.609375 11.75 
Q 48.6875 17.390625 48.6875 27.296875 
M 18.109375 46.390625 
Q 20.953125 51.265625 25.265625 53.625 
Q 29.59375 56 35.59375 56 
Q 45.5625 56 51.78125 48.09375 
Q 58.015625 40.1875 58.015625 27.296875 
Q 58.015625 14.40625 51.78125 6.484375 
Q 45.5625 -1.421875 35.59375 -1.421875 
Q 29.59375 -1.421875 25.265625 0.953125 
Q 20.953125 3.328125 18.109375 8.203125 
L 18.109375 0 
L 9.078125 0 
L 9.078125 75.984375 
L 18.109375 75.984375 
z
" id="BitstreamVeraSans-Roman-62"/>
     <path d="M 18.3125 70.21875 
L 18.3125 54.6875 
L 36.8125 54.6875 
L 36.8125 47.703125 
L 18.3125 47.703125 
L 18.3125 18.015625 
Q 18.3125 11.328125 20.140625 9.421875 
Q 21.96875 7.515625 27.59375 7.515625 
L 36.8125 7.515625 
L 36.8125 0 
L 27.59375 0 
Q 17.1875 0 13.234375 3.875 
Q 9.28125 7.765625 9.28125 18.015625 
L 9.28125 47.703125 
L 2.6875 47.703125 
L 2.6875 54.6875 
L 9.28125 54.6875 
L 9.28125 70.21875 
z
" id="BitstreamVeraSans-Roman-74"/>
     <path d="M 37.109375 75.984375 
L 37.109375 68.5 
L 28.515625 68.5 
Q 23.6875 68.5 21.796875 66.546875 
Q 19.921875 64.59375 19.921875 59.515625 
L 19.921875 54.6875 
L 34.71875 54.6875 
L 34.71875 47.703125 
L 19.921875 47.703125 
L 19.921875 0 
L 10.890625 0 
L 10.890625 47.703125 
L 2.296875 47.703125 
L 2.296875 54.6875 
L 10.890625 54.6875 
L 10.890625 58.5 
Q 10.890625 67.625 15.140625 71.796875 
Q 19.390625 75.984375 28.609375 75.984375 
z
" id="BitstreamVeraSans-Roman-66"/>
     <path d="M 11.71875 12.40625 
L 22.015625 12.40625 
L 22.015625 4 
L 14.015625 -11.625 
L 7.71875 -11.625 
L 11.71875 4 
z
" id="BitstreamVeraSans-Roman-2c"/>
     <path d="M 9.421875 54.6875 
L 18.40625 54.6875 
L 18.40625 -0.984375 
Q 18.40625 -11.421875 14.421875 -16.109375 
Q 10.453125 -20.796875 1.609375 -20.796875 
L -1.8125 -20.796875 
L -1.8125 -13.1875 
L 0.59375 -13.1875 
Q 5.71875 -13.1875 7.5625 -10.8125 
Q 9.421875 -8.453125 9.421875 -0.984375 
z
M 9.421875 75.984375 
L 18.40625 75.984375 
L 18.40625 64.59375 
L 9.421875 64.59375 
z
" id="BitstreamVeraSans-Roman-6a"/>
     <path d="M 44.28125 53.078125 
L 44.28125 44.578125 
Q 40.484375 46.53125 36.375 47.5 
Q 32.28125 48.484375 27.875 48.484375 
Q 21.1875 48.484375 17.84375 46.4375 
Q 14.5 44.390625 14.5 40.28125 
Q 14.5 37.15625 16.890625 35.375 
Q 19.28125 33.59375 26.515625 31.984375 
L 29.59375 31.296875 
Q 39.15625 29.25 43.1875 25.515625 
Q 47.21875 21.78125 47.21875 15.09375 
Q 47.21875 7.46875 41.1875 3.015625 
Q 35.15625 -1.421875 24.609375 -1.421875 
Q 20.21875 -1.421875 15.453125 -0.5625 
Q 10.6875 0.296875 5.421875 2 
L 5.421875 11.28125 
Q 10.40625 8.6875 15.234375 7.390625 
Q 20.0625 6.109375 24.8125 6.109375 
Q 31.15625 6.109375 34.5625 8.28125 
Q 37.984375 10.453125 37.984375 14.40625 
Q 37.984375 18.0625 35.515625 20.015625 
Q 33.0625 21.96875 24.703125 23.78125 
L 21.578125 24.515625 
Q 13.234375 26.265625 9.515625 29.90625 
Q 5.8125 33.546875 5.8125 39.890625 
Q 5.8125 47.609375 11.28125 51.796875 
Q 16.75 56 26.8125 56 
Q 31.78125 56 36.171875 55.265625 
Q 40.578125 54.546875 44.28125 53.078125 
" id="BitstreamVeraSans-Roman-73"/>
    </defs>
    <g transform="translate(122.41875 18.14175)scale(0.144 -0.144)">
     <use xlink:href="#BitstreamVeraSans-Roman-4d"/>
     <use x="86.279296875" xlink:href="#BitstreamVeraSans-Roman-61"/>
     <use x="147.55859375" xlink:href="#BitstreamVeraSans-Roman-78"/>
     <use x="206.73828125" xlink:href="#BitstreamVeraSans-Roman-20"/>
     <use x="238.525390625" xlink:href="#BitstreamVeraSans-Roman-51"/>
     <use x="317.267578125" xlink:href="#BitstreamVeraSans-Roman-2d"/>
     <use x="353.3203125" xlink:href="#BitstreamVeraSans-Roman-76"/>
     <use x="412.5" xlink:href="#BitstreamVeraSans-Roman-61"/>
     <use x="473.779296875" xlink:href="#BitstreamVeraSans-Roman-6c"/>
     <use x="501.5625" xlink:href="#BitstreamVeraSans-Roman-75"/>
     <use x="564.94140625" xlink:href="#BitstreamVeraSans-Roman-65"/>
     <use x="626.46484375" xlink:href="#BitstreamVeraSans-Roman-73"/>
     <use x="678.564453125" xlink:href="#BitstreamVeraSans-Roman-20"/>
     <use x="710.3515625" xlink:href="#BitstreamVeraSans-Roman-66"/>
     <use x="745.556640625" xlink:href="#BitstreamVeraSans-Roman-6f"/>
     <use x="806.73828125" xlink:href="#BitstreamVeraSans-Roman-72"/>
     <use x="847.8515625" xlink:href="#BitstreamVeraSans-Roman-20"/>
     <use x="879.638671875" xlink:href="#BitstreamVeraSans-Roman-61"/>
     <use x="940.91796875" xlink:href="#BitstreamVeraSans-Roman-6e"/>
     <use x="1004.296875" xlink:href="#BitstreamVeraSans-Roman-67"/>
     <use x="1067.7734375" xlink:href="#BitstreamVeraSans-Roman-6c"/>
     <use x="1095.556640625" xlink:href="#BitstreamVeraSans-Roman-65"/>
     <use x="1157.080078125" xlink:href="#BitstreamVeraSans-Roman-73"/>
     <use x="1209.1796875" xlink:href="#BitstreamVeraSans-Roman-20"/>
     <use x="1240.966796875" xlink:href="#BitstreamVeraSans-Roman-6f"/>
     <use x="1302.1484375" xlink:href="#BitstreamVeraSans-Roman-62"/>
     <use x="1365.625" xlink:href="#BitstreamVeraSans-Roman-73"/>
     <use x="1417.724609375" xlink:href="#BitstreamVeraSans-Roman-65"/>
     <use x="1479.248046875" xlink:href="#BitstreamVeraSans-Roman-72"/>
     <use x="1520.361328125" xlink:href="#BitstreamVeraSans-Roman-76"/>
     <use x="1579.541015625" xlink:href="#BitstreamVeraSans-Roman-65"/>
     <use x="1641.064453125" xlink:href="#BitstreamVeraSans-Roman-64"/>
     <use x="1704.541015625" xlink:href="#BitstreamVeraSans-Roman-2c"/>
     <use x="1736.328125" xlink:href="#BitstreamVeraSans-Roman-20"/>
     <use x="1768.115234375" xlink:href="#BitstreamVeraSans-Roman-6a"/>
     <use x="1795.8984375" xlink:href="#BitstreamVeraSans-Roman-6f"/>
     <use x="1857.080078125" xlink:href="#BitstreamVeraSans-Roman-69"/>
     <use x="1884.86328125" xlink:href="#BitstreamVeraSans-Roman-6e"/>
     <use x="1948.2421875" xlink:href="#BitstreamVeraSans-Roman-74"/>
     <use x="1987.451171875" xlink:href="#BitstreamVeraSans-Roman-33"/>
    </g>
   </g>
  </g>
 </g>
 <defs>
  <clipPath id="p5ee5fedffc">
   <rect height="345.6" width="446.4" x="46.8975" y="23.14175"/>
  </clipPath>
 </defs>
</svg>
