<?xml version="1.0" encoding="utf-8" standalone="no"?>
<!DOCTYPE svg PUBLIC "-//W3C//DTD SVG 1.1//EN"
  "http://www.w3.org/Graphics/SVG/1.1/DTD/svg11.dtd">
<!-- Created with matplotlib (http://matplotlib.org/) -->
<svg height="408pt" version="1.1" viewBox="0 0 511 408" width="511pt" xmlns="http://www.w3.org/2000/svg" xmlns:xlink="http://www.w3.org/1999/xlink">
 <defs>
  <style type="text/css">
*{stroke-linecap:butt;stroke-linejoin:round;stroke-miterlimit:100000;}
  </style>
 </defs>
 <g id="figure_1">
  <g id="patch_1">
   <path d="M 0 408.16925 
L 511.95 408.16925 
L 511.95 0 
L 0 0 
z
" style="fill:#ffffff;"/>
  </g>
  <g id="axes_1">
   <g id="patch_2">
    <path d="M 46.8975 368.74175 
L 493.2975 368.74175 
L 493.2975 23.14175 
L 46.8975 23.14175 
z
" style="fill:#ffffff;"/>
   </g>
   <g id="line2d_1">
    <path clip-path="url(#pd6b529e870)" d="M 47.3935 338.506805 
L 47.8895 345.025446 
L 48.3855 348.204513 
L 48.8815 345.534527 
L 49.3775 350.533452 
L 49.8735 340.60692 
L 50.3695 343.942326 
L 50.8655 318.948901 
L 51.3615 341.33062 
L 51.8575 332.787957 
L 52.3535 347.224643 
L 52.8495 321.113869 
L 53.3455 350.288578 
L 53.8415 340.274965 
L 54.3375 346.839625 
L 54.8335 348.144937 
L 55.8255 340.346615 
L 56.3215 338.529128 
L 56.8175 344.680499 
L 57.3135 345.671274 
L 57.8095 342.68019 
L 58.3055 344.449958 
L 58.8015 341.146033 
L 59.2975 343.263937 
L 59.7935 343.147945 
L 60.2895 339.424083 
L 60.7855 348.624298 
L 61.2815 342.345786 
L 61.7775 346.914254 
L 62.7695 346.4411 
L 63.2655 351.260278 
L 63.7615 344.947099 
L 64.2575 340.634652 
L 64.7535 346.575115 
L 65.7455 340.127751 
L 66.2415 334.279333 
L 66.7375 347.855905 
L 67.2335 344.37667 
L 67.7295 342.932418 
L 68.2255 340.918481 
L 68.7215 340.243837 
L 69.2175 343.190453 
L 69.7135 351.13153 
L 70.2095 343.764352 
L 71.2015 345.050354 
L 71.6975 339.366416 
L 72.1935 348.12868 
L 72.6895 346.208331 
L 73.1855 346.742771 
L 73.6815 336.301713 
L 74.1775 346.870135 
L 74.6735 342.543509 
L 75.1695 344.463563 
L 75.6655 348.234383 
L 76.1615 344.377355 
L 76.6575 347.269004 
L 77.1535 343.187043 
L 77.6495 311.122374 
L 78.1455 346.59711 
L 78.6415 335.152049 
L 79.1375 345.216286 
L 79.6335 343.594255 
L 80.1295 342.67229 
L 80.6255 346.44087 
L 81.1215 344.497612 
L 81.6175 346.482434 
L 82.1135 344.858769 
L 82.6095 350.427332 
L 83.1055 345.622628 
L 83.6015 344.40097 
L 84.0975 345.681832 
L 84.5935 346.244465 
L 85.0895 344.294626 
L 85.5855 339.376045 
L 86.0815 344.355165 
L 86.5775 339.682152 
L 87.0735 338.404247 
L 87.5695 346.964792 
L 88.0655 335.867823 
L 88.5615 346.492844 
L 89.0575 342.671236 
L 89.5535 344.20373 
L 90.0495 329.343357 
L 90.5455 342.020563 
L 91.0415 348.963577 
L 91.5375 337.481638 
L 92.0335 343.905548 
L 92.5295 343.492559 
L 93.0255 344.861899 
L 93.5215 348.171392 
L 94.0175 347.368945 
L 94.5135 344.39185 
L 95.0095 347.34571 
L 95.5055 344.870468 
L 96.0015 344.733765 
L 96.4975 347.526944 
L 96.9935 346.073443 
L 97.4895 348.740782 
L 97.9855 346.855489 
L 98.4815 346.351889 
L 98.9775 342.772208 
L 99.4735 346.520075 
L 99.9695 331.479835 
L 100.4655 347.71027 
L 100.9615 342.686194 
L 101.4575 346.828158 
L 101.9535 342.377412 
L 102.4495 340.921079 
L 102.9455 345.083333 
L 103.4415 347.127847 
L 103.9375 344.808108 
L 104.4335 344.382402 
L 104.9295 346.780317 
L 105.4255 339.428831 
L 105.9215 347.245476 
L 106.4175 344.611591 
L 106.9135 344.592177 
L 107.4095 332.757886 
L 107.9055 339.599005 
L 108.4015 344.044308 
L 108.8975 345.10409 
L 109.3935 347.124085 
L 109.8895 344.088113 
L 110.3855 343.820173 
L 110.8815 344.310838 
L 111.3775 346.145414 
L 111.8735 346.308756 
L 112.3695 344.307287 
L 112.8655 334.059383 
L 113.3615 341.528896 
L 113.8575 344.235288 
L 114.3535 345.278294 
L 114.8495 341.794909 
L 115.3455 344.902504 
L 115.8415 341.232622 
L 116.3375 315.323592 
L 116.8335 343.175324 
L 117.3295 345.982916 
L 117.8255 343.442558 
L 118.3215 344.289334 
L 118.8175 345.798111 
L 119.3135 341.292411 
L 119.8095 343.475797 
L 120.3055 337.531635 
L 120.8015 344.918908 
L 121.2975 339.865579 
L 121.7935 345.737146 
L 122.2895 345.883982 
L 122.7855 306.392247 
L 123.2815 340.196859 
L 123.7775 333.037368 
L 124.2735 344.037718 
L 124.7695 338.063082 
L 125.2655 333.486015 
L 125.7615 284.81509 
L 126.7535 345.508287 
L 127.2495 306.649811 
L 127.7455 313.880936 
L 128.2415 340.498464 
L 128.7375 320.534304 
L 129.2335 334.806693 
L 129.7295 321.754936 
L 130.2255 315.630379 
L 130.7215 297.740044 
L 131.2175 333.149802 
L 131.7135 336.936943 
L 132.2095 325.835656 
L 132.7055 329.63227 
L 133.2015 326.547225 
L 133.6975 314.073053 
L 134.1935 336.260302 
L 134.6895 303.369062 
L 135.1855 329.850873 
L 135.6815 317.223169 
L 136.1775 296.022436 
L 136.6735 330.891427 
L 137.1695 317.063529 
L 137.6655 332.743759 
L 138.1615 285.782818 
L 138.6575 327.155143 
L 139.1535 317.047455 
L 139.6495 322.546058 
L 140.1455 318.636836 
L 140.6415 323.922773 
L 141.1375 304.198136 
L 141.6335 303.725148 
L 142.1295 328.006993 
L 142.6255 318.425767 
L 143.1215 329.554065 
L 143.6175 330.876317 
L 144.1135 321.134892 
L 144.6095 315.712496 
L 145.1055 328.630499 
L 145.6015 336.629319 
L 146.0975 329.799845 
L 146.5935 333.950368 
L 147.0895 331.993765 
L 147.5855 332.825835 
L 148.0815 336.420515 
L 148.5775 325.765626 
L 149.0735 332.493957 
L 149.5695 328.041343 
L 150.0655 321.955127 
L 150.5615 336.434989 
L 151.0575 332.283303 
L 151.5535 336.582919 
L 152.0495 333.712172 
L 152.5455 333.405579 
L 153.0415 340.124126 
L 153.5375 336.061391 
L 154.5295 343.245413 
L 155.0255 329.550995 
L 155.5215 341.047184 
L 156.0175 337.395282 
L 156.5135 337.971506 
L 157.0095 340.906505 
L 157.5055 340.423612 
L 158.0015 338.930693 
L 158.4975 338.76088 
L 158.9935 340.550822 
L 159.4895 339.337016 
L 159.9855 338.786238 
L 160.4815 336.413648 
L 160.9775 342.160193 
L 161.4735 338.553469 
L 161.9695 327.136097 
L 162.4655 336.953837 
L 162.9615 340.991094 
L 163.4575 338.264106 
L 163.9535 340.113321 
L 164.4495 334.375885 
L 164.9455 339.657428 
L 165.4415 340.501628 
L 165.9375 340.682642 
L 166.4335 336.84479 
L 166.9295 319.431329 
L 167.4255 337.040425 
L 167.9215 337.259654 
L 168.4175 336.607602 
L 168.9135 338.063846 
L 169.9055 339.723224 
L 170.4015 337.085469 
L 170.8975 338.326515 
L 171.3935 340.104212 
L 171.8895 343.303258 
L 172.3855 333.278862 
L 172.8815 339.123303 
L 173.3775 323.617692 
L 173.8735 341.087675 
L 174.3695 341.39606 
L 174.8655 343.742465 
L 175.3615 343.032 
L 175.8575 344.706374 
L 176.3535 342.933105 
L 176.8495 340.542313 
L 177.3455 344.48972 
L 177.8415 343.435226 
L 178.3375 344.956824 
L 178.8335 344.873897 
L 179.3295 345.098049 
L 179.8255 342.297091 
L 180.3215 344.923785 
L 181.8095 345.786154 
L 182.3055 344.593588 
L 182.8015 344.331815 
L 183.2975 317.31451 
L 183.7935 345.148929 
L 184.2895 343.804842 
L 185.2815 345.216183 
L 185.7775 345.487106 
L 186.2735 345.458674 
L 186.7695 338.83168 
L 187.2655 346.028703 
L 187.7615 334.222746 
L 188.2575 345.055725 
L 188.7535 343.822597 
L 189.2495 344.969184 
L 189.7455 345.740155 
L 190.2415 346.065143 
L 190.7375 345.40413 
L 191.2335 330.006345 
L 191.7295 344.070535 
L 192.2255 345.519441 
L 192.7215 336.38094 
L 193.2175 344.907795 
L 193.7135 345.853589 
L 194.2095 330.628799 
L 194.7055 339.969861 
L 195.6975 344.806524 
L 196.1935 343.468067 
L 196.6895 345.248767 
L 197.1855 345.018258 
L 197.6815 343.821656 
L 198.1775 344.961962 
L 198.6735 345.189833 
L 199.1695 345.675102 
L 199.6655 345.736693 
L 200.1615 345.44745 
L 200.6575 335.018015 
L 201.1535 344.978716 
L 201.6495 342.210019 
L 202.1455 345.00885 
L 202.6415 330.287285 
L 203.6335 318.672342 
L 204.1295 327.9426 
L 204.6255 346.025043 
L 205.1215 345.492207 
L 205.6175 341.006051 
L 206.1135 344.046827 
L 206.6095 344.741596 
L 207.1055 345.687381 
L 207.6015 344.507463 
L 208.0975 347.549576 
L 208.5935 345.286443 
L 209.0895 323.398307 
L 209.5855 332.876607 
L 210.0815 345.37404 
L 211.0735 296.004421 
L 211.5695 344.193348 
L 212.0655 342.262925 
L 212.5615 319.590183 
L 213.0575 330.154882 
L 213.5535 338.022642 
L 214.0495 343.729466 
L 214.5455 333.077413 
L 215.0415 336.880444 
L 215.5375 345.911574 
L 216.0335 345.942221 
L 216.5295 321.241551 
L 217.0255 322.783503 
L 217.5215 348.63266 
L 218.0175 344.975033 
L 218.5135 345.407238 
L 219.0095 344.766453 
L 219.5055 345.406939 
L 220.0015 346.643637 
L 220.4975 345.182189 
L 220.9935 345.407885 
L 221.4895 342.725089 
L 221.9855 347.145696 
L 222.4815 343.382846 
L 222.9775 314.827918 
L 223.4735 345.478933 
L 223.9695 346.108337 
L 224.4655 278.142366 
L 224.9615 344.964805 
L 225.4575 345.90983 
L 225.9535 344.536246 
L 226.4495 344.780708 
L 226.9455 301.16841 
L 227.4415 325.738564 
L 227.9375 339.886942 
L 228.4335 345.444377 
L 228.9295 332.776022 
L 229.4255 345.322109 
L 229.9215 310.126332 
L 230.4175 290.979393 
L 230.9135 346.250395 
L 231.4095 345.430464 
L 231.9055 345.822626 
L 232.4015 299.042037 
L 232.8975 300.102876 
L 233.3935 343.911272 
L 233.8895 314.899849 
L 234.3855 347.3856 
L 234.8815 315.614549 
L 235.3775 345.031983 
L 235.8735 292.867051 
L 236.3695 297.279439 
L 236.8655 346.970961 
L 237.3615 280.339789 
L 237.8575 192.351253 
L 238.3535 240.518273 
L 238.8495 345.023058 
L 239.3455 336.672904 
L 239.8415 342.108277 
L 240.3375 344.843659 
L 240.8335 181.648946 
L 241.3295 253.256623 
L 241.8255 279.075727 
L 242.3215 257.558182 
L 242.8175 182.914141 
L 243.3135 345.148259 
L 243.8095 194.555368 
L 244.3055 194.63911 
L 244.8015 221.651458 
L 245.2975 347.456658 
L 245.7935 209.199368 
L 246.2895 321.985272 
L 246.7855 303.707333 
L 247.2815 232.156679 
L 247.7775 273.546846 
L 248.2735 153.283597 
L 248.7695 209.713424 
L 249.2655 202.257929 
L 249.7615 219.035839 
L 250.2575 192.257169 
L 250.7535 195.188427 
L 251.2495 342.452294 
L 251.7455 190.162064 
L 252.2415 192.954714 
L 252.7375 345.22401 
L 253.2335 203.868436 
L 253.7295 193.456123 
L 254.2255 345.771649 
L 254.7215 201.354545 
L 255.2175 195.55493 
L 256.2095 180.115755 
L 256.7055 176.911109 
L 257.2015 199.698807 
L 257.6975 188.056777 
L 258.1935 196.165712 
L 258.6895 219.043445 
L 259.1855 203.786037 
L 259.6815 192.613148 
L 260.1775 177.069639 
L 260.6735 188.49127 
L 261.1695 159.698205 
L 261.6655 165.603058 
L 262.1615 187.418687 
L 262.6575 154.047958 
L 263.1535 167.74884 
L 263.6495 203.399261 
L 264.6415 169.817014 
L 265.1375 176.909181 
L 265.6335 181.115144 
L 266.1295 183.929534 
L 266.6255 210.338216 
L 267.1215 171.116808 
L 267.6175 187.613416 
L 268.1135 187.713614 
L 269.1055 163.557464 
L 269.6015 217.904963 
L 270.0975 199.296925 
L 270.5935 197.170575 
L 271.0895 188.540927 
L 271.5855 181.859238 
L 272.0815 172.633861 
L 272.5775 166.766862 
L 273.0735 212.585129 
L 273.5695 161.932203 
L 274.0655 184.761071 
L 274.5615 194.198218 
L 275.0575 150.048898 
L 275.5535 154.899755 
L 276.0495 209.930253 
L 276.5455 171.268876 
L 277.0415 168.188119 
L 277.5375 161.026412 
L 278.0335 181.499804 
L 278.5295 174.133204 
L 279.0255 190.052445 
L 279.5215 166.44221 
L 280.5135 177.689125 
L 281.0095 156.211047 
L 282.0015 180.66247 
L 282.4975 217.387328 
L 283.4895 158.138471 
L 283.9855 173.016341 
L 284.4815 163.750282 
L 284.9775 163.003164 
L 285.4735 174.134816 
L 285.9695 190.299298 
L 286.4655 176.744429 
L 287.4575 200.628277 
L 287.9535 182.515322 
L 288.4495 193.517326 
L 288.9455 183.053792 
L 289.4415 167.764343 
L 289.9375 194.691164 
L 290.4335 182.337081 
L 290.9295 176.682011 
L 291.4255 174.223721 
L 291.9215 170.609269 
L 292.4175 186.124759 
L 292.9135 159.921094 
L 293.4095 189.891126 
L 293.9055 170.253213 
L 294.4015 178.134734 
L 295.3935 187.923946 
L 295.8895 224.613105 
L 296.3855 200.546715 
L 296.8815 191.66589 
L 297.3775 194.240112 
L 297.8735 181.651604 
L 298.3695 185.983324 
L 298.8655 175.800787 
L 299.8575 208.629961 
L 300.3535 183.496463 
L 300.8495 208.422041 
L 301.3455 224.863929 
L 301.8415 201.3724 
L 302.3375 172.360851 
L 302.8335 196.636861 
L 303.3295 190.855448 
L 303.8255 174.271819 
L 304.3215 187.4239 
L 304.8175 184.010703 
L 305.3135 203.667688 
L 305.8095 201.077925 
L 306.3055 191.3129 
L 306.8015 190.837947 
L 307.2975 193.362394 
L 307.7935 201.33064 
L 308.7855 182.204037 
L 309.2815 172.78785 
L 309.7775 174.268576 
L 310.2735 198.494288 
L 310.7695 175.106385 
L 311.2655 193.200563 
L 311.7615 201.771101 
L 312.2575 223.947702 
L 312.7535 195.079739 
L 313.2495 174.101191 
L 313.7455 217.613776 
L 314.2415 209.216239 
L 314.7375 245.119375 
L 315.2335 232.397075 
L 315.7295 231.8241 
L 316.2255 232.904181 
L 316.7215 229.22579 
L 317.2175 242.898273 
L 317.7135 280.183525 
L 318.2095 225.734949 
L 318.7055 219.725707 
L 319.2015 245.203948 
L 319.6975 237.468054 
L 320.1935 279.145037 
L 320.6895 237.677014 
L 321.1855 214.901538 
L 321.6815 226.023138 
L 322.1775 209.289791 
L 322.6735 211.015005 
L 323.1695 230.102854 
L 323.6655 206.504367 
L 324.1615 296.444267 
L 324.6575 237.344403 
L 325.1535 211.30521 
L 325.6495 229.581601 
L 326.1455 210.540198 
L 326.6415 217.012865 
L 327.1375 210.161078 
L 327.6335 219.492822 
L 328.1295 214.136956 
L 328.6255 182.67627 
L 329.1215 215.497151 
L 329.6175 285.496953 
L 330.1135 184.03556 
L 330.6095 198.027809 
L 331.1055 201.159439 
L 331.6015 191.1154 
L 332.5935 225.403171 
L 333.0895 275.924966 
L 333.5855 197.694384 
L 334.0815 210.919639 
L 334.5775 238.278883 
L 335.0735 243.483675 
L 335.5695 195.990539 
L 336.0655 332.876417 
L 336.5615 198.194477 
L 337.0575 234.996204 
L 338.5455 176.122011 
L 339.0415 181.959147 
L 340.0335 207.356543 
L 340.5295 211.824245 
L 341.0255 331.378003 
L 341.5215 189.801635 
L 342.0175 231.436617 
L 342.5135 187.933807 
L 343.5055 183.002935 
L 344.0015 183.429843 
L 344.4975 235.170425 
L 344.9935 192.124086 
L 345.4895 179.939643 
L 345.9855 163.381846 
L 346.4815 208.689687 
L 346.9775 221.061533 
L 347.4735 212.840766 
L 347.9695 211.61546 
L 348.4655 190.524781 
L 348.9615 201.099605 
L 349.4575 202.890373 
L 349.9535 182.608788 
L 350.4495 187.194943 
L 350.9455 210.499253 
L 351.4415 256.230373 
L 351.9375 194.454617 
L 352.4335 181.220199 
L 352.9295 176.454452 
L 353.4255 189.611542 
L 353.9215 194.105901 
L 354.4175 179.905179 
L 354.9135 336.337895 
L 355.4095 176.462028 
L 355.9055 213.939846 
L 356.4015 208.102081 
L 356.8975 217.295518 
L 357.3935 154.026274 
L 357.8895 233.607988 
L 358.3855 240.343856 
L 358.8815 210.426272 
L 359.3775 172.419062 
L 360.3695 192.106732 
L 360.8655 188.775666 
L 361.3615 168.599521 
L 361.8575 159.717243 
L 362.3535 131.030822 
L 362.8495 162.282235 
L 363.3455 171.573484 
L 364.3375 194.846837 
L 364.8335 178.970064 
L 365.3295 181.157538 
L 365.8255 168.314243 
L 366.3215 161.453092 
L 366.8175 177.900163 
L 367.3135 179.537238 
L 367.8095 138.098776 
L 368.3055 178.987219 
L 368.8015 172.854408 
L 369.2975 163.800528 
L 369.7935 201.349522 
L 370.2895 140.179814 
L 370.7855 186.519219 
L 371.2815 164.051986 
L 371.7775 167.579318 
L 372.2735 156.413342 
L 372.7695 185.312461 
L 373.2655 162.074181 
L 373.7615 181.065647 
L 374.2575 177.626554 
L 374.7535 177.637334 
L 375.2495 175.029808 
L 375.7455 199.845682 
L 376.2415 207.126187 
L 376.7375 180.138359 
L 377.2335 179.468905 
L 377.7295 184.93607 
L 378.2255 197.710401 
L 378.7215 128.037269 
L 379.2175 193.984762 
L 379.7135 177.231904 
L 380.2095 229.53249 
L 380.7055 158.826558 
L 381.2015 177.421174 
L 381.6975 150.148486 
L 382.1935 188.376671 
L 382.6895 165.071541 
L 383.1855 188.425196 
L 383.6815 197.961603 
L 384.1775 158.176277 
L 384.6735 180.784201 
L 385.1695 162.224559 
L 386.1615 150.530594 
L 386.6575 164.451557 
L 387.1535 185.1645 
L 387.6495 168.492518 
L 388.1455 155.571219 
L 388.6415 94.166029 
L 389.1375 133.500055 
L 389.6335 116.198974 
L 390.1295 159.036253 
L 390.6255 189.990505 
L 391.1215 102.418824 
L 391.6175 189.912922 
L 392.1135 159.463991 
L 392.6095 113.281293 
L 393.1055 123.202518 
L 393.6015 144.524421 
L 394.0975 91.03427 
L 394.5935 121.051143 
L 395.0895 109.721519 
L 395.5855 134.854999 
L 396.0815 107.2416 
L 396.5775 166.445338 
L 397.5695 105.170791 
L 398.0655 150.393285 
L 398.5615 144.949509 
L 399.0575 159.620665 
L 399.5535 117.978593 
L 400.0495 156.498399 
L 400.5455 334.42932 
L 401.0415 232.895151 
L 401.5375 166.216455 
L 402.0335 125.631022 
L 402.5295 100.570297 
L 403.0255 89.469435 
L 403.5215 140.790176 
L 404.0175 103.015512 
L 404.5135 85.785156 
L 405.0095 245.831643 
L 405.5055 131.115723 
L 406.0015 96.385367 
L 406.4975 190.501084 
L 406.9935 121.260586 
L 407.4895 73.847001 
L 407.9855 139.162808 
L 408.4815 166.64261 
L 408.9775 184.870965 
L 409.4735 149.132963 
L 409.9695 156.408822 
L 410.4655 84.387837 
L 410.9615 153.700363 
L 411.4575 129.492946 
L 411.9535 126.12707 
L 412.4495 129.684047 
L 412.9455 145.405336 
L 413.4415 144.448604 
L 413.9375 114.509047 
L 414.4335 143.667457 
L 414.9295 133.580174 
L 415.4255 104.684941 
L 416.4175 199.563406 
L 416.9135 128.61064 
L 417.4095 144.817096 
L 417.9055 113.711517 
L 418.4015 107.231687 
L 418.8975 91.861634 
L 419.3935 107.956468 
L 419.8895 100.276593 
L 420.3855 98.066273 
L 420.8815 88.553437 
L 421.3775 104.61543 
L 421.8735 107.691749 
L 422.3695 116.722977 
L 422.8655 102.317743 
L 423.3615 99.185289 
L 423.8575 109.296784 
L 424.3535 127.582493 
L 424.8495 103.829024 
L 425.3455 153.081951 
L 425.8415 102.896492 
L 426.3375 192.099315 
L 426.8335 127.877143 
L 427.3295 101.847912 
L 427.8255 122.131688 
L 428.3215 110.219896 
L 428.8175 104.043789 
L 429.3135 115.886803 
L 429.8095 114.389524 
L 430.3055 116.560244 
L 430.8015 104.540066 
L 431.2975 107.318666 
L 431.7935 165.022578 
L 432.2895 98.888783 
L 432.7855 131.885186 
L 433.2815 130.930172 
L 433.7775 146.142872 
L 434.2735 121.828429 
L 434.7695 140.252123 
L 435.2655 203.471896 
L 435.7615 135.600906 
L 436.2575 150.235295 
L 436.7535 129.342684 
L 437.2495 135.648573 
L 437.7455 123.891497 
L 438.2415 141.679358 
L 439.2335 132.717019 
L 439.7295 107.266018 
L 440.2255 115.434588 
L 440.7215 145.530252 
L 441.2175 150.694552 
L 441.7135 132.791091 
L 442.2095 141.593305 
L 442.7055 114.191931 
L 443.2015 152.332477 
L 443.6975 199.081996 
L 444.1935 124.665812 
L 444.6895 195.38432 
L 445.1855 147.539351 
L 446.1775 83.827434 
L 446.6735 151.039613 
L 447.1695 158.136279 
L 447.6655 137.264265 
L 448.1615 201.254837 
L 448.6575 164.378604 
L 449.1535 114.136597 
L 449.6495 124.6287 
L 450.1455 104.528691 
L 450.6415 110.450457 
L 451.1375 121.297833 
L 451.6335 135.828971 
L 452.1295 168.264081 
L 452.6255 166.227308 
L 453.1215 105.50044 
L 453.6175 112.524569 
L 454.1135 114.968 
L 454.6095 112.384686 
L 455.1055 149.693118 
L 455.6015 105.893863 
L 456.0975 109.633857 
L 456.5935 147.041256 
L 457.0895 156.384252 
L 457.5855 194.882902 
L 458.0815 108.050052 
L 458.5775 173.454012 
L 459.0735 142.696556 
L 459.5695 162.294713 
L 460.0655 137.237764 
L 460.0655 137.237764 
" style="fill:none;stroke:#0000ff;stroke-linecap:square;stroke-width:0.5;"/>
   </g>
   <g id="patch_3">
    <path d="M 46.8975 368.74175 
L 46.8975 23.14175 
" style="fill:none;stroke:#000000;stroke-linecap:square;stroke-linejoin:miter;"/>
   </g>
   <g id="patch_4">
    <path d="M 493.2975 368.74175 
L 493.2975 23.14175 
" style="fill:none;stroke:#000000;stroke-linecap:square;stroke-linejoin:miter;"/>
   </g>
   <g id="patch_5">
    <path d="M 46.8975 368.74175 
L 493.2975 368.74175 
" style="fill:none;stroke:#000000;stroke-linecap:square;stroke-linejoin:miter;"/>
   </g>
   <g id="patch_6">
    <path d="M 46.8975 23.14175 
L 493.2975 23.14175 
" style="fill:none;stroke:#000000;stroke-linecap:square;stroke-linejoin:miter;"/>
   </g>
   <g id="matplotlib.axis_1">
    <g id="xtick_1">
     <g id="line2d_2">
      <defs>
       <path d="M 0 0 
L 0 -4 
" id="m31a3f77267" style="stroke:#000000;stroke-width:0.5;"/>
      </defs>
      <g>
       <use style="stroke:#000000;stroke-width:0.5;" x="46.8975" xlink:href="#m31a3f77267" y="368.74175"/>
      </g>
     </g>
     <g id="line2d_3">
      <defs>
       <path d="M 0 0 
L 0 4 
" id="m9bb66404a8" style="stroke:#000000;stroke-width:0.5;"/>
      </defs>
      <g>
       <use style="stroke:#000000;stroke-width:0.5;" x="46.8975" xlink:href="#m9bb66404a8" y="23.14175"/>
      </g>
     </g>
     <g id="text_1">
      <!-- 0 -->
      <defs>
       <path d="M 31.78125 66.40625 
Q 24.171875 66.40625 20.328125 58.90625 
Q 16.5 51.421875 16.5 36.375 
Q 16.5 21.390625 20.328125 13.890625 
Q 24.171875 6.390625 31.78125 6.390625 
Q 39.453125 6.390625 43.28125 13.890625 
Q 47.125 21.390625 47.125 36.375 
Q 47.125 51.421875 43.28125 58.90625 
Q 39.453125 66.40625 31.78125 66.40625 
M 31.78125 74.21875 
Q 44.046875 74.21875 50.515625 64.515625 
Q 56.984375 54.828125 56.984375 36.375 
Q 56.984375 17.96875 50.515625 8.265625 
Q 44.046875 -1.421875 31.78125 -1.421875 
Q 19.53125 -1.421875 13.0625 8.265625 
Q 6.59375 17.96875 6.59375 36.375 
Q 6.59375 54.828125 13.0625 64.515625 
Q 19.53125 74.21875 31.78125 74.21875 
" id="BitstreamVeraSans-Roman-30"/>
      </defs>
      <g transform="translate(43.08 381.859875)scale(0.12 -0.12)">
       <use xlink:href="#BitstreamVeraSans-Roman-30"/>
      </g>
     </g>
    </g>
    <g id="xtick_2">
     <g id="line2d_4">
      <g>
       <use style="stroke:#000000;stroke-width:0.5;" x="96.4975" xlink:href="#m31a3f77267" y="368.74175"/>
      </g>
     </g>
     <g id="line2d_5">
      <g>
       <use style="stroke:#000000;stroke-width:0.5;" x="96.4975" xlink:href="#m9bb66404a8" y="23.14175"/>
      </g>
     </g>
     <g id="text_2">
      <!-- 100 -->
      <defs>
       <path d="M 12.40625 8.296875 
L 28.515625 8.296875 
L 28.515625 63.921875 
L 10.984375 60.40625 
L 10.984375 69.390625 
L 28.421875 72.90625 
L 38.28125 72.90625 
L 38.28125 8.296875 
L 54.390625 8.296875 
L 54.390625 0 
L 12.40625 0 
z
" id="BitstreamVeraSans-Roman-31"/>
      </defs>
      <g transform="translate(85.045 381.859875)scale(0.12 -0.12)">
       <use xlink:href="#BitstreamVeraSans-Roman-31"/>
       <use x="63.623046875" xlink:href="#BitstreamVeraSans-Roman-30"/>
       <use x="127.24609375" xlink:href="#BitstreamVeraSans-Roman-30"/>
      </g>
     </g>
    </g>
    <g id="xtick_3">
     <g id="line2d_6">
      <g>
       <use style="stroke:#000000;stroke-width:0.5;" x="146.0975" xlink:href="#m31a3f77267" y="368.74175"/>
      </g>
     </g>
     <g id="line2d_7">
      <g>
       <use style="stroke:#000000;stroke-width:0.5;" x="146.0975" xlink:href="#m9bb66404a8" y="23.14175"/>
      </g>
     </g>
     <g id="text_3">
      <!-- 200 -->
      <defs>
       <path d="M 19.1875 8.296875 
L 53.609375 8.296875 
L 53.609375 0 
L 7.328125 0 
L 7.328125 8.296875 
Q 12.9375 14.109375 22.625 23.890625 
Q 32.328125 33.6875 34.8125 36.53125 
Q 39.546875 41.84375 41.421875 45.53125 
Q 43.3125 49.21875 43.3125 52.78125 
Q 43.3125 58.59375 39.234375 62.25 
Q 35.15625 65.921875 28.609375 65.921875 
Q 23.96875 65.921875 18.8125 64.3125 
Q 13.671875 62.703125 7.8125 59.421875 
L 7.8125 69.390625 
Q 13.765625 71.78125 18.9375 73 
Q 24.125 74.21875 28.421875 74.21875 
Q 39.75 74.21875 46.484375 68.546875 
Q 53.21875 62.890625 53.21875 53.421875 
Q 53.21875 48.921875 51.53125 44.890625 
Q 49.859375 40.875 45.40625 35.40625 
Q 44.1875 33.984375 37.640625 27.21875 
Q 31.109375 20.453125 19.1875 8.296875 
" id="BitstreamVeraSans-Roman-32"/>
      </defs>
      <g transform="translate(134.645 381.859875)scale(0.12 -0.12)">
       <use xlink:href="#BitstreamVeraSans-Roman-32"/>
       <use x="63.623046875" xlink:href="#BitstreamVeraSans-Roman-30"/>
       <use x="127.24609375" xlink:href="#BitstreamVeraSans-Roman-30"/>
      </g>
     </g>
    </g>
    <g id="xtick_4">
     <g id="line2d_8">
      <g>
       <use style="stroke:#000000;stroke-width:0.5;" x="195.6975" xlink:href="#m31a3f77267" y="368.74175"/>
      </g>
     </g>
     <g id="line2d_9">
      <g>
       <use style="stroke:#000000;stroke-width:0.5;" x="195.6975" xlink:href="#m9bb66404a8" y="23.14175"/>
      </g>
     </g>
     <g id="text_4">
      <!-- 300 -->
      <defs>
       <path d="M 40.578125 39.3125 
Q 47.65625 37.796875 51.625 33 
Q 55.609375 28.21875 55.609375 21.1875 
Q 55.609375 10.40625 48.1875 4.484375 
Q 40.765625 -1.421875 27.09375 -1.421875 
Q 22.515625 -1.421875 17.65625 -0.515625 
Q 12.796875 0.390625 7.625 2.203125 
L 7.625 11.71875 
Q 11.71875 9.328125 16.59375 8.109375 
Q 21.484375 6.890625 26.8125 6.890625 
Q 36.078125 6.890625 40.9375 10.546875 
Q 45.796875 14.203125 45.796875 21.1875 
Q 45.796875 27.640625 41.28125 31.265625 
Q 36.765625 34.90625 28.71875 34.90625 
L 20.21875 34.90625 
L 20.21875 43.015625 
L 29.109375 43.015625 
Q 36.375 43.015625 40.234375 45.921875 
Q 44.09375 48.828125 44.09375 54.296875 
Q 44.09375 59.90625 40.109375 62.90625 
Q 36.140625 65.921875 28.71875 65.921875 
Q 24.65625 65.921875 20.015625 65.03125 
Q 15.375 64.15625 9.8125 62.3125 
L 9.8125 71.09375 
Q 15.4375 72.65625 20.34375 73.4375 
Q 25.25 74.21875 29.59375 74.21875 
Q 40.828125 74.21875 47.359375 69.109375 
Q 53.90625 64.015625 53.90625 55.328125 
Q 53.90625 49.265625 50.4375 45.09375 
Q 46.96875 40.921875 40.578125 39.3125 
" id="BitstreamVeraSans-Roman-33"/>
      </defs>
      <g transform="translate(184.245 381.859875)scale(0.12 -0.12)">
       <use xlink:href="#BitstreamVeraSans-Roman-33"/>
       <use x="63.623046875" xlink:href="#BitstreamVeraSans-Roman-30"/>
       <use x="127.24609375" xlink:href="#BitstreamVeraSans-Roman-30"/>
      </g>
     </g>
    </g>
    <g id="xtick_5">
     <g id="line2d_10">
      <g>
       <use style="stroke:#000000;stroke-width:0.5;" x="245.2975" xlink:href="#m31a3f77267" y="368.74175"/>
      </g>
     </g>
     <g id="line2d_11">
      <g>
       <use style="stroke:#000000;stroke-width:0.5;" x="245.2975" xlink:href="#m9bb66404a8" y="23.14175"/>
      </g>
     </g>
     <g id="text_5">
      <!-- 400 -->
      <defs>
       <path d="M 37.796875 64.3125 
L 12.890625 25.390625 
L 37.796875 25.390625 
z
M 35.203125 72.90625 
L 47.609375 72.90625 
L 47.609375 25.390625 
L 58.015625 25.390625 
L 58.015625 17.1875 
L 47.609375 17.1875 
L 47.609375 0 
L 37.796875 0 
L 37.796875 17.1875 
L 4.890625 17.1875 
L 4.890625 26.703125 
z
" id="BitstreamVeraSans-Roman-34"/>
      </defs>
      <g transform="translate(233.845 381.859875)scale(0.12 -0.12)">
       <use xlink:href="#BitstreamVeraSans-Roman-34"/>
       <use x="63.623046875" xlink:href="#BitstreamVeraSans-Roman-30"/>
       <use x="127.24609375" xlink:href="#BitstreamVeraSans-Roman-30"/>
      </g>
     </g>
    </g>
    <g id="xtick_6">
     <g id="line2d_12">
      <g>
       <use style="stroke:#000000;stroke-width:0.5;" x="294.8975" xlink:href="#m31a3f77267" y="368.74175"/>
      </g>
     </g>
     <g id="line2d_13">
      <g>
       <use style="stroke:#000000;stroke-width:0.5;" x="294.8975" xlink:href="#m9bb66404a8" y="23.14175"/>
      </g>
     </g>
     <g id="text_6">
      <!-- 500 -->
      <defs>
       <path d="M 10.796875 72.90625 
L 49.515625 72.90625 
L 49.515625 64.59375 
L 19.828125 64.59375 
L 19.828125 46.734375 
Q 21.96875 47.46875 24.109375 47.828125 
Q 26.265625 48.1875 28.421875 48.1875 
Q 40.625 48.1875 47.75 41.5 
Q 54.890625 34.8125 54.890625 23.390625 
Q 54.890625 11.625 47.5625 5.09375 
Q 40.234375 -1.421875 26.90625 -1.421875 
Q 22.3125 -1.421875 17.546875 -0.640625 
Q 12.796875 0.140625 7.71875 1.703125 
L 7.71875 11.625 
Q 12.109375 9.234375 16.796875 8.0625 
Q 21.484375 6.890625 26.703125 6.890625 
Q 35.15625 6.890625 40.078125 11.328125 
Q 45.015625 15.765625 45.015625 23.390625 
Q 45.015625 31 40.078125 35.4375 
Q 35.15625 39.890625 26.703125 39.890625 
Q 22.75 39.890625 18.8125 39.015625 
Q 14.890625 38.140625 10.796875 36.28125 
z
" id="BitstreamVeraSans-Roman-35"/>
      </defs>
      <g transform="translate(283.445 381.859875)scale(0.12 -0.12)">
       <use xlink:href="#BitstreamVeraSans-Roman-35"/>
       <use x="63.623046875" xlink:href="#BitstreamVeraSans-Roman-30"/>
       <use x="127.24609375" xlink:href="#BitstreamVeraSans-Roman-30"/>
      </g>
     </g>
    </g>
    <g id="xtick_7">
     <g id="line2d_14">
      <g>
       <use style="stroke:#000000;stroke-width:0.5;" x="344.4975" xlink:href="#m31a3f77267" y="368.74175"/>
      </g>
     </g>
     <g id="line2d_15">
      <g>
       <use style="stroke:#000000;stroke-width:0.5;" x="344.4975" xlink:href="#m9bb66404a8" y="23.14175"/>
      </g>
     </g>
     <g id="text_7">
      <!-- 600 -->
      <defs>
       <path d="M 33.015625 40.375 
Q 26.375 40.375 22.484375 35.828125 
Q 18.609375 31.296875 18.609375 23.390625 
Q 18.609375 15.53125 22.484375 10.953125 
Q 26.375 6.390625 33.015625 6.390625 
Q 39.65625 6.390625 43.53125 10.953125 
Q 47.40625 15.53125 47.40625 23.390625 
Q 47.40625 31.296875 43.53125 35.828125 
Q 39.65625 40.375 33.015625 40.375 
M 52.59375 71.296875 
L 52.59375 62.3125 
Q 48.875 64.0625 45.09375 64.984375 
Q 41.3125 65.921875 37.59375 65.921875 
Q 27.828125 65.921875 22.671875 59.328125 
Q 17.53125 52.734375 16.796875 39.40625 
Q 19.671875 43.65625 24.015625 45.921875 
Q 28.375 48.1875 33.59375 48.1875 
Q 44.578125 48.1875 50.953125 41.515625 
Q 57.328125 34.859375 57.328125 23.390625 
Q 57.328125 12.15625 50.6875 5.359375 
Q 44.046875 -1.421875 33.015625 -1.421875 
Q 20.359375 -1.421875 13.671875 8.265625 
Q 6.984375 17.96875 6.984375 36.375 
Q 6.984375 53.65625 15.1875 63.9375 
Q 23.390625 74.21875 37.203125 74.21875 
Q 40.921875 74.21875 44.703125 73.484375 
Q 48.484375 72.75 52.59375 71.296875 
" id="BitstreamVeraSans-Roman-36"/>
      </defs>
      <g transform="translate(333.045 381.859875)scale(0.12 -0.12)">
       <use xlink:href="#BitstreamVeraSans-Roman-36"/>
       <use x="63.623046875" xlink:href="#BitstreamVeraSans-Roman-30"/>
       <use x="127.24609375" xlink:href="#BitstreamVeraSans-Roman-30"/>
      </g>
     </g>
    </g>
    <g id="xtick_8">
     <g id="line2d_16">
      <g>
       <use style="stroke:#000000;stroke-width:0.5;" x="394.0975" xlink:href="#m31a3f77267" y="368.74175"/>
      </g>
     </g>
     <g id="line2d_17">
      <g>
       <use style="stroke:#000000;stroke-width:0.5;" x="394.0975" xlink:href="#m9bb66404a8" y="23.14175"/>
      </g>
     </g>
     <g id="text_8">
      <!-- 700 -->
      <defs>
       <path d="M 8.203125 72.90625 
L 55.078125 72.90625 
L 55.078125 68.703125 
L 28.609375 0 
L 18.3125 0 
L 43.21875 64.59375 
L 8.203125 64.59375 
z
" id="BitstreamVeraSans-Roman-37"/>
      </defs>
      <g transform="translate(382.645 381.859875)scale(0.12 -0.12)">
       <use xlink:href="#BitstreamVeraSans-Roman-37"/>
       <use x="63.623046875" xlink:href="#BitstreamVeraSans-Roman-30"/>
       <use x="127.24609375" xlink:href="#BitstreamVeraSans-Roman-30"/>
      </g>
     </g>
    </g>
    <g id="xtick_9">
     <g id="line2d_18">
      <g>
       <use style="stroke:#000000;stroke-width:0.5;" x="443.6975" xlink:href="#m31a3f77267" y="368.74175"/>
      </g>
     </g>
     <g id="line2d_19">
      <g>
       <use style="stroke:#000000;stroke-width:0.5;" x="443.6975" xlink:href="#m9bb66404a8" y="23.14175"/>
      </g>
     </g>
     <g id="text_9">
      <!-- 800 -->
      <defs>
       <path d="M 31.78125 34.625 
Q 24.75 34.625 20.71875 30.859375 
Q 16.703125 27.09375 16.703125 20.515625 
Q 16.703125 13.921875 20.71875 10.15625 
Q 24.75 6.390625 31.78125 6.390625 
Q 38.8125 6.390625 42.859375 10.171875 
Q 46.921875 13.96875 46.921875 20.515625 
Q 46.921875 27.09375 42.890625 30.859375 
Q 38.875 34.625 31.78125 34.625 
M 21.921875 38.8125 
Q 15.578125 40.375 12.03125 44.71875 
Q 8.5 49.078125 8.5 55.328125 
Q 8.5 64.0625 14.71875 69.140625 
Q 20.953125 74.21875 31.78125 74.21875 
Q 42.671875 74.21875 48.875 69.140625 
Q 55.078125 64.0625 55.078125 55.328125 
Q 55.078125 49.078125 51.53125 44.71875 
Q 48 40.375 41.703125 38.8125 
Q 48.828125 37.15625 52.796875 32.3125 
Q 56.78125 27.484375 56.78125 20.515625 
Q 56.78125 9.90625 50.3125 4.234375 
Q 43.84375 -1.421875 31.78125 -1.421875 
Q 19.734375 -1.421875 13.25 4.234375 
Q 6.78125 9.90625 6.78125 20.515625 
Q 6.78125 27.484375 10.78125 32.3125 
Q 14.796875 37.15625 21.921875 38.8125 
M 18.3125 54.390625 
Q 18.3125 48.734375 21.84375 45.5625 
Q 25.390625 42.390625 31.78125 42.390625 
Q 38.140625 42.390625 41.71875 45.5625 
Q 45.3125 48.734375 45.3125 54.390625 
Q 45.3125 60.0625 41.71875 63.234375 
Q 38.140625 66.40625 31.78125 66.40625 
Q 25.390625 66.40625 21.84375 63.234375 
Q 18.3125 60.0625 18.3125 54.390625 
" id="BitstreamVeraSans-Roman-38"/>
      </defs>
      <g transform="translate(432.245 381.859875)scale(0.12 -0.12)">
       <use xlink:href="#BitstreamVeraSans-Roman-38"/>
       <use x="63.623046875" xlink:href="#BitstreamVeraSans-Roman-30"/>
       <use x="127.24609375" xlink:href="#BitstreamVeraSans-Roman-30"/>
      </g>
     </g>
    </g>
    <g id="xtick_10">
     <g id="line2d_20">
      <g>
       <use style="stroke:#000000;stroke-width:0.5;" x="493.2975" xlink:href="#m31a3f77267" y="368.74175"/>
      </g>
     </g>
     <g id="line2d_21">
      <g>
       <use style="stroke:#000000;stroke-width:0.5;" x="493.2975" xlink:href="#m9bb66404a8" y="23.14175"/>
      </g>
     </g>
     <g id="text_10">
      <!-- 900 -->
      <defs>
       <path d="M 10.984375 1.515625 
L 10.984375 10.5 
Q 14.703125 8.734375 18.5 7.8125 
Q 22.3125 6.890625 25.984375 6.890625 
Q 35.75 6.890625 40.890625 13.453125 
Q 46.046875 20.015625 46.78125 33.40625 
Q 43.953125 29.203125 39.59375 26.953125 
Q 35.25 24.703125 29.984375 24.703125 
Q 19.046875 24.703125 12.671875 31.3125 
Q 6.296875 37.9375 6.296875 49.421875 
Q 6.296875 60.640625 12.9375 67.421875 
Q 19.578125 74.21875 30.609375 74.21875 
Q 43.265625 74.21875 49.921875 64.515625 
Q 56.59375 54.828125 56.59375 36.375 
Q 56.59375 19.140625 48.40625 8.859375 
Q 40.234375 -1.421875 26.421875 -1.421875 
Q 22.703125 -1.421875 18.890625 -0.6875 
Q 15.09375 0.046875 10.984375 1.515625 
M 30.609375 32.421875 
Q 37.25 32.421875 41.125 36.953125 
Q 45.015625 41.5 45.015625 49.421875 
Q 45.015625 57.28125 41.125 61.84375 
Q 37.25 66.40625 30.609375 66.40625 
Q 23.96875 66.40625 20.09375 61.84375 
Q 16.21875 57.28125 16.21875 49.421875 
Q 16.21875 41.5 20.09375 36.953125 
Q 23.96875 32.421875 30.609375 32.421875 
" id="BitstreamVeraSans-Roman-39"/>
      </defs>
      <g transform="translate(481.845 381.859875)scale(0.12 -0.12)">
       <use xlink:href="#BitstreamVeraSans-Roman-39"/>
       <use x="63.623046875" xlink:href="#BitstreamVeraSans-Roman-30"/>
       <use x="127.24609375" xlink:href="#BitstreamVeraSans-Roman-30"/>
      </g>
     </g>
    </g>
    <g id="text_11">
     <!-- episodes -->
     <defs>
      <path d="M 9.421875 54.6875 
L 18.40625 54.6875 
L 18.40625 0 
L 9.421875 0 
z
M 9.421875 75.984375 
L 18.40625 75.984375 
L 18.40625 64.59375 
L 9.421875 64.59375 
z
" id="BitstreamVeraSans-Roman-69"/>
      <path d="M 44.28125 53.078125 
L 44.28125 44.578125 
Q 40.484375 46.53125 36.375 47.5 
Q 32.28125 48.484375 27.875 48.484375 
Q 21.1875 48.484375 17.84375 46.4375 
Q 14.5 44.390625 14.5 40.28125 
Q 14.5 37.15625 16.890625 35.375 
Q 19.28125 33.59375 26.515625 31.984375 
L 29.59375 31.296875 
Q 39.15625 29.25 43.1875 25.515625 
Q 47.21875 21.78125 47.21875 15.09375 
Q 47.21875 7.46875 41.1875 3.015625 
Q 35.15625 -1.421875 24.609375 -1.421875 
Q 20.21875 -1.421875 15.453125 -0.5625 
Q 10.6875 0.296875 5.421875 2 
L 5.421875 11.28125 
Q 10.40625 8.6875 15.234375 7.390625 
Q 20.0625 6.109375 24.8125 6.109375 
Q 31.15625 6.109375 34.5625 8.28125 
Q 37.984375 10.453125 37.984375 14.40625 
Q 37.984375 18.0625 35.515625 20.015625 
Q 33.0625 21.96875 24.703125 23.78125 
L 21.578125 24.515625 
Q 13.234375 26.265625 9.515625 29.90625 
Q 5.8125 33.546875 5.8125 39.890625 
Q 5.8125 47.609375 11.28125 51.796875 
Q 16.75 56 26.8125 56 
Q 31.78125 56 36.171875 55.265625 
Q 40.578125 54.546875 44.28125 53.078125 
" id="BitstreamVeraSans-Roman-73"/>
      <path d="M 18.109375 8.203125 
L 18.109375 -20.796875 
L 9.078125 -20.796875 
L 9.078125 54.6875 
L 18.109375 54.6875 
L 18.109375 46.390625 
Q 20.953125 51.265625 25.265625 53.625 
Q 29.59375 56 35.59375 56 
Q 45.5625 56 51.78125 48.09375 
Q 58.015625 40.1875 58.015625 27.296875 
Q 58.015625 14.40625 51.78125 6.484375 
Q 45.5625 -1.421875 35.59375 -1.421875 
Q 29.59375 -1.421875 25.265625 0.953125 
Q 20.953125 3.328125 18.109375 8.203125 
M 48.6875 27.296875 
Q 48.6875 37.203125 44.609375 42.84375 
Q 40.53125 48.484375 33.40625 48.484375 
Q 26.265625 48.484375 22.1875 42.84375 
Q 18.109375 37.203125 18.109375 27.296875 
Q 18.109375 17.390625 22.1875 11.75 
Q 26.265625 6.109375 33.40625 6.109375 
Q 40.53125 6.109375 44.609375 11.75 
Q 48.6875 17.390625 48.6875 27.296875 
" id="BitstreamVeraSans-Roman-70"/>
      <path d="M 30.609375 48.390625 
Q 23.390625 48.390625 19.1875 42.75 
Q 14.984375 37.109375 14.984375 27.296875 
Q 14.984375 17.484375 19.15625 11.84375 
Q 23.34375 6.203125 30.609375 6.203125 
Q 37.796875 6.203125 41.984375 11.859375 
Q 46.1875 17.53125 46.1875 27.296875 
Q 46.1875 37.015625 41.984375 42.703125 
Q 37.796875 48.390625 30.609375 48.390625 
M 30.609375 56 
Q 42.328125 56 49.015625 48.375 
Q 55.71875 40.765625 55.71875 27.296875 
Q 55.71875 13.875 49.015625 6.21875 
Q 42.328125 -1.421875 30.609375 -1.421875 
Q 18.84375 -1.421875 12.171875 6.21875 
Q 5.515625 13.875 5.515625 27.296875 
Q 5.515625 40.765625 12.171875 48.375 
Q 18.84375 56 30.609375 56 
" id="BitstreamVeraSans-Roman-6f"/>
      <path d="M 56.203125 29.59375 
L 56.203125 25.203125 
L 14.890625 25.203125 
Q 15.484375 15.921875 20.484375 11.0625 
Q 25.484375 6.203125 34.421875 6.203125 
Q 39.59375 6.203125 44.453125 7.46875 
Q 49.3125 8.734375 54.109375 11.28125 
L 54.109375 2.78125 
Q 49.265625 0.734375 44.1875 -0.34375 
Q 39.109375 -1.421875 33.890625 -1.421875 
Q 20.796875 -1.421875 13.15625 6.1875 
Q 5.515625 13.8125 5.515625 26.8125 
Q 5.515625 40.234375 12.765625 48.109375 
Q 20.015625 56 32.328125 56 
Q 43.359375 56 49.78125 48.890625 
Q 56.203125 41.796875 56.203125 29.59375 
M 47.21875 32.234375 
Q 47.125 39.59375 43.09375 43.984375 
Q 39.0625 48.390625 32.421875 48.390625 
Q 24.90625 48.390625 20.390625 44.140625 
Q 15.875 39.890625 15.1875 32.171875 
z
" id="BitstreamVeraSans-Roman-65"/>
      <path d="M 45.40625 46.390625 
L 45.40625 75.984375 
L 54.390625 75.984375 
L 54.390625 0 
L 45.40625 0 
L 45.40625 8.203125 
Q 42.578125 3.328125 38.25 0.953125 
Q 33.9375 -1.421875 27.875 -1.421875 
Q 17.96875 -1.421875 11.734375 6.484375 
Q 5.515625 14.40625 5.515625 27.296875 
Q 5.515625 40.1875 11.734375 48.09375 
Q 17.96875 56 27.875 56 
Q 33.9375 56 38.25 53.625 
Q 42.578125 51.265625 45.40625 46.390625 
M 14.796875 27.296875 
Q 14.796875 17.390625 18.875 11.75 
Q 22.953125 6.109375 30.078125 6.109375 
Q 37.203125 6.109375 41.296875 11.75 
Q 45.40625 17.390625 45.40625 27.296875 
Q 45.40625 37.203125 41.296875 42.84375 
Q 37.203125 48.484375 30.078125 48.484375 
Q 22.953125 48.484375 18.875 42.84375 
Q 14.796875 37.203125 14.796875 27.296875 
" id="BitstreamVeraSans-Roman-64"/>
     </defs>
     <g transform="translate(243.50625 398.473625)scale(0.12 -0.12)">
      <use xlink:href="#BitstreamVeraSans-Roman-65"/>
      <use x="61.5234375" xlink:href="#BitstreamVeraSans-Roman-70"/>
      <use x="125.0" xlink:href="#BitstreamVeraSans-Roman-69"/>
      <use x="152.783203125" xlink:href="#BitstreamVeraSans-Roman-73"/>
      <use x="204.8828125" xlink:href="#BitstreamVeraSans-Roman-6f"/>
      <use x="266.064453125" xlink:href="#BitstreamVeraSans-Roman-64"/>
      <use x="329.541015625" xlink:href="#BitstreamVeraSans-Roman-65"/>
      <use x="391.064453125" xlink:href="#BitstreamVeraSans-Roman-73"/>
     </g>
    </g>
   </g>
   <g id="matplotlib.axis_2">
    <g id="ytick_1">
     <g id="line2d_22">
      <defs>
       <path d="M 0 0 
L 4 0 
" id="mcca91146ec" style="stroke:#000000;stroke-width:0.5;"/>
      </defs>
      <g>
       <use style="stroke:#000000;stroke-width:0.5;" x="46.8975" xlink:href="#mcca91146ec" y="368.74175"/>
      </g>
     </g>
     <g id="line2d_23">
      <defs>
       <path d="M 0 0 
L -4 0 
" id="mda840cd3bc" style="stroke:#000000;stroke-width:0.5;"/>
      </defs>
      <g>
       <use style="stroke:#000000;stroke-width:0.5;" x="493.2975" xlink:href="#mda840cd3bc" y="368.74175"/>
      </g>
     </g>
     <g id="text_12">
      <!-- 0.0 -->
      <defs>
       <path d="M 10.6875 12.40625 
L 21 12.40625 
L 21 0 
L 10.6875 0 
z
" id="BitstreamVeraSans-Roman-2e"/>
      </defs>
      <g transform="translate(23.81375 372.053)scale(0.12 -0.12)">
       <use xlink:href="#BitstreamVeraSans-Roman-30"/>
       <use x="63.623046875" xlink:href="#BitstreamVeraSans-Roman-2e"/>
       <use x="95.41015625" xlink:href="#BitstreamVeraSans-Roman-30"/>
      </g>
     </g>
    </g>
    <g id="ytick_2">
     <g id="line2d_24">
      <g>
       <use style="stroke:#000000;stroke-width:0.5;" x="46.8975" xlink:href="#mcca91146ec" y="311.14175"/>
      </g>
     </g>
     <g id="line2d_25">
      <g>
       <use style="stroke:#000000;stroke-width:0.5;" x="493.2975" xlink:href="#mda840cd3bc" y="311.14175"/>
      </g>
     </g>
     <g id="text_13">
      <!-- 0.5 -->
      <g transform="translate(23.81375 314.453)scale(0.12 -0.12)">
       <use xlink:href="#BitstreamVeraSans-Roman-30"/>
       <use x="63.623046875" xlink:href="#BitstreamVeraSans-Roman-2e"/>
       <use x="95.41015625" xlink:href="#BitstreamVeraSans-Roman-35"/>
      </g>
     </g>
    </g>
    <g id="ytick_3">
     <g id="line2d_26">
      <g>
       <use style="stroke:#000000;stroke-width:0.5;" x="46.8975" xlink:href="#mcca91146ec" y="253.54175"/>
      </g>
     </g>
     <g id="line2d_27">
      <g>
       <use style="stroke:#000000;stroke-width:0.5;" x="493.2975" xlink:href="#mda840cd3bc" y="253.54175"/>
      </g>
     </g>
     <g id="text_14">
      <!-- 1.0 -->
      <g transform="translate(23.81375 256.853)scale(0.12 -0.12)">
       <use xlink:href="#BitstreamVeraSans-Roman-31"/>
       <use x="63.623046875" xlink:href="#BitstreamVeraSans-Roman-2e"/>
       <use x="95.41015625" xlink:href="#BitstreamVeraSans-Roman-30"/>
      </g>
     </g>
    </g>
    <g id="ytick_4">
     <g id="line2d_28">
      <g>
       <use style="stroke:#000000;stroke-width:0.5;" x="46.8975" xlink:href="#mcca91146ec" y="195.94175"/>
      </g>
     </g>
     <g id="line2d_29">
      <g>
       <use style="stroke:#000000;stroke-width:0.5;" x="493.2975" xlink:href="#mda840cd3bc" y="195.94175"/>
      </g>
     </g>
     <g id="text_15">
      <!-- 1.5 -->
      <g transform="translate(23.81375 199.253)scale(0.12 -0.12)">
       <use xlink:href="#BitstreamVeraSans-Roman-31"/>
       <use x="63.623046875" xlink:href="#BitstreamVeraSans-Roman-2e"/>
       <use x="95.41015625" xlink:href="#BitstreamVeraSans-Roman-35"/>
      </g>
     </g>
    </g>
    <g id="ytick_5">
     <g id="line2d_30">
      <g>
       <use style="stroke:#000000;stroke-width:0.5;" x="46.8975" xlink:href="#mcca91146ec" y="138.34175"/>
      </g>
     </g>
     <g id="line2d_31">
      <g>
       <use style="stroke:#000000;stroke-width:0.5;" x="493.2975" xlink:href="#mda840cd3bc" y="138.34175"/>
      </g>
     </g>
     <g id="text_16">
      <!-- 2.0 -->
      <g transform="translate(23.81375 141.653)scale(0.12 -0.12)">
       <use xlink:href="#BitstreamVeraSans-Roman-32"/>
       <use x="63.623046875" xlink:href="#BitstreamVeraSans-Roman-2e"/>
       <use x="95.41015625" xlink:href="#BitstreamVeraSans-Roman-30"/>
      </g>
     </g>
    </g>
    <g id="ytick_6">
     <g id="line2d_32">
      <g>
       <use style="stroke:#000000;stroke-width:0.5;" x="46.8975" xlink:href="#mcca91146ec" y="80.74175"/>
      </g>
     </g>
     <g id="line2d_33">
      <g>
       <use style="stroke:#000000;stroke-width:0.5;" x="493.2975" xlink:href="#mda840cd3bc" y="80.74175"/>
      </g>
     </g>
     <g id="text_17">
      <!-- 2.5 -->
      <g transform="translate(23.81375 84.053)scale(0.12 -0.12)">
       <use xlink:href="#BitstreamVeraSans-Roman-32"/>
       <use x="63.623046875" xlink:href="#BitstreamVeraSans-Roman-2e"/>
       <use x="95.41015625" xlink:href="#BitstreamVeraSans-Roman-35"/>
      </g>
     </g>
    </g>
    <g id="ytick_7">
     <g id="line2d_34">
      <g>
       <use style="stroke:#000000;stroke-width:0.5;" x="46.8975" xlink:href="#mcca91146ec" y="23.14175"/>
      </g>
     </g>
     <g id="line2d_35">
      <g>
       <use style="stroke:#000000;stroke-width:0.5;" x="493.2975" xlink:href="#mda840cd3bc" y="23.14175"/>
      </g>
     </g>
     <g id="text_18">
      <!-- 3.0 -->
      <g transform="translate(23.81375 26.453)scale(0.12 -0.12)">
       <use xlink:href="#BitstreamVeraSans-Roman-33"/>
       <use x="63.623046875" xlink:href="#BitstreamVeraSans-Roman-2e"/>
       <use x="95.41015625" xlink:href="#BitstreamVeraSans-Roman-30"/>
      </g>
     </g>
    </g>
    <g id="text_19">
     <!-- undisc. return -->
     <defs>
      <path d="M 8.5 21.578125 
L 8.5 54.6875 
L 17.484375 54.6875 
L 17.484375 21.921875 
Q 17.484375 14.15625 20.5 10.265625 
Q 23.53125 6.390625 29.59375 6.390625 
Q 36.859375 6.390625 41.078125 11.03125 
Q 45.3125 15.671875 45.3125 23.6875 
L 45.3125 54.6875 
L 54.296875 54.6875 
L 54.296875 0 
L 45.3125 0 
L 45.3125 8.40625 
Q 42.046875 3.421875 37.71875 1 
Q 33.40625 -1.421875 27.6875 -1.421875 
Q 18.265625 -1.421875 13.375 4.4375 
Q 8.5 10.296875 8.5 21.578125 
" id="BitstreamVeraSans-Roman-75"/>
      <path d="M 54.890625 33.015625 
L 54.890625 0 
L 45.90625 0 
L 45.90625 32.71875 
Q 45.90625 40.484375 42.875 44.328125 
Q 39.84375 48.1875 33.796875 48.1875 
Q 26.515625 48.1875 22.3125 43.546875 
Q 18.109375 38.921875 18.109375 30.90625 
L 18.109375 0 
L 9.078125 0 
L 9.078125 54.6875 
L 18.109375 54.6875 
L 18.109375 46.1875 
Q 21.34375 51.125 25.703125 53.5625 
Q 30.078125 56 35.796875 56 
Q 45.21875 56 50.046875 50.171875 
Q 54.890625 44.34375 54.890625 33.015625 
" id="BitstreamVeraSans-Roman-6e"/>
      <path id="BitstreamVeraSans-Roman-20"/>
      <path d="M 41.109375 46.296875 
Q 39.59375 47.171875 37.8125 47.578125 
Q 36.03125 48 33.890625 48 
Q 26.265625 48 22.1875 43.046875 
Q 18.109375 38.09375 18.109375 28.8125 
L 18.109375 0 
L 9.078125 0 
L 9.078125 54.6875 
L 18.109375 54.6875 
L 18.109375 46.1875 
Q 20.953125 51.171875 25.484375 53.578125 
Q 30.03125 56 36.53125 56 
Q 37.453125 56 38.578125 55.875 
Q 39.703125 55.765625 41.0625 55.515625 
z
" id="BitstreamVeraSans-Roman-72"/>
      <path d="M 48.78125 52.59375 
L 48.78125 44.1875 
Q 44.96875 46.296875 41.140625 47.34375 
Q 37.3125 48.390625 33.40625 48.390625 
Q 24.65625 48.390625 19.8125 42.84375 
Q 14.984375 37.3125 14.984375 27.296875 
Q 14.984375 17.28125 19.8125 11.734375 
Q 24.65625 6.203125 33.40625 6.203125 
Q 37.3125 6.203125 41.140625 7.25 
Q 44.96875 8.296875 48.78125 10.40625 
L 48.78125 2.09375 
Q 45.015625 0.34375 40.984375 -0.53125 
Q 36.96875 -1.421875 32.421875 -1.421875 
Q 20.0625 -1.421875 12.78125 6.34375 
Q 5.515625 14.109375 5.515625 27.296875 
Q 5.515625 40.671875 12.859375 48.328125 
Q 20.21875 56 33.015625 56 
Q 37.15625 56 41.109375 55.140625 
Q 45.0625 54.296875 48.78125 52.59375 
" id="BitstreamVeraSans-Roman-63"/>
      <path d="M 18.3125 70.21875 
L 18.3125 54.6875 
L 36.8125 54.6875 
L 36.8125 47.703125 
L 18.3125 47.703125 
L 18.3125 18.015625 
Q 18.3125 11.328125 20.140625 9.421875 
Q 21.96875 7.515625 27.59375 7.515625 
L 36.8125 7.515625 
L 36.8125 0 
L 27.59375 0 
Q 17.1875 0 13.234375 3.875 
Q 9.28125 7.765625 9.28125 18.015625 
L 9.28125 47.703125 
L 2.6875 47.703125 
L 2.6875 54.6875 
L 9.28125 54.6875 
L 9.28125 70.21875 
z
" id="BitstreamVeraSans-Roman-74"/>
     </defs>
     <g transform="translate(16.318125 237.8405)rotate(-90.0)scale(0.12 -0.12)">
      <use xlink:href="#BitstreamVeraSans-Roman-75"/>
      <use x="63.37890625" xlink:href="#BitstreamVeraSans-Roman-6e"/>
      <use x="126.7578125" xlink:href="#BitstreamVeraSans-Roman-64"/>
      <use x="190.234375" xlink:href="#BitstreamVeraSans-Roman-69"/>
      <use x="218.017578125" xlink:href="#BitstreamVeraSans-Roman-73"/>
      <use x="270.1171875" xlink:href="#BitstreamVeraSans-Roman-63"/>
      <use x="325.09765625" xlink:href="#BitstreamVeraSans-Roman-2e"/>
      <use x="356.884765625" xlink:href="#BitstreamVeraSans-Roman-20"/>
      <use x="388.671875" xlink:href="#BitstreamVeraSans-Roman-72"/>
      <use x="429.75390625" xlink:href="#BitstreamVeraSans-Roman-65"/>
      <use x="491.27734375" xlink:href="#BitstreamVeraSans-Roman-74"/>
      <use x="530.486328125" xlink:href="#BitstreamVeraSans-Roman-75"/>
      <use x="593.865234375" xlink:href="#BitstreamVeraSans-Roman-72"/>
      <use x="634.962890625" xlink:href="#BitstreamVeraSans-Roman-6e"/>
     </g>
    </g>
   </g>
   <g id="text_20">
    <!-- Undiscounted return obtained -->
    <defs>
     <path d="M 8.6875 72.90625 
L 18.609375 72.90625 
L 18.609375 28.609375 
Q 18.609375 16.890625 22.84375 11.734375 
Q 27.09375 6.59375 36.625 6.59375 
Q 46.09375 6.59375 50.34375 11.734375 
Q 54.59375 16.890625 54.59375 28.609375 
L 54.59375 72.90625 
L 64.5 72.90625 
L 64.5 27.390625 
Q 64.5 13.140625 57.4375 5.859375 
Q 50.390625 -1.421875 36.625 -1.421875 
Q 22.796875 -1.421875 15.734375 5.859375 
Q 8.6875 13.140625 8.6875 27.390625 
z
" id="BitstreamVeraSans-Roman-55"/>
     <path d="M 34.28125 27.484375 
Q 23.390625 27.484375 19.1875 25 
Q 14.984375 22.515625 14.984375 16.5 
Q 14.984375 11.71875 18.140625 8.90625 
Q 21.296875 6.109375 26.703125 6.109375 
Q 34.1875 6.109375 38.703125 11.40625 
Q 43.21875 16.703125 43.21875 25.484375 
L 43.21875 27.484375 
z
M 52.203125 31.203125 
L 52.203125 0 
L 43.21875 0 
L 43.21875 8.296875 
Q 40.140625 3.328125 35.546875 0.953125 
Q 30.953125 -1.421875 24.3125 -1.421875 
Q 15.921875 -1.421875 10.953125 3.296875 
Q 6 8.015625 6 15.921875 
Q 6 25.140625 12.171875 29.828125 
Q 18.359375 34.515625 30.609375 34.515625 
L 43.21875 34.515625 
L 43.21875 35.40625 
Q 43.21875 41.609375 39.140625 45 
Q 35.0625 48.390625 27.6875 48.390625 
Q 23 48.390625 18.546875 47.265625 
Q 14.109375 46.140625 10.015625 43.890625 
L 10.015625 52.203125 
Q 14.9375 54.109375 19.578125 55.046875 
Q 24.21875 56 28.609375 56 
Q 40.484375 56 46.34375 49.84375 
Q 52.203125 43.703125 52.203125 31.203125 
" id="BitstreamVeraSans-Roman-61"/>
     <path d="M 48.6875 27.296875 
Q 48.6875 37.203125 44.609375 42.84375 
Q 40.53125 48.484375 33.40625 48.484375 
Q 26.265625 48.484375 22.1875 42.84375 
Q 18.109375 37.203125 18.109375 27.296875 
Q 18.109375 17.390625 22.1875 11.75 
Q 26.265625 6.109375 33.40625 6.109375 
Q 40.53125 6.109375 44.609375 11.75 
Q 48.6875 17.390625 48.6875 27.296875 
M 18.109375 46.390625 
Q 20.953125 51.265625 25.265625 53.625 
Q 29.59375 56 35.59375 56 
Q 45.5625 56 51.78125 48.09375 
Q 58.015625 40.1875 58.015625 27.296875 
Q 58.015625 14.40625 51.78125 6.484375 
Q 45.5625 -1.421875 35.59375 -1.421875 
Q 29.59375 -1.421875 25.265625 0.953125 
Q 20.953125 3.328125 18.109375 8.203125 
L 18.109375 0 
L 9.078125 0 
L 9.078125 75.984375 
L 18.109375 75.984375 
z
" id="BitstreamVeraSans-Roman-62"/>
    </defs>
    <g transform="translate(161.981625 18.14175)scale(0.144 -0.144)">
     <use xlink:href="#BitstreamVeraSans-Roman-55"/>
     <use x="73.193359375" xlink:href="#BitstreamVeraSans-Roman-6e"/>
     <use x="136.572265625" xlink:href="#BitstreamVeraSans-Roman-64"/>
     <use x="200.048828125" xlink:href="#BitstreamVeraSans-Roman-69"/>
     <use x="227.83203125" xlink:href="#BitstreamVeraSans-Roman-73"/>
     <use x="279.931640625" xlink:href="#BitstreamVeraSans-Roman-63"/>
     <use x="334.912109375" xlink:href="#BitstreamVeraSans-Roman-6f"/>
     <use x="396.09375" xlink:href="#BitstreamVeraSans-Roman-75"/>
     <use x="459.47265625" xlink:href="#BitstreamVeraSans-Roman-6e"/>
     <use x="522.8515625" xlink:href="#BitstreamVeraSans-Roman-74"/>
     <use x="562.060546875" xlink:href="#BitstreamVeraSans-Roman-65"/>
     <use x="623.583984375" xlink:href="#BitstreamVeraSans-Roman-64"/>
     <use x="687.060546875" xlink:href="#BitstreamVeraSans-Roman-20"/>
     <use x="718.84765625" xlink:href="#BitstreamVeraSans-Roman-72"/>
     <use x="759.9296875" xlink:href="#BitstreamVeraSans-Roman-65"/>
     <use x="821.453125" xlink:href="#BitstreamVeraSans-Roman-74"/>
     <use x="860.662109375" xlink:href="#BitstreamVeraSans-Roman-75"/>
     <use x="924.041015625" xlink:href="#BitstreamVeraSans-Roman-72"/>
     <use x="965.138671875" xlink:href="#BitstreamVeraSans-Roman-6e"/>
     <use x="1028.517578125" xlink:href="#BitstreamVeraSans-Roman-20"/>
     <use x="1060.3046875" xlink:href="#BitstreamVeraSans-Roman-6f"/>
     <use x="1121.486328125" xlink:href="#BitstreamVeraSans-Roman-62"/>
     <use x="1184.962890625" xlink:href="#BitstreamVeraSans-Roman-74"/>
     <use x="1224.171875" xlink:href="#BitstreamVeraSans-Roman-61"/>
     <use x="1285.451171875" xlink:href="#BitstreamVeraSans-Roman-69"/>
     <use x="1313.234375" xlink:href="#BitstreamVeraSans-Roman-6e"/>
     <use x="1376.61328125" xlink:href="#BitstreamVeraSans-Roman-65"/>
     <use x="1438.13671875" xlink:href="#BitstreamVeraSans-Roman-64"/>
    </g>
   </g>
  </g>
 </g>
 <defs>
  <clipPath id="pd6b529e870">
   <rect height="345.6" width="446.4" x="46.8975" y="23.14175"/>
  </clipPath>
 </defs>
</svg>
