<?xml version="1.0" encoding="utf-8" standalone="no"?>
<!DOCTYPE svg PUBLIC "-//W3C//DTD SVG 1.1//EN"
  "http://www.w3.org/Graphics/SVG/1.1/DTD/svg11.dtd">
<!-- Created with matplotlib (http://matplotlib.org/) -->
<svg height="408pt" version="1.1" viewBox="0 0 515 408" width="515pt" xmlns="http://www.w3.org/2000/svg" xmlns:xlink="http://www.w3.org/1999/xlink">
 <defs>
  <style type="text/css">
*{stroke-linecap:butt;stroke-linejoin:round;stroke-miterlimit:100000;}
  </style>
 </defs>
 <g id="figure_1">
  <g id="patch_1">
   <path d="M 0 408.16925 
L 515.7675 408.16925 
L 515.7675 0 
L 0 0 
z
" style="fill:#ffffff;"/>
  </g>
  <g id="axes_1">
   <g id="patch_2">
    <path d="M 46.8975 368.74175 
L 493.2975 368.74175 
L 493.2975 23.14175 
L 46.8975 23.14175 
z
" style="fill:#ffffff;"/>
   </g>
   <g id="line2d_1">
    <path clip-path="url(#p28a54a8b1c)" d="M 46.8975 322.954544 
L 47.1207 325.357227 
L 47.3439 324.073944 
L 47.5671 323.927674 
L 47.7903 325.313367 
L 48.0135 322.853675 
L 48.2367 324.69755 
L 48.4599 322.977468 
L 48.6831 324.072385 
L 48.9063 323.754754 
L 49.1295 324.179769 
L 49.3527 322.474377 
L 49.5759 325.772904 
L 50.0223 323.805887 
L 50.2455 323.873274 
L 50.4687 322.482164 
L 50.6919 322.456322 
L 50.9151 321.712572 
L 51.1383 325.256621 
L 51.3615 324.508014 
L 51.5847 322.843021 
L 51.8079 323.505002 
L 52.0311 322.156889 
L 52.2543 321.937739 
L 52.4775 323.843936 
L 52.7007 322.53227 
L 52.9239 323.433896 
L 53.1471 323.835265 
L 53.5935 323.11364 
L 53.8167 324.74474 
L 54.0399 323.014292 
L 54.4863 323.051927 
L 54.7095 322.951217 
L 54.9327 322.646045 
L 55.1559 324.006161 
L 55.3791 324.22121 
L 55.6023 323.639419 
L 55.8255 323.883144 
L 56.0487 323.635189 
L 56.2719 324.630021 
L 56.4951 325.052638 
L 56.7183 324.759506 
L 56.9415 323.434411 
L 57.1647 323.017255 
L 57.3879 324.381767 
L 57.6111 322.512275 
L 57.8343 324.366214 
L 58.0575 323.247972 
L 58.2807 325.641462 
L 58.5039 322.998314 
L 58.9503 323.568463 
L 59.1735 322.767885 
L 59.3967 325.082536 
L 59.6199 324.999112 
L 60.0663 323.427803 
L 60.5127 324.433295 
L 60.7359 324.46536 
L 60.9591 323.667407 
L 61.1823 323.401487 
L 61.4055 323.803464 
L 61.6287 323.495743 
L 61.8519 324.674921 
L 62.0751 323.089728 
L 62.2983 323.438378 
L 62.7447 322.395396 
L 62.9679 324.480256 
L 63.1911 324.968519 
L 63.4143 322.293553 
L 63.6375 322.582903 
L 63.8607 323.268519 
L 64.0839 325.293435 
L 64.3071 325.762764 
L 64.9767 323.613006 
L 65.1999 324.538402 
L 65.4231 322.992798 
L 65.6463 324.067935 
L 65.8695 323.784767 
L 66.0927 323.022209 
L 66.3159 324.683809 
L 66.7623 322.80862 
L 66.9855 322.582701 
L 67.2087 323.652731 
L 67.4319 322.860003 
L 67.6551 324.297514 
L 67.8783 324.243385 
L 68.1015 323.509586 
L 68.3247 324.632678 
L 68.5479 321.735251 
L 68.7711 324.369495 
L 68.9943 321.342922 
L 69.2175 325.415113 
L 69.4407 323.97548 
L 69.6639 325.445648 
L 69.8871 324.123394 
L 70.1103 323.803638 
L 70.3335 324.162412 
L 70.5567 323.364226 
L 70.7799 324.625948 
L 71.0031 322.534157 
L 71.4495 325.210836 
L 71.6727 322.207436 
L 71.8959 323.977496 
L 72.1191 323.029473 
L 72.3423 323.040483 
L 72.5655 325.3598 
L 72.7887 324.558592 
L 73.0119 325.537962 
L 73.6815 324.02703 
L 73.9047 323.825754 
L 74.1279 322.652606 
L 74.5743 324.67844 
L 74.7975 324.322028 
L 75.0207 321.806095 
L 75.2439 323.824179 
L 75.4671 321.158746 
L 75.6903 325.25117 
L 75.9135 322.15852 
L 76.1367 325.247931 
L 76.3599 323.012671 
L 76.5831 325.002716 
L 76.8063 323.029818 
L 77.0295 323.664705 
L 77.2527 325.32615 
L 77.4759 324.224977 
L 77.6991 326.002317 
L 77.9223 322.750883 
L 78.1455 324.917988 
L 78.3687 323.422316 
L 78.5919 323.965187 
L 78.8151 322.648823 
L 79.0383 323.410034 
L 79.2615 323.214468 
L 79.4847 324.825064 
L 79.7079 323.581459 
L 80.1543 322.914551 
L 80.3775 326.532103 
L 80.6007 325.036885 
L 80.8239 324.959615 
L 81.0471 325.076416 
L 81.2703 324.601852 
L 81.4935 324.415786 
L 81.7167 323.405763 
L 81.9399 324.204355 
L 82.1631 324.289441 
L 82.6095 323.475293 
L 82.8327 324.033859 
L 83.0559 323.60138 
L 83.2791 323.45505 
L 83.5023 322.40163 
L 83.7255 324.034218 
L 83.9487 322.915665 
L 84.1719 324.272987 
L 84.6183 322.78363 
L 84.8415 325.807149 
L 85.0647 323.481269 
L 85.2879 323.741876 
L 85.5111 338.472454 
L 85.7343 337.8652 
L 85.9575 336.428256 
L 86.1807 342.695877 
L 86.6271 339.986435 
L 86.8503 342.488534 
L 87.0735 340.847783 
L 87.2967 340.653535 
L 87.5199 340.759849 
L 87.7431 340.242544 
L 87.9663 340.251794 
L 88.1895 339.603469 
L 88.4127 339.306194 
L 89.0823 339.346394 
L 89.5287 338.937633 
L 89.7519 338.833383 
L 89.9751 339.08832 
L 90.1983 338.004512 
L 90.4215 338.228207 
L 90.6447 338.725404 
L 90.8679 337.432783 
L 91.0911 338.389089 
L 91.3143 338.168937 
L 91.5375 337.72924 
L 91.7607 338.113837 
L 91.9839 336.734218 
L 92.2071 337.952702 
L 92.4303 337.907761 
L 92.6535 336.818661 
L 93.0999 337.423981 
L 93.3231 336.046317 
L 93.5463 336.716449 
L 93.9927 335.756561 
L 94.2159 336.498502 
L 94.4391 336.454743 
L 94.6623 335.078753 
L 94.8855 336.003971 
L 95.1087 335.652441 
L 95.3319 336.698684 
L 95.5551 334.317631 
L 95.7783 335.53982 
L 96.2247 333.932439 
L 96.4479 335.201445 
L 96.6711 334.474552 
L 96.8943 333.335972 
L 97.1175 334.843667 
L 97.3407 334.624985 
L 97.5639 333.040742 
L 97.7871 333.135018 
L 98.0103 332.680849 
L 98.2335 332.928212 
L 98.4567 330.861745 
L 98.6799 333.813403 
L 98.9031 332.894349 
L 99.1263 332.455092 
L 99.3495 330.723662 
L 99.5727 331.687672 
L 99.7959 330.556662 
L 100.0191 333.059408 
L 100.2423 330.580795 
L 100.4655 330.791833 
L 100.6887 330.792227 
L 100.9119 329.829739 
L 101.1351 326.809124 
L 101.3583 326.81204 
L 101.5815 327.842957 
L 101.8047 327.837438 
L 102.0279 325.474078 
L 102.4743 328.318771 
L 102.6975 329.79147 
L 102.9207 326.282547 
L 103.1439 327.684863 
L 103.3671 326.104934 
L 103.8135 328.417154 
L 104.0367 325.239348 
L 104.4831 323.01676 
L 104.7063 323.639793 
L 104.9295 328.333296 
L 105.1527 321.733888 
L 105.3759 327.567722 
L 105.8223 323.041224 
L 106.0455 333.034317 
L 106.2687 323.604204 
L 106.4919 323.929459 
L 106.9383 317.577035 
L 107.1615 321.107561 
L 107.3847 322.213746 
L 107.8311 320.324841 
L 108.0543 321.89555 
L 108.2775 322.202697 
L 108.5007 321.050386 
L 108.7239 320.655315 
L 108.9471 316.060742 
L 109.1703 322.390078 
L 109.3935 318.868251 
L 109.6167 321.648432 
L 109.8399 320.57097 
L 110.2863 319.50843 
L 110.5095 321.473795 
L 110.7327 320.770419 
L 110.9559 318.030675 
L 111.1791 316.690651 
L 111.4023 318.018272 
L 111.6255 318.276125 
L 111.8487 319.326701 
L 112.0719 317.021318 
L 112.5183 318.340959 
L 112.7415 317.396257 
L 112.9647 317.431079 
L 113.1879 317.747985 
L 113.4111 312.202665 
L 113.6343 318.271421 
L 113.8575 316.86984 
L 114.0807 321.722576 
L 114.3039 315.490967 
L 114.5271 315.175588 
L 114.9735 313.40507 
L 115.1967 313.115411 
L 115.4199 312.229043 
L 115.6431 312.470141 
L 115.8663 309.33898 
L 116.0895 312.600417 
L 116.3127 312.087935 
L 116.5359 308.923314 
L 116.7591 310.965509 
L 116.9823 310.348002 
L 117.2055 313.267752 
L 117.6519 308.88981 
L 117.8751 306.410987 
L 118.0983 310.513416 
L 118.3215 310.241942 
L 118.5447 311.811597 
L 118.7679 306.219539 
L 118.9911 313.615625 
L 119.2143 304.933318 
L 119.6607 308.790313 
L 119.8839 308.944949 
L 120.1071 306.4937 
L 120.3303 306.284962 
L 120.5535 309.045771 
L 120.7767 302.368881 
L 120.9999 306.58951 
L 121.2231 307.297915 
L 121.4463 306.138448 
L 121.6695 304.240984 
L 121.8927 306.063101 
L 122.1159 304.985158 
L 122.3391 301.872302 
L 122.5623 305.664106 
L 122.7855 305.76436 
L 123.0087 306.93112 
L 123.2319 302.656682 
L 123.4551 302.144992 
L 123.6783 303.09633 
L 123.9015 300.39663 
L 124.1247 300.971088 
L 124.3479 302.765902 
L 124.5711 297.787604 
L 124.7943 297.628171 
L 125.0175 302.316449 
L 125.2407 302.604955 
L 125.4639 303.865536 
L 125.6871 303.265876 
L 126.1335 299.227783 
L 126.3567 301.01091 
L 126.5799 300.484975 
L 126.8031 294.566294 
L 127.0263 296.763566 
L 127.2495 301.270205 
L 127.4727 295.639908 
L 127.6959 300.463935 
L 127.9191 299.293217 
L 128.1423 295.248635 
L 128.3655 298.306366 
L 128.5887 297.860804 
L 128.8119 299.457548 
L 129.0351 306.780959 
L 129.2583 298.502808 
L 129.4815 297.937681 
L 129.7047 298.441236 
L 129.9279 292.443124 
L 130.1511 297.48579 
L 130.3743 298.453559 
L 130.5975 296.373608 
L 130.8207 296.127352 
L 131.0439 296.171694 
L 131.2671 292.60104 
L 131.4903 296.735054 
L 131.7135 296.990777 
L 131.9367 294.232221 
L 132.1599 295.508045 
L 132.3831 293.100435 
L 132.6063 300.337456 
L 133.0527 289.346956 
L 133.4991 294.15349 
L 133.7223 296.775719 
L 133.9455 290.404053 
L 134.1687 295.34215 
L 134.3919 287.002797 
L 134.6151 291.09703 
L 134.8383 290.244419 
L 135.2847 292.31522 
L 135.5079 296.48967 
L 135.7311 285.503443 
L 135.9543 308.997841 
L 136.1775 291.481986 
L 136.4007 284.733557 
L 136.6239 294.068247 
L 137.0703 288.914626 
L 137.2935 287.310216 
L 137.5167 291.160692 
L 137.7399 286.941797 
L 137.9631 287.279635 
L 138.1863 292.409019 
L 138.4095 283.372321 
L 138.6327 287.740246 
L 138.8559 282.167019 
L 139.0791 287.096923 
L 139.3023 282.491334 
L 139.5255 288.691416 
L 139.7487 289.80976 
L 139.9719 286.212056 
L 140.1951 285.019718 
L 140.4183 285.122045 
L 140.6415 285.724821 
L 140.8647 280.705822 
L 141.0879 288.568619 
L 141.3111 305.35721 
L 141.5343 287.290649 
L 141.7575 292.135175 
L 142.4271 276.383484 
L 142.8735 285.222925 
L 143.0967 278.520094 
L 143.3199 282.641401 
L 143.5431 284.60105 
L 143.7663 283.521304 
L 143.9895 285.027756 
L 144.2127 283.159116 
L 144.4359 279.513315 
L 144.6591 280.26828 
L 144.8823 283.919598 
L 145.3287 277.891859 
L 145.5519 284.812455 
L 145.7751 277.783472 
L 145.9983 286.782218 
L 146.2215 272.43241 
L 146.4447 280.53568 
L 146.6679 277.135635 
L 146.8911 278.829302 
L 147.1143 275.167602 
L 147.3375 292.997766 
L 147.5607 279.162822 
L 147.7839 280.44301 
L 148.0071 276.010211 
L 148.2303 278.721015 
L 148.4535 277.956095 
L 148.6767 283.604514 
L 149.1231 272.186973 
L 149.3463 272.92028 
L 149.7927 278.751892 
L 150.0159 268.636261 
L 150.2391 275.386536 
L 150.4623 275.713779 
L 150.6855 275.293207 
L 150.9087 276.142784 
L 151.1319 275.637657 
L 151.3551 276.877944 
L 151.5783 273.008181 
L 151.8015 273.247534 
L 152.0247 271.781854 
L 152.2479 274.066905 
L 152.4711 268.251482 
L 152.6943 270.598968 
L 152.9175 271.274725 
L 153.1407 274.759995 
L 153.5871 266.283394 
L 153.8103 271.881021 
L 154.0335 272.515316 
L 154.2567 272.329901 
L 154.4799 272.958887 
L 154.7031 277.072642 
L 154.9263 274.334001 
L 155.1495 270.128463 
L 155.3727 271.514989 
L 155.5959 279.303157 
L 155.8191 259.661319 
L 156.0423 266.051649 
L 156.2655 267.734218 
L 156.7119 278.394942 
L 156.9351 275.176163 
L 157.3815 264.313866 
L 157.6047 264.673076 
L 157.8279 268.698382 
L 158.0511 262.847667 
L 158.2743 291.521076 
L 158.4975 266.910432 
L 158.7207 271.638465 
L 158.9439 267.784376 
L 159.1671 267.69725 
L 159.3903 264.532759 
L 159.6135 266.137899 
L 159.8367 265.402678 
L 160.0599 267.073091 
L 160.2831 260.119533 
L 160.5063 267.826194 
L 160.7295 262.542259 
L 160.9527 265.53497 
L 161.1759 260.440228 
L 161.3991 272.258946 
L 161.8455 257.811354 
L 162.0687 260.701726 
L 162.2919 261.617048 
L 162.5151 261.975572 
L 162.7383 277.419252 
L 162.9615 263.614555 
L 163.1847 261.609739 
L 163.4079 261.787358 
L 163.6311 258.541991 
L 163.8543 263.751309 
L 164.0775 257.549843 
L 164.3007 268.282458 
L 164.5239 251.561361 
L 164.7471 259.205091 
L 164.9703 260.958754 
L 165.1935 257.718859 
L 165.4167 251.526993 
L 165.6399 262.231266 
L 165.8631 261.835615 
L 166.3095 256.081307 
L 166.5327 263.810286 
L 166.7559 247.679576 
L 166.9791 247.973428 
L 167.2023 258.167489 
L 167.4255 256.666781 
L 167.6487 260.694073 
L 167.8719 255.291812 
L 168.0951 269.376798 
L 168.3183 257.338839 
L 168.5415 251.60403 
L 168.7647 255.136118 
L 168.9879 250.352108 
L 169.2111 260.002926 
L 169.4343 253.598061 
L 169.6575 261.189636 
L 169.8807 257.483559 
L 170.1039 259.832571 
L 170.3271 253.169382 
L 170.5503 261.391234 
L 170.7735 252.389321 
L 170.9967 263.000977 
L 171.2199 243.775266 
L 171.4431 246.345057 
L 171.6663 247.181148 
L 171.8895 254.655482 
L 172.1127 255.545338 
L 172.3359 248.418433 
L 172.5591 257.179029 
L 173.0055 252.535477 
L 173.2287 254.829218 
L 173.4519 249.649875 
L 173.6751 261.654796 
L 173.8983 251.749897 
L 174.1215 251.943331 
L 174.3447 250.815059 
L 174.5679 243.639414 
L 174.7911 251.105883 
L 175.0143 246.8939 
L 175.2375 248.13408 
L 175.4607 247.943891 
L 175.6839 248.25956 
L 175.9071 259.150962 
L 176.1303 248.449803 
L 176.5767 256.0517 
L 176.7999 249.499816 
L 177.4695 242.560311 
L 177.6927 253.108845 
L 177.9159 244.474352 
L 178.1391 256.303558 
L 178.3623 254.37352 
L 178.5855 270.562852 
L 178.8087 255.306207 
L 179.0319 253.608059 
L 179.2551 256.141666 
L 179.4783 242.65316 
L 179.7015 246.592415 
L 179.9247 242.670969 
L 180.1479 247.200651 
L 180.3711 259.371884 
L 180.5943 251.660846 
L 180.8175 234.272186 
L 181.2639 257.945691 
L 181.4871 239.233266 
L 181.7103 244.556504 
L 181.9335 238.453415 
L 182.3799 251.674092 
L 182.6031 246.864532 
L 182.8263 239.442728 
L 183.0495 238.146847 
L 183.2727 240.851289 
L 183.4959 246.927495 
L 183.7191 230.507584 
L 183.9423 248.743129 
L 184.1655 246.506001 
L 184.3887 240.603823 
L 184.6119 240.42576 
L 184.8351 241.164235 
L 185.2815 237.026719 
L 185.5047 257.46916 
L 185.7279 243.328529 
L 185.9511 240.322369 
L 186.1743 250.467585 
L 186.6207 236.652137 
L 186.8439 250.854384 
L 187.0671 241.525504 
L 187.2903 237.988034 
L 187.5135 250.780662 
L 187.7367 235.867838 
L 187.9599 238.363035 
L 188.1831 254.295611 
L 188.4063 236.271052 
L 188.6295 245.294469 
L 189.0759 231.391974 
L 189.2991 229.793797 
L 189.5223 231.05272 
L 189.7455 238.588107 
L 189.9687 236.658526 
L 190.1919 249.122732 
L 190.6383 235.561498 
L 190.8615 240.864599 
L 191.0847 230.815217 
L 191.5311 234.067624 
L 191.7543 233.989696 
L 191.9775 237.362978 
L 192.2007 238.782074 
L 192.4239 243.04039 
L 192.6471 224.238229 
L 192.8703 242.562372 
L 193.0935 231.424116 
L 193.3167 230.484214 
L 193.5399 228.972434 
L 193.9863 248.749872 
L 194.2095 232.530783 
L 194.4327 226.266645 
L 194.6559 241.323526 
L 194.8791 228.474243 
L 195.1023 237.059288 
L 195.3255 230.518432 
L 195.5487 242.775187 
L 195.7719 222.204138 
L 195.9951 236.250548 
L 196.2183 234.863252 
L 196.4415 227.529655 
L 196.6647 233.067302 
L 196.8879 222.84246 
L 197.1111 233.001906 
L 197.3343 226.95115 
L 197.5575 245.982904 
L 197.7807 233.261805 
L 198.0039 234.912034 
L 198.2271 233.920139 
L 198.4503 230.051745 
L 198.6735 228.218073 
L 198.8967 222.957018 
L 199.1199 229.998696 
L 199.5663 226.103413 
L 199.7895 230.397667 
L 200.0127 212.425713 
L 200.4591 239.576808 
L 200.6823 237.886684 
L 200.9055 226.871562 
L 201.1287 227.044162 
L 201.3519 235.998534 
L 201.7983 220.951625 
L 202.0215 230.024406 
L 202.2447 228.723845 
L 202.4679 220.826313 
L 202.6911 230.220377 
L 202.9143 231.319042 
L 203.1375 226.366297 
L 203.3607 225.576121 
L 203.5839 248.667128 
L 203.8071 226.71944 
L 204.0303 221.139554 
L 204.2535 222.798869 
L 204.4767 239.531506 
L 204.6999 222.680516 
L 204.9231 228.491427 
L 205.1463 215.675971 
L 205.3695 217.740771 
L 205.5927 235.065978 
L 205.8159 234.371025 
L 206.0391 215.936144 
L 206.2623 225.137288 
L 206.4855 226.611954 
L 206.7087 226.684724 
L 207.1551 223.558299 
L 207.3783 227.888749 
L 207.6015 217.980954 
L 207.8247 218.524509 
L 208.0479 222.1967 
L 208.2711 234.681435 
L 208.7175 209.453391 
L 208.9407 224.740415 
L 209.1639 228.692877 
L 209.6103 215.825464 
L 209.8335 236.476736 
L 210.0567 231.719238 
L 210.2799 216.986837 
L 210.5031 218.429222 
L 210.7263 239.667211 
L 210.9495 240.873789 
L 211.1727 222.504642 
L 211.3959 224.502996 
L 211.6191 214.154125 
L 211.8423 228.805496 
L 212.0655 225.641726 
L 212.2887 220.385673 
L 212.5119 218.818545 
L 212.7351 231.838626 
L 212.9583 226.051835 
L 213.1815 211.305333 
L 213.4047 225.747242 
L 213.6279 229.605655 
L 213.8511 220.448914 
L 214.0743 222.08028 
L 214.2975 221.767462 
L 214.5207 222.74009 
L 214.7439 230.834446 
L 214.9671 219.469086 
L 215.1903 225.06163 
L 215.4135 214.632045 
L 215.6367 211.921377 
L 215.8599 218.782081 
L 216.0831 207.042988 
L 216.5295 214.33787 
L 216.9759 241.118928 
L 217.1991 220.955743 
L 217.4223 225.265046 
L 217.6455 216.716574 
L 218.0919 211.589747 
L 218.3151 214.405493 
L 218.5383 219.803032 
L 218.7615 220.194411 
L 218.9847 212.082433 
L 219.2079 215.781895 
L 219.4311 216.668572 
L 219.6543 208.266611 
L 219.8775 210.83351 
L 220.1007 239.630325 
L 220.3239 225.439262 
L 220.5471 219.122009 
L 220.7703 223.655021 
L 220.9935 215.877777 
L 221.2167 212.470729 
L 221.4399 221.107277 
L 221.6631 207.5167 
L 221.8863 225.751481 
L 222.3327 206.762436 
L 222.5559 211.374289 
L 222.7791 220.219446 
L 223.0023 213.129715 
L 223.2255 221.46848 
L 223.4487 207.093208 
L 223.6719 215.05417 
L 223.8951 206.063497 
L 224.1183 213.486927 
L 224.3415 213.876643 
L 224.5647 208.005727 
L 224.7879 207.384384 
L 225.0111 207.182996 
L 225.2343 211.506504 
L 225.4575 210.592286 
L 225.6807 210.513089 
L 225.9039 203.119588 
L 226.1271 201.862509 
L 226.3503 217.905343 
L 226.7967 201.532761 
L 227.0199 202.188346 
L 227.2431 202.237204 
L 227.4663 209.86617 
L 227.6895 209.317546 
L 227.9127 216.834314 
L 228.1359 212.930393 
L 228.3591 226.133222 
L 229.0287 203.621165 
L 229.2519 214.212651 
L 229.4751 208.544561 
L 229.6983 208.318658 
L 229.9215 206.52687 
L 230.3679 215.615941 
L 230.5911 209.556797 
L 230.8143 216.30498 
L 231.0375 205.654066 
L 231.2607 201.004986 
L 231.4839 199.055495 
L 231.7071 207.886676 
L 231.9303 207.174726 
L 232.1535 211.655864 
L 232.3767 222.149422 
L 232.5999 193.941641 
L 232.8231 220.017091 
L 233.0463 191.524533 
L 233.2695 196.778757 
L 233.4927 230.108954 
L 233.7159 197.306008 
L 233.9391 197.477069 
L 234.3855 202.8078 
L 234.6087 208.123493 
L 234.8319 199.428246 
L 235.0551 206.843309 
L 235.2783 198.431628 
L 235.5015 199.586552 
L 235.7247 199.435213 
L 235.9479 201.46155 
L 236.1711 199.271919 
L 236.6175 213.869907 
L 236.8407 203.708978 
L 237.2871 198.217055 
L 237.5103 207.549343 
L 237.7335 205.547386 
L 237.9567 207.100009 
L 238.1799 205.723862 
L 238.4031 199.755132 
L 238.6263 206.771501 
L 238.8495 193.565198 
L 239.2959 202.191469 
L 239.5191 219.176036 
L 239.9655 190.642296 
L 240.4119 208.207046 
L 240.6351 204.991118 
L 240.8583 204.156165 
L 241.0815 204.061512 
L 241.3047 193.123228 
L 241.5279 196.009039 
L 241.7511 195.594813 
L 241.9743 200.464669 
L 242.1975 200.130223 
L 242.4207 193.615153 
L 242.6439 196.987735 
L 242.8671 215.619864 
L 243.0903 191.979919 
L 243.3135 195.457784 
L 243.5367 204.767064 
L 243.7599 196.829179 
L 243.9831 198.086969 
L 244.2063 194.180163 
L 244.4295 194.850229 
L 244.8759 190.370368 
L 245.0991 203.896519 
L 245.3223 190.734087 
L 245.5455 191.305483 
L 245.7687 190.32149 
L 245.9919 181.683865 
L 246.2151 188.397348 
L 246.4383 184.143483 
L 246.6615 193.046837 
L 246.8847 192.372213 
L 247.1079 192.460307 
L 247.3311 202.882936 
L 247.5543 188.675671 
L 247.7775 187.233419 
L 248.0007 216.786769 
L 248.2239 198.071036 
L 248.4471 195.281037 
L 248.6703 212.955805 
L 248.8935 194.251737 
L 249.3399 199.241028 
L 249.5631 189.1122 
L 249.7863 200.948694 
L 250.0095 190.680083 
L 250.2327 190.547522 
L 250.4559 189.169398 
L 250.6791 190.010511 
L 250.9023 193.77686 
L 251.1255 192.835474 
L 251.3487 188.114324 
L 251.5719 192.122685 
L 251.7951 189.738533 
L 252.0183 201.482324 
L 252.4647 189.821181 
L 252.9111 198.534996 
L 253.3575 200.190811 
L 253.5807 200.369013 
L 253.8039 192.849564 
L 254.0271 192.973366 
L 254.2503 182.139047 
L 254.4735 182.721104 
L 254.6967 180.814397 
L 254.9199 184.926082 
L 255.1431 176.377692 
L 255.3663 188.502988 
L 255.5895 179.276914 
L 256.2591 190.848553 
L 256.4823 188.186685 
L 256.7055 196.022579 
L 257.1519 179.558942 
L 257.3751 184.955766 
L 257.5983 180.362822 
L 257.8215 186.090723 
L 258.0447 198.173349 
L 258.7143 175.768056 
L 258.9375 179.66948 
L 259.1607 188.133466 
L 259.3839 176.114507 
L 259.6071 176.43457 
L 259.8303 192.60172 
L 260.0535 176.447788 
L 260.2767 182.876678 
L 260.4999 176.376603 
L 260.7231 178.987769 
L 260.9463 188.810898 
L 261.1695 175.481905 
L 261.6159 191.038974 
L 261.8391 188.613759 
L 262.0623 204.712448 
L 262.2855 181.778447 
L 262.5087 193.412413 
L 262.7319 190.549702 
L 262.9551 180.781952 
L 263.1783 193.755459 
L 263.6247 183.765056 
L 263.8479 185.972979 
L 264.0711 186.871834 
L 264.2943 177.716368 
L 264.5175 193.193881 
L 264.7407 198.521155 
L 264.9639 186.806072 
L 265.1871 183.753449 
L 265.4103 195.326424 
L 265.8567 177.098938 
L 266.0799 189.885046 
L 266.3031 180.091214 
L 266.7495 189.008113 
L 266.9727 172.580084 
L 267.1959 181.124327 
L 267.4191 175.974959 
L 267.6423 174.644265 
L 267.8655 184.355948 
L 268.3119 176.71035 
L 268.5351 176.494179 
L 268.7583 188.083209 
L 268.9815 182.148762 
L 269.2047 184.536687 
L 269.4279 189.890735 
L 269.8743 176.087376 
L 270.0975 189.948866 
L 270.3207 187.878531 
L 270.5439 180.372215 
L 270.9903 189.062663 
L 271.2135 176.660063 
L 271.4367 178.430124 
L 271.6599 169.356132 
L 271.8831 175.718081 
L 272.1063 170.679725 
L 272.3295 180.510625 
L 272.7759 173.05665 
L 272.9991 178.319264 
L 273.2223 178.137387 
L 273.4455 190.230204 
L 273.6687 176.740025 
L 273.8919 175.920949 
L 274.1151 172.446855 
L 274.3383 177.740691 
L 274.7847 201.556779 
L 275.0079 178.878827 
L 275.2311 172.409146 
L 275.4543 169.712189 
L 275.6775 172.909307 
L 275.9007 171.406379 
L 276.1239 167.013173 
L 276.3471 171.358617 
L 276.5703 185.166684 
L 276.7935 186.541756 
L 277.0167 168.240018 
L 277.2399 170.747767 
L 277.4631 167.571414 
L 277.6863 172.739266 
L 277.9095 183.485881 
L 278.1327 167.098079 
L 278.3559 167.651372 
L 278.5791 166.929792 
L 278.8023 210.761998 
L 279.0255 184.139897 
L 279.2487 175.435015 
L 279.6951 185.832792 
L 279.9183 170.258263 
L 280.1415 176.732982 
L 280.3647 167.370163 
L 280.5879 190.571323 
L 280.8111 178.488053 
L 281.0343 178.992918 
L 281.4807 167.270322 
L 281.7039 178.985797 
L 281.9271 173.428453 
L 282.1503 191.706853 
L 282.3735 168.733479 
L 282.5967 171.704629 
L 282.8199 179.656199 
L 283.0431 178.218942 
L 283.2663 169.615479 
L 283.4895 190.646571 
L 283.7127 169.871196 
L 283.9359 167.292599 
L 284.1591 169.47971 
L 284.3823 176.04939 
L 284.6055 167.184915 
L 284.8287 169.431414 
L 285.0519 174.637205 
L 285.2751 166.887392 
L 285.4983 180.776139 
L 285.7215 178.580525 
L 285.9447 163.373933 
L 286.1679 157.671916 
L 286.3911 174.333909 
L 286.6143 166.009017 
L 286.8375 175.251807 
L 287.0607 170.554147 
L 287.2839 172.45339 
L 287.5071 167.107204 
L 287.7303 172.389069 
L 287.9535 163.466624 
L 288.1767 182.338617 
L 288.3999 169.705071 
L 288.6231 166.051532 
L 288.8463 168.752177 
L 289.0695 176.869464 
L 289.2927 162.775849 
L 289.5159 166.290519 
L 289.7391 159.572497 
L 289.9623 158.114147 
L 290.1855 160.928754 
L 290.4087 154.512551 
L 290.6319 169.066393 
L 290.8551 168.013626 
L 291.3015 161.474114 
L 291.7479 164.775863 
L 291.9711 177.226455 
L 292.1943 169.925013 
L 292.4175 175.422531 
L 292.6407 166.2366 
L 292.8639 168.328839 
L 293.0871 162.040195 
L 293.5335 157.822407 
L 293.7567 174.032465 
L 293.9799 173.668764 
L 294.2031 179.893079 
L 294.4263 159.797868 
L 294.6495 174.955555 
L 295.0959 158.145234 
L 295.3191 155.264072 
L 295.5423 176.003 
L 295.7655 171.448523 
L 295.9887 163.212919 
L 296.2119 160.952201 
L 296.4351 170.631331 
L 296.6583 171.708978 
L 296.8815 159.324428 
L 297.1047 174.885058 
L 297.5511 167.418288 
L 297.7743 169.062164 
L 297.9975 154.309007 
L 298.2207 168.223612 
L 298.4439 162.033163 
L 298.6671 183.730757 
L 298.8903 161.326472 
L 299.1135 156.85275 
L 299.3367 166.845723 
L 299.5599 169.784072 
L 299.7831 163.563286 
L 300.0063 180.333253 
L 300.2295 156.844942 
L 300.4527 157.451668 
L 300.6759 162.100171 
L 300.8991 175.878574 
L 301.3455 158.2085 
L 301.5687 151.808996 
L 302.0151 162.063175 
L 302.2383 155.531494 
L 302.4615 152.603295 
L 302.6847 159.659911 
L 302.9079 155.769015 
L 303.1311 160.642372 
L 303.3543 162.465986 
L 303.5775 167.21043 
L 303.8007 154.983407 
L 304.0239 153.281231 
L 304.2471 162.087027 
L 304.4703 148.588097 
L 304.6935 152.252912 
L 304.9167 150.690595 
L 305.1399 151.095645 
L 305.3631 149.228516 
L 305.8095 163.54467 
L 306.0327 166.721474 
L 306.2559 163.86496 
L 306.4791 165.859626 
L 306.7023 163.688666 
L 306.9255 171.385372 
L 307.1487 157.581496 
L 307.3719 166.091592 
L 308.0415 146.107801 
L 308.2647 155.187575 
L 308.4879 150.366008 
L 308.7111 167.000552 
L 309.1575 153.703421 
L 309.6039 168.839792 
L 309.8271 155.770423 
L 310.0503 153.724696 
L 310.2735 162.355784 
L 310.4967 158.617325 
L 310.7199 171.175672 
L 310.9431 165.536691 
L 311.1663 154.465578 
L 311.3895 153.722242 
L 311.6127 147.165974 
L 311.8359 145.532191 
L 312.0591 163.323073 
L 312.2823 160.641724 
L 312.5055 154.492369 
L 312.7287 159.056811 
L 312.9519 158.973763 
L 313.1751 149.971619 
L 313.3983 155.473782 
L 313.6215 157.474965 
L 313.8447 155.996462 
L 314.0679 160.505417 
L 314.2911 147.335137 
L 314.7375 162.374443 
L 314.9607 166.359025 
L 315.4071 149.597475 
L 315.6303 148.653365 
L 315.8535 164.595953 
L 316.2999 158.395467 
L 316.5231 162.052896 
L 316.7463 148.946241 
L 316.9695 160.069012 
L 317.1927 145.332678 
L 317.4159 149.53731 
L 317.6391 143.356022 
L 318.0855 169.70259 
L 318.3087 151.355903 
L 318.5319 172.082431 
L 318.9783 147.214154 
L 319.2015 163.312743 
L 319.4247 145.104079 
L 319.6479 163.240651 
L 319.8711 145.302292 
L 320.0943 147.516755 
L 320.3175 161.204377 
L 320.5407 163.382617 
L 320.7639 164.227047 
L 320.9871 155.18259 
L 321.2103 156.082398 
L 321.4335 162.695695 
L 321.6567 152.773594 
L 321.8799 150.656221 
L 322.1031 161.920276 
L 322.3263 148.023823 
L 322.5495 141.597194 
L 322.7727 147.369296 
L 322.9959 147.834102 
L 323.2191 152.39469 
L 323.6655 146.825186 
L 323.8887 148.216474 
L 324.1119 147.730514 
L 324.3351 146.84543 
L 324.5583 145.364386 
L 324.7815 151.673246 
L 325.0047 142.845751 
L 325.2279 170.553469 
L 325.4511 150.621284 
L 325.8975 142.002027 
L 326.1207 150.88361 
L 326.3439 150.260272 
L 326.5671 145.075729 
L 326.7903 179.086438 
L 327.0135 153.225977 
L 327.2367 152.914338 
L 327.4599 140.674327 
L 327.6831 153.581737 
L 327.9063 150.071084 
L 328.1295 153.007265 
L 328.3527 147.265223 
L 328.5759 154.278852 
L 329.0223 149.328739 
L 329.2455 136.92869 
L 329.4687 146.765333 
L 329.6919 141.014359 
L 330.1383 163.413987 
L 330.3615 141.997949 
L 330.5847 155.969496 
L 330.8079 151.826791 
L 331.0311 164.977621 
L 331.2543 149.33101 
L 331.4775 146.283584 
L 331.7007 160.358866 
L 331.9239 151.388603 
L 332.1471 156.544044 
L 332.3703 143.924568 
L 332.5935 138.494572 
L 332.8167 154.077779 
L 333.0399 146.661677 
L 333.2631 159.097253 
L 333.4863 153.964265 
L 333.7095 151.609736 
L 333.9327 153.088123 
L 334.1559 143.109579 
L 334.3791 143.21911 
L 334.6023 146.380598 
L 334.8255 162.658359 
L 335.0487 141.326868 
L 335.2719 153.93479 
L 335.4951 140.679759 
L 335.7183 146.419161 
L 335.9415 138.265973 
L 336.1647 139.964769 
L 336.3879 155.977241 
L 336.6111 154.811616 
L 336.8343 146.525522 
L 337.0575 148.741444 
L 337.2807 154.899816 
L 337.5039 152.239627 
L 337.7271 147.307197 
L 337.9503 136.949035 
L 338.1735 144.585118 
L 338.3967 147.878676 
L 338.6199 149.378821 
L 338.8431 136.001723 
L 339.2895 147.621699 
L 339.7359 138.995224 
L 340.1823 142.404869 
L 340.4055 158.768984 
L 340.6287 151.869494 
L 340.8519 138.276478 
L 341.0751 148.283454 
L 341.2983 146.812513 
L 341.5215 144.460381 
L 341.7447 153.47827 
L 342.1911 136.249315 
L 342.4143 140.239648 
L 342.6375 153.630553 
L 342.8607 138.747596 
L 343.0839 153.554095 
L 343.3071 134.268445 
L 343.5303 139.506414 
L 343.7535 138.226569 
L 343.9767 149.374531 
L 344.1999 137.136648 
L 344.6463 148.170723 
L 344.8695 146.12108 
L 345.0927 147.143907 
L 345.3159 134.721474 
L 345.5391 141.482604 
L 345.7623 136.155508 
L 345.9855 142.914479 
L 346.2087 142.733893 
L 346.4319 149.399378 
L 346.6551 134.507725 
L 346.8783 133.547679 
L 347.1015 151.289162 
L 347.5479 134.048753 
L 347.7711 127.435833 
L 347.9943 145.131755 
L 348.4407 134.657196 
L 348.8871 143.403123 
L 349.1103 143.13085 
L 349.3335 145.728371 
L 349.5567 146.051436 
L 349.7799 147.621438 
L 350.2263 135.36085 
L 350.6727 148.534267 
L 350.8959 134.288904 
L 351.1191 144.236135 
L 351.3423 130.248669 
L 351.5655 126.831538 
L 352.0119 160.631633 
L 352.4583 136.670079 
L 352.6815 132.602776 
L 353.1279 147.799768 
L 353.3511 147.031292 
L 353.5743 133.160085 
L 353.7975 138.173119 
L 354.0207 135.398526 
L 354.2439 136.945492 
L 354.4671 148.109867 
L 354.6903 126.928585 
L 355.1367 138.974483 
L 355.3599 152.622642 
L 355.5831 133.843645 
L 355.8063 127.277777 
L 356.0295 132.139023 
L 356.2527 141.432707 
L 356.4759 141.469639 
L 356.6991 124.876068 
L 356.9223 143.295217 
L 357.1455 145.496175 
L 357.3687 126.404232 
L 357.5919 130.826238 
L 357.8151 139.530405 
L 358.2615 123.206173 
L 358.4847 159.006987 
L 358.7079 132.477779 
L 358.9311 130.248267 
L 359.1543 136.819343 
L 359.3775 127.665754 
L 359.6007 123.322723 
L 359.8239 122.051563 
L 360.0471 142.204222 
L 360.2703 131.565924 
L 360.4935 139.930985 
L 360.7167 134.672129 
L 360.9399 153.206261 
L 361.1631 140.257185 
L 361.3863 142.641138 
L 361.8327 123.576943 
L 362.0559 173.344729 
L 362.2791 125.232082 
L 362.7255 135.091625 
L 362.9487 135.084634 
L 363.1719 123.27308 
L 363.3951 131.311338 
L 363.6183 127.088268 
L 363.8415 133.364303 
L 364.0647 123.638353 
L 364.2879 132.720318 
L 364.5111 128.464587 
L 364.7343 139.948863 
L 364.9575 128.299074 
L 365.1807 147.452047 
L 365.4039 128.750599 
L 365.6271 136.550576 
L 365.8503 134.728245 
L 366.0735 140.45379 
L 366.2967 131.754821 
L 366.5199 128.070361 
L 366.7431 135.18027 
L 366.9663 120.821751 
L 367.1895 128.497716 
L 367.4127 125.414707 
L 367.6359 128.591455 
L 367.8591 127.655308 
L 368.0823 123.724961 
L 368.3055 143.204887 
L 368.5287 135.630351 
L 368.7519 135.991209 
L 369.1983 129.909794 
L 369.4215 121.195989 
L 370.0911 135.963844 
L 370.5375 116.262846 
L 370.7607 121.552509 
L 370.9839 135.766243 
L 371.2071 137.553654 
L 371.4303 138.319685 
L 371.8767 121.17552 
L 372.0999 142.431234 
L 372.3231 135.173657 
L 372.5463 137.203487 
L 372.7695 127.744182 
L 372.9927 135.723288 
L 373.2159 127.37706 
L 373.6623 146.322363 
L 373.8855 141.994464 
L 374.1087 124.366991 
L 374.3319 122.299947 
L 374.5551 142.69027 
L 374.7783 117.624057 
L 375.0015 119.720088 
L 375.6711 143.774075 
L 375.8943 127.595763 
L 376.1175 126.950008 
L 376.3407 120.105687 
L 376.5639 130.587639 
L 376.7871 133.520442 
L 377.0103 122.571802 
L 377.2335 124.703106 
L 377.4567 136.460524 
L 377.6799 121.033562 
L 377.9031 137.599377 
L 378.1263 131.841124 
L 378.5727 124.722899 
L 378.7959 126.12937 
L 379.0191 115.507581 
L 379.2423 122.394952 
L 379.4655 125.21477 
L 379.6887 117.731375 
L 379.9119 114.130709 
L 380.1351 116.341235 
L 380.3583 124.363749 
L 380.5815 117.727336 
L 380.8047 122.15488 
L 381.2511 119.765323 
L 381.4743 115.397226 
L 381.6975 122.253072 
L 381.9207 118.136749 
L 382.1439 129.824778 
L 382.3671 115.465819 
L 382.5903 110.607167 
L 382.8135 121.881094 
L 383.2599 115.894955 
L 383.4831 119.296514 
L 383.7063 127.014163 
L 383.9295 118.196262 
L 384.1527 131.767497 
L 384.3759 110.405467 
L 384.5991 117.72064 
L 384.8223 119.922734 
L 385.0455 116.828249 
L 385.4919 128.990031 
L 385.7151 125.697347 
L 385.9383 128.647336 
L 386.1615 120.80056 
L 386.3847 130.75409 
L 386.6079 124.110222 
L 386.8311 113.669079 
L 387.0543 126.597872 
L 387.2775 129.987288 
L 387.7239 123.182979 
L 387.9471 117.844671 
L 388.1703 116.138187 
L 388.3935 115.725534 
L 388.6167 113.459772 
L 388.8399 112.986788 
L 389.0631 124.151105 
L 389.2863 126.19755 
L 389.5095 117.592614 
L 389.7327 121.963738 
L 389.9559 115.776285 
L 390.1791 114.422079 
L 390.4023 104.762943 
L 390.6255 113.024845 
L 391.0719 118.16596 
L 391.2951 112.26703 
L 391.5183 130.272027 
L 391.7415 119.645582 
L 391.9647 126.96754 
L 392.1879 113.014263 
L 392.4111 111.765127 
L 392.6343 113.524492 
L 392.8575 125.819635 
L 393.3039 105.356077 
L 393.5271 109.615475 
L 393.7503 107.206045 
L 393.9735 120.19717 
L 394.1967 111.508782 
L 394.6431 121.149771 
L 394.8663 108.93157 
L 395.3127 105.040159 
L 395.5359 107.554009 
L 395.7591 117.129668 
L 395.9823 121.091912 
L 396.4287 118.478374 
L 396.6519 124.53005 
L 396.8751 115.446964 
L 397.0983 112.192706 
L 397.3215 116.057437 
L 397.5447 113.181034 
L 397.7679 120.068168 
L 397.9911 106.161663 
L 398.2143 109.61643 
L 398.4375 115.311692 
L 398.6607 113.522217 
L 398.8839 109.134046 
L 399.1071 124.31607 
L 399.3303 124.052509 
L 399.9999 105.565393 
L 400.4463 126.936884 
L 400.6695 106.344551 
L 400.8927 108.938325 
L 401.1159 113.006019 
L 401.3391 120.623105 
L 401.5623 106.677945 
L 401.7855 122.344352 
L 402.0087 103.233597 
L 402.6783 125.108497 
L 402.9015 105.600398 
L 403.1247 106.478512 
L 403.3479 109.587889 
L 403.5711 100.432927 
L 403.7943 105.269344 
L 404.0175 100.791514 
L 404.2407 101.976983 
L 404.6871 117.110838 
L 404.9103 96.958723 
L 405.1335 120.98774 
L 405.3567 100.902191 
L 405.5799 106.870856 
L 405.8031 108.919252 
L 406.0263 102.263406 
L 406.2495 127.072366 
L 406.4727 103.116096 
L 406.6959 97.287311 
L 406.9191 119.53086 
L 407.1423 112.861637 
L 407.3655 102.400788 
L 407.5887 108.211214 
L 407.8119 107.164911 
L 408.0351 107.711545 
L 408.2583 119.683201 
L 408.4815 109.51366 
L 408.7047 111.948574 
L 408.9279 107.899452 
L 409.1511 107.386982 
L 409.3743 101.032358 
L 409.5975 103.163037 
L 409.8207 106.472716 
L 410.0439 107.064561 
L 410.2671 97.019608 
L 410.7135 107.195181 
L 410.9367 104.689277 
L 411.1599 115.05405 
L 411.3831 119.015387 
L 411.6063 95.716365 
L 411.8295 98.238958 
L 412.0527 103.588386 
L 412.2759 100.121644 
L 412.4991 100.566816 
L 412.7223 106.751296 
L 412.9455 97.462856 
L 413.1687 100.364714 
L 413.3919 97.760517 
L 413.6151 100.280726 
L 413.8383 107.950554 
L 414.2847 100.595576 
L 414.5079 110.483229 
L 414.7311 102.109959 
L 414.9543 111.67727 
L 415.1775 100.845041 
L 415.4007 141.639513 
L 415.6239 118.062299 
L 415.8471 119.549821 
L 416.0703 110.583034 
L 416.2935 119.677106 
L 416.5167 112.188876 
L 416.7399 118.626335 
L 416.9631 114.554033 
L 417.1863 96.80316 
L 417.6327 103.539053 
L 417.8559 111.419329 
L 418.0791 112.808489 
L 418.5255 101.913771 
L 418.7487 106.392763 
L 418.9719 117.211513 
L 419.1951 104.418998 
L 419.4183 100.743675 
L 419.6415 116.499432 
L 419.8647 111.677241 
L 420.0879 110.100437 
L 420.3111 104.908236 
L 420.5343 93.233419 
L 420.7575 96.828471 
L 420.9807 109.490137 
L 421.2039 109.32782 
L 421.4271 105.021967 
L 421.6503 98.079445 
L 421.8735 96.785034 
L 422.0967 117.529526 
L 422.3199 104.765875 
L 422.5431 104.528629 
L 422.7663 109.196588 
L 422.9895 101.725956 
L 423.2127 100.65611 
L 423.4359 90.999849 
L 423.6591 114.665492 
L 423.8823 99.985171 
L 424.1055 117.641885 
L 424.7751 91.20668 
L 424.9983 98.265786 
L 425.2215 94.203104 
L 425.4447 104.564878 
L 425.6679 108.687963 
L 425.8911 99.810451 
L 426.1143 107.472431 
L 426.3375 94.262874 
L 426.5607 99.903497 
L 426.7839 110.906507 
L 427.0071 91.382055 
L 427.2303 111.005417 
L 427.6767 91.488135 
L 427.8999 99.677526 
L 428.1231 93.648948 
L 428.3463 115.264289 
L 428.7927 92.99573 
L 429.0159 109.892717 
L 429.2391 93.240713 
L 429.4623 95.564371 
L 429.6855 99.079807 
L 429.9087 95.872708 
L 430.1319 98.537537 
L 430.3551 95.031846 
L 430.8015 102.119833 
L 431.0247 104.858592 
L 431.2479 84.526688 
L 431.4711 94.713357 
L 431.6943 95.779508 
L 431.9175 87.21125 
L 432.1407 96.417804 
L 432.3639 120.960387 
L 432.5871 92.345606 
L 432.8103 104.179259 
L 433.0335 129.981248 
L 433.2567 89.814609 
L 433.4799 110.732359 
L 433.7031 94.779789 
L 433.9263 93.185731 
L 434.1495 98.050401 
L 434.3727 106.457371 
L 434.5959 100.082252 
L 434.8191 102.449597 
L 435.0423 100.015056 
L 435.2655 99.256118 
L 435.4887 96.789571 
L 435.7119 101.385217 
L 435.9351 92.136363 
L 436.1583 97.397572 
L 436.3815 96.344417 
L 436.6047 88.788101 
L 436.8279 99.662218 
L 437.0511 86.867339 
L 437.2743 89.624464 
L 437.7207 102.026134 
L 438.1671 84.319359 
L 438.3903 92.679573 
L 438.6135 95.147861 
L 438.8367 87.226245 
L 439.0599 107.336499 
L 439.2831 87.304195 
L 439.5063 99.10692 
L 439.9527 84.193259 
L 440.1759 94.46361 
L 440.3991 99.444093 
L 440.8455 81.045503 
L 441.0687 83.761425 
L 441.2919 104.73206 
L 441.5151 82.860597 
L 441.7383 89.256604 
L 441.9615 84.902976 
L 442.1847 95.379733 
L 442.4079 89.311548 
L 442.6311 96.374942 
L 442.8543 93.538476 
L 443.0775 81.963009 
L 443.5239 79.603328 
L 443.7471 82.137614 
L 443.9703 96.985878 
L 444.1935 101.50975 
L 444.4167 101.684038 
L 445.3095 77.938323 
L 445.5327 104.956152 
L 445.7559 89.00269 
L 445.9791 94.080021 
L 446.4255 80.731685 
L 446.6487 88.135233 
L 446.8719 86.61879 
L 447.3183 98.400339 
L 447.5415 92.307548 
L 447.9879 76.255338 
L 448.2111 80.030479 
L 448.4343 89.497784 
L 448.6575 81.415609 
L 449.1039 83.970875 
L 449.3271 93.85365 
L 449.5503 83.835755 
L 449.7735 83.033027 
L 449.9967 79.93343 
L 450.2199 81.123366 
L 450.4431 78.49449 
L 450.6663 84.730159 
L 450.8895 77.58159 
L 451.1127 81.889989 
L 451.3359 94.339238 
L 451.5591 69.609866 
L 451.7823 79.369507 
L 452.0055 75.307761 
L 452.4519 98.418831 
L 452.6751 133.54727 
L 452.8983 92.392774 
L 453.1215 78.044539 
L 453.3447 77.81773 
L 453.5679 77.82673 
L 453.7911 100.688698 
L 454.0143 90.321837 
L 454.2375 71.088352 
L 454.4607 86.719953 
L 454.6839 87.089854 
L 454.9071 91.755686 
L 455.1303 69.919349 
L 455.3535 87.764093 
L 456.0231 73.597267 
L 456.2463 74.896465 
L 456.4695 74.307894 
L 456.6927 97.675452 
L 456.9159 92.663288 
L 457.3623 67.203978 
L 457.5855 83.788519 
L 457.8087 83.216198 
L 458.0319 86.581121 
L 458.2551 77.255856 
L 458.7015 89.980104 
L 458.9247 87.59963 
L 459.1479 77.420439 
L 459.3711 79.308459 
L 459.5943 79.898466 
L 459.8175 85.845083 
L 460.0407 71.519735 
L 460.2639 72.1692 
L 460.4871 86.370809 
L 460.7103 81.137748 
L 460.9335 89.511905 
L 461.1567 87.316165 
L 461.3799 69.137628 
L 461.6031 82.403887 
L 461.8263 83.29215 
L 462.0495 69.264804 
L 462.2727 65.76181 
L 462.4959 99.352293 
L 462.7191 66.286135 
L 462.9423 76.591336 
L 463.3887 87.801484 
L 463.6119 78.824012 
L 463.8351 77.790439 
L 464.0583 92.915864 
L 464.2815 77.75419 
L 464.5047 84.681261 
L 464.7279 84.213442 
L 464.9511 89.724765 
L 465.1743 79.981659 
L 465.3975 78.325725 
L 465.8439 71.74683 
L 466.0671 81.955991 
L 466.2903 75.688626 
L 466.5135 92.4754 
L 466.7367 63.120437 
L 466.9599 62.40658 
L 467.1831 88.218455 
L 467.4063 83.257537 
L 467.6295 63.965835 
L 467.8527 78.628712 
L 468.0759 68.13844 
L 468.2991 68.178847 
L 468.7455 87.363348 
L 468.9687 85.97471 
L 469.1919 67.575485 
L 469.4151 80.89286 
L 469.6383 71.948234 
L 470.0847 81.846652 
L 470.5311 71.452839 
L 470.7543 72.41226 
L 470.9775 72.533978 
L 471.2007 81.042575 
L 471.4239 69.898075 
L 471.6471 73.608624 
L 471.8703 80.293351 
L 472.0935 64.940743 
L 472.3167 69.526695 
L 472.5399 105.901639 
L 472.7631 76.321651 
L 472.9863 81.757685 
L 473.2095 81.06846 
L 473.4327 94.420766 
L 473.6559 67.107158 
L 474.1023 78.778879 
L 474.3255 67.934102 
L 474.5487 79.804328 
L 474.9951 60.827836 
L 475.2183 63.529108 
L 475.4415 79.993471 
L 475.6647 64.253884 
L 475.8879 77.465992 
L 476.3343 69.341209 
L 476.5575 71.171366 
L 476.7807 69.064443 
L 477.0039 71.212142 
L 477.2271 81.883946 
L 477.4503 98.375055 
L 477.8967 79.759336 
L 478.1199 66.507566 
L 478.3431 60.909081 
L 478.5663 78.362919 
L 478.7895 66.081053 
L 479.0127 73.294922 
L 479.2359 65.741181 
L 479.4591 73.219445 
L 479.6823 75.504724 
L 479.9055 86.363888 
L 480.1287 68.238034 
L 480.3519 67.158515 
L 480.5751 77.045095 
L 480.7983 65.825597 
L 481.0215 67.160283 
L 481.4679 75.396752 
L 481.6911 67.867183 
L 481.9143 71.822065 
L 482.1375 63.284235 
L 482.3607 73.500221 
L 482.5839 60.23428 
L 482.8071 66.00914 
L 483.0303 58.961807 
L 483.2535 71.676491 
L 483.4767 67.764079 
L 483.9231 73.927369 
L 484.1463 89.079448 
L 484.3695 60.315991 
L 484.5927 60.313353 
L 484.8159 76.167289 
L 485.0391 63.749245 
L 485.7087 85.270889 
L 485.9319 59.624358 
L 486.1551 68.439493 
L 486.3783 68.446825 
L 486.6015 52.330167 
L 486.8247 65.2217 
L 487.0479 63.464489 
L 487.2711 67.291719 
L 487.4943 61.85758 
L 487.7175 69.973623 
L 487.9407 61.548175 
L 488.1639 48.700758 
L 488.6103 67.959608 
L 488.8335 60.173718 
L 489.0567 78.392658 
L 489.2799 55.962415 
L 489.5031 89.428676 
L 489.7263 62.989894 
L 489.9495 59.305181 
L 490.1727 61.090959 
L 490.3959 51.347329 
L 490.8423 63.052065 
L 491.0655 61.64479 
L 491.2887 76.910186 
L 491.5119 78.040931 
L 491.7351 39.956943 
L 491.9583 56.549917 
L 492.1815 56.968741 
L 492.4047 62.496639 
L 492.6279 56.850193 
L 492.8511 65.491163 
L 493.0743 67.363277 
L 493.0743 67.363277 
" style="fill:none;stroke:#0000ff;stroke-linecap:square;stroke-width:0.5;"/>
   </g>
   <g id="patch_3">
    <path d="M 46.8975 368.74175 
L 46.8975 23.14175 
" style="fill:none;stroke:#000000;stroke-linecap:square;stroke-linejoin:miter;"/>
   </g>
   <g id="patch_4">
    <path d="M 493.2975 368.74175 
L 493.2975 23.14175 
" style="fill:none;stroke:#000000;stroke-linecap:square;stroke-linejoin:miter;"/>
   </g>
   <g id="patch_5">
    <path d="M 46.8975 368.74175 
L 493.2975 368.74175 
" style="fill:none;stroke:#000000;stroke-linecap:square;stroke-linejoin:miter;"/>
   </g>
   <g id="patch_6">
    <path d="M 46.8975 23.14175 
L 493.2975 23.14175 
" style="fill:none;stroke:#000000;stroke-linecap:square;stroke-linejoin:miter;"/>
   </g>
   <g id="matplotlib.axis_1">
    <g id="xtick_1">
     <g id="line2d_2">
      <defs>
       <path d="M 0 0 
L 0 -4 
" id="md28f357889" style="stroke:#000000;stroke-width:0.5;"/>
      </defs>
      <g>
       <use style="stroke:#000000;stroke-width:0.5;" x="46.8975" xlink:href="#md28f357889" y="368.74175"/>
      </g>
     </g>
     <g id="line2d_3">
      <defs>
       <path d="M 0 0 
L 0 4 
" id="m349b1cd643" style="stroke:#000000;stroke-width:0.5;"/>
      </defs>
      <g>
       <use style="stroke:#000000;stroke-width:0.5;" x="46.8975" xlink:href="#m349b1cd643" y="23.14175"/>
      </g>
     </g>
     <g id="text_1">
      <!-- 0 -->
      <defs>
       <path d="M 31.78125 66.40625 
Q 24.171875 66.40625 20.328125 58.90625 
Q 16.5 51.421875 16.5 36.375 
Q 16.5 21.390625 20.328125 13.890625 
Q 24.171875 6.390625 31.78125 6.390625 
Q 39.453125 6.390625 43.28125 13.890625 
Q 47.125 21.390625 47.125 36.375 
Q 47.125 51.421875 43.28125 58.90625 
Q 39.453125 66.40625 31.78125 66.40625 
M 31.78125 74.21875 
Q 44.046875 74.21875 50.515625 64.515625 
Q 56.984375 54.828125 56.984375 36.375 
Q 56.984375 17.96875 50.515625 8.265625 
Q 44.046875 -1.421875 31.78125 -1.421875 
Q 19.53125 -1.421875 13.0625 8.265625 
Q 6.59375 17.96875 6.59375 36.375 
Q 6.59375 54.828125 13.0625 64.515625 
Q 19.53125 74.21875 31.78125 74.21875 
" id="BitstreamVeraSans-Roman-30"/>
      </defs>
      <g transform="translate(43.08 381.859875)scale(0.12 -0.12)">
       <use xlink:href="#BitstreamVeraSans-Roman-30"/>
      </g>
     </g>
    </g>
    <g id="xtick_2">
     <g id="line2d_4">
      <g>
       <use style="stroke:#000000;stroke-width:0.5;" x="158.4975" xlink:href="#md28f357889" y="368.74175"/>
      </g>
     </g>
     <g id="line2d_5">
      <g>
       <use style="stroke:#000000;stroke-width:0.5;" x="158.4975" xlink:href="#m349b1cd643" y="23.14175"/>
      </g>
     </g>
     <g id="text_2">
      <!-- 500 -->
      <defs>
       <path d="M 10.796875 72.90625 
L 49.515625 72.90625 
L 49.515625 64.59375 
L 19.828125 64.59375 
L 19.828125 46.734375 
Q 21.96875 47.46875 24.109375 47.828125 
Q 26.265625 48.1875 28.421875 48.1875 
Q 40.625 48.1875 47.75 41.5 
Q 54.890625 34.8125 54.890625 23.390625 
Q 54.890625 11.625 47.5625 5.09375 
Q 40.234375 -1.421875 26.90625 -1.421875 
Q 22.3125 -1.421875 17.546875 -0.640625 
Q 12.796875 0.140625 7.71875 1.703125 
L 7.71875 11.625 
Q 12.109375 9.234375 16.796875 8.0625 
Q 21.484375 6.890625 26.703125 6.890625 
Q 35.15625 6.890625 40.078125 11.328125 
Q 45.015625 15.765625 45.015625 23.390625 
Q 45.015625 31 40.078125 35.4375 
Q 35.15625 39.890625 26.703125 39.890625 
Q 22.75 39.890625 18.8125 39.015625 
Q 14.890625 38.140625 10.796875 36.28125 
z
" id="BitstreamVeraSans-Roman-35"/>
      </defs>
      <g transform="translate(147.045 381.859875)scale(0.12 -0.12)">
       <use xlink:href="#BitstreamVeraSans-Roman-35"/>
       <use x="63.623046875" xlink:href="#BitstreamVeraSans-Roman-30"/>
       <use x="127.24609375" xlink:href="#BitstreamVeraSans-Roman-30"/>
      </g>
     </g>
    </g>
    <g id="xtick_3">
     <g id="line2d_6">
      <g>
       <use style="stroke:#000000;stroke-width:0.5;" x="270.0975" xlink:href="#md28f357889" y="368.74175"/>
      </g>
     </g>
     <g id="line2d_7">
      <g>
       <use style="stroke:#000000;stroke-width:0.5;" x="270.0975" xlink:href="#m349b1cd643" y="23.14175"/>
      </g>
     </g>
     <g id="text_3">
      <!-- 1000 -->
      <defs>
       <path d="M 12.40625 8.296875 
L 28.515625 8.296875 
L 28.515625 63.921875 
L 10.984375 60.40625 
L 10.984375 69.390625 
L 28.421875 72.90625 
L 38.28125 72.90625 
L 38.28125 8.296875 
L 54.390625 8.296875 
L 54.390625 0 
L 12.40625 0 
z
" id="BitstreamVeraSans-Roman-31"/>
      </defs>
      <g transform="translate(254.8275 381.859875)scale(0.12 -0.12)">
       <use xlink:href="#BitstreamVeraSans-Roman-31"/>
       <use x="63.623046875" xlink:href="#BitstreamVeraSans-Roman-30"/>
       <use x="127.24609375" xlink:href="#BitstreamVeraSans-Roman-30"/>
       <use x="190.869140625" xlink:href="#BitstreamVeraSans-Roman-30"/>
      </g>
     </g>
    </g>
    <g id="xtick_4">
     <g id="line2d_8">
      <g>
       <use style="stroke:#000000;stroke-width:0.5;" x="381.6975" xlink:href="#md28f357889" y="368.74175"/>
      </g>
     </g>
     <g id="line2d_9">
      <g>
       <use style="stroke:#000000;stroke-width:0.5;" x="381.6975" xlink:href="#m349b1cd643" y="23.14175"/>
      </g>
     </g>
     <g id="text_4">
      <!-- 1500 -->
      <g transform="translate(366.4275 381.859875)scale(0.12 -0.12)">
       <use xlink:href="#BitstreamVeraSans-Roman-31"/>
       <use x="63.623046875" xlink:href="#BitstreamVeraSans-Roman-35"/>
       <use x="127.24609375" xlink:href="#BitstreamVeraSans-Roman-30"/>
       <use x="190.869140625" xlink:href="#BitstreamVeraSans-Roman-30"/>
      </g>
     </g>
    </g>
    <g id="xtick_5">
     <g id="line2d_10">
      <g>
       <use style="stroke:#000000;stroke-width:0.5;" x="493.2975" xlink:href="#md28f357889" y="368.74175"/>
      </g>
     </g>
     <g id="line2d_11">
      <g>
       <use style="stroke:#000000;stroke-width:0.5;" x="493.2975" xlink:href="#m349b1cd643" y="23.14175"/>
      </g>
     </g>
     <g id="text_5">
      <!-- 2000 -->
      <defs>
       <path d="M 19.1875 8.296875 
L 53.609375 8.296875 
L 53.609375 0 
L 7.328125 0 
L 7.328125 8.296875 
Q 12.9375 14.109375 22.625 23.890625 
Q 32.328125 33.6875 34.8125 36.53125 
Q 39.546875 41.84375 41.421875 45.53125 
Q 43.3125 49.21875 43.3125 52.78125 
Q 43.3125 58.59375 39.234375 62.25 
Q 35.15625 65.921875 28.609375 65.921875 
Q 23.96875 65.921875 18.8125 64.3125 
Q 13.671875 62.703125 7.8125 59.421875 
L 7.8125 69.390625 
Q 13.765625 71.78125 18.9375 73 
Q 24.125 74.21875 28.421875 74.21875 
Q 39.75 74.21875 46.484375 68.546875 
Q 53.21875 62.890625 53.21875 53.421875 
Q 53.21875 48.921875 51.53125 44.890625 
Q 49.859375 40.875 45.40625 35.40625 
Q 44.1875 33.984375 37.640625 27.21875 
Q 31.109375 20.453125 19.1875 8.296875 
" id="BitstreamVeraSans-Roman-32"/>
      </defs>
      <g transform="translate(478.0275 381.859875)scale(0.12 -0.12)">
       <use xlink:href="#BitstreamVeraSans-Roman-32"/>
       <use x="63.623046875" xlink:href="#BitstreamVeraSans-Roman-30"/>
       <use x="127.24609375" xlink:href="#BitstreamVeraSans-Roman-30"/>
       <use x="190.869140625" xlink:href="#BitstreamVeraSans-Roman-30"/>
      </g>
     </g>
    </g>
    <g id="text_6">
     <!-- episode -->
     <defs>
      <path d="M 56.203125 29.59375 
L 56.203125 25.203125 
L 14.890625 25.203125 
Q 15.484375 15.921875 20.484375 11.0625 
Q 25.484375 6.203125 34.421875 6.203125 
Q 39.59375 6.203125 44.453125 7.46875 
Q 49.3125 8.734375 54.109375 11.28125 
L 54.109375 2.78125 
Q 49.265625 0.734375 44.1875 -0.34375 
Q 39.109375 -1.421875 33.890625 -1.421875 
Q 20.796875 -1.421875 13.15625 6.1875 
Q 5.515625 13.8125 5.515625 26.8125 
Q 5.515625 40.234375 12.765625 48.109375 
Q 20.015625 56 32.328125 56 
Q 43.359375 56 49.78125 48.890625 
Q 56.203125 41.796875 56.203125 29.59375 
M 47.21875 32.234375 
Q 47.125 39.59375 43.09375 43.984375 
Q 39.0625 48.390625 32.421875 48.390625 
Q 24.90625 48.390625 20.390625 44.140625 
Q 15.875 39.890625 15.1875 32.171875 
z
" id="BitstreamVeraSans-Roman-65"/>
      <path d="M 18.109375 8.203125 
L 18.109375 -20.796875 
L 9.078125 -20.796875 
L 9.078125 54.6875 
L 18.109375 54.6875 
L 18.109375 46.390625 
Q 20.953125 51.265625 25.265625 53.625 
Q 29.59375 56 35.59375 56 
Q 45.5625 56 51.78125 48.09375 
Q 58.015625 40.1875 58.015625 27.296875 
Q 58.015625 14.40625 51.78125 6.484375 
Q 45.5625 -1.421875 35.59375 -1.421875 
Q 29.59375 -1.421875 25.265625 0.953125 
Q 20.953125 3.328125 18.109375 8.203125 
M 48.6875 27.296875 
Q 48.6875 37.203125 44.609375 42.84375 
Q 40.53125 48.484375 33.40625 48.484375 
Q 26.265625 48.484375 22.1875 42.84375 
Q 18.109375 37.203125 18.109375 27.296875 
Q 18.109375 17.390625 22.1875 11.75 
Q 26.265625 6.109375 33.40625 6.109375 
Q 40.53125 6.109375 44.609375 11.75 
Q 48.6875 17.390625 48.6875 27.296875 
" id="BitstreamVeraSans-Roman-70"/>
      <path d="M 45.40625 46.390625 
L 45.40625 75.984375 
L 54.390625 75.984375 
L 54.390625 0 
L 45.40625 0 
L 45.40625 8.203125 
Q 42.578125 3.328125 38.25 0.953125 
Q 33.9375 -1.421875 27.875 -1.421875 
Q 17.96875 -1.421875 11.734375 6.484375 
Q 5.515625 14.40625 5.515625 27.296875 
Q 5.515625 40.1875 11.734375 48.09375 
Q 17.96875 56 27.875 56 
Q 33.9375 56 38.25 53.625 
Q 42.578125 51.265625 45.40625 46.390625 
M 14.796875 27.296875 
Q 14.796875 17.390625 18.875 11.75 
Q 22.953125 6.109375 30.078125 6.109375 
Q 37.203125 6.109375 41.296875 11.75 
Q 45.40625 17.390625 45.40625 27.296875 
Q 45.40625 37.203125 41.296875 42.84375 
Q 37.203125 48.484375 30.078125 48.484375 
Q 22.953125 48.484375 18.875 42.84375 
Q 14.796875 37.203125 14.796875 27.296875 
" id="BitstreamVeraSans-Roman-64"/>
      <path d="M 9.421875 54.6875 
L 18.40625 54.6875 
L 18.40625 0 
L 9.421875 0 
z
M 9.421875 75.984375 
L 18.40625 75.984375 
L 18.40625 64.59375 
L 9.421875 64.59375 
z
" id="BitstreamVeraSans-Roman-69"/>
      <path d="M 30.609375 48.390625 
Q 23.390625 48.390625 19.1875 42.75 
Q 14.984375 37.109375 14.984375 27.296875 
Q 14.984375 17.484375 19.15625 11.84375 
Q 23.34375 6.203125 30.609375 6.203125 
Q 37.796875 6.203125 41.984375 11.859375 
Q 46.1875 17.53125 46.1875 27.296875 
Q 46.1875 37.015625 41.984375 42.703125 
Q 37.796875 48.390625 30.609375 48.390625 
M 30.609375 56 
Q 42.328125 56 49.015625 48.375 
Q 55.71875 40.765625 55.71875 27.296875 
Q 55.71875 13.875 49.015625 6.21875 
Q 42.328125 -1.421875 30.609375 -1.421875 
Q 18.84375 -1.421875 12.171875 6.21875 
Q 5.515625 13.875 5.515625 27.296875 
Q 5.515625 40.765625 12.171875 48.375 
Q 18.84375 56 30.609375 56 
" id="BitstreamVeraSans-Roman-6f"/>
      <path d="M 44.28125 53.078125 
L 44.28125 44.578125 
Q 40.484375 46.53125 36.375 47.5 
Q 32.28125 48.484375 27.875 48.484375 
Q 21.1875 48.484375 17.84375 46.4375 
Q 14.5 44.390625 14.5 40.28125 
Q 14.5 37.15625 16.890625 35.375 
Q 19.28125 33.59375 26.515625 31.984375 
L 29.59375 31.296875 
Q 39.15625 29.25 43.1875 25.515625 
Q 47.21875 21.78125 47.21875 15.09375 
Q 47.21875 7.46875 41.1875 3.015625 
Q 35.15625 -1.421875 24.609375 -1.421875 
Q 20.21875 -1.421875 15.453125 -0.5625 
Q 10.6875 0.296875 5.421875 2 
L 5.421875 11.28125 
Q 10.40625 8.6875 15.234375 7.390625 
Q 20.0625 6.109375 24.8125 6.109375 
Q 31.15625 6.109375 34.5625 8.28125 
Q 37.984375 10.453125 37.984375 14.40625 
Q 37.984375 18.0625 35.515625 20.015625 
Q 33.0625 21.96875 24.703125 23.78125 
L 21.578125 24.515625 
Q 13.234375 26.265625 9.515625 29.90625 
Q 5.8125 33.546875 5.8125 39.890625 
Q 5.8125 47.609375 11.28125 51.796875 
Q 16.75 56 26.8125 56 
Q 31.78125 56 36.171875 55.265625 
Q 40.578125 54.546875 44.28125 53.078125 
" id="BitstreamVeraSans-Roman-73"/>
     </defs>
     <g transform="translate(246.631875 398.473625)scale(0.12 -0.12)">
      <use xlink:href="#BitstreamVeraSans-Roman-65"/>
      <use x="61.5234375" xlink:href="#BitstreamVeraSans-Roman-70"/>
      <use x="125.0" xlink:href="#BitstreamVeraSans-Roman-69"/>
      <use x="152.783203125" xlink:href="#BitstreamVeraSans-Roman-73"/>
      <use x="204.8828125" xlink:href="#BitstreamVeraSans-Roman-6f"/>
      <use x="266.064453125" xlink:href="#BitstreamVeraSans-Roman-64"/>
      <use x="329.541015625" xlink:href="#BitstreamVeraSans-Roman-65"/>
     </g>
    </g>
   </g>
   <g id="matplotlib.axis_2">
    <g id="ytick_1">
     <g id="line2d_12">
      <defs>
       <path d="M 0 0 
L 4 0 
" id="mc9f1e22a02" style="stroke:#000000;stroke-width:0.5;"/>
      </defs>
      <g>
       <use style="stroke:#000000;stroke-width:0.5;" x="46.8975" xlink:href="#mc9f1e22a02" y="368.74175"/>
      </g>
     </g>
     <g id="line2d_13">
      <defs>
       <path d="M 0 0 
L -4 0 
" id="m45bd825725" style="stroke:#000000;stroke-width:0.5;"/>
      </defs>
      <g>
       <use style="stroke:#000000;stroke-width:0.5;" x="493.2975" xlink:href="#m45bd825725" y="368.74175"/>
      </g>
     </g>
     <g id="text_7">
      <!-- 0.0 -->
      <defs>
       <path d="M 10.6875 12.40625 
L 21 12.40625 
L 21 0 
L 10.6875 0 
z
" id="BitstreamVeraSans-Roman-2e"/>
      </defs>
      <g transform="translate(23.81375 372.053)scale(0.12 -0.12)">
       <use xlink:href="#BitstreamVeraSans-Roman-30"/>
       <use x="63.623046875" xlink:href="#BitstreamVeraSans-Roman-2e"/>
       <use x="95.41015625" xlink:href="#BitstreamVeraSans-Roman-30"/>
      </g>
     </g>
    </g>
    <g id="ytick_2">
     <g id="line2d_14">
      <g>
       <use style="stroke:#000000;stroke-width:0.5;" x="46.8975" xlink:href="#mc9f1e22a02" y="319.370321429"/>
      </g>
     </g>
     <g id="line2d_15">
      <g>
       <use style="stroke:#000000;stroke-width:0.5;" x="493.2975" xlink:href="#m45bd825725" y="319.370321429"/>
      </g>
     </g>
     <g id="text_8">
      <!-- 0.2 -->
      <g transform="translate(23.81375 322.681571429)scale(0.12 -0.12)">
       <use xlink:href="#BitstreamVeraSans-Roman-30"/>
       <use x="63.623046875" xlink:href="#BitstreamVeraSans-Roman-2e"/>
       <use x="95.41015625" xlink:href="#BitstreamVeraSans-Roman-32"/>
      </g>
     </g>
    </g>
    <g id="ytick_3">
     <g id="line2d_16">
      <g>
       <use style="stroke:#000000;stroke-width:0.5;" x="46.8975" xlink:href="#mc9f1e22a02" y="269.998892857"/>
      </g>
     </g>
     <g id="line2d_17">
      <g>
       <use style="stroke:#000000;stroke-width:0.5;" x="493.2975" xlink:href="#m45bd825725" y="269.998892857"/>
      </g>
     </g>
     <g id="text_9">
      <!-- 0.4 -->
      <defs>
       <path d="M 37.796875 64.3125 
L 12.890625 25.390625 
L 37.796875 25.390625 
z
M 35.203125 72.90625 
L 47.609375 72.90625 
L 47.609375 25.390625 
L 58.015625 25.390625 
L 58.015625 17.1875 
L 47.609375 17.1875 
L 47.609375 0 
L 37.796875 0 
L 37.796875 17.1875 
L 4.890625 17.1875 
L 4.890625 26.703125 
z
" id="BitstreamVeraSans-Roman-34"/>
      </defs>
      <g transform="translate(23.81375 273.310142857)scale(0.12 -0.12)">
       <use xlink:href="#BitstreamVeraSans-Roman-30"/>
       <use x="63.623046875" xlink:href="#BitstreamVeraSans-Roman-2e"/>
       <use x="95.41015625" xlink:href="#BitstreamVeraSans-Roman-34"/>
      </g>
     </g>
    </g>
    <g id="ytick_4">
     <g id="line2d_18">
      <g>
       <use style="stroke:#000000;stroke-width:0.5;" x="46.8975" xlink:href="#mc9f1e22a02" y="220.627464286"/>
      </g>
     </g>
     <g id="line2d_19">
      <g>
       <use style="stroke:#000000;stroke-width:0.5;" x="493.2975" xlink:href="#m45bd825725" y="220.627464286"/>
      </g>
     </g>
     <g id="text_10">
      <!-- 0.6 -->
      <defs>
       <path d="M 33.015625 40.375 
Q 26.375 40.375 22.484375 35.828125 
Q 18.609375 31.296875 18.609375 23.390625 
Q 18.609375 15.53125 22.484375 10.953125 
Q 26.375 6.390625 33.015625 6.390625 
Q 39.65625 6.390625 43.53125 10.953125 
Q 47.40625 15.53125 47.40625 23.390625 
Q 47.40625 31.296875 43.53125 35.828125 
Q 39.65625 40.375 33.015625 40.375 
M 52.59375 71.296875 
L 52.59375 62.3125 
Q 48.875 64.0625 45.09375 64.984375 
Q 41.3125 65.921875 37.59375 65.921875 
Q 27.828125 65.921875 22.671875 59.328125 
Q 17.53125 52.734375 16.796875 39.40625 
Q 19.671875 43.65625 24.015625 45.921875 
Q 28.375 48.1875 33.59375 48.1875 
Q 44.578125 48.1875 50.953125 41.515625 
Q 57.328125 34.859375 57.328125 23.390625 
Q 57.328125 12.15625 50.6875 5.359375 
Q 44.046875 -1.421875 33.015625 -1.421875 
Q 20.359375 -1.421875 13.671875 8.265625 
Q 6.984375 17.96875 6.984375 36.375 
Q 6.984375 53.65625 15.1875 63.9375 
Q 23.390625 74.21875 37.203125 74.21875 
Q 40.921875 74.21875 44.703125 73.484375 
Q 48.484375 72.75 52.59375 71.296875 
" id="BitstreamVeraSans-Roman-36"/>
      </defs>
      <g transform="translate(23.81375 223.938714286)scale(0.12 -0.12)">
       <use xlink:href="#BitstreamVeraSans-Roman-30"/>
       <use x="63.623046875" xlink:href="#BitstreamVeraSans-Roman-2e"/>
       <use x="95.41015625" xlink:href="#BitstreamVeraSans-Roman-36"/>
      </g>
     </g>
    </g>
    <g id="ytick_5">
     <g id="line2d_20">
      <g>
       <use style="stroke:#000000;stroke-width:0.5;" x="46.8975" xlink:href="#mc9f1e22a02" y="171.256035714"/>
      </g>
     </g>
     <g id="line2d_21">
      <g>
       <use style="stroke:#000000;stroke-width:0.5;" x="493.2975" xlink:href="#m45bd825725" y="171.256035714"/>
      </g>
     </g>
     <g id="text_11">
      <!-- 0.8 -->
      <defs>
       <path d="M 31.78125 34.625 
Q 24.75 34.625 20.71875 30.859375 
Q 16.703125 27.09375 16.703125 20.515625 
Q 16.703125 13.921875 20.71875 10.15625 
Q 24.75 6.390625 31.78125 6.390625 
Q 38.8125 6.390625 42.859375 10.171875 
Q 46.921875 13.96875 46.921875 20.515625 
Q 46.921875 27.09375 42.890625 30.859375 
Q 38.875 34.625 31.78125 34.625 
M 21.921875 38.8125 
Q 15.578125 40.375 12.03125 44.71875 
Q 8.5 49.078125 8.5 55.328125 
Q 8.5 64.0625 14.71875 69.140625 
Q 20.953125 74.21875 31.78125 74.21875 
Q 42.671875 74.21875 48.875 69.140625 
Q 55.078125 64.0625 55.078125 55.328125 
Q 55.078125 49.078125 51.53125 44.71875 
Q 48 40.375 41.703125 38.8125 
Q 48.828125 37.15625 52.796875 32.3125 
Q 56.78125 27.484375 56.78125 20.515625 
Q 56.78125 9.90625 50.3125 4.234375 
Q 43.84375 -1.421875 31.78125 -1.421875 
Q 19.734375 -1.421875 13.25 4.234375 
Q 6.78125 9.90625 6.78125 20.515625 
Q 6.78125 27.484375 10.78125 32.3125 
Q 14.796875 37.15625 21.921875 38.8125 
M 18.3125 54.390625 
Q 18.3125 48.734375 21.84375 45.5625 
Q 25.390625 42.390625 31.78125 42.390625 
Q 38.140625 42.390625 41.71875 45.5625 
Q 45.3125 48.734375 45.3125 54.390625 
Q 45.3125 60.0625 41.71875 63.234375 
Q 38.140625 66.40625 31.78125 66.40625 
Q 25.390625 66.40625 21.84375 63.234375 
Q 18.3125 60.0625 18.3125 54.390625 
" id="BitstreamVeraSans-Roman-38"/>
      </defs>
      <g transform="translate(23.81375 174.567285714)scale(0.12 -0.12)">
       <use xlink:href="#BitstreamVeraSans-Roman-30"/>
       <use x="63.623046875" xlink:href="#BitstreamVeraSans-Roman-2e"/>
       <use x="95.41015625" xlink:href="#BitstreamVeraSans-Roman-38"/>
      </g>
     </g>
    </g>
    <g id="ytick_6">
     <g id="line2d_22">
      <g>
       <use style="stroke:#000000;stroke-width:0.5;" x="46.8975" xlink:href="#mc9f1e22a02" y="121.884607143"/>
      </g>
     </g>
     <g id="line2d_23">
      <g>
       <use style="stroke:#000000;stroke-width:0.5;" x="493.2975" xlink:href="#m45bd825725" y="121.884607143"/>
      </g>
     </g>
     <g id="text_12">
      <!-- 1.0 -->
      <g transform="translate(23.81375 125.195857143)scale(0.12 -0.12)">
       <use xlink:href="#BitstreamVeraSans-Roman-31"/>
       <use x="63.623046875" xlink:href="#BitstreamVeraSans-Roman-2e"/>
       <use x="95.41015625" xlink:href="#BitstreamVeraSans-Roman-30"/>
      </g>
     </g>
    </g>
    <g id="ytick_7">
     <g id="line2d_24">
      <g>
       <use style="stroke:#000000;stroke-width:0.5;" x="46.8975" xlink:href="#mc9f1e22a02" y="72.5131785714"/>
      </g>
     </g>
     <g id="line2d_25">
      <g>
       <use style="stroke:#000000;stroke-width:0.5;" x="493.2975" xlink:href="#m45bd825725" y="72.5131785714"/>
      </g>
     </g>
     <g id="text_13">
      <!-- 1.2 -->
      <g transform="translate(23.81375 75.8244285714)scale(0.12 -0.12)">
       <use xlink:href="#BitstreamVeraSans-Roman-31"/>
       <use x="63.623046875" xlink:href="#BitstreamVeraSans-Roman-2e"/>
       <use x="95.41015625" xlink:href="#BitstreamVeraSans-Roman-32"/>
      </g>
     </g>
    </g>
    <g id="ytick_8">
     <g id="line2d_26">
      <g>
       <use style="stroke:#000000;stroke-width:0.5;" x="46.8975" xlink:href="#mc9f1e22a02" y="23.14175"/>
      </g>
     </g>
     <g id="line2d_27">
      <g>
       <use style="stroke:#000000;stroke-width:0.5;" x="493.2975" xlink:href="#m45bd825725" y="23.14175"/>
      </g>
     </g>
     <g id="text_14">
      <!-- 1.4 -->
      <g transform="translate(23.81375 26.453)scale(0.12 -0.12)">
       <use xlink:href="#BitstreamVeraSans-Roman-31"/>
       <use x="63.623046875" xlink:href="#BitstreamVeraSans-Roman-2e"/>
       <use x="95.41015625" xlink:href="#BitstreamVeraSans-Roman-34"/>
      </g>
     </g>
    </g>
    <g id="text_15">
     <!-- average maxQ -->
     <defs>
      <path d="M 41.109375 46.296875 
Q 39.59375 47.171875 37.8125 47.578125 
Q 36.03125 48 33.890625 48 
Q 26.265625 48 22.1875 43.046875 
Q 18.109375 38.09375 18.109375 28.8125 
L 18.109375 0 
L 9.078125 0 
L 9.078125 54.6875 
L 18.109375 54.6875 
L 18.109375 46.1875 
Q 20.953125 51.171875 25.484375 53.578125 
Q 30.03125 56 36.53125 56 
Q 37.453125 56 38.578125 55.875 
Q 39.703125 55.765625 41.0625 55.515625 
z
" id="BitstreamVeraSans-Roman-72"/>
      <path d="M 54.890625 54.6875 
L 35.109375 28.078125 
L 55.90625 0 
L 45.3125 0 
L 29.390625 21.484375 
L 13.484375 0 
L 2.875 0 
L 24.125 28.609375 
L 4.6875 54.6875 
L 15.28125 54.6875 
L 29.78125 35.203125 
L 44.28125 54.6875 
z
" id="BitstreamVeraSans-Roman-78"/>
      <path d="M 39.40625 66.21875 
Q 28.65625 66.21875 22.328125 58.203125 
Q 16.015625 50.203125 16.015625 36.375 
Q 16.015625 22.609375 22.328125 14.59375 
Q 28.65625 6.59375 39.40625 6.59375 
Q 50.140625 6.59375 56.421875 14.59375 
Q 62.703125 22.609375 62.703125 36.375 
Q 62.703125 50.203125 56.421875 58.203125 
Q 50.140625 66.21875 39.40625 66.21875 
M 53.21875 1.3125 
L 66.21875 -12.890625 
L 54.296875 -12.890625 
L 43.5 -1.21875 
Q 41.890625 -1.3125 41.03125 -1.359375 
Q 40.1875 -1.421875 39.40625 -1.421875 
Q 24.03125 -1.421875 14.8125 8.859375 
Q 5.609375 19.140625 5.609375 36.375 
Q 5.609375 53.65625 14.8125 63.9375 
Q 24.03125 74.21875 39.40625 74.21875 
Q 54.734375 74.21875 63.90625 63.9375 
Q 73.09375 53.65625 73.09375 36.375 
Q 73.09375 23.6875 67.984375 14.640625 
Q 62.890625 5.609375 53.21875 1.3125 
" id="BitstreamVeraSans-Roman-51"/>
      <path id="BitstreamVeraSans-Roman-20"/>
      <path d="M 2.984375 54.6875 
L 12.5 54.6875 
L 29.59375 8.796875 
L 46.6875 54.6875 
L 56.203125 54.6875 
L 35.6875 0 
L 23.484375 0 
z
" id="BitstreamVeraSans-Roman-76"/>
      <path d="M 34.28125 27.484375 
Q 23.390625 27.484375 19.1875 25 
Q 14.984375 22.515625 14.984375 16.5 
Q 14.984375 11.71875 18.140625 8.90625 
Q 21.296875 6.109375 26.703125 6.109375 
Q 34.1875 6.109375 38.703125 11.40625 
Q 43.21875 16.703125 43.21875 25.484375 
L 43.21875 27.484375 
z
M 52.203125 31.203125 
L 52.203125 0 
L 43.21875 0 
L 43.21875 8.296875 
Q 40.140625 3.328125 35.546875 0.953125 
Q 30.953125 -1.421875 24.3125 -1.421875 
Q 15.921875 -1.421875 10.953125 3.296875 
Q 6 8.015625 6 15.921875 
Q 6 25.140625 12.171875 29.828125 
Q 18.359375 34.515625 30.609375 34.515625 
L 43.21875 34.515625 
L 43.21875 35.40625 
Q 43.21875 41.609375 39.140625 45 
Q 35.0625 48.390625 27.6875 48.390625 
Q 23 48.390625 18.546875 47.265625 
Q 14.109375 46.140625 10.015625 43.890625 
L 10.015625 52.203125 
Q 14.9375 54.109375 19.578125 55.046875 
Q 24.21875 56 28.609375 56 
Q 40.484375 56 46.34375 49.84375 
Q 52.203125 43.703125 52.203125 31.203125 
" id="BitstreamVeraSans-Roman-61"/>
      <path d="M 45.40625 27.984375 
Q 45.40625 37.75 41.375 43.109375 
Q 37.359375 48.484375 30.078125 48.484375 
Q 22.859375 48.484375 18.828125 43.109375 
Q 14.796875 37.75 14.796875 27.984375 
Q 14.796875 18.265625 18.828125 12.890625 
Q 22.859375 7.515625 30.078125 7.515625 
Q 37.359375 7.515625 41.375 12.890625 
Q 45.40625 18.265625 45.40625 27.984375 
M 54.390625 6.78125 
Q 54.390625 -7.171875 48.1875 -13.984375 
Q 42 -20.796875 29.203125 -20.796875 
Q 24.46875 -20.796875 20.265625 -20.09375 
Q 16.0625 -19.390625 12.109375 -17.921875 
L 12.109375 -9.1875 
Q 16.0625 -11.328125 19.921875 -12.34375 
Q 23.78125 -13.375 27.78125 -13.375 
Q 36.625 -13.375 41.015625 -8.765625 
Q 45.40625 -4.15625 45.40625 5.171875 
L 45.40625 9.625 
Q 42.625 4.78125 38.28125 2.390625 
Q 33.9375 0 27.875 0 
Q 17.828125 0 11.671875 7.65625 
Q 5.515625 15.328125 5.515625 27.984375 
Q 5.515625 40.671875 11.671875 48.328125 
Q 17.828125 56 27.875 56 
Q 33.9375 56 38.28125 53.609375 
Q 42.625 51.21875 45.40625 46.390625 
L 45.40625 54.6875 
L 54.390625 54.6875 
z
" id="BitstreamVeraSans-Roman-67"/>
      <path d="M 52 44.1875 
Q 55.375 50.25 60.0625 53.125 
Q 64.75 56 71.09375 56 
Q 79.640625 56 84.28125 50.015625 
Q 88.921875 44.046875 88.921875 33.015625 
L 88.921875 0 
L 79.890625 0 
L 79.890625 32.71875 
Q 79.890625 40.578125 77.09375 44.375 
Q 74.3125 48.1875 68.609375 48.1875 
Q 61.625 48.1875 57.5625 43.546875 
Q 53.515625 38.921875 53.515625 30.90625 
L 53.515625 0 
L 44.484375 0 
L 44.484375 32.71875 
Q 44.484375 40.625 41.703125 44.40625 
Q 38.921875 48.1875 33.109375 48.1875 
Q 26.21875 48.1875 22.15625 43.53125 
Q 18.109375 38.875 18.109375 30.90625 
L 18.109375 0 
L 9.078125 0 
L 9.078125 54.6875 
L 18.109375 54.6875 
L 18.109375 46.1875 
Q 21.1875 51.21875 25.484375 53.609375 
Q 29.78125 56 35.6875 56 
Q 41.65625 56 45.828125 52.96875 
Q 50 49.953125 52 44.1875 
" id="BitstreamVeraSans-Roman-6d"/>
     </defs>
     <g transform="translate(16.318125 240.208625)rotate(-90.0)scale(0.12 -0.12)">
      <use xlink:href="#BitstreamVeraSans-Roman-61"/>
      <use x="61.279296875" xlink:href="#BitstreamVeraSans-Roman-76"/>
      <use x="120.458984375" xlink:href="#BitstreamVeraSans-Roman-65"/>
      <use x="181.982421875" xlink:href="#BitstreamVeraSans-Roman-72"/>
      <use x="223.095703125" xlink:href="#BitstreamVeraSans-Roman-61"/>
      <use x="284.375" xlink:href="#BitstreamVeraSans-Roman-67"/>
      <use x="347.8515625" xlink:href="#BitstreamVeraSans-Roman-65"/>
      <use x="409.375" xlink:href="#BitstreamVeraSans-Roman-20"/>
      <use x="441.162109375" xlink:href="#BitstreamVeraSans-Roman-6d"/>
      <use x="538.57421875" xlink:href="#BitstreamVeraSans-Roman-61"/>
      <use x="599.853515625" xlink:href="#BitstreamVeraSans-Roman-78"/>
      <use x="659.033203125" xlink:href="#BitstreamVeraSans-Roman-51"/>
     </g>
    </g>
   </g>
   <g id="text_16">
    <!-- Average maxQ per episode, joint 2 -->
    <defs>
     <path d="M 34.1875 63.1875 
L 20.796875 26.90625 
L 47.609375 26.90625 
z
M 28.609375 72.90625 
L 39.796875 72.90625 
L 67.578125 0 
L 57.328125 0 
L 50.6875 18.703125 
L 17.828125 18.703125 
L 11.1875 0 
L 0.78125 0 
z
" id="BitstreamVeraSans-Roman-41"/>
     <path d="M 18.3125 70.21875 
L 18.3125 54.6875 
L 36.8125 54.6875 
L 36.8125 47.703125 
L 18.3125 47.703125 
L 18.3125 18.015625 
Q 18.3125 11.328125 20.140625 9.421875 
Q 21.96875 7.515625 27.59375 7.515625 
L 36.8125 7.515625 
L 36.8125 0 
L 27.59375 0 
Q 17.1875 0 13.234375 3.875 
Q 9.28125 7.765625 9.28125 18.015625 
L 9.28125 47.703125 
L 2.6875 47.703125 
L 2.6875 54.6875 
L 9.28125 54.6875 
L 9.28125 70.21875 
z
" id="BitstreamVeraSans-Roman-74"/>
     <path d="M 11.71875 12.40625 
L 22.015625 12.40625 
L 22.015625 4 
L 14.015625 -11.625 
L 7.71875 -11.625 
L 11.71875 4 
z
" id="BitstreamVeraSans-Roman-2c"/>
     <path d="M 54.890625 33.015625 
L 54.890625 0 
L 45.90625 0 
L 45.90625 32.71875 
Q 45.90625 40.484375 42.875 44.328125 
Q 39.84375 48.1875 33.796875 48.1875 
Q 26.515625 48.1875 22.3125 43.546875 
Q 18.109375 38.921875 18.109375 30.90625 
L 18.109375 0 
L 9.078125 0 
L 9.078125 54.6875 
L 18.109375 54.6875 
L 18.109375 46.1875 
Q 21.34375 51.125 25.703125 53.5625 
Q 30.078125 56 35.796875 56 
Q 45.21875 56 50.046875 50.171875 
Q 54.890625 44.34375 54.890625 33.015625 
" id="BitstreamVeraSans-Roman-6e"/>
     <path d="M 9.421875 54.6875 
L 18.40625 54.6875 
L 18.40625 -0.984375 
Q 18.40625 -11.421875 14.421875 -16.109375 
Q 10.453125 -20.796875 1.609375 -20.796875 
L -1.8125 -20.796875 
L -1.8125 -13.1875 
L 0.59375 -13.1875 
Q 5.71875 -13.1875 7.5625 -10.8125 
Q 9.421875 -8.453125 9.421875 -0.984375 
z
M 9.421875 75.984375 
L 18.40625 75.984375 
L 18.40625 64.59375 
L 9.421875 64.59375 
z
" id="BitstreamVeraSans-Roman-6a"/>
    </defs>
    <g transform="translate(144.53625 18.14175)scale(0.144 -0.144)">
     <use xlink:href="#BitstreamVeraSans-Roman-41"/>
     <use x="68.330078125" xlink:href="#BitstreamVeraSans-Roman-76"/>
     <use x="127.509765625" xlink:href="#BitstreamVeraSans-Roman-65"/>
     <use x="189.033203125" xlink:href="#BitstreamVeraSans-Roman-72"/>
     <use x="230.146484375" xlink:href="#BitstreamVeraSans-Roman-61"/>
     <use x="291.42578125" xlink:href="#BitstreamVeraSans-Roman-67"/>
     <use x="354.90234375" xlink:href="#BitstreamVeraSans-Roman-65"/>
     <use x="416.42578125" xlink:href="#BitstreamVeraSans-Roman-20"/>
     <use x="448.212890625" xlink:href="#BitstreamVeraSans-Roman-6d"/>
     <use x="545.625" xlink:href="#BitstreamVeraSans-Roman-61"/>
     <use x="606.904296875" xlink:href="#BitstreamVeraSans-Roman-78"/>
     <use x="666.083984375" xlink:href="#BitstreamVeraSans-Roman-51"/>
     <use x="744.794921875" xlink:href="#BitstreamVeraSans-Roman-20"/>
     <use x="776.58203125" xlink:href="#BitstreamVeraSans-Roman-70"/>
     <use x="840.05859375" xlink:href="#BitstreamVeraSans-Roman-65"/>
     <use x="901.58203125" xlink:href="#BitstreamVeraSans-Roman-72"/>
     <use x="942.6953125" xlink:href="#BitstreamVeraSans-Roman-20"/>
     <use x="974.482421875" xlink:href="#BitstreamVeraSans-Roman-65"/>
     <use x="1036.005859375" xlink:href="#BitstreamVeraSans-Roman-70"/>
     <use x="1099.482421875" xlink:href="#BitstreamVeraSans-Roman-69"/>
     <use x="1127.265625" xlink:href="#BitstreamVeraSans-Roman-73"/>
     <use x="1179.365234375" xlink:href="#BitstreamVeraSans-Roman-6f"/>
     <use x="1240.546875" xlink:href="#BitstreamVeraSans-Roman-64"/>
     <use x="1304.0234375" xlink:href="#BitstreamVeraSans-Roman-65"/>
     <use x="1365.546875" xlink:href="#BitstreamVeraSans-Roman-2c"/>
     <use x="1397.333984375" xlink:href="#BitstreamVeraSans-Roman-20"/>
     <use x="1429.12109375" xlink:href="#BitstreamVeraSans-Roman-6a"/>
     <use x="1456.904296875" xlink:href="#BitstreamVeraSans-Roman-6f"/>
     <use x="1518.0859375" xlink:href="#BitstreamVeraSans-Roman-69"/>
     <use x="1545.869140625" xlink:href="#BitstreamVeraSans-Roman-6e"/>
     <use x="1609.248046875" xlink:href="#BitstreamVeraSans-Roman-74"/>
     <use x="1648.45703125" xlink:href="#BitstreamVeraSans-Roman-20"/>
     <use x="1680.244140625" xlink:href="#BitstreamVeraSans-Roman-32"/>
    </g>
   </g>
  </g>
 </g>
 <defs>
  <clipPath id="p28a54a8b1c">
   <rect height="345.6" width="446.4" x="46.8975" y="23.14175"/>
  </clipPath>
 </defs>
</svg>
