<?xml version="1.0" encoding="utf-8" standalone="no"?>
<!DOCTYPE svg PUBLIC "-//W3C//DTD SVG 1.1//EN"
  "http://www.w3.org/Graphics/SVG/1.1/DTD/svg11.dtd">
<!-- Created with matplotlib (http://matplotlib.org/) -->
<svg height="408pt" version="1.1" viewBox="0 0 519 408" width="519pt" xmlns="http://www.w3.org/2000/svg" xmlns:xlink="http://www.w3.org/1999/xlink">
 <defs>
  <style type="text/css">
*{stroke-linecap:butt;stroke-linejoin:round;stroke-miterlimit:100000;}
  </style>
 </defs>
 <g id="figure_1">
  <g id="patch_1">
   <path d="M 0 408.16925 
L 519.585 408.16925 
L 519.585 0 
L 0 0 
z
" style="fill:#ffffff;"/>
  </g>
  <g id="axes_1">
   <g id="patch_2">
    <path d="M 54.5325 368.74175 
L 500.9325 368.74175 
L 500.9325 23.14175 
L 54.5325 23.14175 
z
" style="fill:#ffffff;"/>
   </g>
   <g id="line2d_1">
    <path clip-path="url(#p8fed498fe1)" d="M 55.2765 100.442753 
L 56.0205 101.791033 
L 56.7645 100.052977 
L 57.5085 101.377588 
L 58.2525 99.622146 
L 58.9965 101.455593 
L 59.7405 100.935701 
L 60.4845 99.315102 
L 61.2285 100.471798 
L 61.9725 100.170084 
L 62.7165 101.063839 
L 63.4605 102.606042 
L 64.2045 101.321383 
L 64.9485 100.853 
L 65.6925 102.191423 
L 66.4365 99.655038 
L 67.1805 101.686048 
L 67.9245 100.17905 
L 68.6685 102.535772 
L 69.4125 101.204378 
L 70.1565 99.083349 
L 70.9005 101.714784 
L 71.6445 100.783894 
L 72.3885 100.637731 
L 73.1325 100.810658 
L 73.8765 99.826842 
L 74.6205 101.36097 
L 75.3645 101.282919 
L 76.1085 101.679101 
L 76.8525 100.642247 
L 77.5965 102.121668 
L 78.3405 99.89294 
L 79.0845 101.47905 
L 79.8285 101.29 
L 80.5725 100.875046 
L 81.3165 100.045005 
L 82.0605 100.560566 
L 82.8045 101.760984 
L 83.5485 101.684369 
L 84.2925 100.797196 
L 85.0365 98.038678 
L 85.7805 101.156531 
L 86.5245 103.141754 
L 87.2685 101.796801 
L 88.0125 103.590794 
L 88.7565 99.793821 
L 89.5005 101.299022 
L 90.2445 102.095914 
L 90.9885 101.30326 
L 91.7325 101.887912 
L 92.4765 85.878471 
L 93.9645 88.877342 
L 94.7085 89.432902 
L 95.4525 86.639283 
L 96.1965 85.58268 
L 96.9405 91.91664 
L 97.6845 88.748787 
L 98.4285 89.529441 
L 99.1725 87.491123 
L 99.9165 86.644551 
L 101.4045 86.058798 
L 102.1485 86.37059 
L 102.8925 88.922651 
L 103.6365 87.963724 
L 104.3805 86.45307 
L 105.1245 87.741514 
L 105.8685 86.223717 
L 106.6125 87.391119 
L 107.3565 91.018502 
L 108.1005 90.793634 
L 108.8445 89.460629 
L 109.5885 89.70743 
L 110.3325 87.673021 
L 111.0765 89.172372 
L 111.8205 86.665599 
L 112.5645 89.824836 
L 113.3085 85.83239 
L 114.0525 88.355684 
L 114.7965 87.72196 
L 115.5405 88.124018 
L 116.2845 88.839527 
L 117.0285 90.829688 
L 117.7725 45.020454 
L 118.5165 63.199961 
L 119.2605 75.272723 
L 120.0045 115.940052 
L 120.7485 135.888276 
L 121.4925 55.0592 
L 122.2365 75.3501 
L 122.9805 123.096838 
L 123.7245 160.734608 
L 124.4685 164.078768 
L 125.9565 87.52727 
L 126.7005 92.184143 
L 127.4445 153.241671 
L 128.1885 158.220707 
L 128.9325 125.60857 
L 129.6765 135.924619 
L 130.4205 161.195346 
L 131.1645 133.29271 
L 131.9085 144.4333 
L 132.6525 152.717069 
L 133.3965 168.940192 
L 134.1405 167.708646 
L 134.8845 144.442806 
L 135.6285 169.148444 
L 136.3725 185.217164 
L 137.1165 184.447371 
L 137.8605 173.158618 
L 138.6045 181.444308 
L 139.3485 175.384665 
L 140.0925 179.640615 
L 140.8365 192.487538 
L 141.5805 187.167494 
L 142.3245 195.487204 
L 143.0685 197.926983 
L 143.8125 199.801237 
L 144.5565 204.558737 
L 145.3005 193.178559 
L 146.0445 211.113579 
L 146.7885 206.218889 
L 147.5325 198.87278 
L 148.2765 178.151173 
L 149.0205 200.407898 
L 149.7645 206.553588 
L 150.5085 211.734189 
L 151.2525 203.145837 
L 151.9965 200.071094 
L 152.7405 188.838919 
L 153.4845 208.717399 
L 154.2285 203.439445 
L 154.9725 200.900009 
L 156.4605 211.528334 
L 157.2045 212.827858 
L 157.9485 216.058117 
L 158.6925 210.124119 
L 159.4365 208.645726 
L 160.1805 223.412183 
L 160.9245 204.018722 
L 161.6685 228.382583 
L 162.4125 215.692813 
L 163.1565 216.240135 
L 163.9005 219.631216 
L 164.6445 220.319209 
L 165.3885 224.25661 
L 166.1325 224.145219 
L 166.8765 224.515621 
L 167.6205 214.856468 
L 168.3645 231.467951 
L 169.1085 229.135407 
L 169.8525 232.141885 
L 170.5965 232.878513 
L 171.3405 236.426767 
L 172.0845 234.545331 
L 172.8285 232.115379 
L 173.5725 219.458876 
L 174.3165 234.592844 
L 175.0605 242.373492 
L 175.8045 230.872168 
L 176.5485 237.63246 
L 177.2925 242.234503 
L 178.0365 229.534155 
L 178.7805 248.433431 
L 179.5245 245.150536 
L 180.2685 230.264551 
L 181.0125 248.856882 
L 181.7565 246.339614 
L 182.5005 251.628048 
L 183.2445 245.242435 
L 183.9885 246.413578 
L 184.7325 242.329813 
L 185.4765 236.423527 
L 186.2205 247.492475 
L 186.9645 248.283547 
L 187.7085 254.085024 
L 188.4525 255.329898 
L 189.1965 244.060433 
L 189.9405 243.529088 
L 190.6845 265.69526 
L 191.4285 245.54163 
L 192.1725 265.832799 
L 192.9165 257.043756 
L 193.6605 261.078444 
L 194.4045 259.823269 
L 195.1485 251.511604 
L 195.8925 267.707567 
L 196.6365 256.161503 
L 197.3805 248.026818 
L 198.1245 255.262082 
L 198.8685 258.386346 
L 199.6125 269.314114 
L 200.3565 257.294006 
L 201.1005 254.374659 
L 201.8445 249.735718 
L 202.5885 260.215682 
L 203.3325 267.131461 
L 204.0765 268.839345 
L 204.8205 266.566621 
L 205.5645 265.683651 
L 206.3085 272.180943 
L 207.0525 266.970256 
L 207.7965 253.846355 
L 208.5405 268.671365 
L 209.2845 253.866032 
L 210.0285 265.51925 
L 210.7725 279.837662 
L 211.5165 255.407302 
L 212.2605 262.838473 
L 213.0045 266.62447 
L 214.4925 272.586843 
L 215.2365 274.852297 
L 215.9805 261.372438 
L 216.7245 274.160473 
L 217.4685 279.430928 
L 218.2125 261.068645 
L 218.9565 285.756025 
L 219.7005 276.530647 
L 220.4445 270.654246 
L 221.1885 277.707645 
L 221.9325 277.513623 
L 222.6765 271.667183 
L 223.4205 271.003809 
L 224.1645 273.656393 
L 224.9085 272.348207 
L 225.6525 277.014481 
L 226.3965 272.496977 
L 227.1405 278.890827 
L 227.8845 275.864806 
L 228.6285 279.67612 
L 229.3725 272.875578 
L 230.1165 268.808409 
L 230.8605 281.133319 
L 231.6045 288.219514 
L 232.3485 288.785862 
L 233.0925 281.825558 
L 233.8365 280.852864 
L 234.5805 275.902218 
L 235.3245 286.644641 
L 236.0685 287.94314 
L 236.8125 275.806211 
L 237.5565 285.59849 
L 238.3005 268.345164 
L 239.0445 285.648042 
L 239.7885 295.536547 
L 240.5325 276.981186 
L 241.2765 274.586289 
L 242.0205 284.000004 
L 242.7645 283.220653 
L 243.5085 287.037619 
L 244.2525 275.316607 
L 244.9965 294.910469 
L 245.7405 288.252068 
L 246.4845 284.333611 
L 247.2285 276.271972 
L 247.9725 284.491632 
L 248.7165 269.134555 
L 249.4605 287.865564 
L 250.2045 290.203266 
L 250.9485 287.288411 
L 251.6925 282.17978 
L 252.4365 296.629537 
L 253.1805 277.573641 
L 253.9245 288.897942 
L 254.6685 292.474029 
L 255.4125 290.068314 
L 256.1565 268.466069 
L 256.9005 305.770886 
L 257.6445 300.424887 
L 258.3885 303.874573 
L 259.8765 282.01933 
L 260.6205 292.446185 
L 261.3645 284.28942 
L 262.1085 294.446296 
L 262.8525 289.302743 
L 263.5965 295.552213 
L 264.3405 281.05018 
L 265.0845 293.999808 
L 265.8285 296.661336 
L 266.5725 285.223566 
L 267.3165 285.602112 
L 268.8045 296.437029 
L 269.5485 296.999064 
L 270.2925 302.50348 
L 271.0365 304.542443 
L 271.7805 298.257873 
L 272.5245 314.816739 
L 273.2685 306.892223 
L 274.0125 296.595644 
L 274.7565 316.614704 
L 275.5005 292.803247 
L 276.2445 302.994475 
L 276.9885 283.324781 
L 277.7325 293.378184 
L 278.4765 291.705482 
L 279.9645 310.328104 
L 280.7085 301.311252 
L 281.4525 301.705522 
L 282.1965 298.790764 
L 282.9405 305.295878 
L 283.6845 296.324849 
L 284.4285 301.822753 
L 285.1725 311.77577 
L 285.9165 303.871017 
L 286.6605 297.562876 
L 287.4045 307.860647 
L 288.1485 309.287731 
L 288.8925 291.533573 
L 289.6365 292.674883 
L 290.3805 300.800604 
L 291.1245 295.553058 
L 291.8685 304.405738 
L 292.6125 304.444261 
L 293.3565 294.751037 
L 294.1005 291.039908 
L 294.8445 315.804402 
L 295.5885 310.641766 
L 296.3325 292.647334 
L 297.0765 296.733793 
L 297.8205 290.538411 
L 298.5645 319.496977 
L 299.3085 292.934425 
L 300.0525 303.936649 
L 300.7965 297.666238 
L 301.5405 308.885997 
L 302.2845 294.722706 
L 303.0285 300.504643 
L 303.7725 307.421745 
L 304.5165 296.535687 
L 305.2605 321.307491 
L 306.0045 306.788469 
L 306.7485 299.878999 
L 307.4925 297.037305 
L 308.2365 308.21103 
L 308.9805 295.574688 
L 309.7245 310.145857 
L 310.4685 305.885037 
L 311.2125 300.908164 
L 311.9565 299.047269 
L 312.7005 307.955655 
L 313.4445 315.426786 
L 314.1885 294.254523 
L 314.9325 320.553547 
L 315.6765 307.851016 
L 316.4205 304.674755 
L 317.9085 295.258258 
L 318.6525 310.411581 
L 319.3965 308.279956 
L 320.1405 310.31738 
L 320.8845 297.946636 
L 321.6285 290.491298 
L 322.3725 304.656284 
L 323.1165 291.145691 
L 323.8605 317.727955 
L 324.6045 307.546945 
L 325.3485 293.672849 
L 326.0925 316.245699 
L 326.8365 316.066145 
L 327.5805 318.103863 
L 328.3245 318.696735 
L 329.0685 309.779832 
L 329.8125 298.0284 
L 330.5565 304.770502 
L 331.3005 310.260779 
L 332.0445 298.773225 
L 332.7885 307.037506 
L 333.5325 299.170538 
L 334.2765 295.262088 
L 335.0205 310.576261 
L 335.7645 331.017669 
L 336.5085 295.457076 
L 337.9965 314.639168 
L 338.7405 320.626739 
L 340.2285 299.190751 
L 340.9725 315.982785 
L 341.7165 305.736063 
L 342.4605 307.287414 
L 343.2045 307.453867 
L 343.9485 310.16972 
L 344.6925 308.590267 
L 345.4365 313.589076 
L 346.1805 306.020772 
L 346.9245 303.629431 
L 347.6685 307.09777 
L 348.4125 293.06402 
L 349.1565 304.915794 
L 349.9005 323.743271 
L 350.6445 298.123493 
L 351.3885 315.787307 
L 352.1325 313.560541 
L 352.8765 309.782862 
L 353.6205 313.441222 
L 354.3645 312.256655 
L 355.1085 314.78892 
L 355.8525 334.206299 
L 356.5965 311.458052 
L 357.3405 308.71164 
L 358.0845 316.892881 
L 358.8285 316.011029 
L 359.5725 307.517228 
L 360.3165 322.552661 
L 361.0605 304.898348 
L 361.8045 309.382591 
L 362.5485 324.950298 
L 363.2925 310.247607 
L 364.0365 320.812437 
L 364.7805 314.136484 
L 365.5245 328.167124 
L 366.2685 316.48786 
L 367.0125 307.661383 
L 367.7565 313.344892 
L 368.5005 309.773376 
L 369.2445 319.157445 
L 369.9885 315.551417 
L 370.7325 314.455465 
L 371.4765 319.371725 
L 372.2205 315.080422 
L 372.9645 316.065779 
L 373.7085 303.213447 
L 374.4525 307.422248 
L 375.1965 317.470415 
L 375.9405 320.301781 
L 376.6845 310.425665 
L 377.4285 319.521569 
L 378.1725 313.960995 
L 378.9165 320.388484 
L 379.6605 311.926489 
L 380.4045 326.024777 
L 381.1485 309.303239 
L 381.8925 318.043779 
L 382.6365 320.430843 
L 383.3805 320.238214 
L 384.8685 309.576421 
L 385.6125 318.853249 
L 386.3565 312.468571 
L 387.1005 316.672629 
L 387.8445 322.393714 
L 388.5885 320.174426 
L 389.3325 319.217335 
L 390.0765 317.954952 
L 390.8205 325.552122 
L 391.5645 315.101884 
L 393.0525 316.725477 
L 393.7965 315.514767 
L 394.5405 322.657854 
L 395.2845 334.357678 
L 396.0285 319.778733 
L 396.7725 335.248243 
L 397.5165 313.374112 
L 398.2605 324.224451 
L 399.0045 316.372846 
L 399.7485 314.274574 
L 401.2365 328.653518 
L 401.9805 317.311946 
L 402.7245 317.504818 
L 403.4685 315.926641 
L 404.2125 321.992894 
L 404.9565 322.744003 
L 405.7005 319.520113 
L 406.4445 327.055618 
L 407.1885 319.170147 
L 407.9325 323.414948 
L 408.6765 326.709206 
L 409.4205 324.72886 
L 410.1645 321.843997 
L 410.9085 318.204696 
L 411.6525 318.677447 
L 412.3965 325.455609 
L 413.1405 315.585361 
L 413.8845 325.746062 
L 414.6285 328.019514 
L 415.3725 320.020394 
L 416.1165 314.544472 
L 416.8605 325.271499 
L 417.6045 320.722111 
L 418.3485 319.215018 
L 419.0925 326.603753 
L 419.8365 313.475795 
L 420.5805 333.316689 
L 421.3245 321.827643 
L 422.0685 327.509834 
L 422.8125 327.875959 
L 423.5565 333.491091 
L 424.3005 325.909086 
L 425.0445 326.514007 
L 425.7885 323.041878 
L 426.5325 334.772987 
L 427.2765 330.003379 
L 428.0205 319.910456 
L 428.7645 321.148356 
L 429.5085 327.899757 
L 430.2525 327.683121 
L 430.9965 326.563975 
L 431.7405 320.74724 
L 432.4845 325.122561 
L 433.2285 332.552844 
L 433.9725 319.992917 
L 434.7165 320.179496 
L 435.4605 329.327653 
L 436.2045 325.577413 
L 436.9485 328.768906 
L 437.6925 334.570467 
L 438.4365 333.595865 
L 439.1805 327.549771 
L 439.9245 327.351502 
L 440.6685 329.191226 
L 441.4125 327.680072 
L 442.1565 340.091877 
L 442.9005 323.774023 
L 443.6445 330.976594 
L 444.3885 328.850186 
L 445.1325 320.817983 
L 445.8765 330.215398 
L 446.6205 337.801424 
L 447.3645 335.645754 
L 448.1085 332.457745 
L 448.8525 330.362779 
L 449.5965 335.55506 
L 450.3405 339.747672 
L 451.0845 326.616682 
L 451.8285 336.686171 
L 452.5725 325.213321 
L 453.3165 337.565085 
L 454.0605 330.496348 
L 454.8045 329.184964 
L 455.5485 326.791501 
L 456.2925 332.685028 
L 457.0365 329.815016 
L 457.7805 319.220626 
L 458.5245 332.224454 
L 459.2685 337.161049 
L 460.0125 329.942436 
L 460.7565 324.857048 
L 461.5005 332.099663 
L 462.2445 327.192807 
L 462.9885 325.912482 
L 463.7325 330.266153 
L 464.4765 329.132474 
L 465.2205 323.095591 
L 465.9645 329.083963 
L 466.7085 327.744502 
L 467.4525 330.527582 
L 467.4525 330.527582 
" style="fill:none;stroke:#0000ff;stroke-linecap:square;stroke-width:0.5;"/>
   </g>
   <g id="patch_3">
    <path d="M 54.5325 23.14175 
L 500.9325 23.14175 
" style="fill:none;stroke:#000000;stroke-linecap:square;stroke-linejoin:miter;"/>
   </g>
   <g id="patch_4">
    <path d="M 54.5325 368.74175 
L 500.9325 368.74175 
" style="fill:none;stroke:#000000;stroke-linecap:square;stroke-linejoin:miter;"/>
   </g>
   <g id="patch_5">
    <path d="M 500.9325 368.74175 
L 500.9325 23.14175 
" style="fill:none;stroke:#000000;stroke-linecap:square;stroke-linejoin:miter;"/>
   </g>
   <g id="patch_6">
    <path d="M 54.5325 368.74175 
L 54.5325 23.14175 
" style="fill:none;stroke:#000000;stroke-linecap:square;stroke-linejoin:miter;"/>
   </g>
   <g id="matplotlib.axis_1">
    <g id="xtick_1">
     <g id="line2d_2">
      <defs>
       <path d="M 0 0 
L 0 -4 
" id="me12619a32a" style="stroke:#000000;stroke-width:0.5;"/>
      </defs>
      <g>
       <use style="stroke:#000000;stroke-width:0.5;" x="54.5325" xlink:href="#me12619a32a" y="368.74175"/>
      </g>
     </g>
     <g id="line2d_3">
      <defs>
       <path d="M 0 0 
L 0 4 
" id="m6792e0ce2a" style="stroke:#000000;stroke-width:0.5;"/>
      </defs>
      <g>
       <use style="stroke:#000000;stroke-width:0.5;" x="54.5325" xlink:href="#m6792e0ce2a" y="23.14175"/>
      </g>
     </g>
     <g id="text_1">
      <!-- 0 -->
      <defs>
       <path d="M 31.78125 66.40625 
Q 24.171875 66.40625 20.328125 58.90625 
Q 16.5 51.421875 16.5 36.375 
Q 16.5 21.390625 20.328125 13.890625 
Q 24.171875 6.390625 31.78125 6.390625 
Q 39.453125 6.390625 43.28125 13.890625 
Q 47.125 21.390625 47.125 36.375 
Q 47.125 51.421875 43.28125 58.90625 
Q 39.453125 66.40625 31.78125 66.40625 
M 31.78125 74.21875 
Q 44.046875 74.21875 50.515625 64.515625 
Q 56.984375 54.828125 56.984375 36.375 
Q 56.984375 17.96875 50.515625 8.265625 
Q 44.046875 -1.421875 31.78125 -1.421875 
Q 19.53125 -1.421875 13.0625 8.265625 
Q 6.59375 17.96875 6.59375 36.375 
Q 6.59375 54.828125 13.0625 64.515625 
Q 19.53125 74.21875 31.78125 74.21875 
" id="BitstreamVeraSans-Roman-30"/>
      </defs>
      <g transform="translate(50.715 381.859875)scale(0.12 -0.12)">
       <use xlink:href="#BitstreamVeraSans-Roman-30"/>
      </g>
     </g>
    </g>
    <g id="xtick_2">
     <g id="line2d_4">
      <g>
       <use style="stroke:#000000;stroke-width:0.5;" x="128.9325" xlink:href="#me12619a32a" y="368.74175"/>
      </g>
     </g>
     <g id="line2d_5">
      <g>
       <use style="stroke:#000000;stroke-width:0.5;" x="128.9325" xlink:href="#m6792e0ce2a" y="23.14175"/>
      </g>
     </g>
     <g id="text_2">
      <!-- 100 -->
      <defs>
       <path d="M 12.40625 8.296875 
L 28.515625 8.296875 
L 28.515625 63.921875 
L 10.984375 60.40625 
L 10.984375 69.390625 
L 28.421875 72.90625 
L 38.28125 72.90625 
L 38.28125 8.296875 
L 54.390625 8.296875 
L 54.390625 0 
L 12.40625 0 
z
" id="BitstreamVeraSans-Roman-31"/>
      </defs>
      <g transform="translate(117.48 381.859875)scale(0.12 -0.12)">
       <use xlink:href="#BitstreamVeraSans-Roman-31"/>
       <use x="63.623046875" xlink:href="#BitstreamVeraSans-Roman-30"/>
       <use x="127.24609375" xlink:href="#BitstreamVeraSans-Roman-30"/>
      </g>
     </g>
    </g>
    <g id="xtick_3">
     <g id="line2d_6">
      <g>
       <use style="stroke:#000000;stroke-width:0.5;" x="203.3325" xlink:href="#me12619a32a" y="368.74175"/>
      </g>
     </g>
     <g id="line2d_7">
      <g>
       <use style="stroke:#000000;stroke-width:0.5;" x="203.3325" xlink:href="#m6792e0ce2a" y="23.14175"/>
      </g>
     </g>
     <g id="text_3">
      <!-- 200 -->
      <defs>
       <path d="M 19.1875 8.296875 
L 53.609375 8.296875 
L 53.609375 0 
L 7.328125 0 
L 7.328125 8.296875 
Q 12.9375 14.109375 22.625 23.890625 
Q 32.328125 33.6875 34.8125 36.53125 
Q 39.546875 41.84375 41.421875 45.53125 
Q 43.3125 49.21875 43.3125 52.78125 
Q 43.3125 58.59375 39.234375 62.25 
Q 35.15625 65.921875 28.609375 65.921875 
Q 23.96875 65.921875 18.8125 64.3125 
Q 13.671875 62.703125 7.8125 59.421875 
L 7.8125 69.390625 
Q 13.765625 71.78125 18.9375 73 
Q 24.125 74.21875 28.421875 74.21875 
Q 39.75 74.21875 46.484375 68.546875 
Q 53.21875 62.890625 53.21875 53.421875 
Q 53.21875 48.921875 51.53125 44.890625 
Q 49.859375 40.875 45.40625 35.40625 
Q 44.1875 33.984375 37.640625 27.21875 
Q 31.109375 20.453125 19.1875 8.296875 
" id="BitstreamVeraSans-Roman-32"/>
      </defs>
      <g transform="translate(191.88 381.859875)scale(0.12 -0.12)">
       <use xlink:href="#BitstreamVeraSans-Roman-32"/>
       <use x="63.623046875" xlink:href="#BitstreamVeraSans-Roman-30"/>
       <use x="127.24609375" xlink:href="#BitstreamVeraSans-Roman-30"/>
      </g>
     </g>
    </g>
    <g id="xtick_4">
     <g id="line2d_8">
      <g>
       <use style="stroke:#000000;stroke-width:0.5;" x="277.7325" xlink:href="#me12619a32a" y="368.74175"/>
      </g>
     </g>
     <g id="line2d_9">
      <g>
       <use style="stroke:#000000;stroke-width:0.5;" x="277.7325" xlink:href="#m6792e0ce2a" y="23.14175"/>
      </g>
     </g>
     <g id="text_4">
      <!-- 300 -->
      <defs>
       <path d="M 40.578125 39.3125 
Q 47.65625 37.796875 51.625 33 
Q 55.609375 28.21875 55.609375 21.1875 
Q 55.609375 10.40625 48.1875 4.484375 
Q 40.765625 -1.421875 27.09375 -1.421875 
Q 22.515625 -1.421875 17.65625 -0.515625 
Q 12.796875 0.390625 7.625 2.203125 
L 7.625 11.71875 
Q 11.71875 9.328125 16.59375 8.109375 
Q 21.484375 6.890625 26.8125 6.890625 
Q 36.078125 6.890625 40.9375 10.546875 
Q 45.796875 14.203125 45.796875 21.1875 
Q 45.796875 27.640625 41.28125 31.265625 
Q 36.765625 34.90625 28.71875 34.90625 
L 20.21875 34.90625 
L 20.21875 43.015625 
L 29.109375 43.015625 
Q 36.375 43.015625 40.234375 45.921875 
Q 44.09375 48.828125 44.09375 54.296875 
Q 44.09375 59.90625 40.109375 62.90625 
Q 36.140625 65.921875 28.71875 65.921875 
Q 24.65625 65.921875 20.015625 65.03125 
Q 15.375 64.15625 9.8125 62.3125 
L 9.8125 71.09375 
Q 15.4375 72.65625 20.34375 73.4375 
Q 25.25 74.21875 29.59375 74.21875 
Q 40.828125 74.21875 47.359375 69.109375 
Q 53.90625 64.015625 53.90625 55.328125 
Q 53.90625 49.265625 50.4375 45.09375 
Q 46.96875 40.921875 40.578125 39.3125 
" id="BitstreamVeraSans-Roman-33"/>
      </defs>
      <g transform="translate(266.28 381.859875)scale(0.12 -0.12)">
       <use xlink:href="#BitstreamVeraSans-Roman-33"/>
       <use x="63.623046875" xlink:href="#BitstreamVeraSans-Roman-30"/>
       <use x="127.24609375" xlink:href="#BitstreamVeraSans-Roman-30"/>
      </g>
     </g>
    </g>
    <g id="xtick_5">
     <g id="line2d_10">
      <g>
       <use style="stroke:#000000;stroke-width:0.5;" x="352.1325" xlink:href="#me12619a32a" y="368.74175"/>
      </g>
     </g>
     <g id="line2d_11">
      <g>
       <use style="stroke:#000000;stroke-width:0.5;" x="352.1325" xlink:href="#m6792e0ce2a" y="23.14175"/>
      </g>
     </g>
     <g id="text_5">
      <!-- 400 -->
      <defs>
       <path d="M 37.796875 64.3125 
L 12.890625 25.390625 
L 37.796875 25.390625 
z
M 35.203125 72.90625 
L 47.609375 72.90625 
L 47.609375 25.390625 
L 58.015625 25.390625 
L 58.015625 17.1875 
L 47.609375 17.1875 
L 47.609375 0 
L 37.796875 0 
L 37.796875 17.1875 
L 4.890625 17.1875 
L 4.890625 26.703125 
z
" id="BitstreamVeraSans-Roman-34"/>
      </defs>
      <g transform="translate(340.68 381.859875)scale(0.12 -0.12)">
       <use xlink:href="#BitstreamVeraSans-Roman-34"/>
       <use x="63.623046875" xlink:href="#BitstreamVeraSans-Roman-30"/>
       <use x="127.24609375" xlink:href="#BitstreamVeraSans-Roman-30"/>
      </g>
     </g>
    </g>
    <g id="xtick_6">
     <g id="line2d_12">
      <g>
       <use style="stroke:#000000;stroke-width:0.5;" x="426.5325" xlink:href="#me12619a32a" y="368.74175"/>
      </g>
     </g>
     <g id="line2d_13">
      <g>
       <use style="stroke:#000000;stroke-width:0.5;" x="426.5325" xlink:href="#m6792e0ce2a" y="23.14175"/>
      </g>
     </g>
     <g id="text_6">
      <!-- 500 -->
      <defs>
       <path d="M 10.796875 72.90625 
L 49.515625 72.90625 
L 49.515625 64.59375 
L 19.828125 64.59375 
L 19.828125 46.734375 
Q 21.96875 47.46875 24.109375 47.828125 
Q 26.265625 48.1875 28.421875 48.1875 
Q 40.625 48.1875 47.75 41.5 
Q 54.890625 34.8125 54.890625 23.390625 
Q 54.890625 11.625 47.5625 5.09375 
Q 40.234375 -1.421875 26.90625 -1.421875 
Q 22.3125 -1.421875 17.546875 -0.640625 
Q 12.796875 0.140625 7.71875 1.703125 
L 7.71875 11.625 
Q 12.109375 9.234375 16.796875 8.0625 
Q 21.484375 6.890625 26.703125 6.890625 
Q 35.15625 6.890625 40.078125 11.328125 
Q 45.015625 15.765625 45.015625 23.390625 
Q 45.015625 31 40.078125 35.4375 
Q 35.15625 39.890625 26.703125 39.890625 
Q 22.75 39.890625 18.8125 39.015625 
Q 14.890625 38.140625 10.796875 36.28125 
z
" id="BitstreamVeraSans-Roman-35"/>
      </defs>
      <g transform="translate(415.08 381.859875)scale(0.12 -0.12)">
       <use xlink:href="#BitstreamVeraSans-Roman-35"/>
       <use x="63.623046875" xlink:href="#BitstreamVeraSans-Roman-30"/>
       <use x="127.24609375" xlink:href="#BitstreamVeraSans-Roman-30"/>
      </g>
     </g>
    </g>
    <g id="xtick_7">
     <g id="line2d_14">
      <g>
       <use style="stroke:#000000;stroke-width:0.5;" x="500.9325" xlink:href="#me12619a32a" y="368.74175"/>
      </g>
     </g>
     <g id="line2d_15">
      <g>
       <use style="stroke:#000000;stroke-width:0.5;" x="500.9325" xlink:href="#m6792e0ce2a" y="23.14175"/>
      </g>
     </g>
     <g id="text_7">
      <!-- 600 -->
      <defs>
       <path d="M 33.015625 40.375 
Q 26.375 40.375 22.484375 35.828125 
Q 18.609375 31.296875 18.609375 23.390625 
Q 18.609375 15.53125 22.484375 10.953125 
Q 26.375 6.390625 33.015625 6.390625 
Q 39.65625 6.390625 43.53125 10.953125 
Q 47.40625 15.53125 47.40625 23.390625 
Q 47.40625 31.296875 43.53125 35.828125 
Q 39.65625 40.375 33.015625 40.375 
M 52.59375 71.296875 
L 52.59375 62.3125 
Q 48.875 64.0625 45.09375 64.984375 
Q 41.3125 65.921875 37.59375 65.921875 
Q 27.828125 65.921875 22.671875 59.328125 
Q 17.53125 52.734375 16.796875 39.40625 
Q 19.671875 43.65625 24.015625 45.921875 
Q 28.375 48.1875 33.59375 48.1875 
Q 44.578125 48.1875 50.953125 41.515625 
Q 57.328125 34.859375 57.328125 23.390625 
Q 57.328125 12.15625 50.6875 5.359375 
Q 44.046875 -1.421875 33.015625 -1.421875 
Q 20.359375 -1.421875 13.671875 8.265625 
Q 6.984375 17.96875 6.984375 36.375 
Q 6.984375 53.65625 15.1875 63.9375 
Q 23.390625 74.21875 37.203125 74.21875 
Q 40.921875 74.21875 44.703125 73.484375 
Q 48.484375 72.75 52.59375 71.296875 
" id="BitstreamVeraSans-Roman-36"/>
      </defs>
      <g transform="translate(489.48 381.859875)scale(0.12 -0.12)">
       <use xlink:href="#BitstreamVeraSans-Roman-36"/>
       <use x="63.623046875" xlink:href="#BitstreamVeraSans-Roman-30"/>
       <use x="127.24609375" xlink:href="#BitstreamVeraSans-Roman-30"/>
      </g>
     </g>
    </g>
    <g id="text_8">
     <!-- episodes -->
     <defs>
      <path d="M 30.609375 48.390625 
Q 23.390625 48.390625 19.1875 42.75 
Q 14.984375 37.109375 14.984375 27.296875 
Q 14.984375 17.484375 19.15625 11.84375 
Q 23.34375 6.203125 30.609375 6.203125 
Q 37.796875 6.203125 41.984375 11.859375 
Q 46.1875 17.53125 46.1875 27.296875 
Q 46.1875 37.015625 41.984375 42.703125 
Q 37.796875 48.390625 30.609375 48.390625 
M 30.609375 56 
Q 42.328125 56 49.015625 48.375 
Q 55.71875 40.765625 55.71875 27.296875 
Q 55.71875 13.875 49.015625 6.21875 
Q 42.328125 -1.421875 30.609375 -1.421875 
Q 18.84375 -1.421875 12.171875 6.21875 
Q 5.515625 13.875 5.515625 27.296875 
Q 5.515625 40.765625 12.171875 48.375 
Q 18.84375 56 30.609375 56 
" id="BitstreamVeraSans-Roman-6f"/>
      <path d="M 45.40625 46.390625 
L 45.40625 75.984375 
L 54.390625 75.984375 
L 54.390625 0 
L 45.40625 0 
L 45.40625 8.203125 
Q 42.578125 3.328125 38.25 0.953125 
Q 33.9375 -1.421875 27.875 -1.421875 
Q 17.96875 -1.421875 11.734375 6.484375 
Q 5.515625 14.40625 5.515625 27.296875 
Q 5.515625 40.1875 11.734375 48.09375 
Q 17.96875 56 27.875 56 
Q 33.9375 56 38.25 53.625 
Q 42.578125 51.265625 45.40625 46.390625 
M 14.796875 27.296875 
Q 14.796875 17.390625 18.875 11.75 
Q 22.953125 6.109375 30.078125 6.109375 
Q 37.203125 6.109375 41.296875 11.75 
Q 45.40625 17.390625 45.40625 27.296875 
Q 45.40625 37.203125 41.296875 42.84375 
Q 37.203125 48.484375 30.078125 48.484375 
Q 22.953125 48.484375 18.875 42.84375 
Q 14.796875 37.203125 14.796875 27.296875 
" id="BitstreamVeraSans-Roman-64"/>
      <path d="M 18.109375 8.203125 
L 18.109375 -20.796875 
L 9.078125 -20.796875 
L 9.078125 54.6875 
L 18.109375 54.6875 
L 18.109375 46.390625 
Q 20.953125 51.265625 25.265625 53.625 
Q 29.59375 56 35.59375 56 
Q 45.5625 56 51.78125 48.09375 
Q 58.015625 40.1875 58.015625 27.296875 
Q 58.015625 14.40625 51.78125 6.484375 
Q 45.5625 -1.421875 35.59375 -1.421875 
Q 29.59375 -1.421875 25.265625 0.953125 
Q 20.953125 3.328125 18.109375 8.203125 
M 48.6875 27.296875 
Q 48.6875 37.203125 44.609375 42.84375 
Q 40.53125 48.484375 33.40625 48.484375 
Q 26.265625 48.484375 22.1875 42.84375 
Q 18.109375 37.203125 18.109375 27.296875 
Q 18.109375 17.390625 22.1875 11.75 
Q 26.265625 6.109375 33.40625 6.109375 
Q 40.53125 6.109375 44.609375 11.75 
Q 48.6875 17.390625 48.6875 27.296875 
" id="BitstreamVeraSans-Roman-70"/>
      <path d="M 44.28125 53.078125 
L 44.28125 44.578125 
Q 40.484375 46.53125 36.375 47.5 
Q 32.28125 48.484375 27.875 48.484375 
Q 21.1875 48.484375 17.84375 46.4375 
Q 14.5 44.390625 14.5 40.28125 
Q 14.5 37.15625 16.890625 35.375 
Q 19.28125 33.59375 26.515625 31.984375 
L 29.59375 31.296875 
Q 39.15625 29.25 43.1875 25.515625 
Q 47.21875 21.78125 47.21875 15.09375 
Q 47.21875 7.46875 41.1875 3.015625 
Q 35.15625 -1.421875 24.609375 -1.421875 
Q 20.21875 -1.421875 15.453125 -0.5625 
Q 10.6875 0.296875 5.421875 2 
L 5.421875 11.28125 
Q 10.40625 8.6875 15.234375 7.390625 
Q 20.0625 6.109375 24.8125 6.109375 
Q 31.15625 6.109375 34.5625 8.28125 
Q 37.984375 10.453125 37.984375 14.40625 
Q 37.984375 18.0625 35.515625 20.015625 
Q 33.0625 21.96875 24.703125 23.78125 
L 21.578125 24.515625 
Q 13.234375 26.265625 9.515625 29.90625 
Q 5.8125 33.546875 5.8125 39.890625 
Q 5.8125 47.609375 11.28125 51.796875 
Q 16.75 56 26.8125 56 
Q 31.78125 56 36.171875 55.265625 
Q 40.578125 54.546875 44.28125 53.078125 
" id="BitstreamVeraSans-Roman-73"/>
      <path d="M 9.421875 54.6875 
L 18.40625 54.6875 
L 18.40625 0 
L 9.421875 0 
z
M 9.421875 75.984375 
L 18.40625 75.984375 
L 18.40625 64.59375 
L 9.421875 64.59375 
z
" id="BitstreamVeraSans-Roman-69"/>
      <path d="M 56.203125 29.59375 
L 56.203125 25.203125 
L 14.890625 25.203125 
Q 15.484375 15.921875 20.484375 11.0625 
Q 25.484375 6.203125 34.421875 6.203125 
Q 39.59375 6.203125 44.453125 7.46875 
Q 49.3125 8.734375 54.109375 11.28125 
L 54.109375 2.78125 
Q 49.265625 0.734375 44.1875 -0.34375 
Q 39.109375 -1.421875 33.890625 -1.421875 
Q 20.796875 -1.421875 13.15625 6.1875 
Q 5.515625 13.8125 5.515625 26.8125 
Q 5.515625 40.234375 12.765625 48.109375 
Q 20.015625 56 32.328125 56 
Q 43.359375 56 49.78125 48.890625 
Q 56.203125 41.796875 56.203125 29.59375 
M 47.21875 32.234375 
Q 47.125 39.59375 43.09375 43.984375 
Q 39.0625 48.390625 32.421875 48.390625 
Q 24.90625 48.390625 20.390625 44.140625 
Q 15.875 39.890625 15.1875 32.171875 
z
" id="BitstreamVeraSans-Roman-65"/>
     </defs>
     <g transform="translate(251.14125 398.473625)scale(0.12 -0.12)">
      <use xlink:href="#BitstreamVeraSans-Roman-65"/>
      <use x="61.5234375" xlink:href="#BitstreamVeraSans-Roman-70"/>
      <use x="125.0" xlink:href="#BitstreamVeraSans-Roman-69"/>
      <use x="152.783203125" xlink:href="#BitstreamVeraSans-Roman-73"/>
      <use x="204.8828125" xlink:href="#BitstreamVeraSans-Roman-6f"/>
      <use x="266.064453125" xlink:href="#BitstreamVeraSans-Roman-64"/>
      <use x="329.541015625" xlink:href="#BitstreamVeraSans-Roman-65"/>
      <use x="391.064453125" xlink:href="#BitstreamVeraSans-Roman-73"/>
     </g>
    </g>
   </g>
   <g id="matplotlib.axis_2">
    <g id="ytick_1">
     <g id="line2d_16">
      <defs>
       <path d="M 0 0 
L 4 0 
" id="mad98418ba3" style="stroke:#000000;stroke-width:0.5;"/>
      </defs>
      <g>
       <use style="stroke:#000000;stroke-width:0.5;" x="54.5325" xlink:href="#mad98418ba3" y="368.74175"/>
      </g>
     </g>
     <g id="line2d_17">
      <defs>
       <path d="M 0 0 
L -4 0 
" id="mdd62144a30" style="stroke:#000000;stroke-width:0.5;"/>
      </defs>
      <g>
       <use style="stroke:#000000;stroke-width:0.5;" x="500.9325" xlink:href="#mdd62144a30" y="368.74175"/>
      </g>
     </g>
     <g id="text_9">
      <!-- 0.00 -->
      <defs>
       <path d="M 10.6875 12.40625 
L 21 12.40625 
L 21 0 
L 10.6875 0 
z
" id="BitstreamVeraSans-Roman-2e"/>
      </defs>
      <g transform="translate(23.81375 372.053)scale(0.12 -0.12)">
       <use xlink:href="#BitstreamVeraSans-Roman-30"/>
       <use x="63.623046875" xlink:href="#BitstreamVeraSans-Roman-2e"/>
       <use x="95.41015625" xlink:href="#BitstreamVeraSans-Roman-30"/>
       <use x="159.033203125" xlink:href="#BitstreamVeraSans-Roman-30"/>
      </g>
     </g>
    </g>
    <g id="ytick_2">
     <g id="line2d_18">
      <g>
       <use style="stroke:#000000;stroke-width:0.5;" x="54.5325" xlink:href="#mad98418ba3" y="282.34175"/>
      </g>
     </g>
     <g id="line2d_19">
      <g>
       <use style="stroke:#000000;stroke-width:0.5;" x="500.9325" xlink:href="#mdd62144a30" y="282.34175"/>
      </g>
     </g>
     <g id="text_10">
      <!-- 0.05 -->
      <g transform="translate(23.81375 285.653)scale(0.12 -0.12)">
       <use xlink:href="#BitstreamVeraSans-Roman-30"/>
       <use x="63.623046875" xlink:href="#BitstreamVeraSans-Roman-2e"/>
       <use x="95.41015625" xlink:href="#BitstreamVeraSans-Roman-30"/>
       <use x="159.033203125" xlink:href="#BitstreamVeraSans-Roman-35"/>
      </g>
     </g>
    </g>
    <g id="ytick_3">
     <g id="line2d_20">
      <g>
       <use style="stroke:#000000;stroke-width:0.5;" x="54.5325" xlink:href="#mad98418ba3" y="195.94175"/>
      </g>
     </g>
     <g id="line2d_21">
      <g>
       <use style="stroke:#000000;stroke-width:0.5;" x="500.9325" xlink:href="#mdd62144a30" y="195.94175"/>
      </g>
     </g>
     <g id="text_11">
      <!-- 0.10 -->
      <g transform="translate(23.81375 199.253)scale(0.12 -0.12)">
       <use xlink:href="#BitstreamVeraSans-Roman-30"/>
       <use x="63.623046875" xlink:href="#BitstreamVeraSans-Roman-2e"/>
       <use x="95.41015625" xlink:href="#BitstreamVeraSans-Roman-31"/>
       <use x="159.033203125" xlink:href="#BitstreamVeraSans-Roman-30"/>
      </g>
     </g>
    </g>
    <g id="ytick_4">
     <g id="line2d_22">
      <g>
       <use style="stroke:#000000;stroke-width:0.5;" x="54.5325" xlink:href="#mad98418ba3" y="109.54175"/>
      </g>
     </g>
     <g id="line2d_23">
      <g>
       <use style="stroke:#000000;stroke-width:0.5;" x="500.9325" xlink:href="#mdd62144a30" y="109.54175"/>
      </g>
     </g>
     <g id="text_12">
      <!-- 0.15 -->
      <g transform="translate(23.81375 112.853)scale(0.12 -0.12)">
       <use xlink:href="#BitstreamVeraSans-Roman-30"/>
       <use x="63.623046875" xlink:href="#BitstreamVeraSans-Roman-2e"/>
       <use x="95.41015625" xlink:href="#BitstreamVeraSans-Roman-31"/>
       <use x="159.033203125" xlink:href="#BitstreamVeraSans-Roman-35"/>
      </g>
     </g>
    </g>
    <g id="ytick_5">
     <g id="line2d_24">
      <g>
       <use style="stroke:#000000;stroke-width:0.5;" x="54.5325" xlink:href="#mad98418ba3" y="23.14175"/>
      </g>
     </g>
     <g id="line2d_25">
      <g>
       <use style="stroke:#000000;stroke-width:0.5;" x="500.9325" xlink:href="#mdd62144a30" y="23.14175"/>
      </g>
     </g>
     <g id="text_13">
      <!-- 0.20 -->
      <g transform="translate(23.81375 26.453)scale(0.12 -0.12)">
       <use xlink:href="#BitstreamVeraSans-Roman-30"/>
       <use x="63.623046875" xlink:href="#BitstreamVeraSans-Roman-2e"/>
       <use x="95.41015625" xlink:href="#BitstreamVeraSans-Roman-32"/>
       <use x="159.033203125" xlink:href="#BitstreamVeraSans-Roman-30"/>
      </g>
     </g>
    </g>
    <g id="text_14">
     <!-- average maxQ -->
     <defs>
      <path d="M 45.40625 27.984375 
Q 45.40625 37.75 41.375 43.109375 
Q 37.359375 48.484375 30.078125 48.484375 
Q 22.859375 48.484375 18.828125 43.109375 
Q 14.796875 37.75 14.796875 27.984375 
Q 14.796875 18.265625 18.828125 12.890625 
Q 22.859375 7.515625 30.078125 7.515625 
Q 37.359375 7.515625 41.375 12.890625 
Q 45.40625 18.265625 45.40625 27.984375 
M 54.390625 6.78125 
Q 54.390625 -7.171875 48.1875 -13.984375 
Q 42 -20.796875 29.203125 -20.796875 
Q 24.46875 -20.796875 20.265625 -20.09375 
Q 16.0625 -19.390625 12.109375 -17.921875 
L 12.109375 -9.1875 
Q 16.0625 -11.328125 19.921875 -12.34375 
Q 23.78125 -13.375 27.78125 -13.375 
Q 36.625 -13.375 41.015625 -8.765625 
Q 45.40625 -4.15625 45.40625 5.171875 
L 45.40625 9.625 
Q 42.625 4.78125 38.28125 2.390625 
Q 33.9375 0 27.875 0 
Q 17.828125 0 11.671875 7.65625 
Q 5.515625 15.328125 5.515625 27.984375 
Q 5.515625 40.671875 11.671875 48.328125 
Q 17.828125 56 27.875 56 
Q 33.9375 56 38.28125 53.609375 
Q 42.625 51.21875 45.40625 46.390625 
L 45.40625 54.6875 
L 54.390625 54.6875 
z
" id="BitstreamVeraSans-Roman-67"/>
      <path d="M 52 44.1875 
Q 55.375 50.25 60.0625 53.125 
Q 64.75 56 71.09375 56 
Q 79.640625 56 84.28125 50.015625 
Q 88.921875 44.046875 88.921875 33.015625 
L 88.921875 0 
L 79.890625 0 
L 79.890625 32.71875 
Q 79.890625 40.578125 77.09375 44.375 
Q 74.3125 48.1875 68.609375 48.1875 
Q 61.625 48.1875 57.5625 43.546875 
Q 53.515625 38.921875 53.515625 30.90625 
L 53.515625 0 
L 44.484375 0 
L 44.484375 32.71875 
Q 44.484375 40.625 41.703125 44.40625 
Q 38.921875 48.1875 33.109375 48.1875 
Q 26.21875 48.1875 22.15625 43.53125 
Q 18.109375 38.875 18.109375 30.90625 
L 18.109375 0 
L 9.078125 0 
L 9.078125 54.6875 
L 18.109375 54.6875 
L 18.109375 46.1875 
Q 21.1875 51.21875 25.484375 53.609375 
Q 29.78125 56 35.6875 56 
Q 41.65625 56 45.828125 52.96875 
Q 50 49.953125 52 44.1875 
" id="BitstreamVeraSans-Roman-6d"/>
      <path d="M 2.984375 54.6875 
L 12.5 54.6875 
L 29.59375 8.796875 
L 46.6875 54.6875 
L 56.203125 54.6875 
L 35.6875 0 
L 23.484375 0 
z
" id="BitstreamVeraSans-Roman-76"/>
      <path d="M 39.40625 66.21875 
Q 28.65625 66.21875 22.328125 58.203125 
Q 16.015625 50.203125 16.015625 36.375 
Q 16.015625 22.609375 22.328125 14.59375 
Q 28.65625 6.59375 39.40625 6.59375 
Q 50.140625 6.59375 56.421875 14.59375 
Q 62.703125 22.609375 62.703125 36.375 
Q 62.703125 50.203125 56.421875 58.203125 
Q 50.140625 66.21875 39.40625 66.21875 
M 53.21875 1.3125 
L 66.21875 -12.890625 
L 54.296875 -12.890625 
L 43.5 -1.21875 
Q 41.890625 -1.3125 41.03125 -1.359375 
Q 40.1875 -1.421875 39.40625 -1.421875 
Q 24.03125 -1.421875 14.8125 8.859375 
Q 5.609375 19.140625 5.609375 36.375 
Q 5.609375 53.65625 14.8125 63.9375 
Q 24.03125 74.21875 39.40625 74.21875 
Q 54.734375 74.21875 63.90625 63.9375 
Q 73.09375 53.65625 73.09375 36.375 
Q 73.09375 23.6875 67.984375 14.640625 
Q 62.890625 5.609375 53.21875 1.3125 
" id="BitstreamVeraSans-Roman-51"/>
      <path id="BitstreamVeraSans-Roman-20"/>
      <path d="M 41.109375 46.296875 
Q 39.59375 47.171875 37.8125 47.578125 
Q 36.03125 48 33.890625 48 
Q 26.265625 48 22.1875 43.046875 
Q 18.109375 38.09375 18.109375 28.8125 
L 18.109375 0 
L 9.078125 0 
L 9.078125 54.6875 
L 18.109375 54.6875 
L 18.109375 46.1875 
Q 20.953125 51.171875 25.484375 53.578125 
Q 30.03125 56 36.53125 56 
Q 37.453125 56 38.578125 55.875 
Q 39.703125 55.765625 41.0625 55.515625 
z
" id="BitstreamVeraSans-Roman-72"/>
      <path d="M 54.890625 54.6875 
L 35.109375 28.078125 
L 55.90625 0 
L 45.3125 0 
L 29.390625 21.484375 
L 13.484375 0 
L 2.875 0 
L 24.125 28.609375 
L 4.6875 54.6875 
L 15.28125 54.6875 
L 29.78125 35.203125 
L 44.28125 54.6875 
z
" id="BitstreamVeraSans-Roman-78"/>
      <path d="M 34.28125 27.484375 
Q 23.390625 27.484375 19.1875 25 
Q 14.984375 22.515625 14.984375 16.5 
Q 14.984375 11.71875 18.140625 8.90625 
Q 21.296875 6.109375 26.703125 6.109375 
Q 34.1875 6.109375 38.703125 11.40625 
Q 43.21875 16.703125 43.21875 25.484375 
L 43.21875 27.484375 
z
M 52.203125 31.203125 
L 52.203125 0 
L 43.21875 0 
L 43.21875 8.296875 
Q 40.140625 3.328125 35.546875 0.953125 
Q 30.953125 -1.421875 24.3125 -1.421875 
Q 15.921875 -1.421875 10.953125 3.296875 
Q 6 8.015625 6 15.921875 
Q 6 25.140625 12.171875 29.828125 
Q 18.359375 34.515625 30.609375 34.515625 
L 43.21875 34.515625 
L 43.21875 35.40625 
Q 43.21875 41.609375 39.140625 45 
Q 35.0625 48.390625 27.6875 48.390625 
Q 23 48.390625 18.546875 47.265625 
Q 14.109375 46.140625 10.015625 43.890625 
L 10.015625 52.203125 
Q 14.9375 54.109375 19.578125 55.046875 
Q 24.21875 56 28.609375 56 
Q 40.484375 56 46.34375 49.84375 
Q 52.203125 43.703125 52.203125 31.203125 
" id="BitstreamVeraSans-Roman-61"/>
     </defs>
     <g transform="translate(16.318125 240.208625)rotate(-90.0)scale(0.12 -0.12)">
      <use xlink:href="#BitstreamVeraSans-Roman-61"/>
      <use x="61.279296875" xlink:href="#BitstreamVeraSans-Roman-76"/>
      <use x="120.458984375" xlink:href="#BitstreamVeraSans-Roman-65"/>
      <use x="181.982421875" xlink:href="#BitstreamVeraSans-Roman-72"/>
      <use x="223.095703125" xlink:href="#BitstreamVeraSans-Roman-61"/>
      <use x="284.375" xlink:href="#BitstreamVeraSans-Roman-67"/>
      <use x="347.8515625" xlink:href="#BitstreamVeraSans-Roman-65"/>
      <use x="409.375" xlink:href="#BitstreamVeraSans-Roman-20"/>
      <use x="441.162109375" xlink:href="#BitstreamVeraSans-Roman-6d"/>
      <use x="538.57421875" xlink:href="#BitstreamVeraSans-Roman-61"/>
      <use x="599.853515625" xlink:href="#BitstreamVeraSans-Roman-78"/>
      <use x="659.033203125" xlink:href="#BitstreamVeraSans-Roman-51"/>
     </g>
    </g>
   </g>
   <g id="text_15">
    <!-- Average maxQ per episode, joint3 -->
    <defs>
     <path d="M 9.421875 54.6875 
L 18.40625 54.6875 
L 18.40625 -0.984375 
Q 18.40625 -11.421875 14.421875 -16.109375 
Q 10.453125 -20.796875 1.609375 -20.796875 
L -1.8125 -20.796875 
L -1.8125 -13.1875 
L 0.59375 -13.1875 
Q 5.71875 -13.1875 7.5625 -10.8125 
Q 9.421875 -8.453125 9.421875 -0.984375 
z
M 9.421875 75.984375 
L 18.40625 75.984375 
L 18.40625 64.59375 
L 9.421875 64.59375 
z
" id="BitstreamVeraSans-Roman-6a"/>
     <path d="M 34.1875 63.1875 
L 20.796875 26.90625 
L 47.609375 26.90625 
z
M 28.609375 72.90625 
L 39.796875 72.90625 
L 67.578125 0 
L 57.328125 0 
L 50.6875 18.703125 
L 17.828125 18.703125 
L 11.1875 0 
L 0.78125 0 
z
" id="BitstreamVeraSans-Roman-41"/>
     <path d="M 11.71875 12.40625 
L 22.015625 12.40625 
L 22.015625 4 
L 14.015625 -11.625 
L 7.71875 -11.625 
L 11.71875 4 
z
" id="BitstreamVeraSans-Roman-2c"/>
     <path d="M 18.3125 70.21875 
L 18.3125 54.6875 
L 36.8125 54.6875 
L 36.8125 47.703125 
L 18.3125 47.703125 
L 18.3125 18.015625 
Q 18.3125 11.328125 20.140625 9.421875 
Q 21.96875 7.515625 27.59375 7.515625 
L 36.8125 7.515625 
L 36.8125 0 
L 27.59375 0 
Q 17.1875 0 13.234375 3.875 
Q 9.28125 7.765625 9.28125 18.015625 
L 9.28125 47.703125 
L 2.6875 47.703125 
L 2.6875 54.6875 
L 9.28125 54.6875 
L 9.28125 70.21875 
z
" id="BitstreamVeraSans-Roman-74"/>
     <path d="M 54.890625 33.015625 
L 54.890625 0 
L 45.90625 0 
L 45.90625 32.71875 
Q 45.90625 40.484375 42.875 44.328125 
Q 39.84375 48.1875 33.796875 48.1875 
Q 26.515625 48.1875 22.3125 43.546875 
Q 18.109375 38.921875 18.109375 30.90625 
L 18.109375 0 
L 9.078125 0 
L 9.078125 54.6875 
L 18.109375 54.6875 
L 18.109375 46.1875 
Q 21.34375 51.125 25.703125 53.5625 
Q 30.078125 56 35.796875 56 
Q 45.21875 56 50.046875 50.171875 
Q 54.890625 44.34375 54.890625 33.015625 
" id="BitstreamVeraSans-Roman-6e"/>
    </defs>
    <g transform="translate(154.4595 18.14175)scale(0.144 -0.144)">
     <use xlink:href="#BitstreamVeraSans-Roman-41"/>
     <use x="68.330078125" xlink:href="#BitstreamVeraSans-Roman-76"/>
     <use x="127.509765625" xlink:href="#BitstreamVeraSans-Roman-65"/>
     <use x="189.033203125" xlink:href="#BitstreamVeraSans-Roman-72"/>
     <use x="230.146484375" xlink:href="#BitstreamVeraSans-Roman-61"/>
     <use x="291.42578125" xlink:href="#BitstreamVeraSans-Roman-67"/>
     <use x="354.90234375" xlink:href="#BitstreamVeraSans-Roman-65"/>
     <use x="416.42578125" xlink:href="#BitstreamVeraSans-Roman-20"/>
     <use x="448.212890625" xlink:href="#BitstreamVeraSans-Roman-6d"/>
     <use x="545.625" xlink:href="#BitstreamVeraSans-Roman-61"/>
     <use x="606.904296875" xlink:href="#BitstreamVeraSans-Roman-78"/>
     <use x="666.083984375" xlink:href="#BitstreamVeraSans-Roman-51"/>
     <use x="744.794921875" xlink:href="#BitstreamVeraSans-Roman-20"/>
     <use x="776.58203125" xlink:href="#BitstreamVeraSans-Roman-70"/>
     <use x="840.05859375" xlink:href="#BitstreamVeraSans-Roman-65"/>
     <use x="901.58203125" xlink:href="#BitstreamVeraSans-Roman-72"/>
     <use x="942.6953125" xlink:href="#BitstreamVeraSans-Roman-20"/>
     <use x="974.482421875" xlink:href="#BitstreamVeraSans-Roman-65"/>
     <use x="1036.005859375" xlink:href="#BitstreamVeraSans-Roman-70"/>
     <use x="1099.482421875" xlink:href="#BitstreamVeraSans-Roman-69"/>
     <use x="1127.265625" xlink:href="#BitstreamVeraSans-Roman-73"/>
     <use x="1179.365234375" xlink:href="#BitstreamVeraSans-Roman-6f"/>
     <use x="1240.546875" xlink:href="#BitstreamVeraSans-Roman-64"/>
     <use x="1304.0234375" xlink:href="#BitstreamVeraSans-Roman-65"/>
     <use x="1365.546875" xlink:href="#BitstreamVeraSans-Roman-2c"/>
     <use x="1397.333984375" xlink:href="#BitstreamVeraSans-Roman-20"/>
     <use x="1429.12109375" xlink:href="#BitstreamVeraSans-Roman-6a"/>
     <use x="1456.904296875" xlink:href="#BitstreamVeraSans-Roman-6f"/>
     <use x="1518.0859375" xlink:href="#BitstreamVeraSans-Roman-69"/>
     <use x="1545.869140625" xlink:href="#BitstreamVeraSans-Roman-6e"/>
     <use x="1609.248046875" xlink:href="#BitstreamVeraSans-Roman-74"/>
     <use x="1648.45703125" xlink:href="#BitstreamVeraSans-Roman-33"/>
    </g>
   </g>
  </g>
 </g>
 <defs>
  <clipPath id="p8fed498fe1">
   <rect height="345.6" width="446.4" x="54.5325" y="23.14175"/>
  </clipPath>
 </defs>
</svg>
