<?xml version="1.0" encoding="utf-8" standalone="no"?>
<!DOCTYPE svg PUBLIC "-//W3C//DTD SVG 1.1//EN"
  "http://www.w3.org/Graphics/SVG/1.1/DTD/svg11.dtd">
<!-- Created with matplotlib (http://matplotlib.org/) -->
<svg height="408pt" version="1.1" viewBox="0 0 523 408" width="523pt" xmlns="http://www.w3.org/2000/svg" xmlns:xlink="http://www.w3.org/1999/xlink">
 <defs>
  <style type="text/css">
*{stroke-linecap:butt;stroke-linejoin:round;stroke-miterlimit:100000;}
  </style>
 </defs>
 <g id="figure_1">
  <g id="patch_1">
   <path d="M 0 408.16925 
L 523.4025 408.16925 
L 523.4025 0 
L 0 0 
z
" style="fill:#ffffff;"/>
  </g>
  <g id="axes_1">
   <g id="patch_2">
    <path d="M 54.5325 368.74175 
L 500.9325 368.74175 
L 500.9325 23.14175 
L 54.5325 23.14175 
z
" style="fill:#ffffff;"/>
   </g>
   <g id="line2d_1">
    <path clip-path="url(#p7111dcb99e)" d="M 54.7805 57.454906 
L 55.0285 55.381959 
L 55.2765 58.671021 
L 55.5245 57.804258 
L 55.7725 59.097461 
L 56.0205 58.368661 
L 56.2685 58.6531 
L 56.5165 57.055304 
L 57.0125 58.252101 
L 57.5085 56.408387 
L 57.7565 57.187906 
L 58.0045 58.420713 
L 58.2525 57.735102 
L 58.5005 58.748353 
L 58.7485 58.774553 
L 58.9965 58.34185 
L 59.2445 56.725624 
L 59.4925 56.980444 
L 59.7405 55.41627 
L 59.9885 56.90919 
L 60.2365 57.123803 
L 60.7325 58.056974 
L 60.9805 56.124251 
L 61.2285 57.19733 
L 61.4765 56.314312 
L 61.7245 57.537426 
L 61.9725 57.119593 
L 62.2205 55.606132 
L 62.4685 56.689981 
L 62.7165 56.243966 
L 62.9645 56.977618 
L 63.2125 57.121067 
L 63.4605 59.279443 
L 63.7085 58.375633 
L 63.9565 55.667447 
L 64.2045 56.511223 
L 64.4525 56.713657 
L 64.7005 58.118868 
L 64.9485 56.032101 
L 65.1965 58.157344 
L 65.4445 57.088289 
L 65.6925 57.025673 
L 65.9405 57.781425 
L 66.1885 55.360259 
L 66.4365 57.376718 
L 66.6845 56.651679 
L 66.9325 57.901255 
L 67.1805 64.388897 
L 67.4285 62.789916 
L 67.6765 66.198075 
L 67.9245 66.49459 
L 68.1725 64.616597 
L 68.4205 65.353179 
L 68.6685 61.972089 
L 68.9165 62.20474 
L 69.1645 65.036399 
L 69.4125 63.084268 
L 69.6605 65.290949 
L 69.9085 63.640638 
L 70.1565 66.611916 
L 70.4045 62.598361 
L 70.9005 67.053174 
L 71.1485 62.116574 
L 71.6445 65.229499 
L 71.8925 65.714344 
L 72.1405 64.390088 
L 72.3885 66.197328 
L 72.8845 64.883977 
L 73.1325 63.226481 
L 73.3805 66.790403 
L 73.8765 61.776112 
L 74.1245 64.272259 
L 74.3725 63.65899 
L 74.6205 63.359752 
L 74.8685 66.152647 
L 75.1165 65.595202 
L 75.3645 64.34034 
L 75.6125 57.799649 
L 75.8605 45.318416 
L 76.1085 39.604796 
L 76.3565 58.085787 
L 76.6045 59.105082 
L 76.8525 83.817645 
L 77.3485 145.985905 
L 77.5965 129.900707 
L 77.8445 99.350548 
L 78.0925 99.947872 
L 78.3405 103.978685 
L 78.8365 142.857518 
L 79.0845 149.828488 
L 79.3325 150.08084 
L 79.5805 161.820508 
L 79.8285 142.995154 
L 80.3245 178.583084 
L 80.5725 179.411533 
L 80.8205 154.758933 
L 81.0685 151.817257 
L 81.3165 162.431646 
L 81.5645 181.087832 
L 81.8125 183.341917 
L 82.0605 175.486359 
L 82.3085 151.662414 
L 82.5565 176.987064 
L 82.8045 188.623987 
L 83.0525 175.542199 
L 83.3005 138.413913 
L 83.5485 181.257979 
L 83.7965 169.235375 
L 84.0445 133.959033 
L 84.2925 181.271185 
L 84.5405 205.945391 
L 84.7885 151.914415 
L 85.0365 194.831368 
L 85.2845 155.182781 
L 85.5325 162.203502 
L 85.7805 172.56693 
L 86.0285 188.430791 
L 86.2765 194.445812 
L 86.7725 161.412605 
L 87.0205 156.230957 
L 87.7645 189.863026 
L 88.0125 187.1108 
L 88.2605 189.775759 
L 88.5085 191.006571 
L 88.7565 186.093893 
L 89.0045 187.123462 
L 89.2525 204.955344 
L 89.5005 180.256351 
L 89.7485 194.325582 
L 89.9965 178.588305 
L 90.2445 202.258427 
L 90.4925 211.337533 
L 90.7405 190.571432 
L 90.9885 185.551428 
L 91.2365 170.507412 
L 91.4845 208.069733 
L 91.7325 199.67731 
L 91.9805 180.730397 
L 92.7245 199.294674 
L 92.9725 203.193368 
L 93.2205 211.85215 
L 93.4685 196.77458 
L 93.9645 202.678905 
L 94.4605 186.243531 
L 94.7085 196.556526 
L 94.9565 197.01696 
L 95.2045 216.709931 
L 95.4525 197.914069 
L 95.7005 222.925197 
L 95.9485 190.41122 
L 96.1965 210.284509 
L 96.4445 201.098567 
L 96.6925 210.683191 
L 96.9405 208.942486 
L 97.1885 211.42827 
L 97.4365 218.629975 
L 97.6845 212.766121 
L 97.9325 219.649991 
L 98.1805 214.589522 
L 98.4285 218.966575 
L 98.6765 206.612602 
L 98.9245 208.031348 
L 99.1725 193.723572 
L 99.4205 209.31586 
L 99.6685 203.536537 
L 99.9165 225.453624 
L 100.1645 215.943264 
L 100.4125 210.988293 
L 100.6605 199.799954 
L 100.9085 225.861006 
L 101.1565 206.009597 
L 101.6525 232.38313 
L 101.9005 212.513563 
L 102.3965 231.189033 
L 102.8925 209.248062 
L 103.1405 223.642966 
L 103.3885 215.14436 
L 103.6365 217.115252 
L 103.8845 223.196558 
L 104.1325 221.661156 
L 104.3805 233.834215 
L 104.6285 212.337107 
L 104.8765 221.840084 
L 105.1245 216.854381 
L 105.3725 240.198928 
L 105.6205 229.242031 
L 105.8685 242.104795 
L 106.1165 213.861209 
L 106.3645 240.849555 
L 106.8605 221.216824 
L 107.1085 202.929036 
L 107.3565 241.551069 
L 107.6045 221.866721 
L 107.8525 232.95164 
L 108.3485 210.52809 
L 108.5965 205.864671 
L 109.0925 215.600868 
L 109.3405 247.856472 
L 109.8365 220.937558 
L 110.0845 229.794319 
L 110.3325 232.668233 
L 110.5805 218.701336 
L 110.8285 229.096326 
L 111.0765 225.253289 
L 111.3245 247.55703 
L 111.5725 229.275758 
L 111.8205 241.999963 
L 112.0685 230.633653 
L 112.3165 230.527393 
L 112.5645 213.113108 
L 112.8125 226.393483 
L 113.0605 250.657218 
L 113.3085 222.11654 
L 113.5565 236.03462 
L 113.8045 227.52555 
L 114.0525 228.89881 
L 114.3005 220.209264 
L 114.7965 257.106691 
L 115.0445 216.367325 
L 115.2925 232.184116 
L 115.5405 222.627018 
L 115.7885 247.841628 
L 116.0365 237.403244 
L 116.2845 240.282151 
L 116.5325 251.620205 
L 116.7805 221.658104 
L 117.2765 242.520318 
L 117.5245 251.441413 
L 117.7725 270.559066 
L 118.0205 239.008007 
L 118.2685 240.60281 
L 118.5165 219.581 
L 118.7645 246.849131 
L 119.0125 239.216987 
L 119.2605 236.827073 
L 119.5085 229.74894 
L 119.7565 230.309332 
L 120.0045 238.614581 
L 120.2525 240.95755 
L 120.5005 244.637229 
L 120.7485 258.311178 
L 120.9965 236.19686 
L 121.2445 266.300659 
L 121.4925 230.900039 
L 121.7405 244.671261 
L 122.2365 252.649832 
L 122.4845 250.27528 
L 122.7325 242.050829 
L 122.9805 240.158494 
L 123.2285 252.836353 
L 123.4765 231.274334 
L 123.7245 250.093956 
L 123.9725 226.359443 
L 124.2205 242.369955 
L 124.4685 249.4674 
L 124.7165 261.093816 
L 124.9645 249.405976 
L 125.2125 251.017103 
L 125.4605 250.945405 
L 125.7085 237.955297 
L 125.9565 249.083658 
L 126.2045 242.140608 
L 126.4525 246.161796 
L 126.7005 246.632854 
L 126.9485 236.812182 
L 127.1965 251.598461 
L 127.4445 247.103102 
L 127.6925 259.482326 
L 127.9405 230.709235 
L 128.4365 274.630872 
L 128.6845 259.892284 
L 128.9325 260.611087 
L 129.1805 250.026208 
L 129.4285 255.424064 
L 129.6765 283.254494 
L 130.4205 236.92795 
L 130.6685 251.688398 
L 130.9165 245.087082 
L 131.1645 254.870862 
L 131.4125 238.431931 
L 131.6605 265.291596 
L 131.9085 253.738751 
L 132.1565 259.228366 
L 132.4045 252.864559 
L 132.6525 243.414839 
L 132.9005 246.959799 
L 133.1485 272.716653 
L 133.3965 269.422471 
L 133.6445 261.144004 
L 133.8925 261.837725 
L 134.1405 257.614169 
L 134.3885 267.302704 
L 134.6365 254.249976 
L 134.8845 264.27489 
L 135.1325 255.435143 
L 135.3805 252.951488 
L 135.6285 247.249494 
L 135.8765 252.709311 
L 136.1245 262.381777 
L 136.6205 241.0622 
L 136.8685 261.731652 
L 137.3645 251.256307 
L 137.6125 279.322144 
L 137.8605 264.345921 
L 138.1085 262.601131 
L 138.3565 264.682497 
L 138.6045 291.650882 
L 138.8525 263.689841 
L 139.1005 273.812256 
L 139.3485 290.694164 
L 139.5965 263.53327 
L 139.8445 279.602823 
L 140.0925 263.734973 
L 140.3405 265.838628 
L 140.5885 262.206616 
L 140.8365 266.578561 
L 141.0845 304.852638 
L 141.3325 263.563021 
L 141.5805 259.452231 
L 141.8285 280.936727 
L 142.0765 266.62921 
L 142.3245 282.833449 
L 142.5725 264.473721 
L 142.8205 256.706836 
L 143.0685 258.674985 
L 143.3165 270.646861 
L 143.5645 264.170263 
L 143.8125 264.858083 
L 144.0605 259.900327 
L 144.3085 266.841629 
L 144.5565 281.506612 
L 145.0525 267.079322 
L 145.3005 304.856028 
L 145.5485 259.715525 
L 145.7965 261.553571 
L 146.0445 307.412245 
L 146.2925 266.771567 
L 146.5405 263.510532 
L 146.7885 272.951145 
L 147.0365 264.977094 
L 147.2845 263.702603 
L 147.5325 271.084244 
L 147.7805 270.513107 
L 148.0285 270.526431 
L 148.5245 263.917915 
L 148.7725 274.314807 
L 149.0205 271.742904 
L 149.2685 270.605656 
L 149.5165 259.015959 
L 149.7645 271.136502 
L 150.0125 277.053689 
L 150.5085 271.823766 
L 150.7565 261.388911 
L 151.5005 279.301601 
L 151.7485 273.454812 
L 151.9965 280.85404 
L 152.2445 278.177194 
L 152.4925 268.799961 
L 152.7405 278.145841 
L 152.9885 272.76922 
L 153.2365 273.147331 
L 153.4845 277.501522 
L 153.7325 301.014639 
L 153.9805 286.381593 
L 154.2285 284.74863 
L 154.4765 270.596164 
L 154.7245 271.070732 
L 154.9725 272.742219 
L 155.4685 288.742248 
L 156.2125 267.035284 
L 156.4605 275.949476 
L 156.7085 274.256881 
L 156.9565 283.609826 
L 157.2045 282.064768 
L 157.4525 267.873187 
L 157.7005 277.54358 
L 157.9485 274.89448 
L 158.1965 285.443183 
L 158.4445 280.838761 
L 158.6925 289.398908 
L 158.9405 282.183845 
L 159.1885 283.627757 
L 159.4365 310.797705 
L 159.6845 287.507909 
L 159.9325 280.781598 
L 160.1805 286.761462 
L 160.4285 282.025017 
L 160.6765 285.90092 
L 160.9245 272.774927 
L 161.1725 279.561472 
L 161.4205 291.962161 
L 161.6685 281.372339 
L 161.9165 288.147796 
L 162.1645 290.316336 
L 162.4125 284.17075 
L 162.6605 283.694338 
L 162.9085 283.469728 
L 163.1565 282.48176 
L 163.4045 286.859724 
L 163.6525 279.123867 
L 163.9005 288.375554 
L 164.1485 284.202409 
L 164.3965 294.733966 
L 164.6445 282.671094 
L 164.8925 286.10644 
L 165.1405 310.668345 
L 165.3885 293.964197 
L 165.6365 286.874037 
L 165.8845 272.850324 
L 166.1325 281.967349 
L 166.3805 278.584714 
L 166.6285 299.114013 
L 166.8765 293.22974 
L 167.1245 295.718114 
L 167.3725 282.463639 
L 167.6205 284.704734 
L 167.8685 274.822321 
L 168.1165 301.328309 
L 168.6125 276.661808 
L 169.1085 291.218945 
L 169.3565 282.492285 
L 169.6045 295.16066 
L 170.3485 277.744022 
L 170.5965 299.676565 
L 171.0925 292.660795 
L 171.3405 311.434873 
L 171.5885 291.609442 
L 171.8365 311.491148 
L 172.0845 286.354708 
L 172.3325 285.275176 
L 172.5805 296.890234 
L 172.8285 300.339456 
L 173.0765 306.24662 
L 173.3245 294.608426 
L 173.8205 288.032758 
L 174.0685 287.689827 
L 174.3165 300.257889 
L 174.5645 279.269415 
L 175.0605 299.894964 
L 175.3085 293.297875 
L 175.5565 302.561928 
L 175.8045 292.169651 
L 176.0525 292.050503 
L 176.3005 295.422104 
L 176.5485 310.631861 
L 176.7965 276.637118 
L 177.0445 297.564316 
L 177.5405 282.178866 
L 177.7885 305.642882 
L 178.0365 283.529321 
L 178.2845 290.563789 
L 178.5325 282.643719 
L 178.7805 285.966629 
L 179.0285 294.458353 
L 179.2765 297.015964 
L 179.5245 290.631387 
L 179.7725 310.057934 
L 180.0205 285.666251 
L 180.2685 298.163561 
L 180.7645 294.149997 
L 181.0125 293.329473 
L 181.2605 327.956236 
L 181.5085 295.657133 
L 181.7565 292.259007 
L 182.0045 298.108477 
L 182.2525 296.436266 
L 182.5005 302.591456 
L 182.7485 302.083405 
L 182.9965 289.373474 
L 183.2445 291.638957 
L 183.4925 296.98895 
L 183.7405 287.657911 
L 183.9885 297.49496 
L 184.2365 315.077906 
L 184.4845 309.45509 
L 184.7325 293.418758 
L 185.2285 288.272666 
L 185.4765 325.541942 
L 185.7245 320.358048 
L 185.9725 296.515078 
L 186.2205 302.450659 
L 186.4685 295.076421 
L 186.7165 317.770636 
L 186.9645 312.341364 
L 187.2125 311.250695 
L 187.4605 307.125479 
L 187.7085 309.771654 
L 187.9565 293.683212 
L 188.2045 309.125143 
L 188.4525 296.825549 
L 188.7005 299.147841 
L 188.9485 292.743051 
L 189.1965 298.038378 
L 189.4445 319.670245 
L 189.6925 318.98107 
L 189.9405 293.239328 
L 190.4365 306.103715 
L 190.6845 308.818731 
L 190.9325 302.720488 
L 191.1805 307.423159 
L 191.6765 299.195654 
L 191.9245 316.651218 
L 192.1725 294.584363 
L 192.4205 309.767068 
L 192.6685 296.015504 
L 192.9165 298.957213 
L 193.1645 298.074025 
L 193.4125 295.777987 
L 193.6605 314.080224 
L 193.9085 315.845577 
L 194.4045 303.698112 
L 194.6525 315.221084 
L 194.9005 296.619446 
L 195.1485 311.804702 
L 195.3965 305.4866 
L 195.6445 310.435781 
L 195.8925 300.011318 
L 196.1405 308.532718 
L 196.3885 292.249187 
L 196.6365 305.246885 
L 196.8845 292.421652 
L 197.1325 292.982724 
L 197.3805 304.639345 
L 197.6285 306.567278 
L 197.8765 315.414799 
L 198.3725 300.288614 
L 198.6205 297.613909 
L 198.8685 305.751112 
L 199.1165 297.515972 
L 199.3645 307.259755 
L 199.6125 305.584312 
L 199.8605 301.977962 
L 200.1085 320.921421 
L 200.3565 300.442852 
L 200.6045 320.961989 
L 200.8525 321.947733 
L 201.1005 306.139886 
L 201.3485 322.538024 
L 201.5965 316.366287 
L 201.8445 315.55463 
L 202.3405 319.156139 
L 202.5885 309.616985 
L 202.8365 324.517533 
L 203.3325 289.642972 
L 203.5805 318.492981 
L 203.8285 299.505748 
L 204.0765 309.935084 
L 204.3245 330.743524 
L 204.5725 301.872074 
L 204.8205 296.83047 
L 205.3165 319.582424 
L 205.5645 318.113451 
L 205.8125 298.07985 
L 206.0605 299.888262 
L 206.3085 291.114326 
L 206.5565 306.242722 
L 206.8045 312.835092 
L 207.0525 324.316226 
L 207.3005 303.75926 
L 207.5485 304.757933 
L 207.7965 300.997728 
L 208.0445 333.223912 
L 208.5405 304.984079 
L 208.7885 310.178971 
L 209.0365 325.930823 
L 209.2845 295.783201 
L 209.5325 299.440834 
L 209.7805 309.44669 
L 210.0285 301.154924 
L 210.2765 301.044527 
L 210.5245 348.076531 
L 210.7725 313.15501 
L 211.0205 299.590569 
L 211.2685 317.641117 
L 211.5165 305.603707 
L 211.7645 301.01396 
L 212.0125 333.98672 
L 212.2605 335.501964 
L 212.5085 328.895851 
L 212.7565 305.973083 
L 213.0045 312.927248 
L 213.5005 299.336972 
L 213.7485 339.967491 
L 213.9965 318.545004 
L 214.2445 324.83326 
L 214.4925 295.660423 
L 214.7405 319.879174 
L 215.2365 293.631916 
L 215.4845 324.911515 
L 215.7325 308.824273 
L 215.9805 309.050042 
L 216.2285 324.81623 
L 216.7245 304.453413 
L 216.9725 314.479723 
L 217.2205 308.828207 
L 217.4685 320.883309 
L 217.7165 302.580026 
L 218.2125 322.318985 
L 218.4605 347.451814 
L 218.7085 310.938953 
L 218.9565 315.247693 
L 219.2045 322.637905 
L 219.4525 309.592469 
L 219.7005 326.040553 
L 219.9485 317.807302 
L 220.1965 314.817005 
L 220.6925 301.012952 
L 220.9405 312.813836 
L 221.1885 305.5532 
L 221.4365 337.754344 
L 221.6845 317.884911 
L 221.9325 308.596216 
L 222.1805 317.272614 
L 222.4285 321.036401 
L 222.6765 332.85978 
L 222.9245 311.553445 
L 223.1725 316.476088 
L 223.4205 305.191852 
L 223.6685 315.907056 
L 224.1645 301.400758 
L 224.4125 305.895131 
L 224.6605 316.517908 
L 224.9085 310.495168 
L 225.1565 330.834286 
L 225.6525 306.5109 
L 225.9005 316.035065 
L 226.1485 302.252574 
L 226.3965 317.114134 
L 226.6445 315.377376 
L 226.8925 306.706961 
L 227.1405 307.833444 
L 227.6365 329.703014 
L 227.8845 309.883863 
L 228.1325 319.323432 
L 228.3805 310.884323 
L 228.6285 317.330543 
L 228.8765 308.983651 
L 229.1245 313.131031 
L 229.3725 302.016206 
L 229.8685 320.192529 
L 230.1165 311.869597 
L 230.3645 321.07171 
L 230.6125 323.937213 
L 230.8605 312.872168 
L 231.1085 323.498984 
L 231.3565 306.473107 
L 231.6045 328.79276 
L 231.8525 326.834456 
L 232.1005 313.541853 
L 232.3485 318.887327 
L 232.5965 304.274636 
L 232.8445 333.917557 
L 233.0925 313.101307 
L 233.5885 318.117065 
L 233.8365 326.28041 
L 234.0845 312.959332 
L 234.3325 320.647263 
L 234.5805 309.811298 
L 234.8285 312.376692 
L 235.0765 316.336476 
L 235.3245 307.510649 
L 235.5725 308.456523 
L 235.8205 320.503174 
L 236.0685 318.8312 
L 236.3165 308.07427 
L 236.8125 329.276279 
L 237.0605 311.525619 
L 237.5565 329.457711 
L 237.8045 341.170279 
L 238.0525 310.627841 
L 238.3005 322.500372 
L 238.5485 318.594755 
L 238.7965 332.813274 
L 239.0445 311.489999 
L 239.2925 322.743001 
L 239.5405 327.40904 
L 239.7885 316.637577 
L 240.5325 311.012801 
L 240.7805 324.649044 
L 241.0285 308.247324 
L 241.2765 317.561494 
L 241.5245 320.733555 
L 241.7725 298.212079 
L 242.2685 321.425285 
L 242.5165 312.415554 
L 242.7645 324.932877 
L 243.0125 306.80635 
L 243.2605 317.876194 
L 243.5085 302.881971 
L 243.7565 329.85899 
L 244.0045 323.749547 
L 244.2525 314.310029 
L 244.5005 311.866542 
L 244.7485 324.609673 
L 244.9965 307.105295 
L 245.2445 322.405374 
L 245.4925 324.300612 
L 245.7405 316.346856 
L 245.9885 317.841382 
L 246.2365 330.924309 
L 246.7325 310.300759 
L 246.9805 327.05317 
L 247.2285 325.62584 
L 247.4765 314.088435 
L 247.7245 309.894932 
L 247.9725 319.099118 
L 248.4685 312.384072 
L 248.9645 335.087344 
L 249.2125 307.284133 
L 249.4605 324.623967 
L 249.7085 307.003901 
L 249.9565 315.405642 
L 250.2045 317.895905 
L 250.4525 327.884975 
L 250.7005 327.181269 
L 250.9485 321.868609 
L 251.4445 331.801169 
L 251.6925 313.501086 
L 251.9405 308.881089 
L 252.1885 323.443231 
L 252.4365 324.23313 
L 252.6845 316.608555 
L 252.9325 320.215574 
L 253.1805 327.725787 
L 253.4285 317.456151 
L 253.6765 315.776115 
L 253.9245 330.167282 
L 254.1725 323.674668 
L 254.4205 321.58707 
L 254.9165 312.876239 
L 255.1645 319.29748 
L 255.4125 312.950951 
L 255.6605 327.116455 
L 255.9085 310.395162 
L 256.1565 321.138567 
L 256.4045 325.242321 
L 256.6525 312.423591 
L 256.9005 317.560995 
L 257.1485 317.981721 
L 257.3965 315.159061 
L 257.6445 332.119178 
L 257.8925 309.004412 
L 258.1405 308.535313 
L 258.3885 324.339313 
L 258.6365 329.145161 
L 258.8845 313.399202 
L 259.1325 349.493037 
L 259.3805 325.466011 
L 259.6285 315.822525 
L 259.8765 319.325978 
L 260.1245 313.418637 
L 260.3725 318.19281 
L 260.6205 306.795474 
L 260.8685 324.968347 
L 261.1165 309.452692 
L 261.3645 314.123186 
L 261.6125 343.272589 
L 261.8605 312.379994 
L 262.1085 329.164354 
L 262.3565 323.314028 
L 262.6045 314.485166 
L 262.8525 319.041552 
L 263.1005 327.993763 
L 263.3485 306.68014 
L 263.5965 332.687853 
L 263.8445 318.83402 
L 264.3405 325.191637 
L 264.5885 323.684195 
L 264.8365 312.583732 
L 265.0845 322.242281 
L 265.3325 326.278547 
L 265.5805 310.727059 
L 265.8285 311.456164 
L 266.0765 317.479415 
L 266.3245 313.179874 
L 266.5725 321.216027 
L 266.8205 333.246102 
L 267.0685 318.521585 
L 267.3165 324.952978 
L 267.5645 319.101538 
L 267.8125 323.644326 
L 268.0605 314.296768 
L 268.3085 317.171641 
L 268.5565 316.763986 
L 268.8045 312.867864 
L 269.0525 325.383224 
L 269.3005 323.022508 
L 269.5485 310.47689 
L 269.7965 337.644543 
L 270.0445 315.798929 
L 270.2925 316.207987 
L 270.5405 312.484472 
L 270.7885 310.869723 
L 271.0365 318.775894 
L 271.5325 314.46558 
L 271.7805 327.701499 
L 272.0285 318.861507 
L 272.5245 316.557359 
L 272.7725 313.888463 
L 273.2685 333.786549 
L 273.5165 312.09786 
L 273.7645 320.064661 
L 274.0125 312.081876 
L 274.2605 320.116868 
L 274.5085 320.800651 
L 275.0045 318.357351 
L 275.5005 324.640823 
L 275.9965 318.584887 
L 276.2445 317.827751 
L 276.4925 322.686671 
L 276.7405 320.958758 
L 276.9885 316.965657 
L 277.2365 315.228745 
L 277.4845 317.472704 
L 277.7325 318.265371 
L 277.9805 327.567385 
L 278.2285 319.933524 
L 278.4765 321.301129 
L 278.7245 324.042672 
L 278.9725 316.42307 
L 279.2205 318.552726 
L 279.4685 318.629687 
L 279.7165 318.303364 
L 279.9645 317.51688 
L 280.2125 325.363681 
L 280.4605 310.267944 
L 280.7085 323.335886 
L 280.9565 324.724894 
L 281.2045 319.858529 
L 281.4525 310.345958 
L 281.7005 318.906536 
L 281.9485 313.319261 
L 282.4445 317.724905 
L 282.6925 326.810712 
L 282.9405 320.976711 
L 283.1885 322.419867 
L 283.4365 318.778778 
L 283.6845 325.645081 
L 283.9325 318.048376 
L 284.1805 318.470853 
L 284.4285 310.81807 
L 284.6765 331.005322 
L 285.1725 316.551713 
L 285.4205 319.931107 
L 285.6685 320.439856 
L 285.9165 328.721892 
L 286.1645 327.434709 
L 286.4125 315.115046 
L 286.6605 316.832241 
L 287.1565 326.046952 
L 287.4045 325.4538 
L 287.6525 321.718913 
L 287.9005 314.451077 
L 288.1485 316.807915 
L 288.3965 326.649268 
L 288.8925 315.950913 
L 289.1405 325.24751 
L 289.3885 314.112719 
L 289.6365 320.287019 
L 289.8845 314.695424 
L 290.1325 325.925477 
L 290.3805 331.213865 
L 290.6285 318.711357 
L 290.8765 330.031561 
L 291.1245 316.362524 
L 291.3725 320.040499 
L 291.6205 313.902773 
L 291.8685 322.106232 
L 292.1165 314.983625 
L 292.3645 315.501957 
L 292.8605 322.226523 
L 293.1085 318.520475 
L 293.3565 320.180897 
L 293.6045 326.423953 
L 293.8525 323.477139 
L 294.1005 312.892957 
L 294.5965 327.378109 
L 294.8445 327.26908 
L 295.3405 317.917989 
L 295.5885 319.928409 
L 295.8365 319.471326 
L 296.0845 329.84523 
L 296.3325 328.879091 
L 296.5805 321.71852 
L 296.8285 324.432844 
L 297.0765 319.563958 
L 297.3245 337.521133 
L 297.5725 323.259945 
L 297.8205 326.060802 
L 298.0685 326.74913 
L 298.5645 313.820067 
L 298.8125 322.925714 
L 299.0605 322.397317 
L 299.3085 325.148678 
L 299.5565 321.885098 
L 299.8045 321.68652 
L 300.0525 317.61616 
L 300.3005 326.255942 
L 300.5485 328.832479 
L 300.7965 321.762371 
L 301.0445 321.362386 
L 301.2925 318.980845 
L 301.5405 323.568189 
L 301.7885 321.125712 
L 302.0365 324.618222 
L 302.2845 313.592177 
L 302.5325 327.96811 
L 302.7805 325.008007 
L 303.0285 315.925261 
L 303.2765 321.977605 
L 303.5245 325.290089 
L 303.7725 325.575664 
L 304.0205 320.500138 
L 304.2685 328.612049 
L 304.7645 323.278616 
L 305.0125 320.781065 
L 305.2605 330.015973 
L 305.5085 320.35031 
L 305.7565 324.800816 
L 306.0045 326.936172 
L 306.2525 314.839471 
L 306.7485 330.790294 
L 306.9965 324.37185 
L 307.4925 326.650101 
L 307.7405 315.791777 
L 307.9885 315.526888 
L 308.2365 317.464548 
L 308.4845 320.405565 
L 308.7325 325.755597 
L 308.9805 321.427425 
L 309.2285 319.140313 
L 309.4765 311.693878 
L 309.7245 327.689059 
L 309.9725 319.11804 
L 310.2205 316.848637 
L 310.4685 324.563054 
L 310.7165 326.457037 
L 310.9645 335.645303 
L 311.2125 331.931917 
L 311.4605 323.431016 
L 311.7085 333.308138 
L 311.9565 334.774919 
L 312.2045 324.934348 
L 312.4525 334.633382 
L 312.7005 319.928603 
L 312.9485 328.791383 
L 313.1965 316.987168 
L 313.4445 329.399959 
L 313.6925 327.483906 
L 313.9405 317.981483 
L 314.1885 330.667074 
L 314.4365 336.079145 
L 314.6845 334.451139 
L 314.9325 326.572841 
L 315.1805 327.967115 
L 315.4285 319.505373 
L 315.6765 321.067632 
L 315.9245 321.8291 
L 316.1725 315.645879 
L 316.4205 318.208276 
L 316.6685 322.779078 
L 316.9165 322.213858 
L 317.1645 322.210088 
L 317.4125 325.361836 
L 317.6605 319.952736 
L 317.9085 322.003776 
L 318.1565 327.601416 
L 318.4045 318.29544 
L 318.9005 336.582208 
L 319.1485 321.287568 
L 319.3965 320.828969 
L 319.6445 325.084489 
L 320.1405 328.914895 
L 320.3885 321.889604 
L 320.6365 323.266421 
L 320.8845 320.810291 
L 321.1325 323.354219 
L 321.3805 330.563347 
L 321.6285 324.366762 
L 321.8765 324.073491 
L 322.1245 328.521454 
L 322.3725 330.628618 
L 322.6205 324.238807 
L 322.8685 326.522199 
L 323.1165 321.740046 
L 323.6125 328.785586 
L 323.8605 324.109266 
L 324.1085 333.080103 
L 324.3565 323.540389 
L 324.6045 323.013728 
L 324.8525 327.322674 
L 325.1005 321.849059 
L 325.3485 330.142759 
L 325.5965 320.344111 
L 325.8445 321.302133 
L 326.0925 326.053093 
L 326.3405 335.759231 
L 326.5885 327.521091 
L 326.8365 325.54838 
L 327.0845 317.616134 
L 327.3325 327.29069 
L 327.5805 322.42691 
L 327.8285 322.60382 
L 328.0765 322.485843 
L 328.3245 322.916132 
L 328.5725 324.809944 
L 328.8205 322.20434 
L 329.0685 337.646802 
L 329.5645 317.892008 
L 329.8125 318.75011 
L 330.0605 327.359618 
L 330.3085 322.074416 
L 330.5565 322.086949 
L 330.8045 325.194911 
L 331.0525 323.067086 
L 331.3005 322.266595 
L 331.5485 324.890494 
L 331.7965 323.328949 
L 332.0445 329.175799 
L 332.2925 322.441954 
L 332.5405 334.92796 
L 333.0365 321.316597 
L 333.2845 320.636052 
L 333.5325 321.809003 
L 333.7805 320.365541 
L 334.0285 320.374006 
L 334.2765 319.445824 
L 334.5245 321.315741 
L 334.7725 326.146457 
L 335.0205 320.384917 
L 335.2685 335.498945 
L 335.5165 332.086918 
L 335.7645 331.158926 
L 336.2605 321.136894 
L 336.5085 333.800019 
L 336.7565 330.652256 
L 337.0045 320.63632 
L 337.2525 316.605375 
L 337.5005 325.915296 
L 337.7485 321.19827 
L 337.9965 320.833179 
L 338.2445 322.549679 
L 338.4925 322.609694 
L 338.7405 324.529323 
L 338.9885 320.600544 
L 339.2365 322.930329 
L 339.4845 328.486467 
L 339.7325 317.128251 
L 339.9805 320.456027 
L 340.2285 318.651645 
L 340.4765 322.237614 
L 340.7245 332.485705 
L 340.9725 327.258095 
L 341.2205 325.812477 
L 341.4685 322.96886 
L 341.7165 340.52371 
L 342.2125 318.945961 
L 342.4605 333.549875 
L 342.7085 331.827713 
L 342.9565 323.624502 
L 343.4525 331.40822 
L 343.7005 319.338035 
L 343.9485 323.320697 
L 344.1965 316.885417 
L 344.4445 323.436681 
L 344.6925 323.796352 
L 344.9405 324.71717 
L 345.1885 324.887588 
L 345.4365 319.127992 
L 345.6845 323.954404 
L 345.9325 319.248212 
L 346.1805 320.733809 
L 346.4285 320.474357 
L 346.6765 328.967562 
L 346.9245 323.4689 
L 347.1725 328.742376 
L 347.6685 324.648593 
L 347.9165 328.731294 
L 348.1645 323.385784 
L 348.4125 325.136701 
L 348.6605 322.484829 
L 348.9085 322.449247 
L 349.1565 325.172165 
L 349.4045 326.564508 
L 349.6525 324.271374 
L 349.9005 324.296972 
L 350.1485 326.07292 
L 350.3965 321.003085 
L 350.6445 326.187961 
L 350.8925 316.586784 
L 351.1405 321.339653 
L 351.3885 317.305644 
L 351.6365 322.472341 
L 351.8845 322.623196 
L 352.1325 326.60899 
L 352.6285 321.494872 
L 352.8765 325.866643 
L 353.3725 320.661715 
L 353.6205 324.685891 
L 353.8685 323.103119 
L 354.1165 335.185403 
L 354.3645 319.787835 
L 354.6125 324.701167 
L 354.8605 320.140123 
L 355.1085 327.24194 
L 355.3565 321.243753 
L 355.6045 327.416642 
L 355.8525 325.379352 
L 356.1005 324.297541 
L 356.3485 329.412257 
L 356.5965 322.737471 
L 356.8445 323.117822 
L 357.3405 332.940726 
L 357.5885 325.566514 
L 357.8365 337.496646 
L 358.0845 322.343627 
L 358.3325 324.644624 
L 358.5805 324.548957 
L 358.8285 320.789315 
L 359.0765 320.395008 
L 359.3245 326.805855 
L 359.5725 320.926384 
L 359.8205 317.937391 
L 360.0685 334.598981 
L 360.3165 321.500015 
L 360.5645 322.858743 
L 360.8125 318.888483 
L 361.0605 321.148664 
L 361.3085 324.614659 
L 361.5565 321.340512 
L 361.8045 324.464673 
L 362.0525 322.800972 
L 362.5485 326.291447 
L 362.7965 319.29953 
L 363.0445 330.94674 
L 363.2925 324.84326 
L 363.5405 324.194792 
L 363.7885 321.593154 
L 364.0365 324.445245 
L 364.2845 317.821857 
L 364.5325 328.941501 
L 365.0285 318.279163 
L 365.2765 324.576811 
L 365.5245 323.65411 
L 365.7725 327.197871 
L 366.0205 324.392804 
L 366.2685 325.012931 
L 366.5165 320.484895 
L 366.7645 321.203146 
L 367.0125 323.922694 
L 367.2605 321.817436 
L 367.5085 324.075554 
L 367.7565 337.651118 
L 368.2525 318.602251 
L 368.5005 317.57096 
L 368.7485 323.545426 
L 368.9965 324.595643 
L 369.2445 338.660909 
L 369.4925 317.955724 
L 369.7405 324.778173 
L 369.9885 325.257015 
L 370.2365 328.432391 
L 370.4845 323.827222 
L 370.7325 324.561239 
L 370.9805 322.845135 
L 371.2285 324.437771 
L 371.4765 329.15463 
L 371.7245 323.274899 
L 372.2205 319.214954 
L 372.4685 337.09957 
L 372.7165 319.502978 
L 372.9645 323.911499 
L 373.2125 323.960645 
L 373.4605 327.218882 
L 373.7085 326.187237 
L 373.9565 321.088292 
L 374.7005 339.63776 
L 374.9485 322.100217 
L 375.1965 320.086522 
L 375.4445 324.351405 
L 375.6925 320.887725 
L 375.9405 323.704714 
L 376.1885 324.567953 
L 376.4365 323.59705 
L 376.6845 321.118393 
L 376.9325 328.412808 
L 377.1805 320.284553 
L 377.4285 326.300083 
L 377.6765 320.699949 
L 378.4205 337.725826 
L 378.6685 336.787072 
L 378.9165 326.1183 
L 379.1645 328.175671 
L 379.4125 328.149323 
L 379.6605 326.687097 
L 379.9085 321.880116 
L 380.1565 324.054005 
L 380.4045 322.331515 
L 380.6525 326.646236 
L 380.9005 321.628807 
L 381.1485 320.463922 
L 381.3965 318.227719 
L 381.6445 325.936131 
L 381.8925 320.593299 
L 382.1405 322.011314 
L 382.3885 324.659153 
L 382.6365 320.941901 
L 382.8845 321.431114 
L 383.1325 325.729999 
L 383.3805 327.791734 
L 383.6285 318.277853 
L 383.8765 325.700612 
L 384.1245 326.634832 
L 384.6205 324.909719 
L 384.8685 325.157903 
L 385.1165 319.263777 
L 385.3645 318.242339 
L 385.6125 323.761652 
L 385.8605 324.04939 
L 386.1085 319.108976 
L 386.3565 326.943076 
L 386.6045 327.80373 
L 386.8525 322.381395 
L 387.1005 328.63279 
L 387.3485 323.773616 
L 387.5965 323.881778 
L 387.8445 323.606716 
L 388.0925 324.868372 
L 388.3405 328.819298 
L 388.5885 335.492759 
L 388.8365 327.489004 
L 389.0845 329.817395 
L 389.3325 323.351631 
L 389.5805 323.085687 
L 389.8285 320.061195 
L 390.3245 326.533577 
L 390.5725 324.717643 
L 390.8205 320.633667 
L 391.0685 326.073129 
L 391.3165 320.27763 
L 391.5645 324.11385 
L 391.8125 325.068479 
L 392.0605 332.77623 
L 392.5565 319.597722 
L 392.8045 319.650112 
L 393.0525 320.102136 
L 393.3005 322.557693 
L 393.7965 335.932546 
L 394.2925 321.054397 
L 394.5405 329.189044 
L 394.7885 324.855176 
L 395.2845 327.401425 
L 395.5325 318.418527 
L 396.0285 327.653567 
L 396.2765 322.143549 
L 396.5245 324.895174 
L 396.7725 329.515435 
L 397.0205 317.267837 
L 397.2685 321.055452 
L 397.5165 320.829361 
L 397.7645 341.976605 
L 398.0125 324.296392 
L 398.2605 326.24141 
L 398.5085 321.582905 
L 398.7565 324.421314 
L 399.0045 328.584713 
L 399.2525 323.314655 
L 399.5005 324.698051 
L 399.7485 322.662296 
L 399.9965 322.933197 
L 400.2445 323.6996 
L 400.4925 318.210381 
L 400.7405 331.084459 
L 400.9885 326.318419 
L 401.2365 325.432714 
L 401.4845 327.465051 
L 401.7325 320.428282 
L 401.9805 319.900459 
L 402.2285 322.750172 
L 402.4765 321.26273 
L 402.7245 324.423722 
L 402.9725 324.355767 
L 403.2205 332.583704 
L 403.4685 326.472268 
L 403.7165 330.664174 
L 403.9645 331.427867 
L 404.4605 321.359512 
L 404.7085 329.516796 
L 404.9565 323.125383 
L 405.2045 320.651048 
L 405.4525 323.749016 
L 405.7005 335.781459 
L 405.9485 324.287242 
L 406.1965 327.610685 
L 406.4445 322.426002 
L 406.6925 331.506955 
L 406.9405 327.116638 
L 407.1885 327.142684 
L 407.4365 327.374909 
L 407.6845 328.205856 
L 407.9325 322.934053 
L 408.1805 322.39798 
L 408.4285 328.460583 
L 408.6765 322.62561 
L 408.9245 326.431388 
L 409.1725 316.399252 
L 409.6685 327.720486 
L 409.9165 324.024429 
L 410.1645 323.542941 
L 410.6605 330.426438 
L 410.9085 321.438777 
L 411.1565 325.18446 
L 411.4045 316.747011 
L 411.6525 331.259338 
L 411.9005 319.727768 
L 412.1485 319.50263 
L 412.3965 323.36363 
L 412.6445 336.389571 
L 412.8925 320.768184 
L 413.1405 318.143346 
L 413.3885 322.553593 
L 413.6365 322.677095 
L 413.8845 323.162993 
L 414.1325 326.176483 
L 414.3805 324.43679 
L 414.6285 327.666561 
L 415.1245 321.792034 
L 415.3725 329.736977 
L 415.6205 324.996809 
L 415.8685 325.702518 
L 416.1165 330.903471 
L 416.3645 326.943626 
L 416.6125 328.924677 
L 417.3565 316.399992 
L 417.6045 325.361721 
L 417.8525 325.445357 
L 418.1005 323.321257 
L 418.3485 324.757789 
L 418.5965 336.352454 
L 418.8445 320.335057 
L 419.0925 322.488254 
L 419.3405 323.641223 
L 419.5885 329.090322 
L 419.8365 326.776427 
L 420.0845 319.083675 
L 420.3325 323.543363 
L 420.5805 330.170871 
L 420.8285 327.303214 
L 421.0765 318.305366 
L 421.3245 318.3017 
L 421.5725 320.496337 
L 421.8205 319.406795 
L 422.0685 327.548707 
L 422.3165 326.678165 
L 422.5645 333.733039 
L 422.8125 324.669141 
L 423.0605 323.626517 
L 423.5565 312.516111 
L 423.8045 329.786548 
L 424.0525 320.211808 
L 424.5485 318.123419 
L 424.7965 318.658043 
L 425.0445 325.138266 
L 425.2925 336.560652 
L 425.7885 321.11969 
L 426.0365 325.845397 
L 426.2845 323.680436 
L 426.5325 325.361003 
L 426.7805 322.538935 
L 427.0285 325.021789 
L 427.5245 317.905452 
L 427.7725 325.046792 
L 428.0205 326.025084 
L 428.2685 315.786379 
L 428.7645 326.673469 
L 429.0125 327.267374 
L 429.2605 324.486389 
L 429.5085 326.652808 
L 429.7565 330.092783 
L 430.0045 327.651855 
L 430.2525 321.735257 
L 430.5005 332.300919 
L 430.7485 333.923171 
L 430.9965 329.773055 
L 431.2445 323.341328 
L 431.4925 327.140537 
L 431.7405 326.890567 
L 431.9885 321.983553 
L 432.2365 323.798206 
L 432.4845 314.72687 
L 432.7325 322.100268 
L 432.9805 315.615231 
L 433.2285 324.887449 
L 433.4765 329.81652 
L 433.7245 327.355157 
L 433.9725 320.594207 
L 434.2205 325.315658 
L 434.4685 324.41574 
L 434.7165 317.141666 
L 434.9645 321.842956 
L 435.2125 324.205501 
L 435.4605 323.777649 
L 435.7085 317.641648 
L 436.2045 337.661659 
L 436.4525 323.169642 
L 436.9485 325.276043 
L 437.1965 327.917287 
L 437.6925 325.314686 
L 437.9405 330.475246 
L 438.1885 322.534081 
L 438.4365 321.854521 
L 438.6845 318.710398 
L 438.9325 329.861887 
L 439.1805 328.093689 
L 439.4285 330.662732 
L 439.6765 326.281048 
L 439.9245 328.004275 
L 440.1725 327.844224 
L 440.6685 319.266024 
L 440.9165 328.312786 
L 441.1645 323.921287 
L 441.4125 329.350739 
L 441.6605 332.004752 
L 442.1565 321.084958 
L 442.4045 324.798408 
L 442.6525 317.41482 
L 442.9005 317.562547 
L 443.1485 324.515306 
L 443.6445 313.306962 
L 443.8925 322.995272 
L 444.1405 326.177542 
L 444.3885 319.656614 
L 444.6365 318.325972 
L 444.8845 320.518317 
L 445.1325 318.430726 
L 445.6285 324.721257 
L 445.8765 320.449383 
L 446.1245 325.680943 
L 446.6205 316.492442 
L 446.8685 325.501845 
L 447.1165 327.587327 
L 447.3645 321.380884 
L 447.6125 329.430813 
L 447.8605 325.848764 
L 448.1085 324.571947 
L 448.3565 326.551105 
L 448.6045 329.905335 
L 449.3485 322.289531 
L 449.5965 324.258898 
L 449.8445 323.850867 
L 450.0925 320.667392 
L 450.3405 324.577416 
L 450.5885 326.105502 
L 450.8365 314.795765 
L 451.0845 328.314961 
L 451.3325 327.097359 
L 451.5805 321.595815 
L 451.8285 326.194946 
L 452.0765 311.560931 
L 452.3245 324.717894 
L 452.5725 321.474492 
L 452.8205 330.544231 
L 453.0685 329.8677 
L 453.3165 326.681139 
L 453.5645 313.165335 
L 453.8125 326.420905 
L 454.0605 317.03015 
L 454.3085 329.717933 
L 454.5565 320.1691 
L 454.8045 318.53324 
L 455.3005 329.554361 
L 455.5485 319.378352 
L 456.0445 332.012763 
L 456.2925 316.309761 
L 456.5405 319.172477 
L 456.7885 315.892929 
L 457.0365 328.018347 
L 457.2845 318.991805 
L 457.5325 323.074557 
L 457.7805 320.638621 
L 458.0285 329.843183 
L 458.2765 324.904662 
L 458.5245 323.019373 
L 458.7725 316.145687 
L 459.0205 317.647834 
L 459.2685 326.065105 
L 459.5165 321.461572 
L 459.7645 330.228063 
L 460.2605 321.552682 
L 460.5085 320.183916 
L 460.7565 334.887266 
L 461.0045 320.730134 
L 461.2525 325.993812 
L 461.5005 327.714216 
L 461.7485 323.498891 
L 461.9965 324.650975 
L 462.2445 313.817003 
L 462.7405 328.306615 
L 462.9885 318.016756 
L 463.4845 325.178055 
L 463.7325 319.502131 
L 463.9805 319.480074 
L 464.2285 321.991471 
L 464.4765 329.735584 
L 464.9725 319.916368 
L 465.2205 325.09959 
L 465.4685 325.306411 
L 465.7165 325.910047 
L 465.9645 321.304325 
L 466.2125 329.100418 
L 466.4605 329.214285 
L 466.7085 320.601732 
L 466.9565 326.544716 
L 467.2045 322.288923 
L 467.4525 320.291052 
L 467.7005 323.575868 
L 467.7005 323.575868 
" style="fill:none;stroke:#0000ff;stroke-linecap:square;stroke-width:0.5;"/>
   </g>
   <g id="patch_3">
    <path d="M 54.5325 368.74175 
L 54.5325 23.14175 
" style="fill:none;stroke:#000000;stroke-linecap:square;stroke-linejoin:miter;"/>
   </g>
   <g id="patch_4">
    <path d="M 54.5325 368.74175 
L 500.9325 368.74175 
" style="fill:none;stroke:#000000;stroke-linecap:square;stroke-linejoin:miter;"/>
   </g>
   <g id="patch_5">
    <path d="M 500.9325 368.74175 
L 500.9325 23.14175 
" style="fill:none;stroke:#000000;stroke-linecap:square;stroke-linejoin:miter;"/>
   </g>
   <g id="patch_6">
    <path d="M 54.5325 23.14175 
L 500.9325 23.14175 
" style="fill:none;stroke:#000000;stroke-linecap:square;stroke-linejoin:miter;"/>
   </g>
   <g id="matplotlib.axis_1">
    <g id="xtick_1">
     <g id="line2d_2">
      <defs>
       <path d="M 0 0 
L 0 -4 
" id="m8b840d316c" style="stroke:#000000;stroke-width:0.5;"/>
      </defs>
      <g>
       <use style="stroke:#000000;stroke-width:0.5;" x="54.5325" xlink:href="#m8b840d316c" y="368.74175"/>
      </g>
     </g>
     <g id="line2d_3">
      <defs>
       <path d="M 0 0 
L 0 4 
" id="mae34f4f452" style="stroke:#000000;stroke-width:0.5;"/>
      </defs>
      <g>
       <use style="stroke:#000000;stroke-width:0.5;" x="54.5325" xlink:href="#mae34f4f452" y="23.14175"/>
      </g>
     </g>
     <g id="text_1">
      <!-- 0 -->
      <defs>
       <path d="M 31.78125 66.40625 
Q 24.171875 66.40625 20.328125 58.90625 
Q 16.5 51.421875 16.5 36.375 
Q 16.5 21.390625 20.328125 13.890625 
Q 24.171875 6.390625 31.78125 6.390625 
Q 39.453125 6.390625 43.28125 13.890625 
Q 47.125 21.390625 47.125 36.375 
Q 47.125 51.421875 43.28125 58.90625 
Q 39.453125 66.40625 31.78125 66.40625 
M 31.78125 74.21875 
Q 44.046875 74.21875 50.515625 64.515625 
Q 56.984375 54.828125 56.984375 36.375 
Q 56.984375 17.96875 50.515625 8.265625 
Q 44.046875 -1.421875 31.78125 -1.421875 
Q 19.53125 -1.421875 13.0625 8.265625 
Q 6.59375 17.96875 6.59375 36.375 
Q 6.59375 54.828125 13.0625 64.515625 
Q 19.53125 74.21875 31.78125 74.21875 
" id="BitstreamVeraSans-Roman-30"/>
      </defs>
      <g transform="translate(50.715 381.859875)scale(0.12 -0.12)">
       <use xlink:href="#BitstreamVeraSans-Roman-30"/>
      </g>
     </g>
    </g>
    <g id="xtick_2">
     <g id="line2d_4">
      <g>
       <use style="stroke:#000000;stroke-width:0.5;" x="104.1325" xlink:href="#m8b840d316c" y="368.74175"/>
      </g>
     </g>
     <g id="line2d_5">
      <g>
       <use style="stroke:#000000;stroke-width:0.5;" x="104.1325" xlink:href="#mae34f4f452" y="23.14175"/>
      </g>
     </g>
     <g id="text_2">
      <!-- 200 -->
      <defs>
       <path d="M 19.1875 8.296875 
L 53.609375 8.296875 
L 53.609375 0 
L 7.328125 0 
L 7.328125 8.296875 
Q 12.9375 14.109375 22.625 23.890625 
Q 32.328125 33.6875 34.8125 36.53125 
Q 39.546875 41.84375 41.421875 45.53125 
Q 43.3125 49.21875 43.3125 52.78125 
Q 43.3125 58.59375 39.234375 62.25 
Q 35.15625 65.921875 28.609375 65.921875 
Q 23.96875 65.921875 18.8125 64.3125 
Q 13.671875 62.703125 7.8125 59.421875 
L 7.8125 69.390625 
Q 13.765625 71.78125 18.9375 73 
Q 24.125 74.21875 28.421875 74.21875 
Q 39.75 74.21875 46.484375 68.546875 
Q 53.21875 62.890625 53.21875 53.421875 
Q 53.21875 48.921875 51.53125 44.890625 
Q 49.859375 40.875 45.40625 35.40625 
Q 44.1875 33.984375 37.640625 27.21875 
Q 31.109375 20.453125 19.1875 8.296875 
" id="BitstreamVeraSans-Roman-32"/>
      </defs>
      <g transform="translate(92.68 381.859875)scale(0.12 -0.12)">
       <use xlink:href="#BitstreamVeraSans-Roman-32"/>
       <use x="63.623046875" xlink:href="#BitstreamVeraSans-Roman-30"/>
       <use x="127.24609375" xlink:href="#BitstreamVeraSans-Roman-30"/>
      </g>
     </g>
    </g>
    <g id="xtick_3">
     <g id="line2d_6">
      <g>
       <use style="stroke:#000000;stroke-width:0.5;" x="153.7325" xlink:href="#m8b840d316c" y="368.74175"/>
      </g>
     </g>
     <g id="line2d_7">
      <g>
       <use style="stroke:#000000;stroke-width:0.5;" x="153.7325" xlink:href="#mae34f4f452" y="23.14175"/>
      </g>
     </g>
     <g id="text_3">
      <!-- 400 -->
      <defs>
       <path d="M 37.796875 64.3125 
L 12.890625 25.390625 
L 37.796875 25.390625 
z
M 35.203125 72.90625 
L 47.609375 72.90625 
L 47.609375 25.390625 
L 58.015625 25.390625 
L 58.015625 17.1875 
L 47.609375 17.1875 
L 47.609375 0 
L 37.796875 0 
L 37.796875 17.1875 
L 4.890625 17.1875 
L 4.890625 26.703125 
z
" id="BitstreamVeraSans-Roman-34"/>
      </defs>
      <g transform="translate(142.28 381.859875)scale(0.12 -0.12)">
       <use xlink:href="#BitstreamVeraSans-Roman-34"/>
       <use x="63.623046875" xlink:href="#BitstreamVeraSans-Roman-30"/>
       <use x="127.24609375" xlink:href="#BitstreamVeraSans-Roman-30"/>
      </g>
     </g>
    </g>
    <g id="xtick_4">
     <g id="line2d_8">
      <g>
       <use style="stroke:#000000;stroke-width:0.5;" x="203.3325" xlink:href="#m8b840d316c" y="368.74175"/>
      </g>
     </g>
     <g id="line2d_9">
      <g>
       <use style="stroke:#000000;stroke-width:0.5;" x="203.3325" xlink:href="#mae34f4f452" y="23.14175"/>
      </g>
     </g>
     <g id="text_4">
      <!-- 600 -->
      <defs>
       <path d="M 33.015625 40.375 
Q 26.375 40.375 22.484375 35.828125 
Q 18.609375 31.296875 18.609375 23.390625 
Q 18.609375 15.53125 22.484375 10.953125 
Q 26.375 6.390625 33.015625 6.390625 
Q 39.65625 6.390625 43.53125 10.953125 
Q 47.40625 15.53125 47.40625 23.390625 
Q 47.40625 31.296875 43.53125 35.828125 
Q 39.65625 40.375 33.015625 40.375 
M 52.59375 71.296875 
L 52.59375 62.3125 
Q 48.875 64.0625 45.09375 64.984375 
Q 41.3125 65.921875 37.59375 65.921875 
Q 27.828125 65.921875 22.671875 59.328125 
Q 17.53125 52.734375 16.796875 39.40625 
Q 19.671875 43.65625 24.015625 45.921875 
Q 28.375 48.1875 33.59375 48.1875 
Q 44.578125 48.1875 50.953125 41.515625 
Q 57.328125 34.859375 57.328125 23.390625 
Q 57.328125 12.15625 50.6875 5.359375 
Q 44.046875 -1.421875 33.015625 -1.421875 
Q 20.359375 -1.421875 13.671875 8.265625 
Q 6.984375 17.96875 6.984375 36.375 
Q 6.984375 53.65625 15.1875 63.9375 
Q 23.390625 74.21875 37.203125 74.21875 
Q 40.921875 74.21875 44.703125 73.484375 
Q 48.484375 72.75 52.59375 71.296875 
" id="BitstreamVeraSans-Roman-36"/>
      </defs>
      <g transform="translate(191.88 381.859875)scale(0.12 -0.12)">
       <use xlink:href="#BitstreamVeraSans-Roman-36"/>
       <use x="63.623046875" xlink:href="#BitstreamVeraSans-Roman-30"/>
       <use x="127.24609375" xlink:href="#BitstreamVeraSans-Roman-30"/>
      </g>
     </g>
    </g>
    <g id="xtick_5">
     <g id="line2d_10">
      <g>
       <use style="stroke:#000000;stroke-width:0.5;" x="252.9325" xlink:href="#m8b840d316c" y="368.74175"/>
      </g>
     </g>
     <g id="line2d_11">
      <g>
       <use style="stroke:#000000;stroke-width:0.5;" x="252.9325" xlink:href="#mae34f4f452" y="23.14175"/>
      </g>
     </g>
     <g id="text_5">
      <!-- 800 -->
      <defs>
       <path d="M 31.78125 34.625 
Q 24.75 34.625 20.71875 30.859375 
Q 16.703125 27.09375 16.703125 20.515625 
Q 16.703125 13.921875 20.71875 10.15625 
Q 24.75 6.390625 31.78125 6.390625 
Q 38.8125 6.390625 42.859375 10.171875 
Q 46.921875 13.96875 46.921875 20.515625 
Q 46.921875 27.09375 42.890625 30.859375 
Q 38.875 34.625 31.78125 34.625 
M 21.921875 38.8125 
Q 15.578125 40.375 12.03125 44.71875 
Q 8.5 49.078125 8.5 55.328125 
Q 8.5 64.0625 14.71875 69.140625 
Q 20.953125 74.21875 31.78125 74.21875 
Q 42.671875 74.21875 48.875 69.140625 
Q 55.078125 64.0625 55.078125 55.328125 
Q 55.078125 49.078125 51.53125 44.71875 
Q 48 40.375 41.703125 38.8125 
Q 48.828125 37.15625 52.796875 32.3125 
Q 56.78125 27.484375 56.78125 20.515625 
Q 56.78125 9.90625 50.3125 4.234375 
Q 43.84375 -1.421875 31.78125 -1.421875 
Q 19.734375 -1.421875 13.25 4.234375 
Q 6.78125 9.90625 6.78125 20.515625 
Q 6.78125 27.484375 10.78125 32.3125 
Q 14.796875 37.15625 21.921875 38.8125 
M 18.3125 54.390625 
Q 18.3125 48.734375 21.84375 45.5625 
Q 25.390625 42.390625 31.78125 42.390625 
Q 38.140625 42.390625 41.71875 45.5625 
Q 45.3125 48.734375 45.3125 54.390625 
Q 45.3125 60.0625 41.71875 63.234375 
Q 38.140625 66.40625 31.78125 66.40625 
Q 25.390625 66.40625 21.84375 63.234375 
Q 18.3125 60.0625 18.3125 54.390625 
" id="BitstreamVeraSans-Roman-38"/>
      </defs>
      <g transform="translate(241.48 381.859875)scale(0.12 -0.12)">
       <use xlink:href="#BitstreamVeraSans-Roman-38"/>
       <use x="63.623046875" xlink:href="#BitstreamVeraSans-Roman-30"/>
       <use x="127.24609375" xlink:href="#BitstreamVeraSans-Roman-30"/>
      </g>
     </g>
    </g>
    <g id="xtick_6">
     <g id="line2d_12">
      <g>
       <use style="stroke:#000000;stroke-width:0.5;" x="302.5325" xlink:href="#m8b840d316c" y="368.74175"/>
      </g>
     </g>
     <g id="line2d_13">
      <g>
       <use style="stroke:#000000;stroke-width:0.5;" x="302.5325" xlink:href="#mae34f4f452" y="23.14175"/>
      </g>
     </g>
     <g id="text_6">
      <!-- 1000 -->
      <defs>
       <path d="M 12.40625 8.296875 
L 28.515625 8.296875 
L 28.515625 63.921875 
L 10.984375 60.40625 
L 10.984375 69.390625 
L 28.421875 72.90625 
L 38.28125 72.90625 
L 38.28125 8.296875 
L 54.390625 8.296875 
L 54.390625 0 
L 12.40625 0 
z
" id="BitstreamVeraSans-Roman-31"/>
      </defs>
      <g transform="translate(287.2625 381.859875)scale(0.12 -0.12)">
       <use xlink:href="#BitstreamVeraSans-Roman-31"/>
       <use x="63.623046875" xlink:href="#BitstreamVeraSans-Roman-30"/>
       <use x="127.24609375" xlink:href="#BitstreamVeraSans-Roman-30"/>
       <use x="190.869140625" xlink:href="#BitstreamVeraSans-Roman-30"/>
      </g>
     </g>
    </g>
    <g id="xtick_7">
     <g id="line2d_14">
      <g>
       <use style="stroke:#000000;stroke-width:0.5;" x="352.1325" xlink:href="#m8b840d316c" y="368.74175"/>
      </g>
     </g>
     <g id="line2d_15">
      <g>
       <use style="stroke:#000000;stroke-width:0.5;" x="352.1325" xlink:href="#mae34f4f452" y="23.14175"/>
      </g>
     </g>
     <g id="text_7">
      <!-- 1200 -->
      <g transform="translate(336.8625 381.859875)scale(0.12 -0.12)">
       <use xlink:href="#BitstreamVeraSans-Roman-31"/>
       <use x="63.623046875" xlink:href="#BitstreamVeraSans-Roman-32"/>
       <use x="127.24609375" xlink:href="#BitstreamVeraSans-Roman-30"/>
       <use x="190.869140625" xlink:href="#BitstreamVeraSans-Roman-30"/>
      </g>
     </g>
    </g>
    <g id="xtick_8">
     <g id="line2d_16">
      <g>
       <use style="stroke:#000000;stroke-width:0.5;" x="401.7325" xlink:href="#m8b840d316c" y="368.74175"/>
      </g>
     </g>
     <g id="line2d_17">
      <g>
       <use style="stroke:#000000;stroke-width:0.5;" x="401.7325" xlink:href="#mae34f4f452" y="23.14175"/>
      </g>
     </g>
     <g id="text_8">
      <!-- 1400 -->
      <g transform="translate(386.4625 381.859875)scale(0.12 -0.12)">
       <use xlink:href="#BitstreamVeraSans-Roman-31"/>
       <use x="63.623046875" xlink:href="#BitstreamVeraSans-Roman-34"/>
       <use x="127.24609375" xlink:href="#BitstreamVeraSans-Roman-30"/>
       <use x="190.869140625" xlink:href="#BitstreamVeraSans-Roman-30"/>
      </g>
     </g>
    </g>
    <g id="xtick_9">
     <g id="line2d_18">
      <g>
       <use style="stroke:#000000;stroke-width:0.5;" x="451.3325" xlink:href="#m8b840d316c" y="368.74175"/>
      </g>
     </g>
     <g id="line2d_19">
      <g>
       <use style="stroke:#000000;stroke-width:0.5;" x="451.3325" xlink:href="#mae34f4f452" y="23.14175"/>
      </g>
     </g>
     <g id="text_9">
      <!-- 1600 -->
      <g transform="translate(436.0625 381.859875)scale(0.12 -0.12)">
       <use xlink:href="#BitstreamVeraSans-Roman-31"/>
       <use x="63.623046875" xlink:href="#BitstreamVeraSans-Roman-36"/>
       <use x="127.24609375" xlink:href="#BitstreamVeraSans-Roman-30"/>
       <use x="190.869140625" xlink:href="#BitstreamVeraSans-Roman-30"/>
      </g>
     </g>
    </g>
    <g id="xtick_10">
     <g id="line2d_20">
      <g>
       <use style="stroke:#000000;stroke-width:0.5;" x="500.9325" xlink:href="#m8b840d316c" y="368.74175"/>
      </g>
     </g>
     <g id="line2d_21">
      <g>
       <use style="stroke:#000000;stroke-width:0.5;" x="500.9325" xlink:href="#mae34f4f452" y="23.14175"/>
      </g>
     </g>
     <g id="text_10">
      <!-- 1800 -->
      <g transform="translate(485.6625 381.859875)scale(0.12 -0.12)">
       <use xlink:href="#BitstreamVeraSans-Roman-31"/>
       <use x="63.623046875" xlink:href="#BitstreamVeraSans-Roman-38"/>
       <use x="127.24609375" xlink:href="#BitstreamVeraSans-Roman-30"/>
       <use x="190.869140625" xlink:href="#BitstreamVeraSans-Roman-30"/>
      </g>
     </g>
    </g>
    <g id="text_11">
     <!-- episodes -->
     <defs>
      <path d="M 45.40625 46.390625 
L 45.40625 75.984375 
L 54.390625 75.984375 
L 54.390625 0 
L 45.40625 0 
L 45.40625 8.203125 
Q 42.578125 3.328125 38.25 0.953125 
Q 33.9375 -1.421875 27.875 -1.421875 
Q 17.96875 -1.421875 11.734375 6.484375 
Q 5.515625 14.40625 5.515625 27.296875 
Q 5.515625 40.1875 11.734375 48.09375 
Q 17.96875 56 27.875 56 
Q 33.9375 56 38.25 53.625 
Q 42.578125 51.265625 45.40625 46.390625 
M 14.796875 27.296875 
Q 14.796875 17.390625 18.875 11.75 
Q 22.953125 6.109375 30.078125 6.109375 
Q 37.203125 6.109375 41.296875 11.75 
Q 45.40625 17.390625 45.40625 27.296875 
Q 45.40625 37.203125 41.296875 42.84375 
Q 37.203125 48.484375 30.078125 48.484375 
Q 22.953125 48.484375 18.875 42.84375 
Q 14.796875 37.203125 14.796875 27.296875 
" id="BitstreamVeraSans-Roman-64"/>
      <path d="M 44.28125 53.078125 
L 44.28125 44.578125 
Q 40.484375 46.53125 36.375 47.5 
Q 32.28125 48.484375 27.875 48.484375 
Q 21.1875 48.484375 17.84375 46.4375 
Q 14.5 44.390625 14.5 40.28125 
Q 14.5 37.15625 16.890625 35.375 
Q 19.28125 33.59375 26.515625 31.984375 
L 29.59375 31.296875 
Q 39.15625 29.25 43.1875 25.515625 
Q 47.21875 21.78125 47.21875 15.09375 
Q 47.21875 7.46875 41.1875 3.015625 
Q 35.15625 -1.421875 24.609375 -1.421875 
Q 20.21875 -1.421875 15.453125 -0.5625 
Q 10.6875 0.296875 5.421875 2 
L 5.421875 11.28125 
Q 10.40625 8.6875 15.234375 7.390625 
Q 20.0625 6.109375 24.8125 6.109375 
Q 31.15625 6.109375 34.5625 8.28125 
Q 37.984375 10.453125 37.984375 14.40625 
Q 37.984375 18.0625 35.515625 20.015625 
Q 33.0625 21.96875 24.703125 23.78125 
L 21.578125 24.515625 
Q 13.234375 26.265625 9.515625 29.90625 
Q 5.8125 33.546875 5.8125 39.890625 
Q 5.8125 47.609375 11.28125 51.796875 
Q 16.75 56 26.8125 56 
Q 31.78125 56 36.171875 55.265625 
Q 40.578125 54.546875 44.28125 53.078125 
" id="BitstreamVeraSans-Roman-73"/>
      <path d="M 56.203125 29.59375 
L 56.203125 25.203125 
L 14.890625 25.203125 
Q 15.484375 15.921875 20.484375 11.0625 
Q 25.484375 6.203125 34.421875 6.203125 
Q 39.59375 6.203125 44.453125 7.46875 
Q 49.3125 8.734375 54.109375 11.28125 
L 54.109375 2.78125 
Q 49.265625 0.734375 44.1875 -0.34375 
Q 39.109375 -1.421875 33.890625 -1.421875 
Q 20.796875 -1.421875 13.15625 6.1875 
Q 5.515625 13.8125 5.515625 26.8125 
Q 5.515625 40.234375 12.765625 48.109375 
Q 20.015625 56 32.328125 56 
Q 43.359375 56 49.78125 48.890625 
Q 56.203125 41.796875 56.203125 29.59375 
M 47.21875 32.234375 
Q 47.125 39.59375 43.09375 43.984375 
Q 39.0625 48.390625 32.421875 48.390625 
Q 24.90625 48.390625 20.390625 44.140625 
Q 15.875 39.890625 15.1875 32.171875 
z
" id="BitstreamVeraSans-Roman-65"/>
      <path d="M 9.421875 54.6875 
L 18.40625 54.6875 
L 18.40625 0 
L 9.421875 0 
z
M 9.421875 75.984375 
L 18.40625 75.984375 
L 18.40625 64.59375 
L 9.421875 64.59375 
z
" id="BitstreamVeraSans-Roman-69"/>
      <path d="M 18.109375 8.203125 
L 18.109375 -20.796875 
L 9.078125 -20.796875 
L 9.078125 54.6875 
L 18.109375 54.6875 
L 18.109375 46.390625 
Q 20.953125 51.265625 25.265625 53.625 
Q 29.59375 56 35.59375 56 
Q 45.5625 56 51.78125 48.09375 
Q 58.015625 40.1875 58.015625 27.296875 
Q 58.015625 14.40625 51.78125 6.484375 
Q 45.5625 -1.421875 35.59375 -1.421875 
Q 29.59375 -1.421875 25.265625 0.953125 
Q 20.953125 3.328125 18.109375 8.203125 
M 48.6875 27.296875 
Q 48.6875 37.203125 44.609375 42.84375 
Q 40.53125 48.484375 33.40625 48.484375 
Q 26.265625 48.484375 22.1875 42.84375 
Q 18.109375 37.203125 18.109375 27.296875 
Q 18.109375 17.390625 22.1875 11.75 
Q 26.265625 6.109375 33.40625 6.109375 
Q 40.53125 6.109375 44.609375 11.75 
Q 48.6875 17.390625 48.6875 27.296875 
" id="BitstreamVeraSans-Roman-70"/>
      <path d="M 30.609375 48.390625 
Q 23.390625 48.390625 19.1875 42.75 
Q 14.984375 37.109375 14.984375 27.296875 
Q 14.984375 17.484375 19.15625 11.84375 
Q 23.34375 6.203125 30.609375 6.203125 
Q 37.796875 6.203125 41.984375 11.859375 
Q 46.1875 17.53125 46.1875 27.296875 
Q 46.1875 37.015625 41.984375 42.703125 
Q 37.796875 48.390625 30.609375 48.390625 
M 30.609375 56 
Q 42.328125 56 49.015625 48.375 
Q 55.71875 40.765625 55.71875 27.296875 
Q 55.71875 13.875 49.015625 6.21875 
Q 42.328125 -1.421875 30.609375 -1.421875 
Q 18.84375 -1.421875 12.171875 6.21875 
Q 5.515625 13.875 5.515625 27.296875 
Q 5.515625 40.765625 12.171875 48.375 
Q 18.84375 56 30.609375 56 
" id="BitstreamVeraSans-Roman-6f"/>
     </defs>
     <g transform="translate(251.14125 398.473625)scale(0.12 -0.12)">
      <use xlink:href="#BitstreamVeraSans-Roman-65"/>
      <use x="61.5234375" xlink:href="#BitstreamVeraSans-Roman-70"/>
      <use x="125.0" xlink:href="#BitstreamVeraSans-Roman-69"/>
      <use x="152.783203125" xlink:href="#BitstreamVeraSans-Roman-73"/>
      <use x="204.8828125" xlink:href="#BitstreamVeraSans-Roman-6f"/>
      <use x="266.064453125" xlink:href="#BitstreamVeraSans-Roman-64"/>
      <use x="329.541015625" xlink:href="#BitstreamVeraSans-Roman-65"/>
      <use x="391.064453125" xlink:href="#BitstreamVeraSans-Roman-73"/>
     </g>
    </g>
   </g>
   <g id="matplotlib.axis_2">
    <g id="ytick_1">
     <g id="line2d_22">
      <defs>
       <path d="M 0 0 
L 4 0 
" id="mc9614e803a" style="stroke:#000000;stroke-width:0.5;"/>
      </defs>
      <g>
       <use style="stroke:#000000;stroke-width:0.5;" x="54.5325" xlink:href="#mc9614e803a" y="368.74175"/>
      </g>
     </g>
     <g id="line2d_23">
      <defs>
       <path d="M 0 0 
L -4 0 
" id="me90e5207ee" style="stroke:#000000;stroke-width:0.5;"/>
      </defs>
      <g>
       <use style="stroke:#000000;stroke-width:0.5;" x="500.9325" xlink:href="#me90e5207ee" y="368.74175"/>
      </g>
     </g>
     <g id="text_12">
      <!-- 0.00 -->
      <defs>
       <path d="M 10.6875 12.40625 
L 21 12.40625 
L 21 0 
L 10.6875 0 
z
" id="BitstreamVeraSans-Roman-2e"/>
      </defs>
      <g transform="translate(23.81375 372.053)scale(0.12 -0.12)">
       <use xlink:href="#BitstreamVeraSans-Roman-30"/>
       <use x="63.623046875" xlink:href="#BitstreamVeraSans-Roman-2e"/>
       <use x="95.41015625" xlink:href="#BitstreamVeraSans-Roman-30"/>
       <use x="159.033203125" xlink:href="#BitstreamVeraSans-Roman-30"/>
      </g>
     </g>
    </g>
    <g id="ytick_2">
     <g id="line2d_24">
      <g>
       <use style="stroke:#000000;stroke-width:0.5;" x="54.5325" xlink:href="#mc9614e803a" y="325.54175"/>
      </g>
     </g>
     <g id="line2d_25">
      <g>
       <use style="stroke:#000000;stroke-width:0.5;" x="500.9325" xlink:href="#me90e5207ee" y="325.54175"/>
      </g>
     </g>
     <g id="text_13">
      <!-- 0.02 -->
      <g transform="translate(23.81375 328.853)scale(0.12 -0.12)">
       <use xlink:href="#BitstreamVeraSans-Roman-30"/>
       <use x="63.623046875" xlink:href="#BitstreamVeraSans-Roman-2e"/>
       <use x="95.41015625" xlink:href="#BitstreamVeraSans-Roman-30"/>
       <use x="159.033203125" xlink:href="#BitstreamVeraSans-Roman-32"/>
      </g>
     </g>
    </g>
    <g id="ytick_3">
     <g id="line2d_26">
      <g>
       <use style="stroke:#000000;stroke-width:0.5;" x="54.5325" xlink:href="#mc9614e803a" y="282.34175"/>
      </g>
     </g>
     <g id="line2d_27">
      <g>
       <use style="stroke:#000000;stroke-width:0.5;" x="500.9325" xlink:href="#me90e5207ee" y="282.34175"/>
      </g>
     </g>
     <g id="text_14">
      <!-- 0.04 -->
      <g transform="translate(23.81375 285.653)scale(0.12 -0.12)">
       <use xlink:href="#BitstreamVeraSans-Roman-30"/>
       <use x="63.623046875" xlink:href="#BitstreamVeraSans-Roman-2e"/>
       <use x="95.41015625" xlink:href="#BitstreamVeraSans-Roman-30"/>
       <use x="159.033203125" xlink:href="#BitstreamVeraSans-Roman-34"/>
      </g>
     </g>
    </g>
    <g id="ytick_4">
     <g id="line2d_28">
      <g>
       <use style="stroke:#000000;stroke-width:0.5;" x="54.5325" xlink:href="#mc9614e803a" y="239.14175"/>
      </g>
     </g>
     <g id="line2d_29">
      <g>
       <use style="stroke:#000000;stroke-width:0.5;" x="500.9325" xlink:href="#me90e5207ee" y="239.14175"/>
      </g>
     </g>
     <g id="text_15">
      <!-- 0.06 -->
      <g transform="translate(23.81375 242.453)scale(0.12 -0.12)">
       <use xlink:href="#BitstreamVeraSans-Roman-30"/>
       <use x="63.623046875" xlink:href="#BitstreamVeraSans-Roman-2e"/>
       <use x="95.41015625" xlink:href="#BitstreamVeraSans-Roman-30"/>
       <use x="159.033203125" xlink:href="#BitstreamVeraSans-Roman-36"/>
      </g>
     </g>
    </g>
    <g id="ytick_5">
     <g id="line2d_30">
      <g>
       <use style="stroke:#000000;stroke-width:0.5;" x="54.5325" xlink:href="#mc9614e803a" y="195.94175"/>
      </g>
     </g>
     <g id="line2d_31">
      <g>
       <use style="stroke:#000000;stroke-width:0.5;" x="500.9325" xlink:href="#me90e5207ee" y="195.94175"/>
      </g>
     </g>
     <g id="text_16">
      <!-- 0.08 -->
      <g transform="translate(23.81375 199.253)scale(0.12 -0.12)">
       <use xlink:href="#BitstreamVeraSans-Roman-30"/>
       <use x="63.623046875" xlink:href="#BitstreamVeraSans-Roman-2e"/>
       <use x="95.41015625" xlink:href="#BitstreamVeraSans-Roman-30"/>
       <use x="159.033203125" xlink:href="#BitstreamVeraSans-Roman-38"/>
      </g>
     </g>
    </g>
    <g id="ytick_6">
     <g id="line2d_32">
      <g>
       <use style="stroke:#000000;stroke-width:0.5;" x="54.5325" xlink:href="#mc9614e803a" y="152.74175"/>
      </g>
     </g>
     <g id="line2d_33">
      <g>
       <use style="stroke:#000000;stroke-width:0.5;" x="500.9325" xlink:href="#me90e5207ee" y="152.74175"/>
      </g>
     </g>
     <g id="text_17">
      <!-- 0.10 -->
      <g transform="translate(23.81375 156.053)scale(0.12 -0.12)">
       <use xlink:href="#BitstreamVeraSans-Roman-30"/>
       <use x="63.623046875" xlink:href="#BitstreamVeraSans-Roman-2e"/>
       <use x="95.41015625" xlink:href="#BitstreamVeraSans-Roman-31"/>
       <use x="159.033203125" xlink:href="#BitstreamVeraSans-Roman-30"/>
      </g>
     </g>
    </g>
    <g id="ytick_7">
     <g id="line2d_34">
      <g>
       <use style="stroke:#000000;stroke-width:0.5;" x="54.5325" xlink:href="#mc9614e803a" y="109.54175"/>
      </g>
     </g>
     <g id="line2d_35">
      <g>
       <use style="stroke:#000000;stroke-width:0.5;" x="500.9325" xlink:href="#me90e5207ee" y="109.54175"/>
      </g>
     </g>
     <g id="text_18">
      <!-- 0.12 -->
      <g transform="translate(23.81375 112.853)scale(0.12 -0.12)">
       <use xlink:href="#BitstreamVeraSans-Roman-30"/>
       <use x="63.623046875" xlink:href="#BitstreamVeraSans-Roman-2e"/>
       <use x="95.41015625" xlink:href="#BitstreamVeraSans-Roman-31"/>
       <use x="159.033203125" xlink:href="#BitstreamVeraSans-Roman-32"/>
      </g>
     </g>
    </g>
    <g id="ytick_8">
     <g id="line2d_36">
      <g>
       <use style="stroke:#000000;stroke-width:0.5;" x="54.5325" xlink:href="#mc9614e803a" y="66.34175"/>
      </g>
     </g>
     <g id="line2d_37">
      <g>
       <use style="stroke:#000000;stroke-width:0.5;" x="500.9325" xlink:href="#me90e5207ee" y="66.34175"/>
      </g>
     </g>
     <g id="text_19">
      <!-- 0.14 -->
      <g transform="translate(23.81375 69.653)scale(0.12 -0.12)">
       <use xlink:href="#BitstreamVeraSans-Roman-30"/>
       <use x="63.623046875" xlink:href="#BitstreamVeraSans-Roman-2e"/>
       <use x="95.41015625" xlink:href="#BitstreamVeraSans-Roman-31"/>
       <use x="159.033203125" xlink:href="#BitstreamVeraSans-Roman-34"/>
      </g>
     </g>
    </g>
    <g id="ytick_9">
     <g id="line2d_38">
      <g>
       <use style="stroke:#000000;stroke-width:0.5;" x="54.5325" xlink:href="#mc9614e803a" y="23.14175"/>
      </g>
     </g>
     <g id="line2d_39">
      <g>
       <use style="stroke:#000000;stroke-width:0.5;" x="500.9325" xlink:href="#me90e5207ee" y="23.14175"/>
      </g>
     </g>
     <g id="text_20">
      <!-- 0.16 -->
      <g transform="translate(23.81375 26.453)scale(0.12 -0.12)">
       <use xlink:href="#BitstreamVeraSans-Roman-30"/>
       <use x="63.623046875" xlink:href="#BitstreamVeraSans-Roman-2e"/>
       <use x="95.41015625" xlink:href="#BitstreamVeraSans-Roman-31"/>
       <use x="159.033203125" xlink:href="#BitstreamVeraSans-Roman-36"/>
      </g>
     </g>
    </g>
    <g id="text_21">
     <!-- average maxQ -->
     <defs>
      <path d="M 54.890625 54.6875 
L 35.109375 28.078125 
L 55.90625 0 
L 45.3125 0 
L 29.390625 21.484375 
L 13.484375 0 
L 2.875 0 
L 24.125 28.609375 
L 4.6875 54.6875 
L 15.28125 54.6875 
L 29.78125 35.203125 
L 44.28125 54.6875 
z
" id="BitstreamVeraSans-Roman-78"/>
      <path d="M 45.40625 27.984375 
Q 45.40625 37.75 41.375 43.109375 
Q 37.359375 48.484375 30.078125 48.484375 
Q 22.859375 48.484375 18.828125 43.109375 
Q 14.796875 37.75 14.796875 27.984375 
Q 14.796875 18.265625 18.828125 12.890625 
Q 22.859375 7.515625 30.078125 7.515625 
Q 37.359375 7.515625 41.375 12.890625 
Q 45.40625 18.265625 45.40625 27.984375 
M 54.390625 6.78125 
Q 54.390625 -7.171875 48.1875 -13.984375 
Q 42 -20.796875 29.203125 -20.796875 
Q 24.46875 -20.796875 20.265625 -20.09375 
Q 16.0625 -19.390625 12.109375 -17.921875 
L 12.109375 -9.1875 
Q 16.0625 -11.328125 19.921875 -12.34375 
Q 23.78125 -13.375 27.78125 -13.375 
Q 36.625 -13.375 41.015625 -8.765625 
Q 45.40625 -4.15625 45.40625 5.171875 
L 45.40625 9.625 
Q 42.625 4.78125 38.28125 2.390625 
Q 33.9375 0 27.875 0 
Q 17.828125 0 11.671875 7.65625 
Q 5.515625 15.328125 5.515625 27.984375 
Q 5.515625 40.671875 11.671875 48.328125 
Q 17.828125 56 27.875 56 
Q 33.9375 56 38.28125 53.609375 
Q 42.625 51.21875 45.40625 46.390625 
L 45.40625 54.6875 
L 54.390625 54.6875 
z
" id="BitstreamVeraSans-Roman-67"/>
      <path d="M 2.984375 54.6875 
L 12.5 54.6875 
L 29.59375 8.796875 
L 46.6875 54.6875 
L 56.203125 54.6875 
L 35.6875 0 
L 23.484375 0 
z
" id="BitstreamVeraSans-Roman-76"/>
      <path d="M 39.40625 66.21875 
Q 28.65625 66.21875 22.328125 58.203125 
Q 16.015625 50.203125 16.015625 36.375 
Q 16.015625 22.609375 22.328125 14.59375 
Q 28.65625 6.59375 39.40625 6.59375 
Q 50.140625 6.59375 56.421875 14.59375 
Q 62.703125 22.609375 62.703125 36.375 
Q 62.703125 50.203125 56.421875 58.203125 
Q 50.140625 66.21875 39.40625 66.21875 
M 53.21875 1.3125 
L 66.21875 -12.890625 
L 54.296875 -12.890625 
L 43.5 -1.21875 
Q 41.890625 -1.3125 41.03125 -1.359375 
Q 40.1875 -1.421875 39.40625 -1.421875 
Q 24.03125 -1.421875 14.8125 8.859375 
Q 5.609375 19.140625 5.609375 36.375 
Q 5.609375 53.65625 14.8125 63.9375 
Q 24.03125 74.21875 39.40625 74.21875 
Q 54.734375 74.21875 63.90625 63.9375 
Q 73.09375 53.65625 73.09375 36.375 
Q 73.09375 23.6875 67.984375 14.640625 
Q 62.890625 5.609375 53.21875 1.3125 
" id="BitstreamVeraSans-Roman-51"/>
      <path id="BitstreamVeraSans-Roman-20"/>
      <path d="M 41.109375 46.296875 
Q 39.59375 47.171875 37.8125 47.578125 
Q 36.03125 48 33.890625 48 
Q 26.265625 48 22.1875 43.046875 
Q 18.109375 38.09375 18.109375 28.8125 
L 18.109375 0 
L 9.078125 0 
L 9.078125 54.6875 
L 18.109375 54.6875 
L 18.109375 46.1875 
Q 20.953125 51.171875 25.484375 53.578125 
Q 30.03125 56 36.53125 56 
Q 37.453125 56 38.578125 55.875 
Q 39.703125 55.765625 41.0625 55.515625 
z
" id="BitstreamVeraSans-Roman-72"/>
      <path d="M 34.28125 27.484375 
Q 23.390625 27.484375 19.1875 25 
Q 14.984375 22.515625 14.984375 16.5 
Q 14.984375 11.71875 18.140625 8.90625 
Q 21.296875 6.109375 26.703125 6.109375 
Q 34.1875 6.109375 38.703125 11.40625 
Q 43.21875 16.703125 43.21875 25.484375 
L 43.21875 27.484375 
z
M 52.203125 31.203125 
L 52.203125 0 
L 43.21875 0 
L 43.21875 8.296875 
Q 40.140625 3.328125 35.546875 0.953125 
Q 30.953125 -1.421875 24.3125 -1.421875 
Q 15.921875 -1.421875 10.953125 3.296875 
Q 6 8.015625 6 15.921875 
Q 6 25.140625 12.171875 29.828125 
Q 18.359375 34.515625 30.609375 34.515625 
L 43.21875 34.515625 
L 43.21875 35.40625 
Q 43.21875 41.609375 39.140625 45 
Q 35.0625 48.390625 27.6875 48.390625 
Q 23 48.390625 18.546875 47.265625 
Q 14.109375 46.140625 10.015625 43.890625 
L 10.015625 52.203125 
Q 14.9375 54.109375 19.578125 55.046875 
Q 24.21875 56 28.609375 56 
Q 40.484375 56 46.34375 49.84375 
Q 52.203125 43.703125 52.203125 31.203125 
" id="BitstreamVeraSans-Roman-61"/>
      <path d="M 52 44.1875 
Q 55.375 50.25 60.0625 53.125 
Q 64.75 56 71.09375 56 
Q 79.640625 56 84.28125 50.015625 
Q 88.921875 44.046875 88.921875 33.015625 
L 88.921875 0 
L 79.890625 0 
L 79.890625 32.71875 
Q 79.890625 40.578125 77.09375 44.375 
Q 74.3125 48.1875 68.609375 48.1875 
Q 61.625 48.1875 57.5625 43.546875 
Q 53.515625 38.921875 53.515625 30.90625 
L 53.515625 0 
L 44.484375 0 
L 44.484375 32.71875 
Q 44.484375 40.625 41.703125 44.40625 
Q 38.921875 48.1875 33.109375 48.1875 
Q 26.21875 48.1875 22.15625 43.53125 
Q 18.109375 38.875 18.109375 30.90625 
L 18.109375 0 
L 9.078125 0 
L 9.078125 54.6875 
L 18.109375 54.6875 
L 18.109375 46.1875 
Q 21.1875 51.21875 25.484375 53.609375 
Q 29.78125 56 35.6875 56 
Q 41.65625 56 45.828125 52.96875 
Q 50 49.953125 52 44.1875 
" id="BitstreamVeraSans-Roman-6d"/>
     </defs>
     <g transform="translate(16.318125 240.208625)rotate(-90.0)scale(0.12 -0.12)">
      <use xlink:href="#BitstreamVeraSans-Roman-61"/>
      <use x="61.279296875" xlink:href="#BitstreamVeraSans-Roman-76"/>
      <use x="120.458984375" xlink:href="#BitstreamVeraSans-Roman-65"/>
      <use x="181.982421875" xlink:href="#BitstreamVeraSans-Roman-72"/>
      <use x="223.095703125" xlink:href="#BitstreamVeraSans-Roman-61"/>
      <use x="284.375" xlink:href="#BitstreamVeraSans-Roman-67"/>
      <use x="347.8515625" xlink:href="#BitstreamVeraSans-Roman-65"/>
      <use x="409.375" xlink:href="#BitstreamVeraSans-Roman-20"/>
      <use x="441.162109375" xlink:href="#BitstreamVeraSans-Roman-6d"/>
      <use x="538.57421875" xlink:href="#BitstreamVeraSans-Roman-61"/>
      <use x="599.853515625" xlink:href="#BitstreamVeraSans-Roman-78"/>
      <use x="659.033203125" xlink:href="#BitstreamVeraSans-Roman-51"/>
     </g>
    </g>
   </g>
   <g id="text_22">
    <!-- Average maxQ per episode, joint6 -->
    <defs>
     <path d="M 34.1875 63.1875 
L 20.796875 26.90625 
L 47.609375 26.90625 
z
M 28.609375 72.90625 
L 39.796875 72.90625 
L 67.578125 0 
L 57.328125 0 
L 50.6875 18.703125 
L 17.828125 18.703125 
L 11.1875 0 
L 0.78125 0 
z
" id="BitstreamVeraSans-Roman-41"/>
     <path d="M 11.71875 12.40625 
L 22.015625 12.40625 
L 22.015625 4 
L 14.015625 -11.625 
L 7.71875 -11.625 
L 11.71875 4 
z
" id="BitstreamVeraSans-Roman-2c"/>
     <path d="M 9.421875 54.6875 
L 18.40625 54.6875 
L 18.40625 -0.984375 
Q 18.40625 -11.421875 14.421875 -16.109375 
Q 10.453125 -20.796875 1.609375 -20.796875 
L -1.8125 -20.796875 
L -1.8125 -13.1875 
L 0.59375 -13.1875 
Q 5.71875 -13.1875 7.5625 -10.8125 
Q 9.421875 -8.453125 9.421875 -0.984375 
z
M 9.421875 75.984375 
L 18.40625 75.984375 
L 18.40625 64.59375 
L 9.421875 64.59375 
z
" id="BitstreamVeraSans-Roman-6a"/>
     <path d="M 18.3125 70.21875 
L 18.3125 54.6875 
L 36.8125 54.6875 
L 36.8125 47.703125 
L 18.3125 47.703125 
L 18.3125 18.015625 
Q 18.3125 11.328125 20.140625 9.421875 
Q 21.96875 7.515625 27.59375 7.515625 
L 36.8125 7.515625 
L 36.8125 0 
L 27.59375 0 
Q 17.1875 0 13.234375 3.875 
Q 9.28125 7.765625 9.28125 18.015625 
L 9.28125 47.703125 
L 2.6875 47.703125 
L 2.6875 54.6875 
L 9.28125 54.6875 
L 9.28125 70.21875 
z
" id="BitstreamVeraSans-Roman-74"/>
     <path d="M 54.890625 33.015625 
L 54.890625 0 
L 45.90625 0 
L 45.90625 32.71875 
Q 45.90625 40.484375 42.875 44.328125 
Q 39.84375 48.1875 33.796875 48.1875 
Q 26.515625 48.1875 22.3125 43.546875 
Q 18.109375 38.921875 18.109375 30.90625 
L 18.109375 0 
L 9.078125 0 
L 9.078125 54.6875 
L 18.109375 54.6875 
L 18.109375 46.1875 
Q 21.34375 51.125 25.703125 53.5625 
Q 30.078125 56 35.796875 56 
Q 45.21875 56 50.046875 50.171875 
Q 54.890625 44.34375 54.890625 33.015625 
" id="BitstreamVeraSans-Roman-6e"/>
    </defs>
    <g transform="translate(154.4595 18.14175)scale(0.144 -0.144)">
     <use xlink:href="#BitstreamVeraSans-Roman-41"/>
     <use x="68.330078125" xlink:href="#BitstreamVeraSans-Roman-76"/>
     <use x="127.509765625" xlink:href="#BitstreamVeraSans-Roman-65"/>
     <use x="189.033203125" xlink:href="#BitstreamVeraSans-Roman-72"/>
     <use x="230.146484375" xlink:href="#BitstreamVeraSans-Roman-61"/>
     <use x="291.42578125" xlink:href="#BitstreamVeraSans-Roman-67"/>
     <use x="354.90234375" xlink:href="#BitstreamVeraSans-Roman-65"/>
     <use x="416.42578125" xlink:href="#BitstreamVeraSans-Roman-20"/>
     <use x="448.212890625" xlink:href="#BitstreamVeraSans-Roman-6d"/>
     <use x="545.625" xlink:href="#BitstreamVeraSans-Roman-61"/>
     <use x="606.904296875" xlink:href="#BitstreamVeraSans-Roman-78"/>
     <use x="666.083984375" xlink:href="#BitstreamVeraSans-Roman-51"/>
     <use x="744.794921875" xlink:href="#BitstreamVeraSans-Roman-20"/>
     <use x="776.58203125" xlink:href="#BitstreamVeraSans-Roman-70"/>
     <use x="840.05859375" xlink:href="#BitstreamVeraSans-Roman-65"/>
     <use x="901.58203125" xlink:href="#BitstreamVeraSans-Roman-72"/>
     <use x="942.6953125" xlink:href="#BitstreamVeraSans-Roman-20"/>
     <use x="974.482421875" xlink:href="#BitstreamVeraSans-Roman-65"/>
     <use x="1036.005859375" xlink:href="#BitstreamVeraSans-Roman-70"/>
     <use x="1099.482421875" xlink:href="#BitstreamVeraSans-Roman-69"/>
     <use x="1127.265625" xlink:href="#BitstreamVeraSans-Roman-73"/>
     <use x="1179.365234375" xlink:href="#BitstreamVeraSans-Roman-6f"/>
     <use x="1240.546875" xlink:href="#BitstreamVeraSans-Roman-64"/>
     <use x="1304.0234375" xlink:href="#BitstreamVeraSans-Roman-65"/>
     <use x="1365.546875" xlink:href="#BitstreamVeraSans-Roman-2c"/>
     <use x="1397.333984375" xlink:href="#BitstreamVeraSans-Roman-20"/>
     <use x="1429.12109375" xlink:href="#BitstreamVeraSans-Roman-6a"/>
     <use x="1456.904296875" xlink:href="#BitstreamVeraSans-Roman-6f"/>
     <use x="1518.0859375" xlink:href="#BitstreamVeraSans-Roman-69"/>
     <use x="1545.869140625" xlink:href="#BitstreamVeraSans-Roman-6e"/>
     <use x="1609.248046875" xlink:href="#BitstreamVeraSans-Roman-74"/>
     <use x="1648.45703125" xlink:href="#BitstreamVeraSans-Roman-36"/>
    </g>
   </g>
  </g>
 </g>
 <defs>
  <clipPath id="p7111dcb99e">
   <rect height="345.6" width="446.4" x="54.5325" y="23.14175"/>
  </clipPath>
 </defs>
</svg>
