<?xml version="1.0" encoding="utf-8" standalone="no"?>
<!DOCTYPE svg PUBLIC "-//W3C//DTD SVG 1.1//EN"
  "http://www.w3.org/Graphics/SVG/1.1/DTD/svg11.dtd">
<!-- Created with matplotlib (http://matplotlib.org/) -->
<svg height="408pt" version="1.1" viewBox="0 0 500 408" width="500pt" xmlns="http://www.w3.org/2000/svg" xmlns:xlink="http://www.w3.org/1999/xlink">
 <defs>
  <style type="text/css">
*{stroke-linecap:butt;stroke-linejoin:round;stroke-miterlimit:100000;}
  </style>
 </defs>
 <g id="figure_1">
  <g id="patch_1">
   <path d="M 0 408.16925 
L 500.50125 408.16925 
L 500.50125 0 
L 0 0 
z
" style="fill:#ffffff;"/>
  </g>
  <g id="axes_1">
   <g id="patch_2">
    <path d="M 35.44875 368.74175 
L 481.84875 368.74175 
L 481.84875 23.14175 
L 35.44875 23.14175 
z
" style="fill:#ffffff;"/>
   </g>
   <g id="line2d_1">
    <path clip-path="url(#pfece609d81)" d="M 36.93675 201.564855 
L 38.42475 307.541929 
L 39.91275 341.988143 
L 41.40075 348.260193 
L 42.88875 247.717217 
L 44.37675 202.670395 
L 45.86475 350.494688 
L 47.35275 328.430786 
L 48.84075 336.388494 
L 50.32875 347.286491 
L 51.81675 289.815362 
L 53.30475 320.674176 
L 54.79275 335.467713 
L 56.28075 337.331107 
L 57.76875 307.538132 
L 59.25675 317.134908 
L 60.74475 312.56581 
L 62.23275 334.274572 
L 63.72075 323.432016 
L 65.20875 329.572138 
L 66.69675 309.105695 
L 68.18475 319.24539 
L 69.67275 277.645948 
L 71.16075 302.027077 
L 72.64875 338.116823 
L 74.13675 335.525103 
L 75.62475 242.340454 
L 77.11275 186.769415 
L 78.60075 322.886361 
L 80.08875 347.215168 
L 81.57675 303.575999 
L 83.06475 252.253183 
L 84.55275 353.738053 
L 86.04075 292.767714 
L 87.52875 320.79361 
L 89.01675 344.018275 
L 90.50475 344.093106 
L 91.99275 338.325891 
L 93.48075 338.25422 
L 94.96875 352.759557 
L 96.45675 338.787323 
L 97.94475 351.450931 
L 99.43275 291.290007 
L 100.92075 326.289861 
L 103.89675 340.996443 
L 105.38475 271.329159 
L 106.87275 341.064802 
L 108.36075 344.663494 
L 111.33675 346.535588 
L 112.82475 349.886253 
L 114.31275 347.991101 
L 115.80075 275.157008 
L 117.28875 214.247797 
L 118.77675 315.679433 
L 120.26475 290.482258 
L 121.75275 174.75391 
L 123.24075 329.873251 
L 124.72875 323.849037 
L 126.21675 328.699479 
L 127.70475 295.187968 
L 129.19275 355.655867 
L 130.68075 354.606941 
L 132.16875 351.541863 
L 133.65675 331.870463 
L 135.14475 328.625102 
L 136.63275 244.584337 
L 138.12075 340.15127 
L 139.60875 323.055548 
L 141.09675 299.543268 
L 142.58475 114.704853 
L 144.07275 282.431351 
L 145.56075 330.077148 
L 147.04875 284.467031 
L 148.53675 300.740578 
L 150.02475 333.935642 
L 151.51275 348.302845 
L 153.00075 335.254444 
L 154.48875 291.662911 
L 155.97675 331.996773 
L 157.46475 320.919713 
L 160.44075 343.754145 
L 161.92875 325.235754 
L 163.41675 316.27164 
L 164.90475 346.092912 
L 166.39275 191.658266 
L 167.88075 258.435833 
L 169.36875 293.839175 
L 170.85675 341.896355 
L 172.34475 330.689434 
L 173.83275 285.790727 
L 175.32075 328.742097 
L 176.80875 345.123092 
L 178.29675 279.143898 
L 179.78475 310.364276 
L 181.27275 347.52947 
L 182.76075 324.009108 
L 184.24875 334.032212 
L 185.73675 276.952964 
L 187.22475 171.621481 
L 188.71275 254.440978 
L 190.20075 264.652749 
L 191.68875 338.394454 
L 193.17675 292.919632 
L 194.66475 318.971392 
L 196.15275 353.274896 
L 197.64075 223.036763 
L 199.12875 336.866084 
L 200.61675 338.450922 
L 202.10475 303.524808 
L 203.59275 324.68332 
L 205.08075 310.055643 
L 206.56875 341.242593 
L 208.05675 343.160304 
L 209.54475 304.025263 
L 211.03275 304.862561 
L 212.52075 338.332199 
L 214.00875 327.942009 
L 215.49675 345.076374 
L 216.98475 342.583681 
L 218.47275 326.578152 
L 219.96075 285.13453 
L 221.44875 351.470862 
L 222.93675 350.267406 
L 224.42475 335.293602 
L 225.91275 318.473269 
L 227.40075 348.831093 
L 228.88875 295.758443 
L 230.37675 348.908478 
L 231.86475 343.572626 
L 233.35275 181.741295 
L 234.84075 337.275528 
L 236.32875 310.566118 
L 237.81675 301.60943 
L 239.30475 321.575956 
L 240.79275 327.10187 
L 242.28075 271.263145 
L 243.76875 325.377898 
L 245.25675 263.405018 
L 246.74475 334.707338 
L 248.23275 300.732429 
L 249.72075 129.034968 
L 251.20875 278.4313 
L 252.69675 326.583436 
L 254.18475 335.581012 
L 255.67275 326.039466 
L 257.16075 331.591448 
L 258.64875 173.554866 
L 260.13675 335.938767 
L 261.62475 284.306928 
L 263.11275 330.701107 
L 264.60075 348.675339 
L 266.08875 301.083959 
L 267.57675 336.800508 
L 269.06475 336.061321 
L 270.55275 335.674035 
L 272.04075 354.547437 
L 273.52875 343.876702 
L 275.01675 297.86296 
L 276.50475 354.143449 
L 277.99275 314.025707 
L 279.48075 333.779888 
L 280.96875 326.890893 
L 282.45675 336.907704 
L 283.94475 309.012221 
L 285.43275 344.918654 
L 286.92075 346.603914 
L 288.40875 358.239364 
L 289.89675 332.567775 
L 291.38475 342.038344 
L 292.87275 283.095732 
L 294.36075 343.118222 
L 295.84875 327.362875 
L 297.33675 340.443718 
L 298.82475 318.93533 
L 300.31275 317.234764 
L 301.80075 303.319377 
L 303.28875 324.749958 
L 304.77675 273.478904 
L 306.26475 166.657651 
L 307.75275 344.855313 
L 309.24075 310.60111 
L 310.72875 344.775548 
L 312.21675 317.103968 
L 313.70475 204.838908 
L 315.19275 326.686854 
L 316.68075 338.008143 
L 318.16875 341.365653 
L 319.65675 317.40496 
L 321.14475 285.17953 
L 322.63275 348.205674 
L 324.12075 281.104152 
L 325.60875 339.515535 
L 327.09675 269.958359 
L 328.58475 326.815378 
L 330.07275 255.244886 
L 331.56075 325.342382 
L 333.04875 341.939241 
L 334.53675 330.625046 
L 336.02475 245.806633 
L 337.51275 288.270907 
L 339.00075 295.246695 
L 340.48875 323.131957 
L 341.97675 331.317056 
L 343.46475 335.101232 
L 344.95275 324.176591 
L 346.44075 334.601122 
L 347.92875 303.945565 
L 349.41675 350.479085 
L 350.90475 310.822403 
L 352.39275 351.664886 
L 353.88075 303.991694 
L 355.36875 321.154587 
L 356.85675 316.262332 
L 358.34475 292.683644 
L 359.83275 350.688605 
L 361.32075 340.701301 
L 362.80875 113.283103 
L 364.29675 341.492343 
L 365.78475 348.863808 
L 367.27275 348.880814 
L 368.76075 304.500893 
L 370.24875 315.192942 
L 371.73675 243.646562 
L 373.22475 334.092311 
L 374.71275 345.978529 
L 376.20075 260.609046 
L 377.68875 300.601004 
L 379.17675 355.715772 
L 380.66475 297.359741 
L 382.15275 311.075 
L 383.64075 322.811132 
L 385.12875 297.020167 
L 386.61675 248.805561 
L 388.10475 267.392006 
L 389.59275 348.457007 
L 391.08075 327.141152 
L 392.56875 327.00645 
L 394.05675 290.02384 
L 395.54475 230.246152 
L 397.03275 150.659217 
L 398.52075 232.316918 
L 400.00875 341.554125 
L 401.49675 313.52427 
L 402.98475 348.695115 
L 404.47275 333.584041 
L 405.96075 352.830827 
L 407.44875 345.875086 
L 408.93675 325.109415 
L 410.42475 275.130325 
L 411.91275 252.436062 
L 413.40075 52.889395 
L 414.88875 135.413804 
L 416.37675 134.533012 
L 417.86475 126.514672 
L 419.35275 27.984689 
L 420.84075 91.779039 
L 422.32875 97.249629 
L 423.81675 41.198955 
L 425.30475 30.014085 
L 426.79275 69.621694 
L 428.28075 68.924794 
L 428.28075 68.924794 
" style="fill:none;stroke:#0000ff;stroke-linecap:square;stroke-width:0.5;"/>
   </g>
   <g id="patch_3">
    <path d="M 35.44875 23.14175 
L 481.84875 23.14175 
" style="fill:none;stroke:#000000;stroke-linecap:square;stroke-linejoin:miter;"/>
   </g>
   <g id="patch_4">
    <path d="M 481.84875 368.74175 
L 481.84875 23.14175 
" style="fill:none;stroke:#000000;stroke-linecap:square;stroke-linejoin:miter;"/>
   </g>
   <g id="patch_5">
    <path d="M 35.44875 368.74175 
L 35.44875 23.14175 
" style="fill:none;stroke:#000000;stroke-linecap:square;stroke-linejoin:miter;"/>
   </g>
   <g id="patch_6">
    <path d="M 35.44875 368.74175 
L 481.84875 368.74175 
" style="fill:none;stroke:#000000;stroke-linecap:square;stroke-linejoin:miter;"/>
   </g>
   <g id="matplotlib.axis_1">
    <g id="xtick_1">
     <g id="line2d_2">
      <defs>
       <path d="M 0 0 
L 0 -4 
" id="m5aaba844de" style="stroke:#000000;stroke-width:0.5;"/>
      </defs>
      <g>
       <use style="stroke:#000000;stroke-width:0.5;" x="35.44875" xlink:href="#m5aaba844de" y="368.74175"/>
      </g>
     </g>
     <g id="line2d_3">
      <defs>
       <path d="M 0 0 
L 0 4 
" id="m3f9b90c25b" style="stroke:#000000;stroke-width:0.5;"/>
      </defs>
      <g>
       <use style="stroke:#000000;stroke-width:0.5;" x="35.44875" xlink:href="#m3f9b90c25b" y="23.14175"/>
      </g>
     </g>
     <g id="text_1">
      <!-- 0 -->
      <defs>
       <path d="M 31.78125 66.40625 
Q 24.171875 66.40625 20.328125 58.90625 
Q 16.5 51.421875 16.5 36.375 
Q 16.5 21.390625 20.328125 13.890625 
Q 24.171875 6.390625 31.78125 6.390625 
Q 39.453125 6.390625 43.28125 13.890625 
Q 47.125 21.390625 47.125 36.375 
Q 47.125 51.421875 43.28125 58.90625 
Q 39.453125 66.40625 31.78125 66.40625 
M 31.78125 74.21875 
Q 44.046875 74.21875 50.515625 64.515625 
Q 56.984375 54.828125 56.984375 36.375 
Q 56.984375 17.96875 50.515625 8.265625 
Q 44.046875 -1.421875 31.78125 -1.421875 
Q 19.53125 -1.421875 13.0625 8.265625 
Q 6.59375 17.96875 6.59375 36.375 
Q 6.59375 54.828125 13.0625 64.515625 
Q 19.53125 74.21875 31.78125 74.21875 
" id="BitstreamVeraSans-Roman-30"/>
      </defs>
      <g transform="translate(31.63125 381.859875)scale(0.12 -0.12)">
       <use xlink:href="#BitstreamVeraSans-Roman-30"/>
      </g>
     </g>
    </g>
    <g id="xtick_2">
     <g id="line2d_4">
      <g>
       <use style="stroke:#000000;stroke-width:0.5;" x="109.84875" xlink:href="#m5aaba844de" y="368.74175"/>
      </g>
     </g>
     <g id="line2d_5">
      <g>
       <use style="stroke:#000000;stroke-width:0.5;" x="109.84875" xlink:href="#m3f9b90c25b" y="23.14175"/>
      </g>
     </g>
     <g id="text_2">
      <!-- 50 -->
      <defs>
       <path d="M 10.796875 72.90625 
L 49.515625 72.90625 
L 49.515625 64.59375 
L 19.828125 64.59375 
L 19.828125 46.734375 
Q 21.96875 47.46875 24.109375 47.828125 
Q 26.265625 48.1875 28.421875 48.1875 
Q 40.625 48.1875 47.75 41.5 
Q 54.890625 34.8125 54.890625 23.390625 
Q 54.890625 11.625 47.5625 5.09375 
Q 40.234375 -1.421875 26.90625 -1.421875 
Q 22.3125 -1.421875 17.546875 -0.640625 
Q 12.796875 0.140625 7.71875 1.703125 
L 7.71875 11.625 
Q 12.109375 9.234375 16.796875 8.0625 
Q 21.484375 6.890625 26.703125 6.890625 
Q 35.15625 6.890625 40.078125 11.328125 
Q 45.015625 15.765625 45.015625 23.390625 
Q 45.015625 31 40.078125 35.4375 
Q 35.15625 39.890625 26.703125 39.890625 
Q 22.75 39.890625 18.8125 39.015625 
Q 14.890625 38.140625 10.796875 36.28125 
z
" id="BitstreamVeraSans-Roman-35"/>
      </defs>
      <g transform="translate(102.21375 381.859875)scale(0.12 -0.12)">
       <use xlink:href="#BitstreamVeraSans-Roman-35"/>
       <use x="63.623046875" xlink:href="#BitstreamVeraSans-Roman-30"/>
      </g>
     </g>
    </g>
    <g id="xtick_3">
     <g id="line2d_6">
      <g>
       <use style="stroke:#000000;stroke-width:0.5;" x="184.24875" xlink:href="#m5aaba844de" y="368.74175"/>
      </g>
     </g>
     <g id="line2d_7">
      <g>
       <use style="stroke:#000000;stroke-width:0.5;" x="184.24875" xlink:href="#m3f9b90c25b" y="23.14175"/>
      </g>
     </g>
     <g id="text_3">
      <!-- 100 -->
      <defs>
       <path d="M 12.40625 8.296875 
L 28.515625 8.296875 
L 28.515625 63.921875 
L 10.984375 60.40625 
L 10.984375 69.390625 
L 28.421875 72.90625 
L 38.28125 72.90625 
L 38.28125 8.296875 
L 54.390625 8.296875 
L 54.390625 0 
L 12.40625 0 
z
" id="BitstreamVeraSans-Roman-31"/>
      </defs>
      <g transform="translate(172.79625 381.859875)scale(0.12 -0.12)">
       <use xlink:href="#BitstreamVeraSans-Roman-31"/>
       <use x="63.623046875" xlink:href="#BitstreamVeraSans-Roman-30"/>
       <use x="127.24609375" xlink:href="#BitstreamVeraSans-Roman-30"/>
      </g>
     </g>
    </g>
    <g id="xtick_4">
     <g id="line2d_8">
      <g>
       <use style="stroke:#000000;stroke-width:0.5;" x="258.64875" xlink:href="#m5aaba844de" y="368.74175"/>
      </g>
     </g>
     <g id="line2d_9">
      <g>
       <use style="stroke:#000000;stroke-width:0.5;" x="258.64875" xlink:href="#m3f9b90c25b" y="23.14175"/>
      </g>
     </g>
     <g id="text_4">
      <!-- 150 -->
      <g transform="translate(247.19625 381.859875)scale(0.12 -0.12)">
       <use xlink:href="#BitstreamVeraSans-Roman-31"/>
       <use x="63.623046875" xlink:href="#BitstreamVeraSans-Roman-35"/>
       <use x="127.24609375" xlink:href="#BitstreamVeraSans-Roman-30"/>
      </g>
     </g>
    </g>
    <g id="xtick_5">
     <g id="line2d_10">
      <g>
       <use style="stroke:#000000;stroke-width:0.5;" x="333.04875" xlink:href="#m5aaba844de" y="368.74175"/>
      </g>
     </g>
     <g id="line2d_11">
      <g>
       <use style="stroke:#000000;stroke-width:0.5;" x="333.04875" xlink:href="#m3f9b90c25b" y="23.14175"/>
      </g>
     </g>
     <g id="text_5">
      <!-- 200 -->
      <defs>
       <path d="M 19.1875 8.296875 
L 53.609375 8.296875 
L 53.609375 0 
L 7.328125 0 
L 7.328125 8.296875 
Q 12.9375 14.109375 22.625 23.890625 
Q 32.328125 33.6875 34.8125 36.53125 
Q 39.546875 41.84375 41.421875 45.53125 
Q 43.3125 49.21875 43.3125 52.78125 
Q 43.3125 58.59375 39.234375 62.25 
Q 35.15625 65.921875 28.609375 65.921875 
Q 23.96875 65.921875 18.8125 64.3125 
Q 13.671875 62.703125 7.8125 59.421875 
L 7.8125 69.390625 
Q 13.765625 71.78125 18.9375 73 
Q 24.125 74.21875 28.421875 74.21875 
Q 39.75 74.21875 46.484375 68.546875 
Q 53.21875 62.890625 53.21875 53.421875 
Q 53.21875 48.921875 51.53125 44.890625 
Q 49.859375 40.875 45.40625 35.40625 
Q 44.1875 33.984375 37.640625 27.21875 
Q 31.109375 20.453125 19.1875 8.296875 
" id="BitstreamVeraSans-Roman-32"/>
      </defs>
      <g transform="translate(321.59625 381.859875)scale(0.12 -0.12)">
       <use xlink:href="#BitstreamVeraSans-Roman-32"/>
       <use x="63.623046875" xlink:href="#BitstreamVeraSans-Roman-30"/>
       <use x="127.24609375" xlink:href="#BitstreamVeraSans-Roman-30"/>
      </g>
     </g>
    </g>
    <g id="xtick_6">
     <g id="line2d_12">
      <g>
       <use style="stroke:#000000;stroke-width:0.5;" x="407.44875" xlink:href="#m5aaba844de" y="368.74175"/>
      </g>
     </g>
     <g id="line2d_13">
      <g>
       <use style="stroke:#000000;stroke-width:0.5;" x="407.44875" xlink:href="#m3f9b90c25b" y="23.14175"/>
      </g>
     </g>
     <g id="text_6">
      <!-- 250 -->
      <g transform="translate(395.99625 381.859875)scale(0.12 -0.12)">
       <use xlink:href="#BitstreamVeraSans-Roman-32"/>
       <use x="63.623046875" xlink:href="#BitstreamVeraSans-Roman-35"/>
       <use x="127.24609375" xlink:href="#BitstreamVeraSans-Roman-30"/>
      </g>
     </g>
    </g>
    <g id="xtick_7">
     <g id="line2d_14">
      <g>
       <use style="stroke:#000000;stroke-width:0.5;" x="481.84875" xlink:href="#m5aaba844de" y="368.74175"/>
      </g>
     </g>
     <g id="line2d_15">
      <g>
       <use style="stroke:#000000;stroke-width:0.5;" x="481.84875" xlink:href="#m3f9b90c25b" y="23.14175"/>
      </g>
     </g>
     <g id="text_7">
      <!-- 300 -->
      <defs>
       <path d="M 40.578125 39.3125 
Q 47.65625 37.796875 51.625 33 
Q 55.609375 28.21875 55.609375 21.1875 
Q 55.609375 10.40625 48.1875 4.484375 
Q 40.765625 -1.421875 27.09375 -1.421875 
Q 22.515625 -1.421875 17.65625 -0.515625 
Q 12.796875 0.390625 7.625 2.203125 
L 7.625 11.71875 
Q 11.71875 9.328125 16.59375 8.109375 
Q 21.484375 6.890625 26.8125 6.890625 
Q 36.078125 6.890625 40.9375 10.546875 
Q 45.796875 14.203125 45.796875 21.1875 
Q 45.796875 27.640625 41.28125 31.265625 
Q 36.765625 34.90625 28.71875 34.90625 
L 20.21875 34.90625 
L 20.21875 43.015625 
L 29.109375 43.015625 
Q 36.375 43.015625 40.234375 45.921875 
Q 44.09375 48.828125 44.09375 54.296875 
Q 44.09375 59.90625 40.109375 62.90625 
Q 36.140625 65.921875 28.71875 65.921875 
Q 24.65625 65.921875 20.015625 65.03125 
Q 15.375 64.15625 9.8125 62.3125 
L 9.8125 71.09375 
Q 15.4375 72.65625 20.34375 73.4375 
Q 25.25 74.21875 29.59375 74.21875 
Q 40.828125 74.21875 47.359375 69.109375 
Q 53.90625 64.015625 53.90625 55.328125 
Q 53.90625 49.265625 50.4375 45.09375 
Q 46.96875 40.921875 40.578125 39.3125 
" id="BitstreamVeraSans-Roman-33"/>
      </defs>
      <g transform="translate(470.39625 381.859875)scale(0.12 -0.12)">
       <use xlink:href="#BitstreamVeraSans-Roman-33"/>
       <use x="63.623046875" xlink:href="#BitstreamVeraSans-Roman-30"/>
       <use x="127.24609375" xlink:href="#BitstreamVeraSans-Roman-30"/>
      </g>
     </g>
    </g>
    <g id="text_8">
     <!-- episodes -->
     <defs>
      <path d="M 18.109375 8.203125 
L 18.109375 -20.796875 
L 9.078125 -20.796875 
L 9.078125 54.6875 
L 18.109375 54.6875 
L 18.109375 46.390625 
Q 20.953125 51.265625 25.265625 53.625 
Q 29.59375 56 35.59375 56 
Q 45.5625 56 51.78125 48.09375 
Q 58.015625 40.1875 58.015625 27.296875 
Q 58.015625 14.40625 51.78125 6.484375 
Q 45.5625 -1.421875 35.59375 -1.421875 
Q 29.59375 -1.421875 25.265625 0.953125 
Q 20.953125 3.328125 18.109375 8.203125 
M 48.6875 27.296875 
Q 48.6875 37.203125 44.609375 42.84375 
Q 40.53125 48.484375 33.40625 48.484375 
Q 26.265625 48.484375 22.1875 42.84375 
Q 18.109375 37.203125 18.109375 27.296875 
Q 18.109375 17.390625 22.1875 11.75 
Q 26.265625 6.109375 33.40625 6.109375 
Q 40.53125 6.109375 44.609375 11.75 
Q 48.6875 17.390625 48.6875 27.296875 
" id="BitstreamVeraSans-Roman-70"/>
      <path d="M 44.28125 53.078125 
L 44.28125 44.578125 
Q 40.484375 46.53125 36.375 47.5 
Q 32.28125 48.484375 27.875 48.484375 
Q 21.1875 48.484375 17.84375 46.4375 
Q 14.5 44.390625 14.5 40.28125 
Q 14.5 37.15625 16.890625 35.375 
Q 19.28125 33.59375 26.515625 31.984375 
L 29.59375 31.296875 
Q 39.15625 29.25 43.1875 25.515625 
Q 47.21875 21.78125 47.21875 15.09375 
Q 47.21875 7.46875 41.1875 3.015625 
Q 35.15625 -1.421875 24.609375 -1.421875 
Q 20.21875 -1.421875 15.453125 -0.5625 
Q 10.6875 0.296875 5.421875 2 
L 5.421875 11.28125 
Q 10.40625 8.6875 15.234375 7.390625 
Q 20.0625 6.109375 24.8125 6.109375 
Q 31.15625 6.109375 34.5625 8.28125 
Q 37.984375 10.453125 37.984375 14.40625 
Q 37.984375 18.0625 35.515625 20.015625 
Q 33.0625 21.96875 24.703125 23.78125 
L 21.578125 24.515625 
Q 13.234375 26.265625 9.515625 29.90625 
Q 5.8125 33.546875 5.8125 39.890625 
Q 5.8125 47.609375 11.28125 51.796875 
Q 16.75 56 26.8125 56 
Q 31.78125 56 36.171875 55.265625 
Q 40.578125 54.546875 44.28125 53.078125 
" id="BitstreamVeraSans-Roman-73"/>
      <path d="M 9.421875 54.6875 
L 18.40625 54.6875 
L 18.40625 0 
L 9.421875 0 
z
M 9.421875 75.984375 
L 18.40625 75.984375 
L 18.40625 64.59375 
L 9.421875 64.59375 
z
" id="BitstreamVeraSans-Roman-69"/>
      <path d="M 30.609375 48.390625 
Q 23.390625 48.390625 19.1875 42.75 
Q 14.984375 37.109375 14.984375 27.296875 
Q 14.984375 17.484375 19.15625 11.84375 
Q 23.34375 6.203125 30.609375 6.203125 
Q 37.796875 6.203125 41.984375 11.859375 
Q 46.1875 17.53125 46.1875 27.296875 
Q 46.1875 37.015625 41.984375 42.703125 
Q 37.796875 48.390625 30.609375 48.390625 
M 30.609375 56 
Q 42.328125 56 49.015625 48.375 
Q 55.71875 40.765625 55.71875 27.296875 
Q 55.71875 13.875 49.015625 6.21875 
Q 42.328125 -1.421875 30.609375 -1.421875 
Q 18.84375 -1.421875 12.171875 6.21875 
Q 5.515625 13.875 5.515625 27.296875 
Q 5.515625 40.765625 12.171875 48.375 
Q 18.84375 56 30.609375 56 
" id="BitstreamVeraSans-Roman-6f"/>
      <path d="M 56.203125 29.59375 
L 56.203125 25.203125 
L 14.890625 25.203125 
Q 15.484375 15.921875 20.484375 11.0625 
Q 25.484375 6.203125 34.421875 6.203125 
Q 39.59375 6.203125 44.453125 7.46875 
Q 49.3125 8.734375 54.109375 11.28125 
L 54.109375 2.78125 
Q 49.265625 0.734375 44.1875 -0.34375 
Q 39.109375 -1.421875 33.890625 -1.421875 
Q 20.796875 -1.421875 13.15625 6.1875 
Q 5.515625 13.8125 5.515625 26.8125 
Q 5.515625 40.234375 12.765625 48.109375 
Q 20.015625 56 32.328125 56 
Q 43.359375 56 49.78125 48.890625 
Q 56.203125 41.796875 56.203125 29.59375 
M 47.21875 32.234375 
Q 47.125 39.59375 43.09375 43.984375 
Q 39.0625 48.390625 32.421875 48.390625 
Q 24.90625 48.390625 20.390625 44.140625 
Q 15.875 39.890625 15.1875 32.171875 
z
" id="BitstreamVeraSans-Roman-65"/>
      <path d="M 45.40625 46.390625 
L 45.40625 75.984375 
L 54.390625 75.984375 
L 54.390625 0 
L 45.40625 0 
L 45.40625 8.203125 
Q 42.578125 3.328125 38.25 0.953125 
Q 33.9375 -1.421875 27.875 -1.421875 
Q 17.96875 -1.421875 11.734375 6.484375 
Q 5.515625 14.40625 5.515625 27.296875 
Q 5.515625 40.1875 11.734375 48.09375 
Q 17.96875 56 27.875 56 
Q 33.9375 56 38.25 53.625 
Q 42.578125 51.265625 45.40625 46.390625 
M 14.796875 27.296875 
Q 14.796875 17.390625 18.875 11.75 
Q 22.953125 6.109375 30.078125 6.109375 
Q 37.203125 6.109375 41.296875 11.75 
Q 45.40625 17.390625 45.40625 27.296875 
Q 45.40625 37.203125 41.296875 42.84375 
Q 37.203125 48.484375 30.078125 48.484375 
Q 22.953125 48.484375 18.875 42.84375 
Q 14.796875 37.203125 14.796875 27.296875 
" id="BitstreamVeraSans-Roman-64"/>
     </defs>
     <g transform="translate(232.0575 398.473625)scale(0.12 -0.12)">
      <use xlink:href="#BitstreamVeraSans-Roman-65"/>
      <use x="61.5234375" xlink:href="#BitstreamVeraSans-Roman-70"/>
      <use x="125.0" xlink:href="#BitstreamVeraSans-Roman-69"/>
      <use x="152.783203125" xlink:href="#BitstreamVeraSans-Roman-73"/>
      <use x="204.8828125" xlink:href="#BitstreamVeraSans-Roman-6f"/>
      <use x="266.064453125" xlink:href="#BitstreamVeraSans-Roman-64"/>
      <use x="329.541015625" xlink:href="#BitstreamVeraSans-Roman-65"/>
      <use x="391.064453125" xlink:href="#BitstreamVeraSans-Roman-73"/>
     </g>
    </g>
   </g>
   <g id="matplotlib.axis_2">
    <g id="ytick_1">
     <g id="line2d_16">
      <defs>
       <path d="M 0 0 
L 4 0 
" id="mc3d46939cc" style="stroke:#000000;stroke-width:0.5;"/>
      </defs>
      <g>
       <use style="stroke:#000000;stroke-width:0.5;" x="35.44875" xlink:href="#mc3d46939cc" y="368.74175"/>
      </g>
     </g>
     <g id="line2d_17">
      <defs>
       <path d="M 0 0 
L -4 0 
" id="m67c954f318" style="stroke:#000000;stroke-width:0.5;"/>
      </defs>
      <g>
       <use style="stroke:#000000;stroke-width:0.5;" x="481.84875" xlink:href="#m67c954f318" y="368.74175"/>
      </g>
     </g>
     <g id="text_9">
      <!-- 0 -->
      <g transform="translate(23.81375 372.053)scale(0.12 -0.12)">
       <use xlink:href="#BitstreamVeraSans-Roman-30"/>
      </g>
     </g>
    </g>
    <g id="ytick_2">
     <g id="line2d_18">
      <g>
       <use style="stroke:#000000;stroke-width:0.5;" x="35.44875" xlink:href="#mc3d46939cc" y="325.54175"/>
      </g>
     </g>
     <g id="line2d_19">
      <g>
       <use style="stroke:#000000;stroke-width:0.5;" x="481.84875" xlink:href="#m67c954f318" y="325.54175"/>
      </g>
     </g>
     <g id="text_10">
      <!-- 1 -->
      <g transform="translate(23.81375 328.853)scale(0.12 -0.12)">
       <use xlink:href="#BitstreamVeraSans-Roman-31"/>
      </g>
     </g>
    </g>
    <g id="ytick_3">
     <g id="line2d_20">
      <g>
       <use style="stroke:#000000;stroke-width:0.5;" x="35.44875" xlink:href="#mc3d46939cc" y="282.34175"/>
      </g>
     </g>
     <g id="line2d_21">
      <g>
       <use style="stroke:#000000;stroke-width:0.5;" x="481.84875" xlink:href="#m67c954f318" y="282.34175"/>
      </g>
     </g>
     <g id="text_11">
      <!-- 2 -->
      <g transform="translate(23.81375 285.653)scale(0.12 -0.12)">
       <use xlink:href="#BitstreamVeraSans-Roman-32"/>
      </g>
     </g>
    </g>
    <g id="ytick_4">
     <g id="line2d_22">
      <g>
       <use style="stroke:#000000;stroke-width:0.5;" x="35.44875" xlink:href="#mc3d46939cc" y="239.14175"/>
      </g>
     </g>
     <g id="line2d_23">
      <g>
       <use style="stroke:#000000;stroke-width:0.5;" x="481.84875" xlink:href="#m67c954f318" y="239.14175"/>
      </g>
     </g>
     <g id="text_12">
      <!-- 3 -->
      <g transform="translate(23.81375 242.453)scale(0.12 -0.12)">
       <use xlink:href="#BitstreamVeraSans-Roman-33"/>
      </g>
     </g>
    </g>
    <g id="ytick_5">
     <g id="line2d_24">
      <g>
       <use style="stroke:#000000;stroke-width:0.5;" x="35.44875" xlink:href="#mc3d46939cc" y="195.94175"/>
      </g>
     </g>
     <g id="line2d_25">
      <g>
       <use style="stroke:#000000;stroke-width:0.5;" x="481.84875" xlink:href="#m67c954f318" y="195.94175"/>
      </g>
     </g>
     <g id="text_13">
      <!-- 4 -->
      <defs>
       <path d="M 37.796875 64.3125 
L 12.890625 25.390625 
L 37.796875 25.390625 
z
M 35.203125 72.90625 
L 47.609375 72.90625 
L 47.609375 25.390625 
L 58.015625 25.390625 
L 58.015625 17.1875 
L 47.609375 17.1875 
L 47.609375 0 
L 37.796875 0 
L 37.796875 17.1875 
L 4.890625 17.1875 
L 4.890625 26.703125 
z
" id="BitstreamVeraSans-Roman-34"/>
      </defs>
      <g transform="translate(23.81375 199.253)scale(0.12 -0.12)">
       <use xlink:href="#BitstreamVeraSans-Roman-34"/>
      </g>
     </g>
    </g>
    <g id="ytick_6">
     <g id="line2d_26">
      <g>
       <use style="stroke:#000000;stroke-width:0.5;" x="35.44875" xlink:href="#mc3d46939cc" y="152.74175"/>
      </g>
     </g>
     <g id="line2d_27">
      <g>
       <use style="stroke:#000000;stroke-width:0.5;" x="481.84875" xlink:href="#m67c954f318" y="152.74175"/>
      </g>
     </g>
     <g id="text_14">
      <!-- 5 -->
      <g transform="translate(23.81375 156.053)scale(0.12 -0.12)">
       <use xlink:href="#BitstreamVeraSans-Roman-35"/>
      </g>
     </g>
    </g>
    <g id="ytick_7">
     <g id="line2d_28">
      <g>
       <use style="stroke:#000000;stroke-width:0.5;" x="35.44875" xlink:href="#mc3d46939cc" y="109.54175"/>
      </g>
     </g>
     <g id="line2d_29">
      <g>
       <use style="stroke:#000000;stroke-width:0.5;" x="481.84875" xlink:href="#m67c954f318" y="109.54175"/>
      </g>
     </g>
     <g id="text_15">
      <!-- 6 -->
      <defs>
       <path d="M 33.015625 40.375 
Q 26.375 40.375 22.484375 35.828125 
Q 18.609375 31.296875 18.609375 23.390625 
Q 18.609375 15.53125 22.484375 10.953125 
Q 26.375 6.390625 33.015625 6.390625 
Q 39.65625 6.390625 43.53125 10.953125 
Q 47.40625 15.53125 47.40625 23.390625 
Q 47.40625 31.296875 43.53125 35.828125 
Q 39.65625 40.375 33.015625 40.375 
M 52.59375 71.296875 
L 52.59375 62.3125 
Q 48.875 64.0625 45.09375 64.984375 
Q 41.3125 65.921875 37.59375 65.921875 
Q 27.828125 65.921875 22.671875 59.328125 
Q 17.53125 52.734375 16.796875 39.40625 
Q 19.671875 43.65625 24.015625 45.921875 
Q 28.375 48.1875 33.59375 48.1875 
Q 44.578125 48.1875 50.953125 41.515625 
Q 57.328125 34.859375 57.328125 23.390625 
Q 57.328125 12.15625 50.6875 5.359375 
Q 44.046875 -1.421875 33.015625 -1.421875 
Q 20.359375 -1.421875 13.671875 8.265625 
Q 6.984375 17.96875 6.984375 36.375 
Q 6.984375 53.65625 15.1875 63.9375 
Q 23.390625 74.21875 37.203125 74.21875 
Q 40.921875 74.21875 44.703125 73.484375 
Q 48.484375 72.75 52.59375 71.296875 
" id="BitstreamVeraSans-Roman-36"/>
      </defs>
      <g transform="translate(23.81375 112.853)scale(0.12 -0.12)">
       <use xlink:href="#BitstreamVeraSans-Roman-36"/>
      </g>
     </g>
    </g>
    <g id="ytick_8">
     <g id="line2d_30">
      <g>
       <use style="stroke:#000000;stroke-width:0.5;" x="35.44875" xlink:href="#mc3d46939cc" y="66.34175"/>
      </g>
     </g>
     <g id="line2d_31">
      <g>
       <use style="stroke:#000000;stroke-width:0.5;" x="481.84875" xlink:href="#m67c954f318" y="66.34175"/>
      </g>
     </g>
     <g id="text_16">
      <!-- 7 -->
      <defs>
       <path d="M 8.203125 72.90625 
L 55.078125 72.90625 
L 55.078125 68.703125 
L 28.609375 0 
L 18.3125 0 
L 43.21875 64.59375 
L 8.203125 64.59375 
z
" id="BitstreamVeraSans-Roman-37"/>
      </defs>
      <g transform="translate(23.81375 69.653)scale(0.12 -0.12)">
       <use xlink:href="#BitstreamVeraSans-Roman-37"/>
      </g>
     </g>
    </g>
    <g id="ytick_9">
     <g id="line2d_32">
      <g>
       <use style="stroke:#000000;stroke-width:0.5;" x="35.44875" xlink:href="#mc3d46939cc" y="23.14175"/>
      </g>
     </g>
     <g id="line2d_33">
      <g>
       <use style="stroke:#000000;stroke-width:0.5;" x="481.84875" xlink:href="#m67c954f318" y="23.14175"/>
      </g>
     </g>
     <g id="text_17">
      <!-- 8 -->
      <defs>
       <path d="M 31.78125 34.625 
Q 24.75 34.625 20.71875 30.859375 
Q 16.703125 27.09375 16.703125 20.515625 
Q 16.703125 13.921875 20.71875 10.15625 
Q 24.75 6.390625 31.78125 6.390625 
Q 38.8125 6.390625 42.859375 10.171875 
Q 46.921875 13.96875 46.921875 20.515625 
Q 46.921875 27.09375 42.890625 30.859375 
Q 38.875 34.625 31.78125 34.625 
M 21.921875 38.8125 
Q 15.578125 40.375 12.03125 44.71875 
Q 8.5 49.078125 8.5 55.328125 
Q 8.5 64.0625 14.71875 69.140625 
Q 20.953125 74.21875 31.78125 74.21875 
Q 42.671875 74.21875 48.875 69.140625 
Q 55.078125 64.0625 55.078125 55.328125 
Q 55.078125 49.078125 51.53125 44.71875 
Q 48 40.375 41.703125 38.8125 
Q 48.828125 37.15625 52.796875 32.3125 
Q 56.78125 27.484375 56.78125 20.515625 
Q 56.78125 9.90625 50.3125 4.234375 
Q 43.84375 -1.421875 31.78125 -1.421875 
Q 19.734375 -1.421875 13.25 4.234375 
Q 6.78125 9.90625 6.78125 20.515625 
Q 6.78125 27.484375 10.78125 32.3125 
Q 14.796875 37.15625 21.921875 38.8125 
M 18.3125 54.390625 
Q 18.3125 48.734375 21.84375 45.5625 
Q 25.390625 42.390625 31.78125 42.390625 
Q 38.140625 42.390625 41.71875 45.5625 
Q 45.3125 48.734375 45.3125 54.390625 
Q 45.3125 60.0625 41.71875 63.234375 
Q 38.140625 66.40625 31.78125 66.40625 
Q 25.390625 66.40625 21.84375 63.234375 
Q 18.3125 60.0625 18.3125 54.390625 
" id="BitstreamVeraSans-Roman-38"/>
      </defs>
      <g transform="translate(23.81375 26.453)scale(0.12 -0.12)">
       <use xlink:href="#BitstreamVeraSans-Roman-38"/>
      </g>
     </g>
    </g>
    <g id="text_18">
     <!-- undisc. return -->
     <defs>
      <path d="M 54.890625 33.015625 
L 54.890625 0 
L 45.90625 0 
L 45.90625 32.71875 
Q 45.90625 40.484375 42.875 44.328125 
Q 39.84375 48.1875 33.796875 48.1875 
Q 26.515625 48.1875 22.3125 43.546875 
Q 18.109375 38.921875 18.109375 30.90625 
L 18.109375 0 
L 9.078125 0 
L 9.078125 54.6875 
L 18.109375 54.6875 
L 18.109375 46.1875 
Q 21.34375 51.125 25.703125 53.5625 
Q 30.078125 56 35.796875 56 
Q 45.21875 56 50.046875 50.171875 
Q 54.890625 44.34375 54.890625 33.015625 
" id="BitstreamVeraSans-Roman-6e"/>
      <path d="M 8.5 21.578125 
L 8.5 54.6875 
L 17.484375 54.6875 
L 17.484375 21.921875 
Q 17.484375 14.15625 20.5 10.265625 
Q 23.53125 6.390625 29.59375 6.390625 
Q 36.859375 6.390625 41.078125 11.03125 
Q 45.3125 15.671875 45.3125 23.6875 
L 45.3125 54.6875 
L 54.296875 54.6875 
L 54.296875 0 
L 45.3125 0 
L 45.3125 8.40625 
Q 42.046875 3.421875 37.71875 1 
Q 33.40625 -1.421875 27.6875 -1.421875 
Q 18.265625 -1.421875 13.375 4.4375 
Q 8.5 10.296875 8.5 21.578125 
" id="BitstreamVeraSans-Roman-75"/>
      <path d="M 18.3125 70.21875 
L 18.3125 54.6875 
L 36.8125 54.6875 
L 36.8125 47.703125 
L 18.3125 47.703125 
L 18.3125 18.015625 
Q 18.3125 11.328125 20.140625 9.421875 
Q 21.96875 7.515625 27.59375 7.515625 
L 36.8125 7.515625 
L 36.8125 0 
L 27.59375 0 
Q 17.1875 0 13.234375 3.875 
Q 9.28125 7.765625 9.28125 18.015625 
L 9.28125 47.703125 
L 2.6875 47.703125 
L 2.6875 54.6875 
L 9.28125 54.6875 
L 9.28125 70.21875 
z
" id="BitstreamVeraSans-Roman-74"/>
      <path id="BitstreamVeraSans-Roman-20"/>
      <path d="M 48.78125 52.59375 
L 48.78125 44.1875 
Q 44.96875 46.296875 41.140625 47.34375 
Q 37.3125 48.390625 33.40625 48.390625 
Q 24.65625 48.390625 19.8125 42.84375 
Q 14.984375 37.3125 14.984375 27.296875 
Q 14.984375 17.28125 19.8125 11.734375 
Q 24.65625 6.203125 33.40625 6.203125 
Q 37.3125 6.203125 41.140625 7.25 
Q 44.96875 8.296875 48.78125 10.40625 
L 48.78125 2.09375 
Q 45.015625 0.34375 40.984375 -0.53125 
Q 36.96875 -1.421875 32.421875 -1.421875 
Q 20.0625 -1.421875 12.78125 6.34375 
Q 5.515625 14.109375 5.515625 27.296875 
Q 5.515625 40.671875 12.859375 48.328125 
Q 20.21875 56 33.015625 56 
Q 37.15625 56 41.109375 55.140625 
Q 45.0625 54.296875 48.78125 52.59375 
" id="BitstreamVeraSans-Roman-63"/>
      <path d="M 41.109375 46.296875 
Q 39.59375 47.171875 37.8125 47.578125 
Q 36.03125 48 33.890625 48 
Q 26.265625 48 22.1875 43.046875 
Q 18.109375 38.09375 18.109375 28.8125 
L 18.109375 0 
L 9.078125 0 
L 9.078125 54.6875 
L 18.109375 54.6875 
L 18.109375 46.1875 
Q 20.953125 51.171875 25.484375 53.578125 
Q 30.03125 56 36.53125 56 
Q 37.453125 56 38.578125 55.875 
Q 39.703125 55.765625 41.0625 55.515625 
z
" id="BitstreamVeraSans-Roman-72"/>
      <path d="M 10.6875 12.40625 
L 21 12.40625 
L 21 0 
L 10.6875 0 
z
" id="BitstreamVeraSans-Roman-2e"/>
     </defs>
     <g transform="translate(16.318125 237.8405)rotate(-90.0)scale(0.12 -0.12)">
      <use xlink:href="#BitstreamVeraSans-Roman-75"/>
      <use x="63.37890625" xlink:href="#BitstreamVeraSans-Roman-6e"/>
      <use x="126.7578125" xlink:href="#BitstreamVeraSans-Roman-64"/>
      <use x="190.234375" xlink:href="#BitstreamVeraSans-Roman-69"/>
      <use x="218.017578125" xlink:href="#BitstreamVeraSans-Roman-73"/>
      <use x="270.1171875" xlink:href="#BitstreamVeraSans-Roman-63"/>
      <use x="325.09765625" xlink:href="#BitstreamVeraSans-Roman-2e"/>
      <use x="356.884765625" xlink:href="#BitstreamVeraSans-Roman-20"/>
      <use x="388.671875" xlink:href="#BitstreamVeraSans-Roman-72"/>
      <use x="429.75390625" xlink:href="#BitstreamVeraSans-Roman-65"/>
      <use x="491.27734375" xlink:href="#BitstreamVeraSans-Roman-74"/>
      <use x="530.486328125" xlink:href="#BitstreamVeraSans-Roman-75"/>
      <use x="593.865234375" xlink:href="#BitstreamVeraSans-Roman-72"/>
      <use x="634.962890625" xlink:href="#BitstreamVeraSans-Roman-6e"/>
     </g>
    </g>
   </g>
   <g id="text_19">
    <!-- Undiscounted return obtained -->
    <defs>
     <path d="M 34.28125 27.484375 
Q 23.390625 27.484375 19.1875 25 
Q 14.984375 22.515625 14.984375 16.5 
Q 14.984375 11.71875 18.140625 8.90625 
Q 21.296875 6.109375 26.703125 6.109375 
Q 34.1875 6.109375 38.703125 11.40625 
Q 43.21875 16.703125 43.21875 25.484375 
L 43.21875 27.484375 
z
M 52.203125 31.203125 
L 52.203125 0 
L 43.21875 0 
L 43.21875 8.296875 
Q 40.140625 3.328125 35.546875 0.953125 
Q 30.953125 -1.421875 24.3125 -1.421875 
Q 15.921875 -1.421875 10.953125 3.296875 
Q 6 8.015625 6 15.921875 
Q 6 25.140625 12.171875 29.828125 
Q 18.359375 34.515625 30.609375 34.515625 
L 43.21875 34.515625 
L 43.21875 35.40625 
Q 43.21875 41.609375 39.140625 45 
Q 35.0625 48.390625 27.6875 48.390625 
Q 23 48.390625 18.546875 47.265625 
Q 14.109375 46.140625 10.015625 43.890625 
L 10.015625 52.203125 
Q 14.9375 54.109375 19.578125 55.046875 
Q 24.21875 56 28.609375 56 
Q 40.484375 56 46.34375 49.84375 
Q 52.203125 43.703125 52.203125 31.203125 
" id="BitstreamVeraSans-Roman-61"/>
     <path d="M 48.6875 27.296875 
Q 48.6875 37.203125 44.609375 42.84375 
Q 40.53125 48.484375 33.40625 48.484375 
Q 26.265625 48.484375 22.1875 42.84375 
Q 18.109375 37.203125 18.109375 27.296875 
Q 18.109375 17.390625 22.1875 11.75 
Q 26.265625 6.109375 33.40625 6.109375 
Q 40.53125 6.109375 44.609375 11.75 
Q 48.6875 17.390625 48.6875 27.296875 
M 18.109375 46.390625 
Q 20.953125 51.265625 25.265625 53.625 
Q 29.59375 56 35.59375 56 
Q 45.5625 56 51.78125 48.09375 
Q 58.015625 40.1875 58.015625 27.296875 
Q 58.015625 14.40625 51.78125 6.484375 
Q 45.5625 -1.421875 35.59375 -1.421875 
Q 29.59375 -1.421875 25.265625 0.953125 
Q 20.953125 3.328125 18.109375 8.203125 
L 18.109375 0 
L 9.078125 0 
L 9.078125 75.984375 
L 18.109375 75.984375 
z
" id="BitstreamVeraSans-Roman-62"/>
     <path d="M 8.6875 72.90625 
L 18.609375 72.90625 
L 18.609375 28.609375 
Q 18.609375 16.890625 22.84375 11.734375 
Q 27.09375 6.59375 36.625 6.59375 
Q 46.09375 6.59375 50.34375 11.734375 
Q 54.59375 16.890625 54.59375 28.609375 
L 54.59375 72.90625 
L 64.5 72.90625 
L 64.5 27.390625 
Q 64.5 13.140625 57.4375 5.859375 
Q 50.390625 -1.421875 36.625 -1.421875 
Q 22.796875 -1.421875 15.734375 5.859375 
Q 8.6875 13.140625 8.6875 27.390625 
z
" id="BitstreamVeraSans-Roman-55"/>
    </defs>
    <g transform="translate(150.532875 18.14175)scale(0.144 -0.144)">
     <use xlink:href="#BitstreamVeraSans-Roman-55"/>
     <use x="73.193359375" xlink:href="#BitstreamVeraSans-Roman-6e"/>
     <use x="136.572265625" xlink:href="#BitstreamVeraSans-Roman-64"/>
     <use x="200.048828125" xlink:href="#BitstreamVeraSans-Roman-69"/>
     <use x="227.83203125" xlink:href="#BitstreamVeraSans-Roman-73"/>
     <use x="279.931640625" xlink:href="#BitstreamVeraSans-Roman-63"/>
     <use x="334.912109375" xlink:href="#BitstreamVeraSans-Roman-6f"/>
     <use x="396.09375" xlink:href="#BitstreamVeraSans-Roman-75"/>
     <use x="459.47265625" xlink:href="#BitstreamVeraSans-Roman-6e"/>
     <use x="522.8515625" xlink:href="#BitstreamVeraSans-Roman-74"/>
     <use x="562.060546875" xlink:href="#BitstreamVeraSans-Roman-65"/>
     <use x="623.583984375" xlink:href="#BitstreamVeraSans-Roman-64"/>
     <use x="687.060546875" xlink:href="#BitstreamVeraSans-Roman-20"/>
     <use x="718.84765625" xlink:href="#BitstreamVeraSans-Roman-72"/>
     <use x="759.9296875" xlink:href="#BitstreamVeraSans-Roman-65"/>
     <use x="821.453125" xlink:href="#BitstreamVeraSans-Roman-74"/>
     <use x="860.662109375" xlink:href="#BitstreamVeraSans-Roman-75"/>
     <use x="924.041015625" xlink:href="#BitstreamVeraSans-Roman-72"/>
     <use x="965.138671875" xlink:href="#BitstreamVeraSans-Roman-6e"/>
     <use x="1028.517578125" xlink:href="#BitstreamVeraSans-Roman-20"/>
     <use x="1060.3046875" xlink:href="#BitstreamVeraSans-Roman-6f"/>
     <use x="1121.486328125" xlink:href="#BitstreamVeraSans-Roman-62"/>
     <use x="1184.962890625" xlink:href="#BitstreamVeraSans-Roman-74"/>
     <use x="1224.171875" xlink:href="#BitstreamVeraSans-Roman-61"/>
     <use x="1285.451171875" xlink:href="#BitstreamVeraSans-Roman-69"/>
     <use x="1313.234375" xlink:href="#BitstreamVeraSans-Roman-6e"/>
     <use x="1376.61328125" xlink:href="#BitstreamVeraSans-Roman-65"/>
     <use x="1438.13671875" xlink:href="#BitstreamVeraSans-Roman-64"/>
    </g>
   </g>
  </g>
 </g>
 <defs>
  <clipPath id="pfece609d81">
   <rect height="345.6" width="446.4" x="35.44875" y="23.14175"/>
  </clipPath>
 </defs>
</svg>
