<?xml version="1.0" encoding="utf-8" standalone="no"?>
<!DOCTYPE svg PUBLIC "-//W3C//DTD SVG 1.1//EN"
  "http://www.w3.org/Graphics/SVG/1.1/DTD/svg11.dtd">
<!-- Created with matplotlib (http://matplotlib.org/) -->
<svg height="325pt" version="1.1" viewBox="0 0 411 325" width="411pt" xmlns="http://www.w3.org/2000/svg" xmlns:xlink="http://www.w3.org/1999/xlink">
 <defs>
  <style type="text/css">
*{stroke-linecap:butt;stroke-linejoin:round;}
  </style>
 </defs>
 <g id="figure_1">
  <g id="patch_1">
   <path d="M 0 325.986375 
L 411.60125 325.986375 
L 411.60125 0 
L 0 0 
z
" style="fill:#ffffff;"/>
  </g>
  <g id="axes_1">
   <g id="patch_2">
    <path d="M 43.78125 288.430125 
L 400.90125 288.430125 
L 400.90125 22.318125 
L 43.78125 22.318125 
z
" style="fill:#ffffff;"/>
   </g>
   <g id="matplotlib.axis_1">
    <g id="xtick_1">
     <g id="line2d_1">
      <defs>
       <path d="M 0 0 
L 0 3.5 
" id="m424531e428" style="stroke:#000000;stroke-width:0.8;"/>
      </defs>
      <g>
       <use style="stroke:#000000;stroke-width:0.8;" x="59.760539" xlink:href="#m424531e428" y="288.430125"/>
      </g>
     </g>
     <g id="text_1">
      <!-- 0 -->
      <defs>
       <path d="M 31.78125 66.40625 
Q 24.171875 66.40625 20.328125 58.90625 
Q 16.5 51.421875 16.5 36.375 
Q 16.5 21.390625 20.328125 13.890625 
Q 24.171875 6.390625 31.78125 6.390625 
Q 39.453125 6.390625 43.28125 13.890625 
Q 47.125 21.390625 47.125 36.375 
Q 47.125 51.421875 43.28125 58.90625 
Q 39.453125 66.40625 31.78125 66.40625 
z
M 31.78125 74.21875 
Q 44.046875 74.21875 50.515625 64.515625 
Q 56.984375 54.828125 56.984375 36.375 
Q 56.984375 17.96875 50.515625 8.265625 
Q 44.046875 -1.421875 31.78125 -1.421875 
Q 19.53125 -1.421875 13.0625 8.265625 
Q 6.59375 17.96875 6.59375 36.375 
Q 6.59375 54.828125 13.0625 64.515625 
Q 19.53125 74.21875 31.78125 74.21875 
z
" id="DejaVuSans-30"/>
      </defs>
      <g transform="translate(56.579289 303.028562)scale(0.1 -0.1)">
       <use xlink:href="#DejaVuSans-30"/>
      </g>
     </g>
    </g>
    <g id="xtick_2">
     <g id="line2d_2">
      <g>
       <use style="stroke:#000000;stroke-width:0.8;" x="110.448212" xlink:href="#m424531e428" y="288.430125"/>
      </g>
     </g>
     <g id="text_2">
      <!-- 200 -->
      <defs>
       <path d="M 19.1875 8.296875 
L 53.609375 8.296875 
L 53.609375 0 
L 7.328125 0 
L 7.328125 8.296875 
Q 12.9375 14.109375 22.625 23.890625 
Q 32.328125 33.6875 34.8125 36.53125 
Q 39.546875 41.84375 41.421875 45.53125 
Q 43.3125 49.21875 43.3125 52.78125 
Q 43.3125 58.59375 39.234375 62.25 
Q 35.15625 65.921875 28.609375 65.921875 
Q 23.96875 65.921875 18.8125 64.3125 
Q 13.671875 62.703125 7.8125 59.421875 
L 7.8125 69.390625 
Q 13.765625 71.78125 18.9375 73 
Q 24.125 74.21875 28.421875 74.21875 
Q 39.75 74.21875 46.484375 68.546875 
Q 53.21875 62.890625 53.21875 53.421875 
Q 53.21875 48.921875 51.53125 44.890625 
Q 49.859375 40.875 45.40625 35.40625 
Q 44.1875 33.984375 37.640625 27.21875 
Q 31.109375 20.453125 19.1875 8.296875 
z
" id="DejaVuSans-32"/>
      </defs>
      <g transform="translate(100.904462 303.028562)scale(0.1 -0.1)">
       <use xlink:href="#DejaVuSans-32"/>
       <use x="63.623047" xlink:href="#DejaVuSans-30"/>
       <use x="127.246094" xlink:href="#DejaVuSans-30"/>
      </g>
     </g>
    </g>
    <g id="xtick_3">
     <g id="line2d_3">
      <g>
       <use style="stroke:#000000;stroke-width:0.8;" x="161.135885" xlink:href="#m424531e428" y="288.430125"/>
      </g>
     </g>
     <g id="text_3">
      <!-- 400 -->
      <defs>
       <path d="M 37.796875 64.3125 
L 12.890625 25.390625 
L 37.796875 25.390625 
z
M 35.203125 72.90625 
L 47.609375 72.90625 
L 47.609375 25.390625 
L 58.015625 25.390625 
L 58.015625 17.1875 
L 47.609375 17.1875 
L 47.609375 0 
L 37.796875 0 
L 37.796875 17.1875 
L 4.890625 17.1875 
L 4.890625 26.703125 
z
" id="DejaVuSans-34"/>
      </defs>
      <g transform="translate(151.592135 303.028562)scale(0.1 -0.1)">
       <use xlink:href="#DejaVuSans-34"/>
       <use x="63.623047" xlink:href="#DejaVuSans-30"/>
       <use x="127.246094" xlink:href="#DejaVuSans-30"/>
      </g>
     </g>
    </g>
    <g id="xtick_4">
     <g id="line2d_4">
      <g>
       <use style="stroke:#000000;stroke-width:0.8;" x="211.823558" xlink:href="#m424531e428" y="288.430125"/>
      </g>
     </g>
     <g id="text_4">
      <!-- 600 -->
      <defs>
       <path d="M 33.015625 40.375 
Q 26.375 40.375 22.484375 35.828125 
Q 18.609375 31.296875 18.609375 23.390625 
Q 18.609375 15.53125 22.484375 10.953125 
Q 26.375 6.390625 33.015625 6.390625 
Q 39.65625 6.390625 43.53125 10.953125 
Q 47.40625 15.53125 47.40625 23.390625 
Q 47.40625 31.296875 43.53125 35.828125 
Q 39.65625 40.375 33.015625 40.375 
z
M 52.59375 71.296875 
L 52.59375 62.3125 
Q 48.875 64.0625 45.09375 64.984375 
Q 41.3125 65.921875 37.59375 65.921875 
Q 27.828125 65.921875 22.671875 59.328125 
Q 17.53125 52.734375 16.796875 39.40625 
Q 19.671875 43.65625 24.015625 45.921875 
Q 28.375 48.1875 33.59375 48.1875 
Q 44.578125 48.1875 50.953125 41.515625 
Q 57.328125 34.859375 57.328125 23.390625 
Q 57.328125 12.15625 50.6875 5.359375 
Q 44.046875 -1.421875 33.015625 -1.421875 
Q 20.359375 -1.421875 13.671875 8.265625 
Q 6.984375 17.96875 6.984375 36.375 
Q 6.984375 53.65625 15.1875 63.9375 
Q 23.390625 74.21875 37.203125 74.21875 
Q 40.921875 74.21875 44.703125 73.484375 
Q 48.484375 72.75 52.59375 71.296875 
z
" id="DejaVuSans-36"/>
      </defs>
      <g transform="translate(202.279808 303.028562)scale(0.1 -0.1)">
       <use xlink:href="#DejaVuSans-36"/>
       <use x="63.623047" xlink:href="#DejaVuSans-30"/>
       <use x="127.246094" xlink:href="#DejaVuSans-30"/>
      </g>
     </g>
    </g>
    <g id="xtick_5">
     <g id="line2d_5">
      <g>
       <use style="stroke:#000000;stroke-width:0.8;" x="262.511231" xlink:href="#m424531e428" y="288.430125"/>
      </g>
     </g>
     <g id="text_5">
      <!-- 800 -->
      <defs>
       <path d="M 31.78125 34.625 
Q 24.75 34.625 20.71875 30.859375 
Q 16.703125 27.09375 16.703125 20.515625 
Q 16.703125 13.921875 20.71875 10.15625 
Q 24.75 6.390625 31.78125 6.390625 
Q 38.8125 6.390625 42.859375 10.171875 
Q 46.921875 13.96875 46.921875 20.515625 
Q 46.921875 27.09375 42.890625 30.859375 
Q 38.875 34.625 31.78125 34.625 
z
M 21.921875 38.8125 
Q 15.578125 40.375 12.03125 44.71875 
Q 8.5 49.078125 8.5 55.328125 
Q 8.5 64.0625 14.71875 69.140625 
Q 20.953125 74.21875 31.78125 74.21875 
Q 42.671875 74.21875 48.875 69.140625 
Q 55.078125 64.0625 55.078125 55.328125 
Q 55.078125 49.078125 51.53125 44.71875 
Q 48 40.375 41.703125 38.8125 
Q 48.828125 37.15625 52.796875 32.3125 
Q 56.78125 27.484375 56.78125 20.515625 
Q 56.78125 9.90625 50.3125 4.234375 
Q 43.84375 -1.421875 31.78125 -1.421875 
Q 19.734375 -1.421875 13.25 4.234375 
Q 6.78125 9.90625 6.78125 20.515625 
Q 6.78125 27.484375 10.78125 32.3125 
Q 14.796875 37.15625 21.921875 38.8125 
z
M 18.3125 54.390625 
Q 18.3125 48.734375 21.84375 45.5625 
Q 25.390625 42.390625 31.78125 42.390625 
Q 38.140625 42.390625 41.71875 45.5625 
Q 45.3125 48.734375 45.3125 54.390625 
Q 45.3125 60.0625 41.71875 63.234375 
Q 38.140625 66.40625 31.78125 66.40625 
Q 25.390625 66.40625 21.84375 63.234375 
Q 18.3125 60.0625 18.3125 54.390625 
z
" id="DejaVuSans-38"/>
      </defs>
      <g transform="translate(252.967481 303.028562)scale(0.1 -0.1)">
       <use xlink:href="#DejaVuSans-38"/>
       <use x="63.623047" xlink:href="#DejaVuSans-30"/>
       <use x="127.246094" xlink:href="#DejaVuSans-30"/>
      </g>
     </g>
    </g>
    <g id="xtick_6">
     <g id="line2d_6">
      <g>
       <use style="stroke:#000000;stroke-width:0.8;" x="313.198904" xlink:href="#m424531e428" y="288.430125"/>
      </g>
     </g>
     <g id="text_6">
      <!-- 1000 -->
      <defs>
       <path d="M 12.40625 8.296875 
L 28.515625 8.296875 
L 28.515625 63.921875 
L 10.984375 60.40625 
L 10.984375 69.390625 
L 28.421875 72.90625 
L 38.28125 72.90625 
L 38.28125 8.296875 
L 54.390625 8.296875 
L 54.390625 0 
L 12.40625 0 
z
" id="DejaVuSans-31"/>
      </defs>
      <g transform="translate(300.473904 303.028562)scale(0.1 -0.1)">
       <use xlink:href="#DejaVuSans-31"/>
       <use x="63.623047" xlink:href="#DejaVuSans-30"/>
       <use x="127.246094" xlink:href="#DejaVuSans-30"/>
       <use x="190.869141" xlink:href="#DejaVuSans-30"/>
      </g>
     </g>
    </g>
    <g id="xtick_7">
     <g id="line2d_7">
      <g>
       <use style="stroke:#000000;stroke-width:0.8;" x="363.886577" xlink:href="#m424531e428" y="288.430125"/>
      </g>
     </g>
     <g id="text_7">
      <!-- 1200 -->
      <g transform="translate(351.161577 303.028562)scale(0.1 -0.1)">
       <use xlink:href="#DejaVuSans-31"/>
       <use x="63.623047" xlink:href="#DejaVuSans-32"/>
       <use x="127.246094" xlink:href="#DejaVuSans-30"/>
       <use x="190.869141" xlink:href="#DejaVuSans-30"/>
      </g>
     </g>
    </g>
    <g id="text_8">
     <!-- episodes -->
     <defs>
      <path d="M 56.203125 29.59375 
L 56.203125 25.203125 
L 14.890625 25.203125 
Q 15.484375 15.921875 20.484375 11.0625 
Q 25.484375 6.203125 34.421875 6.203125 
Q 39.59375 6.203125 44.453125 7.46875 
Q 49.3125 8.734375 54.109375 11.28125 
L 54.109375 2.78125 
Q 49.265625 0.734375 44.1875 -0.34375 
Q 39.109375 -1.421875 33.890625 -1.421875 
Q 20.796875 -1.421875 13.15625 6.1875 
Q 5.515625 13.8125 5.515625 26.8125 
Q 5.515625 40.234375 12.765625 48.109375 
Q 20.015625 56 32.328125 56 
Q 43.359375 56 49.78125 48.890625 
Q 56.203125 41.796875 56.203125 29.59375 
z
M 47.21875 32.234375 
Q 47.125 39.59375 43.09375 43.984375 
Q 39.0625 48.390625 32.421875 48.390625 
Q 24.90625 48.390625 20.390625 44.140625 
Q 15.875 39.890625 15.1875 32.171875 
z
" id="DejaVuSans-65"/>
      <path d="M 18.109375 8.203125 
L 18.109375 -20.796875 
L 9.078125 -20.796875 
L 9.078125 54.6875 
L 18.109375 54.6875 
L 18.109375 46.390625 
Q 20.953125 51.265625 25.265625 53.625 
Q 29.59375 56 35.59375 56 
Q 45.5625 56 51.78125 48.09375 
Q 58.015625 40.1875 58.015625 27.296875 
Q 58.015625 14.40625 51.78125 6.484375 
Q 45.5625 -1.421875 35.59375 -1.421875 
Q 29.59375 -1.421875 25.265625 0.953125 
Q 20.953125 3.328125 18.109375 8.203125 
z
M 48.6875 27.296875 
Q 48.6875 37.203125 44.609375 42.84375 
Q 40.53125 48.484375 33.40625 48.484375 
Q 26.265625 48.484375 22.1875 42.84375 
Q 18.109375 37.203125 18.109375 27.296875 
Q 18.109375 17.390625 22.1875 11.75 
Q 26.265625 6.109375 33.40625 6.109375 
Q 40.53125 6.109375 44.609375 11.75 
Q 48.6875 17.390625 48.6875 27.296875 
z
" id="DejaVuSans-70"/>
      <path d="M 9.421875 54.6875 
L 18.40625 54.6875 
L 18.40625 0 
L 9.421875 0 
z
M 9.421875 75.984375 
L 18.40625 75.984375 
L 18.40625 64.59375 
L 9.421875 64.59375 
z
" id="DejaVuSans-69"/>
      <path d="M 44.28125 53.078125 
L 44.28125 44.578125 
Q 40.484375 46.53125 36.375 47.5 
Q 32.28125 48.484375 27.875 48.484375 
Q 21.1875 48.484375 17.84375 46.4375 
Q 14.5 44.390625 14.5 40.28125 
Q 14.5 37.15625 16.890625 35.375 
Q 19.28125 33.59375 26.515625 31.984375 
L 29.59375 31.296875 
Q 39.15625 29.25 43.1875 25.515625 
Q 47.21875 21.78125 47.21875 15.09375 
Q 47.21875 7.46875 41.1875 3.015625 
Q 35.15625 -1.421875 24.609375 -1.421875 
Q 20.21875 -1.421875 15.453125 -0.5625 
Q 10.6875 0.296875 5.421875 2 
L 5.421875 11.28125 
Q 10.40625 8.6875 15.234375 7.390625 
Q 20.0625 6.109375 24.8125 6.109375 
Q 31.15625 6.109375 34.5625 8.28125 
Q 37.984375 10.453125 37.984375 14.40625 
Q 37.984375 18.0625 35.515625 20.015625 
Q 33.0625 21.96875 24.703125 23.78125 
L 21.578125 24.515625 
Q 13.234375 26.265625 9.515625 29.90625 
Q 5.8125 33.546875 5.8125 39.890625 
Q 5.8125 47.609375 11.28125 51.796875 
Q 16.75 56 26.8125 56 
Q 31.78125 56 36.171875 55.265625 
Q 40.578125 54.546875 44.28125 53.078125 
z
" id="DejaVuSans-73"/>
      <path d="M 30.609375 48.390625 
Q 23.390625 48.390625 19.1875 42.75 
Q 14.984375 37.109375 14.984375 27.296875 
Q 14.984375 17.484375 19.15625 11.84375 
Q 23.34375 6.203125 30.609375 6.203125 
Q 37.796875 6.203125 41.984375 11.859375 
Q 46.1875 17.53125 46.1875 27.296875 
Q 46.1875 37.015625 41.984375 42.703125 
Q 37.796875 48.390625 30.609375 48.390625 
z
M 30.609375 56 
Q 42.328125 56 49.015625 48.375 
Q 55.71875 40.765625 55.71875 27.296875 
Q 55.71875 13.875 49.015625 6.21875 
Q 42.328125 -1.421875 30.609375 -1.421875 
Q 18.84375 -1.421875 12.171875 6.21875 
Q 5.515625 13.875 5.515625 27.296875 
Q 5.515625 40.765625 12.171875 48.375 
Q 18.84375 56 30.609375 56 
z
" id="DejaVuSans-6f"/>
      <path d="M 45.40625 46.390625 
L 45.40625 75.984375 
L 54.390625 75.984375 
L 54.390625 0 
L 45.40625 0 
L 45.40625 8.203125 
Q 42.578125 3.328125 38.25 0.953125 
Q 33.9375 -1.421875 27.875 -1.421875 
Q 17.96875 -1.421875 11.734375 6.484375 
Q 5.515625 14.40625 5.515625 27.296875 
Q 5.515625 40.1875 11.734375 48.09375 
Q 17.96875 56 27.875 56 
Q 33.9375 56 38.25 53.625 
Q 42.578125 51.265625 45.40625 46.390625 
z
M 14.796875 27.296875 
Q 14.796875 17.390625 18.875 11.75 
Q 22.953125 6.109375 30.078125 6.109375 
Q 37.203125 6.109375 41.296875 11.75 
Q 45.40625 17.390625 45.40625 27.296875 
Q 45.40625 37.203125 41.296875 42.84375 
Q 37.203125 48.484375 30.078125 48.484375 
Q 22.953125 48.484375 18.875 42.84375 
Q 14.796875 37.203125 14.796875 27.296875 
z
" id="DejaVuSans-64"/>
     </defs>
     <g transform="translate(200.181875 316.706687)scale(0.1 -0.1)">
      <use xlink:href="#DejaVuSans-65"/>
      <use x="61.523438" xlink:href="#DejaVuSans-70"/>
      <use x="125" xlink:href="#DejaVuSans-69"/>
      <use x="152.783203" xlink:href="#DejaVuSans-73"/>
      <use x="204.882812" xlink:href="#DejaVuSans-6f"/>
      <use x="266.064453" xlink:href="#DejaVuSans-64"/>
      <use x="329.541016" xlink:href="#DejaVuSans-65"/>
      <use x="391.064453" xlink:href="#DejaVuSans-73"/>
     </g>
    </g>
   </g>
   <g id="matplotlib.axis_2">
    <g id="ytick_1">
     <g id="line2d_8">
      <defs>
       <path d="M 0 0 
L -3.5 0 
" id="mdd7dabb090" style="stroke:#000000;stroke-width:0.8;"/>
      </defs>
      <g>
       <use style="stroke:#000000;stroke-width:0.8;" x="43.78125" xlink:href="#mdd7dabb090" y="282.193468"/>
      </g>
     </g>
     <g id="text_9">
      <!-- 1.0 -->
      <defs>
       <path d="M 10.6875 12.40625 
L 21 12.40625 
L 21 0 
L 10.6875 0 
z
" id="DejaVuSans-2e"/>
      </defs>
      <g transform="translate(20.878125 285.992686)scale(0.1 -0.1)">
       <use xlink:href="#DejaVuSans-31"/>
       <use x="63.623047" xlink:href="#DejaVuSans-2e"/>
       <use x="95.410156" xlink:href="#DejaVuSans-30"/>
      </g>
     </g>
    </g>
    <g id="ytick_2">
     <g id="line2d_9">
      <g>
       <use style="stroke:#000000;stroke-width:0.8;" x="43.78125" xlink:href="#mdd7dabb090" y="241.701232"/>
      </g>
     </g>
     <g id="text_10">
      <!-- 1.5 -->
      <defs>
       <path d="M 10.796875 72.90625 
L 49.515625 72.90625 
L 49.515625 64.59375 
L 19.828125 64.59375 
L 19.828125 46.734375 
Q 21.96875 47.46875 24.109375 47.828125 
Q 26.265625 48.1875 28.421875 48.1875 
Q 40.625 48.1875 47.75 41.5 
Q 54.890625 34.8125 54.890625 23.390625 
Q 54.890625 11.625 47.5625 5.09375 
Q 40.234375 -1.421875 26.90625 -1.421875 
Q 22.3125 -1.421875 17.546875 -0.640625 
Q 12.796875 0.140625 7.71875 1.703125 
L 7.71875 11.625 
Q 12.109375 9.234375 16.796875 8.0625 
Q 21.484375 6.890625 26.703125 6.890625 
Q 35.15625 6.890625 40.078125 11.328125 
Q 45.015625 15.765625 45.015625 23.390625 
Q 45.015625 31 40.078125 35.4375 
Q 35.15625 39.890625 26.703125 39.890625 
Q 22.75 39.890625 18.8125 39.015625 
Q 14.890625 38.140625 10.796875 36.28125 
z
" id="DejaVuSans-35"/>
      </defs>
      <g transform="translate(20.878125 245.50045)scale(0.1 -0.1)">
       <use xlink:href="#DejaVuSans-31"/>
       <use x="63.623047" xlink:href="#DejaVuSans-2e"/>
       <use x="95.410156" xlink:href="#DejaVuSans-35"/>
      </g>
     </g>
    </g>
    <g id="ytick_3">
     <g id="line2d_10">
      <g>
       <use style="stroke:#000000;stroke-width:0.8;" x="43.78125" xlink:href="#mdd7dabb090" y="201.208996"/>
      </g>
     </g>
     <g id="text_11">
      <!-- 2.0 -->
      <g transform="translate(20.878125 205.008214)scale(0.1 -0.1)">
       <use xlink:href="#DejaVuSans-32"/>
       <use x="63.623047" xlink:href="#DejaVuSans-2e"/>
       <use x="95.410156" xlink:href="#DejaVuSans-30"/>
      </g>
     </g>
    </g>
    <g id="ytick_4">
     <g id="line2d_11">
      <g>
       <use style="stroke:#000000;stroke-width:0.8;" x="43.78125" xlink:href="#mdd7dabb090" y="160.71676"/>
      </g>
     </g>
     <g id="text_12">
      <!-- 2.5 -->
      <g transform="translate(20.878125 164.515978)scale(0.1 -0.1)">
       <use xlink:href="#DejaVuSans-32"/>
       <use x="63.623047" xlink:href="#DejaVuSans-2e"/>
       <use x="95.410156" xlink:href="#DejaVuSans-35"/>
      </g>
     </g>
    </g>
    <g id="ytick_5">
     <g id="line2d_12">
      <g>
       <use style="stroke:#000000;stroke-width:0.8;" x="43.78125" xlink:href="#mdd7dabb090" y="120.224524"/>
      </g>
     </g>
     <g id="text_13">
      <!-- 3.0 -->
      <defs>
       <path d="M 40.578125 39.3125 
Q 47.65625 37.796875 51.625 33 
Q 55.609375 28.21875 55.609375 21.1875 
Q 55.609375 10.40625 48.1875 4.484375 
Q 40.765625 -1.421875 27.09375 -1.421875 
Q 22.515625 -1.421875 17.65625 -0.515625 
Q 12.796875 0.390625 7.625 2.203125 
L 7.625 11.71875 
Q 11.71875 9.328125 16.59375 8.109375 
Q 21.484375 6.890625 26.8125 6.890625 
Q 36.078125 6.890625 40.9375 10.546875 
Q 45.796875 14.203125 45.796875 21.1875 
Q 45.796875 27.640625 41.28125 31.265625 
Q 36.765625 34.90625 28.71875 34.90625 
L 20.21875 34.90625 
L 20.21875 43.015625 
L 29.109375 43.015625 
Q 36.375 43.015625 40.234375 45.921875 
Q 44.09375 48.828125 44.09375 54.296875 
Q 44.09375 59.90625 40.109375 62.90625 
Q 36.140625 65.921875 28.71875 65.921875 
Q 24.65625 65.921875 20.015625 65.03125 
Q 15.375 64.15625 9.8125 62.3125 
L 9.8125 71.09375 
Q 15.4375 72.65625 20.34375 73.4375 
Q 25.25 74.21875 29.59375 74.21875 
Q 40.828125 74.21875 47.359375 69.109375 
Q 53.90625 64.015625 53.90625 55.328125 
Q 53.90625 49.265625 50.4375 45.09375 
Q 46.96875 40.921875 40.578125 39.3125 
z
" id="DejaVuSans-33"/>
      </defs>
      <g transform="translate(20.878125 124.023742)scale(0.1 -0.1)">
       <use xlink:href="#DejaVuSans-33"/>
       <use x="63.623047" xlink:href="#DejaVuSans-2e"/>
       <use x="95.410156" xlink:href="#DejaVuSans-30"/>
      </g>
     </g>
    </g>
    <g id="ytick_6">
     <g id="line2d_13">
      <g>
       <use style="stroke:#000000;stroke-width:0.8;" x="43.78125" xlink:href="#mdd7dabb090" y="79.732288"/>
      </g>
     </g>
     <g id="text_14">
      <!-- 3.5 -->
      <g transform="translate(20.878125 83.531506)scale(0.1 -0.1)">
       <use xlink:href="#DejaVuSans-33"/>
       <use x="63.623047" xlink:href="#DejaVuSans-2e"/>
       <use x="95.410156" xlink:href="#DejaVuSans-35"/>
      </g>
     </g>
    </g>
    <g id="ytick_7">
     <g id="line2d_14">
      <g>
       <use style="stroke:#000000;stroke-width:0.8;" x="43.78125" xlink:href="#mdd7dabb090" y="39.240052"/>
      </g>
     </g>
     <g id="text_15">
      <!-- 4.0 -->
      <g transform="translate(20.878125 43.03927)scale(0.1 -0.1)">
       <use xlink:href="#DejaVuSans-34"/>
       <use x="63.623047" xlink:href="#DejaVuSans-2e"/>
       <use x="95.410156" xlink:href="#DejaVuSans-30"/>
      </g>
     </g>
    </g>
    <g id="text_16">
     <!-- average maxQ -->
     <defs>
      <path d="M 34.28125 27.484375 
Q 23.390625 27.484375 19.1875 25 
Q 14.984375 22.515625 14.984375 16.5 
Q 14.984375 11.71875 18.140625 8.90625 
Q 21.296875 6.109375 26.703125 6.109375 
Q 34.1875 6.109375 38.703125 11.40625 
Q 43.21875 16.703125 43.21875 25.484375 
L 43.21875 27.484375 
z
M 52.203125 31.203125 
L 52.203125 0 
L 43.21875 0 
L 43.21875 8.296875 
Q 40.140625 3.328125 35.546875 0.953125 
Q 30.953125 -1.421875 24.3125 -1.421875 
Q 15.921875 -1.421875 10.953125 3.296875 
Q 6 8.015625 6 15.921875 
Q 6 25.140625 12.171875 29.828125 
Q 18.359375 34.515625 30.609375 34.515625 
L 43.21875 34.515625 
L 43.21875 35.40625 
Q 43.21875 41.609375 39.140625 45 
Q 35.0625 48.390625 27.6875 48.390625 
Q 23 48.390625 18.546875 47.265625 
Q 14.109375 46.140625 10.015625 43.890625 
L 10.015625 52.203125 
Q 14.9375 54.109375 19.578125 55.046875 
Q 24.21875 56 28.609375 56 
Q 40.484375 56 46.34375 49.84375 
Q 52.203125 43.703125 52.203125 31.203125 
z
" id="DejaVuSans-61"/>
      <path d="M 2.984375 54.6875 
L 12.5 54.6875 
L 29.59375 8.796875 
L 46.6875 54.6875 
L 56.203125 54.6875 
L 35.6875 0 
L 23.484375 0 
z
" id="DejaVuSans-76"/>
      <path d="M 41.109375 46.296875 
Q 39.59375 47.171875 37.8125 47.578125 
Q 36.03125 48 33.890625 48 
Q 26.265625 48 22.1875 43.046875 
Q 18.109375 38.09375 18.109375 28.8125 
L 18.109375 0 
L 9.078125 0 
L 9.078125 54.6875 
L 18.109375 54.6875 
L 18.109375 46.1875 
Q 20.953125 51.171875 25.484375 53.578125 
Q 30.03125 56 36.53125 56 
Q 37.453125 56 38.578125 55.875 
Q 39.703125 55.765625 41.0625 55.515625 
z
" id="DejaVuSans-72"/>
      <path d="M 45.40625 27.984375 
Q 45.40625 37.75 41.375 43.109375 
Q 37.359375 48.484375 30.078125 48.484375 
Q 22.859375 48.484375 18.828125 43.109375 
Q 14.796875 37.75 14.796875 27.984375 
Q 14.796875 18.265625 18.828125 12.890625 
Q 22.859375 7.515625 30.078125 7.515625 
Q 37.359375 7.515625 41.375 12.890625 
Q 45.40625 18.265625 45.40625 27.984375 
z
M 54.390625 6.78125 
Q 54.390625 -7.171875 48.1875 -13.984375 
Q 42 -20.796875 29.203125 -20.796875 
Q 24.46875 -20.796875 20.265625 -20.09375 
Q 16.0625 -19.390625 12.109375 -17.921875 
L 12.109375 -9.1875 
Q 16.0625 -11.328125 19.921875 -12.34375 
Q 23.78125 -13.375 27.78125 -13.375 
Q 36.625 -13.375 41.015625 -8.765625 
Q 45.40625 -4.15625 45.40625 5.171875 
L 45.40625 9.625 
Q 42.625 4.78125 38.28125 2.390625 
Q 33.9375 0 27.875 0 
Q 17.828125 0 11.671875 7.65625 
Q 5.515625 15.328125 5.515625 27.984375 
Q 5.515625 40.671875 11.671875 48.328125 
Q 17.828125 56 27.875 56 
Q 33.9375 56 38.28125 53.609375 
Q 42.625 51.21875 45.40625 46.390625 
L 45.40625 54.6875 
L 54.390625 54.6875 
z
" id="DejaVuSans-67"/>
      <path id="DejaVuSans-20"/>
      <path d="M 52 44.1875 
Q 55.375 50.25 60.0625 53.125 
Q 64.75 56 71.09375 56 
Q 79.640625 56 84.28125 50.015625 
Q 88.921875 44.046875 88.921875 33.015625 
L 88.921875 0 
L 79.890625 0 
L 79.890625 32.71875 
Q 79.890625 40.578125 77.09375 44.375 
Q 74.3125 48.1875 68.609375 48.1875 
Q 61.625 48.1875 57.5625 43.546875 
Q 53.515625 38.921875 53.515625 30.90625 
L 53.515625 0 
L 44.484375 0 
L 44.484375 32.71875 
Q 44.484375 40.625 41.703125 44.40625 
Q 38.921875 48.1875 33.109375 48.1875 
Q 26.21875 48.1875 22.15625 43.53125 
Q 18.109375 38.875 18.109375 30.90625 
L 18.109375 0 
L 9.078125 0 
L 9.078125 54.6875 
L 18.109375 54.6875 
L 18.109375 46.1875 
Q 21.1875 51.21875 25.484375 53.609375 
Q 29.78125 56 35.6875 56 
Q 41.65625 56 45.828125 52.96875 
Q 50 49.953125 52 44.1875 
z
" id="DejaVuSans-6d"/>
      <path d="M 54.890625 54.6875 
L 35.109375 28.078125 
L 55.90625 0 
L 45.3125 0 
L 29.390625 21.484375 
L 13.484375 0 
L 2.875 0 
L 24.125 28.609375 
L 4.6875 54.6875 
L 15.28125 54.6875 
L 29.78125 35.203125 
L 44.28125 54.6875 
z
" id="DejaVuSans-78"/>
      <path d="M 39.40625 66.21875 
Q 28.65625 66.21875 22.328125 58.203125 
Q 16.015625 50.203125 16.015625 36.375 
Q 16.015625 22.609375 22.328125 14.59375 
Q 28.65625 6.59375 39.40625 6.59375 
Q 50.140625 6.59375 56.421875 14.59375 
Q 62.703125 22.609375 62.703125 36.375 
Q 62.703125 50.203125 56.421875 58.203125 
Q 50.140625 66.21875 39.40625 66.21875 
z
M 53.21875 1.3125 
L 66.21875 -12.890625 
L 54.296875 -12.890625 
L 43.5 -1.21875 
Q 41.890625 -1.3125 41.03125 -1.359375 
Q 40.1875 -1.421875 39.40625 -1.421875 
Q 24.03125 -1.421875 14.8125 8.859375 
Q 5.609375 19.140625 5.609375 36.375 
Q 5.609375 53.65625 14.8125 63.9375 
Q 24.03125 74.21875 39.40625 74.21875 
Q 54.734375 74.21875 63.90625 63.9375 
Q 73.09375 53.65625 73.09375 36.375 
Q 73.09375 23.6875 67.984375 14.640625 
Q 62.890625 5.609375 53.21875 1.3125 
z
" id="DejaVuSans-51"/>
     </defs>
     <g transform="translate(14.798438 192.263187)rotate(-90)scale(0.1 -0.1)">
      <use xlink:href="#DejaVuSans-61"/>
      <use x="61.279297" xlink:href="#DejaVuSans-76"/>
      <use x="120.458984" xlink:href="#DejaVuSans-65"/>
      <use x="181.982422" xlink:href="#DejaVuSans-72"/>
      <use x="223.095703" xlink:href="#DejaVuSans-61"/>
      <use x="284.375" xlink:href="#DejaVuSans-67"/>
      <use x="347.851562" xlink:href="#DejaVuSans-65"/>
      <use x="409.375" xlink:href="#DejaVuSans-20"/>
      <use x="441.162109" xlink:href="#DejaVuSans-6d"/>
      <use x="538.574219" xlink:href="#DejaVuSans-61"/>
      <use x="599.853516" xlink:href="#DejaVuSans-78"/>
      <use x="659.033203" xlink:href="#DejaVuSans-51"/>
     </g>
    </g>
   </g>
   <g id="line2d_15">
    <path clip-path="url(#paf2419088f)" d="M 60.013977 139.156352 
L 60.267416 126.236169 
L 60.520854 171.372683 
L 60.774292 168.33199 
L 61.281169 187.025983 
L 61.534607 156.125372 
L 61.788046 176.051277 
L 62.041484 155.90832 
L 62.548361 172.561886 
L 62.801799 127.329509 
L 63.055238 181.60009 
L 63.308676 183.588379 
L 63.562114 147.504789 
L 63.815553 205.308249 
L 64.068991 152.910931 
L 64.322429 180.790081 
L 64.575868 148.544858 
L 64.829306 148.862876 
L 65.336183 115.278508 
L 65.84306 163.365653 
L 66.096498 209.296491 
L 66.349936 157.982136 
L 66.603375 164.994939 
L 66.856813 167.046959 
L 67.110251 148.005578 
L 67.36369 148.724237 
L 67.617128 176.257746 
L 67.870567 185.617855 
L 68.124005 180.212702 
L 68.377443 124.575499 
L 68.88432 149.880681 
L 69.137758 159.893357 
L 69.391197 210.548374 
L 69.644635 174.772218 
L 69.898074 175.802845 
L 70.151512 172.017156 
L 70.40495 155.747251 
L 70.658389 129.334275 
L 70.911827 129.091185 
L 71.165265 159.617107 
L 71.418704 174.011088 
L 71.92558 144.136233 
L 72.179019 120.533052 
L 72.432457 117.314383 
L 72.685896 152.676184 
L 72.939334 169.693563 
L 73.192772 155.547721 
L 73.446211 200.092704 
L 73.699649 168.738575 
L 73.953087 151.411787 
L 74.206526 158.608341 
L 74.459964 181.677398 
L 74.713402 185.899557 
L 74.966841 130.2228 
L 75.220279 144.639605 
L 75.473718 172.301866 
L 75.980594 162.15172 
L 76.234033 127.659108 
L 76.740909 178.544906 
L 76.994348 179.189832 
L 77.247786 166.998498 
L 77.501224 148.661642 
L 77.754663 165.175391 
L 78.008101 151.428423 
L 78.26154 166.197974 
L 78.514978 216.622888 
L 78.768416 178.849757 
L 79.021855 158.690679 
L 79.275293 121.445713 
L 79.528731 197.282711 
L 79.78217 189.570485 
L 80.035608 201.83318 
L 80.289046 154.949941 
L 80.542485 150.642118 
L 81.049362 179.14872 
L 81.3028 176.945022 
L 81.556238 138.593741 
L 81.809677 179.254477 
L 82.063115 111.059031 
L 82.316553 191.687439 
L 82.569992 138.253041 
L 82.82343 136.66494 
L 83.076868 178.450057 
L 83.330307 122.898544 
L 83.583745 164.835682 
L 83.837184 123.883029 
L 84.090622 137.117078 
L 84.34406 141.956491 
L 84.597499 172.781109 
L 84.850937 131.760678 
L 85.104375 170.09161 
L 85.357814 162.826748 
L 85.611252 135.651216 
L 85.86469 225.373809 
L 86.118129 133.435003 
L 86.371567 161.553438 
L 86.625006 149.408238 
L 86.878444 165.263929 
L 87.131882 157.185668 
L 87.385321 187.777854 
L 87.638759 150.956127 
L 87.892197 169.344438 
L 88.145636 165.73858 
L 88.652513 130.418077 
L 89.159389 174.318954 
L 89.412828 155.677594 
L 89.666266 162.37906 
L 89.919704 186.92436 
L 90.173143 174.78446 
L 90.426581 141.390887 
L 90.933458 171.183829 
L 91.186896 131.916966 
L 91.440335 130.518941 
L 91.693773 174.124061 
L 91.947211 136.284247 
L 92.20065 136.856713 
L 92.454088 168.360725 
L 92.960965 131.971896 
L 93.214403 126.952928 
L 93.467841 176.424433 
L 93.72128 138.376221 
L 93.974718 173.260734 
L 94.228157 190.938914 
L 94.481595 137.127242 
L 94.735033 143.506984 
L 94.988472 202.888894 
L 95.495348 129.664514 
L 95.748787 146.082954 
L 96.002225 173.905315 
L 96.255663 155.350599 
L 96.509102 152.77 
L 96.76254 180.017122 
L 97.015979 120.698358 
L 97.269417 157.729595 
L 97.522855 161.803114 
L 97.776294 173.678059 
L 98.029732 144.966972 
L 98.28317 132.241988 
L 98.536609 161.061972 
L 98.790047 154.051545 
L 99.043485 155.610172 
L 99.296924 197.397718 
L 99.550362 197.192174 
L 99.803801 150.292824 
L 100.057239 180.112386 
L 100.310677 139.736357 
L 100.564116 139.688491 
L 100.817554 184.371021 
L 101.070992 157.371573 
L 101.324431 164.526876 
L 101.577869 152.330179 
L 101.831307 157.645075 
L 102.084746 140.336884 
L 102.338184 161.314901 
L 102.591623 145.385412 
L 102.845061 151.490765 
L 103.098499 153.95698 
L 103.351938 161.248836 
L 103.605376 134.559172 
L 103.858814 157.343824 
L 104.112253 162.483606 
L 104.365691 172.289229 
L 104.619129 198.198368 
L 104.872568 154.867785 
L 105.126006 154.737604 
L 105.379445 151.040535 
L 105.632883 163.576842 
L 105.886321 145.896662 
L 106.13976 189.838299 
L 106.393198 152.643491 
L 106.646636 159.883301 
L 106.900075 156.70668 
L 107.153513 194.489918 
L 107.406952 168.383361 
L 107.66039 176.446737 
L 107.913828 164.913086 
L 108.167267 161.254763 
L 108.420705 170.189288 
L 108.674143 154.022172 
L 109.18102 173.045727 
L 109.434458 160.876144 
L 109.687897 155.376986 
L 109.941335 153.583896 
L 110.194774 157.544212 
L 110.448212 158.041848 
L 110.70165 149.982473 
L 110.955089 147.791042 
L 111.208527 162.609498 
L 111.461965 159.463818 
L 111.715404 161.431394 
L 111.968842 154.299124 
L 112.22228 162.487359 
L 112.475719 165.352475 
L 112.729157 165.741378 
L 112.982596 172.172114 
L 113.236034 157.968092 
L 113.489472 158.288582 
L 113.742911 173.843557 
L 113.996349 168.358595 
L 114.249787 178.833326 
L 114.503226 161.813882 
L 114.756664 160.509556 
L 115.263541 175.437619 
L 115.516979 163.014532 
L 115.770418 179.053573 
L 116.023856 161.247613 
L 116.277294 171.380283 
L 116.530733 169.203458 
L 116.784171 170.592821 
L 117.544486 165.015338 
L 117.797924 176.142614 
L 118.051363 176.12253 
L 118.304801 161.724601 
L 118.55824 176.567661 
L 118.811678 162.049821 
L 119.065116 163.480758 
L 119.318555 174.075556 
L 119.825431 170.968464 
L 120.07887 174.455983 
L 120.332308 172.918008 
L 120.585746 166.35181 
L 120.839185 167.35855 
L 121.092623 172.683352 
L 121.346062 164.099677 
L 121.5995 182.715247 
L 121.852938 162.73254 
L 122.106377 174.227682 
L 122.359815 171.307056 
L 122.613253 163.249626 
L 123.12013 186.734296 
L 123.373569 188.996989 
L 123.627007 168.052396 
L 124.133884 178.591697 
L 124.387322 173.531076 
L 124.64076 175.947679 
L 124.894199 187.7274 
L 125.147637 173.646717 
L 125.401075 170.394139 
L 125.654514 170.59506 
L 125.907952 186.027413 
L 126.161391 174.026443 
L 126.414829 181.854466 
L 126.668267 194.215634 
L 126.921706 177.631411 
L 127.175144 173.879221 
L 127.428582 185.131857 
L 127.682021 178.067117 
L 127.935459 180.885488 
L 128.442336 175.124482 
L 128.695774 187.78363 
L 128.949213 176.0223 
L 129.202651 172.913126 
L 129.456089 193.350747 
L 129.709528 180.378828 
L 129.962966 189.178478 
L 130.216404 179.347022 
L 130.469843 175.929461 
L 130.976719 178.380365 
L 131.483596 174.288234 
L 131.737035 177.043224 
L 131.990473 186.006911 
L 132.243911 186.676102 
L 132.49735 185.459216 
L 132.750788 184.865112 
L 133.004226 182.736396 
L 133.511103 193.420624 
L 133.764541 181.391687 
L 134.01798 181.521811 
L 134.271418 183.325007 
L 134.778295 182.719755 
L 135.031733 180.185234 
L 135.285172 181.501135 
L 135.53861 183.876273 
L 135.792048 182.925691 
L 136.045487 201.261893 
L 136.298925 192.469265 
L 136.552363 188.126249 
L 136.805802 245.209037 
L 137.05924 181.414598 
L 137.312679 190.920879 
L 137.566117 189.115965 
L 137.819555 186.392072 
L 138.072994 191.83194 
L 138.326432 212.152494 
L 138.57987 185.258149 
L 138.833309 182.590851 
L 139.086747 197.595355 
L 139.340185 185.28834 
L 139.593624 181.543845 
L 139.847062 183.157053 
L 140.100501 183.494991 
L 140.353939 199.692851 
L 140.607377 186.862137 
L 140.860816 186.98409 
L 141.114254 183.223736 
L 141.367692 192.56217 
L 141.874569 188.405778 
L 142.128008 192.650191 
L 142.381446 185.381716 
L 142.634884 200.448499 
L 142.888323 181.757963 
L 143.141761 198.362548 
L 143.648638 188.705661 
L 143.902076 190.737965 
L 144.155514 185.128624 
L 144.408953 195.732387 
L 144.662391 197.526455 
L 144.91583 189.551391 
L 145.422706 196.076803 
L 145.676145 191.078554 
L 145.929583 190.561371 
L 146.183021 196.501792 
L 146.43646 192.405883 
L 146.689898 198.126444 
L 146.943336 197.760182 
L 147.196775 192.771888 
L 147.450213 198.781198 
L 147.703652 199.109777 
L 147.95709 193.639929 
L 148.210528 208.394477 
L 148.463967 195.787527 
L 148.717405 198.343966 
L 148.970843 203.314342 
L 149.224282 196.687423 
L 149.47772 199.365809 
L 149.731158 193.906332 
L 149.984597 194.456912 
L 150.238035 192.05621 
L 150.491474 199.588844 
L 150.744912 198.747589 
L 150.99835 197.369965 
L 151.251789 191.00092 
L 151.505227 203.502637 
L 151.758665 194.210748 
L 152.012104 194.798706 
L 152.265542 194.336293 
L 152.51898 204.004053 
L 152.772419 241.607811 
L 153.025857 203.905232 
L 153.279296 198.551841 
L 153.532734 201.806081 
L 153.786172 196.38663 
L 154.039611 194.592356 
L 154.293049 198.754488 
L 154.546487 196.449404 
L 154.799926 195.454999 
L 155.053364 206.781564 
L 155.306802 201.234499 
L 155.560241 200.079544 
L 155.813679 253.997554 
L 156.067118 201.668103 
L 156.320556 198.296735 
L 156.573994 201.731861 
L 157.080871 199.455383 
L 157.334309 199.792445 
L 157.587748 203.294776 
L 157.841186 199.116378 
L 158.094624 203.273458 
L 158.348063 197.485882 
L 158.601501 200.765157 
L 158.85494 197.392614 
L 159.108378 199.264082 
L 159.361816 198.577527 
L 159.615255 205.285969 
L 159.868693 205.167132 
L 160.122131 206.213556 
L 160.37557 201.248722 
L 160.629008 203.731848 
L 160.882447 198.933319 
L 161.135885 205.262386 
L 161.389323 202.055129 
L 161.642762 202.860482 
L 161.8962 199.803241 
L 162.149638 210.631521 
L 162.403077 207.607952 
L 162.656515 202.949617 
L 162.909953 206.417158 
L 163.41683 219.441109 
L 163.670269 205.661543 
L 163.923707 205.058707 
L 164.177145 203.70519 
L 164.430584 210.131295 
L 164.684022 206.36363 
L 164.93746 204.664918 
L 165.190899 201.211883 
L 165.444337 207.372919 
L 165.697775 231.604698 
L 165.951214 206.103292 
L 166.204652 204.603068 
L 166.458091 207.213244 
L 166.711529 204.982153 
L 166.964967 219.502652 
L 167.218406 207.046377 
L 167.471844 205.341549 
L 167.725282 202.198231 
L 167.978721 202.401995 
L 168.485597 204.646439 
L 168.739036 202.468972 
L 168.992474 208.524913 
L 169.245913 200.509684 
L 169.499351 208.191898 
L 169.752789 208.861551 
L 170.006228 214.083381 
L 170.259666 206.003559 
L 170.513104 205.076937 
L 170.766543 209.097797 
L 171.019981 202.382276 
L 171.526858 227.294115 
L 171.780296 228.158941 
L 172.033735 214.331551 
L 172.540611 207.366777 
L 172.79405 208.490352 
L 173.047488 204.857095 
L 173.300926 205.284755 
L 173.554365 219.677771 
L 173.807803 209.673639 
L 174.061241 209.656855 
L 174.31468 206.162037 
L 174.568118 226.774806 
L 174.821557 208.108609 
L 175.074995 205.676425 
L 175.328433 208.851555 
L 175.581872 206.499275 
L 175.83531 207.537127 
L 176.088748 270.457519 
L 176.342187 219.051349 
L 176.849063 212.462707 
L 177.102502 216.164511 
L 177.35594 206.466473 
L 177.609379 208.617243 
L 177.862817 211.742068 
L 178.116255 211.072875 
L 178.369694 209.583639 
L 178.623132 215.250507 
L 178.87657 216.122279 
L 179.130009 214.745168 
L 179.383447 214.468093 
L 179.636886 211.004835 
L 179.890324 209.937525 
L 180.143762 219.536822 
L 180.397201 209.649988 
L 180.650639 215.185691 
L 180.904077 210.820443 
L 181.157516 216.174431 
L 181.410954 216.459368 
L 181.917831 209.039536 
L 182.171269 214.749164 
L 182.678146 214.526837 
L 182.931584 211.656764 
L 183.185023 221.527932 
L 183.438461 213.663087 
L 183.691899 211.119241 
L 183.945338 212.238656 
L 184.198776 218.841148 
L 184.452214 212.401106 
L 184.705653 214.917288 
L 184.959091 220.934615 
L 185.21253 212.431972 
L 185.465968 218.327223 
L 185.719406 209.688426 
L 185.972845 212.835007 
L 186.226283 211.083022 
L 186.479721 214.148471 
L 186.73316 212.227847 
L 186.986598 214.191096 
L 187.240036 212.735634 
L 187.493475 212.258512 
L 187.746913 216.550172 
L 188.000352 214.538396 
L 188.25379 213.973811 
L 188.507228 222.44571 
L 189.014105 214.014617 
L 189.267543 216.076401 
L 189.77442 227.460843 
L 190.027858 211.44024 
L 190.281297 217.112526 
L 190.534735 216.876276 
L 190.788174 217.236302 
L 191.041612 215.322384 
L 191.29505 247.340847 
L 191.548489 223.556827 
L 191.801927 216.853114 
L 192.055365 218.320241 
L 192.308804 218.861541 
L 192.81568 213.96595 
L 193.069119 220.83996 
L 193.322557 220.645871 
L 193.575996 221.926656 
L 193.829434 217.560528 
L 194.082872 232.334174 
L 194.336311 216.732884 
L 194.589749 214.430748 
L 194.843187 217.364043 
L 195.096626 216.243764 
L 195.350064 224.113743 
L 195.603503 218.928896 
L 195.856941 223.357379 
L 196.110379 215.573196 
L 196.617256 223.406042 
L 196.870694 216.330766 
L 197.124133 220.166222 
L 197.377571 219.828828 
L 197.631009 223.351218 
L 197.884448 236.21685 
L 198.137886 222.09297 
L 198.391325 224.751265 
L 198.644763 218.509857 
L 198.898201 217.962487 
L 199.15164 215.615182 
L 199.658516 221.855085 
L 199.911955 215.570996 
L 200.165393 215.401445 
L 200.418831 217.911262 
L 200.67227 216.088717 
L 200.925708 221.118826 
L 201.179147 223.736432 
L 201.432585 215.138927 
L 201.686023 219.908787 
L 201.939462 232.896886 
L 202.446338 219.082304 
L 202.699777 218.457655 
L 202.953215 224.317224 
L 203.206653 215.727825 
L 203.460092 222.685611 
L 203.71353 217.837607 
L 204.220407 221.263895 
L 204.473845 227.493774 
L 204.727284 222.068575 
L 204.980722 220.101499 
L 205.23416 219.322818 
L 205.487599 224.817474 
L 205.741037 218.891007 
L 205.994475 223.798417 
L 206.247914 223.177031 
L 206.501352 217.872546 
L 206.754791 230.530366 
L 207.008229 220.534552 
L 207.261667 219.843183 
L 207.515106 218.492576 
L 207.768544 223.870683 
L 208.021982 234.14648 
L 208.275421 223.879961 
L 208.528859 223.011018 
L 208.782297 224.504499 
L 209.035736 223.77297 
L 209.289174 221.81447 
L 209.542613 222.249728 
L 210.049489 217.840496 
L 210.302928 219.465719 
L 210.556366 227.558099 
L 210.809804 230.648047 
L 211.063243 223.179717 
L 211.570119 220.351602 
L 211.823558 224.38668 
L 212.076996 219.84865 
L 212.330435 245.370269 
L 212.583873 218.999057 
L 212.837311 224.782775 
L 213.09075 223.919259 
L 213.344188 223.963385 
L 213.597626 218.986006 
L 213.851065 229.767314 
L 214.104503 227.677221 
L 214.864818 217.05872 
L 215.118257 225.153139 
L 215.371695 220.664342 
L 215.625133 222.047345 
L 215.878572 220.12394 
L 216.13201 242.285867 
L 216.385448 221.952019 
L 216.638887 224.438071 
L 216.892325 242.347139 
L 217.145764 219.525248 
L 217.399202 223.992884 
L 217.65264 220.487425 
L 217.906079 224.134651 
L 218.412955 222.777317 
L 218.666394 226.045115 
L 218.919832 224.728223 
L 219.17327 221.361651 
L 219.426709 220.93395 
L 219.680147 221.77543 
L 219.933586 232.733519 
L 220.187024 223.253451 
L 220.440462 219.230945 
L 220.947339 224.742158 
L 221.200777 220.382926 
L 221.454216 231.218548 
L 221.707654 224.561716 
L 221.961092 224.889576 
L 222.214531 224.743863 
L 222.467969 221.058205 
L 222.721408 224.633658 
L 222.974846 221.152824 
L 223.228284 223.302784 
L 223.481723 222.021124 
L 223.735161 222.316321 
L 223.988599 226.83357 
L 224.242038 225.189403 
L 224.748914 223.901938 
L 225.002353 219.629178 
L 225.255791 221.552168 
L 225.50923 225.933814 
L 225.762668 228.205995 
L 226.016106 227.884585 
L 226.269545 228.559253 
L 226.522983 223.969654 
L 227.02986 219.040115 
L 227.283298 223.741199 
L 227.536736 231.697784 
L 227.790175 221.942006 
L 228.043613 223.229071 
L 228.297052 222.466947 
L 228.803928 229.315428 
L 229.057367 228.414675 
L 229.310805 222.076036 
L 229.564243 223.699178 
L 229.817682 222.163124 
L 230.07112 224.340042 
L 230.324558 225.487285 
L 230.577997 225.157221 
L 230.831435 226.178227 
L 231.084874 222.870474 
L 231.338312 223.755 
L 231.59175 225.761387 
L 231.845189 225.781909 
L 232.098627 225.386663 
L 232.352065 230.892459 
L 232.605504 232.234052 
L 232.858942 225.050033 
L 233.112381 228.200467 
L 233.365819 224.707639 
L 233.619257 227.024705 
L 233.872696 225.918736 
L 234.126134 231.379838 
L 234.379572 225.244682 
L 234.633011 222.766512 
L 234.886449 222.359571 
L 235.139887 226.449149 
L 235.393326 226.068317 
L 235.646764 219.452861 
L 235.900203 227.723378 
L 236.153641 226.776422 
L 236.407079 223.141776 
L 236.660518 225.107897 
L 236.913956 231.129313 
L 237.167394 231.672572 
L 237.420833 225.390743 
L 237.674271 225.094887 
L 237.927709 223.281783 
L 238.181148 224.159078 
L 238.434586 223.555567 
L 238.688025 229.112354 
L 238.941463 224.492027 
L 239.194901 224.807017 
L 239.44834 224.449415 
L 239.701778 224.385853 
L 239.955216 224.463716 
L 240.208655 222.857221 
L 240.462093 228.355579 
L 240.715531 228.406967 
L 240.96897 227.212931 
L 241.475847 223.047521 
L 241.729285 220.852996 
L 241.982723 224.850567 
L 242.236162 224.470746 
L 242.4896 229.39029 
L 242.996477 224.544622 
L 243.503353 222.745842 
L 243.756792 223.666497 
L 244.01023 222.77325 
L 244.517107 226.423325 
L 244.770545 96.457842 
L 245.023984 222.567617 
L 245.277422 229.319032 
L 245.53086 225.904855 
L 245.784299 226.380686 
L 246.037737 229.481086 
L 246.291175 223.658001 
L 246.544614 225.301424 
L 246.798052 223.940306 
L 247.051491 228.507825 
L 247.304929 228.824176 
L 247.558367 234.757635 
L 247.811806 230.076309 
L 248.065244 229.690099 
L 248.318682 226.467232 
L 248.572121 227.315382 
L 248.825559 222.976408 
L 249.078997 228.627323 
L 249.332436 226.973817 
L 249.585874 228.32532 
L 249.839313 228.013796 
L 250.092751 224.491264 
L 250.346189 226.146625 
L 250.599628 225.172213 
L 250.853066 239.443806 
L 251.359943 223.678898 
L 251.613381 225.355777 
L 251.86682 232.371887 
L 252.120258 225.138397 
L 252.373696 226.535056 
L 252.627135 232.201365 
L 252.880573 226.641492 
L 253.134011 226.448371 
L 253.38745 222.828431 
L 253.894326 227.114925 
L 254.147765 243.295217 
L 254.401203 230.254088 
L 254.654642 225.03601 
L 254.90808 232.331316 
L 255.161518 231.482125 
L 255.414957 225.083655 
L 255.668395 228.560186 
L 255.921833 226.596715 
L 256.175272 226.173639 
L 256.42871 224.717773 
L 256.682148 238.231007 
L 256.935587 227.671806 
L 257.189025 225.292948 
L 257.442464 228.586962 
L 257.695902 229.182546 
L 257.94934 223.008604 
L 258.202779 231.86406 
L 258.456217 227.345959 
L 258.709655 228.056951 
L 258.963094 233.12845 
L 259.216532 222.988335 
L 259.46997 223.564937 
L 259.723409 276.334125 
L 259.976847 230.158899 
L 260.230286 228.328205 
L 260.737162 231.801932 
L 260.990601 235.045903 
L 261.244039 232.520421 
L 261.497477 227.542534 
L 262.004354 223.489721 
L 262.257792 226.680755 
L 262.511231 227.215748 
L 262.764669 225.593611 
L 263.018108 231.309673 
L 263.271546 224.483827 
L 263.524984 225.364173 
L 263.778423 227.457027 
L 264.031861 227.956204 
L 264.285299 243.64458 
L 264.538738 226.18603 
L 264.792176 231.192043 
L 265.299053 227.673778 
L 265.552491 229.30883 
L 265.80593 228.313359 
L 266.059368 229.669809 
L 266.312806 225.161607 
L 266.566245 230.02658 
L 266.819683 227.255526 
L 267.073121 232.083657 
L 267.32656 232.724544 
L 267.579998 236.244853 
L 267.833437 226.187082 
L 268.086875 230.792503 
L 268.340313 228.143236 
L 268.593752 230.512039 
L 268.84719 223.64799 
L 269.100628 233.768663 
L 269.354067 260.792194 
L 269.607505 231.029501 
L 269.860943 228.135024 
L 270.114382 34.414125 
L 270.36782 225.996047 
L 270.874697 240.009716 
L 271.128135 243.303829 
L 271.381574 227.395917 
L 271.635012 231.089224 
L 271.88845 226.302677 
L 272.141889 227.663218 
L 272.395327 235.8583 
L 272.648765 229.12087 
L 273.155642 234.347235 
L 273.409081 225.876709 
L 273.662519 234.48501 
L 273.915957 229.901503 
L 274.169396 233.583686 
L 274.422834 227.024219 
L 274.676272 234.452547 
L 274.929711 232.796931 
L 275.183149 225.551585 
L 275.436587 225.546662 
L 275.690026 230.698268 
L 275.943464 228.77934 
L 276.196903 237.803082 
L 276.450341 223.542166 
L 276.703779 232.357369 
L 276.957218 228.075821 
L 277.210656 226.885648 
L 277.717533 229.910053 
L 277.970971 229.69089 
L 278.224409 231.41523 
L 278.477848 226.634108 
L 278.731286 230.189954 
L 278.984725 229.804796 
L 279.238163 227.88573 
L 279.491601 229.226396 
L 279.74504 227.152096 
L 279.998478 229.133681 
L 280.251916 229.369405 
L 280.505355 230.378761 
L 280.758793 225.078684 
L 281.012231 230.084636 
L 281.26567 263.693716 
L 281.519108 228.087458 
L 281.772547 231.841128 
L 282.279423 228.398678 
L 282.532862 230.662568 
L 282.7863 229.225062 
L 283.039738 228.902006 
L 283.293177 227.844317 
L 283.546615 226.164087 
L 283.800053 229.68481 
L 284.053492 226.989863 
L 284.30693 228.829901 
L 284.560369 173.489297 
L 284.813807 227.872283 
L 285.067245 227.797426 
L 285.574122 232.953803 
L 285.82756 231.978787 
L 286.080999 228.735895 
L 286.334437 232.787777 
L 286.587876 225.978077 
L 286.841314 231.152556 
L 287.094752 229.41151 
L 287.348191 232.552114 
L 287.601629 241.869554 
L 287.855067 231.187879 
L 288.361944 226.951456 
L 288.615382 229.089648 
L 288.868821 237.939651 
L 289.122259 228.042499 
L 289.375698 230.398345 
L 289.629136 231.330608 
L 289.882574 213.794518 
L 290.136013 228.158046 
L 290.389451 226.251967 
L 290.642889 229.88378 
L 290.896328 231.005723 
L 291.149766 229.765547 
L 291.403204 227.704859 
L 291.656643 230.913092 
L 292.416958 227.01101 
L 292.670396 232.659265 
L 292.923835 234.530533 
L 293.177273 228.237209 
L 293.430711 232.077743 
L 293.68415 227.766969 
L 293.937588 227.888014 
L 294.191026 226.042354 
L 294.444465 229.062652 
L 294.697903 233.486602 
L 294.951342 231.192667 
L 295.20478 250.432999 
L 295.458218 232.454369 
L 295.711657 201.475169 
L 295.965095 229.994096 
L 296.218533 235.138405 
L 296.471972 229.431763 
L 296.72541 232.637439 
L 296.978848 228.009008 
L 297.485725 242.326556 
L 297.739164 225.634249 
L 298.24604 236.326488 
L 298.499479 214.463192 
L 299.006355 243.366413 
L 299.259794 229.259239 
L 299.513232 227.955406 
L 299.76667 230.495072 
L 300.020109 226.766397 
L 300.273547 235.794287 
L 300.526986 220.164569 
L 300.780424 227.738536 
L 301.033862 227.919649 
L 301.287301 231.112401 
L 301.540739 232.443422 
L 301.794177 226.918479 
L 302.047616 233.725715 
L 302.301054 232.573922 
L 302.554492 235.121838 
L 302.807931 234.407421 
L 303.061369 230.841996 
L 303.314808 229.40387 
L 303.568246 262.052147 
L 303.821684 228.914185 
L 304.075123 229.889556 
L 304.328561 219.985156 
L 304.581999 231.446784 
L 304.835438 231.268547 
L 305.088876 231.230976 
L 305.342315 229.017238 
L 305.595753 229.37239 
L 305.849191 235.999215 
L 306.10263 230.244408 
L 306.356068 235.285778 
L 306.609506 229.332001 
L 306.862945 230.811777 
L 307.116383 237.991029 
L 307.369821 232.628304 
L 307.62326 232.417582 
L 307.876698 245.115986 
L 308.130137 181.449688 
L 308.383575 195.197535 
L 308.637013 230.562463 
L 308.890452 145.302256 
L 309.14389 156.21199 
L 309.397328 209.250401 
L 309.650767 233.506449 
L 309.904205 227.733581 
L 310.157643 241.722403 
L 310.411082 127.141489 
L 310.66452 209.849137 
L 310.917959 231.373224 
L 311.171397 236.92406 
L 311.424835 245.402894 
L 311.678274 236.46085 
L 311.931712 233.209802 
L 312.18515 235.614875 
L 312.438589 232.68748 
L 312.692027 232.735421 
L 312.945465 230.569384 
L 313.198904 232.335036 
L 313.452342 228.680524 
L 313.705781 233.032135 
L 313.959219 229.108525 
L 314.212657 132.70234 
L 314.466096 231.872241 
L 314.719534 233.363262 
L 314.972972 157.581739 
L 315.226411 175.599954 
L 315.479849 229.384375 
L 315.733287 232.170982 
L 315.986726 204.843565 
L 316.240164 233.406923 
L 316.493603 232.644159 
L 316.747041 229.416352 
L 317.000479 187.873128 
L 317.253918 230.711712 
L 317.507356 229.409559 
L 317.760794 232.610992 
L 318.014233 231.099396 
L 318.267671 235.27334 
L 318.521109 231.756387 
L 318.774548 157.30533 
L 319.027986 173.191257 
L 319.281425 165.405665 
L 319.534863 230.022871 
L 319.788301 204.241031 
L 320.04174 226.707153 
L 320.295178 167.295281 
L 320.548616 226.8832 
L 320.802055 191.507317 
L 321.055493 236.735933 
L 321.308931 179.803165 
L 321.56237 232.725801 
L 321.815808 165.104899 
L 322.069247 152.623979 
L 322.322685 199.499163 
L 322.576123 168.788211 
L 322.829562 241.111417 
L 323.083 232.276747 
L 323.336438 231.298152 
L 323.589877 240.379307 
L 323.843315 221.440288 
L 324.096754 186.630914 
L 324.350192 231.946732 
L 324.60363 234.980674 
L 324.857069 242.532336 
L 325.110507 174.171408 
L 325.363945 145.83947 
L 325.617384 194.611519 
L 325.870822 154.756809 
L 326.12426 232.246996 
L 326.377699 162.622873 
L 326.631137 232.415451 
L 326.884576 145.889995 
L 327.138014 130.578353 
L 327.391452 232.821044 
L 327.644891 172.112495 
L 327.898329 140.923305 
L 328.151767 229.888718 
L 328.405206 126.736333 
L 328.658644 228.829396 
L 328.912082 234.059673 
L 329.165521 230.381819 
L 329.418959 110.44616 
L 329.672398 122.699619 
L 329.925836 126.245937 
L 330.179274 231.44261 
L 330.432713 227.1158 
L 330.686151 233.422764 
L 330.939589 124.936021 
L 331.193028 232.161801 
L 331.446466 117.634865 
L 331.699904 103.125842 
L 331.953343 126.308438 
L 332.206781 229.684388 
L 332.46022 231.412762 
L 332.713658 116.562421 
L 332.967096 112.317347 
L 333.220535 110.851509 
L 333.473973 121.113849 
L 333.727411 125.421171 
L 333.98085 137.929484 
L 334.234288 236.83941 
L 334.741165 131.048669 
L 334.994603 131.560583 
L 335.248042 128.387501 
L 335.50148 139.744349 
L 335.754918 132.291401 
L 336.008357 148.398284 
L 336.261795 129.344142 
L 336.515233 151.557375 
L 336.768672 128.59883 
L 337.02211 143.579645 
L 337.275548 166.051609 
L 337.528987 143.36935 
L 337.782425 133.571345 
L 338.035864 143.246697 
L 338.289302 127.871537 
L 338.54274 140.020662 
L 338.796179 144.707001 
L 339.049617 143.476522 
L 339.303055 139.639502 
L 339.556494 231.830412 
L 339.809932 155.400915 
L 340.063371 174.767167 
L 340.316809 151.877463 
L 340.570247 164.636307 
L 340.823686 162.567166 
L 341.077124 151.646553 
L 341.330562 130.015658 
L 341.584001 147.249892 
L 341.837439 148.47306 
L 342.090877 142.738238 
L 342.344316 148.538256 
L 342.597754 160.716369 
L 342.851193 141.891189 
L 343.104631 163.64171 
L 343.358069 147.644346 
L 343.611508 164.736781 
L 343.864946 164.658477 
L 344.118384 142.629734 
L 344.371823 149.86294 
L 344.625261 166.462179 
L 344.878699 148.487972 
L 345.132138 163.108064 
L 345.385576 145.401242 
L 345.639015 145.071768 
L 345.892453 152.583852 
L 346.145891 148.850828 
L 346.39933 154.889964 
L 346.652768 139.802525 
L 346.906206 144.719392 
L 347.159645 155.008237 
L 347.413083 145.752732 
L 347.666521 161.164267 
L 347.91996 193.532944 
L 348.173398 161.115651 
L 348.426837 179.473749 
L 348.680275 178.282056 
L 348.933713 179.490982 
L 349.187152 174.934811 
L 349.44059 176.873826 
L 349.694028 187.073686 
L 349.947467 180.098735 
L 350.200905 183.38367 
L 350.454343 201.718919 
L 350.707782 181.221181 
L 350.96122 190.954469 
L 351.214659 150.188598 
L 351.468097 183.863375 
L 351.721535 201.185552 
L 351.974974 171.906324 
L 352.228412 186.182381 
L 352.48185 186.95639 
L 352.735289 177.813897 
L 352.988727 179.625939 
L 353.242165 195.897387 
L 353.495604 170.500404 
L 353.749042 191.121764 
L 354.002481 195.021611 
L 354.255919 202.46318 
L 354.509357 201.358847 
L 354.762796 196.491688 
L 355.016234 185.441749 
L 355.269672 181.387113 
L 355.523111 201.52391 
L 355.776549 192.470737 
L 356.029987 207.313122 
L 356.790303 188.720129 
L 357.297179 208.0022 
L 357.550618 212.531237 
L 357.804056 213.220583 
L 358.057494 183.636683 
L 358.310933 201.492109 
L 358.564371 171.897754 
L 358.81781 219.476236 
L 359.071248 212.929943 
L 359.578125 186.937846 
L 359.831563 207.415961 
L 360.085001 207.752271 
L 360.33844 210.723422 
L 360.591878 195.825957 
L 360.845316 212.651165 
L 361.098755 211.799932 
L 361.352193 198.250632 
L 361.605632 200.343673 
L 361.85907 173.095494 
L 362.112508 209.758612 
L 362.365947 213.834263 
L 362.619385 179.578423 
L 362.872823 205.82196 
L 363.3797 177.196061 
L 363.633138 207.711678 
L 363.886577 196.494088 
L 364.140015 192.696312 
L 364.393454 184.69503 
L 364.646892 199.59579 
L 364.90033 170.425427 
L 365.153769 201.860033 
L 365.660645 161.592526 
L 365.914084 200.48159 
L 366.167522 155.78392 
L 366.674399 151.010016 
L 366.927837 168.297365 
L 367.181276 159.739959 
L 367.434714 174.223615 
L 367.688152 154.772798 
L 367.941591 179.366211 
L 368.195029 187.903364 
L 368.448467 222.52057 
L 368.701906 163.49122 
L 368.955344 170.645116 
L 369.208782 198.645292 
L 369.462221 201.167245 
L 369.715659 155.851774 
L 369.969098 170.345613 
L 370.222536 152.197529 
L 370.475974 182.797395 
L 370.982851 147.780369 
L 371.489728 169.333519 
L 371.743166 206.740327 
L 372.250043 166.522542 
L 372.75692 190.590218 
L 373.010358 242.222734 
L 373.517235 156.653577 
L 374.024111 197.756746 
L 374.27755 198.174981 
L 374.530988 200.760022 
L 374.784426 175.5514 
L 375.037865 199.069771 
L 375.291303 202.039527 
L 375.544742 164.828194 
L 375.79818 195.814018 
L 376.051618 213.059099 
L 376.558495 170.259118 
L 376.811933 187.380249 
L 377.065372 182.052047 
L 377.31881 184.89916 
L 377.572249 184.729893 
L 378.079125 195.280482 
L 378.332564 182.607524 
L 378.586002 198.001731 
L 378.83944 189.341586 
L 379.092879 169.960644 
L 379.346317 183.303119 
L 379.599755 176.596981 
L 379.853194 203.172539 
L 380.106632 178.504095 
L 380.360071 173.04823 
L 380.613509 178.310032 
L 380.866947 189.53824 
L 381.120386 185.462014 
L 381.373824 179.153662 
L 381.627262 182.80006 
L 381.880701 214.731712 
L 382.134139 192.215348 
L 382.641016 186.724391 
L 383.147893 216.128589 
L 383.401331 188.411439 
L 383.654769 201.08228 
L 383.908208 185.178384 
L 384.161646 204.070222 
L 384.415084 181.065081 
L 384.668523 184.852757 
L 384.668523 184.852757 
" style="fill:none;stroke:#1f77b4;stroke-linecap:square;stroke-width:0.5;"/>
   </g>
   <g id="patch_3">
    <path d="M 43.78125 288.430125 
L 43.78125 22.318125 
" style="fill:none;stroke:#000000;stroke-linecap:square;stroke-linejoin:miter;stroke-width:0.8;"/>
   </g>
   <g id="patch_4">
    <path d="M 400.90125 288.430125 
L 400.90125 22.318125 
" style="fill:none;stroke:#000000;stroke-linecap:square;stroke-linejoin:miter;stroke-width:0.8;"/>
   </g>
   <g id="patch_5">
    <path d="M 43.78125 288.430125 
L 400.90125 288.430125 
" style="fill:none;stroke:#000000;stroke-linecap:square;stroke-linejoin:miter;stroke-width:0.8;"/>
   </g>
   <g id="patch_6">
    <path d="M 43.78125 22.318125 
L 400.90125 22.318125 
" style="fill:none;stroke:#000000;stroke-linecap:square;stroke-linejoin:miter;stroke-width:0.8;"/>
   </g>
   <g id="text_17">
    <!-- Average maxQ per episode, joint3 -->
    <defs>
     <path d="M 34.1875 63.1875 
L 20.796875 26.90625 
L 47.609375 26.90625 
z
M 28.609375 72.90625 
L 39.796875 72.90625 
L 67.578125 0 
L 57.328125 0 
L 50.6875 18.703125 
L 17.828125 18.703125 
L 11.1875 0 
L 0.78125 0 
z
" id="DejaVuSans-41"/>
     <path d="M 11.71875 12.40625 
L 22.015625 12.40625 
L 22.015625 4 
L 14.015625 -11.625 
L 7.71875 -11.625 
L 11.71875 4 
z
" id="DejaVuSans-2c"/>
     <path d="M 9.421875 54.6875 
L 18.40625 54.6875 
L 18.40625 -0.984375 
Q 18.40625 -11.421875 14.421875 -16.109375 
Q 10.453125 -20.796875 1.609375 -20.796875 
L -1.8125 -20.796875 
L -1.8125 -13.1875 
L 0.59375 -13.1875 
Q 5.71875 -13.1875 7.5625 -10.8125 
Q 9.421875 -8.453125 9.421875 -0.984375 
z
M 9.421875 75.984375 
L 18.40625 75.984375 
L 18.40625 64.59375 
L 9.421875 64.59375 
z
" id="DejaVuSans-6a"/>
     <path d="M 54.890625 33.015625 
L 54.890625 0 
L 45.90625 0 
L 45.90625 32.71875 
Q 45.90625 40.484375 42.875 44.328125 
Q 39.84375 48.1875 33.796875 48.1875 
Q 26.515625 48.1875 22.3125 43.546875 
Q 18.109375 38.921875 18.109375 30.90625 
L 18.109375 0 
L 9.078125 0 
L 9.078125 54.6875 
L 18.109375 54.6875 
L 18.109375 46.1875 
Q 21.34375 51.125 25.703125 53.5625 
Q 30.078125 56 35.796875 56 
Q 45.21875 56 50.046875 50.171875 
Q 54.890625 44.34375 54.890625 33.015625 
z
" id="DejaVuSans-6e"/>
     <path d="M 18.3125 70.21875 
L 18.3125 54.6875 
L 36.8125 54.6875 
L 36.8125 47.703125 
L 18.3125 47.703125 
L 18.3125 18.015625 
Q 18.3125 11.328125 20.140625 9.421875 
Q 21.96875 7.515625 27.59375 7.515625 
L 36.8125 7.515625 
L 36.8125 0 
L 27.59375 0 
Q 17.1875 0 13.234375 3.875 
Q 9.28125 7.765625 9.28125 18.015625 
L 9.28125 47.703125 
L 2.6875 47.703125 
L 2.6875 54.6875 
L 9.28125 54.6875 
L 9.28125 70.21875 
z
" id="DejaVuSans-74"/>
    </defs>
    <g transform="translate(119.61375 16.318125)scale(0.12 -0.12)">
     <use xlink:href="#DejaVuSans-41"/>
     <use x="68.330078" xlink:href="#DejaVuSans-76"/>
     <use x="127.509766" xlink:href="#DejaVuSans-65"/>
     <use x="189.033203" xlink:href="#DejaVuSans-72"/>
     <use x="230.146484" xlink:href="#DejaVuSans-61"/>
     <use x="291.425781" xlink:href="#DejaVuSans-67"/>
     <use x="354.902344" xlink:href="#DejaVuSans-65"/>
     <use x="416.425781" xlink:href="#DejaVuSans-20"/>
     <use x="448.212891" xlink:href="#DejaVuSans-6d"/>
     <use x="545.625" xlink:href="#DejaVuSans-61"/>
     <use x="606.904297" xlink:href="#DejaVuSans-78"/>
     <use x="666.083984" xlink:href="#DejaVuSans-51"/>
     <use x="744.794922" xlink:href="#DejaVuSans-20"/>
     <use x="776.582031" xlink:href="#DejaVuSans-70"/>
     <use x="840.058594" xlink:href="#DejaVuSans-65"/>
     <use x="901.582031" xlink:href="#DejaVuSans-72"/>
     <use x="942.695312" xlink:href="#DejaVuSans-20"/>
     <use x="974.482422" xlink:href="#DejaVuSans-65"/>
     <use x="1036.005859" xlink:href="#DejaVuSans-70"/>
     <use x="1099.482422" xlink:href="#DejaVuSans-69"/>
     <use x="1127.265625" xlink:href="#DejaVuSans-73"/>
     <use x="1179.365234" xlink:href="#DejaVuSans-6f"/>
     <use x="1240.546875" xlink:href="#DejaVuSans-64"/>
     <use x="1304.023438" xlink:href="#DejaVuSans-65"/>
     <use x="1365.546875" xlink:href="#DejaVuSans-2c"/>
     <use x="1397.333984" xlink:href="#DejaVuSans-20"/>
     <use x="1429.121094" xlink:href="#DejaVuSans-6a"/>
     <use x="1456.904297" xlink:href="#DejaVuSans-6f"/>
     <use x="1518.085938" xlink:href="#DejaVuSans-69"/>
     <use x="1545.869141" xlink:href="#DejaVuSans-6e"/>
     <use x="1609.248047" xlink:href="#DejaVuSans-74"/>
     <use x="1648.457031" xlink:href="#DejaVuSans-33"/>
    </g>
   </g>
  </g>
 </g>
 <defs>
  <clipPath id="paf2419088f">
   <rect height="266.112" width="357.12" x="43.78125" y="22.318125"/>
  </clipPath>
 </defs>
</svg>
