<?xml version="1.0" encoding="utf-8" standalone="no"?>
<!DOCTYPE svg PUBLIC "-//W3C//DTD SVG 1.1//EN"
  "http://www.w3.org/Graphics/SVG/1.1/DTD/svg11.dtd">
<!-- Created with matplotlib (http://matplotlib.org/) -->
<svg height="408pt" version="1.1" viewBox="0 0 515 408" width="515pt" xmlns="http://www.w3.org/2000/svg" xmlns:xlink="http://www.w3.org/1999/xlink">
 <defs>
  <style type="text/css">
*{stroke-linecap:butt;stroke-linejoin:round;stroke-miterlimit:100000;}
  </style>
 </defs>
 <g id="figure_1">
  <g id="patch_1">
   <path d="M 0 408.16925 
L 515.77125 408.16925 
L 515.77125 0 
L 0 0 
z
" style="fill:#ffffff;"/>
  </g>
  <g id="axes_1">
   <g id="patch_2">
    <path d="M 50.71875 368.74175 
L 497.11875 368.74175 
L 497.11875 23.14175 
L 50.71875 23.14175 
z
" style="fill:#ffffff;"/>
   </g>
   <g id="line2d_1">
    <path clip-path="url(#pc3f04941be)" d="M 51.356464 23.14175 
L 51.994179 149.28575 
L 52.631893 23.14175 
L 55.820464 23.14175 
L 56.458179 54.24575 
L 57.095893 23.14175 
L 58.371321 23.14175 
L 59.009036 147.55775 
L 59.64675 23.14175 
L 64.748464 23.14175 
L 65.386179 256.42175 
L 66.023893 23.14175 
L 88.343893 23.14175 
L 88.981607 199.39775 
L 89.619321 23.14175 
L 100.460464 23.14175 
L 101.098179 280.61375 
L 101.735893 23.14175 
L 104.28675 23.14175 
L 104.924464 251.23775 
L 105.562179 23.14175 
L 110.026179 23.14175 
L 110.663893 85.34975 
L 111.301607 23.14175 
L 123.418179 23.14175 
L 124.055893 296.16575 
L 124.693607 23.14175 
L 125.331321 23.14175 
L 125.969036 178.66175 
L 126.60675 23.14175 
L 129.795321 23.14175 
L 130.433036 38.69375 
L 131.07075 23.14175 
L 139.361036 23.14175 
L 139.99875 220.13375 
L 140.636464 23.14175 
L 143.825036 23.14175 
L 144.46275 152.74175 
L 145.100464 23.14175 
L 161.043321 23.14175 
L 161.681036 49.06175 
L 162.31875 23.14175 
L 170.609036 23.14175 
L 171.884464 261.60575 
L 172.522179 23.14175 
L 180.812464 23.14175 
L 181.450179 151.01375 
L 182.087893 23.14175 
L 192.291321 23.14175 
L 192.929036 33.50975 
L 193.56675 23.14175 
L 203.770179 23.14175 
L 204.407893 52.51775 
L 205.045607 23.14175 
L 212.698179 23.14175 
L 213.335893 233.95775 
L 213.973607 23.14175 
L 215.88675 23.14175 
L 216.524464 194.21375 
L 217.162179 230.50175 
L 217.799893 23.14175 
L 218.437607 304.80575 
L 219.075321 23.14175 
L 219.713036 287.52575 
L 220.35075 315.17375 
L 220.988464 157.92575 
L 221.626179 176.93375 
L 222.263893 287.52575 
L 222.901607 204.58175 
L 223.539321 194.21375 
L 224.177036 270.24575 
L 224.81475 232.22975 
L 225.452464 313.44575 
L 226.090179 201.12575 
L 226.727893 242.59775 
L 227.365607 239.14175 
L 228.003321 287.52575 
L 228.641036 287.52575 
L 229.27875 132.00575 
L 229.916464 284.06975 
L 230.554179 309.98975 
L 231.191893 282.34175 
L 231.829607 297.89375 
L 232.467321 303.07775 
L 233.105036 328.99775 
L 233.74275 311.71775 
L 234.380464 325.54175 
L 235.018179 322.08575 
L 236.293607 244.32575 
L 236.931321 292.70975 
L 237.569036 280.61375 
L 238.20675 313.44575 
L 238.844464 213.22175 
L 239.482179 90.53375 
L 240.119893 297.89375 
L 240.757607 249.50975 
L 241.395321 287.52575 
L 242.033036 339.36575 
L 242.67075 332.45375 
L 243.308464 322.08575 
L 243.946179 294.43775 
L 244.583893 316.90175 
L 245.221607 313.44575 
L 245.859321 306.53375 
L 246.497036 297.89375 
L 247.13475 328.99775 
L 247.772464 332.45375 
L 248.410179 339.36575 
L 249.047893 303.07775 
L 249.685607 292.70975 
L 250.323321 316.90175 
L 250.961036 290.98175 
L 251.59875 322.08575 
L 252.236464 332.45375 
L 252.874179 247.78175 
L 253.511893 232.22975 
L 254.149607 313.44575 
L 254.787321 318.62975 
L 255.425036 252.96575 
L 256.06275 261.60575 
L 256.700464 306.53375 
L 257.338179 318.62975 
L 257.975893 325.54175 
L 258.613607 289.25375 
L 259.251321 304.80575 
L 259.889036 325.54175 
L 261.164464 311.71775 
L 261.802179 320.35775 
L 262.439893 261.60575 
L 263.077607 273.70175 
L 263.715321 309.98975 
L 264.353036 251.23775 
L 264.99075 313.44575 
L 265.628464 287.52575 
L 266.266179 322.08575 
L 266.903893 304.80575 
L 268.179321 341.09375 
L 268.817036 308.26175 
L 269.45475 334.18175 
L 270.092464 220.13375 
L 270.730179 339.36575 
L 271.367893 320.35775 
L 272.005607 318.62975 
L 272.643321 313.44575 
L 273.281036 309.98975 
L 273.91875 159.65375 
L 274.556464 313.44575 
L 275.194179 325.54175 
L 275.831893 308.26175 
L 276.469607 271.97375 
L 277.107321 313.44575 
L 277.745036 308.26175 
L 278.38275 102.62975 
L 279.020464 99.17375 
L 279.658179 308.26175 
L 280.295893 320.35775 
L 280.933607 230.50175 
L 281.571321 315.17375 
L 282.209036 182.11775 
L 282.84675 313.44575 
L 283.484464 290.98175 
L 284.122179 142.37375 
L 284.759893 339.36575 
L 285.397607 309.98975 
L 286.035321 299.62175 
L 286.673036 344.54975 
L 287.31075 337.63775 
L 287.948464 332.45375 
L 288.586179 330.72575 
L 289.223893 334.18175 
L 289.861607 335.90975 
L 290.499321 323.81375 
L 291.137036 335.90975 
L 291.77475 299.62175 
L 293.050179 342.82175 
L 293.687893 334.18175 
L 294.325607 320.35775 
L 294.963321 277.15775 
L 295.601036 311.71775 
L 296.23875 325.54175 
L 296.876464 209.76575 
L 297.514179 223.58975 
L 298.151893 337.63775 
L 298.789607 252.96575 
L 299.427321 334.18175 
L 300.065036 304.80575 
L 300.70275 308.26175 
L 301.340464 342.82175 
L 301.978179 341.09375 
L 302.615893 232.22975 
L 303.253607 261.60575 
L 303.891321 296.16575 
L 304.529036 284.06975 
L 305.804464 316.90175 
L 306.442179 301.34975 
L 307.079893 292.70975 
L 307.717607 337.63775 
L 308.355321 337.63775 
L 308.993036 335.90975 
L 309.63075 176.93375 
L 310.268464 330.72575 
L 310.906179 339.36575 
L 311.543893 292.70975 
L 312.181607 341.09375 
L 312.819321 337.63775 
L 313.457036 322.08575 
L 314.09475 323.81375 
L 314.732464 297.89375 
L 315.370179 339.36575 
L 316.007893 342.82175 
L 316.645607 249.50975 
L 317.283321 126.82175 
L 317.921036 341.09375 
L 318.55875 270.24575 
L 319.196464 332.45375 
L 319.834179 325.54175 
L 320.471893 256.42175 
L 321.109607 328.99775 
L 321.747321 342.82175 
L 322.385036 342.82175 
L 323.02275 73.25375 
L 323.660464 284.06975 
L 324.298179 313.44575 
L 324.935893 348.00575 
L 325.573607 335.90975 
L 326.211321 341.09375 
L 326.849036 341.09375 
L 327.48675 309.98975 
L 328.124464 341.09375 
L 328.762179 230.50175 
L 329.399893 327.26975 
L 330.037607 332.45375 
L 330.675321 327.26975 
L 331.313036 290.98175 
L 331.95075 342.82175 
L 332.588464 339.36575 
L 333.226179 341.09375 
L 333.863893 327.26975 
L 334.501607 78.43775 
L 335.139321 23.14175 
L 335.777036 346.27775 
L 336.41475 171.74975 
L 337.052464 325.54175 
L 337.690179 308.26175 
L 338.327893 308.26175 
L 338.965607 313.44575 
L 339.603321 332.45375 
L 340.241036 342.82175 
L 340.87875 192.48575 
L 341.516464 349.73375 
L 342.154179 346.27775 
L 342.791893 348.00575 
L 343.429607 316.90175 
L 344.067321 330.72575 
L 344.705036 335.90975 
L 345.34275 107.81375 
L 345.980464 49.06175 
L 346.618179 339.36575 
L 347.893607 23.14175 
L 348.531321 339.36575 
L 349.169036 308.26175 
L 349.80675 316.90175 
L 350.444464 320.35775 
L 351.719893 349.73375 
L 352.357607 102.62975 
L 352.995321 341.09375 
L 353.633036 349.73375 
L 354.27075 342.82175 
L 354.908464 263.33375 
L 355.546179 342.82175 
L 356.183893 23.14175 
L 356.821607 195.94175 
L 357.459321 23.14175 
L 358.097036 323.81375 
L 358.73475 265.06175 
L 359.372464 220.13375 
L 360.010179 328.99775 
L 360.647893 322.08575 
L 361.285607 335.90975 
L 361.923321 346.27775 
L 362.561036 30.05375 
L 363.19875 335.90975 
L 363.836464 341.09375 
L 364.474179 335.90975 
L 365.111893 192.48575 
L 365.749607 309.98975 
L 366.387321 344.54975 
L 367.025036 344.54975 
L 367.66275 246.05375 
L 368.300464 289.25375 
L 368.938179 346.27775 
L 369.575893 348.00575 
L 370.213607 335.90975 
L 370.851321 311.71775 
L 371.489036 346.27775 
L 372.12675 344.54975 
L 372.764464 341.09375 
L 373.402179 23.14175 
L 374.039893 342.82175 
L 374.677607 327.26975 
L 375.315321 335.90975 
L 375.953036 348.00575 
L 376.59075 337.63775 
L 377.228464 306.53375 
L 377.866179 342.82175 
L 378.503893 168.29375 
L 379.141607 344.54975 
L 379.779321 339.36575 
L 380.417036 266.78975 
L 381.05475 43.87775 
L 381.692464 301.34975 
L 382.330179 301.34975 
L 382.967893 294.43775 
L 383.605607 92.26175 
L 384.243321 301.34975 
L 384.881036 342.82175 
L 386.156464 342.82175 
L 386.794179 232.22975 
L 387.431893 348.00575 
L 388.069607 271.97375 
L 388.707321 348.00575 
L 389.345036 342.82175 
L 389.98275 341.09375 
L 390.620464 315.17375 
L 391.895893 337.63775 
L 392.533607 334.18175 
L 393.171321 334.18175 
L 394.44675 348.00575 
L 395.084464 339.36575 
L 395.722179 316.90175 
L 396.359893 318.62975 
L 396.997607 344.54975 
L 397.635321 327.26975 
L 398.273036 332.45375 
L 398.91075 334.18175 
L 399.548464 346.27775 
L 400.186179 313.44575 
L 400.823893 341.09375 
L 401.461607 23.14175 
L 402.099321 339.36575 
L 402.737036 23.14175 
L 403.37475 301.34975 
L 404.012464 256.42175 
L 404.650179 341.09375 
L 405.287893 164.83775 
L 405.925607 344.54975 
L 406.563321 346.27775 
L 407.201036 344.54975 
L 407.83875 254.69375 
L 408.476464 344.54975 
L 409.114179 23.14175 
L 409.751893 348.00575 
L 411.027321 344.54975 
L 411.665036 23.14175 
L 412.30275 332.45375 
L 412.940464 258.14975 
L 413.578179 258.14975 
L 414.215893 322.08575 
L 414.853607 23.14175 
L 415.491321 23.14175 
L 416.129036 334.18175 
L 416.76675 313.44575 
L 417.404464 315.17375 
L 418.042179 201.12575 
L 418.679893 261.60575 
L 419.317607 144.10175 
L 419.955321 185.57375 
L 420.593036 346.27775 
L 421.23075 171.74975 
L 421.868464 313.44575 
L 422.506179 220.13375 
L 423.143893 322.08575 
L 424.419321 23.14175 
L 425.057036 325.54175 
L 425.69475 151.01375 
L 426.332464 296.16575 
L 426.970179 304.80575 
L 427.607893 23.14175 
L 428.245607 23.14175 
L 428.883321 348.00575 
L 429.521036 183.84575 
L 430.15875 90.53375 
L 430.796464 138.91775 
L 431.434179 23.14175 
L 432.071893 349.73375 
L 432.709607 299.62175 
L 433.347321 344.54975 
L 433.985036 339.36575 
L 434.62275 242.59775 
L 435.260464 23.14175 
L 435.898179 334.18175 
L 436.535893 154.46975 
L 437.173607 297.89375 
L 437.811321 175.20575 
L 438.449036 109.54175 
L 439.08675 277.15775 
L 439.724464 23.14175 
L 440.362179 325.54175 
L 440.999893 315.17375 
L 441.637607 342.82175 
L 442.275321 88.80575 
L 442.913036 258.14975 
L 443.55075 344.54975 
L 444.188464 149.28575 
L 444.826179 339.36575 
L 445.463893 337.63775 
L 446.101607 277.15775 
L 446.739321 328.99775 
L 447.377036 132.00575 
L 448.01475 303.07775 
L 448.652464 62.88575 
L 449.290179 342.82175 
L 449.927893 301.34975 
L 450.565607 327.26975 
L 451.203321 294.43775 
L 451.841036 206.30975 
L 452.47875 328.99775 
L 453.116464 285.79775 
L 453.754179 328.99775 
L 454.391893 23.14175 
L 455.029607 341.09375 
L 455.667321 341.09375 
L 456.305036 348.00575 
L 456.94275 303.07775 
L 457.580464 290.98175 
L 458.218179 247.78175 
L 458.855893 346.27775 
L 459.493607 346.27775 
L 460.131321 339.36575 
L 460.769036 327.26975 
L 461.40675 344.54975 
L 462.044464 328.99775 
L 462.682179 23.14175 
L 463.319893 328.99775 
L 463.957607 323.81375 
L 464.595321 332.45375 
L 465.233036 344.54975 
L 465.87075 23.14175 
L 466.508464 23.14175 
L 467.146179 313.44575 
L 467.783893 348.00575 
L 468.421607 23.14175 
L 469.059321 332.45375 
L 469.697036 23.14175 
L 470.33475 339.36575 
L 470.972464 320.35775 
L 471.610179 328.99775 
L 472.247893 201.12575 
L 472.885607 290.98175 
L 473.523321 157.92575 
L 474.161036 348.00575 
L 474.79875 327.26975 
L 474.79875 327.26975 
" style="fill:none;stroke:#0000ff;stroke-linecap:square;stroke-width:0.5;"/>
   </g>
   <g id="patch_3">
    <path d="M 50.71875 23.14175 
L 497.11875 23.14175 
" style="fill:none;stroke:#000000;stroke-linecap:square;stroke-linejoin:miter;"/>
   </g>
   <g id="patch_4">
    <path d="M 497.11875 368.74175 
L 497.11875 23.14175 
" style="fill:none;stroke:#000000;stroke-linecap:square;stroke-linejoin:miter;"/>
   </g>
   <g id="patch_5">
    <path d="M 50.71875 368.74175 
L 50.71875 23.14175 
" style="fill:none;stroke:#000000;stroke-linecap:square;stroke-linejoin:miter;"/>
   </g>
   <g id="patch_6">
    <path d="M 50.71875 368.74175 
L 497.11875 368.74175 
" style="fill:none;stroke:#000000;stroke-linecap:square;stroke-linejoin:miter;"/>
   </g>
   <g id="matplotlib.axis_1">
    <g id="xtick_1">
     <g id="line2d_2">
      <defs>
       <path d="M 0 0 
L 0 -4 
" id="m0e0d8f5931" style="stroke:#000000;stroke-width:0.5;"/>
      </defs>
      <g>
       <use style="stroke:#000000;stroke-width:0.5;" x="50.71875" xlink:href="#m0e0d8f5931" y="368.74175"/>
      </g>
     </g>
     <g id="line2d_3">
      <defs>
       <path d="M 0 0 
L 0 4 
" id="m29c65e82cb" style="stroke:#000000;stroke-width:0.5;"/>
      </defs>
      <g>
       <use style="stroke:#000000;stroke-width:0.5;" x="50.71875" xlink:href="#m29c65e82cb" y="23.14175"/>
      </g>
     </g>
     <g id="text_1">
      <!-- 0 -->
      <defs>
       <path d="M 31.78125 66.40625 
Q 24.171875 66.40625 20.328125 58.90625 
Q 16.5 51.421875 16.5 36.375 
Q 16.5 21.390625 20.328125 13.890625 
Q 24.171875 6.390625 31.78125 6.390625 
Q 39.453125 6.390625 43.28125 13.890625 
Q 47.125 21.390625 47.125 36.375 
Q 47.125 51.421875 43.28125 58.90625 
Q 39.453125 66.40625 31.78125 66.40625 
M 31.78125 74.21875 
Q 44.046875 74.21875 50.515625 64.515625 
Q 56.984375 54.828125 56.984375 36.375 
Q 56.984375 17.96875 50.515625 8.265625 
Q 44.046875 -1.421875 31.78125 -1.421875 
Q 19.53125 -1.421875 13.0625 8.265625 
Q 6.59375 17.96875 6.59375 36.375 
Q 6.59375 54.828125 13.0625 64.515625 
Q 19.53125 74.21875 31.78125 74.21875 
" id="BitstreamVeraSans-Roman-30"/>
      </defs>
      <g transform="translate(46.90125 381.859875)scale(0.12 -0.12)">
       <use xlink:href="#BitstreamVeraSans-Roman-30"/>
      </g>
     </g>
    </g>
    <g id="xtick_2">
     <g id="line2d_4">
      <g>
       <use style="stroke:#000000;stroke-width:0.5;" x="114.490178571" xlink:href="#m0e0d8f5931" y="368.74175"/>
      </g>
     </g>
     <g id="line2d_5">
      <g>
       <use style="stroke:#000000;stroke-width:0.5;" x="114.490178571" xlink:href="#m29c65e82cb" y="23.14175"/>
      </g>
     </g>
     <g id="text_2">
      <!-- 100 -->
      <defs>
       <path d="M 12.40625 8.296875 
L 28.515625 8.296875 
L 28.515625 63.921875 
L 10.984375 60.40625 
L 10.984375 69.390625 
L 28.421875 72.90625 
L 38.28125 72.90625 
L 38.28125 8.296875 
L 54.390625 8.296875 
L 54.390625 0 
L 12.40625 0 
z
" id="BitstreamVeraSans-Roman-31"/>
      </defs>
      <g transform="translate(103.037678571 381.859875)scale(0.12 -0.12)">
       <use xlink:href="#BitstreamVeraSans-Roman-31"/>
       <use x="63.623046875" xlink:href="#BitstreamVeraSans-Roman-30"/>
       <use x="127.24609375" xlink:href="#BitstreamVeraSans-Roman-30"/>
      </g>
     </g>
    </g>
    <g id="xtick_3">
     <g id="line2d_6">
      <g>
       <use style="stroke:#000000;stroke-width:0.5;" x="178.261607143" xlink:href="#m0e0d8f5931" y="368.74175"/>
      </g>
     </g>
     <g id="line2d_7">
      <g>
       <use style="stroke:#000000;stroke-width:0.5;" x="178.261607143" xlink:href="#m29c65e82cb" y="23.14175"/>
      </g>
     </g>
     <g id="text_3">
      <!-- 200 -->
      <defs>
       <path d="M 19.1875 8.296875 
L 53.609375 8.296875 
L 53.609375 0 
L 7.328125 0 
L 7.328125 8.296875 
Q 12.9375 14.109375 22.625 23.890625 
Q 32.328125 33.6875 34.8125 36.53125 
Q 39.546875 41.84375 41.421875 45.53125 
Q 43.3125 49.21875 43.3125 52.78125 
Q 43.3125 58.59375 39.234375 62.25 
Q 35.15625 65.921875 28.609375 65.921875 
Q 23.96875 65.921875 18.8125 64.3125 
Q 13.671875 62.703125 7.8125 59.421875 
L 7.8125 69.390625 
Q 13.765625 71.78125 18.9375 73 
Q 24.125 74.21875 28.421875 74.21875 
Q 39.75 74.21875 46.484375 68.546875 
Q 53.21875 62.890625 53.21875 53.421875 
Q 53.21875 48.921875 51.53125 44.890625 
Q 49.859375 40.875 45.40625 35.40625 
Q 44.1875 33.984375 37.640625 27.21875 
Q 31.109375 20.453125 19.1875 8.296875 
" id="BitstreamVeraSans-Roman-32"/>
      </defs>
      <g transform="translate(166.809107143 381.859875)scale(0.12 -0.12)">
       <use xlink:href="#BitstreamVeraSans-Roman-32"/>
       <use x="63.623046875" xlink:href="#BitstreamVeraSans-Roman-30"/>
       <use x="127.24609375" xlink:href="#BitstreamVeraSans-Roman-30"/>
      </g>
     </g>
    </g>
    <g id="xtick_4">
     <g id="line2d_8">
      <g>
       <use style="stroke:#000000;stroke-width:0.5;" x="242.033035714" xlink:href="#m0e0d8f5931" y="368.74175"/>
      </g>
     </g>
     <g id="line2d_9">
      <g>
       <use style="stroke:#000000;stroke-width:0.5;" x="242.033035714" xlink:href="#m29c65e82cb" y="23.14175"/>
      </g>
     </g>
     <g id="text_4">
      <!-- 300 -->
      <defs>
       <path d="M 40.578125 39.3125 
Q 47.65625 37.796875 51.625 33 
Q 55.609375 28.21875 55.609375 21.1875 
Q 55.609375 10.40625 48.1875 4.484375 
Q 40.765625 -1.421875 27.09375 -1.421875 
Q 22.515625 -1.421875 17.65625 -0.515625 
Q 12.796875 0.390625 7.625 2.203125 
L 7.625 11.71875 
Q 11.71875 9.328125 16.59375 8.109375 
Q 21.484375 6.890625 26.8125 6.890625 
Q 36.078125 6.890625 40.9375 10.546875 
Q 45.796875 14.203125 45.796875 21.1875 
Q 45.796875 27.640625 41.28125 31.265625 
Q 36.765625 34.90625 28.71875 34.90625 
L 20.21875 34.90625 
L 20.21875 43.015625 
L 29.109375 43.015625 
Q 36.375 43.015625 40.234375 45.921875 
Q 44.09375 48.828125 44.09375 54.296875 
Q 44.09375 59.90625 40.109375 62.90625 
Q 36.140625 65.921875 28.71875 65.921875 
Q 24.65625 65.921875 20.015625 65.03125 
Q 15.375 64.15625 9.8125 62.3125 
L 9.8125 71.09375 
Q 15.4375 72.65625 20.34375 73.4375 
Q 25.25 74.21875 29.59375 74.21875 
Q 40.828125 74.21875 47.359375 69.109375 
Q 53.90625 64.015625 53.90625 55.328125 
Q 53.90625 49.265625 50.4375 45.09375 
Q 46.96875 40.921875 40.578125 39.3125 
" id="BitstreamVeraSans-Roman-33"/>
      </defs>
      <g transform="translate(230.580535714 381.859875)scale(0.12 -0.12)">
       <use xlink:href="#BitstreamVeraSans-Roman-33"/>
       <use x="63.623046875" xlink:href="#BitstreamVeraSans-Roman-30"/>
       <use x="127.24609375" xlink:href="#BitstreamVeraSans-Roman-30"/>
      </g>
     </g>
    </g>
    <g id="xtick_5">
     <g id="line2d_10">
      <g>
       <use style="stroke:#000000;stroke-width:0.5;" x="305.804464286" xlink:href="#m0e0d8f5931" y="368.74175"/>
      </g>
     </g>
     <g id="line2d_11">
      <g>
       <use style="stroke:#000000;stroke-width:0.5;" x="305.804464286" xlink:href="#m29c65e82cb" y="23.14175"/>
      </g>
     </g>
     <g id="text_5">
      <!-- 400 -->
      <defs>
       <path d="M 37.796875 64.3125 
L 12.890625 25.390625 
L 37.796875 25.390625 
z
M 35.203125 72.90625 
L 47.609375 72.90625 
L 47.609375 25.390625 
L 58.015625 25.390625 
L 58.015625 17.1875 
L 47.609375 17.1875 
L 47.609375 0 
L 37.796875 0 
L 37.796875 17.1875 
L 4.890625 17.1875 
L 4.890625 26.703125 
z
" id="BitstreamVeraSans-Roman-34"/>
      </defs>
      <g transform="translate(294.351964286 381.859875)scale(0.12 -0.12)">
       <use xlink:href="#BitstreamVeraSans-Roman-34"/>
       <use x="63.623046875" xlink:href="#BitstreamVeraSans-Roman-30"/>
       <use x="127.24609375" xlink:href="#BitstreamVeraSans-Roman-30"/>
      </g>
     </g>
    </g>
    <g id="xtick_6">
     <g id="line2d_12">
      <g>
       <use style="stroke:#000000;stroke-width:0.5;" x="369.575892857" xlink:href="#m0e0d8f5931" y="368.74175"/>
      </g>
     </g>
     <g id="line2d_13">
      <g>
       <use style="stroke:#000000;stroke-width:0.5;" x="369.575892857" xlink:href="#m29c65e82cb" y="23.14175"/>
      </g>
     </g>
     <g id="text_6">
      <!-- 500 -->
      <defs>
       <path d="M 10.796875 72.90625 
L 49.515625 72.90625 
L 49.515625 64.59375 
L 19.828125 64.59375 
L 19.828125 46.734375 
Q 21.96875 47.46875 24.109375 47.828125 
Q 26.265625 48.1875 28.421875 48.1875 
Q 40.625 48.1875 47.75 41.5 
Q 54.890625 34.8125 54.890625 23.390625 
Q 54.890625 11.625 47.5625 5.09375 
Q 40.234375 -1.421875 26.90625 -1.421875 
Q 22.3125 -1.421875 17.546875 -0.640625 
Q 12.796875 0.140625 7.71875 1.703125 
L 7.71875 11.625 
Q 12.109375 9.234375 16.796875 8.0625 
Q 21.484375 6.890625 26.703125 6.890625 
Q 35.15625 6.890625 40.078125 11.328125 
Q 45.015625 15.765625 45.015625 23.390625 
Q 45.015625 31 40.078125 35.4375 
Q 35.15625 39.890625 26.703125 39.890625 
Q 22.75 39.890625 18.8125 39.015625 
Q 14.890625 38.140625 10.796875 36.28125 
z
" id="BitstreamVeraSans-Roman-35"/>
      </defs>
      <g transform="translate(358.123392857 381.859875)scale(0.12 -0.12)">
       <use xlink:href="#BitstreamVeraSans-Roman-35"/>
       <use x="63.623046875" xlink:href="#BitstreamVeraSans-Roman-30"/>
       <use x="127.24609375" xlink:href="#BitstreamVeraSans-Roman-30"/>
      </g>
     </g>
    </g>
    <g id="xtick_7">
     <g id="line2d_14">
      <g>
       <use style="stroke:#000000;stroke-width:0.5;" x="433.347321429" xlink:href="#m0e0d8f5931" y="368.74175"/>
      </g>
     </g>
     <g id="line2d_15">
      <g>
       <use style="stroke:#000000;stroke-width:0.5;" x="433.347321429" xlink:href="#m29c65e82cb" y="23.14175"/>
      </g>
     </g>
     <g id="text_7">
      <!-- 600 -->
      <defs>
       <path d="M 33.015625 40.375 
Q 26.375 40.375 22.484375 35.828125 
Q 18.609375 31.296875 18.609375 23.390625 
Q 18.609375 15.53125 22.484375 10.953125 
Q 26.375 6.390625 33.015625 6.390625 
Q 39.65625 6.390625 43.53125 10.953125 
Q 47.40625 15.53125 47.40625 23.390625 
Q 47.40625 31.296875 43.53125 35.828125 
Q 39.65625 40.375 33.015625 40.375 
M 52.59375 71.296875 
L 52.59375 62.3125 
Q 48.875 64.0625 45.09375 64.984375 
Q 41.3125 65.921875 37.59375 65.921875 
Q 27.828125 65.921875 22.671875 59.328125 
Q 17.53125 52.734375 16.796875 39.40625 
Q 19.671875 43.65625 24.015625 45.921875 
Q 28.375 48.1875 33.59375 48.1875 
Q 44.578125 48.1875 50.953125 41.515625 
Q 57.328125 34.859375 57.328125 23.390625 
Q 57.328125 12.15625 50.6875 5.359375 
Q 44.046875 -1.421875 33.015625 -1.421875 
Q 20.359375 -1.421875 13.671875 8.265625 
Q 6.984375 17.96875 6.984375 36.375 
Q 6.984375 53.65625 15.1875 63.9375 
Q 23.390625 74.21875 37.203125 74.21875 
Q 40.921875 74.21875 44.703125 73.484375 
Q 48.484375 72.75 52.59375 71.296875 
" id="BitstreamVeraSans-Roman-36"/>
      </defs>
      <g transform="translate(421.894821429 381.859875)scale(0.12 -0.12)">
       <use xlink:href="#BitstreamVeraSans-Roman-36"/>
       <use x="63.623046875" xlink:href="#BitstreamVeraSans-Roman-30"/>
       <use x="127.24609375" xlink:href="#BitstreamVeraSans-Roman-30"/>
      </g>
     </g>
    </g>
    <g id="xtick_8">
     <g id="line2d_16">
      <g>
       <use style="stroke:#000000;stroke-width:0.5;" x="497.11875" xlink:href="#m0e0d8f5931" y="368.74175"/>
      </g>
     </g>
     <g id="line2d_17">
      <g>
       <use style="stroke:#000000;stroke-width:0.5;" x="497.11875" xlink:href="#m29c65e82cb" y="23.14175"/>
      </g>
     </g>
     <g id="text_8">
      <!-- 700 -->
      <defs>
       <path d="M 8.203125 72.90625 
L 55.078125 72.90625 
L 55.078125 68.703125 
L 28.609375 0 
L 18.3125 0 
L 43.21875 64.59375 
L 8.203125 64.59375 
z
" id="BitstreamVeraSans-Roman-37"/>
      </defs>
      <g transform="translate(485.66625 381.859875)scale(0.12 -0.12)">
       <use xlink:href="#BitstreamVeraSans-Roman-37"/>
       <use x="63.623046875" xlink:href="#BitstreamVeraSans-Roman-30"/>
       <use x="127.24609375" xlink:href="#BitstreamVeraSans-Roman-30"/>
      </g>
     </g>
    </g>
    <g id="text_9">
     <!-- episodes -->
     <defs>
      <path d="M 18.109375 8.203125 
L 18.109375 -20.796875 
L 9.078125 -20.796875 
L 9.078125 54.6875 
L 18.109375 54.6875 
L 18.109375 46.390625 
Q 20.953125 51.265625 25.265625 53.625 
Q 29.59375 56 35.59375 56 
Q 45.5625 56 51.78125 48.09375 
Q 58.015625 40.1875 58.015625 27.296875 
Q 58.015625 14.40625 51.78125 6.484375 
Q 45.5625 -1.421875 35.59375 -1.421875 
Q 29.59375 -1.421875 25.265625 0.953125 
Q 20.953125 3.328125 18.109375 8.203125 
M 48.6875 27.296875 
Q 48.6875 37.203125 44.609375 42.84375 
Q 40.53125 48.484375 33.40625 48.484375 
Q 26.265625 48.484375 22.1875 42.84375 
Q 18.109375 37.203125 18.109375 27.296875 
Q 18.109375 17.390625 22.1875 11.75 
Q 26.265625 6.109375 33.40625 6.109375 
Q 40.53125 6.109375 44.609375 11.75 
Q 48.6875 17.390625 48.6875 27.296875 
" id="BitstreamVeraSans-Roman-70"/>
      <path d="M 44.28125 53.078125 
L 44.28125 44.578125 
Q 40.484375 46.53125 36.375 47.5 
Q 32.28125 48.484375 27.875 48.484375 
Q 21.1875 48.484375 17.84375 46.4375 
Q 14.5 44.390625 14.5 40.28125 
Q 14.5 37.15625 16.890625 35.375 
Q 19.28125 33.59375 26.515625 31.984375 
L 29.59375 31.296875 
Q 39.15625 29.25 43.1875 25.515625 
Q 47.21875 21.78125 47.21875 15.09375 
Q 47.21875 7.46875 41.1875 3.015625 
Q 35.15625 -1.421875 24.609375 -1.421875 
Q 20.21875 -1.421875 15.453125 -0.5625 
Q 10.6875 0.296875 5.421875 2 
L 5.421875 11.28125 
Q 10.40625 8.6875 15.234375 7.390625 
Q 20.0625 6.109375 24.8125 6.109375 
Q 31.15625 6.109375 34.5625 8.28125 
Q 37.984375 10.453125 37.984375 14.40625 
Q 37.984375 18.0625 35.515625 20.015625 
Q 33.0625 21.96875 24.703125 23.78125 
L 21.578125 24.515625 
Q 13.234375 26.265625 9.515625 29.90625 
Q 5.8125 33.546875 5.8125 39.890625 
Q 5.8125 47.609375 11.28125 51.796875 
Q 16.75 56 26.8125 56 
Q 31.78125 56 36.171875 55.265625 
Q 40.578125 54.546875 44.28125 53.078125 
" id="BitstreamVeraSans-Roman-73"/>
      <path d="M 9.421875 54.6875 
L 18.40625 54.6875 
L 18.40625 0 
L 9.421875 0 
z
M 9.421875 75.984375 
L 18.40625 75.984375 
L 18.40625 64.59375 
L 9.421875 64.59375 
z
" id="BitstreamVeraSans-Roman-69"/>
      <path d="M 30.609375 48.390625 
Q 23.390625 48.390625 19.1875 42.75 
Q 14.984375 37.109375 14.984375 27.296875 
Q 14.984375 17.484375 19.15625 11.84375 
Q 23.34375 6.203125 30.609375 6.203125 
Q 37.796875 6.203125 41.984375 11.859375 
Q 46.1875 17.53125 46.1875 27.296875 
Q 46.1875 37.015625 41.984375 42.703125 
Q 37.796875 48.390625 30.609375 48.390625 
M 30.609375 56 
Q 42.328125 56 49.015625 48.375 
Q 55.71875 40.765625 55.71875 27.296875 
Q 55.71875 13.875 49.015625 6.21875 
Q 42.328125 -1.421875 30.609375 -1.421875 
Q 18.84375 -1.421875 12.171875 6.21875 
Q 5.515625 13.875 5.515625 27.296875 
Q 5.515625 40.765625 12.171875 48.375 
Q 18.84375 56 30.609375 56 
" id="BitstreamVeraSans-Roman-6f"/>
      <path d="M 56.203125 29.59375 
L 56.203125 25.203125 
L 14.890625 25.203125 
Q 15.484375 15.921875 20.484375 11.0625 
Q 25.484375 6.203125 34.421875 6.203125 
Q 39.59375 6.203125 44.453125 7.46875 
Q 49.3125 8.734375 54.109375 11.28125 
L 54.109375 2.78125 
Q 49.265625 0.734375 44.1875 -0.34375 
Q 39.109375 -1.421875 33.890625 -1.421875 
Q 20.796875 -1.421875 13.15625 6.1875 
Q 5.515625 13.8125 5.515625 26.8125 
Q 5.515625 40.234375 12.765625 48.109375 
Q 20.015625 56 32.328125 56 
Q 43.359375 56 49.78125 48.890625 
Q 56.203125 41.796875 56.203125 29.59375 
M 47.21875 32.234375 
Q 47.125 39.59375 43.09375 43.984375 
Q 39.0625 48.390625 32.421875 48.390625 
Q 24.90625 48.390625 20.390625 44.140625 
Q 15.875 39.890625 15.1875 32.171875 
z
" id="BitstreamVeraSans-Roman-65"/>
      <path d="M 45.40625 46.390625 
L 45.40625 75.984375 
L 54.390625 75.984375 
L 54.390625 0 
L 45.40625 0 
L 45.40625 8.203125 
Q 42.578125 3.328125 38.25 0.953125 
Q 33.9375 -1.421875 27.875 -1.421875 
Q 17.96875 -1.421875 11.734375 6.484375 
Q 5.515625 14.40625 5.515625 27.296875 
Q 5.515625 40.1875 11.734375 48.09375 
Q 17.96875 56 27.875 56 
Q 33.9375 56 38.25 53.625 
Q 42.578125 51.265625 45.40625 46.390625 
M 14.796875 27.296875 
Q 14.796875 17.390625 18.875 11.75 
Q 22.953125 6.109375 30.078125 6.109375 
Q 37.203125 6.109375 41.296875 11.75 
Q 45.40625 17.390625 45.40625 27.296875 
Q 45.40625 37.203125 41.296875 42.84375 
Q 37.203125 48.484375 30.078125 48.484375 
Q 22.953125 48.484375 18.875 42.84375 
Q 14.796875 37.203125 14.796875 27.296875 
" id="BitstreamVeraSans-Roman-64"/>
     </defs>
     <g transform="translate(247.3275 398.473625)scale(0.12 -0.12)">
      <use xlink:href="#BitstreamVeraSans-Roman-65"/>
      <use x="61.5234375" xlink:href="#BitstreamVeraSans-Roman-70"/>
      <use x="125.0" xlink:href="#BitstreamVeraSans-Roman-69"/>
      <use x="152.783203125" xlink:href="#BitstreamVeraSans-Roman-73"/>
      <use x="204.8828125" xlink:href="#BitstreamVeraSans-Roman-6f"/>
      <use x="266.064453125" xlink:href="#BitstreamVeraSans-Roman-64"/>
      <use x="329.541015625" xlink:href="#BitstreamVeraSans-Roman-65"/>
      <use x="391.064453125" xlink:href="#BitstreamVeraSans-Roman-73"/>
     </g>
    </g>
   </g>
   <g id="matplotlib.axis_2">
    <g id="ytick_1">
     <g id="line2d_18">
      <defs>
       <path d="M 0 0 
L 4 0 
" id="m8ef4f27caa" style="stroke:#000000;stroke-width:0.5;"/>
      </defs>
      <g>
       <use style="stroke:#000000;stroke-width:0.5;" x="50.71875" xlink:href="#m8ef4f27caa" y="368.74175"/>
      </g>
     </g>
     <g id="line2d_19">
      <defs>
       <path d="M 0 0 
L -4 0 
" id="m072664f848" style="stroke:#000000;stroke-width:0.5;"/>
      </defs>
      <g>
       <use style="stroke:#000000;stroke-width:0.5;" x="497.11875" xlink:href="#m072664f848" y="368.74175"/>
      </g>
     </g>
     <g id="text_10">
      <!-- 0 -->
      <g transform="translate(39.08375 372.053)scale(0.12 -0.12)">
       <use xlink:href="#BitstreamVeraSans-Roman-30"/>
      </g>
     </g>
    </g>
    <g id="ytick_2">
     <g id="line2d_20">
      <g>
       <use style="stroke:#000000;stroke-width:0.5;" x="50.71875" xlink:href="#m8ef4f27caa" y="282.34175"/>
      </g>
     </g>
     <g id="line2d_21">
      <g>
       <use style="stroke:#000000;stroke-width:0.5;" x="497.11875" xlink:href="#m072664f848" y="282.34175"/>
      </g>
     </g>
     <g id="text_11">
      <!-- 50 -->
      <g transform="translate(31.44875 285.653)scale(0.12 -0.12)">
       <use xlink:href="#BitstreamVeraSans-Roman-35"/>
       <use x="63.623046875" xlink:href="#BitstreamVeraSans-Roman-30"/>
      </g>
     </g>
    </g>
    <g id="ytick_3">
     <g id="line2d_22">
      <g>
       <use style="stroke:#000000;stroke-width:0.5;" x="50.71875" xlink:href="#m8ef4f27caa" y="195.94175"/>
      </g>
     </g>
     <g id="line2d_23">
      <g>
       <use style="stroke:#000000;stroke-width:0.5;" x="497.11875" xlink:href="#m072664f848" y="195.94175"/>
      </g>
     </g>
     <g id="text_12">
      <!-- 100 -->
      <g transform="translate(23.81375 199.253)scale(0.12 -0.12)">
       <use xlink:href="#BitstreamVeraSans-Roman-31"/>
       <use x="63.623046875" xlink:href="#BitstreamVeraSans-Roman-30"/>
       <use x="127.24609375" xlink:href="#BitstreamVeraSans-Roman-30"/>
      </g>
     </g>
    </g>
    <g id="ytick_4">
     <g id="line2d_24">
      <g>
       <use style="stroke:#000000;stroke-width:0.5;" x="50.71875" xlink:href="#m8ef4f27caa" y="109.54175"/>
      </g>
     </g>
     <g id="line2d_25">
      <g>
       <use style="stroke:#000000;stroke-width:0.5;" x="497.11875" xlink:href="#m072664f848" y="109.54175"/>
      </g>
     </g>
     <g id="text_13">
      <!-- 150 -->
      <g transform="translate(23.81375 112.853)scale(0.12 -0.12)">
       <use xlink:href="#BitstreamVeraSans-Roman-31"/>
       <use x="63.623046875" xlink:href="#BitstreamVeraSans-Roman-35"/>
       <use x="127.24609375" xlink:href="#BitstreamVeraSans-Roman-30"/>
      </g>
     </g>
    </g>
    <g id="ytick_5">
     <g id="line2d_26">
      <g>
       <use style="stroke:#000000;stroke-width:0.5;" x="50.71875" xlink:href="#m8ef4f27caa" y="23.14175"/>
      </g>
     </g>
     <g id="line2d_27">
      <g>
       <use style="stroke:#000000;stroke-width:0.5;" x="497.11875" xlink:href="#m072664f848" y="23.14175"/>
      </g>
     </g>
     <g id="text_14">
      <!-- 200 -->
      <g transform="translate(23.81375 26.453)scale(0.12 -0.12)">
       <use xlink:href="#BitstreamVeraSans-Roman-32"/>
       <use x="63.623046875" xlink:href="#BitstreamVeraSans-Roman-30"/>
       <use x="127.24609375" xlink:href="#BitstreamVeraSans-Roman-30"/>
      </g>
     </g>
    </g>
    <g id="text_15">
     <!-- success step -->
     <defs>
      <path d="M 8.5 21.578125 
L 8.5 54.6875 
L 17.484375 54.6875 
L 17.484375 21.921875 
Q 17.484375 14.15625 20.5 10.265625 
Q 23.53125 6.390625 29.59375 6.390625 
Q 36.859375 6.390625 41.078125 11.03125 
Q 45.3125 15.671875 45.3125 23.6875 
L 45.3125 54.6875 
L 54.296875 54.6875 
L 54.296875 0 
L 45.3125 0 
L 45.3125 8.40625 
Q 42.046875 3.421875 37.71875 1 
Q 33.40625 -1.421875 27.6875 -1.421875 
Q 18.265625 -1.421875 13.375 4.4375 
Q 8.5 10.296875 8.5 21.578125 
" id="BitstreamVeraSans-Roman-75"/>
      <path d="M 18.3125 70.21875 
L 18.3125 54.6875 
L 36.8125 54.6875 
L 36.8125 47.703125 
L 18.3125 47.703125 
L 18.3125 18.015625 
Q 18.3125 11.328125 20.140625 9.421875 
Q 21.96875 7.515625 27.59375 7.515625 
L 36.8125 7.515625 
L 36.8125 0 
L 27.59375 0 
Q 17.1875 0 13.234375 3.875 
Q 9.28125 7.765625 9.28125 18.015625 
L 9.28125 47.703125 
L 2.6875 47.703125 
L 2.6875 54.6875 
L 9.28125 54.6875 
L 9.28125 70.21875 
z
" id="BitstreamVeraSans-Roman-74"/>
      <path id="BitstreamVeraSans-Roman-20"/>
      <path d="M 48.78125 52.59375 
L 48.78125 44.1875 
Q 44.96875 46.296875 41.140625 47.34375 
Q 37.3125 48.390625 33.40625 48.390625 
Q 24.65625 48.390625 19.8125 42.84375 
Q 14.984375 37.3125 14.984375 27.296875 
Q 14.984375 17.28125 19.8125 11.734375 
Q 24.65625 6.203125 33.40625 6.203125 
Q 37.3125 6.203125 41.140625 7.25 
Q 44.96875 8.296875 48.78125 10.40625 
L 48.78125 2.09375 
Q 45.015625 0.34375 40.984375 -0.53125 
Q 36.96875 -1.421875 32.421875 -1.421875 
Q 20.0625 -1.421875 12.78125 6.34375 
Q 5.515625 14.109375 5.515625 27.296875 
Q 5.515625 40.671875 12.859375 48.328125 
Q 20.21875 56 33.015625 56 
Q 37.15625 56 41.109375 55.140625 
Q 45.0625 54.296875 48.78125 52.59375 
" id="BitstreamVeraSans-Roman-63"/>
     </defs>
     <g transform="translate(16.318125 234.29675)rotate(-90.0)scale(0.12 -0.12)">
      <use xlink:href="#BitstreamVeraSans-Roman-73"/>
      <use x="52.099609375" xlink:href="#BitstreamVeraSans-Roman-75"/>
      <use x="115.478515625" xlink:href="#BitstreamVeraSans-Roman-63"/>
      <use x="170.458984375" xlink:href="#BitstreamVeraSans-Roman-63"/>
      <use x="225.439453125" xlink:href="#BitstreamVeraSans-Roman-65"/>
      <use x="286.962890625" xlink:href="#BitstreamVeraSans-Roman-73"/>
      <use x="339.0625" xlink:href="#BitstreamVeraSans-Roman-73"/>
      <use x="391.162109375" xlink:href="#BitstreamVeraSans-Roman-20"/>
      <use x="422.94921875" xlink:href="#BitstreamVeraSans-Roman-73"/>
      <use x="475.048828125" xlink:href="#BitstreamVeraSans-Roman-74"/>
      <use x="514.2578125" xlink:href="#BitstreamVeraSans-Roman-65"/>
      <use x="575.78125" xlink:href="#BitstreamVeraSans-Roman-70"/>
     </g>
    </g>
   </g>
   <g id="text_16">
    <!-- Step of first success -->
    <defs>
     <path d="M 37.109375 75.984375 
L 37.109375 68.5 
L 28.515625 68.5 
Q 23.6875 68.5 21.796875 66.546875 
Q 19.921875 64.59375 19.921875 59.515625 
L 19.921875 54.6875 
L 34.71875 54.6875 
L 34.71875 47.703125 
L 19.921875 47.703125 
L 19.921875 0 
L 10.890625 0 
L 10.890625 47.703125 
L 2.296875 47.703125 
L 2.296875 54.6875 
L 10.890625 54.6875 
L 10.890625 58.5 
Q 10.890625 67.625 15.140625 71.796875 
Q 19.390625 75.984375 28.609375 75.984375 
z
" id="BitstreamVeraSans-Roman-66"/>
     <path d="M 41.109375 46.296875 
Q 39.59375 47.171875 37.8125 47.578125 
Q 36.03125 48 33.890625 48 
Q 26.265625 48 22.1875 43.046875 
Q 18.109375 38.09375 18.109375 28.8125 
L 18.109375 0 
L 9.078125 0 
L 9.078125 54.6875 
L 18.109375 54.6875 
L 18.109375 46.1875 
Q 20.953125 51.171875 25.484375 53.578125 
Q 30.03125 56 36.53125 56 
Q 37.453125 56 38.578125 55.875 
Q 39.703125 55.765625 41.0625 55.515625 
z
" id="BitstreamVeraSans-Roman-72"/>
     <path d="M 53.515625 70.515625 
L 53.515625 60.890625 
Q 47.90625 63.578125 42.921875 64.890625 
Q 37.9375 66.21875 33.296875 66.21875 
Q 25.25 66.21875 20.875 63.09375 
Q 16.5 59.96875 16.5 54.203125 
Q 16.5 49.359375 19.40625 46.890625 
Q 22.3125 44.4375 30.421875 42.921875 
L 36.375 41.703125 
Q 47.40625 39.59375 52.65625 34.296875 
Q 57.90625 29 57.90625 20.125 
Q 57.90625 9.515625 50.796875 4.046875 
Q 43.703125 -1.421875 29.984375 -1.421875 
Q 24.8125 -1.421875 18.96875 -0.25 
Q 13.140625 0.921875 6.890625 3.21875 
L 6.890625 13.375 
Q 12.890625 10.015625 18.65625 8.296875 
Q 24.421875 6.59375 29.984375 6.59375 
Q 38.421875 6.59375 43.015625 9.90625 
Q 47.609375 13.234375 47.609375 19.390625 
Q 47.609375 24.75 44.3125 27.78125 
Q 41.015625 30.8125 33.5 32.328125 
L 27.484375 33.5 
Q 16.453125 35.6875 11.515625 40.375 
Q 6.59375 45.0625 6.59375 53.421875 
Q 6.59375 63.09375 13.40625 68.65625 
Q 20.21875 74.21875 32.171875 74.21875 
Q 37.3125 74.21875 42.625 73.28125 
Q 47.953125 72.359375 53.515625 70.515625 
" id="BitstreamVeraSans-Roman-53"/>
    </defs>
    <g transform="translate(201.487875 18.14175)scale(0.144 -0.144)">
     <use xlink:href="#BitstreamVeraSans-Roman-53"/>
     <use x="63.4765625" xlink:href="#BitstreamVeraSans-Roman-74"/>
     <use x="102.685546875" xlink:href="#BitstreamVeraSans-Roman-65"/>
     <use x="164.208984375" xlink:href="#BitstreamVeraSans-Roman-70"/>
     <use x="227.685546875" xlink:href="#BitstreamVeraSans-Roman-20"/>
     <use x="259.47265625" xlink:href="#BitstreamVeraSans-Roman-6f"/>
     <use x="320.654296875" xlink:href="#BitstreamVeraSans-Roman-66"/>
     <use x="355.859375" xlink:href="#BitstreamVeraSans-Roman-20"/>
     <use x="387.646484375" xlink:href="#BitstreamVeraSans-Roman-66"/>
     <use x="422.8515625" xlink:href="#BitstreamVeraSans-Roman-69"/>
     <use x="450.634765625" xlink:href="#BitstreamVeraSans-Roman-72"/>
     <use x="491.748046875" xlink:href="#BitstreamVeraSans-Roman-73"/>
     <use x="543.84765625" xlink:href="#BitstreamVeraSans-Roman-74"/>
     <use x="583.056640625" xlink:href="#BitstreamVeraSans-Roman-20"/>
     <use x="614.84375" xlink:href="#BitstreamVeraSans-Roman-73"/>
     <use x="666.943359375" xlink:href="#BitstreamVeraSans-Roman-75"/>
     <use x="730.322265625" xlink:href="#BitstreamVeraSans-Roman-63"/>
     <use x="785.302734375" xlink:href="#BitstreamVeraSans-Roman-63"/>
     <use x="840.283203125" xlink:href="#BitstreamVeraSans-Roman-65"/>
     <use x="901.806640625" xlink:href="#BitstreamVeraSans-Roman-73"/>
     <use x="953.90625" xlink:href="#BitstreamVeraSans-Roman-73"/>
    </g>
   </g>
  </g>
 </g>
 <defs>
  <clipPath id="pc3f04941be">
   <rect height="345.6" width="446.4" x="50.71875" y="23.14175"/>
  </clipPath>
 </defs>
</svg>
