<?xml version="1.0" encoding="utf-8" standalone="no"?>
<!DOCTYPE svg PUBLIC "-//W3C//DTD SVG 1.1//EN"
  "http://www.w3.org/Graphics/SVG/1.1/DTD/svg11.dtd">
<!-- Created with matplotlib (http://matplotlib.org/) -->
<svg height="408pt" version="1.1" viewBox="0 0 511 408" width="511pt" xmlns="http://www.w3.org/2000/svg" xmlns:xlink="http://www.w3.org/1999/xlink">
 <defs>
  <style type="text/css">
*{stroke-linecap:butt;stroke-linejoin:round;stroke-miterlimit:100000;}
  </style>
 </defs>
 <g id="figure_1">
  <g id="patch_1">
   <path d="M 0 408.16925 
L 511.95 408.16925 
L 511.95 0 
L 0 0 
z
" style="fill:#ffffff;"/>
  </g>
  <g id="axes_1">
   <g id="patch_2">
    <path d="M 46.8975 368.74175 
L 493.2975 368.74175 
L 493.2975 23.14175 
L 46.8975 23.14175 
z
" style="fill:#ffffff;"/>
   </g>
   <g id="line2d_1">
    <path clip-path="url(#pa7166a36a4)" d="M 46.8975 279.974434 
L 47.4555 303.340598 
L 48.0135 353.457747 
L 48.5715 284.448456 
L 49.1295 276.675264 
L 49.6875 350.663288 
L 50.2455 278.666931 
L 50.8035 326.685472 
L 51.3615 301.203096 
L 51.9195 282.413447 
L 52.4775 286.550766 
L 53.0355 297.103304 
L 53.5935 321.636281 
L 54.1515 302.482884 
L 54.7095 327.422328 
L 55.2675 276.669193 
L 55.8255 330.871613 
L 56.3835 339.423591 
L 56.9415 300.37299 
L 57.4995 283.949277 
L 58.6155 341.575217 
L 59.1735 325.890207 
L 59.7315 319.388275 
L 60.2895 326.351275 
L 60.8475 281.310154 
L 61.4055 331.429474 
L 61.9635 281.99678 
L 62.5215 301.28454 
L 63.0795 313.002818 
L 63.6375 286.763767 
L 64.1955 292.898425 
L 64.7535 316.824463 
L 65.3115 289.237578 
L 65.8695 283.799337 
L 66.4275 303.401814 
L 66.9855 336.116478 
L 67.5435 288.095106 
L 68.1015 334.110166 
L 68.6595 338.248265 
L 69.2175 331.641357 
L 69.7755 292.557825 
L 70.3335 340.688013 
L 70.8915 291.403202 
L 71.4495 337.452408 
L 72.0075 300.294357 
L 72.5655 291.659461 
L 73.1235 287.85802 
L 73.6815 340.785529 
L 74.2395 297.515421 
L 74.7975 316.760873 
L 75.3555 326.696188 
L 75.9135 312.083479 
L 76.4715 276.083975 
L 77.0295 294.039885 
L 77.5875 331.59742 
L 78.1455 294.357111 
L 78.7035 312.380259 
L 79.2615 344.811787 
L 79.8195 331.38104 
L 80.3775 350.824328 
L 80.9355 276.496777 
L 81.4935 321.58489 
L 82.0515 338.33711 
L 82.6095 339.390285 
L 84.2835 280.122678 
L 84.8415 325.531122 
L 85.3995 296.189403 
L 85.9575 317.367889 
L 86.5155 317.361646 
L 87.0735 345.020056 
L 87.6315 347.470662 
L 88.1895 292.855109 
L 88.7475 266.818983 
L 89.3055 340.8697 
L 89.8635 292.947808 
L 90.4215 301.719588 
L 90.9795 340.372913 
L 91.5375 288.653119 
L 92.0955 300.503985 
L 92.6535 277.894337 
L 93.2115 326.456895 
L 93.7695 315.428535 
L 94.3275 273.326382 
L 94.8855 289.765582 
L 95.4435 280.820426 
L 96.0015 296.771876 
L 96.5595 318.999023 
L 97.1175 302.706378 
L 98.2335 293.160472 
L 98.7915 325.938287 
L 99.3495 345.270608 
L 99.9075 308.983042 
L 100.4655 298.329086 
L 101.0235 267.030458 
L 101.5815 323.856715 
L 102.1395 281.689437 
L 102.6975 307.828645 
L 103.2555 308.475094 
L 103.8135 333.920536 
L 104.3715 291.827441 
L 105.4875 330.115207 
L 106.0455 272.2278 
L 106.6035 333.827884 
L 107.1615 325.656416 
L 107.7195 302.908216 
L 108.2775 297.184019 
L 108.8355 336.297853 
L 109.3935 338.782638 
L 109.9515 322.652295 
L 110.5095 337.97325 
L 111.0675 282.04175 
L 111.6255 324.683031 
L 112.1835 299.807744 
L 112.7415 337.02431 
L 113.2995 321.748014 
L 113.8575 296.356759 
L 114.4155 322.452992 
L 114.9735 286.116958 
L 115.5315 339.499229 
L 116.0895 326.621279 
L 116.6475 310.853132 
L 117.2055 289.50991 
L 117.7635 286.014144 
L 118.3215 277.064815 
L 118.8795 317.007473 
L 119.9955 337.847537 
L 120.5535 285.240304 
L 121.1115 344.868463 
L 121.6695 300.611978 
L 122.2275 333.855842 
L 122.7855 338.223704 
L 123.3435 289.333161 
L 123.9015 286.74605 
L 124.4595 293.580542 
L 125.0175 285.176714 
L 125.5755 330.475644 
L 126.1335 341.800687 
L 126.6915 288.565771 
L 127.2495 329.563729 
L 127.8075 295.016318 
L 128.3655 346.216891 
L 128.9235 288.043399 
L 129.4815 309.294437 
L 130.0395 344.559063 
L 130.5975 296.582409 
L 131.1555 337.257908 
L 131.7135 327.881432 
L 132.2715 300.899572 
L 132.8295 280.789113 
L 133.3875 305.950158 
L 133.9455 296.717292 
L 134.5035 347.101159 
L 135.0615 280.408169 
L 135.6195 339.036365 
L 136.1775 323.844456 
L 136.7355 278.615163 
L 137.2935 286.25928 
L 137.8515 299.179231 
L 138.4095 326.441681 
L 138.9675 347.068537 
L 139.5255 293.464315 
L 140.0835 284.935454 
L 140.6415 335.076661 
L 141.1995 330.615579 
L 141.7575 277.908171 
L 142.3155 351.365738 
L 142.8735 327.315536 
L 143.4315 311.318845 
L 143.9895 314.464339 
L 144.5475 347.244423 
L 145.1055 308.303482 
L 145.6635 302.080949 
L 146.2215 314.224039 
L 146.7795 329.145247 
L 147.3375 286.241 
L 147.8955 302.505233 
L 148.4535 304.043564 
L 149.0115 321.346795 
L 149.5695 322.918481 
L 150.1275 313.683488 
L 150.6855 330.456966 
L 151.2435 331.995123 
L 151.8015 326.944805 
L 152.3595 315.65335 
L 152.9175 339.094828 
L 153.4755 299.29892 
L 154.0335 280.39447 
L 154.5915 296.006481 
L 155.1495 354.95056 
L 155.7075 309.274467 
L 156.2655 296.816743 
L 156.8235 329.734491 
L 157.3815 292.909137 
L 157.9395 310.94675 
L 158.4975 347.467998 
L 159.0555 300.886759 
L 159.6135 318.510874 
L 160.1715 303.274643 
L 160.7295 306.289214 
L 161.2875 320.701983 
L 161.8455 306.556171 
L 162.4035 303.815882 
L 162.9615 289.318918 
L 163.5195 311.638332 
L 164.0775 296.79445 
L 164.6355 298.328297 
L 165.1935 304.272969 
L 165.7515 300.746224 
L 166.3095 311.820327 
L 166.8675 311.431897 
L 167.4255 319.995703 
L 167.9835 294.588184 
L 168.5415 301.807793 
L 169.6575 308.709119 
L 170.2155 317.988181 
L 170.7735 313.966458 
L 171.3315 300.589879 
L 171.8895 299.759855 
L 172.4475 303.951251 
L 173.0055 312.90274 
L 173.5635 305.40848 
L 174.1215 323.819315 
L 174.6795 299.189905 
L 175.2375 301.939749 
L 175.7955 299.903006 
L 176.3535 302.075844 
L 176.9115 311.995937 
L 177.4695 293.277782 
L 178.0275 294.252086 
L 178.5855 299.558961 
L 179.1435 294.999049 
L 179.7015 300.486151 
L 180.2595 307.795836 
L 180.8175 299.710816 
L 181.3755 303.860687 
L 182.4915 299.377456 
L 183.0495 295.733312 
L 183.6075 294.286537 
L 184.1655 288.413257 
L 184.7235 296.276617 
L 185.2815 298.160293 
L 185.8395 295.760003 
L 186.3975 304.017166 
L 186.9555 303.650668 
L 187.5135 304.084832 
L 188.0715 290.184217 
L 188.6295 290.063989 
L 189.1875 300.737602 
L 189.7455 304.335953 
L 190.3035 295.03471 
L 190.8615 305.434473 
L 191.4195 293.008808 
L 191.9775 305.549471 
L 192.5355 292.059571 
L 193.0935 291.999675 
L 193.6515 283.509706 
L 194.2095 298.420104 
L 194.7675 293.638598 
L 195.3255 295.174294 
L 195.8835 288.322918 
L 196.4415 302.848037 
L 196.9995 294.144962 
L 197.5575 291.591887 
L 198.6735 301.904371 
L 199.2315 295.813171 
L 199.7895 291.040029 
L 200.3475 287.595678 
L 200.9055 302.160461 
L 201.4635 289.434442 
L 202.0215 290.453781 
L 202.5795 293.970486 
L 203.1375 282.106211 
L 203.6955 288.938658 
L 204.2535 293.036879 
L 204.8115 278.163481 
L 205.3695 284.156753 
L 205.9275 283.847598 
L 206.4855 291.025965 
L 207.0435 288.641552 
L 207.6015 290.407681 
L 208.1595 295.909978 
L 208.7175 280.889331 
L 209.2755 292.937755 
L 209.8335 281.33561 
L 210.3915 279.347952 
L 210.9495 286.083779 
L 211.5075 281.369328 
L 212.0655 292.206039 
L 212.6235 277.319724 
L 213.1815 292.466048 
L 213.7395 283.237282 
L 214.2975 290.723243 
L 214.8555 284.498693 
L 215.4135 283.420564 
L 215.9715 280.063829 
L 216.5295 283.10085 
L 217.0875 283.223726 
L 217.6455 289.903956 
L 218.2035 287.589563 
L 218.7615 277.5125 
L 219.3195 279.956505 
L 219.8775 277.966606 
L 220.4355 289.71151 
L 220.9935 289.241032 
L 221.5515 285.435158 
L 222.1095 286.490759 
L 222.6675 276.762927 
L 223.2255 282.830442 
L 223.7835 276.940721 
L 224.3415 286.945608 
L 224.8995 279.312338 
L 225.4575 289.937303 
L 226.0155 282.95306 
L 226.5735 282.013638 
L 227.1315 269.072857 
L 227.6895 276.448116 
L 228.2475 272.213978 
L 228.8055 271.35588 
L 229.3635 277.917781 
L 229.9215 280.031357 
L 231.0375 277.315659 
L 231.5955 274.120388 
L 232.1535 281.940058 
L 232.7115 266.215968 
L 233.2695 275.878935 
L 233.8275 272.885661 
L 234.3855 274.704129 
L 234.9435 270.757231 
L 235.5015 271.758656 
L 236.0595 264.118825 
L 236.6175 274.091745 
L 237.1755 267.321295 
L 238.2915 269.736457 
L 238.8495 258.663861 
L 239.4075 275.361513 
L 239.9655 257.30107 
L 240.5235 267.18384 
L 241.0815 265.810437 
L 241.6395 270.608628 
L 242.1975 272.332548 
L 242.7555 263.920124 
L 243.3135 263.220585 
L 243.8715 268.332963 
L 244.4295 268.436815 
L 244.9875 268.717627 
L 245.5455 262.785467 
L 246.1035 267.553729 
L 246.6615 261.562117 
L 247.2195 250.355235 
L 247.7775 271.207239 
L 248.3355 255.528586 
L 248.8935 264.748442 
L 249.4515 269.243831 
L 250.0095 262.918933 
L 250.5675 262.165934 
L 251.1255 255.224711 
L 251.6835 256.38006 
L 252.2415 250.756949 
L 252.7995 260.788011 
L 253.3575 259.414192 
L 253.9155 254.437386 
L 254.4735 263.064128 
L 255.0315 248.339267 
L 255.5895 258.745475 
L 256.1475 250.961072 
L 256.7055 248.827508 
L 257.2635 261.187921 
L 257.8215 249.265301 
L 258.3795 246.674601 
L 258.9375 257.207879 
L 259.4955 246.245921 
L 260.0535 251.896507 
L 260.6115 238.762737 
L 261.1695 248.203296 
L 261.7275 240.130888 
L 262.2855 238.930037 
L 262.8435 242.850562 
L 263.4015 249.764686 
L 264.5175 232.911347 
L 265.0755 245.341446 
L 265.6335 240.734007 
L 266.1915 249.445302 
L 266.7495 242.292105 
L 267.3075 242.351461 
L 268.4235 248.537015 
L 268.9815 247.26324 
L 269.5395 250.678926 
L 270.6555 228.041557 
L 271.2135 246.798972 
L 271.7715 231.572804 
L 272.3295 242.152758 
L 272.8875 242.072611 
L 273.4455 235.51082 
L 274.0035 234.128124 
L 275.1195 240.775015 
L 275.6775 238.126529 
L 276.2355 237.908082 
L 276.7935 240.234834 
L 277.3515 228.182428 
L 277.9095 236.242354 
L 278.4675 240.230906 
L 279.0255 222.497101 
L 279.5835 232.791698 
L 280.1415 227.062573 
L 280.6995 232.669824 
L 281.2575 223.612793 
L 281.8155 225.180279 
L 282.9315 221.077184 
L 283.4895 224.164144 
L 284.0475 214.526923 
L 284.6055 236.27893 
L 285.7215 229.024885 
L 286.2795 223.633018 
L 286.8375 226.145041 
L 287.3955 231.039772 
L 287.9535 230.500403 
L 288.5115 216.44614 
L 289.0695 213.156953 
L 289.6275 228.527639 
L 290.1855 224.556025 
L 290.7435 222.395686 
L 291.3015 222.312728 
L 291.8595 212.146738 
L 292.4175 205.031219 
L 292.9755 212.066057 
L 293.5335 211.092999 
L 294.0915 203.342311 
L 294.6495 211.639327 
L 295.2075 221.662127 
L 295.7655 212.896638 
L 296.3235 222.678886 
L 296.8815 206.632258 
L 297.4395 213.58594 
L 297.9975 195.499273 
L 298.5555 202.722981 
L 299.1135 202.665701 
L 299.6715 208.81072 
L 300.2295 199.96041 
L 300.7875 205.639865 
L 301.3455 197.369235 
L 301.9035 200.514685 
L 302.4615 214.853029 
L 303.0195 210.328479 
L 303.5775 199.35382 
L 304.1355 197.386373 
L 304.6935 198.998963 
L 305.2515 207.90513 
L 305.8095 194.805861 
L 306.3675 193.340893 
L 306.9255 202.457949 
L 307.4835 193.374322 
L 308.0415 187.519818 
L 308.5995 188.135283 
L 309.1575 191.965916 
L 310.2735 202.220692 
L 310.8315 186.641563 
L 311.3895 189.99556 
L 311.9475 195.734423 
L 312.5055 189.203515 
L 313.0635 200.491366 
L 314.1795 180.253955 
L 314.7375 186.206675 
L 315.2955 189.843307 
L 315.8535 183.773678 
L 316.4115 193.606759 
L 316.9695 181.233872 
L 317.5275 201.39525 
L 318.0855 183.553145 
L 318.6435 183.524385 
L 319.2015 187.671731 
L 319.7595 186.120518 
L 320.3175 185.76414 
L 320.8755 193.901032 
L 321.4335 183.742738 
L 321.9915 193.972987 
L 322.5495 186.942769 
L 323.1075 177.478948 
L 323.6655 178.866946 
L 324.2235 179.112275 
L 324.7815 178.817314 
L 325.3395 178.867066 
L 325.8975 176.98811 
L 326.4555 174.457045 
L 327.0135 177.610649 
L 327.5715 193.46897 
L 328.1295 172.109678 
L 328.6875 177.37494 
L 329.2455 180.950553 
L 329.8035 168.395298 
L 330.3615 177.148001 
L 330.9195 174.091429 
L 331.4775 157.040276 
L 332.0355 173.989351 
L 332.5935 183.856477 
L 333.1515 175.461844 
L 333.7095 172.315508 
L 334.2675 175.822502 
L 334.8255 166.94881 
L 335.3835 170.329789 
L 335.9415 178.768001 
L 336.4995 167.547974 
L 337.0575 167.710848 
L 337.6155 177.15582 
L 338.1735 170.197241 
L 338.7315 179.417551 
L 339.2895 167.996268 
L 339.8475 160.631275 
L 340.4055 144.079251 
L 340.9635 166.090523 
L 341.5215 162.237792 
L 342.0795 175.260289 
L 342.6375 166.673833 
L 343.1955 160.804593 
L 343.7535 164.192643 
L 344.3115 161.764033 
L 344.8695 168.082653 
L 345.4275 157.030588 
L 345.9855 142.47817 
L 346.5435 148.017509 
L 347.1015 166.12653 
L 348.2175 146.094022 
L 348.7755 168.824757 
L 349.3335 174.280826 
L 349.8915 163.087524 
L 350.4495 167.634945 
L 351.0075 150.246812 
L 351.5655 160.844984 
L 352.1235 168.39988 
L 352.6815 138.109692 
L 353.2395 150.963771 
L 353.7975 147.047918 
L 354.3555 167.173398 
L 354.9135 147.486157 
L 355.4715 139.216673 
L 356.0295 134.853347 
L 356.5875 146.944741 
L 357.1455 156.130616 
L 357.7035 155.727595 
L 358.2615 156.415796 
L 358.8195 149.821755 
L 359.3775 154.567325 
L 359.9355 147.867694 
L 360.4935 133.476048 
L 361.0515 152.379309 
L 361.6095 150.817135 
L 362.1675 153.939072 
L 362.7255 135.03274 
L 363.2835 148.949254 
L 363.8415 141.711155 
L 364.3995 120.47847 
L 364.9575 149.554049 
L 365.5155 154.78499 
L 366.0735 149.302403 
L 366.6315 139.914673 
L 367.1895 153.345433 
L 367.7475 136.70422 
L 368.3055 146.596162 
L 368.8635 137.342482 
L 369.4215 126.168779 
L 369.9795 119.42966 
L 370.5375 137.604019 
L 371.0955 146.143694 
L 371.6535 138.71649 
L 372.7695 146.5574 
L 373.3275 147.560024 
L 373.8855 153.50254 
L 374.4435 151.529956 
L 375.0015 141.399889 
L 375.5595 121.414709 
L 376.1175 143.525935 
L 376.6755 145.72628 
L 377.2335 138.561399 
L 377.7915 127.46131 
L 378.3495 152.208134 
L 378.9075 147.316575 
L 379.4655 133.337301 
L 380.0235 138.698204 
L 380.5815 142.682345 
L 381.1395 131.575237 
L 381.6975 128.509146 
L 382.2555 139.30181 
L 382.8135 128.109367 
L 383.3715 125.871576 
L 383.9295 153.523049 
L 384.4875 139.091449 
L 385.0455 121.588308 
L 385.6035 130.649319 
L 386.1615 120.037316 
L 386.7195 139.358331 
L 387.2775 136.837017 
L 387.8355 120.307852 
L 388.3935 140.951858 
L 388.9515 113.210105 
L 389.5095 131.118895 
L 390.0675 129.689969 
L 390.6255 130.191558 
L 391.1835 141.30339 
L 391.7415 140.662135 
L 392.2995 139.704634 
L 392.8575 121.307079 
L 393.4155 119.760318 
L 393.9735 121.902186 
L 394.5315 125.047219 
L 395.0895 138.216125 
L 395.6475 127.987214 
L 396.2055 134.789995 
L 396.7635 124.998677 
L 397.3215 124.703483 
L 397.8795 105.46039 
L 398.4375 120.641522 
L 398.9955 143.46172 
L 399.5535 120.784709 
L 400.1115 118.234382 
L 400.6695 124.685246 
L 401.2275 121.390978 
L 401.7855 106.886663 
L 402.3435 114.787682 
L 402.9015 109.676615 
L 403.4595 115.007933 
L 404.0175 130.310833 
L 404.5755 113.539723 
L 405.1335 114.345563 
L 405.6915 105.672559 
L 406.2495 123.109463 
L 406.8075 98.443292 
L 407.3655 122.440944 
L 407.9235 134.857521 
L 408.4815 110.658814 
L 409.0395 111.801834 
L 409.5975 123.478275 
L 410.1555 111.800841 
L 410.7135 125.038664 
L 411.2715 107.188519 
L 411.8295 107.71884 
L 412.3875 126.249605 
L 412.9455 118.002871 
L 413.5035 111.912226 
L 414.0615 98.438964 
L 415.1775 104.516957 
L 415.7355 114.516724 
L 416.2935 104.720993 
L 416.8515 123.267111 
L 417.4095 88.906227 
L 417.9675 106.414499 
L 418.5255 98.345027 
L 419.0835 94.427179 
L 420.1995 105.569299 
L 420.7575 116.407139 
L 421.3155 112.344853 
L 421.8735 112.303664 
L 422.4315 107.218102 
L 422.9895 121.388656 
L 423.5475 101.444324 
L 424.1055 118.494495 
L 424.6635 98.451484 
L 425.2215 100.551269 
L 425.7795 95.725664 
L 426.3375 103.809058 
L 426.8955 100.779885 
L 427.4535 95.754371 
L 428.0115 106.337859 
L 428.5695 87.621475 
L 429.1275 112.107867 
L 429.6855 102.456736 
L 430.2435 119.901492 
L 430.8015 110.546384 
L 431.3595 94.691377 
L 431.9175 105.193877 
L 432.4755 93.25939 
L 433.0335 100.545416 
L 433.5915 114.003017 
L 434.1495 108.887279 
L 434.7075 100.989816 
L 435.2655 95.043561 
L 435.8235 68.597958 
L 436.3815 100.888189 
L 436.9395 98.235655 
L 437.4975 96.487651 
L 438.0555 112.504459 
L 438.6135 101.869747 
L 439.1715 87.5867 
L 439.7295 97.561838 
L 440.2875 101.645668 
L 440.8455 95.195308 
L 441.4035 76.071189 
L 441.9615 83.030556 
L 442.5195 76.912128 
L 443.6355 97.683255 
L 444.1935 84.080276 
L 444.7515 106.942429 
L 445.3095 104.521406 
L 445.8675 86.143348 
L 446.4255 99.551386 
L 446.9835 95.381603 
L 447.5415 99.495543 
L 448.0995 89.815796 
L 448.6575 86.084252 
L 449.2155 97.447237 
L 449.7735 80.682033 
L 450.3315 103.09964 
L 450.8895 79.630422 
L 451.4475 80.130374 
L 452.0055 94.625505 
L 452.5635 78.889424 
L 453.1215 99.084798 
L 453.6795 63.143385 
L 454.2375 91.8912 
L 454.7955 86.153056 
L 455.3535 92.536321 
L 455.9115 79.687247 
L 456.4695 84.083994 
L 457.0275 84.515325 
L 457.5855 72.17808 
L 458.1435 83.368591 
L 458.7015 98.005538 
L 459.2595 71.53972 
L 459.8175 87.108953 
L 460.3755 85.895041 
L 460.9335 92.204112 
L 461.4915 84.388987 
L 462.0495 97.159587 
L 462.6075 92.054092 
L 463.1655 75.890317 
L 463.7235 90.046372 
L 464.2815 85.490168 
L 464.8395 84.100723 
L 465.3975 53.56496 
L 465.9555 88.509838 
L 466.5135 77.488484 
L 467.0715 55.737185 
L 468.1875 85.026465 
L 469.3035 88.875873 
L 469.8615 84.237647 
L 470.4195 92.577127 
L 470.9775 82.181586 
L 471.5355 81.700139 
L 472.0935 73.376491 
L 472.6515 87.297633 
L 473.2095 77.470998 
L 473.7675 75.337263 
L 474.3255 75.590441 
L 474.8835 89.235307 
L 475.4415 99.024113 
L 476.5575 62.736642 
L 477.1155 83.746813 
L 477.6735 73.838987 
L 478.2315 79.879044 
L 478.7895 58.204965 
L 479.3475 73.933426 
L 479.9055 74.041167 
L 480.4635 73.463715 
L 481.0215 73.695771 
L 481.5795 79.608617 
L 482.1375 88.391314 
L 482.6955 65.998182 
L 483.2535 87.679429 
L 483.8115 84.201979 
L 484.3695 69.250464 
L 484.9275 69.268656 
L 485.4855 62.218005 
L 486.0435 76.955784 
L 486.6015 84.022896 
L 487.1595 62.536876 
L 488.2755 82.581585 
L 488.8335 81.664021 
L 489.3915 77.27823 
L 489.9495 76.870999 
L 490.5075 73.963321 
L 491.0655 39.158722 
L 491.6235 54.231059 
L 492.1815 77.554785 
L 492.7395 68.204555 
L 492.7395 68.204555 
" style="fill:none;stroke:#0000ff;stroke-linecap:square;stroke-width:0.5;"/>
   </g>
   <g id="patch_3">
    <path d="M 46.8975 368.74175 
L 493.2975 368.74175 
" style="fill:none;stroke:#000000;stroke-linecap:square;stroke-linejoin:miter;"/>
   </g>
   <g id="patch_4">
    <path d="M 46.8975 23.14175 
L 493.2975 23.14175 
" style="fill:none;stroke:#000000;stroke-linecap:square;stroke-linejoin:miter;"/>
   </g>
   <g id="patch_5">
    <path d="M 493.2975 368.74175 
L 493.2975 23.14175 
" style="fill:none;stroke:#000000;stroke-linecap:square;stroke-linejoin:miter;"/>
   </g>
   <g id="patch_6">
    <path d="M 46.8975 368.74175 
L 46.8975 23.14175 
" style="fill:none;stroke:#000000;stroke-linecap:square;stroke-linejoin:miter;"/>
   </g>
   <g id="matplotlib.axis_1">
    <g id="xtick_1">
     <g id="line2d_2">
      <defs>
       <path d="M 0 0 
L 0 -4 
" id="m5d8aa9a30c" style="stroke:#000000;stroke-width:0.5;"/>
      </defs>
      <g>
       <use style="stroke:#000000;stroke-width:0.5;" x="46.8975" xlink:href="#m5d8aa9a30c" y="368.74175"/>
      </g>
     </g>
     <g id="line2d_3">
      <defs>
       <path d="M 0 0 
L 0 4 
" id="m66e9b81f72" style="stroke:#000000;stroke-width:0.5;"/>
      </defs>
      <g>
       <use style="stroke:#000000;stroke-width:0.5;" x="46.8975" xlink:href="#m66e9b81f72" y="23.14175"/>
      </g>
     </g>
     <g id="text_1">
      <!-- 0 -->
      <defs>
       <path d="M 31.78125 66.40625 
Q 24.171875 66.40625 20.328125 58.90625 
Q 16.5 51.421875 16.5 36.375 
Q 16.5 21.390625 20.328125 13.890625 
Q 24.171875 6.390625 31.78125 6.390625 
Q 39.453125 6.390625 43.28125 13.890625 
Q 47.125 21.390625 47.125 36.375 
Q 47.125 51.421875 43.28125 58.90625 
Q 39.453125 66.40625 31.78125 66.40625 
M 31.78125 74.21875 
Q 44.046875 74.21875 50.515625 64.515625 
Q 56.984375 54.828125 56.984375 36.375 
Q 56.984375 17.96875 50.515625 8.265625 
Q 44.046875 -1.421875 31.78125 -1.421875 
Q 19.53125 -1.421875 13.0625 8.265625 
Q 6.59375 17.96875 6.59375 36.375 
Q 6.59375 54.828125 13.0625 64.515625 
Q 19.53125 74.21875 31.78125 74.21875 
" id="BitstreamVeraSans-Roman-30"/>
      </defs>
      <g transform="translate(43.08 381.859875)scale(0.12 -0.12)">
       <use xlink:href="#BitstreamVeraSans-Roman-30"/>
      </g>
     </g>
    </g>
    <g id="xtick_2">
     <g id="line2d_4">
      <g>
       <use style="stroke:#000000;stroke-width:0.5;" x="102.6975" xlink:href="#m5d8aa9a30c" y="368.74175"/>
      </g>
     </g>
     <g id="line2d_5">
      <g>
       <use style="stroke:#000000;stroke-width:0.5;" x="102.6975" xlink:href="#m66e9b81f72" y="23.14175"/>
      </g>
     </g>
     <g id="text_2">
      <!-- 100 -->
      <defs>
       <path d="M 12.40625 8.296875 
L 28.515625 8.296875 
L 28.515625 63.921875 
L 10.984375 60.40625 
L 10.984375 69.390625 
L 28.421875 72.90625 
L 38.28125 72.90625 
L 38.28125 8.296875 
L 54.390625 8.296875 
L 54.390625 0 
L 12.40625 0 
z
" id="BitstreamVeraSans-Roman-31"/>
      </defs>
      <g transform="translate(91.245 381.859875)scale(0.12 -0.12)">
       <use xlink:href="#BitstreamVeraSans-Roman-31"/>
       <use x="63.623046875" xlink:href="#BitstreamVeraSans-Roman-30"/>
       <use x="127.24609375" xlink:href="#BitstreamVeraSans-Roman-30"/>
      </g>
     </g>
    </g>
    <g id="xtick_3">
     <g id="line2d_6">
      <g>
       <use style="stroke:#000000;stroke-width:0.5;" x="158.4975" xlink:href="#m5d8aa9a30c" y="368.74175"/>
      </g>
     </g>
     <g id="line2d_7">
      <g>
       <use style="stroke:#000000;stroke-width:0.5;" x="158.4975" xlink:href="#m66e9b81f72" y="23.14175"/>
      </g>
     </g>
     <g id="text_3">
      <!-- 200 -->
      <defs>
       <path d="M 19.1875 8.296875 
L 53.609375 8.296875 
L 53.609375 0 
L 7.328125 0 
L 7.328125 8.296875 
Q 12.9375 14.109375 22.625 23.890625 
Q 32.328125 33.6875 34.8125 36.53125 
Q 39.546875 41.84375 41.421875 45.53125 
Q 43.3125 49.21875 43.3125 52.78125 
Q 43.3125 58.59375 39.234375 62.25 
Q 35.15625 65.921875 28.609375 65.921875 
Q 23.96875 65.921875 18.8125 64.3125 
Q 13.671875 62.703125 7.8125 59.421875 
L 7.8125 69.390625 
Q 13.765625 71.78125 18.9375 73 
Q 24.125 74.21875 28.421875 74.21875 
Q 39.75 74.21875 46.484375 68.546875 
Q 53.21875 62.890625 53.21875 53.421875 
Q 53.21875 48.921875 51.53125 44.890625 
Q 49.859375 40.875 45.40625 35.40625 
Q 44.1875 33.984375 37.640625 27.21875 
Q 31.109375 20.453125 19.1875 8.296875 
" id="BitstreamVeraSans-Roman-32"/>
      </defs>
      <g transform="translate(147.045 381.859875)scale(0.12 -0.12)">
       <use xlink:href="#BitstreamVeraSans-Roman-32"/>
       <use x="63.623046875" xlink:href="#BitstreamVeraSans-Roman-30"/>
       <use x="127.24609375" xlink:href="#BitstreamVeraSans-Roman-30"/>
      </g>
     </g>
    </g>
    <g id="xtick_4">
     <g id="line2d_8">
      <g>
       <use style="stroke:#000000;stroke-width:0.5;" x="214.2975" xlink:href="#m5d8aa9a30c" y="368.74175"/>
      </g>
     </g>
     <g id="line2d_9">
      <g>
       <use style="stroke:#000000;stroke-width:0.5;" x="214.2975" xlink:href="#m66e9b81f72" y="23.14175"/>
      </g>
     </g>
     <g id="text_4">
      <!-- 300 -->
      <defs>
       <path d="M 40.578125 39.3125 
Q 47.65625 37.796875 51.625 33 
Q 55.609375 28.21875 55.609375 21.1875 
Q 55.609375 10.40625 48.1875 4.484375 
Q 40.765625 -1.421875 27.09375 -1.421875 
Q 22.515625 -1.421875 17.65625 -0.515625 
Q 12.796875 0.390625 7.625 2.203125 
L 7.625 11.71875 
Q 11.71875 9.328125 16.59375 8.109375 
Q 21.484375 6.890625 26.8125 6.890625 
Q 36.078125 6.890625 40.9375 10.546875 
Q 45.796875 14.203125 45.796875 21.1875 
Q 45.796875 27.640625 41.28125 31.265625 
Q 36.765625 34.90625 28.71875 34.90625 
L 20.21875 34.90625 
L 20.21875 43.015625 
L 29.109375 43.015625 
Q 36.375 43.015625 40.234375 45.921875 
Q 44.09375 48.828125 44.09375 54.296875 
Q 44.09375 59.90625 40.109375 62.90625 
Q 36.140625 65.921875 28.71875 65.921875 
Q 24.65625 65.921875 20.015625 65.03125 
Q 15.375 64.15625 9.8125 62.3125 
L 9.8125 71.09375 
Q 15.4375 72.65625 20.34375 73.4375 
Q 25.25 74.21875 29.59375 74.21875 
Q 40.828125 74.21875 47.359375 69.109375 
Q 53.90625 64.015625 53.90625 55.328125 
Q 53.90625 49.265625 50.4375 45.09375 
Q 46.96875 40.921875 40.578125 39.3125 
" id="BitstreamVeraSans-Roman-33"/>
      </defs>
      <g transform="translate(202.845 381.859875)scale(0.12 -0.12)">
       <use xlink:href="#BitstreamVeraSans-Roman-33"/>
       <use x="63.623046875" xlink:href="#BitstreamVeraSans-Roman-30"/>
       <use x="127.24609375" xlink:href="#BitstreamVeraSans-Roman-30"/>
      </g>
     </g>
    </g>
    <g id="xtick_5">
     <g id="line2d_10">
      <g>
       <use style="stroke:#000000;stroke-width:0.5;" x="270.0975" xlink:href="#m5d8aa9a30c" y="368.74175"/>
      </g>
     </g>
     <g id="line2d_11">
      <g>
       <use style="stroke:#000000;stroke-width:0.5;" x="270.0975" xlink:href="#m66e9b81f72" y="23.14175"/>
      </g>
     </g>
     <g id="text_5">
      <!-- 400 -->
      <defs>
       <path d="M 37.796875 64.3125 
L 12.890625 25.390625 
L 37.796875 25.390625 
z
M 35.203125 72.90625 
L 47.609375 72.90625 
L 47.609375 25.390625 
L 58.015625 25.390625 
L 58.015625 17.1875 
L 47.609375 17.1875 
L 47.609375 0 
L 37.796875 0 
L 37.796875 17.1875 
L 4.890625 17.1875 
L 4.890625 26.703125 
z
" id="BitstreamVeraSans-Roman-34"/>
      </defs>
      <g transform="translate(258.645 381.859875)scale(0.12 -0.12)">
       <use xlink:href="#BitstreamVeraSans-Roman-34"/>
       <use x="63.623046875" xlink:href="#BitstreamVeraSans-Roman-30"/>
       <use x="127.24609375" xlink:href="#BitstreamVeraSans-Roman-30"/>
      </g>
     </g>
    </g>
    <g id="xtick_6">
     <g id="line2d_12">
      <g>
       <use style="stroke:#000000;stroke-width:0.5;" x="325.8975" xlink:href="#m5d8aa9a30c" y="368.74175"/>
      </g>
     </g>
     <g id="line2d_13">
      <g>
       <use style="stroke:#000000;stroke-width:0.5;" x="325.8975" xlink:href="#m66e9b81f72" y="23.14175"/>
      </g>
     </g>
     <g id="text_6">
      <!-- 500 -->
      <defs>
       <path d="M 10.796875 72.90625 
L 49.515625 72.90625 
L 49.515625 64.59375 
L 19.828125 64.59375 
L 19.828125 46.734375 
Q 21.96875 47.46875 24.109375 47.828125 
Q 26.265625 48.1875 28.421875 48.1875 
Q 40.625 48.1875 47.75 41.5 
Q 54.890625 34.8125 54.890625 23.390625 
Q 54.890625 11.625 47.5625 5.09375 
Q 40.234375 -1.421875 26.90625 -1.421875 
Q 22.3125 -1.421875 17.546875 -0.640625 
Q 12.796875 0.140625 7.71875 1.703125 
L 7.71875 11.625 
Q 12.109375 9.234375 16.796875 8.0625 
Q 21.484375 6.890625 26.703125 6.890625 
Q 35.15625 6.890625 40.078125 11.328125 
Q 45.015625 15.765625 45.015625 23.390625 
Q 45.015625 31 40.078125 35.4375 
Q 35.15625 39.890625 26.703125 39.890625 
Q 22.75 39.890625 18.8125 39.015625 
Q 14.890625 38.140625 10.796875 36.28125 
z
" id="BitstreamVeraSans-Roman-35"/>
      </defs>
      <g transform="translate(314.445 381.859875)scale(0.12 -0.12)">
       <use xlink:href="#BitstreamVeraSans-Roman-35"/>
       <use x="63.623046875" xlink:href="#BitstreamVeraSans-Roman-30"/>
       <use x="127.24609375" xlink:href="#BitstreamVeraSans-Roman-30"/>
      </g>
     </g>
    </g>
    <g id="xtick_7">
     <g id="line2d_14">
      <g>
       <use style="stroke:#000000;stroke-width:0.5;" x="381.6975" xlink:href="#m5d8aa9a30c" y="368.74175"/>
      </g>
     </g>
     <g id="line2d_15">
      <g>
       <use style="stroke:#000000;stroke-width:0.5;" x="381.6975" xlink:href="#m66e9b81f72" y="23.14175"/>
      </g>
     </g>
     <g id="text_7">
      <!-- 600 -->
      <defs>
       <path d="M 33.015625 40.375 
Q 26.375 40.375 22.484375 35.828125 
Q 18.609375 31.296875 18.609375 23.390625 
Q 18.609375 15.53125 22.484375 10.953125 
Q 26.375 6.390625 33.015625 6.390625 
Q 39.65625 6.390625 43.53125 10.953125 
Q 47.40625 15.53125 47.40625 23.390625 
Q 47.40625 31.296875 43.53125 35.828125 
Q 39.65625 40.375 33.015625 40.375 
M 52.59375 71.296875 
L 52.59375 62.3125 
Q 48.875 64.0625 45.09375 64.984375 
Q 41.3125 65.921875 37.59375 65.921875 
Q 27.828125 65.921875 22.671875 59.328125 
Q 17.53125 52.734375 16.796875 39.40625 
Q 19.671875 43.65625 24.015625 45.921875 
Q 28.375 48.1875 33.59375 48.1875 
Q 44.578125 48.1875 50.953125 41.515625 
Q 57.328125 34.859375 57.328125 23.390625 
Q 57.328125 12.15625 50.6875 5.359375 
Q 44.046875 -1.421875 33.015625 -1.421875 
Q 20.359375 -1.421875 13.671875 8.265625 
Q 6.984375 17.96875 6.984375 36.375 
Q 6.984375 53.65625 15.1875 63.9375 
Q 23.390625 74.21875 37.203125 74.21875 
Q 40.921875 74.21875 44.703125 73.484375 
Q 48.484375 72.75 52.59375 71.296875 
" id="BitstreamVeraSans-Roman-36"/>
      </defs>
      <g transform="translate(370.245 381.859875)scale(0.12 -0.12)">
       <use xlink:href="#BitstreamVeraSans-Roman-36"/>
       <use x="63.623046875" xlink:href="#BitstreamVeraSans-Roman-30"/>
       <use x="127.24609375" xlink:href="#BitstreamVeraSans-Roman-30"/>
      </g>
     </g>
    </g>
    <g id="xtick_8">
     <g id="line2d_16">
      <g>
       <use style="stroke:#000000;stroke-width:0.5;" x="437.4975" xlink:href="#m5d8aa9a30c" y="368.74175"/>
      </g>
     </g>
     <g id="line2d_17">
      <g>
       <use style="stroke:#000000;stroke-width:0.5;" x="437.4975" xlink:href="#m66e9b81f72" y="23.14175"/>
      </g>
     </g>
     <g id="text_8">
      <!-- 700 -->
      <defs>
       <path d="M 8.203125 72.90625 
L 55.078125 72.90625 
L 55.078125 68.703125 
L 28.609375 0 
L 18.3125 0 
L 43.21875 64.59375 
L 8.203125 64.59375 
z
" id="BitstreamVeraSans-Roman-37"/>
      </defs>
      <g transform="translate(426.045 381.859875)scale(0.12 -0.12)">
       <use xlink:href="#BitstreamVeraSans-Roman-37"/>
       <use x="63.623046875" xlink:href="#BitstreamVeraSans-Roman-30"/>
       <use x="127.24609375" xlink:href="#BitstreamVeraSans-Roman-30"/>
      </g>
     </g>
    </g>
    <g id="xtick_9">
     <g id="line2d_18">
      <g>
       <use style="stroke:#000000;stroke-width:0.5;" x="493.2975" xlink:href="#m5d8aa9a30c" y="368.74175"/>
      </g>
     </g>
     <g id="line2d_19">
      <g>
       <use style="stroke:#000000;stroke-width:0.5;" x="493.2975" xlink:href="#m66e9b81f72" y="23.14175"/>
      </g>
     </g>
     <g id="text_9">
      <!-- 800 -->
      <defs>
       <path d="M 31.78125 34.625 
Q 24.75 34.625 20.71875 30.859375 
Q 16.703125 27.09375 16.703125 20.515625 
Q 16.703125 13.921875 20.71875 10.15625 
Q 24.75 6.390625 31.78125 6.390625 
Q 38.8125 6.390625 42.859375 10.171875 
Q 46.921875 13.96875 46.921875 20.515625 
Q 46.921875 27.09375 42.890625 30.859375 
Q 38.875 34.625 31.78125 34.625 
M 21.921875 38.8125 
Q 15.578125 40.375 12.03125 44.71875 
Q 8.5 49.078125 8.5 55.328125 
Q 8.5 64.0625 14.71875 69.140625 
Q 20.953125 74.21875 31.78125 74.21875 
Q 42.671875 74.21875 48.875 69.140625 
Q 55.078125 64.0625 55.078125 55.328125 
Q 55.078125 49.078125 51.53125 44.71875 
Q 48 40.375 41.703125 38.8125 
Q 48.828125 37.15625 52.796875 32.3125 
Q 56.78125 27.484375 56.78125 20.515625 
Q 56.78125 9.90625 50.3125 4.234375 
Q 43.84375 -1.421875 31.78125 -1.421875 
Q 19.734375 -1.421875 13.25 4.234375 
Q 6.78125 9.90625 6.78125 20.515625 
Q 6.78125 27.484375 10.78125 32.3125 
Q 14.796875 37.15625 21.921875 38.8125 
M 18.3125 54.390625 
Q 18.3125 48.734375 21.84375 45.5625 
Q 25.390625 42.390625 31.78125 42.390625 
Q 38.140625 42.390625 41.71875 45.5625 
Q 45.3125 48.734375 45.3125 54.390625 
Q 45.3125 60.0625 41.71875 63.234375 
Q 38.140625 66.40625 31.78125 66.40625 
Q 25.390625 66.40625 21.84375 63.234375 
Q 18.3125 60.0625 18.3125 54.390625 
" id="BitstreamVeraSans-Roman-38"/>
      </defs>
      <g transform="translate(481.845 381.859875)scale(0.12 -0.12)">
       <use xlink:href="#BitstreamVeraSans-Roman-38"/>
       <use x="63.623046875" xlink:href="#BitstreamVeraSans-Roman-30"/>
       <use x="127.24609375" xlink:href="#BitstreamVeraSans-Roman-30"/>
      </g>
     </g>
    </g>
    <g id="text_10">
     <!-- episode -->
     <defs>
      <path d="M 18.109375 8.203125 
L 18.109375 -20.796875 
L 9.078125 -20.796875 
L 9.078125 54.6875 
L 18.109375 54.6875 
L 18.109375 46.390625 
Q 20.953125 51.265625 25.265625 53.625 
Q 29.59375 56 35.59375 56 
Q 45.5625 56 51.78125 48.09375 
Q 58.015625 40.1875 58.015625 27.296875 
Q 58.015625 14.40625 51.78125 6.484375 
Q 45.5625 -1.421875 35.59375 -1.421875 
Q 29.59375 -1.421875 25.265625 0.953125 
Q 20.953125 3.328125 18.109375 8.203125 
M 48.6875 27.296875 
Q 48.6875 37.203125 44.609375 42.84375 
Q 40.53125 48.484375 33.40625 48.484375 
Q 26.265625 48.484375 22.1875 42.84375 
Q 18.109375 37.203125 18.109375 27.296875 
Q 18.109375 17.390625 22.1875 11.75 
Q 26.265625 6.109375 33.40625 6.109375 
Q 40.53125 6.109375 44.609375 11.75 
Q 48.6875 17.390625 48.6875 27.296875 
" id="BitstreamVeraSans-Roman-70"/>
      <path d="M 30.609375 48.390625 
Q 23.390625 48.390625 19.1875 42.75 
Q 14.984375 37.109375 14.984375 27.296875 
Q 14.984375 17.484375 19.15625 11.84375 
Q 23.34375 6.203125 30.609375 6.203125 
Q 37.796875 6.203125 41.984375 11.859375 
Q 46.1875 17.53125 46.1875 27.296875 
Q 46.1875 37.015625 41.984375 42.703125 
Q 37.796875 48.390625 30.609375 48.390625 
M 30.609375 56 
Q 42.328125 56 49.015625 48.375 
Q 55.71875 40.765625 55.71875 27.296875 
Q 55.71875 13.875 49.015625 6.21875 
Q 42.328125 -1.421875 30.609375 -1.421875 
Q 18.84375 -1.421875 12.171875 6.21875 
Q 5.515625 13.875 5.515625 27.296875 
Q 5.515625 40.765625 12.171875 48.375 
Q 18.84375 56 30.609375 56 
" id="BitstreamVeraSans-Roman-6f"/>
      <path d="M 9.421875 54.6875 
L 18.40625 54.6875 
L 18.40625 0 
L 9.421875 0 
z
M 9.421875 75.984375 
L 18.40625 75.984375 
L 18.40625 64.59375 
L 9.421875 64.59375 
z
" id="BitstreamVeraSans-Roman-69"/>
      <path d="M 45.40625 46.390625 
L 45.40625 75.984375 
L 54.390625 75.984375 
L 54.390625 0 
L 45.40625 0 
L 45.40625 8.203125 
Q 42.578125 3.328125 38.25 0.953125 
Q 33.9375 -1.421875 27.875 -1.421875 
Q 17.96875 -1.421875 11.734375 6.484375 
Q 5.515625 14.40625 5.515625 27.296875 
Q 5.515625 40.1875 11.734375 48.09375 
Q 17.96875 56 27.875 56 
Q 33.9375 56 38.25 53.625 
Q 42.578125 51.265625 45.40625 46.390625 
M 14.796875 27.296875 
Q 14.796875 17.390625 18.875 11.75 
Q 22.953125 6.109375 30.078125 6.109375 
Q 37.203125 6.109375 41.296875 11.75 
Q 45.40625 17.390625 45.40625 27.296875 
Q 45.40625 37.203125 41.296875 42.84375 
Q 37.203125 48.484375 30.078125 48.484375 
Q 22.953125 48.484375 18.875 42.84375 
Q 14.796875 37.203125 14.796875 27.296875 
" id="BitstreamVeraSans-Roman-64"/>
      <path d="M 44.28125 53.078125 
L 44.28125 44.578125 
Q 40.484375 46.53125 36.375 47.5 
Q 32.28125 48.484375 27.875 48.484375 
Q 21.1875 48.484375 17.84375 46.4375 
Q 14.5 44.390625 14.5 40.28125 
Q 14.5 37.15625 16.890625 35.375 
Q 19.28125 33.59375 26.515625 31.984375 
L 29.59375 31.296875 
Q 39.15625 29.25 43.1875 25.515625 
Q 47.21875 21.78125 47.21875 15.09375 
Q 47.21875 7.46875 41.1875 3.015625 
Q 35.15625 -1.421875 24.609375 -1.421875 
Q 20.21875 -1.421875 15.453125 -0.5625 
Q 10.6875 0.296875 5.421875 2 
L 5.421875 11.28125 
Q 10.40625 8.6875 15.234375 7.390625 
Q 20.0625 6.109375 24.8125 6.109375 
Q 31.15625 6.109375 34.5625 8.28125 
Q 37.984375 10.453125 37.984375 14.40625 
Q 37.984375 18.0625 35.515625 20.015625 
Q 33.0625 21.96875 24.703125 23.78125 
L 21.578125 24.515625 
Q 13.234375 26.265625 9.515625 29.90625 
Q 5.8125 33.546875 5.8125 39.890625 
Q 5.8125 47.609375 11.28125 51.796875 
Q 16.75 56 26.8125 56 
Q 31.78125 56 36.171875 55.265625 
Q 40.578125 54.546875 44.28125 53.078125 
" id="BitstreamVeraSans-Roman-73"/>
      <path d="M 56.203125 29.59375 
L 56.203125 25.203125 
L 14.890625 25.203125 
Q 15.484375 15.921875 20.484375 11.0625 
Q 25.484375 6.203125 34.421875 6.203125 
Q 39.59375 6.203125 44.453125 7.46875 
Q 49.3125 8.734375 54.109375 11.28125 
L 54.109375 2.78125 
Q 49.265625 0.734375 44.1875 -0.34375 
Q 39.109375 -1.421875 33.890625 -1.421875 
Q 20.796875 -1.421875 13.15625 6.1875 
Q 5.515625 13.8125 5.515625 26.8125 
Q 5.515625 40.234375 12.765625 48.109375 
Q 20.015625 56 32.328125 56 
Q 43.359375 56 49.78125 48.890625 
Q 56.203125 41.796875 56.203125 29.59375 
M 47.21875 32.234375 
Q 47.125 39.59375 43.09375 43.984375 
Q 39.0625 48.390625 32.421875 48.390625 
Q 24.90625 48.390625 20.390625 44.140625 
Q 15.875 39.890625 15.1875 32.171875 
z
" id="BitstreamVeraSans-Roman-65"/>
     </defs>
     <g transform="translate(246.631875 398.473625)scale(0.12 -0.12)">
      <use xlink:href="#BitstreamVeraSans-Roman-65"/>
      <use x="61.5234375" xlink:href="#BitstreamVeraSans-Roman-70"/>
      <use x="125.0" xlink:href="#BitstreamVeraSans-Roman-69"/>
      <use x="152.783203125" xlink:href="#BitstreamVeraSans-Roman-73"/>
      <use x="204.8828125" xlink:href="#BitstreamVeraSans-Roman-6f"/>
      <use x="266.064453125" xlink:href="#BitstreamVeraSans-Roman-64"/>
      <use x="329.541015625" xlink:href="#BitstreamVeraSans-Roman-65"/>
     </g>
    </g>
   </g>
   <g id="matplotlib.axis_2">
    <g id="ytick_1">
     <g id="line2d_20">
      <defs>
       <path d="M 0 0 
L 4 0 
" id="me9ebcfa674" style="stroke:#000000;stroke-width:0.5;"/>
      </defs>
      <g>
       <use style="stroke:#000000;stroke-width:0.5;" x="46.8975" xlink:href="#me9ebcfa674" y="368.74175"/>
      </g>
     </g>
     <g id="line2d_21">
      <defs>
       <path d="M 0 0 
L -4 0 
" id="mf779441da8" style="stroke:#000000;stroke-width:0.5;"/>
      </defs>
      <g>
       <use style="stroke:#000000;stroke-width:0.5;" x="493.2975" xlink:href="#mf779441da8" y="368.74175"/>
      </g>
     </g>
     <g id="text_11">
      <!-- 0.1 -->
      <defs>
       <path d="M 10.6875 12.40625 
L 21 12.40625 
L 21 0 
L 10.6875 0 
z
" id="BitstreamVeraSans-Roman-2e"/>
      </defs>
      <g transform="translate(23.81375 372.053)scale(0.12 -0.12)">
       <use xlink:href="#BitstreamVeraSans-Roman-30"/>
       <use x="63.623046875" xlink:href="#BitstreamVeraSans-Roman-2e"/>
       <use x="95.41015625" xlink:href="#BitstreamVeraSans-Roman-31"/>
      </g>
     </g>
    </g>
    <g id="ytick_2">
     <g id="line2d_22">
      <g>
       <use style="stroke:#000000;stroke-width:0.5;" x="46.8975" xlink:href="#me9ebcfa674" y="291.94175"/>
      </g>
     </g>
     <g id="line2d_23">
      <g>
       <use style="stroke:#000000;stroke-width:0.5;" x="493.2975" xlink:href="#mf779441da8" y="291.94175"/>
      </g>
     </g>
     <g id="text_12">
      <!-- 0.2 -->
      <g transform="translate(23.81375 295.253)scale(0.12 -0.12)">
       <use xlink:href="#BitstreamVeraSans-Roman-30"/>
       <use x="63.623046875" xlink:href="#BitstreamVeraSans-Roman-2e"/>
       <use x="95.41015625" xlink:href="#BitstreamVeraSans-Roman-32"/>
      </g>
     </g>
    </g>
    <g id="ytick_3">
     <g id="line2d_24">
      <g>
       <use style="stroke:#000000;stroke-width:0.5;" x="46.8975" xlink:href="#me9ebcfa674" y="215.14175"/>
      </g>
     </g>
     <g id="line2d_25">
      <g>
       <use style="stroke:#000000;stroke-width:0.5;" x="493.2975" xlink:href="#mf779441da8" y="215.14175"/>
      </g>
     </g>
     <g id="text_13">
      <!-- 0.3 -->
      <g transform="translate(23.81375 218.453)scale(0.12 -0.12)">
       <use xlink:href="#BitstreamVeraSans-Roman-30"/>
       <use x="63.623046875" xlink:href="#BitstreamVeraSans-Roman-2e"/>
       <use x="95.41015625" xlink:href="#BitstreamVeraSans-Roman-33"/>
      </g>
     </g>
    </g>
    <g id="ytick_4">
     <g id="line2d_26">
      <g>
       <use style="stroke:#000000;stroke-width:0.5;" x="46.8975" xlink:href="#me9ebcfa674" y="138.34175"/>
      </g>
     </g>
     <g id="line2d_27">
      <g>
       <use style="stroke:#000000;stroke-width:0.5;" x="493.2975" xlink:href="#mf779441da8" y="138.34175"/>
      </g>
     </g>
     <g id="text_14">
      <!-- 0.4 -->
      <g transform="translate(23.81375 141.653)scale(0.12 -0.12)">
       <use xlink:href="#BitstreamVeraSans-Roman-30"/>
       <use x="63.623046875" xlink:href="#BitstreamVeraSans-Roman-2e"/>
       <use x="95.41015625" xlink:href="#BitstreamVeraSans-Roman-34"/>
      </g>
     </g>
    </g>
    <g id="ytick_5">
     <g id="line2d_28">
      <g>
       <use style="stroke:#000000;stroke-width:0.5;" x="46.8975" xlink:href="#me9ebcfa674" y="61.54175"/>
      </g>
     </g>
     <g id="line2d_29">
      <g>
       <use style="stroke:#000000;stroke-width:0.5;" x="493.2975" xlink:href="#mf779441da8" y="61.54175"/>
      </g>
     </g>
     <g id="text_15">
      <!-- 0.5 -->
      <g transform="translate(23.81375 64.853)scale(0.12 -0.12)">
       <use xlink:href="#BitstreamVeraSans-Roman-30"/>
       <use x="63.623046875" xlink:href="#BitstreamVeraSans-Roman-2e"/>
       <use x="95.41015625" xlink:href="#BitstreamVeraSans-Roman-35"/>
      </g>
     </g>
    </g>
    <g id="text_16">
     <!-- average maxQ -->
     <defs>
      <path d="M 2.984375 54.6875 
L 12.5 54.6875 
L 29.59375 8.796875 
L 46.6875 54.6875 
L 56.203125 54.6875 
L 35.6875 0 
L 23.484375 0 
z
" id="BitstreamVeraSans-Roman-76"/>
      <path d="M 39.40625 66.21875 
Q 28.65625 66.21875 22.328125 58.203125 
Q 16.015625 50.203125 16.015625 36.375 
Q 16.015625 22.609375 22.328125 14.59375 
Q 28.65625 6.59375 39.40625 6.59375 
Q 50.140625 6.59375 56.421875 14.59375 
Q 62.703125 22.609375 62.703125 36.375 
Q 62.703125 50.203125 56.421875 58.203125 
Q 50.140625 66.21875 39.40625 66.21875 
M 53.21875 1.3125 
L 66.21875 -12.890625 
L 54.296875 -12.890625 
L 43.5 -1.21875 
Q 41.890625 -1.3125 41.03125 -1.359375 
Q 40.1875 -1.421875 39.40625 -1.421875 
Q 24.03125 -1.421875 14.8125 8.859375 
Q 5.609375 19.140625 5.609375 36.375 
Q 5.609375 53.65625 14.8125 63.9375 
Q 24.03125 74.21875 39.40625 74.21875 
Q 54.734375 74.21875 63.90625 63.9375 
Q 73.09375 53.65625 73.09375 36.375 
Q 73.09375 23.6875 67.984375 14.640625 
Q 62.890625 5.609375 53.21875 1.3125 
" id="BitstreamVeraSans-Roman-51"/>
      <path d="M 41.109375 46.296875 
Q 39.59375 47.171875 37.8125 47.578125 
Q 36.03125 48 33.890625 48 
Q 26.265625 48 22.1875 43.046875 
Q 18.109375 38.09375 18.109375 28.8125 
L 18.109375 0 
L 9.078125 0 
L 9.078125 54.6875 
L 18.109375 54.6875 
L 18.109375 46.1875 
Q 20.953125 51.171875 25.484375 53.578125 
Q 30.03125 56 36.53125 56 
Q 37.453125 56 38.578125 55.875 
Q 39.703125 55.765625 41.0625 55.515625 
z
" id="BitstreamVeraSans-Roman-72"/>
      <path d="M 45.40625 27.984375 
Q 45.40625 37.75 41.375 43.109375 
Q 37.359375 48.484375 30.078125 48.484375 
Q 22.859375 48.484375 18.828125 43.109375 
Q 14.796875 37.75 14.796875 27.984375 
Q 14.796875 18.265625 18.828125 12.890625 
Q 22.859375 7.515625 30.078125 7.515625 
Q 37.359375 7.515625 41.375 12.890625 
Q 45.40625 18.265625 45.40625 27.984375 
M 54.390625 6.78125 
Q 54.390625 -7.171875 48.1875 -13.984375 
Q 42 -20.796875 29.203125 -20.796875 
Q 24.46875 -20.796875 20.265625 -20.09375 
Q 16.0625 -19.390625 12.109375 -17.921875 
L 12.109375 -9.1875 
Q 16.0625 -11.328125 19.921875 -12.34375 
Q 23.78125 -13.375 27.78125 -13.375 
Q 36.625 -13.375 41.015625 -8.765625 
Q 45.40625 -4.15625 45.40625 5.171875 
L 45.40625 9.625 
Q 42.625 4.78125 38.28125 2.390625 
Q 33.9375 0 27.875 0 
Q 17.828125 0 11.671875 7.65625 
Q 5.515625 15.328125 5.515625 27.984375 
Q 5.515625 40.671875 11.671875 48.328125 
Q 17.828125 56 27.875 56 
Q 33.9375 56 38.28125 53.609375 
Q 42.625 51.21875 45.40625 46.390625 
L 45.40625 54.6875 
L 54.390625 54.6875 
z
" id="BitstreamVeraSans-Roman-67"/>
      <path d="M 34.28125 27.484375 
Q 23.390625 27.484375 19.1875 25 
Q 14.984375 22.515625 14.984375 16.5 
Q 14.984375 11.71875 18.140625 8.90625 
Q 21.296875 6.109375 26.703125 6.109375 
Q 34.1875 6.109375 38.703125 11.40625 
Q 43.21875 16.703125 43.21875 25.484375 
L 43.21875 27.484375 
z
M 52.203125 31.203125 
L 52.203125 0 
L 43.21875 0 
L 43.21875 8.296875 
Q 40.140625 3.328125 35.546875 0.953125 
Q 30.953125 -1.421875 24.3125 -1.421875 
Q 15.921875 -1.421875 10.953125 3.296875 
Q 6 8.015625 6 15.921875 
Q 6 25.140625 12.171875 29.828125 
Q 18.359375 34.515625 30.609375 34.515625 
L 43.21875 34.515625 
L 43.21875 35.40625 
Q 43.21875 41.609375 39.140625 45 
Q 35.0625 48.390625 27.6875 48.390625 
Q 23 48.390625 18.546875 47.265625 
Q 14.109375 46.140625 10.015625 43.890625 
L 10.015625 52.203125 
Q 14.9375 54.109375 19.578125 55.046875 
Q 24.21875 56 28.609375 56 
Q 40.484375 56 46.34375 49.84375 
Q 52.203125 43.703125 52.203125 31.203125 
" id="BitstreamVeraSans-Roman-61"/>
      <path id="BitstreamVeraSans-Roman-20"/>
      <path d="M 52 44.1875 
Q 55.375 50.25 60.0625 53.125 
Q 64.75 56 71.09375 56 
Q 79.640625 56 84.28125 50.015625 
Q 88.921875 44.046875 88.921875 33.015625 
L 88.921875 0 
L 79.890625 0 
L 79.890625 32.71875 
Q 79.890625 40.578125 77.09375 44.375 
Q 74.3125 48.1875 68.609375 48.1875 
Q 61.625 48.1875 57.5625 43.546875 
Q 53.515625 38.921875 53.515625 30.90625 
L 53.515625 0 
L 44.484375 0 
L 44.484375 32.71875 
Q 44.484375 40.625 41.703125 44.40625 
Q 38.921875 48.1875 33.109375 48.1875 
Q 26.21875 48.1875 22.15625 43.53125 
Q 18.109375 38.875 18.109375 30.90625 
L 18.109375 0 
L 9.078125 0 
L 9.078125 54.6875 
L 18.109375 54.6875 
L 18.109375 46.1875 
Q 21.1875 51.21875 25.484375 53.609375 
Q 29.78125 56 35.6875 56 
Q 41.65625 56 45.828125 52.96875 
Q 50 49.953125 52 44.1875 
" id="BitstreamVeraSans-Roman-6d"/>
      <path d="M 54.890625 54.6875 
L 35.109375 28.078125 
L 55.90625 0 
L 45.3125 0 
L 29.390625 21.484375 
L 13.484375 0 
L 2.875 0 
L 24.125 28.609375 
L 4.6875 54.6875 
L 15.28125 54.6875 
L 29.78125 35.203125 
L 44.28125 54.6875 
z
" id="BitstreamVeraSans-Roman-78"/>
     </defs>
     <g transform="translate(16.318125 240.208625)rotate(-90.0)scale(0.12 -0.12)">
      <use xlink:href="#BitstreamVeraSans-Roman-61"/>
      <use x="61.279296875" xlink:href="#BitstreamVeraSans-Roman-76"/>
      <use x="120.458984375" xlink:href="#BitstreamVeraSans-Roman-65"/>
      <use x="181.982421875" xlink:href="#BitstreamVeraSans-Roman-72"/>
      <use x="223.095703125" xlink:href="#BitstreamVeraSans-Roman-61"/>
      <use x="284.375" xlink:href="#BitstreamVeraSans-Roman-67"/>
      <use x="347.8515625" xlink:href="#BitstreamVeraSans-Roman-65"/>
      <use x="409.375" xlink:href="#BitstreamVeraSans-Roman-20"/>
      <use x="441.162109375" xlink:href="#BitstreamVeraSans-Roman-6d"/>
      <use x="538.57421875" xlink:href="#BitstreamVeraSans-Roman-61"/>
      <use x="599.853515625" xlink:href="#BitstreamVeraSans-Roman-78"/>
      <use x="659.033203125" xlink:href="#BitstreamVeraSans-Roman-51"/>
     </g>
    </g>
   </g>
   <g id="text_17">
    <!-- Average maxQ per episode, joint 2 -->
    <defs>
     <path d="M 18.3125 70.21875 
L 18.3125 54.6875 
L 36.8125 54.6875 
L 36.8125 47.703125 
L 18.3125 47.703125 
L 18.3125 18.015625 
Q 18.3125 11.328125 20.140625 9.421875 
Q 21.96875 7.515625 27.59375 7.515625 
L 36.8125 7.515625 
L 36.8125 0 
L 27.59375 0 
Q 17.1875 0 13.234375 3.875 
Q 9.28125 7.765625 9.28125 18.015625 
L 9.28125 47.703125 
L 2.6875 47.703125 
L 2.6875 54.6875 
L 9.28125 54.6875 
L 9.28125 70.21875 
z
" id="BitstreamVeraSans-Roman-74"/>
     <path d="M 9.421875 54.6875 
L 18.40625 54.6875 
L 18.40625 -0.984375 
Q 18.40625 -11.421875 14.421875 -16.109375 
Q 10.453125 -20.796875 1.609375 -20.796875 
L -1.8125 -20.796875 
L -1.8125 -13.1875 
L 0.59375 -13.1875 
Q 5.71875 -13.1875 7.5625 -10.8125 
Q 9.421875 -8.453125 9.421875 -0.984375 
z
M 9.421875 75.984375 
L 18.40625 75.984375 
L 18.40625 64.59375 
L 9.421875 64.59375 
z
" id="BitstreamVeraSans-Roman-6a"/>
     <path d="M 11.71875 12.40625 
L 22.015625 12.40625 
L 22.015625 4 
L 14.015625 -11.625 
L 7.71875 -11.625 
L 11.71875 4 
z
" id="BitstreamVeraSans-Roman-2c"/>
     <path d="M 54.890625 33.015625 
L 54.890625 0 
L 45.90625 0 
L 45.90625 32.71875 
Q 45.90625 40.484375 42.875 44.328125 
Q 39.84375 48.1875 33.796875 48.1875 
Q 26.515625 48.1875 22.3125 43.546875 
Q 18.109375 38.921875 18.109375 30.90625 
L 18.109375 0 
L 9.078125 0 
L 9.078125 54.6875 
L 18.109375 54.6875 
L 18.109375 46.1875 
Q 21.34375 51.125 25.703125 53.5625 
Q 30.078125 56 35.796875 56 
Q 45.21875 56 50.046875 50.171875 
Q 54.890625 44.34375 54.890625 33.015625 
" id="BitstreamVeraSans-Roman-6e"/>
     <path d="M 34.1875 63.1875 
L 20.796875 26.90625 
L 47.609375 26.90625 
z
M 28.609375 72.90625 
L 39.796875 72.90625 
L 67.578125 0 
L 57.328125 0 
L 50.6875 18.703125 
L 17.828125 18.703125 
L 11.1875 0 
L 0.78125 0 
z
" id="BitstreamVeraSans-Roman-41"/>
    </defs>
    <g transform="translate(144.53625 18.14175)scale(0.144 -0.144)">
     <use xlink:href="#BitstreamVeraSans-Roman-41"/>
     <use x="68.330078125" xlink:href="#BitstreamVeraSans-Roman-76"/>
     <use x="127.509765625" xlink:href="#BitstreamVeraSans-Roman-65"/>
     <use x="189.033203125" xlink:href="#BitstreamVeraSans-Roman-72"/>
     <use x="230.146484375" xlink:href="#BitstreamVeraSans-Roman-61"/>
     <use x="291.42578125" xlink:href="#BitstreamVeraSans-Roman-67"/>
     <use x="354.90234375" xlink:href="#BitstreamVeraSans-Roman-65"/>
     <use x="416.42578125" xlink:href="#BitstreamVeraSans-Roman-20"/>
     <use x="448.212890625" xlink:href="#BitstreamVeraSans-Roman-6d"/>
     <use x="545.625" xlink:href="#BitstreamVeraSans-Roman-61"/>
     <use x="606.904296875" xlink:href="#BitstreamVeraSans-Roman-78"/>
     <use x="666.083984375" xlink:href="#BitstreamVeraSans-Roman-51"/>
     <use x="744.794921875" xlink:href="#BitstreamVeraSans-Roman-20"/>
     <use x="776.58203125" xlink:href="#BitstreamVeraSans-Roman-70"/>
     <use x="840.05859375" xlink:href="#BitstreamVeraSans-Roman-65"/>
     <use x="901.58203125" xlink:href="#BitstreamVeraSans-Roman-72"/>
     <use x="942.6953125" xlink:href="#BitstreamVeraSans-Roman-20"/>
     <use x="974.482421875" xlink:href="#BitstreamVeraSans-Roman-65"/>
     <use x="1036.005859375" xlink:href="#BitstreamVeraSans-Roman-70"/>
     <use x="1099.482421875" xlink:href="#BitstreamVeraSans-Roman-69"/>
     <use x="1127.265625" xlink:href="#BitstreamVeraSans-Roman-73"/>
     <use x="1179.365234375" xlink:href="#BitstreamVeraSans-Roman-6f"/>
     <use x="1240.546875" xlink:href="#BitstreamVeraSans-Roman-64"/>
     <use x="1304.0234375" xlink:href="#BitstreamVeraSans-Roman-65"/>
     <use x="1365.546875" xlink:href="#BitstreamVeraSans-Roman-2c"/>
     <use x="1397.333984375" xlink:href="#BitstreamVeraSans-Roman-20"/>
     <use x="1429.12109375" xlink:href="#BitstreamVeraSans-Roman-6a"/>
     <use x="1456.904296875" xlink:href="#BitstreamVeraSans-Roman-6f"/>
     <use x="1518.0859375" xlink:href="#BitstreamVeraSans-Roman-69"/>
     <use x="1545.869140625" xlink:href="#BitstreamVeraSans-Roman-6e"/>
     <use x="1609.248046875" xlink:href="#BitstreamVeraSans-Roman-74"/>
     <use x="1648.45703125" xlink:href="#BitstreamVeraSans-Roman-20"/>
     <use x="1680.244140625" xlink:href="#BitstreamVeraSans-Roman-32"/>
    </g>
   </g>
  </g>
 </g>
 <defs>
  <clipPath id="pa7166a36a4">
   <rect height="345.6" width="446.4" x="46.8975" y="23.14175"/>
  </clipPath>
 </defs>
</svg>
